<svg xmlns="http://www.w3.org/2000/svg" viewBox="0 0 653 704" shape-rendering="geometricPrecision"><title>intro frame 092</title><path d="M 470 513 L 468 513 L 458 521 L 453 522 L 445 530 L 441 528 L 433 538 L 429 536 L 424 541 L 423 544 L 421 546 L 418 544 L 414 546 L 411 551 L 403 558 L 397 569 L 393 573 L 393 575 L 390 580 L 389 587 L 388 588 L 392 594 L 391 607 L 394 608 L 396 611 L 395 627 L 396 628 L 399 627 L 402 630 L 402 641 L 403 642 L 403 645 L 400 654 L 400 667 L 402 671 L 406 675 L 408 675 L 411 677 L 414 677 L 417 679 L 421 679 L 426 681 L 435 681 L 436 680 L 436 665 L 440 659 L 444 659 L 448 663 L 448 666 L 449 667 L 449 681 L 450 682 L 468 682 L 469 681 L 469 676 L 468 675 L 468 660 L 470 658 L 475 658 L 479 662 L 481 666 L 481 669 L 482 670 L 482 680 L 490 680 L 491 679 L 494 679 L 495 678 L 495 669 L 494 668 L 494 662 L 493 659 L 497 655 L 499 655 L 502 657 L 506 662 L 508 668 L 508 675 L 510 676 L 515 670 L 516 663 L 515 662 L 515 656 L 514 653 L 506 644 L 499 641 L 497 639 L 493 639 L 492 638 L 488 638 L 486 640 L 459 639 L 458 640 L 451 640 L 450 641 L 446 641 L 445 640 L 435 640 L 434 639 L 439 635 L 442 634 L 451 634 L 452 633 L 457 633 L 458 632 L 480 632 L 483 633 L 482 631 L 482 627 L 481 626 L 481 622 L 482 621 L 483 615 L 485 613 L 489 615 L 490 623 L 492 622 L 492 618 L 488 613 L 488 611 L 483 601 L 485 600 L 489 605 L 491 605 L 493 603 L 492 600 L 490 598 L 484 596 L 480 592 L 477 591 L 465 580 L 465 579 L 468 577 L 478 582 L 487 585 L 489 584 L 488 581 L 474 565 L 475 562 L 478 562 L 488 569 L 489 567 L 487 564 L 487 561 L 483 555 L 474 551 L 471 548 L 472 546 L 475 547 L 483 547 L 484 545 L 476 538 L 478 536 L 482 536 L 485 538 L 487 537 L 477 527 L 474 518 Z M 444 584 L 446 584 L 449 587 L 456 598 L 456 600 L 454 602 L 453 602 L 444 592 L 442 588 L 442 586 Z M 435 581 L 436 582 L 436 589 L 433 593 L 431 593 L 430 592 L 430 589 L 432 584 Z M 409 562 L 410 563 L 410 568 L 408 572 L 405 575 L 403 575 L 402 574 L 402 571 L 405 565 Z M 228 508 L 226 514 L 222 519 L 223 520 L 226 519 L 228 521 L 228 525 L 225 529 L 225 532 L 223 535 L 223 538 L 227 538 L 229 540 L 224 554 L 224 557 L 222 560 L 222 567 L 226 565 L 229 568 L 227 574 L 227 579 L 226 580 L 229 583 L 229 594 L 231 598 L 232 609 L 235 617 L 235 620 L 239 624 L 244 624 L 245 625 L 248 625 L 256 628 L 259 632 L 257 634 L 252 634 L 243 631 L 225 631 L 224 632 L 220 632 L 211 635 L 202 645 L 201 655 L 200 656 L 201 662 L 204 666 L 205 665 L 205 659 L 208 650 L 214 645 L 218 645 L 220 647 L 220 653 L 218 656 L 218 662 L 217 663 L 217 666 L 219 669 L 222 670 L 229 670 L 229 663 L 230 662 L 231 656 L 237 650 L 241 650 L 244 653 L 244 657 L 242 661 L 242 669 L 241 670 L 242 672 L 244 673 L 272 672 L 275 668 L 279 667 L 283 665 L 286 662 L 288 662 L 291 660 L 295 655 L 294 648 L 290 645 L 287 641 L 287 635 L 289 633 L 291 636 L 292 636 L 294 631 L 296 629 L 296 626 L 293 622 L 293 618 L 297 613 L 296 612 L 295 606 L 286 596 L 285 588 L 287 586 L 293 593 L 295 593 L 292 589 L 292 586 L 295 585 L 296 583 L 276 562 L 275 559 L 264 542 L 262 540 L 257 538 L 254 535 L 250 527 L 241 519 L 238 518 L 230 508 Z M 258 581 L 260 583 L 260 585 L 257 588 L 254 585 L 255 583 Z M 266 575 L 269 576 L 274 586 L 274 589 L 272 591 L 269 588 L 267 583 L 265 581 L 265 576 Z M 281 572 L 283 574 L 282 576 L 282 582 L 279 584 L 278 583 L 278 576 L 279 573 Z M 248 567 L 250 569 L 249 571 L 243 577 L 242 577 L 240 574 L 246 567 Z M 261 552 L 263 553 L 263 556 L 262 557 L 260 556 L 260 553 Z M 465 424 L 465 427 L 467 429 L 470 430 L 469 427 Z M 450 16 L 447 16 L 446 15 L 435 15 L 426 18 L 418 24 L 416 28 L 413 31 L 412 37 L 409 40 L 405 38 L 402 38 L 399 36 L 389 35 L 383 33 L 366 33 L 360 35 L 358 33 L 358 30 L 360 25 L 357 24 L 348 34 L 345 34 L 334 28 L 330 27 L 329 28 L 332 33 L 332 37 L 330 39 L 315 39 L 314 40 L 311 40 L 307 45 L 304 45 L 299 48 L 297 48 L 283 58 L 279 55 L 274 48 L 264 43 L 253 43 L 247 45 L 240 49 L 233 56 L 229 64 L 228 79 L 234 91 L 243 98 L 247 98 L 250 101 L 248 108 L 241 123 L 242 134 L 230 147 L 231 148 L 233 147 L 238 147 L 240 149 L 240 152 L 233 165 L 234 168 L 235 167 L 238 167 L 240 169 L 240 174 L 238 178 L 237 189 L 239 190 L 243 187 L 246 190 L 245 203 L 247 209 L 250 211 L 253 207 L 257 211 L 258 217 L 260 219 L 263 219 L 265 222 L 275 231 L 277 231 L 279 233 L 285 236 L 287 236 L 295 244 L 296 248 L 294 250 L 291 250 L 287 246 L 285 246 L 280 243 L 278 248 L 276 250 L 272 250 L 264 241 L 261 243 L 259 243 L 256 240 L 254 233 L 252 231 L 251 228 L 250 228 L 247 232 L 243 229 L 241 226 L 239 218 L 236 213 L 234 213 L 234 216 L 232 218 L 230 218 L 226 214 L 218 193 L 217 192 L 213 195 L 208 190 L 207 187 L 201 179 L 201 177 L 198 173 L 196 167 L 188 156 L 188 150 L 190 148 L 191 144 L 194 141 L 194 137 L 185 142 L 180 142 L 175 137 L 174 128 L 178 121 L 175 118 L 174 113 L 173 113 L 172 118 L 166 123 L 160 122 L 156 117 L 152 117 L 149 115 L 147 115 L 141 122 L 137 122 L 136 123 L 134 122 L 131 122 L 130 123 L 123 122 L 122 123 L 122 130 L 121 132 L 116 136 L 112 135 L 107 131 L 104 131 L 103 133 L 110 139 L 111 142 L 111 148 L 112 148 L 118 142 L 124 134 L 131 130 L 134 127 L 137 127 L 139 125 L 142 124 L 157 124 L 164 128 L 172 137 L 172 139 L 174 141 L 174 143 L 176 146 L 176 156 L 172 162 L 161 170 L 136 178 L 130 178 L 128 179 L 127 178 L 121 177 L 114 171 L 109 163 L 109 155 L 108 154 L 105 156 L 102 156 L 98 154 L 93 149 L 91 146 L 90 137 L 95 133 L 95 132 L 92 131 L 89 133 L 89 136 L 88 137 L 89 145 L 92 148 L 94 155 L 102 165 L 104 170 L 116 186 L 117 194 L 118 195 L 118 198 L 119 199 L 119 202 L 122 211 L 128 215 L 129 218 L 139 230 L 141 235 L 147 241 L 152 249 L 156 251 L 170 264 L 176 267 L 178 267 L 180 269 L 186 271 L 189 271 L 190 272 L 193 272 L 198 277 L 198 279 L 194 282 L 189 283 L 190 285 L 193 286 L 199 286 L 200 287 L 202 286 L 206 286 L 209 289 L 214 291 L 216 293 L 227 294 L 229 296 L 229 298 L 226 301 L 219 303 L 218 304 L 219 305 L 222 305 L 225 307 L 228 307 L 229 308 L 238 308 L 241 302 L 247 296 L 250 294 L 254 294 L 256 296 L 256 299 L 254 305 L 252 307 L 252 309 L 246 321 L 246 327 L 244 330 L 244 334 L 246 334 L 256 325 L 260 323 L 263 323 L 265 326 L 257 338 L 245 350 L 239 353 L 230 365 L 231 367 L 235 367 L 237 370 L 222 390 L 223 391 L 228 390 L 230 392 L 230 395 L 228 399 L 225 402 L 223 407 L 221 409 L 221 411 L 216 419 L 217 422 L 220 420 L 222 420 L 224 422 L 224 425 L 218 442 L 217 450 L 218 450 L 222 445 L 224 447 L 224 453 L 223 454 L 223 460 L 222 461 L 222 472 L 225 470 L 228 472 L 229 474 L 229 482 L 231 488 L 232 489 L 235 487 L 239 492 L 240 497 L 243 495 L 246 498 L 250 509 L 252 510 L 252 509 L 255 507 L 265 520 L 269 519 L 277 528 L 278 528 L 281 524 L 292 536 L 296 533 L 302 540 L 303 540 L 303 539 L 299 534 L 290 518 L 290 515 L 288 511 L 288 505 L 290 503 L 292 505 L 292 507 L 294 510 L 294 512 L 296 514 L 296 516 L 305 528 L 307 529 L 315 538 L 318 539 L 323 533 L 325 533 L 328 537 L 330 538 L 346 523 L 348 525 L 348 528 L 343 538 L 343 541 L 345 543 L 349 539 L 353 537 L 356 534 L 359 533 L 363 529 L 365 529 L 367 531 L 367 533 L 362 543 L 365 543 L 368 541 L 370 541 L 379 530 L 380 527 L 388 518 L 390 520 L 388 531 L 392 523 L 394 514 L 396 512 L 399 513 L 399 516 L 400 517 L 400 525 L 397 533 L 397 535 L 398 535 L 402 532 L 409 523 L 412 516 L 414 514 L 415 510 L 417 508 L 417 506 L 419 504 L 423 507 L 423 513 L 421 519 L 418 524 L 419 525 L 425 520 L 431 512 L 435 504 L 435 501 L 438 495 L 440 495 L 442 497 L 441 508 L 443 508 L 450 498 L 451 492 L 453 488 L 457 485 L 459 487 L 459 489 L 460 489 L 460 486 L 464 477 L 464 464 L 466 461 L 466 457 L 467 456 L 466 451 L 464 448 L 464 445 L 466 442 L 470 444 L 470 441 L 469 438 L 462 429 L 462 427 L 460 423 L 457 420 L 455 415 L 458 414 L 463 419 L 466 420 L 468 418 L 468 413 L 462 407 L 458 405 L 449 404 L 445 399 L 447 397 L 453 397 L 454 398 L 458 398 L 464 402 L 466 401 L 462 393 L 460 391 L 459 386 L 455 381 L 457 378 L 460 380 L 461 379 L 460 377 L 457 375 L 445 362 L 446 360 L 448 360 L 455 365 L 457 365 L 457 361 L 455 359 L 455 357 L 451 353 L 447 351 L 436 350 L 431 346 L 433 343 L 438 343 L 441 345 L 446 346 L 450 349 L 452 349 L 452 347 L 450 345 L 450 343 L 445 335 L 446 332 L 450 332 L 450 329 L 448 325 L 450 323 L 453 325 L 454 328 L 461 336 L 461 338 L 463 340 L 463 343 L 472 356 L 474 362 L 476 364 L 478 370 L 481 375 L 482 380 L 484 383 L 488 395 L 488 398 L 489 399 L 489 402 L 492 411 L 492 415 L 494 420 L 496 434 L 498 439 L 498 442 L 494 451 L 493 458 L 492 459 L 492 471 L 495 478 L 498 481 L 501 482 L 506 481 L 508 478 L 511 469 L 514 466 L 516 466 L 520 470 L 520 479 L 516 488 L 516 490 L 513 493 L 513 495 L 515 498 L 521 501 L 527 501 L 529 500 L 536 490 L 536 488 L 539 483 L 541 481 L 543 481 L 546 484 L 546 493 L 545 494 L 545 497 L 543 503 L 548 503 L 555 499 L 555 497 L 559 491 L 560 485 L 567 479 L 570 483 L 570 492 L 571 492 L 575 488 L 581 474 L 582 466 L 583 465 L 583 457 L 584 456 L 583 442 L 582 441 L 581 432 L 582 431 L 585 431 L 583 426 L 583 423 L 581 420 L 580 413 L 578 410 L 577 406 L 573 400 L 575 397 L 577 397 L 579 399 L 580 398 L 564 374 L 566 372 L 569 372 L 572 374 L 572 372 L 567 367 L 563 360 L 552 348 L 554 345 L 557 345 L 561 347 L 563 346 L 544 328 L 534 320 L 534 318 L 536 316 L 542 318 L 545 317 L 532 306 L 521 300 L 519 298 L 520 295 L 522 293 L 526 293 L 526 292 L 516 288 L 511 284 L 509 284 L 506 281 L 506 279 L 508 277 L 512 277 L 513 278 L 516 278 L 516 277 L 502 267 L 494 263 L 492 263 L 488 259 L 488 257 L 490 255 L 493 255 L 492 253 L 490 253 L 486 250 L 483 250 L 467 243 L 457 243 L 455 244 L 449 251 L 448 251 L 443 247 L 429 247 L 427 246 L 424 249 L 419 249 L 417 247 L 416 241 L 416 242 L 409 249 L 409 251 L 406 254 L 403 252 L 404 246 L 414 235 L 418 235 L 420 232 L 420 230 L 423 227 L 425 227 L 427 229 L 427 233 L 428 233 L 430 229 L 430 224 L 433 220 L 436 222 L 436 224 L 439 223 L 440 216 L 438 213 L 440 211 L 442 211 L 446 215 L 447 214 L 446 208 L 451 202 L 454 203 L 456 202 L 454 198 L 448 192 L 449 190 L 453 190 L 456 192 L 458 192 L 460 194 L 461 193 L 461 190 L 457 183 L 460 180 L 467 183 L 468 182 L 468 178 L 463 172 L 465 170 L 466 171 L 469 171 L 470 170 L 469 167 L 461 159 L 462 156 L 468 157 L 473 161 L 475 161 L 477 163 L 477 165 L 480 164 L 482 166 L 481 169 L 481 173 L 482 174 L 482 170 L 483 169 L 487 169 L 489 171 L 490 170 L 489 165 L 485 156 L 482 152 L 482 150 L 485 147 L 488 147 L 491 149 L 493 148 L 491 146 L 490 143 L 478 130 L 478 127 L 480 125 L 489 125 L 489 124 L 485 120 L 479 117 L 474 112 L 474 110 L 478 106 L 472 98 L 466 86 L 457 75 L 457 73 L 460 70 L 463 69 L 471 60 L 474 52 L 474 41 L 472 35 L 469 30 L 461 22 Z M 285 511 L 288 517 L 287 520 L 286 520 L 283 516 L 283 512 Z M 266 499 L 268 502 L 268 505 L 267 506 L 264 503 L 264 500 Z M 429 495 L 430 496 L 430 500 L 428 502 L 426 500 L 426 498 L 427 496 Z M 408 487 L 412 491 L 413 494 L 413 503 L 411 505 L 409 504 L 410 494 L 406 489 Z M 268 486 L 271 488 L 274 494 L 274 496 L 276 498 L 276 500 L 280 507 L 280 512 L 278 514 L 277 514 L 271 507 L 269 501 L 269 498 L 268 497 L 268 490 L 267 489 Z M 272 464 L 273 467 L 271 472 L 271 476 L 269 478 L 267 476 L 267 473 L 269 469 L 269 466 Z M 447 455 L 451 458 L 451 461 L 450 462 L 448 461 L 448 459 L 446 456 Z M 436 454 L 440 457 L 447 474 L 447 482 L 445 484 L 442 482 L 440 489 L 437 492 L 435 491 L 431 491 L 429 489 L 429 479 L 425 472 L 427 470 L 429 471 L 434 477 L 436 474 L 436 465 L 435 464 L 434 456 Z M 391 450 L 393 452 L 391 455 L 389 453 Z M 258 440 L 260 442 L 260 446 L 258 449 L 253 465 L 250 467 L 248 465 L 249 454 L 252 447 Z M 411 423 L 413 421 L 419 424 L 429 423 L 432 426 L 429 429 L 425 429 L 424 430 L 425 431 L 424 433 L 420 433 L 413 427 Z M 257 416 L 259 419 L 254 424 L 250 434 L 249 435 L 244 435 L 243 434 L 243 430 L 247 422 L 251 418 Z M 428 401 L 434 405 L 438 406 L 443 409 L 449 416 L 447 418 L 441 418 L 439 417 L 438 420 L 441 424 L 439 426 L 435 423 L 433 419 L 432 411 L 427 405 L 427 402 Z M 420 393 L 422 391 L 423 392 L 428 392 L 431 396 L 429 398 L 428 397 L 424 397 L 422 396 Z M 433 387 L 437 384 L 443 391 L 441 393 L 437 392 Z M 436 371 L 437 370 L 444 370 L 448 373 L 447 378 L 444 381 L 441 382 L 436 374 Z M 383 370 L 385 368 L 388 368 L 399 375 L 402 378 L 409 378 L 410 379 L 409 381 L 409 387 L 407 388 L 398 380 L 384 372 Z M 409 364 L 411 363 L 414 367 L 416 367 L 419 370 L 420 373 L 418 375 L 414 375 L 411 377 L 408 374 Z M 534 356 L 537 355 L 541 357 L 542 359 L 541 360 L 537 359 Z M 419 347 L 422 346 L 423 349 L 421 350 Z M 390 345 L 392 347 L 390 350 L 388 348 Z M 319 333 L 321 336 L 319 338 L 317 338 L 316 335 Z M 433 329 L 436 327 L 438 329 L 439 332 L 436 333 L 433 331 Z M 420 324 L 422 323 L 426 325 L 430 325 L 432 328 L 431 329 L 424 328 L 422 327 Z M 430 311 L 434 315 L 437 322 L 435 324 L 431 320 L 428 315 L 428 313 Z M 373 310 L 376 314 L 376 316 L 374 318 L 371 314 L 371 311 Z M 377 310 L 380 309 L 384 313 L 388 315 L 390 313 L 390 310 L 391 309 L 393 311 L 393 316 L 390 320 L 387 318 L 383 318 L 377 312 Z M 324 305 L 320 310 L 318 311 L 315 311 L 314 310 L 316 307 L 322 304 Z M 430 299 L 432 297 L 434 297 L 438 302 L 438 304 L 437 305 L 434 305 Z M 382 293 L 384 293 L 386 295 L 387 299 L 391 305 L 389 308 L 380 298 L 380 295 Z M 311 290 L 313 293 L 305 303 L 304 302 L 304 298 L 307 293 Z M 421 287 L 422 288 L 421 299 L 423 302 L 424 309 L 417 318 L 413 318 L 410 315 L 412 313 L 414 313 L 420 309 L 420 306 L 419 305 L 420 302 L 417 299 L 416 295 L 418 293 L 418 288 Z M 422 281 L 425 279 L 427 282 L 424 284 Z M 259 272 L 260 273 L 259 275 L 254 279 L 257 279 L 258 280 L 258 283 L 250 288 L 249 287 L 249 284 L 251 281 L 251 277 L 256 272 Z M 258 264 L 258 263 L 262 260 L 266 260 L 268 262 L 265 266 L 260 266 Z M 419 260 L 416 264 L 414 265 L 411 264 L 412 261 L 416 259 Z M 263 252 L 266 250 L 268 251 L 270 254 L 268 256 L 266 256 Z M 399 244 L 399 247 L 396 252 L 383 265 L 380 266 L 373 272 L 370 273 L 366 277 L 364 278 L 361 277 L 356 280 L 348 279 L 335 272 L 327 266 L 317 255 L 317 253 L 320 250 L 329 250 L 334 252 L 355 252 L 360 250 L 365 250 L 366 249 L 371 249 L 372 248 L 379 247 L 388 243 L 397 242 Z M 385 127 L 388 123 L 394 119 L 400 118 L 401 117 L 415 117 L 416 118 L 421 118 L 430 122 L 434 126 L 437 135 L 434 141 L 428 146 L 420 147 L 419 148 L 404 147 L 391 141 L 385 134 Z M 307 111 L 311 107 L 317 104 L 333 104 L 338 106 L 343 111 L 343 113 L 341 115 L 337 115 L 328 112 L 320 112 L 319 113 L 315 113 L 309 115 L 307 113 Z M 286 99 L 288 98 L 294 98 L 298 103 L 299 106 L 299 113 L 298 114 L 298 117 L 294 122 L 296 121 L 306 120 L 307 119 L 320 120 L 330 124 L 337 132 L 337 137 L 334 143 L 327 150 L 313 157 L 301 157 L 298 155 L 296 155 L 291 152 L 285 146 L 284 143 L 283 143 L 282 146 L 282 158 L 289 166 L 291 167 L 300 167 L 305 163 L 310 161 L 317 162 L 322 164 L 326 164 L 327 165 L 342 165 L 349 162 L 352 162 L 363 156 L 367 152 L 369 147 L 372 144 L 376 144 L 381 150 L 384 170 L 383 171 L 382 191 L 380 195 L 380 198 L 377 204 L 377 206 L 371 217 L 363 225 L 359 227 L 356 230 L 345 234 L 337 234 L 332 231 L 326 229 L 320 225 L 308 212 L 298 197 L 292 182 L 292 178 L 282 173 L 274 165 L 271 159 L 271 149 L 270 148 L 261 158 L 256 160 L 248 159 L 244 155 L 242 151 L 243 144 L 251 135 L 255 133 L 261 132 L 262 131 L 266 131 L 271 133 L 274 137 L 282 137 L 282 132 L 285 127 L 279 120 L 279 112 L 280 111 L 281 105 Z M 372 91 L 379 91 L 386 99 L 386 102 L 387 103 L 387 112 L 385 118 L 380 123 L 373 123 L 370 122 L 367 119 L 365 115 L 365 112 L 364 111 L 365 100 L 366 97 Z M 300 59 L 304 63 L 304 67 L 300 71 L 295 72 L 286 79 L 284 79 L 280 75 L 280 71 L 282 68 L 291 60 L 294 59 Z M 262 58 L 266 60 L 270 64 L 271 69 L 262 80 L 261 83 L 254 92 L 252 92 L 242 83 L 240 77 L 240 72 L 243 65 L 249 59 L 251 58 Z M 364 54 L 365 52 L 370 48 L 377 48 L 384 51 L 389 55 L 391 59 L 391 63 L 387 67 L 385 67 L 377 62 L 367 60 L 364 57 Z M 437 31 L 440 30 L 448 31 L 452 33 L 459 40 L 459 42 L 461 45 L 461 55 L 457 61 L 451 66 L 447 65 L 439 57 L 431 51 L 429 51 L 426 48 L 426 42 L 432 34 L 435 33 Z" fill="#FBFBFB" fill-rule="evenodd"/><path d="M 219 651 L 216 660 L 216 668 L 220 671 L 229 672 L 230 671 L 230 663 L 230 670 L 229 671 L 222 671 L 219 670 L 216 666 L 217 656 L 219 653 Z M 246 626 L 251 627 L 256 631 L 254 633 L 249 632 L 252 633 L 257 633 L 258 632 L 256 629 Z M 444 585 L 443 588 L 447 595 L 453 601 L 454 601 L 455 598 L 453 596 L 451 591 L 446 585 Z M 435 582 L 432 586 L 431 592 L 433 592 L 435 589 Z M 258 582 L 257 582 L 255 585 L 257 587 L 259 585 Z M 266 576 L 266 581 L 272 590 L 273 589 L 273 586 L 268 576 Z M 281 573 L 280 573 L 279 576 L 279 583 L 281 582 L 281 576 L 282 575 Z M 248 568 L 246 568 L 241 574 L 242 576 L 248 571 L 249 569 Z M 409 563 L 406 565 L 403 571 L 403 574 L 405 574 L 407 572 L 409 568 Z M 284 512 L 284 516 L 286 519 L 287 519 L 285 512 Z M 408 488 L 407 489 L 411 494 L 411 498 L 410 499 L 410 504 L 412 503 L 412 494 L 411 491 Z M 268 487 L 269 490 L 269 497 L 270 498 L 270 501 L 273 509 L 278 513 L 279 512 L 279 507 L 275 500 L 275 498 L 273 496 L 273 494 L 270 488 Z M 271 495 L 274 497 L 278 506 L 277 509 L 273 506 L 270 499 L 270 496 Z M 582 471 L 582 474 L 579 480 L 579 482 L 576 488 L 571 493 L 569 492 L 569 483 L 567 480 L 561 485 L 560 491 L 556 497 L 556 499 L 554 501 L 548 504 L 543 504 L 542 501 L 544 495 L 544 497 L 541 503 L 542 504 L 549 504 L 552 503 L 557 498 L 560 492 L 562 484 L 565 481 L 567 481 L 569 483 L 569 492 L 568 495 L 572 493 L 576 488 L 579 482 L 579 480 L 582 474 Z M 272 465 L 270 466 L 270 469 L 268 473 L 268 476 L 269 477 L 270 476 L 270 472 L 271 471 Z M 436 455 L 435 456 L 436 464 L 437 465 L 437 474 L 434 478 L 429 472 L 427 471 L 426 472 L 430 479 L 430 489 L 431 490 L 435 490 L 437 491 L 439 489 L 441 482 L 442 481 L 445 483 L 446 482 L 446 474 L 439 457 Z M 437 458 L 439 459 L 443 468 L 443 473 L 442 474 L 440 474 L 438 471 L 437 461 L 436 460 Z M 222 446 L 218 451 L 216 450 L 216 448 L 216 453 L 220 450 L 222 452 L 222 460 L 222 454 L 223 453 L 223 447 Z M 258 441 L 253 447 L 250 454 L 250 457 L 249 458 L 249 465 L 251 466 L 253 463 L 257 449 L 259 446 L 259 442 Z M 255 449 L 256 451 L 254 456 L 252 458 L 251 457 L 251 454 L 252 451 Z M 412 423 L 414 427 L 420 432 L 424 432 L 423 430 L 425 428 L 429 428 L 431 426 L 429 424 L 419 425 L 414 422 Z M 257 417 L 251 419 L 248 422 L 244 430 L 244 434 L 249 434 L 253 424 L 258 419 Z M 428 402 L 428 405 L 433 411 L 434 419 L 436 423 L 439 425 L 440 424 L 438 422 L 437 418 L 439 416 L 441 417 L 447 417 L 448 416 L 443 410 L 438 407 L 434 406 Z M 434 410 L 436 408 L 439 409 L 442 412 L 439 414 L 436 413 Z M 575 398 L 574 400 L 578 406 L 580 412 L 579 408 L 575 401 L 577 399 L 579 400 L 581 400 L 581 399 L 579 400 L 577 398 Z M 421 394 L 424 396 L 428 396 L 429 397 L 430 396 L 428 393 L 423 393 L 422 392 Z M 436 385 L 434 388 L 437 391 L 441 392 L 442 391 L 440 388 Z M 566 373 L 565 374 L 579 395 L 567 377 L 567 375 L 570 374 L 569 373 Z M 437 371 L 437 374 L 441 381 L 444 380 L 446 378 L 447 373 L 444 371 Z M 384 371 L 394 376 L 404 385 L 408 387 L 408 381 L 409 379 L 402 379 L 388 369 L 385 369 Z M 410 364 L 409 374 L 411 376 L 414 374 L 418 374 L 419 373 L 418 370 L 416 368 L 414 368 L 411 364 Z M 554 346 L 553 348 L 564 360 L 568 367 L 573 372 L 572 375 L 574 375 L 573 372 L 554 348 L 556 346 L 560 347 Z M 435 328 L 434 331 L 438 332 L 437 329 Z M 451 324 L 449 325 L 451 329 L 451 332 L 450 333 L 446 333 L 446 335 L 450 341 L 451 345 L 453 347 L 453 349 L 450 350 L 448 348 L 441 346 L 438 344 L 433 344 L 432 346 L 436 349 L 447 350 L 451 352 L 456 357 L 456 359 L 458 361 L 458 365 L 457 366 L 455 366 L 448 361 L 446 361 L 446 362 L 449 366 L 461 377 L 462 379 L 460 381 L 457 379 L 456 381 L 460 386 L 461 391 L 463 393 L 467 401 L 464 403 L 458 399 L 454 399 L 453 398 L 447 398 L 446 400 L 449 403 L 454 403 L 462 406 L 469 413 L 469 418 L 466 421 L 463 420 L 458 415 L 456 415 L 458 420 L 461 423 L 463 429 L 470 438 L 471 444 L 469 445 L 466 443 L 465 445 L 465 448 L 467 451 L 468 456 L 467 457 L 467 461 L 465 464 L 465 477 L 463 480 L 463 483 L 461 486 L 461 489 L 459 490 L 457 486 L 454 488 L 452 492 L 451 498 L 443 509 L 440 508 L 441 497 L 438 496 L 438 498 L 436 501 L 436 504 L 432 512 L 426 520 L 419 526 L 417 524 L 420 519 L 422 513 L 422 507 L 420 505 L 418 506 L 418 508 L 416 510 L 415 514 L 413 516 L 410 523 L 403 532 L 398 536 L 396 535 L 396 533 L 399 525 L 399 517 L 398 516 L 398 513 L 396 513 L 390 530 L 388 532 L 387 531 L 387 528 L 389 523 L 389 520 L 388 519 L 381 527 L 380 530 L 374 538 L 370 542 L 368 542 L 365 544 L 362 544 L 361 543 L 366 533 L 365 530 L 363 530 L 359 534 L 356 535 L 345 544 L 342 541 L 342 538 L 347 528 L 347 525 L 346 524 L 330 539 L 329 539 L 325 534 L 323 534 L 322 536 L 317 540 L 315 539 L 300 523 L 298 519 L 295 516 L 295 514 L 293 512 L 293 510 L 290 504 L 289 505 L 289 511 L 291 515 L 291 518 L 300 534 L 304 539 L 304 540 L 302 541 L 296 534 L 292 537 L 281 525 L 280 527 L 277 529 L 269 520 L 265 521 L 255 508 L 251 511 L 247 505 L 245 498 L 243 496 L 240 498 L 236 489 L 234 488 L 232 490 L 230 488 L 228 482 L 228 474 L 226 471 L 223 473 L 221 472 L 221 462 L 221 475 L 222 476 L 224 473 L 227 474 L 229 487 L 235 500 L 235 504 L 233 506 L 228 505 L 227 509 L 222 518 L 225 514 L 227 508 L 230 507 L 235 512 L 235 514 L 238 517 L 241 518 L 251 527 L 255 535 L 257 537 L 262 539 L 265 542 L 276 559 L 277 562 L 297 583 L 295 586 L 293 586 L 293 589 L 296 592 L 295 594 L 293 594 L 287 587 L 286 588 L 287 596 L 296 606 L 297 612 L 298 613 L 294 618 L 294 622 L 297 626 L 297 629 L 292 637 L 291 637 L 289 634 L 288 635 L 288 641 L 290 644 L 295 648 L 296 655 L 291 661 L 288 663 L 286 663 L 283 666 L 275 669 L 272 673 L 262 673 L 261 674 L 244 674 L 242 673 L 241 671 L 241 672 L 244 674 L 267 674 L 268 673 L 287 672 L 293 670 L 299 670 L 300 669 L 311 668 L 319 665 L 324 659 L 325 656 L 325 638 L 323 633 L 323 629 L 326 626 L 330 628 L 331 614 L 330 613 L 329 596 L 331 594 L 334 596 L 336 596 L 336 584 L 338 579 L 338 574 L 337 573 L 333 573 L 330 571 L 322 569 L 312 564 L 308 560 L 308 558 L 311 555 L 315 555 L 329 560 L 339 561 L 344 563 L 364 564 L 365 563 L 375 563 L 380 561 L 384 562 L 387 565 L 387 567 L 382 572 L 380 572 L 380 575 L 383 581 L 385 592 L 386 594 L 390 593 L 391 594 L 391 598 L 391 594 L 387 588 L 388 587 L 388 583 L 392 575 L 392 573 L 396 569 L 402 558 L 410 551 L 414 545 L 417 543 L 421 545 L 423 541 L 429 535 L 433 537 L 441 527 L 445 529 L 453 521 L 458 520 L 468 512 L 470 512 L 474 516 L 475 520 L 478 525 L 478 527 L 488 537 L 486 539 L 482 537 L 478 537 L 477 538 L 485 545 L 483 548 L 475 548 L 474 547 L 472 547 L 472 548 L 474 550 L 480 552 L 486 557 L 486 559 L 488 561 L 488 564 L 490 567 L 488 570 L 478 563 L 475 563 L 475 565 L 489 581 L 490 584 L 487 586 L 478 583 L 467 578 L 466 580 L 477 590 L 480 591 L 484 595 L 490 597 L 493 600 L 494 603 L 491 606 L 489 606 L 486 602 L 484 601 L 489 611 L 489 613 L 493 618 L 493 622 L 490 624 L 489 623 L 488 615 L 485 614 L 482 622 L 482 626 L 484 632 L 483 634 L 480 633 L 458 633 L 457 634 L 452 634 L 451 635 L 442 635 L 435 639 L 445 639 L 446 640 L 450 640 L 448 640 L 446 638 L 449 635 L 457 634 L 458 633 L 478 633 L 485 636 L 484 639 L 477 639 L 486 639 L 488 637 L 497 638 L 499 640 L 506 643 L 513 650 L 516 656 L 517 667 L 514 673 L 509 677 L 507 675 L 507 668 L 503 659 L 499 656 L 497 656 L 494 659 L 494 661 L 494 659 L 497 656 L 499 656 L 505 662 L 507 668 L 507 676 L 508 677 L 510 677 L 515 672 L 517 667 L 517 662 L 516 661 L 515 653 L 506 643 L 499 640 L 496 637 L 496 635 L 500 630 L 500 626 L 502 621 L 502 615 L 503 614 L 503 587 L 502 586 L 502 582 L 504 580 L 504 577 L 500 569 L 502 567 L 505 568 L 507 570 L 508 569 L 504 560 L 504 558 L 502 555 L 502 553 L 496 543 L 498 540 L 500 540 L 506 544 L 507 543 L 499 524 L 499 521 L 501 519 L 504 520 L 503 509 L 502 508 L 501 499 L 499 497 L 493 495 L 484 486 L 480 478 L 480 475 L 479 474 L 479 457 L 482 449 L 482 446 L 484 443 L 484 436 L 482 431 L 479 412 L 477 408 L 477 404 L 476 403 L 476 400 L 474 396 L 474 393 L 472 387 L 470 384 L 468 377 L 463 368 L 463 366 L 459 360 L 454 349 L 454 345 L 457 342 L 458 342 L 466 351 L 478 372 L 478 374 L 481 379 L 484 389 L 486 392 L 486 395 L 488 399 L 488 402 L 491 411 L 491 414 L 487 395 L 483 383 L 481 380 L 480 375 L 477 370 L 477 368 L 473 362 L 471 356 L 462 343 L 462 340 L 460 338 L 460 336 L 453 328 Z M 479 568 L 482 567 L 486 571 L 483 572 Z M 363 533 L 364 535 L 363 537 L 360 539 L 359 536 Z M 386 526 L 387 527 L 386 529 L 383 531 L 382 529 Z M 270 522 L 283 537 L 284 539 L 283 541 L 281 541 L 271 530 L 268 524 Z M 397 518 L 398 519 L 398 526 L 397 528 L 394 530 L 393 529 L 394 528 L 394 522 L 395 519 Z M 258 514 L 262 518 L 269 528 L 268 531 L 267 531 L 259 522 L 257 518 L 257 515 Z M 292 513 L 294 514 L 298 522 L 308 534 L 307 536 L 304 536 L 295 524 L 291 516 Z M 434 512 L 435 515 L 433 517 L 431 515 Z M 421 508 L 422 510 L 421 511 L 420 518 L 416 526 L 414 527 L 412 525 L 413 523 L 412 522 L 418 511 L 418 509 Z M 437 507 L 438 509 L 435 513 L 434 512 L 434 509 Z M 243 499 L 246 501 L 246 503 L 249 508 L 251 514 L 250 517 L 246 514 L 244 510 L 244 507 L 242 503 L 242 500 Z M 464 424 L 466 423 L 470 427 L 471 430 L 470 431 L 467 430 L 464 427 Z M 421 324 L 421 325 L 424 327 L 431 328 L 430 326 L 426 326 Z M 263 324 L 260 324 L 256 326 L 246 335 L 243 334 L 243 331 L 240 339 L 240 342 L 238 347 L 238 351 L 235 357 L 228 366 L 229 368 L 233 368 L 235 370 L 235 372 L 220 391 L 221 393 L 227 391 L 229 393 L 229 395 L 229 392 L 228 391 L 223 392 L 221 390 L 236 370 L 235 368 L 231 368 L 229 366 L 230 363 L 239 352 L 245 349 L 256 338 L 260 331 L 263 328 L 264 326 Z M 261 324 L 263 326 L 254 339 L 248 345 L 247 345 L 246 343 L 250 338 L 248 335 L 256 327 Z M 536 317 L 535 320 L 544 327 L 564 346 L 562 348 L 565 348 L 565 347 L 558 340 L 557 340 L 554 336 L 553 336 L 536 320 L 537 317 L 541 318 Z M 430 312 L 429 315 L 435 323 L 436 322 L 433 315 Z M 372 311 L 372 314 L 374 317 L 375 314 L 374 312 Z M 378 310 L 378 312 L 383 317 L 387 317 L 389 319 L 391 318 L 392 316 L 392 311 L 391 310 L 391 313 L 388 316 L 384 314 L 380 310 Z M 323 305 L 316 308 L 315 310 L 320 309 Z M 432 298 L 431 300 L 434 304 L 437 304 L 437 302 L 435 299 Z M 382 294 L 381 295 L 381 298 L 389 307 L 390 305 L 388 303 L 385 295 Z M 311 291 L 309 292 L 305 298 L 305 302 L 312 293 Z M 421 288 L 419 288 L 419 293 L 417 295 L 418 299 L 421 302 L 420 304 L 421 309 L 418 312 L 412 314 L 411 315 L 413 317 L 417 317 L 423 309 L 422 302 L 420 299 Z M 259 273 L 256 273 L 252 277 L 252 281 L 250 284 L 250 287 L 257 283 L 257 280 L 254 280 L 253 279 L 256 277 Z M 259 264 L 260 265 L 265 265 L 267 262 L 266 261 L 262 261 L 260 262 Z M 418 260 L 412 262 L 412 264 L 416 263 Z M 265 251 L 264 253 L 266 255 L 268 255 L 269 253 Z M 487 250 L 490 252 L 492 252 L 494 254 L 493 256 L 490 256 L 489 259 L 492 262 L 494 262 L 502 266 L 504 268 L 502 266 L 493 262 L 490 259 L 491 256 L 497 256 L 497 255 Z M 398 244 L 397 243 L 388 244 L 379 248 L 376 248 L 371 250 L 366 250 L 365 251 L 360 251 L 355 253 L 334 253 L 329 251 L 320 251 L 318 253 L 318 255 L 327 265 L 335 271 L 348 278 L 356 279 L 361 276 L 363 277 L 366 276 L 370 272 L 373 271 L 380 265 L 383 264 L 395 252 L 398 247 Z M 320 254 L 322 252 L 326 252 L 332 254 L 340 254 L 341 255 L 359 254 L 360 255 L 357 258 L 334 258 L 333 257 L 331 258 L 325 256 L 327 259 L 339 268 L 344 270 L 346 272 L 349 272 L 351 274 L 358 273 L 360 271 L 362 271 L 370 267 L 374 263 L 376 263 L 382 258 L 384 260 L 374 269 L 371 270 L 365 275 L 359 275 L 357 277 L 351 278 L 340 273 L 328 265 L 320 257 Z M 390 250 L 392 247 L 395 248 L 392 251 Z M 247 210 L 249 213 L 250 213 L 252 210 L 254 210 L 256 212 L 257 218 L 260 220 L 262 220 L 268 226 L 278 240 L 278 246 L 275 249 L 272 249 L 263 237 L 262 237 L 262 240 L 259 242 L 257 240 L 256 237 L 257 240 L 259 242 L 261 242 L 264 240 L 272 249 L 276 249 L 278 246 L 278 244 L 280 242 L 285 245 L 287 245 L 291 249 L 294 249 L 295 248 L 294 244 L 287 237 L 285 237 L 277 232 L 275 232 L 272 230 L 263 220 L 260 220 L 257 217 L 256 211 L 253 208 L 250 212 Z M 285 241 L 288 240 L 294 246 L 292 248 Z M 76 147 L 77 153 L 82 163 L 89 172 L 95 182 L 104 192 L 106 208 L 104 192 L 96 183 L 81 161 L 78 155 Z M 376 145 L 372 145 L 368 151 L 372 145 L 375 145 L 378 148 L 381 155 L 381 161 L 382 162 L 382 182 L 381 183 L 381 189 L 379 193 L 378 200 L 371 215 L 363 223 L 352 230 L 346 232 L 337 232 L 331 230 L 322 225 L 310 213 L 303 203 L 314 218 L 317 220 L 320 224 L 326 228 L 332 230 L 337 233 L 345 233 L 346 232 L 349 232 L 356 229 L 359 226 L 363 224 L 372 214 L 378 201 L 379 195 L 381 191 L 382 171 L 383 170 L 380 150 Z M 277 138 L 274 138 L 271 134 L 266 132 L 262 132 L 261 133 L 255 134 L 251 136 L 246 141 L 244 144 L 243 151 L 245 155 L 248 158 L 251 158 L 252 159 L 259 158 L 261 157 L 270 147 L 272 149 L 272 151 L 272 144 L 274 140 Z M 272 136 L 272 140 L 270 144 L 267 142 L 268 139 L 266 137 L 264 140 L 263 138 L 259 138 L 256 140 L 256 144 L 257 145 L 259 145 L 260 143 L 262 144 L 262 146 L 259 148 L 259 151 L 261 151 L 266 145 L 268 147 L 259 157 L 257 158 L 249 158 L 244 153 L 244 146 L 246 142 L 253 136 L 255 136 L 257 134 L 260 134 L 261 133 L 267 133 Z M 241 121 L 240 123 L 241 134 L 229 147 L 230 149 L 237 148 L 239 150 L 239 152 L 235 160 L 233 162 L 232 168 L 231 169 L 233 170 L 237 168 L 239 170 L 238 177 L 239 169 L 238 168 L 235 168 L 234 169 L 232 167 L 232 165 L 239 152 L 239 149 L 238 148 L 233 148 L 231 149 L 229 147 L 241 134 L 241 130 L 240 129 L 240 123 Z M 386 127 L 386 134 L 391 140 L 404 146 L 419 147 L 420 146 L 428 145 L 433 141 L 436 135 L 435 130 L 433 126 L 430 123 L 424 120 L 416 119 L 415 118 L 401 118 L 400 119 L 397 119 L 388 124 Z M 386 128 L 390 123 L 393 122 L 395 120 L 403 119 L 404 118 L 414 118 L 415 119 L 420 119 L 428 122 L 434 128 L 436 135 L 434 139 L 428 144 L 422 146 L 410 146 L 409 145 L 404 145 L 392 140 L 386 133 Z M 212 116 L 212 130 L 204 152 L 204 155 L 208 161 L 213 172 L 217 176 L 223 179 L 223 177 L 221 175 L 221 164 L 223 161 L 223 158 L 220 155 L 218 151 L 218 146 L 218 151 L 220 155 L 223 158 L 223 161 L 221 164 L 221 175 L 220 176 L 218 176 L 214 173 L 206 157 L 204 155 L 204 152 L 206 149 L 206 146 L 208 140 L 211 135 L 211 131 L 212 130 Z M 280 112 L 280 120 L 286 127 L 283 132 L 283 137 L 280 138 L 282 140 L 282 144 L 281 145 L 281 158 L 288 166 L 281 158 L 281 146 L 282 143 L 284 142 L 286 146 L 291 151 L 297 154 L 291 151 L 285 144 L 283 140 L 283 132 L 290 125 L 296 122 L 299 122 L 296 122 L 295 123 L 293 122 L 297 116 L 295 120 L 288 126 L 285 126 L 280 120 Z M 308 111 L 309 114 L 315 112 L 319 112 L 320 111 L 328 111 L 337 114 L 341 114 L 342 113 L 342 111 L 338 107 L 333 105 L 317 105 L 311 108 Z M 313 110 L 317 107 L 332 107 L 333 108 L 336 108 L 339 112 L 337 113 L 334 111 L 328 111 L 327 110 L 319 110 L 318 111 L 314 111 Z M 132 83 L 128 88 L 128 91 L 127 92 L 127 101 L 129 100 L 129 93 L 133 88 L 136 87 L 140 91 L 143 97 L 143 100 L 145 104 L 145 115 L 140 120 L 131 119 L 128 121 L 126 121 L 120 113 L 119 110 L 113 104 L 111 103 L 107 103 L 103 106 L 103 108 L 105 107 L 110 107 L 115 112 L 119 118 L 121 124 L 121 129 L 117 134 L 112 133 L 106 128 L 103 128 L 100 131 L 97 131 L 96 130 L 92 130 L 90 131 L 87 135 L 87 143 L 89 149 L 95 160 L 99 164 L 106 176 L 111 181 L 115 187 L 116 194 L 117 195 L 117 199 L 120 208 L 120 212 L 124 221 L 124 223 L 131 237 L 144 255 L 159 269 L 159 272 L 157 274 L 152 274 L 151 276 L 163 285 L 172 289 L 174 289 L 180 294 L 180 296 L 178 298 L 175 298 L 172 300 L 174 302 L 198 310 L 200 312 L 200 314 L 196 317 L 196 319 L 202 321 L 208 321 L 209 322 L 213 322 L 217 325 L 217 327 L 214 330 L 215 331 L 229 335 L 231 333 L 234 324 L 239 319 L 242 319 L 245 322 L 244 329 L 245 327 L 245 321 L 251 309 L 251 307 L 253 305 L 255 299 L 255 296 L 254 295 L 250 295 L 247 297 L 242 302 L 240 307 L 238 309 L 229 309 L 228 308 L 225 308 L 222 306 L 219 306 L 217 304 L 221 301 L 226 300 L 228 298 L 227 295 L 216 294 L 214 292 L 209 290 L 206 287 L 202 287 L 200 288 L 199 287 L 193 287 L 190 286 L 188 283 L 191 281 L 196 280 L 197 277 L 193 273 L 190 273 L 189 272 L 186 272 L 180 270 L 178 268 L 176 268 L 170 265 L 156 252 L 152 250 L 146 241 L 140 235 L 138 230 L 128 218 L 127 215 L 124 214 L 121 211 L 119 206 L 117 195 L 116 194 L 115 186 L 107 176 L 101 165 L 93 155 L 91 148 L 88 145 L 88 142 L 87 141 L 88 133 L 90 131 L 93 130 L 95 131 L 96 133 L 91 137 L 92 146 L 98 153 L 102 155 L 105 155 L 108 153 L 110 155 L 110 163 L 112 165 L 112 167 L 118 174 L 124 177 L 127 177 L 128 178 L 130 177 L 136 177 L 161 169 L 171 162 L 175 156 L 175 146 L 173 143 L 173 141 L 167 132 L 161 127 L 157 125 L 142 125 L 139 126 L 137 128 L 134 128 L 131 131 L 124 135 L 119 142 L 112 149 L 110 148 L 110 142 L 109 139 L 107 138 L 102 132 L 104 130 L 107 130 L 112 134 L 116 135 L 120 132 L 121 130 L 121 123 L 123 121 L 126 122 L 130 122 L 131 121 L 134 121 L 135 122 L 137 121 L 141 121 L 147 114 L 149 114 L 152 116 L 156 116 L 160 121 L 166 122 L 171 118 L 172 113 L 174 112 L 176 118 L 179 121 L 175 128 L 176 137 L 180 141 L 188 140 L 193 136 L 195 137 L 195 141 L 192 144 L 192 146 L 189 150 L 189 156 L 197 167 L 198 171 L 202 177 L 202 179 L 208 187 L 209 190 L 213 194 L 217 191 L 219 193 L 227 214 L 230 217 L 232 217 L 233 216 L 233 213 L 236 212 L 238 214 L 240 220 L 238 214 L 235 211 L 233 211 L 233 215 L 232 216 L 230 216 L 226 212 L 226 210 L 224 207 L 219 192 L 217 190 L 213 194 L 209 190 L 199 170 L 189 155 L 190 149 L 193 146 L 195 142 L 195 140 L 197 137 L 198 130 L 199 129 L 200 117 L 198 113 L 195 110 L 190 110 L 185 113 L 180 118 L 178 118 L 175 115 L 174 102 L 172 97 L 172 93 L 168 87 L 163 86 L 161 89 L 166 93 L 170 100 L 172 114 L 170 119 L 168 121 L 162 121 L 156 115 L 151 115 L 149 113 L 147 107 L 147 100 L 144 92 L 136 83 Z M 253 295 L 255 297 L 254 301 L 249 310 L 249 312 L 247 314 L 247 316 L 244 317 L 243 314 L 248 304 L 247 303 L 245 306 L 242 308 L 241 307 L 242 303 L 246 298 L 251 295 Z M 216 296 L 217 295 L 224 295 L 226 298 L 224 300 L 218 301 Z M 203 290 L 206 289 L 207 291 L 204 292 Z M 186 275 L 189 274 L 190 276 L 187 277 Z M 95 134 L 100 134 L 104 136 L 109 141 L 109 150 L 105 154 L 99 152 L 93 144 L 92 137 Z M 162 128 L 168 134 L 174 145 L 174 156 L 173 158 L 165 166 L 149 173 L 146 173 L 138 176 L 133 176 L 132 177 L 123 176 L 119 174 L 113 167 L 111 163 L 110 155 L 114 148 L 123 137 L 133 129 L 135 129 L 140 126 L 144 126 L 145 125 L 155 125 Z M 192 114 L 195 117 L 195 120 L 196 121 L 196 125 L 195 126 L 194 132 L 192 135 L 186 140 L 180 140 L 176 135 L 176 128 L 178 124 L 187 115 Z M 189 111 L 190 110 L 194 110 L 196 113 L 195 114 L 190 113 Z M 303 63 L 300 60 L 294 60 L 291 61 L 283 68 L 281 71 L 281 75 L 284 78 L 286 78 L 295 71 L 300 70 L 303 67 Z M 303 63 L 303 67 L 301 69 L 295 71 L 286 78 L 284 78 L 281 75 L 281 71 L 283 68 L 290 62 L 294 60 L 300 60 Z M 472 59 L 470 63 L 463 70 L 460 71 L 458 73 L 458 75 L 467 86 L 473 98 L 479 106 L 475 110 L 475 112 L 479 116 L 485 119 L 490 124 L 489 126 L 480 126 L 479 127 L 479 130 L 486 137 L 494 148 L 492 150 L 488 148 L 485 148 L 483 150 L 483 152 L 488 160 L 491 170 L 489 172 L 487 170 L 483 170 L 483 174 L 482 175 L 480 173 L 480 169 L 481 168 L 480 165 L 477 166 L 475 162 L 473 162 L 468 158 L 462 157 L 462 159 L 471 169 L 469 172 L 466 172 L 465 171 L 464 173 L 468 176 L 469 178 L 469 182 L 467 184 L 461 181 L 458 183 L 462 190 L 462 193 L 460 195 L 458 193 L 456 193 L 453 191 L 449 191 L 449 192 L 455 198 L 457 202 L 455 204 L 453 203 L 450 204 L 447 208 L 448 214 L 446 216 L 442 212 L 439 213 L 441 216 L 440 223 L 438 225 L 436 225 L 435 222 L 433 221 L 431 224 L 430 232 L 428 234 L 426 233 L 426 229 L 423 228 L 418 236 L 414 236 L 405 246 L 404 249 L 404 252 L 405 253 L 408 251 L 408 249 L 416 240 L 419 248 L 424 248 L 428 245 L 429 246 L 443 246 L 446 249 L 449 250 L 451 247 L 457 242 L 467 242 L 473 244 L 475 246 L 485 249 L 476 246 L 471 243 L 470 241 L 472 239 L 474 239 L 473 237 L 469 237 L 466 234 L 469 232 L 469 231 L 464 230 L 462 228 L 462 226 L 468 220 L 475 208 L 477 202 L 477 194 L 480 191 L 482 193 L 484 192 L 485 180 L 484 179 L 483 172 L 485 170 L 488 171 L 490 173 L 492 172 L 490 164 L 483 151 L 485 149 L 494 150 L 494 148 L 489 140 L 479 130 L 479 128 L 481 126 L 491 126 L 492 125 L 488 121 L 479 116 L 475 112 L 475 111 L 480 107 L 475 101 L 463 80 L 459 76 L 459 73 L 470 63 Z M 441 237 L 442 238 L 442 241 L 438 245 L 436 245 L 434 242 L 439 237 Z M 457 221 L 458 223 L 453 229 L 453 231 L 448 236 L 446 236 L 445 234 L 448 228 L 454 222 Z M 262 59 L 251 59 L 249 60 L 244 65 L 241 72 L 241 77 L 243 83 L 252 91 L 255 90 L 260 83 L 261 80 L 270 69 L 269 64 L 266 61 Z M 260 60 L 265 62 L 269 67 L 265 72 L 259 83 L 253 89 L 248 87 L 246 85 L 246 83 L 242 79 L 242 71 L 244 67 L 250 61 L 252 60 Z M 437 32 L 435 34 L 432 35 L 427 42 L 427 48 L 429 50 L 431 50 L 434 52 L 447 64 L 451 65 L 456 61 L 460 55 L 460 45 L 458 42 L 458 40 L 452 34 L 445 31 Z M 437 33 L 440 32 L 446 32 L 457 40 L 460 46 L 460 53 L 457 58 L 450 64 L 449 64 L 436 52 L 430 49 L 427 46 L 428 41 Z M 361 23 L 360 22 L 354 25 L 347 33 L 345 33 L 341 30 L 332 26 L 329 26 L 328 28 L 331 33 L 331 36 L 329 38 L 315 38 L 314 39 L 310 39 L 309 42 L 307 44 L 305 44 L 307 44 L 311 39 L 314 39 L 315 38 L 330 38 L 331 37 L 331 33 L 328 28 L 330 26 L 334 27 L 345 33 L 348 33 L 357 23 L 359 23 L 361 25 L 360 28 Z" fill="#D8D8D8" fill-rule="evenodd"/><path d="M 447 638 L 448 639 L 451 639 L 452 638 L 460 638 L 461 637 L 484 638 L 484 636 L 478 634 L 458 634 L 457 635 L 449 636 Z M 462 635 L 463 634 L 473 634 L 474 636 L 473 637 L 463 637 Z M 270 523 L 269 524 L 270 527 L 275 534 L 281 540 L 283 540 L 282 537 Z M 397 519 L 396 519 L 395 522 L 395 528 L 394 529 L 395 529 L 397 526 Z M 258 515 L 258 518 L 262 525 L 268 530 L 268 528 Z M 292 514 L 292 516 L 300 530 L 304 535 L 307 535 L 305 531 L 297 522 L 293 514 Z M 421 509 L 419 509 L 419 511 L 413 522 L 414 523 L 413 524 L 414 526 L 415 526 L 419 518 Z M 243 500 L 245 510 L 247 514 L 250 516 L 245 501 Z M 271 496 L 272 502 L 274 506 L 277 508 L 276 503 L 273 497 Z M 437 459 L 438 461 L 439 471 L 440 473 L 442 473 L 441 465 L 438 459 Z M 435 410 L 436 412 L 439 413 L 441 412 L 439 410 L 436 409 Z M 261 325 L 256 328 L 249 335 L 251 338 L 247 344 L 248 344 L 257 334 L 262 326 Z M 253 296 L 251 296 L 246 299 L 243 303 L 242 307 L 243 307 L 247 302 L 249 304 L 247 309 L 245 311 L 244 316 L 246 316 L 246 314 L 248 312 L 248 310 L 254 298 Z M 217 296 L 218 300 L 224 299 L 225 298 L 224 296 Z M 321 254 L 321 257 L 328 264 L 340 272 L 351 277 L 357 276 L 359 274 L 365 274 L 371 269 L 374 268 L 383 260 L 382 259 L 370 268 L 362 272 L 360 272 L 358 274 L 351 275 L 349 273 L 346 273 L 344 271 L 339 269 L 327 260 L 324 256 L 326 255 L 331 257 L 332 256 L 334 257 L 357 257 L 359 255 L 341 256 L 340 255 L 332 255 L 326 253 L 322 253 Z M 286 241 L 292 247 L 293 246 L 288 241 Z M 441 238 L 439 238 L 435 243 L 438 244 L 441 241 Z M 457 222 L 454 223 L 449 228 L 447 231 L 446 235 L 448 235 L 452 231 L 452 229 L 455 226 Z M 275 140 L 273 144 L 273 151 L 272 152 L 273 159 L 275 163 L 282 171 L 285 172 L 287 174 L 291 175 L 294 178 L 294 182 L 295 183 L 296 189 L 303 202 L 311 213 L 322 224 L 331 229 L 337 231 L 346 231 L 356 227 L 359 224 L 363 222 L 370 215 L 377 200 L 378 193 L 380 189 L 380 183 L 381 182 L 381 162 L 380 161 L 380 155 L 377 148 L 375 146 L 372 146 L 368 153 L 363 158 L 354 163 L 345 166 L 342 166 L 341 167 L 329 167 L 328 166 L 323 166 L 322 165 L 318 165 L 313 163 L 309 163 L 300 169 L 292 169 L 288 167 L 280 158 L 280 145 L 281 144 L 281 140 L 279 138 Z M 274 143 L 278 139 L 280 141 L 280 148 L 279 149 L 280 158 L 282 162 L 287 167 L 294 170 L 299 170 L 308 164 L 315 164 L 316 165 L 320 165 L 326 167 L 332 167 L 333 168 L 344 167 L 359 161 L 365 157 L 370 150 L 374 147 L 378 151 L 379 157 L 380 158 L 380 183 L 379 184 L 377 197 L 374 206 L 369 215 L 365 219 L 363 217 L 368 208 L 368 206 L 371 200 L 371 192 L 370 190 L 362 184 L 359 183 L 349 183 L 348 184 L 345 184 L 333 191 L 325 200 L 322 207 L 322 212 L 327 220 L 333 226 L 330 228 L 323 224 L 311 212 L 301 198 L 295 185 L 294 176 L 291 174 L 286 173 L 276 164 L 273 157 L 273 147 L 274 146 Z M 95 135 L 93 137 L 94 144 L 99 151 L 105 153 L 108 150 L 108 141 L 104 137 L 100 135 Z M 271 136 L 267 134 L 261 134 L 260 135 L 257 135 L 255 137 L 253 137 L 247 142 L 245 146 L 245 153 L 249 157 L 257 157 L 259 156 L 267 147 L 266 146 L 261 152 L 259 152 L 258 151 L 258 148 L 261 146 L 261 144 L 260 144 L 259 146 L 257 146 L 255 144 L 255 140 L 259 137 L 263 137 L 264 139 L 266 136 L 269 139 L 268 142 L 270 143 Z M 167 134 L 162 129 L 155 126 L 145 126 L 133 130 L 124 137 L 113 151 L 111 155 L 111 159 L 114 167 L 119 173 L 123 175 L 132 176 L 133 175 L 138 175 L 146 172 L 149 172 L 165 165 L 173 156 L 173 145 Z M 327 124 L 321 122 L 318 122 L 317 121 L 306 121 L 305 122 L 296 123 L 290 126 L 284 132 L 284 140 L 288 147 L 291 150 L 298 154 L 305 155 L 306 156 L 316 154 L 327 148 L 332 143 L 335 137 L 335 132 L 334 130 Z M 288 128 L 295 124 L 301 122 L 305 122 L 306 121 L 316 121 L 328 125 L 334 131 L 335 135 L 331 143 L 321 151 L 311 155 L 303 155 L 295 152 L 287 145 L 284 139 L 284 134 Z M 387 128 L 387 133 L 392 139 L 398 142 L 404 144 L 409 144 L 410 145 L 422 145 L 428 143 L 433 139 L 435 135 L 433 128 L 428 123 L 420 120 L 415 120 L 414 119 L 398 120 L 390 124 Z M 192 115 L 187 116 L 179 124 L 177 128 L 177 135 L 180 139 L 186 139 L 189 137 L 193 132 L 194 126 L 195 125 L 195 121 L 194 120 L 194 117 Z M 314 110 L 327 109 L 328 110 L 334 110 L 338 112 L 336 109 L 333 109 L 332 108 L 317 108 Z M 293 100 L 288 100 L 286 101 L 283 105 L 281 111 L 281 120 L 285 125 L 288 125 L 291 123 L 297 115 L 297 105 Z M 293 100 L 297 106 L 297 114 L 295 118 L 289 124 L 286 125 L 281 119 L 282 109 L 283 106 L 287 101 L 289 100 Z M 374 92 L 368 97 L 368 99 L 366 102 L 366 112 L 368 117 L 372 121 L 378 122 L 380 121 L 384 116 L 385 113 L 385 102 L 383 97 L 379 93 Z M 373 93 L 378 93 L 383 98 L 385 104 L 384 115 L 379 121 L 373 121 L 368 116 L 366 110 L 366 104 L 368 98 Z M 302 63 L 300 61 L 294 61 L 290 63 L 284 68 L 282 71 L 282 75 L 284 77 L 286 77 L 295 70 L 301 68 L 302 67 Z M 302 64 L 302 66 L 300 68 L 294 70 L 287 76 L 284 76 L 282 74 L 282 72 L 284 69 L 289 64 L 295 61 L 299 61 Z M 260 61 L 252 61 L 250 62 L 245 67 L 243 71 L 243 79 L 247 83 L 247 85 L 252 88 L 258 83 L 259 80 L 268 67 L 265 63 Z M 366 53 L 366 56 L 368 58 L 377 60 L 385 65 L 387 65 L 389 63 L 389 58 L 384 53 L 378 50 L 369 50 Z M 366 54 L 371 50 L 379 51 L 388 57 L 389 62 L 387 64 L 384 64 L 376 59 L 368 57 Z M 437 34 L 429 41 L 428 46 L 436 51 L 442 57 L 450 63 L 452 62 L 459 53 L 459 46 L 456 40 L 446 33 L 440 33 Z M 451 14 L 437 12 L 436 13 L 429 14 L 423 17 L 415 24 L 411 30 L 410 35 L 408 37 L 397 33 L 387 32 L 386 31 L 379 31 L 378 30 L 371 30 L 370 31 L 364 31 L 362 32 L 361 31 L 361 27 L 363 23 L 362 21 L 358 21 L 353 24 L 347 31 L 345 31 L 334 25 L 328 24 L 327 25 L 327 29 L 329 32 L 329 35 L 328 36 L 325 36 L 324 37 L 311 37 L 308 39 L 308 41 L 306 43 L 298 45 L 296 47 L 288 51 L 284 55 L 282 55 L 280 53 L 279 50 L 272 44 L 265 41 L 252 41 L 246 43 L 238 48 L 231 55 L 227 63 L 227 68 L 226 69 L 226 79 L 227 80 L 227 83 L 232 92 L 239 98 L 245 100 L 247 102 L 247 105 L 239 122 L 239 134 L 230 143 L 227 148 L 229 151 L 235 150 L 237 152 L 231 163 L 230 171 L 233 172 L 236 170 L 238 172 L 237 173 L 237 177 L 235 182 L 235 191 L 237 193 L 241 192 L 243 194 L 243 203 L 247 213 L 250 215 L 253 213 L 255 215 L 257 220 L 260 222 L 262 222 L 273 235 L 277 242 L 277 244 L 274 248 L 270 245 L 263 234 L 261 235 L 261 237 L 259 239 L 257 237 L 253 227 L 250 224 L 249 224 L 246 228 L 243 225 L 240 215 L 236 209 L 233 208 L 232 209 L 232 212 L 230 214 L 228 212 L 225 206 L 222 197 L 222 194 L 218 188 L 216 188 L 212 191 L 208 186 L 208 184 L 205 180 L 196 162 L 190 154 L 198 139 L 198 136 L 201 127 L 201 116 L 200 113 L 196 109 L 189 109 L 184 112 L 180 116 L 178 116 L 176 114 L 176 108 L 175 107 L 175 102 L 174 101 L 173 92 L 172 89 L 169 86 L 167 85 L 161 85 L 158 88 L 156 93 L 155 101 L 154 102 L 154 107 L 153 109 L 151 110 L 149 105 L 148 97 L 146 94 L 145 90 L 141 85 L 137 82 L 131 82 L 127 86 L 124 93 L 124 103 L 125 104 L 125 107 L 128 112 L 128 116 L 126 117 L 116 104 L 111 101 L 107 101 L 102 104 L 100 108 L 101 127 L 99 129 L 91 129 L 89 130 L 86 134 L 86 145 L 90 155 L 95 163 L 98 166 L 103 175 L 113 186 L 115 192 L 115 196 L 116 197 L 116 201 L 118 206 L 119 214 L 123 223 L 123 225 L 130 239 L 140 253 L 156 269 L 154 272 L 149 272 L 148 275 L 161 286 L 167 289 L 169 289 L 177 294 L 176 297 L 171 297 L 170 298 L 170 300 L 173 303 L 179 306 L 194 310 L 197 313 L 197 314 L 193 317 L 194 320 L 196 320 L 199 322 L 213 324 L 215 326 L 211 330 L 213 332 L 224 335 L 227 337 L 230 337 L 234 330 L 236 324 L 239 321 L 242 321 L 244 323 L 243 329 L 241 332 L 238 341 L 238 344 L 236 349 L 236 353 L 226 367 L 227 370 L 232 369 L 234 371 L 218 391 L 218 394 L 219 395 L 225 393 L 227 396 L 217 412 L 217 414 L 213 422 L 213 425 L 214 426 L 218 424 L 221 425 L 217 437 L 216 445 L 215 446 L 215 456 L 217 456 L 219 453 L 221 455 L 220 458 L 219 475 L 221 479 L 224 477 L 226 478 L 228 489 L 233 499 L 233 502 L 231 504 L 229 502 L 227 502 L 226 508 L 219 521 L 220 523 L 224 522 L 226 524 L 222 531 L 222 533 L 219 538 L 218 542 L 220 543 L 224 541 L 226 543 L 224 546 L 222 556 L 220 560 L 219 570 L 222 570 L 224 568 L 226 570 L 223 584 L 227 587 L 227 595 L 229 599 L 230 610 L 231 611 L 233 621 L 236 626 L 232 629 L 224 629 L 223 630 L 215 631 L 209 634 L 203 640 L 200 646 L 200 649 L 198 654 L 198 659 L 200 665 L 205 669 L 208 668 L 207 665 L 208 655 L 214 648 L 216 648 L 218 650 L 215 658 L 215 670 L 218 672 L 221 672 L 222 673 L 232 673 L 232 670 L 231 669 L 232 660 L 234 656 L 238 652 L 240 652 L 242 654 L 242 657 L 240 661 L 240 674 L 241 675 L 274 675 L 275 674 L 282 674 L 283 673 L 292 673 L 293 672 L 298 672 L 299 671 L 305 671 L 306 670 L 314 669 L 321 666 L 323 664 L 327 654 L 327 641 L 326 640 L 325 631 L 326 630 L 331 631 L 332 629 L 332 607 L 331 606 L 331 599 L 333 597 L 335 599 L 337 598 L 337 586 L 340 578 L 340 573 L 316 565 L 310 560 L 312 557 L 315 557 L 316 558 L 319 558 L 320 559 L 323 559 L 327 561 L 331 561 L 336 563 L 355 565 L 356 566 L 364 566 L 365 565 L 371 565 L 372 564 L 378 564 L 379 563 L 383 563 L 385 565 L 385 567 L 381 571 L 378 572 L 378 575 L 381 580 L 383 586 L 384 595 L 386 597 L 388 595 L 390 597 L 389 599 L 389 612 L 393 615 L 393 630 L 394 633 L 396 633 L 398 631 L 400 633 L 400 648 L 398 653 L 398 668 L 400 672 L 404 676 L 410 679 L 416 680 L 420 682 L 438 684 L 439 683 L 438 666 L 441 662 L 444 662 L 446 664 L 446 667 L 447 668 L 447 683 L 448 684 L 469 684 L 471 682 L 471 674 L 470 673 L 470 666 L 469 663 L 473 660 L 477 663 L 479 668 L 479 682 L 480 683 L 493 682 L 497 679 L 496 660 L 498 658 L 500 658 L 504 663 L 505 669 L 506 670 L 506 675 L 505 676 L 506 679 L 512 677 L 517 672 L 518 669 L 518 658 L 516 652 L 507 642 L 501 640 L 498 637 L 498 635 L 501 632 L 501 628 L 503 623 L 504 605 L 505 604 L 505 591 L 504 590 L 504 586 L 503 584 L 506 581 L 506 578 L 502 571 L 504 569 L 508 572 L 510 571 L 505 556 L 499 545 L 500 543 L 502 543 L 506 546 L 509 545 L 506 536 L 501 526 L 501 523 L 506 521 L 506 517 L 504 512 L 502 497 L 493 493 L 486 486 L 481 475 L 480 462 L 481 461 L 482 452 L 486 443 L 486 436 L 484 431 L 482 417 L 481 416 L 477 397 L 473 385 L 466 371 L 466 369 L 456 350 L 456 346 L 458 344 L 462 348 L 471 362 L 479 378 L 480 383 L 484 391 L 484 394 L 487 401 L 487 404 L 488 405 L 488 408 L 489 409 L 489 412 L 492 421 L 492 425 L 494 431 L 494 436 L 496 440 L 490 458 L 490 472 L 493 479 L 498 484 L 500 485 L 504 485 L 507 483 L 511 476 L 512 472 L 515 469 L 518 472 L 518 477 L 517 478 L 516 484 L 510 494 L 515 501 L 523 504 L 529 503 L 534 498 L 538 491 L 539 487 L 541 485 L 544 486 L 543 497 L 539 503 L 541 506 L 548 506 L 553 504 L 560 496 L 562 488 L 566 483 L 568 485 L 568 491 L 566 497 L 568 498 L 572 495 L 578 487 L 583 475 L 584 467 L 585 466 L 585 460 L 586 459 L 586 449 L 585 448 L 584 438 L 588 435 L 588 433 L 582 416 L 581 410 L 578 404 L 580 402 L 582 403 L 583 400 L 572 381 L 569 378 L 571 376 L 575 377 L 576 374 L 558 351 L 559 348 L 565 350 L 567 350 L 568 348 L 540 322 L 541 320 L 548 320 L 549 317 L 541 310 L 533 305 L 530 302 L 527 301 L 524 298 L 525 296 L 529 296 L 531 293 L 529 291 L 517 286 L 512 282 L 513 280 L 518 280 L 520 278 L 516 274 L 501 264 L 494 261 L 493 259 L 495 257 L 500 257 L 500 255 L 487 248 L 485 248 L 480 245 L 476 244 L 474 242 L 477 240 L 478 238 L 472 236 L 470 234 L 472 231 L 470 229 L 466 229 L 465 228 L 465 225 L 470 220 L 477 207 L 479 195 L 480 194 L 482 195 L 485 195 L 486 194 L 486 177 L 485 174 L 487 172 L 490 175 L 492 175 L 493 174 L 493 167 L 485 152 L 487 150 L 494 152 L 495 151 L 495 147 L 490 139 L 481 130 L 483 127 L 491 128 L 493 126 L 493 124 L 489 120 L 480 115 L 477 112 L 479 110 L 481 110 L 482 108 L 473 95 L 468 85 L 461 76 L 461 73 L 471 64 L 475 56 L 475 53 L 476 52 L 476 41 L 475 40 L 475 37 L 471 29 L 461 19 Z M 450 14 L 461 20 L 471 30 L 474 35 L 475 41 L 476 42 L 476 51 L 475 52 L 475 55 L 471 63 L 460 73 L 460 76 L 464 80 L 476 101 L 481 107 L 477 110 L 476 112 L 479 115 L 488 120 L 493 125 L 491 127 L 481 127 L 480 130 L 490 140 L 495 148 L 494 151 L 491 151 L 490 150 L 485 150 L 484 151 L 491 164 L 493 172 L 491 174 L 486 171 L 484 172 L 485 179 L 486 180 L 485 192 L 483 194 L 480 192 L 478 194 L 478 202 L 476 208 L 469 220 L 463 226 L 463 228 L 469 230 L 470 232 L 467 234 L 469 236 L 473 236 L 475 238 L 475 239 L 472 240 L 471 242 L 476 245 L 488 249 L 490 251 L 492 251 L 498 255 L 497 257 L 491 257 L 491 259 L 493 261 L 502 265 L 518 277 L 517 280 L 509 279 L 509 281 L 516 286 L 524 290 L 526 290 L 530 293 L 528 295 L 523 295 L 522 298 L 536 307 L 548 317 L 547 320 L 545 319 L 539 319 L 537 318 L 537 320 L 566 347 L 565 349 L 562 349 L 557 347 L 555 348 L 562 356 L 575 374 L 574 376 L 568 375 L 568 377 L 574 385 L 575 388 L 578 391 L 582 399 L 581 401 L 578 400 L 576 401 L 580 408 L 582 414 L 582 417 L 587 430 L 587 433 L 583 435 L 584 442 L 585 443 L 585 464 L 584 465 L 583 474 L 580 480 L 580 482 L 574 492 L 569 496 L 567 495 L 568 492 L 568 483 L 565 482 L 563 484 L 561 492 L 558 498 L 552 504 L 549 505 L 542 505 L 540 503 L 544 494 L 544 485 L 542 483 L 538 488 L 538 490 L 534 497 L 529 502 L 527 503 L 521 503 L 516 501 L 511 495 L 511 493 L 515 488 L 518 479 L 518 470 L 516 468 L 513 469 L 508 481 L 505 484 L 500 484 L 496 482 L 491 474 L 491 471 L 490 470 L 490 460 L 496 442 L 496 438 L 494 434 L 494 429 L 493 428 L 493 424 L 491 419 L 491 415 L 490 414 L 487 399 L 482 384 L 480 381 L 480 379 L 472 362 L 462 347 L 458 343 L 455 345 L 456 352 L 464 366 L 464 368 L 469 377 L 469 379 L 471 382 L 471 384 L 475 393 L 475 396 L 478 404 L 478 408 L 480 412 L 483 431 L 485 436 L 485 443 L 483 446 L 483 449 L 480 457 L 480 474 L 481 475 L 481 478 L 485 486 L 493 494 L 499 496 L 502 499 L 502 503 L 504 509 L 505 520 L 504 521 L 501 520 L 500 521 L 500 524 L 508 543 L 506 545 L 500 541 L 498 541 L 497 543 L 503 553 L 503 555 L 505 558 L 505 560 L 509 569 L 507 571 L 503 568 L 501 569 L 505 577 L 505 580 L 503 582 L 503 586 L 504 587 L 504 614 L 503 615 L 503 621 L 501 626 L 501 630 L 497 635 L 497 637 L 499 639 L 506 642 L 516 653 L 517 661 L 518 662 L 517 670 L 510 678 L 508 678 L 506 676 L 506 668 L 504 662 L 499 657 L 497 657 L 495 659 L 496 668 L 497 669 L 497 678 L 494 681 L 491 681 L 490 682 L 483 682 L 481 683 L 479 681 L 480 679 L 480 670 L 479 669 L 479 666 L 475 660 L 471 660 L 469 662 L 470 681 L 468 683 L 465 683 L 464 684 L 449 684 L 447 682 L 447 665 L 444 661 L 441 661 L 438 664 L 438 681 L 436 683 L 422 682 L 421 681 L 414 680 L 408 677 L 406 677 L 400 671 L 398 666 L 398 657 L 399 656 L 399 651 L 401 646 L 401 635 L 400 634 L 400 631 L 398 630 L 396 632 L 394 630 L 393 627 L 394 611 L 390 611 L 389 610 L 390 607 L 390 594 L 387 595 L 385 594 L 383 588 L 383 585 L 382 584 L 382 581 L 379 575 L 379 572 L 382 571 L 386 567 L 386 565 L 384 563 L 381 562 L 375 564 L 365 564 L 364 565 L 344 564 L 339 562 L 329 561 L 315 556 L 311 556 L 309 558 L 309 560 L 312 563 L 317 566 L 330 570 L 333 572 L 337 572 L 339 574 L 339 579 L 337 584 L 337 596 L 336 597 L 334 597 L 332 595 L 330 596 L 332 620 L 331 621 L 331 628 L 329 629 L 326 627 L 324 629 L 324 633 L 326 638 L 326 656 L 323 662 L 319 666 L 311 669 L 306 669 L 305 670 L 300 670 L 299 671 L 293 671 L 287 673 L 278 673 L 277 674 L 268 674 L 267 675 L 244 675 L 240 672 L 240 662 L 242 657 L 242 653 L 241 652 L 237 652 L 234 655 L 231 662 L 231 671 L 229 673 L 225 673 L 224 672 L 220 672 L 215 668 L 215 660 L 219 649 L 217 647 L 214 647 L 208 654 L 207 666 L 204 668 L 199 662 L 199 651 L 202 642 L 204 639 L 210 634 L 217 631 L 226 630 L 227 629 L 241 629 L 242 630 L 247 630 L 252 632 L 255 631 L 253 629 L 245 626 L 238 626 L 234 622 L 232 616 L 232 613 L 231 612 L 231 609 L 230 608 L 229 598 L 227 594 L 227 585 L 224 582 L 227 568 L 225 567 L 221 570 L 219 568 L 220 561 L 223 554 L 223 551 L 227 542 L 226 540 L 223 541 L 220 541 L 219 540 L 226 525 L 226 522 L 222 522 L 220 520 L 226 509 L 227 505 L 228 504 L 233 505 L 234 504 L 234 500 L 228 487 L 226 474 L 224 474 L 222 477 L 220 475 L 221 452 L 220 451 L 216 454 L 215 453 L 215 448 L 216 447 L 216 443 L 219 435 L 219 432 L 222 426 L 222 423 L 220 422 L 218 424 L 215 425 L 214 424 L 214 420 L 223 402 L 228 396 L 228 393 L 227 392 L 221 394 L 219 391 L 234 372 L 233 369 L 229 369 L 227 366 L 234 357 L 237 351 L 237 347 L 238 346 L 238 343 L 239 342 L 239 339 L 241 333 L 243 330 L 244 322 L 242 320 L 239 320 L 235 324 L 232 333 L 229 336 L 217 333 L 213 330 L 216 327 L 215 324 L 213 323 L 209 323 L 208 322 L 202 322 L 196 320 L 195 317 L 199 314 L 198 311 L 174 303 L 171 300 L 175 297 L 178 297 L 179 294 L 174 290 L 172 290 L 163 286 L 150 276 L 152 273 L 157 273 L 158 272 L 158 269 L 143 255 L 130 237 L 123 223 L 123 221 L 119 212 L 119 208 L 116 199 L 116 195 L 115 194 L 114 187 L 110 181 L 105 176 L 98 164 L 94 160 L 93 157 L 91 155 L 86 143 L 86 135 L 87 133 L 92 129 L 100 130 L 103 127 L 106 127 L 114 133 L 117 133 L 120 129 L 119 120 L 114 112 L 110 108 L 105 108 L 104 109 L 102 108 L 102 106 L 107 102 L 111 102 L 113 103 L 120 110 L 121 113 L 126 120 L 128 120 L 131 118 L 140 119 L 144 115 L 144 104 L 142 100 L 142 97 L 141 94 L 136 88 L 133 89 L 130 93 L 130 100 L 128 102 L 126 101 L 126 92 L 127 91 L 127 88 L 132 82 L 136 82 L 145 92 L 148 100 L 148 107 L 150 113 L 151 114 L 156 114 L 162 120 L 168 120 L 171 114 L 170 103 L 165 93 L 160 89 L 163 85 L 168 86 L 171 89 L 173 93 L 173 97 L 175 102 L 176 115 L 178 117 L 180 117 L 185 112 L 190 109 L 195 109 L 199 113 L 201 117 L 201 124 L 200 125 L 200 129 L 199 130 L 198 137 L 194 146 L 191 149 L 190 155 L 200 170 L 210 190 L 213 193 L 217 189 L 220 192 L 225 207 L 227 210 L 227 212 L 230 215 L 232 215 L 232 211 L 235 210 L 239 214 L 241 218 L 241 221 L 245 229 L 247 229 L 249 226 L 251 226 L 255 231 L 256 236 L 259 241 L 261 240 L 261 237 L 263 236 L 268 242 L 270 246 L 272 248 L 275 248 L 277 246 L 277 240 L 274 235 L 262 221 L 260 221 L 256 218 L 255 212 L 254 211 L 252 211 L 250 214 L 247 212 L 244 206 L 244 191 L 242 190 L 240 192 L 237 192 L 235 189 L 238 170 L 236 169 L 232 171 L 230 169 L 231 168 L 232 162 L 234 160 L 238 152 L 238 150 L 237 149 L 230 150 L 228 147 L 240 134 L 239 123 L 248 103 L 247 100 L 244 100 L 237 96 L 232 91 L 227 82 L 226 71 L 227 70 L 227 65 L 231 56 L 243 45 L 254 41 L 263 41 L 271 44 L 274 46 L 279 51 L 280 54 L 283 56 L 297 46 L 307 43 L 308 40 L 310 38 L 314 38 L 315 37 L 329 37 L 330 36 L 330 33 L 327 28 L 329 25 L 332 25 L 341 29 L 345 32 L 347 32 L 354 24 L 360 21 L 362 23 L 360 29 L 360 32 L 361 33 L 367 31 L 382 31 L 383 32 L 388 32 L 389 33 L 398 34 L 409 38 L 412 29 L 415 25 L 424 17 L 435 13 L 446 13 L 447 14 Z M 459 7 L 450 4 L 443 4 L 442 3 L 437 3 L 436 4 L 427 5 L 415 11 L 405 21 L 405 23 L 403 25 L 394 24 L 393 23 L 387 23 L 386 22 L 372 22 L 370 20 L 370 18 L 364 13 L 356 13 L 349 17 L 345 21 L 334 16 L 325 16 L 321 19 L 319 23 L 319 27 L 317 29 L 311 29 L 305 31 L 288 40 L 286 42 L 284 42 L 277 36 L 264 31 L 254 31 L 253 32 L 246 33 L 232 40 L 225 47 L 219 56 L 216 64 L 216 68 L 215 69 L 216 83 L 220 93 L 222 96 L 235 108 L 229 121 L 229 132 L 223 138 L 219 145 L 219 151 L 221 155 L 224 158 L 224 161 L 222 164 L 222 175 L 224 177 L 223 180 L 217 177 L 212 172 L 207 161 L 203 155 L 203 152 L 211 130 L 211 115 L 210 114 L 210 111 L 208 107 L 201 101 L 198 100 L 187 100 L 184 96 L 184 92 L 179 81 L 175 77 L 171 75 L 162 74 L 150 81 L 149 81 L 143 75 L 135 72 L 133 73 L 129 73 L 121 77 L 119 79 L 117 83 L 116 89 L 114 91 L 101 92 L 93 99 L 89 107 L 89 118 L 85 122 L 81 124 L 77 129 L 76 132 L 76 146 L 79 155 L 87 169 L 90 172 L 97 183 L 105 192 L 107 209 L 114 230 L 123 247 L 139 266 L 139 276 L 142 282 L 148 288 L 152 290 L 160 297 L 160 302 L 162 306 L 165 309 L 175 314 L 180 315 L 183 318 L 184 323 L 188 327 L 198 330 L 206 339 L 224 345 L 226 347 L 226 350 L 218 365 L 218 374 L 219 376 L 214 382 L 209 392 L 209 397 L 212 401 L 212 404 L 207 413 L 207 415 L 205 418 L 205 423 L 204 424 L 205 431 L 209 436 L 207 442 L 207 445 L 206 446 L 206 459 L 210 467 L 210 476 L 211 477 L 211 480 L 214 486 L 220 492 L 217 503 L 215 506 L 215 509 L 212 514 L 210 520 L 210 524 L 213 530 L 210 535 L 209 544 L 213 550 L 213 552 L 210 559 L 209 569 L 211 574 L 215 578 L 215 589 L 216 590 L 216 595 L 218 600 L 218 605 L 219 606 L 219 610 L 220 611 L 220 616 L 221 618 L 218 621 L 211 622 L 205 625 L 196 632 L 190 642 L 190 644 L 188 647 L 188 652 L 187 653 L 188 663 L 191 669 L 196 674 L 206 679 L 210 679 L 211 680 L 219 681 L 220 682 L 225 682 L 226 683 L 235 683 L 236 684 L 275 684 L 276 683 L 285 683 L 286 682 L 293 682 L 294 681 L 305 680 L 306 679 L 321 676 L 327 673 L 334 666 L 337 659 L 337 651 L 338 650 L 337 647 L 337 639 L 342 631 L 342 626 L 343 625 L 343 606 L 347 602 L 348 599 L 348 590 L 350 584 L 350 577 L 352 575 L 355 576 L 368 576 L 370 578 L 370 582 L 372 586 L 372 589 L 374 593 L 375 599 L 378 605 L 381 608 L 381 615 L 382 616 L 382 624 L 383 625 L 383 628 L 387 638 L 390 641 L 390 647 L 388 652 L 388 660 L 387 661 L 388 669 L 393 679 L 399 684 L 407 688 L 410 688 L 414 690 L 422 691 L 423 692 L 428 692 L 429 693 L 439 693 L 440 694 L 475 694 L 476 693 L 487 693 L 488 692 L 499 691 L 500 690 L 503 690 L 504 689 L 507 689 L 513 687 L 520 683 L 527 675 L 529 669 L 529 666 L 530 665 L 529 662 L 529 655 L 527 649 L 521 640 L 512 633 L 512 629 L 514 623 L 514 615 L 515 614 L 515 599 L 516 598 L 516 595 L 515 594 L 515 583 L 520 577 L 520 570 L 519 569 L 519 566 L 517 560 L 515 557 L 515 554 L 519 549 L 519 544 L 517 538 L 514 533 L 514 530 L 516 527 L 516 517 L 515 515 L 518 513 L 522 515 L 530 515 L 533 514 L 539 517 L 548 517 L 549 516 L 552 516 L 571 508 L 577 504 L 584 497 L 592 484 L 592 481 L 596 470 L 596 466 L 597 465 L 597 449 L 596 448 L 596 442 L 598 440 L 598 430 L 597 429 L 595 419 L 592 413 L 592 410 L 594 407 L 594 401 L 589 390 L 585 384 L 587 380 L 587 376 L 583 368 L 575 358 L 578 354 L 578 348 L 573 340 L 558 326 L 558 324 L 560 321 L 560 317 L 553 308 L 540 298 L 541 290 L 538 286 L 528 279 L 528 274 L 520 266 L 516 264 L 513 261 L 514 259 L 513 254 L 505 247 L 492 241 L 490 239 L 490 235 L 489 233 L 481 224 L 481 221 L 483 219 L 487 211 L 488 206 L 493 201 L 495 197 L 496 186 L 501 181 L 503 176 L 503 167 L 501 164 L 501 160 L 505 154 L 505 147 L 503 144 L 502 140 L 498 135 L 502 129 L 502 122 L 501 120 L 490 110 L 490 104 L 476 80 L 474 78 L 474 75 L 481 67 L 485 59 L 485 55 L 486 54 L 486 39 L 485 38 L 485 35 L 481 26 L 476 19 L 469 13 L 461 9 Z M 455 6 L 467 12 L 477 21 L 484 33 L 485 39 L 486 40 L 486 53 L 481 66 L 473 75 L 473 77 L 490 105 L 490 111 L 493 113 L 502 123 L 502 129 L 498 133 L 498 136 L 502 141 L 505 149 L 504 156 L 500 160 L 500 162 L 502 165 L 502 170 L 503 171 L 502 178 L 496 185 L 496 190 L 495 191 L 494 199 L 488 205 L 486 212 L 480 223 L 489 234 L 489 239 L 491 241 L 495 242 L 497 244 L 507 249 L 514 257 L 513 262 L 523 269 L 528 275 L 528 280 L 535 284 L 540 289 L 541 293 L 539 296 L 539 298 L 550 306 L 557 313 L 560 318 L 560 320 L 558 323 L 558 326 L 577 346 L 578 353 L 575 356 L 575 359 L 582 367 L 583 370 L 585 372 L 587 378 L 585 382 L 585 385 L 593 399 L 593 408 L 591 410 L 591 412 L 594 418 L 596 424 L 596 427 L 597 428 L 597 440 L 595 443 L 596 446 L 596 452 L 597 453 L 596 468 L 595 469 L 595 472 L 594 473 L 594 476 L 591 485 L 585 495 L 572 507 L 554 515 L 543 517 L 542 516 L 538 516 L 535 514 L 524 515 L 523 514 L 520 514 L 517 512 L 514 513 L 516 519 L 516 526 L 513 530 L 513 532 L 516 537 L 518 543 L 518 550 L 514 554 L 514 556 L 517 561 L 519 567 L 520 576 L 514 583 L 514 586 L 515 587 L 515 607 L 514 608 L 514 619 L 513 620 L 513 625 L 512 626 L 511 633 L 517 637 L 522 642 L 526 648 L 529 657 L 529 667 L 528 668 L 528 671 L 525 677 L 519 683 L 512 687 L 509 687 L 505 689 L 501 689 L 497 691 L 481 692 L 480 693 L 455 693 L 454 694 L 451 693 L 434 693 L 433 692 L 426 692 L 425 691 L 420 691 L 419 690 L 412 689 L 400 684 L 392 677 L 388 668 L 388 655 L 389 654 L 389 650 L 390 649 L 391 642 L 387 637 L 383 627 L 382 610 L 375 598 L 370 577 L 368 575 L 352 575 L 350 577 L 350 583 L 348 588 L 348 598 L 346 603 L 342 607 L 342 612 L 343 613 L 343 617 L 342 618 L 342 629 L 339 636 L 337 638 L 337 657 L 334 665 L 326 673 L 320 676 L 317 676 L 308 679 L 298 680 L 297 681 L 290 681 L 289 682 L 282 682 L 281 683 L 265 683 L 264 684 L 229 683 L 228 682 L 216 681 L 215 680 L 212 680 L 211 679 L 208 679 L 202 677 L 197 674 L 191 668 L 188 661 L 188 649 L 193 637 L 199 630 L 210 623 L 220 621 L 221 620 L 221 614 L 219 609 L 219 604 L 218 603 L 217 593 L 215 587 L 215 577 L 210 572 L 209 569 L 209 564 L 213 552 L 213 549 L 210 546 L 209 543 L 210 536 L 213 531 L 213 528 L 211 526 L 210 521 L 212 515 L 215 510 L 215 507 L 217 504 L 220 495 L 220 492 L 214 485 L 211 479 L 211 476 L 210 475 L 210 466 L 206 459 L 206 446 L 209 438 L 209 434 L 205 430 L 205 419 L 209 411 L 209 409 L 213 403 L 213 401 L 209 397 L 209 393 L 212 386 L 219 377 L 218 366 L 226 351 L 227 347 L 225 345 L 219 344 L 216 342 L 207 339 L 202 335 L 201 332 L 199 330 L 187 326 L 183 321 L 183 317 L 181 315 L 176 314 L 166 309 L 161 304 L 160 296 L 153 290 L 149 288 L 142 281 L 139 276 L 139 265 L 128 253 L 120 241 L 114 229 L 107 207 L 105 191 L 96 181 L 82 160 L 78 152 L 78 149 L 76 144 L 76 133 L 77 130 L 83 123 L 89 119 L 90 117 L 89 115 L 89 110 L 90 109 L 91 103 L 93 101 L 94 98 L 98 94 L 102 92 L 114 92 L 117 88 L 118 81 L 123 76 L 130 73 L 139 73 L 148 81 L 152 81 L 160 75 L 163 74 L 170 75 L 174 77 L 180 84 L 180 86 L 184 94 L 184 98 L 186 101 L 189 100 L 198 100 L 202 102 L 208 108 L 211 116 L 211 129 L 209 133 L 209 136 L 205 144 L 205 147 L 203 150 L 203 156 L 208 164 L 210 170 L 213 175 L 215 177 L 220 179 L 224 183 L 226 183 L 226 179 L 222 174 L 222 165 L 225 160 L 225 158 L 220 153 L 219 147 L 223 139 L 230 132 L 229 129 L 229 122 L 236 108 L 232 105 L 220 92 L 216 81 L 215 71 L 216 70 L 216 65 L 220 55 L 224 49 L 233 40 L 242 35 L 248 33 L 251 33 L 252 32 L 266 32 L 276 36 L 283 42 L 287 42 L 291 39 L 309 30 L 319 29 L 320 28 L 319 26 L 320 22 L 324 17 L 332 16 L 338 18 L 343 21 L 346 21 L 351 16 L 357 13 L 363 13 L 366 14 L 370 19 L 371 22 L 383 22 L 384 23 L 403 25 L 413 13 L 425 6 L 428 6 L 433 4 L 447 4 L 448 5 Z" fill="#B1B1B1" fill-rule="evenodd"/><path d="M 463 635 L 463 636 L 473 636 L 473 635 Z M 275 143 L 275 146 L 274 147 L 274 157 L 277 164 L 283 170 L 288 173 L 291 173 L 295 176 L 295 181 L 296 182 L 296 185 L 302 198 L 312 211 L 312 212 L 323 223 L 330 227 L 332 226 L 326 220 L 321 212 L 321 207 L 324 200 L 333 190 L 334 190 L 339 186 L 345 183 L 348 183 L 349 182 L 359 182 L 360 183 L 362 183 L 367 186 L 371 190 L 372 192 L 372 200 L 369 206 L 369 208 L 367 212 L 365 214 L 365 216 L 364 217 L 365 218 L 368 215 L 369 212 L 371 210 L 373 206 L 373 204 L 376 197 L 376 193 L 377 192 L 377 189 L 378 188 L 378 184 L 379 183 L 379 158 L 378 157 L 377 151 L 374 148 L 373 148 L 371 150 L 371 151 L 365 158 L 355 164 L 353 164 L 350 166 L 348 166 L 344 168 L 333 169 L 332 168 L 326 168 L 325 167 L 321 167 L 320 166 L 316 166 L 315 165 L 308 165 L 306 167 L 299 171 L 294 171 L 287 168 L 281 162 L 279 158 L 279 154 L 278 153 L 278 149 L 279 148 L 279 141 L 278 140 Z M 288 129 L 285 134 L 285 139 L 288 145 L 295 151 L 299 153 L 302 153 L 303 154 L 311 154 L 312 153 L 314 153 L 317 151 L 321 150 L 330 143 L 334 135 L 333 131 L 328 126 L 324 125 L 323 124 L 320 124 L 316 122 L 306 122 L 305 123 L 301 123 L 300 124 L 295 125 Z M 293 101 L 289 101 L 287 102 L 284 106 L 284 108 L 283 109 L 283 112 L 282 113 L 282 119 L 286 124 L 289 123 L 294 118 L 296 114 L 296 106 Z M 373 94 L 369 98 L 369 100 L 367 104 L 367 110 L 368 111 L 368 114 L 369 116 L 373 120 L 379 120 L 383 115 L 383 112 L 384 111 L 384 104 L 383 103 L 383 100 L 382 98 L 378 94 Z M 301 64 L 299 62 L 295 62 L 289 65 L 285 69 L 285 70 L 283 72 L 283 74 L 284 75 L 287 75 L 294 69 L 300 67 L 301 66 Z M 367 54 L 368 56 L 376 58 L 382 61 L 384 63 L 387 63 L 388 62 L 388 59 L 387 57 L 379 52 L 377 52 L 376 51 L 371 51 Z M 455 7 L 452 7 L 451 6 L 448 6 L 447 5 L 433 5 L 432 6 L 425 7 L 417 11 L 414 14 L 413 14 L 403 26 L 391 25 L 390 24 L 384 24 L 383 23 L 371 23 L 369 21 L 369 19 L 366 15 L 364 15 L 363 14 L 357 14 L 351 17 L 346 22 L 343 22 L 338 19 L 336 19 L 332 17 L 327 17 L 326 18 L 324 18 L 321 22 L 321 24 L 320 25 L 321 28 L 319 30 L 309 31 L 304 34 L 302 34 L 300 36 L 291 40 L 287 43 L 283 43 L 276 37 L 272 35 L 267 34 L 266 33 L 252 33 L 251 34 L 248 34 L 247 35 L 242 36 L 238 38 L 236 40 L 233 41 L 225 49 L 225 50 L 221 55 L 219 59 L 218 64 L 217 65 L 217 70 L 216 71 L 216 74 L 217 75 L 217 81 L 218 82 L 218 85 L 221 92 L 223 94 L 223 95 L 237 108 L 230 122 L 230 129 L 231 130 L 231 132 L 224 139 L 220 147 L 221 153 L 226 158 L 226 160 L 223 165 L 223 174 L 227 179 L 227 183 L 226 184 L 224 184 L 220 180 L 215 178 L 212 175 L 209 170 L 209 168 L 207 164 L 205 162 L 202 156 L 202 150 L 204 147 L 204 144 L 206 141 L 206 139 L 208 136 L 208 133 L 210 129 L 210 116 L 209 115 L 209 112 L 207 108 L 202 103 L 198 101 L 189 101 L 188 102 L 186 102 L 183 98 L 183 94 L 179 86 L 179 84 L 174 78 L 170 76 L 168 76 L 167 75 L 163 75 L 162 76 L 160 76 L 152 82 L 148 82 L 141 75 L 139 74 L 130 74 L 123 77 L 119 81 L 118 88 L 114 93 L 102 93 L 98 95 L 95 98 L 94 101 L 92 103 L 91 109 L 90 110 L 90 115 L 91 116 L 90 119 L 87 122 L 83 124 L 78 130 L 78 132 L 77 133 L 77 144 L 78 145 L 79 152 L 83 160 L 85 162 L 97 181 L 106 191 L 106 193 L 107 194 L 108 207 L 109 208 L 109 211 L 110 212 L 111 218 L 113 221 L 115 229 L 121 241 L 123 243 L 129 253 L 140 265 L 140 276 L 143 281 L 149 287 L 153 289 L 161 296 L 162 304 L 166 308 L 171 311 L 173 311 L 176 313 L 181 314 L 184 317 L 184 321 L 187 325 L 191 327 L 199 329 L 202 332 L 203 335 L 207 338 L 211 340 L 216 341 L 219 343 L 225 344 L 228 347 L 227 351 L 224 357 L 222 359 L 221 363 L 219 366 L 219 373 L 220 374 L 220 377 L 213 386 L 210 393 L 210 397 L 214 401 L 214 403 L 211 407 L 210 411 L 206 419 L 206 430 L 210 434 L 210 438 L 209 439 L 208 445 L 207 446 L 207 459 L 211 466 L 211 475 L 212 476 L 212 479 L 215 485 L 221 492 L 221 495 L 220 496 L 218 504 L 216 507 L 216 510 L 213 515 L 213 517 L 211 521 L 212 526 L 214 528 L 214 531 L 211 536 L 210 543 L 211 544 L 211 546 L 214 549 L 214 552 L 213 553 L 212 559 L 211 560 L 211 563 L 210 564 L 210 569 L 211 570 L 211 572 L 216 577 L 216 587 L 217 588 L 217 592 L 218 593 L 218 598 L 219 599 L 219 603 L 220 604 L 220 609 L 221 610 L 221 613 L 222 614 L 222 620 L 220 622 L 217 622 L 216 623 L 210 624 L 206 627 L 203 628 L 197 633 L 191 643 L 191 645 L 189 649 L 189 661 L 192 668 L 197 673 L 202 676 L 204 676 L 208 678 L 211 678 L 212 679 L 215 679 L 216 680 L 228 681 L 229 682 L 242 682 L 243 683 L 264 683 L 265 682 L 281 682 L 282 681 L 297 680 L 298 679 L 308 678 L 309 677 L 320 675 L 326 672 L 333 665 L 335 658 L 336 657 L 336 638 L 338 636 L 341 629 L 341 618 L 342 617 L 341 607 L 346 601 L 346 599 L 347 598 L 347 588 L 348 587 L 348 584 L 349 583 L 349 577 L 352 574 L 368 574 L 371 577 L 376 598 L 379 604 L 382 607 L 382 609 L 383 610 L 383 621 L 384 622 L 384 627 L 385 628 L 385 630 L 388 637 L 392 642 L 392 645 L 391 646 L 391 649 L 390 650 L 390 654 L 389 655 L 389 668 L 393 677 L 400 683 L 412 688 L 415 688 L 416 689 L 419 689 L 420 690 L 425 690 L 426 691 L 433 691 L 434 692 L 451 692 L 452 693 L 454 693 L 455 692 L 480 692 L 481 691 L 497 690 L 501 688 L 505 688 L 509 686 L 512 686 L 519 682 L 524 677 L 527 671 L 527 668 L 528 667 L 528 657 L 527 656 L 527 653 L 525 650 L 525 648 L 523 646 L 521 642 L 517 638 L 516 638 L 510 633 L 510 631 L 511 630 L 511 626 L 512 625 L 512 620 L 513 619 L 513 608 L 514 607 L 514 587 L 513 586 L 513 583 L 519 576 L 519 571 L 518 570 L 518 567 L 517 566 L 516 561 L 513 556 L 513 554 L 517 550 L 517 543 L 516 542 L 515 537 L 512 532 L 512 530 L 515 526 L 515 519 L 514 518 L 514 515 L 513 513 L 515 511 L 517 511 L 520 513 L 523 513 L 524 514 L 535 513 L 538 515 L 542 515 L 543 516 L 554 514 L 572 506 L 584 495 L 590 485 L 590 483 L 593 476 L 594 469 L 595 468 L 596 453 L 595 452 L 595 446 L 594 445 L 594 443 L 596 440 L 596 428 L 595 427 L 595 424 L 594 423 L 593 418 L 590 412 L 590 410 L 592 408 L 592 399 L 587 389 L 584 385 L 584 382 L 586 378 L 585 377 L 584 372 L 582 370 L 581 367 L 574 359 L 574 356 L 577 353 L 577 349 L 576 348 L 576 346 L 574 344 L 574 343 L 557 326 L 557 323 L 559 320 L 559 318 L 556 313 L 550 307 L 549 307 L 545 303 L 544 303 L 538 298 L 538 296 L 540 293 L 539 289 L 535 285 L 529 282 L 527 280 L 527 275 L 526 273 L 512 262 L 512 259 L 513 257 L 507 250 L 497 245 L 495 243 L 491 242 L 488 239 L 488 234 L 479 223 L 480 220 L 482 218 L 485 212 L 487 205 L 493 199 L 493 197 L 494 196 L 494 191 L 495 190 L 495 185 L 501 178 L 502 171 L 501 170 L 501 165 L 499 162 L 499 160 L 503 156 L 503 154 L 504 153 L 504 149 L 503 148 L 503 145 L 501 141 L 497 136 L 497 133 L 501 129 L 501 123 L 500 121 L 489 111 L 489 105 L 487 101 L 485 99 L 484 96 L 482 94 L 477 84 L 472 77 L 472 75 L 480 66 L 484 57 L 484 54 L 485 53 L 485 40 L 484 39 L 483 33 L 480 27 L 473 18 L 472 18 L 467 13 Z M 451 13 L 461 18 L 472 29 L 476 37 L 476 40 L 477 41 L 477 52 L 476 53 L 476 56 L 472 64 L 464 72 L 462 73 L 462 76 L 469 85 L 474 95 L 483 108 L 483 109 L 481 111 L 479 111 L 478 112 L 480 114 L 483 115 L 485 117 L 489 119 L 494 124 L 494 126 L 491 129 L 483 128 L 482 130 L 491 139 L 496 147 L 496 151 L 494 153 L 492 153 L 488 151 L 486 152 L 489 158 L 491 160 L 491 162 L 494 167 L 494 174 L 492 176 L 490 176 L 487 173 L 486 174 L 486 176 L 487 177 L 487 194 L 485 196 L 482 196 L 480 195 L 478 207 L 473 217 L 466 225 L 466 228 L 470 228 L 473 231 L 471 233 L 471 234 L 472 235 L 477 236 L 479 238 L 479 239 L 475 242 L 476 243 L 480 244 L 485 247 L 487 247 L 499 253 L 501 255 L 501 257 L 500 258 L 495 258 L 494 260 L 501 263 L 503 265 L 516 273 L 521 278 L 518 281 L 513 281 L 513 282 L 517 285 L 525 289 L 529 290 L 532 293 L 532 294 L 529 297 L 525 297 L 525 298 L 527 300 L 530 301 L 533 304 L 537 306 L 540 309 L 541 309 L 550 317 L 550 319 L 548 321 L 541 321 L 541 322 L 569 348 L 569 349 L 567 351 L 561 350 L 560 349 L 559 349 L 559 351 L 566 359 L 568 363 L 577 374 L 577 376 L 575 378 L 573 378 L 572 377 L 570 378 L 573 381 L 574 384 L 578 389 L 579 392 L 581 394 L 584 400 L 584 402 L 582 404 L 580 403 L 579 404 L 582 410 L 583 416 L 584 417 L 584 419 L 587 426 L 587 429 L 589 433 L 589 435 L 585 438 L 585 441 L 586 442 L 586 448 L 587 449 L 587 459 L 586 460 L 586 466 L 585 467 L 584 475 L 579 487 L 572 496 L 571 496 L 568 499 L 567 499 L 565 497 L 565 495 L 567 491 L 567 485 L 566 484 L 563 488 L 561 496 L 553 505 L 549 506 L 548 507 L 541 507 L 538 504 L 539 501 L 542 497 L 542 494 L 543 493 L 543 486 L 541 486 L 539 489 L 539 491 L 537 495 L 529 504 L 523 505 L 522 504 L 519 504 L 515 502 L 512 499 L 509 494 L 515 484 L 516 478 L 517 477 L 517 472 L 515 470 L 513 472 L 510 480 L 508 482 L 508 483 L 504 486 L 500 486 L 498 485 L 492 479 L 490 475 L 490 473 L 489 472 L 489 458 L 490 457 L 490 454 L 491 453 L 491 451 L 492 450 L 492 448 L 493 447 L 495 440 L 493 436 L 493 431 L 492 430 L 491 421 L 490 420 L 490 417 L 489 416 L 489 413 L 488 412 L 486 401 L 483 394 L 483 391 L 479 383 L 478 378 L 470 362 L 468 360 L 467 357 L 465 355 L 461 348 L 458 345 L 457 346 L 457 350 L 467 369 L 467 371 L 474 385 L 474 387 L 475 388 L 475 390 L 478 397 L 478 400 L 479 401 L 479 404 L 480 405 L 480 408 L 481 409 L 481 412 L 482 413 L 482 416 L 483 417 L 483 421 L 484 422 L 485 431 L 486 432 L 486 435 L 487 436 L 487 443 L 483 452 L 483 455 L 482 456 L 482 461 L 481 462 L 482 475 L 485 481 L 485 483 L 487 485 L 487 486 L 493 492 L 497 494 L 499 494 L 503 497 L 504 507 L 505 508 L 505 512 L 506 513 L 506 516 L 507 517 L 507 521 L 505 523 L 502 523 L 502 526 L 507 536 L 507 538 L 509 541 L 510 545 L 508 547 L 506 547 L 502 544 L 500 544 L 500 545 L 506 556 L 506 558 L 510 566 L 511 571 L 509 573 L 504 570 L 503 571 L 507 578 L 507 581 L 504 584 L 505 586 L 505 590 L 506 591 L 506 604 L 505 605 L 505 616 L 504 617 L 504 623 L 503 624 L 503 627 L 502 628 L 502 632 L 499 635 L 499 637 L 501 639 L 507 641 L 517 652 L 518 654 L 518 657 L 519 658 L 519 669 L 518 670 L 518 672 L 512 678 L 508 680 L 506 680 L 504 678 L 504 676 L 505 675 L 505 670 L 504 669 L 503 663 L 500 659 L 498 659 L 497 660 L 497 666 L 498 667 L 498 679 L 493 683 L 480 684 L 478 682 L 478 668 L 477 667 L 476 663 L 473 661 L 472 661 L 470 663 L 470 665 L 471 666 L 471 673 L 472 674 L 472 682 L 469 685 L 448 685 L 446 683 L 446 668 L 445 667 L 445 664 L 444 663 L 441 663 L 439 666 L 439 677 L 440 678 L 440 683 L 438 685 L 435 685 L 434 684 L 426 684 L 425 683 L 420 683 L 416 681 L 410 680 L 404 677 L 399 672 L 397 668 L 397 653 L 398 652 L 398 649 L 399 648 L 399 633 L 398 632 L 396 634 L 394 634 L 393 633 L 393 631 L 392 630 L 392 615 L 388 612 L 388 599 L 389 597 L 388 596 L 386 598 L 383 595 L 382 586 L 381 585 L 380 580 L 377 575 L 377 572 L 379 570 L 381 570 L 384 567 L 384 565 L 383 564 L 379 564 L 378 565 L 372 565 L 371 566 L 365 566 L 364 567 L 356 567 L 355 566 L 349 566 L 348 565 L 341 565 L 340 564 L 336 564 L 335 563 L 327 562 L 326 561 L 320 560 L 319 559 L 316 559 L 315 558 L 312 558 L 311 560 L 316 564 L 320 566 L 331 569 L 332 570 L 339 571 L 341 573 L 341 578 L 340 579 L 340 582 L 338 586 L 338 598 L 336 600 L 335 600 L 333 598 L 332 599 L 332 606 L 333 607 L 333 629 L 331 632 L 326 631 L 326 635 L 327 636 L 327 640 L 328 641 L 328 654 L 327 655 L 327 658 L 324 664 L 321 667 L 314 670 L 306 671 L 305 672 L 293 673 L 292 674 L 283 674 L 282 675 L 275 675 L 274 676 L 241 676 L 239 674 L 239 661 L 241 657 L 241 654 L 240 653 L 238 653 L 235 656 L 233 660 L 233 663 L 232 664 L 232 669 L 233 670 L 233 673 L 232 674 L 222 674 L 221 673 L 218 673 L 214 670 L 214 658 L 217 651 L 216 649 L 214 649 L 209 655 L 209 658 L 208 659 L 208 665 L 209 666 L 209 668 L 207 670 L 205 670 L 199 665 L 198 663 L 198 660 L 197 659 L 197 654 L 198 653 L 199 646 L 202 640 L 209 633 L 215 630 L 223 629 L 224 628 L 232 628 L 235 626 L 232 621 L 231 615 L 230 614 L 230 611 L 229 610 L 228 599 L 226 595 L 226 587 L 222 584 L 225 570 L 224 569 L 222 571 L 219 571 L 218 570 L 218 564 L 219 563 L 219 560 L 221 556 L 221 553 L 222 552 L 223 546 L 225 543 L 223 542 L 219 544 L 217 542 L 218 538 L 221 533 L 221 531 L 225 524 L 224 523 L 220 524 L 218 522 L 218 521 L 225 508 L 226 502 L 227 501 L 229 501 L 231 503 L 232 502 L 232 499 L 227 489 L 225 478 L 221 480 L 219 478 L 219 476 L 218 475 L 218 468 L 219 467 L 219 458 L 220 457 L 220 455 L 219 454 L 217 457 L 215 457 L 214 456 L 214 446 L 215 445 L 215 441 L 216 440 L 216 437 L 217 436 L 220 425 L 218 425 L 214 427 L 212 425 L 212 422 L 216 414 L 216 412 L 218 410 L 221 403 L 226 396 L 225 394 L 219 396 L 217 394 L 217 391 L 233 371 L 232 370 L 230 371 L 227 371 L 225 369 L 225 367 L 230 359 L 235 353 L 235 349 L 236 348 L 237 341 L 238 340 L 240 332 L 242 329 L 243 323 L 242 322 L 239 322 L 237 324 L 235 328 L 235 330 L 232 336 L 230 338 L 227 338 L 224 336 L 218 335 L 215 333 L 213 333 L 210 330 L 214 326 L 213 325 L 210 325 L 209 324 L 204 324 L 203 323 L 199 323 L 196 321 L 194 321 L 192 319 L 192 317 L 196 314 L 196 313 L 194 311 L 192 311 L 188 309 L 185 309 L 173 304 L 169 300 L 169 298 L 171 296 L 176 296 L 176 294 L 169 290 L 167 290 L 161 287 L 154 281 L 153 281 L 147 275 L 147 273 L 149 271 L 154 271 L 155 269 L 139 253 L 139 252 L 129 239 L 122 225 L 122 223 L 120 220 L 120 218 L 118 214 L 117 206 L 116 205 L 115 197 L 114 196 L 114 192 L 113 191 L 112 186 L 102 175 L 102 174 L 98 169 L 97 166 L 94 163 L 91 157 L 89 155 L 87 151 L 86 146 L 85 145 L 85 134 L 86 132 L 91 128 L 99 128 L 100 127 L 100 121 L 99 120 L 99 108 L 100 107 L 100 105 L 107 100 L 111 100 L 116 103 L 122 110 L 124 114 L 126 116 L 127 116 L 127 112 L 124 107 L 124 104 L 123 103 L 123 93 L 126 86 L 131 81 L 137 81 L 139 83 L 140 83 L 146 90 L 147 94 L 149 97 L 151 109 L 152 109 L 153 107 L 153 102 L 154 101 L 155 93 L 156 92 L 157 88 L 161 84 L 167 84 L 169 85 L 173 89 L 173 91 L 174 92 L 174 95 L 175 96 L 175 101 L 176 102 L 176 107 L 177 108 L 177 114 L 178 115 L 180 115 L 184 111 L 189 108 L 196 108 L 201 113 L 201 115 L 202 116 L 202 127 L 201 128 L 199 139 L 191 154 L 194 159 L 197 162 L 206 180 L 208 182 L 209 186 L 212 190 L 213 190 L 216 187 L 218 187 L 221 190 L 223 194 L 223 197 L 224 198 L 226 206 L 230 213 L 231 212 L 231 209 L 233 207 L 236 208 L 241 215 L 241 217 L 243 220 L 243 223 L 244 225 L 246 227 L 247 225 L 249 223 L 250 223 L 254 227 L 257 233 L 258 237 L 259 238 L 260 237 L 260 235 L 262 233 L 263 233 L 265 235 L 271 245 L 273 247 L 274 247 L 276 244 L 276 242 L 274 238 L 266 228 L 266 227 L 262 223 L 258 222 L 256 220 L 253 214 L 251 216 L 250 216 L 246 213 L 243 207 L 243 204 L 242 203 L 242 194 L 241 193 L 237 194 L 234 191 L 234 182 L 235 181 L 236 173 L 237 172 L 236 171 L 233 173 L 231 173 L 229 171 L 229 166 L 230 165 L 230 163 L 232 159 L 234 157 L 236 152 L 235 151 L 229 152 L 226 149 L 226 148 L 229 143 L 238 134 L 238 122 L 243 112 L 243 110 L 246 105 L 246 102 L 245 101 L 243 101 L 239 99 L 231 92 L 226 83 L 226 80 L 225 79 L 225 69 L 226 68 L 226 63 L 230 55 L 242 44 L 246 42 L 251 41 L 252 40 L 265 40 L 266 41 L 268 41 L 276 46 L 280 50 L 282 54 L 284 54 L 288 50 L 296 46 L 298 44 L 306 42 L 307 41 L 307 39 L 311 36 L 324 36 L 325 35 L 328 35 L 328 32 L 326 29 L 326 25 L 328 23 L 334 24 L 345 30 L 347 30 L 353 23 L 358 20 L 362 20 L 364 22 L 363 26 L 362 27 L 362 31 L 364 30 L 370 30 L 371 29 L 378 29 L 379 30 L 386 30 L 387 31 L 397 32 L 398 33 L 400 33 L 401 34 L 408 36 L 409 35 L 411 28 L 414 25 L 414 24 L 423 16 L 429 13 L 431 13 L 432 12 L 436 12 L 437 11 L 441 11 L 442 12 L 448 12 L 449 13 Z" fill="#010101" fill-rule="evenodd"/></svg>