<svg xmlns="http://www.w3.org/2000/svg" viewBox="0 0 653 704" shape-rendering="geometricPrecision"><title>intro frame 076</title><path d="M 490 627 L 486 624 L 486 621 L 485 620 L 479 620 L 474 618 L 463 618 L 450 626 L 443 627 L 440 629 L 436 630 L 432 634 L 429 634 L 424 637 L 420 637 L 415 642 L 412 651 L 414 650 L 417 651 L 420 650 L 422 651 L 425 654 L 427 660 L 431 664 L 435 665 L 435 656 L 436 655 L 436 652 L 439 649 L 442 649 L 447 653 L 448 656 L 450 658 L 450 661 L 452 665 L 454 667 L 459 667 L 465 664 L 464 651 L 468 643 L 474 638 L 477 639 L 483 638 L 490 631 L 491 631 Z M 210 529 L 206 535 L 206 537 L 210 540 L 210 542 L 207 547 L 204 558 L 202 561 L 201 568 L 206 567 L 208 569 L 205 583 L 208 586 L 208 590 L 209 591 L 209 602 L 212 609 L 212 612 L 214 615 L 215 619 L 217 621 L 223 623 L 236 624 L 248 629 L 250 632 L 247 635 L 243 635 L 242 634 L 234 633 L 233 632 L 209 632 L 198 636 L 192 642 L 189 648 L 189 651 L 188 652 L 188 660 L 189 663 L 191 663 L 191 660 L 195 651 L 199 647 L 201 646 L 205 646 L 208 649 L 207 654 L 205 657 L 205 661 L 204 662 L 204 668 L 206 670 L 209 671 L 215 671 L 216 670 L 216 663 L 219 655 L 224 650 L 229 650 L 231 652 L 231 659 L 229 663 L 229 671 L 231 673 L 256 673 L 257 672 L 264 672 L 270 667 L 276 665 L 279 662 L 283 660 L 287 656 L 287 653 L 288 652 L 286 647 L 286 644 L 282 643 L 279 639 L 278 633 L 276 631 L 276 626 L 277 624 L 274 619 L 273 615 L 263 605 L 260 600 L 260 597 L 263 595 L 271 603 L 272 602 L 271 596 L 275 593 L 275 591 L 263 580 L 260 579 L 253 572 L 252 572 L 238 557 L 224 549 L 217 542 L 213 535 L 213 533 L 211 531 L 211 529 Z M 247 583 L 250 585 L 252 589 L 252 592 L 250 594 L 247 591 L 245 587 Z M 358 546 L 359 584 L 361 587 L 366 591 L 369 591 L 370 592 L 378 592 L 383 594 L 389 594 L 390 593 L 406 593 L 407 592 L 413 592 L 416 594 L 420 594 L 421 593 L 427 593 L 428 592 L 438 592 L 439 591 L 442 591 L 451 586 L 454 586 L 456 584 L 456 579 L 459 576 L 459 570 L 460 568 L 458 566 L 457 561 L 455 559 L 455 556 L 449 550 L 447 545 L 443 541 L 443 536 L 440 532 L 436 531 L 433 529 L 426 529 L 425 528 L 421 528 L 415 525 L 412 525 L 408 522 L 405 522 L 402 520 L 397 519 L 388 514 L 381 513 L 380 516 L 373 524 L 368 532 L 363 537 Z M 99 449 L 100 456 L 101 457 L 109 457 L 104 451 L 100 448 Z M 214 295 L 201 305 L 201 313 L 196 318 L 190 322 L 191 326 L 182 334 L 179 343 L 175 347 L 169 350 L 167 350 L 165 352 L 163 352 L 155 357 L 137 372 L 132 375 L 122 385 L 110 393 L 103 393 L 102 394 L 100 393 L 98 394 L 87 394 L 81 397 L 81 399 L 84 397 L 101 397 L 102 398 L 108 399 L 113 403 L 112 409 L 106 415 L 99 418 L 95 418 L 93 420 L 94 421 L 94 434 L 93 435 L 94 438 L 96 439 L 97 438 L 98 426 L 102 420 L 105 417 L 115 411 L 127 411 L 135 415 L 141 421 L 145 427 L 150 438 L 152 440 L 161 433 L 161 432 L 169 424 L 170 420 L 174 415 L 178 407 L 182 405 L 185 402 L 185 397 L 188 393 L 189 381 L 193 372 L 193 370 L 190 366 L 190 361 L 189 360 L 190 353 L 196 342 L 196 339 L 195 338 L 196 332 L 203 324 L 204 317 L 209 310 L 209 305 L 213 300 Z M 218 285 L 217 284 L 214 286 L 213 288 L 217 287 Z M 391 237 L 389 239 L 390 242 L 392 240 Z M 398 39 L 385 40 L 379 43 L 370 51 L 368 57 L 364 61 L 351 55 L 343 54 L 338 52 L 321 52 L 320 53 L 316 53 L 314 51 L 314 48 L 316 46 L 317 43 L 316 42 L 310 45 L 304 52 L 301 52 L 294 47 L 287 45 L 288 53 L 286 55 L 267 55 L 263 60 L 250 63 L 244 66 L 236 72 L 232 69 L 230 63 L 224 57 L 222 57 L 218 54 L 204 54 L 198 56 L 187 66 L 183 73 L 183 76 L 181 80 L 181 89 L 185 98 L 192 105 L 198 107 L 200 109 L 199 116 L 190 134 L 190 145 L 179 155 L 179 157 L 184 156 L 186 158 L 186 162 L 182 168 L 181 172 L 179 175 L 180 176 L 184 175 L 186 177 L 186 181 L 183 187 L 182 197 L 181 198 L 182 199 L 184 197 L 188 197 L 190 199 L 190 202 L 189 203 L 189 220 L 190 223 L 192 223 L 192 221 L 195 218 L 199 221 L 200 229 L 203 237 L 204 237 L 207 233 L 211 237 L 213 241 L 216 241 L 220 244 L 222 244 L 237 254 L 238 256 L 244 261 L 247 266 L 247 269 L 245 271 L 243 271 L 237 268 L 235 269 L 235 274 L 234 276 L 229 281 L 228 284 L 225 287 L 226 289 L 226 293 L 220 298 L 217 303 L 217 306 L 219 308 L 219 311 L 211 319 L 215 322 L 215 326 L 211 334 L 210 343 L 208 349 L 205 353 L 206 354 L 210 350 L 215 347 L 217 347 L 219 349 L 219 352 L 214 363 L 208 372 L 206 379 L 203 384 L 207 388 L 207 391 L 205 396 L 198 406 L 198 408 L 200 408 L 203 411 L 203 413 L 199 420 L 199 422 L 195 429 L 193 435 L 193 437 L 197 436 L 200 439 L 199 446 L 196 453 L 195 464 L 199 463 L 201 465 L 201 484 L 203 483 L 205 485 L 209 501 L 218 513 L 220 514 L 224 511 L 227 514 L 230 523 L 231 524 L 233 522 L 236 522 L 244 534 L 246 536 L 249 536 L 250 537 L 251 536 L 244 528 L 238 517 L 238 514 L 236 511 L 236 506 L 238 505 L 241 508 L 242 511 L 244 513 L 244 515 L 253 528 L 253 530 L 260 536 L 259 539 L 264 544 L 270 548 L 272 548 L 272 546 L 267 539 L 266 536 L 263 533 L 259 524 L 259 520 L 260 519 L 264 522 L 265 525 L 270 532 L 281 543 L 291 549 L 293 548 L 294 543 L 296 541 L 298 541 L 302 545 L 304 545 L 309 538 L 309 536 L 314 530 L 316 530 L 318 533 L 317 535 L 317 542 L 316 543 L 316 548 L 318 549 L 321 545 L 329 538 L 334 531 L 336 531 L 338 533 L 338 536 L 339 537 L 339 546 L 340 547 L 343 543 L 344 536 L 346 532 L 346 528 L 344 526 L 343 523 L 345 521 L 347 521 L 347 516 L 351 513 L 352 502 L 353 501 L 354 479 L 356 477 L 363 476 L 366 472 L 366 462 L 364 458 L 363 458 L 360 454 L 358 448 L 358 433 L 360 431 L 360 429 L 364 424 L 368 416 L 374 409 L 374 405 L 379 403 L 380 394 L 377 390 L 377 386 L 380 384 L 380 372 L 383 370 L 386 366 L 386 364 L 382 358 L 382 351 L 378 346 L 375 336 L 373 333 L 374 330 L 373 328 L 375 326 L 377 326 L 380 328 L 392 343 L 397 347 L 404 342 L 407 342 L 409 344 L 409 349 L 404 364 L 404 371 L 402 375 L 400 386 L 395 399 L 395 402 L 393 408 L 391 411 L 390 415 L 379 425 L 376 429 L 373 436 L 373 442 L 375 444 L 377 444 L 385 437 L 388 437 L 390 439 L 390 445 L 389 446 L 388 452 L 381 465 L 381 468 L 383 471 L 387 473 L 391 471 L 394 471 L 402 462 L 408 462 L 410 464 L 409 479 L 411 484 L 414 482 L 419 484 L 426 472 L 426 470 L 429 467 L 434 467 L 437 469 L 437 483 L 438 484 L 443 483 L 445 481 L 447 481 L 450 478 L 453 477 L 461 470 L 466 464 L 468 459 L 470 457 L 470 452 L 473 447 L 472 445 L 472 441 L 473 440 L 473 430 L 474 429 L 474 426 L 478 422 L 483 420 L 483 416 L 485 412 L 484 409 L 484 396 L 487 393 L 489 393 L 491 395 L 494 396 L 494 387 L 491 378 L 491 369 L 493 367 L 497 366 L 498 367 L 498 370 L 500 371 L 497 365 L 497 362 L 495 360 L 494 356 L 490 351 L 485 340 L 488 338 L 496 342 L 497 341 L 490 334 L 485 327 L 471 315 L 471 313 L 473 311 L 478 311 L 479 312 L 481 312 L 481 311 L 467 300 L 461 297 L 458 294 L 458 291 L 461 289 L 461 288 L 451 282 L 447 278 L 447 276 L 449 274 L 455 274 L 455 273 L 440 263 L 431 260 L 426 255 L 429 251 L 431 252 L 430 250 L 419 245 L 409 244 L 397 248 L 390 254 L 383 257 L 380 260 L 376 262 L 371 262 L 368 264 L 366 264 L 360 269 L 356 266 L 356 261 L 355 260 L 350 265 L 350 268 L 348 270 L 345 268 L 345 266 L 352 257 L 355 257 L 356 258 L 358 256 L 359 252 L 362 249 L 365 248 L 367 250 L 368 253 L 370 251 L 372 245 L 375 242 L 376 243 L 380 243 L 381 242 L 382 234 L 384 232 L 387 234 L 388 233 L 388 226 L 393 222 L 397 222 L 398 221 L 398 219 L 391 212 L 393 209 L 398 210 L 400 212 L 403 213 L 404 212 L 404 209 L 401 203 L 403 201 L 406 201 L 409 204 L 411 203 L 411 198 L 409 197 L 407 194 L 409 192 L 412 191 L 412 188 L 406 181 L 407 178 L 411 178 L 415 181 L 419 181 L 420 180 L 425 183 L 425 190 L 426 191 L 429 191 L 434 194 L 434 190 L 432 188 L 432 185 L 427 173 L 430 170 L 433 170 L 436 172 L 438 171 L 431 161 L 424 154 L 424 150 L 426 148 L 434 148 L 434 147 L 421 136 L 421 133 L 424 130 L 424 128 L 421 124 L 420 120 L 412 104 L 407 98 L 407 96 L 410 93 L 416 91 L 424 82 L 426 76 L 426 64 L 421 54 L 413 46 L 404 41 Z M 341 513 L 343 516 L 343 520 L 341 523 L 341 526 L 338 529 L 335 525 L 335 520 L 337 518 L 337 516 Z M 236 479 L 237 480 L 237 494 L 236 496 L 234 497 L 233 496 L 233 481 Z M 220 458 L 222 460 L 222 469 L 221 470 L 220 480 L 217 482 L 215 480 L 215 470 L 216 469 L 217 462 Z M 219 432 L 221 434 L 220 438 L 217 443 L 215 449 L 211 453 L 209 451 L 209 444 L 212 438 L 218 432 Z M 350 401 L 351 400 L 357 401 L 359 403 L 359 406 L 356 407 L 354 404 L 351 403 Z M 366 399 L 368 397 L 370 397 L 372 398 L 374 401 L 373 402 L 368 402 Z M 330 380 L 333 378 L 337 378 L 347 382 L 352 382 L 356 385 L 356 391 L 355 392 L 352 392 L 342 386 L 334 384 Z M 360 373 L 362 373 L 365 376 L 365 380 L 363 382 L 359 382 L 355 377 Z M 269 322 L 271 324 L 266 328 L 264 325 L 266 323 Z M 261 309 L 263 312 L 260 318 L 255 322 L 254 319 Z M 317 298 L 319 298 L 321 300 L 323 307 L 327 311 L 325 314 L 315 303 L 315 300 Z M 349 297 L 353 300 L 357 307 L 355 314 L 357 317 L 357 319 L 359 322 L 362 324 L 365 329 L 363 331 L 358 330 L 353 324 L 348 323 L 342 319 L 344 318 L 347 314 L 350 313 L 353 310 L 350 306 L 350 304 L 348 301 L 348 298 Z M 339 259 L 338 264 L 322 280 L 318 282 L 310 289 L 308 289 L 299 293 L 288 292 L 284 289 L 279 287 L 266 278 L 257 268 L 257 264 L 259 262 L 266 262 L 275 265 L 293 266 L 294 265 L 310 264 L 311 263 L 314 263 L 315 262 L 318 262 L 319 261 L 322 261 L 323 260 L 326 260 L 335 257 L 337 257 Z M 329 147 L 331 142 L 339 137 L 342 137 L 343 136 L 357 136 L 372 141 L 379 148 L 381 155 L 379 160 L 375 164 L 371 166 L 367 166 L 366 167 L 355 167 L 354 166 L 350 166 L 344 164 L 342 162 L 337 160 L 331 154 Z M 254 125 L 256 123 L 264 120 L 277 120 L 285 123 L 289 128 L 286 131 L 284 130 L 280 130 L 276 128 L 271 128 L 270 127 L 256 129 L 254 127 Z M 236 111 L 241 112 L 244 116 L 245 119 L 245 127 L 243 131 L 244 132 L 262 132 L 263 133 L 270 134 L 275 137 L 280 142 L 281 150 L 278 156 L 272 162 L 265 166 L 260 167 L 257 169 L 246 169 L 238 166 L 231 160 L 227 153 L 227 151 L 226 151 L 225 169 L 227 173 L 234 178 L 241 178 L 245 175 L 251 172 L 253 172 L 254 173 L 257 173 L 259 175 L 262 175 L 271 178 L 288 178 L 289 177 L 292 177 L 298 175 L 306 171 L 312 165 L 313 162 L 315 160 L 319 161 L 322 164 L 324 168 L 324 171 L 325 172 L 325 196 L 324 197 L 324 201 L 323 202 L 322 209 L 318 218 L 317 223 L 310 233 L 305 238 L 296 244 L 294 244 L 289 247 L 283 247 L 280 248 L 279 247 L 274 247 L 268 245 L 261 240 L 247 225 L 237 207 L 234 198 L 234 195 L 233 194 L 233 190 L 230 187 L 224 184 L 216 175 L 214 170 L 214 162 L 213 161 L 202 169 L 195 169 L 189 164 L 188 157 L 190 151 L 202 143 L 211 142 L 214 143 L 218 147 L 221 146 L 226 147 L 226 143 L 228 140 L 228 138 L 225 135 L 225 125 L 228 118 Z M 319 110 L 324 111 L 328 115 L 331 122 L 331 131 L 330 134 L 324 142 L 318 142 L 316 141 L 311 136 L 310 133 L 310 120 L 312 116 Z M 249 74 L 254 79 L 254 83 L 251 86 L 244 88 L 237 94 L 233 95 L 229 91 L 229 87 L 230 85 L 241 75 L 243 74 Z M 314 74 L 315 72 L 320 68 L 330 68 L 333 70 L 335 70 L 340 74 L 342 78 L 342 83 L 339 86 L 336 87 L 325 81 L 322 81 L 317 79 L 314 76 Z M 211 67 L 218 70 L 222 74 L 224 79 L 217 86 L 210 96 L 206 100 L 203 101 L 201 100 L 194 92 L 193 89 L 193 81 L 196 75 L 202 69 L 206 67 Z M 392 53 L 399 53 L 402 54 L 411 63 L 414 70 L 414 76 L 413 79 L 407 86 L 403 88 L 398 88 L 390 79 L 384 75 L 379 70 L 379 66 L 382 61 L 388 55 Z" fill="#FBFBFB" fill-rule="evenodd"/><path d="M 195 637 L 190 643 L 188 648 L 188 651 L 187 652 L 187 662 L 188 664 L 191 667 L 193 666 L 193 658 L 195 653 L 201 647 L 204 647 L 206 649 L 206 653 L 203 660 L 203 670 L 208 672 L 214 672 L 216 673 L 217 672 L 217 664 L 220 655 L 224 651 L 228 651 L 230 653 L 229 651 L 224 651 L 220 655 L 217 663 L 217 670 L 215 672 L 209 672 L 206 671 L 203 668 L 204 657 L 206 654 L 206 651 L 207 650 L 205 647 L 201 647 L 196 651 L 193 657 L 192 663 L 189 664 L 187 660 L 187 652 L 191 642 L 197 636 Z M 392 635 L 396 639 L 395 660 L 397 665 L 408 677 L 411 678 L 413 680 L 421 682 L 416 681 L 408 677 L 401 670 L 397 664 L 395 658 L 395 650 L 396 649 L 396 643 L 397 640 L 396 638 Z M 247 584 L 246 587 L 250 593 L 251 592 L 251 589 L 249 585 Z M 205 551 L 199 567 L 199 570 L 200 571 L 202 569 L 205 569 L 207 571 L 203 585 L 207 588 L 208 601 L 208 591 L 207 590 L 207 586 L 204 583 L 207 569 L 206 568 L 203 568 L 202 569 L 200 568 L 200 564 Z M 482 528 L 483 552 L 485 554 L 490 555 L 493 557 L 496 557 L 504 562 L 510 569 L 515 579 L 515 581 L 515 579 L 511 570 L 504 561 L 495 556 L 490 555 L 484 551 L 483 549 L 483 542 L 482 541 Z M 341 514 L 338 516 L 338 518 L 336 520 L 336 525 L 338 528 L 340 526 L 340 523 L 342 520 L 342 516 Z M 236 480 L 234 481 L 234 496 L 235 496 L 236 494 Z M 87 471 L 83 474 L 83 478 L 84 479 L 87 479 L 88 478 Z M 524 465 L 524 468 L 519 479 L 511 489 L 502 496 L 494 499 L 491 503 L 495 499 L 501 497 L 506 494 L 516 484 L 520 478 L 520 476 L 523 471 Z M 220 459 L 218 462 L 217 469 L 216 470 L 216 480 L 217 481 L 219 480 L 220 470 L 221 469 L 221 460 Z M 78 444 L 70 448 L 66 454 L 66 458 L 65 459 L 67 462 L 70 462 L 71 461 L 70 454 Z M 504 439 L 503 439 L 501 442 L 502 445 L 502 449 L 501 450 L 502 452 L 502 470 L 501 471 L 500 478 L 508 468 L 508 466 L 510 463 L 510 456 L 511 455 L 511 447 Z M 219 433 L 213 438 L 210 444 L 210 451 L 211 452 L 214 449 L 216 443 L 220 435 Z M 351 401 L 351 402 L 353 402 L 356 406 L 358 406 L 358 403 L 357 402 Z M 367 399 L 368 401 L 373 401 L 373 400 L 370 398 Z M 331 380 L 334 383 L 342 385 L 352 391 L 355 391 L 355 385 L 352 383 L 347 383 L 337 379 L 333 379 Z M 356 377 L 359 381 L 363 381 L 364 380 L 364 376 L 362 374 L 360 374 Z M 162 329 L 159 330 L 156 333 L 155 337 L 150 343 L 135 353 L 127 361 L 118 367 L 106 378 L 87 378 L 84 379 L 87 378 L 106 378 L 139 350 L 142 349 L 150 343 L 156 337 L 157 332 L 159 330 Z M 377 327 L 374 328 L 375 329 L 374 333 L 376 336 L 378 344 L 383 351 L 383 358 L 385 360 L 387 366 L 386 368 L 381 372 L 381 384 L 378 386 L 378 390 L 381 394 L 380 403 L 378 405 L 375 405 L 375 409 L 369 416 L 365 424 L 361 429 L 361 431 L 359 433 L 359 448 L 361 454 L 363 457 L 365 458 L 367 462 L 367 472 L 363 477 L 356 478 L 355 479 L 354 501 L 353 502 L 352 513 L 348 516 L 348 521 L 344 523 L 345 526 L 347 528 L 347 532 L 345 536 L 344 543 L 340 548 L 338 546 L 338 537 L 337 536 L 337 533 L 334 532 L 330 538 L 325 542 L 318 550 L 317 550 L 315 548 L 316 535 L 317 533 L 316 531 L 314 531 L 304 546 L 302 546 L 298 542 L 296 542 L 294 548 L 291 550 L 281 544 L 269 532 L 264 525 L 263 522 L 260 520 L 261 527 L 264 533 L 267 536 L 268 539 L 273 546 L 273 548 L 270 549 L 264 545 L 258 539 L 259 536 L 252 530 L 252 528 L 248 523 L 247 520 L 243 515 L 243 513 L 238 506 L 237 506 L 237 511 L 239 514 L 239 517 L 245 528 L 252 536 L 250 538 L 249 537 L 246 537 L 243 534 L 236 523 L 233 523 L 231 525 L 229 523 L 226 514 L 224 512 L 219 515 L 210 504 L 207 498 L 207 495 L 205 491 L 205 487 L 203 484 L 202 485 L 200 484 L 200 465 L 199 464 L 196 465 L 194 464 L 195 453 L 198 446 L 199 439 L 197 437 L 195 438 L 192 437 L 194 429 L 202 413 L 202 411 L 200 409 L 197 408 L 197 406 L 201 401 L 206 391 L 206 388 L 202 384 L 205 379 L 207 372 L 209 370 L 217 355 L 218 349 L 215 348 L 210 351 L 206 355 L 204 354 L 204 355 L 206 356 L 214 350 L 217 352 L 215 358 L 213 360 L 211 365 L 208 368 L 206 376 L 201 386 L 204 387 L 206 389 L 206 391 L 195 410 L 196 411 L 199 410 L 201 412 L 201 415 L 196 424 L 193 434 L 191 437 L 191 440 L 195 438 L 198 440 L 198 444 L 197 445 L 197 448 L 195 453 L 195 458 L 194 459 L 194 469 L 198 466 L 200 468 L 200 484 L 199 485 L 200 492 L 201 492 L 203 489 L 205 491 L 208 504 L 221 524 L 221 529 L 219 531 L 216 531 L 210 526 L 204 536 L 204 539 L 206 539 L 208 541 L 207 546 L 209 540 L 205 537 L 205 535 L 208 530 L 211 528 L 212 531 L 214 533 L 216 539 L 224 548 L 238 556 L 252 571 L 253 571 L 260 578 L 263 579 L 276 591 L 276 593 L 272 596 L 273 602 L 271 604 L 263 596 L 261 597 L 261 600 L 264 605 L 274 615 L 275 619 L 278 624 L 277 626 L 277 631 L 279 633 L 280 639 L 282 642 L 284 642 L 287 644 L 287 647 L 289 651 L 288 656 L 283 661 L 279 663 L 276 666 L 270 668 L 264 673 L 257 673 L 256 674 L 231 674 L 228 671 L 228 664 L 228 672 L 230 674 L 267 674 L 268 673 L 276 673 L 277 672 L 287 672 L 288 671 L 304 669 L 310 667 L 314 663 L 316 659 L 316 644 L 313 635 L 313 631 L 315 629 L 317 630 L 318 629 L 318 620 L 317 619 L 317 614 L 316 613 L 314 602 L 316 600 L 319 601 L 321 603 L 322 602 L 321 593 L 325 583 L 323 581 L 312 578 L 303 574 L 299 570 L 299 568 L 301 566 L 309 566 L 310 567 L 314 567 L 315 568 L 319 568 L 325 570 L 330 570 L 331 571 L 343 571 L 345 551 L 348 544 L 353 538 L 357 541 L 357 578 L 358 579 L 358 586 L 359 588 L 365 593 L 369 602 L 385 617 L 397 623 L 399 623 L 408 627 L 412 627 L 413 628 L 425 628 L 431 626 L 435 622 L 455 611 L 461 609 L 464 609 L 466 611 L 465 614 L 457 620 L 455 620 L 439 628 L 422 632 L 417 636 L 410 648 L 410 652 L 409 653 L 411 662 L 417 667 L 418 667 L 417 656 L 419 654 L 421 654 L 423 656 L 425 662 L 428 667 L 432 671 L 437 671 L 436 656 L 437 653 L 439 651 L 442 651 L 446 654 L 448 657 L 450 665 L 452 668 L 461 668 L 462 667 L 465 667 L 467 665 L 466 650 L 468 646 L 473 641 L 478 641 L 481 645 L 482 651 L 484 654 L 489 649 L 490 646 L 495 639 L 497 633 L 500 628 L 502 622 L 502 619 L 503 618 L 503 614 L 504 613 L 504 607 L 505 606 L 505 595 L 504 594 L 503 582 L 500 576 L 496 572 L 489 568 L 479 565 L 473 558 L 464 552 L 463 548 L 459 544 L 460 536 L 457 530 L 457 528 L 459 526 L 466 523 L 468 521 L 470 515 L 472 513 L 474 504 L 482 489 L 482 485 L 484 482 L 484 477 L 485 476 L 485 468 L 486 467 L 480 472 L 474 481 L 455 498 L 443 504 L 438 504 L 437 505 L 421 505 L 420 504 L 414 504 L 413 503 L 398 500 L 391 495 L 386 493 L 373 481 L 369 474 L 368 461 L 360 451 L 360 448 L 359 447 L 359 436 L 362 428 L 368 419 L 377 409 L 381 402 L 382 394 L 384 391 L 384 388 L 387 380 L 388 367 L 389 366 L 389 362 L 387 356 L 376 337 L 375 330 L 376 329 L 379 329 L 397 350 L 405 343 L 408 345 L 406 355 L 408 349 L 408 344 L 407 343 L 402 344 L 398 348 L 394 346 L 386 337 L 383 332 Z M 492 631 L 483 639 L 480 639 L 479 640 L 474 639 L 469 643 L 465 651 L 466 664 L 464 666 L 459 668 L 454 668 L 451 665 L 449 661 L 449 658 L 447 656 L 446 653 L 442 650 L 439 650 L 437 652 L 437 655 L 436 656 L 436 665 L 435 666 L 431 665 L 426 660 L 424 654 L 420 651 L 419 652 L 416 651 L 412 652 L 411 651 L 414 642 L 420 636 L 424 636 L 429 633 L 432 633 L 436 629 L 440 628 L 443 626 L 450 625 L 463 617 L 474 617 L 479 619 L 485 619 L 487 621 L 487 624 L 491 627 Z M 334 538 L 335 539 L 335 542 L 333 544 L 331 541 L 332 539 Z M 265 532 L 267 531 L 282 547 L 279 549 L 270 540 Z M 236 531 L 239 530 L 249 542 L 253 540 L 259 546 L 262 545 L 265 548 L 264 552 L 261 554 L 253 547 L 246 546 L 239 539 Z M 224 516 L 226 517 L 229 523 L 229 525 L 234 534 L 234 536 L 232 538 L 228 535 L 224 527 L 224 522 L 223 521 L 223 517 Z M 241 514 L 243 515 L 250 527 L 249 530 L 248 530 L 244 525 L 240 517 Z M 357 546 L 362 537 L 367 532 L 372 524 L 379 516 L 381 512 L 388 513 L 397 518 L 402 519 L 405 521 L 408 521 L 412 524 L 415 524 L 421 527 L 425 527 L 426 528 L 433 528 L 436 530 L 440 531 L 444 536 L 444 541 L 448 545 L 450 550 L 456 556 L 456 559 L 458 561 L 459 566 L 461 568 L 460 570 L 460 576 L 457 579 L 457 584 L 454 587 L 451 587 L 442 592 L 439 592 L 438 593 L 428 593 L 427 594 L 421 594 L 420 595 L 416 595 L 413 593 L 383 595 L 378 593 L 370 593 L 369 592 L 366 592 L 363 590 L 358 584 Z M 270 324 L 269 323 L 266 324 L 265 326 L 267 327 Z M 261 310 L 255 319 L 255 321 L 259 318 L 262 312 Z M 317 299 L 316 300 L 316 303 L 325 313 L 326 311 L 322 307 L 320 300 Z M 349 298 L 349 301 L 351 304 L 351 306 L 354 310 L 343 319 L 348 322 L 353 323 L 358 329 L 363 330 L 364 329 L 361 324 L 358 322 L 354 314 L 356 307 L 352 300 Z M 338 259 L 335 258 L 334 259 L 331 259 L 330 260 L 327 260 L 326 261 L 323 261 L 322 262 L 319 262 L 310 265 L 294 266 L 293 267 L 275 266 L 266 263 L 259 263 L 258 264 L 258 268 L 266 277 L 279 286 L 284 288 L 288 291 L 299 292 L 308 288 L 310 288 L 314 284 L 322 279 L 337 264 Z M 299 270 L 301 267 L 303 267 L 305 269 L 302 271 Z M 259 267 L 262 264 L 265 264 L 266 265 L 270 265 L 279 268 L 297 268 L 298 269 L 297 271 L 292 271 L 293 274 L 290 278 L 291 279 L 290 283 L 295 282 L 297 284 L 302 284 L 305 282 L 307 282 L 315 278 L 322 272 L 323 272 L 324 274 L 309 286 L 302 288 L 298 291 L 292 291 L 281 286 L 273 281 L 269 277 L 264 274 L 261 271 Z M 332 263 L 333 265 L 330 267 L 328 265 Z M 186 234 L 188 234 L 191 237 L 193 243 L 197 248 L 204 252 L 206 252 L 214 260 L 214 262 L 208 269 L 209 267 L 215 262 L 214 259 L 208 253 L 200 250 L 193 243 L 191 237 L 188 234 Z M 330 147 L 332 154 L 337 159 L 342 161 L 344 163 L 350 165 L 354 165 L 355 166 L 366 166 L 367 165 L 371 165 L 375 163 L 378 160 L 380 155 L 378 148 L 372 142 L 357 137 L 343 137 L 342 138 L 339 138 L 333 141 Z M 331 146 L 336 140 L 341 138 L 359 138 L 371 142 L 378 149 L 379 151 L 379 157 L 375 162 L 367 165 L 354 165 L 353 164 L 346 163 L 336 157 L 331 151 Z M 255 125 L 256 128 L 267 127 L 268 126 L 276 127 L 285 130 L 288 128 L 285 124 L 277 121 L 264 121 L 263 122 L 260 122 Z M 198 115 L 189 133 L 189 136 L 188 137 L 189 139 L 189 144 L 181 152 L 180 152 L 177 156 L 178 159 L 180 158 L 184 158 L 185 159 L 185 162 L 178 174 L 178 178 L 179 179 L 181 177 L 183 177 L 185 179 L 181 191 L 180 200 L 182 201 L 186 199 L 188 201 L 188 220 L 189 223 L 192 225 L 193 222 L 195 220 L 198 222 L 199 224 L 199 229 L 202 238 L 205 240 L 206 237 L 208 236 L 212 241 L 212 243 L 219 251 L 231 259 L 232 258 L 231 255 L 232 254 L 235 255 L 244 264 L 245 267 L 244 268 L 241 268 L 235 265 L 232 269 L 228 269 L 225 271 L 228 275 L 226 277 L 222 278 L 217 283 L 208 289 L 212 292 L 212 294 L 201 304 L 192 308 L 192 309 L 197 309 L 199 311 L 199 313 L 194 318 L 186 322 L 184 324 L 186 326 L 186 328 L 181 333 L 181 335 L 177 339 L 176 343 L 172 347 L 166 349 L 152 358 L 147 363 L 143 365 L 138 370 L 133 373 L 117 388 L 107 392 L 92 392 L 91 393 L 86 393 L 81 395 L 78 398 L 77 400 L 77 405 L 78 406 L 80 406 L 81 404 L 87 399 L 99 399 L 100 400 L 105 400 L 111 404 L 111 408 L 105 414 L 103 414 L 100 416 L 87 416 L 83 419 L 72 421 L 66 425 L 65 429 L 68 430 L 70 426 L 76 422 L 84 421 L 85 420 L 90 420 L 93 424 L 93 431 L 92 432 L 92 435 L 89 439 L 90 440 L 94 440 L 97 444 L 98 459 L 90 468 L 93 466 L 95 466 L 103 459 L 111 459 L 115 462 L 115 467 L 113 470 L 110 479 L 111 484 L 113 486 L 118 485 L 113 478 L 114 477 L 114 473 L 120 464 L 129 464 L 133 467 L 133 472 L 128 479 L 128 480 L 130 480 L 146 465 L 153 455 L 157 452 L 175 444 L 178 441 L 179 431 L 183 422 L 182 420 L 182 411 L 184 406 L 186 404 L 186 402 L 190 396 L 189 393 L 189 386 L 192 377 L 194 374 L 194 370 L 191 365 L 191 362 L 191 366 L 194 370 L 194 372 L 190 381 L 189 393 L 186 397 L 186 402 L 182 406 L 179 407 L 175 415 L 171 420 L 170 424 L 161 434 L 152 441 L 149 438 L 144 427 L 140 421 L 135 416 L 127 412 L 115 412 L 105 418 L 99 426 L 98 438 L 96 440 L 92 437 L 93 434 L 93 421 L 92 420 L 95 417 L 99 417 L 106 414 L 111 409 L 112 403 L 108 400 L 102 399 L 101 398 L 84 398 L 81 400 L 80 397 L 82 395 L 87 393 L 98 393 L 99 392 L 102 393 L 103 392 L 110 392 L 112 390 L 117 388 L 132 374 L 137 371 L 155 356 L 161 352 L 165 351 L 167 349 L 169 349 L 175 346 L 178 343 L 181 334 L 190 326 L 189 322 L 200 313 L 200 305 L 214 294 L 215 297 L 214 300 L 210 305 L 210 310 L 205 317 L 204 324 L 197 332 L 197 335 L 196 336 L 197 342 L 192 350 L 190 360 L 191 359 L 191 353 L 197 342 L 197 338 L 196 336 L 198 331 L 207 322 L 212 321 L 214 323 L 214 326 L 210 334 L 210 337 L 210 334 L 214 326 L 214 322 L 210 319 L 218 311 L 218 308 L 216 306 L 216 303 L 219 298 L 225 293 L 225 289 L 224 287 L 227 284 L 228 281 L 233 276 L 234 274 L 234 269 L 236 267 L 240 268 L 243 270 L 246 269 L 246 266 L 243 261 L 232 251 L 229 250 L 222 245 L 220 245 L 216 242 L 213 242 L 207 234 L 204 238 L 202 237 L 200 233 L 198 221 L 195 219 L 193 221 L 192 224 L 189 223 L 188 220 L 188 203 L 189 202 L 189 199 L 188 198 L 184 198 L 182 200 L 180 198 L 181 197 L 182 187 L 185 181 L 185 177 L 184 176 L 180 177 L 178 175 L 180 172 L 181 168 L 185 162 L 185 158 L 184 157 L 179 158 L 178 155 L 189 145 L 189 134 Z M 98 449 L 100 447 L 110 456 L 109 458 L 101 458 L 99 456 Z M 116 412 L 125 412 L 134 416 L 141 423 L 146 431 L 146 433 L 149 439 L 149 449 L 145 457 L 138 463 L 121 462 L 118 460 L 116 460 L 102 447 L 99 442 L 99 429 L 101 424 L 109 416 Z M 215 310 L 216 312 L 210 317 L 209 314 L 213 310 Z M 221 291 L 222 294 L 219 297 L 217 294 Z M 217 283 L 219 286 L 217 288 L 213 289 L 212 287 Z M 236 112 L 229 118 L 226 125 L 226 135 L 229 138 L 229 140 L 227 143 L 227 147 L 226 148 L 224 147 L 218 148 L 214 144 L 211 143 L 202 144 L 191 151 L 189 157 L 190 164 L 195 168 L 202 168 L 213 160 L 215 162 L 215 170 L 217 175 L 224 183 L 230 186 L 234 190 L 234 194 L 235 195 L 235 198 L 238 207 L 243 217 L 253 231 L 261 239 L 268 244 L 274 246 L 279 246 L 280 247 L 283 246 L 289 246 L 294 243 L 296 243 L 305 237 L 309 233 L 316 223 L 317 218 L 321 209 L 321 206 L 323 201 L 323 197 L 324 196 L 324 172 L 323 171 L 323 168 L 319 162 L 315 161 L 313 165 L 306 172 L 298 176 L 292 178 L 289 178 L 288 179 L 271 179 L 270 178 L 259 176 L 257 174 L 254 174 L 253 173 L 251 173 L 241 179 L 234 179 L 226 173 L 224 169 L 224 160 L 225 159 L 225 151 L 226 150 L 228 151 L 230 157 L 235 163 L 242 167 L 245 167 L 246 168 L 257 168 L 260 166 L 269 163 L 277 156 L 280 150 L 279 142 L 275 138 L 270 135 L 263 134 L 262 133 L 244 133 L 242 131 L 244 127 L 244 119 L 241 113 Z M 217 151 L 221 147 L 223 147 L 225 149 L 224 170 L 230 177 L 234 179 L 241 179 L 249 174 L 255 174 L 262 177 L 266 177 L 271 179 L 289 179 L 298 176 L 309 170 L 313 164 L 317 161 L 321 165 L 323 169 L 323 174 L 324 175 L 324 192 L 323 193 L 323 199 L 322 200 L 322 203 L 321 204 L 321 207 L 318 216 L 314 225 L 310 231 L 305 236 L 292 244 L 286 245 L 285 246 L 276 246 L 265 242 L 249 226 L 242 215 L 238 207 L 233 188 L 224 183 L 217 175 L 215 170 L 215 158 L 216 157 L 216 153 Z M 216 148 L 214 151 L 211 149 L 207 151 L 208 154 L 210 156 L 210 158 L 209 160 L 200 167 L 195 167 L 190 163 L 190 157 L 191 154 L 197 148 L 199 148 L 207 144 L 211 144 Z M 234 113 L 239 112 L 243 116 L 244 119 L 244 127 L 240 134 L 243 134 L 244 133 L 262 133 L 263 134 L 269 135 L 278 141 L 280 145 L 280 150 L 276 157 L 273 160 L 259 167 L 256 167 L 255 168 L 246 168 L 237 164 L 230 157 L 227 150 L 227 143 L 230 139 L 226 135 L 226 125 L 229 118 Z M 181 90 L 181 92 L 185 100 L 190 105 L 193 107 L 197 108 L 199 110 L 199 113 L 199 109 L 192 106 L 184 98 Z M 253 79 L 249 75 L 243 75 L 241 76 L 231 85 L 230 87 L 230 91 L 233 94 L 237 93 L 244 87 L 251 85 L 253 83 Z M 249 75 L 252 78 L 253 82 L 250 85 L 244 87 L 238 92 L 233 94 L 230 91 L 230 87 L 231 85 L 240 77 L 244 75 Z M 211 68 L 206 68 L 202 70 L 197 75 L 194 81 L 194 89 L 197 95 L 203 100 L 206 99 L 209 96 L 216 86 L 223 79 L 221 74 L 218 71 Z M 213 70 L 221 77 L 221 79 L 214 86 L 208 95 L 205 98 L 202 98 L 198 94 L 195 88 L 195 82 L 198 75 L 204 70 Z M 392 54 L 388 56 L 383 61 L 380 66 L 380 70 L 390 78 L 398 87 L 403 87 L 407 85 L 412 79 L 413 76 L 413 70 L 410 63 L 402 55 L 399 54 Z M 392 55 L 399 55 L 407 61 L 410 65 L 412 70 L 412 77 L 407 83 L 402 86 L 399 86 L 386 73 L 383 72 L 381 70 L 381 66 L 387 58 Z M 198 55 L 190 61 L 185 67 L 181 75 L 180 88 L 180 80 L 182 76 L 182 73 L 186 66 L 198 55 L 204 53 L 218 53 L 222 56 L 224 56 L 231 63 L 233 69 L 236 71 L 244 65 L 250 62 L 263 59 L 267 54 L 286 54 L 287 53 L 287 49 L 286 48 L 286 45 L 287 44 L 292 45 L 301 51 L 304 51 L 310 44 L 316 41 L 318 43 L 317 46 L 315 48 L 315 51 L 316 52 L 320 52 L 321 51 L 338 51 L 343 53 L 351 54 L 364 60 L 367 57 L 369 51 L 379 42 L 385 39 L 398 38 L 404 40 L 413 45 L 424 57 L 424 59 L 427 64 L 427 76 L 425 82 L 416 92 L 410 94 L 408 96 L 408 98 L 413 104 L 421 120 L 421 122 L 425 128 L 425 130 L 422 133 L 422 136 L 435 147 L 434 149 L 426 149 L 425 150 L 425 154 L 432 161 L 439 171 L 437 173 L 433 171 L 430 171 L 428 173 L 429 177 L 432 182 L 433 188 L 435 190 L 435 194 L 433 195 L 429 192 L 426 192 L 424 190 L 424 183 L 420 181 L 419 182 L 415 182 L 411 179 L 407 179 L 407 181 L 413 188 L 413 191 L 411 193 L 408 194 L 408 195 L 412 198 L 412 203 L 410 205 L 406 202 L 403 202 L 402 203 L 405 209 L 405 212 L 403 214 L 400 213 L 398 211 L 393 210 L 392 212 L 399 219 L 399 221 L 397 223 L 393 223 L 389 226 L 389 233 L 387 235 L 384 233 L 383 234 L 382 242 L 380 244 L 376 244 L 375 243 L 373 245 L 371 251 L 368 254 L 366 252 L 365 249 L 362 250 L 360 252 L 359 256 L 356 259 L 355 258 L 352 258 L 346 266 L 346 268 L 348 269 L 349 268 L 349 265 L 355 259 L 357 261 L 357 266 L 360 268 L 366 263 L 368 263 L 371 261 L 376 261 L 380 259 L 383 256 L 390 253 L 397 247 L 399 247 L 405 244 L 415 243 L 424 246 L 432 251 L 431 253 L 429 252 L 427 254 L 431 259 L 440 262 L 456 273 L 455 275 L 449 275 L 448 278 L 451 281 L 462 288 L 462 289 L 459 291 L 459 294 L 461 296 L 467 299 L 482 311 L 481 313 L 473 312 L 472 315 L 482 323 L 498 341 L 496 343 L 488 339 L 486 340 L 491 351 L 495 356 L 495 358 L 498 362 L 498 365 L 501 371 L 499 372 L 497 370 L 497 367 L 492 369 L 492 378 L 495 387 L 495 396 L 493 397 L 489 394 L 487 394 L 485 396 L 485 409 L 486 412 L 484 416 L 484 420 L 482 422 L 478 423 L 475 426 L 475 429 L 474 430 L 474 440 L 473 441 L 473 445 L 474 447 L 471 452 L 471 457 L 469 459 L 467 464 L 462 470 L 453 478 L 450 479 L 447 482 L 445 482 L 443 484 L 438 485 L 436 483 L 436 469 L 434 468 L 429 468 L 427 470 L 427 472 L 424 478 L 419 485 L 414 483 L 411 485 L 409 483 L 409 480 L 408 479 L 408 474 L 409 473 L 409 464 L 408 463 L 402 463 L 394 472 L 391 472 L 388 474 L 383 472 L 381 470 L 380 465 L 387 452 L 388 446 L 389 445 L 389 439 L 388 438 L 385 438 L 377 445 L 375 445 L 372 442 L 372 436 L 375 429 L 378 425 L 389 415 L 390 412 L 388 416 L 377 426 L 374 430 L 374 432 L 372 435 L 372 444 L 374 446 L 377 446 L 384 439 L 388 439 L 389 440 L 388 449 L 380 464 L 380 469 L 383 473 L 387 475 L 392 475 L 394 474 L 403 464 L 406 464 L 408 466 L 408 472 L 405 480 L 405 485 L 411 488 L 416 488 L 417 487 L 420 487 L 422 485 L 427 472 L 430 469 L 433 469 L 436 472 L 434 488 L 436 489 L 446 485 L 458 475 L 468 464 L 474 452 L 474 432 L 475 431 L 475 428 L 479 425 L 483 430 L 486 430 L 487 429 L 487 426 L 488 425 L 487 399 L 489 397 L 494 401 L 496 401 L 496 392 L 495 391 L 495 386 L 493 381 L 493 375 L 492 373 L 495 370 L 502 375 L 502 370 L 496 357 L 494 355 L 488 344 L 488 342 L 490 340 L 499 344 L 498 340 L 489 331 L 489 330 L 473 315 L 475 312 L 478 312 L 484 314 L 484 312 L 460 294 L 462 291 L 466 291 L 466 289 L 456 284 L 449 278 L 451 275 L 455 275 L 457 276 L 458 274 L 442 263 L 432 259 L 428 255 L 430 253 L 436 253 L 435 251 L 420 244 L 418 244 L 412 239 L 413 234 L 418 224 L 418 216 L 420 213 L 423 213 L 425 215 L 427 214 L 427 197 L 426 195 L 428 193 L 430 193 L 434 197 L 436 196 L 434 186 L 429 176 L 429 173 L 431 171 L 435 172 L 438 174 L 440 173 L 434 162 L 425 153 L 425 151 L 427 149 L 436 149 L 437 147 L 433 143 L 427 140 L 422 135 L 422 134 L 427 130 L 421 122 L 421 120 L 412 102 L 409 99 L 409 97 L 412 94 L 417 92 L 422 87 L 427 77 L 427 64 L 423 55 L 414 45 L 405 40 L 399 39 L 398 38 L 385 39 L 377 43 L 369 50 L 367 56 L 364 59 L 361 59 L 351 54 L 348 54 L 343 52 L 339 52 L 338 51 L 319 51 L 317 52 L 315 49 L 319 42 L 318 41 L 314 41 L 303 51 L 288 43 L 286 43 L 285 46 L 287 49 L 287 52 L 285 54 L 265 54 L 264 57 L 262 59 L 259 59 L 258 60 L 255 60 L 249 62 L 237 70 L 235 70 L 232 67 L 231 63 L 227 58 L 218 53 L 209 52 L 208 53 L 204 53 Z M 391 236 L 393 238 L 393 240 L 390 243 L 388 241 L 388 239 Z M 404 236 L 399 243 L 390 252 L 381 256 L 378 259 L 376 257 L 386 248 L 390 246 L 396 241 L 402 234 Z M 390 27 L 401 27 L 416 32 L 424 38 L 432 46 L 437 55 L 438 62 L 439 63 L 439 79 L 434 91 L 428 97 L 425 102 L 427 104 L 429 110 L 438 127 L 439 134 L 447 141 L 450 146 L 450 153 L 446 159 L 449 163 L 452 170 L 452 179 L 451 181 L 447 184 L 447 187 L 448 188 L 448 201 L 445 206 L 439 211 L 439 217 L 436 224 L 432 228 L 432 230 L 435 233 L 436 237 L 440 241 L 449 245 L 456 251 L 457 253 L 457 259 L 465 264 L 471 270 L 472 272 L 472 276 L 482 285 L 482 288 L 482 285 L 480 282 L 472 276 L 472 272 L 471 270 L 465 264 L 461 262 L 457 258 L 457 252 L 452 247 L 439 240 L 437 238 L 436 234 L 433 230 L 433 228 L 438 221 L 439 212 L 446 205 L 448 201 L 448 188 L 447 185 L 452 180 L 452 169 L 447 160 L 447 157 L 450 154 L 450 146 L 448 142 L 439 134 L 438 127 L 426 103 L 426 101 L 435 90 L 439 79 L 439 63 L 438 62 L 437 55 L 433 47 L 421 35 L 418 34 L 416 32 L 401 27 Z" fill="#D8D8D8" fill-rule="evenodd"/><path d="M 266 532 L 271 540 L 279 548 L 281 547 L 269 535 L 269 534 Z M 237 531 L 240 539 L 246 545 L 253 546 L 261 553 L 263 552 L 264 548 L 262 546 L 259 547 L 253 541 L 249 543 L 244 538 L 241 533 L 239 531 Z M 224 517 L 225 527 L 229 535 L 232 537 L 233 534 L 228 525 L 228 523 L 225 517 Z M 241 515 L 241 517 L 247 528 L 249 529 L 249 527 L 242 515 Z M 505 433 L 503 433 L 501 435 L 500 440 L 498 443 L 498 449 L 499 450 L 499 471 L 496 480 L 496 485 L 497 486 L 502 482 L 503 479 L 509 471 L 512 464 L 513 455 L 514 454 L 513 446 L 508 440 L 507 435 Z M 504 438 L 512 447 L 512 455 L 511 456 L 511 463 L 509 466 L 509 468 L 500 479 L 499 478 L 500 471 L 501 470 L 501 452 L 500 451 L 501 449 L 501 445 L 500 442 L 501 440 Z M 116 413 L 109 417 L 102 424 L 100 429 L 100 442 L 103 447 L 116 459 L 118 459 L 121 461 L 138 462 L 144 457 L 148 449 L 148 439 L 145 433 L 145 431 L 140 423 L 134 417 L 125 413 Z M 215 311 L 213 311 L 210 314 L 210 316 L 213 314 Z M 260 267 L 262 271 L 273 280 L 281 285 L 292 290 L 298 290 L 302 287 L 309 285 L 323 274 L 323 273 L 322 273 L 315 279 L 307 283 L 305 283 L 302 285 L 297 285 L 295 283 L 292 284 L 289 283 L 290 280 L 289 278 L 292 274 L 291 271 L 292 270 L 297 270 L 297 269 L 279 269 L 278 268 L 275 268 L 270 266 L 266 266 L 265 265 L 262 265 Z M 403 236 L 402 235 L 396 242 L 390 247 L 386 249 L 377 257 L 378 258 L 381 255 L 390 251 L 398 243 Z M 218 151 L 217 153 L 217 157 L 216 158 L 216 170 L 218 175 L 224 182 L 232 186 L 234 188 L 236 198 L 239 207 L 243 215 L 250 226 L 265 241 L 276 245 L 285 245 L 294 242 L 305 235 L 309 231 L 313 225 L 317 216 L 320 207 L 320 204 L 322 199 L 322 193 L 323 192 L 323 175 L 322 174 L 322 169 L 320 165 L 317 162 L 316 162 L 312 168 L 306 173 L 298 177 L 289 180 L 271 180 L 266 178 L 262 178 L 255 175 L 249 175 L 241 180 L 234 180 L 230 178 L 223 170 L 224 149 L 221 148 Z M 219 151 L 221 149 L 224 151 L 224 155 L 222 161 L 222 167 L 224 173 L 230 179 L 236 181 L 243 180 L 249 176 L 255 176 L 256 177 L 259 177 L 260 178 L 263 178 L 272 181 L 287 181 L 306 174 L 309 172 L 317 163 L 320 166 L 321 172 L 322 173 L 322 192 L 321 193 L 320 203 L 315 218 L 309 229 L 305 233 L 304 232 L 304 229 L 308 224 L 311 216 L 311 213 L 312 212 L 311 207 L 307 202 L 302 199 L 290 197 L 289 198 L 282 199 L 276 202 L 268 208 L 263 214 L 261 218 L 261 226 L 265 233 L 270 239 L 267 241 L 261 237 L 250 225 L 243 214 L 239 206 L 236 197 L 235 188 L 233 186 L 225 182 L 220 177 L 217 172 L 216 162 L 217 161 L 217 157 Z M 215 148 L 211 145 L 207 145 L 199 149 L 197 149 L 192 154 L 191 157 L 191 163 L 195 166 L 200 166 L 208 160 L 209 158 L 209 156 L 207 154 L 206 151 L 210 148 L 214 150 Z M 332 146 L 332 151 L 336 156 L 346 162 L 349 162 L 354 164 L 367 164 L 375 161 L 378 157 L 378 151 L 371 143 L 359 139 L 341 139 L 336 141 Z M 234 114 L 230 118 L 227 125 L 227 135 L 231 139 L 228 143 L 228 150 L 231 157 L 237 163 L 246 167 L 255 167 L 256 166 L 259 166 L 273 159 L 279 150 L 279 145 L 277 141 L 269 136 L 263 135 L 262 134 L 244 134 L 243 135 L 240 135 L 239 133 L 243 127 L 243 119 L 242 116 L 239 113 Z M 228 144 L 229 142 L 234 138 L 242 135 L 245 135 L 246 134 L 261 134 L 272 138 L 278 144 L 278 151 L 270 160 L 265 163 L 256 166 L 245 166 L 238 163 L 232 157 L 228 150 Z M 239 114 L 242 117 L 243 125 L 240 131 L 237 134 L 231 137 L 227 134 L 227 127 L 231 118 L 235 114 Z M 319 112 L 314 116 L 312 120 L 311 129 L 312 130 L 313 136 L 318 140 L 322 140 L 324 139 L 328 134 L 329 131 L 329 122 L 326 115 L 322 112 Z M 318 113 L 323 113 L 327 117 L 328 123 L 329 124 L 328 132 L 326 136 L 323 139 L 317 139 L 313 135 L 312 132 L 312 122 L 314 117 Z M 251 78 L 249 76 L 244 76 L 240 78 L 232 85 L 231 87 L 231 91 L 234 93 L 238 91 L 244 86 L 250 84 L 252 82 Z M 251 79 L 251 82 L 249 84 L 247 84 L 241 87 L 235 92 L 232 90 L 233 85 L 243 77 L 249 77 Z M 213 71 L 204 71 L 199 75 L 196 82 L 196 88 L 197 91 L 202 97 L 205 97 L 213 86 L 220 79 L 220 77 Z M 197 85 L 200 84 L 201 87 L 199 88 Z M 316 74 L 317 77 L 328 80 L 334 84 L 338 84 L 340 82 L 340 78 L 339 76 L 335 72 L 333 72 L 330 70 L 325 70 L 323 69 L 318 71 Z M 317 73 L 321 70 L 331 71 L 335 73 L 339 77 L 339 82 L 336 84 L 327 79 L 318 77 L 317 76 Z M 392 56 L 387 59 L 382 66 L 382 70 L 386 72 L 399 85 L 402 85 L 407 82 L 411 77 L 411 70 L 410 67 L 406 61 L 399 56 Z M 407 39 L 401 37 L 396 37 L 395 36 L 391 36 L 390 37 L 387 37 L 381 39 L 374 43 L 366 51 L 366 54 L 363 57 L 361 57 L 356 54 L 350 52 L 347 52 L 342 50 L 338 50 L 337 49 L 321 49 L 320 50 L 318 48 L 318 46 L 320 43 L 320 40 L 319 39 L 313 40 L 302 49 L 288 41 L 285 41 L 283 43 L 283 45 L 285 48 L 285 51 L 283 53 L 280 52 L 265 52 L 261 57 L 247 61 L 237 68 L 235 68 L 233 66 L 231 60 L 224 54 L 217 51 L 206 51 L 205 52 L 199 53 L 192 57 L 185 64 L 181 71 L 179 77 L 179 90 L 181 96 L 184 101 L 189 106 L 197 111 L 197 115 L 194 119 L 187 134 L 187 144 L 181 149 L 175 156 L 175 159 L 176 160 L 181 160 L 183 162 L 176 175 L 176 179 L 177 180 L 182 180 L 183 181 L 179 192 L 179 201 L 181 203 L 183 202 L 186 202 L 187 203 L 187 206 L 186 207 L 186 218 L 187 219 L 188 225 L 190 227 L 192 227 L 195 224 L 198 228 L 198 231 L 202 241 L 204 243 L 206 243 L 206 242 L 209 240 L 214 248 L 219 253 L 227 258 L 233 264 L 233 265 L 231 267 L 223 267 L 221 269 L 221 275 L 220 277 L 212 285 L 208 287 L 205 290 L 209 295 L 204 300 L 188 309 L 190 311 L 194 311 L 196 314 L 193 317 L 183 322 L 181 324 L 182 329 L 180 331 L 179 335 L 175 339 L 169 341 L 171 344 L 170 346 L 165 349 L 163 349 L 151 357 L 146 362 L 142 364 L 136 370 L 131 373 L 116 387 L 109 390 L 89 391 L 80 394 L 77 397 L 75 401 L 75 404 L 76 406 L 83 412 L 84 415 L 80 418 L 76 418 L 68 421 L 64 425 L 63 427 L 63 431 L 65 433 L 68 434 L 83 434 L 84 433 L 87 433 L 89 435 L 86 438 L 71 445 L 66 450 L 64 455 L 64 462 L 67 464 L 72 464 L 76 462 L 81 462 L 87 460 L 92 460 L 93 462 L 86 467 L 80 474 L 81 478 L 84 481 L 92 481 L 93 480 L 96 480 L 101 478 L 106 474 L 108 474 L 109 475 L 110 485 L 112 487 L 119 487 L 135 479 L 158 454 L 177 445 L 180 442 L 181 432 L 184 425 L 186 423 L 184 417 L 184 412 L 187 404 L 192 397 L 192 394 L 191 393 L 191 385 L 196 373 L 196 371 L 192 364 L 192 355 L 196 346 L 199 342 L 199 338 L 198 337 L 199 332 L 207 324 L 209 323 L 212 324 L 212 328 L 209 333 L 208 343 L 202 355 L 202 357 L 205 358 L 207 360 L 207 366 L 206 367 L 205 375 L 200 384 L 199 389 L 200 390 L 202 389 L 204 392 L 193 410 L 193 412 L 194 413 L 197 413 L 199 416 L 193 427 L 191 435 L 189 438 L 189 443 L 192 443 L 194 441 L 196 442 L 196 446 L 193 455 L 192 472 L 193 473 L 196 471 L 198 472 L 198 493 L 200 496 L 202 495 L 205 496 L 205 500 L 207 506 L 215 518 L 218 524 L 218 526 L 215 528 L 212 525 L 209 525 L 201 539 L 202 541 L 204 541 L 206 543 L 206 546 L 199 562 L 197 572 L 200 573 L 203 571 L 205 573 L 201 587 L 206 591 L 207 603 L 208 604 L 209 611 L 212 617 L 212 619 L 216 623 L 220 625 L 234 626 L 235 627 L 241 628 L 243 629 L 244 631 L 243 632 L 240 632 L 234 630 L 225 630 L 224 629 L 209 630 L 208 631 L 202 632 L 193 637 L 187 646 L 187 649 L 185 654 L 185 661 L 186 664 L 191 669 L 194 668 L 194 659 L 195 656 L 201 649 L 203 649 L 205 651 L 202 658 L 202 663 L 201 664 L 202 671 L 205 673 L 209 673 L 210 674 L 218 674 L 219 673 L 219 662 L 222 655 L 226 652 L 229 654 L 229 657 L 227 662 L 227 666 L 226 667 L 226 672 L 228 675 L 232 675 L 233 676 L 258 676 L 259 675 L 284 674 L 285 673 L 292 673 L 293 672 L 303 671 L 312 668 L 316 664 L 317 658 L 318 657 L 318 646 L 317 645 L 317 641 L 316 640 L 315 634 L 317 632 L 318 633 L 320 632 L 320 622 L 319 621 L 319 616 L 318 615 L 318 611 L 316 605 L 318 603 L 320 605 L 323 605 L 324 604 L 323 593 L 326 587 L 327 582 L 325 580 L 304 573 L 302 571 L 302 568 L 305 567 L 306 568 L 310 568 L 311 569 L 315 569 L 321 571 L 326 571 L 327 572 L 344 573 L 345 572 L 345 564 L 346 563 L 346 555 L 347 554 L 347 551 L 350 544 L 353 541 L 356 543 L 355 571 L 356 572 L 356 586 L 358 589 L 358 591 L 359 593 L 365 598 L 368 604 L 378 614 L 395 624 L 410 629 L 413 629 L 417 632 L 413 637 L 413 639 L 411 641 L 411 643 L 409 645 L 408 648 L 408 660 L 418 671 L 427 672 L 428 673 L 439 673 L 440 670 L 438 665 L 438 655 L 440 653 L 442 653 L 446 657 L 449 666 L 449 669 L 450 670 L 460 670 L 466 668 L 470 665 L 470 662 L 468 659 L 468 650 L 470 646 L 473 643 L 477 643 L 479 645 L 480 648 L 480 655 L 482 658 L 484 657 L 491 649 L 492 646 L 496 641 L 501 630 L 502 624 L 505 617 L 505 611 L 506 610 L 506 588 L 505 587 L 504 580 L 501 574 L 497 570 L 490 567 L 488 565 L 481 563 L 466 549 L 467 542 L 461 532 L 461 530 L 464 527 L 467 526 L 470 522 L 473 516 L 475 507 L 482 494 L 486 482 L 487 466 L 492 459 L 492 451 L 489 453 L 488 457 L 481 468 L 455 495 L 451 498 L 442 502 L 439 502 L 438 503 L 426 503 L 425 502 L 419 502 L 418 501 L 413 501 L 412 500 L 407 500 L 406 499 L 399 498 L 389 492 L 383 486 L 380 485 L 372 476 L 370 470 L 370 461 L 362 452 L 361 444 L 360 443 L 361 434 L 363 429 L 371 418 L 378 411 L 379 408 L 381 406 L 384 397 L 384 394 L 387 387 L 388 380 L 389 379 L 389 374 L 390 373 L 390 359 L 384 347 L 378 338 L 378 335 L 377 334 L 379 332 L 396 352 L 398 352 L 400 349 L 404 346 L 406 348 L 406 351 L 402 363 L 402 367 L 401 368 L 399 381 L 397 385 L 397 388 L 395 392 L 395 395 L 391 407 L 387 415 L 383 418 L 373 429 L 370 436 L 370 445 L 373 449 L 376 449 L 384 442 L 387 443 L 386 450 L 378 464 L 379 471 L 385 476 L 392 478 L 404 468 L 405 469 L 405 476 L 403 480 L 403 486 L 405 488 L 408 489 L 420 489 L 426 482 L 426 480 L 429 474 L 432 472 L 434 474 L 434 477 L 433 478 L 433 483 L 431 487 L 431 490 L 432 491 L 437 491 L 448 486 L 463 473 L 473 459 L 473 457 L 476 451 L 476 431 L 479 428 L 481 430 L 483 436 L 485 437 L 487 435 L 487 433 L 489 430 L 489 405 L 488 402 L 490 400 L 496 405 L 498 401 L 497 388 L 495 383 L 494 375 L 496 373 L 502 379 L 504 377 L 503 368 L 500 363 L 500 361 L 498 359 L 491 346 L 492 343 L 501 347 L 502 344 L 499 339 L 492 332 L 492 331 L 477 316 L 478 314 L 480 315 L 486 315 L 487 313 L 481 307 L 466 297 L 463 294 L 465 292 L 469 292 L 470 290 L 468 288 L 459 284 L 453 279 L 455 277 L 460 277 L 461 275 L 457 271 L 445 263 L 433 257 L 434 255 L 440 254 L 440 252 L 431 247 L 422 244 L 420 242 L 420 239 L 415 235 L 420 223 L 420 217 L 422 215 L 424 217 L 427 217 L 429 213 L 429 199 L 428 197 L 431 196 L 434 199 L 437 198 L 437 190 L 435 184 L 431 177 L 431 175 L 432 174 L 435 174 L 438 176 L 440 176 L 442 173 L 437 163 L 428 153 L 429 151 L 438 151 L 439 150 L 439 147 L 434 142 L 427 138 L 424 135 L 426 133 L 428 133 L 429 130 L 423 122 L 420 116 L 420 114 L 418 112 L 418 110 L 416 108 L 411 98 L 423 88 L 429 76 L 429 66 L 428 65 L 428 62 L 425 55 L 422 51 L 414 43 Z M 463 613 L 457 618 L 455 618 L 441 625 L 439 624 L 441 621 L 457 612 L 461 611 Z M 86 470 L 88 471 L 89 478 L 87 480 L 84 480 L 82 478 L 82 474 Z M 78 443 L 79 445 L 71 454 L 72 461 L 70 463 L 67 463 L 64 460 L 66 452 L 70 447 Z M 402 38 L 414 44 L 422 52 L 428 64 L 428 77 L 426 82 L 424 84 L 423 87 L 417 93 L 412 95 L 410 97 L 410 99 L 413 102 L 422 120 L 422 122 L 428 130 L 425 132 L 423 135 L 427 139 L 433 142 L 438 147 L 436 150 L 427 150 L 426 153 L 435 162 L 441 172 L 439 175 L 432 172 L 430 173 L 430 176 L 435 186 L 437 196 L 434 198 L 430 194 L 427 195 L 428 197 L 428 214 L 426 216 L 423 214 L 420 214 L 419 216 L 419 224 L 414 234 L 413 239 L 418 243 L 420 243 L 435 250 L 437 252 L 436 254 L 430 254 L 429 255 L 432 258 L 438 261 L 440 261 L 447 265 L 459 274 L 457 277 L 455 276 L 451 276 L 450 278 L 456 283 L 466 288 L 467 291 L 466 292 L 462 292 L 461 294 L 473 302 L 485 312 L 484 315 L 478 313 L 475 313 L 474 315 L 490 330 L 500 342 L 499 345 L 490 341 L 489 344 L 501 365 L 501 367 L 503 370 L 503 375 L 501 376 L 495 371 L 493 373 L 494 375 L 494 381 L 496 386 L 496 391 L 497 392 L 497 401 L 494 402 L 491 399 L 489 398 L 488 399 L 488 412 L 489 413 L 489 425 L 488 426 L 488 429 L 486 431 L 483 431 L 479 426 L 476 428 L 476 431 L 475 432 L 475 452 L 467 467 L 450 483 L 442 488 L 436 490 L 433 488 L 434 477 L 435 476 L 435 472 L 433 470 L 430 470 L 428 472 L 426 479 L 423 485 L 420 488 L 417 488 L 416 489 L 408 488 L 404 485 L 404 480 L 407 472 L 407 466 L 406 465 L 403 465 L 399 470 L 392 476 L 387 476 L 383 474 L 379 469 L 379 464 L 387 449 L 388 440 L 384 440 L 377 447 L 374 447 L 371 444 L 371 435 L 373 432 L 373 430 L 376 426 L 387 416 L 388 413 L 390 411 L 395 396 L 395 393 L 398 386 L 398 383 L 401 374 L 401 370 L 402 369 L 402 365 L 403 364 L 403 360 L 407 348 L 407 345 L 405 344 L 397 351 L 391 345 L 379 330 L 376 330 L 377 337 L 380 343 L 384 348 L 390 362 L 389 375 L 388 376 L 388 380 L 385 388 L 385 391 L 383 394 L 382 402 L 375 413 L 369 419 L 361 432 L 361 435 L 360 436 L 360 447 L 362 453 L 369 461 L 370 474 L 374 481 L 386 492 L 391 494 L 396 498 L 405 501 L 413 502 L 414 503 L 420 503 L 421 504 L 437 504 L 438 503 L 443 503 L 446 501 L 448 501 L 455 497 L 468 485 L 469 485 L 473 481 L 479 472 L 485 466 L 487 467 L 486 468 L 486 476 L 485 477 L 485 482 L 483 485 L 483 489 L 475 504 L 473 513 L 471 515 L 469 521 L 466 524 L 459 527 L 458 530 L 461 536 L 460 544 L 464 548 L 465 552 L 473 557 L 479 564 L 489 567 L 496 571 L 501 576 L 504 582 L 505 594 L 506 595 L 506 606 L 505 607 L 505 613 L 504 614 L 504 618 L 503 619 L 503 622 L 501 628 L 498 633 L 496 639 L 494 641 L 490 649 L 484 655 L 481 651 L 481 648 L 478 642 L 473 642 L 469 646 L 467 650 L 468 665 L 465 668 L 462 668 L 461 669 L 452 669 L 449 665 L 447 657 L 445 654 L 442 652 L 439 652 L 437 656 L 437 663 L 438 664 L 438 671 L 437 672 L 432 672 L 427 667 L 421 655 L 418 656 L 419 667 L 417 668 L 410 662 L 409 660 L 409 655 L 408 654 L 409 652 L 409 648 L 416 636 L 422 631 L 439 627 L 455 619 L 457 619 L 459 617 L 462 616 L 464 614 L 465 611 L 464 610 L 461 610 L 455 612 L 435 623 L 431 627 L 425 629 L 413 629 L 412 628 L 408 628 L 399 624 L 397 624 L 385 618 L 368 602 L 364 593 L 362 592 L 357 586 L 357 579 L 356 578 L 356 541 L 353 539 L 349 544 L 346 551 L 346 555 L 345 556 L 345 566 L 343 572 L 331 572 L 330 571 L 325 571 L 324 570 L 320 570 L 319 569 L 315 569 L 309 567 L 301 567 L 300 568 L 300 570 L 303 573 L 312 577 L 323 580 L 326 583 L 322 593 L 323 602 L 321 604 L 317 601 L 315 602 L 315 605 L 318 614 L 318 619 L 319 620 L 319 629 L 317 631 L 316 630 L 314 631 L 314 635 L 317 644 L 317 659 L 315 663 L 310 668 L 304 670 L 300 670 L 299 671 L 288 672 L 287 673 L 277 673 L 276 674 L 268 674 L 267 675 L 230 675 L 227 672 L 227 664 L 228 663 L 228 660 L 230 654 L 228 652 L 224 652 L 221 655 L 219 660 L 219 663 L 218 664 L 218 672 L 216 674 L 214 673 L 208 673 L 207 672 L 204 672 L 202 670 L 202 660 L 205 653 L 205 649 L 204 648 L 201 648 L 196 653 L 194 658 L 194 666 L 191 668 L 186 662 L 186 652 L 189 643 L 195 636 L 198 635 L 200 633 L 206 631 L 209 631 L 210 630 L 231 630 L 232 631 L 237 631 L 242 633 L 246 633 L 247 632 L 246 630 L 236 626 L 223 625 L 217 623 L 213 619 L 208 606 L 207 595 L 206 594 L 206 588 L 202 585 L 206 571 L 205 570 L 202 570 L 200 572 L 198 570 L 198 567 L 201 558 L 203 555 L 203 553 L 207 544 L 207 541 L 203 539 L 204 534 L 210 525 L 216 530 L 219 530 L 220 529 L 220 524 L 207 504 L 204 491 L 203 490 L 201 493 L 199 492 L 199 489 L 198 488 L 198 485 L 199 484 L 199 468 L 198 467 L 195 470 L 193 469 L 193 459 L 194 458 L 194 453 L 197 444 L 197 440 L 196 439 L 192 441 L 190 440 L 190 437 L 192 434 L 193 429 L 200 415 L 200 412 L 199 411 L 196 412 L 194 410 L 205 391 L 205 389 L 202 388 L 200 386 L 205 376 L 207 368 L 210 365 L 216 352 L 214 351 L 206 357 L 203 355 L 204 351 L 208 344 L 209 334 L 212 329 L 213 323 L 212 322 L 207 323 L 199 331 L 197 336 L 198 338 L 198 342 L 192 353 L 192 359 L 191 361 L 192 362 L 192 365 L 195 370 L 195 374 L 193 377 L 190 386 L 190 393 L 191 396 L 187 402 L 187 404 L 185 406 L 183 411 L 183 420 L 184 422 L 180 431 L 179 441 L 175 445 L 169 448 L 167 448 L 153 456 L 147 465 L 132 480 L 130 481 L 127 480 L 132 472 L 132 467 L 129 465 L 120 465 L 115 473 L 115 477 L 114 479 L 119 485 L 115 487 L 113 487 L 110 484 L 110 481 L 109 480 L 110 475 L 114 467 L 114 462 L 111 460 L 103 460 L 95 467 L 92 468 L 90 467 L 97 459 L 96 444 L 94 441 L 90 441 L 88 439 L 91 435 L 91 432 L 92 431 L 92 424 L 90 421 L 85 421 L 84 422 L 76 423 L 72 425 L 68 431 L 66 431 L 64 429 L 65 425 L 72 420 L 83 418 L 87 415 L 100 415 L 103 413 L 105 413 L 110 408 L 110 404 L 105 401 L 100 401 L 99 400 L 87 400 L 85 401 L 80 407 L 78 407 L 76 405 L 76 400 L 81 394 L 86 392 L 91 392 L 92 391 L 107 391 L 117 387 L 126 378 L 138 369 L 143 364 L 147 362 L 152 357 L 166 348 L 172 346 L 175 343 L 176 339 L 180 335 L 180 333 L 185 328 L 185 326 L 183 324 L 186 321 L 194 317 L 198 313 L 197 310 L 192 310 L 191 308 L 201 303 L 211 294 L 211 292 L 207 289 L 213 284 L 217 282 L 222 277 L 224 277 L 227 275 L 224 271 L 228 268 L 232 268 L 235 264 L 241 267 L 244 267 L 243 264 L 235 256 L 232 255 L 233 258 L 231 260 L 219 252 L 211 243 L 211 241 L 208 237 L 207 237 L 205 241 L 201 238 L 199 233 L 197 222 L 195 221 L 194 224 L 192 226 L 188 223 L 187 220 L 187 201 L 185 200 L 181 202 L 179 200 L 180 191 L 184 179 L 181 178 L 179 180 L 177 178 L 177 174 L 184 162 L 184 159 L 180 159 L 178 160 L 176 158 L 176 156 L 177 154 L 188 144 L 188 139 L 187 138 L 188 133 L 194 122 L 194 120 L 198 114 L 198 110 L 190 106 L 182 97 L 179 88 L 180 75 L 184 67 L 190 60 L 198 54 L 204 52 L 208 52 L 209 51 L 218 52 L 224 55 L 230 60 L 233 65 L 233 67 L 235 69 L 237 69 L 249 61 L 255 59 L 258 59 L 259 58 L 262 58 L 263 55 L 265 53 L 285 53 L 286 52 L 286 49 L 284 46 L 284 44 L 286 42 L 288 42 L 303 50 L 311 42 L 314 40 L 318 40 L 320 42 L 316 49 L 317 51 L 319 50 L 338 50 L 339 51 L 343 51 L 344 52 L 351 53 L 361 58 L 364 58 L 366 56 L 368 50 L 377 42 L 385 38 L 389 38 L 390 37 L 398 37 L 399 38 Z M 406 29 L 402 29 L 401 28 L 388 28 L 387 29 L 382 29 L 376 31 L 374 33 L 369 35 L 359 44 L 355 44 L 354 43 L 346 42 L 345 41 L 330 40 L 327 37 L 327 35 L 323 31 L 314 31 L 311 32 L 303 38 L 300 38 L 292 33 L 285 32 L 280 34 L 277 37 L 276 42 L 274 44 L 264 44 L 241 55 L 230 46 L 224 43 L 217 42 L 216 41 L 203 42 L 202 43 L 196 44 L 188 48 L 181 54 L 174 64 L 169 79 L 169 90 L 170 91 L 171 97 L 175 105 L 186 117 L 179 130 L 177 136 L 177 142 L 167 153 L 167 162 L 170 166 L 170 170 L 168 174 L 168 182 L 172 188 L 171 194 L 170 195 L 170 201 L 172 207 L 177 212 L 177 222 L 181 230 L 185 233 L 188 233 L 192 237 L 194 243 L 200 249 L 208 252 L 215 259 L 216 262 L 210 267 L 208 270 L 207 275 L 198 284 L 196 288 L 196 291 L 184 301 L 182 308 L 174 316 L 169 325 L 166 328 L 159 331 L 157 334 L 157 337 L 150 344 L 142 350 L 139 351 L 106 379 L 87 379 L 86 380 L 79 381 L 73 384 L 64 393 L 62 398 L 62 410 L 53 419 L 51 423 L 51 434 L 54 439 L 58 443 L 53 453 L 54 464 L 57 470 L 61 473 L 66 473 L 68 474 L 71 478 L 73 485 L 78 490 L 84 492 L 91 492 L 96 490 L 101 490 L 106 497 L 111 499 L 120 499 L 129 495 L 131 495 L 141 488 L 153 476 L 156 471 L 164 463 L 174 459 L 181 454 L 184 456 L 184 466 L 183 467 L 184 477 L 186 482 L 189 485 L 190 496 L 192 501 L 199 512 L 199 517 L 200 518 L 200 522 L 198 526 L 195 529 L 191 539 L 191 544 L 193 548 L 193 551 L 188 562 L 187 573 L 189 578 L 192 582 L 192 592 L 193 593 L 193 597 L 194 598 L 195 604 L 197 607 L 197 610 L 201 618 L 201 621 L 199 623 L 195 624 L 188 628 L 181 635 L 175 647 L 174 659 L 175 660 L 175 664 L 178 670 L 183 675 L 192 679 L 195 679 L 204 682 L 220 683 L 221 684 L 269 684 L 270 683 L 283 683 L 284 682 L 298 681 L 299 680 L 312 678 L 322 673 L 326 668 L 329 659 L 329 648 L 328 647 L 328 639 L 330 636 L 330 621 L 329 620 L 329 613 L 332 609 L 332 605 L 333 604 L 333 594 L 336 585 L 338 583 L 341 583 L 345 586 L 345 590 L 351 603 L 359 612 L 360 612 L 367 619 L 383 628 L 391 634 L 394 635 L 397 638 L 398 642 L 397 643 L 397 649 L 396 650 L 396 658 L 398 664 L 402 670 L 408 676 L 422 682 L 428 682 L 429 683 L 447 683 L 448 682 L 454 682 L 459 680 L 463 680 L 479 674 L 490 666 L 500 655 L 509 639 L 510 634 L 513 628 L 515 615 L 516 614 L 516 607 L 517 606 L 517 593 L 516 592 L 515 582 L 509 569 L 504 563 L 496 558 L 493 558 L 490 556 L 485 555 L 482 552 L 481 528 L 482 527 L 483 519 L 488 509 L 490 502 L 494 498 L 498 497 L 508 491 L 516 482 L 521 473 L 521 471 L 523 468 L 524 461 L 525 460 L 525 449 L 524 448 L 524 444 L 519 433 L 513 426 L 505 422 L 503 420 L 503 417 L 508 407 L 508 401 L 509 400 L 510 389 L 514 384 L 515 381 L 515 367 L 513 361 L 514 345 L 507 333 L 497 322 L 498 314 L 496 309 L 491 303 L 481 294 L 481 291 L 482 290 L 481 285 L 471 276 L 471 272 L 470 270 L 465 265 L 459 262 L 456 259 L 456 253 L 455 251 L 449 246 L 440 242 L 435 237 L 434 233 L 431 230 L 431 228 L 435 224 L 438 217 L 438 211 L 444 206 L 447 201 L 447 188 L 446 187 L 446 184 L 449 182 L 451 179 L 451 170 L 445 158 L 449 153 L 449 146 L 446 141 L 438 134 L 437 127 L 428 110 L 426 104 L 424 102 L 427 97 L 433 91 L 438 79 L 438 63 L 437 62 L 436 55 L 431 46 L 424 39 L 416 33 Z M 404 29 L 413 33 L 415 33 L 423 39 L 431 47 L 435 54 L 437 60 L 437 64 L 438 65 L 438 77 L 432 91 L 423 100 L 423 102 L 426 106 L 434 124 L 436 126 L 437 134 L 445 141 L 449 148 L 449 152 L 444 157 L 444 159 L 448 164 L 451 171 L 451 178 L 445 183 L 445 186 L 447 191 L 447 198 L 445 203 L 438 209 L 438 214 L 437 215 L 436 221 L 430 227 L 429 230 L 439 242 L 451 248 L 455 252 L 455 259 L 464 265 L 470 271 L 471 273 L 471 277 L 480 284 L 481 286 L 481 295 L 485 298 L 496 310 L 497 312 L 497 319 L 496 320 L 497 323 L 507 334 L 514 345 L 514 351 L 512 354 L 512 358 L 515 367 L 515 381 L 511 386 L 509 392 L 508 405 L 507 406 L 507 409 L 503 415 L 503 421 L 505 423 L 511 425 L 520 435 L 524 445 L 525 458 L 524 459 L 524 463 L 521 472 L 515 482 L 504 493 L 491 499 L 488 508 L 482 520 L 481 532 L 480 533 L 481 551 L 482 554 L 486 557 L 490 557 L 503 563 L 509 570 L 514 580 L 515 587 L 516 588 L 517 603 L 516 604 L 516 612 L 515 613 L 515 619 L 514 620 L 513 627 L 509 635 L 509 637 L 500 654 L 488 667 L 480 673 L 453 682 L 424 682 L 411 677 L 408 675 L 400 666 L 397 658 L 398 638 L 393 634 L 391 634 L 379 625 L 368 619 L 360 611 L 359 611 L 351 602 L 347 594 L 345 585 L 343 583 L 337 583 L 333 593 L 333 597 L 332 598 L 333 601 L 332 608 L 328 613 L 329 622 L 330 623 L 330 634 L 329 637 L 327 639 L 328 650 L 329 651 L 328 662 L 325 669 L 320 674 L 311 678 L 307 678 L 301 680 L 289 681 L 288 682 L 279 682 L 278 683 L 261 683 L 260 684 L 229 684 L 228 683 L 214 683 L 213 682 L 207 682 L 206 681 L 202 681 L 197 679 L 193 679 L 184 675 L 178 669 L 175 662 L 175 649 L 178 641 L 182 635 L 189 628 L 194 625 L 200 623 L 202 621 L 197 606 L 195 603 L 195 600 L 193 595 L 193 581 L 188 576 L 188 572 L 187 571 L 188 563 L 193 552 L 192 536 L 201 521 L 201 516 L 199 513 L 198 509 L 191 498 L 189 484 L 186 481 L 184 476 L 184 458 L 185 457 L 184 454 L 182 453 L 173 459 L 163 463 L 157 469 L 155 473 L 147 481 L 147 482 L 133 493 L 125 497 L 122 497 L 117 499 L 113 499 L 107 497 L 101 490 L 94 490 L 93 491 L 81 491 L 74 486 L 69 474 L 62 473 L 56 468 L 54 463 L 54 450 L 58 445 L 58 442 L 54 438 L 51 433 L 51 424 L 53 420 L 63 410 L 63 406 L 62 405 L 62 398 L 63 396 L 74 384 L 85 380 L 107 379 L 119 368 L 129 361 L 137 353 L 141 350 L 146 348 L 151 343 L 156 340 L 158 338 L 158 333 L 160 331 L 165 329 L 171 323 L 175 316 L 183 308 L 183 304 L 184 302 L 190 296 L 192 296 L 195 294 L 199 283 L 207 276 L 210 268 L 216 263 L 216 260 L 209 252 L 201 249 L 194 242 L 192 235 L 190 233 L 187 233 L 181 229 L 178 224 L 178 221 L 177 220 L 177 210 L 175 209 L 171 204 L 171 199 L 170 197 L 171 196 L 172 187 L 168 181 L 168 175 L 171 169 L 171 166 L 167 161 L 167 155 L 169 151 L 178 143 L 178 135 L 179 134 L 179 131 L 187 118 L 187 116 L 178 108 L 173 101 L 171 97 L 170 88 L 169 87 L 170 75 L 174 67 L 174 65 L 178 59 L 191 47 L 206 42 L 218 42 L 219 43 L 222 43 L 230 47 L 239 55 L 242 55 L 263 45 L 268 45 L 269 44 L 275 45 L 276 44 L 276 40 L 277 38 L 283 33 L 290 33 L 301 39 L 303 39 L 310 33 L 312 33 L 315 31 L 322 31 L 327 36 L 327 39 L 329 41 L 341 41 L 342 42 L 352 43 L 356 45 L 360 45 L 370 35 L 378 31 L 384 30 L 385 29 L 393 29 L 394 28 Z" fill="#B1B1B1" fill-rule="evenodd"/><path d="M 462 613 L 461 612 L 457 613 L 444 620 L 442 622 L 441 622 L 440 624 L 444 623 L 455 617 L 457 617 Z M 220 151 L 219 153 L 219 156 L 218 157 L 218 161 L 217 162 L 217 168 L 218 169 L 218 172 L 221 177 L 225 181 L 233 185 L 236 188 L 237 197 L 238 198 L 240 206 L 244 214 L 246 216 L 247 219 L 249 221 L 251 225 L 261 236 L 262 236 L 267 240 L 269 239 L 264 233 L 260 226 L 260 218 L 262 214 L 268 207 L 269 207 L 276 201 L 282 198 L 284 198 L 285 197 L 289 197 L 290 196 L 302 198 L 307 201 L 312 207 L 312 209 L 313 210 L 312 216 L 311 217 L 309 224 L 305 229 L 305 232 L 308 229 L 314 218 L 314 216 L 315 215 L 315 213 L 316 212 L 316 210 L 319 203 L 320 193 L 321 192 L 321 173 L 320 172 L 319 166 L 317 164 L 314 167 L 314 168 L 306 175 L 302 177 L 300 177 L 297 179 L 295 179 L 291 181 L 288 181 L 287 182 L 272 182 L 271 181 L 267 181 L 266 180 L 260 179 L 259 178 L 256 178 L 255 177 L 249 177 L 243 181 L 241 181 L 240 182 L 236 182 L 235 181 L 230 180 L 223 173 L 222 171 L 222 168 L 221 167 L 221 161 L 222 160 L 223 151 L 222 150 Z M 229 144 L 229 150 L 233 157 L 238 162 L 245 165 L 256 165 L 257 164 L 260 164 L 263 162 L 265 162 L 270 159 L 276 153 L 277 151 L 277 144 L 272 139 L 265 136 L 262 136 L 261 135 L 246 135 L 245 136 L 242 136 L 241 137 L 234 139 L 232 141 L 231 141 Z M 239 115 L 235 115 L 232 118 L 229 124 L 229 126 L 228 127 L 228 134 L 231 136 L 237 133 L 239 131 L 242 125 L 242 120 L 241 119 L 241 117 Z M 318 114 L 315 117 L 314 121 L 313 122 L 313 132 L 314 133 L 314 135 L 317 138 L 323 138 L 325 136 L 327 132 L 327 130 L 328 129 L 328 124 L 327 123 L 326 117 L 323 114 Z M 250 79 L 249 78 L 243 78 L 234 85 L 233 87 L 233 90 L 235 91 L 241 86 L 247 83 L 249 83 L 250 82 Z M 318 73 L 318 76 L 327 78 L 336 83 L 338 82 L 338 77 L 335 74 L 331 72 L 328 72 L 327 71 L 321 71 Z M 404 30 L 394 29 L 393 30 L 385 30 L 384 31 L 378 32 L 370 36 L 360 46 L 356 46 L 352 44 L 342 43 L 341 42 L 329 42 L 326 39 L 326 36 L 322 32 L 315 32 L 312 34 L 310 34 L 303 40 L 301 40 L 297 38 L 295 36 L 291 35 L 290 34 L 283 34 L 278 38 L 277 40 L 277 44 L 275 46 L 272 46 L 271 45 L 269 45 L 268 46 L 263 46 L 254 51 L 252 51 L 242 56 L 239 56 L 230 48 L 222 44 L 219 44 L 218 43 L 206 43 L 205 44 L 201 44 L 200 45 L 198 45 L 195 47 L 191 48 L 179 59 L 179 60 L 175 65 L 175 67 L 171 75 L 170 87 L 171 88 L 171 93 L 172 94 L 172 97 L 174 101 L 179 107 L 179 108 L 188 116 L 188 118 L 180 131 L 180 134 L 179 135 L 179 143 L 170 151 L 168 155 L 168 161 L 172 166 L 172 169 L 169 175 L 169 181 L 171 185 L 173 187 L 173 191 L 172 192 L 172 196 L 171 197 L 172 199 L 172 204 L 174 206 L 174 207 L 178 210 L 178 220 L 179 221 L 179 224 L 182 229 L 187 232 L 190 232 L 193 235 L 195 242 L 201 248 L 209 251 L 217 260 L 217 263 L 211 268 L 208 276 L 200 283 L 196 294 L 194 296 L 190 297 L 185 302 L 184 304 L 184 308 L 176 316 L 176 317 L 173 320 L 172 323 L 165 330 L 159 333 L 159 338 L 156 341 L 151 344 L 146 349 L 141 351 L 138 354 L 137 354 L 129 362 L 128 362 L 120 369 L 119 369 L 110 378 L 109 378 L 107 380 L 85 381 L 84 382 L 81 382 L 74 385 L 66 393 L 63 398 L 63 405 L 64 406 L 64 410 L 54 420 L 52 424 L 52 433 L 55 438 L 59 442 L 59 445 L 55 450 L 55 463 L 56 464 L 57 468 L 62 472 L 66 472 L 67 473 L 69 473 L 71 475 L 72 480 L 75 486 L 81 490 L 93 490 L 94 489 L 101 489 L 107 496 L 109 497 L 112 497 L 113 498 L 117 498 L 118 497 L 125 496 L 133 492 L 139 487 L 140 487 L 144 483 L 145 483 L 146 481 L 154 473 L 156 469 L 163 462 L 167 461 L 173 458 L 175 456 L 182 452 L 183 452 L 185 454 L 186 456 L 185 458 L 185 476 L 186 477 L 187 481 L 190 484 L 190 488 L 191 489 L 191 494 L 192 495 L 192 498 L 194 502 L 196 504 L 197 507 L 199 509 L 200 513 L 202 516 L 202 521 L 193 536 L 193 545 L 194 546 L 194 552 L 189 563 L 189 568 L 188 569 L 188 571 L 189 572 L 189 576 L 194 581 L 194 595 L 195 596 L 196 603 L 198 606 L 198 608 L 199 609 L 199 611 L 200 612 L 200 614 L 202 617 L 203 621 L 200 624 L 196 626 L 194 626 L 189 629 L 183 635 L 183 636 L 179 641 L 177 648 L 176 649 L 176 662 L 179 669 L 184 674 L 188 676 L 190 676 L 193 678 L 197 678 L 198 679 L 206 680 L 207 681 L 213 681 L 214 682 L 228 682 L 229 683 L 260 683 L 261 682 L 278 682 L 279 681 L 288 681 L 289 680 L 295 680 L 296 679 L 301 679 L 302 678 L 311 677 L 320 673 L 324 669 L 327 662 L 328 651 L 327 650 L 326 639 L 328 637 L 328 635 L 329 634 L 329 623 L 328 622 L 328 617 L 327 616 L 327 613 L 331 608 L 331 604 L 332 603 L 332 601 L 331 600 L 331 598 L 332 597 L 332 593 L 333 592 L 335 584 L 337 582 L 343 582 L 346 585 L 348 594 L 352 602 L 359 610 L 360 610 L 368 618 L 369 618 L 374 622 L 379 624 L 381 626 L 388 630 L 391 633 L 393 633 L 399 638 L 399 648 L 398 649 L 398 658 L 399 659 L 399 662 L 401 666 L 408 674 L 420 680 L 423 680 L 424 681 L 453 681 L 454 680 L 461 679 L 462 678 L 464 678 L 465 677 L 467 677 L 468 676 L 470 676 L 471 675 L 473 675 L 480 672 L 487 666 L 488 666 L 499 654 L 508 637 L 508 635 L 512 627 L 512 624 L 513 623 L 513 620 L 514 619 L 514 613 L 515 612 L 515 604 L 516 603 L 515 588 L 514 587 L 514 583 L 513 582 L 513 580 L 508 570 L 503 564 L 502 564 L 500 562 L 498 562 L 490 558 L 486 558 L 481 554 L 481 552 L 480 551 L 480 540 L 479 539 L 479 533 L 480 532 L 480 525 L 481 524 L 481 520 L 487 508 L 487 506 L 490 499 L 492 497 L 504 492 L 514 482 L 520 472 L 520 470 L 522 467 L 522 464 L 523 463 L 523 459 L 524 458 L 523 445 L 522 444 L 522 442 L 519 435 L 511 426 L 507 424 L 505 424 L 502 421 L 502 415 L 506 409 L 506 406 L 507 405 L 508 392 L 509 391 L 510 386 L 514 381 L 514 367 L 513 366 L 513 363 L 512 362 L 512 359 L 511 358 L 511 354 L 513 351 L 513 345 L 506 334 L 496 323 L 495 321 L 496 319 L 496 312 L 495 310 L 491 306 L 491 305 L 480 295 L 480 286 L 479 284 L 470 277 L 470 273 L 469 271 L 464 266 L 457 262 L 454 259 L 454 252 L 451 249 L 439 243 L 434 238 L 433 235 L 428 230 L 429 227 L 435 221 L 436 215 L 437 214 L 437 209 L 444 203 L 445 199 L 446 198 L 446 191 L 445 190 L 444 183 L 450 178 L 450 171 L 447 164 L 443 159 L 443 157 L 448 152 L 448 148 L 447 147 L 447 145 L 444 142 L 444 141 L 442 140 L 436 134 L 436 129 L 435 128 L 435 126 L 433 124 L 431 120 L 431 118 L 425 106 L 422 102 L 422 100 L 431 91 L 437 77 L 437 65 L 436 64 L 436 60 L 435 59 L 434 54 L 430 47 L 423 40 L 422 40 L 415 34 L 413 34 L 410 32 L 408 32 Z M 505 432 L 508 435 L 508 438 L 509 440 L 514 446 L 515 454 L 514 455 L 514 460 L 513 461 L 513 464 L 510 471 L 504 479 L 503 482 L 498 487 L 497 487 L 495 485 L 495 480 L 496 479 L 496 477 L 497 476 L 497 472 L 498 471 L 498 450 L 497 449 L 497 443 L 499 440 L 500 435 L 503 432 Z M 407 38 L 414 42 L 423 51 L 423 52 L 426 55 L 429 62 L 429 65 L 430 66 L 430 76 L 429 77 L 429 79 L 424 88 L 418 94 L 417 94 L 412 98 L 417 108 L 419 110 L 419 112 L 421 114 L 421 116 L 424 122 L 430 130 L 430 132 L 428 134 L 426 134 L 425 135 L 427 137 L 434 141 L 440 147 L 440 150 L 438 152 L 429 152 L 429 153 L 438 163 L 443 173 L 443 174 L 440 177 L 438 177 L 435 175 L 432 175 L 432 177 L 436 184 L 436 186 L 438 190 L 438 198 L 436 200 L 434 200 L 431 197 L 429 197 L 430 199 L 430 213 L 429 214 L 429 216 L 427 218 L 424 218 L 422 216 L 421 217 L 421 223 L 416 235 L 421 239 L 421 242 L 422 243 L 426 244 L 429 246 L 431 246 L 439 250 L 441 252 L 441 254 L 440 255 L 434 256 L 434 257 L 445 262 L 447 264 L 457 270 L 462 275 L 462 276 L 460 278 L 455 278 L 454 279 L 459 283 L 468 287 L 471 290 L 471 291 L 469 293 L 465 293 L 464 294 L 466 296 L 473 300 L 480 306 L 481 306 L 488 313 L 488 314 L 486 316 L 480 316 L 479 315 L 478 315 L 478 316 L 493 331 L 493 332 L 500 339 L 503 344 L 503 346 L 501 348 L 493 344 L 492 344 L 492 346 L 495 352 L 497 354 L 499 359 L 501 361 L 501 363 L 504 368 L 504 371 L 505 372 L 505 377 L 502 380 L 496 374 L 495 375 L 496 383 L 497 384 L 497 387 L 498 388 L 499 401 L 498 402 L 498 404 L 496 406 L 495 406 L 490 401 L 489 402 L 489 404 L 490 405 L 490 430 L 488 433 L 488 435 L 485 438 L 484 438 L 482 436 L 479 429 L 477 431 L 477 451 L 474 457 L 474 459 L 472 461 L 469 467 L 464 472 L 464 473 L 448 487 L 437 492 L 432 492 L 430 490 L 430 487 L 432 483 L 432 478 L 433 477 L 433 474 L 432 473 L 430 474 L 427 480 L 427 482 L 425 484 L 425 485 L 420 490 L 408 490 L 407 489 L 405 489 L 402 486 L 402 480 L 404 476 L 404 469 L 403 469 L 394 478 L 392 479 L 385 477 L 378 471 L 378 469 L 377 468 L 377 464 L 385 450 L 386 443 L 384 443 L 378 449 L 376 450 L 373 450 L 369 445 L 369 436 L 372 429 L 374 427 L 374 426 L 383 417 L 384 417 L 386 415 L 390 407 L 390 405 L 391 404 L 391 402 L 394 395 L 394 392 L 396 388 L 396 385 L 398 381 L 399 373 L 400 372 L 400 368 L 401 367 L 401 363 L 402 362 L 402 359 L 403 358 L 404 352 L 405 351 L 405 348 L 404 347 L 402 348 L 398 353 L 396 353 L 379 333 L 378 334 L 379 335 L 379 338 L 381 342 L 385 347 L 391 359 L 391 373 L 390 374 L 390 379 L 389 380 L 388 387 L 385 394 L 385 397 L 384 398 L 382 406 L 380 408 L 379 411 L 372 418 L 372 419 L 368 423 L 368 424 L 364 429 L 363 433 L 362 434 L 361 443 L 362 444 L 362 449 L 363 450 L 363 452 L 371 461 L 371 470 L 372 471 L 373 476 L 380 484 L 383 485 L 389 491 L 399 497 L 401 497 L 402 498 L 406 498 L 407 499 L 412 499 L 413 500 L 418 500 L 419 501 L 425 501 L 426 502 L 438 502 L 439 501 L 442 501 L 445 499 L 447 499 L 451 497 L 454 494 L 455 494 L 480 468 L 480 467 L 483 464 L 485 459 L 487 457 L 488 453 L 491 450 L 493 451 L 493 459 L 488 466 L 487 482 L 486 483 L 483 494 L 476 507 L 475 513 L 471 522 L 467 527 L 464 528 L 462 530 L 462 532 L 468 542 L 467 549 L 469 551 L 470 551 L 481 562 L 488 564 L 490 566 L 497 569 L 502 574 L 505 580 L 505 582 L 506 583 L 506 587 L 507 588 L 507 610 L 506 611 L 506 617 L 503 624 L 502 630 L 500 633 L 500 635 L 497 641 L 493 646 L 492 649 L 484 658 L 482 659 L 480 657 L 479 655 L 479 648 L 477 644 L 473 644 L 471 646 L 469 650 L 469 659 L 471 662 L 471 665 L 468 668 L 461 670 L 460 671 L 450 671 L 448 669 L 448 666 L 447 665 L 445 657 L 442 654 L 440 654 L 439 655 L 439 665 L 440 666 L 441 672 L 439 674 L 428 674 L 427 673 L 422 673 L 421 672 L 418 672 L 408 662 L 407 660 L 407 648 L 408 647 L 408 645 L 410 643 L 410 641 L 412 639 L 412 637 L 416 633 L 416 632 L 413 630 L 410 630 L 409 629 L 403 628 L 397 625 L 395 625 L 387 621 L 385 619 L 378 615 L 367 604 L 364 598 L 358 593 L 357 589 L 355 586 L 355 572 L 354 571 L 355 543 L 353 542 L 351 544 L 348 551 L 348 554 L 347 555 L 347 563 L 346 564 L 346 572 L 344 574 L 334 574 L 333 573 L 327 573 L 326 572 L 321 572 L 320 571 L 316 571 L 315 570 L 311 570 L 310 569 L 306 569 L 305 568 L 303 568 L 303 571 L 308 574 L 310 574 L 311 575 L 325 579 L 328 582 L 327 587 L 324 593 L 325 604 L 323 606 L 320 606 L 318 604 L 317 605 L 318 606 L 318 610 L 319 611 L 319 615 L 320 616 L 320 621 L 321 622 L 321 632 L 319 634 L 317 633 L 316 634 L 317 640 L 318 641 L 318 645 L 319 646 L 319 657 L 318 658 L 317 664 L 312 669 L 310 669 L 303 672 L 293 673 L 292 674 L 285 674 L 284 675 L 275 675 L 274 676 L 259 676 L 258 677 L 233 677 L 232 676 L 228 676 L 225 672 L 225 667 L 226 666 L 226 662 L 227 661 L 227 658 L 228 657 L 228 654 L 226 653 L 223 655 L 220 662 L 220 673 L 218 675 L 210 675 L 209 674 L 205 674 L 201 671 L 200 664 L 201 663 L 201 658 L 204 651 L 203 650 L 201 650 L 196 656 L 196 658 L 195 659 L 195 668 L 193 670 L 191 670 L 185 664 L 185 662 L 184 661 L 184 654 L 185 653 L 186 646 L 190 639 L 193 636 L 205 630 L 208 630 L 209 629 L 217 629 L 218 628 L 224 628 L 225 629 L 234 629 L 235 630 L 243 631 L 243 630 L 241 629 L 235 628 L 234 627 L 220 626 L 216 624 L 211 619 L 211 617 L 208 611 L 207 604 L 206 603 L 206 599 L 205 598 L 205 591 L 200 587 L 204 573 L 203 572 L 200 574 L 198 574 L 196 572 L 196 569 L 197 568 L 198 562 L 200 559 L 201 554 L 205 546 L 205 543 L 204 542 L 202 542 L 200 540 L 200 539 L 204 531 L 209 524 L 212 524 L 215 527 L 217 526 L 217 524 L 214 518 L 212 516 L 206 506 L 206 504 L 204 500 L 204 496 L 200 497 L 197 493 L 197 472 L 196 472 L 194 474 L 193 474 L 191 472 L 192 455 L 193 454 L 193 451 L 194 450 L 194 447 L 195 446 L 195 442 L 194 442 L 192 444 L 189 444 L 188 443 L 188 438 L 190 435 L 192 427 L 198 416 L 197 414 L 194 414 L 192 412 L 192 410 L 195 406 L 196 403 L 200 398 L 203 392 L 202 390 L 200 391 L 198 389 L 199 384 L 204 375 L 205 367 L 206 366 L 206 360 L 205 359 L 203 359 L 201 357 L 201 355 L 207 343 L 208 333 L 211 328 L 211 324 L 207 325 L 200 332 L 200 334 L 199 335 L 199 337 L 200 338 L 200 342 L 197 346 L 193 355 L 193 364 L 197 371 L 197 373 L 192 385 L 192 393 L 193 394 L 193 397 L 188 404 L 186 411 L 185 412 L 185 417 L 186 418 L 187 423 L 185 425 L 182 432 L 181 442 L 177 446 L 167 451 L 165 451 L 161 454 L 158 455 L 151 462 L 151 463 L 146 468 L 146 469 L 135 480 L 119 488 L 112 488 L 109 485 L 109 482 L 108 481 L 108 475 L 106 475 L 101 479 L 97 480 L 96 481 L 93 481 L 92 482 L 84 482 L 80 478 L 79 474 L 81 472 L 81 471 L 86 466 L 91 463 L 92 461 L 87 461 L 86 462 L 82 462 L 81 463 L 76 463 L 72 465 L 67 465 L 63 462 L 63 455 L 64 454 L 65 450 L 71 444 L 76 441 L 78 441 L 86 437 L 88 435 L 87 434 L 84 434 L 83 435 L 68 435 L 67 434 L 65 434 L 62 431 L 62 427 L 63 425 L 68 420 L 72 418 L 80 417 L 83 415 L 82 412 L 80 410 L 79 410 L 74 404 L 74 401 L 76 397 L 80 393 L 84 391 L 88 391 L 89 390 L 96 390 L 97 389 L 109 389 L 116 386 L 131 372 L 136 369 L 142 363 L 146 361 L 151 356 L 152 356 L 155 353 L 161 350 L 163 348 L 165 348 L 170 345 L 168 341 L 170 339 L 175 338 L 178 335 L 178 333 L 181 329 L 180 327 L 180 324 L 183 321 L 190 318 L 195 314 L 194 312 L 190 312 L 187 309 L 189 307 L 201 301 L 208 295 L 208 294 L 206 293 L 204 291 L 204 290 L 208 286 L 212 284 L 219 277 L 220 275 L 220 269 L 223 266 L 231 266 L 232 265 L 232 264 L 227 259 L 219 254 L 213 248 L 213 247 L 210 244 L 209 241 L 208 241 L 206 244 L 204 244 L 201 241 L 199 237 L 198 232 L 197 231 L 197 228 L 195 225 L 192 228 L 190 228 L 187 225 L 186 219 L 185 218 L 185 207 L 186 206 L 186 203 L 183 203 L 181 204 L 178 201 L 178 192 L 179 191 L 179 189 L 180 188 L 182 181 L 177 181 L 175 179 L 175 175 L 176 174 L 177 170 L 179 168 L 182 162 L 181 161 L 176 161 L 174 159 L 174 156 L 176 154 L 176 153 L 186 144 L 186 134 L 187 133 L 187 131 L 193 119 L 196 115 L 196 111 L 189 107 L 183 101 L 180 96 L 180 94 L 178 90 L 178 77 L 179 76 L 180 71 L 184 64 L 192 56 L 199 52 L 205 51 L 206 50 L 217 50 L 224 53 L 232 60 L 234 64 L 234 66 L 235 67 L 237 67 L 247 60 L 261 56 L 265 51 L 280 51 L 281 52 L 283 52 L 284 51 L 284 48 L 282 45 L 282 43 L 285 40 L 288 40 L 302 48 L 313 39 L 319 38 L 321 40 L 321 43 L 319 46 L 319 48 L 320 49 L 321 48 L 337 48 L 338 49 L 342 49 L 343 50 L 350 51 L 351 52 L 356 53 L 361 56 L 363 56 L 365 54 L 365 51 L 374 42 L 381 38 L 383 38 L 387 36 L 390 36 L 391 35 L 401 36 L 402 37 Z" fill="#010101" fill-rule="evenodd"/></svg>