<svg xmlns="http://www.w3.org/2000/svg" viewBox="0 0 653 704" shape-rendering="geometricPrecision"><title>intro frame 043</title><path d="M 502 653 L 499 649 L 490 649 L 489 650 L 479 650 L 478 651 L 473 651 L 472 652 L 459 652 L 458 653 L 446 653 L 445 654 L 442 654 L 437 658 L 436 661 L 434 663 L 433 671 L 435 672 L 443 665 L 448 665 L 450 667 L 450 680 L 451 681 L 458 682 L 459 681 L 459 677 L 462 671 L 467 667 L 471 667 L 475 672 L 475 679 L 477 681 L 479 681 L 480 679 L 480 675 L 484 673 L 486 668 L 492 663 L 494 663 L 497 660 L 499 660 L 502 657 Z M 259 616 L 252 609 L 252 608 L 248 608 L 247 607 L 242 607 L 241 608 L 202 608 L 194 613 L 191 616 L 190 620 L 193 621 L 197 625 L 198 630 L 203 635 L 205 635 L 207 633 L 207 631 L 210 625 L 213 623 L 219 624 L 226 630 L 229 629 L 242 629 L 245 627 L 247 627 L 249 625 L 252 625 L 259 618 Z M 370 540 L 369 539 L 368 540 L 366 539 L 362 544 L 365 544 Z M 342 539 L 340 539 L 337 542 L 335 542 L 335 543 L 340 542 Z M 395 513 L 394 513 L 391 517 L 391 526 L 388 534 L 390 535 L 392 532 L 394 532 L 401 524 L 405 522 L 405 520 L 402 517 L 397 515 Z M 374 511 L 372 511 L 370 513 L 361 527 L 361 531 L 363 533 L 365 533 L 367 531 L 370 530 L 377 521 L 377 514 Z M 230 476 L 229 477 L 225 477 L 221 480 L 217 481 L 209 486 L 207 486 L 205 488 L 208 493 L 208 497 L 205 500 L 198 503 L 197 507 L 194 512 L 194 514 L 191 519 L 191 521 L 189 523 L 189 525 L 186 528 L 186 530 L 189 530 L 192 533 L 192 546 L 191 547 L 192 555 L 193 556 L 194 564 L 196 567 L 197 573 L 199 575 L 199 577 L 202 580 L 203 583 L 209 589 L 210 592 L 216 597 L 223 598 L 224 599 L 232 599 L 235 601 L 237 601 L 239 599 L 242 599 L 243 596 L 245 594 L 247 594 L 254 590 L 256 587 L 256 585 L 259 583 L 260 580 L 266 576 L 267 568 L 273 564 L 274 562 L 274 557 L 277 553 L 277 550 L 278 549 L 277 542 L 280 538 L 280 530 L 283 527 L 283 524 L 278 518 L 275 520 L 272 518 L 270 514 L 270 510 L 269 508 L 243 479 L 237 476 Z M 66 176 L 62 176 L 58 180 L 59 185 L 61 187 L 62 186 L 62 181 Z M 80 149 L 87 157 L 87 159 L 90 162 L 91 167 L 90 170 L 83 177 L 81 176 L 77 176 L 76 175 L 73 175 L 73 176 L 79 179 L 83 183 L 85 187 L 86 187 L 86 184 L 94 169 L 108 156 L 111 156 L 115 154 L 125 154 L 131 156 L 135 159 L 144 170 L 146 174 L 146 184 L 144 187 L 144 189 L 135 198 L 127 202 L 122 206 L 114 210 L 108 211 L 107 212 L 98 212 L 97 211 L 94 211 L 87 203 L 85 199 L 85 193 L 84 193 L 79 199 L 75 199 L 68 195 L 66 196 L 71 201 L 77 204 L 87 214 L 94 218 L 98 222 L 102 231 L 107 236 L 108 239 L 131 265 L 135 267 L 148 279 L 154 282 L 159 286 L 163 287 L 165 289 L 173 293 L 190 297 L 193 300 L 193 303 L 191 305 L 188 306 L 188 308 L 191 308 L 192 307 L 201 307 L 206 312 L 208 312 L 211 314 L 214 314 L 215 315 L 225 314 L 228 318 L 224 323 L 219 326 L 220 327 L 225 327 L 229 329 L 237 329 L 241 321 L 244 309 L 247 305 L 246 303 L 246 299 L 248 297 L 249 293 L 253 289 L 254 282 L 259 277 L 259 273 L 261 269 L 261 266 L 256 259 L 256 257 L 250 250 L 249 251 L 249 255 L 246 257 L 235 242 L 234 242 L 232 245 L 229 245 L 226 242 L 223 236 L 222 231 L 218 225 L 217 226 L 216 232 L 214 234 L 212 234 L 206 228 L 200 219 L 200 217 L 195 209 L 194 212 L 191 214 L 183 206 L 179 200 L 169 189 L 167 185 L 159 177 L 159 169 L 162 162 L 162 157 L 163 156 L 163 144 L 161 140 L 162 151 L 160 154 L 160 156 L 157 161 L 151 166 L 147 166 L 141 161 L 139 157 L 139 154 L 142 145 L 140 145 L 137 142 L 136 137 L 135 137 L 135 145 L 134 147 L 129 151 L 124 151 L 118 148 L 113 148 L 109 144 L 108 141 L 109 149 L 107 153 L 103 157 L 93 156 L 91 158 L 89 158 L 85 153 Z M 213 295 L 211 298 L 205 300 L 202 298 L 202 296 L 204 294 L 207 293 L 210 293 L 211 292 Z M 88 121 L 88 122 L 93 123 L 98 126 L 95 122 L 93 121 Z M 441 39 L 429 39 L 428 40 L 423 40 L 420 42 L 416 43 L 409 50 L 407 53 L 407 57 L 404 60 L 401 60 L 394 57 L 390 57 L 385 55 L 379 55 L 378 54 L 364 54 L 359 56 L 355 56 L 352 53 L 352 49 L 354 45 L 349 46 L 342 53 L 338 53 L 330 48 L 325 47 L 324 48 L 325 50 L 325 54 L 322 57 L 319 58 L 313 57 L 312 58 L 305 59 L 300 64 L 298 65 L 294 65 L 290 67 L 283 73 L 285 76 L 288 76 L 291 79 L 292 81 L 292 86 L 290 88 L 283 91 L 276 97 L 273 97 L 270 94 L 270 88 L 279 77 L 278 76 L 277 77 L 272 77 L 265 67 L 257 63 L 248 63 L 234 68 L 228 73 L 225 77 L 221 88 L 221 98 L 226 108 L 232 113 L 237 114 L 242 118 L 242 122 L 233 140 L 233 147 L 234 150 L 223 163 L 223 164 L 228 164 L 231 167 L 230 172 L 227 176 L 227 178 L 224 184 L 224 186 L 227 184 L 230 184 L 233 187 L 232 192 L 230 195 L 228 205 L 230 206 L 233 204 L 235 204 L 238 207 L 237 220 L 240 226 L 245 223 L 249 227 L 249 231 L 251 234 L 254 235 L 264 246 L 270 248 L 284 256 L 287 259 L 292 267 L 292 269 L 290 271 L 286 271 L 281 267 L 275 265 L 265 276 L 264 284 L 260 288 L 262 291 L 262 294 L 254 300 L 254 303 L 257 306 L 257 308 L 251 314 L 251 316 L 253 319 L 248 333 L 248 343 L 246 345 L 244 350 L 245 351 L 249 347 L 258 344 L 261 347 L 261 352 L 253 366 L 244 372 L 235 382 L 235 385 L 238 385 L 239 384 L 242 387 L 242 389 L 238 395 L 228 406 L 228 407 L 235 406 L 237 408 L 237 412 L 225 430 L 225 433 L 229 430 L 231 430 L 233 432 L 233 437 L 230 442 L 230 445 L 228 448 L 227 454 L 228 455 L 231 452 L 234 452 L 237 456 L 238 462 L 242 467 L 248 472 L 253 479 L 263 487 L 264 486 L 263 475 L 265 471 L 269 468 L 272 471 L 272 474 L 271 475 L 271 488 L 272 489 L 272 494 L 282 505 L 283 502 L 280 498 L 280 494 L 279 493 L 280 484 L 281 482 L 287 476 L 288 476 L 290 478 L 290 489 L 288 494 L 288 507 L 290 510 L 290 513 L 292 516 L 293 520 L 296 522 L 300 517 L 303 517 L 305 519 L 305 521 L 302 524 L 302 528 L 306 532 L 310 534 L 316 535 L 323 539 L 327 538 L 329 536 L 328 533 L 325 530 L 325 526 L 329 521 L 333 521 L 336 525 L 335 526 L 336 532 L 338 532 L 352 521 L 358 512 L 366 505 L 367 497 L 364 496 L 357 499 L 353 504 L 352 508 L 349 511 L 346 518 L 344 520 L 342 520 L 340 518 L 340 511 L 341 508 L 349 499 L 352 493 L 352 486 L 351 485 L 343 485 L 341 487 L 337 495 L 337 498 L 335 501 L 335 505 L 331 509 L 327 507 L 323 515 L 316 522 L 311 522 L 309 520 L 311 514 L 319 506 L 321 505 L 326 505 L 328 498 L 333 489 L 333 480 L 331 477 L 328 476 L 326 474 L 326 471 L 328 468 L 328 465 L 331 462 L 330 458 L 326 456 L 313 446 L 311 443 L 311 441 L 307 436 L 306 432 L 298 424 L 294 417 L 294 408 L 296 404 L 296 400 L 299 397 L 300 380 L 302 376 L 312 366 L 319 364 L 322 362 L 332 361 L 335 359 L 342 357 L 349 352 L 351 352 L 356 347 L 358 347 L 364 343 L 366 343 L 368 341 L 371 341 L 374 338 L 383 335 L 384 334 L 383 331 L 384 328 L 383 327 L 383 321 L 387 317 L 390 317 L 394 319 L 399 324 L 401 324 L 404 327 L 410 328 L 411 329 L 415 329 L 418 332 L 418 335 L 411 341 L 409 341 L 407 343 L 404 343 L 401 345 L 397 346 L 395 348 L 392 348 L 389 351 L 385 351 L 382 353 L 377 354 L 371 357 L 368 360 L 362 362 L 354 368 L 345 373 L 328 376 L 323 379 L 323 381 L 330 387 L 330 390 L 326 396 L 315 406 L 314 411 L 318 415 L 322 414 L 326 411 L 332 411 L 335 414 L 335 418 L 327 430 L 327 433 L 326 434 L 328 438 L 330 437 L 336 437 L 341 435 L 343 433 L 345 433 L 348 430 L 352 430 L 354 429 L 357 432 L 362 432 L 364 434 L 360 437 L 359 439 L 360 442 L 362 443 L 367 443 L 369 441 L 373 442 L 375 440 L 383 438 L 389 435 L 399 424 L 402 424 L 403 423 L 412 423 L 420 416 L 422 412 L 425 409 L 429 409 L 432 406 L 433 408 L 435 409 L 436 408 L 435 407 L 437 405 L 443 404 L 446 401 L 450 401 L 453 397 L 457 397 L 461 393 L 466 393 L 476 382 L 479 382 L 480 381 L 480 379 L 484 375 L 484 372 L 483 371 L 485 368 L 485 366 L 487 364 L 493 364 L 494 363 L 494 349 L 492 347 L 492 344 L 491 343 L 491 333 L 489 330 L 489 325 L 490 324 L 489 320 L 465 294 L 467 291 L 471 289 L 462 283 L 456 277 L 456 271 L 454 271 L 450 268 L 443 266 L 437 261 L 433 261 L 425 264 L 419 262 L 411 269 L 410 269 L 405 263 L 399 272 L 397 272 L 395 270 L 395 266 L 397 264 L 398 261 L 411 250 L 413 246 L 415 246 L 418 249 L 420 243 L 424 239 L 428 241 L 429 239 L 429 234 L 427 230 L 430 227 L 432 227 L 434 229 L 434 222 L 438 219 L 444 219 L 444 216 L 437 208 L 439 206 L 446 206 L 449 208 L 450 206 L 448 202 L 448 199 L 450 197 L 457 197 L 452 191 L 452 188 L 454 186 L 457 186 L 457 183 L 452 178 L 451 175 L 453 173 L 457 173 L 461 175 L 465 172 L 470 174 L 474 174 L 472 168 L 477 164 L 482 165 L 481 161 L 472 152 L 471 152 L 467 147 L 467 145 L 470 142 L 476 142 L 477 141 L 474 137 L 468 135 L 463 130 L 463 127 L 465 125 L 465 123 L 462 120 L 462 118 L 453 101 L 450 99 L 446 94 L 446 92 L 448 90 L 454 87 L 459 82 L 460 78 L 463 75 L 463 72 L 464 71 L 463 60 L 460 54 L 454 47 L 449 43 Z M 263 446 L 265 448 L 264 456 L 262 459 L 262 462 L 257 466 L 255 464 L 256 453 L 258 449 L 261 446 Z M 259 430 L 261 432 L 262 436 L 250 450 L 248 450 L 246 448 L 247 441 L 255 431 Z M 258 413 L 260 415 L 259 423 L 251 432 L 249 432 L 247 430 L 249 422 L 251 420 L 252 417 L 256 413 Z M 276 386 L 277 389 L 274 391 L 273 389 L 274 387 Z M 292 373 L 294 375 L 295 381 L 294 384 L 292 386 L 288 386 L 286 383 L 282 380 L 282 379 L 284 377 L 289 377 Z M 290 356 L 290 358 L 286 362 L 282 362 L 280 361 L 278 358 L 281 355 L 287 353 Z M 336 328 L 338 327 L 340 329 L 344 329 L 346 330 L 354 337 L 355 342 L 353 344 L 351 344 L 346 341 L 345 339 L 344 339 L 343 337 L 337 332 Z M 317 323 L 317 326 L 314 329 L 309 332 L 307 332 L 305 334 L 301 334 L 298 336 L 294 336 L 291 335 L 289 333 L 289 332 L 293 329 L 297 324 L 301 322 L 309 322 L 312 320 L 314 320 Z M 390 260 L 390 263 L 387 269 L 367 287 L 368 290 L 370 289 L 374 293 L 374 297 L 375 298 L 375 300 L 373 302 L 368 302 L 367 303 L 365 303 L 362 300 L 360 300 L 358 298 L 357 295 L 343 296 L 337 293 L 335 293 L 332 290 L 328 289 L 323 284 L 321 284 L 308 272 L 308 268 L 311 265 L 318 265 L 323 267 L 330 267 L 331 268 L 346 268 L 347 267 L 353 267 L 354 266 L 363 265 L 384 258 L 388 258 Z M 373 146 L 380 138 L 390 134 L 405 134 L 414 137 L 419 140 L 424 146 L 425 154 L 422 160 L 416 164 L 414 164 L 411 166 L 398 166 L 397 165 L 387 163 L 380 159 L 374 153 Z M 295 129 L 303 123 L 311 122 L 312 121 L 317 121 L 318 122 L 324 122 L 326 124 L 328 124 L 332 128 L 332 131 L 329 134 L 327 134 L 324 132 L 319 132 L 318 131 L 304 131 L 299 133 L 297 132 Z M 277 115 L 282 115 L 287 120 L 288 123 L 288 130 L 286 135 L 287 137 L 289 136 L 297 136 L 298 135 L 305 135 L 306 136 L 313 137 L 322 143 L 324 146 L 325 151 L 322 160 L 314 168 L 301 173 L 288 173 L 287 172 L 284 172 L 281 170 L 275 164 L 272 159 L 271 159 L 271 162 L 270 163 L 270 172 L 276 180 L 280 182 L 287 182 L 291 180 L 295 176 L 301 176 L 308 179 L 316 180 L 317 181 L 323 181 L 324 182 L 327 181 L 333 181 L 338 178 L 343 177 L 349 174 L 356 167 L 358 164 L 358 162 L 360 160 L 364 161 L 369 166 L 371 172 L 371 184 L 372 185 L 371 205 L 370 206 L 369 215 L 365 224 L 365 226 L 362 230 L 362 232 L 360 235 L 348 246 L 346 246 L 344 248 L 336 251 L 326 251 L 317 248 L 311 244 L 300 233 L 293 224 L 284 209 L 282 203 L 282 200 L 281 199 L 281 196 L 278 193 L 270 189 L 263 182 L 260 176 L 259 167 L 258 167 L 258 168 L 250 175 L 245 177 L 240 177 L 234 172 L 233 170 L 233 163 L 235 158 L 244 150 L 248 148 L 253 148 L 254 147 L 260 149 L 263 152 L 270 152 L 271 147 L 273 144 L 268 138 L 268 128 L 271 121 Z M 362 109 L 368 111 L 372 115 L 374 120 L 374 125 L 375 126 L 375 129 L 372 138 L 367 142 L 361 142 L 358 141 L 354 136 L 352 131 L 352 123 L 353 122 L 353 119 L 355 115 Z M 258 77 L 263 82 L 264 86 L 251 104 L 245 110 L 243 110 L 241 109 L 233 100 L 233 97 L 232 96 L 233 87 L 237 81 L 244 76 L 252 75 Z M 358 72 L 359 70 L 364 66 L 371 67 L 373 69 L 376 69 L 382 75 L 383 77 L 383 82 L 378 86 L 372 85 L 366 81 L 362 81 L 358 77 Z M 430 50 L 437 50 L 442 52 L 450 60 L 453 67 L 453 74 L 452 77 L 448 82 L 442 86 L 439 86 L 417 68 L 417 64 L 419 60 L 425 53 L 428 52 Z" fill="#FBFBFB" fill-rule="evenodd"/><path d="M 447 666 L 449 668 L 449 683 L 452 685 L 458 684 L 460 682 L 460 677 L 461 675 L 460 677 L 460 681 L 458 683 L 451 682 L 449 680 L 449 667 Z M 445 653 L 439 654 L 435 658 L 432 663 L 431 675 L 433 679 L 436 678 L 437 672 L 443 666 L 445 666 L 441 667 L 435 673 L 432 671 L 433 663 L 435 661 L 436 658 L 440 654 Z M 395 616 L 399 622 L 412 635 L 418 639 L 424 645 L 424 649 L 420 654 L 420 656 L 417 660 L 417 663 L 416 664 L 416 676 L 416 665 L 417 664 L 417 661 L 422 652 L 425 649 L 425 645 L 410 633 L 400 623 Z M 332 578 L 325 577 L 324 576 L 323 577 L 323 587 L 319 598 L 319 605 L 313 620 L 298 634 L 276 645 L 280 644 L 282 642 L 284 642 L 288 639 L 297 635 L 304 630 L 313 621 L 316 612 L 318 609 L 319 598 L 321 596 L 321 593 L 323 590 L 324 580 L 327 577 Z M 392 564 L 392 566 L 393 566 L 397 571 L 397 574 L 395 578 L 393 580 L 390 581 L 394 587 L 394 589 L 411 614 L 425 628 L 429 630 L 437 638 L 439 638 L 442 640 L 455 641 L 456 640 L 464 640 L 465 639 L 473 639 L 474 638 L 483 638 L 484 637 L 490 637 L 491 636 L 502 636 L 505 639 L 503 642 L 499 642 L 485 648 L 476 649 L 470 651 L 462 651 L 472 651 L 473 650 L 478 650 L 479 649 L 499 648 L 503 653 L 503 657 L 499 661 L 497 661 L 494 664 L 492 664 L 487 668 L 485 673 L 483 675 L 481 675 L 481 679 L 479 682 L 477 682 L 474 679 L 474 672 L 471 668 L 467 668 L 463 671 L 465 669 L 469 668 L 473 672 L 473 683 L 474 684 L 483 684 L 485 682 L 485 674 L 486 673 L 486 670 L 487 668 L 491 665 L 496 665 L 499 668 L 499 671 L 500 672 L 498 676 L 498 679 L 499 680 L 506 679 L 512 675 L 514 675 L 528 661 L 530 656 L 533 653 L 533 651 L 537 647 L 542 634 L 542 627 L 544 623 L 544 617 L 543 616 L 542 609 L 538 602 L 533 597 L 530 595 L 528 595 L 522 590 L 518 589 L 516 592 L 517 594 L 516 600 L 519 603 L 519 605 L 511 613 L 507 613 L 504 612 L 502 610 L 502 607 L 500 605 L 497 605 L 492 602 L 487 601 L 474 587 L 469 580 L 468 577 L 466 575 L 461 574 L 457 571 L 452 565 L 451 562 L 449 560 L 449 558 L 442 553 L 426 552 L 424 554 L 421 554 L 419 556 L 404 558 L 402 560 L 397 560 Z M 436 528 L 434 532 L 434 537 L 435 538 L 437 533 L 437 529 Z M 446 506 L 445 507 L 445 510 L 441 516 L 441 525 L 442 525 L 446 520 L 446 516 L 447 515 L 447 507 Z M 241 477 L 252 487 L 256 493 L 270 508 L 271 510 L 271 514 L 273 518 L 275 519 L 278 517 L 284 524 L 284 527 L 281 530 L 281 538 L 278 542 L 279 549 L 278 550 L 278 553 L 275 557 L 275 562 L 272 566 L 268 568 L 267 576 L 264 579 L 261 580 L 260 583 L 257 585 L 257 587 L 255 590 L 251 593 L 245 595 L 244 598 L 242 600 L 239 600 L 237 602 L 235 602 L 232 600 L 228 600 L 236 602 L 238 604 L 237 606 L 234 607 L 205 607 L 241 607 L 242 606 L 252 607 L 260 616 L 260 618 L 252 626 L 249 626 L 247 628 L 245 628 L 242 630 L 229 630 L 226 631 L 219 625 L 213 624 L 211 625 L 208 631 L 208 633 L 205 636 L 203 636 L 197 630 L 196 625 L 193 622 L 191 622 L 189 620 L 190 616 L 198 609 L 201 608 L 195 611 L 190 616 L 188 622 L 188 629 L 193 625 L 196 628 L 199 634 L 203 638 L 206 638 L 207 639 L 207 642 L 208 643 L 212 643 L 212 641 L 207 637 L 207 635 L 210 628 L 214 624 L 218 625 L 221 628 L 223 634 L 223 637 L 225 639 L 234 639 L 239 636 L 251 635 L 256 633 L 260 633 L 261 632 L 268 631 L 274 629 L 286 622 L 285 620 L 286 619 L 285 618 L 279 616 L 273 611 L 271 606 L 271 602 L 272 599 L 274 597 L 273 581 L 275 577 L 279 573 L 280 565 L 285 560 L 288 559 L 289 557 L 290 549 L 288 546 L 288 541 L 291 538 L 293 538 L 294 535 L 287 528 L 285 523 L 269 507 L 269 506 L 255 491 L 254 488 L 245 479 Z M 534 475 L 532 479 L 526 485 L 519 490 L 513 497 L 521 489 L 525 487 L 527 484 L 531 481 Z M 234 473 L 224 476 L 222 478 L 203 487 L 200 490 L 206 494 L 206 497 L 204 499 L 195 503 L 193 506 L 192 515 L 184 529 L 184 530 L 190 535 L 189 537 L 189 549 L 192 557 L 193 565 L 196 574 L 202 582 L 209 594 L 213 597 L 215 597 L 209 592 L 208 589 L 202 583 L 201 580 L 198 577 L 198 575 L 196 573 L 195 567 L 193 564 L 191 551 L 190 550 L 190 547 L 191 546 L 191 533 L 189 531 L 186 531 L 185 528 L 188 525 L 188 523 L 190 521 L 190 519 L 193 514 L 193 512 L 196 507 L 197 503 L 199 501 L 201 501 L 207 497 L 207 493 L 204 488 L 207 485 L 209 485 L 211 483 L 213 483 L 225 476 L 229 476 L 230 475 L 237 475 L 239 476 Z M 378 460 L 374 461 L 374 462 L 376 464 L 378 464 Z M 522 449 L 522 456 L 524 455 L 524 450 Z M 263 447 L 261 447 L 257 453 L 257 456 L 256 457 L 256 464 L 257 465 L 261 462 L 261 459 L 263 456 L 263 452 L 264 451 L 264 448 Z M 261 452 L 262 453 L 262 456 L 261 458 L 258 460 L 257 457 L 259 453 Z M 259 431 L 255 432 L 248 441 L 248 444 L 247 445 L 247 448 L 248 449 L 250 449 L 261 436 Z M 256 434 L 258 436 L 258 438 L 252 444 L 251 444 L 250 441 Z M 502 419 L 502 425 L 505 426 L 505 423 L 503 419 Z M 258 414 L 256 414 L 250 422 L 248 428 L 249 431 L 251 431 L 258 423 L 259 420 L 259 415 Z M 292 374 L 289 378 L 284 378 L 283 379 L 288 385 L 292 385 L 293 384 L 294 378 Z M 229 443 L 228 447 L 226 450 L 226 456 L 227 457 L 233 453 L 236 457 L 236 461 L 237 463 L 254 481 L 255 481 L 266 492 L 267 492 L 276 502 L 278 503 L 278 504 L 291 517 L 291 519 L 294 524 L 298 526 L 306 535 L 312 537 L 319 541 L 327 543 L 332 547 L 339 545 L 346 540 L 348 540 L 359 535 L 361 537 L 360 541 L 358 543 L 354 543 L 352 544 L 349 547 L 349 549 L 353 549 L 354 548 L 361 549 L 362 548 L 365 548 L 369 545 L 376 544 L 378 546 L 379 552 L 380 553 L 384 553 L 386 551 L 387 548 L 391 545 L 394 539 L 398 535 L 398 533 L 403 528 L 406 528 L 411 520 L 415 516 L 417 516 L 418 517 L 418 525 L 409 542 L 410 546 L 412 546 L 416 543 L 421 537 L 421 535 L 425 528 L 425 526 L 427 524 L 429 524 L 432 521 L 432 511 L 431 510 L 431 506 L 433 503 L 433 499 L 432 498 L 430 498 L 428 500 L 420 500 L 411 511 L 401 510 L 398 507 L 397 503 L 399 501 L 403 501 L 410 495 L 408 493 L 403 491 L 398 491 L 394 488 L 392 488 L 387 485 L 373 485 L 368 482 L 366 482 L 359 476 L 357 470 L 364 465 L 366 466 L 371 466 L 371 463 L 370 462 L 368 463 L 362 463 L 359 465 L 348 466 L 345 464 L 342 464 L 337 461 L 335 461 L 328 455 L 325 454 L 318 449 L 314 445 L 308 433 L 299 424 L 298 420 L 296 417 L 296 406 L 301 395 L 301 383 L 303 377 L 308 371 L 314 367 L 323 363 L 331 362 L 326 362 L 314 366 L 303 376 L 301 380 L 300 397 L 297 400 L 297 404 L 295 408 L 295 417 L 299 424 L 307 432 L 307 434 L 312 441 L 312 443 L 314 446 L 330 457 L 332 460 L 332 462 L 329 465 L 329 468 L 327 471 L 327 474 L 331 476 L 334 480 L 334 489 L 329 498 L 327 505 L 326 506 L 321 506 L 319 507 L 312 514 L 310 520 L 311 521 L 316 521 L 322 515 L 327 506 L 331 508 L 334 505 L 334 501 L 336 498 L 336 495 L 340 487 L 343 484 L 351 484 L 353 486 L 353 493 L 350 499 L 342 508 L 341 511 L 341 518 L 342 519 L 345 518 L 348 511 L 351 508 L 352 504 L 357 498 L 364 495 L 366 495 L 368 497 L 367 505 L 359 512 L 353 521 L 338 533 L 336 533 L 334 528 L 335 525 L 333 522 L 329 522 L 326 526 L 326 530 L 329 533 L 330 536 L 327 539 L 323 540 L 316 536 L 310 535 L 306 533 L 301 528 L 301 524 L 304 521 L 304 519 L 303 518 L 300 518 L 299 520 L 295 523 L 292 520 L 291 516 L 289 513 L 289 510 L 287 507 L 287 494 L 289 489 L 289 478 L 287 477 L 281 484 L 280 493 L 281 494 L 281 498 L 284 502 L 284 504 L 282 506 L 271 494 L 271 489 L 270 488 L 270 475 L 271 474 L 271 471 L 268 469 L 264 475 L 265 486 L 263 488 L 253 480 L 247 472 L 241 467 L 237 462 L 237 459 L 234 453 L 231 453 L 228 456 L 226 454 L 226 451 L 229 445 Z M 371 540 L 365 545 L 362 545 L 361 544 L 366 538 L 367 539 L 369 538 Z M 343 539 L 343 540 L 338 544 L 335 544 L 334 543 L 335 541 L 337 541 L 340 538 Z M 364 513 L 365 516 L 358 528 L 354 532 L 346 534 L 345 532 L 351 526 L 352 526 L 359 517 Z M 395 512 L 397 514 L 402 516 L 406 520 L 406 522 L 401 525 L 394 533 L 392 533 L 392 534 L 389 536 L 387 534 L 390 526 L 390 517 L 391 515 Z M 374 510 L 378 514 L 378 521 L 375 526 L 370 531 L 367 532 L 365 534 L 363 534 L 360 531 L 360 527 L 369 513 L 372 510 Z M 392 500 L 394 502 L 394 504 L 390 510 L 389 525 L 387 530 L 383 534 L 381 532 L 378 532 L 376 529 L 383 518 L 384 515 L 384 504 L 387 500 Z M 287 484 L 288 486 L 287 487 L 287 490 L 285 492 L 283 490 L 283 487 L 285 484 Z M 268 474 L 269 475 L 269 481 L 267 483 L 265 481 L 265 477 L 266 475 Z M 376 354 L 365 359 L 345 372 L 335 373 L 334 374 L 331 374 L 322 377 L 319 380 L 317 384 L 318 385 L 326 385 L 328 387 L 328 391 L 327 393 L 314 405 L 311 410 L 311 413 L 314 414 L 316 416 L 321 415 L 318 416 L 313 411 L 313 408 L 314 406 L 325 396 L 329 390 L 329 387 L 322 381 L 322 379 L 324 377 L 332 374 L 345 372 L 354 367 L 362 361 L 368 359 L 371 356 Z M 289 356 L 287 354 L 286 355 L 283 355 L 279 358 L 280 360 L 282 361 L 286 361 L 289 358 Z M 258 345 L 249 348 L 245 352 L 243 350 L 244 348 L 243 353 L 245 355 L 245 357 L 246 357 L 247 353 L 256 346 L 259 348 L 259 352 L 257 354 L 253 362 L 243 370 L 241 374 L 235 381 L 244 371 L 252 366 L 260 352 L 260 347 Z M 337 328 L 338 332 L 342 335 L 346 340 L 351 343 L 354 342 L 353 337 L 352 337 L 346 331 L 344 330 L 340 330 Z M 316 323 L 314 321 L 312 321 L 309 323 L 301 323 L 297 325 L 295 328 L 290 332 L 290 333 L 294 335 L 298 335 L 301 333 L 305 333 L 307 331 L 309 331 L 314 328 L 316 326 Z M 410 329 L 404 328 L 401 325 L 399 325 L 394 320 L 390 318 L 387 318 L 384 321 L 384 327 L 385 328 L 384 331 L 385 334 L 383 336 L 374 339 L 372 341 L 375 339 L 385 336 L 388 333 L 388 330 L 386 328 L 386 322 L 388 320 L 395 322 L 400 327 L 399 330 L 400 332 L 403 332 L 405 330 Z M 212 295 L 211 293 L 210 294 L 207 294 L 204 295 L 203 298 L 205 299 L 211 297 Z M 460 272 L 451 268 L 454 270 L 456 270 L 457 271 L 457 277 L 462 282 L 469 286 L 472 289 L 470 291 L 467 292 L 466 294 L 488 317 L 491 323 L 490 325 L 490 330 L 492 333 L 492 343 L 493 344 L 493 347 L 495 349 L 495 363 L 493 365 L 487 365 L 486 366 L 486 368 L 484 371 L 485 372 L 485 375 L 481 379 L 481 381 L 479 383 L 476 383 L 466 394 L 461 394 L 457 398 L 453 398 L 450 402 L 446 402 L 443 405 L 437 406 L 436 407 L 437 408 L 435 410 L 434 410 L 432 407 L 429 410 L 425 410 L 421 416 L 412 424 L 403 424 L 402 425 L 399 425 L 389 436 L 383 439 L 375 441 L 373 443 L 370 442 L 367 444 L 362 444 L 360 443 L 358 439 L 359 437 L 363 434 L 362 433 L 357 433 L 354 430 L 352 431 L 348 431 L 345 434 L 343 434 L 339 437 L 328 439 L 326 437 L 325 434 L 326 433 L 326 430 L 328 428 L 328 426 L 334 418 L 334 414 L 332 412 L 326 412 L 323 414 L 326 412 L 331 412 L 333 414 L 333 417 L 325 430 L 325 438 L 328 440 L 334 440 L 340 437 L 343 434 L 345 434 L 349 431 L 352 431 L 355 434 L 355 437 L 353 441 L 349 445 L 347 450 L 348 451 L 356 451 L 360 448 L 375 443 L 391 435 L 398 429 L 400 429 L 403 432 L 402 436 L 404 436 L 407 433 L 409 429 L 423 416 L 426 416 L 427 417 L 427 420 L 425 426 L 428 427 L 430 425 L 432 425 L 437 420 L 438 417 L 446 409 L 450 407 L 454 411 L 453 414 L 454 414 L 456 411 L 456 408 L 457 407 L 456 404 L 458 403 L 459 405 L 463 403 L 476 389 L 481 392 L 479 395 L 480 396 L 477 399 L 477 403 L 479 399 L 480 399 L 481 401 L 488 391 L 487 369 L 489 367 L 493 370 L 494 374 L 496 376 L 497 380 L 498 380 L 498 376 L 497 375 L 497 359 L 498 358 L 497 356 L 497 348 L 496 347 L 496 344 L 494 341 L 494 334 L 491 331 L 491 327 L 492 326 L 491 321 L 467 295 L 467 293 L 469 291 L 472 291 L 473 292 L 474 291 L 469 286 L 465 284 L 457 277 L 457 275 L 460 273 Z M 389 260 L 388 259 L 384 259 L 363 266 L 359 266 L 353 268 L 347 268 L 346 269 L 331 269 L 330 268 L 323 268 L 318 266 L 311 266 L 309 268 L 309 272 L 321 283 L 323 283 L 328 288 L 332 289 L 335 292 L 337 292 L 343 295 L 357 294 L 359 296 L 360 299 L 362 299 L 365 302 L 367 302 L 368 301 L 373 301 L 374 298 L 373 297 L 373 293 L 370 290 L 368 291 L 366 289 L 366 287 L 386 269 L 388 266 Z M 388 262 L 388 264 L 386 267 L 373 280 L 359 291 L 350 294 L 343 294 L 337 292 L 335 290 L 333 290 L 318 280 L 309 271 L 309 268 L 311 266 L 320 267 L 326 269 L 349 269 L 350 268 L 356 268 L 360 266 L 368 265 L 383 260 L 386 260 Z M 361 231 L 358 236 L 347 245 L 341 248 L 333 249 L 332 250 L 324 249 L 314 245 L 301 233 L 311 243 L 317 247 L 326 250 L 336 250 L 342 248 L 352 242 L 359 235 Z M 160 175 L 160 177 L 168 185 L 170 189 L 180 200 L 184 206 L 191 213 L 193 212 L 193 210 L 195 208 L 198 212 L 195 208 L 190 212 L 185 207 L 169 186 L 160 177 Z M 475 166 L 473 168 L 473 170 L 475 172 L 474 175 L 470 175 L 466 173 L 463 174 L 461 176 L 457 174 L 453 174 L 452 175 L 453 178 L 458 183 L 458 186 L 453 188 L 453 191 L 458 197 L 457 198 L 450 198 L 449 199 L 449 202 L 451 206 L 449 209 L 446 207 L 439 207 L 438 208 L 445 216 L 445 219 L 444 220 L 438 220 L 435 222 L 435 229 L 434 230 L 432 228 L 430 228 L 428 230 L 430 234 L 430 239 L 429 241 L 427 242 L 424 240 L 421 243 L 420 248 L 418 250 L 415 247 L 413 247 L 412 250 L 399 261 L 398 264 L 396 266 L 396 270 L 397 271 L 400 270 L 405 262 L 410 268 L 414 266 L 419 261 L 425 263 L 429 261 L 437 260 L 440 263 L 444 265 L 442 263 L 443 261 L 442 259 L 435 259 L 427 262 L 423 262 L 421 260 L 421 255 L 422 254 L 425 254 L 429 250 L 429 248 L 433 242 L 435 242 L 437 244 L 440 244 L 452 227 L 454 227 L 456 229 L 456 232 L 458 234 L 461 231 L 465 223 L 466 210 L 469 207 L 472 210 L 474 209 L 474 195 L 473 194 L 473 190 L 475 188 L 477 188 L 480 190 L 482 189 L 480 181 L 476 173 L 474 171 L 474 167 Z M 416 254 L 418 256 L 418 259 L 412 265 L 410 263 L 410 260 L 413 256 Z M 444 211 L 446 210 L 449 214 L 447 215 Z M 269 165 L 269 172 L 271 176 L 277 182 L 279 182 L 282 184 L 288 183 L 297 177 L 304 178 L 311 181 L 323 182 L 317 182 L 316 181 L 308 180 L 301 177 L 295 177 L 291 181 L 287 183 L 280 183 L 276 181 L 269 172 Z M 360 161 L 359 163 L 360 162 L 363 162 L 368 166 L 370 172 L 370 203 L 369 204 L 368 214 L 362 229 L 364 226 L 364 224 L 368 215 L 368 211 L 370 205 L 371 185 L 370 184 L 370 172 L 369 171 L 369 168 L 364 162 Z M 58 179 L 62 175 L 66 175 L 67 176 L 63 181 L 63 186 L 61 188 L 59 186 L 61 190 L 69 201 L 81 210 L 87 216 L 93 219 L 98 224 L 101 233 L 110 250 L 111 249 L 115 250 L 129 266 L 130 266 L 143 278 L 146 279 L 149 282 L 152 283 L 157 287 L 167 292 L 169 292 L 171 294 L 180 297 L 188 298 L 191 302 L 185 306 L 186 309 L 188 310 L 200 309 L 205 314 L 209 316 L 222 317 L 224 319 L 220 323 L 217 324 L 215 326 L 216 328 L 219 329 L 225 329 L 231 331 L 237 331 L 239 329 L 240 325 L 245 317 L 245 311 L 250 305 L 253 305 L 255 307 L 255 309 L 249 315 L 251 318 L 251 322 L 252 318 L 250 316 L 250 314 L 256 308 L 256 306 L 253 303 L 253 300 L 261 294 L 261 291 L 259 288 L 263 284 L 264 276 L 267 272 L 270 270 L 275 264 L 281 266 L 286 270 L 290 270 L 291 269 L 290 265 L 284 257 L 276 253 L 274 251 L 264 247 L 254 236 L 251 235 L 248 231 L 248 227 L 245 224 L 240 227 L 238 225 L 236 220 L 237 207 L 235 205 L 233 205 L 230 207 L 228 206 L 229 208 L 234 205 L 237 207 L 236 221 L 238 226 L 240 228 L 244 225 L 246 225 L 248 227 L 248 231 L 249 233 L 263 246 L 266 251 L 271 251 L 279 255 L 288 263 L 290 267 L 288 269 L 286 269 L 279 263 L 273 261 L 272 262 L 272 266 L 269 270 L 266 270 L 260 264 L 257 258 L 262 266 L 262 269 L 260 273 L 260 277 L 255 282 L 254 289 L 250 293 L 250 295 L 247 299 L 247 303 L 248 305 L 245 309 L 243 315 L 243 318 L 239 326 L 239 328 L 237 330 L 229 330 L 225 328 L 220 328 L 218 326 L 224 322 L 227 318 L 225 315 L 222 315 L 221 316 L 211 315 L 208 313 L 206 313 L 201 308 L 192 308 L 191 309 L 188 309 L 187 306 L 192 303 L 192 300 L 190 298 L 173 294 L 165 290 L 163 288 L 159 287 L 154 283 L 148 280 L 135 268 L 131 266 L 107 239 L 106 236 L 101 231 L 97 222 L 94 219 L 87 215 L 77 205 L 71 202 L 65 196 L 68 194 L 75 198 L 79 198 L 82 194 L 85 192 L 86 193 L 86 199 L 90 206 L 94 210 L 97 210 L 98 211 L 107 211 L 108 210 L 114 209 L 122 205 L 127 201 L 135 197 L 143 189 L 143 187 L 145 184 L 145 174 L 143 170 L 135 160 L 131 157 L 125 155 L 115 155 L 111 157 L 108 157 L 95 169 L 87 184 L 87 187 L 85 188 L 83 185 L 83 192 L 79 197 L 75 197 L 69 194 L 64 189 L 63 187 L 63 182 L 67 178 L 72 177 L 77 179 L 82 183 L 79 180 L 74 178 L 72 175 L 73 174 L 76 174 L 77 175 L 81 175 L 83 176 L 89 170 L 90 167 L 89 162 L 87 160 L 89 164 L 89 169 L 85 174 L 83 175 L 79 175 L 73 172 L 70 175 L 62 175 Z M 258 291 L 260 293 L 250 301 L 249 298 L 251 294 L 254 291 Z M 256 283 L 259 281 L 261 284 L 258 286 Z M 131 158 L 135 161 L 142 169 L 145 175 L 145 184 L 141 191 L 136 196 L 130 200 L 113 209 L 100 211 L 93 208 L 89 204 L 86 197 L 86 188 L 91 176 L 97 167 L 106 159 L 112 156 L 123 155 Z M 271 150 L 270 153 L 263 153 L 260 150 L 254 148 L 253 149 L 248 149 L 241 153 L 235 160 L 234 163 L 234 170 L 235 172 L 240 176 L 245 176 L 250 174 L 255 170 L 258 166 L 260 167 L 260 171 L 260 162 L 261 161 L 259 162 L 258 165 L 250 173 L 243 176 L 239 175 L 235 171 L 234 169 L 234 163 L 236 159 L 245 151 L 250 149 L 257 149 L 259 150 L 263 155 L 266 153 L 268 153 L 270 155 L 270 162 L 270 159 L 272 158 L 275 162 L 271 156 Z M 63 149 L 63 153 L 64 154 L 66 153 L 66 151 L 70 147 L 74 147 L 86 158 L 80 150 L 82 149 L 89 157 L 95 155 L 92 154 L 89 157 L 79 146 L 74 143 L 68 143 L 64 146 Z M 67 145 L 68 147 L 66 149 L 66 151 L 64 152 L 63 149 L 65 146 Z M 374 146 L 375 153 L 380 158 L 387 162 L 397 164 L 398 165 L 411 165 L 414 163 L 416 163 L 421 160 L 424 154 L 424 149 L 421 143 L 416 139 L 405 135 L 390 135 L 380 139 Z M 374 147 L 378 141 L 385 137 L 393 136 L 394 135 L 401 135 L 402 136 L 411 137 L 417 140 L 422 145 L 424 149 L 424 154 L 423 157 L 417 162 L 411 164 L 405 164 L 404 165 L 402 164 L 395 164 L 394 163 L 390 163 L 379 157 L 376 154 Z M 156 132 L 151 133 L 142 143 L 140 143 L 138 141 L 140 144 L 143 145 L 143 147 L 141 150 L 140 157 L 142 161 L 147 165 L 151 165 L 155 162 L 158 158 L 159 154 L 161 151 L 160 140 L 161 139 L 163 141 L 163 143 L 162 138 L 160 135 Z M 154 136 L 159 140 L 160 143 L 160 152 L 158 157 L 154 162 L 151 164 L 147 164 L 142 160 L 141 157 L 141 151 L 146 141 L 150 137 Z M 151 134 L 153 132 L 156 132 L 159 136 L 157 137 Z M 296 129 L 296 130 L 299 132 L 304 130 L 318 130 L 319 131 L 324 131 L 327 133 L 329 133 L 331 131 L 331 128 L 328 125 L 326 125 L 324 123 L 318 123 L 317 122 L 312 122 L 311 123 L 303 124 Z M 301 127 L 304 125 L 307 125 L 308 124 L 318 123 L 327 126 L 330 130 L 327 132 L 320 129 L 302 129 Z M 125 116 L 119 116 L 117 119 L 123 119 L 125 120 L 129 124 L 133 131 L 134 144 L 133 146 L 128 150 L 123 149 L 118 145 L 113 146 L 110 143 L 104 129 L 97 122 L 93 120 L 88 120 L 83 125 L 83 131 L 85 130 L 86 127 L 89 124 L 94 125 L 102 133 L 107 142 L 107 145 L 108 146 L 107 151 L 102 156 L 97 156 L 103 156 L 106 153 L 108 149 L 108 144 L 107 143 L 108 140 L 110 142 L 110 144 L 113 147 L 118 147 L 124 150 L 129 150 L 133 147 L 134 145 L 134 137 L 136 136 L 137 139 L 136 133 L 135 135 L 133 134 L 133 132 L 135 131 L 131 122 Z M 87 121 L 88 120 L 93 120 L 95 121 L 99 126 L 97 127 L 93 124 L 88 123 Z M 463 76 L 461 78 L 460 82 L 454 88 L 448 91 L 447 94 L 448 96 L 454 101 L 463 118 L 463 120 L 466 123 L 466 125 L 464 127 L 464 130 L 468 134 L 474 136 L 478 141 L 476 143 L 470 143 L 468 145 L 468 147 L 483 163 L 482 166 L 477 165 L 483 167 L 484 164 L 479 157 L 469 148 L 469 145 L 471 143 L 479 143 L 480 142 L 474 136 L 468 134 L 464 130 L 464 128 L 467 124 L 462 117 L 456 104 L 448 95 L 448 93 L 459 84 Z M 258 78 L 252 76 L 244 77 L 239 80 L 234 87 L 234 90 L 233 91 L 234 100 L 241 108 L 245 109 L 250 104 L 255 96 L 262 88 L 263 84 Z M 253 77 L 257 79 L 261 83 L 261 87 L 249 105 L 247 107 L 244 108 L 240 106 L 236 102 L 234 98 L 234 89 L 238 82 L 243 78 Z M 359 72 L 359 77 L 362 80 L 366 80 L 372 84 L 375 84 L 376 85 L 378 85 L 382 82 L 382 77 L 376 70 L 373 70 L 371 68 L 368 67 L 364 67 L 362 68 Z M 359 72 L 365 67 L 375 70 L 382 77 L 382 82 L 380 84 L 374 84 L 367 80 L 362 79 L 359 76 Z M 312 57 L 304 57 L 303 60 L 300 63 L 298 64 L 294 64 L 287 67 L 275 76 L 273 76 L 270 73 L 268 69 L 264 65 L 257 62 L 247 62 L 246 63 L 243 63 L 231 69 L 224 77 L 222 83 L 222 81 L 226 74 L 234 67 L 248 62 L 257 62 L 265 66 L 268 69 L 272 76 L 277 76 L 278 75 L 280 77 L 271 88 L 271 94 L 273 96 L 276 96 L 283 90 L 291 86 L 291 85 L 288 88 L 284 89 L 276 96 L 273 96 L 271 94 L 271 88 L 277 81 L 283 77 L 287 77 L 290 79 L 288 77 L 285 77 L 282 73 L 290 66 L 294 64 L 298 64 L 300 63 L 305 58 Z M 430 51 L 428 53 L 425 54 L 420 60 L 418 64 L 418 68 L 421 71 L 424 72 L 439 85 L 442 85 L 448 81 L 451 77 L 452 74 L 452 67 L 449 60 L 442 53 L 437 51 Z M 431 52 L 437 52 L 442 54 L 449 61 L 451 65 L 451 75 L 450 77 L 442 84 L 439 84 L 428 74 L 419 68 L 419 62 L 421 59 L 427 54 Z M 317 57 L 322 56 L 324 54 L 324 50 L 323 48 L 325 46 L 330 47 L 338 52 L 342 52 L 349 45 L 352 44 L 355 45 L 353 49 L 353 53 L 355 55 L 359 55 L 364 53 L 378 53 L 379 54 L 385 54 L 386 55 L 396 57 L 390 55 L 387 55 L 386 54 L 381 54 L 380 53 L 360 53 L 359 54 L 355 54 L 353 52 L 354 47 L 356 44 L 355 42 L 349 45 L 342 52 L 338 52 L 328 46 L 323 45 L 322 47 L 324 51 L 324 54 L 322 56 Z M 398 58 L 404 59 L 406 57 L 406 53 L 408 50 L 418 41 L 420 41 L 423 39 L 428 39 L 429 38 L 441 38 L 449 42 L 457 49 L 463 57 L 464 63 L 463 57 L 461 55 L 460 52 L 451 43 L 444 39 L 438 38 L 437 37 L 430 37 L 416 42 L 409 48 L 406 53 L 406 56 L 403 59 Z" fill="#E8E8E8" fill-rule="evenodd"/><path d="M 364 514 L 360 517 L 355 524 L 351 527 L 346 533 L 354 531 L 360 524 L 360 522 L 362 520 Z M 392 501 L 387 501 L 385 504 L 385 515 L 384 518 L 382 520 L 382 522 L 379 525 L 379 527 L 377 529 L 378 531 L 381 531 L 383 533 L 386 530 L 388 525 L 388 516 L 389 515 L 389 510 L 393 504 Z M 287 485 L 285 485 L 284 487 L 284 490 L 285 491 Z M 268 475 L 267 475 L 266 477 L 266 481 L 267 482 L 268 481 Z M 261 453 L 260 453 L 258 459 L 260 458 Z M 522 441 L 520 442 L 520 470 L 519 473 L 522 471 L 526 461 L 526 450 Z M 522 448 L 525 450 L 525 455 L 523 457 L 521 456 L 521 449 Z M 256 435 L 252 439 L 251 443 L 257 438 Z M 259 293 L 258 292 L 254 292 L 252 294 L 250 300 Z M 387 262 L 386 261 L 383 261 L 368 266 L 360 267 L 356 269 L 350 269 L 349 270 L 326 270 L 325 269 L 311 267 L 310 268 L 310 271 L 318 279 L 333 289 L 335 289 L 337 291 L 343 293 L 350 293 L 359 290 L 373 279 L 385 267 L 387 264 Z M 415 255 L 411 260 L 411 263 L 412 264 L 417 259 L 417 256 Z M 67 179 L 64 182 L 64 187 L 65 189 L 72 195 L 79 196 L 82 192 L 82 184 L 75 179 L 72 178 Z M 131 159 L 123 156 L 112 157 L 106 160 L 98 167 L 92 176 L 87 188 L 87 197 L 90 204 L 93 207 L 100 210 L 113 208 L 130 199 L 140 191 L 144 184 L 144 175 L 141 169 L 136 163 Z M 237 159 L 235 163 L 235 169 L 239 174 L 242 175 L 250 172 L 257 165 L 258 162 L 260 160 L 262 161 L 261 162 L 261 173 L 263 179 L 271 188 L 280 192 L 282 194 L 284 204 L 292 220 L 301 232 L 314 244 L 324 248 L 329 248 L 330 249 L 338 248 L 347 244 L 354 239 L 361 230 L 367 214 L 368 204 L 369 203 L 369 172 L 367 166 L 365 164 L 360 163 L 357 169 L 352 174 L 336 182 L 333 182 L 332 183 L 317 183 L 316 182 L 311 182 L 304 179 L 297 178 L 288 184 L 282 185 L 279 183 L 277 183 L 270 176 L 268 172 L 268 165 L 269 164 L 269 155 L 268 154 L 266 154 L 263 156 L 260 152 L 257 150 L 250 150 L 242 154 Z M 263 158 L 266 155 L 269 157 L 268 173 L 273 181 L 277 184 L 282 186 L 288 185 L 297 179 L 301 179 L 302 180 L 305 180 L 309 182 L 317 183 L 318 184 L 332 184 L 333 183 L 336 183 L 352 175 L 357 170 L 358 167 L 361 164 L 363 164 L 366 167 L 368 171 L 368 176 L 369 177 L 369 196 L 368 197 L 368 204 L 367 205 L 367 210 L 366 211 L 365 218 L 359 232 L 354 237 L 352 235 L 359 218 L 359 210 L 358 208 L 353 203 L 346 200 L 337 200 L 328 204 L 318 211 L 315 214 L 311 221 L 311 230 L 314 235 L 321 243 L 318 245 L 310 240 L 298 227 L 288 212 L 284 202 L 283 194 L 280 191 L 278 191 L 271 187 L 263 178 L 261 172 L 261 166 L 262 165 Z M 154 137 L 150 138 L 147 141 L 142 151 L 142 157 L 143 160 L 147 163 L 151 163 L 154 161 L 157 157 L 159 152 L 159 143 L 158 140 Z M 375 147 L 376 152 L 379 156 L 390 162 L 394 162 L 395 163 L 402 163 L 403 164 L 405 163 L 411 163 L 420 159 L 422 157 L 423 154 L 423 149 L 421 145 L 417 141 L 411 138 L 402 137 L 401 136 L 394 136 L 393 137 L 385 138 L 378 142 Z M 302 127 L 302 128 L 320 128 L 327 131 L 329 130 L 327 127 L 318 124 L 308 125 Z M 276 118 L 273 121 L 270 127 L 270 132 L 269 133 L 270 135 L 270 139 L 276 144 L 272 149 L 272 156 L 276 163 L 281 168 L 287 171 L 294 171 L 295 172 L 308 169 L 315 165 L 320 160 L 323 154 L 323 148 L 322 146 L 317 141 L 309 138 L 305 138 L 304 137 L 297 137 L 296 138 L 284 139 L 283 137 L 285 134 L 285 131 L 286 130 L 286 123 L 285 120 L 282 117 L 278 117 Z M 272 150 L 279 143 L 289 139 L 292 139 L 293 138 L 306 138 L 315 141 L 322 147 L 322 155 L 319 160 L 312 166 L 300 171 L 290 171 L 282 168 L 276 162 L 273 157 Z M 282 118 L 286 124 L 286 129 L 283 136 L 278 141 L 274 142 L 270 138 L 270 129 L 272 124 L 277 118 Z M 362 111 L 357 115 L 354 122 L 354 132 L 356 136 L 359 139 L 361 140 L 367 140 L 372 134 L 373 131 L 373 122 L 370 115 L 368 113 Z M 361 112 L 365 112 L 370 116 L 373 125 L 371 135 L 365 140 L 360 139 L 356 135 L 354 130 L 354 123 L 357 116 Z M 290 80 L 287 78 L 283 78 L 277 82 L 272 88 L 272 94 L 273 95 L 276 95 L 284 88 L 288 87 L 291 84 Z M 290 82 L 290 84 L 288 86 L 283 88 L 276 94 L 274 94 L 272 92 L 274 86 L 280 81 L 284 79 L 287 79 Z M 253 78 L 243 79 L 239 82 L 235 89 L 235 98 L 237 102 L 240 105 L 244 107 L 248 105 L 260 87 L 260 83 L 257 80 Z M 360 72 L 360 76 L 362 78 L 367 79 L 374 83 L 380 83 L 381 82 L 381 77 L 375 71 L 365 68 Z M 361 72 L 363 70 L 370 70 L 376 73 L 380 77 L 380 81 L 378 83 L 376 83 L 367 78 L 365 78 L 361 75 Z M 431 53 L 422 59 L 420 62 L 420 68 L 428 73 L 439 83 L 442 83 L 444 82 L 450 75 L 450 65 L 448 61 L 442 55 L 437 53 Z M 87 119 L 82 124 L 81 132 L 82 133 L 83 139 L 89 151 L 87 152 L 80 145 L 72 141 L 67 142 L 63 145 L 62 148 L 62 155 L 65 161 L 65 163 L 68 167 L 70 172 L 68 174 L 67 173 L 64 173 L 59 175 L 57 178 L 57 185 L 59 188 L 59 190 L 66 200 L 76 210 L 96 224 L 106 248 L 108 250 L 111 257 L 123 273 L 135 284 L 146 291 L 151 296 L 150 299 L 144 298 L 143 300 L 149 306 L 159 311 L 164 312 L 167 314 L 170 314 L 173 317 L 173 319 L 168 322 L 169 325 L 182 330 L 196 333 L 197 334 L 197 336 L 195 339 L 196 342 L 198 343 L 203 343 L 204 344 L 211 344 L 215 347 L 214 349 L 215 351 L 220 353 L 227 354 L 228 355 L 231 353 L 233 345 L 238 336 L 238 334 L 241 329 L 243 323 L 248 318 L 250 320 L 246 332 L 246 341 L 242 349 L 242 355 L 243 358 L 240 366 L 240 372 L 238 376 L 233 382 L 232 385 L 233 387 L 237 387 L 238 388 L 238 391 L 225 406 L 225 409 L 226 410 L 230 410 L 232 409 L 234 412 L 231 418 L 224 427 L 221 435 L 222 438 L 224 438 L 227 435 L 230 437 L 224 453 L 224 457 L 225 459 L 227 460 L 232 456 L 234 458 L 234 463 L 238 466 L 246 475 L 244 477 L 237 472 L 232 471 L 229 473 L 222 475 L 213 481 L 202 486 L 199 489 L 199 492 L 201 493 L 203 496 L 200 499 L 196 500 L 192 504 L 191 506 L 191 512 L 189 518 L 187 520 L 183 528 L 183 532 L 185 533 L 188 537 L 187 548 L 188 549 L 191 564 L 193 568 L 193 571 L 197 579 L 200 582 L 205 591 L 210 597 L 219 600 L 228 601 L 230 604 L 225 606 L 203 606 L 202 607 L 199 607 L 194 610 L 189 615 L 187 619 L 186 633 L 188 638 L 192 641 L 194 641 L 194 639 L 192 637 L 192 633 L 194 631 L 206 644 L 213 645 L 215 644 L 216 642 L 214 641 L 209 635 L 211 629 L 214 626 L 216 626 L 219 630 L 219 636 L 221 641 L 233 641 L 238 639 L 254 637 L 258 635 L 268 633 L 280 629 L 290 623 L 300 615 L 307 602 L 308 594 L 309 593 L 309 588 L 308 586 L 296 573 L 296 571 L 298 569 L 309 569 L 311 567 L 308 564 L 303 562 L 299 558 L 299 556 L 302 554 L 308 556 L 313 559 L 315 559 L 320 562 L 322 562 L 327 565 L 339 569 L 342 569 L 346 571 L 358 572 L 359 573 L 382 573 L 387 571 L 392 571 L 394 573 L 394 575 L 391 578 L 388 578 L 387 581 L 389 583 L 394 593 L 400 601 L 403 607 L 411 617 L 422 628 L 426 630 L 433 637 L 439 641 L 442 641 L 443 642 L 464 642 L 465 641 L 473 641 L 474 640 L 483 640 L 488 638 L 496 638 L 497 639 L 495 642 L 493 642 L 491 644 L 485 645 L 481 647 L 472 648 L 467 650 L 446 651 L 445 652 L 437 653 L 432 659 L 432 661 L 430 664 L 430 677 L 433 681 L 435 682 L 437 681 L 439 672 L 444 668 L 446 668 L 448 670 L 447 684 L 449 686 L 452 686 L 453 687 L 459 687 L 462 685 L 462 676 L 466 671 L 469 671 L 471 673 L 471 684 L 473 686 L 483 686 L 484 685 L 487 685 L 489 683 L 487 678 L 487 673 L 488 670 L 491 667 L 494 667 L 497 670 L 496 682 L 506 681 L 509 679 L 511 679 L 518 674 L 530 661 L 531 658 L 535 653 L 540 644 L 540 642 L 543 636 L 544 628 L 545 627 L 545 611 L 540 601 L 536 597 L 524 590 L 514 580 L 509 572 L 506 563 L 504 560 L 501 546 L 497 542 L 497 536 L 499 532 L 499 527 L 498 525 L 496 524 L 489 531 L 485 532 L 483 530 L 483 526 L 485 522 L 493 512 L 498 501 L 502 489 L 502 484 L 503 483 L 503 470 L 505 468 L 509 468 L 510 467 L 510 452 L 509 451 L 509 447 L 506 438 L 506 435 L 510 432 L 510 429 L 503 415 L 503 410 L 506 405 L 506 403 L 503 402 L 499 407 L 487 416 L 478 420 L 471 421 L 457 431 L 451 434 L 444 435 L 433 441 L 428 445 L 419 448 L 416 450 L 409 451 L 408 452 L 402 452 L 398 450 L 391 450 L 380 456 L 374 458 L 371 458 L 367 460 L 354 462 L 353 463 L 347 463 L 346 462 L 340 461 L 319 448 L 315 444 L 314 440 L 309 431 L 301 424 L 298 418 L 298 414 L 297 413 L 299 402 L 304 395 L 304 392 L 303 391 L 303 381 L 304 378 L 312 370 L 323 365 L 337 362 L 351 355 L 362 347 L 377 340 L 380 340 L 383 338 L 385 338 L 390 334 L 389 328 L 388 327 L 390 324 L 393 324 L 397 327 L 397 332 L 399 334 L 403 334 L 406 332 L 413 332 L 415 334 L 407 340 L 405 340 L 392 346 L 387 347 L 374 354 L 368 356 L 366 358 L 359 361 L 354 365 L 345 370 L 338 371 L 337 372 L 332 372 L 331 373 L 328 373 L 322 375 L 319 377 L 313 384 L 314 387 L 324 387 L 326 389 L 326 391 L 325 393 L 311 406 L 310 408 L 310 414 L 315 418 L 321 417 L 326 414 L 329 414 L 331 416 L 327 423 L 324 426 L 323 429 L 323 438 L 326 441 L 330 443 L 334 443 L 348 434 L 351 436 L 351 438 L 345 448 L 345 451 L 347 453 L 358 453 L 360 451 L 362 451 L 376 444 L 378 444 L 382 441 L 384 441 L 386 439 L 396 434 L 399 436 L 400 439 L 403 439 L 405 438 L 409 434 L 412 429 L 420 422 L 423 424 L 423 427 L 422 428 L 422 434 L 423 434 L 431 428 L 434 427 L 445 415 L 447 414 L 449 416 L 449 419 L 451 420 L 473 397 L 475 398 L 475 401 L 473 407 L 476 408 L 480 406 L 485 401 L 490 391 L 490 378 L 491 377 L 495 380 L 495 382 L 497 385 L 499 385 L 502 379 L 502 366 L 503 365 L 503 362 L 502 361 L 502 356 L 500 353 L 498 343 L 497 342 L 498 337 L 496 334 L 496 331 L 493 322 L 490 317 L 469 295 L 471 293 L 474 293 L 477 295 L 479 295 L 479 294 L 470 285 L 465 282 L 461 278 L 461 277 L 465 274 L 463 272 L 447 265 L 446 263 L 450 260 L 449 259 L 442 258 L 438 256 L 438 254 L 440 252 L 454 243 L 461 235 L 465 228 L 467 222 L 467 216 L 468 213 L 470 211 L 472 213 L 474 213 L 476 211 L 476 195 L 475 192 L 477 190 L 482 193 L 484 192 L 484 187 L 481 181 L 481 179 L 476 170 L 476 168 L 479 167 L 482 169 L 485 169 L 486 168 L 486 165 L 484 161 L 471 147 L 473 145 L 481 145 L 482 144 L 482 141 L 475 135 L 469 133 L 467 131 L 467 129 L 471 126 L 463 116 L 457 103 L 450 95 L 450 94 L 454 90 L 457 89 L 462 83 L 466 73 L 466 62 L 462 52 L 453 42 L 446 38 L 440 36 L 428 36 L 427 37 L 421 38 L 413 42 L 407 48 L 404 55 L 402 57 L 393 54 L 389 54 L 388 53 L 379 52 L 378 51 L 360 51 L 357 52 L 355 50 L 357 46 L 357 42 L 356 41 L 351 42 L 341 51 L 339 51 L 328 44 L 321 43 L 320 44 L 320 47 L 322 50 L 322 53 L 320 55 L 302 55 L 301 56 L 301 60 L 299 62 L 292 63 L 282 68 L 274 74 L 271 72 L 270 69 L 265 64 L 262 62 L 256 61 L 255 60 L 248 60 L 247 61 L 244 61 L 238 63 L 231 67 L 225 73 L 221 80 L 219 86 L 219 99 L 221 105 L 225 111 L 230 115 L 236 117 L 240 120 L 238 126 L 231 139 L 231 151 L 219 164 L 219 168 L 220 169 L 225 167 L 228 168 L 228 171 L 222 183 L 222 188 L 223 189 L 226 189 L 227 188 L 230 189 L 228 195 L 228 198 L 227 199 L 226 208 L 228 211 L 231 210 L 233 208 L 235 209 L 235 223 L 237 228 L 240 231 L 242 231 L 245 229 L 247 231 L 248 235 L 251 238 L 254 239 L 260 245 L 270 260 L 271 265 L 268 268 L 266 268 L 262 264 L 257 255 L 250 247 L 248 247 L 247 250 L 245 252 L 239 243 L 234 238 L 229 241 L 227 239 L 221 225 L 218 222 L 215 223 L 215 228 L 212 230 L 205 222 L 198 208 L 194 205 L 189 209 L 177 193 L 161 176 L 161 171 L 164 164 L 164 158 L 165 157 L 165 142 L 163 137 L 159 132 L 157 131 L 151 131 L 142 141 L 140 141 L 138 139 L 137 132 L 132 121 L 126 115 L 120 114 L 118 115 L 114 120 L 114 141 L 112 142 L 110 140 L 109 135 L 106 129 L 98 121 L 94 119 Z M 391 564 L 397 559 L 402 559 L 404 557 L 419 555 L 421 553 L 424 553 L 426 551 L 442 552 L 450 558 L 450 560 L 457 570 L 461 573 L 466 574 L 469 577 L 470 580 L 475 587 L 487 600 L 492 601 L 497 604 L 500 604 L 503 607 L 503 610 L 507 612 L 511 612 L 518 605 L 518 603 L 515 600 L 515 597 L 516 596 L 515 592 L 518 588 L 522 589 L 528 594 L 530 594 L 533 596 L 539 602 L 543 609 L 543 612 L 545 617 L 545 623 L 543 627 L 543 634 L 538 647 L 534 651 L 534 653 L 531 656 L 529 661 L 514 676 L 512 676 L 506 680 L 499 681 L 497 679 L 497 676 L 499 672 L 498 671 L 498 668 L 496 666 L 491 666 L 488 668 L 486 674 L 486 682 L 483 685 L 474 685 L 472 683 L 472 672 L 469 669 L 465 670 L 463 672 L 461 677 L 461 682 L 458 685 L 455 686 L 450 685 L 448 683 L 448 668 L 446 666 L 443 667 L 438 672 L 437 678 L 435 680 L 433 680 L 431 678 L 430 675 L 431 663 L 434 658 L 439 653 L 446 652 L 447 651 L 461 651 L 462 650 L 470 650 L 476 648 L 481 648 L 482 647 L 485 647 L 491 645 L 499 641 L 503 641 L 504 639 L 502 637 L 491 637 L 490 638 L 484 638 L 483 639 L 474 639 L 473 640 L 465 640 L 464 641 L 456 641 L 455 642 L 448 642 L 447 641 L 442 641 L 439 639 L 437 639 L 429 631 L 425 629 L 410 614 L 393 589 L 393 587 L 389 581 L 391 579 L 394 578 L 396 574 L 396 571 L 394 568 L 391 566 Z M 436 527 L 438 529 L 438 533 L 435 539 L 433 537 L 433 532 L 434 529 Z M 446 505 L 448 507 L 447 520 L 444 524 L 441 526 L 440 525 L 440 516 L 444 510 L 444 507 Z M 234 472 L 245 478 L 255 488 L 256 491 L 270 506 L 270 507 L 286 523 L 288 528 L 295 535 L 295 537 L 289 541 L 289 546 L 291 549 L 290 557 L 288 560 L 285 561 L 281 565 L 280 573 L 276 577 L 274 581 L 275 597 L 273 599 L 272 602 L 272 606 L 274 611 L 279 615 L 285 617 L 287 619 L 286 620 L 287 622 L 285 624 L 282 625 L 280 627 L 278 627 L 274 630 L 268 632 L 265 632 L 264 633 L 261 633 L 260 634 L 252 635 L 251 636 L 239 637 L 234 640 L 225 640 L 222 637 L 222 634 L 220 628 L 218 626 L 214 625 L 211 628 L 208 635 L 208 637 L 213 641 L 213 643 L 212 644 L 208 644 L 206 642 L 206 639 L 203 639 L 198 634 L 193 626 L 192 626 L 189 630 L 187 629 L 187 622 L 189 616 L 195 610 L 200 607 L 204 607 L 205 606 L 234 606 L 237 605 L 237 604 L 234 602 L 231 602 L 227 600 L 220 600 L 216 598 L 213 598 L 208 594 L 201 582 L 195 574 L 192 565 L 191 557 L 188 549 L 188 537 L 189 535 L 186 533 L 183 529 L 191 515 L 192 506 L 196 501 L 200 500 L 205 497 L 205 494 L 202 493 L 199 490 L 203 486 L 222 477 L 224 475 Z M 373 461 L 378 459 L 379 460 L 379 464 L 376 465 Z M 502 418 L 504 419 L 506 423 L 506 426 L 505 427 L 503 427 L 501 425 L 501 419 Z M 437 36 L 438 37 L 444 38 L 451 42 L 461 52 L 462 55 L 464 57 L 465 64 L 466 65 L 466 70 L 465 71 L 464 77 L 460 84 L 455 89 L 452 90 L 449 93 L 449 95 L 457 104 L 463 117 L 468 124 L 465 128 L 465 130 L 468 133 L 474 135 L 481 142 L 479 144 L 471 144 L 470 145 L 470 148 L 480 157 L 485 164 L 485 166 L 483 168 L 478 166 L 475 167 L 475 171 L 477 173 L 481 181 L 483 189 L 481 191 L 477 189 L 474 190 L 474 194 L 475 195 L 475 209 L 473 211 L 469 208 L 467 210 L 466 223 L 462 231 L 458 235 L 455 232 L 455 229 L 452 228 L 448 235 L 440 245 L 437 245 L 435 243 L 433 243 L 432 246 L 430 248 L 430 250 L 425 255 L 422 255 L 422 260 L 423 261 L 427 261 L 435 258 L 442 258 L 444 260 L 443 263 L 445 265 L 452 267 L 460 271 L 461 273 L 458 275 L 458 277 L 465 283 L 469 285 L 475 291 L 473 293 L 472 292 L 469 292 L 468 295 L 490 318 L 493 324 L 492 331 L 495 334 L 495 341 L 497 344 L 497 347 L 498 348 L 498 356 L 499 357 L 498 359 L 498 375 L 499 376 L 499 380 L 498 381 L 496 380 L 492 370 L 489 368 L 488 369 L 489 391 L 481 402 L 480 400 L 479 400 L 479 402 L 477 404 L 476 403 L 476 399 L 479 396 L 478 395 L 480 393 L 480 392 L 476 390 L 463 404 L 460 406 L 457 404 L 458 406 L 457 411 L 454 415 L 452 414 L 453 411 L 450 408 L 446 410 L 439 417 L 438 420 L 432 426 L 430 426 L 428 428 L 426 428 L 424 426 L 426 420 L 426 417 L 423 417 L 410 429 L 408 433 L 404 437 L 401 436 L 402 432 L 400 430 L 398 430 L 391 436 L 375 444 L 360 449 L 356 452 L 348 452 L 346 449 L 348 445 L 352 441 L 354 437 L 354 434 L 352 432 L 349 432 L 334 441 L 328 441 L 324 438 L 324 430 L 329 423 L 332 417 L 332 414 L 331 413 L 326 413 L 324 415 L 322 415 L 319 417 L 316 417 L 310 413 L 310 410 L 313 405 L 317 402 L 327 391 L 327 387 L 326 386 L 318 386 L 316 383 L 322 376 L 324 376 L 327 374 L 334 373 L 335 372 L 345 371 L 352 367 L 355 364 L 375 353 L 382 351 L 399 343 L 409 340 L 416 334 L 416 332 L 413 330 L 409 330 L 408 331 L 405 331 L 403 333 L 400 333 L 398 331 L 399 327 L 395 323 L 388 321 L 387 322 L 387 328 L 389 330 L 389 333 L 385 337 L 383 337 L 380 339 L 375 340 L 373 342 L 366 344 L 364 346 L 359 348 L 354 352 L 351 353 L 344 358 L 340 359 L 338 361 L 320 365 L 314 368 L 306 374 L 303 379 L 303 382 L 302 383 L 302 395 L 297 406 L 297 417 L 299 420 L 300 424 L 309 433 L 313 440 L 313 442 L 318 448 L 325 453 L 328 454 L 335 460 L 337 460 L 342 463 L 345 463 L 348 465 L 359 464 L 362 462 L 368 462 L 370 461 L 372 463 L 372 466 L 371 467 L 366 467 L 364 466 L 358 470 L 360 476 L 366 481 L 368 481 L 373 484 L 387 484 L 392 487 L 394 487 L 398 490 L 403 490 L 408 492 L 411 495 L 403 502 L 399 502 L 398 503 L 398 505 L 401 509 L 411 510 L 420 499 L 428 499 L 430 497 L 432 497 L 434 499 L 434 503 L 432 506 L 432 510 L 433 511 L 433 521 L 429 525 L 426 526 L 426 528 L 422 535 L 422 537 L 420 540 L 412 547 L 409 546 L 408 542 L 417 525 L 417 517 L 415 517 L 412 520 L 406 529 L 403 529 L 399 533 L 399 535 L 395 539 L 392 545 L 388 548 L 387 551 L 384 554 L 380 554 L 378 552 L 377 546 L 376 545 L 372 545 L 365 549 L 362 549 L 361 550 L 357 550 L 356 549 L 349 550 L 348 547 L 352 543 L 354 542 L 358 542 L 360 539 L 359 536 L 348 541 L 346 541 L 339 546 L 332 548 L 327 544 L 319 542 L 312 538 L 306 536 L 298 527 L 295 526 L 293 524 L 290 519 L 290 517 L 277 504 L 277 503 L 276 503 L 267 493 L 254 482 L 236 463 L 235 461 L 235 457 L 233 454 L 227 458 L 225 456 L 225 450 L 231 437 L 231 433 L 228 433 L 225 436 L 223 436 L 222 433 L 225 428 L 225 426 L 228 423 L 235 412 L 235 409 L 234 408 L 227 409 L 225 407 L 240 389 L 239 386 L 235 387 L 233 385 L 234 381 L 240 374 L 242 370 L 252 362 L 256 354 L 258 352 L 258 348 L 256 347 L 248 353 L 246 358 L 244 357 L 244 355 L 242 353 L 242 350 L 246 342 L 246 333 L 250 323 L 250 318 L 248 315 L 254 309 L 254 307 L 253 306 L 250 306 L 246 311 L 246 317 L 243 321 L 240 329 L 237 332 L 231 332 L 225 330 L 219 330 L 216 329 L 214 326 L 217 323 L 220 322 L 223 319 L 222 318 L 209 317 L 205 315 L 200 310 L 188 311 L 184 308 L 184 306 L 190 302 L 188 299 L 180 298 L 171 295 L 169 293 L 167 293 L 157 288 L 152 284 L 149 283 L 146 280 L 143 279 L 130 267 L 129 267 L 122 260 L 119 255 L 115 251 L 113 250 L 110 251 L 100 233 L 97 224 L 93 220 L 87 217 L 81 211 L 69 202 L 63 195 L 57 184 L 57 179 L 62 174 L 70 174 L 73 171 L 79 174 L 83 174 L 87 171 L 88 169 L 88 164 L 86 161 L 86 159 L 76 149 L 74 148 L 70 148 L 67 151 L 67 153 L 65 155 L 62 153 L 62 149 L 63 146 L 66 143 L 68 142 L 74 142 L 79 145 L 89 156 L 92 153 L 94 153 L 96 155 L 102 155 L 106 151 L 107 148 L 106 142 L 101 133 L 94 126 L 89 125 L 84 132 L 82 131 L 82 125 L 88 119 L 93 119 L 97 121 L 105 129 L 109 137 L 109 139 L 113 145 L 118 144 L 121 147 L 126 149 L 130 148 L 133 144 L 132 131 L 128 124 L 125 121 L 123 120 L 117 120 L 116 119 L 119 115 L 125 115 L 132 122 L 136 130 L 138 140 L 140 142 L 142 142 L 151 132 L 153 131 L 158 132 L 163 138 L 164 144 L 165 145 L 164 161 L 160 173 L 161 177 L 170 186 L 186 207 L 190 211 L 195 207 L 199 211 L 199 213 L 201 215 L 204 222 L 212 232 L 213 232 L 215 229 L 215 225 L 218 223 L 221 226 L 223 232 L 229 243 L 233 240 L 235 240 L 239 244 L 245 253 L 247 253 L 247 251 L 250 248 L 257 256 L 261 264 L 266 269 L 269 269 L 271 266 L 271 262 L 273 260 L 279 262 L 286 268 L 288 268 L 289 266 L 287 263 L 279 256 L 271 252 L 266 252 L 262 246 L 248 233 L 247 231 L 247 227 L 246 226 L 244 226 L 240 229 L 237 226 L 235 221 L 236 207 L 234 206 L 230 209 L 227 207 L 227 200 L 231 188 L 230 187 L 224 188 L 222 186 L 222 184 L 229 170 L 229 167 L 228 166 L 220 167 L 219 165 L 232 151 L 231 140 L 239 125 L 240 118 L 230 114 L 223 107 L 219 98 L 219 89 L 223 77 L 231 68 L 240 63 L 246 62 L 247 61 L 257 61 L 264 64 L 269 69 L 273 75 L 275 75 L 287 66 L 294 63 L 298 63 L 300 62 L 304 56 L 318 56 L 319 55 L 322 55 L 323 54 L 323 51 L 321 46 L 323 44 L 328 45 L 338 51 L 342 51 L 349 44 L 355 41 L 357 43 L 354 50 L 355 53 L 359 53 L 360 52 L 380 52 L 381 53 L 386 53 L 387 54 L 394 55 L 397 57 L 403 58 L 405 56 L 405 53 L 408 48 L 416 41 L 430 36 Z M 79 113 L 74 119 L 73 125 L 72 126 L 72 130 L 68 133 L 62 134 L 55 141 L 52 148 L 52 157 L 55 163 L 55 165 L 48 172 L 47 175 L 47 187 L 52 198 L 58 206 L 69 217 L 87 230 L 92 245 L 105 267 L 112 276 L 123 287 L 128 290 L 133 295 L 133 302 L 134 304 L 143 313 L 155 319 L 159 323 L 160 328 L 165 333 L 167 333 L 169 335 L 182 339 L 186 345 L 191 349 L 197 351 L 200 351 L 207 357 L 215 361 L 226 364 L 229 367 L 229 371 L 223 381 L 223 393 L 217 401 L 215 406 L 215 413 L 218 418 L 218 420 L 212 432 L 212 440 L 215 447 L 214 450 L 214 460 L 215 461 L 215 465 L 210 470 L 203 474 L 199 478 L 193 481 L 187 487 L 186 491 L 180 502 L 179 507 L 175 514 L 175 517 L 173 522 L 173 537 L 176 546 L 176 553 L 177 554 L 177 559 L 179 564 L 179 568 L 185 581 L 187 583 L 187 585 L 193 593 L 192 598 L 180 611 L 176 621 L 175 629 L 174 630 L 174 637 L 175 638 L 175 641 L 177 644 L 183 649 L 191 653 L 194 653 L 203 656 L 209 656 L 210 657 L 240 656 L 241 655 L 248 654 L 251 652 L 254 652 L 258 650 L 264 649 L 272 645 L 275 645 L 298 633 L 312 620 L 317 609 L 318 598 L 322 587 L 322 577 L 324 575 L 325 576 L 329 576 L 333 578 L 336 578 L 345 581 L 349 581 L 350 582 L 354 582 L 355 583 L 375 583 L 377 585 L 383 599 L 392 609 L 395 615 L 401 623 L 410 632 L 421 640 L 426 645 L 426 649 L 420 657 L 417 665 L 417 678 L 419 682 L 425 688 L 434 692 L 437 692 L 446 695 L 450 695 L 451 696 L 478 697 L 479 696 L 488 696 L 489 695 L 494 695 L 495 694 L 508 692 L 517 688 L 523 684 L 537 669 L 551 646 L 554 637 L 555 630 L 556 629 L 557 613 L 556 612 L 555 605 L 549 596 L 539 586 L 532 582 L 524 574 L 520 566 L 520 564 L 515 555 L 515 552 L 513 547 L 513 543 L 508 534 L 508 512 L 509 511 L 509 506 L 510 505 L 511 499 L 513 495 L 519 489 L 526 484 L 531 479 L 532 476 L 534 474 L 535 468 L 536 467 L 536 451 L 532 439 L 530 437 L 529 434 L 515 417 L 515 406 L 514 405 L 514 401 L 512 396 L 512 392 L 513 391 L 513 357 L 512 356 L 512 352 L 511 351 L 511 347 L 509 341 L 509 334 L 508 333 L 508 329 L 506 323 L 502 315 L 497 309 L 495 298 L 493 294 L 485 286 L 483 283 L 483 280 L 481 278 L 480 275 L 474 269 L 470 267 L 462 258 L 462 252 L 466 244 L 473 236 L 477 226 L 484 218 L 486 204 L 491 200 L 493 196 L 494 187 L 493 186 L 492 178 L 495 175 L 496 172 L 496 164 L 493 157 L 490 153 L 490 151 L 493 146 L 492 140 L 489 135 L 481 128 L 480 124 L 475 114 L 465 98 L 465 95 L 472 87 L 477 74 L 477 63 L 476 62 L 475 55 L 473 52 L 472 48 L 467 41 L 457 33 L 449 29 L 443 28 L 442 27 L 426 27 L 425 28 L 417 29 L 405 36 L 397 46 L 391 45 L 390 44 L 385 44 L 384 43 L 367 42 L 360 33 L 353 32 L 343 37 L 340 41 L 328 35 L 319 35 L 314 39 L 313 44 L 310 47 L 300 48 L 291 54 L 289 54 L 279 60 L 275 60 L 270 56 L 262 52 L 255 51 L 254 50 L 243 51 L 227 58 L 218 66 L 211 78 L 209 84 L 209 89 L 208 90 L 209 102 L 212 108 L 212 110 L 214 112 L 215 115 L 221 121 L 227 125 L 220 140 L 220 150 L 213 157 L 210 163 L 210 170 L 215 176 L 215 178 L 212 184 L 212 191 L 218 198 L 217 209 L 214 212 L 211 212 L 208 209 L 203 200 L 198 195 L 196 194 L 190 194 L 184 188 L 179 180 L 171 172 L 171 170 L 174 164 L 175 144 L 171 132 L 165 125 L 159 122 L 151 122 L 147 124 L 144 124 L 142 122 L 138 114 L 132 108 L 125 105 L 118 105 L 111 108 L 104 115 L 102 113 L 95 110 L 85 110 Z M 80 113 L 87 110 L 93 110 L 94 111 L 97 111 L 105 116 L 112 108 L 116 106 L 126 106 L 131 108 L 138 115 L 142 123 L 144 125 L 147 125 L 150 123 L 153 123 L 154 122 L 160 123 L 164 125 L 171 133 L 174 140 L 174 145 L 175 146 L 174 162 L 171 169 L 171 173 L 178 180 L 184 189 L 190 195 L 196 195 L 198 196 L 203 201 L 207 209 L 211 213 L 214 213 L 218 211 L 218 197 L 212 190 L 212 185 L 216 178 L 216 175 L 210 170 L 210 164 L 213 158 L 221 150 L 221 146 L 220 145 L 221 139 L 223 134 L 228 127 L 228 124 L 222 121 L 215 114 L 214 111 L 212 109 L 209 100 L 209 86 L 210 85 L 211 79 L 215 71 L 224 61 L 230 57 L 232 57 L 237 54 L 243 52 L 255 51 L 256 52 L 259 52 L 265 54 L 275 61 L 279 61 L 300 49 L 303 48 L 312 48 L 313 47 L 313 42 L 318 36 L 325 35 L 326 36 L 329 36 L 337 41 L 341 41 L 346 36 L 352 33 L 358 33 L 360 34 L 363 37 L 364 41 L 366 43 L 387 44 L 388 45 L 391 45 L 397 47 L 399 44 L 411 33 L 419 29 L 430 28 L 431 27 L 439 27 L 440 28 L 444 28 L 450 30 L 460 36 L 470 46 L 475 56 L 476 64 L 477 65 L 477 72 L 476 73 L 476 76 L 474 82 L 470 89 L 464 95 L 464 98 L 476 117 L 481 130 L 487 134 L 492 141 L 492 147 L 489 150 L 489 153 L 495 162 L 496 171 L 495 174 L 492 177 L 492 182 L 493 183 L 493 195 L 486 203 L 485 205 L 485 213 L 484 216 L 478 223 L 473 235 L 466 243 L 463 250 L 460 253 L 460 256 L 463 261 L 469 267 L 472 268 L 481 277 L 485 287 L 493 295 L 495 299 L 495 305 L 498 311 L 502 316 L 508 330 L 509 343 L 511 348 L 511 353 L 512 354 L 512 359 L 513 360 L 513 387 L 512 388 L 512 399 L 514 403 L 514 416 L 516 420 L 526 431 L 530 437 L 534 445 L 535 452 L 536 453 L 536 465 L 531 477 L 523 485 L 518 488 L 514 492 L 513 495 L 511 497 L 509 503 L 509 506 L 508 507 L 508 516 L 507 517 L 507 530 L 508 531 L 508 536 L 512 542 L 515 557 L 525 577 L 531 582 L 537 585 L 549 597 L 552 601 L 556 611 L 556 625 L 555 626 L 555 631 L 554 632 L 554 635 L 550 647 L 534 672 L 522 684 L 512 690 L 503 693 L 487 695 L 486 696 L 476 696 L 475 697 L 465 697 L 464 696 L 447 695 L 446 694 L 443 694 L 428 689 L 420 682 L 418 679 L 418 676 L 417 675 L 418 663 L 422 655 L 428 648 L 428 646 L 422 640 L 417 637 L 409 629 L 408 629 L 398 618 L 392 608 L 386 602 L 385 599 L 383 597 L 378 586 L 378 584 L 377 583 L 357 583 L 356 582 L 345 581 L 327 575 L 320 575 L 319 576 L 321 581 L 321 588 L 318 595 L 317 607 L 315 613 L 310 621 L 298 632 L 273 645 L 268 646 L 259 650 L 252 651 L 243 655 L 228 656 L 227 657 L 214 657 L 213 656 L 203 656 L 195 653 L 192 653 L 182 648 L 177 643 L 175 638 L 175 627 L 179 615 L 184 607 L 194 597 L 194 593 L 188 586 L 188 584 L 182 574 L 178 562 L 177 551 L 176 550 L 176 543 L 173 535 L 173 524 L 174 523 L 174 520 L 176 514 L 179 509 L 180 503 L 184 497 L 188 487 L 194 481 L 204 475 L 215 466 L 215 458 L 214 457 L 215 446 L 212 439 L 213 430 L 218 421 L 218 417 L 216 415 L 215 412 L 215 407 L 217 402 L 224 393 L 223 391 L 223 383 L 226 376 L 230 370 L 230 367 L 225 363 L 222 363 L 216 361 L 208 357 L 201 351 L 198 351 L 189 347 L 185 343 L 184 340 L 182 338 L 176 337 L 168 334 L 160 327 L 159 322 L 155 318 L 149 316 L 140 310 L 133 301 L 133 298 L 134 297 L 133 294 L 123 286 L 112 275 L 99 257 L 94 246 L 92 244 L 92 242 L 89 236 L 89 232 L 88 230 L 68 215 L 59 206 L 51 195 L 47 185 L 47 176 L 48 173 L 55 166 L 55 162 L 53 158 L 53 153 L 52 152 L 53 150 L 53 146 L 55 142 L 62 135 L 67 133 L 71 133 L 72 132 L 74 120 Z" fill="#B1B1B1" fill-rule="evenodd"/><path d="M 264 158 L 264 160 L 263 161 L 263 165 L 262 166 L 262 172 L 263 173 L 263 176 L 264 178 L 271 186 L 278 190 L 280 190 L 284 194 L 285 202 L 286 203 L 286 205 L 288 208 L 289 212 L 291 214 L 292 217 L 299 226 L 299 227 L 310 239 L 318 244 L 320 243 L 313 235 L 310 230 L 310 221 L 314 214 L 318 210 L 319 210 L 328 203 L 337 199 L 346 199 L 347 200 L 349 200 L 353 202 L 359 208 L 360 210 L 360 218 L 359 219 L 359 222 L 356 227 L 356 229 L 353 235 L 354 236 L 358 232 L 364 218 L 364 215 L 365 214 L 365 211 L 366 210 L 366 205 L 367 204 L 367 197 L 368 196 L 368 177 L 367 176 L 367 171 L 365 167 L 363 165 L 361 165 L 359 167 L 358 170 L 352 176 L 336 184 L 333 184 L 332 185 L 318 185 L 317 184 L 313 184 L 312 183 L 309 183 L 308 182 L 302 181 L 301 180 L 297 180 L 292 184 L 288 186 L 282 187 L 281 186 L 277 185 L 274 182 L 273 182 L 269 177 L 267 173 L 267 163 L 268 162 L 268 157 L 266 156 Z M 273 150 L 273 154 L 277 162 L 282 167 L 286 169 L 289 169 L 290 170 L 300 170 L 301 169 L 306 168 L 315 163 L 318 160 L 321 155 L 321 147 L 315 142 L 313 142 L 310 140 L 307 140 L 306 139 L 293 139 L 292 140 L 289 140 L 288 141 L 286 141 L 279 144 Z M 282 119 L 277 119 L 272 126 L 272 128 L 271 129 L 271 138 L 274 141 L 278 140 L 282 136 L 284 132 L 284 130 L 285 129 L 285 124 Z M 361 113 L 358 116 L 356 120 L 356 122 L 355 123 L 355 130 L 356 131 L 357 135 L 360 138 L 362 139 L 365 139 L 370 135 L 371 129 L 372 128 L 372 125 L 371 124 L 371 120 L 369 116 L 365 113 Z M 289 82 L 287 80 L 284 80 L 280 82 L 275 86 L 273 90 L 273 92 L 274 93 L 276 93 L 280 89 L 289 84 Z M 362 72 L 362 75 L 363 76 L 367 77 L 376 82 L 378 82 L 379 81 L 379 77 L 376 74 L 370 71 L 363 71 Z M 80 114 L 75 120 L 73 132 L 71 134 L 67 134 L 66 135 L 62 136 L 56 142 L 54 146 L 54 150 L 53 152 L 54 153 L 54 158 L 56 162 L 56 166 L 49 173 L 49 175 L 48 176 L 48 185 L 49 186 L 49 189 L 52 195 L 54 197 L 56 201 L 60 205 L 60 206 L 68 214 L 69 214 L 75 220 L 86 227 L 89 230 L 90 232 L 90 236 L 93 242 L 93 244 L 95 246 L 100 257 L 102 259 L 106 266 L 109 269 L 109 270 L 113 274 L 113 275 L 123 285 L 124 285 L 128 289 L 129 289 L 134 294 L 135 296 L 134 298 L 134 301 L 140 309 L 141 309 L 144 312 L 147 313 L 149 315 L 153 317 L 155 317 L 160 322 L 160 325 L 161 327 L 168 333 L 175 335 L 176 336 L 182 337 L 189 346 L 195 349 L 201 350 L 208 356 L 216 360 L 218 360 L 222 362 L 225 362 L 231 367 L 231 370 L 229 374 L 227 376 L 224 383 L 224 391 L 225 393 L 218 402 L 217 406 L 216 407 L 216 412 L 217 413 L 217 415 L 219 417 L 219 421 L 214 430 L 214 433 L 213 434 L 213 439 L 216 446 L 216 450 L 215 451 L 216 466 L 211 471 L 194 482 L 189 487 L 186 493 L 186 495 L 181 503 L 181 506 L 177 514 L 177 516 L 175 520 L 175 523 L 174 524 L 174 535 L 175 536 L 176 542 L 177 543 L 177 550 L 178 551 L 179 562 L 180 563 L 183 574 L 185 578 L 187 580 L 189 584 L 189 586 L 195 593 L 195 597 L 185 607 L 180 615 L 180 617 L 179 618 L 179 620 L 176 627 L 176 638 L 177 639 L 178 643 L 182 647 L 192 652 L 195 652 L 196 653 L 202 654 L 203 655 L 213 655 L 214 656 L 227 656 L 228 655 L 237 655 L 238 654 L 243 654 L 249 651 L 255 650 L 256 649 L 259 649 L 260 648 L 265 647 L 268 645 L 273 644 L 298 631 L 309 621 L 312 615 L 314 613 L 314 611 L 316 607 L 316 600 L 317 599 L 317 595 L 320 588 L 320 581 L 319 580 L 318 576 L 320 574 L 327 574 L 328 575 L 330 575 L 334 577 L 337 577 L 341 579 L 344 579 L 345 580 L 350 580 L 351 581 L 356 581 L 357 582 L 377 582 L 379 584 L 379 586 L 381 589 L 381 591 L 384 597 L 386 599 L 387 602 L 393 608 L 399 618 L 408 627 L 408 628 L 409 628 L 417 636 L 422 639 L 429 646 L 429 648 L 423 655 L 419 663 L 419 667 L 418 668 L 418 675 L 419 676 L 419 679 L 421 681 L 421 682 L 428 688 L 435 690 L 436 691 L 439 691 L 443 693 L 446 693 L 447 694 L 453 694 L 454 695 L 464 695 L 465 696 L 475 696 L 476 695 L 486 695 L 487 694 L 492 694 L 493 693 L 503 692 L 504 691 L 512 689 L 522 683 L 533 672 L 535 668 L 542 659 L 543 656 L 545 654 L 549 647 L 549 645 L 550 644 L 550 642 L 553 635 L 553 632 L 554 631 L 554 626 L 555 625 L 555 611 L 554 610 L 554 607 L 548 597 L 537 586 L 531 583 L 524 577 L 514 557 L 514 555 L 513 554 L 513 550 L 512 549 L 512 545 L 511 544 L 511 542 L 509 540 L 507 536 L 507 531 L 506 530 L 506 517 L 507 516 L 507 507 L 508 506 L 508 503 L 509 502 L 510 497 L 512 495 L 513 492 L 518 487 L 523 484 L 530 477 L 534 469 L 534 466 L 535 465 L 535 453 L 534 452 L 534 448 L 533 447 L 533 445 L 525 431 L 515 420 L 513 416 L 513 403 L 511 399 L 511 388 L 512 387 L 512 360 L 511 359 L 510 348 L 509 347 L 509 344 L 508 343 L 507 330 L 501 316 L 497 311 L 494 305 L 494 299 L 492 295 L 484 287 L 480 277 L 472 269 L 469 268 L 462 261 L 459 256 L 459 253 L 462 250 L 465 243 L 472 235 L 477 223 L 483 216 L 483 214 L 484 213 L 484 205 L 485 203 L 491 197 L 492 195 L 492 183 L 491 182 L 491 177 L 494 174 L 494 172 L 495 171 L 495 166 L 494 165 L 494 162 L 491 158 L 490 155 L 488 153 L 488 150 L 491 147 L 491 141 L 488 136 L 480 130 L 478 123 L 475 117 L 473 115 L 468 105 L 463 98 L 463 95 L 471 86 L 473 82 L 474 77 L 475 76 L 475 73 L 476 72 L 476 65 L 475 64 L 474 56 L 469 46 L 460 37 L 450 31 L 448 31 L 444 29 L 440 29 L 439 28 L 431 28 L 430 29 L 419 30 L 411 34 L 409 36 L 408 36 L 397 48 L 395 47 L 392 47 L 391 46 L 388 46 L 387 45 L 380 45 L 379 44 L 366 44 L 363 41 L 363 39 L 360 35 L 358 34 L 352 34 L 346 37 L 341 42 L 337 42 L 333 39 L 329 37 L 326 37 L 325 36 L 321 36 L 320 37 L 318 37 L 315 40 L 314 42 L 314 47 L 312 49 L 303 49 L 302 50 L 300 50 L 296 53 L 283 59 L 279 62 L 275 62 L 267 56 L 260 54 L 259 53 L 256 53 L 255 52 L 243 53 L 242 54 L 237 55 L 232 58 L 230 58 L 228 60 L 224 62 L 216 71 L 212 79 L 211 85 L 210 86 L 210 100 L 211 101 L 211 104 L 213 107 L 213 109 L 215 111 L 216 114 L 222 120 L 227 122 L 229 124 L 229 127 L 224 134 L 223 138 L 222 139 L 222 142 L 221 143 L 221 145 L 222 146 L 222 150 L 214 158 L 211 164 L 211 170 L 217 175 L 217 178 L 214 182 L 214 184 L 213 185 L 213 190 L 219 197 L 219 211 L 217 213 L 215 213 L 214 214 L 211 214 L 206 209 L 204 204 L 198 197 L 196 196 L 190 196 L 183 189 L 183 188 L 180 185 L 177 180 L 170 173 L 170 169 L 173 162 L 174 146 L 173 145 L 173 140 L 172 139 L 172 137 L 168 130 L 164 126 L 160 124 L 157 124 L 156 123 L 150 124 L 147 126 L 144 126 L 141 123 L 137 115 L 131 109 L 127 108 L 126 107 L 116 107 L 112 109 L 105 117 L 104 117 L 97 112 L 94 112 L 93 111 L 87 111 Z M 522 440 L 524 442 L 526 449 L 527 450 L 527 461 L 526 462 L 526 465 L 523 471 L 520 474 L 519 474 L 518 473 L 518 471 L 519 470 L 519 442 L 521 440 Z M 87 118 L 94 118 L 98 120 L 107 129 L 112 141 L 113 141 L 113 120 L 114 118 L 120 113 L 126 114 L 133 121 L 137 129 L 138 135 L 139 136 L 139 139 L 140 140 L 142 140 L 151 130 L 157 130 L 159 131 L 164 137 L 165 141 L 166 142 L 166 157 L 165 158 L 165 164 L 162 171 L 162 176 L 178 193 L 178 194 L 189 208 L 190 208 L 194 204 L 195 204 L 199 208 L 206 222 L 212 229 L 214 228 L 214 223 L 216 221 L 218 221 L 222 225 L 225 231 L 225 233 L 229 240 L 234 237 L 240 243 L 245 251 L 246 250 L 246 248 L 248 246 L 250 246 L 258 255 L 263 264 L 266 267 L 268 267 L 270 265 L 269 260 L 264 252 L 261 249 L 259 245 L 254 240 L 251 239 L 247 235 L 246 231 L 245 230 L 244 230 L 242 232 L 240 232 L 236 228 L 235 224 L 234 223 L 234 209 L 228 212 L 225 208 L 226 199 L 227 198 L 227 195 L 228 194 L 229 189 L 223 190 L 221 188 L 221 183 L 227 171 L 227 168 L 220 170 L 218 168 L 218 164 L 219 162 L 230 151 L 230 139 L 237 126 L 237 124 L 239 120 L 227 114 L 221 107 L 219 100 L 218 99 L 218 86 L 219 85 L 220 80 L 224 73 L 231 66 L 234 65 L 236 63 L 243 61 L 244 60 L 247 60 L 248 59 L 255 59 L 256 60 L 262 61 L 264 63 L 265 63 L 271 69 L 272 72 L 274 73 L 282 67 L 292 62 L 294 62 L 295 61 L 299 61 L 300 60 L 300 56 L 302 54 L 320 54 L 321 53 L 321 50 L 319 47 L 319 44 L 321 42 L 325 42 L 326 43 L 328 43 L 332 45 L 334 47 L 337 48 L 339 50 L 341 50 L 348 43 L 353 40 L 356 40 L 358 42 L 358 46 L 356 49 L 357 51 L 359 51 L 360 50 L 378 50 L 379 51 L 384 51 L 385 52 L 393 53 L 394 54 L 402 56 L 406 48 L 413 41 L 421 37 L 427 36 L 428 35 L 440 35 L 441 36 L 446 37 L 453 41 L 463 52 L 466 58 L 466 61 L 467 62 L 467 73 L 466 74 L 466 76 L 463 83 L 459 87 L 459 88 L 457 90 L 454 91 L 451 94 L 451 95 L 458 103 L 464 116 L 472 126 L 469 129 L 468 129 L 468 131 L 475 134 L 483 141 L 483 144 L 481 146 L 473 146 L 472 147 L 480 155 L 480 156 L 485 161 L 487 165 L 487 168 L 485 170 L 482 170 L 479 168 L 477 168 L 477 170 L 484 184 L 484 186 L 485 187 L 485 192 L 483 194 L 477 191 L 476 192 L 476 194 L 477 195 L 477 211 L 474 214 L 472 214 L 470 212 L 469 213 L 469 215 L 468 216 L 468 222 L 467 223 L 466 228 L 463 232 L 462 235 L 454 244 L 439 254 L 439 256 L 449 258 L 451 260 L 449 262 L 448 262 L 447 264 L 451 266 L 453 266 L 463 271 L 466 274 L 464 276 L 463 276 L 462 278 L 465 281 L 470 284 L 480 294 L 479 296 L 477 296 L 474 294 L 471 294 L 470 295 L 491 317 L 494 322 L 494 324 L 497 331 L 497 334 L 499 337 L 498 339 L 498 342 L 499 343 L 499 346 L 500 347 L 501 353 L 503 356 L 503 361 L 504 362 L 504 365 L 503 366 L 503 379 L 502 380 L 502 382 L 499 386 L 497 386 L 494 382 L 494 380 L 492 378 L 491 378 L 491 391 L 490 392 L 490 394 L 486 401 L 480 407 L 476 409 L 474 409 L 472 407 L 473 405 L 473 402 L 474 401 L 474 398 L 473 398 L 470 401 L 470 402 L 461 411 L 460 411 L 451 421 L 450 421 L 448 419 L 448 416 L 447 415 L 445 416 L 434 428 L 431 429 L 428 432 L 423 435 L 421 434 L 421 428 L 422 427 L 422 424 L 420 423 L 418 424 L 413 429 L 410 434 L 403 440 L 400 440 L 398 438 L 398 436 L 396 435 L 386 440 L 384 442 L 382 442 L 380 444 L 376 445 L 367 450 L 360 452 L 358 454 L 347 454 L 344 451 L 344 448 L 347 444 L 350 438 L 350 436 L 348 435 L 334 444 L 330 444 L 326 442 L 322 438 L 322 429 L 323 428 L 323 426 L 326 423 L 330 416 L 329 415 L 326 415 L 321 418 L 315 419 L 309 414 L 309 408 L 310 406 L 319 397 L 320 397 L 325 391 L 325 389 L 324 388 L 314 388 L 312 386 L 312 384 L 314 382 L 314 381 L 322 374 L 324 374 L 328 372 L 331 372 L 332 371 L 337 371 L 338 370 L 342 370 L 343 369 L 345 369 L 349 367 L 351 365 L 354 364 L 359 360 L 366 357 L 368 355 L 372 353 L 374 353 L 387 346 L 392 345 L 395 343 L 397 343 L 400 341 L 407 339 L 414 334 L 413 333 L 406 333 L 403 335 L 399 335 L 396 332 L 396 327 L 393 325 L 390 325 L 389 327 L 390 328 L 391 334 L 385 339 L 383 339 L 380 341 L 377 341 L 372 344 L 370 344 L 362 348 L 351 356 L 337 363 L 331 364 L 330 365 L 327 365 L 326 366 L 323 366 L 312 371 L 305 378 L 305 380 L 304 381 L 304 391 L 305 392 L 305 395 L 300 402 L 298 413 L 299 414 L 299 418 L 302 424 L 310 431 L 315 440 L 316 444 L 319 447 L 320 447 L 334 457 L 340 460 L 346 461 L 347 462 L 353 462 L 354 461 L 362 460 L 363 459 L 367 459 L 371 457 L 374 457 L 375 456 L 380 455 L 383 453 L 385 453 L 387 451 L 391 449 L 398 449 L 402 451 L 408 451 L 409 450 L 413 450 L 414 449 L 416 449 L 419 447 L 421 447 L 424 445 L 428 444 L 433 440 L 436 439 L 438 437 L 444 434 L 446 434 L 447 433 L 451 433 L 457 430 L 471 420 L 478 419 L 487 415 L 489 413 L 493 411 L 498 406 L 499 406 L 503 401 L 505 401 L 507 403 L 507 405 L 504 410 L 504 415 L 511 429 L 511 432 L 507 435 L 507 438 L 508 439 L 508 442 L 509 443 L 509 446 L 510 447 L 510 451 L 511 452 L 511 467 L 509 469 L 505 469 L 504 470 L 504 483 L 503 484 L 503 489 L 502 490 L 499 501 L 497 504 L 497 506 L 494 512 L 486 522 L 484 526 L 484 530 L 485 531 L 489 530 L 496 523 L 497 523 L 499 525 L 500 527 L 500 532 L 498 536 L 498 542 L 502 546 L 502 548 L 503 549 L 503 553 L 505 557 L 505 560 L 507 563 L 507 565 L 509 568 L 510 572 L 512 574 L 515 580 L 524 589 L 536 596 L 541 601 L 546 611 L 546 627 L 545 628 L 545 632 L 544 633 L 544 636 L 541 642 L 541 644 L 539 648 L 537 650 L 536 653 L 532 658 L 531 661 L 518 675 L 517 675 L 511 680 L 509 680 L 506 682 L 503 682 L 502 683 L 496 683 L 495 682 L 496 670 L 494 668 L 491 668 L 489 670 L 489 672 L 488 673 L 488 678 L 489 679 L 490 683 L 487 686 L 484 686 L 483 687 L 473 687 L 470 684 L 470 673 L 469 672 L 466 672 L 463 676 L 463 685 L 459 688 L 453 688 L 452 687 L 449 687 L 446 684 L 446 675 L 447 674 L 447 670 L 446 669 L 444 669 L 440 672 L 438 681 L 436 683 L 433 682 L 429 677 L 429 664 L 431 661 L 431 659 L 437 652 L 439 652 L 440 651 L 445 651 L 446 650 L 458 650 L 459 649 L 467 649 L 468 648 L 471 648 L 472 647 L 481 646 L 485 644 L 491 643 L 493 641 L 495 641 L 496 639 L 488 639 L 487 640 L 484 640 L 483 641 L 474 641 L 473 642 L 465 642 L 464 643 L 443 643 L 442 642 L 439 642 L 434 638 L 433 638 L 426 631 L 422 629 L 410 617 L 410 616 L 402 607 L 399 601 L 393 593 L 388 583 L 386 581 L 386 579 L 388 577 L 391 577 L 393 575 L 393 573 L 392 572 L 387 572 L 386 573 L 383 573 L 382 574 L 359 574 L 358 573 L 346 572 L 342 570 L 339 570 L 338 569 L 327 566 L 322 563 L 320 563 L 315 560 L 313 560 L 308 557 L 306 557 L 302 555 L 300 556 L 300 558 L 303 561 L 308 563 L 312 567 L 309 570 L 298 570 L 297 571 L 297 573 L 309 586 L 310 588 L 310 593 L 309 594 L 308 602 L 305 608 L 303 610 L 301 615 L 290 624 L 280 630 L 278 630 L 277 631 L 275 631 L 268 634 L 265 634 L 264 635 L 258 636 L 254 638 L 249 638 L 248 639 L 238 640 L 237 641 L 234 641 L 233 642 L 221 642 L 219 640 L 219 637 L 218 636 L 218 630 L 216 627 L 214 627 L 212 629 L 210 636 L 214 640 L 215 640 L 217 642 L 217 643 L 213 646 L 206 645 L 194 632 L 193 633 L 193 637 L 195 639 L 195 641 L 194 642 L 192 642 L 187 638 L 186 634 L 185 633 L 185 624 L 186 623 L 186 619 L 188 615 L 194 609 L 199 606 L 202 606 L 203 605 L 225 605 L 226 604 L 229 604 L 228 602 L 225 602 L 224 601 L 219 601 L 218 600 L 215 600 L 212 598 L 210 598 L 206 594 L 203 588 L 196 579 L 192 571 L 192 568 L 190 564 L 190 561 L 189 560 L 189 557 L 188 556 L 188 553 L 187 552 L 187 549 L 186 548 L 187 537 L 186 535 L 182 532 L 182 528 L 186 520 L 188 518 L 188 516 L 190 512 L 190 506 L 191 504 L 196 499 L 200 498 L 202 496 L 202 495 L 198 492 L 198 489 L 202 485 L 213 480 L 220 475 L 224 474 L 227 472 L 229 472 L 232 470 L 235 470 L 239 473 L 242 474 L 244 476 L 245 475 L 244 473 L 233 463 L 233 458 L 232 457 L 231 457 L 227 461 L 226 461 L 224 459 L 223 457 L 223 453 L 224 452 L 224 449 L 226 446 L 226 444 L 229 437 L 227 436 L 224 439 L 222 439 L 220 437 L 220 435 L 221 434 L 223 427 L 230 418 L 233 412 L 232 410 L 230 411 L 226 411 L 224 409 L 224 406 L 225 404 L 237 391 L 237 388 L 233 388 L 231 386 L 231 385 L 232 384 L 232 382 L 237 376 L 239 372 L 239 366 L 240 365 L 240 362 L 242 358 L 242 356 L 241 355 L 241 349 L 245 341 L 245 332 L 246 331 L 249 320 L 248 319 L 244 323 L 242 327 L 242 329 L 239 334 L 239 336 L 234 345 L 232 353 L 229 356 L 228 356 L 227 355 L 224 355 L 223 354 L 220 354 L 219 353 L 215 352 L 213 350 L 214 347 L 211 345 L 204 345 L 203 344 L 198 344 L 196 343 L 194 341 L 196 334 L 194 333 L 186 332 L 185 331 L 182 331 L 181 330 L 179 330 L 178 329 L 176 329 L 169 326 L 167 324 L 167 322 L 169 320 L 172 319 L 172 317 L 170 315 L 167 315 L 164 313 L 159 312 L 149 307 L 142 300 L 142 299 L 144 297 L 150 298 L 150 296 L 146 292 L 135 285 L 122 273 L 122 272 L 114 263 L 114 262 L 110 257 L 107 250 L 105 248 L 95 224 L 85 218 L 81 214 L 76 211 L 65 200 L 65 199 L 58 190 L 58 188 L 56 185 L 56 178 L 57 176 L 61 173 L 63 173 L 64 172 L 67 172 L 68 173 L 69 172 L 67 167 L 64 163 L 64 161 L 61 155 L 61 148 L 62 147 L 62 145 L 65 142 L 72 140 L 80 144 L 87 151 L 88 151 L 82 139 L 81 133 L 80 132 L 81 124 Z" fill="#010101" fill-rule="evenodd"/></svg>