<svg xmlns="http://www.w3.org/2000/svg" viewBox="0 0 653 704" shape-rendering="geometricPrecision"><title>intro frame 008</title><path d="M 367 647 L 364 645 L 357 645 L 351 653 L 346 653 L 345 654 L 346 661 L 347 662 L 351 659 L 351 656 L 352 655 L 359 656 L 361 658 L 365 658 L 366 655 L 368 653 L 368 649 Z M 384 642 L 382 642 L 378 649 L 378 653 L 382 658 L 383 656 L 387 653 L 389 649 L 389 647 L 388 647 Z M 428 524 L 426 522 L 422 522 L 417 519 L 413 519 L 405 514 L 403 514 L 401 516 L 396 514 L 394 512 L 394 510 L 391 510 L 390 509 L 390 507 L 384 507 L 381 504 L 381 501 L 377 497 L 372 494 L 369 496 L 364 496 L 360 498 L 353 505 L 352 505 L 349 509 L 338 516 L 337 518 L 330 524 L 328 528 L 329 530 L 329 534 L 320 544 L 320 547 L 321 548 L 321 553 L 320 554 L 320 577 L 322 579 L 322 581 L 330 587 L 333 587 L 338 591 L 344 591 L 345 592 L 354 591 L 355 592 L 358 592 L 361 594 L 369 594 L 373 596 L 377 593 L 381 593 L 384 590 L 401 591 L 405 589 L 406 587 L 402 584 L 404 581 L 406 581 L 405 573 L 395 562 L 395 556 L 397 554 L 403 552 L 404 548 L 402 545 L 402 542 L 404 540 L 407 539 L 417 539 L 429 527 Z M 372 298 L 369 301 L 371 304 L 373 300 Z M 86 197 L 84 197 L 79 201 L 81 203 L 82 206 L 85 202 Z M 271 181 L 271 190 L 273 194 L 276 194 L 279 196 L 281 195 L 282 192 L 276 186 L 275 183 L 273 181 Z M 90 182 L 88 186 L 88 189 L 94 187 L 99 182 L 105 178 L 107 178 L 109 176 L 117 176 L 119 175 L 121 177 L 124 177 L 130 180 L 139 189 L 140 192 L 142 194 L 142 206 L 138 214 L 123 226 L 120 227 L 118 229 L 116 229 L 114 231 L 112 231 L 109 233 L 105 233 L 104 234 L 94 234 L 91 233 L 86 228 L 81 219 L 76 223 L 76 226 L 78 229 L 84 235 L 87 237 L 89 237 L 93 240 L 98 247 L 99 252 L 101 253 L 111 264 L 113 268 L 121 276 L 121 277 L 139 293 L 167 311 L 170 312 L 177 312 L 179 314 L 188 315 L 191 318 L 191 322 L 187 326 L 189 327 L 191 326 L 196 326 L 202 328 L 208 332 L 211 332 L 212 333 L 214 332 L 223 332 L 226 335 L 226 337 L 220 343 L 222 345 L 225 346 L 228 345 L 232 346 L 238 344 L 244 335 L 244 331 L 246 329 L 246 326 L 248 323 L 249 313 L 254 306 L 255 299 L 258 293 L 258 284 L 255 278 L 250 273 L 246 276 L 243 276 L 237 271 L 234 266 L 234 264 L 232 264 L 230 266 L 226 266 L 220 259 L 215 249 L 211 254 L 207 254 L 198 244 L 192 233 L 188 233 L 186 234 L 176 224 L 174 220 L 166 212 L 161 204 L 155 198 L 154 191 L 156 188 L 157 180 L 155 180 L 149 188 L 146 188 L 140 185 L 138 185 L 135 182 L 132 170 L 130 170 L 126 173 L 120 174 L 114 171 L 110 171 L 107 169 L 104 175 L 99 180 L 96 180 L 93 182 Z M 199 314 L 203 312 L 208 313 L 209 314 L 209 318 L 207 320 L 204 320 L 199 317 Z M 196 297 L 199 299 L 199 308 L 197 310 L 194 308 L 194 299 Z M 439 60 L 433 60 L 432 59 L 423 60 L 421 62 L 419 62 L 413 65 L 409 68 L 405 76 L 405 78 L 402 81 L 399 81 L 396 79 L 391 79 L 387 77 L 383 77 L 378 75 L 361 75 L 360 76 L 354 76 L 351 73 L 352 71 L 352 65 L 351 65 L 347 70 L 342 74 L 334 73 L 330 69 L 325 68 L 326 76 L 324 78 L 310 79 L 306 83 L 300 85 L 297 85 L 293 87 L 290 87 L 288 89 L 284 90 L 279 94 L 273 97 L 267 89 L 263 86 L 257 85 L 256 84 L 249 84 L 248 85 L 240 84 L 235 86 L 228 93 L 228 95 L 224 103 L 223 117 L 226 123 L 226 125 L 232 131 L 237 132 L 243 136 L 242 143 L 240 145 L 239 149 L 237 151 L 234 159 L 234 162 L 235 163 L 235 171 L 232 173 L 228 178 L 228 180 L 232 184 L 231 192 L 228 196 L 234 203 L 231 212 L 231 215 L 230 216 L 230 220 L 231 221 L 232 220 L 235 220 L 238 223 L 239 226 L 238 238 L 241 240 L 245 239 L 249 244 L 249 248 L 250 250 L 253 253 L 255 253 L 263 263 L 269 265 L 273 265 L 289 278 L 291 283 L 291 286 L 289 288 L 284 288 L 280 285 L 275 284 L 272 285 L 268 289 L 266 298 L 262 305 L 262 308 L 263 309 L 261 315 L 258 317 L 258 324 L 256 329 L 254 331 L 254 337 L 250 347 L 250 354 L 252 356 L 252 362 L 256 363 L 259 366 L 259 371 L 257 373 L 255 378 L 246 388 L 245 391 L 242 394 L 243 407 L 236 418 L 236 420 L 241 424 L 241 427 L 237 434 L 233 438 L 233 443 L 236 444 L 238 446 L 239 450 L 238 451 L 238 454 L 233 462 L 232 470 L 238 466 L 241 468 L 241 480 L 240 481 L 240 484 L 241 486 L 246 490 L 246 493 L 247 494 L 247 506 L 249 510 L 252 511 L 254 513 L 260 513 L 264 517 L 267 517 L 269 520 L 271 521 L 270 524 L 271 527 L 274 527 L 275 526 L 274 523 L 274 511 L 273 510 L 275 504 L 275 500 L 279 495 L 282 497 L 281 521 L 285 529 L 286 534 L 289 537 L 290 540 L 294 543 L 297 543 L 298 542 L 299 538 L 302 535 L 302 533 L 307 527 L 311 519 L 325 506 L 327 502 L 340 491 L 342 487 L 345 484 L 349 484 L 351 482 L 358 481 L 361 479 L 368 478 L 372 476 L 370 470 L 364 467 L 360 463 L 360 461 L 358 459 L 358 456 L 355 449 L 355 445 L 353 443 L 351 444 L 349 442 L 350 437 L 347 434 L 346 431 L 346 423 L 344 419 L 345 418 L 345 413 L 346 412 L 349 412 L 350 410 L 340 410 L 338 408 L 338 395 L 341 393 L 344 389 L 349 389 L 351 391 L 352 394 L 354 395 L 359 394 L 361 396 L 360 397 L 360 399 L 361 399 L 363 397 L 369 397 L 374 395 L 378 392 L 381 387 L 377 389 L 374 387 L 374 380 L 375 379 L 374 377 L 374 371 L 375 369 L 374 368 L 368 370 L 366 368 L 365 365 L 363 364 L 355 363 L 335 356 L 332 356 L 328 353 L 329 348 L 335 343 L 335 340 L 327 332 L 327 328 L 329 326 L 329 324 L 332 321 L 337 320 L 340 318 L 342 320 L 342 324 L 341 325 L 340 333 L 339 334 L 340 336 L 337 340 L 341 341 L 345 346 L 349 348 L 350 347 L 349 339 L 352 336 L 357 336 L 362 340 L 362 347 L 364 350 L 367 351 L 371 355 L 373 355 L 375 357 L 380 357 L 383 359 L 386 359 L 389 362 L 392 360 L 393 356 L 387 350 L 386 347 L 380 343 L 380 337 L 382 333 L 389 335 L 395 341 L 397 341 L 413 351 L 423 351 L 431 354 L 432 359 L 430 362 L 409 384 L 399 396 L 391 403 L 376 411 L 366 419 L 365 424 L 367 426 L 372 426 L 375 424 L 378 424 L 379 423 L 384 423 L 386 426 L 386 428 L 375 442 L 375 449 L 377 451 L 381 451 L 382 450 L 385 451 L 389 448 L 393 440 L 400 440 L 405 446 L 409 445 L 413 447 L 415 449 L 415 452 L 420 454 L 422 456 L 421 460 L 423 462 L 426 462 L 429 464 L 433 459 L 434 451 L 437 447 L 442 443 L 442 440 L 444 438 L 449 437 L 453 431 L 456 430 L 458 427 L 465 421 L 469 421 L 471 417 L 478 418 L 481 415 L 483 415 L 487 410 L 487 406 L 488 405 L 488 401 L 489 399 L 495 393 L 500 391 L 500 387 L 502 384 L 502 380 L 508 373 L 508 369 L 510 365 L 511 357 L 507 353 L 506 349 L 502 343 L 502 341 L 495 332 L 493 322 L 486 316 L 484 316 L 469 300 L 464 297 L 462 297 L 458 294 L 452 287 L 443 283 L 439 283 L 435 280 L 428 280 L 427 281 L 417 282 L 409 288 L 407 288 L 404 285 L 402 285 L 400 288 L 397 290 L 395 290 L 393 288 L 393 284 L 397 275 L 406 268 L 409 267 L 409 266 L 426 250 L 426 245 L 436 233 L 435 226 L 438 223 L 442 223 L 443 224 L 445 220 L 444 217 L 449 213 L 448 204 L 453 202 L 449 197 L 448 194 L 451 191 L 456 191 L 460 194 L 463 191 L 466 191 L 467 190 L 467 187 L 471 183 L 473 183 L 475 181 L 475 179 L 465 166 L 466 161 L 469 157 L 462 151 L 460 140 L 457 134 L 454 131 L 453 126 L 449 121 L 444 117 L 443 114 L 446 110 L 452 107 L 458 101 L 461 94 L 461 81 L 457 74 L 451 67 L 447 65 L 444 62 Z M 262 484 L 265 486 L 265 504 L 263 507 L 260 506 L 257 500 L 258 497 L 257 492 L 259 487 Z M 257 460 L 259 462 L 259 467 L 257 471 L 256 477 L 254 479 L 252 479 L 250 475 L 252 469 L 252 466 Z M 255 429 L 257 431 L 257 436 L 254 444 L 256 447 L 256 452 L 252 460 L 247 464 L 245 462 L 245 458 L 246 455 L 248 453 L 248 448 L 246 445 L 246 442 L 248 440 L 250 433 Z M 287 392 L 288 393 L 288 396 L 286 398 L 284 398 L 281 402 L 278 402 L 276 400 L 280 395 Z M 284 373 L 284 371 L 286 369 L 289 371 L 286 374 Z M 300 375 L 300 373 L 306 367 L 312 367 L 315 370 L 315 372 L 307 378 L 303 378 Z M 277 350 L 280 350 L 283 353 L 279 359 L 275 359 L 273 357 L 274 352 Z M 316 340 L 316 342 L 308 350 L 306 350 L 303 352 L 299 352 L 296 354 L 292 354 L 290 352 L 293 346 L 299 339 L 306 341 L 309 338 L 312 338 L 313 337 Z M 389 276 L 389 279 L 387 283 L 376 295 L 377 297 L 377 301 L 378 302 L 378 313 L 376 319 L 373 322 L 373 324 L 371 326 L 369 325 L 365 325 L 362 321 L 360 322 L 356 322 L 354 320 L 354 314 L 353 313 L 352 314 L 351 313 L 348 314 L 342 314 L 339 313 L 336 310 L 331 308 L 322 301 L 320 301 L 315 296 L 309 293 L 307 291 L 306 288 L 306 285 L 311 280 L 313 281 L 317 281 L 318 282 L 322 282 L 323 283 L 327 283 L 328 284 L 343 284 L 349 282 L 355 282 L 360 280 L 364 280 L 383 273 L 386 273 Z M 371 164 L 372 161 L 374 159 L 385 153 L 399 152 L 400 153 L 404 153 L 410 155 L 415 158 L 421 164 L 422 166 L 422 172 L 420 176 L 415 181 L 413 181 L 411 183 L 408 183 L 407 184 L 393 184 L 390 182 L 384 181 L 374 174 L 371 170 Z M 276 132 L 280 131 L 286 137 L 288 141 L 288 150 L 287 151 L 288 154 L 291 154 L 292 153 L 292 150 L 298 144 L 309 140 L 321 140 L 326 142 L 331 146 L 331 150 L 329 152 L 322 152 L 316 150 L 307 150 L 306 151 L 302 151 L 299 153 L 301 153 L 304 155 L 307 154 L 319 160 L 324 166 L 324 174 L 322 178 L 312 188 L 306 191 L 308 194 L 314 196 L 318 196 L 319 197 L 326 197 L 327 198 L 337 196 L 349 190 L 356 183 L 357 180 L 360 177 L 363 178 L 369 186 L 370 189 L 370 203 L 371 204 L 371 208 L 370 209 L 370 218 L 369 219 L 368 230 L 360 250 L 355 256 L 345 264 L 330 269 L 327 268 L 321 268 L 318 266 L 316 266 L 310 262 L 295 246 L 293 242 L 288 236 L 282 225 L 282 223 L 280 220 L 280 214 L 277 210 L 273 209 L 271 207 L 268 206 L 264 202 L 260 196 L 259 190 L 258 189 L 251 194 L 246 194 L 245 195 L 238 194 L 235 191 L 235 189 L 233 186 L 233 181 L 236 177 L 237 173 L 240 170 L 243 170 L 246 167 L 249 167 L 250 166 L 258 166 L 263 169 L 270 169 L 273 163 L 268 158 L 268 146 L 272 136 Z M 359 128 L 365 128 L 367 129 L 370 132 L 370 134 L 373 137 L 374 140 L 374 148 L 373 149 L 372 155 L 366 162 L 360 162 L 358 161 L 354 157 L 351 151 L 351 142 L 352 141 L 353 135 Z M 293 99 L 294 102 L 293 104 L 285 111 L 282 112 L 280 114 L 277 114 L 276 115 L 272 115 L 270 113 L 269 108 L 271 103 L 274 100 L 284 95 L 288 95 Z M 253 93 L 262 99 L 263 101 L 263 107 L 259 111 L 252 123 L 248 127 L 242 128 L 239 126 L 234 120 L 232 114 L 233 107 L 235 102 L 241 96 L 245 95 L 248 93 Z M 356 91 L 361 85 L 368 85 L 376 89 L 380 93 L 382 99 L 381 101 L 377 104 L 369 103 L 365 100 L 360 99 L 356 95 Z M 429 69 L 436 70 L 443 74 L 451 84 L 451 92 L 449 97 L 443 104 L 438 106 L 434 104 L 423 94 L 418 91 L 414 85 L 416 82 L 416 80 L 425 71 L 427 71 Z" fill="#FBFBFB" fill-rule="evenodd"/><path d="M 396 676 L 396 679 L 403 679 L 404 678 L 401 675 L 397 675 Z M 292 601 L 297 611 L 299 613 L 299 615 L 301 617 L 302 621 L 312 637 L 315 640 L 318 641 L 323 645 L 323 653 L 321 659 L 321 674 L 323 679 L 331 686 L 323 678 L 321 673 L 321 660 L 322 659 L 323 651 L 324 650 L 324 644 L 321 643 L 319 641 L 317 641 L 310 634 Z M 296 572 L 295 574 L 297 580 L 300 585 L 302 586 L 302 580 L 300 577 L 300 575 Z M 236 521 L 243 534 L 261 551 L 272 557 L 279 564 L 281 579 L 284 585 L 281 578 L 281 575 L 280 574 L 280 566 L 278 563 L 278 561 L 276 559 L 263 552 L 250 541 L 240 529 Z M 542 492 L 542 494 L 535 506 L 526 515 L 512 523 L 506 529 L 500 540 L 487 554 L 474 563 L 470 567 L 468 567 L 458 572 L 458 580 L 461 581 L 464 584 L 464 589 L 462 592 L 462 598 L 461 599 L 461 611 L 473 632 L 474 639 L 475 640 L 475 649 L 474 650 L 474 654 L 473 656 L 475 650 L 475 637 L 474 636 L 474 629 L 473 626 L 482 618 L 482 616 L 484 613 L 484 605 L 482 602 L 477 587 L 474 584 L 474 580 L 471 575 L 471 570 L 470 568 L 482 557 L 484 557 L 488 554 L 488 553 L 500 541 L 506 530 L 513 523 L 520 518 L 522 518 L 534 508 L 538 502 L 542 494 Z M 394 491 L 391 491 L 390 490 L 377 490 L 376 491 L 367 492 L 361 495 L 344 511 L 336 516 L 332 521 L 323 529 L 326 532 L 326 534 L 317 545 L 317 547 L 319 550 L 319 554 L 317 559 L 317 562 L 318 563 L 318 578 L 320 581 L 322 588 L 327 596 L 336 605 L 340 607 L 345 607 L 354 621 L 361 620 L 365 623 L 367 623 L 370 625 L 382 626 L 384 627 L 387 631 L 387 634 L 383 637 L 376 637 L 370 640 L 361 640 L 358 642 L 356 642 L 353 646 L 343 655 L 341 659 L 341 665 L 344 669 L 345 669 L 348 664 L 355 658 L 356 658 L 364 666 L 366 666 L 368 662 L 368 655 L 371 651 L 374 651 L 378 655 L 378 659 L 381 664 L 391 663 L 396 659 L 405 660 L 409 656 L 413 650 L 413 648 L 418 643 L 418 641 L 421 636 L 434 624 L 440 612 L 440 606 L 441 605 L 441 588 L 438 582 L 435 583 L 420 582 L 416 577 L 414 577 L 410 573 L 410 571 L 412 569 L 412 562 L 415 559 L 415 556 L 409 550 L 409 548 L 407 546 L 409 544 L 412 545 L 418 544 L 422 540 L 425 539 L 431 539 L 442 531 L 446 525 L 446 520 L 441 516 L 439 516 L 434 513 L 431 513 L 428 511 L 424 513 L 422 511 L 418 511 L 408 506 L 405 503 L 404 499 L 402 498 L 399 494 L 396 493 Z M 368 647 L 369 649 L 369 653 L 365 659 L 361 659 L 359 657 L 352 656 L 352 659 L 349 662 L 347 663 L 345 661 L 344 654 L 346 652 L 351 652 L 353 648 L 357 644 L 364 644 Z M 384 641 L 385 643 L 390 647 L 390 649 L 388 653 L 385 655 L 382 659 L 377 653 L 377 649 L 381 642 Z M 429 524 L 430 527 L 417 540 L 407 540 L 403 542 L 403 545 L 405 548 L 404 552 L 402 554 L 396 556 L 396 562 L 406 573 L 407 581 L 403 583 L 403 584 L 407 587 L 405 590 L 401 592 L 384 591 L 381 594 L 377 594 L 373 597 L 369 595 L 361 595 L 358 593 L 355 593 L 354 592 L 351 592 L 350 593 L 338 592 L 333 588 L 330 588 L 321 581 L 321 579 L 319 577 L 319 554 L 320 553 L 319 544 L 328 534 L 328 530 L 327 528 L 329 524 L 334 520 L 338 515 L 349 508 L 350 506 L 360 497 L 364 495 L 369 495 L 372 493 L 377 496 L 382 501 L 382 504 L 384 506 L 390 506 L 391 509 L 394 509 L 396 513 L 400 515 L 403 513 L 405 513 L 413 518 L 417 518 L 422 521 L 426 521 Z M 263 485 L 260 487 L 258 492 L 258 495 L 259 496 L 258 500 L 261 506 L 263 506 L 264 504 L 264 486 Z M 363 480 L 361 480 L 358 482 L 351 483 L 349 485 L 345 485 L 341 491 L 330 500 L 326 505 L 337 495 L 348 488 L 353 486 L 356 483 Z M 257 461 L 253 466 L 253 469 L 251 474 L 252 478 L 254 478 L 256 474 L 256 471 L 258 467 L 258 462 Z M 255 430 L 251 433 L 249 440 L 247 442 L 247 445 L 249 448 L 249 453 L 247 455 L 246 458 L 246 462 L 247 463 L 251 460 L 255 452 L 255 447 L 253 444 L 256 436 L 256 431 Z M 520 406 L 517 415 L 517 421 L 516 422 L 516 425 L 517 426 L 517 435 L 517 422 L 518 421 L 518 415 L 519 414 Z M 287 393 L 280 396 L 277 400 L 278 401 L 281 401 L 284 397 L 287 396 Z M 314 370 L 312 368 L 306 368 L 301 373 L 301 375 L 303 377 L 307 377 L 313 373 Z M 429 362 L 389 403 L 385 405 L 391 402 L 396 398 Z M 282 353 L 280 351 L 277 351 L 275 352 L 274 357 L 275 358 L 279 358 Z M 171 342 L 177 345 L 183 345 L 184 343 L 181 341 L 172 341 Z M 315 340 L 313 338 L 312 339 L 309 339 L 306 342 L 299 340 L 294 346 L 291 352 L 292 353 L 296 353 L 299 351 L 303 351 L 306 349 L 308 349 L 315 342 Z M 340 319 L 337 321 L 332 322 L 328 328 L 328 332 L 336 340 L 336 343 L 330 348 L 329 353 L 332 355 L 335 355 L 355 362 L 363 363 L 366 365 L 368 369 L 374 367 L 376 369 L 375 371 L 375 377 L 376 378 L 375 380 L 375 387 L 376 388 L 380 386 L 382 387 L 379 392 L 374 396 L 369 398 L 363 398 L 361 400 L 359 399 L 360 396 L 359 395 L 354 396 L 351 394 L 349 390 L 344 390 L 343 392 L 339 395 L 339 408 L 340 409 L 350 409 L 351 410 L 349 413 L 346 413 L 346 418 L 345 420 L 347 423 L 347 431 L 348 434 L 351 437 L 350 442 L 351 443 L 353 442 L 356 445 L 356 449 L 359 456 L 359 459 L 361 461 L 361 463 L 364 466 L 370 469 L 373 474 L 372 477 L 368 479 L 365 479 L 369 479 L 377 476 L 379 473 L 367 466 L 360 458 L 360 456 L 356 447 L 355 441 L 348 430 L 348 419 L 352 411 L 361 401 L 363 401 L 379 393 L 389 382 L 392 377 L 402 368 L 403 366 L 403 358 L 394 350 L 396 347 L 400 347 L 408 350 L 415 357 L 421 353 L 428 354 L 431 357 L 430 360 L 431 359 L 430 354 L 427 354 L 423 352 L 413 352 L 406 347 L 399 344 L 397 342 L 395 342 L 389 336 L 384 334 L 382 334 L 381 337 L 381 343 L 384 344 L 387 347 L 388 350 L 394 356 L 393 360 L 390 363 L 386 360 L 383 360 L 380 358 L 375 358 L 373 356 L 371 356 L 367 352 L 364 351 L 361 347 L 361 340 L 357 337 L 352 337 L 350 339 L 351 347 L 349 349 L 345 347 L 341 342 L 339 342 L 336 340 L 339 336 L 338 334 L 339 333 L 339 329 L 341 324 L 341 320 Z M 200 314 L 200 317 L 204 319 L 207 319 L 208 318 L 208 314 L 205 313 Z M 497 304 L 517 329 L 522 340 L 524 342 L 524 344 L 530 357 L 530 355 L 525 346 L 523 340 L 521 338 L 521 336 L 518 332 L 518 330 L 507 317 L 503 310 Z M 196 298 L 195 299 L 195 308 L 197 309 L 198 308 L 198 299 Z M 388 276 L 386 274 L 383 274 L 364 281 L 360 281 L 355 283 L 349 283 L 343 285 L 328 285 L 327 284 L 323 284 L 322 283 L 318 283 L 317 282 L 313 282 L 311 281 L 307 285 L 307 288 L 309 292 L 312 293 L 320 300 L 322 300 L 325 303 L 336 309 L 339 312 L 342 313 L 348 313 L 349 312 L 352 313 L 353 312 L 355 314 L 355 320 L 356 321 L 360 321 L 362 320 L 365 324 L 369 324 L 371 325 L 372 322 L 375 319 L 377 313 L 377 302 L 376 301 L 376 297 L 375 295 L 386 283 L 388 279 Z M 372 297 L 374 300 L 373 303 L 371 305 L 368 301 Z M 386 278 L 384 283 L 371 296 L 357 307 L 353 308 L 348 311 L 342 311 L 336 309 L 321 299 L 309 289 L 309 286 L 312 283 L 320 284 L 325 286 L 343 286 L 344 285 L 350 285 L 351 284 L 356 284 L 357 283 L 364 282 L 381 276 L 384 276 Z M 89 266 L 93 275 L 95 277 L 95 279 L 98 282 L 104 292 L 116 305 L 126 312 L 128 315 L 129 323 L 136 331 L 145 336 L 149 337 L 155 343 L 155 345 L 159 350 L 162 351 L 164 353 L 166 353 L 170 356 L 177 357 L 186 367 L 193 369 L 187 367 L 183 363 L 180 358 L 169 355 L 161 351 L 156 346 L 152 338 L 146 336 L 137 331 L 129 323 L 128 320 L 128 314 L 123 309 L 119 307 L 108 296 L 95 278 Z M 482 234 L 482 236 L 480 239 L 475 244 L 471 254 L 463 264 L 461 270 L 469 279 L 479 285 L 494 299 L 478 284 L 472 281 L 464 273 L 462 269 L 464 263 L 470 256 L 474 246 L 481 238 Z M 181 209 L 186 215 L 195 215 L 199 219 L 204 228 L 208 232 L 214 232 L 217 230 L 217 223 L 217 228 L 214 231 L 209 232 L 202 225 L 197 216 L 195 215 L 187 215 Z M 45 209 L 47 217 L 49 219 L 52 226 L 63 237 L 69 241 L 74 246 L 81 250 L 84 253 L 86 258 L 85 254 L 81 250 L 73 245 L 53 226 L 46 214 Z M 372 164 L 372 170 L 374 173 L 384 180 L 387 180 L 393 183 L 407 183 L 408 182 L 411 182 L 413 180 L 415 180 L 419 176 L 421 172 L 421 166 L 415 159 L 410 156 L 404 154 L 400 154 L 399 153 L 385 154 L 374 160 Z M 373 164 L 382 156 L 388 154 L 400 154 L 401 155 L 406 155 L 414 159 L 420 165 L 421 167 L 421 171 L 420 174 L 415 179 L 411 181 L 404 182 L 403 183 L 392 182 L 379 176 L 373 170 Z M 238 148 L 233 158 L 233 170 L 225 180 L 225 183 L 229 183 L 230 184 L 230 189 L 226 197 L 226 202 L 231 202 L 232 203 L 232 207 L 231 208 L 228 222 L 230 224 L 235 223 L 237 225 L 237 242 L 238 243 L 241 243 L 245 241 L 247 243 L 248 247 L 248 244 L 245 240 L 241 241 L 237 238 L 237 231 L 238 230 L 237 223 L 235 221 L 232 221 L 231 222 L 229 220 L 229 216 L 230 215 L 230 212 L 233 203 L 227 196 L 230 192 L 230 187 L 231 186 L 231 184 L 227 180 L 227 178 L 228 176 L 234 171 L 234 163 L 233 162 L 233 159 L 234 158 L 234 155 Z M 84 146 L 81 150 L 81 153 L 86 149 L 90 149 L 92 150 L 96 154 L 102 163 L 104 168 L 104 171 L 103 173 L 97 178 L 86 179 L 76 171 L 70 169 L 65 169 L 62 172 L 62 176 L 67 172 L 71 172 L 78 176 L 86 186 L 86 192 L 80 197 L 71 196 L 69 198 L 60 198 L 57 200 L 56 202 L 56 206 L 59 211 L 60 210 L 61 204 L 64 201 L 67 200 L 71 200 L 79 206 L 80 208 L 80 215 L 76 218 L 70 218 L 63 215 L 63 217 L 67 222 L 83 237 L 90 241 L 95 246 L 100 257 L 100 259 L 106 271 L 115 284 L 120 288 L 120 286 L 116 283 L 116 281 L 113 278 L 114 275 L 119 278 L 129 289 L 138 296 L 141 297 L 144 300 L 151 304 L 154 307 L 156 307 L 158 309 L 160 309 L 172 315 L 180 316 L 186 318 L 188 321 L 182 326 L 182 329 L 183 330 L 200 330 L 205 334 L 209 334 L 210 335 L 218 334 L 221 337 L 214 344 L 214 346 L 217 348 L 224 348 L 225 349 L 234 349 L 235 348 L 238 348 L 241 345 L 241 343 L 243 341 L 243 339 L 248 331 L 248 327 L 249 325 L 252 322 L 255 324 L 255 326 L 252 330 L 252 339 L 248 349 L 248 360 L 246 364 L 245 370 L 247 370 L 253 366 L 255 366 L 257 368 L 257 370 L 253 377 L 246 385 L 242 391 L 242 393 L 238 398 L 238 400 L 242 403 L 242 406 L 241 409 L 234 417 L 232 421 L 233 423 L 237 422 L 239 424 L 239 429 L 232 438 L 232 440 L 229 446 L 230 448 L 231 447 L 235 447 L 237 449 L 236 454 L 232 462 L 230 472 L 233 473 L 236 470 L 239 471 L 239 480 L 238 481 L 237 494 L 238 495 L 242 490 L 245 494 L 245 506 L 246 507 L 246 511 L 251 521 L 256 526 L 260 526 L 262 528 L 269 531 L 281 540 L 282 538 L 284 537 L 289 543 L 290 546 L 296 551 L 297 554 L 298 554 L 298 545 L 304 533 L 309 526 L 311 521 L 325 507 L 312 519 L 308 527 L 303 533 L 303 535 L 300 538 L 299 542 L 297 544 L 294 544 L 289 540 L 288 537 L 285 534 L 284 529 L 280 521 L 281 497 L 279 496 L 277 498 L 275 508 L 274 509 L 275 511 L 275 523 L 276 526 L 274 528 L 271 528 L 269 526 L 270 521 L 269 521 L 267 518 L 264 518 L 260 514 L 254 514 L 248 510 L 246 506 L 246 494 L 245 493 L 245 490 L 241 487 L 239 484 L 239 481 L 240 480 L 240 468 L 238 467 L 233 471 L 231 470 L 232 462 L 237 454 L 237 451 L 238 450 L 237 446 L 232 443 L 232 438 L 236 434 L 240 427 L 240 424 L 235 420 L 235 418 L 242 407 L 241 394 L 244 391 L 245 388 L 254 378 L 256 373 L 258 371 L 258 366 L 256 364 L 254 364 L 251 362 L 251 356 L 249 354 L 249 347 L 253 337 L 253 331 L 255 329 L 257 324 L 257 317 L 259 316 L 262 310 L 261 305 L 265 298 L 267 289 L 272 284 L 275 283 L 280 284 L 284 287 L 289 287 L 290 286 L 290 283 L 288 278 L 273 266 L 269 266 L 263 264 L 255 254 L 253 254 L 249 249 L 250 253 L 257 257 L 267 271 L 270 269 L 274 269 L 284 276 L 288 281 L 288 284 L 285 285 L 283 283 L 281 283 L 277 279 L 274 278 L 272 281 L 272 284 L 269 287 L 267 288 L 263 288 L 259 284 L 257 279 L 250 270 L 248 270 L 248 272 L 246 274 L 243 274 L 239 270 L 233 259 L 231 260 L 231 262 L 229 264 L 227 264 L 221 258 L 218 249 L 215 245 L 213 246 L 213 249 L 210 252 L 208 252 L 199 243 L 194 234 L 194 232 L 192 230 L 190 230 L 188 232 L 184 231 L 175 219 L 156 197 L 156 191 L 158 186 L 158 179 L 159 178 L 159 169 L 156 160 L 152 156 L 147 156 L 147 157 L 149 157 L 154 163 L 155 166 L 155 174 L 152 182 L 149 185 L 145 186 L 140 184 L 138 182 L 136 177 L 136 173 L 142 163 L 141 162 L 135 168 L 132 165 L 129 155 L 125 150 L 125 147 L 123 147 L 128 158 L 128 162 L 129 163 L 128 168 L 125 171 L 117 171 L 114 168 L 112 167 L 108 167 L 106 165 L 102 156 L 95 148 L 92 147 L 90 145 Z M 257 309 L 259 312 L 254 316 L 253 315 L 253 312 Z M 86 196 L 87 197 L 86 202 L 82 207 L 78 201 L 84 196 Z M 131 183 L 138 190 L 141 196 L 141 205 L 139 208 L 139 210 L 135 215 L 125 223 L 107 232 L 94 232 L 90 230 L 86 226 L 83 220 L 83 209 L 85 206 L 85 204 L 89 195 L 99 184 L 105 180 L 111 178 L 122 178 Z M 90 181 L 93 181 L 96 179 L 99 179 L 103 175 L 105 170 L 107 168 L 110 170 L 114 170 L 120 173 L 123 173 L 130 169 L 132 169 L 134 172 L 136 182 L 138 184 L 140 184 L 146 187 L 149 187 L 154 180 L 157 179 L 158 180 L 158 184 L 157 185 L 157 188 L 155 191 L 156 198 L 162 204 L 167 212 L 175 220 L 177 224 L 186 233 L 188 232 L 192 232 L 199 244 L 207 253 L 211 253 L 215 248 L 217 250 L 221 259 L 226 265 L 230 265 L 232 263 L 234 263 L 238 271 L 243 275 L 246 275 L 250 272 L 256 278 L 259 284 L 259 293 L 256 299 L 255 306 L 250 313 L 249 323 L 247 326 L 247 329 L 245 331 L 245 335 L 241 342 L 238 345 L 232 347 L 229 346 L 227 347 L 222 346 L 219 343 L 225 337 L 225 335 L 223 333 L 214 333 L 212 334 L 211 333 L 208 333 L 202 329 L 196 327 L 191 327 L 190 328 L 186 326 L 190 322 L 190 318 L 188 316 L 179 315 L 177 313 L 170 313 L 167 312 L 139 294 L 120 277 L 120 276 L 112 268 L 110 264 L 102 256 L 102 255 L 98 252 L 97 247 L 92 240 L 84 236 L 77 229 L 75 226 L 75 223 L 81 218 L 87 228 L 91 232 L 94 233 L 104 233 L 105 232 L 109 232 L 112 230 L 114 230 L 116 228 L 118 228 L 120 226 L 123 225 L 137 214 L 141 206 L 141 194 L 139 192 L 138 189 L 130 181 L 124 178 L 121 178 L 119 176 L 117 177 L 109 177 L 107 179 L 105 179 L 99 183 L 94 188 L 88 190 L 87 189 L 87 186 L 88 183 Z M 352 142 L 352 151 L 355 157 L 360 161 L 366 161 L 370 157 L 372 150 L 370 156 L 366 160 L 360 160 L 354 155 L 352 151 Z M 276 133 L 273 136 L 270 144 L 271 140 L 275 135 L 277 134 L 281 134 L 287 141 L 287 150 L 284 155 L 285 157 L 288 156 L 307 156 L 308 157 L 311 157 L 317 160 L 323 166 L 323 173 L 322 176 L 315 184 L 308 188 L 299 191 L 290 191 L 289 190 L 286 190 L 280 187 L 275 182 L 273 178 L 271 177 L 270 178 L 270 192 L 275 198 L 277 199 L 285 199 L 286 198 L 290 198 L 294 195 L 303 195 L 304 196 L 309 196 L 313 198 L 331 199 L 332 198 L 338 197 L 351 190 L 360 180 L 362 180 L 366 184 L 369 193 L 369 217 L 368 218 L 368 224 L 367 225 L 366 232 L 363 241 L 359 249 L 353 256 L 345 262 L 339 265 L 331 266 L 330 267 L 321 266 L 310 260 L 292 240 L 283 225 L 281 219 L 280 211 L 270 206 L 262 197 L 260 192 L 260 181 L 258 182 L 257 186 L 249 192 L 239 192 L 236 189 L 235 187 L 235 180 L 242 172 L 251 168 L 258 168 L 262 171 L 270 171 L 272 169 L 274 163 L 269 157 L 269 146 L 269 158 L 274 163 L 272 168 L 270 170 L 263 170 L 258 167 L 250 167 L 249 168 L 246 168 L 243 171 L 240 171 L 238 173 L 237 177 L 234 181 L 234 186 L 236 189 L 236 191 L 238 193 L 245 194 L 246 193 L 251 193 L 258 188 L 260 190 L 261 196 L 265 202 L 268 205 L 271 206 L 273 208 L 277 209 L 280 212 L 281 214 L 281 220 L 283 223 L 283 225 L 289 236 L 294 242 L 296 246 L 310 261 L 316 265 L 318 265 L 321 267 L 327 267 L 330 268 L 345 263 L 355 255 L 359 250 L 367 230 L 368 219 L 369 218 L 369 209 L 370 208 L 370 204 L 369 203 L 369 189 L 368 186 L 366 184 L 365 181 L 363 179 L 360 178 L 358 180 L 357 183 L 349 191 L 337 197 L 327 199 L 326 198 L 319 198 L 318 197 L 314 197 L 308 195 L 305 191 L 307 189 L 309 189 L 312 187 L 321 178 L 323 174 L 323 166 L 322 164 L 316 159 L 307 155 L 304 156 L 298 153 L 302 150 L 306 150 L 307 149 L 316 149 L 322 151 L 329 151 L 330 150 L 330 146 L 326 143 L 321 141 L 309 141 L 298 145 L 293 150 L 293 153 L 291 155 L 288 155 L 286 153 L 287 150 L 287 141 L 285 137 L 280 132 Z M 271 180 L 273 180 L 276 183 L 277 186 L 283 192 L 283 194 L 279 197 L 276 195 L 273 195 L 271 193 L 270 190 L 270 181 Z M 299 147 L 301 145 L 306 143 L 317 142 L 318 143 L 325 144 L 328 147 L 328 149 L 327 150 L 320 149 L 319 148 L 304 148 L 301 149 Z M 214 131 L 226 144 L 226 149 L 222 155 L 221 161 L 222 155 L 227 147 L 227 143 L 221 139 Z M 359 129 L 354 135 L 353 140 L 354 135 L 359 130 L 364 129 L 369 133 L 373 141 L 373 148 L 373 140 L 372 137 L 369 134 L 369 132 L 365 129 Z M 474 96 L 473 102 L 470 107 L 469 111 L 465 117 L 465 121 L 475 137 L 478 144 L 475 137 L 469 128 L 469 126 L 467 124 L 467 121 L 466 120 L 467 115 L 474 100 Z M 292 99 L 288 96 L 284 96 L 281 98 L 279 98 L 272 103 L 270 108 L 270 111 L 270 108 L 272 104 L 278 99 L 282 97 L 289 97 L 292 100 L 292 103 L 288 107 L 285 108 L 278 113 L 280 113 L 288 108 L 293 102 Z M 253 94 L 248 94 L 245 96 L 241 97 L 235 104 L 233 114 L 236 122 L 242 127 L 248 126 L 251 123 L 258 111 L 262 107 L 262 101 L 261 99 L 258 98 Z M 255 97 L 260 101 L 261 106 L 256 112 L 252 120 L 247 125 L 244 126 L 240 124 L 235 118 L 234 115 L 235 107 L 238 102 L 242 98 L 248 96 Z M 357 91 L 357 95 L 360 98 L 365 99 L 369 102 L 377 103 L 379 102 L 381 99 L 379 93 L 373 88 L 371 88 L 368 86 L 361 86 Z M 357 92 L 361 87 L 369 87 L 372 88 L 379 93 L 380 95 L 380 100 L 377 103 L 374 103 L 369 100 L 360 97 L 357 94 Z M 462 82 L 462 94 L 459 101 L 452 108 L 446 111 L 444 114 L 445 117 L 448 119 L 454 126 L 455 131 L 458 134 L 461 140 L 463 151 L 470 157 L 467 161 L 466 166 L 472 173 L 473 176 L 476 179 L 476 181 L 468 187 L 468 190 L 466 192 L 463 192 L 460 195 L 456 192 L 451 192 L 449 194 L 450 197 L 454 202 L 452 204 L 449 204 L 450 213 L 445 217 L 446 218 L 445 223 L 443 225 L 442 224 L 438 224 L 436 226 L 437 233 L 427 245 L 427 250 L 423 253 L 409 268 L 406 269 L 398 275 L 394 284 L 394 288 L 397 289 L 399 288 L 402 284 L 404 284 L 407 287 L 409 287 L 417 281 L 427 280 L 428 279 L 435 279 L 439 282 L 443 282 L 452 286 L 458 293 L 462 296 L 464 296 L 469 299 L 484 315 L 486 315 L 494 322 L 496 332 L 503 341 L 503 343 L 507 349 L 508 353 L 512 357 L 512 361 L 509 369 L 509 373 L 503 380 L 503 384 L 501 387 L 501 391 L 499 393 L 495 394 L 490 399 L 489 401 L 489 405 L 488 406 L 488 410 L 486 413 L 478 419 L 471 418 L 471 420 L 469 422 L 465 422 L 461 425 L 456 431 L 453 432 L 452 435 L 449 438 L 444 439 L 443 440 L 443 443 L 440 445 L 435 451 L 434 459 L 429 465 L 426 463 L 423 463 L 420 460 L 421 456 L 418 454 L 416 454 L 414 452 L 414 449 L 409 446 L 405 447 L 400 441 L 393 441 L 393 443 L 390 448 L 385 452 L 383 451 L 381 452 L 377 452 L 374 449 L 374 442 L 385 428 L 385 426 L 384 424 L 379 424 L 378 425 L 375 425 L 372 427 L 367 427 L 364 423 L 365 422 L 365 419 L 368 416 L 383 406 L 371 412 L 363 418 L 361 423 L 363 428 L 368 428 L 369 427 L 372 427 L 381 424 L 384 426 L 384 429 L 377 437 L 373 444 L 373 450 L 377 454 L 383 454 L 388 451 L 393 446 L 395 446 L 397 448 L 397 455 L 396 458 L 394 460 L 393 466 L 397 469 L 402 469 L 410 463 L 417 462 L 421 467 L 421 470 L 419 473 L 420 474 L 430 473 L 435 469 L 443 465 L 458 451 L 461 447 L 463 440 L 472 433 L 482 423 L 485 423 L 489 415 L 489 412 L 493 408 L 497 408 L 500 404 L 500 401 L 504 392 L 506 390 L 507 391 L 510 390 L 512 384 L 512 376 L 511 374 L 514 371 L 517 371 L 517 365 L 516 362 L 514 360 L 512 355 L 509 352 L 508 348 L 504 341 L 504 339 L 498 330 L 499 328 L 498 323 L 479 309 L 470 299 L 467 298 L 452 285 L 443 282 L 439 278 L 439 276 L 434 276 L 422 280 L 416 279 L 412 283 L 409 283 L 408 282 L 408 278 L 413 272 L 419 272 L 427 266 L 431 261 L 433 260 L 435 261 L 439 260 L 450 244 L 451 244 L 454 248 L 457 248 L 459 244 L 461 242 L 461 239 L 462 238 L 462 227 L 464 225 L 466 225 L 469 227 L 471 224 L 470 208 L 472 206 L 474 207 L 477 207 L 478 206 L 478 203 L 476 200 L 476 198 L 474 196 L 474 194 L 472 192 L 471 187 L 474 184 L 478 185 L 480 183 L 479 180 L 467 167 L 467 165 L 470 162 L 475 162 L 475 159 L 470 155 L 467 154 L 463 150 L 465 144 L 459 136 L 452 122 L 446 116 L 446 113 L 457 104 L 462 94 Z M 429 70 L 427 72 L 425 72 L 417 80 L 417 82 L 415 85 L 418 90 L 423 93 L 430 100 L 438 105 L 443 103 L 448 97 L 450 92 L 450 84 L 443 75 L 436 71 Z M 427 73 L 434 72 L 441 75 L 446 80 L 449 85 L 449 94 L 447 97 L 440 103 L 436 103 L 433 101 L 424 92 L 421 91 L 417 87 L 417 83 L 419 80 Z M 461 79 L 461 80 L 458 73 L 448 63 L 441 59 L 438 59 L 437 58 L 424 58 L 417 61 L 407 69 L 405 72 L 404 77 L 401 80 L 394 77 L 386 76 L 381 74 L 375 74 L 374 73 L 355 74 L 353 72 L 353 69 L 355 66 L 355 63 L 354 62 L 351 63 L 342 73 L 338 73 L 330 67 L 323 65 L 324 75 L 322 77 L 306 77 L 305 80 L 303 82 L 285 88 L 276 94 L 272 94 L 265 86 L 256 82 L 242 82 L 235 85 L 229 90 L 225 97 L 223 103 L 223 106 L 222 107 L 222 118 L 226 127 L 231 132 L 239 135 L 242 138 L 241 143 L 239 146 L 242 140 L 242 136 L 237 133 L 232 132 L 225 125 L 225 123 L 222 117 L 223 103 L 225 100 L 227 93 L 235 85 L 240 83 L 244 83 L 245 84 L 256 83 L 257 84 L 260 84 L 265 86 L 273 96 L 279 93 L 284 89 L 288 88 L 290 86 L 293 86 L 297 84 L 300 84 L 306 82 L 310 78 L 324 77 L 325 76 L 325 72 L 324 71 L 324 68 L 325 67 L 330 68 L 334 72 L 342 73 L 344 72 L 351 64 L 353 65 L 353 71 L 352 73 L 354 75 L 360 75 L 361 74 L 378 74 L 379 75 L 387 76 L 391 78 L 396 78 L 399 80 L 402 80 L 404 78 L 404 76 L 408 68 L 410 66 L 419 61 L 421 61 L 423 59 L 432 58 L 433 59 L 439 59 L 442 60 L 451 66 L 458 74 L 459 77 Z" fill="#E8E8E8" fill-rule="evenodd"/><path d="M 527 456 L 522 456 L 519 459 L 519 466 L 520 467 L 520 486 L 515 500 L 515 506 L 517 506 L 525 498 L 530 489 L 531 484 L 533 481 L 533 474 L 532 473 L 532 470 L 529 465 L 529 459 Z M 504 433 L 502 433 L 497 438 L 492 440 L 487 447 L 478 456 L 474 458 L 466 465 L 457 470 L 449 478 L 443 482 L 431 488 L 424 489 L 423 490 L 413 490 L 412 489 L 397 486 L 396 487 L 375 488 L 374 489 L 364 491 L 358 495 L 341 511 L 336 514 L 329 521 L 329 522 L 321 529 L 323 535 L 315 544 L 315 552 L 316 554 L 315 555 L 315 560 L 314 561 L 314 565 L 315 566 L 315 580 L 317 583 L 317 586 L 319 589 L 320 593 L 333 607 L 338 610 L 351 622 L 356 625 L 369 627 L 372 629 L 374 629 L 377 632 L 377 633 L 374 635 L 367 635 L 366 636 L 362 636 L 357 638 L 343 653 L 339 660 L 339 666 L 341 672 L 344 675 L 346 674 L 349 666 L 353 662 L 356 662 L 358 665 L 358 674 L 360 677 L 366 680 L 379 680 L 381 678 L 379 676 L 373 674 L 370 670 L 370 662 L 369 661 L 370 660 L 370 656 L 372 654 L 374 654 L 376 656 L 380 669 L 383 669 L 386 667 L 390 667 L 394 664 L 396 664 L 398 666 L 392 679 L 395 681 L 405 681 L 408 679 L 410 679 L 412 677 L 424 677 L 425 676 L 431 675 L 443 668 L 447 664 L 450 663 L 457 656 L 461 647 L 461 641 L 462 639 L 461 638 L 461 633 L 458 628 L 458 626 L 456 624 L 455 621 L 452 620 L 446 627 L 438 641 L 431 650 L 420 661 L 415 670 L 410 676 L 406 676 L 400 671 L 401 668 L 408 661 L 411 656 L 428 638 L 435 627 L 442 613 L 443 606 L 444 605 L 444 592 L 443 591 L 443 587 L 438 576 L 436 574 L 419 574 L 417 572 L 424 567 L 424 564 L 421 560 L 423 558 L 426 559 L 430 559 L 431 558 L 431 555 L 429 552 L 430 550 L 431 550 L 439 558 L 439 559 L 443 562 L 452 561 L 467 554 L 473 549 L 477 547 L 492 531 L 501 514 L 504 505 L 506 484 L 509 481 L 509 468 L 508 467 L 507 454 L 506 453 L 506 450 L 509 446 L 509 441 L 507 436 Z M 395 676 L 397 674 L 401 674 L 405 678 L 403 680 L 396 680 L 395 679 Z M 419 667 L 422 666 L 424 669 L 421 671 L 419 669 Z M 394 490 L 396 492 L 399 493 L 401 496 L 405 499 L 405 501 L 408 505 L 418 510 L 422 510 L 424 512 L 428 510 L 431 512 L 434 512 L 439 515 L 441 515 L 447 520 L 447 525 L 443 531 L 431 540 L 425 540 L 422 541 L 418 545 L 415 545 L 414 546 L 409 545 L 408 546 L 410 548 L 410 550 L 416 556 L 416 559 L 413 562 L 413 569 L 411 571 L 411 573 L 414 576 L 416 576 L 420 581 L 427 581 L 428 582 L 435 582 L 438 581 L 440 583 L 442 588 L 442 605 L 441 606 L 441 612 L 435 624 L 422 636 L 419 641 L 419 643 L 414 648 L 414 650 L 410 656 L 405 661 L 396 660 L 391 664 L 381 665 L 377 659 L 377 655 L 374 652 L 371 652 L 369 655 L 369 662 L 368 665 L 366 667 L 364 667 L 356 659 L 353 660 L 349 664 L 347 668 L 344 670 L 340 665 L 340 659 L 342 655 L 348 650 L 356 641 L 358 641 L 361 639 L 370 639 L 376 636 L 383 636 L 386 634 L 386 631 L 385 629 L 382 627 L 370 626 L 367 624 L 365 624 L 361 621 L 354 622 L 351 619 L 351 617 L 348 614 L 345 608 L 340 608 L 336 606 L 326 596 L 321 588 L 321 586 L 317 578 L 317 563 L 316 562 L 316 559 L 318 554 L 318 550 L 316 547 L 316 545 L 325 534 L 325 532 L 322 529 L 326 526 L 336 515 L 344 510 L 361 494 L 367 491 L 376 490 L 377 489 L 390 489 L 391 490 Z M 257 310 L 254 312 L 254 315 L 258 312 Z M 385 278 L 384 277 L 381 277 L 364 283 L 361 283 L 356 285 L 351 285 L 350 286 L 344 286 L 343 287 L 325 287 L 320 285 L 312 284 L 310 286 L 310 289 L 321 298 L 336 308 L 342 310 L 348 310 L 353 307 L 357 306 L 371 295 L 383 283 Z M 131 184 L 122 179 L 111 179 L 105 181 L 99 185 L 90 195 L 86 204 L 86 206 L 84 209 L 84 220 L 87 226 L 90 229 L 94 231 L 107 231 L 120 225 L 134 215 L 138 210 L 138 208 L 140 205 L 140 196 L 137 190 Z M 374 164 L 374 170 L 379 175 L 392 181 L 403 182 L 404 181 L 411 180 L 415 178 L 419 174 L 420 171 L 420 167 L 419 165 L 414 160 L 406 156 L 401 156 L 400 155 L 388 155 L 382 157 Z M 300 147 L 301 148 L 304 147 L 319 147 L 320 148 L 327 149 L 327 147 L 325 145 L 318 144 L 317 143 L 306 144 Z M 275 136 L 272 140 L 272 142 L 270 145 L 270 157 L 275 163 L 273 169 L 270 172 L 262 172 L 258 169 L 251 169 L 242 173 L 236 180 L 236 187 L 239 191 L 249 191 L 254 188 L 256 186 L 257 182 L 260 180 L 261 181 L 261 192 L 263 197 L 270 205 L 279 209 L 281 211 L 282 219 L 284 225 L 289 234 L 297 245 L 310 259 L 321 265 L 326 265 L 327 266 L 336 265 L 345 261 L 353 255 L 358 249 L 362 241 L 365 232 L 365 229 L 367 224 L 367 218 L 368 217 L 368 193 L 365 184 L 362 181 L 360 181 L 357 185 L 348 193 L 338 198 L 332 199 L 331 200 L 320 200 L 319 199 L 313 199 L 309 197 L 304 197 L 303 196 L 294 196 L 290 199 L 286 199 L 285 200 L 277 200 L 275 199 L 269 192 L 269 178 L 271 176 L 274 178 L 276 182 L 280 186 L 290 190 L 299 190 L 308 187 L 315 183 L 321 176 L 322 173 L 322 166 L 317 161 L 311 158 L 308 158 L 307 157 L 288 157 L 285 158 L 283 155 L 286 150 L 286 141 L 281 135 L 277 135 Z M 263 176 L 266 173 L 269 175 L 268 192 L 270 196 L 275 201 L 278 202 L 285 202 L 297 197 L 301 197 L 302 198 L 306 198 L 312 200 L 317 200 L 318 201 L 331 201 L 347 195 L 360 183 L 362 183 L 365 186 L 366 188 L 366 192 L 367 193 L 367 218 L 366 219 L 366 224 L 365 225 L 365 228 L 364 229 L 364 232 L 361 241 L 356 250 L 354 252 L 352 249 L 354 246 L 358 234 L 358 228 L 353 221 L 345 217 L 336 217 L 330 219 L 325 223 L 322 224 L 314 231 L 310 237 L 310 241 L 309 242 L 310 247 L 318 259 L 316 261 L 311 258 L 300 247 L 290 234 L 287 227 L 285 225 L 283 219 L 282 211 L 279 208 L 272 205 L 264 197 L 262 193 L 262 181 L 263 180 Z M 272 171 L 276 164 L 279 161 L 284 159 L 294 158 L 295 157 L 302 157 L 303 158 L 311 159 L 317 162 L 321 166 L 321 173 L 319 177 L 311 184 L 298 189 L 291 189 L 281 185 L 275 179 L 272 173 Z M 280 136 L 282 137 L 285 141 L 285 150 L 283 154 L 277 160 L 274 160 L 270 155 L 270 149 L 271 148 L 272 142 L 278 136 Z M 361 130 L 355 135 L 353 141 L 353 151 L 355 155 L 358 158 L 360 159 L 366 159 L 369 156 L 372 149 L 372 141 L 368 133 L 364 130 Z M 361 131 L 365 132 L 369 136 L 371 140 L 371 150 L 369 154 L 365 158 L 360 158 L 358 157 L 354 152 L 354 148 L 353 147 L 355 137 L 356 135 Z M 291 100 L 289 98 L 282 98 L 278 100 L 273 104 L 271 108 L 271 112 L 272 113 L 277 113 L 285 107 L 288 106 L 291 103 Z M 289 101 L 289 103 L 278 111 L 274 112 L 272 110 L 273 106 L 278 101 L 282 99 L 287 99 Z M 255 98 L 248 97 L 242 99 L 237 105 L 235 110 L 235 115 L 236 118 L 240 123 L 244 125 L 247 124 L 251 120 L 255 112 L 260 106 L 259 101 Z M 358 92 L 358 94 L 360 96 L 369 99 L 374 102 L 377 102 L 379 100 L 379 95 L 378 93 L 372 89 L 369 88 L 361 88 Z M 360 92 L 363 89 L 371 90 L 377 94 L 378 99 L 375 101 L 372 99 L 367 98 L 364 96 L 362 96 L 360 94 Z M 427 74 L 420 80 L 418 83 L 418 87 L 421 90 L 424 91 L 436 102 L 440 102 L 442 101 L 448 94 L 448 85 L 441 76 L 434 73 Z M 439 48 L 423 48 L 422 49 L 419 49 L 413 51 L 406 55 L 396 66 L 392 66 L 386 64 L 381 64 L 380 63 L 366 63 L 364 61 L 362 56 L 360 54 L 357 54 L 356 53 L 347 55 L 343 57 L 340 60 L 336 60 L 327 56 L 317 56 L 314 58 L 312 62 L 312 65 L 310 67 L 301 68 L 279 80 L 276 80 L 266 73 L 260 71 L 256 71 L 255 70 L 248 70 L 247 71 L 239 72 L 228 77 L 224 80 L 215 91 L 215 93 L 212 98 L 211 104 L 210 105 L 210 118 L 211 119 L 211 122 L 213 128 L 216 133 L 228 143 L 228 147 L 222 158 L 221 167 L 214 176 L 212 181 L 212 187 L 216 194 L 214 199 L 214 207 L 219 215 L 219 218 L 218 219 L 218 230 L 214 233 L 208 233 L 203 228 L 200 222 L 195 216 L 186 216 L 168 194 L 169 181 L 170 180 L 170 166 L 165 153 L 159 147 L 155 145 L 151 145 L 149 144 L 148 145 L 144 145 L 139 147 L 135 142 L 133 137 L 128 132 L 122 129 L 114 129 L 108 132 L 102 139 L 93 135 L 81 135 L 76 138 L 71 144 L 70 150 L 69 151 L 69 155 L 67 157 L 64 157 L 59 159 L 52 167 L 50 171 L 50 180 L 52 184 L 52 189 L 47 194 L 45 199 L 45 208 L 51 222 L 65 237 L 66 237 L 73 244 L 81 249 L 86 254 L 89 265 L 102 287 L 109 296 L 119 306 L 123 308 L 129 314 L 129 320 L 130 323 L 137 330 L 146 335 L 152 337 L 154 339 L 157 346 L 161 350 L 169 354 L 180 357 L 187 366 L 194 369 L 197 369 L 201 373 L 209 378 L 215 379 L 216 380 L 220 380 L 225 382 L 229 382 L 231 384 L 231 388 L 227 396 L 227 400 L 226 401 L 226 410 L 223 414 L 222 418 L 220 421 L 220 427 L 222 431 L 222 435 L 218 443 L 218 449 L 217 450 L 218 457 L 221 462 L 220 464 L 220 479 L 221 480 L 221 483 L 226 492 L 226 499 L 227 500 L 228 506 L 233 512 L 239 526 L 247 537 L 263 551 L 276 558 L 279 561 L 279 563 L 281 566 L 281 574 L 282 575 L 282 578 L 289 595 L 298 609 L 311 634 L 317 640 L 319 640 L 325 644 L 325 650 L 324 651 L 324 655 L 322 660 L 322 673 L 324 678 L 332 686 L 334 686 L 340 689 L 348 690 L 349 691 L 354 691 L 355 692 L 406 691 L 407 690 L 421 688 L 448 679 L 460 672 L 464 668 L 464 667 L 470 661 L 472 657 L 473 650 L 474 649 L 474 640 L 473 639 L 472 632 L 460 611 L 460 599 L 461 598 L 461 592 L 463 589 L 463 584 L 457 580 L 457 572 L 461 569 L 470 566 L 474 562 L 487 553 L 499 540 L 505 529 L 512 522 L 526 514 L 534 506 L 541 494 L 544 485 L 544 470 L 537 451 L 534 447 L 526 443 L 520 443 L 517 440 L 517 436 L 516 435 L 516 426 L 515 425 L 515 422 L 516 421 L 516 415 L 518 411 L 518 408 L 522 400 L 528 392 L 533 379 L 533 370 L 532 369 L 530 358 L 525 349 L 523 342 L 521 340 L 516 329 L 499 308 L 494 300 L 479 286 L 469 280 L 460 270 L 462 264 L 470 254 L 474 244 L 481 236 L 483 224 L 490 214 L 491 206 L 490 205 L 489 198 L 490 195 L 492 193 L 493 185 L 491 180 L 487 175 L 487 170 L 489 167 L 489 161 L 487 157 L 479 149 L 474 137 L 464 121 L 464 117 L 469 109 L 469 107 L 472 102 L 473 96 L 474 95 L 474 83 L 473 82 L 472 75 L 466 64 L 460 58 L 448 51 Z M 296 571 L 301 575 L 301 577 L 303 580 L 303 586 L 302 587 L 299 585 L 296 580 L 294 574 Z M 170 342 L 172 340 L 181 340 L 183 341 L 185 344 L 183 346 L 177 346 L 172 344 Z M 118 141 L 120 140 L 122 143 L 120 144 Z M 441 58 L 448 62 L 459 73 L 463 82 L 463 94 L 458 104 L 447 113 L 447 116 L 453 122 L 460 136 L 466 144 L 464 150 L 476 159 L 476 162 L 475 163 L 470 163 L 468 165 L 468 167 L 480 180 L 481 183 L 478 186 L 474 185 L 472 187 L 473 192 L 475 194 L 475 196 L 477 198 L 477 200 L 479 203 L 479 206 L 477 208 L 474 208 L 473 207 L 471 208 L 472 224 L 469 228 L 466 226 L 463 227 L 463 238 L 462 239 L 462 242 L 460 244 L 459 247 L 457 249 L 454 249 L 452 246 L 450 245 L 444 255 L 439 261 L 437 262 L 433 261 L 431 262 L 427 267 L 419 273 L 413 273 L 409 278 L 409 282 L 412 282 L 416 278 L 422 279 L 434 275 L 439 275 L 440 278 L 443 281 L 452 284 L 467 297 L 470 298 L 479 308 L 499 323 L 500 326 L 499 330 L 501 334 L 504 337 L 510 352 L 513 355 L 515 360 L 517 362 L 518 365 L 518 371 L 517 372 L 514 372 L 512 374 L 513 376 L 513 384 L 511 390 L 509 392 L 506 391 L 501 401 L 501 404 L 497 409 L 493 409 L 490 412 L 490 415 L 487 422 L 485 424 L 482 424 L 472 434 L 464 440 L 462 447 L 459 451 L 443 466 L 435 470 L 430 474 L 420 475 L 418 473 L 420 470 L 420 467 L 417 463 L 410 464 L 402 470 L 397 470 L 392 466 L 393 460 L 395 458 L 396 455 L 396 448 L 395 447 L 393 447 L 388 452 L 383 455 L 377 455 L 372 450 L 372 444 L 374 440 L 383 429 L 383 426 L 382 425 L 380 426 L 376 426 L 368 429 L 363 429 L 361 427 L 360 424 L 362 418 L 366 414 L 389 402 L 429 361 L 430 357 L 428 355 L 421 354 L 415 358 L 408 351 L 404 349 L 396 348 L 395 350 L 404 358 L 404 366 L 403 368 L 398 372 L 394 377 L 393 377 L 390 382 L 379 394 L 372 398 L 370 398 L 363 402 L 361 402 L 353 411 L 349 419 L 349 430 L 356 441 L 357 447 L 362 460 L 367 465 L 378 471 L 380 474 L 375 478 L 369 480 L 364 480 L 356 484 L 353 487 L 343 492 L 331 501 L 312 521 L 310 526 L 300 542 L 299 545 L 299 554 L 297 555 L 295 551 L 289 546 L 288 543 L 284 538 L 283 538 L 281 541 L 269 532 L 262 529 L 260 527 L 256 527 L 250 521 L 245 511 L 245 507 L 244 506 L 244 494 L 242 491 L 238 496 L 236 494 L 237 481 L 238 480 L 238 471 L 236 471 L 233 474 L 231 474 L 229 472 L 231 462 L 235 454 L 236 449 L 235 448 L 231 448 L 230 449 L 228 446 L 231 440 L 231 438 L 238 429 L 238 424 L 237 423 L 233 424 L 231 421 L 233 417 L 238 412 L 241 406 L 241 403 L 237 400 L 237 398 L 241 393 L 241 391 L 245 385 L 252 377 L 256 370 L 255 367 L 253 367 L 247 371 L 244 370 L 245 364 L 247 360 L 247 349 L 251 339 L 251 330 L 254 326 L 254 324 L 252 323 L 249 327 L 249 331 L 244 339 L 242 345 L 238 349 L 235 349 L 234 350 L 217 349 L 213 346 L 213 344 L 220 337 L 218 335 L 215 336 L 205 335 L 200 331 L 183 331 L 181 329 L 181 326 L 187 321 L 186 319 L 180 317 L 172 316 L 160 310 L 158 310 L 156 308 L 154 308 L 151 305 L 134 294 L 129 290 L 119 279 L 114 276 L 114 278 L 117 281 L 117 283 L 121 286 L 121 288 L 119 289 L 110 279 L 109 276 L 105 271 L 99 259 L 99 257 L 94 246 L 90 242 L 83 238 L 69 224 L 68 224 L 62 217 L 63 214 L 70 217 L 76 217 L 79 215 L 79 208 L 78 206 L 71 201 L 67 201 L 64 202 L 62 204 L 61 210 L 59 212 L 55 206 L 55 202 L 56 200 L 60 197 L 69 197 L 71 195 L 80 196 L 85 192 L 85 186 L 78 177 L 71 173 L 67 173 L 62 177 L 61 176 L 61 172 L 65 168 L 70 168 L 76 170 L 86 178 L 97 177 L 102 173 L 103 171 L 102 165 L 95 154 L 92 151 L 90 150 L 86 150 L 82 154 L 80 153 L 80 150 L 84 145 L 87 144 L 90 144 L 92 146 L 95 147 L 101 153 L 108 166 L 112 166 L 117 170 L 125 170 L 127 168 L 127 165 L 128 164 L 127 162 L 127 158 L 122 147 L 125 146 L 126 147 L 126 150 L 130 155 L 133 165 L 135 167 L 141 161 L 143 163 L 137 173 L 137 177 L 140 183 L 147 185 L 151 182 L 153 178 L 153 175 L 154 174 L 154 166 L 152 161 L 149 158 L 147 158 L 146 156 L 147 155 L 152 155 L 157 160 L 160 169 L 160 178 L 159 179 L 159 186 L 157 191 L 157 197 L 176 219 L 184 230 L 188 231 L 190 229 L 192 229 L 195 232 L 195 234 L 200 243 L 208 251 L 210 251 L 212 249 L 212 246 L 215 244 L 219 249 L 222 258 L 227 263 L 229 263 L 230 260 L 233 258 L 238 265 L 240 270 L 243 273 L 246 273 L 247 270 L 250 269 L 254 273 L 260 284 L 263 287 L 267 287 L 271 284 L 271 281 L 274 277 L 277 278 L 281 282 L 287 284 L 286 279 L 274 270 L 270 270 L 267 272 L 261 265 L 256 257 L 251 255 L 249 253 L 247 245 L 245 242 L 241 244 L 238 244 L 236 242 L 236 225 L 235 224 L 230 225 L 227 222 L 230 208 L 231 207 L 231 203 L 226 203 L 225 202 L 225 197 L 229 189 L 229 184 L 225 184 L 224 183 L 224 180 L 232 170 L 232 158 L 241 140 L 241 138 L 239 136 L 231 133 L 225 127 L 221 118 L 221 107 L 222 106 L 222 103 L 224 97 L 228 90 L 235 84 L 242 81 L 256 81 L 265 85 L 272 93 L 276 93 L 285 87 L 303 81 L 304 78 L 306 76 L 322 76 L 323 75 L 323 70 L 322 69 L 322 65 L 323 64 L 330 66 L 338 72 L 342 72 L 351 62 L 354 61 L 356 63 L 356 66 L 354 69 L 354 72 L 355 73 L 374 72 L 375 73 L 381 73 L 386 75 L 394 76 L 401 79 L 403 77 L 404 72 L 406 69 L 411 64 L 417 60 L 424 57 L 437 57 L 438 58 Z M 433 48 L 434 49 L 439 49 L 445 51 L 457 57 L 465 64 L 470 72 L 470 74 L 473 80 L 473 85 L 474 86 L 473 96 L 472 97 L 472 100 L 468 108 L 464 113 L 462 118 L 465 125 L 474 139 L 478 149 L 488 160 L 489 165 L 486 170 L 486 174 L 491 181 L 492 184 L 492 191 L 488 197 L 489 199 L 489 203 L 490 204 L 490 212 L 482 224 L 481 234 L 473 244 L 469 254 L 464 259 L 457 269 L 469 281 L 475 284 L 494 301 L 497 307 L 502 312 L 504 316 L 510 322 L 517 332 L 522 342 L 524 349 L 529 358 L 530 364 L 532 368 L 532 380 L 529 386 L 529 388 L 526 394 L 520 402 L 517 411 L 515 414 L 515 433 L 516 434 L 517 442 L 519 444 L 530 445 L 538 454 L 541 464 L 543 467 L 544 480 L 543 481 L 543 486 L 540 492 L 540 494 L 533 506 L 523 515 L 510 522 L 506 526 L 498 540 L 483 555 L 468 566 L 451 573 L 451 581 L 452 582 L 452 585 L 456 592 L 457 599 L 458 600 L 458 614 L 467 626 L 472 636 L 472 641 L 473 642 L 473 651 L 471 657 L 464 667 L 458 673 L 445 680 L 443 680 L 440 682 L 437 682 L 431 685 L 428 685 L 419 688 L 415 688 L 414 689 L 405 690 L 404 691 L 357 692 L 356 691 L 351 691 L 350 690 L 346 690 L 345 689 L 342 689 L 336 687 L 331 684 L 324 676 L 323 673 L 323 661 L 324 660 L 324 655 L 325 654 L 326 648 L 332 641 L 336 640 L 339 637 L 340 632 L 338 627 L 332 621 L 327 618 L 318 609 L 310 598 L 305 586 L 304 578 L 299 569 L 299 559 L 301 554 L 303 541 L 310 526 L 314 520 L 339 496 L 354 488 L 360 483 L 367 480 L 375 479 L 381 475 L 381 472 L 379 470 L 368 464 L 364 460 L 360 453 L 360 451 L 357 445 L 356 438 L 350 430 L 350 419 L 353 413 L 362 403 L 379 395 L 402 371 L 405 366 L 405 359 L 403 355 L 405 352 L 410 356 L 411 359 L 413 361 L 417 360 L 422 356 L 427 356 L 429 358 L 428 361 L 410 378 L 407 383 L 389 401 L 377 408 L 375 408 L 370 411 L 366 412 L 361 416 L 359 421 L 359 426 L 360 428 L 363 430 L 373 429 L 376 427 L 379 427 L 381 429 L 371 444 L 371 451 L 372 453 L 377 457 L 384 456 L 392 450 L 395 452 L 390 462 L 390 465 L 389 466 L 389 471 L 391 473 L 399 476 L 405 473 L 411 468 L 414 467 L 416 469 L 415 470 L 415 477 L 416 478 L 424 478 L 437 473 L 447 466 L 460 454 L 465 444 L 467 444 L 469 446 L 472 446 L 478 440 L 481 434 L 488 425 L 490 420 L 493 417 L 495 419 L 498 418 L 498 415 L 501 406 L 504 403 L 507 405 L 510 401 L 512 395 L 512 392 L 513 391 L 513 388 L 514 387 L 514 381 L 515 378 L 518 376 L 521 379 L 521 381 L 524 382 L 523 375 L 522 374 L 522 371 L 519 362 L 511 350 L 509 340 L 502 330 L 502 327 L 500 323 L 486 310 L 485 310 L 474 298 L 470 296 L 465 291 L 462 290 L 453 283 L 449 282 L 446 279 L 447 274 L 439 273 L 438 272 L 438 269 L 457 254 L 463 242 L 464 236 L 465 235 L 465 231 L 467 229 L 469 231 L 472 230 L 473 228 L 473 215 L 472 214 L 472 211 L 474 209 L 480 211 L 482 208 L 481 203 L 479 201 L 474 189 L 476 187 L 478 188 L 482 188 L 483 187 L 483 184 L 480 178 L 471 168 L 472 165 L 477 166 L 479 164 L 479 161 L 476 157 L 469 153 L 466 150 L 468 147 L 468 144 L 459 132 L 454 121 L 449 116 L 449 114 L 456 107 L 457 107 L 460 103 L 464 93 L 464 83 L 462 77 L 458 70 L 450 62 L 441 57 L 438 57 L 437 56 L 424 56 L 421 58 L 417 59 L 411 63 L 405 69 L 403 75 L 401 77 L 398 77 L 395 75 L 392 75 L 387 73 L 383 73 L 382 72 L 377 72 L 376 71 L 361 71 L 360 72 L 357 72 L 355 70 L 357 66 L 357 61 L 354 60 L 351 61 L 341 71 L 337 70 L 334 67 L 328 64 L 322 63 L 320 65 L 320 68 L 322 71 L 322 73 L 320 75 L 306 74 L 302 77 L 302 79 L 300 81 L 285 86 L 276 92 L 273 92 L 267 85 L 257 80 L 243 80 L 235 83 L 227 90 L 225 93 L 225 95 L 223 97 L 222 103 L 220 107 L 220 117 L 221 118 L 221 121 L 226 130 L 230 134 L 237 136 L 240 139 L 239 143 L 231 159 L 231 168 L 222 181 L 222 185 L 228 187 L 228 189 L 223 199 L 223 204 L 224 205 L 228 205 L 230 207 L 228 213 L 228 216 L 227 217 L 227 226 L 228 227 L 233 226 L 235 228 L 235 243 L 238 247 L 242 247 L 244 245 L 247 249 L 248 254 L 252 258 L 254 258 L 259 263 L 263 270 L 267 274 L 270 279 L 270 283 L 267 286 L 265 286 L 259 280 L 254 271 L 249 266 L 244 270 L 239 265 L 238 262 L 233 256 L 230 256 L 230 257 L 226 260 L 222 255 L 220 249 L 216 242 L 213 242 L 212 246 L 209 249 L 201 242 L 195 230 L 192 226 L 190 226 L 187 229 L 185 229 L 182 226 L 174 215 L 166 207 L 158 197 L 158 191 L 159 190 L 160 177 L 161 176 L 161 169 L 160 168 L 160 164 L 158 159 L 153 154 L 151 153 L 146 154 L 136 164 L 133 161 L 132 155 L 126 143 L 122 139 L 117 138 L 112 142 L 110 146 L 110 159 L 111 161 L 108 162 L 104 157 L 102 152 L 95 145 L 90 143 L 86 143 L 82 145 L 79 150 L 79 160 L 82 169 L 79 170 L 76 168 L 73 168 L 72 167 L 65 167 L 63 168 L 60 172 L 60 179 L 67 193 L 64 196 L 59 196 L 55 200 L 54 203 L 55 209 L 62 220 L 77 235 L 83 240 L 90 244 L 94 248 L 104 272 L 115 288 L 132 304 L 144 311 L 148 315 L 148 317 L 146 319 L 143 318 L 140 320 L 144 325 L 162 331 L 165 333 L 167 333 L 170 336 L 167 340 L 167 343 L 169 345 L 192 351 L 194 353 L 194 358 L 196 361 L 209 362 L 212 365 L 211 367 L 213 369 L 219 371 L 224 371 L 225 372 L 230 372 L 233 370 L 237 358 L 243 352 L 243 348 L 246 339 L 247 338 L 250 339 L 246 348 L 246 358 L 242 370 L 242 373 L 244 376 L 244 379 L 243 380 L 243 383 L 241 389 L 236 398 L 236 403 L 240 406 L 239 409 L 231 418 L 230 421 L 230 424 L 231 425 L 235 425 L 237 427 L 237 429 L 231 437 L 226 448 L 228 451 L 231 451 L 232 450 L 234 452 L 233 457 L 231 460 L 230 467 L 229 468 L 229 475 L 231 477 L 234 475 L 237 476 L 235 496 L 236 499 L 238 499 L 241 496 L 243 498 L 244 510 L 246 516 L 252 526 L 258 533 L 265 537 L 271 542 L 279 545 L 287 555 L 289 560 L 292 564 L 293 577 L 308 604 L 314 622 L 327 639 L 326 641 L 323 641 L 318 639 L 311 632 L 310 629 L 308 627 L 308 625 L 306 623 L 305 619 L 298 609 L 287 589 L 287 587 L 282 576 L 281 563 L 278 558 L 261 548 L 244 532 L 238 523 L 235 514 L 227 502 L 226 490 L 222 484 L 221 476 L 220 475 L 221 460 L 218 454 L 218 446 L 220 440 L 224 433 L 221 427 L 221 420 L 227 410 L 227 407 L 228 406 L 227 405 L 227 399 L 231 390 L 232 384 L 230 382 L 227 381 L 223 381 L 222 380 L 219 380 L 218 379 L 215 379 L 209 377 L 204 374 L 200 370 L 189 366 L 180 356 L 168 353 L 161 349 L 156 343 L 156 340 L 153 336 L 146 334 L 137 329 L 130 321 L 130 314 L 106 291 L 100 281 L 95 275 L 89 263 L 86 252 L 70 240 L 53 223 L 49 217 L 46 210 L 46 198 L 48 194 L 53 189 L 53 185 L 50 178 L 50 173 L 52 168 L 60 159 L 68 158 L 70 156 L 70 148 L 74 141 L 77 138 L 84 135 L 91 135 L 102 140 L 105 136 L 113 130 L 122 130 L 128 133 L 133 138 L 136 145 L 139 148 L 141 148 L 147 145 L 152 145 L 159 148 L 164 153 L 169 163 L 169 185 L 167 189 L 167 195 L 176 204 L 181 212 L 186 217 L 194 217 L 199 222 L 204 231 L 208 235 L 210 234 L 218 234 L 220 235 L 221 234 L 219 230 L 219 212 L 215 207 L 215 199 L 217 193 L 213 188 L 213 180 L 215 176 L 222 168 L 222 160 L 225 153 L 229 147 L 229 142 L 224 139 L 215 130 L 212 124 L 210 110 L 211 109 L 211 103 L 217 89 L 228 78 L 233 75 L 242 72 L 245 72 L 246 71 L 256 71 L 257 72 L 263 73 L 269 76 L 275 81 L 278 82 L 285 77 L 301 69 L 311 68 L 312 67 L 313 61 L 319 56 L 326 56 L 332 58 L 337 62 L 339 62 L 347 56 L 357 54 L 363 59 L 363 61 L 365 64 L 381 64 L 382 65 L 387 65 L 388 66 L 397 67 L 401 61 L 407 55 L 417 50 Z" fill="#B1B1B1" fill-rule="evenodd"/><path d="M 264 176 L 264 180 L 263 181 L 263 193 L 265 197 L 272 204 L 279 207 L 283 211 L 284 219 L 285 220 L 286 225 L 288 227 L 291 234 L 296 240 L 296 241 L 301 246 L 301 247 L 311 257 L 316 260 L 317 259 L 313 254 L 312 251 L 309 247 L 309 245 L 308 244 L 308 242 L 309 241 L 309 237 L 311 235 L 313 231 L 322 223 L 325 222 L 330 218 L 332 218 L 336 216 L 345 216 L 353 220 L 358 226 L 359 228 L 359 234 L 358 235 L 355 246 L 353 249 L 354 251 L 360 241 L 360 239 L 363 232 L 364 225 L 365 224 L 365 219 L 366 218 L 366 193 L 365 192 L 365 188 L 362 184 L 360 184 L 350 194 L 349 194 L 347 196 L 343 197 L 338 200 L 332 201 L 331 202 L 318 202 L 317 201 L 312 201 L 311 200 L 307 200 L 306 199 L 297 198 L 285 203 L 278 203 L 277 202 L 275 202 L 269 196 L 267 192 L 267 182 L 268 181 L 268 175 L 266 174 Z M 320 166 L 317 163 L 308 159 L 295 158 L 294 159 L 289 159 L 288 160 L 284 160 L 283 161 L 279 162 L 275 167 L 273 171 L 273 173 L 276 179 L 281 184 L 287 187 L 290 187 L 291 188 L 298 188 L 299 187 L 307 185 L 314 181 L 318 177 L 320 173 Z M 280 137 L 278 137 L 273 142 L 273 144 L 272 145 L 272 148 L 271 149 L 271 155 L 274 159 L 277 159 L 282 154 L 284 150 L 284 141 L 283 139 Z M 361 132 L 359 133 L 356 137 L 354 147 L 355 148 L 355 152 L 358 156 L 360 157 L 365 157 L 368 154 L 370 150 L 370 140 L 368 136 L 365 133 Z M 288 101 L 287 100 L 282 100 L 278 102 L 274 106 L 273 110 L 274 111 L 278 110 L 280 108 L 288 103 Z M 361 92 L 361 94 L 362 95 L 364 95 L 367 97 L 372 98 L 375 100 L 377 99 L 377 96 L 376 94 L 371 91 L 369 91 L 368 90 L 363 90 Z M 433 49 L 417 51 L 407 56 L 402 61 L 402 62 L 397 68 L 393 68 L 392 67 L 388 67 L 387 66 L 382 66 L 381 65 L 365 65 L 363 63 L 362 59 L 357 55 L 354 55 L 353 56 L 347 57 L 342 60 L 339 63 L 337 63 L 332 59 L 330 59 L 326 57 L 319 57 L 314 61 L 313 67 L 311 69 L 301 70 L 285 78 L 278 83 L 275 82 L 269 77 L 263 74 L 257 73 L 256 72 L 246 72 L 245 73 L 242 73 L 241 74 L 233 76 L 228 79 L 218 89 L 214 97 L 214 99 L 212 103 L 212 109 L 211 110 L 212 120 L 213 121 L 213 124 L 216 130 L 224 138 L 225 138 L 230 142 L 230 147 L 228 151 L 226 153 L 223 160 L 223 168 L 216 176 L 214 180 L 214 188 L 218 193 L 218 195 L 216 199 L 216 207 L 220 212 L 220 230 L 222 234 L 220 236 L 218 235 L 210 235 L 208 236 L 203 231 L 203 230 L 199 225 L 198 222 L 194 218 L 186 218 L 180 212 L 175 204 L 166 195 L 166 189 L 168 185 L 168 163 L 163 153 L 159 149 L 152 146 L 147 146 L 141 149 L 139 149 L 135 145 L 132 138 L 128 134 L 122 131 L 113 131 L 108 134 L 102 141 L 91 136 L 84 136 L 77 139 L 75 141 L 71 148 L 71 156 L 68 159 L 63 159 L 62 160 L 60 160 L 53 168 L 52 172 L 51 173 L 51 178 L 54 185 L 54 189 L 49 194 L 47 198 L 47 210 L 50 217 L 52 219 L 54 223 L 70 239 L 71 239 L 76 244 L 83 248 L 87 252 L 90 263 L 96 275 L 101 281 L 107 291 L 131 314 L 131 321 L 132 323 L 140 330 L 146 333 L 153 335 L 156 338 L 157 340 L 157 343 L 159 345 L 159 346 L 164 350 L 171 353 L 174 353 L 175 354 L 180 355 L 189 365 L 200 369 L 204 373 L 209 376 L 211 376 L 215 378 L 218 378 L 219 379 L 222 379 L 223 380 L 227 380 L 228 381 L 230 381 L 233 384 L 233 387 L 228 399 L 228 405 L 229 406 L 228 407 L 228 410 L 222 420 L 222 427 L 225 433 L 221 440 L 221 442 L 219 446 L 219 454 L 222 460 L 222 469 L 221 470 L 221 475 L 222 476 L 222 481 L 223 482 L 223 484 L 225 488 L 227 490 L 228 502 L 230 506 L 236 514 L 236 516 L 239 521 L 239 523 L 241 525 L 245 532 L 261 547 L 262 547 L 270 553 L 277 556 L 279 558 L 282 563 L 282 567 L 283 568 L 283 576 L 286 582 L 286 584 L 288 587 L 288 589 L 293 599 L 295 601 L 299 609 L 306 619 L 306 621 L 309 625 L 309 627 L 311 629 L 312 632 L 318 638 L 322 639 L 323 640 L 326 640 L 326 639 L 323 636 L 322 633 L 315 625 L 311 618 L 310 612 L 307 606 L 307 604 L 292 577 L 291 564 L 288 560 L 286 555 L 279 546 L 271 543 L 265 538 L 258 534 L 251 526 L 251 525 L 247 520 L 245 516 L 244 511 L 243 510 L 242 498 L 241 497 L 238 500 L 236 500 L 234 496 L 234 490 L 235 489 L 235 481 L 236 480 L 236 476 L 234 476 L 232 478 L 231 478 L 228 475 L 228 468 L 229 467 L 230 460 L 232 457 L 233 452 L 232 451 L 231 452 L 228 452 L 225 449 L 230 437 L 236 429 L 236 427 L 235 426 L 231 426 L 229 424 L 229 421 L 230 420 L 230 418 L 236 412 L 239 406 L 235 403 L 235 398 L 240 389 L 240 387 L 242 383 L 242 380 L 243 379 L 243 376 L 241 373 L 241 370 L 242 369 L 242 366 L 244 363 L 244 359 L 245 358 L 245 348 L 247 345 L 247 343 L 249 339 L 247 339 L 246 341 L 245 347 L 244 348 L 244 352 L 238 358 L 236 362 L 234 370 L 230 373 L 225 373 L 224 372 L 219 372 L 218 371 L 215 371 L 213 370 L 210 367 L 211 365 L 209 363 L 196 362 L 193 358 L 193 353 L 190 351 L 182 350 L 181 349 L 178 349 L 177 348 L 169 346 L 166 343 L 166 340 L 169 336 L 167 334 L 165 334 L 162 332 L 160 332 L 159 331 L 157 331 L 156 330 L 154 330 L 153 329 L 151 329 L 148 327 L 144 326 L 139 321 L 139 320 L 143 317 L 146 318 L 147 317 L 147 315 L 144 312 L 132 305 L 114 288 L 114 287 L 111 284 L 111 283 L 103 272 L 99 264 L 99 262 L 97 259 L 97 257 L 95 254 L 95 252 L 93 248 L 90 245 L 83 241 L 78 236 L 77 236 L 61 220 L 61 219 L 57 214 L 56 211 L 54 209 L 54 207 L 53 206 L 54 200 L 59 195 L 64 195 L 66 193 L 63 186 L 60 182 L 60 180 L 59 179 L 59 172 L 60 170 L 65 166 L 72 166 L 73 167 L 76 167 L 79 169 L 81 169 L 81 167 L 78 160 L 78 150 L 80 146 L 82 144 L 86 142 L 90 142 L 91 143 L 95 144 L 103 152 L 105 157 L 108 161 L 110 161 L 109 159 L 109 146 L 111 142 L 117 137 L 120 137 L 122 138 L 127 143 L 133 155 L 134 161 L 136 163 L 146 153 L 148 152 L 151 152 L 153 153 L 159 159 L 160 163 L 161 164 L 161 168 L 162 169 L 162 176 L 161 177 L 161 184 L 160 185 L 160 190 L 159 191 L 159 197 L 160 199 L 167 206 L 167 207 L 175 215 L 175 216 L 179 220 L 179 221 L 183 225 L 183 226 L 185 228 L 187 228 L 190 225 L 192 225 L 196 230 L 202 242 L 209 248 L 211 246 L 212 242 L 213 241 L 216 241 L 218 243 L 221 249 L 221 251 L 226 259 L 227 259 L 230 255 L 233 255 L 237 259 L 240 265 L 244 269 L 245 269 L 245 268 L 248 265 L 249 265 L 255 271 L 255 272 L 259 277 L 260 280 L 265 285 L 267 285 L 269 283 L 269 279 L 266 274 L 262 270 L 258 263 L 254 259 L 252 259 L 247 254 L 246 249 L 244 246 L 242 248 L 238 248 L 235 245 L 234 243 L 234 228 L 233 227 L 231 228 L 228 228 L 226 226 L 226 217 L 227 216 L 227 213 L 228 212 L 228 209 L 229 207 L 228 206 L 224 206 L 222 204 L 222 199 L 227 189 L 227 187 L 223 187 L 221 185 L 221 181 L 230 168 L 230 159 L 239 140 L 239 139 L 237 137 L 230 135 L 225 130 L 220 121 L 220 118 L 219 117 L 219 107 L 221 103 L 222 97 L 224 95 L 224 93 L 226 91 L 226 90 L 232 84 L 237 81 L 239 81 L 243 79 L 257 79 L 267 84 L 273 91 L 276 91 L 278 89 L 281 88 L 285 85 L 287 85 L 290 83 L 292 83 L 298 80 L 300 80 L 301 79 L 301 77 L 306 73 L 311 73 L 312 74 L 320 74 L 321 73 L 321 71 L 319 68 L 319 65 L 322 62 L 328 63 L 334 66 L 337 69 L 341 70 L 351 60 L 353 60 L 354 59 L 356 59 L 358 61 L 358 66 L 356 70 L 357 71 L 360 71 L 361 70 L 376 70 L 377 71 L 387 72 L 388 73 L 395 74 L 398 76 L 401 76 L 404 69 L 411 62 L 412 62 L 417 58 L 421 57 L 424 55 L 437 55 L 438 56 L 441 56 L 450 61 L 459 70 L 460 73 L 463 77 L 463 79 L 465 83 L 465 93 L 464 94 L 464 97 L 461 103 L 458 106 L 458 107 L 456 108 L 450 114 L 450 116 L 455 121 L 460 132 L 462 134 L 464 138 L 468 142 L 469 144 L 469 147 L 467 149 L 467 150 L 469 152 L 476 156 L 480 161 L 480 164 L 477 167 L 472 166 L 472 168 L 473 170 L 481 178 L 484 184 L 484 187 L 482 189 L 478 189 L 477 188 L 475 189 L 476 193 L 480 201 L 482 203 L 482 206 L 483 208 L 480 212 L 478 212 L 475 210 L 473 211 L 473 214 L 474 215 L 474 228 L 473 230 L 471 232 L 469 232 L 467 230 L 466 231 L 466 235 L 465 236 L 464 242 L 458 254 L 455 257 L 454 257 L 451 260 L 446 263 L 441 268 L 440 268 L 439 269 L 439 272 L 444 272 L 445 273 L 447 273 L 448 274 L 447 279 L 449 281 L 453 282 L 459 287 L 465 290 L 470 295 L 474 297 L 485 309 L 486 309 L 501 323 L 503 327 L 503 330 L 510 340 L 510 343 L 512 347 L 512 350 L 514 352 L 516 357 L 520 362 L 520 364 L 522 367 L 522 370 L 523 371 L 525 382 L 524 383 L 522 383 L 520 381 L 520 379 L 518 377 L 516 378 L 516 380 L 515 381 L 515 387 L 514 388 L 514 391 L 513 392 L 513 395 L 512 396 L 511 401 L 507 406 L 506 406 L 504 404 L 502 406 L 501 410 L 500 411 L 499 418 L 497 420 L 495 420 L 493 418 L 491 420 L 489 425 L 484 431 L 479 440 L 472 447 L 469 447 L 467 445 L 465 445 L 461 454 L 447 467 L 446 467 L 437 474 L 431 477 L 428 477 L 424 479 L 416 479 L 414 477 L 414 470 L 415 469 L 414 468 L 411 469 L 405 474 L 399 477 L 391 474 L 388 471 L 388 466 L 389 465 L 389 462 L 394 452 L 392 451 L 389 454 L 384 457 L 377 458 L 375 457 L 370 451 L 370 444 L 372 440 L 378 433 L 380 429 L 379 428 L 376 428 L 373 430 L 363 431 L 359 428 L 358 426 L 358 421 L 359 420 L 360 416 L 363 413 L 368 410 L 370 410 L 375 407 L 377 407 L 389 400 L 406 383 L 409 378 L 427 361 L 428 359 L 427 357 L 422 357 L 417 361 L 413 362 L 410 359 L 409 356 L 406 353 L 405 353 L 404 355 L 406 359 L 406 366 L 403 371 L 379 396 L 374 399 L 367 401 L 365 403 L 362 404 L 354 413 L 351 419 L 351 430 L 353 432 L 354 435 L 357 438 L 357 440 L 358 441 L 358 445 L 361 451 L 361 453 L 365 460 L 368 463 L 374 466 L 376 468 L 379 469 L 382 472 L 382 475 L 379 478 L 375 480 L 367 481 L 360 484 L 354 489 L 349 491 L 347 493 L 339 497 L 336 500 L 335 500 L 315 520 L 315 521 L 311 526 L 304 541 L 303 549 L 302 550 L 302 554 L 301 555 L 301 558 L 300 559 L 300 569 L 305 578 L 306 586 L 311 598 L 313 600 L 315 604 L 319 608 L 319 609 L 327 617 L 332 620 L 339 627 L 340 631 L 341 632 L 341 635 L 340 637 L 336 641 L 332 642 L 327 648 L 326 654 L 325 655 L 325 660 L 324 661 L 324 673 L 325 674 L 325 676 L 331 683 L 336 686 L 338 686 L 342 688 L 345 688 L 346 689 L 356 690 L 357 691 L 384 691 L 385 690 L 404 690 L 405 689 L 410 689 L 411 688 L 414 688 L 415 687 L 419 687 L 420 686 L 431 684 L 437 681 L 440 681 L 443 679 L 445 679 L 455 674 L 463 667 L 463 666 L 467 662 L 470 657 L 470 655 L 472 651 L 472 642 L 471 641 L 471 636 L 466 626 L 460 619 L 457 614 L 457 600 L 456 599 L 456 595 L 455 594 L 455 592 L 451 585 L 451 582 L 450 581 L 450 573 L 452 571 L 454 571 L 457 569 L 459 569 L 464 566 L 468 565 L 482 554 L 483 554 L 497 540 L 497 539 L 500 536 L 505 526 L 510 521 L 513 520 L 518 516 L 523 514 L 526 511 L 527 511 L 532 506 L 532 505 L 536 500 L 539 494 L 539 492 L 541 489 L 541 487 L 542 486 L 542 481 L 543 480 L 542 467 L 540 464 L 540 462 L 537 456 L 537 454 L 530 446 L 527 446 L 526 445 L 519 445 L 516 442 L 516 440 L 515 439 L 515 434 L 514 433 L 514 414 L 516 411 L 518 404 L 525 394 L 531 380 L 531 368 L 529 364 L 528 358 L 523 349 L 521 342 L 516 332 L 509 323 L 509 322 L 503 316 L 501 312 L 496 307 L 493 301 L 475 285 L 469 282 L 456 269 L 463 260 L 463 259 L 468 254 L 472 244 L 480 234 L 481 224 L 483 220 L 487 216 L 489 212 L 489 204 L 488 203 L 488 199 L 487 197 L 491 191 L 491 184 L 490 183 L 490 181 L 485 174 L 485 170 L 488 165 L 487 160 L 486 158 L 477 149 L 476 145 L 473 139 L 468 132 L 461 118 L 463 113 L 467 108 L 471 100 L 471 97 L 472 96 L 473 86 L 472 85 L 472 80 L 469 74 L 469 72 L 464 64 L 457 58 L 445 52 L 443 52 L 439 50 L 434 50 Z M 527 455 L 530 459 L 530 465 L 533 470 L 533 473 L 534 474 L 534 481 L 532 484 L 531 489 L 529 493 L 527 495 L 526 498 L 517 507 L 515 507 L 514 506 L 514 500 L 515 499 L 515 497 L 517 493 L 517 490 L 519 486 L 519 467 L 518 466 L 518 459 L 522 455 Z M 504 432 L 508 436 L 509 440 L 510 441 L 510 446 L 507 450 L 507 453 L 508 454 L 508 461 L 509 462 L 509 467 L 510 468 L 510 481 L 507 484 L 507 489 L 506 490 L 506 499 L 505 500 L 505 505 L 504 506 L 502 514 L 493 531 L 477 548 L 473 550 L 467 555 L 455 561 L 449 562 L 448 563 L 443 563 L 441 562 L 431 551 L 430 551 L 432 555 L 432 558 L 430 560 L 426 560 L 425 559 L 423 559 L 422 560 L 422 561 L 425 564 L 425 567 L 422 570 L 418 572 L 419 573 L 436 573 L 439 576 L 444 587 L 444 591 L 445 592 L 445 605 L 444 606 L 444 610 L 443 611 L 443 613 L 433 632 L 431 634 L 429 638 L 425 642 L 425 643 L 412 656 L 409 661 L 402 668 L 401 671 L 406 675 L 410 675 L 412 673 L 419 661 L 434 645 L 434 644 L 439 638 L 440 635 L 442 633 L 445 627 L 452 619 L 454 619 L 459 626 L 459 628 L 462 633 L 462 638 L 463 639 L 462 641 L 462 647 L 458 656 L 450 664 L 447 665 L 443 669 L 440 670 L 438 672 L 431 676 L 425 677 L 424 678 L 412 678 L 410 680 L 408 680 L 405 682 L 395 682 L 391 679 L 392 675 L 394 673 L 397 667 L 396 665 L 394 665 L 390 668 L 386 668 L 383 670 L 380 670 L 377 664 L 376 658 L 374 655 L 372 655 L 371 656 L 371 660 L 370 661 L 371 662 L 371 670 L 373 673 L 379 675 L 382 678 L 379 681 L 366 681 L 360 678 L 357 674 L 357 665 L 356 663 L 353 663 L 350 666 L 347 674 L 345 676 L 344 676 L 340 672 L 340 670 L 338 666 L 338 660 L 342 653 L 357 637 L 361 636 L 362 635 L 366 635 L 367 634 L 374 634 L 376 633 L 376 632 L 374 630 L 372 630 L 369 628 L 356 626 L 351 623 L 338 611 L 333 608 L 319 593 L 318 589 L 316 586 L 316 583 L 314 580 L 314 566 L 313 565 L 313 561 L 314 560 L 314 555 L 315 554 L 314 552 L 314 544 L 321 537 L 322 535 L 322 533 L 320 531 L 320 529 L 326 523 L 327 523 L 328 521 L 336 513 L 341 510 L 358 494 L 359 494 L 364 490 L 370 489 L 371 488 L 374 488 L 375 487 L 385 487 L 386 486 L 396 486 L 397 485 L 399 485 L 400 486 L 404 486 L 405 487 L 408 487 L 409 488 L 412 488 L 413 489 L 423 489 L 424 488 L 428 488 L 429 487 L 431 487 L 443 481 L 445 479 L 449 477 L 457 469 L 463 466 L 469 461 L 470 461 L 474 457 L 478 455 L 486 447 L 486 446 L 492 439 L 497 437 L 502 432 Z" fill="#010101" fill-rule="evenodd"/></svg>