<svg xmlns="http://www.w3.org/2000/svg" viewBox="0 0 653 704" shape-rendering="geometricPrecision"><title>intro frame 044</title><path d="M 538 648 L 534 641 L 523 640 L 518 644 L 506 645 L 486 652 L 484 655 L 484 663 L 485 666 L 490 671 L 496 672 L 499 669 L 500 663 L 502 661 L 507 661 L 513 666 L 515 671 L 518 674 L 521 674 L 523 671 L 524 660 L 531 653 L 535 652 Z M 343 528 L 338 529 L 336 532 L 337 533 L 339 532 Z M 374 498 L 370 498 L 366 502 L 358 516 L 357 520 L 362 524 L 369 519 L 374 511 L 376 505 L 375 499 Z M 420 497 L 418 500 L 419 502 L 418 504 L 418 512 L 413 525 L 414 527 L 416 526 L 416 524 L 418 522 L 421 513 L 421 510 L 422 509 L 422 499 Z M 404 502 L 402 503 L 397 503 L 391 497 L 391 496 L 389 496 L 387 498 L 387 508 L 386 509 L 385 518 L 381 527 L 379 528 L 377 526 L 373 526 L 372 527 L 363 526 L 359 533 L 362 535 L 369 531 L 377 529 L 380 537 L 385 532 L 396 517 L 400 516 L 406 509 L 406 505 Z M 385 484 L 383 482 L 381 482 L 375 487 L 378 489 L 380 487 L 385 485 Z M 491 383 L 490 384 L 491 385 L 491 388 L 494 389 L 494 386 Z M 455 213 L 454 216 L 455 218 L 457 219 L 457 216 Z M 68 132 L 65 134 L 64 136 L 64 140 L 65 140 L 67 135 L 69 133 Z M 447 32 L 434 27 L 426 27 L 425 28 L 422 28 L 416 30 L 409 35 L 404 42 L 404 45 L 401 49 L 397 49 L 384 44 L 373 43 L 372 42 L 365 42 L 364 43 L 352 44 L 350 42 L 350 40 L 353 34 L 352 33 L 345 36 L 343 39 L 339 42 L 336 42 L 325 36 L 322 36 L 321 37 L 322 39 L 322 44 L 320 46 L 317 47 L 303 47 L 299 52 L 295 53 L 290 56 L 288 56 L 283 60 L 277 63 L 274 66 L 271 66 L 261 55 L 252 51 L 245 51 L 241 53 L 238 53 L 228 59 L 222 66 L 218 78 L 218 86 L 219 87 L 219 90 L 221 94 L 227 100 L 232 103 L 236 104 L 239 107 L 238 114 L 235 119 L 235 121 L 231 128 L 231 131 L 230 132 L 231 140 L 221 152 L 221 153 L 226 153 L 228 155 L 228 159 L 223 168 L 223 172 L 222 173 L 223 175 L 225 173 L 227 173 L 229 175 L 229 181 L 227 185 L 226 195 L 228 196 L 230 194 L 232 194 L 235 197 L 235 212 L 238 216 L 242 213 L 244 213 L 246 215 L 247 221 L 252 225 L 263 237 L 270 238 L 273 241 L 281 245 L 287 253 L 287 257 L 286 258 L 283 258 L 273 251 L 271 251 L 269 253 L 268 256 L 266 258 L 263 259 L 258 254 L 255 247 L 252 244 L 250 240 L 248 240 L 248 241 L 244 244 L 240 240 L 237 234 L 233 230 L 229 233 L 225 229 L 222 223 L 222 221 L 217 213 L 215 214 L 215 219 L 213 221 L 211 221 L 205 215 L 201 209 L 197 200 L 194 197 L 191 200 L 189 200 L 182 193 L 179 188 L 170 178 L 165 170 L 159 163 L 159 157 L 162 150 L 162 144 L 163 143 L 163 132 L 161 126 L 157 121 L 154 120 L 160 129 L 160 140 L 157 147 L 150 153 L 146 152 L 141 146 L 141 138 L 144 129 L 142 131 L 139 131 L 137 129 L 133 115 L 125 104 L 123 104 L 123 105 L 132 117 L 134 122 L 134 132 L 131 136 L 129 137 L 123 137 L 118 133 L 112 134 L 110 132 L 107 123 L 105 121 L 103 116 L 97 110 L 92 108 L 88 108 L 85 111 L 84 113 L 84 117 L 85 117 L 86 114 L 89 111 L 92 111 L 96 113 L 106 124 L 108 130 L 108 138 L 103 143 L 95 143 L 93 142 L 89 145 L 81 136 L 75 132 L 72 132 L 72 133 L 76 134 L 88 146 L 90 150 L 90 155 L 84 162 L 77 162 L 76 161 L 74 162 L 74 163 L 81 169 L 83 173 L 83 179 L 79 184 L 77 185 L 73 185 L 71 183 L 68 182 L 64 178 L 62 170 L 67 164 L 66 163 L 61 163 L 59 165 L 58 169 L 60 175 L 64 179 L 68 186 L 71 189 L 78 194 L 85 201 L 92 205 L 97 210 L 97 212 L 101 220 L 106 224 L 109 229 L 115 235 L 123 246 L 146 266 L 148 266 L 156 273 L 164 277 L 166 277 L 168 279 L 170 279 L 178 283 L 182 283 L 183 284 L 189 285 L 192 288 L 192 290 L 186 295 L 187 296 L 201 296 L 206 301 L 211 303 L 223 303 L 225 305 L 225 307 L 217 314 L 218 315 L 222 315 L 228 317 L 232 317 L 234 315 L 235 311 L 238 306 L 240 298 L 243 293 L 244 285 L 247 279 L 251 276 L 255 277 L 257 279 L 257 281 L 248 289 L 251 293 L 251 296 L 246 302 L 247 308 L 243 320 L 243 330 L 239 338 L 239 340 L 241 340 L 250 334 L 253 336 L 253 342 L 251 344 L 251 346 L 247 354 L 237 362 L 231 372 L 234 373 L 237 377 L 235 382 L 231 386 L 226 394 L 230 394 L 233 397 L 233 400 L 227 411 L 223 416 L 223 418 L 220 423 L 221 424 L 226 420 L 229 423 L 229 427 L 227 430 L 225 436 L 225 439 L 224 440 L 224 443 L 223 444 L 226 445 L 228 443 L 231 443 L 238 452 L 243 462 L 242 463 L 239 463 L 238 462 L 225 462 L 224 463 L 214 464 L 210 466 L 207 466 L 205 468 L 203 468 L 202 469 L 202 474 L 200 476 L 191 479 L 192 483 L 190 489 L 186 493 L 184 493 L 178 496 L 174 500 L 174 502 L 180 507 L 180 510 L 176 518 L 175 527 L 173 531 L 173 545 L 172 546 L 173 566 L 186 571 L 193 578 L 193 581 L 192 582 L 184 582 L 180 580 L 165 580 L 159 583 L 154 584 L 152 586 L 149 586 L 139 590 L 134 595 L 134 599 L 138 603 L 140 603 L 146 597 L 149 597 L 153 600 L 155 600 L 159 596 L 164 595 L 167 596 L 170 599 L 174 609 L 178 613 L 181 613 L 182 614 L 198 614 L 207 618 L 233 618 L 238 616 L 242 612 L 242 607 L 244 603 L 244 594 L 245 593 L 245 588 L 246 587 L 246 581 L 247 580 L 247 573 L 255 567 L 255 555 L 257 553 L 262 553 L 265 549 L 264 546 L 262 544 L 256 541 L 256 539 L 258 537 L 265 537 L 266 536 L 272 536 L 275 535 L 276 533 L 270 526 L 270 524 L 272 522 L 280 522 L 283 518 L 283 516 L 280 510 L 275 505 L 268 493 L 248 473 L 244 467 L 245 464 L 246 464 L 254 472 L 261 476 L 261 473 L 260 472 L 260 464 L 264 458 L 267 461 L 267 477 L 270 483 L 275 487 L 277 486 L 277 480 L 278 479 L 279 472 L 283 467 L 285 467 L 287 469 L 287 473 L 283 484 L 283 490 L 287 496 L 287 498 L 290 503 L 292 510 L 295 511 L 300 505 L 302 505 L 303 506 L 303 511 L 301 514 L 301 518 L 306 522 L 312 524 L 318 528 L 321 528 L 323 530 L 328 530 L 332 525 L 338 523 L 351 511 L 357 502 L 367 491 L 367 485 L 366 484 L 363 484 L 361 486 L 356 486 L 355 487 L 352 487 L 351 486 L 351 481 L 353 475 L 356 471 L 354 469 L 351 468 L 347 468 L 346 469 L 344 468 L 340 468 L 337 470 L 332 466 L 330 462 L 327 463 L 324 462 L 323 460 L 324 452 L 325 451 L 325 442 L 321 440 L 310 440 L 307 437 L 299 434 L 287 425 L 278 416 L 276 412 L 273 409 L 267 391 L 267 386 L 266 385 L 267 383 L 267 373 L 266 371 L 276 353 L 276 350 L 278 347 L 278 345 L 286 338 L 288 338 L 293 335 L 296 335 L 303 332 L 317 332 L 325 328 L 327 324 L 330 321 L 334 319 L 338 319 L 340 317 L 344 318 L 347 316 L 356 316 L 357 315 L 362 315 L 363 314 L 370 313 L 381 303 L 385 304 L 391 313 L 400 314 L 404 317 L 405 320 L 402 324 L 393 325 L 392 326 L 387 326 L 382 328 L 378 328 L 374 330 L 369 330 L 365 332 L 361 332 L 360 333 L 356 333 L 355 334 L 344 336 L 338 338 L 333 341 L 331 341 L 325 345 L 321 345 L 320 346 L 301 346 L 298 348 L 296 348 L 293 351 L 293 354 L 294 355 L 300 356 L 303 360 L 302 362 L 297 366 L 295 366 L 293 368 L 291 368 L 289 370 L 286 371 L 281 377 L 281 382 L 282 383 L 299 382 L 300 383 L 300 386 L 287 399 L 286 403 L 288 405 L 293 406 L 303 402 L 306 402 L 311 407 L 311 411 L 315 415 L 319 417 L 325 417 L 329 419 L 338 418 L 339 417 L 342 417 L 348 415 L 351 413 L 356 413 L 360 411 L 363 411 L 366 409 L 378 407 L 385 401 L 387 401 L 390 404 L 391 407 L 393 408 L 394 407 L 397 407 L 401 405 L 412 395 L 416 393 L 421 393 L 425 395 L 433 394 L 448 380 L 450 380 L 452 382 L 451 390 L 452 392 L 454 392 L 461 381 L 462 370 L 463 369 L 463 365 L 465 360 L 467 359 L 472 364 L 474 368 L 476 368 L 480 365 L 480 357 L 479 356 L 479 352 L 480 351 L 479 346 L 480 344 L 476 332 L 477 315 L 469 300 L 460 290 L 460 287 L 462 285 L 466 285 L 466 284 L 454 271 L 452 267 L 453 263 L 446 258 L 441 256 L 435 250 L 429 250 L 423 252 L 420 252 L 417 250 L 415 250 L 408 256 L 405 254 L 405 247 L 409 240 L 412 238 L 416 241 L 421 233 L 423 234 L 424 237 L 429 228 L 429 223 L 431 221 L 434 223 L 435 225 L 435 229 L 436 230 L 440 227 L 441 223 L 438 222 L 435 218 L 435 215 L 440 210 L 442 212 L 444 217 L 443 220 L 444 221 L 446 217 L 445 209 L 443 205 L 437 198 L 439 196 L 442 196 L 446 199 L 448 199 L 448 194 L 446 190 L 449 187 L 452 188 L 455 192 L 457 191 L 456 184 L 454 181 L 456 179 L 456 173 L 450 167 L 450 164 L 453 163 L 461 167 L 462 165 L 464 165 L 466 167 L 468 171 L 468 176 L 469 177 L 467 183 L 467 192 L 469 194 L 471 194 L 470 193 L 471 186 L 469 184 L 469 178 L 472 175 L 475 177 L 478 177 L 477 171 L 473 162 L 471 160 L 471 157 L 475 153 L 479 155 L 480 154 L 474 145 L 466 137 L 466 134 L 470 131 L 474 131 L 474 129 L 471 126 L 467 125 L 462 120 L 463 112 L 457 101 L 455 99 L 452 92 L 445 84 L 445 81 L 450 77 L 453 76 L 456 73 L 460 67 L 462 61 L 462 52 L 459 44 L 456 40 Z M 329 511 L 331 511 L 333 514 L 332 515 L 333 518 L 330 522 L 328 522 L 324 518 L 324 516 Z M 317 497 L 319 499 L 319 503 L 313 510 L 311 510 L 309 508 L 309 504 L 315 497 Z M 345 491 L 347 493 L 347 497 L 341 504 L 339 502 L 339 498 Z M 331 484 L 333 487 L 330 490 L 328 487 L 329 485 Z M 258 437 L 259 438 L 259 445 L 257 451 L 255 453 L 253 453 L 251 450 L 252 444 L 254 440 Z M 253 420 L 256 423 L 256 425 L 248 435 L 245 436 L 244 435 L 244 431 L 246 429 L 247 425 Z M 253 406 L 255 408 L 251 416 L 248 419 L 246 419 L 244 417 L 246 412 L 251 406 Z M 290 322 L 293 319 L 295 321 L 293 323 Z M 255 265 L 259 268 L 259 271 L 256 274 L 254 274 L 252 272 L 252 268 Z M 398 251 L 400 253 L 396 256 L 395 254 Z M 386 249 L 386 253 L 385 255 L 370 270 L 366 272 L 357 280 L 353 281 L 346 285 L 342 285 L 336 283 L 328 277 L 316 270 L 311 266 L 306 260 L 306 256 L 308 254 L 314 254 L 315 255 L 323 256 L 324 257 L 338 258 L 339 257 L 351 256 L 352 255 L 360 254 L 364 252 L 368 252 L 381 247 L 384 247 Z M 131 144 L 141 154 L 145 161 L 146 168 L 143 176 L 134 185 L 123 191 L 121 193 L 117 194 L 115 196 L 109 197 L 108 198 L 98 198 L 93 196 L 86 189 L 85 182 L 84 181 L 84 177 L 88 169 L 88 167 L 90 165 L 90 163 L 93 160 L 94 157 L 100 150 L 111 143 L 114 143 L 115 142 L 125 142 L 128 144 Z M 372 134 L 377 128 L 386 124 L 404 124 L 405 125 L 408 125 L 417 130 L 421 136 L 422 142 L 421 143 L 421 146 L 416 151 L 412 153 L 409 153 L 408 154 L 394 154 L 393 153 L 390 153 L 384 151 L 382 149 L 379 148 L 372 141 Z M 293 118 L 296 115 L 298 115 L 300 113 L 303 112 L 306 112 L 307 111 L 318 111 L 325 114 L 329 118 L 329 120 L 327 122 L 324 122 L 320 120 L 315 120 L 314 119 L 305 119 L 304 120 L 301 120 L 298 122 L 294 122 L 293 121 Z M 276 104 L 281 105 L 284 109 L 285 112 L 285 123 L 284 125 L 285 126 L 302 125 L 303 126 L 311 127 L 313 129 L 315 129 L 320 134 L 322 139 L 322 142 L 320 148 L 312 157 L 308 158 L 305 160 L 302 160 L 293 163 L 291 162 L 285 162 L 280 160 L 273 153 L 271 149 L 268 147 L 268 163 L 274 170 L 284 172 L 293 166 L 299 166 L 300 167 L 303 167 L 312 170 L 328 171 L 337 168 L 343 164 L 347 163 L 354 156 L 355 153 L 359 149 L 361 149 L 366 154 L 367 156 L 367 160 L 368 161 L 368 172 L 369 173 L 369 183 L 368 184 L 368 192 L 367 193 L 366 203 L 364 207 L 364 210 L 357 224 L 344 235 L 334 239 L 330 239 L 328 240 L 327 239 L 319 238 L 308 232 L 298 222 L 285 204 L 281 196 L 278 184 L 276 182 L 268 178 L 260 169 L 258 165 L 257 155 L 256 155 L 250 161 L 243 165 L 237 165 L 232 160 L 231 158 L 231 151 L 234 146 L 242 139 L 247 137 L 254 137 L 260 142 L 267 142 L 268 141 L 268 139 L 270 136 L 270 133 L 266 127 L 266 117 L 270 109 Z M 360 99 L 365 100 L 369 104 L 372 111 L 372 120 L 369 127 L 364 131 L 359 131 L 357 130 L 352 125 L 350 119 L 350 111 L 353 104 L 357 100 Z M 252 66 L 260 73 L 260 75 L 248 93 L 244 97 L 240 98 L 238 97 L 232 90 L 231 87 L 231 79 L 232 76 L 238 68 L 242 66 Z M 284 65 L 289 70 L 289 75 L 274 85 L 270 85 L 267 81 L 269 76 L 279 66 Z M 355 61 L 360 56 L 366 56 L 369 58 L 373 59 L 379 65 L 380 70 L 376 75 L 373 75 L 362 69 L 358 68 L 355 65 Z M 429 40 L 437 41 L 440 43 L 447 50 L 449 54 L 450 63 L 448 67 L 441 74 L 436 74 L 416 57 L 416 52 L 417 50 L 425 42 Z" fill="#FBFBFB" fill-rule="evenodd"/><path d="M 271 616 L 269 621 L 260 630 L 247 638 L 241 639 L 240 640 L 217 640 L 233 640 L 236 641 L 237 640 L 242 640 L 248 638 L 263 628 L 268 623 Z M 388 581 L 392 587 L 403 598 L 414 612 L 423 619 L 426 623 L 434 627 L 441 633 L 437 629 L 431 626 L 419 616 L 392 587 Z M 342 571 L 348 572 L 352 574 L 356 574 L 357 575 L 376 575 L 377 574 L 380 574 L 355 574 L 354 573 L 349 573 L 348 572 Z M 331 512 L 329 512 L 325 516 L 325 518 L 328 521 L 330 521 L 332 518 L 331 515 L 332 514 Z M 162 500 L 161 502 L 161 520 L 159 523 L 159 527 L 158 528 L 158 533 L 157 534 L 157 548 L 156 549 L 157 552 L 157 560 L 159 564 L 159 568 L 156 571 L 160 568 L 157 559 L 157 536 L 158 535 L 158 529 L 159 528 L 159 525 L 161 520 L 161 516 L 162 515 L 161 512 L 161 502 Z M 317 498 L 315 498 L 311 502 L 310 504 L 310 508 L 311 509 L 313 509 L 317 505 L 318 503 L 318 499 Z M 345 492 L 340 498 L 340 502 L 341 503 L 346 497 L 346 493 Z M 197 476 L 189 478 L 186 481 L 186 483 L 189 486 L 189 488 L 185 492 L 178 495 L 172 500 L 172 503 L 174 505 L 176 505 L 179 508 L 178 512 L 175 516 L 175 521 L 173 526 L 172 537 L 171 538 L 171 565 L 173 567 L 172 566 L 172 554 L 171 553 L 172 531 L 174 527 L 175 518 L 179 510 L 179 507 L 173 502 L 173 500 L 178 495 L 184 492 L 186 492 L 189 489 L 191 483 L 190 479 L 192 477 Z M 258 438 L 255 440 L 253 444 L 253 447 L 252 448 L 253 452 L 256 451 L 258 445 Z M 225 434 L 222 442 L 222 447 L 225 448 L 228 445 L 230 445 L 236 451 L 240 458 L 240 460 L 239 461 L 225 461 L 224 462 L 220 462 L 224 462 L 225 461 L 238 461 L 239 462 L 242 462 L 237 452 L 231 444 L 228 444 L 226 446 L 224 446 L 222 444 L 223 443 L 223 440 Z M 253 421 L 248 425 L 247 429 L 245 431 L 245 435 L 247 435 L 255 425 L 255 423 Z M 518 417 L 520 423 L 521 432 L 522 433 L 523 443 L 522 444 L 520 454 L 512 471 L 510 477 L 510 480 L 510 477 L 512 471 L 515 466 L 518 457 L 520 455 L 523 446 L 523 435 L 521 431 L 521 427 L 520 426 L 520 423 Z M 253 407 L 251 407 L 247 412 L 245 416 L 246 418 L 248 418 L 250 416 L 254 408 Z M 566 606 L 566 596 L 561 584 L 554 578 L 552 578 L 540 572 L 532 563 L 525 559 L 522 556 L 522 553 L 524 551 L 524 549 L 520 545 L 517 540 L 505 528 L 505 520 L 501 511 L 499 509 L 497 509 L 494 514 L 490 518 L 487 519 L 484 519 L 481 516 L 481 509 L 489 497 L 494 487 L 494 484 L 497 478 L 498 470 L 499 469 L 499 454 L 502 450 L 504 451 L 506 450 L 504 436 L 503 435 L 502 428 L 500 425 L 500 423 L 503 420 L 503 416 L 491 395 L 493 393 L 497 393 L 498 390 L 496 386 L 491 380 L 488 382 L 488 384 L 485 389 L 473 401 L 468 404 L 459 407 L 449 414 L 445 414 L 439 416 L 431 416 L 424 420 L 410 421 L 401 424 L 392 429 L 381 429 L 368 434 L 361 433 L 360 434 L 350 434 L 349 435 L 337 435 L 328 438 L 311 438 L 296 431 L 279 416 L 287 424 L 296 431 L 301 434 L 307 436 L 310 439 L 321 439 L 324 440 L 326 442 L 326 451 L 325 452 L 325 457 L 324 458 L 325 462 L 330 461 L 332 463 L 333 466 L 337 469 L 340 467 L 344 467 L 345 468 L 347 467 L 351 467 L 354 468 L 357 471 L 354 475 L 352 481 L 352 486 L 361 485 L 363 483 L 366 483 L 368 485 L 368 491 L 365 495 L 358 502 L 352 511 L 338 524 L 332 526 L 328 531 L 323 531 L 321 529 L 318 529 L 314 526 L 306 523 L 300 518 L 300 514 L 302 511 L 302 506 L 300 506 L 295 512 L 293 512 L 291 510 L 291 508 L 286 498 L 286 496 L 282 490 L 282 484 L 286 473 L 286 469 L 285 468 L 283 468 L 281 470 L 279 475 L 279 479 L 278 480 L 278 486 L 275 488 L 272 486 L 267 480 L 266 477 L 266 461 L 264 459 L 261 464 L 261 472 L 262 473 L 262 476 L 261 477 L 258 476 L 245 465 L 245 467 L 249 473 L 272 497 L 276 505 L 281 510 L 284 516 L 284 518 L 280 523 L 272 523 L 271 524 L 271 526 L 277 533 L 275 536 L 272 537 L 266 537 L 265 538 L 258 538 L 257 539 L 257 541 L 262 543 L 265 546 L 266 549 L 262 554 L 257 554 L 256 555 L 256 567 L 248 573 L 248 580 L 247 581 L 247 587 L 246 588 L 246 593 L 245 594 L 245 603 L 243 607 L 243 612 L 238 617 L 233 619 L 207 619 L 198 615 L 182 615 L 181 614 L 178 614 L 173 609 L 169 599 L 167 597 L 164 596 L 159 597 L 155 601 L 153 601 L 149 598 L 146 598 L 140 604 L 138 604 L 133 599 L 133 595 L 139 589 L 142 588 L 136 591 L 132 597 L 132 600 L 137 605 L 140 605 L 147 598 L 150 599 L 157 607 L 158 607 L 158 599 L 160 597 L 165 597 L 169 601 L 170 609 L 172 611 L 171 613 L 174 615 L 196 616 L 197 617 L 200 617 L 201 618 L 204 618 L 213 621 L 230 622 L 231 621 L 237 621 L 242 619 L 250 618 L 257 612 L 258 610 L 258 600 L 264 589 L 266 587 L 267 583 L 270 578 L 270 573 L 266 568 L 266 565 L 268 563 L 271 563 L 273 565 L 275 565 L 285 557 L 300 558 L 301 556 L 296 551 L 296 547 L 295 546 L 298 543 L 302 543 L 322 553 L 328 555 L 332 555 L 343 559 L 347 559 L 351 561 L 387 562 L 388 561 L 394 561 L 395 560 L 403 560 L 406 564 L 406 567 L 403 571 L 397 574 L 417 595 L 423 606 L 425 608 L 432 607 L 435 610 L 436 614 L 441 622 L 452 624 L 472 634 L 480 635 L 485 637 L 498 637 L 499 636 L 505 636 L 506 635 L 510 635 L 512 637 L 512 639 L 510 641 L 501 646 L 497 647 L 506 644 L 518 643 L 523 639 L 534 640 L 536 642 L 539 648 L 535 653 L 531 654 L 525 660 L 524 671 L 521 675 L 518 675 L 514 671 L 512 666 L 507 662 L 502 662 L 500 666 L 500 669 L 496 673 L 490 672 L 484 666 L 483 663 L 483 655 L 484 653 L 487 651 L 486 651 L 483 655 L 483 663 L 486 670 L 492 676 L 494 677 L 501 677 L 502 676 L 501 673 L 501 665 L 504 662 L 507 662 L 511 666 L 514 674 L 519 678 L 522 678 L 526 676 L 525 662 L 529 657 L 532 655 L 536 655 L 538 657 L 538 665 L 540 668 L 547 662 L 551 656 L 555 648 L 555 645 L 558 639 L 558 636 L 562 628 L 564 615 L 565 614 L 565 607 Z M 283 535 L 285 534 L 286 537 L 284 538 Z M 343 527 L 344 528 L 339 533 L 337 534 L 335 532 L 338 528 Z M 374 497 L 376 499 L 376 502 L 377 503 L 375 511 L 370 519 L 362 525 L 356 520 L 357 516 L 365 502 L 370 497 Z M 451 496 L 452 497 L 452 504 L 449 512 L 447 513 L 446 512 L 446 509 L 448 505 L 448 501 Z M 420 496 L 423 499 L 423 509 L 422 510 L 422 513 L 419 522 L 417 524 L 417 526 L 414 528 L 412 525 L 417 512 L 417 504 L 418 503 L 417 500 Z M 407 505 L 407 509 L 405 512 L 400 517 L 398 517 L 395 519 L 386 532 L 380 538 L 378 536 L 377 530 L 369 532 L 362 536 L 358 533 L 363 525 L 367 525 L 368 526 L 377 525 L 380 527 L 385 514 L 386 498 L 389 495 L 391 495 L 397 502 L 402 502 L 404 501 Z M 383 481 L 386 485 L 377 490 L 374 487 L 381 481 Z M 254 476 L 256 475 L 265 481 L 278 493 L 279 493 L 285 499 L 291 513 L 294 516 L 296 516 L 298 519 L 307 527 L 305 529 L 298 529 L 294 525 L 294 523 L 292 521 L 291 518 L 278 505 L 276 501 L 266 488 L 254 477 Z M 491 382 L 495 386 L 495 389 L 494 390 L 492 390 L 490 388 L 490 385 L 489 384 Z M 295 348 L 292 351 L 291 355 L 292 356 L 300 357 L 302 360 L 298 364 L 285 370 L 280 376 L 280 383 L 281 384 L 296 383 L 298 385 L 298 386 L 285 400 L 285 404 L 289 407 L 294 407 L 296 406 L 293 407 L 288 406 L 285 403 L 285 401 L 299 386 L 299 383 L 282 384 L 280 382 L 280 377 L 286 370 L 289 369 L 291 367 L 293 367 L 295 365 L 297 365 L 301 362 L 302 359 L 300 357 L 294 356 L 292 354 L 292 351 Z M 287 339 L 279 345 L 279 347 L 277 350 L 277 353 L 267 371 L 268 373 L 268 383 L 267 385 L 268 386 L 268 391 L 270 397 L 270 394 L 269 393 L 269 378 L 268 377 L 268 370 L 275 359 L 275 357 L 277 354 L 280 345 Z M 479 337 L 480 343 L 481 344 L 480 346 L 481 348 L 481 351 L 480 352 L 481 365 L 478 368 L 474 369 L 472 367 L 471 364 L 466 360 L 464 365 L 464 369 L 463 370 L 462 381 L 454 393 L 451 392 L 450 390 L 451 382 L 448 381 L 433 395 L 425 396 L 421 394 L 416 394 L 412 396 L 406 402 L 397 408 L 394 408 L 393 409 L 390 407 L 389 404 L 387 402 L 385 402 L 378 408 L 366 410 L 363 412 L 360 412 L 356 414 L 351 414 L 348 416 L 342 418 L 339 418 L 338 419 L 334 419 L 333 420 L 329 420 L 325 418 L 319 418 L 315 416 L 310 411 L 310 407 L 306 403 L 303 403 L 307 406 L 307 411 L 306 412 L 305 420 L 306 422 L 309 424 L 321 424 L 322 423 L 331 422 L 335 420 L 345 418 L 352 415 L 362 414 L 366 412 L 369 412 L 370 413 L 370 416 L 371 416 L 385 404 L 388 406 L 388 410 L 389 411 L 393 411 L 401 407 L 413 397 L 417 397 L 419 399 L 419 403 L 420 404 L 428 398 L 434 396 L 437 392 L 442 389 L 448 383 L 450 385 L 450 389 L 448 395 L 449 398 L 452 396 L 459 388 L 464 376 L 465 367 L 467 365 L 470 369 L 471 377 L 473 380 L 477 377 L 480 372 L 480 368 L 482 362 L 483 349 Z M 250 335 L 241 341 L 239 341 L 238 339 L 238 342 L 240 344 L 240 349 L 238 352 L 238 357 L 234 366 L 229 373 L 230 375 L 234 375 L 235 376 L 235 379 L 233 383 L 228 388 L 224 394 L 224 397 L 229 396 L 231 398 L 231 402 L 223 415 L 232 400 L 232 397 L 230 395 L 226 395 L 225 393 L 234 382 L 236 377 L 234 374 L 232 374 L 230 372 L 236 362 L 246 354 L 250 346 L 250 344 L 252 342 L 252 336 Z M 249 337 L 251 340 L 245 348 L 243 345 L 243 342 Z M 477 313 L 478 315 L 478 325 L 477 326 L 477 332 L 478 335 L 477 330 L 479 328 L 479 318 Z M 404 319 L 403 317 L 400 315 L 391 314 L 388 311 L 386 306 L 383 304 L 381 304 L 370 314 L 367 314 L 362 316 L 357 316 L 356 317 L 347 317 L 344 319 L 340 318 L 338 320 L 334 320 L 330 322 L 325 329 L 317 333 L 303 333 L 289 338 L 298 335 L 302 335 L 303 334 L 314 334 L 315 333 L 318 333 L 326 329 L 331 325 L 346 319 L 350 319 L 354 317 L 360 317 L 361 316 L 372 314 L 380 305 L 384 305 L 390 314 L 396 314 L 401 316 L 403 318 L 403 321 L 401 323 L 398 324 L 391 324 L 390 325 L 386 325 L 385 326 L 379 327 L 402 323 Z M 132 289 L 135 295 L 140 300 L 153 307 L 156 310 L 159 317 L 164 321 L 177 326 L 180 328 L 187 336 L 196 340 L 198 340 L 209 348 L 221 353 L 224 356 L 223 362 L 224 359 L 224 355 L 206 346 L 202 342 L 187 336 L 178 326 L 168 323 L 166 321 L 163 320 L 158 315 L 155 308 L 143 302 L 133 292 Z M 256 266 L 253 268 L 253 272 L 254 273 L 256 273 L 258 271 L 258 268 Z M 385 249 L 384 248 L 381 248 L 368 253 L 364 253 L 356 256 L 346 257 L 345 258 L 339 258 L 338 259 L 324 258 L 323 257 L 319 257 L 314 255 L 308 255 L 307 256 L 307 260 L 308 262 L 316 269 L 328 276 L 336 282 L 342 284 L 346 284 L 353 280 L 357 279 L 366 271 L 370 269 L 384 255 L 385 253 Z M 370 257 L 366 260 L 360 260 L 342 266 L 339 265 L 338 266 L 339 267 L 337 269 L 336 268 L 336 265 L 333 266 L 334 267 L 332 270 L 334 271 L 337 269 L 342 273 L 341 276 L 352 275 L 354 273 L 358 272 L 361 270 L 362 268 L 364 269 L 360 274 L 357 275 L 354 278 L 352 278 L 345 282 L 339 282 L 332 277 L 324 273 L 321 270 L 318 269 L 308 260 L 308 258 L 310 256 L 320 258 L 321 259 L 326 259 L 327 260 L 342 260 L 343 259 L 348 259 L 353 257 L 359 257 L 363 255 L 366 255 Z M 383 251 L 383 253 L 378 258 L 376 256 L 374 257 L 372 255 L 380 250 Z M 247 222 L 249 225 L 252 226 L 259 233 L 268 247 L 268 254 L 265 257 L 262 257 L 256 248 L 259 254 L 263 258 L 266 257 L 268 253 L 271 250 L 273 250 L 283 257 L 286 257 L 286 253 L 281 246 L 273 242 L 270 239 L 263 238 L 260 234 Z M 276 246 L 280 248 L 284 253 L 281 254 L 275 248 Z M 225 191 L 225 195 L 226 197 L 229 197 L 231 195 L 234 198 L 234 212 L 235 215 L 238 218 L 243 215 L 246 218 L 246 220 L 244 214 L 242 214 L 238 217 L 235 214 L 234 212 L 234 197 L 232 195 L 230 195 L 227 197 L 225 195 Z M 47 173 L 47 176 L 52 186 L 57 193 L 69 205 L 79 212 L 87 220 L 88 224 L 86 218 L 81 213 L 73 208 L 59 195 L 52 186 L 47 176 Z M 58 170 L 58 173 L 60 177 L 68 188 L 83 201 L 90 205 L 96 211 L 109 239 L 121 256 L 132 267 L 140 273 L 149 278 L 152 281 L 153 286 L 151 288 L 146 288 L 146 290 L 157 296 L 172 301 L 174 303 L 174 307 L 171 310 L 172 312 L 183 317 L 196 319 L 198 321 L 198 325 L 196 327 L 198 329 L 211 331 L 216 335 L 217 338 L 221 340 L 224 340 L 229 330 L 230 323 L 236 314 L 236 312 L 242 301 L 242 298 L 248 293 L 249 294 L 249 297 L 245 302 L 246 308 L 245 302 L 250 296 L 250 293 L 247 289 L 256 281 L 256 279 L 252 277 L 248 279 L 245 285 L 244 293 L 241 298 L 239 306 L 236 311 L 235 315 L 232 318 L 218 316 L 216 314 L 224 307 L 223 304 L 211 304 L 206 302 L 201 297 L 187 297 L 185 295 L 191 290 L 191 288 L 189 286 L 175 283 L 170 280 L 168 280 L 166 278 L 164 278 L 156 274 L 148 267 L 146 267 L 130 254 L 122 246 L 114 235 L 108 229 L 105 224 L 100 220 L 96 212 L 96 210 L 92 206 L 85 202 L 67 186 L 63 179 L 59 175 Z M 215 309 L 217 306 L 220 307 L 220 308 L 217 310 Z M 177 288 L 179 286 L 183 286 L 184 287 L 187 287 L 189 289 L 187 291 L 184 291 L 181 293 Z M 249 282 L 249 281 L 252 279 L 254 281 L 252 283 Z M 153 277 L 156 276 L 159 278 L 162 278 L 165 280 L 167 283 L 166 284 L 163 282 L 160 282 L 156 280 Z M 222 169 L 221 176 L 223 177 L 226 175 L 228 177 L 228 181 L 228 175 L 225 174 L 223 176 L 221 174 Z M 268 164 L 271 169 L 278 173 L 285 173 L 293 167 L 299 167 L 307 170 L 317 171 L 318 172 L 327 172 L 312 171 L 311 170 L 307 170 L 299 167 L 293 167 L 288 171 L 284 173 L 281 173 L 280 172 L 274 171 Z M 361 150 L 359 150 L 356 153 L 355 156 L 347 164 L 343 165 L 337 169 L 329 171 L 337 169 L 347 164 L 353 159 L 355 155 L 359 151 L 361 151 L 365 155 L 367 161 L 367 191 L 366 192 L 366 198 L 363 206 L 363 209 L 357 222 L 351 228 L 348 229 L 342 234 L 332 238 L 325 238 L 311 233 L 304 226 L 303 226 L 296 218 L 286 204 L 282 195 L 286 204 L 299 222 L 311 233 L 319 237 L 327 238 L 328 239 L 330 238 L 334 238 L 344 234 L 354 226 L 358 221 L 360 215 L 363 210 L 363 207 L 366 199 L 367 184 L 368 183 L 367 161 L 366 160 L 366 156 L 365 154 Z M 131 145 L 128 145 L 125 143 L 115 143 L 107 146 L 98 153 L 94 160 L 91 163 L 91 165 L 89 167 L 89 169 L 85 177 L 85 181 L 86 182 L 87 189 L 93 195 L 98 197 L 108 197 L 109 196 L 115 195 L 117 193 L 121 192 L 123 190 L 134 184 L 142 176 L 145 168 L 144 161 L 140 154 Z M 132 147 L 140 155 L 144 162 L 144 171 L 142 175 L 129 187 L 111 196 L 100 197 L 99 196 L 96 196 L 93 194 L 88 189 L 86 185 L 86 175 L 91 164 L 98 154 L 106 147 L 114 144 L 122 143 Z M 230 137 L 229 142 L 224 146 L 219 153 L 219 156 L 225 155 L 227 157 L 227 159 L 224 165 L 227 159 L 227 155 L 226 154 L 221 154 L 220 152 L 229 142 Z M 164 133 L 164 143 L 163 144 L 163 150 L 160 157 L 160 163 L 166 170 L 171 178 L 180 188 L 183 193 L 189 199 L 191 199 L 194 196 L 198 200 L 202 209 L 206 215 L 211 220 L 214 219 L 214 214 L 217 212 L 220 215 L 226 229 L 229 232 L 233 229 L 238 234 L 239 237 L 244 243 L 245 243 L 248 239 L 250 239 L 255 246 L 249 238 L 247 238 L 247 240 L 244 243 L 241 240 L 238 234 L 233 229 L 230 231 L 228 231 L 226 229 L 223 223 L 223 221 L 218 212 L 215 212 L 214 214 L 214 218 L 211 220 L 206 215 L 198 200 L 194 195 L 193 195 L 191 198 L 188 198 L 185 195 L 160 163 L 160 158 L 162 154 L 163 144 L 164 143 Z M 283 160 L 280 159 L 274 153 L 269 145 L 269 139 L 273 134 L 268 129 L 271 133 L 271 136 L 269 139 L 269 141 L 267 143 L 260 143 L 254 138 L 247 138 L 239 142 L 235 146 L 232 151 L 232 158 L 233 160 L 237 164 L 243 164 L 250 160 L 256 154 L 258 155 L 258 160 L 258 150 L 259 147 L 263 143 L 265 143 L 267 145 L 267 162 L 267 147 L 268 146 L 272 149 L 274 153 L 280 159 Z M 254 140 L 258 145 L 257 146 L 255 146 L 254 144 L 248 145 L 243 150 L 242 153 L 243 157 L 246 161 L 241 163 L 237 163 L 233 159 L 233 152 L 234 149 L 240 143 L 248 139 L 252 139 Z M 373 134 L 373 141 L 379 147 L 382 148 L 384 150 L 390 152 L 393 152 L 394 153 L 408 153 L 409 152 L 412 152 L 416 150 L 420 146 L 420 143 L 421 142 L 421 139 L 418 132 L 414 129 L 404 125 L 386 125 L 377 129 Z M 373 135 L 378 129 L 382 127 L 388 126 L 389 125 L 400 125 L 401 126 L 405 126 L 411 129 L 413 129 L 420 136 L 421 142 L 419 146 L 416 149 L 412 151 L 409 151 L 408 152 L 394 152 L 393 151 L 386 150 L 379 146 L 374 141 L 373 139 Z M 155 119 L 160 123 L 163 128 L 163 131 L 163 128 L 161 124 L 155 119 L 149 121 L 141 130 L 137 127 L 136 122 L 137 127 L 139 130 L 142 130 L 144 128 L 145 129 L 142 138 L 142 146 L 146 151 L 149 152 L 153 150 L 156 147 L 159 140 L 159 129 L 153 121 L 153 120 Z M 153 124 L 157 127 L 159 132 L 158 142 L 156 146 L 150 151 L 148 151 L 143 146 L 142 144 L 142 139 L 147 128 L 150 125 Z M 294 118 L 294 121 L 298 121 L 301 119 L 304 119 L 305 118 L 314 118 L 315 119 L 320 119 L 324 121 L 327 121 L 328 120 L 328 118 L 325 115 L 318 112 L 307 112 L 306 113 L 300 114 Z M 92 112 L 89 112 L 85 118 L 83 117 L 83 114 L 83 121 L 84 123 L 85 123 L 85 119 L 89 114 L 93 114 L 95 115 L 103 123 L 106 128 L 107 136 L 103 141 L 101 142 L 97 142 L 91 140 L 89 143 L 78 132 L 72 130 L 67 131 L 64 134 L 64 135 L 64 134 L 68 131 L 70 133 L 65 141 L 63 140 L 63 137 L 63 140 L 66 149 L 67 149 L 67 144 L 66 143 L 67 139 L 71 135 L 74 135 L 85 145 L 89 153 L 88 156 L 82 161 L 77 160 L 71 156 L 72 160 L 70 162 L 61 162 L 58 165 L 58 166 L 61 162 L 66 162 L 68 164 L 64 168 L 63 172 L 65 178 L 73 184 L 77 184 L 79 183 L 82 179 L 82 173 L 80 169 L 77 167 L 73 162 L 76 160 L 77 161 L 84 161 L 89 155 L 89 150 L 87 146 L 76 135 L 72 134 L 71 132 L 72 131 L 77 132 L 81 135 L 89 144 L 93 141 L 95 142 L 103 142 L 107 138 L 107 130 L 105 124 L 96 114 Z M 68 165 L 74 165 L 80 170 L 82 176 L 81 179 L 78 182 L 76 183 L 72 182 L 65 176 L 64 174 L 64 169 Z M 281 106 L 276 105 L 271 109 L 267 117 L 267 127 L 267 117 L 270 111 L 275 106 L 280 106 L 283 110 Z M 89 107 L 92 107 L 97 109 L 104 116 L 112 133 L 118 132 L 123 136 L 129 136 L 132 134 L 133 132 L 133 122 L 131 117 L 122 105 L 122 104 L 124 103 L 120 103 L 116 107 L 116 109 L 117 110 L 122 108 L 129 115 L 133 124 L 133 130 L 128 136 L 123 135 L 117 128 L 116 128 L 113 132 L 110 129 L 108 123 L 103 114 L 97 109 L 92 107 Z M 453 93 L 464 112 L 463 120 L 467 124 L 471 125 L 475 129 L 474 132 L 470 132 L 467 134 L 467 137 L 475 145 L 481 154 L 479 156 L 475 154 L 472 157 L 472 160 L 474 162 L 478 171 L 479 177 L 478 178 L 475 178 L 472 176 L 470 178 L 470 184 L 472 186 L 472 190 L 471 191 L 472 194 L 469 195 L 466 192 L 466 183 L 468 177 L 467 176 L 467 171 L 465 167 L 462 166 L 462 167 L 460 168 L 453 164 L 451 164 L 451 167 L 457 173 L 457 179 L 455 181 L 457 184 L 458 191 L 455 193 L 452 189 L 449 188 L 447 190 L 449 194 L 449 199 L 448 200 L 446 200 L 442 197 L 439 197 L 438 198 L 444 205 L 446 209 L 446 212 L 447 213 L 446 220 L 444 222 L 442 220 L 443 217 L 440 211 L 436 215 L 436 218 L 438 221 L 440 221 L 442 223 L 441 227 L 436 231 L 434 229 L 434 225 L 433 223 L 431 222 L 430 223 L 430 228 L 426 236 L 424 238 L 422 236 L 422 234 L 421 234 L 419 239 L 416 242 L 412 239 L 410 240 L 406 247 L 406 254 L 407 255 L 410 254 L 415 249 L 417 249 L 420 251 L 428 250 L 429 249 L 435 249 L 441 255 L 452 261 L 454 263 L 453 267 L 455 271 L 467 284 L 466 286 L 462 286 L 461 287 L 461 290 L 470 300 L 476 311 L 469 298 L 461 289 L 463 287 L 467 287 L 468 288 L 470 287 L 454 269 L 457 265 L 454 262 L 441 255 L 439 253 L 440 251 L 439 249 L 436 248 L 428 248 L 424 250 L 421 250 L 419 248 L 423 245 L 431 236 L 435 238 L 440 237 L 447 231 L 449 231 L 452 227 L 458 222 L 463 212 L 464 200 L 466 198 L 469 200 L 472 200 L 472 184 L 471 183 L 471 180 L 473 178 L 475 178 L 478 180 L 480 179 L 480 176 L 478 170 L 473 161 L 473 157 L 475 155 L 481 157 L 482 155 L 476 145 L 468 137 L 468 135 L 470 133 L 477 133 L 478 131 L 473 126 L 466 123 L 463 120 L 463 118 L 466 114 L 459 104 Z M 449 220 L 451 222 L 451 226 L 448 228 L 446 226 L 446 224 Z M 455 212 L 458 216 L 458 219 L 456 220 L 453 216 L 453 214 Z M 452 206 L 454 208 L 451 211 L 449 209 Z M 252 67 L 242 67 L 238 69 L 233 76 L 232 79 L 232 87 L 235 93 L 240 97 L 244 96 L 247 93 L 259 75 L 259 73 Z M 245 89 L 246 91 L 245 93 L 242 95 L 240 92 L 242 90 Z M 250 81 L 251 84 L 249 88 L 246 90 L 245 87 Z M 252 69 L 253 71 L 256 73 L 256 75 L 254 78 L 252 77 L 253 75 L 253 73 L 251 72 Z M 288 70 L 284 66 L 279 67 L 270 76 L 268 80 L 270 84 L 274 84 L 288 75 Z M 285 67 L 288 70 L 288 74 L 285 77 L 282 78 L 274 84 L 271 84 L 269 82 L 269 78 L 271 75 L 279 68 L 281 67 Z M 462 62 L 461 67 L 457 73 L 453 77 L 446 81 L 446 84 L 452 91 L 447 84 L 447 82 L 457 74 L 461 67 Z M 356 61 L 356 65 L 358 67 L 362 68 L 373 74 L 376 74 L 379 70 L 378 65 L 373 60 L 369 59 L 366 57 L 360 57 Z M 356 62 L 361 57 L 366 57 L 374 61 L 379 67 L 379 70 L 376 73 L 370 72 L 368 70 L 359 67 L 356 64 Z M 429 41 L 425 43 L 418 50 L 417 52 L 417 57 L 436 73 L 441 73 L 447 67 L 449 63 L 448 54 L 446 50 L 440 44 L 437 42 Z M 428 43 L 435 43 L 441 47 L 446 52 L 448 56 L 448 61 L 446 66 L 439 72 L 437 72 L 418 56 L 418 52 L 424 45 Z M 344 36 L 339 41 L 336 41 L 326 35 L 321 34 L 320 35 L 321 43 L 317 46 L 301 46 L 300 49 L 297 52 L 295 52 L 282 58 L 272 65 L 271 65 L 268 62 L 267 59 L 260 53 L 252 50 L 246 50 L 252 50 L 258 52 L 261 54 L 271 65 L 274 65 L 277 62 L 283 59 L 288 55 L 290 55 L 295 52 L 299 51 L 303 46 L 317 46 L 321 44 L 321 39 L 320 37 L 322 35 L 325 35 L 336 41 L 339 41 L 342 39 Z M 346 35 L 351 32 L 354 34 L 351 40 L 352 43 L 364 42 L 365 41 L 372 41 L 373 42 L 384 43 L 397 48 L 401 48 L 403 45 L 403 43 L 403 45 L 400 48 L 398 48 L 385 43 L 374 42 L 373 41 L 362 41 L 361 42 L 353 43 L 352 42 L 352 38 L 354 35 L 354 33 L 351 32 Z" fill="#D8D8D8" fill-rule="evenodd"/><path d="M 451 497 L 449 501 L 449 505 L 447 509 L 447 512 L 448 512 L 450 508 Z M 255 476 L 255 477 L 267 488 L 277 501 L 279 505 L 292 518 L 293 521 L 295 523 L 295 525 L 298 528 L 305 528 L 306 527 L 304 526 L 296 517 L 294 517 L 290 513 L 284 499 L 265 482 Z M 249 338 L 244 342 L 245 347 L 250 340 Z M 178 288 L 181 292 L 184 290 L 187 290 L 188 289 L 183 287 L 179 287 Z M 154 277 L 156 279 L 160 281 L 163 281 L 166 283 L 166 282 L 162 279 L 159 279 L 156 277 Z M 369 257 L 363 256 L 359 258 L 353 258 L 352 259 L 343 260 L 342 261 L 327 261 L 326 260 L 321 260 L 320 259 L 310 257 L 309 260 L 318 268 L 321 269 L 324 272 L 332 276 L 339 281 L 345 281 L 352 277 L 354 277 L 357 274 L 360 273 L 363 269 L 358 273 L 356 273 L 352 276 L 341 277 L 340 276 L 341 273 L 337 270 L 334 272 L 331 270 L 333 267 L 332 266 L 336 264 L 337 265 L 337 268 L 338 267 L 337 266 L 339 264 L 342 265 L 350 262 L 353 262 L 356 260 L 366 259 Z M 382 251 L 380 251 L 373 255 L 374 256 L 376 255 L 378 257 L 382 253 Z M 276 247 L 281 253 L 283 253 L 280 249 Z M 449 221 L 447 224 L 448 227 L 450 226 L 450 222 Z M 68 166 L 65 169 L 65 174 L 66 176 L 72 181 L 75 182 L 78 181 L 80 179 L 81 176 L 79 170 L 74 166 Z M 260 147 L 259 150 L 259 162 L 262 169 L 268 176 L 275 180 L 277 180 L 280 183 L 281 191 L 287 204 L 302 224 L 311 232 L 325 237 L 332 237 L 342 233 L 348 228 L 351 227 L 356 222 L 362 209 L 362 206 L 365 198 L 365 192 L 366 191 L 366 161 L 364 155 L 361 152 L 359 152 L 350 163 L 337 170 L 331 172 L 328 172 L 327 173 L 318 173 L 317 172 L 307 171 L 299 168 L 293 168 L 285 174 L 278 174 L 271 170 L 267 165 L 266 162 L 266 145 L 263 144 Z M 261 147 L 263 145 L 266 147 L 265 159 L 266 160 L 266 164 L 272 172 L 278 175 L 284 175 L 290 172 L 295 168 L 309 171 L 310 172 L 314 172 L 315 173 L 329 173 L 330 172 L 333 172 L 339 169 L 341 169 L 350 164 L 354 160 L 356 156 L 359 153 L 361 153 L 365 159 L 365 163 L 366 164 L 366 187 L 365 188 L 365 193 L 364 194 L 364 199 L 363 200 L 362 207 L 360 213 L 355 222 L 353 224 L 351 222 L 357 209 L 357 206 L 358 205 L 357 198 L 353 193 L 348 190 L 342 188 L 336 188 L 327 191 L 325 193 L 322 194 L 318 197 L 309 207 L 307 212 L 307 216 L 309 221 L 317 231 L 315 233 L 312 232 L 302 223 L 287 203 L 282 193 L 280 182 L 278 180 L 274 179 L 269 176 L 261 167 L 260 161 L 259 160 L 259 153 Z M 132 148 L 122 144 L 114 145 L 106 148 L 99 154 L 92 164 L 87 175 L 87 185 L 89 189 L 96 195 L 99 195 L 100 196 L 111 195 L 129 186 L 141 175 L 143 171 L 143 162 L 139 155 Z M 254 141 L 252 140 L 245 141 L 240 144 L 235 149 L 234 152 L 234 159 L 237 162 L 245 161 L 241 154 L 242 150 L 248 144 L 254 143 L 255 145 L 257 145 Z M 374 135 L 374 139 L 379 145 L 386 149 L 393 150 L 394 151 L 408 151 L 409 150 L 412 150 L 416 148 L 420 142 L 419 136 L 413 130 L 411 130 L 405 127 L 401 127 L 400 126 L 389 126 L 388 127 L 382 128 L 378 130 Z M 153 125 L 150 126 L 148 128 L 143 139 L 143 144 L 148 150 L 150 150 L 153 148 L 157 142 L 158 132 L 156 127 Z M 275 107 L 271 111 L 268 117 L 268 128 L 274 134 L 270 139 L 270 145 L 275 153 L 280 158 L 284 160 L 298 160 L 307 157 L 314 153 L 319 146 L 320 143 L 320 138 L 318 134 L 310 129 L 302 128 L 301 127 L 293 127 L 292 128 L 282 129 L 281 126 L 283 123 L 283 119 L 284 118 L 283 111 L 280 107 Z M 270 140 L 277 132 L 279 132 L 282 130 L 289 129 L 290 128 L 304 128 L 305 129 L 311 130 L 314 132 L 319 137 L 320 142 L 318 147 L 310 155 L 296 160 L 286 160 L 281 158 L 274 151 L 270 144 Z M 279 107 L 283 112 L 283 122 L 275 131 L 271 131 L 268 127 L 268 118 L 271 112 L 275 108 Z M 359 101 L 357 102 L 353 107 L 352 110 L 352 121 L 354 125 L 358 129 L 364 129 L 367 127 L 370 121 L 370 110 L 368 105 L 365 102 L 363 101 Z M 358 102 L 364 102 L 368 106 L 370 111 L 370 120 L 369 123 L 365 128 L 362 129 L 357 128 L 354 125 L 352 120 L 352 111 L 354 106 Z M 250 82 L 246 87 L 246 89 L 241 92 L 242 94 L 243 94 L 245 90 L 248 88 Z M 287 70 L 285 68 L 281 68 L 276 71 L 270 78 L 270 82 L 271 83 L 274 83 L 282 77 L 285 76 L 287 74 Z M 287 72 L 285 75 L 274 82 L 271 81 L 272 76 L 276 72 L 282 69 L 284 69 Z M 357 62 L 357 64 L 359 66 L 368 69 L 370 71 L 376 72 L 378 70 L 378 67 L 376 64 L 371 60 L 369 60 L 366 58 L 361 58 Z M 358 62 L 361 59 L 366 59 L 369 61 L 371 61 L 377 66 L 377 70 L 376 71 L 372 71 L 365 67 L 361 66 Z M 428 44 L 424 46 L 419 52 L 419 56 L 437 71 L 439 71 L 445 66 L 447 61 L 447 56 L 445 52 L 435 44 Z M 87 107 L 83 111 L 82 114 L 82 123 L 85 129 L 86 135 L 85 136 L 77 130 L 74 130 L 73 129 L 69 129 L 63 133 L 62 141 L 63 142 L 64 148 L 69 157 L 69 159 L 68 160 L 62 160 L 60 161 L 57 164 L 56 171 L 60 180 L 63 183 L 65 187 L 75 197 L 84 204 L 91 208 L 95 212 L 98 218 L 98 220 L 102 227 L 102 229 L 104 231 L 110 244 L 123 261 L 130 268 L 145 278 L 150 283 L 148 286 L 144 286 L 143 287 L 143 290 L 148 294 L 156 298 L 169 302 L 171 304 L 171 306 L 167 310 L 169 313 L 181 318 L 184 318 L 189 320 L 193 320 L 196 323 L 193 327 L 194 330 L 202 331 L 203 332 L 209 332 L 213 335 L 212 338 L 213 340 L 220 341 L 221 342 L 225 342 L 227 340 L 227 338 L 232 328 L 233 323 L 237 316 L 237 314 L 240 308 L 242 306 L 244 308 L 244 312 L 241 319 L 241 329 L 237 338 L 238 349 L 236 353 L 236 358 L 235 359 L 235 362 L 228 372 L 228 376 L 231 377 L 233 380 L 223 392 L 222 395 L 222 398 L 223 399 L 226 399 L 227 398 L 229 400 L 229 403 L 224 410 L 218 423 L 218 426 L 219 427 L 222 427 L 224 425 L 226 427 L 220 445 L 221 450 L 222 451 L 225 451 L 228 448 L 230 448 L 236 454 L 238 458 L 237 459 L 227 459 L 222 461 L 218 461 L 217 462 L 210 463 L 204 466 L 202 466 L 199 469 L 199 472 L 196 475 L 191 476 L 185 480 L 184 483 L 186 485 L 187 488 L 184 491 L 179 493 L 171 499 L 171 504 L 174 507 L 175 511 L 174 512 L 173 523 L 172 524 L 171 533 L 170 534 L 170 567 L 184 573 L 189 579 L 186 580 L 180 578 L 165 578 L 156 582 L 143 586 L 137 589 L 132 594 L 131 596 L 131 603 L 139 608 L 143 613 L 147 616 L 175 616 L 176 617 L 184 617 L 185 618 L 194 618 L 195 619 L 201 619 L 205 621 L 209 621 L 214 623 L 220 623 L 221 624 L 238 624 L 239 623 L 247 623 L 252 621 L 260 612 L 261 609 L 261 601 L 263 598 L 263 596 L 270 585 L 270 583 L 274 576 L 275 570 L 281 564 L 284 563 L 286 561 L 289 560 L 300 560 L 303 558 L 302 554 L 298 550 L 298 548 L 300 546 L 306 547 L 311 550 L 313 550 L 322 555 L 328 557 L 332 557 L 335 559 L 339 559 L 340 560 L 353 562 L 354 563 L 386 564 L 387 563 L 393 563 L 394 562 L 402 562 L 404 564 L 404 567 L 401 570 L 397 571 L 395 573 L 395 575 L 399 578 L 415 595 L 421 606 L 425 611 L 429 609 L 432 609 L 434 611 L 440 623 L 446 626 L 453 626 L 470 635 L 484 638 L 485 639 L 497 639 L 498 638 L 503 638 L 504 637 L 506 637 L 508 639 L 506 642 L 494 648 L 488 650 L 485 650 L 482 654 L 482 665 L 486 673 L 491 678 L 494 679 L 502 679 L 504 677 L 503 666 L 506 664 L 510 668 L 513 676 L 516 679 L 526 679 L 531 676 L 531 674 L 527 669 L 527 663 L 531 658 L 533 658 L 536 661 L 536 670 L 537 671 L 541 670 L 552 658 L 555 652 L 557 644 L 559 641 L 559 638 L 563 630 L 564 622 L 565 621 L 565 616 L 566 615 L 566 608 L 567 607 L 567 594 L 564 586 L 558 579 L 541 571 L 533 562 L 524 556 L 524 554 L 527 552 L 528 550 L 518 540 L 516 536 L 508 528 L 508 524 L 506 520 L 506 517 L 503 513 L 501 508 L 498 505 L 496 506 L 495 509 L 488 516 L 485 516 L 483 514 L 483 510 L 486 504 L 492 496 L 492 494 L 494 491 L 495 486 L 499 477 L 501 457 L 503 455 L 507 455 L 507 444 L 506 443 L 506 439 L 505 438 L 505 434 L 503 428 L 503 426 L 506 423 L 506 419 L 495 398 L 497 396 L 500 395 L 500 391 L 494 381 L 491 378 L 489 378 L 483 389 L 472 400 L 466 403 L 461 404 L 457 406 L 453 410 L 448 412 L 445 412 L 444 413 L 435 413 L 423 418 L 412 418 L 397 423 L 394 425 L 391 425 L 390 426 L 382 426 L 371 431 L 346 431 L 345 432 L 337 432 L 334 434 L 328 435 L 327 436 L 310 436 L 304 434 L 295 429 L 289 423 L 281 417 L 274 405 L 272 395 L 271 394 L 270 370 L 278 357 L 282 345 L 286 341 L 296 337 L 318 335 L 330 328 L 335 327 L 348 321 L 354 320 L 355 319 L 359 319 L 364 317 L 373 316 L 378 312 L 378 310 L 381 307 L 383 307 L 385 309 L 388 315 L 398 316 L 401 320 L 399 322 L 386 323 L 380 326 L 376 326 L 372 328 L 368 328 L 359 331 L 355 331 L 350 333 L 342 334 L 334 338 L 332 338 L 323 343 L 319 343 L 318 344 L 301 344 L 293 348 L 289 353 L 289 356 L 290 357 L 297 358 L 299 360 L 295 364 L 284 369 L 280 373 L 278 377 L 278 384 L 281 386 L 287 386 L 289 385 L 292 387 L 291 390 L 287 393 L 284 397 L 284 400 L 283 401 L 284 406 L 292 410 L 294 410 L 300 406 L 303 406 L 305 408 L 304 409 L 304 414 L 303 415 L 303 422 L 305 424 L 310 426 L 320 426 L 321 425 L 325 425 L 337 421 L 342 421 L 347 419 L 351 419 L 354 417 L 358 417 L 362 415 L 366 415 L 367 416 L 367 419 L 370 420 L 382 410 L 384 410 L 387 414 L 391 414 L 402 409 L 413 400 L 416 402 L 417 407 L 419 407 L 425 404 L 429 400 L 432 400 L 438 394 L 442 392 L 445 389 L 447 391 L 446 394 L 446 400 L 449 400 L 453 398 L 457 394 L 467 378 L 471 383 L 473 383 L 475 382 L 480 376 L 482 370 L 483 362 L 484 361 L 484 348 L 479 335 L 479 332 L 481 330 L 481 320 L 474 304 L 469 296 L 465 292 L 466 289 L 472 291 L 473 289 L 468 282 L 458 272 L 457 270 L 461 267 L 452 259 L 447 257 L 444 254 L 445 251 L 444 249 L 439 248 L 435 245 L 438 241 L 449 234 L 459 224 L 465 210 L 465 203 L 467 201 L 470 203 L 473 202 L 473 198 L 474 197 L 473 182 L 475 180 L 480 183 L 482 181 L 481 174 L 479 171 L 475 159 L 477 157 L 480 159 L 482 159 L 483 158 L 483 154 L 481 149 L 478 145 L 470 137 L 472 135 L 477 135 L 479 134 L 480 132 L 474 125 L 466 121 L 466 119 L 468 117 L 468 114 L 460 103 L 455 93 L 449 84 L 449 83 L 459 74 L 464 62 L 464 51 L 462 45 L 458 39 L 450 31 L 447 30 L 445 28 L 436 25 L 432 25 L 431 24 L 423 25 L 417 27 L 410 31 L 406 35 L 402 43 L 399 46 L 390 43 L 383 42 L 382 41 L 378 41 L 377 40 L 358 40 L 356 41 L 354 39 L 355 32 L 353 30 L 346 33 L 339 39 L 335 39 L 333 37 L 324 33 L 319 33 L 318 34 L 318 38 L 319 39 L 319 43 L 318 44 L 301 44 L 299 46 L 299 48 L 296 51 L 284 55 L 280 58 L 278 58 L 274 62 L 271 62 L 268 58 L 261 52 L 253 49 L 244 49 L 243 50 L 237 51 L 228 56 L 220 65 L 217 73 L 217 77 L 216 78 L 216 86 L 217 87 L 217 90 L 220 96 L 225 102 L 232 106 L 234 106 L 237 109 L 236 114 L 228 130 L 228 136 L 229 139 L 219 150 L 217 155 L 218 158 L 223 157 L 225 159 L 220 171 L 220 177 L 221 178 L 224 178 L 225 177 L 227 179 L 225 185 L 225 188 L 224 189 L 224 197 L 226 199 L 229 199 L 230 198 L 232 199 L 232 209 L 235 217 L 238 220 L 240 220 L 243 218 L 245 220 L 247 225 L 249 227 L 252 228 L 259 235 L 267 249 L 267 253 L 265 255 L 263 255 L 259 251 L 252 239 L 248 235 L 246 236 L 246 238 L 244 240 L 233 227 L 228 228 L 226 226 L 224 220 L 219 211 L 215 210 L 213 213 L 213 216 L 211 218 L 204 209 L 197 196 L 194 193 L 192 193 L 188 196 L 167 169 L 162 164 L 161 160 L 162 159 L 162 156 L 164 152 L 164 147 L 165 146 L 165 132 L 164 131 L 163 125 L 158 119 L 156 118 L 150 119 L 148 120 L 141 128 L 140 128 L 138 126 L 135 115 L 130 106 L 125 102 L 119 102 L 115 106 L 114 109 L 114 123 L 113 125 L 111 126 L 106 116 L 101 110 L 93 106 L 89 106 Z M 147 601 L 150 601 L 156 609 L 156 613 L 155 614 L 151 614 L 143 608 L 144 604 Z M 87 107 L 92 106 L 100 110 L 106 117 L 111 129 L 113 131 L 115 128 L 117 127 L 119 130 L 125 135 L 128 135 L 131 132 L 132 130 L 132 124 L 128 115 L 122 109 L 117 111 L 115 109 L 115 107 L 120 102 L 124 102 L 130 107 L 134 113 L 138 127 L 140 129 L 141 129 L 149 120 L 154 118 L 157 119 L 162 124 L 165 133 L 164 150 L 161 158 L 161 163 L 188 197 L 191 197 L 193 194 L 197 197 L 205 212 L 211 219 L 213 218 L 213 214 L 215 211 L 218 211 L 220 213 L 228 230 L 230 230 L 233 228 L 239 234 L 240 237 L 244 242 L 246 240 L 246 238 L 249 237 L 253 241 L 262 256 L 265 256 L 267 254 L 267 247 L 261 237 L 252 227 L 249 226 L 247 224 L 245 218 L 243 216 L 238 219 L 234 215 L 233 212 L 233 198 L 231 196 L 229 198 L 226 198 L 224 195 L 225 185 L 227 182 L 227 177 L 225 176 L 222 178 L 220 176 L 220 172 L 226 159 L 226 157 L 225 156 L 219 157 L 218 156 L 218 153 L 223 146 L 226 144 L 229 140 L 228 131 L 235 117 L 237 111 L 237 107 L 225 101 L 221 97 L 217 89 L 216 79 L 217 78 L 218 70 L 222 63 L 229 56 L 238 51 L 241 51 L 246 49 L 252 49 L 260 52 L 268 59 L 269 62 L 272 64 L 282 57 L 290 53 L 297 51 L 301 45 L 317 45 L 320 43 L 319 35 L 321 33 L 326 34 L 336 40 L 339 40 L 347 33 L 353 31 L 355 33 L 355 35 L 353 38 L 353 42 L 361 41 L 362 40 L 373 40 L 374 41 L 385 42 L 400 47 L 402 45 L 403 40 L 406 36 L 414 29 L 425 25 L 434 25 L 435 26 L 441 27 L 449 31 L 459 41 L 462 46 L 464 52 L 464 60 L 463 61 L 463 64 L 458 74 L 454 78 L 450 80 L 448 82 L 448 84 L 452 89 L 457 99 L 467 114 L 464 118 L 464 120 L 466 122 L 473 125 L 479 131 L 477 134 L 470 134 L 469 137 L 477 145 L 483 155 L 481 158 L 479 158 L 477 156 L 474 157 L 474 161 L 479 170 L 481 176 L 481 179 L 479 181 L 475 179 L 472 180 L 472 183 L 473 184 L 473 200 L 472 201 L 469 201 L 467 199 L 465 200 L 464 212 L 459 222 L 454 226 L 449 232 L 447 232 L 440 238 L 435 239 L 431 237 L 426 243 L 420 248 L 421 249 L 424 249 L 428 247 L 436 247 L 439 248 L 441 250 L 440 252 L 441 254 L 454 261 L 458 265 L 455 269 L 471 287 L 469 289 L 467 288 L 463 288 L 462 289 L 470 298 L 480 318 L 480 328 L 478 331 L 484 349 L 483 362 L 482 363 L 482 367 L 481 368 L 481 372 L 478 377 L 473 381 L 470 377 L 469 369 L 467 366 L 465 371 L 465 376 L 460 388 L 458 391 L 449 399 L 447 397 L 448 390 L 449 389 L 449 385 L 448 384 L 442 390 L 437 393 L 434 397 L 428 399 L 420 405 L 418 403 L 418 399 L 417 398 L 413 398 L 401 408 L 393 412 L 389 412 L 387 410 L 387 406 L 385 405 L 371 417 L 369 416 L 369 413 L 366 413 L 362 415 L 352 416 L 345 419 L 342 419 L 338 421 L 335 421 L 326 424 L 322 424 L 321 425 L 309 425 L 307 424 L 304 420 L 305 412 L 306 411 L 306 406 L 304 404 L 302 404 L 294 408 L 289 408 L 284 404 L 284 400 L 285 398 L 297 386 L 296 384 L 281 385 L 279 383 L 279 376 L 280 374 L 285 369 L 298 363 L 301 360 L 300 358 L 292 357 L 290 355 L 291 351 L 295 347 L 299 345 L 302 345 L 303 344 L 320 344 L 321 343 L 324 343 L 340 335 L 343 335 L 352 332 L 356 332 L 365 329 L 369 329 L 374 327 L 378 327 L 386 324 L 398 323 L 402 321 L 402 318 L 396 315 L 390 315 L 387 312 L 384 306 L 380 306 L 372 315 L 369 315 L 360 318 L 354 318 L 350 320 L 346 320 L 331 326 L 326 330 L 318 334 L 298 336 L 297 337 L 294 337 L 288 339 L 281 345 L 278 354 L 276 357 L 276 359 L 269 370 L 269 377 L 270 378 L 270 393 L 271 394 L 271 398 L 273 401 L 273 404 L 279 415 L 292 427 L 299 432 L 311 437 L 328 437 L 337 434 L 349 434 L 350 433 L 360 433 L 361 432 L 368 433 L 381 428 L 392 428 L 401 423 L 410 420 L 424 419 L 431 415 L 439 415 L 440 414 L 449 413 L 459 406 L 468 403 L 473 400 L 484 389 L 487 384 L 487 382 L 491 379 L 497 386 L 499 390 L 499 392 L 497 394 L 493 394 L 492 395 L 504 416 L 504 420 L 501 423 L 501 425 L 503 428 L 503 431 L 505 436 L 507 450 L 505 452 L 502 451 L 500 454 L 500 469 L 499 470 L 498 478 L 496 481 L 495 487 L 490 497 L 482 509 L 482 516 L 484 518 L 490 517 L 496 509 L 499 508 L 502 511 L 506 520 L 506 528 L 518 540 L 521 545 L 525 549 L 525 551 L 523 553 L 523 556 L 532 562 L 540 571 L 557 579 L 562 584 L 567 596 L 567 606 L 566 607 L 566 614 L 565 615 L 563 628 L 559 636 L 559 639 L 557 642 L 556 648 L 552 656 L 544 666 L 540 669 L 537 665 L 537 657 L 536 656 L 532 656 L 529 658 L 526 662 L 527 676 L 525 678 L 522 679 L 517 678 L 513 674 L 510 666 L 507 663 L 504 663 L 502 665 L 502 673 L 503 676 L 501 678 L 494 678 L 492 677 L 485 670 L 482 663 L 482 655 L 486 650 L 494 648 L 507 642 L 511 639 L 511 637 L 510 636 L 506 636 L 505 637 L 499 637 L 498 638 L 485 638 L 480 636 L 472 635 L 452 625 L 441 623 L 437 618 L 437 616 L 435 614 L 434 610 L 432 608 L 425 609 L 422 606 L 416 595 L 396 574 L 404 569 L 405 564 L 403 561 L 395 561 L 394 562 L 388 562 L 387 563 L 351 562 L 347 560 L 343 560 L 339 558 L 336 558 L 332 556 L 328 556 L 322 554 L 302 544 L 298 544 L 296 546 L 297 547 L 297 551 L 302 556 L 300 559 L 285 558 L 275 566 L 273 566 L 271 564 L 268 564 L 267 565 L 267 568 L 271 573 L 271 578 L 268 583 L 267 587 L 265 589 L 259 600 L 259 610 L 258 612 L 250 619 L 242 620 L 237 622 L 231 622 L 230 623 L 221 623 L 220 622 L 208 621 L 196 617 L 174 616 L 170 613 L 171 611 L 169 609 L 168 601 L 165 598 L 160 598 L 159 599 L 159 607 L 157 608 L 154 604 L 148 599 L 147 599 L 140 606 L 137 606 L 131 600 L 131 597 L 133 593 L 136 590 L 141 587 L 146 586 L 157 581 L 166 578 L 179 578 L 184 580 L 190 580 L 191 579 L 188 575 L 181 571 L 179 571 L 173 568 L 170 565 L 170 538 L 171 537 L 172 526 L 174 521 L 174 516 L 178 509 L 176 506 L 174 506 L 171 503 L 171 500 L 178 494 L 185 491 L 188 488 L 188 486 L 185 483 L 185 481 L 189 477 L 195 475 L 198 475 L 200 473 L 200 469 L 203 466 L 205 466 L 211 463 L 224 461 L 225 460 L 239 460 L 239 458 L 235 451 L 230 446 L 228 446 L 225 449 L 223 449 L 221 447 L 221 442 L 227 427 L 227 424 L 225 423 L 222 426 L 220 426 L 219 425 L 219 421 L 224 411 L 230 402 L 230 398 L 229 397 L 224 398 L 223 397 L 223 394 L 227 388 L 232 383 L 234 379 L 234 376 L 230 376 L 228 373 L 233 366 L 237 357 L 237 352 L 239 349 L 239 344 L 237 342 L 237 339 L 241 330 L 241 320 L 245 309 L 244 302 L 248 297 L 248 294 L 243 298 L 243 301 L 237 312 L 237 314 L 231 323 L 231 327 L 226 339 L 224 341 L 221 341 L 217 339 L 215 337 L 215 335 L 211 332 L 198 330 L 195 327 L 197 325 L 197 321 L 196 320 L 183 318 L 172 313 L 170 311 L 173 307 L 173 303 L 172 302 L 157 297 L 145 290 L 146 287 L 151 287 L 152 286 L 151 281 L 132 268 L 120 256 L 108 239 L 95 211 L 90 206 L 87 205 L 73 194 L 63 183 L 57 173 L 57 165 L 61 161 L 70 161 L 71 160 L 70 158 L 71 155 L 77 159 L 82 160 L 84 159 L 88 154 L 87 150 L 84 145 L 74 136 L 71 136 L 68 139 L 67 142 L 68 144 L 68 149 L 67 150 L 65 149 L 65 147 L 63 144 L 62 137 L 63 134 L 67 130 L 72 129 L 78 131 L 89 142 L 91 139 L 97 141 L 101 141 L 103 140 L 106 136 L 106 132 L 104 126 L 95 116 L 93 115 L 89 115 L 86 119 L 86 123 L 85 124 L 83 123 L 82 121 L 82 114 L 84 110 Z M 80 100 L 76 104 L 73 111 L 73 118 L 71 120 L 66 120 L 61 122 L 57 126 L 53 133 L 53 145 L 55 149 L 55 152 L 48 160 L 47 163 L 47 172 L 48 173 L 48 176 L 53 186 L 66 201 L 77 210 L 81 212 L 87 218 L 89 225 L 94 236 L 107 257 L 111 262 L 130 280 L 134 292 L 143 301 L 154 306 L 156 308 L 159 315 L 163 319 L 166 320 L 168 322 L 178 325 L 187 335 L 202 341 L 206 345 L 223 353 L 225 355 L 225 359 L 219 374 L 219 384 L 215 389 L 212 396 L 212 402 L 214 406 L 214 411 L 209 422 L 209 430 L 212 438 L 212 447 L 211 450 L 207 454 L 201 457 L 199 457 L 180 468 L 176 473 L 173 481 L 173 484 L 165 495 L 162 502 L 162 512 L 163 515 L 162 516 L 162 520 L 161 521 L 161 524 L 159 529 L 159 535 L 158 536 L 158 559 L 161 568 L 158 571 L 154 573 L 149 574 L 140 578 L 130 585 L 122 593 L 120 597 L 120 608 L 125 616 L 132 622 L 145 629 L 160 634 L 163 634 L 167 636 L 174 637 L 175 638 L 180 638 L 181 639 L 194 639 L 195 640 L 240 639 L 251 635 L 260 629 L 268 621 L 271 615 L 272 605 L 274 599 L 280 591 L 282 585 L 282 581 L 288 574 L 292 572 L 303 571 L 308 568 L 310 568 L 314 565 L 319 564 L 320 565 L 325 565 L 326 566 L 337 568 L 349 572 L 354 572 L 355 573 L 380 573 L 383 574 L 388 579 L 393 587 L 405 599 L 409 605 L 427 622 L 437 628 L 446 636 L 456 638 L 463 642 L 472 645 L 474 647 L 474 650 L 471 655 L 471 666 L 476 678 L 485 685 L 494 689 L 499 689 L 500 690 L 515 690 L 516 689 L 529 688 L 535 685 L 537 685 L 546 680 L 557 669 L 569 643 L 574 628 L 574 623 L 576 617 L 577 595 L 576 594 L 575 586 L 569 577 L 560 569 L 553 566 L 546 561 L 541 555 L 535 545 L 524 535 L 519 526 L 518 522 L 512 514 L 512 512 L 510 509 L 510 505 L 506 494 L 506 487 L 509 481 L 509 477 L 513 468 L 513 466 L 516 461 L 516 459 L 519 454 L 521 444 L 522 443 L 521 433 L 520 432 L 520 428 L 519 427 L 519 423 L 518 422 L 517 416 L 511 406 L 511 392 L 501 373 L 500 364 L 499 363 L 499 360 L 496 351 L 496 347 L 495 346 L 495 341 L 494 340 L 494 324 L 493 323 L 493 319 L 490 310 L 488 307 L 488 305 L 486 303 L 487 300 L 487 294 L 482 283 L 480 281 L 474 267 L 461 254 L 458 249 L 458 243 L 462 235 L 470 225 L 473 219 L 474 214 L 480 208 L 482 204 L 483 194 L 488 189 L 491 182 L 490 167 L 493 162 L 493 153 L 487 142 L 490 135 L 489 128 L 488 126 L 478 117 L 477 112 L 474 106 L 466 95 L 462 87 L 462 84 L 467 79 L 470 74 L 470 72 L 472 69 L 473 62 L 474 61 L 473 47 L 467 34 L 464 30 L 454 22 L 438 16 L 422 16 L 421 17 L 415 18 L 403 25 L 394 35 L 388 34 L 387 33 L 383 33 L 382 32 L 376 32 L 375 31 L 367 31 L 365 32 L 362 29 L 361 26 L 356 22 L 348 22 L 341 26 L 337 30 L 327 25 L 319 24 L 314 26 L 311 29 L 311 32 L 308 36 L 297 38 L 293 41 L 278 48 L 276 50 L 274 50 L 271 47 L 262 42 L 259 42 L 254 40 L 245 40 L 244 41 L 236 42 L 227 46 L 221 50 L 213 59 L 209 67 L 208 73 L 207 74 L 207 90 L 209 96 L 214 104 L 225 115 L 224 119 L 219 128 L 219 131 L 218 132 L 218 140 L 211 147 L 208 153 L 208 159 L 213 165 L 213 168 L 210 174 L 210 179 L 215 186 L 215 196 L 212 200 L 209 200 L 207 198 L 201 186 L 198 183 L 196 182 L 189 182 L 182 172 L 172 162 L 171 157 L 173 153 L 173 148 L 174 147 L 174 128 L 171 120 L 165 113 L 160 110 L 157 110 L 156 109 L 151 109 L 148 110 L 146 112 L 144 112 L 141 109 L 140 105 L 136 99 L 131 95 L 124 92 L 116 93 L 111 96 L 106 101 L 104 101 L 96 97 L 86 97 Z M 81 100 L 87 97 L 96 97 L 104 102 L 106 102 L 113 95 L 117 93 L 126 93 L 132 96 L 137 101 L 142 111 L 144 113 L 153 109 L 159 110 L 163 112 L 170 119 L 174 129 L 174 146 L 173 147 L 173 152 L 171 156 L 171 161 L 172 163 L 183 174 L 185 178 L 190 183 L 193 182 L 197 183 L 201 187 L 206 198 L 209 201 L 211 201 L 215 199 L 215 185 L 211 180 L 211 172 L 214 166 L 208 158 L 208 154 L 210 149 L 219 139 L 219 130 L 226 116 L 226 114 L 218 108 L 209 95 L 208 89 L 207 88 L 207 75 L 211 63 L 215 57 L 223 49 L 232 44 L 238 42 L 241 42 L 242 41 L 256 41 L 267 45 L 273 50 L 277 50 L 279 48 L 294 41 L 298 38 L 309 37 L 310 36 L 311 30 L 317 25 L 325 25 L 335 30 L 338 30 L 345 24 L 350 22 L 357 23 L 361 27 L 363 32 L 380 32 L 381 33 L 395 35 L 404 25 L 416 18 L 426 17 L 427 16 L 435 16 L 436 17 L 440 17 L 449 20 L 459 26 L 464 31 L 469 38 L 470 42 L 473 48 L 473 54 L 474 55 L 474 60 L 471 68 L 471 71 L 467 78 L 461 84 L 461 86 L 466 96 L 475 109 L 478 118 L 483 122 L 489 129 L 490 134 L 487 140 L 487 143 L 490 147 L 493 154 L 493 162 L 489 166 L 489 170 L 491 176 L 490 185 L 483 193 L 482 203 L 480 207 L 475 212 L 470 224 L 464 231 L 460 239 L 456 243 L 456 246 L 463 257 L 468 261 L 475 269 L 477 276 L 484 287 L 484 289 L 486 292 L 486 303 L 489 308 L 492 317 L 492 320 L 493 321 L 495 347 L 498 356 L 498 360 L 499 361 L 499 365 L 501 370 L 501 374 L 503 379 L 507 384 L 511 393 L 511 407 L 517 417 L 518 423 L 519 424 L 519 434 L 520 435 L 519 451 L 515 460 L 515 462 L 512 467 L 511 473 L 509 476 L 509 480 L 506 486 L 506 494 L 507 495 L 507 498 L 508 499 L 511 513 L 519 525 L 519 527 L 522 533 L 525 537 L 534 545 L 542 557 L 549 564 L 561 570 L 570 579 L 574 585 L 575 591 L 576 592 L 576 597 L 577 598 L 577 606 L 576 607 L 576 615 L 575 616 L 574 626 L 567 647 L 562 656 L 561 661 L 558 667 L 548 678 L 534 686 L 528 688 L 515 689 L 514 690 L 496 689 L 495 688 L 492 688 L 481 682 L 476 677 L 471 665 L 471 656 L 475 648 L 472 645 L 466 643 L 457 638 L 447 636 L 438 628 L 428 622 L 408 603 L 404 597 L 392 585 L 387 577 L 382 573 L 361 573 L 360 572 L 353 572 L 352 571 L 347 571 L 346 570 L 343 570 L 342 569 L 339 569 L 338 568 L 335 568 L 334 567 L 331 567 L 322 564 L 316 564 L 313 566 L 311 566 L 309 568 L 307 568 L 301 571 L 294 571 L 287 574 L 282 580 L 280 590 L 274 599 L 272 605 L 272 608 L 271 609 L 271 614 L 269 617 L 269 619 L 266 623 L 259 629 L 251 634 L 240 638 L 234 638 L 233 639 L 216 639 L 215 640 L 197 640 L 196 639 L 175 638 L 171 636 L 168 636 L 164 634 L 161 634 L 158 632 L 151 631 L 145 628 L 143 628 L 141 626 L 131 621 L 123 613 L 120 607 L 120 599 L 122 594 L 133 583 L 139 579 L 147 575 L 157 572 L 163 568 L 158 557 L 159 532 L 160 531 L 160 527 L 161 526 L 162 518 L 163 517 L 162 502 L 166 494 L 172 487 L 174 482 L 174 478 L 177 472 L 185 465 L 190 463 L 192 461 L 194 461 L 196 459 L 198 459 L 200 457 L 206 455 L 209 453 L 212 447 L 212 436 L 209 429 L 209 424 L 215 409 L 215 407 L 212 401 L 212 397 L 214 391 L 219 385 L 219 376 L 220 375 L 220 371 L 225 360 L 225 354 L 209 346 L 201 340 L 188 335 L 179 325 L 177 325 L 164 319 L 159 314 L 155 306 L 144 301 L 134 292 L 132 288 L 132 283 L 131 281 L 116 267 L 102 249 L 90 227 L 87 217 L 81 211 L 72 205 L 57 190 L 52 183 L 48 175 L 47 165 L 49 159 L 55 153 L 55 149 L 53 144 L 53 134 L 54 131 L 62 122 L 64 121 L 72 121 L 73 120 L 73 112 L 76 105 Z" fill="#B1B1B1" fill-rule="evenodd"/><path d="M 147 602 L 145 604 L 144 608 L 148 610 L 151 613 L 155 613 L 155 609 L 153 607 L 150 602 Z M 262 147 L 261 149 L 261 152 L 260 153 L 260 160 L 261 161 L 262 167 L 269 175 L 274 178 L 278 179 L 281 182 L 281 184 L 282 185 L 282 190 L 288 203 L 290 205 L 294 212 L 297 215 L 297 216 L 307 227 L 308 227 L 314 232 L 316 231 L 310 224 L 306 216 L 306 212 L 310 204 L 322 193 L 325 192 L 327 190 L 329 190 L 332 188 L 335 188 L 336 187 L 342 187 L 343 188 L 348 189 L 353 192 L 358 198 L 358 200 L 359 201 L 359 205 L 358 206 L 357 212 L 352 222 L 353 223 L 359 213 L 359 211 L 361 207 L 361 204 L 362 203 L 362 200 L 363 199 L 363 194 L 364 193 L 364 188 L 365 187 L 365 164 L 364 163 L 364 159 L 361 154 L 359 154 L 357 156 L 355 160 L 350 165 L 341 170 L 339 170 L 333 173 L 330 173 L 329 174 L 315 174 L 314 173 L 310 173 L 309 172 L 306 172 L 305 171 L 302 171 L 301 170 L 295 169 L 290 173 L 284 176 L 278 176 L 272 173 L 266 166 L 265 164 L 265 160 L 264 159 L 265 147 L 264 146 Z M 271 140 L 271 144 L 275 151 L 281 157 L 285 158 L 286 159 L 296 159 L 297 158 L 300 158 L 301 157 L 303 157 L 310 154 L 317 147 L 318 143 L 319 142 L 319 139 L 318 137 L 314 133 L 313 133 L 311 131 L 305 130 L 304 129 L 290 129 L 289 130 L 285 130 L 279 133 L 277 133 Z M 279 108 L 275 109 L 272 112 L 269 118 L 269 127 L 271 130 L 275 130 L 281 124 L 282 122 L 282 112 Z M 358 103 L 355 106 L 354 110 L 353 111 L 353 120 L 354 121 L 355 125 L 357 127 L 362 128 L 363 127 L 365 127 L 368 123 L 368 121 L 369 120 L 369 111 L 368 110 L 367 106 L 364 103 Z M 286 72 L 284 70 L 282 70 L 276 73 L 273 76 L 272 78 L 272 81 L 276 80 L 278 78 L 285 74 Z M 359 62 L 359 63 L 363 66 L 365 66 L 372 70 L 376 70 L 376 66 L 371 62 L 369 62 L 366 60 L 361 60 Z M 81 101 L 77 105 L 75 109 L 75 111 L 74 112 L 74 120 L 72 122 L 64 122 L 62 123 L 55 131 L 55 133 L 54 134 L 54 144 L 55 145 L 55 148 L 56 149 L 56 153 L 50 159 L 49 161 L 49 164 L 48 165 L 48 171 L 49 172 L 49 175 L 53 183 L 58 189 L 58 190 L 72 204 L 73 204 L 76 207 L 81 210 L 88 217 L 88 219 L 90 222 L 91 227 L 96 237 L 98 239 L 100 244 L 102 246 L 103 249 L 106 252 L 111 260 L 117 266 L 117 267 L 132 281 L 133 283 L 133 288 L 135 292 L 140 297 L 141 297 L 144 300 L 155 305 L 157 307 L 160 314 L 164 318 L 172 322 L 179 324 L 188 334 L 201 339 L 209 345 L 224 352 L 226 354 L 226 360 L 223 366 L 223 368 L 221 371 L 221 375 L 220 376 L 220 385 L 215 391 L 215 393 L 213 397 L 213 401 L 216 407 L 216 409 L 215 410 L 214 415 L 211 420 L 211 423 L 210 424 L 210 429 L 213 436 L 213 447 L 212 448 L 212 450 L 211 452 L 206 456 L 202 458 L 200 458 L 198 460 L 196 460 L 194 462 L 192 462 L 190 464 L 182 468 L 178 472 L 175 478 L 175 482 L 174 483 L 174 485 L 167 494 L 163 502 L 163 511 L 164 512 L 164 517 L 163 518 L 163 522 L 162 523 L 161 531 L 160 532 L 159 557 L 164 568 L 157 573 L 155 573 L 152 575 L 147 576 L 139 580 L 137 582 L 133 584 L 123 594 L 122 598 L 121 599 L 121 607 L 124 613 L 131 620 L 141 625 L 143 627 L 145 627 L 151 630 L 158 631 L 161 633 L 164 633 L 168 635 L 171 635 L 175 637 L 183 637 L 184 638 L 196 638 L 197 639 L 215 639 L 216 638 L 233 638 L 234 637 L 240 637 L 241 636 L 244 636 L 251 633 L 253 631 L 259 628 L 264 623 L 265 623 L 265 622 L 268 619 L 268 617 L 270 614 L 270 609 L 271 608 L 271 605 L 272 604 L 273 599 L 275 595 L 279 590 L 280 584 L 281 583 L 281 580 L 287 573 L 291 571 L 293 571 L 294 570 L 301 570 L 307 567 L 309 567 L 311 565 L 313 565 L 316 563 L 322 563 L 323 564 L 327 564 L 331 566 L 334 566 L 335 567 L 338 567 L 339 568 L 342 568 L 343 569 L 346 569 L 347 570 L 352 570 L 353 571 L 360 571 L 361 572 L 382 572 L 388 577 L 393 585 L 405 597 L 405 598 L 409 602 L 409 603 L 428 621 L 438 627 L 447 635 L 457 637 L 466 642 L 468 642 L 472 644 L 476 648 L 472 656 L 472 665 L 477 677 L 481 681 L 484 682 L 486 684 L 492 687 L 495 687 L 496 688 L 503 688 L 504 689 L 514 689 L 515 688 L 522 688 L 523 687 L 528 687 L 529 686 L 534 685 L 544 680 L 547 677 L 548 677 L 557 667 L 560 661 L 561 656 L 566 647 L 566 645 L 567 644 L 567 642 L 568 641 L 568 639 L 569 638 L 569 636 L 570 635 L 570 633 L 572 630 L 572 627 L 573 626 L 574 616 L 575 615 L 575 607 L 576 606 L 576 598 L 575 597 L 575 592 L 574 591 L 573 585 L 571 583 L 569 579 L 561 571 L 549 565 L 541 557 L 541 556 L 535 549 L 533 545 L 528 540 L 527 540 L 521 533 L 518 527 L 518 525 L 516 523 L 515 520 L 512 517 L 510 513 L 509 507 L 508 506 L 508 503 L 507 502 L 507 499 L 506 498 L 506 495 L 505 494 L 505 486 L 508 480 L 508 476 L 510 473 L 511 467 L 514 462 L 514 460 L 516 457 L 516 455 L 518 451 L 518 444 L 519 443 L 518 424 L 517 423 L 516 417 L 510 407 L 510 393 L 509 392 L 509 390 L 506 384 L 502 379 L 501 375 L 500 374 L 500 370 L 499 369 L 499 366 L 498 365 L 497 356 L 496 355 L 496 352 L 495 351 L 495 348 L 494 347 L 492 321 L 491 320 L 491 317 L 490 316 L 488 308 L 485 303 L 485 292 L 483 289 L 483 287 L 481 285 L 480 282 L 478 280 L 476 276 L 474 269 L 471 266 L 471 265 L 462 257 L 455 246 L 455 243 L 459 239 L 461 234 L 469 224 L 474 212 L 479 207 L 481 203 L 482 193 L 488 187 L 489 185 L 490 176 L 489 175 L 488 166 L 492 162 L 492 154 L 489 147 L 486 143 L 486 140 L 489 134 L 488 129 L 487 127 L 477 118 L 477 116 L 474 109 L 465 96 L 460 86 L 460 84 L 468 75 L 470 71 L 470 68 L 471 67 L 472 61 L 473 60 L 473 55 L 472 54 L 472 48 L 471 47 L 471 45 L 469 42 L 468 38 L 463 32 L 463 31 L 459 27 L 453 24 L 451 22 L 444 20 L 443 19 L 441 19 L 440 18 L 436 18 L 435 17 L 427 17 L 426 18 L 420 18 L 419 19 L 416 19 L 404 26 L 395 36 L 391 36 L 390 35 L 386 35 L 385 34 L 381 34 L 380 33 L 363 33 L 361 31 L 360 27 L 357 24 L 355 24 L 354 23 L 350 23 L 349 24 L 345 25 L 338 31 L 335 31 L 325 26 L 317 26 L 312 30 L 311 36 L 309 38 L 302 38 L 301 39 L 298 39 L 294 42 L 279 49 L 277 51 L 273 51 L 267 46 L 260 43 L 257 43 L 256 42 L 242 42 L 241 43 L 238 43 L 237 44 L 232 45 L 223 50 L 216 57 L 216 58 L 212 63 L 210 70 L 209 71 L 209 74 L 208 75 L 208 88 L 209 89 L 210 95 L 212 99 L 219 107 L 219 108 L 227 114 L 227 116 L 220 130 L 220 139 L 219 141 L 211 149 L 210 153 L 209 154 L 209 158 L 215 166 L 212 172 L 212 180 L 216 185 L 216 199 L 214 201 L 212 201 L 211 202 L 209 202 L 205 198 L 200 187 L 197 184 L 195 184 L 194 183 L 190 184 L 184 178 L 182 174 L 171 163 L 170 161 L 170 156 L 172 152 L 172 147 L 173 146 L 173 129 L 172 128 L 172 125 L 169 119 L 163 113 L 159 111 L 153 110 L 144 114 L 141 111 L 136 101 L 132 97 L 126 94 L 117 94 L 113 96 L 106 103 L 104 103 L 102 101 L 96 98 L 87 98 Z M 87 106 L 89 105 L 93 105 L 101 109 L 107 116 L 111 125 L 112 125 L 113 123 L 113 109 L 114 108 L 114 106 L 119 101 L 125 101 L 131 106 L 136 115 L 136 117 L 137 118 L 137 120 L 140 127 L 141 127 L 148 119 L 152 118 L 153 117 L 156 117 L 158 118 L 164 125 L 165 131 L 166 132 L 166 146 L 165 147 L 165 152 L 164 153 L 163 159 L 162 160 L 163 164 L 168 169 L 168 170 L 172 174 L 172 175 L 176 179 L 176 180 L 180 184 L 180 185 L 188 195 L 189 195 L 192 192 L 194 192 L 198 196 L 205 209 L 211 217 L 212 216 L 212 213 L 215 209 L 219 210 L 221 212 L 225 220 L 225 222 L 228 227 L 233 226 L 239 232 L 240 235 L 244 239 L 245 238 L 245 236 L 247 234 L 248 234 L 253 239 L 253 240 L 259 248 L 260 251 L 263 254 L 265 254 L 266 253 L 266 249 L 258 235 L 252 229 L 249 228 L 246 225 L 243 219 L 242 219 L 240 221 L 238 221 L 234 217 L 232 213 L 232 210 L 231 209 L 231 199 L 229 200 L 226 200 L 223 197 L 223 189 L 224 188 L 224 185 L 225 184 L 225 181 L 226 179 L 225 178 L 224 179 L 221 179 L 219 177 L 219 171 L 223 163 L 224 159 L 223 158 L 221 159 L 218 159 L 216 157 L 216 155 L 217 154 L 218 150 L 227 141 L 228 139 L 228 137 L 227 136 L 227 130 L 235 114 L 236 109 L 234 107 L 232 107 L 225 103 L 221 99 L 216 90 L 216 87 L 215 86 L 215 78 L 216 77 L 216 73 L 217 72 L 218 67 L 222 62 L 222 61 L 231 53 L 237 50 L 243 49 L 244 48 L 253 48 L 254 49 L 259 50 L 264 54 L 265 54 L 271 61 L 274 61 L 278 57 L 280 57 L 282 55 L 286 54 L 291 51 L 296 50 L 298 48 L 298 46 L 301 43 L 318 43 L 317 34 L 319 32 L 324 32 L 333 36 L 335 38 L 339 38 L 346 32 L 353 29 L 356 32 L 356 36 L 355 37 L 355 39 L 356 40 L 358 39 L 377 39 L 378 40 L 382 40 L 383 41 L 386 41 L 387 42 L 390 42 L 391 43 L 399 45 L 401 43 L 405 35 L 410 30 L 417 26 L 419 26 L 423 24 L 426 24 L 427 23 L 431 23 L 432 24 L 436 24 L 437 25 L 445 27 L 447 29 L 450 30 L 459 39 L 459 40 L 463 45 L 463 47 L 465 51 L 465 62 L 464 63 L 464 66 L 460 74 L 454 80 L 453 80 L 450 83 L 450 84 L 453 88 L 454 91 L 456 93 L 461 103 L 469 114 L 469 117 L 467 119 L 467 121 L 474 124 L 480 130 L 481 133 L 479 135 L 477 136 L 472 136 L 471 137 L 479 145 L 479 146 L 482 149 L 483 153 L 484 154 L 484 158 L 482 160 L 480 160 L 477 158 L 476 159 L 476 161 L 478 164 L 478 166 L 482 174 L 482 178 L 483 179 L 483 181 L 480 184 L 476 181 L 474 182 L 474 189 L 475 190 L 475 197 L 474 198 L 474 202 L 472 204 L 470 204 L 468 202 L 466 203 L 466 210 L 460 224 L 449 235 L 438 242 L 436 244 L 436 245 L 439 247 L 444 248 L 446 250 L 445 254 L 447 256 L 452 258 L 455 261 L 456 261 L 462 267 L 458 270 L 459 272 L 469 282 L 469 283 L 474 289 L 474 290 L 472 292 L 468 291 L 467 290 L 466 290 L 466 292 L 470 296 L 473 302 L 475 304 L 480 314 L 480 316 L 482 320 L 482 330 L 480 332 L 480 335 L 481 336 L 481 338 L 482 339 L 482 341 L 485 348 L 485 361 L 484 362 L 483 370 L 482 371 L 481 376 L 479 378 L 479 379 L 473 384 L 471 384 L 467 379 L 458 394 L 453 399 L 449 401 L 446 401 L 445 400 L 445 394 L 446 393 L 446 391 L 445 390 L 442 393 L 438 395 L 432 401 L 429 401 L 425 405 L 419 408 L 417 408 L 416 407 L 415 402 L 413 401 L 402 410 L 396 413 L 394 413 L 391 415 L 387 415 L 384 411 L 382 411 L 370 421 L 368 421 L 366 419 L 366 416 L 362 416 L 358 418 L 354 418 L 351 420 L 347 420 L 346 421 L 343 421 L 342 422 L 337 422 L 336 423 L 333 423 L 329 425 L 321 426 L 320 427 L 310 427 L 309 426 L 305 425 L 302 422 L 302 415 L 303 414 L 303 409 L 304 408 L 303 407 L 300 407 L 296 409 L 294 411 L 292 411 L 285 408 L 283 406 L 283 404 L 282 403 L 283 397 L 285 395 L 285 394 L 290 390 L 291 387 L 289 386 L 287 387 L 281 387 L 277 384 L 277 377 L 279 373 L 284 368 L 295 363 L 298 360 L 297 359 L 293 359 L 292 358 L 290 358 L 288 356 L 288 353 L 293 347 L 301 343 L 318 343 L 319 342 L 323 342 L 332 337 L 334 337 L 342 333 L 350 332 L 351 331 L 354 331 L 355 330 L 359 330 L 360 329 L 363 329 L 364 328 L 367 328 L 368 327 L 372 327 L 376 325 L 380 325 L 381 324 L 383 324 L 386 322 L 392 322 L 393 321 L 399 321 L 400 320 L 400 319 L 398 317 L 388 316 L 386 314 L 384 309 L 383 308 L 381 308 L 379 310 L 379 312 L 373 317 L 369 317 L 368 318 L 364 318 L 363 319 L 360 319 L 359 320 L 355 320 L 354 321 L 348 322 L 345 324 L 343 324 L 335 328 L 330 329 L 326 332 L 318 336 L 296 338 L 295 339 L 292 339 L 286 342 L 283 345 L 281 349 L 279 357 L 271 370 L 271 379 L 272 380 L 272 394 L 273 395 L 273 398 L 274 399 L 275 405 L 282 417 L 288 422 L 289 422 L 295 428 L 304 433 L 306 433 L 310 435 L 327 435 L 328 434 L 334 433 L 337 431 L 345 431 L 346 430 L 371 430 L 382 425 L 390 425 L 391 424 L 394 424 L 397 422 L 399 422 L 400 421 L 402 421 L 403 420 L 405 420 L 408 418 L 411 418 L 412 417 L 423 417 L 431 413 L 434 413 L 435 412 L 444 412 L 445 411 L 448 411 L 449 410 L 453 409 L 457 405 L 461 403 L 466 402 L 472 399 L 482 389 L 487 379 L 489 377 L 491 377 L 495 381 L 501 391 L 501 395 L 499 397 L 497 397 L 496 398 L 501 408 L 503 410 L 507 419 L 507 423 L 504 426 L 504 428 L 505 429 L 505 433 L 506 434 L 506 438 L 507 439 L 507 443 L 508 444 L 508 455 L 507 456 L 503 456 L 502 457 L 502 460 L 501 461 L 501 472 L 500 473 L 500 477 L 499 478 L 498 483 L 496 486 L 495 491 L 493 494 L 493 496 L 491 498 L 490 501 L 487 504 L 484 510 L 484 514 L 485 515 L 488 515 L 494 509 L 495 506 L 497 504 L 498 504 L 502 508 L 504 513 L 507 517 L 507 520 L 509 524 L 509 528 L 517 536 L 519 540 L 529 550 L 529 551 L 525 554 L 525 556 L 533 561 L 541 570 L 551 575 L 553 575 L 558 578 L 565 586 L 567 593 L 568 594 L 568 607 L 567 608 L 567 615 L 566 616 L 566 621 L 565 622 L 564 630 L 560 638 L 560 641 L 558 644 L 556 652 L 553 658 L 551 660 L 551 661 L 541 671 L 537 672 L 535 670 L 535 661 L 533 659 L 531 659 L 528 663 L 528 669 L 532 674 L 532 676 L 530 678 L 526 680 L 516 680 L 512 676 L 509 668 L 506 665 L 505 665 L 504 666 L 504 673 L 505 674 L 505 677 L 502 680 L 494 680 L 493 679 L 491 679 L 485 673 L 482 668 L 482 666 L 481 665 L 481 654 L 485 649 L 488 649 L 489 648 L 494 647 L 506 641 L 507 639 L 506 638 L 504 638 L 503 639 L 498 639 L 497 640 L 485 640 L 484 639 L 481 639 L 480 638 L 477 638 L 476 637 L 470 636 L 462 632 L 460 630 L 456 629 L 453 627 L 446 627 L 440 624 L 438 622 L 433 611 L 432 610 L 429 610 L 425 612 L 420 606 L 418 601 L 416 599 L 414 595 L 408 589 L 408 588 L 394 575 L 394 573 L 397 570 L 399 570 L 403 567 L 403 564 L 402 563 L 394 563 L 393 564 L 387 564 L 386 565 L 368 565 L 367 564 L 354 564 L 353 563 L 344 562 L 343 561 L 340 561 L 339 560 L 335 560 L 332 558 L 328 558 L 327 557 L 322 556 L 306 548 L 300 547 L 299 548 L 299 550 L 303 554 L 304 558 L 300 561 L 289 561 L 288 562 L 286 562 L 284 564 L 281 565 L 276 570 L 275 576 L 271 583 L 271 585 L 269 589 L 267 591 L 266 594 L 264 596 L 264 598 L 262 601 L 262 609 L 261 610 L 261 612 L 252 622 L 248 623 L 247 624 L 239 624 L 238 625 L 221 625 L 220 624 L 214 624 L 213 623 L 205 622 L 201 620 L 195 620 L 194 619 L 185 619 L 184 618 L 176 618 L 175 617 L 147 617 L 145 616 L 139 609 L 138 609 L 130 603 L 130 596 L 131 594 L 137 588 L 143 585 L 145 585 L 148 583 L 156 581 L 159 579 L 161 579 L 165 577 L 180 577 L 181 578 L 185 578 L 186 579 L 188 579 L 188 578 L 184 574 L 178 571 L 176 571 L 173 569 L 171 569 L 169 567 L 169 534 L 170 533 L 170 528 L 171 527 L 171 524 L 172 523 L 172 518 L 173 517 L 173 512 L 174 511 L 173 507 L 170 504 L 170 499 L 173 496 L 174 496 L 179 492 L 184 490 L 186 488 L 185 485 L 183 483 L 184 480 L 187 477 L 191 475 L 196 474 L 198 472 L 198 469 L 202 465 L 204 465 L 210 462 L 213 462 L 214 461 L 217 461 L 218 460 L 222 460 L 223 459 L 226 459 L 227 458 L 237 458 L 235 454 L 230 449 L 228 449 L 225 452 L 222 452 L 220 450 L 219 448 L 219 445 L 220 444 L 220 441 L 223 435 L 223 432 L 224 431 L 225 427 L 224 426 L 222 428 L 219 428 L 217 426 L 217 423 L 223 410 L 228 403 L 228 400 L 227 399 L 226 400 L 223 400 L 221 398 L 221 395 L 222 394 L 222 392 L 227 387 L 227 386 L 232 380 L 231 378 L 229 378 L 227 376 L 227 372 L 234 362 L 234 359 L 235 358 L 235 353 L 237 349 L 236 338 L 240 329 L 240 319 L 243 312 L 243 308 L 242 307 L 238 314 L 238 316 L 234 323 L 233 328 L 228 338 L 228 340 L 225 343 L 221 343 L 220 342 L 216 342 L 215 341 L 213 341 L 211 339 L 212 335 L 209 333 L 203 333 L 202 332 L 197 332 L 196 331 L 194 331 L 192 329 L 192 327 L 195 324 L 195 323 L 193 321 L 189 321 L 188 320 L 181 319 L 169 314 L 166 311 L 166 310 L 170 306 L 170 304 L 169 303 L 162 301 L 161 300 L 159 300 L 158 299 L 156 299 L 148 295 L 142 290 L 142 287 L 144 285 L 148 285 L 149 283 L 145 279 L 144 279 L 131 269 L 130 269 L 122 261 L 122 260 L 117 255 L 117 254 L 113 250 L 113 249 L 109 244 L 103 231 L 101 229 L 101 227 L 97 220 L 97 218 L 94 212 L 91 209 L 84 205 L 76 198 L 75 198 L 64 187 L 62 183 L 59 180 L 55 171 L 55 167 L 56 166 L 56 164 L 60 160 L 62 159 L 68 159 L 68 157 L 63 148 L 62 142 L 61 141 L 61 136 L 62 135 L 62 133 L 65 130 L 69 128 L 73 128 L 74 129 L 77 129 L 85 135 L 85 132 L 81 123 L 81 114 L 82 113 L 82 111 Z" fill="#010101" fill-rule="evenodd"/></svg>