<svg xmlns="http://www.w3.org/2000/svg" viewBox="0 0 653 704" shape-rendering="geometricPrecision"><title>intro frame 015</title><path d="M 433 457 L 440 463 L 443 464 L 445 462 L 445 459 L 442 455 L 440 456 L 434 455 Z M 434 398 L 434 401 L 431 404 L 423 408 L 422 410 L 422 414 L 423 416 L 427 419 L 439 423 L 440 422 L 435 416 L 435 412 L 437 409 L 433 405 L 435 403 L 440 403 L 441 401 L 439 399 Z M 67 179 L 65 182 L 66 184 L 66 188 L 67 188 L 67 183 L 68 182 Z M 276 168 L 275 170 L 275 179 L 276 182 L 284 188 L 291 188 L 295 186 L 299 182 L 296 180 L 291 179 L 282 174 L 277 168 Z M 78 177 L 81 180 L 84 181 L 89 186 L 90 189 L 91 189 L 91 187 L 93 185 L 94 181 L 99 172 L 107 164 L 114 159 L 116 159 L 119 157 L 124 157 L 125 156 L 127 157 L 131 157 L 134 158 L 143 165 L 147 169 L 152 179 L 152 185 L 148 194 L 138 203 L 129 208 L 127 208 L 123 211 L 121 211 L 115 214 L 111 214 L 110 215 L 108 214 L 102 214 L 94 208 L 90 203 L 90 200 L 88 198 L 84 202 L 82 202 L 76 199 L 72 195 L 71 196 L 85 211 L 86 211 L 92 217 L 99 221 L 104 226 L 108 233 L 108 235 L 111 237 L 117 245 L 119 246 L 123 253 L 129 259 L 129 260 L 149 279 L 166 291 L 174 295 L 176 295 L 178 297 L 188 299 L 195 302 L 197 304 L 197 307 L 195 309 L 191 310 L 191 311 L 193 312 L 204 311 L 210 317 L 213 318 L 216 318 L 217 319 L 230 319 L 232 322 L 228 326 L 226 326 L 223 328 L 222 330 L 228 332 L 237 332 L 240 329 L 241 325 L 243 323 L 243 319 L 247 310 L 246 307 L 249 304 L 249 301 L 251 297 L 257 290 L 258 283 L 266 275 L 266 274 L 262 269 L 262 266 L 260 262 L 254 255 L 253 255 L 253 258 L 249 261 L 246 258 L 239 246 L 235 249 L 233 249 L 228 243 L 227 238 L 222 230 L 221 230 L 220 232 L 220 236 L 217 239 L 208 230 L 207 226 L 205 224 L 205 222 L 203 220 L 202 217 L 200 215 L 194 216 L 188 210 L 186 206 L 180 200 L 170 186 L 166 183 L 163 178 L 166 169 L 166 164 L 163 164 L 160 167 L 156 169 L 151 168 L 146 163 L 146 160 L 145 159 L 145 152 L 146 150 L 142 146 L 142 142 L 141 142 L 140 150 L 136 154 L 128 154 L 124 151 L 121 152 L 118 151 L 116 149 L 114 155 L 110 159 L 108 160 L 99 160 L 97 162 L 95 162 L 97 166 L 97 172 L 93 177 L 91 178 L 84 178 L 81 176 Z M 205 302 L 205 301 L 207 300 L 206 298 L 207 296 L 215 297 L 219 300 L 215 304 L 210 304 Z M 204 277 L 206 278 L 206 281 L 207 282 L 205 286 L 202 282 L 199 281 Z M 445 46 L 435 45 L 421 50 L 414 57 L 411 62 L 411 64 L 408 67 L 404 67 L 390 62 L 376 61 L 375 60 L 373 61 L 366 61 L 362 63 L 361 62 L 358 62 L 356 60 L 356 57 L 357 56 L 356 54 L 351 56 L 348 60 L 345 61 L 338 56 L 329 53 L 330 62 L 328 64 L 310 65 L 305 71 L 302 71 L 299 73 L 297 73 L 295 75 L 293 75 L 286 81 L 287 82 L 292 82 L 296 84 L 298 86 L 298 91 L 295 94 L 289 97 L 283 102 L 278 103 L 275 100 L 275 95 L 280 87 L 280 85 L 276 82 L 272 75 L 262 70 L 250 70 L 249 71 L 245 71 L 234 79 L 228 88 L 228 91 L 227 92 L 227 106 L 229 109 L 230 113 L 235 118 L 238 119 L 240 121 L 243 121 L 247 124 L 245 132 L 239 144 L 239 147 L 237 149 L 239 154 L 239 158 L 230 167 L 230 169 L 233 170 L 236 173 L 236 175 L 234 178 L 233 182 L 230 186 L 229 190 L 230 191 L 232 189 L 235 189 L 238 192 L 236 196 L 233 210 L 235 211 L 237 209 L 240 209 L 243 212 L 243 216 L 242 217 L 242 227 L 244 231 L 247 229 L 251 229 L 253 231 L 254 236 L 257 240 L 270 251 L 274 252 L 279 256 L 284 258 L 294 267 L 296 271 L 296 274 L 294 276 L 287 274 L 281 270 L 277 270 L 273 276 L 268 281 L 268 285 L 264 289 L 267 294 L 256 303 L 256 305 L 259 307 L 258 311 L 251 317 L 254 321 L 254 323 L 252 325 L 250 331 L 248 333 L 247 345 L 245 347 L 243 353 L 244 354 L 249 350 L 255 348 L 259 348 L 261 350 L 261 353 L 259 357 L 246 370 L 241 373 L 232 383 L 231 385 L 234 386 L 236 388 L 236 392 L 224 407 L 225 408 L 228 408 L 231 411 L 231 415 L 228 419 L 227 423 L 224 426 L 223 429 L 221 431 L 221 433 L 219 435 L 219 436 L 222 436 L 225 434 L 228 437 L 227 445 L 224 450 L 224 453 L 222 458 L 222 462 L 221 463 L 222 464 L 225 460 L 229 457 L 231 457 L 233 459 L 231 470 L 229 474 L 229 480 L 228 483 L 233 479 L 236 480 L 237 482 L 237 496 L 239 499 L 240 503 L 244 504 L 250 511 L 253 511 L 258 516 L 259 520 L 260 520 L 261 516 L 265 512 L 267 512 L 270 514 L 270 504 L 269 503 L 270 487 L 272 485 L 277 484 L 280 488 L 279 491 L 279 515 L 283 519 L 286 519 L 290 515 L 294 514 L 303 507 L 306 507 L 308 505 L 311 505 L 315 502 L 317 502 L 323 498 L 325 498 L 327 496 L 342 491 L 346 491 L 347 490 L 350 490 L 359 487 L 366 487 L 367 486 L 381 487 L 386 490 L 393 492 L 396 495 L 398 500 L 395 502 L 393 500 L 388 499 L 386 497 L 380 497 L 377 499 L 363 500 L 357 503 L 343 506 L 341 508 L 329 512 L 324 516 L 322 516 L 318 519 L 315 519 L 311 522 L 302 525 L 301 527 L 303 527 L 307 531 L 303 535 L 297 538 L 291 540 L 288 540 L 281 544 L 286 548 L 286 552 L 283 555 L 277 557 L 272 561 L 270 569 L 267 572 L 263 580 L 263 582 L 259 587 L 259 589 L 251 598 L 248 604 L 252 606 L 263 616 L 264 621 L 262 623 L 259 623 L 253 621 L 238 614 L 233 614 L 232 613 L 223 612 L 222 611 L 211 612 L 209 614 L 206 613 L 202 615 L 203 618 L 211 618 L 214 617 L 217 620 L 217 628 L 222 632 L 234 632 L 236 633 L 239 636 L 239 642 L 240 644 L 245 649 L 257 656 L 267 665 L 278 670 L 285 669 L 290 665 L 293 664 L 294 661 L 298 656 L 310 645 L 311 642 L 315 638 L 318 638 L 325 631 L 326 628 L 328 626 L 328 623 L 331 619 L 330 616 L 331 615 L 337 614 L 339 612 L 342 611 L 348 606 L 352 601 L 356 599 L 360 595 L 363 589 L 367 586 L 370 582 L 376 578 L 376 576 L 380 573 L 383 568 L 385 566 L 387 566 L 389 564 L 390 561 L 397 554 L 400 554 L 405 550 L 409 543 L 413 543 L 416 540 L 421 539 L 423 536 L 424 531 L 429 523 L 429 520 L 431 518 L 432 514 L 434 512 L 439 510 L 442 511 L 445 509 L 447 511 L 449 509 L 449 504 L 454 499 L 456 499 L 459 497 L 462 493 L 462 488 L 463 487 L 462 482 L 463 481 L 463 477 L 461 473 L 460 473 L 457 477 L 455 477 L 454 476 L 451 476 L 448 472 L 442 468 L 440 469 L 435 469 L 432 467 L 424 465 L 419 460 L 418 455 L 413 450 L 405 446 L 406 443 L 410 442 L 417 445 L 419 447 L 421 447 L 424 450 L 428 451 L 432 447 L 432 444 L 434 440 L 432 435 L 426 429 L 420 427 L 417 427 L 410 423 L 407 420 L 408 417 L 415 411 L 414 408 L 410 405 L 407 406 L 400 406 L 395 403 L 387 403 L 383 406 L 377 401 L 377 398 L 376 396 L 382 390 L 386 390 L 392 393 L 406 393 L 407 394 L 412 394 L 419 399 L 420 398 L 420 392 L 419 390 L 415 388 L 411 388 L 407 385 L 407 383 L 409 381 L 413 381 L 414 380 L 422 380 L 424 381 L 430 388 L 434 388 L 436 385 L 441 385 L 450 394 L 449 396 L 451 402 L 450 406 L 453 411 L 453 417 L 451 419 L 448 418 L 447 419 L 451 427 L 451 430 L 448 433 L 451 437 L 451 439 L 453 440 L 456 436 L 459 435 L 456 431 L 456 427 L 459 424 L 461 424 L 469 430 L 471 430 L 472 428 L 463 419 L 461 413 L 455 406 L 455 404 L 457 402 L 460 402 L 463 400 L 466 401 L 466 396 L 465 396 L 464 399 L 462 398 L 462 394 L 465 391 L 463 391 L 459 394 L 455 389 L 455 387 L 442 376 L 443 373 L 445 371 L 448 370 L 447 365 L 443 359 L 443 350 L 442 348 L 444 344 L 447 344 L 448 343 L 452 344 L 453 343 L 453 341 L 445 334 L 444 331 L 446 329 L 451 329 L 455 332 L 463 333 L 464 334 L 487 335 L 493 337 L 499 337 L 505 340 L 508 344 L 516 345 L 522 348 L 537 362 L 543 361 L 547 365 L 550 366 L 550 369 L 551 370 L 550 372 L 551 374 L 551 385 L 552 388 L 556 393 L 562 395 L 563 394 L 562 392 L 562 388 L 566 384 L 569 384 L 570 383 L 571 384 L 572 383 L 575 384 L 578 387 L 581 386 L 584 387 L 586 389 L 585 392 L 586 390 L 591 389 L 589 388 L 594 386 L 594 384 L 598 381 L 598 376 L 601 373 L 611 376 L 613 371 L 612 367 L 621 356 L 623 356 L 626 359 L 629 358 L 629 355 L 626 352 L 626 350 L 624 348 L 624 346 L 620 339 L 620 337 L 614 329 L 607 322 L 604 311 L 599 308 L 597 308 L 588 301 L 587 294 L 585 291 L 582 291 L 579 289 L 566 285 L 563 282 L 564 279 L 564 276 L 563 275 L 559 275 L 554 273 L 546 273 L 545 272 L 539 271 L 536 268 L 536 265 L 538 262 L 533 262 L 532 263 L 516 263 L 514 261 L 514 258 L 516 254 L 505 255 L 500 257 L 492 257 L 489 259 L 486 259 L 482 256 L 484 250 L 480 250 L 474 253 L 470 253 L 466 255 L 463 255 L 449 262 L 443 263 L 432 270 L 425 270 L 422 269 L 414 276 L 411 276 L 409 274 L 410 272 L 409 270 L 403 279 L 400 280 L 398 278 L 398 274 L 401 268 L 401 266 L 407 260 L 409 260 L 414 255 L 416 251 L 419 249 L 424 248 L 426 243 L 430 243 L 433 246 L 434 244 L 434 240 L 431 237 L 431 235 L 433 233 L 438 233 L 438 231 L 436 228 L 438 227 L 442 222 L 445 223 L 443 220 L 443 217 L 441 215 L 441 213 L 442 212 L 451 213 L 451 208 L 450 207 L 451 205 L 454 202 L 461 203 L 456 197 L 456 193 L 458 191 L 461 191 L 461 190 L 455 182 L 458 179 L 464 181 L 466 180 L 470 180 L 471 179 L 474 180 L 477 177 L 477 173 L 479 171 L 484 171 L 484 169 L 480 163 L 472 155 L 472 151 L 474 149 L 477 148 L 478 145 L 475 144 L 467 137 L 467 134 L 469 132 L 469 130 L 457 108 L 449 101 L 449 99 L 453 95 L 455 95 L 462 90 L 463 87 L 467 82 L 468 79 L 468 70 L 467 69 L 467 66 L 464 60 L 461 57 L 460 57 L 452 49 Z M 261 473 L 263 478 L 262 481 L 262 491 L 261 492 L 261 495 L 258 497 L 255 493 L 254 483 L 255 482 L 255 478 L 258 474 Z M 346 468 L 347 469 L 347 472 L 343 475 L 341 480 L 339 482 L 336 482 L 334 480 L 334 475 L 336 471 L 338 469 Z M 254 449 L 256 451 L 256 457 L 254 459 L 253 465 L 249 468 L 247 466 L 247 460 L 250 453 Z M 382 448 L 384 450 L 384 452 L 382 454 L 380 454 L 378 451 Z M 382 447 L 384 445 L 387 444 L 390 446 L 388 449 L 385 448 L 384 449 Z M 373 437 L 375 440 L 374 441 L 375 441 L 379 446 L 377 449 L 377 459 L 376 460 L 376 463 L 369 470 L 368 470 L 363 464 L 370 456 L 370 451 L 371 450 L 371 447 L 370 446 L 370 441 L 371 440 L 370 439 Z M 253 432 L 254 433 L 254 437 L 252 440 L 252 442 L 248 447 L 245 453 L 243 455 L 241 455 L 239 452 L 239 449 L 241 444 L 247 435 L 251 432 Z M 341 422 L 343 424 L 343 426 L 340 429 L 339 434 L 333 439 L 331 437 L 330 433 L 333 430 L 337 429 L 338 428 L 338 425 Z M 382 420 L 383 419 L 386 419 L 393 425 L 394 424 L 394 421 L 396 420 L 398 422 L 398 425 L 395 428 L 392 428 L 390 431 L 387 433 L 382 428 Z M 255 413 L 256 414 L 255 416 L 255 420 L 250 429 L 244 435 L 243 435 L 240 432 L 240 429 L 246 421 L 247 418 L 252 413 Z M 275 391 L 273 395 L 268 399 L 263 399 L 261 397 L 265 391 L 268 389 L 273 389 Z M 315 383 L 315 387 L 313 389 L 311 389 L 308 391 L 305 391 L 304 389 L 312 382 Z M 358 376 L 362 376 L 365 379 L 367 384 L 364 386 L 362 389 L 364 392 L 365 398 L 366 399 L 365 405 L 364 406 L 362 406 L 357 401 L 355 396 L 349 390 L 349 385 Z M 328 371 L 330 370 L 332 372 L 333 375 L 330 377 L 327 373 Z M 345 366 L 347 368 L 347 372 L 343 376 L 342 379 L 340 381 L 340 383 L 337 386 L 335 384 L 335 377 L 339 369 L 342 366 Z M 304 368 L 300 373 L 288 383 L 287 385 L 283 386 L 281 384 L 281 382 L 289 374 L 292 373 L 299 366 L 302 366 Z M 281 359 L 282 357 L 288 354 L 294 354 L 296 356 L 296 358 L 294 360 L 291 360 L 290 361 L 283 361 Z M 327 352 L 327 356 L 322 361 L 315 362 L 313 360 L 314 356 L 317 353 L 322 351 L 326 351 Z M 292 333 L 293 334 L 292 338 L 282 348 L 279 345 L 281 338 L 286 333 Z M 342 333 L 346 332 L 351 326 L 356 326 L 372 340 L 375 340 L 375 339 L 379 336 L 386 337 L 391 344 L 392 344 L 393 346 L 402 354 L 410 351 L 415 351 L 415 349 L 412 344 L 400 331 L 400 327 L 403 326 L 421 340 L 428 351 L 428 357 L 426 359 L 422 359 L 420 358 L 419 360 L 413 365 L 413 367 L 416 370 L 416 373 L 418 375 L 417 377 L 412 376 L 406 371 L 401 375 L 399 375 L 397 373 L 397 369 L 395 363 L 392 360 L 392 358 L 390 355 L 385 351 L 383 348 L 381 347 L 373 348 L 367 346 L 359 341 L 355 341 L 351 337 L 346 340 L 346 344 L 344 346 L 342 346 L 339 342 L 339 337 Z M 367 321 L 373 322 L 376 325 L 376 331 L 374 333 L 371 333 L 365 327 L 365 323 Z M 299 336 L 305 330 L 307 327 L 307 325 L 311 320 L 315 320 L 317 325 L 320 324 L 324 320 L 328 320 L 330 322 L 330 324 L 327 328 L 319 334 L 315 334 L 310 337 L 306 337 L 305 338 L 301 338 Z M 346 307 L 349 307 L 353 310 L 352 313 L 353 314 L 354 320 L 351 323 L 346 322 L 340 316 L 339 313 L 341 310 L 343 310 Z M 418 303 L 419 304 L 422 304 L 429 310 L 434 318 L 435 328 L 434 329 L 434 333 L 430 339 L 424 339 L 422 338 L 408 324 L 408 321 L 410 319 L 413 321 L 419 322 L 420 323 L 422 323 L 424 320 L 424 315 L 423 313 L 416 306 Z M 407 301 L 409 301 L 412 304 L 412 309 L 410 311 L 407 310 L 405 308 L 405 305 Z M 393 302 L 390 303 L 390 305 L 388 307 L 384 306 L 382 308 L 376 307 L 375 306 L 374 307 L 367 306 L 365 304 L 363 304 L 361 300 L 352 303 L 346 302 L 344 300 L 336 297 L 321 287 L 312 278 L 312 273 L 315 270 L 321 270 L 322 271 L 331 272 L 332 273 L 348 273 L 349 272 L 356 272 L 357 271 L 371 269 L 388 263 L 392 263 L 394 265 L 394 270 L 391 274 L 373 291 L 374 292 L 376 291 L 380 294 L 382 294 L 381 288 L 382 285 L 384 284 L 387 288 L 387 292 L 388 293 L 389 299 L 392 300 Z M 377 152 L 381 146 L 387 142 L 390 142 L 395 140 L 407 140 L 408 141 L 412 141 L 418 144 L 420 144 L 427 151 L 429 155 L 429 161 L 427 165 L 421 170 L 413 171 L 412 172 L 405 172 L 404 171 L 390 169 L 384 165 L 377 157 Z M 299 136 L 306 130 L 312 128 L 326 128 L 332 130 L 336 134 L 336 137 L 332 140 L 326 138 L 321 138 L 320 137 L 317 138 L 314 137 L 313 138 L 309 138 L 308 139 L 302 140 Z M 283 121 L 288 122 L 292 128 L 293 136 L 292 137 L 291 143 L 295 143 L 300 141 L 315 142 L 322 146 L 329 154 L 329 161 L 326 167 L 316 176 L 312 178 L 309 178 L 307 180 L 302 180 L 302 181 L 308 183 L 311 183 L 312 184 L 320 185 L 321 186 L 338 186 L 347 182 L 349 182 L 355 178 L 364 167 L 368 167 L 374 174 L 375 187 L 376 188 L 376 203 L 375 204 L 375 210 L 374 211 L 374 216 L 372 220 L 372 223 L 370 229 L 364 240 L 354 250 L 348 254 L 338 256 L 337 257 L 332 257 L 320 253 L 318 251 L 315 250 L 303 238 L 297 230 L 296 227 L 293 224 L 286 211 L 284 201 L 281 198 L 279 198 L 272 193 L 267 188 L 264 182 L 263 174 L 262 174 L 255 181 L 250 183 L 243 182 L 237 176 L 237 171 L 239 165 L 249 156 L 251 156 L 254 154 L 263 154 L 268 158 L 273 158 L 274 159 L 275 158 L 276 149 L 274 147 L 272 142 L 273 133 L 275 128 Z M 364 116 L 371 116 L 375 120 L 379 128 L 379 137 L 377 143 L 372 148 L 369 148 L 368 149 L 366 149 L 363 147 L 358 142 L 357 139 L 357 133 L 356 132 L 357 131 L 358 123 Z M 260 82 L 266 86 L 269 90 L 269 92 L 264 98 L 258 108 L 251 115 L 247 115 L 244 113 L 238 106 L 237 103 L 237 96 L 241 88 L 246 83 L 252 81 Z M 361 78 L 365 74 L 368 73 L 377 74 L 385 80 L 387 83 L 387 88 L 383 92 L 381 92 L 372 87 L 364 85 L 361 82 Z M 433 57 L 442 57 L 446 59 L 452 64 L 456 70 L 457 73 L 457 81 L 456 84 L 450 91 L 448 91 L 446 93 L 441 92 L 427 79 L 425 79 L 421 75 L 421 70 L 423 66 Z" fill="#FBFBFB" fill-rule="evenodd"/><path d="M 360 639 L 359 643 L 356 646 L 351 655 L 342 664 L 333 667 L 331 669 L 326 680 L 323 683 L 329 675 L 330 671 L 334 667 L 342 664 L 351 655 L 355 648 L 358 646 Z M 382 624 L 380 622 L 377 622 L 367 633 L 362 634 L 361 637 L 363 635 L 366 635 L 378 622 Z M 391 611 L 392 613 L 396 615 L 402 615 L 403 614 L 403 612 L 400 608 L 395 608 Z M 204 600 L 201 600 L 197 603 L 194 603 L 192 605 L 187 607 L 181 615 L 181 617 L 179 619 L 179 622 L 178 623 L 178 634 L 180 639 L 178 634 L 178 623 L 182 614 L 190 606 L 194 605 L 196 603 Z M 264 577 L 256 591 L 246 603 L 247 605 L 253 608 L 247 604 L 248 601 L 258 589 L 258 587 L 262 582 L 262 580 Z M 254 566 L 252 570 L 248 574 L 248 576 L 246 578 L 245 581 L 235 593 L 235 595 L 231 599 L 227 599 L 232 599 L 234 597 L 235 594 L 241 587 Z M 287 540 L 282 542 L 278 545 L 283 547 L 285 549 L 285 551 L 281 555 L 278 556 L 283 554 L 285 552 L 285 548 L 280 544 L 282 542 Z M 506 516 L 504 520 L 506 526 L 507 527 L 515 528 L 514 524 L 510 519 Z M 380 488 L 391 493 L 395 498 L 393 499 L 389 496 L 381 496 L 386 496 L 388 498 L 393 499 L 395 501 L 397 500 L 395 495 L 393 493 Z M 227 482 L 227 488 L 229 487 L 230 484 L 233 481 L 236 483 L 236 499 L 246 519 L 247 519 L 246 515 L 249 514 L 255 520 L 262 531 L 265 533 L 267 533 L 266 530 L 266 521 L 268 519 L 269 519 L 277 527 L 279 527 L 284 521 L 287 520 L 299 511 L 309 506 L 311 506 L 321 501 L 323 499 L 325 499 L 331 496 L 327 497 L 325 499 L 323 499 L 321 501 L 315 503 L 311 506 L 308 506 L 306 508 L 303 508 L 294 515 L 290 516 L 286 520 L 283 520 L 278 515 L 278 491 L 279 488 L 277 485 L 272 486 L 271 487 L 271 497 L 270 498 L 271 514 L 269 515 L 267 513 L 265 513 L 262 516 L 261 520 L 259 521 L 257 518 L 257 516 L 253 512 L 250 512 L 244 505 L 242 505 L 239 503 L 238 499 L 236 496 L 236 482 L 235 480 L 233 480 L 229 484 L 228 484 Z M 531 476 L 529 481 L 520 491 L 514 495 L 514 500 L 519 505 L 522 511 L 516 500 L 516 496 L 525 487 L 530 480 Z M 261 474 L 257 476 L 256 478 L 256 482 L 255 483 L 255 489 L 256 490 L 256 493 L 258 496 L 260 495 L 260 492 L 261 491 L 261 481 L 262 480 Z M 346 469 L 338 470 L 335 475 L 335 480 L 336 481 L 339 481 L 342 475 L 346 472 Z M 221 459 L 221 462 L 220 463 L 220 466 L 221 467 L 227 460 L 229 460 L 231 462 L 229 473 L 232 459 L 231 458 L 227 459 L 222 465 L 220 463 L 221 462 Z M 254 450 L 251 453 L 248 460 L 248 466 L 249 467 L 252 465 L 253 459 L 255 457 L 255 451 Z M 382 449 L 379 451 L 380 453 L 383 452 Z M 389 446 L 387 445 L 383 447 L 384 448 L 385 447 L 388 448 Z M 373 438 L 371 439 L 372 440 L 371 441 L 371 446 L 372 447 L 371 456 L 364 464 L 368 469 L 369 469 L 375 463 L 375 460 L 376 459 L 376 449 L 378 446 L 376 443 L 373 441 L 374 440 Z M 253 433 L 251 433 L 248 435 L 242 444 L 240 449 L 241 454 L 244 453 L 247 447 L 251 442 L 251 440 L 253 437 Z M 249 437 L 250 438 L 250 441 L 249 443 L 244 447 L 243 445 L 245 441 Z M 341 423 L 339 425 L 339 428 L 331 433 L 331 435 L 333 438 L 338 434 L 338 431 L 342 426 Z M 383 420 L 383 428 L 387 432 L 388 432 L 392 427 L 395 427 L 397 425 L 397 422 L 395 421 L 395 424 L 393 426 L 388 421 Z M 255 414 L 252 414 L 244 424 L 243 427 L 241 429 L 241 432 L 243 434 L 244 434 L 251 426 L 254 420 L 254 416 Z M 249 421 L 250 424 L 249 426 L 246 428 L 245 426 Z M 274 391 L 273 390 L 268 390 L 266 391 L 262 397 L 263 398 L 268 398 L 272 395 Z M 314 383 L 312 383 L 309 385 L 305 390 L 308 390 L 311 388 L 313 388 L 314 387 Z M 358 377 L 350 385 L 350 390 L 356 396 L 358 401 L 362 405 L 364 405 L 365 399 L 364 398 L 363 392 L 361 389 L 362 387 L 366 384 L 364 379 L 362 377 Z M 329 371 L 328 373 L 330 376 L 332 375 L 331 372 Z M 345 367 L 342 367 L 340 369 L 336 377 L 336 384 L 337 385 L 339 383 L 339 381 L 341 379 L 342 376 L 346 372 L 346 368 Z M 303 368 L 302 367 L 299 367 L 292 374 L 289 375 L 282 382 L 282 384 L 283 385 L 287 384 L 287 383 L 297 375 Z M 496 368 L 499 376 L 497 371 L 497 368 L 499 366 L 501 366 L 504 364 L 508 367 L 518 371 L 520 373 L 526 374 L 529 377 L 534 377 L 529 376 L 527 374 L 521 373 L 516 370 L 514 370 L 512 368 L 510 368 L 504 364 L 502 364 Z M 283 360 L 290 360 L 291 359 L 294 359 L 295 356 L 294 355 L 288 355 L 282 358 Z M 326 352 L 322 352 L 317 354 L 315 356 L 314 360 L 315 361 L 322 360 L 326 356 Z M 259 349 L 251 350 L 244 355 L 242 353 L 244 348 L 241 355 L 242 357 L 246 356 L 254 350 L 257 350 L 259 353 L 253 361 L 249 364 L 246 368 L 238 373 L 237 376 L 230 383 L 228 387 L 229 388 L 233 387 L 235 389 L 235 392 L 221 409 L 222 411 L 224 410 L 229 410 L 230 411 L 230 414 L 217 437 L 218 439 L 221 438 L 223 436 L 225 436 L 227 438 L 226 445 L 223 450 L 222 457 L 223 450 L 226 445 L 227 437 L 225 435 L 222 437 L 219 437 L 218 435 L 220 433 L 220 431 L 226 423 L 226 421 L 230 415 L 230 411 L 228 409 L 225 409 L 223 407 L 235 392 L 235 388 L 232 387 L 230 385 L 236 377 L 241 372 L 246 369 L 258 357 L 260 353 L 260 350 Z M 292 334 L 286 334 L 282 338 L 280 343 L 280 345 L 282 347 L 291 338 Z M 599 380 L 599 381 L 595 384 L 595 386 L 593 388 L 590 388 L 592 389 L 589 391 L 586 391 L 585 389 L 582 387 L 578 388 L 575 385 L 572 384 L 571 385 L 570 384 L 569 385 L 566 385 L 563 388 L 563 392 L 564 394 L 562 396 L 561 395 L 558 395 L 552 390 L 550 385 L 550 374 L 549 373 L 550 370 L 549 369 L 549 366 L 547 366 L 543 362 L 537 363 L 522 349 L 516 346 L 508 345 L 505 341 L 499 338 L 493 338 L 487 336 L 464 335 L 463 334 L 455 333 L 451 330 L 446 330 L 445 331 L 446 334 L 447 334 L 454 341 L 454 343 L 452 345 L 449 344 L 444 345 L 443 348 L 444 350 L 444 359 L 448 365 L 449 370 L 445 372 L 443 376 L 456 387 L 456 389 L 459 393 L 463 390 L 466 391 L 463 394 L 463 398 L 464 398 L 464 396 L 466 395 L 467 396 L 467 401 L 466 402 L 463 401 L 460 403 L 457 403 L 456 406 L 462 413 L 464 419 L 473 428 L 471 431 L 469 431 L 461 425 L 459 425 L 457 427 L 457 431 L 460 435 L 458 437 L 456 437 L 453 441 L 450 439 L 450 437 L 447 434 L 450 430 L 450 427 L 446 419 L 448 417 L 449 418 L 452 417 L 452 411 L 449 406 L 450 404 L 449 398 L 448 397 L 449 394 L 441 386 L 436 386 L 434 389 L 430 389 L 427 385 L 422 381 L 409 382 L 408 385 L 411 387 L 418 388 L 421 392 L 421 398 L 419 400 L 412 395 L 407 395 L 406 394 L 392 394 L 386 391 L 382 391 L 377 397 L 378 398 L 378 401 L 383 405 L 387 402 L 395 402 L 400 405 L 407 405 L 410 404 L 415 408 L 416 411 L 409 417 L 408 420 L 417 426 L 420 426 L 426 428 L 433 435 L 435 440 L 433 444 L 433 447 L 428 452 L 426 452 L 421 448 L 419 448 L 417 446 L 410 443 L 406 444 L 406 446 L 413 449 L 419 455 L 420 460 L 424 464 L 432 466 L 435 468 L 440 468 L 442 467 L 448 471 L 451 475 L 457 476 L 460 472 L 463 474 L 464 477 L 464 481 L 463 482 L 464 485 L 463 493 L 459 498 L 456 500 L 454 500 L 450 504 L 450 509 L 447 512 L 444 510 L 442 512 L 439 511 L 434 513 L 432 518 L 430 520 L 430 523 L 427 527 L 427 529 L 425 531 L 424 536 L 422 539 L 419 541 L 416 541 L 413 544 L 409 544 L 406 550 L 400 555 L 397 555 L 391 561 L 390 564 L 387 567 L 385 567 L 381 573 L 377 576 L 377 578 L 374 581 L 370 583 L 369 585 L 364 589 L 361 595 L 356 600 L 352 602 L 351 604 L 342 612 L 339 613 L 337 615 L 331 616 L 332 619 L 330 621 L 329 626 L 327 628 L 326 631 L 318 639 L 315 639 L 312 642 L 311 645 L 299 656 L 293 665 L 290 666 L 285 670 L 278 671 L 267 666 L 257 657 L 245 650 L 239 644 L 238 642 L 238 636 L 234 633 L 222 633 L 216 628 L 216 620 L 214 618 L 211 619 L 203 619 L 201 617 L 201 615 L 203 613 L 206 612 L 209 613 L 211 611 L 216 611 L 217 610 L 222 610 L 223 611 L 228 611 L 229 612 L 236 613 L 229 612 L 228 611 L 223 611 L 222 610 L 215 610 L 214 611 L 209 611 L 201 614 L 197 619 L 201 621 L 206 621 L 207 620 L 214 619 L 215 620 L 215 626 L 213 629 L 213 635 L 215 638 L 220 637 L 226 633 L 234 633 L 237 637 L 237 644 L 235 647 L 238 651 L 243 651 L 250 654 L 252 656 L 255 657 L 262 664 L 276 671 L 284 671 L 294 666 L 308 651 L 311 650 L 316 645 L 321 642 L 321 641 L 328 634 L 329 630 L 352 606 L 359 601 L 372 587 L 382 579 L 400 561 L 404 559 L 411 552 L 412 552 L 416 547 L 418 547 L 425 538 L 426 533 L 430 525 L 432 523 L 432 521 L 435 518 L 437 520 L 437 524 L 438 525 L 440 524 L 442 519 L 444 520 L 444 523 L 447 522 L 448 517 L 454 510 L 455 506 L 463 498 L 465 494 L 467 478 L 475 471 L 475 463 L 473 460 L 479 456 L 479 450 L 478 448 L 473 444 L 469 443 L 466 440 L 461 431 L 463 429 L 465 431 L 468 432 L 474 438 L 478 438 L 478 431 L 476 429 L 475 426 L 467 417 L 467 414 L 466 413 L 466 410 L 469 408 L 471 408 L 472 405 L 470 395 L 469 394 L 468 385 L 466 381 L 466 378 L 463 375 L 459 375 L 457 374 L 452 368 L 452 366 L 450 364 L 450 361 L 445 354 L 443 349 L 446 345 L 448 346 L 459 346 L 460 345 L 457 340 L 451 337 L 447 333 L 448 331 L 452 331 L 457 334 L 466 335 L 467 336 L 487 337 L 491 341 L 492 344 L 499 345 L 503 348 L 509 350 L 514 355 L 516 349 L 520 349 L 522 350 L 530 358 L 530 359 L 535 363 L 541 366 L 546 367 L 549 370 L 549 373 L 550 374 L 550 387 L 552 391 L 556 395 L 565 399 L 566 396 L 564 394 L 564 389 L 568 385 L 570 385 L 576 391 L 587 398 L 596 398 L 598 397 L 601 393 L 600 391 L 600 386 L 599 385 Z M 454 460 L 457 463 L 457 466 L 456 467 L 454 467 L 452 465 L 452 462 Z M 432 456 L 434 454 L 437 454 L 438 455 L 442 454 L 446 459 L 446 462 L 442 465 L 437 462 Z M 422 455 L 424 454 L 428 456 L 435 463 L 434 464 L 427 463 L 423 459 Z M 415 420 L 417 418 L 420 420 L 431 423 L 435 425 L 440 430 L 440 432 L 438 434 L 435 434 L 430 429 L 424 425 L 422 425 Z M 442 409 L 445 407 L 447 410 L 444 411 Z M 434 397 L 439 398 L 442 401 L 440 404 L 435 404 L 434 405 L 438 409 L 436 412 L 436 416 L 441 422 L 439 424 L 427 420 L 424 418 L 421 414 L 421 410 L 424 406 L 426 406 L 428 404 L 431 403 L 433 401 L 433 398 Z M 406 398 L 407 397 L 411 397 L 412 399 L 411 400 L 407 400 Z M 341 335 L 340 337 L 340 342 L 342 345 L 344 345 L 345 344 L 345 340 L 351 336 L 355 340 L 359 340 L 367 345 L 373 347 L 377 347 L 378 346 L 383 347 L 384 349 L 391 355 L 393 358 L 393 360 L 396 363 L 398 369 L 398 373 L 399 374 L 401 374 L 406 370 L 412 375 L 417 376 L 415 373 L 415 370 L 412 367 L 412 365 L 417 361 L 420 357 L 422 358 L 426 358 L 427 357 L 427 351 L 420 340 L 403 327 L 401 327 L 401 331 L 413 344 L 416 349 L 415 352 L 410 352 L 409 353 L 406 353 L 403 355 L 400 354 L 392 346 L 392 345 L 390 344 L 386 338 L 379 337 L 376 339 L 375 341 L 372 341 L 356 327 L 351 327 L 346 333 Z M 381 341 L 384 340 L 387 342 L 401 357 L 405 357 L 410 355 L 412 357 L 405 365 L 401 367 L 398 364 L 394 356 L 386 346 L 381 342 Z M 406 331 L 411 334 L 421 344 L 425 350 L 425 353 L 423 355 L 417 349 L 412 341 L 404 333 Z M 367 322 L 366 323 L 366 327 L 371 332 L 374 332 L 375 331 L 375 325 L 373 323 Z M 329 322 L 328 321 L 324 321 L 320 325 L 317 326 L 315 324 L 315 321 L 311 321 L 308 325 L 308 327 L 306 330 L 300 336 L 301 337 L 305 337 L 306 336 L 310 336 L 315 333 L 319 333 L 326 328 L 329 324 Z M 346 308 L 343 311 L 340 312 L 341 316 L 346 321 L 351 322 L 353 320 L 352 314 L 351 313 L 352 310 L 349 308 Z M 418 304 L 417 306 L 425 315 L 425 320 L 422 324 L 416 323 L 410 320 L 409 321 L 409 324 L 422 337 L 424 338 L 430 338 L 433 333 L 433 329 L 434 328 L 433 318 L 428 310 L 422 305 L 419 305 Z M 426 311 L 430 315 L 433 323 L 432 332 L 431 334 L 427 337 L 422 336 L 412 326 L 414 323 L 419 325 L 421 327 L 424 327 L 426 325 L 427 322 L 426 320 L 426 314 L 425 313 Z M 407 302 L 406 308 L 410 310 L 411 309 L 411 304 L 409 302 Z M 206 302 L 215 303 L 218 300 L 215 298 L 207 297 L 208 300 L 206 301 Z M 204 278 L 200 281 L 202 281 L 205 285 L 206 282 L 205 281 L 205 278 Z M 555 273 L 563 274 L 565 276 L 564 282 L 566 284 L 579 288 L 582 290 L 585 290 L 588 294 L 589 301 L 597 307 L 599 307 L 605 311 L 608 322 L 615 329 L 621 337 L 621 339 L 625 346 L 625 348 L 627 350 L 627 352 L 630 355 L 630 358 L 628 360 L 626 360 L 623 357 L 621 357 L 614 365 L 613 367 L 614 371 L 611 377 L 609 377 L 603 374 L 601 374 L 599 376 L 599 377 L 601 375 L 603 375 L 607 377 L 613 383 L 614 386 L 617 386 L 621 382 L 621 373 L 619 370 L 618 360 L 621 357 L 629 363 L 630 363 L 631 360 L 630 354 L 627 350 L 622 338 L 618 332 L 609 323 L 607 319 L 608 313 L 605 310 L 593 304 L 589 300 L 589 298 L 592 295 L 590 292 L 578 287 L 568 285 L 565 282 L 565 280 L 569 277 L 570 275 L 568 274 L 563 274 L 562 273 Z M 392 302 L 392 301 L 390 301 L 388 299 L 387 293 L 386 292 L 386 288 L 384 285 L 383 285 L 382 288 L 383 291 L 383 294 L 382 295 L 380 295 L 376 292 L 374 293 L 372 291 L 377 287 L 393 270 L 393 265 L 392 264 L 388 264 L 371 270 L 367 270 L 366 271 L 362 271 L 356 273 L 349 273 L 348 274 L 332 274 L 331 273 L 326 273 L 321 271 L 315 271 L 313 273 L 313 278 L 321 286 L 336 296 L 342 298 L 346 301 L 352 302 L 361 299 L 363 303 L 365 303 L 367 305 L 371 305 L 372 306 L 375 305 L 380 307 L 382 307 L 384 305 L 388 306 L 389 303 Z M 392 266 L 391 271 L 376 286 L 371 289 L 364 296 L 358 297 L 356 299 L 353 300 L 347 300 L 344 298 L 340 297 L 338 295 L 336 295 L 321 285 L 313 277 L 313 274 L 315 272 L 323 272 L 329 274 L 353 274 L 354 273 L 359 273 L 360 272 L 364 272 L 365 271 L 376 269 L 380 267 L 383 267 L 386 265 L 391 265 Z M 493 256 L 500 256 L 505 254 L 516 253 L 517 254 L 515 258 L 515 261 L 516 262 L 532 262 L 533 261 L 538 261 L 539 263 L 537 265 L 537 268 L 539 270 L 545 271 L 546 272 L 553 272 L 547 272 L 546 271 L 542 271 L 538 268 L 538 266 L 540 264 L 543 263 L 542 261 L 517 262 L 515 260 L 515 258 L 518 255 L 517 253 L 508 253 L 507 254 L 503 254 L 498 256 Z M 481 249 L 484 249 L 485 250 L 485 252 L 483 255 L 484 257 L 486 258 L 491 257 L 486 257 L 484 255 L 486 249 Z M 480 235 L 481 237 L 492 237 L 495 238 L 501 243 L 504 243 L 505 242 L 521 242 L 525 244 L 530 249 L 546 249 L 553 252 L 556 256 L 553 252 L 546 249 L 530 249 L 522 242 L 501 242 L 499 240 L 492 237 L 484 237 L 481 235 L 481 233 L 486 227 L 481 232 Z M 374 180 L 374 208 L 373 209 L 372 219 L 369 228 L 366 233 L 366 235 L 362 241 L 354 248 L 348 252 L 340 255 L 330 255 L 321 252 L 316 249 L 302 235 L 297 228 L 300 233 L 315 249 L 328 255 L 337 256 L 338 255 L 348 253 L 354 249 L 365 237 L 371 223 L 371 220 L 373 216 L 373 211 L 374 210 L 374 204 L 375 203 L 375 188 L 374 187 Z M 238 154 L 238 157 L 226 170 L 227 172 L 233 171 L 235 173 L 235 175 L 230 185 L 233 180 L 235 173 L 233 171 L 231 171 L 229 169 L 229 167 L 238 158 Z M 238 171 L 238 176 L 243 181 L 246 181 L 247 182 L 253 181 L 262 173 L 264 174 L 264 178 L 264 170 L 263 170 L 263 171 L 252 181 L 244 181 L 238 174 L 239 168 L 248 158 L 256 155 L 261 155 L 267 160 L 272 159 L 275 162 L 274 180 L 281 188 L 284 189 L 292 189 L 302 183 L 305 183 L 310 185 L 314 185 L 315 186 L 319 186 L 320 187 L 330 187 L 331 188 L 333 187 L 338 187 L 343 185 L 338 187 L 321 187 L 316 185 L 312 185 L 311 184 L 304 183 L 301 181 L 302 179 L 307 179 L 309 177 L 312 177 L 319 173 L 325 167 L 328 161 L 328 154 L 328 161 L 326 165 L 318 173 L 315 174 L 313 176 L 307 178 L 304 178 L 303 179 L 296 179 L 287 176 L 284 174 L 277 166 L 276 163 L 276 154 L 279 150 L 275 147 L 274 144 L 275 147 L 277 149 L 276 158 L 274 160 L 273 159 L 268 159 L 263 155 L 254 155 L 251 157 L 247 158 L 240 165 Z M 275 168 L 277 167 L 280 171 L 285 175 L 291 178 L 296 179 L 300 182 L 295 187 L 291 189 L 284 189 L 275 182 L 274 179 L 274 170 Z M 378 152 L 378 157 L 384 164 L 390 168 L 394 168 L 395 169 L 399 169 L 405 171 L 412 171 L 413 170 L 421 169 L 426 165 L 428 161 L 428 155 L 426 151 L 420 145 L 418 145 L 412 142 L 408 142 L 407 141 L 395 141 L 394 142 L 387 143 L 383 145 Z M 378 154 L 381 148 L 384 145 L 391 142 L 397 142 L 398 141 L 411 142 L 421 146 L 425 150 L 428 155 L 428 161 L 423 167 L 419 169 L 416 169 L 415 170 L 400 170 L 399 169 L 396 169 L 390 167 L 385 164 L 379 158 Z M 289 143 L 289 145 L 295 144 L 296 143 L 312 143 L 323 148 L 327 152 L 322 147 L 315 143 L 300 142 L 295 144 L 291 144 L 290 143 L 291 138 L 291 140 Z M 300 136 L 302 139 L 308 138 L 309 137 L 313 137 L 314 136 L 316 137 L 320 136 L 321 137 L 326 137 L 332 139 L 335 137 L 335 134 L 332 131 L 326 129 L 312 129 L 306 131 Z M 302 136 L 302 135 L 306 132 L 312 130 L 317 130 L 318 129 L 320 130 L 327 130 L 330 131 L 335 135 L 333 137 L 326 137 L 325 136 L 314 135 L 313 136 L 309 136 L 304 138 Z M 94 124 L 91 128 L 91 131 L 94 128 L 97 127 L 101 128 L 106 133 L 112 142 L 114 147 L 114 152 L 113 154 L 107 159 L 104 159 L 99 157 L 96 160 L 82 147 L 76 146 L 71 150 L 70 152 L 70 157 L 72 156 L 72 154 L 76 150 L 79 150 L 84 153 L 94 163 L 96 168 L 94 174 L 90 177 L 85 177 L 79 174 L 76 177 L 69 177 L 65 180 L 64 182 L 65 189 L 67 191 L 71 199 L 84 212 L 90 217 L 97 221 L 103 227 L 111 248 L 113 250 L 120 263 L 126 270 L 126 268 L 117 254 L 118 252 L 119 252 L 140 274 L 158 289 L 160 289 L 165 293 L 167 293 L 179 299 L 188 302 L 192 302 L 195 306 L 193 308 L 189 309 L 187 311 L 188 313 L 203 313 L 208 318 L 214 320 L 220 320 L 221 321 L 225 320 L 227 323 L 224 326 L 219 328 L 217 330 L 219 332 L 223 332 L 228 334 L 234 334 L 235 335 L 239 333 L 243 324 L 247 320 L 250 319 L 252 321 L 252 324 L 246 336 L 246 344 L 245 346 L 246 345 L 247 333 L 249 331 L 249 329 L 253 323 L 253 321 L 250 317 L 254 314 L 258 309 L 258 307 L 255 305 L 255 303 L 260 298 L 263 297 L 266 294 L 263 289 L 267 285 L 267 281 L 277 269 L 281 269 L 287 273 L 294 275 L 295 274 L 295 271 L 293 267 L 284 259 L 279 257 L 274 253 L 270 252 L 254 238 L 253 233 L 251 230 L 247 230 L 244 232 L 242 230 L 241 227 L 241 217 L 242 216 L 242 212 L 240 210 L 237 210 L 235 212 L 232 210 L 234 213 L 237 211 L 240 211 L 242 214 L 241 217 L 241 228 L 243 231 L 243 233 L 246 234 L 249 230 L 252 232 L 253 238 L 265 248 L 275 262 L 276 270 L 273 274 L 271 275 L 268 274 L 265 271 L 260 260 L 253 252 L 252 253 L 252 257 L 249 259 L 245 255 L 241 247 L 238 244 L 233 248 L 231 246 L 228 239 L 229 243 L 233 248 L 235 248 L 239 245 L 249 260 L 252 258 L 252 255 L 254 254 L 261 262 L 263 266 L 263 269 L 267 274 L 267 275 L 259 283 L 258 290 L 252 297 L 250 301 L 250 304 L 247 307 L 248 310 L 245 316 L 244 323 L 242 325 L 241 329 L 237 333 L 228 333 L 227 332 L 224 332 L 222 331 L 221 329 L 226 325 L 228 325 L 231 322 L 230 320 L 217 320 L 216 319 L 210 318 L 204 312 L 201 312 L 200 313 L 193 313 L 191 312 L 190 310 L 196 307 L 196 304 L 188 300 L 178 298 L 176 296 L 174 296 L 166 292 L 149 280 L 143 274 L 142 274 L 122 253 L 118 246 L 117 246 L 112 239 L 107 235 L 107 233 L 103 226 L 99 222 L 92 218 L 86 212 L 85 212 L 70 196 L 72 194 L 76 198 L 82 201 L 84 201 L 88 197 L 91 200 L 91 203 L 95 208 L 102 213 L 108 213 L 110 214 L 111 213 L 118 212 L 138 202 L 147 194 L 151 185 L 151 179 L 146 169 L 134 159 L 127 158 L 126 157 L 124 158 L 119 158 L 111 162 L 100 172 L 91 190 L 89 189 L 88 186 L 84 182 L 81 181 L 77 177 L 79 175 L 81 175 L 84 177 L 91 177 L 93 176 L 96 172 L 96 166 L 94 162 L 97 161 L 99 159 L 108 159 L 110 158 L 113 155 L 114 151 L 116 148 L 118 150 L 121 151 L 124 150 L 128 153 L 136 153 L 139 150 L 140 142 L 141 141 L 143 142 L 143 146 L 147 150 L 146 152 L 146 159 L 147 152 L 152 144 L 157 139 L 160 139 L 166 146 L 166 155 L 165 156 L 165 159 L 158 167 L 155 168 L 151 167 L 147 161 L 147 163 L 153 168 L 156 168 L 160 166 L 163 163 L 166 163 L 167 164 L 167 169 L 164 178 L 167 183 L 171 186 L 181 200 L 194 215 L 200 214 L 203 217 L 204 220 L 206 222 L 206 224 L 208 226 L 209 230 L 217 238 L 219 235 L 216 237 L 212 233 L 200 212 L 196 215 L 194 215 L 190 211 L 188 207 L 173 188 L 165 180 L 164 177 L 168 166 L 169 147 L 167 141 L 162 136 L 157 136 L 148 147 L 145 147 L 143 145 L 141 135 L 137 125 L 132 120 L 129 119 L 125 121 L 126 122 L 131 123 L 136 128 L 139 134 L 139 138 L 140 139 L 140 146 L 139 149 L 135 153 L 129 153 L 124 149 L 121 149 L 120 150 L 116 146 L 116 144 L 110 132 L 104 126 L 98 123 Z M 255 307 L 257 310 L 251 316 L 247 317 L 246 315 L 249 310 L 251 308 Z M 262 292 L 263 295 L 254 301 L 253 300 L 254 297 L 258 293 Z M 273 258 L 276 256 L 285 261 L 291 266 L 293 269 L 293 272 L 290 273 L 286 270 L 281 268 L 274 261 Z M 71 180 L 73 179 L 80 180 L 88 187 L 89 189 L 89 194 L 84 200 L 81 200 L 77 198 L 69 190 L 68 188 L 68 183 Z M 67 178 L 69 180 L 69 182 L 68 183 L 68 188 L 66 189 L 65 188 L 65 184 L 64 182 Z M 137 161 L 148 172 L 151 180 L 150 188 L 147 193 L 137 202 L 120 211 L 114 213 L 104 213 L 98 210 L 91 201 L 91 191 L 100 173 L 109 164 L 120 158 L 130 158 Z M 87 154 L 89 153 L 94 158 L 92 160 Z M 458 109 L 470 130 L 470 132 L 468 134 L 468 137 L 475 143 L 479 145 L 479 147 L 473 151 L 473 155 L 481 163 L 485 169 L 485 171 L 484 172 L 479 172 L 478 173 L 478 177 L 474 181 L 471 180 L 470 181 L 466 181 L 464 182 L 458 180 L 456 182 L 462 190 L 461 192 L 458 192 L 457 193 L 457 197 L 462 203 L 461 204 L 454 203 L 451 207 L 452 208 L 452 213 L 451 214 L 442 213 L 442 215 L 444 217 L 444 220 L 446 223 L 445 224 L 442 223 L 440 226 L 437 228 L 439 231 L 438 234 L 433 234 L 432 235 L 432 237 L 435 240 L 435 244 L 433 247 L 430 244 L 426 244 L 426 247 L 424 249 L 419 250 L 416 252 L 415 255 L 409 261 L 407 261 L 402 266 L 402 268 L 399 274 L 399 278 L 400 279 L 404 277 L 406 272 L 409 269 L 411 271 L 410 274 L 411 275 L 414 275 L 422 268 L 425 269 L 432 269 L 443 262 L 449 261 L 452 259 L 454 259 L 458 256 L 462 255 L 458 256 L 451 260 L 444 261 L 431 269 L 427 269 L 425 267 L 426 263 L 433 255 L 437 248 L 443 249 L 448 244 L 452 236 L 456 231 L 458 231 L 461 236 L 464 236 L 469 226 L 469 218 L 472 214 L 476 217 L 478 215 L 478 202 L 476 196 L 478 194 L 481 194 L 483 196 L 485 196 L 485 192 L 482 186 L 482 184 L 479 180 L 478 174 L 480 172 L 483 172 L 485 174 L 487 174 L 488 172 L 480 161 L 473 154 L 473 152 L 475 150 L 483 150 L 484 149 L 479 144 L 473 141 L 468 136 L 472 131 L 467 125 L 460 111 Z M 423 260 L 424 261 L 423 265 L 415 273 L 413 272 L 413 266 L 417 261 L 420 262 Z M 422 251 L 424 254 L 423 256 L 421 257 L 420 256 L 421 255 L 420 253 Z M 446 217 L 448 215 L 452 217 L 455 220 L 455 222 L 452 223 Z M 457 207 L 461 210 L 461 213 L 459 214 L 456 210 Z M 461 185 L 463 184 L 465 187 L 463 188 Z M 264 85 L 257 82 L 252 82 L 246 84 L 242 88 L 238 96 L 238 103 L 239 106 L 244 112 L 247 114 L 251 114 L 257 108 L 263 98 L 268 92 L 268 90 Z M 259 83 L 266 89 L 266 93 L 259 102 L 257 107 L 250 114 L 249 114 L 241 108 L 238 101 L 239 99 L 239 95 L 242 89 L 246 85 L 250 83 Z M 468 80 L 468 82 L 464 87 L 463 90 L 455 96 L 453 96 L 450 99 L 450 101 L 457 107 L 453 103 L 452 99 L 455 96 L 458 95 L 465 88 L 468 82 Z M 433 58 L 424 66 L 422 70 L 422 75 L 425 78 L 427 78 L 441 91 L 446 92 L 448 90 L 450 90 L 455 84 L 456 81 L 456 73 L 455 70 L 451 64 L 446 60 L 442 58 Z M 433 59 L 437 59 L 439 58 L 446 61 L 453 68 L 455 72 L 455 82 L 454 84 L 446 91 L 441 90 L 433 82 L 426 78 L 422 74 L 422 71 L 425 66 Z M 468 66 L 468 69 L 468 66 L 465 60 L 456 50 L 449 46 L 443 45 L 442 44 L 431 44 L 423 47 L 414 54 L 410 61 L 410 63 L 407 66 L 404 66 L 395 62 L 392 62 L 387 60 L 380 60 L 379 59 L 366 59 L 360 61 L 358 59 L 358 56 L 360 52 L 359 51 L 354 52 L 347 59 L 343 59 L 338 55 L 336 55 L 331 52 L 328 52 L 327 54 L 329 57 L 329 61 L 327 63 L 313 63 L 312 64 L 309 64 L 308 67 L 306 69 L 296 72 L 280 82 L 278 82 L 271 73 L 268 71 L 266 71 L 264 69 L 261 69 L 260 68 L 251 68 L 239 73 L 230 82 L 228 87 L 229 84 L 233 79 L 245 70 L 249 70 L 250 69 L 262 69 L 272 74 L 277 82 L 281 85 L 281 87 L 276 95 L 276 100 L 278 102 L 283 101 L 286 98 L 292 95 L 297 91 L 297 86 L 292 83 L 287 83 L 285 81 L 293 74 L 295 74 L 297 72 L 299 72 L 302 70 L 305 70 L 310 64 L 328 63 L 329 62 L 329 57 L 328 56 L 328 53 L 329 52 L 338 55 L 345 60 L 348 59 L 351 55 L 356 53 L 358 55 L 357 57 L 357 60 L 358 61 L 363 62 L 366 60 L 373 60 L 375 59 L 376 60 L 390 61 L 404 66 L 408 66 L 410 64 L 410 62 L 413 57 L 421 49 L 431 45 L 438 44 L 439 45 L 445 45 L 452 48 L 465 60 Z M 294 84 L 297 87 L 297 91 L 295 93 L 287 97 L 284 100 L 279 102 L 276 99 L 276 95 L 278 91 L 283 86 L 287 84 Z M 337 42 L 343 45 L 345 45 L 354 39 L 357 38 L 364 38 L 369 42 L 372 48 L 384 48 L 372 47 L 370 45 L 369 42 L 364 38 L 357 38 L 348 42 L 346 44 L 341 44 Z" fill="#E8E8E8" fill-rule="evenodd"/><path d="M 506 509 L 504 510 L 503 515 L 495 531 L 487 542 L 480 549 L 466 560 L 455 565 L 453 567 L 451 567 L 439 574 L 437 574 L 428 580 L 412 588 L 396 605 L 391 607 L 386 612 L 386 614 L 390 614 L 395 617 L 401 619 L 415 619 L 418 620 L 425 616 L 434 615 L 442 612 L 445 612 L 455 607 L 460 606 L 465 603 L 471 601 L 480 595 L 493 581 L 496 582 L 495 597 L 499 601 L 510 606 L 517 606 L 518 605 L 516 603 L 515 600 L 518 597 L 521 597 L 522 598 L 527 598 L 529 597 L 531 594 L 531 592 L 530 591 L 523 590 L 520 587 L 520 584 L 522 582 L 531 582 L 533 580 L 533 575 L 530 566 L 530 562 L 528 558 L 526 547 L 522 538 L 521 533 L 516 523 L 511 517 Z M 390 611 L 395 607 L 400 607 L 404 612 L 404 614 L 402 616 L 396 616 L 392 614 Z M 506 515 L 507 515 L 515 524 L 516 526 L 515 529 L 507 528 L 505 526 L 503 520 L 504 517 Z M 454 461 L 453 462 L 453 465 L 456 466 L 456 463 Z M 423 455 L 424 459 L 427 462 L 434 463 L 428 457 Z M 516 440 L 514 444 L 514 449 L 515 450 L 515 457 L 516 458 L 516 479 L 517 479 L 522 466 L 522 451 L 518 442 Z M 249 438 L 246 441 L 244 446 L 248 443 Z M 416 420 L 430 428 L 435 433 L 438 433 L 439 432 L 439 430 L 435 426 L 426 422 L 420 421 L 417 419 Z M 382 341 L 382 342 L 387 346 L 395 356 L 396 359 L 401 366 L 405 364 L 411 357 L 410 356 L 405 358 L 401 358 L 387 343 L 384 341 Z M 406 332 L 405 333 L 413 341 L 418 349 L 423 354 L 424 353 L 424 350 L 420 344 L 411 335 Z M 426 312 L 427 314 L 427 320 L 428 321 L 427 325 L 424 328 L 421 328 L 415 324 L 413 325 L 413 326 L 422 335 L 427 336 L 430 334 L 432 328 L 431 319 L 429 315 Z M 256 309 L 255 308 L 251 309 L 247 316 L 251 315 Z M 262 293 L 258 294 L 255 297 L 254 300 L 261 296 Z M 391 266 L 386 266 L 383 268 L 380 268 L 376 270 L 373 270 L 364 273 L 360 273 L 359 274 L 354 274 L 353 275 L 329 275 L 323 273 L 315 273 L 314 274 L 314 277 L 321 284 L 336 294 L 338 294 L 340 296 L 344 297 L 347 299 L 353 299 L 356 298 L 358 296 L 364 295 L 371 288 L 376 285 L 390 271 Z M 423 261 L 420 263 L 417 262 L 414 266 L 414 272 L 415 272 L 422 265 Z M 447 217 L 452 222 L 454 222 L 454 220 L 452 218 L 448 216 Z M 71 181 L 69 183 L 69 188 L 70 190 L 77 197 L 81 199 L 84 199 L 88 194 L 88 189 L 87 187 L 80 181 L 77 181 L 76 180 Z M 137 162 L 130 159 L 120 159 L 109 165 L 101 173 L 92 191 L 92 201 L 98 209 L 104 212 L 114 212 L 132 204 L 141 198 L 146 193 L 149 188 L 150 180 L 147 172 Z M 240 168 L 239 174 L 244 180 L 252 180 L 255 178 L 263 169 L 265 170 L 265 179 L 269 188 L 273 192 L 279 196 L 283 197 L 286 200 L 286 204 L 287 205 L 288 211 L 295 224 L 303 235 L 319 250 L 330 254 L 340 254 L 348 251 L 358 244 L 365 235 L 365 233 L 368 228 L 371 219 L 372 209 L 373 208 L 373 179 L 371 173 L 367 169 L 364 169 L 362 173 L 354 181 L 338 188 L 333 188 L 332 189 L 330 188 L 320 188 L 319 187 L 315 187 L 314 186 L 310 186 L 309 185 L 302 184 L 292 190 L 284 190 L 281 189 L 273 180 L 274 162 L 272 160 L 267 161 L 261 156 L 256 156 L 248 159 Z M 268 163 L 270 161 L 273 163 L 272 178 L 275 185 L 278 188 L 284 191 L 292 191 L 295 190 L 302 185 L 305 185 L 310 187 L 314 187 L 315 188 L 320 188 L 321 189 L 337 189 L 338 188 L 341 188 L 347 186 L 356 181 L 362 175 L 363 172 L 365 170 L 367 170 L 370 173 L 372 179 L 372 192 L 373 193 L 373 198 L 372 199 L 372 208 L 371 209 L 371 214 L 370 215 L 369 222 L 365 231 L 365 233 L 362 238 L 358 242 L 356 240 L 361 231 L 362 226 L 364 223 L 364 216 L 363 214 L 355 207 L 352 206 L 340 206 L 328 212 L 317 222 L 314 229 L 314 233 L 315 236 L 322 244 L 324 248 L 322 250 L 315 246 L 300 230 L 293 219 L 287 205 L 287 199 L 285 197 L 281 196 L 276 193 L 268 185 L 266 180 L 266 169 Z M 379 154 L 380 158 L 385 163 L 390 166 L 396 168 L 399 168 L 400 169 L 415 169 L 416 168 L 419 168 L 423 166 L 427 161 L 427 155 L 424 150 L 421 147 L 411 143 L 398 142 L 397 143 L 391 143 L 388 144 L 382 148 Z M 160 140 L 157 140 L 153 144 L 147 155 L 147 160 L 151 166 L 154 167 L 158 166 L 164 159 L 164 156 L 165 155 L 165 146 Z M 303 136 L 304 137 L 305 136 L 313 135 L 314 134 L 319 134 L 320 135 L 325 135 L 326 136 L 333 136 L 334 135 L 327 131 L 320 131 L 318 130 L 317 131 L 312 131 L 304 134 Z M 282 123 L 277 128 L 274 137 L 274 143 L 276 147 L 280 150 L 277 154 L 277 163 L 280 169 L 287 175 L 296 178 L 307 177 L 313 175 L 315 173 L 318 172 L 325 165 L 327 161 L 327 153 L 323 149 L 312 144 L 296 144 L 295 145 L 289 146 L 288 143 L 291 137 L 291 130 L 288 124 L 286 123 Z M 327 155 L 326 162 L 319 170 L 310 175 L 304 176 L 303 177 L 295 177 L 289 175 L 280 167 L 277 161 L 278 154 L 282 150 L 291 146 L 300 145 L 301 144 L 307 144 L 308 145 L 315 146 L 321 149 Z M 286 124 L 290 128 L 290 138 L 288 142 L 283 147 L 279 148 L 275 144 L 275 135 L 278 128 L 282 124 Z M 366 117 L 361 121 L 359 125 L 358 136 L 360 142 L 364 146 L 372 146 L 376 141 L 376 138 L 377 137 L 377 128 L 374 121 L 371 118 Z M 366 118 L 369 118 L 374 122 L 377 130 L 376 139 L 370 146 L 366 146 L 364 145 L 361 142 L 359 138 L 359 127 L 362 121 Z M 296 87 L 294 85 L 287 85 L 283 87 L 279 91 L 277 95 L 277 99 L 279 101 L 284 99 L 290 94 L 296 91 Z M 296 88 L 293 92 L 288 94 L 282 99 L 279 100 L 277 98 L 278 94 L 287 86 L 292 85 Z M 259 84 L 250 84 L 246 86 L 243 89 L 240 95 L 240 99 L 239 100 L 240 104 L 242 108 L 249 113 L 250 113 L 256 107 L 258 102 L 265 93 L 265 89 Z M 363 79 L 363 81 L 366 84 L 372 85 L 381 90 L 383 90 L 385 88 L 385 83 L 384 81 L 379 77 L 373 75 L 367 75 L 365 76 Z M 364 79 L 367 76 L 374 76 L 377 77 L 384 82 L 385 87 L 383 89 L 381 89 L 372 84 L 366 83 L 364 81 Z M 433 60 L 426 66 L 423 71 L 423 74 L 426 77 L 433 81 L 441 89 L 446 90 L 448 89 L 454 82 L 454 72 L 452 68 L 446 62 L 439 59 L 437 60 Z M 446 43 L 432 42 L 421 46 L 411 55 L 409 61 L 406 64 L 404 64 L 395 60 L 387 59 L 386 58 L 381 58 L 380 57 L 368 57 L 367 58 L 362 58 L 360 56 L 362 52 L 362 49 L 361 48 L 357 48 L 355 49 L 346 57 L 343 57 L 340 54 L 334 51 L 326 50 L 325 51 L 327 57 L 327 60 L 326 61 L 311 61 L 310 62 L 307 62 L 306 63 L 306 66 L 304 68 L 299 70 L 296 70 L 288 74 L 281 79 L 278 79 L 271 71 L 264 67 L 261 67 L 260 66 L 253 66 L 252 67 L 245 68 L 239 71 L 231 78 L 226 87 L 224 93 L 224 105 L 230 117 L 236 122 L 242 124 L 244 126 L 244 128 L 235 146 L 235 153 L 236 156 L 224 170 L 224 173 L 225 174 L 231 174 L 232 175 L 231 180 L 227 187 L 226 193 L 228 195 L 230 195 L 232 193 L 234 195 L 232 201 L 232 204 L 231 205 L 231 214 L 233 216 L 236 214 L 239 216 L 239 227 L 242 234 L 244 236 L 250 235 L 252 240 L 254 242 L 257 243 L 266 252 L 274 265 L 274 270 L 272 272 L 269 272 L 266 269 L 263 262 L 259 256 L 253 250 L 251 250 L 251 254 L 249 256 L 245 252 L 243 247 L 239 242 L 236 242 L 233 245 L 231 243 L 231 241 L 227 234 L 226 230 L 222 226 L 219 227 L 219 232 L 216 234 L 212 230 L 201 210 L 198 209 L 195 213 L 190 208 L 175 188 L 167 180 L 166 176 L 170 166 L 171 147 L 168 139 L 164 135 L 162 134 L 158 134 L 156 135 L 151 140 L 150 143 L 147 145 L 144 142 L 143 136 L 140 127 L 138 124 L 132 118 L 125 118 L 121 123 L 121 126 L 120 127 L 120 143 L 118 144 L 112 132 L 106 125 L 101 122 L 94 122 L 89 128 L 88 135 L 89 136 L 90 143 L 95 153 L 93 155 L 85 147 L 81 145 L 74 145 L 69 150 L 69 160 L 72 167 L 76 173 L 74 175 L 66 176 L 62 182 L 62 185 L 66 195 L 71 202 L 82 213 L 101 227 L 105 239 L 108 244 L 108 246 L 121 268 L 136 285 L 149 294 L 154 299 L 152 301 L 147 301 L 146 302 L 147 305 L 159 313 L 174 318 L 177 322 L 175 324 L 171 324 L 170 325 L 173 329 L 175 329 L 180 332 L 189 335 L 192 335 L 198 337 L 200 339 L 200 340 L 197 342 L 197 344 L 199 346 L 216 349 L 217 350 L 216 354 L 218 356 L 224 357 L 225 358 L 229 358 L 231 355 L 231 352 L 235 344 L 239 340 L 243 340 L 245 342 L 244 346 L 240 353 L 240 360 L 237 366 L 236 374 L 226 387 L 227 390 L 232 390 L 233 392 L 223 403 L 219 409 L 219 412 L 220 413 L 226 412 L 228 415 L 217 433 L 216 441 L 218 442 L 223 438 L 225 440 L 220 455 L 220 458 L 219 459 L 219 468 L 222 469 L 226 465 L 228 467 L 228 471 L 226 477 L 226 485 L 225 486 L 226 491 L 228 492 L 232 487 L 234 488 L 234 498 L 236 504 L 243 518 L 248 525 L 253 529 L 256 528 L 265 537 L 268 538 L 270 535 L 270 530 L 271 529 L 273 529 L 276 532 L 280 531 L 284 525 L 293 517 L 296 516 L 304 510 L 308 509 L 317 504 L 319 504 L 321 502 L 323 502 L 331 497 L 334 497 L 340 494 L 351 492 L 359 489 L 368 489 L 369 488 L 379 489 L 383 492 L 382 495 L 375 495 L 374 496 L 365 497 L 355 501 L 345 503 L 342 505 L 337 506 L 330 510 L 328 510 L 311 519 L 309 519 L 301 523 L 297 527 L 298 529 L 300 529 L 302 531 L 300 534 L 285 539 L 279 542 L 276 545 L 277 547 L 281 548 L 283 551 L 280 554 L 273 557 L 268 562 L 268 566 L 263 577 L 261 579 L 257 587 L 245 602 L 245 605 L 253 609 L 261 617 L 259 620 L 253 619 L 239 612 L 236 612 L 231 610 L 227 610 L 226 609 L 210 609 L 209 610 L 203 611 L 198 614 L 191 624 L 191 628 L 194 633 L 196 641 L 198 644 L 201 643 L 200 636 L 197 631 L 197 625 L 199 623 L 208 623 L 210 622 L 212 624 L 211 631 L 210 632 L 210 638 L 208 641 L 209 644 L 219 645 L 221 646 L 222 645 L 220 642 L 222 639 L 227 635 L 231 634 L 234 637 L 234 639 L 229 647 L 229 650 L 232 653 L 240 657 L 243 660 L 252 665 L 259 671 L 280 684 L 289 687 L 298 686 L 307 681 L 313 674 L 318 665 L 324 658 L 327 657 L 329 655 L 334 655 L 343 644 L 345 638 L 352 626 L 356 622 L 360 625 L 364 620 L 364 618 L 366 616 L 367 613 L 371 610 L 373 606 L 381 599 L 383 595 L 388 596 L 401 582 L 415 573 L 423 569 L 435 565 L 451 555 L 459 553 L 466 548 L 479 535 L 485 527 L 494 510 L 499 495 L 499 492 L 501 488 L 501 473 L 503 471 L 506 470 L 505 456 L 504 455 L 504 452 L 502 449 L 502 446 L 500 440 L 502 438 L 506 438 L 507 436 L 499 421 L 491 410 L 492 408 L 497 408 L 499 409 L 500 408 L 500 405 L 497 400 L 486 388 L 491 382 L 486 376 L 481 364 L 479 362 L 468 361 L 467 360 L 461 360 L 460 359 L 454 358 L 450 356 L 446 352 L 445 349 L 447 347 L 461 349 L 466 351 L 472 351 L 473 352 L 490 354 L 492 355 L 492 353 L 489 349 L 491 347 L 496 347 L 503 350 L 516 359 L 518 358 L 518 354 L 521 353 L 535 366 L 541 369 L 543 369 L 547 372 L 548 375 L 548 385 L 552 394 L 557 398 L 564 401 L 566 401 L 568 399 L 568 396 L 566 392 L 566 390 L 568 388 L 573 391 L 577 395 L 586 400 L 590 400 L 591 401 L 599 400 L 602 397 L 602 386 L 601 385 L 600 379 L 601 378 L 605 378 L 610 383 L 613 390 L 618 389 L 623 383 L 623 373 L 620 366 L 620 362 L 621 361 L 624 361 L 630 367 L 632 366 L 632 363 L 633 362 L 633 358 L 631 352 L 625 340 L 620 332 L 609 319 L 612 315 L 612 313 L 591 300 L 591 299 L 595 296 L 595 293 L 588 289 L 583 288 L 580 286 L 576 286 L 570 284 L 567 281 L 574 276 L 573 274 L 567 272 L 551 271 L 550 270 L 542 269 L 541 266 L 547 262 L 545 260 L 519 260 L 518 257 L 521 253 L 517 251 L 510 251 L 509 252 L 503 252 L 499 254 L 489 255 L 487 253 L 489 250 L 488 247 L 478 248 L 474 250 L 464 252 L 448 259 L 446 259 L 444 257 L 450 250 L 455 248 L 465 239 L 470 230 L 471 219 L 473 217 L 476 219 L 479 218 L 480 215 L 480 203 L 479 202 L 479 198 L 482 197 L 485 200 L 488 199 L 487 191 L 480 176 L 481 175 L 484 175 L 488 177 L 490 176 L 490 172 L 488 168 L 476 155 L 478 152 L 485 152 L 486 151 L 486 148 L 481 143 L 475 140 L 472 137 L 472 135 L 474 134 L 475 132 L 470 126 L 461 110 L 455 102 L 455 100 L 465 91 L 470 81 L 470 68 L 468 62 L 465 57 L 455 47 Z M 499 430 L 501 429 L 504 433 L 502 434 Z M 175 326 L 178 325 L 181 329 L 178 330 Z M 248 324 L 249 325 L 248 327 L 245 329 L 244 327 Z M 149 304 L 152 303 L 154 304 L 156 307 L 153 308 L 151 307 Z M 446 44 L 456 49 L 463 56 L 469 66 L 469 71 L 470 72 L 469 82 L 466 88 L 458 96 L 455 97 L 453 99 L 453 101 L 461 111 L 465 120 L 470 128 L 473 131 L 469 136 L 473 140 L 479 143 L 485 149 L 483 151 L 475 151 L 474 154 L 485 166 L 489 173 L 487 175 L 485 175 L 483 173 L 480 173 L 479 174 L 480 180 L 482 182 L 486 192 L 486 196 L 485 197 L 483 197 L 481 195 L 478 195 L 477 196 L 479 202 L 479 215 L 476 218 L 473 215 L 471 216 L 470 218 L 470 226 L 466 235 L 464 237 L 461 237 L 458 232 L 456 232 L 449 244 L 443 250 L 437 249 L 434 255 L 427 263 L 426 267 L 427 268 L 431 268 L 444 260 L 448 260 L 458 255 L 470 251 L 473 251 L 477 249 L 480 249 L 481 248 L 486 248 L 487 249 L 487 251 L 485 254 L 486 256 L 498 255 L 499 254 L 507 253 L 508 252 L 517 252 L 519 254 L 516 258 L 517 261 L 542 260 L 544 263 L 539 266 L 540 269 L 542 270 L 546 270 L 547 271 L 568 273 L 571 275 L 571 276 L 566 280 L 566 282 L 568 284 L 584 288 L 590 291 L 593 294 L 590 298 L 590 300 L 593 303 L 605 309 L 609 313 L 608 319 L 610 323 L 619 332 L 623 338 L 624 342 L 626 344 L 627 348 L 631 354 L 632 360 L 630 364 L 622 358 L 619 360 L 620 370 L 622 373 L 622 382 L 617 387 L 614 387 L 612 383 L 607 378 L 601 376 L 599 379 L 600 380 L 600 385 L 601 386 L 601 391 L 602 393 L 598 398 L 596 399 L 587 399 L 576 392 L 570 386 L 568 386 L 565 389 L 565 394 L 567 396 L 567 398 L 565 400 L 556 396 L 551 391 L 549 387 L 549 374 L 548 373 L 548 370 L 546 368 L 541 367 L 535 364 L 530 360 L 522 351 L 520 350 L 516 350 L 516 354 L 514 356 L 509 351 L 507 351 L 499 346 L 492 345 L 490 343 L 490 341 L 487 338 L 467 337 L 466 336 L 457 335 L 452 332 L 448 332 L 451 336 L 457 339 L 461 345 L 459 347 L 448 347 L 446 346 L 444 349 L 446 354 L 451 361 L 451 364 L 453 366 L 453 368 L 457 373 L 459 374 L 463 374 L 467 378 L 467 381 L 470 390 L 470 394 L 473 403 L 472 408 L 467 410 L 467 413 L 468 414 L 468 417 L 476 426 L 477 429 L 479 431 L 479 438 L 478 439 L 474 439 L 468 433 L 465 432 L 463 430 L 462 431 L 467 440 L 469 442 L 473 443 L 476 445 L 480 450 L 480 456 L 477 459 L 474 460 L 476 463 L 476 471 L 472 474 L 469 478 L 468 478 L 467 489 L 464 498 L 456 506 L 455 510 L 449 517 L 448 522 L 446 524 L 444 524 L 443 523 L 443 520 L 442 520 L 441 524 L 438 526 L 436 524 L 436 520 L 435 519 L 433 521 L 433 523 L 431 525 L 427 533 L 427 536 L 421 545 L 418 548 L 416 548 L 415 550 L 404 560 L 400 562 L 382 580 L 372 588 L 359 602 L 352 607 L 330 630 L 329 634 L 321 643 L 316 646 L 311 651 L 308 652 L 308 653 L 291 669 L 284 672 L 276 672 L 262 665 L 255 658 L 252 657 L 250 655 L 243 652 L 238 652 L 234 647 L 236 644 L 236 637 L 234 634 L 226 634 L 220 638 L 215 639 L 212 635 L 212 629 L 214 626 L 214 620 L 211 620 L 206 622 L 201 622 L 198 621 L 196 618 L 203 612 L 209 610 L 214 610 L 215 609 L 222 609 L 223 610 L 228 610 L 229 611 L 233 611 L 237 613 L 240 613 L 252 619 L 260 621 L 262 619 L 261 616 L 254 609 L 247 606 L 245 603 L 259 585 L 262 578 L 265 574 L 265 572 L 268 568 L 270 561 L 274 557 L 281 554 L 284 551 L 283 548 L 279 547 L 277 545 L 279 543 L 286 539 L 292 538 L 298 535 L 300 535 L 304 531 L 302 529 L 299 528 L 299 526 L 301 524 L 306 521 L 311 520 L 321 515 L 323 513 L 325 513 L 327 511 L 329 511 L 336 507 L 360 499 L 363 499 L 367 497 L 380 496 L 381 495 L 389 495 L 393 498 L 394 498 L 394 497 L 391 494 L 379 488 L 363 488 L 362 489 L 357 489 L 349 492 L 345 492 L 341 494 L 338 494 L 332 496 L 325 500 L 323 500 L 321 502 L 299 512 L 287 521 L 284 522 L 279 528 L 277 528 L 269 520 L 267 521 L 267 530 L 268 531 L 267 534 L 265 534 L 261 531 L 257 524 L 249 515 L 247 515 L 248 519 L 247 520 L 245 519 L 235 499 L 235 483 L 233 482 L 228 489 L 226 488 L 227 475 L 229 470 L 230 462 L 227 461 L 221 468 L 219 466 L 219 463 L 221 458 L 221 454 L 222 453 L 222 450 L 225 445 L 226 438 L 223 437 L 221 439 L 218 440 L 216 437 L 229 414 L 229 411 L 224 411 L 222 412 L 220 409 L 234 392 L 234 389 L 233 388 L 229 389 L 227 387 L 229 383 L 236 376 L 237 373 L 246 367 L 246 366 L 252 361 L 258 353 L 257 351 L 254 351 L 244 358 L 242 358 L 240 356 L 245 344 L 245 336 L 251 324 L 251 321 L 250 320 L 247 321 L 244 324 L 240 333 L 236 336 L 234 335 L 228 335 L 223 333 L 219 333 L 216 330 L 219 327 L 224 325 L 226 323 L 225 321 L 223 322 L 220 321 L 214 321 L 208 319 L 203 314 L 188 314 L 186 311 L 189 308 L 191 308 L 194 306 L 192 303 L 188 303 L 179 300 L 167 294 L 165 294 L 160 290 L 158 290 L 140 275 L 124 259 L 124 258 L 118 253 L 120 256 L 120 258 L 127 268 L 126 271 L 119 263 L 115 255 L 110 248 L 102 227 L 97 222 L 90 218 L 84 213 L 70 199 L 66 191 L 64 189 L 63 182 L 67 177 L 69 176 L 76 176 L 79 173 L 85 176 L 90 176 L 93 174 L 95 170 L 93 163 L 84 154 L 79 151 L 76 151 L 73 154 L 73 156 L 70 158 L 69 157 L 69 152 L 74 146 L 79 145 L 85 148 L 96 159 L 99 156 L 104 158 L 107 158 L 112 154 L 113 152 L 113 147 L 111 142 L 105 133 L 101 129 L 98 128 L 94 129 L 91 132 L 90 131 L 91 126 L 96 122 L 101 123 L 111 132 L 117 144 L 117 146 L 120 149 L 121 148 L 124 148 L 129 152 L 135 152 L 138 149 L 139 146 L 139 139 L 138 138 L 138 134 L 135 128 L 131 124 L 126 123 L 124 121 L 128 118 L 132 119 L 138 125 L 145 146 L 148 146 L 152 140 L 157 135 L 162 135 L 168 141 L 170 147 L 169 166 L 165 178 L 186 203 L 191 211 L 194 214 L 196 214 L 200 211 L 204 216 L 210 229 L 216 236 L 219 234 L 219 229 L 222 227 L 226 232 L 232 246 L 234 247 L 238 243 L 242 247 L 246 255 L 249 258 L 251 257 L 251 253 L 253 251 L 261 260 L 266 271 L 268 273 L 271 274 L 274 272 L 275 270 L 274 262 L 275 261 L 281 267 L 286 269 L 290 272 L 292 272 L 292 269 L 290 266 L 282 260 L 275 257 L 274 258 L 275 259 L 274 262 L 264 248 L 252 238 L 252 235 L 250 231 L 249 231 L 246 235 L 244 235 L 242 233 L 242 231 L 240 228 L 240 217 L 241 216 L 240 212 L 237 212 L 234 214 L 231 211 L 232 209 L 232 203 L 234 199 L 235 192 L 234 191 L 229 194 L 227 192 L 227 189 L 234 175 L 234 173 L 233 172 L 227 173 L 225 170 L 237 157 L 237 153 L 235 149 L 242 135 L 245 125 L 243 123 L 236 121 L 228 113 L 226 109 L 225 103 L 224 102 L 224 97 L 229 82 L 239 72 L 251 67 L 260 67 L 261 68 L 264 68 L 266 70 L 268 70 L 275 76 L 277 80 L 280 81 L 292 73 L 306 68 L 307 65 L 309 63 L 312 63 L 313 62 L 327 62 L 328 61 L 328 57 L 326 53 L 328 51 L 331 51 L 336 54 L 338 54 L 343 58 L 347 58 L 354 51 L 359 50 L 361 52 L 359 56 L 359 59 L 360 60 L 366 58 L 379 58 L 380 59 L 387 59 L 388 60 L 391 60 L 392 61 L 395 61 L 401 63 L 404 65 L 407 65 L 409 63 L 409 61 L 413 54 L 423 46 L 431 43 L 442 43 L 443 44 Z M 448 34 L 444 34 L 443 33 L 432 33 L 431 34 L 426 34 L 420 36 L 409 43 L 401 53 L 396 51 L 386 50 L 385 49 L 372 49 L 370 47 L 368 42 L 364 39 L 357 39 L 354 40 L 345 46 L 343 46 L 336 42 L 325 41 L 322 42 L 318 46 L 318 49 L 315 53 L 304 55 L 295 61 L 286 65 L 284 67 L 281 67 L 275 62 L 265 58 L 262 58 L 261 57 L 251 57 L 250 58 L 246 58 L 240 61 L 238 61 L 231 65 L 222 74 L 218 80 L 214 92 L 214 107 L 216 113 L 220 120 L 232 132 L 231 136 L 229 138 L 225 147 L 225 156 L 217 165 L 215 171 L 216 177 L 219 181 L 219 185 L 217 189 L 217 196 L 218 199 L 222 203 L 222 214 L 220 216 L 215 216 L 212 213 L 209 206 L 204 200 L 202 199 L 195 199 L 185 185 L 177 177 L 177 173 L 178 172 L 179 163 L 180 162 L 180 144 L 179 143 L 179 140 L 175 133 L 169 127 L 163 125 L 157 125 L 151 128 L 148 125 L 145 118 L 142 114 L 135 109 L 132 108 L 124 108 L 118 111 L 112 118 L 108 115 L 100 112 L 93 112 L 87 115 L 81 122 L 79 128 L 79 133 L 77 135 L 74 135 L 67 138 L 62 143 L 59 149 L 59 161 L 61 167 L 55 173 L 53 177 L 53 190 L 55 196 L 62 207 L 76 221 L 92 233 L 95 244 L 105 263 L 115 277 L 123 285 L 123 286 L 136 298 L 136 305 L 140 311 L 146 316 L 158 322 L 161 326 L 162 331 L 167 336 L 178 341 L 183 342 L 190 351 L 202 355 L 212 363 L 221 366 L 225 370 L 225 372 L 218 384 L 218 387 L 217 388 L 217 393 L 218 395 L 212 403 L 209 410 L 210 417 L 213 420 L 206 436 L 206 444 L 207 447 L 211 452 L 210 459 L 209 460 L 209 471 L 210 472 L 210 475 L 216 483 L 216 492 L 217 493 L 217 496 L 226 507 L 226 509 L 230 517 L 233 520 L 236 526 L 250 539 L 260 544 L 262 546 L 262 548 L 258 560 L 255 565 L 255 567 L 247 578 L 242 587 L 236 594 L 235 597 L 232 600 L 227 600 L 226 599 L 209 599 L 200 602 L 194 606 L 190 607 L 183 614 L 179 623 L 179 634 L 181 640 L 187 649 L 206 667 L 211 670 L 219 677 L 229 682 L 231 684 L 233 684 L 238 687 L 240 687 L 243 689 L 252 692 L 255 692 L 260 694 L 264 694 L 265 695 L 269 695 L 270 696 L 285 697 L 286 698 L 301 697 L 312 693 L 322 684 L 325 680 L 330 669 L 333 666 L 342 663 L 350 655 L 355 646 L 358 643 L 358 641 L 360 638 L 360 635 L 362 633 L 367 632 L 377 621 L 380 621 L 383 624 L 392 628 L 408 630 L 409 629 L 416 629 L 417 628 L 429 627 L 432 625 L 444 621 L 447 621 L 459 617 L 462 617 L 477 610 L 484 605 L 488 605 L 498 611 L 500 611 L 507 615 L 511 615 L 512 616 L 522 615 L 532 610 L 539 602 L 542 595 L 543 587 L 544 586 L 543 570 L 541 565 L 541 560 L 539 556 L 539 553 L 536 546 L 536 543 L 534 540 L 534 537 L 529 527 L 529 525 L 524 517 L 520 508 L 513 500 L 513 495 L 525 485 L 531 475 L 531 472 L 533 468 L 533 451 L 532 450 L 532 447 L 530 441 L 522 428 L 516 422 L 513 420 L 511 420 L 509 418 L 509 415 L 510 414 L 510 406 L 506 397 L 503 394 L 503 388 L 501 384 L 501 381 L 497 374 L 495 368 L 502 363 L 504 363 L 508 366 L 512 367 L 514 369 L 516 369 L 521 372 L 524 372 L 527 373 L 529 375 L 536 377 L 539 381 L 539 388 L 540 391 L 546 401 L 553 407 L 563 411 L 573 411 L 576 409 L 595 411 L 596 410 L 601 410 L 607 407 L 612 403 L 616 402 L 623 398 L 627 394 L 633 382 L 639 376 L 640 372 L 642 369 L 642 365 L 643 364 L 643 354 L 642 353 L 641 347 L 636 336 L 632 330 L 623 321 L 623 313 L 621 309 L 605 295 L 603 290 L 597 284 L 586 279 L 584 277 L 584 272 L 580 267 L 568 263 L 559 262 L 556 259 L 556 257 L 553 253 L 546 250 L 530 250 L 525 245 L 521 243 L 505 243 L 504 244 L 501 244 L 495 239 L 492 238 L 481 238 L 479 236 L 480 232 L 486 226 L 486 224 L 488 221 L 489 211 L 494 207 L 497 201 L 497 190 L 495 185 L 499 181 L 499 170 L 493 160 L 493 158 L 496 155 L 496 147 L 484 134 L 484 131 L 481 124 L 476 118 L 473 111 L 468 104 L 471 99 L 475 95 L 479 87 L 479 84 L 481 79 L 480 66 L 478 60 L 474 52 L 468 45 L 458 38 Z M 448 35 L 454 37 L 463 42 L 473 52 L 478 61 L 479 67 L 480 68 L 480 82 L 477 88 L 477 90 L 473 96 L 467 102 L 467 104 L 474 114 L 477 121 L 482 127 L 484 132 L 484 136 L 487 138 L 496 148 L 496 154 L 492 158 L 492 160 L 496 165 L 499 172 L 499 179 L 494 184 L 497 193 L 497 197 L 496 198 L 496 202 L 495 204 L 488 212 L 487 222 L 485 226 L 480 231 L 478 238 L 479 239 L 492 239 L 495 240 L 501 245 L 503 244 L 521 244 L 525 246 L 529 251 L 547 251 L 552 253 L 554 255 L 556 261 L 558 263 L 574 265 L 580 268 L 583 272 L 583 278 L 597 285 L 603 291 L 605 297 L 608 300 L 616 305 L 622 312 L 622 321 L 633 333 L 641 348 L 642 356 L 643 357 L 642 367 L 639 375 L 633 381 L 629 390 L 622 398 L 609 404 L 602 409 L 598 409 L 597 410 L 586 410 L 578 407 L 573 410 L 570 410 L 569 411 L 561 410 L 558 408 L 556 408 L 545 398 L 540 390 L 540 387 L 539 386 L 539 378 L 538 377 L 529 374 L 524 371 L 518 370 L 503 362 L 499 365 L 497 365 L 494 367 L 502 386 L 502 394 L 507 400 L 509 405 L 509 414 L 508 415 L 508 418 L 511 421 L 516 423 L 521 428 L 524 434 L 530 442 L 531 448 L 532 449 L 532 453 L 533 454 L 533 465 L 532 466 L 532 470 L 527 481 L 519 489 L 514 491 L 511 496 L 512 501 L 519 508 L 531 531 L 531 533 L 533 536 L 537 548 L 538 555 L 541 563 L 542 572 L 543 573 L 543 586 L 542 587 L 541 596 L 538 602 L 533 608 L 529 611 L 520 615 L 510 615 L 501 612 L 488 604 L 484 604 L 476 610 L 461 617 L 454 618 L 446 621 L 443 621 L 427 627 L 413 628 L 412 629 L 403 629 L 402 628 L 391 627 L 383 623 L 379 619 L 377 619 L 365 632 L 362 632 L 360 634 L 360 636 L 356 644 L 352 649 L 349 655 L 339 664 L 337 665 L 332 665 L 321 684 L 315 690 L 309 694 L 304 696 L 300 696 L 299 697 L 279 697 L 278 696 L 272 696 L 271 695 L 267 695 L 266 694 L 261 694 L 260 693 L 253 692 L 244 688 L 242 688 L 239 686 L 237 686 L 225 680 L 216 674 L 212 670 L 208 668 L 186 647 L 182 641 L 182 639 L 180 636 L 180 632 L 179 631 L 180 623 L 182 620 L 183 616 L 190 609 L 198 605 L 200 603 L 208 600 L 212 600 L 213 599 L 224 599 L 225 600 L 231 600 L 232 601 L 234 600 L 253 571 L 258 561 L 263 546 L 261 543 L 259 543 L 245 534 L 234 522 L 230 516 L 225 504 L 219 498 L 217 494 L 216 482 L 210 473 L 209 464 L 210 463 L 210 458 L 211 457 L 211 450 L 207 446 L 207 434 L 211 425 L 213 423 L 213 419 L 210 416 L 210 409 L 211 406 L 218 397 L 218 386 L 223 376 L 225 374 L 226 369 L 218 364 L 211 362 L 204 355 L 193 352 L 188 348 L 185 342 L 168 336 L 162 330 L 161 323 L 151 318 L 145 314 L 137 306 L 136 303 L 136 296 L 118 279 L 106 263 L 95 242 L 93 233 L 80 223 L 65 209 L 58 200 L 55 194 L 54 188 L 53 187 L 53 180 L 57 172 L 62 168 L 62 165 L 60 162 L 60 159 L 59 158 L 60 148 L 62 144 L 67 139 L 70 137 L 78 136 L 80 133 L 80 126 L 84 119 L 92 113 L 101 113 L 108 116 L 112 119 L 119 111 L 126 108 L 133 109 L 142 115 L 150 129 L 154 128 L 156 126 L 165 126 L 169 128 L 176 135 L 180 146 L 179 166 L 176 174 L 177 178 L 184 185 L 194 199 L 200 199 L 208 206 L 209 209 L 211 211 L 212 215 L 214 217 L 222 217 L 223 216 L 222 214 L 223 203 L 218 197 L 218 188 L 221 182 L 216 176 L 216 169 L 218 165 L 226 156 L 226 147 L 230 138 L 233 134 L 233 131 L 220 119 L 219 116 L 217 114 L 217 112 L 215 109 L 215 105 L 214 104 L 214 94 L 215 93 L 216 86 L 220 78 L 231 66 L 240 61 L 246 59 L 249 59 L 250 58 L 262 58 L 273 62 L 281 68 L 284 68 L 286 66 L 307 55 L 317 54 L 318 53 L 318 48 L 319 46 L 322 43 L 325 42 L 333 42 L 340 45 L 342 47 L 346 47 L 350 43 L 356 40 L 364 40 L 372 50 L 380 49 L 381 50 L 387 50 L 392 52 L 396 52 L 401 54 L 410 43 L 422 36 L 429 35 L 430 34 L 444 34 L 445 35 Z" fill="#B1B1B1" fill-rule="evenodd"/><path d="M 269 163 L 269 165 L 267 169 L 267 180 L 268 181 L 269 185 L 276 192 L 281 195 L 285 196 L 288 199 L 288 205 L 294 219 L 296 221 L 297 224 L 299 226 L 301 230 L 315 245 L 322 249 L 323 248 L 321 244 L 316 239 L 313 233 L 313 229 L 316 222 L 328 211 L 340 205 L 352 205 L 353 206 L 355 206 L 364 214 L 365 216 L 365 223 L 363 226 L 362 231 L 357 240 L 358 241 L 361 238 L 364 233 L 364 231 L 366 228 L 366 226 L 368 222 L 368 219 L 369 218 L 369 215 L 370 214 L 370 209 L 371 208 L 371 199 L 372 198 L 372 193 L 371 192 L 371 179 L 370 178 L 370 175 L 367 171 L 365 171 L 363 175 L 356 182 L 353 183 L 351 185 L 347 187 L 345 187 L 341 189 L 338 189 L 337 190 L 321 190 L 320 189 L 315 189 L 314 188 L 310 188 L 309 187 L 302 186 L 295 191 L 293 191 L 292 192 L 284 192 L 278 189 L 274 185 L 271 178 L 272 163 L 271 162 Z M 326 155 L 321 150 L 315 147 L 313 147 L 312 146 L 308 146 L 307 145 L 301 145 L 300 146 L 295 146 L 294 147 L 291 147 L 282 151 L 279 154 L 279 156 L 278 157 L 278 161 L 281 167 L 289 174 L 291 174 L 295 176 L 303 176 L 304 175 L 310 174 L 319 169 L 325 162 L 325 160 L 326 159 Z M 286 125 L 282 125 L 279 128 L 276 135 L 276 144 L 279 147 L 283 146 L 287 142 L 289 138 L 289 128 Z M 366 119 L 363 121 L 360 127 L 360 138 L 362 142 L 364 144 L 366 145 L 370 145 L 375 139 L 375 136 L 376 135 L 376 130 L 375 129 L 375 126 L 373 122 L 369 119 Z M 295 88 L 292 86 L 287 87 L 279 94 L 278 98 L 279 99 L 282 98 L 288 93 L 293 91 L 295 89 Z M 365 79 L 365 81 L 366 82 L 372 83 L 381 88 L 383 88 L 384 87 L 384 84 L 383 82 L 377 78 L 375 78 L 374 77 L 367 77 Z M 448 36 L 445 36 L 444 35 L 430 35 L 429 36 L 425 36 L 424 37 L 422 37 L 410 44 L 405 50 L 405 51 L 401 55 L 397 54 L 396 53 L 392 53 L 391 52 L 388 52 L 387 51 L 381 51 L 380 50 L 375 50 L 374 51 L 372 51 L 368 47 L 367 44 L 364 41 L 356 41 L 350 44 L 346 48 L 342 48 L 340 46 L 333 43 L 325 43 L 324 44 L 322 44 L 320 46 L 319 48 L 319 53 L 317 55 L 307 56 L 295 62 L 293 64 L 286 67 L 284 69 L 281 69 L 273 63 L 269 62 L 266 60 L 263 60 L 262 59 L 250 59 L 249 60 L 246 60 L 245 61 L 240 62 L 236 64 L 234 66 L 231 67 L 221 78 L 217 86 L 217 89 L 216 90 L 216 93 L 215 94 L 215 104 L 216 105 L 216 109 L 218 112 L 218 114 L 220 116 L 221 119 L 234 131 L 234 134 L 231 138 L 227 147 L 227 156 L 219 165 L 217 169 L 217 176 L 222 182 L 219 188 L 219 197 L 224 203 L 224 206 L 223 207 L 223 214 L 224 216 L 222 218 L 214 218 L 211 215 L 210 211 L 208 209 L 207 206 L 200 200 L 194 200 L 189 194 L 187 190 L 183 186 L 183 185 L 176 178 L 175 174 L 176 173 L 177 167 L 178 166 L 178 159 L 179 158 L 179 146 L 178 145 L 178 142 L 175 135 L 169 129 L 165 127 L 156 127 L 154 129 L 150 130 L 148 128 L 144 119 L 141 116 L 141 115 L 133 110 L 131 110 L 130 109 L 126 109 L 125 110 L 123 110 L 119 112 L 112 120 L 111 120 L 108 117 L 101 114 L 92 114 L 90 115 L 87 118 L 86 118 L 83 122 L 81 126 L 81 133 L 80 135 L 78 137 L 73 137 L 67 140 L 63 144 L 61 148 L 61 151 L 60 152 L 60 158 L 61 159 L 61 162 L 63 165 L 63 168 L 58 172 L 54 180 L 54 187 L 55 188 L 56 194 L 59 200 L 66 208 L 66 209 L 73 216 L 74 216 L 80 222 L 81 222 L 85 226 L 90 229 L 94 233 L 96 242 L 100 249 L 100 251 L 102 253 L 107 263 L 114 272 L 114 273 L 119 278 L 119 279 L 133 293 L 134 293 L 137 296 L 137 303 L 138 304 L 138 306 L 145 313 L 146 313 L 151 317 L 160 321 L 162 323 L 162 327 L 163 328 L 163 330 L 168 335 L 172 337 L 174 337 L 175 338 L 177 338 L 178 339 L 185 341 L 187 343 L 190 349 L 191 349 L 193 351 L 204 354 L 211 361 L 218 363 L 224 366 L 227 369 L 226 374 L 224 376 L 219 386 L 219 397 L 216 400 L 216 401 L 212 406 L 212 408 L 211 409 L 211 416 L 214 419 L 214 423 L 212 425 L 208 434 L 208 446 L 212 450 L 212 457 L 211 458 L 211 463 L 210 464 L 210 467 L 211 468 L 211 473 L 213 477 L 217 482 L 217 489 L 218 490 L 218 494 L 220 498 L 226 504 L 228 508 L 228 510 L 235 522 L 245 533 L 246 533 L 252 538 L 257 540 L 259 542 L 261 542 L 264 545 L 264 546 L 263 547 L 263 550 L 261 553 L 261 556 L 254 571 L 250 576 L 246 584 L 241 590 L 235 600 L 233 602 L 231 601 L 225 601 L 224 600 L 213 600 L 212 601 L 208 601 L 207 602 L 200 604 L 198 606 L 190 610 L 184 616 L 183 620 L 181 623 L 180 631 L 181 632 L 181 636 L 183 639 L 183 641 L 185 643 L 187 647 L 208 667 L 212 669 L 216 673 L 217 673 L 220 676 L 223 677 L 225 679 L 237 685 L 239 685 L 242 687 L 244 687 L 247 689 L 249 689 L 253 691 L 256 691 L 257 692 L 260 692 L 261 693 L 271 694 L 272 695 L 278 695 L 279 696 L 299 696 L 300 695 L 304 695 L 305 694 L 309 693 L 311 691 L 315 689 L 320 684 L 320 683 L 324 678 L 328 669 L 332 664 L 337 664 L 339 663 L 348 655 L 351 649 L 355 644 L 359 636 L 359 634 L 362 631 L 365 631 L 375 621 L 375 620 L 377 618 L 379 618 L 383 622 L 391 626 L 394 626 L 395 627 L 402 627 L 403 628 L 412 628 L 413 627 L 427 626 L 428 625 L 430 625 L 431 624 L 433 624 L 434 623 L 436 623 L 443 620 L 446 620 L 447 619 L 450 619 L 454 617 L 458 617 L 459 616 L 461 616 L 476 609 L 479 606 L 484 603 L 488 603 L 492 605 L 495 608 L 501 611 L 503 611 L 506 613 L 509 613 L 510 614 L 520 614 L 529 610 L 532 607 L 533 607 L 537 602 L 540 596 L 540 592 L 541 591 L 541 587 L 542 586 L 542 573 L 541 572 L 540 563 L 539 562 L 539 559 L 537 555 L 536 548 L 535 547 L 532 536 L 530 533 L 530 531 L 518 508 L 511 501 L 510 499 L 510 496 L 512 492 L 514 490 L 519 488 L 526 481 L 530 473 L 530 471 L 531 470 L 531 466 L 532 465 L 532 454 L 531 453 L 531 449 L 530 448 L 529 442 L 523 434 L 520 428 L 516 424 L 511 422 L 507 418 L 507 415 L 508 414 L 508 405 L 507 404 L 506 400 L 501 394 L 501 386 L 500 385 L 499 380 L 494 371 L 493 367 L 495 365 L 499 364 L 502 361 L 503 361 L 518 369 L 524 370 L 529 373 L 531 373 L 534 375 L 538 376 L 540 378 L 540 386 L 541 387 L 541 390 L 543 392 L 543 394 L 546 397 L 546 398 L 556 407 L 558 407 L 561 409 L 566 409 L 567 410 L 573 409 L 578 406 L 585 408 L 586 409 L 597 409 L 598 408 L 602 408 L 609 403 L 622 397 L 628 390 L 630 386 L 630 384 L 632 382 L 632 381 L 638 375 L 640 368 L 641 367 L 641 361 L 642 360 L 642 357 L 641 356 L 641 351 L 640 350 L 640 348 L 632 333 L 629 330 L 629 329 L 623 324 L 623 323 L 621 321 L 621 312 L 616 306 L 608 301 L 604 297 L 602 291 L 597 286 L 592 284 L 590 282 L 588 282 L 584 280 L 582 278 L 582 272 L 580 269 L 574 266 L 564 265 L 563 264 L 558 264 L 555 261 L 555 259 L 553 255 L 547 252 L 529 252 L 525 247 L 521 245 L 503 245 L 501 246 L 495 241 L 493 241 L 492 240 L 479 240 L 477 238 L 479 231 L 484 226 L 486 222 L 486 219 L 487 218 L 487 212 L 495 202 L 496 193 L 495 192 L 495 189 L 494 188 L 493 184 L 498 179 L 498 172 L 495 165 L 491 160 L 491 158 L 495 154 L 495 148 L 494 146 L 483 136 L 483 132 L 482 131 L 481 127 L 476 121 L 473 114 L 466 104 L 466 102 L 472 96 L 472 95 L 476 90 L 476 88 L 479 82 L 479 68 L 478 67 L 477 61 L 472 52 L 463 43 L 460 42 L 458 40 L 454 38 L 452 38 Z M 508 510 L 512 517 L 517 523 L 522 533 L 523 538 L 525 541 L 525 543 L 527 547 L 529 558 L 531 562 L 531 566 L 533 570 L 534 580 L 531 583 L 522 583 L 521 584 L 521 587 L 523 589 L 525 589 L 526 590 L 530 590 L 532 592 L 532 594 L 529 598 L 527 599 L 522 599 L 521 598 L 518 598 L 516 600 L 517 603 L 519 605 L 517 607 L 510 607 L 509 606 L 507 606 L 499 602 L 494 597 L 495 582 L 493 582 L 480 596 L 479 596 L 471 602 L 467 604 L 465 604 L 460 607 L 455 608 L 445 613 L 442 613 L 441 614 L 435 615 L 434 616 L 429 616 L 428 617 L 425 617 L 421 620 L 419 620 L 418 621 L 416 621 L 415 620 L 401 620 L 400 619 L 395 618 L 390 615 L 386 615 L 385 614 L 385 612 L 391 606 L 396 604 L 412 587 L 428 579 L 430 577 L 435 575 L 437 573 L 439 573 L 443 571 L 445 569 L 451 566 L 453 566 L 455 564 L 466 559 L 472 554 L 473 554 L 479 548 L 480 548 L 490 537 L 490 536 L 494 531 L 502 515 L 502 512 L 503 510 L 505 508 L 506 508 Z M 516 439 L 519 442 L 523 451 L 523 466 L 522 467 L 520 475 L 517 480 L 515 479 L 515 458 L 514 457 L 514 450 L 513 449 L 513 444 L 514 443 L 514 441 Z M 446 42 L 455 46 L 466 57 L 469 62 L 469 64 L 471 68 L 471 81 L 466 91 L 456 100 L 456 102 L 462 110 L 467 120 L 476 132 L 476 133 L 474 135 L 473 135 L 473 137 L 475 139 L 481 142 L 487 148 L 487 151 L 485 153 L 478 153 L 477 155 L 489 168 L 491 172 L 491 176 L 489 178 L 485 177 L 484 176 L 481 176 L 488 191 L 488 193 L 489 194 L 489 199 L 487 201 L 485 201 L 482 198 L 480 198 L 480 202 L 481 203 L 481 215 L 480 216 L 480 218 L 478 220 L 476 220 L 474 218 L 472 219 L 472 226 L 471 227 L 471 230 L 466 239 L 455 249 L 450 251 L 445 257 L 446 258 L 448 258 L 449 257 L 454 256 L 456 254 L 463 252 L 464 251 L 467 251 L 468 250 L 474 249 L 478 247 L 484 247 L 485 246 L 488 246 L 490 248 L 490 250 L 488 253 L 489 254 L 499 253 L 503 251 L 517 250 L 518 251 L 520 251 L 522 253 L 522 254 L 519 257 L 519 259 L 545 259 L 548 262 L 545 265 L 542 266 L 542 268 L 544 268 L 545 269 L 550 269 L 551 270 L 567 271 L 568 272 L 571 272 L 573 273 L 575 275 L 575 276 L 572 279 L 568 281 L 570 283 L 572 283 L 576 285 L 580 285 L 583 287 L 588 288 L 594 291 L 596 293 L 596 296 L 594 298 L 593 298 L 592 300 L 605 307 L 613 313 L 613 315 L 610 318 L 610 319 L 616 326 L 616 327 L 621 332 L 624 338 L 626 340 L 632 352 L 632 354 L 634 358 L 634 362 L 633 363 L 633 366 L 631 368 L 630 368 L 624 362 L 621 362 L 621 366 L 624 373 L 624 383 L 618 390 L 616 391 L 613 391 L 611 389 L 611 387 L 609 383 L 605 379 L 601 379 L 602 385 L 603 386 L 603 397 L 599 401 L 595 401 L 594 402 L 586 401 L 580 398 L 573 392 L 568 389 L 567 390 L 567 392 L 569 396 L 569 399 L 566 402 L 564 402 L 557 399 L 551 394 L 547 385 L 547 375 L 546 374 L 546 372 L 543 370 L 541 370 L 535 367 L 521 354 L 519 354 L 519 358 L 517 360 L 512 358 L 503 351 L 496 348 L 491 348 L 490 349 L 493 353 L 493 355 L 492 356 L 490 355 L 485 355 L 484 354 L 479 354 L 478 353 L 473 353 L 472 352 L 466 352 L 465 351 L 462 351 L 461 350 L 457 350 L 456 349 L 451 349 L 450 348 L 447 348 L 446 349 L 447 352 L 450 355 L 454 357 L 460 358 L 461 359 L 467 359 L 468 360 L 479 361 L 482 364 L 483 368 L 487 376 L 492 382 L 492 383 L 490 385 L 489 385 L 487 387 L 487 388 L 498 400 L 501 405 L 501 408 L 499 410 L 497 409 L 492 409 L 492 410 L 500 421 L 508 436 L 508 437 L 506 439 L 502 439 L 501 440 L 502 442 L 502 445 L 503 446 L 503 449 L 505 452 L 505 455 L 506 456 L 506 461 L 507 462 L 507 470 L 505 472 L 503 472 L 502 473 L 502 488 L 500 492 L 500 495 L 499 496 L 495 510 L 486 527 L 483 530 L 480 535 L 466 549 L 465 549 L 459 554 L 451 556 L 449 558 L 437 564 L 435 566 L 433 566 L 430 568 L 428 568 L 425 570 L 423 570 L 415 574 L 413 576 L 410 577 L 408 579 L 405 580 L 402 583 L 401 583 L 388 597 L 383 596 L 382 599 L 377 604 L 376 604 L 374 606 L 373 609 L 368 613 L 363 623 L 360 626 L 359 626 L 357 623 L 356 623 L 353 626 L 353 627 L 349 632 L 349 634 L 347 636 L 344 644 L 339 650 L 339 651 L 334 656 L 329 656 L 327 658 L 324 659 L 319 665 L 319 666 L 315 671 L 314 674 L 307 682 L 298 687 L 295 687 L 294 688 L 289 688 L 288 687 L 285 687 L 284 686 L 280 685 L 278 683 L 275 682 L 273 680 L 270 679 L 265 675 L 259 672 L 252 666 L 249 665 L 240 658 L 232 654 L 228 650 L 228 647 L 230 645 L 233 639 L 233 637 L 231 635 L 229 635 L 223 639 L 223 640 L 221 642 L 221 643 L 223 645 L 221 647 L 219 646 L 213 646 L 212 645 L 209 645 L 207 643 L 207 641 L 209 638 L 209 632 L 210 631 L 210 627 L 211 626 L 211 624 L 210 623 L 208 624 L 199 624 L 198 625 L 198 631 L 201 636 L 201 639 L 202 640 L 202 643 L 200 645 L 198 645 L 195 641 L 193 633 L 190 628 L 190 624 L 195 616 L 198 613 L 203 610 L 209 609 L 210 608 L 226 608 L 227 609 L 231 609 L 232 610 L 239 611 L 253 618 L 259 619 L 260 617 L 253 610 L 246 607 L 244 605 L 244 602 L 256 587 L 257 584 L 262 577 L 266 569 L 266 567 L 267 566 L 267 562 L 273 556 L 280 553 L 282 551 L 281 549 L 277 548 L 275 546 L 275 545 L 279 541 L 285 538 L 287 538 L 288 537 L 290 537 L 291 536 L 293 536 L 300 533 L 301 531 L 300 530 L 298 530 L 296 528 L 296 527 L 301 522 L 309 518 L 311 518 L 328 509 L 330 509 L 337 505 L 342 504 L 345 502 L 351 501 L 352 500 L 355 500 L 356 499 L 358 499 L 365 496 L 369 496 L 370 495 L 374 495 L 375 494 L 382 494 L 382 492 L 379 490 L 375 490 L 374 489 L 369 489 L 368 490 L 359 490 L 358 491 L 355 491 L 351 493 L 340 495 L 334 498 L 331 498 L 327 500 L 325 502 L 321 503 L 319 505 L 317 505 L 308 510 L 304 511 L 296 517 L 293 518 L 285 525 L 283 529 L 280 532 L 276 533 L 273 530 L 271 530 L 271 535 L 268 539 L 265 538 L 256 529 L 253 530 L 247 525 L 247 524 L 242 518 L 235 504 L 235 502 L 233 498 L 233 488 L 232 488 L 228 493 L 227 493 L 225 491 L 225 488 L 224 486 L 225 485 L 225 477 L 226 476 L 227 467 L 226 466 L 222 470 L 220 470 L 218 468 L 218 459 L 219 458 L 219 455 L 220 454 L 224 440 L 223 439 L 218 443 L 217 443 L 215 441 L 215 436 L 216 435 L 216 433 L 227 415 L 226 413 L 220 414 L 218 412 L 218 409 L 222 404 L 222 403 L 232 392 L 232 391 L 227 391 L 225 389 L 225 387 L 235 374 L 236 366 L 239 360 L 239 353 L 243 346 L 244 342 L 243 341 L 239 341 L 236 344 L 232 352 L 232 355 L 229 359 L 225 359 L 224 358 L 218 357 L 215 354 L 216 350 L 214 350 L 213 349 L 207 349 L 206 348 L 202 348 L 201 347 L 199 347 L 196 344 L 196 342 L 199 340 L 198 338 L 196 338 L 192 336 L 189 336 L 188 335 L 180 333 L 175 330 L 173 330 L 169 326 L 169 325 L 171 323 L 175 323 L 176 322 L 176 321 L 174 319 L 172 319 L 166 316 L 164 316 L 161 314 L 159 314 L 157 312 L 149 308 L 146 305 L 145 302 L 147 300 L 152 300 L 153 299 L 149 295 L 148 295 L 145 292 L 144 292 L 141 289 L 136 286 L 120 268 L 120 267 L 114 259 L 113 256 L 111 254 L 107 246 L 107 244 L 104 239 L 104 237 L 103 236 L 103 234 L 101 231 L 100 227 L 98 225 L 95 224 L 88 218 L 87 218 L 83 214 L 82 214 L 70 202 L 70 201 L 65 195 L 63 191 L 62 186 L 61 185 L 61 182 L 63 178 L 66 175 L 68 175 L 69 174 L 74 174 L 75 173 L 73 169 L 71 167 L 68 160 L 68 150 L 74 144 L 81 144 L 85 146 L 93 154 L 94 153 L 89 143 L 89 141 L 88 140 L 88 136 L 87 135 L 88 128 L 94 121 L 101 121 L 106 124 L 113 132 L 118 143 L 119 143 L 119 127 L 120 126 L 120 123 L 125 117 L 132 117 L 139 124 L 139 125 L 141 127 L 141 129 L 144 136 L 145 142 L 147 144 L 149 143 L 150 140 L 156 134 L 158 133 L 162 133 L 164 134 L 169 139 L 171 143 L 171 146 L 172 147 L 171 166 L 170 167 L 170 170 L 167 176 L 168 180 L 176 188 L 176 189 L 185 199 L 185 200 L 188 203 L 191 208 L 195 212 L 198 208 L 200 208 L 202 210 L 205 216 L 207 218 L 210 225 L 212 227 L 213 230 L 216 233 L 218 232 L 218 227 L 220 225 L 222 225 L 227 230 L 228 234 L 233 244 L 236 241 L 239 241 L 242 244 L 246 252 L 249 255 L 250 254 L 250 250 L 251 249 L 253 249 L 260 256 L 260 257 L 264 262 L 267 269 L 269 271 L 272 271 L 273 270 L 273 265 L 265 252 L 257 244 L 254 243 L 251 240 L 250 236 L 244 237 L 241 234 L 238 227 L 238 216 L 236 215 L 234 217 L 233 217 L 230 214 L 230 205 L 231 204 L 231 201 L 232 200 L 232 197 L 233 195 L 232 194 L 230 196 L 228 196 L 225 193 L 225 190 L 230 180 L 231 175 L 225 175 L 223 173 L 223 170 L 235 156 L 235 154 L 234 153 L 234 146 L 243 128 L 243 126 L 242 125 L 236 123 L 229 117 L 223 105 L 223 93 L 224 92 L 225 87 L 230 78 L 239 70 L 245 67 L 247 67 L 248 66 L 252 66 L 253 65 L 260 65 L 261 66 L 264 66 L 268 69 L 271 70 L 277 76 L 278 78 L 281 78 L 283 76 L 296 69 L 299 69 L 300 68 L 304 67 L 305 66 L 305 63 L 307 61 L 310 61 L 311 60 L 326 60 L 326 57 L 324 53 L 324 51 L 326 49 L 331 49 L 332 50 L 334 50 L 340 53 L 343 56 L 346 56 L 355 48 L 357 47 L 361 47 L 363 49 L 363 52 L 361 56 L 362 57 L 367 57 L 368 56 L 380 56 L 381 57 L 386 57 L 387 58 L 395 59 L 396 60 L 401 61 L 404 63 L 406 63 L 408 61 L 408 59 L 410 55 L 421 45 L 428 42 L 431 42 L 432 41 L 441 41 L 442 42 Z" fill="#010101" fill-rule="evenodd"/></svg>