<svg xmlns="http://www.w3.org/2000/svg" viewBox="0 0 653 704" shape-rendering="geometricPrecision"><title>intro frame 090</title><path d="M 469 512 L 458 521 L 452 523 L 445 530 L 441 527 L 439 531 L 433 538 L 429 536 L 421 545 L 418 544 L 415 545 L 411 550 L 404 556 L 399 566 L 393 573 L 390 579 L 388 590 L 392 593 L 392 597 L 391 598 L 391 608 L 394 608 L 396 611 L 396 615 L 395 616 L 395 628 L 399 627 L 402 630 L 402 633 L 403 634 L 403 646 L 400 655 L 400 666 L 403 672 L 408 676 L 417 679 L 420 679 L 421 680 L 425 680 L 426 681 L 435 681 L 436 680 L 436 665 L 440 659 L 445 659 L 447 661 L 449 667 L 449 681 L 450 682 L 468 682 L 469 681 L 469 675 L 468 674 L 468 660 L 470 658 L 475 658 L 479 662 L 481 666 L 481 669 L 482 670 L 482 680 L 483 681 L 484 680 L 491 680 L 495 678 L 495 668 L 494 667 L 494 662 L 493 660 L 497 655 L 501 656 L 506 662 L 508 668 L 508 675 L 510 676 L 515 670 L 516 662 L 515 661 L 515 655 L 511 648 L 506 644 L 499 641 L 495 638 L 488 638 L 486 640 L 478 640 L 477 639 L 458 639 L 457 640 L 451 640 L 450 641 L 446 641 L 445 640 L 435 640 L 434 639 L 435 637 L 438 637 L 441 635 L 451 634 L 452 633 L 458 633 L 459 632 L 480 632 L 484 634 L 481 627 L 481 622 L 483 616 L 485 614 L 488 614 L 489 615 L 490 623 L 492 622 L 492 619 L 488 614 L 488 612 L 484 603 L 486 602 L 489 605 L 491 605 L 492 604 L 492 600 L 490 598 L 477 591 L 465 580 L 465 579 L 468 577 L 478 582 L 484 584 L 487 584 L 488 583 L 487 580 L 476 568 L 474 564 L 476 562 L 478 562 L 488 569 L 489 568 L 485 557 L 482 554 L 476 552 L 472 549 L 473 547 L 484 547 L 484 545 L 477 539 L 478 536 L 482 536 L 485 538 L 487 537 L 478 528 L 473 516 Z M 444 583 L 445 583 L 452 591 L 456 599 L 454 602 L 453 602 L 446 595 L 445 592 L 443 590 L 442 585 Z M 435 581 L 436 582 L 436 589 L 433 593 L 431 593 L 430 590 L 433 584 L 433 582 Z M 408 562 L 410 564 L 410 567 L 408 572 L 404 575 L 402 573 L 402 571 L 404 566 Z M 228 508 L 227 512 L 223 518 L 223 520 L 226 519 L 228 521 L 228 525 L 225 529 L 225 532 L 222 538 L 223 539 L 224 538 L 227 538 L 229 541 L 222 561 L 222 567 L 227 566 L 229 568 L 227 574 L 227 579 L 226 580 L 229 583 L 229 594 L 231 598 L 232 609 L 235 617 L 235 620 L 239 624 L 243 624 L 244 625 L 251 626 L 254 628 L 256 628 L 259 632 L 257 634 L 252 634 L 243 631 L 225 631 L 224 632 L 220 632 L 211 635 L 205 640 L 202 646 L 200 659 L 203 665 L 205 665 L 205 659 L 207 655 L 207 652 L 213 646 L 217 645 L 220 648 L 220 653 L 218 656 L 217 667 L 221 670 L 228 671 L 229 670 L 229 662 L 232 655 L 237 650 L 241 650 L 244 653 L 244 657 L 242 661 L 242 667 L 241 668 L 241 671 L 244 673 L 266 673 L 267 672 L 273 672 L 277 668 L 282 666 L 286 662 L 289 662 L 294 656 L 294 650 L 295 649 L 294 647 L 288 642 L 287 638 L 289 634 L 292 635 L 293 631 L 295 629 L 297 629 L 294 622 L 294 618 L 297 615 L 297 610 L 295 608 L 294 604 L 286 596 L 285 594 L 285 588 L 287 586 L 292 593 L 294 594 L 295 592 L 292 589 L 292 587 L 295 585 L 296 583 L 277 563 L 264 542 L 261 539 L 259 539 L 253 533 L 250 527 L 245 522 L 238 518 L 235 515 L 234 512 L 230 508 Z M 257 582 L 259 584 L 258 587 L 255 586 L 255 584 Z M 267 575 L 270 578 L 274 586 L 274 588 L 272 590 L 268 587 L 266 583 L 265 577 Z M 281 572 L 282 573 L 282 581 L 281 583 L 279 584 L 278 583 L 278 575 L 279 573 Z M 248 567 L 250 569 L 249 571 L 243 577 L 242 577 L 240 574 L 247 567 Z M 68 157 L 66 160 L 66 163 L 71 171 L 71 168 L 70 167 L 70 158 Z M 449 16 L 446 16 L 445 15 L 433 15 L 432 16 L 429 16 L 427 18 L 425 18 L 417 24 L 412 31 L 411 37 L 408 40 L 398 36 L 388 35 L 382 33 L 366 33 L 360 35 L 357 32 L 358 26 L 359 25 L 357 24 L 355 25 L 347 34 L 344 34 L 336 29 L 329 27 L 328 28 L 331 32 L 331 37 L 329 39 L 314 39 L 313 40 L 310 40 L 306 45 L 298 47 L 282 58 L 277 54 L 273 48 L 263 43 L 252 43 L 246 45 L 238 50 L 231 58 L 227 70 L 227 79 L 232 90 L 236 94 L 242 98 L 247 99 L 249 101 L 247 108 L 240 123 L 241 134 L 229 147 L 230 148 L 237 147 L 239 149 L 239 152 L 232 165 L 232 168 L 237 167 L 239 169 L 239 174 L 238 175 L 237 187 L 236 189 L 238 191 L 241 188 L 243 188 L 245 190 L 244 203 L 247 211 L 249 212 L 250 209 L 253 207 L 256 211 L 256 215 L 259 219 L 262 219 L 265 223 L 274 231 L 276 231 L 278 233 L 284 236 L 286 236 L 290 239 L 295 245 L 295 249 L 293 251 L 286 246 L 279 243 L 278 244 L 278 247 L 275 250 L 272 250 L 259 237 L 258 237 L 258 239 L 255 242 L 253 242 L 250 239 L 244 227 L 242 227 L 242 229 L 239 232 L 233 227 L 229 219 L 229 217 L 225 212 L 224 213 L 224 217 L 221 220 L 219 220 L 216 217 L 206 197 L 204 195 L 201 198 L 198 198 L 188 186 L 185 180 L 179 173 L 177 169 L 169 160 L 170 153 L 172 150 L 172 147 L 174 142 L 174 128 L 173 128 L 172 139 L 164 148 L 162 149 L 158 149 L 152 144 L 151 141 L 151 134 L 153 130 L 162 119 L 161 119 L 154 127 L 151 127 L 147 122 L 145 128 L 141 132 L 139 133 L 135 133 L 129 129 L 125 130 L 121 126 L 118 121 L 118 119 L 114 110 L 110 105 L 107 104 L 119 123 L 119 127 L 120 128 L 119 133 L 111 138 L 105 137 L 103 139 L 100 139 L 92 130 L 88 127 L 86 127 L 88 130 L 95 135 L 99 141 L 99 151 L 95 155 L 89 155 L 83 153 L 83 155 L 91 162 L 92 166 L 96 163 L 102 152 L 111 143 L 120 138 L 126 136 L 134 136 L 141 139 L 148 145 L 151 149 L 154 156 L 154 168 L 149 176 L 144 181 L 139 183 L 137 185 L 133 186 L 129 189 L 127 189 L 116 194 L 106 194 L 101 192 L 93 183 L 91 179 L 91 176 L 89 176 L 85 179 L 81 179 L 79 178 L 79 180 L 86 189 L 94 197 L 99 200 L 104 205 L 105 211 L 109 219 L 110 224 L 113 227 L 113 231 L 115 233 L 115 235 L 118 233 L 120 233 L 121 235 L 147 261 L 151 263 L 162 273 L 164 273 L 174 278 L 177 278 L 178 279 L 186 280 L 192 282 L 195 285 L 195 287 L 193 289 L 189 290 L 188 291 L 189 293 L 192 293 L 193 294 L 201 294 L 203 293 L 212 298 L 215 298 L 216 299 L 225 299 L 228 302 L 224 306 L 220 307 L 218 309 L 219 310 L 223 310 L 224 311 L 236 311 L 239 308 L 242 301 L 245 298 L 251 294 L 254 294 L 256 296 L 255 302 L 246 321 L 246 326 L 243 335 L 246 334 L 251 329 L 260 323 L 263 323 L 265 326 L 253 343 L 241 353 L 238 354 L 230 365 L 230 367 L 234 367 L 236 369 L 236 372 L 221 391 L 222 392 L 223 391 L 228 391 L 230 393 L 230 396 L 223 406 L 216 420 L 216 422 L 218 422 L 220 420 L 222 420 L 224 422 L 224 425 L 219 439 L 217 450 L 221 447 L 223 448 L 222 472 L 223 473 L 226 470 L 228 472 L 229 483 L 231 489 L 233 490 L 233 489 L 235 488 L 239 492 L 240 497 L 243 495 L 246 498 L 250 509 L 252 510 L 254 508 L 256 508 L 261 514 L 265 521 L 266 521 L 267 519 L 269 519 L 278 529 L 281 526 L 283 526 L 292 536 L 296 533 L 302 540 L 300 534 L 296 529 L 291 520 L 288 511 L 288 506 L 290 504 L 292 506 L 294 512 L 296 514 L 296 516 L 299 519 L 301 523 L 314 537 L 319 538 L 323 533 L 325 533 L 327 536 L 330 538 L 345 524 L 347 524 L 348 525 L 348 528 L 343 538 L 343 541 L 345 543 L 349 539 L 353 537 L 363 529 L 365 529 L 367 531 L 367 533 L 362 543 L 365 543 L 370 541 L 374 537 L 384 522 L 388 519 L 390 522 L 389 523 L 389 527 L 387 533 L 390 528 L 394 514 L 396 512 L 399 514 L 400 517 L 400 524 L 397 533 L 398 535 L 409 523 L 417 507 L 419 505 L 421 505 L 423 507 L 423 513 L 421 519 L 418 524 L 419 525 L 425 520 L 432 511 L 432 509 L 435 504 L 435 501 L 439 494 L 442 495 L 442 502 L 441 503 L 441 509 L 442 509 L 446 505 L 448 500 L 450 498 L 451 492 L 453 488 L 457 485 L 459 487 L 459 489 L 460 489 L 462 483 L 462 480 L 464 477 L 464 464 L 466 461 L 466 457 L 467 456 L 466 451 L 464 449 L 464 445 L 466 443 L 469 444 L 470 443 L 469 438 L 463 430 L 463 427 L 464 426 L 467 429 L 470 430 L 470 429 L 466 424 L 462 426 L 457 420 L 455 415 L 457 414 L 463 419 L 466 420 L 468 417 L 468 414 L 462 407 L 456 404 L 450 404 L 447 403 L 445 401 L 445 398 L 446 397 L 454 397 L 455 398 L 458 398 L 464 402 L 466 401 L 462 393 L 460 391 L 460 389 L 457 383 L 455 381 L 457 378 L 460 380 L 461 379 L 445 362 L 447 360 L 456 365 L 457 364 L 457 361 L 455 359 L 455 357 L 452 353 L 443 350 L 437 350 L 434 349 L 431 346 L 433 343 L 438 343 L 439 344 L 442 344 L 451 350 L 452 349 L 449 341 L 444 334 L 446 331 L 449 333 L 450 332 L 448 326 L 450 323 L 459 334 L 462 340 L 462 342 L 472 357 L 472 359 L 479 371 L 482 382 L 484 385 L 487 394 L 487 397 L 488 398 L 488 401 L 489 402 L 489 405 L 490 406 L 490 409 L 493 418 L 493 422 L 495 428 L 495 433 L 497 437 L 497 443 L 494 449 L 492 455 L 492 460 L 491 461 L 491 469 L 494 477 L 498 481 L 500 482 L 504 482 L 506 480 L 510 470 L 514 466 L 516 466 L 519 469 L 520 475 L 519 476 L 519 480 L 516 486 L 516 488 L 512 493 L 513 496 L 516 499 L 520 501 L 526 501 L 528 500 L 533 494 L 538 483 L 540 481 L 542 481 L 545 484 L 545 494 L 542 503 L 545 503 L 546 502 L 550 502 L 555 498 L 559 486 L 565 479 L 569 482 L 569 492 L 570 492 L 576 485 L 576 483 L 580 474 L 581 466 L 582 465 L 582 460 L 583 459 L 583 447 L 582 446 L 580 433 L 583 431 L 584 429 L 580 419 L 578 409 L 572 399 L 574 396 L 578 398 L 578 396 L 576 392 L 572 388 L 567 379 L 564 376 L 564 373 L 565 372 L 568 372 L 571 374 L 572 373 L 552 348 L 553 345 L 557 345 L 562 347 L 563 346 L 533 319 L 535 316 L 539 316 L 540 317 L 544 317 L 544 316 L 533 307 L 524 301 L 522 301 L 519 298 L 519 295 L 521 293 L 526 293 L 526 292 L 514 287 L 505 280 L 507 277 L 513 277 L 514 278 L 516 277 L 500 266 L 494 263 L 492 263 L 487 258 L 489 255 L 494 255 L 494 254 L 490 253 L 471 244 L 468 244 L 463 242 L 453 243 L 452 246 L 449 249 L 446 250 L 443 247 L 428 247 L 427 246 L 423 249 L 418 249 L 416 247 L 416 241 L 415 241 L 408 249 L 408 251 L 405 254 L 402 252 L 405 243 L 414 235 L 418 235 L 418 233 L 423 227 L 426 229 L 426 233 L 427 234 L 429 232 L 429 226 L 430 223 L 432 221 L 433 221 L 435 224 L 438 223 L 439 221 L 439 215 L 438 213 L 441 211 L 445 214 L 446 213 L 446 208 L 451 202 L 453 203 L 455 202 L 454 199 L 447 192 L 448 190 L 452 190 L 455 192 L 457 192 L 459 194 L 461 193 L 460 188 L 456 183 L 458 181 L 462 181 L 464 183 L 466 183 L 467 182 L 467 178 L 462 172 L 463 171 L 468 171 L 469 170 L 468 167 L 460 159 L 462 157 L 467 157 L 469 159 L 472 160 L 477 166 L 479 166 L 480 167 L 480 173 L 481 174 L 481 171 L 483 169 L 486 169 L 489 171 L 490 170 L 481 150 L 484 147 L 487 147 L 490 149 L 492 148 L 486 139 L 477 130 L 477 127 L 479 125 L 488 125 L 489 124 L 474 113 L 473 110 L 477 106 L 473 101 L 471 96 L 467 91 L 467 89 L 461 80 L 456 75 L 456 73 L 460 69 L 463 68 L 468 63 L 469 60 L 471 58 L 472 52 L 473 51 L 473 41 L 471 35 L 467 29 L 457 20 Z M 284 515 L 286 514 L 288 518 L 286 519 L 284 517 Z M 266 500 L 268 502 L 267 505 L 266 505 L 264 502 Z M 428 495 L 430 496 L 430 500 L 429 501 L 427 500 L 427 496 Z M 412 495 L 413 496 L 413 503 L 411 505 L 409 502 L 409 499 L 410 496 Z M 409 488 L 412 492 L 411 494 L 410 494 L 408 491 Z M 269 488 L 272 490 L 273 494 L 276 498 L 276 500 L 279 505 L 280 512 L 278 514 L 272 509 L 272 507 L 270 504 L 269 498 L 268 497 L 268 489 Z M 272 464 L 273 465 L 273 469 L 271 474 L 269 475 L 268 474 L 268 469 L 269 466 Z M 436 454 L 440 457 L 444 465 L 444 467 L 447 473 L 448 479 L 445 483 L 443 482 L 441 483 L 441 486 L 438 492 L 433 492 L 429 489 L 429 483 L 430 481 L 426 474 L 426 471 L 428 470 L 434 477 L 436 475 L 436 464 L 434 459 L 434 456 Z M 258 441 L 260 443 L 258 449 L 258 452 L 256 455 L 254 463 L 250 466 L 248 464 L 249 454 L 254 444 Z M 412 423 L 413 422 L 416 422 L 419 424 L 429 423 L 432 426 L 429 429 L 424 429 L 425 431 L 423 433 L 420 433 L 414 427 Z M 257 417 L 258 420 L 252 428 L 251 432 L 249 434 L 245 434 L 243 432 L 245 426 L 248 421 L 254 417 Z M 426 402 L 429 401 L 431 403 L 442 408 L 449 415 L 449 417 L 448 418 L 441 418 L 439 417 L 438 420 L 440 424 L 438 426 L 434 422 L 433 420 L 433 416 L 432 415 L 432 411 Z M 421 394 L 423 392 L 429 392 L 431 395 L 429 397 L 424 397 Z M 434 386 L 436 384 L 438 384 L 443 391 L 441 393 L 437 392 L 434 389 Z M 438 369 L 445 370 L 447 372 L 447 378 L 444 381 L 441 381 L 438 378 L 438 376 L 435 372 Z M 384 370 L 387 368 L 393 371 L 402 378 L 407 379 L 408 380 L 408 385 L 407 386 L 403 385 L 397 379 L 386 373 Z M 409 366 L 411 364 L 414 367 L 417 368 L 420 372 L 417 375 L 410 377 L 408 374 L 409 372 Z M 533 355 L 535 354 L 540 357 L 541 359 L 540 360 L 536 359 Z M 432 329 L 435 327 L 438 331 L 436 333 Z M 424 326 L 425 325 L 429 325 L 430 327 L 429 328 L 425 328 Z M 429 311 L 433 314 L 436 320 L 436 322 L 434 324 L 428 316 L 428 312 Z M 371 312 L 374 311 L 376 314 L 376 316 L 373 317 L 371 315 Z M 377 311 L 380 309 L 387 315 L 389 315 L 390 312 L 392 311 L 393 314 L 392 317 L 390 319 L 388 318 L 383 318 L 377 312 Z M 323 307 L 320 310 L 317 310 L 316 309 L 320 305 Z M 430 300 L 432 298 L 434 298 L 436 300 L 437 303 L 434 305 Z M 418 293 L 421 297 L 421 302 L 423 304 L 424 308 L 421 311 L 419 315 L 417 317 L 414 318 L 411 314 L 416 312 L 419 309 L 419 301 L 415 297 Z M 383 292 L 386 294 L 387 299 L 390 305 L 389 307 L 386 305 L 380 297 L 380 295 Z M 312 291 L 313 293 L 310 297 L 306 300 L 305 299 L 306 295 L 310 291 Z M 419 288 L 421 289 L 421 292 L 420 293 L 418 292 L 418 289 Z M 257 272 L 259 275 L 255 278 L 254 280 L 256 280 L 258 283 L 253 287 L 250 288 L 249 285 L 251 282 L 251 277 Z M 258 264 L 261 261 L 266 261 L 268 263 L 266 266 L 263 267 L 260 266 Z M 417 259 L 418 260 L 417 263 L 413 265 L 410 263 L 413 260 Z M 263 253 L 265 251 L 267 251 L 270 254 L 268 256 L 265 256 Z M 398 244 L 398 248 L 396 251 L 381 266 L 377 268 L 374 271 L 371 272 L 367 276 L 365 277 L 361 277 L 355 280 L 347 279 L 336 273 L 329 268 L 317 255 L 317 253 L 320 250 L 327 250 L 333 252 L 354 252 L 355 251 L 360 251 L 361 250 L 375 248 L 393 242 L 396 242 Z M 384 128 L 391 120 L 397 118 L 400 118 L 401 117 L 414 117 L 415 118 L 420 118 L 429 122 L 435 129 L 436 136 L 434 140 L 430 144 L 424 147 L 418 147 L 417 148 L 405 147 L 392 142 L 385 135 L 384 133 Z M 306 111 L 309 108 L 318 104 L 332 104 L 335 106 L 337 106 L 342 111 L 342 113 L 340 115 L 336 115 L 335 114 L 327 113 L 326 112 L 319 112 L 313 114 L 308 114 Z M 287 98 L 293 98 L 296 101 L 298 105 L 298 114 L 294 122 L 296 121 L 300 121 L 301 120 L 306 120 L 307 119 L 319 120 L 329 124 L 332 126 L 336 131 L 336 138 L 334 142 L 325 151 L 312 157 L 300 157 L 297 155 L 295 155 L 290 152 L 284 146 L 283 143 L 282 143 L 281 146 L 281 158 L 288 166 L 290 167 L 299 167 L 306 162 L 316 162 L 317 163 L 326 164 L 327 165 L 341 165 L 353 161 L 362 156 L 366 152 L 368 147 L 371 144 L 375 144 L 380 150 L 381 156 L 382 157 L 382 184 L 381 185 L 381 191 L 379 195 L 378 201 L 370 217 L 361 226 L 352 232 L 349 232 L 344 234 L 337 234 L 331 232 L 321 226 L 308 213 L 306 209 L 302 205 L 294 191 L 291 178 L 281 173 L 273 165 L 270 159 L 270 149 L 268 149 L 268 150 L 259 159 L 256 160 L 250 160 L 247 159 L 242 154 L 241 151 L 242 144 L 248 137 L 258 132 L 268 132 L 274 138 L 275 137 L 279 137 L 280 138 L 281 137 L 281 132 L 284 127 L 280 124 L 278 120 L 278 112 L 281 103 Z M 371 91 L 378 91 L 384 97 L 386 102 L 386 114 L 385 117 L 380 123 L 372 123 L 370 122 L 364 115 L 364 112 L 363 111 L 364 100 L 365 97 Z M 299 59 L 303 63 L 303 67 L 299 71 L 297 71 L 291 74 L 285 79 L 283 79 L 279 75 L 279 72 L 281 68 L 289 61 L 293 59 Z M 258 57 L 263 59 L 271 67 L 271 68 L 265 75 L 255 90 L 253 92 L 251 92 L 241 83 L 239 77 L 239 73 L 241 67 L 246 61 L 251 58 Z M 363 54 L 364 52 L 369 48 L 376 48 L 386 53 L 389 56 L 390 58 L 390 64 L 388 66 L 384 67 L 376 62 L 370 60 L 367 60 L 363 56 Z M 439 30 L 444 30 L 451 33 L 459 42 L 460 45 L 460 55 L 451 65 L 446 65 L 437 56 L 433 53 L 428 51 L 425 48 L 425 42 L 426 40 L 433 33 Z" fill="#FBFBFB" fill-rule="evenodd"/><path d="M 457 634 L 441 636 L 438 638 L 435 638 L 435 639 L 445 639 L 446 640 L 450 640 L 448 640 L 446 638 L 449 635 Z M 444 584 L 443 585 L 444 590 L 446 592 L 447 595 L 453 601 L 454 601 L 455 599 L 451 591 L 448 587 Z M 435 582 L 434 582 L 431 592 L 433 592 L 435 589 Z M 267 576 L 266 577 L 267 583 L 269 587 L 272 589 L 273 586 L 269 578 Z M 281 573 L 280 573 L 279 575 L 279 583 L 280 583 L 281 581 Z M 247 568 L 241 574 L 242 576 L 248 571 L 249 569 Z M 408 563 L 404 568 L 403 571 L 404 574 L 405 574 L 408 570 L 409 567 L 409 564 Z M 412 496 L 411 496 L 410 499 L 411 504 L 412 503 Z M 269 489 L 269 497 L 270 498 L 271 504 L 273 507 L 273 509 L 278 513 L 279 512 L 278 505 L 275 500 L 275 498 L 272 494 L 271 490 Z M 271 495 L 274 497 L 277 503 L 277 506 L 278 507 L 277 509 L 273 506 L 271 502 L 271 499 L 270 498 Z M 576 486 L 575 488 L 569 493 L 568 492 L 568 482 L 565 480 L 560 486 L 557 496 L 553 501 L 550 503 L 542 504 L 541 503 L 542 499 L 540 503 L 541 504 L 547 504 L 552 502 L 557 497 L 561 485 L 564 481 L 566 481 L 568 483 L 568 493 L 567 495 L 570 494 Z M 272 465 L 270 466 L 269 474 L 270 474 L 271 472 Z M 437 455 L 435 456 L 435 459 L 437 464 L 437 475 L 434 478 L 432 475 L 427 471 L 427 474 L 431 481 L 430 483 L 430 489 L 433 491 L 438 491 L 440 486 L 440 483 L 442 481 L 445 482 L 447 479 L 446 473 L 443 467 L 443 465 L 439 457 Z M 437 458 L 439 459 L 442 465 L 442 468 L 443 469 L 443 472 L 442 473 L 440 473 L 438 471 L 438 466 L 436 460 Z M 216 448 L 216 453 L 220 450 L 222 452 L 222 460 L 222 448 L 218 451 L 216 450 Z M 258 442 L 255 444 L 253 447 L 253 449 L 251 451 L 250 458 L 249 459 L 249 464 L 250 465 L 253 463 L 255 455 L 257 452 L 257 449 L 259 445 Z M 255 449 L 256 451 L 255 454 L 253 456 L 252 455 L 252 452 L 253 450 Z M 413 423 L 415 427 L 420 432 L 423 432 L 424 431 L 423 430 L 424 428 L 429 428 L 431 426 L 429 424 L 419 425 L 416 423 Z M 257 418 L 254 418 L 249 421 L 246 426 L 244 432 L 245 433 L 249 433 L 250 432 L 250 430 L 254 423 L 257 420 Z M 427 402 L 433 411 L 434 420 L 438 425 L 439 423 L 437 420 L 437 418 L 439 416 L 441 417 L 448 417 L 448 415 L 442 409 L 431 404 L 429 402 Z M 435 410 L 438 409 L 440 412 L 437 413 Z M 422 394 L 424 396 L 429 396 L 430 395 L 429 393 L 423 393 Z M 436 385 L 435 386 L 435 389 L 437 391 L 441 392 L 442 391 L 439 386 Z M 438 370 L 436 372 L 439 376 L 439 378 L 441 380 L 444 380 L 446 378 L 446 372 L 445 371 Z M 385 370 L 386 372 L 397 378 L 403 384 L 407 385 L 407 380 L 402 379 L 396 374 L 387 369 Z M 411 365 L 410 366 L 410 372 L 409 373 L 410 376 L 417 374 L 419 372 L 417 369 L 414 368 Z M 553 346 L 553 348 L 555 351 L 561 357 L 573 373 L 571 375 L 568 373 L 565 373 L 565 376 L 568 379 L 573 388 L 577 392 L 579 396 L 578 399 L 575 397 L 573 398 L 578 408 L 577 405 L 575 403 L 575 401 L 577 399 L 580 401 L 581 400 L 577 392 L 566 376 L 568 373 L 571 375 L 573 375 L 573 373 L 567 366 L 562 358 L 553 348 L 555 346 L 561 347 Z M 450 324 L 449 326 L 451 332 L 449 334 L 446 332 L 445 334 L 450 341 L 453 349 L 451 351 L 442 345 L 439 345 L 438 344 L 433 344 L 432 346 L 434 348 L 437 349 L 443 349 L 452 352 L 458 361 L 458 364 L 456 366 L 447 361 L 446 362 L 462 379 L 460 381 L 457 379 L 456 381 L 458 383 L 461 389 L 461 391 L 463 393 L 467 401 L 464 403 L 460 400 L 454 398 L 446 398 L 446 401 L 450 403 L 456 403 L 462 406 L 468 412 L 469 417 L 466 421 L 463 420 L 457 415 L 456 415 L 456 416 L 462 425 L 466 423 L 470 427 L 471 429 L 470 431 L 467 430 L 464 427 L 464 430 L 470 438 L 471 443 L 469 445 L 468 444 L 465 445 L 465 449 L 467 451 L 468 456 L 467 457 L 467 461 L 465 464 L 465 477 L 463 480 L 463 483 L 461 489 L 459 490 L 457 486 L 454 488 L 452 492 L 451 498 L 449 500 L 447 505 L 442 510 L 440 509 L 441 495 L 439 495 L 436 501 L 436 504 L 433 509 L 433 511 L 426 520 L 419 526 L 417 524 L 420 519 L 422 513 L 422 507 L 421 506 L 418 507 L 410 523 L 398 536 L 396 533 L 399 524 L 399 517 L 398 514 L 396 513 L 391 528 L 387 534 L 386 531 L 389 522 L 388 520 L 385 522 L 380 529 L 379 532 L 370 542 L 365 544 L 362 544 L 361 543 L 366 533 L 366 531 L 363 530 L 360 533 L 349 540 L 345 544 L 342 541 L 342 538 L 347 528 L 347 525 L 345 525 L 330 539 L 329 539 L 325 534 L 323 534 L 319 539 L 316 539 L 314 538 L 300 523 L 298 519 L 295 516 L 295 514 L 293 512 L 293 510 L 290 505 L 289 506 L 289 511 L 294 524 L 303 538 L 302 541 L 296 534 L 292 537 L 283 527 L 281 527 L 278 530 L 269 520 L 267 520 L 267 521 L 265 522 L 256 509 L 254 509 L 251 511 L 247 505 L 245 498 L 243 496 L 240 498 L 238 492 L 235 489 L 234 489 L 233 491 L 230 489 L 228 483 L 227 472 L 226 471 L 223 474 L 221 472 L 221 462 L 221 475 L 222 476 L 225 473 L 227 475 L 228 478 L 228 484 L 235 500 L 235 504 L 233 506 L 229 505 L 227 507 L 227 509 L 221 520 L 222 521 L 225 521 L 227 523 L 227 525 L 225 528 L 227 525 L 227 521 L 226 520 L 223 521 L 222 518 L 225 514 L 227 508 L 230 507 L 235 512 L 236 515 L 245 521 L 251 527 L 254 533 L 259 538 L 261 538 L 265 542 L 278 563 L 297 583 L 297 584 L 293 587 L 293 589 L 296 592 L 294 595 L 291 593 L 287 587 L 286 588 L 286 594 L 287 596 L 295 604 L 296 608 L 298 610 L 298 615 L 295 618 L 295 622 L 298 629 L 294 631 L 294 633 L 292 636 L 289 635 L 288 638 L 289 642 L 292 644 L 296 649 L 295 650 L 295 656 L 294 658 L 289 663 L 286 663 L 282 667 L 277 669 L 273 673 L 267 673 L 266 674 L 244 674 L 241 672 L 243 674 L 269 674 L 270 673 L 278 673 L 279 672 L 287 672 L 288 671 L 293 671 L 294 670 L 300 670 L 301 669 L 306 669 L 307 668 L 311 668 L 317 666 L 323 661 L 325 657 L 325 638 L 324 637 L 324 628 L 326 626 L 330 628 L 331 625 L 331 612 L 330 611 L 329 596 L 331 594 L 335 597 L 336 596 L 336 584 L 339 575 L 337 573 L 334 573 L 322 569 L 317 566 L 315 566 L 308 560 L 308 558 L 310 556 L 314 555 L 329 560 L 333 560 L 334 561 L 338 561 L 344 563 L 352 563 L 353 564 L 375 563 L 380 561 L 384 562 L 386 564 L 386 568 L 383 571 L 380 572 L 379 574 L 382 578 L 386 594 L 390 593 L 391 594 L 391 597 L 391 593 L 387 590 L 389 579 L 392 573 L 398 566 L 403 556 L 408 552 L 415 544 L 417 543 L 421 544 L 429 535 L 433 537 L 441 526 L 445 529 L 452 522 L 458 520 L 469 511 L 474 516 L 479 528 L 488 537 L 486 539 L 482 537 L 478 537 L 478 539 L 485 545 L 485 547 L 484 548 L 473 548 L 473 549 L 482 553 L 486 557 L 490 568 L 488 570 L 478 563 L 475 564 L 477 568 L 488 580 L 489 583 L 487 585 L 484 585 L 478 583 L 467 578 L 466 580 L 477 590 L 490 597 L 493 600 L 493 604 L 491 606 L 489 606 L 485 603 L 489 612 L 489 614 L 484 616 L 482 622 L 482 627 L 485 633 L 484 635 L 480 633 L 459 633 L 478 633 L 485 636 L 484 639 L 478 639 L 486 639 L 488 637 L 495 637 L 499 640 L 506 643 L 510 646 L 514 651 L 516 655 L 516 661 L 517 662 L 516 670 L 510 677 L 507 675 L 507 668 L 506 665 L 507 668 L 507 676 L 510 677 L 514 674 L 517 668 L 516 655 L 512 648 L 509 645 L 499 640 L 496 637 L 496 635 L 500 630 L 501 621 L 502 620 L 502 615 L 503 614 L 503 588 L 501 582 L 504 580 L 504 577 L 500 569 L 502 567 L 508 569 L 504 557 L 496 543 L 498 540 L 500 540 L 506 544 L 507 543 L 499 524 L 499 521 L 501 519 L 504 520 L 504 515 L 503 514 L 503 510 L 502 509 L 502 505 L 500 501 L 500 498 L 490 493 L 482 484 L 481 480 L 479 477 L 479 473 L 478 472 L 478 459 L 479 458 L 481 447 L 483 444 L 484 439 L 483 438 L 483 434 L 482 433 L 479 414 L 476 405 L 476 401 L 470 383 L 463 369 L 462 364 L 460 362 L 454 350 L 454 346 L 453 345 L 456 342 L 459 343 L 461 345 L 473 363 L 480 378 L 483 388 L 485 391 L 488 405 L 489 406 L 489 408 L 486 394 L 483 385 L 481 382 L 478 371 L 473 363 L 471 357 L 469 355 L 467 350 L 461 342 L 461 340 L 458 334 Z M 489 614 L 493 619 L 493 622 L 491 624 L 489 623 L 489 619 L 488 618 L 488 615 Z M 480 568 L 482 567 L 485 570 L 483 571 L 481 570 Z M 362 533 L 363 536 L 362 538 L 360 539 L 359 536 Z M 270 522 L 283 537 L 284 539 L 282 541 L 281 541 L 274 534 L 269 527 L 268 524 Z M 397 518 L 398 519 L 398 524 L 397 525 L 397 528 L 395 529 L 394 528 L 394 522 L 395 519 Z M 259 515 L 269 528 L 267 530 L 262 526 L 258 520 L 257 517 Z M 293 514 L 301 526 L 306 531 L 306 534 L 305 535 L 301 532 L 294 522 L 292 518 L 292 515 Z M 421 508 L 422 510 L 421 511 L 420 518 L 417 524 L 414 526 L 412 523 L 415 519 L 415 516 L 418 511 L 418 509 Z M 244 499 L 246 501 L 246 503 L 249 508 L 251 514 L 249 517 L 246 514 L 243 507 L 242 501 Z M 429 312 L 429 316 L 432 319 L 434 323 L 435 320 L 432 314 Z M 372 312 L 372 315 L 375 316 L 374 312 Z M 378 311 L 383 317 L 388 317 L 389 318 L 391 317 L 392 312 L 391 312 L 391 314 L 389 316 L 387 316 L 380 310 Z M 525 301 L 533 306 L 545 316 L 544 318 L 535 317 L 534 319 L 546 329 L 560 343 L 561 343 L 564 346 L 563 348 L 565 347 L 535 319 L 537 317 L 539 318 L 546 318 L 546 317 L 541 312 Z M 432 299 L 431 300 L 432 302 L 435 304 L 436 303 L 435 300 Z M 418 294 L 416 297 L 420 301 L 420 309 L 416 313 L 412 314 L 414 317 L 417 316 L 423 308 L 423 306 L 420 302 L 420 297 Z M 383 293 L 381 295 L 381 297 L 387 305 L 389 306 L 385 294 Z M 312 292 L 310 292 L 307 295 L 306 299 L 309 297 Z M 257 273 L 252 277 L 252 282 L 250 285 L 250 287 L 257 283 L 256 281 L 253 280 L 253 279 L 258 275 Z M 259 264 L 263 266 L 266 265 L 267 263 L 266 262 L 261 262 Z M 417 260 L 415 260 L 411 263 L 413 264 L 417 262 Z M 264 253 L 265 255 L 268 255 L 269 254 L 267 252 Z M 397 244 L 396 243 L 388 244 L 385 246 L 379 247 L 375 249 L 371 249 L 370 250 L 366 250 L 360 252 L 355 252 L 354 253 L 333 253 L 327 251 L 320 251 L 318 253 L 318 255 L 329 267 L 336 272 L 347 278 L 355 279 L 361 276 L 365 276 L 367 275 L 371 271 L 374 270 L 377 267 L 381 265 L 395 251 L 397 248 Z M 352 255 L 353 254 L 358 254 L 359 256 L 358 257 L 353 257 Z M 327 254 L 328 253 L 330 254 L 335 254 L 336 256 L 335 257 L 331 257 L 328 256 Z M 319 254 L 321 252 L 324 252 L 326 254 L 325 257 L 332 264 L 335 265 L 338 268 L 343 270 L 345 272 L 350 272 L 352 274 L 355 274 L 363 271 L 368 267 L 370 267 L 373 264 L 379 261 L 384 256 L 385 259 L 364 275 L 359 275 L 357 277 L 354 278 L 350 278 L 336 271 L 329 266 L 319 256 Z M 211 205 L 215 214 L 219 219 L 221 219 L 223 217 L 223 213 L 225 211 L 230 217 L 230 219 L 234 227 L 237 230 L 239 231 L 241 229 L 241 227 L 244 226 L 251 239 L 253 241 L 255 241 L 257 239 L 257 237 L 259 236 L 272 249 L 275 249 L 277 247 L 277 244 L 279 242 L 286 245 L 292 250 L 294 249 L 294 245 L 290 240 L 286 237 L 284 237 L 276 232 L 274 232 L 271 230 L 262 220 L 259 220 L 256 217 L 255 215 L 255 211 L 253 208 L 251 209 L 249 213 L 248 213 L 245 209 L 245 208 L 246 211 L 249 214 L 250 212 L 253 210 L 255 212 L 256 218 L 259 221 L 262 221 L 277 240 L 277 246 L 274 249 L 272 249 L 258 234 L 257 235 L 257 238 L 254 241 L 250 237 L 247 230 L 243 225 L 241 226 L 241 229 L 240 230 L 237 230 L 234 227 L 228 213 L 225 210 L 223 211 L 223 217 L 220 219 L 214 212 L 213 208 Z M 285 241 L 287 240 L 292 246 L 291 247 L 289 246 Z M 54 161 L 55 172 L 61 183 L 82 205 L 92 213 L 94 219 L 92 213 L 86 207 L 80 203 L 62 184 L 55 172 Z M 375 145 L 371 145 L 369 147 L 367 152 L 360 158 L 367 152 L 369 147 L 371 145 L 374 145 L 378 149 L 380 154 L 380 159 L 381 160 L 381 183 L 380 184 L 380 189 L 379 190 L 379 193 L 378 194 L 378 197 L 372 212 L 365 221 L 361 223 L 354 229 L 345 232 L 336 232 L 324 227 L 320 224 L 307 210 L 298 197 L 295 190 L 298 197 L 309 213 L 325 228 L 337 233 L 344 233 L 345 232 L 352 231 L 361 225 L 371 214 L 377 201 L 378 195 L 380 191 L 380 185 L 381 184 L 381 157 L 380 156 L 379 150 Z M 245 141 L 243 144 L 242 151 L 243 154 L 247 158 L 250 159 L 256 159 L 259 158 L 268 148 L 270 148 L 271 149 L 271 159 L 274 165 L 281 172 L 284 173 L 286 175 L 290 176 L 292 178 L 292 180 L 292 178 L 290 176 L 286 175 L 284 173 L 281 172 L 275 166 L 271 159 L 271 145 L 272 142 L 276 138 L 279 138 L 281 140 L 281 145 L 280 146 L 280 158 L 288 167 L 289 167 L 288 167 L 280 158 L 280 146 L 281 143 L 283 142 L 285 146 L 290 151 L 296 154 L 290 151 L 286 147 L 282 140 L 282 137 L 280 139 L 279 138 L 275 138 L 274 139 L 268 133 L 258 133 L 251 136 Z M 271 137 L 271 141 L 269 144 L 267 143 L 268 141 L 266 137 L 263 137 L 262 138 L 257 138 L 254 140 L 254 141 L 250 144 L 248 148 L 251 149 L 254 154 L 259 152 L 260 153 L 257 157 L 255 158 L 248 158 L 244 154 L 243 152 L 243 146 L 250 138 L 253 136 L 262 133 L 266 133 Z M 385 128 L 385 133 L 386 135 L 392 141 L 405 146 L 412 146 L 413 147 L 424 146 L 430 143 L 433 140 L 435 136 L 434 129 L 429 123 L 423 120 L 415 119 L 414 118 L 401 118 L 400 119 L 397 119 L 391 121 Z M 385 129 L 391 122 L 395 120 L 404 119 L 405 118 L 412 118 L 413 119 L 422 120 L 428 123 L 433 128 L 435 132 L 435 136 L 434 138 L 427 144 L 421 145 L 420 146 L 409 146 L 408 145 L 403 145 L 393 141 L 387 136 L 385 132 Z M 243 114 L 239 123 L 240 134 L 228 147 L 228 149 L 236 148 L 238 150 L 238 152 L 235 156 L 235 158 L 231 165 L 231 170 L 232 171 L 236 168 L 238 170 L 238 174 L 238 169 L 237 168 L 234 169 L 231 168 L 231 165 L 238 152 L 238 149 L 237 148 L 230 149 L 228 147 L 240 134 L 239 123 Z M 475 113 L 480 117 L 483 118 L 490 124 L 488 126 L 479 126 L 478 127 L 478 130 L 487 139 L 493 148 L 491 150 L 487 148 L 484 148 L 482 150 L 491 170 L 489 172 L 486 170 L 483 170 L 481 175 L 479 173 L 479 167 L 477 167 L 472 161 L 469 160 L 467 158 L 462 158 L 461 159 L 470 169 L 468 172 L 463 172 L 463 173 L 467 176 L 468 178 L 468 182 L 466 184 L 464 184 L 462 182 L 458 182 L 457 183 L 461 188 L 462 193 L 459 195 L 457 193 L 455 193 L 452 191 L 448 191 L 448 192 L 455 199 L 456 202 L 454 204 L 451 203 L 447 208 L 447 213 L 445 215 L 441 212 L 439 213 L 440 215 L 440 221 L 437 225 L 435 225 L 434 223 L 432 222 L 430 226 L 430 232 L 427 235 L 425 233 L 425 229 L 423 228 L 419 233 L 418 236 L 414 236 L 406 243 L 403 252 L 405 253 L 407 251 L 407 249 L 415 240 L 417 241 L 417 247 L 418 248 L 423 248 L 427 245 L 428 246 L 443 246 L 446 249 L 449 248 L 453 242 L 463 241 L 464 242 L 471 243 L 490 252 L 494 253 L 495 254 L 494 256 L 489 256 L 488 258 L 492 262 L 494 262 L 500 265 L 514 275 L 500 265 L 491 261 L 489 258 L 491 256 L 497 256 L 497 255 L 492 252 L 490 252 L 488 250 L 486 250 L 471 243 L 470 240 L 474 238 L 473 237 L 469 237 L 467 236 L 466 233 L 468 230 L 463 230 L 461 228 L 461 226 L 467 220 L 474 208 L 476 202 L 476 194 L 479 191 L 482 193 L 483 192 L 484 180 L 483 179 L 482 172 L 484 170 L 486 170 L 489 173 L 491 172 L 491 169 L 489 166 L 488 161 L 482 151 L 485 148 L 492 150 L 493 147 L 489 141 L 478 129 L 480 126 L 490 126 L 491 125 L 486 120 L 480 117 Z M 440 237 L 442 240 L 437 245 L 435 245 L 433 242 L 438 237 Z M 455 222 L 456 225 L 453 228 L 452 231 L 447 236 L 445 236 L 444 235 L 445 231 L 454 222 Z M 296 116 L 295 119 L 290 124 L 287 126 L 284 126 L 279 120 L 279 112 L 279 120 L 281 124 L 285 127 L 282 132 L 282 134 L 283 130 L 286 127 L 293 123 L 298 122 L 295 123 L 293 122 Z M 307 111 L 308 113 L 313 113 L 319 111 L 326 111 L 327 112 L 331 112 L 336 114 L 340 114 L 341 113 L 341 111 L 337 107 L 335 107 L 332 105 L 318 105 L 309 109 Z M 314 109 L 317 107 L 329 107 L 330 108 L 335 108 L 338 112 L 337 113 L 329 110 L 318 110 L 315 111 Z M 100 100 L 97 102 L 95 106 L 95 115 L 96 117 L 97 117 L 97 111 L 99 106 L 101 104 L 104 104 L 107 107 L 108 110 L 114 118 L 118 127 L 118 131 L 112 136 L 108 136 L 106 134 L 104 134 L 102 137 L 100 137 L 93 129 L 87 125 L 82 124 L 79 126 L 76 126 L 74 128 L 73 131 L 74 136 L 75 137 L 76 136 L 77 132 L 80 129 L 83 129 L 89 132 L 96 139 L 98 143 L 98 149 L 95 153 L 89 153 L 80 147 L 81 151 L 78 154 L 68 156 L 66 159 L 68 156 L 71 158 L 71 167 L 72 168 L 72 171 L 71 172 L 68 169 L 66 164 L 66 166 L 69 172 L 75 178 L 80 185 L 92 197 L 97 200 L 103 206 L 103 209 L 115 238 L 130 259 L 143 271 L 147 273 L 157 282 L 155 285 L 153 286 L 149 286 L 148 287 L 159 294 L 172 298 L 180 303 L 177 307 L 173 307 L 172 308 L 174 310 L 179 312 L 186 313 L 187 314 L 191 314 L 192 315 L 199 316 L 201 318 L 201 320 L 197 324 L 198 325 L 217 328 L 219 330 L 217 333 L 217 335 L 223 337 L 226 337 L 227 338 L 229 337 L 232 328 L 237 320 L 241 319 L 245 322 L 245 326 L 240 339 L 237 354 L 228 366 L 229 369 L 230 368 L 233 368 L 235 370 L 235 372 L 220 391 L 221 393 L 227 392 L 229 394 L 229 396 L 225 401 L 218 414 L 225 401 L 229 396 L 229 393 L 228 392 L 223 392 L 222 393 L 220 391 L 235 372 L 235 369 L 234 368 L 230 368 L 229 367 L 230 363 L 238 353 L 241 352 L 252 343 L 264 326 L 263 324 L 260 324 L 251 330 L 246 335 L 244 336 L 242 335 L 245 326 L 245 321 L 252 307 L 252 305 L 255 299 L 255 296 L 254 295 L 251 295 L 243 301 L 240 308 L 236 312 L 224 312 L 223 311 L 219 311 L 217 309 L 220 306 L 224 305 L 227 302 L 225 300 L 216 300 L 215 299 L 212 299 L 203 294 L 201 295 L 193 295 L 192 294 L 189 294 L 187 291 L 189 289 L 191 289 L 194 287 L 194 285 L 192 283 L 186 281 L 182 281 L 181 280 L 174 279 L 164 274 L 162 274 L 151 264 L 147 262 L 120 235 L 120 234 L 118 234 L 116 236 L 114 235 L 114 233 L 112 231 L 112 227 L 109 224 L 108 219 L 104 211 L 103 205 L 99 201 L 94 198 L 85 189 L 78 180 L 78 178 L 79 177 L 81 178 L 85 178 L 89 175 L 91 175 L 94 183 L 101 191 L 106 193 L 116 193 L 127 188 L 129 188 L 133 185 L 135 185 L 139 182 L 144 180 L 148 176 L 153 168 L 153 156 L 150 149 L 147 145 L 141 140 L 134 137 L 126 137 L 120 139 L 111 144 L 103 152 L 97 163 L 93 167 L 91 166 L 90 162 L 82 155 L 82 153 L 85 152 L 89 154 L 95 154 L 98 151 L 98 141 L 94 135 L 88 131 L 85 127 L 88 126 L 92 129 L 100 138 L 103 138 L 105 136 L 111 137 L 117 134 L 119 130 L 118 123 L 116 121 L 109 108 L 106 105 L 107 103 L 110 104 L 115 110 L 119 119 L 119 121 L 122 126 L 125 129 L 129 128 L 135 132 L 139 132 L 141 131 L 144 128 L 145 123 L 147 121 L 151 126 L 154 126 L 157 122 L 162 118 L 163 120 L 157 126 L 152 134 L 152 141 L 153 144 L 158 148 L 162 148 L 164 147 L 170 141 L 172 135 L 172 128 L 174 127 L 175 128 L 175 142 L 174 143 L 173 150 L 171 153 L 170 160 L 184 177 L 187 183 L 195 194 L 198 197 L 201 197 L 204 194 L 207 197 L 210 203 L 207 196 L 204 193 L 201 197 L 199 197 L 193 191 L 177 167 L 170 159 L 174 147 L 175 133 L 176 132 L 174 121 L 170 116 L 164 116 L 162 117 L 153 126 L 151 126 L 148 122 L 148 119 L 147 118 L 147 115 L 144 106 L 137 98 L 134 97 L 132 98 L 132 99 L 136 101 L 141 106 L 145 118 L 145 125 L 143 129 L 141 131 L 134 131 L 129 126 L 125 128 L 122 125 L 114 108 L 110 103 L 104 100 Z M 261 325 L 262 328 L 258 334 L 254 338 L 251 343 L 249 345 L 247 345 L 246 343 L 251 337 L 250 333 L 258 326 Z M 214 302 L 215 301 L 223 301 L 224 303 L 222 305 L 219 305 L 218 306 L 216 305 Z M 253 296 L 255 298 L 250 308 L 250 310 L 247 316 L 245 318 L 243 316 L 243 314 L 246 310 L 247 304 L 243 308 L 242 308 L 241 306 L 243 302 L 250 296 Z M 187 285 L 190 284 L 191 286 L 188 287 Z M 75 158 L 82 158 L 87 160 L 90 164 L 90 170 L 85 176 L 82 176 L 78 174 L 74 170 L 72 166 L 72 161 Z M 143 142 L 149 148 L 152 153 L 152 156 L 153 157 L 153 167 L 149 174 L 143 180 L 140 181 L 138 183 L 118 192 L 110 193 L 101 190 L 95 184 L 92 177 L 92 171 L 98 162 L 101 155 L 105 150 L 115 142 L 128 137 L 133 137 Z M 166 119 L 171 124 L 171 127 L 172 128 L 171 131 L 171 137 L 169 141 L 163 147 L 157 147 L 153 143 L 152 135 L 158 126 L 165 119 Z M 167 117 L 169 116 L 172 119 L 170 121 Z M 105 90 L 108 90 L 117 93 L 120 90 L 127 86 L 137 86 L 145 90 L 150 95 L 152 100 L 157 107 L 160 106 L 157 106 L 152 100 L 152 98 L 150 95 L 145 90 L 142 88 L 140 88 L 138 86 L 127 86 L 117 92 L 112 92 L 109 90 Z M 302 63 L 299 60 L 293 60 L 289 62 L 282 68 L 280 72 L 280 75 L 283 78 L 285 78 L 291 73 L 297 70 L 299 70 L 302 67 Z M 302 63 L 302 67 L 299 70 L 294 71 L 285 78 L 283 78 L 280 75 L 280 72 L 283 67 L 289 62 L 293 60 L 299 60 Z M 258 58 L 251 59 L 246 62 L 242 67 L 240 73 L 240 77 L 242 83 L 251 91 L 254 90 L 264 75 L 270 68 L 270 67 L 263 60 Z M 259 60 L 263 62 L 268 67 L 266 69 L 261 66 L 260 67 L 261 69 L 263 69 L 265 71 L 260 77 L 255 69 L 252 67 L 249 68 L 256 72 L 256 75 L 255 76 L 250 75 L 247 72 L 247 77 L 246 78 L 247 81 L 249 77 L 252 77 L 253 78 L 259 77 L 260 78 L 255 86 L 251 89 L 247 87 L 242 81 L 241 73 L 243 68 L 249 61 L 252 60 Z M 439 31 L 433 34 L 427 40 L 426 42 L 426 48 L 437 55 L 446 64 L 451 64 L 459 55 L 459 45 L 458 42 L 451 34 L 444 31 Z M 433 35 L 440 32 L 447 33 L 457 42 L 459 46 L 459 52 L 458 55 L 452 62 L 447 63 L 438 54 L 427 47 L 427 42 Z M 397 35 L 388 34 L 382 32 L 366 32 L 365 33 L 360 33 L 358 31 L 360 26 L 360 23 L 359 22 L 353 25 L 346 33 L 344 33 L 342 31 L 334 27 L 328 26 L 327 28 L 330 32 L 330 36 L 328 38 L 314 38 L 313 39 L 310 39 L 306 44 L 299 46 L 306 44 L 310 39 L 313 39 L 314 38 L 329 38 L 330 37 L 330 32 L 327 28 L 329 26 L 336 28 L 344 33 L 347 33 L 355 24 L 358 23 L 360 25 L 358 30 L 358 32 L 360 34 L 366 32 L 382 32 L 383 33 Z" fill="#D8D8D8" fill-rule="evenodd"/><path d="M 447 638 L 448 639 L 459 638 L 460 637 L 484 638 L 484 636 L 478 634 L 458 634 L 453 636 L 449 636 Z M 462 635 L 463 634 L 473 634 L 474 636 L 473 637 L 463 637 Z M 270 523 L 269 524 L 272 530 L 281 540 L 283 539 L 282 537 Z M 397 519 L 396 519 L 395 522 L 395 528 L 396 528 L 396 525 L 397 524 Z M 259 516 L 258 517 L 259 520 L 263 526 L 267 529 L 268 528 Z M 293 515 L 293 518 L 295 522 L 302 532 L 305 534 L 305 531 L 300 526 Z M 421 509 L 419 509 L 419 511 L 416 516 L 416 519 L 413 523 L 414 525 L 416 524 L 419 518 Z M 244 500 L 243 501 L 244 507 L 247 514 L 249 516 L 250 514 Z M 271 496 L 272 502 L 274 506 L 277 508 L 276 503 L 273 497 Z M 437 459 L 438 461 L 438 465 L 439 466 L 439 471 L 442 472 L 441 465 L 438 459 Z M 261 326 L 258 327 L 251 333 L 252 337 L 247 344 L 250 343 L 261 328 Z M 215 302 L 215 303 L 218 305 L 223 303 L 223 302 Z M 253 297 L 250 297 L 244 302 L 242 307 L 243 307 L 247 303 L 248 304 L 247 310 L 244 314 L 245 317 L 254 298 Z M 320 254 L 320 256 L 329 265 L 336 270 L 350 277 L 354 277 L 357 276 L 359 274 L 364 274 L 384 259 L 384 257 L 379 262 L 376 263 L 370 268 L 368 268 L 363 272 L 355 275 L 352 275 L 350 273 L 345 273 L 343 271 L 338 269 L 335 266 L 332 265 L 324 257 L 325 255 L 324 253 L 321 253 Z M 441 239 L 438 238 L 434 243 L 437 244 Z M 455 223 L 454 223 L 446 231 L 445 235 L 447 235 L 451 231 L 452 228 L 455 225 Z M 75 159 L 73 161 L 73 166 L 75 170 L 78 173 L 82 175 L 85 175 L 89 170 L 89 164 L 87 161 L 82 159 Z M 273 142 L 272 145 L 272 159 L 274 163 L 281 171 L 284 172 L 286 174 L 290 175 L 293 178 L 294 186 L 299 197 L 308 210 L 320 223 L 324 226 L 336 231 L 345 231 L 354 228 L 367 218 L 371 212 L 377 197 L 377 194 L 378 193 L 378 190 L 379 189 L 379 184 L 380 183 L 380 160 L 379 159 L 378 151 L 374 146 L 371 146 L 368 152 L 362 158 L 353 163 L 344 166 L 341 166 L 340 167 L 328 167 L 327 166 L 322 166 L 321 165 L 308 163 L 299 169 L 291 169 L 288 168 L 279 158 L 279 146 L 280 145 L 280 140 L 279 139 L 276 139 Z M 273 143 L 277 139 L 279 141 L 279 150 L 278 151 L 279 159 L 286 167 L 293 170 L 298 170 L 307 164 L 314 164 L 315 165 L 319 165 L 325 167 L 331 167 L 332 168 L 337 168 L 338 167 L 346 166 L 352 163 L 354 163 L 364 157 L 368 153 L 369 150 L 372 147 L 374 147 L 376 149 L 379 157 L 379 184 L 378 185 L 378 189 L 377 190 L 375 201 L 368 215 L 364 219 L 362 217 L 370 201 L 371 194 L 369 190 L 365 186 L 358 183 L 348 183 L 347 184 L 344 184 L 332 191 L 327 196 L 322 204 L 322 207 L 321 208 L 322 214 L 332 226 L 329 228 L 321 223 L 308 209 L 299 196 L 294 184 L 293 176 L 285 173 L 275 164 L 272 157 Z M 143 143 L 136 139 L 128 138 L 127 139 L 121 140 L 109 147 L 102 155 L 99 162 L 93 171 L 93 177 L 96 184 L 101 189 L 105 191 L 112 192 L 113 191 L 118 191 L 121 189 L 128 187 L 143 179 L 148 174 L 152 167 L 152 157 L 151 156 L 151 153 L 148 148 Z M 270 137 L 266 134 L 262 134 L 253 137 L 250 139 L 244 146 L 244 152 L 245 154 L 248 157 L 255 157 L 257 156 L 259 153 L 254 155 L 250 149 L 247 148 L 249 144 L 257 137 L 262 137 L 263 136 L 266 136 L 269 140 L 268 143 L 269 143 L 270 141 Z M 334 131 L 326 124 L 320 122 L 316 122 L 315 121 L 306 121 L 305 122 L 299 122 L 289 126 L 284 130 L 282 136 L 283 137 L 283 140 L 287 147 L 293 152 L 300 155 L 312 155 L 323 150 L 331 143 L 334 138 Z M 287 128 L 297 123 L 305 122 L 306 121 L 314 121 L 315 122 L 322 123 L 328 126 L 333 131 L 334 136 L 331 142 L 322 150 L 310 155 L 302 155 L 294 152 L 286 145 L 283 139 L 283 133 Z M 166 120 L 165 120 L 159 126 L 153 135 L 154 143 L 157 146 L 163 146 L 168 141 L 170 137 L 170 131 L 171 128 L 170 127 L 170 124 Z M 386 129 L 386 132 L 388 136 L 393 140 L 403 144 L 408 144 L 409 145 L 420 145 L 421 144 L 427 143 L 430 141 L 434 136 L 434 132 L 432 128 L 428 124 L 422 121 L 413 120 L 412 119 L 405 119 L 404 120 L 395 121 L 391 123 Z M 315 109 L 315 110 L 318 109 L 329 109 L 337 112 L 335 109 L 330 109 L 329 108 L 317 108 Z M 292 100 L 287 100 L 285 101 L 282 105 L 280 111 L 280 120 L 284 125 L 287 125 L 294 119 L 296 115 L 296 105 Z M 292 100 L 296 106 L 296 114 L 294 118 L 288 124 L 284 125 L 280 119 L 281 109 L 283 104 L 286 101 L 288 100 Z M 373 92 L 367 97 L 367 99 L 365 102 L 365 112 L 367 117 L 371 121 L 377 122 L 382 118 L 384 114 L 384 102 L 382 97 L 378 93 Z M 372 93 L 377 93 L 382 98 L 384 104 L 384 112 L 383 115 L 378 121 L 372 121 L 367 116 L 365 110 L 365 104 L 368 97 Z M 301 63 L 299 61 L 293 61 L 289 63 L 284 67 L 281 72 L 281 75 L 283 77 L 285 77 L 294 70 L 299 69 L 301 67 Z M 301 64 L 301 66 L 299 68 L 293 70 L 286 76 L 283 76 L 282 75 L 282 71 L 283 69 L 290 63 L 294 61 L 298 61 Z M 259 61 L 252 61 L 249 62 L 244 68 L 242 73 L 243 81 L 247 86 L 251 88 L 254 86 L 259 78 L 256 78 L 255 79 L 249 78 L 247 82 L 245 80 L 246 72 L 247 71 L 250 74 L 255 75 L 255 72 L 250 70 L 248 68 L 250 66 L 252 66 L 256 69 L 260 76 L 264 71 L 261 70 L 259 67 L 261 65 L 266 68 L 267 67 L 263 63 Z M 252 81 L 254 83 L 252 86 L 250 84 Z M 365 54 L 365 56 L 367 58 L 370 58 L 376 60 L 384 65 L 386 65 L 388 63 L 388 58 L 387 56 L 377 50 L 369 50 L 367 51 Z M 366 53 L 370 50 L 378 51 L 384 54 L 387 57 L 388 62 L 386 64 L 383 64 L 375 59 L 367 57 L 366 56 Z M 433 36 L 428 42 L 428 47 L 438 53 L 447 62 L 452 61 L 457 55 L 458 52 L 458 46 L 456 42 L 447 34 L 440 33 Z M 453 15 L 447 13 L 441 13 L 440 12 L 436 12 L 435 13 L 428 14 L 419 19 L 414 24 L 410 30 L 409 35 L 407 37 L 396 33 L 386 32 L 385 31 L 379 31 L 378 30 L 370 30 L 369 31 L 363 31 L 362 32 L 360 30 L 362 24 L 361 21 L 357 21 L 352 24 L 346 31 L 344 31 L 333 25 L 327 24 L 326 25 L 326 29 L 329 34 L 327 36 L 324 36 L 323 37 L 310 37 L 307 39 L 307 41 L 305 43 L 300 44 L 292 48 L 283 55 L 281 55 L 275 47 L 264 41 L 251 41 L 245 43 L 237 48 L 230 55 L 226 63 L 225 80 L 230 91 L 235 96 L 241 100 L 243 100 L 246 103 L 246 105 L 243 110 L 240 119 L 238 121 L 238 130 L 239 132 L 228 144 L 226 148 L 228 151 L 234 150 L 236 152 L 230 163 L 229 171 L 230 172 L 233 172 L 235 170 L 237 172 L 235 182 L 234 183 L 234 191 L 236 193 L 239 193 L 240 192 L 242 194 L 242 203 L 245 212 L 248 215 L 253 214 L 255 217 L 256 221 L 259 223 L 262 223 L 266 227 L 276 241 L 276 245 L 274 247 L 272 247 L 258 232 L 256 232 L 255 236 L 253 238 L 248 231 L 246 226 L 243 223 L 241 223 L 240 226 L 238 228 L 234 224 L 229 212 L 226 209 L 223 209 L 222 210 L 222 214 L 219 216 L 215 211 L 214 207 L 208 195 L 204 191 L 199 195 L 194 190 L 190 183 L 182 173 L 181 170 L 172 160 L 172 155 L 176 144 L 177 126 L 174 118 L 171 115 L 168 114 L 161 116 L 154 124 L 152 124 L 149 121 L 148 113 L 146 107 L 141 100 L 134 95 L 129 98 L 126 102 L 126 105 L 125 106 L 125 116 L 126 117 L 126 121 L 124 123 L 121 120 L 120 116 L 118 114 L 114 106 L 108 100 L 106 99 L 99 99 L 97 100 L 94 104 L 94 107 L 93 108 L 93 116 L 100 130 L 100 132 L 99 133 L 87 123 L 78 123 L 76 124 L 72 129 L 72 135 L 77 145 L 78 151 L 76 153 L 68 154 L 65 157 L 64 159 L 65 167 L 70 176 L 79 187 L 94 201 L 98 203 L 101 206 L 108 227 L 115 241 L 123 253 L 139 270 L 148 276 L 153 281 L 152 284 L 147 284 L 146 287 L 157 295 L 174 301 L 177 304 L 175 306 L 171 306 L 170 307 L 170 309 L 172 311 L 183 315 L 188 315 L 189 316 L 196 317 L 198 319 L 194 324 L 196 326 L 202 328 L 214 329 L 216 331 L 213 334 L 217 337 L 220 337 L 225 339 L 229 339 L 234 330 L 235 326 L 240 321 L 244 324 L 243 329 L 241 332 L 237 344 L 236 353 L 226 367 L 227 370 L 232 370 L 233 373 L 221 387 L 218 392 L 219 395 L 226 393 L 227 394 L 227 397 L 221 405 L 213 422 L 213 425 L 214 426 L 216 426 L 218 424 L 221 425 L 221 428 L 219 431 L 216 445 L 215 446 L 215 456 L 216 457 L 219 453 L 221 455 L 219 475 L 221 479 L 224 477 L 226 478 L 227 486 L 233 499 L 233 502 L 231 504 L 229 502 L 227 503 L 226 508 L 219 521 L 220 523 L 224 522 L 225 523 L 225 526 L 222 531 L 222 533 L 219 538 L 218 542 L 221 543 L 224 541 L 226 543 L 220 560 L 219 570 L 221 571 L 224 569 L 226 571 L 223 584 L 227 587 L 227 595 L 229 599 L 230 610 L 231 611 L 232 618 L 236 626 L 232 629 L 224 629 L 223 630 L 219 630 L 209 634 L 203 640 L 200 646 L 198 659 L 200 665 L 205 669 L 208 668 L 207 660 L 208 659 L 209 653 L 214 648 L 216 648 L 218 650 L 215 659 L 215 670 L 218 672 L 221 672 L 222 673 L 229 673 L 230 674 L 232 673 L 231 664 L 234 656 L 238 652 L 240 652 L 242 654 L 242 657 L 240 661 L 240 667 L 239 668 L 239 671 L 241 675 L 275 675 L 276 674 L 282 674 L 283 673 L 292 673 L 293 672 L 299 672 L 300 671 L 305 671 L 306 670 L 314 669 L 321 666 L 323 664 L 327 655 L 327 641 L 326 640 L 326 634 L 325 632 L 327 630 L 329 631 L 332 630 L 332 606 L 331 605 L 331 599 L 333 597 L 335 599 L 337 598 L 337 586 L 340 578 L 340 573 L 316 565 L 310 560 L 312 557 L 315 557 L 316 558 L 323 559 L 331 562 L 335 562 L 341 564 L 347 564 L 348 565 L 355 565 L 356 566 L 365 566 L 366 565 L 371 565 L 372 564 L 377 564 L 378 563 L 383 563 L 385 565 L 385 567 L 381 571 L 378 572 L 378 575 L 382 583 L 382 586 L 384 591 L 384 595 L 386 597 L 387 596 L 389 597 L 389 612 L 393 614 L 393 630 L 394 633 L 396 633 L 398 631 L 400 633 L 400 649 L 398 654 L 398 667 L 400 672 L 404 676 L 410 679 L 416 681 L 419 681 L 420 682 L 438 684 L 439 683 L 438 666 L 441 662 L 444 662 L 446 664 L 446 667 L 447 668 L 447 683 L 448 684 L 469 684 L 471 682 L 471 673 L 470 672 L 470 666 L 469 663 L 473 660 L 477 663 L 479 668 L 479 674 L 480 675 L 479 677 L 479 682 L 480 683 L 487 683 L 488 682 L 495 681 L 497 679 L 497 666 L 496 665 L 496 660 L 498 658 L 500 658 L 505 665 L 505 668 L 506 669 L 506 675 L 505 678 L 506 679 L 511 678 L 517 672 L 518 669 L 518 657 L 515 650 L 507 642 L 500 639 L 498 637 L 498 635 L 501 632 L 501 628 L 503 622 L 503 617 L 504 616 L 504 604 L 505 603 L 505 591 L 504 590 L 504 586 L 503 584 L 506 581 L 506 578 L 502 571 L 504 569 L 508 572 L 510 571 L 505 556 L 499 545 L 500 543 L 502 543 L 508 546 L 508 541 L 501 525 L 502 522 L 505 522 L 506 521 L 506 517 L 505 516 L 503 503 L 501 497 L 499 495 L 494 494 L 487 488 L 484 484 L 480 474 L 480 458 L 481 457 L 481 453 L 484 447 L 486 439 L 485 438 L 485 434 L 483 429 L 483 425 L 482 424 L 482 420 L 481 419 L 481 415 L 480 414 L 477 399 L 472 384 L 468 376 L 468 374 L 463 365 L 463 363 L 461 361 L 456 351 L 455 346 L 457 344 L 460 346 L 471 363 L 478 377 L 478 379 L 482 387 L 485 396 L 485 399 L 487 403 L 487 406 L 488 407 L 488 410 L 491 419 L 492 428 L 493 429 L 493 434 L 495 438 L 495 442 L 489 459 L 489 471 L 491 477 L 496 483 L 500 485 L 503 485 L 507 482 L 511 474 L 511 472 L 515 469 L 517 471 L 517 478 L 514 487 L 510 492 L 510 496 L 515 501 L 519 503 L 528 503 L 534 497 L 539 486 L 541 484 L 543 486 L 543 494 L 541 499 L 539 501 L 539 505 L 541 506 L 546 506 L 552 504 L 558 498 L 562 486 L 564 483 L 567 484 L 567 492 L 565 497 L 567 498 L 571 495 L 576 489 L 580 481 L 583 472 L 584 462 L 585 461 L 585 447 L 584 446 L 583 437 L 585 435 L 587 435 L 587 432 L 581 415 L 580 409 L 578 406 L 578 403 L 579 402 L 581 403 L 582 402 L 582 399 L 569 378 L 570 376 L 575 377 L 575 374 L 557 350 L 558 348 L 566 349 L 567 348 L 566 346 L 539 321 L 541 319 L 543 320 L 548 320 L 549 318 L 538 308 L 523 298 L 525 295 L 529 295 L 530 293 L 527 290 L 525 290 L 517 286 L 512 282 L 513 280 L 518 280 L 519 277 L 501 264 L 494 261 L 492 259 L 494 257 L 499 257 L 500 255 L 485 247 L 476 244 L 474 241 L 477 239 L 477 237 L 472 236 L 469 233 L 471 230 L 470 229 L 466 229 L 464 227 L 465 224 L 471 217 L 476 207 L 477 200 L 478 199 L 478 195 L 479 194 L 481 195 L 484 195 L 485 194 L 485 177 L 484 174 L 486 172 L 489 175 L 491 175 L 493 173 L 490 162 L 484 152 L 486 150 L 493 152 L 495 149 L 490 140 L 480 129 L 482 127 L 490 128 L 492 126 L 492 124 L 487 119 L 481 116 L 476 112 L 481 108 L 472 95 L 464 80 L 460 75 L 460 73 L 469 65 L 473 58 L 475 52 L 475 41 L 474 40 L 474 37 L 469 28 L 460 19 Z M 449 14 L 460 20 L 470 30 L 473 35 L 474 41 L 475 42 L 474 55 L 470 63 L 459 73 L 459 76 L 464 81 L 475 101 L 480 107 L 476 110 L 475 112 L 480 116 L 486 119 L 492 125 L 490 127 L 480 127 L 479 129 L 490 141 L 494 147 L 494 149 L 492 151 L 486 149 L 483 151 L 489 161 L 490 166 L 492 169 L 492 172 L 490 174 L 486 171 L 483 172 L 484 179 L 485 180 L 484 192 L 482 194 L 479 192 L 477 194 L 477 202 L 475 208 L 468 220 L 462 226 L 462 228 L 463 229 L 468 229 L 469 231 L 467 233 L 467 235 L 469 236 L 473 236 L 475 238 L 473 240 L 471 240 L 471 242 L 486 249 L 488 249 L 490 251 L 492 251 L 498 255 L 497 257 L 491 257 L 490 258 L 491 260 L 500 264 L 518 277 L 517 279 L 509 279 L 508 280 L 511 283 L 524 290 L 526 290 L 529 293 L 528 295 L 522 295 L 521 297 L 524 300 L 527 301 L 541 311 L 547 317 L 546 319 L 539 319 L 538 318 L 536 319 L 566 347 L 564 349 L 562 348 L 558 348 L 557 347 L 554 348 L 559 353 L 574 373 L 573 376 L 571 376 L 568 374 L 567 376 L 578 392 L 582 400 L 580 402 L 577 400 L 576 403 L 578 405 L 579 409 L 581 412 L 581 416 L 586 430 L 586 432 L 584 434 L 583 433 L 582 434 L 582 437 L 584 442 L 584 449 L 585 450 L 583 470 L 582 471 L 582 474 L 580 480 L 573 492 L 568 496 L 566 495 L 567 493 L 567 483 L 564 482 L 562 485 L 558 497 L 550 504 L 547 505 L 541 505 L 539 502 L 542 498 L 543 492 L 544 491 L 543 484 L 541 483 L 539 485 L 534 496 L 528 502 L 526 503 L 520 503 L 516 501 L 510 495 L 510 493 L 514 488 L 514 486 L 517 480 L 517 477 L 518 476 L 518 472 L 515 468 L 512 470 L 508 480 L 504 484 L 499 484 L 497 483 L 493 479 L 490 473 L 489 463 L 490 462 L 491 452 L 495 443 L 495 437 L 493 432 L 492 422 L 491 421 L 490 413 L 487 405 L 485 394 L 482 388 L 479 378 L 476 373 L 476 371 L 464 350 L 459 344 L 456 343 L 454 345 L 455 346 L 456 353 L 463 364 L 464 369 L 469 378 L 469 380 L 471 383 L 477 401 L 477 405 L 480 414 L 480 418 L 481 419 L 481 423 L 482 424 L 482 428 L 483 429 L 483 433 L 485 439 L 484 444 L 482 447 L 480 458 L 479 459 L 479 472 L 480 473 L 480 477 L 482 480 L 483 484 L 490 492 L 495 495 L 499 496 L 501 498 L 501 501 L 504 510 L 504 514 L 505 515 L 505 520 L 504 521 L 501 520 L 500 521 L 500 524 L 508 543 L 506 545 L 500 541 L 498 541 L 497 543 L 505 557 L 509 569 L 508 570 L 506 570 L 503 568 L 501 569 L 505 577 L 505 580 L 502 582 L 504 588 L 504 614 L 503 615 L 503 620 L 502 621 L 501 630 L 497 635 L 497 637 L 499 639 L 509 644 L 513 648 L 517 655 L 518 668 L 515 674 L 510 678 L 508 678 L 506 676 L 506 668 L 504 662 L 499 657 L 497 657 L 495 660 L 496 662 L 496 667 L 497 668 L 497 678 L 494 681 L 491 682 L 483 682 L 481 683 L 479 681 L 480 679 L 480 670 L 479 669 L 479 666 L 475 660 L 471 660 L 469 662 L 469 666 L 470 667 L 470 681 L 467 684 L 449 684 L 447 682 L 447 665 L 444 661 L 441 661 L 438 665 L 438 679 L 439 681 L 437 683 L 422 682 L 421 681 L 417 681 L 406 677 L 400 671 L 398 665 L 399 651 L 401 647 L 401 635 L 399 630 L 396 632 L 394 630 L 394 627 L 393 626 L 394 611 L 390 611 L 389 610 L 389 606 L 390 605 L 390 594 L 387 595 L 385 594 L 381 578 L 378 574 L 380 571 L 383 570 L 385 568 L 385 564 L 382 562 L 376 563 L 375 564 L 366 564 L 365 565 L 344 564 L 343 563 L 329 561 L 314 556 L 312 556 L 309 558 L 309 560 L 312 563 L 322 568 L 334 572 L 337 572 L 340 575 L 337 584 L 337 596 L 335 598 L 332 595 L 330 596 L 331 611 L 332 612 L 332 625 L 330 629 L 327 627 L 325 628 L 325 637 L 326 638 L 326 657 L 324 661 L 319 666 L 311 669 L 307 669 L 306 670 L 294 671 L 293 672 L 288 672 L 287 673 L 270 674 L 269 675 L 243 675 L 240 672 L 240 662 L 242 657 L 242 653 L 241 652 L 237 652 L 234 655 L 231 662 L 231 671 L 229 673 L 224 673 L 218 671 L 215 668 L 215 660 L 216 659 L 217 653 L 219 650 L 217 647 L 215 647 L 209 652 L 208 658 L 207 659 L 207 666 L 204 668 L 199 662 L 199 651 L 203 640 L 210 634 L 217 631 L 225 630 L 226 629 L 240 629 L 241 630 L 246 630 L 247 631 L 255 632 L 255 630 L 251 628 L 245 627 L 244 626 L 238 626 L 234 622 L 231 613 L 231 609 L 229 603 L 229 598 L 227 594 L 227 585 L 224 582 L 224 579 L 226 574 L 226 568 L 224 568 L 221 570 L 219 568 L 220 561 L 223 554 L 223 551 L 226 545 L 226 540 L 224 540 L 221 542 L 219 540 L 226 525 L 225 522 L 222 522 L 220 520 L 226 509 L 226 507 L 229 504 L 233 505 L 234 504 L 234 500 L 227 484 L 227 478 L 225 474 L 222 477 L 220 475 L 221 452 L 220 451 L 216 454 L 215 453 L 215 448 L 216 447 L 217 439 L 222 426 L 222 423 L 219 423 L 216 425 L 214 423 L 214 420 L 221 406 L 228 396 L 227 393 L 221 394 L 219 391 L 234 372 L 233 369 L 230 369 L 229 370 L 227 368 L 227 366 L 236 354 L 239 339 L 243 330 L 244 322 L 241 320 L 236 322 L 231 333 L 231 335 L 228 339 L 222 337 L 219 337 L 216 335 L 216 333 L 218 331 L 217 329 L 198 326 L 196 324 L 200 320 L 199 317 L 192 316 L 191 315 L 187 315 L 186 314 L 183 314 L 174 311 L 171 308 L 173 306 L 177 306 L 179 304 L 178 302 L 172 299 L 161 296 L 157 293 L 152 291 L 147 287 L 149 285 L 153 285 L 155 284 L 156 282 L 147 274 L 143 272 L 129 259 L 114 238 L 107 223 L 106 218 L 102 209 L 102 206 L 97 201 L 92 198 L 79 185 L 74 178 L 68 172 L 65 166 L 65 158 L 70 154 L 78 153 L 80 151 L 79 149 L 80 146 L 89 152 L 95 152 L 97 149 L 97 143 L 95 139 L 89 133 L 83 130 L 80 130 L 75 138 L 72 134 L 73 128 L 76 125 L 79 125 L 82 123 L 84 123 L 89 125 L 93 128 L 100 136 L 102 136 L 104 133 L 106 133 L 108 135 L 112 135 L 117 131 L 116 124 L 110 113 L 104 105 L 101 105 L 98 111 L 98 117 L 97 118 L 95 117 L 94 115 L 94 106 L 96 102 L 100 99 L 104 99 L 110 102 L 115 108 L 123 125 L 125 127 L 129 125 L 134 130 L 141 130 L 144 125 L 144 118 L 143 117 L 142 110 L 140 106 L 136 102 L 133 101 L 131 99 L 131 98 L 134 96 L 137 97 L 145 106 L 147 111 L 149 122 L 151 125 L 153 125 L 162 116 L 164 115 L 170 115 L 175 121 L 176 129 L 177 130 L 175 147 L 171 159 L 178 167 L 194 191 L 199 196 L 201 196 L 204 192 L 208 196 L 210 202 L 214 208 L 215 212 L 220 218 L 222 217 L 222 211 L 225 209 L 229 213 L 231 219 L 235 227 L 237 229 L 240 229 L 240 226 L 243 224 L 246 227 L 251 237 L 254 240 L 256 238 L 256 235 L 258 233 L 272 248 L 274 248 L 276 246 L 276 240 L 265 225 L 262 222 L 259 222 L 255 218 L 254 212 L 252 211 L 249 215 L 245 211 L 243 206 L 243 191 L 240 191 L 237 193 L 234 189 L 236 176 L 237 175 L 237 170 L 235 169 L 232 172 L 230 170 L 230 165 L 234 158 L 234 156 L 237 152 L 237 150 L 236 149 L 228 150 L 227 147 L 239 134 L 238 123 L 243 113 L 243 111 L 246 106 L 247 102 L 245 100 L 243 100 L 236 96 L 230 90 L 227 85 L 226 79 L 225 78 L 225 71 L 226 70 L 226 65 L 230 56 L 242 45 L 253 41 L 262 41 L 274 47 L 278 51 L 279 54 L 282 56 L 293 48 L 301 44 L 306 43 L 310 38 L 313 38 L 314 37 L 328 37 L 329 36 L 329 32 L 326 28 L 328 25 L 334 26 L 342 30 L 344 32 L 346 32 L 353 24 L 359 21 L 361 23 L 361 26 L 359 30 L 360 32 L 365 32 L 366 31 L 382 31 L 383 32 L 387 32 L 388 33 L 393 33 L 394 34 L 401 35 L 408 38 L 410 35 L 410 31 L 414 25 L 423 17 L 433 13 L 445 13 L 446 14 Z M 458 7 L 449 4 L 442 4 L 441 3 L 436 3 L 435 4 L 426 5 L 414 11 L 405 20 L 404 23 L 402 25 L 393 24 L 392 23 L 386 23 L 385 22 L 372 22 L 369 19 L 368 16 L 364 13 L 355 13 L 348 17 L 344 21 L 333 16 L 325 16 L 320 19 L 318 23 L 318 27 L 316 29 L 311 29 L 310 30 L 304 31 L 298 35 L 291 38 L 286 42 L 283 42 L 279 38 L 272 34 L 270 34 L 267 32 L 263 32 L 262 31 L 254 31 L 253 32 L 245 33 L 236 37 L 230 41 L 224 47 L 218 56 L 218 58 L 215 64 L 215 69 L 214 70 L 215 83 L 219 93 L 224 100 L 234 108 L 228 121 L 228 132 L 220 141 L 218 147 L 219 153 L 223 158 L 223 161 L 221 164 L 221 175 L 226 181 L 225 183 L 225 191 L 227 195 L 227 199 L 226 200 L 221 200 L 218 197 L 213 188 L 207 182 L 202 182 L 200 181 L 195 175 L 189 165 L 185 161 L 183 157 L 183 152 L 184 151 L 185 143 L 186 142 L 186 125 L 182 114 L 175 107 L 169 105 L 168 106 L 161 106 L 157 108 L 154 105 L 149 95 L 145 91 L 137 87 L 127 87 L 120 91 L 117 94 L 108 91 L 105 91 L 104 90 L 96 90 L 92 92 L 87 97 L 84 104 L 84 110 L 81 113 L 77 113 L 71 115 L 67 119 L 62 129 L 62 136 L 65 143 L 58 150 L 56 154 L 56 157 L 55 158 L 56 172 L 63 184 L 71 192 L 71 193 L 93 213 L 99 232 L 110 253 L 118 263 L 129 274 L 133 276 L 136 279 L 136 284 L 139 292 L 145 298 L 151 302 L 158 305 L 160 307 L 160 311 L 164 317 L 170 320 L 182 323 L 185 326 L 185 329 L 188 332 L 192 334 L 200 335 L 208 343 L 210 343 L 213 345 L 216 345 L 219 347 L 223 347 L 225 349 L 225 352 L 218 365 L 218 378 L 211 387 L 211 389 L 209 392 L 209 398 L 211 400 L 212 404 L 207 413 L 205 419 L 205 424 L 204 425 L 205 431 L 209 436 L 207 442 L 207 445 L 206 446 L 206 459 L 210 467 L 210 476 L 213 485 L 220 493 L 215 509 L 212 514 L 210 520 L 210 524 L 211 527 L 213 529 L 209 539 L 210 547 L 213 550 L 210 559 L 210 563 L 211 556 L 213 553 L 213 549 L 210 546 L 209 543 L 210 536 L 213 531 L 213 528 L 211 526 L 210 522 L 211 521 L 212 515 L 215 510 L 220 495 L 220 492 L 212 482 L 211 476 L 210 475 L 210 466 L 206 459 L 206 446 L 209 438 L 209 434 L 205 430 L 205 419 L 209 411 L 209 409 L 213 403 L 213 401 L 209 397 L 209 393 L 214 383 L 219 377 L 218 367 L 220 361 L 222 359 L 226 351 L 226 349 L 224 347 L 217 346 L 214 344 L 209 343 L 206 341 L 201 335 L 197 335 L 189 332 L 185 328 L 185 324 L 184 323 L 168 319 L 163 315 L 161 312 L 160 306 L 158 304 L 146 298 L 139 291 L 137 288 L 136 279 L 117 261 L 108 249 L 99 231 L 93 211 L 81 202 L 64 184 L 59 177 L 56 171 L 56 166 L 55 165 L 56 162 L 55 161 L 56 160 L 56 154 L 57 152 L 65 144 L 65 141 L 63 138 L 63 135 L 62 134 L 64 124 L 72 115 L 74 114 L 81 114 L 84 112 L 84 104 L 86 101 L 86 99 L 88 96 L 94 91 L 102 90 L 103 91 L 107 91 L 110 93 L 118 94 L 122 90 L 129 87 L 135 87 L 138 89 L 142 90 L 150 98 L 151 101 L 156 108 L 159 108 L 163 106 L 172 106 L 174 107 L 183 117 L 183 119 L 185 122 L 185 127 L 186 128 L 185 145 L 184 146 L 184 150 L 182 154 L 182 157 L 184 159 L 185 162 L 189 166 L 197 179 L 200 182 L 206 182 L 208 183 L 214 190 L 216 195 L 220 200 L 227 200 L 231 203 L 232 201 L 227 196 L 225 190 L 226 180 L 221 174 L 221 165 L 224 160 L 224 158 L 219 152 L 219 144 L 229 132 L 228 129 L 228 122 L 235 108 L 228 103 L 220 94 L 215 82 L 215 75 L 214 74 L 215 65 L 219 55 L 223 49 L 231 41 L 239 36 L 241 36 L 247 33 L 250 33 L 251 32 L 265 32 L 275 36 L 282 42 L 285 43 L 290 39 L 306 31 L 313 30 L 314 29 L 318 29 L 319 28 L 319 22 L 320 20 L 323 17 L 326 16 L 335 17 L 342 21 L 345 21 L 349 17 L 356 13 L 363 13 L 368 17 L 369 20 L 371 22 L 382 22 L 383 23 L 403 25 L 409 16 L 416 10 L 424 6 L 427 6 L 432 4 L 446 4 L 447 5 L 454 6 L 466 12 L 471 16 L 479 25 L 483 33 L 484 39 L 485 40 L 485 53 L 484 54 L 483 60 L 480 66 L 472 75 L 472 77 L 483 94 L 486 101 L 488 103 L 489 111 L 495 115 L 501 123 L 501 129 L 497 133 L 497 136 L 500 139 L 504 148 L 503 156 L 499 160 L 499 162 L 501 165 L 501 169 L 502 170 L 501 178 L 495 185 L 495 190 L 494 191 L 493 199 L 487 205 L 485 212 L 480 220 L 480 224 L 488 233 L 488 238 L 491 241 L 504 247 L 512 254 L 513 256 L 512 262 L 520 267 L 527 274 L 527 279 L 530 282 L 533 283 L 539 289 L 540 291 L 539 298 L 546 303 L 558 315 L 559 317 L 559 321 L 557 323 L 557 326 L 571 339 L 577 348 L 577 353 L 574 356 L 574 358 L 580 365 L 586 376 L 586 380 L 584 382 L 584 385 L 588 390 L 592 398 L 593 406 L 591 409 L 591 414 L 595 423 L 596 432 L 597 433 L 597 437 L 595 441 L 596 462 L 595 463 L 595 468 L 594 469 L 593 477 L 587 491 L 575 504 L 569 508 L 565 509 L 553 515 L 550 515 L 549 516 L 538 516 L 534 514 L 527 514 L 525 515 L 517 512 L 514 513 L 516 519 L 516 526 L 513 530 L 513 532 L 516 537 L 518 543 L 518 549 L 514 554 L 514 556 L 517 561 L 519 567 L 520 575 L 519 578 L 514 583 L 514 586 L 515 587 L 515 606 L 514 607 L 514 619 L 513 620 L 513 625 L 512 626 L 511 633 L 516 636 L 525 646 L 529 656 L 529 668 L 525 677 L 519 683 L 514 686 L 505 689 L 501 689 L 496 691 L 490 691 L 489 692 L 481 692 L 480 693 L 434 693 L 433 692 L 426 692 L 425 691 L 420 691 L 419 690 L 412 689 L 406 687 L 397 682 L 392 677 L 389 671 L 389 668 L 388 667 L 388 656 L 389 655 L 389 650 L 390 649 L 391 642 L 385 633 L 384 627 L 383 626 L 383 622 L 382 621 L 382 610 L 381 607 L 378 604 L 374 594 L 374 591 L 372 587 L 370 577 L 368 575 L 351 575 L 350 576 L 350 583 L 348 589 L 348 598 L 346 603 L 342 607 L 342 612 L 343 613 L 342 630 L 341 633 L 337 638 L 337 657 L 333 667 L 326 673 L 320 676 L 317 676 L 309 679 L 304 679 L 303 680 L 298 680 L 297 681 L 291 681 L 290 682 L 282 682 L 281 683 L 266 683 L 265 684 L 229 683 L 228 682 L 216 681 L 215 680 L 212 680 L 211 679 L 208 679 L 198 675 L 191 668 L 188 661 L 188 650 L 191 641 L 193 639 L 194 636 L 202 628 L 208 624 L 217 621 L 220 621 L 221 620 L 221 614 L 219 609 L 217 593 L 215 588 L 215 577 L 210 572 L 209 565 L 210 572 L 215 578 L 215 589 L 216 590 L 216 595 L 218 600 L 218 605 L 219 606 L 219 610 L 220 611 L 221 618 L 218 621 L 215 621 L 209 623 L 201 628 L 194 635 L 190 642 L 188 648 L 188 662 L 191 669 L 196 674 L 206 679 L 210 679 L 211 680 L 219 681 L 220 682 L 225 682 L 226 683 L 235 683 L 236 684 L 275 684 L 276 683 L 285 683 L 286 682 L 293 682 L 294 681 L 305 680 L 310 678 L 318 677 L 327 673 L 334 666 L 337 659 L 337 653 L 338 652 L 337 639 L 342 631 L 342 627 L 343 626 L 343 606 L 347 602 L 348 599 L 348 590 L 349 589 L 349 584 L 350 583 L 350 577 L 352 575 L 355 575 L 356 576 L 368 576 L 370 578 L 370 581 L 371 582 L 371 585 L 372 586 L 372 589 L 374 593 L 375 599 L 378 605 L 381 608 L 382 623 L 383 624 L 384 631 L 386 636 L 390 641 L 390 647 L 389 648 L 389 653 L 388 654 L 388 669 L 391 676 L 394 680 L 399 684 L 407 688 L 410 688 L 414 690 L 422 691 L 423 692 L 428 692 L 429 693 L 439 693 L 440 694 L 474 694 L 475 693 L 487 693 L 488 692 L 499 691 L 500 690 L 503 690 L 504 689 L 507 689 L 513 687 L 520 683 L 525 678 L 528 673 L 528 670 L 530 665 L 530 661 L 529 660 L 529 655 L 527 649 L 521 640 L 512 633 L 512 629 L 514 623 L 514 614 L 515 613 L 515 583 L 520 577 L 520 570 L 519 569 L 519 566 L 517 560 L 515 557 L 515 554 L 518 551 L 518 541 L 514 533 L 514 530 L 516 527 L 516 517 L 515 515 L 518 513 L 522 515 L 530 515 L 533 514 L 536 516 L 539 516 L 540 517 L 551 516 L 570 508 L 576 504 L 583 497 L 591 484 L 593 478 L 593 475 L 594 474 L 594 471 L 595 470 L 595 466 L 596 465 L 596 448 L 595 447 L 595 442 L 597 440 L 597 429 L 596 428 L 596 425 L 593 416 L 591 413 L 591 410 L 593 407 L 593 400 L 588 389 L 585 385 L 586 375 L 579 363 L 575 359 L 575 356 L 577 354 L 577 347 L 576 345 L 558 326 L 559 316 L 557 313 L 548 304 L 543 301 L 539 297 L 540 294 L 540 290 L 539 288 L 535 284 L 529 281 L 527 279 L 527 273 L 522 268 L 513 262 L 513 255 L 512 253 L 505 247 L 492 241 L 489 238 L 489 234 L 488 232 L 480 223 L 480 221 L 485 213 L 487 206 L 492 201 L 494 197 L 495 186 L 500 181 L 502 176 L 502 167 L 500 163 L 500 160 L 504 154 L 504 147 L 501 140 L 497 135 L 501 129 L 501 122 L 500 120 L 489 110 L 489 104 L 482 93 L 480 88 L 473 78 L 473 75 L 480 67 L 485 55 L 485 39 L 484 38 L 484 35 L 480 26 L 475 19 L 467 12 Z" fill="#B1B1B1" fill-rule="evenodd"/><path d="M 463 635 L 463 636 L 473 636 L 473 635 Z M 274 143 L 274 147 L 273 148 L 273 157 L 276 164 L 282 170 L 287 173 L 292 174 L 294 176 L 295 184 L 300 196 L 302 198 L 303 201 L 309 208 L 309 209 L 321 222 L 329 227 L 331 226 L 321 214 L 321 211 L 320 210 L 321 204 L 326 196 L 332 190 L 333 190 L 338 186 L 344 183 L 347 183 L 348 182 L 358 182 L 359 183 L 361 183 L 365 185 L 370 190 L 372 194 L 371 201 L 363 217 L 364 218 L 367 215 L 374 201 L 374 198 L 375 197 L 375 194 L 376 193 L 376 190 L 377 189 L 377 185 L 378 184 L 378 157 L 377 156 L 377 153 L 374 148 L 372 148 L 370 150 L 369 153 L 364 158 L 363 158 L 358 162 L 346 167 L 338 168 L 337 169 L 332 169 L 331 168 L 325 168 L 324 167 L 320 167 L 319 166 L 315 166 L 314 165 L 307 165 L 305 167 L 298 171 L 293 171 L 286 168 L 279 161 L 278 159 L 278 154 L 277 153 L 277 151 L 278 150 L 278 141 L 277 140 Z M 332 131 L 328 127 L 322 124 L 319 124 L 318 123 L 315 123 L 314 122 L 306 122 L 305 123 L 297 124 L 287 129 L 284 133 L 284 139 L 287 145 L 294 151 L 298 153 L 301 153 L 302 154 L 310 154 L 322 149 L 330 142 L 333 136 L 333 133 Z M 292 101 L 288 101 L 286 102 L 283 106 L 282 112 L 281 113 L 281 119 L 284 124 L 288 123 L 293 118 L 295 114 L 295 106 Z M 372 94 L 369 97 L 367 101 L 367 103 L 366 104 L 366 110 L 367 111 L 367 114 L 368 116 L 372 120 L 378 120 L 381 117 L 382 113 L 383 112 L 383 104 L 382 103 L 382 100 L 381 98 L 377 94 Z M 300 64 L 298 62 L 294 62 L 290 64 L 284 69 L 283 71 L 283 75 L 286 75 L 293 69 L 299 67 L 300 66 Z M 367 53 L 367 56 L 369 57 L 375 58 L 381 61 L 383 63 L 386 63 L 387 62 L 387 59 L 386 57 L 384 55 L 378 52 L 376 52 L 375 51 L 370 51 Z M 454 7 L 451 7 L 450 6 L 447 6 L 446 5 L 432 5 L 431 6 L 424 7 L 416 11 L 413 14 L 412 14 L 406 21 L 405 24 L 403 26 L 397 26 L 396 25 L 390 25 L 389 24 L 383 24 L 382 23 L 371 23 L 368 20 L 367 17 L 365 15 L 363 14 L 356 14 L 349 18 L 345 22 L 342 22 L 335 18 L 332 18 L 331 17 L 326 17 L 325 18 L 323 18 L 320 22 L 320 28 L 318 30 L 314 30 L 313 31 L 309 31 L 308 32 L 306 32 L 290 40 L 285 44 L 282 43 L 275 37 L 271 35 L 266 34 L 265 33 L 251 33 L 250 34 L 247 34 L 241 37 L 239 37 L 237 39 L 231 42 L 224 49 L 224 50 L 220 55 L 218 59 L 217 64 L 216 65 L 216 70 L 215 71 L 215 74 L 216 75 L 216 82 L 221 94 L 228 102 L 229 102 L 236 108 L 229 122 L 229 129 L 230 130 L 230 132 L 225 137 L 225 138 L 220 144 L 220 152 L 225 158 L 225 160 L 222 165 L 222 174 L 227 180 L 226 190 L 227 191 L 227 194 L 228 196 L 233 201 L 233 202 L 231 204 L 227 201 L 220 201 L 215 195 L 213 190 L 208 184 L 206 183 L 200 183 L 196 179 L 188 166 L 184 162 L 183 159 L 181 157 L 181 154 L 182 153 L 182 151 L 183 150 L 183 146 L 184 145 L 185 128 L 184 127 L 184 122 L 180 114 L 174 108 L 172 107 L 163 107 L 159 109 L 156 109 L 153 106 L 149 98 L 142 91 L 140 90 L 138 90 L 135 88 L 129 88 L 122 91 L 118 95 L 114 95 L 113 94 L 110 94 L 107 92 L 103 92 L 102 91 L 97 91 L 96 92 L 94 92 L 92 94 L 91 94 L 87 99 L 87 101 L 85 104 L 85 112 L 81 115 L 74 115 L 72 116 L 66 122 L 65 124 L 64 130 L 63 131 L 63 134 L 64 135 L 64 138 L 66 141 L 66 144 L 58 152 L 57 154 L 57 160 L 56 161 L 57 162 L 56 163 L 56 165 L 57 166 L 57 171 L 62 180 L 74 193 L 74 194 L 81 201 L 82 201 L 94 211 L 95 213 L 95 216 L 96 217 L 96 219 L 97 220 L 97 222 L 100 229 L 100 231 L 109 249 L 111 251 L 113 255 L 118 260 L 118 261 L 137 279 L 137 282 L 138 283 L 138 288 L 140 290 L 140 291 L 146 297 L 158 303 L 161 306 L 162 312 L 165 316 L 166 316 L 168 318 L 170 318 L 174 320 L 177 320 L 178 321 L 184 322 L 186 324 L 186 328 L 189 331 L 193 333 L 201 334 L 205 338 L 205 339 L 211 343 L 214 343 L 217 345 L 224 346 L 227 349 L 227 351 L 223 359 L 221 361 L 221 363 L 219 367 L 219 373 L 220 374 L 220 377 L 215 383 L 210 393 L 210 397 L 214 401 L 214 403 L 212 407 L 210 409 L 210 411 L 206 419 L 206 430 L 210 434 L 210 438 L 209 439 L 208 445 L 207 446 L 207 459 L 208 460 L 208 462 L 211 466 L 211 475 L 212 476 L 213 482 L 217 487 L 217 488 L 221 492 L 221 495 L 220 496 L 216 510 L 213 515 L 212 521 L 211 522 L 212 526 L 214 528 L 214 531 L 211 536 L 210 543 L 211 544 L 211 546 L 214 549 L 214 553 L 212 556 L 212 559 L 211 560 L 211 563 L 210 564 L 210 569 L 211 570 L 211 572 L 216 577 L 216 588 L 217 589 L 217 592 L 218 593 L 218 598 L 219 599 L 219 603 L 220 604 L 220 609 L 221 610 L 221 613 L 222 614 L 222 620 L 220 622 L 217 622 L 216 623 L 208 625 L 206 627 L 202 629 L 195 636 L 190 646 L 190 649 L 189 650 L 189 661 L 190 662 L 190 664 L 192 668 L 198 674 L 202 676 L 204 676 L 208 678 L 211 678 L 212 679 L 215 679 L 216 680 L 228 681 L 229 682 L 242 682 L 243 683 L 265 683 L 266 682 L 281 682 L 282 681 L 290 681 L 291 680 L 297 680 L 298 679 L 309 678 L 310 677 L 313 677 L 317 675 L 320 675 L 329 670 L 332 667 L 335 661 L 335 658 L 336 657 L 336 638 L 340 633 L 340 631 L 341 630 L 341 622 L 342 621 L 342 613 L 341 612 L 341 607 L 345 603 L 346 599 L 347 598 L 347 589 L 348 588 L 348 584 L 349 583 L 349 576 L 351 574 L 368 574 L 371 577 L 372 583 L 373 584 L 373 587 L 375 591 L 375 594 L 376 595 L 377 600 L 379 604 L 382 607 L 382 609 L 383 610 L 383 621 L 384 622 L 385 630 L 388 637 L 392 642 L 392 645 L 391 646 L 391 649 L 390 650 L 390 655 L 389 656 L 389 667 L 390 668 L 390 671 L 393 677 L 400 683 L 412 688 L 415 688 L 416 689 L 419 689 L 420 690 L 425 690 L 426 691 L 433 691 L 434 692 L 480 692 L 481 691 L 496 690 L 497 689 L 505 688 L 506 687 L 514 685 L 519 682 L 524 677 L 527 671 L 527 669 L 528 668 L 528 656 L 527 655 L 526 650 L 521 642 L 516 637 L 515 637 L 510 633 L 510 631 L 511 630 L 511 626 L 512 625 L 512 620 L 513 619 L 513 607 L 514 606 L 514 587 L 513 586 L 513 583 L 518 578 L 518 576 L 519 575 L 518 567 L 517 566 L 516 561 L 513 556 L 513 554 L 517 549 L 517 543 L 516 542 L 515 537 L 512 532 L 512 530 L 515 526 L 515 519 L 514 518 L 513 513 L 515 511 L 517 511 L 518 512 L 524 513 L 525 514 L 527 513 L 534 513 L 538 515 L 549 515 L 550 514 L 553 514 L 556 512 L 558 512 L 565 508 L 567 508 L 575 503 L 586 491 L 592 477 L 593 469 L 594 468 L 594 463 L 595 462 L 594 441 L 596 437 L 596 433 L 595 432 L 595 427 L 594 426 L 594 423 L 593 422 L 592 417 L 590 414 L 590 409 L 592 406 L 591 398 L 587 390 L 583 385 L 583 382 L 585 380 L 585 376 L 581 368 L 573 358 L 573 356 L 576 353 L 576 348 L 574 344 L 570 340 L 570 339 L 556 326 L 556 323 L 558 321 L 558 317 L 557 315 L 546 304 L 545 304 L 538 298 L 538 294 L 539 293 L 538 289 L 533 284 L 530 283 L 526 279 L 526 274 L 520 268 L 519 268 L 516 265 L 513 264 L 511 262 L 511 260 L 512 259 L 512 256 L 511 254 L 504 248 L 491 242 L 487 238 L 487 233 L 479 224 L 479 220 L 481 218 L 484 212 L 486 205 L 492 199 L 492 197 L 493 196 L 493 191 L 494 190 L 494 185 L 500 178 L 501 170 L 500 169 L 500 165 L 498 162 L 498 160 L 502 156 L 502 154 L 503 153 L 503 148 L 499 139 L 496 136 L 496 133 L 500 129 L 500 123 L 497 118 L 488 111 L 488 106 L 487 105 L 487 103 L 485 101 L 482 94 L 480 92 L 479 89 L 477 87 L 476 84 L 471 77 L 471 75 L 479 66 L 483 57 L 483 54 L 484 53 L 484 40 L 483 39 L 482 33 L 478 25 L 471 17 L 470 17 L 466 13 L 463 12 L 461 10 L 457 9 Z M 453 14 L 460 18 L 470 28 L 475 37 L 475 40 L 476 41 L 476 52 L 475 53 L 474 58 L 470 65 L 463 72 L 461 73 L 461 75 L 465 80 L 466 83 L 471 90 L 473 95 L 480 104 L 482 108 L 477 112 L 487 118 L 493 124 L 493 126 L 490 129 L 488 129 L 487 128 L 482 128 L 481 129 L 491 140 L 491 141 L 495 146 L 495 148 L 496 149 L 496 150 L 493 153 L 491 153 L 488 151 L 486 151 L 485 152 L 491 162 L 491 164 L 493 167 L 494 173 L 491 176 L 489 176 L 486 173 L 485 174 L 485 176 L 486 177 L 486 194 L 484 196 L 481 196 L 479 195 L 479 199 L 478 200 L 478 204 L 477 205 L 477 207 L 472 217 L 466 224 L 465 227 L 466 228 L 470 228 L 472 230 L 472 231 L 470 233 L 472 235 L 474 235 L 478 237 L 478 239 L 475 241 L 476 243 L 480 244 L 483 246 L 485 246 L 499 253 L 501 255 L 501 256 L 499 258 L 494 258 L 493 259 L 494 260 L 501 263 L 503 265 L 513 271 L 520 277 L 520 279 L 518 281 L 513 281 L 513 282 L 517 285 L 525 289 L 527 289 L 531 293 L 531 294 L 529 296 L 525 296 L 524 298 L 538 307 L 550 318 L 550 319 L 548 321 L 543 321 L 542 320 L 540 321 L 564 344 L 565 344 L 567 346 L 568 348 L 566 350 L 561 350 L 560 349 L 558 349 L 558 350 L 564 357 L 566 361 L 576 374 L 576 377 L 575 378 L 573 378 L 572 377 L 570 377 L 570 378 L 575 385 L 576 388 L 580 393 L 583 399 L 583 402 L 581 404 L 579 403 L 579 406 L 581 409 L 582 415 L 583 416 L 583 418 L 584 419 L 584 421 L 587 428 L 587 431 L 588 432 L 588 435 L 584 437 L 584 440 L 585 441 L 585 446 L 586 447 L 586 461 L 585 462 L 584 472 L 583 473 L 581 481 L 577 489 L 571 496 L 570 496 L 567 499 L 566 499 L 564 497 L 565 493 L 566 492 L 566 484 L 564 484 L 559 498 L 552 505 L 550 506 L 547 506 L 546 507 L 541 507 L 538 505 L 538 501 L 540 499 L 541 495 L 542 494 L 542 486 L 541 485 L 535 497 L 528 504 L 519 504 L 515 502 L 509 496 L 509 492 L 513 487 L 513 485 L 516 478 L 516 471 L 514 470 L 512 472 L 512 474 L 508 482 L 503 486 L 500 486 L 496 484 L 490 477 L 490 475 L 488 471 L 488 459 L 489 458 L 489 455 L 490 454 L 490 452 L 491 451 L 491 449 L 494 442 L 494 438 L 492 434 L 492 429 L 491 428 L 491 424 L 490 423 L 490 419 L 489 418 L 489 415 L 488 414 L 486 403 L 484 399 L 484 396 L 483 395 L 481 387 L 479 384 L 477 377 L 470 363 L 468 361 L 467 358 L 465 356 L 464 353 L 459 347 L 459 346 L 458 345 L 456 346 L 457 351 L 462 361 L 464 363 L 464 365 L 469 374 L 469 376 L 473 384 L 473 386 L 474 387 L 474 389 L 475 390 L 475 392 L 478 399 L 478 402 L 479 403 L 479 406 L 480 407 L 480 410 L 481 411 L 481 414 L 482 415 L 482 419 L 483 420 L 484 429 L 485 430 L 485 433 L 486 434 L 486 438 L 487 439 L 485 447 L 482 453 L 482 457 L 481 458 L 481 474 L 484 480 L 484 482 L 488 487 L 488 488 L 494 493 L 496 494 L 499 494 L 502 497 L 503 499 L 503 502 L 504 503 L 505 512 L 506 513 L 506 516 L 507 517 L 507 521 L 505 523 L 502 523 L 502 525 L 505 531 L 505 533 L 507 536 L 507 538 L 509 541 L 509 546 L 507 547 L 502 544 L 500 544 L 500 545 L 506 556 L 506 558 L 510 566 L 511 571 L 509 573 L 504 570 L 503 571 L 507 578 L 507 581 L 504 584 L 505 586 L 505 590 L 506 591 L 506 603 L 505 604 L 505 616 L 504 617 L 504 622 L 503 623 L 502 632 L 499 635 L 499 637 L 507 641 L 516 650 L 519 657 L 519 669 L 518 670 L 518 672 L 511 679 L 506 680 L 504 678 L 504 676 L 505 675 L 505 669 L 504 668 L 504 665 L 500 659 L 498 659 L 497 660 L 497 665 L 498 666 L 498 679 L 495 682 L 493 682 L 492 683 L 488 683 L 487 684 L 480 684 L 478 682 L 478 677 L 479 676 L 478 674 L 478 668 L 477 667 L 476 663 L 473 661 L 472 661 L 470 663 L 470 665 L 471 666 L 471 672 L 472 673 L 472 682 L 469 685 L 448 685 L 446 683 L 446 668 L 445 667 L 445 664 L 444 663 L 441 663 L 439 666 L 439 676 L 440 677 L 440 683 L 438 685 L 435 685 L 434 684 L 426 684 L 425 683 L 420 683 L 419 682 L 416 682 L 415 681 L 410 680 L 404 677 L 399 672 L 398 668 L 397 667 L 397 654 L 398 653 L 398 650 L 399 649 L 399 633 L 398 632 L 396 634 L 394 634 L 393 633 L 393 631 L 392 630 L 392 614 L 390 614 L 388 612 L 388 597 L 386 598 L 383 595 L 383 591 L 382 590 L 381 583 L 377 575 L 377 572 L 379 570 L 381 570 L 384 567 L 384 565 L 383 564 L 378 564 L 377 565 L 372 565 L 371 566 L 366 566 L 365 567 L 356 567 L 355 566 L 348 566 L 347 565 L 341 565 L 340 564 L 331 563 L 330 562 L 327 562 L 326 561 L 320 560 L 319 559 L 316 559 L 315 558 L 312 558 L 311 560 L 316 564 L 320 566 L 331 569 L 332 570 L 339 571 L 341 573 L 341 578 L 340 579 L 340 582 L 338 586 L 338 598 L 336 600 L 335 600 L 333 598 L 332 599 L 332 605 L 333 606 L 333 630 L 331 632 L 329 632 L 328 631 L 326 632 L 327 634 L 327 640 L 328 641 L 328 655 L 327 656 L 326 661 L 324 663 L 324 664 L 321 667 L 317 669 L 311 670 L 310 671 L 306 671 L 305 672 L 300 672 L 299 673 L 293 673 L 292 674 L 283 674 L 282 675 L 276 675 L 275 676 L 241 676 L 239 674 L 239 672 L 238 671 L 238 668 L 239 667 L 239 661 L 241 657 L 241 654 L 240 653 L 238 653 L 235 656 L 233 663 L 232 664 L 233 673 L 231 675 L 229 674 L 222 674 L 221 673 L 218 673 L 214 670 L 214 659 L 215 658 L 215 655 L 217 651 L 216 649 L 214 649 L 210 653 L 210 655 L 209 656 L 209 659 L 208 660 L 208 665 L 209 666 L 209 668 L 207 670 L 205 670 L 199 665 L 198 663 L 198 660 L 197 659 L 197 655 L 198 654 L 199 646 L 202 640 L 209 633 L 213 631 L 215 631 L 219 629 L 223 629 L 224 628 L 232 628 L 235 626 L 231 618 L 231 615 L 230 614 L 230 611 L 229 610 L 228 599 L 226 595 L 226 587 L 222 584 L 222 582 L 223 581 L 223 577 L 224 576 L 224 573 L 225 571 L 223 570 L 221 572 L 220 572 L 218 570 L 218 564 L 219 563 L 219 560 L 220 559 L 221 553 L 222 552 L 222 550 L 225 543 L 224 542 L 221 544 L 219 544 L 217 542 L 218 538 L 221 533 L 221 531 L 224 526 L 224 523 L 220 524 L 218 522 L 218 521 L 225 508 L 225 505 L 226 503 L 228 501 L 229 501 L 231 503 L 232 502 L 232 499 L 227 489 L 225 478 L 221 480 L 219 478 L 219 476 L 218 475 L 218 469 L 219 468 L 219 459 L 220 458 L 220 455 L 219 454 L 216 458 L 214 456 L 214 446 L 215 445 L 217 434 L 220 428 L 220 425 L 218 425 L 216 427 L 214 427 L 212 425 L 212 422 L 220 405 L 222 403 L 223 400 L 226 397 L 226 394 L 219 396 L 217 394 L 217 392 L 220 387 L 232 373 L 232 371 L 227 371 L 225 369 L 225 367 L 230 359 L 235 353 L 236 344 L 237 343 L 240 332 L 242 329 L 242 326 L 243 324 L 241 322 L 240 322 L 236 326 L 235 330 L 231 338 L 229 340 L 225 340 L 224 339 L 217 338 L 212 334 L 215 331 L 214 330 L 210 330 L 209 329 L 202 329 L 201 328 L 198 328 L 196 327 L 193 324 L 197 320 L 196 318 L 194 318 L 193 317 L 189 317 L 188 316 L 183 316 L 182 315 L 176 314 L 172 312 L 169 309 L 169 307 L 171 305 L 175 305 L 176 304 L 174 302 L 167 300 L 166 299 L 164 299 L 163 298 L 161 298 L 157 296 L 155 294 L 152 293 L 145 287 L 145 285 L 147 283 L 152 283 L 152 281 L 148 277 L 147 277 L 144 274 L 139 271 L 122 253 L 122 252 L 114 241 L 107 227 L 107 225 L 105 222 L 105 220 L 104 219 L 104 217 L 103 216 L 103 214 L 102 213 L 100 206 L 98 204 L 94 202 L 87 195 L 86 195 L 81 189 L 80 189 L 78 187 L 78 186 L 69 176 L 64 167 L 64 164 L 63 163 L 63 159 L 64 157 L 68 153 L 76 152 L 77 151 L 76 145 L 71 135 L 71 129 L 72 127 L 78 122 L 87 122 L 99 132 L 99 130 L 92 116 L 92 108 L 93 107 L 93 104 L 95 102 L 95 101 L 99 98 L 106 98 L 108 99 L 115 106 L 119 114 L 121 116 L 122 120 L 124 122 L 125 121 L 125 117 L 124 116 L 124 106 L 125 105 L 125 102 L 129 97 L 134 94 L 139 97 L 147 107 L 147 109 L 149 113 L 150 121 L 152 123 L 154 123 L 156 121 L 156 120 L 163 114 L 165 114 L 166 113 L 171 114 L 175 118 L 177 125 L 178 126 L 178 137 L 177 138 L 177 144 L 176 145 L 176 148 L 173 155 L 173 160 L 182 170 L 183 173 L 191 183 L 192 186 L 195 189 L 195 190 L 199 194 L 203 190 L 204 190 L 209 195 L 215 207 L 215 209 L 219 215 L 221 214 L 221 210 L 223 208 L 226 208 L 230 212 L 234 220 L 235 224 L 238 227 L 239 226 L 239 224 L 241 222 L 243 222 L 247 226 L 249 231 L 251 233 L 253 237 L 254 236 L 255 232 L 256 231 L 258 231 L 272 246 L 274 246 L 275 245 L 275 241 L 265 228 L 265 227 L 262 224 L 259 224 L 257 223 L 255 221 L 253 215 L 248 216 L 244 212 L 243 208 L 242 207 L 242 204 L 241 203 L 241 194 L 240 193 L 239 194 L 236 194 L 233 191 L 233 183 L 234 182 L 234 179 L 235 178 L 235 174 L 236 172 L 235 171 L 233 173 L 230 173 L 228 171 L 228 166 L 229 165 L 229 163 L 231 159 L 233 157 L 234 153 L 235 152 L 234 151 L 228 152 L 225 149 L 227 144 L 237 134 L 238 132 L 237 130 L 237 121 L 239 119 L 239 117 L 245 105 L 245 103 L 243 101 L 241 101 L 239 99 L 235 97 L 229 91 L 229 90 L 227 88 L 227 86 L 224 80 L 224 69 L 225 68 L 225 63 L 229 55 L 237 47 L 243 44 L 245 42 L 247 42 L 251 40 L 264 40 L 275 46 L 278 49 L 281 54 L 283 54 L 292 47 L 300 43 L 305 42 L 306 41 L 306 39 L 310 36 L 323 36 L 324 35 L 327 35 L 328 34 L 325 29 L 325 25 L 327 23 L 333 24 L 344 30 L 346 30 L 352 23 L 357 20 L 361 20 L 363 22 L 363 24 L 361 28 L 361 30 L 362 31 L 363 30 L 369 30 L 370 29 L 378 29 L 379 30 L 385 30 L 386 31 L 396 32 L 397 33 L 399 33 L 400 34 L 407 36 L 408 35 L 409 30 L 411 28 L 413 24 L 419 18 L 428 13 L 430 13 L 431 12 L 435 12 L 436 11 L 440 11 L 441 12 L 447 12 L 448 13 Z" fill="#010101" fill-rule="evenodd"/></svg>