<svg xmlns="http://www.w3.org/2000/svg" viewBox="0 0 653 704" shape-rendering="geometricPrecision"><title>intro frame 024</title><path d="M 348 530 L 343 531 L 341 533 L 335 535 L 330 540 L 331 541 L 336 540 L 345 534 Z M 372 503 L 369 503 L 365 508 L 363 513 L 359 518 L 358 524 L 360 527 L 363 527 L 373 516 L 376 506 Z M 408 509 L 403 509 L 400 507 L 395 507 L 393 505 L 392 500 L 391 499 L 388 499 L 386 502 L 385 522 L 384 523 L 384 526 L 382 528 L 382 530 L 380 532 L 376 529 L 372 529 L 370 531 L 362 531 L 358 540 L 359 541 L 362 541 L 367 538 L 378 536 L 380 538 L 380 542 L 378 545 L 379 547 L 382 544 L 384 537 L 393 523 L 395 521 L 399 520 L 399 519 L 408 511 Z M 415 488 L 412 490 L 412 496 L 418 508 L 418 518 L 415 527 L 411 535 L 415 531 L 419 524 L 420 513 L 425 508 L 428 510 L 428 507 L 427 505 L 424 503 L 424 501 L 419 491 Z M 423 482 L 422 483 L 424 485 L 424 487 L 429 491 L 431 489 L 430 485 L 427 484 L 425 482 Z M 373 494 L 377 494 L 379 493 L 380 491 L 384 488 L 388 488 L 389 489 L 392 488 L 395 489 L 402 487 L 403 484 L 400 483 L 398 485 L 396 484 L 392 485 L 390 483 L 385 481 L 382 478 L 378 478 L 376 477 L 375 478 L 375 483 L 373 488 Z M 247 361 L 244 362 L 237 369 L 231 378 L 232 379 L 235 379 L 237 381 L 237 384 L 225 399 L 224 403 L 231 401 L 233 403 L 233 406 L 229 414 L 225 419 L 221 427 L 221 430 L 225 428 L 227 428 L 229 430 L 229 434 L 223 447 L 222 454 L 227 450 L 230 449 L 232 451 L 232 455 L 230 457 L 229 463 L 239 463 L 241 465 L 243 465 L 248 471 L 248 474 L 242 477 L 226 477 L 225 478 L 221 478 L 217 482 L 214 482 L 213 483 L 203 483 L 202 486 L 204 488 L 204 490 L 201 493 L 191 494 L 190 495 L 184 495 L 180 497 L 179 500 L 181 500 L 184 503 L 184 505 L 179 510 L 174 513 L 164 523 L 157 533 L 151 539 L 151 542 L 158 550 L 158 554 L 156 556 L 153 556 L 149 554 L 137 542 L 128 536 L 122 535 L 121 534 L 114 534 L 113 535 L 110 535 L 106 538 L 106 539 L 108 539 L 114 537 L 122 540 L 127 545 L 127 547 L 129 550 L 132 552 L 134 552 L 142 560 L 143 566 L 142 567 L 142 570 L 140 573 L 140 576 L 144 580 L 149 583 L 159 593 L 164 602 L 174 613 L 176 613 L 178 611 L 182 596 L 185 593 L 187 593 L 189 595 L 190 599 L 192 602 L 196 600 L 202 588 L 204 581 L 208 576 L 211 569 L 214 566 L 217 565 L 219 567 L 219 574 L 220 576 L 225 575 L 231 570 L 239 561 L 245 557 L 247 557 L 249 559 L 250 564 L 253 561 L 253 558 L 244 550 L 244 547 L 247 544 L 261 544 L 262 545 L 275 545 L 276 546 L 280 546 L 281 543 L 270 533 L 271 530 L 278 530 L 279 531 L 282 531 L 291 534 L 295 534 L 295 531 L 257 490 L 256 487 L 256 481 L 260 477 L 261 467 L 264 464 L 265 464 L 267 467 L 267 483 L 270 492 L 273 495 L 275 496 L 276 495 L 277 480 L 278 477 L 283 471 L 285 473 L 285 480 L 282 489 L 282 498 L 285 504 L 289 508 L 290 511 L 292 513 L 293 517 L 296 515 L 297 512 L 300 509 L 302 511 L 302 515 L 300 518 L 300 523 L 306 528 L 321 536 L 324 536 L 332 529 L 336 528 L 339 525 L 347 520 L 354 513 L 358 506 L 367 497 L 367 491 L 365 485 L 362 485 L 358 489 L 353 491 L 351 489 L 352 483 L 360 472 L 360 468 L 359 467 L 355 467 L 353 466 L 350 468 L 346 468 L 343 471 L 334 474 L 331 470 L 330 465 L 337 458 L 334 456 L 326 464 L 323 465 L 321 463 L 323 458 L 328 452 L 328 449 L 321 440 L 314 435 L 308 429 L 299 426 L 293 426 L 290 424 L 283 423 L 281 421 L 272 418 L 262 410 L 258 402 L 249 390 L 247 385 L 247 382 L 246 381 L 246 375 L 248 370 L 248 362 Z M 331 516 L 333 518 L 331 524 L 329 526 L 324 526 L 322 524 L 324 520 L 328 516 Z M 316 502 L 318 504 L 318 510 L 313 514 L 309 514 L 308 511 L 310 509 L 311 505 L 313 503 Z M 347 496 L 348 498 L 345 504 L 340 509 L 338 507 L 338 504 L 340 500 L 344 496 Z M 331 485 L 332 486 L 332 493 L 331 494 L 331 497 L 328 500 L 326 498 L 327 490 L 329 486 Z M 258 441 L 259 442 L 259 448 L 258 449 L 257 456 L 254 460 L 252 458 L 251 452 L 254 444 Z M 255 425 L 256 426 L 256 429 L 254 433 L 245 444 L 243 442 L 243 440 L 246 432 L 252 425 Z M 254 409 L 256 411 L 253 419 L 248 424 L 246 424 L 244 422 L 246 419 L 246 417 L 248 415 L 248 413 L 252 409 Z M 458 220 L 457 223 L 459 225 L 459 227 L 460 227 L 460 225 L 458 223 L 459 222 L 462 223 L 462 222 L 460 220 Z M 445 36 L 438 35 L 437 34 L 430 34 L 429 35 L 422 36 L 410 45 L 407 50 L 407 53 L 404 57 L 402 57 L 394 53 L 390 53 L 389 52 L 381 51 L 380 50 L 360 50 L 359 51 L 355 51 L 353 49 L 353 46 L 355 43 L 355 40 L 347 44 L 346 46 L 342 49 L 339 49 L 335 46 L 325 42 L 324 45 L 326 48 L 326 51 L 323 54 L 306 54 L 302 60 L 299 60 L 293 62 L 285 66 L 279 71 L 275 73 L 272 71 L 270 67 L 266 63 L 259 59 L 256 59 L 255 58 L 250 58 L 249 59 L 242 60 L 234 64 L 228 70 L 222 82 L 222 95 L 226 103 L 232 109 L 236 111 L 239 111 L 243 115 L 241 121 L 233 137 L 233 142 L 235 146 L 223 159 L 223 161 L 229 161 L 231 163 L 231 167 L 225 178 L 225 182 L 228 180 L 231 180 L 233 182 L 230 190 L 229 202 L 231 202 L 234 200 L 236 200 L 238 202 L 238 212 L 237 213 L 238 220 L 241 223 L 246 219 L 249 222 L 249 226 L 252 230 L 255 231 L 266 243 L 271 244 L 278 249 L 281 250 L 289 258 L 291 262 L 289 265 L 287 265 L 280 260 L 278 260 L 275 258 L 272 259 L 272 261 L 269 265 L 264 265 L 260 260 L 260 258 L 257 254 L 257 252 L 251 244 L 250 244 L 250 248 L 248 250 L 246 250 L 240 242 L 239 239 L 236 236 L 232 239 L 228 235 L 225 229 L 224 224 L 220 219 L 219 220 L 219 226 L 217 228 L 215 228 L 210 223 L 206 217 L 198 202 L 195 206 L 193 206 L 188 201 L 186 197 L 169 175 L 163 169 L 164 161 L 166 158 L 166 150 L 167 149 L 167 144 L 168 143 L 168 137 L 167 136 L 167 133 L 161 126 L 156 126 L 152 129 L 150 133 L 155 128 L 160 129 L 164 133 L 165 136 L 165 146 L 163 151 L 157 157 L 155 158 L 150 157 L 146 153 L 144 149 L 144 145 L 147 139 L 147 137 L 144 137 L 142 135 L 140 125 L 138 122 L 138 119 L 136 117 L 136 115 L 129 109 L 126 109 L 125 110 L 128 112 L 130 112 L 137 120 L 139 125 L 139 138 L 138 140 L 135 143 L 129 143 L 123 139 L 118 140 L 116 138 L 116 136 L 112 129 L 112 127 L 107 119 L 99 113 L 93 113 L 90 116 L 89 122 L 91 121 L 92 118 L 94 116 L 97 116 L 101 118 L 108 125 L 112 132 L 113 143 L 108 148 L 101 148 L 98 147 L 98 148 L 95 150 L 83 138 L 78 136 L 73 136 L 71 137 L 69 141 L 69 144 L 70 144 L 71 141 L 73 139 L 79 139 L 83 141 L 94 153 L 95 160 L 90 166 L 87 166 L 86 167 L 84 167 L 78 163 L 74 167 L 71 167 L 70 166 L 66 167 L 63 171 L 63 174 L 65 180 L 77 195 L 90 206 L 98 211 L 103 216 L 103 219 L 106 224 L 108 231 L 110 233 L 112 233 L 121 242 L 131 255 L 142 265 L 162 280 L 176 287 L 181 288 L 187 291 L 191 291 L 195 296 L 192 299 L 188 301 L 189 303 L 202 302 L 206 307 L 208 307 L 211 309 L 214 309 L 215 310 L 226 310 L 228 313 L 225 316 L 219 319 L 217 321 L 218 322 L 223 322 L 228 324 L 234 324 L 241 311 L 241 307 L 243 304 L 244 300 L 247 297 L 251 298 L 253 300 L 253 303 L 247 309 L 249 315 L 247 318 L 244 327 L 244 336 L 240 345 L 241 348 L 246 345 L 249 345 L 262 333 L 266 324 L 272 318 L 280 314 L 284 314 L 285 313 L 299 313 L 304 315 L 310 315 L 316 312 L 319 312 L 324 310 L 329 310 L 330 309 L 371 309 L 375 304 L 380 302 L 383 303 L 385 305 L 385 310 L 386 311 L 393 312 L 398 316 L 398 319 L 395 321 L 381 322 L 380 323 L 346 323 L 345 324 L 329 324 L 314 329 L 305 329 L 300 327 L 293 327 L 292 326 L 282 328 L 278 333 L 284 335 L 287 338 L 286 341 L 283 344 L 279 346 L 275 346 L 274 347 L 271 347 L 265 349 L 260 355 L 260 357 L 262 359 L 272 359 L 274 361 L 274 363 L 267 370 L 260 374 L 260 380 L 262 383 L 265 383 L 268 381 L 272 381 L 273 380 L 279 380 L 281 382 L 282 385 L 277 392 L 276 397 L 278 399 L 281 400 L 289 400 L 291 402 L 291 405 L 294 407 L 302 407 L 303 406 L 311 406 L 318 403 L 322 403 L 328 399 L 330 399 L 333 397 L 337 397 L 340 400 L 339 402 L 339 404 L 340 404 L 342 402 L 350 401 L 362 392 L 367 391 L 370 394 L 370 397 L 373 400 L 376 400 L 379 398 L 384 397 L 386 395 L 389 395 L 396 392 L 400 392 L 402 390 L 405 389 L 412 391 L 420 385 L 421 385 L 423 388 L 425 388 L 434 381 L 437 383 L 442 384 L 445 379 L 445 377 L 447 375 L 449 369 L 453 365 L 457 368 L 457 377 L 459 378 L 460 377 L 460 367 L 462 365 L 465 365 L 468 359 L 465 336 L 467 334 L 469 335 L 470 334 L 470 329 L 469 328 L 469 323 L 466 314 L 456 298 L 456 296 L 458 294 L 461 294 L 464 296 L 466 296 L 463 290 L 455 282 L 454 279 L 452 277 L 452 275 L 454 273 L 452 271 L 440 265 L 435 260 L 433 259 L 429 259 L 428 260 L 417 259 L 411 264 L 409 264 L 406 261 L 408 255 L 408 252 L 411 246 L 414 245 L 416 247 L 416 249 L 418 249 L 421 245 L 422 241 L 424 239 L 428 242 L 432 236 L 432 230 L 431 229 L 433 227 L 438 233 L 438 238 L 440 238 L 448 226 L 449 221 L 447 218 L 447 216 L 445 212 L 439 206 L 440 204 L 444 204 L 451 208 L 452 207 L 452 202 L 449 198 L 449 196 L 451 194 L 454 195 L 458 200 L 460 199 L 459 192 L 458 190 L 454 187 L 455 185 L 458 186 L 459 185 L 459 181 L 453 174 L 453 172 L 454 171 L 457 171 L 461 174 L 464 172 L 466 172 L 471 177 L 471 186 L 470 187 L 470 194 L 469 195 L 470 197 L 470 203 L 471 204 L 473 203 L 472 185 L 474 183 L 480 185 L 480 182 L 477 177 L 476 173 L 474 171 L 473 164 L 475 162 L 478 162 L 482 164 L 483 162 L 468 144 L 468 142 L 470 140 L 478 140 L 479 139 L 464 127 L 464 124 L 467 121 L 460 111 L 460 109 L 458 107 L 454 98 L 447 91 L 447 89 L 450 86 L 454 85 L 460 79 L 461 76 L 463 74 L 465 68 L 464 56 L 462 51 L 459 47 L 452 40 Z M 257 283 L 259 285 L 259 288 L 247 297 L 246 296 L 246 292 L 250 286 L 253 283 Z M 258 272 L 262 275 L 262 278 L 260 280 L 256 280 L 254 278 L 254 276 Z M 401 255 L 403 258 L 401 262 L 398 264 L 397 263 L 397 260 Z M 390 256 L 390 259 L 388 262 L 379 271 L 358 287 L 353 288 L 348 291 L 342 291 L 328 284 L 325 281 L 314 274 L 310 270 L 308 266 L 308 264 L 311 261 L 315 261 L 316 262 L 325 263 L 326 264 L 348 264 L 353 262 L 363 261 L 383 254 L 388 254 Z M 441 217 L 443 217 L 446 220 L 446 227 L 442 231 L 440 231 L 438 229 L 438 226 L 437 225 L 437 222 Z M 69 168 L 77 168 L 83 171 L 88 177 L 88 183 L 87 185 L 82 189 L 73 186 L 70 183 L 66 176 L 66 172 Z M 139 152 L 147 161 L 150 168 L 150 176 L 146 183 L 140 189 L 131 195 L 113 203 L 103 203 L 97 200 L 93 196 L 89 189 L 89 182 L 90 181 L 91 174 L 101 158 L 106 153 L 117 147 L 130 147 Z M 236 154 L 244 147 L 252 144 L 256 144 L 260 146 L 263 150 L 268 149 L 271 152 L 270 169 L 272 171 L 273 174 L 280 179 L 287 179 L 296 173 L 302 173 L 303 174 L 307 174 L 308 175 L 312 175 L 318 177 L 333 177 L 334 176 L 337 176 L 351 169 L 356 164 L 358 159 L 360 157 L 363 157 L 369 163 L 371 169 L 371 197 L 370 198 L 369 208 L 362 226 L 351 238 L 344 243 L 336 246 L 326 246 L 314 241 L 297 225 L 295 221 L 292 218 L 290 213 L 285 206 L 285 204 L 282 198 L 281 191 L 279 189 L 272 186 L 264 179 L 260 172 L 260 161 L 259 161 L 252 169 L 246 172 L 240 172 L 234 167 L 233 164 L 233 161 Z M 373 145 L 375 139 L 379 135 L 385 132 L 402 131 L 403 132 L 408 132 L 417 136 L 423 142 L 425 147 L 425 150 L 424 153 L 419 158 L 415 160 L 412 160 L 411 161 L 396 161 L 395 160 L 389 159 L 380 154 L 375 149 Z M 296 126 L 300 122 L 312 118 L 323 119 L 326 121 L 328 121 L 332 125 L 332 127 L 330 129 L 326 129 L 325 128 L 316 127 L 315 126 L 309 126 L 303 128 L 298 128 Z M 277 112 L 283 112 L 287 116 L 288 119 L 288 129 L 286 132 L 286 134 L 298 133 L 299 132 L 301 133 L 308 133 L 318 137 L 323 141 L 325 145 L 325 150 L 322 156 L 315 163 L 306 168 L 303 168 L 299 170 L 293 170 L 282 166 L 274 158 L 271 152 L 271 145 L 274 140 L 269 135 L 269 124 L 271 119 Z M 360 106 L 366 106 L 368 107 L 371 110 L 374 116 L 374 120 L 375 121 L 375 125 L 374 126 L 373 132 L 366 138 L 362 138 L 358 136 L 354 131 L 353 128 L 353 117 L 354 116 L 354 113 Z M 290 73 L 293 76 L 293 81 L 289 85 L 285 86 L 279 91 L 274 92 L 271 89 L 272 82 L 279 75 L 281 75 L 284 73 Z M 254 72 L 258 74 L 263 79 L 264 82 L 257 90 L 250 101 L 247 104 L 243 104 L 234 94 L 234 85 L 235 82 L 242 74 L 246 72 Z M 358 67 L 362 63 L 370 63 L 376 66 L 383 73 L 383 78 L 380 81 L 376 81 L 370 77 L 362 75 L 358 72 Z M 430 48 L 439 48 L 445 52 L 451 59 L 452 62 L 452 71 L 450 75 L 442 82 L 440 82 L 435 79 L 427 71 L 418 65 L 418 60 L 421 55 L 425 51 Z" fill="#FBFBFB" fill-rule="evenodd"/><path d="M 122 567 L 121 565 L 115 563 L 113 561 L 112 557 L 111 557 L 111 560 L 106 564 L 103 564 L 96 559 L 97 560 L 97 566 L 99 569 L 103 568 L 107 565 L 113 565 L 114 566 Z M 332 518 L 331 517 L 328 517 L 325 520 L 323 524 L 324 525 L 329 525 L 331 522 Z M 316 503 L 312 505 L 311 509 L 309 511 L 309 513 L 313 513 L 317 510 L 317 504 Z M 347 497 L 344 497 L 341 500 L 339 504 L 339 507 L 340 508 L 344 504 Z M 331 486 L 330 486 L 328 490 L 328 495 L 327 496 L 328 499 L 330 497 L 330 494 L 331 493 Z M 221 451 L 221 456 L 223 456 L 228 451 L 230 453 L 229 459 L 228 460 L 228 464 L 229 465 L 240 465 L 239 464 L 229 464 L 228 463 L 229 457 L 231 455 L 231 451 L 230 450 L 227 451 L 223 455 L 221 454 Z M 258 442 L 255 444 L 252 452 L 252 455 L 254 459 L 256 456 L 256 453 L 258 448 Z M 255 426 L 252 426 L 247 432 L 244 440 L 245 443 L 253 433 L 255 429 Z M 254 410 L 252 410 L 249 413 L 249 415 L 247 417 L 247 419 L 245 422 L 246 423 L 248 423 L 252 419 L 255 411 Z M 227 396 L 224 399 L 222 403 L 223 404 L 230 403 L 232 406 L 219 429 L 219 432 L 221 432 L 225 429 L 228 431 L 228 434 L 223 446 L 228 434 L 228 430 L 225 429 L 221 431 L 220 430 L 220 427 L 232 406 L 232 403 L 231 402 L 226 404 L 223 403 L 224 399 Z M 588 599 L 587 579 L 586 578 L 586 573 L 582 561 L 581 554 L 578 549 L 575 540 L 569 531 L 564 525 L 558 520 L 553 517 L 550 517 L 549 516 L 541 517 L 535 521 L 535 524 L 532 529 L 526 535 L 523 536 L 515 532 L 512 532 L 508 529 L 508 526 L 502 521 L 500 517 L 500 513 L 498 510 L 496 511 L 492 518 L 488 522 L 484 524 L 481 524 L 478 521 L 478 515 L 481 509 L 485 504 L 488 498 L 488 496 L 490 494 L 490 492 L 492 489 L 495 480 L 495 477 L 496 476 L 496 459 L 498 457 L 501 457 L 502 458 L 503 457 L 502 445 L 498 433 L 498 429 L 500 427 L 502 427 L 503 424 L 500 420 L 496 411 L 493 408 L 487 398 L 489 395 L 495 396 L 496 394 L 485 380 L 481 377 L 480 377 L 468 400 L 459 410 L 452 414 L 440 413 L 431 418 L 427 418 L 426 419 L 399 419 L 398 420 L 393 420 L 392 421 L 382 421 L 381 422 L 374 422 L 373 423 L 353 423 L 352 424 L 346 424 L 345 425 L 331 424 L 326 421 L 315 421 L 314 422 L 302 423 L 301 424 L 291 424 L 290 423 L 287 423 L 290 423 L 293 425 L 299 425 L 308 428 L 314 434 L 322 440 L 329 449 L 329 452 L 324 458 L 322 463 L 323 464 L 326 463 L 334 455 L 338 458 L 331 465 L 332 470 L 334 473 L 336 473 L 338 471 L 341 471 L 346 467 L 350 467 L 353 465 L 355 466 L 359 466 L 361 468 L 361 472 L 353 483 L 352 489 L 353 490 L 356 489 L 362 484 L 365 484 L 367 486 L 368 497 L 359 506 L 355 513 L 347 521 L 339 526 L 336 529 L 332 530 L 324 537 L 321 537 L 306 529 L 299 523 L 299 518 L 301 515 L 301 511 L 300 510 L 298 512 L 297 515 L 293 518 L 288 508 L 284 504 L 281 498 L 281 489 L 284 480 L 284 473 L 283 472 L 279 477 L 278 480 L 277 495 L 275 497 L 269 492 L 266 483 L 266 467 L 265 465 L 264 465 L 262 467 L 261 477 L 257 481 L 257 487 L 258 490 L 296 531 L 296 534 L 295 535 L 291 535 L 290 534 L 287 534 L 278 531 L 271 531 L 271 533 L 282 543 L 282 545 L 280 547 L 276 547 L 275 546 L 262 546 L 261 545 L 247 545 L 245 547 L 245 550 L 254 558 L 254 561 L 250 565 L 248 559 L 245 558 L 239 562 L 237 565 L 225 576 L 220 577 L 218 574 L 218 567 L 217 566 L 214 567 L 212 569 L 209 576 L 205 581 L 203 588 L 197 600 L 195 602 L 192 603 L 190 601 L 188 595 L 185 594 L 183 596 L 179 611 L 176 614 L 174 614 L 166 606 L 159 596 L 158 593 L 149 584 L 144 581 L 139 576 L 139 573 L 141 570 L 141 567 L 142 566 L 141 560 L 134 553 L 130 552 L 126 547 L 126 545 L 122 541 L 114 538 L 106 540 L 105 538 L 109 535 L 106 536 L 101 540 L 101 541 L 107 541 L 111 544 L 111 549 L 112 549 L 112 544 L 116 540 L 121 541 L 125 544 L 128 553 L 130 554 L 134 554 L 141 560 L 142 566 L 140 571 L 135 577 L 135 579 L 136 581 L 139 582 L 142 586 L 146 589 L 151 599 L 154 602 L 155 605 L 164 617 L 164 619 L 167 625 L 167 633 L 165 636 L 166 639 L 175 638 L 181 635 L 187 629 L 196 617 L 202 614 L 206 610 L 210 609 L 224 596 L 227 596 L 228 597 L 233 596 L 237 592 L 239 587 L 241 585 L 243 585 L 247 588 L 256 578 L 263 574 L 266 571 L 269 573 L 269 576 L 270 577 L 273 577 L 284 571 L 287 568 L 293 567 L 296 569 L 299 569 L 308 566 L 309 564 L 305 560 L 304 557 L 305 554 L 307 552 L 312 552 L 318 554 L 336 562 L 343 563 L 347 565 L 353 565 L 354 566 L 360 566 L 361 567 L 385 567 L 386 566 L 391 566 L 392 565 L 400 564 L 404 562 L 410 562 L 413 565 L 413 569 L 409 573 L 405 574 L 404 577 L 412 585 L 443 611 L 446 611 L 448 609 L 452 610 L 461 617 L 472 623 L 473 622 L 470 618 L 470 616 L 473 613 L 478 613 L 483 615 L 495 615 L 496 614 L 505 613 L 517 609 L 519 607 L 524 606 L 526 604 L 532 601 L 534 601 L 540 597 L 542 597 L 545 600 L 545 604 L 541 609 L 541 613 L 545 617 L 548 618 L 550 620 L 558 624 L 560 624 L 560 619 L 564 615 L 569 617 L 579 617 L 583 613 L 576 609 L 572 605 L 571 601 L 575 597 L 580 598 L 583 600 L 587 600 Z M 186 597 L 187 598 L 187 603 L 186 606 L 182 609 L 181 608 L 182 600 L 184 597 Z M 243 562 L 245 565 L 242 568 L 235 572 L 234 571 L 235 569 L 242 562 Z M 265 549 L 266 548 L 269 549 L 278 549 L 279 551 L 276 553 L 271 553 L 270 552 L 266 552 Z M 274 534 L 277 532 L 278 533 L 285 534 L 288 536 L 291 536 L 293 538 L 290 542 L 287 542 L 286 541 L 284 542 Z M 349 530 L 345 535 L 336 541 L 331 542 L 329 540 L 335 534 L 339 533 L 346 529 Z M 543 519 L 545 517 L 549 517 L 551 519 L 547 521 L 545 521 Z M 440 506 L 442 508 L 442 511 L 441 512 L 438 510 L 438 508 Z M 372 502 L 377 506 L 374 516 L 363 528 L 360 528 L 357 524 L 358 518 L 362 513 L 364 508 L 369 502 Z M 409 509 L 409 511 L 405 514 L 399 521 L 394 523 L 385 537 L 383 544 L 379 548 L 377 546 L 379 542 L 379 538 L 378 537 L 367 539 L 362 542 L 359 542 L 357 540 L 359 534 L 362 530 L 370 530 L 372 528 L 376 528 L 379 531 L 381 530 L 381 528 L 383 526 L 383 523 L 384 522 L 385 502 L 388 498 L 391 498 L 393 500 L 395 506 L 400 506 L 403 508 L 408 508 Z M 433 494 L 436 496 L 436 500 L 434 503 L 433 503 L 431 500 L 431 496 Z M 453 490 L 454 491 L 455 498 L 453 502 L 453 507 L 451 513 L 449 515 L 448 519 L 443 526 L 440 528 L 439 526 L 442 522 L 444 514 L 446 511 L 446 505 L 447 502 L 450 499 L 451 491 Z M 415 487 L 420 491 L 425 501 L 425 503 L 426 503 L 429 507 L 429 510 L 427 511 L 425 509 L 421 513 L 420 524 L 416 531 L 412 535 L 411 532 L 414 527 L 417 518 L 417 508 L 411 496 L 411 490 Z M 258 486 L 260 485 L 269 495 L 270 495 L 279 504 L 283 506 L 289 513 L 291 519 L 293 521 L 295 521 L 302 528 L 309 533 L 310 535 L 307 537 L 302 535 L 264 496 L 258 488 Z M 421 483 L 423 481 L 425 481 L 431 485 L 432 489 L 428 492 L 423 487 L 423 485 Z M 372 494 L 372 488 L 374 483 L 374 478 L 376 476 L 378 477 L 382 477 L 385 480 L 390 482 L 392 484 L 394 483 L 398 484 L 400 482 L 402 482 L 404 484 L 403 487 L 400 489 L 397 489 L 396 490 L 394 489 L 391 490 L 384 489 L 377 495 L 373 495 Z M 482 366 L 481 367 L 481 370 L 483 371 L 485 368 Z M 468 360 L 467 364 L 465 366 L 462 366 L 461 367 L 461 377 L 459 379 L 456 377 L 456 368 L 453 366 L 450 369 L 448 375 L 446 377 L 446 379 L 442 385 L 437 384 L 434 382 L 425 389 L 423 389 L 422 387 L 420 386 L 412 392 L 405 390 L 402 391 L 400 393 L 396 393 L 389 396 L 386 396 L 384 398 L 379 399 L 376 401 L 373 401 L 369 397 L 369 394 L 367 392 L 362 393 L 350 402 L 342 403 L 340 405 L 338 404 L 339 400 L 337 398 L 333 398 L 322 404 L 318 404 L 311 407 L 294 408 L 290 405 L 290 402 L 289 401 L 281 401 L 278 400 L 275 397 L 276 392 L 278 390 L 274 395 L 274 402 L 281 406 L 288 407 L 289 408 L 307 408 L 308 407 L 313 407 L 314 406 L 321 405 L 332 399 L 335 399 L 336 400 L 335 407 L 337 408 L 340 407 L 342 405 L 347 404 L 363 393 L 366 392 L 368 394 L 368 403 L 366 405 L 366 409 L 368 409 L 373 407 L 377 403 L 379 403 L 387 397 L 394 396 L 395 397 L 394 401 L 397 402 L 406 398 L 408 398 L 417 393 L 422 392 L 430 386 L 432 389 L 427 396 L 420 403 L 421 404 L 429 401 L 439 392 L 443 386 L 446 379 L 448 377 L 450 371 L 452 369 L 455 372 L 455 375 L 454 376 L 454 389 L 456 389 L 458 387 L 463 376 L 463 374 L 466 369 L 466 366 L 468 363 Z M 283 315 L 277 316 L 272 319 L 267 324 L 263 333 L 249 346 L 246 346 L 241 349 L 239 347 L 241 341 L 239 345 L 240 355 L 238 360 L 238 366 L 229 380 L 230 381 L 231 380 L 234 380 L 236 382 L 236 384 L 228 394 L 236 384 L 236 381 L 235 380 L 232 380 L 230 378 L 236 369 L 246 360 L 249 362 L 249 369 L 249 362 L 248 359 L 246 357 L 246 352 L 250 346 L 256 339 L 262 335 L 267 324 L 272 319 L 277 316 Z M 257 284 L 253 284 L 247 292 L 247 296 L 258 288 L 258 285 Z M 259 273 L 255 276 L 256 279 L 260 279 L 261 278 L 261 275 Z M 401 256 L 398 260 L 398 263 L 400 262 L 402 258 Z M 389 256 L 388 255 L 383 255 L 370 260 L 367 260 L 358 263 L 353 263 L 348 265 L 326 265 L 325 264 L 320 264 L 315 262 L 311 262 L 309 264 L 309 266 L 311 270 L 314 273 L 318 275 L 328 283 L 342 290 L 348 290 L 353 287 L 358 286 L 379 270 L 387 262 L 389 259 Z M 387 258 L 387 259 L 371 274 L 364 278 L 357 284 L 353 285 L 347 289 L 342 289 L 337 287 L 335 285 L 333 285 L 330 282 L 317 274 L 310 267 L 310 265 L 312 263 L 316 263 L 320 265 L 325 265 L 326 266 L 347 266 L 348 265 L 361 264 L 385 256 Z M 225 225 L 229 235 L 232 238 L 236 235 L 240 239 L 241 242 L 246 249 L 249 248 L 249 244 L 251 243 L 258 252 L 258 254 L 260 256 L 261 260 L 264 264 L 269 264 L 270 263 L 269 264 L 265 264 L 262 261 L 258 252 L 251 243 L 249 243 L 249 247 L 246 248 L 243 245 L 241 240 L 237 235 L 235 235 L 232 238 L 229 235 Z M 238 221 L 240 224 L 242 224 L 245 220 L 248 223 L 249 228 L 252 231 L 255 232 L 260 237 L 271 254 L 271 261 L 271 259 L 273 257 L 275 257 L 278 259 L 280 259 L 287 264 L 290 263 L 288 258 L 281 251 L 278 250 L 271 245 L 266 244 L 255 232 L 252 231 L 249 228 L 248 226 L 248 222 L 246 220 L 241 224 Z M 279 255 L 281 253 L 287 259 L 287 260 L 285 261 Z M 443 218 L 441 218 L 438 222 L 438 225 L 440 230 L 442 230 L 445 227 L 445 220 Z M 65 181 L 71 190 L 79 198 L 92 209 L 98 212 L 102 216 L 102 219 L 106 228 L 106 230 L 116 249 L 123 259 L 140 276 L 151 283 L 156 288 L 156 291 L 154 293 L 150 293 L 149 292 L 147 293 L 150 296 L 155 298 L 157 300 L 175 307 L 179 312 L 176 315 L 172 315 L 172 317 L 187 323 L 190 323 L 194 325 L 200 326 L 202 328 L 202 330 L 199 333 L 200 335 L 214 337 L 219 341 L 218 343 L 219 345 L 226 346 L 228 343 L 228 340 L 230 337 L 230 334 L 232 332 L 233 327 L 235 325 L 240 314 L 243 311 L 246 311 L 248 313 L 247 317 L 248 313 L 246 309 L 252 303 L 252 300 L 248 298 L 245 300 L 244 304 L 242 307 L 242 311 L 236 323 L 234 325 L 228 325 L 223 323 L 218 323 L 216 321 L 219 318 L 225 315 L 227 313 L 226 311 L 215 311 L 214 310 L 211 310 L 208 308 L 206 308 L 202 303 L 189 304 L 187 301 L 194 296 L 191 292 L 187 292 L 181 289 L 176 288 L 162 281 L 142 266 L 130 255 L 120 242 L 112 234 L 110 234 L 107 231 L 105 224 L 102 219 L 102 216 L 77 196 L 68 186 L 67 183 Z M 213 316 L 217 312 L 222 312 L 223 313 L 222 315 L 216 318 Z M 249 300 L 251 303 L 246 309 L 244 310 L 243 309 L 243 306 L 245 303 Z M 180 292 L 181 291 L 186 293 L 190 293 L 192 296 L 190 298 L 185 298 Z M 69 169 L 67 172 L 67 176 L 71 183 L 73 185 L 80 188 L 84 187 L 87 183 L 87 177 L 86 175 L 80 170 L 77 169 Z M 67 173 L 71 169 L 77 169 L 81 171 L 86 176 L 87 178 L 87 183 L 83 187 L 78 187 L 74 185 L 70 181 Z M 166 159 L 164 165 L 164 169 L 178 185 L 189 201 L 193 205 L 195 205 L 198 201 L 204 210 L 207 217 L 215 227 L 218 226 L 218 220 L 220 218 L 224 223 L 223 221 L 219 218 L 218 219 L 218 225 L 216 227 L 214 226 L 209 220 L 200 203 L 197 201 L 196 203 L 193 205 L 190 202 L 175 181 L 164 169 L 164 165 Z M 363 158 L 360 158 L 357 163 L 361 158 L 363 158 L 367 162 L 369 166 L 369 171 L 370 172 L 370 196 L 369 197 L 369 202 L 368 203 L 367 211 L 363 220 L 363 222 L 361 224 L 361 226 L 353 235 L 350 236 L 344 241 L 340 242 L 337 244 L 329 245 L 314 240 L 300 227 L 292 216 L 286 205 L 293 218 L 296 221 L 298 225 L 314 240 L 326 245 L 336 245 L 344 242 L 351 237 L 361 226 L 364 220 L 368 208 L 368 205 L 369 204 L 369 198 L 370 197 L 370 169 L 368 163 Z M 256 154 L 252 154 L 249 157 L 248 156 L 246 157 L 246 159 L 248 161 L 248 164 L 249 161 L 251 159 L 253 159 Z M 139 153 L 130 148 L 117 148 L 114 150 L 112 150 L 106 154 L 99 162 L 92 174 L 91 180 L 91 177 L 96 167 L 101 160 L 108 153 L 111 152 L 113 150 L 119 148 L 129 148 L 137 152 L 145 160 L 149 169 L 149 174 L 147 180 L 138 189 L 132 193 L 112 202 L 104 202 L 98 199 L 91 191 L 90 188 L 90 182 L 90 189 L 94 196 L 97 199 L 103 202 L 113 202 L 131 194 L 140 188 L 145 183 L 149 176 L 149 168 L 146 161 Z M 270 152 L 270 158 L 270 152 L 268 150 L 263 151 L 260 147 L 256 145 L 248 146 L 241 150 L 237 154 L 234 161 L 235 167 L 240 171 L 246 171 L 252 168 L 259 160 L 260 160 L 261 162 L 261 156 L 262 153 L 265 150 L 268 150 Z M 258 147 L 261 150 L 261 152 L 258 156 L 258 159 L 246 170 L 240 170 L 235 165 L 235 160 L 237 156 L 243 150 L 251 146 L 256 146 Z M 233 135 L 232 137 L 233 147 L 221 161 L 222 164 L 225 162 L 228 162 L 230 164 L 229 169 L 225 175 L 223 182 L 225 184 L 229 181 L 231 183 L 231 186 L 232 183 L 231 181 L 228 181 L 226 183 L 224 182 L 224 178 L 230 167 L 230 163 L 229 162 L 223 162 L 222 159 L 234 146 L 232 142 L 232 137 Z M 374 145 L 376 149 L 380 153 L 389 158 L 395 159 L 396 160 L 411 160 L 412 159 L 415 159 L 419 157 L 423 153 L 424 150 L 424 147 L 422 142 L 417 137 L 411 134 L 403 133 L 402 132 L 385 133 L 379 136 L 376 139 Z M 375 142 L 380 136 L 384 134 L 387 134 L 388 133 L 405 133 L 416 137 L 422 142 L 423 144 L 423 152 L 419 156 L 412 159 L 408 159 L 407 160 L 395 159 L 386 156 L 384 154 L 381 153 L 376 148 L 375 146 Z M 142 130 L 143 135 L 148 137 L 148 139 L 145 145 L 145 149 L 147 153 L 152 157 L 157 156 L 162 151 L 164 146 L 164 136 L 163 133 L 160 130 L 155 129 L 151 133 L 150 132 L 151 129 L 156 125 L 161 125 L 166 130 L 168 133 L 168 136 L 169 137 L 169 143 L 168 144 L 168 149 L 167 150 L 167 157 L 169 137 L 168 136 L 168 133 L 165 128 L 161 125 L 156 125 L 151 129 L 149 133 L 146 136 L 142 133 Z M 159 130 L 163 134 L 164 137 L 163 148 L 156 156 L 151 156 L 146 151 L 145 145 L 151 134 L 155 130 Z M 297 126 L 298 127 L 303 127 L 309 125 L 315 125 L 316 126 L 321 126 L 326 128 L 330 128 L 331 127 L 331 125 L 328 122 L 319 119 L 307 120 L 300 123 Z M 313 122 L 314 121 L 320 121 L 326 123 L 327 125 L 325 126 L 320 124 L 314 124 Z M 304 124 L 304 123 L 307 121 L 311 121 L 312 122 L 311 124 L 308 124 L 307 125 Z M 101 119 L 97 117 L 94 117 L 92 121 L 89 123 L 89 127 L 90 127 L 92 121 L 95 118 L 100 119 L 109 129 L 112 137 L 112 142 L 106 147 L 103 147 L 97 144 L 97 146 L 94 148 L 92 145 L 83 137 L 78 135 L 73 135 L 69 138 L 68 141 L 68 145 L 70 150 L 71 150 L 71 144 L 75 140 L 78 140 L 82 142 L 91 151 L 93 155 L 93 161 L 89 165 L 82 165 L 76 161 L 76 164 L 74 166 L 71 166 L 70 165 L 66 166 L 62 171 L 62 175 L 64 179 L 62 174 L 62 171 L 66 166 L 69 165 L 74 166 L 78 162 L 80 164 L 86 166 L 87 165 L 90 165 L 94 160 L 93 153 L 83 142 L 79 140 L 73 140 L 70 145 L 68 144 L 69 138 L 73 135 L 78 135 L 83 137 L 95 149 L 96 149 L 98 146 L 101 147 L 108 147 L 112 143 L 111 132 L 107 125 Z M 461 110 L 464 116 L 468 121 L 465 124 L 465 127 L 480 139 L 478 141 L 470 141 L 469 144 L 484 162 L 482 165 L 478 163 L 475 163 L 474 164 L 474 168 L 481 182 L 481 185 L 480 186 L 478 186 L 475 184 L 473 185 L 474 203 L 471 205 L 469 203 L 469 197 L 468 196 L 469 194 L 469 187 L 470 186 L 470 177 L 466 173 L 464 173 L 461 175 L 457 172 L 454 172 L 454 174 L 460 181 L 460 185 L 458 187 L 457 186 L 455 186 L 455 187 L 459 190 L 461 196 L 461 199 L 458 201 L 454 196 L 451 195 L 450 198 L 453 202 L 453 207 L 451 209 L 444 205 L 440 205 L 440 206 L 446 212 L 448 216 L 448 218 L 450 221 L 449 226 L 447 228 L 445 233 L 440 239 L 437 238 L 437 233 L 433 228 L 432 229 L 433 230 L 433 236 L 429 242 L 427 243 L 424 240 L 422 245 L 418 250 L 416 250 L 415 247 L 412 246 L 407 259 L 407 261 L 409 263 L 411 263 L 417 258 L 420 258 L 421 259 L 433 258 L 443 266 L 452 270 L 455 273 L 453 275 L 454 278 L 453 276 L 457 274 L 452 270 L 445 267 L 439 262 L 439 261 L 441 259 L 443 259 L 443 258 L 440 258 L 439 257 L 429 257 L 423 259 L 421 256 L 431 246 L 431 245 L 435 242 L 437 242 L 439 244 L 436 248 L 439 248 L 443 244 L 442 243 L 442 239 L 446 235 L 448 230 L 452 225 L 455 227 L 455 229 L 452 234 L 453 236 L 459 231 L 465 219 L 466 208 L 469 205 L 473 208 L 474 207 L 474 190 L 473 187 L 475 185 L 478 186 L 480 188 L 482 187 L 481 181 L 474 167 L 474 165 L 476 163 L 483 165 L 484 164 L 484 161 L 477 152 L 469 144 L 471 141 L 480 141 L 481 140 L 477 135 L 465 127 L 465 125 L 469 122 L 464 116 Z M 458 219 L 460 219 L 463 222 L 462 224 L 459 223 L 461 225 L 460 228 L 458 227 L 458 225 L 456 223 L 456 221 Z M 451 218 L 453 215 L 456 215 L 457 216 L 454 220 Z M 141 128 L 141 125 L 137 115 L 133 110 L 129 108 L 124 109 L 122 111 L 122 114 L 124 113 L 129 113 L 136 121 L 138 127 L 138 137 L 134 142 L 128 141 L 122 136 L 118 138 L 110 121 L 104 115 L 99 112 L 93 112 L 89 116 L 89 119 L 88 121 L 89 116 L 93 112 L 99 112 L 106 117 L 111 123 L 118 139 L 123 138 L 129 142 L 135 142 L 138 138 L 138 125 L 136 120 L 130 113 L 128 113 L 124 110 L 126 108 L 129 108 L 137 115 L 137 117 L 139 119 L 139 122 L 141 125 Z M 248 80 L 247 81 L 244 80 L 243 84 L 240 87 L 240 91 L 242 90 L 244 93 L 243 96 L 245 97 L 248 93 L 248 91 L 246 92 L 245 91 L 245 87 L 249 83 L 252 84 L 252 82 L 251 81 L 250 82 Z M 254 73 L 246 73 L 242 75 L 236 82 L 235 85 L 235 94 L 243 103 L 247 103 L 249 101 L 256 90 L 263 82 L 262 79 L 258 75 Z M 255 75 L 261 80 L 261 82 L 254 90 L 249 99 L 245 102 L 241 99 L 239 95 L 236 93 L 235 88 L 237 82 L 244 76 L 246 77 L 249 74 L 250 75 Z M 430 49 L 422 55 L 419 60 L 419 65 L 427 70 L 435 78 L 440 81 L 442 81 L 449 75 L 451 71 L 451 62 L 448 56 L 439 49 Z M 430 50 L 438 50 L 442 52 L 449 59 L 451 63 L 451 70 L 448 74 L 441 80 L 438 79 L 429 70 L 422 66 L 419 63 L 421 58 Z M 393 52 L 390 52 L 385 50 L 381 50 L 380 49 L 359 49 L 356 50 L 354 48 L 354 46 L 357 40 L 356 39 L 351 40 L 342 48 L 339 48 L 337 46 L 329 42 L 324 41 L 323 42 L 323 45 L 325 48 L 325 51 L 323 53 L 305 53 L 303 55 L 303 57 L 300 59 L 302 59 L 303 56 L 306 53 L 323 53 L 325 51 L 325 48 L 323 45 L 323 43 L 325 41 L 331 43 L 339 48 L 342 48 L 344 47 L 347 43 L 355 39 L 356 40 L 356 43 L 354 46 L 354 49 L 355 50 L 359 50 L 360 49 L 380 49 L 381 50 L 385 50 L 386 51 Z" fill="#D8D8D8" fill-rule="evenodd"/><path d="M 186 598 L 184 598 L 183 600 L 182 608 L 185 606 Z M 86 568 L 86 571 L 89 580 L 93 588 L 95 590 L 102 603 L 114 618 L 124 628 L 139 640 L 150 646 L 152 646 L 158 649 L 163 649 L 164 650 L 172 650 L 173 649 L 180 648 L 192 642 L 204 629 L 213 626 L 224 615 L 233 611 L 241 603 L 243 602 L 249 602 L 254 600 L 256 598 L 257 595 L 262 590 L 275 588 L 288 581 L 291 581 L 292 580 L 303 580 L 307 578 L 310 578 L 324 571 L 330 571 L 337 574 L 340 574 L 345 576 L 350 576 L 351 577 L 356 577 L 357 578 L 368 578 L 369 579 L 391 578 L 397 586 L 409 598 L 427 612 L 442 621 L 458 626 L 463 629 L 469 631 L 478 631 L 487 626 L 503 624 L 511 621 L 514 621 L 524 616 L 528 616 L 541 627 L 549 632 L 558 635 L 570 635 L 585 628 L 594 620 L 598 614 L 600 608 L 600 604 L 601 603 L 601 581 L 600 580 L 599 572 L 600 581 L 601 582 L 601 602 L 600 603 L 599 611 L 595 618 L 586 627 L 579 631 L 577 631 L 572 634 L 569 634 L 568 635 L 556 634 L 543 628 L 528 615 L 523 616 L 516 620 L 513 620 L 510 622 L 506 622 L 505 623 L 497 624 L 496 625 L 491 625 L 490 626 L 485 626 L 478 631 L 469 631 L 456 625 L 445 622 L 435 617 L 426 611 L 402 591 L 391 578 L 382 578 L 381 579 L 357 578 L 356 577 L 345 576 L 344 575 L 334 573 L 328 570 L 325 570 L 317 575 L 312 576 L 306 579 L 302 579 L 301 580 L 290 580 L 274 588 L 271 588 L 270 589 L 262 589 L 253 600 L 246 601 L 245 602 L 241 602 L 234 610 L 227 614 L 223 615 L 214 625 L 209 627 L 206 627 L 203 629 L 189 644 L 176 649 L 165 650 L 164 649 L 159 649 L 150 645 L 148 645 L 146 643 L 138 639 L 129 632 L 111 614 L 103 604 L 102 601 L 99 598 L 94 588 L 92 586 L 89 580 L 86 571 Z M 244 564 L 242 563 L 235 571 L 242 567 Z M 266 549 L 266 551 L 270 551 L 271 552 L 276 552 L 278 551 L 278 550 L 269 550 Z M 275 534 L 284 541 L 286 540 L 287 541 L 290 541 L 292 538 L 277 533 Z M 433 495 L 432 496 L 432 500 L 433 502 L 434 502 L 435 500 L 435 496 Z M 453 491 L 452 491 L 451 499 L 448 502 L 447 505 L 447 511 L 445 514 L 443 522 L 441 524 L 440 527 L 441 527 L 447 519 L 448 515 L 450 513 L 452 507 L 452 502 L 454 498 Z M 259 486 L 259 488 L 265 496 L 302 534 L 306 536 L 309 535 L 309 534 L 302 529 L 295 522 L 293 522 L 290 519 L 290 517 L 286 510 L 283 507 L 279 505 L 270 496 L 269 496 L 260 486 Z M 214 316 L 216 317 L 222 314 L 222 313 L 217 313 Z M 249 301 L 248 301 L 244 306 L 244 309 L 245 309 L 250 303 Z M 181 292 L 185 297 L 190 297 L 191 296 L 190 294 L 186 294 Z M 385 257 L 361 265 L 355 265 L 354 266 L 348 266 L 347 267 L 326 267 L 325 266 L 320 266 L 316 264 L 312 264 L 311 267 L 317 273 L 330 281 L 333 284 L 335 284 L 337 286 L 342 288 L 347 288 L 351 285 L 357 283 L 364 277 L 371 273 L 386 259 Z M 359 273 L 361 271 L 364 272 L 363 275 L 361 275 Z M 281 254 L 280 255 L 286 260 Z M 71 170 L 68 173 L 71 181 L 74 184 L 78 186 L 83 186 L 86 183 L 86 178 L 85 176 L 81 172 L 77 170 Z M 263 153 L 262 156 L 262 162 L 261 163 L 261 168 L 264 176 L 272 184 L 279 187 L 283 191 L 284 199 L 286 202 L 287 206 L 297 222 L 310 236 L 314 239 L 318 240 L 321 242 L 331 244 L 332 243 L 337 243 L 340 241 L 344 240 L 350 235 L 353 234 L 358 229 L 364 217 L 366 211 L 366 208 L 367 207 L 368 197 L 369 196 L 369 172 L 368 171 L 368 166 L 366 162 L 363 159 L 361 159 L 357 165 L 350 172 L 336 178 L 333 178 L 332 179 L 318 179 L 317 178 L 313 178 L 312 177 L 308 177 L 302 175 L 296 175 L 287 181 L 280 181 L 275 178 L 269 171 L 268 168 L 269 152 L 268 151 L 265 151 Z M 263 154 L 266 151 L 269 153 L 269 157 L 268 158 L 268 169 L 270 173 L 279 181 L 288 181 L 298 175 L 301 175 L 310 178 L 315 178 L 316 179 L 323 179 L 324 180 L 334 179 L 349 173 L 357 166 L 361 160 L 363 160 L 366 163 L 368 168 L 369 191 L 368 192 L 368 199 L 367 200 L 367 204 L 366 205 L 365 212 L 358 228 L 354 232 L 352 230 L 358 218 L 358 215 L 360 211 L 360 206 L 358 202 L 353 198 L 348 196 L 337 196 L 331 198 L 324 202 L 313 212 L 310 220 L 311 226 L 320 238 L 318 240 L 312 237 L 301 226 L 291 212 L 285 200 L 284 194 L 283 193 L 283 189 L 281 187 L 279 187 L 273 184 L 265 177 L 262 171 L 262 158 L 263 157 Z M 134 151 L 129 149 L 119 149 L 113 151 L 111 153 L 108 154 L 102 160 L 97 167 L 92 177 L 92 180 L 91 181 L 91 188 L 92 191 L 98 198 L 104 201 L 112 201 L 118 199 L 138 188 L 146 180 L 148 174 L 147 166 L 144 160 Z M 256 147 L 251 147 L 243 151 L 238 156 L 236 160 L 236 165 L 240 169 L 246 169 L 249 167 L 257 159 L 257 156 L 260 152 L 260 150 Z M 256 153 L 257 155 L 253 160 L 250 161 L 248 165 L 247 164 L 247 161 L 245 159 L 245 157 L 247 155 L 249 156 L 252 153 Z M 376 142 L 376 146 L 381 152 L 384 153 L 386 155 L 395 158 L 401 158 L 402 159 L 412 158 L 419 155 L 422 152 L 422 144 L 421 142 L 416 138 L 405 134 L 388 134 L 387 135 L 384 135 L 380 137 Z M 159 131 L 155 131 L 152 134 L 146 145 L 147 151 L 151 155 L 156 155 L 162 148 L 163 137 L 162 134 Z M 314 122 L 314 123 L 320 123 L 326 125 L 326 124 L 324 123 Z M 277 114 L 274 117 L 271 123 L 271 128 L 270 129 L 271 135 L 274 138 L 277 139 L 273 145 L 273 152 L 276 158 L 282 164 L 292 168 L 303 167 L 315 161 L 321 155 L 323 151 L 323 144 L 318 139 L 303 134 L 290 135 L 289 136 L 282 137 L 281 136 L 284 133 L 286 129 L 287 122 L 286 121 L 286 118 L 283 114 L 281 113 Z M 273 145 L 281 138 L 287 136 L 291 136 L 292 135 L 307 135 L 313 137 L 320 141 L 323 145 L 323 150 L 321 154 L 311 163 L 302 167 L 289 167 L 283 164 L 275 156 L 273 152 Z M 282 114 L 286 119 L 286 128 L 285 131 L 279 137 L 275 138 L 271 134 L 271 124 L 274 118 L 278 114 Z M 360 108 L 357 111 L 354 120 L 355 129 L 360 135 L 362 136 L 366 136 L 368 135 L 372 130 L 372 127 L 373 126 L 373 118 L 371 113 L 368 109 L 366 108 Z M 361 108 L 366 108 L 370 112 L 373 119 L 372 129 L 367 135 L 361 135 L 359 134 L 355 128 L 355 116 L 357 112 Z M 291 76 L 290 75 L 284 75 L 281 76 L 277 79 L 273 84 L 273 89 L 274 90 L 277 90 L 283 85 L 290 82 L 292 80 Z M 291 77 L 291 80 L 289 82 L 282 85 L 278 89 L 275 90 L 273 88 L 274 84 L 281 77 L 285 75 L 289 75 Z M 255 76 L 250 76 L 249 75 L 246 78 L 244 77 L 238 82 L 236 88 L 237 93 L 239 94 L 241 98 L 245 101 L 248 99 L 253 90 L 260 82 L 260 80 Z M 248 79 L 250 81 L 251 80 L 253 82 L 253 84 L 252 85 L 249 84 L 246 87 L 246 91 L 248 90 L 249 93 L 245 98 L 242 96 L 243 95 L 242 91 L 241 92 L 239 91 L 239 87 L 242 84 L 244 79 L 246 80 Z M 359 69 L 361 73 L 369 75 L 376 79 L 380 79 L 381 78 L 381 73 L 376 68 L 370 65 L 362 65 Z M 360 68 L 364 65 L 371 66 L 377 69 L 380 72 L 381 77 L 379 79 L 377 79 L 368 74 L 363 73 L 360 70 Z M 430 51 L 422 58 L 420 63 L 429 69 L 438 78 L 441 79 L 445 76 L 450 70 L 450 63 L 448 59 L 442 53 L 438 51 Z M 446 34 L 440 33 L 439 32 L 428 32 L 422 34 L 413 39 L 408 44 L 405 49 L 405 52 L 403 54 L 401 54 L 395 51 L 392 51 L 387 49 L 383 49 L 382 48 L 376 48 L 375 47 L 363 47 L 362 48 L 358 48 L 356 46 L 358 41 L 358 38 L 355 37 L 347 41 L 341 47 L 335 43 L 333 43 L 328 40 L 322 40 L 321 41 L 321 44 L 324 49 L 322 52 L 304 52 L 301 54 L 301 56 L 299 58 L 292 60 L 284 64 L 277 69 L 274 69 L 266 60 L 256 56 L 249 56 L 248 57 L 245 57 L 239 59 L 232 63 L 227 68 L 221 78 L 220 87 L 219 88 L 220 90 L 220 95 L 225 105 L 231 111 L 237 113 L 240 116 L 240 118 L 234 129 L 234 131 L 231 137 L 231 143 L 232 146 L 221 158 L 219 162 L 220 165 L 223 165 L 226 163 L 228 164 L 228 168 L 224 174 L 222 180 L 222 184 L 223 185 L 228 184 L 230 186 L 227 195 L 227 203 L 229 205 L 232 205 L 233 204 L 235 206 L 235 216 L 238 224 L 241 226 L 243 226 L 245 224 L 247 226 L 248 229 L 251 232 L 254 233 L 259 238 L 270 255 L 270 260 L 268 262 L 265 262 L 262 259 L 258 249 L 250 240 L 248 241 L 248 244 L 246 246 L 244 244 L 242 239 L 237 233 L 234 233 L 231 235 L 224 220 L 220 216 L 217 218 L 217 223 L 215 224 L 208 216 L 201 202 L 197 199 L 196 201 L 193 203 L 187 196 L 180 185 L 167 171 L 165 168 L 165 166 L 169 155 L 170 135 L 168 132 L 168 130 L 162 124 L 155 124 L 149 130 L 149 131 L 145 134 L 143 132 L 142 124 L 137 113 L 132 108 L 130 107 L 125 107 L 122 109 L 120 113 L 120 118 L 119 119 L 120 132 L 118 134 L 116 132 L 112 122 L 105 114 L 100 111 L 93 111 L 91 112 L 88 116 L 87 119 L 87 125 L 88 126 L 89 132 L 95 143 L 93 144 L 88 139 L 80 134 L 73 134 L 71 135 L 67 140 L 67 146 L 69 152 L 75 162 L 73 164 L 67 164 L 65 165 L 61 170 L 61 176 L 65 184 L 70 191 L 78 199 L 91 210 L 97 213 L 100 216 L 105 231 L 118 255 L 136 275 L 149 284 L 153 288 L 151 291 L 146 291 L 145 292 L 149 297 L 164 305 L 173 308 L 176 311 L 173 314 L 170 314 L 169 315 L 171 318 L 177 321 L 192 326 L 198 327 L 200 330 L 196 333 L 197 335 L 202 337 L 206 337 L 207 338 L 213 338 L 216 340 L 215 343 L 216 345 L 225 348 L 228 348 L 229 347 L 229 343 L 231 337 L 236 328 L 239 318 L 244 313 L 247 315 L 241 330 L 242 332 L 242 337 L 238 345 L 238 357 L 236 360 L 236 367 L 228 379 L 228 381 L 229 382 L 232 382 L 234 385 L 224 397 L 221 402 L 221 405 L 222 406 L 228 404 L 230 406 L 230 408 L 219 425 L 217 431 L 218 434 L 221 434 L 224 431 L 227 433 L 220 450 L 220 458 L 221 459 L 224 457 L 226 458 L 226 465 L 228 467 L 237 467 L 239 466 L 241 467 L 245 472 L 241 475 L 225 475 L 224 476 L 218 476 L 214 481 L 202 481 L 199 484 L 199 487 L 201 489 L 197 492 L 186 493 L 178 496 L 176 498 L 176 501 L 179 502 L 181 505 L 166 518 L 149 539 L 149 542 L 153 546 L 156 551 L 154 554 L 151 553 L 141 543 L 136 540 L 132 536 L 122 532 L 115 532 L 114 533 L 110 533 L 105 535 L 98 542 L 95 549 L 95 565 L 96 566 L 96 569 L 99 574 L 101 574 L 105 570 L 109 568 L 112 568 L 118 570 L 128 577 L 138 587 L 139 587 L 147 596 L 164 622 L 165 625 L 165 633 L 162 639 L 165 641 L 174 640 L 177 638 L 181 637 L 190 628 L 192 624 L 199 617 L 201 616 L 207 617 L 219 603 L 224 600 L 229 601 L 231 599 L 234 598 L 241 589 L 247 591 L 258 579 L 262 578 L 265 575 L 267 575 L 270 579 L 272 579 L 281 575 L 289 570 L 299 571 L 313 566 L 313 565 L 309 562 L 306 558 L 306 556 L 308 554 L 312 554 L 321 557 L 324 559 L 326 559 L 331 562 L 337 563 L 341 565 L 349 566 L 350 567 L 364 568 L 365 569 L 382 569 L 383 568 L 394 567 L 403 564 L 409 564 L 411 566 L 411 569 L 409 571 L 403 573 L 401 576 L 410 585 L 443 613 L 446 613 L 448 611 L 450 611 L 470 624 L 473 624 L 474 623 L 473 617 L 475 615 L 480 615 L 481 616 L 498 616 L 499 615 L 503 615 L 518 610 L 521 608 L 523 608 L 538 600 L 540 600 L 542 602 L 542 604 L 539 608 L 539 613 L 547 620 L 561 627 L 566 627 L 566 625 L 563 621 L 565 618 L 568 618 L 569 619 L 578 619 L 581 618 L 586 613 L 584 610 L 580 609 L 574 604 L 574 601 L 576 599 L 581 601 L 585 601 L 586 602 L 590 599 L 589 580 L 588 579 L 588 575 L 587 574 L 585 563 L 583 559 L 583 556 L 575 537 L 569 529 L 559 519 L 554 516 L 543 515 L 540 516 L 538 518 L 534 519 L 529 527 L 526 530 L 524 531 L 518 531 L 517 530 L 512 530 L 510 528 L 511 524 L 507 523 L 504 520 L 504 518 L 498 507 L 495 509 L 492 515 L 485 522 L 482 522 L 479 518 L 480 514 L 487 504 L 495 486 L 495 483 L 498 474 L 498 461 L 499 460 L 503 460 L 505 458 L 505 452 L 504 451 L 503 442 L 500 433 L 500 431 L 502 429 L 504 430 L 505 429 L 505 425 L 498 411 L 495 408 L 491 401 L 492 398 L 498 399 L 499 397 L 494 388 L 483 375 L 483 374 L 488 370 L 482 361 L 480 365 L 479 374 L 477 377 L 477 379 L 468 397 L 457 409 L 452 412 L 447 412 L 444 410 L 440 410 L 438 412 L 427 417 L 407 416 L 406 417 L 398 417 L 397 418 L 386 418 L 385 419 L 374 420 L 373 421 L 349 421 L 344 423 L 334 423 L 328 420 L 324 420 L 323 419 L 316 419 L 315 420 L 303 421 L 302 422 L 288 422 L 276 418 L 269 414 L 264 409 L 262 406 L 261 402 L 254 394 L 249 384 L 249 372 L 250 371 L 249 352 L 255 342 L 264 334 L 267 326 L 274 319 L 280 316 L 284 316 L 285 315 L 299 315 L 305 317 L 310 317 L 316 314 L 322 313 L 323 312 L 327 312 L 328 311 L 372 311 L 377 305 L 381 304 L 383 306 L 383 310 L 382 311 L 384 313 L 390 313 L 395 316 L 394 319 L 384 320 L 383 321 L 346 321 L 345 322 L 341 321 L 340 322 L 330 322 L 329 323 L 320 324 L 313 327 L 306 327 L 300 325 L 285 325 L 280 327 L 276 331 L 276 335 L 282 337 L 284 340 L 279 344 L 270 345 L 263 348 L 258 354 L 258 358 L 260 360 L 263 361 L 269 361 L 270 362 L 270 364 L 258 374 L 257 379 L 259 383 L 262 386 L 266 386 L 271 383 L 274 383 L 275 382 L 278 382 L 279 383 L 279 387 L 275 391 L 271 399 L 271 402 L 276 406 L 282 408 L 286 408 L 287 409 L 294 409 L 295 410 L 311 409 L 312 408 L 316 408 L 331 403 L 333 405 L 333 412 L 336 413 L 341 411 L 353 401 L 358 399 L 362 396 L 365 396 L 366 397 L 365 399 L 365 404 L 364 405 L 364 409 L 365 410 L 372 409 L 387 400 L 389 401 L 389 404 L 388 405 L 389 406 L 393 406 L 416 395 L 420 395 L 423 393 L 425 395 L 417 403 L 418 405 L 425 405 L 433 400 L 441 392 L 442 389 L 450 377 L 452 378 L 452 393 L 453 394 L 455 393 L 460 387 L 469 365 L 470 353 L 469 352 L 468 343 L 472 340 L 472 332 L 471 331 L 470 320 L 466 311 L 466 309 L 464 307 L 460 299 L 462 297 L 466 299 L 469 302 L 471 302 L 471 300 L 464 288 L 456 279 L 456 277 L 460 275 L 456 271 L 446 266 L 443 263 L 444 261 L 446 261 L 448 259 L 444 257 L 437 256 L 434 253 L 451 242 L 458 235 L 465 223 L 467 217 L 468 209 L 471 208 L 473 210 L 475 208 L 476 205 L 476 194 L 475 193 L 475 189 L 477 187 L 480 190 L 483 190 L 483 182 L 476 167 L 478 165 L 482 167 L 485 167 L 486 166 L 486 163 L 483 157 L 472 145 L 474 142 L 481 142 L 482 141 L 482 138 L 478 134 L 471 130 L 468 127 L 471 122 L 465 115 L 460 106 L 460 104 L 451 91 L 451 90 L 454 88 L 464 77 L 464 75 L 466 72 L 466 68 L 467 67 L 466 56 L 461 46 L 453 38 Z M 136 557 L 140 562 L 140 568 L 138 571 L 134 574 L 132 573 L 129 569 L 129 563 L 130 560 L 133 557 Z M 123 567 L 120 568 L 119 567 L 114 567 L 113 566 L 107 566 L 105 568 L 99 570 L 96 566 L 96 560 L 95 559 L 97 558 L 103 563 L 106 563 L 110 560 L 110 557 L 112 556 L 114 561 L 117 563 L 121 564 Z M 118 542 L 122 543 L 124 545 L 126 550 L 126 554 L 124 558 L 120 561 L 116 560 L 113 556 L 113 550 L 114 547 Z M 104 542 L 108 545 L 109 553 L 108 554 L 108 558 L 106 560 L 101 560 L 97 555 L 97 550 L 99 545 L 101 543 Z M 482 365 L 486 368 L 483 372 L 480 370 L 480 367 Z M 445 34 L 452 38 L 461 47 L 466 56 L 466 62 L 467 63 L 466 71 L 462 79 L 454 87 L 451 88 L 450 91 L 456 98 L 465 116 L 470 122 L 466 125 L 466 127 L 477 134 L 481 138 L 482 140 L 480 142 L 471 142 L 470 144 L 478 152 L 485 161 L 485 164 L 483 166 L 481 166 L 478 164 L 475 165 L 475 167 L 482 181 L 483 187 L 481 189 L 476 186 L 474 187 L 475 190 L 475 207 L 473 209 L 470 206 L 467 208 L 467 215 L 462 228 L 460 231 L 454 237 L 453 237 L 451 234 L 454 229 L 454 227 L 452 226 L 449 230 L 447 235 L 443 239 L 443 243 L 444 244 L 439 249 L 436 249 L 435 247 L 438 245 L 437 243 L 433 244 L 422 256 L 423 258 L 429 256 L 439 256 L 440 257 L 443 257 L 444 259 L 441 260 L 440 262 L 445 266 L 452 269 L 458 274 L 456 276 L 454 276 L 454 277 L 458 283 L 465 290 L 470 298 L 469 300 L 467 300 L 462 296 L 459 296 L 458 297 L 465 308 L 469 317 L 470 324 L 471 325 L 471 333 L 472 334 L 472 337 L 471 338 L 468 337 L 467 338 L 468 341 L 468 348 L 469 349 L 469 355 L 470 356 L 469 363 L 467 366 L 467 369 L 464 374 L 464 376 L 459 387 L 456 390 L 453 389 L 453 376 L 454 375 L 454 372 L 452 370 L 449 375 L 449 377 L 447 379 L 444 386 L 440 392 L 432 400 L 425 404 L 422 404 L 421 405 L 419 403 L 430 391 L 431 389 L 430 387 L 422 393 L 417 394 L 408 399 L 406 399 L 397 403 L 395 403 L 393 401 L 394 397 L 387 398 L 379 404 L 377 404 L 373 408 L 368 410 L 365 409 L 365 405 L 367 403 L 367 394 L 366 393 L 363 394 L 347 405 L 342 406 L 340 408 L 337 409 L 334 407 L 335 400 L 332 400 L 321 406 L 318 406 L 313 408 L 308 408 L 307 409 L 289 409 L 288 408 L 284 408 L 275 404 L 273 402 L 273 395 L 280 386 L 280 383 L 279 382 L 273 382 L 272 383 L 269 383 L 266 385 L 262 385 L 259 382 L 258 380 L 258 374 L 264 369 L 266 369 L 271 364 L 271 361 L 260 360 L 258 358 L 258 355 L 265 347 L 271 345 L 276 345 L 282 343 L 285 339 L 284 337 L 278 336 L 276 334 L 277 330 L 280 327 L 285 325 L 298 325 L 299 326 L 304 326 L 305 327 L 314 327 L 324 323 L 330 323 L 331 322 L 383 321 L 384 320 L 395 319 L 396 318 L 395 315 L 390 313 L 385 313 L 383 311 L 383 305 L 382 304 L 378 304 L 376 305 L 371 311 L 327 311 L 326 312 L 322 312 L 318 314 L 315 314 L 309 317 L 305 317 L 301 315 L 284 315 L 275 318 L 268 324 L 263 335 L 255 341 L 247 352 L 247 357 L 249 359 L 250 362 L 250 369 L 249 370 L 249 375 L 248 376 L 249 385 L 251 390 L 259 400 L 265 411 L 270 415 L 278 419 L 280 419 L 286 422 L 290 422 L 291 423 L 301 423 L 302 422 L 309 422 L 315 420 L 326 420 L 331 423 L 345 424 L 346 423 L 352 423 L 353 422 L 373 422 L 374 421 L 381 421 L 382 420 L 392 420 L 393 419 L 398 419 L 399 418 L 426 418 L 427 417 L 431 417 L 440 412 L 452 413 L 459 409 L 467 400 L 479 377 L 481 376 L 484 378 L 497 394 L 495 397 L 489 396 L 488 398 L 494 408 L 497 411 L 501 420 L 504 424 L 504 426 L 502 428 L 499 429 L 499 433 L 503 445 L 504 457 L 502 459 L 501 458 L 498 458 L 497 459 L 497 476 L 496 477 L 496 480 L 493 489 L 491 492 L 491 494 L 489 496 L 489 498 L 486 504 L 482 509 L 479 515 L 479 521 L 481 523 L 484 523 L 488 521 L 491 518 L 495 511 L 498 509 L 501 513 L 501 517 L 503 521 L 509 526 L 509 529 L 512 531 L 515 531 L 518 533 L 520 533 L 522 535 L 526 534 L 533 526 L 534 521 L 537 518 L 541 516 L 545 516 L 546 515 L 553 516 L 563 523 L 570 531 L 578 544 L 579 549 L 582 554 L 583 561 L 587 573 L 588 585 L 589 586 L 589 599 L 587 601 L 583 601 L 580 599 L 575 598 L 572 601 L 573 605 L 576 608 L 584 613 L 579 618 L 569 618 L 564 616 L 561 619 L 561 624 L 558 625 L 545 618 L 540 613 L 540 609 L 544 604 L 544 600 L 542 598 L 540 598 L 534 602 L 532 602 L 526 605 L 524 607 L 519 608 L 517 610 L 505 614 L 501 614 L 495 616 L 483 616 L 478 614 L 473 614 L 471 616 L 471 618 L 474 622 L 472 624 L 461 618 L 452 611 L 448 610 L 446 612 L 443 612 L 412 586 L 403 577 L 403 575 L 405 573 L 409 572 L 412 569 L 412 565 L 410 563 L 404 563 L 400 565 L 392 566 L 391 567 L 386 567 L 385 568 L 361 568 L 360 567 L 347 566 L 343 564 L 336 563 L 318 555 L 312 553 L 307 553 L 305 557 L 306 560 L 310 564 L 308 567 L 299 570 L 296 570 L 293 568 L 287 569 L 284 572 L 273 578 L 270 578 L 268 576 L 268 573 L 266 572 L 263 575 L 256 579 L 247 589 L 243 586 L 241 586 L 238 592 L 233 597 L 231 598 L 224 597 L 210 610 L 206 611 L 202 615 L 196 618 L 188 629 L 181 636 L 175 639 L 166 640 L 164 638 L 164 636 L 166 633 L 166 625 L 163 619 L 163 617 L 160 614 L 153 602 L 150 599 L 145 589 L 142 587 L 139 583 L 136 582 L 134 579 L 134 577 L 139 571 L 141 566 L 140 560 L 134 555 L 130 555 L 128 554 L 126 548 L 123 543 L 116 541 L 113 544 L 113 549 L 111 550 L 110 549 L 110 544 L 107 542 L 101 542 L 100 540 L 106 535 L 111 533 L 115 533 L 116 532 L 125 533 L 128 534 L 138 541 L 150 553 L 152 554 L 156 554 L 156 550 L 149 542 L 149 539 L 155 533 L 163 522 L 174 511 L 178 509 L 182 505 L 181 502 L 178 502 L 176 500 L 180 495 L 186 493 L 191 493 L 192 492 L 198 492 L 201 491 L 202 489 L 200 486 L 200 484 L 203 481 L 215 481 L 219 476 L 229 476 L 230 475 L 232 476 L 237 476 L 238 475 L 242 475 L 246 472 L 241 466 L 229 466 L 227 464 L 227 460 L 229 455 L 228 452 L 223 457 L 220 456 L 220 451 L 223 442 L 226 437 L 227 431 L 225 430 L 221 433 L 219 433 L 218 432 L 218 429 L 231 406 L 230 404 L 223 405 L 221 403 L 223 399 L 235 384 L 234 381 L 231 381 L 230 382 L 228 380 L 237 366 L 237 360 L 239 355 L 238 345 L 242 337 L 242 328 L 247 313 L 246 312 L 243 312 L 241 314 L 236 325 L 234 327 L 233 332 L 231 334 L 231 337 L 229 340 L 228 345 L 226 347 L 223 347 L 222 346 L 219 346 L 217 344 L 218 341 L 214 338 L 200 336 L 198 334 L 201 330 L 200 327 L 194 326 L 190 324 L 187 324 L 172 318 L 171 315 L 172 314 L 176 314 L 178 312 L 175 308 L 166 305 L 161 302 L 159 302 L 155 299 L 150 297 L 146 293 L 148 291 L 150 292 L 154 292 L 155 291 L 155 288 L 151 284 L 140 277 L 122 259 L 115 249 L 105 230 L 105 228 L 101 219 L 101 216 L 98 213 L 92 210 L 79 199 L 70 190 L 65 183 L 61 175 L 61 171 L 66 165 L 68 164 L 74 165 L 76 160 L 82 164 L 89 164 L 92 161 L 92 155 L 90 151 L 82 143 L 78 141 L 75 141 L 72 144 L 72 150 L 70 151 L 67 145 L 68 138 L 73 134 L 81 135 L 86 138 L 94 147 L 96 146 L 97 143 L 100 145 L 106 146 L 111 142 L 111 137 L 109 131 L 106 126 L 100 120 L 95 119 L 93 121 L 91 127 L 90 128 L 88 127 L 88 122 L 87 121 L 88 116 L 93 111 L 99 111 L 101 112 L 111 121 L 118 137 L 122 135 L 126 139 L 131 141 L 134 141 L 137 137 L 137 127 L 135 121 L 129 114 L 124 114 L 123 115 L 121 114 L 121 111 L 124 108 L 129 107 L 133 109 L 136 112 L 140 119 L 142 125 L 143 133 L 145 135 L 148 133 L 150 129 L 154 125 L 156 124 L 161 124 L 163 125 L 168 131 L 170 137 L 169 152 L 168 153 L 167 161 L 165 165 L 165 169 L 176 181 L 193 204 L 194 204 L 197 200 L 201 203 L 207 215 L 214 225 L 216 226 L 217 225 L 217 219 L 220 217 L 224 221 L 228 229 L 228 231 L 232 237 L 235 234 L 237 234 L 240 237 L 244 245 L 246 247 L 248 247 L 248 243 L 251 242 L 259 252 L 263 261 L 265 263 L 269 263 L 270 262 L 270 254 L 259 237 L 248 228 L 247 223 L 245 221 L 242 225 L 240 225 L 237 222 L 236 219 L 236 203 L 234 202 L 230 205 L 227 202 L 227 196 L 230 187 L 230 183 L 228 182 L 225 185 L 222 182 L 224 175 L 228 169 L 229 164 L 228 163 L 225 163 L 222 165 L 220 163 L 220 161 L 232 147 L 231 137 L 241 116 L 239 113 L 236 113 L 232 111 L 224 103 L 220 94 L 220 83 L 221 82 L 221 79 L 226 70 L 234 62 L 242 58 L 251 57 L 252 56 L 254 57 L 259 57 L 265 60 L 274 70 L 277 70 L 285 64 L 293 60 L 301 58 L 302 55 L 305 52 L 323 52 L 324 51 L 324 48 L 322 45 L 322 42 L 324 40 L 329 41 L 337 45 L 339 47 L 342 47 L 351 39 L 356 38 L 358 40 L 355 46 L 356 49 L 359 48 L 380 48 L 381 49 L 385 49 L 386 50 L 393 51 L 404 55 L 407 46 L 417 37 L 430 32 L 437 32 L 438 33 Z M 459 31 L 447 25 L 444 25 L 443 24 L 437 24 L 436 23 L 425 24 L 424 25 L 418 26 L 407 32 L 397 43 L 392 41 L 382 40 L 381 39 L 367 39 L 365 37 L 364 33 L 361 30 L 358 29 L 350 30 L 346 32 L 341 37 L 339 37 L 333 33 L 323 31 L 316 34 L 314 38 L 314 42 L 312 44 L 305 44 L 299 46 L 295 49 L 284 54 L 279 58 L 277 58 L 272 53 L 269 52 L 267 50 L 261 48 L 257 48 L 256 47 L 243 48 L 237 50 L 226 56 L 216 67 L 213 73 L 211 79 L 211 82 L 210 83 L 210 94 L 211 95 L 211 99 L 213 102 L 213 104 L 218 112 L 229 122 L 222 134 L 221 147 L 214 154 L 211 160 L 211 166 L 217 173 L 214 178 L 214 188 L 219 194 L 218 197 L 218 204 L 214 207 L 211 205 L 205 193 L 199 188 L 195 189 L 190 184 L 188 180 L 176 166 L 176 162 L 178 156 L 178 147 L 179 146 L 179 135 L 175 124 L 168 117 L 163 115 L 156 115 L 150 118 L 148 116 L 143 106 L 135 99 L 129 98 L 128 97 L 122 98 L 118 100 L 112 107 L 109 107 L 107 105 L 100 102 L 92 102 L 89 103 L 81 110 L 79 114 L 79 121 L 76 125 L 70 125 L 66 127 L 60 134 L 58 139 L 58 148 L 61 156 L 55 161 L 52 169 L 52 174 L 53 175 L 53 179 L 55 185 L 61 195 L 76 210 L 82 215 L 86 217 L 92 223 L 96 236 L 100 242 L 104 251 L 117 269 L 136 287 L 135 291 L 138 298 L 147 306 L 158 311 L 161 314 L 161 319 L 165 324 L 172 328 L 184 332 L 186 334 L 187 337 L 191 341 L 203 345 L 205 348 L 210 352 L 214 353 L 219 356 L 221 356 L 226 360 L 225 366 L 219 378 L 219 390 L 216 393 L 212 401 L 212 408 L 215 412 L 215 415 L 212 419 L 208 431 L 210 441 L 212 443 L 212 448 L 211 449 L 211 468 L 207 471 L 204 471 L 192 476 L 189 481 L 189 483 L 187 485 L 183 487 L 177 488 L 172 491 L 166 498 L 166 505 L 156 515 L 142 532 L 138 531 L 134 527 L 127 524 L 110 524 L 101 527 L 98 529 L 91 536 L 87 544 L 91 536 L 97 530 L 104 526 L 110 525 L 111 524 L 127 524 L 133 527 L 138 531 L 143 532 L 157 514 L 166 506 L 166 498 L 171 492 L 175 489 L 188 485 L 190 479 L 196 474 L 205 471 L 208 471 L 211 469 L 212 467 L 211 464 L 211 451 L 212 450 L 212 446 L 213 444 L 209 438 L 209 428 L 210 427 L 210 424 L 216 414 L 212 407 L 212 402 L 216 394 L 220 389 L 219 379 L 221 373 L 225 367 L 227 360 L 225 358 L 209 351 L 203 345 L 193 342 L 187 337 L 185 332 L 175 329 L 167 325 L 162 320 L 161 318 L 161 313 L 153 308 L 151 308 L 145 304 L 137 296 L 136 294 L 136 286 L 122 274 L 105 252 L 101 243 L 99 241 L 95 233 L 92 222 L 88 218 L 78 211 L 58 190 L 53 179 L 52 170 L 55 162 L 61 157 L 61 154 L 58 147 L 58 140 L 61 133 L 70 125 L 78 125 L 79 124 L 79 115 L 81 111 L 86 105 L 93 102 L 100 102 L 111 108 L 114 104 L 120 99 L 123 98 L 132 98 L 136 100 L 142 105 L 149 118 L 152 118 L 154 116 L 157 115 L 162 115 L 169 118 L 174 123 L 178 131 L 178 135 L 179 136 L 178 154 L 177 155 L 177 160 L 175 163 L 175 166 L 186 178 L 191 186 L 194 189 L 200 189 L 205 194 L 212 207 L 217 207 L 219 205 L 218 203 L 219 193 L 214 187 L 214 178 L 216 176 L 217 172 L 212 167 L 211 165 L 211 161 L 213 156 L 222 147 L 222 144 L 221 143 L 222 136 L 225 129 L 229 123 L 229 121 L 226 119 L 215 107 L 211 98 L 210 84 L 211 83 L 211 79 L 213 76 L 214 71 L 216 69 L 217 66 L 227 56 L 241 49 L 244 49 L 245 48 L 259 48 L 271 53 L 277 58 L 280 58 L 285 54 L 296 49 L 300 46 L 303 45 L 313 45 L 314 44 L 314 38 L 315 36 L 320 32 L 329 32 L 332 34 L 336 35 L 338 37 L 342 37 L 347 32 L 356 29 L 360 30 L 364 34 L 367 40 L 378 39 L 379 40 L 384 40 L 385 41 L 390 41 L 391 42 L 398 43 L 408 32 L 419 26 L 426 25 L 427 24 L 441 24 L 453 28 L 462 34 L 468 40 L 474 50 L 476 56 L 476 72 L 472 82 L 463 93 L 478 117 L 480 122 L 480 125 L 486 131 L 487 131 L 492 137 L 492 144 L 488 148 L 488 150 L 491 153 L 495 160 L 495 169 L 494 171 L 490 174 L 490 176 L 493 182 L 492 193 L 491 195 L 485 200 L 484 203 L 484 210 L 482 215 L 476 221 L 473 230 L 467 237 L 462 247 L 459 250 L 457 250 L 456 253 L 461 259 L 463 266 L 474 278 L 476 283 L 476 288 L 483 302 L 483 310 L 481 313 L 481 318 L 483 323 L 483 335 L 484 336 L 484 339 L 499 367 L 499 370 L 500 371 L 500 381 L 503 385 L 508 396 L 508 406 L 507 407 L 507 411 L 510 415 L 510 417 L 512 420 L 513 427 L 514 428 L 514 435 L 515 436 L 515 443 L 516 444 L 516 459 L 514 464 L 508 472 L 507 480 L 503 491 L 503 498 L 512 509 L 517 513 L 521 513 L 531 508 L 537 506 L 541 506 L 542 505 L 551 505 L 552 506 L 555 506 L 561 508 L 567 512 L 577 522 L 587 538 L 592 553 L 594 556 L 598 570 L 596 564 L 596 561 L 594 558 L 591 547 L 584 532 L 579 524 L 569 513 L 559 507 L 553 506 L 552 505 L 540 505 L 539 506 L 535 506 L 532 508 L 525 510 L 521 513 L 518 513 L 511 507 L 503 497 L 503 493 L 507 481 L 507 476 L 508 473 L 515 463 L 516 456 L 517 455 L 517 452 L 516 451 L 516 439 L 515 438 L 514 427 L 513 426 L 513 423 L 510 414 L 507 410 L 508 407 L 508 395 L 504 386 L 500 380 L 500 370 L 497 364 L 497 362 L 495 360 L 490 349 L 488 347 L 484 337 L 483 322 L 481 316 L 481 314 L 483 311 L 483 302 L 481 296 L 476 287 L 476 282 L 472 275 L 465 268 L 462 263 L 461 258 L 457 254 L 457 252 L 462 248 L 466 239 L 474 229 L 476 222 L 483 214 L 484 207 L 485 206 L 485 201 L 491 195 L 493 190 L 493 181 L 491 175 L 495 170 L 496 164 L 495 163 L 494 157 L 489 150 L 489 148 L 491 146 L 493 141 L 492 137 L 490 133 L 481 126 L 480 124 L 480 120 L 478 116 L 474 111 L 471 104 L 464 94 L 464 92 L 469 87 L 474 79 L 476 73 L 476 70 L 477 69 L 477 61 L 476 60 L 476 55 L 472 45 L 467 38 Z" fill="#B1B1B1" fill-rule="evenodd"/><path d="M 136 558 L 133 558 L 131 560 L 131 562 L 130 563 L 130 569 L 131 571 L 134 573 L 136 572 L 139 568 L 139 562 Z M 118 543 L 116 545 L 115 549 L 114 550 L 114 556 L 116 559 L 120 560 L 123 558 L 125 554 L 125 550 L 124 549 L 123 545 L 120 543 Z M 105 543 L 101 544 L 98 550 L 98 555 L 101 559 L 106 559 L 107 558 L 108 548 L 107 547 L 107 545 Z M 264 154 L 264 157 L 263 158 L 263 171 L 266 177 L 270 181 L 279 186 L 281 186 L 284 189 L 284 193 L 285 194 L 286 200 L 292 212 L 294 214 L 298 221 L 302 225 L 302 226 L 312 236 L 318 239 L 319 238 L 319 237 L 310 226 L 309 220 L 310 219 L 310 216 L 312 212 L 321 203 L 327 200 L 329 198 L 336 196 L 337 195 L 348 195 L 349 196 L 353 197 L 359 202 L 361 206 L 361 211 L 359 215 L 359 218 L 353 230 L 354 231 L 357 228 L 362 218 L 362 216 L 364 212 L 364 209 L 365 208 L 365 205 L 366 204 L 366 200 L 367 199 L 367 192 L 368 191 L 368 177 L 367 176 L 367 168 L 366 167 L 365 163 L 363 161 L 361 161 L 358 166 L 349 174 L 343 177 L 341 177 L 334 180 L 324 181 L 323 180 L 316 180 L 315 179 L 310 179 L 309 178 L 298 176 L 288 182 L 279 182 L 277 181 L 269 173 L 267 169 L 267 158 L 268 157 L 268 153 L 266 152 Z M 274 145 L 274 152 L 276 156 L 283 163 L 289 166 L 302 166 L 303 165 L 305 165 L 314 160 L 320 154 L 322 150 L 322 145 L 320 142 L 313 138 L 311 138 L 307 136 L 292 136 L 291 137 L 287 137 L 286 138 L 281 139 Z M 282 115 L 278 115 L 275 118 L 272 124 L 272 134 L 275 137 L 279 136 L 284 131 L 284 129 L 285 128 L 285 119 Z M 361 109 L 358 112 L 356 116 L 356 128 L 359 133 L 361 134 L 367 134 L 371 129 L 371 126 L 372 125 L 372 119 L 369 112 L 366 109 Z M 290 77 L 289 76 L 285 76 L 281 78 L 275 84 L 274 88 L 276 89 L 282 84 L 289 81 L 290 80 Z M 361 68 L 361 70 L 363 72 L 368 73 L 377 78 L 379 78 L 380 77 L 380 74 L 379 72 L 377 70 L 371 67 L 369 67 L 368 66 L 364 66 Z M 453 29 L 451 29 L 448 27 L 442 26 L 441 25 L 427 25 L 426 26 L 422 26 L 408 33 L 398 44 L 395 44 L 394 43 L 391 43 L 390 42 L 385 42 L 384 41 L 379 41 L 378 40 L 371 40 L 370 41 L 367 41 L 365 39 L 363 34 L 360 31 L 358 31 L 357 30 L 355 31 L 351 31 L 347 33 L 342 38 L 338 38 L 336 36 L 332 35 L 329 33 L 320 33 L 316 36 L 315 38 L 315 44 L 313 46 L 303 46 L 302 47 L 300 47 L 296 50 L 285 55 L 280 59 L 277 59 L 271 54 L 263 50 L 260 50 L 259 49 L 245 49 L 244 50 L 238 51 L 227 57 L 218 66 L 217 69 L 215 71 L 214 76 L 212 79 L 212 83 L 211 84 L 211 93 L 212 94 L 212 98 L 216 107 L 218 109 L 218 110 L 230 121 L 230 123 L 228 127 L 226 129 L 223 136 L 223 139 L 222 140 L 223 147 L 214 156 L 213 160 L 212 161 L 212 165 L 213 167 L 218 172 L 218 174 L 215 178 L 215 187 L 220 193 L 220 197 L 219 198 L 219 203 L 220 205 L 217 208 L 212 208 L 210 206 L 204 194 L 200 190 L 194 190 L 190 186 L 185 178 L 174 166 L 174 163 L 176 160 L 176 155 L 177 154 L 178 136 L 177 135 L 177 131 L 173 123 L 169 119 L 162 116 L 157 116 L 156 117 L 154 117 L 152 119 L 149 119 L 147 117 L 141 105 L 136 101 L 132 99 L 123 99 L 122 100 L 120 100 L 118 102 L 117 102 L 111 109 L 110 109 L 105 105 L 101 104 L 100 103 L 93 103 L 86 106 L 84 108 L 80 115 L 80 124 L 78 126 L 70 126 L 62 133 L 60 137 L 60 139 L 59 140 L 59 147 L 62 154 L 62 157 L 56 162 L 54 166 L 53 174 L 54 175 L 54 179 L 55 180 L 55 182 L 59 190 L 62 193 L 62 194 L 78 210 L 79 210 L 83 214 L 88 217 L 93 222 L 96 233 L 100 241 L 102 243 L 106 252 L 116 265 L 116 266 L 123 273 L 123 274 L 137 286 L 137 294 L 138 296 L 145 303 L 146 303 L 151 307 L 153 307 L 160 311 L 162 313 L 162 318 L 163 320 L 167 324 L 175 328 L 177 328 L 178 329 L 185 331 L 187 333 L 187 335 L 190 339 L 191 339 L 193 341 L 195 341 L 196 342 L 203 344 L 209 350 L 225 357 L 228 360 L 226 367 L 223 371 L 221 378 L 220 379 L 220 385 L 221 386 L 221 389 L 217 394 L 213 402 L 213 407 L 216 411 L 217 414 L 214 418 L 211 424 L 211 427 L 210 428 L 210 438 L 214 444 L 213 446 L 213 450 L 212 451 L 212 464 L 213 465 L 212 469 L 208 472 L 205 472 L 204 473 L 196 475 L 191 479 L 190 481 L 190 484 L 188 486 L 184 487 L 183 488 L 180 488 L 177 490 L 175 490 L 172 493 L 171 493 L 167 498 L 167 506 L 158 514 L 158 515 L 148 526 L 148 527 L 143 533 L 140 533 L 133 528 L 127 525 L 111 525 L 110 526 L 104 527 L 97 531 L 92 536 L 87 545 L 87 548 L 86 549 L 86 567 L 87 568 L 87 571 L 88 572 L 90 580 L 93 586 L 95 588 L 97 593 L 99 595 L 100 598 L 103 601 L 104 604 L 112 613 L 112 614 L 129 631 L 130 631 L 138 638 L 141 639 L 148 644 L 150 644 L 153 646 L 155 646 L 159 648 L 164 648 L 165 649 L 176 648 L 177 647 L 185 645 L 189 643 L 203 628 L 204 628 L 206 626 L 209 626 L 210 625 L 214 624 L 223 614 L 227 613 L 231 610 L 234 609 L 241 601 L 245 601 L 246 600 L 250 600 L 251 599 L 253 599 L 256 596 L 257 593 L 262 588 L 270 588 L 271 587 L 274 587 L 290 579 L 301 579 L 302 578 L 306 578 L 312 575 L 317 574 L 319 572 L 321 572 L 325 569 L 328 569 L 337 573 L 340 573 L 341 574 L 344 574 L 345 575 L 350 575 L 351 576 L 356 576 L 357 577 L 370 577 L 371 578 L 391 577 L 397 583 L 397 584 L 402 590 L 403 590 L 412 599 L 413 599 L 426 610 L 427 610 L 435 616 L 445 621 L 456 624 L 459 626 L 461 626 L 469 630 L 478 630 L 485 625 L 490 625 L 491 624 L 496 624 L 497 623 L 501 623 L 502 622 L 505 622 L 506 621 L 510 621 L 513 619 L 516 619 L 523 615 L 528 614 L 534 620 L 535 620 L 539 624 L 540 624 L 543 627 L 546 628 L 548 630 L 550 630 L 556 633 L 560 633 L 561 634 L 568 634 L 569 633 L 572 633 L 577 630 L 579 630 L 586 626 L 594 618 L 598 611 L 599 603 L 600 602 L 600 582 L 599 581 L 598 571 L 596 568 L 596 565 L 595 564 L 593 556 L 591 553 L 589 545 L 587 542 L 587 540 L 576 522 L 567 513 L 566 513 L 561 509 L 559 509 L 555 507 L 552 507 L 551 506 L 542 506 L 541 507 L 537 507 L 536 508 L 531 509 L 528 511 L 526 511 L 521 514 L 517 514 L 511 509 L 511 508 L 503 500 L 502 498 L 502 491 L 503 490 L 504 484 L 506 480 L 506 475 L 507 474 L 507 472 L 513 464 L 514 460 L 515 459 L 515 444 L 514 443 L 513 428 L 512 427 L 512 424 L 511 423 L 511 420 L 509 417 L 509 415 L 506 411 L 506 407 L 507 406 L 507 396 L 502 385 L 499 381 L 499 371 L 498 370 L 498 367 L 492 355 L 490 353 L 487 346 L 485 344 L 485 342 L 483 339 L 483 336 L 482 335 L 482 323 L 481 322 L 481 319 L 480 318 L 480 313 L 482 310 L 482 302 L 481 301 L 481 299 L 475 288 L 475 283 L 474 282 L 473 278 L 462 266 L 460 259 L 455 253 L 455 251 L 457 249 L 459 249 L 461 247 L 466 237 L 472 230 L 473 226 L 475 223 L 475 221 L 481 215 L 482 213 L 484 200 L 487 197 L 488 197 L 491 193 L 491 190 L 492 189 L 492 182 L 489 176 L 489 174 L 491 172 L 492 172 L 494 169 L 494 160 L 490 153 L 487 150 L 487 148 L 491 144 L 491 137 L 490 135 L 479 125 L 479 122 L 478 121 L 477 117 L 475 115 L 470 105 L 468 103 L 467 100 L 462 93 L 462 92 L 469 85 L 473 78 L 473 76 L 475 72 L 475 56 L 474 55 L 473 50 L 467 40 L 462 35 L 461 35 L 458 32 L 455 31 Z M 446 33 L 453 37 L 462 46 L 467 56 L 468 67 L 467 68 L 467 72 L 465 75 L 465 77 L 463 79 L 463 80 L 454 89 L 452 90 L 452 91 L 461 104 L 461 106 L 463 110 L 465 112 L 466 115 L 472 122 L 469 127 L 471 129 L 474 130 L 477 133 L 478 133 L 483 138 L 483 141 L 481 143 L 474 143 L 473 145 L 484 157 L 487 163 L 487 166 L 485 168 L 482 168 L 479 166 L 477 167 L 484 182 L 484 190 L 483 191 L 480 191 L 477 188 L 476 189 L 476 193 L 477 194 L 477 205 L 476 206 L 476 208 L 473 211 L 471 209 L 469 209 L 468 217 L 467 218 L 466 223 L 462 231 L 459 234 L 459 235 L 451 243 L 447 245 L 441 250 L 435 253 L 437 255 L 444 256 L 445 257 L 447 257 L 449 259 L 446 262 L 444 262 L 444 263 L 446 265 L 456 270 L 461 275 L 459 277 L 457 277 L 457 279 L 465 288 L 465 289 L 471 297 L 471 299 L 472 300 L 472 302 L 471 303 L 469 303 L 466 300 L 462 298 L 461 299 L 465 307 L 467 309 L 467 311 L 469 314 L 469 316 L 471 320 L 471 324 L 472 325 L 472 331 L 473 332 L 473 340 L 469 343 L 469 347 L 470 348 L 470 352 L 471 353 L 471 360 L 470 361 L 470 365 L 469 366 L 468 371 L 465 376 L 465 378 L 462 383 L 461 387 L 459 389 L 459 390 L 453 395 L 451 393 L 451 378 L 450 378 L 449 381 L 443 389 L 442 392 L 433 401 L 425 406 L 418 406 L 416 404 L 416 403 L 424 395 L 423 394 L 420 396 L 416 396 L 407 401 L 405 401 L 393 407 L 389 407 L 387 405 L 388 404 L 388 401 L 387 401 L 372 410 L 370 410 L 369 411 L 365 411 L 363 409 L 363 405 L 364 404 L 364 399 L 365 397 L 362 397 L 358 400 L 353 402 L 341 412 L 337 413 L 336 414 L 334 414 L 332 412 L 332 405 L 331 404 L 329 404 L 328 405 L 326 405 L 325 406 L 323 406 L 316 409 L 312 409 L 311 410 L 305 410 L 304 411 L 295 411 L 294 410 L 287 410 L 286 409 L 282 409 L 281 408 L 276 407 L 270 402 L 270 399 L 274 391 L 278 387 L 278 383 L 271 384 L 266 387 L 262 387 L 258 383 L 256 379 L 256 376 L 257 374 L 261 370 L 265 368 L 269 364 L 269 362 L 263 362 L 262 361 L 260 361 L 257 358 L 257 354 L 263 347 L 270 344 L 275 344 L 276 343 L 279 343 L 283 340 L 282 338 L 277 337 L 275 335 L 275 331 L 280 326 L 284 325 L 285 324 L 300 324 L 301 325 L 305 325 L 306 326 L 313 326 L 320 323 L 323 323 L 324 322 L 329 322 L 330 321 L 340 321 L 341 320 L 343 321 L 345 321 L 346 320 L 383 320 L 384 319 L 390 319 L 391 318 L 394 318 L 394 316 L 390 314 L 384 314 L 381 311 L 382 310 L 382 306 L 381 305 L 377 306 L 372 312 L 328 312 L 327 313 L 319 314 L 310 318 L 305 318 L 304 317 L 300 317 L 299 316 L 285 316 L 284 317 L 280 317 L 274 320 L 268 326 L 265 334 L 258 341 L 256 342 L 250 352 L 250 359 L 251 360 L 250 384 L 253 391 L 258 397 L 258 398 L 262 402 L 263 406 L 265 408 L 265 409 L 269 413 L 276 417 L 278 417 L 279 418 L 281 418 L 284 420 L 287 420 L 288 421 L 302 421 L 303 420 L 310 420 L 311 419 L 315 419 L 316 418 L 323 418 L 324 419 L 328 419 L 334 422 L 344 422 L 345 421 L 348 421 L 349 420 L 373 420 L 374 419 L 380 419 L 381 418 L 385 418 L 386 417 L 397 417 L 398 416 L 406 416 L 407 415 L 419 415 L 420 416 L 427 416 L 438 411 L 440 409 L 444 409 L 447 411 L 452 411 L 457 408 L 463 402 L 463 401 L 467 397 L 476 379 L 476 377 L 478 374 L 478 369 L 479 368 L 479 365 L 480 364 L 480 362 L 482 360 L 485 363 L 486 366 L 489 370 L 486 373 L 485 373 L 484 375 L 495 388 L 495 389 L 499 394 L 499 396 L 500 397 L 500 398 L 498 400 L 492 399 L 492 401 L 495 405 L 496 408 L 499 411 L 506 425 L 506 429 L 504 431 L 503 430 L 501 431 L 502 437 L 503 438 L 503 441 L 504 442 L 505 451 L 506 452 L 506 458 L 503 461 L 499 461 L 499 474 L 498 475 L 498 479 L 496 483 L 496 486 L 494 489 L 492 496 L 488 504 L 481 514 L 480 518 L 482 521 L 485 521 L 491 515 L 494 509 L 497 506 L 498 506 L 500 508 L 505 518 L 505 520 L 507 522 L 509 522 L 512 524 L 511 526 L 511 528 L 512 529 L 524 530 L 528 527 L 531 521 L 534 518 L 538 517 L 540 515 L 542 515 L 543 514 L 550 514 L 551 515 L 554 515 L 559 518 L 570 529 L 570 530 L 576 537 L 580 545 L 581 550 L 584 556 L 584 559 L 586 563 L 586 566 L 587 567 L 587 570 L 588 571 L 588 574 L 589 575 L 589 579 L 590 580 L 590 587 L 591 588 L 591 599 L 587 603 L 585 602 L 581 602 L 580 601 L 576 600 L 575 601 L 575 604 L 580 608 L 584 609 L 587 612 L 587 613 L 581 619 L 579 619 L 578 620 L 569 620 L 568 619 L 565 619 L 564 621 L 566 623 L 567 627 L 566 628 L 561 628 L 547 621 L 538 613 L 538 608 L 541 604 L 541 602 L 540 601 L 538 601 L 523 609 L 521 609 L 518 611 L 516 611 L 510 614 L 504 615 L 503 616 L 499 616 L 498 617 L 481 617 L 480 616 L 475 616 L 474 617 L 475 623 L 473 625 L 470 625 L 450 612 L 448 612 L 446 614 L 443 614 L 431 603 L 430 603 L 421 595 L 420 595 L 411 586 L 410 586 L 400 576 L 400 575 L 403 572 L 405 572 L 410 569 L 410 566 L 409 565 L 403 565 L 402 566 L 399 566 L 398 567 L 395 567 L 394 568 L 383 569 L 382 570 L 365 570 L 364 569 L 350 568 L 349 567 L 341 566 L 337 564 L 331 563 L 321 558 L 319 558 L 312 555 L 308 555 L 307 556 L 307 558 L 308 560 L 314 565 L 313 567 L 309 569 L 304 570 L 303 571 L 300 571 L 299 572 L 289 571 L 283 574 L 281 576 L 272 580 L 270 580 L 267 577 L 267 576 L 265 576 L 262 579 L 258 580 L 247 592 L 245 592 L 243 590 L 241 590 L 234 599 L 231 600 L 229 602 L 224 601 L 219 604 L 216 607 L 213 612 L 207 618 L 204 618 L 203 617 L 199 618 L 193 624 L 191 628 L 181 638 L 177 639 L 174 641 L 165 642 L 161 639 L 164 633 L 164 625 L 163 624 L 163 622 L 146 596 L 140 590 L 140 589 L 138 588 L 128 578 L 127 578 L 123 574 L 118 571 L 116 571 L 112 569 L 109 569 L 105 571 L 101 575 L 99 575 L 97 573 L 95 569 L 95 566 L 94 565 L 94 549 L 97 542 L 105 534 L 109 533 L 110 532 L 114 532 L 115 531 L 122 531 L 123 532 L 126 532 L 132 535 L 136 539 L 141 542 L 151 552 L 154 553 L 155 551 L 152 546 L 148 542 L 148 539 L 156 530 L 159 525 L 165 519 L 165 518 L 172 511 L 176 509 L 180 505 L 179 503 L 177 503 L 175 501 L 175 498 L 178 495 L 182 493 L 185 493 L 186 492 L 197 491 L 200 489 L 198 487 L 198 484 L 202 480 L 214 480 L 218 475 L 224 475 L 225 474 L 241 474 L 244 472 L 244 471 L 239 467 L 237 468 L 228 468 L 225 465 L 225 458 L 224 458 L 222 460 L 221 460 L 219 458 L 219 450 L 226 433 L 224 432 L 221 435 L 218 435 L 216 433 L 216 431 L 217 430 L 217 427 L 218 425 L 220 423 L 222 418 L 225 415 L 229 408 L 229 406 L 228 405 L 227 406 L 222 407 L 220 405 L 220 402 L 223 397 L 233 385 L 232 383 L 229 383 L 227 381 L 227 379 L 229 375 L 232 372 L 235 367 L 235 360 L 237 357 L 237 345 L 241 337 L 241 332 L 240 330 L 241 329 L 243 321 L 246 315 L 244 314 L 240 318 L 240 320 L 238 323 L 237 328 L 232 337 L 232 339 L 230 343 L 230 347 L 228 349 L 225 349 L 224 348 L 216 346 L 214 344 L 215 340 L 213 339 L 207 339 L 206 338 L 202 338 L 201 337 L 197 336 L 195 334 L 195 333 L 199 330 L 198 328 L 192 327 L 191 326 L 177 322 L 171 319 L 168 316 L 168 315 L 170 313 L 173 313 L 175 311 L 173 309 L 169 307 L 164 306 L 149 298 L 144 293 L 144 292 L 146 290 L 151 290 L 152 288 L 149 285 L 148 285 L 145 282 L 144 282 L 141 279 L 136 276 L 134 274 L 134 273 L 128 268 L 128 267 L 117 255 L 104 231 L 104 229 L 102 226 L 102 224 L 101 223 L 99 216 L 97 214 L 91 211 L 79 200 L 78 200 L 69 191 L 69 190 L 64 184 L 60 176 L 60 170 L 65 164 L 67 163 L 73 163 L 74 162 L 68 152 L 68 150 L 66 146 L 66 140 L 71 134 L 73 133 L 80 133 L 84 135 L 93 143 L 94 143 L 88 132 L 87 126 L 86 125 L 86 119 L 87 118 L 87 116 L 88 114 L 93 110 L 100 110 L 105 113 L 113 122 L 116 128 L 116 130 L 118 133 L 119 132 L 119 127 L 118 126 L 119 113 L 121 109 L 125 106 L 130 106 L 132 107 L 138 113 L 142 121 L 142 123 L 143 124 L 143 128 L 144 129 L 144 132 L 145 133 L 146 133 L 155 123 L 162 123 L 169 130 L 169 132 L 171 135 L 171 147 L 170 148 L 170 155 L 169 156 L 169 159 L 166 166 L 166 168 L 168 170 L 168 171 L 181 185 L 183 189 L 193 202 L 194 202 L 197 198 L 198 198 L 202 202 L 209 216 L 215 223 L 216 223 L 216 218 L 219 215 L 220 215 L 225 220 L 231 234 L 232 234 L 234 232 L 237 232 L 243 239 L 246 245 L 247 244 L 247 241 L 249 239 L 250 239 L 259 249 L 262 255 L 263 259 L 265 261 L 268 261 L 269 260 L 269 255 L 258 238 L 254 234 L 251 233 L 247 229 L 245 225 L 243 227 L 241 227 L 237 224 L 235 220 L 235 217 L 234 216 L 234 206 L 233 205 L 232 206 L 229 206 L 226 203 L 226 195 L 227 194 L 227 191 L 228 190 L 228 187 L 229 186 L 228 185 L 226 186 L 223 186 L 221 184 L 221 180 L 222 179 L 223 174 L 225 172 L 227 168 L 227 164 L 223 166 L 220 166 L 218 164 L 218 162 L 220 158 L 230 148 L 231 146 L 231 144 L 230 143 L 230 137 L 233 131 L 233 129 L 236 123 L 238 121 L 238 119 L 239 118 L 239 116 L 237 114 L 235 114 L 231 112 L 224 105 L 219 95 L 219 90 L 218 88 L 219 87 L 219 82 L 220 81 L 220 78 L 226 68 L 235 60 L 239 58 L 244 57 L 245 56 L 248 56 L 249 55 L 256 55 L 257 56 L 260 56 L 266 59 L 273 66 L 274 68 L 277 68 L 284 63 L 292 59 L 299 57 L 300 56 L 300 54 L 304 51 L 322 51 L 323 49 L 320 44 L 320 41 L 322 39 L 328 39 L 333 42 L 335 42 L 337 44 L 341 46 L 350 38 L 357 36 L 359 38 L 359 41 L 357 45 L 358 47 L 362 47 L 363 46 L 375 46 L 376 47 L 387 48 L 388 49 L 395 50 L 401 53 L 403 53 L 404 52 L 404 49 L 407 44 L 413 38 L 422 33 L 424 33 L 428 31 L 439 31 L 440 32 Z" fill="#010101" fill-rule="evenodd"/></svg>