<svg xmlns="http://www.w3.org/2000/svg" viewBox="0 0 653 704" shape-rendering="geometricPrecision"><title>intro frame 048</title><path d="M 343 542 L 342 541 L 333 545 L 329 549 L 329 551 L 332 549 L 336 548 L 342 544 Z M 437 518 L 436 518 L 435 520 L 435 525 L 437 524 Z M 366 514 L 364 515 L 355 529 L 354 536 L 357 538 L 359 538 L 366 531 L 368 526 L 370 524 L 371 517 Z M 404 519 L 400 517 L 392 516 L 388 510 L 385 509 L 381 514 L 381 521 L 382 523 L 381 524 L 380 535 L 378 537 L 378 539 L 375 542 L 373 540 L 368 540 L 364 542 L 359 541 L 356 545 L 355 551 L 361 550 L 369 546 L 371 547 L 374 546 L 376 548 L 375 555 L 379 553 L 380 547 L 386 540 L 386 538 L 391 532 L 394 532 L 396 530 L 396 529 L 404 521 Z M 247 507 L 223 507 L 222 508 L 219 508 L 215 510 L 213 512 L 213 514 L 210 517 L 206 517 L 205 518 L 201 518 L 199 519 L 199 521 L 200 521 L 202 524 L 196 529 L 191 530 L 185 534 L 187 540 L 183 545 L 182 548 L 179 551 L 178 554 L 176 556 L 176 558 L 165 573 L 163 578 L 163 581 L 168 585 L 173 591 L 173 596 L 171 598 L 167 598 L 151 588 L 149 588 L 143 585 L 138 584 L 135 585 L 133 587 L 138 595 L 144 598 L 149 598 L 154 602 L 154 607 L 153 608 L 152 617 L 165 625 L 193 650 L 199 645 L 202 641 L 205 634 L 215 624 L 215 622 L 226 605 L 231 601 L 243 599 L 251 592 L 252 590 L 252 580 L 256 575 L 262 574 L 263 573 L 276 573 L 282 570 L 281 567 L 273 563 L 271 561 L 271 559 L 273 557 L 278 557 L 279 556 L 294 556 L 296 554 L 294 548 L 290 544 L 281 538 L 268 526 L 263 523 L 258 517 Z M 412 499 L 409 500 L 409 505 L 408 506 L 410 514 L 413 518 L 413 532 L 411 535 L 409 542 L 414 537 L 418 523 L 419 522 L 421 522 L 423 524 L 425 523 L 425 516 L 418 508 L 417 504 L 415 501 Z M 422 494 L 420 497 L 420 499 L 425 503 L 427 501 L 426 496 Z M 368 506 L 372 506 L 375 503 L 378 502 L 389 503 L 392 501 L 394 501 L 397 497 L 396 496 L 385 496 L 379 491 L 371 490 L 371 492 L 369 494 Z M 449 225 L 448 228 L 455 234 L 456 233 L 456 229 L 454 228 L 453 225 Z M 467 205 L 466 206 L 466 211 L 468 214 L 469 211 L 467 208 Z M 63 157 L 64 157 L 65 154 L 68 151 L 74 153 L 76 153 L 76 152 L 74 150 L 66 150 L 63 152 Z M 119 121 L 120 123 L 127 127 L 127 125 L 124 122 Z M 438 44 L 425 43 L 412 48 L 404 56 L 402 61 L 402 64 L 400 66 L 385 61 L 381 61 L 375 59 L 358 59 L 357 60 L 351 61 L 349 59 L 349 55 L 351 50 L 349 49 L 338 59 L 335 59 L 333 57 L 331 57 L 323 52 L 320 52 L 319 54 L 321 57 L 321 61 L 319 63 L 305 63 L 304 64 L 300 64 L 299 67 L 296 70 L 288 72 L 282 75 L 273 82 L 269 82 L 267 80 L 266 77 L 261 72 L 256 69 L 253 69 L 252 68 L 243 68 L 242 69 L 239 69 L 233 71 L 223 79 L 217 91 L 217 104 L 220 111 L 226 117 L 232 121 L 235 121 L 238 124 L 237 129 L 235 131 L 234 135 L 228 147 L 229 158 L 220 167 L 218 171 L 224 170 L 227 173 L 227 176 L 224 180 L 221 187 L 221 190 L 226 190 L 228 192 L 226 198 L 226 201 L 224 205 L 224 211 L 225 212 L 228 210 L 231 210 L 233 212 L 233 229 L 235 232 L 237 232 L 239 229 L 241 229 L 243 231 L 245 237 L 249 240 L 261 253 L 266 254 L 279 262 L 286 270 L 286 273 L 284 275 L 282 275 L 270 268 L 267 268 L 267 271 L 263 275 L 259 275 L 254 269 L 254 267 L 250 260 L 246 256 L 245 256 L 244 260 L 241 261 L 237 257 L 234 250 L 231 246 L 229 247 L 229 249 L 227 251 L 225 251 L 222 247 L 221 242 L 219 239 L 219 236 L 215 231 L 213 232 L 213 238 L 211 240 L 208 239 L 201 230 L 194 216 L 191 215 L 191 216 L 188 218 L 184 215 L 175 202 L 170 197 L 166 191 L 157 182 L 157 175 L 160 168 L 160 161 L 161 160 L 161 146 L 158 141 L 154 138 L 151 138 L 151 139 L 152 139 L 159 147 L 158 160 L 156 164 L 150 170 L 145 170 L 139 164 L 138 161 L 138 155 L 140 152 L 140 149 L 138 149 L 134 143 L 133 143 L 133 150 L 132 152 L 128 155 L 123 155 L 118 153 L 116 151 L 112 152 L 108 148 L 107 143 L 103 135 L 96 128 L 92 125 L 87 125 L 83 129 L 83 132 L 88 128 L 96 131 L 102 138 L 107 150 L 107 153 L 105 157 L 99 161 L 92 159 L 88 162 L 84 158 L 80 156 L 88 166 L 88 169 L 89 170 L 88 174 L 82 180 L 75 179 L 71 177 L 69 180 L 76 183 L 82 189 L 83 192 L 88 180 L 95 170 L 104 162 L 112 159 L 123 159 L 132 163 L 141 173 L 144 180 L 144 187 L 140 195 L 128 205 L 111 214 L 103 215 L 102 216 L 98 216 L 95 214 L 93 214 L 90 212 L 83 203 L 83 198 L 78 202 L 72 202 L 70 200 L 67 199 L 60 191 L 60 185 L 64 180 L 61 179 L 59 180 L 57 183 L 57 188 L 62 198 L 72 208 L 94 225 L 100 237 L 102 238 L 103 241 L 110 248 L 117 257 L 135 275 L 159 293 L 161 293 L 163 295 L 165 295 L 167 297 L 169 297 L 172 299 L 187 303 L 189 305 L 189 307 L 186 310 L 183 311 L 184 314 L 197 313 L 204 319 L 207 320 L 219 320 L 223 323 L 222 325 L 213 331 L 214 333 L 227 334 L 234 322 L 234 318 L 238 312 L 239 309 L 239 303 L 242 298 L 246 294 L 251 294 L 253 296 L 253 298 L 243 307 L 243 308 L 247 311 L 247 314 L 240 320 L 242 323 L 242 329 L 238 336 L 238 339 L 237 340 L 238 346 L 233 357 L 233 359 L 235 360 L 241 354 L 243 353 L 248 353 L 249 354 L 249 358 L 244 369 L 230 382 L 224 391 L 225 392 L 229 391 L 231 393 L 231 396 L 219 412 L 219 413 L 225 412 L 227 414 L 227 418 L 224 425 L 221 428 L 216 438 L 216 440 L 218 440 L 220 438 L 222 438 L 224 440 L 224 444 L 221 450 L 217 465 L 219 465 L 224 460 L 226 460 L 228 462 L 225 477 L 226 478 L 227 489 L 229 491 L 231 491 L 234 493 L 239 493 L 243 495 L 254 505 L 256 505 L 258 507 L 261 508 L 262 510 L 269 515 L 272 514 L 271 494 L 275 488 L 278 491 L 277 494 L 277 502 L 276 503 L 277 514 L 280 520 L 285 526 L 287 531 L 289 532 L 291 530 L 291 528 L 293 525 L 296 524 L 297 525 L 297 530 L 295 533 L 295 536 L 302 541 L 305 541 L 308 543 L 317 546 L 322 546 L 325 544 L 326 542 L 332 540 L 338 534 L 344 530 L 350 524 L 352 519 L 355 515 L 361 510 L 365 503 L 362 499 L 362 496 L 360 493 L 353 501 L 351 502 L 348 502 L 347 501 L 348 493 L 354 484 L 354 482 L 352 481 L 346 480 L 345 481 L 342 481 L 340 483 L 338 483 L 335 485 L 331 485 L 330 486 L 327 485 L 325 477 L 326 474 L 333 468 L 332 465 L 330 465 L 326 469 L 324 475 L 321 478 L 318 478 L 316 476 L 316 474 L 320 466 L 326 459 L 326 454 L 313 441 L 312 437 L 307 435 L 298 435 L 296 433 L 288 431 L 286 429 L 284 429 L 277 425 L 271 419 L 268 414 L 259 404 L 255 392 L 255 365 L 260 355 L 270 346 L 270 341 L 271 339 L 276 334 L 284 329 L 293 326 L 314 327 L 329 322 L 331 320 L 335 320 L 340 318 L 348 318 L 349 317 L 355 317 L 356 318 L 372 318 L 377 314 L 385 315 L 389 321 L 396 322 L 402 327 L 402 329 L 398 332 L 340 334 L 339 335 L 330 336 L 327 338 L 321 339 L 320 340 L 295 340 L 290 342 L 287 346 L 294 351 L 294 354 L 290 358 L 279 360 L 273 365 L 274 370 L 275 371 L 281 371 L 285 374 L 285 377 L 282 380 L 275 384 L 270 389 L 270 394 L 273 396 L 281 395 L 284 393 L 289 393 L 293 396 L 293 399 L 287 406 L 287 409 L 290 412 L 293 412 L 297 414 L 316 414 L 317 415 L 320 415 L 321 414 L 331 414 L 333 412 L 338 412 L 342 409 L 345 409 L 346 410 L 350 410 L 351 409 L 362 409 L 376 402 L 380 404 L 379 411 L 382 411 L 385 410 L 388 407 L 393 407 L 397 404 L 399 404 L 402 401 L 405 401 L 414 398 L 419 399 L 427 396 L 428 394 L 432 393 L 436 390 L 440 390 L 443 393 L 445 391 L 447 391 L 449 389 L 450 385 L 455 375 L 458 373 L 460 376 L 462 377 L 465 373 L 465 371 L 469 367 L 470 368 L 472 365 L 472 359 L 471 358 L 472 355 L 469 346 L 469 343 L 471 341 L 472 342 L 473 341 L 472 339 L 472 334 L 469 328 L 469 326 L 467 324 L 462 314 L 454 305 L 454 303 L 456 301 L 459 301 L 464 304 L 464 303 L 459 296 L 449 287 L 448 284 L 450 281 L 443 276 L 439 275 L 434 271 L 435 269 L 434 268 L 426 268 L 425 269 L 416 269 L 413 268 L 406 273 L 403 271 L 404 261 L 409 254 L 410 254 L 413 258 L 416 255 L 417 250 L 419 248 L 421 248 L 424 250 L 427 247 L 427 240 L 429 238 L 433 241 L 434 243 L 433 244 L 433 247 L 435 248 L 444 237 L 446 231 L 443 228 L 441 222 L 439 221 L 435 216 L 437 214 L 440 214 L 446 217 L 447 214 L 444 208 L 446 205 L 450 205 L 452 208 L 454 209 L 454 202 L 450 196 L 452 194 L 454 195 L 455 193 L 454 190 L 448 182 L 450 180 L 452 180 L 456 183 L 463 182 L 468 188 L 466 190 L 468 194 L 470 192 L 474 194 L 477 193 L 475 190 L 473 183 L 470 180 L 469 174 L 472 171 L 475 171 L 476 172 L 478 172 L 478 171 L 472 162 L 469 160 L 464 154 L 464 152 L 467 149 L 473 149 L 474 148 L 469 143 L 467 143 L 460 137 L 460 133 L 462 130 L 457 123 L 457 121 L 450 108 L 442 100 L 445 96 L 452 92 L 457 86 L 460 80 L 460 75 L 461 74 L 460 71 L 460 65 L 457 59 L 451 52 L 446 48 Z M 324 528 L 326 528 L 328 530 L 328 534 L 325 538 L 321 538 L 319 536 L 319 533 Z M 311 515 L 313 517 L 313 522 L 309 527 L 307 527 L 304 524 L 304 521 L 310 515 Z M 341 509 L 342 510 L 340 517 L 335 521 L 333 519 L 334 514 L 339 509 Z M 325 504 L 326 507 L 323 509 L 322 506 Z M 256 487 L 258 486 L 259 489 L 257 490 Z M 251 455 L 252 456 L 252 461 L 251 462 L 250 468 L 248 470 L 245 466 L 246 465 L 247 458 Z M 247 438 L 249 440 L 248 444 L 244 449 L 243 452 L 241 454 L 239 454 L 238 453 L 238 450 L 240 447 L 240 444 L 246 438 Z M 246 422 L 248 424 L 247 429 L 240 437 L 238 435 L 238 432 L 241 427 Z M 256 278 L 258 280 L 256 283 L 256 288 L 253 291 L 249 292 L 248 291 L 248 287 L 250 283 Z M 385 265 L 385 269 L 383 272 L 367 287 L 363 289 L 355 297 L 353 297 L 342 302 L 337 301 L 324 294 L 309 283 L 303 276 L 303 274 L 306 271 L 313 271 L 317 273 L 323 273 L 324 274 L 339 274 L 340 273 L 346 273 L 347 272 L 351 272 L 360 269 L 368 268 L 371 266 L 374 266 L 376 264 L 379 264 L 380 263 L 383 263 Z M 400 262 L 401 263 L 401 266 L 397 272 L 394 274 L 393 273 L 393 269 L 394 267 Z M 439 227 L 442 231 L 442 237 L 437 241 L 435 241 L 433 238 L 433 233 L 434 231 Z M 369 152 L 371 148 L 375 144 L 379 142 L 385 141 L 386 140 L 398 140 L 399 141 L 404 141 L 413 145 L 419 151 L 421 158 L 420 159 L 420 162 L 414 168 L 410 170 L 396 171 L 395 170 L 389 170 L 383 168 L 376 164 L 370 157 Z M 292 135 L 295 132 L 303 128 L 308 128 L 309 127 L 319 128 L 322 129 L 327 133 L 327 136 L 325 138 L 320 138 L 316 136 L 303 136 L 298 138 L 294 138 Z M 273 121 L 278 121 L 283 127 L 284 135 L 283 136 L 282 143 L 286 143 L 287 142 L 303 142 L 304 143 L 307 143 L 314 146 L 321 154 L 321 158 L 318 165 L 311 172 L 300 178 L 294 180 L 287 180 L 278 176 L 269 167 L 269 166 L 267 165 L 266 166 L 266 171 L 265 172 L 266 180 L 268 183 L 275 188 L 282 188 L 285 187 L 293 181 L 295 182 L 299 182 L 302 184 L 306 184 L 307 185 L 311 185 L 317 187 L 329 186 L 338 183 L 347 178 L 357 166 L 359 166 L 363 170 L 365 174 L 365 177 L 366 178 L 366 187 L 367 188 L 367 204 L 366 205 L 366 211 L 365 212 L 362 226 L 359 231 L 357 237 L 349 246 L 337 254 L 331 255 L 330 256 L 322 256 L 316 254 L 305 248 L 294 237 L 284 223 L 278 211 L 276 200 L 274 198 L 272 198 L 265 194 L 257 185 L 255 179 L 255 171 L 254 171 L 248 178 L 241 182 L 236 182 L 234 181 L 229 175 L 229 168 L 231 164 L 237 158 L 244 154 L 253 154 L 258 158 L 264 158 L 266 161 L 267 161 L 266 158 L 267 157 L 267 153 L 269 150 L 264 144 L 264 134 L 266 128 Z M 357 115 L 361 115 L 363 116 L 368 121 L 370 125 L 370 138 L 367 144 L 364 147 L 361 148 L 355 147 L 350 142 L 349 139 L 349 126 L 352 119 Z M 289 86 L 289 91 L 286 94 L 280 96 L 272 102 L 269 102 L 266 98 L 267 93 L 274 85 L 281 82 L 284 82 Z M 247 81 L 254 84 L 258 88 L 259 92 L 252 100 L 247 109 L 242 114 L 238 114 L 230 105 L 229 102 L 230 92 L 238 83 L 243 81 Z M 354 77 L 359 73 L 366 73 L 373 76 L 378 81 L 379 87 L 376 90 L 371 90 L 367 87 L 359 86 L 354 82 Z M 425 57 L 428 56 L 436 57 L 439 59 L 447 68 L 449 74 L 448 81 L 447 83 L 438 91 L 434 91 L 414 74 L 415 66 Z" fill="#FBFBFB" fill-rule="evenodd"/><path d="M 286 610 L 276 615 L 274 619 L 269 624 L 260 630 L 249 641 L 249 642 L 229 661 L 224 669 L 211 681 L 219 675 L 219 674 L 225 668 L 227 664 L 260 630 L 269 624 L 277 615 Z M 326 529 L 324 529 L 320 533 L 320 536 L 321 537 L 325 537 L 327 534 L 327 530 Z M 311 516 L 305 521 L 305 524 L 307 526 L 309 526 L 312 522 L 312 517 Z M 341 510 L 339 510 L 335 514 L 334 517 L 335 520 L 339 517 Z M 251 456 L 248 458 L 247 461 L 247 465 L 246 467 L 248 469 L 251 461 Z M 247 439 L 241 444 L 241 447 L 239 450 L 239 453 L 242 452 L 243 449 L 247 444 L 248 441 Z M 246 423 L 242 427 L 239 432 L 239 435 L 240 436 L 246 429 L 247 426 Z M 575 574 L 567 556 L 546 524 L 535 513 L 524 508 L 516 508 L 507 515 L 503 523 L 503 531 L 502 532 L 503 547 L 499 554 L 499 556 L 493 564 L 486 564 L 484 562 L 483 554 L 486 549 L 486 545 L 487 544 L 490 530 L 488 529 L 484 532 L 481 532 L 478 529 L 477 525 L 479 519 L 486 507 L 486 505 L 489 501 L 490 497 L 492 494 L 492 491 L 495 482 L 495 478 L 496 477 L 496 473 L 495 472 L 496 468 L 495 465 L 498 462 L 501 464 L 502 463 L 501 453 L 500 452 L 500 449 L 497 440 L 497 436 L 499 434 L 501 434 L 501 431 L 494 418 L 487 410 L 486 405 L 488 403 L 491 404 L 494 404 L 490 396 L 484 391 L 481 394 L 474 406 L 463 416 L 454 420 L 446 420 L 443 421 L 437 425 L 426 425 L 425 426 L 420 426 L 419 427 L 415 427 L 414 428 L 406 429 L 405 430 L 400 430 L 399 429 L 398 430 L 382 431 L 381 432 L 362 433 L 353 436 L 345 436 L 342 434 L 338 434 L 333 431 L 324 432 L 323 433 L 297 433 L 291 431 L 296 432 L 298 434 L 307 434 L 312 436 L 314 439 L 314 441 L 327 454 L 327 459 L 318 471 L 317 474 L 318 477 L 321 477 L 323 475 L 325 469 L 330 464 L 332 464 L 334 466 L 334 468 L 327 474 L 326 477 L 328 485 L 335 484 L 338 482 L 340 482 L 342 480 L 345 480 L 346 479 L 352 480 L 355 482 L 355 484 L 349 493 L 348 501 L 353 500 L 360 492 L 362 494 L 363 499 L 366 503 L 362 510 L 358 513 L 353 519 L 351 524 L 332 541 L 326 543 L 326 544 L 322 547 L 317 547 L 308 544 L 305 542 L 302 542 L 297 539 L 294 536 L 294 533 L 296 530 L 296 525 L 294 525 L 292 528 L 292 530 L 289 533 L 286 531 L 284 526 L 281 523 L 276 514 L 275 503 L 276 502 L 276 494 L 277 491 L 275 489 L 272 494 L 273 514 L 271 516 L 269 516 L 262 511 L 261 509 L 258 508 L 256 506 L 254 506 L 243 496 L 239 494 L 234 494 L 231 492 L 229 492 L 226 489 L 226 484 L 225 483 L 225 478 L 224 477 L 227 462 L 224 461 L 219 466 L 217 466 L 218 468 L 219 466 L 224 462 L 226 464 L 223 483 L 225 486 L 226 491 L 228 493 L 233 493 L 234 494 L 241 495 L 244 497 L 251 505 L 256 508 L 261 513 L 265 515 L 270 520 L 280 526 L 285 531 L 285 533 L 287 535 L 285 537 L 283 536 L 275 529 L 270 526 L 263 519 L 262 519 L 257 513 L 248 506 L 225 506 L 247 506 L 254 513 L 255 513 L 263 522 L 268 525 L 281 537 L 290 543 L 295 548 L 297 554 L 294 557 L 279 557 L 278 558 L 273 558 L 272 561 L 281 566 L 283 568 L 283 570 L 281 572 L 276 574 L 263 574 L 262 575 L 256 576 L 253 580 L 253 590 L 252 592 L 243 600 L 231 602 L 227 605 L 216 622 L 216 624 L 206 634 L 203 641 L 194 651 L 193 651 L 186 644 L 182 642 L 165 626 L 159 623 L 151 617 L 152 608 L 153 607 L 153 602 L 149 599 L 144 599 L 138 596 L 132 587 L 135 584 L 138 583 L 150 587 L 140 583 L 133 582 L 129 580 L 125 580 L 121 582 L 117 586 L 117 588 L 118 589 L 125 589 L 128 587 L 130 587 L 133 590 L 135 594 L 135 599 L 137 603 L 139 603 L 143 600 L 150 600 L 153 603 L 153 607 L 151 612 L 151 618 L 154 621 L 158 623 L 168 633 L 168 635 L 172 641 L 188 655 L 188 657 L 191 661 L 191 670 L 192 671 L 201 671 L 211 662 L 213 658 L 218 653 L 222 647 L 224 640 L 229 634 L 230 630 L 237 624 L 243 621 L 245 621 L 246 620 L 246 617 L 249 614 L 255 614 L 257 615 L 267 606 L 272 598 L 275 595 L 277 595 L 282 599 L 289 590 L 293 588 L 297 588 L 300 586 L 302 586 L 313 579 L 313 578 L 307 573 L 306 568 L 310 565 L 314 565 L 318 567 L 322 567 L 327 570 L 331 570 L 334 572 L 338 572 L 342 574 L 354 575 L 355 576 L 382 576 L 385 574 L 390 573 L 393 570 L 400 569 L 405 573 L 405 580 L 401 585 L 402 591 L 419 609 L 425 612 L 428 615 L 436 620 L 442 620 L 443 621 L 447 621 L 449 620 L 461 626 L 468 626 L 470 623 L 477 623 L 484 619 L 490 617 L 492 615 L 494 615 L 508 605 L 529 585 L 533 585 L 535 587 L 536 601 L 537 602 L 542 602 L 544 604 L 550 604 L 551 602 L 555 601 L 558 599 L 563 599 L 564 598 L 572 597 L 573 596 L 572 594 L 566 592 L 563 589 L 562 587 L 562 583 L 565 580 L 574 581 L 575 580 Z M 207 639 L 209 642 L 204 650 L 200 652 L 198 650 L 201 644 Z M 280 561 L 282 559 L 292 559 L 297 563 L 295 565 L 291 566 L 290 565 L 282 564 Z M 370 553 L 369 556 L 366 558 L 362 557 L 361 559 L 358 558 L 358 557 L 360 555 L 362 555 L 361 554 L 364 552 L 368 551 Z M 343 547 L 345 550 L 339 555 L 336 552 L 339 549 Z M 344 542 L 342 545 L 336 549 L 332 550 L 330 552 L 328 551 L 328 549 L 333 544 L 342 540 Z M 397 538 L 398 539 L 397 549 L 394 552 L 392 552 L 391 551 L 394 548 L 394 541 L 395 539 Z M 344 540 L 346 538 L 349 539 L 346 542 Z M 289 539 L 292 538 L 300 543 L 302 546 L 300 548 L 296 547 L 289 540 Z M 421 531 L 423 533 L 422 536 L 420 537 L 419 536 L 419 533 Z M 403 527 L 405 529 L 404 532 L 401 531 L 401 529 Z M 373 528 L 376 527 L 377 529 L 374 530 Z M 437 517 L 438 518 L 438 524 L 435 526 L 434 525 L 434 520 L 435 518 Z M 366 513 L 372 517 L 371 524 L 369 526 L 367 531 L 359 539 L 357 539 L 353 536 L 354 529 L 363 515 Z M 405 519 L 405 521 L 397 529 L 397 530 L 394 533 L 391 533 L 387 538 L 387 540 L 381 547 L 380 553 L 376 556 L 374 555 L 375 552 L 375 548 L 374 547 L 372 548 L 369 547 L 358 552 L 355 552 L 354 551 L 355 545 L 359 540 L 364 541 L 368 539 L 373 539 L 375 541 L 377 539 L 377 537 L 379 535 L 380 524 L 381 523 L 380 521 L 380 514 L 385 508 L 387 508 L 392 515 L 403 517 Z M 430 506 L 432 508 L 432 510 L 431 512 L 429 513 L 427 510 Z M 449 498 L 451 500 L 451 503 L 450 504 L 450 512 L 449 513 L 447 523 L 441 532 L 439 529 L 442 523 L 443 514 L 446 508 L 447 500 Z M 412 498 L 416 501 L 418 504 L 419 508 L 426 516 L 426 523 L 424 525 L 421 523 L 419 523 L 415 537 L 409 543 L 408 540 L 412 532 L 412 518 L 409 514 L 407 506 L 408 505 L 408 500 L 410 498 Z M 422 493 L 425 494 L 427 496 L 428 501 L 425 504 L 419 499 L 419 497 Z M 367 506 L 368 494 L 370 492 L 371 489 L 379 490 L 385 495 L 396 495 L 398 497 L 394 502 L 392 502 L 389 504 L 378 503 L 375 504 L 372 507 L 368 507 Z M 248 354 L 243 354 L 241 355 L 235 361 L 232 359 L 233 362 L 236 363 L 244 355 L 247 357 L 243 367 L 237 373 L 233 370 L 232 378 L 229 383 L 225 387 L 223 391 L 224 393 L 225 393 L 223 391 L 229 382 L 243 369 L 248 358 Z M 269 394 L 269 389 L 275 383 L 284 377 L 284 374 L 281 372 L 275 372 L 272 368 L 272 365 L 277 360 L 282 358 L 290 357 L 293 354 L 293 351 L 289 349 L 286 345 L 290 341 L 295 339 L 320 339 L 295 339 L 287 343 L 286 347 L 290 349 L 293 353 L 289 357 L 281 358 L 275 361 L 270 367 L 270 370 L 272 372 L 280 372 L 284 375 L 284 377 L 282 379 L 274 383 L 269 388 L 269 394 L 274 398 L 278 398 L 280 396 L 283 395 L 289 395 L 291 397 L 291 399 L 288 403 L 286 404 L 283 410 L 287 415 L 292 417 L 297 417 L 298 418 L 320 418 L 321 417 L 331 416 L 340 413 L 351 413 L 353 417 L 354 417 L 359 413 L 366 409 L 368 409 L 374 405 L 376 405 L 378 407 L 377 408 L 377 411 L 375 413 L 375 415 L 377 416 L 384 412 L 387 412 L 390 409 L 400 406 L 403 404 L 406 405 L 406 407 L 404 409 L 405 411 L 424 399 L 434 394 L 436 396 L 434 402 L 434 408 L 436 408 L 443 401 L 443 400 L 448 396 L 450 393 L 450 391 L 452 389 L 455 379 L 457 377 L 460 380 L 460 392 L 463 393 L 465 391 L 470 383 L 470 380 L 472 378 L 472 376 L 474 373 L 474 359 L 473 358 L 473 354 L 471 348 L 471 351 L 473 355 L 472 357 L 473 359 L 473 365 L 470 369 L 469 368 L 466 371 L 466 373 L 462 378 L 461 378 L 458 374 L 456 375 L 451 385 L 450 389 L 447 392 L 445 392 L 443 394 L 440 391 L 436 391 L 432 394 L 428 395 L 428 396 L 425 398 L 419 400 L 414 399 L 413 400 L 409 400 L 405 402 L 402 402 L 399 405 L 397 405 L 393 408 L 388 408 L 385 411 L 382 412 L 379 412 L 378 411 L 379 404 L 376 403 L 362 410 L 351 410 L 350 411 L 342 410 L 338 413 L 333 413 L 331 415 L 321 415 L 320 416 L 317 416 L 316 415 L 297 415 L 293 413 L 290 413 L 286 409 L 286 406 L 292 399 L 292 396 L 289 394 L 284 394 L 281 396 L 273 397 Z M 473 335 L 473 339 L 474 341 L 472 343 L 471 342 L 470 343 L 470 346 L 472 344 L 473 345 L 474 344 L 474 338 Z M 328 323 L 314 328 L 306 328 L 305 327 L 293 327 L 292 328 L 289 328 L 279 333 L 272 339 L 271 341 L 271 346 L 261 355 L 256 365 L 256 392 L 257 393 L 258 399 L 257 396 L 257 371 L 256 370 L 256 366 L 260 357 L 271 346 L 273 339 L 281 332 L 290 328 L 294 328 L 295 327 L 315 328 Z M 382 315 L 377 315 L 372 319 L 356 319 L 355 318 L 349 318 L 348 319 L 340 319 L 339 320 L 331 321 L 330 322 L 337 321 L 338 320 L 344 320 L 345 319 L 373 319 L 377 315 Z M 256 279 L 251 283 L 249 287 L 249 291 L 253 290 L 255 288 L 255 283 L 257 281 Z M 444 276 L 448 278 L 451 281 L 449 284 L 450 287 L 460 296 L 465 303 L 464 305 L 459 302 L 456 302 L 455 303 L 455 305 L 462 313 L 456 306 L 456 303 L 458 302 L 465 306 L 467 306 L 467 305 L 461 297 L 450 287 L 450 285 L 454 282 Z M 384 265 L 383 264 L 380 264 L 379 265 L 376 265 L 374 267 L 371 267 L 368 269 L 360 270 L 359 271 L 356 271 L 351 273 L 347 273 L 346 274 L 340 274 L 339 275 L 324 275 L 323 274 L 317 274 L 313 272 L 306 272 L 304 274 L 304 276 L 309 282 L 324 293 L 337 300 L 342 301 L 353 296 L 355 296 L 363 288 L 367 286 L 382 272 L 384 269 Z M 383 267 L 381 271 L 362 288 L 357 291 L 353 295 L 350 295 L 344 299 L 337 299 L 331 296 L 318 287 L 315 286 L 305 277 L 305 275 L 307 273 L 313 273 L 314 274 L 318 274 L 323 276 L 339 276 L 340 275 L 346 275 L 347 274 L 351 274 L 356 272 L 360 272 L 361 271 L 368 270 L 377 266 L 382 266 Z M 400 263 L 395 267 L 394 269 L 394 273 L 395 273 L 399 268 Z M 233 230 L 236 234 L 240 231 L 243 234 L 244 238 L 254 246 L 264 260 L 266 264 L 266 270 L 263 274 L 260 274 L 256 270 L 252 261 L 246 254 L 244 254 L 244 258 L 241 260 L 238 257 L 233 247 L 230 245 L 229 246 L 231 245 L 233 247 L 238 257 L 241 260 L 243 260 L 244 256 L 246 255 L 251 260 L 255 267 L 255 269 L 259 274 L 263 274 L 266 271 L 266 268 L 267 267 L 270 267 L 282 274 L 285 273 L 285 270 L 279 263 L 268 256 L 261 254 L 255 248 L 255 247 L 244 237 L 243 233 L 241 230 L 239 230 L 237 233 L 235 233 Z M 269 262 L 272 260 L 278 264 L 283 269 L 283 271 L 281 272 L 275 268 Z M 439 228 L 437 229 L 434 233 L 434 238 L 435 240 L 437 240 L 441 237 L 441 231 Z M 287 226 L 295 237 L 305 247 L 316 253 L 322 255 L 330 255 L 331 254 L 337 253 L 339 251 L 342 250 L 353 241 L 358 233 L 358 232 L 356 237 L 353 241 L 341 250 L 333 254 L 320 254 L 308 249 L 297 239 Z M 60 196 L 65 203 L 71 209 L 87 222 L 91 224 L 95 228 L 98 237 L 107 256 L 116 269 L 131 284 L 140 290 L 151 300 L 148 304 L 143 304 L 142 305 L 154 312 L 156 312 L 161 315 L 168 317 L 173 322 L 173 324 L 171 326 L 168 326 L 167 327 L 168 329 L 194 337 L 197 340 L 197 342 L 195 345 L 202 346 L 203 347 L 209 347 L 215 351 L 215 355 L 216 356 L 219 356 L 222 350 L 223 345 L 225 342 L 225 339 L 228 335 L 231 328 L 236 322 L 237 315 L 241 311 L 244 311 L 246 313 L 239 320 L 239 322 L 241 323 L 239 320 L 246 314 L 246 311 L 244 310 L 242 307 L 252 298 L 252 296 L 251 295 L 246 295 L 241 301 L 239 312 L 235 318 L 235 322 L 232 326 L 229 333 L 227 335 L 214 334 L 212 331 L 221 325 L 222 323 L 219 321 L 207 321 L 202 319 L 197 314 L 184 315 L 182 313 L 182 311 L 188 307 L 187 304 L 172 300 L 169 298 L 167 298 L 165 296 L 163 296 L 161 294 L 159 294 L 135 276 L 116 257 L 116 256 L 102 241 L 101 238 L 99 237 L 93 225 L 84 219 L 72 209 Z M 201 322 L 202 321 L 205 322 L 217 322 L 218 325 L 214 328 L 208 329 L 205 327 Z M 186 318 L 189 316 L 196 316 L 198 318 L 196 320 L 187 320 Z M 248 296 L 250 298 L 245 302 L 244 299 Z M 156 296 L 158 295 L 168 300 L 184 304 L 186 307 L 184 309 L 181 309 L 177 311 L 175 308 L 170 304 L 163 300 L 158 299 Z M 131 277 L 132 276 L 147 288 L 144 290 L 138 284 L 136 284 Z M 266 181 L 270 186 L 275 189 L 283 189 L 292 183 L 297 183 L 306 186 L 316 187 L 302 185 L 299 183 L 295 183 L 293 182 L 285 188 L 282 189 L 275 189 L 270 186 Z M 160 169 L 158 175 L 158 182 L 167 191 L 186 216 L 189 217 L 191 214 L 193 214 L 195 216 L 199 225 L 208 238 L 211 239 L 212 238 L 212 235 L 212 237 L 209 238 L 205 234 L 198 223 L 194 214 L 191 213 L 188 217 L 182 211 L 180 207 L 168 192 L 159 183 L 158 181 L 158 175 Z M 357 167 L 354 170 L 352 174 L 344 181 L 329 187 L 319 188 L 329 187 L 344 181 L 352 174 L 354 170 L 357 167 L 363 172 L 365 178 L 366 201 L 365 202 L 364 215 L 359 230 L 362 223 L 362 220 L 365 211 L 365 205 L 366 204 L 366 188 L 365 187 L 365 178 L 364 177 L 364 174 L 362 170 L 359 167 Z M 264 159 L 266 162 L 265 171 L 265 166 L 268 164 L 278 175 L 287 179 L 294 179 L 308 173 L 311 171 L 318 163 L 317 165 L 308 173 L 300 177 L 290 179 L 289 178 L 284 178 L 277 174 L 270 167 L 268 161 L 266 162 Z M 261 159 L 258 159 L 253 155 L 244 155 L 240 157 L 232 164 L 230 168 L 230 175 L 231 177 L 236 181 L 241 181 L 248 177 L 250 174 L 255 170 L 256 171 L 256 179 L 256 166 L 258 162 Z M 254 156 L 257 159 L 257 163 L 251 172 L 244 179 L 241 180 L 236 180 L 234 179 L 230 174 L 230 170 L 233 164 L 237 160 L 247 155 Z M 228 145 L 227 147 L 228 158 L 223 162 L 217 169 L 217 172 L 218 173 L 223 171 L 226 174 L 221 184 L 219 192 L 225 191 L 227 193 L 226 191 L 221 191 L 220 190 L 221 184 L 226 176 L 226 173 L 224 171 L 221 171 L 220 172 L 217 171 L 219 167 L 228 158 L 228 153 L 227 152 L 227 147 Z M 370 152 L 371 157 L 376 163 L 383 167 L 389 169 L 395 169 L 396 170 L 410 169 L 414 167 L 419 162 L 419 159 L 420 158 L 418 151 L 413 146 L 407 143 L 399 142 L 398 141 L 386 141 L 385 142 L 379 143 L 375 145 L 372 148 Z M 371 151 L 375 146 L 384 142 L 401 142 L 402 143 L 408 144 L 415 148 L 419 153 L 420 158 L 419 161 L 413 167 L 407 169 L 391 169 L 390 168 L 384 167 L 377 163 L 372 158 L 371 156 Z M 82 130 L 82 137 L 84 136 L 84 134 L 88 130 L 91 130 L 97 134 L 105 147 L 105 154 L 104 156 L 100 159 L 95 159 L 91 157 L 87 160 L 75 149 L 72 148 L 67 148 L 63 151 L 66 149 L 74 149 L 77 153 L 74 154 L 68 152 L 64 158 L 62 157 L 62 153 L 62 159 L 63 161 L 64 161 L 65 156 L 68 153 L 74 154 L 86 165 L 87 167 L 87 173 L 82 178 L 77 178 L 74 177 L 72 175 L 70 175 L 68 178 L 61 178 L 57 181 L 56 183 L 56 188 L 59 194 L 56 188 L 56 183 L 59 179 L 63 178 L 65 181 L 61 185 L 61 191 L 67 198 L 70 199 L 72 201 L 78 201 L 83 197 L 84 198 L 84 203 L 90 211 L 98 215 L 108 214 L 123 207 L 135 199 L 139 195 L 143 187 L 143 180 L 140 173 L 132 164 L 123 160 L 112 160 L 104 163 L 96 170 L 89 180 L 86 186 L 85 191 L 83 193 L 81 191 L 81 189 L 76 184 L 70 182 L 68 180 L 71 176 L 75 178 L 82 179 L 87 174 L 88 171 L 87 166 L 79 156 L 81 155 L 88 161 L 92 158 L 99 160 L 104 157 L 106 153 L 106 150 L 101 138 L 96 132 L 88 129 L 83 133 Z M 62 184 L 64 182 L 71 182 L 77 185 L 81 190 L 81 197 L 78 200 L 72 200 L 68 198 L 63 193 L 61 189 Z M 128 162 L 138 171 L 142 177 L 143 186 L 140 193 L 133 200 L 119 209 L 115 210 L 107 214 L 96 214 L 92 212 L 86 206 L 84 202 L 84 192 L 87 186 L 87 184 L 94 173 L 103 164 L 109 161 L 112 161 L 113 160 L 122 160 Z M 293 135 L 294 137 L 298 137 L 303 135 L 316 135 L 320 137 L 325 137 L 326 136 L 326 133 L 319 129 L 309 128 L 308 129 L 303 129 L 295 133 Z M 93 125 L 104 135 L 108 143 L 109 148 L 112 151 L 116 150 L 120 153 L 128 154 L 131 152 L 132 150 L 132 143 L 134 142 L 137 147 L 141 149 L 141 152 L 139 155 L 139 161 L 140 164 L 145 169 L 150 169 L 155 164 L 158 155 L 158 147 L 157 145 L 150 139 L 151 137 L 156 138 L 159 141 L 161 145 L 160 142 L 156 138 L 154 137 L 149 137 L 140 147 L 138 147 L 135 143 L 134 137 L 131 131 L 131 129 L 127 123 L 123 120 L 118 120 L 115 123 L 115 125 L 116 126 L 117 125 L 121 125 L 123 126 L 128 131 L 132 142 L 131 151 L 127 154 L 124 154 L 119 152 L 115 148 L 113 150 L 111 150 L 102 132 L 98 128 Z M 152 141 L 156 145 L 158 149 L 158 154 L 155 163 L 149 169 L 147 169 L 141 165 L 139 160 L 139 157 L 140 156 L 140 153 L 144 146 L 149 141 Z M 118 121 L 119 120 L 124 121 L 128 125 L 128 127 L 126 128 L 123 125 L 120 124 Z M 451 109 L 458 121 L 458 123 L 463 130 L 461 133 L 461 137 L 467 142 L 469 142 L 475 148 L 473 150 L 467 150 L 465 152 L 465 154 L 467 157 L 473 162 L 479 171 L 478 173 L 472 172 L 470 174 L 471 180 L 474 183 L 474 185 L 478 193 L 476 195 L 474 195 L 471 193 L 468 195 L 465 191 L 467 188 L 463 183 L 456 184 L 452 181 L 449 182 L 455 190 L 456 193 L 454 196 L 452 195 L 451 196 L 455 202 L 455 209 L 453 210 L 450 206 L 446 206 L 445 208 L 448 214 L 448 216 L 446 218 L 440 215 L 437 215 L 436 216 L 438 219 L 442 222 L 444 228 L 447 231 L 447 233 L 445 237 L 435 249 L 432 247 L 432 244 L 433 243 L 432 241 L 429 239 L 428 240 L 428 247 L 424 251 L 421 249 L 419 249 L 417 255 L 413 259 L 412 257 L 409 255 L 405 261 L 405 265 L 404 266 L 404 271 L 405 272 L 408 271 L 413 267 L 416 268 L 434 267 L 436 269 L 435 271 L 442 275 L 436 271 L 439 267 L 430 266 L 429 265 L 428 266 L 418 268 L 416 265 L 425 257 L 426 254 L 429 251 L 434 252 L 437 250 L 448 236 L 450 237 L 450 243 L 452 243 L 456 239 L 462 225 L 462 218 L 465 215 L 468 217 L 470 217 L 470 200 L 469 199 L 469 196 L 472 194 L 476 197 L 478 197 L 478 192 L 471 178 L 471 174 L 473 172 L 477 174 L 480 174 L 480 171 L 477 166 L 465 154 L 465 152 L 467 150 L 476 151 L 477 149 L 471 143 L 464 140 L 461 137 L 461 135 L 464 133 L 464 130 L 460 126 L 454 113 Z M 449 224 L 453 224 L 455 228 L 457 229 L 457 233 L 455 235 L 447 228 L 447 226 Z M 467 204 L 468 205 L 468 208 L 470 211 L 468 215 L 465 211 L 465 206 Z M 247 82 L 240 83 L 238 84 L 231 92 L 230 102 L 233 108 L 238 113 L 242 113 L 246 109 L 251 100 L 258 92 L 257 88 L 254 85 Z M 250 84 L 257 90 L 257 92 L 252 97 L 245 109 L 243 111 L 239 112 L 238 110 L 232 105 L 232 103 L 230 100 L 231 94 L 234 89 L 238 85 L 243 83 Z M 310 62 L 300 63 L 296 69 L 293 69 L 287 71 L 285 73 L 275 78 L 272 81 L 270 81 L 260 70 L 253 67 L 243 67 L 242 68 L 239 68 L 233 70 L 228 73 L 221 80 L 217 90 L 218 86 L 222 79 L 227 74 L 233 70 L 239 68 L 242 68 L 243 67 L 252 67 L 253 68 L 256 68 L 261 71 L 267 77 L 269 81 L 273 81 L 282 74 L 288 71 L 296 69 L 300 63 Z M 425 58 L 416 66 L 415 74 L 422 79 L 434 90 L 438 90 L 440 89 L 447 81 L 448 74 L 445 66 L 436 58 L 432 58 L 431 57 Z M 428 58 L 433 58 L 440 62 L 444 66 L 447 72 L 447 79 L 446 81 L 437 89 L 434 89 L 425 80 L 415 73 L 415 70 L 417 66 L 421 62 Z M 230 59 L 238 56 L 250 55 L 251 56 L 256 56 L 262 59 L 264 59 L 273 66 L 275 66 L 278 63 L 285 60 L 279 63 L 277 63 L 275 65 L 272 65 L 266 60 L 260 57 L 257 57 L 252 55 L 242 55 Z M 424 43 L 421 43 L 412 47 L 403 56 L 401 63 L 399 65 L 389 61 L 386 61 L 381 59 L 376 59 L 375 58 L 357 58 L 356 59 L 352 59 L 350 57 L 350 55 L 350 59 L 353 60 L 358 58 L 375 58 L 376 59 L 385 60 L 400 65 L 403 56 L 412 47 L 418 44 Z" fill="#D8D8D8" fill-rule="evenodd"/><path d="M 207 640 L 202 644 L 199 650 L 200 651 L 203 650 L 206 644 L 208 642 Z M 281 561 L 282 563 L 290 564 L 291 565 L 296 563 L 292 560 L 282 560 Z M 369 553 L 368 552 L 362 554 L 363 555 L 360 556 L 359 558 L 361 558 L 362 556 L 366 557 L 368 556 Z M 344 549 L 343 548 L 337 552 L 340 554 Z M 397 539 L 396 539 L 395 541 L 395 548 L 392 551 L 394 551 L 396 549 Z M 290 539 L 290 540 L 296 546 L 299 547 L 301 546 L 301 545 L 297 542 L 294 541 L 292 539 Z M 449 499 L 448 500 L 447 508 L 444 514 L 443 523 L 440 529 L 441 531 L 447 520 L 447 517 L 449 512 L 449 504 L 450 503 L 450 500 Z M 202 322 L 202 323 L 208 328 L 211 328 L 217 325 L 217 323 L 205 323 Z M 187 319 L 196 319 L 197 318 L 196 317 L 189 317 L 187 318 Z M 157 296 L 158 298 L 163 299 L 174 306 L 177 310 L 185 307 L 184 305 L 174 303 Z M 132 277 L 136 283 L 138 283 L 144 289 L 146 288 Z M 382 267 L 377 267 L 368 271 L 365 271 L 360 273 L 356 273 L 351 275 L 347 275 L 346 276 L 340 276 L 339 277 L 323 277 L 322 276 L 314 275 L 313 274 L 307 274 L 306 277 L 315 285 L 318 286 L 331 295 L 337 298 L 344 298 L 350 294 L 353 294 L 357 290 L 362 287 L 378 272 L 379 272 Z M 270 262 L 275 267 L 282 271 L 282 269 L 278 265 L 272 261 Z M 64 183 L 62 186 L 62 189 L 64 193 L 68 197 L 72 199 L 78 199 L 80 197 L 80 190 L 79 188 L 74 184 L 71 183 Z M 131 165 L 122 161 L 113 161 L 103 165 L 95 173 L 88 184 L 88 186 L 85 192 L 85 202 L 87 206 L 92 211 L 96 213 L 107 213 L 124 205 L 133 199 L 139 193 L 142 186 L 141 177 L 137 171 Z M 259 162 L 257 166 L 257 180 L 259 185 L 265 192 L 274 197 L 276 197 L 278 199 L 278 203 L 279 204 L 280 211 L 287 225 L 303 244 L 308 248 L 320 253 L 333 253 L 341 249 L 344 246 L 347 245 L 352 241 L 358 231 L 362 219 L 363 210 L 364 209 L 364 202 L 365 201 L 364 178 L 362 172 L 358 168 L 355 170 L 353 174 L 347 180 L 338 185 L 329 188 L 319 189 L 318 188 L 306 187 L 297 184 L 292 184 L 283 190 L 275 190 L 270 187 L 266 183 L 264 179 L 264 166 L 265 165 L 264 160 L 262 159 Z M 259 163 L 262 160 L 265 163 L 264 165 L 264 172 L 263 173 L 264 180 L 266 184 L 270 188 L 276 191 L 282 191 L 285 190 L 292 185 L 299 185 L 300 186 L 313 188 L 314 189 L 327 189 L 328 188 L 331 188 L 337 185 L 339 185 L 348 180 L 353 175 L 355 171 L 358 169 L 362 173 L 363 180 L 364 181 L 364 206 L 363 207 L 363 212 L 362 213 L 361 221 L 355 236 L 350 241 L 348 239 L 349 236 L 351 234 L 351 232 L 354 227 L 354 224 L 355 223 L 355 215 L 354 213 L 347 207 L 341 205 L 334 205 L 328 207 L 319 212 L 314 216 L 309 222 L 306 228 L 306 233 L 308 238 L 315 246 L 315 248 L 314 249 L 311 249 L 297 237 L 287 224 L 280 210 L 278 198 L 269 194 L 260 186 L 257 180 L 257 169 Z M 256 159 L 254 157 L 247 156 L 237 161 L 234 164 L 231 170 L 231 174 L 233 177 L 236 179 L 244 178 L 250 172 L 256 163 Z M 372 151 L 372 156 L 377 162 L 384 166 L 390 167 L 391 168 L 407 168 L 413 166 L 418 161 L 419 158 L 418 153 L 415 149 L 408 145 L 402 144 L 401 143 L 384 143 L 378 145 L 375 147 Z M 152 142 L 149 142 L 145 146 L 141 153 L 141 156 L 140 157 L 140 160 L 142 165 L 147 168 L 149 168 L 154 163 L 157 154 L 157 149 L 155 145 Z M 273 123 L 268 128 L 266 133 L 266 144 L 269 148 L 272 149 L 268 155 L 268 160 L 271 167 L 280 175 L 284 177 L 289 177 L 290 178 L 300 176 L 312 169 L 318 162 L 319 159 L 319 154 L 318 152 L 314 148 L 303 144 L 285 144 L 280 146 L 278 144 L 280 142 L 282 137 L 281 126 L 278 123 Z M 268 156 L 273 150 L 283 145 L 286 145 L 287 144 L 301 144 L 302 145 L 306 145 L 314 149 L 318 153 L 319 158 L 316 164 L 310 170 L 298 176 L 295 176 L 294 177 L 286 177 L 278 173 L 271 166 L 268 159 Z M 277 123 L 281 127 L 282 130 L 281 139 L 274 147 L 269 147 L 266 144 L 266 134 L 269 127 L 272 124 Z M 357 117 L 352 122 L 351 129 L 350 130 L 350 136 L 351 137 L 351 140 L 354 144 L 358 146 L 361 146 L 367 141 L 368 135 L 369 134 L 369 129 L 366 121 L 361 117 Z M 358 117 L 362 118 L 367 123 L 368 129 L 369 130 L 367 140 L 362 145 L 357 145 L 355 144 L 352 141 L 350 135 L 350 130 L 351 129 L 352 123 L 354 120 Z M 287 86 L 284 84 L 281 84 L 275 87 L 269 93 L 268 98 L 270 100 L 272 100 L 278 95 L 286 92 L 287 91 Z M 287 87 L 287 89 L 284 92 L 279 94 L 273 99 L 270 99 L 269 98 L 269 94 L 278 86 L 280 85 L 285 85 Z M 250 85 L 247 85 L 246 84 L 240 85 L 235 89 L 232 94 L 231 100 L 233 103 L 233 105 L 236 107 L 239 111 L 241 111 L 244 109 L 251 97 L 256 92 L 256 90 Z M 355 79 L 355 81 L 359 84 L 366 85 L 373 89 L 375 89 L 377 87 L 377 83 L 376 81 L 373 78 L 366 75 L 359 75 Z M 356 78 L 358 76 L 361 75 L 364 75 L 370 77 L 376 82 L 377 86 L 375 88 L 372 88 L 370 86 L 358 83 L 356 81 Z M 428 59 L 421 63 L 418 66 L 416 70 L 416 73 L 425 79 L 434 88 L 437 88 L 445 81 L 446 79 L 446 72 L 443 66 L 440 63 L 433 59 Z M 442 43 L 436 42 L 435 41 L 424 41 L 423 42 L 417 43 L 411 46 L 402 55 L 401 59 L 398 63 L 394 62 L 391 60 L 388 60 L 383 58 L 379 58 L 378 57 L 364 56 L 363 57 L 355 57 L 353 58 L 352 57 L 352 53 L 353 52 L 353 48 L 352 47 L 348 47 L 342 51 L 337 57 L 325 50 L 319 49 L 317 51 L 317 54 L 319 58 L 317 61 L 301 61 L 298 62 L 297 65 L 294 68 L 288 69 L 277 75 L 272 79 L 270 79 L 261 69 L 254 66 L 241 66 L 240 67 L 237 67 L 234 69 L 232 69 L 222 77 L 219 81 L 216 88 L 216 91 L 215 92 L 215 105 L 218 112 L 221 116 L 227 121 L 233 123 L 235 125 L 235 129 L 233 131 L 226 146 L 227 157 L 217 167 L 215 171 L 215 174 L 216 175 L 218 175 L 221 173 L 224 175 L 218 188 L 218 194 L 221 195 L 223 193 L 225 195 L 225 198 L 222 206 L 222 213 L 224 216 L 226 216 L 228 214 L 231 215 L 230 224 L 233 233 L 236 236 L 240 234 L 242 236 L 243 239 L 253 247 L 261 258 L 265 266 L 265 270 L 262 273 L 257 269 L 253 260 L 245 251 L 243 252 L 243 255 L 241 257 L 238 254 L 236 249 L 231 243 L 229 243 L 227 246 L 225 246 L 217 229 L 213 228 L 212 229 L 212 232 L 209 236 L 202 227 L 194 212 L 191 211 L 189 214 L 187 214 L 183 210 L 181 206 L 168 190 L 160 182 L 159 180 L 159 176 L 162 169 L 162 163 L 163 162 L 163 145 L 160 140 L 156 136 L 149 136 L 147 137 L 140 145 L 138 145 L 136 142 L 133 130 L 130 125 L 124 119 L 117 119 L 113 125 L 113 144 L 111 145 L 109 143 L 105 134 L 99 127 L 92 123 L 87 123 L 85 124 L 81 129 L 81 140 L 88 156 L 86 157 L 79 150 L 73 147 L 66 147 L 64 148 L 61 152 L 61 160 L 68 175 L 66 177 L 60 177 L 56 180 L 55 182 L 55 189 L 56 192 L 61 200 L 69 209 L 94 229 L 98 241 L 102 248 L 102 250 L 104 252 L 107 259 L 117 273 L 128 284 L 147 299 L 145 302 L 141 302 L 140 303 L 140 305 L 144 309 L 156 315 L 158 315 L 167 319 L 170 322 L 170 323 L 165 327 L 167 330 L 183 336 L 186 336 L 192 338 L 194 340 L 192 343 L 193 346 L 199 348 L 205 348 L 211 350 L 213 352 L 211 355 L 213 357 L 216 357 L 217 358 L 220 358 L 222 356 L 224 348 L 227 343 L 229 335 L 232 329 L 237 324 L 240 326 L 240 329 L 237 334 L 235 340 L 236 346 L 231 358 L 232 369 L 230 374 L 230 378 L 222 390 L 222 393 L 223 394 L 226 394 L 228 397 L 221 405 L 216 413 L 217 416 L 221 416 L 223 415 L 225 418 L 214 437 L 214 443 L 216 444 L 220 441 L 222 443 L 216 459 L 216 469 L 218 470 L 222 466 L 224 468 L 223 470 L 223 475 L 222 476 L 222 489 L 223 491 L 226 494 L 229 495 L 235 495 L 243 498 L 245 500 L 245 503 L 244 504 L 236 504 L 235 505 L 223 505 L 222 506 L 216 507 L 214 508 L 208 515 L 198 517 L 195 520 L 195 522 L 197 525 L 195 527 L 183 532 L 180 535 L 179 538 L 182 539 L 184 541 L 180 546 L 179 549 L 168 566 L 159 578 L 160 581 L 161 581 L 170 590 L 171 594 L 169 596 L 164 594 L 154 587 L 152 587 L 147 584 L 126 578 L 120 581 L 115 585 L 112 591 L 109 594 L 109 597 L 108 598 L 108 603 L 109 604 L 110 613 L 113 618 L 113 620 L 115 622 L 118 622 L 121 619 L 125 617 L 132 617 L 133 618 L 137 618 L 139 620 L 144 621 L 154 626 L 186 657 L 189 662 L 189 672 L 190 673 L 201 673 L 205 671 L 221 652 L 225 644 L 230 640 L 235 640 L 241 634 L 247 626 L 252 623 L 258 616 L 265 611 L 275 598 L 280 602 L 282 602 L 287 596 L 294 590 L 298 590 L 314 582 L 317 578 L 313 576 L 310 573 L 309 570 L 311 568 L 317 568 L 328 572 L 331 572 L 334 574 L 338 574 L 344 576 L 349 576 L 350 577 L 357 577 L 358 578 L 379 578 L 380 577 L 385 577 L 388 575 L 400 572 L 403 575 L 403 578 L 397 584 L 399 591 L 417 610 L 436 623 L 442 625 L 446 625 L 447 626 L 452 626 L 454 625 L 462 628 L 470 628 L 475 625 L 477 625 L 479 623 L 481 623 L 490 618 L 492 618 L 508 607 L 524 592 L 527 591 L 529 589 L 532 591 L 529 596 L 529 599 L 531 601 L 541 606 L 552 607 L 553 608 L 560 608 L 561 607 L 557 604 L 559 601 L 564 601 L 565 600 L 574 599 L 578 595 L 578 593 L 568 591 L 564 586 L 564 584 L 566 582 L 570 582 L 571 583 L 576 583 L 577 582 L 577 575 L 569 557 L 548 524 L 533 510 L 523 506 L 516 506 L 512 508 L 505 515 L 502 521 L 500 546 L 497 550 L 496 555 L 494 556 L 493 555 L 493 552 L 490 551 L 488 549 L 489 540 L 491 534 L 491 526 L 490 525 L 484 529 L 482 529 L 480 527 L 480 521 L 485 513 L 494 493 L 494 490 L 497 482 L 497 467 L 499 465 L 502 467 L 504 466 L 504 459 L 503 458 L 502 450 L 499 443 L 499 439 L 503 436 L 503 432 L 501 427 L 499 425 L 499 423 L 489 409 L 491 406 L 495 407 L 496 406 L 496 403 L 492 396 L 484 387 L 481 390 L 479 395 L 473 404 L 464 413 L 459 416 L 446 418 L 436 423 L 420 424 L 419 425 L 415 425 L 409 427 L 397 427 L 396 428 L 391 428 L 390 429 L 365 430 L 357 433 L 343 433 L 334 429 L 329 429 L 328 430 L 324 430 L 318 432 L 301 432 L 300 431 L 291 430 L 279 424 L 271 416 L 268 411 L 262 405 L 258 395 L 258 365 L 262 357 L 272 347 L 275 339 L 282 333 L 292 329 L 317 329 L 328 324 L 334 323 L 335 322 L 340 322 L 341 321 L 350 321 L 351 320 L 373 321 L 378 316 L 382 316 L 385 319 L 386 322 L 396 325 L 398 328 L 396 330 L 387 330 L 386 331 L 353 331 L 352 332 L 342 332 L 341 333 L 336 333 L 335 334 L 327 335 L 320 338 L 295 338 L 289 340 L 285 344 L 284 348 L 288 350 L 291 353 L 287 356 L 284 356 L 276 359 L 270 364 L 268 368 L 268 371 L 270 373 L 273 374 L 280 374 L 281 377 L 273 382 L 267 388 L 267 393 L 271 398 L 276 400 L 278 400 L 283 397 L 286 397 L 288 399 L 281 407 L 281 412 L 286 417 L 288 417 L 291 419 L 296 419 L 297 420 L 319 420 L 320 419 L 326 419 L 335 416 L 346 416 L 348 418 L 349 421 L 352 421 L 359 417 L 362 414 L 372 409 L 374 411 L 372 415 L 372 418 L 373 419 L 376 419 L 397 409 L 400 410 L 400 414 L 402 415 L 406 412 L 414 408 L 419 407 L 421 405 L 423 405 L 429 401 L 431 403 L 429 412 L 431 413 L 443 407 L 445 404 L 451 399 L 454 393 L 454 391 L 456 389 L 458 391 L 458 394 L 460 396 L 462 396 L 470 387 L 474 379 L 474 376 L 476 371 L 476 362 L 475 361 L 475 357 L 473 352 L 473 350 L 476 347 L 476 343 L 475 342 L 475 338 L 474 337 L 474 334 L 472 328 L 465 315 L 460 309 L 459 306 L 462 305 L 469 310 L 470 308 L 465 300 L 459 294 L 459 293 L 452 287 L 454 285 L 456 285 L 457 283 L 451 278 L 442 274 L 440 272 L 443 269 L 442 267 L 436 265 L 433 265 L 431 262 L 442 255 L 452 247 L 457 240 L 462 230 L 464 219 L 466 217 L 469 220 L 471 218 L 471 215 L 472 214 L 471 198 L 473 196 L 478 200 L 480 197 L 479 190 L 476 185 L 473 176 L 474 175 L 477 175 L 481 177 L 482 176 L 482 172 L 479 166 L 467 154 L 469 152 L 477 152 L 478 151 L 478 148 L 475 144 L 467 140 L 464 137 L 467 132 L 460 123 L 453 109 L 447 102 L 447 99 L 450 97 L 459 87 L 462 80 L 463 71 L 462 70 L 462 65 L 459 58 L 449 47 Z M 149 602 L 151 604 L 151 609 L 150 610 L 149 617 L 147 619 L 144 619 L 140 615 L 140 609 L 146 602 Z M 115 592 L 117 592 L 120 595 L 120 598 L 121 599 L 122 612 L 119 615 L 113 610 L 110 603 L 110 598 Z M 129 589 L 133 593 L 134 596 L 134 604 L 133 607 L 130 610 L 128 610 L 124 606 L 121 599 L 121 595 L 125 591 Z M 443 44 L 449 48 L 457 56 L 462 66 L 462 79 L 457 89 L 450 96 L 447 97 L 445 100 L 451 107 L 455 113 L 461 126 L 465 130 L 465 133 L 462 135 L 462 137 L 464 139 L 471 142 L 478 149 L 476 152 L 467 151 L 466 154 L 478 166 L 481 171 L 481 174 L 480 175 L 477 175 L 474 173 L 472 174 L 472 178 L 479 192 L 479 197 L 476 198 L 472 195 L 470 196 L 470 199 L 471 200 L 471 217 L 468 218 L 465 216 L 463 218 L 463 225 L 457 239 L 452 244 L 450 244 L 449 243 L 449 237 L 448 237 L 437 251 L 434 253 L 429 252 L 427 254 L 426 257 L 420 263 L 419 263 L 417 266 L 420 267 L 429 264 L 430 265 L 439 266 L 440 268 L 437 271 L 443 275 L 450 278 L 455 282 L 451 285 L 451 287 L 462 297 L 468 305 L 467 307 L 465 307 L 461 304 L 457 303 L 457 306 L 461 310 L 467 319 L 473 331 L 473 334 L 475 338 L 475 344 L 473 346 L 472 345 L 471 346 L 474 354 L 474 358 L 475 359 L 475 373 L 473 376 L 473 378 L 471 380 L 471 383 L 466 391 L 463 394 L 461 394 L 459 392 L 459 380 L 457 378 L 454 384 L 453 389 L 451 391 L 451 393 L 449 396 L 446 398 L 436 409 L 433 408 L 433 402 L 435 398 L 434 395 L 424 400 L 405 412 L 403 410 L 405 407 L 405 405 L 403 405 L 400 407 L 390 410 L 387 413 L 384 413 L 377 417 L 374 415 L 374 413 L 376 411 L 376 408 L 377 407 L 376 406 L 374 406 L 368 410 L 364 411 L 354 418 L 352 417 L 351 414 L 340 414 L 339 415 L 336 415 L 331 417 L 327 417 L 326 418 L 321 418 L 320 419 L 298 419 L 297 418 L 292 418 L 287 416 L 282 409 L 285 404 L 287 403 L 290 399 L 290 397 L 289 396 L 283 396 L 280 397 L 278 399 L 274 399 L 268 394 L 268 388 L 274 382 L 283 377 L 283 375 L 280 373 L 272 373 L 269 370 L 269 367 L 275 360 L 281 357 L 289 356 L 292 353 L 290 350 L 287 349 L 285 347 L 286 343 L 288 341 L 295 338 L 321 338 L 328 335 L 331 335 L 336 333 L 342 333 L 343 332 L 356 332 L 357 331 L 389 331 L 390 330 L 398 330 L 400 328 L 399 326 L 396 324 L 393 324 L 387 322 L 383 316 L 377 316 L 373 320 L 345 320 L 344 321 L 333 322 L 315 329 L 295 328 L 294 329 L 287 330 L 278 335 L 274 339 L 272 346 L 261 357 L 257 366 L 257 370 L 258 371 L 258 396 L 261 404 L 269 413 L 272 418 L 278 424 L 290 430 L 293 430 L 297 432 L 323 432 L 324 431 L 333 430 L 338 433 L 342 433 L 345 435 L 353 435 L 362 432 L 381 431 L 382 430 L 390 430 L 391 429 L 398 429 L 399 428 L 400 429 L 405 429 L 406 428 L 410 428 L 411 427 L 419 426 L 420 425 L 425 425 L 426 424 L 437 424 L 446 419 L 454 419 L 463 415 L 473 406 L 480 394 L 484 390 L 486 391 L 491 396 L 495 403 L 494 405 L 488 404 L 487 405 L 488 410 L 495 418 L 502 431 L 502 434 L 498 436 L 498 440 L 499 441 L 499 445 L 502 453 L 503 463 L 501 465 L 499 463 L 496 465 L 497 468 L 496 471 L 497 473 L 497 477 L 496 478 L 496 482 L 495 483 L 493 494 L 491 497 L 490 501 L 487 505 L 487 507 L 480 519 L 478 525 L 478 527 L 481 531 L 484 531 L 488 528 L 491 530 L 488 544 L 487 545 L 487 549 L 484 554 L 485 562 L 486 563 L 493 563 L 498 556 L 498 554 L 502 547 L 502 542 L 501 541 L 502 523 L 506 515 L 516 507 L 524 507 L 535 512 L 547 524 L 568 556 L 576 574 L 576 580 L 574 582 L 565 581 L 563 583 L 563 587 L 566 591 L 572 593 L 574 596 L 572 598 L 564 599 L 563 600 L 558 600 L 555 602 L 551 603 L 550 605 L 544 605 L 542 603 L 537 603 L 535 601 L 534 587 L 533 586 L 529 586 L 508 606 L 494 616 L 492 616 L 490 618 L 484 620 L 477 624 L 470 624 L 468 627 L 461 627 L 449 621 L 447 622 L 436 621 L 428 616 L 425 613 L 419 610 L 401 591 L 400 585 L 404 580 L 404 573 L 400 570 L 393 571 L 390 574 L 385 575 L 382 577 L 355 577 L 354 576 L 342 575 L 338 573 L 334 573 L 331 571 L 327 571 L 322 568 L 318 568 L 314 566 L 310 566 L 307 568 L 308 573 L 314 578 L 313 580 L 302 587 L 300 587 L 297 589 L 293 589 L 289 591 L 282 600 L 277 596 L 275 596 L 268 606 L 257 616 L 255 615 L 249 615 L 247 617 L 247 620 L 245 622 L 243 622 L 237 625 L 231 630 L 230 634 L 224 642 L 223 647 L 219 653 L 214 658 L 212 662 L 203 671 L 201 672 L 192 672 L 190 670 L 190 661 L 188 659 L 187 655 L 175 645 L 168 637 L 167 633 L 158 624 L 154 622 L 150 618 L 150 612 L 152 607 L 152 603 L 150 601 L 143 601 L 141 603 L 137 604 L 135 602 L 134 599 L 134 594 L 130 588 L 128 588 L 125 590 L 118 590 L 116 588 L 116 586 L 121 581 L 125 579 L 129 579 L 133 581 L 136 581 L 137 582 L 140 582 L 146 584 L 170 597 L 171 596 L 171 591 L 170 589 L 160 580 L 160 578 L 166 568 L 172 561 L 176 553 L 185 540 L 184 538 L 181 537 L 181 535 L 185 531 L 196 527 L 199 524 L 196 520 L 199 517 L 209 515 L 215 508 L 219 506 L 224 506 L 225 505 L 248 505 L 257 512 L 258 514 L 270 525 L 275 528 L 283 535 L 285 536 L 286 535 L 284 533 L 284 531 L 280 527 L 270 521 L 265 516 L 261 514 L 256 509 L 251 506 L 244 498 L 241 496 L 238 496 L 233 494 L 228 494 L 225 491 L 224 486 L 222 483 L 225 464 L 224 463 L 222 464 L 218 469 L 216 467 L 216 460 L 217 459 L 218 453 L 222 445 L 222 441 L 220 440 L 216 443 L 214 441 L 214 438 L 217 431 L 225 419 L 225 415 L 224 414 L 218 416 L 216 413 L 229 396 L 228 393 L 224 394 L 222 391 L 231 378 L 232 370 L 234 369 L 235 371 L 237 372 L 242 367 L 246 357 L 244 356 L 236 364 L 234 364 L 231 360 L 232 355 L 236 347 L 235 340 L 241 326 L 241 324 L 238 322 L 238 320 L 245 313 L 244 312 L 241 312 L 238 315 L 237 322 L 234 325 L 229 335 L 227 337 L 223 350 L 221 353 L 221 355 L 219 357 L 216 357 L 214 355 L 214 351 L 209 348 L 203 348 L 202 347 L 195 346 L 194 344 L 196 342 L 196 340 L 194 338 L 168 330 L 166 327 L 168 325 L 171 325 L 172 322 L 168 318 L 166 318 L 156 313 L 154 313 L 146 309 L 141 305 L 143 303 L 148 303 L 150 300 L 140 291 L 131 285 L 115 269 L 106 256 L 100 244 L 100 242 L 97 237 L 94 228 L 71 210 L 60 198 L 55 188 L 55 183 L 59 178 L 61 177 L 68 177 L 70 174 L 72 174 L 74 176 L 77 177 L 82 177 L 86 173 L 86 167 L 85 165 L 77 157 L 74 155 L 68 154 L 66 156 L 65 161 L 63 162 L 61 159 L 61 153 L 65 148 L 67 147 L 72 147 L 78 150 L 87 159 L 91 156 L 95 158 L 100 158 L 103 156 L 104 154 L 104 147 L 99 138 L 95 133 L 91 131 L 88 131 L 85 134 L 85 136 L 83 138 L 81 137 L 81 130 L 83 126 L 87 123 L 91 123 L 95 125 L 103 132 L 109 143 L 111 149 L 113 149 L 115 147 L 119 151 L 124 153 L 127 153 L 130 151 L 131 142 L 127 131 L 121 126 L 117 126 L 116 127 L 114 125 L 114 123 L 118 119 L 123 119 L 128 123 L 132 129 L 132 131 L 135 137 L 136 143 L 138 146 L 140 146 L 149 136 L 154 136 L 156 137 L 161 142 L 163 147 L 163 160 L 162 161 L 161 171 L 159 175 L 159 181 L 160 183 L 169 192 L 181 207 L 183 211 L 188 216 L 191 212 L 193 212 L 195 214 L 202 228 L 209 237 L 211 237 L 212 231 L 214 229 L 216 229 L 218 231 L 223 242 L 223 244 L 226 248 L 231 244 L 234 247 L 239 257 L 241 259 L 243 258 L 243 254 L 246 253 L 253 261 L 257 270 L 260 273 L 263 273 L 265 270 L 265 264 L 259 254 L 253 246 L 243 238 L 242 234 L 240 232 L 236 235 L 233 232 L 231 228 L 231 213 L 229 212 L 225 215 L 222 212 L 222 206 L 224 202 L 224 199 L 226 193 L 225 192 L 219 193 L 218 190 L 225 174 L 223 172 L 218 174 L 216 172 L 216 169 L 219 165 L 227 158 L 226 147 L 236 127 L 236 125 L 234 123 L 228 121 L 220 114 L 215 104 L 215 93 L 220 80 L 231 70 L 243 66 L 253 66 L 260 69 L 270 80 L 272 80 L 275 77 L 285 72 L 287 70 L 293 68 L 296 68 L 297 65 L 300 62 L 304 62 L 305 61 L 316 62 L 319 60 L 319 57 L 317 52 L 319 50 L 326 51 L 335 57 L 338 57 L 344 50 L 349 47 L 351 47 L 353 49 L 353 51 L 351 54 L 351 57 L 352 58 L 356 58 L 357 57 L 375 57 L 376 58 L 381 58 L 382 59 L 389 60 L 399 64 L 402 56 L 412 46 L 418 43 L 425 42 L 426 41 L 432 41 L 433 42 L 437 42 Z M 445 34 L 438 33 L 437 32 L 423 32 L 422 33 L 415 34 L 406 38 L 402 41 L 392 52 L 388 50 L 379 49 L 378 48 L 364 48 L 361 45 L 361 43 L 356 38 L 348 38 L 340 42 L 336 46 L 334 46 L 326 41 L 319 40 L 313 42 L 310 45 L 309 47 L 309 51 L 307 53 L 301 53 L 300 54 L 294 55 L 289 59 L 278 64 L 275 67 L 273 67 L 264 60 L 262 60 L 256 57 L 251 57 L 250 56 L 238 57 L 229 60 L 219 66 L 210 78 L 205 91 L 205 105 L 208 114 L 215 124 L 223 131 L 223 134 L 217 144 L 217 147 L 216 148 L 216 157 L 208 165 L 206 169 L 206 175 L 211 181 L 211 185 L 209 188 L 209 197 L 214 204 L 213 207 L 214 216 L 210 219 L 205 215 L 200 205 L 195 200 L 189 200 L 184 195 L 176 184 L 169 177 L 169 174 L 172 165 L 173 149 L 172 148 L 171 140 L 166 132 L 162 128 L 157 126 L 150 126 L 149 127 L 142 128 L 140 126 L 135 116 L 127 110 L 124 109 L 114 110 L 104 119 L 94 114 L 85 114 L 82 115 L 74 122 L 72 126 L 71 136 L 69 138 L 62 138 L 60 139 L 53 147 L 51 153 L 51 160 L 54 169 L 49 173 L 46 178 L 45 188 L 46 189 L 47 195 L 54 207 L 73 226 L 83 232 L 86 235 L 88 244 L 101 268 L 111 281 L 123 293 L 130 298 L 130 306 L 135 313 L 145 320 L 151 322 L 155 326 L 155 329 L 157 333 L 160 336 L 167 340 L 178 343 L 180 345 L 181 348 L 185 352 L 197 356 L 205 363 L 209 364 L 219 369 L 221 371 L 220 376 L 215 384 L 214 390 L 213 391 L 213 397 L 214 400 L 210 405 L 207 411 L 207 419 L 210 423 L 210 425 L 207 429 L 207 431 L 204 437 L 204 447 L 208 453 L 208 456 L 207 457 L 207 475 L 210 481 L 211 489 L 212 490 L 212 493 L 210 498 L 206 502 L 193 509 L 185 517 L 185 518 L 173 529 L 171 534 L 171 541 L 169 543 L 168 546 L 162 552 L 155 565 L 153 567 L 151 572 L 149 574 L 145 574 L 137 570 L 118 570 L 117 571 L 110 572 L 103 578 L 98 591 L 98 596 L 97 597 L 97 606 L 98 607 L 99 613 L 108 629 L 118 641 L 138 658 L 156 670 L 163 673 L 165 675 L 169 676 L 175 680 L 184 683 L 187 683 L 188 684 L 201 684 L 210 681 L 223 669 L 228 661 L 236 653 L 237 653 L 260 629 L 269 623 L 273 619 L 274 616 L 276 614 L 287 609 L 298 600 L 314 594 L 329 582 L 333 582 L 337 584 L 341 584 L 342 585 L 350 586 L 351 587 L 357 587 L 358 588 L 386 588 L 391 594 L 396 603 L 407 614 L 419 624 L 427 629 L 438 634 L 446 635 L 447 636 L 457 636 L 458 637 L 470 637 L 471 636 L 478 635 L 487 631 L 489 631 L 499 626 L 520 609 L 523 609 L 531 613 L 537 615 L 540 615 L 541 616 L 545 616 L 546 617 L 556 617 L 557 618 L 559 617 L 563 617 L 569 614 L 571 614 L 578 610 L 583 606 L 589 598 L 590 590 L 591 589 L 591 582 L 590 581 L 589 573 L 584 562 L 584 560 L 568 532 L 553 512 L 543 502 L 532 496 L 529 496 L 524 494 L 515 494 L 508 497 L 506 499 L 503 497 L 509 482 L 516 474 L 519 466 L 519 463 L 520 462 L 520 448 L 519 447 L 519 442 L 512 427 L 506 418 L 506 412 L 507 411 L 506 409 L 506 404 L 501 393 L 497 387 L 497 383 L 490 366 L 489 358 L 488 357 L 488 351 L 487 350 L 487 344 L 486 343 L 486 337 L 481 322 L 482 308 L 479 302 L 473 294 L 473 288 L 471 284 L 460 273 L 458 267 L 454 263 L 454 260 L 458 257 L 462 249 L 469 240 L 473 230 L 478 225 L 480 221 L 481 211 L 487 205 L 489 201 L 489 189 L 488 188 L 488 183 L 492 178 L 492 171 L 489 164 L 486 160 L 486 157 L 489 152 L 488 145 L 485 141 L 477 135 L 474 126 L 472 124 L 466 112 L 460 104 L 460 102 L 468 92 L 472 82 L 473 71 L 472 70 L 471 61 L 465 49 L 457 41 Z M 448 36 L 456 41 L 465 50 L 470 59 L 472 65 L 472 73 L 473 74 L 472 76 L 472 81 L 467 93 L 460 101 L 460 105 L 473 125 L 476 131 L 477 136 L 483 140 L 488 146 L 489 151 L 485 158 L 485 160 L 490 166 L 490 168 L 492 171 L 492 177 L 490 181 L 487 184 L 489 190 L 489 200 L 488 203 L 481 210 L 481 215 L 480 216 L 479 223 L 473 229 L 468 241 L 465 244 L 458 256 L 453 260 L 453 262 L 458 268 L 462 276 L 471 285 L 473 289 L 473 295 L 482 308 L 481 323 L 485 334 L 486 345 L 487 346 L 487 351 L 488 352 L 488 358 L 489 359 L 490 367 L 496 381 L 496 386 L 503 397 L 506 404 L 506 419 L 516 435 L 519 443 L 519 449 L 520 450 L 519 465 L 516 473 L 508 482 L 508 485 L 505 490 L 503 496 L 503 499 L 505 500 L 513 495 L 517 495 L 518 494 L 528 495 L 541 501 L 555 515 L 562 524 L 563 527 L 566 530 L 571 539 L 575 544 L 586 566 L 586 568 L 589 574 L 590 584 L 591 585 L 589 597 L 586 602 L 580 608 L 572 613 L 562 617 L 549 617 L 548 616 L 538 615 L 529 612 L 522 608 L 520 608 L 517 610 L 513 615 L 501 624 L 491 630 L 470 637 L 460 637 L 459 636 L 450 636 L 449 635 L 439 634 L 426 628 L 409 615 L 394 600 L 388 589 L 385 587 L 379 587 L 378 588 L 360 588 L 359 587 L 346 586 L 341 584 L 337 584 L 333 582 L 328 582 L 313 594 L 304 597 L 301 599 L 299 599 L 285 610 L 278 612 L 267 624 L 258 630 L 248 640 L 248 641 L 228 660 L 218 674 L 211 680 L 200 684 L 190 684 L 189 683 L 185 683 L 176 680 L 155 669 L 152 666 L 143 661 L 140 658 L 137 657 L 126 648 L 114 636 L 106 626 L 100 615 L 97 606 L 97 598 L 98 597 L 98 592 L 102 583 L 102 581 L 109 573 L 115 571 L 118 571 L 119 570 L 135 570 L 146 575 L 148 575 L 152 571 L 156 562 L 161 554 L 171 542 L 171 536 L 173 530 L 185 519 L 187 515 L 191 511 L 210 500 L 211 494 L 212 493 L 212 488 L 207 474 L 207 458 L 208 457 L 208 452 L 204 446 L 204 438 L 206 432 L 210 426 L 210 422 L 207 418 L 207 412 L 209 407 L 214 400 L 213 392 L 214 391 L 215 385 L 220 377 L 221 370 L 212 365 L 206 363 L 198 356 L 187 353 L 182 349 L 179 343 L 168 340 L 162 337 L 156 331 L 155 325 L 152 322 L 150 322 L 144 319 L 132 309 L 130 305 L 130 298 L 109 278 L 97 261 L 92 250 L 90 248 L 86 235 L 82 231 L 78 229 L 67 220 L 58 211 L 51 202 L 46 191 L 46 179 L 48 175 L 54 170 L 54 167 L 51 159 L 52 150 L 54 146 L 61 139 L 64 138 L 71 139 L 72 138 L 72 127 L 76 120 L 81 116 L 86 114 L 92 114 L 104 120 L 107 116 L 113 111 L 116 110 L 125 110 L 128 111 L 136 118 L 141 128 L 143 130 L 148 127 L 159 127 L 168 135 L 172 144 L 172 150 L 173 151 L 172 154 L 172 165 L 169 174 L 169 178 L 177 186 L 188 201 L 194 200 L 200 206 L 205 216 L 208 219 L 212 219 L 214 217 L 214 212 L 213 211 L 214 203 L 209 196 L 209 189 L 212 183 L 212 181 L 207 176 L 206 174 L 206 170 L 209 164 L 213 161 L 217 156 L 217 153 L 216 152 L 217 145 L 222 137 L 224 131 L 213 121 L 207 111 L 206 105 L 205 104 L 205 92 L 206 91 L 207 85 L 211 77 L 219 67 L 231 60 L 237 58 L 241 58 L 242 57 L 252 57 L 253 58 L 257 58 L 266 62 L 272 67 L 276 67 L 278 65 L 287 61 L 296 55 L 299 55 L 300 54 L 308 54 L 309 53 L 309 48 L 310 46 L 314 42 L 317 41 L 324 41 L 327 42 L 334 47 L 336 47 L 344 40 L 350 38 L 354 38 L 361 44 L 361 46 L 363 49 L 373 48 L 374 49 L 380 49 L 381 50 L 385 50 L 386 51 L 393 52 L 402 42 L 406 39 L 417 34 L 433 32 L 434 33 L 439 33 Z" fill="#B1B1B1" fill-rule="evenodd"/><path d="M 149 603 L 146 603 L 141 609 L 141 615 L 144 618 L 147 618 L 148 617 L 148 614 L 149 613 L 149 610 L 150 609 L 150 604 Z M 115 593 L 111 598 L 111 603 L 114 610 L 118 614 L 119 614 L 121 612 L 120 599 L 119 598 L 119 595 L 117 593 Z M 129 590 L 125 592 L 122 595 L 122 599 L 123 600 L 123 602 L 125 606 L 128 609 L 130 609 L 132 607 L 132 605 L 133 604 L 133 596 L 132 595 L 132 593 Z M 260 163 L 259 165 L 259 168 L 258 169 L 258 180 L 261 186 L 266 191 L 275 196 L 277 196 L 279 198 L 281 210 L 288 224 L 293 230 L 293 231 L 298 236 L 298 237 L 308 246 L 309 246 L 311 248 L 314 248 L 314 246 L 307 238 L 306 234 L 305 233 L 305 228 L 308 222 L 310 220 L 310 219 L 319 211 L 328 206 L 330 206 L 334 204 L 341 204 L 342 205 L 347 206 L 349 207 L 355 213 L 356 215 L 356 223 L 355 224 L 355 227 L 352 232 L 352 234 L 350 236 L 350 238 L 349 239 L 350 240 L 354 236 L 356 232 L 356 230 L 358 227 L 359 222 L 360 221 L 361 213 L 362 212 L 362 207 L 363 206 L 363 181 L 362 180 L 362 176 L 361 175 L 361 173 L 358 170 L 356 171 L 354 175 L 348 181 L 339 186 L 337 186 L 331 189 L 328 189 L 327 190 L 314 190 L 313 189 L 304 188 L 303 187 L 300 187 L 299 186 L 292 186 L 285 191 L 283 191 L 282 192 L 276 192 L 270 189 L 265 184 L 263 180 L 263 176 L 262 175 L 262 173 L 263 172 L 263 165 L 264 163 L 262 161 Z M 269 156 L 269 159 L 272 166 L 278 172 L 286 176 L 294 176 L 295 175 L 298 175 L 310 169 L 315 164 L 318 158 L 318 155 L 314 150 L 306 146 L 302 146 L 301 145 L 287 145 L 286 146 L 283 146 L 273 151 Z M 277 124 L 274 124 L 272 125 L 270 127 L 268 131 L 268 133 L 267 134 L 267 144 L 269 146 L 274 146 L 280 139 L 280 136 L 281 135 L 281 130 L 280 129 L 280 127 Z M 358 118 L 356 119 L 353 123 L 352 129 L 351 130 L 351 135 L 352 136 L 352 139 L 355 143 L 357 144 L 362 144 L 366 140 L 368 130 L 367 129 L 366 123 L 362 119 Z M 286 87 L 285 86 L 280 86 L 275 89 L 270 94 L 270 98 L 273 98 L 279 93 L 284 91 L 286 89 Z M 357 78 L 357 81 L 358 82 L 370 85 L 372 87 L 375 87 L 376 86 L 375 82 L 370 78 L 368 78 L 364 76 L 361 76 Z M 448 37 L 446 37 L 443 35 L 440 35 L 439 34 L 434 34 L 433 33 L 428 33 L 427 34 L 421 34 L 420 35 L 417 35 L 406 40 L 403 43 L 402 43 L 393 53 L 391 53 L 390 52 L 386 52 L 385 51 L 381 51 L 380 50 L 374 50 L 373 49 L 367 49 L 366 50 L 363 50 L 361 48 L 360 44 L 354 39 L 346 40 L 341 43 L 336 48 L 334 48 L 332 46 L 324 42 L 317 42 L 316 43 L 314 43 L 311 46 L 310 48 L 310 53 L 308 55 L 300 55 L 299 56 L 296 56 L 292 59 L 289 60 L 287 62 L 278 66 L 276 68 L 272 68 L 266 63 L 260 60 L 258 60 L 257 59 L 253 59 L 252 58 L 242 58 L 241 59 L 237 59 L 236 60 L 231 61 L 223 65 L 220 68 L 219 68 L 212 77 L 208 85 L 207 91 L 206 92 L 206 104 L 207 105 L 208 111 L 214 121 L 225 131 L 225 133 L 218 145 L 218 148 L 217 149 L 218 156 L 217 158 L 210 164 L 207 170 L 207 174 L 208 176 L 213 181 L 213 183 L 210 189 L 210 196 L 215 203 L 215 208 L 214 209 L 214 211 L 215 212 L 215 217 L 212 220 L 208 220 L 204 216 L 201 209 L 194 201 L 188 202 L 186 200 L 184 196 L 176 187 L 176 186 L 168 178 L 168 174 L 169 173 L 169 170 L 170 169 L 170 166 L 171 165 L 171 154 L 172 153 L 172 151 L 171 150 L 171 144 L 167 135 L 161 129 L 159 128 L 148 128 L 143 131 L 140 128 L 135 118 L 128 112 L 126 112 L 125 111 L 116 111 L 115 112 L 113 112 L 110 115 L 109 115 L 104 121 L 92 115 L 86 115 L 85 116 L 81 117 L 77 120 L 73 127 L 73 138 L 71 140 L 68 140 L 67 139 L 61 140 L 55 146 L 53 150 L 53 153 L 52 154 L 52 159 L 53 160 L 53 163 L 55 167 L 55 170 L 49 175 L 47 179 L 47 191 L 52 202 L 59 210 L 59 211 L 67 219 L 68 219 L 78 228 L 82 230 L 87 235 L 89 243 L 91 246 L 91 248 L 93 250 L 98 261 L 100 263 L 104 270 L 110 277 L 110 278 L 131 298 L 131 305 L 133 309 L 137 313 L 138 313 L 144 318 L 150 321 L 152 321 L 156 325 L 157 331 L 162 336 L 168 339 L 179 342 L 181 344 L 183 349 L 187 352 L 198 355 L 206 362 L 210 364 L 212 364 L 220 368 L 222 370 L 222 374 L 221 375 L 221 377 L 216 385 L 215 391 L 214 392 L 215 400 L 210 407 L 209 411 L 208 412 L 208 418 L 211 422 L 211 426 L 209 428 L 207 432 L 206 437 L 205 438 L 205 446 L 207 450 L 209 452 L 209 457 L 208 458 L 208 474 L 209 475 L 209 477 L 212 484 L 212 487 L 213 488 L 213 493 L 212 494 L 211 500 L 209 502 L 195 509 L 192 512 L 191 512 L 188 515 L 186 519 L 174 530 L 173 532 L 173 535 L 172 536 L 172 542 L 162 554 L 159 560 L 157 562 L 153 571 L 148 576 L 146 576 L 143 574 L 141 574 L 135 571 L 119 571 L 118 572 L 115 572 L 114 573 L 109 574 L 103 581 L 103 583 L 101 586 L 101 588 L 99 592 L 99 597 L 98 598 L 98 606 L 99 607 L 101 615 L 104 621 L 106 623 L 107 626 L 111 630 L 111 631 L 115 635 L 115 636 L 126 647 L 127 647 L 137 656 L 140 657 L 143 660 L 146 661 L 155 668 L 176 679 L 178 679 L 181 681 L 184 681 L 185 682 L 189 682 L 190 683 L 200 683 L 201 682 L 204 682 L 211 679 L 217 674 L 217 673 L 222 668 L 227 660 L 236 651 L 237 651 L 258 629 L 259 629 L 263 625 L 267 623 L 278 611 L 285 609 L 299 598 L 301 598 L 304 596 L 306 596 L 313 593 L 315 591 L 319 589 L 328 581 L 333 581 L 337 583 L 341 583 L 342 584 L 345 584 L 346 585 L 351 585 L 352 586 L 359 586 L 360 587 L 378 587 L 379 586 L 385 586 L 389 589 L 395 600 L 409 614 L 410 614 L 420 623 L 421 623 L 426 627 L 439 633 L 442 633 L 443 634 L 449 634 L 450 635 L 459 635 L 460 636 L 470 636 L 471 635 L 478 634 L 484 631 L 486 631 L 489 629 L 491 629 L 501 623 L 504 620 L 505 620 L 508 617 L 513 614 L 515 612 L 515 611 L 520 607 L 522 607 L 529 611 L 531 611 L 534 613 L 537 613 L 538 614 L 548 615 L 549 616 L 562 616 L 568 613 L 570 613 L 580 607 L 585 602 L 588 597 L 590 585 L 589 584 L 588 574 L 585 568 L 585 566 L 574 544 L 570 539 L 569 536 L 567 534 L 565 530 L 562 527 L 561 524 L 554 516 L 554 515 L 541 502 L 536 499 L 534 499 L 528 496 L 525 496 L 524 495 L 513 496 L 507 499 L 505 501 L 504 501 L 502 499 L 502 496 L 503 495 L 504 490 L 507 485 L 507 482 L 515 473 L 517 466 L 518 465 L 518 460 L 519 459 L 519 450 L 518 449 L 518 443 L 517 442 L 515 435 L 513 433 L 510 426 L 505 419 L 505 404 L 502 397 L 500 395 L 499 392 L 497 390 L 495 386 L 495 381 L 489 367 L 488 359 L 487 358 L 486 346 L 485 345 L 484 334 L 483 333 L 483 330 L 480 323 L 481 308 L 479 304 L 472 295 L 472 289 L 470 285 L 461 276 L 457 268 L 452 262 L 452 260 L 457 256 L 460 250 L 467 241 L 472 229 L 478 223 L 478 221 L 479 220 L 479 216 L 480 215 L 480 210 L 487 203 L 487 201 L 488 200 L 488 190 L 487 189 L 486 184 L 489 181 L 491 177 L 491 171 L 489 168 L 489 166 L 484 160 L 484 158 L 487 154 L 487 152 L 488 151 L 487 146 L 483 141 L 479 139 L 476 136 L 475 131 L 472 125 L 468 120 L 466 115 L 459 105 L 459 101 L 466 93 L 471 81 L 471 76 L 472 75 L 471 73 L 471 65 L 470 64 L 469 59 L 464 50 L 456 42 L 450 39 Z M 442 42 L 449 46 L 457 54 L 457 55 L 460 58 L 463 65 L 464 76 L 463 77 L 462 83 L 458 90 L 450 98 L 448 99 L 448 102 L 452 106 L 455 112 L 457 114 L 461 123 L 468 132 L 465 137 L 467 139 L 475 143 L 479 148 L 479 151 L 477 153 L 469 153 L 468 154 L 480 166 L 483 172 L 483 176 L 481 178 L 477 176 L 474 176 L 474 178 L 480 190 L 480 194 L 481 195 L 481 197 L 478 201 L 473 197 L 472 198 L 472 203 L 473 204 L 473 214 L 472 215 L 472 218 L 469 221 L 466 218 L 465 219 L 463 230 L 458 240 L 453 246 L 453 247 L 449 251 L 432 262 L 433 264 L 436 264 L 437 265 L 440 265 L 442 266 L 444 268 L 444 269 L 441 272 L 451 277 L 458 283 L 458 284 L 456 286 L 454 286 L 453 287 L 460 293 L 460 294 L 469 304 L 471 309 L 469 311 L 462 306 L 460 306 L 461 309 L 466 315 L 473 328 L 473 330 L 475 334 L 475 337 L 476 338 L 476 342 L 477 343 L 477 347 L 474 350 L 475 356 L 476 357 L 476 361 L 477 362 L 477 371 L 476 372 L 475 379 L 471 387 L 462 397 L 460 397 L 457 394 L 457 391 L 456 390 L 452 399 L 450 401 L 449 401 L 443 408 L 431 414 L 430 414 L 428 412 L 429 406 L 430 405 L 430 403 L 429 402 L 425 405 L 421 406 L 419 408 L 414 409 L 406 413 L 402 416 L 401 416 L 399 414 L 399 410 L 397 410 L 385 416 L 383 416 L 381 418 L 379 418 L 376 420 L 373 420 L 371 418 L 371 415 L 373 412 L 372 410 L 362 415 L 359 418 L 352 422 L 349 422 L 347 420 L 347 418 L 346 417 L 335 417 L 334 418 L 331 418 L 330 419 L 327 419 L 326 420 L 320 420 L 319 421 L 297 421 L 296 420 L 291 420 L 288 418 L 286 418 L 280 412 L 280 407 L 281 405 L 287 399 L 286 398 L 283 398 L 278 401 L 276 401 L 275 400 L 271 399 L 266 393 L 266 388 L 273 381 L 280 377 L 280 375 L 273 375 L 272 374 L 270 374 L 267 371 L 267 368 L 269 364 L 276 358 L 283 356 L 284 355 L 287 355 L 290 353 L 283 348 L 284 344 L 289 339 L 291 339 L 295 337 L 320 337 L 327 334 L 335 333 L 336 332 L 341 332 L 342 331 L 352 331 L 353 330 L 386 330 L 387 329 L 396 329 L 397 328 L 397 327 L 394 325 L 386 323 L 384 321 L 384 319 L 382 317 L 378 317 L 373 322 L 366 322 L 365 321 L 351 321 L 350 322 L 341 322 L 340 323 L 335 323 L 334 324 L 331 324 L 317 330 L 292 330 L 291 331 L 289 331 L 282 334 L 276 339 L 273 347 L 263 357 L 260 362 L 260 364 L 259 365 L 259 395 L 260 396 L 260 399 L 263 405 L 269 411 L 272 416 L 279 423 L 291 429 L 294 429 L 295 430 L 300 430 L 301 431 L 318 431 L 319 430 L 323 430 L 324 429 L 328 429 L 329 428 L 334 428 L 337 430 L 339 430 L 343 432 L 357 432 L 358 431 L 361 431 L 365 429 L 390 428 L 391 427 L 396 427 L 397 426 L 409 426 L 410 425 L 414 425 L 415 424 L 419 424 L 420 423 L 436 422 L 446 417 L 459 415 L 464 412 L 472 404 L 472 403 L 478 395 L 480 390 L 484 386 L 493 396 L 497 403 L 497 406 L 495 408 L 491 407 L 490 409 L 494 414 L 495 417 L 500 423 L 500 425 L 502 427 L 503 431 L 504 432 L 504 436 L 500 439 L 500 443 L 503 450 L 504 458 L 505 459 L 505 466 L 503 468 L 502 468 L 500 466 L 498 467 L 498 482 L 497 483 L 497 486 L 495 490 L 495 493 L 494 494 L 493 499 L 486 513 L 484 515 L 481 521 L 481 527 L 482 528 L 484 528 L 486 526 L 490 524 L 492 526 L 492 534 L 491 535 L 491 539 L 490 540 L 490 545 L 489 546 L 489 549 L 490 550 L 492 550 L 494 552 L 494 555 L 495 555 L 496 553 L 496 550 L 499 546 L 499 539 L 500 538 L 500 526 L 501 525 L 501 521 L 504 515 L 512 507 L 516 505 L 523 505 L 524 506 L 526 506 L 533 509 L 535 511 L 536 511 L 549 524 L 549 525 L 561 542 L 568 555 L 570 557 L 576 569 L 576 571 L 578 575 L 578 582 L 576 584 L 566 583 L 565 584 L 565 586 L 568 590 L 574 591 L 575 592 L 578 592 L 579 593 L 579 595 L 574 600 L 571 600 L 570 601 L 565 601 L 564 602 L 559 602 L 558 604 L 562 607 L 560 609 L 553 609 L 552 608 L 545 608 L 544 607 L 541 607 L 531 602 L 528 599 L 528 596 L 531 591 L 529 590 L 527 592 L 524 593 L 508 608 L 507 608 L 504 611 L 503 611 L 492 619 L 490 619 L 470 629 L 462 629 L 461 628 L 455 627 L 454 626 L 452 627 L 447 627 L 446 626 L 442 626 L 441 625 L 436 624 L 431 621 L 428 618 L 421 614 L 418 611 L 417 611 L 398 591 L 396 584 L 402 578 L 402 575 L 400 573 L 394 574 L 393 575 L 388 576 L 385 578 L 380 578 L 379 579 L 358 579 L 357 578 L 350 578 L 349 577 L 344 577 L 343 576 L 334 575 L 331 573 L 328 573 L 327 572 L 325 572 L 321 570 L 318 570 L 317 569 L 311 569 L 310 570 L 311 573 L 318 578 L 318 579 L 314 583 L 298 591 L 294 591 L 291 594 L 290 594 L 282 603 L 280 603 L 276 599 L 275 599 L 271 604 L 271 605 L 266 610 L 266 611 L 263 614 L 258 617 L 252 624 L 247 627 L 242 633 L 242 634 L 235 641 L 230 641 L 226 644 L 222 652 L 218 656 L 218 657 L 211 665 L 211 666 L 205 672 L 201 674 L 190 674 L 188 672 L 188 662 L 185 657 L 175 647 L 174 647 L 158 630 L 157 630 L 154 627 L 144 622 L 139 621 L 137 619 L 133 619 L 132 618 L 125 618 L 121 620 L 118 623 L 115 623 L 112 620 L 112 618 L 109 613 L 109 610 L 108 609 L 108 604 L 107 603 L 107 598 L 108 597 L 108 594 L 111 591 L 114 585 L 117 582 L 126 577 L 147 583 L 152 586 L 154 586 L 159 590 L 169 595 L 170 594 L 169 590 L 161 582 L 159 581 L 158 578 L 160 576 L 164 569 L 167 566 L 167 565 L 173 557 L 174 554 L 178 549 L 179 546 L 183 541 L 182 540 L 180 540 L 178 538 L 179 535 L 183 531 L 191 527 L 195 526 L 196 524 L 194 522 L 194 520 L 198 516 L 200 516 L 201 515 L 206 515 L 208 514 L 209 512 L 216 506 L 222 505 L 223 504 L 235 504 L 236 503 L 244 503 L 244 500 L 239 497 L 236 497 L 235 496 L 229 496 L 228 495 L 226 495 L 222 491 L 221 489 L 221 476 L 222 475 L 222 470 L 223 468 L 222 467 L 218 471 L 217 471 L 215 469 L 215 459 L 216 458 L 216 455 L 220 447 L 221 443 L 220 442 L 216 445 L 215 445 L 213 443 L 213 437 L 224 418 L 223 416 L 221 417 L 217 417 L 215 415 L 215 413 L 217 409 L 227 397 L 226 395 L 223 395 L 221 393 L 221 390 L 225 385 L 229 378 L 229 374 L 230 373 L 230 370 L 231 369 L 230 358 L 235 346 L 234 340 L 235 339 L 236 334 L 239 329 L 239 326 L 237 325 L 233 329 L 230 335 L 228 343 L 225 348 L 223 356 L 220 359 L 217 359 L 216 358 L 213 358 L 210 355 L 212 353 L 211 351 L 209 351 L 205 349 L 199 349 L 198 348 L 195 348 L 193 347 L 191 345 L 191 343 L 193 341 L 192 339 L 190 338 L 187 338 L 186 337 L 183 337 L 182 336 L 180 336 L 179 335 L 177 335 L 176 334 L 174 334 L 167 331 L 164 328 L 164 327 L 169 323 L 169 322 L 167 320 L 163 318 L 161 318 L 158 316 L 156 316 L 144 310 L 139 305 L 139 303 L 141 301 L 145 301 L 146 299 L 139 293 L 134 290 L 129 285 L 128 285 L 116 273 L 116 272 L 112 268 L 112 267 L 106 259 L 103 252 L 101 250 L 101 248 L 97 241 L 97 239 L 96 238 L 96 236 L 93 229 L 90 226 L 87 225 L 83 221 L 82 221 L 78 217 L 77 217 L 70 210 L 69 210 L 60 200 L 57 194 L 55 192 L 55 190 L 54 189 L 54 182 L 55 180 L 60 176 L 66 176 L 67 175 L 60 160 L 60 152 L 61 150 L 66 146 L 73 146 L 79 149 L 86 156 L 87 156 L 82 146 L 82 144 L 80 140 L 80 129 L 81 127 L 87 122 L 92 122 L 99 126 L 104 131 L 111 144 L 112 144 L 112 125 L 114 121 L 117 118 L 124 118 L 131 125 L 134 130 L 138 144 L 140 144 L 147 136 L 149 135 L 156 135 L 161 140 L 164 145 L 164 162 L 163 163 L 163 169 L 160 176 L 160 180 L 161 182 L 169 190 L 169 191 L 179 202 L 184 210 L 187 213 L 189 213 L 189 212 L 191 210 L 193 210 L 195 212 L 203 227 L 209 235 L 211 232 L 211 229 L 213 227 L 217 228 L 219 230 L 222 236 L 222 238 L 224 241 L 225 245 L 227 245 L 227 244 L 229 242 L 231 242 L 235 246 L 239 254 L 241 256 L 242 255 L 242 252 L 244 250 L 245 250 L 254 260 L 258 269 L 261 272 L 262 272 L 264 270 L 264 266 L 260 258 L 252 248 L 252 247 L 249 244 L 245 242 L 242 239 L 240 235 L 236 237 L 232 233 L 230 229 L 230 225 L 229 224 L 230 215 L 228 215 L 226 217 L 224 217 L 221 213 L 221 206 L 222 205 L 222 202 L 224 198 L 224 195 L 223 194 L 221 196 L 219 196 L 217 194 L 217 188 L 223 175 L 221 174 L 218 176 L 216 176 L 214 174 L 214 171 L 216 167 L 226 157 L 226 154 L 225 153 L 225 146 L 228 141 L 228 139 L 232 131 L 234 129 L 234 125 L 227 122 L 223 118 L 222 118 L 217 112 L 214 105 L 214 92 L 215 91 L 216 85 L 221 77 L 226 72 L 227 72 L 232 68 L 234 68 L 237 66 L 240 66 L 241 65 L 254 65 L 261 68 L 269 76 L 270 78 L 272 78 L 282 71 L 288 68 L 294 67 L 296 65 L 296 63 L 298 61 L 300 61 L 301 60 L 317 60 L 318 58 L 316 54 L 316 51 L 319 48 L 325 49 L 337 56 L 340 53 L 340 52 L 346 47 L 348 46 L 352 46 L 354 48 L 353 57 L 355 56 L 363 56 L 364 55 L 369 55 L 370 56 L 378 56 L 379 57 L 383 57 L 384 58 L 391 59 L 394 61 L 398 62 L 400 59 L 401 55 L 411 45 L 417 42 L 423 41 L 424 40 L 435 40 L 436 41 Z" fill="#010101" fill-rule="evenodd"/></svg>