<svg xmlns="http://www.w3.org/2000/svg" viewBox="0 0 653 704" shape-rendering="geometricPrecision"><title>intro frame 038</title><path d="M 455 437 L 451 434 L 450 435 L 447 435 L 450 439 Z M 430 402 L 429 407 L 424 410 L 422 410 L 419 413 L 419 419 L 421 422 L 431 426 L 436 426 L 437 424 L 435 422 L 435 420 L 433 418 L 433 415 L 432 414 L 432 410 L 436 408 L 436 405 L 433 402 Z M 67 181 L 65 181 L 63 183 L 62 186 L 62 189 L 64 190 L 64 186 L 68 182 Z M 273 167 L 273 170 L 272 171 L 272 179 L 276 186 L 281 189 L 289 189 L 294 186 L 295 184 L 292 181 L 289 181 L 282 177 L 278 173 L 275 168 Z M 85 158 L 92 166 L 93 169 L 92 175 L 91 177 L 86 181 L 79 181 L 77 180 L 77 181 L 86 189 L 86 192 L 87 193 L 90 187 L 90 185 L 92 183 L 94 178 L 100 172 L 100 171 L 108 164 L 117 160 L 127 160 L 134 163 L 143 171 L 148 181 L 148 191 L 146 193 L 145 196 L 136 205 L 115 216 L 112 216 L 111 217 L 100 217 L 99 216 L 96 216 L 90 211 L 84 203 L 80 205 L 75 203 L 70 199 L 68 199 L 81 213 L 99 227 L 107 241 L 118 252 L 127 264 L 147 281 L 156 290 L 175 300 L 181 302 L 190 303 L 193 306 L 193 309 L 189 312 L 189 314 L 201 314 L 205 319 L 211 320 L 212 321 L 222 321 L 225 320 L 227 322 L 227 325 L 219 332 L 221 334 L 224 335 L 235 335 L 237 333 L 238 329 L 241 324 L 241 320 L 243 316 L 243 313 L 246 309 L 247 301 L 255 291 L 255 286 L 259 281 L 261 275 L 261 273 L 259 271 L 259 269 L 256 263 L 252 258 L 251 258 L 251 261 L 249 263 L 246 263 L 240 257 L 240 255 L 236 247 L 232 253 L 226 248 L 226 246 L 224 244 L 222 235 L 220 232 L 218 232 L 218 238 L 216 241 L 213 241 L 205 232 L 202 225 L 200 223 L 200 221 L 197 217 L 197 215 L 196 215 L 195 218 L 193 220 L 190 219 L 185 214 L 180 205 L 173 198 L 172 195 L 161 182 L 161 177 L 163 174 L 163 171 L 164 170 L 164 160 L 163 160 L 163 162 L 161 164 L 160 167 L 155 172 L 149 172 L 143 166 L 143 164 L 141 161 L 141 159 L 144 154 L 144 151 L 142 151 L 140 149 L 140 146 L 138 145 L 139 146 L 139 150 L 137 154 L 134 157 L 127 157 L 121 153 L 117 155 L 114 153 L 112 153 L 111 157 L 106 162 L 103 163 L 96 163 L 94 165 L 93 165 L 87 158 Z M 202 302 L 208 297 L 213 299 L 215 301 L 215 303 L 212 306 L 205 306 Z M 203 272 L 205 278 L 203 283 L 202 292 L 200 294 L 198 291 L 197 291 L 196 293 L 194 291 L 194 289 L 197 287 L 199 284 L 198 282 L 199 274 L 201 272 Z M 91 128 L 91 130 L 97 130 L 100 131 L 100 130 L 96 127 L 92 127 Z M 124 123 L 124 124 L 127 125 L 132 129 L 131 126 L 126 122 Z M 438 46 L 430 46 L 418 51 L 411 58 L 409 65 L 406 68 L 403 68 L 402 67 L 399 67 L 395 65 L 387 64 L 382 62 L 379 63 L 377 61 L 366 61 L 365 62 L 357 63 L 355 61 L 355 55 L 356 54 L 355 53 L 345 61 L 340 61 L 336 58 L 330 55 L 328 55 L 328 62 L 325 65 L 321 65 L 320 66 L 313 66 L 310 65 L 304 72 L 300 72 L 291 75 L 280 85 L 277 85 L 267 74 L 265 74 L 260 70 L 247 70 L 239 74 L 237 74 L 232 78 L 226 87 L 224 93 L 224 98 L 223 99 L 224 103 L 223 105 L 226 111 L 226 113 L 233 120 L 235 120 L 238 122 L 241 122 L 244 125 L 244 128 L 242 131 L 242 133 L 235 147 L 235 158 L 232 163 L 227 167 L 224 171 L 224 172 L 231 171 L 233 173 L 232 179 L 228 184 L 228 186 L 226 189 L 227 192 L 230 190 L 233 190 L 235 192 L 235 195 L 231 203 L 230 212 L 231 213 L 234 211 L 237 211 L 240 214 L 240 225 L 239 227 L 240 228 L 240 232 L 241 234 L 243 234 L 243 232 L 245 230 L 247 230 L 250 233 L 251 239 L 254 242 L 256 242 L 269 256 L 272 256 L 281 260 L 287 264 L 293 272 L 293 276 L 291 278 L 288 278 L 285 275 L 279 272 L 275 272 L 266 281 L 265 283 L 265 287 L 260 291 L 262 294 L 262 297 L 253 307 L 255 310 L 255 313 L 249 319 L 250 325 L 244 339 L 245 345 L 239 357 L 242 358 L 245 355 L 251 352 L 256 352 L 258 354 L 258 358 L 248 369 L 234 379 L 230 385 L 230 387 L 234 390 L 234 393 L 230 399 L 220 410 L 220 412 L 227 411 L 229 413 L 228 420 L 221 428 L 216 437 L 217 439 L 221 437 L 223 437 L 225 439 L 224 447 L 222 449 L 218 466 L 219 466 L 226 458 L 228 458 L 230 460 L 230 463 L 227 472 L 227 476 L 226 477 L 226 481 L 225 482 L 225 487 L 226 487 L 226 485 L 230 481 L 233 482 L 234 484 L 234 500 L 236 503 L 236 505 L 238 507 L 238 509 L 239 510 L 243 510 L 245 509 L 248 513 L 251 514 L 255 518 L 257 517 L 267 518 L 267 501 L 268 500 L 267 496 L 268 493 L 271 490 L 274 490 L 276 492 L 276 495 L 275 496 L 275 513 L 279 521 L 279 524 L 284 528 L 287 528 L 290 524 L 291 525 L 294 521 L 296 521 L 301 517 L 312 512 L 314 510 L 316 510 L 322 505 L 328 502 L 332 498 L 337 497 L 339 495 L 354 490 L 359 490 L 360 489 L 375 489 L 381 491 L 387 499 L 385 501 L 372 501 L 371 502 L 367 502 L 364 504 L 360 504 L 357 506 L 354 506 L 351 508 L 349 508 L 338 514 L 336 514 L 333 517 L 328 519 L 325 522 L 318 525 L 314 529 L 313 532 L 313 538 L 310 541 L 297 545 L 293 548 L 294 555 L 292 559 L 289 561 L 283 568 L 282 568 L 279 574 L 279 579 L 277 582 L 277 584 L 272 592 L 272 594 L 267 600 L 263 608 L 263 613 L 262 614 L 263 618 L 262 620 L 269 626 L 271 626 L 279 634 L 279 636 L 276 639 L 271 638 L 263 634 L 259 634 L 253 632 L 245 632 L 244 631 L 239 631 L 233 629 L 230 630 L 225 629 L 223 631 L 220 631 L 213 636 L 213 638 L 216 640 L 222 635 L 225 634 L 232 634 L 237 640 L 239 640 L 242 643 L 245 642 L 246 643 L 252 644 L 259 650 L 259 655 L 260 656 L 261 663 L 276 676 L 277 675 L 286 675 L 289 673 L 297 673 L 300 677 L 311 677 L 314 670 L 326 656 L 326 654 L 331 649 L 331 647 L 337 642 L 337 640 L 342 632 L 342 629 L 344 627 L 347 618 L 354 611 L 356 605 L 365 597 L 369 592 L 369 590 L 372 587 L 375 586 L 382 579 L 384 579 L 394 570 L 398 564 L 400 564 L 405 560 L 406 557 L 410 553 L 410 551 L 416 543 L 420 540 L 422 536 L 423 529 L 426 524 L 426 521 L 428 517 L 433 513 L 436 517 L 436 520 L 438 517 L 438 515 L 441 512 L 443 515 L 445 516 L 447 513 L 447 509 L 461 496 L 461 490 L 463 488 L 462 486 L 460 486 L 458 484 L 450 480 L 444 474 L 443 472 L 443 462 L 440 460 L 435 461 L 433 459 L 433 457 L 431 454 L 431 452 L 433 449 L 433 446 L 430 441 L 430 439 L 425 434 L 423 434 L 421 432 L 415 430 L 409 429 L 404 424 L 406 420 L 409 418 L 411 415 L 411 413 L 408 409 L 404 409 L 403 408 L 402 409 L 401 408 L 395 409 L 394 408 L 391 408 L 389 406 L 383 406 L 380 409 L 373 404 L 373 399 L 374 396 L 376 394 L 381 394 L 383 393 L 386 395 L 389 395 L 390 396 L 402 397 L 403 398 L 409 399 L 413 402 L 416 401 L 416 396 L 410 391 L 408 391 L 405 388 L 404 385 L 407 383 L 407 380 L 403 376 L 401 376 L 397 379 L 394 378 L 390 370 L 390 367 L 386 360 L 380 353 L 378 353 L 375 350 L 372 351 L 365 351 L 358 346 L 356 346 L 348 341 L 345 341 L 343 343 L 341 349 L 339 351 L 336 351 L 335 350 L 335 345 L 334 344 L 335 342 L 335 338 L 341 335 L 342 336 L 345 332 L 345 330 L 347 327 L 354 331 L 367 343 L 370 342 L 372 339 L 380 340 L 396 357 L 400 357 L 405 355 L 410 355 L 410 352 L 405 344 L 396 335 L 396 331 L 398 329 L 407 335 L 411 339 L 413 339 L 413 338 L 404 330 L 403 325 L 405 323 L 407 324 L 413 324 L 416 326 L 418 325 L 418 320 L 414 315 L 409 316 L 406 314 L 404 314 L 402 312 L 401 308 L 403 306 L 404 307 L 407 306 L 413 312 L 413 313 L 416 312 L 418 314 L 420 314 L 425 319 L 428 329 L 427 330 L 427 336 L 423 343 L 419 343 L 417 341 L 416 343 L 425 353 L 425 360 L 423 362 L 415 362 L 415 365 L 411 369 L 408 370 L 408 372 L 410 374 L 410 377 L 415 380 L 416 379 L 418 382 L 426 388 L 429 387 L 434 388 L 440 393 L 442 393 L 448 399 L 449 414 L 451 417 L 448 426 L 452 432 L 453 432 L 455 429 L 456 430 L 459 428 L 462 429 L 460 425 L 462 421 L 453 410 L 456 406 L 456 396 L 444 389 L 436 380 L 436 372 L 439 366 L 439 361 L 434 354 L 434 350 L 438 346 L 441 345 L 442 346 L 442 344 L 438 340 L 437 335 L 439 333 L 447 335 L 453 338 L 456 338 L 459 340 L 474 340 L 475 339 L 482 339 L 484 338 L 491 342 L 495 343 L 499 347 L 504 347 L 512 354 L 519 365 L 525 371 L 528 372 L 535 381 L 534 384 L 534 391 L 533 392 L 533 398 L 535 404 L 541 409 L 545 409 L 546 408 L 546 401 L 547 398 L 550 395 L 554 395 L 564 406 L 567 411 L 570 412 L 573 416 L 580 415 L 580 413 L 582 411 L 582 397 L 588 389 L 593 389 L 594 386 L 596 384 L 599 385 L 605 380 L 607 380 L 609 377 L 613 377 L 614 376 L 615 366 L 613 363 L 610 353 L 603 346 L 600 346 L 591 334 L 591 332 L 593 330 L 596 331 L 597 328 L 595 326 L 587 322 L 583 318 L 582 316 L 583 311 L 582 308 L 580 306 L 572 302 L 567 301 L 559 296 L 558 289 L 555 285 L 553 284 L 549 284 L 548 283 L 542 283 L 537 281 L 535 279 L 535 275 L 534 274 L 535 270 L 513 269 L 511 267 L 512 264 L 511 262 L 508 263 L 500 263 L 499 264 L 489 266 L 484 260 L 484 258 L 477 257 L 476 258 L 470 258 L 468 260 L 451 262 L 446 265 L 443 265 L 440 266 L 438 268 L 433 269 L 431 271 L 420 271 L 413 277 L 411 277 L 408 274 L 408 271 L 401 280 L 399 281 L 396 278 L 399 267 L 406 260 L 410 258 L 410 257 L 418 249 L 421 251 L 423 248 L 423 245 L 425 243 L 428 243 L 429 245 L 431 246 L 432 244 L 431 243 L 430 235 L 432 233 L 436 233 L 435 228 L 440 223 L 442 223 L 442 219 L 439 214 L 441 212 L 445 212 L 450 215 L 451 214 L 450 212 L 450 204 L 452 202 L 455 202 L 458 204 L 458 202 L 453 197 L 453 194 L 457 191 L 457 188 L 453 183 L 453 180 L 456 179 L 461 181 L 472 181 L 473 183 L 475 183 L 474 182 L 475 174 L 477 172 L 483 172 L 482 169 L 470 155 L 470 152 L 472 150 L 478 148 L 474 144 L 470 143 L 466 139 L 465 137 L 465 131 L 466 129 L 459 118 L 456 111 L 448 101 L 448 99 L 450 97 L 458 93 L 463 88 L 466 82 L 466 69 L 465 66 L 463 64 L 462 61 L 451 51 L 449 51 L 447 49 L 440 48 Z M 256 478 L 259 481 L 259 484 L 260 485 L 259 495 L 257 498 L 253 495 L 252 492 L 252 483 Z M 252 453 L 253 454 L 252 463 L 250 469 L 247 471 L 245 469 L 245 461 L 248 455 L 250 453 Z M 384 449 L 386 446 L 388 448 L 387 450 Z M 403 446 L 406 445 L 411 447 L 413 449 L 418 450 L 423 454 L 428 454 L 432 458 L 432 462 L 441 471 L 441 472 L 439 474 L 437 474 L 436 473 L 426 471 L 421 468 L 416 463 L 414 458 L 412 456 L 407 453 L 405 453 L 402 449 Z M 370 439 L 373 441 L 379 448 L 382 449 L 382 452 L 376 458 L 372 459 L 369 465 L 370 466 L 368 468 L 363 468 L 360 471 L 359 469 L 361 467 L 361 465 L 364 462 L 364 449 L 366 446 L 366 444 L 368 442 L 367 441 Z M 250 435 L 252 437 L 252 439 L 249 445 L 241 454 L 238 454 L 237 452 L 239 446 L 242 443 L 244 439 L 247 436 Z M 337 429 L 339 431 L 339 435 L 336 441 L 334 443 L 329 443 L 328 442 L 328 438 L 331 436 L 331 434 L 333 431 Z M 380 424 L 384 424 L 387 427 L 387 429 L 389 432 L 387 436 L 385 436 L 381 432 L 381 430 L 379 427 Z M 253 417 L 254 420 L 253 423 L 251 425 L 251 427 L 247 431 L 247 433 L 244 436 L 240 437 L 238 435 L 238 433 L 240 430 L 241 426 L 250 417 Z M 314 412 L 315 415 L 312 418 L 311 416 L 312 413 Z M 273 394 L 271 398 L 266 402 L 262 402 L 260 400 L 260 398 L 267 392 L 271 392 Z M 314 386 L 314 389 L 308 394 L 304 394 L 302 395 L 300 393 L 305 387 L 311 385 Z M 355 379 L 358 379 L 363 385 L 362 389 L 359 392 L 362 404 L 360 409 L 358 411 L 355 409 L 353 405 L 353 402 L 346 394 L 346 387 Z M 324 373 L 327 374 L 327 380 L 326 381 L 322 378 L 322 375 Z M 298 369 L 299 370 L 298 375 L 295 377 L 285 388 L 283 389 L 279 389 L 278 388 L 278 385 L 280 382 L 289 375 L 293 370 Z M 339 364 L 343 369 L 343 372 L 342 373 L 342 376 L 340 378 L 339 382 L 337 385 L 337 388 L 333 393 L 330 389 L 330 385 L 332 382 L 332 378 L 334 376 L 334 371 L 337 367 L 337 365 Z M 278 363 L 279 361 L 284 357 L 291 357 L 293 359 L 289 364 L 285 366 L 280 365 Z M 322 357 L 322 359 L 313 366 L 308 366 L 307 365 L 307 363 L 313 356 L 315 355 L 320 355 Z M 287 335 L 290 339 L 289 342 L 285 345 L 280 351 L 275 352 L 274 351 L 274 348 L 277 341 L 282 336 Z M 361 325 L 362 324 L 370 325 L 372 327 L 372 334 L 370 336 L 364 336 L 361 332 Z M 326 325 L 326 328 L 317 336 L 315 336 L 308 340 L 302 342 L 300 342 L 296 339 L 299 334 L 308 324 L 311 326 L 312 329 L 316 327 L 319 324 L 324 323 Z M 345 307 L 348 309 L 348 312 L 350 314 L 350 317 L 348 321 L 348 324 L 346 326 L 343 326 L 335 317 L 335 313 L 337 311 L 339 311 Z M 392 266 L 392 270 L 390 274 L 375 289 L 367 295 L 375 296 L 376 294 L 376 290 L 377 289 L 379 289 L 381 291 L 382 298 L 385 302 L 382 305 L 382 307 L 380 309 L 377 310 L 375 309 L 371 309 L 370 310 L 365 309 L 362 307 L 357 301 L 356 302 L 353 302 L 351 304 L 343 303 L 341 301 L 326 293 L 318 287 L 310 279 L 310 274 L 312 272 L 320 272 L 321 273 L 332 274 L 333 275 L 342 275 L 343 274 L 350 274 L 351 273 L 362 272 L 363 271 L 374 269 L 377 267 L 383 265 L 386 265 L 387 264 L 390 264 Z M 375 152 L 380 146 L 387 142 L 390 142 L 391 141 L 406 141 L 419 146 L 426 153 L 427 156 L 427 162 L 422 168 L 413 172 L 398 172 L 397 171 L 394 171 L 388 169 L 381 165 L 376 159 Z M 297 136 L 301 132 L 307 129 L 320 128 L 329 131 L 333 135 L 333 138 L 331 140 L 326 140 L 320 138 L 309 138 L 308 139 L 300 140 Z M 279 121 L 284 121 L 290 128 L 291 136 L 288 144 L 298 143 L 299 142 L 313 144 L 323 149 L 327 155 L 327 160 L 322 170 L 317 175 L 312 178 L 310 178 L 306 181 L 306 182 L 311 186 L 315 186 L 321 188 L 332 188 L 333 187 L 340 186 L 352 180 L 358 174 L 358 172 L 362 168 L 367 169 L 372 175 L 372 179 L 373 180 L 373 209 L 372 210 L 372 216 L 371 217 L 371 220 L 369 226 L 367 229 L 366 234 L 364 236 L 364 238 L 362 241 L 355 248 L 344 256 L 338 258 L 329 258 L 328 257 L 325 257 L 323 255 L 320 255 L 318 253 L 313 251 L 299 237 L 288 222 L 283 211 L 283 203 L 282 201 L 277 198 L 273 197 L 266 191 L 261 181 L 261 175 L 260 174 L 254 180 L 246 184 L 242 184 L 240 183 L 235 178 L 234 175 L 235 169 L 237 165 L 243 159 L 252 155 L 259 155 L 266 160 L 267 159 L 270 159 L 271 160 L 272 159 L 274 151 L 270 146 L 270 135 L 272 129 Z M 364 116 L 367 116 L 374 123 L 377 129 L 377 137 L 375 143 L 369 150 L 362 150 L 360 149 L 355 141 L 355 127 L 359 119 L 361 117 Z M 291 84 L 294 87 L 295 92 L 288 98 L 286 98 L 280 103 L 276 104 L 272 100 L 272 97 L 274 92 L 279 87 L 282 86 L 284 84 L 287 83 Z M 254 82 L 260 85 L 264 89 L 265 93 L 256 105 L 254 110 L 249 115 L 244 116 L 239 112 L 234 105 L 234 97 L 237 91 L 244 84 L 249 82 Z M 359 77 L 364 73 L 371 73 L 375 76 L 377 76 L 383 81 L 385 84 L 385 90 L 381 93 L 378 93 L 372 89 L 370 89 L 367 87 L 364 87 L 358 81 Z M 436 57 L 439 57 L 445 60 L 452 67 L 456 76 L 456 81 L 453 87 L 449 91 L 443 94 L 438 90 L 435 89 L 420 76 L 420 70 L 422 67 L 429 60 Z" fill="#FBFBFB" fill-rule="evenodd"/><path d="M 476 616 L 467 613 L 457 618 L 452 619 L 450 621 L 444 622 L 450 621 L 455 618 L 464 615 L 467 616 L 469 615 L 474 615 Z M 262 609 L 260 614 L 260 620 L 268 626 L 261 620 L 262 618 L 261 615 L 262 613 Z M 491 586 L 490 589 L 484 593 L 484 595 L 482 597 L 482 600 L 483 601 L 490 601 L 494 598 L 494 588 Z M 296 545 L 294 545 L 288 550 L 290 555 L 287 558 L 284 565 L 280 569 L 279 573 L 281 568 L 291 559 L 293 555 L 292 548 Z M 499 539 L 498 540 L 494 540 L 492 543 L 495 547 L 495 552 L 496 553 L 500 553 L 502 551 L 502 545 L 501 544 L 501 541 Z M 335 514 L 333 516 L 328 518 L 325 521 L 316 525 L 311 530 L 312 537 L 309 540 L 312 538 L 312 532 L 313 529 L 318 524 L 325 521 L 328 518 L 333 516 Z M 386 499 L 381 492 L 375 490 L 360 490 L 359 491 L 354 491 L 350 493 L 347 493 L 344 495 L 339 496 L 337 498 L 332 499 L 328 503 L 325 504 L 316 511 L 314 511 L 312 513 L 301 518 L 296 522 L 294 522 L 291 526 L 290 525 L 287 529 L 284 529 L 278 524 L 278 521 L 274 513 L 274 496 L 275 495 L 275 492 L 274 491 L 271 491 L 269 493 L 268 496 L 269 500 L 268 501 L 268 518 L 267 519 L 263 519 L 262 518 L 257 518 L 255 519 L 251 515 L 248 514 L 245 510 L 243 511 L 239 511 L 237 509 L 237 507 L 235 505 L 234 501 L 234 503 L 238 513 L 246 523 L 251 519 L 263 532 L 264 532 L 264 528 L 266 526 L 268 526 L 271 529 L 273 535 L 280 536 L 283 535 L 291 526 L 299 521 L 303 517 L 316 511 L 332 500 L 348 493 L 351 493 L 355 491 L 362 491 L 363 490 L 374 490 L 380 492 L 384 497 L 380 500 L 373 500 L 385 500 Z M 279 531 L 282 530 L 284 533 L 281 535 L 279 533 Z M 256 479 L 253 483 L 253 492 L 254 495 L 257 497 L 258 495 L 259 485 L 258 484 L 258 481 Z M 534 477 L 534 479 L 530 487 L 513 506 L 510 512 L 510 519 L 510 513 L 513 507 L 518 503 L 529 489 L 534 479 Z M 228 459 L 226 459 L 219 467 L 218 467 L 217 465 L 217 467 L 219 468 L 226 460 L 228 462 L 225 481 L 227 467 L 229 463 L 229 460 Z M 252 454 L 249 455 L 246 461 L 246 469 L 247 470 L 249 469 L 251 463 Z M 404 446 L 403 448 L 404 451 L 412 455 L 415 458 L 417 463 L 421 467 L 429 471 L 432 471 L 437 473 L 440 472 L 440 471 L 431 462 L 431 458 L 428 455 L 423 455 L 416 450 L 413 450 L 409 447 Z M 420 460 L 422 458 L 431 465 L 432 468 L 430 469 L 425 467 L 421 463 Z M 370 440 L 368 441 L 369 442 L 367 444 L 367 446 L 365 449 L 365 462 L 362 465 L 362 467 L 360 470 L 363 467 L 368 467 L 369 466 L 368 465 L 371 459 L 376 457 L 381 452 L 381 449 L 379 449 L 375 444 Z M 250 436 L 247 437 L 240 446 L 238 453 L 241 453 L 248 445 L 251 439 Z M 337 430 L 334 431 L 332 434 L 332 436 L 329 438 L 329 442 L 334 442 L 338 435 L 338 431 Z M 380 425 L 382 432 L 385 435 L 387 435 L 388 432 L 386 429 L 386 427 L 384 425 Z M 253 418 L 250 418 L 242 426 L 241 430 L 239 433 L 240 436 L 242 436 L 246 433 L 246 431 L 250 427 L 250 425 L 252 423 Z M 272 394 L 271 393 L 267 393 L 265 394 L 261 398 L 261 400 L 262 401 L 266 401 L 270 398 Z M 313 386 L 305 388 L 301 393 L 302 394 L 304 393 L 308 393 L 313 389 Z M 355 380 L 347 387 L 347 394 L 354 402 L 354 405 L 356 409 L 358 410 L 361 404 L 358 392 L 361 389 L 362 385 L 358 380 Z M 500 377 L 499 378 L 499 383 L 501 387 L 502 395 L 510 409 L 510 420 L 510 407 L 503 398 L 502 395 L 502 389 L 499 380 L 501 378 L 505 378 L 511 381 L 508 379 Z M 324 374 L 323 375 L 323 378 L 326 380 L 326 374 Z M 298 370 L 293 371 L 289 376 L 283 380 L 279 385 L 279 388 L 283 388 L 285 387 L 285 386 L 297 375 Z M 216 370 L 215 370 L 219 374 L 219 377 L 215 386 L 218 379 L 220 377 L 220 373 Z M 339 365 L 338 365 L 338 367 L 335 371 L 335 376 L 333 378 L 333 382 L 331 385 L 331 389 L 333 392 L 336 388 L 336 385 L 338 382 L 339 378 L 341 376 L 341 373 L 342 372 L 342 369 Z M 279 363 L 285 365 L 289 363 L 292 359 L 291 358 L 284 358 L 282 359 Z M 321 357 L 320 356 L 315 356 L 313 357 L 308 363 L 308 365 L 313 365 L 321 359 Z M 256 353 L 251 353 L 245 356 L 242 359 L 240 359 L 238 357 L 239 355 L 238 357 L 239 364 L 241 364 L 249 355 L 254 354 L 256 356 L 253 362 L 247 368 L 235 376 L 226 389 L 227 390 L 228 389 L 231 389 L 233 391 L 233 393 L 228 400 L 222 406 L 218 413 L 220 414 L 226 412 L 228 414 L 228 417 L 224 424 L 220 428 L 219 431 L 217 433 L 214 440 L 215 441 L 217 441 L 219 439 L 222 438 L 224 440 L 224 443 L 224 439 L 223 438 L 217 440 L 215 437 L 220 428 L 227 420 L 228 417 L 228 413 L 227 412 L 220 413 L 219 410 L 229 399 L 233 393 L 233 390 L 229 387 L 229 385 L 235 377 L 248 368 L 257 358 L 257 354 Z M 287 336 L 282 337 L 278 341 L 275 348 L 275 351 L 280 350 L 280 349 L 288 342 L 289 339 Z M 172 329 L 173 331 L 176 331 L 178 333 L 180 332 L 176 329 Z M 362 325 L 362 332 L 364 335 L 370 335 L 371 334 L 371 327 L 367 325 Z M 325 325 L 324 324 L 319 325 L 313 330 L 312 330 L 310 328 L 310 326 L 308 325 L 300 334 L 297 339 L 300 341 L 302 341 L 308 339 L 315 335 L 317 335 L 325 328 Z M 307 331 L 308 332 L 308 335 L 306 337 L 304 335 L 304 333 Z M 345 308 L 341 311 L 336 313 L 336 317 L 343 325 L 346 325 L 347 324 L 347 321 L 349 317 L 349 314 L 347 312 L 347 309 Z M 148 307 L 151 310 L 157 313 L 160 313 L 161 312 L 159 310 L 157 310 L 154 307 L 150 307 L 149 306 Z M 203 302 L 205 305 L 212 305 L 214 303 L 214 301 L 209 298 Z M 565 285 L 557 284 L 556 283 L 542 282 L 548 282 L 549 283 L 553 283 L 555 284 L 559 289 L 559 293 L 561 297 L 567 300 L 577 303 L 583 308 L 584 311 L 583 316 L 584 318 L 587 321 L 595 325 L 598 328 L 598 330 L 596 332 L 594 331 L 592 332 L 593 336 L 598 341 L 600 345 L 603 345 L 611 353 L 614 363 L 616 366 L 616 372 L 615 373 L 615 376 L 613 378 L 609 378 L 607 381 L 605 381 L 599 386 L 596 385 L 595 388 L 593 390 L 588 390 L 583 397 L 583 411 L 581 413 L 580 416 L 573 417 L 570 413 L 568 413 L 566 411 L 563 406 L 554 396 L 550 396 L 548 398 L 547 401 L 547 408 L 545 410 L 541 410 L 539 409 L 534 404 L 532 398 L 532 392 L 533 391 L 533 384 L 534 381 L 529 374 L 525 372 L 518 365 L 511 354 L 504 348 L 499 348 L 495 344 L 491 343 L 484 339 L 482 340 L 475 340 L 474 341 L 459 341 L 456 339 L 453 339 L 447 336 L 439 334 L 438 337 L 439 340 L 443 344 L 443 346 L 442 347 L 441 346 L 438 347 L 435 350 L 435 354 L 440 361 L 440 366 L 437 372 L 437 380 L 444 388 L 452 392 L 453 394 L 455 394 L 457 396 L 457 406 L 454 410 L 463 421 L 461 425 L 463 429 L 462 430 L 459 429 L 457 431 L 455 430 L 454 432 L 452 433 L 447 426 L 447 424 L 449 422 L 450 417 L 448 414 L 447 399 L 442 394 L 440 394 L 434 389 L 431 388 L 426 389 L 419 384 L 416 380 L 415 381 L 411 379 L 409 377 L 409 374 L 407 372 L 407 370 L 411 368 L 414 365 L 414 362 L 415 361 L 423 361 L 424 360 L 424 353 L 415 343 L 417 340 L 419 342 L 423 342 L 426 336 L 426 330 L 427 327 L 424 321 L 424 319 L 420 315 L 418 315 L 416 313 L 413 314 L 407 307 L 405 308 L 403 307 L 402 308 L 402 310 L 404 313 L 406 313 L 409 315 L 414 314 L 419 320 L 419 325 L 417 327 L 413 325 L 407 325 L 406 324 L 404 325 L 405 330 L 414 338 L 413 340 L 411 340 L 407 336 L 398 330 L 397 331 L 397 335 L 409 348 L 409 350 L 411 352 L 411 355 L 410 356 L 405 356 L 400 358 L 396 358 L 380 341 L 372 340 L 370 343 L 367 344 L 354 332 L 351 331 L 348 328 L 347 328 L 346 332 L 342 337 L 341 336 L 338 338 L 336 338 L 336 342 L 335 343 L 336 345 L 336 350 L 339 350 L 340 349 L 342 343 L 345 340 L 348 340 L 354 344 L 358 345 L 365 350 L 372 350 L 375 349 L 378 352 L 380 352 L 387 360 L 391 367 L 391 370 L 395 378 L 397 378 L 401 375 L 403 375 L 408 380 L 408 383 L 405 385 L 405 386 L 408 390 L 410 390 L 417 396 L 417 401 L 415 403 L 413 403 L 411 401 L 406 399 L 390 397 L 382 394 L 381 395 L 376 395 L 375 396 L 374 404 L 380 408 L 383 405 L 389 405 L 391 407 L 394 407 L 395 408 L 398 407 L 408 408 L 411 411 L 412 415 L 411 417 L 407 420 L 405 424 L 409 428 L 415 429 L 421 431 L 423 433 L 425 433 L 431 439 L 431 441 L 434 446 L 434 449 L 432 452 L 434 459 L 435 460 L 438 460 L 439 459 L 442 460 L 444 462 L 444 472 L 445 474 L 450 479 L 458 483 L 460 485 L 462 485 L 464 487 L 462 490 L 462 496 L 448 509 L 448 513 L 445 517 L 444 517 L 441 513 L 436 521 L 435 520 L 435 517 L 433 514 L 429 517 L 427 521 L 427 524 L 424 529 L 423 536 L 421 540 L 418 542 L 411 551 L 411 553 L 407 557 L 406 560 L 400 565 L 398 565 L 395 570 L 384 580 L 382 580 L 375 587 L 372 588 L 366 597 L 357 605 L 355 611 L 348 618 L 348 620 L 345 625 L 345 627 L 343 629 L 343 632 L 338 640 L 338 642 L 332 647 L 332 649 L 327 654 L 327 656 L 315 670 L 311 678 L 300 678 L 297 674 L 289 674 L 286 676 L 277 676 L 276 677 L 260 663 L 260 660 L 258 655 L 258 650 L 252 645 L 246 644 L 245 643 L 242 644 L 239 641 L 237 641 L 232 635 L 225 635 L 222 636 L 216 641 L 212 638 L 212 636 L 215 633 L 218 632 L 220 630 L 223 630 L 225 628 L 227 629 L 233 628 L 234 629 L 244 630 L 245 631 L 253 631 L 254 632 L 263 633 L 271 637 L 276 638 L 278 636 L 278 634 L 271 627 L 270 627 L 275 632 L 275 634 L 273 636 L 265 633 L 261 633 L 255 631 L 249 631 L 248 630 L 235 629 L 234 628 L 225 628 L 216 632 L 211 637 L 211 641 L 213 643 L 214 648 L 216 647 L 216 644 L 218 640 L 221 637 L 225 635 L 231 635 L 235 639 L 233 643 L 233 653 L 234 654 L 240 654 L 240 649 L 241 647 L 245 644 L 249 645 L 259 657 L 259 666 L 261 670 L 266 673 L 268 673 L 273 678 L 278 680 L 286 680 L 287 681 L 290 681 L 294 684 L 301 685 L 302 686 L 322 686 L 325 685 L 326 683 L 329 681 L 330 676 L 331 675 L 333 676 L 334 674 L 331 673 L 328 669 L 328 666 L 330 661 L 332 659 L 332 656 L 338 649 L 341 648 L 345 644 L 347 639 L 353 634 L 353 632 L 356 627 L 357 619 L 367 609 L 373 607 L 373 604 L 376 602 L 380 590 L 385 586 L 388 581 L 393 576 L 401 570 L 410 561 L 415 551 L 418 548 L 422 541 L 426 527 L 428 525 L 430 521 L 432 522 L 433 528 L 434 529 L 439 525 L 442 527 L 445 523 L 449 514 L 454 507 L 457 504 L 459 504 L 463 500 L 466 491 L 467 474 L 469 472 L 473 475 L 475 473 L 475 469 L 474 468 L 475 464 L 476 463 L 480 464 L 481 463 L 481 460 L 479 454 L 476 451 L 474 450 L 471 452 L 469 452 L 464 447 L 462 437 L 464 436 L 470 440 L 473 439 L 477 443 L 481 442 L 481 440 L 478 437 L 477 434 L 468 425 L 465 415 L 467 413 L 469 413 L 472 409 L 471 399 L 470 398 L 469 392 L 464 385 L 458 380 L 453 380 L 450 379 L 448 377 L 448 366 L 445 364 L 436 354 L 436 349 L 438 347 L 442 347 L 447 349 L 450 348 L 450 347 L 440 338 L 442 336 L 460 342 L 463 344 L 473 345 L 481 350 L 485 350 L 487 348 L 491 348 L 496 354 L 503 354 L 506 355 L 519 369 L 528 375 L 532 379 L 533 381 L 532 399 L 536 407 L 543 412 L 549 414 L 549 410 L 548 409 L 548 405 L 547 403 L 548 402 L 548 399 L 550 397 L 555 398 L 562 406 L 563 409 L 569 415 L 572 417 L 575 417 L 576 418 L 583 418 L 586 414 L 586 411 L 585 410 L 585 400 L 588 398 L 593 398 L 599 407 L 603 407 L 607 402 L 607 396 L 604 388 L 604 384 L 608 380 L 611 380 L 617 386 L 618 385 L 619 378 L 618 377 L 617 367 L 615 364 L 614 359 L 609 350 L 594 336 L 596 333 L 602 333 L 602 330 L 598 326 L 591 323 L 584 317 L 584 314 L 587 309 L 584 306 L 575 302 L 570 301 L 563 296 L 563 293 L 567 289 L 567 287 Z M 452 467 L 456 470 L 456 473 L 455 474 L 452 474 L 450 472 L 450 469 Z M 446 435 L 451 433 L 456 437 L 454 439 L 450 440 Z M 411 424 L 413 422 L 415 422 L 426 427 L 432 428 L 439 434 L 439 436 L 436 439 L 434 439 L 426 432 L 418 428 L 415 428 L 412 426 Z M 442 405 L 444 407 L 444 413 L 446 416 L 444 419 L 440 414 L 440 407 Z M 430 401 L 433 401 L 437 405 L 437 408 L 435 410 L 433 410 L 434 418 L 438 424 L 436 427 L 431 427 L 421 423 L 418 419 L 418 413 L 422 409 L 428 407 Z M 401 402 L 402 401 L 406 401 L 408 404 L 405 405 L 402 404 Z M 436 394 L 439 395 L 441 397 L 443 402 L 441 404 L 440 404 L 434 397 Z M 382 346 L 396 360 L 404 360 L 405 359 L 406 360 L 406 362 L 399 370 L 396 370 L 392 366 L 387 356 L 380 348 Z M 403 335 L 409 339 L 421 353 L 422 356 L 421 358 L 419 359 L 414 355 L 410 347 L 402 339 L 401 337 Z M 424 325 L 425 326 L 425 333 L 422 339 L 418 339 L 408 329 L 410 327 L 416 330 L 420 330 L 421 329 L 421 326 Z M 203 273 L 200 274 L 200 277 L 199 278 L 199 282 L 200 284 L 199 286 L 195 289 L 196 292 L 197 290 L 198 290 L 200 293 L 201 292 L 202 283 L 204 278 Z M 391 266 L 390 265 L 387 265 L 386 266 L 383 266 L 377 268 L 374 270 L 371 270 L 362 273 L 357 273 L 356 274 L 351 274 L 350 275 L 343 275 L 342 276 L 333 276 L 332 275 L 326 275 L 320 273 L 312 273 L 311 274 L 311 279 L 318 286 L 326 292 L 341 300 L 343 302 L 351 303 L 353 301 L 356 301 L 357 300 L 359 303 L 365 308 L 368 309 L 375 308 L 377 309 L 380 308 L 381 305 L 384 302 L 381 298 L 380 291 L 377 290 L 377 294 L 375 297 L 367 296 L 366 295 L 375 288 L 389 274 L 391 270 Z M 390 268 L 390 270 L 388 273 L 376 285 L 361 297 L 359 297 L 352 301 L 344 301 L 335 297 L 320 287 L 311 278 L 311 276 L 313 274 L 322 274 L 323 275 L 328 275 L 329 276 L 346 276 L 347 275 L 353 275 L 354 274 L 368 272 L 385 266 L 388 266 Z M 487 263 L 489 265 L 491 265 L 500 262 L 508 262 L 511 261 L 513 263 L 512 265 L 513 268 L 535 269 L 536 270 L 535 273 L 536 275 L 536 279 L 540 281 L 538 279 L 538 276 L 542 272 L 541 270 L 538 270 L 537 269 L 521 269 L 520 268 L 516 268 L 514 266 L 516 264 L 514 261 L 506 261 L 505 262 L 500 262 L 495 264 L 488 264 Z M 540 257 L 548 257 L 552 259 L 562 271 L 567 271 L 568 272 L 571 272 L 577 274 L 582 279 L 583 281 L 583 285 L 584 286 L 584 291 L 587 294 L 589 294 L 595 297 L 602 304 L 607 317 L 613 323 L 618 330 L 620 336 L 620 341 L 629 359 L 629 362 L 632 368 L 632 372 L 632 368 L 631 367 L 631 364 L 627 352 L 624 348 L 624 345 L 622 343 L 621 336 L 619 334 L 617 328 L 608 318 L 608 316 L 605 312 L 605 310 L 600 301 L 590 294 L 588 294 L 585 291 L 583 281 L 581 277 L 576 273 L 570 272 L 569 271 L 563 271 L 552 258 L 549 258 L 548 257 Z M 366 230 L 362 239 L 358 244 L 345 254 L 339 256 L 327 256 L 324 254 L 315 251 L 312 249 L 296 232 L 313 250 L 318 252 L 320 254 L 323 254 L 325 256 L 328 256 L 329 257 L 338 257 L 346 254 L 355 247 L 363 238 L 363 236 L 365 234 Z M 366 170 L 370 174 L 371 181 L 372 182 L 372 208 L 371 209 L 370 219 L 367 228 L 370 220 L 371 210 L 372 209 L 372 180 L 371 179 L 371 175 L 369 172 Z M 238 165 L 236 169 L 235 175 L 236 178 L 240 182 L 242 183 L 249 182 L 251 180 L 254 179 L 260 173 L 262 175 L 262 181 L 267 191 L 273 196 L 281 199 L 283 202 L 282 199 L 273 196 L 265 188 L 262 181 L 262 170 L 261 170 L 253 179 L 248 182 L 241 182 L 239 181 L 236 177 L 236 170 L 239 165 L 246 159 L 254 156 L 260 157 L 264 161 L 270 160 L 272 162 L 272 170 L 272 167 L 274 166 L 278 171 L 274 166 L 273 158 L 271 161 L 270 160 L 267 160 L 266 161 L 259 156 L 252 156 L 243 160 Z M 326 155 L 326 160 L 323 167 L 318 173 L 312 177 L 297 181 L 296 180 L 288 179 L 279 173 L 285 178 L 289 180 L 292 180 L 296 184 L 294 187 L 289 190 L 281 190 L 276 187 L 273 183 L 274 185 L 277 188 L 283 191 L 290 190 L 298 184 L 304 184 L 311 187 L 320 188 L 321 189 L 331 189 L 321 189 L 320 188 L 311 187 L 305 182 L 307 179 L 310 177 L 314 176 L 321 170 L 325 163 Z M 376 152 L 377 159 L 381 164 L 388 168 L 394 170 L 397 170 L 398 171 L 413 171 L 422 167 L 426 162 L 426 156 L 425 153 L 419 147 L 406 142 L 391 142 L 390 143 L 387 143 L 380 147 Z M 376 153 L 382 146 L 388 143 L 403 142 L 404 143 L 412 144 L 420 148 L 424 152 L 426 156 L 426 161 L 421 167 L 411 171 L 401 171 L 400 170 L 395 170 L 386 167 L 383 165 L 378 160 L 376 156 Z M 467 139 L 470 142 L 474 143 L 479 148 L 471 152 L 471 155 L 483 169 L 484 172 L 483 173 L 477 173 L 476 174 L 476 179 L 475 180 L 476 183 L 475 184 L 473 184 L 472 182 L 461 182 L 460 181 L 454 180 L 454 183 L 458 188 L 458 191 L 454 194 L 454 197 L 459 202 L 459 204 L 458 205 L 455 203 L 452 203 L 451 204 L 451 212 L 452 214 L 450 216 L 445 213 L 441 213 L 440 214 L 443 219 L 443 223 L 440 224 L 436 228 L 437 233 L 431 235 L 432 243 L 433 244 L 432 246 L 430 247 L 428 244 L 425 244 L 424 245 L 424 248 L 421 252 L 418 250 L 410 259 L 406 261 L 400 267 L 398 272 L 398 276 L 397 277 L 399 280 L 402 278 L 404 274 L 408 270 L 409 271 L 409 274 L 411 276 L 413 276 L 420 270 L 431 270 L 433 268 L 438 267 L 440 265 L 443 264 L 446 264 L 451 261 L 468 259 L 470 257 L 476 257 L 477 256 L 484 257 L 486 261 L 486 258 L 483 256 L 474 256 L 465 259 L 461 259 L 460 260 L 456 260 L 455 261 L 451 261 L 447 263 L 440 264 L 434 268 L 428 270 L 425 270 L 423 268 L 424 264 L 433 254 L 436 248 L 437 248 L 441 253 L 443 252 L 443 249 L 446 246 L 452 235 L 454 233 L 457 234 L 460 242 L 463 239 L 466 232 L 466 227 L 467 226 L 468 217 L 469 216 L 472 216 L 475 218 L 476 216 L 474 197 L 476 195 L 479 195 L 483 198 L 482 190 L 477 181 L 476 175 L 478 173 L 481 173 L 484 175 L 485 174 L 485 171 L 471 155 L 471 153 L 473 151 L 481 151 L 482 150 L 480 147 Z M 417 262 L 420 265 L 420 267 L 419 269 L 413 274 L 411 272 L 411 269 L 413 264 L 415 262 Z M 447 217 L 449 217 L 452 220 L 452 224 L 451 225 L 446 220 Z M 454 209 L 457 208 L 459 210 L 459 213 L 457 214 L 455 212 Z M 298 136 L 300 139 L 308 138 L 309 137 L 320 137 L 326 139 L 331 139 L 332 138 L 332 135 L 329 132 L 320 129 L 307 130 L 301 133 Z M 301 136 L 304 133 L 308 131 L 315 131 L 317 130 L 318 131 L 324 131 L 329 133 L 332 137 L 331 138 L 324 138 L 318 136 L 311 136 L 310 137 L 303 138 Z M 92 126 L 89 129 L 87 136 L 88 136 L 92 131 L 96 131 L 100 133 L 103 136 L 108 144 L 108 146 L 110 149 L 110 155 L 109 157 L 104 161 L 96 160 L 94 162 L 92 162 L 83 153 L 77 150 L 72 149 L 68 152 L 67 154 L 67 160 L 69 159 L 70 156 L 72 154 L 77 154 L 84 159 L 92 169 L 91 175 L 85 180 L 75 178 L 73 180 L 64 180 L 61 184 L 61 190 L 68 202 L 73 208 L 74 208 L 81 215 L 85 217 L 99 229 L 101 235 L 104 240 L 104 242 L 107 247 L 107 249 L 111 255 L 111 257 L 114 260 L 118 267 L 124 273 L 125 273 L 122 269 L 119 262 L 120 260 L 157 293 L 168 298 L 170 300 L 175 301 L 178 303 L 187 304 L 190 308 L 184 313 L 185 315 L 187 316 L 199 316 L 204 320 L 212 323 L 222 323 L 223 326 L 219 330 L 215 332 L 215 335 L 226 336 L 227 337 L 236 337 L 241 326 L 247 321 L 249 323 L 249 325 L 243 338 L 243 342 L 244 343 L 243 347 L 244 345 L 243 339 L 249 325 L 248 319 L 254 313 L 254 310 L 252 307 L 261 297 L 261 294 L 259 291 L 264 287 L 264 283 L 265 281 L 275 271 L 279 271 L 285 274 L 288 277 L 291 277 L 292 276 L 292 272 L 289 267 L 281 261 L 275 258 L 269 257 L 256 243 L 254 243 L 250 239 L 249 233 L 247 231 L 245 231 L 244 234 L 241 235 L 239 232 L 239 228 L 238 227 L 239 225 L 239 214 L 237 212 L 234 212 L 231 214 L 229 212 L 229 208 L 229 213 L 231 215 L 235 212 L 239 215 L 238 229 L 240 234 L 242 236 L 243 236 L 246 232 L 249 234 L 251 241 L 255 243 L 263 251 L 272 264 L 274 268 L 273 273 L 270 276 L 266 277 L 263 274 L 258 264 L 251 255 L 250 256 L 250 260 L 248 262 L 245 261 L 242 258 L 238 250 L 238 248 L 235 245 L 234 248 L 232 250 L 230 250 L 227 247 L 224 239 L 227 248 L 232 252 L 236 246 L 238 248 L 241 257 L 246 262 L 249 262 L 250 261 L 250 258 L 252 257 L 257 263 L 260 269 L 260 271 L 262 273 L 261 279 L 256 286 L 256 291 L 248 301 L 247 309 L 244 313 L 244 316 L 242 320 L 242 324 L 239 329 L 239 331 L 235 336 L 224 336 L 221 335 L 218 332 L 226 325 L 226 322 L 225 321 L 222 322 L 212 322 L 211 321 L 205 320 L 201 315 L 189 315 L 188 312 L 192 309 L 192 306 L 190 304 L 181 303 L 175 301 L 156 291 L 147 282 L 146 282 L 126 264 L 117 252 L 106 241 L 98 227 L 81 214 L 67 199 L 70 198 L 75 202 L 80 204 L 84 202 L 91 211 L 96 215 L 99 215 L 100 216 L 111 216 L 112 215 L 115 215 L 136 204 L 144 196 L 145 193 L 147 191 L 147 181 L 142 171 L 134 164 L 127 161 L 117 161 L 108 165 L 101 171 L 101 172 L 95 178 L 93 183 L 91 185 L 89 191 L 91 185 L 96 177 L 106 167 L 115 162 L 119 162 L 120 161 L 125 161 L 126 162 L 132 163 L 143 173 L 147 181 L 147 190 L 142 198 L 130 207 L 114 215 L 111 215 L 110 216 L 100 216 L 94 213 L 88 206 L 87 203 L 88 193 L 87 194 L 85 192 L 85 189 L 76 181 L 77 179 L 79 180 L 86 180 L 88 179 L 91 175 L 92 172 L 91 166 L 84 158 L 87 157 L 91 162 L 94 164 L 96 162 L 103 162 L 106 161 L 110 157 L 112 152 L 114 152 L 116 154 L 121 152 L 127 156 L 134 156 L 138 150 L 138 146 L 137 145 L 139 144 L 141 146 L 141 149 L 145 151 L 145 154 L 142 159 L 142 161 L 144 164 L 144 166 L 149 171 L 155 171 L 159 167 L 160 164 L 162 162 L 162 160 L 163 159 L 165 160 L 165 170 L 164 171 L 164 174 L 162 177 L 162 182 L 170 191 L 174 198 L 181 205 L 186 214 L 192 219 L 193 219 L 195 215 L 197 214 L 206 232 L 213 240 L 216 240 L 217 238 L 217 232 L 218 231 L 220 231 L 222 233 L 222 234 L 219 230 L 217 232 L 217 238 L 214 240 L 207 233 L 198 215 L 196 213 L 195 216 L 193 218 L 191 218 L 185 212 L 178 201 L 162 182 L 162 177 L 164 174 L 164 171 L 165 170 L 166 150 L 164 145 L 160 140 L 158 139 L 154 139 L 148 147 L 143 150 L 141 148 L 138 136 L 133 127 L 127 122 L 132 126 L 133 129 L 131 130 L 127 126 L 123 124 L 124 122 L 123 122 L 121 124 L 121 126 L 126 126 L 130 129 L 135 135 L 137 141 L 137 151 L 134 155 L 126 155 L 121 151 L 119 151 L 116 153 L 114 151 L 110 142 L 110 140 L 106 134 L 97 126 Z M 251 309 L 253 311 L 253 313 L 247 319 L 246 319 L 244 316 L 246 312 L 249 309 Z M 258 295 L 259 297 L 251 305 L 249 302 L 255 295 Z M 273 261 L 276 260 L 285 265 L 290 270 L 292 274 L 289 276 L 281 271 L 273 264 Z M 70 182 L 78 183 L 85 189 L 85 193 L 86 195 L 85 196 L 85 199 L 82 202 L 77 202 L 73 200 L 67 195 L 67 193 L 65 191 L 65 188 L 66 185 Z M 67 180 L 69 182 L 65 186 L 65 190 L 63 191 L 61 189 L 62 183 L 65 180 Z M 69 153 L 70 156 L 68 158 L 67 157 L 67 154 Z M 155 142 L 158 144 L 162 149 L 163 155 L 162 156 L 161 162 L 158 167 L 153 171 L 150 171 L 144 165 L 143 158 L 149 147 Z M 157 141 L 158 140 L 163 146 L 161 147 Z M 90 128 L 92 126 L 96 126 L 98 127 L 101 131 L 100 132 L 97 131 L 91 131 Z M 254 83 L 249 83 L 244 85 L 238 91 L 235 97 L 235 105 L 239 111 L 244 115 L 249 114 L 253 110 L 255 105 L 264 93 L 263 89 L 260 86 Z M 255 84 L 263 91 L 263 93 L 255 104 L 252 110 L 248 114 L 244 114 L 237 108 L 235 104 L 235 98 L 237 95 L 237 93 L 245 85 L 248 84 Z M 360 77 L 359 81 L 364 86 L 367 86 L 370 88 L 372 88 L 378 92 L 381 92 L 384 90 L 384 84 L 382 81 L 377 77 L 375 77 L 371 74 L 364 74 Z M 360 78 L 365 74 L 373 75 L 375 77 L 378 78 L 384 84 L 384 89 L 381 92 L 379 92 L 370 87 L 363 85 L 360 82 Z M 467 70 L 467 82 L 464 88 L 458 94 L 449 99 L 449 101 L 457 111 L 460 118 L 467 129 L 466 131 L 466 137 L 466 135 L 469 132 L 466 126 L 460 118 L 456 109 L 450 102 L 450 100 L 453 97 L 459 94 L 464 88 L 467 82 Z M 320 65 L 318 64 L 308 64 L 304 70 L 293 73 L 277 83 L 276 83 L 267 73 L 260 69 L 247 69 L 235 74 L 229 80 L 226 86 L 232 77 L 237 73 L 239 73 L 247 69 L 260 69 L 265 73 L 267 73 L 277 84 L 280 84 L 291 74 L 300 71 L 304 71 L 310 64 L 313 65 Z M 436 58 L 429 61 L 423 67 L 421 70 L 421 76 L 429 82 L 435 88 L 438 89 L 443 93 L 446 92 L 452 87 L 455 81 L 455 76 L 451 67 L 445 61 L 442 59 Z M 432 60 L 435 59 L 440 59 L 442 60 L 451 68 L 454 74 L 454 81 L 451 86 L 445 91 L 441 91 L 439 90 L 433 84 L 421 75 L 421 71 L 423 68 Z M 466 68 L 466 66 L 461 58 L 455 52 L 446 47 L 440 45 L 430 45 L 421 48 L 413 54 L 409 60 L 408 65 L 406 67 L 399 66 L 393 63 L 385 62 L 380 60 L 365 60 L 364 61 L 357 61 L 356 60 L 357 50 L 353 51 L 344 60 L 339 59 L 331 53 L 327 53 L 326 54 L 327 62 L 325 64 L 323 64 L 325 64 L 327 62 L 327 55 L 328 54 L 330 54 L 340 60 L 345 60 L 355 52 L 357 54 L 356 55 L 356 61 L 357 62 L 365 61 L 366 60 L 377 60 L 379 62 L 382 61 L 383 62 L 391 63 L 399 66 L 406 67 L 408 65 L 410 58 L 418 50 L 430 45 L 438 45 L 440 47 L 447 48 L 456 54 L 463 61 L 464 64 L 466 66 Z" fill="#E8E8E8" fill-rule="evenodd"/><path d="M 501 528 L 499 527 L 497 531 L 490 539 L 487 544 L 473 557 L 465 563 L 462 564 L 455 569 L 435 578 L 430 582 L 421 587 L 407 600 L 407 601 L 392 615 L 391 618 L 392 623 L 393 624 L 399 624 L 402 622 L 408 621 L 411 619 L 415 619 L 416 618 L 423 617 L 435 613 L 444 608 L 446 608 L 448 606 L 452 605 L 454 603 L 467 596 L 477 587 L 480 589 L 476 596 L 476 598 L 478 603 L 481 606 L 485 608 L 490 608 L 491 609 L 492 608 L 491 607 L 493 605 L 500 605 L 506 607 L 498 597 L 497 592 L 499 590 L 501 591 L 510 591 L 513 589 L 513 584 L 512 583 L 511 574 L 509 570 L 509 565 L 506 556 L 505 546 L 504 545 L 504 539 L 503 538 L 503 534 Z M 495 588 L 495 598 L 490 602 L 483 602 L 481 600 L 481 597 L 483 595 L 483 593 L 485 591 L 488 590 L 489 587 L 491 585 Z M 494 539 L 498 539 L 499 538 L 502 541 L 503 551 L 500 554 L 496 554 L 494 552 L 494 547 L 491 544 L 492 541 Z M 452 468 L 451 469 L 451 472 L 452 473 L 455 473 L 455 470 Z M 421 460 L 422 463 L 425 466 L 431 468 L 430 465 L 427 462 L 422 459 Z M 517 446 L 518 479 L 519 479 L 522 474 L 522 471 L 524 466 L 524 461 L 523 460 L 523 456 L 520 450 L 520 448 Z M 412 424 L 412 425 L 415 427 L 418 427 L 426 431 L 434 438 L 436 438 L 438 436 L 438 434 L 432 429 L 426 428 L 415 423 Z M 442 406 L 441 407 L 441 414 L 444 418 L 445 416 L 443 413 L 443 407 Z M 436 395 L 435 397 L 438 401 L 441 403 L 442 402 L 440 397 Z M 382 347 L 381 348 L 388 356 L 393 366 L 396 369 L 399 369 L 405 362 L 405 360 L 404 361 L 396 361 Z M 403 336 L 402 337 L 403 339 L 411 347 L 415 355 L 419 358 L 421 357 L 420 353 L 411 342 Z M 422 338 L 424 333 L 424 326 L 422 326 L 422 329 L 420 331 L 416 331 L 410 328 L 409 329 L 418 338 Z M 251 310 L 249 310 L 247 312 L 245 316 L 246 318 L 252 313 Z M 258 296 L 255 296 L 250 303 L 251 304 L 258 297 Z M 389 268 L 388 267 L 385 267 L 368 273 L 364 273 L 363 274 L 359 274 L 353 276 L 347 276 L 346 277 L 329 277 L 328 276 L 323 276 L 322 275 L 313 275 L 312 278 L 320 286 L 335 296 L 344 300 L 352 300 L 359 296 L 361 296 L 376 284 L 387 273 L 389 270 Z M 417 263 L 415 263 L 412 269 L 412 272 L 414 273 L 419 267 L 419 265 Z M 274 261 L 274 264 L 277 267 L 289 275 L 291 274 L 289 270 L 285 266 L 276 261 Z M 447 218 L 447 220 L 451 224 L 451 220 L 449 218 Z M 68 184 L 66 188 L 66 191 L 68 193 L 68 195 L 77 201 L 82 201 L 84 199 L 84 196 L 85 195 L 84 193 L 84 189 L 81 186 L 75 183 L 70 183 Z M 132 164 L 126 163 L 125 162 L 115 163 L 106 168 L 97 177 L 92 185 L 88 197 L 88 203 L 89 206 L 94 212 L 100 215 L 110 215 L 111 214 L 114 214 L 130 206 L 141 198 L 146 190 L 146 181 L 142 173 Z M 237 170 L 237 177 L 238 179 L 241 181 L 248 181 L 253 178 L 261 169 L 263 170 L 263 181 L 266 188 L 273 195 L 282 198 L 284 200 L 285 211 L 292 225 L 302 238 L 315 250 L 324 253 L 327 255 L 339 255 L 345 253 L 358 243 L 361 239 L 367 226 L 367 223 L 370 214 L 370 209 L 371 208 L 371 182 L 370 181 L 369 174 L 365 170 L 362 170 L 360 174 L 349 184 L 347 184 L 342 187 L 336 189 L 332 189 L 331 190 L 321 190 L 320 189 L 311 188 L 304 185 L 298 185 L 290 191 L 283 192 L 277 189 L 273 185 L 271 181 L 271 178 L 270 177 L 271 162 L 270 161 L 264 162 L 260 158 L 254 157 L 253 158 L 250 158 L 243 162 Z M 265 165 L 268 162 L 271 165 L 270 167 L 270 180 L 271 183 L 277 190 L 281 192 L 290 192 L 299 186 L 304 186 L 312 189 L 324 190 L 325 191 L 338 189 L 351 184 L 355 181 L 361 173 L 364 171 L 368 175 L 369 177 L 369 181 L 370 182 L 370 208 L 369 209 L 369 215 L 368 216 L 367 223 L 364 232 L 360 239 L 357 242 L 355 240 L 358 235 L 358 233 L 361 228 L 361 225 L 362 224 L 362 217 L 361 215 L 357 211 L 348 207 L 339 207 L 333 209 L 326 213 L 315 223 L 312 228 L 312 235 L 313 238 L 322 249 L 319 251 L 311 246 L 298 232 L 290 220 L 286 212 L 285 200 L 283 198 L 273 194 L 265 185 L 263 179 L 263 172 L 264 171 L 264 167 Z M 377 153 L 377 156 L 379 160 L 386 166 L 395 169 L 411 170 L 421 166 L 425 161 L 425 156 L 423 152 L 420 149 L 412 145 L 404 144 L 403 143 L 388 144 L 382 147 Z M 155 143 L 150 147 L 144 158 L 145 165 L 150 170 L 153 170 L 157 167 L 160 162 L 161 156 L 162 155 L 161 149 L 159 146 Z M 302 136 L 305 137 L 311 135 L 318 135 L 324 137 L 331 137 L 331 136 L 327 133 L 324 132 L 318 132 L 317 131 L 315 132 L 308 132 Z M 279 124 L 275 128 L 272 134 L 272 139 L 271 140 L 273 148 L 277 151 L 274 157 L 274 163 L 279 172 L 288 178 L 296 179 L 297 180 L 307 178 L 318 172 L 324 163 L 325 160 L 325 154 L 320 149 L 309 145 L 293 145 L 292 146 L 286 147 L 285 145 L 288 140 L 288 137 L 289 136 L 288 128 L 285 124 L 282 123 Z M 275 156 L 279 151 L 292 146 L 295 146 L 296 145 L 307 145 L 320 150 L 324 154 L 324 162 L 321 167 L 315 173 L 307 177 L 295 179 L 294 178 L 290 178 L 284 175 L 277 168 L 274 161 Z M 284 125 L 288 130 L 288 138 L 287 141 L 281 148 L 279 149 L 275 149 L 272 145 L 272 136 L 275 130 L 279 125 Z M 363 118 L 359 122 L 357 126 L 356 137 L 357 138 L 358 144 L 362 148 L 368 148 L 372 145 L 375 138 L 375 128 L 373 124 L 368 119 Z M 363 119 L 367 119 L 373 125 L 374 131 L 375 132 L 373 142 L 368 147 L 362 147 L 359 144 L 357 140 L 357 128 L 359 123 Z M 293 88 L 291 86 L 285 86 L 279 89 L 276 92 L 274 96 L 274 100 L 276 102 L 280 101 L 286 96 L 291 94 L 293 91 Z M 292 89 L 292 91 L 289 94 L 280 100 L 277 101 L 275 99 L 275 95 L 281 89 L 287 86 L 290 87 Z M 255 85 L 248 85 L 245 86 L 238 93 L 238 95 L 236 98 L 236 104 L 238 108 L 244 113 L 248 113 L 251 110 L 254 104 L 262 93 L 262 91 Z M 361 78 L 361 82 L 363 84 L 370 86 L 379 91 L 381 91 L 383 89 L 383 84 L 378 79 L 375 78 L 373 76 L 365 75 Z M 362 79 L 365 76 L 370 76 L 373 78 L 375 78 L 383 85 L 383 88 L 381 90 L 378 90 L 370 85 L 365 84 L 362 81 Z M 432 61 L 424 68 L 422 71 L 422 75 L 424 77 L 427 78 L 439 89 L 441 90 L 445 90 L 449 87 L 453 81 L 453 74 L 450 68 L 442 61 L 440 60 Z M 439 43 L 431 43 L 418 48 L 414 51 L 409 57 L 407 63 L 405 65 L 402 65 L 399 63 L 390 60 L 380 59 L 379 58 L 359 59 L 358 58 L 358 54 L 360 50 L 359 48 L 355 48 L 353 49 L 344 58 L 340 57 L 332 51 L 327 50 L 324 52 L 325 61 L 323 63 L 316 63 L 315 62 L 308 62 L 304 64 L 304 67 L 302 69 L 291 72 L 280 78 L 278 80 L 276 80 L 273 76 L 267 71 L 258 67 L 249 67 L 248 68 L 242 69 L 234 73 L 228 79 L 222 91 L 222 94 L 221 95 L 221 106 L 225 115 L 231 121 L 236 124 L 238 124 L 241 127 L 241 130 L 232 148 L 232 154 L 233 157 L 223 168 L 221 172 L 222 175 L 227 175 L 228 174 L 230 176 L 228 181 L 225 185 L 223 193 L 225 196 L 228 195 L 231 196 L 231 199 L 229 202 L 229 205 L 228 206 L 228 214 L 230 217 L 232 217 L 234 215 L 237 217 L 236 219 L 236 227 L 240 237 L 241 238 L 247 237 L 249 241 L 261 251 L 272 268 L 272 272 L 270 274 L 266 274 L 264 272 L 257 259 L 251 253 L 249 253 L 249 256 L 247 258 L 245 258 L 243 256 L 238 245 L 236 243 L 234 243 L 233 245 L 230 247 L 227 244 L 224 234 L 222 230 L 219 227 L 218 227 L 216 230 L 216 235 L 213 237 L 206 228 L 197 211 L 195 211 L 192 215 L 190 215 L 187 212 L 178 198 L 166 185 L 163 180 L 164 176 L 166 173 L 166 167 L 167 166 L 167 148 L 165 143 L 160 138 L 155 137 L 153 138 L 145 147 L 143 147 L 138 132 L 133 124 L 127 120 L 123 120 L 121 121 L 118 126 L 118 148 L 117 149 L 114 147 L 114 145 L 109 135 L 100 126 L 98 125 L 91 125 L 86 131 L 86 143 L 89 151 L 93 156 L 93 158 L 91 159 L 86 153 L 77 148 L 70 148 L 66 153 L 66 162 L 73 176 L 71 178 L 65 178 L 63 179 L 59 184 L 60 192 L 67 204 L 79 216 L 84 219 L 89 224 L 93 226 L 98 231 L 102 240 L 102 242 L 104 245 L 104 247 L 110 259 L 119 272 L 133 287 L 145 295 L 151 301 L 149 303 L 145 303 L 144 306 L 152 313 L 160 317 L 168 319 L 174 323 L 172 326 L 170 326 L 168 328 L 168 330 L 170 332 L 194 340 L 196 342 L 195 347 L 197 349 L 203 350 L 204 351 L 210 351 L 214 354 L 214 356 L 216 358 L 222 361 L 226 361 L 227 360 L 228 354 L 232 346 L 238 340 L 242 343 L 241 349 L 237 356 L 237 363 L 235 367 L 234 375 L 232 379 L 227 384 L 224 389 L 225 391 L 229 391 L 231 393 L 228 398 L 219 407 L 216 412 L 217 415 L 222 415 L 224 414 L 226 417 L 222 424 L 217 430 L 213 438 L 213 442 L 214 443 L 217 443 L 219 441 L 222 442 L 222 445 L 216 462 L 216 469 L 219 471 L 224 465 L 226 467 L 225 468 L 225 473 L 223 479 L 223 492 L 226 493 L 229 488 L 231 489 L 231 496 L 232 497 L 232 501 L 234 505 L 234 508 L 239 518 L 248 529 L 251 531 L 256 532 L 262 535 L 269 541 L 273 543 L 277 539 L 285 536 L 293 527 L 298 524 L 306 517 L 319 511 L 334 501 L 336 501 L 348 495 L 354 494 L 355 493 L 360 493 L 361 492 L 374 492 L 380 495 L 378 498 L 365 500 L 353 504 L 350 506 L 348 506 L 332 514 L 327 518 L 312 525 L 304 532 L 304 533 L 309 537 L 306 540 L 302 542 L 296 543 L 290 546 L 284 551 L 281 555 L 281 557 L 283 559 L 282 565 L 278 570 L 275 582 L 271 588 L 267 597 L 265 599 L 257 617 L 257 620 L 266 626 L 270 630 L 269 632 L 263 631 L 262 630 L 255 630 L 254 629 L 241 628 L 240 627 L 223 627 L 216 630 L 212 633 L 207 639 L 207 644 L 209 646 L 210 650 L 215 659 L 218 659 L 219 658 L 219 654 L 218 653 L 218 645 L 219 642 L 223 638 L 230 637 L 231 638 L 231 642 L 230 643 L 229 653 L 228 654 L 228 659 L 230 661 L 238 662 L 251 669 L 253 669 L 259 674 L 265 677 L 267 677 L 274 681 L 280 682 L 281 683 L 285 683 L 297 687 L 302 687 L 303 688 L 325 688 L 328 687 L 335 680 L 340 668 L 344 662 L 349 658 L 354 649 L 361 641 L 365 635 L 368 628 L 373 623 L 375 616 L 381 608 L 385 604 L 387 604 L 396 595 L 397 595 L 412 580 L 430 568 L 453 557 L 466 548 L 482 531 L 489 518 L 491 516 L 492 512 L 494 510 L 500 492 L 500 477 L 502 475 L 504 476 L 505 475 L 505 460 L 501 448 L 501 444 L 505 442 L 506 440 L 491 415 L 491 413 L 493 411 L 499 413 L 500 412 L 499 408 L 487 397 L 486 395 L 486 391 L 488 387 L 486 383 L 481 377 L 478 369 L 476 367 L 463 367 L 462 366 L 458 366 L 447 362 L 438 354 L 438 351 L 440 349 L 442 350 L 446 350 L 447 351 L 451 351 L 456 353 L 460 353 L 469 356 L 472 356 L 473 353 L 476 351 L 488 358 L 494 358 L 499 360 L 504 360 L 508 362 L 518 372 L 525 376 L 531 382 L 530 401 L 534 408 L 537 411 L 544 415 L 547 415 L 548 416 L 550 416 L 552 414 L 550 408 L 550 402 L 553 400 L 558 405 L 563 413 L 569 418 L 571 418 L 574 420 L 584 420 L 587 416 L 587 403 L 590 400 L 596 405 L 597 408 L 600 411 L 604 409 L 608 405 L 609 402 L 609 396 L 608 395 L 606 385 L 609 382 L 614 386 L 615 389 L 617 391 L 618 391 L 621 387 L 621 376 L 620 375 L 620 371 L 617 362 L 615 359 L 615 357 L 608 346 L 598 337 L 599 335 L 602 335 L 607 333 L 599 324 L 589 320 L 586 317 L 586 315 L 591 311 L 591 308 L 589 306 L 578 301 L 575 301 L 569 298 L 566 295 L 566 293 L 569 290 L 572 289 L 572 287 L 570 285 L 568 285 L 565 283 L 561 283 L 560 282 L 554 282 L 553 281 L 546 281 L 543 280 L 541 277 L 548 272 L 547 270 L 542 268 L 520 267 L 518 265 L 520 261 L 515 259 L 512 259 L 511 260 L 503 260 L 497 262 L 491 262 L 489 260 L 489 256 L 485 254 L 474 254 L 466 257 L 456 258 L 455 259 L 447 260 L 446 261 L 443 259 L 450 252 L 460 245 L 464 241 L 467 235 L 467 232 L 469 227 L 469 222 L 471 220 L 474 222 L 477 221 L 477 216 L 478 215 L 477 199 L 479 198 L 483 202 L 485 201 L 485 193 L 478 177 L 480 175 L 486 177 L 488 174 L 487 171 L 482 164 L 474 156 L 474 154 L 476 152 L 478 153 L 482 153 L 484 150 L 480 145 L 472 141 L 469 138 L 472 134 L 472 132 L 463 120 L 458 109 L 453 102 L 453 101 L 464 91 L 467 86 L 468 80 L 469 79 L 469 73 L 468 72 L 467 65 L 463 58 L 454 49 L 449 46 L 443 44 L 440 44 Z M 246 649 L 247 649 L 256 658 L 257 663 L 255 665 L 252 665 L 247 660 L 244 653 L 244 651 Z M 498 435 L 500 434 L 502 437 L 500 438 Z M 171 329 L 172 328 L 176 328 L 181 332 L 178 334 L 176 332 L 173 332 Z M 245 326 L 246 328 L 243 334 L 241 335 L 240 334 L 241 330 L 243 327 Z M 147 307 L 149 305 L 150 306 L 154 306 L 162 312 L 160 314 L 157 314 L 151 311 Z M 440 44 L 446 46 L 455 51 L 462 58 L 467 66 L 467 69 L 468 70 L 468 82 L 463 91 L 459 95 L 453 98 L 451 100 L 451 102 L 457 109 L 461 118 L 467 126 L 470 132 L 467 135 L 467 138 L 480 146 L 483 150 L 481 152 L 473 152 L 472 155 L 484 168 L 486 171 L 486 174 L 484 176 L 481 174 L 478 174 L 477 175 L 478 181 L 483 190 L 484 198 L 482 199 L 479 196 L 476 196 L 475 197 L 477 216 L 475 219 L 472 217 L 469 217 L 468 226 L 467 227 L 467 232 L 464 239 L 460 243 L 458 241 L 456 234 L 454 234 L 451 240 L 444 249 L 444 252 L 441 254 L 438 250 L 436 249 L 434 254 L 425 264 L 424 268 L 425 269 L 428 269 L 434 267 L 440 263 L 447 262 L 451 260 L 465 258 L 474 255 L 483 255 L 487 258 L 487 262 L 488 263 L 495 263 L 496 262 L 505 261 L 506 260 L 514 260 L 517 263 L 515 266 L 516 267 L 520 267 L 521 268 L 537 268 L 538 269 L 541 269 L 543 271 L 539 276 L 539 279 L 541 281 L 548 281 L 549 282 L 556 282 L 557 283 L 565 284 L 568 287 L 568 289 L 564 293 L 564 296 L 570 300 L 575 301 L 584 305 L 588 309 L 585 314 L 585 317 L 591 322 L 598 325 L 603 330 L 603 333 L 602 334 L 596 334 L 595 336 L 601 341 L 612 353 L 615 359 L 616 364 L 618 367 L 620 381 L 619 382 L 619 385 L 617 387 L 611 381 L 608 381 L 605 384 L 605 388 L 608 396 L 608 402 L 603 408 L 599 408 L 593 399 L 588 399 L 586 400 L 586 410 L 587 411 L 587 414 L 583 419 L 576 419 L 575 418 L 572 418 L 569 416 L 562 409 L 561 406 L 557 401 L 553 398 L 550 398 L 549 399 L 548 404 L 549 405 L 550 414 L 548 415 L 538 410 L 532 402 L 531 399 L 532 381 L 531 379 L 519 370 L 506 356 L 503 355 L 496 355 L 491 349 L 487 349 L 485 351 L 481 351 L 473 346 L 463 345 L 460 343 L 442 337 L 441 338 L 447 343 L 451 348 L 448 350 L 442 348 L 438 348 L 437 349 L 437 354 L 438 356 L 449 366 L 449 377 L 453 379 L 458 379 L 465 385 L 470 392 L 471 398 L 472 399 L 473 409 L 469 414 L 467 414 L 466 416 L 469 425 L 478 434 L 479 437 L 482 440 L 481 443 L 477 444 L 473 440 L 470 441 L 468 439 L 463 437 L 464 445 L 469 451 L 471 451 L 474 449 L 476 450 L 481 456 L 482 463 L 480 465 L 476 464 L 475 466 L 476 473 L 473 476 L 469 473 L 468 474 L 467 491 L 464 500 L 459 505 L 457 505 L 450 514 L 444 526 L 442 528 L 439 526 L 434 530 L 432 528 L 432 525 L 431 522 L 430 522 L 429 525 L 427 527 L 423 541 L 419 548 L 416 551 L 411 561 L 401 571 L 393 577 L 389 581 L 386 586 L 381 590 L 377 602 L 374 604 L 374 607 L 372 609 L 367 610 L 358 619 L 357 627 L 354 632 L 354 634 L 348 639 L 346 644 L 341 649 L 338 650 L 333 656 L 333 659 L 330 663 L 329 669 L 331 672 L 333 672 L 335 674 L 333 677 L 331 676 L 330 681 L 328 682 L 325 686 L 322 687 L 302 687 L 301 686 L 297 686 L 290 682 L 275 680 L 268 674 L 262 672 L 258 666 L 258 657 L 249 646 L 247 645 L 243 646 L 241 649 L 241 654 L 240 655 L 234 655 L 232 653 L 232 643 L 234 639 L 231 636 L 225 636 L 221 638 L 219 640 L 217 644 L 217 647 L 215 649 L 213 648 L 212 643 L 210 641 L 210 637 L 216 631 L 225 627 L 234 627 L 235 628 L 242 628 L 243 629 L 248 629 L 249 630 L 255 630 L 256 631 L 265 632 L 273 635 L 274 632 L 269 627 L 263 624 L 259 620 L 259 614 L 264 602 L 266 600 L 276 582 L 276 579 L 278 575 L 279 569 L 283 565 L 286 558 L 289 555 L 287 550 L 294 544 L 297 544 L 300 542 L 303 542 L 306 540 L 308 540 L 311 537 L 310 530 L 319 522 L 325 520 L 328 517 L 347 507 L 368 500 L 380 499 L 382 498 L 383 496 L 380 493 L 374 491 L 363 491 L 362 492 L 355 492 L 351 494 L 348 494 L 332 501 L 316 512 L 303 518 L 299 522 L 291 527 L 283 536 L 280 537 L 273 536 L 271 534 L 270 529 L 268 527 L 265 528 L 265 532 L 263 533 L 251 520 L 246 524 L 237 513 L 236 509 L 234 506 L 233 500 L 232 499 L 232 485 L 230 483 L 227 489 L 225 491 L 223 490 L 223 483 L 224 482 L 224 477 L 225 476 L 227 462 L 226 461 L 219 469 L 216 467 L 217 459 L 223 444 L 223 440 L 221 439 L 217 442 L 215 442 L 213 440 L 219 428 L 223 424 L 227 417 L 227 414 L 226 413 L 220 415 L 217 413 L 218 410 L 232 393 L 231 390 L 228 390 L 227 391 L 225 389 L 232 380 L 234 376 L 247 367 L 252 362 L 255 357 L 254 355 L 251 355 L 249 356 L 241 365 L 238 364 L 237 357 L 243 345 L 242 338 L 247 328 L 248 323 L 246 322 L 242 326 L 238 334 L 238 336 L 236 338 L 227 338 L 226 337 L 215 336 L 214 335 L 214 332 L 216 330 L 219 329 L 222 326 L 222 324 L 212 324 L 204 321 L 199 317 L 187 317 L 185 316 L 183 313 L 189 308 L 187 305 L 178 304 L 175 302 L 170 301 L 168 299 L 157 294 L 120 261 L 121 265 L 126 273 L 124 274 L 117 267 L 113 260 L 110 257 L 110 255 L 106 249 L 106 247 L 103 242 L 103 240 L 100 235 L 98 229 L 72 208 L 67 202 L 60 190 L 60 184 L 64 179 L 73 179 L 75 177 L 85 179 L 90 175 L 91 172 L 90 167 L 87 163 L 77 155 L 72 155 L 70 159 L 67 161 L 66 160 L 66 154 L 70 149 L 73 148 L 83 152 L 92 161 L 94 161 L 96 159 L 104 160 L 108 157 L 109 155 L 109 149 L 107 146 L 106 142 L 100 134 L 96 132 L 92 132 L 88 137 L 86 136 L 88 129 L 92 125 L 97 125 L 107 134 L 111 140 L 113 147 L 116 152 L 119 150 L 121 150 L 126 154 L 134 154 L 136 151 L 136 141 L 134 135 L 132 132 L 126 127 L 121 127 L 120 126 L 120 124 L 123 121 L 127 121 L 129 122 L 134 127 L 139 136 L 141 142 L 141 145 L 143 149 L 147 147 L 154 138 L 158 138 L 160 139 L 165 145 L 167 150 L 166 170 L 165 171 L 165 174 L 163 177 L 163 182 L 179 201 L 186 212 L 191 217 L 193 217 L 194 214 L 196 212 L 199 215 L 208 233 L 214 239 L 216 238 L 216 232 L 219 229 L 223 233 L 226 243 L 230 249 L 232 249 L 233 246 L 235 244 L 239 248 L 239 250 L 243 258 L 247 261 L 249 260 L 249 256 L 251 254 L 259 264 L 264 274 L 266 276 L 268 276 L 272 273 L 273 270 L 271 264 L 262 251 L 255 244 L 252 243 L 250 241 L 249 236 L 247 233 L 246 233 L 243 237 L 239 234 L 237 229 L 238 215 L 235 213 L 231 216 L 228 213 L 228 208 L 233 193 L 229 193 L 226 195 L 224 193 L 224 190 L 226 184 L 231 177 L 231 174 L 229 173 L 224 175 L 222 173 L 222 171 L 233 158 L 233 152 L 232 150 L 242 128 L 242 125 L 232 121 L 225 114 L 222 108 L 222 105 L 221 104 L 222 93 L 228 80 L 235 73 L 241 70 L 247 68 L 260 68 L 267 72 L 275 80 L 275 81 L 277 82 L 293 72 L 304 69 L 305 66 L 308 63 L 318 63 L 319 64 L 325 63 L 326 62 L 325 54 L 327 52 L 331 52 L 339 58 L 344 59 L 353 50 L 356 49 L 358 50 L 357 60 L 364 60 L 365 59 L 380 59 L 385 61 L 393 62 L 399 65 L 406 66 L 408 60 L 412 54 L 421 47 L 430 44 Z M 448 36 L 445 36 L 440 34 L 430 34 L 429 35 L 425 35 L 416 38 L 408 43 L 399 54 L 394 52 L 387 51 L 386 50 L 378 50 L 377 49 L 371 50 L 360 40 L 353 40 L 350 41 L 344 46 L 339 46 L 337 44 L 331 42 L 323 42 L 322 43 L 319 43 L 317 45 L 316 50 L 313 54 L 302 56 L 290 62 L 281 68 L 279 68 L 269 61 L 263 59 L 260 59 L 259 58 L 248 58 L 247 59 L 243 59 L 237 61 L 224 69 L 217 77 L 213 85 L 212 91 L 211 92 L 211 108 L 213 114 L 221 126 L 229 133 L 222 149 L 222 157 L 214 166 L 212 170 L 212 177 L 216 182 L 216 185 L 214 189 L 214 197 L 216 201 L 219 204 L 219 214 L 215 218 L 211 218 L 209 216 L 204 206 L 199 201 L 192 201 L 189 198 L 182 187 L 179 185 L 174 179 L 174 175 L 176 171 L 176 165 L 177 164 L 177 147 L 174 138 L 168 131 L 162 128 L 153 128 L 150 130 L 147 130 L 145 128 L 141 120 L 132 112 L 126 110 L 118 111 L 116 112 L 109 120 L 107 120 L 102 116 L 99 115 L 90 115 L 85 117 L 79 122 L 77 126 L 76 136 L 74 138 L 69 138 L 64 140 L 58 146 L 55 153 L 55 162 L 57 166 L 57 171 L 50 179 L 50 192 L 54 203 L 68 219 L 89 236 L 93 249 L 97 257 L 99 259 L 103 268 L 113 281 L 133 300 L 133 307 L 135 311 L 141 317 L 154 324 L 158 328 L 159 334 L 162 338 L 165 340 L 180 345 L 188 354 L 200 358 L 209 366 L 212 367 L 214 369 L 218 370 L 221 373 L 221 377 L 219 379 L 215 387 L 215 395 L 216 397 L 207 410 L 207 419 L 209 421 L 210 425 L 208 427 L 204 435 L 204 439 L 203 440 L 204 448 L 208 454 L 207 466 L 206 467 L 207 476 L 212 483 L 214 497 L 217 502 L 219 503 L 223 508 L 223 510 L 229 523 L 240 535 L 245 538 L 260 553 L 263 555 L 265 555 L 268 559 L 258 589 L 252 597 L 246 615 L 244 617 L 223 616 L 222 617 L 219 617 L 210 620 L 203 626 L 199 632 L 195 641 L 194 649 L 195 650 L 196 657 L 200 664 L 210 674 L 226 684 L 228 684 L 230 686 L 232 686 L 237 689 L 249 693 L 252 693 L 261 696 L 265 696 L 266 697 L 282 698 L 283 699 L 296 699 L 297 700 L 320 700 L 321 699 L 332 698 L 340 695 L 344 691 L 351 678 L 352 673 L 356 665 L 368 654 L 376 640 L 383 634 L 388 634 L 389 635 L 404 635 L 405 634 L 408 634 L 417 630 L 419 630 L 422 628 L 430 626 L 433 624 L 443 622 L 447 620 L 450 620 L 452 618 L 457 617 L 467 612 L 485 618 L 502 618 L 505 616 L 507 616 L 516 610 L 521 604 L 521 602 L 523 599 L 523 595 L 524 594 L 524 580 L 523 579 L 523 574 L 522 573 L 521 565 L 519 560 L 519 556 L 516 547 L 516 543 L 515 542 L 512 527 L 509 519 L 509 512 L 512 506 L 529 487 L 533 479 L 535 473 L 535 470 L 536 469 L 536 458 L 535 457 L 534 448 L 530 440 L 524 434 L 516 429 L 510 423 L 509 420 L 509 409 L 508 406 L 502 398 L 500 387 L 498 383 L 498 378 L 501 376 L 502 377 L 508 378 L 515 382 L 519 386 L 519 401 L 523 410 L 535 422 L 547 427 L 564 427 L 565 428 L 572 428 L 573 429 L 585 429 L 586 428 L 591 428 L 596 425 L 598 425 L 600 423 L 602 423 L 608 420 L 623 404 L 624 404 L 628 399 L 632 389 L 632 373 L 631 372 L 631 368 L 628 362 L 628 359 L 619 341 L 619 336 L 617 330 L 612 323 L 606 317 L 601 304 L 595 298 L 589 295 L 587 295 L 583 291 L 582 281 L 577 275 L 571 273 L 568 273 L 567 272 L 562 272 L 557 267 L 555 263 L 552 260 L 548 258 L 530 257 L 522 251 L 502 251 L 493 247 L 479 245 L 477 243 L 478 235 L 484 229 L 486 224 L 486 215 L 487 213 L 491 210 L 495 203 L 495 193 L 493 188 L 496 185 L 498 181 L 498 175 L 497 174 L 496 168 L 492 162 L 492 158 L 494 155 L 494 148 L 483 136 L 478 124 L 466 105 L 469 100 L 473 96 L 478 85 L 479 71 L 478 70 L 477 63 L 475 60 L 474 56 L 465 45 L 461 42 Z M 445 36 L 451 38 L 462 44 L 472 54 L 476 62 L 478 68 L 478 73 L 479 74 L 478 84 L 474 93 L 465 103 L 465 105 L 470 112 L 475 122 L 479 127 L 482 133 L 483 138 L 493 147 L 494 150 L 494 154 L 491 158 L 491 161 L 496 169 L 497 176 L 498 177 L 497 182 L 493 186 L 493 190 L 495 195 L 495 201 L 493 206 L 486 214 L 485 225 L 477 235 L 476 244 L 482 247 L 490 247 L 491 248 L 494 248 L 503 252 L 508 252 L 509 251 L 510 252 L 513 252 L 514 251 L 516 252 L 522 252 L 528 257 L 531 258 L 547 259 L 551 261 L 555 265 L 556 269 L 559 272 L 573 275 L 576 277 L 581 282 L 582 285 L 581 292 L 585 295 L 595 299 L 599 303 L 603 310 L 603 314 L 612 324 L 617 332 L 617 337 L 618 338 L 618 342 L 620 348 L 625 355 L 631 370 L 631 377 L 632 378 L 632 387 L 631 388 L 631 391 L 626 401 L 622 404 L 609 418 L 600 423 L 598 423 L 592 427 L 583 428 L 582 429 L 573 428 L 572 427 L 549 427 L 538 423 L 524 410 L 520 401 L 520 387 L 516 382 L 504 376 L 497 376 L 496 377 L 497 383 L 500 389 L 500 395 L 501 398 L 508 408 L 508 413 L 509 414 L 508 416 L 508 420 L 509 423 L 513 428 L 525 436 L 530 441 L 534 449 L 535 462 L 536 463 L 534 475 L 528 487 L 518 496 L 515 494 L 513 495 L 512 503 L 508 511 L 508 518 L 511 525 L 511 528 L 513 532 L 513 535 L 516 544 L 516 548 L 519 557 L 519 561 L 520 562 L 521 571 L 522 572 L 522 577 L 523 578 L 523 583 L 524 584 L 524 591 L 523 592 L 522 600 L 519 606 L 511 613 L 500 618 L 481 617 L 468 610 L 463 610 L 460 614 L 448 620 L 445 620 L 441 622 L 435 623 L 432 625 L 424 627 L 408 634 L 393 635 L 392 634 L 385 634 L 382 633 L 377 638 L 369 651 L 356 664 L 352 672 L 352 674 L 343 690 L 338 695 L 331 698 L 327 698 L 326 699 L 316 699 L 315 700 L 300 700 L 299 699 L 275 698 L 274 697 L 263 696 L 262 695 L 258 695 L 250 692 L 247 692 L 238 688 L 236 688 L 231 685 L 229 685 L 227 683 L 220 680 L 211 674 L 205 669 L 200 663 L 199 660 L 197 658 L 196 652 L 195 651 L 196 640 L 201 630 L 208 623 L 218 618 L 226 617 L 227 616 L 240 617 L 241 618 L 245 618 L 246 617 L 251 601 L 259 589 L 260 585 L 262 582 L 265 568 L 266 567 L 266 564 L 267 562 L 273 557 L 273 556 L 270 554 L 264 554 L 262 553 L 251 542 L 240 534 L 230 523 L 226 516 L 225 511 L 222 505 L 214 496 L 214 493 L 213 492 L 213 484 L 211 480 L 208 477 L 207 474 L 208 453 L 204 447 L 204 437 L 208 428 L 210 426 L 210 421 L 207 417 L 207 412 L 209 407 L 216 399 L 216 387 L 220 379 L 222 377 L 223 373 L 220 370 L 216 369 L 207 364 L 201 358 L 193 356 L 187 353 L 185 351 L 185 349 L 181 345 L 166 340 L 163 338 L 159 333 L 158 326 L 141 316 L 135 310 L 133 306 L 133 299 L 114 281 L 102 265 L 97 254 L 94 250 L 94 248 L 91 242 L 90 236 L 86 232 L 77 226 L 58 207 L 51 195 L 51 192 L 50 191 L 50 181 L 52 177 L 58 171 L 58 168 L 56 164 L 56 159 L 55 158 L 56 151 L 58 147 L 65 140 L 68 139 L 75 139 L 76 138 L 77 127 L 79 123 L 85 118 L 92 115 L 96 115 L 102 117 L 106 121 L 109 121 L 116 113 L 120 111 L 128 111 L 134 114 L 141 121 L 147 132 L 155 128 L 160 128 L 165 130 L 172 136 L 175 141 L 176 148 L 177 149 L 177 163 L 176 164 L 175 173 L 173 176 L 174 181 L 184 191 L 186 195 L 191 201 L 197 201 L 199 202 L 203 206 L 209 217 L 211 219 L 216 219 L 219 217 L 219 202 L 215 198 L 214 195 L 214 190 L 217 184 L 217 182 L 213 178 L 212 176 L 212 172 L 214 167 L 223 157 L 223 154 L 222 153 L 223 151 L 223 147 L 227 138 L 229 136 L 230 132 L 222 126 L 215 117 L 211 105 L 211 94 L 212 93 L 212 89 L 215 83 L 215 81 L 219 75 L 225 69 L 229 67 L 232 64 L 245 59 L 260 59 L 261 60 L 264 60 L 267 62 L 269 62 L 277 68 L 281 69 L 288 64 L 304 56 L 315 55 L 316 54 L 317 46 L 321 43 L 332 43 L 339 46 L 341 48 L 343 48 L 352 41 L 360 41 L 365 45 L 366 48 L 368 50 L 381 50 L 382 51 L 387 51 L 396 54 L 401 54 L 405 47 L 408 44 L 418 38 L 424 36 L 427 36 L 428 35 L 441 35 L 442 36 Z" fill="#B1B1B1" fill-rule="evenodd"/><path d="M 246 650 L 245 651 L 245 653 L 248 660 L 252 664 L 255 664 L 256 663 L 256 660 L 255 658 L 247 650 Z M 245 327 L 244 327 L 244 328 L 242 330 L 241 334 L 242 334 Z M 266 165 L 265 167 L 265 171 L 264 172 L 264 179 L 265 180 L 265 183 L 266 185 L 273 193 L 283 197 L 286 200 L 286 207 L 287 208 L 287 212 L 291 220 L 293 222 L 294 225 L 299 231 L 299 232 L 311 245 L 319 250 L 321 249 L 321 248 L 312 238 L 312 236 L 311 235 L 311 228 L 314 223 L 326 212 L 333 208 L 335 208 L 339 206 L 348 206 L 349 207 L 351 207 L 357 210 L 362 215 L 363 217 L 363 224 L 362 225 L 362 228 L 359 233 L 359 235 L 356 240 L 357 241 L 359 239 L 363 232 L 363 230 L 366 223 L 366 220 L 367 219 L 367 216 L 368 215 L 368 209 L 369 208 L 369 182 L 368 181 L 368 177 L 364 172 L 363 172 L 359 177 L 359 178 L 351 185 L 347 186 L 344 188 L 339 189 L 338 190 L 325 192 L 324 191 L 317 191 L 316 190 L 312 190 L 311 189 L 308 189 L 304 187 L 299 187 L 290 193 L 281 193 L 277 191 L 271 185 L 270 181 L 269 180 L 269 167 L 270 165 L 268 163 Z M 276 156 L 275 161 L 278 168 L 284 174 L 290 177 L 294 177 L 295 178 L 307 176 L 315 172 L 320 167 L 323 162 L 323 154 L 320 151 L 314 148 L 308 147 L 307 146 L 296 146 L 295 147 L 292 147 L 291 148 L 289 148 L 288 149 L 286 149 L 279 152 Z M 284 126 L 279 126 L 273 136 L 273 145 L 275 148 L 279 148 L 281 147 L 286 141 L 286 139 L 287 138 L 287 130 Z M 363 120 L 360 123 L 359 127 L 358 128 L 358 140 L 360 144 L 362 146 L 368 146 L 372 142 L 373 136 L 374 135 L 374 132 L 373 131 L 372 125 L 367 120 Z M 291 89 L 287 87 L 281 90 L 276 95 L 276 99 L 277 100 L 280 99 L 282 97 L 289 93 L 291 91 Z M 363 79 L 363 81 L 367 84 L 370 84 L 376 87 L 378 89 L 381 89 L 382 88 L 382 85 L 375 79 L 373 79 L 370 77 L 365 77 Z M 445 37 L 442 37 L 441 36 L 428 36 L 427 37 L 424 37 L 423 38 L 418 39 L 408 45 L 401 55 L 396 55 L 395 54 L 392 54 L 391 53 L 388 53 L 387 52 L 382 52 L 381 51 L 368 51 L 365 48 L 364 45 L 360 42 L 352 42 L 343 49 L 341 49 L 339 47 L 332 44 L 321 44 L 318 46 L 318 48 L 317 49 L 317 54 L 315 56 L 304 57 L 288 65 L 281 70 L 277 69 L 269 63 L 267 63 L 264 61 L 261 61 L 260 60 L 245 60 L 244 61 L 241 61 L 232 65 L 229 68 L 225 70 L 220 75 L 220 76 L 216 81 L 216 83 L 213 89 L 213 93 L 212 94 L 212 105 L 213 106 L 213 110 L 215 113 L 215 115 L 218 120 L 222 124 L 222 125 L 223 125 L 231 132 L 230 136 L 228 138 L 224 147 L 224 151 L 223 152 L 224 154 L 224 157 L 215 167 L 214 171 L 213 172 L 213 176 L 218 182 L 218 184 L 215 190 L 215 195 L 216 196 L 216 198 L 220 202 L 220 217 L 216 220 L 211 220 L 208 217 L 206 212 L 199 203 L 197 202 L 191 202 L 185 195 L 183 191 L 173 181 L 172 179 L 172 176 L 174 173 L 174 170 L 175 169 L 175 164 L 176 163 L 176 149 L 175 148 L 175 144 L 174 143 L 174 141 L 171 136 L 165 131 L 161 130 L 160 129 L 155 129 L 147 133 L 145 131 L 140 121 L 134 115 L 128 112 L 120 112 L 116 114 L 109 122 L 106 122 L 102 118 L 100 117 L 97 117 L 96 116 L 92 116 L 85 119 L 80 123 L 78 127 L 77 138 L 75 140 L 68 140 L 67 141 L 65 141 L 59 147 L 57 151 L 56 158 L 57 159 L 57 164 L 59 168 L 59 171 L 53 177 L 51 181 L 51 191 L 52 192 L 52 195 L 56 203 L 59 206 L 59 207 L 77 225 L 78 225 L 81 228 L 86 231 L 91 236 L 92 242 L 95 248 L 95 250 L 98 254 L 103 265 L 110 274 L 110 275 L 115 280 L 115 281 L 134 299 L 134 306 L 136 310 L 141 315 L 157 324 L 159 326 L 159 328 L 160 329 L 160 333 L 163 337 L 164 337 L 166 339 L 168 339 L 169 340 L 171 340 L 172 341 L 174 341 L 181 344 L 186 349 L 186 351 L 193 355 L 201 357 L 207 363 L 216 368 L 220 369 L 224 373 L 223 377 L 221 379 L 217 387 L 217 399 L 210 407 L 209 411 L 208 412 L 208 417 L 211 421 L 211 426 L 209 428 L 205 437 L 205 447 L 207 451 L 209 453 L 209 460 L 208 461 L 208 474 L 209 475 L 209 477 L 212 480 L 214 484 L 214 492 L 215 493 L 215 496 L 216 498 L 223 505 L 226 511 L 227 516 L 231 523 L 240 533 L 241 533 L 250 541 L 251 541 L 262 552 L 264 553 L 270 553 L 272 554 L 274 556 L 274 557 L 272 559 L 271 559 L 267 564 L 267 567 L 266 568 L 266 571 L 265 572 L 265 575 L 264 576 L 263 582 L 261 585 L 260 589 L 258 591 L 252 601 L 252 603 L 251 604 L 251 606 L 250 607 L 250 609 L 249 610 L 247 617 L 245 619 L 241 619 L 240 618 L 233 618 L 232 617 L 227 617 L 226 618 L 221 618 L 220 619 L 218 619 L 215 621 L 211 622 L 202 630 L 197 640 L 197 643 L 196 644 L 196 651 L 197 652 L 198 658 L 200 660 L 201 663 L 204 666 L 204 667 L 211 673 L 212 673 L 215 676 L 218 677 L 220 679 L 227 682 L 229 684 L 231 684 L 236 687 L 238 687 L 241 689 L 243 689 L 247 691 L 250 691 L 254 693 L 262 694 L 263 695 L 274 696 L 275 697 L 299 698 L 300 699 L 315 699 L 316 698 L 326 698 L 327 697 L 331 697 L 338 694 L 342 690 L 345 684 L 347 682 L 355 664 L 368 651 L 376 638 L 382 632 L 384 632 L 385 633 L 392 633 L 393 634 L 402 634 L 403 633 L 408 633 L 411 631 L 416 630 L 419 628 L 421 628 L 424 626 L 432 624 L 435 622 L 441 621 L 445 619 L 448 619 L 455 615 L 457 615 L 459 613 L 460 613 L 463 609 L 468 609 L 474 612 L 476 614 L 478 614 L 481 616 L 488 616 L 489 617 L 500 617 L 511 612 L 514 609 L 515 609 L 518 606 L 521 600 L 522 592 L 523 591 L 523 584 L 522 583 L 522 578 L 521 577 L 520 566 L 519 565 L 519 562 L 518 561 L 518 557 L 516 553 L 515 544 L 514 543 L 512 532 L 510 528 L 510 525 L 507 518 L 507 511 L 511 503 L 512 495 L 514 493 L 518 495 L 520 493 L 521 493 L 529 484 L 533 475 L 535 463 L 534 462 L 534 454 L 533 453 L 533 449 L 529 441 L 525 437 L 524 437 L 514 429 L 513 429 L 508 423 L 508 421 L 507 420 L 507 416 L 508 415 L 507 413 L 507 408 L 500 398 L 500 396 L 499 395 L 499 389 L 497 386 L 495 377 L 497 375 L 504 375 L 516 381 L 521 387 L 521 401 L 525 410 L 538 422 L 545 425 L 548 425 L 549 426 L 572 426 L 573 427 L 578 427 L 579 428 L 592 426 L 596 424 L 598 422 L 600 422 L 609 417 L 611 415 L 611 414 L 622 403 L 623 403 L 625 401 L 630 391 L 630 388 L 631 387 L 630 370 L 629 369 L 628 364 L 625 359 L 625 357 L 622 353 L 621 350 L 619 348 L 619 346 L 617 342 L 617 338 L 616 337 L 616 332 L 611 324 L 602 314 L 602 310 L 598 303 L 595 300 L 589 297 L 585 296 L 580 292 L 580 290 L 581 289 L 581 285 L 580 284 L 580 282 L 576 278 L 575 278 L 573 276 L 570 276 L 566 274 L 562 274 L 561 273 L 559 273 L 555 269 L 554 265 L 551 262 L 547 260 L 531 259 L 530 258 L 528 258 L 522 253 L 516 253 L 515 252 L 513 253 L 510 253 L 509 252 L 508 253 L 503 253 L 497 250 L 491 249 L 490 248 L 482 248 L 481 247 L 477 246 L 475 244 L 475 239 L 476 238 L 476 235 L 484 225 L 484 222 L 485 221 L 485 214 L 486 212 L 492 206 L 493 202 L 494 201 L 494 195 L 493 194 L 493 191 L 492 190 L 492 186 L 496 182 L 497 177 L 496 176 L 496 172 L 495 171 L 495 169 L 490 161 L 490 158 L 493 154 L 493 150 L 492 149 L 492 147 L 482 138 L 481 136 L 481 133 L 478 127 L 474 122 L 469 112 L 464 105 L 464 103 L 473 93 L 477 84 L 477 81 L 478 80 L 478 74 L 477 73 L 477 68 L 476 67 L 475 62 L 471 54 L 462 45 L 451 39 L 449 39 Z M 502 528 L 503 530 L 503 533 L 504 534 L 504 538 L 505 539 L 505 545 L 506 546 L 507 556 L 508 557 L 508 560 L 509 561 L 509 564 L 510 565 L 510 570 L 512 574 L 512 578 L 513 579 L 513 583 L 514 584 L 514 589 L 512 591 L 510 592 L 501 592 L 499 591 L 498 592 L 499 597 L 503 601 L 504 604 L 507 606 L 506 608 L 504 608 L 500 606 L 493 606 L 492 607 L 493 608 L 491 610 L 490 609 L 485 609 L 481 607 L 477 603 L 476 599 L 475 598 L 475 596 L 478 592 L 478 590 L 479 589 L 477 588 L 467 597 L 464 598 L 462 600 L 459 601 L 452 606 L 448 607 L 446 609 L 444 609 L 435 614 L 433 614 L 432 615 L 430 615 L 423 618 L 420 618 L 419 619 L 416 619 L 415 620 L 411 620 L 408 622 L 405 622 L 399 625 L 393 625 L 391 623 L 390 621 L 391 615 L 396 610 L 397 610 L 415 591 L 416 591 L 421 586 L 422 586 L 427 582 L 430 581 L 435 577 L 439 575 L 441 575 L 465 562 L 468 559 L 473 556 L 486 544 L 486 543 L 493 535 L 493 534 L 496 531 L 497 528 L 499 526 L 500 526 Z M 517 445 L 518 445 L 521 448 L 521 450 L 524 456 L 524 460 L 525 461 L 525 466 L 524 467 L 523 474 L 521 478 L 519 480 L 517 479 L 517 462 L 516 461 L 516 446 Z M 439 42 L 440 43 L 443 43 L 444 44 L 449 45 L 454 48 L 464 58 L 468 65 L 468 67 L 469 68 L 469 72 L 470 73 L 470 79 L 469 80 L 468 86 L 465 91 L 457 99 L 456 99 L 454 101 L 454 102 L 459 109 L 464 120 L 467 123 L 467 124 L 473 132 L 473 134 L 470 137 L 470 138 L 472 140 L 480 144 L 485 150 L 485 151 L 482 154 L 478 154 L 476 153 L 475 154 L 475 156 L 483 164 L 483 165 L 488 171 L 488 173 L 489 174 L 489 175 L 486 178 L 484 178 L 481 176 L 479 177 L 486 193 L 486 201 L 484 203 L 483 203 L 479 199 L 478 199 L 478 206 L 479 207 L 479 215 L 478 216 L 478 221 L 476 223 L 474 223 L 472 221 L 470 222 L 470 227 L 469 228 L 468 235 L 465 241 L 460 246 L 459 246 L 451 253 L 450 253 L 444 259 L 446 260 L 447 259 L 451 259 L 452 258 L 455 258 L 456 257 L 466 256 L 467 255 L 473 254 L 474 253 L 485 253 L 486 254 L 488 254 L 490 256 L 490 260 L 491 261 L 497 261 L 498 260 L 502 260 L 503 259 L 511 259 L 512 258 L 515 258 L 516 259 L 519 259 L 521 261 L 519 265 L 520 266 L 542 267 L 543 268 L 547 269 L 549 271 L 549 272 L 542 277 L 543 279 L 545 279 L 546 280 L 553 280 L 554 281 L 560 281 L 561 282 L 565 282 L 568 284 L 570 284 L 573 287 L 573 289 L 569 291 L 567 293 L 567 295 L 569 297 L 575 300 L 578 300 L 581 302 L 583 302 L 589 305 L 592 308 L 592 311 L 587 315 L 587 317 L 589 319 L 599 323 L 608 333 L 606 335 L 599 336 L 599 337 L 609 346 L 616 357 L 616 359 L 618 362 L 618 364 L 621 371 L 621 375 L 622 376 L 622 387 L 621 389 L 618 392 L 617 392 L 614 389 L 613 386 L 610 383 L 609 383 L 607 385 L 608 391 L 609 392 L 609 395 L 610 396 L 610 402 L 609 403 L 609 405 L 604 410 L 600 412 L 596 408 L 595 405 L 591 401 L 590 401 L 588 403 L 588 416 L 584 421 L 574 421 L 571 419 L 569 419 L 562 413 L 560 409 L 553 401 L 551 402 L 551 408 L 552 409 L 553 414 L 550 417 L 548 417 L 547 416 L 544 416 L 540 414 L 533 408 L 529 401 L 529 390 L 530 389 L 530 382 L 525 377 L 518 373 L 508 363 L 504 361 L 499 361 L 498 360 L 495 360 L 494 359 L 488 359 L 476 352 L 474 353 L 474 355 L 472 357 L 469 357 L 468 356 L 465 356 L 464 355 L 461 355 L 460 354 L 456 354 L 455 353 L 452 353 L 451 352 L 447 352 L 446 351 L 442 351 L 440 350 L 439 351 L 439 354 L 444 359 L 449 362 L 451 362 L 458 365 L 462 365 L 463 366 L 476 366 L 479 369 L 482 377 L 487 383 L 489 387 L 487 391 L 487 395 L 488 397 L 500 408 L 501 412 L 499 414 L 497 413 L 494 413 L 493 412 L 492 413 L 492 415 L 507 440 L 507 441 L 505 443 L 502 444 L 502 448 L 503 449 L 503 451 L 505 455 L 505 459 L 506 460 L 506 475 L 504 477 L 503 476 L 501 477 L 501 492 L 500 493 L 500 496 L 499 497 L 497 505 L 495 508 L 495 510 L 493 512 L 492 516 L 490 518 L 488 523 L 486 525 L 483 531 L 466 549 L 465 549 L 462 552 L 461 552 L 453 558 L 441 564 L 439 564 L 437 566 L 430 569 L 428 571 L 425 572 L 419 577 L 412 581 L 397 596 L 396 596 L 387 605 L 385 605 L 382 608 L 382 609 L 376 616 L 374 623 L 369 628 L 366 635 L 364 637 L 362 641 L 355 649 L 354 652 L 352 654 L 350 658 L 345 662 L 345 663 L 341 668 L 340 672 L 336 680 L 328 688 L 326 688 L 325 689 L 303 689 L 302 688 L 297 688 L 296 687 L 289 686 L 285 684 L 281 684 L 280 683 L 274 682 L 267 678 L 265 678 L 259 675 L 253 670 L 251 670 L 238 663 L 230 662 L 227 659 L 227 654 L 228 653 L 228 648 L 229 647 L 230 638 L 226 638 L 225 639 L 223 639 L 220 642 L 220 644 L 219 645 L 219 653 L 220 654 L 220 658 L 218 660 L 215 660 L 213 658 L 209 650 L 209 648 L 206 644 L 206 639 L 212 632 L 213 632 L 216 629 L 223 626 L 240 626 L 241 627 L 247 627 L 248 628 L 254 628 L 255 629 L 262 629 L 263 630 L 269 631 L 269 630 L 266 627 L 262 625 L 256 620 L 256 617 L 264 599 L 266 597 L 270 588 L 272 586 L 274 582 L 277 570 L 281 565 L 282 559 L 280 557 L 280 555 L 283 552 L 283 551 L 290 545 L 296 542 L 302 541 L 306 539 L 308 537 L 306 535 L 305 535 L 303 533 L 303 532 L 312 524 L 327 517 L 332 513 L 348 505 L 350 505 L 353 503 L 355 503 L 356 502 L 358 502 L 365 499 L 369 499 L 370 498 L 373 498 L 374 497 L 378 497 L 379 495 L 375 494 L 374 493 L 361 493 L 360 494 L 355 494 L 354 495 L 351 495 L 345 498 L 343 498 L 336 502 L 334 502 L 332 504 L 324 508 L 319 512 L 306 518 L 298 525 L 293 528 L 285 537 L 277 540 L 273 544 L 269 542 L 262 536 L 256 533 L 251 532 L 249 530 L 248 530 L 243 525 L 241 521 L 238 518 L 233 508 L 233 505 L 232 504 L 232 502 L 231 501 L 231 497 L 230 496 L 230 489 L 229 489 L 228 492 L 226 494 L 224 494 L 222 492 L 222 479 L 223 478 L 224 468 L 225 467 L 224 466 L 219 472 L 218 472 L 215 469 L 215 462 L 216 461 L 216 458 L 217 457 L 217 455 L 218 454 L 218 452 L 221 445 L 221 442 L 219 442 L 217 444 L 214 444 L 212 442 L 212 438 L 216 430 L 221 424 L 225 417 L 224 415 L 222 416 L 217 416 L 215 414 L 215 412 L 218 407 L 227 398 L 230 393 L 229 392 L 225 392 L 223 390 L 223 389 L 226 384 L 231 379 L 233 375 L 233 371 L 234 370 L 234 367 L 236 363 L 236 356 L 240 349 L 241 343 L 239 341 L 238 341 L 233 346 L 229 354 L 228 360 L 226 362 L 222 362 L 216 359 L 213 356 L 213 354 L 210 352 L 204 352 L 203 351 L 197 350 L 194 347 L 194 344 L 195 343 L 194 341 L 190 340 L 189 339 L 186 339 L 185 338 L 183 338 L 182 337 L 180 337 L 179 336 L 177 336 L 170 333 L 167 330 L 167 328 L 170 325 L 172 325 L 173 323 L 168 320 L 160 318 L 152 314 L 143 306 L 143 304 L 145 302 L 149 302 L 150 301 L 145 296 L 144 296 L 134 288 L 133 288 L 118 272 L 118 271 L 115 268 L 115 267 L 109 259 L 103 247 L 103 245 L 101 242 L 101 240 L 99 237 L 99 235 L 97 231 L 93 227 L 89 225 L 84 220 L 79 217 L 66 204 L 59 192 L 59 190 L 58 189 L 58 184 L 63 178 L 65 177 L 71 177 L 72 176 L 65 162 L 65 153 L 70 147 L 77 147 L 86 152 L 90 156 L 90 157 L 92 158 L 92 156 L 88 151 L 86 144 L 85 143 L 85 131 L 91 124 L 98 124 L 100 125 L 110 135 L 115 145 L 115 147 L 117 148 L 117 126 L 119 122 L 121 120 L 123 119 L 127 119 L 131 121 L 134 124 L 137 130 L 139 132 L 143 146 L 145 146 L 147 144 L 147 143 L 153 137 L 155 136 L 160 137 L 166 143 L 167 147 L 168 148 L 168 166 L 167 167 L 167 173 L 165 176 L 164 180 L 167 185 L 179 198 L 188 212 L 190 214 L 192 214 L 195 210 L 197 210 L 199 212 L 207 228 L 213 236 L 215 235 L 215 230 L 216 228 L 218 226 L 219 226 L 223 230 L 225 234 L 226 239 L 228 242 L 228 244 L 230 246 L 231 246 L 234 242 L 236 242 L 239 245 L 245 257 L 247 257 L 248 256 L 248 253 L 249 252 L 251 252 L 258 259 L 261 265 L 263 267 L 265 272 L 266 273 L 270 273 L 271 272 L 271 268 L 260 251 L 256 247 L 252 245 L 248 241 L 247 238 L 241 239 L 239 237 L 236 231 L 236 228 L 235 227 L 235 219 L 236 217 L 234 216 L 232 218 L 230 218 L 227 214 L 227 206 L 228 205 L 228 202 L 230 199 L 230 196 L 225 197 L 222 193 L 224 185 L 227 181 L 229 176 L 228 175 L 227 176 L 222 176 L 220 174 L 220 172 L 222 168 L 231 159 L 232 157 L 232 155 L 231 154 L 231 148 L 240 130 L 240 127 L 238 125 L 236 125 L 231 122 L 224 115 L 224 114 L 222 112 L 222 110 L 220 106 L 220 95 L 221 94 L 221 91 L 227 79 L 237 70 L 239 70 L 242 68 L 248 67 L 249 66 L 258 66 L 259 67 L 261 67 L 271 73 L 276 79 L 278 79 L 280 77 L 283 76 L 285 74 L 291 71 L 302 68 L 303 67 L 303 64 L 305 62 L 307 62 L 308 61 L 323 62 L 324 61 L 323 52 L 327 49 L 329 50 L 332 50 L 337 53 L 340 56 L 344 57 L 353 48 L 355 47 L 359 47 L 361 49 L 360 53 L 359 54 L 359 58 L 365 58 L 366 57 L 379 57 L 380 58 L 390 59 L 391 60 L 399 62 L 402 64 L 405 64 L 408 57 L 413 52 L 413 51 L 418 47 L 422 45 L 430 43 L 431 42 Z" fill="#010101" fill-rule="evenodd"/></svg>