<svg xmlns="http://www.w3.org/2000/svg" viewBox="0 0 653 704" shape-rendering="geometricPrecision"><title>intro frame 016</title><path d="M 441 469 L 440 470 L 441 472 L 447 476 L 448 475 L 447 472 Z M 439 411 L 437 414 L 437 416 L 434 419 L 430 420 L 426 427 L 430 431 L 438 435 L 443 435 L 439 430 L 439 427 L 441 424 L 441 422 L 437 419 L 439 416 L 444 416 L 445 414 L 443 412 Z M 383 297 L 381 296 L 374 302 L 374 304 L 377 303 L 381 306 L 383 306 L 383 303 L 382 302 Z M 277 180 L 277 192 L 282 198 L 284 199 L 293 199 L 296 195 L 299 194 L 299 192 L 295 192 L 293 190 L 287 188 L 284 186 L 278 179 Z M 107 174 L 101 174 L 99 173 L 94 176 L 96 178 L 96 186 L 92 191 L 90 192 L 84 192 L 81 190 L 79 190 L 79 191 L 83 194 L 90 202 L 94 194 L 95 189 L 107 176 Z M 116 162 L 111 172 L 114 172 L 118 170 L 129 169 L 135 172 L 147 182 L 151 190 L 151 200 L 149 205 L 139 215 L 136 216 L 133 219 L 117 227 L 114 227 L 113 228 L 104 228 L 101 226 L 99 226 L 90 216 L 90 213 L 89 212 L 85 215 L 81 215 L 76 213 L 73 209 L 71 209 L 72 211 L 92 230 L 96 231 L 101 235 L 109 246 L 110 250 L 117 257 L 127 270 L 151 293 L 155 295 L 165 303 L 173 307 L 175 307 L 177 309 L 193 313 L 197 317 L 197 319 L 192 323 L 192 324 L 204 324 L 210 330 L 213 331 L 228 331 L 231 335 L 226 339 L 223 343 L 225 344 L 229 344 L 230 345 L 236 345 L 237 344 L 240 345 L 242 343 L 244 339 L 244 336 L 246 334 L 246 329 L 249 325 L 250 319 L 252 315 L 252 311 L 258 303 L 260 293 L 264 289 L 268 287 L 261 275 L 256 270 L 252 273 L 249 273 L 242 264 L 240 259 L 238 259 L 235 262 L 232 262 L 230 260 L 223 244 L 220 245 L 220 250 L 218 252 L 214 250 L 208 242 L 202 230 L 200 228 L 198 229 L 193 229 L 189 225 L 172 202 L 163 193 L 162 189 L 163 186 L 165 184 L 165 177 L 164 176 L 158 181 L 155 182 L 150 181 L 146 177 L 146 174 L 145 173 L 145 163 L 141 159 L 140 160 L 140 163 L 134 168 L 127 167 L 124 164 L 121 165 L 118 164 Z M 205 315 L 205 313 L 207 312 L 207 309 L 208 308 L 210 309 L 214 309 L 218 312 L 213 317 L 210 317 Z M 205 291 L 207 293 L 207 296 L 206 297 L 203 294 Z M 445 57 L 435 56 L 424 60 L 417 65 L 412 72 L 412 75 L 408 79 L 404 78 L 401 76 L 398 76 L 395 74 L 384 73 L 383 72 L 370 72 L 366 74 L 360 74 L 357 70 L 358 67 L 357 64 L 353 66 L 348 71 L 344 71 L 338 67 L 336 67 L 333 65 L 330 65 L 331 73 L 329 75 L 323 75 L 322 76 L 318 76 L 316 75 L 315 76 L 311 76 L 306 82 L 303 82 L 300 84 L 298 84 L 296 86 L 292 87 L 286 92 L 286 93 L 294 93 L 296 94 L 299 98 L 299 101 L 296 105 L 290 108 L 281 115 L 279 115 L 275 110 L 275 106 L 279 100 L 279 96 L 270 84 L 260 80 L 258 81 L 249 81 L 242 84 L 237 88 L 231 95 L 228 102 L 228 108 L 227 110 L 228 111 L 228 117 L 230 120 L 230 122 L 240 131 L 242 131 L 248 135 L 246 143 L 244 146 L 243 150 L 241 152 L 240 157 L 238 160 L 240 166 L 240 170 L 230 179 L 230 180 L 234 180 L 237 183 L 236 189 L 234 191 L 234 193 L 231 198 L 231 201 L 236 200 L 239 203 L 239 206 L 237 208 L 237 212 L 235 214 L 235 221 L 241 220 L 244 223 L 244 231 L 243 232 L 243 238 L 245 241 L 249 239 L 252 240 L 254 242 L 255 246 L 257 249 L 269 261 L 286 270 L 296 280 L 298 285 L 297 287 L 294 289 L 283 283 L 278 283 L 270 293 L 270 297 L 267 300 L 269 303 L 269 306 L 261 313 L 261 316 L 263 318 L 263 320 L 256 328 L 258 331 L 258 334 L 256 336 L 254 342 L 254 345 L 253 346 L 252 355 L 248 364 L 249 365 L 255 360 L 263 359 L 265 361 L 265 366 L 260 373 L 253 380 L 242 388 L 237 394 L 237 395 L 239 395 L 241 397 L 241 403 L 230 414 L 228 418 L 229 419 L 234 419 L 236 421 L 236 424 L 231 434 L 226 439 L 223 445 L 224 446 L 227 444 L 229 444 L 232 447 L 231 454 L 228 458 L 226 464 L 225 474 L 228 470 L 232 467 L 234 467 L 236 469 L 236 474 L 234 478 L 234 481 L 232 484 L 232 490 L 231 492 L 235 489 L 238 489 L 240 491 L 240 498 L 241 499 L 241 506 L 242 509 L 244 511 L 247 511 L 252 519 L 255 518 L 259 523 L 261 522 L 263 523 L 267 519 L 270 520 L 272 519 L 272 509 L 271 507 L 274 501 L 274 496 L 277 494 L 278 491 L 280 490 L 282 493 L 282 498 L 281 499 L 282 501 L 282 504 L 281 505 L 282 522 L 284 524 L 288 532 L 296 536 L 298 536 L 307 531 L 311 527 L 315 525 L 328 515 L 334 512 L 339 511 L 344 508 L 348 508 L 351 506 L 355 506 L 356 505 L 359 505 L 364 503 L 368 503 L 369 502 L 380 502 L 388 505 L 392 509 L 391 512 L 383 511 L 382 512 L 373 513 L 370 515 L 359 518 L 354 521 L 351 521 L 346 524 L 342 525 L 337 529 L 333 530 L 325 537 L 323 537 L 321 539 L 311 544 L 315 547 L 315 550 L 308 556 L 302 559 L 300 559 L 294 564 L 294 565 L 298 568 L 298 571 L 295 576 L 292 578 L 289 582 L 289 585 L 288 586 L 288 594 L 286 599 L 286 607 L 284 612 L 283 627 L 304 637 L 310 638 L 318 641 L 320 645 L 316 649 L 314 650 L 310 650 L 308 648 L 305 647 L 298 647 L 296 645 L 292 645 L 285 642 L 281 642 L 278 640 L 263 640 L 262 641 L 253 642 L 248 645 L 246 645 L 239 651 L 236 656 L 236 663 L 238 664 L 238 662 L 240 659 L 248 651 L 254 649 L 257 649 L 260 652 L 259 669 L 260 671 L 265 675 L 268 675 L 270 673 L 270 668 L 276 661 L 282 657 L 284 657 L 287 659 L 289 662 L 289 669 L 285 674 L 284 679 L 286 681 L 289 681 L 293 683 L 299 683 L 302 685 L 314 685 L 319 682 L 328 682 L 331 680 L 333 680 L 334 678 L 340 673 L 340 671 L 344 667 L 344 665 L 347 662 L 348 658 L 354 650 L 354 643 L 357 639 L 357 637 L 360 631 L 365 625 L 368 620 L 368 618 L 370 616 L 374 599 L 376 597 L 378 597 L 388 586 L 393 582 L 396 581 L 400 576 L 402 576 L 417 560 L 419 560 L 423 555 L 423 553 L 426 550 L 429 550 L 432 547 L 438 529 L 443 520 L 445 518 L 448 518 L 450 516 L 452 516 L 452 515 L 457 511 L 458 508 L 462 503 L 466 500 L 463 493 L 458 492 L 457 489 L 450 482 L 448 481 L 440 481 L 435 478 L 427 476 L 424 473 L 422 467 L 417 462 L 411 458 L 414 454 L 416 454 L 421 456 L 423 458 L 425 458 L 431 462 L 436 457 L 437 454 L 436 448 L 431 443 L 425 441 L 421 441 L 414 437 L 411 434 L 412 431 L 418 426 L 417 421 L 414 419 L 403 419 L 397 416 L 391 416 L 390 418 L 387 420 L 386 418 L 381 414 L 380 409 L 386 402 L 389 402 L 391 404 L 394 405 L 404 405 L 409 407 L 413 407 L 418 409 L 421 412 L 423 410 L 423 407 L 421 403 L 418 401 L 413 401 L 409 398 L 409 396 L 411 394 L 415 394 L 421 392 L 416 390 L 410 385 L 407 385 L 404 388 L 402 388 L 399 385 L 399 380 L 397 375 L 394 372 L 393 369 L 387 364 L 383 359 L 381 360 L 374 360 L 368 358 L 362 354 L 357 353 L 353 349 L 350 351 L 348 354 L 348 356 L 344 359 L 341 355 L 341 348 L 344 345 L 347 344 L 353 338 L 357 337 L 374 352 L 377 352 L 380 348 L 388 349 L 399 363 L 404 366 L 410 364 L 414 364 L 415 363 L 417 364 L 413 356 L 404 346 L 401 340 L 403 338 L 405 338 L 410 342 L 413 343 L 412 339 L 409 335 L 409 333 L 411 331 L 413 331 L 417 334 L 422 334 L 423 333 L 423 326 L 418 320 L 420 318 L 424 318 L 427 321 L 427 323 L 431 329 L 431 333 L 433 339 L 433 344 L 431 350 L 429 352 L 424 352 L 425 356 L 431 365 L 431 370 L 429 372 L 424 372 L 422 371 L 421 373 L 416 377 L 416 380 L 420 385 L 422 390 L 425 393 L 427 393 L 432 397 L 433 400 L 438 400 L 440 398 L 445 398 L 454 407 L 455 420 L 457 423 L 458 428 L 456 432 L 452 432 L 456 441 L 458 441 L 462 437 L 466 437 L 473 440 L 475 439 L 467 430 L 465 425 L 460 418 L 460 416 L 464 411 L 464 408 L 458 400 L 456 399 L 453 395 L 450 393 L 448 393 L 444 388 L 444 386 L 446 384 L 450 383 L 450 382 L 449 382 L 444 376 L 439 364 L 439 357 L 444 353 L 444 351 L 441 345 L 442 342 L 447 342 L 458 347 L 468 348 L 469 349 L 475 349 L 478 351 L 484 350 L 485 349 L 491 349 L 501 354 L 507 360 L 508 362 L 508 374 L 515 390 L 515 392 L 519 396 L 519 399 L 520 400 L 520 407 L 517 413 L 516 419 L 519 424 L 524 429 L 528 429 L 529 430 L 532 427 L 532 423 L 534 420 L 538 417 L 540 417 L 543 420 L 543 423 L 549 429 L 550 432 L 554 435 L 565 435 L 566 434 L 566 421 L 569 417 L 575 418 L 582 426 L 587 426 L 587 424 L 590 420 L 590 407 L 592 403 L 594 401 L 600 401 L 601 403 L 602 403 L 602 400 L 604 396 L 602 386 L 600 384 L 599 380 L 595 376 L 594 374 L 594 370 L 591 365 L 591 359 L 593 357 L 592 355 L 593 352 L 585 343 L 582 338 L 582 331 L 584 330 L 584 329 L 581 326 L 570 322 L 563 315 L 563 309 L 564 306 L 561 306 L 559 304 L 556 304 L 554 302 L 545 298 L 541 294 L 541 291 L 539 287 L 521 285 L 519 283 L 519 277 L 518 276 L 499 276 L 498 277 L 495 277 L 491 273 L 491 269 L 488 269 L 487 268 L 469 268 L 468 269 L 461 269 L 457 271 L 454 271 L 449 274 L 443 275 L 437 278 L 434 281 L 430 281 L 429 282 L 424 281 L 416 288 L 413 288 L 411 286 L 411 283 L 410 282 L 408 284 L 406 289 L 403 292 L 401 292 L 399 290 L 399 285 L 402 279 L 402 277 L 408 271 L 410 271 L 418 262 L 421 260 L 424 260 L 429 254 L 433 257 L 435 256 L 435 251 L 433 247 L 437 243 L 440 245 L 439 242 L 440 237 L 442 235 L 445 235 L 446 234 L 445 229 L 442 225 L 444 223 L 450 224 L 451 225 L 453 223 L 452 216 L 455 213 L 461 215 L 461 213 L 456 208 L 456 206 L 459 203 L 462 203 L 462 202 L 456 195 L 456 193 L 458 191 L 461 191 L 465 193 L 467 192 L 474 192 L 476 191 L 478 188 L 477 185 L 480 182 L 483 182 L 482 178 L 472 165 L 472 163 L 475 160 L 478 159 L 478 157 L 473 154 L 468 148 L 468 145 L 471 141 L 466 135 L 463 129 L 463 127 L 459 121 L 450 111 L 453 107 L 455 107 L 464 98 L 464 96 L 467 93 L 469 89 L 468 87 L 468 83 L 469 82 L 468 81 L 468 77 L 465 71 L 461 68 L 458 64 L 453 60 Z M 264 483 L 265 484 L 266 490 L 265 491 L 265 501 L 262 505 L 258 500 L 258 489 L 259 486 L 262 483 Z M 351 474 L 352 477 L 351 480 L 349 482 L 349 485 L 342 494 L 337 495 L 335 493 L 335 490 L 336 489 L 336 486 L 338 484 L 339 481 L 346 475 Z M 385 462 L 387 464 L 387 466 L 385 468 L 383 468 L 381 465 Z M 258 458 L 260 460 L 259 468 L 257 472 L 257 475 L 255 477 L 253 477 L 251 475 L 251 469 L 253 464 Z M 396 451 L 397 452 L 392 458 L 394 461 L 391 464 L 388 462 L 387 463 L 385 461 L 387 459 L 389 459 L 389 456 Z M 377 446 L 380 450 L 380 455 L 382 460 L 380 463 L 380 472 L 377 474 L 376 481 L 375 482 L 371 482 L 369 483 L 367 481 L 366 476 L 373 468 L 373 464 L 374 462 L 372 461 L 372 458 L 373 457 L 374 449 Z M 257 442 L 258 443 L 257 451 L 254 454 L 249 463 L 246 465 L 243 462 L 244 456 L 248 451 L 248 449 L 253 443 Z M 345 434 L 347 436 L 347 438 L 345 440 L 345 445 L 339 454 L 336 453 L 330 448 Z M 385 433 L 386 432 L 392 432 L 397 438 L 398 437 L 398 434 L 400 433 L 402 435 L 402 438 L 399 441 L 396 441 L 394 444 L 391 446 L 385 439 Z M 260 423 L 261 424 L 260 426 L 260 430 L 258 432 L 257 436 L 250 444 L 247 445 L 245 443 L 244 440 L 248 435 L 248 433 L 257 423 Z M 277 399 L 279 401 L 278 405 L 274 409 L 269 409 L 267 406 L 273 400 L 276 400 Z M 318 394 L 319 395 L 319 399 L 312 404 L 310 402 L 310 399 L 316 394 Z M 361 387 L 365 387 L 369 391 L 369 394 L 370 396 L 366 399 L 366 403 L 369 408 L 369 411 L 367 416 L 365 416 L 353 402 L 353 395 L 357 392 Z M 335 381 L 337 387 L 334 389 L 331 385 L 332 383 Z M 306 378 L 308 380 L 304 385 L 300 388 L 293 396 L 290 398 L 288 398 L 286 396 L 287 392 L 291 388 L 296 385 L 303 378 Z M 348 376 L 351 378 L 351 382 L 346 388 L 346 391 L 342 397 L 343 399 L 340 401 L 338 399 L 339 397 L 339 388 L 341 386 L 341 383 L 343 381 L 344 378 Z M 284 372 L 284 370 L 286 368 L 291 366 L 298 366 L 300 368 L 300 370 L 298 372 L 295 373 L 285 373 Z M 327 363 L 329 365 L 329 369 L 324 373 L 318 374 L 316 372 L 317 368 L 321 364 Z M 295 345 L 296 346 L 295 350 L 285 360 L 281 356 L 284 350 L 289 345 Z M 369 331 L 372 333 L 376 333 L 379 336 L 379 342 L 377 345 L 372 345 L 367 339 L 367 333 Z M 332 332 L 331 337 L 321 346 L 318 346 L 308 351 L 304 351 L 302 349 L 305 346 L 304 344 L 309 338 L 309 336 L 313 332 L 317 332 L 318 333 L 318 336 L 322 336 L 329 330 Z M 410 315 L 414 318 L 414 320 L 412 322 L 410 322 L 408 320 L 408 317 Z M 396 277 L 394 283 L 385 293 L 385 295 L 387 297 L 388 300 L 388 304 L 391 310 L 391 315 L 389 318 L 385 318 L 379 322 L 377 319 L 376 320 L 375 319 L 366 318 L 364 316 L 361 315 L 361 312 L 359 312 L 354 319 L 355 320 L 355 332 L 353 334 L 347 334 L 339 327 L 338 323 L 345 317 L 346 314 L 344 312 L 329 304 L 325 300 L 320 297 L 313 289 L 313 284 L 315 282 L 318 282 L 319 281 L 325 283 L 328 283 L 329 284 L 341 284 L 342 285 L 346 285 L 347 284 L 360 283 L 361 282 L 365 282 L 366 281 L 373 280 L 376 278 L 379 278 L 389 274 L 393 274 Z M 378 164 L 379 161 L 388 153 L 391 152 L 397 152 L 398 151 L 401 152 L 412 152 L 420 155 L 428 162 L 430 165 L 430 173 L 424 180 L 417 183 L 401 183 L 397 181 L 391 180 L 384 176 L 379 170 Z M 283 131 L 288 132 L 293 138 L 294 145 L 293 146 L 292 155 L 297 153 L 300 153 L 302 151 L 300 147 L 306 141 L 310 139 L 328 139 L 333 141 L 337 145 L 337 149 L 335 151 L 325 150 L 324 149 L 318 149 L 317 150 L 311 150 L 310 151 L 313 153 L 316 153 L 323 157 L 329 163 L 330 165 L 330 172 L 327 178 L 320 185 L 316 188 L 314 188 L 305 192 L 305 193 L 309 193 L 315 196 L 319 196 L 320 197 L 335 198 L 336 197 L 342 196 L 347 193 L 350 193 L 356 189 L 361 184 L 362 181 L 365 178 L 369 178 L 373 182 L 375 186 L 376 197 L 377 198 L 377 214 L 376 215 L 376 221 L 375 222 L 375 229 L 372 236 L 372 239 L 364 253 L 357 260 L 345 267 L 342 268 L 329 268 L 326 266 L 321 265 L 302 247 L 300 243 L 295 237 L 289 226 L 289 224 L 287 221 L 286 213 L 283 210 L 281 210 L 275 206 L 268 199 L 265 192 L 265 184 L 264 184 L 261 188 L 255 193 L 249 194 L 248 195 L 244 194 L 238 187 L 238 182 L 240 176 L 242 173 L 248 168 L 255 165 L 263 165 L 268 169 L 275 169 L 276 168 L 277 161 L 273 154 L 274 143 L 278 135 Z M 366 126 L 370 126 L 372 127 L 377 132 L 380 139 L 380 148 L 379 149 L 379 152 L 378 154 L 371 160 L 366 160 L 360 155 L 358 150 L 358 138 L 360 132 Z M 265 95 L 269 100 L 270 103 L 262 113 L 258 120 L 252 126 L 246 126 L 242 122 L 238 114 L 238 107 L 242 99 L 248 93 L 252 93 L 253 92 L 257 92 Z M 362 89 L 367 84 L 376 84 L 382 87 L 387 91 L 389 95 L 388 100 L 385 103 L 381 103 L 379 101 L 377 101 L 374 99 L 371 99 L 369 97 L 366 97 L 362 93 Z M 432 69 L 435 68 L 443 68 L 450 72 L 455 77 L 458 83 L 458 93 L 456 97 L 451 102 L 449 102 L 447 104 L 443 104 L 439 101 L 435 96 L 434 96 L 428 90 L 426 90 L 422 86 L 421 83 L 423 81 L 424 77 Z" fill="#FBFBFB" fill-rule="evenodd"/><path d="M 283 678 L 283 681 L 284 682 L 287 682 L 296 685 L 301 685 L 286 682 Z M 287 660 L 284 658 L 282 658 L 273 665 L 271 668 L 271 670 L 272 667 L 276 662 L 281 660 L 284 660 L 288 664 L 288 669 L 285 673 L 288 669 L 288 662 Z M 251 651 L 256 650 L 259 653 L 256 664 L 252 669 L 256 673 L 258 673 L 263 676 L 269 677 L 270 674 L 268 676 L 265 676 L 263 675 L 258 669 L 259 652 L 257 650 Z M 418 639 L 405 641 L 397 650 L 408 641 Z M 277 639 L 262 639 L 261 640 L 256 640 L 247 643 L 237 652 L 234 660 L 234 665 L 236 667 L 238 667 L 238 665 L 242 658 L 248 652 L 249 652 L 248 652 L 241 659 L 238 665 L 235 663 L 235 656 L 238 651 L 246 644 L 248 644 L 253 641 L 257 641 L 263 639 Z M 279 640 L 281 641 L 285 641 L 292 644 L 296 644 L 298 646 L 305 646 L 308 647 L 310 649 L 314 649 L 319 645 L 318 642 L 304 638 L 293 633 L 302 637 L 307 641 L 309 641 L 312 645 L 311 646 L 298 645 L 297 644 L 286 642 L 282 640 Z M 449 608 L 447 605 L 447 603 L 444 600 L 443 607 L 440 611 L 437 609 L 436 605 L 433 604 L 426 608 L 427 611 L 425 614 L 432 618 L 434 614 L 436 613 L 442 613 L 444 611 L 446 611 Z M 299 559 L 295 561 L 292 564 L 292 565 L 297 569 L 297 571 L 287 583 L 286 598 L 288 582 L 289 580 L 294 576 L 297 571 L 297 568 L 295 567 L 293 564 Z M 251 545 L 257 549 L 265 558 L 265 561 L 266 562 L 264 568 L 264 578 L 266 581 L 267 589 L 270 596 L 270 588 L 269 587 L 269 583 L 266 574 L 266 561 L 265 558 L 257 549 Z M 391 509 L 388 506 L 385 505 L 389 508 L 388 510 L 381 510 L 380 511 L 373 512 L 367 515 L 361 516 L 353 520 L 348 521 L 340 525 L 338 527 L 330 531 L 326 535 L 323 536 L 321 538 L 308 544 L 308 546 L 312 546 L 314 549 L 309 554 L 301 558 L 308 555 L 314 550 L 314 547 L 310 544 L 312 542 L 321 538 L 323 536 L 325 536 L 333 529 L 337 528 L 342 524 L 346 523 L 351 520 L 354 520 L 359 517 L 370 514 L 373 512 L 382 511 L 383 510 L 391 511 Z M 537 488 L 533 496 L 517 511 L 510 525 L 508 534 L 509 532 L 509 528 L 514 520 L 515 515 L 524 505 L 528 503 L 536 492 Z M 231 485 L 230 497 L 232 496 L 236 490 L 239 492 L 239 505 L 240 506 L 240 510 L 242 513 L 242 515 L 244 517 L 244 519 L 247 523 L 250 521 L 252 522 L 262 533 L 264 534 L 267 534 L 269 532 L 273 533 L 279 540 L 283 542 L 289 547 L 295 539 L 301 536 L 306 532 L 302 535 L 296 537 L 293 536 L 291 534 L 289 534 L 285 529 L 283 524 L 281 522 L 281 514 L 280 513 L 280 505 L 281 504 L 280 499 L 281 498 L 281 493 L 280 491 L 279 491 L 279 493 L 275 496 L 275 501 L 272 507 L 273 509 L 273 519 L 271 521 L 267 520 L 263 524 L 262 523 L 259 524 L 255 519 L 252 520 L 249 517 L 247 512 L 244 512 L 241 509 L 240 506 L 240 499 L 239 498 L 239 491 L 238 490 L 235 490 L 231 493 L 230 492 L 231 490 Z M 264 484 L 262 484 L 260 486 L 259 489 L 259 500 L 262 504 L 264 501 L 264 491 L 265 490 Z M 351 475 L 346 476 L 340 481 L 339 484 L 337 486 L 337 489 L 336 490 L 336 493 L 337 494 L 342 493 L 348 485 L 348 482 L 350 480 Z M 385 463 L 382 465 L 383 467 L 386 466 Z M 258 459 L 254 464 L 252 469 L 252 475 L 253 476 L 256 475 L 256 472 L 259 464 L 259 460 Z M 396 452 L 390 456 L 390 459 L 386 461 L 387 462 L 388 461 L 391 463 L 393 461 L 391 458 Z M 377 447 L 375 449 L 374 457 L 373 458 L 373 461 L 375 462 L 374 464 L 374 468 L 367 476 L 369 482 L 371 481 L 375 481 L 376 474 L 379 472 L 379 463 L 381 460 L 379 455 L 379 450 Z M 257 443 L 253 444 L 249 449 L 249 451 L 246 454 L 244 459 L 244 462 L 246 464 L 248 463 L 253 454 L 256 451 Z M 252 449 L 253 452 L 250 454 L 249 452 Z M 345 435 L 331 448 L 336 452 L 339 453 L 344 445 L 344 440 L 346 438 Z M 386 433 L 386 439 L 391 445 L 392 445 L 396 440 L 399 440 L 401 438 L 401 435 L 399 434 L 399 437 L 397 439 L 392 433 Z M 499 432 L 502 436 L 501 438 L 502 441 L 504 441 L 503 436 L 501 433 Z M 260 424 L 257 424 L 249 433 L 249 435 L 245 440 L 247 444 L 250 443 L 256 436 L 257 432 L 259 430 L 259 426 Z M 254 432 L 255 434 L 252 438 L 250 436 L 252 433 Z M 515 416 L 518 409 L 515 416 L 515 419 L 517 424 L 520 428 L 526 433 L 530 433 L 532 432 L 534 422 L 537 419 L 540 419 L 542 422 L 542 420 L 540 418 L 538 418 L 535 420 L 533 423 L 533 427 L 529 431 L 528 430 L 524 430 L 516 421 Z M 278 401 L 277 400 L 276 401 L 273 401 L 268 407 L 269 408 L 274 408 L 277 405 Z M 318 395 L 316 395 L 311 399 L 311 402 L 312 403 L 318 399 Z M 361 388 L 359 391 L 354 395 L 354 402 L 359 407 L 361 411 L 365 415 L 367 415 L 368 408 L 365 403 L 365 399 L 368 397 L 369 395 L 368 394 L 368 391 L 365 388 Z M 335 382 L 334 382 L 332 385 L 334 388 L 336 387 L 334 383 Z M 307 380 L 306 379 L 303 379 L 296 386 L 288 392 L 287 396 L 290 397 L 293 395 Z M 348 377 L 345 378 L 344 381 L 342 383 L 342 386 L 340 388 L 340 397 L 339 398 L 340 400 L 342 399 L 341 397 L 345 391 L 345 388 L 350 382 L 350 378 Z M 285 372 L 295 372 L 298 371 L 299 368 L 298 367 L 291 367 L 286 369 Z M 195 366 L 203 368 L 212 377 L 214 377 L 216 379 L 220 380 L 224 384 L 225 386 L 223 388 L 223 391 L 221 394 L 221 397 L 220 398 L 220 406 L 219 407 L 221 402 L 221 394 L 226 386 L 226 383 L 217 378 L 211 376 L 203 368 Z M 328 365 L 327 364 L 321 365 L 318 368 L 317 372 L 318 373 L 321 373 L 326 371 L 328 369 Z M 295 346 L 289 346 L 285 350 L 282 356 L 285 359 L 294 350 Z M 606 344 L 614 358 L 615 361 L 615 377 L 623 392 L 623 396 L 624 397 L 624 410 L 623 413 L 624 410 L 624 395 L 623 394 L 623 388 L 616 378 L 616 361 Z M 254 340 L 251 347 L 251 355 L 246 365 L 246 368 L 248 369 L 253 364 L 259 361 L 261 361 L 263 363 L 263 365 L 260 370 L 251 379 L 246 382 L 234 395 L 234 397 L 238 397 L 240 399 L 240 401 L 238 405 L 227 416 L 225 420 L 226 421 L 232 420 L 234 422 L 234 426 L 221 446 L 222 449 L 227 446 L 229 446 L 231 448 L 230 454 L 227 458 L 225 464 L 223 475 L 224 476 L 230 470 L 233 470 L 234 471 L 234 476 L 233 477 L 233 481 L 232 483 L 235 474 L 235 469 L 232 468 L 230 469 L 225 475 L 224 474 L 225 464 L 227 458 L 230 454 L 231 447 L 229 445 L 227 445 L 224 447 L 222 445 L 225 439 L 230 434 L 235 424 L 235 421 L 234 420 L 229 420 L 227 418 L 229 414 L 240 403 L 240 397 L 237 396 L 236 394 L 242 387 L 253 379 L 259 373 L 264 366 L 264 361 L 263 360 L 255 361 L 249 366 L 247 364 L 251 355 L 251 351 L 252 350 L 252 346 Z M 176 340 L 179 342 L 184 343 L 184 340 L 181 338 L 177 338 Z M 369 332 L 368 333 L 368 339 L 372 344 L 377 344 L 378 342 L 378 336 L 376 334 L 372 334 Z M 331 332 L 330 331 L 327 332 L 322 337 L 318 337 L 317 336 L 317 333 L 313 333 L 310 336 L 310 338 L 305 344 L 306 346 L 303 349 L 304 350 L 308 350 L 318 345 L 321 345 L 330 337 Z M 424 319 L 420 319 L 419 320 L 424 326 L 424 333 L 422 335 L 417 335 L 413 332 L 410 333 L 410 335 L 414 342 L 413 344 L 410 343 L 405 339 L 402 340 L 405 346 L 414 356 L 418 363 L 417 365 L 415 364 L 414 365 L 410 365 L 404 367 L 398 363 L 388 350 L 380 349 L 377 353 L 374 353 L 357 338 L 353 339 L 347 345 L 344 346 L 342 348 L 342 355 L 343 357 L 345 358 L 347 356 L 347 354 L 349 351 L 353 348 L 357 352 L 362 353 L 368 357 L 374 359 L 381 359 L 383 358 L 386 362 L 394 369 L 395 372 L 398 375 L 400 380 L 400 385 L 402 387 L 404 387 L 407 384 L 410 384 L 413 387 L 418 390 L 420 390 L 422 392 L 420 394 L 416 394 L 410 396 L 410 398 L 413 400 L 418 400 L 422 403 L 424 407 L 424 410 L 421 413 L 418 410 L 413 408 L 409 408 L 404 406 L 394 406 L 391 405 L 389 403 L 386 403 L 381 409 L 382 414 L 384 415 L 387 419 L 388 419 L 391 415 L 397 415 L 403 418 L 414 418 L 418 421 L 419 426 L 413 431 L 412 434 L 421 440 L 425 440 L 431 442 L 437 448 L 438 454 L 437 457 L 431 463 L 425 459 L 423 459 L 421 457 L 416 455 L 414 455 L 412 458 L 417 461 L 423 467 L 424 471 L 427 475 L 435 477 L 440 480 L 448 480 L 450 481 L 458 489 L 458 491 L 461 491 L 464 493 L 467 500 L 463 503 L 459 508 L 458 511 L 453 515 L 452 517 L 450 517 L 448 519 L 445 519 L 439 529 L 433 547 L 429 551 L 426 551 L 424 553 L 424 555 L 419 561 L 417 561 L 402 577 L 400 577 L 396 582 L 393 583 L 388 587 L 378 598 L 375 599 L 371 616 L 369 618 L 368 622 L 361 631 L 358 637 L 358 639 L 355 643 L 355 650 L 349 658 L 349 660 L 345 665 L 345 667 L 341 671 L 341 673 L 337 676 L 333 681 L 331 681 L 328 683 L 319 683 L 314 686 L 304 686 L 309 686 L 310 687 L 329 687 L 335 685 L 338 685 L 339 686 L 358 685 L 362 683 L 362 682 L 359 683 L 357 681 L 354 682 L 350 681 L 347 683 L 341 683 L 339 680 L 348 670 L 351 664 L 355 659 L 358 650 L 360 648 L 360 645 L 362 642 L 363 637 L 365 635 L 365 632 L 369 628 L 372 622 L 382 608 L 392 599 L 394 599 L 400 588 L 404 585 L 404 583 L 405 582 L 408 582 L 408 581 L 416 573 L 418 569 L 431 555 L 433 550 L 436 546 L 436 543 L 438 537 L 442 532 L 442 530 L 444 529 L 446 534 L 447 534 L 448 531 L 451 529 L 452 532 L 454 533 L 456 526 L 460 520 L 460 518 L 462 516 L 463 513 L 467 511 L 470 507 L 470 503 L 472 499 L 472 491 L 474 489 L 475 485 L 479 481 L 479 471 L 484 467 L 484 461 L 480 457 L 473 455 L 467 448 L 465 444 L 467 442 L 469 442 L 481 451 L 482 450 L 480 439 L 471 429 L 472 421 L 475 418 L 475 411 L 472 404 L 471 396 L 469 394 L 469 392 L 465 388 L 462 387 L 459 383 L 456 383 L 452 379 L 451 375 L 441 366 L 440 358 L 442 356 L 446 356 L 450 358 L 457 359 L 457 357 L 452 352 L 448 350 L 446 347 L 449 346 L 464 352 L 474 353 L 476 355 L 478 355 L 483 360 L 487 355 L 489 355 L 495 361 L 501 363 L 503 365 L 503 368 L 510 383 L 510 385 L 514 393 L 519 400 L 519 407 L 518 396 L 514 392 L 514 390 L 507 374 L 507 362 L 501 355 L 491 350 L 485 350 L 484 351 L 478 352 L 475 350 L 469 350 L 468 349 L 458 348 L 447 343 L 442 343 L 445 353 L 440 357 L 440 364 L 445 376 L 448 380 L 451 382 L 450 384 L 446 385 L 445 388 L 448 392 L 450 392 L 453 394 L 455 397 L 459 400 L 465 408 L 465 411 L 461 416 L 461 418 L 466 425 L 468 430 L 476 439 L 473 441 L 466 438 L 462 438 L 458 442 L 456 442 L 454 440 L 453 435 L 451 432 L 452 431 L 456 431 L 457 428 L 456 423 L 454 420 L 453 407 L 445 399 L 440 399 L 438 401 L 433 401 L 431 399 L 430 396 L 427 394 L 425 394 L 421 390 L 419 385 L 415 380 L 415 377 L 419 374 L 422 370 L 424 371 L 429 371 L 430 370 L 430 365 L 424 356 L 423 352 L 424 351 L 429 351 L 430 350 L 432 344 L 432 339 L 431 338 L 430 329 L 427 325 L 426 321 Z M 439 470 L 442 468 L 444 470 L 447 471 L 449 475 L 446 477 L 442 474 Z M 426 467 L 427 466 L 430 466 L 437 472 L 437 474 L 436 475 L 433 475 L 428 471 Z M 418 434 L 421 432 L 422 433 L 426 433 L 429 435 L 435 436 L 437 438 L 439 438 L 445 445 L 443 447 L 439 447 L 431 440 L 421 437 Z M 439 410 L 443 411 L 446 414 L 444 417 L 439 417 L 438 419 L 442 422 L 442 424 L 440 427 L 440 430 L 444 434 L 443 436 L 438 436 L 430 432 L 425 427 L 429 420 L 432 418 L 434 418 L 436 416 L 436 414 Z M 409 411 L 410 410 L 414 410 L 415 412 L 414 413 L 410 413 Z M 386 355 L 389 354 L 404 370 L 408 370 L 410 372 L 410 375 L 406 379 L 403 379 Z M 410 345 L 417 350 L 423 357 L 423 359 L 427 364 L 425 367 L 420 363 L 414 353 L 408 347 Z M 430 341 L 426 346 L 423 347 L 413 338 L 415 336 L 417 336 L 421 339 L 425 339 L 426 338 L 426 335 L 428 334 L 430 336 Z M 410 316 L 409 317 L 409 320 L 412 321 L 413 318 Z M 206 315 L 213 316 L 217 312 L 214 310 L 210 310 L 208 309 L 208 312 L 206 313 Z M 526 285 L 539 286 L 541 288 L 542 294 L 545 297 L 554 301 L 556 303 L 559 303 L 561 305 L 564 305 L 565 306 L 564 309 L 564 315 L 570 321 L 581 325 L 585 329 L 585 330 L 583 331 L 583 338 L 586 343 L 594 352 L 593 354 L 594 357 L 592 359 L 592 365 L 595 370 L 595 374 L 596 376 L 600 380 L 600 382 L 603 386 L 603 389 L 605 394 L 603 400 L 603 403 L 601 404 L 600 402 L 594 402 L 591 407 L 591 420 L 587 427 L 582 427 L 575 419 L 569 418 L 567 421 L 567 434 L 565 436 L 554 436 L 549 432 L 548 429 L 543 424 L 546 431 L 552 437 L 557 439 L 566 439 L 568 437 L 569 434 L 568 421 L 570 419 L 574 419 L 578 423 L 581 429 L 583 431 L 586 431 L 588 430 L 593 424 L 593 416 L 592 415 L 592 407 L 595 403 L 597 403 L 605 413 L 607 410 L 606 392 L 593 365 L 593 361 L 595 359 L 598 358 L 594 350 L 588 344 L 583 336 L 588 330 L 584 326 L 570 320 L 564 314 L 564 312 L 570 307 L 564 304 L 551 300 L 546 297 L 542 293 L 546 290 L 546 288 L 540 286 L 536 286 L 535 285 Z M 395 277 L 393 275 L 389 275 L 379 279 L 376 279 L 373 281 L 370 281 L 365 283 L 361 283 L 360 284 L 347 285 L 346 286 L 342 286 L 341 285 L 329 285 L 328 284 L 325 284 L 319 282 L 314 284 L 314 289 L 320 296 L 325 299 L 329 303 L 344 311 L 347 314 L 346 317 L 340 322 L 339 324 L 340 327 L 347 333 L 353 333 L 354 332 L 354 320 L 353 319 L 359 311 L 362 312 L 362 315 L 364 315 L 366 317 L 370 317 L 376 319 L 377 318 L 379 321 L 385 317 L 389 317 L 390 315 L 390 310 L 387 304 L 387 300 L 386 297 L 384 295 L 384 293 L 393 283 Z M 381 295 L 384 297 L 383 300 L 384 306 L 381 307 L 377 304 L 374 305 L 373 302 Z M 393 277 L 392 282 L 375 299 L 372 300 L 363 308 L 360 308 L 357 311 L 354 312 L 348 312 L 334 305 L 322 296 L 314 287 L 317 283 L 325 284 L 326 285 L 331 285 L 332 286 L 350 286 L 351 285 L 357 285 L 358 284 L 363 284 L 364 283 L 372 282 L 389 276 L 392 276 Z M 488 236 L 487 239 L 482 244 L 480 254 L 481 255 L 486 255 L 487 256 L 495 257 L 487 256 L 481 252 L 482 244 L 487 239 Z M 53 206 L 53 208 L 56 214 L 63 224 L 82 241 L 85 242 L 92 248 L 91 246 L 84 242 L 75 235 L 60 220 L 53 208 Z M 178 187 L 178 189 L 187 199 L 192 207 L 195 210 L 202 210 L 209 217 L 212 224 L 208 215 L 203 210 L 200 209 L 195 210 L 193 208 L 185 196 L 184 196 L 178 189 Z M 243 173 L 239 182 L 239 187 L 244 193 L 248 194 L 249 193 L 255 192 L 258 190 L 264 183 L 266 184 L 266 192 L 269 199 L 275 205 L 281 209 L 282 209 L 275 205 L 269 199 L 266 192 L 266 180 L 265 180 L 255 191 L 251 193 L 246 193 L 240 188 L 239 185 L 239 182 L 242 176 L 251 168 L 258 167 L 259 166 L 264 167 L 269 172 L 271 170 L 274 170 L 276 172 L 276 181 L 275 182 L 275 189 L 276 192 L 282 199 L 286 201 L 292 201 L 301 195 L 309 195 L 310 196 L 318 197 L 319 198 L 324 198 L 325 199 L 336 199 L 337 198 L 340 198 L 356 191 L 361 186 L 363 182 L 366 179 L 368 179 L 373 184 L 374 190 L 375 191 L 375 221 L 374 222 L 373 231 L 371 235 L 371 238 L 365 250 L 357 258 L 345 265 L 343 265 L 340 267 L 332 267 L 323 264 L 315 259 L 304 248 L 296 237 L 290 226 L 288 218 L 288 221 L 293 232 L 303 247 L 321 264 L 326 265 L 329 267 L 342 267 L 351 263 L 354 260 L 357 259 L 366 249 L 371 239 L 371 236 L 374 229 L 374 222 L 375 221 L 375 215 L 376 214 L 376 198 L 375 197 L 375 191 L 374 190 L 374 186 L 372 182 L 369 179 L 365 179 L 363 181 L 362 184 L 356 190 L 350 194 L 347 194 L 339 198 L 330 199 L 329 198 L 315 197 L 312 195 L 305 194 L 304 193 L 305 191 L 314 187 L 316 187 L 326 178 L 328 174 L 325 179 L 315 187 L 306 190 L 295 190 L 286 186 L 280 180 L 277 174 L 277 165 L 279 161 L 275 156 L 278 161 L 277 168 L 275 170 L 268 170 L 263 166 L 255 166 L 248 169 Z M 276 180 L 278 178 L 284 185 L 287 187 L 289 187 L 291 189 L 293 189 L 295 191 L 299 191 L 300 194 L 296 196 L 293 200 L 284 200 L 282 199 L 276 192 Z M 379 164 L 380 170 L 384 175 L 391 179 L 397 180 L 401 182 L 417 182 L 424 179 L 429 173 L 429 165 L 427 162 L 420 156 L 412 153 L 401 153 L 400 152 L 397 153 L 391 153 L 386 155 L 380 161 Z M 380 163 L 387 155 L 390 154 L 394 154 L 395 153 L 414 154 L 423 158 L 426 161 L 429 166 L 429 173 L 423 179 L 418 181 L 413 181 L 412 182 L 398 181 L 385 175 L 380 169 Z M 292 148 L 292 151 L 289 156 L 294 156 L 299 154 L 311 154 L 312 155 L 318 156 L 325 160 L 328 163 L 329 165 L 329 172 L 329 165 L 328 163 L 323 158 L 316 154 L 313 154 L 309 151 L 311 149 L 317 149 L 318 148 L 324 148 L 325 149 L 335 150 L 336 149 L 336 145 L 333 142 L 328 140 L 310 140 L 306 142 L 301 147 L 303 151 L 300 154 L 297 154 L 293 156 L 291 155 Z M 303 147 L 306 143 L 310 141 L 328 141 L 331 142 L 336 146 L 333 149 L 331 148 L 327 148 L 326 147 L 313 147 L 312 148 L 305 149 Z M 93 138 L 90 141 L 90 147 L 91 144 L 95 140 L 100 141 L 109 151 L 113 159 L 113 166 L 111 169 L 107 172 L 102 172 L 99 170 L 95 173 L 89 167 L 89 166 L 82 161 L 78 161 L 76 160 L 70 165 L 70 171 L 71 171 L 71 168 L 74 164 L 78 164 L 82 166 L 93 176 L 95 181 L 94 186 L 90 190 L 84 190 L 78 187 L 75 190 L 71 190 L 65 194 L 64 199 L 67 206 L 71 212 L 77 218 L 77 219 L 84 224 L 90 230 L 97 234 L 104 241 L 107 251 L 115 266 L 119 265 L 141 288 L 152 296 L 157 301 L 166 306 L 168 306 L 172 309 L 191 315 L 194 318 L 188 323 L 189 326 L 203 326 L 206 330 L 210 332 L 213 332 L 214 333 L 225 333 L 227 335 L 222 340 L 220 340 L 218 342 L 219 344 L 221 344 L 227 348 L 239 348 L 241 347 L 244 343 L 246 335 L 251 329 L 250 328 L 251 323 L 256 318 L 259 318 L 260 319 L 260 322 L 253 329 L 253 330 L 255 330 L 257 332 L 256 335 L 257 334 L 257 331 L 255 328 L 262 320 L 262 318 L 260 316 L 260 313 L 268 306 L 268 303 L 266 300 L 269 297 L 269 293 L 278 282 L 283 282 L 295 288 L 297 285 L 295 280 L 286 271 L 269 262 L 256 249 L 252 241 L 249 240 L 245 242 L 242 238 L 243 223 L 241 221 L 238 221 L 237 222 L 234 221 L 234 214 L 236 212 L 236 208 L 238 206 L 238 203 L 236 201 L 233 202 L 230 201 L 230 198 L 233 193 L 233 191 L 235 189 L 236 183 L 234 181 L 230 181 L 229 179 L 239 170 L 238 162 L 238 165 L 239 166 L 238 169 L 227 181 L 228 183 L 233 182 L 235 184 L 235 188 L 229 200 L 229 203 L 230 204 L 233 202 L 235 202 L 237 204 L 237 207 L 233 218 L 233 224 L 235 224 L 237 222 L 241 222 L 243 224 L 243 230 L 242 231 L 242 239 L 243 242 L 246 245 L 250 241 L 253 243 L 255 250 L 269 263 L 275 271 L 278 278 L 278 282 L 274 286 L 270 286 L 266 282 L 262 274 L 255 266 L 251 271 L 249 271 L 245 267 L 242 260 L 239 257 L 233 261 L 229 256 L 224 244 L 222 242 L 220 242 L 220 244 L 221 243 L 224 244 L 227 250 L 227 252 L 232 261 L 235 261 L 238 258 L 240 258 L 243 264 L 249 272 L 252 272 L 256 269 L 262 275 L 265 281 L 269 286 L 267 289 L 264 290 L 261 293 L 259 303 L 253 311 L 253 315 L 251 319 L 251 322 L 249 327 L 247 329 L 247 334 L 245 336 L 245 339 L 243 343 L 240 346 L 237 345 L 236 346 L 230 346 L 229 345 L 225 345 L 222 343 L 222 342 L 230 335 L 228 332 L 213 332 L 210 331 L 204 325 L 192 325 L 191 323 L 196 319 L 196 317 L 193 314 L 177 310 L 175 308 L 173 308 L 165 304 L 155 296 L 151 294 L 126 270 L 116 257 L 109 250 L 108 246 L 100 235 L 96 232 L 92 231 L 71 211 L 70 209 L 71 208 L 73 208 L 76 212 L 81 214 L 85 214 L 89 211 L 91 213 L 91 216 L 99 225 L 101 225 L 104 227 L 113 227 L 114 226 L 117 226 L 139 214 L 148 205 L 150 200 L 150 190 L 146 182 L 135 173 L 129 170 L 118 171 L 114 173 L 111 173 L 110 171 L 114 165 L 114 163 L 116 161 L 118 163 L 121 164 L 124 163 L 127 166 L 134 167 L 139 163 L 139 160 L 141 158 L 146 163 L 146 173 L 147 174 L 147 177 L 150 180 L 153 181 L 160 179 L 164 175 L 166 177 L 166 184 L 164 186 L 163 189 L 164 193 L 173 202 L 190 225 L 193 228 L 198 228 L 200 227 L 203 230 L 204 233 L 206 235 L 206 237 L 213 248 L 217 251 L 219 250 L 219 247 L 219 248 L 216 250 L 212 246 L 206 235 L 204 233 L 202 228 L 199 225 L 196 228 L 194 228 L 188 222 L 186 218 L 181 213 L 174 203 L 165 194 L 164 192 L 164 187 L 167 181 L 169 164 L 168 163 L 168 157 L 162 150 L 156 150 L 153 153 L 155 151 L 159 151 L 163 154 L 165 158 L 165 168 L 164 169 L 164 172 L 157 180 L 152 180 L 147 176 L 146 173 L 146 168 L 148 164 L 148 160 L 146 161 L 142 157 L 141 150 L 137 141 L 137 139 L 136 137 L 131 133 L 126 133 L 125 134 L 126 135 L 129 135 L 132 137 L 138 146 L 138 149 L 139 150 L 139 162 L 135 166 L 129 166 L 124 162 L 119 163 L 117 161 L 110 146 L 105 140 L 103 140 L 101 138 L 98 138 L 97 137 Z M 264 303 L 266 306 L 258 313 L 256 313 L 255 311 L 261 304 Z M 276 270 L 277 269 L 280 269 L 288 274 L 294 280 L 295 284 L 293 286 L 286 281 L 283 280 L 278 275 L 276 272 Z M 66 194 L 68 195 L 68 202 L 67 203 L 64 199 L 64 197 Z M 71 193 L 73 192 L 79 193 L 84 196 L 89 202 L 89 207 L 84 213 L 80 213 L 78 212 L 69 203 L 68 197 Z M 107 173 L 108 176 L 96 189 L 95 194 L 92 199 L 92 201 L 90 203 L 88 200 L 78 191 L 79 189 L 81 189 L 84 191 L 90 191 L 92 190 L 95 186 L 95 178 L 93 176 L 99 172 L 101 173 Z M 136 174 L 146 183 L 150 191 L 150 200 L 148 204 L 144 209 L 138 214 L 118 225 L 112 226 L 111 227 L 106 227 L 105 226 L 102 226 L 97 223 L 91 214 L 91 204 L 92 203 L 92 199 L 98 188 L 107 178 L 114 173 L 120 171 L 129 171 Z M 216 122 L 216 124 L 219 130 L 227 139 L 229 143 L 229 148 L 226 152 L 226 156 L 225 157 L 225 161 L 224 162 L 223 169 L 218 174 L 225 166 L 224 164 L 225 162 L 225 157 L 227 151 L 230 147 L 230 142 L 220 131 L 216 124 Z M 146 132 L 145 129 L 136 121 L 131 119 L 125 119 L 116 122 L 112 127 L 103 126 L 100 124 L 91 125 L 82 131 L 80 134 L 79 138 L 81 133 L 87 127 L 91 125 L 102 125 L 107 127 L 109 129 L 112 129 L 112 128 L 119 121 L 122 120 L 133 120 L 137 122 Z M 265 96 L 261 94 L 253 93 L 252 94 L 248 94 L 243 99 L 239 107 L 239 114 L 241 119 L 246 125 L 252 125 L 257 120 L 261 113 L 269 103 Z M 259 94 L 263 96 L 267 100 L 267 104 L 262 110 L 257 119 L 252 124 L 248 124 L 242 119 L 239 112 L 240 106 L 243 100 L 247 96 L 251 94 Z M 363 89 L 363 93 L 366 96 L 369 96 L 371 98 L 374 98 L 377 100 L 379 100 L 381 102 L 385 102 L 387 100 L 387 99 L 385 102 L 382 102 L 375 98 L 367 96 L 363 92 L 364 88 L 367 85 L 375 85 L 382 88 L 387 93 L 388 97 L 386 91 L 376 85 L 367 85 Z M 470 83 L 469 83 L 469 87 L 470 89 L 468 93 L 465 96 L 465 98 L 455 108 L 453 108 L 451 111 L 460 121 L 464 127 L 464 129 L 467 135 L 472 141 L 469 145 L 469 148 L 473 153 L 479 157 L 479 159 L 475 161 L 473 163 L 473 165 L 483 178 L 484 182 L 483 183 L 480 183 L 478 185 L 479 188 L 477 191 L 474 193 L 467 193 L 466 194 L 461 192 L 458 192 L 457 193 L 457 195 L 463 202 L 462 204 L 459 204 L 457 206 L 457 208 L 462 213 L 462 215 L 460 216 L 455 214 L 453 216 L 454 223 L 451 226 L 446 224 L 443 225 L 446 229 L 447 234 L 445 236 L 442 236 L 440 239 L 441 245 L 439 246 L 437 244 L 434 247 L 436 251 L 436 256 L 433 258 L 429 255 L 424 261 L 421 261 L 418 263 L 418 264 L 410 272 L 408 272 L 403 277 L 403 279 L 400 285 L 400 290 L 401 291 L 403 291 L 405 289 L 407 284 L 410 281 L 412 283 L 412 286 L 413 287 L 416 287 L 424 280 L 427 281 L 434 280 L 437 277 L 443 274 L 449 273 L 454 270 L 457 270 L 461 268 L 468 268 L 469 267 L 487 267 L 488 268 L 491 268 L 492 269 L 492 273 L 495 276 L 498 276 L 499 275 L 518 275 L 520 277 L 520 283 L 523 284 L 521 282 L 523 277 L 521 275 L 494 275 L 492 273 L 494 270 L 493 267 L 468 267 L 467 268 L 461 268 L 450 272 L 444 273 L 436 277 L 433 280 L 428 280 L 426 278 L 428 273 L 439 260 L 445 261 L 451 255 L 453 249 L 458 242 L 461 245 L 463 249 L 466 246 L 470 236 L 471 227 L 473 225 L 475 225 L 477 227 L 479 224 L 479 216 L 478 215 L 478 210 L 477 208 L 480 205 L 482 205 L 485 208 L 486 207 L 485 201 L 479 189 L 479 185 L 481 183 L 487 185 L 488 182 L 481 173 L 474 166 L 474 164 L 477 161 L 483 162 L 484 160 L 480 156 L 474 153 L 470 149 L 470 146 L 472 144 L 472 141 L 466 133 L 464 127 L 462 125 L 461 122 L 452 112 L 455 108 L 462 103 L 467 96 L 470 89 Z M 425 271 L 426 274 L 416 285 L 414 283 L 414 278 L 418 273 L 421 274 Z M 449 229 L 452 228 L 456 233 L 454 234 L 451 232 Z M 459 219 L 461 221 L 460 224 L 458 222 Z M 432 70 L 425 77 L 425 79 L 422 83 L 423 86 L 426 89 L 428 89 L 443 103 L 447 103 L 449 101 L 451 101 L 455 97 L 457 93 L 457 83 L 454 77 L 450 73 L 443 69 L 435 69 Z M 435 70 L 443 70 L 449 73 L 455 80 L 456 86 L 457 87 L 456 93 L 454 96 L 447 102 L 442 101 L 432 91 L 426 88 L 423 84 L 425 78 L 431 72 Z M 469 77 L 469 81 L 469 77 L 466 71 L 459 63 L 454 59 L 443 55 L 432 55 L 426 58 L 424 58 L 413 68 L 411 74 L 408 77 L 405 77 L 396 73 L 388 72 L 387 71 L 370 70 L 369 71 L 361 72 L 359 70 L 359 67 L 361 62 L 360 61 L 355 62 L 347 70 L 344 70 L 333 63 L 329 63 L 330 72 L 328 74 L 311 74 L 307 80 L 294 84 L 281 93 L 279 93 L 273 85 L 265 80 L 262 79 L 252 79 L 246 81 L 239 85 L 231 93 L 227 102 L 226 113 L 227 114 L 228 120 L 231 125 L 238 131 L 244 133 L 247 137 L 246 134 L 240 132 L 236 129 L 229 122 L 229 120 L 227 117 L 227 111 L 226 110 L 227 108 L 227 102 L 230 95 L 237 87 L 242 83 L 249 80 L 258 80 L 260 79 L 270 83 L 275 88 L 280 96 L 280 100 L 276 106 L 276 110 L 279 114 L 281 114 L 287 109 L 296 104 L 298 101 L 298 98 L 296 95 L 294 94 L 286 94 L 285 92 L 292 86 L 296 85 L 298 83 L 300 83 L 303 81 L 306 81 L 311 75 L 315 75 L 316 74 L 318 75 L 329 74 L 330 73 L 330 68 L 329 67 L 330 64 L 333 64 L 336 66 L 338 66 L 344 70 L 348 70 L 353 65 L 357 63 L 359 65 L 358 70 L 360 73 L 366 73 L 370 71 L 383 71 L 384 72 L 395 73 L 398 75 L 401 75 L 404 77 L 408 78 L 411 75 L 411 72 L 416 65 L 421 61 L 428 57 L 431 57 L 435 55 L 439 55 L 440 56 L 449 57 L 453 59 L 466 71 Z M 294 94 L 298 98 L 298 101 L 294 105 L 289 107 L 284 112 L 279 113 L 276 110 L 276 107 L 279 101 L 286 95 Z M 370 54 L 365 48 L 357 48 L 348 52 L 344 55 L 334 50 L 327 50 L 321 53 L 319 55 L 318 58 L 314 62 L 311 62 L 305 65 L 302 65 L 300 67 L 298 67 L 293 72 L 285 75 L 280 75 L 276 71 L 274 71 L 272 69 L 267 68 L 264 66 L 251 66 L 246 68 L 242 68 L 227 78 L 222 84 L 219 90 L 222 84 L 231 75 L 240 70 L 242 70 L 248 67 L 261 66 L 265 68 L 268 68 L 284 77 L 286 75 L 295 71 L 303 65 L 309 64 L 310 63 L 316 63 L 319 55 L 325 51 L 334 51 L 340 54 L 346 55 L 352 50 L 358 48 L 364 48 L 367 50 Z M 475 62 L 466 52 L 460 48 L 445 43 L 432 43 L 431 44 L 426 44 L 425 45 L 418 46 L 415 49 L 411 51 L 401 62 L 395 60 L 391 60 L 388 58 L 373 58 L 371 56 L 373 58 L 383 58 L 384 59 L 388 59 L 389 60 L 402 62 L 413 50 L 423 45 L 432 44 L 433 43 L 444 43 L 445 44 L 449 44 L 455 46 L 461 49 L 468 54 Z" fill="#E8E8E8" fill-rule="evenodd"/><path d="M 501 547 L 499 545 L 495 547 L 494 549 L 476 566 L 455 577 L 436 591 L 426 601 L 407 616 L 404 621 L 404 628 L 405 629 L 415 630 L 424 624 L 434 620 L 437 617 L 439 617 L 451 611 L 456 607 L 460 602 L 461 599 L 464 596 L 467 598 L 467 612 L 470 615 L 475 616 L 478 618 L 482 618 L 483 619 L 488 618 L 491 616 L 491 614 L 486 610 L 485 607 L 487 605 L 496 605 L 497 604 L 504 603 L 507 599 L 507 580 L 506 579 L 505 567 L 504 566 Z M 450 608 L 446 612 L 444 612 L 442 614 L 436 614 L 434 615 L 432 619 L 429 618 L 424 614 L 426 611 L 425 608 L 433 603 L 435 603 L 437 605 L 438 609 L 440 610 L 442 607 L 443 600 L 444 599 L 448 603 L 448 605 Z M 427 467 L 430 472 L 433 474 L 436 474 L 436 472 L 430 467 Z M 520 449 L 519 450 L 519 457 L 520 458 L 520 463 L 521 464 L 521 487 L 523 487 L 527 479 L 529 467 L 528 466 L 527 459 L 523 455 L 522 450 Z M 419 434 L 421 436 L 431 439 L 439 446 L 443 446 L 444 445 L 439 439 L 437 439 L 435 437 L 429 436 L 426 434 L 422 434 L 421 433 Z M 387 355 L 399 371 L 403 378 L 406 378 L 409 375 L 409 372 L 408 371 L 404 371 L 389 355 Z M 410 346 L 409 347 L 415 353 L 421 363 L 425 366 L 426 364 L 422 359 L 422 357 L 417 351 Z M 429 341 L 429 336 L 427 335 L 427 338 L 425 340 L 421 340 L 417 337 L 414 338 L 423 346 L 426 345 Z M 265 305 L 264 304 L 261 305 L 258 308 L 256 312 L 258 312 L 264 307 Z M 392 277 L 389 277 L 368 284 L 358 285 L 357 286 L 351 286 L 350 287 L 332 287 L 331 286 L 326 286 L 320 284 L 317 284 L 315 287 L 322 295 L 334 304 L 348 311 L 354 311 L 357 310 L 360 307 L 363 307 L 368 302 L 375 298 L 391 282 Z M 425 272 L 421 275 L 419 274 L 417 275 L 415 278 L 415 283 L 416 284 L 423 277 L 425 274 Z M 277 270 L 277 272 L 283 279 L 286 280 L 293 285 L 294 284 L 293 280 L 288 275 L 280 270 Z M 71 194 L 69 197 L 70 203 L 78 211 L 80 212 L 84 212 L 88 207 L 88 202 L 86 199 L 79 194 L 76 193 Z M 136 175 L 129 172 L 120 172 L 114 174 L 103 183 L 97 191 L 93 199 L 93 203 L 92 204 L 92 214 L 97 222 L 102 225 L 105 225 L 106 226 L 115 225 L 130 218 L 143 209 L 149 200 L 149 191 L 145 183 Z M 241 179 L 240 182 L 241 188 L 246 192 L 251 192 L 255 190 L 265 179 L 267 180 L 267 192 L 270 199 L 275 204 L 281 208 L 285 209 L 287 211 L 291 226 L 297 237 L 305 248 L 319 261 L 332 266 L 340 266 L 351 261 L 357 257 L 364 250 L 365 247 L 367 245 L 367 243 L 370 238 L 370 235 L 373 227 L 373 222 L 374 221 L 374 191 L 373 190 L 372 184 L 368 180 L 366 180 L 362 186 L 356 192 L 340 199 L 337 199 L 336 200 L 325 200 L 324 199 L 319 199 L 318 198 L 314 198 L 309 196 L 301 196 L 292 202 L 286 202 L 282 200 L 275 192 L 274 189 L 275 172 L 274 171 L 271 171 L 269 173 L 264 168 L 261 168 L 260 167 L 258 168 L 254 168 L 248 171 Z M 269 174 L 271 172 L 273 172 L 275 174 L 274 177 L 274 191 L 275 194 L 280 200 L 286 203 L 292 203 L 295 202 L 302 197 L 308 197 L 309 198 L 313 198 L 319 200 L 324 200 L 325 201 L 334 201 L 335 200 L 343 199 L 359 191 L 366 182 L 368 182 L 371 185 L 373 190 L 373 197 L 374 198 L 373 221 L 372 222 L 371 231 L 368 240 L 362 251 L 360 253 L 357 252 L 357 250 L 360 246 L 360 244 L 362 242 L 362 240 L 364 237 L 365 228 L 363 224 L 358 220 L 354 218 L 345 217 L 344 218 L 340 218 L 332 222 L 320 231 L 316 239 L 316 246 L 320 253 L 325 259 L 322 261 L 314 256 L 303 244 L 296 234 L 291 224 L 289 218 L 289 215 L 288 214 L 288 210 L 279 206 L 275 203 L 269 196 L 268 190 L 267 189 L 267 181 L 268 180 Z M 381 163 L 381 169 L 383 172 L 388 176 L 398 180 L 403 180 L 404 181 L 418 180 L 423 178 L 428 173 L 428 166 L 425 161 L 423 159 L 414 155 L 408 155 L 407 154 L 395 154 L 394 155 L 390 155 L 387 156 Z M 304 147 L 307 148 L 313 146 L 326 146 L 327 147 L 331 147 L 333 148 L 335 146 L 328 142 L 310 142 L 306 144 Z M 282 134 L 279 137 L 275 147 L 275 155 L 280 161 L 278 165 L 278 174 L 281 180 L 286 185 L 295 189 L 306 189 L 307 188 L 310 188 L 313 186 L 315 186 L 322 181 L 328 173 L 328 165 L 327 163 L 322 159 L 311 155 L 299 155 L 294 157 L 289 157 L 288 155 L 291 151 L 292 141 L 289 135 L 286 133 Z M 278 167 L 282 162 L 290 158 L 293 158 L 298 156 L 312 156 L 322 160 L 328 166 L 328 171 L 326 175 L 319 182 L 316 183 L 314 185 L 306 188 L 295 188 L 288 185 L 280 177 L 278 172 Z M 287 135 L 291 139 L 291 149 L 289 153 L 284 158 L 279 159 L 276 156 L 276 145 L 278 140 L 283 135 Z M 367 128 L 365 129 L 361 134 L 360 141 L 359 142 L 359 146 L 362 155 L 367 158 L 370 158 L 373 157 L 377 152 L 377 149 L 378 148 L 378 139 L 375 132 L 372 129 Z M 367 129 L 370 129 L 375 133 L 378 141 L 377 150 L 371 157 L 366 157 L 362 153 L 360 149 L 360 139 L 361 136 Z M 297 98 L 294 95 L 286 96 L 283 98 L 278 104 L 277 110 L 279 112 L 284 111 L 289 106 L 294 104 L 297 101 Z M 296 98 L 296 101 L 294 103 L 289 105 L 282 111 L 280 111 L 278 109 L 279 104 L 287 97 L 289 96 L 294 96 Z M 259 95 L 251 95 L 247 97 L 244 100 L 241 106 L 241 109 L 240 110 L 241 115 L 243 119 L 248 123 L 252 123 L 256 119 L 259 113 L 266 104 L 266 100 L 263 97 Z M 365 88 L 364 92 L 367 95 L 375 97 L 382 101 L 385 101 L 386 100 L 387 95 L 382 89 L 375 86 L 367 86 Z M 365 90 L 368 87 L 376 87 L 379 89 L 381 89 L 386 94 L 386 98 L 384 100 L 381 100 L 375 96 L 367 94 L 365 92 Z M 435 71 L 431 73 L 426 78 L 424 84 L 426 87 L 432 90 L 442 100 L 447 101 L 449 100 L 455 93 L 456 87 L 455 86 L 454 80 L 449 74 L 443 71 Z M 449 45 L 445 45 L 444 44 L 433 44 L 432 45 L 423 46 L 413 51 L 402 63 L 389 61 L 388 60 L 384 60 L 383 59 L 373 59 L 367 51 L 364 49 L 358 49 L 352 51 L 346 56 L 343 56 L 334 52 L 325 52 L 320 55 L 318 59 L 318 62 L 316 64 L 310 64 L 309 65 L 303 66 L 295 72 L 286 76 L 284 78 L 268 69 L 265 69 L 261 67 L 248 68 L 242 71 L 240 71 L 231 76 L 221 87 L 218 93 L 216 103 L 215 104 L 215 117 L 216 118 L 217 124 L 221 131 L 231 142 L 231 147 L 229 149 L 226 157 L 226 162 L 225 163 L 226 166 L 218 175 L 216 180 L 216 187 L 220 194 L 218 200 L 218 208 L 220 212 L 223 215 L 223 225 L 219 229 L 215 229 L 212 226 L 208 217 L 202 211 L 195 211 L 177 189 L 178 183 L 179 182 L 179 177 L 180 176 L 180 159 L 175 146 L 171 142 L 161 138 L 155 138 L 152 140 L 150 140 L 147 137 L 146 133 L 144 130 L 137 123 L 133 121 L 122 121 L 119 122 L 112 130 L 109 130 L 107 128 L 102 126 L 91 126 L 87 128 L 82 133 L 79 139 L 78 147 L 76 149 L 72 149 L 66 152 L 61 157 L 58 164 L 58 173 L 60 177 L 60 181 L 56 185 L 53 191 L 53 195 L 52 196 L 53 198 L 53 205 L 57 214 L 61 220 L 75 234 L 93 247 L 98 263 L 104 274 L 122 298 L 136 310 L 136 316 L 138 321 L 144 327 L 159 335 L 161 337 L 163 344 L 168 349 L 174 352 L 184 355 L 190 363 L 197 366 L 203 367 L 211 375 L 217 377 L 225 381 L 227 383 L 227 386 L 222 394 L 222 402 L 221 403 L 221 406 L 214 417 L 214 426 L 216 429 L 216 432 L 211 441 L 211 444 L 210 445 L 210 455 L 214 461 L 214 465 L 212 471 L 212 480 L 213 481 L 213 484 L 218 491 L 219 494 L 219 502 L 220 503 L 220 506 L 227 513 L 232 525 L 238 534 L 246 542 L 253 545 L 257 548 L 266 558 L 267 561 L 267 574 L 268 575 L 268 579 L 271 588 L 271 611 L 269 616 L 269 623 L 265 628 L 263 629 L 253 629 L 252 630 L 248 630 L 247 631 L 240 632 L 233 636 L 229 640 L 220 653 L 220 667 L 225 677 L 230 681 L 254 692 L 257 692 L 261 694 L 265 694 L 270 696 L 275 696 L 276 697 L 295 698 L 296 699 L 313 699 L 314 700 L 343 700 L 344 699 L 354 699 L 355 698 L 360 698 L 361 697 L 368 696 L 376 692 L 385 682 L 389 672 L 390 655 L 396 650 L 405 640 L 415 639 L 416 638 L 422 637 L 427 634 L 431 633 L 448 622 L 456 619 L 458 619 L 471 626 L 480 629 L 494 629 L 497 627 L 501 626 L 508 621 L 508 620 L 514 614 L 519 604 L 519 593 L 518 592 L 518 580 L 517 579 L 515 559 L 514 558 L 514 554 L 513 553 L 512 547 L 508 539 L 508 535 L 507 533 L 508 532 L 509 525 L 516 511 L 532 496 L 537 487 L 537 484 L 540 475 L 540 462 L 539 461 L 539 458 L 536 449 L 538 447 L 544 447 L 554 451 L 568 452 L 577 448 L 589 445 L 594 442 L 602 434 L 612 429 L 617 424 L 622 414 L 622 411 L 623 410 L 623 397 L 622 396 L 621 389 L 614 377 L 614 361 L 609 350 L 605 345 L 598 323 L 593 318 L 586 314 L 583 311 L 584 303 L 580 299 L 577 298 L 575 296 L 566 293 L 563 290 L 562 286 L 560 283 L 552 278 L 538 275 L 530 268 L 523 265 L 520 265 L 519 264 L 510 264 L 500 259 L 497 259 L 492 257 L 487 257 L 486 256 L 481 256 L 479 254 L 481 244 L 486 239 L 489 233 L 490 224 L 497 216 L 498 213 L 498 201 L 497 200 L 497 196 L 500 192 L 501 184 L 495 172 L 495 169 L 497 166 L 497 158 L 494 153 L 486 146 L 482 135 L 477 128 L 475 123 L 470 117 L 470 113 L 477 105 L 482 91 L 482 82 L 481 81 L 481 77 L 479 71 L 475 63 L 468 55 L 461 50 Z M 499 431 L 502 433 L 505 438 L 505 441 L 504 442 L 502 442 L 500 439 L 501 436 L 498 433 Z M 175 339 L 177 337 L 181 337 L 185 340 L 185 343 L 184 344 L 179 343 L 176 341 Z M 252 334 L 253 337 L 250 342 L 248 343 L 247 340 Z M 443 54 L 444 55 L 450 56 L 459 62 L 467 71 L 470 77 L 470 82 L 471 83 L 471 89 L 470 92 L 463 103 L 455 109 L 453 112 L 462 122 L 463 125 L 465 127 L 467 133 L 473 141 L 473 144 L 471 146 L 471 149 L 474 152 L 480 155 L 485 160 L 483 163 L 477 162 L 475 164 L 475 166 L 489 182 L 489 184 L 487 186 L 483 184 L 480 185 L 480 189 L 486 201 L 487 207 L 485 209 L 482 206 L 480 206 L 478 208 L 479 210 L 479 215 L 480 216 L 480 224 L 477 228 L 475 226 L 472 227 L 471 236 L 467 246 L 463 250 L 458 243 L 454 249 L 452 255 L 445 262 L 439 261 L 429 273 L 427 278 L 428 279 L 433 279 L 436 276 L 444 272 L 450 271 L 461 267 L 467 267 L 468 266 L 493 266 L 495 268 L 495 270 L 493 272 L 494 274 L 521 274 L 524 277 L 522 281 L 524 284 L 535 284 L 536 285 L 540 285 L 546 287 L 547 290 L 543 293 L 551 299 L 569 305 L 571 307 L 565 312 L 565 314 L 570 319 L 584 325 L 589 330 L 584 336 L 589 344 L 595 350 L 599 358 L 597 360 L 594 361 L 594 365 L 607 392 L 608 410 L 605 414 L 602 411 L 600 407 L 597 404 L 595 404 L 593 407 L 594 424 L 593 426 L 586 432 L 583 432 L 574 420 L 570 420 L 569 421 L 570 434 L 569 437 L 566 440 L 557 440 L 552 438 L 545 431 L 543 425 L 540 420 L 537 420 L 535 422 L 533 432 L 530 434 L 526 434 L 519 428 L 515 422 L 514 416 L 518 408 L 518 400 L 513 393 L 509 385 L 509 383 L 502 368 L 502 365 L 499 363 L 495 362 L 489 356 L 487 356 L 483 361 L 478 356 L 476 356 L 474 354 L 464 353 L 455 350 L 452 348 L 447 347 L 448 349 L 452 351 L 458 357 L 458 359 L 457 360 L 454 360 L 446 357 L 442 357 L 441 358 L 442 366 L 452 375 L 453 379 L 456 382 L 459 382 L 462 386 L 465 387 L 470 392 L 470 394 L 472 396 L 473 404 L 476 411 L 476 418 L 473 421 L 472 429 L 481 439 L 483 450 L 481 452 L 469 443 L 466 444 L 468 448 L 473 454 L 480 456 L 485 461 L 485 467 L 480 471 L 480 481 L 476 485 L 476 487 L 473 491 L 473 499 L 471 503 L 471 507 L 467 512 L 464 513 L 463 516 L 461 518 L 461 520 L 457 526 L 457 528 L 454 534 L 453 534 L 451 532 L 451 530 L 450 530 L 449 533 L 446 535 L 444 532 L 444 530 L 443 530 L 443 532 L 439 537 L 437 543 L 437 546 L 434 550 L 432 555 L 419 569 L 417 573 L 409 581 L 408 583 L 405 583 L 405 585 L 401 588 L 395 599 L 392 600 L 383 608 L 373 622 L 370 628 L 366 632 L 366 635 L 364 637 L 363 642 L 361 645 L 361 648 L 359 650 L 356 659 L 352 664 L 349 670 L 340 680 L 341 682 L 347 682 L 350 680 L 353 681 L 357 680 L 359 682 L 362 681 L 363 683 L 358 686 L 348 686 L 347 687 L 339 687 L 338 686 L 335 686 L 329 688 L 310 688 L 309 687 L 304 687 L 303 686 L 296 686 L 295 685 L 284 683 L 282 681 L 283 675 L 287 669 L 287 664 L 284 661 L 281 661 L 276 663 L 271 671 L 271 676 L 269 678 L 267 678 L 266 677 L 263 677 L 258 674 L 256 674 L 251 669 L 255 664 L 255 662 L 257 659 L 258 653 L 256 651 L 248 653 L 243 658 L 238 668 L 236 668 L 233 665 L 233 660 L 236 652 L 247 642 L 256 639 L 261 639 L 262 638 L 277 638 L 278 639 L 282 639 L 286 641 L 289 641 L 298 644 L 311 645 L 309 642 L 307 642 L 302 638 L 292 633 L 284 631 L 280 628 L 281 625 L 281 619 L 282 618 L 282 613 L 283 612 L 283 607 L 284 606 L 284 601 L 285 600 L 286 583 L 296 571 L 296 569 L 294 568 L 291 564 L 295 560 L 306 555 L 313 549 L 312 547 L 308 547 L 307 546 L 308 543 L 321 537 L 333 528 L 348 520 L 353 519 L 361 515 L 364 515 L 370 512 L 380 510 L 381 509 L 388 509 L 388 508 L 386 506 L 381 504 L 368 504 L 367 505 L 359 506 L 358 507 L 355 507 L 354 508 L 351 508 L 347 510 L 341 511 L 323 520 L 314 528 L 304 534 L 301 537 L 295 540 L 289 548 L 283 543 L 279 541 L 273 534 L 269 533 L 267 535 L 264 535 L 262 534 L 254 526 L 254 525 L 252 524 L 252 523 L 250 522 L 247 524 L 245 522 L 239 510 L 239 506 L 238 505 L 238 492 L 236 491 L 231 498 L 229 497 L 229 491 L 230 490 L 230 485 L 232 481 L 233 471 L 230 471 L 224 477 L 222 475 L 224 464 L 226 458 L 229 454 L 230 448 L 227 447 L 222 450 L 220 448 L 220 446 L 233 426 L 233 422 L 232 421 L 226 422 L 224 420 L 226 416 L 237 405 L 239 401 L 239 399 L 238 398 L 234 398 L 233 395 L 246 381 L 251 378 L 259 370 L 262 365 L 262 363 L 259 362 L 253 365 L 248 370 L 245 368 L 245 365 L 250 355 L 250 347 L 256 332 L 253 331 L 252 329 L 259 322 L 259 319 L 256 319 L 252 323 L 251 325 L 251 328 L 252 329 L 247 335 L 245 343 L 241 348 L 239 349 L 227 349 L 223 346 L 219 345 L 217 343 L 220 339 L 222 339 L 226 335 L 225 334 L 214 334 L 213 333 L 210 333 L 206 331 L 203 327 L 189 327 L 187 325 L 187 323 L 193 318 L 191 316 L 172 310 L 168 307 L 166 307 L 157 302 L 152 297 L 147 294 L 141 289 L 119 266 L 117 267 L 114 266 L 106 251 L 103 241 L 97 235 L 90 231 L 84 225 L 77 220 L 66 206 L 63 199 L 63 196 L 67 191 L 71 189 L 75 189 L 78 186 L 84 189 L 90 189 L 94 184 L 94 181 L 92 176 L 85 169 L 78 165 L 74 165 L 72 168 L 72 171 L 70 172 L 69 171 L 69 165 L 74 160 L 77 159 L 78 160 L 82 160 L 89 165 L 95 172 L 99 169 L 102 171 L 107 171 L 110 169 L 112 166 L 112 159 L 106 148 L 98 141 L 95 141 L 92 144 L 92 146 L 90 148 L 89 147 L 89 141 L 95 136 L 101 137 L 103 139 L 105 139 L 109 143 L 119 162 L 124 161 L 129 165 L 135 165 L 138 162 L 138 150 L 137 149 L 137 146 L 132 138 L 129 136 L 126 136 L 124 134 L 126 132 L 131 132 L 135 135 L 138 139 L 138 141 L 142 150 L 143 157 L 146 160 L 148 159 L 149 160 L 149 164 L 147 168 L 148 176 L 152 179 L 157 179 L 163 172 L 163 169 L 164 168 L 164 158 L 161 153 L 159 152 L 155 152 L 154 151 L 156 149 L 162 149 L 168 155 L 169 157 L 169 163 L 170 164 L 170 167 L 169 168 L 169 176 L 168 177 L 167 184 L 165 187 L 165 192 L 175 203 L 178 208 L 187 218 L 189 222 L 194 227 L 196 227 L 199 224 L 203 228 L 209 240 L 216 249 L 217 249 L 219 246 L 219 242 L 222 241 L 225 244 L 228 250 L 228 252 L 233 260 L 239 256 L 243 260 L 246 267 L 249 270 L 251 270 L 255 265 L 263 274 L 267 282 L 270 285 L 274 285 L 277 282 L 277 278 L 274 271 L 268 263 L 254 250 L 253 245 L 251 242 L 246 246 L 242 242 L 241 239 L 242 224 L 241 223 L 237 223 L 235 225 L 232 224 L 232 218 L 236 207 L 236 204 L 233 203 L 230 205 L 228 203 L 228 200 L 234 188 L 234 184 L 233 183 L 228 184 L 226 181 L 238 167 L 237 165 L 237 157 L 240 152 L 240 150 L 242 148 L 242 146 L 246 137 L 244 134 L 242 134 L 234 129 L 230 125 L 227 120 L 226 114 L 225 113 L 225 107 L 226 106 L 227 99 L 230 93 L 239 84 L 246 80 L 252 78 L 262 78 L 265 79 L 273 84 L 279 92 L 281 92 L 294 83 L 307 79 L 308 76 L 311 73 L 328 73 L 329 72 L 329 68 L 328 67 L 328 63 L 329 62 L 333 62 L 342 68 L 347 69 L 355 61 L 360 60 L 362 62 L 360 67 L 360 70 L 361 71 L 369 70 L 370 69 L 387 70 L 388 71 L 396 72 L 405 76 L 408 76 L 410 74 L 412 68 L 424 57 L 426 57 L 432 54 Z M 449 46 L 455 49 L 457 49 L 465 54 L 474 63 L 480 74 L 481 85 L 482 86 L 480 97 L 476 105 L 469 113 L 469 117 L 472 120 L 479 133 L 481 135 L 484 141 L 485 146 L 496 157 L 497 164 L 494 169 L 494 172 L 500 182 L 500 191 L 496 195 L 496 199 L 498 203 L 498 211 L 496 216 L 490 222 L 488 234 L 481 243 L 477 255 L 480 257 L 487 257 L 488 258 L 497 259 L 507 264 L 514 264 L 515 265 L 521 265 L 530 269 L 538 276 L 549 278 L 556 281 L 561 286 L 562 291 L 564 293 L 566 293 L 579 299 L 583 303 L 582 311 L 597 323 L 604 344 L 607 350 L 611 355 L 611 357 L 613 360 L 614 379 L 620 390 L 622 396 L 622 412 L 617 423 L 611 429 L 602 433 L 593 442 L 587 445 L 584 445 L 578 447 L 570 451 L 557 451 L 556 450 L 549 449 L 543 446 L 537 446 L 535 448 L 539 460 L 539 478 L 538 479 L 537 485 L 533 493 L 523 503 L 517 507 L 509 523 L 509 526 L 507 530 L 507 538 L 511 546 L 513 552 L 514 560 L 515 561 L 516 575 L 517 576 L 518 605 L 513 614 L 503 624 L 495 628 L 480 628 L 479 627 L 472 626 L 466 623 L 461 619 L 456 618 L 440 626 L 430 633 L 421 636 L 418 638 L 406 639 L 402 637 L 399 637 L 400 640 L 399 645 L 389 655 L 389 669 L 384 682 L 376 691 L 369 695 L 363 697 L 352 698 L 351 699 L 338 699 L 337 700 L 297 699 L 296 698 L 278 697 L 277 696 L 272 696 L 271 695 L 267 695 L 266 694 L 255 692 L 243 686 L 241 686 L 232 682 L 224 675 L 222 672 L 221 666 L 220 665 L 220 656 L 221 653 L 226 645 L 236 635 L 243 632 L 251 631 L 252 630 L 258 630 L 259 629 L 265 629 L 268 627 L 270 621 L 270 614 L 271 613 L 271 607 L 272 606 L 272 586 L 275 578 L 275 575 L 279 567 L 279 561 L 280 559 L 292 548 L 297 540 L 310 532 L 324 520 L 333 515 L 343 512 L 346 510 L 360 507 L 361 506 L 364 506 L 365 505 L 378 504 L 382 506 L 380 509 L 374 511 L 371 511 L 359 515 L 354 518 L 346 520 L 335 526 L 321 536 L 307 543 L 305 546 L 308 547 L 311 550 L 305 555 L 297 559 L 295 559 L 289 565 L 289 566 L 294 570 L 294 572 L 286 581 L 286 584 L 285 585 L 285 597 L 284 598 L 283 610 L 281 616 L 280 629 L 285 632 L 290 633 L 300 638 L 303 642 L 302 643 L 299 643 L 298 642 L 294 642 L 285 639 L 274 638 L 273 637 L 257 638 L 256 639 L 253 639 L 247 641 L 242 644 L 237 649 L 233 658 L 233 667 L 235 669 L 238 670 L 240 668 L 240 665 L 243 659 L 249 653 L 254 652 L 256 654 L 256 657 L 250 667 L 250 672 L 256 676 L 259 676 L 266 679 L 272 679 L 273 678 L 273 674 L 272 673 L 273 668 L 277 664 L 283 662 L 286 665 L 286 669 L 283 674 L 281 682 L 284 684 L 287 684 L 292 686 L 298 686 L 299 687 L 313 688 L 314 689 L 332 689 L 333 688 L 357 687 L 368 683 L 374 677 L 378 667 L 378 662 L 379 661 L 380 652 L 385 642 L 385 639 L 386 638 L 386 635 L 387 634 L 387 631 L 388 630 L 388 627 L 390 621 L 396 613 L 401 603 L 403 601 L 407 602 L 424 584 L 431 580 L 434 577 L 442 573 L 455 564 L 461 561 L 463 561 L 470 557 L 486 542 L 494 530 L 498 521 L 498 519 L 500 516 L 504 504 L 504 501 L 505 500 L 505 496 L 506 495 L 505 481 L 507 479 L 510 478 L 509 465 L 504 451 L 504 449 L 506 447 L 509 447 L 510 445 L 507 438 L 497 422 L 497 420 L 499 418 L 502 417 L 502 412 L 494 402 L 492 398 L 492 391 L 483 379 L 475 376 L 471 376 L 470 375 L 466 375 L 465 374 L 452 372 L 450 370 L 447 369 L 442 364 L 442 360 L 444 358 L 446 358 L 455 362 L 464 363 L 465 364 L 470 364 L 476 366 L 486 366 L 488 364 L 494 366 L 503 374 L 508 384 L 510 391 L 515 397 L 517 401 L 517 409 L 514 413 L 514 421 L 518 429 L 522 433 L 526 435 L 531 435 L 535 432 L 535 426 L 536 423 L 538 421 L 541 424 L 544 433 L 550 438 L 556 441 L 566 441 L 570 438 L 570 423 L 571 422 L 574 422 L 577 425 L 580 434 L 581 435 L 584 435 L 590 431 L 593 428 L 595 424 L 595 415 L 594 414 L 594 408 L 595 407 L 597 407 L 601 411 L 601 413 L 604 417 L 605 417 L 610 411 L 610 400 L 609 399 L 609 395 L 606 386 L 604 383 L 604 381 L 595 365 L 597 362 L 600 362 L 600 357 L 594 347 L 586 338 L 586 336 L 590 332 L 590 329 L 586 325 L 580 323 L 578 321 L 575 321 L 567 314 L 567 313 L 573 308 L 571 305 L 551 298 L 547 294 L 551 289 L 547 286 L 539 285 L 538 284 L 526 283 L 524 281 L 525 279 L 525 275 L 521 273 L 498 273 L 497 272 L 497 268 L 493 265 L 472 265 L 471 266 L 462 266 L 450 270 L 448 270 L 446 268 L 450 264 L 457 260 L 464 253 L 470 243 L 471 237 L 472 236 L 472 231 L 475 228 L 477 230 L 479 230 L 481 225 L 481 214 L 480 213 L 480 210 L 482 208 L 486 211 L 489 209 L 488 207 L 488 203 L 481 188 L 483 186 L 485 186 L 488 188 L 490 187 L 490 182 L 488 180 L 487 177 L 477 166 L 479 164 L 485 164 L 487 162 L 487 160 L 485 157 L 473 149 L 473 147 L 476 143 L 467 131 L 463 122 L 456 114 L 456 111 L 462 106 L 470 94 L 471 91 L 471 79 L 469 73 L 466 68 L 457 59 L 450 55 L 444 53 L 433 53 L 432 54 L 426 55 L 418 60 L 413 65 L 410 70 L 410 72 L 407 75 L 404 75 L 402 73 L 396 71 L 387 70 L 386 69 L 381 69 L 380 68 L 368 68 L 367 69 L 363 69 L 362 68 L 362 64 L 363 63 L 363 59 L 362 58 L 356 59 L 353 61 L 347 68 L 344 68 L 341 65 L 329 60 L 327 62 L 327 66 L 328 67 L 328 71 L 327 72 L 310 72 L 307 74 L 307 76 L 304 79 L 300 81 L 297 81 L 281 90 L 279 90 L 272 82 L 263 77 L 252 77 L 246 79 L 237 84 L 229 93 L 226 100 L 226 103 L 225 104 L 225 115 L 229 125 L 236 132 L 239 133 L 244 137 L 244 141 L 236 157 L 236 165 L 237 167 L 236 169 L 229 175 L 225 181 L 225 184 L 227 186 L 231 185 L 233 187 L 229 195 L 228 201 L 227 202 L 227 204 L 229 206 L 231 205 L 234 205 L 235 206 L 232 215 L 231 223 L 233 227 L 235 227 L 238 225 L 241 227 L 240 236 L 241 237 L 241 242 L 243 246 L 245 248 L 248 248 L 250 246 L 253 249 L 254 253 L 256 255 L 258 255 L 268 265 L 270 269 L 273 272 L 276 278 L 276 282 L 274 284 L 271 284 L 267 280 L 263 272 L 254 263 L 252 264 L 252 267 L 249 268 L 246 265 L 244 260 L 239 254 L 237 254 L 236 256 L 233 258 L 228 250 L 227 245 L 222 239 L 219 240 L 218 245 L 216 247 L 209 238 L 203 226 L 199 221 L 195 226 L 191 223 L 188 218 L 177 205 L 175 201 L 165 190 L 166 186 L 168 184 L 169 176 L 170 175 L 170 157 L 168 153 L 163 148 L 160 148 L 159 147 L 155 148 L 150 154 L 146 157 L 143 154 L 141 144 L 139 141 L 138 137 L 132 131 L 125 131 L 122 133 L 120 138 L 120 156 L 118 157 L 110 143 L 104 137 L 98 135 L 94 135 L 92 136 L 88 141 L 88 150 L 95 167 L 93 168 L 85 161 L 77 158 L 73 159 L 69 163 L 68 170 L 69 171 L 70 177 L 74 184 L 74 186 L 72 188 L 68 189 L 64 192 L 63 194 L 63 202 L 70 214 L 83 227 L 92 234 L 98 237 L 102 241 L 102 243 L 104 246 L 106 254 L 110 261 L 110 263 L 112 265 L 115 272 L 127 288 L 139 300 L 146 304 L 153 311 L 151 314 L 148 314 L 147 315 L 147 317 L 149 319 L 163 327 L 165 327 L 170 330 L 174 331 L 177 334 L 172 338 L 172 340 L 174 342 L 176 342 L 184 346 L 187 346 L 188 347 L 191 347 L 197 349 L 200 352 L 198 355 L 200 358 L 217 361 L 219 363 L 219 366 L 221 368 L 227 370 L 230 370 L 231 371 L 234 369 L 234 366 L 239 354 L 244 350 L 247 350 L 249 352 L 249 356 L 244 366 L 244 372 L 242 377 L 242 383 L 231 396 L 232 399 L 236 399 L 238 401 L 225 416 L 223 420 L 224 423 L 229 423 L 230 422 L 232 425 L 229 431 L 221 442 L 219 448 L 220 451 L 223 451 L 225 449 L 227 449 L 229 451 L 227 454 L 222 469 L 222 478 L 224 479 L 229 474 L 231 476 L 230 486 L 229 487 L 229 499 L 231 501 L 235 496 L 237 497 L 238 509 L 241 515 L 241 517 L 243 519 L 244 523 L 247 528 L 253 535 L 255 536 L 259 536 L 274 549 L 274 557 L 276 561 L 275 564 L 272 567 L 270 565 L 266 555 L 256 546 L 246 541 L 238 533 L 234 527 L 228 515 L 228 513 L 221 506 L 220 504 L 220 499 L 219 498 L 219 492 L 213 483 L 213 468 L 214 467 L 214 460 L 210 453 L 210 447 L 211 446 L 212 440 L 217 432 L 217 429 L 215 427 L 214 424 L 214 419 L 215 416 L 222 406 L 222 398 L 228 387 L 229 382 L 220 377 L 211 374 L 205 367 L 199 365 L 195 365 L 191 363 L 186 355 L 173 351 L 166 347 L 162 341 L 162 337 L 159 334 L 150 330 L 144 326 L 138 320 L 136 309 L 118 292 L 106 276 L 97 259 L 93 246 L 73 231 L 62 220 L 56 211 L 53 202 L 53 193 L 55 188 L 61 182 L 61 178 L 58 170 L 59 162 L 62 157 L 66 153 L 72 150 L 77 150 L 79 148 L 79 141 L 83 133 L 87 129 L 94 126 L 97 126 L 98 127 L 105 128 L 110 132 L 112 132 L 115 127 L 118 124 L 122 122 L 127 122 L 128 121 L 133 122 L 137 124 L 144 131 L 148 140 L 150 142 L 156 139 L 162 139 L 168 141 L 174 146 L 179 156 L 179 165 L 180 166 L 179 168 L 180 170 L 179 172 L 179 180 L 177 185 L 177 190 L 178 192 L 195 212 L 202 212 L 206 216 L 212 228 L 214 230 L 220 230 L 223 228 L 223 217 L 224 215 L 219 209 L 219 198 L 221 195 L 221 193 L 217 188 L 217 179 L 219 175 L 226 168 L 226 160 L 227 159 L 227 156 L 233 145 L 233 142 L 219 127 L 218 123 L 216 120 L 215 106 L 216 105 L 216 101 L 219 92 L 228 80 L 238 73 L 240 73 L 245 70 L 248 70 L 249 69 L 264 69 L 270 71 L 282 79 L 284 79 L 286 77 L 310 65 L 318 65 L 319 64 L 319 59 L 320 57 L 325 53 L 334 53 L 344 58 L 346 58 L 351 53 L 355 51 L 363 50 L 369 55 L 369 57 L 372 60 L 383 60 L 384 61 L 389 61 L 390 62 L 394 62 L 399 64 L 403 64 L 405 60 L 411 54 L 421 48 L 427 46 L 430 46 L 431 45 L 445 45 L 446 46 Z" fill="#B1B1B1" fill-rule="evenodd"/><path d="M 252 335 L 249 338 L 248 342 L 249 342 L 249 341 L 251 339 Z M 270 174 L 269 180 L 268 181 L 268 189 L 269 190 L 270 196 L 272 198 L 272 199 L 279 205 L 283 207 L 285 207 L 289 210 L 290 218 L 291 219 L 292 224 L 297 234 L 304 243 L 304 244 L 314 255 L 322 260 L 324 259 L 319 253 L 315 246 L 315 239 L 319 231 L 332 221 L 340 217 L 344 217 L 345 216 L 354 217 L 358 219 L 364 224 L 366 228 L 366 233 L 365 234 L 365 237 L 363 240 L 363 242 L 361 244 L 361 246 L 358 250 L 358 252 L 360 252 L 367 240 L 367 238 L 370 231 L 371 222 L 372 221 L 373 198 L 372 197 L 372 190 L 371 189 L 370 185 L 368 183 L 366 183 L 359 192 L 343 200 L 335 201 L 334 202 L 325 202 L 324 201 L 319 201 L 318 200 L 314 200 L 313 199 L 309 199 L 308 198 L 302 198 L 295 203 L 293 203 L 292 204 L 286 204 L 280 201 L 274 194 L 274 192 L 273 191 L 273 177 L 274 176 L 274 174 L 273 173 L 271 173 Z M 279 167 L 279 172 L 280 173 L 281 177 L 288 184 L 295 187 L 306 187 L 307 186 L 312 185 L 316 182 L 319 181 L 325 175 L 327 171 L 327 166 L 322 161 L 318 159 L 313 158 L 312 157 L 298 157 L 297 158 L 290 159 L 282 163 Z M 287 136 L 283 136 L 278 142 L 278 144 L 277 145 L 277 156 L 279 158 L 282 158 L 284 157 L 288 153 L 290 149 L 290 139 Z M 367 130 L 363 134 L 362 138 L 361 139 L 361 149 L 363 153 L 366 156 L 371 156 L 376 150 L 376 147 L 377 146 L 377 141 L 376 140 L 376 137 L 374 133 L 370 130 Z M 295 98 L 294 97 L 289 97 L 284 100 L 280 104 L 279 106 L 279 109 L 280 110 L 282 110 L 289 104 L 294 102 L 295 101 Z M 366 90 L 366 92 L 367 93 L 375 95 L 381 99 L 384 99 L 385 98 L 385 94 L 381 90 L 379 90 L 376 88 L 368 88 Z M 449 47 L 446 47 L 445 46 L 431 46 L 430 47 L 427 47 L 426 48 L 421 49 L 411 55 L 406 60 L 405 63 L 403 65 L 399 65 L 398 64 L 390 63 L 389 62 L 384 62 L 383 61 L 372 61 L 368 57 L 368 55 L 363 51 L 358 51 L 357 52 L 355 52 L 351 54 L 346 59 L 344 59 L 334 54 L 325 54 L 321 57 L 320 59 L 320 64 L 318 66 L 310 66 L 309 67 L 307 67 L 297 72 L 295 74 L 286 78 L 284 80 L 282 80 L 272 73 L 265 71 L 264 70 L 249 70 L 248 71 L 245 71 L 240 74 L 238 74 L 236 76 L 233 77 L 229 81 L 228 81 L 220 92 L 220 94 L 218 97 L 218 100 L 217 101 L 217 105 L 216 106 L 216 114 L 217 115 L 217 120 L 219 123 L 219 125 L 222 130 L 234 142 L 234 145 L 228 156 L 228 159 L 227 160 L 227 168 L 220 175 L 218 179 L 218 188 L 222 193 L 222 195 L 220 198 L 220 209 L 225 215 L 224 217 L 224 228 L 220 231 L 214 231 L 211 228 L 205 216 L 202 213 L 195 213 L 189 207 L 189 206 L 185 202 L 182 197 L 177 192 L 176 190 L 176 185 L 177 184 L 177 181 L 178 180 L 178 172 L 179 171 L 178 168 L 179 166 L 178 165 L 178 156 L 173 146 L 166 141 L 163 141 L 162 140 L 156 140 L 150 143 L 147 140 L 143 131 L 137 125 L 133 123 L 130 123 L 129 122 L 127 123 L 122 123 L 118 125 L 112 133 L 110 133 L 105 129 L 103 129 L 102 128 L 98 128 L 97 127 L 94 127 L 87 130 L 84 133 L 81 138 L 81 140 L 80 141 L 80 148 L 77 151 L 72 151 L 66 154 L 63 157 L 60 162 L 59 170 L 60 171 L 60 174 L 62 178 L 62 182 L 56 188 L 55 192 L 54 193 L 54 202 L 55 203 L 55 206 L 57 209 L 57 211 L 59 213 L 63 220 L 73 230 L 74 230 L 79 235 L 80 235 L 84 239 L 91 243 L 94 246 L 96 254 L 98 257 L 98 259 L 107 276 L 115 286 L 115 287 L 119 291 L 119 292 L 137 309 L 138 311 L 138 318 L 139 320 L 144 325 L 145 325 L 150 329 L 159 333 L 163 337 L 163 341 L 166 346 L 173 350 L 175 350 L 176 351 L 178 351 L 179 352 L 186 354 L 188 356 L 191 362 L 195 364 L 199 364 L 200 365 L 205 366 L 211 373 L 215 374 L 218 376 L 220 376 L 228 380 L 230 382 L 229 387 L 226 393 L 224 395 L 224 397 L 223 398 L 223 406 L 216 416 L 216 418 L 215 419 L 215 424 L 216 425 L 216 427 L 218 429 L 218 432 L 213 440 L 212 446 L 211 447 L 211 453 L 212 454 L 212 456 L 215 460 L 215 467 L 214 468 L 214 483 L 216 487 L 220 492 L 221 504 L 222 506 L 229 513 L 229 515 L 235 527 L 237 529 L 239 533 L 246 540 L 256 545 L 259 548 L 260 548 L 267 555 L 269 559 L 269 561 L 272 566 L 274 564 L 274 562 L 275 561 L 273 557 L 273 549 L 259 537 L 255 537 L 253 536 L 246 528 L 243 523 L 242 519 L 240 517 L 240 515 L 237 509 L 237 505 L 236 504 L 236 497 L 235 497 L 231 502 L 228 499 L 228 487 L 229 486 L 230 476 L 229 475 L 224 480 L 223 480 L 221 478 L 221 469 L 222 468 L 223 462 L 225 459 L 226 454 L 228 451 L 227 450 L 225 450 L 223 452 L 220 452 L 218 448 L 219 447 L 220 442 L 228 431 L 231 425 L 230 423 L 229 424 L 224 424 L 222 422 L 222 420 L 224 416 L 230 410 L 230 409 L 236 403 L 237 401 L 236 400 L 232 400 L 230 398 L 230 396 L 241 383 L 241 377 L 242 376 L 242 373 L 243 372 L 243 366 L 248 356 L 248 352 L 247 351 L 244 351 L 240 354 L 237 360 L 237 362 L 235 366 L 235 369 L 232 372 L 231 372 L 230 371 L 227 371 L 226 370 L 221 369 L 218 366 L 218 363 L 217 362 L 214 362 L 213 361 L 208 361 L 207 360 L 203 360 L 202 359 L 200 359 L 197 356 L 199 352 L 197 350 L 195 350 L 191 348 L 188 348 L 187 347 L 184 347 L 176 343 L 174 343 L 171 340 L 171 338 L 176 334 L 174 332 L 170 331 L 165 328 L 163 328 L 149 320 L 146 317 L 146 315 L 148 313 L 151 313 L 152 311 L 146 305 L 139 301 L 126 288 L 126 287 L 118 278 L 118 277 L 114 272 L 111 265 L 109 263 L 109 261 L 105 254 L 105 252 L 104 251 L 103 246 L 101 243 L 101 241 L 98 238 L 92 235 L 84 228 L 83 228 L 69 214 L 62 202 L 62 194 L 63 192 L 66 189 L 70 188 L 73 186 L 73 184 L 69 177 L 68 171 L 67 170 L 68 163 L 73 158 L 77 157 L 78 158 L 81 158 L 85 160 L 93 167 L 94 167 L 87 150 L 87 141 L 92 135 L 94 134 L 98 134 L 99 135 L 104 136 L 111 143 L 114 149 L 116 151 L 118 156 L 119 156 L 119 138 L 120 137 L 121 133 L 125 130 L 132 130 L 139 137 L 140 141 L 142 144 L 142 147 L 144 151 L 144 154 L 146 156 L 147 156 L 155 147 L 157 147 L 158 146 L 160 147 L 163 147 L 169 153 L 171 157 L 171 175 L 170 176 L 170 181 L 169 182 L 169 184 L 167 186 L 166 190 L 167 192 L 176 201 L 178 205 L 189 218 L 192 223 L 194 225 L 195 225 L 199 220 L 204 226 L 207 233 L 216 246 L 217 245 L 217 242 L 218 240 L 220 238 L 222 238 L 228 245 L 229 250 L 233 257 L 234 257 L 237 253 L 239 253 L 243 257 L 247 265 L 249 267 L 251 267 L 251 264 L 253 262 L 254 262 L 264 272 L 268 280 L 271 283 L 274 283 L 275 282 L 275 278 L 272 272 L 269 269 L 267 265 L 258 256 L 256 256 L 253 253 L 252 249 L 250 247 L 248 249 L 245 249 L 242 246 L 240 242 L 240 237 L 239 236 L 239 233 L 240 232 L 240 227 L 238 226 L 235 228 L 233 228 L 231 226 L 231 224 L 230 223 L 230 221 L 231 220 L 231 215 L 232 214 L 234 206 L 231 206 L 229 207 L 226 204 L 226 202 L 227 201 L 228 195 L 232 187 L 231 186 L 227 187 L 224 184 L 224 181 L 228 176 L 228 175 L 230 173 L 231 173 L 236 167 L 235 165 L 235 157 L 243 141 L 243 137 L 239 134 L 236 133 L 228 125 L 225 119 L 225 116 L 224 115 L 224 104 L 225 103 L 225 100 L 228 93 L 231 90 L 231 89 L 240 81 L 252 76 L 263 76 L 272 81 L 278 87 L 279 89 L 281 89 L 297 80 L 300 80 L 304 78 L 306 76 L 306 74 L 310 71 L 327 71 L 326 62 L 329 59 L 333 60 L 341 64 L 344 67 L 347 67 L 353 60 L 354 60 L 356 58 L 362 57 L 364 59 L 363 68 L 367 68 L 368 67 L 380 67 L 381 68 L 386 68 L 387 69 L 392 69 L 393 70 L 396 70 L 397 71 L 402 72 L 404 74 L 407 74 L 409 72 L 409 70 L 412 65 L 418 59 L 426 54 L 432 53 L 433 52 L 444 52 L 445 53 L 450 54 L 457 58 L 467 68 L 470 73 L 470 75 L 472 79 L 472 91 L 471 92 L 471 94 L 469 98 L 463 105 L 463 106 L 457 111 L 457 114 L 464 122 L 468 131 L 477 143 L 477 144 L 474 147 L 474 149 L 485 156 L 488 160 L 488 162 L 485 165 L 479 165 L 478 166 L 488 177 L 489 180 L 491 182 L 491 187 L 489 189 L 485 187 L 483 187 L 482 188 L 485 193 L 485 195 L 489 203 L 489 207 L 490 209 L 487 212 L 486 212 L 483 209 L 481 210 L 481 213 L 482 214 L 482 225 L 481 226 L 480 230 L 479 231 L 477 231 L 475 229 L 473 231 L 473 236 L 472 237 L 471 243 L 465 253 L 457 261 L 450 265 L 447 268 L 448 269 L 450 269 L 451 268 L 454 268 L 455 267 L 461 266 L 462 265 L 471 265 L 472 264 L 493 264 L 498 268 L 498 272 L 521 272 L 522 273 L 524 273 L 526 275 L 526 279 L 525 280 L 526 282 L 531 282 L 532 283 L 538 283 L 539 284 L 547 285 L 552 289 L 552 290 L 548 293 L 548 294 L 551 297 L 555 299 L 557 299 L 564 302 L 567 302 L 571 304 L 574 307 L 574 308 L 571 311 L 570 311 L 568 313 L 568 314 L 575 320 L 578 320 L 580 322 L 582 322 L 586 324 L 591 329 L 591 332 L 587 336 L 587 338 L 588 340 L 595 347 L 601 357 L 601 362 L 600 363 L 597 363 L 596 365 L 605 381 L 605 383 L 607 386 L 607 388 L 610 395 L 610 399 L 611 400 L 611 411 L 610 413 L 605 418 L 604 418 L 601 415 L 600 411 L 597 408 L 595 408 L 595 414 L 596 415 L 596 424 L 594 428 L 590 432 L 589 432 L 584 436 L 581 436 L 579 434 L 579 432 L 576 425 L 574 423 L 571 423 L 571 438 L 566 442 L 556 442 L 550 439 L 543 433 L 541 429 L 540 424 L 538 422 L 536 426 L 536 432 L 531 436 L 526 436 L 522 434 L 517 429 L 513 421 L 513 413 L 516 409 L 516 401 L 514 397 L 509 391 L 507 384 L 502 374 L 497 369 L 490 365 L 488 365 L 486 367 L 476 367 L 475 366 L 471 366 L 470 365 L 465 365 L 464 364 L 459 364 L 458 363 L 455 363 L 454 362 L 449 361 L 446 359 L 444 359 L 443 360 L 443 364 L 447 368 L 450 369 L 452 371 L 460 372 L 461 373 L 465 373 L 466 374 L 470 374 L 471 375 L 475 375 L 476 376 L 483 378 L 487 382 L 487 383 L 492 389 L 493 391 L 493 398 L 495 402 L 499 406 L 499 407 L 503 412 L 503 417 L 501 419 L 499 419 L 498 420 L 498 422 L 500 426 L 502 428 L 503 431 L 505 433 L 506 436 L 508 438 L 511 446 L 509 448 L 506 448 L 505 449 L 505 451 L 507 455 L 507 458 L 509 461 L 509 464 L 510 465 L 511 478 L 509 480 L 507 480 L 506 481 L 506 485 L 507 486 L 507 495 L 506 496 L 506 500 L 505 501 L 505 504 L 504 505 L 501 516 L 499 519 L 499 521 L 497 524 L 497 526 L 495 530 L 493 532 L 492 535 L 487 541 L 487 542 L 470 558 L 463 562 L 461 562 L 455 565 L 442 574 L 434 578 L 431 581 L 424 585 L 407 603 L 405 603 L 404 602 L 402 603 L 397 613 L 391 621 L 391 623 L 389 627 L 389 630 L 388 631 L 388 634 L 387 635 L 387 638 L 386 639 L 386 642 L 381 652 L 381 655 L 380 656 L 380 661 L 379 662 L 379 667 L 378 668 L 377 673 L 375 677 L 368 684 L 361 687 L 358 687 L 357 688 L 349 688 L 348 689 L 333 689 L 332 690 L 314 690 L 313 689 L 299 688 L 298 687 L 292 687 L 291 686 L 284 685 L 280 682 L 282 674 L 285 669 L 285 665 L 283 663 L 281 663 L 277 665 L 274 668 L 274 670 L 273 671 L 273 673 L 274 674 L 274 678 L 272 680 L 266 680 L 259 677 L 256 677 L 252 675 L 249 672 L 249 667 L 255 657 L 255 654 L 254 653 L 252 654 L 249 654 L 244 659 L 241 665 L 241 668 L 238 671 L 235 670 L 232 667 L 232 658 L 233 657 L 233 655 L 236 649 L 242 643 L 247 640 L 249 640 L 253 638 L 256 638 L 257 637 L 273 636 L 274 637 L 280 637 L 281 638 L 285 638 L 286 639 L 289 639 L 290 640 L 293 640 L 294 641 L 302 642 L 302 641 L 300 639 L 290 634 L 288 634 L 281 631 L 279 629 L 279 623 L 280 622 L 280 616 L 281 615 L 282 604 L 283 603 L 283 598 L 284 597 L 284 585 L 285 584 L 285 581 L 292 574 L 293 572 L 293 570 L 291 568 L 290 568 L 288 566 L 288 565 L 295 558 L 297 558 L 305 554 L 310 550 L 308 548 L 306 548 L 304 546 L 304 545 L 307 542 L 321 535 L 340 522 L 346 519 L 354 517 L 359 514 L 380 508 L 381 506 L 379 506 L 378 505 L 370 505 L 369 506 L 365 506 L 364 507 L 361 507 L 360 508 L 349 510 L 343 513 L 341 513 L 335 516 L 333 516 L 324 521 L 310 533 L 297 541 L 293 548 L 281 559 L 280 561 L 280 567 L 276 575 L 276 578 L 275 579 L 274 585 L 273 586 L 273 606 L 272 607 L 272 613 L 271 614 L 271 621 L 270 622 L 270 625 L 269 627 L 265 630 L 259 630 L 258 631 L 247 632 L 246 633 L 243 633 L 236 636 L 227 645 L 222 653 L 222 655 L 221 656 L 221 665 L 222 666 L 223 672 L 225 674 L 225 675 L 232 681 L 236 683 L 238 683 L 241 685 L 243 685 L 255 691 L 258 691 L 259 692 L 262 692 L 263 693 L 266 693 L 267 694 L 271 694 L 272 695 L 285 696 L 286 697 L 296 697 L 297 698 L 337 699 L 338 698 L 351 698 L 352 697 L 363 696 L 364 695 L 369 694 L 376 690 L 383 682 L 385 678 L 385 676 L 387 673 L 387 670 L 388 669 L 388 655 L 398 645 L 399 643 L 398 637 L 399 636 L 402 636 L 406 638 L 418 637 L 421 635 L 423 635 L 426 633 L 430 632 L 440 625 L 456 617 L 459 617 L 466 622 L 472 625 L 475 625 L 476 626 L 479 626 L 480 627 L 495 627 L 503 623 L 512 614 L 517 605 L 516 576 L 515 575 L 514 561 L 513 560 L 512 552 L 511 551 L 510 546 L 506 538 L 506 530 L 508 526 L 508 523 L 513 514 L 514 510 L 519 504 L 523 502 L 532 493 L 536 485 L 537 479 L 538 478 L 538 460 L 537 459 L 534 448 L 537 445 L 543 445 L 549 448 L 552 448 L 553 449 L 556 449 L 557 450 L 570 450 L 578 446 L 580 446 L 584 444 L 587 444 L 593 441 L 602 432 L 611 428 L 616 423 L 621 412 L 621 396 L 620 395 L 619 390 L 613 379 L 612 360 L 610 357 L 610 355 L 606 350 L 603 344 L 603 342 L 601 339 L 601 337 L 598 330 L 598 327 L 596 323 L 593 320 L 586 316 L 581 311 L 582 303 L 579 300 L 573 297 L 571 297 L 566 294 L 564 294 L 561 291 L 561 288 L 560 286 L 556 282 L 549 279 L 538 277 L 536 276 L 530 270 L 524 267 L 522 267 L 521 266 L 515 266 L 514 265 L 507 265 L 497 260 L 493 260 L 492 259 L 488 259 L 487 258 L 480 258 L 476 255 L 480 243 L 487 234 L 489 222 L 495 216 L 496 212 L 497 211 L 497 203 L 495 199 L 495 195 L 499 191 L 499 182 L 493 172 L 493 169 L 496 164 L 496 160 L 495 159 L 495 157 L 484 146 L 483 141 L 480 135 L 478 133 L 473 123 L 468 117 L 468 113 L 475 105 L 479 97 L 480 89 L 481 88 L 481 86 L 480 85 L 479 74 L 473 63 L 465 55 L 464 55 L 459 51 L 455 50 Z M 502 547 L 503 555 L 504 556 L 504 561 L 505 562 L 505 566 L 506 567 L 507 579 L 508 580 L 508 599 L 504 604 L 501 604 L 500 605 L 497 605 L 496 606 L 487 606 L 486 607 L 487 608 L 487 610 L 492 614 L 492 616 L 491 617 L 490 617 L 488 619 L 483 620 L 482 619 L 478 619 L 475 617 L 472 617 L 470 616 L 466 612 L 466 598 L 464 597 L 462 599 L 461 602 L 457 606 L 457 607 L 451 612 L 439 618 L 437 618 L 434 621 L 428 624 L 424 625 L 415 631 L 412 631 L 411 630 L 405 630 L 403 628 L 403 621 L 406 616 L 410 612 L 414 610 L 419 605 L 420 605 L 425 600 L 426 600 L 436 590 L 437 590 L 446 582 L 447 582 L 455 576 L 462 573 L 464 571 L 476 565 L 480 561 L 481 561 L 493 549 L 493 548 L 495 546 L 496 546 L 498 544 L 499 544 Z M 520 448 L 521 448 L 523 450 L 524 455 L 528 459 L 528 461 L 529 462 L 529 466 L 530 467 L 528 479 L 526 482 L 526 484 L 523 488 L 521 488 L 520 487 L 520 464 L 519 463 L 519 458 L 518 457 L 518 450 Z" fill="#010101" fill-rule="evenodd"/></svg>