<svg xmlns="http://www.w3.org/2000/svg" viewBox="0 0 653 704" shape-rendering="geometricPrecision"><title>intro frame 101</title><path d="M 469 512 L 465 514 L 457 521 L 453 521 L 445 530 L 441 527 L 432 538 L 430 536 L 428 536 L 420 546 L 416 544 L 411 550 L 404 556 L 400 564 L 395 570 L 390 579 L 389 587 L 387 591 L 389 590 L 392 594 L 391 597 L 391 608 L 394 608 L 396 611 L 396 615 L 395 616 L 395 628 L 396 629 L 399 627 L 402 630 L 402 642 L 403 644 L 402 645 L 402 650 L 400 656 L 400 667 L 402 671 L 406 675 L 410 677 L 413 677 L 421 680 L 426 680 L 427 681 L 435 681 L 436 680 L 436 664 L 440 659 L 444 659 L 448 663 L 448 666 L 449 667 L 449 681 L 450 682 L 468 682 L 469 681 L 469 677 L 468 676 L 468 666 L 467 663 L 468 660 L 470 658 L 475 658 L 479 662 L 481 666 L 481 669 L 482 670 L 482 680 L 491 680 L 495 678 L 495 668 L 494 667 L 493 659 L 497 655 L 500 656 L 505 661 L 506 665 L 508 668 L 508 675 L 509 676 L 511 675 L 515 670 L 516 662 L 515 661 L 515 655 L 513 651 L 506 644 L 496 639 L 492 639 L 491 638 L 487 638 L 485 640 L 478 640 L 477 639 L 458 639 L 457 640 L 451 640 L 450 641 L 446 641 L 445 640 L 435 640 L 432 642 L 430 640 L 432 638 L 437 637 L 440 635 L 451 634 L 452 633 L 457 633 L 458 632 L 466 632 L 469 631 L 470 632 L 480 632 L 481 633 L 484 633 L 482 631 L 481 622 L 483 618 L 483 615 L 485 613 L 489 616 L 490 622 L 492 621 L 492 618 L 488 613 L 483 602 L 485 600 L 489 605 L 491 605 L 493 603 L 492 600 L 484 594 L 482 594 L 473 588 L 464 579 L 466 577 L 468 577 L 481 583 L 484 583 L 485 584 L 487 583 L 487 580 L 475 567 L 473 563 L 476 561 L 483 566 L 488 568 L 488 565 L 486 562 L 486 560 L 483 555 L 473 550 L 471 548 L 472 546 L 483 547 L 484 546 L 483 544 L 480 542 L 476 537 L 478 535 L 485 537 L 485 535 L 478 528 L 476 525 L 474 518 Z M 443 583 L 445 583 L 452 591 L 456 600 L 454 602 L 453 602 L 446 595 L 442 589 L 442 584 Z M 435 579 L 436 580 L 436 588 L 435 591 L 432 594 L 430 592 L 430 589 L 433 580 Z M 409 562 L 410 563 L 409 570 L 408 572 L 404 575 L 402 573 L 403 568 L 405 565 Z M 229 508 L 222 519 L 223 520 L 226 519 L 228 521 L 228 524 L 225 529 L 224 534 L 222 536 L 222 538 L 226 538 L 228 540 L 228 544 L 224 553 L 221 567 L 226 566 L 228 568 L 228 572 L 227 573 L 227 578 L 226 580 L 229 583 L 229 595 L 230 596 L 231 606 L 232 607 L 232 610 L 233 611 L 233 614 L 235 620 L 238 624 L 248 625 L 254 628 L 256 628 L 258 630 L 258 632 L 256 634 L 252 634 L 251 633 L 243 632 L 242 631 L 224 631 L 210 636 L 205 640 L 204 643 L 202 645 L 201 654 L 200 655 L 201 662 L 203 665 L 205 665 L 205 659 L 207 655 L 207 652 L 212 646 L 214 645 L 218 645 L 220 647 L 220 653 L 218 657 L 218 662 L 217 663 L 217 668 L 218 669 L 228 671 L 229 670 L 229 661 L 231 658 L 232 654 L 237 650 L 241 650 L 244 653 L 244 657 L 241 666 L 241 671 L 244 673 L 263 673 L 264 672 L 273 672 L 276 668 L 278 668 L 282 666 L 286 662 L 290 661 L 293 658 L 295 653 L 294 648 L 287 640 L 287 635 L 289 633 L 292 635 L 293 631 L 295 629 L 297 629 L 293 621 L 293 618 L 297 615 L 297 613 L 296 612 L 295 606 L 285 594 L 285 588 L 287 586 L 294 594 L 295 592 L 292 589 L 292 587 L 296 583 L 291 577 L 289 577 L 287 575 L 285 571 L 276 562 L 264 543 L 260 539 L 258 539 L 251 531 L 251 529 L 242 520 L 239 519 Z M 258 581 L 260 584 L 257 588 L 254 584 Z M 267 575 L 270 578 L 274 586 L 274 589 L 272 591 L 268 587 L 265 581 L 265 577 Z M 281 571 L 282 572 L 282 582 L 279 584 L 278 583 L 278 575 L 279 572 Z M 249 567 L 250 568 L 249 571 L 243 577 L 242 577 L 240 574 L 247 567 Z M 464 424 L 464 426 L 469 430 L 470 429 L 469 427 L 466 424 Z M 56 174 L 53 176 L 53 179 L 56 177 Z M 62 142 L 62 143 L 64 143 L 76 150 L 76 149 L 70 144 L 66 142 Z M 140 122 L 140 124 L 143 121 L 147 120 L 149 122 L 152 123 L 148 119 L 143 119 Z M 78 115 L 84 120 L 87 121 L 82 115 Z M 110 106 L 110 107 L 112 107 L 115 109 L 120 114 L 121 117 L 124 119 L 123 116 L 115 107 Z M 447 15 L 433 14 L 424 17 L 417 22 L 413 27 L 410 33 L 410 37 L 408 39 L 401 38 L 395 35 L 390 35 L 384 33 L 377 33 L 376 32 L 374 33 L 363 33 L 362 34 L 358 34 L 356 32 L 356 29 L 358 24 L 357 23 L 346 33 L 342 33 L 331 27 L 328 27 L 327 28 L 330 32 L 330 36 L 326 39 L 311 39 L 309 40 L 306 44 L 299 46 L 291 50 L 282 57 L 279 57 L 277 55 L 276 52 L 268 45 L 262 43 L 250 43 L 244 45 L 239 48 L 229 59 L 229 61 L 227 64 L 227 69 L 226 70 L 226 78 L 227 79 L 228 85 L 233 92 L 240 97 L 246 98 L 248 100 L 248 103 L 245 108 L 245 110 L 239 123 L 240 134 L 229 146 L 230 148 L 232 147 L 236 147 L 238 149 L 238 152 L 232 163 L 232 166 L 231 167 L 232 168 L 236 167 L 238 169 L 238 174 L 236 180 L 236 189 L 237 190 L 240 187 L 242 187 L 244 189 L 244 205 L 247 211 L 252 207 L 254 209 L 256 216 L 258 218 L 261 219 L 271 229 L 279 234 L 281 234 L 287 237 L 293 243 L 294 248 L 291 251 L 286 246 L 279 243 L 277 248 L 275 250 L 271 250 L 266 245 L 263 239 L 255 231 L 254 232 L 254 235 L 252 237 L 250 237 L 245 232 L 241 225 L 236 219 L 235 220 L 235 225 L 233 227 L 231 227 L 224 219 L 222 214 L 218 209 L 216 210 L 216 215 L 213 217 L 206 211 L 200 200 L 195 194 L 194 194 L 192 197 L 189 197 L 183 192 L 172 180 L 165 170 L 154 159 L 157 150 L 157 142 L 158 141 L 157 139 L 157 131 L 155 130 L 156 135 L 155 136 L 154 143 L 148 150 L 145 151 L 141 151 L 135 146 L 133 141 L 133 136 L 135 131 L 131 132 L 128 129 L 127 126 L 126 126 L 126 134 L 125 136 L 121 139 L 113 138 L 110 136 L 108 137 L 104 137 L 100 132 L 99 133 L 100 135 L 100 141 L 94 147 L 89 149 L 85 149 L 83 151 L 80 152 L 84 157 L 83 164 L 77 169 L 71 169 L 70 170 L 64 170 L 62 171 L 62 172 L 64 171 L 73 172 L 76 174 L 80 179 L 80 185 L 79 188 L 75 193 L 70 193 L 69 192 L 66 192 L 65 193 L 70 197 L 72 197 L 81 205 L 93 211 L 96 214 L 103 228 L 109 234 L 113 236 L 131 255 L 143 265 L 162 276 L 188 282 L 191 285 L 191 287 L 189 289 L 185 290 L 183 292 L 184 293 L 187 293 L 188 294 L 202 293 L 206 296 L 211 298 L 221 298 L 224 299 L 226 302 L 222 306 L 220 306 L 216 308 L 216 309 L 220 311 L 229 311 L 230 312 L 235 312 L 239 308 L 239 306 L 241 304 L 242 301 L 249 295 L 253 294 L 255 296 L 254 303 L 245 321 L 245 327 L 242 335 L 244 335 L 247 333 L 250 329 L 259 323 L 262 323 L 263 324 L 263 328 L 252 343 L 244 350 L 236 355 L 229 366 L 229 367 L 234 367 L 236 369 L 236 371 L 221 390 L 222 391 L 228 390 L 230 392 L 230 394 L 220 410 L 215 421 L 217 422 L 221 420 L 223 422 L 223 427 L 217 444 L 217 450 L 220 448 L 223 450 L 223 456 L 222 457 L 222 472 L 225 470 L 228 473 L 228 481 L 231 490 L 232 490 L 234 487 L 237 490 L 239 496 L 243 495 L 246 499 L 246 501 L 251 511 L 252 509 L 255 507 L 258 510 L 259 513 L 265 521 L 267 519 L 270 520 L 278 529 L 278 528 L 282 525 L 292 536 L 295 533 L 301 539 L 302 539 L 302 538 L 292 523 L 288 512 L 288 506 L 290 504 L 292 506 L 294 513 L 303 526 L 314 537 L 318 538 L 323 532 L 325 532 L 327 534 L 327 536 L 330 537 L 345 524 L 347 524 L 348 527 L 344 535 L 343 542 L 345 543 L 350 538 L 358 533 L 362 529 L 364 529 L 366 531 L 366 534 L 362 541 L 362 543 L 365 543 L 369 541 L 375 535 L 381 525 L 387 519 L 389 521 L 389 525 L 386 534 L 387 534 L 387 532 L 389 529 L 389 527 L 393 518 L 393 515 L 395 512 L 397 512 L 399 514 L 399 528 L 396 535 L 398 535 L 409 522 L 414 511 L 416 509 L 416 507 L 418 505 L 420 505 L 423 508 L 422 515 L 420 518 L 420 520 L 418 522 L 418 524 L 420 524 L 427 517 L 431 511 L 431 509 L 434 504 L 437 494 L 439 492 L 441 495 L 441 508 L 442 508 L 449 498 L 451 493 L 451 490 L 456 484 L 458 486 L 458 490 L 459 490 L 464 475 L 463 464 L 465 462 L 466 459 L 466 453 L 462 446 L 465 442 L 469 443 L 469 439 L 464 431 L 461 428 L 461 425 L 457 420 L 455 415 L 457 414 L 463 419 L 466 419 L 467 417 L 467 413 L 461 406 L 459 406 L 456 404 L 447 403 L 444 400 L 444 398 L 446 396 L 448 396 L 449 397 L 455 397 L 458 398 L 464 402 L 465 400 L 461 392 L 459 390 L 458 385 L 454 380 L 456 377 L 458 379 L 460 379 L 460 378 L 451 370 L 443 360 L 445 358 L 453 364 L 456 364 L 455 357 L 452 353 L 450 353 L 444 350 L 433 349 L 430 346 L 430 343 L 431 342 L 435 342 L 441 345 L 443 345 L 449 349 L 451 348 L 447 339 L 443 334 L 445 331 L 449 332 L 449 329 L 447 325 L 449 322 L 460 336 L 462 342 L 468 350 L 468 352 L 471 356 L 471 358 L 473 360 L 477 368 L 477 370 L 479 373 L 488 400 L 488 404 L 489 405 L 489 408 L 491 413 L 491 417 L 493 422 L 494 432 L 496 437 L 496 441 L 490 459 L 490 470 L 493 477 L 498 481 L 503 481 L 506 477 L 509 468 L 512 465 L 514 465 L 518 469 L 518 478 L 515 487 L 511 493 L 513 497 L 518 500 L 525 500 L 527 499 L 531 494 L 537 482 L 539 480 L 541 480 L 544 483 L 544 492 L 543 493 L 543 496 L 541 502 L 547 502 L 554 497 L 557 488 L 559 485 L 559 483 L 564 478 L 567 480 L 568 482 L 568 490 L 570 490 L 575 484 L 580 470 L 581 457 L 582 456 L 582 448 L 581 447 L 581 440 L 580 439 L 579 432 L 581 430 L 583 430 L 583 428 L 579 418 L 577 408 L 573 403 L 572 400 L 572 397 L 573 396 L 576 396 L 578 397 L 578 396 L 570 385 L 569 382 L 563 375 L 563 373 L 565 371 L 567 371 L 571 373 L 571 372 L 551 347 L 553 344 L 556 344 L 558 346 L 561 346 L 561 345 L 532 318 L 534 316 L 541 316 L 542 317 L 544 316 L 533 307 L 529 305 L 526 302 L 521 300 L 518 297 L 518 295 L 520 293 L 524 292 L 524 291 L 516 288 L 508 283 L 505 280 L 506 277 L 514 277 L 514 276 L 502 267 L 497 265 L 495 263 L 489 261 L 486 258 L 486 256 L 488 254 L 493 254 L 493 253 L 488 252 L 484 249 L 482 249 L 479 247 L 474 246 L 472 244 L 469 244 L 465 242 L 451 243 L 451 246 L 447 250 L 445 250 L 442 247 L 444 244 L 448 243 L 447 242 L 443 242 L 442 245 L 440 247 L 438 246 L 427 246 L 425 245 L 422 248 L 417 248 L 415 246 L 415 244 L 413 243 L 403 254 L 401 252 L 402 246 L 404 242 L 413 234 L 416 234 L 418 230 L 423 225 L 425 227 L 425 232 L 427 232 L 428 231 L 428 224 L 430 220 L 432 219 L 436 222 L 438 219 L 437 211 L 439 210 L 444 213 L 445 212 L 445 208 L 448 205 L 448 203 L 450 201 L 452 202 L 454 201 L 452 197 L 446 192 L 446 190 L 447 189 L 450 189 L 458 193 L 460 192 L 459 188 L 455 183 L 455 181 L 456 180 L 460 180 L 464 182 L 466 180 L 466 177 L 460 172 L 462 170 L 467 171 L 467 167 L 466 165 L 459 158 L 461 156 L 465 156 L 472 160 L 477 166 L 480 174 L 480 170 L 482 168 L 485 168 L 487 170 L 488 169 L 486 161 L 484 159 L 484 157 L 482 155 L 480 149 L 482 147 L 487 147 L 488 148 L 491 147 L 487 141 L 476 129 L 476 127 L 478 125 L 487 125 L 488 124 L 484 120 L 477 116 L 472 111 L 475 106 L 475 104 L 472 101 L 470 96 L 468 94 L 465 87 L 461 81 L 455 75 L 455 72 L 458 69 L 461 68 L 467 62 L 470 57 L 471 50 L 472 49 L 471 38 L 468 31 L 457 20 Z M 284 513 L 285 513 L 287 516 L 286 519 L 283 516 Z M 264 499 L 267 501 L 267 505 L 266 506 L 263 502 Z M 427 494 L 429 495 L 429 500 L 428 501 L 426 500 L 426 495 Z M 407 487 L 411 490 L 412 492 L 412 496 L 413 497 L 413 504 L 410 507 L 408 506 L 409 494 L 406 490 Z M 269 487 L 271 489 L 274 495 L 274 497 L 279 506 L 279 512 L 278 513 L 275 513 L 270 505 L 268 499 L 268 493 L 267 492 L 267 489 Z M 271 463 L 273 465 L 273 467 L 271 473 L 268 475 L 267 474 L 267 471 L 269 465 Z M 435 453 L 441 460 L 447 475 L 447 481 L 446 482 L 441 481 L 441 483 L 439 486 L 439 490 L 437 492 L 430 490 L 428 488 L 429 480 L 424 471 L 426 469 L 428 470 L 433 476 L 435 476 L 435 462 L 433 458 L 433 455 Z M 257 440 L 259 442 L 259 446 L 253 464 L 250 466 L 248 464 L 248 455 L 253 444 Z M 411 422 L 414 421 L 418 424 L 421 423 L 428 423 L 431 425 L 431 427 L 430 428 L 423 428 L 423 432 L 422 433 L 419 433 L 413 427 Z M 257 417 L 258 419 L 252 426 L 250 432 L 248 434 L 243 434 L 242 431 L 246 423 L 251 418 L 253 417 Z M 426 402 L 428 401 L 432 404 L 441 408 L 448 415 L 448 416 L 446 418 L 438 417 L 437 420 L 439 424 L 436 425 L 433 421 L 431 411 L 427 406 Z M 420 393 L 422 391 L 427 391 L 430 395 L 428 397 L 427 396 L 422 396 Z M 432 386 L 434 384 L 437 384 L 442 391 L 439 393 L 435 391 L 432 388 Z M 434 371 L 436 369 L 444 370 L 447 373 L 446 377 L 443 380 L 440 381 L 438 379 Z M 383 370 L 385 368 L 387 368 L 394 372 L 400 377 L 405 378 L 407 380 L 406 382 L 407 384 L 405 386 L 402 385 L 395 378 L 389 374 L 385 373 Z M 486 367 L 488 366 L 490 369 L 488 370 Z M 410 363 L 413 367 L 416 368 L 418 370 L 418 372 L 416 374 L 411 376 L 408 374 L 407 371 L 408 365 Z M 533 355 L 536 354 L 540 356 L 541 358 L 540 359 L 535 358 Z M 420 349 L 422 347 L 424 350 L 421 351 Z M 434 327 L 437 330 L 435 333 L 432 329 Z M 423 326 L 424 325 L 427 325 L 429 326 L 430 328 L 429 329 L 428 328 L 425 328 Z M 429 311 L 435 319 L 435 322 L 433 323 L 427 315 L 427 312 Z M 372 310 L 375 314 L 374 317 L 372 317 L 370 315 L 370 312 Z M 376 310 L 378 308 L 386 315 L 388 314 L 388 311 L 390 310 L 391 311 L 391 317 L 389 319 L 382 318 L 376 312 Z M 322 307 L 319 310 L 316 311 L 313 310 L 313 309 L 318 305 L 320 305 Z M 429 299 L 431 297 L 433 297 L 437 303 L 434 305 Z M 381 292 L 383 292 L 385 294 L 386 299 L 388 302 L 388 305 L 387 306 L 379 297 L 379 294 Z M 310 291 L 311 294 L 308 298 L 304 301 L 303 298 L 305 294 L 308 291 Z M 418 287 L 420 289 L 419 297 L 420 298 L 420 301 L 422 303 L 423 309 L 420 311 L 414 318 L 413 318 L 411 316 L 411 314 L 418 310 L 418 302 L 414 297 L 414 295 L 417 292 L 417 288 Z M 257 272 L 258 275 L 254 278 L 254 279 L 257 281 L 257 283 L 254 286 L 249 288 L 248 286 L 250 283 L 250 277 L 254 273 Z M 257 264 L 260 261 L 265 261 L 267 263 L 265 266 L 259 266 Z M 418 260 L 416 263 L 412 265 L 409 263 L 414 259 L 417 259 Z M 261 253 L 263 251 L 267 251 L 269 254 L 267 256 L 264 256 Z M 397 244 L 397 247 L 393 253 L 379 266 L 371 272 L 368 273 L 364 277 L 359 277 L 355 279 L 347 279 L 341 275 L 334 272 L 326 266 L 316 255 L 316 252 L 320 249 L 328 250 L 329 251 L 335 251 L 336 252 L 351 252 L 352 251 L 362 250 L 367 248 L 371 248 L 372 247 L 379 246 L 389 242 L 395 242 Z M 130 147 L 140 158 L 140 161 L 141 162 L 141 172 L 139 177 L 126 190 L 120 193 L 116 197 L 109 201 L 103 202 L 102 203 L 95 203 L 89 200 L 82 191 L 82 188 L 81 187 L 81 179 L 83 175 L 84 168 L 86 166 L 90 158 L 101 147 L 110 143 L 114 143 L 116 142 L 117 143 L 124 144 Z M 383 127 L 388 121 L 394 118 L 397 118 L 398 117 L 416 117 L 417 118 L 421 118 L 427 121 L 433 127 L 435 132 L 435 135 L 433 139 L 428 144 L 421 147 L 406 147 L 405 146 L 402 146 L 396 144 L 390 141 L 384 135 L 383 133 Z M 305 111 L 309 107 L 312 106 L 314 104 L 321 104 L 322 103 L 332 104 L 338 107 L 341 110 L 341 112 L 338 115 L 332 113 L 329 113 L 328 112 L 317 112 L 316 113 L 307 114 Z M 285 98 L 292 98 L 295 101 L 297 105 L 297 114 L 295 119 L 293 121 L 303 120 L 304 119 L 315 119 L 316 120 L 319 120 L 325 122 L 330 125 L 333 128 L 335 132 L 335 137 L 333 141 L 325 150 L 318 154 L 309 157 L 300 157 L 291 153 L 285 148 L 281 142 L 280 143 L 280 150 L 279 151 L 280 153 L 280 158 L 286 165 L 290 167 L 297 167 L 304 162 L 307 161 L 312 161 L 313 162 L 317 162 L 322 164 L 328 164 L 329 165 L 338 165 L 356 159 L 364 153 L 365 150 L 370 144 L 374 144 L 379 150 L 380 158 L 381 159 L 381 184 L 380 185 L 380 190 L 378 194 L 377 201 L 369 217 L 363 223 L 352 231 L 349 231 L 345 233 L 334 233 L 325 229 L 319 225 L 307 213 L 296 197 L 291 185 L 290 178 L 288 176 L 286 176 L 279 172 L 271 163 L 271 161 L 269 158 L 269 148 L 268 148 L 259 158 L 254 160 L 247 159 L 242 155 L 240 151 L 240 147 L 243 141 L 249 135 L 253 133 L 255 133 L 258 131 L 265 131 L 268 132 L 272 137 L 275 137 L 276 136 L 280 137 L 280 132 L 284 126 L 282 126 L 278 122 L 277 120 L 277 112 L 278 111 L 279 105 Z M 371 90 L 376 90 L 382 95 L 385 101 L 385 113 L 383 118 L 378 123 L 371 123 L 369 122 L 364 117 L 362 111 L 362 102 L 365 95 Z M 302 63 L 302 67 L 299 70 L 297 70 L 291 73 L 285 78 L 281 78 L 278 75 L 278 71 L 279 69 L 287 61 L 291 59 L 298 59 Z M 258 57 L 263 59 L 270 66 L 270 67 L 265 73 L 257 86 L 252 91 L 250 91 L 245 88 L 241 84 L 239 80 L 238 73 L 240 67 L 247 59 L 249 59 L 252 57 Z M 362 53 L 363 51 L 367 48 L 376 48 L 383 51 L 388 56 L 389 58 L 389 63 L 386 66 L 382 66 L 374 61 L 371 61 L 365 59 L 362 56 Z M 433 31 L 436 30 L 444 30 L 447 31 L 457 40 L 457 42 L 459 45 L 459 53 L 458 56 L 449 65 L 446 65 L 443 63 L 433 53 L 428 51 L 423 46 L 423 43 L 427 36 Z" fill="#FBFBFB" fill-rule="evenodd"/><path d="M 219 651 L 216 660 L 216 669 L 217 670 L 224 671 L 225 672 L 229 672 L 230 671 L 230 662 L 233 655 L 237 651 L 241 651 L 243 653 L 243 656 L 241 661 L 241 665 L 241 661 L 243 657 L 243 653 L 241 651 L 237 651 L 233 654 L 232 658 L 230 661 L 230 670 L 228 672 L 218 670 L 216 668 L 216 663 L 217 662 L 217 657 Z M 390 599 L 390 610 L 391 611 L 392 610 L 395 611 L 395 615 L 394 616 L 394 629 L 395 631 L 398 629 L 401 631 L 401 640 L 401 630 L 399 628 L 396 630 L 394 628 L 394 616 L 395 615 L 395 611 L 394 609 L 391 609 L 390 608 Z M 443 584 L 443 589 L 447 595 L 453 601 L 455 600 L 451 591 L 445 584 Z M 258 582 L 255 584 L 257 587 L 259 584 Z M 435 580 L 434 580 L 431 589 L 431 592 L 432 593 L 434 591 L 435 588 Z M 267 576 L 266 577 L 266 581 L 269 587 L 272 590 L 273 589 L 273 586 L 269 578 Z M 281 572 L 280 572 L 279 575 L 279 583 L 281 582 Z M 249 568 L 247 568 L 241 574 L 241 575 L 243 576 L 248 571 Z M 409 563 L 408 563 L 404 568 L 403 571 L 404 574 L 405 574 L 408 570 Z M 407 488 L 407 490 L 410 494 L 410 499 L 409 500 L 409 506 L 410 506 L 412 504 L 412 497 L 411 496 L 411 492 L 410 490 Z M 269 488 L 268 489 L 268 492 L 269 493 L 269 499 L 271 505 L 275 512 L 278 512 L 278 506 Z M 271 495 L 273 496 L 277 505 L 276 508 L 275 508 L 271 503 L 270 500 L 270 496 Z M 578 478 L 576 484 L 570 491 L 567 490 L 567 482 L 566 480 L 564 479 L 560 483 L 557 493 L 555 497 L 552 500 L 547 503 L 541 503 L 540 500 L 542 494 L 542 496 L 539 502 L 542 504 L 543 503 L 548 503 L 553 500 L 556 496 L 557 492 L 559 489 L 559 486 L 563 480 L 565 480 L 567 482 L 567 491 L 566 492 L 567 495 L 573 489 L 577 482 Z M 510 468 L 507 476 L 508 472 L 512 466 L 514 466 L 517 469 L 517 478 L 514 487 L 510 492 L 511 496 L 514 499 L 518 501 L 526 501 L 532 495 L 537 484 L 539 482 L 541 482 L 543 484 L 543 492 L 543 483 L 541 481 L 539 481 L 532 494 L 527 500 L 525 501 L 518 501 L 514 499 L 510 493 L 514 487 L 517 478 L 517 469 L 514 466 L 512 466 Z M 271 464 L 268 471 L 268 474 L 270 473 L 272 467 Z M 435 454 L 434 455 L 434 458 L 436 462 L 436 476 L 433 477 L 428 471 L 426 470 L 425 471 L 430 480 L 429 488 L 437 491 L 438 490 L 438 486 L 440 483 L 440 481 L 441 480 L 446 481 L 446 475 L 440 460 Z M 436 458 L 439 460 L 441 464 L 442 470 L 443 471 L 441 473 L 437 470 L 437 465 L 435 459 Z M 257 441 L 254 444 L 249 455 L 249 464 L 250 465 L 252 464 L 254 456 L 256 453 L 256 450 L 258 446 L 258 442 Z M 254 449 L 255 451 L 254 454 L 252 455 L 251 453 L 252 450 Z M 412 422 L 414 427 L 419 432 L 422 432 L 422 428 L 423 427 L 430 427 L 430 425 L 428 424 L 421 424 L 418 425 L 414 422 Z M 257 418 L 253 418 L 247 423 L 243 431 L 243 433 L 248 433 L 249 432 L 251 426 Z M 427 402 L 428 406 L 432 411 L 434 421 L 436 424 L 438 424 L 436 418 L 438 416 L 446 417 L 447 415 L 441 409 Z M 573 397 L 574 403 L 577 407 L 574 400 L 576 398 L 579 400 L 580 399 L 579 397 L 578 398 Z M 421 393 L 422 395 L 427 395 L 428 396 L 429 395 L 427 392 L 422 392 Z M 434 385 L 433 388 L 435 390 L 440 392 L 441 391 L 437 385 Z M 436 370 L 435 372 L 440 380 L 443 379 L 445 377 L 446 373 L 444 371 L 441 370 Z M 384 370 L 385 372 L 387 372 L 395 377 L 402 384 L 404 385 L 406 384 L 405 382 L 406 380 L 405 379 L 400 378 L 394 373 L 387 369 Z M 410 364 L 408 368 L 408 371 L 409 374 L 411 375 L 416 373 L 417 370 L 413 368 Z M 553 345 L 552 347 L 564 361 L 566 365 L 572 372 L 571 374 L 565 372 L 564 375 L 570 382 L 571 385 L 576 391 L 578 395 L 565 375 L 567 373 L 569 373 L 572 375 L 573 373 L 569 369 L 562 358 L 553 348 L 554 345 L 557 346 L 556 345 Z M 449 323 L 448 325 L 450 329 L 450 332 L 449 333 L 445 332 L 444 334 L 448 339 L 452 348 L 449 350 L 447 348 L 435 343 L 431 343 L 431 346 L 433 348 L 444 349 L 450 352 L 452 352 L 456 357 L 456 360 L 457 361 L 457 364 L 456 365 L 453 365 L 445 359 L 444 360 L 452 370 L 461 378 L 460 380 L 458 380 L 456 378 L 455 380 L 459 385 L 460 390 L 462 392 L 466 401 L 464 403 L 458 399 L 455 398 L 449 398 L 448 397 L 446 397 L 445 400 L 447 402 L 456 403 L 459 405 L 461 405 L 467 411 L 468 413 L 468 417 L 466 420 L 463 420 L 457 415 L 456 415 L 458 420 L 461 423 L 462 428 L 470 439 L 470 443 L 469 444 L 465 443 L 463 446 L 467 453 L 467 459 L 466 462 L 464 464 L 465 475 L 460 490 L 459 491 L 457 490 L 457 486 L 456 485 L 452 490 L 452 493 L 450 498 L 445 506 L 442 509 L 440 508 L 440 495 L 439 493 L 436 499 L 435 504 L 432 509 L 432 511 L 428 517 L 420 525 L 418 525 L 417 522 L 419 520 L 419 518 L 421 515 L 422 508 L 420 506 L 418 506 L 410 522 L 398 536 L 395 535 L 398 528 L 398 514 L 395 513 L 392 524 L 387 535 L 385 534 L 388 525 L 388 521 L 387 520 L 382 525 L 376 535 L 369 542 L 365 544 L 362 544 L 361 543 L 361 541 L 365 534 L 365 531 L 362 530 L 358 534 L 354 536 L 344 544 L 342 542 L 342 538 L 346 530 L 347 525 L 345 525 L 330 538 L 328 538 L 326 536 L 326 534 L 323 533 L 318 539 L 316 539 L 302 526 L 293 513 L 290 505 L 289 506 L 289 512 L 292 521 L 303 539 L 301 540 L 295 534 L 292 537 L 282 526 L 281 526 L 278 530 L 270 521 L 267 520 L 265 522 L 262 519 L 255 508 L 254 508 L 251 512 L 247 506 L 244 497 L 243 496 L 239 497 L 237 494 L 236 490 L 234 488 L 232 491 L 230 490 L 227 481 L 227 473 L 225 471 L 223 473 L 221 472 L 221 458 L 220 475 L 222 475 L 224 473 L 227 475 L 228 486 L 235 502 L 235 504 L 233 506 L 230 506 L 229 505 L 227 506 L 227 508 L 221 519 L 221 521 L 225 521 L 227 524 L 220 538 L 220 540 L 221 541 L 225 539 L 227 541 L 227 544 L 223 553 L 223 556 L 220 564 L 220 568 L 221 569 L 225 567 L 227 569 L 225 582 L 228 585 L 228 595 L 229 596 L 229 599 L 229 596 L 228 595 L 228 583 L 225 580 L 226 578 L 227 568 L 226 567 L 223 567 L 222 568 L 220 567 L 223 553 L 227 544 L 227 540 L 221 538 L 221 536 L 223 534 L 224 529 L 227 524 L 227 521 L 226 520 L 223 521 L 221 519 L 223 517 L 226 510 L 229 507 L 239 518 L 242 519 L 252 529 L 252 531 L 258 538 L 260 538 L 265 543 L 277 562 L 286 571 L 288 575 L 291 576 L 297 583 L 293 587 L 293 589 L 296 592 L 294 595 L 287 587 L 286 588 L 286 594 L 296 606 L 297 612 L 298 613 L 298 615 L 294 618 L 294 621 L 298 629 L 294 631 L 294 633 L 292 636 L 289 634 L 288 635 L 288 640 L 289 642 L 295 648 L 296 653 L 294 658 L 290 662 L 286 663 L 282 667 L 276 669 L 273 673 L 264 673 L 263 674 L 244 674 L 241 672 L 243 674 L 269 674 L 270 673 L 278 673 L 279 672 L 287 672 L 288 671 L 293 671 L 294 670 L 300 670 L 301 669 L 306 669 L 307 668 L 314 667 L 317 665 L 319 665 L 323 661 L 325 656 L 325 639 L 323 633 L 323 628 L 325 626 L 328 628 L 330 628 L 330 605 L 329 604 L 329 596 L 331 594 L 335 597 L 336 596 L 335 593 L 335 586 L 337 582 L 338 574 L 330 571 L 327 571 L 324 569 L 319 568 L 313 565 L 308 560 L 308 558 L 311 555 L 315 555 L 329 560 L 339 561 L 344 563 L 352 563 L 353 564 L 374 563 L 379 561 L 384 562 L 386 564 L 386 568 L 383 571 L 380 572 L 379 574 L 382 579 L 384 585 L 385 594 L 390 593 L 391 596 L 390 592 L 389 591 L 387 592 L 386 591 L 388 587 L 388 582 L 392 573 L 399 564 L 403 556 L 407 553 L 416 543 L 420 545 L 428 535 L 430 535 L 432 537 L 441 526 L 445 529 L 453 520 L 457 520 L 468 511 L 473 515 L 475 518 L 477 525 L 486 535 L 485 538 L 483 538 L 480 536 L 477 537 L 477 538 L 484 544 L 485 546 L 483 548 L 480 548 L 479 547 L 472 547 L 472 548 L 484 555 L 489 565 L 489 568 L 487 569 L 476 562 L 474 563 L 476 567 L 488 580 L 488 583 L 486 585 L 481 584 L 468 578 L 465 579 L 473 587 L 482 593 L 484 593 L 493 600 L 494 603 L 491 606 L 489 606 L 485 601 L 484 602 L 489 613 L 493 618 L 493 621 L 490 623 L 489 622 L 488 616 L 486 614 L 484 615 L 484 618 L 482 622 L 483 631 L 485 633 L 484 634 L 481 634 L 480 633 L 470 633 L 469 632 L 466 633 L 458 633 L 457 634 L 440 636 L 431 640 L 432 641 L 435 639 L 445 639 L 446 640 L 450 640 L 448 640 L 446 638 L 449 635 L 457 634 L 458 633 L 477 633 L 478 634 L 481 634 L 485 637 L 483 639 L 478 639 L 485 639 L 487 637 L 491 637 L 492 638 L 496 638 L 506 643 L 514 651 L 515 654 L 514 651 L 510 646 L 506 643 L 499 640 L 496 637 L 496 635 L 499 632 L 500 629 L 500 625 L 502 619 L 502 607 L 503 606 L 503 590 L 502 589 L 501 582 L 504 578 L 499 568 L 502 566 L 507 569 L 507 566 L 505 563 L 504 558 L 498 546 L 496 544 L 496 541 L 498 539 L 505 543 L 506 542 L 498 522 L 498 520 L 500 518 L 503 520 L 504 518 L 502 513 L 502 508 L 499 501 L 499 497 L 491 494 L 484 488 L 479 479 L 477 473 L 477 456 L 482 442 L 482 434 L 480 429 L 479 419 L 476 410 L 476 406 L 475 405 L 473 394 L 470 385 L 468 382 L 467 377 L 453 349 L 452 344 L 454 342 L 457 342 L 463 348 L 472 364 L 474 366 L 476 372 L 479 377 L 480 382 L 482 385 L 487 403 L 487 400 L 478 373 L 476 370 L 476 368 L 472 360 L 470 358 L 470 356 L 468 354 L 467 350 L 461 342 L 459 336 L 452 328 L 451 325 Z M 479 567 L 480 566 L 485 570 L 483 571 L 481 570 Z M 363 532 L 364 534 L 363 536 L 360 538 L 359 537 L 360 534 Z M 269 522 L 274 526 L 283 538 L 282 541 L 281 541 L 271 531 L 268 525 Z M 396 518 L 397 519 L 397 527 L 395 528 L 393 526 L 393 524 L 394 523 L 394 520 Z M 258 516 L 263 520 L 268 527 L 267 530 L 266 530 L 258 521 L 257 518 Z M 292 514 L 294 515 L 299 524 L 307 533 L 305 535 L 299 530 L 293 521 L 291 516 Z M 420 508 L 421 509 L 421 513 L 417 521 L 417 523 L 414 527 L 412 525 L 412 522 L 415 518 L 415 515 L 417 512 L 417 510 Z M 437 505 L 438 506 L 437 509 L 435 511 L 434 508 L 435 506 Z M 243 499 L 245 500 L 248 509 L 250 512 L 250 515 L 248 517 L 246 515 L 242 505 L 242 500 Z M 453 491 L 455 490 L 456 493 L 454 494 Z M 463 424 L 466 423 L 471 429 L 469 431 L 463 426 Z M 533 318 L 562 345 L 562 346 L 560 347 L 564 347 L 562 344 L 561 344 L 535 319 L 536 317 L 541 317 L 534 317 Z M 428 312 L 429 317 L 431 320 L 434 322 L 433 317 L 431 314 Z M 372 311 L 371 312 L 371 315 L 374 316 L 374 314 Z M 377 310 L 377 312 L 382 317 L 386 317 L 387 318 L 390 317 L 390 311 L 389 311 L 389 314 L 386 316 L 378 309 Z M 321 307 L 318 306 L 315 308 L 314 310 L 319 309 Z M 431 298 L 430 300 L 435 304 L 436 303 L 434 299 Z M 381 293 L 380 294 L 380 297 L 387 305 L 387 302 L 385 299 L 384 294 Z M 310 292 L 308 292 L 306 294 L 304 300 L 307 298 L 310 294 Z M 523 290 L 524 290 L 525 292 L 522 294 L 520 294 L 519 297 L 521 299 L 526 301 L 542 313 L 545 316 L 543 318 L 545 318 L 546 317 L 541 312 L 526 301 L 523 300 L 520 297 L 521 294 L 523 293 L 527 293 L 526 291 Z M 418 288 L 418 292 L 415 295 L 415 297 L 419 302 L 419 310 L 417 312 L 412 314 L 413 317 L 414 317 L 418 312 L 422 309 L 422 306 L 421 303 L 419 301 L 419 298 L 418 297 L 418 293 L 419 292 L 419 289 Z M 257 273 L 254 274 L 251 277 L 251 283 L 249 287 L 254 285 L 256 283 L 256 281 L 254 280 L 253 278 L 257 275 Z M 258 264 L 259 265 L 265 265 L 266 263 L 265 262 L 260 262 Z M 417 260 L 414 260 L 410 263 L 412 264 L 416 262 Z M 262 253 L 264 255 L 267 255 L 268 254 L 267 252 L 263 252 Z M 396 244 L 395 243 L 389 243 L 379 247 L 376 247 L 371 249 L 367 249 L 362 251 L 352 252 L 351 253 L 336 253 L 335 252 L 329 252 L 328 251 L 320 250 L 317 252 L 317 255 L 326 265 L 334 271 L 341 274 L 347 278 L 355 278 L 359 276 L 364 276 L 368 272 L 371 271 L 379 265 L 392 253 L 396 247 Z M 377 263 L 373 268 L 366 272 L 363 275 L 361 275 L 359 273 L 375 262 Z M 332 255 L 333 254 L 336 254 L 338 255 L 339 257 L 338 258 L 333 257 Z M 318 254 L 320 252 L 324 252 L 325 254 L 323 255 L 324 258 L 336 267 L 343 271 L 347 271 L 349 273 L 358 273 L 359 274 L 355 277 L 348 277 L 345 276 L 343 274 L 337 272 L 327 265 L 319 257 Z M 235 181 L 235 191 L 237 192 L 240 189 L 243 191 L 243 204 L 243 189 L 240 188 L 237 191 L 235 189 Z M 169 153 L 169 156 L 180 168 L 188 179 L 195 179 L 197 180 L 203 186 L 210 197 L 216 195 L 219 195 L 228 201 L 228 199 L 224 194 L 223 186 L 223 191 L 224 192 L 224 195 L 223 196 L 215 195 L 211 197 L 208 194 L 203 186 L 197 180 L 195 179 L 189 179 L 183 173 L 176 163 L 170 157 Z M 374 145 L 370 145 L 365 152 L 370 145 L 373 145 L 377 149 L 379 154 L 379 160 L 380 161 L 380 182 L 379 183 L 379 188 L 378 189 L 376 200 L 369 215 L 362 222 L 358 224 L 352 229 L 346 231 L 337 232 L 322 226 L 306 210 L 297 197 L 296 194 L 297 197 L 308 213 L 319 224 L 325 228 L 334 232 L 345 232 L 349 230 L 352 230 L 363 222 L 370 214 L 375 204 L 377 194 L 379 190 L 379 185 L 380 184 L 380 159 L 379 158 L 378 150 Z M 130 148 L 121 144 L 117 144 L 116 143 L 114 144 L 110 144 L 101 148 L 91 158 L 90 161 L 85 168 L 84 175 L 82 179 L 82 187 L 83 188 L 83 191 L 89 199 L 95 202 L 102 202 L 103 201 L 109 200 L 116 196 L 120 192 L 126 189 L 138 177 L 140 172 L 140 162 L 139 161 L 139 158 Z M 129 148 L 137 156 L 140 164 L 140 171 L 138 176 L 125 189 L 108 200 L 105 200 L 100 202 L 99 201 L 94 201 L 91 199 L 85 193 L 82 185 L 84 172 L 91 159 L 98 151 L 102 148 L 111 144 L 120 144 Z M 158 142 L 158 150 L 155 159 L 166 170 L 173 180 L 183 191 L 189 196 L 192 196 L 193 194 L 195 193 L 201 200 L 207 211 L 211 215 L 214 216 L 215 215 L 215 210 L 218 208 L 223 214 L 225 219 L 231 226 L 234 225 L 234 220 L 236 218 L 242 225 L 246 232 L 250 236 L 253 235 L 253 232 L 255 230 L 264 239 L 267 245 L 271 249 L 275 249 L 277 246 L 277 244 L 279 242 L 286 245 L 291 250 L 293 248 L 292 243 L 287 238 L 274 232 L 261 220 L 258 219 L 255 216 L 254 211 L 252 208 L 247 212 L 245 210 L 244 206 L 245 210 L 248 213 L 251 209 L 254 212 L 256 218 L 259 220 L 261 220 L 274 235 L 277 241 L 277 246 L 274 249 L 271 249 L 260 234 L 254 229 L 253 230 L 253 234 L 250 236 L 244 229 L 241 223 L 235 217 L 234 218 L 234 224 L 231 226 L 228 223 L 222 212 L 218 207 L 215 208 L 215 214 L 214 215 L 210 214 L 203 205 L 201 200 L 195 192 L 193 192 L 193 194 L 191 196 L 189 196 L 175 182 L 166 170 L 156 160 L 156 155 L 158 151 Z M 288 244 L 290 243 L 292 246 L 290 247 Z M 478 126 L 477 129 L 488 141 L 492 147 L 490 149 L 487 148 L 482 148 L 481 149 L 482 153 L 487 161 L 489 169 L 487 171 L 485 169 L 482 169 L 480 175 L 478 173 L 476 166 L 472 161 L 465 157 L 461 157 L 460 158 L 468 167 L 468 171 L 467 172 L 464 171 L 461 172 L 467 177 L 467 180 L 464 183 L 460 181 L 456 181 L 456 183 L 460 188 L 461 192 L 458 194 L 453 191 L 447 190 L 447 192 L 453 197 L 455 201 L 453 203 L 451 202 L 449 203 L 449 205 L 446 208 L 446 212 L 444 214 L 438 211 L 439 219 L 436 223 L 431 220 L 429 224 L 429 231 L 427 233 L 424 232 L 424 227 L 423 226 L 419 230 L 418 233 L 416 235 L 413 235 L 405 242 L 403 246 L 402 252 L 403 253 L 413 242 L 416 244 L 417 247 L 422 247 L 425 244 L 427 245 L 438 245 L 440 246 L 441 243 L 443 241 L 447 241 L 449 243 L 443 246 L 445 249 L 447 249 L 450 246 L 450 243 L 451 242 L 465 241 L 469 243 L 472 243 L 474 245 L 479 246 L 482 248 L 484 248 L 488 251 L 493 252 L 494 254 L 493 255 L 488 255 L 487 258 L 489 260 L 495 262 L 497 264 L 502 266 L 508 271 L 512 273 L 515 276 L 514 278 L 512 278 L 516 278 L 516 276 L 511 272 L 508 271 L 505 268 L 497 264 L 495 262 L 491 261 L 488 258 L 490 255 L 496 255 L 495 253 L 471 243 L 469 240 L 471 238 L 473 238 L 473 237 L 466 235 L 465 233 L 467 230 L 464 230 L 460 227 L 460 225 L 469 215 L 473 207 L 475 201 L 475 192 L 477 190 L 481 193 L 482 192 L 483 181 L 482 180 L 481 171 L 484 169 L 488 172 L 490 172 L 489 166 L 484 155 L 482 153 L 482 150 L 484 148 L 492 149 L 492 147 L 486 138 L 477 129 Z M 438 237 L 440 240 L 436 244 L 434 244 L 432 241 L 436 237 Z M 453 222 L 454 225 L 451 228 L 450 231 L 445 235 L 443 233 L 444 230 L 452 222 Z M 384 127 L 384 133 L 390 140 L 396 143 L 402 145 L 405 145 L 406 146 L 421 146 L 428 143 L 432 139 L 434 135 L 434 132 L 432 127 L 427 122 L 421 119 L 417 119 L 416 118 L 398 118 L 397 119 L 394 119 L 388 122 Z M 384 128 L 389 122 L 396 119 L 399 119 L 400 118 L 416 118 L 425 121 L 428 123 L 433 129 L 434 134 L 433 137 L 428 142 L 421 145 L 404 145 L 395 142 L 390 139 L 385 134 L 384 132 Z M 309 156 L 300 156 L 291 152 L 283 144 L 281 140 L 281 132 L 282 130 L 289 124 L 296 122 L 293 122 L 292 121 L 294 119 L 295 116 L 293 120 L 290 123 L 286 125 L 281 132 L 281 137 L 280 138 L 278 137 L 272 138 L 268 133 L 265 132 L 258 132 L 249 136 L 244 141 L 241 147 L 241 151 L 243 155 L 245 157 L 251 159 L 254 159 L 259 157 L 264 151 L 269 147 L 270 148 L 270 158 L 271 160 L 270 158 L 270 145 L 272 140 L 274 138 L 277 137 L 279 139 L 280 142 L 281 141 L 286 148 L 291 152 L 300 156 Z M 266 133 L 270 137 L 270 141 L 268 143 L 266 142 L 267 139 L 265 137 L 257 137 L 254 138 L 248 144 L 249 150 L 251 151 L 251 154 L 254 154 L 259 151 L 261 152 L 255 158 L 249 158 L 246 157 L 242 152 L 242 146 L 248 138 L 259 133 Z M 242 114 L 238 123 L 239 134 L 227 147 L 228 149 L 235 148 L 237 150 L 237 152 L 231 163 L 231 166 L 230 167 L 231 170 L 235 168 L 237 170 L 237 174 L 237 169 L 236 168 L 232 169 L 230 167 L 231 166 L 231 163 L 237 152 L 237 149 L 236 148 L 232 148 L 230 149 L 228 146 L 239 134 L 238 123 Z M 153 108 L 159 110 L 164 115 L 168 124 L 169 130 L 170 131 L 170 136 L 171 137 L 170 151 L 171 137 L 170 136 L 170 129 L 168 123 L 163 113 L 160 110 Z M 76 114 L 72 117 L 71 119 L 71 124 L 73 124 L 77 119 L 80 119 L 83 122 L 86 123 L 96 132 L 99 137 L 99 139 L 94 145 L 90 147 L 84 147 L 81 150 L 78 149 L 72 144 L 62 140 L 59 140 L 54 144 L 53 146 L 53 150 L 55 152 L 56 152 L 56 149 L 59 145 L 64 145 L 79 155 L 82 159 L 82 162 L 77 167 L 74 168 L 67 168 L 65 166 L 61 171 L 56 172 L 52 175 L 51 177 L 51 181 L 57 189 L 70 200 L 86 210 L 92 212 L 96 216 L 99 222 L 99 224 L 103 231 L 103 233 L 117 254 L 133 270 L 147 279 L 150 280 L 154 284 L 154 287 L 153 288 L 147 290 L 149 292 L 159 297 L 176 301 L 180 305 L 178 308 L 175 308 L 172 310 L 174 312 L 180 314 L 199 317 L 201 319 L 201 321 L 198 324 L 199 326 L 216 328 L 220 331 L 218 334 L 218 336 L 226 337 L 227 338 L 229 337 L 231 330 L 235 322 L 237 320 L 241 319 L 244 322 L 244 327 L 237 347 L 237 352 L 227 367 L 228 368 L 233 368 L 235 371 L 219 391 L 220 393 L 226 391 L 229 393 L 227 398 L 219 410 L 214 421 L 215 424 L 220 421 L 222 422 L 220 421 L 216 423 L 214 421 L 219 410 L 229 394 L 228 391 L 222 392 L 220 390 L 235 371 L 234 368 L 229 368 L 228 366 L 235 355 L 249 345 L 262 328 L 262 324 L 259 324 L 255 326 L 244 336 L 241 335 L 244 327 L 244 321 L 253 303 L 254 296 L 251 295 L 246 298 L 243 301 L 242 304 L 240 306 L 240 308 L 235 313 L 230 313 L 229 312 L 220 312 L 217 311 L 215 309 L 216 307 L 222 305 L 225 302 L 224 300 L 221 299 L 211 299 L 206 297 L 202 294 L 194 294 L 193 295 L 184 294 L 182 292 L 185 289 L 187 289 L 190 287 L 190 285 L 188 283 L 162 277 L 143 266 L 131 256 L 113 237 L 109 235 L 102 228 L 95 214 L 93 212 L 81 206 L 72 198 L 70 198 L 64 193 L 66 191 L 75 192 L 77 190 L 79 185 L 79 179 L 76 175 L 73 173 L 68 173 L 67 172 L 62 173 L 61 171 L 64 169 L 77 168 L 82 164 L 83 157 L 79 152 L 85 148 L 89 148 L 94 146 L 99 141 L 99 135 L 98 133 L 100 131 L 104 136 L 108 136 L 110 135 L 113 137 L 121 138 L 123 137 L 125 134 L 125 126 L 127 125 L 131 131 L 134 130 L 136 131 L 134 136 L 134 141 L 136 146 L 141 150 L 148 149 L 151 146 L 154 140 L 154 136 L 155 135 L 154 130 L 155 129 L 158 131 L 158 139 L 158 130 L 157 127 L 150 118 L 143 118 L 139 122 L 137 126 L 133 130 L 131 130 L 128 127 L 127 121 L 121 111 L 114 105 L 108 105 L 105 108 L 104 113 L 110 109 L 112 110 L 123 122 L 125 128 L 125 133 L 122 137 L 115 137 L 110 134 L 104 135 L 100 131 L 97 126 L 84 115 L 82 114 Z M 260 324 L 262 326 L 251 342 L 247 345 L 246 343 L 249 339 L 249 333 Z M 213 301 L 214 300 L 221 300 L 223 302 L 220 305 L 216 306 L 214 304 Z M 252 296 L 254 299 L 247 315 L 244 318 L 242 315 L 246 309 L 247 304 L 246 304 L 243 308 L 242 308 L 241 306 L 243 302 L 248 297 Z M 183 285 L 186 283 L 188 285 L 188 287 L 185 288 Z M 60 174 L 63 173 L 70 173 L 73 174 L 78 179 L 78 187 L 74 191 L 67 190 L 62 187 L 58 183 L 57 178 Z M 56 173 L 57 174 L 57 177 L 53 180 L 52 179 L 52 176 Z M 61 142 L 62 141 L 66 141 L 73 145 L 77 150 L 75 151 L 68 146 L 62 144 Z M 147 122 L 152 127 L 154 131 L 154 137 L 151 145 L 147 149 L 143 150 L 139 148 L 136 145 L 134 140 L 135 139 L 136 132 L 140 126 L 143 123 Z M 139 124 L 139 122 L 143 118 L 148 118 L 153 123 L 151 124 L 147 121 L 145 121 L 140 125 Z M 77 115 L 78 114 L 82 114 L 88 120 L 87 122 L 84 121 Z M 109 106 L 110 105 L 115 106 L 124 116 L 125 119 L 123 120 L 120 117 L 119 114 L 112 108 L 110 108 Z M 306 111 L 307 113 L 311 113 L 317 111 L 328 111 L 337 114 L 340 112 L 340 110 L 338 108 L 328 104 L 314 105 Z M 313 109 L 315 107 L 332 107 L 336 110 L 335 111 L 331 111 L 330 110 L 314 110 Z M 100 95 L 90 103 L 74 103 L 83 103 L 89 105 Z M 113 94 L 118 95 L 122 98 L 127 104 L 134 110 L 143 107 L 151 107 L 143 107 L 138 109 L 134 109 L 121 96 L 119 96 L 116 94 Z M 469 60 L 461 69 L 458 70 L 456 72 L 456 75 L 462 81 L 466 87 L 469 94 L 471 96 L 473 101 L 476 104 L 476 106 L 473 111 L 477 115 L 484 119 L 489 124 L 487 126 L 483 126 L 489 126 L 489 123 L 487 121 L 477 115 L 473 111 L 473 110 L 475 108 L 477 108 L 478 106 L 472 99 L 463 82 L 457 75 L 457 72 L 461 69 Z M 258 58 L 252 58 L 249 60 L 247 60 L 241 67 L 239 73 L 240 80 L 242 84 L 250 90 L 252 90 L 256 86 L 264 73 L 269 67 L 269 66 L 263 60 Z M 260 73 L 261 76 L 259 78 L 258 77 L 258 74 Z M 253 60 L 254 62 L 250 65 L 250 67 L 247 69 L 245 69 L 244 71 L 245 80 L 250 86 L 248 88 L 242 82 L 240 78 L 240 74 L 243 66 L 248 61 Z M 433 32 L 429 35 L 424 43 L 424 46 L 428 50 L 433 52 L 443 62 L 446 64 L 449 64 L 457 56 L 458 53 L 458 45 L 456 42 L 456 40 L 447 32 L 444 31 L 436 31 Z M 436 32 L 444 32 L 448 34 L 455 40 L 457 44 L 457 47 L 458 48 L 457 53 L 453 59 L 448 63 L 445 62 L 436 53 L 428 49 L 425 46 L 426 40 L 432 34 Z M 359 23 L 357 22 L 353 24 L 346 32 L 342 32 L 336 28 L 334 28 L 331 26 L 327 26 L 326 28 L 329 32 L 329 35 L 327 37 L 324 38 L 311 38 L 308 39 L 304 44 L 299 45 L 292 49 L 299 45 L 306 43 L 307 41 L 311 38 L 326 38 L 329 36 L 329 32 L 326 28 L 328 26 L 331 26 L 342 32 L 346 32 L 357 22 L 359 24 L 358 27 Z" fill="#D8D8D8" fill-rule="evenodd"/><path d="M 447 638 L 448 639 L 451 639 L 452 638 L 459 638 L 460 637 L 474 637 L 475 638 L 483 638 L 484 637 L 481 635 L 478 635 L 477 634 L 458 634 L 457 635 L 449 636 Z M 461 635 L 462 634 L 472 634 L 473 636 L 472 637 L 462 637 Z M 269 523 L 269 525 L 272 531 L 281 540 L 282 540 L 281 536 L 273 526 Z M 396 519 L 394 524 L 395 527 L 396 527 Z M 258 517 L 259 521 L 261 524 L 267 529 L 267 527 L 262 520 Z M 292 515 L 294 521 L 300 530 L 305 534 L 306 533 L 298 524 L 297 521 L 293 515 Z M 420 509 L 418 510 L 418 512 L 416 515 L 416 518 L 413 522 L 413 525 L 414 526 L 419 516 Z M 243 500 L 243 505 L 245 511 L 248 516 L 249 515 L 249 512 L 247 509 L 244 500 Z M 271 496 L 272 503 L 273 505 L 276 507 L 275 502 L 272 496 Z M 436 459 L 438 465 L 438 470 L 441 472 L 442 471 L 441 470 L 440 464 L 438 460 Z M 260 325 L 250 333 L 250 339 L 247 344 L 250 342 L 261 326 Z M 214 301 L 216 305 L 220 304 L 222 302 L 221 301 Z M 252 297 L 248 298 L 244 302 L 242 307 L 243 307 L 246 303 L 248 304 L 247 309 L 243 315 L 244 317 L 246 315 L 248 309 L 251 304 L 251 302 L 253 299 Z M 376 263 L 373 264 L 367 269 L 360 273 L 363 274 L 366 271 L 373 267 Z M 319 254 L 320 257 L 327 264 L 337 271 L 343 273 L 345 275 L 348 276 L 355 276 L 358 274 L 349 274 L 347 272 L 343 272 L 330 264 L 323 258 L 322 255 L 324 254 L 324 253 L 320 253 Z M 439 239 L 436 238 L 433 242 L 436 243 Z M 453 223 L 452 223 L 445 230 L 444 232 L 445 234 L 449 231 L 450 228 L 453 225 Z M 60 175 L 58 178 L 59 183 L 62 186 L 67 189 L 70 189 L 71 190 L 74 190 L 77 187 L 77 179 L 73 175 L 70 174 L 63 174 Z M 129 149 L 120 145 L 111 145 L 102 149 L 98 152 L 92 159 L 87 167 L 84 176 L 84 180 L 83 181 L 84 189 L 86 193 L 91 198 L 94 200 L 99 200 L 100 201 L 105 199 L 108 199 L 125 188 L 137 176 L 139 171 L 139 164 L 136 156 Z M 273 140 L 271 145 L 271 158 L 273 163 L 279 170 L 286 174 L 290 175 L 292 177 L 292 182 L 298 197 L 307 210 L 322 225 L 337 231 L 346 230 L 347 229 L 350 229 L 355 226 L 358 223 L 362 221 L 368 215 L 375 200 L 375 197 L 378 188 L 378 183 L 379 182 L 379 161 L 378 160 L 378 154 L 376 149 L 373 146 L 370 146 L 368 150 L 362 157 L 346 165 L 343 165 L 338 167 L 330 167 L 329 166 L 317 165 L 312 163 L 306 163 L 297 169 L 291 169 L 286 167 L 280 161 L 278 157 L 278 144 L 279 141 L 277 138 Z M 272 143 L 276 139 L 278 141 L 278 149 L 277 152 L 278 153 L 278 158 L 280 162 L 289 169 L 293 169 L 294 170 L 299 169 L 308 163 L 310 164 L 314 164 L 315 165 L 325 166 L 326 167 L 340 167 L 341 166 L 344 166 L 360 159 L 368 151 L 370 147 L 373 147 L 376 151 L 377 157 L 378 158 L 378 170 L 379 173 L 378 174 L 378 183 L 377 184 L 377 188 L 375 193 L 375 197 L 368 213 L 364 217 L 362 216 L 369 200 L 369 196 L 370 195 L 369 191 L 361 184 L 354 183 L 353 182 L 345 183 L 338 186 L 332 190 L 323 200 L 320 207 L 320 211 L 323 217 L 331 225 L 329 227 L 327 227 L 322 224 L 307 209 L 298 196 L 293 185 L 292 176 L 281 171 L 273 162 L 271 157 L 271 147 L 272 146 Z M 269 137 L 266 134 L 259 134 L 248 139 L 243 146 L 243 152 L 246 156 L 249 157 L 255 157 L 260 152 L 254 155 L 251 155 L 250 154 L 250 151 L 248 150 L 247 144 L 254 137 L 257 136 L 265 136 L 268 139 L 267 142 L 269 141 Z M 147 123 L 145 123 L 141 126 L 137 132 L 136 139 L 135 140 L 137 145 L 143 149 L 147 148 L 150 145 L 153 137 L 153 131 L 151 127 Z M 282 132 L 282 140 L 284 144 L 291 151 L 300 155 L 310 155 L 316 152 L 318 152 L 326 147 L 331 141 L 333 137 L 333 132 L 330 127 L 323 123 L 320 123 L 316 121 L 302 121 L 301 122 L 297 122 L 291 125 L 289 125 L 286 127 Z M 282 133 L 287 127 L 295 123 L 302 122 L 303 121 L 314 121 L 315 122 L 322 123 L 329 127 L 331 129 L 333 135 L 331 140 L 322 149 L 311 154 L 302 155 L 301 154 L 295 153 L 286 146 L 282 139 Z M 385 128 L 385 132 L 390 138 L 395 141 L 404 144 L 421 144 L 428 141 L 432 137 L 433 134 L 432 129 L 428 124 L 425 122 L 416 119 L 400 119 L 399 120 L 396 120 L 389 123 Z M 314 109 L 330 109 L 331 110 L 335 110 L 332 108 L 315 108 Z M 290 99 L 285 100 L 283 102 L 279 111 L 279 120 L 280 122 L 284 125 L 290 122 L 295 115 L 295 105 L 294 102 Z M 291 100 L 295 105 L 295 113 L 293 118 L 288 123 L 283 124 L 280 121 L 279 118 L 280 109 L 282 104 L 286 100 Z M 371 92 L 367 95 L 364 102 L 364 112 L 366 117 L 369 120 L 371 121 L 377 121 L 381 118 L 383 113 L 383 101 L 379 94 L 376 92 Z M 372 92 L 375 92 L 380 96 L 383 104 L 382 115 L 381 117 L 376 121 L 372 121 L 370 120 L 366 116 L 364 111 L 364 103 L 368 95 Z M 300 63 L 298 61 L 291 61 L 287 63 L 281 69 L 280 75 L 284 77 L 291 71 L 298 68 L 300 66 Z M 300 64 L 297 68 L 293 69 L 286 75 L 283 76 L 281 74 L 281 70 L 290 62 L 292 61 L 297 61 Z M 253 61 L 248 62 L 244 66 L 241 74 L 241 78 L 243 82 L 248 87 L 249 86 L 244 80 L 243 71 L 245 68 L 249 67 L 249 65 L 253 62 Z M 364 53 L 364 56 L 367 58 L 370 58 L 376 60 L 382 64 L 386 64 L 387 63 L 387 57 L 384 54 L 377 50 L 369 49 Z M 364 54 L 368 50 L 375 50 L 382 53 L 387 58 L 387 62 L 385 64 L 383 64 L 375 59 L 369 57 L 366 57 Z M 436 33 L 432 35 L 427 40 L 426 46 L 428 48 L 436 52 L 445 61 L 448 62 L 452 59 L 456 53 L 457 50 L 456 44 L 454 40 L 448 35 L 444 33 Z M 451 14 L 448 14 L 444 12 L 432 12 L 431 13 L 425 14 L 417 19 L 413 23 L 408 31 L 408 35 L 407 36 L 403 36 L 400 34 L 397 34 L 392 32 L 388 32 L 387 31 L 382 31 L 381 30 L 366 30 L 365 31 L 360 31 L 359 30 L 359 27 L 361 21 L 358 20 L 352 23 L 345 31 L 343 31 L 333 25 L 326 24 L 325 25 L 325 29 L 328 33 L 326 36 L 308 37 L 304 42 L 292 47 L 281 55 L 273 46 L 264 41 L 261 41 L 260 40 L 254 40 L 253 41 L 246 42 L 238 46 L 229 55 L 225 63 L 225 68 L 224 69 L 224 80 L 228 89 L 232 94 L 239 99 L 245 101 L 245 105 L 237 122 L 237 130 L 238 132 L 226 146 L 226 150 L 227 151 L 233 150 L 235 152 L 229 165 L 229 171 L 232 172 L 234 170 L 236 172 L 234 182 L 233 183 L 233 190 L 235 193 L 240 192 L 242 194 L 241 199 L 242 200 L 242 205 L 244 211 L 248 215 L 251 213 L 254 216 L 255 219 L 257 221 L 261 222 L 272 235 L 275 240 L 275 246 L 273 248 L 269 245 L 265 238 L 260 232 L 255 228 L 252 228 L 252 232 L 249 233 L 242 222 L 235 215 L 233 216 L 233 221 L 231 223 L 227 219 L 222 209 L 217 205 L 214 206 L 214 212 L 212 213 L 204 204 L 200 196 L 195 190 L 193 190 L 192 192 L 189 194 L 175 180 L 157 158 L 157 156 L 159 153 L 159 149 L 160 148 L 160 132 L 159 131 L 159 128 L 155 121 L 152 118 L 148 116 L 145 116 L 141 118 L 137 124 L 133 128 L 131 128 L 129 126 L 129 123 L 127 120 L 127 118 L 121 109 L 115 104 L 109 103 L 103 108 L 102 111 L 102 120 L 103 121 L 103 126 L 104 127 L 104 129 L 102 130 L 96 123 L 91 120 L 85 114 L 78 112 L 75 113 L 70 117 L 69 119 L 69 127 L 73 136 L 79 145 L 77 146 L 73 143 L 63 139 L 58 139 L 52 144 L 52 152 L 58 160 L 61 166 L 61 168 L 59 170 L 55 171 L 50 176 L 50 182 L 55 189 L 67 200 L 76 205 L 81 209 L 92 214 L 95 217 L 97 223 L 101 230 L 101 232 L 103 234 L 110 247 L 113 250 L 118 258 L 134 273 L 143 278 L 152 285 L 150 287 L 145 287 L 144 288 L 149 294 L 160 299 L 175 303 L 177 305 L 175 307 L 170 309 L 173 313 L 182 316 L 196 318 L 199 321 L 195 325 L 197 327 L 204 328 L 205 329 L 213 329 L 216 330 L 217 332 L 214 335 L 216 337 L 219 338 L 229 339 L 236 324 L 238 322 L 241 322 L 243 324 L 236 345 L 235 353 L 225 368 L 226 370 L 231 369 L 233 372 L 217 392 L 218 395 L 225 393 L 227 396 L 224 399 L 219 409 L 217 411 L 212 424 L 213 426 L 215 426 L 218 424 L 221 425 L 215 443 L 214 456 L 216 456 L 218 454 L 220 455 L 219 477 L 220 478 L 223 477 L 226 478 L 227 487 L 233 500 L 233 502 L 231 504 L 229 502 L 226 503 L 225 509 L 219 520 L 220 523 L 224 523 L 225 525 L 218 539 L 218 542 L 220 543 L 223 541 L 225 543 L 225 545 L 223 548 L 223 551 L 219 562 L 218 570 L 219 571 L 223 569 L 225 570 L 225 575 L 223 580 L 223 584 L 226 587 L 226 594 L 228 598 L 228 602 L 229 603 L 229 607 L 230 608 L 232 619 L 236 626 L 232 629 L 223 629 L 222 630 L 215 631 L 208 635 L 203 640 L 199 649 L 198 659 L 200 665 L 205 669 L 208 668 L 207 666 L 208 655 L 214 648 L 216 648 L 218 650 L 215 659 L 215 670 L 218 672 L 221 672 L 222 673 L 229 673 L 230 674 L 232 673 L 232 670 L 231 669 L 232 660 L 234 656 L 238 652 L 242 655 L 240 660 L 240 665 L 239 666 L 239 672 L 241 675 L 275 675 L 276 674 L 282 674 L 283 673 L 292 673 L 293 672 L 299 672 L 300 671 L 305 671 L 306 670 L 314 669 L 319 667 L 323 664 L 326 658 L 326 653 L 327 652 L 327 644 L 326 643 L 325 631 L 326 630 L 331 631 L 331 627 L 332 626 L 331 599 L 333 597 L 335 599 L 337 598 L 337 585 L 339 581 L 340 573 L 316 565 L 310 560 L 312 557 L 315 557 L 316 558 L 323 559 L 331 562 L 341 563 L 342 564 L 348 564 L 349 565 L 355 565 L 356 566 L 363 566 L 364 565 L 370 565 L 371 564 L 377 564 L 378 563 L 383 563 L 385 565 L 385 567 L 382 570 L 378 571 L 377 574 L 379 576 L 382 584 L 382 588 L 384 592 L 384 596 L 385 597 L 387 596 L 389 597 L 389 612 L 393 615 L 393 631 L 394 633 L 397 632 L 400 633 L 400 648 L 398 653 L 398 668 L 400 672 L 404 676 L 410 679 L 416 681 L 419 681 L 420 682 L 438 684 L 439 683 L 438 666 L 441 662 L 444 662 L 446 664 L 446 667 L 447 668 L 447 683 L 448 684 L 469 684 L 471 681 L 469 663 L 473 660 L 477 663 L 479 668 L 479 682 L 480 683 L 493 682 L 497 679 L 497 666 L 495 661 L 497 658 L 499 658 L 504 663 L 505 670 L 506 671 L 506 674 L 505 675 L 505 678 L 506 679 L 512 677 L 517 671 L 518 668 L 518 658 L 515 650 L 513 647 L 507 642 L 501 640 L 498 637 L 498 635 L 501 631 L 501 627 L 503 621 L 503 613 L 504 612 L 504 587 L 503 586 L 503 583 L 506 580 L 502 571 L 504 569 L 508 572 L 510 571 L 508 564 L 502 552 L 502 550 L 498 544 L 500 542 L 505 545 L 508 544 L 506 537 L 500 524 L 502 521 L 504 522 L 505 521 L 504 510 L 503 509 L 503 506 L 501 502 L 500 496 L 492 493 L 484 485 L 481 480 L 479 474 L 478 460 L 479 459 L 480 451 L 484 442 L 484 435 L 483 434 L 480 415 L 479 414 L 475 395 L 471 383 L 468 378 L 468 376 L 455 350 L 454 345 L 457 344 L 462 349 L 468 360 L 470 362 L 476 374 L 476 376 L 480 384 L 486 402 L 486 405 L 489 414 L 489 418 L 490 419 L 490 423 L 491 424 L 491 428 L 492 429 L 492 434 L 494 439 L 488 457 L 488 471 L 490 477 L 492 480 L 498 484 L 502 484 L 506 481 L 510 471 L 513 468 L 516 471 L 516 477 L 514 483 L 509 491 L 509 495 L 513 500 L 519 503 L 525 503 L 527 502 L 533 496 L 538 485 L 541 484 L 542 485 L 542 493 L 537 503 L 539 505 L 547 505 L 551 503 L 557 497 L 561 485 L 564 482 L 566 484 L 566 491 L 564 497 L 565 498 L 567 497 L 575 488 L 581 475 L 582 467 L 583 466 L 583 459 L 584 458 L 584 448 L 583 447 L 583 440 L 582 437 L 586 434 L 586 431 L 580 414 L 580 410 L 577 405 L 577 403 L 578 402 L 581 402 L 582 400 L 578 392 L 568 377 L 570 375 L 571 376 L 574 376 L 575 374 L 556 349 L 558 347 L 559 348 L 566 349 L 566 347 L 539 321 L 540 319 L 547 319 L 548 317 L 538 308 L 531 304 L 522 297 L 524 295 L 529 295 L 530 293 L 527 290 L 519 286 L 517 286 L 511 281 L 512 279 L 518 279 L 519 277 L 516 274 L 492 259 L 494 256 L 498 256 L 499 254 L 483 246 L 474 243 L 473 240 L 475 239 L 476 237 L 469 234 L 470 229 L 468 228 L 464 228 L 463 227 L 463 225 L 470 216 L 476 203 L 476 195 L 478 193 L 481 195 L 484 193 L 484 177 L 483 176 L 483 173 L 485 171 L 488 174 L 491 174 L 491 167 L 484 153 L 484 151 L 485 150 L 492 151 L 493 150 L 493 146 L 487 137 L 479 129 L 481 127 L 490 127 L 491 126 L 491 123 L 484 117 L 479 115 L 476 112 L 476 110 L 479 109 L 480 107 L 473 98 L 465 83 L 459 75 L 459 73 L 468 64 L 472 57 L 473 51 L 474 50 L 473 38 L 469 29 L 465 24 L 458 18 Z M 450 14 L 462 22 L 466 26 L 472 35 L 473 44 L 474 45 L 472 56 L 469 62 L 458 72 L 458 75 L 464 82 L 473 99 L 479 106 L 479 107 L 477 109 L 475 109 L 474 111 L 490 123 L 490 126 L 489 127 L 479 126 L 478 129 L 487 138 L 493 147 L 492 150 L 488 150 L 487 149 L 484 149 L 483 150 L 483 153 L 485 155 L 490 166 L 491 172 L 488 173 L 484 170 L 482 171 L 483 180 L 484 181 L 483 192 L 481 194 L 478 191 L 476 192 L 476 201 L 474 207 L 470 215 L 461 225 L 461 227 L 464 229 L 467 229 L 468 230 L 466 234 L 471 235 L 474 237 L 473 239 L 470 240 L 471 242 L 477 244 L 482 247 L 484 247 L 491 251 L 493 251 L 497 254 L 496 256 L 490 256 L 489 258 L 491 260 L 495 261 L 497 263 L 502 265 L 517 276 L 516 279 L 508 278 L 507 280 L 518 287 L 520 287 L 522 289 L 526 290 L 528 292 L 527 294 L 523 294 L 521 295 L 521 297 L 541 311 L 547 317 L 545 319 L 542 318 L 536 318 L 536 319 L 565 346 L 564 348 L 560 348 L 554 346 L 554 348 L 563 358 L 570 369 L 574 373 L 572 376 L 569 374 L 566 375 L 577 391 L 581 399 L 579 401 L 576 399 L 575 401 L 580 411 L 580 415 L 585 429 L 585 432 L 581 434 L 582 436 L 582 440 L 583 441 L 583 464 L 582 465 L 582 469 L 581 470 L 581 473 L 578 482 L 574 489 L 567 496 L 565 494 L 566 491 L 566 482 L 563 481 L 560 486 L 560 489 L 555 499 L 548 504 L 543 504 L 541 505 L 538 501 L 542 493 L 542 484 L 539 483 L 533 495 L 526 502 L 518 502 L 514 500 L 510 496 L 509 492 L 513 487 L 516 478 L 516 469 L 514 467 L 511 468 L 507 477 L 507 479 L 503 483 L 497 483 L 495 482 L 490 476 L 489 470 L 488 469 L 488 460 L 489 459 L 489 454 L 494 442 L 494 437 L 492 432 L 492 427 L 491 426 L 491 422 L 490 421 L 490 417 L 489 416 L 489 412 L 488 411 L 487 404 L 485 400 L 485 397 L 481 385 L 479 382 L 478 377 L 475 372 L 473 366 L 471 364 L 462 348 L 457 343 L 454 343 L 453 344 L 456 354 L 463 366 L 463 368 L 468 377 L 469 382 L 471 385 L 474 394 L 476 405 L 477 406 L 477 410 L 480 419 L 481 429 L 483 434 L 483 442 L 478 456 L 478 473 L 480 479 L 485 488 L 491 493 L 495 495 L 498 495 L 500 497 L 500 501 L 503 508 L 503 513 L 505 518 L 503 521 L 500 519 L 499 522 L 507 542 L 505 544 L 498 540 L 497 541 L 497 544 L 499 546 L 508 566 L 508 569 L 507 570 L 502 567 L 500 568 L 505 578 L 502 582 L 503 589 L 504 590 L 504 606 L 503 607 L 503 619 L 502 620 L 501 629 L 500 632 L 497 635 L 497 637 L 499 639 L 506 642 L 510 645 L 515 651 L 517 656 L 517 660 L 518 661 L 518 667 L 517 670 L 510 678 L 508 678 L 506 676 L 506 669 L 503 661 L 499 657 L 497 657 L 495 659 L 496 668 L 497 669 L 497 678 L 494 681 L 491 682 L 483 682 L 481 683 L 479 681 L 480 678 L 480 671 L 479 670 L 479 666 L 475 660 L 471 660 L 469 662 L 470 682 L 468 684 L 449 684 L 447 682 L 447 665 L 444 661 L 441 661 L 438 664 L 438 682 L 437 683 L 422 682 L 421 681 L 417 681 L 406 677 L 400 671 L 398 666 L 398 657 L 399 656 L 399 651 L 401 646 L 400 631 L 398 630 L 395 632 L 393 629 L 393 616 L 394 615 L 394 611 L 391 612 L 389 610 L 389 599 L 390 598 L 390 594 L 387 595 L 384 594 L 383 585 L 381 579 L 378 574 L 380 571 L 383 570 L 385 568 L 385 564 L 382 562 L 379 562 L 374 564 L 365 564 L 364 565 L 344 564 L 339 562 L 329 561 L 315 556 L 311 556 L 309 558 L 309 560 L 313 564 L 319 567 L 324 568 L 327 570 L 337 572 L 339 574 L 339 578 L 336 586 L 336 593 L 337 596 L 335 598 L 332 595 L 330 596 L 330 604 L 331 605 L 331 628 L 330 629 L 328 629 L 326 627 L 324 628 L 324 633 L 326 639 L 326 656 L 324 661 L 319 666 L 317 666 L 311 669 L 307 669 L 306 670 L 294 671 L 293 672 L 288 672 L 287 673 L 270 674 L 269 675 L 243 675 L 240 672 L 240 661 L 241 660 L 242 653 L 241 652 L 237 652 L 234 655 L 231 662 L 231 671 L 229 673 L 225 673 L 224 672 L 217 671 L 215 669 L 215 660 L 219 649 L 217 647 L 214 647 L 208 654 L 208 657 L 207 658 L 207 666 L 204 668 L 199 662 L 199 651 L 203 640 L 210 634 L 220 630 L 225 630 L 226 629 L 241 629 L 242 630 L 246 630 L 252 632 L 255 631 L 253 629 L 251 629 L 248 627 L 238 626 L 234 622 L 231 614 L 230 607 L 229 606 L 229 600 L 227 595 L 227 585 L 224 582 L 226 569 L 224 568 L 221 570 L 219 568 L 219 564 L 222 556 L 222 553 L 226 544 L 226 541 L 225 540 L 221 542 L 219 540 L 219 538 L 226 524 L 225 522 L 221 522 L 220 519 L 226 508 L 226 506 L 228 504 L 233 505 L 234 502 L 227 486 L 226 475 L 225 474 L 222 476 L 219 475 L 219 467 L 220 466 L 221 452 L 219 451 L 216 455 L 214 453 L 217 437 L 221 428 L 222 423 L 220 422 L 215 425 L 213 423 L 213 421 L 218 410 L 228 394 L 227 392 L 220 394 L 218 391 L 234 371 L 233 369 L 228 369 L 226 367 L 236 352 L 236 347 L 243 327 L 243 322 L 241 320 L 239 320 L 236 322 L 232 330 L 231 335 L 228 339 L 218 337 L 217 336 L 217 334 L 219 332 L 218 330 L 216 329 L 211 329 L 210 328 L 202 328 L 199 327 L 197 325 L 200 321 L 199 318 L 196 317 L 190 317 L 189 316 L 185 316 L 184 315 L 180 315 L 174 313 L 171 310 L 173 308 L 179 306 L 176 302 L 162 299 L 149 293 L 146 290 L 148 288 L 153 287 L 153 284 L 150 281 L 147 280 L 133 271 L 116 254 L 102 233 L 102 231 L 98 224 L 98 222 L 95 216 L 92 213 L 86 211 L 66 198 L 56 189 L 50 181 L 50 177 L 51 175 L 56 171 L 61 170 L 65 165 L 67 167 L 74 167 L 77 166 L 81 162 L 80 157 L 68 148 L 64 146 L 59 146 L 57 149 L 57 152 L 55 153 L 52 150 L 52 146 L 53 144 L 59 139 L 66 140 L 72 143 L 80 149 L 84 146 L 90 146 L 94 144 L 97 141 L 98 137 L 95 132 L 80 120 L 77 120 L 73 125 L 70 124 L 70 119 L 71 117 L 76 113 L 82 113 L 96 124 L 104 134 L 110 133 L 115 136 L 122 136 L 124 133 L 124 128 L 122 122 L 112 111 L 109 110 L 105 114 L 103 113 L 104 108 L 108 104 L 114 104 L 122 111 L 128 121 L 129 127 L 131 129 L 133 129 L 143 117 L 150 117 L 154 121 L 159 130 L 159 151 L 157 155 L 157 160 L 167 170 L 176 182 L 189 195 L 191 195 L 192 192 L 195 191 L 202 200 L 204 205 L 210 213 L 214 214 L 214 208 L 216 206 L 218 206 L 221 209 L 225 217 L 231 225 L 233 224 L 233 218 L 235 216 L 242 223 L 245 229 L 250 235 L 252 234 L 252 230 L 254 228 L 261 234 L 269 246 L 271 248 L 274 248 L 276 246 L 276 241 L 273 235 L 261 221 L 259 221 L 255 218 L 254 214 L 251 210 L 248 214 L 244 210 L 242 204 L 242 191 L 240 190 L 237 193 L 234 191 L 234 181 L 236 175 L 236 170 L 234 169 L 231 171 L 229 169 L 229 167 L 230 166 L 230 163 L 236 152 L 236 150 L 235 149 L 228 150 L 226 147 L 238 134 L 237 123 L 245 106 L 246 101 L 245 100 L 242 100 L 234 95 L 230 91 L 225 82 L 224 71 L 225 70 L 225 65 L 229 56 L 239 46 L 250 41 L 262 41 L 271 45 L 280 55 L 282 55 L 293 47 L 299 44 L 304 43 L 308 38 L 311 37 L 324 37 L 328 35 L 328 32 L 325 28 L 327 25 L 331 25 L 342 31 L 346 31 L 353 23 L 357 21 L 360 23 L 360 25 L 358 28 L 358 31 L 359 32 L 363 32 L 364 31 L 374 31 L 376 30 L 377 31 L 384 31 L 385 32 L 394 33 L 395 34 L 398 34 L 401 36 L 407 37 L 408 36 L 409 30 L 413 24 L 418 19 L 424 15 L 426 15 L 429 13 L 433 13 L 434 12 L 442 12 L 443 13 Z M 455 6 L 449 4 L 446 4 L 445 3 L 432 3 L 431 4 L 426 4 L 420 6 L 413 10 L 404 19 L 403 22 L 401 24 L 395 24 L 394 23 L 388 23 L 387 22 L 380 22 L 379 21 L 370 21 L 368 19 L 367 16 L 361 12 L 353 13 L 348 16 L 344 20 L 341 20 L 333 16 L 323 16 L 318 20 L 317 27 L 315 29 L 308 29 L 293 36 L 284 42 L 281 41 L 275 36 L 263 31 L 251 31 L 250 32 L 240 34 L 231 39 L 222 48 L 217 56 L 214 65 L 214 70 L 213 71 L 214 74 L 214 82 L 218 92 L 223 99 L 233 107 L 233 110 L 227 122 L 227 133 L 220 140 L 218 144 L 218 153 L 219 155 L 223 158 L 223 160 L 221 162 L 220 165 L 220 173 L 221 176 L 225 180 L 224 191 L 226 196 L 229 199 L 228 202 L 219 196 L 216 196 L 210 198 L 202 186 L 195 180 L 188 180 L 179 168 L 168 156 L 169 145 L 170 144 L 169 131 L 165 119 L 163 115 L 159 111 L 152 108 L 143 108 L 134 111 L 128 106 L 122 99 L 118 96 L 112 94 L 101 95 L 89 106 L 83 104 L 73 104 L 66 107 L 59 115 L 58 118 L 58 130 L 56 132 L 53 132 L 48 134 L 42 143 L 41 146 L 41 153 L 44 160 L 46 162 L 46 164 L 41 170 L 39 178 L 40 179 L 40 184 L 42 187 L 42 189 L 46 195 L 54 203 L 63 210 L 74 216 L 76 218 L 83 221 L 87 225 L 88 229 L 91 234 L 91 236 L 93 238 L 100 251 L 104 255 L 106 259 L 121 275 L 129 280 L 134 285 L 135 291 L 137 295 L 140 298 L 149 304 L 158 307 L 161 310 L 163 316 L 169 321 L 184 325 L 190 333 L 197 336 L 201 336 L 203 337 L 207 342 L 215 346 L 221 347 L 225 350 L 217 366 L 218 377 L 212 384 L 208 393 L 208 397 L 212 403 L 208 409 L 208 411 L 204 420 L 204 431 L 208 435 L 208 438 L 206 443 L 206 447 L 205 448 L 205 459 L 207 464 L 209 466 L 209 473 L 210 474 L 210 478 L 212 484 L 219 492 L 219 495 L 214 510 L 210 518 L 210 526 L 212 528 L 212 531 L 209 536 L 209 546 L 212 549 L 212 553 L 209 560 L 209 571 L 210 574 L 214 578 L 214 587 L 215 588 L 215 592 L 216 593 L 216 597 L 218 603 L 218 608 L 220 613 L 220 619 L 218 621 L 211 622 L 198 630 L 193 636 L 188 647 L 187 658 L 188 659 L 189 666 L 196 674 L 201 677 L 207 679 L 210 679 L 211 680 L 214 680 L 215 681 L 225 682 L 226 683 L 234 683 L 235 684 L 274 684 L 275 683 L 284 683 L 285 682 L 292 682 L 293 681 L 305 680 L 310 678 L 318 677 L 327 673 L 334 666 L 337 659 L 337 639 L 340 635 L 342 630 L 342 625 L 343 624 L 343 606 L 347 602 L 347 599 L 348 598 L 348 588 L 350 582 L 350 577 L 352 575 L 355 575 L 356 576 L 367 576 L 370 580 L 372 590 L 374 594 L 374 597 L 376 600 L 377 604 L 381 609 L 381 618 L 382 619 L 383 629 L 387 638 L 390 642 L 390 646 L 388 652 L 388 659 L 387 660 L 388 669 L 393 679 L 402 686 L 414 690 L 417 690 L 418 691 L 428 692 L 429 693 L 438 693 L 439 694 L 474 694 L 475 693 L 487 693 L 488 692 L 499 691 L 500 690 L 503 690 L 504 689 L 507 689 L 513 687 L 520 683 L 527 675 L 529 669 L 529 655 L 527 649 L 525 647 L 524 644 L 512 633 L 512 627 L 513 626 L 513 621 L 514 620 L 514 610 L 515 609 L 515 582 L 519 578 L 520 575 L 519 567 L 517 561 L 514 556 L 514 554 L 518 549 L 518 543 L 515 534 L 513 531 L 516 525 L 515 514 L 516 513 L 519 513 L 520 514 L 529 514 L 531 513 L 537 516 L 547 516 L 548 515 L 551 515 L 557 513 L 562 510 L 564 510 L 571 506 L 584 494 L 590 483 L 593 474 L 594 465 L 595 464 L 595 448 L 594 447 L 594 442 L 596 440 L 596 429 L 595 428 L 595 424 L 592 415 L 590 412 L 590 410 L 592 407 L 592 399 L 588 390 L 584 385 L 584 381 L 586 377 L 582 368 L 574 358 L 574 356 L 577 352 L 577 349 L 575 344 L 557 325 L 558 316 L 556 312 L 538 296 L 540 292 L 539 288 L 527 278 L 526 272 L 521 267 L 512 261 L 513 256 L 510 251 L 504 246 L 491 240 L 488 237 L 488 233 L 487 231 L 479 222 L 479 220 L 481 218 L 485 210 L 485 207 L 493 197 L 494 185 L 499 180 L 501 175 L 501 167 L 499 163 L 499 159 L 502 156 L 503 153 L 503 147 L 499 138 L 496 134 L 500 129 L 500 122 L 498 118 L 488 110 L 488 104 L 480 89 L 471 76 L 480 64 L 483 57 L 483 54 L 484 53 L 484 40 L 483 39 L 482 33 L 480 30 L 479 26 L 475 20 L 466 12 Z M 454 6 L 468 14 L 475 21 L 481 31 L 483 37 L 483 41 L 484 42 L 484 51 L 483 52 L 482 59 L 477 68 L 471 74 L 471 77 L 475 82 L 483 97 L 485 99 L 488 106 L 488 111 L 492 113 L 499 120 L 500 128 L 496 132 L 496 135 L 501 142 L 503 148 L 502 155 L 498 159 L 500 165 L 500 168 L 501 169 L 500 177 L 494 184 L 494 189 L 493 190 L 492 198 L 485 206 L 484 211 L 479 219 L 479 223 L 486 231 L 487 233 L 487 237 L 490 240 L 503 246 L 511 253 L 512 255 L 511 261 L 519 266 L 526 273 L 526 278 L 529 281 L 533 283 L 539 289 L 538 297 L 546 303 L 556 313 L 558 317 L 558 320 L 556 323 L 556 325 L 576 346 L 576 353 L 574 355 L 574 358 L 579 364 L 585 375 L 585 379 L 583 382 L 583 384 L 587 389 L 592 401 L 592 406 L 590 409 L 590 413 L 596 431 L 596 437 L 593 443 L 594 445 L 594 450 L 595 451 L 595 458 L 594 459 L 593 472 L 592 473 L 592 476 L 590 482 L 586 490 L 580 498 L 567 508 L 565 508 L 550 515 L 539 516 L 538 515 L 535 515 L 532 513 L 528 513 L 527 514 L 522 514 L 517 512 L 514 513 L 514 516 L 515 517 L 515 526 L 512 531 L 517 541 L 517 550 L 513 555 L 518 565 L 518 568 L 519 569 L 519 577 L 514 582 L 514 615 L 513 616 L 513 623 L 512 624 L 511 633 L 521 641 L 528 653 L 528 657 L 529 658 L 529 667 L 528 668 L 528 671 L 525 677 L 519 683 L 516 684 L 514 686 L 505 689 L 497 690 L 496 691 L 481 692 L 480 693 L 434 693 L 433 692 L 426 692 L 425 691 L 420 691 L 419 690 L 412 689 L 400 684 L 392 677 L 388 668 L 388 654 L 389 653 L 389 649 L 390 648 L 391 642 L 388 639 L 384 631 L 383 623 L 382 622 L 381 607 L 377 603 L 376 599 L 374 596 L 374 593 L 370 581 L 370 578 L 368 575 L 351 575 L 350 576 L 349 586 L 348 587 L 347 601 L 342 606 L 342 629 L 339 636 L 337 638 L 337 657 L 334 665 L 326 673 L 320 676 L 317 676 L 308 679 L 298 680 L 297 681 L 290 681 L 289 682 L 282 682 L 281 683 L 265 683 L 264 684 L 230 683 L 229 682 L 222 682 L 221 681 L 212 680 L 211 679 L 208 679 L 198 675 L 191 668 L 188 662 L 188 649 L 193 637 L 198 631 L 210 623 L 220 621 L 221 620 L 221 616 L 219 611 L 219 607 L 218 606 L 218 602 L 216 596 L 216 591 L 214 585 L 215 578 L 209 571 L 209 561 L 213 552 L 213 550 L 209 545 L 209 537 L 211 534 L 211 532 L 213 530 L 212 527 L 210 525 L 210 519 L 214 511 L 219 496 L 219 491 L 214 486 L 211 481 L 211 478 L 209 473 L 209 465 L 207 463 L 205 458 L 205 448 L 208 439 L 208 434 L 204 430 L 204 420 L 206 414 L 210 406 L 212 404 L 212 401 L 209 398 L 208 394 L 210 388 L 218 378 L 217 368 L 219 362 L 225 352 L 225 349 L 223 347 L 219 347 L 209 343 L 205 338 L 202 336 L 198 336 L 192 333 L 190 333 L 187 330 L 187 328 L 185 325 L 175 323 L 168 320 L 162 314 L 162 310 L 159 307 L 154 306 L 142 299 L 136 293 L 134 284 L 131 281 L 123 276 L 110 263 L 104 254 L 100 250 L 93 239 L 87 224 L 84 221 L 75 217 L 73 215 L 65 211 L 56 204 L 45 193 L 40 183 L 40 173 L 42 169 L 46 165 L 46 162 L 42 156 L 42 144 L 45 138 L 49 134 L 51 133 L 55 133 L 59 131 L 58 119 L 60 114 L 65 108 L 74 104 L 81 104 L 84 105 L 86 107 L 89 107 L 102 95 L 105 95 L 106 94 L 108 95 L 114 95 L 119 98 L 127 106 L 128 106 L 133 112 L 135 112 L 140 109 L 143 109 L 144 108 L 151 108 L 159 112 L 162 115 L 166 123 L 168 129 L 168 133 L 169 134 L 169 151 L 167 156 L 189 181 L 191 180 L 196 181 L 202 187 L 209 198 L 220 197 L 232 206 L 232 203 L 225 192 L 225 189 L 224 188 L 225 185 L 225 179 L 221 175 L 220 172 L 220 167 L 223 161 L 223 158 L 218 152 L 218 145 L 220 141 L 228 132 L 227 124 L 228 123 L 228 120 L 234 109 L 234 107 L 228 103 L 219 93 L 214 80 L 214 66 L 217 57 L 222 49 L 232 39 L 245 33 L 249 33 L 250 32 L 257 31 L 258 32 L 265 32 L 274 36 L 280 41 L 285 42 L 287 40 L 304 31 L 310 30 L 311 29 L 317 29 L 318 28 L 317 25 L 318 21 L 324 16 L 331 16 L 332 17 L 335 17 L 342 21 L 344 21 L 349 16 L 354 13 L 362 13 L 364 14 L 367 17 L 369 22 L 384 22 L 385 23 L 392 23 L 393 24 L 401 25 L 408 15 L 419 7 L 428 4 L 434 4 L 435 3 L 441 3 L 442 4 L 447 4 L 448 5 Z" fill="#B1B1B1" fill-rule="evenodd"/><path d="M 462 635 L 462 636 L 472 636 L 472 635 Z M 273 143 L 273 146 L 272 147 L 272 157 L 273 158 L 274 162 L 281 170 L 287 173 L 289 173 L 293 176 L 294 185 L 296 188 L 296 190 L 299 196 L 301 198 L 305 205 L 308 208 L 308 209 L 322 223 L 327 226 L 329 226 L 330 225 L 322 217 L 319 211 L 319 207 L 322 200 L 332 189 L 333 189 L 338 185 L 345 182 L 353 181 L 354 182 L 358 182 L 359 183 L 361 183 L 363 184 L 370 191 L 370 193 L 371 194 L 370 196 L 370 200 L 369 201 L 368 206 L 363 216 L 364 216 L 367 213 L 372 203 L 372 201 L 374 197 L 374 193 L 375 192 L 376 184 L 377 183 L 377 174 L 378 173 L 378 171 L 377 170 L 377 158 L 376 157 L 375 151 L 373 148 L 370 148 L 369 151 L 360 160 L 350 165 L 348 165 L 344 167 L 341 167 L 340 168 L 326 168 L 325 167 L 315 166 L 314 165 L 310 165 L 308 164 L 304 166 L 299 170 L 296 170 L 294 171 L 293 170 L 289 170 L 287 169 L 279 162 L 277 158 L 277 153 L 276 152 L 276 150 L 277 149 L 277 141 L 276 140 Z M 283 133 L 283 139 L 287 146 L 295 152 L 301 153 L 302 154 L 307 154 L 308 153 L 311 153 L 322 148 L 330 140 L 331 136 L 332 135 L 332 133 L 329 128 L 322 124 L 319 124 L 318 123 L 315 123 L 314 122 L 303 122 L 302 123 L 298 123 L 297 124 L 295 124 L 287 128 Z M 291 101 L 286 101 L 282 106 L 281 112 L 280 113 L 280 118 L 281 119 L 281 121 L 283 123 L 286 123 L 288 122 L 293 116 L 293 114 L 294 113 L 294 105 Z M 372 93 L 369 95 L 366 100 L 366 102 L 365 103 L 365 111 L 366 112 L 367 116 L 370 119 L 372 120 L 376 120 L 378 119 L 381 115 L 381 112 L 382 111 L 382 104 L 381 103 L 381 100 L 379 96 L 375 93 Z M 299 64 L 297 62 L 292 62 L 290 63 L 282 70 L 282 74 L 283 75 L 286 74 L 293 68 L 297 67 L 299 65 Z M 365 54 L 366 56 L 369 56 L 370 57 L 375 58 L 383 63 L 385 63 L 386 62 L 386 58 L 382 54 L 378 52 L 376 52 L 375 51 L 368 51 Z M 454 7 L 448 6 L 447 5 L 442 5 L 441 4 L 435 4 L 434 5 L 428 5 L 427 6 L 419 8 L 417 10 L 414 11 L 411 14 L 410 14 L 405 20 L 404 23 L 401 26 L 393 25 L 392 24 L 385 24 L 384 23 L 369 23 L 367 21 L 367 19 L 364 15 L 362 14 L 354 14 L 349 17 L 344 22 L 342 22 L 335 18 L 332 18 L 331 17 L 324 17 L 319 21 L 319 23 L 318 24 L 319 28 L 317 30 L 311 30 L 310 31 L 304 32 L 294 37 L 292 39 L 287 41 L 285 43 L 282 43 L 280 42 L 277 39 L 268 34 L 266 34 L 265 33 L 258 33 L 257 32 L 255 32 L 254 33 L 250 33 L 249 34 L 245 34 L 232 40 L 223 49 L 223 50 L 219 55 L 218 59 L 216 62 L 216 65 L 215 66 L 215 80 L 216 81 L 217 87 L 223 97 L 228 102 L 229 102 L 235 107 L 235 109 L 229 120 L 229 123 L 228 124 L 228 129 L 229 130 L 229 132 L 228 134 L 221 141 L 219 145 L 219 152 L 224 158 L 224 161 L 221 167 L 221 172 L 222 173 L 222 175 L 226 179 L 226 185 L 225 186 L 225 188 L 226 189 L 226 192 L 228 196 L 233 203 L 233 206 L 232 207 L 231 207 L 227 203 L 226 203 L 220 198 L 209 199 L 207 197 L 206 194 L 203 191 L 201 187 L 194 181 L 191 181 L 189 182 L 181 174 L 181 173 L 177 169 L 177 168 L 173 164 L 173 163 L 166 156 L 167 152 L 168 151 L 168 134 L 167 133 L 167 129 L 166 128 L 165 123 L 161 115 L 159 113 L 151 109 L 144 109 L 143 110 L 140 110 L 135 113 L 133 113 L 128 107 L 127 107 L 119 99 L 114 96 L 108 96 L 107 95 L 105 96 L 102 96 L 100 97 L 93 104 L 93 105 L 89 108 L 86 108 L 84 106 L 82 106 L 81 105 L 74 105 L 73 106 L 68 107 L 66 109 L 65 109 L 61 114 L 60 118 L 59 119 L 59 126 L 60 127 L 60 131 L 58 133 L 49 135 L 46 138 L 43 144 L 43 156 L 47 162 L 47 165 L 43 169 L 41 173 L 41 183 L 46 193 L 56 203 L 57 203 L 65 210 L 68 211 L 75 216 L 84 220 L 88 224 L 89 228 L 91 231 L 91 233 L 101 250 L 105 254 L 105 255 L 111 262 L 111 263 L 123 275 L 131 280 L 135 284 L 136 286 L 136 291 L 142 298 L 154 305 L 159 306 L 163 310 L 163 314 L 168 319 L 175 322 L 178 322 L 179 323 L 183 323 L 185 324 L 187 326 L 188 330 L 190 332 L 192 332 L 198 335 L 202 335 L 204 336 L 209 342 L 213 344 L 218 345 L 219 346 L 223 346 L 226 349 L 226 352 L 224 356 L 222 358 L 220 362 L 219 367 L 218 368 L 219 378 L 215 382 L 215 383 L 211 388 L 211 390 L 209 394 L 210 398 L 213 401 L 213 404 L 211 406 L 205 420 L 205 430 L 209 434 L 209 439 L 208 440 L 208 443 L 207 444 L 207 447 L 206 448 L 206 458 L 207 459 L 208 463 L 210 465 L 210 473 L 211 474 L 212 481 L 215 486 L 220 491 L 220 496 L 219 497 L 215 511 L 211 519 L 211 525 L 213 527 L 214 530 L 212 532 L 212 534 L 210 537 L 210 545 L 214 550 L 214 552 L 212 555 L 212 557 L 210 561 L 210 571 L 216 578 L 215 585 L 216 586 L 217 596 L 218 597 L 218 601 L 219 602 L 220 611 L 221 612 L 221 615 L 222 616 L 222 620 L 220 622 L 217 622 L 216 623 L 210 624 L 206 627 L 203 628 L 196 634 L 191 643 L 191 645 L 189 649 L 189 662 L 192 668 L 198 674 L 202 676 L 204 676 L 208 678 L 211 678 L 212 679 L 216 679 L 217 680 L 221 680 L 222 681 L 229 681 L 230 682 L 243 682 L 244 683 L 264 683 L 265 682 L 281 682 L 282 681 L 297 680 L 298 679 L 308 678 L 309 677 L 320 675 L 326 672 L 333 665 L 335 658 L 336 657 L 336 638 L 338 636 L 341 629 L 341 606 L 346 601 L 348 581 L 349 580 L 349 576 L 351 574 L 368 574 L 371 578 L 371 581 L 373 585 L 375 596 L 377 599 L 378 603 L 382 607 L 382 614 L 383 615 L 383 622 L 384 623 L 385 631 L 389 639 L 392 642 L 391 648 L 390 649 L 390 653 L 389 654 L 389 668 L 393 677 L 400 683 L 412 688 L 415 688 L 416 689 L 419 689 L 420 690 L 425 690 L 426 691 L 433 691 L 434 692 L 480 692 L 481 691 L 496 690 L 497 689 L 505 688 L 506 687 L 514 685 L 516 683 L 519 682 L 524 677 L 527 671 L 527 668 L 528 667 L 528 658 L 527 657 L 527 653 L 523 645 L 520 642 L 520 641 L 510 633 L 510 630 L 511 629 L 511 624 L 512 623 L 512 616 L 513 615 L 513 582 L 518 577 L 518 569 L 517 568 L 517 565 L 512 555 L 512 554 L 516 550 L 516 541 L 511 531 L 514 526 L 514 517 L 513 516 L 513 513 L 515 511 L 517 511 L 518 512 L 521 512 L 522 513 L 532 512 L 535 514 L 538 514 L 539 515 L 550 514 L 558 510 L 560 510 L 565 507 L 567 507 L 576 500 L 577 500 L 585 490 L 591 476 L 592 468 L 593 467 L 593 459 L 594 458 L 594 451 L 593 450 L 593 445 L 592 443 L 595 437 L 595 431 L 594 430 L 594 426 L 593 425 L 593 423 L 592 422 L 592 420 L 589 413 L 589 409 L 591 406 L 591 401 L 586 389 L 582 384 L 582 382 L 584 379 L 584 375 L 581 369 L 579 367 L 578 364 L 573 358 L 573 355 L 575 353 L 575 346 L 573 344 L 573 343 L 555 325 L 555 323 L 557 320 L 557 317 L 555 313 L 546 304 L 541 301 L 537 297 L 538 289 L 533 284 L 529 282 L 525 278 L 525 273 L 519 267 L 513 264 L 510 261 L 510 259 L 511 258 L 511 255 L 510 253 L 503 247 L 490 241 L 486 237 L 486 233 L 485 231 L 479 225 L 478 223 L 478 219 L 480 217 L 483 211 L 484 206 L 491 198 L 491 196 L 492 195 L 492 190 L 493 189 L 493 184 L 499 177 L 500 169 L 499 168 L 499 165 L 498 164 L 497 159 L 501 155 L 501 153 L 502 152 L 502 148 L 501 147 L 500 142 L 495 135 L 495 132 L 499 128 L 499 123 L 498 122 L 498 120 L 492 114 L 489 113 L 487 111 L 487 106 L 486 105 L 486 103 L 484 99 L 482 97 L 480 92 L 478 90 L 477 87 L 475 85 L 474 82 L 470 77 L 470 74 L 478 65 L 481 59 L 481 56 L 482 55 L 482 52 L 483 51 L 483 42 L 482 41 L 482 37 L 481 36 L 480 31 L 474 21 L 468 15 L 467 15 L 464 12 Z M 451 13 L 458 17 L 466 24 L 466 25 L 470 29 L 474 38 L 474 42 L 475 43 L 475 50 L 474 51 L 473 57 L 469 64 L 460 73 L 460 75 L 466 83 L 474 98 L 481 107 L 481 108 L 479 110 L 477 110 L 477 112 L 479 114 L 484 116 L 492 123 L 492 126 L 490 128 L 481 128 L 480 129 L 488 137 L 488 138 L 491 141 L 494 146 L 494 150 L 492 152 L 485 151 L 485 153 L 492 167 L 492 174 L 491 175 L 488 175 L 485 172 L 484 173 L 484 176 L 485 177 L 485 193 L 482 196 L 481 196 L 479 194 L 477 195 L 477 203 L 476 204 L 476 206 L 471 216 L 464 225 L 464 227 L 468 227 L 471 229 L 470 234 L 475 235 L 477 237 L 477 238 L 475 240 L 474 240 L 474 242 L 478 243 L 481 245 L 483 245 L 494 251 L 498 252 L 500 254 L 500 255 L 498 257 L 494 257 L 493 259 L 501 263 L 503 265 L 516 273 L 520 277 L 520 278 L 518 280 L 512 280 L 512 281 L 517 285 L 519 285 L 527 289 L 531 293 L 531 294 L 529 296 L 524 296 L 523 297 L 528 300 L 531 303 L 534 304 L 537 307 L 538 307 L 549 317 L 549 318 L 547 320 L 540 320 L 540 321 L 567 347 L 567 349 L 566 350 L 563 350 L 562 349 L 559 349 L 558 348 L 557 349 L 576 374 L 576 375 L 574 377 L 571 377 L 570 376 L 569 377 L 574 384 L 575 387 L 579 392 L 583 400 L 583 401 L 581 403 L 578 403 L 578 405 L 581 410 L 581 414 L 582 415 L 582 417 L 585 424 L 585 427 L 587 431 L 587 434 L 583 437 L 583 439 L 584 440 L 584 447 L 585 448 L 585 458 L 584 459 L 584 466 L 583 467 L 582 475 L 576 488 L 567 498 L 565 499 L 563 497 L 563 495 L 565 491 L 565 484 L 564 483 L 562 485 L 562 487 L 561 488 L 561 490 L 558 497 L 551 504 L 547 506 L 539 506 L 536 503 L 541 493 L 541 485 L 539 485 L 534 496 L 527 503 L 525 504 L 519 504 L 513 501 L 509 497 L 508 495 L 508 491 L 510 489 L 513 483 L 513 481 L 515 477 L 515 471 L 513 469 L 511 471 L 510 475 L 507 481 L 502 485 L 498 485 L 496 484 L 494 482 L 493 482 L 489 477 L 489 475 L 487 471 L 487 457 L 488 456 L 488 453 L 489 452 L 490 447 L 492 444 L 493 439 L 492 438 L 492 435 L 491 434 L 491 429 L 490 428 L 490 424 L 489 423 L 489 419 L 488 418 L 488 414 L 487 413 L 485 402 L 484 401 L 483 395 L 480 389 L 479 384 L 477 381 L 475 374 L 469 362 L 467 360 L 466 357 L 464 355 L 461 349 L 457 345 L 455 345 L 456 347 L 456 350 L 465 367 L 465 369 L 472 383 L 472 385 L 473 386 L 473 388 L 476 395 L 476 398 L 477 399 L 477 402 L 478 403 L 478 406 L 479 407 L 479 410 L 480 411 L 480 414 L 481 415 L 481 419 L 482 420 L 482 424 L 483 425 L 484 434 L 485 435 L 485 442 L 482 448 L 481 454 L 480 455 L 480 459 L 479 460 L 479 469 L 480 470 L 480 474 L 481 475 L 482 480 L 485 485 L 492 492 L 499 494 L 501 496 L 502 502 L 503 503 L 504 509 L 505 510 L 506 521 L 504 523 L 502 522 L 501 524 L 504 530 L 504 532 L 507 537 L 509 544 L 507 546 L 505 546 L 501 543 L 499 544 L 503 550 L 503 552 L 509 564 L 511 571 L 509 573 L 504 570 L 503 571 L 507 580 L 504 583 L 504 586 L 505 587 L 505 612 L 504 613 L 504 621 L 503 622 L 502 631 L 499 635 L 499 637 L 501 639 L 503 639 L 507 641 L 511 645 L 512 645 L 516 650 L 518 654 L 518 657 L 519 658 L 519 668 L 518 669 L 518 671 L 512 678 L 508 680 L 506 680 L 504 678 L 505 671 L 504 670 L 504 666 L 503 665 L 503 663 L 499 659 L 497 659 L 496 661 L 497 662 L 497 665 L 498 666 L 498 679 L 493 683 L 480 684 L 478 682 L 478 668 L 477 667 L 476 663 L 473 661 L 472 661 L 470 663 L 470 666 L 471 667 L 471 675 L 472 676 L 472 681 L 469 685 L 448 685 L 446 683 L 446 668 L 445 667 L 445 664 L 444 663 L 441 663 L 439 666 L 439 677 L 440 678 L 440 683 L 438 685 L 435 685 L 434 684 L 426 684 L 425 683 L 420 683 L 419 682 L 416 682 L 415 681 L 410 680 L 404 677 L 399 672 L 397 668 L 397 653 L 398 652 L 398 649 L 399 648 L 399 633 L 394 634 L 392 631 L 392 615 L 388 612 L 388 597 L 385 598 L 383 596 L 383 592 L 381 588 L 381 584 L 380 583 L 379 578 L 376 574 L 376 572 L 378 570 L 382 569 L 384 567 L 384 565 L 383 564 L 378 564 L 377 565 L 371 565 L 370 566 L 364 566 L 363 567 L 356 567 L 355 566 L 349 566 L 348 565 L 342 565 L 341 564 L 331 563 L 330 562 L 327 562 L 326 561 L 320 560 L 319 559 L 316 559 L 315 558 L 312 558 L 311 560 L 316 564 L 320 566 L 331 569 L 332 570 L 339 571 L 341 573 L 340 581 L 338 585 L 338 598 L 336 600 L 335 600 L 333 598 L 332 599 L 332 609 L 333 610 L 333 626 L 332 627 L 332 631 L 331 632 L 326 631 L 326 635 L 327 636 L 327 643 L 328 644 L 328 652 L 327 653 L 327 658 L 324 664 L 317 669 L 311 670 L 310 671 L 306 671 L 305 672 L 300 672 L 299 673 L 293 673 L 292 674 L 283 674 L 282 675 L 276 675 L 275 676 L 241 676 L 238 672 L 239 660 L 240 659 L 241 655 L 239 653 L 238 653 L 235 656 L 233 660 L 233 663 L 232 664 L 232 669 L 233 670 L 233 673 L 231 675 L 229 674 L 222 674 L 221 673 L 218 673 L 214 670 L 214 659 L 215 658 L 215 655 L 217 651 L 216 649 L 214 649 L 209 655 L 209 658 L 208 659 L 208 666 L 209 668 L 207 670 L 205 670 L 199 665 L 198 663 L 198 660 L 197 659 L 198 649 L 199 648 L 200 643 L 202 641 L 202 640 L 208 634 L 215 630 L 218 630 L 219 629 L 222 629 L 223 628 L 232 628 L 235 626 L 231 619 L 231 616 L 230 615 L 230 612 L 229 611 L 229 608 L 228 607 L 228 603 L 227 602 L 227 598 L 225 594 L 225 587 L 222 584 L 222 580 L 223 579 L 223 576 L 224 575 L 224 570 L 219 572 L 217 570 L 218 562 L 220 558 L 220 555 L 222 551 L 222 548 L 224 545 L 224 543 L 223 542 L 220 544 L 219 544 L 217 542 L 217 539 L 224 525 L 224 524 L 220 524 L 218 522 L 218 520 L 224 509 L 225 503 L 227 501 L 229 501 L 231 503 L 232 502 L 232 500 L 226 487 L 226 484 L 225 483 L 225 478 L 220 479 L 218 477 L 218 463 L 219 462 L 219 455 L 218 455 L 216 457 L 214 457 L 213 456 L 214 443 L 215 442 L 215 439 L 216 438 L 216 436 L 217 435 L 217 433 L 218 432 L 220 425 L 213 427 L 211 425 L 211 424 L 212 423 L 212 420 L 214 417 L 214 415 L 216 411 L 218 409 L 221 402 L 226 396 L 225 394 L 218 396 L 216 394 L 216 392 L 220 387 L 220 386 L 232 372 L 231 370 L 229 371 L 226 371 L 224 369 L 226 364 L 234 353 L 235 345 L 236 344 L 236 342 L 237 341 L 237 339 L 238 338 L 242 324 L 241 323 L 238 323 L 237 324 L 232 334 L 232 336 L 229 340 L 219 339 L 218 338 L 216 338 L 213 335 L 216 332 L 216 331 L 214 331 L 213 330 L 205 330 L 204 329 L 200 329 L 199 328 L 197 328 L 194 325 L 198 321 L 196 319 L 192 319 L 191 318 L 182 317 L 181 316 L 178 316 L 175 314 L 173 314 L 169 310 L 169 309 L 171 307 L 175 306 L 176 305 L 175 304 L 171 303 L 170 302 L 167 302 L 166 301 L 160 300 L 157 298 L 155 298 L 149 295 L 143 289 L 143 288 L 145 286 L 150 286 L 151 285 L 143 279 L 140 278 L 138 276 L 134 274 L 117 258 L 112 250 L 109 247 L 108 244 L 106 242 L 102 234 L 100 232 L 100 230 L 96 223 L 96 221 L 94 217 L 92 215 L 81 210 L 76 206 L 73 205 L 71 203 L 67 201 L 63 197 L 62 197 L 50 184 L 49 182 L 49 176 L 55 170 L 59 169 L 60 168 L 60 166 L 57 160 L 54 157 L 51 152 L 51 144 L 56 139 L 58 138 L 63 138 L 64 139 L 67 139 L 73 142 L 75 144 L 78 145 L 78 144 L 72 136 L 70 132 L 70 130 L 68 127 L 68 119 L 69 117 L 72 114 L 78 111 L 85 113 L 91 119 L 96 122 L 102 129 L 103 129 L 103 127 L 102 126 L 102 121 L 101 120 L 101 111 L 102 110 L 102 108 L 109 102 L 115 103 L 122 109 L 122 110 L 128 118 L 128 120 L 130 123 L 130 126 L 131 127 L 133 127 L 141 117 L 145 115 L 148 115 L 152 117 L 156 121 L 160 128 L 160 131 L 161 132 L 161 148 L 160 149 L 160 153 L 158 156 L 158 158 L 159 160 L 167 168 L 167 169 L 176 179 L 176 180 L 189 193 L 190 193 L 193 189 L 195 189 L 201 196 L 205 204 L 212 212 L 213 212 L 213 206 L 215 204 L 217 204 L 223 209 L 228 219 L 231 222 L 232 221 L 232 216 L 234 214 L 235 214 L 243 222 L 249 232 L 251 232 L 251 228 L 252 227 L 255 227 L 261 232 L 261 233 L 266 238 L 270 245 L 272 247 L 273 247 L 274 246 L 274 240 L 271 235 L 261 223 L 257 222 L 254 219 L 253 216 L 251 214 L 249 216 L 248 216 L 243 211 L 242 209 L 242 206 L 241 205 L 241 200 L 240 199 L 240 196 L 241 194 L 240 193 L 238 194 L 235 194 L 232 190 L 232 183 L 233 182 L 233 179 L 234 178 L 234 174 L 235 172 L 234 171 L 232 173 L 230 173 L 228 171 L 228 165 L 234 152 L 233 151 L 227 152 L 225 150 L 225 146 L 237 132 L 236 130 L 236 122 L 239 117 L 241 110 L 244 105 L 244 101 L 241 101 L 236 98 L 233 95 L 232 95 L 229 92 L 224 83 L 224 81 L 223 80 L 223 69 L 224 68 L 224 63 L 228 55 L 238 45 L 246 41 L 248 41 L 249 40 L 253 40 L 254 39 L 260 39 L 261 40 L 264 40 L 270 43 L 272 45 L 273 45 L 281 54 L 292 46 L 304 41 L 308 36 L 326 35 L 327 33 L 324 29 L 324 25 L 326 23 L 330 23 L 331 24 L 333 24 L 339 27 L 341 29 L 345 30 L 346 28 L 352 22 L 358 19 L 360 19 L 362 21 L 362 23 L 360 27 L 360 30 L 365 30 L 366 29 L 381 29 L 382 30 L 387 30 L 388 31 L 392 31 L 393 32 L 400 33 L 403 35 L 407 35 L 407 31 L 412 23 L 417 18 L 418 18 L 423 14 L 427 13 L 428 12 L 431 12 L 432 11 L 444 11 L 448 13 Z" fill="#010101" fill-rule="evenodd"/></svg>