<svg xmlns="http://www.w3.org/2000/svg" viewBox="0 0 653 704" shape-rendering="geometricPrecision"><title>intro frame 027</title><path d="M 347 542 L 343 542 L 340 544 L 338 544 L 334 546 L 331 550 L 334 551 L 336 549 L 344 545 Z M 396 569 L 395 577 L 394 578 L 394 589 L 395 590 L 395 594 L 398 600 L 406 607 L 408 607 L 411 610 L 417 613 L 419 613 L 421 615 L 426 615 L 427 616 L 432 615 L 433 616 L 446 618 L 447 617 L 458 616 L 461 615 L 463 613 L 470 613 L 472 611 L 479 608 L 491 598 L 492 595 L 494 593 L 494 585 L 493 584 L 486 583 L 483 585 L 478 586 L 476 588 L 474 588 L 466 581 L 467 576 L 466 575 L 465 567 L 462 563 L 460 562 L 457 556 L 457 553 L 452 547 L 451 542 L 447 538 L 441 538 L 438 540 L 428 539 L 424 541 L 417 548 L 415 552 L 406 561 L 401 564 Z M 236 522 L 229 528 L 226 535 L 217 542 L 219 545 L 220 549 L 210 558 L 211 560 L 211 566 L 207 573 L 207 579 L 205 582 L 204 592 L 202 597 L 201 612 L 200 613 L 200 616 L 216 624 L 219 626 L 225 632 L 225 633 L 223 635 L 218 635 L 198 627 L 174 627 L 163 633 L 161 635 L 160 638 L 161 641 L 164 642 L 164 641 L 170 635 L 175 635 L 178 638 L 179 641 L 179 648 L 181 649 L 184 649 L 192 643 L 199 642 L 202 645 L 202 650 L 201 653 L 197 658 L 197 661 L 198 663 L 202 666 L 208 668 L 226 668 L 227 669 L 230 669 L 235 671 L 240 671 L 241 672 L 260 672 L 264 668 L 269 657 L 269 646 L 268 645 L 269 631 L 270 630 L 271 622 L 278 607 L 280 605 L 279 590 L 285 585 L 287 585 L 290 583 L 292 583 L 294 581 L 296 581 L 303 575 L 303 571 L 297 562 L 297 558 L 299 554 L 298 552 L 280 542 L 265 529 L 262 528 L 258 524 L 254 522 Z M 372 515 L 371 516 L 368 515 L 366 516 L 358 528 L 356 533 L 356 537 L 358 539 L 360 539 L 370 528 L 370 526 L 373 520 L 373 516 Z M 405 522 L 394 518 L 388 511 L 385 511 L 383 513 L 383 517 L 382 518 L 383 526 L 382 527 L 382 533 L 381 534 L 381 538 L 379 544 L 377 546 L 375 544 L 374 541 L 370 541 L 368 543 L 360 543 L 358 545 L 357 549 L 355 552 L 356 553 L 360 553 L 366 549 L 370 549 L 373 547 L 375 547 L 377 549 L 377 555 L 378 556 L 380 554 L 380 552 L 384 546 L 384 544 L 389 535 L 391 533 L 395 532 L 396 530 L 401 525 L 404 524 Z M 408 502 L 407 505 L 408 506 L 408 510 L 410 512 L 410 514 L 414 521 L 414 530 L 412 534 L 412 537 L 413 537 L 417 531 L 417 526 L 419 522 L 422 519 L 425 521 L 425 518 L 424 516 L 421 515 L 422 514 L 420 512 L 416 503 L 413 501 Z M 422 497 L 421 498 L 423 502 L 425 503 L 428 500 L 426 498 Z M 121 123 L 121 125 L 123 125 L 126 127 L 130 132 L 131 131 L 130 128 L 126 124 Z M 439 46 L 431 45 L 430 46 L 423 47 L 417 50 L 409 57 L 407 61 L 407 64 L 404 68 L 398 67 L 396 65 L 393 65 L 389 63 L 385 63 L 379 61 L 360 61 L 359 62 L 355 62 L 353 60 L 353 57 L 355 54 L 354 52 L 350 53 L 342 61 L 339 61 L 331 55 L 325 53 L 324 55 L 326 59 L 326 62 L 323 65 L 307 65 L 301 71 L 294 72 L 282 78 L 276 84 L 274 84 L 266 74 L 257 70 L 245 70 L 231 77 L 224 86 L 222 92 L 222 95 L 221 96 L 221 105 L 223 111 L 231 120 L 236 122 L 239 122 L 242 125 L 242 128 L 240 131 L 240 133 L 238 135 L 232 148 L 232 151 L 234 154 L 234 157 L 222 170 L 222 172 L 226 172 L 228 171 L 231 174 L 231 176 L 224 189 L 224 192 L 226 192 L 228 190 L 230 190 L 232 192 L 230 203 L 228 207 L 228 213 L 230 214 L 234 211 L 237 213 L 236 227 L 238 233 L 240 235 L 244 231 L 246 231 L 248 233 L 248 238 L 257 245 L 265 254 L 274 257 L 284 264 L 288 268 L 290 272 L 290 275 L 288 277 L 273 269 L 271 270 L 271 272 L 267 276 L 263 276 L 259 272 L 253 260 L 249 255 L 248 255 L 248 258 L 243 262 L 239 257 L 236 251 L 236 249 L 233 246 L 232 247 L 232 250 L 230 252 L 226 249 L 224 246 L 223 241 L 217 230 L 215 233 L 215 237 L 211 240 L 203 231 L 195 215 L 193 215 L 191 218 L 189 218 L 184 214 L 182 210 L 158 182 L 158 177 L 160 174 L 161 167 L 162 166 L 162 147 L 160 143 L 156 139 L 152 139 L 150 140 L 150 141 L 155 141 L 160 148 L 160 158 L 157 165 L 150 171 L 145 170 L 140 165 L 139 157 L 141 154 L 142 150 L 140 151 L 135 145 L 135 148 L 133 151 L 133 153 L 130 156 L 123 156 L 117 152 L 113 153 L 110 150 L 105 138 L 93 127 L 88 127 L 85 130 L 85 134 L 89 130 L 92 130 L 97 133 L 103 140 L 107 147 L 107 150 L 108 151 L 108 155 L 106 159 L 103 162 L 96 162 L 93 161 L 93 162 L 90 164 L 78 153 L 72 150 L 68 150 L 64 155 L 64 158 L 65 158 L 66 155 L 70 152 L 74 153 L 87 164 L 90 170 L 90 174 L 89 176 L 83 181 L 79 181 L 74 178 L 70 181 L 64 180 L 60 182 L 59 184 L 59 191 L 62 197 L 68 205 L 75 212 L 87 222 L 93 225 L 98 230 L 104 245 L 105 246 L 108 246 L 127 267 L 127 268 L 139 279 L 150 287 L 153 288 L 165 296 L 171 299 L 189 304 L 192 308 L 189 311 L 185 313 L 186 315 L 199 314 L 204 319 L 206 319 L 209 321 L 223 321 L 225 324 L 222 327 L 214 331 L 218 334 L 231 336 L 233 334 L 235 328 L 239 323 L 239 318 L 242 312 L 245 309 L 249 309 L 251 311 L 250 314 L 247 316 L 245 319 L 246 327 L 244 330 L 243 336 L 242 337 L 243 344 L 237 357 L 238 358 L 247 352 L 255 352 L 257 354 L 257 357 L 254 362 L 230 384 L 229 388 L 232 388 L 234 390 L 235 393 L 231 398 L 230 401 L 223 409 L 222 412 L 229 411 L 231 413 L 231 416 L 220 433 L 219 437 L 217 440 L 218 441 L 224 437 L 228 440 L 228 443 L 226 446 L 226 448 L 224 451 L 221 460 L 221 466 L 222 466 L 229 459 L 232 461 L 232 464 L 231 465 L 231 468 L 228 477 L 228 484 L 229 485 L 232 481 L 234 481 L 236 483 L 236 497 L 237 500 L 242 504 L 244 503 L 250 507 L 257 509 L 259 511 L 264 513 L 269 518 L 272 518 L 277 522 L 278 522 L 278 515 L 276 513 L 275 497 L 278 489 L 281 488 L 282 489 L 282 497 L 281 498 L 280 508 L 281 509 L 281 513 L 283 516 L 283 518 L 287 524 L 287 527 L 289 533 L 292 536 L 295 536 L 298 540 L 301 541 L 306 545 L 312 547 L 315 547 L 316 548 L 319 548 L 320 549 L 322 549 L 327 543 L 331 542 L 338 536 L 346 531 L 353 524 L 355 520 L 365 510 L 368 508 L 373 508 L 382 500 L 384 500 L 386 502 L 389 502 L 390 503 L 396 503 L 399 502 L 401 500 L 401 495 L 398 496 L 391 496 L 390 497 L 384 497 L 379 492 L 373 491 L 370 494 L 369 496 L 369 500 L 367 502 L 366 502 L 364 500 L 363 497 L 360 495 L 355 501 L 352 502 L 350 504 L 348 502 L 348 497 L 357 487 L 357 481 L 353 478 L 345 479 L 337 484 L 334 484 L 331 481 L 331 475 L 334 473 L 340 467 L 340 466 L 338 464 L 335 464 L 331 468 L 329 466 L 330 464 L 330 451 L 322 446 L 319 446 L 315 444 L 308 444 L 292 437 L 286 433 L 277 423 L 272 420 L 267 415 L 263 405 L 262 371 L 264 366 L 274 357 L 275 348 L 280 341 L 285 337 L 294 333 L 299 333 L 300 332 L 323 332 L 333 327 L 338 327 L 339 326 L 344 326 L 345 325 L 371 324 L 372 323 L 376 324 L 383 317 L 386 316 L 389 317 L 391 319 L 391 324 L 392 325 L 397 325 L 402 327 L 406 327 L 410 331 L 408 334 L 404 334 L 403 335 L 351 339 L 350 340 L 337 342 L 324 347 L 314 347 L 313 346 L 300 345 L 299 346 L 295 346 L 289 351 L 288 353 L 289 355 L 295 355 L 297 356 L 300 359 L 300 361 L 296 365 L 285 370 L 283 370 L 277 374 L 275 378 L 276 381 L 286 381 L 287 380 L 291 380 L 293 382 L 293 386 L 291 389 L 279 397 L 277 400 L 277 403 L 280 407 L 286 407 L 292 403 L 296 403 L 298 402 L 302 405 L 302 409 L 300 411 L 300 414 L 302 416 L 310 420 L 314 420 L 323 424 L 331 424 L 335 422 L 342 421 L 347 418 L 353 416 L 355 417 L 360 416 L 365 413 L 367 413 L 369 415 L 369 417 L 371 418 L 378 411 L 381 409 L 383 409 L 385 407 L 387 407 L 389 409 L 389 412 L 388 415 L 386 417 L 386 420 L 393 415 L 397 413 L 400 413 L 402 411 L 404 411 L 408 408 L 410 408 L 412 406 L 420 402 L 422 404 L 422 406 L 416 411 L 416 412 L 418 412 L 423 408 L 424 404 L 426 402 L 432 402 L 433 404 L 431 405 L 431 406 L 432 406 L 433 404 L 435 404 L 448 393 L 449 393 L 453 398 L 455 397 L 460 387 L 462 379 L 465 376 L 467 376 L 469 378 L 472 378 L 475 375 L 478 375 L 479 374 L 479 368 L 478 367 L 478 364 L 474 352 L 474 345 L 477 343 L 477 338 L 476 337 L 475 330 L 471 322 L 464 313 L 464 311 L 458 304 L 460 301 L 462 301 L 468 304 L 468 302 L 452 287 L 450 283 L 453 281 L 453 280 L 450 278 L 445 277 L 439 274 L 434 270 L 430 270 L 429 269 L 426 270 L 417 269 L 410 275 L 408 275 L 406 273 L 406 268 L 408 264 L 408 261 L 409 258 L 412 255 L 414 255 L 416 257 L 417 260 L 419 258 L 423 248 L 427 251 L 429 250 L 432 245 L 431 240 L 433 238 L 436 240 L 438 244 L 437 249 L 439 249 L 445 241 L 445 239 L 447 237 L 448 234 L 448 231 L 445 226 L 445 224 L 443 221 L 438 217 L 438 215 L 441 214 L 446 216 L 448 218 L 450 218 L 450 211 L 448 209 L 448 206 L 449 205 L 452 205 L 457 210 L 458 210 L 459 208 L 457 201 L 452 197 L 454 194 L 458 195 L 458 192 L 452 185 L 452 183 L 454 181 L 459 184 L 464 182 L 470 187 L 471 189 L 471 195 L 474 193 L 477 196 L 479 197 L 480 196 L 477 187 L 473 182 L 473 178 L 472 176 L 475 173 L 477 173 L 481 175 L 482 173 L 467 155 L 467 153 L 471 150 L 478 150 L 478 149 L 470 143 L 467 142 L 463 138 L 464 130 L 460 122 L 458 120 L 456 114 L 446 102 L 449 98 L 454 96 L 462 87 L 462 85 L 464 82 L 464 70 L 463 69 L 463 66 L 459 59 L 451 51 Z M 328 529 L 329 530 L 329 534 L 326 538 L 322 538 L 320 535 L 326 529 Z M 298 525 L 300 527 L 300 531 L 296 534 L 295 533 L 295 529 Z M 313 518 L 314 519 L 314 524 L 310 528 L 308 528 L 306 526 L 306 524 L 310 518 Z M 342 508 L 344 510 L 344 513 L 343 515 L 337 520 L 336 519 L 336 515 L 339 510 Z M 261 478 L 263 480 L 263 495 L 260 497 L 258 495 L 256 488 L 257 487 L 257 483 Z M 255 453 L 256 454 L 255 464 L 253 469 L 250 470 L 248 467 L 250 457 Z M 253 436 L 254 439 L 252 443 L 243 454 L 241 452 L 241 449 L 243 446 L 243 444 L 250 436 Z M 253 420 L 254 421 L 253 426 L 251 428 L 250 431 L 247 434 L 244 435 L 243 434 L 244 428 L 251 420 Z M 256 294 L 258 297 L 246 307 L 244 305 L 246 299 L 251 293 Z M 260 279 L 261 280 L 259 283 L 260 288 L 258 290 L 254 291 L 252 289 L 252 285 Z M 389 267 L 388 271 L 377 282 L 359 297 L 348 302 L 341 302 L 324 293 L 315 287 L 310 282 L 307 276 L 310 272 L 315 272 L 316 273 L 320 273 L 325 275 L 345 275 L 346 274 L 352 274 L 353 273 L 357 273 L 358 272 L 369 270 L 383 265 L 387 265 Z M 403 264 L 404 266 L 401 271 L 400 275 L 398 276 L 396 274 L 396 271 L 398 268 Z M 443 228 L 446 231 L 446 236 L 445 238 L 440 242 L 437 239 L 437 234 L 436 232 L 439 229 Z M 145 181 L 145 187 L 140 197 L 135 202 L 121 211 L 113 215 L 110 215 L 107 217 L 98 217 L 92 214 L 85 206 L 84 198 L 83 198 L 80 202 L 77 203 L 74 203 L 68 200 L 65 197 L 62 190 L 62 186 L 65 182 L 73 182 L 79 185 L 82 188 L 84 192 L 84 195 L 85 195 L 85 192 L 87 189 L 87 187 L 94 175 L 107 163 L 112 161 L 116 161 L 117 160 L 126 161 L 134 166 L 142 174 Z M 373 152 L 378 147 L 386 143 L 390 143 L 391 142 L 407 143 L 417 147 L 423 153 L 424 155 L 424 161 L 423 164 L 418 169 L 416 169 L 410 172 L 395 172 L 394 171 L 387 170 L 378 165 L 374 161 L 373 158 Z M 331 135 L 331 137 L 329 139 L 324 139 L 320 137 L 305 137 L 304 138 L 298 138 L 296 136 L 302 131 L 308 129 L 315 129 L 316 128 L 318 129 L 322 129 L 328 132 Z M 278 122 L 283 123 L 286 126 L 288 130 L 288 137 L 284 145 L 297 144 L 298 143 L 308 144 L 314 146 L 321 150 L 324 153 L 324 156 L 325 157 L 324 163 L 315 173 L 309 177 L 301 180 L 288 180 L 285 178 L 283 178 L 281 177 L 273 169 L 272 166 L 271 166 L 269 171 L 269 179 L 271 183 L 278 189 L 281 190 L 290 189 L 296 184 L 301 184 L 310 187 L 316 187 L 317 188 L 328 189 L 329 188 L 333 188 L 334 187 L 340 186 L 348 182 L 355 176 L 357 171 L 360 168 L 364 169 L 368 173 L 370 179 L 370 190 L 371 191 L 371 201 L 370 202 L 369 217 L 366 226 L 364 229 L 364 231 L 357 243 L 341 255 L 335 257 L 325 257 L 322 255 L 315 253 L 309 249 L 298 238 L 286 221 L 286 219 L 283 215 L 281 209 L 280 201 L 278 199 L 276 199 L 267 194 L 262 188 L 259 180 L 259 172 L 258 172 L 254 178 L 245 183 L 238 182 L 233 177 L 233 170 L 235 166 L 239 161 L 247 156 L 250 155 L 256 155 L 259 156 L 263 160 L 270 160 L 271 159 L 271 156 L 273 153 L 273 151 L 268 145 L 268 138 L 269 137 L 270 130 L 273 126 Z M 362 117 L 366 118 L 372 124 L 374 129 L 374 137 L 373 138 L 373 141 L 370 146 L 366 149 L 360 149 L 358 148 L 352 139 L 352 130 L 353 129 L 353 126 L 355 122 L 359 118 Z M 293 88 L 293 93 L 291 95 L 284 98 L 277 103 L 273 103 L 271 101 L 270 97 L 273 92 L 278 87 L 284 84 L 289 84 Z M 254 83 L 258 85 L 263 91 L 263 93 L 255 103 L 250 112 L 246 115 L 243 115 L 241 114 L 234 106 L 233 103 L 233 97 L 237 89 L 241 85 L 245 83 Z M 357 80 L 358 78 L 362 75 L 369 75 L 375 77 L 382 83 L 383 85 L 383 89 L 380 92 L 375 92 L 373 90 L 360 86 L 357 83 Z M 433 59 L 437 59 L 443 62 L 448 67 L 452 75 L 452 82 L 450 86 L 442 93 L 438 93 L 436 92 L 425 81 L 421 79 L 417 75 L 418 70 L 424 63 Z" fill="#FBFBFB" fill-rule="evenodd"/><path d="M 157 644 L 158 647 L 159 647 L 161 644 L 164 646 L 166 641 L 171 636 L 174 636 L 177 639 L 177 648 L 175 650 L 174 655 L 176 658 L 178 658 L 187 648 L 196 643 L 199 643 L 201 645 L 201 650 L 201 645 L 199 643 L 192 644 L 184 650 L 179 649 L 178 648 L 178 641 L 177 638 L 175 636 L 170 636 L 164 643 L 162 643 L 160 641 L 159 637 L 160 635 L 165 631 L 159 636 L 159 639 Z M 176 626 L 198 626 L 214 633 L 217 633 L 218 634 L 223 634 L 224 632 L 216 625 L 201 618 L 199 616 L 199 614 L 199 616 L 201 618 L 217 626 L 222 631 L 222 633 L 221 634 L 214 633 L 209 630 L 207 630 L 198 626 Z M 485 568 L 482 570 L 480 574 L 481 577 L 485 572 Z M 328 530 L 326 530 L 321 536 L 322 537 L 326 537 L 328 534 Z M 298 526 L 296 529 L 296 533 L 299 531 L 299 527 Z M 313 519 L 310 519 L 309 520 L 309 522 L 307 524 L 308 527 L 310 527 L 313 524 Z M 341 509 L 337 515 L 337 519 L 342 515 L 343 513 L 343 510 Z M 261 479 L 258 483 L 258 487 L 257 488 L 260 496 L 262 495 L 262 480 Z M 255 454 L 251 457 L 250 463 L 249 464 L 250 469 L 252 469 L 253 467 L 254 461 L 255 460 Z M 532 449 L 532 463 L 531 464 L 531 467 L 529 473 L 521 486 L 511 495 L 508 500 L 509 502 L 514 503 L 518 505 L 510 501 L 510 498 L 512 495 L 521 487 L 530 471 L 530 468 L 532 463 Z M 253 437 L 250 437 L 244 444 L 244 446 L 242 449 L 242 452 L 243 453 L 251 443 Z M 253 421 L 251 421 L 245 428 L 244 434 L 247 433 L 249 431 L 253 424 Z M 230 399 L 220 410 L 220 413 L 221 414 L 224 414 L 228 412 L 230 414 L 230 416 L 219 433 L 216 440 L 217 442 L 219 442 L 221 440 L 225 439 L 227 441 L 226 445 L 227 440 L 225 438 L 218 442 L 216 440 L 218 437 L 219 433 L 230 416 L 230 413 L 229 412 L 226 413 L 222 413 L 221 412 L 222 409 Z M 491 393 L 489 391 L 487 392 L 486 397 L 482 405 L 473 415 L 458 423 L 451 424 L 445 428 L 441 428 L 437 430 L 418 430 L 411 433 L 406 433 L 401 435 L 391 436 L 385 438 L 376 438 L 375 439 L 358 440 L 357 441 L 338 441 L 332 444 L 316 444 L 315 443 L 305 442 L 299 439 L 308 443 L 315 443 L 319 445 L 322 445 L 328 448 L 331 451 L 331 464 L 330 466 L 331 467 L 335 463 L 338 463 L 341 466 L 341 467 L 332 475 L 332 481 L 334 483 L 337 483 L 339 481 L 343 480 L 345 478 L 348 477 L 353 477 L 358 481 L 358 487 L 349 497 L 349 502 L 350 503 L 352 501 L 355 500 L 360 494 L 361 494 L 364 497 L 365 500 L 367 501 L 368 500 L 368 496 L 369 494 L 373 490 L 379 491 L 384 496 L 398 495 L 399 494 L 402 495 L 402 500 L 399 503 L 396 504 L 390 504 L 389 503 L 386 503 L 384 501 L 382 501 L 373 509 L 368 509 L 365 511 L 346 532 L 338 537 L 331 543 L 327 544 L 322 550 L 308 547 L 301 542 L 298 541 L 295 537 L 292 537 L 288 533 L 286 527 L 286 524 L 282 518 L 282 516 L 280 513 L 280 509 L 279 508 L 280 498 L 281 497 L 281 489 L 279 489 L 276 497 L 277 513 L 279 515 L 279 522 L 278 523 L 275 522 L 272 519 L 269 519 L 264 514 L 259 512 L 257 510 L 250 508 L 244 504 L 242 505 L 237 501 L 235 497 L 235 483 L 232 482 L 229 486 L 227 484 L 227 477 L 228 476 L 231 461 L 229 460 L 222 467 L 220 466 L 220 460 L 223 452 L 220 460 L 220 467 L 221 468 L 228 461 L 230 463 L 230 467 L 227 476 L 226 486 L 228 488 L 232 483 L 235 485 L 235 498 L 237 502 L 242 507 L 244 506 L 248 507 L 260 513 L 269 521 L 274 522 L 278 526 L 282 528 L 291 538 L 300 543 L 310 551 L 308 553 L 306 553 L 299 550 L 296 547 L 294 547 L 288 544 L 284 540 L 282 540 L 280 538 L 277 537 L 270 530 L 266 527 L 261 525 L 255 520 L 243 521 L 240 519 L 238 519 L 229 525 L 226 528 L 226 533 L 221 538 L 215 540 L 213 542 L 217 547 L 217 550 L 205 560 L 206 562 L 208 562 L 210 564 L 207 571 L 205 573 L 205 581 L 206 579 L 206 573 L 210 566 L 210 560 L 209 558 L 219 549 L 218 545 L 216 542 L 220 538 L 223 537 L 225 535 L 228 528 L 236 521 L 254 521 L 258 523 L 262 527 L 265 528 L 280 541 L 298 551 L 300 554 L 298 558 L 298 562 L 304 571 L 304 575 L 296 582 L 294 582 L 292 584 L 285 586 L 280 590 L 281 605 L 279 607 L 272 622 L 271 630 L 270 631 L 270 637 L 269 638 L 270 657 L 265 668 L 260 673 L 241 673 L 240 672 L 235 672 L 226 669 L 208 669 L 202 667 L 199 665 L 196 661 L 196 658 L 200 652 L 196 658 L 195 663 L 198 666 L 207 670 L 216 673 L 220 673 L 221 674 L 224 674 L 233 677 L 238 677 L 243 679 L 257 680 L 258 681 L 275 681 L 278 679 L 280 679 L 284 674 L 286 663 L 288 659 L 288 649 L 293 639 L 298 635 L 299 633 L 297 629 L 297 623 L 298 620 L 303 614 L 303 611 L 302 610 L 303 607 L 305 606 L 307 603 L 309 603 L 312 600 L 315 600 L 317 597 L 319 597 L 321 595 L 324 589 L 324 587 L 326 585 L 331 585 L 330 582 L 328 582 L 323 579 L 321 580 L 319 578 L 320 577 L 319 570 L 321 568 L 327 568 L 336 571 L 339 573 L 346 574 L 348 576 L 352 576 L 357 578 L 363 578 L 364 579 L 375 579 L 381 575 L 380 573 L 380 564 L 383 561 L 385 561 L 390 557 L 401 555 L 410 545 L 412 547 L 412 550 L 409 556 L 404 560 L 401 561 L 395 567 L 394 573 L 393 574 L 393 579 L 392 580 L 392 591 L 397 602 L 400 606 L 411 617 L 422 626 L 427 625 L 434 631 L 443 634 L 448 634 L 449 635 L 453 632 L 456 633 L 457 632 L 461 632 L 462 631 L 469 630 L 472 628 L 475 628 L 483 624 L 485 622 L 487 622 L 494 616 L 501 612 L 513 599 L 517 592 L 522 587 L 527 587 L 529 589 L 529 591 L 526 597 L 526 599 L 524 601 L 524 603 L 519 609 L 519 612 L 520 613 L 535 613 L 536 614 L 543 614 L 545 616 L 550 616 L 551 615 L 559 614 L 562 612 L 562 611 L 554 611 L 553 610 L 550 610 L 547 608 L 545 605 L 549 600 L 552 599 L 562 599 L 565 597 L 564 587 L 562 584 L 562 581 L 559 576 L 557 569 L 554 565 L 554 563 L 551 557 L 546 550 L 545 546 L 539 539 L 537 535 L 530 527 L 527 526 L 520 521 L 510 520 L 505 524 L 499 537 L 499 553 L 500 554 L 499 556 L 499 562 L 493 574 L 490 577 L 481 581 L 477 581 L 475 579 L 472 579 L 471 578 L 472 571 L 475 568 L 478 562 L 481 543 L 483 540 L 486 531 L 485 530 L 480 530 L 478 528 L 478 523 L 486 513 L 487 509 L 496 490 L 497 484 L 498 483 L 497 468 L 499 466 L 505 466 L 504 459 L 503 458 L 503 454 L 498 440 L 498 437 L 500 435 L 503 434 L 500 427 L 498 425 L 498 423 L 488 408 L 490 405 L 496 407 L 498 406 Z M 348 542 L 344 546 L 336 550 L 334 552 L 332 552 L 330 550 L 334 545 L 338 543 L 340 543 L 343 541 L 347 541 Z M 395 569 L 401 563 L 406 560 L 424 540 L 428 538 L 438 539 L 441 537 L 447 537 L 452 542 L 452 545 L 458 553 L 458 556 L 461 562 L 462 562 L 466 567 L 467 575 L 468 576 L 467 581 L 474 587 L 476 587 L 478 585 L 483 584 L 486 582 L 493 583 L 495 585 L 495 593 L 489 601 L 479 609 L 472 612 L 470 614 L 463 614 L 461 616 L 458 617 L 447 618 L 446 619 L 433 617 L 432 616 L 430 617 L 421 616 L 419 614 L 417 614 L 411 611 L 408 608 L 406 608 L 397 600 L 394 594 L 394 590 L 393 589 L 393 578 L 394 577 Z M 434 525 L 435 526 L 435 530 L 432 532 L 431 529 Z M 434 518 L 436 517 L 438 521 L 436 522 L 434 520 Z M 372 514 L 374 516 L 374 520 L 371 526 L 371 528 L 360 540 L 358 540 L 355 537 L 355 533 L 357 528 L 366 515 L 368 514 L 371 515 Z M 448 511 L 449 512 L 449 516 L 445 521 L 443 519 L 443 517 L 446 512 Z M 406 522 L 405 524 L 401 526 L 395 533 L 390 535 L 385 544 L 385 546 L 381 552 L 381 554 L 378 557 L 376 555 L 376 549 L 375 548 L 373 548 L 370 550 L 366 550 L 360 554 L 356 554 L 354 552 L 356 549 L 357 545 L 360 542 L 368 542 L 370 540 L 374 540 L 376 542 L 376 544 L 377 545 L 378 544 L 380 538 L 380 534 L 381 533 L 381 527 L 382 526 L 382 522 L 381 521 L 382 513 L 385 510 L 388 510 L 394 517 L 398 518 L 401 520 L 404 520 Z M 413 500 L 417 503 L 421 512 L 423 514 L 422 515 L 424 515 L 426 518 L 426 521 L 424 522 L 423 520 L 420 522 L 418 526 L 418 531 L 416 535 L 413 538 L 411 537 L 411 534 L 413 530 L 413 521 L 409 514 L 409 512 L 407 510 L 407 506 L 406 505 L 406 503 L 408 501 Z M 420 498 L 422 496 L 424 496 L 429 500 L 424 504 Z M 480 369 L 480 374 L 478 376 L 475 376 L 472 379 L 469 379 L 467 377 L 465 377 L 463 379 L 459 392 L 455 398 L 453 399 L 451 396 L 448 394 L 435 405 L 433 405 L 432 403 L 426 403 L 424 408 L 418 413 L 416 413 L 415 411 L 421 406 L 421 404 L 419 403 L 410 409 L 408 409 L 400 414 L 397 414 L 393 416 L 386 421 L 385 420 L 385 417 L 387 415 L 388 412 L 388 409 L 387 408 L 385 408 L 383 410 L 381 410 L 378 412 L 371 419 L 368 417 L 367 414 L 365 414 L 360 417 L 357 417 L 356 418 L 353 417 L 347 419 L 342 422 L 335 423 L 331 425 L 323 425 L 314 421 L 310 421 L 302 417 L 299 414 L 299 411 L 301 409 L 301 405 L 298 403 L 296 404 L 292 404 L 286 408 L 280 408 L 276 403 L 276 400 L 278 397 L 285 392 L 280 395 L 276 399 L 276 403 L 277 405 L 280 408 L 285 409 L 293 404 L 299 404 L 301 406 L 301 408 L 294 418 L 294 422 L 301 426 L 304 426 L 305 427 L 324 427 L 325 426 L 329 426 L 330 425 L 337 424 L 341 422 L 345 422 L 351 419 L 357 419 L 361 417 L 363 419 L 360 424 L 361 425 L 373 418 L 379 412 L 386 408 L 387 409 L 387 414 L 382 422 L 383 423 L 389 421 L 399 414 L 402 414 L 404 412 L 410 409 L 412 409 L 413 411 L 409 417 L 410 418 L 417 413 L 427 408 L 436 405 L 446 397 L 448 399 L 448 401 L 444 408 L 441 411 L 442 412 L 446 412 L 454 405 L 458 397 L 461 387 L 465 381 L 467 382 L 467 385 L 468 386 L 468 398 L 469 399 L 475 388 L 477 380 L 479 378 L 480 375 Z M 471 385 L 473 388 L 471 391 L 469 389 L 469 386 Z M 478 339 L 478 343 L 475 345 L 475 352 L 479 364 L 479 367 L 478 360 L 475 352 L 475 348 L 476 347 L 479 347 Z M 243 331 L 241 336 L 242 344 L 236 357 L 236 359 L 238 361 L 238 365 L 236 369 L 237 372 L 235 374 L 233 380 L 229 384 L 226 389 L 227 390 L 231 389 L 233 391 L 233 395 L 231 397 L 233 395 L 234 392 L 232 389 L 229 389 L 228 388 L 229 384 L 237 376 L 245 370 L 253 362 L 256 357 L 256 354 L 255 353 L 247 353 L 238 359 L 236 357 L 242 344 L 241 337 Z M 253 354 L 255 357 L 244 369 L 239 372 L 238 369 L 241 366 L 241 362 L 240 360 L 245 356 L 247 356 L 250 354 Z M 249 310 L 245 310 L 243 312 L 240 318 L 240 323 L 236 328 L 234 333 L 236 328 L 242 322 L 245 323 L 244 319 L 245 317 L 249 314 L 250 312 Z M 248 311 L 249 313 L 243 319 L 241 317 L 243 313 L 245 311 Z M 257 296 L 251 294 L 247 299 L 245 305 L 247 306 L 251 301 L 254 300 Z M 260 280 L 253 285 L 253 289 L 254 290 L 256 290 L 259 288 L 258 283 Z M 451 278 L 454 280 L 454 281 L 451 283 L 453 287 L 469 302 L 468 305 L 466 304 L 469 306 L 471 306 L 469 302 L 453 287 L 452 284 L 454 282 L 456 282 L 456 281 Z M 388 267 L 387 266 L 383 266 L 369 271 L 366 271 L 357 274 L 353 274 L 352 275 L 346 275 L 345 276 L 325 276 L 324 275 L 316 274 L 315 273 L 310 273 L 308 276 L 311 282 L 315 286 L 324 292 L 341 301 L 348 301 L 359 296 L 377 281 L 387 271 Z M 386 269 L 377 279 L 368 285 L 361 292 L 347 300 L 339 299 L 324 291 L 318 287 L 309 277 L 311 274 L 316 274 L 324 277 L 347 277 L 348 276 L 353 276 L 358 274 L 363 274 L 367 272 L 374 271 L 378 269 L 381 269 L 383 267 Z M 403 265 L 402 265 L 397 271 L 397 274 L 399 275 Z M 232 246 L 233 245 L 237 249 L 237 251 L 243 261 L 247 258 L 247 255 L 249 254 L 254 260 L 260 272 L 263 275 L 267 275 L 270 272 L 270 270 L 272 268 L 276 269 L 278 271 L 280 271 L 287 276 L 289 275 L 289 272 L 287 268 L 284 265 L 274 258 L 265 255 L 257 246 L 248 239 L 250 242 L 252 242 L 261 251 L 270 265 L 270 272 L 267 275 L 263 275 L 260 272 L 256 263 L 249 253 L 247 253 L 247 257 L 246 259 L 243 260 L 240 257 L 234 245 Z M 273 262 L 276 261 L 282 265 L 288 272 L 286 274 L 277 267 Z M 443 229 L 441 229 L 437 232 L 438 234 L 438 239 L 440 241 L 441 241 L 445 236 L 445 231 Z M 286 218 L 287 221 L 295 233 L 309 248 L 315 252 L 317 252 L 325 256 L 335 256 L 341 254 L 354 245 L 358 240 L 352 246 L 343 252 L 333 256 L 327 256 L 318 253 L 309 248 L 295 233 Z M 61 180 L 58 183 L 57 188 L 62 199 L 73 212 L 97 230 L 99 238 L 106 253 L 108 255 L 111 262 L 114 265 L 119 273 L 133 287 L 141 293 L 149 297 L 152 300 L 152 303 L 150 305 L 144 305 L 143 306 L 148 310 L 156 314 L 171 319 L 175 323 L 175 325 L 173 327 L 170 327 L 168 329 L 169 330 L 179 334 L 182 334 L 186 336 L 190 336 L 196 338 L 199 341 L 196 345 L 197 347 L 212 349 L 216 352 L 215 356 L 223 358 L 225 355 L 225 350 L 227 345 L 229 343 L 229 340 L 233 335 L 231 337 L 222 336 L 216 334 L 213 331 L 215 329 L 222 326 L 224 323 L 223 322 L 209 322 L 206 320 L 204 320 L 199 315 L 186 316 L 184 313 L 191 308 L 189 305 L 171 300 L 158 293 L 139 280 L 126 268 L 126 267 L 108 247 L 105 247 L 103 245 L 97 230 L 93 226 L 87 223 L 75 213 L 63 200 L 58 191 L 58 184 L 60 181 L 63 180 Z M 209 327 L 209 325 L 213 323 L 218 323 L 220 325 L 214 329 L 211 329 Z M 193 318 L 195 316 L 198 317 L 197 320 L 194 320 Z M 175 305 L 178 303 L 181 305 L 186 305 L 189 308 L 187 310 L 182 311 Z M 362 169 L 360 169 L 358 171 L 356 176 L 348 183 L 337 188 L 325 190 L 337 188 L 348 183 L 356 176 L 358 171 L 360 169 L 362 169 L 368 176 L 368 180 L 369 181 L 369 210 L 368 211 L 368 215 L 365 223 L 365 226 L 359 238 L 363 231 L 363 229 L 365 226 L 368 217 L 369 202 L 370 201 L 369 179 L 367 173 Z M 144 181 L 141 174 L 134 167 L 126 162 L 117 161 L 116 162 L 112 162 L 107 164 L 95 175 L 88 187 L 85 196 L 83 195 L 83 192 L 81 188 L 73 183 L 65 183 L 63 186 L 63 190 L 66 197 L 68 199 L 74 202 L 77 202 L 80 201 L 81 199 L 84 197 L 85 198 L 86 206 L 92 213 L 98 216 L 107 216 L 110 214 L 113 214 L 121 210 L 135 201 L 139 197 L 144 187 Z M 67 183 L 75 184 L 82 190 L 83 195 L 82 198 L 79 201 L 72 201 L 66 196 L 63 187 Z M 136 169 L 141 175 L 143 179 L 144 185 L 143 186 L 143 190 L 142 192 L 133 202 L 122 209 L 109 215 L 97 215 L 93 213 L 87 207 L 85 202 L 85 197 L 86 196 L 87 190 L 94 177 L 103 167 L 113 162 L 125 162 Z M 268 161 L 270 163 L 269 170 L 270 166 L 272 165 L 274 169 L 281 176 L 285 177 L 288 179 L 301 179 L 302 178 L 305 178 L 315 172 L 323 163 L 323 161 L 323 163 L 321 166 L 316 171 L 305 178 L 302 178 L 301 179 L 288 179 L 280 175 L 275 170 L 272 165 L 271 160 Z M 265 161 L 263 161 L 259 157 L 256 156 L 250 156 L 243 159 L 239 162 L 234 170 L 234 177 L 238 181 L 245 182 L 254 177 L 257 172 L 259 171 L 260 172 L 260 180 L 260 170 L 261 169 L 261 165 L 262 163 Z M 257 157 L 261 162 L 259 164 L 258 169 L 256 172 L 246 181 L 240 181 L 238 180 L 234 175 L 234 172 L 236 167 L 242 161 L 249 157 Z M 232 146 L 231 151 L 233 154 L 233 157 L 220 171 L 221 174 L 228 173 L 230 175 L 223 189 L 223 193 L 225 194 L 227 192 L 230 192 L 231 195 L 231 192 L 230 191 L 228 191 L 226 193 L 223 192 L 223 189 L 230 176 L 230 174 L 228 172 L 226 173 L 222 173 L 221 170 L 233 157 L 233 154 L 231 151 Z M 374 152 L 374 158 L 375 161 L 378 164 L 387 169 L 390 169 L 395 171 L 410 171 L 416 168 L 418 168 L 422 164 L 423 161 L 423 155 L 422 153 L 417 148 L 407 144 L 402 144 L 401 143 L 391 143 L 390 144 L 386 144 L 381 146 Z M 374 153 L 379 148 L 385 145 L 388 145 L 389 144 L 405 144 L 416 148 L 422 154 L 423 156 L 423 161 L 418 167 L 411 170 L 407 170 L 406 171 L 394 170 L 393 169 L 389 169 L 379 164 L 374 158 Z M 157 139 L 161 143 L 163 147 L 163 166 L 162 167 L 161 174 L 159 177 L 159 182 L 166 189 L 170 195 L 183 210 L 186 215 L 189 217 L 191 217 L 193 214 L 195 214 L 197 216 L 200 222 L 200 224 L 206 234 L 212 239 L 214 237 L 214 234 L 214 237 L 211 238 L 206 233 L 202 227 L 196 214 L 193 213 L 193 214 L 189 217 L 183 211 L 181 207 L 168 191 L 159 182 L 159 177 L 161 174 L 162 167 L 163 166 L 164 151 L 160 141 Z M 330 137 L 330 135 L 328 133 L 322 130 L 318 130 L 317 129 L 315 130 L 308 130 L 302 132 L 297 136 L 298 137 L 304 137 L 305 136 L 320 136 L 324 138 L 329 138 Z M 305 133 L 308 132 L 309 134 L 306 135 Z M 312 132 L 313 131 L 318 131 L 319 132 L 323 132 L 327 135 L 326 136 L 323 136 L 319 134 L 313 134 Z M 155 138 L 150 139 L 145 145 L 140 149 L 137 146 L 133 132 L 129 125 L 124 122 L 120 122 L 117 126 L 118 127 L 124 127 L 127 130 L 132 139 L 132 142 L 133 143 L 133 149 L 132 152 L 129 155 L 125 155 L 122 154 L 117 149 L 115 151 L 113 151 L 111 149 L 104 135 L 97 128 L 93 126 L 88 126 L 84 130 L 83 133 L 83 141 L 84 141 L 86 135 L 89 132 L 93 132 L 101 140 L 105 146 L 106 149 L 106 156 L 105 158 L 101 161 L 96 161 L 92 158 L 92 160 L 89 162 L 77 151 L 72 149 L 68 149 L 66 150 L 63 155 L 63 161 L 65 162 L 66 158 L 70 154 L 74 155 L 86 165 L 89 171 L 88 175 L 82 180 L 77 179 L 72 175 L 72 178 L 70 180 L 68 180 L 70 180 L 74 177 L 79 180 L 83 180 L 85 179 L 89 174 L 89 170 L 86 164 L 74 154 L 70 153 L 67 155 L 65 159 L 63 158 L 64 153 L 68 149 L 72 149 L 78 152 L 90 163 L 91 163 L 93 160 L 96 161 L 103 161 L 107 155 L 106 147 L 102 140 L 97 134 L 92 131 L 89 131 L 85 135 L 84 134 L 84 130 L 88 126 L 93 126 L 95 127 L 106 138 L 108 144 L 113 152 L 117 151 L 123 155 L 130 155 L 132 153 L 135 144 L 140 150 L 142 149 L 143 151 L 140 157 L 140 162 L 141 165 L 147 170 L 152 169 L 156 165 L 159 158 L 159 148 L 155 142 L 150 142 L 149 141 L 150 139 Z M 154 143 L 159 149 L 159 157 L 156 164 L 150 170 L 147 170 L 141 164 L 140 159 L 143 152 L 147 146 L 150 143 Z M 120 123 L 121 122 L 126 123 L 131 128 L 132 131 L 130 133 L 126 128 L 123 126 L 121 126 Z M 292 88 L 289 85 L 284 85 L 278 88 L 272 95 L 271 99 L 272 95 L 282 86 L 289 85 L 292 88 L 292 92 L 289 95 L 282 98 L 277 102 L 273 102 L 272 101 L 273 102 L 277 102 L 284 97 L 292 93 Z M 254 84 L 245 84 L 241 86 L 235 94 L 234 97 L 234 103 L 236 108 L 243 114 L 246 114 L 249 112 L 254 103 L 262 93 L 262 91 L 260 88 Z M 252 85 L 256 87 L 260 91 L 260 93 L 254 101 L 249 110 L 246 113 L 243 113 L 235 104 L 235 96 L 238 91 L 245 85 Z M 464 83 L 463 87 L 461 90 L 454 97 L 449 99 L 447 102 L 457 114 L 459 120 L 461 122 L 465 130 L 464 138 L 479 149 L 478 151 L 471 151 L 469 152 L 468 155 L 483 173 L 481 176 L 477 174 L 475 174 L 473 176 L 474 178 L 474 182 L 478 187 L 481 196 L 479 198 L 474 194 L 471 196 L 470 195 L 470 189 L 469 187 L 464 183 L 460 185 L 454 182 L 453 183 L 453 185 L 459 192 L 459 195 L 458 196 L 454 195 L 453 197 L 458 201 L 460 208 L 459 210 L 457 211 L 452 206 L 449 206 L 449 209 L 451 211 L 451 218 L 450 219 L 448 219 L 444 216 L 439 215 L 439 217 L 442 219 L 446 224 L 446 226 L 449 231 L 448 237 L 439 250 L 436 249 L 437 244 L 435 240 L 433 239 L 432 240 L 433 245 L 430 250 L 427 252 L 423 249 L 422 254 L 420 258 L 417 261 L 415 259 L 415 257 L 412 256 L 410 258 L 409 264 L 407 268 L 407 273 L 408 274 L 412 273 L 417 268 L 420 268 L 421 269 L 429 268 L 430 269 L 434 269 L 439 273 L 449 277 L 439 273 L 437 271 L 439 267 L 431 266 L 423 269 L 420 266 L 426 261 L 433 253 L 436 253 L 437 255 L 435 257 L 438 258 L 443 255 L 446 251 L 450 250 L 458 243 L 462 236 L 462 234 L 465 228 L 465 220 L 468 216 L 472 220 L 474 216 L 474 211 L 473 210 L 473 198 L 475 196 L 480 199 L 482 198 L 481 193 L 474 180 L 474 176 L 477 174 L 482 177 L 483 176 L 483 172 L 476 163 L 469 156 L 469 153 L 471 151 L 479 152 L 480 150 L 475 145 L 469 142 L 464 137 L 464 136 L 467 134 L 467 132 L 463 127 L 456 112 L 448 102 L 450 99 L 453 98 L 458 94 L 462 89 Z M 453 234 L 454 235 L 454 238 L 452 242 L 448 245 L 446 243 L 448 241 L 450 236 Z M 469 212 L 472 211 L 473 214 L 471 215 Z M 424 64 L 419 70 L 418 75 L 421 78 L 425 80 L 436 91 L 438 92 L 442 92 L 444 91 L 449 86 L 451 82 L 451 75 L 447 67 L 443 63 L 437 60 L 433 60 Z M 427 63 L 433 61 L 437 61 L 442 64 L 450 73 L 450 76 L 451 77 L 450 82 L 448 85 L 441 91 L 438 91 L 429 82 L 424 78 L 422 78 L 419 75 L 420 70 Z M 465 80 L 465 70 L 464 69 L 464 66 L 461 60 L 457 55 L 451 50 L 443 46 L 435 45 L 434 44 L 426 45 L 415 50 L 408 57 L 406 61 L 406 64 L 403 67 L 393 63 L 385 62 L 380 60 L 358 60 L 356 61 L 354 59 L 354 57 L 356 54 L 356 50 L 353 50 L 341 60 L 329 53 L 323 52 L 322 54 L 325 59 L 325 61 L 322 64 L 304 64 L 303 67 L 300 70 L 294 71 L 282 77 L 276 82 L 273 82 L 270 77 L 263 71 L 261 71 L 258 69 L 246 69 L 257 69 L 266 73 L 270 77 L 271 80 L 274 83 L 276 83 L 282 77 L 294 71 L 301 70 L 307 64 L 323 64 L 325 62 L 325 59 L 323 55 L 325 52 L 331 54 L 339 60 L 342 60 L 352 51 L 354 51 L 356 53 L 354 57 L 354 60 L 355 61 L 359 61 L 360 60 L 379 60 L 380 61 L 389 62 L 393 64 L 396 64 L 398 66 L 404 67 L 406 64 L 406 61 L 408 57 L 414 51 L 423 46 L 434 44 L 435 45 L 443 46 L 451 50 L 460 59 L 464 66 L 464 69 L 465 70 Z" fill="#D8D8D8" fill-rule="evenodd"/><path d="M 146 634 L 143 641 L 143 649 L 144 650 L 144 653 L 148 660 L 153 666 L 167 676 L 193 688 L 196 688 L 201 690 L 205 690 L 206 691 L 210 691 L 211 692 L 227 693 L 228 694 L 261 694 L 228 694 L 227 693 L 211 692 L 210 691 L 201 690 L 200 689 L 197 689 L 191 687 L 173 679 L 171 677 L 164 674 L 158 670 L 149 661 L 144 652 L 144 648 L 143 647 L 144 639 L 150 629 L 157 623 L 166 620 L 169 618 L 172 618 L 169 618 L 163 621 L 158 622 L 155 624 Z M 194 575 L 192 581 L 192 584 L 191 585 L 190 595 L 189 596 L 188 613 L 184 616 L 179 616 L 184 616 L 188 614 L 189 611 L 190 591 L 191 590 L 191 586 L 192 585 Z M 448 512 L 447 512 L 444 517 L 445 520 L 448 516 Z M 515 441 L 513 443 L 513 449 L 516 458 L 516 466 L 517 466 L 519 460 L 519 446 L 517 442 Z M 253 355 L 250 355 L 247 357 L 245 357 L 241 360 L 242 362 L 242 366 L 239 369 L 239 371 L 244 368 L 254 357 Z M 489 339 L 489 349 L 490 350 L 493 365 L 498 376 L 498 379 L 499 380 L 499 388 L 503 393 L 508 403 L 508 406 L 509 407 L 509 412 L 507 417 L 510 422 L 515 424 L 521 430 L 527 439 L 531 449 L 531 461 L 530 462 L 529 469 L 524 479 L 519 486 L 509 495 L 507 498 L 506 503 L 507 504 L 511 504 L 523 508 L 533 514 L 546 526 L 556 540 L 561 550 L 563 552 L 574 574 L 574 576 L 577 582 L 578 592 L 579 593 L 579 600 L 575 612 L 565 621 L 547 629 L 527 629 L 526 628 L 520 627 L 515 624 L 513 624 L 509 620 L 507 620 L 494 630 L 472 641 L 469 644 L 463 646 L 445 646 L 440 644 L 435 644 L 434 643 L 428 642 L 418 637 L 408 630 L 402 624 L 401 624 L 384 606 L 380 598 L 380 593 L 377 591 L 371 591 L 370 590 L 360 590 L 359 589 L 354 589 L 350 587 L 345 587 L 337 597 L 329 605 L 325 611 L 316 619 L 312 636 L 307 646 L 301 652 L 300 655 L 299 670 L 294 682 L 285 690 L 279 691 L 278 692 L 274 692 L 273 693 L 263 693 L 280 692 L 289 688 L 294 683 L 297 677 L 299 671 L 299 668 L 300 667 L 300 658 L 301 657 L 301 654 L 308 645 L 310 639 L 313 634 L 314 627 L 315 626 L 315 621 L 325 612 L 326 609 L 346 587 L 352 589 L 356 589 L 357 590 L 365 590 L 366 591 L 375 591 L 377 592 L 380 596 L 381 602 L 383 604 L 384 607 L 389 613 L 405 628 L 414 635 L 427 642 L 433 644 L 441 645 L 442 646 L 464 646 L 467 645 L 473 641 L 488 634 L 493 630 L 498 628 L 507 620 L 510 621 L 513 624 L 526 629 L 547 629 L 548 628 L 551 628 L 560 623 L 562 623 L 570 618 L 576 611 L 578 606 L 578 602 L 579 601 L 579 591 L 578 590 L 577 581 L 572 571 L 572 569 L 556 539 L 546 525 L 533 513 L 522 507 L 517 506 L 514 504 L 511 504 L 507 501 L 510 495 L 520 486 L 528 473 L 530 467 L 530 464 L 531 463 L 531 448 L 528 440 L 520 428 L 508 419 L 509 406 L 508 405 L 508 402 L 499 386 L 499 378 L 494 367 L 491 353 L 490 352 L 490 349 L 489 348 Z M 210 327 L 211 328 L 214 328 L 219 325 L 218 324 L 213 324 L 210 325 Z M 248 312 L 245 312 L 242 317 L 243 318 Z M 176 305 L 182 310 L 188 308 L 186 306 L 181 306 L 178 304 Z M 385 269 L 383 268 L 381 270 L 378 270 L 374 272 L 367 273 L 363 275 L 358 275 L 353 277 L 348 277 L 347 278 L 324 278 L 316 275 L 311 275 L 310 277 L 318 286 L 324 290 L 339 298 L 347 299 L 361 291 L 368 284 L 377 278 Z M 274 262 L 274 263 L 286 273 L 287 272 L 282 266 L 276 262 Z M 453 235 L 451 236 L 449 241 L 447 243 L 448 244 L 451 242 L 453 238 Z M 67 184 L 64 187 L 67 196 L 72 200 L 79 200 L 81 198 L 82 195 L 81 190 L 75 185 Z M 136 170 L 125 163 L 113 163 L 103 168 L 95 177 L 88 190 L 87 196 L 86 197 L 86 202 L 88 207 L 93 212 L 97 214 L 109 214 L 122 208 L 133 201 L 141 192 L 142 190 L 142 186 L 143 185 L 142 179 Z M 263 163 L 262 165 L 262 169 L 261 170 L 261 181 L 264 188 L 270 194 L 276 197 L 278 197 L 282 200 L 283 209 L 286 215 L 286 217 L 288 219 L 290 224 L 296 233 L 309 247 L 318 252 L 327 255 L 333 255 L 343 251 L 352 245 L 358 239 L 364 226 L 364 223 L 366 219 L 367 211 L 368 210 L 368 181 L 367 180 L 367 176 L 362 170 L 359 171 L 357 176 L 351 182 L 337 189 L 325 191 L 324 190 L 316 190 L 311 188 L 306 188 L 305 187 L 297 186 L 290 191 L 287 192 L 281 192 L 276 190 L 269 183 L 267 177 L 269 163 L 267 161 Z M 263 164 L 265 162 L 267 162 L 269 164 L 268 166 L 268 170 L 267 171 L 268 182 L 275 190 L 280 192 L 288 192 L 296 187 L 303 187 L 304 188 L 308 188 L 309 189 L 313 189 L 319 191 L 330 191 L 331 190 L 338 189 L 352 182 L 356 178 L 358 174 L 362 171 L 365 174 L 367 179 L 367 186 L 368 187 L 368 205 L 367 206 L 367 212 L 366 213 L 364 224 L 358 238 L 353 243 L 351 241 L 357 229 L 357 226 L 359 222 L 359 218 L 357 214 L 350 208 L 340 206 L 339 207 L 332 208 L 320 215 L 313 222 L 310 228 L 310 235 L 313 241 L 320 248 L 320 249 L 317 251 L 309 246 L 296 232 L 290 223 L 285 213 L 283 207 L 282 199 L 268 192 L 264 187 L 261 180 L 261 172 L 262 171 Z M 257 158 L 249 158 L 242 162 L 236 169 L 235 172 L 236 177 L 240 180 L 246 180 L 249 178 L 255 172 L 257 169 L 258 164 L 260 162 Z M 251 165 L 254 164 L 255 166 L 252 167 Z M 375 153 L 375 158 L 379 163 L 384 166 L 386 166 L 389 168 L 393 168 L 394 169 L 400 169 L 401 170 L 411 169 L 418 166 L 422 161 L 422 156 L 416 149 L 405 145 L 389 145 L 388 146 L 385 146 L 379 149 Z M 154 144 L 150 144 L 144 152 L 141 159 L 142 164 L 147 169 L 150 169 L 155 164 L 158 157 L 158 149 Z M 313 132 L 313 133 L 319 133 L 323 135 L 326 135 L 323 133 Z M 276 125 L 272 130 L 271 136 L 270 137 L 270 145 L 273 149 L 276 150 L 272 158 L 272 162 L 276 170 L 280 174 L 288 178 L 301 178 L 302 177 L 305 177 L 316 170 L 322 163 L 323 160 L 323 156 L 322 154 L 319 151 L 311 147 L 305 146 L 304 145 L 294 145 L 293 146 L 289 146 L 288 147 L 281 148 L 280 147 L 283 144 L 286 138 L 286 131 L 284 126 L 282 124 L 278 124 Z M 272 158 L 274 154 L 277 151 L 292 146 L 307 146 L 318 151 L 323 157 L 321 164 L 315 170 L 305 176 L 298 177 L 297 178 L 287 177 L 281 174 L 275 168 L 272 161 Z M 281 124 L 285 128 L 286 136 L 283 143 L 278 148 L 275 149 L 273 148 L 270 144 L 270 138 L 271 137 L 272 131 L 277 125 Z M 361 119 L 357 122 L 354 129 L 354 139 L 355 142 L 360 147 L 366 147 L 370 143 L 372 138 L 372 128 L 370 124 L 366 120 Z M 362 119 L 366 120 L 369 123 L 372 129 L 372 137 L 370 142 L 364 147 L 360 146 L 355 141 L 354 138 L 354 130 L 357 123 Z M 291 88 L 289 86 L 282 87 L 273 95 L 272 100 L 273 101 L 277 101 L 282 97 L 289 94 L 291 92 Z M 291 89 L 291 91 L 288 94 L 281 97 L 278 100 L 274 101 L 272 99 L 273 96 L 280 89 L 284 87 L 289 87 Z M 252 86 L 245 86 L 239 91 L 236 96 L 236 104 L 243 112 L 246 112 L 248 110 L 253 101 L 259 93 L 259 91 L 256 88 Z M 359 80 L 359 83 L 360 84 L 368 86 L 375 90 L 380 90 L 381 89 L 381 85 L 380 83 L 375 79 L 373 79 L 370 77 L 362 77 Z M 359 81 L 363 77 L 368 77 L 376 80 L 380 84 L 381 88 L 379 90 L 376 90 L 369 86 L 361 84 Z M 427 64 L 421 70 L 420 75 L 429 81 L 438 90 L 441 90 L 444 88 L 449 82 L 450 79 L 449 73 L 442 65 L 437 62 L 433 62 Z M 449 47 L 437 43 L 428 43 L 427 44 L 424 44 L 414 49 L 407 56 L 405 62 L 402 65 L 398 64 L 395 62 L 392 62 L 383 59 L 378 59 L 377 58 L 362 58 L 361 59 L 358 59 L 356 57 L 358 52 L 358 49 L 357 48 L 352 49 L 342 58 L 339 58 L 336 55 L 326 50 L 322 50 L 321 51 L 321 55 L 323 58 L 323 60 L 321 62 L 306 62 L 303 63 L 302 66 L 299 69 L 293 70 L 281 76 L 276 80 L 274 80 L 266 71 L 256 67 L 250 67 L 249 68 L 241 69 L 233 73 L 227 78 L 221 88 L 220 94 L 219 95 L 219 105 L 220 106 L 220 109 L 224 116 L 229 121 L 232 123 L 237 124 L 240 128 L 230 147 L 230 152 L 232 156 L 219 170 L 219 175 L 220 176 L 222 176 L 225 174 L 228 176 L 222 188 L 221 193 L 223 196 L 227 194 L 229 196 L 228 203 L 226 207 L 226 215 L 228 217 L 231 216 L 234 217 L 234 229 L 236 234 L 240 238 L 242 238 L 244 236 L 248 242 L 252 244 L 259 251 L 269 266 L 269 271 L 266 274 L 260 269 L 255 258 L 248 250 L 246 252 L 246 256 L 243 258 L 241 256 L 235 244 L 232 243 L 229 247 L 226 244 L 222 235 L 222 233 L 217 227 L 214 229 L 213 234 L 211 236 L 205 229 L 197 213 L 193 210 L 192 213 L 189 215 L 177 201 L 170 191 L 160 181 L 160 178 L 162 175 L 163 169 L 164 168 L 165 149 L 162 142 L 158 138 L 156 137 L 151 137 L 149 138 L 141 147 L 140 147 L 138 145 L 137 139 L 132 127 L 125 121 L 119 121 L 115 126 L 115 129 L 114 130 L 114 146 L 112 147 L 105 134 L 98 127 L 94 125 L 87 125 L 84 128 L 82 132 L 82 143 L 86 152 L 89 156 L 89 158 L 88 159 L 81 152 L 73 148 L 67 148 L 63 152 L 62 155 L 62 162 L 64 167 L 70 175 L 70 177 L 69 178 L 64 178 L 59 180 L 56 185 L 56 190 L 60 198 L 64 204 L 73 214 L 96 231 L 97 237 L 107 258 L 118 274 L 128 285 L 129 285 L 135 291 L 145 297 L 149 301 L 148 304 L 145 303 L 142 303 L 141 304 L 141 306 L 144 309 L 154 315 L 169 320 L 172 323 L 172 325 L 166 327 L 166 329 L 168 331 L 174 334 L 177 334 L 184 337 L 194 339 L 196 341 L 193 345 L 194 348 L 211 351 L 213 353 L 212 355 L 213 357 L 222 360 L 224 360 L 226 358 L 226 354 L 227 353 L 228 347 L 230 345 L 230 343 L 234 337 L 236 330 L 242 324 L 244 325 L 244 327 L 242 330 L 239 339 L 240 346 L 235 356 L 236 366 L 234 369 L 234 374 L 232 379 L 225 388 L 225 392 L 230 391 L 232 394 L 228 400 L 220 408 L 218 412 L 219 415 L 225 415 L 227 414 L 228 417 L 218 432 L 215 438 L 215 443 L 218 444 L 222 441 L 225 442 L 224 447 L 222 450 L 219 459 L 218 467 L 220 470 L 226 465 L 228 467 L 227 473 L 226 474 L 226 479 L 225 480 L 225 488 L 226 490 L 228 491 L 231 488 L 233 490 L 233 495 L 236 503 L 241 508 L 245 508 L 250 510 L 257 515 L 258 517 L 257 518 L 248 518 L 247 519 L 237 517 L 224 528 L 224 533 L 220 537 L 214 539 L 211 542 L 211 545 L 214 548 L 214 550 L 203 561 L 207 566 L 204 572 L 203 587 L 201 592 L 198 617 L 200 619 L 216 627 L 218 630 L 217 631 L 214 631 L 208 629 L 203 626 L 193 625 L 192 624 L 186 624 L 185 625 L 175 625 L 174 626 L 171 626 L 169 628 L 167 628 L 161 632 L 157 638 L 156 649 L 162 657 L 169 663 L 180 663 L 181 662 L 185 662 L 186 661 L 183 658 L 185 653 L 190 648 L 193 647 L 195 645 L 198 645 L 200 647 L 200 650 L 196 657 L 193 660 L 192 664 L 202 670 L 217 675 L 222 675 L 226 677 L 230 677 L 234 679 L 238 679 L 244 681 L 249 681 L 250 682 L 266 682 L 267 683 L 271 683 L 272 682 L 277 682 L 280 680 L 282 680 L 285 677 L 288 669 L 289 660 L 290 659 L 290 649 L 291 646 L 299 639 L 303 629 L 305 609 L 307 607 L 313 607 L 318 602 L 320 598 L 335 585 L 334 582 L 327 579 L 324 576 L 323 574 L 323 571 L 324 570 L 331 571 L 338 575 L 347 578 L 357 579 L 358 580 L 365 580 L 366 581 L 374 581 L 375 580 L 381 579 L 385 575 L 388 569 L 391 568 L 392 569 L 392 573 L 391 574 L 391 581 L 390 582 L 390 592 L 393 599 L 397 605 L 421 628 L 430 632 L 439 635 L 442 635 L 443 636 L 447 636 L 448 637 L 454 637 L 459 634 L 462 634 L 469 631 L 472 631 L 490 622 L 496 617 L 500 615 L 509 606 L 518 594 L 523 590 L 525 592 L 525 595 L 521 604 L 518 607 L 517 610 L 517 613 L 519 615 L 534 620 L 545 620 L 547 618 L 560 615 L 565 611 L 564 609 L 554 609 L 551 608 L 549 606 L 549 604 L 553 601 L 563 600 L 565 599 L 567 596 L 566 588 L 564 585 L 564 582 L 559 572 L 559 570 L 547 547 L 540 536 L 531 526 L 526 522 L 517 518 L 509 518 L 507 519 L 501 526 L 497 537 L 497 557 L 498 558 L 498 561 L 494 569 L 489 573 L 487 571 L 487 566 L 488 565 L 487 562 L 478 572 L 476 570 L 480 561 L 481 552 L 483 547 L 483 543 L 487 534 L 487 528 L 482 528 L 480 525 L 481 522 L 487 515 L 493 502 L 495 495 L 498 490 L 498 487 L 500 482 L 499 470 L 501 468 L 503 469 L 506 468 L 506 459 L 505 458 L 505 455 L 501 443 L 501 440 L 504 437 L 504 432 L 496 416 L 491 410 L 493 408 L 499 409 L 500 406 L 489 388 L 486 390 L 486 392 L 480 405 L 472 414 L 461 420 L 452 422 L 446 426 L 433 427 L 432 428 L 420 428 L 419 429 L 415 429 L 411 431 L 403 432 L 402 433 L 396 433 L 395 434 L 390 434 L 385 436 L 377 436 L 376 437 L 369 437 L 368 438 L 359 438 L 358 439 L 344 439 L 343 438 L 338 438 L 337 439 L 328 440 L 326 442 L 312 442 L 311 441 L 308 441 L 307 440 L 304 440 L 298 438 L 286 431 L 282 426 L 268 413 L 265 404 L 265 388 L 264 387 L 264 382 L 263 381 L 264 379 L 264 371 L 266 369 L 267 366 L 276 358 L 276 352 L 277 349 L 283 341 L 292 336 L 300 335 L 301 334 L 315 334 L 320 336 L 332 330 L 339 329 L 340 328 L 344 328 L 345 327 L 377 326 L 383 319 L 386 318 L 389 320 L 389 326 L 402 328 L 404 329 L 405 331 L 402 333 L 395 333 L 394 334 L 383 334 L 382 335 L 375 335 L 374 336 L 362 336 L 361 337 L 347 338 L 346 339 L 342 339 L 341 340 L 334 341 L 325 345 L 315 345 L 314 344 L 305 344 L 302 343 L 301 344 L 296 344 L 288 349 L 286 355 L 287 356 L 294 357 L 297 360 L 293 364 L 284 368 L 282 368 L 277 371 L 273 377 L 273 381 L 275 384 L 286 383 L 287 382 L 290 384 L 289 387 L 285 391 L 282 392 L 275 397 L 275 404 L 280 410 L 286 410 L 293 406 L 296 406 L 298 408 L 297 411 L 292 418 L 292 423 L 294 425 L 304 429 L 316 430 L 317 429 L 324 429 L 332 426 L 337 426 L 341 424 L 354 423 L 356 422 L 357 423 L 357 427 L 361 427 L 367 424 L 370 421 L 374 419 L 380 413 L 384 411 L 385 412 L 385 415 L 380 423 L 381 425 L 383 425 L 394 420 L 398 417 L 400 417 L 407 412 L 409 413 L 409 415 L 407 419 L 409 420 L 418 414 L 428 409 L 436 407 L 440 404 L 442 404 L 443 406 L 434 415 L 435 416 L 438 416 L 439 415 L 445 414 L 450 411 L 455 406 L 462 391 L 464 389 L 466 390 L 467 401 L 468 402 L 472 398 L 481 377 L 481 367 L 477 355 L 477 353 L 480 351 L 480 343 L 479 342 L 479 338 L 478 337 L 478 334 L 476 328 L 469 315 L 462 306 L 464 304 L 472 309 L 474 308 L 468 299 L 455 287 L 457 284 L 460 283 L 456 279 L 442 273 L 441 270 L 445 268 L 444 267 L 435 264 L 435 262 L 437 260 L 442 258 L 448 253 L 452 251 L 459 244 L 464 235 L 466 229 L 467 220 L 469 219 L 472 222 L 474 221 L 475 218 L 475 203 L 474 200 L 476 198 L 480 201 L 483 200 L 483 195 L 476 180 L 476 177 L 477 176 L 481 178 L 484 178 L 485 177 L 485 173 L 483 169 L 470 155 L 472 153 L 481 153 L 482 150 L 479 146 L 470 141 L 467 138 L 470 134 L 470 132 L 465 127 L 457 111 L 451 104 L 451 101 L 453 99 L 456 98 L 464 88 L 466 82 L 466 69 L 465 68 L 465 65 L 461 58 Z M 173 638 L 176 641 L 175 643 L 175 647 L 171 653 L 171 655 L 168 657 L 166 655 L 165 647 L 167 642 L 171 638 Z M 485 567 L 486 568 L 486 572 L 481 578 L 479 576 L 479 574 L 481 570 Z M 443 45 L 451 49 L 456 53 L 462 60 L 465 66 L 465 69 L 466 70 L 466 80 L 465 81 L 464 87 L 459 94 L 456 97 L 450 100 L 449 102 L 457 112 L 464 127 L 468 132 L 468 134 L 466 135 L 465 137 L 469 141 L 475 144 L 481 150 L 479 153 L 471 152 L 470 153 L 470 156 L 477 163 L 484 172 L 484 176 L 482 178 L 477 175 L 475 176 L 475 180 L 482 193 L 483 198 L 481 200 L 478 199 L 476 197 L 474 198 L 474 210 L 475 211 L 475 216 L 474 219 L 472 221 L 468 217 L 466 220 L 466 228 L 463 234 L 463 236 L 459 243 L 450 251 L 446 252 L 443 256 L 438 259 L 436 259 L 434 257 L 436 254 L 433 254 L 432 256 L 421 266 L 423 268 L 431 265 L 439 266 L 440 267 L 438 270 L 439 272 L 445 275 L 447 275 L 455 279 L 457 281 L 456 283 L 453 284 L 454 287 L 458 290 L 472 305 L 471 307 L 469 307 L 465 304 L 462 303 L 461 304 L 462 307 L 465 310 L 476 328 L 476 331 L 478 334 L 478 338 L 479 339 L 479 344 L 480 345 L 479 348 L 476 348 L 476 352 L 480 364 L 481 375 L 480 378 L 478 380 L 473 395 L 469 400 L 467 398 L 467 386 L 466 385 L 466 382 L 465 382 L 462 387 L 459 397 L 455 405 L 446 413 L 442 413 L 440 411 L 443 408 L 447 401 L 446 398 L 436 406 L 427 409 L 417 414 L 410 419 L 408 417 L 410 415 L 412 410 L 410 410 L 402 415 L 399 415 L 389 422 L 383 424 L 381 422 L 386 414 L 386 409 L 385 409 L 379 413 L 373 419 L 361 426 L 359 424 L 362 420 L 361 418 L 357 420 L 351 420 L 345 423 L 341 423 L 337 425 L 334 425 L 329 427 L 325 427 L 324 428 L 305 428 L 295 424 L 293 422 L 293 418 L 300 408 L 299 405 L 293 405 L 285 410 L 280 409 L 276 405 L 275 403 L 275 399 L 280 394 L 286 391 L 290 387 L 291 383 L 290 382 L 275 383 L 273 381 L 274 376 L 279 370 L 288 366 L 290 366 L 298 361 L 297 358 L 288 356 L 286 354 L 287 351 L 291 347 L 297 344 L 325 345 L 338 340 L 342 340 L 343 339 L 352 338 L 353 337 L 374 336 L 375 335 L 382 335 L 383 334 L 396 334 L 397 333 L 404 333 L 407 332 L 407 330 L 403 328 L 393 327 L 389 324 L 390 320 L 388 318 L 385 318 L 377 325 L 374 325 L 373 326 L 345 327 L 344 328 L 334 329 L 328 331 L 326 333 L 321 335 L 318 334 L 299 334 L 298 335 L 291 336 L 285 339 L 278 346 L 275 359 L 267 365 L 263 374 L 263 381 L 264 382 L 264 387 L 265 388 L 265 405 L 269 415 L 278 422 L 280 425 L 290 434 L 305 441 L 315 442 L 316 443 L 332 443 L 338 440 L 357 440 L 358 439 L 368 439 L 369 438 L 375 438 L 376 437 L 385 437 L 391 435 L 401 434 L 406 432 L 411 432 L 418 429 L 437 429 L 441 427 L 445 427 L 451 423 L 458 422 L 473 414 L 479 408 L 485 397 L 486 392 L 489 390 L 492 393 L 499 406 L 497 408 L 490 406 L 489 408 L 499 423 L 499 425 L 501 427 L 504 434 L 502 436 L 499 437 L 499 440 L 504 454 L 504 458 L 505 459 L 506 466 L 505 467 L 499 467 L 498 468 L 499 483 L 498 484 L 497 490 L 488 509 L 487 513 L 479 523 L 479 528 L 480 529 L 485 529 L 487 531 L 484 540 L 482 543 L 478 565 L 473 571 L 472 578 L 475 578 L 477 580 L 481 580 L 490 576 L 492 574 L 498 562 L 498 556 L 499 555 L 498 553 L 498 537 L 504 524 L 510 519 L 520 520 L 527 525 L 530 526 L 538 535 L 540 539 L 546 546 L 547 550 L 552 557 L 555 563 L 555 565 L 558 569 L 560 576 L 563 581 L 563 584 L 565 587 L 566 597 L 562 600 L 552 600 L 549 601 L 546 605 L 547 607 L 550 609 L 553 609 L 554 610 L 562 610 L 563 612 L 559 615 L 551 616 L 550 617 L 545 617 L 543 615 L 536 615 L 535 614 L 520 614 L 518 612 L 518 609 L 523 603 L 523 601 L 525 599 L 525 597 L 528 591 L 527 588 L 522 588 L 518 592 L 514 599 L 501 613 L 494 617 L 487 623 L 485 623 L 483 625 L 475 629 L 472 629 L 469 631 L 466 631 L 461 633 L 457 633 L 456 634 L 453 633 L 449 636 L 448 635 L 443 635 L 434 632 L 427 626 L 422 627 L 411 618 L 399 606 L 396 602 L 391 591 L 391 580 L 392 579 L 392 574 L 393 573 L 394 567 L 401 560 L 408 556 L 411 550 L 411 547 L 410 546 L 401 556 L 390 558 L 385 562 L 383 562 L 381 564 L 381 573 L 382 575 L 379 578 L 375 580 L 357 579 L 352 577 L 348 577 L 346 575 L 339 574 L 336 572 L 327 569 L 321 569 L 320 570 L 320 574 L 321 575 L 320 578 L 321 579 L 323 578 L 328 581 L 330 581 L 332 583 L 332 585 L 331 586 L 326 586 L 322 595 L 319 598 L 317 598 L 315 601 L 312 601 L 304 607 L 303 609 L 304 614 L 299 620 L 298 623 L 298 629 L 300 633 L 299 635 L 294 639 L 289 649 L 289 659 L 287 663 L 285 674 L 280 680 L 278 680 L 275 682 L 258 682 L 257 681 L 249 681 L 248 680 L 243 680 L 238 678 L 233 678 L 232 677 L 229 677 L 220 674 L 216 674 L 207 671 L 204 669 L 202 669 L 198 667 L 194 663 L 195 658 L 200 651 L 200 645 L 199 644 L 193 645 L 187 649 L 178 659 L 176 659 L 173 655 L 174 650 L 176 648 L 176 639 L 174 637 L 171 637 L 167 641 L 164 647 L 161 645 L 160 647 L 158 648 L 156 646 L 158 636 L 163 631 L 166 630 L 168 628 L 176 625 L 198 625 L 207 629 L 209 629 L 214 632 L 221 633 L 221 631 L 217 627 L 201 619 L 198 616 L 198 614 L 199 613 L 199 608 L 200 607 L 200 598 L 201 597 L 201 593 L 202 592 L 202 588 L 204 582 L 204 573 L 209 565 L 209 564 L 206 563 L 204 560 L 216 550 L 216 547 L 212 542 L 215 539 L 221 537 L 225 533 L 225 528 L 229 524 L 238 518 L 240 518 L 243 520 L 255 519 L 258 522 L 270 529 L 277 536 L 280 537 L 282 539 L 284 539 L 288 543 L 294 546 L 296 546 L 299 549 L 306 552 L 309 551 L 300 544 L 291 539 L 282 529 L 278 527 L 274 523 L 269 522 L 260 514 L 245 507 L 242 508 L 236 502 L 234 498 L 234 485 L 232 484 L 228 489 L 225 486 L 226 476 L 229 467 L 229 463 L 228 462 L 221 469 L 219 467 L 219 460 L 223 451 L 223 449 L 225 446 L 226 441 L 223 440 L 219 443 L 217 443 L 215 440 L 218 433 L 229 416 L 228 413 L 224 415 L 221 415 L 219 413 L 219 410 L 228 401 L 232 395 L 232 391 L 231 390 L 227 391 L 225 389 L 228 384 L 232 380 L 234 374 L 236 372 L 235 369 L 237 365 L 237 361 L 235 359 L 235 357 L 241 344 L 240 336 L 245 324 L 242 323 L 237 328 L 233 337 L 230 340 L 230 343 L 227 347 L 226 355 L 225 357 L 222 359 L 221 358 L 217 358 L 214 356 L 215 352 L 212 350 L 197 348 L 195 346 L 198 342 L 196 339 L 190 337 L 186 337 L 182 335 L 179 335 L 169 331 L 167 329 L 170 326 L 173 326 L 174 325 L 174 323 L 171 320 L 156 315 L 145 309 L 142 306 L 144 304 L 150 304 L 151 303 L 151 300 L 133 288 L 118 273 L 113 265 L 110 262 L 107 255 L 105 253 L 98 238 L 96 230 L 88 225 L 73 213 L 61 199 L 56 188 L 57 183 L 61 179 L 70 179 L 72 174 L 77 178 L 82 179 L 84 178 L 88 173 L 88 171 L 85 165 L 74 156 L 70 155 L 67 158 L 66 162 L 64 163 L 62 161 L 62 155 L 66 149 L 68 148 L 72 148 L 80 152 L 89 161 L 91 160 L 92 157 L 96 160 L 101 160 L 104 158 L 105 156 L 105 149 L 104 146 L 100 140 L 93 133 L 89 133 L 87 135 L 85 141 L 84 142 L 82 141 L 82 133 L 83 130 L 88 125 L 93 125 L 97 127 L 105 135 L 113 150 L 115 150 L 117 148 L 122 153 L 125 154 L 129 154 L 131 152 L 132 149 L 132 143 L 131 142 L 131 139 L 126 130 L 124 128 L 118 128 L 116 126 L 120 121 L 124 121 L 130 125 L 134 132 L 138 146 L 140 148 L 141 148 L 144 144 L 152 137 L 155 137 L 159 139 L 161 141 L 165 151 L 164 166 L 163 167 L 162 174 L 160 177 L 160 182 L 169 191 L 179 203 L 184 211 L 189 216 L 190 216 L 193 212 L 195 212 L 197 214 L 203 227 L 211 237 L 213 237 L 214 230 L 217 228 L 221 232 L 224 241 L 229 249 L 231 246 L 234 244 L 238 249 L 238 251 L 243 259 L 245 259 L 246 257 L 246 253 L 249 252 L 257 263 L 261 272 L 263 274 L 267 274 L 269 272 L 269 265 L 260 251 L 252 243 L 250 243 L 247 240 L 246 234 L 244 234 L 240 237 L 236 233 L 235 231 L 235 226 L 234 225 L 235 223 L 235 214 L 233 214 L 229 217 L 226 214 L 226 208 L 230 197 L 230 193 L 227 193 L 224 195 L 222 193 L 222 189 L 229 175 L 228 174 L 221 175 L 219 173 L 219 171 L 221 168 L 231 159 L 232 154 L 230 151 L 230 148 L 234 139 L 236 137 L 240 129 L 240 126 L 238 124 L 231 122 L 225 117 L 220 108 L 220 104 L 219 103 L 220 92 L 226 80 L 232 74 L 242 69 L 245 69 L 246 68 L 258 68 L 266 72 L 271 77 L 273 81 L 276 81 L 282 76 L 294 70 L 300 69 L 304 63 L 322 63 L 324 61 L 324 59 L 321 54 L 323 51 L 329 52 L 341 59 L 351 50 L 356 49 L 357 50 L 357 54 L 355 57 L 356 60 L 358 59 L 380 59 L 385 61 L 393 62 L 403 66 L 405 64 L 405 61 L 407 57 L 415 49 L 423 45 L 430 44 L 431 43 Z M 451 38 L 442 35 L 425 35 L 424 36 L 421 36 L 410 41 L 402 48 L 398 54 L 395 54 L 386 51 L 382 51 L 381 50 L 367 50 L 365 48 L 364 44 L 358 40 L 354 40 L 348 42 L 341 47 L 338 47 L 330 43 L 323 42 L 322 43 L 319 43 L 315 46 L 314 48 L 314 53 L 312 55 L 302 56 L 282 66 L 279 69 L 277 69 L 270 63 L 260 59 L 245 59 L 244 60 L 240 60 L 226 67 L 216 77 L 212 85 L 210 91 L 210 96 L 209 97 L 210 109 L 214 119 L 217 123 L 228 133 L 221 147 L 221 157 L 212 167 L 210 173 L 211 178 L 216 183 L 213 190 L 213 198 L 218 204 L 218 209 L 217 210 L 218 216 L 216 218 L 210 219 L 208 217 L 202 205 L 197 201 L 190 201 L 170 178 L 173 169 L 173 164 L 174 163 L 174 148 L 173 147 L 173 144 L 168 135 L 164 131 L 156 128 L 153 128 L 144 131 L 142 129 L 139 122 L 136 118 L 126 112 L 118 112 L 115 114 L 113 114 L 106 122 L 104 122 L 99 118 L 93 116 L 88 116 L 82 118 L 76 124 L 74 128 L 73 137 L 71 139 L 66 139 L 62 141 L 56 147 L 53 154 L 53 163 L 55 167 L 55 171 L 50 176 L 47 183 L 47 191 L 48 192 L 49 198 L 53 205 L 60 214 L 74 227 L 87 236 L 91 249 L 99 264 L 111 281 L 132 301 L 131 306 L 134 312 L 143 319 L 154 324 L 156 326 L 156 329 L 158 333 L 162 337 L 170 341 L 176 343 L 179 343 L 187 353 L 200 357 L 206 363 L 212 365 L 220 369 L 222 371 L 222 376 L 216 388 L 216 397 L 217 399 L 213 403 L 209 410 L 209 418 L 213 422 L 213 424 L 209 429 L 209 431 L 206 437 L 206 447 L 211 454 L 210 456 L 210 460 L 209 461 L 209 469 L 210 470 L 211 477 L 215 484 L 217 495 L 219 499 L 224 504 L 226 508 L 226 512 L 209 534 L 202 541 L 199 547 L 199 549 L 197 551 L 197 553 L 193 560 L 193 564 L 195 568 L 194 566 L 194 558 L 199 550 L 202 542 L 210 534 L 212 530 L 225 515 L 227 511 L 227 509 L 224 503 L 219 498 L 216 492 L 215 483 L 212 479 L 210 473 L 210 456 L 211 453 L 206 446 L 206 438 L 208 432 L 213 424 L 213 422 L 209 418 L 209 411 L 210 408 L 217 399 L 216 389 L 222 377 L 223 370 L 205 362 L 202 358 L 199 356 L 192 355 L 188 353 L 183 348 L 183 346 L 181 344 L 168 340 L 166 338 L 163 337 L 158 332 L 157 330 L 157 326 L 155 324 L 142 318 L 133 310 L 132 308 L 132 300 L 110 279 L 108 275 L 100 265 L 90 246 L 87 235 L 75 227 L 67 219 L 66 219 L 56 208 L 49 197 L 48 190 L 47 189 L 48 181 L 50 177 L 56 171 L 56 168 L 53 162 L 54 151 L 61 142 L 65 140 L 72 140 L 73 139 L 74 128 L 77 123 L 81 119 L 85 117 L 92 116 L 98 118 L 103 122 L 106 122 L 112 115 L 119 112 L 125 112 L 132 115 L 139 122 L 142 128 L 142 130 L 144 132 L 146 132 L 150 129 L 159 129 L 163 131 L 169 137 L 173 144 L 173 147 L 174 148 L 174 163 L 173 164 L 173 169 L 172 170 L 172 173 L 170 176 L 170 179 L 179 188 L 189 201 L 191 202 L 193 201 L 197 201 L 203 207 L 206 214 L 210 219 L 213 219 L 214 218 L 217 219 L 218 218 L 218 213 L 217 212 L 218 210 L 218 203 L 213 197 L 213 191 L 216 185 L 216 182 L 211 177 L 211 170 L 214 165 L 222 156 L 221 154 L 221 149 L 222 148 L 222 145 L 226 137 L 228 135 L 228 131 L 223 128 L 214 118 L 210 109 L 209 98 L 210 97 L 210 92 L 213 83 L 218 75 L 223 70 L 236 62 L 242 60 L 245 60 L 246 59 L 258 59 L 259 60 L 262 60 L 269 63 L 276 69 L 280 69 L 283 66 L 294 61 L 300 57 L 308 56 L 309 55 L 312 56 L 314 54 L 314 49 L 315 47 L 320 43 L 329 43 L 339 48 L 341 48 L 344 45 L 351 41 L 360 41 L 364 45 L 367 51 L 377 50 L 378 51 L 384 51 L 385 52 L 389 52 L 394 54 L 398 54 L 408 43 L 422 36 L 427 36 L 428 35 L 440 35 L 441 36 L 444 36 L 450 38 L 459 43 L 468 52 L 474 63 L 475 71 L 476 72 L 476 81 L 475 82 L 475 85 L 471 94 L 463 103 L 463 106 L 467 111 L 473 123 L 477 128 L 479 133 L 479 137 L 482 140 L 486 142 L 491 148 L 491 154 L 487 160 L 494 172 L 494 181 L 490 185 L 490 189 L 492 192 L 492 202 L 491 205 L 484 211 L 484 216 L 483 217 L 482 225 L 475 232 L 474 237 L 464 252 L 464 254 L 460 259 L 455 261 L 455 262 L 461 268 L 461 273 L 476 289 L 477 295 L 485 307 L 487 316 L 484 321 L 484 323 L 487 328 L 488 337 L 488 331 L 485 324 L 485 320 L 487 316 L 487 313 L 485 307 L 478 296 L 475 287 L 462 273 L 461 268 L 456 262 L 463 256 L 465 251 L 468 248 L 473 240 L 475 233 L 481 227 L 483 223 L 484 212 L 490 207 L 492 203 L 492 191 L 490 188 L 490 186 L 494 182 L 494 172 L 491 165 L 488 161 L 488 158 L 491 155 L 492 151 L 491 150 L 491 147 L 479 136 L 478 129 L 476 127 L 470 115 L 464 106 L 464 103 L 470 97 L 471 94 L 473 92 L 475 86 L 475 83 L 476 82 L 476 70 L 475 69 L 475 66 L 473 60 L 467 50 L 461 44 Z" fill="#B1B1B1" fill-rule="evenodd"/><path d="M 173 639 L 171 639 L 168 642 L 167 646 L 166 647 L 166 649 L 167 650 L 167 655 L 168 656 L 170 655 L 170 653 L 172 651 L 174 647 L 174 643 L 175 641 Z M 264 164 L 264 166 L 263 167 L 263 171 L 262 172 L 262 180 L 265 187 L 268 191 L 277 196 L 281 197 L 283 199 L 284 207 L 285 208 L 286 213 L 291 223 L 293 225 L 297 232 L 309 245 L 317 250 L 319 249 L 319 248 L 312 241 L 309 235 L 309 228 L 312 222 L 320 214 L 321 214 L 326 210 L 332 207 L 334 207 L 335 206 L 339 206 L 340 205 L 350 207 L 352 208 L 358 214 L 360 218 L 360 222 L 358 226 L 358 229 L 352 241 L 353 242 L 357 238 L 363 224 L 363 221 L 364 220 L 364 217 L 365 216 L 365 213 L 366 212 L 366 206 L 367 205 L 367 187 L 366 186 L 366 179 L 365 178 L 364 174 L 362 172 L 361 172 L 359 174 L 357 178 L 352 183 L 338 190 L 335 190 L 334 191 L 331 191 L 330 192 L 319 192 L 318 191 L 314 191 L 313 190 L 309 190 L 308 189 L 304 189 L 303 188 L 296 188 L 294 190 L 288 193 L 280 193 L 279 192 L 275 191 L 267 182 L 267 179 L 266 178 L 266 171 L 267 170 L 267 166 L 268 164 L 267 163 L 265 163 Z M 273 158 L 273 161 L 276 168 L 281 173 L 287 176 L 291 176 L 292 177 L 302 176 L 311 172 L 320 164 L 321 160 L 322 159 L 321 155 L 318 152 L 312 149 L 310 149 L 307 147 L 292 147 L 291 148 L 287 148 L 286 149 L 284 149 L 277 152 L 275 154 Z M 281 125 L 277 126 L 273 131 L 273 133 L 272 134 L 272 137 L 271 138 L 271 144 L 272 146 L 275 148 L 278 147 L 282 143 L 285 136 L 284 128 Z M 362 120 L 358 123 L 356 127 L 356 129 L 355 130 L 355 138 L 356 139 L 356 141 L 360 145 L 364 146 L 366 145 L 370 140 L 370 138 L 371 137 L 371 129 L 368 123 L 366 121 Z M 290 89 L 289 88 L 284 88 L 280 90 L 274 96 L 273 99 L 274 100 L 278 99 L 281 96 L 288 93 L 290 91 Z M 360 81 L 361 83 L 369 85 L 376 89 L 379 89 L 380 88 L 379 84 L 374 80 L 372 80 L 368 78 L 363 78 Z M 450 39 L 448 39 L 444 37 L 441 37 L 440 36 L 428 36 L 427 37 L 422 37 L 408 44 L 398 55 L 394 55 L 393 54 L 385 53 L 384 52 L 378 52 L 377 51 L 371 51 L 370 52 L 367 52 L 365 50 L 363 45 L 360 42 L 351 42 L 344 46 L 341 49 L 339 49 L 329 44 L 320 44 L 316 47 L 315 49 L 315 54 L 312 57 L 309 56 L 308 57 L 303 57 L 302 58 L 300 58 L 296 60 L 294 62 L 283 67 L 280 70 L 276 70 L 269 64 L 262 61 L 259 61 L 258 60 L 246 60 L 245 61 L 242 61 L 241 62 L 236 63 L 230 66 L 224 71 L 223 71 L 219 75 L 214 83 L 214 85 L 212 88 L 212 91 L 211 92 L 211 97 L 210 98 L 211 109 L 215 118 L 223 127 L 224 127 L 229 131 L 229 135 L 227 137 L 223 145 L 223 148 L 222 149 L 222 154 L 223 156 L 222 158 L 215 165 L 212 170 L 212 177 L 217 182 L 217 185 L 214 191 L 214 197 L 219 203 L 219 210 L 218 211 L 219 213 L 219 218 L 217 220 L 215 219 L 213 220 L 210 220 L 205 214 L 202 207 L 197 202 L 193 202 L 192 203 L 189 202 L 186 199 L 183 194 L 178 189 L 178 188 L 169 179 L 169 176 L 171 173 L 171 170 L 172 169 L 172 164 L 173 163 L 173 148 L 172 147 L 172 144 L 168 137 L 163 132 L 159 130 L 150 130 L 146 133 L 144 133 L 141 130 L 141 128 L 138 122 L 132 116 L 128 114 L 126 114 L 125 113 L 119 113 L 118 114 L 116 114 L 112 116 L 106 123 L 103 123 L 98 119 L 96 119 L 92 117 L 85 118 L 81 120 L 78 123 L 75 128 L 74 139 L 72 141 L 65 141 L 61 143 L 55 151 L 55 154 L 54 155 L 54 162 L 57 168 L 57 171 L 51 177 L 49 181 L 48 189 L 49 190 L 49 194 L 50 195 L 50 197 L 57 208 L 62 213 L 62 214 L 75 226 L 76 226 L 79 229 L 80 229 L 83 232 L 86 233 L 88 235 L 89 239 L 90 240 L 91 246 L 101 265 L 103 267 L 105 271 L 109 275 L 111 279 L 133 300 L 133 308 L 134 310 L 142 317 L 155 323 L 158 326 L 158 330 L 159 332 L 163 336 L 166 337 L 168 339 L 170 339 L 171 340 L 173 340 L 174 341 L 181 343 L 184 346 L 184 348 L 188 352 L 192 354 L 199 355 L 201 356 L 205 361 L 211 364 L 213 364 L 220 368 L 222 368 L 224 370 L 224 374 L 223 375 L 223 377 L 217 389 L 217 395 L 218 396 L 218 399 L 213 405 L 210 411 L 210 418 L 214 422 L 214 424 L 211 428 L 209 432 L 208 437 L 207 438 L 207 446 L 212 453 L 212 455 L 211 456 L 211 473 L 212 474 L 213 479 L 216 483 L 216 486 L 217 487 L 217 492 L 220 498 L 225 503 L 228 509 L 228 511 L 226 515 L 220 521 L 217 526 L 213 530 L 211 534 L 203 542 L 201 546 L 201 548 L 195 558 L 196 573 L 195 574 L 195 577 L 194 578 L 194 581 L 193 582 L 193 585 L 192 586 L 192 590 L 191 591 L 191 598 L 190 599 L 190 611 L 189 612 L 189 614 L 187 616 L 185 616 L 184 617 L 178 617 L 177 618 L 169 619 L 166 621 L 164 621 L 157 624 L 153 628 L 152 628 L 148 633 L 145 639 L 145 643 L 144 644 L 145 652 L 150 661 L 158 669 L 181 682 L 183 682 L 191 686 L 193 686 L 197 688 L 200 688 L 201 689 L 205 689 L 206 690 L 210 690 L 211 691 L 218 691 L 219 692 L 227 692 L 228 693 L 262 693 L 263 692 L 273 692 L 274 691 L 278 691 L 279 690 L 285 689 L 293 682 L 296 676 L 296 674 L 298 670 L 299 655 L 300 654 L 300 652 L 306 646 L 311 636 L 312 630 L 313 629 L 313 625 L 314 624 L 314 621 L 315 619 L 324 611 L 324 610 L 328 606 L 328 605 L 336 597 L 336 596 L 340 592 L 340 591 L 345 586 L 350 586 L 354 588 L 359 588 L 360 589 L 370 589 L 371 590 L 377 590 L 379 591 L 381 593 L 381 598 L 385 606 L 389 610 L 389 611 L 408 629 L 409 629 L 418 636 L 428 641 L 434 642 L 435 643 L 440 643 L 441 644 L 444 644 L 445 645 L 463 645 L 464 644 L 469 643 L 472 640 L 494 629 L 507 619 L 509 619 L 513 623 L 515 623 L 520 626 L 526 627 L 527 628 L 547 628 L 553 625 L 555 625 L 568 618 L 574 612 L 576 608 L 576 606 L 577 605 L 577 601 L 578 600 L 578 593 L 577 592 L 577 586 L 576 585 L 575 579 L 562 552 L 560 550 L 558 545 L 556 543 L 555 540 L 553 538 L 549 531 L 537 518 L 536 518 L 530 513 L 527 512 L 523 509 L 518 508 L 515 506 L 507 505 L 505 503 L 506 498 L 508 496 L 508 495 L 518 486 L 518 485 L 523 479 L 528 469 L 528 466 L 529 465 L 529 462 L 530 461 L 530 449 L 529 448 L 528 443 L 526 439 L 524 437 L 523 434 L 515 425 L 510 423 L 508 421 L 506 417 L 507 413 L 508 412 L 508 407 L 507 406 L 507 403 L 502 393 L 498 388 L 498 380 L 497 379 L 497 376 L 493 368 L 492 362 L 491 361 L 491 358 L 490 357 L 490 354 L 489 353 L 489 350 L 488 349 L 488 338 L 487 337 L 487 332 L 486 331 L 486 328 L 483 323 L 483 321 L 486 316 L 484 307 L 477 297 L 475 289 L 473 287 L 473 286 L 460 273 L 460 268 L 454 262 L 454 261 L 456 259 L 460 258 L 463 254 L 463 252 L 471 241 L 473 237 L 474 232 L 481 225 L 481 223 L 482 222 L 482 217 L 483 216 L 483 211 L 490 205 L 490 203 L 491 202 L 491 192 L 489 189 L 489 185 L 493 181 L 493 172 L 492 171 L 492 169 L 490 167 L 486 160 L 486 159 L 490 154 L 490 148 L 486 143 L 482 141 L 478 137 L 478 133 L 477 132 L 476 128 L 472 123 L 466 111 L 462 106 L 462 103 L 468 97 L 474 85 L 474 82 L 475 81 L 475 72 L 474 71 L 474 66 L 467 52 L 459 44 Z M 515 440 L 516 440 L 518 442 L 520 446 L 520 460 L 519 461 L 519 464 L 517 467 L 515 466 L 515 458 L 514 457 L 514 454 L 513 453 L 513 450 L 512 449 L 512 443 Z M 449 46 L 451 48 L 452 48 L 462 58 L 466 65 L 466 68 L 467 69 L 467 82 L 466 83 L 465 88 L 463 90 L 461 94 L 456 99 L 452 101 L 452 104 L 458 111 L 466 127 L 471 132 L 471 134 L 468 137 L 468 138 L 470 140 L 473 141 L 475 143 L 479 145 L 483 150 L 483 152 L 481 154 L 472 154 L 471 155 L 480 164 L 480 165 L 484 169 L 486 173 L 486 177 L 484 179 L 481 179 L 477 177 L 477 180 L 480 185 L 480 187 L 484 195 L 484 200 L 482 202 L 480 202 L 476 199 L 475 200 L 475 202 L 476 203 L 476 218 L 475 219 L 475 221 L 473 223 L 472 223 L 469 220 L 468 220 L 468 223 L 467 224 L 467 229 L 466 230 L 465 235 L 460 244 L 452 252 L 448 254 L 442 259 L 436 262 L 436 264 L 444 266 L 446 268 L 444 270 L 442 270 L 442 272 L 456 278 L 461 283 L 459 285 L 457 285 L 456 287 L 469 299 L 469 300 L 473 304 L 475 308 L 473 310 L 472 310 L 470 308 L 464 305 L 463 306 L 470 315 L 477 328 L 477 330 L 479 334 L 479 337 L 480 338 L 480 342 L 481 343 L 481 351 L 479 353 L 478 353 L 478 355 L 479 356 L 480 363 L 482 367 L 482 377 L 473 398 L 468 403 L 466 401 L 465 390 L 464 390 L 456 406 L 450 412 L 445 415 L 439 416 L 438 417 L 435 417 L 433 415 L 442 406 L 442 405 L 440 405 L 436 408 L 428 410 L 418 415 L 416 417 L 409 421 L 408 421 L 406 419 L 408 415 L 408 413 L 407 413 L 400 418 L 398 418 L 394 421 L 388 424 L 386 424 L 383 426 L 381 426 L 379 424 L 379 423 L 384 415 L 384 412 L 380 414 L 374 420 L 370 422 L 367 425 L 361 428 L 357 428 L 356 427 L 356 423 L 354 424 L 346 424 L 345 425 L 341 425 L 337 427 L 332 427 L 328 429 L 325 429 L 324 430 L 317 430 L 316 431 L 304 430 L 303 429 L 300 429 L 294 426 L 291 423 L 291 418 L 296 411 L 297 408 L 296 407 L 293 407 L 286 411 L 280 411 L 274 404 L 274 397 L 282 391 L 285 390 L 288 387 L 289 384 L 287 383 L 286 384 L 275 385 L 272 381 L 272 377 L 277 370 L 282 367 L 284 367 L 287 365 L 289 365 L 293 363 L 296 360 L 294 358 L 287 357 L 285 355 L 285 353 L 287 349 L 289 347 L 296 343 L 301 343 L 302 342 L 304 342 L 305 343 L 314 343 L 315 344 L 325 344 L 328 342 L 330 342 L 334 340 L 337 340 L 338 339 L 341 339 L 342 338 L 346 338 L 347 337 L 352 337 L 353 336 L 361 336 L 362 335 L 374 335 L 375 334 L 382 334 L 383 333 L 394 333 L 395 332 L 402 332 L 404 331 L 404 330 L 402 329 L 398 329 L 397 328 L 392 328 L 391 327 L 389 327 L 388 326 L 388 320 L 386 319 L 385 320 L 383 320 L 377 327 L 359 327 L 358 328 L 345 328 L 344 329 L 340 329 L 339 330 L 335 330 L 334 331 L 332 331 L 320 337 L 316 336 L 315 335 L 301 335 L 300 336 L 292 337 L 283 342 L 278 349 L 278 351 L 277 352 L 277 358 L 268 366 L 267 369 L 265 371 L 265 379 L 264 381 L 265 382 L 265 387 L 266 388 L 266 404 L 267 405 L 267 408 L 268 409 L 269 413 L 275 419 L 276 419 L 286 430 L 287 430 L 292 434 L 298 437 L 300 437 L 304 439 L 307 439 L 308 440 L 311 440 L 312 441 L 326 441 L 328 439 L 331 439 L 332 438 L 337 438 L 338 437 L 343 437 L 344 438 L 358 438 L 359 437 L 368 437 L 369 436 L 376 436 L 377 435 L 385 435 L 386 434 L 389 434 L 390 433 L 395 433 L 396 432 L 402 432 L 403 431 L 407 431 L 408 430 L 411 430 L 412 429 L 414 429 L 415 428 L 419 428 L 420 427 L 432 427 L 433 426 L 441 426 L 442 425 L 446 425 L 448 423 L 452 421 L 461 419 L 465 417 L 467 415 L 469 415 L 471 413 L 472 413 L 479 405 L 483 397 L 485 390 L 488 387 L 489 387 L 495 395 L 496 398 L 498 400 L 501 406 L 501 408 L 499 410 L 497 410 L 496 409 L 493 409 L 492 410 L 497 416 L 505 432 L 505 437 L 502 440 L 502 443 L 503 444 L 503 448 L 504 449 L 504 451 L 506 455 L 506 458 L 507 459 L 507 468 L 505 470 L 503 470 L 502 469 L 500 470 L 500 474 L 501 475 L 501 482 L 500 483 L 499 490 L 496 495 L 496 497 L 494 500 L 494 502 L 491 507 L 491 509 L 488 515 L 482 522 L 482 524 L 481 525 L 482 527 L 487 527 L 488 528 L 488 534 L 484 543 L 484 547 L 483 548 L 483 551 L 482 552 L 482 557 L 481 558 L 481 561 L 480 562 L 479 567 L 477 570 L 478 571 L 487 561 L 489 563 L 489 565 L 488 566 L 488 571 L 490 572 L 493 569 L 497 561 L 497 558 L 496 557 L 496 537 L 497 536 L 497 533 L 500 526 L 502 524 L 502 523 L 509 517 L 517 517 L 518 518 L 520 518 L 526 521 L 530 525 L 531 525 L 541 536 L 541 537 L 545 542 L 546 545 L 548 547 L 551 554 L 553 556 L 560 570 L 560 572 L 565 582 L 565 585 L 567 588 L 568 596 L 567 598 L 563 601 L 560 601 L 559 602 L 553 602 L 550 604 L 550 606 L 554 608 L 564 608 L 566 610 L 566 611 L 560 616 L 558 616 L 554 618 L 550 618 L 549 619 L 547 619 L 545 621 L 534 621 L 533 620 L 529 620 L 521 616 L 519 616 L 516 613 L 516 610 L 517 609 L 517 607 L 520 604 L 522 600 L 522 598 L 524 595 L 524 592 L 523 591 L 519 594 L 519 595 L 510 605 L 510 606 L 500 616 L 496 618 L 490 623 L 472 632 L 469 632 L 462 635 L 459 635 L 454 638 L 448 638 L 447 637 L 439 636 L 438 635 L 430 633 L 427 631 L 425 631 L 421 629 L 417 625 L 416 625 L 396 605 L 396 604 L 392 599 L 389 592 L 389 582 L 390 581 L 390 574 L 391 573 L 391 569 L 389 569 L 386 575 L 381 580 L 375 581 L 374 582 L 366 582 L 365 581 L 358 581 L 357 580 L 347 579 L 346 578 L 338 576 L 331 572 L 329 572 L 328 571 L 324 571 L 324 574 L 325 576 L 327 578 L 334 581 L 336 583 L 336 585 L 323 597 L 322 597 L 319 602 L 313 608 L 307 608 L 306 609 L 306 612 L 305 613 L 305 623 L 304 624 L 304 629 L 303 630 L 303 632 L 300 639 L 292 646 L 292 648 L 291 649 L 291 659 L 290 660 L 290 665 L 289 666 L 289 669 L 288 670 L 286 677 L 282 681 L 280 681 L 277 683 L 272 683 L 271 684 L 267 684 L 266 683 L 250 683 L 249 682 L 244 682 L 243 681 L 234 680 L 233 679 L 231 679 L 230 678 L 226 678 L 222 676 L 217 676 L 216 675 L 202 671 L 196 668 L 191 664 L 192 660 L 195 657 L 199 650 L 199 647 L 198 646 L 195 646 L 193 648 L 190 649 L 186 653 L 184 658 L 187 661 L 185 663 L 181 663 L 180 664 L 169 664 L 167 663 L 161 657 L 161 656 L 155 649 L 155 642 L 156 641 L 156 638 L 158 634 L 161 631 L 162 631 L 167 627 L 169 627 L 171 625 L 174 625 L 175 624 L 185 624 L 186 623 L 199 624 L 200 625 L 203 625 L 208 628 L 210 628 L 214 630 L 217 630 L 217 629 L 213 626 L 200 620 L 197 617 L 197 614 L 198 613 L 198 606 L 199 605 L 199 598 L 200 597 L 200 592 L 201 591 L 201 588 L 202 587 L 203 572 L 206 566 L 206 565 L 204 564 L 202 562 L 202 561 L 213 550 L 213 548 L 210 545 L 210 542 L 214 538 L 216 538 L 220 536 L 223 533 L 223 528 L 237 516 L 240 516 L 244 518 L 247 518 L 248 517 L 257 517 L 257 516 L 256 516 L 250 511 L 246 510 L 245 509 L 241 509 L 235 503 L 233 499 L 233 496 L 232 495 L 232 490 L 231 489 L 228 492 L 227 492 L 225 490 L 224 488 L 224 480 L 225 479 L 225 474 L 226 473 L 227 467 L 226 466 L 221 471 L 220 471 L 217 467 L 218 459 L 219 458 L 221 450 L 223 447 L 224 442 L 222 442 L 218 445 L 216 445 L 214 443 L 214 438 L 217 432 L 219 430 L 227 417 L 227 415 L 225 416 L 219 416 L 217 414 L 217 412 L 219 408 L 227 400 L 227 399 L 231 394 L 230 392 L 228 393 L 225 393 L 224 392 L 224 388 L 231 379 L 232 375 L 233 374 L 233 369 L 235 366 L 234 356 L 239 346 L 238 339 L 239 338 L 241 330 L 243 327 L 243 325 L 242 325 L 237 330 L 235 337 L 233 341 L 231 343 L 231 345 L 229 347 L 228 353 L 227 354 L 227 358 L 224 361 L 222 361 L 221 360 L 218 360 L 217 359 L 213 358 L 211 356 L 212 354 L 211 352 L 209 352 L 208 351 L 204 351 L 203 350 L 198 350 L 197 349 L 194 349 L 192 347 L 192 345 L 195 342 L 194 340 L 188 339 L 187 338 L 184 338 L 177 335 L 174 335 L 168 332 L 165 329 L 165 327 L 167 325 L 171 325 L 171 323 L 169 321 L 167 321 L 166 320 L 161 319 L 156 316 L 154 316 L 144 310 L 140 306 L 140 304 L 142 302 L 148 303 L 148 301 L 145 298 L 135 292 L 129 286 L 128 286 L 117 274 L 117 273 L 111 266 L 108 260 L 106 258 L 99 244 L 99 242 L 96 237 L 95 231 L 93 229 L 87 226 L 84 223 L 79 220 L 74 215 L 73 215 L 63 204 L 63 203 L 59 198 L 55 190 L 55 185 L 57 181 L 59 179 L 63 178 L 64 177 L 69 177 L 69 175 L 63 167 L 62 163 L 61 162 L 61 155 L 62 154 L 62 152 L 67 147 L 73 147 L 81 151 L 88 158 L 88 156 L 85 152 L 83 148 L 83 146 L 81 143 L 81 132 L 83 128 L 87 124 L 94 124 L 98 126 L 106 134 L 112 146 L 113 146 L 113 130 L 114 129 L 114 126 L 119 120 L 125 120 L 127 121 L 133 127 L 136 133 L 136 135 L 138 139 L 138 142 L 140 146 L 141 146 L 149 137 L 151 136 L 156 136 L 158 137 L 163 142 L 166 149 L 166 160 L 165 161 L 165 168 L 164 169 L 163 175 L 161 178 L 161 181 L 171 191 L 171 192 L 175 196 L 178 201 L 183 206 L 183 207 L 189 214 L 191 213 L 191 211 L 193 209 L 194 209 L 198 213 L 203 224 L 205 226 L 208 232 L 211 235 L 212 234 L 213 229 L 216 226 L 217 226 L 223 233 L 225 240 L 227 244 L 229 246 L 232 242 L 235 243 L 237 245 L 243 257 L 245 256 L 245 252 L 248 249 L 256 258 L 261 269 L 265 273 L 266 273 L 268 271 L 268 266 L 261 255 L 258 252 L 258 251 L 252 245 L 249 244 L 244 237 L 242 239 L 240 239 L 235 234 L 234 230 L 233 229 L 233 217 L 228 218 L 225 215 L 225 207 L 227 203 L 228 196 L 227 195 L 223 197 L 220 193 L 221 191 L 221 188 L 227 176 L 225 175 L 222 177 L 220 177 L 218 175 L 218 170 L 221 167 L 221 166 L 230 158 L 231 155 L 229 152 L 229 147 L 239 128 L 239 127 L 237 125 L 232 124 L 230 122 L 229 122 L 223 116 L 219 109 L 219 106 L 218 105 L 218 95 L 219 94 L 220 88 L 226 78 L 233 72 L 241 68 L 249 67 L 250 66 L 256 66 L 257 67 L 259 67 L 266 70 L 274 79 L 276 79 L 281 75 L 293 69 L 299 68 L 301 66 L 301 64 L 303 62 L 305 62 L 306 61 L 321 61 L 322 60 L 322 58 L 320 55 L 320 51 L 322 49 L 326 49 L 336 54 L 339 57 L 342 57 L 349 50 L 350 50 L 352 48 L 357 47 L 359 49 L 359 52 L 357 56 L 358 58 L 361 58 L 362 57 L 377 57 L 378 58 L 383 58 L 384 59 L 395 61 L 398 63 L 402 64 L 404 62 L 404 60 L 406 56 L 414 48 L 424 43 L 427 43 L 428 42 L 437 42 L 438 43 L 441 43 L 447 46 Z" fill="#010101" fill-rule="evenodd"/></svg>