<svg xmlns="http://www.w3.org/2000/svg" viewBox="0 0 653 704" shape-rendering="geometricPrecision"><title>intro frame 107</title><path d="M 470 513 L 458 523 L 454 523 L 450 526 L 446 531 L 442 528 L 439 531 L 438 534 L 434 539 L 431 539 L 429 537 L 421 547 L 417 545 L 412 551 L 403 559 L 401 564 L 393 575 L 390 581 L 388 591 L 389 590 L 392 593 L 391 608 L 392 609 L 393 608 L 396 611 L 396 615 L 395 616 L 395 628 L 396 629 L 399 627 L 402 630 L 403 646 L 402 647 L 401 655 L 400 656 L 400 667 L 402 671 L 406 675 L 410 677 L 413 677 L 421 680 L 426 680 L 427 681 L 435 681 L 436 680 L 436 664 L 440 659 L 444 659 L 448 663 L 448 666 L 449 667 L 449 681 L 450 682 L 468 682 L 469 681 L 469 678 L 468 677 L 468 660 L 470 658 L 475 658 L 479 662 L 481 666 L 481 669 L 482 670 L 482 680 L 491 680 L 495 678 L 495 668 L 494 667 L 493 659 L 497 655 L 500 656 L 505 661 L 508 669 L 508 675 L 509 676 L 511 675 L 515 670 L 516 662 L 515 661 L 515 655 L 513 651 L 506 644 L 496 639 L 492 639 L 491 638 L 488 638 L 485 640 L 477 640 L 476 639 L 459 639 L 458 640 L 451 640 L 450 641 L 438 640 L 433 642 L 430 640 L 432 638 L 437 637 L 439 635 L 451 634 L 452 633 L 457 633 L 458 632 L 479 632 L 480 633 L 483 633 L 480 623 L 483 620 L 483 616 L 485 614 L 487 614 L 490 618 L 490 622 L 491 623 L 492 622 L 492 618 L 488 613 L 483 603 L 485 601 L 490 606 L 492 606 L 493 605 L 493 602 L 484 595 L 481 595 L 465 581 L 465 580 L 468 578 L 474 580 L 481 584 L 484 584 L 485 585 L 488 584 L 488 582 L 486 579 L 478 571 L 474 565 L 476 562 L 488 570 L 489 567 L 487 564 L 486 559 L 482 555 L 470 549 L 471 547 L 484 548 L 485 547 L 477 539 L 477 538 L 479 536 L 487 539 L 487 538 L 477 527 L 475 520 Z M 444 583 L 447 585 L 453 593 L 456 599 L 456 601 L 454 603 L 443 591 L 442 585 Z M 436 580 L 437 581 L 437 589 L 435 593 L 432 595 L 430 592 L 432 588 L 433 582 Z M 409 562 L 411 564 L 411 567 L 408 573 L 406 575 L 404 575 L 402 572 L 404 570 L 405 566 Z M 230 507 L 227 512 L 227 514 L 225 516 L 225 518 L 228 518 L 230 520 L 230 522 L 223 537 L 224 538 L 225 537 L 228 537 L 230 539 L 230 541 L 227 547 L 226 553 L 223 560 L 223 565 L 228 565 L 230 567 L 229 569 L 229 573 L 228 574 L 228 580 L 230 582 L 230 594 L 232 600 L 232 606 L 234 611 L 234 615 L 236 621 L 239 624 L 244 624 L 245 625 L 248 625 L 256 628 L 259 632 L 257 634 L 252 634 L 243 631 L 224 631 L 210 636 L 205 640 L 204 643 L 202 645 L 201 655 L 200 656 L 201 662 L 205 665 L 205 659 L 207 655 L 207 652 L 209 649 L 214 645 L 218 645 L 220 647 L 220 653 L 218 656 L 218 661 L 217 662 L 217 668 L 218 669 L 228 671 L 229 670 L 229 661 L 232 656 L 232 654 L 237 650 L 241 650 L 244 653 L 244 656 L 242 661 L 242 665 L 241 666 L 241 671 L 244 673 L 263 673 L 264 672 L 273 672 L 276 668 L 280 667 L 286 662 L 290 661 L 295 655 L 295 652 L 293 647 L 287 640 L 287 635 L 289 633 L 292 635 L 293 630 L 294 629 L 297 629 L 296 625 L 293 621 L 293 618 L 297 614 L 297 611 L 296 610 L 296 607 L 291 599 L 286 595 L 286 587 L 288 585 L 294 593 L 295 591 L 293 589 L 292 586 L 295 584 L 296 582 L 277 561 L 272 552 L 269 549 L 268 546 L 262 539 L 260 539 L 252 530 L 252 528 L 249 524 L 243 519 L 240 518 Z M 259 581 L 260 582 L 260 585 L 257 587 L 255 584 Z M 268 574 L 272 579 L 272 581 L 275 585 L 275 588 L 273 590 L 268 585 L 266 580 L 266 576 Z M 282 570 L 284 574 L 284 577 L 283 578 L 283 582 L 281 584 L 279 582 L 279 574 L 280 571 Z M 250 566 L 251 567 L 250 570 L 244 576 L 243 576 L 241 573 L 248 566 Z M 466 425 L 465 427 L 468 430 L 472 432 L 472 430 Z M 230 126 L 227 131 L 226 136 L 231 131 L 231 127 Z M 208 104 L 208 105 L 210 105 L 214 109 L 215 112 L 216 112 L 215 110 L 215 106 L 213 104 Z M 228 100 L 231 109 L 232 117 L 233 117 L 237 110 L 237 108 L 229 100 Z M 149 76 L 156 76 L 156 75 L 154 74 L 150 74 Z M 454 16 L 451 16 L 450 15 L 439 15 L 429 19 L 422 25 L 417 33 L 417 37 L 414 40 L 407 38 L 404 36 L 395 35 L 394 34 L 389 34 L 388 33 L 370 33 L 369 34 L 365 34 L 363 32 L 363 29 L 365 25 L 362 24 L 359 26 L 352 34 L 348 33 L 340 28 L 335 27 L 334 28 L 337 32 L 337 36 L 333 39 L 317 39 L 311 45 L 308 45 L 303 48 L 301 48 L 288 57 L 286 57 L 278 47 L 273 44 L 267 43 L 266 42 L 256 43 L 250 46 L 248 46 L 239 54 L 234 63 L 234 66 L 233 67 L 233 80 L 236 87 L 244 95 L 250 98 L 252 98 L 254 100 L 254 104 L 249 113 L 249 115 L 245 123 L 246 134 L 235 146 L 235 147 L 242 146 L 244 148 L 244 152 L 242 154 L 237 166 L 238 168 L 240 166 L 242 166 L 244 168 L 242 188 L 244 189 L 244 188 L 247 186 L 250 189 L 250 203 L 251 204 L 251 207 L 254 209 L 256 206 L 258 206 L 260 208 L 262 216 L 266 218 L 276 229 L 285 234 L 291 236 L 299 244 L 299 248 L 297 250 L 295 250 L 291 246 L 285 243 L 282 244 L 282 247 L 279 250 L 275 249 L 271 244 L 269 239 L 265 240 L 262 237 L 258 229 L 258 227 L 254 230 L 251 227 L 247 215 L 246 214 L 241 215 L 239 213 L 230 190 L 225 191 L 223 189 L 218 180 L 216 172 L 204 149 L 204 144 L 214 127 L 213 127 L 212 129 L 207 133 L 204 134 L 197 134 L 192 129 L 191 122 L 195 115 L 199 111 L 195 112 L 192 109 L 191 104 L 190 104 L 190 107 L 185 113 L 182 114 L 177 112 L 172 107 L 168 107 L 166 105 L 164 94 L 163 94 L 163 104 L 162 107 L 157 112 L 152 112 L 147 109 L 145 109 L 142 111 L 139 108 L 137 102 L 135 101 L 139 112 L 138 120 L 135 123 L 131 125 L 126 124 L 120 119 L 118 120 L 118 122 L 127 132 L 127 138 L 123 143 L 119 145 L 115 144 L 109 138 L 109 136 L 107 134 L 106 127 L 107 124 L 112 120 L 111 118 L 107 118 L 104 121 L 103 124 L 103 129 L 106 138 L 112 150 L 115 153 L 115 155 L 122 166 L 129 174 L 128 182 L 130 185 L 132 199 L 133 200 L 135 199 L 137 201 L 145 213 L 146 216 L 149 219 L 149 221 L 151 223 L 152 226 L 165 243 L 173 251 L 183 258 L 189 261 L 191 261 L 193 263 L 200 265 L 205 270 L 202 274 L 195 275 L 195 277 L 200 279 L 210 279 L 222 287 L 231 289 L 234 293 L 231 296 L 222 298 L 222 299 L 225 301 L 234 304 L 241 304 L 245 298 L 253 292 L 257 292 L 259 294 L 257 302 L 253 309 L 251 316 L 249 318 L 248 325 L 246 329 L 246 333 L 248 333 L 255 326 L 263 321 L 266 323 L 266 326 L 257 339 L 248 348 L 239 353 L 231 365 L 232 366 L 233 365 L 236 365 L 238 367 L 238 371 L 233 376 L 224 388 L 224 390 L 230 389 L 232 391 L 232 393 L 226 402 L 217 420 L 219 421 L 221 419 L 223 419 L 226 422 L 220 438 L 218 449 L 222 446 L 223 446 L 225 449 L 225 452 L 224 453 L 224 461 L 223 462 L 223 471 L 226 469 L 229 471 L 230 473 L 230 482 L 232 488 L 234 489 L 233 487 L 235 485 L 239 490 L 241 496 L 244 493 L 246 495 L 250 507 L 253 509 L 253 508 L 256 506 L 259 509 L 260 512 L 266 520 L 269 518 L 278 528 L 281 524 L 283 524 L 287 530 L 292 535 L 295 532 L 302 539 L 303 539 L 303 538 L 300 535 L 298 530 L 294 525 L 291 519 L 291 516 L 289 512 L 289 505 L 290 504 L 293 506 L 294 511 L 305 527 L 317 538 L 318 538 L 324 532 L 325 532 L 329 537 L 331 537 L 340 528 L 346 524 L 348 526 L 348 528 L 344 536 L 344 542 L 345 543 L 355 535 L 359 533 L 363 529 L 365 529 L 367 531 L 367 533 L 362 543 L 364 544 L 370 541 L 376 535 L 383 524 L 387 520 L 389 520 L 390 521 L 390 524 L 389 525 L 389 528 L 387 534 L 392 524 L 394 515 L 397 512 L 400 516 L 400 526 L 397 534 L 397 536 L 398 536 L 410 523 L 411 519 L 413 517 L 417 508 L 420 505 L 423 508 L 423 515 L 419 523 L 419 526 L 420 526 L 431 514 L 437 499 L 437 493 L 432 492 L 429 490 L 429 484 L 430 482 L 428 477 L 425 473 L 427 470 L 435 478 L 436 477 L 436 463 L 434 458 L 436 455 L 437 455 L 442 461 L 449 480 L 449 482 L 446 485 L 443 483 L 442 484 L 439 492 L 442 497 L 442 505 L 441 506 L 441 509 L 442 510 L 446 506 L 451 497 L 453 490 L 457 486 L 459 488 L 459 492 L 460 492 L 460 490 L 462 487 L 462 483 L 464 481 L 465 478 L 465 465 L 467 463 L 468 460 L 468 456 L 464 448 L 467 444 L 471 446 L 471 440 L 467 436 L 462 427 L 462 425 L 459 422 L 456 416 L 458 415 L 466 421 L 470 418 L 470 416 L 463 408 L 458 406 L 449 405 L 446 401 L 448 399 L 457 399 L 464 402 L 466 404 L 467 404 L 468 402 L 457 382 L 458 380 L 463 381 L 463 379 L 456 374 L 451 367 L 445 361 L 447 359 L 453 364 L 459 367 L 460 365 L 459 364 L 459 360 L 458 358 L 455 355 L 451 353 L 438 351 L 433 347 L 435 344 L 441 344 L 455 351 L 455 348 L 453 346 L 452 342 L 448 337 L 448 334 L 450 332 L 452 334 L 454 334 L 451 326 L 453 324 L 456 326 L 457 329 L 464 337 L 467 344 L 469 346 L 469 348 L 473 352 L 476 358 L 476 360 L 484 374 L 486 382 L 488 385 L 493 400 L 493 404 L 494 405 L 494 408 L 497 417 L 499 431 L 502 440 L 501 446 L 498 452 L 497 459 L 496 460 L 496 472 L 497 473 L 497 476 L 499 479 L 504 483 L 508 483 L 511 480 L 515 470 L 518 467 L 520 467 L 524 471 L 524 479 L 523 480 L 522 486 L 517 494 L 518 498 L 524 502 L 531 502 L 538 494 L 540 489 L 542 487 L 542 485 L 546 482 L 550 486 L 550 493 L 546 503 L 547 504 L 552 504 L 556 502 L 560 498 L 564 489 L 565 484 L 569 480 L 573 483 L 574 486 L 574 493 L 575 493 L 578 490 L 584 477 L 584 474 L 586 469 L 586 464 L 587 463 L 587 446 L 586 445 L 586 440 L 584 434 L 586 432 L 588 432 L 588 429 L 584 419 L 583 412 L 577 402 L 577 399 L 578 398 L 581 398 L 583 399 L 583 398 L 567 375 L 569 373 L 573 373 L 575 375 L 576 375 L 576 374 L 556 349 L 557 346 L 561 346 L 564 348 L 566 348 L 566 347 L 537 320 L 539 318 L 545 318 L 548 319 L 548 317 L 531 304 L 526 302 L 523 299 L 523 297 L 525 295 L 530 295 L 529 293 L 527 293 L 519 289 L 509 282 L 511 279 L 519 279 L 519 278 L 508 270 L 494 263 L 491 260 L 494 256 L 497 256 L 497 255 L 493 254 L 476 246 L 473 246 L 470 244 L 462 243 L 460 245 L 457 246 L 453 251 L 450 251 L 446 248 L 434 248 L 433 247 L 430 247 L 427 250 L 423 250 L 420 247 L 420 242 L 419 242 L 410 254 L 408 254 L 406 252 L 406 249 L 409 243 L 418 235 L 421 235 L 423 231 L 428 226 L 431 228 L 431 232 L 432 233 L 433 232 L 433 225 L 434 222 L 437 219 L 440 223 L 442 223 L 443 220 L 442 212 L 445 211 L 449 214 L 450 213 L 450 208 L 455 202 L 458 203 L 459 202 L 459 200 L 457 197 L 451 192 L 453 190 L 457 190 L 460 192 L 464 193 L 465 192 L 464 191 L 464 188 L 462 186 L 461 182 L 462 181 L 467 181 L 470 183 L 472 181 L 472 177 L 466 173 L 468 171 L 472 171 L 473 168 L 464 158 L 466 156 L 474 158 L 481 164 L 481 167 L 484 170 L 485 174 L 486 174 L 485 171 L 487 169 L 491 169 L 493 171 L 494 170 L 492 162 L 488 156 L 486 150 L 488 148 L 492 148 L 496 150 L 497 148 L 490 138 L 482 130 L 482 127 L 484 125 L 487 125 L 488 126 L 493 126 L 494 125 L 489 120 L 483 117 L 479 113 L 479 110 L 482 106 L 477 99 L 471 87 L 468 84 L 467 81 L 462 76 L 462 73 L 467 69 L 476 59 L 478 53 L 478 49 L 479 48 L 478 45 L 478 39 L 474 31 L 464 21 Z M 284 512 L 288 515 L 288 518 L 287 519 L 285 518 L 283 514 Z M 265 498 L 268 500 L 268 503 L 269 504 L 267 505 L 264 501 Z M 428 495 L 430 496 L 430 502 L 429 503 L 426 501 Z M 398 492 L 399 495 L 397 497 L 395 497 L 394 495 Z M 408 488 L 413 493 L 413 506 L 411 508 L 410 508 L 408 505 L 409 503 L 409 494 L 406 490 Z M 270 486 L 272 488 L 274 494 L 280 505 L 280 511 L 278 513 L 273 509 L 269 498 L 268 488 Z M 272 462 L 274 464 L 274 467 L 272 473 L 270 475 L 268 473 L 268 471 L 269 470 L 270 464 Z M 259 440 L 261 442 L 260 447 L 255 462 L 253 465 L 251 465 L 249 463 L 250 453 L 254 444 Z M 412 423 L 415 422 L 418 423 L 420 425 L 423 424 L 429 424 L 432 425 L 433 428 L 430 430 L 426 430 L 425 431 L 426 432 L 424 434 L 421 434 L 414 427 Z M 257 416 L 259 419 L 255 423 L 250 433 L 246 433 L 244 431 L 244 429 L 247 423 L 253 417 Z M 427 403 L 430 402 L 439 408 L 441 408 L 444 410 L 450 417 L 448 419 L 442 419 L 440 418 L 439 421 L 441 423 L 441 425 L 438 427 L 435 423 L 435 419 L 433 416 L 433 412 Z M 422 394 L 426 392 L 427 393 L 430 393 L 433 396 L 431 398 L 429 398 L 428 397 L 424 397 Z M 435 388 L 437 386 L 440 386 L 443 389 L 444 392 L 442 394 L 440 394 L 435 390 Z M 438 372 L 439 371 L 445 371 L 447 372 L 450 375 L 449 379 L 444 383 L 438 376 Z M 385 370 L 387 368 L 389 368 L 405 379 L 409 379 L 410 380 L 410 386 L 409 387 L 406 387 L 399 380 L 395 378 L 392 375 L 387 373 Z M 491 368 L 493 367 L 495 370 L 493 372 L 491 370 Z M 412 364 L 421 371 L 421 375 L 420 376 L 412 377 L 410 375 L 410 366 Z M 537 357 L 538 356 L 541 356 L 544 359 L 543 360 L 540 360 Z M 436 329 L 439 328 L 441 333 L 438 334 L 436 332 Z M 425 326 L 426 325 L 428 326 L 432 326 L 434 327 L 435 329 L 434 330 L 431 330 L 426 328 Z M 433 312 L 439 320 L 439 324 L 438 325 L 435 323 L 431 316 L 431 314 Z M 422 312 L 423 315 L 419 319 L 416 319 L 413 316 L 419 312 Z M 375 311 L 378 313 L 378 316 L 377 317 L 374 315 L 374 312 Z M 379 310 L 381 308 L 390 316 L 392 315 L 392 312 L 394 311 L 395 312 L 395 317 L 392 320 L 389 318 L 385 318 L 379 312 Z M 326 306 L 321 310 L 318 309 L 318 308 L 323 304 Z M 435 298 L 441 303 L 441 305 L 439 307 L 437 306 L 433 301 Z M 385 293 L 387 293 L 389 295 L 390 300 L 394 306 L 392 308 L 383 298 L 383 295 Z M 314 290 L 315 292 L 313 296 L 309 300 L 307 298 L 308 294 Z M 422 288 L 425 290 L 424 292 L 424 302 L 427 305 L 428 310 L 426 312 L 424 312 L 422 310 L 423 308 L 422 302 L 418 297 L 421 293 L 421 289 Z M 260 270 L 262 272 L 258 277 L 261 280 L 258 283 L 252 286 L 251 284 L 254 279 L 254 275 L 257 271 Z M 414 264 L 414 263 L 418 260 L 422 260 L 423 261 L 421 264 L 417 266 Z M 261 262 L 264 259 L 269 259 L 271 261 L 269 264 L 263 264 Z M 266 251 L 268 249 L 270 249 L 272 250 L 274 253 L 272 255 L 270 255 L 268 254 Z M 403 244 L 403 247 L 400 252 L 385 266 L 381 268 L 377 272 L 372 274 L 368 278 L 364 277 L 361 279 L 352 279 L 341 273 L 327 262 L 321 254 L 325 249 L 328 250 L 334 250 L 335 251 L 341 251 L 342 252 L 357 252 L 358 251 L 363 251 L 364 250 L 368 250 L 369 249 L 382 247 L 396 242 L 401 242 Z M 389 128 L 395 121 L 401 118 L 404 118 L 405 117 L 419 117 L 420 118 L 425 118 L 434 122 L 439 127 L 441 131 L 441 137 L 434 145 L 432 145 L 429 147 L 409 147 L 397 142 L 390 135 Z M 178 117 L 185 124 L 190 133 L 190 136 L 191 137 L 190 148 L 188 152 L 183 157 L 180 159 L 178 159 L 176 161 L 170 163 L 167 163 L 166 164 L 163 164 L 162 165 L 159 165 L 158 166 L 154 166 L 153 167 L 139 167 L 133 164 L 128 159 L 125 153 L 125 143 L 126 142 L 126 139 L 142 122 L 146 120 L 149 117 L 158 114 L 171 114 Z M 311 111 L 315 107 L 321 104 L 334 103 L 344 107 L 347 110 L 347 113 L 345 115 L 341 115 L 333 112 L 322 112 L 317 114 L 313 114 Z M 294 97 L 300 99 L 303 103 L 303 106 L 304 107 L 303 115 L 299 121 L 303 121 L 309 119 L 320 119 L 321 120 L 325 120 L 335 124 L 340 129 L 341 132 L 341 138 L 339 142 L 333 149 L 320 156 L 316 156 L 315 157 L 307 157 L 297 153 L 289 145 L 288 142 L 287 142 L 286 145 L 286 157 L 288 161 L 296 167 L 303 167 L 313 161 L 317 161 L 318 162 L 322 162 L 328 164 L 333 164 L 334 165 L 345 165 L 346 164 L 353 163 L 366 157 L 372 151 L 374 146 L 376 144 L 380 144 L 384 148 L 386 152 L 386 155 L 387 156 L 388 176 L 387 177 L 386 191 L 384 195 L 384 198 L 382 204 L 374 218 L 361 229 L 355 232 L 352 232 L 351 233 L 339 233 L 336 231 L 334 231 L 326 226 L 313 213 L 304 200 L 299 190 L 296 178 L 294 176 L 290 175 L 288 173 L 285 172 L 278 164 L 275 157 L 275 148 L 274 148 L 264 158 L 260 160 L 258 159 L 253 159 L 246 151 L 246 147 L 248 142 L 255 135 L 264 131 L 272 131 L 279 137 L 284 136 L 286 138 L 286 133 L 290 126 L 284 121 L 283 114 L 284 113 L 284 109 L 286 104 L 290 99 Z M 378 90 L 385 92 L 389 96 L 392 104 L 392 110 L 391 111 L 390 117 L 389 119 L 384 123 L 377 123 L 375 122 L 371 118 L 369 112 L 369 101 L 372 95 Z M 308 62 L 309 66 L 305 70 L 299 72 L 293 77 L 288 78 L 285 75 L 285 70 L 286 68 L 295 60 L 302 58 L 305 59 Z M 265 57 L 271 60 L 276 66 L 276 68 L 270 75 L 264 85 L 258 91 L 256 91 L 246 82 L 245 79 L 245 70 L 248 64 L 253 59 L 258 57 Z M 369 53 L 374 48 L 382 48 L 389 51 L 395 57 L 396 59 L 396 63 L 392 67 L 390 67 L 382 62 L 371 59 L 369 57 Z M 444 30 L 450 30 L 456 33 L 463 40 L 466 46 L 466 53 L 463 59 L 455 66 L 448 62 L 440 54 L 434 51 L 430 46 L 431 41 L 437 34 Z" fill="#FBFBFB" fill-rule="evenodd"/><path d="M 469 661 L 471 659 L 475 659 L 479 664 L 480 670 L 481 671 L 481 678 L 480 679 L 481 682 L 491 681 L 494 680 L 496 678 L 496 669 L 496 678 L 494 680 L 491 681 L 482 681 L 481 680 L 481 670 L 478 662 L 475 659 L 470 659 Z M 219 651 L 216 660 L 216 669 L 217 670 L 224 671 L 225 672 L 229 672 L 230 671 L 230 662 L 233 655 L 237 651 L 241 651 L 243 653 L 243 656 L 241 661 L 241 665 L 241 661 L 242 660 L 243 653 L 241 651 L 237 651 L 233 654 L 233 656 L 230 661 L 230 670 L 228 672 L 218 670 L 216 668 L 216 662 L 217 661 L 217 656 L 219 653 Z M 246 626 L 251 627 L 256 631 L 254 633 L 249 632 L 252 633 L 257 633 L 258 632 L 256 629 Z M 444 584 L 443 585 L 444 591 L 454 602 L 455 599 L 452 593 L 446 585 Z M 436 581 L 434 582 L 433 585 L 433 588 L 431 592 L 432 594 L 434 593 L 436 589 Z M 268 575 L 267 576 L 268 583 L 273 589 L 274 588 L 274 585 Z M 282 571 L 281 571 L 280 574 L 280 582 L 281 583 L 283 577 Z M 250 567 L 248 567 L 242 573 L 242 574 L 244 575 L 249 570 Z M 409 563 L 406 566 L 405 570 L 403 572 L 404 574 L 407 573 L 410 567 L 410 564 Z M 222 561 L 222 565 L 221 567 L 222 568 L 225 566 L 228 567 L 228 573 L 227 574 L 226 581 L 229 584 L 229 594 L 230 596 L 229 594 L 229 582 L 227 580 L 227 574 L 228 573 L 228 569 L 229 567 L 228 566 L 223 566 L 222 565 Z M 408 489 L 407 490 L 410 494 L 410 503 L 409 505 L 410 507 L 412 506 L 412 493 Z M 270 487 L 269 488 L 270 498 L 274 509 L 278 512 L 279 511 L 279 505 Z M 271 493 L 274 495 L 278 504 L 278 507 L 277 508 L 274 506 L 270 496 Z M 572 483 L 569 481 L 566 484 L 565 489 L 561 498 L 556 503 L 552 505 L 547 505 L 545 503 L 549 493 L 549 486 L 545 483 L 543 486 L 545 484 L 547 484 L 549 486 L 549 493 L 548 494 L 548 497 L 544 504 L 547 506 L 549 506 L 557 503 L 561 499 L 566 485 L 569 482 L 572 484 Z M 272 463 L 269 471 L 270 474 L 273 467 L 273 464 Z M 223 447 L 219 450 L 218 450 L 217 448 L 217 452 L 221 449 L 222 449 L 224 452 Z M 259 441 L 255 444 L 252 450 L 251 456 L 250 457 L 250 463 L 251 464 L 253 464 L 259 447 L 259 444 L 260 443 Z M 254 451 L 255 452 L 255 455 L 253 456 L 252 453 Z M 413 423 L 415 427 L 421 433 L 424 433 L 425 432 L 424 431 L 426 429 L 430 429 L 432 428 L 432 426 L 429 425 L 423 425 L 420 426 L 418 424 Z M 257 417 L 253 418 L 248 423 L 245 429 L 246 432 L 250 432 L 254 423 L 258 419 Z M 428 403 L 434 412 L 434 416 L 436 419 L 436 423 L 437 425 L 439 426 L 440 423 L 438 421 L 438 419 L 440 417 L 442 418 L 448 418 L 449 417 L 444 411 L 441 409 L 439 409 L 432 404 Z M 437 411 L 439 410 L 441 413 L 439 414 Z M 423 394 L 424 396 L 428 396 L 429 397 L 432 396 L 430 394 L 427 394 L 426 393 Z M 437 387 L 436 390 L 438 392 L 442 393 L 443 392 L 442 389 L 440 387 Z M 439 372 L 439 376 L 444 382 L 448 379 L 449 375 L 445 372 Z M 386 370 L 387 372 L 392 374 L 395 377 L 399 379 L 406 386 L 409 386 L 409 380 L 405 380 L 389 369 Z M 412 365 L 411 366 L 411 375 L 412 376 L 420 375 L 420 371 Z M 557 347 L 557 349 L 560 352 L 562 356 L 569 363 L 571 367 L 577 374 L 576 376 L 573 374 L 569 374 L 568 375 L 584 398 L 583 400 L 578 399 L 578 402 L 582 408 L 584 414 L 584 412 L 579 402 L 581 400 L 584 402 L 585 400 L 580 391 L 570 377 L 572 375 L 575 376 L 578 376 L 578 375 L 569 364 L 567 360 L 557 349 L 559 347 L 563 348 L 561 347 Z M 426 326 L 426 327 L 428 328 L 434 329 L 434 328 L 432 327 L 428 327 Z M 454 325 L 452 326 L 455 334 L 452 335 L 450 333 L 449 334 L 449 337 L 453 342 L 454 346 L 456 348 L 456 351 L 454 352 L 441 345 L 435 345 L 434 347 L 438 350 L 451 352 L 455 354 L 460 360 L 460 364 L 461 366 L 459 368 L 453 365 L 449 361 L 447 360 L 446 361 L 452 367 L 455 372 L 464 379 L 463 382 L 458 381 L 458 382 L 462 388 L 462 390 L 465 394 L 469 403 L 466 405 L 464 403 L 457 400 L 448 400 L 447 402 L 449 404 L 458 405 L 463 407 L 470 414 L 471 418 L 467 422 L 464 421 L 458 416 L 457 416 L 457 417 L 463 425 L 463 427 L 468 436 L 472 440 L 472 446 L 470 447 L 467 445 L 465 448 L 468 453 L 469 460 L 468 463 L 466 465 L 466 478 L 465 481 L 463 483 L 463 487 L 461 490 L 461 492 L 460 493 L 458 492 L 458 488 L 457 487 L 454 490 L 452 497 L 447 506 L 442 511 L 440 509 L 440 506 L 441 505 L 441 497 L 438 492 L 441 484 L 443 482 L 446 484 L 448 482 L 448 480 L 441 461 L 437 456 L 435 457 L 437 463 L 437 477 L 435 479 L 427 471 L 426 473 L 429 477 L 431 482 L 430 484 L 430 490 L 438 493 L 438 499 L 432 514 L 420 527 L 418 526 L 418 523 L 422 515 L 422 508 L 420 506 L 418 508 L 414 517 L 412 519 L 411 523 L 398 537 L 396 536 L 398 530 L 398 527 L 399 526 L 399 516 L 397 513 L 395 515 L 394 521 L 391 527 L 391 529 L 387 535 L 386 532 L 388 528 L 389 521 L 387 521 L 384 524 L 377 535 L 370 542 L 364 545 L 361 543 L 366 533 L 366 531 L 363 530 L 359 534 L 355 536 L 345 544 L 343 542 L 343 536 L 347 528 L 346 525 L 340 529 L 331 538 L 329 538 L 327 535 L 324 533 L 318 539 L 317 539 L 304 527 L 293 511 L 292 506 L 290 505 L 290 512 L 292 516 L 292 519 L 295 525 L 299 530 L 301 535 L 304 538 L 304 539 L 302 540 L 295 533 L 292 536 L 286 530 L 283 525 L 281 525 L 278 529 L 269 519 L 266 521 L 263 518 L 256 507 L 255 507 L 253 510 L 249 507 L 249 505 L 246 500 L 244 494 L 241 497 L 239 495 L 238 490 L 235 486 L 234 487 L 235 489 L 234 490 L 231 488 L 229 482 L 229 473 L 227 470 L 224 472 L 222 471 L 223 454 L 222 474 L 223 475 L 226 472 L 229 476 L 230 486 L 234 494 L 236 500 L 236 503 L 234 505 L 231 504 L 229 505 L 228 509 L 224 517 L 222 519 L 223 520 L 226 519 L 228 521 L 228 525 L 226 527 L 224 534 L 221 539 L 222 540 L 225 538 L 227 538 L 229 541 L 228 538 L 225 538 L 224 539 L 222 537 L 229 522 L 229 520 L 228 519 L 225 519 L 224 516 L 226 514 L 226 512 L 230 506 L 240 517 L 247 521 L 253 528 L 253 530 L 260 538 L 262 538 L 269 546 L 270 549 L 273 552 L 278 561 L 297 582 L 297 583 L 293 586 L 294 589 L 296 591 L 294 594 L 291 591 L 288 586 L 287 587 L 287 595 L 292 599 L 296 605 L 298 611 L 298 614 L 294 618 L 294 621 L 296 623 L 298 629 L 297 630 L 294 630 L 292 636 L 289 634 L 288 635 L 288 640 L 294 647 L 296 652 L 296 655 L 290 662 L 286 663 L 282 667 L 276 669 L 273 673 L 264 673 L 263 674 L 244 674 L 241 672 L 242 674 L 269 674 L 270 673 L 278 673 L 279 672 L 287 672 L 288 671 L 293 671 L 294 670 L 300 670 L 301 669 L 306 669 L 307 668 L 314 667 L 317 665 L 319 665 L 323 661 L 325 656 L 325 638 L 323 633 L 323 629 L 326 626 L 328 628 L 330 628 L 330 625 L 331 624 L 331 611 L 330 610 L 329 596 L 331 594 L 334 596 L 336 596 L 336 585 L 337 584 L 339 574 L 338 573 L 334 573 L 325 570 L 311 563 L 308 559 L 311 555 L 316 555 L 330 560 L 339 561 L 344 563 L 352 563 L 353 564 L 365 564 L 366 563 L 384 562 L 387 565 L 387 568 L 383 572 L 381 572 L 380 575 L 384 583 L 384 588 L 386 594 L 389 593 L 391 595 L 391 601 L 391 593 L 389 591 L 388 592 L 387 591 L 389 581 L 392 575 L 400 564 L 402 559 L 408 553 L 409 553 L 417 544 L 421 546 L 429 536 L 431 538 L 434 538 L 438 531 L 442 527 L 446 530 L 450 525 L 454 522 L 458 522 L 470 512 L 475 518 L 478 527 L 488 538 L 487 540 L 483 539 L 480 537 L 478 538 L 478 539 L 486 547 L 484 549 L 479 549 L 478 548 L 471 548 L 471 549 L 482 554 L 487 559 L 490 569 L 488 571 L 480 565 L 476 563 L 475 564 L 479 571 L 489 582 L 489 584 L 487 586 L 481 585 L 474 581 L 467 579 L 466 581 L 481 594 L 484 594 L 494 602 L 494 605 L 492 607 L 490 607 L 485 602 L 484 603 L 486 606 L 486 608 L 493 618 L 493 622 L 491 624 L 489 622 L 489 618 L 488 616 L 485 615 L 484 616 L 484 620 L 481 623 L 484 632 L 483 634 L 480 634 L 479 633 L 458 633 L 457 634 L 452 634 L 451 635 L 439 636 L 437 638 L 434 638 L 431 640 L 432 641 L 438 639 L 450 640 L 447 640 L 446 639 L 446 637 L 449 635 L 453 635 L 459 633 L 476 633 L 477 634 L 483 635 L 485 637 L 483 639 L 477 639 L 485 639 L 488 637 L 491 637 L 492 638 L 496 638 L 506 643 L 514 651 L 515 654 L 514 651 L 509 645 L 499 640 L 496 637 L 496 635 L 500 631 L 502 618 L 503 617 L 503 606 L 504 605 L 504 592 L 503 591 L 502 583 L 505 579 L 501 572 L 501 569 L 503 568 L 508 571 L 509 570 L 505 562 L 505 559 L 499 547 L 497 545 L 497 543 L 499 541 L 504 543 L 506 545 L 507 544 L 506 539 L 499 523 L 501 520 L 505 521 L 504 511 L 503 510 L 503 499 L 497 496 L 490 490 L 485 481 L 483 475 L 483 469 L 482 468 L 483 465 L 483 457 L 488 443 L 488 439 L 487 438 L 484 419 L 481 410 L 481 406 L 480 405 L 479 398 L 475 386 L 466 368 L 465 364 L 459 355 L 457 349 L 457 346 L 460 343 L 461 343 L 467 349 L 477 364 L 487 386 L 492 401 L 492 404 L 493 405 L 493 407 L 492 400 L 487 385 L 485 382 L 483 374 L 478 364 L 476 362 L 472 352 L 468 348 L 468 346 L 466 344 L 463 337 L 456 329 Z M 479 568 L 481 567 L 484 569 L 486 572 L 484 573 Z M 363 533 L 364 535 L 361 539 L 359 537 L 360 535 Z M 385 526 L 386 529 L 383 531 L 382 530 Z M 270 522 L 276 527 L 284 538 L 283 540 L 281 540 L 272 530 L 269 525 Z M 397 519 L 398 520 L 398 526 L 395 528 L 394 527 L 394 523 L 395 520 Z M 293 514 L 295 515 L 300 524 L 307 532 L 306 535 L 304 535 L 297 526 L 292 516 Z M 259 514 L 269 527 L 268 529 L 267 529 L 259 520 L 258 518 L 258 515 Z M 420 508 L 422 510 L 421 517 L 417 524 L 417 526 L 414 528 L 413 527 L 413 523 L 416 518 L 418 510 Z M 437 507 L 438 510 L 435 514 L 434 511 L 435 508 Z M 244 498 L 246 499 L 247 503 L 251 511 L 251 514 L 249 515 L 245 510 L 244 504 L 243 503 L 243 499 Z M 454 493 L 456 492 L 457 495 L 455 496 Z M 437 459 L 440 461 L 442 465 L 442 468 L 443 469 L 443 472 L 442 473 L 440 473 L 438 471 L 438 465 L 436 460 Z M 464 426 L 467 424 L 473 430 L 473 432 L 471 433 L 468 431 Z M 539 319 L 538 320 L 567 347 L 567 348 L 565 349 L 568 349 L 569 348 L 567 346 L 566 346 L 551 331 L 539 321 L 541 319 L 545 319 Z M 433 313 L 432 316 L 436 323 L 438 324 L 438 320 Z M 422 313 L 419 313 L 417 315 L 414 316 L 416 318 L 419 318 L 422 315 Z M 380 310 L 380 312 L 385 317 L 389 317 L 391 319 L 394 317 L 394 312 L 393 312 L 393 315 L 390 317 L 381 309 Z M 325 306 L 323 305 L 320 307 L 319 309 L 321 309 Z M 435 299 L 434 301 L 436 304 L 439 306 L 440 303 Z M 385 294 L 384 295 L 385 300 L 392 307 L 393 306 L 389 300 L 388 295 Z M 314 291 L 309 294 L 308 297 L 309 299 L 312 296 Z M 422 289 L 422 293 L 419 297 L 423 302 L 423 305 L 424 306 L 423 310 L 426 311 L 427 308 L 426 305 L 423 302 L 423 292 L 424 290 Z M 511 280 L 510 281 L 511 283 L 527 292 L 529 292 L 531 294 L 530 296 L 525 296 L 524 297 L 524 299 L 530 303 L 526 301 L 524 298 L 526 296 L 532 296 L 532 294 L 519 288 L 511 282 L 513 280 Z M 260 271 L 256 273 L 255 275 L 255 279 L 252 285 L 255 284 L 260 280 L 257 277 L 261 272 Z M 422 261 L 418 261 L 415 263 L 415 264 L 417 265 L 421 263 Z M 262 262 L 263 263 L 269 263 L 270 261 L 269 260 L 264 260 Z M 267 251 L 267 252 L 270 254 L 273 253 L 273 252 L 270 250 Z M 402 244 L 401 243 L 396 243 L 382 248 L 369 250 L 368 251 L 364 251 L 363 252 L 358 252 L 357 253 L 342 253 L 341 252 L 335 252 L 334 251 L 328 251 L 325 250 L 322 254 L 327 261 L 341 272 L 352 278 L 361 278 L 364 276 L 368 277 L 372 273 L 377 271 L 381 267 L 385 265 L 399 252 L 402 247 Z M 389 259 L 383 265 L 376 270 L 373 271 L 369 275 L 366 275 L 365 274 L 369 269 L 373 268 L 386 258 Z M 337 255 L 338 254 L 342 254 L 343 256 L 342 257 L 338 257 Z M 324 254 L 326 252 L 328 254 L 327 255 L 330 259 L 349 272 L 362 273 L 363 275 L 361 277 L 355 278 L 350 276 L 348 274 L 346 274 L 335 267 L 324 256 Z M 251 208 L 253 211 L 257 208 L 260 212 L 261 217 L 269 222 L 281 238 L 281 241 L 282 242 L 281 246 L 277 249 L 272 244 L 268 236 L 265 239 L 263 237 L 265 239 L 269 238 L 275 248 L 279 249 L 281 247 L 281 244 L 283 242 L 285 242 L 291 245 L 295 249 L 298 248 L 298 244 L 291 237 L 285 235 L 276 230 L 266 219 L 263 218 L 261 216 L 258 207 L 256 207 L 254 210 Z M 290 242 L 293 241 L 297 246 L 295 247 Z M 128 183 L 132 206 L 136 218 L 139 223 L 139 225 L 152 246 L 165 259 L 165 262 L 163 264 L 156 264 L 157 267 L 170 277 L 181 282 L 184 286 L 184 288 L 182 290 L 176 290 L 175 292 L 182 296 L 184 296 L 187 298 L 189 298 L 192 300 L 201 303 L 203 305 L 203 307 L 201 309 L 199 309 L 198 312 L 217 317 L 219 319 L 219 321 L 216 324 L 217 326 L 225 328 L 230 331 L 233 331 L 238 320 L 240 318 L 244 317 L 247 320 L 247 325 L 240 345 L 239 352 L 229 366 L 230 367 L 235 366 L 237 368 L 237 371 L 221 390 L 222 392 L 229 390 L 231 393 L 222 407 L 216 420 L 217 423 L 222 420 L 224 422 L 224 426 L 222 429 L 220 437 L 225 422 L 223 420 L 221 420 L 219 422 L 216 420 L 220 411 L 222 409 L 225 402 L 231 393 L 230 390 L 224 391 L 223 388 L 232 376 L 237 371 L 237 367 L 236 366 L 233 366 L 232 367 L 230 365 L 238 353 L 240 351 L 242 351 L 245 348 L 248 347 L 256 339 L 265 326 L 265 323 L 263 322 L 255 327 L 248 334 L 245 333 L 245 329 L 247 325 L 248 318 L 250 316 L 252 309 L 256 302 L 258 294 L 257 293 L 253 293 L 248 296 L 241 305 L 234 305 L 225 302 L 221 299 L 222 297 L 231 295 L 233 293 L 231 290 L 222 288 L 210 280 L 200 280 L 194 277 L 195 274 L 202 273 L 204 270 L 200 266 L 193 264 L 191 262 L 189 262 L 178 256 L 164 243 L 151 226 L 150 223 L 148 221 L 148 219 L 145 216 L 144 213 L 135 200 L 133 201 L 131 199 L 130 190 L 129 189 L 129 185 Z M 263 323 L 265 325 L 255 339 L 249 344 L 248 342 L 253 336 L 252 332 L 257 327 Z M 255 293 L 257 295 L 256 301 L 250 312 L 250 314 L 247 316 L 246 315 L 246 312 L 252 300 L 251 299 L 247 304 L 245 303 L 245 301 L 249 296 Z M 220 290 L 221 289 L 229 290 L 231 293 L 229 295 L 223 296 L 222 295 L 222 292 L 221 292 Z M 191 266 L 194 265 L 202 270 L 200 272 L 198 272 Z M 380 145 L 376 145 L 373 151 L 366 158 L 357 162 L 366 158 L 373 151 L 374 148 L 377 145 L 379 145 L 383 149 L 385 153 L 385 157 L 386 158 L 386 184 L 385 185 L 385 189 L 384 190 L 382 200 L 374 216 L 368 222 L 364 224 L 358 229 L 352 231 L 348 231 L 347 232 L 342 232 L 333 229 L 328 226 L 312 210 L 304 198 L 300 189 L 305 200 L 314 213 L 326 225 L 334 230 L 336 230 L 339 232 L 351 232 L 352 231 L 355 231 L 361 228 L 369 222 L 376 214 L 383 198 L 383 195 L 386 186 L 386 177 L 387 176 L 386 156 L 383 148 Z M 93 137 L 94 143 L 101 157 L 103 159 L 103 161 L 108 167 L 116 180 L 116 190 L 116 179 L 100 155 L 98 149 L 94 142 Z M 249 142 L 247 147 L 247 151 L 253 158 L 258 158 L 260 159 L 264 157 L 274 147 L 276 148 L 276 157 L 276 146 L 277 145 L 277 142 L 281 137 L 283 137 L 286 140 L 286 143 L 285 144 L 285 157 L 287 161 L 291 165 L 295 167 L 291 165 L 287 161 L 285 157 L 285 145 L 286 142 L 288 141 L 290 145 L 297 152 L 300 153 L 296 151 L 290 145 L 287 139 L 287 133 L 287 138 L 286 139 L 284 137 L 279 138 L 272 132 L 264 132 L 255 136 Z M 256 137 L 259 138 L 253 144 L 255 149 L 255 152 L 257 154 L 260 154 L 262 152 L 264 153 L 264 155 L 260 158 L 252 157 L 248 152 L 248 146 L 249 144 Z M 261 135 L 265 133 L 272 133 L 276 136 L 276 140 L 273 142 L 272 141 L 273 140 L 272 137 L 269 137 L 268 136 L 262 137 Z M 487 126 L 484 126 L 483 127 L 483 130 L 491 138 L 498 148 L 496 151 L 492 149 L 488 149 L 487 150 L 488 154 L 493 162 L 495 170 L 493 172 L 491 170 L 487 170 L 486 171 L 487 174 L 485 175 L 483 170 L 480 167 L 480 164 L 474 159 L 466 157 L 465 158 L 474 168 L 474 170 L 472 172 L 468 172 L 467 173 L 473 177 L 473 181 L 470 184 L 467 182 L 462 182 L 462 184 L 465 188 L 465 191 L 466 192 L 464 194 L 460 193 L 457 191 L 453 191 L 452 192 L 458 197 L 460 200 L 460 202 L 458 204 L 457 203 L 454 204 L 451 208 L 451 213 L 449 215 L 447 213 L 443 212 L 444 215 L 443 223 L 440 224 L 437 220 L 435 222 L 434 225 L 434 232 L 432 234 L 430 232 L 430 228 L 428 227 L 424 231 L 423 234 L 421 236 L 418 236 L 410 243 L 407 249 L 407 252 L 408 253 L 411 252 L 412 249 L 419 241 L 421 242 L 421 247 L 423 249 L 427 249 L 430 246 L 433 246 L 434 247 L 446 247 L 450 250 L 453 250 L 457 245 L 460 244 L 462 242 L 465 242 L 466 243 L 470 243 L 473 245 L 476 245 L 479 247 L 481 247 L 486 250 L 488 250 L 493 253 L 497 254 L 498 256 L 497 257 L 494 257 L 492 260 L 494 262 L 503 266 L 507 269 L 503 266 L 496 263 L 493 260 L 495 257 L 501 257 L 501 256 L 476 245 L 473 242 L 475 240 L 478 240 L 478 239 L 473 238 L 470 235 L 473 231 L 468 231 L 465 228 L 475 216 L 479 208 L 481 202 L 481 193 L 483 191 L 487 194 L 488 193 L 488 176 L 487 175 L 487 172 L 490 170 L 495 174 L 496 173 L 496 170 L 494 164 L 490 156 L 488 154 L 488 151 L 490 149 L 497 151 L 498 148 L 493 140 L 483 130 L 483 128 L 485 126 Z M 446 245 L 448 243 L 453 243 L 454 244 L 453 246 L 449 246 L 448 247 Z M 444 238 L 446 241 L 439 246 L 437 243 L 441 238 Z M 458 223 L 460 225 L 457 228 L 454 234 L 452 236 L 450 236 L 449 235 L 450 230 Z M 390 128 L 391 135 L 397 141 L 409 146 L 429 146 L 432 144 L 434 144 L 440 137 L 440 131 L 438 127 L 434 123 L 425 119 L 420 119 L 419 118 L 405 118 L 404 119 L 401 119 L 395 122 Z M 391 127 L 396 122 L 403 119 L 408 119 L 409 118 L 424 119 L 430 121 L 438 128 L 440 131 L 440 136 L 435 142 L 426 146 L 414 146 L 413 145 L 408 145 L 405 143 L 398 141 L 391 134 Z M 284 114 L 285 121 L 291 126 L 288 131 L 289 129 L 294 125 L 300 122 L 302 122 L 299 122 L 298 121 L 301 117 L 296 123 L 293 125 L 289 125 L 285 121 Z M 248 114 L 244 123 L 245 133 L 234 145 L 233 148 L 236 149 L 241 147 L 243 149 L 243 151 L 237 162 L 236 168 L 237 169 L 239 168 L 242 168 L 243 169 L 242 181 L 241 182 L 241 189 L 243 191 L 246 189 L 249 190 L 249 203 L 250 206 L 249 203 L 249 189 L 247 187 L 246 187 L 244 190 L 241 188 L 243 168 L 240 167 L 238 169 L 236 167 L 237 163 L 240 158 L 240 156 L 243 152 L 243 148 L 242 147 L 238 147 L 237 148 L 234 147 L 237 142 L 245 134 L 244 123 Z M 230 109 L 230 122 L 227 130 L 230 125 L 232 127 L 232 131 L 226 137 L 225 136 L 226 132 L 225 136 L 223 138 L 223 140 L 219 146 L 219 149 L 222 153 L 222 144 L 224 140 L 232 131 L 232 121 L 236 113 L 234 117 L 232 118 L 230 113 Z M 219 146 L 221 145 L 222 148 L 220 149 Z M 312 111 L 313 113 L 317 113 L 322 111 L 333 111 L 341 114 L 345 114 L 346 113 L 346 110 L 344 108 L 334 104 L 321 105 L 315 108 Z M 336 109 L 337 108 L 340 108 L 343 109 L 345 111 L 342 113 L 339 111 L 337 111 Z M 320 108 L 321 107 L 334 107 L 335 109 L 334 110 L 321 110 Z M 217 93 L 219 93 L 225 97 L 228 102 L 229 107 L 228 101 L 227 100 L 229 99 L 238 108 L 238 110 L 237 111 L 238 110 L 238 107 L 225 95 L 223 90 L 224 92 L 222 94 Z M 125 89 L 122 90 L 118 94 L 117 101 L 118 101 L 118 98 L 122 94 L 127 94 L 132 99 L 135 105 L 135 107 L 137 110 L 137 119 L 132 123 L 128 123 L 124 121 L 120 116 L 117 119 L 114 119 L 111 117 L 107 117 L 105 118 L 103 121 L 102 129 L 108 145 L 110 147 L 120 165 L 127 173 L 127 180 L 128 178 L 128 174 L 121 166 L 114 155 L 114 153 L 111 150 L 105 138 L 102 129 L 103 121 L 107 117 L 111 117 L 113 119 L 113 120 L 108 124 L 107 127 L 108 134 L 110 136 L 110 138 L 117 144 L 123 142 L 126 138 L 127 139 L 126 145 L 127 140 L 134 131 L 144 122 L 153 117 L 159 116 L 160 115 L 168 115 L 169 116 L 172 116 L 178 119 L 184 125 L 188 132 L 188 135 L 189 136 L 189 147 L 187 151 L 182 156 L 175 160 L 169 162 L 166 162 L 165 163 L 162 163 L 161 164 L 157 164 L 151 166 L 141 166 L 135 164 L 128 157 L 126 153 L 126 149 L 126 153 L 129 159 L 133 163 L 139 166 L 153 166 L 154 165 L 158 165 L 159 164 L 170 162 L 176 160 L 178 158 L 180 158 L 187 152 L 189 148 L 190 137 L 189 136 L 189 133 L 184 124 L 178 118 L 171 115 L 158 115 L 149 118 L 146 121 L 142 123 L 127 139 L 126 138 L 126 132 L 125 130 L 117 122 L 117 120 L 120 118 L 128 124 L 131 124 L 135 122 L 137 120 L 138 117 L 138 112 L 134 101 L 136 100 L 138 102 L 139 105 L 133 93 L 131 91 Z M 111 122 L 116 122 L 126 133 L 126 137 L 125 139 L 120 143 L 116 143 L 111 138 L 110 135 L 108 133 L 108 125 Z M 122 91 L 125 89 L 127 89 L 130 93 L 129 94 L 128 93 L 123 93 Z M 148 74 L 144 80 L 144 83 L 150 78 L 153 78 L 158 83 L 159 87 L 161 89 L 162 102 L 161 103 L 161 106 L 157 110 L 151 110 L 146 105 L 145 105 L 145 107 L 143 109 L 140 108 L 140 107 L 142 110 L 145 108 L 147 108 L 152 111 L 157 111 L 161 107 L 162 104 L 162 94 L 164 93 L 166 96 L 166 103 L 168 106 L 172 106 L 179 112 L 182 113 L 185 112 L 189 107 L 189 104 L 190 103 L 192 104 L 193 109 L 195 111 L 199 110 L 200 111 L 196 115 L 192 122 L 193 129 L 197 133 L 204 133 L 210 130 L 213 126 L 215 127 L 205 144 L 205 149 L 217 172 L 221 184 L 225 190 L 228 189 L 231 190 L 234 198 L 233 194 L 230 189 L 230 187 L 228 187 L 227 189 L 225 189 L 220 182 L 217 172 L 211 161 L 209 155 L 205 149 L 205 145 L 211 137 L 217 123 L 218 111 L 216 106 L 213 103 L 208 103 L 204 105 L 197 111 L 195 111 L 193 109 L 193 96 L 192 95 L 192 86 L 191 85 L 191 82 L 188 78 L 186 77 L 182 77 L 180 80 L 183 81 L 187 85 L 189 91 L 189 106 L 184 112 L 180 112 L 175 108 L 172 102 L 171 102 L 170 105 L 168 105 L 166 103 L 166 93 L 165 92 L 165 88 L 164 87 L 164 84 L 160 77 L 156 73 L 150 73 Z M 210 107 L 213 111 L 213 121 L 210 127 L 205 132 L 203 133 L 199 133 L 193 128 L 193 121 L 195 117 L 203 109 L 206 107 Z M 207 104 L 208 103 L 213 103 L 216 106 L 216 110 L 217 112 L 215 113 L 213 109 L 210 106 L 208 106 Z M 187 81 L 188 80 L 191 84 L 189 85 Z M 148 75 L 150 73 L 154 73 L 156 74 L 157 76 L 156 77 L 149 77 Z M 268 59 L 265 58 L 258 58 L 253 60 L 247 67 L 246 70 L 246 79 L 247 82 L 256 90 L 258 90 L 263 85 L 269 75 L 275 68 L 275 66 L 272 62 Z M 266 74 L 267 76 L 265 78 L 265 80 L 262 82 L 261 79 L 264 75 Z M 268 63 L 269 62 L 273 67 L 272 68 L 270 67 Z M 257 60 L 259 62 L 253 67 L 252 70 L 250 72 L 250 75 L 251 76 L 250 79 L 252 82 L 256 85 L 256 86 L 254 87 L 248 82 L 247 71 L 249 66 L 255 60 Z M 479 49 L 479 53 L 476 61 L 463 73 L 463 76 L 468 81 L 469 84 L 472 87 L 474 92 L 476 94 L 478 99 L 482 104 L 483 107 L 480 110 L 483 109 L 484 107 L 480 102 L 469 82 L 463 75 L 463 73 L 465 71 L 468 70 L 476 61 L 479 53 Z M 444 31 L 437 35 L 432 41 L 431 46 L 434 50 L 440 53 L 448 61 L 455 65 L 457 64 L 464 56 L 465 53 L 465 46 L 462 40 L 456 34 L 450 31 Z M 440 34 L 445 32 L 452 33 L 462 41 L 464 45 L 464 53 L 462 57 L 456 63 L 452 63 L 442 53 L 438 50 L 436 50 L 432 46 L 434 39 Z M 366 23 L 364 22 L 360 24 L 352 32 L 349 32 L 338 26 L 333 26 L 333 28 L 336 33 L 336 35 L 332 38 L 317 38 L 315 39 L 311 44 L 309 44 L 311 44 L 317 38 L 333 38 L 336 36 L 336 32 L 333 28 L 335 26 L 340 27 L 346 31 L 352 33 L 359 25 L 362 23 L 366 24 Z M 413 39 L 416 37 L 416 33 L 421 25 L 426 20 L 435 15 L 438 15 L 439 14 L 450 14 L 459 17 L 461 19 L 464 20 L 477 34 L 477 35 L 473 28 L 467 22 L 461 18 L 450 14 L 439 14 L 427 19 L 419 27 L 416 33 L 416 37 Z" fill="#D8D8D8" fill-rule="evenodd"/><path d="M 447 639 L 460 638 L 461 637 L 473 637 L 474 638 L 483 638 L 484 637 L 476 634 L 459 634 L 458 635 L 449 636 L 447 637 Z M 463 635 L 464 634 L 471 634 L 472 636 L 471 637 L 464 637 Z M 270 523 L 271 527 L 277 535 L 281 539 L 283 539 L 282 536 L 275 527 Z M 397 520 L 396 520 L 395 523 L 395 527 L 397 526 Z M 293 515 L 294 519 L 298 526 L 301 529 L 303 533 L 306 534 L 306 532 L 304 529 L 299 524 L 298 521 L 294 515 Z M 259 515 L 259 518 L 262 523 L 268 528 L 265 522 Z M 420 509 L 417 518 L 414 523 L 414 527 L 416 526 L 416 524 L 420 517 L 420 514 L 421 513 L 421 510 Z M 244 499 L 244 503 L 245 504 L 246 510 L 247 512 L 250 514 L 249 508 L 246 503 L 245 499 Z M 271 494 L 273 502 L 275 506 L 277 507 L 276 501 L 273 495 Z M 437 460 L 439 465 L 439 471 L 442 472 L 441 465 L 439 461 Z M 263 324 L 253 332 L 254 336 L 251 339 L 249 343 L 250 343 L 258 334 L 260 330 L 263 327 L 264 325 Z M 255 294 L 249 297 L 246 301 L 246 303 L 247 303 L 251 298 L 253 300 L 247 312 L 247 315 L 249 314 L 249 312 L 256 298 L 256 295 Z M 221 290 L 221 291 L 223 292 L 223 295 L 229 294 L 230 293 L 229 291 Z M 192 266 L 198 271 L 201 270 L 194 266 Z M 388 259 L 386 259 L 373 269 L 369 270 L 366 274 L 369 274 L 373 270 L 376 269 L 383 264 Z M 325 254 L 325 256 L 335 266 L 346 273 L 348 273 L 350 275 L 355 277 L 358 277 L 362 275 L 362 274 L 349 273 L 335 264 L 328 258 L 326 255 L 327 254 L 326 253 Z M 445 240 L 444 239 L 441 239 L 438 244 L 440 245 L 444 242 Z M 458 224 L 451 230 L 450 235 L 453 234 L 456 228 L 459 225 Z M 279 140 L 277 146 L 277 158 L 280 164 L 287 171 L 296 175 L 298 177 L 298 181 L 299 182 L 300 188 L 308 203 L 311 206 L 313 210 L 328 225 L 333 228 L 342 231 L 347 231 L 348 230 L 352 230 L 358 228 L 364 223 L 368 221 L 373 216 L 381 200 L 383 190 L 384 189 L 384 185 L 385 184 L 385 158 L 384 157 L 384 153 L 382 149 L 379 146 L 377 146 L 375 148 L 374 151 L 366 159 L 358 163 L 349 166 L 346 166 L 345 167 L 334 167 L 333 166 L 328 166 L 327 165 L 323 165 L 318 163 L 312 163 L 303 169 L 297 169 L 291 166 L 286 161 L 284 157 L 284 144 L 285 143 L 285 140 L 283 138 L 281 138 Z M 281 139 L 284 141 L 284 150 L 283 151 L 284 153 L 284 158 L 287 163 L 295 169 L 304 169 L 314 163 L 320 164 L 321 165 L 325 165 L 326 166 L 331 166 L 332 167 L 347 167 L 351 165 L 354 165 L 365 160 L 374 152 L 375 149 L 377 147 L 379 147 L 381 149 L 384 156 L 385 177 L 384 178 L 384 184 L 381 193 L 381 197 L 374 213 L 369 218 L 367 217 L 374 203 L 374 200 L 375 199 L 375 192 L 374 190 L 370 186 L 364 183 L 352 183 L 346 185 L 337 191 L 329 200 L 326 207 L 326 211 L 327 214 L 336 226 L 333 227 L 329 225 L 313 209 L 306 199 L 300 187 L 298 176 L 296 174 L 291 173 L 285 169 L 279 162 L 277 156 L 277 148 L 278 147 L 278 143 Z M 256 138 L 250 144 L 249 146 L 249 152 L 252 156 L 260 157 L 263 155 L 263 153 L 260 155 L 257 155 L 254 152 L 254 149 L 252 144 L 258 138 Z M 262 135 L 262 136 L 265 136 L 266 135 L 272 136 L 274 138 L 273 141 L 275 140 L 275 136 L 272 134 L 265 134 Z M 111 123 L 109 125 L 109 133 L 111 135 L 112 138 L 116 142 L 120 142 L 122 141 L 125 137 L 125 133 L 124 131 L 116 123 Z M 288 132 L 288 139 L 291 145 L 296 150 L 306 155 L 316 155 L 328 150 L 336 143 L 339 138 L 339 131 L 338 129 L 335 126 L 322 121 L 308 121 L 307 122 L 303 122 L 291 128 Z M 288 134 L 290 130 L 296 125 L 298 125 L 304 122 L 308 122 L 309 121 L 321 121 L 325 123 L 328 123 L 334 126 L 339 132 L 338 139 L 330 148 L 323 152 L 314 155 L 308 155 L 298 151 L 289 141 Z M 392 127 L 392 134 L 398 140 L 400 140 L 408 144 L 413 144 L 414 145 L 426 145 L 435 141 L 439 136 L 439 131 L 437 128 L 430 122 L 424 120 L 419 120 L 418 119 L 403 120 L 396 123 Z M 183 125 L 175 118 L 169 117 L 168 116 L 160 116 L 147 121 L 139 127 L 128 140 L 126 148 L 129 157 L 135 163 L 141 165 L 151 165 L 152 164 L 161 163 L 179 157 L 186 151 L 188 147 L 188 136 L 187 135 L 187 132 Z M 321 108 L 321 109 L 334 109 L 334 108 Z M 210 108 L 206 108 L 196 117 L 194 121 L 194 128 L 197 131 L 199 132 L 203 132 L 209 127 L 212 121 L 212 111 Z M 297 99 L 293 99 L 288 104 L 285 112 L 285 118 L 286 121 L 289 124 L 293 124 L 296 122 L 301 116 L 302 106 L 301 103 Z M 296 99 L 301 104 L 301 114 L 300 117 L 293 124 L 289 124 L 287 122 L 285 116 L 286 109 L 289 103 L 292 100 Z M 378 92 L 376 93 L 372 98 L 370 108 L 371 109 L 371 113 L 373 118 L 375 120 L 381 122 L 384 121 L 388 117 L 389 111 L 390 110 L 390 105 L 389 104 L 388 98 L 386 95 L 382 92 Z M 379 92 L 383 93 L 386 96 L 389 102 L 389 113 L 388 116 L 383 121 L 378 121 L 376 120 L 373 117 L 371 112 L 371 102 L 373 97 Z M 257 61 L 255 61 L 250 66 L 248 71 L 249 82 L 254 86 L 255 86 L 255 85 L 253 84 L 249 79 L 250 77 L 249 72 L 251 70 L 252 67 L 258 62 Z M 306 62 L 303 60 L 300 60 L 294 63 L 287 70 L 287 75 L 288 76 L 291 76 L 297 71 L 305 68 L 307 65 Z M 306 63 L 306 66 L 304 68 L 298 70 L 291 76 L 289 76 L 287 74 L 287 71 L 289 68 L 298 61 L 304 61 Z M 371 53 L 371 56 L 374 58 L 382 60 L 391 65 L 394 63 L 394 58 L 389 53 L 382 50 L 374 50 Z M 371 54 L 375 50 L 381 50 L 388 53 L 394 59 L 394 62 L 392 64 L 390 64 L 381 59 L 373 57 Z M 440 35 L 435 39 L 433 46 L 436 49 L 438 49 L 442 52 L 452 62 L 456 62 L 461 57 L 463 53 L 463 45 L 461 41 L 452 34 L 445 33 Z M 456 14 L 453 14 L 452 13 L 444 13 L 442 12 L 441 13 L 438 13 L 432 15 L 426 18 L 418 26 L 416 29 L 415 35 L 413 37 L 411 37 L 402 33 L 398 33 L 392 31 L 386 31 L 385 30 L 373 30 L 372 31 L 367 31 L 365 29 L 367 26 L 368 22 L 365 20 L 359 23 L 351 31 L 348 30 L 346 28 L 344 28 L 342 26 L 336 24 L 333 24 L 331 26 L 332 29 L 334 31 L 334 35 L 333 36 L 321 36 L 320 37 L 315 37 L 309 43 L 297 48 L 288 55 L 285 53 L 284 50 L 280 46 L 268 40 L 259 40 L 258 41 L 252 42 L 243 47 L 236 54 L 232 62 L 231 69 L 230 70 L 231 81 L 236 91 L 244 98 L 250 100 L 252 103 L 243 122 L 243 130 L 244 132 L 232 146 L 232 149 L 233 150 L 237 150 L 239 149 L 241 151 L 235 163 L 234 169 L 236 171 L 239 170 L 242 171 L 241 173 L 241 178 L 240 179 L 240 190 L 242 192 L 246 192 L 247 193 L 248 204 L 250 210 L 253 214 L 257 212 L 259 214 L 260 218 L 264 221 L 266 221 L 273 229 L 280 240 L 280 245 L 278 247 L 273 243 L 273 241 L 268 234 L 266 234 L 265 236 L 263 235 L 262 231 L 257 223 L 254 225 L 252 224 L 249 214 L 247 212 L 246 209 L 244 209 L 243 211 L 240 210 L 230 185 L 228 184 L 225 186 L 223 184 L 216 168 L 216 166 L 212 159 L 212 157 L 207 149 L 207 145 L 213 137 L 219 122 L 219 109 L 218 106 L 214 102 L 207 102 L 202 105 L 198 109 L 196 109 L 194 107 L 194 90 L 193 89 L 193 84 L 192 81 L 188 76 L 185 75 L 181 76 L 175 82 L 171 94 L 171 99 L 168 101 L 167 100 L 166 86 L 162 77 L 155 71 L 151 71 L 147 73 L 143 78 L 142 81 L 142 87 L 141 88 L 143 105 L 142 106 L 140 105 L 137 97 L 130 89 L 128 88 L 122 89 L 118 92 L 116 96 L 116 109 L 117 110 L 118 116 L 117 117 L 106 116 L 102 120 L 101 123 L 101 129 L 106 144 L 113 155 L 115 160 L 126 174 L 126 182 L 128 188 L 129 199 L 130 200 L 130 203 L 131 204 L 131 207 L 133 211 L 134 217 L 148 243 L 163 260 L 161 262 L 154 262 L 153 264 L 155 267 L 164 275 L 170 279 L 177 282 L 182 286 L 180 288 L 174 289 L 173 290 L 173 292 L 175 294 L 185 299 L 197 303 L 201 306 L 194 311 L 196 313 L 198 313 L 204 316 L 215 318 L 217 320 L 212 324 L 214 326 L 223 330 L 225 330 L 228 332 L 233 333 L 235 331 L 239 322 L 241 320 L 244 320 L 246 322 L 245 328 L 243 331 L 242 337 L 240 340 L 238 351 L 228 365 L 228 368 L 229 369 L 234 368 L 236 370 L 224 384 L 219 392 L 220 393 L 225 393 L 227 392 L 229 395 L 226 398 L 222 406 L 220 408 L 214 422 L 215 425 L 217 425 L 221 422 L 223 424 L 217 441 L 216 454 L 217 455 L 220 452 L 222 454 L 222 458 L 221 459 L 221 477 L 222 478 L 225 476 L 227 477 L 229 488 L 234 498 L 234 501 L 232 503 L 230 501 L 228 502 L 226 510 L 221 518 L 221 522 L 225 521 L 227 524 L 225 526 L 225 528 L 222 533 L 222 535 L 220 538 L 220 541 L 222 542 L 225 540 L 227 543 L 225 546 L 224 552 L 222 556 L 222 559 L 220 563 L 220 569 L 225 568 L 227 570 L 224 583 L 228 586 L 228 595 L 230 600 L 230 607 L 231 608 L 233 619 L 236 626 L 234 628 L 231 629 L 223 629 L 222 630 L 219 630 L 213 632 L 208 635 L 203 640 L 199 649 L 198 659 L 200 665 L 205 669 L 208 668 L 207 666 L 208 655 L 214 648 L 216 648 L 218 650 L 215 659 L 215 670 L 218 672 L 221 672 L 222 673 L 229 673 L 230 674 L 232 673 L 232 670 L 231 669 L 232 660 L 234 656 L 238 652 L 240 652 L 242 654 L 240 660 L 240 665 L 239 666 L 239 671 L 241 675 L 275 675 L 276 674 L 282 674 L 283 673 L 292 673 L 293 672 L 305 671 L 306 670 L 310 670 L 314 668 L 317 668 L 323 664 L 326 658 L 326 653 L 327 652 L 327 643 L 326 642 L 325 631 L 326 630 L 331 631 L 332 629 L 332 604 L 331 603 L 331 599 L 333 597 L 336 599 L 338 598 L 337 587 L 339 583 L 341 573 L 340 572 L 336 572 L 335 571 L 332 571 L 315 564 L 311 560 L 311 558 L 312 557 L 316 557 L 317 558 L 320 558 L 332 562 L 336 562 L 342 564 L 348 564 L 349 565 L 355 565 L 356 566 L 364 566 L 365 565 L 372 565 L 373 564 L 379 564 L 380 563 L 382 563 L 385 566 L 385 568 L 382 571 L 380 571 L 378 573 L 378 575 L 380 577 L 380 579 L 382 582 L 383 590 L 385 596 L 386 597 L 388 596 L 390 597 L 390 601 L 389 602 L 389 612 L 393 615 L 393 631 L 394 633 L 396 633 L 398 631 L 400 633 L 400 648 L 398 654 L 398 668 L 400 672 L 404 676 L 410 679 L 416 681 L 419 681 L 420 682 L 438 684 L 439 683 L 438 666 L 441 662 L 444 662 L 446 664 L 446 667 L 447 668 L 447 683 L 448 684 L 469 684 L 471 681 L 469 663 L 473 660 L 477 663 L 479 668 L 479 682 L 480 683 L 493 682 L 497 679 L 497 667 L 495 661 L 497 658 L 499 658 L 504 663 L 505 670 L 506 671 L 506 674 L 505 675 L 505 678 L 506 679 L 512 677 L 517 671 L 518 668 L 518 658 L 515 650 L 507 642 L 501 640 L 498 637 L 498 635 L 501 632 L 502 629 L 502 625 L 504 619 L 504 613 L 505 612 L 505 588 L 504 585 L 507 581 L 503 573 L 503 571 L 505 570 L 508 573 L 511 572 L 508 563 L 506 560 L 506 558 L 500 547 L 501 544 L 507 547 L 509 546 L 508 540 L 501 525 L 502 523 L 506 523 L 507 522 L 506 515 L 505 514 L 505 508 L 504 507 L 504 497 L 498 495 L 490 487 L 487 482 L 485 476 L 484 462 L 485 461 L 486 453 L 490 443 L 490 438 L 488 433 L 486 419 L 485 418 L 481 399 L 477 387 L 467 367 L 467 365 L 460 353 L 459 347 L 461 345 L 466 350 L 479 371 L 479 373 L 482 378 L 482 380 L 488 393 L 489 399 L 492 406 L 492 409 L 494 414 L 494 418 L 496 423 L 496 427 L 497 428 L 497 432 L 498 433 L 498 437 L 499 438 L 499 445 L 494 458 L 494 473 L 496 479 L 502 485 L 508 486 L 513 481 L 515 474 L 518 470 L 522 473 L 522 478 L 520 482 L 520 485 L 514 494 L 514 496 L 519 502 L 526 505 L 530 505 L 534 503 L 537 500 L 543 488 L 546 485 L 548 487 L 548 493 L 547 494 L 547 497 L 543 503 L 543 506 L 544 507 L 552 507 L 557 505 L 563 498 L 566 488 L 569 484 L 572 487 L 571 494 L 569 498 L 572 499 L 579 492 L 586 478 L 586 475 L 588 470 L 588 466 L 589 465 L 589 445 L 588 444 L 588 440 L 587 438 L 589 436 L 591 437 L 592 435 L 586 418 L 586 415 L 584 409 L 582 406 L 583 403 L 585 404 L 587 403 L 586 399 L 584 397 L 579 387 L 573 379 L 575 377 L 576 378 L 579 378 L 580 376 L 561 351 L 562 349 L 568 350 L 570 351 L 571 349 L 554 332 L 543 323 L 544 321 L 552 321 L 553 319 L 544 311 L 527 299 L 529 297 L 534 297 L 535 295 L 532 292 L 530 292 L 520 287 L 515 283 L 516 281 L 523 281 L 524 279 L 497 261 L 498 259 L 503 259 L 504 258 L 501 254 L 499 254 L 490 249 L 488 249 L 479 245 L 478 242 L 482 240 L 480 238 L 475 237 L 474 234 L 476 232 L 474 230 L 471 230 L 468 227 L 476 217 L 482 204 L 482 196 L 484 194 L 488 196 L 490 193 L 490 178 L 489 177 L 489 173 L 491 172 L 495 176 L 498 174 L 496 165 L 490 154 L 490 152 L 491 151 L 498 152 L 500 149 L 494 139 L 485 130 L 487 128 L 496 128 L 497 127 L 497 124 L 493 120 L 482 113 L 482 111 L 485 110 L 486 107 L 479 98 L 473 86 L 465 75 L 465 74 L 474 66 L 479 57 L 480 50 L 481 49 L 479 36 L 476 30 L 468 21 Z M 457 15 L 467 21 L 474 28 L 479 37 L 479 40 L 480 41 L 480 53 L 478 59 L 475 64 L 468 71 L 464 73 L 464 75 L 470 82 L 475 92 L 485 107 L 485 108 L 483 110 L 481 110 L 480 112 L 483 115 L 492 120 L 497 125 L 495 128 L 485 127 L 484 130 L 494 140 L 499 148 L 499 150 L 497 152 L 492 150 L 489 151 L 489 154 L 491 156 L 495 164 L 497 170 L 497 173 L 495 175 L 490 171 L 488 172 L 488 175 L 489 176 L 489 193 L 487 195 L 483 192 L 482 193 L 482 202 L 480 208 L 476 216 L 466 228 L 468 230 L 473 230 L 474 231 L 471 235 L 473 237 L 476 237 L 479 239 L 478 241 L 475 241 L 474 242 L 476 244 L 484 248 L 491 250 L 502 256 L 501 258 L 495 258 L 494 260 L 496 262 L 503 265 L 522 278 L 521 281 L 516 281 L 514 280 L 512 282 L 519 287 L 527 291 L 529 291 L 533 294 L 532 297 L 526 297 L 525 299 L 542 310 L 552 319 L 550 321 L 547 321 L 546 320 L 541 320 L 540 321 L 551 330 L 570 348 L 568 350 L 565 350 L 561 348 L 558 349 L 568 360 L 570 364 L 579 375 L 578 377 L 575 377 L 574 376 L 571 377 L 581 391 L 586 400 L 584 403 L 582 401 L 581 401 L 580 403 L 585 412 L 586 419 L 591 432 L 590 435 L 586 435 L 588 441 L 588 446 L 589 447 L 589 462 L 588 463 L 588 468 L 587 469 L 586 477 L 580 490 L 572 498 L 570 496 L 572 491 L 572 485 L 569 483 L 566 487 L 562 499 L 557 504 L 553 506 L 547 507 L 543 504 L 547 497 L 547 494 L 548 493 L 548 486 L 547 485 L 545 485 L 543 487 L 539 496 L 533 503 L 531 504 L 524 504 L 520 502 L 516 498 L 515 494 L 518 490 L 521 483 L 521 480 L 522 479 L 522 471 L 520 469 L 518 469 L 516 471 L 516 473 L 512 482 L 508 485 L 504 485 L 500 483 L 496 478 L 495 472 L 494 471 L 494 461 L 500 443 L 500 439 L 498 435 L 498 430 L 496 425 L 496 421 L 495 420 L 494 412 L 491 404 L 491 401 L 486 386 L 484 383 L 484 381 L 476 364 L 466 349 L 461 344 L 458 346 L 458 349 L 460 355 L 466 364 L 467 368 L 476 386 L 480 398 L 480 401 L 482 406 L 482 410 L 485 419 L 485 423 L 486 424 L 489 443 L 484 457 L 484 465 L 483 466 L 484 469 L 484 475 L 486 481 L 491 490 L 497 495 L 502 497 L 504 499 L 504 510 L 505 511 L 506 521 L 505 522 L 501 521 L 500 523 L 507 539 L 508 544 L 506 546 L 504 544 L 499 542 L 498 545 L 500 547 L 506 559 L 506 562 L 510 570 L 508 572 L 502 569 L 502 572 L 506 579 L 503 583 L 504 591 L 505 592 L 505 605 L 504 606 L 504 617 L 503 618 L 502 627 L 501 628 L 501 631 L 497 635 L 497 637 L 499 639 L 509 644 L 515 651 L 517 656 L 517 660 L 518 661 L 518 667 L 517 670 L 510 678 L 507 678 L 506 677 L 506 669 L 505 668 L 505 665 L 503 661 L 500 658 L 497 657 L 495 659 L 496 668 L 497 669 L 497 678 L 494 681 L 491 682 L 481 683 L 479 681 L 480 678 L 480 671 L 479 670 L 478 664 L 475 660 L 471 660 L 469 662 L 470 682 L 468 684 L 449 684 L 447 682 L 447 665 L 444 661 L 441 661 L 438 664 L 438 682 L 437 683 L 422 682 L 421 681 L 417 681 L 406 677 L 400 671 L 398 666 L 398 657 L 399 656 L 399 651 L 401 646 L 400 631 L 399 630 L 396 632 L 394 631 L 393 628 L 394 611 L 390 611 L 389 610 L 390 608 L 390 595 L 389 594 L 388 595 L 385 594 L 383 588 L 383 583 L 379 575 L 379 573 L 381 571 L 383 571 L 386 568 L 386 565 L 384 563 L 366 564 L 365 565 L 344 564 L 339 562 L 330 561 L 316 556 L 311 556 L 309 558 L 310 561 L 320 567 L 322 567 L 325 569 L 334 572 L 338 572 L 340 574 L 338 584 L 337 585 L 337 596 L 336 597 L 334 597 L 332 595 L 330 596 L 331 610 L 332 611 L 332 624 L 330 629 L 328 629 L 326 627 L 324 629 L 324 633 L 326 638 L 326 656 L 324 661 L 319 666 L 317 666 L 311 669 L 307 669 L 306 670 L 294 671 L 293 672 L 288 672 L 287 673 L 270 674 L 269 675 L 242 675 L 240 673 L 240 661 L 241 660 L 242 653 L 241 652 L 237 652 L 234 655 L 231 662 L 231 671 L 229 673 L 225 673 L 224 672 L 217 671 L 215 669 L 215 660 L 219 649 L 217 647 L 214 647 L 208 654 L 207 666 L 204 668 L 199 662 L 199 651 L 203 640 L 210 634 L 221 630 L 235 629 L 236 628 L 238 629 L 242 629 L 243 630 L 247 630 L 252 632 L 255 631 L 253 629 L 245 626 L 238 626 L 234 621 L 233 615 L 232 614 L 232 610 L 230 605 L 230 597 L 228 594 L 228 584 L 225 581 L 225 578 L 227 573 L 227 567 L 225 567 L 222 569 L 220 567 L 222 557 L 224 553 L 224 550 L 228 542 L 227 539 L 225 539 L 222 541 L 220 539 L 223 534 L 225 527 L 227 525 L 227 521 L 226 520 L 223 521 L 221 519 L 223 517 L 228 505 L 230 503 L 234 504 L 235 503 L 235 500 L 229 486 L 228 476 L 226 473 L 223 476 L 221 474 L 221 462 L 222 461 L 222 454 L 223 451 L 221 450 L 218 453 L 216 452 L 217 443 L 218 442 L 218 439 L 219 438 L 219 435 L 221 429 L 223 426 L 223 422 L 222 421 L 217 424 L 215 422 L 216 417 L 221 407 L 230 393 L 229 391 L 222 393 L 220 390 L 236 371 L 236 368 L 235 367 L 230 368 L 228 366 L 238 352 L 239 345 L 246 325 L 246 320 L 244 318 L 240 319 L 233 332 L 230 332 L 225 329 L 217 327 L 215 325 L 218 321 L 217 318 L 207 316 L 197 312 L 197 310 L 199 308 L 202 307 L 201 304 L 192 301 L 189 299 L 187 299 L 184 297 L 182 297 L 174 292 L 176 289 L 182 289 L 183 286 L 181 283 L 170 278 L 164 273 L 160 271 L 155 265 L 156 263 L 163 263 L 164 262 L 164 259 L 151 246 L 138 225 L 129 198 L 129 192 L 128 191 L 127 181 L 126 180 L 126 173 L 117 162 L 105 141 L 101 129 L 102 121 L 103 119 L 107 116 L 111 116 L 114 118 L 117 118 L 120 115 L 124 120 L 128 122 L 132 122 L 136 119 L 136 110 L 131 99 L 127 95 L 122 95 L 119 98 L 119 101 L 118 102 L 116 101 L 117 94 L 122 89 L 125 88 L 131 90 L 134 93 L 139 102 L 141 108 L 143 108 L 145 104 L 151 109 L 157 109 L 160 106 L 160 103 L 161 102 L 161 94 L 160 93 L 160 89 L 158 87 L 157 83 L 153 79 L 150 79 L 145 84 L 143 83 L 143 80 L 145 76 L 150 72 L 156 72 L 163 80 L 165 84 L 166 92 L 167 93 L 167 103 L 170 104 L 170 102 L 172 101 L 178 110 L 180 111 L 184 111 L 188 106 L 188 91 L 186 85 L 183 82 L 181 82 L 179 79 L 182 76 L 186 76 L 188 77 L 192 82 L 192 85 L 193 86 L 194 109 L 197 110 L 204 104 L 208 102 L 213 102 L 217 106 L 219 111 L 219 118 L 218 119 L 218 123 L 216 129 L 212 137 L 206 145 L 206 149 L 210 155 L 212 161 L 218 172 L 221 182 L 225 188 L 227 188 L 228 186 L 231 187 L 231 189 L 234 194 L 235 199 L 237 202 L 240 211 L 242 213 L 244 211 L 247 212 L 249 215 L 252 225 L 254 227 L 257 224 L 260 227 L 263 236 L 265 238 L 268 235 L 270 237 L 273 244 L 278 248 L 280 246 L 281 243 L 280 238 L 268 222 L 265 220 L 263 220 L 260 217 L 259 212 L 257 209 L 254 212 L 251 210 L 248 203 L 248 190 L 246 190 L 243 192 L 240 189 L 240 182 L 241 181 L 242 169 L 237 170 L 235 168 L 236 162 L 242 151 L 242 149 L 240 148 L 234 150 L 232 147 L 244 133 L 243 123 L 252 104 L 252 101 L 251 100 L 245 98 L 236 90 L 231 80 L 231 68 L 232 67 L 232 63 L 236 55 L 245 46 L 253 42 L 261 41 L 262 40 L 270 41 L 278 45 L 284 51 L 285 54 L 288 55 L 301 46 L 311 43 L 313 40 L 317 37 L 332 37 L 334 36 L 335 33 L 332 28 L 333 25 L 338 25 L 349 31 L 352 31 L 360 23 L 364 21 L 367 23 L 365 28 L 365 31 L 366 32 L 370 32 L 371 31 L 388 31 L 389 32 L 394 32 L 395 33 L 404 34 L 407 36 L 414 38 L 415 37 L 415 33 L 418 27 L 427 18 L 439 13 L 450 13 L 451 14 Z M 463 7 L 454 4 L 447 4 L 446 3 L 432 5 L 426 7 L 421 10 L 412 18 L 410 22 L 407 25 L 399 24 L 398 23 L 392 23 L 391 22 L 377 22 L 375 20 L 374 16 L 372 14 L 367 12 L 360 13 L 356 15 L 351 20 L 348 20 L 339 16 L 330 16 L 325 20 L 324 22 L 324 26 L 320 29 L 314 29 L 311 31 L 309 31 L 290 42 L 279 34 L 277 34 L 271 31 L 257 31 L 256 32 L 249 33 L 239 38 L 230 46 L 226 52 L 222 60 L 221 66 L 220 67 L 220 80 L 223 89 L 226 95 L 239 107 L 239 110 L 237 112 L 233 121 L 233 131 L 225 140 L 223 144 L 223 153 L 222 154 L 219 151 L 218 146 L 222 140 L 222 138 L 224 136 L 224 134 L 226 131 L 229 122 L 229 108 L 227 102 L 224 97 L 216 93 L 206 93 L 204 91 L 203 84 L 200 76 L 194 69 L 188 66 L 182 66 L 176 68 L 171 72 L 169 72 L 161 64 L 157 62 L 149 62 L 142 65 L 136 71 L 133 78 L 131 80 L 128 80 L 127 79 L 121 80 L 115 83 L 109 88 L 106 95 L 106 105 L 104 107 L 98 109 L 95 112 L 92 118 L 92 122 L 91 123 L 92 125 L 92 133 L 95 142 L 99 149 L 101 155 L 117 179 L 117 192 L 118 193 L 118 197 L 122 209 L 122 212 L 124 216 L 124 219 L 132 236 L 144 253 L 144 265 L 147 271 L 163 286 L 163 293 L 166 298 L 172 303 L 182 307 L 185 311 L 186 316 L 189 319 L 199 323 L 205 331 L 224 341 L 226 341 L 229 344 L 227 351 L 225 353 L 220 363 L 220 366 L 219 367 L 220 376 L 214 383 L 210 392 L 211 398 L 214 402 L 209 410 L 206 419 L 206 430 L 210 434 L 209 440 L 208 441 L 208 445 L 207 446 L 207 458 L 209 463 L 211 465 L 211 474 L 212 475 L 213 481 L 215 485 L 221 491 L 218 500 L 218 503 L 216 506 L 216 508 L 214 511 L 211 520 L 211 523 L 214 529 L 212 532 L 211 538 L 210 539 L 211 545 L 214 549 L 211 558 L 210 568 L 211 569 L 211 572 L 216 577 L 216 589 L 217 590 L 218 602 L 219 603 L 219 607 L 221 613 L 221 618 L 218 621 L 211 622 L 202 627 L 194 635 L 189 644 L 188 651 L 187 652 L 187 658 L 188 659 L 189 666 L 196 674 L 201 677 L 207 679 L 210 679 L 211 680 L 214 680 L 215 681 L 225 682 L 226 683 L 234 683 L 235 684 L 274 684 L 275 683 L 284 683 L 285 682 L 292 682 L 293 681 L 305 680 L 310 678 L 318 677 L 327 673 L 334 666 L 337 659 L 337 651 L 338 650 L 337 647 L 337 639 L 339 637 L 343 627 L 343 607 L 347 603 L 348 600 L 350 580 L 351 577 L 353 575 L 355 576 L 368 576 L 370 578 L 376 601 L 378 605 L 381 608 L 383 628 L 385 634 L 390 642 L 390 647 L 388 652 L 388 660 L 387 661 L 388 669 L 393 679 L 402 686 L 404 686 L 410 689 L 417 690 L 418 691 L 428 692 L 429 693 L 438 693 L 439 694 L 475 694 L 476 693 L 487 693 L 488 692 L 499 691 L 500 690 L 503 690 L 504 689 L 507 689 L 513 687 L 520 683 L 527 675 L 529 669 L 529 655 L 524 644 L 512 633 L 513 626 L 514 625 L 514 621 L 515 620 L 515 610 L 516 609 L 516 584 L 521 578 L 520 568 L 518 562 L 515 557 L 519 552 L 519 543 L 515 534 L 515 531 L 517 529 L 517 518 L 515 514 L 517 512 L 525 516 L 534 516 L 537 515 L 539 517 L 542 518 L 553 518 L 554 517 L 560 516 L 565 513 L 567 513 L 581 505 L 587 499 L 592 492 L 598 478 L 599 470 L 600 469 L 600 464 L 601 463 L 600 443 L 602 440 L 602 434 L 601 433 L 601 428 L 599 424 L 599 421 L 596 415 L 596 411 L 598 407 L 598 403 L 594 393 L 589 386 L 589 384 L 591 381 L 591 378 L 586 368 L 579 360 L 579 358 L 582 354 L 582 351 L 579 344 L 562 327 L 562 324 L 564 320 L 561 314 L 544 299 L 544 295 L 545 293 L 543 289 L 532 280 L 532 276 L 531 274 L 527 270 L 517 263 L 518 258 L 516 254 L 510 249 L 501 245 L 499 243 L 497 243 L 493 239 L 493 235 L 492 233 L 485 225 L 485 221 L 489 216 L 492 207 L 496 203 L 500 195 L 500 186 L 505 181 L 507 177 L 507 167 L 505 163 L 505 160 L 509 155 L 509 147 L 506 140 L 503 136 L 503 134 L 507 128 L 507 125 L 505 120 L 495 111 L 494 104 L 478 77 L 480 73 L 486 66 L 491 53 L 491 41 L 490 40 L 490 37 L 488 31 L 482 21 L 476 15 Z M 223 155 L 224 154 L 228 158 L 226 160 L 223 157 Z M 462 7 L 473 13 L 483 23 L 488 32 L 490 38 L 490 43 L 491 44 L 491 51 L 490 52 L 488 62 L 486 64 L 485 67 L 478 75 L 478 78 L 483 85 L 485 90 L 487 92 L 494 105 L 494 111 L 504 119 L 507 126 L 506 130 L 502 134 L 502 136 L 506 141 L 509 148 L 509 154 L 504 160 L 507 169 L 507 176 L 505 180 L 500 185 L 499 197 L 497 201 L 492 206 L 489 215 L 485 220 L 484 224 L 487 229 L 492 234 L 493 236 L 493 240 L 496 243 L 498 243 L 512 251 L 516 255 L 517 257 L 517 261 L 516 263 L 525 269 L 531 275 L 531 280 L 535 284 L 538 285 L 544 291 L 543 299 L 552 306 L 563 318 L 563 323 L 561 325 L 561 327 L 569 335 L 570 335 L 580 346 L 581 348 L 581 355 L 578 359 L 584 366 L 590 377 L 590 382 L 588 385 L 593 392 L 597 402 L 597 408 L 595 411 L 595 414 L 597 417 L 599 423 L 599 426 L 600 427 L 600 430 L 601 431 L 601 440 L 599 443 L 599 448 L 600 449 L 600 466 L 599 467 L 599 472 L 596 480 L 596 483 L 591 493 L 579 506 L 561 515 L 555 517 L 551 517 L 550 518 L 544 518 L 538 515 L 528 516 L 527 515 L 521 514 L 519 512 L 516 511 L 515 512 L 515 516 L 517 521 L 517 528 L 514 531 L 514 533 L 519 545 L 519 550 L 515 555 L 515 558 L 518 563 L 519 569 L 520 570 L 520 579 L 515 584 L 516 599 L 515 600 L 515 614 L 514 615 L 514 621 L 513 622 L 513 627 L 512 628 L 512 634 L 521 641 L 528 653 L 528 657 L 529 658 L 529 667 L 528 668 L 528 671 L 525 677 L 519 683 L 514 686 L 505 689 L 497 690 L 496 691 L 482 692 L 481 693 L 457 693 L 456 694 L 453 694 L 452 693 L 434 693 L 433 692 L 426 692 L 425 691 L 420 691 L 419 690 L 412 689 L 400 684 L 392 677 L 388 668 L 388 655 L 389 654 L 389 649 L 391 645 L 391 642 L 388 639 L 384 630 L 383 622 L 382 621 L 382 609 L 376 600 L 370 577 L 368 575 L 352 575 L 351 576 L 350 585 L 348 591 L 348 600 L 343 606 L 342 630 L 341 633 L 337 638 L 337 657 L 336 658 L 336 661 L 333 667 L 326 673 L 320 676 L 317 676 L 308 679 L 304 679 L 303 680 L 291 681 L 290 682 L 281 682 L 280 683 L 266 683 L 265 684 L 230 683 L 229 682 L 216 681 L 215 680 L 212 680 L 211 679 L 208 679 L 198 675 L 191 668 L 188 661 L 188 649 L 190 643 L 193 637 L 198 631 L 208 624 L 213 622 L 220 621 L 222 619 L 220 606 L 219 605 L 219 600 L 217 594 L 217 588 L 216 587 L 216 576 L 211 571 L 210 568 L 211 559 L 212 558 L 212 555 L 214 552 L 214 548 L 211 545 L 211 535 L 214 530 L 214 527 L 212 525 L 212 518 L 216 509 L 216 507 L 218 504 L 218 501 L 221 495 L 221 491 L 215 484 L 213 480 L 212 474 L 211 473 L 211 465 L 207 457 L 207 447 L 208 446 L 208 441 L 210 437 L 210 433 L 206 429 L 206 419 L 208 413 L 214 402 L 214 400 L 211 397 L 211 390 L 212 387 L 221 375 L 220 372 L 220 365 L 225 354 L 229 348 L 229 343 L 227 341 L 218 338 L 207 332 L 202 327 L 202 325 L 200 323 L 190 319 L 186 315 L 185 313 L 185 308 L 184 307 L 179 306 L 170 301 L 164 294 L 163 291 L 164 286 L 154 278 L 145 267 L 144 264 L 144 257 L 145 254 L 132 235 L 126 223 L 121 208 L 121 205 L 118 196 L 118 191 L 117 190 L 117 178 L 110 169 L 109 166 L 104 159 L 95 141 L 93 135 L 93 132 L 92 131 L 92 119 L 93 116 L 100 108 L 106 106 L 106 96 L 109 89 L 114 84 L 117 83 L 119 81 L 122 81 L 123 80 L 129 80 L 132 81 L 138 69 L 143 65 L 150 62 L 156 62 L 159 63 L 164 67 L 168 72 L 172 72 L 177 68 L 183 66 L 190 67 L 199 75 L 203 85 L 203 93 L 204 94 L 207 93 L 216 93 L 222 96 L 228 105 L 228 109 L 229 110 L 229 121 L 227 125 L 226 131 L 218 146 L 218 149 L 224 160 L 227 162 L 229 160 L 229 158 L 223 151 L 223 145 L 225 141 L 234 131 L 233 129 L 233 123 L 235 117 L 240 109 L 240 107 L 226 94 L 221 83 L 221 79 L 220 78 L 220 68 L 225 54 L 229 48 L 240 38 L 251 33 L 254 33 L 259 31 L 268 31 L 269 32 L 273 32 L 283 37 L 287 41 L 291 42 L 295 39 L 313 30 L 324 29 L 325 28 L 324 26 L 325 21 L 331 16 L 337 16 L 338 17 L 341 17 L 348 21 L 351 21 L 357 15 L 361 13 L 369 13 L 374 17 L 376 22 L 389 22 L 390 23 L 395 23 L 396 24 L 408 25 L 413 18 L 419 12 L 427 7 L 433 5 L 438 5 L 439 4 L 451 4 L 452 5 L 456 5 Z" fill="#B1B1B1" fill-rule="evenodd"/><path d="M 464 635 L 464 636 L 471 636 L 471 635 Z M 280 141 L 279 143 L 279 147 L 278 148 L 278 156 L 279 157 L 279 160 L 280 162 L 285 168 L 286 168 L 291 172 L 296 173 L 299 176 L 301 187 L 307 199 L 314 208 L 314 209 L 329 224 L 333 226 L 335 226 L 332 221 L 328 217 L 325 211 L 325 207 L 328 200 L 337 190 L 338 190 L 344 185 L 351 183 L 352 182 L 364 182 L 370 185 L 375 190 L 376 192 L 376 199 L 375 200 L 375 203 L 368 217 L 369 217 L 373 213 L 378 203 L 378 201 L 380 197 L 380 193 L 382 189 L 383 178 L 384 177 L 383 156 L 379 148 L 377 148 L 375 152 L 365 161 L 359 164 L 357 164 L 354 166 L 351 166 L 347 168 L 332 168 L 331 167 L 326 167 L 325 166 L 321 166 L 320 165 L 314 164 L 304 170 L 295 170 L 290 166 L 289 166 L 284 160 L 283 158 L 283 153 L 282 152 L 283 150 L 283 141 L 282 140 Z M 289 134 L 289 138 L 292 144 L 298 150 L 304 153 L 307 153 L 308 154 L 314 154 L 315 153 L 318 153 L 321 151 L 323 151 L 327 149 L 335 142 L 338 136 L 338 132 L 334 127 L 328 124 L 325 124 L 321 122 L 309 122 L 308 123 L 304 123 L 303 124 L 301 124 L 293 128 L 291 130 Z M 296 100 L 292 101 L 288 106 L 288 108 L 287 109 L 287 113 L 286 114 L 286 116 L 287 117 L 287 120 L 289 123 L 293 123 L 299 117 L 299 115 L 300 114 L 300 104 Z M 379 93 L 377 94 L 373 99 L 373 101 L 372 102 L 372 112 L 373 113 L 374 117 L 376 119 L 378 120 L 383 120 L 387 116 L 387 114 L 388 113 L 388 102 L 385 96 L 383 94 Z M 305 63 L 304 62 L 298 62 L 290 68 L 290 69 L 288 71 L 288 74 L 289 75 L 291 75 L 298 69 L 304 67 L 305 66 Z M 372 54 L 373 56 L 381 58 L 390 63 L 392 63 L 393 62 L 393 59 L 388 54 L 384 52 L 382 52 L 381 51 L 375 51 Z M 462 8 L 460 8 L 456 6 L 452 6 L 451 5 L 439 5 L 438 6 L 433 6 L 432 7 L 427 8 L 419 13 L 414 18 L 414 19 L 408 26 L 396 25 L 395 24 L 390 24 L 389 23 L 376 23 L 374 21 L 373 17 L 369 14 L 361 14 L 357 16 L 351 22 L 348 22 L 341 18 L 338 18 L 337 17 L 331 17 L 326 21 L 325 23 L 325 26 L 326 28 L 324 30 L 317 30 L 316 31 L 313 31 L 295 40 L 291 43 L 287 42 L 283 38 L 273 33 L 269 33 L 268 32 L 259 32 L 258 33 L 255 33 L 254 34 L 248 35 L 240 39 L 230 48 L 230 49 L 226 54 L 224 58 L 223 63 L 222 64 L 222 67 L 221 68 L 221 78 L 222 79 L 222 83 L 227 94 L 241 107 L 241 109 L 238 113 L 236 117 L 235 122 L 234 123 L 234 129 L 235 131 L 226 141 L 224 145 L 224 151 L 230 158 L 230 160 L 227 163 L 226 163 L 223 160 L 217 149 L 217 146 L 225 131 L 226 125 L 228 121 L 228 110 L 227 109 L 227 105 L 223 98 L 216 94 L 207 94 L 206 95 L 204 95 L 202 93 L 202 85 L 201 84 L 201 82 L 198 75 L 190 68 L 188 68 L 187 67 L 183 67 L 182 68 L 179 68 L 172 73 L 168 73 L 166 71 L 166 70 L 159 64 L 157 64 L 156 63 L 150 63 L 149 64 L 147 64 L 139 69 L 134 78 L 134 80 L 132 82 L 130 82 L 129 81 L 123 81 L 122 82 L 119 82 L 117 84 L 114 85 L 110 89 L 108 93 L 108 95 L 107 96 L 107 106 L 105 108 L 102 108 L 100 109 L 94 116 L 94 118 L 93 119 L 93 131 L 94 132 L 94 135 L 95 136 L 96 141 L 105 159 L 107 161 L 111 169 L 118 178 L 118 190 L 119 191 L 119 196 L 120 197 L 122 208 L 123 209 L 127 223 L 133 235 L 135 237 L 136 240 L 138 242 L 140 246 L 144 250 L 146 254 L 146 256 L 145 257 L 145 264 L 146 265 L 146 267 L 151 273 L 151 274 L 165 286 L 165 288 L 164 289 L 165 294 L 170 300 L 179 305 L 184 306 L 186 308 L 186 313 L 187 315 L 190 318 L 196 321 L 200 322 L 203 325 L 203 327 L 207 331 L 218 337 L 220 337 L 225 340 L 227 340 L 230 343 L 230 348 L 228 352 L 226 354 L 221 365 L 221 372 L 222 373 L 222 375 L 217 381 L 217 382 L 213 387 L 213 389 L 212 390 L 212 397 L 215 400 L 215 402 L 209 413 L 209 415 L 207 419 L 207 429 L 211 433 L 211 437 L 209 441 L 209 446 L 208 447 L 208 457 L 212 465 L 212 473 L 213 474 L 214 480 L 216 484 L 222 491 L 222 495 L 220 498 L 219 504 L 217 507 L 217 509 L 215 512 L 215 514 L 213 518 L 213 525 L 215 527 L 215 530 L 212 535 L 212 545 L 215 548 L 215 552 L 213 555 L 212 563 L 211 564 L 211 568 L 212 569 L 212 571 L 217 576 L 217 587 L 218 588 L 218 594 L 219 595 L 219 599 L 220 600 L 220 605 L 221 606 L 221 610 L 222 611 L 222 616 L 223 617 L 223 619 L 220 622 L 217 622 L 216 623 L 210 624 L 202 629 L 197 633 L 191 643 L 191 645 L 189 649 L 189 661 L 192 668 L 198 674 L 202 676 L 204 676 L 208 678 L 211 678 L 212 679 L 215 679 L 216 680 L 229 681 L 230 682 L 243 682 L 244 683 L 265 683 L 266 682 L 280 682 L 281 681 L 290 681 L 291 680 L 303 679 L 304 678 L 308 678 L 309 677 L 320 675 L 326 672 L 332 667 L 335 661 L 335 658 L 336 657 L 336 638 L 340 633 L 340 631 L 341 630 L 341 621 L 342 620 L 342 606 L 347 600 L 347 591 L 348 590 L 348 586 L 349 585 L 349 580 L 350 579 L 350 576 L 352 574 L 368 574 L 371 577 L 377 600 L 379 604 L 383 609 L 383 621 L 384 622 L 385 630 L 389 639 L 392 642 L 392 645 L 390 649 L 390 654 L 389 655 L 389 668 L 393 677 L 400 683 L 412 688 L 415 688 L 416 689 L 419 689 L 420 690 L 425 690 L 426 691 L 433 691 L 434 692 L 452 692 L 453 693 L 456 693 L 457 692 L 481 692 L 482 691 L 496 690 L 497 689 L 505 688 L 506 687 L 514 685 L 519 682 L 524 677 L 527 671 L 527 668 L 528 667 L 528 658 L 527 657 L 527 653 L 523 645 L 520 642 L 520 641 L 511 634 L 511 628 L 512 627 L 513 615 L 514 614 L 514 600 L 515 599 L 514 584 L 519 579 L 519 570 L 518 569 L 517 563 L 514 558 L 514 555 L 518 550 L 518 545 L 517 544 L 517 541 L 513 533 L 513 531 L 516 528 L 516 521 L 515 520 L 515 517 L 514 516 L 514 512 L 516 510 L 517 511 L 519 511 L 521 513 L 527 514 L 528 515 L 538 514 L 544 517 L 550 517 L 551 516 L 555 516 L 556 515 L 561 514 L 579 505 L 590 493 L 595 483 L 595 480 L 597 476 L 597 473 L 598 472 L 598 467 L 599 466 L 599 449 L 598 448 L 598 443 L 600 440 L 600 431 L 599 430 L 599 427 L 598 426 L 598 423 L 597 422 L 596 417 L 594 414 L 594 411 L 596 408 L 596 402 L 595 401 L 595 399 L 593 396 L 592 392 L 587 385 L 587 384 L 589 382 L 589 377 L 585 369 L 577 359 L 577 358 L 580 355 L 580 348 L 579 346 L 576 343 L 576 342 L 560 327 L 560 325 L 562 323 L 562 318 L 552 307 L 551 307 L 542 299 L 542 297 L 543 296 L 543 291 L 538 286 L 535 285 L 530 280 L 530 275 L 525 270 L 518 266 L 515 263 L 516 261 L 516 257 L 515 255 L 512 252 L 506 249 L 504 247 L 498 244 L 496 244 L 492 240 L 492 236 L 491 234 L 486 229 L 483 224 L 484 220 L 488 215 L 488 213 L 491 206 L 496 201 L 498 197 L 498 193 L 499 192 L 499 185 L 504 180 L 506 176 L 506 169 L 505 168 L 505 165 L 503 162 L 503 160 L 508 154 L 508 148 L 505 141 L 501 136 L 501 134 L 505 130 L 506 126 L 503 119 L 498 115 L 497 115 L 493 111 L 493 105 L 490 99 L 488 97 L 486 92 L 484 90 L 482 85 L 477 78 L 477 75 L 484 67 L 485 64 L 487 62 L 488 56 L 489 55 L 489 52 L 490 51 L 490 44 L 489 43 L 489 38 L 488 37 L 487 32 L 482 23 L 473 14 Z M 456 13 L 468 20 L 474 26 L 480 36 L 481 44 L 482 45 L 482 49 L 481 50 L 481 54 L 480 55 L 480 57 L 475 66 L 469 72 L 468 72 L 466 74 L 466 75 L 474 86 L 480 98 L 487 107 L 487 109 L 485 111 L 483 111 L 483 113 L 493 119 L 498 124 L 498 127 L 496 129 L 487 129 L 486 130 L 495 139 L 501 149 L 501 150 L 498 153 L 491 152 L 491 154 L 497 165 L 499 174 L 496 177 L 495 177 L 491 173 L 490 173 L 490 177 L 491 178 L 491 193 L 488 197 L 487 197 L 485 195 L 483 196 L 483 204 L 482 205 L 482 207 L 477 217 L 469 227 L 471 229 L 474 229 L 477 232 L 475 234 L 475 236 L 480 237 L 483 240 L 481 242 L 479 242 L 479 244 L 483 246 L 485 246 L 488 248 L 490 248 L 499 253 L 501 253 L 505 257 L 505 258 L 503 260 L 498 260 L 498 261 L 504 264 L 506 266 L 522 276 L 525 279 L 525 280 L 523 282 L 516 282 L 516 283 L 520 286 L 530 291 L 532 291 L 536 295 L 536 296 L 534 298 L 529 298 L 528 299 L 533 302 L 536 305 L 540 307 L 543 310 L 544 310 L 554 319 L 554 320 L 552 322 L 544 322 L 544 323 L 545 323 L 553 331 L 554 331 L 572 349 L 572 350 L 570 352 L 568 351 L 565 351 L 564 350 L 562 350 L 562 351 L 581 376 L 581 377 L 579 379 L 576 379 L 575 378 L 574 379 L 580 387 L 585 397 L 587 399 L 588 403 L 586 405 L 583 404 L 583 406 L 585 409 L 585 411 L 587 415 L 587 418 L 588 419 L 588 421 L 589 422 L 589 424 L 592 431 L 592 434 L 593 435 L 593 436 L 591 438 L 589 437 L 588 438 L 589 440 L 589 444 L 590 445 L 590 465 L 589 466 L 589 470 L 588 471 L 587 478 L 580 492 L 572 500 L 570 500 L 568 498 L 569 497 L 570 491 L 571 490 L 571 487 L 569 485 L 567 488 L 567 490 L 566 491 L 564 498 L 557 506 L 553 507 L 552 508 L 544 508 L 542 506 L 542 503 L 544 501 L 546 497 L 546 494 L 547 493 L 547 487 L 546 486 L 544 488 L 540 497 L 534 504 L 530 506 L 526 506 L 519 503 L 515 499 L 515 498 L 513 496 L 513 494 L 515 492 L 519 485 L 519 482 L 521 478 L 521 473 L 519 471 L 517 472 L 514 481 L 508 487 L 502 486 L 495 479 L 495 477 L 493 473 L 493 458 L 495 454 L 495 451 L 498 445 L 498 438 L 497 437 L 497 433 L 496 432 L 496 428 L 495 427 L 495 423 L 494 422 L 494 419 L 493 418 L 493 414 L 492 413 L 491 406 L 488 399 L 487 393 L 485 390 L 485 388 L 483 385 L 481 378 L 478 373 L 478 371 L 476 369 L 474 364 L 472 362 L 471 359 L 469 357 L 465 350 L 461 346 L 460 347 L 461 353 L 465 361 L 467 363 L 468 367 L 478 387 L 478 389 L 479 390 L 479 392 L 482 399 L 482 402 L 483 403 L 483 406 L 484 407 L 484 410 L 485 411 L 485 414 L 486 415 L 486 418 L 487 419 L 487 423 L 488 424 L 489 433 L 490 434 L 490 437 L 491 438 L 491 443 L 490 444 L 490 446 L 487 453 L 486 461 L 485 462 L 485 471 L 486 472 L 486 476 L 487 477 L 488 482 L 491 487 L 498 494 L 500 495 L 503 495 L 505 497 L 505 507 L 506 508 L 506 514 L 507 515 L 507 519 L 508 520 L 508 522 L 506 524 L 502 524 L 502 525 L 506 533 L 506 535 L 509 540 L 510 546 L 508 548 L 507 548 L 501 545 L 501 547 L 507 558 L 507 560 L 509 563 L 509 565 L 511 568 L 512 572 L 510 574 L 508 574 L 505 571 L 504 571 L 504 573 L 508 581 L 508 582 L 505 585 L 505 587 L 506 588 L 506 612 L 505 613 L 505 619 L 504 620 L 503 629 L 502 630 L 502 632 L 499 635 L 499 637 L 501 639 L 507 641 L 516 650 L 518 654 L 518 657 L 519 658 L 519 668 L 518 669 L 518 671 L 512 678 L 508 680 L 506 680 L 504 678 L 505 671 L 504 670 L 504 666 L 503 665 L 503 663 L 499 659 L 497 659 L 496 661 L 497 662 L 497 666 L 498 667 L 498 679 L 493 683 L 480 684 L 478 682 L 478 668 L 477 667 L 476 663 L 473 661 L 472 661 L 470 663 L 470 666 L 471 667 L 471 676 L 472 677 L 472 681 L 469 685 L 448 685 L 446 683 L 446 668 L 445 667 L 445 664 L 444 663 L 441 663 L 439 666 L 439 677 L 440 678 L 440 683 L 438 685 L 435 685 L 434 684 L 426 684 L 425 683 L 420 683 L 419 682 L 416 682 L 415 681 L 410 680 L 404 677 L 399 672 L 397 668 L 397 654 L 398 653 L 398 649 L 399 648 L 399 633 L 398 632 L 396 634 L 394 634 L 392 631 L 392 615 L 388 612 L 388 602 L 389 601 L 389 597 L 386 598 L 384 596 L 384 594 L 382 590 L 381 582 L 379 579 L 379 577 L 377 575 L 377 573 L 380 570 L 382 570 L 384 568 L 384 566 L 382 564 L 380 564 L 379 565 L 373 565 L 372 566 L 356 567 L 355 566 L 349 566 L 348 565 L 342 565 L 341 564 L 332 563 L 331 562 L 324 561 L 323 560 L 317 559 L 316 558 L 312 558 L 312 560 L 315 563 L 332 570 L 340 571 L 342 573 L 341 579 L 340 580 L 340 583 L 338 587 L 339 598 L 337 600 L 333 598 L 332 599 L 332 603 L 333 604 L 333 629 L 331 632 L 326 631 L 326 634 L 327 635 L 327 642 L 328 643 L 328 652 L 327 653 L 327 658 L 324 664 L 317 669 L 314 669 L 313 670 L 311 670 L 310 671 L 306 671 L 305 672 L 293 673 L 292 674 L 283 674 L 282 675 L 276 675 L 275 676 L 241 676 L 239 674 L 239 672 L 238 671 L 239 660 L 240 659 L 241 654 L 240 653 L 238 653 L 235 656 L 233 660 L 233 663 L 232 664 L 232 669 L 233 670 L 233 673 L 231 675 L 229 674 L 222 674 L 221 673 L 218 673 L 214 670 L 214 659 L 215 658 L 215 655 L 217 651 L 216 649 L 214 649 L 209 655 L 209 658 L 208 659 L 208 666 L 209 668 L 207 670 L 205 670 L 199 665 L 198 663 L 198 660 L 197 659 L 198 649 L 199 648 L 200 643 L 202 641 L 202 640 L 208 634 L 213 631 L 215 631 L 219 629 L 222 629 L 223 628 L 231 628 L 235 626 L 232 619 L 232 616 L 231 615 L 231 612 L 230 611 L 230 608 L 229 607 L 229 600 L 228 599 L 228 596 L 227 595 L 227 586 L 223 583 L 226 570 L 225 569 L 223 570 L 220 570 L 219 569 L 219 563 L 221 559 L 221 556 L 223 552 L 224 546 L 226 543 L 225 541 L 222 543 L 221 543 L 219 541 L 219 538 L 221 535 L 221 533 L 224 528 L 224 526 L 226 524 L 225 522 L 221 523 L 220 522 L 220 518 L 222 516 L 225 510 L 227 502 L 229 500 L 230 500 L 232 502 L 233 501 L 233 498 L 228 488 L 226 477 L 225 477 L 223 479 L 222 479 L 220 477 L 220 459 L 221 458 L 221 454 L 220 453 L 217 456 L 215 454 L 215 446 L 216 445 L 216 441 L 217 440 L 218 434 L 219 433 L 219 431 L 222 424 L 221 423 L 217 426 L 215 426 L 213 424 L 213 422 L 219 408 L 221 406 L 225 398 L 228 395 L 227 393 L 225 394 L 220 394 L 218 392 L 223 384 L 235 370 L 234 369 L 229 370 L 227 368 L 227 365 L 237 351 L 239 340 L 241 337 L 241 334 L 244 328 L 245 322 L 244 321 L 241 321 L 236 331 L 233 334 L 228 333 L 225 331 L 223 331 L 220 329 L 218 329 L 214 327 L 211 324 L 216 320 L 215 319 L 204 317 L 198 314 L 196 314 L 193 311 L 196 308 L 200 306 L 197 304 L 195 304 L 192 302 L 185 300 L 175 295 L 172 292 L 172 290 L 174 288 L 177 288 L 181 286 L 177 283 L 170 280 L 168 278 L 164 276 L 154 267 L 154 266 L 152 264 L 152 263 L 154 261 L 161 261 L 162 260 L 147 243 L 144 237 L 142 235 L 133 217 L 132 211 L 131 210 L 130 204 L 129 203 L 129 200 L 128 199 L 127 188 L 126 187 L 126 183 L 125 182 L 125 174 L 118 166 L 105 144 L 105 142 L 102 137 L 102 134 L 101 133 L 101 130 L 100 129 L 100 123 L 101 122 L 101 120 L 106 115 L 117 116 L 116 110 L 115 109 L 115 96 L 117 92 L 122 88 L 124 88 L 125 87 L 128 87 L 130 88 L 136 94 L 139 99 L 139 101 L 141 105 L 142 105 L 141 93 L 140 92 L 141 81 L 142 80 L 142 78 L 147 72 L 151 70 L 155 70 L 157 71 L 163 77 L 167 86 L 168 100 L 170 99 L 170 94 L 171 93 L 172 86 L 174 82 L 181 75 L 183 75 L 184 74 L 188 75 L 191 78 L 194 84 L 194 89 L 195 90 L 195 107 L 196 108 L 198 108 L 202 104 L 207 101 L 214 101 L 219 106 L 219 108 L 220 109 L 220 122 L 219 123 L 218 128 L 216 131 L 216 133 L 214 137 L 208 145 L 208 149 L 211 155 L 213 157 L 213 159 L 217 166 L 217 168 L 219 171 L 219 173 L 221 176 L 221 178 L 224 184 L 226 185 L 228 183 L 229 183 L 231 185 L 233 189 L 233 191 L 236 196 L 237 201 L 239 204 L 239 206 L 241 210 L 243 210 L 244 208 L 246 208 L 248 212 L 250 214 L 250 216 L 251 217 L 253 224 L 257 222 L 260 225 L 263 231 L 264 235 L 265 235 L 266 233 L 268 233 L 271 236 L 272 239 L 274 241 L 274 243 L 277 246 L 278 246 L 279 245 L 279 240 L 277 236 L 274 233 L 274 232 L 268 225 L 268 224 L 266 222 L 264 222 L 262 220 L 261 220 L 259 218 L 259 216 L 257 213 L 253 215 L 248 208 L 248 205 L 247 204 L 246 193 L 242 193 L 239 190 L 239 179 L 240 178 L 240 173 L 241 171 L 236 172 L 233 169 L 234 163 L 240 151 L 239 150 L 237 151 L 233 151 L 231 149 L 231 146 L 243 132 L 242 130 L 242 122 L 245 117 L 247 110 L 251 103 L 250 101 L 248 101 L 241 97 L 235 91 L 230 81 L 230 78 L 229 77 L 229 70 L 230 69 L 230 65 L 231 64 L 231 62 L 235 54 L 246 44 L 252 41 L 258 40 L 259 39 L 268 39 L 277 43 L 279 45 L 280 45 L 285 50 L 286 53 L 288 54 L 297 47 L 305 43 L 309 42 L 315 36 L 320 36 L 321 35 L 333 35 L 333 31 L 330 27 L 330 26 L 333 23 L 336 23 L 337 24 L 342 25 L 344 27 L 346 27 L 348 29 L 351 30 L 359 22 L 365 19 L 366 19 L 369 22 L 368 26 L 366 29 L 367 30 L 372 30 L 373 29 L 385 29 L 386 30 L 392 30 L 393 31 L 402 32 L 403 33 L 408 34 L 411 36 L 413 36 L 414 35 L 415 29 L 417 27 L 417 26 L 426 17 L 432 14 L 434 14 L 438 12 L 441 12 L 442 11 L 444 12 L 452 12 L 453 13 Z" fill="#010101" fill-rule="evenodd"/></svg>