<svg xmlns="http://www.w3.org/2000/svg" viewBox="0 0 653 704" shape-rendering="geometricPrecision"><title>intro frame 029</title><path d="M 248 549 L 245 553 L 245 556 L 243 559 L 243 562 L 238 568 L 238 571 L 239 572 L 239 582 L 235 591 L 235 598 L 237 600 L 237 602 L 241 608 L 241 612 L 245 620 L 245 622 L 249 628 L 251 628 L 254 630 L 267 631 L 268 632 L 272 632 L 273 633 L 279 634 L 287 639 L 289 642 L 289 644 L 286 646 L 285 645 L 278 645 L 277 644 L 265 643 L 264 642 L 259 642 L 258 641 L 247 641 L 246 642 L 239 643 L 230 648 L 227 653 L 226 660 L 227 660 L 232 654 L 236 652 L 241 652 L 243 654 L 243 659 L 241 665 L 241 673 L 242 674 L 249 674 L 250 673 L 250 663 L 252 659 L 257 655 L 262 655 L 265 658 L 265 664 L 263 668 L 263 676 L 266 678 L 311 679 L 312 678 L 317 678 L 321 675 L 321 672 L 329 664 L 329 647 L 324 643 L 322 637 L 319 637 L 316 632 L 316 626 L 312 622 L 311 612 L 304 602 L 305 591 L 300 578 L 283 569 L 278 569 L 273 565 L 266 562 L 260 558 L 253 551 L 250 549 Z M 271 196 L 271 209 L 273 213 L 278 218 L 287 220 L 291 218 L 293 215 L 296 213 L 296 212 L 293 210 L 288 209 L 281 205 L 272 195 Z M 80 164 L 80 165 L 83 165 L 88 163 L 92 165 L 102 177 L 100 171 L 93 163 L 84 160 Z M 437 75 L 429 75 L 426 77 L 424 77 L 422 79 L 420 79 L 410 88 L 409 93 L 405 98 L 399 97 L 390 93 L 381 92 L 380 91 L 357 91 L 355 89 L 356 82 L 353 81 L 342 91 L 339 90 L 336 87 L 334 87 L 332 85 L 327 84 L 326 85 L 327 87 L 327 91 L 324 94 L 309 94 L 307 95 L 303 100 L 300 100 L 288 105 L 279 113 L 275 113 L 267 103 L 258 99 L 247 99 L 244 101 L 239 102 L 237 104 L 234 105 L 227 112 L 223 122 L 223 134 L 228 145 L 232 149 L 238 152 L 240 152 L 243 155 L 242 161 L 235 176 L 234 187 L 225 197 L 224 200 L 225 202 L 226 201 L 230 201 L 232 203 L 232 206 L 230 209 L 230 211 L 226 216 L 225 219 L 226 221 L 231 220 L 233 222 L 233 227 L 231 232 L 231 239 L 232 240 L 236 239 L 239 242 L 239 255 L 238 256 L 238 260 L 240 264 L 241 264 L 245 259 L 247 259 L 249 261 L 250 269 L 254 268 L 258 272 L 258 274 L 266 284 L 270 286 L 276 287 L 278 289 L 280 289 L 289 297 L 292 303 L 292 306 L 290 308 L 284 306 L 277 301 L 274 301 L 269 307 L 267 307 L 263 312 L 261 312 L 259 310 L 259 306 L 260 304 L 258 301 L 258 299 L 250 289 L 249 289 L 245 294 L 242 293 L 238 288 L 233 278 L 232 278 L 228 283 L 225 282 L 223 280 L 220 274 L 220 272 L 218 270 L 218 268 L 216 267 L 214 264 L 213 264 L 213 267 L 208 271 L 199 261 L 191 247 L 189 247 L 185 250 L 154 214 L 154 211 L 153 210 L 156 202 L 157 191 L 158 190 L 158 180 L 157 177 L 154 174 L 153 175 L 155 178 L 155 189 L 154 190 L 154 193 L 152 197 L 148 201 L 145 202 L 140 201 L 136 197 L 136 187 L 138 182 L 137 181 L 135 182 L 131 177 L 130 177 L 130 181 L 128 186 L 124 189 L 119 189 L 112 184 L 109 184 L 108 185 L 106 184 L 104 186 L 104 188 L 99 193 L 96 194 L 88 194 L 87 195 L 84 195 L 78 191 L 85 199 L 86 206 L 81 212 L 79 213 L 72 213 L 71 214 L 77 219 L 78 221 L 78 225 L 79 226 L 78 231 L 74 235 L 70 235 L 63 231 L 59 226 L 59 223 L 58 222 L 59 215 L 57 215 L 55 217 L 55 223 L 56 226 L 58 228 L 58 230 L 66 239 L 78 248 L 83 253 L 88 255 L 94 260 L 97 266 L 97 268 L 99 270 L 99 272 L 102 273 L 107 278 L 111 284 L 115 287 L 128 303 L 141 313 L 145 315 L 154 323 L 163 327 L 165 329 L 177 333 L 185 334 L 188 338 L 183 342 L 184 344 L 196 344 L 202 349 L 206 349 L 207 350 L 219 350 L 221 352 L 221 354 L 216 358 L 215 360 L 216 362 L 235 362 L 238 361 L 241 356 L 246 351 L 245 349 L 245 344 L 249 338 L 248 336 L 249 331 L 254 324 L 254 317 L 258 314 L 260 314 L 263 317 L 258 323 L 260 326 L 260 330 L 255 336 L 256 343 L 250 349 L 253 354 L 251 360 L 248 365 L 249 375 L 246 382 L 247 383 L 258 382 L 261 386 L 258 392 L 258 394 L 254 398 L 250 400 L 238 411 L 236 415 L 237 416 L 241 416 L 243 418 L 243 420 L 240 425 L 237 428 L 232 430 L 227 436 L 229 438 L 231 437 L 236 437 L 238 439 L 238 441 L 235 447 L 231 451 L 226 460 L 227 462 L 228 461 L 231 461 L 234 464 L 233 470 L 228 479 L 227 484 L 228 485 L 232 482 L 237 482 L 238 483 L 234 500 L 235 501 L 239 501 L 241 503 L 241 514 L 242 515 L 242 518 L 244 522 L 251 529 L 251 530 L 254 533 L 258 532 L 263 537 L 263 539 L 266 543 L 268 544 L 273 543 L 281 550 L 284 550 L 285 549 L 287 551 L 288 556 L 291 559 L 296 561 L 300 561 L 302 563 L 307 563 L 312 565 L 322 566 L 323 565 L 326 565 L 329 563 L 334 564 L 337 563 L 341 559 L 346 559 L 353 550 L 358 540 L 370 528 L 376 525 L 379 525 L 381 523 L 385 523 L 387 525 L 385 531 L 383 533 L 382 536 L 378 539 L 373 545 L 371 549 L 367 553 L 366 556 L 363 559 L 362 563 L 360 565 L 360 567 L 357 573 L 357 577 L 355 580 L 355 595 L 354 596 L 356 608 L 360 613 L 362 619 L 365 622 L 367 628 L 371 630 L 378 630 L 379 631 L 386 631 L 387 630 L 392 630 L 393 629 L 400 629 L 404 627 L 409 627 L 415 625 L 422 625 L 424 623 L 428 623 L 434 621 L 438 618 L 441 618 L 450 615 L 457 611 L 464 603 L 464 600 L 468 596 L 468 594 L 465 595 L 463 593 L 460 592 L 456 595 L 454 595 L 451 598 L 449 598 L 445 602 L 440 602 L 439 603 L 433 598 L 432 595 L 433 592 L 432 587 L 433 585 L 437 581 L 441 580 L 444 578 L 452 567 L 451 562 L 447 559 L 446 556 L 448 550 L 448 543 L 451 540 L 451 536 L 449 534 L 448 531 L 444 527 L 438 525 L 430 524 L 426 522 L 416 522 L 415 521 L 405 520 L 401 518 L 394 518 L 393 517 L 390 517 L 383 511 L 375 511 L 367 507 L 363 508 L 360 505 L 358 501 L 358 487 L 356 485 L 353 484 L 344 476 L 338 473 L 327 460 L 327 458 L 325 456 L 324 452 L 322 449 L 322 444 L 319 437 L 319 431 L 318 429 L 320 427 L 320 425 L 322 422 L 324 412 L 326 409 L 326 406 L 328 401 L 336 393 L 338 393 L 341 390 L 350 387 L 356 387 L 359 385 L 362 385 L 370 379 L 378 376 L 383 372 L 385 372 L 388 369 L 391 368 L 393 366 L 393 364 L 389 358 L 389 356 L 391 354 L 400 354 L 403 355 L 410 361 L 418 360 L 419 361 L 427 361 L 430 363 L 430 368 L 428 370 L 415 376 L 413 376 L 406 380 L 401 381 L 394 385 L 392 385 L 386 389 L 382 390 L 380 392 L 377 393 L 369 399 L 365 399 L 361 401 L 351 402 L 345 405 L 339 412 L 339 414 L 350 413 L 353 416 L 352 422 L 342 433 L 339 434 L 337 436 L 336 439 L 338 442 L 359 442 L 361 444 L 360 449 L 355 453 L 353 456 L 353 461 L 355 463 L 359 464 L 365 459 L 369 457 L 374 457 L 377 460 L 377 466 L 375 470 L 375 473 L 378 475 L 384 474 L 385 473 L 387 474 L 390 473 L 395 474 L 397 472 L 399 472 L 405 469 L 407 466 L 417 463 L 422 457 L 422 454 L 425 451 L 427 451 L 430 449 L 439 449 L 442 447 L 448 448 L 450 450 L 453 448 L 455 448 L 459 441 L 467 432 L 471 431 L 475 427 L 480 425 L 492 415 L 492 412 L 494 410 L 495 403 L 499 399 L 501 399 L 504 402 L 506 401 L 506 398 L 508 393 L 508 387 L 511 384 L 510 375 L 507 372 L 508 368 L 500 356 L 498 350 L 498 346 L 486 335 L 476 330 L 470 325 L 470 323 L 473 320 L 475 320 L 474 318 L 465 313 L 455 310 L 451 306 L 450 303 L 448 301 L 446 301 L 442 298 L 431 298 L 426 301 L 421 301 L 420 300 L 413 306 L 410 306 L 408 304 L 408 297 L 410 294 L 410 291 L 415 286 L 419 287 L 423 281 L 425 281 L 427 284 L 428 284 L 430 281 L 430 278 L 435 269 L 436 263 L 437 262 L 441 262 L 442 263 L 443 262 L 443 246 L 444 245 L 447 246 L 448 245 L 448 242 L 456 236 L 456 234 L 454 231 L 454 226 L 456 224 L 457 225 L 459 224 L 458 219 L 454 213 L 457 211 L 462 214 L 465 213 L 468 215 L 472 214 L 476 218 L 477 215 L 474 211 L 474 205 L 476 203 L 479 203 L 483 206 L 484 205 L 482 203 L 482 201 L 480 198 L 468 185 L 471 182 L 476 182 L 477 181 L 479 182 L 480 180 L 470 173 L 468 173 L 465 170 L 464 166 L 467 162 L 465 158 L 462 155 L 457 144 L 447 132 L 450 128 L 452 128 L 458 123 L 459 120 L 463 115 L 463 113 L 465 110 L 465 99 L 460 89 L 454 83 L 443 77 Z M 279 512 L 282 513 L 282 534 L 284 536 L 286 542 L 285 545 L 283 544 L 276 529 L 276 518 L 277 517 L 277 514 Z M 264 503 L 266 506 L 266 508 L 265 509 L 265 514 L 263 517 L 261 515 L 261 506 L 262 504 Z M 257 481 L 259 483 L 259 487 L 257 492 L 255 494 L 253 492 L 253 487 Z M 255 462 L 257 464 L 255 470 L 251 476 L 248 479 L 246 479 L 245 478 L 245 474 L 250 468 L 250 466 Z M 256 447 L 258 449 L 255 455 L 249 461 L 248 461 L 246 458 L 247 455 L 254 447 Z M 306 365 L 303 369 L 296 374 L 293 374 L 291 372 L 293 368 L 297 364 L 299 365 L 302 363 L 304 363 Z M 390 296 L 389 301 L 377 313 L 360 326 L 358 330 L 350 331 L 349 332 L 343 332 L 340 331 L 338 329 L 334 328 L 332 326 L 329 325 L 316 316 L 308 307 L 308 306 L 313 302 L 322 303 L 323 304 L 328 304 L 329 305 L 345 305 L 346 304 L 352 304 L 353 303 L 358 303 L 359 302 L 363 302 L 364 301 L 371 300 L 386 294 L 388 294 Z M 405 292 L 407 294 L 407 296 L 405 299 L 404 304 L 400 308 L 398 308 L 397 307 L 397 301 Z M 131 198 L 137 204 L 141 212 L 141 222 L 138 228 L 133 233 L 110 247 L 104 249 L 92 249 L 90 248 L 81 238 L 80 235 L 80 226 L 87 211 L 93 203 L 100 196 L 109 192 L 120 192 Z M 374 184 L 376 180 L 380 176 L 385 173 L 391 172 L 392 171 L 401 171 L 402 172 L 411 173 L 419 177 L 424 183 L 426 190 L 424 196 L 420 200 L 415 202 L 411 202 L 410 203 L 400 203 L 399 202 L 391 201 L 386 198 L 382 197 L 375 190 Z M 279 150 L 283 150 L 287 154 L 290 162 L 290 170 L 289 171 L 290 172 L 292 171 L 300 162 L 306 160 L 309 160 L 310 159 L 322 159 L 325 161 L 329 162 L 332 165 L 332 168 L 330 170 L 327 170 L 326 169 L 310 170 L 312 173 L 314 173 L 317 175 L 325 183 L 326 188 L 325 189 L 325 192 L 321 199 L 312 207 L 310 207 L 305 210 L 301 210 L 302 213 L 308 215 L 311 215 L 312 216 L 316 216 L 317 217 L 331 217 L 332 216 L 336 216 L 342 214 L 344 212 L 349 210 L 354 206 L 361 198 L 364 198 L 370 205 L 370 208 L 371 209 L 371 219 L 372 220 L 372 236 L 371 237 L 371 243 L 370 244 L 370 248 L 369 249 L 369 252 L 367 258 L 360 271 L 352 279 L 343 285 L 341 285 L 338 287 L 334 287 L 333 288 L 327 288 L 321 286 L 312 281 L 300 269 L 300 268 L 298 267 L 288 253 L 284 244 L 281 230 L 272 226 L 268 223 L 263 217 L 260 209 L 260 203 L 259 203 L 254 209 L 248 212 L 241 212 L 235 206 L 235 199 L 237 195 L 247 186 L 253 185 L 254 184 L 258 184 L 264 189 L 265 188 L 268 188 L 272 191 L 272 186 L 274 181 L 270 176 L 269 167 L 273 155 Z M 363 144 L 366 144 L 371 149 L 375 156 L 375 160 L 376 161 L 374 172 L 367 179 L 362 179 L 360 178 L 355 173 L 353 167 L 353 159 L 354 158 L 354 155 L 359 147 Z M 291 114 L 294 117 L 294 121 L 290 125 L 287 126 L 281 132 L 275 133 L 272 130 L 272 125 L 276 119 L 284 113 L 289 113 Z M 254 111 L 260 114 L 264 118 L 265 121 L 261 128 L 256 133 L 253 139 L 248 144 L 241 143 L 235 138 L 234 135 L 234 124 L 237 119 L 245 112 L 247 111 Z M 359 108 L 363 104 L 374 105 L 378 107 L 383 112 L 384 114 L 384 118 L 380 122 L 377 122 L 368 117 L 363 116 L 359 112 Z M 430 89 L 433 89 L 434 88 L 442 89 L 450 97 L 452 101 L 452 103 L 454 106 L 454 113 L 453 115 L 445 122 L 442 123 L 438 122 L 431 115 L 423 110 L 419 106 L 419 102 L 423 95 Z" fill="#FBFBFB" fill-rule="evenodd"/><path d="M 363 680 L 366 677 L 369 662 L 373 657 L 383 657 L 389 660 L 392 660 L 395 662 L 401 663 L 395 662 L 379 655 L 375 655 L 374 654 L 371 655 L 369 658 L 369 661 L 368 662 L 367 674 Z M 236 643 L 246 641 L 236 643 L 232 645 L 227 650 L 223 660 L 223 667 L 224 669 L 227 671 L 228 670 L 228 663 L 230 658 L 234 654 L 240 653 L 242 655 L 242 659 L 239 668 L 239 674 L 245 677 L 250 677 L 251 676 L 251 666 L 252 665 L 252 662 L 257 657 L 262 657 L 264 659 L 263 667 L 264 664 L 264 658 L 262 656 L 257 656 L 255 657 L 251 663 L 251 673 L 249 675 L 242 675 L 240 673 L 240 665 L 242 659 L 242 654 L 241 653 L 236 653 L 232 655 L 227 661 L 225 660 L 225 656 L 227 651 L 231 646 L 234 645 Z M 274 634 L 281 636 L 286 642 L 284 644 L 273 643 L 285 644 L 286 645 L 288 644 L 287 640 L 283 637 Z M 223 609 L 223 611 L 232 628 L 232 630 L 230 633 L 225 635 L 218 642 L 213 651 L 212 656 L 215 647 L 221 639 L 233 631 L 233 629 L 229 623 L 223 611 Z M 242 560 L 237 566 L 235 570 L 238 575 L 238 579 L 233 593 L 233 598 L 238 605 L 240 613 L 245 624 L 249 629 L 251 629 L 249 629 L 245 624 L 240 612 L 240 608 L 236 602 L 236 600 L 234 598 L 234 591 L 238 582 L 238 572 L 237 571 L 237 568 L 242 562 Z M 279 513 L 277 518 L 277 529 L 284 544 L 285 544 L 283 536 L 281 534 L 281 513 Z M 264 504 L 263 504 L 262 506 L 262 515 L 263 516 L 264 514 L 264 509 L 265 508 Z M 548 483 L 547 493 L 545 499 L 540 508 L 526 523 L 522 524 L 515 529 L 512 533 L 510 538 L 510 544 L 511 547 L 516 554 L 522 566 L 525 577 L 522 566 L 511 546 L 510 538 L 512 535 L 512 533 L 518 527 L 528 522 L 535 515 L 541 507 L 547 493 Z M 227 485 L 228 487 L 233 483 L 236 485 L 236 489 L 233 498 L 233 505 L 234 505 L 236 502 L 240 505 L 240 514 L 241 515 L 242 521 L 253 536 L 256 539 L 259 540 L 269 549 L 271 550 L 273 549 L 277 549 L 281 553 L 285 555 L 292 562 L 300 566 L 302 566 L 305 569 L 305 571 L 303 573 L 301 572 L 297 572 L 292 569 L 289 569 L 279 564 L 271 563 L 262 558 L 250 547 L 248 547 L 245 550 L 243 555 L 243 558 L 244 553 L 248 548 L 250 548 L 260 557 L 266 561 L 273 564 L 278 568 L 283 568 L 295 574 L 297 576 L 299 576 L 301 578 L 306 591 L 305 602 L 312 612 L 313 622 L 317 626 L 317 632 L 319 636 L 322 636 L 323 637 L 325 643 L 330 647 L 330 664 L 322 672 L 322 675 L 317 679 L 312 679 L 311 680 L 266 679 L 262 676 L 262 670 L 262 677 L 266 679 L 311 680 L 312 679 L 322 679 L 323 678 L 338 677 L 346 674 L 352 669 L 354 665 L 354 659 L 353 658 L 353 652 L 350 647 L 350 644 L 348 639 L 348 629 L 340 613 L 340 609 L 339 608 L 339 596 L 336 590 L 336 587 L 338 585 L 342 571 L 345 566 L 347 560 L 361 539 L 373 528 L 378 526 L 383 526 L 384 527 L 383 532 L 374 542 L 363 558 L 372 545 L 377 539 L 381 536 L 386 527 L 386 525 L 385 524 L 381 524 L 379 526 L 376 526 L 370 529 L 359 540 L 354 550 L 346 560 L 341 560 L 337 564 L 334 565 L 329 564 L 326 566 L 323 566 L 322 567 L 317 567 L 316 566 L 312 566 L 307 564 L 302 564 L 300 562 L 296 562 L 291 560 L 287 556 L 285 550 L 284 551 L 281 551 L 273 544 L 271 545 L 266 544 L 262 539 L 262 537 L 258 533 L 254 534 L 250 530 L 250 529 L 243 522 L 241 518 L 241 515 L 240 514 L 240 503 L 239 502 L 235 502 L 233 500 L 237 483 L 232 483 L 228 486 Z M 257 482 L 254 487 L 254 492 L 255 493 L 258 487 L 258 483 Z M 255 463 L 251 466 L 251 468 L 246 474 L 246 478 L 248 478 L 254 470 L 254 468 L 256 465 Z M 528 461 L 526 462 L 526 465 L 527 466 L 527 470 L 529 476 L 529 485 L 528 486 L 528 491 L 527 492 L 527 496 L 525 502 L 527 501 L 532 491 L 532 488 L 534 484 L 534 471 L 532 469 L 531 465 Z M 230 452 L 224 461 L 225 464 L 230 462 L 233 465 L 232 470 L 228 478 L 232 470 L 233 464 L 231 462 L 228 462 L 227 463 L 225 460 L 226 457 Z M 256 448 L 254 448 L 250 452 L 247 458 L 248 460 L 254 455 L 257 449 Z M 528 400 L 528 406 L 526 412 L 522 420 L 520 422 L 518 428 L 519 431 L 519 438 L 520 426 L 522 420 L 526 413 L 526 410 L 528 406 Z M 336 394 L 328 403 L 323 422 L 321 425 L 321 427 L 319 429 L 320 431 L 320 437 L 323 444 L 323 449 L 325 452 L 326 456 L 328 458 L 328 460 L 338 472 L 344 475 L 359 487 L 359 501 L 363 507 L 367 506 L 375 510 L 383 510 L 390 516 L 393 516 L 394 517 L 401 517 L 405 519 L 415 520 L 416 521 L 426 521 L 430 523 L 438 524 L 444 526 L 449 531 L 450 534 L 452 536 L 452 540 L 449 543 L 449 550 L 447 556 L 448 559 L 452 562 L 453 567 L 444 579 L 441 581 L 437 582 L 434 585 L 433 587 L 433 590 L 434 591 L 433 595 L 434 598 L 439 602 L 440 601 L 445 601 L 449 597 L 451 597 L 454 594 L 456 594 L 460 591 L 463 592 L 465 594 L 466 593 L 469 594 L 469 596 L 465 600 L 465 603 L 457 612 L 450 616 L 448 616 L 445 618 L 438 619 L 434 622 L 428 624 L 424 624 L 422 626 L 415 626 L 409 628 L 404 628 L 400 630 L 393 630 L 392 631 L 387 631 L 386 632 L 379 632 L 378 631 L 371 631 L 368 630 L 366 628 L 364 622 L 361 619 L 359 613 L 356 610 L 355 606 L 355 608 L 360 618 L 362 620 L 366 630 L 370 635 L 376 637 L 379 640 L 383 641 L 388 644 L 394 645 L 400 648 L 421 648 L 422 647 L 427 647 L 428 646 L 432 646 L 437 644 L 441 644 L 443 642 L 450 640 L 457 634 L 465 629 L 476 617 L 476 615 L 480 610 L 480 608 L 484 603 L 487 603 L 489 605 L 489 613 L 487 616 L 485 623 L 482 629 L 468 643 L 468 646 L 472 650 L 475 651 L 479 651 L 480 650 L 478 646 L 478 643 L 480 641 L 486 641 L 488 644 L 492 645 L 495 647 L 503 647 L 506 646 L 508 643 L 502 641 L 499 641 L 498 640 L 492 640 L 490 638 L 490 635 L 495 631 L 508 632 L 509 631 L 516 631 L 517 630 L 517 614 L 516 613 L 516 605 L 514 601 L 514 593 L 512 588 L 512 584 L 509 578 L 509 574 L 506 565 L 500 555 L 497 552 L 492 550 L 485 550 L 481 552 L 478 555 L 468 577 L 465 580 L 461 587 L 455 592 L 443 597 L 441 595 L 442 588 L 441 587 L 438 587 L 436 585 L 438 582 L 442 581 L 454 569 L 456 565 L 461 560 L 466 550 L 466 541 L 472 534 L 485 534 L 486 535 L 492 535 L 494 534 L 502 526 L 502 524 L 508 514 L 508 511 L 509 510 L 509 493 L 512 490 L 515 490 L 516 489 L 516 482 L 515 481 L 515 477 L 509 459 L 511 453 L 509 451 L 509 449 L 506 443 L 503 442 L 498 447 L 492 451 L 484 455 L 479 459 L 477 459 L 474 462 L 472 462 L 466 465 L 463 468 L 458 470 L 455 473 L 447 478 L 441 480 L 438 480 L 437 481 L 434 481 L 433 482 L 429 482 L 428 483 L 416 484 L 412 489 L 410 489 L 404 492 L 401 492 L 395 495 L 381 495 L 380 496 L 378 495 L 374 495 L 365 491 L 347 477 L 343 475 L 332 464 L 330 460 L 327 457 L 326 453 L 324 450 L 323 444 L 322 443 L 322 439 L 321 438 L 321 429 L 323 423 L 326 418 L 326 411 L 327 410 L 328 404 L 331 399 L 337 394 Z M 305 365 L 304 364 L 302 364 L 299 366 L 297 365 L 294 368 L 292 372 L 293 373 L 298 372 L 303 368 Z M 250 359 L 247 365 L 247 377 L 244 383 L 243 389 L 245 390 L 255 384 L 257 384 L 259 387 L 256 391 L 256 393 L 244 403 L 235 414 L 236 417 L 240 417 L 242 420 L 239 425 L 233 429 L 237 427 L 242 420 L 241 417 L 237 417 L 235 414 L 244 404 L 257 394 L 257 392 L 260 386 L 258 383 L 247 384 L 245 382 L 248 375 L 247 365 Z M 418 361 L 410 362 L 403 356 L 400 355 L 391 355 L 390 358 L 394 364 L 394 366 L 391 369 L 388 370 L 385 373 L 383 373 L 378 377 L 370 380 L 362 386 L 359 386 L 356 388 L 346 389 L 341 391 L 339 393 L 341 391 L 347 389 L 361 387 L 369 381 L 379 377 L 387 371 L 394 368 L 397 365 L 398 359 L 400 357 L 403 357 L 409 362 Z M 475 318 L 476 320 L 473 321 L 471 323 L 471 325 L 476 329 L 486 334 L 499 346 L 499 350 L 501 356 L 509 368 L 508 372 L 511 375 L 512 384 L 509 387 L 509 393 L 508 394 L 507 401 L 504 403 L 501 400 L 499 400 L 496 403 L 496 406 L 495 407 L 495 410 L 493 412 L 493 415 L 480 426 L 475 428 L 471 432 L 467 433 L 460 441 L 459 444 L 455 449 L 453 449 L 451 451 L 448 449 L 445 449 L 444 448 L 442 448 L 439 450 L 430 450 L 427 452 L 425 452 L 423 454 L 423 457 L 417 464 L 407 467 L 405 470 L 399 473 L 397 473 L 395 475 L 392 475 L 391 474 L 387 475 L 385 474 L 380 476 L 378 476 L 374 473 L 374 470 L 376 466 L 376 460 L 374 458 L 369 458 L 365 460 L 359 465 L 355 464 L 352 461 L 352 456 L 353 454 L 356 452 L 360 447 L 360 444 L 359 443 L 338 443 L 335 440 L 336 436 L 344 430 L 344 429 L 351 422 L 351 419 L 352 418 L 352 416 L 350 414 L 339 415 L 338 412 L 345 404 L 351 401 L 355 401 L 356 400 L 361 400 L 365 398 L 369 398 L 382 389 L 384 389 L 388 386 L 400 381 L 380 390 L 368 398 L 359 399 L 358 400 L 353 400 L 347 402 L 339 409 L 338 414 L 340 416 L 349 414 L 352 418 L 348 425 L 335 436 L 335 441 L 338 444 L 355 444 L 357 446 L 355 451 L 350 457 L 351 463 L 355 466 L 360 466 L 363 464 L 364 462 L 373 459 L 375 461 L 375 465 L 371 471 L 371 476 L 372 478 L 375 480 L 388 480 L 398 475 L 400 475 L 407 470 L 419 466 L 428 458 L 432 456 L 436 456 L 438 458 L 438 461 L 439 461 L 439 459 L 442 456 L 447 456 L 450 453 L 454 451 L 466 438 L 469 436 L 471 436 L 475 432 L 478 434 L 478 437 L 479 438 L 481 437 L 484 434 L 487 427 L 494 417 L 494 414 L 498 409 L 501 413 L 499 419 L 499 422 L 497 426 L 497 428 L 498 428 L 500 425 L 500 423 L 502 421 L 502 418 L 506 412 L 509 395 L 511 393 L 513 393 L 514 391 L 513 389 L 513 381 L 511 377 L 509 367 L 502 356 L 502 352 L 500 349 L 500 347 L 486 334 L 478 330 L 472 325 L 472 323 L 474 321 L 477 321 Z M 443 298 L 446 300 L 448 300 L 455 309 L 464 312 L 458 310 L 453 306 L 452 303 L 454 300 Z M 389 296 L 386 295 L 371 301 L 368 301 L 363 303 L 359 303 L 358 304 L 353 304 L 352 305 L 346 305 L 345 306 L 329 306 L 328 305 L 323 305 L 322 304 L 313 303 L 311 304 L 309 307 L 316 315 L 329 324 L 332 325 L 334 327 L 338 328 L 340 330 L 343 331 L 349 331 L 350 330 L 358 329 L 360 325 L 377 312 L 388 301 Z M 387 299 L 387 300 L 379 308 L 370 314 L 357 326 L 355 326 L 349 329 L 341 329 L 331 324 L 325 319 L 316 314 L 310 308 L 313 304 L 322 305 L 326 307 L 346 307 L 347 306 L 355 306 L 360 304 L 365 304 L 368 302 L 372 302 L 378 300 L 383 297 L 385 297 Z M 405 293 L 399 299 L 398 301 L 398 307 L 400 307 L 403 304 L 404 299 L 406 296 Z M 218 238 L 217 243 L 213 247 L 210 247 L 209 248 L 206 247 L 201 241 L 207 248 L 212 248 L 215 247 L 217 245 Z M 484 206 L 483 207 L 479 204 L 476 204 L 475 205 L 475 211 L 478 215 L 478 217 L 476 219 L 472 215 L 468 216 L 466 214 L 462 215 L 457 212 L 455 213 L 459 219 L 459 222 L 460 223 L 458 226 L 456 225 L 455 226 L 455 231 L 457 234 L 457 236 L 449 242 L 449 245 L 447 247 L 444 246 L 444 262 L 442 264 L 441 263 L 437 263 L 436 269 L 431 278 L 431 281 L 429 284 L 427 285 L 425 282 L 423 282 L 419 288 L 415 287 L 411 291 L 411 294 L 409 297 L 409 304 L 410 305 L 415 304 L 417 301 L 420 299 L 421 300 L 426 300 L 431 297 L 441 297 L 438 295 L 433 295 L 427 299 L 424 299 L 422 297 L 422 295 L 436 282 L 441 281 L 444 278 L 445 275 L 447 273 L 447 271 L 451 266 L 454 266 L 456 269 L 458 269 L 462 265 L 466 257 L 467 247 L 469 245 L 473 248 L 475 247 L 475 242 L 474 241 L 474 236 L 473 235 L 473 228 L 475 226 L 481 229 L 482 228 L 482 225 L 480 222 L 478 216 L 478 213 L 475 208 L 475 206 L 477 204 L 480 205 L 482 207 Z M 416 295 L 417 298 L 413 303 L 411 300 L 412 298 Z M 131 199 L 120 193 L 109 193 L 106 195 L 103 195 L 94 203 L 88 211 L 81 226 L 81 235 L 82 238 L 90 247 L 92 248 L 104 248 L 110 246 L 121 240 L 133 232 L 137 228 L 140 222 L 140 212 L 136 204 Z M 124 195 L 130 199 L 136 205 L 137 208 L 139 210 L 140 213 L 140 221 L 137 227 L 131 233 L 109 246 L 103 248 L 94 248 L 88 245 L 82 237 L 81 234 L 81 228 L 82 227 L 83 221 L 91 207 L 101 197 L 107 194 L 118 193 Z M 238 195 L 236 199 L 236 206 L 241 211 L 248 211 L 254 208 L 259 202 L 261 203 L 261 209 L 264 217 L 267 221 L 272 225 L 278 227 L 282 230 L 285 244 L 289 253 L 299 267 L 300 267 L 301 269 L 315 282 L 327 287 L 338 286 L 341 284 L 345 283 L 352 278 L 361 268 L 368 252 L 369 244 L 370 243 L 370 237 L 371 236 L 370 209 L 368 203 L 364 199 L 361 199 L 357 204 L 349 211 L 344 213 L 342 215 L 336 217 L 332 217 L 331 218 L 317 218 L 316 217 L 308 216 L 302 214 L 300 212 L 300 210 L 301 209 L 305 209 L 315 204 L 322 196 L 324 190 L 322 196 L 319 200 L 314 204 L 302 209 L 291 209 L 280 203 L 274 196 L 273 193 L 273 186 L 277 179 L 274 179 L 271 175 L 272 178 L 275 181 L 273 186 L 273 191 L 272 192 L 268 189 L 265 189 L 264 190 L 258 185 L 254 185 L 253 186 L 247 187 Z M 263 192 L 266 189 L 268 189 L 270 191 L 270 210 L 277 218 L 272 213 L 270 209 L 270 196 L 272 194 L 281 204 L 288 208 L 293 209 L 297 212 L 297 213 L 294 215 L 291 219 L 288 220 L 291 219 L 297 214 L 303 214 L 304 215 L 307 215 L 316 218 L 332 218 L 333 217 L 336 217 L 342 215 L 351 210 L 361 199 L 365 200 L 368 203 L 370 209 L 370 219 L 371 220 L 370 242 L 369 243 L 369 247 L 368 248 L 366 258 L 358 272 L 354 276 L 345 282 L 335 286 L 326 286 L 317 283 L 312 280 L 297 264 L 290 254 L 285 244 L 282 230 L 280 228 L 272 225 L 263 215 L 261 209 L 261 199 L 262 198 L 262 194 Z M 259 187 L 261 189 L 261 191 L 253 204 L 247 210 L 243 210 L 241 209 L 237 205 L 237 199 L 238 197 L 245 190 L 250 187 L 253 187 L 254 186 Z M 375 184 L 376 190 L 382 196 L 386 197 L 391 200 L 399 201 L 400 202 L 410 202 L 411 201 L 418 200 L 423 196 L 425 190 L 424 185 L 419 178 L 416 177 L 414 175 L 408 174 L 407 173 L 402 173 L 401 172 L 392 172 L 391 173 L 385 174 L 380 177 L 377 180 Z M 376 183 L 381 177 L 387 174 L 390 174 L 391 173 L 405 173 L 418 178 L 423 183 L 425 190 L 423 195 L 420 198 L 416 200 L 412 200 L 411 201 L 397 201 L 382 195 L 376 189 Z M 288 158 L 289 168 L 287 172 L 284 175 L 287 175 L 295 172 L 307 173 L 319 178 L 324 183 L 324 185 L 324 183 L 317 176 L 314 174 L 312 174 L 309 170 L 310 169 L 319 169 L 320 168 L 330 169 L 331 168 L 331 165 L 329 163 L 325 162 L 322 160 L 310 160 L 309 161 L 302 162 L 290 173 L 288 171 L 289 170 L 289 162 L 288 161 Z M 301 165 L 303 163 L 309 161 L 320 161 L 328 164 L 329 166 L 328 167 L 322 167 L 321 166 L 308 166 L 307 167 L 302 167 Z M 82 160 L 79 164 L 78 170 L 79 171 L 85 165 L 88 165 L 92 167 L 100 177 L 103 183 L 103 186 L 102 188 L 97 192 L 94 193 L 90 193 L 88 192 L 85 194 L 70 183 L 67 182 L 63 183 L 59 187 L 58 190 L 59 194 L 60 195 L 66 187 L 69 187 L 73 189 L 83 199 L 85 205 L 80 211 L 77 212 L 73 212 L 70 210 L 67 210 L 64 213 L 57 213 L 54 216 L 54 224 L 57 230 L 70 244 L 76 248 L 81 253 L 87 256 L 93 261 L 95 268 L 101 280 L 101 282 L 117 306 L 126 315 L 130 317 L 134 321 L 143 327 L 146 328 L 150 332 L 147 336 L 141 336 L 142 339 L 154 345 L 167 349 L 171 353 L 170 360 L 173 362 L 191 366 L 202 373 L 205 373 L 206 374 L 212 374 L 213 373 L 215 375 L 215 381 L 214 382 L 219 386 L 228 387 L 231 381 L 232 374 L 234 372 L 234 370 L 239 364 L 241 358 L 247 352 L 250 352 L 252 354 L 249 349 L 255 343 L 254 336 L 259 330 L 259 326 L 257 323 L 262 318 L 260 315 L 258 315 L 255 317 L 255 324 L 250 331 L 249 334 L 250 338 L 246 344 L 246 349 L 247 351 L 242 356 L 240 360 L 238 362 L 235 363 L 216 363 L 214 360 L 215 358 L 220 354 L 219 351 L 207 351 L 206 350 L 202 350 L 196 345 L 184 345 L 182 342 L 187 338 L 185 335 L 177 334 L 165 330 L 163 328 L 154 324 L 145 316 L 141 314 L 128 304 L 123 299 L 122 296 L 114 288 L 114 287 L 110 284 L 106 278 L 102 274 L 100 274 L 98 272 L 98 270 L 96 268 L 96 266 L 93 260 L 88 256 L 83 254 L 78 249 L 66 240 L 57 230 L 57 228 L 55 226 L 54 223 L 54 217 L 57 214 L 59 214 L 60 215 L 59 222 L 60 223 L 60 226 L 62 229 L 70 234 L 74 234 L 77 231 L 78 226 L 77 225 L 77 221 L 76 219 L 70 214 L 72 212 L 79 212 L 81 211 L 85 206 L 84 199 L 77 191 L 78 190 L 84 194 L 87 194 L 88 193 L 96 193 L 99 192 L 103 188 L 103 186 L 106 183 L 107 184 L 112 183 L 119 188 L 124 188 L 127 186 L 129 181 L 129 177 L 131 176 L 135 181 L 137 180 L 139 182 L 137 187 L 137 197 L 140 200 L 145 201 L 148 200 L 151 197 L 153 193 L 153 190 L 154 189 L 154 178 L 152 175 L 154 173 L 158 177 L 159 180 L 158 198 L 154 210 L 155 211 L 155 214 L 185 249 L 189 246 L 191 246 L 199 258 L 200 261 L 208 270 L 212 267 L 212 264 L 214 263 L 215 265 L 219 268 L 219 270 L 221 272 L 221 274 L 225 281 L 228 282 L 230 279 L 233 277 L 235 279 L 239 288 L 242 292 L 245 293 L 247 290 L 250 288 L 259 299 L 259 301 L 261 304 L 260 306 L 260 310 L 261 311 L 263 311 L 267 306 L 269 306 L 274 300 L 277 300 L 284 305 L 290 307 L 291 306 L 291 303 L 288 297 L 280 290 L 278 290 L 276 288 L 270 287 L 266 285 L 254 269 L 251 270 L 249 269 L 249 265 L 247 260 L 245 260 L 241 265 L 239 264 L 237 260 L 237 256 L 238 255 L 238 242 L 236 240 L 232 241 L 230 239 L 230 233 L 229 241 L 230 242 L 236 241 L 238 243 L 238 253 L 237 254 L 237 260 L 238 263 L 242 266 L 246 261 L 248 263 L 250 273 L 252 275 L 255 273 L 264 284 L 265 287 L 269 292 L 272 298 L 272 302 L 268 306 L 264 306 L 260 302 L 255 293 L 248 285 L 246 286 L 246 290 L 243 292 L 239 288 L 235 279 L 235 277 L 232 274 L 230 276 L 230 278 L 226 281 L 223 278 L 221 272 L 214 260 L 212 261 L 211 267 L 209 269 L 207 269 L 201 262 L 190 244 L 189 244 L 186 248 L 184 248 L 175 236 L 158 218 L 155 213 L 155 207 L 157 203 L 158 192 L 159 191 L 159 180 L 157 175 L 154 172 L 147 171 L 137 180 L 135 180 L 132 177 L 130 170 L 123 157 L 121 155 L 117 154 L 112 158 L 114 160 L 119 160 L 122 162 L 125 166 L 126 170 L 128 173 L 128 183 L 124 187 L 120 187 L 111 179 L 107 182 L 105 180 L 104 176 L 98 166 L 92 161 L 87 159 Z M 217 354 L 211 359 L 208 358 L 208 356 L 213 352 L 215 352 Z M 189 349 L 191 347 L 193 347 L 195 350 L 192 352 L 190 351 Z M 252 340 L 254 343 L 249 347 L 247 345 L 248 343 Z M 163 332 L 165 331 L 176 335 L 183 335 L 185 338 L 179 342 L 174 342 L 170 338 L 166 337 L 165 335 L 163 334 Z M 255 328 L 257 331 L 253 334 L 251 332 Z M 132 312 L 133 311 L 139 314 L 141 317 L 140 318 L 134 315 Z M 276 294 L 278 292 L 282 294 L 289 301 L 290 304 L 289 305 L 285 304 Z M 64 215 L 70 216 L 77 222 L 77 229 L 74 233 L 69 233 L 65 231 L 62 228 L 60 224 L 60 218 Z M 62 186 L 63 188 L 62 190 L 60 191 L 59 189 Z M 150 174 L 153 177 L 153 190 L 150 197 L 147 200 L 141 200 L 137 195 L 137 189 L 143 177 L 146 174 Z M 79 164 L 84 159 L 93 162 L 99 168 L 102 173 L 103 177 L 102 178 L 92 166 L 88 164 L 83 166 L 80 166 Z M 111 144 L 108 145 L 101 153 L 88 147 L 81 147 L 74 152 L 69 158 L 68 161 L 69 158 L 78 149 L 84 147 L 87 147 L 93 149 L 99 153 L 102 153 L 103 151 L 110 144 Z M 113 143 L 122 143 L 129 147 L 134 153 L 138 162 L 141 162 L 147 159 L 153 159 L 160 162 L 165 167 L 162 163 L 154 159 L 147 159 L 139 162 L 137 160 L 136 156 L 134 154 L 133 151 L 129 147 L 120 142 Z M 477 116 L 477 118 L 474 124 L 467 132 L 466 136 L 473 146 L 476 153 L 479 156 L 483 168 L 489 172 L 492 176 L 491 174 L 483 167 L 482 165 L 482 160 L 479 157 L 479 155 L 476 152 L 472 144 L 469 141 L 467 137 L 467 133 L 474 124 L 477 118 Z M 293 117 L 289 114 L 284 114 L 278 118 L 273 125 L 273 130 L 275 132 L 281 131 L 287 125 L 290 124 L 293 121 Z M 291 115 L 293 117 L 293 121 L 290 124 L 287 125 L 278 132 L 276 132 L 273 129 L 273 125 L 280 117 L 286 114 Z M 254 112 L 247 112 L 238 119 L 235 124 L 235 135 L 236 138 L 241 142 L 248 143 L 252 139 L 255 133 L 260 128 L 264 121 L 263 118 L 260 115 Z M 254 113 L 260 117 L 263 121 L 257 128 L 251 139 L 248 142 L 243 142 L 237 137 L 236 134 L 236 126 L 237 123 L 246 114 Z M 466 100 L 466 110 L 464 113 L 464 115 L 460 120 L 459 123 L 452 129 L 450 129 L 448 132 L 458 144 L 463 155 L 466 158 L 468 162 L 465 166 L 466 170 L 468 172 L 470 172 L 472 174 L 475 175 L 481 180 L 479 183 L 478 182 L 476 183 L 471 183 L 469 185 L 481 198 L 484 204 L 482 199 L 479 195 L 470 186 L 472 183 L 481 183 L 481 180 L 474 174 L 472 174 L 466 169 L 466 166 L 469 162 L 462 153 L 457 142 L 449 132 L 449 131 L 451 129 L 454 128 L 462 119 L 466 110 Z M 223 121 L 226 112 L 234 104 L 247 98 L 258 98 L 264 100 L 270 105 L 275 112 L 279 112 L 288 104 L 296 101 L 286 105 L 278 111 L 275 111 L 270 105 L 264 100 L 258 98 L 247 98 L 241 101 L 239 101 L 231 106 L 226 112 Z M 430 90 L 426 93 L 422 98 L 420 102 L 420 106 L 423 109 L 431 114 L 438 121 L 442 122 L 447 120 L 453 113 L 453 106 L 449 97 L 442 90 L 439 90 L 438 89 Z M 433 90 L 441 91 L 449 99 L 452 106 L 452 112 L 451 114 L 447 118 L 442 121 L 440 121 L 437 119 L 433 114 L 428 110 L 425 109 L 420 104 L 422 99 L 429 92 Z M 401 96 L 399 96 L 391 92 L 382 91 L 381 90 L 370 90 L 369 89 L 368 90 L 367 89 L 366 90 L 358 90 L 356 88 L 357 80 L 355 79 L 351 81 L 344 89 L 340 89 L 329 82 L 325 82 L 324 85 L 326 91 L 324 93 L 306 93 L 305 96 L 302 99 L 298 100 L 303 99 L 304 97 L 309 93 L 324 93 L 326 91 L 326 87 L 325 85 L 327 83 L 332 84 L 334 86 L 336 86 L 339 89 L 342 90 L 353 80 L 355 80 L 357 82 L 357 85 L 356 86 L 356 89 L 357 90 L 380 90 L 381 91 L 390 92 L 393 94 L 396 94 L 399 96 Z M 439 64 L 443 64 L 458 70 L 464 74 L 472 82 L 474 87 L 470 79 L 465 74 L 459 70 L 447 66 L 444 64 Z" fill="#D8D8D8" fill-rule="evenodd"/><path d="M 528 458 L 526 458 L 524 462 L 527 482 L 526 483 L 526 492 L 525 493 L 525 497 L 523 502 L 523 508 L 524 508 L 528 503 L 535 489 L 536 481 L 537 480 L 537 474 L 531 461 Z M 528 460 L 531 463 L 532 467 L 535 471 L 535 484 L 533 488 L 533 491 L 528 501 L 525 503 L 524 500 L 526 496 L 527 486 L 528 485 L 528 476 L 527 475 L 525 462 Z M 216 354 L 213 353 L 209 356 L 209 358 L 213 357 Z M 252 341 L 249 343 L 248 345 L 249 346 L 253 343 Z M 164 332 L 164 334 L 165 334 L 166 336 L 170 337 L 174 341 L 179 341 L 181 339 L 184 338 L 183 336 L 176 336 Z M 386 299 L 383 298 L 378 301 L 372 303 L 368 303 L 365 305 L 360 305 L 355 307 L 347 307 L 346 308 L 326 308 L 322 306 L 313 305 L 311 308 L 316 313 L 325 318 L 331 323 L 341 328 L 349 328 L 355 325 L 357 325 L 370 313 L 379 307 L 386 300 Z M 416 296 L 413 298 L 412 300 L 413 302 L 415 300 Z M 277 294 L 285 303 L 289 304 L 288 301 L 282 295 L 278 293 Z M 222 249 L 222 253 L 223 255 L 225 255 L 224 249 Z M 62 217 L 61 218 L 61 224 L 63 228 L 69 232 L 74 232 L 76 229 L 76 222 L 70 217 L 67 216 Z M 130 200 L 122 195 L 111 194 L 101 198 L 92 207 L 84 221 L 83 227 L 82 228 L 82 234 L 83 237 L 88 244 L 94 247 L 103 247 L 109 245 L 122 238 L 131 232 L 136 227 L 139 221 L 139 213 L 135 205 Z M 263 194 L 263 198 L 262 199 L 262 209 L 264 215 L 272 224 L 280 227 L 283 230 L 286 244 L 288 247 L 288 249 L 298 264 L 312 279 L 317 282 L 326 285 L 335 285 L 345 281 L 357 272 L 365 258 L 367 248 L 368 247 L 368 243 L 369 242 L 369 232 L 370 231 L 369 209 L 368 208 L 368 205 L 365 201 L 361 200 L 351 211 L 342 216 L 336 218 L 333 218 L 332 219 L 316 219 L 315 218 L 311 218 L 303 215 L 297 215 L 291 220 L 284 222 L 283 221 L 280 221 L 277 219 L 270 212 L 269 210 L 269 191 L 266 190 Z M 264 193 L 266 191 L 269 193 L 268 207 L 270 213 L 273 217 L 282 222 L 288 222 L 292 220 L 298 215 L 309 217 L 313 219 L 318 219 L 319 220 L 329 220 L 330 219 L 338 218 L 344 215 L 346 215 L 354 210 L 357 206 L 363 201 L 368 206 L 368 210 L 369 211 L 369 238 L 368 239 L 368 244 L 367 245 L 366 253 L 360 267 L 355 272 L 353 271 L 353 269 L 355 267 L 360 256 L 360 253 L 361 252 L 361 247 L 360 245 L 355 240 L 351 238 L 348 238 L 347 237 L 337 237 L 336 238 L 333 238 L 325 242 L 316 250 L 311 258 L 311 265 L 314 271 L 320 278 L 318 281 L 313 279 L 298 263 L 291 253 L 285 239 L 285 235 L 284 234 L 284 230 L 283 228 L 273 224 L 266 217 L 263 211 L 263 196 Z M 259 188 L 254 187 L 253 188 L 250 188 L 245 191 L 239 197 L 238 199 L 238 205 L 243 209 L 247 209 L 255 200 L 255 198 L 258 195 L 260 191 Z M 150 175 L 146 175 L 142 180 L 138 189 L 138 195 L 141 199 L 147 199 L 151 193 L 152 190 L 152 177 Z M 377 183 L 377 189 L 382 194 L 397 200 L 411 200 L 412 199 L 416 199 L 422 195 L 424 190 L 422 183 L 418 179 L 405 174 L 391 174 L 390 175 L 387 175 L 381 178 Z M 302 165 L 302 166 L 307 166 L 308 165 L 328 166 L 328 165 L 320 162 L 309 162 Z M 278 153 L 274 157 L 271 165 L 271 174 L 274 178 L 277 178 L 278 179 L 274 186 L 274 193 L 278 200 L 286 206 L 291 208 L 302 208 L 308 206 L 317 201 L 323 192 L 324 189 L 323 183 L 319 179 L 311 175 L 303 174 L 302 173 L 295 173 L 287 176 L 284 176 L 283 175 L 286 172 L 288 168 L 287 157 L 283 152 Z M 274 187 L 276 183 L 279 180 L 287 176 L 290 176 L 294 174 L 304 174 L 305 175 L 311 176 L 319 180 L 323 184 L 323 191 L 321 195 L 314 202 L 303 207 L 295 208 L 294 207 L 290 207 L 284 204 L 276 196 L 274 191 Z M 283 153 L 287 158 L 287 169 L 282 175 L 278 177 L 274 177 L 271 173 L 272 162 L 274 158 L 278 154 Z M 364 146 L 358 151 L 355 158 L 355 168 L 359 175 L 363 177 L 366 177 L 371 173 L 373 169 L 374 160 L 373 159 L 373 156 L 369 149 L 367 147 Z M 364 147 L 367 148 L 370 151 L 373 157 L 373 168 L 371 172 L 366 176 L 362 176 L 360 175 L 357 172 L 355 167 L 355 159 L 358 152 Z M 292 117 L 289 115 L 283 116 L 276 122 L 274 125 L 274 129 L 276 131 L 278 131 L 284 126 L 290 123 L 292 121 Z M 292 119 L 290 122 L 284 125 L 280 129 L 276 130 L 274 128 L 274 126 L 280 119 L 283 118 L 285 116 L 289 116 Z M 254 114 L 246 115 L 238 123 L 237 126 L 237 134 L 238 137 L 243 141 L 248 141 L 250 139 L 254 131 L 262 121 L 260 118 Z M 361 108 L 361 112 L 364 114 L 369 115 L 377 120 L 380 120 L 382 118 L 382 113 L 378 109 L 371 106 L 363 106 Z M 361 109 L 364 106 L 373 107 L 377 109 L 381 113 L 382 117 L 380 119 L 376 119 L 370 115 L 363 113 L 361 111 Z M 433 91 L 429 93 L 423 99 L 421 104 L 425 108 L 428 109 L 433 113 L 437 118 L 440 120 L 442 120 L 450 114 L 451 112 L 451 106 L 448 99 L 441 92 Z M 444 75 L 438 73 L 429 73 L 428 74 L 425 74 L 413 81 L 408 87 L 407 91 L 404 95 L 401 95 L 398 93 L 389 90 L 379 89 L 378 88 L 360 88 L 358 86 L 359 79 L 357 77 L 355 77 L 349 81 L 343 88 L 341 88 L 333 82 L 331 82 L 328 80 L 323 80 L 322 81 L 322 85 L 324 87 L 324 90 L 322 92 L 306 91 L 303 93 L 303 96 L 301 98 L 286 103 L 277 110 L 276 110 L 270 104 L 270 103 L 265 99 L 259 97 L 255 97 L 254 96 L 243 98 L 233 103 L 226 110 L 223 115 L 222 121 L 221 122 L 221 126 L 220 127 L 220 132 L 221 133 L 222 140 L 229 150 L 236 154 L 238 154 L 241 158 L 233 174 L 231 188 L 224 195 L 221 202 L 223 205 L 227 203 L 229 204 L 229 208 L 224 216 L 223 222 L 225 224 L 229 223 L 231 225 L 229 235 L 228 236 L 228 244 L 229 245 L 234 244 L 236 246 L 236 262 L 238 266 L 241 268 L 243 268 L 245 266 L 248 269 L 250 275 L 252 277 L 255 277 L 260 282 L 270 297 L 270 302 L 268 304 L 265 304 L 260 299 L 257 293 L 247 282 L 245 283 L 245 286 L 242 288 L 240 286 L 237 280 L 237 278 L 233 272 L 230 272 L 229 276 L 226 279 L 222 273 L 219 264 L 214 258 L 211 259 L 210 265 L 207 267 L 202 261 L 196 250 L 190 242 L 185 246 L 181 243 L 175 234 L 160 218 L 156 212 L 156 209 L 159 200 L 159 194 L 160 193 L 160 179 L 158 174 L 155 171 L 153 170 L 146 170 L 137 178 L 135 178 L 133 176 L 131 168 L 124 156 L 121 153 L 116 153 L 114 154 L 110 159 L 110 163 L 109 164 L 109 176 L 107 178 L 105 176 L 101 168 L 96 162 L 89 158 L 83 158 L 79 161 L 77 166 L 77 176 L 83 188 L 81 189 L 69 181 L 64 181 L 58 186 L 57 193 L 62 201 L 64 209 L 62 211 L 58 211 L 56 212 L 53 215 L 52 221 L 56 231 L 70 246 L 81 255 L 88 259 L 92 263 L 102 287 L 111 301 L 120 312 L 131 321 L 141 327 L 146 332 L 145 334 L 140 334 L 138 336 L 141 340 L 152 346 L 154 346 L 159 349 L 165 351 L 168 354 L 168 355 L 164 358 L 166 361 L 168 361 L 170 363 L 175 365 L 190 368 L 194 371 L 191 374 L 192 376 L 194 377 L 198 377 L 199 378 L 206 378 L 209 379 L 213 385 L 223 389 L 231 389 L 232 388 L 234 378 L 237 373 L 237 371 L 240 368 L 242 364 L 242 360 L 243 358 L 248 353 L 250 355 L 250 357 L 245 367 L 246 375 L 245 376 L 244 382 L 242 385 L 241 404 L 233 416 L 234 418 L 238 418 L 240 421 L 236 426 L 229 430 L 226 433 L 225 438 L 227 440 L 233 440 L 235 442 L 223 460 L 223 465 L 224 466 L 229 464 L 231 466 L 231 469 L 226 479 L 225 487 L 226 489 L 228 489 L 231 486 L 234 488 L 233 495 L 232 496 L 232 503 L 231 504 L 232 508 L 234 508 L 236 506 L 238 508 L 240 519 L 244 527 L 255 541 L 258 542 L 263 547 L 266 552 L 272 557 L 272 558 L 269 559 L 267 557 L 259 553 L 250 545 L 247 545 L 243 550 L 242 557 L 240 561 L 235 566 L 233 571 L 234 574 L 236 576 L 236 580 L 235 581 L 235 585 L 232 591 L 231 598 L 237 606 L 237 609 L 239 615 L 244 625 L 249 630 L 259 632 L 260 633 L 266 633 L 267 634 L 271 634 L 275 636 L 278 636 L 283 640 L 281 642 L 274 642 L 273 641 L 266 641 L 265 640 L 260 640 L 259 639 L 247 639 L 242 641 L 238 641 L 231 644 L 226 649 L 221 661 L 221 667 L 226 673 L 229 673 L 230 672 L 230 661 L 231 659 L 236 655 L 239 655 L 240 656 L 240 661 L 238 667 L 238 675 L 240 677 L 246 679 L 249 679 L 252 677 L 252 668 L 253 667 L 253 664 L 257 659 L 261 659 L 263 661 L 262 669 L 261 670 L 261 678 L 264 680 L 272 680 L 273 681 L 316 681 L 317 680 L 339 678 L 340 677 L 346 676 L 348 674 L 351 673 L 355 669 L 355 653 L 354 652 L 354 647 L 353 646 L 353 640 L 351 637 L 351 634 L 350 633 L 350 629 L 345 620 L 343 614 L 342 600 L 341 599 L 341 594 L 340 593 L 340 585 L 341 584 L 341 580 L 342 579 L 343 572 L 351 556 L 357 549 L 360 543 L 372 531 L 378 528 L 380 528 L 382 531 L 373 541 L 361 558 L 355 570 L 355 573 L 353 578 L 353 606 L 363 626 L 364 630 L 371 638 L 375 639 L 384 645 L 386 645 L 389 647 L 398 650 L 423 650 L 432 647 L 436 647 L 440 645 L 443 645 L 453 640 L 470 627 L 483 610 L 485 612 L 485 614 L 482 623 L 479 628 L 465 643 L 465 646 L 472 652 L 478 653 L 479 654 L 484 654 L 485 652 L 483 649 L 485 647 L 491 647 L 496 649 L 501 649 L 511 645 L 512 644 L 511 642 L 500 639 L 497 637 L 497 635 L 498 634 L 515 633 L 517 632 L 519 629 L 519 613 L 518 612 L 518 605 L 517 604 L 517 599 L 516 598 L 514 584 L 510 575 L 510 572 L 508 566 L 501 553 L 499 551 L 492 548 L 487 548 L 486 547 L 481 548 L 476 554 L 467 575 L 458 587 L 455 588 L 453 586 L 454 583 L 446 584 L 445 585 L 443 583 L 454 571 L 466 555 L 469 549 L 469 542 L 472 539 L 475 538 L 491 538 L 493 537 L 503 528 L 509 517 L 511 511 L 511 495 L 513 493 L 516 493 L 517 492 L 517 479 L 512 464 L 512 461 L 515 459 L 515 456 L 512 452 L 508 443 L 504 438 L 503 440 L 494 448 L 488 450 L 477 458 L 469 462 L 467 462 L 446 476 L 443 476 L 440 478 L 436 478 L 430 480 L 416 481 L 412 483 L 406 488 L 394 493 L 374 493 L 365 489 L 352 480 L 342 472 L 332 461 L 326 451 L 325 445 L 323 441 L 323 429 L 325 426 L 325 424 L 328 421 L 328 408 L 332 400 L 336 396 L 343 392 L 349 391 L 350 390 L 361 389 L 370 382 L 376 380 L 385 374 L 392 371 L 394 369 L 396 369 L 398 366 L 399 361 L 401 359 L 404 359 L 409 364 L 416 363 L 417 362 L 422 362 L 425 363 L 427 365 L 427 367 L 419 372 L 417 372 L 393 383 L 391 383 L 366 397 L 363 397 L 362 398 L 354 398 L 344 402 L 338 408 L 336 412 L 336 414 L 339 417 L 346 417 L 348 416 L 350 419 L 342 428 L 335 433 L 333 437 L 333 441 L 336 445 L 341 447 L 351 446 L 353 448 L 353 450 L 349 455 L 348 458 L 348 461 L 350 464 L 350 466 L 355 469 L 360 469 L 365 465 L 369 464 L 371 467 L 368 472 L 368 475 L 370 479 L 374 482 L 388 482 L 394 480 L 396 478 L 400 477 L 402 475 L 410 471 L 422 467 L 431 461 L 433 461 L 435 463 L 435 466 L 436 467 L 439 467 L 445 459 L 455 453 L 467 442 L 471 441 L 473 446 L 479 442 L 484 437 L 486 434 L 487 430 L 494 421 L 496 422 L 495 431 L 498 431 L 500 429 L 507 415 L 508 409 L 510 405 L 510 401 L 512 399 L 516 402 L 516 391 L 515 390 L 515 385 L 514 384 L 513 376 L 511 372 L 511 368 L 505 357 L 505 353 L 500 345 L 489 335 L 480 330 L 474 325 L 476 323 L 483 323 L 482 321 L 479 320 L 471 314 L 459 309 L 455 305 L 458 301 L 456 299 L 444 297 L 439 293 L 439 291 L 443 285 L 446 282 L 452 279 L 462 269 L 467 259 L 468 250 L 470 248 L 473 251 L 476 249 L 476 237 L 475 236 L 475 231 L 477 229 L 480 231 L 483 231 L 484 229 L 484 226 L 477 208 L 479 206 L 484 209 L 486 207 L 483 198 L 473 187 L 475 184 L 482 184 L 483 181 L 479 176 L 468 169 L 468 168 L 472 165 L 472 163 L 463 152 L 456 138 L 451 133 L 451 132 L 461 123 L 466 115 L 467 112 L 467 98 L 460 85 L 452 79 Z M 446 586 L 448 584 L 450 585 L 449 588 L 447 588 Z M 437 73 L 443 75 L 457 83 L 460 86 L 466 96 L 466 99 L 467 100 L 467 110 L 461 122 L 454 129 L 451 130 L 450 132 L 456 139 L 463 153 L 470 162 L 467 166 L 467 169 L 472 173 L 474 173 L 477 175 L 482 180 L 482 183 L 481 184 L 472 184 L 471 186 L 483 199 L 485 203 L 485 206 L 483 208 L 478 205 L 476 206 L 476 208 L 479 213 L 479 216 L 481 222 L 483 225 L 483 228 L 481 230 L 476 227 L 474 228 L 474 235 L 475 236 L 476 247 L 473 249 L 469 246 L 467 252 L 467 257 L 463 265 L 458 270 L 456 270 L 454 267 L 451 267 L 448 271 L 448 273 L 446 275 L 445 278 L 441 282 L 436 283 L 423 295 L 423 297 L 424 298 L 427 298 L 433 294 L 438 294 L 440 296 L 445 298 L 452 298 L 455 300 L 453 303 L 455 307 L 460 310 L 469 313 L 478 320 L 477 322 L 474 322 L 473 325 L 478 329 L 486 333 L 501 347 L 501 349 L 503 352 L 503 356 L 510 367 L 510 370 L 514 381 L 514 389 L 515 391 L 513 394 L 510 395 L 507 412 L 504 416 L 503 421 L 498 429 L 496 428 L 498 422 L 498 419 L 499 418 L 499 415 L 500 414 L 498 410 L 495 414 L 495 417 L 488 427 L 485 434 L 481 438 L 479 439 L 477 437 L 477 434 L 475 433 L 471 437 L 469 437 L 466 439 L 454 452 L 450 454 L 447 457 L 442 457 L 440 459 L 439 462 L 437 461 L 437 458 L 436 457 L 432 457 L 428 459 L 419 467 L 407 471 L 400 476 L 398 476 L 393 479 L 391 479 L 388 481 L 375 481 L 373 480 L 370 476 L 370 471 L 374 465 L 374 461 L 373 460 L 364 463 L 364 464 L 360 467 L 355 467 L 350 463 L 349 457 L 354 451 L 356 446 L 355 445 L 338 445 L 334 441 L 334 436 L 340 430 L 344 428 L 347 425 L 351 418 L 349 415 L 340 417 L 337 414 L 337 411 L 338 409 L 347 401 L 353 399 L 358 399 L 359 398 L 368 397 L 380 389 L 392 383 L 394 383 L 399 380 L 408 377 L 415 373 L 422 371 L 428 367 L 428 364 L 425 362 L 409 363 L 403 358 L 400 358 L 399 359 L 398 365 L 394 369 L 387 372 L 379 378 L 369 382 L 361 388 L 352 389 L 351 390 L 347 390 L 341 392 L 332 399 L 329 404 L 328 410 L 327 411 L 327 418 L 324 423 L 322 429 L 322 438 L 323 439 L 323 443 L 327 455 L 333 464 L 343 474 L 347 476 L 365 490 L 374 494 L 378 494 L 379 495 L 381 494 L 395 494 L 401 491 L 404 491 L 410 488 L 412 488 L 416 483 L 428 482 L 429 481 L 433 481 L 434 480 L 437 480 L 438 479 L 441 479 L 447 477 L 455 472 L 458 469 L 463 467 L 466 464 L 472 461 L 474 461 L 477 458 L 479 458 L 484 454 L 492 450 L 498 446 L 503 441 L 505 441 L 507 443 L 510 449 L 510 451 L 512 453 L 510 459 L 511 460 L 511 464 L 517 482 L 517 489 L 515 491 L 512 491 L 510 493 L 510 510 L 509 511 L 509 514 L 504 522 L 503 526 L 494 535 L 492 536 L 472 535 L 467 541 L 467 550 L 462 560 L 457 565 L 455 569 L 442 582 L 438 583 L 437 585 L 438 586 L 441 586 L 443 588 L 442 591 L 442 595 L 443 596 L 455 591 L 460 587 L 464 580 L 467 577 L 477 555 L 481 551 L 485 549 L 492 549 L 497 551 L 501 555 L 507 565 L 510 574 L 510 578 L 513 584 L 513 588 L 515 593 L 515 601 L 517 605 L 517 613 L 518 614 L 518 630 L 516 632 L 509 632 L 508 633 L 495 632 L 491 635 L 491 638 L 492 639 L 498 639 L 499 640 L 502 640 L 508 642 L 509 644 L 506 647 L 503 648 L 495 648 L 492 646 L 488 645 L 486 642 L 480 642 L 479 643 L 479 646 L 481 650 L 479 652 L 472 651 L 467 646 L 467 643 L 481 629 L 484 623 L 484 621 L 488 613 L 488 605 L 487 604 L 484 604 L 481 608 L 481 610 L 477 615 L 477 617 L 465 630 L 457 635 L 450 641 L 443 643 L 441 645 L 437 645 L 436 646 L 428 647 L 427 648 L 422 648 L 421 649 L 400 649 L 394 646 L 391 646 L 383 642 L 381 642 L 376 638 L 370 636 L 365 630 L 362 624 L 362 622 L 354 608 L 354 605 L 353 604 L 353 580 L 354 579 L 356 569 L 358 567 L 358 565 L 360 563 L 363 556 L 383 530 L 383 527 L 378 527 L 370 531 L 362 539 L 356 549 L 353 552 L 346 564 L 339 585 L 337 587 L 337 590 L 340 596 L 340 608 L 341 609 L 341 613 L 349 629 L 349 639 L 350 640 L 351 647 L 354 652 L 354 658 L 355 659 L 355 665 L 353 669 L 349 673 L 344 676 L 338 678 L 331 678 L 330 679 L 323 679 L 322 680 L 312 680 L 311 681 L 266 680 L 263 679 L 261 677 L 261 670 L 263 664 L 263 659 L 262 658 L 257 658 L 253 662 L 253 665 L 252 666 L 252 676 L 250 678 L 245 678 L 240 676 L 238 674 L 238 668 L 241 659 L 241 655 L 240 654 L 234 655 L 231 658 L 229 663 L 229 670 L 227 672 L 225 671 L 222 667 L 222 660 L 226 650 L 232 644 L 239 641 L 248 640 L 249 639 L 256 639 L 257 640 L 263 640 L 264 641 L 270 641 L 271 642 L 277 642 L 278 643 L 284 643 L 285 642 L 284 640 L 279 636 L 273 634 L 270 634 L 269 633 L 256 632 L 252 630 L 249 630 L 244 624 L 239 613 L 237 605 L 232 598 L 232 593 L 237 579 L 237 575 L 234 570 L 236 566 L 242 559 L 242 555 L 244 550 L 248 546 L 250 546 L 262 557 L 271 562 L 279 563 L 289 568 L 292 568 L 297 571 L 301 571 L 302 572 L 304 571 L 304 569 L 302 567 L 300 567 L 292 563 L 285 556 L 281 554 L 277 550 L 273 550 L 272 551 L 269 550 L 252 536 L 241 521 L 240 515 L 239 514 L 239 505 L 237 503 L 236 503 L 234 506 L 232 505 L 232 498 L 235 489 L 235 485 L 233 484 L 228 488 L 226 486 L 226 480 L 231 470 L 232 465 L 230 463 L 225 465 L 223 463 L 223 461 L 227 454 L 233 447 L 236 441 L 235 439 L 228 440 L 226 438 L 226 434 L 231 429 L 238 425 L 241 419 L 240 418 L 236 418 L 234 416 L 234 414 L 239 407 L 255 393 L 255 391 L 258 387 L 257 385 L 255 385 L 245 391 L 242 389 L 243 383 L 246 377 L 246 365 L 250 358 L 251 354 L 250 353 L 247 353 L 242 358 L 240 364 L 235 370 L 235 372 L 233 374 L 232 381 L 230 386 L 228 388 L 223 388 L 222 387 L 219 387 L 213 382 L 214 381 L 214 375 L 213 374 L 212 375 L 202 374 L 191 367 L 173 363 L 169 360 L 170 353 L 167 350 L 154 346 L 142 340 L 140 338 L 140 336 L 141 335 L 147 335 L 149 332 L 146 329 L 143 328 L 134 322 L 130 318 L 126 316 L 116 306 L 100 282 L 100 280 L 94 268 L 92 261 L 87 257 L 81 254 L 76 249 L 70 245 L 56 230 L 53 224 L 53 216 L 57 212 L 64 212 L 67 209 L 70 209 L 73 211 L 77 211 L 80 210 L 84 205 L 82 199 L 73 190 L 69 188 L 66 188 L 60 196 L 58 194 L 57 191 L 58 187 L 63 182 L 67 181 L 70 182 L 85 193 L 88 191 L 90 192 L 94 192 L 99 190 L 101 188 L 102 183 L 99 177 L 92 168 L 88 166 L 85 166 L 79 172 L 77 170 L 79 162 L 84 158 L 90 159 L 96 163 L 103 172 L 107 181 L 111 178 L 120 186 L 124 186 L 127 183 L 127 173 L 122 163 L 119 161 L 114 161 L 111 158 L 117 153 L 121 154 L 124 157 L 131 170 L 133 177 L 135 179 L 137 179 L 147 170 L 154 171 L 158 175 L 160 180 L 159 198 L 156 207 L 156 213 L 159 218 L 176 236 L 184 247 L 186 247 L 189 243 L 192 245 L 198 256 L 207 268 L 210 267 L 211 261 L 214 259 L 218 264 L 222 272 L 222 274 L 226 280 L 229 278 L 229 276 L 232 273 L 236 277 L 238 284 L 240 288 L 243 291 L 245 290 L 245 286 L 248 284 L 256 293 L 261 302 L 264 305 L 268 305 L 271 302 L 271 298 L 263 284 L 255 274 L 252 276 L 249 273 L 248 266 L 246 262 L 242 267 L 237 263 L 236 260 L 237 243 L 236 242 L 230 243 L 228 241 L 229 233 L 231 228 L 231 223 L 230 222 L 225 223 L 223 221 L 224 217 L 230 207 L 230 204 L 229 203 L 224 204 L 222 202 L 222 200 L 224 196 L 232 187 L 233 176 L 241 159 L 241 156 L 239 154 L 230 150 L 227 147 L 223 140 L 221 134 L 221 123 L 222 122 L 223 116 L 227 109 L 237 101 L 241 100 L 247 97 L 258 97 L 267 101 L 275 110 L 278 110 L 286 104 L 292 101 L 302 98 L 306 92 L 324 92 L 325 89 L 323 83 L 325 81 L 329 81 L 340 88 L 344 88 L 351 80 L 355 78 L 358 80 L 358 85 L 357 86 L 358 89 L 366 89 L 367 88 L 368 89 L 369 88 L 370 89 L 381 89 L 382 90 L 391 91 L 399 95 L 405 96 L 407 93 L 408 88 L 414 81 L 424 75 L 430 73 Z M 443 65 L 439 65 L 438 64 L 429 64 L 428 65 L 421 66 L 416 69 L 414 69 L 408 73 L 399 84 L 385 81 L 384 80 L 369 79 L 363 71 L 358 69 L 350 71 L 342 77 L 339 77 L 337 75 L 329 72 L 321 72 L 316 75 L 314 81 L 312 83 L 309 83 L 303 85 L 279 97 L 277 97 L 273 93 L 267 90 L 264 90 L 256 87 L 247 87 L 246 88 L 243 88 L 237 90 L 225 97 L 216 107 L 211 121 L 211 136 L 212 137 L 213 143 L 219 153 L 228 162 L 228 165 L 222 177 L 222 185 L 216 193 L 212 202 L 213 207 L 217 211 L 217 214 L 214 221 L 214 226 L 219 232 L 219 241 L 218 242 L 218 245 L 215 248 L 212 249 L 207 249 L 201 243 L 197 236 L 197 234 L 193 231 L 188 231 L 186 232 L 166 210 L 166 207 L 169 199 L 169 194 L 170 193 L 170 182 L 169 181 L 168 174 L 165 168 L 160 163 L 153 160 L 147 160 L 141 163 L 138 163 L 136 161 L 136 159 L 131 150 L 122 144 L 112 144 L 110 145 L 102 154 L 99 154 L 95 151 L 87 148 L 84 148 L 78 150 L 70 158 L 68 162 L 67 170 L 65 172 L 62 172 L 57 174 L 52 179 L 48 186 L 47 194 L 50 200 L 50 204 L 46 208 L 43 213 L 43 226 L 47 235 L 53 243 L 64 254 L 75 263 L 79 265 L 84 270 L 86 278 L 97 298 L 109 314 L 118 323 L 123 326 L 129 332 L 128 336 L 130 341 L 137 348 L 152 355 L 155 359 L 156 364 L 163 370 L 172 373 L 175 373 L 177 374 L 185 383 L 190 385 L 197 386 L 207 393 L 221 397 L 224 399 L 228 400 L 230 402 L 230 405 L 226 410 L 224 415 L 224 422 L 218 431 L 216 436 L 216 441 L 218 444 L 218 450 L 214 458 L 213 466 L 216 472 L 216 492 L 219 499 L 221 501 L 223 513 L 236 534 L 236 539 L 232 544 L 229 551 L 227 553 L 222 568 L 222 576 L 223 579 L 220 588 L 220 593 L 222 598 L 222 605 L 224 611 L 234 629 L 234 631 L 229 635 L 223 638 L 216 647 L 211 661 L 211 670 L 213 675 L 217 680 L 231 687 L 241 689 L 242 690 L 261 691 L 262 692 L 301 692 L 302 691 L 321 691 L 322 690 L 340 689 L 341 688 L 344 688 L 350 686 L 355 683 L 357 683 L 359 681 L 361 681 L 364 678 L 366 674 L 366 668 L 367 667 L 368 658 L 371 654 L 374 653 L 375 654 L 379 654 L 385 656 L 390 659 L 402 663 L 415 664 L 416 663 L 420 663 L 424 661 L 431 660 L 440 657 L 449 652 L 455 651 L 461 657 L 470 662 L 477 663 L 478 664 L 492 664 L 493 663 L 498 663 L 499 662 L 505 661 L 514 656 L 524 647 L 529 638 L 530 630 L 531 629 L 531 608 L 529 602 L 528 590 L 527 589 L 525 578 L 521 566 L 515 554 L 510 547 L 509 544 L 509 538 L 513 530 L 522 523 L 526 522 L 536 512 L 541 505 L 544 499 L 546 493 L 546 490 L 547 489 L 548 473 L 547 472 L 547 467 L 539 452 L 532 447 L 526 446 L 522 444 L 519 441 L 518 438 L 518 431 L 517 428 L 519 422 L 521 420 L 525 412 L 527 406 L 527 400 L 528 399 L 528 386 L 527 385 L 526 376 L 523 367 L 521 364 L 521 362 L 514 351 L 510 342 L 501 331 L 499 324 L 483 309 L 480 304 L 474 298 L 466 294 L 461 289 L 461 287 L 464 284 L 465 281 L 473 270 L 477 262 L 483 255 L 486 243 L 493 235 L 493 222 L 492 221 L 492 216 L 495 211 L 495 202 L 490 192 L 493 186 L 493 179 L 490 174 L 482 168 L 478 156 L 475 153 L 472 146 L 465 136 L 466 132 L 473 124 L 476 118 L 477 111 L 478 110 L 477 99 L 476 98 L 476 94 L 474 88 L 471 82 L 464 75 L 458 71 Z M 448 67 L 460 73 L 466 78 L 472 85 L 476 95 L 476 98 L 477 99 L 477 114 L 473 123 L 465 132 L 464 135 L 470 144 L 474 153 L 476 155 L 479 161 L 480 167 L 483 170 L 487 172 L 493 179 L 493 185 L 490 190 L 490 193 L 495 202 L 495 211 L 491 215 L 491 219 L 493 223 L 493 234 L 491 238 L 485 243 L 484 252 L 482 256 L 477 261 L 475 266 L 467 277 L 465 282 L 460 286 L 460 288 L 464 293 L 472 297 L 499 325 L 501 332 L 510 343 L 514 352 L 520 361 L 520 363 L 523 368 L 526 377 L 526 380 L 527 381 L 528 397 L 527 398 L 527 404 L 526 405 L 525 411 L 520 420 L 516 424 L 518 440 L 522 445 L 535 449 L 542 457 L 547 468 L 547 487 L 546 488 L 545 495 L 540 505 L 535 512 L 526 521 L 518 525 L 511 532 L 508 538 L 508 544 L 515 555 L 517 560 L 519 562 L 519 564 L 521 567 L 525 579 L 525 582 L 527 587 L 527 591 L 528 592 L 530 611 L 531 612 L 531 626 L 530 627 L 530 632 L 529 633 L 528 639 L 523 647 L 517 653 L 510 658 L 504 661 L 501 661 L 496 663 L 491 663 L 490 664 L 481 664 L 480 663 L 474 663 L 463 658 L 456 651 L 451 651 L 437 658 L 431 660 L 423 661 L 419 663 L 403 663 L 402 662 L 396 661 L 387 656 L 385 656 L 378 652 L 375 652 L 367 648 L 366 649 L 367 651 L 367 665 L 366 666 L 366 672 L 364 677 L 360 681 L 352 685 L 343 688 L 340 688 L 339 689 L 321 690 L 320 691 L 300 691 L 299 692 L 263 692 L 262 691 L 243 690 L 242 689 L 239 689 L 238 688 L 235 688 L 229 686 L 227 684 L 225 684 L 219 681 L 213 674 L 212 671 L 212 659 L 213 658 L 214 652 L 221 641 L 229 635 L 232 634 L 235 631 L 235 629 L 227 617 L 223 607 L 222 597 L 221 596 L 221 584 L 223 581 L 222 569 L 225 562 L 226 556 L 237 537 L 234 529 L 223 513 L 222 503 L 217 494 L 217 488 L 216 487 L 217 485 L 217 474 L 216 471 L 214 469 L 214 459 L 219 449 L 219 445 L 217 442 L 216 437 L 219 430 L 224 424 L 225 413 L 230 406 L 231 402 L 225 398 L 213 394 L 210 394 L 197 386 L 186 383 L 178 374 L 169 371 L 166 371 L 162 369 L 156 364 L 155 359 L 151 354 L 138 348 L 129 339 L 129 331 L 125 327 L 120 324 L 107 311 L 98 299 L 86 277 L 84 269 L 80 265 L 67 256 L 52 241 L 47 234 L 43 225 L 43 214 L 45 210 L 51 204 L 48 195 L 48 186 L 53 178 L 56 175 L 60 173 L 66 173 L 68 170 L 68 163 L 69 160 L 80 150 L 83 149 L 89 149 L 97 154 L 101 155 L 106 149 L 111 145 L 114 144 L 121 144 L 127 147 L 133 153 L 135 160 L 138 164 L 140 164 L 145 161 L 151 160 L 159 163 L 165 169 L 169 177 L 169 182 L 170 183 L 170 192 L 169 193 L 168 202 L 166 206 L 166 211 L 185 232 L 194 232 L 198 237 L 201 244 L 206 250 L 217 249 L 218 248 L 218 244 L 220 238 L 220 232 L 214 226 L 214 222 L 217 216 L 217 210 L 213 206 L 213 200 L 215 195 L 221 188 L 223 184 L 222 181 L 223 179 L 223 175 L 229 164 L 229 161 L 222 156 L 216 148 L 213 142 L 213 139 L 211 135 L 211 121 L 217 106 L 226 97 L 232 93 L 234 93 L 236 91 L 238 91 L 241 89 L 248 88 L 249 87 L 253 87 L 254 88 L 259 88 L 268 91 L 276 97 L 279 98 L 283 95 L 302 86 L 304 86 L 307 84 L 312 84 L 314 82 L 316 76 L 320 73 L 331 73 L 336 75 L 339 78 L 342 78 L 349 72 L 351 72 L 354 70 L 359 70 L 366 76 L 366 78 L 368 80 L 382 80 L 383 81 L 387 81 L 396 84 L 400 84 L 403 81 L 404 78 L 409 73 L 415 69 L 419 68 L 422 66 L 430 65 L 431 64 L 437 64 L 438 65 L 442 65 Z" fill="#B1B1B1" fill-rule="evenodd"/><path d="M 265 193 L 265 195 L 264 196 L 264 211 L 267 217 L 273 223 L 277 225 L 282 226 L 284 228 L 285 230 L 285 234 L 286 235 L 286 239 L 292 253 L 299 262 L 299 263 L 313 278 L 317 280 L 319 279 L 317 275 L 313 271 L 310 265 L 310 258 L 312 254 L 315 251 L 315 250 L 325 241 L 333 237 L 336 237 L 337 236 L 347 236 L 348 237 L 351 237 L 355 239 L 361 245 L 362 247 L 362 252 L 361 253 L 361 256 L 359 259 L 359 261 L 356 267 L 354 269 L 354 271 L 355 271 L 359 267 L 365 253 L 366 245 L 367 244 L 367 239 L 368 238 L 368 211 L 367 210 L 367 206 L 363 202 L 362 202 L 354 211 L 348 214 L 346 216 L 344 216 L 338 219 L 330 220 L 329 221 L 319 221 L 318 220 L 313 220 L 309 218 L 298 216 L 292 221 L 288 223 L 282 223 L 273 218 L 268 211 L 268 208 L 267 207 L 267 202 L 268 201 L 268 193 L 267 192 Z M 275 187 L 275 191 L 276 192 L 277 196 L 284 203 L 290 206 L 294 206 L 295 207 L 303 206 L 314 201 L 320 195 L 322 191 L 322 184 L 319 181 L 311 177 L 305 176 L 304 175 L 294 175 L 290 177 L 287 177 L 279 181 L 277 183 Z M 283 154 L 280 154 L 278 155 L 275 158 L 273 162 L 273 165 L 272 166 L 272 173 L 274 176 L 278 176 L 282 174 L 286 169 L 286 158 Z M 365 148 L 362 149 L 359 152 L 356 159 L 356 167 L 357 168 L 357 170 L 358 172 L 362 175 L 366 175 L 368 174 L 370 172 L 372 168 L 372 157 L 369 151 Z M 291 119 L 289 117 L 285 117 L 283 119 L 280 120 L 277 123 L 277 124 L 275 126 L 275 128 L 276 129 L 280 128 L 284 124 L 290 121 Z M 362 109 L 362 111 L 363 112 L 370 114 L 374 116 L 376 118 L 380 118 L 381 117 L 380 113 L 377 110 L 373 108 L 370 108 L 369 107 L 364 107 Z M 448 68 L 446 68 L 442 66 L 438 66 L 437 65 L 431 65 L 430 66 L 425 66 L 424 67 L 422 67 L 419 69 L 415 70 L 413 72 L 409 74 L 405 78 L 404 81 L 400 85 L 396 85 L 395 84 L 392 84 L 391 83 L 388 83 L 387 82 L 383 82 L 382 81 L 368 81 L 365 78 L 365 76 L 359 71 L 354 71 L 351 73 L 349 73 L 342 79 L 339 79 L 336 76 L 332 75 L 331 74 L 320 74 L 317 76 L 315 80 L 315 82 L 312 85 L 307 85 L 304 87 L 302 87 L 295 91 L 293 91 L 283 96 L 279 99 L 276 98 L 273 95 L 268 92 L 266 92 L 259 89 L 254 89 L 253 88 L 249 88 L 248 89 L 244 89 L 243 90 L 241 90 L 238 92 L 236 92 L 234 94 L 232 94 L 230 96 L 226 98 L 218 106 L 215 112 L 215 114 L 213 117 L 213 120 L 212 121 L 212 135 L 214 139 L 214 142 L 217 148 L 223 155 L 223 156 L 230 161 L 230 164 L 224 175 L 224 179 L 223 180 L 224 184 L 222 188 L 216 195 L 215 199 L 214 200 L 214 206 L 218 210 L 218 216 L 215 222 L 215 226 L 221 232 L 221 238 L 220 239 L 219 248 L 217 250 L 206 251 L 200 244 L 197 237 L 194 233 L 185 233 L 177 225 L 174 220 L 165 211 L 165 206 L 167 202 L 167 199 L 168 198 L 168 193 L 169 192 L 169 183 L 168 182 L 168 177 L 164 169 L 159 164 L 155 162 L 152 162 L 151 161 L 145 162 L 140 165 L 138 165 L 135 162 L 132 153 L 127 148 L 121 145 L 114 145 L 113 146 L 111 146 L 109 148 L 108 148 L 107 150 L 101 156 L 99 156 L 89 150 L 83 150 L 82 151 L 80 151 L 70 160 L 70 162 L 69 163 L 69 170 L 68 172 L 66 174 L 60 174 L 56 176 L 49 186 L 49 195 L 50 196 L 52 204 L 46 210 L 44 214 L 44 225 L 48 234 L 53 240 L 53 241 L 67 255 L 68 255 L 76 262 L 80 264 L 85 269 L 87 277 L 92 287 L 94 289 L 96 294 L 98 296 L 99 299 L 104 305 L 104 306 L 108 310 L 108 311 L 120 323 L 125 326 L 130 331 L 130 339 L 138 347 L 139 347 L 141 349 L 143 349 L 151 353 L 155 357 L 157 364 L 162 368 L 166 370 L 169 370 L 170 371 L 178 373 L 186 382 L 190 383 L 191 384 L 197 385 L 201 387 L 204 390 L 210 393 L 213 393 L 214 394 L 225 397 L 229 399 L 232 402 L 231 406 L 226 413 L 225 424 L 220 430 L 217 437 L 218 442 L 220 445 L 220 449 L 215 459 L 215 469 L 217 471 L 217 473 L 218 474 L 218 485 L 217 486 L 218 488 L 218 494 L 220 498 L 222 500 L 222 502 L 223 503 L 224 513 L 235 529 L 237 533 L 237 536 L 238 537 L 237 540 L 231 548 L 227 556 L 226 562 L 223 569 L 224 581 L 222 584 L 222 596 L 223 597 L 223 603 L 224 604 L 224 607 L 227 613 L 227 615 L 230 619 L 231 622 L 235 627 L 236 631 L 232 635 L 229 636 L 222 641 L 222 642 L 217 648 L 214 655 L 214 658 L 213 659 L 213 671 L 214 672 L 214 674 L 219 680 L 225 683 L 227 683 L 229 685 L 231 685 L 235 687 L 238 687 L 239 688 L 242 688 L 243 689 L 249 689 L 250 690 L 262 690 L 263 691 L 299 691 L 300 690 L 320 690 L 321 689 L 331 689 L 332 688 L 339 688 L 340 687 L 343 687 L 344 686 L 352 684 L 360 680 L 363 677 L 364 673 L 365 672 L 365 666 L 366 665 L 366 651 L 365 649 L 367 647 L 370 649 L 372 649 L 375 651 L 378 651 L 385 655 L 387 655 L 396 660 L 402 661 L 403 662 L 419 662 L 423 660 L 431 659 L 432 658 L 437 657 L 451 650 L 456 650 L 463 657 L 471 661 L 473 661 L 474 662 L 480 662 L 481 663 L 490 663 L 491 662 L 496 662 L 497 661 L 504 660 L 510 657 L 516 652 L 517 652 L 522 647 L 527 639 L 528 633 L 529 632 L 529 627 L 530 626 L 530 612 L 529 611 L 529 605 L 528 604 L 527 592 L 526 591 L 526 587 L 525 586 L 524 579 L 523 578 L 520 567 L 518 564 L 518 562 L 516 560 L 514 555 L 512 553 L 511 550 L 509 548 L 507 544 L 507 538 L 510 532 L 518 524 L 526 520 L 534 512 L 534 511 L 539 505 L 544 495 L 544 492 L 545 491 L 545 488 L 546 487 L 546 468 L 541 457 L 535 450 L 531 449 L 530 448 L 527 448 L 524 446 L 522 446 L 517 440 L 517 435 L 516 434 L 516 430 L 515 429 L 515 424 L 519 420 L 524 411 L 525 405 L 526 404 L 526 398 L 527 397 L 527 388 L 526 387 L 526 381 L 525 380 L 525 377 L 524 376 L 522 368 L 519 363 L 519 361 L 516 357 L 515 354 L 513 352 L 509 343 L 500 332 L 498 325 L 472 298 L 464 294 L 459 288 L 459 286 L 464 282 L 466 277 L 474 266 L 476 261 L 481 256 L 483 252 L 483 247 L 484 246 L 484 243 L 490 238 L 492 234 L 492 223 L 490 219 L 490 215 L 494 211 L 494 202 L 493 201 L 493 199 L 491 197 L 489 193 L 489 190 L 492 185 L 492 179 L 487 173 L 483 171 L 479 167 L 478 161 L 475 155 L 473 153 L 469 144 L 467 142 L 463 135 L 464 132 L 472 123 L 476 114 L 476 99 L 475 98 L 475 95 L 474 94 L 473 89 L 471 85 L 466 79 L 465 79 L 460 74 Z M 528 457 L 532 461 L 537 471 L 537 473 L 538 474 L 538 480 L 537 481 L 536 489 L 529 503 L 527 505 L 527 506 L 524 509 L 523 509 L 522 508 L 522 502 L 523 501 L 523 498 L 524 497 L 524 493 L 525 492 L 525 483 L 526 482 L 526 479 L 525 478 L 525 471 L 524 470 L 524 467 L 523 466 L 523 462 L 524 461 L 524 459 L 526 457 Z M 222 248 L 224 248 L 225 249 L 225 252 L 226 253 L 226 255 L 225 256 L 223 256 L 221 253 L 221 249 Z M 444 74 L 458 82 L 463 88 L 468 98 L 468 112 L 467 113 L 467 115 L 462 123 L 455 130 L 454 130 L 452 132 L 452 133 L 457 138 L 464 152 L 473 163 L 473 165 L 471 167 L 470 167 L 469 169 L 479 175 L 484 181 L 484 183 L 482 185 L 475 185 L 474 187 L 484 198 L 486 202 L 487 207 L 484 210 L 479 207 L 478 208 L 480 212 L 482 220 L 484 223 L 485 229 L 483 232 L 480 232 L 478 230 L 476 231 L 476 236 L 477 237 L 477 249 L 474 252 L 473 252 L 470 249 L 469 250 L 469 255 L 468 256 L 468 259 L 463 269 L 452 280 L 449 281 L 444 285 L 444 286 L 441 289 L 440 293 L 444 296 L 456 298 L 459 301 L 456 304 L 456 305 L 459 308 L 471 313 L 479 319 L 482 320 L 484 322 L 483 324 L 476 324 L 475 325 L 480 329 L 483 330 L 485 332 L 489 334 L 501 345 L 506 353 L 506 357 L 509 363 L 511 365 L 511 367 L 512 368 L 512 372 L 514 376 L 515 384 L 516 385 L 516 390 L 517 391 L 517 402 L 515 403 L 512 400 L 511 401 L 511 405 L 509 409 L 508 415 L 501 429 L 498 432 L 495 432 L 494 431 L 494 426 L 495 425 L 495 422 L 494 422 L 494 423 L 488 430 L 487 434 L 485 436 L 485 437 L 479 443 L 478 443 L 473 447 L 471 445 L 471 442 L 467 443 L 455 454 L 445 460 L 443 462 L 442 465 L 439 468 L 436 468 L 434 466 L 434 463 L 433 462 L 431 462 L 427 464 L 422 468 L 418 470 L 410 472 L 402 476 L 400 478 L 396 479 L 394 481 L 392 481 L 388 483 L 374 483 L 369 479 L 367 475 L 367 472 L 370 467 L 369 465 L 365 466 L 360 470 L 355 470 L 351 468 L 349 466 L 349 464 L 347 461 L 347 458 L 348 457 L 348 455 L 352 450 L 352 448 L 351 447 L 345 447 L 344 448 L 341 448 L 340 447 L 336 446 L 333 443 L 332 441 L 332 437 L 334 433 L 337 430 L 342 427 L 348 421 L 349 419 L 348 417 L 346 418 L 339 418 L 335 414 L 335 412 L 337 408 L 344 401 L 348 399 L 350 399 L 354 397 L 362 397 L 363 396 L 366 396 L 374 392 L 379 388 L 391 382 L 393 382 L 407 375 L 409 375 L 412 373 L 419 371 L 426 367 L 426 365 L 422 363 L 417 363 L 416 364 L 412 364 L 411 365 L 409 365 L 404 360 L 401 360 L 400 361 L 399 366 L 396 370 L 394 370 L 392 372 L 385 375 L 380 379 L 370 383 L 361 390 L 356 390 L 355 391 L 350 391 L 349 392 L 343 393 L 336 397 L 333 400 L 329 408 L 329 421 L 326 424 L 326 426 L 324 429 L 324 441 L 326 445 L 327 451 L 333 461 L 342 471 L 343 471 L 352 479 L 356 481 L 365 488 L 374 492 L 394 492 L 406 487 L 412 482 L 416 480 L 424 480 L 425 479 L 430 479 L 431 478 L 435 478 L 436 477 L 440 477 L 443 475 L 446 475 L 448 473 L 454 470 L 457 467 L 460 466 L 467 461 L 469 461 L 477 457 L 488 449 L 494 447 L 496 445 L 497 445 L 504 437 L 509 443 L 513 452 L 516 456 L 516 459 L 513 461 L 513 464 L 514 465 L 514 468 L 515 469 L 515 471 L 517 475 L 517 478 L 518 479 L 518 492 L 516 494 L 513 494 L 512 495 L 512 511 L 511 512 L 510 517 L 507 523 L 505 525 L 504 528 L 493 538 L 491 539 L 475 539 L 474 540 L 472 540 L 470 542 L 470 549 L 467 555 L 465 557 L 463 561 L 458 566 L 455 571 L 444 583 L 445 584 L 446 583 L 451 583 L 452 582 L 454 582 L 455 583 L 455 585 L 454 586 L 455 587 L 458 586 L 462 581 L 463 578 L 466 575 L 475 554 L 481 547 L 483 546 L 486 546 L 487 547 L 492 547 L 499 550 L 502 553 L 504 558 L 506 560 L 509 566 L 509 568 L 511 572 L 511 575 L 513 578 L 513 580 L 515 584 L 515 588 L 516 589 L 516 593 L 517 594 L 517 598 L 518 599 L 518 604 L 519 605 L 519 612 L 520 613 L 520 629 L 519 631 L 515 634 L 509 634 L 508 635 L 498 635 L 498 637 L 500 638 L 502 638 L 505 640 L 511 641 L 513 643 L 513 644 L 511 646 L 507 648 L 502 649 L 501 650 L 496 650 L 495 649 L 492 649 L 491 648 L 485 648 L 484 650 L 486 652 L 486 653 L 484 655 L 479 655 L 478 654 L 472 653 L 464 646 L 464 643 L 467 640 L 467 639 L 469 638 L 469 637 L 478 628 L 478 627 L 480 625 L 481 621 L 483 618 L 483 615 L 484 614 L 484 612 L 483 611 L 479 616 L 477 620 L 471 626 L 471 627 L 464 633 L 463 633 L 453 641 L 443 646 L 440 646 L 436 648 L 432 648 L 431 649 L 428 649 L 427 650 L 424 650 L 423 651 L 398 651 L 397 650 L 389 648 L 386 646 L 384 646 L 380 644 L 375 640 L 371 639 L 363 630 L 362 626 L 352 606 L 352 578 L 353 577 L 354 570 L 360 558 L 362 556 L 366 549 L 372 542 L 372 541 L 381 531 L 380 529 L 378 529 L 372 532 L 361 543 L 358 549 L 352 556 L 344 572 L 344 574 L 343 575 L 343 579 L 342 580 L 342 584 L 341 585 L 341 593 L 342 594 L 342 599 L 343 600 L 343 609 L 344 610 L 344 614 L 345 615 L 346 620 L 351 629 L 351 633 L 352 634 L 352 637 L 354 640 L 354 646 L 355 647 L 355 652 L 356 653 L 356 669 L 351 674 L 348 675 L 346 677 L 340 678 L 339 679 L 335 679 L 334 680 L 325 680 L 324 681 L 317 681 L 316 682 L 273 682 L 272 681 L 264 681 L 260 678 L 260 670 L 261 669 L 261 664 L 262 663 L 262 661 L 261 660 L 257 660 L 255 662 L 254 664 L 254 667 L 253 668 L 253 677 L 249 680 L 246 680 L 245 679 L 242 679 L 240 678 L 237 675 L 237 667 L 238 666 L 238 662 L 239 661 L 239 656 L 236 656 L 232 659 L 231 661 L 231 672 L 229 674 L 226 674 L 220 667 L 220 661 L 225 649 L 231 643 L 238 640 L 242 640 L 243 639 L 246 639 L 247 638 L 259 638 L 260 639 L 273 640 L 274 641 L 281 641 L 282 640 L 278 637 L 275 637 L 271 635 L 260 634 L 259 633 L 256 633 L 255 632 L 249 631 L 243 625 L 238 615 L 238 613 L 236 609 L 236 606 L 230 598 L 231 591 L 234 585 L 234 581 L 235 580 L 235 576 L 233 574 L 232 571 L 233 570 L 234 566 L 239 561 L 241 557 L 241 554 L 242 553 L 242 550 L 243 548 L 247 544 L 250 544 L 259 552 L 262 553 L 269 558 L 271 558 L 271 557 L 265 552 L 262 547 L 258 543 L 255 542 L 252 539 L 252 538 L 243 527 L 239 519 L 237 508 L 236 507 L 234 509 L 232 509 L 231 508 L 230 504 L 231 503 L 231 496 L 232 495 L 232 491 L 233 490 L 233 488 L 231 487 L 228 490 L 226 490 L 224 487 L 225 479 L 230 469 L 230 466 L 229 465 L 228 466 L 224 467 L 222 465 L 222 460 L 225 455 L 228 452 L 234 442 L 233 441 L 227 441 L 224 438 L 224 436 L 225 435 L 225 433 L 229 429 L 236 425 L 239 421 L 238 419 L 234 419 L 232 417 L 234 412 L 240 404 L 240 397 L 241 396 L 241 385 L 243 382 L 244 376 L 245 375 L 244 367 L 249 357 L 249 355 L 248 354 L 243 360 L 243 364 L 241 368 L 238 371 L 238 373 L 235 378 L 234 384 L 233 385 L 233 388 L 231 390 L 223 390 L 222 389 L 220 389 L 213 386 L 210 383 L 210 381 L 209 380 L 207 380 L 206 379 L 199 379 L 198 378 L 194 378 L 192 377 L 190 375 L 190 374 L 193 371 L 190 369 L 184 368 L 183 367 L 175 366 L 174 365 L 170 364 L 168 362 L 166 362 L 163 359 L 163 358 L 167 355 L 167 354 L 165 352 L 161 350 L 159 350 L 154 347 L 152 347 L 141 341 L 137 336 L 140 333 L 145 333 L 145 332 L 141 328 L 131 322 L 119 312 L 119 311 L 110 301 L 110 300 L 104 292 L 103 289 L 101 287 L 91 263 L 88 260 L 81 256 L 71 247 L 70 247 L 57 234 L 57 233 L 55 231 L 52 225 L 52 222 L 51 221 L 52 215 L 56 211 L 58 210 L 62 210 L 63 209 L 61 201 L 56 193 L 56 189 L 57 188 L 57 186 L 62 181 L 64 180 L 69 180 L 73 183 L 76 184 L 79 187 L 82 188 L 76 176 L 76 166 L 77 165 L 78 161 L 83 157 L 89 157 L 96 161 L 102 168 L 107 177 L 108 176 L 108 164 L 109 163 L 109 159 L 110 157 L 116 152 L 121 152 L 125 156 L 132 168 L 132 170 L 135 177 L 137 177 L 144 170 L 146 169 L 153 169 L 155 170 L 159 174 L 160 178 L 161 179 L 161 193 L 160 194 L 160 200 L 159 201 L 157 212 L 161 217 L 161 218 L 176 234 L 176 235 L 179 238 L 182 243 L 184 245 L 185 245 L 189 241 L 190 241 L 193 244 L 193 245 L 197 250 L 198 253 L 200 255 L 201 258 L 207 266 L 209 265 L 210 259 L 212 257 L 214 257 L 220 264 L 222 268 L 223 273 L 226 278 L 228 276 L 229 272 L 230 271 L 233 271 L 237 276 L 238 280 L 242 287 L 244 286 L 244 283 L 246 281 L 247 281 L 258 293 L 261 299 L 265 303 L 268 303 L 269 302 L 269 297 L 262 286 L 259 283 L 259 282 L 255 278 L 252 278 L 249 275 L 247 271 L 247 269 L 245 267 L 243 269 L 241 269 L 237 266 L 235 262 L 235 246 L 234 245 L 229 246 L 227 244 L 227 236 L 228 235 L 228 232 L 229 231 L 229 227 L 230 225 L 229 224 L 225 225 L 222 222 L 223 216 L 228 208 L 228 204 L 223 206 L 220 203 L 223 195 L 230 188 L 230 184 L 231 183 L 231 178 L 232 177 L 232 174 L 240 158 L 240 157 L 238 155 L 236 155 L 229 151 L 226 148 L 223 142 L 221 140 L 221 137 L 220 136 L 220 133 L 219 132 L 219 127 L 220 126 L 220 122 L 221 121 L 222 115 L 225 110 L 233 102 L 243 97 L 245 97 L 246 96 L 250 96 L 251 95 L 259 96 L 260 97 L 263 97 L 265 98 L 267 100 L 268 100 L 276 109 L 277 109 L 284 103 L 288 102 L 291 100 L 293 100 L 296 98 L 301 97 L 302 96 L 302 93 L 306 90 L 315 90 L 316 91 L 322 91 L 323 90 L 323 87 L 321 85 L 321 81 L 323 79 L 328 79 L 331 81 L 333 81 L 341 87 L 343 87 L 349 80 L 350 80 L 353 77 L 357 76 L 360 79 L 360 83 L 359 84 L 359 86 L 360 87 L 378 87 L 379 88 L 389 89 L 390 90 L 398 92 L 401 94 L 404 94 L 409 84 L 417 77 L 425 73 L 428 73 L 429 72 L 438 72 L 439 73 Z" fill="#010101" fill-rule="evenodd"/></svg>