<svg xmlns="http://www.w3.org/2000/svg" viewBox="0 0 653 704" shape-rendering="geometricPrecision"><title>intro frame 086</title><path d="M 469 512 L 457 521 L 454 521 L 451 523 L 444 530 L 442 528 L 440 528 L 433 537 L 428 536 L 420 545 L 418 544 L 414 545 L 411 549 L 404 555 L 400 561 L 400 563 L 393 572 L 389 581 L 388 588 L 386 590 L 386 591 L 389 590 L 391 592 L 391 608 L 393 608 L 396 612 L 395 614 L 395 627 L 396 628 L 399 627 L 402 630 L 403 646 L 400 655 L 400 666 L 401 669 L 406 675 L 408 675 L 417 679 L 426 680 L 427 681 L 436 681 L 437 680 L 436 678 L 436 665 L 437 662 L 440 659 L 445 659 L 448 663 L 449 666 L 449 681 L 450 682 L 467 682 L 469 680 L 469 675 L 468 674 L 468 660 L 470 658 L 475 658 L 479 662 L 482 670 L 482 680 L 483 681 L 484 680 L 491 680 L 495 678 L 495 673 L 496 671 L 494 666 L 494 658 L 497 655 L 501 656 L 505 660 L 507 664 L 508 675 L 509 676 L 514 672 L 516 667 L 515 655 L 512 649 L 505 643 L 503 643 L 495 638 L 489 638 L 486 640 L 458 639 L 457 640 L 450 640 L 449 641 L 446 641 L 445 640 L 435 640 L 434 639 L 435 637 L 443 636 L 446 634 L 457 633 L 458 632 L 480 632 L 483 633 L 480 622 L 482 616 L 485 613 L 489 616 L 489 623 L 491 622 L 491 617 L 488 614 L 487 610 L 484 606 L 483 601 L 484 600 L 489 605 L 492 603 L 492 601 L 485 595 L 483 595 L 475 590 L 464 579 L 466 577 L 468 577 L 476 581 L 485 584 L 488 583 L 486 579 L 479 572 L 473 564 L 475 561 L 487 568 L 488 566 L 485 560 L 485 558 L 478 552 L 474 551 L 471 548 L 472 546 L 483 547 L 483 545 L 476 538 L 476 537 L 479 535 L 485 538 L 486 536 L 477 527 L 472 515 Z M 444 583 L 451 590 L 455 598 L 455 600 L 453 602 L 446 595 L 442 589 L 442 585 Z M 435 581 L 436 582 L 436 587 L 435 590 L 432 593 L 430 591 L 430 587 L 432 585 L 432 583 Z M 408 562 L 410 564 L 409 565 L 409 568 L 407 572 L 405 574 L 403 574 L 401 571 L 404 565 Z M 228 508 L 225 515 L 223 517 L 223 519 L 226 519 L 228 521 L 228 523 L 221 538 L 222 539 L 226 537 L 228 539 L 228 543 L 226 546 L 226 549 L 224 553 L 224 556 L 222 560 L 222 565 L 221 566 L 222 567 L 226 565 L 228 567 L 228 572 L 227 573 L 226 580 L 229 583 L 229 594 L 231 598 L 231 604 L 232 605 L 233 613 L 236 621 L 239 624 L 244 624 L 245 625 L 255 627 L 259 630 L 259 632 L 257 634 L 253 634 L 252 633 L 244 632 L 243 631 L 224 631 L 223 632 L 220 632 L 211 635 L 205 640 L 202 646 L 202 649 L 201 650 L 201 661 L 202 663 L 205 665 L 205 660 L 206 659 L 207 652 L 213 646 L 218 645 L 221 648 L 221 651 L 218 657 L 218 668 L 222 670 L 229 670 L 230 660 L 232 655 L 237 650 L 242 650 L 244 652 L 244 657 L 242 661 L 242 671 L 244 673 L 265 673 L 266 672 L 272 672 L 274 671 L 277 667 L 280 667 L 286 662 L 290 661 L 294 656 L 294 650 L 295 649 L 293 646 L 293 644 L 290 644 L 288 642 L 287 638 L 289 634 L 292 635 L 293 631 L 296 629 L 296 626 L 294 623 L 294 617 L 297 614 L 297 612 L 294 604 L 285 595 L 285 590 L 284 588 L 287 586 L 293 593 L 294 592 L 292 590 L 291 586 L 294 584 L 294 581 L 293 579 L 290 577 L 275 561 L 274 558 L 270 554 L 269 550 L 266 547 L 264 543 L 252 532 L 249 526 L 241 519 L 238 518 L 234 513 Z M 255 584 L 257 582 L 259 583 L 258 586 L 256 586 Z M 266 575 L 269 577 L 273 584 L 274 588 L 272 590 L 267 586 L 265 582 L 264 578 Z M 279 571 L 282 572 L 282 580 L 280 584 L 277 582 L 277 575 Z M 247 567 L 249 569 L 249 571 L 244 576 L 241 576 L 240 575 L 241 572 Z M 41 234 L 38 236 L 38 239 L 39 240 L 39 243 L 43 246 L 44 245 L 43 243 L 43 236 Z M 71 163 L 72 165 L 75 165 L 78 167 L 86 168 L 85 166 L 82 164 L 80 164 L 78 162 L 72 162 Z M 447 16 L 436 15 L 435 16 L 428 17 L 422 20 L 418 23 L 412 30 L 411 37 L 408 40 L 396 36 L 391 36 L 390 35 L 386 35 L 380 33 L 366 33 L 365 34 L 359 35 L 357 33 L 357 29 L 358 28 L 358 24 L 357 24 L 346 34 L 344 34 L 331 27 L 329 27 L 328 29 L 330 31 L 331 36 L 328 39 L 312 39 L 310 40 L 307 44 L 302 45 L 292 50 L 282 57 L 280 57 L 271 47 L 264 43 L 250 43 L 247 44 L 237 50 L 231 57 L 228 63 L 227 70 L 226 71 L 227 81 L 231 89 L 235 93 L 241 97 L 246 98 L 248 100 L 247 106 L 239 123 L 240 134 L 229 146 L 229 147 L 233 147 L 235 146 L 238 149 L 238 151 L 231 165 L 232 168 L 235 166 L 238 168 L 238 173 L 237 174 L 236 183 L 235 184 L 235 190 L 237 190 L 240 187 L 242 187 L 244 189 L 243 204 L 244 205 L 245 211 L 248 212 L 248 209 L 251 207 L 255 212 L 255 217 L 257 223 L 262 220 L 269 229 L 286 237 L 294 245 L 294 249 L 292 251 L 278 243 L 276 248 L 274 250 L 270 250 L 267 246 L 263 243 L 263 245 L 261 247 L 254 247 L 252 245 L 247 243 L 243 248 L 241 248 L 234 245 L 226 238 L 224 240 L 224 242 L 221 245 L 219 245 L 205 232 L 203 232 L 202 233 L 202 236 L 198 239 L 190 233 L 180 223 L 178 223 L 177 226 L 174 229 L 171 229 L 159 218 L 142 207 L 133 203 L 130 200 L 129 197 L 129 185 L 127 179 L 123 171 L 114 163 L 111 163 L 110 166 L 113 166 L 120 173 L 122 176 L 122 180 L 123 181 L 123 188 L 122 191 L 118 194 L 111 193 L 107 191 L 103 186 L 102 181 L 91 172 L 90 172 L 90 174 L 95 181 L 97 187 L 94 190 L 90 190 L 89 191 L 76 191 L 70 188 L 69 185 L 65 180 L 56 174 L 47 174 L 45 175 L 43 178 L 43 182 L 45 182 L 50 179 L 53 179 L 54 180 L 59 180 L 65 183 L 70 188 L 70 192 L 76 198 L 79 198 L 85 195 L 88 195 L 93 193 L 101 194 L 104 197 L 108 198 L 110 200 L 112 200 L 115 202 L 122 211 L 122 215 L 117 227 L 110 237 L 94 254 L 90 256 L 80 255 L 77 253 L 72 252 L 64 247 L 61 250 L 55 251 L 55 253 L 61 257 L 63 257 L 66 259 L 87 266 L 95 272 L 105 282 L 107 282 L 110 284 L 112 283 L 116 287 L 121 288 L 131 295 L 157 306 L 160 306 L 169 309 L 191 309 L 194 310 L 197 313 L 197 315 L 195 318 L 196 319 L 214 318 L 215 317 L 226 317 L 230 321 L 233 321 L 236 317 L 236 314 L 242 302 L 251 295 L 253 295 L 255 297 L 254 304 L 245 322 L 245 328 L 243 332 L 243 336 L 253 327 L 260 323 L 262 323 L 264 325 L 264 327 L 255 340 L 245 350 L 238 354 L 229 366 L 230 367 L 234 367 L 236 369 L 236 372 L 221 390 L 221 391 L 225 391 L 227 390 L 230 394 L 229 397 L 224 403 L 215 421 L 217 422 L 219 420 L 221 420 L 224 423 L 218 440 L 216 451 L 217 451 L 221 446 L 223 448 L 223 456 L 222 457 L 221 472 L 222 473 L 225 470 L 228 473 L 228 479 L 229 480 L 230 488 L 232 490 L 235 488 L 237 490 L 239 496 L 243 495 L 245 497 L 250 509 L 252 509 L 255 507 L 258 510 L 259 513 L 265 521 L 266 521 L 267 519 L 269 519 L 277 529 L 282 525 L 291 536 L 295 533 L 301 539 L 299 533 L 291 522 L 288 513 L 288 509 L 287 508 L 289 505 L 292 507 L 292 509 L 299 521 L 314 537 L 318 538 L 323 533 L 325 533 L 328 537 L 330 537 L 345 523 L 347 525 L 347 528 L 343 537 L 343 541 L 345 542 L 362 529 L 364 529 L 366 531 L 365 536 L 362 540 L 362 542 L 364 543 L 370 540 L 374 536 L 382 523 L 387 519 L 389 521 L 387 531 L 392 520 L 393 514 L 395 512 L 397 512 L 399 515 L 399 527 L 397 531 L 397 534 L 398 534 L 405 527 L 412 516 L 416 508 L 416 506 L 418 504 L 420 504 L 423 508 L 421 517 L 418 522 L 419 524 L 424 520 L 430 512 L 434 504 L 434 501 L 436 498 L 436 496 L 438 494 L 441 495 L 440 508 L 442 508 L 446 503 L 446 501 L 450 495 L 450 491 L 452 487 L 455 484 L 457 484 L 459 486 L 460 485 L 459 479 L 463 476 L 462 464 L 465 459 L 465 450 L 463 448 L 462 445 L 465 442 L 468 442 L 468 438 L 462 429 L 462 427 L 463 426 L 469 429 L 469 428 L 465 424 L 464 424 L 462 427 L 455 417 L 455 415 L 458 414 L 461 417 L 465 419 L 467 416 L 467 414 L 465 410 L 462 407 L 455 404 L 447 403 L 444 400 L 444 398 L 446 396 L 451 396 L 452 397 L 456 397 L 464 401 L 464 399 L 459 389 L 457 387 L 456 383 L 454 381 L 454 379 L 456 377 L 459 379 L 458 376 L 457 376 L 449 368 L 444 361 L 446 359 L 454 363 L 455 362 L 454 357 L 452 354 L 448 351 L 440 350 L 439 349 L 434 349 L 429 345 L 431 342 L 436 342 L 450 348 L 448 341 L 443 335 L 443 333 L 445 331 L 448 332 L 448 329 L 446 325 L 447 323 L 449 323 L 457 333 L 461 342 L 470 356 L 471 360 L 473 362 L 477 370 L 477 372 L 479 375 L 481 383 L 483 386 L 486 395 L 487 403 L 488 404 L 488 407 L 489 408 L 489 411 L 492 420 L 493 430 L 495 435 L 495 444 L 493 447 L 490 456 L 490 471 L 492 476 L 498 481 L 503 481 L 505 479 L 505 477 L 509 468 L 511 466 L 515 466 L 518 470 L 518 477 L 517 478 L 516 484 L 511 493 L 512 496 L 517 500 L 520 500 L 521 501 L 526 500 L 531 494 L 536 483 L 540 480 L 544 484 L 544 492 L 543 493 L 543 496 L 541 499 L 541 502 L 544 502 L 545 501 L 548 501 L 555 495 L 556 490 L 558 488 L 558 485 L 563 479 L 565 479 L 568 483 L 568 491 L 569 491 L 574 485 L 579 472 L 579 467 L 581 461 L 581 445 L 580 444 L 580 440 L 579 439 L 578 432 L 580 430 L 582 430 L 582 428 L 578 418 L 577 411 L 573 405 L 572 401 L 570 398 L 572 396 L 576 397 L 576 395 L 568 384 L 567 381 L 562 375 L 562 372 L 563 371 L 566 371 L 567 372 L 569 372 L 569 371 L 563 364 L 561 360 L 550 348 L 550 346 L 552 344 L 558 346 L 560 346 L 560 345 L 541 327 L 531 319 L 533 316 L 539 316 L 540 317 L 542 317 L 542 316 L 537 311 L 523 301 L 520 300 L 517 297 L 517 295 L 519 293 L 523 292 L 510 285 L 504 280 L 504 278 L 506 276 L 509 277 L 513 277 L 513 276 L 499 266 L 491 262 L 489 262 L 485 258 L 488 254 L 491 254 L 491 253 L 466 243 L 454 242 L 452 243 L 447 249 L 441 247 L 423 247 L 421 249 L 417 250 L 414 246 L 414 242 L 413 242 L 408 247 L 406 252 L 403 255 L 401 253 L 401 248 L 403 244 L 409 238 L 415 235 L 421 228 L 424 230 L 424 233 L 425 234 L 427 232 L 428 224 L 430 222 L 432 222 L 435 225 L 437 222 L 437 213 L 440 212 L 443 215 L 444 214 L 444 209 L 447 204 L 453 202 L 453 200 L 448 196 L 445 192 L 448 190 L 449 191 L 452 191 L 457 194 L 459 193 L 458 189 L 454 183 L 456 181 L 460 181 L 462 183 L 465 183 L 465 177 L 462 175 L 460 172 L 461 171 L 466 171 L 467 170 L 465 165 L 459 160 L 461 157 L 464 157 L 467 159 L 469 159 L 474 163 L 478 160 L 479 161 L 478 163 L 479 165 L 479 169 L 484 169 L 487 171 L 488 170 L 485 161 L 481 155 L 480 150 L 482 148 L 486 148 L 490 150 L 491 148 L 487 142 L 476 131 L 476 128 L 478 126 L 487 126 L 488 125 L 473 114 L 472 111 L 476 107 L 471 100 L 461 82 L 455 76 L 455 74 L 467 64 L 471 57 L 471 54 L 473 49 L 472 40 L 466 29 L 461 24 Z M 427 495 L 429 496 L 429 499 L 428 500 L 426 499 L 426 496 Z M 410 493 L 412 494 L 412 504 L 411 505 L 408 504 L 408 499 Z M 407 489 L 409 488 L 411 491 L 409 492 Z M 268 488 L 271 489 L 273 495 L 278 504 L 279 511 L 277 513 L 275 513 L 272 510 L 271 506 L 269 503 L 268 495 L 267 494 L 267 489 Z M 271 464 L 272 465 L 271 473 L 268 475 L 267 474 L 268 467 L 269 465 Z M 436 453 L 439 456 L 441 461 L 443 463 L 443 465 L 447 473 L 448 480 L 446 483 L 443 483 L 442 482 L 439 489 L 437 491 L 432 492 L 428 487 L 428 477 L 425 474 L 425 472 L 427 470 L 429 471 L 433 476 L 435 475 L 435 463 L 434 462 L 433 455 Z M 257 441 L 259 443 L 258 450 L 254 460 L 254 463 L 250 466 L 248 464 L 248 456 L 253 444 Z M 411 422 L 414 421 L 417 423 L 428 423 L 431 426 L 429 428 L 425 428 L 423 433 L 419 433 L 413 427 Z M 256 416 L 258 419 L 253 425 L 252 428 L 250 430 L 250 432 L 248 434 L 244 434 L 243 433 L 243 429 L 246 423 L 251 418 Z M 425 402 L 427 400 L 433 404 L 442 408 L 448 415 L 448 417 L 447 418 L 440 418 L 439 417 L 438 420 L 440 423 L 438 425 L 436 425 L 432 419 L 431 410 Z M 420 393 L 422 391 L 427 391 L 431 395 L 429 397 L 426 397 L 425 396 L 422 396 Z M 435 383 L 437 383 L 441 387 L 442 391 L 440 393 L 436 391 L 432 387 Z M 437 368 L 443 369 L 446 372 L 446 378 L 443 381 L 440 381 L 438 379 L 437 375 L 434 371 Z M 382 370 L 384 368 L 386 368 L 397 374 L 399 376 L 407 379 L 408 380 L 408 384 L 405 387 L 396 379 L 390 375 L 386 374 Z M 410 364 L 418 369 L 419 372 L 416 375 L 412 375 L 408 378 L 407 377 L 407 369 L 408 366 Z M 530 355 L 532 353 L 537 355 L 540 358 L 538 360 L 533 358 Z M 421 324 L 423 323 L 424 324 L 431 325 L 433 326 L 436 330 L 434 332 L 426 327 L 423 327 Z M 428 310 L 431 313 L 435 320 L 434 323 L 432 323 L 430 321 L 426 314 L 426 312 Z M 372 310 L 375 313 L 375 315 L 373 317 L 370 315 L 370 312 Z M 375 311 L 377 309 L 379 309 L 385 315 L 387 315 L 389 311 L 391 311 L 392 313 L 391 316 L 387 319 L 384 317 L 380 317 Z M 316 309 L 319 305 L 322 306 L 320 309 L 318 310 Z M 429 298 L 432 297 L 435 300 L 436 303 L 433 305 L 429 301 Z M 417 293 L 419 295 L 419 298 L 421 304 L 423 306 L 423 308 L 415 317 L 412 317 L 410 316 L 409 314 L 411 312 L 414 312 L 418 309 L 418 301 L 414 297 L 414 295 Z M 381 292 L 385 295 L 385 297 L 388 303 L 387 306 L 378 296 Z M 310 291 L 311 293 L 309 297 L 307 299 L 305 299 L 304 297 L 306 293 L 308 291 Z M 416 291 L 418 288 L 420 289 L 418 292 Z M 257 273 L 259 275 L 255 279 L 255 281 L 257 284 L 253 288 L 250 289 L 249 288 L 249 285 L 251 283 L 250 279 L 254 274 Z M 258 264 L 262 261 L 265 261 L 267 263 L 267 265 L 265 267 L 260 267 Z M 409 262 L 413 259 L 415 259 L 417 261 L 413 264 L 410 264 Z M 262 253 L 266 250 L 269 253 L 269 255 L 268 256 L 264 256 Z M 397 244 L 397 247 L 394 252 L 378 267 L 371 272 L 368 273 L 364 277 L 362 278 L 357 278 L 353 280 L 346 279 L 336 274 L 325 266 L 315 255 L 315 253 L 318 250 L 326 250 L 327 251 L 332 251 L 333 252 L 353 252 L 354 251 L 373 248 L 377 246 L 383 245 L 386 243 L 395 242 Z M 383 127 L 390 120 L 396 118 L 411 117 L 412 118 L 417 118 L 426 121 L 433 128 L 435 135 L 434 136 L 434 139 L 426 146 L 420 147 L 419 148 L 405 148 L 404 147 L 401 147 L 395 145 L 390 142 L 383 134 Z M 305 111 L 309 107 L 315 104 L 330 104 L 337 107 L 341 111 L 341 113 L 339 115 L 335 115 L 327 112 L 316 112 L 311 114 L 306 114 Z M 285 98 L 288 97 L 292 98 L 295 101 L 297 105 L 297 114 L 294 119 L 294 121 L 302 120 L 303 119 L 314 119 L 315 120 L 322 121 L 328 124 L 334 130 L 335 133 L 334 140 L 325 150 L 320 153 L 318 153 L 313 156 L 310 156 L 309 157 L 300 157 L 292 154 L 283 146 L 281 141 L 280 141 L 279 156 L 280 159 L 286 165 L 290 167 L 297 167 L 301 165 L 304 162 L 307 161 L 310 161 L 315 163 L 319 163 L 320 164 L 326 164 L 327 165 L 339 165 L 346 162 L 352 161 L 359 157 L 365 152 L 367 147 L 370 144 L 373 144 L 379 151 L 380 154 L 380 161 L 381 162 L 381 181 L 380 182 L 380 190 L 378 194 L 378 197 L 374 209 L 369 217 L 360 226 L 357 227 L 354 230 L 342 234 L 335 234 L 325 230 L 318 225 L 305 211 L 295 196 L 291 186 L 290 178 L 288 176 L 286 176 L 280 173 L 270 162 L 269 155 L 268 154 L 268 148 L 259 158 L 254 160 L 247 159 L 241 153 L 240 148 L 242 142 L 248 136 L 253 133 L 255 133 L 258 131 L 265 131 L 268 132 L 273 137 L 275 136 L 279 137 L 279 134 L 282 128 L 282 126 L 277 121 L 277 111 L 280 103 Z M 371 91 L 376 91 L 378 92 L 383 97 L 385 102 L 385 114 L 384 117 L 379 123 L 376 124 L 373 124 L 368 122 L 365 119 L 362 112 L 362 103 L 364 97 Z M 299 59 L 303 64 L 303 66 L 299 70 L 293 72 L 284 79 L 281 78 L 279 76 L 278 72 L 280 68 L 285 63 L 291 59 Z M 260 57 L 268 63 L 270 66 L 270 68 L 267 71 L 258 85 L 252 91 L 247 89 L 241 83 L 239 79 L 239 70 L 243 63 L 251 57 Z M 362 55 L 367 49 L 369 48 L 374 48 L 380 50 L 385 53 L 388 56 L 390 62 L 386 67 L 383 67 L 375 62 L 365 60 L 362 57 Z M 439 30 L 446 31 L 450 33 L 457 40 L 460 47 L 460 54 L 459 57 L 455 62 L 450 66 L 446 66 L 434 55 L 428 52 L 424 48 L 424 43 L 426 40 L 433 33 Z" fill="#FBFBFB" fill-rule="evenodd"/><path d="M 213 647 L 208 652 L 208 654 L 209 651 L 213 647 L 218 646 L 220 648 L 220 651 L 218 654 L 217 661 L 216 662 L 216 667 L 217 669 L 220 671 L 229 672 L 230 671 L 230 666 L 230 670 L 229 671 L 222 671 L 219 670 L 217 668 L 217 657 L 219 654 L 220 648 L 218 646 Z M 250 627 L 254 628 L 256 630 L 256 632 L 255 633 L 249 632 L 252 632 L 253 633 L 257 633 L 258 632 L 257 629 Z M 390 597 L 390 610 L 391 611 L 393 610 L 395 612 L 394 614 L 394 628 L 396 631 L 398 629 L 401 631 L 401 639 L 401 630 L 399 628 L 396 629 L 394 627 L 394 614 L 395 612 L 393 609 L 390 608 Z M 444 584 L 443 585 L 443 589 L 447 595 L 453 601 L 454 598 L 450 590 Z M 435 582 L 433 583 L 433 585 L 431 587 L 431 591 L 432 592 L 434 590 L 435 587 Z M 266 576 L 265 578 L 266 582 L 268 586 L 272 589 L 273 588 L 272 584 L 268 577 Z M 281 572 L 279 572 L 278 575 L 278 582 L 280 583 L 281 580 Z M 248 569 L 246 568 L 242 572 L 241 575 L 244 575 L 248 571 Z M 408 563 L 405 565 L 402 571 L 403 573 L 406 572 L 409 564 Z M 411 494 L 410 494 L 409 504 L 411 504 Z M 268 489 L 268 494 L 269 495 L 270 503 L 272 506 L 273 510 L 275 512 L 277 512 L 278 511 L 277 504 L 272 495 L 270 489 Z M 270 495 L 274 498 L 274 500 L 277 505 L 276 508 L 272 505 L 272 503 L 269 497 Z M 271 465 L 270 465 L 269 467 L 268 474 L 270 473 Z M 436 454 L 434 455 L 435 462 L 436 463 L 436 475 L 433 477 L 429 472 L 427 471 L 426 472 L 426 474 L 429 477 L 429 487 L 432 491 L 437 490 L 440 485 L 440 483 L 442 481 L 443 482 L 446 482 L 447 480 L 446 473 L 444 470 L 442 463 Z M 437 459 L 439 460 L 439 462 L 441 465 L 441 469 L 439 470 L 437 467 L 437 462 L 436 461 Z M 221 447 L 217 452 L 215 451 L 215 453 L 216 454 L 219 451 L 221 451 L 222 452 L 222 456 L 222 448 Z M 582 446 L 582 461 L 580 467 L 580 472 L 575 485 L 569 492 L 567 491 L 567 483 L 565 480 L 563 480 L 559 485 L 559 488 L 557 490 L 556 495 L 548 502 L 541 503 L 540 502 L 540 499 L 542 496 L 542 493 L 543 492 L 543 484 L 539 481 L 537 483 L 530 497 L 526 501 L 524 501 L 526 501 L 531 496 L 535 489 L 536 485 L 539 482 L 541 482 L 543 484 L 543 491 L 542 492 L 541 498 L 539 501 L 540 503 L 547 503 L 551 501 L 557 494 L 557 492 L 559 489 L 559 486 L 563 480 L 567 483 L 567 491 L 566 494 L 568 494 L 574 487 L 578 479 L 578 476 L 580 472 L 581 462 L 582 461 Z M 257 442 L 254 444 L 249 456 L 249 464 L 250 465 L 253 463 L 253 460 L 257 450 L 257 447 L 258 446 L 258 443 Z M 254 450 L 255 452 L 254 455 L 252 456 L 251 454 L 252 451 Z M 412 422 L 414 427 L 419 432 L 423 432 L 423 429 L 425 427 L 429 427 L 430 426 L 428 424 L 417 424 L 414 422 Z M 256 417 L 251 419 L 247 423 L 244 429 L 244 433 L 248 433 L 249 432 L 249 430 L 251 428 L 252 425 L 257 419 Z M 426 402 L 432 410 L 433 419 L 436 424 L 439 423 L 437 420 L 437 418 L 439 416 L 440 417 L 447 417 L 447 415 L 442 409 L 433 405 L 427 401 Z M 421 393 L 422 395 L 425 395 L 426 396 L 429 396 L 430 395 L 427 392 L 422 392 Z M 435 384 L 433 387 L 436 390 L 440 392 L 441 391 L 440 387 L 437 384 Z M 437 369 L 435 371 L 438 375 L 439 379 L 440 380 L 443 380 L 445 378 L 445 372 L 443 370 Z M 383 370 L 386 373 L 390 374 L 396 378 L 405 386 L 407 384 L 407 380 L 399 377 L 397 375 L 386 369 Z M 418 370 L 410 365 L 408 369 L 408 377 L 412 374 L 416 374 L 418 372 Z M 531 355 L 535 358 L 538 359 L 539 358 L 535 355 L 532 354 Z M 552 345 L 551 348 L 562 360 L 564 364 L 570 371 L 569 373 L 563 372 L 563 375 L 568 381 L 569 384 L 577 395 L 576 398 L 574 397 L 571 398 L 573 401 L 574 405 L 578 411 L 578 413 L 577 408 L 573 402 L 573 400 L 575 398 L 578 400 L 579 399 L 575 391 L 564 376 L 566 373 L 571 375 L 572 374 L 563 361 L 552 348 L 553 345 L 557 346 Z M 449 324 L 447 324 L 449 329 L 449 332 L 448 333 L 445 332 L 444 335 L 449 341 L 451 348 L 449 349 L 436 343 L 431 343 L 430 345 L 434 348 L 439 348 L 440 349 L 448 350 L 451 352 L 455 357 L 456 362 L 454 364 L 446 360 L 445 361 L 450 368 L 459 376 L 460 379 L 458 380 L 456 378 L 455 381 L 457 383 L 458 387 L 460 389 L 465 399 L 465 401 L 463 402 L 456 398 L 452 398 L 451 397 L 446 397 L 445 400 L 447 402 L 455 403 L 462 406 L 466 410 L 468 414 L 468 416 L 465 420 L 461 418 L 458 415 L 456 415 L 456 417 L 460 422 L 461 425 L 463 427 L 463 429 L 469 438 L 469 442 L 468 443 L 465 443 L 463 445 L 464 448 L 466 450 L 466 459 L 463 464 L 464 476 L 460 479 L 461 485 L 459 487 L 457 485 L 455 485 L 453 487 L 451 491 L 451 495 L 447 501 L 447 503 L 442 509 L 439 508 L 440 495 L 437 496 L 437 498 L 435 501 L 435 504 L 431 512 L 425 520 L 419 525 L 417 522 L 420 517 L 421 510 L 422 509 L 420 505 L 417 506 L 417 508 L 406 527 L 398 535 L 396 534 L 396 531 L 398 527 L 398 515 L 397 513 L 395 513 L 389 530 L 387 532 L 386 531 L 387 525 L 388 524 L 388 521 L 387 520 L 383 523 L 375 536 L 370 541 L 364 544 L 361 542 L 361 540 L 365 533 L 364 530 L 362 530 L 345 543 L 342 541 L 342 537 L 346 528 L 346 525 L 345 524 L 330 538 L 328 538 L 325 534 L 323 534 L 318 539 L 316 539 L 314 538 L 298 521 L 291 509 L 291 507 L 289 506 L 288 508 L 289 509 L 289 513 L 292 522 L 300 533 L 302 539 L 301 540 L 295 534 L 291 537 L 282 526 L 277 530 L 269 520 L 267 520 L 267 521 L 265 522 L 255 508 L 252 510 L 249 509 L 243 496 L 239 497 L 235 489 L 232 491 L 229 488 L 228 480 L 227 479 L 227 473 L 225 471 L 222 474 L 220 472 L 221 458 L 220 475 L 221 476 L 224 473 L 227 476 L 228 486 L 233 496 L 235 504 L 233 506 L 230 506 L 229 505 L 227 506 L 227 508 L 221 519 L 221 521 L 224 520 L 226 522 L 226 525 L 219 540 L 220 541 L 223 539 L 225 539 L 227 541 L 227 543 L 227 539 L 226 538 L 222 540 L 220 538 L 227 523 L 227 521 L 226 520 L 223 520 L 222 517 L 224 515 L 227 508 L 229 507 L 238 517 L 241 518 L 250 526 L 253 532 L 265 543 L 267 547 L 270 550 L 271 554 L 275 558 L 276 561 L 286 571 L 286 572 L 294 579 L 295 581 L 295 584 L 292 586 L 292 588 L 295 592 L 293 594 L 287 587 L 285 588 L 286 590 L 286 595 L 295 604 L 298 612 L 298 614 L 295 617 L 295 623 L 297 626 L 297 629 L 294 631 L 293 635 L 292 636 L 289 635 L 288 638 L 289 642 L 290 643 L 293 643 L 296 649 L 295 650 L 295 656 L 290 662 L 286 663 L 280 668 L 277 668 L 274 672 L 272 673 L 266 673 L 265 674 L 244 674 L 241 671 L 241 662 L 241 672 L 243 674 L 268 674 L 269 673 L 278 673 L 279 672 L 287 672 L 288 671 L 293 671 L 294 670 L 301 670 L 302 669 L 306 669 L 307 668 L 311 668 L 317 666 L 323 661 L 325 657 L 325 650 L 326 649 L 325 646 L 324 629 L 326 627 L 329 629 L 331 625 L 331 610 L 330 609 L 329 596 L 331 594 L 334 596 L 336 596 L 336 583 L 338 578 L 338 574 L 334 572 L 331 572 L 322 569 L 310 563 L 308 561 L 308 558 L 311 555 L 315 555 L 329 560 L 333 560 L 339 562 L 344 562 L 345 563 L 352 563 L 353 564 L 365 564 L 366 563 L 372 563 L 373 562 L 382 561 L 386 566 L 382 571 L 379 572 L 379 575 L 383 583 L 383 587 L 385 591 L 385 594 L 388 592 L 390 594 L 389 591 L 386 592 L 385 590 L 387 588 L 388 581 L 392 572 L 399 563 L 399 561 L 403 555 L 407 552 L 414 544 L 416 543 L 420 544 L 428 535 L 433 536 L 440 527 L 442 527 L 444 529 L 451 522 L 454 520 L 457 520 L 468 511 L 473 515 L 478 527 L 487 536 L 485 539 L 479 536 L 477 537 L 477 538 L 484 545 L 483 548 L 479 548 L 478 547 L 472 547 L 472 548 L 474 550 L 478 551 L 481 553 L 486 558 L 486 560 L 489 566 L 487 569 L 475 562 L 474 564 L 480 572 L 487 579 L 489 583 L 487 585 L 485 585 L 476 582 L 468 578 L 465 579 L 475 589 L 481 593 L 485 594 L 493 601 L 493 603 L 490 606 L 484 601 L 485 606 L 487 608 L 489 614 L 492 617 L 492 622 L 490 624 L 488 623 L 488 616 L 485 614 L 483 616 L 481 622 L 482 624 L 482 628 L 484 632 L 483 634 L 480 633 L 458 633 L 457 634 L 446 635 L 443 637 L 435 638 L 435 639 L 445 639 L 446 640 L 449 640 L 446 638 L 448 635 L 452 635 L 458 633 L 478 633 L 484 635 L 485 638 L 484 639 L 477 639 L 486 639 L 489 637 L 495 637 L 499 640 L 504 642 L 499 640 L 496 637 L 496 635 L 500 630 L 501 620 L 502 619 L 502 611 L 500 610 L 500 608 L 501 607 L 503 608 L 503 590 L 502 589 L 501 582 L 504 578 L 500 571 L 500 569 L 502 567 L 507 569 L 507 566 L 505 563 L 503 556 L 496 544 L 496 542 L 498 540 L 504 543 L 506 543 L 506 541 L 503 536 L 503 534 L 501 531 L 498 522 L 500 519 L 503 520 L 504 517 L 503 516 L 503 512 L 502 511 L 501 504 L 499 501 L 499 498 L 497 496 L 492 495 L 489 493 L 480 483 L 477 475 L 476 462 L 477 461 L 477 456 L 478 455 L 479 448 L 482 442 L 482 436 L 481 435 L 481 431 L 479 425 L 479 420 L 478 419 L 478 416 L 475 407 L 475 403 L 474 402 L 474 399 L 469 384 L 461 367 L 461 365 L 454 353 L 452 347 L 452 344 L 454 342 L 457 342 L 459 344 L 471 362 L 481 384 L 486 402 L 486 399 L 478 375 L 476 372 L 476 370 L 472 362 L 470 360 L 469 356 L 460 342 L 456 333 Z M 270 522 L 282 536 L 283 538 L 282 540 L 280 540 L 270 529 L 268 525 Z M 294 517 L 300 526 L 304 530 L 303 533 L 295 524 L 293 520 Z M 259 516 L 268 527 L 266 530 L 259 522 L 257 518 Z M 420 508 L 421 509 L 420 515 L 418 518 L 418 520 L 416 522 L 416 524 L 414 525 L 412 522 L 415 517 L 417 510 Z M 243 500 L 245 501 L 250 512 L 250 514 L 248 516 L 246 514 L 242 505 L 242 501 Z M 462 425 L 465 423 L 470 429 L 468 430 L 464 428 Z M 422 324 L 423 326 L 426 326 L 434 331 L 435 329 L 431 326 L 428 326 Z M 262 324 L 260 324 L 253 328 L 243 337 L 242 336 L 242 332 L 244 326 L 240 338 L 240 341 L 238 345 L 237 353 L 228 365 L 228 368 L 233 368 L 235 371 L 219 392 L 220 393 L 227 392 L 228 393 L 228 396 L 223 403 L 217 415 L 223 403 L 228 397 L 229 394 L 227 391 L 225 392 L 221 392 L 220 390 L 235 372 L 235 369 L 234 368 L 230 368 L 228 366 L 235 356 L 238 353 L 245 349 L 254 340 L 263 327 Z M 260 326 L 261 327 L 260 330 L 256 334 L 251 342 L 248 344 L 247 342 L 251 337 L 251 333 L 258 326 Z M 428 311 L 427 314 L 432 322 L 434 322 L 433 318 Z M 372 311 L 371 312 L 371 315 L 373 316 L 374 313 Z M 376 311 L 380 316 L 384 316 L 387 318 L 390 316 L 391 312 L 389 312 L 389 314 L 387 316 L 385 316 L 379 310 Z M 430 298 L 430 301 L 434 304 L 435 303 L 434 300 L 432 298 Z M 417 294 L 415 295 L 415 297 L 419 301 L 419 309 L 414 313 L 411 313 L 410 315 L 412 316 L 415 316 L 422 308 L 422 306 L 420 304 L 418 298 L 418 295 Z M 381 293 L 379 296 L 387 305 L 384 295 Z M 310 292 L 307 293 L 305 298 L 308 297 Z M 506 277 L 505 280 L 507 282 L 522 290 L 524 292 L 519 294 L 518 297 L 537 310 L 543 316 L 542 318 L 539 317 L 533 317 L 532 319 L 541 326 L 561 345 L 561 346 L 559 347 L 562 347 L 562 346 L 546 330 L 533 319 L 535 317 L 539 317 L 540 318 L 544 318 L 545 317 L 540 312 L 522 300 L 519 297 L 519 295 L 521 293 L 525 294 L 526 292 L 515 287 L 509 283 L 506 280 L 508 277 Z M 68 275 L 78 278 L 94 294 L 95 294 L 104 305 L 110 310 L 113 311 L 116 314 L 124 319 L 136 323 L 146 334 L 139 327 L 137 323 L 125 319 L 109 309 L 81 280 L 76 277 Z M 257 274 L 254 275 L 251 279 L 252 283 L 250 285 L 250 288 L 253 287 L 256 284 L 254 281 L 254 279 L 258 275 Z M 259 264 L 260 266 L 265 266 L 266 265 L 265 262 L 262 262 Z M 416 261 L 413 260 L 411 261 L 410 263 L 413 263 Z M 263 253 L 264 255 L 268 255 L 268 253 L 266 251 Z M 27 247 L 32 256 L 38 261 L 54 270 L 66 274 L 62 273 L 57 270 L 55 270 L 38 261 L 30 253 Z M 396 244 L 395 243 L 386 244 L 383 246 L 377 247 L 373 249 L 365 250 L 364 251 L 359 251 L 353 253 L 333 253 L 332 252 L 327 252 L 326 251 L 318 251 L 316 253 L 316 255 L 325 265 L 336 273 L 346 278 L 353 279 L 357 277 L 362 277 L 364 276 L 368 272 L 371 271 L 378 266 L 393 252 L 396 247 Z M 378 263 L 373 268 L 362 275 L 360 274 L 361 271 L 369 267 L 375 262 Z M 318 254 L 320 252 L 322 252 L 324 254 L 323 257 L 331 265 L 337 268 L 342 272 L 348 274 L 354 274 L 356 273 L 357 275 L 354 277 L 350 278 L 338 273 L 326 265 L 319 258 Z M 43 219 L 46 223 L 50 224 L 50 222 L 46 218 Z M 143 207 L 159 217 L 171 228 L 174 228 L 176 226 L 176 224 L 178 222 L 180 222 L 190 232 L 198 238 L 201 236 L 201 233 L 203 231 L 205 231 L 219 244 L 221 244 L 223 242 L 223 240 L 226 237 L 231 242 L 241 247 L 243 247 L 247 242 L 252 244 L 254 246 L 261 246 L 263 242 L 265 243 L 270 249 L 274 249 L 276 246 L 276 244 L 278 242 L 286 246 L 291 250 L 293 249 L 293 245 L 286 238 L 269 230 L 265 226 L 262 221 L 257 224 L 255 221 L 254 212 L 251 208 L 249 209 L 249 212 L 248 213 L 245 212 L 247 214 L 250 210 L 252 210 L 254 213 L 254 217 L 255 218 L 256 224 L 259 226 L 260 224 L 262 223 L 266 227 L 268 231 L 276 241 L 276 246 L 273 249 L 271 249 L 263 240 L 261 240 L 261 244 L 259 246 L 255 246 L 251 244 L 245 239 L 244 240 L 245 243 L 244 245 L 241 247 L 236 245 L 225 235 L 223 237 L 223 240 L 220 243 L 218 243 L 204 230 L 202 230 L 201 231 L 201 234 L 197 237 L 188 230 L 185 226 L 177 219 L 175 220 L 175 225 L 173 227 L 171 227 L 158 216 Z M 60 204 L 59 207 L 55 212 L 57 214 L 62 216 L 64 214 L 64 207 Z M 34 204 L 34 206 L 38 210 L 41 209 L 51 209 L 50 206 L 46 203 L 35 203 Z M 223 183 L 224 194 L 226 198 L 231 203 L 231 208 L 234 217 L 238 222 L 242 223 L 243 225 L 242 226 L 236 225 L 235 224 L 219 225 L 209 220 L 219 225 L 234 224 L 240 227 L 247 227 L 248 226 L 247 224 L 240 222 L 235 218 L 232 212 L 231 202 L 226 198 L 224 194 Z M 243 224 L 244 223 L 246 224 L 247 226 L 245 227 Z M 43 176 L 47 173 L 53 173 L 47 173 L 45 174 L 42 178 L 42 185 L 49 192 L 51 191 L 50 185 L 53 182 L 59 182 L 66 187 L 68 194 L 75 200 L 80 200 L 86 197 L 90 197 L 91 196 L 99 196 L 105 198 L 114 203 L 120 211 L 120 217 L 113 231 L 93 253 L 91 254 L 81 254 L 73 250 L 67 243 L 66 236 L 65 235 L 65 227 L 63 225 L 60 225 L 56 227 L 51 227 L 47 232 L 43 232 L 37 235 L 37 241 L 38 244 L 43 250 L 48 251 L 62 259 L 76 263 L 90 270 L 100 280 L 103 285 L 110 292 L 110 293 L 119 301 L 137 310 L 140 310 L 155 315 L 162 321 L 163 323 L 161 327 L 164 329 L 168 329 L 169 330 L 175 330 L 176 331 L 178 330 L 182 330 L 185 333 L 185 337 L 186 338 L 189 338 L 190 339 L 203 338 L 206 339 L 208 341 L 208 344 L 209 345 L 223 345 L 225 344 L 230 335 L 233 325 L 237 320 L 239 320 L 242 318 L 243 311 L 240 310 L 243 303 L 248 298 L 253 297 L 254 300 L 247 314 L 247 316 L 244 320 L 244 323 L 248 315 L 248 313 L 254 301 L 254 297 L 253 296 L 249 297 L 243 302 L 237 314 L 237 317 L 233 322 L 230 322 L 226 318 L 215 318 L 214 319 L 196 320 L 194 318 L 196 315 L 196 313 L 194 311 L 191 310 L 169 310 L 168 309 L 164 309 L 160 307 L 157 307 L 144 301 L 139 300 L 131 296 L 121 289 L 116 288 L 112 284 L 110 285 L 107 283 L 105 283 L 95 273 L 87 267 L 85 267 L 80 264 L 66 260 L 57 256 L 54 253 L 54 251 L 58 249 L 61 249 L 64 246 L 66 248 L 70 249 L 72 251 L 77 252 L 80 254 L 90 255 L 94 253 L 113 232 L 119 221 L 121 215 L 121 211 L 117 205 L 112 201 L 110 201 L 108 199 L 104 198 L 101 195 L 93 194 L 92 195 L 85 196 L 79 199 L 76 199 L 69 192 L 69 188 L 71 187 L 76 190 L 89 190 L 90 189 L 94 189 L 96 186 L 94 183 L 94 181 L 89 174 L 89 172 L 91 171 L 103 181 L 104 186 L 107 190 L 116 193 L 120 192 L 122 188 L 121 176 L 113 167 L 110 167 L 109 166 L 109 164 L 111 162 L 114 162 L 117 164 L 124 171 L 129 182 L 129 184 L 128 179 L 124 171 L 114 162 L 109 162 L 107 164 L 105 169 L 105 174 L 102 178 L 98 177 L 89 167 L 77 160 L 74 160 L 69 163 L 69 167 L 71 169 L 83 170 L 88 174 L 94 185 L 92 188 L 89 188 L 88 189 L 77 189 L 62 176 L 57 174 L 64 178 L 70 185 L 69 188 L 65 184 L 59 181 L 50 180 L 45 183 L 43 183 L 42 182 L 42 178 Z M 187 314 L 189 312 L 192 313 L 191 316 L 188 316 Z M 41 233 L 44 236 L 44 243 L 45 245 L 43 247 L 38 243 L 38 240 L 37 239 L 37 236 Z M 48 232 L 51 233 L 57 233 L 60 236 L 61 239 L 61 245 L 58 248 L 54 248 L 50 246 L 46 241 L 46 234 Z M 111 169 L 114 169 L 119 174 L 121 178 L 121 189 L 117 193 L 111 191 L 107 186 L 107 183 L 106 182 L 106 174 Z M 70 163 L 72 161 L 78 161 L 80 163 L 82 163 L 85 165 L 87 168 L 86 169 L 78 168 L 75 166 L 72 166 Z M 77 149 L 81 149 L 94 157 L 99 156 L 107 151 L 116 151 L 124 155 L 130 161 L 134 167 L 140 181 L 141 191 L 144 195 L 152 198 L 154 200 L 170 209 L 176 209 L 179 207 L 182 207 L 186 210 L 188 214 L 193 219 L 199 219 L 193 219 L 183 207 L 168 208 L 159 203 L 154 199 L 145 195 L 141 190 L 141 184 L 138 175 L 131 162 L 126 156 L 116 151 L 107 151 L 99 156 L 95 157 L 81 149 Z M 373 145 L 370 145 L 366 151 L 368 147 L 370 145 L 372 145 L 377 150 L 379 155 L 380 179 L 379 180 L 379 187 L 378 188 L 377 196 L 373 208 L 371 210 L 369 215 L 361 223 L 355 226 L 350 230 L 347 230 L 343 232 L 334 232 L 321 226 L 307 212 L 296 196 L 292 184 L 296 196 L 306 211 L 318 224 L 325 229 L 335 233 L 342 233 L 343 232 L 350 231 L 354 229 L 357 226 L 360 225 L 368 217 L 372 211 L 379 190 L 379 182 L 380 181 L 380 162 L 379 161 L 379 154 L 378 151 Z M 384 127 L 384 134 L 390 141 L 395 144 L 401 146 L 404 146 L 405 147 L 419 147 L 420 146 L 426 145 L 433 139 L 433 136 L 434 135 L 432 128 L 426 122 L 417 119 L 412 119 L 411 118 L 396 119 L 390 121 Z M 384 129 L 390 122 L 395 120 L 398 120 L 399 119 L 415 119 L 416 120 L 420 120 L 428 124 L 433 130 L 434 135 L 433 138 L 426 144 L 420 146 L 405 146 L 404 145 L 401 145 L 395 143 L 390 140 L 385 135 L 384 133 Z M 306 111 L 306 113 L 311 113 L 316 111 L 327 111 L 335 114 L 339 114 L 340 113 L 340 111 L 337 108 L 330 105 L 315 105 L 309 108 Z M 329 109 L 332 108 L 333 110 L 330 111 Z M 241 148 L 242 153 L 247 158 L 254 159 L 259 157 L 268 147 L 269 148 L 269 154 L 270 143 L 275 137 L 277 137 L 279 139 L 279 148 L 278 149 L 278 156 L 279 159 L 284 165 L 290 168 L 297 168 L 307 162 L 310 162 L 315 164 L 319 164 L 320 165 L 326 165 L 327 166 L 339 166 L 351 162 L 339 166 L 327 166 L 326 165 L 320 165 L 319 164 L 315 164 L 314 163 L 307 162 L 304 163 L 301 166 L 297 168 L 290 168 L 286 166 L 279 159 L 278 156 L 278 149 L 279 148 L 279 141 L 280 140 L 282 141 L 284 146 L 289 151 L 295 154 L 292 153 L 284 146 L 281 140 L 280 134 L 281 131 L 287 125 L 286 126 L 282 125 L 278 120 L 278 111 L 281 103 L 285 99 L 290 98 L 294 101 L 296 105 L 296 114 L 292 121 L 289 124 L 297 121 L 301 121 L 297 121 L 296 122 L 293 121 L 293 119 L 296 114 L 296 105 L 292 99 L 290 98 L 285 99 L 281 103 L 278 111 L 278 121 L 283 126 L 283 128 L 280 134 L 280 137 L 279 138 L 277 137 L 273 138 L 268 133 L 265 132 L 258 132 L 248 137 L 243 142 Z M 252 136 L 254 136 L 255 138 L 252 139 L 247 144 L 246 150 L 248 153 L 255 154 L 256 156 L 255 157 L 247 157 L 242 152 L 242 146 L 243 144 Z M 256 135 L 259 133 L 265 133 L 267 134 L 270 138 L 268 141 L 266 139 L 265 136 L 257 137 Z M 371 92 L 365 97 L 363 103 L 363 112 L 366 119 L 368 121 L 371 122 L 370 122 L 364 115 L 363 112 L 363 103 L 366 96 L 369 93 L 371 92 L 376 92 L 378 93 L 381 96 L 384 103 L 384 113 L 382 118 L 376 123 L 373 123 L 379 122 L 383 117 L 384 114 L 384 102 L 382 97 L 378 93 L 376 92 Z M 226 77 L 226 81 L 230 89 L 236 95 L 241 98 L 245 99 L 247 101 L 246 106 L 238 123 L 239 133 L 231 141 L 227 147 L 228 149 L 235 148 L 237 150 L 230 164 L 229 169 L 231 170 L 235 168 L 237 170 L 237 173 L 235 178 L 235 182 L 234 183 L 234 190 L 236 192 L 240 189 L 243 191 L 243 194 L 242 195 L 242 203 L 243 189 L 240 188 L 237 191 L 234 190 L 234 184 L 235 183 L 235 178 L 237 173 L 237 168 L 235 167 L 232 169 L 230 167 L 230 165 L 237 151 L 237 149 L 235 147 L 233 148 L 229 148 L 228 146 L 239 134 L 238 123 L 246 106 L 247 100 L 241 98 L 235 94 L 230 89 L 226 81 Z M 260 58 L 251 58 L 244 63 L 240 70 L 240 79 L 242 83 L 247 88 L 251 90 L 257 85 L 266 71 L 269 68 L 269 66 L 267 63 Z M 241 75 L 243 74 L 245 77 L 246 81 L 249 82 L 251 84 L 253 84 L 254 86 L 252 88 L 248 87 L 243 82 L 241 78 Z M 262 71 L 263 73 L 258 81 L 255 84 L 253 82 L 254 79 L 258 76 L 258 73 L 260 71 Z M 257 61 L 247 68 L 244 67 L 245 64 L 250 60 L 255 59 Z M 473 50 L 472 57 L 470 61 L 463 69 L 459 71 L 456 74 L 456 76 L 462 82 L 463 85 L 467 90 L 469 95 L 477 107 L 473 111 L 474 114 L 479 118 L 482 119 L 489 125 L 487 127 L 478 127 L 477 128 L 477 131 L 488 142 L 492 148 L 490 151 L 486 149 L 482 149 L 481 150 L 482 155 L 486 161 L 489 170 L 487 172 L 484 170 L 479 170 L 477 164 L 478 161 L 474 164 L 469 160 L 467 160 L 464 158 L 461 158 L 460 160 L 466 165 L 468 170 L 466 172 L 461 172 L 461 173 L 466 177 L 466 183 L 465 184 L 462 184 L 460 182 L 456 182 L 455 183 L 458 187 L 460 193 L 457 195 L 452 192 L 449 192 L 448 191 L 446 192 L 447 194 L 454 200 L 454 202 L 452 204 L 448 204 L 445 209 L 445 214 L 443 216 L 440 213 L 438 213 L 438 222 L 435 226 L 432 223 L 430 223 L 429 224 L 428 232 L 425 235 L 423 233 L 423 230 L 421 229 L 415 236 L 409 239 L 404 244 L 402 248 L 402 253 L 403 254 L 405 252 L 407 247 L 413 241 L 415 242 L 415 246 L 417 249 L 421 248 L 423 246 L 441 246 L 447 248 L 450 244 L 454 241 L 466 242 L 491 252 L 492 254 L 491 255 L 488 255 L 486 258 L 489 261 L 491 261 L 499 265 L 505 270 L 512 274 L 514 277 L 511 278 L 515 278 L 515 276 L 499 265 L 490 261 L 487 258 L 489 255 L 494 255 L 495 254 L 494 253 L 492 253 L 485 249 L 483 249 L 470 243 L 468 240 L 470 238 L 472 238 L 472 237 L 470 236 L 466 236 L 464 234 L 465 230 L 462 230 L 460 228 L 460 226 L 468 217 L 473 208 L 474 201 L 475 200 L 475 194 L 477 192 L 479 192 L 481 194 L 482 193 L 482 176 L 481 173 L 483 171 L 485 171 L 488 174 L 490 173 L 489 167 L 485 158 L 482 154 L 482 151 L 484 149 L 486 149 L 489 151 L 492 150 L 492 148 L 489 143 L 477 130 L 479 127 L 489 127 L 489 124 L 481 118 L 478 117 L 473 112 L 473 111 L 475 109 L 477 109 L 478 107 L 471 98 L 461 80 L 457 76 L 457 74 L 462 70 L 470 61 L 473 54 Z M 432 244 L 432 241 L 435 238 L 438 238 L 440 240 L 435 245 Z M 453 223 L 454 225 L 450 232 L 445 236 L 443 234 L 443 232 L 452 223 Z M 227 65 L 227 63 L 232 54 L 241 46 L 250 42 L 264 42 L 271 46 L 280 56 L 284 55 L 292 49 L 301 45 L 290 50 L 284 55 L 280 56 L 273 47 L 264 42 L 250 42 L 239 47 L 231 55 L 228 60 Z M 439 31 L 433 34 L 427 40 L 425 43 L 425 48 L 428 51 L 434 54 L 446 65 L 450 65 L 453 63 L 458 57 L 459 54 L 459 47 L 456 40 L 450 34 L 446 32 Z M 438 33 L 444 33 L 447 34 L 456 42 L 458 46 L 458 54 L 449 64 L 447 64 L 434 52 L 429 50 L 426 47 L 426 43 L 432 36 Z M 308 29 L 303 30 L 284 41 L 276 35 L 263 30 L 251 30 L 250 31 L 247 31 L 241 33 L 233 37 L 222 47 L 216 57 L 215 62 L 216 57 L 223 46 L 232 38 L 241 33 L 247 31 L 250 31 L 251 30 L 263 30 L 274 34 L 284 41 L 292 36 L 301 32 L 303 30 Z M 360 23 L 359 22 L 353 25 L 346 33 L 344 33 L 334 27 L 327 26 L 327 29 L 329 31 L 330 34 L 327 38 L 311 38 L 309 39 L 305 44 L 303 44 L 307 43 L 308 41 L 312 38 L 328 38 L 330 36 L 329 31 L 327 29 L 329 26 L 331 26 L 344 33 L 346 33 L 357 23 L 359 24 L 359 27 Z M 397 36 L 408 39 L 410 37 L 411 30 L 418 22 L 428 16 L 435 15 L 436 14 L 441 14 L 442 15 L 447 15 L 457 20 L 467 29 L 472 37 L 474 48 L 473 40 L 468 30 L 460 22 L 454 18 L 447 15 L 442 15 L 441 14 L 431 15 L 419 21 L 411 30 L 410 37 L 408 39 Z" fill="#D8D8D8" fill-rule="evenodd"/><path d="M 447 637 L 448 639 L 451 638 L 459 638 L 460 637 L 484 638 L 484 636 L 478 634 L 458 634 L 457 635 L 453 635 Z M 464 635 L 465 634 L 468 634 L 469 636 L 468 637 L 465 637 Z M 270 523 L 269 525 L 271 529 L 280 539 L 282 539 L 281 536 Z M 293 517 L 296 524 L 303 532 L 303 530 L 299 526 Z M 259 517 L 258 518 L 260 522 L 266 529 L 267 527 Z M 420 509 L 419 509 L 417 512 L 416 517 L 413 522 L 414 524 L 415 524 L 415 522 L 417 520 Z M 243 501 L 243 505 L 248 515 L 249 512 L 244 501 Z M 270 496 L 273 505 L 276 507 L 273 498 Z M 437 460 L 438 462 L 438 467 L 439 469 L 440 469 L 440 465 L 438 462 L 438 460 Z M 260 327 L 258 327 L 252 333 L 252 337 L 248 343 L 250 342 L 255 334 L 259 330 Z M 378 262 L 375 263 L 369 268 L 361 272 L 361 274 L 373 267 Z M 319 254 L 320 258 L 326 264 L 338 272 L 350 277 L 356 275 L 356 274 L 354 275 L 348 275 L 342 273 L 337 269 L 331 266 L 322 257 L 323 255 L 322 253 Z M 439 240 L 438 239 L 435 239 L 433 241 L 433 244 L 435 244 Z M 48 233 L 47 234 L 47 241 L 49 244 L 54 247 L 58 247 L 60 245 L 60 239 L 59 236 L 57 234 L 51 234 Z M 453 224 L 452 224 L 444 232 L 445 235 L 449 232 Z M 111 170 L 107 174 L 107 182 L 108 183 L 108 186 L 111 190 L 117 192 L 120 189 L 120 178 L 118 174 L 114 170 Z M 114 173 L 117 177 L 117 184 L 115 186 L 112 185 L 112 180 L 111 179 L 111 177 Z M 272 141 L 271 143 L 271 149 L 270 150 L 270 155 L 271 156 L 272 162 L 279 170 L 286 174 L 288 174 L 292 178 L 292 183 L 294 189 L 300 201 L 308 212 L 321 225 L 334 231 L 343 231 L 352 228 L 355 225 L 361 222 L 368 215 L 370 210 L 372 208 L 376 196 L 377 188 L 378 187 L 378 180 L 379 179 L 378 155 L 376 150 L 372 146 L 369 147 L 366 153 L 361 158 L 354 162 L 339 167 L 327 167 L 326 166 L 320 166 L 319 165 L 315 165 L 314 164 L 307 163 L 297 169 L 290 169 L 284 166 L 278 159 L 277 156 L 278 139 L 275 138 Z M 273 141 L 275 139 L 278 141 L 278 145 L 277 146 L 277 157 L 280 163 L 286 168 L 294 169 L 295 170 L 301 168 L 306 164 L 312 164 L 313 165 L 329 167 L 330 168 L 341 167 L 359 160 L 367 153 L 368 150 L 372 147 L 375 150 L 377 155 L 377 160 L 378 161 L 378 181 L 377 182 L 377 187 L 376 188 L 375 196 L 372 205 L 366 216 L 363 219 L 361 217 L 367 206 L 369 200 L 369 192 L 368 190 L 364 186 L 357 183 L 345 183 L 334 188 L 330 191 L 323 199 L 320 205 L 319 210 L 322 217 L 329 225 L 326 227 L 321 224 L 311 214 L 300 200 L 294 188 L 293 182 L 292 181 L 292 176 L 280 170 L 272 161 L 271 158 L 271 146 Z M 254 137 L 250 138 L 243 146 L 243 152 L 247 156 L 255 156 L 255 155 L 248 154 L 245 150 L 246 144 L 252 138 L 254 138 Z M 257 135 L 257 136 L 265 135 L 268 140 L 269 138 L 268 136 L 265 134 L 259 134 Z M 385 129 L 385 133 L 390 139 L 395 142 L 401 144 L 404 144 L 405 145 L 420 145 L 426 143 L 432 138 L 433 135 L 432 130 L 428 125 L 420 121 L 416 121 L 415 120 L 399 120 L 398 121 L 395 121 L 390 123 Z M 285 100 L 282 103 L 279 111 L 279 120 L 282 124 L 287 126 L 282 131 L 281 134 L 281 137 L 285 146 L 292 152 L 299 155 L 309 155 L 310 154 L 313 154 L 327 146 L 331 141 L 333 136 L 333 133 L 331 129 L 328 126 L 315 121 L 302 121 L 301 122 L 297 122 L 293 124 L 290 124 L 289 123 L 295 114 L 295 105 L 292 100 L 290 99 Z M 282 133 L 287 127 L 295 123 L 303 122 L 304 121 L 313 121 L 314 122 L 321 123 L 327 126 L 332 132 L 332 137 L 331 140 L 322 149 L 311 154 L 302 155 L 293 152 L 285 145 L 282 139 Z M 291 100 L 293 102 L 295 107 L 294 116 L 288 123 L 283 124 L 280 121 L 279 118 L 280 109 L 282 104 L 286 100 Z M 371 93 L 367 96 L 364 103 L 364 112 L 366 117 L 370 121 L 372 122 L 376 122 L 378 121 L 382 116 L 383 113 L 383 103 L 380 96 L 376 93 Z M 372 93 L 375 93 L 379 96 L 382 101 L 382 104 L 383 105 L 383 112 L 382 115 L 377 121 L 371 121 L 366 116 L 364 110 L 365 101 L 368 96 Z M 242 75 L 242 78 L 244 82 L 248 86 L 252 87 L 253 85 L 247 83 L 245 81 L 243 75 Z M 262 72 L 260 72 L 259 73 L 259 76 L 255 79 L 254 81 L 255 83 L 259 78 Z M 300 62 L 294 60 L 288 63 L 283 67 L 280 72 L 280 74 L 284 77 L 293 70 L 299 68 L 301 65 Z M 300 63 L 300 66 L 298 68 L 292 70 L 286 75 L 283 76 L 281 74 L 281 71 L 289 63 L 293 61 L 298 61 Z M 256 61 L 253 60 L 248 62 L 246 64 L 245 67 L 247 67 Z M 364 55 L 366 58 L 375 60 L 383 65 L 386 65 L 388 62 L 388 60 L 385 55 L 375 50 L 369 50 L 367 51 Z M 365 54 L 368 51 L 371 50 L 379 52 L 386 57 L 387 59 L 387 63 L 384 65 L 374 59 L 367 58 L 365 56 Z M 432 37 L 427 43 L 427 47 L 429 49 L 434 51 L 447 63 L 449 63 L 457 54 L 457 46 L 455 42 L 450 37 L 444 34 L 438 34 Z M 452 15 L 446 14 L 445 13 L 432 13 L 426 15 L 419 19 L 412 26 L 409 31 L 409 34 L 406 37 L 404 37 L 398 34 L 390 33 L 385 31 L 371 30 L 370 31 L 363 31 L 361 32 L 360 31 L 360 27 L 362 24 L 361 21 L 357 21 L 353 23 L 345 31 L 331 24 L 326 24 L 325 25 L 325 28 L 328 33 L 326 36 L 308 37 L 303 43 L 294 46 L 283 54 L 280 54 L 271 44 L 262 40 L 252 40 L 251 41 L 248 41 L 243 44 L 241 44 L 229 55 L 226 61 L 225 68 L 224 69 L 224 78 L 225 79 L 226 85 L 228 89 L 235 96 L 243 100 L 245 102 L 245 105 L 237 121 L 237 125 L 236 127 L 238 132 L 231 139 L 226 146 L 226 150 L 227 151 L 233 150 L 235 152 L 228 165 L 228 171 L 231 172 L 233 170 L 235 172 L 235 175 L 233 180 L 233 184 L 232 185 L 232 189 L 234 193 L 238 193 L 239 192 L 241 194 L 241 205 L 244 213 L 247 216 L 251 213 L 253 215 L 254 223 L 259 231 L 261 228 L 263 227 L 273 239 L 275 244 L 272 247 L 271 247 L 262 237 L 259 239 L 259 242 L 257 244 L 255 244 L 245 236 L 243 236 L 242 237 L 242 243 L 239 244 L 235 242 L 225 232 L 222 234 L 221 238 L 219 240 L 217 240 L 211 233 L 207 231 L 204 228 L 202 228 L 200 230 L 200 232 L 198 234 L 196 234 L 176 216 L 173 217 L 173 223 L 172 224 L 168 223 L 156 213 L 134 201 L 132 199 L 132 190 L 131 189 L 131 185 L 130 184 L 129 178 L 123 168 L 115 161 L 108 161 L 103 169 L 103 173 L 100 176 L 98 175 L 89 165 L 80 160 L 73 159 L 67 163 L 68 169 L 73 178 L 72 181 L 70 181 L 59 173 L 55 173 L 54 172 L 46 172 L 43 174 L 41 177 L 40 184 L 46 194 L 47 194 L 48 196 L 55 202 L 53 205 L 48 202 L 44 202 L 43 201 L 37 201 L 32 203 L 32 207 L 36 212 L 39 219 L 46 226 L 46 228 L 43 231 L 41 231 L 36 234 L 36 242 L 37 243 L 37 246 L 41 251 L 57 259 L 59 259 L 64 262 L 67 262 L 72 265 L 79 267 L 89 272 L 98 281 L 107 293 L 117 302 L 125 307 L 127 307 L 138 312 L 144 313 L 149 316 L 153 317 L 157 321 L 152 325 L 154 328 L 160 330 L 163 330 L 164 331 L 179 333 L 181 335 L 181 337 L 184 340 L 189 340 L 190 341 L 203 341 L 207 347 L 221 347 L 222 348 L 225 348 L 228 344 L 228 342 L 233 332 L 235 325 L 238 322 L 241 322 L 243 324 L 243 327 L 236 346 L 236 351 L 233 357 L 227 364 L 225 368 L 226 370 L 232 370 L 233 372 L 222 385 L 217 393 L 218 395 L 221 395 L 225 393 L 227 395 L 221 404 L 216 415 L 214 417 L 212 423 L 214 426 L 218 424 L 221 425 L 215 443 L 214 456 L 215 457 L 218 454 L 220 455 L 220 460 L 219 461 L 219 477 L 221 479 L 223 477 L 226 479 L 226 484 L 233 501 L 231 504 L 229 502 L 226 503 L 225 509 L 219 519 L 219 522 L 220 523 L 223 522 L 225 524 L 218 539 L 218 542 L 220 543 L 224 541 L 225 542 L 225 545 L 223 548 L 222 555 L 219 562 L 218 570 L 220 571 L 224 569 L 226 571 L 223 580 L 223 584 L 227 587 L 227 596 L 229 600 L 230 610 L 231 611 L 233 621 L 236 626 L 234 628 L 223 629 L 222 630 L 215 631 L 209 634 L 203 640 L 199 649 L 198 659 L 200 665 L 205 669 L 208 668 L 208 656 L 210 652 L 214 648 L 216 648 L 218 650 L 215 659 L 215 670 L 218 672 L 221 672 L 222 673 L 229 673 L 230 674 L 232 673 L 232 661 L 233 658 L 238 652 L 240 652 L 242 654 L 242 657 L 240 661 L 240 667 L 239 668 L 239 671 L 241 675 L 275 675 L 276 674 L 299 672 L 300 671 L 305 671 L 306 670 L 310 670 L 311 669 L 317 668 L 321 666 L 324 663 L 327 656 L 327 640 L 326 639 L 326 633 L 325 632 L 327 630 L 330 632 L 332 630 L 332 603 L 331 602 L 331 599 L 333 597 L 335 599 L 338 598 L 337 586 L 339 582 L 340 573 L 316 565 L 310 560 L 312 557 L 315 557 L 316 558 L 319 558 L 331 562 L 347 564 L 348 565 L 355 565 L 356 566 L 370 565 L 376 563 L 382 563 L 384 565 L 384 567 L 381 570 L 377 572 L 377 575 L 379 577 L 379 579 L 381 582 L 384 596 L 385 597 L 387 596 L 389 597 L 389 612 L 393 615 L 393 631 L 394 633 L 397 632 L 400 633 L 400 648 L 398 653 L 398 668 L 400 672 L 407 678 L 409 678 L 412 680 L 419 681 L 420 682 L 438 684 L 439 683 L 438 667 L 439 664 L 441 662 L 444 662 L 446 664 L 446 667 L 447 668 L 447 683 L 448 684 L 469 684 L 471 682 L 470 663 L 472 661 L 475 661 L 478 665 L 479 668 L 479 682 L 480 683 L 493 682 L 497 679 L 498 677 L 498 670 L 497 669 L 496 660 L 498 658 L 499 658 L 505 665 L 505 668 L 506 669 L 506 675 L 505 678 L 506 679 L 511 678 L 514 676 L 518 670 L 518 667 L 519 666 L 518 656 L 514 648 L 506 641 L 504 641 L 498 637 L 498 635 L 501 632 L 501 628 L 503 622 L 503 616 L 504 615 L 504 600 L 505 599 L 503 584 L 506 581 L 506 579 L 502 571 L 504 569 L 508 572 L 510 571 L 507 562 L 505 559 L 505 557 L 499 546 L 500 543 L 502 543 L 506 546 L 508 545 L 507 539 L 503 532 L 503 530 L 500 524 L 502 521 L 505 522 L 506 519 L 505 518 L 504 509 L 502 505 L 502 502 L 500 496 L 497 494 L 494 494 L 488 490 L 483 484 L 479 475 L 478 461 L 479 460 L 479 455 L 484 442 L 484 435 L 482 430 L 482 426 L 481 425 L 481 421 L 478 412 L 478 408 L 477 407 L 476 400 L 474 396 L 474 393 L 471 384 L 463 368 L 463 366 L 455 351 L 454 346 L 456 344 L 459 346 L 469 362 L 477 378 L 486 405 L 486 408 L 489 417 L 489 421 L 490 422 L 490 426 L 491 427 L 491 431 L 492 432 L 492 436 L 493 437 L 493 443 L 491 446 L 488 455 L 488 458 L 487 459 L 487 470 L 490 478 L 497 484 L 503 484 L 507 480 L 510 471 L 513 469 L 515 471 L 515 478 L 512 487 L 508 492 L 508 494 L 514 501 L 519 503 L 525 503 L 529 501 L 533 496 L 536 490 L 536 488 L 539 484 L 542 486 L 541 494 L 537 501 L 537 503 L 539 505 L 547 505 L 551 503 L 557 497 L 561 485 L 563 483 L 566 485 L 564 497 L 568 496 L 575 488 L 581 474 L 581 470 L 583 464 L 583 443 L 581 437 L 583 435 L 585 435 L 586 433 L 581 420 L 581 417 L 580 416 L 580 413 L 578 407 L 576 404 L 578 402 L 581 402 L 581 400 L 577 392 L 571 384 L 570 381 L 567 378 L 568 376 L 573 377 L 574 374 L 556 350 L 557 348 L 565 349 L 565 347 L 538 321 L 539 319 L 543 319 L 545 320 L 547 317 L 541 311 L 521 297 L 523 295 L 528 295 L 529 293 L 526 290 L 520 287 L 518 287 L 510 281 L 511 279 L 517 279 L 518 277 L 500 264 L 497 263 L 495 261 L 493 261 L 491 258 L 492 257 L 496 257 L 498 254 L 482 246 L 475 244 L 472 240 L 476 238 L 474 236 L 472 236 L 469 234 L 470 231 L 468 229 L 465 229 L 463 227 L 464 224 L 468 220 L 473 212 L 473 210 L 476 204 L 476 196 L 477 195 L 482 196 L 484 194 L 484 178 L 483 175 L 485 173 L 488 176 L 490 176 L 492 174 L 491 167 L 484 153 L 486 151 L 492 153 L 494 150 L 490 142 L 479 130 L 481 128 L 490 128 L 491 127 L 491 124 L 487 120 L 481 117 L 476 113 L 480 108 L 472 97 L 466 85 L 459 75 L 459 74 L 470 64 L 473 58 L 474 52 L 475 51 L 475 43 L 474 42 L 474 39 L 469 29 L 460 20 Z M 70 234 L 74 237 L 77 244 L 81 246 L 85 250 L 84 252 L 81 252 L 77 250 L 71 244 L 70 241 L 68 239 L 68 236 Z M 42 219 L 44 217 L 46 217 L 51 222 L 51 224 L 50 225 L 46 224 Z M 109 205 L 110 204 L 115 208 L 115 210 L 113 211 L 109 207 Z M 60 203 L 65 207 L 65 214 L 62 217 L 57 215 L 54 212 Z M 33 204 L 35 202 L 46 202 L 51 206 L 52 209 L 51 210 L 41 210 L 38 211 L 33 206 Z M 450 15 L 460 21 L 469 30 L 474 40 L 475 48 L 474 49 L 473 57 L 469 64 L 458 74 L 458 76 L 462 80 L 472 98 L 479 107 L 479 108 L 477 110 L 475 110 L 474 112 L 478 116 L 481 117 L 490 124 L 490 127 L 489 128 L 479 128 L 478 130 L 486 138 L 493 148 L 493 150 L 491 152 L 489 152 L 486 150 L 483 151 L 483 154 L 486 158 L 490 167 L 491 173 L 489 175 L 485 172 L 482 173 L 483 176 L 483 193 L 481 195 L 479 193 L 476 194 L 476 200 L 475 201 L 474 208 L 469 217 L 461 226 L 461 228 L 466 230 L 465 233 L 466 235 L 470 235 L 473 237 L 472 239 L 469 240 L 470 242 L 473 244 L 485 248 L 492 252 L 494 252 L 496 254 L 494 256 L 489 256 L 488 258 L 490 260 L 499 264 L 516 276 L 515 279 L 508 278 L 507 280 L 515 286 L 525 290 L 527 293 L 525 295 L 521 294 L 520 297 L 540 311 L 546 317 L 544 319 L 540 319 L 539 318 L 535 318 L 534 319 L 546 329 L 563 346 L 562 348 L 559 348 L 553 346 L 553 348 L 564 361 L 573 374 L 571 376 L 566 374 L 565 376 L 576 391 L 580 399 L 578 401 L 575 399 L 574 402 L 578 408 L 580 418 L 585 431 L 583 434 L 582 433 L 580 434 L 581 435 L 582 445 L 583 446 L 583 461 L 581 467 L 581 472 L 579 476 L 579 479 L 572 491 L 568 495 L 565 494 L 566 491 L 566 483 L 563 481 L 560 486 L 560 489 L 556 497 L 551 502 L 547 504 L 540 504 L 538 501 L 540 498 L 541 492 L 542 491 L 542 484 L 539 483 L 537 485 L 536 489 L 532 496 L 526 502 L 517 502 L 515 501 L 509 495 L 509 492 L 511 490 L 515 481 L 516 470 L 514 468 L 512 468 L 510 470 L 506 480 L 501 484 L 497 483 L 494 481 L 489 474 L 488 471 L 488 457 L 494 439 L 492 434 L 491 424 L 490 423 L 490 419 L 489 418 L 486 403 L 484 399 L 484 396 L 480 384 L 470 362 L 457 343 L 454 343 L 453 344 L 453 347 L 455 353 L 462 365 L 462 367 L 470 384 L 475 399 L 476 407 L 477 408 L 477 411 L 480 420 L 480 425 L 481 426 L 481 430 L 483 436 L 483 442 L 480 448 L 480 451 L 478 456 L 478 461 L 477 462 L 478 475 L 480 481 L 484 487 L 489 492 L 492 494 L 497 495 L 500 498 L 500 501 L 502 504 L 502 507 L 504 512 L 505 519 L 503 521 L 500 520 L 499 522 L 502 531 L 504 534 L 504 536 L 507 541 L 507 543 L 504 544 L 498 541 L 497 544 L 504 556 L 504 558 L 508 566 L 508 569 L 507 570 L 503 568 L 501 569 L 501 571 L 505 578 L 502 582 L 503 589 L 504 590 L 504 608 L 503 609 L 503 619 L 502 620 L 501 630 L 497 635 L 497 637 L 499 639 L 508 643 L 514 649 L 518 659 L 518 668 L 515 674 L 510 678 L 508 678 L 506 676 L 506 667 L 504 662 L 498 657 L 496 659 L 497 678 L 494 681 L 491 682 L 485 682 L 484 683 L 481 683 L 479 681 L 480 679 L 480 670 L 479 669 L 479 666 L 475 660 L 471 660 L 469 662 L 471 681 L 468 684 L 449 684 L 447 682 L 447 665 L 444 661 L 440 661 L 438 665 L 438 678 L 439 681 L 437 683 L 428 683 L 427 682 L 417 681 L 405 676 L 400 671 L 398 666 L 398 657 L 399 656 L 399 651 L 401 646 L 400 631 L 398 630 L 396 632 L 393 628 L 393 614 L 394 612 L 393 611 L 391 612 L 389 610 L 389 597 L 390 595 L 388 593 L 386 595 L 384 594 L 384 591 L 382 587 L 382 583 L 378 575 L 378 572 L 382 570 L 384 568 L 385 565 L 382 562 L 378 562 L 372 564 L 366 564 L 365 565 L 345 564 L 344 563 L 339 563 L 338 562 L 329 561 L 315 556 L 311 556 L 309 558 L 309 561 L 317 566 L 319 566 L 322 568 L 331 571 L 337 572 L 339 574 L 339 578 L 337 583 L 337 596 L 336 597 L 334 597 L 332 595 L 330 596 L 331 609 L 332 610 L 332 625 L 331 628 L 329 630 L 327 628 L 325 629 L 325 636 L 326 637 L 326 646 L 327 649 L 326 650 L 326 657 L 324 661 L 317 667 L 311 669 L 302 670 L 301 671 L 294 671 L 293 672 L 279 673 L 278 674 L 269 674 L 268 675 L 243 675 L 240 672 L 240 662 L 242 657 L 242 653 L 241 652 L 237 652 L 234 655 L 232 659 L 232 662 L 231 663 L 231 671 L 229 673 L 225 673 L 224 672 L 220 672 L 218 671 L 215 667 L 216 657 L 219 651 L 219 648 L 218 647 L 215 647 L 210 651 L 208 655 L 207 666 L 205 668 L 200 664 L 199 661 L 199 651 L 203 640 L 210 634 L 225 629 L 242 629 L 243 630 L 247 630 L 248 631 L 255 632 L 254 629 L 245 626 L 238 626 L 235 623 L 232 616 L 232 613 L 230 608 L 230 604 L 229 603 L 229 598 L 227 594 L 227 585 L 224 582 L 224 578 L 226 573 L 226 568 L 223 568 L 221 570 L 219 568 L 219 564 L 222 556 L 222 553 L 226 544 L 226 541 L 225 540 L 223 540 L 220 542 L 218 540 L 225 525 L 225 522 L 224 521 L 221 522 L 220 519 L 226 508 L 226 506 L 228 504 L 233 505 L 234 502 L 227 486 L 226 476 L 224 474 L 221 477 L 219 475 L 219 465 L 220 464 L 221 452 L 219 452 L 216 455 L 214 453 L 216 440 L 222 423 L 220 422 L 216 425 L 213 423 L 213 421 L 216 416 L 217 412 L 227 396 L 227 393 L 220 394 L 218 392 L 234 371 L 233 369 L 228 369 L 227 368 L 227 365 L 236 353 L 237 345 L 244 325 L 243 320 L 246 316 L 246 314 L 251 305 L 253 298 L 248 299 L 244 303 L 241 310 L 244 311 L 243 318 L 241 320 L 236 322 L 234 325 L 231 335 L 227 343 L 223 346 L 209 346 L 207 344 L 207 341 L 203 339 L 199 339 L 198 340 L 190 340 L 189 339 L 186 339 L 184 337 L 184 333 L 182 331 L 178 331 L 176 332 L 175 331 L 169 331 L 168 330 L 164 330 L 160 327 L 162 324 L 161 321 L 155 316 L 132 309 L 122 304 L 115 299 L 102 285 L 99 280 L 90 271 L 76 264 L 62 260 L 48 252 L 43 251 L 38 246 L 36 241 L 36 235 L 38 233 L 43 231 L 47 231 L 51 226 L 56 226 L 60 224 L 63 224 L 66 227 L 66 235 L 67 236 L 67 240 L 69 245 L 73 249 L 81 253 L 91 253 L 100 245 L 100 244 L 112 231 L 119 217 L 119 211 L 116 206 L 111 202 L 99 197 L 91 197 L 90 198 L 86 198 L 80 201 L 75 201 L 67 194 L 65 187 L 59 183 L 53 183 L 51 185 L 52 191 L 49 193 L 41 185 L 41 178 L 42 176 L 47 172 L 58 173 L 62 175 L 75 187 L 77 188 L 88 188 L 89 187 L 92 187 L 93 185 L 87 174 L 83 171 L 71 170 L 68 167 L 68 163 L 74 159 L 77 159 L 89 166 L 98 176 L 102 177 L 104 174 L 104 169 L 106 164 L 109 161 L 114 161 L 125 171 L 129 179 L 130 185 L 131 186 L 131 197 L 132 200 L 158 215 L 169 225 L 173 226 L 174 225 L 174 220 L 177 218 L 180 220 L 188 229 L 197 236 L 200 234 L 200 231 L 202 229 L 204 229 L 218 242 L 220 242 L 222 240 L 222 237 L 225 234 L 232 241 L 236 244 L 241 246 L 243 245 L 244 243 L 243 240 L 245 238 L 251 243 L 255 245 L 259 245 L 260 244 L 260 240 L 263 239 L 271 248 L 273 248 L 275 246 L 275 241 L 267 231 L 265 227 L 262 224 L 261 224 L 259 227 L 255 224 L 252 211 L 250 211 L 247 215 L 244 212 L 241 203 L 241 195 L 242 194 L 242 191 L 240 190 L 236 193 L 233 190 L 233 183 L 234 182 L 234 178 L 235 177 L 236 170 L 234 169 L 230 171 L 228 169 L 229 164 L 236 150 L 235 149 L 228 150 L 226 147 L 230 141 L 238 133 L 237 123 L 246 103 L 245 100 L 241 99 L 236 96 L 229 89 L 225 81 L 224 71 L 225 70 L 227 60 L 230 55 L 239 46 L 250 41 L 264 41 L 273 46 L 277 50 L 279 54 L 282 55 L 290 49 L 300 44 L 305 43 L 307 40 L 311 37 L 327 37 L 329 35 L 328 31 L 326 29 L 326 26 L 327 25 L 334 26 L 342 31 L 346 32 L 353 24 L 359 21 L 361 23 L 361 25 L 359 28 L 359 31 L 360 32 L 365 32 L 366 31 L 381 31 L 382 32 L 391 33 L 392 34 L 395 34 L 396 35 L 399 35 L 408 38 L 409 37 L 410 30 L 412 27 L 422 18 L 435 13 L 441 13 L 442 14 Z M 455 7 L 449 5 L 446 5 L 445 4 L 432 4 L 431 5 L 427 5 L 417 9 L 410 14 L 401 25 L 389 24 L 388 23 L 383 23 L 382 22 L 371 22 L 369 20 L 368 17 L 363 13 L 355 13 L 349 16 L 345 20 L 342 20 L 333 16 L 324 16 L 319 20 L 318 22 L 318 27 L 316 29 L 309 29 L 303 31 L 301 33 L 292 37 L 284 42 L 270 33 L 264 32 L 263 31 L 251 31 L 250 32 L 247 32 L 241 34 L 235 37 L 224 46 L 218 55 L 215 63 L 215 66 L 214 67 L 214 80 L 219 93 L 222 97 L 234 108 L 229 117 L 227 123 L 227 132 L 220 140 L 218 144 L 218 153 L 223 158 L 220 164 L 220 174 L 225 180 L 224 182 L 224 190 L 227 198 L 232 202 L 233 212 L 238 220 L 245 222 L 249 225 L 247 228 L 240 228 L 234 225 L 219 226 L 208 220 L 204 220 L 203 219 L 193 220 L 187 214 L 185 210 L 182 208 L 179 208 L 176 210 L 170 210 L 154 201 L 152 199 L 144 196 L 140 191 L 139 181 L 133 167 L 129 161 L 124 156 L 116 152 L 107 152 L 99 157 L 94 158 L 81 150 L 77 150 L 76 149 L 66 150 L 64 151 L 56 160 L 54 161 L 47 161 L 39 165 L 33 173 L 32 180 L 31 181 L 31 186 L 32 187 L 33 193 L 31 195 L 27 196 L 24 199 L 21 206 L 21 213 L 23 218 L 29 225 L 29 230 L 27 233 L 27 236 L 26 237 L 27 246 L 31 253 L 38 260 L 55 269 L 57 269 L 67 274 L 70 274 L 76 276 L 81 279 L 109 308 L 118 313 L 123 317 L 137 322 L 139 324 L 140 327 L 150 336 L 157 339 L 165 340 L 172 347 L 179 350 L 192 351 L 203 355 L 215 355 L 220 359 L 218 364 L 218 369 L 217 370 L 218 372 L 218 377 L 213 383 L 209 391 L 209 398 L 212 403 L 205 417 L 205 420 L 204 421 L 204 429 L 205 432 L 208 435 L 208 439 L 206 443 L 206 448 L 205 449 L 205 457 L 206 458 L 206 461 L 210 468 L 210 477 L 211 478 L 211 481 L 215 488 L 219 492 L 217 502 L 210 519 L 210 525 L 212 527 L 212 531 L 209 538 L 209 545 L 213 551 L 210 558 L 209 569 L 211 574 L 215 578 L 215 589 L 216 590 L 216 594 L 217 595 L 218 605 L 219 606 L 219 610 L 220 611 L 221 618 L 217 621 L 211 622 L 198 630 L 192 638 L 188 648 L 188 662 L 190 667 L 196 674 L 204 678 L 210 679 L 211 680 L 215 680 L 220 682 L 237 683 L 238 684 L 273 684 L 274 683 L 284 683 L 285 682 L 292 682 L 293 681 L 299 681 L 300 680 L 314 678 L 327 673 L 334 666 L 337 659 L 337 655 L 338 654 L 338 643 L 337 642 L 337 639 L 341 634 L 342 631 L 342 627 L 343 626 L 343 606 L 347 602 L 348 599 L 349 581 L 350 580 L 350 577 L 352 575 L 367 576 L 370 580 L 370 583 L 372 587 L 372 590 L 375 599 L 378 605 L 381 608 L 381 617 L 382 618 L 382 623 L 383 624 L 384 631 L 386 634 L 386 636 L 391 643 L 390 645 L 390 649 L 389 650 L 389 654 L 388 655 L 388 668 L 392 677 L 398 683 L 401 684 L 403 686 L 411 689 L 418 690 L 419 691 L 429 692 L 430 693 L 440 693 L 441 694 L 474 694 L 475 693 L 486 693 L 487 692 L 492 692 L 493 691 L 499 691 L 500 690 L 503 690 L 504 689 L 507 689 L 513 687 L 520 683 L 525 678 L 528 673 L 530 662 L 529 661 L 529 655 L 527 649 L 522 641 L 512 632 L 513 622 L 514 621 L 514 609 L 515 608 L 515 586 L 514 583 L 519 578 L 519 567 L 514 556 L 514 554 L 518 549 L 517 540 L 515 534 L 513 532 L 513 530 L 516 524 L 516 520 L 514 514 L 516 512 L 520 514 L 533 514 L 536 516 L 547 516 L 548 515 L 551 515 L 569 507 L 575 503 L 582 496 L 590 482 L 592 476 L 592 473 L 593 472 L 593 468 L 594 467 L 594 445 L 593 443 L 595 440 L 595 427 L 594 426 L 594 423 L 591 414 L 589 411 L 591 408 L 592 402 L 586 388 L 583 385 L 584 375 L 579 365 L 573 358 L 573 356 L 576 352 L 576 349 L 574 344 L 556 325 L 558 318 L 555 312 L 537 296 L 538 294 L 538 289 L 537 287 L 533 283 L 528 281 L 526 279 L 526 274 L 524 271 L 516 264 L 513 263 L 511 261 L 512 256 L 510 252 L 504 247 L 489 240 L 487 238 L 487 233 L 486 231 L 479 223 L 479 221 L 483 215 L 485 208 L 492 200 L 494 187 L 498 183 L 501 176 L 501 170 L 498 161 L 502 157 L 503 149 L 502 148 L 502 145 L 497 137 L 497 134 L 500 130 L 500 123 L 497 118 L 488 111 L 487 103 L 472 78 L 472 76 L 477 71 L 482 63 L 484 57 L 484 54 L 485 53 L 485 43 L 484 42 L 483 34 L 477 23 L 468 14 L 462 10 L 458 9 Z M 454 7 L 466 13 L 477 24 L 482 33 L 483 39 L 484 40 L 485 51 L 484 52 L 483 59 L 479 67 L 471 76 L 471 78 L 475 83 L 485 102 L 487 104 L 488 112 L 494 116 L 498 120 L 500 124 L 500 129 L 496 134 L 496 137 L 499 140 L 503 150 L 502 156 L 498 160 L 498 163 L 500 167 L 500 178 L 497 183 L 493 187 L 493 195 L 489 203 L 485 207 L 484 211 L 478 223 L 485 231 L 488 240 L 501 246 L 510 253 L 511 255 L 510 261 L 520 268 L 525 273 L 525 278 L 537 288 L 538 290 L 537 297 L 548 306 L 557 316 L 557 321 L 555 323 L 555 325 L 574 345 L 575 347 L 575 353 L 572 357 L 581 369 L 584 376 L 584 379 L 582 382 L 582 384 L 587 391 L 591 400 L 591 406 L 589 409 L 589 412 L 592 418 L 592 421 L 595 430 L 595 439 L 593 442 L 593 447 L 594 448 L 594 464 L 593 465 L 593 470 L 590 478 L 590 481 L 582 495 L 570 506 L 555 513 L 549 515 L 546 515 L 545 516 L 539 516 L 538 515 L 535 515 L 532 513 L 522 514 L 515 511 L 513 512 L 515 518 L 515 526 L 512 531 L 515 536 L 517 542 L 517 549 L 513 555 L 516 560 L 519 569 L 519 576 L 514 582 L 514 615 L 513 616 L 513 624 L 512 625 L 511 633 L 516 636 L 523 643 L 527 650 L 528 656 L 529 657 L 529 668 L 527 674 L 520 682 L 514 686 L 508 688 L 505 688 L 504 689 L 501 689 L 500 690 L 497 690 L 496 691 L 480 692 L 479 693 L 435 693 L 434 692 L 428 692 L 427 691 L 421 691 L 420 690 L 413 689 L 399 683 L 392 676 L 389 670 L 388 659 L 389 658 L 389 651 L 391 646 L 391 642 L 386 635 L 383 626 L 381 607 L 378 604 L 374 595 L 374 592 L 372 588 L 370 578 L 368 575 L 354 575 L 351 574 L 349 580 L 347 601 L 342 607 L 342 630 L 341 633 L 337 638 L 337 657 L 334 665 L 326 673 L 316 677 L 303 679 L 302 680 L 290 681 L 289 682 L 280 682 L 279 683 L 262 683 L 261 684 L 231 683 L 230 682 L 224 682 L 223 681 L 218 681 L 217 680 L 213 680 L 212 679 L 205 678 L 197 674 L 192 669 L 188 660 L 188 651 L 189 650 L 189 646 L 194 636 L 203 627 L 210 623 L 213 623 L 221 620 L 221 613 L 219 608 L 219 603 L 218 602 L 217 593 L 215 587 L 215 577 L 210 572 L 209 569 L 209 564 L 213 552 L 213 549 L 210 546 L 209 543 L 209 539 L 213 530 L 210 521 L 213 512 L 215 509 L 220 492 L 214 486 L 211 480 L 211 477 L 210 476 L 210 466 L 206 460 L 206 456 L 205 455 L 206 444 L 209 435 L 205 431 L 204 428 L 205 417 L 212 404 L 212 401 L 209 397 L 209 392 L 211 387 L 219 376 L 218 373 L 218 366 L 221 358 L 219 356 L 216 355 L 203 355 L 193 351 L 179 350 L 173 347 L 170 344 L 170 342 L 168 340 L 155 338 L 149 335 L 141 327 L 138 322 L 130 318 L 125 317 L 110 308 L 80 277 L 76 275 L 69 274 L 63 271 L 61 271 L 39 260 L 32 253 L 27 245 L 26 240 L 27 239 L 27 235 L 30 231 L 30 225 L 25 220 L 22 215 L 22 204 L 24 200 L 27 197 L 34 194 L 34 191 L 32 189 L 32 177 L 33 174 L 41 164 L 45 162 L 56 161 L 60 157 L 61 154 L 67 150 L 78 150 L 86 153 L 94 159 L 97 159 L 106 153 L 109 153 L 110 152 L 117 153 L 123 156 L 128 161 L 134 170 L 139 184 L 139 191 L 143 196 L 156 202 L 159 205 L 172 212 L 175 212 L 180 209 L 182 209 L 186 213 L 188 217 L 194 221 L 207 220 L 219 227 L 222 227 L 226 225 L 232 225 L 240 229 L 247 229 L 249 227 L 249 224 L 247 222 L 239 220 L 236 217 L 234 213 L 233 206 L 232 205 L 232 201 L 225 193 L 225 189 L 224 188 L 225 179 L 220 173 L 220 165 L 224 158 L 218 152 L 218 145 L 220 141 L 228 133 L 228 121 L 231 114 L 235 108 L 233 105 L 230 104 L 221 95 L 215 83 L 215 79 L 214 78 L 215 64 L 218 58 L 218 56 L 222 50 L 236 37 L 246 33 L 255 32 L 256 31 L 258 32 L 265 32 L 276 37 L 282 42 L 286 42 L 288 40 L 305 31 L 312 30 L 313 29 L 318 29 L 319 28 L 318 26 L 319 21 L 323 17 L 326 16 L 334 17 L 342 21 L 345 21 L 349 17 L 354 14 L 362 13 L 368 18 L 369 21 L 371 23 L 386 23 L 387 24 L 392 24 L 393 25 L 402 26 L 409 16 L 412 13 L 420 8 L 429 5 L 436 5 L 437 4 L 447 5 L 448 6 Z" fill="#B1B1B1" fill-rule="evenodd"/><path d="M 70 235 L 69 236 L 69 239 L 71 241 L 72 244 L 77 249 L 81 251 L 84 251 L 84 250 L 81 247 L 78 246 L 76 244 L 73 237 L 71 235 Z M 110 205 L 110 207 L 113 210 L 114 210 L 114 208 Z M 114 174 L 112 177 L 112 179 L 113 180 L 113 185 L 115 185 L 116 184 L 116 177 Z M 274 141 L 273 145 L 272 146 L 272 158 L 273 159 L 273 161 L 280 169 L 287 173 L 291 174 L 293 176 L 293 181 L 294 182 L 294 185 L 301 200 L 306 206 L 306 207 L 312 213 L 312 214 L 321 223 L 326 226 L 328 225 L 321 217 L 318 210 L 319 208 L 319 205 L 322 199 L 325 196 L 325 195 L 334 187 L 345 182 L 357 182 L 364 185 L 369 190 L 370 192 L 370 200 L 369 201 L 368 206 L 362 217 L 363 218 L 365 216 L 371 205 L 371 203 L 374 196 L 374 192 L 375 191 L 375 188 L 376 187 L 376 182 L 377 181 L 377 161 L 376 160 L 376 155 L 375 154 L 375 152 L 372 148 L 371 148 L 369 150 L 368 153 L 359 161 L 353 164 L 351 164 L 350 165 L 348 165 L 341 168 L 330 169 L 329 168 L 318 167 L 317 166 L 313 166 L 312 165 L 306 165 L 301 169 L 295 171 L 294 170 L 289 170 L 288 169 L 286 169 L 279 163 L 276 157 L 276 146 L 277 145 L 277 141 L 276 140 Z M 327 127 L 321 124 L 318 124 L 317 123 L 314 123 L 313 122 L 304 122 L 303 123 L 295 124 L 292 126 L 290 126 L 284 131 L 283 133 L 283 139 L 286 145 L 293 151 L 297 153 L 301 153 L 302 154 L 307 154 L 308 153 L 311 153 L 322 148 L 330 140 L 330 138 L 331 137 L 331 132 Z M 291 101 L 286 101 L 282 106 L 281 112 L 280 113 L 280 118 L 281 119 L 281 121 L 283 123 L 286 123 L 288 122 L 293 116 L 293 113 L 294 112 L 294 107 Z M 372 94 L 369 96 L 366 101 L 365 110 L 366 111 L 366 114 L 367 116 L 371 120 L 377 120 L 381 115 L 381 113 L 382 112 L 382 105 L 381 104 L 381 101 L 378 96 L 375 94 Z M 299 63 L 298 62 L 293 62 L 289 64 L 282 71 L 282 74 L 284 75 L 292 69 L 296 67 L 298 67 L 299 66 Z M 366 54 L 366 56 L 367 57 L 371 57 L 372 58 L 374 58 L 384 64 L 386 63 L 386 59 L 385 57 L 379 53 L 371 51 L 370 52 L 368 52 Z M 454 8 L 448 7 L 447 6 L 437 5 L 436 6 L 429 6 L 428 7 L 420 9 L 412 14 L 402 27 L 399 27 L 398 26 L 393 26 L 392 25 L 387 25 L 386 24 L 371 24 L 368 21 L 367 18 L 362 14 L 357 14 L 356 15 L 354 15 L 349 18 L 345 22 L 342 22 L 334 18 L 326 17 L 325 18 L 323 18 L 320 21 L 319 23 L 319 26 L 320 28 L 318 30 L 313 30 L 312 31 L 308 31 L 307 32 L 305 32 L 295 37 L 293 39 L 288 41 L 286 43 L 282 43 L 276 38 L 268 34 L 266 34 L 265 33 L 258 33 L 256 32 L 255 33 L 250 33 L 249 34 L 246 34 L 245 35 L 243 35 L 236 38 L 234 40 L 233 40 L 223 50 L 223 51 L 219 56 L 219 58 L 216 64 L 216 68 L 215 69 L 215 78 L 216 79 L 216 83 L 222 95 L 230 103 L 233 104 L 236 107 L 234 112 L 232 114 L 229 121 L 229 133 L 221 141 L 219 145 L 219 152 L 225 158 L 221 165 L 221 173 L 226 179 L 226 184 L 225 185 L 226 193 L 227 195 L 233 201 L 234 210 L 237 217 L 239 219 L 247 221 L 250 224 L 250 227 L 247 230 L 240 230 L 232 226 L 226 226 L 222 228 L 219 228 L 207 221 L 199 221 L 198 222 L 194 222 L 190 220 L 182 210 L 180 210 L 175 213 L 172 213 L 166 210 L 164 208 L 159 206 L 156 203 L 143 197 L 138 191 L 138 184 L 137 183 L 137 180 L 136 179 L 136 177 L 133 170 L 131 168 L 127 161 L 123 157 L 117 154 L 114 154 L 113 153 L 106 154 L 102 156 L 97 160 L 94 160 L 84 153 L 82 153 L 78 151 L 67 151 L 63 153 L 61 157 L 56 162 L 45 163 L 41 165 L 34 174 L 34 176 L 33 177 L 33 189 L 35 191 L 35 194 L 33 196 L 31 196 L 27 198 L 25 200 L 23 204 L 23 215 L 26 220 L 31 225 L 31 231 L 28 235 L 28 239 L 27 240 L 28 242 L 28 245 L 33 253 L 39 259 L 61 270 L 63 270 L 69 273 L 76 274 L 80 276 L 110 307 L 111 307 L 116 311 L 119 312 L 121 314 L 125 316 L 130 317 L 133 319 L 135 319 L 137 321 L 138 321 L 140 323 L 142 327 L 149 334 L 155 337 L 163 338 L 164 339 L 168 339 L 171 342 L 171 344 L 173 346 L 179 349 L 183 349 L 184 350 L 193 350 L 194 351 L 196 351 L 203 354 L 216 354 L 217 355 L 219 355 L 222 358 L 220 365 L 219 366 L 219 373 L 220 374 L 220 376 L 212 387 L 211 391 L 210 392 L 210 397 L 213 401 L 213 404 L 210 410 L 208 412 L 208 414 L 206 417 L 206 420 L 205 421 L 205 428 L 206 429 L 206 431 L 210 435 L 210 437 L 207 444 L 207 450 L 206 451 L 207 460 L 211 466 L 211 476 L 212 477 L 212 480 L 215 486 L 221 492 L 221 494 L 220 495 L 216 509 L 214 512 L 214 514 L 212 517 L 212 520 L 211 521 L 211 523 L 212 524 L 212 526 L 214 528 L 214 530 L 212 533 L 212 535 L 210 539 L 210 543 L 211 544 L 211 546 L 214 549 L 214 552 L 213 553 L 212 559 L 211 560 L 211 563 L 210 564 L 210 569 L 211 570 L 211 572 L 216 577 L 216 587 L 217 588 L 218 598 L 219 599 L 219 602 L 220 603 L 220 608 L 221 609 L 221 612 L 222 613 L 222 620 L 220 622 L 217 622 L 213 624 L 210 624 L 206 627 L 203 628 L 195 636 L 194 639 L 192 641 L 192 643 L 190 646 L 190 650 L 189 651 L 189 660 L 193 669 L 197 673 L 205 677 L 208 677 L 209 678 L 212 678 L 213 679 L 217 679 L 218 680 L 223 680 L 224 681 L 230 681 L 231 682 L 250 682 L 251 683 L 261 683 L 262 682 L 279 682 L 280 681 L 289 681 L 290 680 L 302 679 L 303 678 L 307 678 L 308 677 L 316 676 L 317 675 L 319 675 L 326 672 L 333 665 L 335 658 L 336 657 L 336 638 L 340 633 L 340 631 L 341 630 L 341 607 L 346 601 L 346 598 L 347 597 L 347 587 L 348 586 L 348 580 L 349 579 L 349 575 L 351 573 L 353 573 L 354 574 L 368 574 L 371 578 L 371 581 L 373 585 L 373 588 L 375 592 L 375 595 L 377 598 L 377 600 L 379 604 L 382 607 L 382 610 L 383 611 L 383 621 L 384 622 L 384 626 L 385 627 L 387 635 L 392 642 L 392 646 L 391 647 L 391 650 L 390 651 L 390 658 L 389 659 L 389 666 L 390 667 L 390 670 L 393 676 L 399 682 L 413 688 L 416 688 L 417 689 L 420 689 L 421 690 L 434 691 L 435 692 L 479 692 L 480 691 L 496 690 L 497 689 L 500 689 L 501 688 L 504 688 L 505 687 L 508 687 L 509 686 L 514 685 L 516 683 L 520 681 L 526 674 L 526 672 L 528 668 L 528 657 L 527 656 L 526 650 L 522 643 L 516 637 L 515 637 L 510 633 L 511 625 L 512 624 L 512 616 L 513 615 L 513 582 L 518 576 L 518 569 L 517 568 L 515 560 L 512 555 L 512 554 L 516 549 L 516 542 L 515 541 L 514 536 L 511 531 L 514 526 L 514 518 L 513 517 L 513 514 L 512 512 L 514 510 L 522 513 L 532 512 L 535 514 L 538 514 L 539 515 L 545 515 L 546 514 L 549 514 L 550 513 L 555 512 L 560 509 L 562 509 L 570 505 L 573 502 L 574 502 L 584 491 L 589 481 L 589 478 L 591 474 L 591 471 L 592 470 L 592 465 L 593 464 L 593 448 L 592 447 L 592 442 L 594 439 L 594 430 L 593 429 L 591 418 L 588 412 L 588 409 L 590 406 L 590 400 L 586 391 L 581 384 L 581 382 L 583 379 L 583 376 L 580 369 L 571 357 L 571 356 L 574 353 L 574 347 L 573 345 L 571 343 L 571 342 L 554 325 L 554 323 L 556 321 L 556 316 L 548 307 L 547 307 L 536 297 L 536 294 L 537 293 L 537 290 L 536 288 L 532 284 L 529 283 L 524 278 L 524 273 L 520 269 L 519 269 L 515 265 L 512 264 L 509 261 L 509 259 L 510 258 L 510 255 L 509 253 L 501 247 L 488 241 L 486 239 L 486 235 L 484 231 L 478 225 L 477 223 L 483 211 L 484 207 L 488 203 L 491 198 L 491 196 L 492 195 L 492 187 L 496 183 L 499 178 L 499 167 L 497 163 L 497 160 L 501 156 L 502 150 L 501 149 L 501 146 L 498 140 L 495 137 L 495 134 L 499 129 L 499 124 L 497 120 L 487 112 L 487 107 L 486 106 L 486 104 L 484 102 L 481 95 L 479 93 L 474 83 L 470 78 L 470 76 L 478 67 L 482 59 L 482 56 L 483 55 L 483 52 L 484 51 L 484 46 L 483 45 L 483 40 L 482 39 L 481 33 L 476 24 L 466 14 Z M 452 14 L 454 16 L 460 19 L 470 29 L 475 39 L 475 42 L 476 43 L 476 51 L 475 52 L 474 58 L 471 64 L 462 73 L 461 73 L 460 75 L 467 85 L 473 97 L 481 108 L 481 109 L 478 112 L 477 112 L 477 113 L 487 119 L 492 124 L 492 127 L 490 129 L 481 129 L 480 130 L 488 138 L 488 139 L 493 145 L 494 149 L 495 150 L 495 151 L 492 154 L 488 153 L 487 152 L 485 153 L 492 167 L 493 174 L 490 177 L 488 177 L 485 174 L 484 175 L 484 177 L 485 178 L 485 194 L 482 197 L 477 196 L 477 204 L 474 210 L 474 212 L 472 214 L 469 220 L 465 224 L 464 227 L 465 228 L 468 228 L 471 231 L 470 232 L 470 234 L 474 235 L 477 238 L 475 240 L 473 240 L 473 241 L 475 243 L 477 243 L 491 250 L 493 250 L 497 252 L 499 254 L 499 255 L 496 258 L 492 258 L 493 260 L 495 260 L 497 262 L 500 263 L 502 265 L 512 271 L 519 277 L 519 278 L 517 280 L 511 280 L 511 281 L 518 286 L 520 286 L 526 289 L 530 293 L 530 294 L 528 296 L 523 296 L 522 297 L 533 304 L 540 310 L 541 310 L 548 317 L 548 318 L 545 321 L 543 320 L 539 320 L 539 321 L 566 347 L 566 349 L 565 350 L 561 350 L 560 349 L 557 349 L 557 350 L 565 360 L 569 367 L 575 374 L 575 376 L 573 378 L 571 377 L 568 377 L 568 378 L 571 381 L 572 384 L 578 392 L 582 400 L 582 402 L 581 403 L 578 403 L 577 404 L 579 407 L 579 409 L 581 413 L 581 416 L 582 417 L 582 420 L 583 421 L 583 423 L 584 424 L 584 426 L 587 434 L 585 436 L 583 436 L 582 437 L 583 439 L 583 442 L 584 443 L 584 464 L 583 465 L 582 474 L 576 488 L 568 497 L 566 498 L 564 498 L 563 497 L 564 489 L 565 488 L 565 485 L 563 484 L 562 485 L 562 487 L 561 488 L 561 490 L 558 497 L 551 504 L 547 506 L 539 506 L 536 503 L 536 501 L 540 494 L 540 491 L 541 490 L 541 486 L 539 485 L 537 488 L 537 490 L 534 496 L 529 502 L 525 504 L 519 504 L 518 503 L 514 502 L 508 496 L 507 494 L 507 492 L 511 487 L 511 485 L 513 482 L 513 479 L 514 478 L 514 471 L 513 470 L 511 471 L 511 473 L 509 476 L 508 480 L 503 485 L 497 485 L 495 483 L 494 483 L 488 476 L 488 474 L 486 470 L 486 459 L 487 458 L 487 455 L 488 454 L 490 446 L 492 443 L 492 437 L 491 436 L 491 432 L 490 431 L 490 427 L 489 426 L 489 422 L 488 421 L 488 417 L 487 416 L 485 405 L 484 404 L 483 398 L 482 397 L 479 386 L 477 383 L 476 378 L 468 362 L 466 360 L 464 355 L 462 353 L 457 345 L 455 346 L 456 351 L 464 366 L 464 368 L 472 384 L 472 386 L 475 393 L 475 396 L 477 400 L 477 403 L 478 404 L 478 407 L 479 408 L 479 412 L 480 413 L 480 416 L 481 417 L 481 420 L 482 421 L 483 430 L 484 431 L 484 434 L 485 435 L 485 442 L 484 443 L 484 445 L 483 446 L 483 448 L 480 455 L 480 460 L 479 461 L 479 469 L 480 470 L 480 475 L 484 484 L 487 487 L 487 488 L 494 493 L 497 493 L 501 496 L 501 498 L 503 502 L 503 505 L 505 509 L 505 514 L 506 515 L 506 518 L 507 519 L 507 521 L 505 523 L 503 523 L 502 522 L 501 524 L 504 530 L 504 532 L 508 539 L 509 545 L 507 547 L 506 547 L 502 544 L 500 544 L 500 546 L 506 557 L 506 559 L 508 562 L 508 564 L 510 567 L 511 571 L 509 573 L 506 572 L 504 570 L 503 571 L 507 579 L 507 581 L 504 584 L 504 586 L 505 587 L 505 594 L 506 595 L 506 599 L 505 600 L 505 615 L 504 616 L 504 622 L 503 623 L 502 632 L 499 635 L 499 637 L 504 640 L 506 640 L 515 648 L 519 656 L 519 661 L 520 662 L 519 670 L 514 677 L 513 677 L 511 679 L 506 680 L 504 678 L 504 676 L 505 675 L 505 669 L 504 668 L 504 665 L 503 663 L 499 659 L 498 659 L 497 660 L 497 664 L 498 665 L 498 669 L 499 670 L 499 677 L 498 679 L 493 683 L 489 683 L 488 684 L 480 684 L 478 682 L 478 668 L 477 667 L 477 665 L 475 662 L 472 662 L 471 663 L 472 682 L 469 685 L 448 685 L 446 683 L 446 668 L 445 667 L 445 664 L 444 663 L 441 663 L 439 667 L 440 683 L 438 685 L 434 685 L 433 684 L 426 684 L 425 683 L 420 683 L 419 682 L 416 682 L 415 681 L 412 681 L 409 679 L 407 679 L 399 672 L 397 668 L 397 653 L 398 652 L 398 649 L 399 648 L 399 633 L 394 634 L 392 631 L 392 615 L 388 612 L 388 597 L 385 598 L 383 596 L 383 593 L 381 589 L 381 585 L 378 579 L 378 577 L 376 575 L 376 572 L 378 570 L 381 569 L 383 567 L 383 565 L 382 564 L 376 564 L 375 565 L 371 565 L 370 566 L 362 566 L 361 567 L 356 567 L 355 566 L 348 566 L 347 565 L 342 565 L 341 564 L 331 563 L 330 562 L 323 561 L 322 560 L 316 559 L 315 558 L 312 558 L 311 560 L 316 564 L 318 564 L 321 566 L 323 566 L 329 569 L 332 569 L 333 570 L 339 571 L 341 573 L 340 582 L 338 586 L 339 598 L 337 600 L 335 600 L 333 598 L 332 599 L 332 602 L 333 603 L 333 630 L 330 633 L 327 631 L 326 632 L 327 633 L 327 639 L 328 640 L 328 656 L 325 663 L 321 667 L 317 669 L 311 670 L 310 671 L 306 671 L 305 672 L 300 672 L 299 673 L 284 674 L 283 675 L 276 675 L 275 676 L 241 676 L 239 674 L 239 672 L 238 671 L 238 668 L 239 667 L 239 661 L 241 657 L 241 654 L 240 653 L 238 653 L 234 658 L 234 660 L 233 661 L 233 673 L 231 675 L 229 674 L 222 674 L 221 673 L 218 673 L 214 670 L 214 659 L 217 652 L 217 650 L 216 649 L 214 649 L 211 652 L 209 656 L 209 668 L 207 670 L 205 670 L 199 665 L 199 663 L 197 659 L 198 649 L 199 648 L 200 643 L 202 641 L 202 640 L 209 633 L 215 630 L 218 630 L 219 629 L 222 629 L 223 628 L 229 628 L 230 627 L 234 627 L 235 626 L 232 621 L 231 615 L 230 614 L 230 611 L 229 610 L 228 600 L 226 596 L 226 587 L 222 584 L 222 580 L 223 579 L 223 576 L 224 575 L 224 572 L 225 571 L 223 570 L 219 572 L 217 570 L 217 568 L 218 567 L 218 562 L 221 555 L 222 548 L 224 545 L 224 542 L 219 544 L 217 542 L 217 539 L 220 534 L 220 532 L 224 524 L 223 523 L 220 524 L 218 522 L 218 519 L 224 509 L 225 503 L 227 501 L 229 501 L 231 503 L 232 501 L 225 484 L 225 479 L 223 478 L 221 480 L 218 477 L 218 461 L 219 460 L 219 455 L 218 455 L 215 458 L 213 456 L 213 448 L 214 447 L 214 443 L 215 442 L 216 435 L 217 434 L 217 432 L 220 425 L 218 425 L 214 427 L 211 424 L 211 423 L 212 422 L 213 417 L 215 415 L 220 404 L 222 402 L 223 399 L 226 395 L 225 394 L 221 396 L 218 396 L 216 394 L 216 393 L 221 385 L 232 372 L 232 371 L 226 371 L 224 369 L 226 364 L 232 357 L 235 351 L 235 346 L 236 345 L 236 343 L 237 342 L 237 340 L 238 339 L 238 337 L 239 336 L 239 334 L 242 327 L 242 324 L 241 323 L 238 323 L 236 325 L 236 327 L 231 337 L 229 344 L 225 349 L 222 349 L 221 348 L 207 348 L 204 345 L 204 343 L 203 342 L 190 342 L 189 341 L 184 341 L 180 337 L 180 335 L 179 334 L 176 334 L 175 333 L 169 333 L 168 332 L 164 332 L 163 331 L 160 331 L 159 330 L 154 329 L 151 326 L 151 325 L 156 321 L 153 318 L 149 317 L 144 314 L 138 313 L 132 310 L 130 310 L 127 308 L 125 308 L 117 303 L 106 293 L 106 292 L 100 286 L 97 281 L 89 273 L 79 268 L 72 266 L 67 263 L 64 263 L 59 260 L 57 260 L 41 252 L 36 246 L 36 243 L 35 242 L 35 234 L 37 232 L 41 230 L 43 230 L 45 228 L 45 226 L 38 219 L 35 212 L 31 207 L 31 203 L 33 201 L 36 201 L 37 200 L 48 201 L 53 204 L 54 202 L 51 199 L 50 199 L 47 196 L 47 195 L 45 194 L 45 193 L 41 188 L 39 184 L 40 177 L 41 175 L 46 171 L 54 171 L 55 172 L 59 172 L 70 180 L 72 180 L 72 178 L 67 169 L 66 163 L 69 160 L 73 158 L 77 158 L 78 159 L 80 159 L 84 161 L 86 163 L 89 164 L 95 170 L 95 171 L 100 175 L 102 173 L 102 169 L 105 163 L 108 160 L 115 160 L 117 161 L 124 168 L 130 178 L 131 184 L 132 185 L 132 189 L 133 190 L 133 199 L 139 202 L 141 204 L 150 208 L 163 218 L 164 218 L 168 222 L 172 223 L 172 217 L 174 215 L 176 215 L 196 233 L 198 233 L 199 232 L 199 230 L 202 227 L 204 227 L 207 230 L 211 232 L 217 239 L 219 239 L 220 238 L 221 234 L 224 231 L 225 231 L 235 241 L 239 243 L 241 243 L 241 237 L 243 235 L 245 235 L 249 239 L 250 239 L 255 243 L 257 243 L 258 242 L 258 239 L 261 236 L 262 236 L 268 242 L 268 243 L 271 246 L 272 246 L 274 244 L 272 239 L 265 231 L 265 230 L 263 228 L 262 228 L 262 229 L 259 232 L 255 227 L 253 223 L 252 215 L 251 214 L 248 217 L 247 217 L 243 213 L 241 209 L 241 206 L 240 205 L 240 194 L 239 193 L 238 194 L 234 194 L 232 192 L 232 190 L 231 189 L 231 185 L 232 184 L 232 180 L 233 179 L 234 172 L 233 171 L 231 173 L 229 173 L 227 171 L 227 165 L 234 152 L 233 151 L 227 152 L 225 150 L 225 146 L 230 140 L 230 139 L 237 132 L 236 128 L 235 127 L 236 125 L 236 121 L 244 105 L 244 102 L 235 97 L 227 89 L 225 85 L 224 79 L 223 78 L 223 69 L 224 68 L 224 64 L 225 63 L 225 61 L 228 55 L 238 45 L 239 45 L 241 43 L 243 43 L 248 40 L 251 40 L 252 39 L 262 39 L 263 40 L 265 40 L 271 43 L 279 51 L 280 53 L 283 53 L 294 45 L 296 45 L 301 42 L 303 42 L 308 36 L 314 36 L 315 35 L 326 35 L 327 33 L 324 28 L 324 25 L 326 23 L 331 23 L 345 30 L 353 22 L 357 20 L 361 20 L 363 22 L 363 24 L 361 27 L 361 31 L 363 30 L 370 30 L 371 29 L 375 29 L 376 30 L 385 30 L 386 31 L 394 32 L 395 33 L 398 33 L 404 36 L 406 36 L 408 34 L 408 31 L 411 26 L 419 18 L 422 17 L 426 14 L 428 14 L 432 12 L 445 12 L 446 13 Z" fill="#010101" fill-rule="evenodd"/></svg>