<svg xmlns="http://www.w3.org/2000/svg" viewBox="0 0 653 704" shape-rendering="geometricPrecision"><title>intro frame 005</title><path d="M 211 648 L 211 650 L 213 651 L 214 650 L 220 650 L 222 651 L 225 654 L 225 659 L 229 661 L 231 661 L 237 654 L 244 653 L 247 656 L 247 662 L 246 663 L 246 668 L 245 669 L 246 673 L 254 673 L 261 677 L 264 677 L 265 676 L 271 677 L 273 675 L 288 674 L 293 671 L 295 672 L 297 671 L 303 671 L 305 669 L 305 664 L 303 661 L 303 659 L 300 658 L 293 650 L 285 646 L 281 646 L 275 643 L 264 643 L 263 642 L 258 642 L 257 641 L 244 641 L 238 639 L 235 641 L 234 640 L 223 640 L 222 641 L 219 641 Z M 244 546 L 235 559 L 234 562 L 234 568 L 232 574 L 228 581 L 228 595 L 229 596 L 229 601 L 230 602 L 231 609 L 233 611 L 233 615 L 235 621 L 238 625 L 240 625 L 242 627 L 253 628 L 263 633 L 285 633 L 288 637 L 296 637 L 300 634 L 300 632 L 302 629 L 302 623 L 303 622 L 301 617 L 301 610 L 300 609 L 300 596 L 304 593 L 305 591 L 302 588 L 300 584 L 294 579 L 293 577 L 293 572 L 289 568 L 268 558 L 265 555 L 259 552 L 255 548 L 253 548 L 250 546 Z M 353 537 L 352 539 L 349 541 L 348 543 L 349 544 L 353 541 L 354 539 Z M 429 528 L 422 531 L 412 530 L 411 531 L 411 536 L 408 538 L 403 545 L 398 550 L 396 550 L 391 556 L 390 561 L 385 567 L 385 569 L 381 573 L 377 582 L 377 594 L 376 595 L 377 598 L 377 605 L 382 613 L 385 613 L 389 617 L 394 617 L 396 620 L 398 620 L 400 617 L 422 617 L 424 619 L 423 621 L 424 622 L 437 622 L 438 619 L 445 618 L 446 615 L 448 613 L 454 613 L 456 609 L 455 608 L 455 605 L 448 606 L 444 601 L 444 592 L 447 587 L 447 584 L 448 583 L 447 578 L 448 577 L 451 579 L 450 574 L 452 572 L 452 555 L 445 542 L 440 542 L 438 540 L 439 536 L 436 531 L 432 532 Z M 377 491 L 379 495 L 379 504 L 380 505 L 385 505 L 386 504 L 386 499 L 388 497 L 391 499 L 391 505 L 392 506 L 395 504 L 395 500 L 393 498 L 389 490 L 378 490 Z M 383 409 L 389 409 L 393 407 L 393 406 L 385 406 L 383 407 Z M 352 342 L 350 346 L 350 352 L 351 353 L 357 353 L 358 351 L 356 348 L 356 345 Z M 274 199 L 275 202 L 274 207 L 281 216 L 288 217 L 293 213 L 290 208 L 288 208 L 281 204 L 278 204 L 277 203 L 277 200 Z M 90 196 L 89 197 L 90 199 L 90 205 L 88 209 L 84 213 L 82 213 L 79 215 L 84 221 L 87 219 L 91 210 L 91 208 L 94 204 L 99 200 L 103 195 L 113 190 L 124 190 L 125 191 L 128 191 L 130 193 L 133 193 L 143 204 L 143 206 L 145 209 L 145 221 L 142 226 L 133 234 L 127 237 L 122 241 L 104 250 L 97 249 L 94 247 L 87 239 L 84 232 L 81 234 L 75 235 L 74 236 L 76 239 L 83 245 L 88 247 L 96 253 L 109 269 L 111 273 L 118 278 L 118 280 L 121 284 L 138 300 L 141 299 L 143 301 L 143 305 L 147 309 L 155 313 L 159 317 L 164 319 L 167 322 L 171 323 L 173 325 L 175 325 L 181 328 L 189 328 L 190 329 L 193 329 L 194 328 L 194 323 L 190 320 L 190 299 L 192 297 L 197 297 L 200 293 L 202 293 L 205 296 L 205 300 L 208 301 L 210 303 L 208 306 L 205 307 L 205 313 L 207 316 L 207 320 L 206 321 L 208 322 L 209 324 L 213 324 L 215 326 L 215 331 L 213 333 L 204 334 L 202 337 L 200 338 L 200 340 L 205 345 L 227 345 L 229 348 L 220 356 L 219 358 L 220 359 L 234 360 L 236 358 L 238 358 L 241 355 L 245 348 L 246 340 L 247 339 L 247 332 L 250 328 L 250 325 L 252 322 L 253 316 L 258 308 L 258 305 L 261 302 L 259 299 L 258 294 L 254 292 L 252 290 L 252 288 L 249 290 L 245 290 L 237 281 L 235 277 L 233 277 L 228 281 L 226 279 L 218 263 L 216 264 L 215 268 L 213 270 L 211 270 L 202 259 L 197 249 L 197 247 L 195 245 L 193 245 L 189 249 L 178 237 L 168 223 L 158 213 L 157 207 L 159 203 L 159 198 L 160 197 L 158 195 L 152 202 L 150 203 L 145 202 L 138 195 L 138 185 L 137 184 L 133 184 L 130 187 L 127 188 L 122 187 L 120 185 L 110 186 L 103 192 L 97 195 L 93 195 L 91 197 Z M 180 313 L 183 315 L 183 320 L 182 321 L 180 320 L 178 316 Z M 438 76 L 436 77 L 434 76 L 425 77 L 423 79 L 421 79 L 415 82 L 409 88 L 408 93 L 405 97 L 396 96 L 391 94 L 386 94 L 382 92 L 379 92 L 378 93 L 375 93 L 374 92 L 358 93 L 355 90 L 356 85 L 355 83 L 353 82 L 344 92 L 342 92 L 339 89 L 335 88 L 332 86 L 328 86 L 327 87 L 327 92 L 323 95 L 318 95 L 317 96 L 309 96 L 303 101 L 296 103 L 294 105 L 291 105 L 289 107 L 289 111 L 295 116 L 295 122 L 291 126 L 283 130 L 278 134 L 277 134 L 273 129 L 273 122 L 276 119 L 276 117 L 274 115 L 274 112 L 266 103 L 262 101 L 254 100 L 249 102 L 245 102 L 237 106 L 229 114 L 229 117 L 227 119 L 227 122 L 226 123 L 226 133 L 227 136 L 229 138 L 233 146 L 238 150 L 244 152 L 246 154 L 246 159 L 242 165 L 241 171 L 237 179 L 237 190 L 229 195 L 229 198 L 231 198 L 235 202 L 232 208 L 232 210 L 229 214 L 229 217 L 234 217 L 236 219 L 236 223 L 234 227 L 234 235 L 235 236 L 238 236 L 241 239 L 242 242 L 242 250 L 241 252 L 244 255 L 248 255 L 252 259 L 253 262 L 255 264 L 255 266 L 260 268 L 264 274 L 275 278 L 284 285 L 292 293 L 295 298 L 295 302 L 292 306 L 289 304 L 287 304 L 283 301 L 281 301 L 279 299 L 277 299 L 275 301 L 275 304 L 267 311 L 267 314 L 264 318 L 265 321 L 263 327 L 259 330 L 259 335 L 258 336 L 259 341 L 258 343 L 256 344 L 254 348 L 253 357 L 251 359 L 251 362 L 249 366 L 249 373 L 248 376 L 249 376 L 251 373 L 261 372 L 263 374 L 263 381 L 259 387 L 259 389 L 254 394 L 252 394 L 244 400 L 240 405 L 241 408 L 243 410 L 239 418 L 233 425 L 233 427 L 237 430 L 236 432 L 236 436 L 231 444 L 226 449 L 224 455 L 229 453 L 233 456 L 233 461 L 230 465 L 229 473 L 227 476 L 228 477 L 230 476 L 235 476 L 237 478 L 236 493 L 240 496 L 240 500 L 242 505 L 242 516 L 243 517 L 243 521 L 244 522 L 248 522 L 254 527 L 261 528 L 262 529 L 261 530 L 265 534 L 267 533 L 266 532 L 266 520 L 265 521 L 259 514 L 258 503 L 257 502 L 257 496 L 260 493 L 260 491 L 262 489 L 267 493 L 267 507 L 268 508 L 268 517 L 267 518 L 269 521 L 269 534 L 270 536 L 272 537 L 275 537 L 276 538 L 277 537 L 277 530 L 274 525 L 274 514 L 276 508 L 279 505 L 279 502 L 281 500 L 284 500 L 286 503 L 286 509 L 284 515 L 284 529 L 285 530 L 285 534 L 287 540 L 293 547 L 295 551 L 296 551 L 296 547 L 297 546 L 300 547 L 303 545 L 305 545 L 310 537 L 314 533 L 316 536 L 319 536 L 320 537 L 327 536 L 330 540 L 334 542 L 335 539 L 338 537 L 347 527 L 347 525 L 351 517 L 357 510 L 357 508 L 360 505 L 365 505 L 366 504 L 364 502 L 361 502 L 360 501 L 355 504 L 346 504 L 339 510 L 335 511 L 333 509 L 334 507 L 330 504 L 330 502 L 324 502 L 322 500 L 324 496 L 324 493 L 331 485 L 337 485 L 339 487 L 339 489 L 332 496 L 332 498 L 333 498 L 334 495 L 337 493 L 340 489 L 343 489 L 343 485 L 346 481 L 346 479 L 348 477 L 351 477 L 352 474 L 354 474 L 356 477 L 359 477 L 360 476 L 363 477 L 367 474 L 367 466 L 368 465 L 368 458 L 369 455 L 374 450 L 381 450 L 383 445 L 383 437 L 379 433 L 379 429 L 377 426 L 372 422 L 372 419 L 373 418 L 366 419 L 367 429 L 371 429 L 373 432 L 371 435 L 371 441 L 370 442 L 362 442 L 361 443 L 361 448 L 359 451 L 359 456 L 355 460 L 353 459 L 348 459 L 347 460 L 348 463 L 342 468 L 336 468 L 334 466 L 330 466 L 328 462 L 327 463 L 327 468 L 325 470 L 322 468 L 324 464 L 320 459 L 321 458 L 325 459 L 326 458 L 326 455 L 328 453 L 330 453 L 333 449 L 337 449 L 340 445 L 341 445 L 344 449 L 353 449 L 357 445 L 355 441 L 355 438 L 352 434 L 352 425 L 351 423 L 349 422 L 351 419 L 351 416 L 348 413 L 348 411 L 350 409 L 353 409 L 354 408 L 354 405 L 356 403 L 364 400 L 364 395 L 362 392 L 364 389 L 372 389 L 373 388 L 372 386 L 364 386 L 360 380 L 360 375 L 353 370 L 349 370 L 348 371 L 343 371 L 342 370 L 339 374 L 336 374 L 334 372 L 334 366 L 338 359 L 334 356 L 334 351 L 333 350 L 329 350 L 328 351 L 328 353 L 321 359 L 322 360 L 321 363 L 313 364 L 303 373 L 301 374 L 296 374 L 293 376 L 290 376 L 289 377 L 289 381 L 291 381 L 293 379 L 296 379 L 297 378 L 298 379 L 298 388 L 301 389 L 303 385 L 305 384 L 310 378 L 310 375 L 311 374 L 318 373 L 318 371 L 320 369 L 325 367 L 327 369 L 326 376 L 329 377 L 331 379 L 331 393 L 335 395 L 338 386 L 341 385 L 343 388 L 351 395 L 351 400 L 349 402 L 342 402 L 341 403 L 341 406 L 339 409 L 339 420 L 335 423 L 334 429 L 330 434 L 330 440 L 329 441 L 324 442 L 322 440 L 322 435 L 324 432 L 324 427 L 325 425 L 328 422 L 330 422 L 333 420 L 333 413 L 330 409 L 330 403 L 328 402 L 327 404 L 324 406 L 320 400 L 320 395 L 319 394 L 316 394 L 312 397 L 310 400 L 308 399 L 308 396 L 303 399 L 299 399 L 297 397 L 297 395 L 293 391 L 285 391 L 280 387 L 280 384 L 282 382 L 284 383 L 287 382 L 284 382 L 281 379 L 280 375 L 278 372 L 278 365 L 282 361 L 284 361 L 286 359 L 289 359 L 292 362 L 291 368 L 293 369 L 294 366 L 296 364 L 298 364 L 302 361 L 304 355 L 309 349 L 313 347 L 314 348 L 317 348 L 322 344 L 322 339 L 325 337 L 328 333 L 333 333 L 336 330 L 338 330 L 340 328 L 334 323 L 326 320 L 311 307 L 310 305 L 310 300 L 313 297 L 321 297 L 322 298 L 329 298 L 330 299 L 336 299 L 337 300 L 344 300 L 345 299 L 368 296 L 377 293 L 382 290 L 386 290 L 387 289 L 390 290 L 392 292 L 392 296 L 382 309 L 382 317 L 384 322 L 383 330 L 386 329 L 390 333 L 388 335 L 385 336 L 385 339 L 383 340 L 380 344 L 380 348 L 378 350 L 375 351 L 373 355 L 373 360 L 374 361 L 379 361 L 381 363 L 381 365 L 385 365 L 387 361 L 387 354 L 388 353 L 388 347 L 389 346 L 393 348 L 394 347 L 398 350 L 401 350 L 402 348 L 405 346 L 408 349 L 410 349 L 418 357 L 419 359 L 419 363 L 421 363 L 424 359 L 427 359 L 432 362 L 437 361 L 439 363 L 442 362 L 443 363 L 446 363 L 448 365 L 451 373 L 450 381 L 445 388 L 445 390 L 443 393 L 443 396 L 439 402 L 436 411 L 430 416 L 428 420 L 423 425 L 414 430 L 409 435 L 409 438 L 413 441 L 421 441 L 422 442 L 421 448 L 419 451 L 417 458 L 415 460 L 415 466 L 419 470 L 425 470 L 428 469 L 430 467 L 439 467 L 441 469 L 441 475 L 440 476 L 440 484 L 441 485 L 450 485 L 451 481 L 453 479 L 456 478 L 460 474 L 463 474 L 464 473 L 467 473 L 470 476 L 468 478 L 468 480 L 471 482 L 473 481 L 481 481 L 485 477 L 485 475 L 487 472 L 486 469 L 486 459 L 498 450 L 503 450 L 503 447 L 506 443 L 511 443 L 514 440 L 514 433 L 516 430 L 521 426 L 523 422 L 522 391 L 523 389 L 525 388 L 528 382 L 527 379 L 530 377 L 530 361 L 528 358 L 528 354 L 515 340 L 514 337 L 512 335 L 512 333 L 507 326 L 498 321 L 492 320 L 483 315 L 481 313 L 482 309 L 478 305 L 474 303 L 471 303 L 463 299 L 459 295 L 455 293 L 442 292 L 430 298 L 421 298 L 418 300 L 416 300 L 414 303 L 411 305 L 408 305 L 404 302 L 403 305 L 400 308 L 400 312 L 398 314 L 396 314 L 392 309 L 392 305 L 394 304 L 397 298 L 398 293 L 401 288 L 404 285 L 406 285 L 409 281 L 413 279 L 414 275 L 416 273 L 418 273 L 420 269 L 425 265 L 425 262 L 428 258 L 428 255 L 429 254 L 432 254 L 433 251 L 437 248 L 438 245 L 438 238 L 443 234 L 447 226 L 446 219 L 448 216 L 448 207 L 450 205 L 451 206 L 462 207 L 462 206 L 459 206 L 458 205 L 458 203 L 460 201 L 462 201 L 466 204 L 469 204 L 473 201 L 476 197 L 472 190 L 465 184 L 470 178 L 473 177 L 461 167 L 461 161 L 459 159 L 459 150 L 455 142 L 450 136 L 447 135 L 444 131 L 444 129 L 449 124 L 454 123 L 455 121 L 459 118 L 460 115 L 462 113 L 462 110 L 463 109 L 463 101 L 457 88 L 448 80 L 446 80 Z M 259 467 L 261 469 L 261 473 L 259 477 L 259 480 L 256 489 L 253 490 L 251 488 L 251 485 L 250 484 L 251 477 L 253 472 Z M 260 431 L 263 434 L 259 439 L 259 442 L 257 445 L 257 447 L 255 449 L 258 450 L 260 452 L 260 454 L 257 457 L 252 469 L 246 474 L 243 470 L 243 467 L 248 456 L 248 454 L 245 452 L 245 447 L 253 435 L 258 431 Z M 317 401 L 319 403 L 319 408 L 321 411 L 319 416 L 313 420 L 310 418 L 307 422 L 303 421 L 302 420 L 302 415 L 304 413 L 304 411 L 306 409 L 309 409 L 310 407 L 313 405 L 316 401 Z M 298 400 L 298 401 L 281 417 L 279 417 L 276 420 L 272 417 L 272 411 L 274 409 L 279 408 L 282 404 L 288 401 L 293 401 L 296 398 Z M 336 377 L 339 379 L 339 385 L 338 386 L 336 386 L 334 384 L 334 379 Z M 384 346 L 386 345 L 387 348 L 385 349 Z M 374 182 L 377 176 L 380 173 L 387 169 L 402 169 L 403 170 L 411 171 L 419 175 L 424 181 L 426 185 L 426 188 L 424 193 L 420 197 L 416 199 L 412 199 L 410 201 L 408 200 L 394 200 L 382 195 L 375 188 Z M 279 149 L 284 149 L 289 155 L 289 157 L 291 159 L 291 169 L 293 171 L 295 169 L 296 166 L 301 161 L 304 159 L 307 159 L 308 158 L 324 158 L 330 160 L 334 164 L 334 167 L 330 171 L 327 171 L 326 170 L 318 170 L 317 169 L 314 169 L 310 171 L 312 171 L 316 174 L 318 174 L 324 179 L 326 182 L 326 185 L 327 186 L 326 189 L 327 192 L 318 202 L 315 204 L 308 206 L 305 209 L 309 212 L 316 213 L 317 214 L 322 214 L 323 215 L 340 213 L 342 211 L 351 208 L 355 204 L 357 199 L 361 194 L 364 194 L 369 199 L 372 205 L 372 211 L 373 212 L 372 214 L 372 221 L 373 222 L 373 225 L 372 226 L 372 241 L 370 244 L 370 248 L 368 254 L 361 268 L 354 275 L 341 284 L 338 284 L 337 285 L 326 285 L 315 280 L 302 269 L 301 267 L 299 266 L 298 263 L 294 258 L 294 256 L 290 252 L 290 250 L 286 244 L 286 241 L 284 238 L 284 235 L 282 230 L 279 227 L 271 223 L 266 218 L 261 206 L 259 206 L 254 210 L 248 212 L 241 211 L 237 208 L 237 205 L 235 202 L 235 198 L 237 196 L 237 193 L 243 187 L 252 183 L 262 184 L 266 187 L 269 187 L 270 186 L 273 187 L 274 186 L 275 180 L 271 176 L 270 173 L 270 167 L 271 166 L 272 160 L 276 152 Z M 363 144 L 367 144 L 371 148 L 376 158 L 376 166 L 375 167 L 375 170 L 373 174 L 369 178 L 361 178 L 355 171 L 353 165 L 353 159 L 354 158 L 355 151 L 359 146 Z M 255 112 L 258 113 L 265 119 L 266 124 L 258 133 L 257 137 L 250 145 L 247 146 L 242 144 L 237 139 L 236 136 L 236 124 L 240 117 L 246 112 Z M 358 108 L 363 102 L 370 102 L 372 104 L 376 105 L 383 111 L 384 113 L 384 119 L 381 122 L 375 122 L 369 118 L 367 119 L 359 113 Z M 433 86 L 438 87 L 440 89 L 443 90 L 450 97 L 453 104 L 453 113 L 446 121 L 440 124 L 427 112 L 422 110 L 418 106 L 416 102 L 418 99 L 418 97 L 421 95 L 424 91 L 429 89 Z" fill="#FBFBFB" fill-rule="evenodd"/><path d="M 192 650 L 190 653 L 190 666 L 191 667 L 191 671 L 198 679 L 205 683 L 209 684 L 211 686 L 213 686 L 200 680 L 191 670 L 190 656 Z M 205 655 L 205 666 L 208 669 L 210 664 L 210 659 L 212 655 L 216 651 L 220 651 L 223 654 L 223 660 L 221 666 L 221 672 L 222 673 L 227 673 L 231 671 L 233 661 L 238 655 L 243 654 L 246 657 L 246 662 L 246 656 L 244 654 L 237 655 L 231 662 L 226 661 L 224 659 L 224 654 L 220 651 L 214 651 L 213 652 L 211 651 L 210 648 L 218 641 L 215 642 L 207 650 L 207 652 Z M 351 637 L 351 642 L 349 648 L 351 653 L 350 670 L 347 679 L 343 683 L 349 678 L 349 672 L 351 666 Z M 354 620 L 350 628 L 350 631 L 351 627 L 356 621 L 361 622 L 364 625 L 373 639 L 380 646 L 384 648 L 390 653 L 396 656 L 398 656 L 396 656 L 390 653 L 383 647 L 379 645 L 368 632 L 360 618 L 356 618 Z M 526 552 L 530 561 L 532 563 L 536 571 L 536 573 L 539 578 L 540 583 L 543 589 L 543 592 L 545 596 L 545 599 L 548 608 L 548 623 L 547 624 L 547 627 L 545 633 L 539 641 L 530 649 L 522 652 L 527 651 L 529 649 L 532 648 L 541 639 L 545 633 L 545 631 L 548 626 L 548 620 L 549 619 L 547 603 L 546 602 L 546 599 L 545 598 L 545 595 L 543 591 L 542 585 L 540 582 L 536 570 L 530 561 Z M 242 544 L 240 546 L 239 551 L 232 560 L 232 571 L 230 573 L 230 575 L 227 580 L 226 586 L 225 587 L 225 590 L 226 591 L 226 594 L 229 603 L 229 607 L 233 617 L 233 620 L 235 624 L 238 627 L 251 629 L 262 633 L 253 629 L 247 629 L 238 626 L 233 619 L 232 611 L 230 609 L 230 606 L 228 601 L 228 596 L 227 595 L 227 581 L 231 574 L 233 568 L 233 562 L 234 559 L 240 551 L 241 548 L 244 545 L 250 545 L 253 547 L 255 547 L 259 551 L 265 554 L 268 557 L 289 567 L 294 572 L 294 577 L 295 579 L 301 584 L 303 588 L 306 591 L 306 592 L 301 596 L 301 609 L 302 610 L 302 617 L 304 621 L 303 623 L 303 629 L 301 632 L 301 634 L 296 638 L 288 638 L 285 634 L 264 634 L 267 635 L 270 638 L 268 641 L 264 642 L 275 642 L 281 645 L 285 645 L 293 649 L 300 657 L 302 657 L 304 659 L 304 661 L 306 664 L 306 669 L 303 672 L 297 672 L 296 673 L 293 672 L 288 675 L 273 676 L 271 678 L 268 677 L 261 678 L 254 674 L 246 674 L 244 670 L 244 674 L 247 676 L 250 676 L 251 677 L 264 678 L 265 679 L 293 679 L 295 677 L 301 675 L 306 675 L 307 676 L 305 678 L 305 679 L 307 678 L 318 677 L 324 674 L 324 672 L 332 666 L 332 658 L 330 655 L 330 653 L 329 652 L 323 652 L 321 650 L 319 650 L 314 654 L 311 654 L 307 649 L 306 614 L 312 607 L 312 605 L 316 601 L 316 595 L 308 586 L 307 576 L 292 566 L 290 566 L 266 554 L 253 545 L 250 544 Z M 259 468 L 254 472 L 252 477 L 251 484 L 253 489 L 255 489 L 255 487 L 257 484 L 258 477 L 260 473 L 260 469 Z M 254 477 L 256 476 L 257 479 L 255 480 Z M 534 456 L 534 459 L 529 474 L 527 485 L 520 498 L 520 501 L 516 510 L 515 515 L 510 522 L 511 530 L 522 544 L 523 547 L 521 542 L 517 537 L 517 535 L 515 534 L 511 529 L 510 522 L 516 516 L 516 513 L 518 510 L 519 504 L 521 500 L 521 496 L 524 492 L 528 483 L 528 479 L 530 476 L 530 472 L 531 471 Z M 260 432 L 258 432 L 254 435 L 246 447 L 246 452 L 249 454 L 246 464 L 244 467 L 244 470 L 246 473 L 251 469 L 256 457 L 259 454 L 259 452 L 256 451 L 254 449 L 256 447 L 256 445 L 258 442 L 258 439 L 262 434 Z M 253 456 L 254 457 L 253 461 L 251 465 L 249 466 L 248 465 L 248 462 L 251 457 Z M 254 441 L 255 443 L 254 445 L 251 447 L 250 445 L 251 443 Z M 414 429 L 416 428 L 411 431 L 405 437 L 403 441 L 403 445 L 406 447 L 411 445 L 414 442 L 417 442 L 419 444 L 419 449 L 411 465 L 411 471 L 414 475 L 420 477 L 421 476 L 424 476 L 433 468 L 437 468 L 439 470 L 439 475 L 437 478 L 436 488 L 440 491 L 443 491 L 448 489 L 452 485 L 454 481 L 462 475 L 460 475 L 456 479 L 453 480 L 450 486 L 441 486 L 439 484 L 439 476 L 440 475 L 440 469 L 439 468 L 430 468 L 428 470 L 425 471 L 419 471 L 414 466 L 414 460 L 416 458 L 416 456 L 420 448 L 421 442 L 413 442 L 408 438 L 408 435 Z M 316 402 L 309 410 L 306 410 L 305 411 L 305 413 L 303 415 L 303 420 L 307 421 L 310 417 L 313 419 L 318 416 L 320 411 L 318 408 L 318 403 Z M 296 399 L 293 402 L 288 402 L 282 405 L 279 409 L 274 410 L 273 411 L 273 417 L 276 419 L 279 416 L 281 416 L 286 412 L 288 409 L 297 401 Z M 171 353 L 172 355 L 177 357 L 182 357 L 183 358 L 185 357 L 185 355 L 183 353 L 179 353 L 178 352 Z M 547 350 L 552 356 L 559 370 L 559 387 L 558 388 L 557 394 L 554 399 L 552 411 L 546 423 L 542 437 L 539 442 L 542 437 L 548 419 L 552 413 L 552 410 L 554 405 L 554 400 L 555 397 L 557 395 L 557 392 L 559 390 L 559 368 L 556 362 Z M 180 314 L 179 316 L 181 320 L 182 320 L 182 315 Z M 506 308 L 516 315 L 519 319 L 530 329 L 530 330 L 543 344 L 518 316 Z M 475 303 L 478 304 L 483 309 L 482 312 L 483 314 L 492 319 L 498 320 L 502 322 L 510 328 L 516 340 L 529 354 L 529 358 L 531 361 L 531 377 L 528 379 L 529 382 L 526 388 L 524 389 L 523 391 L 524 422 L 522 426 L 520 427 L 515 433 L 515 440 L 511 444 L 506 444 L 504 447 L 504 450 L 503 451 L 498 451 L 491 457 L 487 459 L 487 469 L 488 472 L 486 475 L 486 477 L 481 482 L 473 482 L 471 483 L 467 480 L 467 478 L 469 476 L 467 474 L 464 474 L 467 477 L 465 487 L 470 489 L 478 489 L 480 487 L 483 486 L 492 477 L 493 477 L 496 474 L 498 468 L 502 463 L 502 461 L 506 452 L 509 449 L 511 449 L 517 443 L 520 442 L 522 439 L 522 429 L 526 423 L 526 412 L 527 411 L 526 408 L 529 404 L 531 404 L 533 406 L 535 405 L 535 390 L 534 389 L 534 384 L 537 381 L 540 381 L 541 382 L 543 381 L 543 377 L 535 361 L 534 356 L 531 352 L 530 352 L 529 350 L 528 350 L 522 344 L 520 340 L 515 334 L 514 331 L 506 324 L 486 315 L 484 313 L 484 308 L 481 305 Z M 103 298 L 111 309 L 130 328 L 131 333 L 135 339 L 142 345 L 139 343 L 133 336 L 130 327 L 114 312 Z M 313 298 L 311 300 L 311 305 L 312 307 L 326 319 L 334 322 L 341 328 L 333 334 L 328 334 L 327 336 L 323 339 L 323 344 L 317 349 L 314 349 L 313 348 L 309 350 L 305 355 L 303 361 L 298 365 L 296 365 L 295 368 L 293 370 L 290 368 L 291 362 L 289 360 L 286 360 L 284 362 L 282 362 L 279 365 L 279 372 L 281 375 L 282 379 L 284 381 L 287 381 L 288 382 L 285 384 L 282 383 L 281 384 L 281 387 L 285 390 L 293 390 L 298 395 L 299 398 L 303 398 L 308 395 L 309 396 L 309 399 L 310 399 L 310 398 L 316 393 L 319 393 L 321 395 L 321 400 L 324 405 L 325 405 L 328 401 L 331 403 L 331 409 L 334 413 L 334 420 L 332 422 L 328 423 L 325 427 L 325 432 L 323 435 L 323 440 L 324 441 L 329 440 L 329 434 L 333 429 L 334 423 L 338 420 L 338 409 L 340 406 L 340 403 L 342 401 L 349 401 L 350 400 L 350 395 L 348 394 L 341 386 L 338 385 L 338 379 L 337 378 L 335 379 L 335 384 L 339 386 L 339 388 L 337 391 L 337 394 L 335 396 L 332 395 L 330 393 L 330 379 L 325 376 L 326 373 L 326 369 L 325 368 L 320 370 L 318 374 L 311 375 L 311 378 L 306 384 L 304 385 L 303 388 L 301 390 L 299 390 L 297 388 L 297 379 L 296 380 L 293 380 L 291 382 L 289 382 L 288 381 L 288 377 L 290 375 L 293 375 L 296 373 L 301 373 L 303 372 L 313 363 L 321 362 L 320 359 L 327 353 L 327 351 L 329 349 L 333 349 L 335 351 L 335 356 L 339 359 L 335 366 L 335 372 L 336 373 L 339 373 L 342 369 L 343 370 L 353 369 L 361 375 L 361 380 L 364 385 L 372 385 L 374 387 L 372 390 L 364 390 L 363 392 L 365 395 L 365 400 L 363 402 L 360 402 L 355 405 L 355 408 L 353 410 L 350 410 L 349 411 L 349 413 L 352 416 L 352 419 L 350 422 L 351 422 L 353 425 L 353 434 L 356 438 L 356 441 L 358 445 L 353 450 L 344 450 L 342 447 L 340 446 L 337 450 L 333 450 L 330 454 L 328 454 L 327 455 L 327 458 L 325 460 L 321 459 L 325 464 L 323 467 L 324 469 L 326 468 L 326 463 L 328 461 L 330 463 L 330 465 L 334 465 L 336 467 L 342 467 L 347 463 L 346 460 L 348 458 L 353 458 L 355 459 L 358 456 L 358 451 L 360 448 L 360 443 L 362 441 L 370 441 L 370 435 L 372 431 L 366 429 L 365 419 L 366 418 L 373 417 L 374 418 L 373 419 L 373 422 L 378 426 L 380 429 L 380 433 L 384 437 L 384 445 L 383 446 L 383 449 L 381 451 L 374 451 L 370 455 L 369 458 L 369 465 L 368 466 L 368 474 L 363 478 L 361 477 L 356 478 L 354 475 L 352 475 L 353 476 L 351 478 L 348 478 L 347 479 L 347 481 L 344 485 L 344 489 L 343 490 L 340 490 L 339 492 L 335 495 L 333 499 L 331 498 L 331 496 L 338 489 L 338 487 L 337 486 L 331 486 L 326 491 L 325 496 L 323 499 L 324 501 L 330 501 L 331 504 L 335 507 L 334 509 L 335 510 L 339 509 L 346 503 L 355 503 L 360 500 L 361 501 L 364 501 L 367 504 L 365 506 L 360 506 L 358 508 L 358 510 L 352 517 L 348 525 L 348 527 L 341 534 L 341 535 L 336 539 L 336 541 L 334 543 L 330 541 L 327 537 L 320 538 L 319 537 L 316 537 L 314 534 L 305 546 L 303 546 L 300 548 L 297 547 L 297 551 L 296 552 L 293 550 L 292 547 L 286 540 L 284 534 L 284 530 L 283 529 L 283 515 L 285 509 L 285 503 L 284 501 L 281 501 L 280 502 L 280 505 L 277 508 L 275 514 L 275 525 L 278 530 L 278 537 L 276 539 L 270 537 L 268 534 L 268 521 L 266 518 L 267 517 L 266 493 L 263 490 L 261 491 L 261 493 L 258 496 L 258 502 L 259 503 L 260 514 L 265 520 L 266 519 L 267 520 L 267 532 L 268 533 L 265 535 L 260 530 L 261 529 L 254 528 L 248 523 L 244 523 L 242 521 L 242 517 L 241 516 L 241 505 L 239 500 L 239 496 L 235 493 L 236 478 L 235 477 L 230 477 L 228 478 L 226 476 L 228 473 L 229 465 L 232 461 L 232 456 L 229 454 L 224 456 L 223 454 L 225 449 L 230 444 L 235 436 L 235 432 L 236 430 L 232 427 L 232 425 L 238 418 L 242 410 L 240 408 L 239 405 L 244 399 L 252 393 L 254 393 L 258 389 L 258 387 L 262 381 L 262 374 L 261 373 L 251 374 L 249 377 L 247 376 L 248 373 L 248 366 L 250 360 L 248 366 L 247 375 L 245 379 L 245 383 L 246 384 L 254 377 L 258 377 L 260 379 L 260 382 L 249 394 L 244 396 L 239 401 L 234 409 L 235 410 L 238 409 L 240 411 L 240 414 L 235 421 L 231 424 L 228 428 L 228 429 L 233 429 L 235 431 L 235 435 L 231 442 L 226 447 L 222 454 L 222 457 L 223 458 L 225 456 L 230 456 L 231 457 L 231 461 L 227 471 L 225 482 L 226 483 L 230 479 L 232 479 L 235 482 L 233 492 L 232 493 L 232 498 L 236 496 L 239 498 L 239 505 L 240 506 L 240 512 L 241 513 L 242 521 L 250 530 L 255 531 L 266 539 L 276 543 L 283 549 L 286 547 L 288 547 L 296 558 L 298 559 L 302 559 L 304 561 L 308 562 L 311 564 L 314 564 L 318 567 L 326 568 L 329 570 L 333 575 L 337 575 L 340 573 L 342 573 L 344 571 L 346 571 L 352 565 L 355 565 L 357 567 L 357 572 L 359 575 L 359 577 L 362 578 L 368 571 L 368 569 L 372 564 L 372 562 L 374 560 L 376 554 L 378 552 L 378 550 L 381 549 L 383 552 L 383 562 L 381 565 L 381 569 L 379 572 L 376 581 L 376 584 L 375 585 L 374 602 L 380 620 L 388 630 L 391 630 L 392 631 L 393 630 L 397 630 L 400 631 L 405 637 L 409 638 L 411 640 L 412 637 L 415 634 L 438 631 L 444 629 L 449 629 L 454 626 L 458 625 L 471 614 L 482 609 L 491 599 L 491 590 L 492 589 L 491 587 L 488 587 L 487 585 L 483 584 L 481 586 L 478 586 L 477 589 L 471 595 L 469 595 L 463 598 L 453 598 L 450 595 L 449 589 L 458 581 L 461 575 L 462 567 L 468 557 L 467 550 L 461 543 L 458 541 L 456 541 L 447 534 L 446 529 L 442 523 L 442 519 L 440 517 L 438 511 L 425 500 L 419 497 L 416 494 L 408 489 L 397 478 L 394 472 L 394 461 L 386 449 L 386 446 L 387 445 L 387 437 L 388 436 L 388 432 L 389 430 L 397 423 L 410 417 L 415 412 L 417 407 L 422 401 L 426 391 L 426 387 L 422 383 L 420 378 L 415 374 L 415 370 L 414 369 L 417 367 L 421 370 L 429 371 L 435 368 L 445 367 L 449 373 L 449 380 L 445 386 L 441 394 L 441 396 L 433 411 L 427 420 L 423 424 L 418 427 L 423 424 L 427 420 L 429 416 L 435 411 L 438 402 L 442 396 L 442 393 L 444 390 L 444 388 L 449 381 L 449 378 L 450 377 L 449 369 L 446 364 L 443 364 L 442 363 L 439 364 L 437 362 L 432 363 L 427 360 L 424 360 L 421 364 L 419 364 L 418 363 L 418 359 L 417 357 L 410 350 L 408 350 L 405 347 L 404 347 L 401 351 L 398 351 L 394 348 L 393 349 L 389 347 L 388 361 L 387 364 L 385 366 L 381 366 L 379 362 L 374 362 L 372 360 L 372 355 L 374 351 L 376 349 L 379 348 L 379 344 L 380 342 L 384 339 L 384 336 L 386 334 L 389 333 L 386 330 L 385 331 L 382 330 L 383 322 L 381 317 L 381 309 L 391 296 L 391 292 L 388 290 L 386 291 L 382 291 L 377 294 L 368 297 L 363 297 L 362 298 L 351 299 L 350 300 L 345 300 L 344 301 L 337 301 L 336 300 L 322 299 L 321 298 Z M 459 602 L 461 603 L 461 606 L 459 607 L 457 604 Z M 358 544 L 359 545 L 358 548 L 355 552 L 351 555 L 350 554 L 350 551 L 356 544 Z M 353 536 L 355 539 L 354 541 L 349 545 L 347 543 Z M 429 527 L 432 531 L 436 530 L 438 532 L 440 536 L 439 540 L 440 541 L 445 541 L 447 543 L 453 555 L 453 572 L 451 574 L 452 579 L 450 580 L 448 578 L 449 583 L 448 584 L 448 587 L 445 592 L 445 601 L 448 605 L 455 604 L 457 609 L 454 614 L 448 614 L 447 617 L 445 619 L 438 620 L 439 621 L 437 623 L 424 623 L 422 621 L 423 620 L 422 618 L 400 618 L 398 621 L 396 621 L 394 618 L 389 618 L 385 614 L 382 614 L 379 611 L 379 609 L 376 605 L 376 598 L 375 595 L 376 594 L 376 582 L 380 573 L 384 569 L 384 567 L 389 561 L 390 556 L 396 549 L 398 549 L 406 539 L 410 536 L 410 531 L 412 529 L 422 530 Z M 263 499 L 265 500 L 265 505 L 264 506 L 262 505 L 262 500 Z M 376 491 L 378 489 L 389 489 L 396 500 L 396 504 L 392 507 L 390 505 L 390 499 L 388 498 L 387 499 L 387 504 L 385 506 L 380 506 L 378 504 L 378 495 Z M 358 416 L 360 415 L 361 418 L 359 419 Z M 382 409 L 382 407 L 385 405 L 393 405 L 394 406 L 393 408 L 389 410 L 383 410 Z M 384 379 L 386 377 L 389 378 L 394 383 L 395 387 L 394 388 L 390 387 Z M 401 358 L 403 358 L 405 360 L 405 362 L 409 367 L 409 369 L 412 372 L 413 374 L 411 376 L 409 373 L 401 366 L 400 364 L 400 359 Z M 406 354 L 410 355 L 413 358 L 413 360 L 415 362 L 415 365 L 414 366 L 411 365 L 405 358 L 405 355 Z M 352 341 L 357 345 L 357 348 L 359 351 L 357 354 L 351 354 L 349 352 L 349 346 L 350 343 Z M 389 294 L 388 298 L 384 303 L 372 314 L 366 318 L 361 323 L 358 323 L 350 327 L 346 327 L 327 318 L 321 314 L 312 305 L 312 301 L 314 299 L 328 300 L 329 301 L 349 301 L 350 300 L 356 300 L 357 299 L 362 299 L 363 298 L 372 297 L 384 292 L 387 292 Z M 47 216 L 47 222 L 49 228 L 56 239 L 57 239 L 58 241 L 78 260 L 84 264 L 88 268 L 89 271 L 88 267 L 67 250 L 54 236 L 49 228 L 47 222 Z M 172 205 L 173 210 L 185 222 L 186 225 L 189 228 L 196 228 L 198 229 L 204 235 L 206 240 L 211 246 L 215 246 L 218 245 L 220 243 L 220 238 L 220 242 L 218 244 L 212 246 L 205 238 L 204 235 L 200 230 L 196 228 L 191 228 L 185 223 L 185 222 L 173 210 L 173 205 Z M 238 193 L 238 196 L 236 198 L 236 202 L 238 205 L 238 208 L 241 210 L 248 211 L 254 209 L 259 205 L 261 205 L 263 207 L 264 212 L 267 218 L 271 222 L 279 226 L 283 230 L 285 235 L 285 238 L 287 241 L 287 244 L 291 250 L 291 252 L 294 255 L 287 243 L 283 229 L 278 225 L 273 223 L 266 216 L 263 209 L 262 200 L 261 200 L 255 207 L 249 210 L 242 209 L 238 205 L 238 196 L 245 188 L 252 185 L 259 185 L 261 186 L 264 190 L 270 188 L 273 191 L 273 199 L 272 200 L 273 209 L 279 216 L 283 218 L 291 217 L 298 212 L 305 212 L 306 213 L 310 213 L 319 216 L 334 216 L 346 212 L 348 210 L 350 210 L 357 203 L 359 199 L 362 196 L 364 196 L 368 200 L 370 205 L 370 209 L 371 210 L 371 236 L 370 237 L 369 247 L 366 256 L 364 259 L 364 261 L 362 263 L 361 266 L 353 274 L 343 281 L 341 281 L 338 283 L 327 283 L 315 278 L 310 274 L 300 264 L 295 257 L 302 268 L 315 279 L 326 284 L 337 284 L 338 283 L 341 283 L 343 281 L 345 281 L 354 274 L 362 265 L 364 259 L 367 254 L 369 248 L 369 244 L 371 241 L 371 226 L 372 225 L 372 222 L 371 221 L 371 214 L 372 213 L 371 211 L 371 205 L 368 199 L 364 195 L 361 195 L 356 204 L 351 209 L 342 212 L 340 214 L 323 216 L 322 215 L 317 215 L 316 214 L 309 213 L 304 209 L 308 205 L 310 205 L 318 201 L 326 192 L 325 190 L 326 186 L 324 194 L 316 202 L 301 208 L 292 208 L 285 205 L 281 202 L 275 194 L 274 187 L 273 188 L 271 187 L 266 188 L 262 185 L 252 184 L 243 188 Z M 273 199 L 276 198 L 278 200 L 278 203 L 281 203 L 288 207 L 290 207 L 294 213 L 288 218 L 281 217 L 273 207 L 274 204 Z M 375 182 L 376 188 L 382 194 L 394 199 L 408 199 L 410 200 L 412 198 L 416 198 L 420 196 L 423 193 L 425 188 L 425 185 L 419 176 L 411 172 L 403 171 L 402 170 L 387 170 L 380 174 L 376 179 Z M 376 180 L 380 175 L 387 171 L 391 171 L 392 170 L 406 171 L 415 174 L 422 180 L 424 184 L 424 190 L 420 195 L 416 197 L 413 197 L 408 199 L 393 198 L 383 194 L 376 187 Z M 87 160 L 86 165 L 88 164 L 93 164 L 99 169 L 106 173 L 106 171 L 104 169 L 103 166 L 96 159 L 90 158 Z M 65 186 L 65 191 L 66 192 L 71 186 L 75 186 L 83 190 L 86 193 L 89 199 L 88 207 L 85 210 L 81 212 L 78 212 L 77 211 L 72 211 L 71 213 L 76 215 L 83 222 L 83 228 L 80 232 L 73 232 L 69 230 L 64 225 L 64 217 L 67 212 L 64 212 L 59 216 L 60 223 L 66 231 L 78 243 L 88 251 L 94 254 L 99 259 L 104 271 L 109 275 L 123 290 L 123 291 L 141 308 L 145 311 L 150 313 L 159 320 L 168 324 L 170 326 L 172 326 L 181 330 L 186 330 L 190 333 L 190 335 L 184 341 L 185 343 L 187 344 L 199 343 L 204 347 L 208 347 L 209 348 L 217 348 L 218 347 L 221 347 L 223 350 L 214 358 L 216 361 L 238 363 L 240 360 L 241 356 L 249 346 L 248 342 L 250 336 L 254 333 L 256 335 L 256 338 L 252 343 L 253 345 L 253 351 L 252 352 L 252 356 L 251 358 L 253 353 L 253 348 L 255 344 L 257 343 L 258 341 L 257 339 L 258 330 L 262 327 L 264 321 L 263 318 L 266 314 L 266 311 L 274 304 L 274 301 L 277 298 L 279 298 L 281 300 L 283 300 L 291 305 L 293 304 L 294 302 L 294 298 L 291 293 L 284 286 L 275 279 L 264 275 L 260 269 L 254 266 L 254 264 L 248 256 L 244 256 L 240 252 L 241 250 L 241 242 L 240 239 L 238 237 L 235 237 L 233 235 L 233 227 L 235 223 L 235 219 L 234 218 L 229 218 L 228 217 L 228 214 L 231 210 L 231 208 L 234 202 L 231 199 L 228 198 L 228 195 L 236 190 L 236 179 L 240 171 L 241 166 L 236 179 L 236 186 L 226 197 L 226 200 L 227 201 L 231 200 L 233 202 L 233 205 L 227 217 L 229 220 L 230 219 L 233 219 L 234 220 L 234 226 L 233 227 L 233 231 L 232 232 L 231 239 L 233 240 L 237 238 L 240 242 L 240 252 L 239 253 L 240 258 L 243 260 L 248 257 L 251 261 L 252 268 L 254 270 L 259 271 L 268 281 L 270 285 L 273 283 L 275 283 L 285 289 L 292 297 L 292 300 L 290 302 L 287 301 L 279 295 L 275 294 L 274 295 L 274 299 L 271 303 L 267 303 L 262 298 L 257 289 L 252 284 L 250 284 L 249 287 L 246 289 L 242 285 L 236 274 L 234 272 L 232 276 L 230 278 L 228 278 L 224 273 L 223 268 L 219 261 L 217 261 L 215 263 L 215 265 L 212 268 L 204 260 L 199 251 L 197 245 L 194 242 L 190 246 L 188 246 L 172 226 L 159 213 L 159 205 L 161 199 L 161 189 L 162 188 L 162 176 L 159 173 L 153 170 L 151 170 L 147 172 L 143 177 L 138 180 L 134 175 L 132 164 L 130 160 L 124 155 L 120 155 L 119 156 L 124 160 L 126 164 L 132 171 L 132 173 L 134 176 L 133 182 L 130 185 L 123 185 L 120 184 L 118 182 L 113 183 L 111 180 L 107 177 L 108 178 L 108 185 L 103 190 L 99 192 L 89 193 L 81 186 L 73 182 L 68 182 Z M 258 322 L 260 325 L 255 329 L 254 326 L 255 324 Z M 262 312 L 263 315 L 261 317 L 259 314 Z M 132 195 L 138 200 L 143 208 L 144 211 L 144 220 L 142 224 L 135 231 L 126 237 L 117 241 L 115 243 L 113 243 L 107 246 L 98 246 L 94 244 L 87 236 L 86 233 L 86 223 L 92 210 L 96 204 L 103 197 L 113 192 L 123 191 Z M 65 187 L 67 184 L 70 185 L 68 188 Z M 90 195 L 91 196 L 93 194 L 97 194 L 103 191 L 110 185 L 120 184 L 122 186 L 127 187 L 130 186 L 133 183 L 137 183 L 139 185 L 139 195 L 145 201 L 148 201 L 149 202 L 152 201 L 158 194 L 161 197 L 160 198 L 160 203 L 158 207 L 159 213 L 169 223 L 179 237 L 189 248 L 193 244 L 195 244 L 198 247 L 198 249 L 203 259 L 211 269 L 213 269 L 215 266 L 215 264 L 218 262 L 221 266 L 228 280 L 233 276 L 235 276 L 237 278 L 238 281 L 245 289 L 249 289 L 252 287 L 253 290 L 259 294 L 260 299 L 262 302 L 259 305 L 259 308 L 254 316 L 254 319 L 251 325 L 251 328 L 248 332 L 248 339 L 247 340 L 246 348 L 242 355 L 238 359 L 236 359 L 234 361 L 220 360 L 218 358 L 219 356 L 228 348 L 227 346 L 205 346 L 199 340 L 199 338 L 201 337 L 204 333 L 208 333 L 214 331 L 214 326 L 213 325 L 209 325 L 208 323 L 205 321 L 206 320 L 206 316 L 204 313 L 204 307 L 206 305 L 208 305 L 209 303 L 206 302 L 204 300 L 204 296 L 202 294 L 200 294 L 197 298 L 192 298 L 191 299 L 191 320 L 195 323 L 195 328 L 193 330 L 190 330 L 189 329 L 181 329 L 175 326 L 173 326 L 171 324 L 169 324 L 164 320 L 159 318 L 155 314 L 147 310 L 142 305 L 142 301 L 141 300 L 138 301 L 120 284 L 117 280 L 117 278 L 113 276 L 110 273 L 108 269 L 96 254 L 88 248 L 83 246 L 75 239 L 73 236 L 75 234 L 78 234 L 84 231 L 86 233 L 88 239 L 94 246 L 97 248 L 104 249 L 122 240 L 127 236 L 133 233 L 141 226 L 144 221 L 144 209 L 142 206 L 142 204 L 133 194 L 130 194 L 128 192 L 125 192 L 124 191 L 113 191 L 103 196 L 101 199 L 95 204 L 92 208 L 92 210 L 88 219 L 84 222 L 82 219 L 78 216 L 78 215 L 82 212 L 84 212 L 87 209 L 89 205 L 89 199 L 88 197 Z M 152 173 L 155 175 L 158 179 L 158 188 L 155 196 L 151 200 L 148 201 L 141 195 L 140 193 L 140 186 L 143 180 L 149 174 Z M 277 152 L 273 160 L 272 166 L 271 167 L 271 173 L 272 176 L 276 180 L 275 185 L 277 180 L 271 173 L 271 167 L 275 156 L 280 151 L 284 151 L 288 155 L 290 161 L 290 166 L 289 167 L 289 170 L 287 173 L 288 174 L 295 173 L 296 172 L 306 172 L 307 173 L 311 173 L 320 177 L 325 182 L 325 184 L 325 182 L 322 178 L 318 175 L 316 175 L 314 173 L 309 171 L 311 169 L 314 168 L 330 170 L 333 167 L 333 164 L 328 160 L 325 160 L 324 159 L 308 159 L 307 160 L 304 160 L 301 162 L 293 172 L 290 169 L 290 159 L 284 150 L 279 150 Z M 299 166 L 304 161 L 307 160 L 324 160 L 329 162 L 332 165 L 330 168 L 324 168 L 320 166 L 311 166 L 306 168 L 301 168 Z M 363 145 L 359 147 L 356 151 L 355 158 L 354 159 L 354 165 L 356 171 L 361 177 L 369 177 L 372 174 L 374 170 L 374 167 L 375 166 L 375 158 L 370 148 L 367 145 Z M 363 145 L 367 146 L 372 151 L 375 159 L 374 169 L 372 173 L 368 177 L 362 177 L 357 172 L 355 168 L 355 162 L 354 159 L 355 158 L 356 152 L 357 150 Z M 124 141 L 123 140 L 119 140 L 113 142 L 107 147 L 104 147 L 103 146 L 88 146 L 87 147 L 90 146 L 97 146 L 105 149 L 109 145 L 117 141 Z M 255 113 L 246 113 L 241 117 L 237 124 L 237 136 L 238 139 L 242 143 L 247 145 L 250 144 L 256 137 L 257 133 L 265 124 L 264 119 L 258 114 Z M 256 114 L 264 121 L 264 123 L 256 133 L 253 140 L 249 144 L 244 143 L 238 137 L 238 125 L 244 116 L 248 114 Z M 360 106 L 359 108 L 360 113 L 367 118 L 369 117 L 375 121 L 381 121 L 383 119 L 383 113 L 382 111 L 376 106 L 372 105 L 370 103 L 363 103 Z M 359 108 L 365 103 L 374 105 L 383 113 L 383 118 L 380 121 L 376 121 L 372 118 L 364 115 L 359 110 Z M 464 102 L 464 109 L 463 110 L 463 113 L 461 115 L 460 118 L 458 119 L 454 124 L 449 125 L 445 129 L 445 131 L 446 133 L 450 135 L 456 142 L 460 150 L 460 159 L 462 161 L 462 167 L 465 170 L 468 171 L 474 177 L 472 179 L 470 179 L 466 184 L 473 190 L 477 197 L 476 199 L 469 205 L 466 205 L 462 202 L 460 202 L 459 205 L 462 205 L 463 206 L 462 208 L 451 207 L 450 206 L 449 207 L 449 216 L 447 219 L 448 226 L 444 234 L 439 238 L 439 245 L 438 248 L 434 251 L 434 253 L 432 255 L 429 255 L 429 258 L 426 262 L 426 265 L 421 269 L 420 272 L 418 274 L 415 275 L 414 279 L 412 281 L 409 282 L 406 286 L 404 286 L 400 291 L 398 298 L 395 304 L 393 305 L 393 309 L 396 313 L 399 312 L 399 308 L 402 305 L 402 303 L 404 301 L 408 304 L 411 304 L 413 303 L 416 299 L 418 299 L 421 297 L 430 297 L 442 291 L 455 292 L 459 294 L 463 298 L 471 302 L 473 302 L 466 299 L 460 293 L 454 291 L 451 291 L 450 290 L 441 290 L 429 296 L 424 296 L 421 293 L 421 291 L 420 291 L 418 295 L 413 300 L 410 300 L 409 299 L 409 295 L 414 289 L 418 288 L 421 285 L 424 288 L 428 284 L 435 274 L 436 274 L 437 276 L 440 276 L 447 266 L 448 262 L 451 259 L 453 260 L 455 259 L 457 262 L 460 262 L 461 261 L 461 259 L 464 255 L 464 252 L 465 251 L 465 243 L 466 242 L 472 242 L 473 241 L 472 239 L 471 225 L 474 221 L 478 224 L 480 223 L 478 215 L 476 212 L 474 202 L 477 199 L 481 201 L 482 199 L 478 193 L 469 185 L 469 182 L 472 179 L 478 179 L 479 178 L 472 172 L 465 170 L 463 168 L 463 165 L 466 161 L 462 156 L 455 140 L 447 131 L 452 125 L 456 123 L 460 119 L 464 110 Z M 433 87 L 429 90 L 424 92 L 423 94 L 419 97 L 419 99 L 417 102 L 419 106 L 422 109 L 427 111 L 440 123 L 446 120 L 452 113 L 452 104 L 449 97 L 443 91 L 440 90 L 438 88 Z M 431 89 L 438 89 L 440 91 L 443 92 L 447 96 L 451 103 L 452 109 L 450 113 L 442 120 L 438 120 L 431 113 L 427 110 L 422 108 L 419 105 L 419 100 L 420 98 L 427 91 Z M 357 81 L 355 80 L 351 82 L 343 90 L 332 84 L 326 83 L 325 84 L 326 91 L 322 94 L 309 94 L 302 100 L 289 105 L 278 113 L 277 113 L 269 104 L 259 99 L 251 99 L 250 100 L 247 100 L 241 102 L 235 106 L 230 111 L 227 116 L 226 122 L 225 123 L 225 133 L 226 134 L 226 137 L 228 139 L 228 141 L 230 144 L 236 150 L 241 153 L 243 153 L 245 155 L 245 158 L 242 164 L 245 159 L 245 154 L 238 151 L 231 145 L 225 133 L 225 123 L 226 122 L 226 119 L 228 117 L 228 114 L 237 105 L 245 101 L 249 101 L 254 99 L 262 100 L 266 102 L 275 112 L 275 115 L 277 117 L 277 119 L 274 122 L 274 129 L 275 131 L 278 133 L 283 129 L 291 125 L 294 122 L 294 121 L 290 125 L 287 126 L 279 132 L 277 132 L 274 129 L 274 124 L 277 119 L 281 115 L 285 113 L 290 113 L 294 117 L 294 116 L 288 111 L 288 107 L 291 104 L 294 104 L 296 102 L 301 101 L 309 95 L 317 95 L 318 94 L 323 94 L 326 92 L 326 87 L 328 85 L 332 85 L 335 87 L 339 88 L 342 91 L 344 91 L 353 81 L 356 83 L 357 86 Z M 463 100 L 463 98 L 456 85 L 449 79 L 438 75 L 428 75 L 416 80 L 408 87 L 407 89 L 407 93 L 404 96 L 398 94 L 395 94 L 394 93 L 378 91 L 377 90 L 363 90 L 362 91 L 358 91 L 356 88 L 356 90 L 358 92 L 363 92 L 364 91 L 374 91 L 375 92 L 378 92 L 379 91 L 382 91 L 386 93 L 391 93 L 396 95 L 405 96 L 407 93 L 408 88 L 415 81 L 421 78 L 423 78 L 425 76 L 430 76 L 431 75 L 436 76 L 438 75 L 441 77 L 448 79 L 458 88 L 463 98 Z M 390 80 L 382 79 L 381 78 L 373 78 L 368 74 L 364 68 L 352 68 L 343 74 L 339 74 L 336 72 L 333 72 L 328 70 L 321 70 L 316 73 L 315 76 L 309 82 L 297 86 L 292 90 L 288 92 L 285 92 L 282 94 L 279 94 L 277 92 L 271 91 L 266 88 L 262 88 L 261 87 L 261 88 L 268 89 L 281 96 L 283 94 L 287 93 L 289 91 L 302 84 L 312 82 L 314 79 L 315 75 L 319 71 L 327 70 L 341 75 L 353 68 L 362 68 L 366 72 L 369 78 L 380 78 L 381 79 Z M 392 81 L 398 82 L 401 77 L 407 71 L 415 66 L 421 65 L 422 64 L 427 64 L 428 63 L 440 63 L 452 67 L 461 73 L 470 83 L 460 72 L 452 67 L 442 63 L 427 63 L 426 64 L 421 64 L 415 66 L 405 72 L 398 79 L 397 79 L 398 80 L 396 82 L 395 81 Z" fill="#E8E8E8" fill-rule="evenodd"/><path d="M 358 545 L 356 545 L 351 551 L 351 554 L 354 552 Z M 253 457 L 252 457 L 250 460 L 249 465 L 250 465 Z M 386 378 L 385 379 L 389 385 L 392 387 L 394 387 L 393 383 L 389 379 Z M 401 359 L 401 364 L 402 366 L 405 368 L 411 375 L 412 374 L 408 369 L 408 367 L 404 362 L 404 360 Z M 406 355 L 406 358 L 411 364 L 414 365 L 414 362 L 412 360 L 412 358 L 410 356 Z M 258 323 L 256 324 L 255 328 L 259 325 Z M 388 294 L 387 293 L 384 293 L 372 298 L 368 298 L 362 300 L 357 300 L 356 301 L 350 301 L 349 302 L 329 302 L 328 301 L 314 300 L 313 301 L 313 305 L 321 313 L 327 317 L 346 326 L 350 326 L 358 322 L 361 322 L 366 317 L 372 313 L 383 303 L 387 298 Z M 132 196 L 123 192 L 117 192 L 106 196 L 97 204 L 93 210 L 87 223 L 87 233 L 88 236 L 94 243 L 98 245 L 107 245 L 113 242 L 115 242 L 117 240 L 126 236 L 135 230 L 141 224 L 143 220 L 143 211 L 140 204 L 137 200 Z M 240 194 L 239 196 L 239 205 L 242 208 L 245 209 L 249 209 L 255 206 L 261 199 L 263 200 L 264 209 L 267 216 L 273 222 L 278 224 L 284 229 L 288 243 L 295 256 L 301 264 L 315 277 L 327 282 L 338 282 L 341 280 L 343 280 L 353 273 L 360 266 L 361 263 L 363 261 L 363 259 L 365 256 L 368 247 L 369 237 L 370 236 L 370 210 L 369 209 L 368 202 L 364 197 L 362 197 L 358 203 L 350 211 L 348 211 L 346 213 L 334 217 L 319 217 L 318 216 L 315 216 L 310 214 L 306 214 L 305 213 L 298 213 L 291 218 L 283 219 L 279 217 L 272 209 L 272 205 L 271 204 L 272 191 L 270 189 L 264 191 L 263 189 L 259 186 L 252 186 L 245 189 Z M 265 194 L 268 191 L 271 192 L 271 209 L 276 216 L 283 220 L 287 220 L 293 218 L 299 214 L 305 214 L 306 215 L 310 215 L 311 216 L 319 217 L 320 218 L 334 218 L 350 212 L 358 205 L 362 199 L 364 199 L 367 203 L 368 209 L 369 210 L 369 237 L 368 238 L 368 242 L 367 243 L 366 250 L 361 263 L 356 268 L 355 267 L 355 264 L 357 261 L 361 249 L 361 246 L 359 242 L 351 235 L 348 235 L 347 234 L 339 234 L 328 239 L 322 243 L 316 249 L 316 251 L 314 253 L 313 256 L 313 263 L 315 267 L 321 274 L 321 276 L 318 277 L 314 275 L 306 268 L 293 251 L 288 241 L 284 227 L 282 225 L 273 221 L 266 213 L 265 211 L 265 207 L 264 206 L 264 198 L 265 197 Z M 152 174 L 149 175 L 144 180 L 141 186 L 141 193 L 142 195 L 148 200 L 151 199 L 154 196 L 157 188 L 157 179 L 156 177 Z M 377 180 L 377 187 L 383 193 L 393 197 L 408 198 L 420 194 L 423 190 L 423 184 L 421 180 L 415 175 L 406 172 L 400 172 L 399 171 L 387 172 L 380 176 Z M 300 166 L 301 167 L 306 167 L 311 165 L 320 165 L 324 167 L 330 167 L 331 165 L 329 163 L 324 161 L 307 161 L 304 162 Z M 280 152 L 276 156 L 272 167 L 272 173 L 278 180 L 275 186 L 275 191 L 279 199 L 285 204 L 292 207 L 301 207 L 316 201 L 324 192 L 324 189 L 325 188 L 324 182 L 320 178 L 314 175 L 307 174 L 306 173 L 296 173 L 295 174 L 288 175 L 286 173 L 288 170 L 288 167 L 289 166 L 289 161 L 287 155 L 284 152 Z M 276 185 L 282 178 L 291 175 L 294 175 L 295 174 L 307 174 L 318 178 L 324 184 L 324 190 L 320 196 L 314 201 L 300 206 L 293 206 L 284 202 L 279 197 L 276 191 Z M 283 153 L 288 159 L 288 167 L 286 172 L 281 177 L 278 178 L 273 173 L 273 165 L 276 158 L 281 153 Z M 363 146 L 358 150 L 356 155 L 356 158 L 355 159 L 356 162 L 356 168 L 358 172 L 362 176 L 368 176 L 371 173 L 373 169 L 374 159 L 371 151 L 367 147 Z M 363 147 L 367 148 L 370 151 L 373 157 L 373 166 L 371 171 L 366 175 L 361 174 L 357 169 L 357 166 L 356 165 L 356 157 L 359 150 Z M 256 115 L 248 115 L 244 117 L 239 125 L 239 137 L 244 142 L 249 143 L 252 140 L 255 133 L 263 123 L 263 121 Z M 294 118 L 290 114 L 285 114 L 281 116 L 275 124 L 275 129 L 277 131 L 281 130 L 284 127 L 290 124 L 294 120 Z M 290 115 L 293 118 L 293 120 L 290 123 L 278 130 L 276 128 L 276 125 L 278 121 L 286 115 Z M 360 108 L 360 110 L 364 114 L 370 116 L 376 120 L 380 120 L 382 118 L 382 113 L 374 106 L 365 104 Z M 362 108 L 365 105 L 372 106 L 376 108 L 381 113 L 381 117 L 379 119 L 376 119 L 374 117 L 366 114 L 362 110 Z M 431 90 L 427 92 L 421 98 L 420 100 L 420 105 L 431 112 L 438 119 L 442 119 L 449 113 L 451 109 L 450 103 L 446 96 L 443 93 L 440 92 L 438 90 Z M 445 75 L 438 74 L 437 73 L 429 73 L 428 74 L 425 74 L 412 81 L 407 86 L 405 92 L 403 94 L 394 91 L 383 90 L 382 89 L 376 89 L 375 88 L 363 88 L 360 89 L 358 87 L 359 80 L 357 78 L 354 78 L 349 81 L 343 87 L 341 87 L 333 82 L 325 81 L 323 83 L 324 90 L 322 92 L 308 91 L 304 94 L 304 96 L 302 98 L 295 100 L 287 104 L 279 110 L 277 110 L 266 100 L 261 98 L 257 98 L 256 97 L 247 98 L 241 101 L 239 101 L 230 108 L 224 120 L 224 136 L 229 146 L 233 150 L 240 154 L 243 157 L 243 159 L 238 168 L 235 177 L 234 186 L 233 188 L 226 194 L 224 198 L 224 202 L 230 204 L 230 208 L 226 215 L 226 221 L 227 222 L 230 222 L 232 224 L 232 228 L 230 233 L 230 243 L 232 244 L 236 242 L 238 244 L 238 259 L 241 264 L 244 264 L 247 262 L 250 265 L 250 268 L 252 272 L 254 274 L 258 274 L 265 281 L 273 295 L 273 297 L 270 301 L 268 301 L 264 297 L 258 287 L 251 280 L 248 282 L 247 285 L 245 285 L 240 279 L 238 273 L 235 269 L 234 269 L 229 275 L 226 272 L 225 268 L 221 260 L 219 258 L 217 258 L 213 264 L 210 264 L 203 255 L 201 249 L 197 242 L 195 240 L 193 240 L 190 243 L 188 243 L 182 237 L 170 221 L 160 211 L 160 207 L 161 206 L 162 198 L 163 197 L 163 174 L 161 172 L 153 168 L 150 168 L 141 176 L 138 177 L 136 175 L 134 164 L 131 158 L 127 154 L 123 152 L 119 152 L 116 155 L 114 161 L 114 176 L 113 177 L 111 176 L 106 167 L 98 158 L 96 157 L 89 157 L 84 161 L 83 164 L 83 171 L 87 180 L 87 182 L 89 184 L 89 186 L 86 187 L 81 183 L 77 182 L 74 180 L 68 180 L 64 185 L 63 191 L 66 197 L 67 203 L 69 207 L 67 209 L 63 210 L 58 214 L 57 220 L 59 225 L 65 233 L 75 243 L 86 252 L 92 255 L 98 261 L 101 271 L 107 284 L 118 300 L 127 310 L 132 313 L 140 320 L 144 322 L 150 328 L 148 330 L 144 330 L 143 331 L 144 333 L 150 338 L 156 341 L 168 344 L 174 348 L 172 351 L 170 351 L 167 353 L 168 356 L 173 358 L 176 358 L 177 359 L 180 359 L 181 360 L 195 363 L 197 365 L 197 368 L 196 369 L 196 372 L 197 373 L 212 375 L 214 377 L 214 381 L 217 383 L 231 386 L 233 382 L 233 378 L 242 362 L 242 359 L 245 353 L 248 350 L 250 351 L 250 356 L 248 360 L 247 368 L 244 376 L 244 380 L 242 386 L 242 393 L 232 409 L 233 412 L 236 412 L 238 414 L 225 428 L 225 432 L 226 433 L 231 432 L 233 434 L 231 439 L 224 447 L 221 453 L 220 459 L 221 460 L 224 460 L 227 458 L 229 460 L 225 472 L 225 475 L 224 476 L 224 486 L 227 486 L 229 484 L 231 486 L 231 490 L 230 491 L 230 504 L 232 506 L 235 503 L 237 504 L 238 506 L 239 516 L 242 524 L 254 537 L 254 538 L 261 544 L 258 545 L 252 542 L 241 542 L 238 544 L 237 546 L 237 550 L 229 562 L 231 569 L 223 586 L 223 591 L 226 597 L 227 607 L 233 625 L 237 629 L 254 631 L 263 635 L 266 638 L 264 640 L 259 640 L 258 639 L 252 639 L 251 638 L 234 637 L 233 638 L 222 638 L 216 640 L 207 647 L 203 655 L 203 666 L 207 671 L 210 671 L 211 670 L 211 663 L 212 662 L 212 658 L 213 656 L 216 653 L 220 653 L 222 655 L 222 657 L 219 666 L 219 673 L 223 676 L 232 676 L 233 675 L 233 667 L 234 666 L 234 663 L 239 657 L 242 657 L 244 659 L 243 677 L 248 679 L 267 680 L 268 681 L 307 681 L 308 680 L 314 680 L 315 679 L 322 678 L 332 674 L 336 669 L 336 656 L 335 655 L 335 648 L 334 647 L 335 645 L 335 640 L 337 635 L 337 626 L 336 625 L 336 622 L 337 621 L 338 615 L 343 608 L 343 604 L 344 603 L 343 600 L 337 597 L 332 592 L 332 589 L 335 588 L 336 589 L 345 590 L 346 591 L 354 592 L 355 593 L 361 593 L 364 590 L 364 581 L 368 573 L 376 563 L 378 565 L 378 569 L 377 570 L 377 574 L 375 578 L 373 591 L 372 592 L 372 604 L 376 616 L 382 627 L 389 634 L 405 644 L 408 647 L 416 651 L 419 651 L 428 654 L 433 651 L 451 646 L 454 644 L 456 644 L 465 640 L 468 637 L 474 634 L 487 621 L 496 609 L 499 611 L 499 615 L 496 623 L 488 635 L 488 638 L 497 644 L 500 644 L 501 645 L 511 645 L 514 644 L 518 639 L 523 639 L 527 636 L 527 634 L 519 631 L 516 627 L 518 625 L 521 624 L 532 624 L 534 622 L 534 611 L 533 610 L 533 606 L 532 605 L 532 602 L 531 601 L 531 598 L 530 597 L 530 594 L 528 590 L 528 587 L 526 581 L 510 549 L 500 540 L 492 540 L 488 542 L 482 548 L 482 552 L 481 553 L 481 565 L 480 566 L 478 577 L 475 582 L 473 588 L 471 590 L 469 590 L 467 588 L 467 585 L 466 584 L 464 584 L 459 588 L 457 587 L 457 585 L 460 582 L 461 579 L 465 574 L 465 572 L 474 554 L 474 540 L 479 535 L 490 529 L 496 521 L 504 502 L 504 499 L 506 494 L 506 490 L 505 489 L 494 497 L 480 504 L 474 506 L 470 506 L 469 507 L 464 507 L 463 508 L 450 507 L 449 506 L 439 504 L 436 502 L 430 501 L 414 491 L 400 478 L 396 470 L 396 458 L 390 451 L 390 448 L 389 447 L 390 444 L 390 437 L 391 436 L 391 433 L 393 430 L 399 424 L 410 419 L 417 412 L 426 397 L 427 394 L 427 385 L 424 381 L 423 375 L 426 374 L 430 377 L 436 377 L 441 373 L 443 373 L 447 377 L 447 380 L 443 386 L 439 394 L 439 396 L 436 400 L 429 414 L 419 425 L 409 430 L 402 437 L 401 445 L 403 448 L 406 449 L 411 448 L 414 445 L 417 447 L 417 449 L 408 466 L 408 472 L 414 479 L 423 480 L 432 471 L 435 471 L 436 472 L 436 477 L 434 481 L 433 489 L 436 493 L 445 493 L 448 492 L 461 477 L 463 477 L 465 479 L 465 481 L 459 493 L 459 495 L 462 497 L 470 497 L 478 491 L 484 488 L 498 476 L 499 472 L 506 458 L 508 456 L 511 457 L 512 465 L 513 466 L 513 469 L 514 469 L 514 466 L 517 461 L 518 451 L 520 448 L 520 446 L 524 441 L 524 436 L 529 430 L 530 427 L 529 424 L 529 414 L 532 413 L 535 416 L 537 415 L 537 406 L 538 405 L 537 403 L 537 389 L 539 387 L 541 387 L 543 389 L 546 388 L 545 376 L 541 367 L 537 361 L 537 357 L 533 351 L 525 344 L 524 340 L 519 335 L 516 330 L 506 322 L 491 315 L 489 313 L 488 309 L 484 305 L 470 299 L 461 291 L 455 289 L 452 289 L 451 288 L 448 288 L 445 287 L 443 285 L 444 281 L 447 278 L 455 273 L 462 265 L 465 259 L 465 256 L 467 251 L 467 247 L 468 246 L 471 247 L 473 246 L 475 241 L 475 238 L 474 237 L 474 228 L 476 226 L 479 229 L 481 227 L 482 224 L 482 220 L 478 211 L 477 205 L 479 203 L 482 205 L 484 204 L 484 198 L 483 196 L 472 185 L 472 182 L 473 181 L 480 181 L 481 180 L 481 177 L 474 171 L 470 170 L 467 168 L 467 166 L 470 164 L 470 162 L 464 155 L 456 138 L 450 131 L 450 130 L 462 119 L 465 112 L 465 99 L 458 85 L 452 79 Z M 242 543 L 250 543 L 253 544 L 266 553 L 290 565 L 292 565 L 297 569 L 302 571 L 308 576 L 309 586 L 317 595 L 317 601 L 313 605 L 313 607 L 307 614 L 308 649 L 311 653 L 314 653 L 319 649 L 321 649 L 323 651 L 329 651 L 331 653 L 331 655 L 333 658 L 333 666 L 326 671 L 324 675 L 318 678 L 307 679 L 306 680 L 304 679 L 306 676 L 297 677 L 293 680 L 265 680 L 264 679 L 251 678 L 250 677 L 247 677 L 243 674 L 244 664 L 245 663 L 245 657 L 243 655 L 238 656 L 235 659 L 233 664 L 232 671 L 230 673 L 222 674 L 220 672 L 220 666 L 222 660 L 222 654 L 220 652 L 216 652 L 213 655 L 211 659 L 210 668 L 208 670 L 204 666 L 204 655 L 206 652 L 206 650 L 215 641 L 217 641 L 220 639 L 224 639 L 225 638 L 245 638 L 246 639 L 255 639 L 256 640 L 261 640 L 262 641 L 266 641 L 269 639 L 267 636 L 258 632 L 238 628 L 234 624 L 232 620 L 232 617 L 228 607 L 228 603 L 227 602 L 224 587 L 225 586 L 226 580 L 229 575 L 229 573 L 231 571 L 231 560 L 238 551 L 239 546 Z M 170 353 L 176 351 L 183 352 L 186 355 L 186 357 L 184 359 L 182 358 L 177 358 L 172 356 Z M 149 335 L 151 333 L 154 336 L 152 337 Z M 86 160 L 90 157 L 96 158 L 104 166 L 105 169 L 107 171 L 107 173 L 105 174 L 93 165 L 88 165 L 86 166 L 85 165 Z M 68 181 L 73 181 L 81 185 L 89 192 L 99 191 L 103 189 L 107 185 L 107 178 L 106 177 L 108 176 L 113 182 L 118 181 L 120 183 L 123 184 L 130 184 L 132 182 L 133 176 L 129 168 L 125 164 L 123 160 L 118 156 L 120 154 L 124 154 L 131 160 L 133 164 L 135 175 L 138 179 L 143 176 L 147 171 L 151 169 L 153 169 L 159 172 L 163 176 L 163 188 L 162 189 L 162 199 L 160 205 L 160 213 L 173 226 L 188 245 L 190 245 L 194 241 L 198 245 L 200 251 L 205 260 L 212 267 L 214 265 L 214 263 L 217 260 L 219 260 L 221 262 L 224 268 L 225 273 L 228 277 L 230 277 L 234 271 L 237 274 L 239 279 L 246 288 L 248 287 L 250 283 L 252 283 L 258 289 L 263 298 L 267 302 L 271 302 L 273 299 L 273 295 L 275 293 L 279 294 L 287 300 L 290 301 L 291 300 L 291 297 L 285 290 L 275 284 L 273 284 L 270 286 L 268 284 L 267 281 L 259 272 L 254 271 L 251 268 L 250 261 L 248 258 L 243 261 L 239 258 L 238 255 L 239 252 L 239 242 L 237 239 L 233 241 L 230 239 L 230 236 L 232 231 L 232 227 L 233 226 L 233 220 L 230 220 L 229 221 L 226 217 L 232 205 L 232 202 L 231 201 L 227 202 L 225 200 L 225 197 L 235 186 L 235 179 L 239 170 L 239 168 L 241 165 L 241 163 L 243 161 L 244 155 L 236 151 L 229 144 L 227 141 L 227 139 L 225 137 L 225 134 L 224 133 L 224 123 L 225 122 L 226 116 L 229 111 L 235 105 L 241 101 L 247 99 L 250 99 L 251 98 L 259 98 L 269 103 L 271 106 L 277 112 L 278 112 L 289 104 L 302 99 L 309 93 L 322 93 L 325 91 L 324 84 L 326 82 L 332 83 L 343 89 L 351 81 L 356 79 L 358 81 L 358 86 L 357 87 L 358 90 L 362 90 L 363 89 L 377 89 L 378 90 L 394 92 L 402 95 L 404 95 L 406 93 L 406 89 L 407 87 L 416 79 L 428 74 L 438 74 L 439 75 L 445 76 L 452 80 L 457 85 L 464 98 L 464 101 L 465 102 L 465 110 L 461 119 L 456 124 L 452 126 L 448 131 L 456 140 L 463 156 L 467 161 L 464 165 L 464 168 L 472 171 L 480 178 L 478 180 L 472 180 L 470 182 L 470 185 L 479 193 L 483 199 L 481 202 L 478 200 L 475 202 L 475 205 L 481 223 L 479 225 L 475 222 L 473 223 L 472 225 L 472 229 L 473 230 L 473 239 L 474 241 L 472 243 L 466 243 L 466 251 L 465 252 L 465 255 L 462 259 L 462 261 L 460 263 L 457 263 L 455 260 L 454 261 L 451 260 L 449 262 L 448 266 L 446 268 L 445 271 L 440 277 L 437 277 L 436 275 L 435 275 L 429 284 L 424 289 L 421 286 L 418 289 L 414 290 L 410 295 L 410 299 L 413 299 L 417 295 L 418 292 L 420 290 L 422 291 L 422 293 L 424 295 L 429 295 L 441 289 L 450 289 L 451 290 L 458 291 L 466 298 L 474 302 L 481 304 L 485 308 L 485 313 L 486 314 L 506 323 L 515 331 L 516 334 L 521 340 L 523 344 L 529 349 L 535 356 L 536 361 L 544 377 L 544 381 L 542 383 L 537 382 L 535 384 L 535 389 L 536 390 L 536 405 L 534 407 L 531 405 L 529 405 L 527 408 L 528 410 L 527 412 L 527 423 L 523 429 L 523 439 L 519 444 L 517 444 L 511 450 L 509 450 L 507 452 L 503 461 L 503 463 L 499 468 L 497 474 L 483 487 L 480 488 L 478 490 L 470 490 L 469 489 L 466 489 L 464 487 L 466 477 L 463 475 L 457 479 L 453 485 L 448 490 L 443 492 L 440 492 L 435 488 L 436 478 L 438 475 L 438 470 L 437 469 L 433 469 L 424 477 L 421 477 L 420 478 L 414 476 L 410 471 L 410 465 L 418 449 L 418 444 L 417 443 L 414 443 L 411 446 L 407 448 L 404 447 L 402 445 L 402 441 L 404 437 L 411 430 L 417 427 L 426 420 L 436 404 L 440 396 L 440 394 L 448 380 L 448 373 L 445 368 L 435 369 L 429 372 L 421 371 L 417 368 L 415 369 L 416 370 L 416 374 L 421 378 L 423 383 L 427 387 L 427 391 L 423 401 L 418 407 L 416 412 L 410 418 L 397 424 L 390 430 L 389 432 L 389 436 L 388 437 L 388 445 L 387 446 L 387 449 L 395 461 L 395 472 L 398 478 L 408 488 L 416 493 L 419 496 L 425 499 L 439 511 L 440 515 L 443 519 L 443 523 L 447 529 L 448 534 L 456 540 L 458 540 L 461 542 L 468 550 L 469 557 L 463 567 L 462 575 L 459 581 L 450 589 L 451 595 L 453 597 L 463 597 L 469 594 L 471 594 L 476 589 L 476 587 L 478 585 L 481 585 L 483 583 L 485 583 L 487 584 L 488 586 L 491 586 L 493 589 L 492 590 L 492 599 L 482 610 L 471 615 L 456 627 L 454 627 L 449 630 L 444 630 L 438 632 L 415 635 L 411 641 L 409 639 L 405 638 L 400 632 L 397 631 L 393 631 L 392 632 L 391 631 L 388 631 L 383 626 L 382 623 L 379 620 L 379 618 L 374 607 L 374 603 L 373 602 L 374 585 L 375 584 L 375 581 L 378 572 L 380 569 L 380 565 L 382 562 L 382 552 L 381 550 L 379 550 L 379 552 L 377 554 L 377 556 L 373 562 L 373 564 L 369 569 L 369 571 L 362 579 L 360 579 L 358 577 L 358 575 L 356 572 L 356 567 L 355 566 L 352 566 L 346 572 L 344 572 L 342 574 L 340 574 L 337 576 L 333 576 L 330 572 L 326 569 L 321 569 L 316 567 L 314 565 L 311 565 L 308 563 L 306 563 L 302 560 L 298 560 L 296 559 L 288 548 L 286 548 L 283 550 L 276 544 L 266 540 L 255 532 L 250 531 L 242 523 L 240 518 L 240 513 L 239 512 L 238 498 L 237 497 L 233 499 L 231 498 L 231 493 L 232 492 L 234 482 L 232 480 L 230 480 L 226 484 L 224 482 L 226 471 L 230 461 L 230 457 L 225 457 L 223 459 L 221 457 L 221 454 L 225 447 L 230 442 L 234 435 L 234 431 L 233 430 L 228 430 L 227 428 L 228 426 L 234 421 L 239 414 L 239 411 L 238 410 L 235 411 L 233 409 L 235 405 L 244 395 L 249 393 L 259 382 L 259 379 L 258 378 L 254 378 L 246 385 L 244 383 L 244 379 L 247 371 L 247 366 L 252 351 L 252 345 L 251 343 L 255 338 L 255 335 L 253 334 L 251 336 L 249 342 L 250 346 L 246 350 L 238 364 L 216 362 L 213 358 L 222 350 L 221 348 L 218 348 L 217 349 L 209 349 L 208 348 L 204 348 L 199 344 L 187 345 L 185 344 L 183 341 L 189 335 L 188 332 L 186 331 L 181 331 L 172 327 L 170 327 L 168 325 L 159 321 L 150 314 L 145 312 L 141 309 L 130 298 L 129 298 L 114 282 L 114 281 L 103 271 L 98 259 L 94 255 L 88 252 L 78 244 L 65 231 L 59 223 L 58 216 L 64 211 L 67 211 L 68 213 L 65 217 L 65 225 L 69 229 L 73 231 L 80 231 L 82 228 L 82 222 L 76 216 L 71 214 L 70 212 L 72 210 L 81 211 L 87 207 L 87 204 L 88 203 L 88 199 L 83 191 L 75 187 L 71 187 L 66 193 L 64 191 L 64 186 Z M 448 66 L 441 65 L 440 64 L 428 64 L 427 65 L 422 65 L 421 66 L 415 67 L 407 72 L 402 77 L 398 83 L 392 82 L 391 81 L 381 80 L 380 79 L 369 79 L 367 77 L 365 72 L 362 69 L 353 69 L 341 76 L 331 72 L 323 71 L 322 72 L 319 72 L 316 75 L 315 79 L 312 83 L 302 85 L 289 92 L 287 94 L 283 95 L 281 97 L 268 90 L 261 89 L 260 88 L 247 88 L 246 89 L 243 89 L 229 96 L 224 100 L 220 105 L 216 113 L 216 116 L 214 120 L 214 126 L 213 127 L 215 141 L 222 154 L 230 162 L 229 168 L 224 178 L 224 184 L 215 197 L 215 206 L 219 211 L 219 214 L 217 217 L 217 225 L 221 231 L 221 243 L 218 246 L 215 247 L 211 247 L 207 243 L 203 235 L 198 230 L 196 229 L 189 229 L 185 225 L 184 222 L 172 210 L 171 205 L 172 204 L 172 195 L 173 194 L 173 179 L 172 178 L 172 173 L 168 165 L 162 160 L 156 158 L 142 160 L 138 155 L 138 153 L 135 148 L 133 146 L 125 142 L 117 142 L 109 146 L 105 150 L 97 147 L 90 147 L 81 150 L 74 158 L 73 161 L 73 168 L 69 171 L 62 172 L 58 176 L 57 179 L 55 181 L 54 187 L 53 188 L 53 193 L 55 197 L 55 203 L 51 207 L 48 214 L 48 222 L 50 228 L 59 241 L 76 257 L 85 263 L 89 267 L 92 277 L 98 289 L 109 305 L 115 311 L 115 312 L 131 327 L 132 332 L 137 340 L 143 345 L 145 345 L 147 347 L 149 347 L 153 350 L 155 350 L 157 352 L 157 354 L 162 362 L 171 367 L 181 370 L 187 377 L 200 382 L 207 388 L 215 392 L 223 394 L 226 397 L 225 404 L 223 406 L 222 409 L 222 418 L 218 422 L 215 427 L 214 436 L 216 439 L 216 444 L 213 448 L 211 454 L 211 464 L 215 470 L 215 473 L 214 474 L 214 488 L 215 489 L 215 492 L 219 497 L 221 510 L 223 514 L 229 521 L 232 529 L 232 532 L 224 543 L 220 552 L 220 554 L 216 559 L 215 562 L 215 571 L 216 573 L 212 582 L 212 591 L 213 592 L 213 596 L 215 602 L 215 609 L 222 628 L 220 630 L 212 631 L 203 636 L 196 644 L 195 647 L 193 649 L 192 655 L 191 656 L 191 665 L 192 666 L 192 670 L 194 673 L 203 681 L 207 682 L 214 686 L 220 688 L 223 688 L 224 689 L 227 689 L 228 690 L 231 690 L 232 691 L 238 691 L 239 692 L 256 692 L 257 693 L 297 693 L 298 692 L 308 692 L 309 691 L 316 691 L 321 689 L 326 689 L 335 686 L 338 684 L 340 684 L 346 679 L 349 670 L 349 665 L 350 664 L 350 653 L 348 649 L 349 647 L 349 643 L 350 642 L 350 632 L 349 631 L 349 628 L 353 620 L 356 617 L 360 617 L 369 632 L 375 640 L 387 650 L 396 655 L 402 656 L 413 661 L 416 661 L 421 663 L 437 663 L 438 662 L 442 662 L 477 646 L 480 646 L 495 654 L 514 654 L 526 650 L 533 646 L 544 633 L 546 627 L 546 624 L 547 623 L 547 608 L 546 607 L 544 596 L 542 592 L 542 589 L 539 583 L 538 578 L 535 573 L 535 571 L 531 563 L 529 561 L 525 553 L 525 551 L 523 549 L 521 544 L 510 530 L 509 522 L 514 515 L 515 510 L 519 501 L 519 498 L 526 485 L 528 474 L 530 470 L 531 463 L 534 455 L 534 449 L 541 437 L 545 423 L 551 411 L 553 399 L 556 394 L 557 388 L 558 387 L 558 370 L 551 356 L 540 341 L 516 316 L 498 304 L 489 296 L 486 295 L 480 290 L 467 284 L 465 282 L 465 280 L 468 274 L 474 265 L 476 258 L 480 255 L 483 249 L 484 241 L 491 233 L 492 230 L 492 222 L 491 221 L 491 217 L 490 215 L 494 209 L 494 199 L 489 191 L 489 188 L 491 185 L 491 176 L 489 172 L 481 165 L 475 151 L 466 137 L 466 131 L 471 125 L 475 116 L 475 112 L 476 111 L 475 97 L 472 88 L 468 81 L 461 74 Z M 448 67 L 462 76 L 467 81 L 473 92 L 474 98 L 475 99 L 475 113 L 470 125 L 464 132 L 464 136 L 477 156 L 479 161 L 479 164 L 489 173 L 491 177 L 491 183 L 489 186 L 489 192 L 494 200 L 494 208 L 490 213 L 490 218 L 492 224 L 491 231 L 484 239 L 482 250 L 476 257 L 472 266 L 472 268 L 469 271 L 464 280 L 464 283 L 471 287 L 473 287 L 480 293 L 485 295 L 495 303 L 510 312 L 543 346 L 549 354 L 557 369 L 557 387 L 552 399 L 550 411 L 545 421 L 540 438 L 534 447 L 533 450 L 533 456 L 527 472 L 527 478 L 526 479 L 525 486 L 522 492 L 519 495 L 517 505 L 513 512 L 512 516 L 508 522 L 508 528 L 518 541 L 527 556 L 527 558 L 536 575 L 536 577 L 538 580 L 544 598 L 545 606 L 546 607 L 546 625 L 544 631 L 538 640 L 530 647 L 516 653 L 513 653 L 512 654 L 498 654 L 489 651 L 481 645 L 477 645 L 448 659 L 439 662 L 436 662 L 435 663 L 425 663 L 424 662 L 415 661 L 406 657 L 395 654 L 382 645 L 375 638 L 367 627 L 362 616 L 362 606 L 360 604 L 358 604 L 356 607 L 356 609 L 354 612 L 354 614 L 352 617 L 349 626 L 349 643 L 348 644 L 349 665 L 348 666 L 348 672 L 346 678 L 339 684 L 324 689 L 314 690 L 313 691 L 306 691 L 305 692 L 295 692 L 294 693 L 245 692 L 244 691 L 230 690 L 229 689 L 215 686 L 201 679 L 195 673 L 192 665 L 192 656 L 195 647 L 206 635 L 212 632 L 222 630 L 223 629 L 216 611 L 216 606 L 215 605 L 215 600 L 214 599 L 214 593 L 212 589 L 212 583 L 216 575 L 216 566 L 215 565 L 216 560 L 221 553 L 223 546 L 232 533 L 232 527 L 228 518 L 224 514 L 222 510 L 220 498 L 215 490 L 215 486 L 214 485 L 215 468 L 212 464 L 211 458 L 212 457 L 213 450 L 217 444 L 217 439 L 215 436 L 215 429 L 216 426 L 222 420 L 223 417 L 223 408 L 226 404 L 227 396 L 225 394 L 217 392 L 208 388 L 199 381 L 194 380 L 188 377 L 182 370 L 166 364 L 160 359 L 158 355 L 158 352 L 156 350 L 148 346 L 146 346 L 137 339 L 133 333 L 132 326 L 110 305 L 102 294 L 92 276 L 90 270 L 90 267 L 85 262 L 81 260 L 68 248 L 67 248 L 60 241 L 52 230 L 49 223 L 49 212 L 51 208 L 56 203 L 56 197 L 54 193 L 54 186 L 57 179 L 64 172 L 72 171 L 74 169 L 73 167 L 74 159 L 81 151 L 88 148 L 97 148 L 103 151 L 106 151 L 112 145 L 116 143 L 125 143 L 128 144 L 136 151 L 139 158 L 142 161 L 145 161 L 150 159 L 157 159 L 164 162 L 167 165 L 172 175 L 172 181 L 173 182 L 172 200 L 171 201 L 171 206 L 170 207 L 171 210 L 182 221 L 188 230 L 196 230 L 198 231 L 202 235 L 206 243 L 211 249 L 213 249 L 216 247 L 222 247 L 225 253 L 227 254 L 227 250 L 225 248 L 222 247 L 222 230 L 217 223 L 217 220 L 220 211 L 216 206 L 215 199 L 217 194 L 225 185 L 225 178 L 231 166 L 232 162 L 221 151 L 216 142 L 214 136 L 214 122 L 215 121 L 216 114 L 220 106 L 229 97 L 235 93 L 239 92 L 242 90 L 254 88 L 255 89 L 261 89 L 262 90 L 268 91 L 277 97 L 282 98 L 284 96 L 302 86 L 305 85 L 313 85 L 315 83 L 315 79 L 317 75 L 321 72 L 327 72 L 328 73 L 334 74 L 339 77 L 342 77 L 353 70 L 361 70 L 365 74 L 366 78 L 368 80 L 383 80 L 384 81 L 392 82 L 398 84 L 410 71 L 417 67 L 423 66 L 424 65 L 441 65 L 442 66 Z" fill="#B1B1B1" fill-rule="evenodd"/><path d="M 266 194 L 266 197 L 265 198 L 265 206 L 266 207 L 266 211 L 267 213 L 273 220 L 274 220 L 276 222 L 278 222 L 282 224 L 285 227 L 289 241 L 294 251 L 301 260 L 301 261 L 307 267 L 307 268 L 314 274 L 318 276 L 320 276 L 320 274 L 314 267 L 312 263 L 312 256 L 313 255 L 313 253 L 315 251 L 315 249 L 322 242 L 323 242 L 328 238 L 339 233 L 347 233 L 348 234 L 351 234 L 353 235 L 360 242 L 362 246 L 362 249 L 361 250 L 360 256 L 356 264 L 356 267 L 360 263 L 362 259 L 364 251 L 365 250 L 365 247 L 366 246 L 366 243 L 367 242 L 367 238 L 368 237 L 368 210 L 367 209 L 366 203 L 364 200 L 362 200 L 359 205 L 350 213 L 346 214 L 343 216 L 335 218 L 334 219 L 320 219 L 319 218 L 315 218 L 314 217 L 306 216 L 305 215 L 299 215 L 295 217 L 293 219 L 291 219 L 287 221 L 283 221 L 276 217 L 271 211 L 270 209 L 270 192 L 268 192 Z M 277 185 L 277 191 L 280 197 L 284 201 L 293 205 L 300 205 L 301 204 L 304 204 L 310 201 L 312 201 L 317 198 L 323 190 L 323 184 L 318 179 L 311 176 L 308 176 L 307 175 L 295 175 L 294 176 L 291 176 L 290 177 L 282 179 Z M 283 154 L 281 154 L 277 158 L 274 165 L 274 173 L 278 177 L 281 176 L 285 172 L 286 168 L 287 167 L 287 159 Z M 363 148 L 360 150 L 358 154 L 358 156 L 357 157 L 357 165 L 358 166 L 358 169 L 360 171 L 360 172 L 363 174 L 366 174 L 368 173 L 371 169 L 371 167 L 372 166 L 372 157 L 369 151 L 367 149 Z M 292 118 L 290 116 L 286 116 L 279 121 L 277 125 L 277 128 L 279 129 L 287 123 L 290 122 L 292 120 Z M 363 108 L 363 110 L 366 113 L 370 114 L 374 116 L 376 118 L 379 118 L 380 117 L 380 113 L 376 109 L 372 107 L 369 107 L 368 106 L 365 106 Z M 448 68 L 442 67 L 441 66 L 424 66 L 423 67 L 417 68 L 413 71 L 410 72 L 398 85 L 396 84 L 393 84 L 392 83 L 384 82 L 383 81 L 368 81 L 365 78 L 364 74 L 361 71 L 353 71 L 349 73 L 347 75 L 344 76 L 342 78 L 339 78 L 334 75 L 328 74 L 327 73 L 321 73 L 318 75 L 316 79 L 316 83 L 313 86 L 305 86 L 304 87 L 302 87 L 298 89 L 296 91 L 289 94 L 282 99 L 279 99 L 268 92 L 262 91 L 261 90 L 255 90 L 254 89 L 242 91 L 239 93 L 235 94 L 233 96 L 229 98 L 221 106 L 217 114 L 217 117 L 216 118 L 216 121 L 215 122 L 215 136 L 216 137 L 217 142 L 222 151 L 233 162 L 232 166 L 226 178 L 226 185 L 218 194 L 217 198 L 216 199 L 216 203 L 217 204 L 217 206 L 221 211 L 220 215 L 219 216 L 218 223 L 223 230 L 223 247 L 222 248 L 216 248 L 213 250 L 211 250 L 207 246 L 204 240 L 202 238 L 201 235 L 198 232 L 196 231 L 188 231 L 183 225 L 181 221 L 170 210 L 169 207 L 170 206 L 170 201 L 171 200 L 171 189 L 172 188 L 172 182 L 171 181 L 171 175 L 170 174 L 170 172 L 166 165 L 164 163 L 157 160 L 150 160 L 149 161 L 142 162 L 138 158 L 135 151 L 128 145 L 126 145 L 125 144 L 116 144 L 112 146 L 106 152 L 103 152 L 97 149 L 88 149 L 81 152 L 75 159 L 75 163 L 74 164 L 74 167 L 75 169 L 72 172 L 64 173 L 58 179 L 56 183 L 56 185 L 55 186 L 55 193 L 57 197 L 57 203 L 52 208 L 50 212 L 50 223 L 53 230 L 55 232 L 57 236 L 61 240 L 61 241 L 67 247 L 68 247 L 81 259 L 85 261 L 91 267 L 91 270 L 92 271 L 93 276 L 97 284 L 102 291 L 103 294 L 105 296 L 107 300 L 111 304 L 111 305 L 133 326 L 133 330 L 134 331 L 134 333 L 138 338 L 138 339 L 146 345 L 148 345 L 156 349 L 159 352 L 159 355 L 161 359 L 166 363 L 182 369 L 188 376 L 194 379 L 199 380 L 208 387 L 212 389 L 214 389 L 217 391 L 225 393 L 228 396 L 227 404 L 224 408 L 224 417 L 223 418 L 223 420 L 217 426 L 217 428 L 216 429 L 216 436 L 218 439 L 218 444 L 216 446 L 214 450 L 214 452 L 213 453 L 213 457 L 212 458 L 213 464 L 216 468 L 216 476 L 215 477 L 215 485 L 216 486 L 216 490 L 221 498 L 223 510 L 225 514 L 229 518 L 231 522 L 231 524 L 233 527 L 233 533 L 224 546 L 222 553 L 217 560 L 217 563 L 216 564 L 217 566 L 217 575 L 213 583 L 213 589 L 215 593 L 215 599 L 216 600 L 217 611 L 218 612 L 220 620 L 223 625 L 224 629 L 222 631 L 215 632 L 206 636 L 196 647 L 195 651 L 194 652 L 194 655 L 193 656 L 193 665 L 194 666 L 194 669 L 196 673 L 201 678 L 215 685 L 221 686 L 222 687 L 225 687 L 226 688 L 229 688 L 230 689 L 235 689 L 236 690 L 244 690 L 245 691 L 294 692 L 295 691 L 305 691 L 306 690 L 319 689 L 320 688 L 328 687 L 329 686 L 334 685 L 337 683 L 339 683 L 345 678 L 345 676 L 347 672 L 347 666 L 348 665 L 348 657 L 347 656 L 347 644 L 348 643 L 348 626 L 349 625 L 351 617 L 353 614 L 353 612 L 355 609 L 355 607 L 358 603 L 360 603 L 363 606 L 363 616 L 368 627 L 370 629 L 372 633 L 376 637 L 376 638 L 382 644 L 383 644 L 387 648 L 393 651 L 395 653 L 397 653 L 400 655 L 406 656 L 409 658 L 411 658 L 415 660 L 418 660 L 419 661 L 424 661 L 425 662 L 435 662 L 436 661 L 439 661 L 440 660 L 448 658 L 459 652 L 461 652 L 466 649 L 468 649 L 477 644 L 481 644 L 484 647 L 487 648 L 489 650 L 491 650 L 494 652 L 497 652 L 498 653 L 512 653 L 513 652 L 516 652 L 530 646 L 537 640 L 537 639 L 540 636 L 543 631 L 543 629 L 545 625 L 545 607 L 544 606 L 543 598 L 542 597 L 542 595 L 541 594 L 537 580 L 535 577 L 535 575 L 526 558 L 526 556 L 524 552 L 522 550 L 521 547 L 519 545 L 517 541 L 507 528 L 507 522 L 509 518 L 511 516 L 512 512 L 516 505 L 517 499 L 518 498 L 518 495 L 521 492 L 524 486 L 524 484 L 525 483 L 525 479 L 526 478 L 526 472 L 527 471 L 527 469 L 528 468 L 528 466 L 529 465 L 529 463 L 532 456 L 532 450 L 533 449 L 533 447 L 535 445 L 539 438 L 539 436 L 540 435 L 544 421 L 549 411 L 551 399 L 555 391 L 555 388 L 556 387 L 556 369 L 555 368 L 555 366 L 550 359 L 548 354 L 542 347 L 542 346 L 510 313 L 495 304 L 491 300 L 490 300 L 485 296 L 480 294 L 473 288 L 471 288 L 465 285 L 463 283 L 463 280 L 466 274 L 471 268 L 471 266 L 473 263 L 473 261 L 475 257 L 481 250 L 483 239 L 489 233 L 490 231 L 490 229 L 491 228 L 491 224 L 490 223 L 490 219 L 489 218 L 489 213 L 493 208 L 493 200 L 490 194 L 488 192 L 488 186 L 490 183 L 490 177 L 488 173 L 478 164 L 478 161 L 477 160 L 476 156 L 472 151 L 467 141 L 463 136 L 463 132 L 469 125 L 473 117 L 473 114 L 474 113 L 474 99 L 473 98 L 472 92 L 470 89 L 470 87 L 468 85 L 466 81 L 458 74 Z M 511 473 L 513 472 L 514 474 L 512 475 Z M 223 247 L 225 247 L 228 250 L 228 254 L 227 255 L 226 255 L 222 250 L 222 248 Z M 445 74 L 452 78 L 459 85 L 466 99 L 466 112 L 465 113 L 465 115 L 463 119 L 454 128 L 453 128 L 451 130 L 451 131 L 457 138 L 465 155 L 471 162 L 471 164 L 469 166 L 468 166 L 468 168 L 474 170 L 482 177 L 482 180 L 480 182 L 473 182 L 473 185 L 484 196 L 485 198 L 485 204 L 483 206 L 479 204 L 478 205 L 479 211 L 481 214 L 481 216 L 483 220 L 483 224 L 482 225 L 482 227 L 479 230 L 476 227 L 475 228 L 475 237 L 476 238 L 476 241 L 475 242 L 474 246 L 472 248 L 468 247 L 468 251 L 467 252 L 466 259 L 463 265 L 455 274 L 454 274 L 445 281 L 444 285 L 448 287 L 451 287 L 452 288 L 455 288 L 456 289 L 461 290 L 470 298 L 484 304 L 489 309 L 490 313 L 491 314 L 506 321 L 513 327 L 514 327 L 517 330 L 520 335 L 525 340 L 526 344 L 530 348 L 531 348 L 537 355 L 538 357 L 538 361 L 540 365 L 542 367 L 544 371 L 544 373 L 546 376 L 546 380 L 547 381 L 547 388 L 545 390 L 543 390 L 541 388 L 539 388 L 538 389 L 538 403 L 539 404 L 538 406 L 538 415 L 536 417 L 535 417 L 532 414 L 530 414 L 530 424 L 531 425 L 531 427 L 530 428 L 530 430 L 525 436 L 525 441 L 521 446 L 521 448 L 519 451 L 519 454 L 518 455 L 518 461 L 515 466 L 515 469 L 514 470 L 512 469 L 510 457 L 508 457 L 500 472 L 499 476 L 484 489 L 478 492 L 470 498 L 462 498 L 458 495 L 458 493 L 464 481 L 464 479 L 463 478 L 461 478 L 457 482 L 454 487 L 448 493 L 446 493 L 445 494 L 436 494 L 432 489 L 432 485 L 433 484 L 433 481 L 435 477 L 435 472 L 432 472 L 423 481 L 418 481 L 417 480 L 414 480 L 408 474 L 407 472 L 407 466 L 416 449 L 416 447 L 414 446 L 411 449 L 406 450 L 405 449 L 403 449 L 400 445 L 400 440 L 401 439 L 401 437 L 409 429 L 419 424 L 428 414 L 435 400 L 437 398 L 438 394 L 442 386 L 444 384 L 446 380 L 446 377 L 443 374 L 441 374 L 436 378 L 430 378 L 426 375 L 424 375 L 425 381 L 428 385 L 428 394 L 427 395 L 427 397 L 418 412 L 410 420 L 399 425 L 394 430 L 394 431 L 392 433 L 392 436 L 391 437 L 391 444 L 390 445 L 390 447 L 391 448 L 391 451 L 397 458 L 397 470 L 401 478 L 414 490 L 430 500 L 436 501 L 439 503 L 445 504 L 446 505 L 449 505 L 450 506 L 454 506 L 455 507 L 463 507 L 464 506 L 469 506 L 470 505 L 474 505 L 475 504 L 480 503 L 494 496 L 505 488 L 507 490 L 507 494 L 506 495 L 505 502 L 502 508 L 501 513 L 497 521 L 490 530 L 482 534 L 475 540 L 475 554 L 466 572 L 466 574 L 462 579 L 461 582 L 458 585 L 458 587 L 461 586 L 464 583 L 466 583 L 468 585 L 468 588 L 469 589 L 471 589 L 474 584 L 474 582 L 477 577 L 477 574 L 478 573 L 478 570 L 479 569 L 479 566 L 480 565 L 480 553 L 481 552 L 481 548 L 488 541 L 492 539 L 500 539 L 502 540 L 511 549 L 511 550 L 513 552 L 517 561 L 519 563 L 519 565 L 527 581 L 527 583 L 529 587 L 529 590 L 531 594 L 533 605 L 534 606 L 534 610 L 535 611 L 535 622 L 532 625 L 521 625 L 517 627 L 517 628 L 519 630 L 523 632 L 526 632 L 528 634 L 528 636 L 525 639 L 523 640 L 518 640 L 514 645 L 512 645 L 511 646 L 501 646 L 500 645 L 497 645 L 493 643 L 487 638 L 487 635 L 490 631 L 491 628 L 495 623 L 497 616 L 498 615 L 498 611 L 496 610 L 488 620 L 488 621 L 474 635 L 471 636 L 465 641 L 461 643 L 459 643 L 456 645 L 454 645 L 451 647 L 433 652 L 428 655 L 426 655 L 419 652 L 416 652 L 408 648 L 405 645 L 389 635 L 381 627 L 375 616 L 375 614 L 374 613 L 374 611 L 371 604 L 371 592 L 372 591 L 373 582 L 374 581 L 374 578 L 375 577 L 375 575 L 376 574 L 376 570 L 377 569 L 377 565 L 376 564 L 369 573 L 365 581 L 365 590 L 361 594 L 355 594 L 354 593 L 350 593 L 349 592 L 346 592 L 345 591 L 341 591 L 340 590 L 336 590 L 335 589 L 333 589 L 333 592 L 337 596 L 343 599 L 345 601 L 345 603 L 344 604 L 344 608 L 340 613 L 339 617 L 338 618 L 338 621 L 337 622 L 337 625 L 338 626 L 338 635 L 337 636 L 337 639 L 336 640 L 336 645 L 335 646 L 336 648 L 336 655 L 337 656 L 337 669 L 332 675 L 328 676 L 322 679 L 319 679 L 318 680 L 315 680 L 314 681 L 308 681 L 307 682 L 268 682 L 267 681 L 255 681 L 254 680 L 248 680 L 247 679 L 244 679 L 242 677 L 242 666 L 243 665 L 243 659 L 242 658 L 239 658 L 235 663 L 235 666 L 234 667 L 234 675 L 232 677 L 223 677 L 218 673 L 218 666 L 219 665 L 219 663 L 220 662 L 220 658 L 221 657 L 221 655 L 220 654 L 216 654 L 214 656 L 213 658 L 213 662 L 212 663 L 212 670 L 210 672 L 207 672 L 202 666 L 202 655 L 206 647 L 210 643 L 211 643 L 218 638 L 221 638 L 222 637 L 233 637 L 234 636 L 239 636 L 240 637 L 251 637 L 252 638 L 258 638 L 259 639 L 264 639 L 265 638 L 263 636 L 259 634 L 257 634 L 254 632 L 243 631 L 242 630 L 237 630 L 232 625 L 232 623 L 230 620 L 230 617 L 228 614 L 228 611 L 226 607 L 225 597 L 222 591 L 222 586 L 224 583 L 226 576 L 230 569 L 228 562 L 230 558 L 235 552 L 237 544 L 241 541 L 252 541 L 258 544 L 260 544 L 253 538 L 253 537 L 243 527 L 243 526 L 241 524 L 239 517 L 238 516 L 238 512 L 237 511 L 237 506 L 236 504 L 235 504 L 232 507 L 229 504 L 229 491 L 230 490 L 230 486 L 229 485 L 227 487 L 224 487 L 223 486 L 223 476 L 224 475 L 224 472 L 225 471 L 226 465 L 227 464 L 228 460 L 226 459 L 224 461 L 221 461 L 219 459 L 219 456 L 223 447 L 230 439 L 231 435 L 232 434 L 231 433 L 229 434 L 226 434 L 224 432 L 224 428 L 235 417 L 235 416 L 237 414 L 236 413 L 233 413 L 231 411 L 231 409 L 241 393 L 241 386 L 242 385 L 243 376 L 244 375 L 245 369 L 246 368 L 247 360 L 249 356 L 249 351 L 248 351 L 246 353 L 243 359 L 243 362 L 234 378 L 234 382 L 233 383 L 233 385 L 231 387 L 228 387 L 227 386 L 224 386 L 223 385 L 217 384 L 213 381 L 213 377 L 212 376 L 197 374 L 195 372 L 195 369 L 196 368 L 196 365 L 195 364 L 189 363 L 188 362 L 185 362 L 184 361 L 181 361 L 180 360 L 177 360 L 176 359 L 173 359 L 172 358 L 168 357 L 166 355 L 166 353 L 168 351 L 172 350 L 173 348 L 168 345 L 156 342 L 147 337 L 143 333 L 142 331 L 144 329 L 148 329 L 149 328 L 144 323 L 140 321 L 132 314 L 127 311 L 117 300 L 117 299 L 111 292 L 108 286 L 106 284 L 102 276 L 102 274 L 100 271 L 100 269 L 97 263 L 97 261 L 92 256 L 86 253 L 76 244 L 75 244 L 64 233 L 64 232 L 58 225 L 57 221 L 56 220 L 57 214 L 63 209 L 65 209 L 68 207 L 66 203 L 65 197 L 62 191 L 63 185 L 68 179 L 74 179 L 77 181 L 81 182 L 86 186 L 88 186 L 88 184 L 86 182 L 86 180 L 84 177 L 84 175 L 82 171 L 82 164 L 83 163 L 83 161 L 89 156 L 96 156 L 98 157 L 104 163 L 104 164 L 111 173 L 112 176 L 113 176 L 113 161 L 114 160 L 114 157 L 115 155 L 119 151 L 123 151 L 127 153 L 132 158 L 132 159 L 134 161 L 135 167 L 136 168 L 136 172 L 138 176 L 141 175 L 148 168 L 150 167 L 153 167 L 161 171 L 164 174 L 164 197 L 163 198 L 163 202 L 162 203 L 162 206 L 161 207 L 161 211 L 171 221 L 171 222 L 176 227 L 176 228 L 180 232 L 183 237 L 188 242 L 190 242 L 193 239 L 195 239 L 198 242 L 202 249 L 202 251 L 204 255 L 210 263 L 213 263 L 214 260 L 217 257 L 219 257 L 222 260 L 226 268 L 226 270 L 229 274 L 231 272 L 231 271 L 234 268 L 235 268 L 238 271 L 241 279 L 245 284 L 247 284 L 247 282 L 250 279 L 251 279 L 259 287 L 265 297 L 268 300 L 270 300 L 272 297 L 272 295 L 271 294 L 271 292 L 269 290 L 268 287 L 266 285 L 264 281 L 258 275 L 254 275 L 251 272 L 249 268 L 249 265 L 247 263 L 246 263 L 244 265 L 241 265 L 239 263 L 237 259 L 237 244 L 235 243 L 231 245 L 229 243 L 229 233 L 230 232 L 230 229 L 231 228 L 231 224 L 230 223 L 227 223 L 225 221 L 225 215 L 229 208 L 229 204 L 225 204 L 223 202 L 223 198 L 225 194 L 230 189 L 231 189 L 233 186 L 233 181 L 234 180 L 234 177 L 235 176 L 237 168 L 242 159 L 242 157 L 240 155 L 237 154 L 228 146 L 223 136 L 223 120 L 229 108 L 239 100 L 241 100 L 247 97 L 252 97 L 253 96 L 256 96 L 257 97 L 261 97 L 262 98 L 266 99 L 277 109 L 279 109 L 287 103 L 295 99 L 302 97 L 303 96 L 303 94 L 308 90 L 312 90 L 313 91 L 322 91 L 323 90 L 323 88 L 322 87 L 322 83 L 325 80 L 333 81 L 339 84 L 341 86 L 343 86 L 352 78 L 354 77 L 357 77 L 360 80 L 360 84 L 359 85 L 359 87 L 360 88 L 362 88 L 363 87 L 375 87 L 376 88 L 382 88 L 383 89 L 394 90 L 395 91 L 398 91 L 401 93 L 403 93 L 406 86 L 412 80 L 425 73 L 428 73 L 429 72 L 437 72 L 438 73 L 442 73 L 443 74 Z" fill="#010101" fill-rule="evenodd"/></svg>