<svg xmlns="http://www.w3.org/2000/svg" viewBox="0 0 653 704" shape-rendering="geometricPrecision"><title>intro frame 069</title><path d="M 417 571 L 419 574 L 419 577 L 420 578 L 423 578 L 427 581 L 438 580 L 441 581 L 446 586 L 450 586 L 456 588 L 464 588 L 465 589 L 485 589 L 488 587 L 490 587 L 492 585 L 500 584 L 510 575 L 515 575 L 519 571 L 523 570 L 524 569 L 524 563 L 522 559 L 516 553 L 513 552 L 510 553 L 505 552 L 502 555 L 501 554 L 496 554 L 494 552 L 494 540 L 493 539 L 488 539 L 487 540 L 487 552 L 485 554 L 483 552 L 483 550 L 477 545 L 477 543 L 474 540 L 475 536 L 473 533 L 471 532 L 466 532 L 462 535 L 460 535 L 456 540 L 447 543 L 443 543 L 440 546 L 437 547 L 427 558 L 419 563 Z M 387 512 L 382 516 L 382 519 L 381 520 L 382 522 L 385 520 L 385 518 L 388 514 Z M 372 510 L 370 511 L 370 517 L 371 517 L 372 514 Z M 213 509 L 207 522 L 205 524 L 204 530 L 202 532 L 202 534 L 199 538 L 199 540 L 196 546 L 190 552 L 190 553 L 193 553 L 196 557 L 192 565 L 192 568 L 189 575 L 189 580 L 188 581 L 188 586 L 187 588 L 202 602 L 204 606 L 202 608 L 200 608 L 198 606 L 190 604 L 181 600 L 170 599 L 169 598 L 160 598 L 159 599 L 150 599 L 141 603 L 138 606 L 136 611 L 142 614 L 144 612 L 146 607 L 148 605 L 152 604 L 154 605 L 161 614 L 161 620 L 163 621 L 163 619 L 170 611 L 176 612 L 180 616 L 181 619 L 181 622 L 179 626 L 179 632 L 180 633 L 183 633 L 192 636 L 205 643 L 207 643 L 213 646 L 217 646 L 222 649 L 225 649 L 227 651 L 237 653 L 241 649 L 243 644 L 243 641 L 246 635 L 247 627 L 249 624 L 249 621 L 250 620 L 250 609 L 254 603 L 254 600 L 255 597 L 257 595 L 260 586 L 260 583 L 261 581 L 268 575 L 268 573 L 270 571 L 270 567 L 271 565 L 268 559 L 242 534 L 241 534 L 217 509 Z M 41 285 L 42 287 L 46 285 L 56 285 L 59 286 L 54 282 L 51 282 L 50 281 L 44 282 Z M 64 264 L 65 266 L 67 265 L 74 265 L 76 267 L 78 267 L 87 274 L 90 278 L 90 286 L 87 289 L 84 290 L 75 290 L 73 292 L 73 295 L 69 301 L 67 308 L 65 310 L 62 311 L 66 316 L 68 321 L 68 325 L 67 326 L 66 333 L 67 334 L 67 338 L 71 342 L 73 346 L 73 350 L 71 352 L 68 352 L 67 353 L 56 351 L 58 353 L 66 356 L 71 356 L 72 357 L 77 357 L 78 358 L 87 358 L 88 359 L 114 359 L 118 355 L 121 355 L 122 356 L 128 356 L 137 359 L 143 359 L 144 360 L 156 361 L 157 362 L 174 362 L 180 359 L 184 359 L 185 358 L 188 358 L 197 355 L 202 351 L 201 348 L 201 340 L 203 334 L 208 325 L 207 323 L 207 315 L 214 305 L 216 299 L 221 293 L 222 290 L 221 287 L 229 277 L 229 272 L 230 271 L 229 268 L 226 268 L 223 271 L 219 273 L 216 273 L 210 275 L 208 277 L 212 282 L 205 285 L 203 284 L 199 284 L 198 283 L 194 283 L 193 282 L 185 282 L 187 288 L 181 292 L 175 292 L 172 290 L 168 290 L 167 289 L 163 289 L 161 288 L 156 292 L 153 293 L 148 291 L 130 291 L 128 290 L 125 287 L 123 277 L 119 268 L 114 263 L 111 262 L 105 262 L 103 265 L 106 264 L 111 265 L 120 275 L 120 285 L 118 288 L 114 291 L 109 291 L 108 290 L 105 290 L 102 288 L 94 279 L 87 274 L 83 269 L 80 268 L 77 265 L 72 263 L 65 263 Z M 88 293 L 104 293 L 105 294 L 111 295 L 120 303 L 122 307 L 121 319 L 119 322 L 116 333 L 110 345 L 105 350 L 103 350 L 101 352 L 98 353 L 90 353 L 89 352 L 86 352 L 74 341 L 72 337 L 71 325 L 72 324 L 72 312 L 73 311 L 74 304 L 80 297 Z M 426 24 L 415 23 L 403 27 L 393 36 L 392 40 L 388 46 L 377 42 L 374 42 L 369 40 L 364 40 L 363 39 L 345 39 L 344 40 L 340 40 L 338 38 L 339 33 L 341 30 L 340 29 L 334 31 L 328 38 L 324 38 L 317 33 L 311 32 L 310 33 L 312 39 L 308 43 L 292 43 L 287 48 L 282 49 L 270 55 L 261 62 L 260 62 L 256 58 L 255 55 L 248 49 L 241 46 L 234 46 L 233 47 L 226 48 L 215 55 L 211 60 L 207 69 L 206 80 L 210 91 L 217 98 L 225 100 L 227 102 L 226 108 L 218 125 L 219 135 L 208 148 L 209 150 L 214 149 L 216 151 L 216 154 L 209 168 L 210 170 L 214 168 L 217 171 L 215 177 L 215 180 L 213 184 L 213 191 L 215 192 L 217 190 L 220 190 L 222 192 L 222 196 L 221 197 L 222 211 L 223 213 L 225 213 L 225 212 L 229 209 L 232 212 L 233 220 L 235 226 L 236 227 L 241 223 L 247 232 L 254 233 L 256 235 L 258 235 L 267 241 L 275 249 L 276 254 L 272 257 L 265 252 L 262 251 L 257 252 L 253 255 L 240 269 L 238 269 L 238 270 L 241 272 L 240 275 L 228 288 L 231 292 L 231 295 L 225 301 L 226 303 L 226 308 L 222 316 L 222 325 L 217 336 L 220 337 L 225 333 L 230 333 L 231 334 L 231 337 L 213 366 L 212 370 L 216 375 L 213 382 L 210 385 L 205 393 L 205 395 L 209 393 L 212 396 L 212 399 L 202 420 L 202 423 L 207 422 L 209 424 L 209 429 L 208 430 L 208 433 L 205 442 L 204 452 L 205 452 L 208 448 L 211 452 L 210 470 L 211 470 L 213 467 L 216 469 L 217 480 L 221 488 L 228 496 L 233 495 L 235 497 L 237 503 L 239 505 L 242 505 L 243 504 L 250 513 L 254 516 L 254 514 L 252 512 L 250 505 L 248 502 L 247 494 L 246 493 L 246 485 L 245 484 L 246 474 L 245 472 L 246 471 L 246 468 L 248 467 L 249 468 L 249 489 L 251 491 L 251 493 L 255 501 L 260 508 L 263 515 L 266 515 L 269 518 L 272 525 L 276 529 L 278 529 L 273 520 L 271 514 L 271 510 L 273 508 L 275 510 L 276 514 L 280 520 L 292 532 L 301 538 L 302 538 L 307 532 L 310 532 L 313 534 L 315 534 L 326 520 L 328 522 L 328 532 L 327 533 L 327 537 L 328 538 L 330 538 L 344 525 L 346 525 L 349 528 L 348 536 L 349 537 L 351 535 L 353 535 L 356 532 L 356 530 L 358 528 L 359 523 L 362 518 L 362 513 L 364 511 L 363 506 L 365 504 L 369 505 L 372 501 L 370 498 L 371 497 L 367 494 L 364 494 L 358 490 L 354 490 L 352 488 L 350 488 L 338 482 L 330 482 L 326 480 L 323 477 L 320 476 L 312 470 L 303 461 L 300 456 L 296 453 L 295 451 L 295 447 L 292 445 L 292 442 L 290 439 L 290 437 L 283 424 L 276 415 L 274 409 L 274 400 L 276 395 L 278 393 L 278 389 L 279 388 L 279 376 L 285 367 L 292 361 L 294 361 L 296 359 L 306 357 L 319 352 L 323 348 L 339 338 L 347 330 L 354 325 L 358 320 L 357 311 L 354 304 L 354 298 L 356 296 L 364 306 L 365 310 L 370 315 L 375 312 L 378 312 L 381 315 L 386 316 L 389 319 L 388 322 L 374 334 L 360 341 L 357 344 L 348 349 L 333 360 L 319 367 L 312 368 L 306 371 L 303 371 L 297 375 L 294 379 L 295 382 L 303 381 L 305 383 L 305 386 L 302 392 L 294 399 L 292 403 L 292 407 L 298 409 L 306 403 L 308 403 L 311 406 L 306 421 L 306 428 L 307 430 L 309 430 L 313 427 L 316 429 L 327 419 L 331 418 L 334 421 L 334 426 L 333 427 L 333 431 L 332 433 L 336 436 L 337 439 L 339 439 L 340 438 L 350 438 L 358 434 L 360 432 L 370 427 L 383 414 L 387 415 L 389 414 L 392 410 L 394 410 L 399 406 L 403 406 L 404 407 L 410 403 L 414 402 L 425 392 L 431 390 L 435 385 L 439 385 L 440 386 L 439 389 L 441 390 L 447 382 L 448 379 L 452 375 L 454 374 L 458 374 L 460 372 L 460 369 L 462 366 L 462 354 L 463 352 L 466 350 L 472 356 L 474 355 L 473 337 L 462 320 L 462 318 L 464 316 L 468 316 L 463 306 L 455 297 L 455 292 L 445 280 L 448 276 L 452 277 L 451 274 L 443 266 L 440 265 L 434 259 L 437 255 L 433 252 L 426 249 L 424 247 L 422 247 L 419 244 L 413 244 L 408 246 L 403 246 L 396 251 L 394 251 L 391 248 L 394 237 L 397 234 L 403 238 L 405 235 L 406 231 L 408 229 L 413 229 L 416 226 L 416 218 L 417 217 L 420 217 L 423 219 L 422 222 L 422 226 L 423 227 L 427 223 L 428 219 L 425 220 L 423 218 L 422 215 L 423 209 L 426 206 L 429 206 L 431 208 L 432 205 L 423 195 L 425 193 L 428 193 L 431 195 L 436 196 L 436 192 L 434 189 L 434 186 L 436 184 L 439 184 L 443 189 L 444 189 L 444 185 L 442 179 L 438 176 L 440 173 L 443 174 L 444 171 L 442 167 L 438 163 L 438 160 L 440 159 L 441 160 L 444 160 L 447 162 L 453 162 L 456 165 L 459 172 L 463 175 L 464 174 L 462 166 L 460 163 L 460 160 L 458 158 L 458 154 L 461 151 L 464 151 L 465 150 L 463 148 L 462 144 L 454 136 L 453 133 L 456 129 L 462 129 L 462 128 L 458 124 L 449 118 L 449 115 L 451 113 L 451 110 L 446 104 L 441 95 L 440 91 L 432 80 L 437 75 L 441 74 L 445 70 L 450 59 L 450 47 L 447 41 L 440 32 L 435 28 Z M 230 445 L 231 446 L 231 457 L 230 458 L 230 462 L 227 464 L 225 462 L 225 451 L 227 447 Z M 226 419 L 228 421 L 228 424 L 224 433 L 221 436 L 219 434 L 219 430 L 222 423 Z M 339 313 L 342 315 L 344 319 L 344 321 L 341 324 L 339 324 L 337 322 L 337 315 Z M 279 299 L 280 301 L 275 305 L 274 303 Z M 385 245 L 386 248 L 384 250 L 383 247 Z M 374 246 L 374 248 L 370 254 L 356 267 L 347 273 L 343 277 L 337 279 L 334 279 L 332 281 L 325 281 L 317 277 L 300 265 L 292 257 L 292 253 L 294 251 L 301 251 L 305 253 L 310 253 L 311 254 L 329 254 L 330 253 L 337 253 L 342 251 L 351 250 L 368 244 L 372 244 Z M 359 131 L 363 126 L 371 122 L 375 122 L 376 121 L 393 122 L 403 126 L 409 132 L 410 134 L 410 140 L 408 144 L 401 150 L 393 151 L 392 152 L 390 151 L 381 151 L 380 150 L 374 149 L 366 145 L 359 138 Z M 317 115 L 317 117 L 315 119 L 311 119 L 302 116 L 291 116 L 286 118 L 283 118 L 281 116 L 284 112 L 289 109 L 292 109 L 293 108 L 301 108 L 302 107 L 314 111 Z M 263 101 L 267 101 L 273 108 L 273 117 L 272 120 L 270 122 L 271 123 L 281 122 L 282 121 L 288 121 L 289 122 L 297 123 L 306 128 L 310 133 L 310 139 L 308 144 L 305 148 L 296 155 L 286 159 L 277 159 L 271 157 L 264 153 L 259 147 L 256 145 L 255 148 L 255 159 L 257 162 L 265 168 L 272 168 L 276 166 L 281 161 L 286 161 L 291 164 L 294 164 L 299 166 L 304 166 L 305 167 L 316 167 L 317 166 L 320 166 L 326 163 L 328 163 L 335 159 L 342 152 L 342 150 L 346 146 L 349 147 L 353 151 L 355 155 L 355 162 L 356 163 L 356 186 L 355 187 L 355 192 L 354 193 L 353 202 L 345 219 L 337 227 L 323 235 L 317 236 L 316 235 L 309 235 L 303 233 L 297 230 L 282 215 L 270 198 L 270 196 L 267 191 L 267 188 L 265 183 L 265 179 L 256 175 L 248 167 L 245 161 L 244 151 L 243 151 L 235 159 L 231 161 L 226 161 L 222 159 L 219 156 L 219 153 L 218 152 L 219 150 L 219 146 L 221 142 L 226 137 L 235 133 L 242 133 L 244 134 L 248 139 L 252 137 L 254 137 L 256 135 L 258 131 L 258 128 L 254 124 L 254 114 L 258 105 Z M 347 96 L 353 97 L 356 100 L 357 103 L 359 105 L 359 109 L 360 110 L 359 119 L 356 125 L 353 128 L 350 129 L 346 128 L 340 122 L 338 117 L 338 107 L 340 102 Z M 279 67 L 279 70 L 275 74 L 268 77 L 264 81 L 259 82 L 256 78 L 257 73 L 265 64 L 270 62 L 273 62 Z M 239 60 L 243 62 L 249 68 L 249 71 L 244 76 L 237 87 L 231 93 L 229 93 L 219 84 L 218 81 L 219 71 L 227 62 L 231 60 Z M 342 59 L 347 53 L 358 54 L 363 57 L 367 61 L 367 69 L 364 72 L 361 72 L 356 68 L 345 65 L 343 63 Z M 414 37 L 423 36 L 429 39 L 437 48 L 438 51 L 438 60 L 437 63 L 428 71 L 423 71 L 419 66 L 407 57 L 402 51 L 404 46 Z" fill="#FBFBFB" fill-rule="evenodd"/><path d="M 494 622 L 499 621 L 505 618 L 509 618 L 526 634 L 530 636 L 533 636 L 537 639 L 547 640 L 538 639 L 533 636 L 527 634 L 510 618 L 505 618 L 499 621 Z M 198 479 L 199 488 L 204 494 L 204 499 L 195 508 L 194 511 L 192 513 L 192 516 L 191 517 L 191 526 L 181 539 L 180 542 L 180 557 L 177 563 L 180 557 L 180 542 L 182 539 L 182 537 L 191 526 L 191 517 L 194 510 L 205 498 L 205 494 L 199 487 Z M 522 451 L 518 459 L 499 477 L 496 484 L 495 493 L 497 496 L 497 498 L 501 504 L 506 508 L 514 508 L 515 507 L 521 506 L 517 506 L 512 508 L 505 507 L 501 503 L 496 495 L 495 492 L 496 484 L 498 479 L 501 475 L 519 458 Z M 230 446 L 228 447 L 226 451 L 226 462 L 227 463 L 229 462 L 229 458 L 230 457 Z M 226 420 L 223 423 L 220 430 L 220 434 L 221 435 L 226 427 L 227 424 L 227 421 Z M 502 416 L 502 429 L 503 430 L 504 440 L 505 441 L 505 450 L 506 452 L 507 452 L 508 449 L 510 447 L 511 441 L 512 440 L 512 431 L 510 426 L 504 420 L 504 416 Z M 474 338 L 475 355 L 472 357 L 466 351 L 464 352 L 463 354 L 463 366 L 461 369 L 461 372 L 458 375 L 454 375 L 452 376 L 441 391 L 438 389 L 439 386 L 435 386 L 431 391 L 425 393 L 414 403 L 410 404 L 404 408 L 403 407 L 399 407 L 394 411 L 392 411 L 391 413 L 387 416 L 383 415 L 370 428 L 350 439 L 340 439 L 337 440 L 335 438 L 335 436 L 331 433 L 332 431 L 332 427 L 333 426 L 333 421 L 331 419 L 327 420 L 318 429 L 316 430 L 313 428 L 311 430 L 307 431 L 305 428 L 305 421 L 310 406 L 308 404 L 306 404 L 298 410 L 294 409 L 291 407 L 291 403 L 293 399 L 301 392 L 304 386 L 304 383 L 303 382 L 295 383 L 293 381 L 294 377 L 303 370 L 306 370 L 309 368 L 311 368 L 299 372 L 293 378 L 293 382 L 294 383 L 302 382 L 304 385 L 301 391 L 298 393 L 291 401 L 290 408 L 293 412 L 296 412 L 306 405 L 309 406 L 309 410 L 307 413 L 306 419 L 305 420 L 305 431 L 307 434 L 309 435 L 315 435 L 320 428 L 328 420 L 331 420 L 333 422 L 333 424 L 332 425 L 332 429 L 328 436 L 328 439 L 330 441 L 333 440 L 337 443 L 348 441 L 351 439 L 355 438 L 357 436 L 370 429 L 381 419 L 385 420 L 393 412 L 397 410 L 400 412 L 399 415 L 399 420 L 400 420 L 404 416 L 406 416 L 419 401 L 421 400 L 424 404 L 429 400 L 435 392 L 437 394 L 439 394 L 446 387 L 451 379 L 454 381 L 454 385 L 452 390 L 452 393 L 453 393 L 457 389 L 461 381 L 461 378 L 463 373 L 463 359 L 464 358 L 464 355 L 465 354 L 468 355 L 470 362 L 473 367 L 474 367 L 475 365 L 475 362 L 476 361 L 476 348 L 475 347 Z M 230 334 L 225 334 L 220 338 L 218 338 L 216 336 L 217 334 L 216 336 L 217 339 L 221 339 L 223 337 L 225 337 L 227 340 L 224 343 L 223 346 L 220 349 L 218 349 L 216 359 L 210 370 L 210 372 L 214 375 L 214 378 L 203 394 L 204 397 L 208 395 L 211 397 L 210 401 L 206 408 L 206 410 L 202 417 L 201 423 L 200 424 L 200 426 L 202 426 L 205 423 L 208 425 L 208 429 L 207 430 L 205 441 L 205 438 L 208 429 L 208 424 L 207 423 L 202 424 L 201 423 L 201 420 L 206 410 L 206 408 L 210 402 L 211 396 L 209 394 L 205 396 L 204 393 L 209 385 L 212 382 L 215 375 L 211 370 L 212 366 L 230 337 Z M 339 314 L 338 315 L 338 322 L 341 323 L 343 321 L 343 319 L 341 315 Z M 388 319 L 386 317 L 381 316 L 378 313 L 375 313 L 370 316 L 365 311 L 369 318 L 371 318 L 377 313 L 380 316 L 385 317 L 387 319 L 387 321 L 381 327 L 373 333 L 361 339 L 358 342 L 343 352 L 340 353 L 337 356 L 334 357 L 329 361 L 327 361 L 325 363 L 318 366 L 324 364 L 326 362 L 333 359 L 339 354 L 357 343 L 360 340 L 374 333 L 383 326 L 387 322 Z M 577 589 L 576 588 L 576 584 L 575 583 L 572 568 L 570 565 L 570 562 L 568 559 L 564 546 L 562 544 L 558 536 L 548 524 L 540 520 L 525 520 L 524 521 L 517 522 L 514 525 L 513 534 L 510 538 L 504 531 L 500 530 L 496 526 L 493 526 L 490 522 L 490 515 L 486 508 L 486 505 L 479 510 L 475 510 L 472 507 L 472 501 L 473 498 L 481 484 L 481 482 L 483 479 L 486 470 L 486 465 L 487 464 L 487 449 L 489 447 L 492 448 L 493 447 L 492 445 L 492 441 L 491 440 L 491 436 L 489 432 L 489 429 L 485 417 L 486 408 L 481 399 L 475 393 L 454 409 L 452 409 L 446 413 L 439 415 L 434 419 L 422 424 L 419 427 L 407 433 L 404 436 L 399 438 L 396 441 L 384 445 L 378 445 L 372 447 L 368 450 L 363 458 L 349 459 L 343 461 L 331 461 L 330 460 L 326 460 L 325 459 L 322 459 L 313 453 L 301 448 L 293 441 L 290 435 L 290 433 L 286 428 L 281 419 L 278 416 L 275 409 L 275 400 L 280 391 L 280 377 L 282 373 L 289 365 L 297 360 L 307 358 L 308 357 L 312 357 L 318 354 L 321 351 L 342 337 L 358 323 L 359 317 L 358 316 L 358 311 L 357 310 L 357 307 L 355 301 L 357 299 L 362 305 L 364 309 L 364 308 L 356 297 L 355 298 L 355 304 L 358 311 L 358 316 L 359 317 L 359 320 L 357 323 L 347 331 L 339 339 L 323 349 L 319 353 L 306 358 L 296 360 L 294 362 L 292 362 L 286 367 L 280 376 L 280 388 L 279 389 L 279 393 L 277 395 L 275 400 L 275 409 L 277 415 L 282 421 L 286 429 L 288 431 L 293 442 L 293 445 L 296 447 L 296 451 L 297 453 L 301 456 L 304 461 L 312 469 L 330 481 L 338 481 L 350 487 L 352 487 L 354 489 L 358 489 L 364 493 L 367 493 L 372 497 L 371 498 L 373 501 L 372 503 L 369 506 L 366 505 L 364 506 L 365 511 L 363 513 L 363 518 L 360 523 L 357 532 L 353 536 L 351 536 L 349 538 L 347 536 L 348 528 L 346 526 L 344 526 L 330 539 L 328 539 L 326 537 L 326 533 L 327 532 L 327 522 L 326 521 L 315 535 L 313 535 L 310 533 L 307 533 L 305 536 L 301 539 L 292 533 L 279 520 L 273 509 L 272 510 L 272 514 L 274 520 L 279 528 L 278 530 L 276 530 L 271 525 L 268 518 L 266 516 L 263 516 L 259 508 L 254 501 L 250 493 L 250 491 L 248 489 L 248 468 L 247 468 L 247 471 L 246 472 L 247 474 L 247 478 L 246 479 L 247 493 L 248 494 L 248 499 L 251 505 L 252 510 L 255 514 L 254 517 L 249 513 L 243 505 L 242 506 L 239 506 L 236 503 L 233 496 L 228 497 L 220 488 L 216 480 L 215 469 L 213 468 L 211 471 L 209 470 L 210 452 L 208 449 L 206 452 L 204 453 L 203 452 L 203 448 L 203 455 L 204 456 L 207 452 L 210 455 L 209 458 L 209 476 L 210 477 L 212 473 L 215 474 L 216 482 L 220 492 L 228 502 L 229 506 L 230 506 L 230 502 L 232 500 L 235 502 L 237 508 L 242 517 L 242 519 L 239 521 L 233 515 L 231 511 L 229 510 L 226 511 L 218 506 L 215 506 L 209 512 L 208 517 L 203 526 L 203 528 L 197 540 L 197 542 L 195 546 L 189 552 L 189 554 L 191 554 L 190 554 L 189 552 L 195 546 L 198 540 L 198 538 L 203 530 L 204 524 L 206 522 L 211 510 L 213 508 L 217 508 L 241 533 L 242 533 L 269 559 L 272 565 L 271 567 L 271 571 L 269 573 L 269 575 L 263 581 L 262 581 L 261 583 L 261 586 L 258 595 L 256 597 L 255 603 L 251 609 L 251 620 L 250 621 L 250 624 L 248 627 L 247 635 L 244 641 L 243 647 L 237 654 L 234 654 L 230 652 L 227 652 L 225 650 L 222 650 L 217 647 L 213 647 L 207 644 L 205 644 L 192 637 L 183 634 L 180 634 L 178 632 L 178 626 L 180 622 L 180 619 L 179 616 L 176 613 L 170 612 L 164 619 L 164 621 L 162 622 L 160 620 L 160 614 L 156 608 L 152 605 L 148 606 L 145 612 L 142 615 L 139 613 L 137 613 L 135 611 L 137 606 L 141 602 L 150 598 L 159 598 L 160 597 L 169 597 L 170 598 L 181 599 L 190 603 L 198 605 L 200 607 L 202 607 L 203 605 L 201 602 L 186 588 L 187 586 L 187 581 L 188 580 L 188 575 L 191 566 L 185 589 L 188 592 L 195 596 L 201 602 L 202 604 L 200 606 L 181 599 L 171 598 L 170 597 L 157 597 L 156 598 L 150 598 L 141 602 L 135 609 L 135 613 L 138 613 L 141 617 L 145 620 L 144 619 L 144 613 L 146 609 L 149 606 L 152 606 L 157 610 L 158 612 L 158 622 L 155 626 L 147 626 L 147 629 L 148 630 L 149 629 L 161 629 L 164 630 L 165 629 L 164 628 L 164 622 L 166 619 L 166 617 L 170 613 L 175 613 L 179 616 L 180 619 L 179 625 L 176 630 L 176 633 L 177 634 L 181 635 L 185 638 L 189 638 L 197 644 L 206 647 L 209 650 L 211 650 L 214 653 L 224 658 L 231 660 L 238 664 L 245 664 L 246 663 L 250 663 L 256 660 L 259 657 L 263 648 L 264 637 L 265 636 L 266 629 L 269 625 L 271 625 L 274 628 L 276 627 L 278 621 L 280 607 L 282 602 L 285 599 L 289 602 L 290 596 L 295 591 L 296 588 L 298 586 L 300 586 L 316 569 L 314 567 L 310 566 L 303 560 L 302 557 L 305 553 L 309 553 L 314 555 L 318 555 L 319 556 L 328 557 L 329 558 L 334 558 L 335 559 L 343 559 L 344 560 L 374 560 L 375 559 L 382 558 L 385 556 L 392 556 L 395 560 L 394 563 L 388 568 L 388 570 L 395 580 L 416 603 L 421 602 L 431 610 L 440 615 L 442 615 L 446 611 L 454 611 L 459 613 L 480 613 L 492 609 L 496 609 L 500 607 L 507 606 L 517 601 L 519 601 L 525 597 L 528 597 L 530 599 L 530 603 L 525 610 L 526 615 L 537 625 L 544 628 L 552 628 L 553 627 L 552 624 L 550 622 L 550 620 L 552 618 L 566 618 L 572 616 L 572 614 L 569 614 L 562 609 L 561 607 L 561 602 L 564 599 L 576 600 L 577 599 Z M 416 571 L 418 563 L 427 557 L 437 546 L 440 545 L 443 542 L 447 542 L 456 539 L 460 534 L 462 534 L 466 531 L 471 531 L 474 533 L 476 536 L 475 540 L 478 543 L 478 545 L 484 550 L 485 553 L 486 552 L 486 540 L 488 538 L 493 538 L 495 540 L 495 552 L 496 553 L 501 553 L 502 554 L 505 551 L 508 552 L 511 551 L 516 552 L 523 559 L 525 563 L 525 569 L 523 571 L 519 572 L 515 576 L 510 576 L 500 585 L 495 585 L 485 590 L 465 590 L 464 589 L 456 589 L 455 588 L 446 587 L 441 582 L 438 581 L 427 582 L 423 579 L 420 579 L 418 577 L 418 574 Z M 261 524 L 265 524 L 268 527 L 269 531 L 272 536 L 271 538 L 268 538 L 259 529 L 259 526 Z M 279 524 L 280 523 L 289 532 L 287 534 L 280 527 Z M 245 512 L 249 515 L 252 520 L 257 525 L 258 528 L 256 530 L 248 524 L 245 520 L 245 516 L 244 515 Z M 387 511 L 389 514 L 386 518 L 386 520 L 382 523 L 380 521 L 381 516 Z M 372 509 L 373 510 L 373 514 L 372 517 L 370 518 L 369 517 L 369 511 Z M 252 501 L 253 501 L 257 506 L 261 514 L 260 516 L 255 512 L 251 503 Z M 88 294 L 80 298 L 75 304 L 74 310 L 75 305 L 80 299 L 87 295 L 90 295 L 91 294 L 107 295 L 113 298 L 119 304 L 121 310 L 120 318 L 112 339 L 106 346 L 98 351 L 88 351 L 81 347 L 74 339 L 72 325 L 73 337 L 75 341 L 86 351 L 89 351 L 90 352 L 98 352 L 101 351 L 103 349 L 105 349 L 109 345 L 115 333 L 118 322 L 120 319 L 121 307 L 119 303 L 111 296 L 105 295 L 104 294 Z M 191 265 L 188 267 L 184 267 L 183 268 L 175 268 L 170 270 L 166 273 L 147 273 L 146 274 L 137 274 L 135 272 L 135 271 L 137 274 L 148 274 L 149 273 L 166 274 L 172 269 L 175 268 L 185 268 Z M 40 285 L 43 282 L 40 285 L 39 288 L 41 294 L 43 290 L 46 287 L 49 286 L 54 286 L 60 288 L 62 290 L 66 291 L 69 294 L 69 297 L 67 299 L 67 306 L 64 309 L 61 309 L 60 310 L 38 310 L 37 311 L 37 314 L 39 318 L 44 323 L 45 323 L 42 319 L 42 315 L 45 311 L 56 312 L 63 315 L 65 317 L 66 324 L 64 329 L 62 331 L 58 331 L 52 333 L 46 340 L 47 343 L 58 354 L 70 358 L 84 359 L 85 360 L 93 360 L 94 361 L 107 361 L 110 362 L 113 365 L 118 367 L 120 369 L 122 369 L 125 371 L 134 374 L 144 375 L 148 377 L 154 377 L 155 378 L 172 378 L 173 377 L 175 378 L 189 378 L 191 377 L 193 379 L 195 379 L 199 363 L 204 355 L 204 352 L 202 347 L 202 340 L 203 337 L 202 340 L 202 348 L 203 351 L 197 356 L 188 359 L 185 359 L 184 360 L 180 360 L 174 363 L 157 363 L 156 362 L 149 362 L 148 361 L 137 360 L 136 359 L 133 359 L 128 357 L 122 357 L 121 356 L 118 356 L 114 360 L 88 360 L 87 359 L 78 359 L 77 358 L 66 357 L 60 355 L 55 351 L 56 350 L 59 350 L 60 351 L 65 351 L 67 352 L 72 350 L 72 346 L 70 342 L 66 338 L 66 334 L 65 333 L 66 326 L 67 325 L 67 321 L 65 316 L 61 311 L 63 309 L 66 308 L 68 301 L 72 295 L 72 292 L 75 289 L 84 289 L 87 288 L 89 286 L 89 278 L 87 275 L 78 268 L 76 268 L 74 266 L 67 266 L 65 267 L 63 264 L 65 262 L 72 262 L 77 264 L 80 267 L 83 268 L 87 273 L 94 278 L 102 287 L 105 289 L 114 290 L 116 289 L 119 285 L 119 275 L 111 266 L 108 265 L 103 266 L 102 265 L 105 261 L 111 261 L 114 262 L 120 268 L 124 277 L 126 287 L 130 290 L 147 290 L 129 289 L 126 286 L 124 276 L 122 273 L 121 269 L 117 264 L 111 261 L 104 261 L 100 265 L 98 276 L 96 278 L 94 278 L 81 266 L 73 262 L 69 262 L 68 261 L 65 262 L 62 266 L 62 268 L 64 270 L 68 267 L 73 267 L 79 270 L 86 276 L 88 279 L 88 283 L 84 288 L 81 288 L 80 289 L 68 289 L 65 288 L 58 283 L 56 283 L 54 281 L 51 281 L 54 281 L 60 286 L 59 287 L 56 286 L 46 286 L 42 288 Z M 50 339 L 52 337 L 55 336 L 61 336 L 65 338 L 70 343 L 71 345 L 71 349 L 69 351 L 62 351 L 59 350 L 53 346 L 50 341 Z M 105 266 L 109 266 L 116 272 L 118 276 L 118 284 L 114 289 L 107 289 L 102 286 L 99 282 L 101 272 Z M 373 246 L 372 245 L 368 245 L 351 251 L 342 252 L 337 254 L 330 254 L 329 255 L 311 255 L 310 254 L 305 254 L 301 252 L 294 252 L 293 253 L 293 257 L 300 264 L 317 276 L 325 280 L 332 280 L 334 278 L 337 278 L 343 276 L 347 272 L 356 266 L 369 254 L 372 250 Z M 318 274 L 319 273 L 327 274 L 328 275 L 331 275 L 332 277 L 330 279 L 326 279 Z M 343 269 L 345 271 L 342 274 L 339 275 L 338 273 Z M 319 257 L 320 256 L 323 256 L 324 258 L 323 259 L 320 259 Z M 295 254 L 298 253 L 301 255 L 305 255 L 307 256 L 308 258 L 304 260 L 308 264 L 310 264 L 313 267 L 313 269 L 311 270 L 300 262 L 295 257 Z M 365 251 L 366 249 L 369 249 L 370 250 L 368 252 Z M 211 215 L 212 219 L 215 223 L 223 229 L 227 237 L 232 241 L 232 243 L 228 247 L 220 252 L 217 255 L 211 257 L 218 255 L 223 250 L 230 246 L 233 242 L 226 235 L 224 229 L 222 227 L 219 226 L 213 220 Z M 212 185 L 212 192 L 213 193 L 216 193 L 217 192 L 220 193 L 220 206 L 221 207 L 222 214 L 225 215 L 228 211 L 231 213 L 233 224 L 235 228 L 237 229 L 240 226 L 243 228 L 247 236 L 256 246 L 257 248 L 256 251 L 253 254 L 247 254 L 243 262 L 241 260 L 234 260 L 231 262 L 229 262 L 228 265 L 222 270 L 215 273 L 208 274 L 207 275 L 207 278 L 209 281 L 207 283 L 200 283 L 199 282 L 183 280 L 182 282 L 184 284 L 185 287 L 182 290 L 179 291 L 169 289 L 168 288 L 164 288 L 163 287 L 159 287 L 155 291 L 149 291 L 154 292 L 161 287 L 163 288 L 167 288 L 168 289 L 172 289 L 175 291 L 181 291 L 186 288 L 186 286 L 184 283 L 185 281 L 193 281 L 194 282 L 198 282 L 199 283 L 203 283 L 205 284 L 211 282 L 207 277 L 210 274 L 216 272 L 219 272 L 223 270 L 226 267 L 229 267 L 231 269 L 230 277 L 222 287 L 223 289 L 222 293 L 217 299 L 215 305 L 211 310 L 215 306 L 220 303 L 224 303 L 225 304 L 224 301 L 230 295 L 230 292 L 227 288 L 240 273 L 237 269 L 240 268 L 253 254 L 260 250 L 265 251 L 272 256 L 275 254 L 274 249 L 267 242 L 258 236 L 256 236 L 254 234 L 247 233 L 241 224 L 236 228 L 233 224 L 231 212 L 229 210 L 228 210 L 225 214 L 222 213 L 221 211 L 221 207 L 220 206 L 221 192 L 220 191 L 217 191 L 214 193 L 212 191 Z M 228 292 L 229 295 L 226 298 L 220 301 L 219 298 L 221 295 L 225 292 Z M 235 273 L 237 275 L 235 278 L 231 281 L 230 278 Z M 264 245 L 265 244 L 268 245 L 274 252 L 271 254 L 264 247 Z M 360 131 L 360 138 L 366 144 L 374 148 L 380 149 L 381 150 L 390 150 L 392 151 L 393 150 L 401 149 L 407 144 L 409 140 L 409 134 L 408 132 L 403 127 L 393 123 L 388 123 L 387 122 L 376 122 L 375 123 L 371 123 L 363 127 Z M 360 132 L 365 126 L 373 123 L 389 123 L 390 124 L 395 124 L 398 126 L 402 127 L 408 133 L 409 135 L 409 140 L 402 147 L 397 149 L 391 149 L 390 150 L 387 149 L 380 149 L 374 147 L 365 142 L 361 138 L 360 136 Z M 308 131 L 303 127 L 293 123 L 289 123 L 288 122 L 275 123 L 287 122 L 288 123 L 293 123 L 299 125 L 304 128 L 308 132 L 309 134 L 309 139 L 307 144 L 297 153 L 284 158 L 277 158 L 274 157 L 277 158 L 286 158 L 296 154 L 303 149 L 307 144 L 309 139 L 309 133 Z M 222 142 L 219 151 L 220 156 L 226 160 L 231 160 L 235 158 L 243 150 L 245 151 L 245 157 L 245 150 L 246 149 L 247 142 L 250 139 L 253 138 L 255 140 L 254 159 L 261 167 L 265 169 L 273 169 L 282 163 L 286 163 L 293 166 L 297 166 L 303 168 L 316 168 L 317 167 L 320 167 L 326 165 L 338 158 L 343 151 L 346 148 L 348 148 L 353 154 L 354 164 L 355 165 L 355 182 L 354 183 L 353 196 L 348 211 L 344 218 L 337 225 L 329 230 L 320 234 L 312 234 L 311 233 L 304 232 L 296 228 L 285 217 L 273 201 L 268 191 L 268 189 L 271 198 L 283 215 L 297 229 L 303 232 L 309 234 L 316 234 L 317 235 L 323 234 L 337 226 L 344 219 L 352 202 L 352 198 L 354 192 L 354 187 L 355 186 L 355 163 L 354 162 L 354 155 L 352 151 L 349 148 L 346 147 L 343 150 L 343 152 L 335 160 L 328 164 L 326 164 L 320 167 L 317 167 L 316 168 L 305 168 L 304 167 L 299 167 L 298 166 L 291 165 L 286 162 L 281 162 L 276 167 L 272 169 L 265 169 L 260 166 L 254 159 L 254 148 L 255 145 L 257 144 L 264 152 L 272 156 L 267 154 L 259 146 L 256 140 L 256 136 L 258 132 L 261 129 L 255 124 L 255 114 L 255 124 L 259 128 L 259 131 L 257 135 L 254 138 L 248 140 L 246 137 L 242 134 L 235 134 L 226 138 Z M 243 137 L 242 139 L 237 139 L 235 141 L 232 141 L 227 145 L 225 149 L 228 154 L 231 155 L 232 157 L 227 159 L 224 158 L 220 154 L 221 146 L 230 137 L 232 137 L 235 135 L 240 135 Z M 316 117 L 316 115 L 314 112 L 303 108 L 301 109 L 293 109 L 292 110 L 289 110 L 282 115 L 283 117 L 286 117 L 291 115 L 302 115 L 311 118 L 315 118 Z M 210 92 L 216 99 L 221 101 L 224 101 L 226 103 L 223 113 L 217 125 L 217 132 L 218 134 L 216 138 L 208 146 L 206 150 L 207 152 L 211 150 L 214 152 L 214 156 L 208 168 L 208 171 L 209 172 L 212 170 L 215 172 L 215 176 L 214 177 L 213 183 L 216 171 L 214 169 L 210 171 L 208 168 L 215 154 L 215 151 L 214 150 L 209 151 L 207 148 L 218 135 L 217 125 L 225 108 L 226 102 L 217 99 Z M 460 68 L 456 76 L 451 81 L 450 85 L 464 107 L 466 112 L 466 115 L 475 123 L 477 127 L 476 124 L 466 114 L 463 105 L 451 86 L 451 82 L 457 75 Z M 278 67 L 273 63 L 270 63 L 265 65 L 258 73 L 257 76 L 258 80 L 259 81 L 262 81 L 268 76 L 275 73 L 278 70 Z M 275 64 L 278 68 L 277 71 L 275 73 L 271 74 L 262 81 L 260 81 L 257 78 L 258 73 L 263 67 L 271 63 Z M 239 61 L 231 61 L 227 63 L 220 71 L 220 74 L 219 75 L 219 81 L 220 84 L 229 92 L 231 92 L 236 87 L 240 80 L 248 71 L 248 68 L 243 63 Z M 222 81 L 224 80 L 225 83 L 223 84 Z M 244 70 L 245 71 L 239 78 L 239 80 L 236 83 L 234 87 L 231 90 L 229 90 L 226 87 L 227 85 L 230 84 L 228 81 L 229 80 L 234 80 L 242 70 Z M 233 64 L 234 63 L 237 63 L 238 65 L 237 66 L 234 66 Z M 343 59 L 344 63 L 347 65 L 350 65 L 356 67 L 361 71 L 364 71 L 366 69 L 366 61 L 358 55 L 347 54 Z M 344 57 L 348 54 L 354 54 L 362 58 L 366 62 L 366 68 L 364 70 L 360 70 L 354 66 L 347 65 L 344 62 Z M 414 38 L 405 46 L 403 51 L 407 56 L 419 65 L 423 70 L 428 70 L 436 63 L 437 60 L 437 51 L 436 48 L 429 40 L 423 37 Z M 416 39 L 426 40 L 433 46 L 436 51 L 436 60 L 434 63 L 427 69 L 425 69 L 422 67 L 420 64 L 412 57 L 409 56 L 404 52 L 405 48 L 411 42 Z M 310 30 L 309 31 L 310 39 L 307 42 L 291 42 L 285 48 L 283 48 L 287 47 L 292 42 L 308 42 L 311 39 L 309 33 L 311 31 L 317 32 L 324 37 L 328 37 L 334 30 L 338 28 L 340 28 L 342 30 L 339 36 L 340 39 L 344 39 L 345 38 L 363 38 L 364 39 L 369 39 L 370 40 L 377 41 L 388 45 L 391 40 L 392 36 L 400 28 L 410 23 L 414 23 L 415 22 L 426 23 L 435 27 L 442 33 L 448 41 L 451 47 L 451 59 L 446 70 L 441 75 L 437 76 L 433 80 L 441 91 L 442 95 L 447 104 L 452 110 L 452 113 L 450 115 L 450 118 L 458 123 L 463 128 L 462 130 L 456 130 L 454 133 L 455 136 L 463 144 L 464 148 L 466 150 L 464 152 L 461 152 L 459 154 L 459 158 L 461 160 L 461 163 L 463 166 L 465 174 L 463 176 L 461 175 L 458 172 L 455 165 L 453 163 L 447 163 L 444 161 L 439 160 L 439 163 L 443 167 L 445 171 L 445 173 L 443 175 L 442 174 L 439 175 L 439 176 L 443 179 L 445 185 L 445 189 L 443 190 L 439 185 L 436 185 L 435 186 L 435 189 L 437 192 L 437 196 L 436 197 L 431 196 L 428 194 L 425 194 L 424 195 L 433 205 L 433 207 L 431 209 L 429 207 L 426 207 L 424 209 L 423 215 L 425 219 L 427 218 L 429 219 L 428 223 L 423 228 L 421 226 L 422 219 L 417 218 L 417 226 L 413 230 L 408 230 L 406 233 L 405 237 L 403 239 L 397 235 L 395 237 L 395 239 L 393 242 L 393 246 L 392 248 L 394 250 L 396 250 L 403 245 L 408 245 L 413 243 L 419 243 L 422 246 L 424 246 L 426 248 L 433 251 L 438 255 L 435 259 L 440 264 L 443 265 L 453 276 L 452 278 L 448 277 L 446 280 L 456 292 L 456 297 L 464 306 L 469 315 L 468 317 L 464 317 L 463 320 L 473 336 L 472 333 L 464 321 L 464 318 L 465 317 L 469 319 L 471 318 L 464 306 L 457 298 L 457 293 L 447 281 L 449 278 L 456 280 L 456 278 L 446 267 L 442 265 L 436 259 L 438 257 L 441 257 L 439 254 L 427 248 L 420 240 L 416 240 L 415 241 L 413 240 L 415 237 L 420 237 L 424 233 L 426 233 L 429 230 L 435 227 L 445 218 L 450 206 L 450 200 L 451 197 L 453 195 L 456 197 L 458 197 L 458 194 L 459 193 L 458 177 L 460 175 L 463 176 L 465 178 L 466 177 L 466 173 L 459 155 L 461 153 L 464 153 L 468 155 L 469 152 L 465 145 L 455 134 L 455 132 L 457 130 L 461 130 L 462 131 L 465 131 L 466 130 L 459 123 L 456 122 L 450 117 L 454 112 L 447 103 L 440 89 L 434 81 L 437 77 L 441 75 L 446 70 L 451 60 L 451 47 L 448 40 L 442 32 L 436 27 L 430 24 L 423 23 L 422 22 L 414 22 L 401 27 L 394 33 L 390 40 L 390 42 L 388 44 L 385 44 L 378 41 L 375 41 L 366 38 L 344 38 L 341 39 L 339 37 L 340 33 L 342 30 L 341 28 L 337 28 L 327 37 L 323 36 L 316 31 Z M 437 216 L 438 219 L 432 228 L 430 226 L 430 223 L 433 221 L 435 217 Z M 455 193 L 457 192 L 458 195 L 456 196 Z" fill="#D8D8D8" fill-rule="evenodd"/><path d="M 261 525 L 260 526 L 260 529 L 268 537 L 271 537 L 267 527 L 265 525 Z M 280 524 L 281 527 L 287 533 L 288 532 Z M 245 513 L 246 520 L 248 523 L 256 529 L 257 528 L 256 525 L 251 520 L 248 515 Z M 252 502 L 256 512 L 260 515 L 254 503 Z M 502 413 L 500 416 L 500 426 L 501 427 L 501 432 L 502 433 L 502 438 L 503 439 L 504 456 L 505 457 L 508 455 L 513 445 L 514 432 L 511 425 L 506 419 L 506 414 L 505 413 Z M 502 415 L 505 416 L 505 420 L 511 426 L 513 431 L 513 440 L 512 441 L 512 444 L 507 453 L 506 453 L 504 450 L 504 441 L 503 440 L 503 435 L 501 429 L 501 416 Z M 51 339 L 52 343 L 54 346 L 62 350 L 69 350 L 70 349 L 70 345 L 65 339 L 61 337 L 55 337 Z M 91 295 L 83 298 L 80 300 L 76 305 L 74 311 L 73 329 L 74 330 L 74 336 L 75 339 L 81 346 L 88 350 L 98 350 L 106 345 L 111 339 L 119 318 L 120 310 L 118 304 L 113 299 L 107 296 Z M 228 293 L 223 294 L 220 298 L 220 300 L 226 297 L 228 295 Z M 319 274 L 326 278 L 330 278 L 331 276 Z M 235 274 L 231 278 L 231 280 L 234 278 L 236 275 Z M 105 267 L 102 272 L 100 282 L 102 285 L 107 288 L 114 288 L 117 284 L 117 276 L 115 272 L 109 267 Z M 296 254 L 296 257 L 300 261 L 312 269 L 312 267 L 310 265 L 308 265 L 303 260 L 305 258 L 307 258 L 307 257 Z M 265 245 L 265 247 L 271 253 L 273 252 L 272 250 L 268 246 Z M 437 217 L 436 217 L 435 220 L 431 223 L 431 226 L 432 227 L 436 221 Z M 248 142 L 247 149 L 246 150 L 246 158 L 249 165 L 255 172 L 260 175 L 264 176 L 267 179 L 268 188 L 274 201 L 286 217 L 296 227 L 304 231 L 307 231 L 312 233 L 320 233 L 334 226 L 343 218 L 347 211 L 347 209 L 350 203 L 350 200 L 352 196 L 352 191 L 353 190 L 353 183 L 354 182 L 354 165 L 353 164 L 353 158 L 351 152 L 348 149 L 346 149 L 338 159 L 332 163 L 320 168 L 317 168 L 316 169 L 303 169 L 302 168 L 293 167 L 286 164 L 282 164 L 273 170 L 265 170 L 261 168 L 253 159 L 254 140 L 252 139 Z M 249 142 L 251 140 L 254 142 L 253 149 L 252 150 L 252 156 L 254 162 L 257 166 L 262 170 L 265 171 L 272 171 L 282 165 L 286 165 L 290 167 L 303 169 L 304 170 L 315 170 L 316 169 L 319 169 L 333 163 L 336 161 L 346 150 L 348 150 L 352 156 L 352 160 L 353 161 L 353 185 L 352 186 L 352 191 L 351 192 L 351 196 L 350 197 L 349 204 L 343 217 L 339 221 L 337 220 L 344 205 L 344 200 L 345 198 L 343 193 L 336 187 L 330 186 L 329 185 L 323 185 L 314 188 L 312 190 L 309 191 L 297 202 L 294 209 L 294 212 L 297 219 L 304 227 L 301 229 L 296 226 L 283 212 L 272 196 L 268 186 L 268 179 L 265 175 L 262 175 L 258 173 L 249 164 L 247 159 L 247 155 L 246 154 L 247 152 L 247 147 Z M 242 137 L 240 136 L 235 136 L 232 138 L 230 138 L 222 146 L 221 154 L 226 158 L 231 157 L 231 156 L 229 156 L 227 154 L 224 148 L 226 145 L 232 140 L 235 140 L 237 138 L 242 138 Z M 361 132 L 361 136 L 365 141 L 374 146 L 380 148 L 387 148 L 388 149 L 391 148 L 397 148 L 402 146 L 408 140 L 408 135 L 407 133 L 402 128 L 398 127 L 395 125 L 390 125 L 389 124 L 373 124 L 365 127 Z M 263 103 L 259 107 L 256 113 L 256 124 L 262 129 L 259 132 L 257 136 L 257 140 L 260 146 L 267 153 L 277 157 L 288 156 L 300 150 L 307 142 L 308 139 L 308 134 L 307 132 L 299 126 L 293 124 L 288 124 L 287 123 L 274 124 L 268 126 L 267 123 L 271 117 L 271 108 L 267 103 Z M 258 135 L 264 128 L 268 126 L 271 126 L 276 124 L 291 124 L 303 129 L 307 133 L 308 137 L 307 138 L 307 141 L 305 144 L 296 152 L 286 156 L 275 156 L 268 153 L 260 145 L 258 141 Z M 267 104 L 270 107 L 271 115 L 269 120 L 263 126 L 260 127 L 256 123 L 256 114 L 259 108 L 263 104 Z M 346 98 L 342 102 L 340 107 L 340 117 L 342 122 L 346 126 L 352 126 L 355 123 L 357 119 L 358 109 L 356 103 L 352 99 L 350 98 Z M 348 98 L 351 99 L 357 106 L 357 118 L 355 122 L 351 126 L 347 126 L 342 121 L 340 116 L 340 108 L 342 103 Z M 244 71 L 242 71 L 234 81 L 229 81 L 231 84 L 229 86 L 227 86 L 229 89 L 231 89 L 233 87 L 235 83 L 238 80 L 238 78 Z M 276 66 L 272 64 L 266 66 L 261 70 L 259 73 L 258 78 L 260 80 L 262 80 L 271 73 L 275 72 L 277 69 Z M 276 68 L 273 72 L 268 74 L 264 78 L 261 79 L 259 77 L 259 74 L 266 67 L 270 65 L 273 65 Z M 345 57 L 345 62 L 347 64 L 354 65 L 360 69 L 364 69 L 365 68 L 365 62 L 359 57 L 354 55 L 348 55 Z M 345 59 L 348 56 L 354 56 L 357 57 L 363 61 L 365 66 L 363 68 L 361 68 L 356 65 L 347 63 L 345 61 Z M 416 40 L 411 43 L 406 48 L 405 52 L 412 56 L 418 62 L 419 62 L 422 66 L 425 68 L 427 68 L 431 65 L 435 60 L 435 51 L 432 46 L 426 41 Z M 432 23 L 426 21 L 420 21 L 419 20 L 415 20 L 414 21 L 408 22 L 397 28 L 392 33 L 389 40 L 387 42 L 378 39 L 365 37 L 364 36 L 346 36 L 343 37 L 342 36 L 342 33 L 343 32 L 343 27 L 342 26 L 339 26 L 334 28 L 327 35 L 323 34 L 318 30 L 312 28 L 309 28 L 307 30 L 307 33 L 309 37 L 307 40 L 293 40 L 292 41 L 288 41 L 287 44 L 285 46 L 270 52 L 261 59 L 253 49 L 243 44 L 231 44 L 221 48 L 214 53 L 209 59 L 204 72 L 204 82 L 207 90 L 215 100 L 221 102 L 224 105 L 222 112 L 216 124 L 216 127 L 215 128 L 216 130 L 216 135 L 207 145 L 204 151 L 205 153 L 209 153 L 211 152 L 213 154 L 207 166 L 207 173 L 208 174 L 211 173 L 213 175 L 213 178 L 211 183 L 211 194 L 212 195 L 217 194 L 219 196 L 219 209 L 221 215 L 223 217 L 225 217 L 228 214 L 230 216 L 232 222 L 232 226 L 234 230 L 237 233 L 238 231 L 241 229 L 247 238 L 254 246 L 255 250 L 253 252 L 243 251 L 242 252 L 242 255 L 240 257 L 226 261 L 224 265 L 220 269 L 216 271 L 213 271 L 207 273 L 205 275 L 205 279 L 203 281 L 197 281 L 196 280 L 191 280 L 190 279 L 181 279 L 179 281 L 182 286 L 180 289 L 175 289 L 166 286 L 157 286 L 154 290 L 150 290 L 144 288 L 134 288 L 133 287 L 130 287 L 127 284 L 124 272 L 120 265 L 113 260 L 109 260 L 108 259 L 103 260 L 99 264 L 97 272 L 94 275 L 80 264 L 71 260 L 66 260 L 64 261 L 61 265 L 61 271 L 63 276 L 67 280 L 69 284 L 67 287 L 57 281 L 51 280 L 50 279 L 44 280 L 39 284 L 38 287 L 38 293 L 39 295 L 53 302 L 57 306 L 56 308 L 37 308 L 35 311 L 36 316 L 39 321 L 50 332 L 45 338 L 45 343 L 50 349 L 56 354 L 65 358 L 73 359 L 74 360 L 79 360 L 80 361 L 86 361 L 87 362 L 103 362 L 109 364 L 111 366 L 124 373 L 133 376 L 137 376 L 138 377 L 142 377 L 148 379 L 153 379 L 154 380 L 189 380 L 192 382 L 196 382 L 197 381 L 198 374 L 199 373 L 199 369 L 205 357 L 204 337 L 207 330 L 211 324 L 209 320 L 209 316 L 211 312 L 218 306 L 222 305 L 224 307 L 223 311 L 218 319 L 220 325 L 214 338 L 214 340 L 217 343 L 217 348 L 215 352 L 213 362 L 208 371 L 208 374 L 212 377 L 212 379 L 201 395 L 201 398 L 202 399 L 207 398 L 209 400 L 201 416 L 200 422 L 199 423 L 199 428 L 200 429 L 203 427 L 206 428 L 206 432 L 204 436 L 204 440 L 202 446 L 202 457 L 204 458 L 206 456 L 208 458 L 208 478 L 209 480 L 213 479 L 215 481 L 216 488 L 225 505 L 224 506 L 221 506 L 218 504 L 215 504 L 212 506 L 206 514 L 206 518 L 202 524 L 199 534 L 193 546 L 187 553 L 187 555 L 192 555 L 193 556 L 193 559 L 190 564 L 183 589 L 186 593 L 194 597 L 199 602 L 197 604 L 188 600 L 186 600 L 183 598 L 173 597 L 172 596 L 154 596 L 153 597 L 146 598 L 140 601 L 136 605 L 133 611 L 132 619 L 137 615 L 144 624 L 144 628 L 142 630 L 136 627 L 137 631 L 140 635 L 144 638 L 145 638 L 151 631 L 159 631 L 164 633 L 172 633 L 177 637 L 179 637 L 188 642 L 190 642 L 192 644 L 224 660 L 226 660 L 239 666 L 246 666 L 258 661 L 262 656 L 265 648 L 266 638 L 267 637 L 268 630 L 271 628 L 275 631 L 278 627 L 279 620 L 281 615 L 281 611 L 282 610 L 282 606 L 285 603 L 288 606 L 290 606 L 292 597 L 298 595 L 299 591 L 304 584 L 308 581 L 319 569 L 318 566 L 309 563 L 305 559 L 305 557 L 307 555 L 317 557 L 318 558 L 322 558 L 323 559 L 335 560 L 336 561 L 347 561 L 348 562 L 371 562 L 372 561 L 381 560 L 387 557 L 391 557 L 393 559 L 393 561 L 392 563 L 387 567 L 387 571 L 392 579 L 416 605 L 421 604 L 434 614 L 440 617 L 444 617 L 448 612 L 461 614 L 462 615 L 476 615 L 477 614 L 483 614 L 491 611 L 506 608 L 526 600 L 528 603 L 523 610 L 523 614 L 533 624 L 542 629 L 545 629 L 546 630 L 558 630 L 559 628 L 553 622 L 555 619 L 558 619 L 559 620 L 572 619 L 574 618 L 576 615 L 575 612 L 567 611 L 563 606 L 563 603 L 565 601 L 577 602 L 578 601 L 579 595 L 578 594 L 578 586 L 577 585 L 576 576 L 574 572 L 574 569 L 570 557 L 563 541 L 555 529 L 548 522 L 540 518 L 526 518 L 525 519 L 522 519 L 513 522 L 510 524 L 510 527 L 506 530 L 503 526 L 500 527 L 497 524 L 495 524 L 493 522 L 493 516 L 487 502 L 484 502 L 479 508 L 476 508 L 474 506 L 474 500 L 483 484 L 487 472 L 488 461 L 489 460 L 488 457 L 489 452 L 490 451 L 493 452 L 495 450 L 492 433 L 487 419 L 487 416 L 490 413 L 490 411 L 486 403 L 478 393 L 482 388 L 481 385 L 478 385 L 458 404 L 439 413 L 434 417 L 428 420 L 423 421 L 418 425 L 408 430 L 398 437 L 392 440 L 386 441 L 382 443 L 373 444 L 358 453 L 356 453 L 350 456 L 342 457 L 341 458 L 339 457 L 336 458 L 325 457 L 310 449 L 301 446 L 294 439 L 286 423 L 279 415 L 277 410 L 277 400 L 281 394 L 281 380 L 284 373 L 287 369 L 293 364 L 299 361 L 302 361 L 307 359 L 311 359 L 318 356 L 322 352 L 342 339 L 359 324 L 360 322 L 360 312 L 362 310 L 366 315 L 366 317 L 368 320 L 371 320 L 377 316 L 383 318 L 385 321 L 376 329 L 363 336 L 339 353 L 336 354 L 333 357 L 331 357 L 329 359 L 316 366 L 307 367 L 298 371 L 291 379 L 291 384 L 292 385 L 298 385 L 300 384 L 302 386 L 289 401 L 288 408 L 289 411 L 292 414 L 297 414 L 305 408 L 307 410 L 303 422 L 303 432 L 307 436 L 309 437 L 316 437 L 325 425 L 329 422 L 331 424 L 326 435 L 326 441 L 334 447 L 337 447 L 340 445 L 346 444 L 351 441 L 357 439 L 367 432 L 378 426 L 382 427 L 385 423 L 395 414 L 397 416 L 396 425 L 399 425 L 405 420 L 419 405 L 424 409 L 429 405 L 432 404 L 449 386 L 451 387 L 450 396 L 457 392 L 460 388 L 463 381 L 464 370 L 465 369 L 465 361 L 466 360 L 468 361 L 473 371 L 476 368 L 477 365 L 477 344 L 476 343 L 475 337 L 471 329 L 466 322 L 468 320 L 473 321 L 473 319 L 469 311 L 459 297 L 460 294 L 450 282 L 452 280 L 456 282 L 459 282 L 459 280 L 453 272 L 447 266 L 440 261 L 441 259 L 444 259 L 445 257 L 440 253 L 430 248 L 428 246 L 430 244 L 430 242 L 427 242 L 423 239 L 425 236 L 437 229 L 445 221 L 449 214 L 451 208 L 452 200 L 454 198 L 456 200 L 459 199 L 460 197 L 460 180 L 459 179 L 461 177 L 465 180 L 468 179 L 468 173 L 464 164 L 464 162 L 462 160 L 461 157 L 463 155 L 467 157 L 470 157 L 471 156 L 471 152 L 468 146 L 457 134 L 459 132 L 466 133 L 468 130 L 465 126 L 453 118 L 453 116 L 456 114 L 456 112 L 449 103 L 442 89 L 437 82 L 437 80 L 447 71 L 450 66 L 450 64 L 452 61 L 452 56 L 453 55 L 452 46 L 450 40 L 446 34 L 440 28 Z M 172 614 L 174 614 L 178 618 L 177 626 L 173 631 L 169 630 L 166 627 L 166 621 L 168 617 Z M 149 608 L 152 608 L 156 612 L 156 620 L 153 624 L 149 624 L 146 621 L 146 612 Z M 427 22 L 436 26 L 441 30 L 449 40 L 452 47 L 452 60 L 450 63 L 450 65 L 447 70 L 441 76 L 437 78 L 435 81 L 441 89 L 448 103 L 455 112 L 451 117 L 456 121 L 459 122 L 467 130 L 465 132 L 457 131 L 456 134 L 466 145 L 470 152 L 470 154 L 468 156 L 464 154 L 461 154 L 460 155 L 467 173 L 467 177 L 465 179 L 461 176 L 459 177 L 459 184 L 460 185 L 460 193 L 459 194 L 459 197 L 458 198 L 456 198 L 454 196 L 452 197 L 451 200 L 451 206 L 446 218 L 435 228 L 429 231 L 426 234 L 424 234 L 420 238 L 415 238 L 414 240 L 416 239 L 420 239 L 427 247 L 439 253 L 442 257 L 437 259 L 442 264 L 446 266 L 457 278 L 456 281 L 451 279 L 449 279 L 448 281 L 458 293 L 458 298 L 465 306 L 472 318 L 470 320 L 465 318 L 465 321 L 473 333 L 475 338 L 476 347 L 477 348 L 477 361 L 476 362 L 476 365 L 475 367 L 473 368 L 469 362 L 467 355 L 465 355 L 465 358 L 464 359 L 464 373 L 463 374 L 461 384 L 458 389 L 453 394 L 451 393 L 451 390 L 453 385 L 453 381 L 451 380 L 447 387 L 439 395 L 437 395 L 435 393 L 430 400 L 424 405 L 421 401 L 419 402 L 412 411 L 406 417 L 404 417 L 400 421 L 398 420 L 399 412 L 397 411 L 393 413 L 385 421 L 381 420 L 370 430 L 367 431 L 355 439 L 345 443 L 340 443 L 339 444 L 337 444 L 333 441 L 330 442 L 327 439 L 327 436 L 331 429 L 331 425 L 332 424 L 331 421 L 328 421 L 321 428 L 315 436 L 309 436 L 307 435 L 304 431 L 304 420 L 305 419 L 306 413 L 308 410 L 308 406 L 306 406 L 296 413 L 293 413 L 289 408 L 290 401 L 292 398 L 300 391 L 303 385 L 302 383 L 294 384 L 292 382 L 292 378 L 299 371 L 309 367 L 312 367 L 313 366 L 317 366 L 325 362 L 327 360 L 329 360 L 334 356 L 337 355 L 340 352 L 343 351 L 358 341 L 361 338 L 376 330 L 386 321 L 385 318 L 380 317 L 377 314 L 371 319 L 369 319 L 367 317 L 361 305 L 357 300 L 356 302 L 359 311 L 360 320 L 359 323 L 353 329 L 348 332 L 342 338 L 334 344 L 321 352 L 318 355 L 312 358 L 308 358 L 307 359 L 297 361 L 289 366 L 283 373 L 281 377 L 281 391 L 276 400 L 276 409 L 279 416 L 282 419 L 287 428 L 291 433 L 291 435 L 294 441 L 298 445 L 313 452 L 322 458 L 330 459 L 331 460 L 343 460 L 349 458 L 363 457 L 367 450 L 372 446 L 378 444 L 384 444 L 396 440 L 399 437 L 404 435 L 407 432 L 419 426 L 422 423 L 434 418 L 439 414 L 441 414 L 450 410 L 452 408 L 454 408 L 475 392 L 482 399 L 486 405 L 487 408 L 486 417 L 490 429 L 490 432 L 492 436 L 492 440 L 493 441 L 493 445 L 494 447 L 492 449 L 491 448 L 488 449 L 488 464 L 487 465 L 487 470 L 484 479 L 482 482 L 482 484 L 474 498 L 473 501 L 473 507 L 475 509 L 479 509 L 486 504 L 487 505 L 487 508 L 491 515 L 491 522 L 493 525 L 496 525 L 500 529 L 504 530 L 510 537 L 512 534 L 513 525 L 517 521 L 524 520 L 525 519 L 540 519 L 548 523 L 559 536 L 560 539 L 565 546 L 566 551 L 568 554 L 575 575 L 575 579 L 576 580 L 577 588 L 578 589 L 578 599 L 576 601 L 564 600 L 562 602 L 562 607 L 563 609 L 569 613 L 572 613 L 573 616 L 571 618 L 567 618 L 566 619 L 552 619 L 551 622 L 553 624 L 554 627 L 552 629 L 544 629 L 537 626 L 525 615 L 524 610 L 529 603 L 529 599 L 528 598 L 525 598 L 523 600 L 521 600 L 519 602 L 517 602 L 507 607 L 500 608 L 496 610 L 492 610 L 480 614 L 459 614 L 454 612 L 446 612 L 442 616 L 440 616 L 431 611 L 423 604 L 421 603 L 416 604 L 394 580 L 387 570 L 387 568 L 393 563 L 394 559 L 392 557 L 385 557 L 382 559 L 375 560 L 374 561 L 344 561 L 343 560 L 335 560 L 334 559 L 323 558 L 318 556 L 305 554 L 303 557 L 304 560 L 310 565 L 314 566 L 317 569 L 300 587 L 297 588 L 296 591 L 291 596 L 290 602 L 288 603 L 286 600 L 283 602 L 281 607 L 281 611 L 280 612 L 280 616 L 279 617 L 279 621 L 277 627 L 274 629 L 271 626 L 269 626 L 267 629 L 266 636 L 265 637 L 265 644 L 260 657 L 256 661 L 250 664 L 238 665 L 231 661 L 224 659 L 214 654 L 211 651 L 209 651 L 204 647 L 197 645 L 189 639 L 185 639 L 183 637 L 177 635 L 175 633 L 175 630 L 179 622 L 179 619 L 177 615 L 175 614 L 170 614 L 167 617 L 167 619 L 165 622 L 165 628 L 166 629 L 164 631 L 161 630 L 149 630 L 148 631 L 146 629 L 146 626 L 147 625 L 155 625 L 157 622 L 157 612 L 156 610 L 152 607 L 149 607 L 145 613 L 145 619 L 146 620 L 144 621 L 138 614 L 135 614 L 134 613 L 134 609 L 141 601 L 150 597 L 156 597 L 157 596 L 170 596 L 171 597 L 181 598 L 200 605 L 201 604 L 200 602 L 195 597 L 188 593 L 184 589 L 186 583 L 187 575 L 189 571 L 189 568 L 194 558 L 194 555 L 193 554 L 189 555 L 188 552 L 194 546 L 196 540 L 200 533 L 202 526 L 207 517 L 208 512 L 215 505 L 218 505 L 226 510 L 228 509 L 231 510 L 233 512 L 234 515 L 239 520 L 241 519 L 241 517 L 236 508 L 234 502 L 232 501 L 231 502 L 231 506 L 229 507 L 227 502 L 219 492 L 215 482 L 214 474 L 212 474 L 212 476 L 210 478 L 208 476 L 208 458 L 209 455 L 207 453 L 204 457 L 202 455 L 202 448 L 203 447 L 204 438 L 207 429 L 207 425 L 205 424 L 202 427 L 199 426 L 201 417 L 210 398 L 209 396 L 205 398 L 202 396 L 202 394 L 213 378 L 213 375 L 209 372 L 209 370 L 215 359 L 217 349 L 220 348 L 226 340 L 225 338 L 223 338 L 221 340 L 217 340 L 215 338 L 215 336 L 220 326 L 219 318 L 224 309 L 225 305 L 224 304 L 220 304 L 211 311 L 209 315 L 209 322 L 210 325 L 207 329 L 207 331 L 204 336 L 204 339 L 203 340 L 203 347 L 204 348 L 205 355 L 200 363 L 196 379 L 195 380 L 193 380 L 191 378 L 189 379 L 175 379 L 174 378 L 172 379 L 155 379 L 154 378 L 148 378 L 144 376 L 134 375 L 125 372 L 122 370 L 120 370 L 118 368 L 113 366 L 110 363 L 107 362 L 94 362 L 93 361 L 77 360 L 76 359 L 66 358 L 58 355 L 46 343 L 45 340 L 52 332 L 58 330 L 62 330 L 65 324 L 64 317 L 56 313 L 45 312 L 43 315 L 43 319 L 46 323 L 44 324 L 38 318 L 36 314 L 36 311 L 38 309 L 60 309 L 61 308 L 64 308 L 66 306 L 66 299 L 68 297 L 68 294 L 60 289 L 54 287 L 49 287 L 46 288 L 41 295 L 39 293 L 38 288 L 39 285 L 45 280 L 54 280 L 56 282 L 58 282 L 60 284 L 68 288 L 80 288 L 81 287 L 84 287 L 87 283 L 87 279 L 83 274 L 73 268 L 68 268 L 65 271 L 61 268 L 62 264 L 67 260 L 69 261 L 73 261 L 81 265 L 94 277 L 97 276 L 99 265 L 104 260 L 111 260 L 117 263 L 122 269 L 123 273 L 125 276 L 127 286 L 129 288 L 138 288 L 139 289 L 155 290 L 159 286 L 163 286 L 164 287 L 168 287 L 169 288 L 179 290 L 182 289 L 184 287 L 183 284 L 181 282 L 183 279 L 199 281 L 200 282 L 207 282 L 208 280 L 206 278 L 206 275 L 208 273 L 215 272 L 222 269 L 227 265 L 227 263 L 229 261 L 231 261 L 234 259 L 241 259 L 243 261 L 245 255 L 247 253 L 253 253 L 256 249 L 255 246 L 246 236 L 242 228 L 240 227 L 237 230 L 234 228 L 232 224 L 230 213 L 228 212 L 225 216 L 223 216 L 221 214 L 220 207 L 219 206 L 219 193 L 213 194 L 211 192 L 211 185 L 214 176 L 214 172 L 212 171 L 209 173 L 207 171 L 207 168 L 213 156 L 213 152 L 211 151 L 207 153 L 205 150 L 207 146 L 215 138 L 217 134 L 216 132 L 216 125 L 222 113 L 225 103 L 216 100 L 211 95 L 206 87 L 205 80 L 204 79 L 204 74 L 205 73 L 206 66 L 209 60 L 216 52 L 224 47 L 233 44 L 241 44 L 253 50 L 257 55 L 258 58 L 261 60 L 273 51 L 285 47 L 291 41 L 307 41 L 309 39 L 308 31 L 310 29 L 316 30 L 323 35 L 327 36 L 337 27 L 341 27 L 343 29 L 340 36 L 341 38 L 344 37 L 366 37 L 367 38 L 378 40 L 385 43 L 388 43 L 393 33 L 401 26 L 414 21 Z M 437 15 L 427 13 L 426 12 L 412 12 L 411 13 L 406 13 L 394 18 L 385 27 L 384 30 L 382 32 L 377 30 L 368 29 L 367 28 L 360 28 L 359 27 L 355 27 L 353 28 L 351 26 L 349 21 L 347 19 L 342 17 L 335 18 L 330 21 L 326 25 L 324 25 L 320 22 L 315 20 L 306 20 L 301 23 L 299 27 L 299 31 L 297 33 L 289 33 L 288 34 L 285 34 L 279 38 L 270 42 L 265 46 L 261 45 L 254 39 L 244 35 L 230 35 L 229 36 L 223 37 L 215 41 L 203 51 L 198 59 L 195 68 L 195 75 L 194 78 L 195 79 L 195 85 L 197 91 L 203 101 L 213 110 L 207 122 L 207 125 L 206 126 L 206 135 L 198 144 L 196 148 L 196 153 L 197 156 L 201 160 L 201 163 L 199 166 L 199 176 L 203 182 L 202 189 L 203 190 L 204 198 L 210 204 L 211 214 L 214 220 L 219 225 L 222 226 L 225 229 L 227 235 L 234 242 L 234 243 L 230 247 L 223 251 L 218 256 L 207 259 L 200 263 L 192 265 L 190 267 L 185 269 L 175 269 L 172 270 L 166 275 L 160 275 L 159 274 L 137 275 L 134 272 L 132 265 L 129 260 L 122 253 L 114 249 L 110 249 L 109 248 L 101 249 L 97 251 L 90 258 L 74 250 L 63 250 L 60 251 L 53 256 L 50 262 L 50 268 L 48 270 L 43 270 L 35 273 L 30 278 L 26 285 L 26 293 L 27 296 L 29 298 L 29 301 L 27 303 L 24 310 L 24 317 L 27 326 L 34 335 L 34 346 L 36 349 L 42 354 L 53 359 L 63 366 L 76 371 L 86 372 L 87 373 L 103 374 L 118 382 L 130 386 L 133 386 L 134 387 L 137 387 L 146 390 L 150 390 L 151 391 L 167 390 L 173 395 L 177 395 L 178 396 L 192 396 L 194 398 L 194 411 L 190 422 L 190 433 L 194 439 L 194 445 L 193 446 L 193 463 L 195 468 L 198 472 L 198 478 L 199 479 L 200 487 L 206 494 L 206 498 L 195 510 L 192 517 L 192 526 L 183 537 L 183 539 L 181 542 L 181 557 L 177 564 L 177 567 L 175 571 L 175 574 L 173 579 L 173 586 L 171 588 L 163 587 L 162 586 L 153 586 L 152 587 L 147 587 L 138 590 L 128 598 L 125 602 L 121 611 L 121 624 L 127 635 L 139 647 L 155 657 L 171 665 L 195 673 L 200 673 L 206 675 L 213 675 L 214 676 L 222 676 L 223 677 L 244 677 L 245 676 L 254 675 L 264 670 L 273 660 L 275 655 L 277 644 L 287 633 L 290 627 L 290 624 L 292 618 L 302 609 L 310 595 L 318 587 L 331 570 L 345 571 L 346 572 L 376 572 L 381 577 L 383 582 L 392 594 L 408 610 L 419 617 L 421 617 L 435 624 L 444 627 L 447 627 L 448 628 L 453 628 L 458 626 L 460 624 L 463 625 L 482 625 L 483 624 L 486 624 L 487 623 L 490 623 L 499 620 L 505 617 L 510 617 L 527 633 L 542 639 L 556 640 L 557 639 L 563 638 L 575 631 L 583 623 L 587 615 L 588 608 L 589 607 L 589 588 L 588 587 L 588 582 L 587 581 L 586 572 L 582 562 L 582 559 L 579 550 L 575 542 L 575 540 L 566 524 L 555 513 L 549 509 L 541 506 L 538 506 L 537 505 L 526 505 L 514 509 L 506 509 L 500 504 L 497 500 L 496 496 L 494 493 L 494 488 L 498 477 L 517 459 L 522 450 L 523 444 L 524 443 L 524 431 L 523 430 L 523 426 L 521 420 L 519 417 L 519 415 L 512 407 L 507 404 L 497 402 L 493 396 L 493 388 L 487 375 L 489 369 L 489 351 L 488 350 L 487 341 L 485 336 L 485 323 L 484 322 L 484 319 L 482 314 L 477 307 L 477 299 L 476 296 L 472 291 L 472 282 L 470 278 L 460 266 L 460 260 L 459 258 L 445 245 L 443 239 L 443 237 L 446 233 L 451 229 L 456 223 L 460 215 L 460 213 L 466 207 L 469 200 L 469 194 L 470 191 L 473 189 L 476 185 L 477 182 L 477 171 L 476 170 L 476 166 L 480 160 L 480 152 L 478 146 L 474 141 L 474 139 L 477 135 L 477 128 L 474 123 L 465 115 L 465 112 L 463 107 L 449 85 L 450 81 L 457 73 L 462 61 L 462 46 L 461 45 L 461 42 L 455 30 L 445 20 Z M 435 15 L 444 20 L 454 30 L 457 34 L 461 44 L 461 47 L 462 48 L 462 60 L 457 72 L 450 80 L 448 84 L 463 108 L 465 116 L 470 120 L 476 127 L 477 134 L 473 140 L 477 146 L 480 153 L 479 161 L 475 165 L 475 169 L 477 173 L 477 181 L 476 184 L 470 190 L 469 192 L 468 202 L 465 207 L 460 212 L 456 222 L 453 226 L 442 236 L 442 239 L 444 241 L 444 244 L 446 247 L 458 257 L 460 261 L 460 267 L 469 277 L 472 283 L 472 292 L 476 297 L 477 300 L 477 308 L 482 315 L 484 320 L 484 332 L 485 333 L 485 337 L 488 346 L 488 353 L 489 354 L 489 367 L 488 368 L 487 377 L 493 389 L 493 397 L 496 402 L 502 404 L 506 404 L 510 406 L 517 413 L 522 423 L 523 432 L 524 433 L 524 441 L 523 442 L 522 449 L 517 458 L 498 476 L 494 485 L 494 494 L 497 501 L 501 507 L 505 510 L 514 510 L 527 505 L 536 505 L 550 510 L 558 516 L 565 524 L 575 541 L 587 578 L 588 590 L 589 591 L 589 606 L 588 607 L 588 611 L 586 617 L 584 619 L 583 622 L 574 631 L 558 639 L 544 639 L 535 636 L 524 630 L 510 616 L 507 616 L 504 618 L 501 618 L 496 621 L 493 621 L 485 624 L 480 624 L 479 625 L 466 625 L 460 622 L 455 627 L 450 628 L 446 626 L 443 626 L 434 623 L 426 619 L 424 619 L 410 611 L 392 593 L 385 584 L 380 575 L 375 571 L 343 571 L 342 570 L 330 570 L 324 579 L 308 597 L 303 607 L 294 616 L 291 617 L 290 625 L 288 631 L 277 641 L 276 650 L 272 660 L 270 663 L 260 672 L 248 676 L 241 676 L 240 677 L 225 677 L 224 676 L 216 676 L 215 675 L 208 675 L 207 674 L 197 673 L 172 665 L 144 650 L 135 643 L 128 636 L 124 630 L 121 623 L 121 612 L 126 602 L 135 593 L 142 589 L 148 588 L 149 587 L 165 587 L 166 588 L 172 588 L 173 587 L 173 581 L 174 580 L 176 569 L 180 560 L 180 558 L 182 556 L 182 552 L 181 551 L 181 544 L 184 537 L 190 531 L 193 525 L 192 520 L 195 511 L 207 498 L 207 493 L 200 486 L 198 471 L 195 467 L 193 462 L 194 438 L 191 435 L 190 432 L 190 423 L 195 408 L 195 399 L 192 395 L 175 395 L 172 394 L 166 389 L 164 390 L 159 390 L 158 391 L 153 391 L 152 390 L 147 390 L 146 389 L 131 386 L 116 381 L 109 376 L 104 374 L 82 372 L 77 370 L 73 370 L 68 367 L 64 366 L 54 359 L 48 357 L 40 352 L 35 346 L 34 343 L 34 340 L 35 339 L 34 334 L 29 328 L 25 320 L 25 308 L 26 305 L 30 301 L 30 299 L 26 293 L 26 286 L 27 283 L 36 273 L 40 271 L 48 271 L 50 269 L 50 262 L 52 258 L 58 253 L 65 250 L 71 250 L 72 251 L 78 252 L 89 259 L 91 259 L 98 251 L 102 249 L 112 249 L 122 254 L 130 262 L 133 268 L 134 273 L 138 276 L 143 276 L 144 275 L 159 275 L 160 276 L 167 276 L 173 270 L 176 270 L 177 269 L 188 269 L 190 267 L 202 263 L 208 259 L 218 257 L 224 251 L 234 244 L 234 240 L 228 235 L 226 232 L 225 227 L 219 224 L 214 219 L 211 212 L 211 205 L 204 197 L 203 194 L 203 184 L 204 181 L 199 175 L 199 167 L 202 162 L 202 160 L 197 155 L 196 152 L 197 146 L 207 135 L 207 132 L 206 131 L 207 124 L 211 115 L 213 113 L 214 109 L 210 107 L 203 100 L 197 90 L 196 84 L 195 83 L 195 69 L 198 60 L 202 53 L 210 45 L 216 41 L 228 36 L 241 35 L 253 39 L 261 46 L 266 46 L 285 35 L 292 34 L 293 33 L 298 34 L 299 33 L 299 28 L 301 24 L 307 20 L 316 21 L 322 25 L 326 26 L 334 19 L 337 18 L 344 18 L 349 22 L 350 26 L 352 28 L 363 28 L 364 29 L 369 29 L 370 30 L 374 30 L 379 32 L 383 32 L 385 28 L 394 19 L 399 16 L 405 14 L 414 13 L 415 12 L 421 12 L 422 13 L 428 13 L 432 15 Z" fill="#B1B1B1" fill-rule="evenodd"/><path d="M 174 615 L 170 616 L 167 621 L 167 627 L 171 630 L 173 630 L 175 628 L 176 624 L 177 623 L 177 618 Z M 149 609 L 147 612 L 147 621 L 149 623 L 153 623 L 155 620 L 155 612 L 152 609 Z M 250 142 L 249 146 L 248 147 L 248 152 L 247 153 L 248 155 L 248 159 L 249 160 L 250 164 L 258 172 L 262 174 L 265 174 L 268 177 L 269 179 L 269 186 L 270 187 L 270 189 L 273 196 L 275 198 L 276 201 L 278 203 L 280 207 L 289 217 L 289 218 L 296 225 L 301 228 L 303 227 L 296 219 L 293 212 L 293 209 L 296 202 L 306 192 L 312 189 L 314 187 L 316 187 L 319 185 L 322 185 L 323 184 L 329 184 L 330 185 L 336 186 L 344 193 L 345 197 L 346 198 L 345 200 L 345 205 L 338 220 L 339 220 L 342 217 L 346 209 L 346 207 L 348 204 L 348 201 L 349 200 L 349 197 L 350 196 L 350 192 L 351 191 L 351 186 L 352 185 L 352 161 L 351 160 L 351 156 L 348 151 L 346 151 L 345 153 L 336 162 L 335 162 L 333 164 L 319 170 L 316 170 L 315 171 L 304 171 L 303 170 L 299 170 L 298 169 L 290 168 L 286 166 L 282 166 L 272 172 L 265 172 L 264 171 L 262 171 L 258 167 L 257 167 L 252 160 L 252 157 L 251 156 L 251 150 L 252 149 L 252 145 L 253 144 L 253 142 L 252 141 Z M 259 135 L 259 141 L 261 145 L 268 152 L 275 155 L 286 155 L 287 154 L 289 154 L 296 151 L 304 144 L 304 143 L 306 141 L 306 138 L 307 137 L 306 133 L 303 130 L 295 126 L 292 126 L 291 125 L 276 125 L 275 126 L 268 127 L 264 129 Z M 267 105 L 263 105 L 260 108 L 257 114 L 257 123 L 260 126 L 263 125 L 269 118 L 269 116 L 270 115 L 270 110 L 269 109 L 269 107 Z M 348 99 L 346 100 L 342 105 L 342 107 L 341 108 L 341 116 L 342 117 L 343 121 L 347 125 L 351 125 L 354 122 L 356 118 L 356 106 L 351 100 Z M 275 68 L 273 66 L 270 66 L 266 68 L 260 74 L 260 77 L 261 78 L 264 77 L 268 73 L 273 71 L 275 69 Z M 346 59 L 346 61 L 347 62 L 356 64 L 361 67 L 363 67 L 364 66 L 362 61 L 357 58 L 355 58 L 354 57 L 348 57 Z M 435 16 L 432 16 L 428 14 L 422 14 L 421 13 L 415 13 L 414 14 L 409 14 L 408 15 L 405 15 L 404 16 L 399 17 L 394 20 L 386 28 L 385 31 L 383 33 L 379 33 L 378 32 L 370 31 L 369 30 L 364 30 L 363 29 L 352 29 L 349 26 L 348 22 L 344 19 L 337 19 L 336 20 L 334 20 L 326 27 L 324 27 L 316 22 L 313 22 L 312 21 L 307 21 L 302 24 L 300 28 L 300 33 L 298 35 L 296 34 L 293 34 L 292 35 L 288 35 L 287 36 L 285 36 L 277 40 L 275 42 L 270 44 L 266 47 L 261 47 L 253 40 L 246 38 L 245 37 L 242 37 L 241 36 L 233 36 L 232 37 L 228 37 L 216 42 L 214 44 L 210 46 L 203 53 L 199 60 L 199 62 L 197 65 L 197 68 L 196 69 L 196 83 L 197 84 L 198 90 L 204 100 L 210 106 L 213 107 L 215 109 L 214 113 L 212 115 L 208 124 L 208 127 L 207 128 L 208 135 L 198 146 L 197 152 L 198 153 L 198 155 L 203 160 L 203 162 L 200 167 L 200 175 L 205 181 L 205 183 L 204 184 L 204 194 L 205 195 L 205 197 L 211 203 L 212 205 L 212 212 L 215 219 L 219 223 L 224 225 L 226 227 L 227 229 L 227 232 L 229 234 L 229 235 L 235 240 L 235 244 L 232 247 L 224 252 L 218 258 L 215 258 L 214 259 L 208 260 L 204 262 L 202 264 L 194 266 L 190 268 L 188 270 L 177 270 L 176 271 L 173 271 L 167 277 L 160 277 L 159 276 L 144 276 L 143 277 L 138 277 L 133 273 L 132 268 L 129 262 L 122 255 L 112 250 L 102 250 L 98 252 L 91 260 L 89 260 L 87 258 L 82 256 L 78 253 L 72 252 L 71 251 L 65 251 L 58 254 L 53 258 L 51 262 L 51 269 L 48 272 L 40 272 L 36 274 L 28 283 L 28 285 L 27 286 L 27 293 L 29 297 L 31 299 L 31 301 L 27 305 L 27 307 L 26 308 L 26 320 L 30 328 L 35 334 L 35 336 L 36 337 L 35 343 L 36 344 L 37 348 L 40 351 L 46 354 L 48 356 L 50 356 L 54 358 L 64 365 L 68 366 L 73 369 L 77 369 L 78 370 L 81 370 L 82 371 L 89 371 L 90 372 L 99 372 L 100 373 L 104 373 L 105 374 L 109 375 L 116 380 L 118 380 L 119 381 L 121 381 L 122 382 L 124 382 L 131 385 L 134 385 L 135 386 L 146 388 L 147 389 L 158 390 L 159 389 L 164 389 L 166 388 L 172 393 L 174 393 L 175 394 L 192 394 L 196 399 L 196 408 L 195 409 L 195 411 L 193 415 L 193 418 L 192 419 L 192 422 L 191 423 L 191 432 L 192 433 L 192 435 L 195 438 L 195 447 L 194 448 L 194 462 L 195 463 L 196 467 L 199 471 L 199 475 L 200 476 L 200 483 L 201 484 L 201 486 L 208 493 L 208 498 L 206 500 L 206 501 L 196 511 L 194 515 L 194 519 L 193 520 L 194 522 L 194 525 L 191 531 L 185 537 L 183 541 L 183 543 L 182 544 L 182 551 L 183 552 L 183 556 L 181 558 L 181 560 L 179 563 L 179 565 L 177 569 L 177 572 L 176 573 L 176 576 L 175 577 L 175 580 L 174 581 L 174 587 L 172 589 L 166 589 L 165 588 L 149 588 L 148 589 L 142 590 L 135 594 L 127 602 L 122 612 L 122 623 L 125 630 L 127 632 L 129 636 L 135 642 L 136 642 L 144 649 L 147 650 L 154 655 L 172 664 L 177 665 L 180 667 L 182 667 L 189 670 L 196 671 L 197 672 L 207 673 L 208 674 L 215 674 L 216 675 L 224 675 L 225 676 L 240 676 L 241 675 L 248 675 L 249 674 L 252 674 L 253 673 L 260 671 L 263 668 L 264 668 L 271 660 L 273 656 L 274 651 L 275 650 L 275 645 L 276 644 L 276 641 L 287 631 L 287 629 L 289 625 L 290 617 L 292 615 L 294 615 L 302 607 L 307 597 L 316 587 L 316 586 L 323 579 L 323 578 L 330 569 L 342 569 L 343 570 L 375 570 L 381 575 L 382 578 L 389 587 L 389 588 L 393 592 L 393 593 L 410 610 L 424 618 L 426 618 L 434 622 L 436 622 L 443 625 L 446 625 L 450 627 L 455 626 L 460 621 L 466 624 L 479 624 L 480 623 L 485 623 L 486 622 L 489 622 L 493 620 L 496 620 L 501 617 L 504 617 L 507 615 L 510 615 L 524 629 L 535 635 L 537 635 L 544 638 L 558 638 L 574 630 L 582 622 L 583 619 L 585 617 L 585 615 L 587 611 L 587 607 L 588 606 L 588 591 L 587 590 L 587 583 L 586 582 L 586 578 L 585 577 L 584 570 L 583 569 L 583 567 L 582 566 L 582 564 L 581 563 L 581 561 L 580 560 L 576 546 L 574 543 L 574 541 L 564 524 L 558 517 L 557 517 L 550 511 L 546 510 L 540 507 L 537 507 L 536 506 L 527 506 L 526 507 L 524 507 L 523 508 L 521 508 L 514 511 L 505 511 L 500 507 L 500 506 L 496 501 L 493 494 L 493 485 L 495 482 L 495 480 L 497 476 L 516 458 L 521 449 L 521 447 L 522 446 L 522 442 L 523 441 L 523 433 L 522 432 L 522 427 L 521 426 L 521 423 L 516 413 L 510 407 L 506 405 L 502 405 L 501 404 L 498 404 L 496 403 L 494 401 L 492 397 L 492 389 L 486 377 L 486 373 L 487 372 L 487 368 L 488 367 L 488 354 L 487 353 L 487 346 L 486 345 L 486 342 L 485 341 L 485 338 L 484 337 L 484 333 L 483 332 L 483 320 L 482 319 L 481 315 L 476 308 L 476 300 L 475 299 L 475 297 L 471 292 L 471 283 L 468 277 L 459 267 L 459 261 L 457 257 L 445 247 L 445 246 L 443 244 L 443 241 L 441 239 L 441 236 L 445 232 L 446 232 L 446 231 L 448 230 L 448 229 L 450 228 L 455 222 L 458 216 L 459 212 L 464 207 L 467 202 L 467 199 L 468 198 L 468 192 L 469 190 L 475 184 L 475 182 L 476 181 L 476 173 L 474 169 L 474 165 L 478 161 L 478 159 L 479 158 L 479 153 L 476 146 L 474 144 L 472 139 L 476 134 L 476 130 L 475 129 L 475 127 L 474 125 L 464 116 L 462 108 L 460 106 L 459 103 L 457 101 L 456 98 L 454 96 L 453 93 L 451 91 L 447 84 L 449 80 L 456 72 L 461 60 L 461 48 L 460 47 L 460 44 L 459 43 L 458 38 L 453 30 L 444 21 Z M 502 412 L 505 412 L 507 414 L 507 419 L 512 425 L 515 432 L 515 440 L 514 441 L 514 445 L 509 455 L 505 458 L 503 456 L 502 439 L 501 438 L 501 433 L 500 432 L 500 427 L 499 426 L 499 416 Z M 432 22 L 440 27 L 447 34 L 447 35 L 451 40 L 451 42 L 453 46 L 454 55 L 453 56 L 453 61 L 451 64 L 451 66 L 448 71 L 438 80 L 438 82 L 443 89 L 450 103 L 457 112 L 457 114 L 455 116 L 454 116 L 454 118 L 460 121 L 464 125 L 465 125 L 469 130 L 469 131 L 466 134 L 463 134 L 462 133 L 459 133 L 458 134 L 469 146 L 472 152 L 472 156 L 470 158 L 467 158 L 464 156 L 462 157 L 463 158 L 463 160 L 465 162 L 465 164 L 467 167 L 467 169 L 469 173 L 469 179 L 467 181 L 465 181 L 461 178 L 460 179 L 461 180 L 461 197 L 460 199 L 458 201 L 456 201 L 454 199 L 453 200 L 452 208 L 451 209 L 450 214 L 446 221 L 437 230 L 425 237 L 424 239 L 427 241 L 430 241 L 431 242 L 431 244 L 429 246 L 430 247 L 440 252 L 446 257 L 446 258 L 444 260 L 441 260 L 441 261 L 446 265 L 447 265 L 454 272 L 454 273 L 460 280 L 460 282 L 459 283 L 456 283 L 452 281 L 451 282 L 461 294 L 460 296 L 461 299 L 470 311 L 474 319 L 474 321 L 473 322 L 470 322 L 469 321 L 467 322 L 472 329 L 476 337 L 477 343 L 478 344 L 478 365 L 477 366 L 477 368 L 473 372 L 471 370 L 467 361 L 466 361 L 466 369 L 465 370 L 464 381 L 461 388 L 457 393 L 456 393 L 453 396 L 450 397 L 449 396 L 449 391 L 450 390 L 450 387 L 449 387 L 434 402 L 434 403 L 432 405 L 429 406 L 424 410 L 423 410 L 421 408 L 421 407 L 419 406 L 409 416 L 409 417 L 399 426 L 396 426 L 395 425 L 395 422 L 396 421 L 396 416 L 395 415 L 393 416 L 382 428 L 378 427 L 374 429 L 372 431 L 367 433 L 357 440 L 353 442 L 351 442 L 346 445 L 340 446 L 337 448 L 334 448 L 325 441 L 325 435 L 329 427 L 329 425 L 330 424 L 329 423 L 328 423 L 326 425 L 323 430 L 316 438 L 309 438 L 302 432 L 302 422 L 303 421 L 303 418 L 304 417 L 306 410 L 305 409 L 303 410 L 297 415 L 292 415 L 288 411 L 288 409 L 287 408 L 288 401 L 290 399 L 290 398 L 300 388 L 301 386 L 300 385 L 298 386 L 292 386 L 290 384 L 290 379 L 291 377 L 298 370 L 307 366 L 316 365 L 324 361 L 331 356 L 333 356 L 336 353 L 339 352 L 363 335 L 368 333 L 370 331 L 376 328 L 384 321 L 383 319 L 381 319 L 376 317 L 371 321 L 368 321 L 366 319 L 365 315 L 362 311 L 361 312 L 361 322 L 360 324 L 342 340 L 322 353 L 318 357 L 311 360 L 307 360 L 306 361 L 299 362 L 293 365 L 288 369 L 288 370 L 285 373 L 282 380 L 282 394 L 278 400 L 278 410 L 279 411 L 280 415 L 287 423 L 295 439 L 301 445 L 303 445 L 308 448 L 310 448 L 325 456 L 332 456 L 333 457 L 339 456 L 341 457 L 342 456 L 346 456 L 347 455 L 350 455 L 356 452 L 358 452 L 373 443 L 376 443 L 377 442 L 382 442 L 386 440 L 392 439 L 398 436 L 408 429 L 418 424 L 423 420 L 428 419 L 434 416 L 439 412 L 451 406 L 453 406 L 455 404 L 458 403 L 461 400 L 462 400 L 478 384 L 481 384 L 483 386 L 483 388 L 479 392 L 479 393 L 487 403 L 491 411 L 491 413 L 488 416 L 488 419 L 489 420 L 489 423 L 491 426 L 491 429 L 493 433 L 493 436 L 494 437 L 494 440 L 495 441 L 495 447 L 496 448 L 496 450 L 493 453 L 490 452 L 490 455 L 489 456 L 490 460 L 489 461 L 489 468 L 488 469 L 488 472 L 487 473 L 484 484 L 475 500 L 475 506 L 476 507 L 479 507 L 484 501 L 487 501 L 489 503 L 489 505 L 493 513 L 493 515 L 494 516 L 494 522 L 495 523 L 497 523 L 500 526 L 502 526 L 503 525 L 506 529 L 507 529 L 509 527 L 509 524 L 513 521 L 517 520 L 518 519 L 525 518 L 526 517 L 540 517 L 541 518 L 543 518 L 548 521 L 556 529 L 556 530 L 564 541 L 566 545 L 566 547 L 569 552 L 569 554 L 571 557 L 571 559 L 572 560 L 572 562 L 575 569 L 575 572 L 577 576 L 577 580 L 578 581 L 578 585 L 579 586 L 579 594 L 580 595 L 579 601 L 577 603 L 565 602 L 564 603 L 564 606 L 567 610 L 569 610 L 570 611 L 575 611 L 577 613 L 577 615 L 576 617 L 572 620 L 567 620 L 566 621 L 559 621 L 558 620 L 555 620 L 554 622 L 560 628 L 560 629 L 558 631 L 546 631 L 545 630 L 542 630 L 533 625 L 522 614 L 522 610 L 527 603 L 526 601 L 522 602 L 517 605 L 515 605 L 512 607 L 510 607 L 506 609 L 503 609 L 502 610 L 491 612 L 490 613 L 484 614 L 483 615 L 477 615 L 476 616 L 462 616 L 461 615 L 457 615 L 456 614 L 448 613 L 444 618 L 440 618 L 434 615 L 423 606 L 421 605 L 419 606 L 416 606 L 391 579 L 386 571 L 386 567 L 388 565 L 389 565 L 392 561 L 392 559 L 391 558 L 387 558 L 381 561 L 378 561 L 377 562 L 372 562 L 371 563 L 348 563 L 347 562 L 336 562 L 335 561 L 323 560 L 322 559 L 318 559 L 317 558 L 314 558 L 313 557 L 309 557 L 307 556 L 306 557 L 306 559 L 309 562 L 313 564 L 318 565 L 320 567 L 320 569 L 315 574 L 315 575 L 305 584 L 305 585 L 300 591 L 299 595 L 297 597 L 293 597 L 291 606 L 290 607 L 288 607 L 285 604 L 283 606 L 283 610 L 282 611 L 282 615 L 281 616 L 279 627 L 275 632 L 274 632 L 271 629 L 269 630 L 269 632 L 268 633 L 268 637 L 267 638 L 267 644 L 266 645 L 266 648 L 265 649 L 264 654 L 261 659 L 258 662 L 246 667 L 239 667 L 231 663 L 224 661 L 192 645 L 190 643 L 188 643 L 179 638 L 177 638 L 172 634 L 164 634 L 163 633 L 160 633 L 159 632 L 151 632 L 147 636 L 147 637 L 145 639 L 144 639 L 139 635 L 139 634 L 135 629 L 135 627 L 136 626 L 142 629 L 143 628 L 143 624 L 137 616 L 136 616 L 133 620 L 131 619 L 132 611 L 135 605 L 140 600 L 146 597 L 148 597 L 149 596 L 153 596 L 154 595 L 172 595 L 173 596 L 179 596 L 180 597 L 183 597 L 186 599 L 188 599 L 191 601 L 193 601 L 197 603 L 198 602 L 194 598 L 186 594 L 182 589 L 183 585 L 184 584 L 186 573 L 187 572 L 189 564 L 192 559 L 192 556 L 187 556 L 186 555 L 186 553 L 192 546 L 198 534 L 198 532 L 201 526 L 201 524 L 203 520 L 205 518 L 205 514 L 206 512 L 210 508 L 210 507 L 215 503 L 218 503 L 221 505 L 224 505 L 221 498 L 219 496 L 215 488 L 215 486 L 214 485 L 214 481 L 213 480 L 209 481 L 207 478 L 207 458 L 206 457 L 204 459 L 203 459 L 201 457 L 201 446 L 202 445 L 203 436 L 205 432 L 205 428 L 203 428 L 201 430 L 200 430 L 198 428 L 198 423 L 199 422 L 200 416 L 208 400 L 207 399 L 205 400 L 202 400 L 200 398 L 200 395 L 211 379 L 211 377 L 207 374 L 207 371 L 212 362 L 213 356 L 214 355 L 214 352 L 216 348 L 216 343 L 213 340 L 213 338 L 217 330 L 217 328 L 219 325 L 217 321 L 217 319 L 219 315 L 221 313 L 223 307 L 222 306 L 220 306 L 215 309 L 212 312 L 210 316 L 210 320 L 212 324 L 210 328 L 208 330 L 205 337 L 206 357 L 201 366 L 198 381 L 196 383 L 192 383 L 189 381 L 154 381 L 153 380 L 148 380 L 147 379 L 143 379 L 142 378 L 133 377 L 132 376 L 124 374 L 116 370 L 107 364 L 104 364 L 103 363 L 87 363 L 86 362 L 80 362 L 79 361 L 74 361 L 73 360 L 65 359 L 56 355 L 51 350 L 50 350 L 44 343 L 44 338 L 49 333 L 49 332 L 38 321 L 35 316 L 34 311 L 37 307 L 56 307 L 56 306 L 53 303 L 50 302 L 48 300 L 46 300 L 40 297 L 38 295 L 37 293 L 37 287 L 38 286 L 38 284 L 42 280 L 46 279 L 47 278 L 50 278 L 51 279 L 57 280 L 67 286 L 68 284 L 66 280 L 62 276 L 61 272 L 60 271 L 60 265 L 61 263 L 66 259 L 71 259 L 80 263 L 86 268 L 87 268 L 93 274 L 94 274 L 96 272 L 98 264 L 103 259 L 108 258 L 109 259 L 113 259 L 115 260 L 121 265 L 125 272 L 128 284 L 130 286 L 133 286 L 134 287 L 144 287 L 145 288 L 154 289 L 157 285 L 166 285 L 167 286 L 171 286 L 175 288 L 180 288 L 181 286 L 178 281 L 181 278 L 190 278 L 191 279 L 196 279 L 197 280 L 203 280 L 204 279 L 204 275 L 207 272 L 209 271 L 212 271 L 213 270 L 216 270 L 220 268 L 223 265 L 224 262 L 226 260 L 240 256 L 241 255 L 241 252 L 243 250 L 246 250 L 247 251 L 253 251 L 254 250 L 253 246 L 246 238 L 241 230 L 240 230 L 237 234 L 233 230 L 231 226 L 231 222 L 230 221 L 230 218 L 228 215 L 225 218 L 223 218 L 220 215 L 220 213 L 218 209 L 218 196 L 217 195 L 215 196 L 212 196 L 210 194 L 210 183 L 211 182 L 212 175 L 211 174 L 208 175 L 206 173 L 206 166 L 212 154 L 211 153 L 209 154 L 205 154 L 203 152 L 203 151 L 206 145 L 214 137 L 215 135 L 215 130 L 214 129 L 215 127 L 215 124 L 221 112 L 223 105 L 221 103 L 219 103 L 215 101 L 210 96 L 210 95 L 206 90 L 204 83 L 203 82 L 203 72 L 204 71 L 205 65 L 208 59 L 214 52 L 215 52 L 221 47 L 225 45 L 230 44 L 231 43 L 243 43 L 253 48 L 258 53 L 259 56 L 261 58 L 270 51 L 276 48 L 278 48 L 281 46 L 285 45 L 286 44 L 286 42 L 288 40 L 292 40 L 293 39 L 307 39 L 308 37 L 306 33 L 306 30 L 309 27 L 312 27 L 313 28 L 318 29 L 323 33 L 327 34 L 334 27 L 338 26 L 339 25 L 342 25 L 344 27 L 344 32 L 343 33 L 343 36 L 345 36 L 346 35 L 364 35 L 365 36 L 369 36 L 370 37 L 373 37 L 374 38 L 378 38 L 379 39 L 387 41 L 391 33 L 397 27 L 408 21 L 414 20 L 415 19 L 419 19 L 420 20 L 426 20 L 427 21 Z" fill="#010101" fill-rule="evenodd"/></svg>