<svg xmlns="http://www.w3.org/2000/svg" viewBox="0 0 653 704" shape-rendering="geometricPrecision"><title>intro frame 014</title><path d="M 431 448 L 430 451 L 436 456 L 438 456 L 439 453 L 437 450 Z M 418 404 L 418 407 L 427 414 L 430 415 L 433 415 L 434 414 L 430 410 L 431 402 L 429 401 L 428 402 L 424 399 Z M 67 173 L 65 176 L 65 181 L 68 185 L 66 182 L 67 175 L 68 174 Z M 275 163 L 274 164 L 274 176 L 282 183 L 290 183 L 292 182 L 294 177 L 282 170 L 279 166 Z M 77 171 L 81 174 L 83 174 L 88 180 L 91 182 L 98 167 L 109 156 L 116 152 L 129 150 L 132 152 L 134 152 L 143 159 L 149 166 L 149 168 L 151 170 L 151 173 L 152 174 L 151 182 L 148 188 L 138 197 L 126 203 L 124 205 L 112 209 L 104 209 L 101 207 L 99 207 L 90 197 L 88 192 L 85 195 L 80 195 L 69 187 L 70 190 L 77 197 L 78 197 L 88 208 L 93 212 L 96 213 L 103 220 L 105 225 L 109 230 L 113 233 L 129 254 L 149 273 L 155 276 L 162 283 L 167 285 L 169 287 L 178 291 L 193 295 L 197 299 L 197 301 L 195 303 L 191 305 L 192 306 L 200 306 L 203 305 L 209 311 L 215 313 L 228 313 L 230 315 L 229 318 L 226 321 L 221 323 L 221 324 L 227 326 L 234 326 L 236 325 L 238 322 L 238 320 L 240 318 L 240 313 L 247 297 L 247 294 L 253 287 L 257 275 L 263 270 L 263 267 L 259 259 L 259 257 L 254 252 L 249 256 L 247 255 L 238 242 L 232 244 L 229 241 L 227 235 L 224 231 L 224 229 L 222 226 L 220 226 L 220 231 L 218 233 L 214 232 L 207 224 L 207 222 L 204 218 L 203 214 L 200 211 L 194 211 L 190 208 L 186 201 L 179 194 L 177 190 L 163 173 L 163 169 L 165 163 L 165 159 L 164 158 L 161 161 L 156 163 L 151 162 L 146 157 L 146 154 L 145 153 L 145 146 L 146 144 L 142 140 L 141 140 L 140 144 L 136 148 L 128 148 L 125 145 L 119 145 L 117 143 L 115 148 L 110 153 L 108 154 L 99 154 L 98 155 L 95 155 L 97 161 L 97 165 L 91 172 L 84 172 L 80 170 Z M 201 263 L 204 264 L 207 261 L 209 263 L 207 267 L 207 276 L 205 279 L 206 281 L 205 284 L 206 288 L 205 289 L 206 290 L 216 290 L 218 293 L 218 296 L 216 298 L 205 298 L 202 295 L 203 293 L 201 290 L 202 287 L 200 287 L 196 284 L 195 285 L 192 284 L 192 283 L 196 280 L 195 275 L 199 272 L 198 270 L 201 267 L 200 266 Z M 154 222 L 154 220 L 156 218 L 159 218 L 161 220 L 159 222 L 156 223 Z M 443 41 L 433 41 L 431 42 L 429 41 L 422 45 L 420 45 L 410 56 L 409 60 L 406 63 L 400 61 L 397 61 L 394 59 L 388 57 L 384 57 L 383 56 L 372 56 L 371 57 L 363 57 L 362 58 L 359 58 L 356 57 L 354 55 L 354 51 L 353 50 L 349 52 L 348 54 L 343 56 L 337 52 L 328 48 L 327 50 L 329 52 L 329 57 L 327 59 L 324 60 L 310 60 L 309 62 L 304 66 L 292 70 L 288 75 L 291 78 L 293 78 L 297 82 L 297 85 L 294 89 L 288 92 L 282 97 L 279 97 L 278 98 L 276 98 L 273 94 L 273 90 L 276 84 L 276 79 L 270 70 L 260 65 L 246 66 L 243 68 L 240 68 L 233 74 L 227 84 L 226 87 L 226 93 L 225 94 L 225 99 L 229 108 L 235 114 L 239 116 L 244 116 L 246 118 L 245 124 L 236 144 L 238 149 L 238 152 L 229 163 L 234 167 L 234 172 L 229 181 L 228 185 L 233 184 L 236 186 L 234 192 L 233 203 L 232 205 L 233 206 L 235 204 L 238 204 L 241 207 L 241 222 L 243 226 L 245 224 L 249 224 L 252 227 L 253 232 L 255 233 L 261 239 L 261 240 L 269 246 L 273 247 L 278 251 L 280 251 L 287 256 L 292 261 L 294 265 L 294 269 L 291 271 L 284 268 L 282 266 L 276 265 L 269 273 L 266 280 L 262 283 L 265 288 L 254 297 L 254 300 L 256 303 L 255 306 L 252 308 L 249 312 L 251 315 L 251 317 L 246 325 L 244 331 L 244 337 L 240 346 L 240 349 L 244 346 L 250 344 L 255 344 L 258 348 L 257 351 L 250 358 L 250 359 L 238 368 L 235 371 L 234 374 L 229 379 L 229 381 L 231 381 L 233 383 L 233 387 L 230 390 L 226 397 L 222 401 L 222 403 L 224 403 L 228 406 L 228 409 L 226 414 L 224 416 L 222 422 L 219 425 L 219 427 L 216 431 L 217 432 L 220 430 L 223 430 L 225 432 L 225 438 L 222 443 L 222 446 L 220 450 L 220 455 L 218 459 L 219 460 L 225 453 L 227 453 L 229 455 L 229 462 L 227 467 L 226 478 L 227 478 L 230 474 L 233 475 L 234 477 L 234 491 L 236 494 L 237 500 L 240 501 L 242 503 L 246 503 L 247 504 L 250 504 L 255 499 L 258 498 L 265 493 L 266 484 L 268 482 L 272 482 L 279 488 L 280 491 L 285 487 L 294 484 L 296 482 L 307 481 L 312 478 L 317 478 L 321 476 L 324 476 L 326 472 L 326 469 L 332 465 L 343 465 L 345 467 L 344 472 L 346 474 L 364 473 L 365 474 L 374 474 L 375 475 L 378 475 L 384 478 L 389 479 L 395 486 L 395 488 L 393 490 L 390 488 L 387 488 L 386 487 L 349 488 L 348 489 L 343 489 L 342 490 L 336 490 L 335 491 L 332 491 L 331 492 L 328 492 L 319 495 L 306 496 L 303 498 L 304 502 L 300 510 L 297 512 L 292 512 L 287 514 L 282 514 L 279 517 L 278 522 L 274 526 L 264 530 L 261 533 L 261 538 L 259 540 L 255 540 L 253 541 L 249 545 L 249 547 L 242 556 L 242 558 L 235 565 L 235 566 L 227 573 L 227 576 L 232 582 L 232 584 L 235 589 L 235 592 L 233 594 L 230 594 L 218 584 L 216 584 L 211 580 L 207 580 L 204 578 L 202 578 L 200 576 L 196 576 L 194 574 L 189 574 L 184 572 L 179 572 L 178 573 L 181 577 L 184 577 L 186 579 L 188 579 L 193 585 L 199 585 L 205 589 L 207 589 L 209 591 L 211 595 L 209 605 L 219 618 L 237 635 L 246 635 L 248 633 L 250 634 L 260 633 L 264 629 L 268 629 L 271 625 L 273 625 L 276 621 L 283 617 L 284 615 L 290 610 L 296 610 L 299 607 L 307 604 L 328 585 L 330 585 L 334 580 L 344 577 L 348 575 L 352 571 L 354 571 L 367 562 L 370 558 L 372 558 L 376 553 L 378 553 L 382 549 L 387 546 L 392 540 L 396 541 L 399 537 L 406 537 L 408 533 L 412 529 L 412 527 L 414 525 L 415 521 L 421 514 L 421 512 L 429 505 L 431 505 L 433 508 L 436 506 L 439 507 L 441 505 L 441 503 L 444 500 L 444 497 L 448 493 L 451 493 L 454 491 L 456 488 L 456 484 L 457 483 L 457 473 L 458 472 L 457 470 L 457 466 L 456 465 L 453 470 L 447 470 L 445 469 L 441 464 L 437 462 L 430 462 L 427 460 L 424 460 L 416 455 L 416 453 L 414 451 L 414 448 L 411 445 L 408 445 L 401 439 L 402 436 L 407 436 L 414 439 L 416 441 L 418 441 L 420 443 L 426 443 L 426 441 L 428 439 L 428 430 L 422 423 L 418 421 L 415 421 L 412 419 L 407 419 L 402 414 L 403 411 L 411 405 L 410 402 L 408 400 L 400 400 L 398 401 L 393 398 L 391 398 L 389 400 L 384 400 L 383 399 L 380 401 L 377 401 L 371 392 L 371 390 L 377 385 L 385 385 L 386 386 L 392 386 L 393 387 L 405 387 L 410 389 L 414 392 L 415 391 L 415 385 L 413 383 L 406 382 L 402 378 L 406 373 L 407 374 L 413 374 L 414 373 L 413 372 L 409 372 L 404 367 L 402 367 L 402 368 L 399 370 L 395 370 L 393 368 L 392 358 L 388 355 L 388 352 L 379 343 L 369 343 L 368 342 L 365 342 L 363 340 L 357 337 L 351 336 L 349 334 L 344 335 L 343 336 L 343 339 L 339 342 L 337 340 L 336 337 L 336 331 L 338 328 L 342 327 L 346 323 L 346 320 L 344 318 L 341 317 L 337 312 L 337 306 L 339 304 L 341 304 L 346 299 L 349 301 L 350 300 L 353 303 L 353 305 L 351 306 L 352 310 L 351 311 L 351 317 L 349 320 L 352 320 L 368 334 L 371 335 L 374 331 L 380 331 L 383 332 L 391 342 L 398 348 L 402 348 L 407 346 L 412 346 L 410 340 L 398 327 L 396 322 L 398 320 L 401 320 L 406 325 L 409 326 L 418 334 L 422 339 L 425 345 L 426 350 L 424 353 L 418 354 L 412 360 L 412 363 L 417 370 L 417 372 L 420 373 L 422 375 L 426 382 L 428 382 L 431 378 L 439 380 L 447 388 L 446 389 L 446 395 L 447 396 L 446 399 L 449 404 L 449 410 L 446 413 L 442 410 L 441 411 L 445 415 L 445 418 L 447 421 L 447 423 L 443 427 L 447 429 L 453 429 L 454 428 L 450 423 L 454 418 L 457 418 L 467 424 L 468 422 L 459 413 L 457 407 L 451 400 L 451 397 L 454 394 L 458 394 L 459 393 L 458 391 L 454 387 L 454 385 L 440 372 L 441 367 L 445 363 L 444 358 L 442 355 L 442 344 L 445 340 L 449 338 L 453 339 L 453 337 L 445 328 L 447 325 L 452 325 L 455 326 L 457 328 L 468 329 L 469 330 L 474 330 L 475 331 L 485 331 L 486 330 L 490 330 L 496 332 L 501 332 L 508 335 L 511 338 L 515 338 L 517 340 L 520 341 L 525 340 L 538 349 L 542 353 L 544 353 L 547 357 L 550 357 L 557 361 L 561 367 L 561 372 L 563 375 L 564 379 L 566 381 L 570 381 L 574 377 L 575 374 L 579 371 L 582 371 L 584 373 L 590 375 L 594 373 L 596 374 L 601 374 L 603 373 L 604 371 L 604 367 L 605 365 L 612 361 L 618 361 L 619 362 L 626 363 L 626 358 L 623 355 L 623 352 L 622 351 L 623 345 L 627 341 L 630 342 L 634 342 L 635 341 L 635 338 L 630 328 L 627 324 L 610 308 L 609 303 L 607 300 L 605 300 L 600 296 L 597 296 L 595 294 L 592 293 L 580 280 L 578 280 L 573 277 L 566 276 L 562 271 L 562 268 L 560 265 L 557 265 L 556 264 L 544 264 L 543 263 L 537 262 L 534 259 L 534 255 L 533 254 L 531 255 L 529 253 L 525 255 L 524 254 L 515 255 L 511 252 L 513 248 L 512 246 L 510 247 L 504 247 L 503 248 L 500 248 L 496 250 L 488 251 L 487 252 L 482 251 L 480 249 L 481 246 L 480 245 L 475 247 L 471 247 L 463 251 L 458 252 L 454 255 L 451 255 L 447 257 L 441 258 L 432 264 L 429 265 L 421 264 L 412 271 L 410 271 L 408 269 L 408 266 L 407 266 L 405 268 L 405 270 L 401 274 L 399 274 L 397 272 L 397 265 L 399 263 L 399 261 L 404 255 L 410 252 L 414 246 L 423 240 L 423 238 L 427 235 L 432 239 L 431 237 L 432 235 L 428 231 L 434 226 L 435 221 L 441 215 L 441 212 L 439 210 L 439 207 L 441 205 L 443 205 L 445 207 L 449 207 L 449 200 L 450 198 L 453 195 L 458 197 L 453 190 L 454 187 L 456 185 L 459 185 L 455 180 L 454 175 L 456 173 L 459 173 L 462 175 L 472 174 L 475 171 L 475 168 L 478 165 L 481 165 L 482 164 L 479 159 L 470 150 L 470 147 L 473 144 L 476 143 L 475 140 L 466 132 L 465 130 L 465 128 L 467 126 L 466 122 L 461 115 L 461 113 L 457 106 L 446 94 L 449 91 L 453 90 L 455 88 L 457 88 L 462 83 L 466 74 L 466 63 L 464 58 L 461 54 L 460 54 L 450 44 Z M 258 468 L 259 469 L 259 483 L 257 488 L 254 489 L 251 483 L 251 474 L 256 468 Z M 250 444 L 252 446 L 252 453 L 250 456 L 249 461 L 246 464 L 243 461 L 243 454 L 245 452 L 246 448 Z M 368 432 L 372 432 L 376 437 L 382 437 L 386 440 L 384 443 L 381 442 L 380 443 L 380 447 L 374 456 L 371 458 L 365 458 L 363 456 L 364 450 L 365 449 L 366 434 Z M 249 427 L 251 429 L 251 432 L 242 448 L 240 450 L 238 450 L 236 448 L 236 442 L 242 432 L 246 428 Z M 338 418 L 340 420 L 340 423 L 336 427 L 332 434 L 326 436 L 324 434 L 324 429 L 329 425 L 331 425 L 332 423 Z M 378 418 L 380 414 L 386 414 L 389 417 L 391 415 L 393 415 L 395 417 L 395 420 L 393 422 L 389 422 L 387 426 L 384 428 L 379 422 Z M 252 408 L 253 409 L 253 412 L 249 421 L 243 429 L 239 430 L 237 428 L 237 424 L 242 417 L 243 414 L 248 409 Z M 310 411 L 310 408 L 311 407 L 313 407 L 315 409 L 313 412 Z M 271 384 L 272 385 L 272 389 L 267 394 L 264 394 L 261 396 L 258 394 L 259 389 L 263 385 Z M 314 379 L 314 381 L 312 384 L 306 388 L 301 388 L 299 386 L 309 377 L 311 377 Z M 356 370 L 360 371 L 364 379 L 360 382 L 360 385 L 362 388 L 362 399 L 359 402 L 354 397 L 351 391 L 349 390 L 346 385 L 346 379 Z M 328 363 L 330 365 L 330 370 L 326 374 L 324 374 L 323 373 L 323 370 L 325 366 Z M 301 363 L 301 364 L 283 381 L 281 382 L 277 382 L 276 381 L 278 377 L 286 369 L 291 366 L 296 361 L 299 361 Z M 343 360 L 345 366 L 340 371 L 337 379 L 333 382 L 331 379 L 330 375 L 336 363 L 339 360 Z M 277 356 L 277 354 L 283 350 L 291 350 L 293 352 L 293 354 L 291 356 L 288 356 L 283 358 L 280 358 Z M 324 347 L 323 352 L 318 357 L 310 358 L 308 356 L 310 351 L 317 346 L 322 345 Z M 288 329 L 290 331 L 288 333 L 287 336 L 284 338 L 279 344 L 277 344 L 275 342 L 275 339 L 277 334 L 282 329 Z M 364 315 L 368 317 L 372 317 L 374 319 L 374 323 L 375 325 L 373 327 L 372 330 L 369 329 L 363 323 L 362 317 Z M 327 317 L 327 320 L 324 324 L 318 329 L 311 330 L 307 333 L 303 333 L 302 334 L 296 334 L 295 332 L 302 325 L 304 320 L 308 316 L 311 315 L 313 317 L 313 320 L 316 320 L 321 316 L 324 315 Z M 419 297 L 421 300 L 427 305 L 431 310 L 434 317 L 433 327 L 431 332 L 428 335 L 424 335 L 420 333 L 413 326 L 412 326 L 405 318 L 405 316 L 407 314 L 419 318 L 421 317 L 422 315 L 422 310 L 420 307 L 414 302 L 414 299 Z M 405 294 L 410 298 L 410 304 L 408 306 L 403 305 L 401 303 L 402 298 Z M 394 301 L 392 303 L 389 302 L 386 304 L 383 302 L 377 306 L 375 305 L 370 306 L 367 305 L 363 301 L 360 302 L 358 300 L 360 297 L 359 295 L 351 298 L 346 298 L 342 295 L 336 293 L 334 291 L 331 290 L 328 287 L 320 282 L 310 272 L 310 268 L 313 265 L 321 265 L 325 267 L 330 267 L 331 268 L 345 268 L 346 267 L 353 267 L 354 266 L 363 265 L 368 263 L 372 263 L 385 258 L 391 258 L 393 260 L 393 264 L 385 274 L 378 279 L 373 285 L 379 288 L 380 279 L 382 278 L 384 280 L 388 294 L 394 299 Z M 375 147 L 376 145 L 385 137 L 391 135 L 406 135 L 407 136 L 414 137 L 421 141 L 425 145 L 427 149 L 427 156 L 425 160 L 419 165 L 416 165 L 411 167 L 397 166 L 396 165 L 389 164 L 383 160 L 376 152 Z M 298 130 L 304 125 L 310 123 L 313 123 L 314 122 L 321 122 L 322 123 L 325 123 L 331 125 L 335 129 L 335 132 L 333 134 L 326 134 L 325 133 L 320 133 L 319 132 L 312 132 L 311 133 L 300 135 L 298 133 Z M 279 117 L 281 116 L 285 116 L 290 121 L 291 123 L 291 134 L 290 137 L 291 138 L 293 137 L 298 137 L 299 136 L 314 137 L 317 140 L 319 140 L 326 146 L 328 150 L 327 157 L 322 165 L 312 173 L 308 175 L 305 175 L 306 177 L 311 179 L 320 180 L 321 181 L 335 181 L 336 180 L 339 180 L 352 174 L 358 168 L 360 164 L 363 161 L 366 162 L 372 168 L 373 175 L 374 176 L 374 200 L 373 201 L 373 208 L 372 209 L 371 217 L 363 234 L 360 238 L 350 247 L 340 251 L 331 252 L 330 251 L 324 250 L 314 245 L 300 231 L 289 215 L 283 201 L 283 196 L 280 193 L 274 191 L 264 181 L 264 179 L 262 176 L 262 169 L 261 169 L 255 175 L 248 178 L 246 177 L 242 177 L 236 171 L 236 164 L 239 158 L 247 151 L 249 151 L 252 149 L 261 149 L 266 153 L 271 153 L 273 154 L 274 152 L 274 146 L 275 145 L 271 140 L 271 129 L 273 126 L 274 122 Z M 365 110 L 371 112 L 375 117 L 377 122 L 377 134 L 376 137 L 371 143 L 368 143 L 367 144 L 364 144 L 358 139 L 355 132 L 355 122 L 356 121 L 356 118 L 362 111 Z M 259 77 L 267 84 L 267 87 L 261 95 L 258 101 L 253 107 L 249 110 L 245 110 L 244 108 L 240 105 L 236 99 L 236 89 L 238 87 L 238 85 L 244 78 L 246 77 L 250 77 L 251 76 Z M 359 74 L 364 68 L 372 68 L 379 71 L 385 77 L 386 83 L 383 86 L 378 87 L 374 84 L 368 83 L 366 81 L 363 81 L 359 77 Z M 431 52 L 441 52 L 445 54 L 450 58 L 455 67 L 455 73 L 456 75 L 453 81 L 448 86 L 444 88 L 440 88 L 429 77 L 425 74 L 423 74 L 419 70 L 419 65 L 424 57 Z" fill="#FBFBFB" fill-rule="evenodd"/><path d="M 409 617 L 406 617 L 396 612 L 380 600 L 375 599 L 369 604 L 357 608 L 346 618 L 344 618 L 336 622 L 314 640 L 292 651 L 287 655 L 271 672 L 294 650 L 301 646 L 305 646 L 307 644 L 310 643 L 315 639 L 318 638 L 321 635 L 324 634 L 336 622 L 341 621 L 349 616 L 358 608 L 362 607 L 367 604 L 369 604 L 375 600 L 378 600 L 384 603 L 388 607 L 394 610 L 402 616 Z M 165 562 L 160 563 L 155 569 L 153 575 L 151 577 L 151 582 L 151 579 L 154 571 L 161 564 Z M 265 529 L 261 531 L 260 533 L 250 542 L 243 554 L 248 547 L 248 545 L 253 540 L 255 539 L 259 539 L 260 538 L 260 533 Z M 231 517 L 235 523 L 240 528 L 239 534 L 231 547 L 214 565 L 209 565 L 203 561 L 197 560 L 202 561 L 211 566 L 213 566 L 215 565 L 215 564 L 232 546 L 240 533 L 240 527 Z M 515 508 L 515 510 L 521 515 L 526 515 L 531 518 L 530 514 L 524 508 L 522 507 L 516 507 Z M 314 495 L 299 495 L 297 497 L 301 501 L 300 505 L 294 510 L 285 511 L 278 515 L 274 516 L 274 518 L 276 520 L 276 523 L 274 525 L 271 526 L 274 525 L 277 522 L 278 517 L 282 513 L 287 513 L 292 511 L 297 511 L 300 509 L 301 505 L 303 502 L 302 498 L 306 495 Z M 394 488 L 394 486 L 389 480 L 384 479 L 377 476 L 387 480 L 392 485 L 390 487 L 383 486 L 382 485 L 379 486 L 358 486 L 357 487 L 351 487 L 362 487 L 363 486 L 386 486 L 387 487 L 390 487 L 392 489 Z M 258 469 L 256 469 L 252 474 L 252 483 L 254 488 L 256 488 L 258 483 Z M 526 467 L 521 477 L 510 488 L 510 491 L 518 491 L 514 488 L 514 485 L 522 476 Z M 350 475 L 346 475 L 343 472 L 344 469 L 343 466 L 332 466 L 327 469 L 327 472 L 324 477 L 321 477 L 317 479 L 312 479 L 308 481 L 321 480 L 322 479 L 325 479 L 330 477 L 334 477 L 335 476 L 339 476 L 340 475 Z M 218 460 L 218 461 L 219 461 L 225 455 L 228 458 L 227 466 L 226 467 L 226 472 L 225 473 L 225 483 L 226 483 L 228 478 L 230 476 L 233 478 L 233 491 L 234 492 L 235 498 L 241 509 L 245 513 L 249 512 L 254 508 L 257 504 L 260 504 L 268 501 L 270 499 L 273 498 L 278 493 L 283 491 L 285 489 L 297 483 L 305 482 L 296 483 L 294 485 L 285 488 L 280 492 L 276 486 L 272 483 L 268 483 L 267 484 L 266 493 L 264 495 L 255 500 L 250 505 L 242 504 L 236 500 L 235 494 L 233 491 L 233 477 L 232 475 L 230 475 L 227 479 L 225 478 L 226 467 L 228 462 L 228 455 L 225 454 L 219 461 Z M 250 445 L 247 448 L 246 452 L 244 454 L 244 461 L 246 463 L 248 461 L 249 456 L 251 453 L 251 446 Z M 385 440 L 382 438 L 376 438 L 372 433 L 368 433 L 367 434 L 366 449 L 365 450 L 364 456 L 365 457 L 371 457 L 373 456 L 379 447 L 379 443 L 381 441 L 384 442 Z M 215 432 L 214 433 L 215 435 L 220 432 L 222 432 L 224 434 L 224 437 L 222 442 L 224 438 L 224 432 L 223 431 L 220 431 L 217 433 Z M 249 428 L 246 429 L 239 438 L 237 442 L 237 448 L 238 449 L 241 448 L 250 432 L 250 429 Z M 246 432 L 247 435 L 241 442 L 240 439 Z M 337 419 L 331 426 L 329 426 L 325 429 L 325 434 L 326 435 L 332 433 L 335 427 L 339 423 L 339 420 Z M 379 418 L 380 422 L 384 427 L 386 426 L 389 421 L 393 421 L 394 420 L 394 417 L 393 416 L 391 416 L 389 418 L 386 415 L 380 415 Z M 252 409 L 248 410 L 244 414 L 243 417 L 238 424 L 238 428 L 239 429 L 241 429 L 245 426 L 251 415 Z M 246 417 L 247 419 L 246 421 L 243 423 L 242 420 Z M 610 396 L 602 399 L 585 398 L 580 400 L 583 400 L 584 399 L 599 400 Z M 271 385 L 263 386 L 260 389 L 259 394 L 261 395 L 264 393 L 267 393 L 271 389 Z M 313 379 L 309 378 L 300 386 L 301 387 L 306 387 L 310 385 L 313 381 Z M 356 371 L 347 379 L 347 385 L 350 390 L 352 391 L 355 397 L 359 401 L 361 399 L 361 388 L 359 385 L 359 382 L 362 380 L 363 378 L 360 372 Z M 328 364 L 324 370 L 324 373 L 326 373 L 329 370 L 329 365 Z M 299 362 L 296 362 L 291 367 L 286 370 L 279 377 L 277 381 L 281 381 L 287 377 L 291 372 L 300 364 Z M 343 361 L 339 361 L 337 363 L 331 375 L 333 381 L 336 379 L 339 371 L 344 366 Z M 278 356 L 283 357 L 284 356 L 291 355 L 292 352 L 291 351 L 283 351 L 279 353 Z M 323 347 L 322 346 L 319 346 L 312 350 L 309 356 L 310 357 L 318 356 L 322 352 Z M 255 345 L 250 345 L 244 347 L 241 350 L 239 349 L 239 347 L 238 349 L 238 351 L 241 352 L 250 346 L 253 346 L 255 348 L 252 354 L 234 370 L 233 373 L 225 382 L 226 383 L 230 383 L 232 386 L 227 394 L 221 400 L 218 405 L 219 407 L 223 405 L 225 405 L 227 407 L 227 409 L 224 415 L 226 412 L 227 406 L 224 404 L 222 404 L 221 401 L 225 397 L 229 390 L 232 387 L 232 383 L 229 382 L 228 379 L 233 374 L 234 371 L 238 367 L 247 361 L 256 351 L 257 347 Z M 288 330 L 282 330 L 278 334 L 276 339 L 276 342 L 277 343 L 279 343 L 282 339 L 286 336 L 287 333 L 289 331 Z M 364 316 L 363 317 L 364 323 L 369 328 L 372 329 L 372 327 L 374 325 L 373 323 L 373 319 Z M 326 317 L 325 316 L 321 317 L 316 321 L 313 321 L 311 316 L 308 317 L 305 320 L 303 325 L 296 332 L 296 333 L 307 332 L 311 329 L 318 328 L 322 325 L 326 320 Z M 634 334 L 636 338 L 636 341 L 634 343 L 627 342 L 624 345 L 623 351 L 624 352 L 624 355 L 627 358 L 627 363 L 626 364 L 623 364 L 618 362 L 612 362 L 606 365 L 605 367 L 605 371 L 604 373 L 601 375 L 596 375 L 594 374 L 590 376 L 589 375 L 586 375 L 582 372 L 579 372 L 576 374 L 575 377 L 570 382 L 566 382 L 562 377 L 562 375 L 560 372 L 560 367 L 558 365 L 558 363 L 550 358 L 547 358 L 544 354 L 542 354 L 538 350 L 525 341 L 520 342 L 517 341 L 515 339 L 511 339 L 508 336 L 501 333 L 496 333 L 490 331 L 486 331 L 485 332 L 475 332 L 474 331 L 457 329 L 455 327 L 452 326 L 447 326 L 446 328 L 454 337 L 454 339 L 453 340 L 449 339 L 445 341 L 443 344 L 443 355 L 445 358 L 446 363 L 442 367 L 441 372 L 455 385 L 455 387 L 459 391 L 460 393 L 458 395 L 454 395 L 452 397 L 452 400 L 458 407 L 460 413 L 469 422 L 467 425 L 457 419 L 454 419 L 451 423 L 455 428 L 453 430 L 447 430 L 444 429 L 442 427 L 446 423 L 446 421 L 444 418 L 444 415 L 440 411 L 442 409 L 446 412 L 448 410 L 448 404 L 445 399 L 446 397 L 445 395 L 445 389 L 446 388 L 439 381 L 431 379 L 428 383 L 426 383 L 421 375 L 418 374 L 416 372 L 416 370 L 411 363 L 411 360 L 418 353 L 424 352 L 425 350 L 424 345 L 421 339 L 416 333 L 415 333 L 409 327 L 406 326 L 401 321 L 398 321 L 397 322 L 398 325 L 411 340 L 413 344 L 412 347 L 407 347 L 402 349 L 398 349 L 390 342 L 383 333 L 380 332 L 374 332 L 371 336 L 368 335 L 352 321 L 349 321 L 348 320 L 350 317 L 350 311 L 351 310 L 350 306 L 352 305 L 352 303 L 350 301 L 349 302 L 346 300 L 341 305 L 338 306 L 338 312 L 341 316 L 344 317 L 347 320 L 347 323 L 342 328 L 338 329 L 337 331 L 337 337 L 338 340 L 340 341 L 342 339 L 342 336 L 344 334 L 349 333 L 351 335 L 357 336 L 365 341 L 368 341 L 369 342 L 379 342 L 389 352 L 389 355 L 393 358 L 393 363 L 395 369 L 399 369 L 401 368 L 402 366 L 404 366 L 409 371 L 413 371 L 415 373 L 413 375 L 407 375 L 406 374 L 403 378 L 406 381 L 413 382 L 416 385 L 416 391 L 414 393 L 410 390 L 405 388 L 393 388 L 392 387 L 386 387 L 385 386 L 377 386 L 372 390 L 372 392 L 374 396 L 376 397 L 377 400 L 380 400 L 383 398 L 384 399 L 389 399 L 391 397 L 393 397 L 398 400 L 400 399 L 408 399 L 411 402 L 412 405 L 406 409 L 406 410 L 404 411 L 403 414 L 407 418 L 412 418 L 415 420 L 418 420 L 422 422 L 429 430 L 429 439 L 427 441 L 426 444 L 420 444 L 418 442 L 416 442 L 414 440 L 407 437 L 402 437 L 402 439 L 408 444 L 411 444 L 415 448 L 415 451 L 417 453 L 417 455 L 424 459 L 427 459 L 430 461 L 437 461 L 441 463 L 445 468 L 447 469 L 453 469 L 454 466 L 456 464 L 458 466 L 458 470 L 459 471 L 458 473 L 458 483 L 457 484 L 457 488 L 456 490 L 451 494 L 448 494 L 445 497 L 445 500 L 439 508 L 436 507 L 433 509 L 431 506 L 429 506 L 423 511 L 422 514 L 416 521 L 416 523 L 413 527 L 413 529 L 409 533 L 408 536 L 406 538 L 399 538 L 396 542 L 392 541 L 387 547 L 382 550 L 378 554 L 376 554 L 372 559 L 370 559 L 369 561 L 362 567 L 356 571 L 352 572 L 348 576 L 339 580 L 334 581 L 330 586 L 328 586 L 307 605 L 299 608 L 296 611 L 290 611 L 286 614 L 283 618 L 276 622 L 273 626 L 271 626 L 268 630 L 264 630 L 260 634 L 256 634 L 255 635 L 250 635 L 248 634 L 246 636 L 237 636 L 234 634 L 218 618 L 208 605 L 209 597 L 210 596 L 208 591 L 199 586 L 193 586 L 188 580 L 186 580 L 184 578 L 181 578 L 177 573 L 179 571 L 184 571 L 189 573 L 194 573 L 196 575 L 200 575 L 202 577 L 204 577 L 207 579 L 211 579 L 216 583 L 218 583 L 230 593 L 233 593 L 234 592 L 234 589 L 234 591 L 231 593 L 215 581 L 204 576 L 199 575 L 196 573 L 189 572 L 188 571 L 175 571 L 174 572 L 171 572 L 167 575 L 166 578 L 167 579 L 184 579 L 187 580 L 190 583 L 193 589 L 195 590 L 200 590 L 201 589 L 206 590 L 209 594 L 209 599 L 206 605 L 206 608 L 210 610 L 217 617 L 219 624 L 226 631 L 230 633 L 242 646 L 248 646 L 249 645 L 256 644 L 258 646 L 257 654 L 262 654 L 264 656 L 266 655 L 278 644 L 281 639 L 280 632 L 291 620 L 306 611 L 314 605 L 320 599 L 326 595 L 328 595 L 339 586 L 344 585 L 359 574 L 362 570 L 365 569 L 370 564 L 377 560 L 380 557 L 387 554 L 401 544 L 403 544 L 409 538 L 415 526 L 424 513 L 428 512 L 430 518 L 431 518 L 434 514 L 439 515 L 441 511 L 448 504 L 448 502 L 451 498 L 457 493 L 461 482 L 461 475 L 463 471 L 466 469 L 468 466 L 470 467 L 471 465 L 471 456 L 470 454 L 476 450 L 476 447 L 474 442 L 471 439 L 467 438 L 462 433 L 457 425 L 460 423 L 470 432 L 475 433 L 475 426 L 473 424 L 471 419 L 463 411 L 463 408 L 461 404 L 462 402 L 466 403 L 468 399 L 467 391 L 466 390 L 466 385 L 465 384 L 463 373 L 460 370 L 456 370 L 453 367 L 448 358 L 448 353 L 444 347 L 444 343 L 446 341 L 462 342 L 460 338 L 457 335 L 453 334 L 448 329 L 450 327 L 453 327 L 456 329 L 459 329 L 464 331 L 469 331 L 470 332 L 478 332 L 479 333 L 490 333 L 491 334 L 494 334 L 499 339 L 508 342 L 522 350 L 524 349 L 523 348 L 523 345 L 525 343 L 529 344 L 542 356 L 554 360 L 559 366 L 560 373 L 563 380 L 568 385 L 572 387 L 576 387 L 578 385 L 578 382 L 576 380 L 576 376 L 579 373 L 583 373 L 592 381 L 599 385 L 606 385 L 609 383 L 609 375 L 607 370 L 607 366 L 610 363 L 614 363 L 622 371 L 625 371 L 628 367 L 628 361 L 624 351 L 624 345 L 626 343 L 631 343 L 636 348 L 638 348 L 638 343 Z M 450 453 L 452 455 L 452 457 L 449 461 L 447 459 L 447 455 Z M 429 449 L 431 447 L 437 449 L 440 453 L 440 455 L 438 457 L 436 457 L 429 451 Z M 418 448 L 419 447 L 422 447 L 427 451 L 432 457 L 429 458 L 423 456 L 419 452 Z M 411 412 L 414 411 L 416 413 L 431 418 L 434 421 L 436 425 L 434 427 L 430 427 L 425 422 L 413 415 Z M 437 400 L 440 399 L 443 402 L 441 404 L 439 404 L 437 402 Z M 424 398 L 428 401 L 429 400 L 432 402 L 431 410 L 435 414 L 433 416 L 427 415 L 417 407 L 417 404 Z M 430 392 L 433 391 L 435 392 L 437 395 L 435 397 L 432 395 Z M 379 336 L 381 335 L 384 337 L 398 352 L 402 352 L 403 351 L 408 351 L 409 352 L 407 353 L 405 357 L 402 360 L 398 362 L 395 359 L 391 351 L 383 341 L 379 338 Z M 404 326 L 409 329 L 418 338 L 422 345 L 422 347 L 420 349 L 416 346 L 410 337 L 402 328 Z M 415 299 L 415 302 L 418 304 L 423 310 L 423 315 L 422 317 L 419 319 L 407 315 L 406 318 L 408 321 L 420 332 L 424 334 L 428 334 L 430 332 L 432 327 L 433 317 L 430 310 L 426 305 L 422 302 L 419 298 Z M 424 306 L 431 314 L 431 327 L 427 332 L 422 332 L 409 320 L 411 318 L 413 318 L 420 322 L 422 322 L 425 318 L 425 313 L 423 309 Z M 405 295 L 403 298 L 402 303 L 408 305 L 409 304 L 409 298 Z M 201 264 L 202 267 L 199 270 L 200 272 L 196 275 L 197 280 L 193 283 L 193 284 L 196 283 L 198 285 L 203 287 L 202 290 L 204 293 L 203 295 L 205 297 L 216 297 L 217 296 L 216 291 L 206 291 L 204 289 L 205 288 L 204 286 L 205 283 L 204 279 L 206 276 L 206 267 L 208 263 L 207 262 L 204 265 Z M 393 301 L 393 299 L 387 294 L 382 279 L 381 279 L 380 288 L 379 289 L 376 287 L 374 287 L 372 285 L 377 279 L 383 275 L 392 264 L 392 260 L 391 259 L 385 259 L 372 264 L 368 264 L 367 265 L 354 267 L 353 268 L 346 268 L 345 269 L 331 269 L 330 268 L 325 268 L 321 266 L 313 266 L 311 268 L 311 272 L 320 281 L 328 286 L 331 289 L 334 290 L 336 292 L 342 294 L 346 297 L 351 297 L 359 294 L 361 296 L 359 300 L 360 301 L 363 300 L 367 304 L 370 305 L 373 305 L 374 304 L 377 305 L 383 301 L 386 303 L 389 301 L 392 302 Z M 391 262 L 390 265 L 373 282 L 368 285 L 363 290 L 356 292 L 354 294 L 351 295 L 343 294 L 330 287 L 324 282 L 320 280 L 311 270 L 314 266 L 321 267 L 322 268 L 327 268 L 328 269 L 349 269 L 350 268 L 355 268 L 356 267 L 361 267 L 362 266 L 366 266 L 367 265 L 374 264 L 378 262 L 381 262 L 384 260 L 389 260 Z M 94 237 L 98 245 L 98 247 L 100 249 L 110 267 L 122 280 L 122 281 L 133 291 L 134 295 L 134 291 L 117 275 L 109 265 L 103 254 L 101 252 Z M 155 222 L 160 220 L 159 219 L 156 219 Z M 56 193 L 57 196 L 63 204 L 80 220 L 89 226 L 91 229 L 87 224 L 78 218 L 65 206 L 60 200 Z M 366 163 L 363 162 L 359 168 L 352 175 L 349 176 L 347 178 L 343 179 L 345 179 L 354 174 L 363 163 L 367 164 L 370 167 L 372 173 L 372 178 L 373 179 L 373 200 L 372 201 L 372 207 L 371 208 L 371 211 L 370 212 L 370 215 L 367 224 L 361 235 L 348 246 L 338 250 L 330 250 L 329 249 L 323 248 L 315 244 L 311 241 L 299 228 L 288 210 L 290 215 L 301 231 L 314 244 L 324 249 L 330 250 L 331 251 L 340 250 L 346 248 L 354 243 L 364 231 L 368 222 L 368 220 L 370 217 L 371 209 L 372 208 L 372 201 L 373 200 L 373 176 L 372 175 L 371 168 Z M 237 164 L 237 171 L 242 176 L 246 176 L 247 177 L 255 174 L 261 168 L 263 169 L 263 176 L 265 179 L 265 181 L 274 190 L 279 192 L 274 190 L 266 182 L 263 176 L 263 164 L 262 164 L 258 170 L 250 176 L 243 176 L 237 169 L 237 165 L 240 159 L 247 153 L 254 150 L 262 151 L 264 153 L 265 156 L 268 154 L 271 154 L 273 156 L 273 169 L 272 170 L 273 176 L 278 182 L 282 184 L 291 184 L 299 178 L 305 178 L 309 180 L 313 180 L 319 182 L 335 182 L 341 180 L 335 182 L 321 182 L 320 181 L 316 181 L 315 180 L 308 179 L 304 176 L 305 174 L 308 174 L 319 167 L 325 159 L 326 156 L 323 162 L 317 168 L 310 172 L 304 174 L 291 174 L 285 171 L 275 160 L 274 153 L 273 155 L 271 154 L 266 154 L 261 150 L 252 150 L 249 152 L 247 152 L 240 158 Z M 273 164 L 276 162 L 282 169 L 295 177 L 294 181 L 290 184 L 282 184 L 280 183 L 273 176 Z M 376 147 L 377 152 L 383 159 L 389 163 L 392 163 L 397 165 L 411 166 L 412 165 L 419 164 L 424 160 L 426 156 L 426 149 L 424 145 L 418 140 L 406 136 L 391 136 L 383 139 Z M 377 146 L 381 141 L 388 137 L 395 137 L 396 136 L 409 137 L 419 141 L 425 147 L 426 149 L 426 156 L 421 162 L 417 164 L 414 164 L 413 165 L 399 165 L 398 164 L 395 164 L 389 162 L 384 159 L 378 153 L 377 151 Z M 290 132 L 289 137 L 287 139 L 288 140 L 294 138 L 299 138 L 300 137 L 305 137 L 306 138 L 314 139 L 320 142 L 326 148 L 327 150 L 327 154 L 327 150 L 325 146 L 319 141 L 317 141 L 314 138 L 299 137 L 298 138 L 293 138 L 291 139 L 289 137 Z M 299 130 L 299 133 L 300 134 L 307 133 L 312 131 L 319 131 L 320 132 L 325 132 L 326 133 L 333 133 L 334 132 L 334 129 L 331 126 L 325 124 L 322 124 L 321 123 L 310 124 L 304 126 Z M 301 132 L 301 130 L 303 128 L 307 126 L 316 125 L 317 124 L 319 125 L 326 125 L 330 127 L 333 130 L 331 133 L 329 132 L 324 132 L 323 131 L 315 131 L 314 130 L 304 132 L 303 133 Z M 93 119 L 91 122 L 91 126 L 92 124 L 96 121 L 99 121 L 103 123 L 106 126 L 113 137 L 114 146 L 109 152 L 102 152 L 99 151 L 98 153 L 95 153 L 88 145 L 80 140 L 76 140 L 71 144 L 70 146 L 70 150 L 71 152 L 72 152 L 72 148 L 73 146 L 76 143 L 79 143 L 83 145 L 93 155 L 96 163 L 95 166 L 89 171 L 83 170 L 79 167 L 76 170 L 71 170 L 65 173 L 64 175 L 64 180 L 64 176 L 67 172 L 69 174 L 68 175 L 67 182 L 66 183 L 65 182 L 70 192 L 86 208 L 92 213 L 96 215 L 102 221 L 106 230 L 106 232 L 109 237 L 109 239 L 113 244 L 114 248 L 118 253 L 119 256 L 128 266 L 122 255 L 119 252 L 117 248 L 118 246 L 123 250 L 123 251 L 136 265 L 161 285 L 175 292 L 192 297 L 194 300 L 191 303 L 189 303 L 187 305 L 188 307 L 192 307 L 193 308 L 201 307 L 206 312 L 215 315 L 224 315 L 226 317 L 223 320 L 218 322 L 216 324 L 218 326 L 222 326 L 227 328 L 235 328 L 237 326 L 240 319 L 245 314 L 248 314 L 249 315 L 249 318 L 242 332 L 243 337 L 243 331 L 245 325 L 250 317 L 250 315 L 248 312 L 249 310 L 254 306 L 255 303 L 253 300 L 253 297 L 264 288 L 261 283 L 265 280 L 268 273 L 276 264 L 282 265 L 284 267 L 291 270 L 293 269 L 293 265 L 291 261 L 287 257 L 280 252 L 278 252 L 273 248 L 269 247 L 261 241 L 260 239 L 252 232 L 251 227 L 249 225 L 245 225 L 243 227 L 241 225 L 240 222 L 240 207 L 238 205 L 235 205 L 233 207 L 231 205 L 232 203 L 233 192 L 235 186 L 233 185 L 228 186 L 227 185 L 228 181 L 233 172 L 233 167 L 228 163 L 237 152 L 237 149 L 235 144 L 238 137 L 235 144 L 237 151 L 225 165 L 226 167 L 231 166 L 233 168 L 233 172 L 227 183 L 227 187 L 228 188 L 230 186 L 233 186 L 235 188 L 233 192 L 233 196 L 231 201 L 231 207 L 233 208 L 235 206 L 238 206 L 240 208 L 240 224 L 243 229 L 248 226 L 251 229 L 252 234 L 256 236 L 267 247 L 269 251 L 272 254 L 274 251 L 281 254 L 291 263 L 292 266 L 289 268 L 280 263 L 274 258 L 275 261 L 274 266 L 270 269 L 267 269 L 263 265 L 262 261 L 258 254 L 252 248 L 251 248 L 251 252 L 248 253 L 243 248 L 237 239 L 234 242 L 232 242 L 229 239 L 228 235 L 221 223 L 220 225 L 222 225 L 225 229 L 225 231 L 227 233 L 230 241 L 232 243 L 238 241 L 243 247 L 246 253 L 249 255 L 254 251 L 260 257 L 260 259 L 264 267 L 264 270 L 258 275 L 254 287 L 248 294 L 248 297 L 242 310 L 241 318 L 239 320 L 239 322 L 237 325 L 234 327 L 227 327 L 221 325 L 220 323 L 228 318 L 229 316 L 228 314 L 215 314 L 209 312 L 203 306 L 200 307 L 192 307 L 190 305 L 196 301 L 196 299 L 193 296 L 187 294 L 184 294 L 175 290 L 173 290 L 162 284 L 155 277 L 149 274 L 128 254 L 112 233 L 110 232 L 104 225 L 102 220 L 96 214 L 93 213 L 88 209 L 84 204 L 83 204 L 79 199 L 69 190 L 68 187 L 70 186 L 75 191 L 78 192 L 80 194 L 85 194 L 88 191 L 90 193 L 90 195 L 94 201 L 99 206 L 101 206 L 104 208 L 112 208 L 113 207 L 119 206 L 138 196 L 147 188 L 151 179 L 151 174 L 150 173 L 150 170 L 148 168 L 148 166 L 146 163 L 134 153 L 132 153 L 129 151 L 119 152 L 109 157 L 99 167 L 91 183 L 90 183 L 83 175 L 81 175 L 76 171 L 78 169 L 84 171 L 91 171 L 96 165 L 96 161 L 94 155 L 99 153 L 108 153 L 110 152 L 114 148 L 115 144 L 117 142 L 119 144 L 125 144 L 128 147 L 136 147 L 139 144 L 140 140 L 142 139 L 147 144 L 146 146 L 146 153 L 146 149 L 147 146 L 149 144 L 149 142 L 156 133 L 160 133 L 166 140 L 166 149 L 163 156 L 158 161 L 152 161 L 147 155 L 147 157 L 153 162 L 159 161 L 164 157 L 166 159 L 166 163 L 164 169 L 164 173 L 178 190 L 180 194 L 187 201 L 191 208 L 194 210 L 200 210 L 204 214 L 205 218 L 208 222 L 208 224 L 212 229 L 216 232 L 219 231 L 219 229 L 218 231 L 215 231 L 211 227 L 207 221 L 202 210 L 199 207 L 198 207 L 196 210 L 194 210 L 190 206 L 185 198 L 164 173 L 164 170 L 168 160 L 169 143 L 168 142 L 168 138 L 166 134 L 163 131 L 161 130 L 156 131 L 148 141 L 145 141 L 143 139 L 143 136 L 136 118 L 131 114 L 126 114 L 125 115 L 126 116 L 131 117 L 135 121 L 136 124 L 138 126 L 139 132 L 140 133 L 140 141 L 139 143 L 135 147 L 131 147 L 127 145 L 124 142 L 119 143 L 117 141 L 111 127 L 106 121 L 98 117 Z M 252 301 L 254 304 L 246 312 L 244 310 L 245 306 L 249 302 Z M 259 286 L 261 289 L 258 292 L 251 296 L 250 294 L 253 290 Z M 71 173 L 78 173 L 82 175 L 88 181 L 89 183 L 89 187 L 84 193 L 80 193 L 76 191 L 69 184 L 68 182 L 68 176 Z M 135 154 L 147 165 L 150 172 L 150 181 L 147 187 L 141 193 L 134 198 L 118 206 L 112 207 L 111 208 L 106 208 L 99 205 L 93 199 L 90 192 L 90 189 L 91 188 L 91 184 L 93 181 L 93 179 L 100 167 L 109 158 L 117 153 L 120 153 L 121 152 L 130 152 Z M 259 78 L 256 77 L 246 78 L 241 82 L 239 85 L 239 87 L 237 89 L 237 99 L 245 109 L 249 109 L 252 107 L 257 101 L 260 95 L 266 87 L 266 84 Z M 258 78 L 265 84 L 265 87 L 257 98 L 254 104 L 250 108 L 246 108 L 243 106 L 238 100 L 237 97 L 237 91 L 240 85 L 246 79 L 251 77 Z M 360 74 L 365 69 L 372 69 L 379 72 L 383 76 L 384 79 L 384 77 L 379 72 L 372 69 L 364 69 L 361 72 L 360 77 L 363 80 L 366 80 L 368 82 L 374 83 L 378 86 L 381 86 L 385 83 L 385 81 L 381 86 L 379 86 L 370 81 L 364 80 L 360 76 Z M 467 64 L 467 74 L 463 83 L 457 89 L 455 89 L 447 94 L 458 106 L 462 113 L 462 115 L 467 122 L 468 126 L 466 128 L 466 130 L 477 142 L 476 144 L 473 145 L 471 147 L 471 150 L 480 159 L 483 164 L 481 166 L 478 166 L 476 168 L 476 171 L 472 175 L 468 175 L 467 176 L 462 176 L 459 174 L 456 174 L 455 175 L 455 178 L 460 185 L 459 186 L 456 186 L 454 190 L 459 197 L 457 198 L 453 196 L 450 200 L 450 207 L 449 208 L 445 208 L 443 206 L 440 207 L 440 210 L 442 212 L 442 215 L 436 221 L 435 226 L 429 231 L 433 235 L 432 236 L 433 239 L 431 240 L 429 237 L 427 236 L 425 237 L 424 240 L 421 243 L 414 247 L 410 253 L 404 256 L 398 265 L 398 272 L 401 273 L 407 265 L 409 266 L 409 269 L 412 270 L 421 263 L 424 264 L 432 263 L 441 257 L 447 256 L 451 254 L 454 254 L 458 251 L 463 250 L 471 246 L 475 246 L 480 244 L 482 246 L 481 249 L 484 251 L 487 251 L 488 250 L 492 250 L 504 246 L 510 246 L 512 245 L 514 247 L 512 252 L 515 254 L 520 254 L 521 253 L 524 253 L 525 254 L 529 252 L 531 254 L 533 253 L 535 255 L 535 259 L 537 261 L 543 262 L 544 263 L 556 263 L 557 264 L 560 264 L 562 266 L 563 271 L 566 275 L 573 276 L 578 279 L 580 279 L 592 292 L 595 293 L 597 295 L 600 295 L 605 299 L 607 299 L 610 303 L 611 308 L 628 324 L 633 332 L 627 322 L 611 307 L 611 302 L 612 300 L 610 298 L 606 297 L 603 295 L 597 293 L 594 293 L 590 289 L 589 285 L 593 282 L 592 281 L 590 281 L 584 278 L 575 277 L 569 274 L 567 274 L 564 270 L 570 265 L 569 264 L 565 264 L 564 263 L 548 263 L 547 262 L 540 262 L 537 259 L 537 256 L 540 253 L 540 252 L 538 251 L 531 251 L 530 252 L 524 252 L 519 254 L 515 254 L 513 252 L 513 250 L 515 247 L 514 245 L 507 245 L 506 246 L 502 246 L 496 249 L 484 251 L 481 248 L 482 244 L 476 244 L 470 247 L 467 247 L 461 250 L 459 250 L 452 254 L 440 257 L 431 263 L 427 264 L 424 262 L 425 257 L 429 253 L 430 250 L 437 241 L 441 244 L 446 239 L 454 225 L 456 225 L 459 228 L 460 231 L 462 231 L 464 229 L 468 219 L 468 211 L 471 208 L 474 210 L 476 210 L 476 194 L 475 193 L 475 190 L 477 188 L 483 191 L 484 190 L 481 180 L 477 173 L 477 169 L 479 167 L 482 167 L 485 169 L 486 166 L 481 159 L 472 150 L 472 147 L 474 145 L 481 145 L 482 144 L 480 141 L 470 135 L 467 132 L 467 129 L 470 125 L 466 121 L 460 109 L 450 96 L 450 94 L 453 91 L 457 90 L 464 82 L 467 75 Z M 422 255 L 423 256 L 422 259 L 417 265 L 413 267 L 411 265 L 413 259 L 416 256 L 420 256 Z M 445 211 L 448 210 L 453 214 L 453 216 L 451 218 L 445 212 Z M 456 201 L 459 204 L 458 207 L 457 207 L 454 203 Z M 431 53 L 425 57 L 420 65 L 420 70 L 423 73 L 425 73 L 429 76 L 440 87 L 444 87 L 448 85 L 452 81 L 455 75 L 454 73 L 454 67 L 449 58 L 441 53 Z M 431 54 L 438 53 L 443 55 L 450 61 L 454 69 L 454 75 L 452 79 L 444 86 L 441 86 L 428 74 L 423 72 L 420 68 L 423 61 Z M 316 41 L 315 42 L 315 45 L 313 47 L 303 49 L 289 57 L 294 55 L 303 49 L 314 48 L 315 47 L 315 42 Z M 466 60 L 466 62 L 466 60 L 463 54 L 454 45 L 447 41 L 441 40 L 440 39 L 430 39 L 420 43 L 412 50 L 409 55 L 409 58 L 406 61 L 402 61 L 396 58 L 393 58 L 385 55 L 377 55 L 376 54 L 366 54 L 365 55 L 360 55 L 359 56 L 356 53 L 358 47 L 357 46 L 354 46 L 344 55 L 332 48 L 327 47 L 326 50 L 328 53 L 328 56 L 326 58 L 308 59 L 307 62 L 305 64 L 293 68 L 280 77 L 276 77 L 274 75 L 273 72 L 269 68 L 259 63 L 252 63 L 240 67 L 229 77 L 225 86 L 224 99 L 226 105 L 228 107 L 229 110 L 233 114 L 239 117 L 242 117 L 245 120 L 244 117 L 239 117 L 235 115 L 228 108 L 224 99 L 224 94 L 225 93 L 225 87 L 226 84 L 232 74 L 240 67 L 243 67 L 246 65 L 260 64 L 265 67 L 267 67 L 273 72 L 275 77 L 277 79 L 277 84 L 274 90 L 274 94 L 276 97 L 282 96 L 285 93 L 294 88 L 296 85 L 296 82 L 293 79 L 291 79 L 287 75 L 288 73 L 292 69 L 304 65 L 307 63 L 310 59 L 324 59 L 328 57 L 328 52 L 326 49 L 328 47 L 337 51 L 343 55 L 348 53 L 349 51 L 353 49 L 355 51 L 355 55 L 359 57 L 362 57 L 363 56 L 371 56 L 372 55 L 383 55 L 384 56 L 388 56 L 394 58 L 397 60 L 400 60 L 406 62 L 408 60 L 409 56 L 420 44 L 422 44 L 429 40 L 431 41 L 433 40 L 443 40 L 450 43 L 462 54 Z M 296 82 L 296 85 L 292 89 L 287 91 L 281 96 L 276 96 L 274 94 L 275 88 L 281 81 L 285 79 L 292 79 Z M 423 29 L 418 30 L 409 35 L 399 46 L 395 46 L 391 44 L 384 44 L 389 44 L 390 45 L 394 45 L 399 47 L 411 34 L 418 30 Z" fill="#E8E8E8" fill-rule="evenodd"/><path d="M 554 567 L 553 566 L 552 558 L 549 549 L 547 546 L 547 544 L 533 515 L 524 505 L 518 502 L 515 502 L 511 507 L 508 507 L 507 508 L 506 507 L 501 507 L 494 520 L 484 535 L 467 551 L 459 555 L 457 557 L 445 563 L 441 564 L 439 566 L 424 571 L 422 573 L 420 573 L 403 582 L 394 585 L 389 591 L 394 596 L 404 600 L 413 608 L 415 609 L 419 609 L 420 610 L 424 610 L 426 609 L 429 605 L 433 605 L 435 607 L 441 610 L 443 610 L 447 607 L 451 607 L 452 606 L 456 606 L 465 603 L 469 603 L 478 600 L 491 593 L 493 593 L 509 583 L 511 583 L 513 585 L 513 589 L 514 591 L 523 599 L 527 601 L 538 601 L 539 599 L 535 596 L 535 594 L 537 592 L 549 592 L 552 588 L 551 586 L 545 584 L 542 581 L 542 579 L 544 577 L 553 576 L 554 575 Z M 546 558 L 548 557 L 550 560 L 548 561 Z M 543 543 L 546 547 L 545 550 L 544 550 L 541 546 Z M 514 508 L 516 506 L 522 506 L 524 507 L 531 514 L 532 518 L 530 519 L 526 516 L 521 516 L 514 510 Z M 450 454 L 448 455 L 448 459 L 449 460 L 451 457 Z M 419 448 L 420 452 L 423 455 L 431 457 L 431 456 L 422 448 Z M 513 433 L 511 436 L 511 447 L 512 448 L 513 467 L 514 467 L 518 455 L 518 443 Z M 246 433 L 241 439 L 241 441 L 245 437 Z M 412 412 L 413 414 L 425 421 L 430 426 L 434 426 L 435 425 L 431 419 L 429 419 L 424 416 Z M 380 336 L 380 338 L 384 341 L 392 351 L 393 354 L 398 361 L 402 359 L 406 353 L 408 352 L 398 353 L 384 338 Z M 404 327 L 403 328 L 411 337 L 417 346 L 420 348 L 421 345 L 417 338 L 409 330 Z M 424 307 L 426 313 L 426 318 L 422 323 L 420 323 L 413 319 L 410 320 L 422 331 L 427 331 L 430 327 L 430 314 Z M 252 302 L 249 303 L 246 306 L 245 308 L 246 311 L 253 304 Z M 260 288 L 259 287 L 255 289 L 251 295 L 258 291 Z M 390 262 L 389 261 L 384 261 L 381 263 L 378 263 L 374 265 L 371 265 L 366 267 L 362 267 L 361 268 L 350 269 L 349 270 L 328 270 L 327 269 L 322 269 L 316 267 L 314 267 L 312 270 L 320 279 L 324 281 L 330 286 L 343 293 L 351 294 L 354 293 L 356 291 L 363 289 L 368 284 L 373 281 L 389 265 Z M 422 256 L 420 257 L 416 257 L 414 259 L 412 265 L 414 266 L 417 264 L 421 259 Z M 446 211 L 451 217 L 452 214 L 448 211 Z M 71 174 L 69 176 L 69 182 L 70 184 L 76 190 L 80 192 L 84 192 L 88 187 L 88 183 L 87 181 L 82 176 L 78 174 Z M 135 155 L 130 153 L 121 153 L 120 154 L 117 154 L 109 159 L 101 167 L 94 179 L 94 181 L 92 184 L 92 188 L 91 189 L 91 192 L 94 199 L 99 204 L 106 207 L 111 207 L 112 206 L 118 205 L 134 197 L 146 187 L 149 181 L 149 172 L 146 165 Z M 241 159 L 238 165 L 238 169 L 243 175 L 250 175 L 257 170 L 262 163 L 264 164 L 264 176 L 267 182 L 274 189 L 280 192 L 282 192 L 284 194 L 288 209 L 295 221 L 306 235 L 315 243 L 326 248 L 329 248 L 330 249 L 338 249 L 344 247 L 351 243 L 360 235 L 364 229 L 364 227 L 366 224 L 369 215 L 369 212 L 371 207 L 371 201 L 372 200 L 372 179 L 371 178 L 370 169 L 367 165 L 363 164 L 359 170 L 354 175 L 345 180 L 342 180 L 339 182 L 336 182 L 335 183 L 319 183 L 318 182 L 309 181 L 305 179 L 299 179 L 291 185 L 282 185 L 278 183 L 272 176 L 271 173 L 271 170 L 272 169 L 272 156 L 271 155 L 268 155 L 265 157 L 262 152 L 254 151 L 247 154 Z M 266 159 L 269 156 L 272 158 L 272 161 L 271 162 L 271 175 L 273 179 L 278 184 L 283 186 L 290 186 L 293 185 L 300 180 L 304 180 L 305 181 L 309 181 L 310 182 L 319 183 L 320 184 L 334 184 L 335 183 L 338 183 L 351 178 L 354 176 L 364 165 L 365 165 L 369 169 L 370 172 L 370 177 L 371 178 L 371 200 L 370 201 L 370 206 L 368 211 L 368 215 L 365 224 L 361 232 L 357 236 L 355 235 L 355 233 L 360 224 L 363 215 L 363 212 L 361 208 L 358 205 L 350 201 L 339 201 L 328 206 L 316 216 L 313 222 L 313 229 L 315 233 L 323 242 L 321 244 L 315 242 L 302 229 L 294 218 L 288 207 L 286 201 L 285 193 L 274 188 L 266 179 L 264 173 L 264 168 L 265 167 L 265 161 Z M 378 146 L 378 151 L 384 158 L 389 161 L 395 163 L 398 163 L 399 164 L 413 164 L 414 163 L 417 163 L 421 161 L 425 156 L 425 149 L 424 147 L 419 142 L 409 138 L 401 138 L 400 137 L 388 138 L 381 142 Z M 160 134 L 156 134 L 153 139 L 150 142 L 150 144 L 148 146 L 147 149 L 147 154 L 152 160 L 158 160 L 162 156 L 165 149 L 165 140 Z M 332 130 L 326 126 L 319 126 L 317 125 L 316 126 L 307 127 L 303 129 L 302 132 L 308 130 L 312 130 L 313 129 L 315 130 L 329 131 L 331 132 Z M 279 119 L 276 122 L 275 126 L 273 129 L 273 139 L 274 141 L 278 144 L 278 146 L 275 150 L 275 156 L 276 157 L 276 160 L 278 163 L 285 170 L 291 173 L 304 173 L 310 171 L 317 167 L 322 162 L 326 155 L 326 150 L 325 148 L 320 143 L 311 139 L 300 138 L 299 139 L 294 139 L 288 141 L 286 139 L 288 137 L 290 131 L 289 123 L 285 118 L 281 118 Z M 276 150 L 280 145 L 286 142 L 292 140 L 296 140 L 297 139 L 307 139 L 320 144 L 325 149 L 325 156 L 324 158 L 312 169 L 305 172 L 295 173 L 287 170 L 277 160 L 276 158 Z M 285 119 L 288 122 L 289 125 L 289 133 L 287 137 L 282 142 L 277 143 L 273 138 L 274 128 L 279 120 L 281 119 Z M 364 112 L 362 113 L 358 118 L 357 121 L 357 133 L 361 140 L 367 142 L 370 141 L 373 138 L 375 134 L 376 126 L 375 125 L 375 121 L 372 115 L 367 112 Z M 363 113 L 368 113 L 373 118 L 375 123 L 375 132 L 373 137 L 368 141 L 364 141 L 359 136 L 357 131 L 357 123 L 360 116 Z M 295 82 L 292 80 L 285 80 L 281 82 L 276 88 L 275 94 L 276 95 L 281 95 L 287 90 L 292 88 L 295 85 Z M 294 83 L 294 85 L 292 87 L 285 90 L 281 94 L 278 95 L 276 93 L 277 88 L 282 83 L 288 80 L 291 80 Z M 258 79 L 251 78 L 246 80 L 241 85 L 238 91 L 238 97 L 241 103 L 246 107 L 250 107 L 253 104 L 256 98 L 264 87 L 264 84 Z M 361 74 L 361 76 L 364 79 L 370 80 L 379 85 L 381 85 L 384 82 L 382 76 L 379 73 L 372 70 L 365 70 Z M 362 74 L 367 70 L 376 72 L 382 77 L 383 82 L 381 84 L 379 84 L 370 79 L 364 78 L 362 76 Z M 431 55 L 424 61 L 421 68 L 423 71 L 428 73 L 441 85 L 444 85 L 451 79 L 453 75 L 453 69 L 449 61 L 443 56 L 438 54 Z M 444 38 L 431 37 L 418 42 L 412 47 L 409 51 L 407 57 L 405 59 L 402 59 L 399 57 L 385 54 L 384 53 L 376 53 L 375 52 L 360 53 L 358 51 L 360 47 L 360 44 L 359 43 L 356 43 L 352 45 L 344 53 L 332 46 L 325 45 L 324 46 L 324 49 L 326 52 L 326 54 L 324 56 L 312 56 L 311 57 L 306 57 L 305 58 L 305 61 L 303 63 L 293 66 L 291 68 L 289 68 L 287 70 L 284 71 L 279 75 L 277 75 L 272 68 L 266 64 L 258 61 L 252 61 L 240 65 L 230 73 L 223 87 L 223 94 L 222 95 L 223 97 L 223 101 L 228 111 L 235 117 L 241 119 L 243 121 L 243 123 L 234 141 L 234 148 L 235 151 L 223 165 L 223 168 L 224 169 L 229 168 L 231 170 L 231 172 L 226 181 L 225 188 L 226 189 L 229 189 L 230 188 L 232 190 L 231 198 L 230 199 L 230 209 L 231 210 L 236 209 L 238 211 L 238 223 L 240 228 L 243 231 L 248 230 L 250 232 L 250 234 L 253 237 L 256 238 L 264 246 L 272 258 L 273 261 L 273 264 L 270 267 L 268 267 L 264 263 L 263 259 L 258 251 L 251 244 L 247 250 L 237 236 L 232 239 L 230 237 L 226 227 L 220 220 L 218 222 L 218 227 L 216 229 L 211 224 L 200 204 L 198 203 L 197 206 L 194 207 L 190 203 L 175 183 L 168 176 L 166 173 L 166 169 L 169 163 L 169 159 L 170 158 L 170 147 L 171 144 L 170 143 L 170 138 L 168 134 L 163 129 L 160 128 L 156 129 L 151 134 L 150 137 L 148 139 L 146 139 L 144 137 L 142 127 L 137 117 L 131 112 L 125 112 L 122 115 L 121 117 L 121 121 L 120 122 L 121 137 L 118 138 L 113 127 L 105 118 L 101 116 L 95 116 L 90 120 L 89 123 L 89 132 L 90 133 L 90 136 L 95 145 L 95 148 L 94 149 L 87 142 L 82 139 L 79 139 L 78 138 L 72 140 L 69 144 L 69 154 L 71 157 L 72 161 L 75 164 L 76 167 L 74 169 L 68 169 L 63 173 L 62 175 L 63 183 L 71 196 L 82 207 L 93 216 L 97 218 L 101 222 L 105 234 L 112 248 L 114 250 L 116 255 L 125 267 L 132 274 L 132 275 L 133 275 L 140 282 L 149 288 L 154 293 L 152 296 L 150 295 L 146 295 L 146 298 L 149 301 L 157 306 L 168 311 L 173 312 L 176 316 L 174 318 L 170 318 L 170 321 L 179 326 L 197 331 L 199 333 L 199 334 L 196 336 L 196 338 L 198 340 L 215 343 L 216 344 L 215 348 L 219 351 L 227 352 L 232 339 L 236 335 L 239 335 L 241 337 L 240 343 L 237 348 L 237 354 L 234 361 L 233 369 L 223 383 L 224 385 L 228 385 L 230 387 L 216 404 L 216 408 L 217 409 L 224 408 L 225 410 L 213 432 L 213 436 L 216 437 L 220 434 L 222 436 L 219 445 L 217 456 L 216 457 L 216 463 L 218 465 L 223 460 L 225 462 L 225 469 L 224 470 L 224 475 L 223 476 L 223 485 L 225 487 L 229 482 L 231 483 L 232 485 L 232 493 L 233 494 L 234 500 L 243 515 L 246 518 L 248 518 L 251 514 L 260 506 L 265 505 L 271 502 L 273 500 L 276 499 L 284 492 L 293 488 L 295 486 L 301 484 L 313 483 L 314 482 L 322 482 L 323 481 L 327 481 L 332 479 L 342 478 L 343 477 L 349 477 L 350 476 L 372 476 L 373 477 L 376 477 L 382 481 L 382 482 L 379 484 L 362 484 L 361 485 L 346 486 L 340 488 L 334 488 L 333 489 L 330 489 L 326 491 L 318 492 L 317 493 L 298 493 L 294 496 L 294 498 L 298 502 L 298 504 L 295 507 L 285 509 L 278 513 L 270 514 L 265 516 L 266 518 L 270 518 L 272 519 L 274 522 L 271 525 L 267 526 L 260 530 L 257 534 L 248 542 L 247 545 L 245 547 L 245 549 L 239 558 L 232 565 L 232 566 L 223 574 L 230 583 L 232 587 L 231 590 L 225 587 L 215 579 L 213 579 L 199 572 L 196 572 L 188 569 L 175 569 L 174 570 L 171 570 L 165 574 L 163 580 L 163 593 L 162 594 L 162 604 L 163 606 L 166 608 L 171 605 L 182 605 L 192 609 L 199 616 L 206 620 L 213 627 L 215 631 L 239 657 L 241 663 L 243 665 L 246 666 L 256 666 L 259 665 L 274 651 L 274 650 L 286 637 L 289 635 L 295 637 L 302 631 L 308 629 L 315 621 L 318 620 L 325 615 L 336 605 L 339 605 L 343 603 L 350 595 L 353 593 L 355 594 L 360 593 L 364 590 L 367 586 L 376 582 L 381 577 L 384 576 L 386 574 L 391 573 L 393 571 L 397 570 L 402 567 L 404 567 L 409 564 L 412 564 L 416 562 L 419 562 L 420 561 L 423 561 L 429 559 L 449 548 L 454 547 L 469 535 L 481 520 L 491 501 L 493 495 L 494 488 L 496 484 L 496 479 L 497 478 L 497 467 L 502 465 L 501 451 L 500 450 L 500 447 L 496 435 L 498 433 L 502 433 L 503 430 L 499 422 L 488 405 L 489 402 L 496 404 L 497 403 L 497 400 L 482 382 L 484 379 L 487 378 L 487 376 L 481 366 L 480 360 L 476 357 L 464 356 L 463 355 L 458 355 L 452 353 L 449 351 L 446 347 L 446 345 L 448 343 L 454 343 L 455 344 L 459 344 L 464 346 L 488 349 L 495 352 L 498 351 L 498 350 L 492 344 L 495 341 L 502 342 L 508 345 L 510 345 L 517 350 L 524 353 L 527 353 L 528 352 L 527 349 L 530 347 L 540 357 L 546 360 L 552 361 L 556 364 L 558 368 L 558 373 L 560 376 L 561 380 L 566 386 L 571 389 L 577 389 L 580 387 L 580 381 L 578 378 L 580 375 L 582 375 L 592 384 L 599 388 L 604 388 L 609 386 L 611 383 L 611 375 L 609 371 L 609 367 L 611 365 L 614 365 L 621 374 L 626 373 L 628 371 L 630 366 L 629 359 L 626 352 L 626 347 L 629 345 L 636 352 L 638 352 L 639 350 L 640 344 L 639 343 L 638 337 L 628 321 L 613 307 L 613 305 L 615 302 L 614 299 L 608 295 L 595 291 L 593 289 L 593 287 L 596 284 L 596 281 L 595 280 L 587 277 L 578 276 L 569 273 L 567 271 L 573 265 L 571 262 L 565 262 L 564 261 L 544 261 L 540 258 L 544 253 L 544 250 L 543 249 L 534 249 L 533 250 L 526 250 L 525 251 L 517 252 L 515 250 L 518 246 L 516 243 L 503 244 L 497 247 L 486 249 L 484 247 L 484 245 L 486 243 L 485 242 L 477 242 L 471 245 L 468 245 L 459 248 L 447 254 L 444 254 L 442 252 L 448 245 L 454 242 L 459 238 L 465 231 L 469 223 L 470 213 L 471 212 L 473 212 L 475 214 L 477 213 L 478 211 L 478 192 L 480 191 L 483 194 L 486 193 L 486 188 L 484 182 L 479 173 L 479 171 L 481 169 L 484 171 L 487 171 L 488 170 L 488 166 L 481 156 L 474 149 L 476 147 L 484 147 L 485 144 L 483 141 L 476 136 L 473 135 L 470 132 L 470 130 L 473 128 L 473 126 L 468 121 L 460 106 L 452 96 L 454 93 L 459 91 L 463 87 L 467 80 L 468 74 L 469 73 L 468 61 L 464 53 L 453 42 Z M 205 592 L 207 594 L 207 598 L 205 602 L 200 607 L 196 607 L 192 602 L 192 597 L 200 592 Z M 189 585 L 188 592 L 185 596 L 182 597 L 179 596 L 176 592 L 175 592 L 172 596 L 169 598 L 166 596 L 165 586 L 169 583 L 178 583 L 184 581 Z M 496 422 L 500 428 L 498 429 L 495 425 Z M 244 319 L 245 321 L 244 323 L 242 324 L 241 322 Z M 174 320 L 177 319 L 180 321 L 181 323 L 178 324 L 175 322 Z M 149 298 L 151 297 L 153 298 L 155 301 L 153 302 L 151 301 Z M 133 272 L 134 271 L 139 276 L 137 277 Z M 444 39 L 454 44 L 464 54 L 467 60 L 467 63 L 468 64 L 468 75 L 463 85 L 457 91 L 453 92 L 451 94 L 451 96 L 461 109 L 467 121 L 471 125 L 468 129 L 468 132 L 482 142 L 483 144 L 481 146 L 474 146 L 473 147 L 473 150 L 482 159 L 487 166 L 487 168 L 485 170 L 482 168 L 479 168 L 478 169 L 478 173 L 482 180 L 485 190 L 483 192 L 478 189 L 476 190 L 476 193 L 477 194 L 477 210 L 474 211 L 471 209 L 469 211 L 469 219 L 465 229 L 462 232 L 460 232 L 458 230 L 458 228 L 456 226 L 454 226 L 447 239 L 441 245 L 437 242 L 431 250 L 430 253 L 426 257 L 425 262 L 427 263 L 431 262 L 440 256 L 452 253 L 459 249 L 461 249 L 467 246 L 470 246 L 476 243 L 482 243 L 483 244 L 482 248 L 484 250 L 496 248 L 502 245 L 506 245 L 507 244 L 514 244 L 516 246 L 514 250 L 515 253 L 519 253 L 524 251 L 530 251 L 531 250 L 538 250 L 541 252 L 538 256 L 538 259 L 540 261 L 547 261 L 548 262 L 564 262 L 565 263 L 569 263 L 571 265 L 565 270 L 567 273 L 569 273 L 575 276 L 584 277 L 590 280 L 592 280 L 594 282 L 590 285 L 590 287 L 594 292 L 597 292 L 610 297 L 613 300 L 612 302 L 612 307 L 628 322 L 632 328 L 635 335 L 637 337 L 639 343 L 639 348 L 636 349 L 631 344 L 626 344 L 625 345 L 625 351 L 629 361 L 629 367 L 625 372 L 622 372 L 614 364 L 610 364 L 608 366 L 608 370 L 610 375 L 610 383 L 606 386 L 599 386 L 592 382 L 583 374 L 579 374 L 577 376 L 577 380 L 579 382 L 579 385 L 576 388 L 572 388 L 568 386 L 562 380 L 559 373 L 559 369 L 557 364 L 554 361 L 542 357 L 529 345 L 525 344 L 524 345 L 524 348 L 525 349 L 522 351 L 508 343 L 499 340 L 494 335 L 491 335 L 490 334 L 470 333 L 469 332 L 464 332 L 463 331 L 456 330 L 453 328 L 450 328 L 449 329 L 453 333 L 457 334 L 461 338 L 463 342 L 462 343 L 446 342 L 445 343 L 445 347 L 449 353 L 449 358 L 454 367 L 456 369 L 460 369 L 464 373 L 465 380 L 467 385 L 467 390 L 468 391 L 469 399 L 468 402 L 466 404 L 462 403 L 464 408 L 464 411 L 472 419 L 474 424 L 476 426 L 476 433 L 475 434 L 472 434 L 460 424 L 458 425 L 463 433 L 467 437 L 471 438 L 475 442 L 477 447 L 477 450 L 474 453 L 471 454 L 472 456 L 472 465 L 470 468 L 468 467 L 467 469 L 464 471 L 462 475 L 462 482 L 458 493 L 452 498 L 449 502 L 449 504 L 442 511 L 441 514 L 439 516 L 434 515 L 433 517 L 430 519 L 428 517 L 428 513 L 424 514 L 416 526 L 410 538 L 403 545 L 401 545 L 387 555 L 380 558 L 377 561 L 370 565 L 365 570 L 362 571 L 359 575 L 344 586 L 339 587 L 328 596 L 326 596 L 320 600 L 314 606 L 306 612 L 291 621 L 281 632 L 281 635 L 282 636 L 281 641 L 270 653 L 264 657 L 262 655 L 257 655 L 256 654 L 256 651 L 257 650 L 257 646 L 256 645 L 249 646 L 248 647 L 242 647 L 230 634 L 226 632 L 218 624 L 216 617 L 210 611 L 207 610 L 205 608 L 205 605 L 208 599 L 208 594 L 206 591 L 204 590 L 195 591 L 191 588 L 189 583 L 187 581 L 184 580 L 167 580 L 165 578 L 166 575 L 169 572 L 175 570 L 188 570 L 189 571 L 193 571 L 215 580 L 229 591 L 232 592 L 233 591 L 233 588 L 230 582 L 224 574 L 242 555 L 249 542 L 255 537 L 261 530 L 275 523 L 275 520 L 273 518 L 274 515 L 278 514 L 285 510 L 294 509 L 299 505 L 300 501 L 296 497 L 299 494 L 315 494 L 324 491 L 328 491 L 332 489 L 343 488 L 344 487 L 350 487 L 351 486 L 357 486 L 358 485 L 379 485 L 380 484 L 387 485 L 388 486 L 391 485 L 387 481 L 383 480 L 376 476 L 370 476 L 369 475 L 340 476 L 339 477 L 330 478 L 321 481 L 314 481 L 313 482 L 306 482 L 305 483 L 297 484 L 278 494 L 273 499 L 270 500 L 268 502 L 260 505 L 257 505 L 254 509 L 247 514 L 245 514 L 240 509 L 233 495 L 233 492 L 232 491 L 232 478 L 230 477 L 226 484 L 224 483 L 224 473 L 225 472 L 225 467 L 226 466 L 227 458 L 225 456 L 219 462 L 217 461 L 218 450 L 223 437 L 223 434 L 220 433 L 215 436 L 213 433 L 215 431 L 215 429 L 221 418 L 223 416 L 224 412 L 226 409 L 225 406 L 219 408 L 217 405 L 220 400 L 226 394 L 231 386 L 230 384 L 226 384 L 224 382 L 232 373 L 233 370 L 239 364 L 245 360 L 251 354 L 254 349 L 253 347 L 250 347 L 241 353 L 239 353 L 237 351 L 237 349 L 240 344 L 242 338 L 242 334 L 241 332 L 248 318 L 248 315 L 245 315 L 241 319 L 238 326 L 235 329 L 227 329 L 222 327 L 218 327 L 215 324 L 218 321 L 223 319 L 225 317 L 224 316 L 215 316 L 206 313 L 201 308 L 197 308 L 196 309 L 188 308 L 186 305 L 189 302 L 191 302 L 193 300 L 192 298 L 175 293 L 161 286 L 136 266 L 122 251 L 122 250 L 118 247 L 120 252 L 123 255 L 125 260 L 128 263 L 129 265 L 128 267 L 118 256 L 117 253 L 113 248 L 112 244 L 108 239 L 108 237 L 105 232 L 105 230 L 101 221 L 96 216 L 92 214 L 86 209 L 69 192 L 68 189 L 65 186 L 63 180 L 63 175 L 66 171 L 71 169 L 76 169 L 79 166 L 83 169 L 89 170 L 94 166 L 95 163 L 92 155 L 83 146 L 79 144 L 76 144 L 73 148 L 73 152 L 71 153 L 69 150 L 69 146 L 74 140 L 76 139 L 80 139 L 88 144 L 95 152 L 98 152 L 99 150 L 102 151 L 109 151 L 112 148 L 113 146 L 112 137 L 105 126 L 99 122 L 94 123 L 91 127 L 90 126 L 90 122 L 91 120 L 97 116 L 103 118 L 110 124 L 119 142 L 124 141 L 127 144 L 131 146 L 135 146 L 138 143 L 139 141 L 139 133 L 138 132 L 137 126 L 135 124 L 134 121 L 131 118 L 126 117 L 124 115 L 126 113 L 131 113 L 137 118 L 140 124 L 144 136 L 144 139 L 145 140 L 148 140 L 156 130 L 158 129 L 163 130 L 167 134 L 170 143 L 169 160 L 165 170 L 165 173 L 186 198 L 191 206 L 194 209 L 196 209 L 197 207 L 199 206 L 203 210 L 208 221 L 215 230 L 218 230 L 219 228 L 219 224 L 221 222 L 225 227 L 229 235 L 229 237 L 232 241 L 234 241 L 237 238 L 240 241 L 244 248 L 248 252 L 250 252 L 250 248 L 252 247 L 259 254 L 263 261 L 264 265 L 267 268 L 270 268 L 273 266 L 273 263 L 274 262 L 273 258 L 274 257 L 280 262 L 290 267 L 291 266 L 290 263 L 284 257 L 274 252 L 272 255 L 268 251 L 266 247 L 256 237 L 253 236 L 251 234 L 250 229 L 248 227 L 243 230 L 239 224 L 239 208 L 238 207 L 235 207 L 232 209 L 230 207 L 230 201 L 232 196 L 232 192 L 234 188 L 233 187 L 230 187 L 228 189 L 226 187 L 226 183 L 232 172 L 232 168 L 231 167 L 226 168 L 224 165 L 236 151 L 234 144 L 241 129 L 244 120 L 242 118 L 239 118 L 233 115 L 228 110 L 227 107 L 225 105 L 223 99 L 223 91 L 224 90 L 225 83 L 228 77 L 240 66 L 252 62 L 259 62 L 269 67 L 274 72 L 276 76 L 280 76 L 293 67 L 305 63 L 306 60 L 308 58 L 326 57 L 327 56 L 327 53 L 325 50 L 325 48 L 327 46 L 332 47 L 344 54 L 354 45 L 357 45 L 359 47 L 357 51 L 357 53 L 359 55 L 360 54 L 365 54 L 366 53 L 376 53 L 377 54 L 385 54 L 393 57 L 396 57 L 402 60 L 406 60 L 408 58 L 408 55 L 411 50 L 420 42 L 430 38 L 440 38 L 441 39 Z M 452 31 L 446 29 L 442 29 L 441 28 L 424 29 L 418 31 L 411 35 L 399 48 L 394 46 L 384 45 L 383 44 L 371 44 L 368 41 L 367 38 L 361 34 L 353 35 L 344 41 L 341 41 L 334 37 L 324 36 L 319 38 L 316 42 L 316 47 L 314 49 L 303 50 L 294 56 L 288 58 L 282 62 L 278 61 L 275 58 L 267 54 L 260 53 L 259 52 L 252 52 L 251 53 L 243 54 L 230 60 L 223 66 L 218 73 L 215 79 L 215 82 L 213 86 L 213 91 L 212 92 L 213 103 L 217 113 L 220 117 L 231 127 L 231 129 L 228 133 L 224 142 L 224 151 L 218 157 L 214 164 L 214 171 L 218 176 L 218 179 L 216 182 L 216 192 L 221 198 L 221 201 L 220 202 L 221 208 L 219 210 L 214 211 L 212 209 L 208 200 L 202 194 L 200 193 L 195 193 L 192 190 L 186 181 L 176 170 L 179 161 L 180 140 L 179 139 L 178 133 L 174 126 L 171 123 L 165 120 L 155 120 L 152 122 L 150 122 L 148 120 L 144 111 L 136 104 L 130 102 L 122 103 L 112 112 L 106 108 L 100 107 L 99 106 L 91 107 L 83 113 L 80 119 L 79 127 L 77 129 L 72 129 L 68 131 L 60 140 L 58 150 L 59 151 L 59 155 L 61 158 L 61 161 L 55 167 L 53 171 L 52 179 L 53 180 L 53 185 L 55 188 L 55 190 L 60 197 L 61 200 L 70 210 L 71 210 L 78 217 L 87 223 L 92 228 L 94 236 L 106 259 L 118 275 L 135 291 L 135 297 L 137 302 L 145 310 L 157 316 L 160 319 L 161 325 L 167 331 L 183 337 L 189 345 L 192 347 L 202 350 L 208 356 L 215 360 L 219 361 L 222 364 L 222 367 L 218 373 L 214 382 L 214 392 L 208 400 L 206 405 L 206 412 L 209 416 L 209 419 L 204 428 L 203 439 L 205 444 L 208 447 L 208 452 L 207 453 L 207 468 L 209 473 L 213 477 L 215 492 L 223 501 L 228 512 L 234 520 L 241 527 L 241 533 L 233 546 L 216 564 L 216 565 L 213 567 L 211 567 L 202 562 L 196 560 L 192 560 L 191 559 L 174 559 L 168 561 L 161 565 L 154 573 L 152 579 L 152 582 L 151 583 L 151 588 L 150 589 L 150 598 L 156 613 L 164 625 L 174 637 L 194 657 L 207 666 L 223 674 L 226 674 L 236 678 L 241 678 L 242 679 L 256 679 L 257 678 L 260 678 L 270 672 L 282 660 L 282 659 L 292 650 L 314 639 L 339 619 L 346 617 L 357 607 L 369 603 L 375 598 L 380 599 L 396 611 L 406 616 L 409 616 L 418 619 L 447 619 L 448 620 L 452 620 L 453 619 L 459 618 L 466 614 L 472 612 L 475 612 L 481 609 L 484 609 L 500 601 L 508 601 L 515 606 L 528 611 L 539 611 L 551 607 L 559 599 L 564 588 L 565 571 L 564 570 L 563 557 L 560 550 L 560 546 L 557 540 L 555 532 L 545 511 L 541 505 L 536 500 L 529 496 L 527 496 L 519 492 L 510 492 L 509 491 L 509 488 L 520 477 L 526 466 L 527 460 L 528 459 L 528 455 L 529 454 L 529 447 L 528 446 L 527 436 L 525 433 L 524 429 L 520 423 L 506 413 L 506 410 L 507 409 L 507 401 L 502 391 L 500 389 L 499 378 L 495 370 L 493 363 L 495 361 L 500 361 L 509 357 L 512 359 L 514 359 L 526 367 L 529 367 L 530 368 L 538 367 L 544 369 L 547 373 L 547 375 L 551 384 L 562 396 L 570 400 L 579 400 L 585 397 L 590 397 L 591 398 L 602 398 L 603 397 L 606 397 L 617 392 L 623 387 L 632 383 L 638 376 L 641 367 L 647 358 L 648 352 L 649 351 L 649 338 L 648 337 L 648 334 L 643 324 L 638 317 L 626 305 L 626 299 L 625 297 L 620 292 L 612 287 L 610 287 L 608 285 L 605 278 L 601 274 L 593 270 L 586 268 L 584 266 L 584 260 L 582 257 L 573 253 L 557 251 L 554 248 L 553 245 L 548 240 L 545 240 L 544 239 L 525 239 L 522 236 L 518 234 L 508 234 L 503 236 L 497 236 L 492 232 L 481 231 L 479 229 L 479 226 L 484 221 L 487 214 L 487 207 L 494 200 L 495 197 L 495 184 L 494 183 L 494 180 L 498 175 L 498 168 L 492 156 L 492 153 L 495 149 L 495 144 L 492 138 L 483 130 L 483 127 L 479 119 L 476 116 L 473 109 L 466 99 L 466 98 L 473 91 L 477 83 L 478 77 L 479 76 L 479 64 L 478 63 L 478 60 L 476 54 L 473 48 L 466 40 L 458 34 Z M 447 30 L 458 35 L 467 42 L 472 48 L 476 55 L 478 61 L 478 66 L 479 67 L 479 75 L 474 88 L 466 97 L 466 100 L 474 112 L 476 117 L 480 122 L 483 131 L 492 139 L 495 145 L 495 148 L 491 153 L 491 156 L 493 158 L 497 166 L 497 170 L 498 171 L 497 175 L 493 179 L 494 185 L 495 186 L 495 196 L 493 200 L 487 205 L 487 211 L 486 212 L 485 218 L 479 225 L 477 231 L 478 232 L 489 232 L 494 234 L 497 237 L 502 237 L 506 235 L 516 234 L 521 236 L 526 240 L 546 240 L 553 246 L 553 248 L 556 252 L 570 253 L 579 256 L 583 260 L 584 262 L 584 267 L 586 269 L 594 271 L 600 274 L 605 279 L 607 285 L 609 287 L 619 292 L 625 298 L 626 301 L 625 305 L 640 321 L 647 333 L 648 339 L 649 340 L 649 350 L 648 351 L 647 357 L 645 361 L 642 364 L 637 377 L 630 384 L 624 386 L 614 393 L 604 397 L 595 398 L 586 395 L 584 397 L 576 400 L 569 399 L 562 395 L 554 387 L 550 381 L 547 372 L 542 368 L 526 366 L 510 356 L 507 356 L 502 360 L 499 360 L 498 361 L 493 360 L 492 361 L 493 367 L 499 379 L 499 389 L 503 394 L 506 400 L 506 409 L 505 410 L 505 413 L 509 417 L 513 418 L 520 424 L 524 430 L 524 432 L 527 438 L 527 442 L 528 443 L 528 457 L 527 458 L 526 464 L 520 475 L 509 486 L 508 488 L 508 492 L 509 493 L 519 493 L 528 497 L 530 497 L 535 500 L 541 506 L 545 512 L 552 527 L 552 529 L 555 534 L 561 552 L 562 559 L 563 560 L 563 564 L 564 565 L 564 584 L 563 585 L 563 589 L 558 599 L 552 605 L 545 609 L 542 609 L 537 611 L 530 611 L 529 610 L 522 609 L 516 606 L 509 600 L 501 600 L 495 602 L 485 608 L 477 610 L 474 612 L 471 612 L 455 619 L 443 619 L 442 618 L 422 619 L 421 618 L 416 618 L 415 617 L 412 617 L 406 615 L 394 609 L 379 597 L 375 597 L 367 603 L 361 605 L 357 605 L 350 613 L 344 617 L 337 619 L 309 641 L 307 641 L 304 643 L 301 643 L 295 646 L 284 655 L 280 661 L 268 673 L 261 677 L 254 678 L 253 679 L 245 679 L 244 678 L 234 677 L 222 673 L 206 665 L 196 658 L 170 632 L 159 617 L 153 606 L 152 600 L 151 599 L 151 586 L 152 585 L 153 577 L 155 573 L 165 564 L 173 560 L 178 560 L 179 559 L 194 560 L 200 562 L 209 567 L 215 568 L 218 563 L 235 545 L 242 534 L 242 526 L 234 519 L 228 511 L 224 501 L 217 494 L 214 487 L 214 478 L 209 472 L 207 466 L 208 446 L 204 441 L 204 430 L 206 424 L 210 418 L 210 416 L 207 413 L 206 407 L 209 400 L 215 392 L 214 389 L 215 380 L 222 369 L 223 363 L 214 358 L 212 358 L 203 350 L 191 346 L 186 341 L 185 338 L 183 336 L 175 334 L 167 330 L 161 324 L 160 318 L 157 315 L 150 312 L 144 308 L 137 301 L 135 290 L 120 276 L 110 264 L 104 253 L 102 251 L 95 237 L 92 227 L 76 214 L 60 197 L 54 186 L 54 183 L 53 182 L 53 173 L 54 170 L 62 161 L 62 159 L 59 153 L 59 144 L 60 141 L 68 132 L 80 128 L 80 120 L 82 116 L 89 109 L 93 107 L 102 107 L 108 110 L 111 113 L 113 113 L 120 105 L 124 103 L 132 103 L 135 104 L 144 112 L 145 115 L 147 117 L 148 121 L 150 123 L 152 123 L 157 120 L 163 120 L 170 123 L 174 127 L 178 134 L 179 142 L 180 143 L 179 159 L 176 167 L 176 171 L 186 182 L 191 190 L 195 194 L 201 194 L 205 197 L 209 203 L 212 210 L 214 212 L 220 211 L 221 210 L 221 197 L 217 193 L 216 190 L 216 184 L 219 178 L 219 176 L 215 172 L 214 170 L 214 166 L 218 158 L 225 151 L 224 145 L 225 144 L 225 141 L 231 130 L 231 126 L 221 117 L 216 110 L 213 101 L 213 87 L 218 74 L 230 61 L 237 57 L 239 57 L 245 54 L 249 54 L 250 53 L 261 53 L 272 57 L 279 63 L 283 63 L 288 59 L 299 54 L 303 51 L 310 50 L 311 49 L 316 49 L 317 48 L 317 42 L 323 37 L 331 37 L 341 42 L 345 42 L 352 36 L 355 35 L 362 35 L 366 38 L 369 44 L 385 45 L 386 46 L 390 46 L 391 47 L 394 47 L 400 49 L 404 43 L 411 36 L 420 31 L 427 30 L 428 29 L 443 29 L 444 30 Z" fill="#B1B1B1" fill-rule="evenodd"/><path d="M 205 593 L 200 593 L 193 597 L 193 602 L 196 606 L 200 606 L 204 602 L 206 598 L 206 594 Z M 188 585 L 184 582 L 182 582 L 178 584 L 169 584 L 166 586 L 166 589 L 167 590 L 167 596 L 168 597 L 171 596 L 171 595 L 175 591 L 176 591 L 179 595 L 181 595 L 182 596 L 183 595 L 185 595 L 188 589 Z M 267 159 L 266 161 L 266 167 L 265 168 L 265 173 L 266 174 L 266 177 L 267 179 L 274 187 L 275 187 L 277 189 L 282 190 L 286 193 L 287 201 L 288 202 L 289 207 L 292 213 L 294 215 L 295 218 L 297 220 L 299 224 L 303 228 L 303 229 L 315 241 L 319 243 L 321 243 L 322 242 L 314 233 L 312 229 L 312 222 L 315 216 L 325 207 L 339 200 L 350 200 L 351 201 L 353 201 L 355 203 L 358 204 L 362 208 L 364 212 L 364 215 L 363 216 L 363 219 L 361 222 L 361 224 L 356 233 L 356 235 L 357 235 L 360 232 L 364 224 L 364 222 L 367 215 L 367 211 L 368 210 L 368 207 L 369 206 L 369 201 L 370 200 L 370 178 L 369 177 L 369 172 L 368 171 L 368 169 L 365 166 L 364 166 L 354 177 L 347 181 L 345 181 L 338 184 L 335 184 L 334 185 L 320 185 L 319 184 L 314 184 L 313 183 L 310 183 L 309 182 L 300 181 L 293 186 L 291 186 L 290 187 L 283 187 L 282 186 L 278 185 L 272 179 L 270 175 L 270 162 L 271 161 L 271 158 L 269 157 Z M 320 145 L 314 142 L 308 141 L 307 140 L 297 140 L 296 141 L 292 141 L 291 142 L 286 143 L 280 146 L 278 148 L 277 150 L 277 158 L 278 160 L 287 169 L 289 170 L 291 170 L 295 172 L 305 171 L 315 166 L 323 158 L 324 156 L 324 149 Z M 285 120 L 281 120 L 279 121 L 275 128 L 275 131 L 274 132 L 274 138 L 277 142 L 280 142 L 282 141 L 286 137 L 288 133 L 288 125 L 287 124 L 287 122 Z M 363 114 L 361 116 L 358 123 L 358 131 L 359 132 L 360 136 L 364 140 L 368 140 L 370 139 L 373 135 L 373 133 L 374 132 L 374 123 L 373 122 L 372 118 L 368 114 Z M 293 83 L 291 81 L 288 81 L 282 84 L 278 88 L 277 90 L 277 93 L 278 94 L 281 93 L 285 89 L 292 86 L 293 85 Z M 363 74 L 363 76 L 364 77 L 370 78 L 379 83 L 381 83 L 382 82 L 382 79 L 381 77 L 376 73 L 367 71 Z M 447 31 L 444 31 L 443 30 L 428 30 L 427 31 L 423 31 L 422 32 L 420 32 L 411 37 L 405 43 L 403 47 L 400 50 L 398 50 L 394 48 L 391 48 L 390 47 L 386 47 L 385 46 L 379 46 L 378 45 L 369 45 L 367 43 L 365 38 L 362 36 L 355 36 L 354 37 L 352 37 L 345 43 L 341 43 L 331 38 L 323 38 L 318 42 L 318 48 L 316 50 L 311 50 L 310 51 L 306 51 L 305 52 L 303 52 L 299 55 L 288 60 L 283 64 L 279 64 L 272 58 L 268 57 L 265 55 L 262 55 L 261 54 L 250 54 L 249 55 L 245 55 L 239 58 L 237 58 L 230 62 L 221 71 L 221 72 L 219 74 L 216 80 L 215 86 L 214 87 L 214 101 L 215 102 L 215 105 L 217 108 L 217 110 L 222 116 L 222 117 L 232 126 L 232 130 L 226 141 L 226 144 L 225 145 L 226 151 L 219 158 L 215 166 L 215 170 L 220 176 L 220 178 L 217 184 L 217 190 L 218 191 L 218 193 L 222 197 L 222 210 L 220 212 L 214 213 L 211 210 L 208 203 L 206 201 L 204 197 L 201 195 L 195 195 L 190 190 L 185 182 L 175 171 L 175 167 L 176 166 L 177 160 L 178 159 L 178 150 L 179 149 L 179 143 L 178 142 L 178 137 L 177 136 L 177 134 L 173 127 L 170 124 L 163 121 L 157 121 L 152 124 L 150 124 L 147 121 L 146 117 L 144 115 L 143 112 L 135 105 L 133 105 L 132 104 L 124 104 L 120 106 L 113 114 L 111 114 L 108 111 L 102 108 L 93 108 L 89 110 L 83 116 L 81 120 L 81 128 L 79 130 L 72 131 L 68 133 L 61 141 L 61 143 L 60 144 L 60 153 L 63 159 L 63 161 L 57 167 L 54 173 L 54 182 L 55 183 L 55 186 L 61 197 L 76 213 L 77 213 L 83 219 L 88 222 L 93 227 L 95 234 L 96 235 L 96 237 L 103 251 L 105 253 L 106 256 L 108 258 L 111 264 L 121 275 L 121 276 L 136 290 L 137 292 L 137 299 L 138 301 L 144 307 L 145 307 L 150 311 L 157 314 L 161 318 L 162 324 L 167 329 L 175 333 L 183 335 L 186 338 L 187 341 L 191 345 L 203 349 L 209 355 L 210 355 L 212 357 L 214 357 L 222 361 L 224 363 L 223 369 L 221 371 L 220 374 L 218 376 L 216 380 L 216 383 L 215 384 L 215 389 L 216 390 L 216 392 L 210 400 L 207 407 L 208 413 L 211 416 L 211 418 L 209 422 L 207 424 L 207 426 L 205 430 L 205 441 L 209 446 L 208 466 L 209 467 L 209 470 L 210 472 L 215 478 L 215 487 L 216 488 L 216 490 L 218 494 L 225 501 L 226 505 L 229 511 L 232 514 L 235 519 L 243 526 L 243 534 L 236 545 L 219 563 L 219 564 L 215 569 L 209 568 L 200 563 L 198 563 L 194 561 L 188 561 L 187 560 L 179 560 L 178 561 L 173 561 L 165 565 L 156 573 L 154 577 L 153 585 L 152 586 L 152 599 L 153 600 L 154 606 L 157 612 L 159 614 L 160 617 L 165 623 L 167 627 L 171 631 L 171 632 L 196 657 L 197 657 L 206 664 L 222 672 L 224 672 L 225 673 L 227 673 L 234 676 L 237 676 L 238 677 L 244 677 L 245 678 L 253 678 L 254 677 L 258 677 L 259 676 L 261 676 L 268 672 L 279 661 L 282 656 L 295 645 L 301 642 L 304 642 L 307 640 L 309 640 L 311 638 L 315 636 L 325 627 L 326 627 L 337 618 L 344 616 L 346 614 L 350 612 L 357 604 L 361 604 L 362 603 L 367 602 L 375 596 L 379 596 L 391 606 L 406 614 L 408 614 L 412 616 L 415 616 L 416 617 L 421 617 L 422 618 L 434 618 L 435 617 L 442 617 L 443 618 L 455 618 L 463 614 L 468 613 L 471 611 L 474 611 L 477 609 L 485 607 L 491 604 L 493 602 L 500 600 L 501 599 L 509 599 L 516 605 L 522 608 L 524 608 L 525 609 L 529 609 L 530 610 L 537 610 L 538 609 L 545 608 L 552 604 L 557 599 L 558 596 L 560 594 L 560 592 L 562 589 L 562 585 L 563 584 L 563 565 L 562 564 L 562 560 L 561 559 L 560 552 L 559 551 L 559 549 L 558 548 L 554 534 L 551 529 L 551 527 L 548 522 L 548 520 L 540 506 L 535 501 L 530 498 L 528 498 L 525 496 L 523 496 L 519 494 L 509 494 L 507 492 L 507 488 L 508 486 L 519 475 L 525 464 L 526 458 L 527 457 L 527 443 L 526 442 L 526 438 L 523 432 L 523 430 L 521 428 L 519 424 L 513 419 L 509 418 L 504 413 L 504 410 L 505 409 L 505 400 L 502 394 L 498 389 L 498 379 L 492 367 L 491 361 L 493 359 L 495 360 L 502 359 L 507 355 L 510 355 L 526 365 L 528 365 L 529 366 L 539 366 L 540 367 L 542 367 L 548 372 L 549 376 L 551 379 L 551 381 L 553 383 L 555 387 L 562 394 L 569 398 L 571 398 L 572 399 L 576 399 L 577 398 L 582 397 L 586 394 L 588 394 L 595 397 L 598 397 L 599 396 L 604 396 L 605 395 L 610 394 L 614 392 L 622 386 L 630 383 L 636 377 L 638 373 L 638 371 L 640 368 L 640 366 L 644 361 L 646 357 L 647 351 L 648 350 L 648 340 L 647 339 L 646 333 L 642 325 L 639 322 L 639 321 L 624 305 L 625 303 L 624 298 L 619 293 L 609 288 L 606 285 L 606 283 L 604 279 L 600 275 L 594 272 L 586 270 L 583 267 L 583 262 L 579 257 L 575 256 L 574 255 L 571 255 L 570 254 L 565 254 L 564 253 L 556 253 L 553 250 L 552 246 L 546 241 L 526 241 L 521 237 L 517 236 L 516 235 L 511 235 L 510 236 L 506 236 L 502 238 L 497 238 L 492 234 L 490 234 L 489 233 L 478 233 L 476 231 L 478 225 L 484 218 L 485 212 L 486 211 L 486 205 L 492 200 L 494 196 L 494 186 L 493 185 L 492 179 L 496 175 L 497 171 L 496 170 L 496 166 L 492 158 L 490 156 L 490 153 L 493 150 L 494 148 L 494 145 L 491 139 L 482 131 L 481 129 L 481 126 L 479 122 L 475 117 L 473 112 L 471 110 L 470 107 L 465 100 L 465 97 L 473 88 L 475 84 L 477 76 L 478 75 L 478 67 L 477 66 L 477 61 L 476 60 L 475 55 L 473 51 L 467 44 L 467 43 L 466 43 L 458 36 Z M 555 567 L 555 575 L 553 577 L 550 577 L 549 578 L 544 578 L 543 579 L 543 581 L 545 583 L 549 585 L 551 585 L 553 587 L 553 588 L 549 593 L 537 593 L 536 594 L 536 596 L 540 599 L 540 600 L 538 602 L 527 602 L 523 600 L 513 591 L 512 589 L 512 585 L 511 584 L 509 584 L 505 586 L 502 589 L 497 591 L 495 593 L 491 594 L 478 601 L 476 601 L 469 604 L 465 604 L 464 605 L 461 605 L 460 606 L 457 606 L 456 607 L 447 608 L 443 611 L 441 611 L 435 608 L 433 606 L 429 606 L 426 610 L 424 611 L 420 611 L 419 610 L 415 610 L 413 609 L 404 601 L 400 600 L 394 597 L 388 591 L 388 590 L 394 584 L 398 583 L 401 581 L 403 581 L 420 572 L 422 572 L 424 570 L 426 570 L 427 569 L 432 568 L 437 565 L 439 565 L 441 563 L 445 562 L 467 550 L 483 535 L 483 534 L 486 531 L 486 530 L 490 525 L 491 522 L 493 520 L 499 508 L 501 506 L 506 506 L 507 507 L 508 506 L 511 506 L 515 501 L 518 501 L 524 504 L 534 515 L 543 533 L 543 535 L 548 544 L 548 546 L 550 549 L 550 551 L 553 558 L 554 566 Z M 513 432 L 515 434 L 519 443 L 519 455 L 518 456 L 518 460 L 517 461 L 517 463 L 514 468 L 512 467 L 512 460 L 511 459 L 511 448 L 510 447 L 510 436 Z M 444 37 L 453 41 L 465 53 L 469 61 L 470 73 L 469 74 L 468 80 L 465 84 L 464 87 L 459 92 L 454 94 L 453 96 L 461 106 L 464 113 L 466 115 L 469 121 L 474 126 L 474 128 L 472 130 L 471 130 L 471 132 L 473 134 L 476 135 L 482 140 L 483 140 L 486 144 L 486 146 L 484 148 L 476 148 L 475 149 L 485 160 L 485 161 L 489 166 L 489 170 L 487 172 L 484 172 L 482 170 L 480 171 L 480 173 L 485 182 L 485 184 L 487 188 L 487 193 L 485 195 L 483 195 L 480 192 L 479 192 L 479 211 L 478 213 L 476 215 L 475 215 L 473 213 L 471 213 L 471 219 L 470 220 L 470 223 L 466 231 L 459 239 L 458 239 L 454 243 L 448 246 L 443 252 L 444 253 L 447 253 L 459 247 L 461 247 L 468 244 L 471 244 L 477 241 L 485 241 L 487 243 L 485 245 L 485 247 L 486 248 L 497 246 L 503 243 L 516 242 L 519 245 L 518 248 L 516 250 L 517 251 L 525 250 L 526 249 L 533 249 L 534 248 L 543 248 L 545 250 L 545 253 L 541 257 L 541 258 L 544 260 L 564 260 L 565 261 L 571 261 L 574 264 L 574 265 L 568 271 L 569 272 L 571 272 L 574 274 L 577 274 L 578 275 L 587 276 L 588 277 L 595 279 L 597 281 L 597 284 L 594 287 L 594 289 L 597 291 L 608 294 L 612 296 L 615 299 L 616 302 L 614 305 L 614 307 L 629 321 L 639 337 L 640 343 L 641 344 L 640 350 L 638 353 L 636 353 L 629 346 L 627 347 L 627 352 L 630 359 L 630 363 L 631 364 L 631 366 L 630 367 L 629 371 L 626 374 L 624 375 L 621 375 L 614 366 L 611 366 L 610 367 L 610 371 L 612 375 L 612 383 L 609 387 L 605 388 L 604 389 L 599 389 L 595 386 L 592 385 L 582 376 L 580 376 L 579 378 L 581 381 L 581 387 L 577 390 L 571 390 L 566 387 L 560 380 L 559 376 L 557 373 L 557 368 L 555 364 L 552 362 L 546 361 L 540 358 L 530 348 L 528 349 L 529 350 L 529 352 L 527 354 L 524 354 L 517 351 L 510 346 L 508 346 L 502 343 L 495 342 L 493 344 L 499 350 L 499 351 L 497 353 L 495 353 L 488 350 L 483 350 L 482 349 L 477 349 L 476 348 L 464 347 L 463 346 L 455 345 L 454 344 L 448 344 L 447 345 L 447 347 L 448 349 L 452 352 L 454 352 L 458 354 L 463 354 L 464 355 L 476 356 L 481 360 L 482 366 L 488 376 L 488 378 L 486 380 L 484 380 L 483 382 L 493 393 L 493 394 L 498 400 L 498 403 L 496 405 L 494 404 L 491 404 L 490 403 L 489 403 L 489 405 L 494 412 L 495 415 L 497 417 L 504 430 L 504 432 L 502 434 L 498 434 L 497 435 L 498 436 L 499 443 L 500 444 L 501 450 L 502 451 L 502 456 L 503 457 L 503 465 L 501 467 L 498 467 L 498 478 L 497 479 L 497 484 L 495 488 L 494 495 L 493 496 L 492 501 L 482 520 L 480 522 L 478 526 L 472 532 L 472 533 L 454 548 L 452 549 L 449 549 L 429 560 L 427 560 L 423 562 L 420 562 L 419 563 L 416 563 L 412 565 L 409 565 L 404 568 L 402 568 L 397 571 L 395 571 L 391 574 L 386 575 L 384 577 L 381 578 L 376 583 L 367 587 L 366 589 L 360 594 L 358 595 L 355 595 L 353 594 L 351 596 L 350 596 L 343 604 L 339 606 L 336 606 L 325 616 L 324 616 L 318 621 L 315 622 L 308 630 L 306 630 L 304 632 L 302 632 L 295 638 L 293 638 L 291 636 L 289 636 L 287 638 L 286 638 L 275 650 L 275 651 L 259 666 L 257 666 L 256 667 L 246 667 L 245 666 L 243 666 L 240 663 L 238 657 L 214 631 L 212 627 L 206 621 L 205 621 L 202 618 L 199 617 L 192 610 L 188 608 L 183 607 L 182 606 L 171 606 L 166 609 L 165 609 L 162 606 L 161 604 L 161 594 L 162 593 L 162 580 L 163 579 L 163 576 L 164 574 L 167 571 L 171 569 L 174 569 L 175 568 L 188 568 L 189 569 L 192 569 L 196 571 L 199 571 L 213 578 L 215 578 L 225 586 L 231 589 L 231 587 L 229 583 L 222 575 L 222 574 L 230 566 L 231 566 L 231 565 L 238 558 L 238 557 L 244 549 L 244 547 L 246 545 L 247 542 L 252 537 L 253 537 L 260 529 L 267 525 L 271 524 L 273 522 L 273 521 L 270 519 L 266 519 L 264 517 L 265 515 L 269 514 L 270 513 L 278 512 L 282 509 L 284 509 L 285 508 L 288 508 L 289 507 L 295 506 L 297 504 L 297 502 L 293 498 L 293 496 L 298 492 L 317 492 L 318 491 L 322 491 L 323 490 L 326 490 L 327 489 L 333 488 L 334 487 L 340 487 L 341 486 L 345 486 L 346 485 L 361 484 L 362 483 L 379 483 L 381 482 L 381 481 L 376 478 L 373 478 L 372 477 L 350 477 L 349 478 L 343 478 L 342 479 L 332 480 L 331 481 L 323 482 L 322 483 L 314 483 L 313 484 L 306 484 L 305 485 L 301 485 L 300 486 L 295 487 L 293 489 L 284 493 L 276 500 L 273 501 L 271 503 L 265 506 L 260 507 L 256 511 L 255 511 L 248 519 L 246 519 L 242 515 L 233 500 L 232 494 L 231 493 L 231 485 L 230 483 L 229 483 L 225 488 L 222 485 L 222 476 L 223 475 L 223 470 L 224 469 L 224 462 L 223 461 L 218 466 L 215 463 L 215 457 L 216 456 L 216 453 L 217 452 L 217 449 L 218 448 L 218 445 L 219 444 L 221 436 L 220 435 L 216 438 L 214 438 L 212 436 L 212 432 L 224 410 L 224 409 L 220 409 L 219 410 L 217 410 L 215 408 L 215 404 L 229 387 L 228 386 L 224 386 L 222 384 L 222 383 L 232 369 L 233 361 L 236 354 L 236 348 L 239 343 L 240 337 L 239 336 L 236 336 L 233 339 L 230 345 L 229 351 L 227 353 L 219 352 L 214 348 L 215 344 L 213 344 L 212 343 L 206 343 L 205 342 L 201 342 L 200 341 L 198 341 L 195 338 L 195 336 L 198 334 L 197 332 L 179 327 L 171 323 L 169 321 L 169 318 L 170 317 L 174 317 L 175 316 L 175 315 L 173 313 L 168 312 L 165 310 L 163 310 L 157 307 L 155 305 L 149 302 L 145 298 L 145 295 L 146 294 L 150 294 L 152 295 L 153 293 L 149 289 L 148 289 L 145 286 L 140 283 L 133 276 L 132 276 L 131 274 L 124 267 L 124 266 L 115 255 L 104 234 L 104 232 L 102 229 L 100 222 L 97 219 L 89 214 L 83 208 L 82 208 L 70 196 L 70 195 L 65 189 L 62 183 L 61 175 L 66 169 L 68 168 L 74 168 L 75 167 L 74 164 L 71 161 L 70 157 L 68 154 L 68 144 L 72 139 L 76 137 L 78 137 L 79 138 L 82 138 L 87 141 L 94 148 L 94 145 L 89 136 L 89 133 L 88 132 L 88 123 L 89 122 L 89 120 L 95 115 L 101 115 L 105 117 L 114 127 L 118 135 L 118 137 L 120 137 L 120 129 L 119 128 L 120 117 L 125 111 L 131 111 L 138 117 L 143 127 L 143 130 L 144 131 L 145 137 L 146 138 L 148 138 L 150 134 L 156 128 L 158 128 L 159 127 L 163 128 L 169 134 L 171 138 L 171 143 L 172 144 L 172 146 L 171 147 L 171 158 L 170 159 L 170 163 L 169 164 L 169 166 L 167 169 L 167 173 L 169 175 L 169 176 L 176 183 L 176 184 L 185 194 L 185 195 L 194 206 L 196 206 L 196 204 L 198 202 L 199 202 L 201 204 L 201 205 L 205 210 L 212 224 L 216 228 L 217 227 L 217 222 L 220 219 L 227 227 L 228 231 L 232 238 L 237 235 L 242 241 L 243 244 L 247 249 L 249 245 L 251 243 L 259 251 L 259 252 L 263 257 L 265 263 L 268 266 L 270 266 L 272 264 L 271 258 L 269 256 L 263 246 L 256 239 L 253 238 L 249 234 L 249 232 L 248 231 L 243 232 L 239 228 L 238 224 L 237 223 L 237 211 L 236 210 L 234 211 L 231 211 L 229 209 L 229 199 L 230 198 L 231 190 L 230 189 L 229 190 L 226 190 L 224 188 L 224 184 L 230 172 L 230 170 L 229 169 L 227 170 L 224 170 L 222 168 L 222 165 L 234 151 L 234 149 L 233 148 L 233 141 L 242 123 L 242 121 L 241 120 L 235 118 L 227 111 L 222 101 L 222 97 L 221 96 L 222 94 L 222 87 L 229 73 L 234 68 L 235 68 L 240 64 L 242 64 L 245 62 L 251 61 L 252 60 L 258 60 L 259 61 L 262 61 L 266 63 L 268 65 L 272 67 L 277 74 L 279 74 L 289 67 L 291 67 L 293 65 L 295 65 L 296 64 L 303 62 L 304 61 L 304 58 L 306 56 L 311 56 L 312 55 L 324 55 L 325 54 L 325 52 L 323 49 L 323 46 L 325 44 L 329 44 L 330 45 L 332 45 L 338 48 L 341 51 L 344 52 L 352 44 L 356 42 L 359 42 L 361 44 L 361 47 L 359 51 L 360 52 L 366 52 L 367 51 L 384 52 L 385 53 L 396 55 L 402 58 L 405 58 L 408 51 L 411 48 L 411 47 L 418 41 L 424 38 L 430 37 L 431 36 L 439 36 L 440 37 Z" fill="#010101" fill-rule="evenodd"/></svg>