<svg xmlns="http://www.w3.org/2000/svg" viewBox="0 0 653 704" shape-rendering="geometricPrecision"><title>intro frame 093</title><path d="M 470 512 L 461 518 L 457 522 L 455 521 L 445 530 L 441 528 L 433 538 L 429 536 L 421 546 L 417 544 L 411 550 L 411 551 L 404 557 L 399 566 L 394 572 L 390 580 L 388 590 L 389 590 L 392 594 L 391 608 L 394 608 L 396 611 L 396 615 L 395 616 L 395 627 L 396 628 L 399 627 L 402 630 L 402 641 L 403 644 L 402 645 L 402 649 L 400 654 L 400 667 L 402 671 L 406 675 L 408 675 L 411 677 L 414 677 L 417 679 L 425 680 L 426 681 L 435 681 L 436 680 L 436 665 L 440 659 L 444 659 L 448 663 L 448 667 L 449 668 L 449 681 L 450 682 L 468 682 L 469 681 L 469 677 L 468 676 L 468 660 L 470 658 L 475 658 L 479 662 L 481 666 L 481 669 L 482 670 L 482 681 L 484 680 L 491 680 L 495 678 L 495 668 L 494 667 L 493 659 L 497 655 L 502 657 L 505 661 L 508 668 L 508 675 L 509 676 L 511 675 L 515 670 L 516 662 L 515 661 L 515 656 L 513 651 L 506 644 L 499 641 L 495 638 L 488 638 L 485 640 L 477 640 L 476 639 L 458 639 L 457 640 L 451 640 L 450 641 L 446 641 L 445 640 L 435 640 L 432 641 L 431 640 L 432 638 L 435 638 L 437 636 L 440 636 L 444 634 L 457 633 L 458 632 L 480 632 L 483 633 L 481 623 L 483 620 L 483 616 L 486 613 L 489 616 L 490 623 L 492 622 L 492 618 L 489 614 L 486 608 L 486 606 L 484 604 L 484 603 L 486 602 L 489 605 L 492 605 L 493 604 L 492 600 L 485 595 L 481 594 L 465 580 L 466 578 L 470 578 L 480 583 L 486 584 L 487 585 L 488 584 L 487 580 L 474 565 L 474 564 L 477 562 L 488 569 L 489 567 L 487 564 L 487 561 L 483 555 L 474 551 L 472 549 L 473 547 L 481 547 L 484 548 L 484 545 L 481 543 L 477 538 L 479 536 L 482 536 L 484 538 L 487 538 L 487 537 L 479 529 L 476 524 L 474 517 Z M 444 583 L 449 587 L 455 596 L 456 600 L 454 602 L 453 602 L 446 595 L 445 592 L 443 590 L 442 585 Z M 435 580 L 437 583 L 436 590 L 433 593 L 431 593 L 430 590 L 432 587 L 432 584 Z M 409 562 L 410 563 L 410 569 L 409 571 L 404 575 L 402 572 L 404 569 L 405 565 Z M 228 508 L 226 514 L 222 519 L 223 520 L 226 519 L 228 521 L 228 525 L 225 529 L 225 532 L 222 537 L 223 538 L 227 537 L 229 539 L 229 542 L 226 548 L 224 554 L 224 557 L 222 561 L 222 566 L 226 565 L 229 568 L 228 570 L 228 574 L 227 575 L 227 579 L 226 580 L 229 583 L 229 594 L 231 598 L 232 609 L 235 617 L 235 620 L 239 624 L 243 624 L 244 625 L 248 625 L 256 628 L 259 632 L 257 634 L 252 634 L 243 631 L 224 631 L 223 632 L 220 632 L 211 635 L 205 640 L 202 646 L 201 654 L 200 655 L 201 662 L 204 666 L 205 665 L 205 659 L 207 655 L 207 652 L 211 647 L 215 645 L 218 645 L 220 647 L 220 653 L 218 657 L 218 662 L 217 663 L 217 666 L 219 669 L 228 671 L 229 670 L 229 663 L 232 655 L 237 650 L 241 650 L 244 653 L 244 657 L 242 661 L 242 667 L 241 668 L 241 671 L 244 673 L 264 673 L 265 672 L 272 672 L 276 668 L 280 667 L 286 662 L 290 661 L 293 658 L 295 653 L 294 648 L 288 642 L 288 637 L 287 635 L 289 633 L 292 635 L 293 631 L 295 629 L 297 629 L 296 625 L 293 621 L 294 618 L 297 615 L 297 613 L 294 604 L 292 601 L 286 596 L 285 588 L 287 586 L 294 594 L 295 592 L 292 589 L 292 587 L 295 585 L 296 583 L 276 561 L 264 542 L 261 539 L 259 539 L 255 535 L 251 528 L 244 521 L 239 518 L 230 508 Z M 258 582 L 260 584 L 258 587 L 256 587 L 255 585 Z M 266 575 L 269 576 L 272 581 L 272 583 L 274 585 L 274 588 L 272 590 L 267 585 L 265 579 L 265 576 Z M 280 571 L 281 571 L 283 574 L 282 582 L 281 583 L 278 582 L 278 576 Z M 249 567 L 250 568 L 249 571 L 243 577 L 242 577 L 240 574 L 247 567 Z M 465 424 L 464 426 L 470 431 L 471 430 L 470 428 Z M 216 150 L 214 152 L 215 157 L 217 161 L 220 164 L 222 161 L 222 157 Z M 123 95 L 120 95 L 116 98 L 116 100 L 124 97 Z M 145 80 L 145 82 L 151 82 L 154 84 L 155 83 L 152 79 L 146 79 Z M 448 15 L 442 15 L 441 14 L 439 15 L 434 15 L 422 21 L 414 30 L 413 37 L 411 39 L 407 39 L 406 38 L 403 38 L 400 36 L 391 35 L 385 33 L 366 33 L 365 34 L 361 34 L 359 32 L 360 24 L 358 24 L 355 26 L 348 34 L 346 34 L 333 27 L 331 27 L 330 29 L 332 31 L 333 36 L 330 39 L 313 39 L 311 40 L 307 45 L 304 45 L 294 50 L 285 57 L 282 57 L 272 46 L 265 43 L 252 43 L 243 47 L 234 55 L 230 63 L 229 71 L 228 72 L 230 83 L 234 90 L 238 94 L 244 98 L 248 98 L 250 100 L 249 107 L 241 124 L 241 128 L 243 133 L 231 146 L 232 148 L 233 147 L 238 147 L 241 150 L 233 167 L 234 168 L 239 167 L 241 169 L 239 175 L 239 179 L 238 180 L 238 189 L 240 190 L 244 187 L 247 190 L 246 192 L 246 204 L 249 211 L 251 211 L 251 209 L 254 207 L 257 210 L 257 213 L 259 217 L 262 218 L 270 227 L 279 233 L 281 233 L 289 237 L 295 243 L 296 245 L 296 249 L 295 250 L 292 250 L 288 246 L 284 245 L 280 243 L 279 247 L 276 250 L 273 250 L 265 241 L 261 243 L 258 240 L 256 234 L 253 230 L 250 233 L 246 229 L 243 223 L 242 218 L 240 215 L 236 218 L 234 218 L 232 216 L 228 208 L 224 194 L 219 195 L 216 192 L 210 181 L 210 179 L 208 177 L 208 175 L 202 163 L 197 156 L 197 150 L 202 145 L 202 143 L 204 141 L 205 137 L 196 141 L 192 141 L 190 140 L 186 135 L 186 127 L 191 120 L 187 113 L 182 119 L 180 120 L 176 120 L 173 119 L 167 113 L 164 112 L 162 110 L 154 117 L 146 117 L 144 115 L 139 116 L 136 119 L 134 124 L 127 129 L 122 129 L 117 124 L 113 124 L 112 126 L 114 127 L 120 134 L 121 137 L 120 141 L 121 142 L 134 129 L 148 121 L 154 120 L 155 119 L 167 119 L 171 121 L 181 132 L 185 140 L 185 144 L 186 145 L 186 149 L 183 157 L 178 162 L 169 167 L 166 167 L 157 170 L 153 170 L 152 171 L 148 171 L 147 172 L 134 172 L 126 168 L 121 163 L 120 159 L 118 156 L 119 146 L 116 148 L 111 148 L 103 140 L 101 136 L 101 129 L 105 126 L 105 124 L 102 123 L 100 124 L 98 127 L 99 136 L 100 137 L 100 140 L 102 142 L 103 147 L 107 153 L 107 155 L 115 166 L 115 168 L 120 173 L 123 178 L 123 190 L 124 191 L 124 195 L 126 200 L 126 204 L 128 206 L 128 210 L 129 211 L 132 210 L 135 213 L 143 225 L 143 227 L 151 237 L 153 241 L 174 261 L 186 267 L 192 269 L 195 269 L 200 274 L 200 276 L 197 279 L 192 279 L 191 280 L 192 282 L 208 284 L 218 291 L 224 291 L 229 293 L 231 295 L 228 299 L 220 301 L 219 302 L 227 306 L 237 308 L 240 305 L 242 301 L 248 295 L 252 293 L 254 293 L 256 295 L 256 300 L 246 321 L 246 327 L 244 331 L 244 335 L 256 325 L 262 322 L 265 324 L 265 326 L 256 339 L 246 349 L 239 353 L 230 365 L 231 367 L 234 366 L 237 369 L 237 371 L 222 390 L 223 391 L 228 390 L 230 392 L 230 396 L 225 402 L 216 420 L 217 422 L 220 420 L 222 420 L 224 422 L 223 429 L 221 432 L 221 435 L 218 442 L 217 450 L 222 446 L 224 447 L 224 453 L 223 454 L 223 460 L 222 461 L 222 472 L 225 470 L 228 472 L 229 474 L 229 482 L 230 483 L 231 489 L 235 488 L 238 491 L 240 497 L 241 497 L 242 495 L 244 495 L 247 500 L 250 509 L 252 510 L 256 507 L 265 521 L 266 521 L 268 518 L 278 529 L 279 529 L 279 527 L 281 525 L 283 525 L 292 536 L 296 533 L 302 540 L 303 540 L 303 539 L 291 520 L 289 514 L 289 511 L 288 510 L 288 506 L 290 504 L 292 506 L 294 512 L 298 517 L 301 523 L 314 537 L 318 538 L 320 537 L 323 533 L 325 533 L 328 537 L 330 538 L 345 524 L 347 524 L 348 525 L 348 528 L 344 536 L 344 542 L 345 543 L 349 539 L 353 537 L 356 534 L 359 533 L 363 529 L 365 529 L 367 531 L 367 533 L 362 542 L 363 544 L 368 541 L 370 541 L 378 532 L 384 522 L 388 519 L 390 521 L 390 523 L 387 531 L 387 534 L 392 523 L 394 514 L 396 512 L 399 514 L 400 517 L 400 525 L 397 533 L 397 535 L 398 535 L 403 531 L 409 523 L 417 508 L 417 506 L 419 504 L 423 507 L 423 513 L 418 525 L 420 525 L 428 517 L 432 511 L 436 499 L 438 497 L 439 494 L 442 496 L 442 503 L 441 504 L 441 509 L 442 509 L 446 505 L 448 500 L 450 498 L 451 493 L 454 487 L 457 485 L 459 487 L 459 490 L 460 490 L 463 479 L 465 476 L 464 465 L 467 460 L 467 454 L 464 448 L 464 445 L 466 443 L 470 444 L 470 439 L 467 436 L 465 431 L 462 428 L 462 426 L 456 418 L 456 416 L 459 415 L 463 419 L 466 420 L 468 418 L 469 415 L 465 409 L 456 404 L 449 404 L 446 401 L 446 399 L 448 397 L 453 397 L 454 398 L 460 399 L 464 402 L 466 402 L 466 400 L 459 387 L 459 385 L 455 380 L 457 378 L 460 380 L 462 379 L 452 370 L 446 362 L 446 361 L 448 360 L 455 365 L 458 365 L 457 359 L 454 354 L 443 350 L 436 350 L 432 347 L 432 344 L 433 343 L 438 343 L 449 348 L 451 350 L 453 350 L 453 348 L 449 340 L 445 335 L 447 332 L 451 333 L 449 327 L 449 325 L 451 323 L 463 339 L 463 342 L 466 345 L 471 355 L 473 357 L 473 359 L 475 361 L 475 363 L 479 369 L 480 374 L 484 382 L 489 397 L 489 400 L 490 401 L 490 404 L 493 413 L 493 417 L 495 422 L 496 432 L 498 437 L 498 443 L 494 452 L 493 463 L 492 464 L 493 467 L 493 473 L 496 479 L 501 482 L 505 482 L 508 479 L 511 470 L 516 466 L 520 469 L 521 476 L 520 477 L 520 480 L 517 489 L 514 492 L 514 496 L 518 500 L 521 501 L 528 501 L 533 496 L 538 485 L 543 481 L 546 484 L 547 487 L 546 495 L 543 503 L 549 503 L 556 498 L 558 495 L 562 483 L 566 479 L 570 482 L 570 492 L 572 492 L 576 487 L 582 472 L 583 462 L 584 461 L 584 446 L 583 445 L 583 439 L 581 433 L 583 431 L 585 431 L 585 429 L 581 418 L 580 411 L 574 401 L 574 399 L 576 397 L 580 398 L 580 397 L 565 375 L 567 372 L 569 372 L 573 374 L 573 373 L 553 348 L 554 345 L 557 345 L 562 347 L 564 346 L 535 320 L 535 318 L 537 316 L 543 318 L 546 317 L 534 307 L 523 301 L 520 298 L 520 296 L 524 293 L 527 294 L 526 292 L 522 291 L 520 289 L 518 289 L 513 285 L 510 284 L 507 281 L 507 279 L 509 277 L 512 277 L 513 278 L 517 278 L 517 277 L 495 263 L 491 262 L 489 260 L 489 257 L 491 255 L 495 255 L 495 254 L 490 253 L 486 250 L 484 250 L 481 248 L 476 247 L 471 244 L 468 244 L 467 243 L 453 243 L 452 244 L 453 245 L 452 248 L 449 250 L 447 250 L 444 247 L 430 247 L 429 246 L 425 249 L 420 249 L 417 246 L 417 240 L 407 253 L 404 252 L 404 248 L 406 244 L 415 235 L 419 235 L 421 231 L 424 228 L 426 228 L 427 229 L 427 233 L 429 233 L 431 229 L 431 224 L 433 221 L 435 221 L 437 224 L 439 224 L 440 221 L 440 212 L 441 211 L 447 215 L 448 208 L 453 202 L 455 203 L 456 202 L 455 198 L 448 192 L 450 190 L 453 190 L 461 194 L 462 193 L 462 190 L 458 183 L 460 181 L 464 181 L 466 183 L 469 182 L 469 177 L 465 172 L 466 171 L 470 171 L 470 168 L 462 159 L 463 156 L 468 157 L 475 161 L 480 168 L 479 169 L 482 173 L 482 171 L 484 169 L 487 169 L 490 171 L 491 170 L 489 163 L 483 152 L 483 150 L 486 147 L 488 147 L 492 149 L 493 147 L 485 136 L 478 129 L 478 127 L 480 125 L 490 125 L 490 124 L 486 120 L 480 117 L 475 112 L 475 110 L 478 107 L 478 105 L 471 95 L 468 88 L 458 75 L 458 72 L 467 66 L 472 59 L 475 50 L 474 39 L 472 33 L 463 23 L 459 20 Z M 285 513 L 287 514 L 288 517 L 287 519 L 284 517 L 284 514 Z M 266 499 L 268 502 L 267 505 L 264 503 L 264 500 Z M 428 495 L 430 496 L 430 500 L 429 501 L 427 500 L 427 496 Z M 409 489 L 413 494 L 413 503 L 411 506 L 409 505 L 410 494 L 407 490 Z M 269 487 L 272 490 L 279 504 L 280 512 L 278 514 L 273 510 L 269 500 L 269 497 L 268 496 L 268 488 Z M 272 464 L 273 465 L 273 469 L 272 470 L 272 473 L 269 476 L 267 473 L 268 472 L 269 466 Z M 437 454 L 444 465 L 447 474 L 448 481 L 446 483 L 442 482 L 439 490 L 436 492 L 435 491 L 431 491 L 429 489 L 430 480 L 427 476 L 426 472 L 429 471 L 434 477 L 436 476 L 436 464 L 435 463 L 434 456 Z M 258 440 L 260 442 L 260 445 L 254 463 L 250 466 L 248 464 L 249 454 L 253 445 Z M 412 423 L 413 422 L 416 422 L 419 424 L 429 423 L 432 426 L 429 429 L 424 429 L 424 432 L 423 433 L 420 433 L 413 426 Z M 257 416 L 258 417 L 258 420 L 252 427 L 250 433 L 249 434 L 244 434 L 243 433 L 243 430 L 248 421 L 251 418 Z M 428 401 L 434 405 L 443 409 L 449 416 L 447 418 L 438 417 L 438 420 L 440 423 L 439 426 L 435 423 L 432 414 L 432 410 L 427 405 L 427 402 Z M 421 393 L 422 392 L 428 392 L 431 396 L 430 397 L 424 397 Z M 436 384 L 437 384 L 443 390 L 443 392 L 441 394 L 437 392 L 434 389 L 434 386 Z M 436 372 L 438 370 L 444 370 L 448 373 L 447 378 L 444 381 L 442 381 L 439 378 Z M 384 370 L 386 368 L 388 368 L 402 378 L 407 379 L 409 381 L 408 382 L 408 385 L 406 387 L 397 379 L 386 373 Z M 409 366 L 411 364 L 415 368 L 418 369 L 420 371 L 420 373 L 418 375 L 411 377 L 409 375 Z M 535 356 L 538 355 L 540 358 L 538 359 Z M 434 329 L 436 328 L 439 331 L 437 333 L 434 331 Z M 424 326 L 425 325 L 428 325 L 430 327 L 429 328 L 425 328 Z M 429 312 L 431 312 L 434 315 L 437 321 L 435 324 L 430 318 L 428 314 Z M 412 316 L 412 315 L 416 312 L 418 312 L 420 314 L 417 318 L 414 318 Z M 372 312 L 374 311 L 376 313 L 377 316 L 374 317 L 372 315 Z M 377 311 L 380 309 L 385 314 L 389 315 L 390 314 L 390 311 L 392 310 L 393 311 L 393 317 L 391 319 L 383 318 Z M 322 305 L 323 307 L 320 310 L 317 311 L 315 309 L 320 305 Z M 421 304 L 423 304 L 425 307 L 425 309 L 423 311 L 420 310 L 420 305 Z M 433 298 L 435 298 L 438 302 L 438 304 L 436 306 L 431 301 Z M 383 292 L 387 295 L 387 298 L 390 304 L 389 307 L 381 298 L 381 294 Z M 311 290 L 313 292 L 311 296 L 306 301 L 304 299 L 306 295 Z M 419 288 L 422 289 L 421 299 L 420 300 L 416 297 L 419 293 L 418 290 Z M 258 271 L 260 273 L 255 278 L 255 279 L 258 280 L 258 282 L 255 285 L 251 287 L 250 286 L 250 283 L 252 279 L 251 278 L 252 275 L 255 272 Z M 259 262 L 261 260 L 267 260 L 269 263 L 267 265 L 263 266 L 261 265 Z M 420 260 L 420 262 L 415 265 L 413 265 L 411 263 L 417 259 Z M 263 252 L 265 250 L 268 250 L 270 252 L 270 254 L 269 255 L 266 255 Z M 399 244 L 399 248 L 397 251 L 383 265 L 378 268 L 374 272 L 368 275 L 365 278 L 361 277 L 355 280 L 353 279 L 349 279 L 333 270 L 328 266 L 318 255 L 318 253 L 321 250 L 330 250 L 331 251 L 336 251 L 337 252 L 355 252 L 356 251 L 361 251 L 362 250 L 366 250 L 367 249 L 380 247 L 394 242 L 397 242 Z M 385 130 L 387 125 L 391 121 L 395 119 L 401 118 L 402 117 L 415 117 L 416 118 L 422 118 L 429 121 L 436 128 L 437 130 L 437 137 L 431 144 L 425 147 L 406 147 L 397 144 L 395 142 L 392 141 L 386 134 Z M 308 110 L 310 108 L 318 104 L 333 104 L 340 107 L 344 112 L 341 115 L 334 114 L 329 112 L 319 112 L 314 114 L 309 114 L 308 113 Z M 288 98 L 294 98 L 298 102 L 300 107 L 299 116 L 295 122 L 301 120 L 307 120 L 308 119 L 321 120 L 327 122 L 332 125 L 336 129 L 338 134 L 336 141 L 329 149 L 316 156 L 313 156 L 312 157 L 303 157 L 295 154 L 292 152 L 286 146 L 285 143 L 283 142 L 282 156 L 285 162 L 292 167 L 300 167 L 307 162 L 310 161 L 318 162 L 323 164 L 329 164 L 330 165 L 342 165 L 343 164 L 346 164 L 362 157 L 368 151 L 370 148 L 370 146 L 372 144 L 376 144 L 382 151 L 383 162 L 384 163 L 384 181 L 383 182 L 383 189 L 381 193 L 380 200 L 373 215 L 370 219 L 362 226 L 352 232 L 345 233 L 344 234 L 336 233 L 327 229 L 321 225 L 312 216 L 298 196 L 294 187 L 293 178 L 283 173 L 273 162 L 271 156 L 271 149 L 270 149 L 261 158 L 256 160 L 249 159 L 243 153 L 243 146 L 246 140 L 252 135 L 261 131 L 267 131 L 270 132 L 275 137 L 278 137 L 279 136 L 282 137 L 282 133 L 287 127 L 284 126 L 280 121 L 280 111 L 283 103 Z M 373 91 L 379 91 L 381 92 L 385 96 L 387 100 L 387 103 L 388 104 L 387 115 L 385 119 L 381 123 L 374 123 L 370 121 L 367 118 L 365 112 L 365 102 L 368 95 Z M 301 59 L 305 63 L 305 66 L 302 70 L 292 74 L 286 79 L 283 78 L 281 76 L 281 70 L 290 61 L 294 59 Z M 261 57 L 265 59 L 272 66 L 272 68 L 262 81 L 260 85 L 254 91 L 252 91 L 242 82 L 241 80 L 241 71 L 243 66 L 250 59 L 255 57 Z M 365 53 L 371 48 L 377 48 L 383 50 L 391 57 L 392 63 L 389 66 L 386 67 L 378 62 L 367 59 L 365 57 Z M 441 30 L 446 30 L 449 32 L 451 32 L 455 35 L 460 41 L 460 43 L 462 46 L 462 54 L 459 59 L 451 66 L 448 65 L 443 61 L 438 55 L 432 51 L 430 51 L 426 46 L 427 41 L 433 34 Z" fill="#FBFBFB" fill-rule="evenodd"/><path d="M 219 651 L 216 660 L 216 668 L 220 671 L 229 672 L 230 671 L 230 663 L 230 670 L 228 672 L 219 670 L 216 666 L 217 657 Z M 246 626 L 251 627 L 256 631 L 254 633 L 249 632 L 252 633 L 257 633 L 258 632 L 256 629 Z M 444 584 L 443 585 L 444 590 L 446 592 L 447 595 L 453 601 L 455 600 L 454 596 L 448 587 Z M 435 581 L 433 584 L 433 587 L 431 590 L 431 592 L 433 592 L 435 590 L 435 586 L 436 585 Z M 266 576 L 266 579 L 268 585 L 272 589 L 273 588 L 273 585 L 271 583 L 271 581 L 268 576 Z M 281 572 L 280 572 L 280 575 L 279 576 L 279 582 L 281 582 L 281 577 L 282 576 Z M 249 568 L 247 568 L 241 574 L 241 575 L 243 576 L 248 571 Z M 409 563 L 408 563 L 405 567 L 405 569 L 403 572 L 404 574 L 405 574 L 409 569 Z M 223 555 L 220 568 L 221 569 L 225 566 L 228 568 L 225 582 L 228 585 L 228 594 L 229 596 L 228 594 L 228 583 L 225 580 L 226 579 L 226 575 L 227 574 L 227 570 L 228 568 L 226 566 L 224 567 L 221 566 L 221 561 Z M 224 530 L 224 532 L 220 539 L 221 541 L 224 539 L 226 539 L 228 541 L 224 553 L 225 548 L 228 542 L 228 539 L 227 538 L 223 539 L 221 537 L 224 532 Z M 408 490 L 411 494 L 411 498 L 410 499 L 410 505 L 411 505 L 412 503 L 412 494 L 411 492 Z M 269 488 L 269 496 L 270 497 L 270 500 L 274 510 L 278 513 L 279 512 L 278 504 L 271 490 Z M 271 494 L 273 495 L 277 503 L 278 507 L 276 509 L 271 501 L 270 498 L 270 495 Z M 545 484 L 542 482 L 539 485 L 534 496 L 528 502 L 521 502 L 519 501 L 521 502 L 528 502 L 533 498 L 541 483 L 543 483 L 545 485 Z M 569 482 L 566 480 L 563 483 L 559 495 L 554 501 L 549 504 L 543 504 L 542 502 L 545 493 L 544 498 L 541 503 L 542 504 L 550 504 L 555 501 L 561 491 L 561 488 L 563 483 L 565 481 L 567 481 L 569 484 Z M 272 465 L 270 466 L 269 469 L 269 472 L 268 473 L 269 475 L 271 473 Z M 437 455 L 435 456 L 436 463 L 437 464 L 437 476 L 434 478 L 429 472 L 427 472 L 427 474 L 431 480 L 430 489 L 436 491 L 438 490 L 440 486 L 440 483 L 442 481 L 444 482 L 447 481 L 447 478 L 446 477 L 446 474 L 443 465 Z M 438 459 L 440 461 L 442 466 L 442 471 L 441 472 L 438 470 L 438 466 L 437 465 L 437 460 Z M 216 448 L 216 453 L 220 450 L 223 452 L 222 454 L 222 460 L 223 447 L 218 451 L 216 450 Z M 258 441 L 254 445 L 251 451 L 250 457 L 249 458 L 249 464 L 250 465 L 253 463 L 259 445 L 259 442 Z M 254 450 L 255 451 L 255 454 L 254 456 L 252 457 L 251 454 L 252 451 Z M 413 423 L 414 426 L 420 432 L 423 432 L 423 429 L 424 428 L 429 428 L 431 426 L 429 424 L 419 425 L 416 423 Z M 257 417 L 251 419 L 249 421 L 244 430 L 244 433 L 249 433 L 251 427 L 257 420 Z M 428 402 L 428 405 L 433 410 L 433 414 L 436 423 L 439 425 L 439 423 L 437 420 L 437 417 L 438 416 L 442 416 L 443 417 L 447 417 L 448 416 L 443 410 L 434 406 Z M 580 396 L 581 397 L 580 399 L 578 398 L 575 399 L 575 401 L 580 410 L 576 402 L 578 399 L 581 401 L 582 400 Z M 422 393 L 424 396 L 430 396 L 428 393 Z M 436 385 L 435 386 L 435 389 L 441 393 L 442 390 Z M 438 371 L 437 372 L 438 375 L 442 380 L 444 380 L 446 378 L 447 373 L 444 371 Z M 385 370 L 386 372 L 397 378 L 403 384 L 406 386 L 407 385 L 407 382 L 408 381 L 407 380 L 402 379 L 388 369 Z M 411 365 L 410 366 L 410 375 L 412 376 L 418 374 L 419 371 L 415 369 Z M 554 346 L 554 348 L 556 351 L 562 357 L 574 373 L 573 375 L 569 373 L 567 373 L 566 375 L 579 394 L 567 376 L 569 374 L 572 375 L 575 375 L 575 374 L 569 367 L 564 359 L 554 348 L 557 346 Z M 451 324 L 450 327 L 452 333 L 451 334 L 447 333 L 446 335 L 450 340 L 454 348 L 454 350 L 451 351 L 449 349 L 438 344 L 433 344 L 433 347 L 436 349 L 443 349 L 444 350 L 447 350 L 453 352 L 458 359 L 459 362 L 459 365 L 458 366 L 455 366 L 448 361 L 447 361 L 447 362 L 453 370 L 463 379 L 461 381 L 458 379 L 456 380 L 460 385 L 460 387 L 467 400 L 467 402 L 464 403 L 460 400 L 454 399 L 453 398 L 448 398 L 447 401 L 449 403 L 456 403 L 465 408 L 469 413 L 470 416 L 466 421 L 463 420 L 459 416 L 457 416 L 457 418 L 462 424 L 463 428 L 466 431 L 468 436 L 471 439 L 471 444 L 470 445 L 468 444 L 465 445 L 465 448 L 468 454 L 468 460 L 465 465 L 466 476 L 464 479 L 461 490 L 459 491 L 458 490 L 458 487 L 457 486 L 455 487 L 452 493 L 451 498 L 449 500 L 447 505 L 442 510 L 440 509 L 441 496 L 439 495 L 439 497 L 437 499 L 433 511 L 429 517 L 420 526 L 417 525 L 422 513 L 422 507 L 419 505 L 410 523 L 404 531 L 398 536 L 396 535 L 396 533 L 399 525 L 399 517 L 398 514 L 396 513 L 394 517 L 393 523 L 389 531 L 389 533 L 387 535 L 386 534 L 386 531 L 389 523 L 388 520 L 385 522 L 379 532 L 370 542 L 368 542 L 363 545 L 361 543 L 366 533 L 366 531 L 363 530 L 359 534 L 356 535 L 345 544 L 343 542 L 343 536 L 347 528 L 347 525 L 345 525 L 330 539 L 329 539 L 325 534 L 323 534 L 320 538 L 316 539 L 314 538 L 300 523 L 297 517 L 293 512 L 293 510 L 290 505 L 289 506 L 290 514 L 294 524 L 297 527 L 299 532 L 304 539 L 304 540 L 302 541 L 296 534 L 292 537 L 283 526 L 281 526 L 280 529 L 278 530 L 268 519 L 267 521 L 265 522 L 256 508 L 251 511 L 249 509 L 249 507 L 246 502 L 244 496 L 242 496 L 242 497 L 240 498 L 238 495 L 237 491 L 235 489 L 233 490 L 230 489 L 229 483 L 228 482 L 228 474 L 226 471 L 223 473 L 221 472 L 221 462 L 221 475 L 224 473 L 227 475 L 228 477 L 229 487 L 235 500 L 235 504 L 233 506 L 228 505 L 227 509 L 222 518 L 225 514 L 227 508 L 230 507 L 239 517 L 244 520 L 252 528 L 256 535 L 259 538 L 261 538 L 265 542 L 277 561 L 297 583 L 297 584 L 293 587 L 293 589 L 296 592 L 294 595 L 287 587 L 286 588 L 287 596 L 290 598 L 295 604 L 298 613 L 298 615 L 294 620 L 297 625 L 298 629 L 294 631 L 294 633 L 292 636 L 289 634 L 288 635 L 289 637 L 289 642 L 295 648 L 296 653 L 294 658 L 290 662 L 286 663 L 282 667 L 276 669 L 272 673 L 265 673 L 264 674 L 244 674 L 241 672 L 243 674 L 268 674 L 269 673 L 277 673 L 278 672 L 287 672 L 288 671 L 293 671 L 294 670 L 300 670 L 301 669 L 306 669 L 307 668 L 314 667 L 317 665 L 319 665 L 323 661 L 325 657 L 325 638 L 324 637 L 323 630 L 326 626 L 328 628 L 330 628 L 330 621 L 331 620 L 329 596 L 331 594 L 335 597 L 336 596 L 336 584 L 339 575 L 337 573 L 334 573 L 322 569 L 312 564 L 308 560 L 308 558 L 311 555 L 319 556 L 329 560 L 339 561 L 344 563 L 352 563 L 353 564 L 375 563 L 380 561 L 384 562 L 387 565 L 387 567 L 382 572 L 380 572 L 380 575 L 384 584 L 384 588 L 386 594 L 390 593 L 391 594 L 391 598 L 391 594 L 390 592 L 387 590 L 388 583 L 393 572 L 396 569 L 403 557 L 408 553 L 417 543 L 421 545 L 429 535 L 433 537 L 441 527 L 445 529 L 455 520 L 457 521 L 469 511 L 470 511 L 475 517 L 477 524 L 480 529 L 488 537 L 487 539 L 484 539 L 482 537 L 479 537 L 478 539 L 485 545 L 485 548 L 484 549 L 481 548 L 473 548 L 473 549 L 483 554 L 486 557 L 490 568 L 488 570 L 477 563 L 475 564 L 478 569 L 488 580 L 489 584 L 487 586 L 486 585 L 480 584 L 470 579 L 466 579 L 466 580 L 481 593 L 485 594 L 493 600 L 494 604 L 492 606 L 489 606 L 485 603 L 490 614 L 493 618 L 493 622 L 491 624 L 489 623 L 489 619 L 488 616 L 486 614 L 484 616 L 484 620 L 482 623 L 483 631 L 484 632 L 483 634 L 480 633 L 458 633 L 457 634 L 452 634 L 451 635 L 444 635 L 440 637 L 437 637 L 435 639 L 432 639 L 432 640 L 435 639 L 445 639 L 446 640 L 450 640 L 448 640 L 446 638 L 449 635 L 453 635 L 458 633 L 477 633 L 478 634 L 481 634 L 485 637 L 483 639 L 477 639 L 485 639 L 488 637 L 495 637 L 499 640 L 506 643 L 514 651 L 516 656 L 517 667 L 515 672 L 509 677 L 507 675 L 507 668 L 505 663 L 507 668 L 507 676 L 510 677 L 514 674 L 517 667 L 517 661 L 516 660 L 515 653 L 509 645 L 499 640 L 496 637 L 496 635 L 500 630 L 501 622 L 502 621 L 502 616 L 503 615 L 503 587 L 502 586 L 502 583 L 504 581 L 504 577 L 500 569 L 502 567 L 505 568 L 507 570 L 508 569 L 504 557 L 496 542 L 499 540 L 506 544 L 507 543 L 499 524 L 499 521 L 501 519 L 504 521 L 505 519 L 503 514 L 501 498 L 494 495 L 486 488 L 482 481 L 480 475 L 479 461 L 480 460 L 481 451 L 485 439 L 484 438 L 481 419 L 480 418 L 480 415 L 479 414 L 474 391 L 472 388 L 469 378 L 464 369 L 464 367 L 459 359 L 455 350 L 454 345 L 457 342 L 458 342 L 465 349 L 478 371 L 478 373 L 481 378 L 482 383 L 486 391 L 487 397 L 490 405 L 490 408 L 491 409 L 491 412 L 492 413 L 492 416 L 488 397 L 483 382 L 479 374 L 478 369 L 474 363 L 474 361 L 472 359 L 472 357 L 470 355 L 468 350 L 462 342 L 462 339 Z M 480 568 L 482 567 L 485 570 L 483 571 L 481 570 Z M 363 533 L 364 535 L 360 538 L 359 537 L 360 535 Z M 270 523 L 276 528 L 284 539 L 282 541 L 280 540 L 271 530 L 269 526 Z M 397 519 L 398 520 L 398 523 L 397 526 L 395 527 L 394 526 L 394 523 L 395 520 Z M 258 515 L 262 518 L 269 528 L 267 530 L 266 530 L 260 523 L 257 517 Z M 292 513 L 294 514 L 298 522 L 304 529 L 306 533 L 304 534 L 298 528 L 297 525 L 294 522 L 293 518 L 291 515 Z M 420 508 L 421 509 L 421 515 L 416 526 L 414 527 L 413 526 L 413 522 L 416 518 L 416 515 L 418 509 Z M 243 499 L 246 501 L 246 503 L 249 508 L 251 514 L 250 516 L 245 512 L 242 503 L 242 500 Z M 463 425 L 466 423 L 472 430 L 470 432 L 467 430 Z M 537 317 L 536 320 L 565 346 L 563 348 L 559 347 L 566 348 L 562 343 L 561 343 L 537 320 L 538 318 L 542 318 Z M 429 313 L 431 318 L 435 323 L 436 321 L 433 315 L 431 313 Z M 419 314 L 416 313 L 414 314 L 413 316 L 414 317 L 417 317 Z M 378 311 L 383 317 L 387 317 L 388 318 L 391 318 L 392 317 L 392 311 L 391 311 L 391 314 L 389 316 L 385 315 L 380 310 Z M 322 306 L 320 306 L 316 309 L 318 310 L 320 309 Z M 421 305 L 421 310 L 423 310 L 424 307 L 423 305 Z M 433 299 L 432 301 L 436 305 L 437 302 L 435 299 Z M 383 293 L 382 294 L 382 298 L 389 306 L 389 304 L 386 298 L 386 295 Z M 311 291 L 307 295 L 305 299 L 306 300 L 310 296 L 312 292 Z M 421 289 L 419 289 L 420 293 L 417 296 L 419 299 L 420 299 Z M 508 279 L 508 281 L 510 283 L 513 284 L 518 288 L 520 288 L 522 290 L 526 291 L 528 294 L 529 294 L 528 292 L 512 284 L 509 281 L 509 280 L 512 278 L 509 278 Z M 258 272 L 255 273 L 253 275 L 252 278 L 253 279 L 251 283 L 251 286 L 257 282 L 257 280 L 255 280 L 254 278 L 259 273 Z M 260 263 L 263 265 L 268 263 L 267 261 L 261 261 Z M 419 260 L 417 260 L 412 263 L 415 264 L 419 262 Z M 264 252 L 266 254 L 269 254 L 268 251 L 265 251 Z M 398 244 L 397 243 L 394 243 L 380 248 L 367 250 L 366 251 L 362 251 L 361 252 L 356 252 L 355 253 L 337 253 L 336 252 L 331 252 L 330 251 L 321 251 L 319 253 L 319 255 L 320 257 L 333 269 L 349 278 L 353 278 L 355 279 L 361 276 L 365 277 L 368 274 L 374 271 L 378 267 L 383 264 L 396 251 L 398 248 Z M 383 261 L 382 263 L 365 275 L 363 274 L 367 269 L 370 268 L 381 260 Z M 321 254 L 323 253 L 329 261 L 337 267 L 344 270 L 346 272 L 352 273 L 353 274 L 359 273 L 360 275 L 358 277 L 352 278 L 343 274 L 329 265 L 322 258 Z M 246 205 L 246 207 L 250 213 L 254 209 L 256 211 L 257 216 L 261 220 L 263 220 L 275 234 L 278 239 L 279 244 L 275 249 L 273 249 L 269 245 L 265 238 L 264 238 L 261 242 L 259 240 L 254 228 L 252 228 L 250 231 L 247 229 L 250 232 L 253 229 L 256 232 L 259 240 L 261 242 L 265 240 L 273 249 L 276 249 L 278 247 L 280 242 L 288 245 L 292 249 L 295 249 L 295 245 L 294 243 L 289 238 L 281 234 L 279 234 L 270 228 L 262 219 L 260 219 L 258 217 L 256 213 L 256 210 L 254 208 L 252 209 L 251 212 L 249 212 L 246 207 Z M 216 147 L 213 152 L 213 155 L 218 164 L 221 166 L 222 162 L 224 160 L 224 158 L 220 154 L 218 147 Z M 216 149 L 223 157 L 223 161 L 220 165 L 216 161 L 214 157 L 213 152 Z M 376 145 L 372 145 L 371 147 L 373 145 L 375 145 L 380 150 L 381 156 L 382 157 L 383 177 L 382 178 L 381 191 L 375 209 L 370 217 L 365 222 L 359 225 L 353 230 L 350 230 L 345 232 L 339 232 L 327 228 L 310 212 L 299 196 L 297 191 L 304 204 L 313 216 L 321 224 L 327 228 L 336 232 L 340 232 L 341 233 L 349 232 L 356 229 L 366 222 L 372 215 L 379 200 L 380 193 L 382 189 L 382 182 L 383 181 L 383 163 L 382 162 L 382 155 L 381 154 L 381 151 Z M 247 140 L 244 146 L 244 153 L 249 158 L 252 158 L 253 159 L 259 158 L 271 148 L 272 149 L 272 156 L 274 162 L 276 165 L 285 173 L 276 165 L 273 160 L 273 157 L 272 156 L 272 147 L 273 146 L 273 143 L 277 138 L 275 138 L 270 133 L 267 132 L 261 132 L 252 136 Z M 253 137 L 256 138 L 252 141 L 252 143 L 249 147 L 249 151 L 252 150 L 254 152 L 254 154 L 257 154 L 259 152 L 262 153 L 260 156 L 256 158 L 251 158 L 249 157 L 244 151 L 244 148 L 246 143 Z M 258 135 L 262 133 L 268 133 L 272 136 L 273 140 L 270 142 L 269 141 L 269 138 L 267 136 L 259 137 Z M 242 132 L 230 146 L 231 149 L 237 148 L 239 150 L 239 153 L 236 157 L 236 159 L 232 166 L 232 169 L 233 170 L 236 168 L 239 170 L 239 174 L 240 169 L 239 168 L 234 169 L 232 167 L 240 150 L 238 148 L 233 148 L 232 149 L 230 146 L 241 135 Z M 86 122 L 86 125 L 85 126 L 85 135 L 86 136 L 86 140 L 87 141 L 87 144 L 93 159 L 95 161 L 95 163 L 109 183 L 110 186 L 110 193 L 109 182 L 106 179 L 96 164 L 89 149 L 87 143 L 87 140 L 86 139 L 86 136 L 85 135 L 85 126 L 86 125 Z M 386 130 L 387 134 L 392 140 L 395 141 L 397 143 L 406 146 L 425 146 L 431 143 L 436 137 L 436 130 L 429 122 L 422 119 L 416 119 L 415 118 L 402 118 L 401 119 L 395 120 L 391 122 L 388 125 Z M 387 128 L 392 122 L 396 120 L 405 119 L 406 118 L 421 119 L 428 122 L 434 127 L 436 131 L 436 137 L 428 144 L 422 145 L 421 146 L 411 146 L 410 145 L 402 144 L 393 140 L 388 135 L 387 133 Z M 299 107 L 299 112 L 297 118 L 291 124 L 287 126 L 288 127 L 283 133 L 283 137 L 282 138 L 279 137 L 282 140 L 282 147 L 281 148 L 281 156 L 284 162 L 290 167 L 291 167 L 284 162 L 281 156 L 282 142 L 283 141 L 285 142 L 283 138 L 283 133 L 290 125 L 296 123 L 295 123 L 294 121 L 298 116 Z M 309 110 L 309 113 L 314 113 L 319 111 L 329 111 L 330 112 L 341 114 L 343 112 L 340 108 L 333 105 L 318 105 Z M 333 109 L 335 108 L 338 109 L 339 111 L 337 112 L 334 111 Z M 315 110 L 315 109 L 318 107 L 323 107 L 324 108 L 323 110 L 318 110 L 317 111 Z M 209 99 L 213 99 L 217 101 L 222 107 L 223 113 L 224 114 L 224 128 L 222 132 L 222 136 L 221 138 L 222 138 L 228 132 L 228 122 L 232 114 L 228 122 L 228 131 L 226 134 L 224 135 L 223 134 L 223 130 L 224 129 L 224 112 L 219 102 L 213 99 Z M 146 78 L 142 82 L 141 87 L 146 84 L 149 84 L 153 87 L 155 90 L 155 94 L 158 100 L 159 110 L 153 115 L 147 115 L 142 111 L 139 114 L 137 114 L 135 111 L 134 104 L 130 99 L 124 94 L 120 94 L 114 99 L 113 103 L 115 104 L 117 102 L 122 100 L 126 101 L 132 108 L 133 111 L 133 122 L 128 127 L 123 127 L 121 126 L 115 118 L 111 123 L 101 122 L 97 127 L 97 133 L 98 134 L 98 137 L 100 143 L 104 150 L 106 156 L 108 158 L 114 169 L 121 177 L 121 180 L 122 181 L 122 190 L 123 191 L 123 196 L 125 201 L 125 205 L 126 206 L 126 209 L 129 218 L 133 226 L 133 228 L 137 236 L 147 251 L 161 265 L 161 267 L 159 269 L 153 269 L 152 270 L 154 273 L 161 279 L 174 286 L 176 286 L 181 290 L 181 292 L 179 294 L 173 295 L 172 296 L 175 299 L 177 299 L 182 302 L 198 307 L 200 309 L 200 311 L 196 315 L 198 317 L 203 319 L 207 319 L 208 320 L 213 320 L 217 323 L 217 325 L 214 327 L 214 328 L 216 330 L 221 331 L 229 335 L 231 333 L 235 323 L 239 319 L 243 319 L 245 321 L 245 327 L 238 347 L 238 352 L 228 366 L 229 368 L 233 367 L 236 371 L 221 389 L 220 391 L 221 393 L 224 392 L 221 390 L 236 371 L 236 369 L 234 367 L 231 368 L 229 366 L 230 363 L 239 352 L 246 348 L 255 339 L 264 326 L 264 324 L 262 323 L 256 326 L 244 336 L 243 335 L 243 331 L 245 327 L 245 321 L 255 300 L 255 295 L 252 294 L 248 296 L 237 309 L 227 307 L 220 304 L 218 302 L 220 300 L 228 298 L 230 295 L 224 292 L 218 292 L 208 285 L 192 283 L 190 280 L 192 278 L 197 278 L 199 276 L 199 274 L 195 270 L 192 270 L 186 268 L 174 262 L 152 241 L 150 237 L 142 227 L 142 225 L 134 213 L 132 211 L 129 212 L 127 210 L 127 206 L 125 204 L 125 200 L 124 199 L 123 191 L 122 190 L 122 178 L 119 173 L 114 168 L 114 166 L 106 155 L 106 153 L 102 147 L 101 142 L 99 140 L 98 132 L 97 131 L 97 127 L 98 125 L 102 122 L 104 122 L 106 124 L 106 126 L 102 129 L 102 136 L 104 140 L 111 147 L 116 147 L 119 145 L 120 146 L 120 149 L 121 144 L 135 130 L 147 123 L 162 120 L 163 121 L 167 121 L 172 124 L 181 135 L 184 143 L 184 151 L 182 156 L 174 163 L 160 168 L 156 168 L 150 170 L 145 170 L 144 171 L 135 171 L 128 168 L 122 162 L 120 158 L 119 151 L 119 156 L 121 159 L 121 161 L 126 167 L 134 171 L 147 171 L 148 170 L 152 170 L 153 169 L 157 169 L 158 168 L 169 166 L 178 161 L 182 157 L 184 153 L 185 145 L 184 144 L 184 140 L 180 132 L 171 122 L 167 120 L 155 120 L 154 121 L 148 122 L 134 130 L 121 143 L 119 141 L 120 138 L 119 134 L 116 130 L 111 126 L 111 125 L 113 123 L 117 123 L 122 128 L 127 128 L 133 124 L 135 119 L 139 115 L 144 114 L 146 116 L 154 116 L 162 109 L 164 111 L 167 112 L 173 118 L 176 119 L 180 119 L 182 118 L 187 112 L 192 120 L 187 127 L 187 135 L 188 137 L 192 140 L 196 140 L 204 136 L 206 137 L 206 139 L 203 143 L 203 145 L 198 150 L 198 156 L 203 163 L 209 175 L 209 177 L 211 179 L 211 181 L 217 192 L 219 194 L 222 193 L 225 194 L 229 208 L 233 216 L 236 217 L 240 214 L 243 218 L 245 225 L 242 216 L 239 213 L 238 213 L 235 217 L 232 214 L 228 205 L 224 191 L 223 190 L 221 193 L 219 193 L 215 189 L 212 183 L 212 181 L 205 168 L 205 166 L 198 155 L 198 152 L 205 143 L 210 131 L 210 128 L 212 123 L 212 115 L 211 113 L 208 110 L 202 110 L 195 116 L 192 117 L 188 112 L 188 94 L 187 93 L 186 86 L 183 83 L 179 83 L 176 85 L 176 87 L 179 88 L 183 92 L 184 98 L 185 99 L 185 113 L 184 115 L 179 119 L 173 117 L 167 110 L 164 110 L 163 109 L 162 103 L 161 102 L 160 88 L 158 83 L 153 78 Z M 261 324 L 263 326 L 262 328 L 259 331 L 254 339 L 248 345 L 247 345 L 246 343 L 250 339 L 252 335 L 251 332 Z M 253 295 L 255 297 L 254 301 L 248 314 L 245 316 L 244 313 L 249 303 L 248 302 L 244 306 L 243 306 L 242 304 L 246 298 L 251 295 Z M 219 297 L 220 294 L 226 294 L 227 296 L 223 299 L 221 299 Z M 191 273 L 194 272 L 196 273 L 197 275 L 195 276 L 192 275 Z M 106 127 L 112 128 L 118 135 L 118 143 L 115 146 L 111 146 L 103 137 L 103 130 Z M 205 114 L 208 117 L 208 124 L 204 134 L 199 138 L 191 139 L 187 134 L 187 130 L 189 125 L 199 115 L 201 114 Z M 202 111 L 203 110 L 207 110 L 210 113 L 208 115 L 206 113 L 203 113 Z M 125 96 L 125 97 L 122 99 L 120 99 L 117 101 L 115 100 L 115 98 L 120 94 L 123 94 Z M 144 80 L 146 78 L 152 78 L 156 83 L 154 85 L 151 83 L 145 83 Z M 304 63 L 301 60 L 294 60 L 290 62 L 282 70 L 282 76 L 286 78 L 292 73 L 302 69 L 304 66 Z M 301 60 L 303 62 L 304 66 L 300 70 L 298 70 L 292 73 L 286 78 L 282 75 L 282 71 L 283 69 L 290 62 L 294 60 Z M 261 58 L 255 58 L 250 60 L 244 66 L 242 71 L 242 80 L 243 82 L 252 90 L 254 90 L 259 85 L 261 81 L 271 68 L 271 66 L 265 60 Z M 246 83 L 248 82 L 252 86 L 249 87 Z M 263 71 L 265 74 L 256 86 L 255 85 L 255 82 L 261 75 L 261 73 Z M 256 60 L 257 62 L 252 66 L 250 66 L 246 73 L 247 80 L 245 82 L 243 80 L 243 71 L 246 65 L 249 62 L 253 60 Z M 474 55 L 473 59 L 469 65 L 463 70 L 459 72 L 459 75 L 465 82 L 475 100 L 479 105 L 479 107 L 476 110 L 476 112 L 480 116 L 486 119 L 491 124 L 490 126 L 480 126 L 479 129 L 486 136 L 494 147 L 492 150 L 488 148 L 486 148 L 484 150 L 484 152 L 490 163 L 492 170 L 490 172 L 487 170 L 484 170 L 482 174 L 479 171 L 478 169 L 479 168 L 475 162 L 468 158 L 463 157 L 463 159 L 471 168 L 471 171 L 470 172 L 466 172 L 470 177 L 470 182 L 468 184 L 466 184 L 464 182 L 460 182 L 459 183 L 463 190 L 463 193 L 461 195 L 453 191 L 450 191 L 449 192 L 456 198 L 457 202 L 455 204 L 453 203 L 449 208 L 448 215 L 446 216 L 441 212 L 441 221 L 440 224 L 437 225 L 435 222 L 433 222 L 432 224 L 432 229 L 431 232 L 429 234 L 427 234 L 426 233 L 426 229 L 424 229 L 419 236 L 415 236 L 407 244 L 405 248 L 405 252 L 407 252 L 409 250 L 410 247 L 417 239 L 418 240 L 418 246 L 420 248 L 425 248 L 429 245 L 430 246 L 444 246 L 447 249 L 449 249 L 451 248 L 452 246 L 451 244 L 453 242 L 467 242 L 468 243 L 471 243 L 476 246 L 481 247 L 484 249 L 486 249 L 490 252 L 495 253 L 496 255 L 495 256 L 491 256 L 490 257 L 490 260 L 493 262 L 497 263 L 513 273 L 518 277 L 517 279 L 515 279 L 518 279 L 518 277 L 513 273 L 497 263 L 493 262 L 490 259 L 492 256 L 498 256 L 497 254 L 473 244 L 471 241 L 473 239 L 475 239 L 475 238 L 468 236 L 467 233 L 469 232 L 468 230 L 465 230 L 463 228 L 463 225 L 470 218 L 475 209 L 478 200 L 478 193 L 480 191 L 483 193 L 485 192 L 485 177 L 484 176 L 484 172 L 486 170 L 489 171 L 491 173 L 493 172 L 492 171 L 492 168 L 490 162 L 484 151 L 486 149 L 490 149 L 491 150 L 494 150 L 495 149 L 492 143 L 479 129 L 481 126 L 491 126 L 492 124 L 489 121 L 480 116 L 476 112 L 476 111 L 481 107 L 474 98 L 464 80 L 460 76 L 460 73 L 470 64 L 473 59 Z M 443 244 L 445 242 L 449 242 L 450 244 L 447 246 L 445 246 Z M 441 237 L 443 240 L 438 245 L 436 245 L 435 244 L 435 241 L 438 238 Z M 454 224 L 455 227 L 453 229 L 452 232 L 448 236 L 446 234 L 446 232 L 447 230 L 453 224 Z M 438 32 L 430 38 L 428 41 L 427 46 L 430 50 L 432 50 L 438 54 L 443 60 L 448 64 L 451 65 L 454 63 L 461 54 L 461 46 L 459 43 L 459 41 L 456 37 L 451 33 L 449 33 L 446 31 Z M 436 34 L 438 34 L 441 32 L 447 33 L 453 36 L 459 42 L 460 45 L 460 54 L 452 63 L 449 63 L 441 55 L 433 49 L 431 49 L 428 46 L 429 41 L 431 38 Z M 384 32 L 366 32 L 365 33 L 362 33 L 360 31 L 360 28 L 362 23 L 360 22 L 356 24 L 348 33 L 346 33 L 342 30 L 333 26 L 329 26 L 329 29 L 331 31 L 332 34 L 329 38 L 314 38 L 330 38 L 332 36 L 331 31 L 329 29 L 331 26 L 333 26 L 346 33 L 348 33 L 352 28 L 358 23 L 361 24 L 361 27 L 360 28 L 360 32 L 361 33 L 365 33 L 366 32 Z" fill="#D8D8D8" fill-rule="evenodd"/><path d="M 447 638 L 448 639 L 451 639 L 452 638 L 459 638 L 460 637 L 474 637 L 475 638 L 483 638 L 484 637 L 481 635 L 478 635 L 477 634 L 458 634 L 453 636 L 449 636 Z M 462 635 L 463 634 L 472 634 L 473 636 L 472 637 L 463 637 Z M 270 524 L 272 530 L 276 535 L 282 540 L 283 539 L 275 528 Z M 258 516 L 263 526 L 267 529 L 268 528 L 261 518 Z M 292 514 L 294 520 L 298 525 L 299 528 L 305 533 L 301 526 L 297 522 L 293 514 Z M 420 509 L 419 509 L 417 515 L 417 518 L 414 522 L 414 526 L 415 526 L 420 515 Z M 243 500 L 243 503 L 246 512 L 250 515 L 248 508 L 245 503 L 245 501 Z M 271 495 L 272 501 L 276 508 L 277 507 L 276 503 L 272 495 Z M 438 460 L 439 470 L 441 471 L 441 466 Z M 261 325 L 252 332 L 253 335 L 247 344 L 248 344 L 256 335 L 258 331 L 261 328 L 262 326 Z M 253 296 L 251 296 L 246 299 L 243 305 L 244 305 L 248 301 L 250 303 L 245 313 L 245 315 L 247 314 L 254 298 Z M 220 295 L 221 298 L 223 298 L 226 296 L 226 295 Z M 382 261 L 379 262 L 373 267 L 367 270 L 364 274 L 373 269 L 377 265 L 382 262 Z M 322 254 L 323 258 L 329 264 L 343 273 L 352 277 L 355 277 L 359 275 L 359 274 L 356 275 L 349 274 L 337 268 L 329 262 L 325 258 L 323 254 Z M 442 239 L 441 238 L 438 239 L 436 241 L 436 244 L 438 244 Z M 454 225 L 448 230 L 447 232 L 448 235 L 451 232 L 452 229 L 454 227 Z M 275 141 L 273 147 L 273 156 L 275 162 L 283 171 L 288 174 L 292 175 L 294 177 L 295 184 L 300 196 L 311 212 L 323 224 L 327 227 L 329 227 L 335 230 L 345 231 L 346 230 L 353 229 L 359 224 L 365 221 L 369 217 L 374 209 L 374 207 L 378 199 L 378 195 L 381 186 L 381 178 L 382 177 L 381 157 L 380 156 L 379 150 L 375 146 L 373 146 L 371 148 L 370 151 L 362 159 L 354 163 L 342 167 L 330 167 L 329 166 L 324 166 L 323 165 L 310 163 L 300 169 L 293 169 L 286 165 L 281 159 L 280 156 L 281 140 L 278 138 Z M 275 142 L 278 139 L 281 141 L 280 144 L 280 157 L 282 161 L 288 167 L 296 170 L 302 169 L 309 164 L 316 164 L 317 165 L 321 165 L 327 167 L 344 167 L 353 164 L 363 159 L 370 152 L 371 149 L 373 147 L 375 147 L 378 150 L 380 155 L 380 161 L 381 162 L 381 179 L 380 180 L 380 186 L 378 191 L 377 199 L 375 205 L 370 214 L 366 218 L 364 217 L 369 207 L 372 198 L 372 193 L 370 189 L 361 183 L 348 183 L 336 189 L 325 201 L 323 205 L 323 213 L 326 218 L 333 225 L 331 227 L 329 227 L 324 224 L 312 212 L 300 195 L 296 186 L 295 177 L 292 174 L 287 173 L 284 171 L 276 163 L 273 154 Z M 253 138 L 247 143 L 245 148 L 245 151 L 249 156 L 251 157 L 256 157 L 260 155 L 261 153 L 259 153 L 257 155 L 254 155 L 252 151 L 249 152 L 248 151 L 248 147 L 251 143 L 251 141 L 255 138 Z M 259 135 L 259 136 L 267 135 L 270 138 L 270 141 L 272 140 L 271 136 L 268 134 L 262 134 Z M 106 128 L 104 130 L 104 137 L 111 145 L 115 145 L 117 143 L 117 135 L 116 133 L 112 129 Z M 290 126 L 284 133 L 285 141 L 288 146 L 292 150 L 297 153 L 303 155 L 313 155 L 324 150 L 333 142 L 336 136 L 336 133 L 334 129 L 331 126 L 325 123 L 322 123 L 317 121 L 300 122 Z M 330 126 L 335 132 L 335 137 L 333 141 L 326 148 L 314 154 L 311 154 L 310 155 L 300 154 L 294 151 L 287 144 L 285 140 L 285 132 L 291 126 L 301 122 L 317 121 Z M 175 128 L 167 122 L 163 122 L 162 121 L 150 123 L 139 128 L 135 131 L 121 146 L 120 154 L 123 162 L 128 167 L 135 170 L 144 170 L 145 169 L 150 169 L 151 168 L 160 167 L 174 162 L 181 156 L 183 151 L 183 143 L 182 142 L 182 139 Z M 388 128 L 388 133 L 393 139 L 399 142 L 405 143 L 406 144 L 410 144 L 411 145 L 421 145 L 422 144 L 425 144 L 431 141 L 435 137 L 435 131 L 433 127 L 428 123 L 421 120 L 414 120 L 413 119 L 400 120 L 392 123 Z M 205 115 L 201 115 L 199 116 L 190 125 L 188 130 L 188 134 L 191 138 L 196 138 L 203 134 L 207 124 L 207 117 Z M 292 99 L 288 100 L 285 103 L 282 110 L 282 114 L 281 115 L 282 121 L 286 125 L 288 125 L 291 123 L 296 118 L 298 112 L 298 106 L 296 102 Z M 293 100 L 297 104 L 297 107 L 298 108 L 297 115 L 289 124 L 285 124 L 282 120 L 282 111 L 285 104 L 289 100 Z M 374 92 L 370 95 L 367 101 L 367 113 L 371 120 L 373 121 L 380 121 L 383 119 L 385 115 L 386 104 L 383 96 L 377 92 Z M 373 93 L 379 93 L 383 97 L 385 101 L 385 106 L 386 107 L 385 109 L 385 114 L 383 118 L 379 121 L 374 121 L 372 120 L 368 115 L 367 112 L 367 103 L 370 96 Z M 263 72 L 262 75 L 256 82 L 256 85 L 255 86 L 264 74 Z M 302 62 L 301 61 L 294 61 L 290 63 L 284 69 L 283 71 L 283 75 L 286 77 L 292 72 L 298 69 L 300 69 L 303 66 Z M 302 63 L 302 66 L 300 68 L 294 70 L 287 76 L 285 76 L 283 74 L 284 70 L 291 63 L 295 61 L 300 61 Z M 256 61 L 253 61 L 247 65 L 244 71 L 244 80 L 245 81 L 246 80 L 245 73 L 250 65 L 252 65 L 256 62 Z M 367 53 L 367 56 L 369 58 L 372 58 L 378 60 L 386 65 L 390 63 L 390 59 L 389 57 L 381 51 L 378 50 L 370 50 Z M 367 53 L 371 50 L 380 51 L 385 54 L 389 58 L 390 61 L 387 64 L 385 64 L 379 60 L 369 57 L 367 55 Z M 433 37 L 430 41 L 429 46 L 431 48 L 433 48 L 436 50 L 449 62 L 452 62 L 459 54 L 459 45 L 458 42 L 453 37 L 444 33 L 441 33 Z M 455 15 L 449 13 L 443 13 L 442 12 L 437 12 L 436 13 L 432 13 L 429 15 L 427 15 L 423 17 L 417 22 L 411 31 L 411 35 L 409 37 L 398 33 L 394 33 L 388 31 L 382 31 L 381 30 L 362 31 L 361 29 L 363 25 L 363 21 L 361 20 L 355 23 L 347 31 L 345 31 L 343 29 L 335 25 L 328 24 L 327 25 L 327 28 L 330 32 L 330 34 L 328 36 L 311 37 L 306 43 L 301 44 L 293 48 L 284 55 L 283 55 L 274 45 L 269 42 L 263 41 L 262 40 L 256 40 L 255 41 L 251 41 L 248 43 L 246 43 L 238 48 L 232 54 L 227 65 L 227 70 L 226 71 L 227 81 L 231 90 L 238 97 L 241 98 L 243 100 L 245 100 L 248 104 L 239 123 L 240 133 L 233 140 L 228 147 L 228 150 L 229 151 L 232 151 L 233 150 L 236 150 L 237 151 L 236 156 L 232 162 L 230 169 L 232 172 L 234 172 L 236 170 L 238 172 L 237 174 L 237 178 L 236 179 L 236 191 L 238 193 L 242 192 L 244 194 L 244 204 L 245 205 L 245 208 L 247 210 L 247 212 L 249 214 L 254 213 L 256 215 L 257 219 L 263 222 L 266 225 L 277 240 L 277 245 L 275 247 L 273 247 L 270 244 L 269 241 L 264 234 L 263 237 L 260 238 L 257 233 L 256 229 L 253 226 L 251 226 L 249 229 L 246 225 L 245 220 L 242 214 L 238 210 L 235 213 L 232 211 L 225 190 L 222 188 L 219 191 L 216 188 L 214 182 L 210 175 L 210 173 L 202 158 L 200 156 L 200 151 L 207 143 L 212 131 L 212 128 L 213 127 L 213 114 L 209 109 L 201 109 L 193 115 L 190 113 L 189 92 L 188 91 L 187 85 L 184 82 L 177 82 L 174 84 L 171 89 L 170 96 L 165 104 L 163 102 L 163 95 L 162 94 L 161 86 L 159 82 L 153 77 L 146 77 L 140 82 L 138 87 L 138 98 L 139 99 L 139 106 L 138 107 L 136 106 L 136 104 L 134 101 L 126 93 L 119 93 L 113 98 L 111 103 L 112 120 L 110 122 L 101 121 L 97 124 L 96 127 L 96 134 L 97 135 L 97 139 L 100 145 L 100 147 L 103 151 L 103 153 L 110 166 L 117 174 L 120 179 L 120 185 L 121 186 L 121 192 L 122 193 L 123 203 L 130 225 L 137 239 L 143 248 L 159 265 L 157 268 L 151 267 L 150 268 L 151 272 L 162 282 L 177 289 L 179 291 L 177 293 L 172 293 L 170 295 L 173 299 L 185 305 L 188 305 L 194 307 L 198 310 L 193 314 L 194 317 L 198 318 L 201 320 L 213 322 L 215 324 L 211 328 L 212 330 L 230 336 L 233 333 L 233 331 L 237 323 L 239 321 L 242 321 L 244 323 L 244 326 L 237 345 L 236 353 L 226 367 L 227 370 L 232 369 L 234 371 L 218 392 L 219 394 L 226 393 L 228 395 L 222 403 L 213 422 L 213 425 L 214 426 L 220 423 L 222 425 L 219 431 L 216 445 L 215 446 L 215 455 L 216 456 L 219 453 L 221 455 L 219 474 L 221 478 L 223 477 L 226 478 L 227 485 L 233 499 L 233 502 L 232 503 L 227 502 L 226 508 L 219 521 L 220 523 L 224 522 L 226 524 L 224 526 L 224 528 L 222 531 L 222 533 L 219 538 L 218 542 L 220 543 L 224 541 L 226 543 L 220 560 L 219 570 L 222 570 L 224 568 L 226 570 L 223 584 L 227 587 L 227 595 L 229 599 L 229 605 L 232 614 L 232 618 L 236 626 L 234 628 L 231 629 L 223 629 L 222 630 L 215 631 L 209 634 L 203 640 L 200 646 L 200 649 L 198 654 L 198 659 L 200 665 L 205 669 L 208 668 L 207 665 L 208 655 L 214 648 L 216 648 L 218 650 L 215 659 L 215 670 L 218 672 L 221 672 L 222 673 L 232 673 L 231 664 L 234 656 L 238 652 L 240 652 L 242 654 L 241 660 L 240 661 L 240 667 L 239 668 L 239 671 L 241 675 L 274 675 L 275 674 L 292 673 L 293 672 L 299 672 L 300 671 L 305 671 L 306 670 L 314 669 L 321 666 L 325 661 L 326 655 L 327 654 L 327 642 L 326 641 L 326 634 L 325 631 L 326 630 L 331 631 L 332 629 L 332 606 L 331 605 L 331 599 L 333 597 L 335 599 L 337 598 L 337 586 L 339 583 L 340 573 L 316 565 L 310 560 L 312 557 L 315 557 L 316 558 L 319 558 L 320 559 L 323 559 L 327 561 L 331 561 L 336 563 L 355 565 L 356 566 L 365 566 L 366 565 L 378 564 L 379 563 L 383 563 L 385 565 L 385 567 L 381 571 L 378 572 L 378 575 L 381 580 L 383 586 L 384 595 L 386 597 L 388 595 L 390 597 L 389 600 L 389 612 L 393 615 L 393 630 L 394 633 L 396 633 L 398 631 L 400 633 L 400 648 L 398 653 L 398 668 L 400 672 L 404 676 L 410 679 L 416 680 L 420 682 L 438 684 L 439 683 L 438 666 L 441 662 L 444 662 L 446 664 L 446 667 L 447 668 L 447 683 L 448 684 L 469 684 L 471 682 L 471 674 L 470 673 L 469 663 L 473 660 L 477 663 L 479 668 L 479 682 L 480 683 L 488 683 L 489 682 L 493 682 L 497 679 L 497 666 L 496 665 L 496 660 L 498 658 L 504 663 L 505 670 L 506 671 L 506 675 L 505 676 L 506 679 L 511 678 L 517 672 L 518 669 L 518 658 L 515 650 L 507 642 L 503 641 L 498 637 L 498 635 L 501 632 L 501 629 L 503 624 L 504 607 L 505 606 L 505 590 L 504 589 L 504 584 L 506 582 L 506 578 L 502 571 L 504 569 L 508 572 L 510 571 L 505 556 L 499 545 L 501 543 L 506 546 L 509 545 L 507 538 L 501 525 L 502 522 L 505 522 L 506 521 L 506 517 L 505 516 L 502 497 L 500 495 L 495 494 L 488 488 L 482 476 L 482 473 L 481 472 L 481 459 L 482 458 L 482 454 L 485 445 L 487 442 L 487 438 L 485 433 L 485 429 L 483 424 L 482 415 L 481 414 L 477 395 L 475 392 L 471 379 L 457 351 L 456 346 L 458 344 L 464 350 L 467 356 L 471 361 L 479 377 L 480 382 L 484 390 L 486 396 L 486 399 L 488 403 L 488 406 L 489 407 L 489 410 L 490 411 L 490 414 L 493 423 L 494 433 L 496 438 L 496 443 L 494 446 L 492 452 L 492 455 L 491 456 L 491 460 L 490 461 L 491 474 L 494 480 L 497 483 L 501 485 L 505 485 L 509 481 L 513 471 L 515 469 L 518 471 L 518 479 L 516 485 L 511 493 L 511 496 L 517 502 L 523 504 L 526 504 L 532 501 L 536 496 L 538 490 L 542 484 L 545 487 L 544 495 L 540 502 L 540 504 L 542 506 L 548 506 L 555 503 L 558 500 L 562 492 L 563 486 L 565 483 L 568 484 L 568 493 L 566 497 L 567 498 L 570 497 L 578 488 L 584 473 L 584 469 L 586 463 L 586 446 L 585 445 L 585 440 L 584 438 L 588 435 L 588 431 L 583 418 L 582 411 L 579 405 L 580 403 L 583 403 L 584 401 L 577 388 L 570 378 L 572 376 L 576 377 L 577 375 L 558 350 L 560 348 L 568 350 L 568 347 L 541 322 L 542 320 L 549 320 L 550 318 L 544 312 L 524 298 L 526 296 L 530 296 L 532 294 L 529 291 L 516 285 L 513 282 L 514 280 L 519 280 L 520 277 L 503 265 L 500 264 L 498 262 L 496 262 L 494 259 L 497 257 L 500 257 L 501 255 L 494 251 L 492 251 L 483 246 L 477 244 L 475 241 L 479 239 L 477 237 L 471 235 L 472 232 L 471 229 L 467 229 L 465 227 L 473 216 L 477 208 L 479 202 L 479 196 L 481 194 L 485 195 L 487 193 L 487 179 L 485 174 L 487 172 L 491 175 L 493 175 L 494 174 L 494 169 L 492 163 L 486 152 L 488 150 L 492 152 L 495 152 L 496 151 L 496 147 L 489 137 L 482 130 L 483 127 L 491 128 L 494 126 L 494 124 L 490 120 L 481 115 L 478 112 L 482 109 L 482 106 L 479 103 L 467 82 L 462 76 L 462 73 L 471 65 L 475 57 L 476 51 L 477 50 L 476 38 L 471 28 L 462 19 Z M 451 14 L 461 19 L 471 29 L 476 39 L 476 53 L 474 59 L 471 64 L 461 73 L 461 76 L 465 80 L 475 98 L 482 107 L 479 109 L 477 112 L 480 115 L 489 120 L 493 124 L 491 127 L 481 127 L 480 129 L 489 138 L 493 143 L 496 149 L 494 151 L 491 151 L 490 150 L 486 150 L 485 151 L 491 162 L 493 168 L 493 171 L 494 172 L 492 174 L 487 171 L 485 172 L 485 176 L 486 177 L 486 192 L 484 194 L 480 192 L 479 193 L 479 200 L 476 209 L 471 218 L 464 225 L 464 228 L 465 229 L 468 229 L 470 231 L 470 232 L 468 233 L 468 235 L 473 236 L 476 238 L 475 240 L 472 241 L 473 243 L 479 245 L 484 248 L 486 248 L 493 252 L 495 252 L 499 255 L 498 257 L 492 257 L 491 259 L 493 261 L 495 261 L 507 268 L 519 277 L 518 280 L 511 279 L 510 281 L 515 285 L 528 291 L 530 293 L 529 295 L 524 295 L 523 298 L 542 311 L 548 317 L 547 320 L 545 319 L 538 319 L 538 320 L 567 347 L 566 349 L 562 349 L 558 347 L 555 348 L 565 359 L 570 367 L 576 374 L 575 376 L 572 376 L 571 375 L 568 376 L 582 397 L 583 400 L 581 402 L 578 400 L 577 402 L 581 409 L 582 415 L 585 422 L 585 425 L 588 432 L 586 435 L 585 434 L 583 435 L 585 440 L 585 447 L 586 448 L 586 459 L 585 460 L 584 472 L 578 487 L 569 497 L 567 495 L 569 485 L 567 482 L 565 482 L 563 485 L 562 491 L 559 497 L 555 502 L 550 505 L 542 505 L 540 503 L 543 498 L 545 492 L 545 486 L 543 484 L 541 484 L 534 498 L 528 503 L 521 503 L 517 501 L 511 495 L 511 494 L 514 490 L 518 481 L 518 477 L 519 476 L 519 472 L 516 468 L 513 470 L 509 480 L 505 484 L 500 484 L 498 483 L 494 479 L 491 472 L 491 457 L 492 456 L 492 453 L 494 447 L 496 444 L 496 436 L 494 431 L 494 426 L 492 421 L 492 417 L 491 416 L 488 401 L 486 397 L 485 391 L 481 383 L 480 378 L 473 363 L 469 358 L 464 349 L 458 343 L 455 345 L 457 353 L 465 367 L 465 369 L 470 378 L 473 388 L 475 391 L 475 394 L 477 398 L 478 406 L 479 407 L 479 410 L 482 419 L 482 423 L 483 424 L 483 428 L 484 429 L 484 433 L 485 434 L 486 441 L 482 451 L 482 455 L 480 461 L 481 475 L 483 481 L 487 488 L 494 494 L 500 496 L 502 498 L 502 502 L 503 503 L 504 514 L 506 520 L 504 522 L 501 520 L 500 521 L 500 524 L 508 543 L 506 545 L 498 541 L 497 543 L 505 557 L 509 569 L 507 571 L 503 568 L 501 569 L 505 577 L 505 581 L 503 583 L 503 586 L 504 587 L 504 615 L 503 616 L 503 621 L 502 622 L 501 630 L 497 635 L 497 637 L 499 639 L 509 644 L 515 651 L 517 656 L 517 660 L 518 661 L 518 667 L 517 670 L 513 676 L 510 678 L 508 678 L 506 676 L 506 668 L 504 662 L 499 657 L 497 657 L 495 659 L 496 668 L 497 669 L 497 678 L 494 681 L 491 682 L 481 683 L 479 681 L 480 679 L 480 670 L 479 669 L 479 666 L 475 660 L 471 660 L 469 662 L 470 682 L 468 684 L 449 684 L 447 682 L 447 665 L 444 661 L 441 661 L 438 665 L 438 680 L 439 681 L 437 683 L 422 682 L 421 681 L 417 681 L 408 677 L 406 677 L 400 671 L 398 666 L 398 657 L 399 656 L 399 651 L 401 646 L 400 631 L 399 630 L 396 632 L 394 631 L 394 628 L 393 627 L 394 611 L 390 611 L 389 610 L 389 606 L 390 605 L 390 594 L 387 595 L 385 594 L 383 588 L 383 584 L 379 575 L 379 572 L 382 571 L 386 567 L 386 565 L 384 563 L 381 562 L 375 564 L 366 564 L 365 565 L 344 564 L 339 562 L 329 561 L 315 556 L 311 556 L 309 558 L 309 560 L 312 563 L 322 568 L 334 572 L 337 572 L 340 575 L 337 584 L 337 596 L 335 598 L 332 595 L 330 596 L 332 620 L 331 621 L 331 628 L 328 629 L 326 627 L 324 630 L 325 637 L 326 638 L 326 657 L 324 661 L 319 666 L 317 666 L 311 669 L 307 669 L 306 670 L 294 671 L 293 672 L 288 672 L 287 673 L 269 674 L 268 675 L 243 675 L 240 672 L 240 661 L 242 657 L 242 653 L 241 652 L 237 652 L 234 655 L 231 662 L 231 671 L 229 673 L 225 673 L 224 672 L 220 672 L 215 668 L 215 660 L 216 659 L 217 653 L 219 650 L 217 647 L 215 647 L 209 652 L 208 658 L 207 659 L 207 666 L 204 668 L 199 662 L 199 651 L 203 640 L 207 636 L 214 632 L 220 630 L 224 630 L 225 629 L 241 629 L 242 630 L 247 630 L 252 632 L 255 631 L 253 629 L 245 626 L 238 626 L 234 622 L 232 616 L 232 613 L 231 612 L 231 609 L 230 608 L 229 597 L 227 594 L 227 585 L 224 582 L 227 568 L 225 567 L 221 570 L 219 568 L 220 561 L 223 554 L 223 551 L 227 542 L 226 540 L 224 540 L 221 542 L 219 540 L 223 532 L 224 527 L 226 525 L 226 522 L 225 521 L 222 522 L 220 520 L 226 509 L 227 505 L 228 504 L 233 505 L 234 504 L 234 500 L 228 487 L 227 477 L 225 474 L 222 476 L 220 475 L 220 462 L 221 461 L 221 454 L 222 452 L 220 451 L 216 454 L 215 453 L 215 448 L 216 447 L 217 439 L 222 426 L 222 423 L 220 422 L 216 425 L 214 423 L 214 420 L 222 404 L 228 396 L 228 393 L 227 392 L 221 394 L 219 391 L 235 371 L 233 368 L 229 369 L 227 366 L 237 352 L 237 347 L 244 327 L 244 321 L 243 320 L 239 320 L 236 323 L 232 333 L 229 336 L 221 332 L 216 331 L 213 328 L 213 327 L 216 325 L 215 322 L 213 321 L 203 320 L 198 318 L 195 315 L 199 311 L 198 308 L 187 305 L 177 300 L 175 300 L 171 296 L 173 294 L 179 293 L 180 290 L 176 287 L 174 287 L 164 282 L 153 273 L 151 270 L 153 268 L 159 268 L 160 265 L 146 251 L 136 236 L 132 228 L 132 226 L 128 218 L 125 209 L 125 206 L 124 205 L 124 201 L 123 200 L 122 191 L 121 190 L 121 181 L 120 180 L 120 177 L 113 169 L 103 152 L 103 150 L 99 143 L 97 137 L 96 127 L 101 121 L 111 122 L 115 117 L 118 120 L 119 123 L 123 126 L 128 126 L 132 122 L 132 111 L 130 106 L 126 102 L 122 101 L 117 103 L 115 105 L 112 103 L 113 99 L 120 93 L 124 93 L 131 99 L 135 104 L 137 113 L 139 113 L 142 110 L 147 114 L 153 114 L 155 113 L 158 110 L 158 104 L 154 94 L 154 90 L 152 87 L 149 85 L 146 85 L 142 88 L 140 87 L 141 82 L 146 77 L 153 77 L 159 83 L 161 88 L 162 102 L 163 103 L 164 109 L 167 109 L 173 116 L 177 118 L 181 117 L 184 113 L 184 99 L 183 98 L 182 92 L 179 89 L 177 89 L 175 87 L 175 85 L 179 82 L 183 82 L 187 86 L 188 89 L 188 93 L 189 94 L 189 112 L 190 114 L 193 116 L 202 109 L 208 109 L 213 115 L 213 123 L 212 124 L 212 127 L 211 128 L 211 131 L 209 137 L 206 143 L 200 150 L 199 155 L 206 166 L 206 168 L 213 181 L 213 183 L 216 189 L 219 192 L 221 192 L 223 189 L 225 191 L 229 205 L 233 214 L 235 216 L 237 213 L 239 212 L 243 216 L 247 228 L 250 230 L 252 227 L 254 227 L 258 234 L 260 240 L 261 241 L 263 238 L 265 237 L 270 245 L 273 248 L 275 248 L 277 246 L 278 242 L 276 237 L 271 230 L 263 221 L 261 221 L 256 216 L 254 210 L 250 214 L 247 211 L 244 203 L 244 191 L 242 190 L 240 192 L 238 192 L 236 190 L 236 181 L 238 175 L 238 170 L 236 169 L 233 171 L 231 169 L 232 163 L 234 161 L 235 157 L 238 153 L 238 150 L 237 149 L 231 150 L 229 148 L 229 146 L 241 132 L 239 128 L 239 124 L 241 121 L 243 114 L 248 105 L 248 101 L 247 100 L 244 100 L 242 98 L 239 97 L 231 89 L 227 80 L 227 68 L 228 67 L 228 63 L 232 55 L 240 47 L 247 43 L 253 41 L 265 41 L 268 43 L 270 43 L 276 47 L 282 55 L 285 55 L 292 49 L 302 44 L 307 43 L 311 38 L 314 37 L 329 37 L 331 35 L 330 31 L 328 29 L 328 26 L 329 25 L 333 25 L 342 29 L 346 32 L 348 32 L 356 23 L 360 21 L 363 23 L 361 28 L 361 31 L 362 32 L 365 32 L 366 31 L 384 31 L 385 32 L 390 32 L 391 33 L 400 34 L 407 37 L 410 37 L 411 36 L 412 30 L 417 23 L 426 16 L 434 13 L 438 13 L 439 12 L 441 13 Z M 457 6 L 451 4 L 444 4 L 443 3 L 437 3 L 436 4 L 427 5 L 424 7 L 420 8 L 414 12 L 408 18 L 406 22 L 403 25 L 395 24 L 394 23 L 389 23 L 388 22 L 373 22 L 367 14 L 362 12 L 354 14 L 347 20 L 343 20 L 338 17 L 335 17 L 334 16 L 326 16 L 321 20 L 320 22 L 320 27 L 318 29 L 308 30 L 292 38 L 287 42 L 285 42 L 278 36 L 265 31 L 254 31 L 239 36 L 230 42 L 224 49 L 218 60 L 217 66 L 216 67 L 216 80 L 217 81 L 218 87 L 225 99 L 230 104 L 235 107 L 235 110 L 229 122 L 229 132 L 222 139 L 221 139 L 220 137 L 223 128 L 223 114 L 220 105 L 217 102 L 213 100 L 202 99 L 200 97 L 199 88 L 197 85 L 197 83 L 195 79 L 189 73 L 184 71 L 180 71 L 171 76 L 166 76 L 159 69 L 155 67 L 147 67 L 138 71 L 128 83 L 126 84 L 117 84 L 110 88 L 103 96 L 103 99 L 102 100 L 102 108 L 99 111 L 94 113 L 87 121 L 86 135 L 87 136 L 87 139 L 88 140 L 88 143 L 90 149 L 97 164 L 107 179 L 110 182 L 112 203 L 113 204 L 114 212 L 118 224 L 127 243 L 141 261 L 140 264 L 140 270 L 143 277 L 151 285 L 156 288 L 160 292 L 161 300 L 166 306 L 173 310 L 180 312 L 183 315 L 184 320 L 191 326 L 198 328 L 202 334 L 206 337 L 217 342 L 225 344 L 227 346 L 227 348 L 218 366 L 218 373 L 219 376 L 211 387 L 211 389 L 209 392 L 209 396 L 210 399 L 212 401 L 212 404 L 207 413 L 205 419 L 205 430 L 209 435 L 207 445 L 206 446 L 206 459 L 208 464 L 210 466 L 210 475 L 211 476 L 212 482 L 214 486 L 220 492 L 215 509 L 212 514 L 210 520 L 210 524 L 213 528 L 213 530 L 210 535 L 209 543 L 210 546 L 213 549 L 213 552 L 210 559 L 209 568 L 211 574 L 215 577 L 215 589 L 216 590 L 216 594 L 217 595 L 218 605 L 219 606 L 219 610 L 220 611 L 221 618 L 218 621 L 211 622 L 198 630 L 193 636 L 188 647 L 188 663 L 191 669 L 196 674 L 204 678 L 210 679 L 211 680 L 215 680 L 220 682 L 235 683 L 236 684 L 274 684 L 275 683 L 292 682 L 293 681 L 298 681 L 299 680 L 304 680 L 305 679 L 314 678 L 327 673 L 334 666 L 337 659 L 337 639 L 340 635 L 342 630 L 342 626 L 343 625 L 343 606 L 347 602 L 348 599 L 348 590 L 350 584 L 350 577 L 352 575 L 355 575 L 356 576 L 368 576 L 370 578 L 370 581 L 372 585 L 374 596 L 378 605 L 381 608 L 383 628 L 387 638 L 390 641 L 390 647 L 388 653 L 388 669 L 391 676 L 394 680 L 399 684 L 414 690 L 418 690 L 419 691 L 428 692 L 429 693 L 440 693 L 441 694 L 475 694 L 476 693 L 487 693 L 488 692 L 499 691 L 500 690 L 503 690 L 504 689 L 507 689 L 513 687 L 520 683 L 527 675 L 529 669 L 529 655 L 527 649 L 521 640 L 512 633 L 512 629 L 514 623 L 514 616 L 515 615 L 515 602 L 516 601 L 515 583 L 518 581 L 520 578 L 519 565 L 515 557 L 515 555 L 519 549 L 518 541 L 514 532 L 514 530 L 516 528 L 516 525 L 517 524 L 515 514 L 516 513 L 519 513 L 523 515 L 531 515 L 534 514 L 540 517 L 548 517 L 549 516 L 552 516 L 558 514 L 566 510 L 568 510 L 576 505 L 586 495 L 594 479 L 594 476 L 597 467 L 597 447 L 596 446 L 596 443 L 598 441 L 599 435 L 598 434 L 598 428 L 596 424 L 596 421 L 592 413 L 592 411 L 594 408 L 594 400 L 589 389 L 586 385 L 586 382 L 588 378 L 584 369 L 576 359 L 576 356 L 579 352 L 576 343 L 559 326 L 560 317 L 558 313 L 550 305 L 545 302 L 540 297 L 541 295 L 541 290 L 540 288 L 529 279 L 529 275 L 528 273 L 523 268 L 514 262 L 515 257 L 512 252 L 504 246 L 493 241 L 490 238 L 490 234 L 489 232 L 481 223 L 487 212 L 488 207 L 495 199 L 497 185 L 503 178 L 504 171 L 503 170 L 503 165 L 501 162 L 501 160 L 505 156 L 506 149 L 502 139 L 499 136 L 499 134 L 503 129 L 503 123 L 501 119 L 491 110 L 491 105 L 488 99 L 474 77 L 475 74 L 482 66 L 487 53 L 487 41 L 486 40 L 485 33 L 479 22 L 470 13 Z M 216 146 L 219 147 L 221 154 L 225 158 L 225 160 L 223 162 L 223 164 L 221 167 L 217 164 L 212 155 L 212 152 Z M 458 7 L 469 13 L 479 23 L 485 34 L 486 43 L 487 44 L 487 52 L 485 56 L 485 59 L 480 68 L 474 75 L 474 78 L 478 83 L 483 93 L 488 100 L 490 104 L 490 109 L 491 111 L 501 120 L 503 124 L 503 128 L 498 134 L 505 146 L 505 155 L 501 160 L 501 163 L 503 167 L 503 177 L 500 182 L 496 186 L 496 194 L 495 195 L 495 198 L 488 206 L 486 213 L 481 221 L 481 224 L 489 233 L 490 235 L 490 239 L 492 241 L 503 246 L 513 254 L 514 256 L 513 262 L 521 267 L 528 274 L 528 279 L 531 282 L 535 284 L 541 290 L 540 298 L 548 304 L 560 317 L 560 321 L 558 324 L 558 326 L 569 337 L 570 337 L 577 345 L 578 347 L 578 354 L 575 358 L 581 365 L 587 376 L 587 380 L 585 384 L 589 390 L 594 401 L 594 407 L 592 410 L 592 414 L 594 417 L 597 426 L 597 430 L 598 431 L 598 439 L 596 442 L 596 448 L 597 449 L 597 464 L 596 465 L 595 474 L 589 490 L 579 502 L 572 507 L 564 511 L 562 511 L 557 514 L 551 516 L 546 516 L 545 517 L 543 516 L 538 516 L 535 514 L 525 515 L 515 511 L 514 512 L 515 518 L 516 519 L 516 527 L 513 530 L 513 532 L 516 537 L 518 543 L 518 550 L 514 554 L 514 556 L 517 561 L 519 567 L 520 577 L 514 584 L 515 586 L 515 608 L 514 609 L 514 619 L 513 620 L 513 625 L 512 626 L 511 633 L 517 637 L 522 642 L 528 653 L 528 657 L 529 658 L 529 667 L 528 668 L 528 671 L 525 677 L 519 683 L 514 686 L 505 689 L 497 690 L 496 691 L 482 692 L 481 693 L 455 693 L 454 694 L 452 693 L 435 693 L 434 692 L 420 691 L 416 689 L 406 687 L 400 684 L 392 677 L 388 668 L 388 655 L 389 654 L 389 650 L 390 649 L 391 642 L 387 637 L 384 630 L 383 621 L 382 620 L 382 609 L 376 600 L 370 577 L 368 575 L 352 575 L 350 577 L 350 582 L 348 588 L 348 598 L 346 603 L 342 607 L 342 629 L 339 636 L 337 638 L 337 656 L 336 657 L 336 660 L 334 665 L 326 673 L 308 679 L 303 679 L 302 680 L 297 680 L 296 681 L 290 681 L 289 682 L 264 683 L 263 684 L 230 683 L 229 682 L 217 681 L 216 680 L 208 679 L 202 677 L 197 674 L 191 668 L 188 661 L 188 649 L 193 637 L 199 630 L 210 623 L 220 621 L 221 620 L 221 613 L 219 608 L 217 592 L 215 587 L 215 576 L 211 573 L 209 568 L 210 560 L 213 552 L 213 548 L 210 545 L 209 542 L 210 536 L 213 531 L 213 527 L 211 525 L 210 522 L 220 495 L 220 491 L 214 485 L 212 481 L 211 475 L 210 474 L 210 465 L 208 463 L 206 458 L 206 447 L 209 438 L 209 434 L 205 430 L 205 419 L 213 403 L 213 401 L 210 398 L 209 393 L 212 386 L 219 377 L 218 367 L 221 361 L 221 359 L 227 350 L 228 346 L 226 344 L 220 343 L 205 336 L 201 332 L 201 330 L 199 328 L 188 324 L 184 320 L 183 318 L 183 314 L 181 312 L 168 307 L 162 301 L 160 295 L 160 291 L 157 288 L 153 286 L 143 276 L 140 269 L 141 260 L 133 251 L 127 242 L 118 223 L 114 211 L 114 208 L 113 207 L 110 181 L 99 166 L 90 148 L 90 145 L 87 137 L 87 123 L 89 119 L 95 113 L 103 109 L 103 98 L 106 92 L 115 85 L 118 84 L 129 84 L 132 78 L 140 70 L 148 67 L 154 67 L 158 69 L 166 77 L 170 77 L 178 72 L 186 72 L 193 77 L 197 84 L 198 90 L 199 91 L 199 99 L 200 100 L 202 99 L 212 100 L 216 102 L 221 108 L 222 116 L 223 117 L 222 129 L 221 130 L 219 140 L 217 144 L 212 150 L 212 156 L 217 164 L 221 174 L 222 174 L 222 167 L 223 166 L 223 163 L 225 160 L 225 157 L 220 151 L 220 144 L 224 138 L 230 132 L 229 124 L 231 118 L 236 110 L 236 107 L 231 104 L 225 98 L 220 91 L 216 79 L 216 68 L 220 56 L 222 54 L 223 51 L 227 46 L 235 39 L 242 35 L 248 33 L 251 33 L 256 31 L 260 31 L 261 32 L 267 32 L 277 36 L 284 42 L 287 42 L 307 31 L 314 30 L 315 29 L 319 29 L 320 28 L 320 23 L 321 21 L 327 16 L 332 16 L 333 17 L 339 18 L 344 21 L 347 21 L 355 14 L 358 13 L 365 13 L 369 16 L 372 22 L 385 22 L 386 23 L 391 23 L 392 24 L 404 25 L 408 19 L 415 12 L 423 7 L 429 5 L 432 5 L 433 4 L 448 4 L 449 5 L 452 5 Z" fill="#B1B1B1" fill-rule="evenodd"/><path d="M 463 635 L 463 636 L 472 636 L 472 635 Z M 276 142 L 274 154 L 275 155 L 275 159 L 277 163 L 284 170 L 285 170 L 287 172 L 292 173 L 296 177 L 296 182 L 297 183 L 297 186 L 299 189 L 299 191 L 301 195 L 305 200 L 306 203 L 313 211 L 313 212 L 324 223 L 329 226 L 331 226 L 332 225 L 325 218 L 322 213 L 322 205 L 324 201 L 326 199 L 326 198 L 336 188 L 348 182 L 361 182 L 368 186 L 371 189 L 373 193 L 373 198 L 372 199 L 370 207 L 365 217 L 366 217 L 369 214 L 374 205 L 374 203 L 376 199 L 377 191 L 378 190 L 378 187 L 379 186 L 379 180 L 380 179 L 380 162 L 379 161 L 379 155 L 378 154 L 377 150 L 375 148 L 373 148 L 371 152 L 363 160 L 353 165 L 351 165 L 344 168 L 327 168 L 326 167 L 322 167 L 321 166 L 317 166 L 316 165 L 309 165 L 302 170 L 296 171 L 295 170 L 292 170 L 288 168 L 281 161 L 279 157 L 279 144 L 280 143 L 280 141 L 278 140 Z M 333 130 L 330 127 L 324 124 L 321 124 L 317 122 L 307 122 L 306 123 L 301 123 L 300 124 L 298 124 L 291 127 L 286 132 L 286 140 L 288 144 L 294 150 L 300 153 L 303 153 L 304 154 L 310 154 L 311 153 L 317 152 L 323 149 L 332 141 L 334 137 L 334 132 Z M 293 101 L 289 101 L 286 104 L 284 108 L 284 110 L 283 111 L 283 120 L 285 123 L 289 123 L 295 117 L 296 115 L 296 111 L 297 110 L 297 108 L 296 107 L 296 104 Z M 373 94 L 371 96 L 368 103 L 368 112 L 369 113 L 369 115 L 372 119 L 374 120 L 379 120 L 382 118 L 384 114 L 384 109 L 385 108 L 384 106 L 384 101 L 382 97 L 379 94 Z M 301 63 L 300 62 L 295 62 L 291 64 L 285 70 L 284 74 L 285 75 L 287 75 L 294 69 L 300 67 L 301 66 Z M 368 53 L 368 55 L 371 57 L 374 57 L 377 59 L 379 59 L 383 61 L 385 63 L 387 63 L 389 61 L 388 58 L 385 55 L 380 52 L 377 52 L 376 51 L 371 51 Z M 458 8 L 456 8 L 452 6 L 449 6 L 448 5 L 433 5 L 432 6 L 429 6 L 428 7 L 423 8 L 415 13 L 409 19 L 407 23 L 404 26 L 392 25 L 391 24 L 386 24 L 385 23 L 372 23 L 370 21 L 368 16 L 365 14 L 358 14 L 357 15 L 355 15 L 353 16 L 347 22 L 344 22 L 336 18 L 333 18 L 332 17 L 327 17 L 322 21 L 321 23 L 321 28 L 319 30 L 315 30 L 314 31 L 310 31 L 309 32 L 307 32 L 293 39 L 291 41 L 287 43 L 284 43 L 277 37 L 273 35 L 271 35 L 267 33 L 261 33 L 260 32 L 256 32 L 255 33 L 248 34 L 247 35 L 242 36 L 238 39 L 235 40 L 232 43 L 231 43 L 224 51 L 223 54 L 221 56 L 221 58 L 219 61 L 218 67 L 217 68 L 217 79 L 218 80 L 218 83 L 219 84 L 221 91 L 226 97 L 226 98 L 231 103 L 232 103 L 237 107 L 237 110 L 235 112 L 230 124 L 230 129 L 231 130 L 231 132 L 225 138 L 225 139 L 221 144 L 221 151 L 226 157 L 226 160 L 224 163 L 224 166 L 223 167 L 223 174 L 222 175 L 220 174 L 219 170 L 211 156 L 211 150 L 216 144 L 218 140 L 219 134 L 220 133 L 220 130 L 221 129 L 222 117 L 221 116 L 221 111 L 220 110 L 220 108 L 216 103 L 212 101 L 209 101 L 208 100 L 202 100 L 200 101 L 198 99 L 198 91 L 197 90 L 196 84 L 193 80 L 192 77 L 186 73 L 178 73 L 170 78 L 166 78 L 158 70 L 154 68 L 148 68 L 147 69 L 140 71 L 133 78 L 131 83 L 129 85 L 118 85 L 117 86 L 115 86 L 113 88 L 109 90 L 105 95 L 105 97 L 104 98 L 104 109 L 102 111 L 95 114 L 90 119 L 88 123 L 88 137 L 89 138 L 89 141 L 91 145 L 91 148 L 100 166 L 102 168 L 108 178 L 111 181 L 111 183 L 112 184 L 112 195 L 113 196 L 114 207 L 115 208 L 115 211 L 116 212 L 119 223 L 122 228 L 122 230 L 128 242 L 130 244 L 134 251 L 142 260 L 141 269 L 144 276 L 153 285 L 157 287 L 161 291 L 162 299 L 168 306 L 174 309 L 179 310 L 184 314 L 184 318 L 188 323 L 199 327 L 202 330 L 202 332 L 205 335 L 220 342 L 226 343 L 229 346 L 228 350 L 225 354 L 224 357 L 222 359 L 222 361 L 219 367 L 220 377 L 213 386 L 210 393 L 211 398 L 214 401 L 214 403 L 206 419 L 206 430 L 210 434 L 210 438 L 209 439 L 209 441 L 208 442 L 208 446 L 207 447 L 207 458 L 208 459 L 209 463 L 211 465 L 211 474 L 212 475 L 213 481 L 215 485 L 221 491 L 221 495 L 220 496 L 216 510 L 213 515 L 212 521 L 211 522 L 212 525 L 214 527 L 214 531 L 211 536 L 210 542 L 211 543 L 211 545 L 214 548 L 214 552 L 212 556 L 210 568 L 211 569 L 212 573 L 216 576 L 216 587 L 217 588 L 217 591 L 218 592 L 219 603 L 220 604 L 220 608 L 221 609 L 221 612 L 222 613 L 222 620 L 220 622 L 217 622 L 216 623 L 210 624 L 206 627 L 203 628 L 197 633 L 191 643 L 191 645 L 189 649 L 189 661 L 192 668 L 197 673 L 202 676 L 204 676 L 208 678 L 216 679 L 217 680 L 229 681 L 230 682 L 243 682 L 244 683 L 263 683 L 264 682 L 280 682 L 281 681 L 289 681 L 290 680 L 296 680 L 297 679 L 308 678 L 309 677 L 316 676 L 317 675 L 319 675 L 326 672 L 333 665 L 334 661 L 335 660 L 335 657 L 336 656 L 336 638 L 338 636 L 341 629 L 341 607 L 346 601 L 346 599 L 347 598 L 347 588 L 348 587 L 348 583 L 349 582 L 349 577 L 352 574 L 368 574 L 371 577 L 377 600 L 379 604 L 383 609 L 383 620 L 384 621 L 384 626 L 385 627 L 385 630 L 388 637 L 392 642 L 392 645 L 391 646 L 391 649 L 390 650 L 390 654 L 389 655 L 389 668 L 393 677 L 400 683 L 406 686 L 409 686 L 410 687 L 416 688 L 420 690 L 434 691 L 435 692 L 452 692 L 453 693 L 455 692 L 481 692 L 482 691 L 496 690 L 497 689 L 505 688 L 506 687 L 514 685 L 519 682 L 524 677 L 527 671 L 527 668 L 528 667 L 528 658 L 527 657 L 527 653 L 521 642 L 517 638 L 516 638 L 510 633 L 510 631 L 511 630 L 511 626 L 512 625 L 512 620 L 513 619 L 513 609 L 514 608 L 514 586 L 513 584 L 519 577 L 519 571 L 518 570 L 518 567 L 517 566 L 516 561 L 513 556 L 513 554 L 517 550 L 517 543 L 516 542 L 515 537 L 512 532 L 512 530 L 515 527 L 515 519 L 514 518 L 513 512 L 515 510 L 516 511 L 518 511 L 521 513 L 524 513 L 525 514 L 528 514 L 529 513 L 535 513 L 538 515 L 543 515 L 545 516 L 546 515 L 551 515 L 552 514 L 557 513 L 562 510 L 564 510 L 572 506 L 578 501 L 579 501 L 588 490 L 590 486 L 593 475 L 594 474 L 594 471 L 595 470 L 595 465 L 596 464 L 596 449 L 595 448 L 595 442 L 597 439 L 597 431 L 596 430 L 596 426 L 595 425 L 593 417 L 591 414 L 591 410 L 593 407 L 593 401 L 588 390 L 586 388 L 584 384 L 586 380 L 586 376 L 582 368 L 574 358 L 574 357 L 577 354 L 577 347 L 576 345 L 571 340 L 571 339 L 569 338 L 557 326 L 557 324 L 559 321 L 559 317 L 557 315 L 557 314 L 548 305 L 547 305 L 539 298 L 540 290 L 535 285 L 531 283 L 527 279 L 527 274 L 521 268 L 520 268 L 512 262 L 512 260 L 513 259 L 513 256 L 512 254 L 503 247 L 492 242 L 489 239 L 489 235 L 488 233 L 480 224 L 480 221 L 485 213 L 487 206 L 493 200 L 494 198 L 494 195 L 495 194 L 495 186 L 499 182 L 502 177 L 502 167 L 500 163 L 500 160 L 504 155 L 504 146 L 501 140 L 497 135 L 497 134 L 502 128 L 502 124 L 500 120 L 490 111 L 489 109 L 489 104 L 487 100 L 482 93 L 477 83 L 473 78 L 473 75 L 481 65 L 484 59 L 484 56 L 486 52 L 486 44 L 485 43 L 485 38 L 484 37 L 484 34 L 478 23 L 469 14 Z M 455 14 L 459 17 L 462 18 L 472 28 L 477 38 L 478 50 L 477 51 L 476 57 L 472 65 L 463 73 L 463 76 L 468 82 L 476 97 L 483 106 L 483 109 L 479 112 L 481 114 L 484 115 L 486 117 L 490 119 L 495 124 L 495 126 L 493 128 L 491 129 L 489 129 L 488 128 L 483 128 L 483 130 L 490 137 L 490 138 L 494 142 L 495 145 L 497 147 L 497 151 L 495 153 L 492 153 L 489 151 L 487 152 L 488 155 L 490 157 L 493 163 L 493 165 L 495 169 L 495 174 L 493 176 L 491 176 L 487 173 L 486 174 L 487 175 L 487 178 L 488 179 L 488 193 L 485 196 L 483 196 L 482 195 L 480 196 L 480 202 L 479 203 L 478 208 L 474 216 L 472 218 L 470 222 L 466 226 L 466 227 L 467 228 L 471 228 L 473 230 L 472 235 L 477 236 L 480 239 L 478 241 L 476 241 L 477 243 L 481 245 L 483 245 L 492 250 L 494 250 L 500 253 L 502 255 L 502 256 L 500 258 L 497 258 L 495 259 L 496 261 L 498 261 L 500 263 L 503 264 L 505 266 L 518 274 L 521 277 L 521 279 L 519 281 L 514 281 L 514 282 L 516 284 L 529 290 L 533 294 L 530 297 L 526 297 L 525 298 L 529 300 L 532 303 L 533 303 L 543 311 L 544 311 L 551 318 L 551 319 L 549 321 L 542 321 L 542 322 L 569 347 L 569 350 L 568 351 L 562 350 L 561 349 L 559 350 L 578 375 L 578 376 L 576 378 L 574 378 L 573 377 L 571 378 L 578 388 L 585 401 L 585 402 L 583 404 L 580 404 L 580 405 L 583 411 L 584 418 L 585 419 L 585 421 L 586 422 L 586 424 L 589 431 L 589 435 L 585 438 L 586 440 L 586 445 L 587 446 L 587 463 L 586 464 L 585 473 L 584 474 L 582 482 L 577 491 L 570 498 L 567 499 L 565 497 L 567 493 L 567 484 L 565 484 L 563 492 L 559 500 L 555 504 L 551 506 L 549 506 L 548 507 L 542 507 L 539 504 L 539 502 L 543 495 L 543 491 L 544 490 L 544 487 L 542 485 L 539 490 L 539 492 L 537 496 L 532 502 L 526 505 L 523 505 L 522 504 L 517 503 L 510 496 L 510 493 L 513 489 L 515 485 L 516 480 L 517 479 L 517 471 L 516 470 L 514 471 L 510 481 L 505 486 L 501 486 L 497 484 L 493 480 L 490 474 L 490 470 L 489 469 L 489 461 L 490 460 L 491 452 L 492 451 L 493 446 L 495 443 L 495 438 L 494 437 L 494 434 L 493 433 L 493 428 L 492 427 L 492 423 L 491 422 L 491 419 L 490 418 L 490 415 L 489 414 L 487 403 L 485 399 L 485 396 L 484 395 L 483 390 L 479 382 L 478 377 L 470 361 L 466 356 L 463 350 L 458 345 L 457 346 L 458 351 L 467 368 L 467 370 L 472 379 L 472 381 L 474 384 L 476 392 L 478 395 L 478 398 L 479 399 L 479 402 L 480 403 L 480 406 L 481 407 L 481 410 L 482 411 L 482 414 L 483 415 L 484 424 L 485 425 L 485 428 L 486 429 L 486 433 L 487 434 L 487 437 L 488 438 L 488 442 L 486 445 L 486 447 L 483 454 L 483 458 L 482 459 L 482 472 L 483 473 L 483 476 L 489 488 L 495 493 L 497 494 L 500 494 L 503 497 L 503 500 L 504 501 L 504 506 L 505 507 L 505 511 L 506 512 L 506 516 L 507 517 L 507 521 L 505 523 L 502 523 L 502 525 L 505 531 L 505 533 L 508 538 L 510 545 L 508 547 L 506 547 L 502 544 L 500 545 L 506 556 L 506 558 L 510 566 L 511 571 L 509 573 L 506 572 L 504 570 L 503 571 L 507 578 L 507 582 L 505 584 L 505 589 L 506 590 L 506 606 L 505 607 L 505 617 L 504 618 L 504 624 L 503 625 L 502 632 L 499 635 L 499 637 L 503 640 L 507 641 L 516 650 L 518 654 L 518 657 L 519 658 L 519 669 L 518 670 L 518 672 L 511 679 L 506 680 L 504 678 L 504 676 L 505 675 L 505 671 L 504 670 L 504 666 L 503 665 L 503 663 L 499 659 L 498 659 L 497 660 L 497 665 L 498 666 L 498 679 L 495 682 L 493 683 L 489 683 L 488 684 L 480 684 L 478 682 L 478 668 L 477 667 L 476 663 L 473 661 L 472 661 L 470 663 L 470 666 L 471 667 L 471 673 L 472 674 L 472 682 L 469 685 L 448 685 L 446 683 L 446 668 L 445 667 L 445 664 L 444 663 L 441 663 L 439 666 L 439 676 L 440 677 L 440 683 L 438 685 L 435 685 L 434 684 L 426 684 L 425 683 L 420 683 L 416 681 L 410 680 L 404 677 L 399 672 L 397 668 L 397 653 L 398 652 L 398 649 L 399 648 L 399 633 L 398 632 L 396 634 L 394 634 L 393 633 L 393 631 L 392 630 L 392 615 L 388 612 L 388 600 L 389 599 L 389 597 L 388 596 L 386 598 L 383 595 L 382 586 L 381 585 L 380 580 L 377 575 L 377 572 L 379 570 L 381 570 L 384 567 L 384 565 L 383 564 L 379 564 L 378 565 L 372 565 L 371 566 L 366 566 L 365 567 L 356 567 L 355 566 L 349 566 L 348 565 L 341 565 L 340 564 L 336 564 L 335 563 L 327 562 L 326 561 L 320 560 L 319 559 L 316 559 L 315 558 L 312 558 L 311 560 L 316 564 L 320 566 L 331 569 L 332 570 L 339 571 L 341 573 L 340 583 L 338 586 L 338 598 L 336 600 L 335 600 L 333 598 L 332 599 L 332 605 L 333 606 L 333 629 L 331 632 L 326 631 L 326 633 L 327 634 L 327 641 L 328 642 L 328 654 L 327 655 L 326 661 L 324 663 L 324 664 L 321 667 L 317 669 L 311 670 L 310 671 L 306 671 L 305 672 L 300 672 L 299 673 L 284 674 L 283 675 L 275 675 L 274 676 L 241 676 L 239 674 L 239 672 L 238 671 L 238 668 L 239 667 L 239 661 L 240 660 L 241 654 L 240 653 L 238 653 L 235 656 L 233 663 L 232 664 L 232 669 L 233 670 L 233 673 L 232 674 L 222 674 L 221 673 L 218 673 L 214 670 L 214 659 L 215 658 L 215 655 L 217 651 L 216 649 L 214 649 L 209 655 L 209 659 L 208 660 L 208 665 L 209 666 L 209 668 L 207 670 L 205 670 L 199 665 L 198 663 L 198 660 L 197 659 L 197 654 L 198 653 L 199 646 L 202 640 L 209 633 L 215 630 L 218 630 L 219 629 L 222 629 L 223 628 L 231 628 L 235 626 L 231 618 L 231 614 L 230 613 L 230 610 L 229 609 L 229 606 L 228 605 L 228 599 L 226 595 L 226 587 L 222 584 L 225 570 L 224 569 L 222 571 L 219 571 L 218 570 L 218 564 L 219 563 L 219 560 L 220 559 L 221 553 L 222 552 L 222 550 L 225 543 L 223 542 L 219 544 L 217 542 L 218 538 L 223 528 L 223 526 L 225 524 L 224 523 L 220 524 L 218 522 L 218 521 L 225 508 L 226 502 L 227 501 L 232 502 L 232 499 L 229 493 L 229 491 L 227 488 L 225 478 L 221 479 L 219 477 L 219 475 L 218 474 L 218 469 L 219 468 L 219 459 L 220 458 L 220 455 L 219 454 L 216 457 L 214 455 L 214 446 L 215 445 L 217 434 L 221 425 L 220 424 L 214 427 L 212 425 L 212 422 L 221 403 L 227 395 L 226 394 L 224 394 L 223 395 L 219 395 L 217 393 L 217 392 L 220 387 L 224 383 L 224 382 L 233 371 L 232 370 L 230 371 L 227 371 L 225 369 L 225 367 L 230 359 L 235 353 L 235 351 L 236 350 L 236 345 L 237 344 L 237 342 L 238 341 L 238 339 L 239 338 L 239 336 L 240 335 L 240 333 L 243 326 L 243 323 L 242 322 L 239 322 L 234 331 L 234 333 L 230 337 L 228 337 L 222 334 L 220 334 L 219 333 L 212 331 L 210 329 L 210 328 L 214 324 L 213 323 L 201 321 L 198 319 L 194 318 L 192 316 L 192 314 L 197 310 L 194 308 L 180 304 L 173 300 L 169 296 L 169 295 L 172 292 L 177 292 L 178 291 L 162 283 L 150 272 L 149 268 L 151 266 L 157 267 L 158 265 L 142 248 L 142 247 L 136 239 L 129 225 L 129 223 L 127 220 L 127 218 L 124 211 L 123 204 L 122 203 L 121 193 L 120 192 L 120 186 L 119 185 L 119 179 L 116 174 L 109 166 L 102 153 L 102 151 L 99 147 L 99 145 L 96 139 L 96 135 L 95 134 L 95 127 L 96 126 L 96 124 L 101 120 L 106 120 L 107 121 L 110 121 L 111 120 L 110 103 L 111 102 L 112 98 L 119 92 L 126 92 L 135 101 L 135 102 L 137 104 L 137 106 L 138 106 L 138 99 L 137 98 L 137 87 L 138 86 L 139 82 L 146 76 L 153 76 L 160 82 L 162 86 L 162 89 L 163 90 L 163 94 L 164 95 L 164 102 L 165 103 L 169 96 L 170 89 L 173 84 L 177 81 L 184 81 L 188 85 L 189 91 L 190 92 L 190 104 L 191 105 L 191 113 L 193 114 L 201 108 L 209 108 L 214 114 L 214 127 L 213 128 L 213 131 L 208 143 L 201 151 L 201 156 L 203 158 L 205 163 L 207 165 L 211 173 L 211 175 L 215 182 L 215 184 L 217 188 L 219 190 L 222 187 L 223 187 L 226 190 L 226 192 L 227 193 L 227 195 L 228 196 L 228 198 L 231 204 L 233 211 L 235 212 L 238 209 L 243 214 L 246 220 L 248 227 L 249 228 L 251 225 L 253 225 L 257 229 L 260 237 L 262 237 L 262 235 L 264 233 L 270 241 L 271 244 L 273 246 L 275 246 L 276 245 L 276 240 L 269 231 L 269 230 L 265 226 L 265 225 L 263 223 L 258 221 L 256 219 L 255 215 L 254 214 L 252 215 L 249 215 L 246 212 L 246 210 L 244 208 L 244 205 L 243 204 L 243 194 L 242 193 L 238 194 L 235 191 L 235 179 L 236 178 L 236 174 L 237 172 L 236 171 L 234 173 L 232 173 L 229 169 L 231 162 L 233 158 L 235 156 L 236 151 L 229 152 L 227 150 L 227 147 L 232 141 L 232 140 L 239 133 L 239 130 L 238 129 L 238 123 L 243 113 L 243 111 L 247 104 L 247 103 L 245 101 L 243 101 L 241 99 L 238 98 L 230 90 L 226 81 L 226 78 L 225 77 L 226 65 L 231 54 L 242 44 L 246 42 L 248 42 L 251 40 L 255 40 L 256 39 L 262 39 L 263 40 L 266 40 L 267 41 L 271 42 L 273 44 L 274 44 L 283 54 L 284 54 L 293 47 L 301 43 L 306 42 L 311 36 L 317 36 L 318 35 L 328 35 L 329 34 L 329 32 L 326 28 L 326 25 L 328 23 L 332 23 L 333 24 L 335 24 L 343 28 L 345 30 L 347 30 L 355 22 L 361 19 L 362 19 L 364 21 L 364 25 L 363 26 L 362 30 L 368 30 L 369 29 L 381 29 L 382 30 L 388 30 L 389 31 L 398 32 L 399 33 L 401 33 L 402 34 L 409 36 L 410 35 L 410 31 L 413 26 L 416 23 L 416 22 L 423 16 L 427 14 L 429 14 L 432 12 L 436 12 L 437 11 L 449 12 L 450 13 Z" fill="#010101" fill-rule="evenodd"/></svg>