<svg xmlns="http://www.w3.org/2000/svg" viewBox="0 0 653 704" shape-rendering="geometricPrecision"><title>intro frame 041</title><path d="M 234 517 L 224 526 L 221 533 L 221 536 L 219 540 L 219 545 L 217 548 L 217 551 L 216 552 L 216 559 L 219 568 L 220 584 L 221 586 L 225 589 L 230 597 L 234 600 L 238 601 L 250 608 L 253 608 L 254 609 L 259 608 L 263 604 L 266 604 L 270 602 L 273 599 L 273 597 L 286 586 L 288 582 L 288 578 L 287 577 L 288 573 L 283 569 L 280 568 L 276 564 L 274 560 L 270 557 L 265 551 L 258 547 L 251 540 L 240 532 L 238 526 L 238 522 L 236 518 Z M 62 214 L 60 216 L 60 219 L 62 224 L 63 224 L 63 217 L 64 215 Z M 274 194 L 274 203 L 279 211 L 285 214 L 290 214 L 295 212 L 297 210 L 297 208 L 295 206 L 287 202 L 278 195 Z M 107 173 L 107 176 L 108 177 L 108 185 L 107 187 L 100 193 L 94 193 L 89 195 L 90 200 L 89 201 L 89 206 L 88 208 L 85 211 L 74 210 L 72 209 L 74 212 L 80 214 L 84 218 L 85 229 L 82 233 L 76 233 L 70 231 L 69 234 L 71 237 L 77 242 L 79 242 L 87 250 L 91 252 L 98 258 L 99 261 L 101 263 L 101 265 L 104 269 L 104 271 L 123 290 L 130 299 L 135 303 L 138 304 L 158 320 L 160 320 L 163 323 L 173 328 L 177 328 L 178 329 L 182 329 L 183 330 L 187 330 L 189 331 L 192 334 L 194 339 L 197 341 L 203 341 L 206 342 L 211 347 L 227 347 L 229 349 L 224 355 L 226 359 L 230 360 L 232 362 L 242 362 L 245 359 L 246 353 L 251 346 L 251 339 L 254 334 L 254 327 L 258 322 L 260 317 L 260 312 L 265 305 L 265 298 L 262 294 L 262 292 L 255 285 L 253 285 L 250 288 L 248 288 L 245 285 L 243 280 L 238 274 L 233 278 L 231 278 L 227 274 L 221 261 L 219 262 L 218 266 L 214 269 L 205 259 L 200 249 L 196 244 L 190 248 L 185 243 L 180 235 L 168 223 L 160 212 L 159 206 L 160 205 L 161 197 L 162 196 L 162 183 L 161 183 L 161 187 L 160 188 L 159 194 L 155 198 L 147 199 L 141 192 L 141 180 L 140 179 L 136 178 L 129 186 L 123 186 L 119 183 L 115 183 L 110 178 L 108 173 Z M 133 193 L 141 201 L 146 211 L 146 220 L 142 227 L 132 236 L 110 247 L 98 247 L 95 246 L 89 240 L 87 235 L 87 223 L 88 222 L 88 217 L 90 211 L 104 195 L 110 192 L 118 191 L 119 190 L 125 190 L 131 193 Z M 438 68 L 430 69 L 417 78 L 413 83 L 411 89 L 408 92 L 405 92 L 393 87 L 389 87 L 383 85 L 378 85 L 377 84 L 360 85 L 358 83 L 358 77 L 357 76 L 355 76 L 346 85 L 343 85 L 335 79 L 331 77 L 328 77 L 327 79 L 328 80 L 329 87 L 326 90 L 323 89 L 316 89 L 315 88 L 310 89 L 304 96 L 300 96 L 297 98 L 295 98 L 291 100 L 287 104 L 286 106 L 287 107 L 295 109 L 297 111 L 297 115 L 293 120 L 287 123 L 280 129 L 276 126 L 274 122 L 275 117 L 279 110 L 268 97 L 262 94 L 249 93 L 239 97 L 233 102 L 228 110 L 226 116 L 226 130 L 229 137 L 236 145 L 243 147 L 246 150 L 246 154 L 244 157 L 244 159 L 241 163 L 241 165 L 239 167 L 237 172 L 237 183 L 230 190 L 228 194 L 229 196 L 233 196 L 235 198 L 235 200 L 230 206 L 230 209 L 229 210 L 229 212 L 233 214 L 236 218 L 234 224 L 234 229 L 233 230 L 233 237 L 240 235 L 243 238 L 243 242 L 241 246 L 241 254 L 242 257 L 245 260 L 250 257 L 253 260 L 253 262 L 255 265 L 269 280 L 274 282 L 282 283 L 291 290 L 296 298 L 296 302 L 295 303 L 291 303 L 284 297 L 279 295 L 276 303 L 271 310 L 271 312 L 266 317 L 269 323 L 269 325 L 262 331 L 262 340 L 259 344 L 259 353 L 255 362 L 255 373 L 252 380 L 252 383 L 253 384 L 261 377 L 265 378 L 267 381 L 266 382 L 266 385 L 264 387 L 264 389 L 262 391 L 261 394 L 254 400 L 249 401 L 245 404 L 243 407 L 243 409 L 246 411 L 245 416 L 240 424 L 235 429 L 235 431 L 241 431 L 243 433 L 243 437 L 233 452 L 233 455 L 238 455 L 239 456 L 239 462 L 237 465 L 237 468 L 234 475 L 234 478 L 235 479 L 236 478 L 239 478 L 243 484 L 243 492 L 242 494 L 243 493 L 247 497 L 248 500 L 248 503 L 249 504 L 248 506 L 249 508 L 249 515 L 250 516 L 251 522 L 254 525 L 256 525 L 262 530 L 268 532 L 272 537 L 275 538 L 281 544 L 283 548 L 290 554 L 290 556 L 293 560 L 294 560 L 294 557 L 296 555 L 301 560 L 312 559 L 315 557 L 318 557 L 326 550 L 329 550 L 335 553 L 338 553 L 362 531 L 366 529 L 369 529 L 371 527 L 374 527 L 378 525 L 383 525 L 385 523 L 390 523 L 391 522 L 394 522 L 395 523 L 395 525 L 392 528 L 388 528 L 385 530 L 370 544 L 364 547 L 345 568 L 346 569 L 346 574 L 343 579 L 343 583 L 341 588 L 341 609 L 344 618 L 346 621 L 346 624 L 348 627 L 348 629 L 353 635 L 363 635 L 366 637 L 373 637 L 378 639 L 382 639 L 384 641 L 388 641 L 392 643 L 396 643 L 402 645 L 409 645 L 418 648 L 421 651 L 417 654 L 383 653 L 382 652 L 369 652 L 368 651 L 366 652 L 357 652 L 350 655 L 345 660 L 346 663 L 355 663 L 359 666 L 358 667 L 358 681 L 363 682 L 366 677 L 366 674 L 369 668 L 371 666 L 377 665 L 379 667 L 378 681 L 381 684 L 385 684 L 391 686 L 418 685 L 419 684 L 427 683 L 429 681 L 442 681 L 445 679 L 450 679 L 456 674 L 458 674 L 459 673 L 458 672 L 458 666 L 462 661 L 463 658 L 463 640 L 462 639 L 442 639 L 438 636 L 432 627 L 432 623 L 435 617 L 446 609 L 446 602 L 447 601 L 447 598 L 444 593 L 444 580 L 446 578 L 448 570 L 446 566 L 445 558 L 442 552 L 442 546 L 441 545 L 441 542 L 439 540 L 439 535 L 437 531 L 432 527 L 432 523 L 427 518 L 424 511 L 419 508 L 405 504 L 402 501 L 398 500 L 393 497 L 388 497 L 380 490 L 379 484 L 375 479 L 376 476 L 376 469 L 377 467 L 376 466 L 375 460 L 372 456 L 372 445 L 374 441 L 374 434 L 377 427 L 380 423 L 380 421 L 383 419 L 384 416 L 390 411 L 392 406 L 391 403 L 392 400 L 390 398 L 388 388 L 382 381 L 382 379 L 379 375 L 381 373 L 383 373 L 393 384 L 397 386 L 403 385 L 406 388 L 408 388 L 409 387 L 409 384 L 406 381 L 405 375 L 402 370 L 402 368 L 400 366 L 400 361 L 402 359 L 407 359 L 408 360 L 411 358 L 412 359 L 418 359 L 420 361 L 423 362 L 428 367 L 429 375 L 430 375 L 432 371 L 439 364 L 443 363 L 447 366 L 447 372 L 446 375 L 443 379 L 443 381 L 438 390 L 438 392 L 427 403 L 419 415 L 403 432 L 392 436 L 386 442 L 386 446 L 390 450 L 396 448 L 399 445 L 402 447 L 401 453 L 399 455 L 397 460 L 397 464 L 400 467 L 400 470 L 403 472 L 410 472 L 417 469 L 421 469 L 423 471 L 424 477 L 422 482 L 420 484 L 420 488 L 422 490 L 427 490 L 431 487 L 442 487 L 444 485 L 449 486 L 454 490 L 456 489 L 457 486 L 459 486 L 462 490 L 468 490 L 470 489 L 474 481 L 474 479 L 472 477 L 472 474 L 476 467 L 478 465 L 484 465 L 489 460 L 493 460 L 494 459 L 494 456 L 496 450 L 499 448 L 502 448 L 506 444 L 508 440 L 508 436 L 510 434 L 510 429 L 514 421 L 514 406 L 518 399 L 518 395 L 524 391 L 526 387 L 526 384 L 530 380 L 533 379 L 533 375 L 525 366 L 522 351 L 509 337 L 509 332 L 507 328 L 498 322 L 496 322 L 491 319 L 486 314 L 483 308 L 483 306 L 481 304 L 475 303 L 467 299 L 465 299 L 463 297 L 460 296 L 456 292 L 452 292 L 451 291 L 444 291 L 433 296 L 429 296 L 425 293 L 416 301 L 412 298 L 412 286 L 413 283 L 419 278 L 424 281 L 426 279 L 427 274 L 429 272 L 433 272 L 436 269 L 435 264 L 437 262 L 440 263 L 441 262 L 441 259 L 445 255 L 447 255 L 449 258 L 450 258 L 449 248 L 443 241 L 445 239 L 449 239 L 450 240 L 453 240 L 454 239 L 455 228 L 457 225 L 457 223 L 459 221 L 462 220 L 462 218 L 458 212 L 459 209 L 462 206 L 465 207 L 472 206 L 479 212 L 481 217 L 484 217 L 483 214 L 481 212 L 481 209 L 478 205 L 478 200 L 481 197 L 484 196 L 485 193 L 482 189 L 476 184 L 476 182 L 474 180 L 474 177 L 477 174 L 480 174 L 480 171 L 478 169 L 475 168 L 469 162 L 469 158 L 470 156 L 457 133 L 452 127 L 452 125 L 465 113 L 467 109 L 467 106 L 468 105 L 468 93 L 466 90 L 466 88 L 459 79 L 448 71 L 444 69 L 439 69 Z M 285 517 L 286 518 L 285 527 L 282 528 L 281 527 L 281 520 Z M 261 473 L 263 475 L 263 478 L 262 479 L 262 483 L 260 487 L 258 488 L 256 486 L 256 480 Z M 262 452 L 264 454 L 262 464 L 256 470 L 255 470 L 253 468 L 253 465 Z M 263 441 L 264 444 L 262 446 L 261 449 L 256 454 L 253 454 L 252 451 L 254 447 L 260 441 Z M 358 412 L 360 412 L 364 416 L 364 418 L 362 420 L 362 423 L 364 426 L 364 435 L 363 436 L 361 435 L 358 430 L 356 430 L 352 426 L 352 419 Z M 339 409 L 340 410 L 340 413 L 338 415 L 336 412 Z M 302 368 L 303 364 L 309 356 L 313 361 L 322 357 L 325 359 L 324 363 L 320 366 L 312 367 L 309 369 L 303 369 Z M 347 355 L 358 364 L 362 372 L 361 374 L 359 374 L 355 370 L 350 368 L 347 365 L 347 361 L 345 357 Z M 342 342 L 347 346 L 347 350 L 345 352 L 341 348 L 341 343 Z M 375 327 L 377 326 L 378 329 L 376 330 Z M 405 294 L 406 297 L 405 299 L 402 301 L 400 298 L 403 294 Z M 394 292 L 394 295 L 392 298 L 378 312 L 380 315 L 378 317 L 374 315 L 368 320 L 365 324 L 363 324 L 359 328 L 355 328 L 349 332 L 347 332 L 344 329 L 343 326 L 327 316 L 323 312 L 318 309 L 313 303 L 313 301 L 317 297 L 325 298 L 326 299 L 331 299 L 332 300 L 344 300 L 345 299 L 352 299 L 353 298 L 358 298 L 363 296 L 368 296 L 372 294 L 376 294 L 379 292 L 383 292 L 389 290 L 392 290 Z M 378 176 L 385 168 L 389 166 L 393 166 L 394 165 L 408 165 L 421 170 L 428 178 L 429 185 L 428 188 L 423 193 L 416 196 L 400 196 L 396 194 L 390 193 L 383 189 L 378 183 Z M 301 162 L 301 159 L 303 157 L 310 153 L 313 153 L 314 152 L 324 152 L 325 153 L 329 153 L 336 159 L 335 162 L 333 164 L 329 164 L 324 162 L 318 162 L 317 161 L 312 161 L 310 163 L 305 163 L 304 164 Z M 281 145 L 286 146 L 291 152 L 292 155 L 292 162 L 290 167 L 291 170 L 299 167 L 313 168 L 314 169 L 317 169 L 319 171 L 321 171 L 328 179 L 328 187 L 324 194 L 320 198 L 309 203 L 306 206 L 307 208 L 313 209 L 314 210 L 318 210 L 319 211 L 323 211 L 324 212 L 338 211 L 347 208 L 355 204 L 364 193 L 367 193 L 373 200 L 374 208 L 375 209 L 375 237 L 374 238 L 374 242 L 373 243 L 371 253 L 365 265 L 354 275 L 346 280 L 340 281 L 339 282 L 325 281 L 318 278 L 308 270 L 298 258 L 292 249 L 287 237 L 285 227 L 273 220 L 265 210 L 264 207 L 264 197 L 262 197 L 255 205 L 248 208 L 243 208 L 237 201 L 237 196 L 241 188 L 241 186 L 248 180 L 258 178 L 259 179 L 263 179 L 265 180 L 268 184 L 271 184 L 272 185 L 274 184 L 274 182 L 276 180 L 277 176 L 273 171 L 273 159 L 277 149 Z M 365 140 L 369 140 L 372 142 L 376 147 L 378 152 L 378 163 L 375 170 L 371 174 L 365 174 L 363 173 L 358 168 L 358 165 L 357 164 L 358 148 L 359 145 Z M 256 105 L 259 106 L 264 111 L 265 113 L 265 119 L 263 121 L 256 135 L 252 139 L 247 140 L 245 139 L 239 132 L 237 126 L 238 118 L 240 114 L 247 107 L 252 105 Z M 361 101 L 366 97 L 375 97 L 382 101 L 387 107 L 387 112 L 383 116 L 381 116 L 376 114 L 374 112 L 367 111 L 361 105 Z M 438 81 L 447 84 L 455 92 L 456 99 L 457 100 L 455 109 L 449 115 L 445 117 L 443 117 L 440 115 L 430 105 L 427 104 L 422 99 L 422 93 L 424 90 L 430 84 Z" fill="#FBFBFB" fill-rule="evenodd"/><path d="M 332 670 L 328 674 L 328 676 L 330 678 L 336 681 L 338 681 L 339 680 L 339 677 L 335 672 Z M 370 668 L 368 671 L 367 676 L 369 670 L 372 667 L 375 666 L 377 668 L 376 682 L 380 685 L 390 686 L 381 685 L 377 681 L 377 673 L 378 672 L 378 667 L 377 666 L 374 666 Z M 347 656 L 342 662 L 342 667 L 345 667 L 349 665 L 354 665 L 356 667 L 355 682 L 358 685 L 363 685 L 365 683 L 366 678 L 365 681 L 363 683 L 357 681 L 357 667 L 358 666 L 355 664 L 346 664 L 344 662 L 344 660 L 349 655 Z M 292 652 L 300 655 L 303 658 L 309 676 L 320 688 L 330 693 L 334 693 L 335 694 L 346 696 L 331 693 L 323 690 L 310 676 L 308 671 L 308 666 L 305 660 L 300 655 Z M 355 652 L 357 651 L 366 651 L 368 650 L 369 651 L 382 651 L 383 652 L 417 653 L 420 651 L 418 649 L 409 646 L 402 646 L 401 645 L 397 645 L 396 644 L 392 644 L 388 642 L 385 642 L 399 645 L 400 646 L 411 647 L 414 648 L 416 650 L 414 652 L 373 651 L 372 650 L 361 650 Z M 481 637 L 483 643 L 483 649 L 484 650 L 484 661 L 483 662 L 483 667 L 479 677 L 464 691 L 455 694 L 451 694 L 459 693 L 466 690 L 472 685 L 480 676 L 484 664 L 484 647 L 483 646 L 483 642 Z M 226 623 L 228 625 L 237 629 L 255 634 L 261 637 L 269 643 L 271 643 L 274 645 L 276 645 L 278 647 L 281 647 L 288 651 L 290 651 L 288 651 L 281 647 L 274 645 L 266 641 L 258 635 L 238 629 Z M 363 547 L 343 568 L 343 573 L 341 577 L 341 583 L 340 584 L 340 610 L 347 631 L 350 636 L 353 637 L 365 637 L 366 638 L 377 639 L 383 641 L 382 640 L 378 640 L 373 638 L 366 638 L 363 636 L 353 636 L 347 629 L 347 627 L 345 624 L 345 621 L 343 618 L 340 609 L 340 588 L 342 583 L 342 579 L 345 574 L 345 569 L 344 568 L 352 558 Z M 394 523 L 385 524 L 383 526 L 378 526 L 374 528 L 371 528 L 370 529 L 379 526 L 383 526 L 385 528 L 371 542 L 365 546 L 370 543 L 385 529 L 388 527 L 392 527 L 394 525 Z M 285 518 L 282 520 L 282 527 L 284 527 Z M 233 516 L 223 526 L 220 533 L 219 539 L 220 533 L 223 526 L 231 518 L 235 516 L 239 522 L 239 526 L 241 532 L 251 539 L 258 546 L 265 550 L 268 554 L 275 560 L 277 564 L 280 567 L 283 568 L 289 573 L 288 575 L 289 582 L 287 586 L 274 597 L 274 599 L 270 603 L 266 605 L 263 605 L 259 609 L 256 609 L 255 610 L 250 609 L 244 605 L 234 601 L 229 597 L 224 589 L 220 586 L 219 584 L 219 578 L 218 577 L 218 568 L 215 559 L 215 552 L 216 551 L 216 548 L 218 545 L 218 541 L 218 544 L 215 551 L 215 565 L 218 573 L 218 581 L 220 586 L 226 592 L 229 598 L 243 611 L 246 612 L 248 614 L 257 617 L 266 618 L 273 622 L 276 622 L 288 626 L 294 630 L 297 630 L 301 634 L 301 637 L 307 642 L 308 645 L 310 647 L 312 647 L 315 650 L 319 652 L 324 652 L 326 651 L 330 646 L 330 641 L 328 638 L 328 633 L 326 630 L 326 627 L 324 622 L 323 611 L 318 597 L 318 585 L 319 584 L 319 581 L 314 579 L 312 577 L 307 577 L 300 574 L 294 573 L 289 570 L 287 570 L 281 566 L 265 549 L 259 546 L 241 530 L 237 517 L 235 515 Z M 544 514 L 543 517 L 532 533 L 526 539 L 520 542 L 513 549 L 507 558 L 497 568 L 493 570 L 487 576 L 482 584 L 475 592 L 474 594 L 475 620 L 480 635 L 477 626 L 477 623 L 475 619 L 474 600 L 475 599 L 476 591 L 481 586 L 485 579 L 509 556 L 512 551 L 522 541 L 525 540 L 534 531 L 539 522 L 542 519 Z M 530 501 L 528 506 L 528 511 L 529 511 L 531 507 L 531 503 Z M 220 496 L 221 508 L 218 512 L 216 513 L 215 517 L 211 523 L 211 526 L 217 513 L 223 506 Z M 528 480 L 527 481 L 527 491 L 529 492 L 531 490 L 531 482 Z M 233 476 L 231 482 L 232 485 L 237 480 L 241 483 L 241 489 L 240 490 L 238 501 L 239 502 L 242 499 L 245 501 L 248 510 L 248 517 L 252 529 L 255 532 L 259 531 L 263 535 L 267 537 L 273 543 L 276 544 L 284 550 L 289 555 L 292 562 L 295 564 L 299 564 L 305 566 L 312 566 L 314 567 L 320 574 L 323 574 L 326 571 L 330 562 L 338 554 L 339 554 L 359 534 L 366 530 L 368 530 L 366 530 L 359 534 L 338 554 L 335 554 L 332 552 L 326 551 L 318 558 L 315 558 L 312 560 L 301 561 L 296 556 L 295 557 L 295 560 L 293 561 L 289 556 L 289 554 L 282 548 L 280 544 L 275 539 L 272 538 L 268 533 L 262 531 L 256 526 L 254 526 L 250 522 L 249 516 L 248 515 L 248 508 L 247 507 L 248 504 L 247 503 L 247 500 L 246 497 L 243 494 L 242 495 L 241 494 L 242 492 L 242 484 L 239 479 L 236 479 L 235 480 L 233 478 Z M 261 474 L 257 480 L 257 486 L 259 487 L 261 483 L 261 479 L 262 478 L 262 475 Z M 262 453 L 254 465 L 254 468 L 255 469 L 261 464 L 262 456 L 263 455 Z M 263 442 L 260 442 L 255 447 L 253 453 L 256 453 L 260 449 L 261 446 L 263 444 Z M 537 422 L 535 428 L 530 436 L 530 439 L 529 440 L 528 460 L 533 464 L 536 465 L 541 470 L 546 486 L 545 480 L 541 470 L 535 464 L 532 463 L 528 459 L 528 450 L 530 446 L 531 436 L 536 427 Z M 358 413 L 353 419 L 353 426 L 356 429 L 358 429 L 362 435 L 363 435 L 363 426 L 361 423 L 361 420 L 363 418 L 363 416 L 360 413 Z M 203 385 L 211 389 L 218 395 L 226 399 L 228 401 L 229 405 L 228 406 L 226 420 L 222 425 L 220 431 L 222 425 L 227 419 L 227 411 L 228 410 L 230 400 L 228 398 L 224 398 L 216 392 Z M 552 377 L 553 379 L 553 383 L 554 384 L 553 394 L 552 396 L 546 401 L 543 408 L 543 411 L 538 420 L 542 415 L 545 404 L 551 398 L 554 391 L 554 383 Z M 411 359 L 408 361 L 407 360 L 402 360 L 401 361 L 401 366 L 403 368 L 403 370 L 406 375 L 407 381 L 410 384 L 410 387 L 408 389 L 406 389 L 403 386 L 397 387 L 393 385 L 383 374 L 380 375 L 383 379 L 383 381 L 389 388 L 391 398 L 393 400 L 392 402 L 393 406 L 391 411 L 388 413 L 387 415 L 385 416 L 384 419 L 381 421 L 381 423 L 378 427 L 375 434 L 375 441 L 373 445 L 373 456 L 376 460 L 377 466 L 378 467 L 377 469 L 377 476 L 376 479 L 380 484 L 381 490 L 388 496 L 393 496 L 398 499 L 402 500 L 405 503 L 419 507 L 424 510 L 426 512 L 428 518 L 433 523 L 433 527 L 438 531 L 440 535 L 440 540 L 442 542 L 442 545 L 443 546 L 443 552 L 445 555 L 446 561 L 447 562 L 447 566 L 449 570 L 447 578 L 445 580 L 445 593 L 448 598 L 448 601 L 447 602 L 447 609 L 440 615 L 436 617 L 433 623 L 433 627 L 439 636 L 442 638 L 462 638 L 464 640 L 464 658 L 463 661 L 459 666 L 459 672 L 460 673 L 458 675 L 456 675 L 450 680 L 445 680 L 442 682 L 429 682 L 427 684 L 424 685 L 419 685 L 418 686 L 405 686 L 422 686 L 423 685 L 432 685 L 433 684 L 440 684 L 441 683 L 446 683 L 447 682 L 455 681 L 461 678 L 466 673 L 466 670 L 467 669 L 467 638 L 466 637 L 466 634 L 462 627 L 462 624 L 458 619 L 454 619 L 452 617 L 452 604 L 453 603 L 453 599 L 454 596 L 459 591 L 463 585 L 469 573 L 476 566 L 482 563 L 493 552 L 498 545 L 502 537 L 502 532 L 504 530 L 504 528 L 508 520 L 508 517 L 510 513 L 510 508 L 504 512 L 501 512 L 499 514 L 494 515 L 482 522 L 464 522 L 462 520 L 462 511 L 460 509 L 458 510 L 440 510 L 439 509 L 427 508 L 426 507 L 419 506 L 413 504 L 401 497 L 391 494 L 388 492 L 384 487 L 383 483 L 378 477 L 378 463 L 374 455 L 375 437 L 380 424 L 385 419 L 392 416 L 395 413 L 397 412 L 402 412 L 405 410 L 417 394 L 417 388 L 410 378 L 410 375 L 412 373 L 417 372 L 418 369 L 420 367 L 423 367 L 427 372 L 426 382 L 428 383 L 435 370 L 439 366 L 443 366 L 446 369 L 445 374 L 439 385 L 437 391 L 435 394 L 427 401 L 419 413 L 404 429 L 397 433 L 393 433 L 391 434 L 385 440 L 383 445 L 389 450 L 385 446 L 385 442 L 392 435 L 403 431 L 403 430 L 412 422 L 422 410 L 422 408 L 426 403 L 437 392 L 437 390 L 446 372 L 446 366 L 443 364 L 441 364 L 439 365 L 433 371 L 431 375 L 429 376 L 427 371 L 427 367 L 423 363 L 420 362 L 418 360 L 412 360 Z M 393 390 L 394 389 L 397 389 L 399 391 L 399 393 L 396 395 L 393 392 Z M 410 360 L 412 362 L 412 365 L 411 366 L 408 365 L 408 362 Z M 303 368 L 309 368 L 312 366 L 320 365 L 323 363 L 324 359 L 322 358 L 313 362 L 309 357 L 304 364 Z M 347 356 L 346 357 L 348 361 L 348 365 L 350 367 L 355 369 L 359 373 L 361 373 L 357 364 Z M 342 343 L 342 348 L 345 351 L 346 350 L 346 346 Z M 499 322 L 508 328 L 510 332 L 510 337 L 523 351 L 524 359 L 527 368 L 534 375 L 534 379 L 532 381 L 530 381 L 527 384 L 527 387 L 525 391 L 522 394 L 519 395 L 519 399 L 515 406 L 515 421 L 511 429 L 511 434 L 509 436 L 509 440 L 507 444 L 502 449 L 497 450 L 495 456 L 495 459 L 493 461 L 489 461 L 484 466 L 478 466 L 473 474 L 473 477 L 475 479 L 474 484 L 472 486 L 472 488 L 468 491 L 462 491 L 459 487 L 457 487 L 457 489 L 454 491 L 451 488 L 446 486 L 444 486 L 442 488 L 431 488 L 427 491 L 422 491 L 419 488 L 419 484 L 421 482 L 423 477 L 423 474 L 421 470 L 417 470 L 410 473 L 403 473 L 399 470 L 399 467 L 396 464 L 397 457 L 401 450 L 401 447 L 399 446 L 396 449 L 391 451 L 395 449 L 397 449 L 399 451 L 396 459 L 396 471 L 394 473 L 393 472 L 393 474 L 396 476 L 405 476 L 406 475 L 409 475 L 419 470 L 423 475 L 422 479 L 417 488 L 417 490 L 419 492 L 426 493 L 432 489 L 435 489 L 445 494 L 469 493 L 475 482 L 484 473 L 487 473 L 491 471 L 494 467 L 494 465 L 498 458 L 499 454 L 506 446 L 510 439 L 510 435 L 512 432 L 512 428 L 517 419 L 517 412 L 520 409 L 526 412 L 528 411 L 526 407 L 526 402 L 528 399 L 531 398 L 531 394 L 529 391 L 529 388 L 531 386 L 536 387 L 536 378 L 534 374 L 529 369 L 525 361 L 525 353 L 512 339 L 511 336 L 512 331 L 508 327 Z M 475 302 L 481 303 L 484 306 L 484 308 L 487 314 L 491 318 L 497 321 L 493 319 L 487 313 L 486 307 L 483 304 L 478 302 Z M 405 295 L 402 296 L 401 298 L 402 300 L 404 299 Z M 393 292 L 392 291 L 389 291 L 388 292 L 379 293 L 376 295 L 372 295 L 368 297 L 363 297 L 358 299 L 345 300 L 344 301 L 332 301 L 331 300 L 326 300 L 325 299 L 317 298 L 314 301 L 314 303 L 318 308 L 323 311 L 327 315 L 343 325 L 345 327 L 345 329 L 347 331 L 349 331 L 355 327 L 359 327 L 363 323 L 365 323 L 366 321 L 374 314 L 378 316 L 379 315 L 377 312 L 391 298 L 393 295 Z M 389 296 L 388 298 L 369 316 L 361 320 L 357 324 L 346 323 L 329 314 L 323 309 L 320 308 L 315 303 L 318 299 L 324 301 L 327 301 L 331 303 L 342 303 L 343 302 L 348 302 L 349 301 L 362 300 L 367 298 L 372 298 L 373 301 L 376 297 L 378 297 L 384 294 L 387 294 Z M 203 234 L 207 241 L 211 245 L 216 247 L 219 246 L 221 244 L 221 235 L 221 242 L 218 246 L 213 246 L 206 239 Z M 133 194 L 131 194 L 125 191 L 119 191 L 118 192 L 110 193 L 104 196 L 91 211 L 89 217 L 89 222 L 88 223 L 88 235 L 90 240 L 95 245 L 98 246 L 110 246 L 132 235 L 141 227 L 145 220 L 145 211 L 140 201 Z M 132 194 L 139 201 L 145 212 L 145 218 L 141 226 L 131 235 L 111 245 L 98 245 L 94 243 L 89 237 L 89 234 L 88 233 L 88 224 L 89 223 L 90 215 L 98 203 L 104 197 L 112 193 L 115 193 L 116 192 L 128 192 Z M 379 176 L 379 183 L 383 188 L 390 192 L 396 193 L 400 195 L 416 195 L 423 192 L 427 188 L 428 185 L 427 178 L 421 171 L 408 166 L 394 166 L 393 167 L 389 167 L 385 169 Z M 379 177 L 385 170 L 392 167 L 409 167 L 413 169 L 416 169 L 422 173 L 427 179 L 428 185 L 422 192 L 416 194 L 400 194 L 399 193 L 394 193 L 384 188 L 380 184 Z M 72 160 L 72 164 L 68 167 L 64 167 L 57 173 L 54 177 L 52 183 L 53 179 L 55 176 L 62 169 L 66 167 L 70 167 L 72 165 Z M 242 186 L 242 188 L 238 196 L 238 201 L 243 207 L 248 207 L 255 204 L 262 196 L 264 196 L 265 198 L 265 191 L 266 188 L 268 186 L 271 186 L 274 190 L 273 192 L 273 202 L 273 194 L 276 193 L 287 201 L 295 205 L 298 208 L 298 210 L 295 213 L 290 215 L 285 215 L 279 212 L 276 209 L 274 204 L 275 208 L 277 211 L 282 215 L 292 215 L 300 209 L 303 208 L 309 210 L 312 210 L 313 211 L 323 212 L 324 213 L 338 212 L 350 208 L 357 204 L 364 194 L 368 195 L 372 200 L 373 208 L 374 209 L 374 235 L 373 236 L 373 241 L 372 242 L 371 249 L 364 265 L 351 275 L 343 279 L 340 279 L 339 280 L 329 280 L 328 279 L 325 279 L 322 277 L 318 276 L 312 272 L 304 264 L 293 249 L 289 239 L 293 249 L 299 258 L 309 270 L 318 277 L 330 281 L 339 281 L 340 280 L 346 279 L 354 274 L 364 265 L 370 253 L 372 243 L 373 242 L 373 238 L 374 237 L 374 209 L 373 208 L 372 200 L 367 194 L 364 194 L 361 197 L 360 200 L 355 205 L 347 209 L 338 212 L 324 213 L 323 212 L 319 212 L 318 211 L 314 211 L 313 210 L 307 209 L 305 206 L 309 202 L 320 197 L 323 194 L 327 187 L 327 179 L 321 172 L 319 172 L 317 170 L 314 170 L 313 169 L 299 168 L 291 171 L 289 169 L 290 163 L 291 162 L 291 155 L 291 162 L 287 172 L 293 170 L 296 170 L 297 169 L 313 169 L 322 173 L 326 177 L 327 179 L 327 187 L 325 191 L 318 198 L 312 200 L 307 203 L 301 204 L 300 205 L 297 205 L 291 203 L 289 201 L 284 199 L 274 188 L 275 182 L 278 178 L 278 175 L 274 171 L 274 169 L 274 171 L 278 176 L 278 178 L 273 186 L 268 185 L 265 181 L 263 180 L 259 180 L 258 179 L 248 181 Z M 262 181 L 266 185 L 266 187 L 259 194 L 259 196 L 257 199 L 251 205 L 245 206 L 239 200 L 239 197 L 245 186 L 248 183 L 250 183 L 253 181 Z M 88 155 L 86 156 L 84 159 L 85 167 L 86 167 L 87 164 L 90 161 L 97 161 L 99 162 L 102 165 L 106 177 L 106 185 L 105 187 L 100 191 L 95 191 L 94 190 L 87 191 L 78 181 L 74 179 L 68 179 L 65 182 L 65 188 L 66 189 L 67 187 L 71 184 L 83 188 L 86 191 L 88 202 L 83 208 L 76 208 L 75 207 L 70 207 L 59 215 L 59 221 L 60 224 L 70 238 L 76 243 L 80 245 L 87 252 L 94 256 L 98 260 L 108 283 L 118 298 L 139 318 L 147 322 L 155 329 L 155 332 L 154 333 L 149 333 L 148 335 L 151 338 L 161 343 L 164 343 L 169 346 L 176 348 L 178 350 L 177 353 L 175 355 L 177 358 L 192 363 L 201 363 L 203 365 L 203 367 L 201 369 L 201 372 L 202 373 L 212 373 L 215 375 L 218 375 L 226 380 L 230 380 L 231 381 L 233 381 L 237 378 L 237 376 L 239 373 L 239 370 L 241 366 L 245 362 L 247 354 L 251 348 L 255 345 L 258 348 L 258 352 L 254 362 L 254 373 L 250 384 L 250 392 L 252 392 L 254 388 L 260 381 L 262 381 L 264 383 L 260 391 L 255 396 L 250 397 L 240 409 L 244 413 L 244 415 L 241 421 L 234 429 L 233 433 L 234 434 L 239 432 L 242 435 L 242 437 L 233 449 L 230 456 L 230 459 L 233 458 L 235 456 L 237 458 L 237 464 L 238 462 L 238 456 L 233 456 L 232 455 L 232 452 L 236 445 L 240 441 L 242 437 L 242 433 L 241 432 L 235 432 L 234 429 L 239 424 L 244 416 L 245 411 L 242 409 L 242 407 L 247 401 L 254 399 L 260 394 L 261 391 L 263 389 L 263 387 L 265 385 L 265 382 L 266 381 L 265 379 L 261 378 L 253 385 L 251 383 L 251 380 L 254 373 L 254 362 L 258 353 L 258 344 L 261 340 L 261 331 L 268 325 L 268 323 L 265 317 L 270 312 L 270 310 L 275 303 L 277 296 L 279 294 L 284 296 L 291 302 L 295 302 L 295 298 L 290 290 L 282 284 L 274 283 L 269 281 L 254 265 L 252 262 L 252 260 L 250 258 L 245 261 L 241 257 L 240 254 L 240 246 L 242 242 L 242 238 L 240 236 L 238 236 L 235 238 L 232 237 L 233 225 L 232 238 L 235 239 L 237 237 L 239 237 L 241 239 L 240 255 L 242 259 L 244 261 L 247 261 L 250 259 L 255 267 L 275 288 L 277 292 L 277 296 L 276 297 L 276 300 L 273 303 L 272 303 L 264 295 L 262 290 L 254 282 L 252 282 L 250 285 L 248 285 L 244 281 L 239 272 L 236 272 L 233 276 L 230 276 L 228 274 L 225 268 L 225 266 L 221 259 L 218 260 L 217 264 L 214 267 L 207 260 L 200 247 L 196 242 L 194 242 L 191 246 L 189 246 L 180 233 L 165 218 L 160 209 L 161 207 L 161 203 L 162 202 L 162 198 L 163 197 L 164 180 L 163 179 L 163 175 L 161 171 L 158 168 L 152 166 L 150 167 L 141 177 L 138 177 L 136 174 L 135 174 L 133 179 L 129 183 L 124 184 L 118 180 L 114 180 L 111 177 L 106 167 L 99 158 Z M 212 353 L 214 350 L 220 350 L 221 351 L 219 354 L 213 354 Z M 258 335 L 260 337 L 260 339 L 256 343 L 254 343 L 253 342 L 253 339 Z M 263 321 L 265 323 L 265 325 L 263 327 L 260 328 L 258 325 Z M 282 289 L 284 288 L 287 290 L 292 296 L 289 298 L 282 292 Z M 68 213 L 76 214 L 83 220 L 83 228 L 80 231 L 73 230 L 66 224 L 65 216 Z M 62 213 L 65 215 L 64 217 L 64 224 L 63 225 L 61 224 L 59 219 L 59 216 Z M 154 172 L 159 179 L 159 187 L 156 194 L 153 197 L 150 198 L 147 197 L 144 194 L 142 190 L 142 183 L 145 177 L 150 172 Z M 107 172 L 109 173 L 111 178 L 115 182 L 119 182 L 123 185 L 129 185 L 136 177 L 140 178 L 142 180 L 142 192 L 147 198 L 155 197 L 158 194 L 159 188 L 160 187 L 160 183 L 162 182 L 163 183 L 163 196 L 162 197 L 162 201 L 160 206 L 161 212 L 169 223 L 181 235 L 186 243 L 190 247 L 196 243 L 201 249 L 206 259 L 214 268 L 217 266 L 218 262 L 221 260 L 223 262 L 228 274 L 231 277 L 233 277 L 238 273 L 242 277 L 246 285 L 248 287 L 250 287 L 253 284 L 255 284 L 263 292 L 263 294 L 266 298 L 266 305 L 262 310 L 260 320 L 255 327 L 255 334 L 252 339 L 252 346 L 247 353 L 246 359 L 242 363 L 232 363 L 230 361 L 226 360 L 223 355 L 227 351 L 228 349 L 227 348 L 211 348 L 206 343 L 203 342 L 197 342 L 194 340 L 189 332 L 187 331 L 183 331 L 182 330 L 178 330 L 177 329 L 173 329 L 163 324 L 160 321 L 158 321 L 154 317 L 130 300 L 122 290 L 103 271 L 103 269 L 100 265 L 100 263 L 98 261 L 97 258 L 91 253 L 87 251 L 79 243 L 77 243 L 70 237 L 68 234 L 68 232 L 70 230 L 76 232 L 82 232 L 84 229 L 83 218 L 80 215 L 74 213 L 71 209 L 73 208 L 74 209 L 85 210 L 88 206 L 88 201 L 89 200 L 88 195 L 90 193 L 100 192 L 106 187 L 107 185 L 107 177 L 106 176 L 106 173 Z M 302 162 L 304 163 L 305 162 L 310 162 L 312 160 L 317 160 L 318 161 L 324 161 L 329 163 L 333 163 L 335 159 L 329 154 L 325 154 L 324 153 L 314 153 L 313 154 L 310 154 L 302 159 Z M 325 157 L 327 156 L 328 157 L 331 157 L 333 159 L 331 161 L 328 161 Z M 118 151 L 118 155 L 119 156 L 121 154 L 123 154 L 132 163 L 132 164 L 134 165 L 133 160 L 131 156 L 128 153 L 123 150 L 119 150 Z M 215 139 L 216 142 L 221 149 L 229 156 L 229 161 L 227 163 L 225 169 L 225 167 L 230 159 L 230 156 L 218 145 Z M 73 158 L 76 152 L 81 147 L 88 143 L 94 143 L 104 149 L 114 141 L 118 139 L 127 139 L 131 141 L 137 147 L 145 159 L 151 157 L 162 157 L 164 158 L 172 168 L 174 175 L 171 166 L 165 158 L 159 156 L 152 156 L 148 158 L 145 158 L 139 151 L 137 147 L 130 140 L 127 139 L 118 139 L 115 140 L 105 148 L 103 148 L 101 146 L 94 143 L 87 143 L 81 147 L 76 152 Z M 256 106 L 252 106 L 247 108 L 241 114 L 239 118 L 238 126 L 240 132 L 245 138 L 247 139 L 250 139 L 255 135 L 262 121 L 264 119 L 264 113 L 263 111 L 259 107 Z M 257 108 L 262 114 L 261 120 L 258 124 L 255 133 L 251 137 L 247 137 L 241 131 L 240 125 L 239 124 L 240 119 L 242 115 L 248 109 L 251 108 Z M 362 101 L 362 105 L 367 110 L 374 111 L 376 113 L 381 115 L 383 115 L 386 112 L 386 107 L 384 104 L 375 98 L 366 98 Z M 362 103 L 365 99 L 369 99 L 370 98 L 376 99 L 380 101 L 385 106 L 386 108 L 386 112 L 384 114 L 379 114 L 372 110 L 365 108 L 362 105 Z M 469 94 L 469 105 L 468 106 L 468 109 L 466 113 L 453 125 L 453 127 L 458 133 L 471 156 L 470 158 L 470 162 L 475 167 L 478 168 L 481 171 L 481 174 L 480 175 L 477 175 L 475 177 L 475 180 L 477 182 L 477 184 L 479 185 L 486 193 L 486 195 L 479 200 L 479 205 L 482 209 L 482 212 L 484 214 L 485 217 L 484 218 L 481 218 L 478 212 L 472 207 L 468 207 L 467 208 L 462 207 L 460 209 L 459 212 L 463 218 L 463 220 L 461 222 L 458 223 L 458 225 L 456 228 L 455 239 L 453 241 L 450 241 L 449 240 L 445 240 L 444 241 L 450 248 L 451 258 L 449 259 L 447 256 L 445 256 L 442 259 L 442 262 L 440 264 L 439 263 L 436 264 L 437 269 L 433 273 L 429 273 L 427 279 L 424 282 L 419 279 L 414 283 L 413 286 L 413 298 L 415 300 L 419 298 L 425 292 L 429 295 L 433 295 L 444 290 L 451 290 L 452 291 L 456 291 L 460 295 L 463 296 L 465 298 L 467 298 L 473 301 L 468 299 L 465 296 L 462 295 L 459 292 L 455 290 L 442 290 L 441 291 L 438 291 L 433 294 L 430 294 L 428 292 L 429 288 L 437 282 L 437 279 L 439 277 L 448 278 L 452 275 L 452 273 L 455 270 L 454 267 L 456 265 L 457 265 L 459 268 L 462 267 L 468 257 L 471 242 L 473 240 L 478 241 L 480 238 L 479 229 L 478 228 L 478 222 L 480 220 L 485 220 L 486 219 L 485 214 L 480 204 L 480 200 L 482 198 L 488 198 L 488 195 L 485 190 L 481 187 L 476 181 L 476 177 L 478 175 L 483 176 L 484 173 L 482 170 L 474 166 L 470 162 L 471 155 L 462 139 L 460 137 L 458 132 L 454 127 L 454 125 L 465 115 L 468 109 L 468 106 L 469 105 Z M 312 88 L 308 89 L 307 92 L 305 94 L 299 96 L 296 96 L 283 103 L 280 106 L 277 106 L 267 95 L 259 92 L 249 92 L 248 93 L 245 93 L 237 97 L 230 104 L 225 116 L 225 130 L 231 142 L 237 147 L 242 148 L 245 151 L 245 154 L 236 172 L 236 182 L 227 193 L 227 197 L 231 197 L 233 199 L 233 201 L 229 206 L 228 214 L 229 215 L 232 215 L 234 217 L 234 223 L 234 220 L 235 219 L 234 216 L 228 212 L 229 206 L 234 200 L 234 198 L 233 197 L 229 197 L 227 194 L 229 190 L 236 183 L 236 172 L 238 167 L 240 165 L 240 163 L 243 159 L 243 157 L 245 154 L 245 150 L 243 148 L 236 146 L 230 140 L 225 130 L 225 116 L 227 110 L 232 102 L 236 98 L 243 94 L 249 92 L 262 93 L 268 96 L 274 102 L 280 110 L 275 120 L 277 126 L 280 128 L 287 122 L 293 119 L 296 115 L 296 111 L 287 108 L 285 106 L 286 104 L 291 99 L 300 95 L 304 95 L 310 88 Z M 296 112 L 296 115 L 292 119 L 287 121 L 281 126 L 278 126 L 275 120 L 276 117 L 281 111 L 286 109 L 292 109 Z M 438 82 L 430 85 L 425 90 L 423 93 L 423 99 L 427 103 L 430 104 L 440 114 L 443 116 L 445 116 L 449 114 L 455 107 L 455 102 L 456 101 L 455 99 L 455 95 L 454 92 L 447 85 Z M 431 86 L 436 84 L 443 84 L 453 93 L 455 103 L 453 108 L 447 114 L 442 114 L 434 106 L 427 102 L 424 99 L 423 97 L 424 93 Z M 468 92 L 466 86 L 460 78 L 451 71 L 441 67 L 433 67 L 423 72 L 412 82 L 410 88 L 408 90 L 404 90 L 398 87 L 384 84 L 383 83 L 368 83 L 367 84 L 361 84 L 359 82 L 359 74 L 358 73 L 356 73 L 350 79 L 350 80 L 345 84 L 340 82 L 336 78 L 332 76 L 327 76 L 326 77 L 326 80 L 328 84 L 328 87 L 326 89 L 324 89 L 326 89 L 328 87 L 328 84 L 326 79 L 328 76 L 331 76 L 335 78 L 341 83 L 346 84 L 355 75 L 357 75 L 359 77 L 359 83 L 360 84 L 377 83 L 378 84 L 383 84 L 384 85 L 393 86 L 399 89 L 405 91 L 408 91 L 410 89 L 412 83 L 417 77 L 430 68 L 438 67 L 439 68 L 444 68 L 453 73 L 459 78 L 467 88 Z M 412 65 L 402 75 L 397 75 L 396 74 L 391 74 L 390 73 L 374 72 L 364 61 L 358 61 L 355 62 L 346 69 L 342 69 L 333 65 L 323 65 L 319 68 L 317 71 L 316 76 L 313 79 L 309 79 L 308 80 L 302 81 L 284 90 L 280 90 L 278 88 L 276 88 L 274 86 L 266 82 L 264 82 L 270 84 L 277 89 L 284 90 L 302 81 L 308 80 L 309 79 L 314 79 L 316 77 L 317 71 L 323 65 L 333 65 L 342 70 L 344 70 L 358 61 L 364 61 L 370 68 L 372 72 L 375 72 L 376 73 L 388 73 L 389 74 L 394 74 L 399 76 L 402 76 Z" fill="#D8D8D8" fill-rule="evenodd"/><path d="M 529 476 L 527 476 L 527 478 L 525 480 L 526 503 L 524 508 L 524 516 L 522 522 L 523 525 L 529 518 L 533 510 L 534 504 L 535 503 L 533 483 L 531 478 Z M 530 500 L 532 503 L 532 507 L 530 511 L 528 512 L 527 511 L 527 506 Z M 528 479 L 532 482 L 532 490 L 529 493 L 526 491 L 526 481 Z M 517 455 L 514 456 L 512 462 L 513 465 L 516 465 L 518 463 L 518 456 Z M 394 390 L 394 392 L 397 394 L 398 391 L 397 390 Z M 213 353 L 219 353 L 220 351 L 214 351 Z M 258 336 L 254 339 L 254 342 L 256 342 L 259 339 Z M 263 322 L 259 325 L 260 327 L 264 325 Z M 388 296 L 387 295 L 381 296 L 378 298 L 376 298 L 373 302 L 372 299 L 367 299 L 362 301 L 349 302 L 348 303 L 343 303 L 342 304 L 331 304 L 318 300 L 316 303 L 320 307 L 323 308 L 329 313 L 346 322 L 357 323 L 361 319 L 369 315 L 379 305 L 380 305 Z M 283 289 L 283 292 L 290 297 L 291 296 L 290 294 L 287 291 Z M 68 214 L 66 216 L 67 224 L 73 229 L 80 230 L 82 228 L 82 220 L 76 215 Z M 132 195 L 128 193 L 116 193 L 104 198 L 99 203 L 91 215 L 90 223 L 89 224 L 89 233 L 90 234 L 90 237 L 94 242 L 98 244 L 111 244 L 124 238 L 126 236 L 128 236 L 140 226 L 144 218 L 144 212 L 138 201 Z M 266 191 L 266 198 L 265 199 L 267 210 L 276 220 L 279 222 L 281 222 L 287 227 L 289 238 L 294 249 L 305 264 L 312 271 L 318 275 L 322 276 L 325 278 L 328 278 L 329 279 L 339 279 L 351 274 L 363 265 L 368 255 L 370 249 L 370 246 L 371 245 L 371 242 L 372 241 L 372 236 L 373 235 L 373 209 L 372 208 L 371 200 L 368 196 L 364 195 L 360 202 L 357 205 L 350 209 L 338 213 L 324 214 L 323 213 L 318 213 L 317 212 L 313 212 L 312 211 L 309 211 L 303 209 L 300 210 L 292 216 L 282 216 L 279 214 L 274 208 L 272 202 L 272 192 L 273 191 L 271 187 L 268 187 Z M 267 191 L 269 189 L 272 190 L 272 204 L 276 212 L 282 217 L 290 217 L 303 210 L 310 211 L 315 213 L 319 213 L 320 214 L 336 214 L 337 213 L 341 213 L 356 207 L 360 203 L 362 199 L 365 196 L 367 196 L 369 198 L 372 206 L 373 231 L 372 232 L 372 238 L 370 243 L 370 247 L 366 256 L 366 258 L 363 263 L 359 267 L 356 265 L 358 262 L 358 260 L 360 257 L 363 248 L 363 241 L 362 239 L 356 233 L 349 230 L 340 230 L 337 232 L 335 232 L 332 235 L 326 238 L 317 248 L 317 250 L 315 253 L 315 260 L 321 271 L 321 273 L 318 274 L 312 270 L 304 262 L 294 248 L 292 242 L 289 237 L 287 226 L 284 223 L 274 218 L 268 211 L 266 206 L 266 194 Z M 262 182 L 253 182 L 250 184 L 248 184 L 246 186 L 240 197 L 240 200 L 245 205 L 251 204 L 256 199 L 258 196 L 258 194 L 265 187 L 265 185 Z M 154 173 L 150 173 L 146 177 L 143 183 L 143 190 L 145 194 L 147 196 L 150 197 L 153 196 L 155 194 L 158 187 L 158 179 Z M 380 177 L 381 184 L 387 189 L 391 190 L 394 192 L 399 192 L 400 193 L 416 193 L 422 191 L 427 185 L 426 179 L 422 174 L 416 170 L 413 170 L 409 168 L 392 168 L 385 171 Z M 326 157 L 328 160 L 331 160 L 332 159 Z M 282 147 L 278 151 L 274 163 L 275 171 L 279 175 L 279 178 L 276 182 L 276 185 L 275 186 L 276 190 L 284 198 L 289 200 L 291 202 L 297 204 L 304 203 L 318 197 L 324 191 L 326 187 L 326 179 L 325 177 L 322 174 L 313 170 L 297 170 L 296 171 L 293 171 L 287 173 L 286 171 L 289 166 L 289 163 L 290 162 L 290 154 L 287 149 Z M 322 175 L 326 180 L 326 186 L 325 188 L 318 196 L 304 202 L 297 203 L 291 201 L 283 196 L 276 188 L 276 185 L 278 179 L 281 176 L 296 171 L 299 171 L 300 170 L 311 170 L 317 172 L 319 174 Z M 284 148 L 288 151 L 290 155 L 290 161 L 288 167 L 282 173 L 279 174 L 275 170 L 275 160 L 278 152 L 282 148 Z M 363 143 L 361 145 L 360 151 L 359 152 L 359 166 L 363 171 L 365 172 L 370 172 L 374 168 L 376 164 L 377 155 L 374 147 L 370 143 Z M 365 143 L 370 144 L 374 148 L 376 152 L 376 163 L 374 167 L 370 171 L 364 171 L 360 167 L 359 164 L 359 152 L 361 147 Z M 295 112 L 292 110 L 286 110 L 281 112 L 277 117 L 276 120 L 278 125 L 281 125 L 287 120 L 292 118 L 295 115 Z M 294 113 L 291 117 L 284 121 L 281 124 L 279 124 L 277 122 L 277 119 L 281 113 L 286 111 L 292 111 Z M 257 109 L 251 109 L 248 110 L 243 115 L 241 119 L 240 124 L 241 125 L 242 131 L 247 136 L 251 136 L 254 133 L 257 124 L 260 120 L 261 114 Z M 363 103 L 363 105 L 365 107 L 372 109 L 379 113 L 384 113 L 385 112 L 385 108 L 384 106 L 380 102 L 376 100 L 373 100 L 372 99 L 365 100 Z M 364 103 L 367 100 L 375 100 L 379 102 L 384 107 L 385 111 L 383 113 L 380 113 L 378 111 L 366 107 L 364 105 Z M 431 87 L 425 93 L 424 96 L 425 99 L 434 105 L 442 113 L 447 113 L 452 108 L 454 103 L 452 93 L 443 85 L 436 85 Z M 437 65 L 431 66 L 424 69 L 410 82 L 410 84 L 407 88 L 403 88 L 400 86 L 391 83 L 388 83 L 387 82 L 383 82 L 382 81 L 367 81 L 366 82 L 363 82 L 361 80 L 361 74 L 362 72 L 361 71 L 357 71 L 355 72 L 346 82 L 343 82 L 334 75 L 327 74 L 324 76 L 324 79 L 326 83 L 326 85 L 324 87 L 318 87 L 317 86 L 311 86 L 308 87 L 303 93 L 292 96 L 279 104 L 278 104 L 269 94 L 265 93 L 262 91 L 256 91 L 255 90 L 253 91 L 243 92 L 231 100 L 224 114 L 224 120 L 223 121 L 224 131 L 230 143 L 234 147 L 241 150 L 243 152 L 243 155 L 235 170 L 235 181 L 228 189 L 225 194 L 225 198 L 226 199 L 229 199 L 231 201 L 226 209 L 226 215 L 228 218 L 231 218 L 233 220 L 232 226 L 231 227 L 231 232 L 230 233 L 230 240 L 232 242 L 234 242 L 237 240 L 239 242 L 239 256 L 241 260 L 246 264 L 250 263 L 273 288 L 275 292 L 275 298 L 273 300 L 271 300 L 267 296 L 262 288 L 252 279 L 247 282 L 243 277 L 241 272 L 238 269 L 236 269 L 235 271 L 231 274 L 228 271 L 224 262 L 224 260 L 220 256 L 217 258 L 216 262 L 213 264 L 206 256 L 204 251 L 196 239 L 194 239 L 191 243 L 189 243 L 186 240 L 181 232 L 166 217 L 162 210 L 162 204 L 163 203 L 164 195 L 165 194 L 165 177 L 162 170 L 156 165 L 150 165 L 148 166 L 140 175 L 139 175 L 137 173 L 136 170 L 136 165 L 133 156 L 127 150 L 123 148 L 118 148 L 116 151 L 115 161 L 114 162 L 114 166 L 115 167 L 115 175 L 114 176 L 111 174 L 103 158 L 100 155 L 97 155 L 96 154 L 86 154 L 83 158 L 83 171 L 84 172 L 84 176 L 86 179 L 86 182 L 84 183 L 79 179 L 73 177 L 68 177 L 64 181 L 63 183 L 63 191 L 64 192 L 64 195 L 67 200 L 68 206 L 58 214 L 58 223 L 61 229 L 73 243 L 77 245 L 87 254 L 93 257 L 97 261 L 107 285 L 117 300 L 128 311 L 134 315 L 140 321 L 145 323 L 151 328 L 149 331 L 145 331 L 145 334 L 148 338 L 160 344 L 167 346 L 171 348 L 174 351 L 172 354 L 172 357 L 174 359 L 189 364 L 195 365 L 198 368 L 198 372 L 201 375 L 210 375 L 211 376 L 214 376 L 218 378 L 221 381 L 221 384 L 222 385 L 228 387 L 235 387 L 239 381 L 242 372 L 242 369 L 248 363 L 248 359 L 251 351 L 253 349 L 256 351 L 255 356 L 252 361 L 252 374 L 250 377 L 250 380 L 249 381 L 248 397 L 241 405 L 238 411 L 242 414 L 242 416 L 240 420 L 233 428 L 231 433 L 232 435 L 236 435 L 238 434 L 240 437 L 238 441 L 232 448 L 227 458 L 227 462 L 230 462 L 234 459 L 236 461 L 235 468 L 229 486 L 232 487 L 236 484 L 239 486 L 239 493 L 237 498 L 237 504 L 238 505 L 241 503 L 244 504 L 244 506 L 246 509 L 248 525 L 250 528 L 250 530 L 253 534 L 258 538 L 264 540 L 270 545 L 272 545 L 274 547 L 282 551 L 288 557 L 290 563 L 296 568 L 293 570 L 284 566 L 269 549 L 261 545 L 242 528 L 238 514 L 237 513 L 234 514 L 228 519 L 228 520 L 226 521 L 221 527 L 218 536 L 217 543 L 213 552 L 213 559 L 214 560 L 214 571 L 215 572 L 215 576 L 216 577 L 217 584 L 225 593 L 229 601 L 237 609 L 246 616 L 255 619 L 258 619 L 259 620 L 263 620 L 266 621 L 268 623 L 270 623 L 272 625 L 276 625 L 277 626 L 284 627 L 290 630 L 303 642 L 304 644 L 304 649 L 306 651 L 312 651 L 317 654 L 325 654 L 327 653 L 331 649 L 332 638 L 328 626 L 325 610 L 320 598 L 320 590 L 323 585 L 324 578 L 328 571 L 328 569 L 331 563 L 360 535 L 372 529 L 376 529 L 377 528 L 380 528 L 381 529 L 381 531 L 377 535 L 359 549 L 353 555 L 353 556 L 343 565 L 341 570 L 340 578 L 339 579 L 339 586 L 338 587 L 338 606 L 339 607 L 340 616 L 344 625 L 347 636 L 349 638 L 362 638 L 363 639 L 368 639 L 369 640 L 378 641 L 396 647 L 395 649 L 357 649 L 345 656 L 340 661 L 337 666 L 333 666 L 331 667 L 326 673 L 326 677 L 328 679 L 334 682 L 339 683 L 342 681 L 341 675 L 344 672 L 351 668 L 353 670 L 353 683 L 356 686 L 359 687 L 364 687 L 366 685 L 368 676 L 372 671 L 374 672 L 374 682 L 376 685 L 382 686 L 383 687 L 390 687 L 391 688 L 415 688 L 416 687 L 437 686 L 438 685 L 454 683 L 460 681 L 466 677 L 469 672 L 469 637 L 466 628 L 462 621 L 462 619 L 458 613 L 458 611 L 455 610 L 455 601 L 458 594 L 461 591 L 470 576 L 481 565 L 485 563 L 493 555 L 499 547 L 501 542 L 508 531 L 509 525 L 510 524 L 510 520 L 511 519 L 511 515 L 512 514 L 512 510 L 513 509 L 513 490 L 514 489 L 514 485 L 513 483 L 508 479 L 501 481 L 494 490 L 486 494 L 477 503 L 465 502 L 460 506 L 458 506 L 455 508 L 442 508 L 441 507 L 436 507 L 430 505 L 422 505 L 421 504 L 418 504 L 411 501 L 404 496 L 392 492 L 387 487 L 384 480 L 381 477 L 380 474 L 380 464 L 376 455 L 377 434 L 380 427 L 384 422 L 393 419 L 397 416 L 403 414 L 419 397 L 420 395 L 420 391 L 415 382 L 415 378 L 418 376 L 422 371 L 424 371 L 426 374 L 425 377 L 425 383 L 426 386 L 428 386 L 430 384 L 430 382 L 432 380 L 436 372 L 439 369 L 442 369 L 443 370 L 443 374 L 439 380 L 439 382 L 435 391 L 423 403 L 418 412 L 401 429 L 391 432 L 383 440 L 381 443 L 381 445 L 384 449 L 387 450 L 389 452 L 394 452 L 396 454 L 395 455 L 394 466 L 389 470 L 390 476 L 394 479 L 402 479 L 403 478 L 410 477 L 416 473 L 419 473 L 421 475 L 419 481 L 411 489 L 412 492 L 421 495 L 426 495 L 430 493 L 436 493 L 442 496 L 462 496 L 463 497 L 468 497 L 472 494 L 475 485 L 483 476 L 485 475 L 489 475 L 494 471 L 497 464 L 499 462 L 501 455 L 506 447 L 509 444 L 514 433 L 514 431 L 517 428 L 519 428 L 522 430 L 523 429 L 523 425 L 520 420 L 520 416 L 522 414 L 524 414 L 527 417 L 529 416 L 530 409 L 528 406 L 528 403 L 530 401 L 533 400 L 534 395 L 538 390 L 538 387 L 539 386 L 538 379 L 536 376 L 536 374 L 531 369 L 528 364 L 528 359 L 531 357 L 531 356 L 527 353 L 515 340 L 514 338 L 515 335 L 514 331 L 506 324 L 500 322 L 498 320 L 495 319 L 490 314 L 489 309 L 485 303 L 471 299 L 469 297 L 468 294 L 464 293 L 461 290 L 453 289 L 452 288 L 445 288 L 443 286 L 451 280 L 464 268 L 466 262 L 469 258 L 471 252 L 471 249 L 472 248 L 472 245 L 474 243 L 475 244 L 478 244 L 481 241 L 482 239 L 482 235 L 480 229 L 480 224 L 482 222 L 485 224 L 487 222 L 487 215 L 483 208 L 482 202 L 484 200 L 488 201 L 490 199 L 490 197 L 488 191 L 478 181 L 478 179 L 480 177 L 485 178 L 486 177 L 486 173 L 483 169 L 475 165 L 472 162 L 472 160 L 474 158 L 474 155 L 470 151 L 468 146 L 464 141 L 462 136 L 456 127 L 457 124 L 466 116 L 469 110 L 469 107 L 470 106 L 470 92 L 464 80 L 458 74 L 447 67 L 438 66 Z M 332 669 L 333 669 L 340 677 L 340 680 L 338 682 L 336 682 L 330 679 L 327 676 L 327 674 Z M 397 648 L 400 647 L 401 649 L 398 650 Z M 298 569 L 299 568 L 302 569 L 309 569 L 310 571 L 309 572 L 303 572 L 302 571 L 299 571 Z M 233 515 L 235 514 L 238 517 L 242 530 L 259 545 L 265 548 L 281 565 L 287 569 L 289 569 L 294 572 L 300 573 L 307 576 L 312 576 L 320 581 L 320 584 L 319 585 L 319 597 L 324 611 L 325 622 L 326 623 L 327 630 L 329 633 L 329 638 L 331 641 L 331 646 L 326 652 L 324 653 L 319 653 L 315 651 L 312 648 L 310 648 L 307 645 L 306 642 L 300 637 L 300 634 L 297 631 L 294 631 L 288 627 L 276 623 L 273 623 L 266 619 L 257 618 L 256 617 L 250 616 L 243 612 L 228 598 L 225 592 L 219 586 L 217 581 L 217 573 L 214 565 L 214 551 L 217 544 L 219 533 L 222 526 Z M 117 151 L 119 149 L 123 149 L 128 152 L 132 156 L 135 165 L 133 166 L 123 155 L 121 155 L 119 157 L 117 155 Z M 441 66 L 442 67 L 445 67 L 454 72 L 461 78 L 468 88 L 470 94 L 470 105 L 469 106 L 469 109 L 466 115 L 455 125 L 455 127 L 459 132 L 461 137 L 463 139 L 472 155 L 471 162 L 474 165 L 482 169 L 485 173 L 485 175 L 483 177 L 478 176 L 477 177 L 477 181 L 479 184 L 486 190 L 489 195 L 489 198 L 488 199 L 482 199 L 481 200 L 481 204 L 486 214 L 487 219 L 485 221 L 480 221 L 479 222 L 479 228 L 480 229 L 481 238 L 478 242 L 475 242 L 474 241 L 472 242 L 470 254 L 465 264 L 461 269 L 459 269 L 457 266 L 455 267 L 456 270 L 453 273 L 453 275 L 448 279 L 439 278 L 438 279 L 438 282 L 430 288 L 429 292 L 430 293 L 433 293 L 438 290 L 441 290 L 442 289 L 455 289 L 459 291 L 462 294 L 465 295 L 468 298 L 474 301 L 478 301 L 483 303 L 487 307 L 488 313 L 493 318 L 505 324 L 513 331 L 512 334 L 513 339 L 526 353 L 526 361 L 530 369 L 535 374 L 537 378 L 537 387 L 536 388 L 533 387 L 530 388 L 530 391 L 532 394 L 532 398 L 530 400 L 528 400 L 527 402 L 527 407 L 529 411 L 527 413 L 521 410 L 518 412 L 518 419 L 513 428 L 513 432 L 511 435 L 511 439 L 507 446 L 500 454 L 499 458 L 495 465 L 495 467 L 491 472 L 487 474 L 484 474 L 476 482 L 474 487 L 469 494 L 445 495 L 435 490 L 432 490 L 426 494 L 419 493 L 416 490 L 416 488 L 422 476 L 421 473 L 418 471 L 409 476 L 406 476 L 405 477 L 396 477 L 392 474 L 392 472 L 395 471 L 395 459 L 398 451 L 395 450 L 391 452 L 387 450 L 382 445 L 384 440 L 391 433 L 393 432 L 397 432 L 404 428 L 418 413 L 426 401 L 434 394 L 444 374 L 445 369 L 443 367 L 439 367 L 436 370 L 428 384 L 425 382 L 426 372 L 423 368 L 420 368 L 419 371 L 417 373 L 412 374 L 411 375 L 411 378 L 418 388 L 418 394 L 405 411 L 402 413 L 397 413 L 395 414 L 392 417 L 385 420 L 381 424 L 376 437 L 375 455 L 379 463 L 379 477 L 384 483 L 385 487 L 388 491 L 396 495 L 401 496 L 413 503 L 419 505 L 422 505 L 423 506 L 426 506 L 427 507 L 433 507 L 434 508 L 439 508 L 440 509 L 458 509 L 460 508 L 463 511 L 463 520 L 464 521 L 482 521 L 494 514 L 499 513 L 501 511 L 504 511 L 509 507 L 511 508 L 511 513 L 509 517 L 509 520 L 505 528 L 505 530 L 503 532 L 503 537 L 499 545 L 494 552 L 482 564 L 476 567 L 470 573 L 464 585 L 460 591 L 455 596 L 454 599 L 454 603 L 453 604 L 453 617 L 454 618 L 458 618 L 463 624 L 463 627 L 467 634 L 467 637 L 468 638 L 468 669 L 467 670 L 467 673 L 458 681 L 452 682 L 451 683 L 441 684 L 440 685 L 433 685 L 432 686 L 423 686 L 422 687 L 402 687 L 401 688 L 394 688 L 393 687 L 380 686 L 375 682 L 376 668 L 374 667 L 370 670 L 367 677 L 366 683 L 363 686 L 358 686 L 354 682 L 355 667 L 354 666 L 349 666 L 345 668 L 342 668 L 341 667 L 341 662 L 347 655 L 350 654 L 352 652 L 361 649 L 395 650 L 396 651 L 414 651 L 415 650 L 411 648 L 400 647 L 399 646 L 388 644 L 377 640 L 372 640 L 371 639 L 366 639 L 365 638 L 353 638 L 350 637 L 346 631 L 344 623 L 340 614 L 340 611 L 339 610 L 339 584 L 340 583 L 340 577 L 342 573 L 342 568 L 363 546 L 371 541 L 384 528 L 383 527 L 375 528 L 366 531 L 359 535 L 331 562 L 327 571 L 323 575 L 320 575 L 316 570 L 312 567 L 305 567 L 304 566 L 300 566 L 299 565 L 295 565 L 291 562 L 288 555 L 284 551 L 276 545 L 273 544 L 267 538 L 263 536 L 259 532 L 255 533 L 251 529 L 251 527 L 249 524 L 248 518 L 247 517 L 247 510 L 244 501 L 242 500 L 239 503 L 237 501 L 238 494 L 240 489 L 240 483 L 237 481 L 232 486 L 230 484 L 233 475 L 233 472 L 236 465 L 236 458 L 235 457 L 233 459 L 230 460 L 229 459 L 229 456 L 232 449 L 241 437 L 241 435 L 239 433 L 234 435 L 232 433 L 233 429 L 240 421 L 243 415 L 243 413 L 239 409 L 250 396 L 255 395 L 259 391 L 263 383 L 260 382 L 252 393 L 249 392 L 249 384 L 253 373 L 253 362 L 257 352 L 257 348 L 255 346 L 253 347 L 249 352 L 247 357 L 247 360 L 242 366 L 238 378 L 233 382 L 226 381 L 224 379 L 222 379 L 220 377 L 215 376 L 212 374 L 202 374 L 200 372 L 200 369 L 202 367 L 201 364 L 192 364 L 177 359 L 174 356 L 177 351 L 176 349 L 169 347 L 164 344 L 161 344 L 151 339 L 147 335 L 149 332 L 154 332 L 154 329 L 147 323 L 139 319 L 117 298 L 107 283 L 97 260 L 94 257 L 87 253 L 80 246 L 76 244 L 69 238 L 59 224 L 58 221 L 58 215 L 62 211 L 65 210 L 70 206 L 83 207 L 87 202 L 85 191 L 83 189 L 78 188 L 72 185 L 69 186 L 66 190 L 64 188 L 64 182 L 68 178 L 74 178 L 78 180 L 87 190 L 91 190 L 92 189 L 100 190 L 102 189 L 105 185 L 105 177 L 101 165 L 97 162 L 90 162 L 86 168 L 84 167 L 83 159 L 86 155 L 90 154 L 99 157 L 107 167 L 112 177 L 114 179 L 118 179 L 124 183 L 129 182 L 132 179 L 135 173 L 136 173 L 138 176 L 141 176 L 150 166 L 154 165 L 158 167 L 162 171 L 165 180 L 164 197 L 163 198 L 163 202 L 162 203 L 162 207 L 161 209 L 166 218 L 181 233 L 188 244 L 191 245 L 194 241 L 196 241 L 201 247 L 208 260 L 214 266 L 216 264 L 217 260 L 219 258 L 221 258 L 223 260 L 226 266 L 226 268 L 230 275 L 233 275 L 236 271 L 239 271 L 241 273 L 245 281 L 248 284 L 250 284 L 252 281 L 254 281 L 263 290 L 265 295 L 272 302 L 273 302 L 275 300 L 275 297 L 276 296 L 276 292 L 274 288 L 254 267 L 250 260 L 247 262 L 244 262 L 241 259 L 239 255 L 240 239 L 237 238 L 235 240 L 233 240 L 231 238 L 231 230 L 233 224 L 233 217 L 232 216 L 229 216 L 227 214 L 227 209 L 229 204 L 232 201 L 232 199 L 231 198 L 227 198 L 226 197 L 226 193 L 235 182 L 235 172 L 239 163 L 241 161 L 241 159 L 244 154 L 244 151 L 242 149 L 237 148 L 230 142 L 224 130 L 224 116 L 229 104 L 237 96 L 245 92 L 248 92 L 249 91 L 259 91 L 267 94 L 277 105 L 280 105 L 283 102 L 296 95 L 299 95 L 305 93 L 306 90 L 310 87 L 322 87 L 323 88 L 326 88 L 327 87 L 327 84 L 325 80 L 325 77 L 327 75 L 332 75 L 336 77 L 340 81 L 345 83 L 347 82 L 356 72 L 358 72 L 360 74 L 360 82 L 361 83 L 367 83 L 368 82 L 383 82 L 384 83 L 395 85 L 404 89 L 408 89 L 411 82 L 423 71 L 433 66 Z M 445 58 L 434 57 L 433 58 L 428 58 L 422 60 L 413 65 L 402 77 L 399 77 L 394 75 L 389 75 L 388 74 L 376 74 L 375 73 L 372 73 L 364 62 L 358 62 L 344 71 L 342 71 L 333 66 L 323 66 L 318 71 L 317 77 L 314 80 L 309 80 L 308 81 L 302 82 L 284 91 L 277 90 L 270 85 L 266 84 L 263 82 L 260 82 L 259 81 L 251 81 L 250 82 L 246 82 L 240 84 L 226 92 L 220 99 L 217 105 L 215 111 L 215 114 L 214 115 L 214 120 L 213 121 L 214 134 L 217 142 L 219 145 L 231 156 L 231 159 L 225 170 L 224 181 L 215 193 L 215 201 L 218 204 L 218 210 L 216 213 L 216 221 L 223 229 L 223 233 L 222 234 L 222 244 L 219 247 L 215 248 L 211 246 L 206 241 L 202 233 L 197 228 L 189 228 L 184 223 L 180 216 L 174 210 L 172 204 L 173 203 L 173 199 L 175 194 L 175 182 L 174 181 L 174 176 L 172 170 L 166 161 L 162 158 L 151 158 L 145 160 L 140 154 L 136 147 L 131 142 L 127 140 L 118 140 L 114 142 L 104 150 L 94 144 L 88 144 L 81 148 L 77 152 L 73 159 L 73 165 L 70 168 L 66 168 L 62 170 L 54 179 L 54 181 L 52 184 L 52 192 L 56 200 L 56 202 L 49 210 L 47 215 L 48 225 L 56 239 L 59 243 L 71 254 L 88 266 L 90 270 L 91 276 L 106 302 L 125 322 L 129 324 L 134 329 L 134 337 L 143 345 L 146 346 L 148 348 L 154 350 L 159 355 L 161 362 L 164 365 L 170 368 L 176 369 L 184 372 L 186 374 L 186 376 L 189 381 L 204 384 L 216 391 L 224 397 L 228 397 L 231 400 L 229 410 L 228 411 L 228 419 L 223 425 L 220 432 L 220 436 L 222 440 L 222 446 L 218 455 L 218 464 L 219 465 L 220 473 L 221 474 L 221 480 L 220 481 L 220 495 L 223 501 L 224 506 L 218 513 L 215 519 L 215 521 L 213 523 L 207 535 L 204 544 L 204 547 L 202 551 L 202 565 L 203 566 L 203 579 L 204 580 L 204 584 L 210 596 L 211 601 L 219 616 L 225 622 L 233 626 L 258 634 L 266 640 L 274 644 L 276 644 L 288 650 L 300 654 L 306 660 L 309 666 L 309 671 L 311 676 L 323 689 L 331 692 L 339 693 L 343 695 L 352 696 L 353 697 L 364 697 L 365 698 L 392 698 L 393 699 L 420 698 L 421 697 L 428 697 L 429 696 L 436 696 L 437 695 L 442 695 L 443 694 L 455 693 L 456 692 L 462 691 L 467 688 L 478 677 L 482 667 L 482 662 L 483 661 L 482 643 L 474 620 L 473 594 L 486 576 L 493 569 L 497 567 L 506 558 L 512 549 L 520 541 L 526 538 L 531 533 L 542 517 L 546 506 L 546 500 L 547 499 L 546 487 L 543 481 L 540 470 L 536 466 L 533 465 L 527 460 L 527 449 L 528 448 L 528 440 L 529 439 L 529 436 L 531 434 L 531 432 L 533 430 L 534 426 L 542 411 L 543 405 L 545 401 L 548 399 L 552 394 L 552 391 L 553 390 L 552 379 L 549 372 L 537 359 L 534 346 L 530 341 L 527 331 L 525 328 L 510 313 L 510 312 L 490 293 L 479 288 L 473 284 L 470 284 L 468 282 L 481 256 L 487 250 L 488 247 L 488 239 L 497 226 L 497 215 L 495 210 L 500 204 L 500 198 L 494 188 L 494 183 L 496 180 L 496 171 L 495 169 L 484 159 L 484 157 L 478 144 L 472 137 L 469 131 L 470 126 L 477 118 L 481 108 L 481 97 L 480 96 L 480 91 L 478 85 L 473 76 L 464 67 L 451 60 Z M 442 58 L 443 59 L 449 60 L 463 67 L 473 77 L 478 86 L 480 92 L 480 97 L 481 98 L 480 110 L 475 120 L 472 122 L 469 126 L 469 132 L 473 139 L 478 145 L 482 153 L 485 162 L 488 165 L 491 166 L 496 172 L 496 179 L 493 183 L 493 188 L 500 198 L 500 203 L 494 210 L 497 216 L 497 224 L 488 238 L 488 246 L 487 249 L 480 257 L 475 268 L 473 270 L 467 281 L 467 284 L 469 285 L 470 284 L 471 285 L 474 285 L 483 291 L 485 291 L 487 293 L 490 294 L 495 300 L 505 308 L 525 329 L 528 338 L 534 347 L 535 350 L 535 358 L 547 370 L 552 380 L 552 392 L 550 396 L 542 402 L 540 413 L 535 421 L 533 429 L 528 436 L 528 439 L 527 440 L 527 452 L 526 453 L 526 460 L 527 463 L 533 465 L 539 471 L 543 480 L 543 482 L 546 488 L 546 505 L 542 516 L 535 525 L 532 531 L 526 537 L 519 541 L 512 548 L 507 556 L 499 565 L 487 574 L 479 586 L 473 593 L 473 617 L 474 618 L 474 622 L 477 628 L 478 634 L 481 640 L 481 645 L 482 646 L 482 665 L 478 676 L 465 689 L 454 693 L 447 693 L 446 694 L 440 694 L 439 695 L 433 695 L 432 696 L 425 696 L 424 697 L 417 697 L 416 698 L 367 698 L 366 697 L 355 697 L 354 696 L 344 695 L 341 693 L 338 693 L 337 692 L 329 691 L 323 688 L 312 676 L 311 673 L 311 660 L 307 660 L 300 653 L 289 650 L 284 646 L 273 643 L 256 633 L 232 625 L 225 621 L 220 616 L 211 600 L 210 595 L 204 583 L 204 578 L 203 577 L 203 564 L 202 563 L 202 552 L 205 545 L 206 538 L 210 530 L 214 525 L 218 517 L 218 515 L 225 507 L 225 503 L 221 496 L 221 493 L 220 492 L 221 472 L 218 463 L 218 456 L 222 448 L 222 440 L 220 436 L 220 433 L 223 426 L 228 420 L 228 413 L 229 412 L 230 404 L 233 396 L 232 395 L 230 396 L 224 396 L 220 394 L 216 390 L 202 383 L 196 383 L 190 381 L 187 378 L 185 372 L 166 366 L 162 362 L 160 356 L 156 351 L 151 348 L 145 346 L 139 342 L 134 337 L 134 328 L 131 325 L 127 323 L 109 305 L 107 301 L 104 298 L 91 275 L 90 269 L 88 265 L 78 259 L 58 241 L 49 226 L 48 223 L 48 214 L 49 211 L 56 203 L 56 199 L 53 193 L 53 182 L 55 178 L 62 171 L 67 169 L 70 169 L 73 167 L 74 158 L 77 153 L 82 148 L 85 147 L 87 145 L 93 145 L 104 151 L 114 143 L 118 141 L 128 141 L 136 148 L 142 158 L 145 161 L 148 161 L 151 159 L 161 159 L 168 165 L 171 169 L 174 177 L 175 191 L 174 192 L 174 197 L 172 201 L 172 207 L 175 212 L 179 216 L 184 224 L 189 229 L 197 229 L 201 233 L 206 242 L 211 247 L 213 248 L 223 247 L 224 246 L 222 240 L 223 228 L 216 220 L 216 214 L 219 209 L 220 204 L 215 200 L 215 194 L 218 189 L 225 181 L 225 172 L 231 160 L 232 156 L 230 153 L 226 151 L 219 144 L 216 139 L 214 133 L 214 116 L 218 104 L 225 94 L 235 87 L 248 82 L 260 82 L 266 84 L 280 92 L 284 92 L 304 82 L 311 81 L 312 80 L 316 80 L 318 77 L 318 72 L 323 67 L 329 66 L 344 72 L 347 71 L 354 65 L 358 63 L 363 63 L 367 67 L 369 72 L 371 74 L 383 74 L 384 75 L 391 75 L 392 76 L 396 76 L 397 77 L 403 78 L 405 76 L 406 73 L 412 67 L 418 63 L 427 59 L 431 59 L 432 58 Z" fill="#B1B1B1" fill-rule="evenodd"/><path d="M 299 569 L 299 570 L 302 570 L 303 571 L 309 571 L 309 570 L 302 570 L 301 569 Z M 268 191 L 268 193 L 267 194 L 267 206 L 268 207 L 269 211 L 274 217 L 284 222 L 288 226 L 290 237 L 293 242 L 293 244 L 295 248 L 297 250 L 298 253 L 301 256 L 301 257 L 305 261 L 305 262 L 312 269 L 313 269 L 318 273 L 320 273 L 320 271 L 314 260 L 314 253 L 316 250 L 316 248 L 326 237 L 332 234 L 335 231 L 337 231 L 340 229 L 349 229 L 350 230 L 352 230 L 356 232 L 363 239 L 364 241 L 364 248 L 363 249 L 361 257 L 359 260 L 359 262 L 357 265 L 359 266 L 362 263 L 365 258 L 365 256 L 367 253 L 367 251 L 369 247 L 369 243 L 370 242 L 370 239 L 371 238 L 371 232 L 372 231 L 372 215 L 371 214 L 371 206 L 370 205 L 370 202 L 367 197 L 365 197 L 363 199 L 361 203 L 356 208 L 352 209 L 347 212 L 345 212 L 341 214 L 337 214 L 336 215 L 320 215 L 319 214 L 315 214 L 314 213 L 303 211 L 293 217 L 291 217 L 290 218 L 282 218 L 275 212 L 271 204 L 271 190 L 269 190 Z M 324 178 L 317 173 L 315 173 L 311 171 L 300 171 L 299 172 L 296 172 L 295 173 L 289 174 L 283 177 L 281 177 L 279 179 L 279 181 L 277 185 L 277 188 L 278 190 L 287 198 L 291 200 L 296 201 L 297 202 L 300 202 L 301 201 L 304 201 L 305 200 L 310 199 L 318 195 L 322 191 L 325 186 L 325 180 Z M 284 149 L 282 149 L 279 152 L 277 159 L 276 160 L 276 170 L 279 173 L 282 172 L 287 167 L 287 165 L 289 161 L 289 155 L 287 151 Z M 365 144 L 362 147 L 361 151 L 360 152 L 360 164 L 361 165 L 361 167 L 364 170 L 370 170 L 373 167 L 375 163 L 375 152 L 373 148 L 370 145 L 368 144 Z M 293 113 L 292 112 L 286 112 L 285 113 L 281 114 L 278 119 L 278 122 L 279 123 L 281 123 L 284 120 L 291 116 L 293 114 Z M 365 103 L 365 105 L 368 107 L 370 107 L 376 110 L 378 110 L 380 112 L 383 112 L 384 111 L 383 107 L 379 103 L 375 101 L 367 101 Z M 442 59 L 432 59 L 431 60 L 427 60 L 418 64 L 416 66 L 412 68 L 407 73 L 406 76 L 403 79 L 397 78 L 396 77 L 392 77 L 391 76 L 384 76 L 383 75 L 371 75 L 368 72 L 366 67 L 363 64 L 358 64 L 354 66 L 347 72 L 345 72 L 344 73 L 340 72 L 333 68 L 330 68 L 329 67 L 323 68 L 319 72 L 319 77 L 316 81 L 312 81 L 311 82 L 307 82 L 306 83 L 304 83 L 284 93 L 280 93 L 272 89 L 270 87 L 266 85 L 261 84 L 260 83 L 248 83 L 247 84 L 244 84 L 241 86 L 239 86 L 235 88 L 233 90 L 230 91 L 226 95 L 225 95 L 219 104 L 219 106 L 217 109 L 216 115 L 215 116 L 215 133 L 216 134 L 217 139 L 220 144 L 226 150 L 230 152 L 233 156 L 232 160 L 226 172 L 226 181 L 225 183 L 219 189 L 216 194 L 216 200 L 221 204 L 220 206 L 220 209 L 217 214 L 217 220 L 224 228 L 223 240 L 224 241 L 225 246 L 223 248 L 219 248 L 218 249 L 213 249 L 211 248 L 205 242 L 202 236 L 197 230 L 189 230 L 183 224 L 181 220 L 174 212 L 171 207 L 171 201 L 173 197 L 174 186 L 173 185 L 173 177 L 172 176 L 170 169 L 167 166 L 167 165 L 161 160 L 151 160 L 148 162 L 145 162 L 141 158 L 135 148 L 128 142 L 118 142 L 114 144 L 110 148 L 109 148 L 104 152 L 101 151 L 98 148 L 94 147 L 93 146 L 87 146 L 85 148 L 82 149 L 78 153 L 75 158 L 75 161 L 74 162 L 74 167 L 70 170 L 67 170 L 66 171 L 62 172 L 56 178 L 54 182 L 54 193 L 57 199 L 57 203 L 56 205 L 50 211 L 50 213 L 49 214 L 49 223 L 50 224 L 50 226 L 59 241 L 73 254 L 74 254 L 78 258 L 79 258 L 84 262 L 87 263 L 89 265 L 91 269 L 92 275 L 97 285 L 104 295 L 105 298 L 108 301 L 110 305 L 127 322 L 131 324 L 135 328 L 135 337 L 139 341 L 140 341 L 145 345 L 149 347 L 151 347 L 156 350 L 159 353 L 159 354 L 161 356 L 161 358 L 163 362 L 166 365 L 168 365 L 171 367 L 177 368 L 178 369 L 185 371 L 187 373 L 188 378 L 190 380 L 192 381 L 195 381 L 196 382 L 202 382 L 216 389 L 220 393 L 224 395 L 230 395 L 232 394 L 234 396 L 232 403 L 231 404 L 230 412 L 229 413 L 229 420 L 224 426 L 221 433 L 221 436 L 223 440 L 223 448 L 219 456 L 219 463 L 220 464 L 220 467 L 221 468 L 221 471 L 222 472 L 221 492 L 222 493 L 222 496 L 226 503 L 226 507 L 225 509 L 219 515 L 219 517 L 215 525 L 211 530 L 207 538 L 206 545 L 203 552 L 203 563 L 204 564 L 204 577 L 205 578 L 205 583 L 211 595 L 212 600 L 215 606 L 217 608 L 218 611 L 220 613 L 221 616 L 225 620 L 228 621 L 232 624 L 234 624 L 239 627 L 241 627 L 242 628 L 256 632 L 273 642 L 275 642 L 278 644 L 284 645 L 289 649 L 300 652 L 307 659 L 311 659 L 312 660 L 312 673 L 313 674 L 313 676 L 323 687 L 329 690 L 337 691 L 338 692 L 341 692 L 344 694 L 354 695 L 355 696 L 366 696 L 367 697 L 416 697 L 417 696 L 432 695 L 433 694 L 439 694 L 440 693 L 446 693 L 447 692 L 454 692 L 455 691 L 458 691 L 465 688 L 477 676 L 479 669 L 480 668 L 480 666 L 481 665 L 481 646 L 480 645 L 480 640 L 477 634 L 476 628 L 473 622 L 473 618 L 472 617 L 472 593 L 478 586 L 478 585 L 480 583 L 482 579 L 486 575 L 486 574 L 502 561 L 502 560 L 509 552 L 511 548 L 519 540 L 526 536 L 531 531 L 534 525 L 541 516 L 544 509 L 544 506 L 545 505 L 545 488 L 544 487 L 544 485 L 542 482 L 542 480 L 540 477 L 540 475 L 538 471 L 533 466 L 531 465 L 528 465 L 526 463 L 526 461 L 525 460 L 525 453 L 526 452 L 526 440 L 527 439 L 527 436 L 532 429 L 534 421 L 536 419 L 539 413 L 541 402 L 547 397 L 548 397 L 551 392 L 551 380 L 546 370 L 534 358 L 534 350 L 533 349 L 533 347 L 528 340 L 524 329 L 510 315 L 510 314 L 505 309 L 504 309 L 500 305 L 499 305 L 490 295 L 487 294 L 485 292 L 483 292 L 481 290 L 474 286 L 471 286 L 470 285 L 469 286 L 466 284 L 466 281 L 468 277 L 470 275 L 472 270 L 474 268 L 479 257 L 486 249 L 486 247 L 487 246 L 487 238 L 496 224 L 496 216 L 493 210 L 499 203 L 499 198 L 492 188 L 492 183 L 495 179 L 495 172 L 491 167 L 488 166 L 484 162 L 483 158 L 481 155 L 481 153 L 477 145 L 472 139 L 468 132 L 468 126 L 470 124 L 470 123 L 474 120 L 479 110 L 480 98 L 479 97 L 479 92 L 478 91 L 477 86 L 472 77 L 463 68 L 460 67 L 456 64 L 454 64 L 449 61 L 443 60 Z M 529 475 L 532 478 L 533 482 L 534 483 L 536 503 L 535 504 L 534 510 L 530 518 L 523 526 L 521 524 L 521 522 L 522 521 L 522 517 L 523 516 L 523 508 L 524 507 L 524 504 L 525 503 L 524 480 L 526 478 L 526 476 L 527 475 Z M 515 454 L 517 454 L 519 456 L 519 463 L 516 466 L 513 466 L 511 464 L 511 462 L 512 461 L 513 456 Z M 437 64 L 438 65 L 443 65 L 444 66 L 447 66 L 458 73 L 465 80 L 470 89 L 470 91 L 471 92 L 471 106 L 470 107 L 470 110 L 467 116 L 458 124 L 457 127 L 459 129 L 465 141 L 469 146 L 471 151 L 475 155 L 475 158 L 473 160 L 473 162 L 475 164 L 483 168 L 487 173 L 487 177 L 485 179 L 482 179 L 480 178 L 479 179 L 479 181 L 489 191 L 490 193 L 490 196 L 491 197 L 491 199 L 488 202 L 486 202 L 485 201 L 483 202 L 484 208 L 488 215 L 488 222 L 485 225 L 483 223 L 481 224 L 481 229 L 482 230 L 482 234 L 483 235 L 483 239 L 482 241 L 478 245 L 475 245 L 474 244 L 473 245 L 473 248 L 472 249 L 472 252 L 471 253 L 470 258 L 467 262 L 467 264 L 465 268 L 451 281 L 450 281 L 444 286 L 445 287 L 452 287 L 453 288 L 458 288 L 459 289 L 461 289 L 464 292 L 468 293 L 470 295 L 470 297 L 471 298 L 485 302 L 490 309 L 490 312 L 491 314 L 495 318 L 498 319 L 500 321 L 502 321 L 506 323 L 515 331 L 516 333 L 516 335 L 515 336 L 516 340 L 520 344 L 520 345 L 532 356 L 532 357 L 529 359 L 529 364 L 532 369 L 537 374 L 537 376 L 539 379 L 539 383 L 540 384 L 540 386 L 539 387 L 539 390 L 535 395 L 534 400 L 532 402 L 530 402 L 529 403 L 529 406 L 531 409 L 531 411 L 530 412 L 530 416 L 528 418 L 527 418 L 524 415 L 522 415 L 521 416 L 521 420 L 524 425 L 524 429 L 522 431 L 519 429 L 517 429 L 515 431 L 513 438 L 510 444 L 507 447 L 504 453 L 502 455 L 500 462 L 498 464 L 495 471 L 491 475 L 483 477 L 476 485 L 476 487 L 474 490 L 473 494 L 468 498 L 463 498 L 462 497 L 442 497 L 436 494 L 430 494 L 426 496 L 421 496 L 420 495 L 417 495 L 416 494 L 412 493 L 410 491 L 410 489 L 418 481 L 420 475 L 419 474 L 416 474 L 414 476 L 410 478 L 407 478 L 406 479 L 403 479 L 402 480 L 394 480 L 392 479 L 389 476 L 388 470 L 393 466 L 394 455 L 395 454 L 394 453 L 389 453 L 387 451 L 384 450 L 380 445 L 380 443 L 382 441 L 382 440 L 391 431 L 401 428 L 417 412 L 417 411 L 421 406 L 422 403 L 434 391 L 436 387 L 436 385 L 438 382 L 438 380 L 440 378 L 442 374 L 442 370 L 439 370 L 437 372 L 433 380 L 431 382 L 431 384 L 428 387 L 426 387 L 425 386 L 425 384 L 424 383 L 424 377 L 425 376 L 425 374 L 424 372 L 422 372 L 421 374 L 416 378 L 416 382 L 421 391 L 421 395 L 420 397 L 403 415 L 399 417 L 397 417 L 393 420 L 391 420 L 384 423 L 381 427 L 378 434 L 377 455 L 381 464 L 381 474 L 382 475 L 382 477 L 385 480 L 388 487 L 392 491 L 396 493 L 399 493 L 402 495 L 404 495 L 411 500 L 418 503 L 421 503 L 422 504 L 430 504 L 431 505 L 441 506 L 442 507 L 455 507 L 458 505 L 460 505 L 465 501 L 477 502 L 486 493 L 494 489 L 501 480 L 508 478 L 510 480 L 511 480 L 515 485 L 515 489 L 514 490 L 514 509 L 513 510 L 513 514 L 512 515 L 512 519 L 511 520 L 511 524 L 510 525 L 509 531 L 507 535 L 505 537 L 504 540 L 502 542 L 500 547 L 494 554 L 494 555 L 485 564 L 481 566 L 471 576 L 471 577 L 468 580 L 466 585 L 459 594 L 456 601 L 456 610 L 458 610 L 459 611 L 459 613 L 461 617 L 463 619 L 463 621 L 467 628 L 467 630 L 469 633 L 469 636 L 470 637 L 470 672 L 467 677 L 460 682 L 458 682 L 454 684 L 450 684 L 449 685 L 438 686 L 437 687 L 430 687 L 429 688 L 416 688 L 415 689 L 391 689 L 390 688 L 383 688 L 382 687 L 376 686 L 373 682 L 373 672 L 372 672 L 369 676 L 367 685 L 364 688 L 359 688 L 358 687 L 356 687 L 352 683 L 352 670 L 351 669 L 350 669 L 342 675 L 343 681 L 339 684 L 334 683 L 328 680 L 325 677 L 325 673 L 331 666 L 333 665 L 337 665 L 339 661 L 345 655 L 353 651 L 357 648 L 395 648 L 395 647 L 393 647 L 389 645 L 386 645 L 385 644 L 379 643 L 378 642 L 369 641 L 368 640 L 363 640 L 362 639 L 349 639 L 345 634 L 345 631 L 344 630 L 343 625 L 341 622 L 341 620 L 339 616 L 339 613 L 338 612 L 338 607 L 337 606 L 337 587 L 338 586 L 338 579 L 339 578 L 339 575 L 340 574 L 340 570 L 341 569 L 342 565 L 346 561 L 347 561 L 359 548 L 360 548 L 364 544 L 369 541 L 376 534 L 377 534 L 380 531 L 380 529 L 372 530 L 360 536 L 332 563 L 329 569 L 329 571 L 325 578 L 325 580 L 324 581 L 324 585 L 321 590 L 321 598 L 326 610 L 326 613 L 327 614 L 327 617 L 328 618 L 328 622 L 329 623 L 329 626 L 330 627 L 331 633 L 332 634 L 332 637 L 333 638 L 333 645 L 332 646 L 332 649 L 327 654 L 325 655 L 317 655 L 312 652 L 306 652 L 303 649 L 303 644 L 302 642 L 300 640 L 299 640 L 290 631 L 284 628 L 281 628 L 280 627 L 277 627 L 276 626 L 272 626 L 270 624 L 268 624 L 266 622 L 264 622 L 263 621 L 259 621 L 258 620 L 255 620 L 254 619 L 246 617 L 238 610 L 237 610 L 228 601 L 224 593 L 216 584 L 216 581 L 215 580 L 215 577 L 214 576 L 214 572 L 213 571 L 213 560 L 212 559 L 212 552 L 214 549 L 214 547 L 216 543 L 216 540 L 217 539 L 217 536 L 218 535 L 220 527 L 225 522 L 225 521 L 227 520 L 227 519 L 234 513 L 237 512 L 239 514 L 239 516 L 242 523 L 242 526 L 248 533 L 249 533 L 253 537 L 254 537 L 261 544 L 269 548 L 284 565 L 293 569 L 295 568 L 289 563 L 287 557 L 282 552 L 274 548 L 272 546 L 270 546 L 264 541 L 258 539 L 252 534 L 252 533 L 249 530 L 249 528 L 247 525 L 247 522 L 246 521 L 246 515 L 245 514 L 245 509 L 243 506 L 243 504 L 241 504 L 239 506 L 238 506 L 236 504 L 236 498 L 237 497 L 237 494 L 238 493 L 238 486 L 236 485 L 232 488 L 230 488 L 228 486 L 228 484 L 229 483 L 229 481 L 230 480 L 230 478 L 231 477 L 231 475 L 234 468 L 235 461 L 234 460 L 230 463 L 227 463 L 226 462 L 226 458 L 231 448 L 237 441 L 239 437 L 238 435 L 236 436 L 232 436 L 230 434 L 230 433 L 231 432 L 232 428 L 239 420 L 241 416 L 241 414 L 239 413 L 237 411 L 237 410 L 240 405 L 246 399 L 247 397 L 247 388 L 248 387 L 248 381 L 249 380 L 249 377 L 251 374 L 251 361 L 254 356 L 255 351 L 254 350 L 252 351 L 250 355 L 249 363 L 243 369 L 243 372 L 242 373 L 240 381 L 238 385 L 235 388 L 228 388 L 227 387 L 222 386 L 220 384 L 220 381 L 218 379 L 214 377 L 211 377 L 210 376 L 201 376 L 197 372 L 197 368 L 195 366 L 189 365 L 188 364 L 174 360 L 171 357 L 171 354 L 173 352 L 173 351 L 171 349 L 167 347 L 160 345 L 148 339 L 145 336 L 144 334 L 144 331 L 145 330 L 149 330 L 150 328 L 145 324 L 140 322 L 134 316 L 133 316 L 129 312 L 128 312 L 116 300 L 116 299 L 110 292 L 108 287 L 106 285 L 96 261 L 93 258 L 87 255 L 77 246 L 73 244 L 60 229 L 57 223 L 57 214 L 62 209 L 67 206 L 67 203 L 63 195 L 63 192 L 62 191 L 62 183 L 63 181 L 68 176 L 73 176 L 74 177 L 79 178 L 81 180 L 85 182 L 85 179 L 83 176 L 83 172 L 82 171 L 82 158 L 83 156 L 86 153 L 96 153 L 97 154 L 100 154 L 104 158 L 112 174 L 114 175 L 114 167 L 113 166 L 113 162 L 114 161 L 114 155 L 115 154 L 115 151 L 118 147 L 123 147 L 127 149 L 134 156 L 135 160 L 136 161 L 136 164 L 137 165 L 137 170 L 139 174 L 140 174 L 145 169 L 145 168 L 150 164 L 156 164 L 163 170 L 166 177 L 166 194 L 165 195 L 165 199 L 164 200 L 164 203 L 163 204 L 163 210 L 166 214 L 167 217 L 182 232 L 187 240 L 189 242 L 191 242 L 194 238 L 196 238 L 199 241 L 200 244 L 205 251 L 207 256 L 213 263 L 215 262 L 216 258 L 219 255 L 220 255 L 225 260 L 227 267 L 229 271 L 231 273 L 232 273 L 236 268 L 238 268 L 242 272 L 244 277 L 247 281 L 252 278 L 263 288 L 268 296 L 271 299 L 273 299 L 274 298 L 274 292 L 272 288 L 251 266 L 250 264 L 246 265 L 240 260 L 238 256 L 238 242 L 237 241 L 234 243 L 232 243 L 229 240 L 229 233 L 230 232 L 230 227 L 231 226 L 232 220 L 231 219 L 228 219 L 226 217 L 225 215 L 225 209 L 228 203 L 230 201 L 229 200 L 226 200 L 224 198 L 224 194 L 227 189 L 233 183 L 234 181 L 234 170 L 242 155 L 242 152 L 241 151 L 234 148 L 229 143 L 223 131 L 223 126 L 222 125 L 223 114 L 230 100 L 233 97 L 243 91 L 246 91 L 247 90 L 253 90 L 255 89 L 256 90 L 262 90 L 265 92 L 269 93 L 272 96 L 272 97 L 278 103 L 279 103 L 292 95 L 303 92 L 308 86 L 310 86 L 311 85 L 324 86 L 325 85 L 325 83 L 323 79 L 323 76 L 327 73 L 331 73 L 332 74 L 334 74 L 343 81 L 346 81 L 347 79 L 355 71 L 357 70 L 361 70 L 363 72 L 362 74 L 362 80 L 363 81 L 366 81 L 367 80 L 382 80 L 383 81 L 391 82 L 392 83 L 400 85 L 403 87 L 407 87 L 409 84 L 409 82 L 424 68 L 431 65 Z" fill="#010101" fill-rule="evenodd"/></svg>