<svg xmlns="http://www.w3.org/2000/svg" viewBox="0 0 653 704" shape-rendering="geometricPrecision"><title>intro frame 080</title><path d="M 216 528 L 214 530 L 212 537 L 209 542 L 210 543 L 212 541 L 215 541 L 217 543 L 217 546 L 215 549 L 214 555 L 212 559 L 211 569 L 210 570 L 211 571 L 214 569 L 216 569 L 218 571 L 218 578 L 216 582 L 216 585 L 217 586 L 219 585 L 221 587 L 222 602 L 227 617 L 233 624 L 244 624 L 245 625 L 251 626 L 255 628 L 258 631 L 258 633 L 257 634 L 250 634 L 249 633 L 244 633 L 243 632 L 226 631 L 225 632 L 219 632 L 218 633 L 212 634 L 208 636 L 203 641 L 200 647 L 199 660 L 202 665 L 203 664 L 204 656 L 207 650 L 210 647 L 216 645 L 219 648 L 219 652 L 216 660 L 216 668 L 218 670 L 226 671 L 227 670 L 228 660 L 230 655 L 235 650 L 240 650 L 242 652 L 242 659 L 240 663 L 240 671 L 242 673 L 264 673 L 265 672 L 270 672 L 275 667 L 279 666 L 284 662 L 287 661 L 293 654 L 293 647 L 286 641 L 286 635 L 290 632 L 290 630 L 287 624 L 287 615 L 274 602 L 272 597 L 272 595 L 274 594 L 277 595 L 282 600 L 283 599 L 281 595 L 283 593 L 286 593 L 286 591 L 273 578 L 265 572 L 253 559 L 248 557 L 245 554 L 245 551 L 243 548 L 233 542 L 219 529 Z M 248 588 L 250 590 L 248 593 L 246 591 Z M 255 580 L 259 583 L 261 588 L 263 590 L 264 593 L 263 595 L 260 595 L 254 587 L 254 581 Z M 269 578 L 271 579 L 271 588 L 272 589 L 272 591 L 270 593 L 266 588 L 266 581 Z M 237 573 L 239 575 L 238 577 L 234 580 L 232 577 L 235 573 Z M 428 501 L 422 507 L 418 507 L 395 527 L 390 528 L 387 531 L 376 548 L 376 553 L 373 557 L 373 563 L 374 564 L 375 577 L 376 578 L 376 586 L 378 587 L 383 593 L 384 604 L 389 609 L 392 618 L 392 621 L 393 623 L 397 626 L 399 633 L 401 636 L 401 639 L 402 640 L 401 662 L 404 668 L 409 673 L 419 677 L 426 678 L 427 677 L 427 663 L 429 659 L 432 656 L 436 655 L 441 660 L 443 676 L 447 679 L 458 679 L 459 678 L 459 659 L 462 656 L 467 656 L 473 663 L 474 666 L 474 676 L 475 677 L 480 677 L 481 676 L 484 676 L 487 672 L 487 668 L 486 667 L 487 665 L 487 662 L 486 661 L 486 654 L 489 650 L 494 650 L 499 655 L 504 670 L 508 666 L 508 664 L 510 661 L 510 649 L 506 641 L 494 630 L 483 629 L 481 627 L 478 627 L 470 620 L 468 616 L 472 611 L 474 612 L 476 609 L 475 602 L 477 600 L 477 594 L 475 590 L 475 580 L 473 576 L 473 573 L 471 571 L 459 572 L 450 568 L 448 566 L 446 566 L 442 563 L 442 561 L 444 559 L 446 559 L 447 560 L 450 560 L 451 561 L 454 561 L 463 564 L 467 567 L 471 568 L 471 563 L 470 561 L 465 556 L 456 551 L 451 546 L 453 543 L 457 543 L 462 546 L 468 548 L 469 545 L 462 535 L 458 533 L 455 533 L 449 529 L 451 526 L 459 526 L 460 525 L 458 524 L 447 512 L 445 512 L 442 510 L 434 501 Z M 439 634 L 442 631 L 449 630 L 450 629 L 454 629 L 455 628 L 459 628 L 460 627 L 462 628 L 473 627 L 474 628 L 477 628 L 481 631 L 481 633 L 479 635 L 463 635 L 462 636 L 447 636 L 446 637 L 442 637 Z M 424 567 L 435 577 L 437 580 L 436 583 L 433 583 L 424 575 L 422 572 L 422 569 Z M 413 567 L 415 569 L 415 576 L 411 579 L 409 577 L 409 571 L 410 569 Z M 385 552 L 387 553 L 387 557 L 386 558 L 384 558 L 382 556 Z M 406 489 L 403 494 L 403 497 L 399 505 L 399 512 L 400 512 L 404 507 L 404 503 L 407 499 L 407 490 Z M 228 267 L 226 267 L 224 269 L 222 269 L 215 273 L 218 276 L 218 278 L 214 282 L 203 288 L 201 290 L 199 290 L 197 292 L 192 294 L 192 295 L 193 294 L 199 294 L 200 297 L 187 307 L 177 312 L 177 313 L 180 313 L 182 316 L 172 325 L 161 332 L 161 333 L 163 333 L 165 335 L 165 337 L 162 340 L 150 347 L 106 393 L 99 397 L 93 397 L 89 399 L 85 399 L 79 401 L 73 405 L 71 409 L 72 410 L 78 405 L 84 403 L 96 403 L 97 404 L 100 404 L 104 408 L 104 413 L 103 415 L 96 422 L 94 423 L 88 423 L 87 424 L 91 429 L 91 433 L 92 435 L 93 435 L 94 427 L 101 419 L 104 418 L 107 415 L 116 414 L 117 415 L 122 415 L 130 419 L 141 430 L 142 433 L 147 438 L 150 438 L 158 430 L 160 426 L 169 416 L 170 413 L 173 410 L 180 399 L 183 396 L 186 396 L 188 394 L 193 386 L 193 376 L 194 375 L 194 372 L 200 360 L 200 356 L 199 354 L 200 353 L 201 342 L 203 336 L 208 328 L 208 320 L 214 312 L 214 306 L 220 297 L 219 292 L 223 285 L 226 276 L 228 274 L 228 271 L 229 270 Z M 412 26 L 404 25 L 403 26 L 395 27 L 389 30 L 381 37 L 379 40 L 378 45 L 376 47 L 373 47 L 363 42 L 360 42 L 348 38 L 332 38 L 331 39 L 327 39 L 325 37 L 328 29 L 327 28 L 325 28 L 322 30 L 315 37 L 310 37 L 305 33 L 298 30 L 297 32 L 299 35 L 299 39 L 297 41 L 278 41 L 274 45 L 262 48 L 254 52 L 248 57 L 245 57 L 243 55 L 242 50 L 235 43 L 226 39 L 219 39 L 218 40 L 214 40 L 211 42 L 208 42 L 202 46 L 197 51 L 192 61 L 192 64 L 191 65 L 191 74 L 194 82 L 201 90 L 206 93 L 208 93 L 211 97 L 200 119 L 200 122 L 199 123 L 200 130 L 188 143 L 189 144 L 193 143 L 196 146 L 196 149 L 189 161 L 190 163 L 193 162 L 196 165 L 193 174 L 193 177 L 191 181 L 191 185 L 193 186 L 195 184 L 197 184 L 200 187 L 199 189 L 199 194 L 198 195 L 198 204 L 199 205 L 199 208 L 201 209 L 205 205 L 208 207 L 211 222 L 212 222 L 213 220 L 216 220 L 220 224 L 222 228 L 229 229 L 233 233 L 235 233 L 244 239 L 253 248 L 256 253 L 256 255 L 254 257 L 249 255 L 245 255 L 244 256 L 244 261 L 242 265 L 234 272 L 234 274 L 236 276 L 235 279 L 228 287 L 225 293 L 229 296 L 229 298 L 220 308 L 220 309 L 223 309 L 225 311 L 225 315 L 221 323 L 221 329 L 218 334 L 217 339 L 224 335 L 227 335 L 229 338 L 225 346 L 218 354 L 213 364 L 207 372 L 206 375 L 210 378 L 210 382 L 199 399 L 200 400 L 204 399 L 206 401 L 206 404 L 202 411 L 202 413 L 200 415 L 199 420 L 195 429 L 200 427 L 202 429 L 202 436 L 200 439 L 200 443 L 198 447 L 197 457 L 200 455 L 203 457 L 203 477 L 204 477 L 206 474 L 208 476 L 208 481 L 209 482 L 210 490 L 220 503 L 222 504 L 225 501 L 228 504 L 233 515 L 235 515 L 237 513 L 241 515 L 244 520 L 245 524 L 247 526 L 250 525 L 257 531 L 259 531 L 261 529 L 276 541 L 278 540 L 278 536 L 273 530 L 267 519 L 265 513 L 265 510 L 267 508 L 274 519 L 288 533 L 297 539 L 299 539 L 301 535 L 304 532 L 305 532 L 308 536 L 310 536 L 321 521 L 323 521 L 325 523 L 324 532 L 323 533 L 323 538 L 324 539 L 331 534 L 341 524 L 343 524 L 345 526 L 345 531 L 343 536 L 344 539 L 349 537 L 354 532 L 359 523 L 359 521 L 364 515 L 367 515 L 368 514 L 368 510 L 370 508 L 372 508 L 376 512 L 378 516 L 378 522 L 379 523 L 381 522 L 389 511 L 390 508 L 390 502 L 394 498 L 397 498 L 397 484 L 395 481 L 394 475 L 391 471 L 391 468 L 393 466 L 397 469 L 400 468 L 399 461 L 398 460 L 398 456 L 397 455 L 397 453 L 399 450 L 399 443 L 402 441 L 411 451 L 415 451 L 417 452 L 417 445 L 418 444 L 419 437 L 422 434 L 423 428 L 426 424 L 425 421 L 424 422 L 421 422 L 418 418 L 412 418 L 408 412 L 404 412 L 400 415 L 402 418 L 405 419 L 407 421 L 406 423 L 404 423 L 401 421 L 396 421 L 392 417 L 392 411 L 390 406 L 385 401 L 385 398 L 388 397 L 394 400 L 404 402 L 407 404 L 409 407 L 413 407 L 418 402 L 418 400 L 408 397 L 405 395 L 403 392 L 403 390 L 405 388 L 407 389 L 419 389 L 420 388 L 412 374 L 410 366 L 404 359 L 403 356 L 398 352 L 399 350 L 404 351 L 406 349 L 406 344 L 404 338 L 401 334 L 399 329 L 399 327 L 402 324 L 402 321 L 404 319 L 406 320 L 412 327 L 416 335 L 429 351 L 431 351 L 436 347 L 439 350 L 439 373 L 440 374 L 440 381 L 441 382 L 441 388 L 442 389 L 444 427 L 436 439 L 434 450 L 435 451 L 435 456 L 438 458 L 443 457 L 446 454 L 447 450 L 451 447 L 454 447 L 457 450 L 457 453 L 458 454 L 457 463 L 455 466 L 455 471 L 453 473 L 453 478 L 456 482 L 464 481 L 470 475 L 470 472 L 475 467 L 478 465 L 481 465 L 483 467 L 483 477 L 481 482 L 485 488 L 486 487 L 490 487 L 492 484 L 498 479 L 499 474 L 505 467 L 507 467 L 511 471 L 511 476 L 513 478 L 518 473 L 520 473 L 528 458 L 529 445 L 530 444 L 530 432 L 529 431 L 528 422 L 530 420 L 532 420 L 532 410 L 531 409 L 531 404 L 527 395 L 526 390 L 528 388 L 532 389 L 533 387 L 530 382 L 527 373 L 525 371 L 524 367 L 521 363 L 521 360 L 522 359 L 525 361 L 528 361 L 528 359 L 519 345 L 510 335 L 510 333 L 512 331 L 518 332 L 520 333 L 520 331 L 502 314 L 497 311 L 492 306 L 494 303 L 498 303 L 499 304 L 503 304 L 503 303 L 492 294 L 483 288 L 481 288 L 478 285 L 481 281 L 484 281 L 483 279 L 476 276 L 474 274 L 468 272 L 466 270 L 466 267 L 468 265 L 474 265 L 474 264 L 464 257 L 456 253 L 451 252 L 447 250 L 444 247 L 447 243 L 451 243 L 451 242 L 442 239 L 439 237 L 436 237 L 428 234 L 421 234 L 415 237 L 413 237 L 405 243 L 397 245 L 393 249 L 387 252 L 383 252 L 377 254 L 372 259 L 370 259 L 368 257 L 367 247 L 369 245 L 371 239 L 374 236 L 377 236 L 379 239 L 379 241 L 380 241 L 383 237 L 383 232 L 386 229 L 388 232 L 390 233 L 393 230 L 394 222 L 395 221 L 400 222 L 399 218 L 402 212 L 404 210 L 407 210 L 408 211 L 410 210 L 409 207 L 403 201 L 403 200 L 405 198 L 408 198 L 415 202 L 416 201 L 416 198 L 414 196 L 413 191 L 415 189 L 418 189 L 421 192 L 423 192 L 423 186 L 419 181 L 420 180 L 423 180 L 425 177 L 417 168 L 419 166 L 423 166 L 428 169 L 431 169 L 432 170 L 437 169 L 438 170 L 438 178 L 444 180 L 445 178 L 439 160 L 441 158 L 445 158 L 448 160 L 449 159 L 444 150 L 435 140 L 435 138 L 437 136 L 445 136 L 446 135 L 440 129 L 433 124 L 432 120 L 435 118 L 435 115 L 430 107 L 430 105 L 424 93 L 422 91 L 422 89 L 419 86 L 419 83 L 427 78 L 434 71 L 434 69 L 436 67 L 438 61 L 437 50 L 431 39 L 422 30 L 420 30 L 418 28 Z M 243 497 L 245 497 L 247 499 L 247 501 L 249 503 L 251 508 L 254 511 L 257 520 L 257 523 L 255 525 L 250 521 L 248 516 L 245 512 L 245 510 L 243 507 L 243 501 L 242 500 Z M 379 484 L 383 487 L 386 496 L 385 499 L 385 505 L 383 507 L 380 505 L 380 499 L 379 498 L 380 490 L 377 486 Z M 243 472 L 244 473 L 244 484 L 241 486 L 240 485 L 240 474 Z M 228 450 L 230 452 L 230 455 L 228 460 L 228 464 L 227 465 L 226 472 L 223 474 L 221 472 L 221 461 L 223 455 L 225 452 Z M 226 425 L 227 428 L 224 432 L 224 434 L 221 440 L 217 444 L 214 440 L 215 435 L 219 428 L 222 425 Z M 371 420 L 372 419 L 376 419 L 377 420 L 388 420 L 390 422 L 389 427 L 386 430 L 381 430 L 380 429 L 377 429 L 371 422 Z M 389 380 L 392 377 L 396 377 L 398 379 L 399 384 L 397 386 L 392 385 L 390 383 Z M 341 371 L 343 369 L 349 370 L 356 375 L 362 377 L 365 380 L 365 382 L 362 384 L 355 379 L 349 376 L 346 376 L 343 374 Z M 392 363 L 398 363 L 402 366 L 402 370 L 397 376 L 390 367 L 390 365 Z M 365 366 L 368 363 L 372 363 L 377 369 L 374 372 L 367 373 L 365 371 Z M 305 360 L 307 362 L 306 364 L 303 366 L 302 363 Z M 488 342 L 489 341 L 492 341 L 494 342 L 495 344 L 494 345 L 490 345 Z M 384 339 L 386 337 L 389 336 L 392 338 L 399 340 L 401 342 L 399 344 L 391 344 L 388 342 L 386 342 Z M 391 324 L 388 326 L 386 324 L 374 322 L 373 320 L 375 318 L 383 319 L 384 316 L 386 315 L 389 319 L 389 321 Z M 346 312 L 347 315 L 345 317 L 342 317 L 341 316 Z M 325 313 L 327 311 L 334 311 L 339 315 L 337 317 L 332 315 L 328 317 Z M 277 314 L 280 310 L 283 311 L 281 314 L 279 315 Z M 381 310 L 383 309 L 385 313 L 383 314 Z M 377 305 L 376 307 L 373 308 L 373 310 L 369 314 L 364 314 L 362 312 L 365 308 L 370 307 L 371 305 L 374 303 Z M 273 297 L 274 298 L 273 302 L 270 305 L 268 309 L 265 311 L 264 310 L 264 307 L 268 301 Z M 382 292 L 384 292 L 387 295 L 387 299 L 385 301 L 380 295 Z M 369 289 L 372 291 L 373 294 L 371 297 L 367 292 Z M 335 289 L 337 289 L 339 292 L 339 296 L 341 298 L 340 301 L 337 300 L 333 296 L 333 291 Z M 350 248 L 349 253 L 342 261 L 322 276 L 316 279 L 313 279 L 308 282 L 305 282 L 299 280 L 280 268 L 269 258 L 267 254 L 270 250 L 276 250 L 281 252 L 293 253 L 294 254 L 305 254 L 306 253 L 313 253 L 319 251 L 330 250 L 341 246 L 348 246 Z M 364 244 L 366 246 L 365 247 L 365 250 L 361 255 L 361 260 L 358 261 L 355 258 L 355 256 L 358 250 Z M 341 133 L 348 126 L 350 126 L 353 124 L 359 124 L 360 123 L 372 124 L 384 128 L 391 135 L 393 140 L 393 143 L 392 146 L 387 151 L 380 154 L 374 154 L 373 155 L 370 154 L 364 154 L 363 153 L 357 152 L 353 149 L 351 149 L 343 142 L 341 138 Z M 264 113 L 268 109 L 277 106 L 288 106 L 295 109 L 300 115 L 298 117 L 293 117 L 285 114 L 275 114 L 274 115 L 266 116 Z M 246 98 L 251 98 L 254 101 L 256 106 L 256 115 L 253 120 L 271 119 L 272 120 L 279 121 L 285 124 L 291 129 L 293 136 L 290 143 L 284 149 L 272 155 L 264 156 L 263 157 L 255 156 L 247 152 L 241 146 L 240 143 L 237 141 L 237 144 L 236 145 L 236 156 L 238 160 L 242 164 L 248 166 L 251 166 L 254 165 L 256 163 L 258 163 L 260 161 L 268 161 L 283 166 L 298 166 L 299 165 L 303 165 L 306 163 L 311 162 L 317 159 L 322 154 L 326 148 L 330 148 L 335 153 L 336 159 L 337 160 L 337 178 L 336 179 L 335 192 L 333 196 L 333 199 L 326 214 L 322 220 L 313 228 L 300 235 L 286 235 L 283 234 L 273 228 L 265 220 L 250 199 L 250 197 L 247 192 L 247 189 L 245 185 L 244 176 L 235 171 L 229 165 L 225 157 L 225 146 L 224 146 L 217 153 L 210 156 L 203 155 L 198 149 L 198 144 L 201 138 L 205 134 L 215 129 L 223 129 L 230 135 L 232 133 L 237 134 L 237 130 L 239 128 L 239 125 L 236 121 L 236 111 L 238 105 Z M 330 97 L 334 97 L 336 98 L 340 102 L 343 109 L 343 116 L 340 124 L 335 128 L 327 128 L 323 125 L 321 121 L 321 108 L 323 103 Z M 264 63 L 265 68 L 262 71 L 254 74 L 245 80 L 242 79 L 240 77 L 241 70 L 248 63 L 254 60 L 261 60 Z M 327 59 L 331 54 L 334 53 L 341 54 L 348 57 L 353 62 L 354 68 L 351 72 L 347 73 L 337 67 L 334 67 L 329 65 L 327 63 Z M 223 53 L 227 55 L 233 61 L 234 65 L 226 74 L 223 79 L 216 86 L 212 86 L 204 77 L 203 74 L 203 68 L 206 61 L 212 55 L 218 53 Z M 406 39 L 410 39 L 418 44 L 423 50 L 425 55 L 425 65 L 417 74 L 413 76 L 410 75 L 396 61 L 393 60 L 390 56 L 390 52 L 393 47 L 400 41 Z" fill="#FBFBFB" fill-rule="evenodd"/><path d="M 199 648 L 199 651 L 198 652 L 198 660 L 199 663 L 203 667 L 205 666 L 204 664 L 205 662 L 205 657 L 208 650 L 214 646 L 216 646 L 218 648 L 218 651 L 215 658 L 215 669 L 217 671 L 221 671 L 222 672 L 228 672 L 229 671 L 229 660 L 232 654 L 235 651 L 239 651 L 241 653 L 240 651 L 235 651 L 231 655 L 229 660 L 228 670 L 226 672 L 223 672 L 222 671 L 218 671 L 215 668 L 215 660 L 218 652 L 218 648 L 216 646 L 214 646 L 208 650 L 205 656 L 204 664 L 202 666 L 198 660 L 198 652 L 199 651 Z M 480 631 L 477 629 L 474 629 L 473 628 L 467 628 L 466 629 L 462 629 L 460 628 L 459 629 L 445 631 L 442 632 L 440 634 L 442 636 L 446 636 L 444 634 L 447 631 L 456 630 L 457 629 L 474 629 L 478 632 L 476 634 L 449 635 L 479 634 Z M 205 595 L 205 598 L 212 619 L 210 621 L 203 624 L 197 628 L 190 635 L 186 643 L 185 651 L 184 652 L 184 658 L 185 659 L 186 666 L 193 675 L 200 678 L 195 676 L 188 669 L 185 662 L 185 656 L 184 654 L 185 653 L 186 644 L 192 633 L 203 624 L 212 620 L 212 617 L 205 598 Z M 215 583 L 215 588 L 219 588 L 220 589 L 221 602 L 228 621 L 233 625 L 244 625 L 245 626 L 251 627 L 256 631 L 254 633 L 250 633 L 257 633 L 257 631 L 251 627 L 245 626 L 244 625 L 233 625 L 227 619 L 221 602 L 220 587 L 219 586 L 217 587 L 215 585 Z M 255 581 L 255 587 L 257 589 L 258 592 L 260 594 L 263 594 L 262 590 L 260 588 L 258 583 Z M 269 579 L 267 581 L 267 588 L 270 592 L 271 589 L 270 588 L 270 579 Z M 237 574 L 234 575 L 233 577 L 234 579 L 237 577 L 238 575 Z M 424 568 L 423 569 L 423 572 L 425 575 L 433 582 L 436 582 L 436 580 L 434 577 Z M 412 568 L 410 571 L 410 577 L 411 578 L 414 576 L 414 569 Z M 243 498 L 244 501 L 244 507 L 246 510 L 246 512 L 249 516 L 251 521 L 255 524 L 256 523 L 256 520 L 253 511 L 250 508 L 248 503 L 246 501 L 246 499 Z M 246 504 L 249 506 L 254 515 L 254 518 L 253 519 L 250 517 L 246 510 L 246 507 L 245 506 Z M 379 485 L 378 486 L 381 490 L 381 493 L 380 494 L 381 505 L 383 506 L 384 505 L 384 499 L 385 496 L 382 487 Z M 243 473 L 241 474 L 241 485 L 243 484 Z M 227 451 L 224 455 L 222 461 L 222 472 L 223 473 L 225 472 L 226 469 L 227 460 L 229 455 L 229 452 Z M 81 451 L 78 452 L 69 462 L 67 466 L 67 473 L 69 475 L 72 475 L 74 473 L 71 469 L 71 465 L 75 457 Z M 68 465 L 70 466 L 70 471 L 71 472 L 69 474 L 67 472 L 67 466 Z M 544 438 L 544 441 L 545 442 L 545 453 L 544 454 L 544 459 L 542 463 L 542 466 L 537 476 L 531 485 L 525 491 L 516 497 L 524 492 L 533 483 L 535 478 L 538 475 L 538 473 L 541 469 L 544 460 L 544 455 L 545 454 L 545 442 L 544 441 Z M 226 426 L 222 426 L 217 433 L 215 438 L 215 440 L 217 443 L 220 440 L 223 434 L 223 432 L 226 428 Z M 372 420 L 372 422 L 377 428 L 386 429 L 388 427 L 389 424 L 388 421 L 377 421 L 376 420 Z M 392 378 L 390 380 L 391 383 L 397 385 L 398 384 L 397 379 L 396 378 Z M 206 373 L 205 377 L 207 377 L 209 379 L 209 382 L 198 399 L 198 402 L 203 401 L 205 403 L 200 414 L 205 404 L 205 401 L 204 400 L 200 401 L 198 399 L 209 382 L 209 378 L 205 375 Z M 342 371 L 343 373 L 346 375 L 349 375 L 362 383 L 364 382 L 364 380 L 362 378 L 356 376 L 349 371 L 346 370 L 343 370 Z M 392 364 L 391 367 L 397 375 L 401 370 L 401 366 L 398 364 Z M 366 366 L 366 371 L 367 372 L 374 371 L 376 369 L 372 364 L 368 364 Z M 385 339 L 386 341 L 388 341 L 391 343 L 399 343 L 400 342 L 389 337 Z M 227 336 L 224 336 L 217 340 L 216 339 L 217 335 L 215 340 L 216 342 L 223 338 L 225 338 L 226 340 L 220 349 L 216 353 L 214 359 L 207 371 L 209 367 L 212 364 L 217 354 L 224 346 L 228 338 Z M 512 332 L 511 335 L 520 345 L 529 359 L 529 361 L 526 362 L 530 363 L 531 362 L 524 350 L 512 335 L 514 332 Z M 523 360 L 522 360 L 522 363 L 525 367 L 525 369 L 528 373 L 528 375 L 534 387 L 532 390 L 530 389 L 527 390 L 528 395 L 532 404 L 533 420 L 529 422 L 529 426 L 531 432 L 531 444 L 530 445 L 529 458 L 526 465 L 523 468 L 521 473 L 518 474 L 513 479 L 510 476 L 510 471 L 507 468 L 505 468 L 500 474 L 499 479 L 493 484 L 490 488 L 486 488 L 485 489 L 482 486 L 480 482 L 482 477 L 482 467 L 481 466 L 478 466 L 471 472 L 471 475 L 464 482 L 456 483 L 452 478 L 452 473 L 454 471 L 454 466 L 456 463 L 456 458 L 457 457 L 456 450 L 454 448 L 449 449 L 447 452 L 447 454 L 443 458 L 440 458 L 439 459 L 436 458 L 434 456 L 434 451 L 433 450 L 435 439 L 443 427 L 441 389 L 440 388 L 439 374 L 438 373 L 438 350 L 436 348 L 431 352 L 429 352 L 415 335 L 411 327 L 406 321 L 404 320 L 403 321 L 403 324 L 400 327 L 400 329 L 402 334 L 405 338 L 407 344 L 407 349 L 404 352 L 402 351 L 399 351 L 399 352 L 404 356 L 405 359 L 411 366 L 413 374 L 417 382 L 421 387 L 419 390 L 407 390 L 405 389 L 404 392 L 405 394 L 408 396 L 418 399 L 419 402 L 413 408 L 409 408 L 408 406 L 404 403 L 394 401 L 388 398 L 386 398 L 386 401 L 391 406 L 393 411 L 393 417 L 396 420 L 401 420 L 404 422 L 406 422 L 406 421 L 402 419 L 399 415 L 404 411 L 408 411 L 412 417 L 418 417 L 421 421 L 424 421 L 425 420 L 427 422 L 427 424 L 424 428 L 423 434 L 420 437 L 420 440 L 418 445 L 418 452 L 417 453 L 415 452 L 411 452 L 402 442 L 400 443 L 400 450 L 398 453 L 398 455 L 399 456 L 399 460 L 400 461 L 401 468 L 399 470 L 397 470 L 393 467 L 392 468 L 392 471 L 395 475 L 395 478 L 398 484 L 398 498 L 397 499 L 394 499 L 391 502 L 391 508 L 390 511 L 385 517 L 384 520 L 379 524 L 377 522 L 377 516 L 375 512 L 372 509 L 370 509 L 369 510 L 369 514 L 367 516 L 364 516 L 362 518 L 355 532 L 349 538 L 344 540 L 342 537 L 344 531 L 344 526 L 343 525 L 341 525 L 331 535 L 324 540 L 322 538 L 322 533 L 323 532 L 323 527 L 324 526 L 324 523 L 323 522 L 320 523 L 313 534 L 310 537 L 308 537 L 306 534 L 304 533 L 302 535 L 301 538 L 299 540 L 297 540 L 288 534 L 273 519 L 267 509 L 266 510 L 266 513 L 268 519 L 274 530 L 279 536 L 279 540 L 276 542 L 261 530 L 259 532 L 257 532 L 250 526 L 247 527 L 244 524 L 241 516 L 238 514 L 235 516 L 233 516 L 227 504 L 225 502 L 221 505 L 209 490 L 208 482 L 207 481 L 207 476 L 206 475 L 204 478 L 202 477 L 202 457 L 201 456 L 198 458 L 196 457 L 197 447 L 199 443 L 199 439 L 201 436 L 201 429 L 200 428 L 196 430 L 194 429 L 199 416 L 197 422 L 194 427 L 194 431 L 196 431 L 198 429 L 201 431 L 201 435 L 199 439 L 199 442 L 196 451 L 196 460 L 199 458 L 202 460 L 202 471 L 201 472 L 202 482 L 205 480 L 207 481 L 209 492 L 214 501 L 219 506 L 221 511 L 221 517 L 219 519 L 212 515 L 209 521 L 209 523 L 213 523 L 215 525 L 212 534 L 210 537 L 210 539 L 208 542 L 208 544 L 210 544 L 213 542 L 216 544 L 216 546 L 213 552 L 212 558 L 213 552 L 216 546 L 216 543 L 215 542 L 212 542 L 210 544 L 208 542 L 211 537 L 213 530 L 217 527 L 229 538 L 243 547 L 246 551 L 246 554 L 248 556 L 253 558 L 265 571 L 273 577 L 287 591 L 286 594 L 283 594 L 282 595 L 284 599 L 282 601 L 277 596 L 273 595 L 273 597 L 275 602 L 288 615 L 288 624 L 291 630 L 291 632 L 287 635 L 287 641 L 294 647 L 294 654 L 293 656 L 287 662 L 284 663 L 281 666 L 275 668 L 270 673 L 265 673 L 264 674 L 242 674 L 239 671 L 239 664 L 239 672 L 242 674 L 268 674 L 269 673 L 277 673 L 278 672 L 285 672 L 286 671 L 293 671 L 294 670 L 299 670 L 300 669 L 306 669 L 318 665 L 323 660 L 324 657 L 324 641 L 323 640 L 321 629 L 323 627 L 326 628 L 327 627 L 327 620 L 326 619 L 326 613 L 325 612 L 325 607 L 323 602 L 323 598 L 325 596 L 329 597 L 329 590 L 328 587 L 329 586 L 329 582 L 331 576 L 329 574 L 318 572 L 304 566 L 301 563 L 301 560 L 305 557 L 308 557 L 317 560 L 321 560 L 322 561 L 326 561 L 327 562 L 332 562 L 333 563 L 350 564 L 354 561 L 356 555 L 363 549 L 367 548 L 370 551 L 370 553 L 367 558 L 367 561 L 366 562 L 366 575 L 367 576 L 367 579 L 369 581 L 372 580 L 374 582 L 375 589 L 378 590 L 381 593 L 382 595 L 382 599 L 383 600 L 383 606 L 388 610 L 392 625 L 397 629 L 398 632 L 396 626 L 394 625 L 391 621 L 391 618 L 388 609 L 383 604 L 382 593 L 380 590 L 375 586 L 375 578 L 374 577 L 374 569 L 372 563 L 372 557 L 375 553 L 375 548 L 386 531 L 390 527 L 395 526 L 418 506 L 422 506 L 428 500 L 434 500 L 442 509 L 445 511 L 447 511 L 453 517 L 453 518 L 461 525 L 459 527 L 451 527 L 450 529 L 455 532 L 458 532 L 462 534 L 469 543 L 470 547 L 468 549 L 462 547 L 457 544 L 453 544 L 452 546 L 456 550 L 465 555 L 471 561 L 472 563 L 472 568 L 469 569 L 463 565 L 454 562 L 447 561 L 446 560 L 444 560 L 443 563 L 459 571 L 471 570 L 474 573 L 474 576 L 476 580 L 476 590 L 478 594 L 478 600 L 476 602 L 477 609 L 474 613 L 472 612 L 469 616 L 471 620 L 478 626 L 481 626 L 483 628 L 494 629 L 507 641 L 511 649 L 511 661 L 509 664 L 509 666 L 504 671 L 502 669 L 502 666 L 498 655 L 494 651 L 489 651 L 487 654 L 487 661 L 488 662 L 488 665 L 487 666 L 488 668 L 488 672 L 487 674 L 484 677 L 475 678 L 473 676 L 473 666 L 471 661 L 467 657 L 462 657 L 460 659 L 460 678 L 458 680 L 447 680 L 442 676 L 440 660 L 435 656 L 432 657 L 428 663 L 428 677 L 426 679 L 419 678 L 409 674 L 403 668 L 400 662 L 401 640 L 399 634 L 401 640 L 401 648 L 400 649 L 400 662 L 403 669 L 408 674 L 412 675 L 415 677 L 427 679 L 428 678 L 428 664 L 429 661 L 432 657 L 437 657 L 439 659 L 441 664 L 441 677 L 443 680 L 459 680 L 460 679 L 460 659 L 462 657 L 467 657 L 470 660 L 473 667 L 473 677 L 474 678 L 481 678 L 482 677 L 485 677 L 489 674 L 487 654 L 490 651 L 493 651 L 497 654 L 500 660 L 500 663 L 501 664 L 501 672 L 505 671 L 508 668 L 511 662 L 512 652 L 509 644 L 495 627 L 493 623 L 492 606 L 491 605 L 491 597 L 490 596 L 490 588 L 489 587 L 489 579 L 488 578 L 488 573 L 487 572 L 487 568 L 485 563 L 485 558 L 486 556 L 485 555 L 484 549 L 482 546 L 482 544 L 484 542 L 486 543 L 488 543 L 486 538 L 486 535 L 482 530 L 478 522 L 480 520 L 483 520 L 484 521 L 486 520 L 483 511 L 485 507 L 484 506 L 479 506 L 476 504 L 474 504 L 468 500 L 459 500 L 451 496 L 449 496 L 446 493 L 443 492 L 439 487 L 435 476 L 424 466 L 422 462 L 421 456 L 420 455 L 420 445 L 424 433 L 429 423 L 428 420 L 428 411 L 427 410 L 426 384 L 425 383 L 425 379 L 422 370 L 419 365 L 419 363 L 417 361 L 417 359 L 415 357 L 415 355 L 413 353 L 410 346 L 407 342 L 407 339 L 404 331 L 406 329 L 409 329 L 414 334 L 419 342 L 429 354 L 431 354 L 435 350 L 438 353 L 438 374 L 439 375 L 439 382 L 440 383 L 440 389 L 441 390 L 441 408 L 442 409 L 442 421 L 443 422 L 443 425 L 434 441 L 434 444 L 433 445 L 433 455 L 437 460 L 443 460 L 450 449 L 454 448 L 456 450 L 456 461 L 454 467 L 451 471 L 450 477 L 453 481 L 459 484 L 463 484 L 465 483 L 470 477 L 472 472 L 477 467 L 480 467 L 482 469 L 482 473 L 478 485 L 478 489 L 482 491 L 489 491 L 493 489 L 497 484 L 502 474 L 502 472 L 505 469 L 507 469 L 509 471 L 509 477 L 508 478 L 508 482 L 506 487 L 509 487 L 513 485 L 517 481 L 519 477 L 524 471 L 529 460 L 529 457 L 531 452 L 531 442 L 532 441 L 531 439 L 530 425 L 532 423 L 535 423 L 535 419 L 533 413 L 532 403 L 528 394 L 528 392 L 530 390 L 535 391 L 535 389 L 531 381 L 531 379 L 523 364 L 524 362 Z M 252 532 L 254 530 L 261 537 L 262 537 L 269 544 L 269 545 L 267 547 L 264 546 L 255 538 Z M 342 528 L 343 529 L 342 533 L 339 536 L 337 533 L 339 530 Z M 240 521 L 244 524 L 246 528 L 253 536 L 251 538 L 247 536 L 241 529 L 239 525 L 239 522 Z M 271 521 L 272 520 L 288 536 L 286 538 L 284 538 L 271 523 Z M 226 507 L 229 509 L 232 515 L 232 517 L 236 524 L 235 527 L 233 527 L 229 523 L 225 511 L 225 508 Z M 395 505 L 397 507 L 397 511 L 395 516 L 393 517 L 392 516 L 392 510 L 393 509 L 393 506 Z M 406 488 L 408 490 L 408 499 L 405 503 L 405 507 L 401 512 L 399 513 L 398 512 L 398 505 L 402 497 L 402 494 Z M 390 324 L 386 316 L 385 316 L 385 318 L 383 320 L 380 320 L 379 319 L 375 319 L 374 321 L 377 322 L 386 323 L 388 325 Z M 326 313 L 328 316 L 331 314 L 336 316 L 338 315 L 334 312 L 327 312 Z M 520 308 L 519 313 L 529 322 L 534 328 L 538 335 L 538 341 L 535 345 L 542 355 L 544 360 L 544 369 L 542 371 L 542 374 L 547 383 L 549 389 L 549 397 L 546 401 L 546 407 L 546 401 L 549 397 L 549 389 L 547 383 L 542 374 L 542 371 L 544 369 L 544 359 L 536 347 L 536 344 L 538 341 L 538 335 L 531 324 L 519 312 Z M 375 304 L 372 305 L 370 308 L 365 309 L 363 312 L 364 313 L 369 313 L 372 310 L 372 308 L 374 306 L 376 306 Z M 273 298 L 269 301 L 265 307 L 265 310 L 267 309 L 269 305 L 272 302 Z M 199 295 L 193 295 L 196 295 L 198 297 L 187 306 L 173 313 L 173 314 L 178 314 L 180 316 L 173 323 L 156 334 L 156 335 L 161 335 L 162 337 L 158 341 L 155 342 L 148 347 L 143 354 L 107 391 L 101 395 L 94 396 L 99 396 L 106 392 L 150 346 L 162 339 L 164 337 L 164 335 L 161 334 L 160 332 L 172 324 L 181 316 L 180 314 L 177 314 L 176 312 L 190 304 L 198 298 Z M 382 293 L 381 295 L 385 300 L 386 299 L 386 295 L 384 293 Z M 369 290 L 368 292 L 371 296 L 372 294 L 371 291 Z M 335 290 L 334 291 L 334 296 L 337 299 L 340 300 L 340 298 L 338 296 L 338 292 L 337 290 Z M 349 248 L 348 247 L 341 247 L 330 251 L 319 252 L 313 254 L 306 254 L 305 255 L 286 254 L 285 253 L 281 253 L 276 251 L 270 251 L 268 254 L 270 258 L 280 267 L 297 278 L 305 281 L 308 281 L 313 278 L 316 278 L 322 275 L 342 260 L 348 253 Z M 321 255 L 320 257 L 316 257 L 315 258 L 311 258 L 310 257 L 311 255 L 316 255 L 317 254 L 320 254 Z M 324 254 L 327 253 L 328 255 L 325 256 Z M 270 254 L 272 252 L 276 252 L 285 256 L 287 255 L 289 256 L 308 256 L 309 257 L 308 259 L 303 259 L 302 260 L 295 260 L 294 261 L 293 260 L 289 260 L 284 258 L 281 258 L 279 260 L 282 261 L 289 268 L 302 275 L 313 274 L 316 271 L 322 269 L 329 263 L 332 262 L 333 264 L 328 269 L 322 272 L 319 275 L 314 276 L 308 280 L 305 280 L 294 275 L 280 266 L 270 256 Z M 343 253 L 344 250 L 347 251 L 344 254 Z M 364 245 L 359 250 L 356 256 L 356 258 L 358 260 L 360 260 L 360 255 L 364 250 L 364 247 L 365 246 Z M 216 221 L 213 221 L 213 222 L 211 223 L 210 220 L 211 225 L 213 226 L 214 223 L 217 222 L 220 228 L 226 236 L 238 244 L 240 241 L 245 242 L 252 249 L 253 253 L 250 254 L 246 252 L 243 252 L 241 254 L 231 254 L 228 256 L 233 261 L 225 267 L 210 274 L 209 276 L 214 276 L 215 277 L 215 279 L 208 285 L 189 294 L 189 295 L 191 295 L 193 292 L 195 292 L 199 289 L 201 289 L 203 287 L 214 281 L 217 278 L 217 276 L 214 273 L 222 268 L 224 268 L 226 266 L 228 266 L 230 268 L 229 274 L 227 276 L 224 285 L 220 292 L 221 297 L 215 306 L 215 312 L 209 320 L 209 328 L 204 336 L 202 342 L 202 345 L 201 346 L 201 353 L 200 354 L 201 356 L 201 360 L 196 369 L 195 375 L 194 376 L 194 386 L 189 394 L 186 397 L 183 397 L 181 399 L 174 410 L 171 413 L 170 416 L 161 426 L 159 430 L 150 439 L 147 439 L 141 433 L 140 430 L 130 420 L 122 416 L 117 416 L 116 415 L 107 416 L 104 419 L 101 420 L 101 421 L 99 422 L 95 427 L 94 435 L 92 436 L 90 433 L 90 429 L 86 424 L 88 422 L 94 422 L 96 421 L 102 415 L 103 413 L 103 408 L 100 405 L 97 405 L 96 404 L 84 404 L 78 406 L 73 411 L 70 409 L 72 405 L 75 402 L 85 398 L 92 397 L 88 397 L 84 399 L 81 399 L 75 402 L 70 408 L 70 414 L 72 416 L 74 415 L 74 412 L 79 407 L 85 405 L 97 405 L 100 406 L 103 410 L 102 414 L 96 420 L 91 422 L 87 422 L 86 423 L 82 422 L 78 426 L 68 431 L 64 435 L 61 441 L 61 443 L 64 444 L 66 441 L 67 435 L 72 431 L 78 428 L 86 427 L 89 430 L 89 444 L 88 446 L 91 446 L 95 449 L 97 454 L 97 458 L 98 459 L 97 466 L 95 470 L 92 473 L 88 481 L 88 486 L 90 488 L 93 487 L 92 484 L 92 478 L 96 470 L 102 464 L 104 463 L 109 463 L 112 464 L 115 468 L 114 478 L 113 479 L 114 487 L 116 490 L 120 490 L 121 489 L 116 483 L 116 475 L 118 470 L 121 467 L 126 466 L 126 465 L 120 465 L 106 459 L 99 452 L 95 444 L 95 432 L 98 425 L 107 417 L 109 416 L 121 416 L 129 420 L 136 426 L 147 442 L 147 450 L 145 453 L 144 457 L 139 462 L 130 465 L 130 466 L 134 469 L 134 474 L 132 479 L 130 481 L 130 483 L 140 472 L 150 455 L 156 449 L 168 441 L 171 440 L 174 437 L 176 437 L 181 432 L 183 421 L 187 414 L 186 401 L 191 390 L 194 386 L 194 376 L 195 375 L 195 372 L 202 358 L 201 355 L 201 346 L 202 345 L 203 339 L 209 328 L 209 321 L 211 317 L 216 312 L 222 310 L 224 312 L 224 315 L 221 320 L 221 322 L 221 320 L 224 315 L 224 311 L 223 310 L 220 310 L 219 308 L 228 298 L 228 296 L 224 293 L 227 287 L 235 277 L 233 274 L 233 272 L 241 265 L 243 261 L 243 256 L 245 254 L 249 254 L 253 256 L 255 255 L 255 253 L 252 248 L 244 240 L 235 234 L 233 234 L 229 230 L 222 229 Z M 99 462 L 100 459 L 103 461 L 101 463 Z M 90 438 L 92 437 L 94 440 L 92 442 L 90 440 Z M 224 298 L 225 300 L 220 304 L 219 302 Z M 230 279 L 231 281 L 229 282 L 228 284 L 227 281 Z M 463 157 L 463 167 L 462 169 L 458 172 L 458 176 L 459 177 L 459 187 L 456 193 L 451 198 L 449 208 L 443 217 L 449 223 L 449 226 L 452 229 L 457 230 L 465 234 L 473 241 L 474 243 L 473 248 L 478 252 L 481 253 L 489 260 L 490 267 L 497 271 L 502 277 L 502 283 L 501 285 L 510 291 L 517 298 L 521 306 L 519 300 L 508 289 L 502 285 L 502 277 L 501 275 L 490 266 L 490 262 L 489 260 L 484 255 L 473 248 L 474 246 L 473 241 L 468 236 L 462 232 L 452 229 L 450 227 L 448 221 L 444 217 L 444 215 L 447 212 L 449 208 L 450 200 L 457 192 L 459 187 L 459 176 L 458 173 L 463 167 Z M 177 148 L 180 152 L 180 155 L 178 158 L 177 164 L 176 165 L 177 170 L 180 174 L 180 178 L 179 179 L 179 189 L 181 194 L 186 199 L 185 201 L 186 212 L 190 218 L 194 220 L 197 220 L 199 222 L 202 231 L 207 236 L 212 237 L 206 235 L 202 231 L 199 222 L 197 220 L 192 219 L 187 214 L 186 207 L 185 206 L 186 198 L 180 192 L 180 189 L 179 188 L 179 179 L 181 175 L 177 170 L 177 161 L 180 155 L 180 152 Z M 342 133 L 342 138 L 346 144 L 351 148 L 353 148 L 357 151 L 363 152 L 364 153 L 370 153 L 373 154 L 374 153 L 380 153 L 387 150 L 391 146 L 392 143 L 392 140 L 390 135 L 384 129 L 372 125 L 367 125 L 366 124 L 353 125 L 350 127 L 348 127 Z M 342 135 L 348 128 L 352 126 L 356 126 L 357 125 L 369 125 L 370 126 L 374 126 L 383 129 L 390 136 L 391 138 L 391 144 L 387 149 L 383 150 L 381 152 L 377 152 L 376 153 L 363 152 L 357 150 L 347 144 L 344 141 Z M 260 120 L 271 120 L 272 121 L 279 122 L 285 125 L 291 131 L 291 139 L 282 149 L 272 154 L 265 155 L 269 155 L 275 152 L 277 152 L 284 148 L 289 143 L 292 135 L 291 134 L 291 131 L 288 127 L 276 121 L 272 121 L 271 120 Z M 265 113 L 266 115 L 274 114 L 275 113 L 285 113 L 293 116 L 298 116 L 299 115 L 295 110 L 288 107 L 277 107 L 268 110 Z M 288 111 L 290 110 L 293 111 L 295 113 L 292 114 L 289 113 Z M 244 100 L 239 105 L 237 111 L 237 121 L 240 125 L 240 128 L 238 130 L 238 134 L 237 135 L 232 134 L 230 136 L 223 130 L 215 130 L 205 135 L 202 138 L 199 144 L 199 149 L 203 154 L 210 155 L 217 152 L 224 145 L 226 146 L 226 157 L 230 165 L 235 170 L 243 174 L 245 176 L 246 185 L 248 189 L 248 192 L 251 197 L 251 199 L 266 220 L 273 227 L 283 233 L 286 234 L 300 234 L 313 227 L 321 220 L 325 214 L 332 199 L 332 196 L 334 192 L 335 179 L 336 178 L 336 160 L 335 159 L 334 153 L 330 149 L 326 149 L 323 154 L 317 160 L 304 165 L 317 160 L 327 149 L 331 150 L 334 154 L 335 157 L 335 164 L 336 165 L 334 189 L 333 190 L 333 193 L 329 205 L 322 218 L 316 224 L 310 227 L 305 231 L 296 234 L 288 234 L 276 229 L 263 216 L 252 200 L 246 185 L 245 176 L 234 169 L 229 163 L 226 157 L 226 145 L 227 144 L 227 140 L 232 134 L 234 134 L 236 136 L 235 157 L 242 165 L 247 167 L 251 167 L 258 164 L 260 162 L 267 162 L 275 165 L 282 166 L 275 165 L 268 162 L 260 162 L 254 166 L 248 167 L 242 165 L 237 160 L 235 156 L 235 145 L 237 140 L 241 143 L 242 146 L 247 151 L 252 154 L 259 155 L 252 154 L 246 150 L 241 144 L 238 137 L 238 131 L 242 126 L 237 121 L 237 111 L 240 104 Z M 227 134 L 227 136 L 225 138 L 223 137 L 219 137 L 215 140 L 211 140 L 210 141 L 213 144 L 211 148 L 212 149 L 215 147 L 217 149 L 215 151 L 207 154 L 202 152 L 200 150 L 200 144 L 202 140 L 210 133 L 215 131 L 223 131 Z M 448 72 L 445 78 L 436 87 L 436 88 L 439 92 L 440 96 L 450 115 L 451 122 L 459 130 L 461 134 L 461 141 L 458 145 L 458 148 L 462 155 L 460 150 L 458 148 L 458 145 L 461 141 L 461 134 L 459 130 L 451 122 L 449 112 L 447 110 L 447 108 L 444 104 L 443 100 L 440 96 L 440 94 L 437 89 L 437 86 L 445 78 Z M 438 62 L 438 65 L 435 69 L 435 71 L 427 79 L 420 83 L 420 86 L 423 89 L 423 91 L 425 93 L 431 105 L 431 107 L 436 115 L 436 118 L 433 120 L 434 124 L 440 128 L 447 135 L 445 137 L 437 137 L 436 138 L 437 142 L 445 150 L 450 159 L 448 161 L 445 159 L 441 159 L 440 160 L 446 179 L 444 181 L 438 179 L 437 178 L 437 170 L 432 171 L 431 170 L 428 170 L 423 167 L 419 167 L 418 168 L 426 177 L 423 181 L 420 181 L 424 186 L 424 192 L 421 193 L 418 190 L 415 190 L 414 191 L 415 196 L 417 198 L 417 201 L 415 203 L 408 199 L 405 199 L 404 201 L 410 207 L 411 210 L 409 212 L 407 211 L 404 211 L 400 218 L 401 222 L 400 223 L 395 222 L 394 230 L 390 234 L 389 234 L 386 230 L 384 232 L 384 237 L 380 242 L 378 241 L 377 237 L 374 237 L 372 239 L 371 243 L 368 247 L 369 257 L 372 258 L 377 253 L 383 251 L 387 251 L 393 248 L 397 244 L 403 243 L 411 237 L 421 233 L 432 234 L 451 241 L 452 243 L 451 244 L 447 244 L 445 247 L 451 251 L 456 252 L 464 256 L 475 264 L 474 266 L 468 266 L 467 267 L 467 270 L 472 273 L 474 273 L 485 280 L 484 282 L 481 282 L 479 285 L 481 287 L 483 287 L 492 293 L 504 303 L 503 305 L 494 304 L 493 306 L 497 310 L 502 313 L 516 327 L 517 327 L 521 331 L 520 334 L 522 334 L 523 333 L 507 317 L 495 307 L 496 304 L 499 305 L 505 305 L 506 304 L 491 292 L 488 291 L 480 285 L 482 282 L 487 282 L 487 280 L 484 279 L 482 277 L 478 276 L 472 272 L 470 272 L 467 269 L 469 266 L 476 266 L 477 265 L 461 254 L 449 250 L 446 246 L 448 244 L 453 244 L 454 242 L 445 239 L 442 237 L 431 234 L 427 230 L 427 228 L 425 226 L 425 222 L 430 211 L 430 205 L 432 201 L 438 202 L 439 199 L 439 186 L 438 185 L 438 182 L 441 180 L 443 182 L 447 183 L 446 176 L 442 167 L 441 161 L 443 159 L 450 162 L 451 161 L 451 159 L 445 149 L 437 141 L 437 139 L 439 137 L 448 137 L 449 136 L 447 133 L 441 128 L 438 127 L 434 123 L 434 121 L 437 119 L 438 117 L 435 113 L 424 90 L 421 86 L 421 83 L 429 78 L 435 71 L 438 65 Z M 392 243 L 394 245 L 388 250 L 386 248 Z M 412 227 L 413 229 L 409 236 L 402 242 L 398 243 L 396 241 L 397 239 L 410 227 Z M 412 225 L 414 223 L 416 224 L 415 227 L 413 227 Z M 263 63 L 261 61 L 254 61 L 248 64 L 242 70 L 241 77 L 245 79 L 254 73 L 262 70 L 264 68 Z M 264 65 L 264 67 L 260 71 L 258 71 L 252 74 L 245 79 L 241 76 L 241 73 L 243 69 L 247 65 L 254 61 L 260 61 Z M 328 59 L 328 63 L 334 66 L 337 66 L 347 72 L 349 72 L 352 70 L 353 65 L 352 62 L 348 58 L 337 54 L 331 55 Z M 328 59 L 331 55 L 334 54 L 344 56 L 348 58 L 351 61 L 353 65 L 353 68 L 349 72 L 347 72 L 340 67 L 331 65 L 328 62 Z M 223 54 L 218 54 L 212 56 L 207 61 L 204 68 L 204 74 L 205 77 L 212 85 L 216 85 L 222 79 L 225 74 L 233 65 L 232 61 L 227 56 Z M 220 55 L 227 58 L 230 61 L 231 65 L 227 69 L 226 72 L 220 78 L 220 79 L 214 84 L 208 79 L 206 75 L 205 67 L 207 65 L 207 63 L 213 57 Z M 207 42 L 203 44 L 194 54 L 190 65 L 190 74 L 191 75 L 191 78 L 196 87 L 203 93 L 207 94 L 209 96 L 209 100 L 201 116 L 199 118 L 199 121 L 198 122 L 199 130 L 187 142 L 187 144 L 188 145 L 193 144 L 195 146 L 195 148 L 188 161 L 188 164 L 189 165 L 193 164 L 195 166 L 191 177 L 190 186 L 191 187 L 196 186 L 198 188 L 198 194 L 197 195 L 197 205 L 199 210 L 201 211 L 206 207 L 208 209 L 209 218 L 208 209 L 206 206 L 201 210 L 198 208 L 198 205 L 197 204 L 197 195 L 198 194 L 198 189 L 199 187 L 197 185 L 195 185 L 193 187 L 190 185 L 190 181 L 192 177 L 192 174 L 195 165 L 193 163 L 190 164 L 188 161 L 195 149 L 195 146 L 193 144 L 189 145 L 187 143 L 188 141 L 198 132 L 199 130 L 199 126 L 198 125 L 199 119 L 210 97 L 208 94 L 206 94 L 201 91 L 195 85 L 191 78 L 191 75 L 190 74 L 190 65 L 194 54 L 202 45 Z M 406 40 L 400 42 L 394 47 L 391 52 L 391 56 L 393 59 L 396 60 L 410 74 L 413 75 L 417 73 L 424 65 L 424 55 L 422 50 L 418 45 L 410 40 Z M 403 42 L 411 42 L 413 43 L 421 50 L 424 57 L 424 63 L 422 66 L 414 73 L 411 73 L 399 61 L 392 56 L 392 52 L 393 50 L 399 44 Z M 215 39 L 226 38 L 235 42 L 243 50 L 243 53 L 245 56 L 248 56 L 253 52 L 248 56 L 246 56 L 244 54 L 242 48 L 237 43 L 234 42 L 232 40 L 230 40 L 227 38 L 219 38 L 218 39 Z M 329 27 L 327 26 L 323 28 L 314 36 L 311 36 L 306 32 L 297 28 L 296 29 L 296 32 L 298 35 L 298 38 L 296 40 L 277 40 L 272 45 L 262 47 L 255 51 L 262 47 L 272 45 L 278 40 L 297 40 L 298 39 L 298 35 L 296 31 L 298 29 L 305 32 L 310 36 L 315 36 L 325 27 L 327 27 L 329 29 L 327 34 Z M 439 60 L 438 49 L 432 38 L 425 31 L 413 25 L 404 24 L 403 25 L 399 25 L 390 28 L 381 35 L 378 40 L 377 44 L 375 46 L 371 45 L 366 42 L 357 39 L 354 39 L 353 38 L 343 37 L 342 36 L 330 37 L 328 38 L 326 36 L 327 38 L 331 38 L 332 37 L 348 37 L 360 41 L 363 41 L 373 46 L 376 46 L 380 37 L 389 29 L 395 26 L 403 25 L 404 24 L 412 25 L 418 27 L 420 29 L 422 29 L 432 39 L 437 47 L 438 53 L 439 54 Z" fill="#D8D8D8" fill-rule="evenodd"/><path d="M 445 634 L 448 635 L 449 634 L 462 634 L 463 633 L 476 633 L 477 632 L 474 630 L 457 630 L 456 631 L 447 632 Z M 254 531 L 253 533 L 256 538 L 264 545 L 267 546 L 268 544 Z M 342 529 L 341 529 L 338 533 L 339 535 L 341 533 Z M 240 522 L 240 525 L 242 529 L 247 535 L 251 537 L 252 536 L 250 533 L 245 528 L 243 524 Z M 271 520 L 272 523 L 278 531 L 284 537 L 286 537 L 287 536 Z M 226 508 L 226 511 L 230 523 L 233 526 L 235 526 L 235 524 L 231 517 L 231 515 L 228 509 Z M 394 506 L 394 509 L 393 510 L 393 516 L 394 516 L 396 511 L 396 507 Z M 246 505 L 248 512 L 250 514 L 251 517 L 253 518 L 253 515 L 251 511 L 249 509 L 248 506 Z M 271 254 L 271 256 L 280 265 L 294 274 L 305 279 L 308 279 L 314 275 L 319 274 L 322 271 L 328 268 L 332 264 L 332 263 L 329 264 L 322 270 L 316 272 L 313 275 L 302 276 L 289 269 L 282 262 L 280 262 L 278 260 L 281 257 L 284 257 L 289 259 L 293 259 L 294 260 L 295 259 L 308 258 L 308 257 L 289 257 L 288 256 L 285 257 L 276 253 L 272 253 Z M 393 245 L 392 244 L 387 248 L 388 249 Z M 412 228 L 410 228 L 405 232 L 397 241 L 400 242 L 407 237 L 410 233 Z M 229 138 L 228 140 L 228 144 L 227 145 L 227 157 L 230 163 L 234 168 L 238 171 L 243 173 L 246 176 L 247 185 L 253 200 L 264 216 L 276 228 L 288 233 L 296 233 L 305 230 L 310 226 L 316 223 L 321 218 L 330 200 L 330 197 L 333 189 L 333 184 L 334 183 L 335 165 L 334 164 L 334 157 L 331 151 L 327 150 L 317 161 L 311 164 L 302 167 L 299 167 L 298 168 L 284 168 L 283 167 L 279 167 L 267 163 L 260 163 L 254 167 L 247 168 L 242 166 L 234 157 L 235 136 L 232 135 Z M 229 139 L 232 136 L 235 138 L 234 146 L 233 147 L 233 155 L 237 163 L 244 168 L 254 168 L 262 163 L 265 163 L 276 167 L 286 168 L 287 169 L 295 169 L 296 168 L 300 168 L 301 167 L 304 167 L 310 165 L 318 161 L 323 157 L 327 151 L 329 151 L 332 154 L 333 161 L 334 162 L 334 177 L 333 178 L 333 184 L 332 185 L 331 193 L 327 205 L 321 216 L 316 221 L 314 220 L 323 202 L 323 196 L 322 194 L 317 189 L 307 185 L 301 185 L 300 186 L 294 187 L 283 193 L 277 198 L 273 204 L 272 207 L 273 215 L 281 226 L 279 228 L 275 226 L 265 216 L 254 200 L 248 186 L 247 175 L 245 173 L 239 171 L 230 162 L 227 154 Z M 226 134 L 223 132 L 215 132 L 210 134 L 203 140 L 201 144 L 201 150 L 207 153 L 215 150 L 216 149 L 215 148 L 212 150 L 210 148 L 212 144 L 209 141 L 211 139 L 215 139 L 219 136 L 223 136 L 225 137 Z M 343 135 L 344 139 L 347 143 L 351 146 L 363 151 L 369 151 L 370 152 L 381 151 L 383 149 L 387 148 L 390 144 L 390 138 L 383 130 L 374 127 L 370 127 L 369 126 L 357 126 L 356 127 L 352 127 L 348 129 Z M 245 100 L 241 104 L 238 111 L 238 121 L 243 126 L 239 131 L 239 137 L 242 144 L 245 148 L 252 153 L 259 154 L 260 155 L 269 154 L 282 148 L 290 139 L 290 131 L 285 126 L 276 122 L 272 122 L 271 121 L 259 121 L 258 122 L 253 122 L 251 123 L 249 121 L 254 115 L 254 105 L 250 100 Z M 289 131 L 290 133 L 290 137 L 288 141 L 281 148 L 267 154 L 257 154 L 250 151 L 242 143 L 239 137 L 240 130 L 243 127 L 255 122 L 263 122 L 264 121 L 274 122 L 284 126 Z M 249 100 L 254 106 L 254 113 L 252 117 L 246 123 L 241 124 L 239 122 L 238 119 L 238 113 L 242 104 L 245 101 Z M 334 99 L 330 99 L 328 100 L 325 103 L 323 108 L 323 121 L 327 126 L 330 126 L 331 127 L 335 126 L 339 122 L 340 116 L 341 115 L 340 106 L 338 102 Z M 331 99 L 336 101 L 340 107 L 340 118 L 338 122 L 333 126 L 329 126 L 325 123 L 323 118 L 323 110 L 326 103 Z M 263 65 L 260 62 L 254 62 L 250 64 L 244 69 L 242 73 L 242 76 L 244 78 L 247 77 L 252 73 L 258 70 L 260 70 L 263 67 Z M 262 66 L 260 69 L 254 71 L 246 77 L 243 75 L 243 72 L 248 66 L 254 63 L 259 63 Z M 220 56 L 213 58 L 208 63 L 208 65 L 206 67 L 207 75 L 209 79 L 214 83 L 219 79 L 219 78 L 225 72 L 226 69 L 230 65 L 230 63 L 227 59 Z M 329 59 L 329 62 L 331 64 L 340 66 L 347 71 L 349 71 L 352 68 L 352 65 L 350 61 L 344 57 L 334 55 L 331 56 Z M 329 60 L 333 56 L 342 57 L 346 59 L 350 63 L 351 68 L 349 70 L 347 70 L 340 65 L 331 63 Z M 403 43 L 399 45 L 394 50 L 393 52 L 393 56 L 399 60 L 411 72 L 414 72 L 416 71 L 423 63 L 423 57 L 420 50 L 411 43 Z M 412 23 L 401 23 L 400 24 L 393 25 L 387 28 L 379 35 L 377 38 L 376 42 L 374 44 L 366 40 L 357 37 L 354 37 L 353 36 L 349 36 L 348 35 L 331 35 L 329 33 L 331 29 L 331 26 L 330 25 L 326 25 L 320 28 L 314 34 L 311 34 L 301 27 L 295 27 L 294 28 L 294 31 L 296 36 L 294 38 L 276 38 L 270 44 L 260 46 L 248 54 L 245 52 L 243 47 L 238 42 L 229 37 L 216 37 L 210 39 L 201 44 L 194 51 L 189 63 L 189 76 L 191 82 L 194 87 L 199 92 L 205 95 L 208 99 L 201 113 L 198 117 L 197 120 L 197 130 L 185 143 L 185 146 L 186 147 L 191 146 L 193 148 L 186 162 L 186 166 L 187 167 L 191 166 L 193 168 L 192 169 L 191 175 L 189 178 L 189 188 L 190 189 L 195 189 L 196 190 L 196 198 L 195 200 L 196 201 L 196 207 L 197 210 L 200 213 L 202 213 L 204 211 L 207 213 L 207 217 L 210 226 L 213 229 L 217 226 L 222 234 L 227 239 L 234 243 L 241 250 L 239 252 L 232 252 L 229 253 L 225 257 L 228 260 L 228 262 L 224 266 L 218 269 L 216 269 L 214 271 L 209 273 L 206 276 L 207 278 L 210 278 L 211 279 L 207 284 L 191 292 L 189 292 L 186 295 L 187 297 L 192 297 L 193 299 L 186 305 L 173 311 L 170 314 L 170 316 L 174 316 L 175 319 L 168 325 L 165 326 L 153 334 L 152 337 L 154 338 L 155 340 L 149 344 L 144 349 L 141 354 L 135 359 L 135 360 L 121 374 L 121 375 L 106 390 L 99 394 L 90 395 L 75 400 L 69 407 L 68 413 L 70 417 L 76 420 L 78 423 L 75 426 L 69 428 L 62 435 L 60 439 L 60 445 L 61 446 L 70 446 L 82 442 L 84 442 L 85 444 L 80 448 L 68 461 L 65 468 L 66 475 L 69 477 L 75 476 L 79 474 L 93 463 L 95 465 L 94 468 L 88 477 L 86 482 L 86 486 L 88 489 L 94 489 L 97 488 L 108 481 L 110 481 L 112 483 L 113 489 L 116 492 L 120 492 L 126 489 L 137 479 L 145 468 L 153 454 L 156 451 L 167 445 L 173 440 L 179 437 L 183 433 L 184 424 L 189 414 L 188 400 L 192 391 L 196 386 L 196 381 L 195 380 L 196 378 L 196 374 L 203 359 L 203 345 L 204 344 L 204 340 L 209 330 L 211 328 L 211 324 L 210 322 L 212 318 L 217 313 L 219 312 L 222 313 L 222 316 L 218 325 L 218 330 L 212 343 L 215 347 L 212 356 L 212 359 L 203 376 L 203 379 L 204 380 L 205 379 L 207 381 L 207 383 L 196 400 L 197 403 L 201 403 L 203 405 L 197 416 L 197 418 L 193 426 L 192 433 L 193 434 L 197 432 L 199 433 L 199 437 L 198 438 L 198 441 L 195 450 L 194 462 L 196 464 L 197 463 L 200 464 L 200 482 L 202 486 L 204 485 L 207 486 L 208 494 L 219 513 L 218 515 L 216 515 L 214 513 L 211 513 L 207 521 L 207 525 L 211 525 L 213 527 L 209 536 L 209 538 L 206 543 L 206 546 L 208 547 L 212 545 L 214 547 L 212 551 L 212 554 L 211 555 L 211 558 L 208 567 L 208 574 L 209 575 L 213 573 L 216 574 L 215 576 L 215 581 L 213 586 L 213 590 L 219 592 L 219 600 L 220 601 L 220 604 L 224 616 L 227 622 L 232 628 L 231 629 L 224 629 L 223 630 L 214 631 L 206 635 L 201 640 L 197 650 L 197 663 L 198 665 L 203 669 L 206 668 L 206 659 L 207 658 L 207 655 L 213 648 L 216 650 L 214 660 L 213 661 L 213 670 L 215 672 L 218 673 L 223 673 L 224 674 L 229 674 L 230 673 L 230 662 L 233 655 L 237 652 L 240 654 L 240 658 L 238 662 L 238 674 L 239 675 L 248 675 L 249 676 L 255 676 L 256 675 L 275 675 L 276 674 L 284 674 L 285 673 L 292 673 L 293 672 L 298 672 L 299 671 L 305 671 L 306 670 L 310 670 L 314 668 L 317 668 L 323 663 L 326 655 L 326 644 L 325 643 L 325 639 L 324 638 L 324 634 L 323 632 L 325 630 L 327 631 L 329 630 L 329 624 L 328 623 L 328 614 L 327 613 L 327 608 L 326 607 L 326 603 L 325 601 L 327 599 L 328 600 L 331 599 L 330 585 L 331 584 L 331 580 L 333 574 L 329 572 L 324 572 L 323 571 L 320 571 L 311 568 L 305 565 L 303 563 L 303 561 L 305 559 L 308 559 L 309 560 L 313 560 L 314 561 L 322 562 L 323 563 L 328 563 L 329 564 L 336 564 L 337 565 L 353 565 L 355 563 L 355 561 L 358 555 L 364 551 L 366 551 L 368 553 L 364 564 L 364 574 L 365 575 L 365 578 L 368 584 L 371 583 L 373 585 L 375 594 L 376 595 L 378 594 L 381 597 L 382 607 L 388 614 L 390 624 L 392 628 L 397 632 L 399 638 L 399 653 L 398 654 L 398 660 L 399 661 L 400 667 L 402 671 L 405 674 L 413 678 L 429 681 L 430 680 L 430 675 L 429 674 L 430 663 L 431 661 L 435 658 L 439 662 L 439 680 L 442 682 L 458 682 L 462 680 L 462 667 L 461 666 L 461 661 L 463 659 L 466 659 L 469 662 L 471 666 L 471 679 L 472 680 L 479 680 L 480 679 L 487 678 L 490 675 L 489 655 L 491 653 L 493 653 L 498 659 L 499 662 L 499 673 L 500 674 L 505 673 L 510 668 L 513 661 L 513 650 L 508 640 L 497 627 L 494 620 L 494 610 L 493 609 L 493 600 L 492 599 L 491 582 L 490 581 L 490 575 L 489 574 L 488 566 L 487 565 L 487 559 L 488 557 L 485 548 L 487 546 L 490 547 L 490 542 L 488 536 L 482 526 L 484 523 L 487 523 L 488 522 L 486 516 L 486 512 L 489 509 L 489 507 L 487 505 L 478 503 L 470 498 L 455 496 L 445 490 L 442 487 L 437 475 L 432 472 L 426 466 L 423 460 L 423 457 L 422 456 L 422 444 L 423 443 L 424 437 L 430 426 L 428 384 L 427 383 L 427 379 L 424 370 L 421 365 L 421 363 L 418 358 L 417 354 L 410 344 L 407 335 L 410 333 L 414 337 L 429 358 L 430 358 L 433 354 L 436 356 L 436 372 L 437 373 L 438 387 L 439 388 L 441 426 L 436 433 L 432 442 L 432 445 L 431 446 L 431 454 L 432 457 L 435 461 L 442 463 L 445 461 L 449 453 L 453 450 L 455 452 L 455 458 L 452 464 L 452 466 L 447 473 L 447 477 L 453 483 L 457 485 L 466 485 L 474 473 L 477 470 L 479 470 L 480 473 L 476 485 L 476 490 L 482 493 L 489 493 L 495 490 L 497 488 L 503 476 L 503 474 L 505 472 L 507 474 L 507 477 L 504 485 L 504 490 L 506 491 L 510 489 L 521 479 L 530 463 L 530 460 L 532 456 L 532 451 L 533 450 L 533 435 L 532 434 L 532 428 L 534 426 L 537 425 L 536 415 L 535 414 L 535 410 L 534 409 L 534 405 L 533 404 L 533 400 L 531 397 L 531 394 L 532 393 L 534 394 L 536 393 L 536 388 L 530 375 L 530 373 L 528 371 L 526 366 L 528 364 L 532 365 L 533 363 L 527 352 L 515 336 L 517 334 L 518 335 L 525 336 L 525 333 L 499 308 L 500 306 L 507 307 L 508 304 L 495 293 L 484 286 L 485 283 L 489 283 L 490 282 L 487 278 L 474 272 L 472 270 L 473 268 L 477 268 L 480 266 L 476 262 L 464 254 L 456 250 L 451 249 L 450 247 L 452 245 L 458 245 L 458 243 L 454 240 L 452 240 L 449 238 L 444 237 L 435 233 L 433 231 L 436 228 L 430 226 L 427 223 L 427 221 L 431 213 L 432 205 L 434 203 L 436 205 L 438 205 L 440 202 L 440 199 L 441 198 L 441 187 L 440 185 L 442 183 L 446 186 L 449 185 L 448 176 L 443 165 L 443 163 L 445 161 L 451 164 L 453 162 L 453 160 L 450 153 L 439 140 L 441 138 L 449 139 L 451 137 L 451 135 L 445 129 L 436 123 L 440 120 L 440 117 L 433 106 L 433 104 L 423 86 L 423 84 L 429 80 L 434 75 L 438 69 L 440 63 L 440 50 L 434 38 L 425 29 L 418 25 Z M 236 627 L 237 626 L 246 627 L 249 628 L 250 630 L 249 631 L 240 630 L 237 629 Z M 81 450 L 82 451 L 76 457 L 72 465 L 72 469 L 75 473 L 72 476 L 69 476 L 66 473 L 66 466 L 71 458 L 78 451 Z M 413 24 L 425 30 L 433 38 L 439 49 L 439 53 L 440 54 L 439 65 L 433 75 L 429 79 L 422 83 L 422 86 L 425 90 L 436 113 L 439 117 L 439 118 L 435 121 L 435 123 L 447 132 L 450 136 L 448 138 L 439 138 L 438 141 L 446 149 L 452 159 L 452 161 L 450 163 L 444 160 L 442 161 L 442 164 L 447 176 L 448 183 L 445 184 L 441 181 L 439 182 L 439 185 L 440 186 L 440 199 L 438 203 L 432 202 L 431 205 L 431 211 L 426 222 L 426 226 L 428 228 L 428 230 L 431 233 L 442 236 L 445 238 L 454 241 L 455 243 L 453 245 L 448 245 L 447 247 L 449 249 L 461 253 L 478 265 L 476 267 L 469 267 L 468 269 L 470 271 L 472 271 L 478 275 L 482 276 L 484 278 L 486 278 L 488 280 L 488 282 L 487 283 L 482 283 L 481 285 L 488 290 L 491 291 L 507 304 L 505 306 L 499 306 L 496 305 L 496 307 L 507 316 L 524 333 L 522 335 L 514 333 L 513 335 L 525 350 L 532 362 L 530 364 L 525 362 L 524 363 L 536 389 L 535 392 L 532 392 L 531 391 L 529 392 L 529 394 L 533 403 L 534 413 L 536 419 L 536 423 L 531 425 L 532 439 L 533 441 L 532 442 L 532 452 L 531 453 L 529 463 L 523 474 L 513 486 L 509 488 L 506 488 L 505 487 L 507 482 L 507 478 L 508 477 L 508 471 L 505 470 L 503 472 L 503 474 L 498 484 L 493 490 L 489 492 L 482 492 L 479 491 L 477 489 L 477 485 L 481 473 L 481 469 L 480 468 L 477 468 L 473 472 L 471 477 L 465 484 L 463 485 L 459 485 L 453 482 L 449 477 L 450 471 L 452 469 L 455 461 L 455 450 L 454 449 L 450 450 L 446 458 L 443 461 L 437 461 L 432 455 L 432 445 L 433 444 L 433 441 L 442 425 L 442 422 L 441 421 L 441 409 L 440 408 L 440 390 L 439 389 L 438 375 L 437 374 L 437 353 L 435 351 L 431 355 L 429 355 L 424 350 L 413 334 L 409 330 L 406 330 L 405 331 L 408 339 L 408 342 L 411 346 L 414 353 L 416 355 L 416 357 L 418 359 L 418 361 L 420 363 L 420 365 L 423 370 L 426 379 L 426 383 L 427 384 L 428 410 L 429 411 L 429 420 L 430 423 L 425 433 L 421 445 L 421 455 L 422 456 L 422 459 L 425 466 L 436 476 L 439 485 L 443 491 L 446 492 L 449 495 L 451 495 L 459 499 L 468 499 L 474 503 L 476 503 L 479 505 L 484 505 L 486 507 L 484 511 L 487 520 L 485 522 L 483 521 L 480 521 L 479 522 L 483 530 L 486 533 L 489 542 L 488 544 L 484 543 L 483 546 L 485 549 L 486 555 L 487 556 L 486 558 L 486 563 L 487 564 L 488 572 L 489 573 L 489 578 L 490 579 L 490 587 L 491 588 L 491 596 L 492 597 L 494 623 L 496 627 L 508 641 L 512 648 L 512 651 L 513 652 L 512 662 L 509 668 L 505 672 L 501 673 L 500 672 L 500 664 L 499 663 L 499 660 L 496 654 L 493 652 L 490 652 L 488 654 L 490 674 L 485 678 L 474 679 L 472 677 L 472 667 L 469 660 L 467 658 L 462 658 L 461 659 L 461 679 L 459 681 L 443 681 L 440 677 L 440 664 L 437 658 L 432 658 L 429 664 L 429 678 L 427 680 L 415 678 L 412 676 L 408 675 L 402 669 L 399 662 L 400 640 L 398 636 L 398 633 L 396 629 L 391 625 L 387 610 L 382 606 L 382 600 L 381 599 L 381 595 L 380 593 L 374 589 L 373 582 L 372 581 L 369 582 L 366 579 L 366 576 L 365 575 L 365 562 L 366 561 L 366 558 L 369 553 L 369 551 L 366 549 L 360 552 L 357 555 L 355 561 L 350 565 L 333 564 L 332 563 L 327 563 L 326 562 L 317 561 L 308 558 L 305 558 L 302 560 L 302 563 L 304 565 L 318 571 L 329 573 L 332 576 L 331 577 L 331 581 L 329 587 L 330 590 L 330 597 L 329 598 L 327 597 L 324 598 L 324 602 L 325 603 L 326 612 L 327 613 L 327 619 L 328 620 L 328 627 L 326 629 L 325 628 L 322 629 L 322 632 L 325 641 L 325 657 L 324 660 L 318 666 L 306 670 L 300 670 L 299 671 L 286 672 L 285 673 L 278 673 L 277 674 L 269 674 L 268 675 L 242 675 L 238 672 L 238 664 L 239 663 L 239 660 L 241 654 L 239 652 L 235 652 L 230 660 L 230 671 L 228 673 L 222 673 L 221 672 L 217 672 L 214 669 L 214 658 L 217 651 L 217 648 L 214 647 L 209 650 L 206 657 L 206 662 L 205 663 L 206 666 L 203 668 L 198 663 L 197 660 L 197 652 L 201 641 L 208 634 L 220 630 L 242 630 L 248 632 L 254 632 L 255 631 L 251 628 L 245 627 L 244 626 L 233 626 L 227 621 L 220 602 L 219 589 L 215 589 L 214 588 L 214 583 L 216 578 L 216 572 L 214 571 L 210 574 L 208 572 L 212 552 L 215 546 L 214 543 L 210 545 L 207 544 L 207 542 L 214 526 L 213 524 L 209 524 L 208 521 L 210 516 L 212 514 L 219 518 L 220 517 L 220 511 L 218 506 L 213 501 L 208 492 L 206 481 L 203 483 L 201 482 L 201 479 L 200 478 L 201 460 L 200 459 L 197 461 L 195 460 L 195 451 L 196 450 L 198 439 L 200 435 L 200 431 L 198 430 L 196 432 L 194 432 L 193 431 L 193 427 L 204 404 L 203 402 L 198 403 L 197 402 L 197 399 L 208 382 L 208 379 L 205 378 L 204 375 L 208 367 L 210 365 L 215 353 L 219 349 L 225 340 L 225 339 L 223 339 L 217 343 L 214 341 L 217 332 L 219 329 L 219 324 L 220 323 L 220 320 L 223 315 L 223 312 L 220 311 L 216 313 L 212 317 L 210 321 L 210 328 L 204 339 L 203 345 L 202 346 L 202 355 L 203 358 L 196 372 L 196 375 L 195 376 L 195 386 L 192 390 L 187 401 L 188 414 L 184 421 L 182 432 L 176 438 L 174 438 L 171 441 L 168 442 L 156 450 L 151 455 L 145 466 L 138 476 L 130 484 L 129 481 L 132 477 L 133 469 L 130 467 L 129 465 L 131 463 L 135 463 L 139 461 L 143 457 L 144 453 L 146 450 L 146 442 L 135 426 L 129 421 L 121 417 L 109 417 L 104 420 L 99 425 L 96 432 L 96 444 L 100 452 L 106 458 L 114 462 L 120 464 L 126 464 L 127 465 L 126 467 L 121 468 L 119 470 L 117 475 L 117 483 L 122 489 L 120 491 L 116 491 L 113 487 L 112 479 L 113 478 L 114 468 L 112 465 L 109 464 L 104 464 L 97 470 L 93 478 L 93 484 L 94 487 L 92 489 L 90 489 L 87 486 L 87 481 L 91 473 L 94 470 L 96 466 L 97 459 L 96 458 L 96 454 L 94 449 L 91 447 L 88 447 L 87 446 L 88 444 L 88 430 L 86 428 L 78 429 L 69 434 L 67 438 L 67 441 L 64 445 L 62 445 L 60 443 L 61 438 L 68 430 L 78 425 L 82 421 L 86 422 L 87 421 L 91 421 L 96 419 L 101 414 L 102 411 L 101 408 L 97 406 L 85 406 L 84 407 L 81 407 L 75 412 L 75 415 L 73 417 L 69 414 L 69 408 L 75 401 L 81 398 L 84 398 L 88 396 L 98 395 L 103 393 L 107 390 L 142 354 L 148 346 L 155 341 L 158 340 L 161 337 L 161 336 L 156 336 L 155 334 L 160 330 L 163 329 L 166 326 L 169 325 L 179 316 L 178 315 L 173 315 L 172 313 L 174 311 L 187 305 L 197 297 L 196 296 L 189 296 L 188 294 L 208 284 L 214 279 L 214 277 L 209 277 L 208 276 L 210 273 L 225 266 L 232 261 L 227 256 L 231 253 L 241 253 L 243 251 L 246 251 L 252 253 L 251 249 L 245 243 L 240 242 L 238 245 L 226 237 L 219 228 L 217 223 L 215 223 L 215 225 L 213 227 L 210 225 L 208 215 L 207 214 L 207 209 L 205 208 L 200 212 L 197 208 L 196 205 L 197 188 L 196 187 L 191 188 L 189 186 L 189 181 L 194 166 L 193 165 L 189 166 L 187 164 L 187 161 L 194 148 L 194 146 L 193 145 L 188 146 L 186 144 L 186 142 L 198 130 L 198 127 L 197 126 L 198 118 L 200 116 L 208 100 L 208 96 L 200 92 L 195 87 L 190 78 L 190 75 L 189 74 L 189 65 L 190 64 L 191 58 L 195 51 L 203 43 L 209 40 L 215 38 L 218 38 L 219 37 L 227 37 L 237 42 L 243 48 L 245 54 L 248 55 L 251 52 L 262 46 L 272 44 L 277 39 L 296 39 L 297 38 L 297 35 L 295 32 L 295 29 L 297 27 L 306 31 L 311 35 L 314 35 L 319 30 L 327 25 L 330 27 L 329 32 L 327 35 L 328 37 L 330 36 L 337 36 L 338 35 L 348 36 L 349 37 L 357 38 L 375 45 L 380 35 L 390 27 L 399 24 L 403 24 L 404 23 Z M 420 16 L 417 16 L 412 14 L 400 14 L 399 15 L 391 16 L 379 22 L 375 25 L 370 31 L 367 31 L 355 27 L 341 26 L 339 24 L 337 19 L 332 16 L 323 17 L 319 19 L 313 24 L 302 18 L 293 18 L 289 21 L 287 28 L 285 30 L 275 30 L 258 38 L 256 38 L 254 40 L 250 40 L 244 34 L 235 29 L 229 28 L 228 27 L 219 27 L 218 28 L 213 28 L 204 32 L 202 32 L 200 34 L 197 35 L 187 45 L 181 56 L 179 62 L 179 78 L 181 84 L 185 91 L 189 96 L 196 102 L 196 105 L 192 110 L 188 119 L 188 128 L 179 137 L 177 141 L 177 147 L 181 152 L 181 155 L 178 161 L 178 170 L 182 175 L 180 179 L 180 188 L 181 189 L 181 192 L 187 198 L 186 206 L 187 207 L 188 214 L 192 218 L 197 219 L 200 222 L 203 231 L 206 234 L 214 237 L 223 247 L 215 255 L 209 263 L 206 264 L 198 270 L 196 273 L 196 277 L 193 280 L 191 280 L 185 283 L 178 289 L 177 291 L 177 296 L 173 300 L 167 303 L 160 310 L 158 314 L 158 318 L 155 321 L 150 323 L 140 333 L 135 342 L 127 350 L 123 356 L 96 383 L 94 384 L 88 384 L 87 385 L 80 385 L 70 389 L 61 397 L 57 405 L 57 409 L 56 410 L 57 422 L 51 430 L 48 438 L 48 447 L 50 451 L 57 457 L 57 461 L 55 464 L 55 468 L 54 469 L 55 476 L 59 483 L 62 485 L 65 485 L 66 486 L 72 486 L 76 490 L 77 493 L 82 498 L 86 500 L 96 500 L 102 497 L 106 497 L 110 501 L 114 503 L 121 503 L 129 500 L 137 494 L 145 485 L 155 470 L 158 463 L 162 459 L 176 452 L 183 447 L 186 449 L 186 454 L 185 455 L 186 468 L 188 472 L 191 475 L 191 480 L 192 481 L 193 489 L 195 493 L 202 501 L 202 506 L 197 521 L 197 528 L 200 532 L 200 535 L 197 541 L 197 550 L 201 555 L 199 565 L 198 566 L 198 576 L 200 580 L 204 584 L 205 594 L 213 617 L 213 620 L 211 622 L 203 625 L 193 633 L 187 644 L 185 655 L 186 656 L 186 662 L 189 669 L 195 675 L 204 679 L 207 679 L 212 681 L 216 681 L 217 682 L 233 683 L 234 684 L 273 684 L 274 683 L 285 683 L 286 682 L 292 682 L 293 681 L 299 681 L 300 680 L 314 678 L 326 673 L 333 666 L 336 659 L 336 641 L 335 638 L 338 634 L 338 631 L 339 630 L 339 619 L 338 618 L 337 607 L 340 603 L 340 584 L 341 583 L 342 577 L 344 575 L 352 575 L 356 579 L 358 588 L 362 596 L 374 614 L 381 632 L 389 643 L 388 645 L 388 649 L 387 650 L 387 664 L 388 665 L 388 668 L 391 674 L 399 682 L 407 686 L 413 688 L 421 689 L 422 690 L 428 690 L 429 691 L 468 691 L 469 690 L 477 690 L 478 689 L 485 689 L 486 688 L 495 687 L 511 681 L 519 673 L 522 668 L 524 662 L 524 647 L 523 644 L 516 632 L 508 623 L 504 616 L 504 612 L 503 611 L 503 595 L 502 594 L 502 585 L 501 584 L 501 574 L 498 565 L 498 561 L 502 556 L 502 547 L 501 546 L 501 543 L 499 537 L 497 534 L 497 528 L 498 527 L 498 522 L 500 516 L 501 504 L 504 501 L 506 501 L 513 497 L 515 497 L 525 490 L 530 485 L 536 476 L 541 466 L 541 463 L 543 459 L 543 454 L 544 453 L 544 442 L 543 441 L 543 438 L 547 430 L 547 413 L 545 407 L 545 401 L 548 397 L 548 389 L 546 383 L 541 374 L 541 371 L 543 369 L 543 360 L 541 355 L 534 345 L 537 341 L 537 335 L 533 328 L 528 322 L 518 313 L 518 310 L 520 307 L 518 301 L 510 292 L 500 285 L 501 283 L 501 277 L 500 275 L 497 272 L 494 271 L 489 267 L 488 260 L 485 257 L 475 251 L 472 248 L 473 246 L 472 241 L 465 235 L 457 231 L 452 230 L 448 226 L 448 223 L 442 217 L 448 208 L 450 198 L 455 193 L 458 187 L 458 177 L 457 176 L 457 172 L 460 170 L 462 167 L 462 156 L 457 148 L 457 145 L 460 141 L 460 134 L 458 130 L 450 122 L 449 115 L 439 96 L 438 92 L 435 88 L 435 87 L 444 78 L 449 68 L 449 65 L 450 64 L 450 49 L 449 48 L 448 42 L 443 33 L 437 26 L 429 20 Z M 418 16 L 424 18 L 432 23 L 442 33 L 447 41 L 449 47 L 449 52 L 450 53 L 449 66 L 446 72 L 446 74 L 435 86 L 435 89 L 441 100 L 442 104 L 444 106 L 448 114 L 449 123 L 457 130 L 460 135 L 460 140 L 456 145 L 456 148 L 458 150 L 462 158 L 462 165 L 456 173 L 458 179 L 458 184 L 455 192 L 450 196 L 447 209 L 441 216 L 441 218 L 447 223 L 448 228 L 450 230 L 455 231 L 467 237 L 472 242 L 472 249 L 475 252 L 478 253 L 485 258 L 488 262 L 488 267 L 500 276 L 501 278 L 500 286 L 510 293 L 516 299 L 519 304 L 519 308 L 517 311 L 518 314 L 525 320 L 535 332 L 537 337 L 537 340 L 533 345 L 539 353 L 543 362 L 543 367 L 540 372 L 540 374 L 545 382 L 548 395 L 544 401 L 545 409 L 546 410 L 546 415 L 547 416 L 547 429 L 545 434 L 543 436 L 543 456 L 542 457 L 542 460 L 536 475 L 528 486 L 520 493 L 507 500 L 503 501 L 500 504 L 500 511 L 499 512 L 499 517 L 498 518 L 497 529 L 496 530 L 496 533 L 500 541 L 501 549 L 502 550 L 501 556 L 497 560 L 497 562 L 498 563 L 498 566 L 500 571 L 500 576 L 501 577 L 503 615 L 504 616 L 504 619 L 516 633 L 523 645 L 523 648 L 524 649 L 524 660 L 523 661 L 523 664 L 519 672 L 511 680 L 503 684 L 497 686 L 494 686 L 493 687 L 489 687 L 488 688 L 476 689 L 475 690 L 466 690 L 465 691 L 434 691 L 433 690 L 426 690 L 425 689 L 415 688 L 406 685 L 399 681 L 389 670 L 388 664 L 387 663 L 387 652 L 389 647 L 389 642 L 381 631 L 378 623 L 378 620 L 375 616 L 373 611 L 362 595 L 358 586 L 356 577 L 354 575 L 343 575 L 341 578 L 341 582 L 340 583 L 340 602 L 337 606 L 337 613 L 338 614 L 339 627 L 338 628 L 338 632 L 335 637 L 335 642 L 336 643 L 336 656 L 333 665 L 325 673 L 319 676 L 316 676 L 307 679 L 303 679 L 302 680 L 290 681 L 289 682 L 280 682 L 279 683 L 262 683 L 261 684 L 227 683 L 226 682 L 221 682 L 220 681 L 215 681 L 214 680 L 206 679 L 196 675 L 189 668 L 186 660 L 186 650 L 191 637 L 194 633 L 201 627 L 214 621 L 214 618 L 211 612 L 207 600 L 206 593 L 205 592 L 205 584 L 204 582 L 200 579 L 198 575 L 198 567 L 201 559 L 201 553 L 197 548 L 197 542 L 201 532 L 197 527 L 197 522 L 202 508 L 202 500 L 195 492 L 193 488 L 191 474 L 188 471 L 186 467 L 186 446 L 185 445 L 175 452 L 161 459 L 157 464 L 152 474 L 141 489 L 135 495 L 128 500 L 120 503 L 116 503 L 111 501 L 106 496 L 103 496 L 94 500 L 84 499 L 78 494 L 74 486 L 67 486 L 60 483 L 56 478 L 55 475 L 55 465 L 57 462 L 58 457 L 50 450 L 48 445 L 48 439 L 51 431 L 58 421 L 57 418 L 57 412 L 56 411 L 57 406 L 62 397 L 69 390 L 78 386 L 91 385 L 92 384 L 96 384 L 98 383 L 135 343 L 140 334 L 151 323 L 154 322 L 159 318 L 159 312 L 167 304 L 177 298 L 177 292 L 179 289 L 186 283 L 192 280 L 194 280 L 196 278 L 196 275 L 198 271 L 202 267 L 210 263 L 213 260 L 215 256 L 224 248 L 214 236 L 209 235 L 204 231 L 202 228 L 201 222 L 199 219 L 193 218 L 189 214 L 187 209 L 187 197 L 181 190 L 181 179 L 183 174 L 178 168 L 178 162 L 182 155 L 182 152 L 178 148 L 178 140 L 189 128 L 188 126 L 188 121 L 192 111 L 195 108 L 197 104 L 197 102 L 184 88 L 181 82 L 180 75 L 179 74 L 180 60 L 183 54 L 183 52 L 187 46 L 200 34 L 215 28 L 229 28 L 230 29 L 233 29 L 241 33 L 250 41 L 253 41 L 274 31 L 277 31 L 278 30 L 287 30 L 288 29 L 288 24 L 291 20 L 296 18 L 303 19 L 311 24 L 315 24 L 322 18 L 325 17 L 333 17 L 338 22 L 338 24 L 340 27 L 352 27 L 353 28 L 357 28 L 358 29 L 361 29 L 370 32 L 380 22 L 387 18 L 393 16 L 396 16 L 397 15 L 414 15 L 415 16 Z" fill="#B1B1B1" fill-rule="evenodd"/><path d="M 237 627 L 237 628 L 239 628 L 240 629 L 245 629 L 246 630 L 249 630 L 249 629 L 247 629 L 246 628 Z M 230 139 L 228 154 L 229 155 L 229 158 L 231 162 L 239 170 L 245 172 L 248 175 L 248 182 L 249 183 L 249 186 L 255 200 L 257 202 L 258 205 L 261 208 L 263 212 L 266 215 L 266 216 L 275 225 L 276 225 L 278 227 L 280 226 L 272 215 L 272 213 L 271 212 L 271 207 L 272 206 L 272 204 L 274 202 L 276 198 L 283 192 L 294 186 L 300 185 L 301 184 L 307 184 L 308 185 L 313 186 L 317 188 L 323 194 L 324 196 L 324 202 L 315 220 L 316 220 L 320 216 L 321 213 L 323 211 L 326 205 L 326 203 L 327 202 L 327 200 L 330 193 L 331 185 L 332 184 L 332 178 L 333 177 L 333 162 L 332 161 L 332 157 L 331 156 L 331 154 L 329 152 L 327 152 L 324 157 L 318 162 L 310 166 L 308 166 L 304 168 L 301 168 L 300 169 L 296 169 L 295 170 L 287 170 L 286 169 L 276 168 L 275 167 L 269 166 L 265 164 L 262 164 L 254 169 L 244 169 L 239 165 L 238 165 L 233 158 L 233 156 L 232 155 L 232 147 L 233 146 L 234 138 L 232 137 Z M 288 131 L 284 127 L 280 125 L 275 124 L 274 123 L 269 123 L 268 122 L 264 122 L 263 123 L 255 123 L 254 124 L 251 124 L 243 128 L 241 130 L 241 132 L 240 133 L 240 137 L 243 143 L 250 150 L 257 153 L 267 153 L 281 147 L 287 141 L 289 137 L 289 133 Z M 249 101 L 245 102 L 243 104 L 240 110 L 240 112 L 239 113 L 239 119 L 241 123 L 244 123 L 246 122 L 251 117 L 253 113 L 253 106 Z M 332 100 L 329 101 L 327 103 L 324 110 L 324 118 L 325 119 L 326 123 L 329 125 L 333 125 L 335 124 L 337 122 L 339 118 L 339 107 L 337 103 Z M 261 66 L 259 64 L 254 64 L 248 67 L 244 72 L 244 75 L 246 76 L 254 70 L 260 68 Z M 330 60 L 331 62 L 340 64 L 347 69 L 349 69 L 350 68 L 350 65 L 349 63 L 346 60 L 342 58 L 339 58 L 338 57 L 333 57 Z M 418 17 L 415 17 L 414 16 L 397 16 L 396 17 L 393 17 L 392 18 L 387 19 L 380 23 L 370 33 L 368 33 L 361 30 L 358 30 L 357 29 L 353 29 L 352 28 L 340 28 L 338 26 L 337 22 L 333 18 L 325 18 L 324 19 L 322 19 L 315 25 L 311 25 L 303 20 L 296 19 L 290 22 L 289 24 L 289 29 L 287 31 L 278 31 L 277 32 L 274 32 L 262 38 L 260 38 L 253 42 L 250 42 L 241 34 L 233 30 L 230 30 L 229 29 L 215 29 L 214 30 L 206 32 L 200 35 L 198 37 L 197 37 L 188 46 L 188 47 L 185 50 L 184 54 L 181 60 L 181 64 L 180 65 L 180 74 L 181 75 L 181 79 L 182 80 L 182 82 L 185 88 L 187 90 L 187 91 L 198 102 L 198 104 L 191 115 L 191 117 L 189 121 L 189 126 L 190 128 L 180 138 L 179 140 L 179 148 L 183 152 L 183 155 L 179 162 L 179 168 L 184 174 L 183 178 L 182 179 L 182 190 L 188 197 L 188 209 L 189 210 L 190 214 L 193 217 L 199 218 L 202 222 L 202 225 L 205 231 L 209 234 L 214 235 L 225 247 L 225 248 L 216 256 L 214 260 L 210 264 L 205 266 L 199 271 L 197 275 L 197 278 L 194 281 L 192 281 L 186 284 L 180 289 L 180 290 L 178 292 L 178 298 L 176 300 L 173 301 L 171 303 L 167 305 L 160 312 L 160 318 L 157 321 L 151 324 L 141 334 L 136 343 L 128 351 L 128 352 L 122 358 L 122 359 L 120 360 L 120 361 L 100 381 L 100 382 L 98 384 L 96 385 L 92 385 L 91 386 L 83 386 L 82 387 L 78 387 L 69 391 L 63 397 L 58 406 L 58 409 L 57 411 L 58 412 L 58 418 L 59 419 L 59 421 L 52 431 L 50 435 L 50 438 L 49 439 L 49 445 L 50 446 L 51 450 L 59 457 L 58 462 L 56 465 L 56 475 L 57 476 L 57 478 L 60 482 L 67 485 L 74 485 L 76 487 L 76 489 L 79 494 L 84 498 L 87 498 L 88 499 L 94 499 L 95 498 L 100 497 L 103 495 L 106 495 L 111 500 L 115 501 L 116 502 L 120 502 L 121 501 L 128 499 L 134 494 L 135 494 L 140 489 L 140 488 L 146 481 L 148 477 L 151 474 L 158 461 L 161 458 L 175 451 L 185 444 L 187 446 L 187 467 L 189 471 L 192 474 L 192 478 L 193 479 L 193 484 L 194 485 L 194 488 L 196 492 L 203 500 L 203 508 L 202 509 L 202 512 L 201 513 L 201 515 L 198 522 L 198 527 L 202 532 L 201 536 L 198 542 L 198 548 L 202 553 L 202 559 L 201 560 L 200 566 L 199 567 L 199 575 L 201 579 L 203 580 L 206 584 L 206 592 L 207 593 L 208 600 L 209 601 L 212 612 L 215 618 L 215 621 L 213 623 L 209 624 L 201 628 L 198 631 L 197 631 L 192 637 L 189 643 L 189 646 L 187 650 L 187 660 L 188 661 L 188 664 L 190 668 L 196 674 L 200 676 L 205 677 L 206 678 L 214 679 L 215 680 L 220 680 L 221 681 L 226 681 L 227 682 L 261 683 L 262 682 L 279 682 L 280 681 L 289 681 L 290 680 L 302 679 L 303 678 L 307 678 L 308 677 L 319 675 L 325 672 L 332 665 L 333 661 L 334 660 L 334 657 L 335 656 L 335 643 L 334 642 L 334 637 L 337 632 L 337 628 L 338 627 L 338 623 L 337 622 L 337 614 L 336 613 L 336 606 L 339 602 L 339 583 L 340 582 L 340 578 L 343 574 L 354 574 L 357 577 L 358 583 L 363 595 L 374 611 L 376 616 L 379 620 L 379 623 L 380 624 L 382 631 L 390 642 L 390 647 L 389 648 L 389 651 L 388 652 L 388 663 L 389 664 L 390 670 L 392 672 L 392 673 L 402 682 L 406 684 L 414 686 L 415 687 L 425 688 L 426 689 L 433 689 L 434 690 L 465 690 L 466 689 L 475 689 L 476 688 L 482 688 L 483 687 L 488 687 L 489 686 L 497 685 L 498 684 L 503 683 L 506 681 L 508 681 L 518 672 L 522 664 L 522 661 L 523 660 L 523 649 L 522 648 L 522 645 L 515 633 L 503 619 L 503 616 L 502 615 L 502 603 L 501 602 L 500 577 L 499 576 L 499 571 L 498 570 L 498 567 L 497 566 L 497 563 L 496 562 L 496 560 L 500 556 L 501 550 L 500 549 L 500 544 L 499 543 L 499 541 L 495 533 L 495 530 L 496 529 L 496 523 L 497 522 L 498 512 L 499 511 L 499 504 L 503 500 L 507 499 L 515 495 L 517 493 L 520 492 L 524 488 L 525 488 L 531 481 L 538 469 L 538 467 L 541 460 L 541 457 L 542 456 L 542 436 L 544 434 L 545 430 L 546 429 L 546 416 L 545 415 L 545 410 L 544 409 L 543 401 L 545 399 L 547 395 L 547 393 L 546 392 L 546 388 L 545 387 L 544 382 L 539 374 L 539 372 L 542 367 L 542 362 L 538 353 L 532 345 L 532 344 L 536 340 L 536 337 L 535 336 L 534 332 L 531 329 L 531 328 L 524 321 L 524 320 L 517 314 L 516 312 L 518 308 L 518 304 L 517 302 L 510 294 L 509 294 L 505 290 L 504 290 L 499 286 L 499 282 L 500 281 L 500 278 L 499 276 L 494 272 L 491 271 L 487 267 L 487 262 L 485 259 L 484 259 L 478 254 L 475 253 L 471 249 L 471 242 L 467 238 L 455 232 L 450 231 L 447 228 L 447 225 L 446 223 L 440 218 L 440 216 L 446 209 L 447 203 L 448 202 L 448 198 L 449 196 L 454 192 L 456 188 L 456 185 L 457 184 L 457 179 L 456 178 L 456 175 L 455 173 L 461 165 L 461 158 L 460 157 L 460 155 L 455 148 L 455 145 L 459 140 L 459 135 L 456 130 L 448 123 L 448 118 L 447 117 L 447 114 L 443 106 L 441 104 L 440 100 L 434 89 L 434 86 L 443 77 L 443 76 L 445 74 L 445 72 L 448 66 L 448 62 L 449 61 L 449 53 L 448 52 L 448 47 L 447 46 L 446 41 L 441 33 L 432 24 L 426 21 L 424 19 L 422 19 Z M 412 22 L 413 23 L 418 24 L 425 28 L 435 38 L 441 50 L 441 63 L 440 64 L 439 69 L 437 71 L 435 75 L 429 81 L 424 84 L 424 86 L 426 90 L 428 92 L 434 104 L 434 106 L 436 108 L 437 111 L 439 113 L 441 117 L 441 120 L 437 123 L 445 128 L 452 135 L 452 137 L 449 140 L 445 140 L 444 139 L 441 139 L 440 140 L 445 145 L 445 146 L 451 153 L 454 160 L 454 162 L 451 165 L 445 162 L 444 163 L 444 165 L 446 168 L 446 170 L 449 176 L 449 179 L 450 180 L 450 185 L 448 187 L 446 187 L 442 184 L 441 185 L 442 187 L 442 198 L 441 199 L 441 202 L 438 206 L 436 206 L 434 204 L 433 205 L 432 213 L 428 221 L 428 223 L 430 225 L 435 226 L 437 228 L 434 231 L 439 234 L 441 234 L 444 236 L 449 237 L 452 239 L 454 239 L 459 243 L 459 245 L 458 246 L 452 246 L 451 248 L 456 249 L 464 253 L 466 255 L 469 256 L 472 259 L 476 261 L 481 266 L 479 268 L 477 269 L 473 269 L 473 270 L 487 277 L 491 281 L 491 282 L 489 284 L 485 284 L 485 286 L 495 292 L 509 304 L 509 306 L 507 308 L 503 308 L 502 307 L 500 307 L 500 308 L 526 333 L 526 336 L 525 337 L 522 337 L 521 336 L 518 336 L 517 335 L 516 336 L 524 346 L 534 363 L 534 364 L 532 366 L 530 366 L 529 365 L 527 366 L 529 371 L 531 373 L 531 375 L 534 380 L 534 382 L 537 388 L 537 393 L 535 395 L 532 394 L 532 397 L 534 400 L 534 404 L 535 405 L 536 414 L 537 415 L 537 421 L 538 422 L 538 425 L 536 427 L 534 427 L 533 428 L 533 434 L 534 435 L 534 450 L 533 451 L 533 456 L 531 460 L 531 463 L 522 479 L 513 488 L 512 488 L 510 490 L 505 492 L 503 490 L 503 485 L 504 484 L 504 481 L 506 477 L 506 474 L 505 473 L 498 488 L 495 491 L 489 494 L 482 494 L 481 493 L 477 492 L 475 490 L 475 485 L 478 478 L 478 474 L 479 473 L 479 471 L 477 471 L 475 473 L 469 483 L 466 486 L 457 486 L 453 484 L 446 477 L 446 473 L 451 466 L 451 464 L 454 458 L 454 452 L 453 451 L 452 451 L 450 453 L 446 461 L 442 464 L 435 462 L 431 457 L 431 455 L 430 454 L 430 446 L 431 445 L 431 442 L 435 433 L 440 426 L 440 420 L 439 419 L 439 400 L 438 399 L 438 388 L 437 387 L 437 380 L 436 379 L 436 373 L 435 372 L 435 356 L 433 355 L 431 357 L 431 358 L 429 359 L 421 349 L 421 348 L 413 338 L 413 337 L 410 334 L 408 335 L 409 336 L 409 339 L 411 342 L 411 344 L 413 346 L 414 349 L 419 356 L 419 358 L 425 370 L 425 372 L 428 379 L 428 383 L 429 384 L 429 393 L 430 394 L 430 413 L 431 414 L 431 426 L 425 437 L 424 443 L 423 444 L 423 456 L 424 457 L 424 460 L 427 466 L 432 471 L 433 471 L 438 475 L 440 479 L 440 481 L 443 487 L 445 489 L 455 495 L 457 495 L 458 496 L 466 496 L 467 497 L 470 497 L 472 499 L 478 502 L 487 504 L 490 507 L 490 509 L 487 512 L 487 516 L 488 517 L 489 522 L 487 524 L 484 524 L 483 526 L 486 530 L 491 542 L 491 547 L 490 548 L 488 548 L 487 547 L 486 548 L 487 549 L 487 552 L 488 553 L 488 556 L 489 557 L 488 559 L 488 565 L 489 566 L 489 570 L 490 571 L 490 574 L 491 575 L 491 581 L 492 582 L 492 590 L 493 591 L 493 599 L 494 600 L 494 609 L 495 610 L 495 620 L 498 627 L 506 636 L 513 647 L 513 649 L 514 650 L 514 661 L 511 668 L 505 674 L 503 675 L 500 675 L 498 673 L 498 662 L 497 661 L 497 659 L 493 654 L 491 654 L 490 655 L 491 675 L 487 679 L 485 679 L 484 680 L 480 680 L 479 681 L 472 681 L 470 679 L 470 666 L 468 662 L 466 660 L 463 660 L 462 661 L 462 666 L 463 667 L 463 680 L 461 682 L 459 682 L 458 683 L 442 683 L 438 680 L 438 662 L 435 659 L 434 659 L 431 663 L 431 668 L 430 669 L 431 680 L 429 682 L 426 682 L 425 681 L 421 681 L 420 680 L 413 679 L 405 675 L 401 671 L 398 664 L 398 661 L 397 660 L 397 654 L 398 653 L 398 638 L 397 637 L 396 632 L 391 628 L 389 624 L 389 621 L 388 620 L 387 614 L 381 607 L 381 604 L 380 603 L 380 597 L 378 595 L 376 596 L 374 594 L 372 585 L 371 584 L 368 585 L 365 581 L 364 575 L 363 574 L 363 564 L 364 563 L 364 560 L 367 553 L 366 552 L 364 552 L 359 555 L 356 561 L 356 563 L 353 566 L 337 566 L 336 565 L 329 565 L 328 564 L 318 563 L 317 562 L 309 561 L 308 560 L 305 560 L 304 561 L 304 563 L 311 567 L 313 567 L 320 570 L 323 570 L 324 571 L 329 571 L 330 572 L 332 572 L 334 574 L 334 576 L 332 580 L 332 584 L 331 585 L 332 599 L 330 601 L 328 601 L 327 600 L 326 601 L 327 603 L 327 607 L 328 608 L 328 613 L 329 614 L 329 623 L 330 624 L 330 630 L 328 632 L 326 631 L 324 632 L 325 634 L 325 638 L 326 639 L 326 643 L 327 644 L 327 655 L 326 656 L 326 659 L 324 663 L 320 667 L 319 667 L 317 669 L 314 669 L 310 671 L 299 672 L 298 673 L 293 673 L 292 674 L 285 674 L 284 675 L 276 675 L 275 676 L 256 676 L 255 677 L 249 677 L 248 676 L 239 676 L 237 674 L 237 662 L 239 658 L 239 654 L 237 653 L 234 655 L 231 662 L 231 673 L 229 675 L 218 674 L 217 673 L 215 673 L 212 670 L 212 661 L 213 660 L 213 657 L 214 656 L 214 653 L 215 652 L 215 650 L 213 649 L 208 655 L 208 658 L 207 659 L 207 668 L 205 670 L 203 670 L 201 669 L 196 663 L 196 650 L 197 649 L 197 646 L 200 640 L 206 634 L 214 630 L 217 630 L 218 629 L 223 629 L 224 628 L 231 628 L 231 627 L 226 622 L 223 616 L 223 614 L 222 613 L 222 611 L 219 604 L 219 601 L 218 600 L 218 592 L 214 592 L 212 590 L 212 586 L 213 585 L 213 582 L 214 581 L 214 576 L 215 574 L 213 574 L 210 576 L 209 576 L 207 574 L 207 567 L 208 566 L 208 563 L 209 562 L 211 551 L 213 547 L 211 546 L 207 548 L 205 546 L 205 543 L 208 538 L 208 536 L 210 533 L 210 531 L 212 527 L 211 526 L 207 526 L 206 525 L 206 521 L 211 512 L 214 512 L 216 514 L 218 514 L 218 513 L 207 494 L 206 486 L 202 487 L 200 485 L 200 483 L 199 482 L 199 464 L 197 464 L 196 465 L 193 462 L 194 450 L 195 449 L 195 445 L 196 444 L 197 438 L 198 437 L 198 433 L 193 435 L 191 433 L 192 426 L 194 423 L 196 416 L 202 405 L 201 404 L 197 404 L 195 402 L 195 400 L 206 383 L 206 381 L 205 380 L 204 381 L 202 379 L 202 376 L 206 368 L 208 366 L 211 359 L 211 356 L 214 349 L 214 347 L 211 344 L 211 343 L 216 333 L 216 331 L 217 330 L 217 325 L 220 319 L 221 313 L 217 314 L 213 318 L 211 322 L 212 324 L 212 328 L 210 330 L 205 340 L 205 344 L 204 345 L 204 359 L 197 374 L 197 378 L 196 379 L 197 381 L 197 386 L 193 391 L 189 400 L 189 408 L 190 409 L 190 414 L 185 424 L 184 433 L 179 438 L 173 441 L 167 446 L 162 448 L 160 450 L 156 452 L 154 454 L 154 455 L 150 460 L 149 463 L 147 465 L 146 468 L 138 478 L 138 479 L 126 490 L 120 493 L 116 493 L 112 489 L 112 486 L 110 482 L 106 483 L 104 485 L 101 486 L 97 489 L 95 489 L 94 490 L 88 490 L 85 486 L 85 482 L 86 481 L 87 477 L 89 475 L 90 472 L 93 468 L 93 466 L 94 465 L 93 464 L 79 475 L 75 477 L 69 478 L 65 475 L 65 473 L 64 472 L 64 468 L 67 461 L 69 459 L 69 458 L 84 444 L 84 443 L 82 443 L 81 444 L 75 445 L 74 446 L 71 446 L 70 447 L 61 447 L 59 445 L 59 439 L 61 435 L 69 427 L 71 427 L 75 425 L 77 423 L 76 421 L 71 419 L 69 417 L 67 413 L 68 407 L 69 405 L 75 399 L 77 399 L 80 397 L 82 397 L 86 395 L 99 393 L 106 389 L 120 375 L 120 374 L 134 360 L 134 359 L 140 354 L 143 349 L 149 343 L 154 340 L 154 339 L 153 339 L 151 337 L 152 334 L 160 328 L 168 324 L 174 319 L 174 317 L 170 317 L 169 316 L 169 314 L 173 310 L 186 304 L 192 299 L 192 298 L 187 298 L 185 296 L 185 295 L 189 291 L 191 291 L 207 283 L 210 280 L 210 279 L 207 279 L 205 277 L 205 276 L 209 272 L 214 270 L 216 268 L 218 268 L 224 265 L 227 262 L 227 260 L 224 257 L 229 252 L 231 252 L 232 251 L 239 251 L 240 250 L 234 244 L 227 240 L 221 234 L 217 227 L 216 227 L 216 228 L 214 230 L 213 230 L 209 226 L 208 222 L 207 221 L 207 218 L 206 217 L 206 213 L 204 212 L 202 214 L 200 214 L 196 210 L 196 208 L 195 207 L 195 201 L 194 200 L 195 198 L 195 190 L 190 190 L 188 188 L 188 178 L 190 175 L 191 169 L 192 168 L 191 167 L 187 168 L 185 166 L 185 162 L 192 148 L 191 147 L 189 148 L 186 148 L 184 146 L 184 143 L 185 141 L 196 130 L 196 120 L 197 119 L 197 117 L 200 113 L 207 99 L 207 98 L 205 96 L 199 93 L 193 87 L 190 82 L 190 80 L 188 76 L 188 63 L 189 62 L 189 59 L 193 51 L 201 43 L 210 38 L 212 38 L 216 36 L 229 36 L 238 41 L 244 47 L 246 52 L 248 53 L 250 51 L 260 45 L 266 44 L 267 43 L 270 43 L 276 37 L 294 37 L 295 35 L 293 31 L 293 28 L 295 26 L 301 26 L 311 33 L 314 33 L 320 27 L 326 24 L 330 24 L 332 26 L 332 29 L 330 32 L 331 34 L 348 34 L 349 35 L 353 35 L 354 36 L 357 36 L 358 37 L 366 39 L 374 43 L 378 35 L 387 27 L 393 24 L 396 24 L 397 23 L 400 23 L 401 22 Z" fill="#010101" fill-rule="evenodd"/></svg>