<svg xmlns="http://www.w3.org/2000/svg" viewBox="0 0 653 704" shape-rendering="geometricPrecision"><title>intro frame 097</title><path d="M 490 616 L 490 623 L 492 622 L 492 618 Z M 469 512 L 458 521 L 455 521 L 452 523 L 445 531 L 441 528 L 433 538 L 431 538 L 429 536 L 421 546 L 417 544 L 412 550 L 404 557 L 398 568 L 394 572 L 389 584 L 389 588 L 388 589 L 392 593 L 391 608 L 394 608 L 396 610 L 395 625 L 396 628 L 399 627 L 402 630 L 402 641 L 403 642 L 403 646 L 402 647 L 401 655 L 400 656 L 400 667 L 402 671 L 406 675 L 408 675 L 411 677 L 414 677 L 417 679 L 426 680 L 427 681 L 435 681 L 436 680 L 436 664 L 440 659 L 444 659 L 448 663 L 448 667 L 449 668 L 449 681 L 450 682 L 468 682 L 469 681 L 469 677 L 468 676 L 468 660 L 470 658 L 475 658 L 479 662 L 482 670 L 482 680 L 491 680 L 495 678 L 495 668 L 494 667 L 493 659 L 497 655 L 499 655 L 502 657 L 505 661 L 506 665 L 508 668 L 508 675 L 509 676 L 514 672 L 516 667 L 515 656 L 513 651 L 506 644 L 496 639 L 492 639 L 491 638 L 488 638 L 486 640 L 459 639 L 458 640 L 451 640 L 450 641 L 436 640 L 432 642 L 429 640 L 431 638 L 434 638 L 442 634 L 443 635 L 444 634 L 451 634 L 452 633 L 466 632 L 467 631 L 483 633 L 481 627 L 481 623 L 483 620 L 483 616 L 486 613 L 488 613 L 486 609 L 486 606 L 484 604 L 484 602 L 486 601 L 489 605 L 491 605 L 493 603 L 492 600 L 490 598 L 487 597 L 485 595 L 481 594 L 478 591 L 474 589 L 465 580 L 467 577 L 473 579 L 478 582 L 487 585 L 488 584 L 488 581 L 474 565 L 474 563 L 476 561 L 488 569 L 489 566 L 487 564 L 485 558 L 478 552 L 474 551 L 470 548 L 471 546 L 474 547 L 483 547 L 484 545 L 477 539 L 477 536 L 478 535 L 482 536 L 485 538 L 487 538 L 487 537 L 478 528 L 475 522 L 474 517 Z M 443 583 L 445 583 L 450 588 L 454 594 L 456 599 L 455 602 L 453 602 L 444 592 L 442 587 L 442 584 Z M 435 581 L 437 584 L 437 586 L 435 592 L 432 594 L 430 592 L 430 590 L 433 582 Z M 409 562 L 411 564 L 410 569 L 408 573 L 406 575 L 404 575 L 402 572 L 406 564 Z M 228 508 L 226 514 L 222 519 L 223 520 L 226 519 L 228 521 L 228 525 L 222 538 L 227 538 L 229 540 L 222 561 L 222 566 L 227 566 L 228 567 L 228 574 L 226 580 L 229 583 L 229 595 L 231 599 L 232 610 L 233 611 L 234 618 L 239 624 L 248 625 L 254 628 L 256 628 L 258 630 L 258 632 L 256 634 L 252 634 L 251 633 L 243 632 L 242 631 L 225 631 L 210 636 L 205 640 L 202 646 L 201 655 L 200 656 L 201 662 L 203 665 L 205 665 L 205 659 L 207 655 L 207 652 L 213 646 L 218 645 L 220 647 L 220 653 L 218 657 L 218 662 L 217 663 L 217 668 L 218 669 L 228 671 L 229 670 L 229 662 L 232 656 L 232 654 L 237 650 L 241 650 L 244 653 L 244 657 L 242 661 L 242 666 L 241 667 L 241 671 L 244 673 L 273 672 L 276 668 L 283 665 L 286 662 L 288 662 L 294 656 L 294 650 L 293 647 L 287 640 L 287 634 L 290 633 L 291 635 L 292 635 L 293 631 L 295 629 L 297 629 L 293 621 L 293 618 L 297 615 L 297 613 L 294 604 L 292 601 L 286 596 L 285 588 L 287 586 L 294 594 L 295 592 L 292 589 L 292 587 L 296 583 L 277 563 L 270 551 L 267 548 L 262 540 L 257 538 L 251 531 L 251 529 L 245 522 L 239 519 L 233 513 L 230 508 Z M 258 581 L 260 583 L 260 585 L 257 588 L 255 586 L 255 583 Z M 266 575 L 269 576 L 274 586 L 274 589 L 273 590 L 271 590 L 266 583 L 265 580 L 265 576 Z M 280 571 L 283 573 L 282 583 L 281 584 L 278 583 L 278 575 Z M 248 566 L 250 568 L 250 570 L 243 577 L 242 577 L 240 574 Z M 465 424 L 464 425 L 470 431 L 471 430 L 470 428 Z M 187 113 L 188 115 L 192 115 L 193 114 L 191 111 L 189 111 Z M 447 15 L 436 14 L 435 15 L 431 15 L 420 21 L 413 29 L 411 34 L 411 37 L 409 39 L 402 38 L 399 36 L 396 36 L 395 35 L 385 34 L 384 33 L 366 33 L 365 34 L 359 34 L 357 32 L 358 24 L 356 24 L 346 34 L 332 27 L 329 27 L 328 28 L 331 32 L 331 36 L 327 39 L 312 39 L 310 40 L 307 44 L 294 49 L 283 57 L 280 57 L 278 55 L 277 52 L 273 48 L 263 43 L 251 43 L 245 45 L 239 49 L 231 58 L 227 70 L 228 82 L 231 88 L 238 95 L 241 97 L 246 98 L 249 101 L 248 106 L 240 123 L 241 134 L 230 146 L 231 148 L 233 147 L 237 147 L 239 149 L 239 152 L 232 166 L 233 168 L 234 167 L 237 167 L 239 169 L 239 174 L 237 180 L 237 189 L 238 190 L 242 187 L 245 190 L 244 202 L 247 210 L 248 211 L 253 207 L 256 210 L 256 213 L 258 217 L 261 218 L 270 228 L 276 232 L 288 237 L 295 245 L 295 248 L 293 250 L 291 250 L 288 247 L 280 243 L 278 247 L 275 250 L 272 250 L 268 246 L 262 237 L 261 237 L 261 239 L 259 241 L 257 241 L 253 236 L 253 234 L 248 227 L 245 230 L 243 230 L 240 227 L 236 217 L 233 214 L 228 218 L 223 213 L 217 196 L 215 194 L 213 195 L 209 195 L 207 193 L 201 182 L 199 180 L 198 176 L 194 171 L 194 169 L 190 163 L 184 157 L 184 152 L 187 149 L 192 140 L 190 139 L 185 142 L 183 142 L 181 144 L 179 144 L 172 138 L 172 131 L 176 124 L 176 120 L 171 115 L 170 118 L 163 124 L 159 123 L 151 118 L 149 120 L 143 120 L 137 125 L 132 125 L 131 126 L 119 126 L 119 134 L 118 137 L 114 140 L 109 140 L 105 137 L 103 137 L 103 140 L 106 144 L 109 151 L 110 151 L 114 145 L 131 129 L 133 129 L 142 125 L 153 125 L 156 126 L 168 135 L 171 144 L 173 147 L 172 159 L 170 162 L 160 171 L 158 171 L 153 174 L 141 178 L 138 178 L 134 180 L 124 181 L 115 177 L 110 171 L 109 167 L 107 165 L 107 158 L 104 159 L 100 159 L 98 158 L 93 153 L 92 149 L 88 143 L 88 141 L 86 142 L 87 144 L 87 151 L 91 157 L 92 161 L 101 172 L 106 180 L 114 187 L 115 194 L 116 195 L 116 199 L 118 203 L 118 208 L 120 212 L 122 214 L 124 213 L 136 228 L 141 237 L 158 255 L 171 265 L 182 270 L 190 272 L 194 274 L 197 277 L 197 280 L 195 282 L 188 283 L 188 285 L 190 286 L 194 286 L 195 287 L 206 287 L 214 293 L 227 295 L 229 297 L 229 299 L 227 301 L 219 303 L 218 305 L 225 308 L 230 308 L 231 309 L 237 309 L 241 304 L 242 301 L 248 295 L 250 294 L 254 294 L 256 296 L 256 299 L 254 302 L 254 304 L 246 320 L 246 325 L 243 334 L 244 335 L 254 326 L 261 322 L 263 322 L 265 325 L 255 340 L 246 349 L 240 353 L 238 353 L 229 366 L 230 367 L 234 367 L 236 369 L 236 372 L 222 389 L 222 391 L 228 390 L 230 392 L 230 395 L 228 399 L 225 402 L 223 407 L 221 409 L 221 411 L 216 419 L 217 422 L 220 420 L 222 420 L 224 422 L 224 426 L 220 435 L 217 450 L 221 447 L 223 448 L 222 472 L 225 470 L 228 472 L 229 474 L 230 487 L 231 488 L 235 487 L 237 489 L 240 497 L 242 495 L 245 496 L 250 509 L 252 510 L 252 509 L 255 507 L 259 511 L 265 521 L 266 521 L 267 519 L 269 519 L 277 528 L 282 525 L 292 536 L 295 533 L 302 540 L 302 538 L 300 536 L 298 531 L 294 526 L 290 518 L 289 512 L 288 511 L 288 506 L 290 504 L 292 506 L 292 508 L 298 519 L 304 527 L 307 529 L 314 537 L 318 538 L 320 537 L 324 532 L 327 534 L 328 537 L 331 537 L 341 527 L 345 524 L 347 524 L 348 525 L 348 528 L 344 536 L 344 542 L 345 543 L 353 536 L 359 533 L 363 529 L 365 529 L 367 532 L 362 542 L 365 543 L 373 538 L 384 522 L 388 519 L 390 522 L 386 535 L 387 535 L 394 514 L 396 512 L 399 514 L 400 517 L 400 525 L 399 526 L 398 532 L 396 535 L 397 536 L 403 531 L 409 523 L 418 505 L 420 505 L 423 508 L 423 513 L 421 519 L 418 524 L 420 525 L 427 518 L 431 512 L 435 504 L 437 496 L 439 493 L 440 493 L 442 496 L 442 503 L 441 504 L 441 508 L 442 509 L 445 506 L 450 498 L 451 492 L 453 488 L 456 485 L 458 485 L 459 486 L 459 489 L 460 489 L 461 484 L 464 478 L 464 474 L 465 473 L 464 470 L 464 464 L 466 462 L 467 459 L 467 454 L 464 448 L 464 445 L 466 443 L 470 444 L 470 440 L 465 432 L 462 429 L 462 426 L 455 416 L 455 414 L 456 413 L 465 420 L 467 419 L 468 414 L 462 407 L 456 404 L 449 404 L 445 401 L 445 399 L 447 397 L 454 397 L 455 398 L 458 398 L 465 402 L 466 401 L 463 396 L 463 394 L 459 388 L 458 384 L 455 381 L 457 378 L 460 380 L 461 379 L 460 377 L 458 376 L 445 362 L 446 359 L 450 362 L 457 365 L 456 358 L 453 354 L 447 351 L 436 350 L 431 346 L 433 343 L 438 343 L 447 347 L 451 350 L 452 349 L 452 347 L 449 341 L 445 336 L 445 333 L 447 331 L 450 333 L 450 329 L 448 325 L 449 323 L 451 323 L 453 325 L 454 328 L 461 336 L 461 338 L 466 348 L 472 356 L 472 358 L 479 370 L 482 381 L 486 389 L 486 392 L 488 396 L 488 399 L 489 400 L 489 403 L 492 412 L 495 431 L 497 436 L 497 443 L 493 452 L 492 462 L 491 463 L 493 476 L 498 481 L 503 482 L 506 480 L 510 471 L 510 469 L 513 466 L 516 466 L 519 469 L 519 479 L 516 488 L 512 493 L 513 496 L 516 499 L 520 501 L 526 501 L 528 500 L 531 497 L 538 483 L 540 481 L 542 481 L 545 484 L 546 487 L 545 494 L 542 501 L 543 503 L 545 503 L 546 502 L 550 502 L 555 498 L 556 494 L 559 489 L 560 484 L 564 479 L 566 479 L 569 482 L 569 492 L 570 492 L 576 485 L 576 483 L 580 475 L 581 467 L 582 466 L 582 461 L 583 460 L 583 446 L 582 445 L 582 439 L 581 438 L 580 432 L 582 430 L 584 430 L 584 428 L 582 424 L 582 421 L 580 417 L 580 414 L 578 408 L 574 403 L 573 398 L 575 396 L 578 398 L 579 397 L 569 381 L 564 375 L 566 372 L 572 373 L 562 359 L 552 348 L 554 345 L 558 345 L 563 347 L 563 346 L 543 327 L 533 319 L 535 316 L 538 316 L 539 317 L 544 317 L 544 316 L 532 306 L 521 300 L 519 298 L 519 296 L 522 293 L 526 293 L 526 292 L 516 288 L 511 284 L 508 283 L 505 280 L 507 277 L 514 277 L 515 278 L 516 277 L 502 267 L 495 263 L 491 262 L 487 257 L 489 255 L 493 255 L 492 253 L 490 253 L 484 249 L 476 247 L 472 244 L 458 242 L 455 244 L 453 244 L 448 250 L 446 250 L 443 247 L 429 247 L 428 246 L 426 246 L 423 249 L 419 249 L 416 246 L 416 242 L 415 242 L 409 248 L 405 254 L 402 252 L 402 248 L 408 239 L 414 234 L 417 234 L 423 226 L 426 227 L 426 232 L 428 232 L 430 222 L 432 220 L 434 220 L 437 223 L 439 220 L 438 212 L 439 211 L 442 211 L 445 214 L 446 213 L 446 208 L 449 205 L 449 203 L 451 201 L 455 202 L 455 200 L 446 191 L 449 189 L 450 190 L 453 190 L 460 194 L 461 193 L 460 192 L 460 189 L 456 182 L 458 180 L 461 180 L 466 183 L 467 182 L 467 177 L 461 172 L 463 170 L 466 171 L 469 170 L 468 166 L 460 158 L 462 156 L 465 156 L 473 160 L 476 164 L 480 167 L 479 169 L 480 171 L 481 171 L 483 168 L 489 170 L 489 167 L 487 161 L 482 153 L 482 149 L 484 147 L 487 147 L 491 149 L 492 147 L 488 141 L 477 129 L 477 127 L 479 125 L 489 125 L 489 124 L 474 113 L 474 109 L 477 105 L 472 99 L 463 82 L 456 74 L 456 72 L 458 70 L 461 69 L 466 65 L 471 57 L 473 51 L 472 37 L 469 31 L 464 25 L 456 19 Z M 284 513 L 285 513 L 288 517 L 287 520 L 286 520 L 283 516 Z M 265 498 L 268 502 L 268 505 L 267 506 L 264 504 L 263 501 Z M 429 495 L 430 496 L 430 499 L 427 501 L 426 498 L 427 496 Z M 408 488 L 411 490 L 413 496 L 413 504 L 410 507 L 408 505 L 408 501 L 409 500 L 409 493 L 407 491 Z M 269 487 L 272 490 L 273 494 L 279 505 L 279 509 L 280 511 L 277 514 L 273 511 L 268 498 L 268 491 L 267 489 Z M 271 463 L 273 465 L 273 469 L 271 472 L 271 474 L 268 475 L 267 472 L 268 471 L 269 465 Z M 436 454 L 439 456 L 440 459 L 442 461 L 448 477 L 448 481 L 446 483 L 442 482 L 439 488 L 439 490 L 437 492 L 430 491 L 429 490 L 429 478 L 425 473 L 425 471 L 428 470 L 434 477 L 435 476 L 436 466 L 435 465 L 434 456 Z M 258 440 L 260 442 L 259 448 L 255 457 L 254 463 L 252 466 L 250 466 L 248 464 L 249 453 L 254 443 Z M 411 423 L 413 421 L 419 424 L 429 423 L 432 426 L 429 429 L 425 429 L 424 430 L 425 431 L 423 433 L 420 433 Z M 256 416 L 258 419 L 253 425 L 250 433 L 249 434 L 245 434 L 243 432 L 243 430 L 247 422 L 251 418 Z M 428 401 L 434 405 L 440 407 L 449 415 L 447 418 L 440 418 L 439 417 L 438 418 L 438 420 L 440 423 L 439 426 L 434 422 L 434 418 L 432 416 L 432 411 L 426 403 Z M 421 393 L 422 392 L 429 392 L 431 394 L 431 396 L 429 398 L 428 397 L 424 397 Z M 433 387 L 436 384 L 438 384 L 443 390 L 443 392 L 442 393 L 439 393 L 437 392 Z M 438 369 L 444 370 L 448 373 L 447 378 L 444 381 L 442 381 L 436 374 L 436 371 Z M 384 370 L 386 368 L 390 369 L 399 376 L 405 379 L 408 379 L 409 380 L 408 384 L 406 386 L 403 385 L 396 378 L 389 374 L 387 374 Z M 489 365 L 491 367 L 490 370 L 488 369 L 488 366 Z M 409 365 L 411 364 L 414 367 L 418 369 L 420 371 L 420 373 L 418 375 L 410 376 L 408 371 L 409 369 Z M 533 356 L 535 354 L 537 354 L 543 358 L 540 360 L 535 358 Z M 423 347 L 425 349 L 423 352 L 421 350 Z M 434 326 L 438 329 L 438 331 L 436 333 L 433 330 L 433 327 Z M 423 325 L 425 324 L 426 325 L 429 325 L 431 327 L 430 328 L 425 328 Z M 430 311 L 436 319 L 437 322 L 435 324 L 431 320 L 428 315 L 428 313 Z M 373 310 L 377 315 L 375 318 L 374 318 L 371 314 L 371 311 Z M 377 310 L 380 309 L 384 313 L 388 315 L 389 314 L 389 310 L 391 309 L 393 311 L 393 317 L 390 320 L 387 318 L 383 318 L 377 312 Z M 323 307 L 318 311 L 315 311 L 314 309 L 319 305 L 321 305 Z M 421 301 L 424 305 L 424 310 L 417 318 L 414 318 L 412 315 L 420 309 L 420 302 Z M 431 299 L 434 298 L 438 302 L 438 304 L 437 305 L 434 305 L 432 303 Z M 382 292 L 384 292 L 386 294 L 387 299 L 390 304 L 389 307 L 387 306 L 380 297 L 380 294 Z M 311 290 L 313 292 L 311 294 L 310 297 L 305 301 L 304 300 L 304 297 L 306 294 Z M 420 287 L 422 290 L 421 293 L 421 301 L 420 302 L 415 296 L 418 292 L 418 288 Z M 258 272 L 259 274 L 255 278 L 258 282 L 254 286 L 250 288 L 248 286 L 250 283 L 250 277 L 255 272 Z M 258 264 L 260 261 L 263 260 L 266 260 L 268 262 L 265 266 L 260 266 Z M 419 261 L 414 265 L 411 265 L 410 264 L 410 262 L 415 259 L 417 259 Z M 262 253 L 266 250 L 268 251 L 270 254 L 268 256 L 266 256 Z M 398 244 L 398 247 L 396 251 L 382 265 L 374 271 L 368 274 L 365 277 L 360 277 L 357 279 L 348 279 L 338 274 L 329 268 L 317 256 L 317 252 L 321 249 L 329 250 L 330 251 L 336 251 L 337 252 L 353 252 L 354 251 L 358 251 L 359 250 L 363 250 L 364 249 L 377 247 L 391 242 L 396 242 Z M 384 127 L 391 120 L 395 118 L 398 118 L 399 117 L 415 117 L 416 118 L 421 118 L 424 120 L 428 121 L 434 127 L 436 131 L 436 135 L 434 140 L 426 146 L 423 147 L 406 147 L 405 146 L 402 146 L 396 144 L 391 141 L 385 135 L 384 133 Z M 306 111 L 310 107 L 316 104 L 324 104 L 325 103 L 329 103 L 330 104 L 336 105 L 342 110 L 342 112 L 339 115 L 333 113 L 330 113 L 329 112 L 317 112 L 312 114 L 308 114 Z M 285 99 L 287 98 L 293 98 L 296 101 L 298 105 L 298 114 L 294 122 L 300 120 L 304 120 L 305 119 L 316 119 L 328 123 L 331 125 L 336 131 L 336 137 L 333 143 L 323 152 L 311 157 L 302 157 L 292 153 L 284 145 L 283 142 L 282 142 L 282 145 L 281 146 L 281 157 L 283 161 L 291 167 L 298 167 L 302 165 L 305 162 L 308 161 L 312 161 L 313 162 L 317 162 L 323 164 L 329 164 L 330 165 L 340 165 L 341 164 L 344 164 L 353 161 L 362 156 L 366 152 L 368 147 L 371 144 L 375 144 L 379 148 L 382 157 L 382 168 L 383 169 L 382 184 L 381 185 L 381 190 L 379 195 L 379 199 L 376 205 L 376 207 L 374 209 L 374 211 L 370 217 L 362 225 L 353 231 L 347 233 L 335 233 L 326 229 L 320 225 L 310 215 L 301 203 L 294 190 L 294 188 L 292 185 L 291 178 L 289 176 L 287 176 L 280 172 L 273 164 L 270 157 L 270 149 L 269 149 L 260 158 L 256 160 L 252 160 L 246 158 L 241 152 L 241 147 L 244 141 L 248 137 L 260 131 L 267 131 L 269 132 L 273 137 L 279 137 L 280 138 L 281 137 L 281 132 L 285 126 L 283 126 L 280 123 L 278 119 L 278 112 L 282 102 Z M 373 90 L 376 90 L 380 92 L 384 96 L 386 100 L 386 113 L 384 118 L 379 123 L 372 123 L 370 122 L 366 118 L 364 114 L 364 100 L 365 97 Z M 303 63 L 303 67 L 300 70 L 292 73 L 288 77 L 286 78 L 282 78 L 279 75 L 279 72 L 281 68 L 287 62 L 290 61 L 292 59 L 299 59 Z M 259 57 L 264 59 L 271 66 L 271 68 L 264 76 L 258 86 L 253 91 L 250 91 L 241 83 L 239 72 L 242 65 L 248 59 L 250 59 L 253 57 Z M 363 53 L 369 48 L 377 48 L 380 50 L 384 51 L 390 57 L 391 62 L 387 66 L 382 66 L 377 62 L 366 59 L 363 56 Z M 435 31 L 438 30 L 445 30 L 448 32 L 450 32 L 458 40 L 460 44 L 460 55 L 458 58 L 450 65 L 447 65 L 444 63 L 435 54 L 429 51 L 424 46 L 425 41 L 427 38 Z" fill="#FBFBFB" fill-rule="evenodd"/><path d="M 443 584 L 444 590 L 447 595 L 453 601 L 455 601 L 454 596 L 449 588 L 445 584 Z M 435 582 L 434 582 L 431 590 L 432 593 L 433 593 L 435 590 L 435 587 L 436 586 Z M 258 582 L 256 583 L 256 586 L 257 587 L 259 585 Z M 266 576 L 266 580 L 268 585 L 271 589 L 273 589 L 273 586 L 268 576 Z M 280 572 L 279 575 L 279 583 L 281 583 L 281 578 L 282 577 L 282 573 Z M 248 567 L 241 574 L 242 576 L 243 576 L 249 570 Z M 409 563 L 408 563 L 405 567 L 405 569 L 403 572 L 404 574 L 406 574 L 409 569 L 409 566 L 410 565 Z M 223 555 L 220 568 L 221 569 L 223 567 L 225 567 L 227 569 L 227 574 L 226 575 L 225 582 L 228 585 L 228 595 L 229 597 L 228 595 L 228 583 L 225 580 L 227 574 L 227 567 L 222 567 L 221 566 L 221 561 Z M 221 520 L 222 521 L 225 520 L 227 522 L 227 525 L 220 539 L 221 541 L 224 539 L 226 539 L 228 541 L 224 553 L 228 540 L 227 539 L 222 539 L 221 537 L 227 525 L 227 521 L 226 520 L 223 521 Z M 265 499 L 264 501 L 265 504 L 267 505 L 267 502 Z M 408 489 L 408 491 L 410 493 L 410 500 L 409 501 L 409 505 L 410 506 L 412 504 L 412 496 L 410 490 Z M 269 488 L 268 489 L 269 491 L 269 498 L 274 511 L 277 513 L 279 511 L 278 509 L 278 505 L 272 494 L 271 490 Z M 271 495 L 273 496 L 274 499 L 276 501 L 278 507 L 277 509 L 274 508 L 270 499 L 270 496 Z M 568 482 L 568 484 L 568 482 L 566 480 L 564 480 L 562 482 L 560 489 L 557 494 L 557 496 L 553 501 L 550 503 L 543 504 L 541 502 L 542 499 L 540 503 L 541 504 L 547 504 L 552 502 L 558 495 L 562 483 L 565 480 Z M 271 464 L 269 468 L 268 474 L 270 474 L 270 472 L 272 469 L 272 465 Z M 437 455 L 435 456 L 435 460 L 437 466 L 436 476 L 434 478 L 428 471 L 426 471 L 427 475 L 430 478 L 430 490 L 434 490 L 435 491 L 438 490 L 440 483 L 442 481 L 444 482 L 447 481 L 447 477 L 446 476 L 445 470 L 442 465 L 441 461 Z M 437 458 L 439 459 L 443 468 L 443 471 L 444 472 L 442 474 L 440 474 L 438 472 L 437 462 L 436 461 Z M 217 443 L 216 453 L 220 450 L 222 452 L 222 459 L 222 448 L 217 451 L 216 450 Z M 258 441 L 255 443 L 251 450 L 250 456 L 249 457 L 249 464 L 250 465 L 252 465 L 253 463 L 254 457 L 256 454 L 258 448 L 258 445 L 259 444 Z M 255 448 L 256 450 L 254 456 L 252 457 L 251 456 L 251 453 L 252 450 Z M 412 423 L 420 432 L 423 432 L 424 431 L 423 430 L 425 428 L 429 428 L 431 426 L 429 424 L 419 425 L 413 422 Z M 256 417 L 251 419 L 248 422 L 244 430 L 245 433 L 249 433 L 252 425 L 257 419 Z M 428 402 L 427 403 L 433 411 L 433 416 L 435 418 L 435 422 L 439 425 L 437 418 L 439 416 L 440 417 L 447 417 L 448 415 L 440 408 L 438 408 L 436 406 L 434 406 Z M 434 410 L 435 409 L 438 409 L 440 411 L 438 413 L 436 413 Z M 422 393 L 424 396 L 428 396 L 429 397 L 430 396 L 429 393 Z M 434 387 L 437 391 L 442 392 L 442 390 L 438 385 L 436 385 Z M 438 370 L 437 371 L 437 374 L 442 380 L 444 380 L 446 378 L 447 373 L 444 371 Z M 385 370 L 387 373 L 389 373 L 396 377 L 403 384 L 405 385 L 407 384 L 408 380 L 405 380 L 399 377 L 390 370 L 387 369 Z M 234 368 L 235 369 L 235 372 L 219 392 L 221 393 L 227 391 L 229 393 L 229 395 L 224 402 L 215 419 L 215 424 L 219 422 L 222 422 L 223 423 L 223 426 L 221 429 L 218 441 L 219 435 L 223 426 L 223 422 L 220 421 L 217 423 L 215 421 L 215 419 L 220 411 L 220 409 L 222 407 L 224 402 L 227 399 L 229 395 L 229 392 L 228 391 L 222 392 L 221 389 L 235 372 L 235 369 Z M 410 365 L 410 369 L 409 370 L 410 375 L 418 374 L 419 371 Z M 534 356 L 540 359 L 542 358 L 537 355 Z M 554 346 L 553 348 L 563 359 L 573 373 L 572 374 L 566 373 L 565 375 L 570 381 L 580 397 L 578 399 L 576 397 L 574 398 L 575 403 L 578 407 L 575 401 L 577 399 L 579 400 L 581 400 L 578 393 L 572 385 L 571 382 L 566 376 L 568 373 L 572 375 L 574 374 L 561 356 L 554 348 L 555 346 L 561 347 Z M 434 327 L 434 330 L 436 332 L 437 329 Z M 451 324 L 449 324 L 451 329 L 451 333 L 449 334 L 447 332 L 446 333 L 446 336 L 450 341 L 453 347 L 453 349 L 451 351 L 447 348 L 438 344 L 433 344 L 432 346 L 436 349 L 447 350 L 453 353 L 457 358 L 457 361 L 458 362 L 458 365 L 457 366 L 450 363 L 446 360 L 446 362 L 450 367 L 461 377 L 462 379 L 460 381 L 457 379 L 456 381 L 459 384 L 460 388 L 464 394 L 464 396 L 467 401 L 465 403 L 458 399 L 455 399 L 454 398 L 447 398 L 446 401 L 449 403 L 456 403 L 462 406 L 468 412 L 469 417 L 466 421 L 463 420 L 456 414 L 456 416 L 463 426 L 463 429 L 471 440 L 471 444 L 470 445 L 468 444 L 465 445 L 465 448 L 468 454 L 468 459 L 467 462 L 465 464 L 465 470 L 466 473 L 465 474 L 465 478 L 462 484 L 461 489 L 459 490 L 458 489 L 458 486 L 456 486 L 454 488 L 452 492 L 451 498 L 446 506 L 442 510 L 440 508 L 441 496 L 440 494 L 439 494 L 436 504 L 432 512 L 428 518 L 420 526 L 417 524 L 420 519 L 422 513 L 422 508 L 420 506 L 418 506 L 410 523 L 404 531 L 397 537 L 395 535 L 397 532 L 398 526 L 399 525 L 399 517 L 398 514 L 396 513 L 391 528 L 387 536 L 386 536 L 385 534 L 389 522 L 388 520 L 385 522 L 374 538 L 369 542 L 365 544 L 363 544 L 361 542 L 366 532 L 365 530 L 363 530 L 359 534 L 353 537 L 345 544 L 343 542 L 343 536 L 347 528 L 347 525 L 345 525 L 341 528 L 331 538 L 328 538 L 326 536 L 326 534 L 324 533 L 320 538 L 316 539 L 303 527 L 295 516 L 290 505 L 289 506 L 290 515 L 295 526 L 303 538 L 302 541 L 295 534 L 292 537 L 282 526 L 277 529 L 269 520 L 267 520 L 267 521 L 265 522 L 261 517 L 258 511 L 255 508 L 251 511 L 247 505 L 244 496 L 242 496 L 240 498 L 238 496 L 236 489 L 235 488 L 231 489 L 229 487 L 228 474 L 226 471 L 223 473 L 221 472 L 221 461 L 221 475 L 224 473 L 227 475 L 228 478 L 228 484 L 235 500 L 235 504 L 233 506 L 229 505 L 227 507 L 227 509 L 222 518 L 225 514 L 227 508 L 230 507 L 234 513 L 239 518 L 245 521 L 250 526 L 252 529 L 252 531 L 256 536 L 259 538 L 261 538 L 263 540 L 268 548 L 271 551 L 278 563 L 297 583 L 293 587 L 293 589 L 296 592 L 294 595 L 287 587 L 286 588 L 287 596 L 290 598 L 295 604 L 298 613 L 298 615 L 294 618 L 294 621 L 298 629 L 294 631 L 292 636 L 291 636 L 290 634 L 288 634 L 288 640 L 294 647 L 295 650 L 295 656 L 288 663 L 286 663 L 283 666 L 276 669 L 273 673 L 244 674 L 241 672 L 243 674 L 268 674 L 269 673 L 277 673 L 278 672 L 286 672 L 287 671 L 292 671 L 293 670 L 306 669 L 307 668 L 314 667 L 320 664 L 323 661 L 325 656 L 325 639 L 323 633 L 323 628 L 325 626 L 328 628 L 330 628 L 330 604 L 329 603 L 329 596 L 331 594 L 334 596 L 336 596 L 335 587 L 338 578 L 338 574 L 337 573 L 333 573 L 330 571 L 319 568 L 312 564 L 308 560 L 308 558 L 311 555 L 319 556 L 334 561 L 339 561 L 345 563 L 354 563 L 355 564 L 374 563 L 380 561 L 384 562 L 387 565 L 387 567 L 384 571 L 380 572 L 380 575 L 384 583 L 384 588 L 386 594 L 388 593 L 391 594 L 391 602 L 391 593 L 387 589 L 388 588 L 388 584 L 393 572 L 397 568 L 403 557 L 408 553 L 417 543 L 421 545 L 429 535 L 431 537 L 433 537 L 441 527 L 445 530 L 452 522 L 455 520 L 458 520 L 469 511 L 475 517 L 476 522 L 479 528 L 488 537 L 487 539 L 485 539 L 482 537 L 478 536 L 478 539 L 485 545 L 483 548 L 474 548 L 473 547 L 471 547 L 471 548 L 476 551 L 478 551 L 486 558 L 488 564 L 490 566 L 490 568 L 488 570 L 476 562 L 475 563 L 475 565 L 489 581 L 489 584 L 487 586 L 467 578 L 466 580 L 474 588 L 478 590 L 481 593 L 485 594 L 487 596 L 490 597 L 493 600 L 494 603 L 491 606 L 489 606 L 487 603 L 485 602 L 485 604 L 487 606 L 487 609 L 489 613 L 486 614 L 484 616 L 484 620 L 482 623 L 482 627 L 484 632 L 483 634 L 480 633 L 471 633 L 470 632 L 467 632 L 466 633 L 458 633 L 457 634 L 452 634 L 451 635 L 444 635 L 443 636 L 442 635 L 430 640 L 431 641 L 436 639 L 450 640 L 447 640 L 446 637 L 449 635 L 457 634 L 458 633 L 477 633 L 485 636 L 484 639 L 477 639 L 486 639 L 488 637 L 496 638 L 506 643 L 514 651 L 516 656 L 516 662 L 517 663 L 517 667 L 515 672 L 509 677 L 507 675 L 507 668 L 506 666 L 507 668 L 507 676 L 510 677 L 515 672 L 517 667 L 517 661 L 516 660 L 516 656 L 514 651 L 506 643 L 499 640 L 496 637 L 496 635 L 500 630 L 501 622 L 502 621 L 502 616 L 503 615 L 503 587 L 502 586 L 502 582 L 504 580 L 504 577 L 500 569 L 502 567 L 508 569 L 504 560 L 503 555 L 500 549 L 496 544 L 496 542 L 498 540 L 500 540 L 506 544 L 507 543 L 499 524 L 499 521 L 501 519 L 504 520 L 503 510 L 502 509 L 500 498 L 497 496 L 493 495 L 485 488 L 481 482 L 479 476 L 479 473 L 478 472 L 478 460 L 479 459 L 479 454 L 484 439 L 483 438 L 482 428 L 480 423 L 480 418 L 479 417 L 479 414 L 476 405 L 475 397 L 470 382 L 468 379 L 468 377 L 462 366 L 462 364 L 456 355 L 454 349 L 454 344 L 456 342 L 458 342 L 462 346 L 477 370 L 477 372 L 483 385 L 488 400 L 490 411 L 491 412 L 491 415 L 491 412 L 490 411 L 487 396 L 485 392 L 485 389 L 481 381 L 478 370 L 474 362 L 472 360 L 471 356 L 465 348 L 460 338 L 460 336 L 453 328 Z M 490 615 L 493 618 L 493 622 L 491 624 L 489 623 L 489 616 Z M 479 568 L 482 567 L 486 571 L 484 572 Z M 363 532 L 364 535 L 360 540 L 358 537 L 360 534 Z M 386 525 L 387 527 L 383 533 L 381 530 L 383 527 Z M 270 522 L 283 537 L 284 539 L 283 541 L 281 541 L 271 531 L 268 524 Z M 397 518 L 398 519 L 398 526 L 394 531 L 393 530 L 393 524 L 395 519 Z M 258 515 L 262 518 L 264 522 L 269 528 L 268 531 L 267 531 L 258 521 L 257 518 Z M 292 513 L 297 519 L 301 526 L 307 532 L 308 534 L 307 537 L 304 536 L 297 527 L 296 524 L 293 521 L 293 519 L 291 516 Z M 420 508 L 421 509 L 421 515 L 416 527 L 414 528 L 412 526 L 412 523 L 413 520 L 415 518 L 418 509 Z M 437 505 L 438 506 L 438 510 L 436 513 L 433 515 L 432 513 L 435 508 L 435 506 Z M 243 499 L 246 501 L 246 503 L 251 514 L 250 517 L 245 513 L 245 511 L 243 508 L 243 505 L 242 504 L 242 500 Z M 456 490 L 457 493 L 456 495 L 454 496 L 453 494 L 454 491 Z M 463 425 L 466 423 L 472 430 L 470 432 Z M 263 323 L 261 323 L 254 327 L 244 336 L 242 334 L 243 330 L 239 342 L 237 353 L 229 364 L 228 368 L 231 368 L 228 366 L 236 354 L 238 352 L 240 352 L 246 348 L 258 335 L 259 332 L 262 329 L 264 325 Z M 261 324 L 262 325 L 262 328 L 253 340 L 246 347 L 244 345 L 249 339 L 248 335 L 257 326 Z M 535 317 L 534 319 L 543 326 L 558 341 L 559 341 L 564 346 L 563 348 L 565 348 L 565 347 L 555 337 L 554 337 L 536 320 L 536 318 L 538 317 Z M 430 312 L 429 315 L 435 323 L 436 322 L 435 319 Z M 372 311 L 372 314 L 373 316 L 375 317 L 376 315 L 375 313 Z M 378 310 L 378 312 L 383 317 L 387 317 L 389 319 L 392 317 L 392 311 L 390 310 L 390 314 L 388 316 L 384 314 L 380 310 Z M 322 307 L 319 306 L 316 308 L 315 310 L 318 310 Z M 432 299 L 433 303 L 434 304 L 437 304 L 437 302 L 434 299 Z M 382 293 L 381 294 L 382 299 L 388 305 L 388 306 L 389 306 L 385 294 Z M 311 291 L 307 294 L 305 297 L 305 300 L 309 297 L 310 294 L 312 292 Z M 420 288 L 419 288 L 419 292 L 416 296 L 421 302 L 421 309 L 417 313 L 413 315 L 414 317 L 417 317 L 423 310 L 423 305 L 420 301 L 420 293 L 421 292 Z M 507 278 L 506 280 L 508 282 L 511 283 L 516 287 L 527 292 L 526 294 L 522 294 L 520 296 L 520 298 L 526 301 L 531 305 L 521 298 L 521 296 L 523 294 L 528 294 L 529 293 L 524 290 L 518 288 L 508 281 L 509 278 L 514 278 Z M 258 273 L 255 273 L 251 277 L 251 283 L 249 286 L 250 287 L 254 285 L 257 282 L 254 278 Z M 267 262 L 266 261 L 263 261 L 260 262 L 259 264 L 260 265 L 265 265 Z M 418 261 L 415 260 L 411 262 L 411 264 L 414 264 Z M 263 253 L 266 255 L 269 254 L 269 253 L 266 251 Z M 397 244 L 396 243 L 391 243 L 377 248 L 364 250 L 363 251 L 359 251 L 358 252 L 354 252 L 353 253 L 337 253 L 336 252 L 330 252 L 329 251 L 321 250 L 318 252 L 318 256 L 329 267 L 338 273 L 348 278 L 357 278 L 360 276 L 365 276 L 368 273 L 374 270 L 382 264 L 395 251 L 397 247 Z M 383 260 L 380 264 L 376 266 L 366 274 L 362 275 L 360 273 L 366 268 L 375 263 L 378 260 L 380 259 Z M 363 253 L 362 255 L 358 257 L 348 257 L 347 258 L 344 257 L 345 255 L 350 255 L 351 254 L 355 254 L 361 252 Z M 319 254 L 321 252 L 327 252 L 333 254 L 339 254 L 342 256 L 341 258 L 337 258 L 336 257 L 333 258 L 332 257 L 329 257 L 326 255 L 324 255 L 324 256 L 328 259 L 331 263 L 337 267 L 343 269 L 346 272 L 350 272 L 351 273 L 359 272 L 360 274 L 355 278 L 348 277 L 333 269 L 320 257 Z M 238 220 L 241 227 L 243 229 L 245 229 L 248 226 L 251 229 L 253 233 L 248 225 L 243 228 L 240 225 Z M 244 203 L 244 206 L 246 210 L 249 213 L 250 211 L 253 209 L 255 211 L 257 218 L 263 221 L 272 231 L 277 239 L 278 245 L 275 249 L 272 249 L 269 246 L 262 235 L 260 235 L 260 238 L 258 240 L 254 235 L 257 240 L 259 240 L 260 237 L 262 236 L 272 249 L 275 249 L 280 242 L 288 246 L 291 249 L 294 248 L 293 243 L 288 238 L 276 233 L 270 229 L 261 219 L 259 219 L 257 217 L 255 213 L 255 210 L 253 208 L 248 212 L 244 206 Z M 284 240 L 286 239 L 290 242 L 293 246 L 291 247 L 288 245 Z M 375 145 L 371 145 L 367 151 L 371 145 L 374 145 L 378 149 L 380 154 L 380 158 L 381 159 L 381 182 L 380 183 L 380 189 L 379 190 L 379 193 L 378 194 L 378 197 L 375 206 L 372 212 L 363 222 L 351 230 L 344 231 L 343 232 L 337 232 L 328 228 L 326 228 L 308 211 L 299 198 L 295 189 L 299 198 L 304 206 L 311 215 L 320 224 L 326 228 L 335 232 L 347 232 L 353 230 L 362 224 L 369 217 L 373 211 L 373 209 L 375 207 L 375 205 L 378 199 L 378 195 L 379 194 L 380 185 L 381 184 L 382 169 L 381 168 L 381 157 L 380 156 L 380 153 L 378 148 Z M 208 135 L 207 140 L 202 150 L 201 155 L 206 162 L 211 172 L 220 181 L 220 182 L 224 185 L 224 180 L 220 173 L 220 164 L 222 158 L 219 155 L 217 151 L 217 146 L 219 142 L 217 146 L 217 152 L 222 158 L 222 160 L 220 163 L 220 174 L 223 179 L 222 181 L 211 172 L 210 169 L 208 167 L 208 165 L 202 156 L 202 151 L 203 148 L 206 145 Z M 276 138 L 273 138 L 272 136 L 267 132 L 260 132 L 251 136 L 245 141 L 242 147 L 242 152 L 246 157 L 252 159 L 256 159 L 260 157 L 269 148 L 271 149 L 271 157 L 271 146 L 272 145 L 272 142 Z M 271 136 L 272 140 L 268 146 L 267 145 L 267 138 L 258 138 L 257 141 L 252 144 L 252 145 L 256 145 L 257 146 L 260 145 L 262 147 L 261 149 L 260 148 L 257 150 L 255 149 L 255 152 L 260 151 L 263 147 L 262 146 L 263 145 L 266 146 L 265 150 L 263 151 L 258 157 L 256 158 L 249 158 L 243 153 L 243 146 L 245 142 L 249 138 L 260 133 L 267 133 Z M 385 127 L 385 133 L 391 140 L 396 143 L 402 145 L 405 145 L 406 146 L 423 146 L 426 145 L 433 140 L 435 135 L 435 131 L 433 127 L 428 122 L 424 121 L 421 119 L 416 119 L 415 118 L 399 118 L 398 119 L 395 119 L 391 121 Z M 385 129 L 386 126 L 390 122 L 394 120 L 400 119 L 401 118 L 415 118 L 416 119 L 420 119 L 426 121 L 429 123 L 434 129 L 435 135 L 433 139 L 427 144 L 418 145 L 417 146 L 412 146 L 411 145 L 401 144 L 392 140 L 386 134 Z M 296 116 L 295 119 L 290 124 L 286 126 L 282 132 L 282 137 L 280 139 L 279 138 L 281 140 L 280 156 L 280 146 L 281 145 L 281 142 L 283 141 L 282 139 L 282 132 L 286 127 L 294 123 L 293 121 L 295 119 Z M 243 114 L 239 123 L 240 134 L 232 142 L 228 148 L 229 149 L 236 148 L 238 150 L 238 152 L 232 163 L 231 169 L 233 170 L 236 168 L 238 170 L 235 189 L 237 192 L 242 189 L 244 191 L 244 194 L 244 190 L 242 188 L 238 191 L 236 189 L 236 180 L 238 174 L 238 169 L 237 168 L 234 168 L 233 169 L 231 167 L 233 161 L 238 152 L 238 149 L 237 148 L 233 148 L 231 149 L 229 147 L 234 140 L 240 134 L 239 123 Z M 86 113 L 86 120 L 85 122 L 77 130 L 76 130 L 74 133 L 73 139 L 72 140 L 72 148 L 73 149 L 73 153 L 75 156 L 75 158 L 83 172 L 91 184 L 102 196 L 103 199 L 103 206 L 103 198 L 101 194 L 86 176 L 83 170 L 80 167 L 73 152 L 73 147 L 72 146 L 73 136 L 75 132 L 86 122 Z M 341 110 L 336 106 L 330 105 L 329 104 L 325 104 L 324 105 L 316 105 L 310 108 L 307 112 L 308 113 L 312 113 L 317 111 L 329 111 L 330 112 L 333 112 L 339 114 L 341 112 Z M 313 109 L 319 106 L 326 106 L 327 107 L 334 107 L 336 108 L 338 111 L 337 112 L 335 111 L 330 111 L 329 110 L 316 110 L 314 111 Z M 101 107 L 99 110 L 100 124 L 102 125 L 102 117 L 103 116 L 103 113 L 105 111 L 109 111 L 114 117 L 114 120 L 117 125 L 117 135 L 112 139 L 107 137 L 104 134 L 100 134 L 94 136 L 88 136 L 85 140 L 86 152 L 94 166 L 98 170 L 103 178 L 112 187 L 114 191 L 115 201 L 117 205 L 117 209 L 118 210 L 118 214 L 120 220 L 131 241 L 138 251 L 154 267 L 155 267 L 159 272 L 157 275 L 150 275 L 149 276 L 157 283 L 166 288 L 168 288 L 177 292 L 180 295 L 180 297 L 176 300 L 172 300 L 171 301 L 173 303 L 189 309 L 197 310 L 201 314 L 201 315 L 197 318 L 197 320 L 199 321 L 216 324 L 218 326 L 216 332 L 228 336 L 230 334 L 235 322 L 238 319 L 242 319 L 245 322 L 244 328 L 245 320 L 253 304 L 253 302 L 255 299 L 255 296 L 254 295 L 250 295 L 248 296 L 243 301 L 242 304 L 237 310 L 231 310 L 230 309 L 225 309 L 219 307 L 217 305 L 219 302 L 227 300 L 228 299 L 227 296 L 214 294 L 206 288 L 195 288 L 194 287 L 190 287 L 188 286 L 187 283 L 191 281 L 195 281 L 196 280 L 196 277 L 190 273 L 177 269 L 168 264 L 158 256 L 144 242 L 136 231 L 135 228 L 124 214 L 122 215 L 119 212 L 117 208 L 117 203 L 115 199 L 115 195 L 114 194 L 113 187 L 105 180 L 100 172 L 91 161 L 90 157 L 86 151 L 86 144 L 85 142 L 88 140 L 91 147 L 93 149 L 94 153 L 100 158 L 107 157 L 108 158 L 108 165 L 110 167 L 111 171 L 115 176 L 124 180 L 134 179 L 138 177 L 141 177 L 153 173 L 158 170 L 160 170 L 164 167 L 171 159 L 172 147 L 170 144 L 167 135 L 158 128 L 153 126 L 142 126 L 133 130 L 131 130 L 115 145 L 113 149 L 110 152 L 108 151 L 105 144 L 103 142 L 102 137 L 105 136 L 109 139 L 114 139 L 116 138 L 118 134 L 118 126 L 119 125 L 131 125 L 132 124 L 137 124 L 143 119 L 149 119 L 151 117 L 155 120 L 163 123 L 169 118 L 169 116 L 171 114 L 177 120 L 177 124 L 173 131 L 173 138 L 179 143 L 181 143 L 183 141 L 185 141 L 190 138 L 193 140 L 190 146 L 185 152 L 185 157 L 191 163 L 195 169 L 195 171 L 199 176 L 199 178 L 202 182 L 204 187 L 209 194 L 213 194 L 215 193 L 218 196 L 223 211 L 228 217 L 233 213 L 237 218 L 235 213 L 233 211 L 231 212 L 231 214 L 229 216 L 227 216 L 225 214 L 216 192 L 215 191 L 212 194 L 210 194 L 206 190 L 193 165 L 186 157 L 186 152 L 192 144 L 195 136 L 195 132 L 197 126 L 197 119 L 195 113 L 192 110 L 187 110 L 182 117 L 177 118 L 173 114 L 171 108 L 171 103 L 169 99 L 168 89 L 166 87 L 163 87 L 160 89 L 161 92 L 164 92 L 166 94 L 169 103 L 168 117 L 167 119 L 163 122 L 160 122 L 157 120 L 152 114 L 148 117 L 144 114 L 143 112 L 143 104 L 142 103 L 142 100 L 141 100 L 141 118 L 138 122 L 134 124 L 125 124 L 124 123 L 121 123 L 118 120 L 115 114 L 115 111 L 113 109 L 105 106 Z M 253 295 L 255 297 L 253 303 L 249 310 L 247 316 L 244 317 L 243 314 L 247 306 L 247 304 L 246 304 L 242 309 L 241 309 L 240 307 L 242 305 L 242 303 L 249 296 Z M 215 296 L 216 295 L 219 296 L 225 296 L 226 299 L 220 302 L 216 302 L 215 301 L 216 299 Z M 181 273 L 183 272 L 192 275 L 194 277 L 194 279 L 193 280 L 189 280 L 187 277 L 185 277 L 182 275 Z M 152 255 L 154 254 L 157 258 L 155 259 Z M 93 137 L 98 138 L 101 140 L 107 149 L 107 153 L 106 155 L 102 158 L 99 157 L 94 151 L 94 149 L 90 141 Z M 160 130 L 166 136 L 171 147 L 171 157 L 169 161 L 163 167 L 154 172 L 133 179 L 122 179 L 118 177 L 111 170 L 108 162 L 109 155 L 115 146 L 123 137 L 131 131 L 142 127 L 154 127 Z M 192 117 L 194 120 L 194 126 L 192 129 L 191 133 L 185 140 L 183 141 L 178 141 L 174 136 L 174 129 L 175 127 L 184 117 L 187 116 Z M 186 113 L 189 110 L 191 110 L 194 114 L 192 116 L 188 116 Z M 138 87 L 137 86 L 134 86 L 133 87 L 130 87 L 124 89 L 122 92 L 122 98 L 124 98 L 124 97 L 132 89 L 134 88 L 137 89 Z M 120 77 L 115 81 L 112 85 L 111 89 L 108 92 L 97 96 L 91 101 L 87 108 L 87 111 L 87 108 L 89 104 L 97 96 L 101 94 L 108 94 L 110 92 L 112 86 L 115 81 Z M 169 75 L 174 77 L 178 81 L 182 90 L 182 96 L 184 99 L 197 99 L 206 107 L 210 118 L 210 128 L 209 129 L 209 133 L 209 130 L 210 129 L 210 118 L 206 106 L 202 102 L 199 101 L 197 99 L 185 98 L 183 96 L 183 92 L 181 89 L 179 82 L 173 76 Z M 262 59 L 259 58 L 253 58 L 250 60 L 248 60 L 243 65 L 240 72 L 241 75 L 241 81 L 242 83 L 250 90 L 253 90 L 257 86 L 263 76 L 270 68 L 270 66 Z M 261 60 L 264 62 L 268 67 L 265 70 L 264 73 L 256 85 L 252 89 L 248 88 L 243 83 L 241 79 L 241 71 L 243 67 L 250 60 Z M 473 52 L 470 61 L 465 67 L 458 71 L 457 74 L 464 82 L 473 99 L 478 105 L 475 109 L 475 113 L 486 120 L 490 124 L 489 126 L 479 126 L 478 127 L 479 131 L 489 141 L 493 147 L 491 150 L 487 148 L 484 148 L 483 149 L 483 153 L 488 161 L 490 167 L 490 170 L 488 171 L 485 169 L 483 169 L 482 171 L 480 172 L 478 170 L 479 167 L 477 166 L 473 161 L 465 157 L 462 157 L 461 158 L 469 166 L 470 169 L 468 172 L 465 171 L 462 172 L 468 177 L 468 182 L 466 184 L 461 181 L 458 181 L 457 182 L 461 189 L 461 192 L 462 193 L 460 195 L 453 191 L 450 191 L 449 190 L 447 191 L 456 200 L 456 202 L 455 203 L 452 202 L 450 203 L 450 205 L 447 208 L 447 213 L 445 215 L 442 212 L 439 212 L 440 215 L 440 220 L 437 224 L 434 221 L 432 221 L 430 224 L 430 230 L 428 233 L 425 232 L 425 227 L 423 227 L 417 235 L 414 235 L 408 240 L 403 248 L 403 252 L 404 253 L 406 252 L 408 248 L 415 241 L 417 242 L 417 246 L 419 248 L 423 248 L 426 245 L 428 245 L 429 246 L 443 246 L 446 249 L 448 249 L 453 243 L 455 243 L 458 241 L 462 241 L 463 242 L 472 243 L 476 246 L 484 248 L 488 251 L 492 252 L 494 255 L 493 256 L 489 256 L 488 258 L 493 262 L 494 262 L 491 261 L 489 258 L 491 256 L 497 255 L 497 254 L 495 253 L 493 253 L 484 248 L 482 248 L 471 243 L 469 241 L 471 239 L 473 239 L 474 237 L 467 236 L 466 233 L 468 232 L 468 230 L 463 230 L 461 228 L 461 226 L 467 220 L 473 210 L 473 208 L 476 203 L 476 194 L 479 191 L 482 193 L 484 191 L 484 178 L 482 172 L 484 170 L 487 170 L 490 173 L 491 172 L 491 169 L 489 163 L 485 155 L 483 153 L 483 150 L 485 148 L 491 150 L 493 149 L 493 147 L 490 142 L 478 129 L 480 126 L 490 126 L 491 125 L 489 122 L 479 116 L 475 112 L 475 110 L 478 108 L 479 106 L 473 99 L 464 82 L 458 75 L 458 72 L 464 68 L 470 61 Z M 440 237 L 441 238 L 440 242 L 435 245 L 433 243 L 433 241 L 437 237 Z M 456 221 L 457 223 L 452 229 L 450 233 L 446 236 L 444 234 L 444 232 L 454 221 Z M 435 32 L 428 38 L 426 41 L 425 46 L 429 50 L 435 53 L 447 64 L 452 63 L 459 55 L 459 44 L 457 40 L 450 33 L 448 33 L 445 31 L 438 31 Z M 432 35 L 438 32 L 446 32 L 452 36 L 457 41 L 459 46 L 459 52 L 458 55 L 450 63 L 447 63 L 437 53 L 431 49 L 429 49 L 426 46 L 427 41 Z M 360 23 L 358 22 L 354 24 L 346 33 L 332 26 L 328 26 L 327 28 L 330 32 L 330 35 L 327 38 L 312 38 L 309 39 L 308 41 L 304 44 L 307 43 L 308 41 L 312 38 L 327 38 L 330 36 L 330 32 L 327 28 L 329 26 L 332 26 L 346 33 L 356 23 L 359 24 L 359 28 Z" fill="#D8D8D8" fill-rule="evenodd"/><path d="M 447 637 L 447 639 L 460 638 L 461 637 L 484 638 L 484 636 L 478 635 L 477 634 L 458 634 L 457 635 L 453 635 Z M 462 635 L 463 634 L 472 634 L 473 636 L 472 637 L 463 637 Z M 363 533 L 362 533 L 359 537 L 360 539 L 362 537 Z M 270 523 L 269 524 L 272 531 L 281 540 L 283 540 L 279 533 Z M 397 519 L 396 519 L 394 524 L 394 530 L 397 526 Z M 258 516 L 259 521 L 261 524 L 267 530 L 268 530 L 268 528 L 263 522 L 261 518 Z M 292 514 L 294 521 L 297 524 L 300 530 L 304 535 L 307 536 L 306 532 L 300 526 Z M 420 509 L 419 509 L 416 518 L 414 520 L 413 523 L 413 526 L 415 527 L 416 523 L 420 515 Z M 437 506 L 436 506 L 436 508 L 433 514 L 434 514 L 437 510 Z M 243 500 L 243 504 L 246 513 L 250 516 L 245 501 Z M 271 496 L 272 502 L 275 508 L 277 508 L 275 501 L 273 499 L 272 496 Z M 437 459 L 439 472 L 442 473 L 443 472 L 442 471 L 441 465 L 438 459 Z M 261 325 L 257 327 L 249 335 L 250 339 L 245 345 L 246 346 L 256 335 L 258 331 L 261 328 Z M 253 296 L 249 297 L 243 303 L 243 305 L 241 307 L 241 308 L 242 308 L 246 303 L 248 304 L 244 316 L 246 316 L 248 312 L 248 310 L 254 298 Z M 216 296 L 217 298 L 216 301 L 220 301 L 223 299 L 225 299 L 225 297 L 219 297 Z M 182 273 L 182 274 L 185 276 L 187 276 L 189 279 L 193 279 L 192 276 Z M 382 260 L 378 261 L 375 264 L 372 265 L 369 268 L 366 269 L 361 273 L 362 274 L 366 273 L 369 270 L 372 269 L 376 265 L 380 263 Z M 362 253 L 360 254 L 356 254 L 355 255 L 351 255 L 350 256 L 345 256 L 345 257 L 348 256 L 358 256 L 362 254 Z M 320 254 L 321 257 L 328 264 L 338 271 L 351 277 L 355 277 L 359 274 L 359 273 L 356 274 L 346 273 L 343 270 L 341 270 L 331 264 L 329 261 L 323 256 L 323 255 L 326 254 L 329 256 L 332 256 L 333 257 L 335 256 L 337 257 L 341 257 L 341 256 L 339 255 L 328 254 L 327 253 L 321 253 Z M 285 240 L 288 244 L 292 246 L 290 243 Z M 440 238 L 437 238 L 434 241 L 434 243 L 436 244 L 439 242 Z M 456 222 L 454 222 L 447 229 L 445 232 L 446 235 L 449 233 Z M 273 142 L 273 145 L 272 146 L 272 158 L 274 163 L 280 170 L 289 175 L 291 175 L 293 177 L 293 181 L 294 182 L 295 188 L 303 203 L 309 211 L 323 225 L 326 227 L 328 227 L 337 231 L 348 230 L 355 227 L 363 221 L 369 215 L 374 206 L 377 197 L 377 194 L 379 189 L 379 183 L 380 182 L 380 159 L 379 158 L 378 151 L 374 146 L 371 146 L 367 153 L 362 158 L 355 162 L 353 162 L 347 165 L 344 165 L 339 167 L 331 167 L 330 166 L 318 165 L 313 163 L 308 163 L 298 169 L 292 169 L 286 166 L 280 159 L 279 156 L 280 140 L 277 138 Z M 274 142 L 277 139 L 279 141 L 279 157 L 280 160 L 283 164 L 288 168 L 294 169 L 295 170 L 300 169 L 309 163 L 311 164 L 315 164 L 316 165 L 320 165 L 321 166 L 325 166 L 326 167 L 342 167 L 351 164 L 361 159 L 366 155 L 372 147 L 374 147 L 376 149 L 379 157 L 380 175 L 379 176 L 379 184 L 378 185 L 378 189 L 377 190 L 375 201 L 369 213 L 365 217 L 363 216 L 370 200 L 370 197 L 371 196 L 370 191 L 364 185 L 360 183 L 347 183 L 341 185 L 333 190 L 326 197 L 325 200 L 323 202 L 321 210 L 325 218 L 331 224 L 331 226 L 328 227 L 324 225 L 309 210 L 304 202 L 301 199 L 295 187 L 293 176 L 282 171 L 274 162 L 272 157 L 272 148 Z M 93 138 L 91 141 L 95 149 L 95 151 L 99 156 L 101 157 L 104 156 L 106 153 L 106 149 L 102 142 L 98 139 Z M 270 136 L 267 134 L 260 134 L 249 139 L 246 142 L 244 146 L 244 153 L 249 157 L 256 157 L 258 156 L 260 153 L 264 150 L 265 146 L 263 146 L 264 147 L 262 149 L 260 146 L 259 147 L 252 146 L 251 144 L 253 142 L 256 141 L 256 139 L 258 137 L 267 137 L 268 138 L 268 145 L 271 140 Z M 262 149 L 261 151 L 258 153 L 255 153 L 254 152 L 254 149 L 255 148 L 257 149 L 260 147 Z M 160 131 L 154 128 L 142 128 L 131 132 L 123 138 L 116 146 L 110 155 L 109 162 L 112 170 L 118 176 L 122 178 L 133 178 L 137 176 L 143 175 L 146 173 L 149 173 L 163 166 L 168 161 L 170 157 L 170 147 L 165 136 Z M 284 130 L 283 132 L 283 139 L 286 145 L 292 151 L 301 155 L 312 155 L 321 151 L 323 149 L 326 148 L 330 144 L 334 137 L 334 131 L 330 126 L 317 121 L 304 121 L 303 122 L 295 123 L 289 126 Z M 283 133 L 288 127 L 296 123 L 304 122 L 305 121 L 316 121 L 329 126 L 333 130 L 334 132 L 334 136 L 331 142 L 323 149 L 313 154 L 303 155 L 302 154 L 296 153 L 285 143 L 283 138 Z M 386 129 L 387 134 L 392 139 L 401 143 L 411 144 L 412 145 L 417 145 L 418 144 L 427 143 L 432 139 L 434 135 L 433 129 L 429 124 L 426 122 L 420 120 L 416 120 L 415 119 L 401 119 L 400 120 L 394 121 L 390 123 L 387 126 Z M 192 118 L 190 117 L 184 118 L 176 127 L 175 129 L 175 136 L 178 140 L 183 140 L 185 139 L 190 133 L 191 129 L 193 126 L 193 120 Z M 314 109 L 314 110 L 316 109 L 329 109 L 330 110 L 335 110 L 337 111 L 337 110 L 334 108 L 327 108 L 326 107 L 319 107 Z M 291 99 L 289 99 L 284 102 L 280 112 L 280 119 L 281 122 L 285 125 L 290 123 L 294 119 L 296 115 L 296 104 L 294 101 Z M 292 100 L 295 103 L 296 106 L 296 113 L 294 118 L 288 124 L 284 124 L 281 121 L 280 118 L 281 109 L 282 106 L 287 100 Z M 373 92 L 371 93 L 366 99 L 366 102 L 365 103 L 365 111 L 367 117 L 370 120 L 372 121 L 379 121 L 382 118 L 384 114 L 384 101 L 382 97 L 377 92 Z M 374 92 L 378 93 L 380 95 L 384 103 L 384 112 L 382 117 L 378 121 L 373 121 L 371 120 L 368 117 L 365 110 L 366 100 L 367 98 Z M 301 63 L 299 61 L 292 61 L 283 68 L 281 71 L 281 75 L 283 77 L 285 77 L 292 71 L 300 68 L 301 67 Z M 301 64 L 301 66 L 299 68 L 291 71 L 287 75 L 283 76 L 281 74 L 282 70 L 288 64 L 294 61 L 298 61 Z M 261 61 L 250 61 L 244 67 L 242 71 L 242 79 L 244 83 L 248 87 L 252 88 L 255 85 L 260 78 L 264 70 L 267 67 L 267 66 Z M 254 69 L 255 66 L 258 67 L 256 70 Z M 365 53 L 365 56 L 368 58 L 377 60 L 383 64 L 387 64 L 388 63 L 388 58 L 387 56 L 380 51 L 377 50 L 368 50 Z M 365 54 L 369 50 L 376 50 L 384 54 L 388 58 L 388 62 L 386 64 L 384 64 L 378 60 L 367 57 Z M 432 36 L 428 41 L 427 46 L 429 48 L 431 48 L 437 52 L 447 62 L 450 62 L 457 55 L 458 52 L 458 46 L 456 41 L 446 33 L 438 33 Z M 451 14 L 448 14 L 443 12 L 435 12 L 423 16 L 412 26 L 410 29 L 409 35 L 407 37 L 397 33 L 393 33 L 387 31 L 382 31 L 381 30 L 367 30 L 366 31 L 361 31 L 360 30 L 360 27 L 362 22 L 359 20 L 353 23 L 346 31 L 344 31 L 340 28 L 338 28 L 331 24 L 327 24 L 326 25 L 326 29 L 329 33 L 327 36 L 309 37 L 304 43 L 302 43 L 293 47 L 282 55 L 274 46 L 265 41 L 261 41 L 260 40 L 250 41 L 247 43 L 245 43 L 238 47 L 230 55 L 226 63 L 226 68 L 225 69 L 225 80 L 229 89 L 233 94 L 240 99 L 244 100 L 246 102 L 246 105 L 238 122 L 238 130 L 239 133 L 231 141 L 227 147 L 227 150 L 228 151 L 234 150 L 236 152 L 230 164 L 230 171 L 232 172 L 235 170 L 237 172 L 235 178 L 235 182 L 234 183 L 234 191 L 236 193 L 239 193 L 240 192 L 242 194 L 242 203 L 245 211 L 249 215 L 252 213 L 259 221 L 262 222 L 272 234 L 276 241 L 276 246 L 274 248 L 270 245 L 264 235 L 261 232 L 259 233 L 259 235 L 257 237 L 255 235 L 251 226 L 248 223 L 246 223 L 243 225 L 240 222 L 239 218 L 235 210 L 233 208 L 231 209 L 229 213 L 227 213 L 223 207 L 222 202 L 220 199 L 217 190 L 214 188 L 212 191 L 210 191 L 206 187 L 195 165 L 188 156 L 188 152 L 193 146 L 198 133 L 198 128 L 199 127 L 199 119 L 196 112 L 191 108 L 186 109 L 181 115 L 178 116 L 174 111 L 171 92 L 169 88 L 166 85 L 161 86 L 153 93 L 150 99 L 149 105 L 147 108 L 145 107 L 145 97 L 144 96 L 144 93 L 139 84 L 133 84 L 130 86 L 126 86 L 124 87 L 121 90 L 120 93 L 121 114 L 119 115 L 117 111 L 113 107 L 109 105 L 102 105 L 98 108 L 98 111 L 97 112 L 98 126 L 100 131 L 98 133 L 92 133 L 87 135 L 84 139 L 84 150 L 85 151 L 85 154 L 92 166 L 96 170 L 101 178 L 111 189 L 113 195 L 113 199 L 114 200 L 115 207 L 116 208 L 117 216 L 126 236 L 135 250 L 140 256 L 156 271 L 154 274 L 148 274 L 147 275 L 148 278 L 157 285 L 164 289 L 166 289 L 171 292 L 175 293 L 178 296 L 176 298 L 173 298 L 169 300 L 172 304 L 181 307 L 184 309 L 196 312 L 198 315 L 194 318 L 195 321 L 204 324 L 214 325 L 216 327 L 212 331 L 216 334 L 222 335 L 226 337 L 230 337 L 236 324 L 239 321 L 241 321 L 243 323 L 243 328 L 239 337 L 239 340 L 236 348 L 236 352 L 226 366 L 226 369 L 227 370 L 232 369 L 234 371 L 218 391 L 218 394 L 219 395 L 225 393 L 227 396 L 219 408 L 213 421 L 213 425 L 214 426 L 218 424 L 221 425 L 217 437 L 216 444 L 215 445 L 215 455 L 216 456 L 219 453 L 221 455 L 220 458 L 220 465 L 219 466 L 219 476 L 220 478 L 222 478 L 224 476 L 226 478 L 227 486 L 233 499 L 233 502 L 231 504 L 229 502 L 227 502 L 225 510 L 219 521 L 220 523 L 224 522 L 225 523 L 225 526 L 218 540 L 218 542 L 220 543 L 224 541 L 226 543 L 220 560 L 219 570 L 221 571 L 224 569 L 226 571 L 223 584 L 227 587 L 227 596 L 229 600 L 230 611 L 232 615 L 233 621 L 236 626 L 232 629 L 224 629 L 223 630 L 219 630 L 213 632 L 208 635 L 203 640 L 200 646 L 198 659 L 200 665 L 205 669 L 208 668 L 207 666 L 208 655 L 214 648 L 216 648 L 218 650 L 215 659 L 215 670 L 218 672 L 221 672 L 222 673 L 229 673 L 230 674 L 232 673 L 232 670 L 231 669 L 232 660 L 234 656 L 238 652 L 240 652 L 242 654 L 240 660 L 240 666 L 239 667 L 239 671 L 241 675 L 274 675 L 275 674 L 281 674 L 282 673 L 292 673 L 293 672 L 305 671 L 306 670 L 310 670 L 314 668 L 317 668 L 323 664 L 326 658 L 326 653 L 327 652 L 327 643 L 326 642 L 325 631 L 326 630 L 331 631 L 332 628 L 332 608 L 331 607 L 331 599 L 333 597 L 335 599 L 337 598 L 337 585 L 339 582 L 340 573 L 339 572 L 328 570 L 325 568 L 316 565 L 310 560 L 312 557 L 320 558 L 327 561 L 331 561 L 336 563 L 348 564 L 349 565 L 356 565 L 357 566 L 364 566 L 365 565 L 371 565 L 372 564 L 378 564 L 379 563 L 383 563 L 385 565 L 385 568 L 383 570 L 379 571 L 378 572 L 378 575 L 380 577 L 380 579 L 382 582 L 382 586 L 383 587 L 383 590 L 385 596 L 386 597 L 387 596 L 390 597 L 390 600 L 389 601 L 389 612 L 393 615 L 393 630 L 394 633 L 396 633 L 398 631 L 400 633 L 400 648 L 398 654 L 398 668 L 400 672 L 404 676 L 410 679 L 416 681 L 419 681 L 420 682 L 438 684 L 439 683 L 438 666 L 441 662 L 444 662 L 446 664 L 446 667 L 447 668 L 447 683 L 448 684 L 469 684 L 471 681 L 469 663 L 473 660 L 477 663 L 479 668 L 479 682 L 480 683 L 493 682 L 497 679 L 496 660 L 498 658 L 504 663 L 505 670 L 506 671 L 506 675 L 505 676 L 506 679 L 512 677 L 516 673 L 518 669 L 518 658 L 515 650 L 507 642 L 501 640 L 498 637 L 498 635 L 501 632 L 501 628 L 503 623 L 503 618 L 504 617 L 504 605 L 505 604 L 504 584 L 506 581 L 506 578 L 502 571 L 504 569 L 508 572 L 510 571 L 505 556 L 499 545 L 501 543 L 504 544 L 506 546 L 509 545 L 507 538 L 501 526 L 501 523 L 502 522 L 506 522 L 506 518 L 505 517 L 505 513 L 504 512 L 504 508 L 503 507 L 501 497 L 499 495 L 496 495 L 490 491 L 484 484 L 481 477 L 481 474 L 480 473 L 480 458 L 481 457 L 481 453 L 483 447 L 485 444 L 485 434 L 483 429 L 483 424 L 482 423 L 482 419 L 479 410 L 479 406 L 478 405 L 477 398 L 472 383 L 464 367 L 464 365 L 457 353 L 455 346 L 458 344 L 461 347 L 472 364 L 483 389 L 484 395 L 487 402 L 487 405 L 488 406 L 488 409 L 491 418 L 492 427 L 493 428 L 493 433 L 495 438 L 495 442 L 491 451 L 490 459 L 489 460 L 489 470 L 490 471 L 490 474 L 493 480 L 496 483 L 502 485 L 507 482 L 511 474 L 511 472 L 514 469 L 517 471 L 517 478 L 515 484 L 510 492 L 511 497 L 515 501 L 519 503 L 527 503 L 529 502 L 534 497 L 539 486 L 541 484 L 544 487 L 544 489 L 543 490 L 542 497 L 539 501 L 539 504 L 542 506 L 546 506 L 552 504 L 558 498 L 562 486 L 564 483 L 567 484 L 567 492 L 565 497 L 567 498 L 571 495 L 576 489 L 582 476 L 584 463 L 585 462 L 585 445 L 584 444 L 584 439 L 583 437 L 587 434 L 587 431 L 582 417 L 581 410 L 578 405 L 580 402 L 581 403 L 583 402 L 582 398 L 577 389 L 569 378 L 571 376 L 575 377 L 576 375 L 565 359 L 557 350 L 559 348 L 562 349 L 567 349 L 568 348 L 539 321 L 541 319 L 548 320 L 549 317 L 537 307 L 527 301 L 524 298 L 526 295 L 530 295 L 531 293 L 529 291 L 517 286 L 512 282 L 513 280 L 518 280 L 520 277 L 501 264 L 494 261 L 492 258 L 493 257 L 499 257 L 500 255 L 496 252 L 494 252 L 485 247 L 476 244 L 474 241 L 477 239 L 477 237 L 472 236 L 470 234 L 472 231 L 470 229 L 466 229 L 464 227 L 464 225 L 469 220 L 476 207 L 477 201 L 478 200 L 478 195 L 480 193 L 482 195 L 485 194 L 485 176 L 484 174 L 486 172 L 490 175 L 493 173 L 492 166 L 485 152 L 487 150 L 494 151 L 495 148 L 491 141 L 480 129 L 482 127 L 491 127 L 492 124 L 490 121 L 483 116 L 480 115 L 477 112 L 481 107 L 474 98 L 468 86 L 460 75 L 460 73 L 468 66 L 474 55 L 475 42 L 474 41 L 473 34 L 467 25 L 463 21 Z M 139 87 L 137 90 L 135 89 L 132 90 L 124 99 L 121 98 L 121 92 L 124 88 L 130 86 L 133 86 L 134 85 L 137 85 Z M 450 14 L 462 21 L 471 31 L 474 38 L 475 49 L 474 50 L 473 57 L 469 64 L 464 69 L 459 72 L 459 75 L 465 82 L 474 99 L 480 106 L 480 107 L 476 110 L 476 112 L 479 115 L 489 121 L 492 125 L 490 127 L 480 127 L 479 129 L 487 137 L 494 147 L 494 149 L 492 151 L 487 149 L 484 150 L 484 153 L 486 155 L 490 163 L 492 169 L 492 172 L 490 174 L 487 171 L 484 171 L 483 172 L 485 178 L 485 191 L 482 194 L 480 192 L 477 194 L 477 203 L 474 208 L 474 210 L 468 220 L 462 226 L 462 228 L 463 229 L 468 229 L 469 230 L 469 232 L 467 233 L 467 235 L 474 236 L 475 237 L 473 240 L 470 241 L 482 247 L 484 247 L 498 254 L 497 256 L 491 257 L 490 259 L 495 262 L 497 262 L 515 274 L 518 278 L 517 279 L 509 279 L 509 281 L 518 287 L 524 289 L 530 293 L 528 295 L 523 295 L 522 298 L 536 307 L 548 317 L 546 319 L 540 319 L 537 318 L 537 320 L 566 347 L 565 349 L 559 348 L 558 347 L 555 347 L 555 348 L 562 356 L 575 374 L 573 376 L 568 374 L 567 376 L 572 382 L 573 385 L 579 393 L 582 399 L 581 401 L 578 400 L 576 401 L 581 411 L 582 418 L 586 429 L 586 432 L 582 434 L 584 440 L 584 448 L 585 449 L 585 458 L 584 459 L 583 471 L 580 480 L 574 491 L 570 495 L 568 496 L 566 495 L 568 485 L 567 482 L 565 481 L 561 487 L 561 490 L 557 498 L 550 504 L 547 505 L 541 505 L 539 502 L 542 498 L 543 492 L 544 491 L 544 486 L 543 484 L 541 483 L 539 485 L 534 496 L 528 502 L 526 503 L 521 503 L 516 501 L 511 496 L 510 493 L 514 488 L 514 486 L 517 480 L 517 476 L 518 475 L 517 469 L 516 468 L 513 468 L 512 469 L 509 478 L 507 481 L 503 484 L 499 484 L 497 483 L 492 478 L 492 476 L 490 473 L 490 456 L 495 443 L 495 436 L 494 435 L 494 431 L 493 430 L 493 426 L 492 425 L 492 421 L 491 420 L 491 416 L 490 415 L 487 400 L 482 385 L 480 382 L 479 377 L 471 361 L 461 346 L 458 343 L 455 344 L 455 349 L 457 355 L 463 364 L 463 366 L 471 382 L 476 397 L 477 405 L 478 406 L 478 409 L 481 418 L 481 423 L 483 428 L 483 433 L 484 434 L 484 438 L 485 440 L 483 444 L 483 447 L 480 454 L 480 459 L 479 460 L 479 472 L 480 473 L 480 476 L 482 482 L 486 488 L 490 492 L 495 495 L 499 496 L 501 498 L 501 501 L 504 510 L 505 520 L 504 521 L 501 520 L 500 521 L 500 524 L 508 543 L 506 545 L 500 541 L 498 541 L 497 544 L 501 549 L 504 555 L 505 560 L 509 569 L 508 570 L 506 570 L 503 568 L 501 569 L 505 577 L 505 580 L 503 582 L 503 586 L 504 587 L 504 615 L 503 616 L 503 621 L 502 622 L 501 630 L 497 635 L 497 637 L 499 639 L 506 642 L 515 651 L 517 656 L 517 660 L 518 661 L 518 667 L 517 670 L 510 678 L 508 678 L 506 676 L 506 668 L 504 662 L 499 657 L 497 657 L 495 659 L 496 668 L 497 669 L 497 678 L 494 681 L 491 682 L 483 682 L 481 683 L 479 681 L 480 679 L 480 670 L 479 669 L 479 666 L 475 660 L 471 660 L 469 662 L 470 681 L 467 684 L 449 684 L 447 682 L 447 665 L 444 661 L 441 661 L 438 664 L 438 681 L 436 683 L 422 682 L 421 681 L 417 681 L 408 677 L 406 677 L 400 671 L 398 666 L 398 657 L 399 656 L 399 651 L 401 646 L 400 631 L 399 630 L 396 632 L 394 631 L 394 626 L 393 625 L 394 611 L 390 611 L 389 610 L 390 608 L 390 594 L 387 595 L 385 594 L 383 588 L 383 583 L 379 575 L 379 572 L 384 570 L 386 567 L 386 565 L 382 562 L 375 563 L 374 564 L 365 564 L 364 565 L 345 564 L 344 563 L 340 563 L 339 562 L 334 562 L 333 561 L 326 560 L 315 556 L 311 556 L 309 558 L 309 560 L 312 563 L 319 567 L 330 570 L 333 572 L 337 572 L 339 574 L 339 578 L 336 587 L 337 596 L 336 597 L 334 597 L 332 595 L 330 596 L 330 603 L 331 604 L 331 628 L 330 629 L 328 629 L 326 627 L 324 628 L 324 633 L 326 639 L 326 656 L 324 661 L 320 665 L 314 668 L 311 668 L 306 670 L 293 671 L 292 672 L 287 672 L 286 673 L 278 673 L 277 674 L 269 674 L 268 675 L 243 675 L 240 672 L 240 661 L 242 657 L 242 653 L 241 652 L 237 652 L 234 655 L 231 662 L 231 671 L 229 673 L 225 673 L 224 672 L 220 672 L 215 668 L 215 661 L 219 649 L 217 647 L 214 647 L 208 654 L 208 657 L 207 658 L 207 666 L 204 668 L 199 662 L 199 651 L 202 642 L 204 639 L 210 634 L 217 631 L 226 630 L 227 629 L 241 629 L 242 630 L 246 630 L 251 632 L 254 632 L 255 631 L 253 629 L 248 627 L 238 626 L 234 622 L 232 617 L 230 606 L 229 605 L 229 598 L 227 595 L 227 585 L 224 582 L 224 579 L 226 574 L 226 569 L 223 568 L 221 570 L 219 568 L 220 561 L 223 554 L 223 551 L 227 542 L 226 540 L 224 540 L 221 542 L 219 540 L 222 534 L 222 532 L 226 525 L 226 522 L 225 521 L 222 522 L 220 520 L 226 509 L 226 507 L 229 504 L 233 505 L 234 504 L 234 500 L 227 484 L 227 478 L 225 474 L 222 476 L 220 475 L 221 452 L 220 451 L 216 454 L 215 453 L 215 447 L 216 446 L 218 435 L 222 426 L 222 423 L 219 423 L 215 425 L 214 424 L 214 419 L 223 402 L 228 395 L 227 392 L 221 394 L 218 392 L 234 372 L 234 369 L 233 368 L 228 369 L 227 366 L 236 353 L 238 342 L 243 329 L 244 322 L 242 320 L 238 320 L 236 322 L 231 334 L 228 337 L 224 335 L 218 334 L 215 332 L 215 330 L 217 328 L 216 325 L 199 322 L 196 320 L 196 318 L 200 315 L 197 311 L 189 310 L 173 304 L 170 301 L 172 299 L 176 299 L 178 298 L 179 295 L 177 293 L 168 289 L 166 289 L 157 284 L 148 276 L 150 274 L 157 274 L 158 272 L 157 270 L 137 251 L 123 229 L 117 214 L 116 205 L 113 196 L 113 191 L 111 187 L 102 178 L 86 155 L 85 148 L 84 147 L 84 140 L 88 135 L 94 135 L 100 133 L 104 133 L 107 136 L 111 138 L 114 137 L 116 135 L 116 125 L 113 120 L 113 117 L 109 112 L 105 112 L 104 113 L 104 116 L 103 117 L 103 125 L 101 126 L 99 124 L 98 110 L 101 106 L 104 105 L 113 108 L 116 111 L 116 114 L 121 122 L 124 122 L 125 123 L 134 123 L 138 121 L 140 118 L 140 100 L 142 99 L 144 104 L 144 112 L 147 116 L 152 113 L 155 117 L 160 121 L 165 120 L 167 117 L 168 103 L 165 94 L 164 93 L 161 93 L 159 91 L 159 89 L 163 86 L 166 86 L 169 89 L 170 99 L 172 103 L 172 108 L 174 114 L 177 117 L 182 116 L 184 112 L 187 109 L 192 109 L 196 113 L 198 119 L 198 126 L 197 127 L 196 136 L 193 144 L 187 152 L 187 157 L 194 165 L 207 190 L 210 193 L 212 193 L 215 190 L 217 192 L 220 198 L 223 208 L 227 215 L 229 215 L 230 212 L 233 210 L 236 213 L 238 219 L 243 227 L 248 224 L 251 227 L 255 236 L 258 239 L 259 238 L 259 235 L 262 234 L 270 246 L 272 248 L 275 248 L 277 245 L 277 242 L 271 231 L 263 222 L 258 220 L 256 218 L 253 210 L 252 210 L 249 214 L 245 210 L 243 206 L 243 201 L 242 200 L 243 191 L 241 190 L 237 193 L 234 189 L 237 170 L 235 169 L 232 171 L 230 169 L 230 166 L 237 152 L 237 150 L 236 149 L 229 150 L 227 147 L 239 134 L 238 123 L 246 106 L 247 101 L 239 98 L 231 91 L 226 82 L 225 71 L 226 70 L 226 65 L 230 56 L 239 47 L 246 43 L 252 41 L 263 41 L 266 43 L 268 43 L 273 46 L 281 55 L 283 55 L 294 47 L 305 43 L 309 38 L 312 37 L 327 37 L 329 35 L 329 32 L 326 28 L 328 25 L 332 25 L 346 32 L 354 23 L 358 21 L 361 23 L 359 29 L 360 32 L 364 32 L 365 31 L 384 31 L 385 32 L 395 33 L 405 37 L 408 37 L 412 27 L 424 16 L 436 12 Z M 456 6 L 450 4 L 446 4 L 445 3 L 434 3 L 433 4 L 428 4 L 422 6 L 413 11 L 406 18 L 404 22 L 401 25 L 399 24 L 395 24 L 394 23 L 389 23 L 388 22 L 371 21 L 366 14 L 362 12 L 358 12 L 350 15 L 345 20 L 342 20 L 334 16 L 324 16 L 319 20 L 318 27 L 316 29 L 309 29 L 292 37 L 285 42 L 282 41 L 275 35 L 264 31 L 252 31 L 251 32 L 248 32 L 242 34 L 231 40 L 221 51 L 217 58 L 216 64 L 215 65 L 215 81 L 216 82 L 217 88 L 222 97 L 234 108 L 228 121 L 228 132 L 220 141 L 220 143 L 218 146 L 218 151 L 220 155 L 223 158 L 221 164 L 221 173 L 225 180 L 225 185 L 223 186 L 210 172 L 205 162 L 200 155 L 201 150 L 206 140 L 208 134 L 208 129 L 209 128 L 209 118 L 205 107 L 197 100 L 184 100 L 181 96 L 181 90 L 177 81 L 174 78 L 168 75 L 162 75 L 153 79 L 146 79 L 142 77 L 132 76 L 131 75 L 121 77 L 116 81 L 113 86 L 111 92 L 108 95 L 101 95 L 97 97 L 90 104 L 87 112 L 87 122 L 76 132 L 74 136 L 73 146 L 74 147 L 74 152 L 76 155 L 76 157 L 81 167 L 84 170 L 87 176 L 102 194 L 104 198 L 104 208 L 105 209 L 105 213 L 110 228 L 122 250 L 129 259 L 138 268 L 138 278 L 140 282 L 149 291 L 157 295 L 160 298 L 160 303 L 162 307 L 166 311 L 174 315 L 182 317 L 184 319 L 184 323 L 189 328 L 196 331 L 199 331 L 206 339 L 217 344 L 222 345 L 226 348 L 226 350 L 218 364 L 218 367 L 217 368 L 218 377 L 212 385 L 209 391 L 209 398 L 212 401 L 212 404 L 208 410 L 208 412 L 205 418 L 205 422 L 204 423 L 204 429 L 208 435 L 208 440 L 207 441 L 206 450 L 205 451 L 206 460 L 210 467 L 210 477 L 212 483 L 219 492 L 219 496 L 215 508 L 212 513 L 212 516 L 210 519 L 210 525 L 213 530 L 210 535 L 209 544 L 213 551 L 210 558 L 209 570 L 210 573 L 215 579 L 215 591 L 216 592 L 216 596 L 218 602 L 218 607 L 219 608 L 219 612 L 221 618 L 218 621 L 211 622 L 198 630 L 193 636 L 188 647 L 188 651 L 187 652 L 187 658 L 188 659 L 188 663 L 190 668 L 196 674 L 203 678 L 206 678 L 215 681 L 219 681 L 220 682 L 233 683 L 234 684 L 275 684 L 276 683 L 285 683 L 286 682 L 293 682 L 294 681 L 305 680 L 310 678 L 318 677 L 327 673 L 334 666 L 337 659 L 337 651 L 338 650 L 337 647 L 337 639 L 342 631 L 342 626 L 343 625 L 343 606 L 347 602 L 347 599 L 348 598 L 348 589 L 350 583 L 350 577 L 352 575 L 355 576 L 368 576 L 370 578 L 370 581 L 371 582 L 371 585 L 372 586 L 372 589 L 374 593 L 375 599 L 378 605 L 381 608 L 381 615 L 382 616 L 383 629 L 387 638 L 390 641 L 390 647 L 389 648 L 388 660 L 387 661 L 388 669 L 393 679 L 402 686 L 404 686 L 410 689 L 417 690 L 418 691 L 422 691 L 428 693 L 438 693 L 439 694 L 476 694 L 477 693 L 488 693 L 489 692 L 499 691 L 500 690 L 503 690 L 504 689 L 507 689 L 513 687 L 520 683 L 527 675 L 529 669 L 529 655 L 527 649 L 525 647 L 524 644 L 512 633 L 512 629 L 514 623 L 514 616 L 515 615 L 515 604 L 516 603 L 516 589 L 515 588 L 515 583 L 520 578 L 520 569 L 519 568 L 518 562 L 515 557 L 515 555 L 519 549 L 519 544 L 516 535 L 514 532 L 514 530 L 516 528 L 516 517 L 515 515 L 517 513 L 523 515 L 533 514 L 536 516 L 539 516 L 540 517 L 546 517 L 547 516 L 554 515 L 573 506 L 583 497 L 591 484 L 594 475 L 594 472 L 595 471 L 595 467 L 596 466 L 596 447 L 595 446 L 595 443 L 597 440 L 597 428 L 596 427 L 595 420 L 591 412 L 594 404 L 593 399 L 589 390 L 585 385 L 585 382 L 587 379 L 587 377 L 581 365 L 575 358 L 575 356 L 578 352 L 577 346 L 573 340 L 558 326 L 558 323 L 560 320 L 558 314 L 547 303 L 539 297 L 541 292 L 540 289 L 534 283 L 528 279 L 528 275 L 527 273 L 520 266 L 516 264 L 513 261 L 514 258 L 513 254 L 504 246 L 491 240 L 489 238 L 489 233 L 480 223 L 480 221 L 486 211 L 487 206 L 492 201 L 495 194 L 495 186 L 499 182 L 502 176 L 502 166 L 500 162 L 500 159 L 504 154 L 504 146 L 502 143 L 502 141 L 498 136 L 498 133 L 501 129 L 501 122 L 499 118 L 489 110 L 489 104 L 481 89 L 473 77 L 474 73 L 479 68 L 480 65 L 482 63 L 485 54 L 485 49 L 486 47 L 485 46 L 485 39 L 484 38 L 483 32 L 477 21 L 471 15 L 464 10 Z M 457 7 L 469 14 L 477 22 L 483 33 L 484 40 L 485 41 L 485 53 L 481 64 L 472 75 L 472 77 L 478 85 L 484 97 L 486 99 L 489 105 L 489 111 L 494 114 L 499 119 L 501 123 L 501 128 L 497 133 L 497 135 L 502 142 L 504 147 L 504 153 L 499 159 L 502 168 L 502 175 L 499 181 L 495 185 L 494 196 L 492 200 L 487 205 L 485 212 L 480 220 L 480 224 L 488 233 L 488 237 L 490 240 L 503 246 L 513 255 L 513 259 L 512 261 L 515 264 L 523 269 L 527 274 L 527 279 L 532 283 L 535 284 L 539 288 L 540 290 L 539 298 L 551 307 L 558 315 L 559 317 L 559 321 L 557 324 L 558 327 L 575 343 L 578 350 L 577 354 L 575 356 L 575 359 L 579 363 L 586 375 L 586 380 L 584 384 L 589 391 L 593 401 L 593 407 L 591 409 L 591 413 L 594 419 L 596 429 L 597 430 L 597 438 L 595 442 L 595 448 L 596 449 L 596 463 L 595 464 L 594 473 L 593 474 L 593 477 L 591 483 L 584 495 L 575 504 L 569 508 L 549 516 L 538 516 L 535 515 L 533 513 L 527 514 L 526 515 L 517 512 L 514 513 L 516 519 L 516 527 L 514 529 L 513 532 L 518 542 L 518 550 L 515 553 L 514 556 L 517 561 L 519 567 L 520 577 L 519 579 L 515 582 L 515 609 L 514 610 L 514 619 L 513 620 L 513 625 L 512 626 L 511 633 L 521 641 L 528 653 L 528 657 L 529 658 L 529 667 L 528 668 L 528 671 L 525 677 L 519 683 L 514 686 L 505 689 L 497 690 L 496 691 L 482 692 L 481 693 L 462 693 L 461 694 L 434 693 L 433 692 L 426 692 L 425 691 L 420 691 L 419 690 L 412 689 L 400 684 L 392 677 L 388 668 L 388 655 L 389 654 L 389 649 L 390 648 L 391 642 L 387 637 L 384 630 L 383 622 L 382 621 L 382 610 L 381 607 L 378 604 L 376 600 L 370 577 L 368 575 L 351 575 L 350 576 L 350 581 L 349 582 L 349 587 L 348 588 L 348 598 L 346 603 L 342 607 L 342 629 L 339 636 L 337 638 L 337 657 L 334 665 L 329 671 L 320 676 L 313 677 L 309 679 L 304 679 L 303 680 L 298 680 L 297 681 L 291 681 L 290 682 L 282 682 L 281 683 L 267 683 L 266 684 L 229 683 L 228 682 L 222 682 L 221 681 L 216 681 L 215 680 L 204 678 L 198 675 L 191 668 L 188 662 L 188 649 L 193 637 L 198 631 L 210 623 L 220 621 L 221 620 L 221 615 L 219 610 L 218 600 L 217 599 L 217 595 L 215 589 L 215 577 L 211 574 L 209 570 L 209 563 L 213 552 L 213 549 L 209 544 L 210 535 L 213 530 L 213 528 L 210 525 L 210 521 L 213 512 L 215 509 L 218 498 L 220 495 L 220 492 L 212 482 L 210 476 L 210 466 L 206 460 L 206 445 L 207 444 L 207 441 L 209 435 L 205 431 L 204 423 L 205 422 L 205 418 L 207 415 L 207 413 L 213 402 L 209 397 L 209 392 L 211 387 L 219 376 L 218 373 L 218 366 L 223 355 L 226 351 L 227 347 L 208 340 L 200 331 L 197 331 L 188 327 L 185 324 L 184 322 L 184 318 L 183 317 L 175 315 L 167 311 L 161 305 L 160 297 L 158 295 L 150 291 L 142 284 L 138 277 L 138 267 L 124 252 L 121 246 L 117 241 L 111 229 L 105 211 L 104 196 L 103 194 L 88 176 L 87 173 L 84 170 L 78 160 L 74 148 L 74 138 L 77 131 L 87 123 L 88 110 L 91 104 L 98 97 L 101 96 L 107 96 L 110 97 L 114 85 L 120 78 L 125 76 L 134 76 L 135 77 L 140 77 L 144 79 L 151 80 L 160 77 L 163 75 L 170 76 L 175 80 L 179 86 L 180 94 L 181 95 L 181 100 L 182 101 L 185 101 L 186 100 L 195 100 L 198 101 L 204 107 L 208 116 L 208 131 L 207 132 L 207 135 L 205 141 L 199 152 L 199 154 L 212 176 L 219 182 L 224 189 L 226 189 L 225 179 L 221 171 L 221 166 L 224 158 L 219 153 L 219 144 L 229 131 L 228 129 L 228 122 L 232 113 L 235 109 L 235 107 L 230 104 L 222 96 L 217 87 L 216 81 L 215 80 L 215 65 L 217 59 L 223 49 L 232 40 L 243 34 L 259 31 L 260 32 L 266 32 L 277 37 L 283 42 L 286 42 L 293 37 L 305 31 L 311 30 L 312 29 L 318 29 L 319 28 L 318 25 L 319 21 L 325 16 L 332 16 L 338 18 L 342 21 L 345 21 L 353 14 L 356 13 L 364 13 L 368 17 L 369 20 L 371 22 L 384 22 L 385 23 L 392 23 L 393 24 L 402 25 L 406 19 L 414 11 L 426 5 L 441 3 L 442 4 L 448 4 Z" fill="#B1B1B1" fill-rule="evenodd"/><path d="M 463 635 L 463 636 L 472 636 L 472 635 Z M 275 142 L 274 144 L 274 147 L 273 148 L 273 157 L 274 158 L 275 162 L 282 170 L 288 173 L 290 173 L 294 176 L 296 187 L 302 199 L 305 202 L 310 210 L 324 224 L 328 226 L 330 226 L 330 224 L 324 218 L 321 213 L 320 208 L 321 207 L 321 204 L 322 202 L 324 200 L 325 197 L 333 189 L 334 189 L 339 185 L 346 183 L 347 182 L 360 182 L 364 184 L 371 191 L 371 193 L 372 194 L 371 200 L 370 201 L 369 206 L 364 216 L 365 216 L 368 213 L 374 201 L 374 198 L 375 197 L 375 194 L 376 193 L 376 190 L 377 189 L 377 185 L 378 184 L 378 176 L 379 175 L 378 157 L 377 156 L 377 153 L 374 148 L 372 148 L 367 154 L 367 155 L 361 160 L 351 165 L 349 165 L 342 168 L 326 168 L 325 167 L 321 167 L 320 166 L 316 166 L 315 165 L 311 165 L 309 164 L 305 166 L 302 169 L 295 171 L 294 170 L 288 169 L 285 166 L 284 166 L 279 160 L 279 158 L 278 157 L 278 141 L 277 140 Z M 329 127 L 323 124 L 320 124 L 316 122 L 305 122 L 304 123 L 300 123 L 299 124 L 296 124 L 288 128 L 284 133 L 284 138 L 285 139 L 286 143 L 296 152 L 302 153 L 303 154 L 309 154 L 310 153 L 313 153 L 323 148 L 330 142 L 333 136 L 333 132 Z M 292 101 L 287 101 L 283 106 L 282 112 L 281 113 L 281 118 L 282 119 L 282 121 L 284 123 L 288 123 L 294 116 L 294 114 L 295 113 L 295 106 L 294 105 L 294 103 Z M 374 93 L 372 94 L 367 100 L 367 103 L 366 104 L 366 110 L 369 117 L 371 119 L 373 120 L 378 120 L 381 117 L 382 113 L 383 112 L 383 103 L 378 94 Z M 300 64 L 298 62 L 294 62 L 288 65 L 283 70 L 282 74 L 283 75 L 287 74 L 291 70 L 299 67 L 300 66 Z M 366 54 L 367 56 L 373 57 L 376 59 L 378 59 L 384 63 L 386 63 L 387 62 L 387 58 L 384 55 L 379 52 L 377 52 L 376 51 L 369 51 Z M 457 8 L 455 8 L 448 5 L 442 5 L 441 4 L 426 6 L 414 12 L 407 19 L 405 23 L 402 26 L 398 26 L 397 25 L 393 25 L 392 24 L 385 24 L 384 23 L 371 23 L 364 14 L 356 14 L 355 15 L 353 15 L 351 16 L 345 22 L 342 22 L 340 20 L 333 18 L 332 17 L 325 17 L 320 21 L 320 23 L 319 24 L 320 28 L 318 30 L 312 30 L 311 31 L 305 32 L 293 38 L 286 43 L 283 43 L 277 38 L 269 34 L 267 34 L 266 33 L 260 33 L 259 32 L 251 33 L 250 34 L 246 34 L 232 41 L 224 49 L 224 50 L 220 55 L 218 59 L 217 64 L 216 65 L 216 80 L 217 81 L 218 87 L 223 96 L 230 103 L 231 103 L 236 107 L 236 109 L 233 113 L 229 122 L 229 129 L 230 131 L 220 144 L 220 153 L 225 158 L 223 162 L 223 165 L 222 166 L 222 171 L 226 179 L 226 185 L 227 186 L 227 189 L 226 190 L 224 190 L 221 187 L 218 182 L 211 176 L 208 170 L 206 168 L 204 163 L 202 161 L 198 154 L 198 152 L 204 141 L 204 139 L 206 135 L 206 132 L 207 131 L 207 116 L 206 115 L 206 113 L 203 107 L 198 102 L 196 102 L 195 101 L 186 101 L 185 102 L 182 102 L 180 100 L 180 95 L 179 94 L 179 89 L 178 88 L 178 86 L 174 81 L 174 80 L 170 77 L 168 77 L 167 76 L 163 76 L 160 78 L 158 78 L 151 81 L 144 80 L 140 78 L 135 78 L 134 77 L 125 77 L 124 78 L 120 79 L 115 85 L 114 90 L 112 93 L 112 96 L 110 98 L 108 98 L 107 97 L 101 97 L 100 98 L 98 98 L 92 104 L 89 110 L 89 114 L 88 115 L 88 123 L 85 126 L 81 128 L 78 131 L 76 135 L 76 137 L 75 138 L 75 148 L 76 149 L 76 153 L 79 158 L 79 160 L 85 170 L 88 173 L 89 176 L 104 194 L 105 196 L 105 205 L 106 206 L 106 211 L 107 212 L 108 218 L 109 219 L 110 224 L 112 227 L 112 229 L 118 241 L 122 246 L 125 252 L 139 267 L 139 277 L 143 284 L 150 290 L 158 294 L 161 297 L 161 302 L 162 303 L 162 305 L 167 310 L 175 314 L 183 316 L 185 318 L 185 322 L 188 326 L 194 329 L 200 330 L 208 339 L 212 340 L 215 342 L 226 345 L 228 347 L 227 351 L 224 355 L 219 366 L 219 373 L 220 374 L 220 376 L 212 387 L 211 391 L 210 392 L 210 397 L 214 401 L 214 402 L 208 413 L 208 415 L 206 418 L 206 422 L 205 423 L 205 428 L 206 429 L 206 431 L 210 435 L 210 437 L 208 441 L 208 444 L 207 445 L 207 460 L 211 466 L 211 476 L 212 477 L 213 482 L 217 487 L 217 488 L 221 492 L 221 495 L 219 498 L 216 509 L 214 512 L 214 514 L 212 517 L 212 520 L 211 521 L 211 525 L 214 528 L 214 530 L 211 535 L 211 538 L 210 539 L 210 544 L 214 549 L 214 552 L 213 553 L 213 555 L 211 559 L 211 562 L 210 563 L 210 570 L 212 574 L 216 577 L 216 589 L 217 590 L 217 594 L 218 595 L 218 599 L 219 600 L 220 610 L 221 611 L 221 614 L 222 615 L 222 620 L 220 622 L 217 622 L 216 623 L 210 624 L 202 629 L 199 632 L 198 632 L 194 637 L 189 649 L 189 662 L 192 668 L 198 674 L 204 677 L 207 677 L 208 678 L 211 678 L 212 679 L 215 679 L 216 680 L 228 681 L 229 682 L 241 682 L 242 683 L 266 683 L 267 682 L 281 682 L 282 681 L 290 681 L 291 680 L 297 680 L 298 679 L 309 678 L 313 676 L 320 675 L 329 670 L 333 665 L 335 658 L 336 657 L 336 638 L 338 636 L 341 629 L 341 607 L 345 603 L 346 599 L 347 598 L 347 588 L 348 587 L 349 576 L 351 574 L 368 574 L 371 577 L 372 583 L 373 584 L 373 587 L 374 588 L 374 591 L 375 592 L 377 600 L 379 604 L 382 607 L 382 609 L 383 610 L 383 621 L 384 622 L 385 630 L 388 637 L 392 642 L 391 648 L 390 649 L 390 654 L 389 655 L 389 668 L 393 677 L 400 683 L 412 688 L 415 688 L 416 689 L 419 689 L 420 690 L 425 690 L 426 691 L 433 691 L 434 692 L 450 692 L 451 693 L 461 693 L 462 692 L 481 692 L 482 691 L 490 691 L 491 690 L 496 690 L 497 689 L 505 688 L 506 687 L 514 685 L 519 682 L 524 677 L 527 671 L 527 668 L 528 667 L 528 658 L 527 657 L 527 653 L 523 645 L 520 642 L 520 641 L 510 633 L 510 631 L 511 630 L 511 626 L 512 625 L 512 620 L 513 619 L 513 610 L 514 609 L 514 582 L 516 580 L 517 580 L 519 577 L 519 571 L 518 570 L 518 567 L 517 566 L 516 561 L 513 556 L 514 553 L 517 550 L 517 542 L 512 532 L 513 529 L 515 527 L 515 519 L 514 518 L 514 515 L 513 513 L 515 511 L 517 511 L 518 512 L 524 513 L 525 514 L 533 512 L 535 514 L 537 514 L 538 515 L 549 515 L 550 514 L 555 513 L 558 511 L 560 511 L 565 508 L 567 508 L 575 503 L 586 491 L 592 477 L 593 469 L 594 468 L 594 464 L 595 463 L 595 449 L 594 448 L 594 442 L 596 438 L 596 430 L 595 429 L 595 426 L 594 425 L 593 419 L 590 413 L 590 409 L 592 407 L 592 401 L 591 400 L 591 398 L 588 391 L 583 384 L 585 380 L 585 375 L 578 363 L 574 359 L 574 356 L 576 354 L 576 352 L 577 351 L 574 343 L 561 330 L 560 330 L 557 327 L 556 325 L 558 321 L 558 317 L 557 315 L 551 308 L 550 308 L 545 303 L 544 303 L 538 298 L 538 295 L 539 294 L 539 290 L 538 288 L 535 285 L 529 282 L 526 279 L 526 274 L 525 272 L 519 267 L 515 265 L 511 261 L 512 259 L 512 255 L 503 247 L 490 241 L 487 237 L 487 233 L 479 224 L 479 220 L 484 212 L 485 207 L 491 200 L 493 196 L 493 193 L 494 192 L 494 185 L 498 181 L 501 175 L 501 168 L 500 167 L 500 164 L 498 161 L 498 159 L 503 153 L 503 147 L 502 146 L 501 142 L 496 135 L 496 133 L 500 128 L 500 123 L 498 119 L 494 115 L 493 115 L 488 111 L 488 105 L 485 99 L 483 97 L 480 90 L 478 88 L 477 85 L 471 77 L 471 75 L 478 67 L 483 57 L 483 54 L 484 53 L 484 41 L 483 40 L 483 36 L 476 22 L 469 15 Z M 451 13 L 463 20 L 468 25 L 468 26 L 471 29 L 474 34 L 474 37 L 475 38 L 475 41 L 476 42 L 476 50 L 475 51 L 475 55 L 474 56 L 473 60 L 471 62 L 469 66 L 461 73 L 461 75 L 469 86 L 475 98 L 482 107 L 482 108 L 479 111 L 478 111 L 478 112 L 480 114 L 483 115 L 489 120 L 490 120 L 493 124 L 493 126 L 491 128 L 482 128 L 481 129 L 492 141 L 496 148 L 496 150 L 494 152 L 490 152 L 489 151 L 487 151 L 486 152 L 493 166 L 494 173 L 491 176 L 490 176 L 487 173 L 485 174 L 486 176 L 486 194 L 484 196 L 482 196 L 480 194 L 479 195 L 479 200 L 478 201 L 477 207 L 470 220 L 465 225 L 465 227 L 466 228 L 470 228 L 473 231 L 471 233 L 471 234 L 472 235 L 475 235 L 478 237 L 478 239 L 475 241 L 476 243 L 480 244 L 483 246 L 485 246 L 494 251 L 496 251 L 501 255 L 501 256 L 499 258 L 493 258 L 494 260 L 501 263 L 521 277 L 521 278 L 518 281 L 513 281 L 513 282 L 517 285 L 521 286 L 529 290 L 532 293 L 532 294 L 530 296 L 526 296 L 525 298 L 527 300 L 537 306 L 550 317 L 550 319 L 548 321 L 544 321 L 543 320 L 541 320 L 540 321 L 569 348 L 567 350 L 562 350 L 561 349 L 559 349 L 558 350 L 566 359 L 568 363 L 571 366 L 571 367 L 574 370 L 577 375 L 577 376 L 575 378 L 573 377 L 571 377 L 570 378 L 578 389 L 579 392 L 581 394 L 583 398 L 584 402 L 582 404 L 580 403 L 579 405 L 582 410 L 583 417 L 584 418 L 584 420 L 586 424 L 586 427 L 588 431 L 588 434 L 584 437 L 585 439 L 585 444 L 586 445 L 586 462 L 585 463 L 585 467 L 584 468 L 583 476 L 581 479 L 581 481 L 577 489 L 571 496 L 570 496 L 567 499 L 566 499 L 564 497 L 565 493 L 566 492 L 566 484 L 564 484 L 559 498 L 552 505 L 550 505 L 546 507 L 542 507 L 538 504 L 538 501 L 541 497 L 541 495 L 542 494 L 542 490 L 543 489 L 543 487 L 541 485 L 535 497 L 529 503 L 527 504 L 519 504 L 515 502 L 510 497 L 509 495 L 509 492 L 511 490 L 514 484 L 514 482 L 516 478 L 516 471 L 514 470 L 512 472 L 512 474 L 508 482 L 506 484 L 502 486 L 500 486 L 496 484 L 492 480 L 489 474 L 489 471 L 488 470 L 488 460 L 489 459 L 490 451 L 492 448 L 492 446 L 494 442 L 494 438 L 493 437 L 493 434 L 492 433 L 492 428 L 491 427 L 491 423 L 490 422 L 490 418 L 489 417 L 489 414 L 488 413 L 486 402 L 483 395 L 482 389 L 480 386 L 480 384 L 478 381 L 476 374 L 471 364 L 469 362 L 468 359 L 466 357 L 460 347 L 458 345 L 456 346 L 458 353 L 462 361 L 464 363 L 465 367 L 473 383 L 473 385 L 474 386 L 474 388 L 475 389 L 475 391 L 478 398 L 478 401 L 479 402 L 479 405 L 480 406 L 480 410 L 481 411 L 481 414 L 482 415 L 482 418 L 483 419 L 483 423 L 484 424 L 484 429 L 485 430 L 485 433 L 486 434 L 486 444 L 484 447 L 484 449 L 482 453 L 482 457 L 481 458 L 481 473 L 482 474 L 482 477 L 485 484 L 488 487 L 488 488 L 494 493 L 496 494 L 499 494 L 502 497 L 503 499 L 504 507 L 505 508 L 506 517 L 507 518 L 507 522 L 506 523 L 502 523 L 502 526 L 508 538 L 510 545 L 508 547 L 506 547 L 502 544 L 500 545 L 506 556 L 506 558 L 510 566 L 511 571 L 509 573 L 504 570 L 503 571 L 507 578 L 507 581 L 505 584 L 505 590 L 506 591 L 506 604 L 505 605 L 505 617 L 504 618 L 504 623 L 503 624 L 503 627 L 502 628 L 502 632 L 499 635 L 499 637 L 501 639 L 505 641 L 507 641 L 516 650 L 518 654 L 518 657 L 519 658 L 519 669 L 517 673 L 512 678 L 508 680 L 506 680 L 504 678 L 504 676 L 505 675 L 505 671 L 504 670 L 504 666 L 503 665 L 503 663 L 499 659 L 498 659 L 497 660 L 497 666 L 498 667 L 498 679 L 493 683 L 488 683 L 487 684 L 480 684 L 478 682 L 478 668 L 477 667 L 476 663 L 473 661 L 472 661 L 470 663 L 470 666 L 471 667 L 471 676 L 472 677 L 472 681 L 469 685 L 448 685 L 446 683 L 446 668 L 445 667 L 445 664 L 444 663 L 441 663 L 439 666 L 439 677 L 440 678 L 440 683 L 438 685 L 435 685 L 434 684 L 426 684 L 425 683 L 420 683 L 419 682 L 416 682 L 415 681 L 410 680 L 404 677 L 399 672 L 397 668 L 397 654 L 398 653 L 398 649 L 399 648 L 399 633 L 398 632 L 396 634 L 394 634 L 393 633 L 393 631 L 392 630 L 392 615 L 388 612 L 388 601 L 389 600 L 389 597 L 387 597 L 386 598 L 384 596 L 383 594 L 383 591 L 382 590 L 382 587 L 381 586 L 381 582 L 379 579 L 379 577 L 377 575 L 377 572 L 379 570 L 383 569 L 384 568 L 384 565 L 383 564 L 379 564 L 378 565 L 372 565 L 371 566 L 365 566 L 364 567 L 357 567 L 356 566 L 349 566 L 348 565 L 336 564 L 335 563 L 332 563 L 331 562 L 327 562 L 320 559 L 312 558 L 311 560 L 316 564 L 320 566 L 325 567 L 328 569 L 339 571 L 341 573 L 340 582 L 338 585 L 338 598 L 336 600 L 335 600 L 333 598 L 332 599 L 332 607 L 333 608 L 333 628 L 331 632 L 326 631 L 327 642 L 328 643 L 328 652 L 327 653 L 327 658 L 324 664 L 317 669 L 314 669 L 313 670 L 311 670 L 310 671 L 306 671 L 305 672 L 293 673 L 292 674 L 282 674 L 281 675 L 275 675 L 274 676 L 241 676 L 239 674 L 239 672 L 238 671 L 239 660 L 240 659 L 241 654 L 240 653 L 238 653 L 235 656 L 233 660 L 233 663 L 232 664 L 232 669 L 233 670 L 233 673 L 231 675 L 229 674 L 222 674 L 221 673 L 218 673 L 214 670 L 214 659 L 215 658 L 215 655 L 217 651 L 216 649 L 214 649 L 209 655 L 209 658 L 208 659 L 208 666 L 209 668 L 207 670 L 205 670 L 199 665 L 198 663 L 198 660 L 197 659 L 197 655 L 198 654 L 199 646 L 202 640 L 208 634 L 213 631 L 215 631 L 219 629 L 223 629 L 224 628 L 232 628 L 235 626 L 232 621 L 231 615 L 229 611 L 228 600 L 226 596 L 226 587 L 222 584 L 222 582 L 223 581 L 223 577 L 224 576 L 224 573 L 225 571 L 223 570 L 221 572 L 220 572 L 218 570 L 218 564 L 219 563 L 219 560 L 220 559 L 221 553 L 222 552 L 222 550 L 225 543 L 223 542 L 219 544 L 217 542 L 217 540 L 224 526 L 224 523 L 220 524 L 218 522 L 218 521 L 224 510 L 226 502 L 227 501 L 229 501 L 231 503 L 232 502 L 232 499 L 227 489 L 225 478 L 224 477 L 222 479 L 220 479 L 218 476 L 218 466 L 219 465 L 219 458 L 220 457 L 220 455 L 219 454 L 216 457 L 214 455 L 214 445 L 215 444 L 216 437 L 217 436 L 220 425 L 218 425 L 214 427 L 212 425 L 212 421 L 215 416 L 215 414 L 218 408 L 220 406 L 222 401 L 226 396 L 225 394 L 219 396 L 217 394 L 217 391 L 233 371 L 232 370 L 230 371 L 227 371 L 225 369 L 225 366 L 235 352 L 235 348 L 236 347 L 236 344 L 238 340 L 238 337 L 240 334 L 240 332 L 242 328 L 242 323 L 241 322 L 239 322 L 237 324 L 234 330 L 234 332 L 232 336 L 230 338 L 226 338 L 222 336 L 216 335 L 211 331 L 215 327 L 214 326 L 204 325 L 203 324 L 200 324 L 199 323 L 195 322 L 193 320 L 193 318 L 197 315 L 196 313 L 194 313 L 190 311 L 187 311 L 186 310 L 184 310 L 181 308 L 179 308 L 172 305 L 168 301 L 168 300 L 170 298 L 176 297 L 177 296 L 173 293 L 171 293 L 166 290 L 162 289 L 160 287 L 157 286 L 155 284 L 151 282 L 147 278 L 146 275 L 148 273 L 154 273 L 155 271 L 139 256 L 139 255 L 134 250 L 134 249 L 128 241 L 127 238 L 125 236 L 116 216 L 116 213 L 115 212 L 115 208 L 114 207 L 114 204 L 113 203 L 113 200 L 112 199 L 111 191 L 108 186 L 100 178 L 95 170 L 91 166 L 84 154 L 84 151 L 83 150 L 83 139 L 87 134 L 91 133 L 92 132 L 98 132 L 99 131 L 98 127 L 97 126 L 96 112 L 97 111 L 97 108 L 100 105 L 102 104 L 109 104 L 113 106 L 118 111 L 119 114 L 120 114 L 120 106 L 119 105 L 119 93 L 120 92 L 120 90 L 124 86 L 126 85 L 130 85 L 133 83 L 139 83 L 141 85 L 145 93 L 145 96 L 146 97 L 146 107 L 147 107 L 149 99 L 152 93 L 161 85 L 166 84 L 170 88 L 172 92 L 172 96 L 173 97 L 173 101 L 174 102 L 174 107 L 175 108 L 175 111 L 178 115 L 181 114 L 186 108 L 188 107 L 191 107 L 197 112 L 199 116 L 199 118 L 200 119 L 200 127 L 199 128 L 199 133 L 197 137 L 197 140 L 194 146 L 189 152 L 189 156 L 196 165 L 207 187 L 210 190 L 212 190 L 212 189 L 214 187 L 215 187 L 219 192 L 219 194 L 221 197 L 221 199 L 223 202 L 223 204 L 226 211 L 227 212 L 229 212 L 230 209 L 232 207 L 233 207 L 236 210 L 240 218 L 240 220 L 243 224 L 244 224 L 246 222 L 248 222 L 252 226 L 257 236 L 258 235 L 258 233 L 260 231 L 261 231 L 265 235 L 271 245 L 273 247 L 274 247 L 275 246 L 275 241 L 271 234 L 264 226 L 264 225 L 262 223 L 259 222 L 252 214 L 250 216 L 249 216 L 244 211 L 242 207 L 242 204 L 241 203 L 241 194 L 240 193 L 239 194 L 236 194 L 233 191 L 233 183 L 234 182 L 234 178 L 235 177 L 235 174 L 236 172 L 235 171 L 231 173 L 229 171 L 229 164 L 235 152 L 234 151 L 228 152 L 226 150 L 226 147 L 230 142 L 230 141 L 238 133 L 238 131 L 237 130 L 237 122 L 242 112 L 242 110 L 245 105 L 245 102 L 244 101 L 240 100 L 234 95 L 233 95 L 228 89 L 225 83 L 225 81 L 224 80 L 224 69 L 225 68 L 225 63 L 229 55 L 238 46 L 239 46 L 241 44 L 245 42 L 247 42 L 250 40 L 255 40 L 256 39 L 265 40 L 271 43 L 273 45 L 274 45 L 282 54 L 293 46 L 297 44 L 299 44 L 302 42 L 304 42 L 309 36 L 327 35 L 328 33 L 325 29 L 325 25 L 327 23 L 331 23 L 338 27 L 340 27 L 344 30 L 346 30 L 353 22 L 359 19 L 360 19 L 363 22 L 362 26 L 361 27 L 361 30 L 366 30 L 367 29 L 381 29 L 382 30 L 387 30 L 388 31 L 397 32 L 398 33 L 400 33 L 407 36 L 408 35 L 409 29 L 411 27 L 411 26 L 420 17 L 421 17 L 423 15 L 427 14 L 430 12 L 434 12 L 435 11 L 443 11 L 444 12 Z" fill="#010101" fill-rule="evenodd"/></svg>