<svg xmlns="http://www.w3.org/2000/svg" viewBox="0 0 653 704" shape-rendering="geometricPrecision"><title>intro frame 095</title><path d="M 470 512 L 458 522 L 454 522 L 450 525 L 445 531 L 441 528 L 433 539 L 429 536 L 421 546 L 417 544 L 412 550 L 404 557 L 399 565 L 399 567 L 395 571 L 391 578 L 389 584 L 389 588 L 388 589 L 392 593 L 391 608 L 394 608 L 396 610 L 395 626 L 396 628 L 399 627 L 402 630 L 403 646 L 400 655 L 400 667 L 402 671 L 406 675 L 408 675 L 411 677 L 414 677 L 417 679 L 425 680 L 426 681 L 435 681 L 436 680 L 436 665 L 440 659 L 444 659 L 448 663 L 448 667 L 449 668 L 449 681 L 450 682 L 468 682 L 469 681 L 469 677 L 468 676 L 468 660 L 470 658 L 475 658 L 479 662 L 481 666 L 481 669 L 482 670 L 482 681 L 484 680 L 491 680 L 495 678 L 495 668 L 494 667 L 493 659 L 497 655 L 500 656 L 505 661 L 506 665 L 508 668 L 508 675 L 510 676 L 515 670 L 516 662 L 515 661 L 515 655 L 513 651 L 506 644 L 499 641 L 497 639 L 493 639 L 492 638 L 488 638 L 486 640 L 459 639 L 458 640 L 452 640 L 451 641 L 446 641 L 445 640 L 435 640 L 433 641 L 432 640 L 433 638 L 439 635 L 443 635 L 444 634 L 451 634 L 452 633 L 458 633 L 459 632 L 480 632 L 483 633 L 481 627 L 481 623 L 483 620 L 483 616 L 485 614 L 487 614 L 490 618 L 490 624 L 491 624 L 493 621 L 486 608 L 486 606 L 484 604 L 486 601 L 488 604 L 491 606 L 493 604 L 493 601 L 485 595 L 481 594 L 465 580 L 467 578 L 470 578 L 483 584 L 486 584 L 487 585 L 489 584 L 488 581 L 474 565 L 474 564 L 477 562 L 488 569 L 489 566 L 487 563 L 487 561 L 484 556 L 478 552 L 474 551 L 472 549 L 473 547 L 484 548 L 485 546 L 481 543 L 477 538 L 479 536 L 482 536 L 484 538 L 487 538 L 487 537 L 477 526 L 475 519 Z M 445 583 L 453 592 L 456 598 L 456 601 L 455 602 L 453 602 L 446 595 L 445 592 L 443 590 L 443 585 Z M 436 581 L 437 582 L 437 587 L 435 592 L 433 594 L 431 592 L 431 588 L 433 585 L 433 583 Z M 409 562 L 411 564 L 410 569 L 408 573 L 406 575 L 404 575 L 402 572 L 404 570 L 406 564 Z M 229 508 L 224 517 L 224 519 L 227 519 L 229 521 L 229 523 L 225 530 L 223 536 L 223 538 L 227 537 L 229 539 L 229 543 L 225 551 L 225 554 L 222 562 L 222 566 L 227 565 L 229 567 L 228 575 L 226 580 L 229 583 L 229 594 L 231 597 L 232 609 L 235 617 L 235 620 L 239 624 L 244 624 L 245 625 L 248 625 L 256 628 L 259 632 L 257 634 L 252 634 L 243 631 L 224 631 L 223 632 L 220 632 L 211 635 L 205 640 L 201 649 L 201 655 L 200 656 L 201 662 L 203 665 L 205 665 L 205 659 L 207 655 L 207 652 L 213 646 L 218 645 L 220 647 L 221 650 L 218 657 L 217 667 L 221 670 L 228 671 L 229 670 L 229 662 L 232 655 L 237 650 L 241 650 L 244 653 L 244 657 L 242 661 L 242 667 L 241 668 L 241 671 L 244 673 L 264 673 L 265 672 L 273 672 L 276 668 L 278 668 L 282 666 L 286 662 L 290 661 L 293 658 L 295 653 L 294 648 L 288 642 L 288 637 L 287 635 L 289 633 L 292 635 L 293 631 L 295 629 L 297 629 L 293 621 L 293 619 L 297 615 L 297 612 L 296 611 L 296 607 L 292 601 L 287 597 L 285 592 L 285 588 L 287 586 L 294 594 L 295 592 L 292 589 L 292 587 L 296 582 L 287 574 L 284 569 L 276 561 L 271 552 L 268 549 L 267 546 L 261 539 L 259 539 L 252 531 L 250 526 L 242 519 L 239 518 L 234 512 Z M 258 581 L 260 583 L 260 585 L 257 587 L 255 584 Z M 266 575 L 268 575 L 270 577 L 274 585 L 274 588 L 272 590 L 268 586 L 266 582 L 266 579 L 265 578 Z M 281 571 L 283 573 L 283 579 L 282 582 L 280 584 L 278 582 L 278 576 L 279 573 Z M 248 566 L 250 568 L 249 571 L 243 577 L 242 577 L 240 574 Z M 132 209 L 134 215 L 134 218 L 135 218 L 134 211 L 133 209 Z M 190 82 L 190 84 L 192 84 L 196 89 L 197 89 L 197 85 L 194 82 Z M 449 15 L 442 15 L 440 14 L 439 15 L 432 16 L 423 21 L 416 29 L 414 33 L 414 37 L 411 40 L 401 36 L 392 35 L 386 33 L 368 33 L 367 34 L 362 34 L 360 32 L 360 29 L 362 25 L 359 24 L 356 26 L 349 34 L 347 34 L 337 28 L 332 27 L 331 29 L 333 31 L 334 36 L 331 39 L 314 39 L 308 45 L 303 46 L 295 50 L 286 57 L 283 57 L 281 55 L 280 52 L 276 48 L 266 43 L 253 43 L 244 47 L 235 55 L 230 67 L 230 80 L 232 83 L 233 87 L 239 94 L 246 98 L 249 98 L 251 100 L 250 107 L 248 109 L 248 111 L 246 114 L 246 116 L 243 121 L 243 124 L 242 125 L 244 133 L 233 146 L 233 147 L 239 147 L 242 150 L 235 165 L 236 168 L 237 167 L 240 167 L 242 169 L 242 172 L 240 177 L 239 187 L 240 189 L 243 187 L 245 187 L 248 190 L 247 192 L 247 203 L 249 209 L 252 210 L 252 208 L 255 206 L 258 210 L 260 217 L 261 218 L 264 218 L 272 228 L 278 232 L 290 237 L 297 245 L 297 248 L 295 250 L 293 250 L 289 246 L 285 245 L 282 243 L 280 244 L 280 247 L 277 250 L 274 250 L 270 246 L 267 241 L 266 241 L 265 243 L 263 243 L 260 240 L 256 231 L 255 231 L 253 234 L 249 231 L 246 221 L 243 215 L 242 218 L 240 220 L 235 216 L 233 210 L 233 207 L 229 196 L 227 194 L 226 195 L 223 195 L 221 193 L 217 185 L 216 180 L 211 170 L 211 168 L 209 166 L 209 164 L 207 162 L 203 154 L 205 149 L 212 142 L 217 134 L 218 130 L 220 128 L 220 125 L 221 124 L 221 116 L 217 110 L 212 110 L 209 112 L 209 113 L 211 112 L 215 112 L 218 115 L 219 118 L 219 125 L 217 131 L 213 136 L 207 140 L 199 141 L 196 138 L 194 134 L 194 128 L 196 124 L 201 119 L 201 118 L 197 115 L 197 110 L 195 111 L 195 113 L 189 119 L 184 119 L 175 112 L 171 108 L 171 91 L 170 90 L 169 82 L 164 75 L 159 75 L 153 80 L 154 81 L 159 78 L 162 78 L 168 85 L 169 95 L 170 96 L 170 106 L 169 109 L 164 114 L 157 115 L 154 114 L 151 111 L 147 113 L 145 111 L 141 98 L 138 94 L 137 95 L 138 98 L 140 100 L 143 108 L 143 119 L 140 123 L 133 126 L 130 125 L 125 119 L 120 120 L 114 116 L 108 117 L 105 122 L 105 130 L 106 131 L 106 135 L 109 144 L 113 152 L 115 154 L 120 165 L 127 174 L 127 185 L 128 186 L 128 192 L 129 193 L 129 198 L 130 199 L 130 204 L 131 206 L 132 206 L 132 202 L 134 201 L 136 206 L 141 212 L 151 231 L 155 235 L 158 240 L 176 258 L 186 264 L 196 267 L 202 272 L 202 275 L 200 277 L 194 277 L 192 279 L 195 281 L 198 281 L 199 282 L 210 282 L 216 288 L 218 288 L 221 290 L 229 291 L 232 294 L 232 296 L 230 298 L 224 300 L 221 300 L 220 301 L 222 303 L 230 305 L 233 307 L 239 307 L 241 305 L 243 300 L 250 294 L 255 293 L 257 295 L 256 301 L 247 320 L 247 325 L 245 329 L 244 335 L 245 335 L 252 328 L 261 322 L 263 322 L 265 324 L 265 326 L 261 333 L 253 343 L 242 352 L 239 353 L 231 364 L 231 366 L 235 366 L 237 368 L 237 371 L 222 390 L 223 391 L 225 390 L 229 390 L 231 392 L 231 394 L 222 408 L 216 421 L 217 422 L 220 420 L 222 420 L 225 423 L 221 433 L 221 436 L 219 440 L 217 450 L 222 446 L 224 447 L 222 472 L 226 470 L 229 473 L 229 481 L 232 490 L 233 490 L 233 488 L 235 487 L 238 490 L 240 497 L 241 497 L 243 494 L 246 497 L 251 510 L 256 507 L 265 520 L 268 518 L 278 529 L 279 529 L 279 527 L 281 525 L 283 525 L 292 536 L 296 533 L 302 540 L 303 540 L 303 539 L 295 527 L 289 514 L 288 506 L 290 504 L 293 507 L 293 509 L 299 520 L 316 538 L 320 537 L 323 533 L 325 533 L 328 537 L 330 538 L 345 524 L 347 524 L 348 525 L 348 528 L 344 536 L 344 542 L 345 543 L 349 539 L 353 537 L 356 534 L 359 533 L 363 529 L 365 529 L 367 531 L 367 533 L 362 543 L 364 544 L 366 542 L 370 541 L 375 536 L 380 529 L 381 526 L 388 519 L 390 521 L 390 524 L 387 531 L 387 534 L 388 534 L 388 532 L 390 529 L 394 517 L 394 514 L 396 512 L 399 514 L 400 517 L 400 526 L 397 534 L 398 536 L 410 522 L 417 507 L 419 505 L 421 505 L 423 507 L 422 517 L 419 522 L 419 525 L 420 525 L 431 513 L 433 507 L 435 505 L 436 499 L 438 497 L 439 494 L 442 496 L 442 505 L 441 506 L 441 509 L 443 509 L 450 499 L 452 494 L 452 491 L 457 485 L 459 487 L 459 491 L 460 491 L 463 480 L 465 477 L 465 464 L 467 461 L 467 453 L 464 448 L 464 446 L 467 443 L 471 445 L 470 438 L 463 429 L 463 427 L 464 426 L 471 431 L 472 430 L 467 425 L 463 426 L 457 418 L 457 416 L 459 415 L 463 419 L 467 420 L 469 417 L 467 411 L 464 408 L 458 405 L 449 404 L 446 401 L 448 398 L 456 398 L 457 399 L 460 399 L 466 403 L 467 402 L 458 383 L 456 381 L 457 379 L 462 380 L 462 379 L 453 371 L 446 362 L 448 360 L 456 365 L 459 365 L 459 363 L 457 360 L 457 357 L 452 352 L 454 349 L 449 339 L 446 336 L 446 334 L 448 332 L 451 334 L 452 333 L 449 325 L 451 323 L 454 325 L 455 328 L 462 336 L 462 338 L 464 340 L 465 344 L 473 356 L 473 358 L 480 370 L 480 372 L 482 375 L 483 380 L 485 383 L 489 395 L 489 398 L 491 402 L 491 405 L 493 410 L 493 414 L 495 419 L 495 423 L 497 428 L 497 433 L 499 438 L 499 443 L 497 446 L 494 455 L 494 459 L 493 460 L 493 470 L 496 478 L 501 482 L 506 482 L 509 479 L 512 470 L 517 466 L 521 469 L 521 480 L 518 489 L 514 493 L 514 495 L 516 498 L 521 501 L 529 501 L 535 494 L 535 492 L 537 490 L 539 485 L 542 482 L 545 482 L 547 484 L 547 494 L 544 503 L 550 503 L 554 501 L 557 498 L 561 490 L 561 487 L 563 483 L 566 480 L 568 480 L 571 483 L 571 492 L 570 493 L 571 494 L 577 487 L 582 475 L 583 467 L 584 466 L 584 460 L 585 459 L 585 447 L 584 446 L 584 440 L 582 436 L 582 433 L 584 431 L 586 431 L 586 429 L 581 416 L 581 412 L 576 404 L 576 402 L 574 400 L 576 397 L 578 397 L 580 399 L 581 398 L 577 391 L 572 385 L 571 382 L 566 376 L 566 373 L 567 372 L 574 374 L 564 360 L 554 349 L 554 347 L 556 345 L 558 345 L 561 347 L 564 347 L 564 346 L 544 327 L 535 320 L 537 317 L 546 318 L 546 316 L 527 302 L 525 302 L 521 298 L 521 296 L 523 294 L 528 294 L 528 293 L 517 288 L 515 286 L 510 284 L 507 281 L 509 278 L 517 278 L 517 277 L 503 267 L 492 262 L 489 259 L 492 255 L 495 255 L 495 254 L 491 253 L 487 250 L 484 250 L 474 245 L 471 245 L 468 243 L 457 243 L 456 244 L 454 243 L 453 244 L 454 246 L 450 250 L 448 250 L 445 247 L 431 247 L 430 246 L 428 246 L 425 249 L 420 249 L 418 247 L 418 240 L 417 240 L 416 243 L 411 248 L 410 251 L 408 253 L 405 252 L 406 245 L 414 236 L 419 235 L 425 227 L 428 229 L 428 233 L 429 234 L 431 232 L 432 223 L 434 221 L 436 221 L 439 224 L 441 221 L 441 212 L 443 211 L 447 215 L 448 214 L 448 209 L 454 202 L 457 203 L 457 200 L 449 192 L 450 190 L 454 190 L 462 194 L 463 191 L 461 186 L 459 184 L 459 182 L 460 181 L 464 181 L 467 183 L 470 182 L 470 178 L 465 172 L 466 171 L 471 172 L 472 170 L 470 166 L 463 159 L 465 156 L 471 158 L 478 163 L 479 166 L 481 168 L 480 169 L 482 171 L 483 175 L 484 174 L 484 171 L 486 169 L 488 169 L 491 171 L 492 170 L 490 163 L 484 152 L 484 150 L 488 147 L 492 149 L 495 148 L 491 142 L 479 129 L 482 125 L 491 126 L 491 124 L 487 120 L 481 117 L 476 112 L 480 106 L 476 101 L 464 80 L 459 75 L 459 73 L 470 64 L 475 55 L 475 52 L 476 51 L 476 42 L 475 41 L 475 38 L 473 33 L 464 23 L 460 20 Z M 285 512 L 288 516 L 287 519 L 284 517 L 284 513 Z M 264 498 L 267 499 L 268 502 L 267 505 L 264 503 L 263 500 Z M 428 495 L 430 496 L 430 501 L 429 502 L 427 501 L 427 496 Z M 412 495 L 413 496 L 413 504 L 410 506 L 409 505 L 409 499 L 410 496 Z M 407 490 L 409 489 L 412 493 L 410 494 Z M 269 487 L 272 490 L 279 504 L 280 511 L 278 513 L 276 513 L 273 510 L 269 500 L 269 497 L 268 496 L 268 488 Z M 272 463 L 273 464 L 273 469 L 272 470 L 272 473 L 269 476 L 267 473 L 268 472 L 269 466 L 270 464 Z M 436 454 L 437 454 L 441 459 L 445 467 L 447 473 L 447 476 L 448 477 L 448 481 L 446 483 L 443 481 L 439 490 L 437 492 L 431 491 L 429 489 L 430 488 L 430 480 L 426 474 L 426 472 L 428 470 L 435 477 L 436 476 L 436 463 L 434 458 L 434 456 Z M 258 440 L 260 442 L 259 449 L 256 455 L 254 463 L 251 466 L 248 462 L 249 454 L 253 445 Z M 412 423 L 413 422 L 416 422 L 419 424 L 428 423 L 432 426 L 429 429 L 424 429 L 425 431 L 423 433 L 420 433 L 414 427 Z M 257 416 L 258 417 L 258 420 L 254 424 L 249 434 L 245 434 L 243 431 L 245 428 L 246 424 L 251 418 Z M 428 401 L 434 405 L 436 405 L 438 407 L 443 409 L 449 415 L 448 418 L 441 418 L 440 417 L 438 418 L 438 420 L 441 424 L 439 426 L 436 424 L 434 420 L 432 410 L 427 404 Z M 421 394 L 423 392 L 429 392 L 431 394 L 431 396 L 430 397 L 424 397 Z M 434 386 L 437 384 L 443 390 L 443 392 L 442 393 L 437 392 L 434 389 Z M 436 372 L 438 370 L 444 370 L 448 373 L 448 376 L 444 381 L 442 381 L 439 378 Z M 385 370 L 386 369 L 390 369 L 403 378 L 407 379 L 409 381 L 408 384 L 406 386 L 402 384 L 396 378 L 387 373 Z M 410 366 L 412 365 L 415 368 L 418 369 L 420 371 L 420 373 L 418 375 L 411 376 L 409 371 Z M 535 355 L 537 354 L 543 358 L 542 359 L 538 359 Z M 432 345 L 434 343 L 438 343 L 449 348 L 452 351 L 451 352 L 448 352 L 447 351 L 437 350 L 435 349 Z M 433 329 L 436 327 L 439 330 L 439 332 L 437 333 Z M 425 326 L 426 325 L 429 325 L 433 328 L 430 329 L 429 328 L 426 328 Z M 413 316 L 416 312 L 420 312 L 421 313 L 417 318 L 415 318 Z M 431 311 L 437 319 L 438 322 L 437 324 L 434 323 L 429 315 L 429 313 Z M 374 310 L 377 314 L 376 317 L 374 317 L 372 313 Z M 378 311 L 381 309 L 387 315 L 390 315 L 391 312 L 393 311 L 394 312 L 394 317 L 392 319 L 384 318 L 378 312 Z M 324 307 L 321 310 L 318 311 L 316 310 L 316 308 L 320 305 L 322 305 Z M 423 303 L 425 306 L 425 309 L 423 311 L 421 310 L 421 304 Z M 434 298 L 439 302 L 439 304 L 437 306 L 435 305 L 432 301 Z M 384 292 L 385 292 L 388 296 L 388 299 L 391 304 L 390 307 L 382 299 L 381 295 Z M 312 290 L 314 292 L 312 294 L 311 297 L 307 300 L 306 299 L 306 296 L 307 294 Z M 421 287 L 423 289 L 422 300 L 421 301 L 416 296 L 419 293 L 419 289 Z M 257 279 L 259 282 L 254 286 L 251 287 L 250 286 L 251 282 L 254 279 Z M 259 271 L 260 274 L 254 279 L 252 276 L 256 272 Z M 260 262 L 262 260 L 267 260 L 269 263 L 267 265 L 262 265 Z M 421 261 L 416 265 L 413 265 L 412 264 L 414 261 L 418 259 Z M 265 251 L 266 250 L 269 250 L 271 253 L 269 255 L 267 255 L 265 253 Z M 400 244 L 400 248 L 398 251 L 384 265 L 376 271 L 370 274 L 367 277 L 365 278 L 362 277 L 359 279 L 350 279 L 342 274 L 340 274 L 329 266 L 319 255 L 319 253 L 322 250 L 331 250 L 332 251 L 337 251 L 338 252 L 356 252 L 357 251 L 376 248 L 377 247 L 380 247 L 384 245 L 387 245 L 396 242 L 398 242 Z M 112 120 L 119 120 L 121 121 L 126 126 L 129 132 L 129 135 L 127 139 L 122 144 L 117 144 L 115 143 L 110 137 L 108 127 L 109 126 L 109 123 Z M 386 130 L 388 125 L 396 119 L 402 118 L 403 117 L 416 117 L 417 118 L 423 118 L 430 121 L 437 128 L 438 130 L 438 137 L 431 145 L 426 147 L 407 147 L 398 144 L 393 141 L 387 134 Z M 185 125 L 192 139 L 193 145 L 192 146 L 191 154 L 189 157 L 183 162 L 179 163 L 176 165 L 168 166 L 167 167 L 162 167 L 161 168 L 156 168 L 155 169 L 140 169 L 135 167 L 128 160 L 125 153 L 125 145 L 127 140 L 132 134 L 149 121 L 155 118 L 165 116 L 166 117 L 173 117 L 181 121 Z M 309 111 L 313 107 L 319 104 L 335 104 L 341 107 L 344 110 L 344 113 L 342 115 L 332 113 L 331 112 L 320 112 L 319 113 L 310 114 Z M 289 98 L 295 98 L 300 103 L 300 106 L 301 107 L 300 116 L 295 122 L 298 122 L 303 120 L 307 120 L 308 119 L 322 120 L 332 124 L 338 130 L 339 133 L 337 141 L 329 150 L 322 154 L 313 157 L 304 157 L 296 154 L 293 152 L 287 146 L 286 143 L 284 142 L 283 156 L 286 162 L 293 167 L 301 167 L 308 162 L 311 161 L 318 162 L 319 163 L 323 163 L 324 164 L 329 164 L 330 165 L 343 165 L 344 164 L 347 164 L 356 161 L 365 156 L 374 144 L 377 144 L 382 149 L 384 154 L 384 162 L 385 163 L 385 182 L 384 183 L 384 189 L 381 197 L 381 200 L 376 210 L 376 212 L 371 219 L 359 229 L 353 232 L 342 234 L 341 233 L 337 233 L 334 231 L 332 231 L 321 224 L 314 217 L 301 199 L 295 187 L 294 178 L 284 173 L 275 163 L 272 155 L 272 149 L 271 149 L 262 158 L 257 160 L 249 158 L 244 153 L 244 146 L 247 140 L 253 135 L 259 132 L 268 131 L 271 132 L 277 138 L 278 137 L 283 137 L 284 131 L 288 127 L 286 126 L 281 120 L 281 111 L 284 103 Z M 374 91 L 381 91 L 386 96 L 388 100 L 388 103 L 389 104 L 388 115 L 387 118 L 382 123 L 375 123 L 371 121 L 367 115 L 367 112 L 366 111 L 366 103 L 367 102 L 367 99 Z M 306 63 L 306 66 L 303 70 L 293 74 L 289 78 L 285 78 L 282 75 L 282 71 L 283 69 L 293 60 L 295 59 L 302 59 Z M 261 57 L 266 59 L 273 66 L 273 68 L 261 85 L 255 91 L 253 91 L 243 82 L 242 79 L 242 71 L 245 65 L 251 59 L 256 57 Z M 366 53 L 372 48 L 378 48 L 384 50 L 392 57 L 393 59 L 393 63 L 389 67 L 387 67 L 383 65 L 380 62 L 368 59 L 366 57 Z M 439 31 L 447 30 L 450 32 L 452 32 L 458 37 L 463 45 L 463 54 L 461 58 L 453 65 L 449 65 L 439 55 L 433 51 L 431 51 L 427 46 L 427 44 L 431 37 Z" fill="#FBFBFB" fill-rule="evenodd"/><path d="M 445 584 L 444 585 L 444 590 L 446 592 L 447 595 L 453 601 L 455 601 L 455 598 L 452 592 Z M 436 582 L 434 583 L 434 585 L 432 588 L 432 592 L 433 593 L 436 587 Z M 266 576 L 267 582 L 269 586 L 272 589 L 273 588 L 273 585 L 269 577 Z M 281 572 L 279 576 L 279 582 L 280 583 L 282 579 L 282 573 Z M 248 567 L 241 574 L 242 576 L 248 571 L 249 569 Z M 409 563 L 407 564 L 405 570 L 403 572 L 404 574 L 406 574 L 409 569 L 409 566 L 410 565 Z M 412 496 L 411 496 L 410 499 L 410 505 L 412 504 Z M 269 488 L 269 496 L 270 497 L 270 500 L 274 510 L 276 512 L 278 512 L 279 511 L 278 504 L 271 490 Z M 271 494 L 273 495 L 277 503 L 278 507 L 276 509 L 271 501 L 270 498 L 270 495 Z M 513 495 L 513 493 L 517 489 L 520 480 L 520 476 L 520 480 L 516 490 L 513 493 L 513 495 L 517 500 L 521 502 L 529 502 L 532 500 L 538 491 L 540 485 L 542 483 L 544 483 L 546 485 L 546 494 L 542 504 L 543 505 L 551 504 L 555 502 L 559 497 L 564 483 L 566 481 L 568 481 L 570 483 L 570 492 L 570 483 L 568 481 L 566 481 L 562 487 L 562 490 L 558 498 L 554 502 L 550 504 L 544 504 L 543 503 L 546 494 L 546 484 L 545 483 L 542 483 L 540 485 L 538 490 L 536 492 L 536 494 L 529 502 L 521 502 L 517 500 Z M 272 464 L 271 464 L 269 469 L 269 472 L 268 473 L 269 475 L 271 473 Z M 437 455 L 435 456 L 436 462 L 437 463 L 437 476 L 435 478 L 428 471 L 427 472 L 427 474 L 431 480 L 431 488 L 430 489 L 435 491 L 438 490 L 440 484 L 443 480 L 445 482 L 447 481 L 447 477 L 446 476 L 446 473 L 444 467 Z M 438 459 L 441 462 L 443 468 L 443 472 L 442 473 L 438 470 L 438 466 L 437 465 L 437 460 Z M 258 441 L 254 445 L 250 454 L 249 462 L 251 465 L 253 463 L 255 455 L 258 449 L 258 446 L 259 445 L 259 442 Z M 255 449 L 256 451 L 255 454 L 253 456 L 252 455 L 252 452 L 253 450 Z M 413 423 L 415 427 L 420 432 L 423 432 L 424 431 L 423 430 L 424 428 L 429 428 L 431 426 L 428 424 L 419 425 L 416 423 Z M 257 417 L 253 418 L 249 421 L 244 431 L 245 433 L 249 433 L 253 424 L 257 420 Z M 428 402 L 429 406 L 433 410 L 435 420 L 437 424 L 439 425 L 440 424 L 437 420 L 437 418 L 439 416 L 441 417 L 448 417 L 448 415 L 443 410 L 438 408 L 436 406 L 434 406 Z M 580 395 L 582 398 L 580 400 L 578 398 L 576 398 L 575 400 L 577 402 L 577 404 L 579 406 L 581 411 L 577 403 L 577 401 L 579 399 L 581 401 L 583 401 Z M 422 394 L 424 396 L 430 396 L 429 393 L 423 393 Z M 436 385 L 435 386 L 435 389 L 437 391 L 442 392 L 442 390 Z M 438 371 L 437 373 L 439 375 L 440 378 L 442 380 L 444 380 L 447 376 L 447 373 L 444 371 Z M 386 370 L 387 372 L 396 377 L 402 383 L 406 385 L 408 381 L 407 380 L 403 379 L 390 370 Z M 411 366 L 410 369 L 411 375 L 418 374 L 419 371 Z M 556 346 L 555 349 L 565 360 L 575 374 L 572 375 L 569 373 L 567 373 L 567 376 L 579 393 L 568 377 L 570 374 L 575 376 L 576 375 L 568 365 L 566 361 L 555 348 L 557 346 L 560 347 Z M 433 346 L 437 349 L 451 351 L 449 349 L 438 344 L 434 344 Z M 452 324 L 450 325 L 453 333 L 451 335 L 448 333 L 447 336 L 450 339 L 455 349 L 453 352 L 458 357 L 458 360 L 460 363 L 460 365 L 459 366 L 456 366 L 448 361 L 447 362 L 454 371 L 463 379 L 462 381 L 457 380 L 457 381 L 459 383 L 468 402 L 466 404 L 460 400 L 457 400 L 456 399 L 448 399 L 447 401 L 449 403 L 458 404 L 464 407 L 468 411 L 470 417 L 467 421 L 463 420 L 459 416 L 458 416 L 458 418 L 463 425 L 467 424 L 473 430 L 471 432 L 464 427 L 464 429 L 471 438 L 472 445 L 470 446 L 467 444 L 465 446 L 465 448 L 468 453 L 468 461 L 466 464 L 466 477 L 464 480 L 461 491 L 460 492 L 458 491 L 458 487 L 457 486 L 453 491 L 453 494 L 451 499 L 443 510 L 440 509 L 440 506 L 441 505 L 441 496 L 439 495 L 439 497 L 437 499 L 436 502 L 436 505 L 434 507 L 432 513 L 420 526 L 418 525 L 418 522 L 421 517 L 421 514 L 422 513 L 422 507 L 421 506 L 418 507 L 411 522 L 398 537 L 396 534 L 399 526 L 399 517 L 398 514 L 396 513 L 395 514 L 395 517 L 391 529 L 388 535 L 386 534 L 386 531 L 389 524 L 389 521 L 388 520 L 382 526 L 379 532 L 370 542 L 366 543 L 364 545 L 361 543 L 366 533 L 366 531 L 363 530 L 359 534 L 356 535 L 345 544 L 343 542 L 343 536 L 347 528 L 347 525 L 345 525 L 330 539 L 329 539 L 325 534 L 323 534 L 320 538 L 316 539 L 298 520 L 292 509 L 292 507 L 290 505 L 289 506 L 290 514 L 296 527 L 304 539 L 304 540 L 302 541 L 296 534 L 292 537 L 283 526 L 281 526 L 280 529 L 278 530 L 268 519 L 265 521 L 262 518 L 261 515 L 258 512 L 256 508 L 251 511 L 247 504 L 245 497 L 243 495 L 242 497 L 240 498 L 238 492 L 235 488 L 234 488 L 233 491 L 231 490 L 228 481 L 228 473 L 226 471 L 223 473 L 221 472 L 223 447 L 218 451 L 216 450 L 217 453 L 220 450 L 223 451 L 222 463 L 221 464 L 221 475 L 223 475 L 224 473 L 226 473 L 228 475 L 229 486 L 235 499 L 235 504 L 233 506 L 228 505 L 226 512 L 221 520 L 222 521 L 226 520 L 228 522 L 221 537 L 221 540 L 224 539 L 227 539 L 228 540 L 228 543 L 225 548 L 225 550 L 225 548 L 228 543 L 228 539 L 227 538 L 223 539 L 222 536 L 224 530 L 228 523 L 228 521 L 227 520 L 224 520 L 223 517 L 227 509 L 230 507 L 239 517 L 242 518 L 251 526 L 253 531 L 259 538 L 261 538 L 268 546 L 269 549 L 272 552 L 277 561 L 285 569 L 288 574 L 297 582 L 293 587 L 293 589 L 296 592 L 294 595 L 287 587 L 286 588 L 287 595 L 296 605 L 297 607 L 297 611 L 298 612 L 298 615 L 294 619 L 294 621 L 298 629 L 294 631 L 294 633 L 292 636 L 289 634 L 288 635 L 289 637 L 289 642 L 295 648 L 296 653 L 294 658 L 290 662 L 286 663 L 282 667 L 276 669 L 273 673 L 265 673 L 264 674 L 244 674 L 241 672 L 243 674 L 268 674 L 269 673 L 277 673 L 278 672 L 287 672 L 288 671 L 293 671 L 294 670 L 300 670 L 301 669 L 306 669 L 307 668 L 314 667 L 317 665 L 319 665 L 323 661 L 325 657 L 325 638 L 323 633 L 323 629 L 326 626 L 328 628 L 330 628 L 330 621 L 331 620 L 329 596 L 331 594 L 335 597 L 336 596 L 336 584 L 339 575 L 337 573 L 334 573 L 322 569 L 312 564 L 308 560 L 308 558 L 311 555 L 319 556 L 334 561 L 339 561 L 344 563 L 353 563 L 354 564 L 375 563 L 380 561 L 384 562 L 387 565 L 387 567 L 384 571 L 380 572 L 380 575 L 384 583 L 384 588 L 386 594 L 388 593 L 391 594 L 391 602 L 391 593 L 387 589 L 388 588 L 388 584 L 392 574 L 398 567 L 398 565 L 403 557 L 408 553 L 417 543 L 421 545 L 429 535 L 433 538 L 441 527 L 445 530 L 450 524 L 454 521 L 458 521 L 469 511 L 470 511 L 475 517 L 478 526 L 488 537 L 487 539 L 484 539 L 482 537 L 479 537 L 478 538 L 479 540 L 486 546 L 484 549 L 481 549 L 480 548 L 473 548 L 473 549 L 484 555 L 488 561 L 488 563 L 490 566 L 490 568 L 488 570 L 477 563 L 476 563 L 475 565 L 489 581 L 490 584 L 487 586 L 486 585 L 480 584 L 470 579 L 467 579 L 466 580 L 481 593 L 485 594 L 487 596 L 490 597 L 494 601 L 494 604 L 491 607 L 490 607 L 486 602 L 485 603 L 494 621 L 493 623 L 490 625 L 489 624 L 489 618 L 487 615 L 484 616 L 484 620 L 482 623 L 482 627 L 484 632 L 483 634 L 480 633 L 459 633 L 458 634 L 439 636 L 433 639 L 433 640 L 435 639 L 445 639 L 446 640 L 458 639 L 448 640 L 446 638 L 449 635 L 453 635 L 459 633 L 477 633 L 478 634 L 481 634 L 485 637 L 483 639 L 477 639 L 486 639 L 488 637 L 497 638 L 499 640 L 506 643 L 514 651 L 515 654 L 514 651 L 510 646 L 506 643 L 499 640 L 496 637 L 496 635 L 500 631 L 500 628 L 501 627 L 501 623 L 503 617 L 503 605 L 504 604 L 504 592 L 503 591 L 503 585 L 502 583 L 505 579 L 500 569 L 501 568 L 504 568 L 508 570 L 508 567 L 506 564 L 505 559 L 496 542 L 497 541 L 501 541 L 505 544 L 507 544 L 506 539 L 499 523 L 500 520 L 505 520 L 505 518 L 504 517 L 503 507 L 502 506 L 502 500 L 501 498 L 494 495 L 486 487 L 481 477 L 481 473 L 480 472 L 480 459 L 485 444 L 485 435 L 484 434 L 482 420 L 481 419 L 481 416 L 480 415 L 475 392 L 473 389 L 470 379 L 465 370 L 465 368 L 461 360 L 459 358 L 455 349 L 455 345 L 457 343 L 460 343 L 464 347 L 475 364 L 486 389 L 487 395 L 492 410 L 492 413 L 492 410 L 488 398 L 488 395 L 484 383 L 482 380 L 481 375 L 479 372 L 479 370 L 475 362 L 473 360 L 472 356 L 464 344 L 463 340 L 461 338 L 461 336 L 454 328 Z M 480 568 L 482 567 L 485 570 L 482 571 Z M 363 533 L 364 535 L 363 537 L 360 539 L 359 537 L 360 535 Z M 270 522 L 273 524 L 284 538 L 282 541 L 280 540 L 271 530 L 269 526 L 269 523 Z M 397 518 L 398 519 L 398 526 L 395 528 L 394 527 L 394 523 L 395 522 L 395 519 Z M 258 515 L 263 519 L 269 528 L 267 530 L 259 521 L 257 517 Z M 292 513 L 294 514 L 298 522 L 306 531 L 307 533 L 306 535 L 304 535 L 298 528 L 297 525 L 293 520 L 293 518 L 291 515 Z M 421 508 L 422 509 L 421 516 L 417 523 L 417 525 L 414 527 L 413 526 L 413 522 L 415 519 L 418 509 Z M 437 507 L 438 509 L 437 511 L 435 512 L 434 510 L 435 508 Z M 244 499 L 246 500 L 246 502 L 251 513 L 250 516 L 245 512 L 243 506 L 243 500 Z M 454 492 L 456 491 L 457 494 L 455 495 Z M 263 323 L 261 323 L 256 326 L 245 336 L 243 335 L 244 330 L 243 335 L 241 338 L 238 353 L 228 367 L 229 368 L 234 367 L 236 369 L 236 371 L 220 391 L 221 393 L 225 391 L 228 391 L 230 394 L 221 408 L 215 421 L 215 423 L 217 423 L 220 421 L 222 421 L 224 423 L 218 440 L 217 448 L 218 440 L 224 423 L 222 421 L 220 421 L 217 423 L 215 421 L 221 408 L 230 394 L 229 391 L 225 391 L 223 392 L 221 390 L 236 371 L 236 368 L 235 367 L 231 367 L 230 364 L 239 352 L 242 351 L 252 343 L 264 326 Z M 262 324 L 263 327 L 255 338 L 248 345 L 247 343 L 251 337 L 251 333 L 259 325 Z M 537 318 L 536 320 L 544 326 L 565 346 L 564 348 L 562 348 L 566 348 L 566 347 L 551 332 L 550 332 L 537 320 L 539 318 L 542 318 Z M 420 313 L 416 313 L 414 316 L 417 317 Z M 431 312 L 430 313 L 431 317 L 435 323 L 437 323 L 436 319 Z M 379 311 L 384 317 L 388 317 L 389 318 L 392 318 L 393 317 L 393 312 L 392 312 L 392 314 L 390 316 L 387 316 L 381 310 Z M 323 307 L 320 306 L 317 308 L 317 310 L 321 309 Z M 422 304 L 422 310 L 424 309 L 424 306 L 423 304 Z M 434 299 L 433 301 L 434 303 L 437 305 L 438 302 Z M 384 293 L 382 295 L 383 299 L 390 306 L 390 304 L 387 299 L 387 296 L 386 294 Z M 312 291 L 308 294 L 307 299 L 310 297 L 311 294 L 313 292 Z M 421 288 L 420 289 L 420 293 L 417 296 L 421 300 L 421 293 L 422 292 L 422 289 Z M 258 281 L 257 280 L 254 280 L 252 282 L 251 286 L 257 283 Z M 259 272 L 256 273 L 253 277 L 254 278 L 259 274 Z M 504 267 L 518 277 L 517 279 L 509 279 L 508 281 L 510 283 L 529 293 L 528 295 L 523 295 L 522 296 L 522 298 L 526 301 L 525 301 L 522 297 L 524 295 L 530 295 L 530 293 L 517 287 L 509 281 L 511 279 L 519 279 L 519 277 Z M 261 262 L 262 264 L 267 264 L 268 263 L 267 261 L 262 261 Z M 420 261 L 418 260 L 414 262 L 413 264 L 416 264 Z M 266 251 L 267 254 L 270 253 L 269 251 Z M 399 244 L 398 243 L 391 244 L 380 248 L 372 249 L 367 251 L 357 252 L 356 253 L 338 253 L 337 252 L 332 252 L 331 251 L 322 251 L 320 253 L 320 255 L 329 265 L 340 273 L 342 273 L 350 278 L 359 278 L 362 276 L 364 277 L 367 276 L 370 273 L 376 270 L 384 264 L 397 251 L 399 248 Z M 385 261 L 379 265 L 374 270 L 371 271 L 366 275 L 363 273 L 367 269 L 372 267 L 382 259 Z M 330 254 L 331 253 L 333 254 L 338 254 L 339 256 L 338 257 L 334 257 L 331 256 Z M 321 254 L 324 252 L 326 257 L 338 267 L 351 273 L 360 273 L 361 274 L 358 277 L 355 278 L 350 277 L 340 272 L 330 265 L 322 257 Z M 489 211 L 488 215 L 484 220 L 483 223 L 491 232 L 492 234 L 492 239 L 506 246 L 516 255 L 516 262 L 522 266 L 530 274 L 530 279 L 534 282 L 530 279 L 530 274 L 529 272 L 516 261 L 516 255 L 508 247 L 495 241 L 492 238 L 492 234 L 491 232 L 483 223 L 484 220 L 487 217 Z M 248 208 L 251 213 L 255 209 L 257 211 L 259 217 L 261 219 L 264 220 L 273 230 L 279 239 L 279 247 L 277 249 L 274 249 L 271 246 L 267 238 L 266 238 L 263 242 L 261 240 L 257 230 L 255 229 L 252 232 L 249 228 L 250 231 L 252 233 L 256 230 L 258 232 L 261 240 L 263 242 L 265 242 L 265 241 L 267 240 L 274 249 L 277 249 L 279 247 L 279 244 L 281 242 L 289 245 L 293 249 L 296 248 L 295 243 L 290 238 L 278 233 L 272 229 L 264 219 L 261 219 L 259 217 L 257 210 L 255 207 L 253 208 L 252 211 L 250 211 Z M 133 202 L 133 206 L 131 207 L 130 205 L 130 208 L 136 226 L 150 250 L 163 263 L 163 265 L 161 267 L 153 267 L 153 268 L 164 278 L 170 282 L 172 282 L 180 286 L 183 289 L 183 291 L 181 293 L 174 293 L 173 295 L 179 299 L 181 299 L 189 303 L 195 304 L 199 306 L 201 308 L 201 310 L 196 314 L 205 318 L 215 320 L 218 323 L 218 324 L 214 327 L 216 329 L 221 330 L 230 334 L 232 332 L 236 322 L 239 319 L 244 319 L 246 321 L 245 328 L 246 320 L 253 306 L 253 304 L 256 298 L 256 295 L 255 294 L 252 294 L 244 300 L 242 305 L 239 308 L 233 308 L 230 306 L 222 304 L 219 301 L 221 299 L 224 299 L 230 297 L 231 294 L 229 292 L 221 291 L 218 289 L 216 289 L 210 283 L 199 283 L 193 281 L 191 279 L 194 276 L 200 276 L 201 275 L 201 272 L 196 268 L 186 265 L 176 259 L 157 240 L 148 228 L 140 212 L 135 206 L 134 202 Z M 254 294 L 256 296 L 255 300 L 251 307 L 251 309 L 248 315 L 246 316 L 245 315 L 245 312 L 249 303 L 248 302 L 245 305 L 244 305 L 243 303 L 248 297 Z M 220 297 L 222 293 L 228 293 L 229 294 L 228 297 L 225 297 L 224 298 L 221 298 Z M 174 295 L 176 293 L 178 293 L 180 295 L 178 297 L 176 297 Z M 188 269 L 191 268 L 197 270 L 199 272 L 199 274 L 196 275 L 192 271 L 190 271 Z M 132 208 L 133 208 L 135 211 L 135 214 L 136 215 L 136 218 L 135 219 L 133 218 L 133 215 L 131 211 Z M 238 186 L 238 188 L 240 191 L 243 189 L 246 191 L 246 203 L 247 206 L 246 203 L 246 192 L 247 190 L 245 188 L 243 188 L 240 190 Z M 220 153 L 220 156 L 222 159 L 225 160 L 225 158 L 222 154 Z M 377 145 L 374 145 L 372 147 L 374 145 L 376 145 L 382 152 L 383 155 L 383 164 L 384 165 L 384 178 L 383 179 L 383 187 L 382 188 L 380 199 L 376 209 L 371 217 L 366 222 L 363 223 L 359 227 L 356 228 L 354 230 L 351 230 L 346 232 L 340 232 L 328 228 L 324 225 L 308 208 L 298 192 L 296 185 L 298 192 L 300 194 L 305 204 L 315 217 L 321 223 L 328 228 L 337 232 L 344 233 L 345 232 L 353 231 L 359 228 L 370 219 L 375 212 L 375 210 L 379 203 L 380 197 L 382 193 L 383 183 L 384 182 L 384 163 L 383 162 L 383 154 L 382 151 Z M 278 138 L 277 139 L 271 133 L 268 132 L 259 133 L 253 136 L 248 140 L 245 146 L 245 153 L 249 157 L 257 159 L 262 157 L 271 148 L 273 149 L 273 155 L 274 143 Z M 271 134 L 274 138 L 274 140 L 272 142 L 268 136 L 265 136 L 256 139 L 251 145 L 251 148 L 255 151 L 255 154 L 258 154 L 262 151 L 263 152 L 262 155 L 256 158 L 255 157 L 250 157 L 246 153 L 245 151 L 246 145 L 252 138 L 257 136 L 259 134 L 262 134 L 263 133 L 269 133 Z M 242 128 L 243 133 L 231 146 L 232 149 L 238 148 L 240 150 L 240 153 L 233 167 L 234 170 L 238 168 L 241 170 L 240 176 L 239 177 L 239 183 L 239 177 L 240 176 L 241 169 L 240 168 L 237 168 L 236 169 L 234 167 L 234 165 L 241 150 L 239 148 L 233 148 L 232 146 L 242 135 L 243 133 Z M 487 126 L 482 126 L 480 129 L 492 142 L 496 148 L 494 150 L 492 150 L 489 148 L 485 150 L 485 152 L 491 163 L 493 170 L 491 172 L 488 170 L 486 170 L 485 171 L 485 174 L 483 176 L 481 173 L 481 171 L 479 169 L 480 168 L 478 166 L 477 163 L 471 159 L 465 157 L 464 159 L 471 166 L 473 171 L 471 173 L 466 172 L 471 178 L 471 182 L 469 184 L 467 184 L 464 182 L 460 182 L 460 184 L 462 186 L 464 191 L 464 193 L 462 195 L 454 191 L 450 191 L 450 192 L 458 200 L 458 203 L 457 204 L 454 203 L 449 209 L 449 214 L 447 216 L 442 212 L 442 221 L 439 225 L 436 222 L 434 222 L 432 227 L 432 232 L 429 235 L 427 233 L 427 229 L 425 228 L 419 236 L 414 237 L 407 245 L 406 252 L 409 251 L 410 248 L 415 243 L 415 241 L 417 239 L 419 240 L 419 247 L 420 248 L 425 248 L 428 245 L 430 245 L 431 246 L 445 246 L 448 249 L 450 249 L 453 246 L 452 244 L 454 242 L 455 243 L 457 242 L 468 242 L 471 244 L 474 244 L 477 246 L 479 246 L 484 249 L 487 249 L 489 251 L 495 253 L 496 255 L 495 256 L 492 256 L 490 259 L 492 261 L 502 266 L 494 262 L 491 259 L 492 256 L 498 256 L 497 254 L 474 244 L 471 241 L 473 239 L 476 239 L 476 238 L 474 237 L 470 237 L 468 235 L 468 233 L 470 232 L 470 231 L 467 231 L 463 228 L 475 212 L 475 210 L 478 205 L 478 202 L 479 201 L 479 193 L 480 192 L 483 192 L 484 193 L 486 192 L 486 184 L 487 182 L 486 181 L 485 172 L 488 170 L 492 173 L 494 173 L 491 162 L 485 151 L 487 149 L 496 150 L 496 148 L 490 139 L 481 130 L 481 128 L 483 126 Z M 444 244 L 446 242 L 450 242 L 451 243 L 450 245 L 447 246 Z M 442 237 L 444 240 L 439 245 L 437 245 L 435 242 L 440 237 Z M 456 224 L 457 226 L 454 229 L 453 232 L 448 236 L 446 233 L 454 224 Z M 112 121 L 110 123 L 110 126 L 109 127 L 111 137 L 115 142 L 117 143 L 122 143 L 126 139 L 128 135 L 128 132 L 125 126 L 121 122 L 119 121 Z M 113 121 L 116 121 L 121 123 L 127 130 L 127 136 L 121 143 L 118 143 L 112 137 L 110 133 L 110 124 Z M 387 130 L 388 134 L 393 140 L 398 143 L 407 146 L 426 146 L 431 144 L 437 137 L 437 130 L 430 122 L 423 119 L 417 119 L 416 118 L 403 118 L 402 119 L 396 120 L 389 125 Z M 388 128 L 393 122 L 401 119 L 406 119 L 407 118 L 422 119 L 431 123 L 437 130 L 437 137 L 429 144 L 423 146 L 406 145 L 394 140 L 389 135 L 388 133 Z M 184 125 L 176 119 L 173 118 L 166 118 L 165 117 L 155 119 L 149 122 L 139 129 L 133 135 L 132 135 L 128 140 L 126 145 L 126 153 L 129 160 L 135 166 L 140 168 L 155 168 L 156 167 L 172 165 L 183 161 L 186 159 L 190 154 L 191 146 L 192 145 L 191 139 Z M 185 127 L 190 137 L 190 140 L 191 141 L 191 150 L 189 153 L 189 155 L 182 161 L 180 161 L 174 164 L 161 166 L 160 167 L 141 168 L 134 165 L 128 158 L 126 153 L 126 145 L 127 142 L 137 131 L 148 123 L 161 118 L 171 118 L 180 122 Z M 217 109 L 213 109 L 217 109 L 220 112 L 222 116 L 222 124 L 221 125 L 221 128 L 219 130 L 219 132 L 213 142 L 206 149 L 204 153 L 205 157 L 210 164 L 210 166 L 212 168 L 214 174 L 212 168 L 204 153 L 215 140 L 221 128 L 221 125 L 222 124 L 222 116 L 220 112 Z M 310 111 L 310 113 L 314 113 L 320 111 L 331 111 L 340 114 L 343 113 L 343 110 L 335 105 L 319 105 L 313 108 Z M 316 109 L 319 107 L 332 107 L 333 108 L 337 108 L 339 109 L 340 111 L 339 112 L 333 110 L 318 110 L 317 111 Z M 221 92 L 224 96 L 224 98 L 221 99 L 225 100 L 231 107 L 233 106 L 236 109 L 234 111 L 232 109 L 232 110 L 235 111 L 236 108 L 225 98 Z M 130 89 L 127 90 L 125 92 L 122 98 L 122 101 L 123 101 L 124 98 L 128 94 L 132 93 L 137 98 L 141 106 L 141 109 L 142 110 L 142 118 L 141 120 L 138 123 L 131 124 L 125 117 L 123 117 L 120 119 L 115 116 L 120 119 L 125 118 L 130 124 L 134 125 L 140 122 L 142 119 L 142 108 L 140 102 L 136 95 L 138 93 L 141 97 L 135 90 Z M 165 75 L 169 80 L 171 85 L 171 90 L 172 91 L 172 108 L 184 118 L 189 118 L 194 113 L 194 111 L 197 109 L 198 110 L 198 115 L 202 118 L 197 124 L 195 128 L 195 134 L 197 138 L 199 140 L 204 140 L 213 135 L 217 129 L 218 118 L 217 115 L 215 113 L 211 113 L 209 114 L 208 113 L 209 111 L 202 117 L 200 117 L 198 115 L 198 96 L 199 95 L 198 92 L 198 85 L 194 81 L 189 81 L 186 84 L 187 86 L 191 86 L 194 89 L 194 92 L 195 93 L 195 106 L 194 107 L 194 111 L 189 117 L 186 118 L 182 116 L 179 113 L 177 109 L 173 109 L 172 108 L 172 90 L 171 89 L 171 85 L 169 80 Z M 214 113 L 217 117 L 217 126 L 216 129 L 209 137 L 205 139 L 199 139 L 196 136 L 195 133 L 195 129 L 197 125 L 210 114 Z M 189 82 L 190 81 L 194 81 L 198 85 L 198 89 L 196 90 L 192 85 L 189 84 Z M 163 74 L 159 74 L 155 76 L 152 80 L 151 85 L 158 80 L 162 80 L 166 85 L 168 90 L 168 107 L 167 110 L 163 113 L 157 114 L 155 113 L 152 110 L 151 107 L 150 107 L 150 109 L 148 111 L 146 110 L 147 112 L 151 110 L 154 113 L 160 114 L 161 113 L 164 113 L 168 109 L 169 106 L 169 96 L 168 95 L 168 89 L 166 83 L 162 79 L 159 79 L 154 82 L 152 80 L 157 75 L 159 74 Z M 261 58 L 256 58 L 251 60 L 246 65 L 243 71 L 243 79 L 244 82 L 253 90 L 255 90 L 260 85 L 272 68 L 272 66 L 266 60 Z M 264 63 L 266 62 L 270 66 L 268 67 L 266 66 Z M 254 60 L 256 60 L 257 62 L 254 66 L 251 66 L 247 71 L 247 74 L 249 76 L 248 80 L 251 82 L 251 81 L 255 78 L 256 80 L 253 83 L 254 85 L 255 84 L 255 81 L 259 79 L 261 76 L 261 74 L 264 71 L 266 72 L 261 82 L 256 88 L 252 88 L 250 87 L 244 80 L 245 69 L 246 67 Z M 475 56 L 471 64 L 466 69 L 463 70 L 460 73 L 460 75 L 465 80 L 477 101 L 481 106 L 477 112 L 481 116 L 487 119 L 492 124 L 491 127 L 492 127 L 493 124 L 487 119 L 481 116 L 477 112 L 477 111 L 479 109 L 481 109 L 482 107 L 477 101 L 465 80 L 461 76 L 461 73 L 472 63 Z M 439 32 L 432 37 L 428 44 L 428 46 L 431 50 L 433 50 L 439 54 L 449 64 L 453 64 L 460 58 L 462 54 L 462 45 L 457 37 L 452 33 L 450 33 L 447 31 Z M 442 32 L 445 32 L 451 34 L 454 36 L 461 44 L 461 49 L 462 50 L 461 54 L 453 63 L 450 63 L 442 55 L 435 50 L 432 49 L 429 46 L 430 41 L 436 35 Z M 363 23 L 361 22 L 357 24 L 349 33 L 347 33 L 345 31 L 334 26 L 330 26 L 330 29 L 332 32 L 330 28 L 332 26 L 334 26 L 347 33 L 349 33 L 353 28 L 359 23 L 361 23 L 363 25 L 362 27 Z" fill="#D8D8D8" fill-rule="evenodd"/><path d="M 447 638 L 448 639 L 451 639 L 452 638 L 460 638 L 461 637 L 474 637 L 475 638 L 483 638 L 484 637 L 481 635 L 478 635 L 477 634 L 459 634 L 458 635 L 449 636 Z M 462 635 L 463 634 L 472 634 L 473 636 L 472 637 L 463 637 Z M 270 523 L 270 526 L 272 530 L 278 536 L 278 537 L 282 540 L 283 538 L 272 524 Z M 397 519 L 396 519 L 395 527 L 397 526 Z M 258 516 L 262 524 L 267 529 L 268 528 L 262 519 Z M 292 514 L 294 520 L 298 525 L 299 528 L 304 534 L 306 534 L 305 531 L 297 522 L 293 514 Z M 421 509 L 419 509 L 416 519 L 414 522 L 414 526 L 416 525 L 416 523 L 420 516 Z M 244 500 L 244 506 L 246 512 L 250 515 L 249 510 L 247 507 L 245 500 Z M 271 495 L 272 501 L 276 508 L 277 507 L 276 503 L 272 495 Z M 438 460 L 439 470 L 442 472 L 442 468 L 440 462 Z M 262 325 L 259 326 L 252 333 L 252 337 L 248 344 L 258 333 L 262 327 Z M 254 295 L 248 298 L 244 303 L 244 304 L 245 304 L 248 301 L 250 303 L 246 312 L 246 315 L 247 315 L 250 309 L 250 307 L 255 297 Z M 221 297 L 228 296 L 228 294 L 222 294 Z M 189 269 L 192 270 L 196 274 L 198 274 L 197 271 Z M 384 261 L 382 260 L 378 264 L 367 270 L 364 273 L 366 274 Z M 322 254 L 323 257 L 330 264 L 340 271 L 353 277 L 358 276 L 360 274 L 351 274 L 338 268 L 325 257 L 324 253 Z M 443 239 L 440 238 L 436 243 L 439 244 Z M 456 225 L 454 225 L 449 230 L 447 233 L 448 235 L 452 232 Z M 220 151 L 219 152 L 219 156 L 223 163 L 225 163 L 226 161 L 226 157 L 223 153 Z M 221 152 L 226 158 L 225 161 L 223 161 L 219 156 L 219 153 Z M 276 141 L 275 143 L 275 147 L 274 148 L 274 156 L 276 162 L 284 171 L 289 174 L 293 175 L 295 177 L 297 187 L 303 199 L 313 213 L 324 224 L 328 227 L 330 227 L 336 230 L 346 231 L 347 230 L 354 229 L 356 227 L 359 226 L 363 222 L 366 221 L 370 217 L 378 202 L 381 188 L 382 187 L 382 179 L 383 178 L 382 155 L 380 150 L 376 146 L 374 146 L 372 148 L 372 150 L 365 158 L 350 165 L 347 165 L 342 167 L 331 167 L 330 166 L 325 166 L 324 165 L 310 163 L 301 169 L 294 169 L 287 165 L 284 162 L 281 155 L 282 140 L 279 138 Z M 277 141 L 279 139 L 282 141 L 282 144 L 281 145 L 281 156 L 283 161 L 289 167 L 297 170 L 300 170 L 306 167 L 309 164 L 316 164 L 317 165 L 322 165 L 328 167 L 345 167 L 354 164 L 364 159 L 371 152 L 371 151 L 376 147 L 379 150 L 381 154 L 381 160 L 382 161 L 382 181 L 381 182 L 381 187 L 379 192 L 379 196 L 376 205 L 371 214 L 367 218 L 365 217 L 372 202 L 372 199 L 373 198 L 373 193 L 372 191 L 364 184 L 361 183 L 349 183 L 337 189 L 326 201 L 324 205 L 324 213 L 327 218 L 334 225 L 333 227 L 330 227 L 325 224 L 313 212 L 303 198 L 297 186 L 296 177 L 293 174 L 290 174 L 286 172 L 276 161 L 275 158 L 275 145 Z M 272 136 L 269 134 L 263 134 L 262 135 L 259 135 L 257 137 L 252 139 L 247 145 L 246 148 L 247 153 L 250 156 L 255 156 L 256 157 L 262 154 L 262 152 L 261 152 L 258 155 L 255 155 L 254 154 L 254 151 L 250 148 L 251 143 L 256 138 L 265 135 L 268 135 L 272 141 L 273 140 Z M 113 122 L 111 124 L 111 133 L 113 137 L 118 142 L 121 142 L 126 136 L 126 130 L 121 124 L 116 122 Z M 285 133 L 285 138 L 289 146 L 296 152 L 303 155 L 314 155 L 327 149 L 332 145 L 335 141 L 337 136 L 336 130 L 329 124 L 319 122 L 318 121 L 306 121 L 305 122 L 301 122 L 295 124 L 290 127 Z M 291 127 L 296 124 L 302 122 L 318 121 L 330 125 L 336 131 L 336 138 L 332 144 L 326 149 L 312 155 L 305 155 L 295 151 L 288 144 L 286 140 L 286 132 Z M 389 128 L 389 133 L 394 139 L 406 144 L 423 145 L 429 143 L 436 137 L 436 130 L 431 124 L 422 120 L 417 120 L 416 119 L 401 120 L 393 123 Z M 184 127 L 180 123 L 171 119 L 161 119 L 148 124 L 137 132 L 128 142 L 127 145 L 127 153 L 129 158 L 134 164 L 141 167 L 160 166 L 161 165 L 174 163 L 180 160 L 182 160 L 188 155 L 188 153 L 190 150 L 190 141 L 189 140 L 189 137 Z M 214 114 L 210 115 L 198 125 L 196 129 L 196 133 L 197 136 L 199 138 L 205 138 L 209 136 L 215 129 L 216 126 L 216 117 Z M 317 109 L 317 110 L 318 109 L 333 109 L 339 111 L 339 110 L 337 109 L 333 109 L 332 108 L 319 108 Z M 293 99 L 289 100 L 286 103 L 283 111 L 283 120 L 284 122 L 288 125 L 291 124 L 297 118 L 299 113 L 299 105 L 298 103 Z M 295 100 L 297 102 L 299 108 L 298 115 L 293 122 L 290 124 L 287 124 L 283 119 L 284 108 L 286 104 L 290 100 Z M 376 92 L 374 93 L 369 99 L 368 102 L 368 113 L 370 117 L 374 121 L 379 122 L 382 121 L 386 115 L 387 112 L 387 103 L 384 96 L 381 93 Z M 374 93 L 380 93 L 384 97 L 386 101 L 387 110 L 384 118 L 381 121 L 375 121 L 369 115 L 368 112 L 368 103 L 370 98 Z M 304 63 L 302 61 L 295 61 L 293 62 L 285 69 L 284 71 L 284 75 L 287 77 L 295 71 L 301 69 L 304 66 Z M 303 63 L 303 66 L 301 68 L 295 70 L 288 76 L 286 76 L 284 74 L 285 70 L 294 62 L 296 61 L 301 61 Z M 256 61 L 252 62 L 247 67 L 246 69 L 246 73 L 245 74 L 245 80 L 246 82 L 252 87 L 256 87 L 265 72 L 262 74 L 262 76 L 258 81 L 256 81 L 255 79 L 254 79 L 252 82 L 250 83 L 247 80 L 248 76 L 246 74 L 246 71 L 251 65 L 254 65 Z M 255 80 L 256 81 L 256 84 L 254 86 L 252 83 Z M 368 53 L 368 56 L 370 58 L 373 58 L 379 60 L 387 65 L 391 63 L 391 59 L 390 57 L 382 51 L 379 50 L 371 50 Z M 368 54 L 372 50 L 378 50 L 385 53 L 390 58 L 391 61 L 388 64 L 386 64 L 378 59 L 370 57 Z M 436 36 L 431 41 L 430 46 L 442 54 L 450 62 L 453 62 L 458 57 L 461 51 L 459 42 L 451 35 L 445 33 L 442 33 Z M 453 14 L 439 12 L 438 13 L 431 14 L 423 18 L 413 29 L 412 35 L 410 37 L 399 33 L 395 33 L 389 31 L 382 31 L 381 30 L 363 31 L 362 29 L 364 26 L 364 21 L 362 20 L 356 23 L 349 31 L 347 31 L 336 25 L 329 24 L 328 27 L 329 30 L 331 32 L 331 34 L 329 36 L 313 37 L 311 38 L 307 43 L 302 44 L 296 47 L 285 55 L 284 55 L 282 53 L 281 50 L 274 44 L 263 40 L 257 40 L 256 41 L 253 41 L 247 43 L 239 48 L 234 53 L 229 62 L 229 65 L 228 66 L 228 70 L 227 71 L 228 81 L 233 91 L 241 98 L 247 100 L 249 102 L 249 104 L 241 121 L 241 124 L 240 125 L 241 133 L 235 139 L 229 147 L 229 149 L 231 151 L 234 150 L 237 150 L 238 151 L 238 154 L 232 165 L 232 171 L 234 172 L 237 170 L 239 172 L 238 181 L 237 182 L 237 189 L 240 193 L 243 192 L 245 194 L 245 204 L 250 214 L 255 213 L 257 215 L 258 218 L 260 220 L 263 221 L 275 235 L 278 240 L 278 245 L 276 247 L 274 247 L 272 245 L 268 237 L 266 235 L 263 239 L 261 237 L 258 229 L 255 226 L 253 229 L 250 228 L 250 226 L 248 223 L 248 220 L 245 214 L 242 211 L 240 213 L 239 216 L 237 215 L 229 191 L 228 190 L 223 191 L 219 184 L 218 179 L 215 174 L 213 167 L 206 155 L 206 152 L 214 144 L 221 132 L 223 126 L 223 115 L 221 111 L 217 108 L 210 109 L 202 115 L 199 113 L 200 91 L 199 90 L 199 85 L 196 81 L 194 80 L 189 80 L 183 85 L 178 96 L 176 104 L 174 105 L 173 104 L 173 90 L 172 89 L 172 84 L 170 81 L 170 79 L 168 76 L 164 73 L 156 74 L 151 79 L 149 85 L 149 88 L 148 89 L 148 103 L 149 104 L 148 107 L 145 106 L 144 101 L 140 93 L 134 88 L 129 88 L 123 93 L 121 97 L 121 111 L 122 112 L 122 115 L 120 117 L 116 115 L 108 115 L 104 119 L 103 122 L 103 129 L 104 130 L 104 135 L 105 136 L 106 142 L 116 162 L 125 175 L 125 185 L 126 186 L 126 192 L 127 193 L 127 200 L 128 201 L 128 205 L 129 206 L 129 209 L 130 210 L 130 213 L 133 222 L 139 235 L 149 251 L 161 263 L 159 266 L 152 265 L 151 268 L 164 280 L 178 287 L 180 289 L 178 292 L 172 292 L 171 293 L 171 295 L 173 297 L 185 303 L 195 306 L 199 309 L 196 312 L 193 313 L 195 316 L 199 318 L 213 321 L 215 324 L 211 327 L 212 329 L 214 329 L 219 332 L 222 332 L 231 336 L 233 334 L 233 332 L 237 324 L 240 321 L 243 321 L 245 323 L 238 344 L 237 352 L 232 358 L 226 368 L 228 370 L 232 369 L 234 372 L 229 377 L 218 392 L 219 394 L 226 393 L 228 395 L 220 407 L 214 420 L 214 425 L 217 425 L 220 423 L 222 425 L 218 435 L 218 438 L 216 443 L 216 447 L 215 448 L 215 455 L 216 456 L 219 453 L 221 454 L 221 460 L 220 461 L 220 477 L 222 478 L 225 476 L 227 478 L 227 484 L 234 501 L 233 503 L 231 503 L 229 501 L 227 502 L 227 505 L 224 511 L 224 513 L 220 519 L 220 523 L 224 522 L 226 524 L 219 538 L 219 541 L 220 542 L 225 541 L 226 544 L 224 547 L 223 553 L 221 557 L 221 560 L 219 565 L 219 570 L 222 570 L 224 568 L 226 570 L 226 573 L 224 578 L 224 584 L 227 587 L 227 595 L 229 598 L 229 604 L 230 605 L 230 609 L 232 614 L 232 618 L 236 626 L 232 629 L 224 629 L 223 630 L 219 630 L 213 632 L 208 635 L 203 640 L 200 646 L 198 659 L 200 665 L 205 669 L 208 668 L 207 665 L 208 656 L 210 652 L 214 648 L 216 648 L 218 650 L 215 659 L 215 670 L 218 672 L 221 672 L 222 673 L 229 673 L 230 674 L 232 673 L 231 664 L 234 656 L 238 652 L 240 652 L 242 654 L 240 660 L 240 667 L 239 668 L 239 671 L 241 675 L 274 675 L 275 674 L 282 674 L 283 673 L 292 673 L 293 672 L 298 672 L 299 671 L 305 671 L 306 670 L 314 669 L 319 667 L 323 664 L 325 661 L 326 654 L 327 653 L 327 642 L 326 641 L 325 631 L 327 629 L 329 631 L 331 631 L 332 629 L 332 607 L 331 606 L 331 599 L 333 597 L 335 599 L 337 598 L 337 586 L 339 582 L 340 573 L 318 566 L 310 560 L 312 557 L 316 557 L 317 558 L 320 558 L 332 562 L 336 562 L 342 564 L 348 564 L 349 565 L 355 565 L 356 566 L 365 566 L 366 565 L 378 564 L 379 563 L 383 563 L 385 565 L 385 568 L 383 570 L 379 571 L 378 572 L 378 575 L 380 577 L 380 579 L 382 582 L 383 590 L 385 596 L 386 597 L 388 596 L 390 597 L 390 600 L 389 601 L 389 612 L 393 615 L 393 630 L 394 633 L 396 633 L 398 631 L 400 633 L 400 648 L 398 654 L 398 668 L 400 672 L 404 676 L 410 679 L 416 680 L 420 682 L 438 684 L 439 683 L 438 666 L 441 662 L 444 662 L 446 664 L 446 667 L 447 668 L 447 683 L 448 684 L 469 684 L 471 681 L 471 675 L 470 674 L 469 663 L 473 660 L 477 663 L 479 668 L 479 682 L 480 683 L 493 682 L 497 679 L 496 660 L 498 658 L 504 663 L 505 670 L 506 671 L 506 675 L 505 676 L 506 679 L 512 677 L 517 672 L 518 669 L 518 658 L 515 650 L 508 643 L 501 640 L 498 637 L 502 629 L 503 619 L 504 618 L 504 611 L 505 610 L 505 589 L 504 588 L 504 585 L 507 582 L 507 580 L 503 572 L 505 570 L 509 573 L 511 572 L 508 563 L 506 560 L 506 558 L 504 555 L 504 553 L 499 545 L 501 543 L 508 547 L 509 546 L 508 540 L 501 525 L 503 522 L 505 523 L 507 522 L 506 515 L 505 514 L 505 510 L 504 509 L 504 504 L 503 503 L 503 497 L 495 494 L 487 486 L 483 478 L 483 475 L 482 474 L 482 457 L 483 456 L 483 453 L 485 447 L 487 444 L 487 435 L 485 430 L 485 426 L 484 425 L 484 421 L 483 420 L 483 416 L 482 415 L 479 400 L 473 382 L 457 350 L 457 346 L 459 344 L 463 348 L 472 362 L 480 378 L 480 380 L 484 388 L 487 397 L 487 400 L 489 404 L 489 407 L 490 408 L 490 411 L 493 420 L 495 434 L 497 439 L 497 442 L 493 451 L 493 454 L 491 459 L 491 471 L 492 472 L 492 475 L 494 479 L 499 484 L 501 485 L 506 485 L 510 481 L 514 471 L 516 469 L 519 471 L 518 482 L 515 489 L 512 492 L 512 496 L 516 501 L 523 504 L 528 504 L 534 500 L 538 494 L 538 492 L 541 486 L 544 485 L 545 486 L 545 494 L 540 504 L 542 506 L 550 506 L 556 503 L 560 498 L 564 486 L 567 483 L 569 485 L 569 492 L 567 498 L 568 499 L 571 497 L 577 491 L 579 486 L 581 484 L 581 482 L 584 476 L 585 468 L 586 467 L 586 462 L 587 461 L 587 447 L 586 446 L 585 438 L 589 435 L 589 432 L 586 425 L 586 422 L 583 415 L 583 412 L 579 404 L 581 402 L 584 403 L 583 397 L 573 381 L 570 378 L 572 376 L 573 377 L 577 377 L 578 376 L 563 355 L 559 351 L 560 349 L 568 350 L 569 348 L 541 322 L 543 320 L 550 320 L 551 318 L 547 314 L 535 305 L 528 301 L 525 298 L 526 296 L 531 296 L 532 293 L 518 286 L 513 282 L 515 280 L 520 280 L 521 277 L 502 264 L 494 260 L 495 258 L 499 258 L 502 256 L 500 254 L 488 248 L 486 248 L 477 244 L 476 241 L 478 240 L 479 238 L 473 236 L 472 235 L 473 230 L 468 229 L 466 227 L 471 221 L 472 218 L 477 211 L 477 209 L 480 203 L 480 196 L 482 194 L 486 196 L 488 193 L 488 178 L 487 177 L 487 174 L 488 173 L 490 173 L 492 175 L 495 174 L 495 168 L 490 157 L 488 155 L 488 152 L 489 151 L 496 152 L 497 151 L 497 147 L 491 138 L 483 130 L 484 128 L 494 128 L 495 127 L 495 124 L 479 112 L 481 110 L 483 110 L 484 108 L 476 97 L 470 85 L 463 76 L 463 73 L 472 65 L 476 58 L 477 52 L 478 51 L 478 42 L 477 41 L 477 38 L 472 28 L 464 20 Z M 122 103 L 124 104 L 124 108 L 123 109 L 121 108 L 121 104 Z M 452 14 L 463 20 L 475 33 L 477 39 L 477 42 L 478 43 L 477 54 L 473 63 L 462 73 L 462 76 L 466 80 L 478 101 L 483 107 L 483 108 L 481 110 L 479 110 L 478 112 L 494 124 L 494 126 L 492 128 L 490 127 L 483 127 L 482 130 L 491 139 L 497 148 L 496 151 L 492 151 L 491 150 L 487 150 L 486 151 L 492 162 L 495 173 L 492 174 L 488 171 L 486 172 L 487 181 L 488 182 L 487 184 L 487 192 L 485 194 L 480 193 L 480 201 L 479 202 L 479 205 L 476 210 L 476 212 L 464 228 L 467 230 L 470 230 L 471 232 L 469 233 L 470 236 L 474 236 L 477 238 L 476 240 L 473 240 L 472 241 L 474 243 L 482 247 L 487 248 L 491 251 L 497 253 L 499 255 L 498 257 L 492 257 L 492 259 L 494 261 L 506 267 L 520 277 L 519 280 L 511 280 L 510 281 L 517 286 L 531 293 L 530 296 L 524 296 L 523 298 L 537 307 L 550 318 L 548 320 L 544 320 L 543 319 L 539 319 L 538 320 L 551 331 L 567 347 L 566 349 L 562 349 L 558 347 L 556 348 L 567 361 L 569 365 L 577 375 L 575 377 L 570 375 L 569 377 L 579 391 L 584 400 L 583 402 L 581 402 L 579 400 L 578 403 L 582 410 L 583 416 L 588 430 L 588 433 L 584 435 L 585 437 L 585 441 L 586 442 L 586 449 L 587 450 L 585 471 L 581 483 L 577 490 L 570 497 L 568 495 L 569 493 L 569 483 L 566 482 L 564 485 L 562 493 L 558 500 L 555 503 L 551 505 L 543 506 L 541 503 L 545 494 L 545 485 L 542 484 L 539 489 L 539 491 L 532 501 L 529 503 L 521 503 L 517 501 L 513 497 L 512 493 L 515 490 L 519 480 L 519 476 L 520 475 L 519 470 L 516 468 L 514 470 L 510 480 L 504 485 L 500 484 L 497 482 L 493 476 L 492 470 L 491 469 L 491 462 L 492 461 L 493 452 L 497 443 L 497 438 L 496 437 L 496 433 L 495 432 L 495 428 L 494 427 L 494 423 L 492 418 L 492 414 L 491 413 L 489 402 L 486 395 L 485 389 L 474 364 L 463 347 L 460 344 L 457 344 L 456 345 L 457 352 L 466 368 L 466 370 L 471 379 L 474 389 L 476 392 L 476 395 L 478 399 L 479 407 L 480 408 L 480 411 L 483 420 L 485 434 L 486 435 L 486 444 L 481 459 L 481 472 L 482 473 L 482 477 L 487 487 L 494 494 L 500 496 L 503 500 L 503 506 L 504 507 L 504 512 L 505 513 L 506 520 L 505 521 L 500 521 L 500 523 L 507 539 L 508 544 L 505 545 L 501 542 L 497 542 L 497 543 L 500 547 L 506 559 L 507 564 L 509 567 L 509 570 L 507 571 L 504 569 L 501 569 L 506 579 L 503 583 L 504 585 L 504 591 L 505 592 L 505 604 L 504 605 L 504 617 L 503 618 L 502 627 L 501 628 L 501 631 L 497 635 L 497 637 L 499 639 L 506 642 L 510 645 L 515 651 L 517 656 L 517 660 L 518 661 L 518 667 L 517 670 L 510 678 L 508 678 L 506 676 L 506 669 L 505 668 L 504 662 L 499 657 L 497 657 L 495 659 L 496 668 L 497 669 L 497 678 L 494 681 L 491 682 L 481 683 L 479 681 L 480 678 L 480 670 L 479 669 L 479 666 L 475 660 L 471 660 L 469 662 L 470 682 L 468 684 L 449 684 L 447 682 L 447 665 L 444 661 L 441 661 L 438 665 L 438 682 L 437 683 L 428 683 L 427 682 L 417 681 L 405 676 L 400 671 L 398 666 L 398 657 L 399 656 L 399 651 L 401 646 L 401 635 L 400 634 L 400 631 L 399 630 L 396 632 L 394 631 L 394 627 L 393 626 L 394 611 L 391 611 L 390 610 L 390 594 L 387 595 L 385 594 L 383 588 L 383 583 L 379 575 L 379 572 L 384 570 L 386 567 L 386 565 L 384 563 L 381 562 L 375 564 L 366 564 L 365 565 L 344 564 L 339 562 L 334 562 L 333 561 L 326 560 L 315 556 L 311 556 L 309 558 L 309 560 L 312 563 L 322 568 L 334 572 L 337 572 L 340 575 L 337 584 L 337 596 L 335 598 L 332 595 L 330 596 L 332 620 L 331 621 L 331 628 L 328 629 L 326 627 L 324 629 L 324 633 L 326 638 L 326 657 L 324 661 L 319 666 L 317 666 L 311 669 L 307 669 L 306 670 L 294 671 L 293 672 L 288 672 L 287 673 L 269 674 L 268 675 L 243 675 L 240 672 L 240 661 L 242 657 L 242 653 L 241 652 L 237 652 L 234 655 L 231 662 L 231 671 L 229 673 L 225 673 L 224 672 L 220 672 L 215 668 L 215 661 L 219 650 L 217 647 L 215 647 L 210 651 L 207 659 L 207 666 L 204 668 L 199 662 L 199 651 L 203 640 L 210 634 L 217 631 L 225 630 L 226 629 L 241 629 L 242 630 L 247 630 L 248 631 L 255 632 L 255 630 L 245 626 L 238 626 L 234 622 L 232 616 L 232 613 L 231 612 L 231 609 L 230 608 L 229 597 L 227 593 L 227 584 L 224 582 L 227 568 L 226 567 L 222 569 L 219 568 L 221 558 L 224 551 L 224 548 L 227 543 L 227 540 L 224 540 L 223 541 L 220 540 L 220 537 L 227 522 L 226 521 L 222 522 L 220 520 L 225 512 L 227 505 L 228 504 L 231 504 L 232 505 L 234 504 L 234 499 L 228 486 L 227 475 L 226 474 L 224 474 L 223 476 L 220 475 L 220 464 L 221 463 L 222 451 L 220 451 L 217 454 L 215 452 L 217 440 L 223 423 L 222 422 L 220 422 L 217 424 L 214 423 L 215 418 L 220 408 L 229 394 L 228 392 L 225 392 L 221 394 L 219 391 L 235 371 L 234 368 L 229 369 L 227 367 L 237 353 L 240 338 L 244 329 L 245 321 L 244 320 L 239 320 L 237 322 L 233 332 L 230 335 L 221 331 L 216 330 L 213 327 L 217 324 L 215 321 L 199 317 L 195 314 L 200 310 L 199 307 L 195 305 L 189 304 L 181 300 L 179 300 L 172 295 L 174 292 L 181 292 L 182 289 L 180 287 L 172 283 L 170 283 L 164 279 L 152 268 L 153 266 L 161 266 L 162 263 L 149 250 L 135 226 L 135 224 L 133 221 L 130 212 L 129 204 L 127 199 L 127 193 L 126 192 L 126 186 L 125 185 L 125 175 L 117 163 L 106 141 L 104 135 L 104 130 L 103 129 L 103 123 L 105 118 L 109 115 L 116 115 L 120 118 L 123 116 L 125 116 L 131 123 L 135 123 L 138 122 L 141 118 L 141 110 L 136 98 L 132 94 L 130 94 L 125 98 L 123 102 L 121 101 L 121 98 L 124 92 L 127 89 L 130 88 L 135 89 L 141 95 L 147 110 L 148 110 L 149 107 L 151 106 L 153 110 L 157 113 L 160 113 L 165 111 L 167 107 L 167 90 L 165 85 L 162 81 L 158 81 L 152 86 L 150 85 L 151 80 L 153 77 L 159 73 L 163 73 L 165 74 L 171 82 L 172 89 L 173 90 L 173 108 L 177 108 L 182 115 L 187 117 L 189 116 L 193 111 L 193 107 L 194 106 L 194 93 L 193 92 L 193 89 L 191 87 L 187 87 L 185 84 L 189 80 L 194 80 L 199 85 L 199 92 L 200 93 L 199 96 L 199 115 L 202 116 L 209 110 L 213 108 L 217 108 L 221 112 L 223 116 L 223 124 L 220 133 L 218 135 L 216 140 L 205 153 L 213 168 L 215 175 L 218 180 L 219 185 L 224 193 L 227 191 L 229 192 L 233 201 L 233 204 L 237 216 L 240 217 L 240 215 L 243 213 L 247 218 L 250 229 L 252 231 L 256 228 L 258 230 L 260 236 L 263 241 L 265 238 L 267 237 L 272 246 L 274 248 L 277 248 L 278 247 L 278 239 L 272 230 L 264 221 L 261 220 L 258 217 L 257 213 L 255 210 L 251 214 L 247 209 L 245 203 L 245 191 L 243 190 L 240 192 L 237 188 L 238 185 L 238 177 L 239 176 L 240 170 L 238 169 L 234 171 L 232 169 L 233 164 L 239 153 L 239 150 L 238 149 L 232 150 L 230 148 L 230 146 L 242 133 L 241 130 L 241 122 L 249 105 L 249 101 L 248 100 L 246 100 L 240 97 L 233 90 L 228 80 L 229 63 L 234 54 L 241 47 L 248 43 L 254 41 L 266 41 L 276 46 L 284 55 L 286 55 L 295 48 L 303 44 L 308 43 L 312 38 L 315 37 L 330 37 L 332 35 L 332 33 L 329 29 L 329 26 L 330 25 L 337 26 L 345 30 L 347 32 L 349 32 L 357 23 L 361 21 L 364 23 L 364 25 L 362 28 L 362 31 L 363 32 L 367 32 L 368 31 L 385 31 L 386 32 L 391 32 L 392 33 L 401 34 L 408 37 L 411 37 L 412 36 L 412 33 L 416 26 L 424 18 L 432 14 L 435 14 L 439 12 Z M 458 6 L 452 5 L 451 4 L 445 4 L 444 3 L 432 4 L 426 6 L 423 8 L 421 8 L 413 14 L 404 25 L 396 24 L 395 23 L 389 23 L 388 22 L 374 22 L 368 14 L 363 12 L 355 14 L 348 20 L 344 20 L 336 16 L 327 16 L 322 20 L 321 22 L 321 27 L 319 29 L 309 30 L 295 37 L 288 42 L 286 42 L 278 35 L 267 31 L 255 31 L 254 32 L 251 32 L 242 35 L 235 39 L 225 49 L 220 58 L 218 64 L 218 67 L 217 68 L 217 78 L 218 79 L 218 83 L 221 89 L 221 91 L 226 98 L 237 108 L 235 112 L 233 112 L 231 110 L 231 108 L 225 101 L 220 99 L 212 99 L 210 97 L 210 90 L 209 89 L 208 81 L 200 72 L 196 70 L 189 70 L 179 75 L 170 65 L 165 63 L 160 63 L 149 67 L 143 73 L 140 80 L 137 80 L 136 79 L 127 79 L 119 83 L 115 87 L 111 95 L 111 103 L 109 105 L 106 105 L 102 107 L 97 112 L 94 119 L 94 133 L 95 134 L 96 142 L 99 148 L 99 150 L 104 159 L 104 161 L 115 178 L 115 192 L 116 193 L 116 199 L 117 200 L 117 204 L 118 205 L 118 209 L 119 210 L 120 217 L 124 226 L 124 228 L 126 231 L 126 233 L 128 235 L 128 237 L 130 239 L 136 250 L 143 258 L 141 263 L 141 267 L 143 272 L 154 284 L 161 289 L 161 297 L 162 299 L 170 306 L 178 310 L 180 310 L 183 313 L 184 319 L 186 321 L 193 325 L 198 326 L 200 328 L 201 331 L 205 335 L 219 342 L 224 343 L 228 346 L 227 350 L 225 352 L 218 367 L 219 377 L 213 384 L 210 390 L 209 395 L 210 398 L 213 401 L 213 403 L 210 407 L 210 409 L 207 414 L 205 420 L 205 430 L 209 435 L 208 442 L 207 443 L 207 447 L 206 448 L 206 457 L 207 458 L 207 461 L 210 465 L 210 473 L 211 474 L 212 481 L 214 485 L 220 492 L 220 495 L 218 498 L 215 509 L 213 512 L 210 521 L 211 526 L 213 528 L 213 530 L 210 536 L 210 546 L 213 549 L 213 552 L 212 553 L 212 556 L 210 559 L 210 565 L 209 568 L 211 574 L 215 577 L 215 588 L 216 589 L 216 593 L 218 599 L 218 605 L 220 610 L 221 618 L 218 621 L 211 622 L 198 630 L 193 636 L 188 647 L 188 654 L 187 655 L 188 663 L 191 669 L 196 674 L 201 677 L 207 679 L 210 679 L 211 680 L 214 680 L 215 681 L 226 682 L 227 683 L 234 683 L 235 684 L 274 684 L 275 683 L 284 683 L 285 682 L 292 682 L 293 681 L 305 680 L 310 678 L 318 677 L 327 673 L 334 666 L 337 659 L 337 651 L 338 650 L 337 648 L 337 639 L 342 631 L 342 627 L 343 626 L 343 606 L 347 602 L 348 599 L 348 591 L 349 590 L 349 585 L 350 584 L 350 577 L 352 575 L 355 575 L 356 576 L 368 576 L 370 578 L 376 601 L 378 605 L 381 608 L 383 628 L 386 636 L 390 641 L 390 647 L 388 653 L 388 669 L 391 676 L 394 680 L 399 684 L 407 688 L 410 688 L 414 690 L 422 691 L 423 692 L 428 692 L 429 693 L 438 693 L 439 694 L 476 694 L 477 693 L 487 693 L 488 692 L 499 691 L 500 690 L 503 690 L 504 689 L 507 689 L 513 687 L 520 683 L 527 675 L 529 669 L 529 655 L 527 649 L 521 640 L 512 633 L 512 630 L 514 625 L 514 619 L 515 618 L 515 608 L 516 607 L 516 586 L 515 584 L 520 579 L 521 576 L 520 568 L 518 562 L 515 557 L 519 551 L 519 543 L 517 537 L 514 532 L 517 527 L 517 519 L 515 515 L 517 513 L 519 513 L 523 515 L 532 515 L 534 514 L 540 517 L 550 517 L 551 516 L 554 516 L 567 510 L 569 510 L 571 508 L 574 507 L 587 495 L 593 484 L 595 478 L 595 475 L 596 474 L 596 471 L 597 470 L 597 466 L 598 465 L 598 449 L 597 448 L 597 443 L 599 440 L 599 430 L 598 429 L 596 419 L 593 413 L 593 411 L 595 408 L 595 401 L 589 388 L 587 386 L 588 376 L 584 368 L 576 358 L 579 354 L 579 348 L 574 340 L 559 326 L 561 322 L 561 317 L 554 308 L 541 298 L 542 290 L 539 286 L 532 282 L 529 279 L 529 274 L 522 267 L 515 262 L 515 255 L 506 247 L 493 241 L 491 239 L 491 234 L 490 232 L 482 223 L 483 220 L 487 215 L 490 206 L 495 201 L 497 197 L 498 186 L 502 182 L 504 178 L 505 169 L 502 161 L 505 158 L 507 154 L 507 148 L 503 139 L 500 136 L 500 134 L 504 129 L 504 123 L 502 119 L 492 110 L 492 105 L 488 97 L 483 90 L 481 85 L 475 77 L 477 73 L 482 68 L 487 58 L 487 55 L 488 54 L 488 40 L 487 39 L 486 33 L 480 22 L 471 13 Z M 459 7 L 467 11 L 475 17 L 481 24 L 486 34 L 487 42 L 488 43 L 488 52 L 487 53 L 486 60 L 482 67 L 475 75 L 475 78 L 481 86 L 483 91 L 489 100 L 492 106 L 492 111 L 502 120 L 504 124 L 504 129 L 499 135 L 505 143 L 506 149 L 507 150 L 506 155 L 502 160 L 502 163 L 504 166 L 504 177 L 502 181 L 497 187 L 497 195 L 496 198 L 490 205 L 487 214 L 482 221 L 482 224 L 489 232 L 490 234 L 490 239 L 492 241 L 508 249 L 515 256 L 514 262 L 524 269 L 529 275 L 529 280 L 537 285 L 541 289 L 542 294 L 540 298 L 552 307 L 558 313 L 561 318 L 561 321 L 559 324 L 559 327 L 562 329 L 578 346 L 579 348 L 579 353 L 576 357 L 576 359 L 583 367 L 588 377 L 588 380 L 586 383 L 586 385 L 591 392 L 592 396 L 594 399 L 595 406 L 592 412 L 594 415 L 597 424 L 598 434 L 599 435 L 598 441 L 597 442 L 598 461 L 597 462 L 597 468 L 596 469 L 595 477 L 589 491 L 580 502 L 570 509 L 568 509 L 563 512 L 548 517 L 538 516 L 535 514 L 524 515 L 518 512 L 514 512 L 516 517 L 516 522 L 517 523 L 516 528 L 514 530 L 514 533 L 518 541 L 518 545 L 519 546 L 519 549 L 515 554 L 515 558 L 518 563 L 520 569 L 520 578 L 515 583 L 515 612 L 514 613 L 514 620 L 513 621 L 513 626 L 512 627 L 512 631 L 511 633 L 517 637 L 522 642 L 528 653 L 528 657 L 529 658 L 529 667 L 528 668 L 528 671 L 525 677 L 519 683 L 512 687 L 509 687 L 505 689 L 501 689 L 497 691 L 482 692 L 481 693 L 460 693 L 459 694 L 434 693 L 433 692 L 426 692 L 425 691 L 420 691 L 419 690 L 412 689 L 400 684 L 392 677 L 388 668 L 388 656 L 389 655 L 389 650 L 390 649 L 391 642 L 387 637 L 384 630 L 383 621 L 382 620 L 382 609 L 378 604 L 377 600 L 375 597 L 372 583 L 371 582 L 371 579 L 368 575 L 352 575 L 350 577 L 350 582 L 349 583 L 349 588 L 348 589 L 348 599 L 346 603 L 342 607 L 342 629 L 339 636 L 337 638 L 337 657 L 334 665 L 326 673 L 320 676 L 317 676 L 308 679 L 298 680 L 297 681 L 281 682 L 280 683 L 265 683 L 264 684 L 230 683 L 229 682 L 222 682 L 221 681 L 212 680 L 211 679 L 208 679 L 202 677 L 197 674 L 191 668 L 188 661 L 188 649 L 193 637 L 198 631 L 210 623 L 220 621 L 221 620 L 221 613 L 219 608 L 217 592 L 215 586 L 215 576 L 211 573 L 209 567 L 210 565 L 210 560 L 213 553 L 213 548 L 210 545 L 210 536 L 214 529 L 211 525 L 211 519 L 220 496 L 220 491 L 216 487 L 212 480 L 211 473 L 210 472 L 210 465 L 206 457 L 206 448 L 207 447 L 207 443 L 209 438 L 209 434 L 205 429 L 205 420 L 207 414 L 211 406 L 213 404 L 213 400 L 210 397 L 210 391 L 211 388 L 220 376 L 218 370 L 219 365 L 221 362 L 221 360 L 227 351 L 228 345 L 225 343 L 220 342 L 207 336 L 202 332 L 201 328 L 199 326 L 191 324 L 184 318 L 183 312 L 181 310 L 179 310 L 169 305 L 162 298 L 161 296 L 161 292 L 162 291 L 161 288 L 156 285 L 144 273 L 142 269 L 142 261 L 143 260 L 143 257 L 138 252 L 129 238 L 120 216 L 120 213 L 118 208 L 118 204 L 117 203 L 117 199 L 116 198 L 116 188 L 115 187 L 116 179 L 104 160 L 103 156 L 97 144 L 97 141 L 95 137 L 95 132 L 94 131 L 94 121 L 95 120 L 95 117 L 97 113 L 103 107 L 112 104 L 112 100 L 111 99 L 112 97 L 112 93 L 114 89 L 122 81 L 127 79 L 134 79 L 140 81 L 143 74 L 148 68 L 160 63 L 164 63 L 169 65 L 175 70 L 178 75 L 181 75 L 183 73 L 190 70 L 198 71 L 205 77 L 208 82 L 209 89 L 210 90 L 210 98 L 211 99 L 220 99 L 223 101 L 225 101 L 230 107 L 232 113 L 234 114 L 236 112 L 238 107 L 233 104 L 222 92 L 218 81 L 217 70 L 218 69 L 219 61 L 225 50 L 236 39 L 239 38 L 241 36 L 243 36 L 249 33 L 256 32 L 257 31 L 263 31 L 264 32 L 272 33 L 278 36 L 284 41 L 289 42 L 296 37 L 308 31 L 315 30 L 316 29 L 320 29 L 321 28 L 321 23 L 322 21 L 328 16 L 334 16 L 340 18 L 345 21 L 348 21 L 356 14 L 359 13 L 366 13 L 370 16 L 373 22 L 385 22 L 386 23 L 393 23 L 394 24 L 405 25 L 408 22 L 410 18 L 416 12 L 427 6 L 433 5 L 434 4 L 449 4 L 450 5 L 453 5 Z" fill="#B1B1B1" fill-rule="evenodd"/><path d="M 463 635 L 463 636 L 472 636 L 472 635 Z M 278 141 L 276 145 L 276 158 L 277 159 L 277 161 L 286 171 L 290 173 L 293 173 L 297 177 L 297 182 L 298 183 L 298 186 L 304 198 L 306 200 L 310 207 L 314 211 L 314 212 L 325 223 L 330 226 L 333 226 L 333 225 L 326 218 L 323 213 L 323 205 L 325 201 L 327 199 L 327 198 L 337 188 L 349 182 L 361 182 L 362 183 L 364 183 L 373 191 L 374 193 L 374 198 L 373 199 L 373 202 L 366 217 L 367 217 L 370 214 L 375 205 L 375 203 L 378 196 L 378 192 L 379 191 L 379 188 L 380 187 L 380 182 L 381 181 L 381 161 L 380 160 L 380 154 L 378 150 L 376 148 L 375 148 L 364 160 L 354 165 L 352 165 L 345 168 L 328 168 L 327 167 L 317 166 L 316 165 L 309 165 L 306 168 L 300 171 L 297 171 L 296 170 L 293 170 L 289 168 L 282 161 L 281 157 L 280 156 L 280 145 L 281 144 L 281 141 L 280 140 Z M 291 128 L 287 132 L 287 140 L 289 144 L 295 150 L 301 153 L 304 153 L 305 154 L 312 154 L 326 148 L 331 144 L 331 143 L 335 138 L 335 131 L 330 126 L 326 125 L 325 124 L 322 124 L 318 122 L 308 122 L 307 123 L 302 123 L 301 124 L 296 125 Z M 295 101 L 290 101 L 287 104 L 285 108 L 285 111 L 284 112 L 284 119 L 287 123 L 290 123 L 292 121 L 293 121 L 297 115 L 298 108 L 297 107 L 297 104 Z M 374 94 L 371 98 L 370 102 L 369 103 L 369 112 L 370 113 L 370 115 L 375 120 L 381 120 L 383 118 L 385 114 L 385 111 L 386 110 L 385 101 L 383 97 L 380 94 Z M 302 63 L 301 62 L 296 62 L 294 63 L 286 70 L 285 74 L 286 75 L 288 75 L 295 69 L 297 69 L 302 66 Z M 369 54 L 370 56 L 378 58 L 384 61 L 386 63 L 388 63 L 390 61 L 389 58 L 385 54 L 381 52 L 379 52 L 378 51 L 372 51 Z M 459 8 L 457 8 L 453 6 L 450 6 L 449 5 L 434 5 L 433 6 L 430 6 L 416 13 L 411 18 L 409 22 L 405 26 L 400 26 L 399 25 L 394 25 L 393 24 L 386 24 L 385 23 L 373 23 L 371 21 L 369 16 L 366 14 L 359 14 L 358 15 L 356 15 L 348 22 L 345 22 L 340 19 L 338 19 L 334 17 L 328 17 L 323 21 L 322 23 L 322 28 L 320 30 L 316 30 L 315 31 L 311 31 L 310 32 L 308 32 L 296 38 L 289 43 L 286 43 L 284 42 L 281 39 L 272 34 L 270 34 L 269 33 L 264 33 L 263 32 L 257 32 L 256 33 L 249 34 L 243 37 L 241 37 L 239 39 L 236 40 L 226 50 L 220 61 L 219 69 L 218 70 L 219 81 L 220 82 L 220 85 L 223 92 L 233 103 L 234 103 L 239 107 L 237 112 L 234 115 L 233 115 L 231 113 L 231 111 L 229 107 L 225 102 L 223 102 L 220 100 L 211 100 L 209 98 L 209 90 L 208 89 L 208 85 L 207 84 L 206 80 L 201 74 L 200 74 L 198 72 L 190 71 L 183 74 L 181 76 L 178 76 L 172 68 L 167 65 L 165 65 L 164 64 L 160 64 L 159 65 L 156 65 L 148 69 L 144 74 L 142 78 L 142 80 L 140 82 L 138 82 L 134 80 L 127 80 L 126 81 L 122 82 L 115 89 L 113 93 L 113 97 L 112 98 L 113 100 L 113 104 L 111 106 L 107 106 L 103 108 L 98 113 L 96 117 L 96 120 L 95 121 L 95 131 L 96 132 L 96 137 L 98 141 L 98 144 L 104 156 L 105 160 L 107 162 L 109 167 L 111 169 L 117 179 L 117 184 L 116 185 L 116 187 L 117 188 L 117 198 L 118 199 L 118 203 L 119 204 L 119 208 L 120 209 L 121 216 L 122 217 L 124 225 L 127 230 L 127 232 L 130 238 L 132 240 L 133 243 L 135 245 L 139 252 L 144 257 L 144 260 L 143 261 L 143 269 L 145 273 L 156 284 L 157 284 L 162 288 L 163 290 L 162 292 L 162 296 L 163 298 L 169 304 L 179 309 L 181 309 L 184 312 L 185 318 L 188 321 L 189 321 L 191 323 L 199 325 L 202 328 L 203 332 L 207 335 L 215 339 L 217 339 L 220 341 L 225 342 L 229 345 L 228 351 L 226 353 L 220 365 L 220 368 L 219 370 L 220 371 L 221 376 L 216 382 L 216 383 L 212 388 L 212 390 L 211 391 L 211 397 L 214 400 L 214 404 L 212 406 L 206 420 L 206 429 L 210 434 L 210 438 L 209 439 L 208 447 L 207 448 L 207 457 L 211 465 L 211 472 L 212 473 L 212 477 L 213 478 L 213 480 L 217 487 L 221 491 L 221 496 L 220 497 L 218 505 L 216 508 L 216 510 L 214 513 L 214 515 L 212 519 L 212 525 L 215 528 L 215 529 L 211 536 L 211 545 L 214 548 L 214 553 L 211 560 L 211 565 L 210 567 L 211 568 L 211 571 L 212 573 L 216 576 L 216 586 L 217 587 L 217 591 L 218 592 L 218 597 L 219 598 L 220 608 L 221 609 L 221 612 L 222 613 L 222 620 L 220 622 L 217 622 L 216 623 L 210 624 L 202 629 L 197 633 L 191 643 L 191 645 L 189 649 L 189 661 L 192 668 L 197 673 L 202 676 L 204 676 L 208 678 L 211 678 L 212 679 L 216 679 L 217 680 L 221 680 L 222 681 L 229 681 L 230 682 L 242 682 L 243 683 L 264 683 L 265 682 L 280 682 L 281 681 L 297 680 L 298 679 L 308 678 L 309 677 L 320 675 L 326 672 L 333 665 L 335 658 L 336 657 L 336 638 L 338 636 L 341 629 L 341 607 L 345 603 L 347 599 L 347 589 L 348 588 L 349 577 L 352 574 L 368 574 L 372 579 L 372 582 L 373 583 L 373 586 L 374 587 L 374 590 L 375 591 L 376 597 L 378 600 L 379 604 L 383 609 L 383 620 L 384 621 L 384 626 L 385 627 L 385 630 L 388 637 L 392 642 L 392 645 L 391 646 L 391 649 L 390 650 L 390 655 L 389 656 L 389 668 L 393 677 L 400 683 L 412 688 L 415 688 L 416 689 L 419 689 L 420 690 L 425 690 L 426 691 L 433 691 L 434 692 L 449 692 L 450 693 L 459 693 L 460 692 L 481 692 L 482 691 L 497 690 L 501 688 L 505 688 L 509 686 L 512 686 L 519 682 L 524 677 L 527 671 L 527 668 L 528 667 L 528 658 L 527 657 L 527 653 L 521 642 L 517 638 L 516 638 L 510 633 L 511 631 L 511 627 L 512 626 L 512 621 L 513 620 L 513 613 L 514 612 L 514 583 L 519 578 L 519 569 L 518 568 L 517 563 L 514 558 L 514 554 L 517 551 L 518 549 L 518 546 L 517 545 L 517 541 L 513 533 L 513 530 L 515 528 L 515 526 L 516 525 L 516 523 L 515 522 L 515 517 L 514 516 L 513 512 L 514 511 L 518 511 L 524 514 L 535 513 L 538 515 L 548 516 L 549 515 L 552 515 L 553 514 L 558 513 L 568 508 L 570 508 L 579 501 L 580 501 L 588 491 L 594 477 L 595 469 L 596 468 L 596 462 L 597 461 L 596 442 L 597 441 L 598 435 L 597 434 L 597 428 L 596 427 L 596 424 L 595 423 L 593 415 L 591 412 L 594 406 L 593 399 L 591 396 L 590 392 L 585 385 L 585 383 L 587 380 L 587 377 L 582 367 L 575 359 L 575 357 L 578 353 L 578 348 L 577 346 L 575 344 L 575 343 L 562 330 L 561 330 L 558 327 L 558 324 L 560 321 L 560 318 L 557 313 L 552 308 L 551 308 L 539 298 L 541 294 L 541 291 L 540 289 L 537 286 L 530 282 L 528 280 L 528 275 L 527 273 L 513 262 L 514 256 L 508 250 L 492 242 L 489 239 L 489 234 L 488 232 L 482 226 L 481 224 L 481 221 L 486 214 L 486 212 L 489 205 L 495 198 L 495 196 L 496 195 L 496 187 L 501 181 L 503 177 L 503 166 L 501 163 L 501 160 L 504 157 L 506 150 L 505 149 L 504 143 L 498 135 L 498 134 L 503 129 L 503 124 L 501 120 L 491 111 L 491 106 L 488 100 L 486 98 L 480 86 L 474 78 L 474 75 L 481 67 L 485 60 L 485 57 L 486 56 L 486 53 L 487 52 L 487 43 L 486 42 L 485 34 L 480 24 L 477 21 L 477 20 L 470 14 Z M 220 150 L 221 150 L 227 157 L 227 161 L 225 164 L 223 164 L 218 156 L 218 152 Z M 453 13 L 464 19 L 473 28 L 477 35 L 478 41 L 479 42 L 479 51 L 478 52 L 478 55 L 473 65 L 466 72 L 464 73 L 464 76 L 471 85 L 477 97 L 485 108 L 485 109 L 483 111 L 481 111 L 480 112 L 485 116 L 488 117 L 496 124 L 496 127 L 494 129 L 484 129 L 484 130 L 492 138 L 492 139 L 495 142 L 498 147 L 498 151 L 496 153 L 489 152 L 489 155 L 491 157 L 496 168 L 496 174 L 494 176 L 492 176 L 490 174 L 488 174 L 488 177 L 489 178 L 489 193 L 486 197 L 485 197 L 483 195 L 481 196 L 481 203 L 478 209 L 478 211 L 473 218 L 472 221 L 467 226 L 467 227 L 468 228 L 471 228 L 474 230 L 473 235 L 478 236 L 480 238 L 480 239 L 478 241 L 477 241 L 477 243 L 481 245 L 483 245 L 486 247 L 488 247 L 500 253 L 503 256 L 501 258 L 499 259 L 495 259 L 495 260 L 502 263 L 522 277 L 522 279 L 520 281 L 515 281 L 514 282 L 518 285 L 531 291 L 533 293 L 533 295 L 531 297 L 526 297 L 526 298 L 528 300 L 535 304 L 546 313 L 547 313 L 552 318 L 552 319 L 550 321 L 543 321 L 542 322 L 570 348 L 570 349 L 568 351 L 565 351 L 564 350 L 560 350 L 560 351 L 564 355 L 564 356 L 567 359 L 567 360 L 570 363 L 572 367 L 579 376 L 577 378 L 573 378 L 572 377 L 571 378 L 574 381 L 574 382 L 578 387 L 579 390 L 581 392 L 582 395 L 584 397 L 585 403 L 584 404 L 582 404 L 581 403 L 580 404 L 584 412 L 584 415 L 585 416 L 585 418 L 587 422 L 587 425 L 590 432 L 590 435 L 586 438 L 586 440 L 587 441 L 587 446 L 588 447 L 588 461 L 587 462 L 587 467 L 586 468 L 585 476 L 582 482 L 582 484 L 580 486 L 578 491 L 571 498 L 570 498 L 568 500 L 566 498 L 566 496 L 568 492 L 568 485 L 567 484 L 565 486 L 565 488 L 564 489 L 564 491 L 561 498 L 559 500 L 559 501 L 553 506 L 551 506 L 550 507 L 542 507 L 539 504 L 544 494 L 544 486 L 542 486 L 539 492 L 539 494 L 537 496 L 535 500 L 528 505 L 523 505 L 516 502 L 511 496 L 511 492 L 514 489 L 516 485 L 517 479 L 518 478 L 518 471 L 517 470 L 515 471 L 512 477 L 511 481 L 506 486 L 501 486 L 499 485 L 493 479 L 491 475 L 491 472 L 490 471 L 490 459 L 491 458 L 492 451 L 494 448 L 494 446 L 496 442 L 496 439 L 495 438 L 495 435 L 494 434 L 494 430 L 493 429 L 493 425 L 492 424 L 492 420 L 491 419 L 491 416 L 490 415 L 488 404 L 486 400 L 486 397 L 485 396 L 483 388 L 479 380 L 479 378 L 471 362 L 469 360 L 468 357 L 466 355 L 462 348 L 459 345 L 458 346 L 458 350 L 474 382 L 474 384 L 475 385 L 475 387 L 476 388 L 476 390 L 477 391 L 477 393 L 480 400 L 480 403 L 481 404 L 481 407 L 482 408 L 482 411 L 483 412 L 483 415 L 484 416 L 484 420 L 485 421 L 486 430 L 487 431 L 487 434 L 488 435 L 488 444 L 486 447 L 486 449 L 484 453 L 484 456 L 483 457 L 483 474 L 484 475 L 484 478 L 488 486 L 495 493 L 502 495 L 504 497 L 504 503 L 505 504 L 505 509 L 506 510 L 506 514 L 507 515 L 507 519 L 508 520 L 508 522 L 506 524 L 503 523 L 502 525 L 504 528 L 506 535 L 509 540 L 510 546 L 508 548 L 501 544 L 500 545 L 505 553 L 505 555 L 507 558 L 507 560 L 509 563 L 509 565 L 511 568 L 512 572 L 510 574 L 505 571 L 504 572 L 508 580 L 508 582 L 505 585 L 505 588 L 506 589 L 506 610 L 505 611 L 505 618 L 504 619 L 503 629 L 499 637 L 501 639 L 508 642 L 516 650 L 518 654 L 518 657 L 519 658 L 519 669 L 518 670 L 518 672 L 512 678 L 508 680 L 506 680 L 504 678 L 504 676 L 505 675 L 505 671 L 504 670 L 504 666 L 503 665 L 503 663 L 499 659 L 498 659 L 497 660 L 497 666 L 498 667 L 498 679 L 493 683 L 480 684 L 478 682 L 478 668 L 477 667 L 476 663 L 473 661 L 472 661 L 470 663 L 470 666 L 471 667 L 471 674 L 472 675 L 472 681 L 469 685 L 448 685 L 446 683 L 446 668 L 445 667 L 445 664 L 444 663 L 441 663 L 439 666 L 439 677 L 440 678 L 440 683 L 438 685 L 435 685 L 434 684 L 426 684 L 425 683 L 420 683 L 416 681 L 410 680 L 404 677 L 399 672 L 397 668 L 397 654 L 398 653 L 398 649 L 399 648 L 399 633 L 398 632 L 396 634 L 394 634 L 393 633 L 393 631 L 392 630 L 392 615 L 388 612 L 388 601 L 389 600 L 389 597 L 386 598 L 384 596 L 383 594 L 383 591 L 382 590 L 381 582 L 379 579 L 379 577 L 377 575 L 377 572 L 379 570 L 383 569 L 384 568 L 384 565 L 383 564 L 379 564 L 378 565 L 372 565 L 371 566 L 366 566 L 365 567 L 356 567 L 355 566 L 349 566 L 348 565 L 342 565 L 341 564 L 332 563 L 331 562 L 324 561 L 323 560 L 317 559 L 316 558 L 312 558 L 311 560 L 318 565 L 320 565 L 323 567 L 325 567 L 332 570 L 339 571 L 341 573 L 340 582 L 338 586 L 338 598 L 336 600 L 335 600 L 333 598 L 332 599 L 332 606 L 333 607 L 333 629 L 331 632 L 329 632 L 327 630 L 326 631 L 326 634 L 327 635 L 327 641 L 328 642 L 328 653 L 327 654 L 327 658 L 326 659 L 326 661 L 324 663 L 324 664 L 319 668 L 315 669 L 314 670 L 306 671 L 305 672 L 293 673 L 292 674 L 283 674 L 282 675 L 275 675 L 274 676 L 241 676 L 239 674 L 239 672 L 238 671 L 238 668 L 239 667 L 239 660 L 240 659 L 241 654 L 240 653 L 238 653 L 235 656 L 233 663 L 232 664 L 232 669 L 233 670 L 233 673 L 231 675 L 229 674 L 222 674 L 221 673 L 218 673 L 214 670 L 214 659 L 215 658 L 215 655 L 217 651 L 216 649 L 214 649 L 211 652 L 209 656 L 209 659 L 208 660 L 208 665 L 209 666 L 209 668 L 207 670 L 205 670 L 199 665 L 198 663 L 198 660 L 197 659 L 197 655 L 198 654 L 199 646 L 202 640 L 208 634 L 213 631 L 215 631 L 219 629 L 223 629 L 224 628 L 232 628 L 235 626 L 231 618 L 231 614 L 230 613 L 229 605 L 228 604 L 228 598 L 226 595 L 226 587 L 223 584 L 223 578 L 224 577 L 225 570 L 224 569 L 222 571 L 219 571 L 218 570 L 218 565 L 219 564 L 220 557 L 222 553 L 223 547 L 225 544 L 225 542 L 220 543 L 218 541 L 218 538 L 225 524 L 224 523 L 220 524 L 219 523 L 219 519 L 223 513 L 223 511 L 226 505 L 226 502 L 228 500 L 229 500 L 231 502 L 233 502 L 226 484 L 226 478 L 224 477 L 222 479 L 221 479 L 219 477 L 219 461 L 220 460 L 220 454 L 219 454 L 216 457 L 214 455 L 214 448 L 215 447 L 215 443 L 216 442 L 217 435 L 218 434 L 218 432 L 221 425 L 220 424 L 217 426 L 214 426 L 213 425 L 213 420 L 219 407 L 221 405 L 222 402 L 227 395 L 226 394 L 224 394 L 223 395 L 219 395 L 217 393 L 217 392 L 221 387 L 221 386 L 228 378 L 228 377 L 233 372 L 232 370 L 228 371 L 225 368 L 231 358 L 236 352 L 237 344 L 238 343 L 239 337 L 241 334 L 244 323 L 243 322 L 240 322 L 238 324 L 234 332 L 234 334 L 231 337 L 227 335 L 225 335 L 222 333 L 219 333 L 214 330 L 212 330 L 210 328 L 210 327 L 212 325 L 213 325 L 214 323 L 213 322 L 210 322 L 206 320 L 199 319 L 195 317 L 192 314 L 192 313 L 194 311 L 196 311 L 198 309 L 195 307 L 193 307 L 190 305 L 188 305 L 180 301 L 178 301 L 173 298 L 170 295 L 170 293 L 172 291 L 178 291 L 179 289 L 164 281 L 150 268 L 150 266 L 152 264 L 156 264 L 157 265 L 159 265 L 160 263 L 148 251 L 148 250 L 142 242 L 140 237 L 138 235 L 134 227 L 134 225 L 132 222 L 132 220 L 129 213 L 128 206 L 127 205 L 127 201 L 126 200 L 126 193 L 125 192 L 125 186 L 124 185 L 124 175 L 115 162 L 105 142 L 104 136 L 103 135 L 103 130 L 102 129 L 102 122 L 103 121 L 103 119 L 108 114 L 116 114 L 119 116 L 121 115 L 121 112 L 120 111 L 120 97 L 122 93 L 129 87 L 134 87 L 136 88 L 141 93 L 145 101 L 146 106 L 148 106 L 148 104 L 147 103 L 147 89 L 148 88 L 148 85 L 149 84 L 150 79 L 156 73 L 158 73 L 159 72 L 164 72 L 166 74 L 167 74 L 171 79 L 171 81 L 173 84 L 173 89 L 174 90 L 174 104 L 175 104 L 177 96 L 179 93 L 179 91 L 182 85 L 189 79 L 194 79 L 196 80 L 200 85 L 200 90 L 201 91 L 201 105 L 200 106 L 200 113 L 202 114 L 210 108 L 212 108 L 213 107 L 217 107 L 222 111 L 224 115 L 224 126 L 223 127 L 222 132 L 215 144 L 207 152 L 207 155 L 214 167 L 216 174 L 219 179 L 220 184 L 223 190 L 228 189 L 230 191 L 232 195 L 232 197 L 233 198 L 233 200 L 235 204 L 235 207 L 237 210 L 237 213 L 238 215 L 239 215 L 239 213 L 242 210 L 246 214 L 249 220 L 249 223 L 251 226 L 251 228 L 253 228 L 253 227 L 255 225 L 259 229 L 262 237 L 263 238 L 266 234 L 269 237 L 274 246 L 276 246 L 277 245 L 277 240 L 274 235 L 266 226 L 266 225 L 263 222 L 260 221 L 257 218 L 255 214 L 253 215 L 250 215 L 248 213 L 244 204 L 244 194 L 243 193 L 240 194 L 236 189 L 236 182 L 237 181 L 237 176 L 238 175 L 238 172 L 237 171 L 233 173 L 231 171 L 231 165 L 237 154 L 237 151 L 231 152 L 228 149 L 228 147 L 234 140 L 234 139 L 240 133 L 240 129 L 239 128 L 240 121 L 243 116 L 245 109 L 248 104 L 248 102 L 247 101 L 245 101 L 241 99 L 232 91 L 227 81 L 227 77 L 226 76 L 227 66 L 228 65 L 228 62 L 233 53 L 239 47 L 247 42 L 249 42 L 253 40 L 256 40 L 257 39 L 263 39 L 264 40 L 267 40 L 274 43 L 277 46 L 278 46 L 282 50 L 283 53 L 285 54 L 296 46 L 302 43 L 307 42 L 309 40 L 309 39 L 313 36 L 329 35 L 330 34 L 330 32 L 328 30 L 328 28 L 327 27 L 327 25 L 329 23 L 333 23 L 334 24 L 336 24 L 347 30 L 349 30 L 350 28 L 356 22 L 362 19 L 363 19 L 365 21 L 365 26 L 363 30 L 369 30 L 370 29 L 381 29 L 382 30 L 389 30 L 390 31 L 399 32 L 400 33 L 402 33 L 403 34 L 410 36 L 411 35 L 412 29 L 423 17 L 431 13 L 433 13 L 434 12 L 438 12 L 439 11 L 443 11 L 444 12 L 449 12 L 450 13 Z" fill="#010101" fill-rule="evenodd"/></svg>