<svg xmlns="http://www.w3.org/2000/svg" viewBox="0 0 653 704" shape-rendering="geometricPrecision"><title>intro frame 017</title><path d="M 285 578 L 284 581 L 287 586 L 287 589 L 290 590 L 291 589 L 291 582 Z M 263 568 L 261 569 L 259 572 L 258 582 L 260 587 L 264 591 L 269 592 L 272 590 L 272 582 L 270 579 L 270 577 L 267 573 L 267 571 Z M 459 481 L 453 479 L 450 481 L 446 481 L 446 483 L 450 485 L 455 485 L 457 483 L 458 484 Z M 456 446 L 455 447 L 455 450 L 458 451 L 459 448 Z M 436 434 L 435 435 L 435 440 L 433 444 L 433 447 L 435 449 L 438 449 L 444 452 L 446 450 L 440 444 L 440 436 L 439 434 Z M 64 214 L 65 218 L 68 222 L 68 224 L 70 226 L 71 229 L 76 235 L 89 246 L 98 250 L 104 256 L 107 265 L 109 268 L 118 276 L 123 285 L 144 305 L 149 307 L 159 315 L 177 324 L 179 326 L 184 327 L 187 329 L 193 329 L 197 333 L 197 336 L 192 340 L 196 340 L 197 341 L 199 340 L 206 340 L 208 342 L 215 345 L 222 345 L 223 346 L 228 345 L 232 348 L 232 350 L 228 353 L 226 356 L 228 358 L 230 358 L 236 362 L 243 362 L 248 358 L 253 347 L 253 344 L 255 340 L 255 330 L 260 322 L 260 320 L 263 315 L 264 311 L 266 309 L 266 305 L 270 300 L 263 289 L 259 285 L 257 285 L 256 287 L 253 289 L 247 283 L 246 280 L 244 278 L 244 276 L 242 274 L 237 278 L 235 278 L 231 274 L 228 265 L 223 258 L 221 262 L 221 265 L 219 267 L 216 267 L 212 263 L 208 257 L 208 255 L 206 253 L 204 248 L 200 243 L 197 246 L 194 246 L 189 241 L 184 233 L 165 211 L 163 207 L 163 205 L 166 200 L 166 196 L 167 195 L 166 192 L 161 194 L 156 198 L 152 198 L 147 192 L 147 179 L 143 174 L 142 174 L 141 178 L 135 183 L 129 183 L 125 180 L 121 180 L 116 178 L 115 182 L 110 187 L 102 191 L 99 190 L 97 192 L 95 192 L 96 200 L 95 203 L 90 208 L 82 208 L 80 207 L 88 217 L 89 227 L 88 228 L 88 231 L 86 233 L 85 232 L 82 232 L 78 230 L 75 227 L 72 226 L 67 219 L 68 211 L 67 210 Z M 136 191 L 148 201 L 152 208 L 152 216 L 150 221 L 147 225 L 138 233 L 129 237 L 125 240 L 123 240 L 114 244 L 105 244 L 100 242 L 90 231 L 90 220 L 94 211 L 94 209 L 99 203 L 101 199 L 107 193 L 117 188 L 129 188 Z M 161 167 L 160 168 L 166 175 L 166 177 L 167 177 L 166 172 Z M 444 70 L 435 70 L 423 76 L 416 83 L 414 87 L 414 90 L 410 94 L 395 88 L 390 88 L 384 86 L 365 86 L 363 87 L 360 84 L 360 79 L 359 78 L 354 81 L 354 82 L 349 86 L 345 86 L 341 84 L 337 80 L 332 79 L 333 84 L 332 87 L 328 90 L 318 90 L 317 89 L 314 89 L 311 93 L 303 98 L 300 98 L 297 100 L 290 102 L 285 106 L 285 108 L 288 109 L 291 108 L 296 109 L 299 112 L 300 117 L 296 121 L 293 122 L 283 130 L 281 130 L 278 127 L 278 121 L 283 113 L 283 110 L 281 109 L 272 99 L 263 95 L 253 95 L 252 96 L 249 96 L 240 101 L 233 109 L 229 118 L 229 130 L 232 137 L 240 145 L 247 148 L 249 150 L 249 153 L 247 159 L 243 166 L 243 168 L 240 174 L 241 175 L 241 183 L 230 196 L 231 198 L 240 199 L 245 187 L 248 184 L 257 180 L 266 180 L 270 184 L 273 183 L 277 184 L 279 178 L 279 175 L 276 172 L 276 168 L 275 167 L 276 158 L 279 151 L 283 147 L 285 146 L 289 146 L 294 151 L 294 153 L 296 155 L 296 162 L 293 168 L 294 169 L 304 168 L 305 167 L 318 168 L 324 171 L 329 175 L 332 181 L 332 186 L 329 192 L 320 201 L 315 204 L 313 204 L 311 206 L 307 206 L 301 208 L 298 206 L 295 206 L 293 204 L 285 200 L 279 193 L 278 194 L 278 203 L 280 209 L 284 213 L 286 214 L 294 214 L 303 208 L 308 208 L 311 210 L 315 210 L 321 212 L 338 212 L 339 211 L 349 209 L 358 205 L 363 200 L 365 195 L 367 193 L 370 193 L 375 198 L 377 203 L 377 207 L 378 208 L 378 235 L 377 236 L 375 250 L 372 256 L 372 258 L 368 265 L 359 274 L 352 279 L 344 282 L 332 282 L 331 281 L 325 280 L 320 277 L 312 270 L 312 269 L 301 258 L 294 247 L 294 245 L 292 243 L 292 241 L 290 238 L 290 235 L 287 226 L 285 224 L 281 223 L 276 220 L 270 214 L 267 208 L 266 201 L 265 200 L 256 207 L 251 209 L 246 209 L 240 204 L 238 204 L 232 213 L 232 215 L 235 215 L 239 218 L 239 223 L 238 224 L 236 235 L 237 236 L 244 235 L 246 237 L 246 247 L 245 248 L 245 257 L 246 259 L 249 261 L 252 258 L 254 258 L 257 261 L 258 264 L 275 280 L 280 281 L 289 286 L 296 293 L 298 297 L 298 301 L 296 303 L 287 299 L 285 297 L 282 297 L 279 302 L 272 307 L 272 311 L 269 314 L 269 316 L 271 319 L 267 324 L 267 326 L 264 330 L 266 336 L 262 340 L 263 346 L 259 357 L 258 367 L 254 379 L 255 379 L 258 376 L 262 374 L 266 374 L 269 377 L 269 380 L 264 388 L 261 391 L 250 398 L 244 404 L 243 407 L 246 407 L 248 410 L 244 418 L 238 423 L 232 431 L 233 432 L 239 432 L 241 434 L 241 438 L 238 445 L 232 451 L 231 455 L 229 458 L 230 460 L 231 459 L 235 459 L 237 461 L 237 466 L 232 476 L 231 482 L 234 481 L 236 479 L 239 479 L 241 481 L 241 485 L 239 490 L 239 499 L 238 501 L 239 502 L 240 501 L 243 501 L 246 504 L 246 510 L 245 512 L 248 521 L 251 524 L 256 526 L 260 530 L 264 530 L 265 529 L 269 534 L 271 538 L 271 541 L 274 545 L 280 545 L 291 557 L 299 559 L 321 538 L 324 537 L 328 533 L 331 532 L 339 525 L 344 522 L 356 518 L 360 518 L 361 517 L 391 516 L 393 518 L 391 520 L 385 521 L 374 526 L 371 526 L 369 528 L 363 529 L 361 531 L 359 531 L 351 535 L 349 537 L 347 537 L 343 540 L 339 541 L 327 551 L 321 559 L 321 561 L 319 563 L 317 569 L 310 577 L 310 580 L 312 585 L 312 589 L 310 593 L 311 595 L 311 609 L 312 610 L 313 618 L 318 630 L 324 635 L 329 636 L 333 639 L 336 639 L 339 641 L 344 642 L 356 648 L 357 650 L 355 652 L 351 652 L 350 653 L 347 653 L 346 652 L 337 652 L 336 651 L 327 650 L 326 649 L 315 649 L 314 650 L 309 650 L 308 651 L 301 652 L 294 656 L 287 664 L 283 676 L 285 679 L 290 678 L 293 675 L 294 671 L 298 665 L 308 665 L 309 666 L 319 666 L 324 669 L 329 669 L 333 673 L 333 679 L 334 682 L 337 685 L 379 685 L 383 682 L 386 682 L 387 681 L 387 677 L 390 674 L 392 670 L 392 667 L 398 660 L 398 657 L 396 656 L 395 653 L 395 634 L 394 633 L 393 626 L 396 624 L 396 620 L 404 610 L 404 605 L 406 603 L 411 604 L 412 601 L 414 599 L 416 599 L 416 596 L 426 587 L 427 584 L 429 582 L 429 580 L 432 576 L 435 568 L 438 565 L 438 560 L 441 553 L 442 543 L 445 540 L 445 538 L 447 536 L 446 533 L 447 527 L 453 523 L 457 523 L 460 520 L 462 520 L 470 513 L 470 508 L 466 503 L 461 504 L 453 498 L 446 497 L 436 489 L 431 486 L 429 486 L 427 484 L 426 479 L 423 476 L 423 474 L 425 472 L 427 472 L 434 475 L 440 475 L 441 474 L 441 468 L 440 467 L 440 464 L 436 459 L 425 456 L 421 453 L 419 453 L 415 449 L 415 445 L 417 441 L 416 437 L 414 435 L 410 434 L 403 430 L 398 429 L 395 427 L 386 424 L 388 421 L 391 423 L 412 424 L 417 426 L 421 426 L 423 425 L 427 428 L 433 424 L 432 418 L 431 417 L 433 414 L 436 414 L 437 415 L 445 415 L 446 416 L 450 412 L 450 409 L 451 408 L 451 400 L 447 395 L 447 391 L 445 389 L 434 390 L 430 385 L 426 383 L 422 383 L 414 375 L 414 373 L 404 361 L 404 359 L 406 357 L 409 358 L 411 354 L 415 354 L 416 356 L 420 357 L 423 353 L 426 353 L 429 356 L 430 361 L 427 364 L 424 362 L 420 362 L 419 363 L 432 374 L 433 374 L 432 363 L 435 361 L 450 369 L 452 368 L 467 369 L 470 372 L 472 370 L 478 370 L 485 377 L 488 382 L 488 391 L 489 392 L 489 396 L 491 398 L 491 433 L 487 437 L 487 444 L 490 447 L 493 448 L 507 464 L 511 465 L 516 459 L 519 459 L 522 461 L 525 461 L 530 463 L 534 463 L 535 462 L 536 456 L 539 453 L 543 454 L 546 457 L 550 457 L 560 448 L 563 448 L 565 450 L 565 452 L 567 454 L 567 457 L 568 458 L 572 455 L 572 447 L 574 443 L 574 437 L 572 435 L 572 433 L 568 427 L 568 413 L 567 412 L 567 402 L 568 401 L 567 398 L 571 394 L 571 391 L 569 389 L 570 385 L 568 382 L 567 368 L 564 362 L 564 357 L 563 356 L 564 351 L 558 343 L 558 337 L 551 332 L 545 326 L 543 321 L 540 318 L 522 313 L 518 309 L 518 305 L 516 302 L 494 299 L 491 296 L 491 292 L 485 292 L 484 291 L 471 291 L 470 290 L 449 289 L 446 291 L 444 291 L 442 293 L 440 293 L 434 296 L 428 296 L 426 295 L 419 301 L 416 302 L 413 300 L 412 295 L 410 296 L 410 298 L 406 303 L 403 300 L 403 295 L 404 292 L 406 290 L 408 290 L 410 288 L 413 289 L 414 286 L 422 278 L 424 278 L 425 280 L 426 280 L 428 278 L 430 272 L 432 270 L 433 270 L 435 273 L 436 273 L 439 268 L 439 265 L 438 264 L 439 261 L 444 257 L 446 252 L 451 248 L 447 243 L 447 241 L 449 239 L 455 239 L 457 238 L 457 236 L 455 233 L 455 230 L 458 226 L 464 228 L 463 220 L 461 218 L 460 208 L 463 206 L 468 209 L 470 206 L 472 206 L 481 212 L 479 213 L 479 215 L 481 218 L 484 218 L 485 217 L 480 207 L 479 200 L 482 197 L 487 197 L 488 195 L 475 181 L 475 178 L 478 175 L 483 174 L 483 173 L 471 163 L 470 159 L 472 155 L 464 140 L 457 130 L 453 126 L 455 123 L 460 120 L 467 113 L 467 111 L 471 106 L 471 96 L 470 95 L 470 91 L 468 89 L 468 87 L 466 84 L 456 75 Z M 269 495 L 271 497 L 271 505 L 269 510 L 267 512 L 265 512 L 264 511 L 264 504 L 266 501 L 266 498 Z M 262 473 L 264 475 L 264 479 L 263 480 L 263 483 L 260 487 L 258 485 L 258 482 L 259 481 L 259 477 Z M 394 452 L 395 451 L 398 451 L 400 453 L 400 455 L 397 458 Z M 264 438 L 266 440 L 266 442 L 260 453 L 263 458 L 260 463 L 260 465 L 258 467 L 258 469 L 254 472 L 252 470 L 252 466 L 255 461 L 255 458 L 253 456 L 253 452 L 256 445 Z M 363 404 L 366 405 L 369 408 L 367 421 L 366 422 L 366 426 L 365 427 L 362 426 L 360 424 L 360 414 L 359 413 L 360 407 Z M 299 403 L 301 405 L 299 408 L 294 412 L 292 410 L 293 408 Z M 328 380 L 329 381 L 329 386 L 326 389 L 321 389 L 319 387 L 320 385 L 323 382 Z M 347 365 L 349 368 L 349 370 L 347 372 L 345 371 L 345 366 Z M 296 361 L 298 363 L 297 367 L 296 368 L 291 368 L 290 365 L 293 362 Z M 355 359 L 359 356 L 373 369 L 379 369 L 382 366 L 386 366 L 387 365 L 390 366 L 401 380 L 409 384 L 415 383 L 418 386 L 418 393 L 421 395 L 421 397 L 420 398 L 413 399 L 410 401 L 406 401 L 401 396 L 396 386 L 387 375 L 378 376 L 377 375 L 370 374 L 362 370 L 355 363 Z M 332 351 L 330 356 L 327 359 L 325 359 L 322 361 L 319 361 L 313 364 L 310 362 L 312 353 L 315 350 L 317 350 L 320 354 L 323 352 L 325 352 L 328 349 L 330 349 Z M 350 332 L 352 332 L 354 334 L 353 335 L 355 337 L 355 345 L 353 348 L 351 348 L 345 345 L 343 342 L 343 340 Z M 387 316 L 389 320 L 389 331 L 386 334 L 383 335 L 377 334 L 374 331 L 373 327 L 375 325 L 378 324 L 383 324 L 385 321 L 385 317 Z M 397 292 L 397 295 L 393 301 L 384 310 L 381 311 L 380 313 L 373 319 L 370 323 L 371 325 L 369 327 L 361 326 L 354 331 L 353 330 L 350 330 L 342 324 L 337 322 L 335 320 L 330 318 L 327 315 L 324 314 L 319 310 L 314 303 L 314 301 L 318 297 L 324 297 L 325 298 L 330 298 L 331 299 L 336 299 L 337 300 L 352 300 L 353 299 L 358 299 L 359 298 L 369 297 L 370 296 L 381 294 L 391 290 L 395 290 Z M 380 178 L 381 176 L 390 168 L 393 168 L 394 167 L 403 167 L 404 166 L 413 167 L 414 168 L 417 168 L 423 170 L 429 176 L 432 182 L 432 188 L 426 195 L 423 196 L 420 196 L 419 197 L 403 197 L 388 192 L 381 184 Z M 303 159 L 305 157 L 317 153 L 328 153 L 336 156 L 339 159 L 339 163 L 337 165 L 333 165 L 327 163 L 312 163 L 310 164 L 304 162 Z M 369 140 L 372 140 L 380 149 L 382 154 L 382 162 L 377 172 L 375 174 L 372 175 L 366 174 L 362 170 L 360 165 L 360 152 L 362 146 Z M 260 107 L 264 109 L 269 114 L 270 118 L 264 126 L 260 134 L 254 140 L 251 141 L 248 140 L 241 131 L 241 126 L 240 125 L 241 123 L 241 119 L 244 113 L 249 108 L 251 107 Z M 365 103 L 369 99 L 372 99 L 373 98 L 377 99 L 383 102 L 389 108 L 390 110 L 390 114 L 386 118 L 384 118 L 379 116 L 377 114 L 374 114 L 371 112 L 369 112 L 364 108 Z M 434 84 L 436 83 L 447 83 L 452 86 L 457 92 L 458 96 L 460 99 L 460 108 L 452 117 L 449 117 L 448 118 L 443 117 L 425 100 L 425 95 L 427 91 Z" fill="#FBFBFB" fill-rule="evenodd"/><path d="M 288 623 L 287 623 L 285 626 L 279 631 L 269 626 L 271 628 L 274 629 L 282 637 L 282 640 L 283 641 L 282 643 L 277 647 L 277 652 L 275 653 L 273 649 L 272 650 L 272 653 L 270 655 L 264 657 L 262 662 L 263 679 L 265 681 L 265 683 L 271 689 L 276 691 L 271 689 L 265 682 L 265 680 L 263 677 L 262 664 L 265 661 L 267 661 L 269 663 L 272 662 L 277 656 L 281 648 L 281 646 L 295 631 L 294 627 Z M 436 622 L 434 622 L 428 628 L 429 631 L 432 629 Z M 471 589 L 469 589 L 465 593 L 458 597 L 451 604 L 451 611 L 452 614 L 454 616 L 460 616 L 464 620 L 465 626 L 466 627 L 469 627 L 474 621 L 474 614 L 473 613 L 473 593 Z M 310 576 L 308 579 L 310 583 L 310 588 L 306 593 L 307 594 L 307 597 L 309 600 L 309 606 L 311 610 L 311 616 L 318 634 L 322 637 L 343 643 L 347 645 L 351 649 L 349 651 L 339 651 L 338 650 L 327 649 L 332 649 L 337 651 L 346 651 L 347 652 L 355 651 L 356 649 L 344 643 L 339 642 L 336 640 L 333 640 L 329 637 L 326 637 L 321 634 L 317 630 L 313 621 L 312 615 L 311 614 L 311 610 L 310 609 L 310 595 L 309 594 L 311 589 L 311 585 L 309 580 L 309 577 Z M 283 575 L 281 577 L 280 583 L 286 590 L 287 593 L 290 595 L 292 592 L 292 580 L 286 575 Z M 285 577 L 289 579 L 292 582 L 292 589 L 290 591 L 288 591 L 286 589 L 286 586 L 283 581 L 283 579 Z M 245 563 L 245 566 L 241 571 L 239 576 L 240 587 L 242 592 L 243 600 L 246 603 L 251 612 L 262 622 L 267 625 L 261 621 L 252 612 L 250 607 L 244 600 L 242 590 L 241 589 L 240 576 L 244 569 Z M 261 561 L 258 563 L 258 571 L 257 572 L 257 583 L 258 586 L 269 598 L 273 606 L 280 612 L 281 611 L 281 602 L 280 601 L 279 592 L 270 574 L 269 569 L 266 563 L 263 561 Z M 263 567 L 268 571 L 268 573 L 271 577 L 271 579 L 273 582 L 273 590 L 269 593 L 264 592 L 259 587 L 257 582 L 258 572 L 260 569 Z M 502 557 L 499 561 L 497 566 L 491 574 L 488 581 L 488 599 L 489 600 L 490 616 L 484 628 L 483 632 L 476 639 L 472 641 L 469 644 L 460 648 L 455 648 L 450 650 L 437 650 L 434 649 L 432 647 L 430 647 L 428 650 L 428 654 L 431 662 L 431 670 L 425 685 L 419 692 L 415 693 L 419 692 L 424 688 L 428 679 L 431 670 L 431 662 L 430 661 L 430 658 L 428 652 L 431 649 L 435 649 L 440 651 L 446 651 L 447 650 L 452 650 L 457 648 L 463 648 L 475 639 L 478 638 L 483 633 L 485 626 L 490 616 L 490 605 L 489 604 L 489 598 L 488 597 L 488 586 L 490 581 L 490 577 L 494 570 L 497 567 L 497 565 Z M 338 541 L 332 545 L 325 552 L 323 556 L 317 563 L 314 571 L 311 574 L 316 569 L 316 567 L 320 561 L 320 559 L 326 551 Z M 232 528 L 233 534 L 235 538 L 246 552 L 246 561 L 246 551 L 242 547 L 238 540 L 235 537 Z M 269 496 L 267 498 L 267 501 L 265 504 L 265 511 L 268 510 L 270 505 L 270 497 Z M 262 474 L 260 477 L 260 481 L 259 482 L 259 485 L 260 486 L 262 483 L 262 480 L 263 479 L 263 475 Z M 591 452 L 591 454 L 585 465 L 576 474 L 569 479 L 558 484 L 562 482 L 565 482 L 582 469 L 588 461 Z M 395 452 L 397 457 L 399 455 L 399 453 L 398 452 Z M 264 439 L 257 445 L 254 452 L 254 456 L 256 458 L 256 461 L 253 466 L 253 470 L 254 471 L 257 469 L 257 467 L 259 465 L 259 463 L 262 458 L 259 453 L 265 442 Z M 363 405 L 361 407 L 360 410 L 360 413 L 361 414 L 361 424 L 365 426 L 365 422 L 366 421 L 368 408 L 366 406 Z M 299 404 L 294 408 L 293 410 L 294 411 L 298 408 L 300 405 Z M 328 381 L 323 383 L 320 387 L 321 388 L 326 388 L 328 386 Z M 297 363 L 296 362 L 293 363 L 291 365 L 291 367 L 296 367 Z M 356 359 L 356 363 L 362 369 L 370 373 L 377 374 L 378 375 L 387 374 L 395 383 L 400 391 L 400 393 L 406 400 L 410 400 L 416 397 L 420 397 L 420 395 L 417 393 L 417 386 L 415 384 L 409 385 L 401 381 L 393 372 L 392 369 L 390 367 L 387 366 L 386 367 L 382 367 L 379 370 L 373 370 L 359 357 Z M 400 386 L 403 385 L 409 392 L 406 394 L 402 390 Z M 331 351 L 328 350 L 325 353 L 323 353 L 321 355 L 320 355 L 317 351 L 315 351 L 313 353 L 311 362 L 313 363 L 319 360 L 322 360 L 325 358 L 327 358 L 329 356 Z M 350 333 L 344 340 L 344 342 L 345 344 L 351 347 L 353 347 L 354 345 L 354 337 L 352 335 L 353 334 Z M 387 317 L 386 317 L 386 321 L 383 325 L 378 325 L 374 327 L 374 329 L 377 333 L 383 334 L 386 333 L 388 331 L 388 320 Z M 535 301 L 554 310 L 568 322 L 573 325 L 577 330 L 577 332 L 580 338 L 580 341 L 582 344 L 582 346 L 584 349 L 588 361 L 588 366 L 590 369 L 592 380 L 596 389 L 596 397 L 591 407 L 591 418 L 592 419 L 592 424 L 593 425 L 593 445 L 594 428 L 592 424 L 591 410 L 597 396 L 597 389 L 595 387 L 594 383 L 592 380 L 592 376 L 590 372 L 590 368 L 588 363 L 588 358 L 581 343 L 577 330 L 572 324 L 553 309 Z M 396 292 L 395 291 L 391 291 L 381 295 L 378 295 L 369 298 L 359 299 L 358 300 L 353 300 L 352 301 L 337 301 L 336 300 L 331 300 L 330 299 L 325 299 L 324 298 L 318 298 L 315 301 L 315 303 L 320 310 L 324 313 L 327 314 L 330 317 L 335 319 L 337 321 L 342 323 L 350 329 L 353 329 L 354 330 L 361 325 L 369 326 L 370 325 L 369 323 L 372 319 L 378 314 L 381 310 L 384 309 L 392 301 L 396 295 Z M 395 294 L 384 306 L 377 310 L 370 318 L 356 326 L 350 326 L 337 320 L 322 310 L 316 304 L 316 302 L 319 299 L 323 299 L 329 301 L 334 301 L 335 302 L 354 302 L 355 301 L 361 301 L 365 299 L 371 299 L 375 297 L 379 297 L 382 295 L 385 295 L 391 292 L 393 292 Z M 502 284 L 506 285 L 522 294 L 524 294 L 533 300 L 521 292 L 517 291 L 513 288 L 509 287 L 504 284 Z M 229 266 L 232 272 L 232 274 L 235 277 L 237 277 L 241 273 L 244 275 L 242 272 L 240 271 L 239 274 L 237 276 L 235 276 L 232 273 Z M 490 250 L 489 253 L 483 261 L 479 270 L 480 273 L 484 277 L 488 278 L 493 281 L 495 281 L 486 278 L 481 273 L 481 265 L 489 253 Z M 54 227 L 63 241 L 79 256 L 89 262 L 91 265 L 88 261 L 77 254 L 60 237 Z M 178 225 L 194 245 L 197 245 L 200 242 L 203 245 L 207 253 L 209 255 L 209 257 L 216 266 L 219 266 L 220 265 L 221 259 L 223 257 L 226 260 L 228 264 L 224 257 L 222 256 L 221 257 L 220 263 L 218 265 L 216 265 L 210 258 L 206 249 L 201 241 L 199 240 L 198 243 L 196 245 L 194 245 L 191 242 L 187 235 Z M 180 194 L 180 198 L 179 199 L 178 205 L 182 212 L 196 227 L 202 227 L 204 228 L 208 232 L 211 238 L 209 233 L 203 227 L 198 227 L 194 225 L 180 209 L 179 207 Z M 136 192 L 129 189 L 117 189 L 114 191 L 110 192 L 102 199 L 100 203 L 95 209 L 95 211 L 91 220 L 91 231 L 100 241 L 105 243 L 114 243 L 123 239 L 125 239 L 129 236 L 138 232 L 144 227 L 149 221 L 151 216 L 151 208 L 147 201 Z M 142 197 L 148 203 L 151 209 L 151 215 L 147 223 L 141 229 L 122 240 L 116 242 L 112 242 L 111 243 L 104 242 L 100 240 L 94 234 L 92 231 L 92 218 L 95 210 L 100 204 L 102 200 L 111 192 L 116 190 L 126 189 L 127 190 L 133 191 Z M 381 178 L 382 184 L 388 191 L 403 196 L 419 196 L 420 195 L 423 195 L 426 194 L 431 188 L 431 182 L 428 176 L 423 171 L 417 169 L 414 169 L 413 168 L 404 167 L 403 168 L 394 168 L 393 169 L 390 169 L 387 171 Z M 382 177 L 388 171 L 393 169 L 397 169 L 398 168 L 416 169 L 423 172 L 429 178 L 431 182 L 431 187 L 426 193 L 422 195 L 417 195 L 416 196 L 406 196 L 405 195 L 401 195 L 388 190 L 382 183 Z M 304 159 L 304 161 L 310 163 L 312 162 L 327 162 L 333 164 L 337 164 L 338 163 L 338 159 L 336 157 L 328 154 L 317 154 Z M 312 158 L 316 156 L 331 156 L 334 157 L 337 161 L 334 163 L 333 162 L 329 162 L 326 160 L 313 160 Z M 94 153 L 89 158 L 89 161 L 88 162 L 89 167 L 90 167 L 92 161 L 95 159 L 99 159 L 103 161 L 108 166 L 109 169 L 111 171 L 113 175 L 113 181 L 112 183 L 106 188 L 98 188 L 95 189 L 80 177 L 77 176 L 73 177 L 69 182 L 70 189 L 72 188 L 72 186 L 75 182 L 81 183 L 86 186 L 93 193 L 94 195 L 94 201 L 89 206 L 83 206 L 77 204 L 74 207 L 67 208 L 63 213 L 64 219 L 70 230 L 84 244 L 98 252 L 103 257 L 109 275 L 111 277 L 111 279 L 114 285 L 116 287 L 117 290 L 128 302 L 131 307 L 141 315 L 142 315 L 142 313 L 140 312 L 135 306 L 136 303 L 141 307 L 147 310 L 151 315 L 150 316 L 144 316 L 147 319 L 155 323 L 157 325 L 160 326 L 163 325 L 170 325 L 173 327 L 175 327 L 177 329 L 180 329 L 185 331 L 191 331 L 193 333 L 192 336 L 186 338 L 181 338 L 175 335 L 165 335 L 159 333 L 153 333 L 153 334 L 156 337 L 165 342 L 168 342 L 171 344 L 181 347 L 183 349 L 179 353 L 177 353 L 175 355 L 183 360 L 198 362 L 202 364 L 204 366 L 205 373 L 208 372 L 208 369 L 212 365 L 216 368 L 218 368 L 224 374 L 224 380 L 223 381 L 225 383 L 231 384 L 232 385 L 235 385 L 236 384 L 238 378 L 238 375 L 244 365 L 249 360 L 255 344 L 258 341 L 261 344 L 261 348 L 260 349 L 260 352 L 257 361 L 257 367 L 252 378 L 251 394 L 240 407 L 241 409 L 244 409 L 246 411 L 246 413 L 233 427 L 230 432 L 231 434 L 237 433 L 239 435 L 239 439 L 238 442 L 231 451 L 228 458 L 228 461 L 229 462 L 232 460 L 234 460 L 236 462 L 236 465 L 230 478 L 229 485 L 231 485 L 236 481 L 239 483 L 239 488 L 237 494 L 237 507 L 239 507 L 242 504 L 244 506 L 245 517 L 246 520 L 248 522 L 250 529 L 253 531 L 274 553 L 278 553 L 280 551 L 282 551 L 285 554 L 285 557 L 282 558 L 280 560 L 282 565 L 286 568 L 296 568 L 305 558 L 306 555 L 311 549 L 313 548 L 317 543 L 344 523 L 356 519 L 363 519 L 364 518 L 374 518 L 378 520 L 375 524 L 365 527 L 340 540 L 347 536 L 349 536 L 351 534 L 359 530 L 361 530 L 363 528 L 369 527 L 371 525 L 374 525 L 382 521 L 391 519 L 392 518 L 391 517 L 361 518 L 360 519 L 356 519 L 344 523 L 339 526 L 331 533 L 328 534 L 324 538 L 321 539 L 299 560 L 291 558 L 280 546 L 274 546 L 271 543 L 270 538 L 265 530 L 264 531 L 260 531 L 256 527 L 251 525 L 247 521 L 244 512 L 245 510 L 245 504 L 243 502 L 240 502 L 239 503 L 237 501 L 238 499 L 238 490 L 240 485 L 240 481 L 239 480 L 236 480 L 234 482 L 231 483 L 230 482 L 231 476 L 236 466 L 236 461 L 235 460 L 231 460 L 230 461 L 228 458 L 230 455 L 231 451 L 237 445 L 240 438 L 240 434 L 239 433 L 233 433 L 231 431 L 237 423 L 243 418 L 247 410 L 246 408 L 243 408 L 242 407 L 243 404 L 250 397 L 261 390 L 268 380 L 268 377 L 266 375 L 262 375 L 258 377 L 255 380 L 254 380 L 253 378 L 257 367 L 258 357 L 262 346 L 261 340 L 265 336 L 263 330 L 265 328 L 266 324 L 270 319 L 268 316 L 268 314 L 271 311 L 271 307 L 274 304 L 277 303 L 282 296 L 285 296 L 287 298 L 295 302 L 297 301 L 297 297 L 295 293 L 289 287 L 280 282 L 275 281 L 257 264 L 256 261 L 254 259 L 252 259 L 249 262 L 245 259 L 244 257 L 245 237 L 244 236 L 237 237 L 235 235 L 236 228 L 238 223 L 238 218 L 235 216 L 232 216 L 231 214 L 232 217 L 236 217 L 238 219 L 237 225 L 236 226 L 236 231 L 235 232 L 235 236 L 237 239 L 240 237 L 243 237 L 245 239 L 244 257 L 246 261 L 249 262 L 252 260 L 254 260 L 256 262 L 258 266 L 270 277 L 279 291 L 280 296 L 279 299 L 276 302 L 274 302 L 258 282 L 252 287 L 248 283 L 245 277 L 248 283 L 253 288 L 254 288 L 257 284 L 259 284 L 264 289 L 271 301 L 267 305 L 267 309 L 265 311 L 264 315 L 261 320 L 261 322 L 256 330 L 256 340 L 252 352 L 249 358 L 243 363 L 236 363 L 234 361 L 228 359 L 225 356 L 225 355 L 231 350 L 231 348 L 228 346 L 226 347 L 215 346 L 208 343 L 206 341 L 199 341 L 198 342 L 196 341 L 192 341 L 191 340 L 196 336 L 196 333 L 193 330 L 187 330 L 184 328 L 179 327 L 177 325 L 159 316 L 149 308 L 144 306 L 122 285 L 117 276 L 108 268 L 106 265 L 103 256 L 98 251 L 89 247 L 78 238 L 70 229 L 69 226 L 67 224 L 67 222 L 65 220 L 63 215 L 64 212 L 67 209 L 69 211 L 68 219 L 70 221 L 71 224 L 75 226 L 78 229 L 86 232 L 88 227 L 87 217 L 79 207 L 80 206 L 82 207 L 90 207 L 94 203 L 95 200 L 94 192 L 97 191 L 99 189 L 102 190 L 110 186 L 114 182 L 116 177 L 121 179 L 125 179 L 129 182 L 135 182 L 140 178 L 140 176 L 142 173 L 143 173 L 148 179 L 148 192 L 152 197 L 156 197 L 165 191 L 167 192 L 168 195 L 164 207 L 166 211 L 177 223 L 165 209 L 165 203 L 167 200 L 168 194 L 169 193 L 169 177 L 167 171 L 161 165 L 156 165 L 151 174 L 147 177 L 145 175 L 141 165 L 135 157 L 134 154 L 129 149 L 125 149 L 123 151 L 123 153 L 124 154 L 130 154 L 138 163 L 139 169 L 140 170 L 140 175 L 139 177 L 135 181 L 130 181 L 124 177 L 120 177 L 109 164 L 108 161 L 100 153 L 98 152 Z M 265 377 L 267 380 L 264 385 L 256 392 L 253 392 L 252 390 L 254 388 L 256 382 L 262 377 Z M 206 346 L 205 348 L 201 350 L 198 348 L 200 346 L 203 345 Z M 125 295 L 127 294 L 132 300 L 130 301 Z M 280 288 L 282 286 L 286 287 L 294 294 L 295 297 L 293 299 L 284 293 Z M 72 210 L 75 209 L 79 210 L 86 217 L 87 220 L 87 226 L 84 229 L 81 229 L 75 226 L 69 220 L 69 213 Z M 159 170 L 164 175 L 165 178 L 165 187 L 158 195 L 153 197 L 149 193 L 148 190 L 148 184 L 151 176 L 157 170 Z M 161 166 L 167 172 L 167 175 L 168 176 L 167 178 L 165 177 L 165 175 L 159 168 Z M 369 141 L 367 142 L 363 147 L 367 142 L 372 142 L 379 149 L 381 154 L 381 162 L 378 169 L 374 173 L 371 174 L 367 173 L 362 168 L 361 162 L 361 165 L 363 170 L 366 173 L 372 174 L 376 172 L 381 162 L 381 154 L 379 149 L 372 141 Z M 117 140 L 111 145 L 107 145 L 105 143 L 99 142 L 98 141 L 88 142 L 81 148 L 78 154 L 78 156 L 78 154 L 81 148 L 85 144 L 89 142 L 101 142 L 109 146 L 112 145 Z M 479 121 L 473 128 L 473 132 L 485 150 L 489 161 L 491 164 L 498 170 L 499 173 L 498 170 L 489 160 L 487 153 L 474 132 L 474 127 Z M 228 119 L 228 130 L 230 136 L 238 145 L 241 146 L 248 151 L 245 161 L 240 170 L 240 173 L 239 174 L 240 177 L 240 183 L 229 196 L 230 199 L 235 199 L 237 201 L 232 212 L 233 209 L 238 203 L 240 203 L 246 208 L 251 208 L 256 206 L 265 199 L 267 201 L 267 205 L 271 214 L 276 219 L 281 222 L 285 223 L 288 226 L 290 234 L 288 225 L 281 221 L 279 221 L 271 214 L 267 204 L 268 193 L 266 193 L 264 197 L 254 206 L 247 207 L 242 203 L 241 200 L 244 194 L 244 192 L 250 185 L 257 182 L 265 182 L 269 187 L 272 185 L 275 185 L 277 187 L 277 197 L 276 198 L 276 201 L 277 202 L 278 208 L 282 213 L 288 216 L 294 215 L 302 210 L 309 210 L 310 211 L 320 212 L 321 213 L 339 213 L 340 212 L 344 212 L 347 210 L 352 209 L 358 206 L 364 200 L 365 197 L 368 194 L 370 194 L 373 197 L 376 204 L 376 209 L 377 210 L 377 232 L 376 233 L 376 240 L 375 241 L 373 252 L 368 263 L 359 272 L 355 274 L 352 277 L 345 280 L 332 280 L 331 279 L 324 278 L 322 276 L 319 275 L 304 260 L 298 252 L 295 246 L 302 258 L 314 271 L 325 279 L 331 280 L 332 281 L 344 281 L 352 278 L 359 273 L 369 262 L 374 250 L 374 246 L 375 245 L 375 241 L 377 235 L 377 208 L 376 207 L 376 203 L 374 198 L 370 194 L 367 194 L 364 200 L 358 206 L 349 210 L 339 212 L 338 213 L 321 213 L 320 212 L 311 211 L 308 209 L 303 209 L 294 215 L 286 215 L 284 214 L 278 207 L 278 204 L 277 203 L 277 194 L 279 192 L 285 199 L 288 200 L 295 205 L 298 205 L 301 207 L 302 206 L 311 205 L 313 203 L 317 202 L 320 200 L 330 189 L 331 181 L 327 174 L 318 169 L 305 168 L 304 169 L 298 169 L 311 168 L 312 169 L 316 169 L 322 171 L 330 178 L 331 181 L 331 186 L 327 193 L 321 199 L 315 202 L 306 205 L 297 205 L 287 200 L 281 194 L 279 191 L 278 183 L 277 185 L 275 184 L 270 185 L 266 181 L 257 181 L 248 185 L 246 187 L 240 200 L 231 199 L 229 196 L 240 183 L 240 175 L 239 174 L 242 168 L 242 166 L 246 159 L 248 153 L 248 150 L 240 146 L 231 137 L 228 130 Z M 260 108 L 251 108 L 249 109 L 245 113 L 242 119 L 242 123 L 241 124 L 242 126 L 242 131 L 248 139 L 251 140 L 254 139 L 259 134 L 263 126 L 269 118 L 268 114 L 264 110 Z M 258 109 L 263 111 L 268 117 L 264 124 L 261 127 L 261 129 L 259 131 L 258 134 L 254 138 L 249 138 L 245 134 L 242 128 L 242 121 L 244 116 L 248 111 L 251 109 Z M 366 103 L 365 108 L 369 111 L 371 111 L 374 113 L 377 113 L 379 115 L 384 117 L 386 117 L 389 114 L 389 110 L 388 108 L 383 103 L 374 99 L 369 100 Z M 365 105 L 366 103 L 370 100 L 376 100 L 384 104 L 388 108 L 389 110 L 389 114 L 386 117 L 384 117 L 377 113 L 367 110 L 365 108 Z M 471 92 L 471 95 L 472 96 L 472 106 L 468 111 L 468 113 L 460 121 L 455 124 L 454 126 L 458 130 L 465 140 L 473 155 L 471 159 L 472 163 L 484 173 L 483 175 L 478 176 L 476 178 L 476 181 L 489 195 L 487 198 L 482 198 L 480 200 L 481 207 L 486 217 L 484 219 L 481 219 L 478 215 L 478 213 L 480 212 L 477 211 L 476 209 L 472 207 L 470 207 L 468 210 L 463 207 L 461 208 L 461 213 L 462 214 L 462 218 L 464 220 L 465 228 L 463 229 L 460 227 L 458 227 L 456 230 L 456 233 L 458 236 L 458 238 L 455 240 L 449 240 L 448 241 L 448 243 L 452 248 L 447 252 L 445 257 L 440 261 L 439 263 L 440 265 L 439 270 L 436 274 L 432 271 L 429 278 L 426 281 L 425 281 L 424 279 L 422 279 L 415 286 L 413 290 L 410 289 L 408 291 L 406 291 L 404 295 L 404 300 L 406 302 L 409 298 L 409 296 L 412 294 L 414 297 L 414 300 L 416 301 L 419 300 L 426 294 L 428 295 L 434 295 L 440 292 L 442 292 L 444 290 L 446 290 L 449 288 L 470 289 L 471 290 L 484 290 L 485 291 L 491 291 L 492 292 L 492 296 L 494 298 L 516 301 L 519 305 L 519 309 L 522 312 L 540 317 L 544 321 L 546 326 L 559 337 L 559 343 L 565 351 L 564 354 L 565 362 L 568 368 L 569 382 L 571 385 L 570 389 L 572 391 L 572 394 L 568 398 L 569 400 L 568 402 L 568 412 L 569 413 L 569 427 L 572 431 L 573 435 L 575 437 L 575 443 L 573 447 L 573 455 L 568 459 L 566 457 L 566 454 L 564 452 L 564 450 L 563 449 L 560 449 L 550 458 L 546 458 L 543 455 L 539 454 L 537 456 L 536 462 L 534 464 L 530 464 L 529 463 L 522 462 L 519 460 L 516 460 L 511 466 L 507 465 L 504 461 L 500 458 L 497 453 L 486 444 L 486 437 L 490 433 L 490 398 L 488 396 L 488 392 L 487 391 L 487 382 L 484 377 L 478 371 L 472 371 L 470 373 L 467 370 L 459 370 L 458 369 L 452 369 L 450 370 L 435 362 L 433 363 L 434 374 L 432 375 L 418 363 L 420 361 L 424 361 L 426 363 L 429 361 L 429 358 L 426 354 L 423 354 L 420 358 L 416 357 L 415 355 L 411 355 L 411 357 L 409 359 L 406 358 L 405 361 L 415 373 L 415 375 L 422 382 L 426 382 L 430 384 L 434 389 L 445 388 L 448 391 L 448 395 L 452 400 L 452 408 L 451 409 L 451 412 L 446 417 L 445 416 L 437 416 L 436 415 L 433 415 L 432 417 L 433 418 L 434 424 L 431 427 L 427 429 L 423 426 L 421 427 L 417 427 L 412 425 L 391 424 L 388 422 L 387 424 L 390 424 L 398 428 L 403 429 L 410 433 L 414 434 L 417 437 L 418 441 L 416 445 L 416 449 L 419 452 L 421 452 L 425 455 L 436 458 L 441 464 L 441 467 L 442 468 L 442 474 L 440 476 L 434 476 L 427 473 L 424 474 L 424 476 L 427 479 L 428 484 L 433 486 L 446 496 L 453 497 L 461 503 L 466 502 L 471 508 L 471 513 L 462 521 L 460 521 L 457 524 L 453 524 L 451 526 L 448 527 L 447 530 L 448 536 L 446 538 L 446 540 L 443 543 L 442 553 L 439 560 L 439 565 L 436 568 L 434 574 L 430 580 L 430 582 L 428 584 L 427 587 L 422 591 L 418 596 L 417 596 L 417 599 L 414 600 L 413 603 L 411 605 L 408 604 L 405 605 L 405 610 L 397 620 L 397 624 L 394 626 L 394 629 L 396 634 L 396 653 L 397 656 L 399 657 L 399 660 L 393 667 L 393 670 L 391 674 L 388 677 L 388 681 L 386 683 L 383 683 L 379 686 L 337 686 L 333 682 L 332 679 L 332 673 L 329 670 L 324 670 L 319 667 L 309 667 L 308 666 L 298 666 L 297 669 L 295 671 L 294 675 L 290 679 L 285 680 L 283 678 L 284 680 L 291 679 L 299 669 L 302 669 L 305 672 L 306 675 L 306 681 L 310 683 L 317 682 L 318 681 L 316 677 L 316 674 L 320 670 L 327 670 L 331 673 L 331 678 L 329 683 L 331 685 L 334 686 L 381 686 L 382 685 L 402 685 L 410 682 L 413 678 L 416 671 L 416 663 L 411 663 L 409 661 L 409 633 L 412 629 L 412 624 L 414 621 L 414 617 L 418 609 L 434 595 L 433 590 L 437 585 L 441 585 L 449 582 L 454 578 L 459 576 L 466 570 L 478 564 L 489 554 L 500 538 L 504 528 L 504 525 L 506 519 L 509 514 L 509 511 L 508 510 L 501 510 L 500 511 L 498 510 L 495 510 L 494 511 L 486 510 L 481 512 L 479 510 L 480 507 L 480 501 L 482 499 L 488 499 L 496 492 L 496 489 L 494 487 L 494 485 L 491 482 L 480 474 L 478 468 L 472 464 L 463 454 L 463 440 L 466 437 L 468 433 L 468 430 L 470 425 L 470 419 L 471 418 L 471 408 L 470 405 L 465 399 L 461 398 L 458 400 L 453 392 L 450 391 L 439 382 L 438 380 L 438 376 L 441 373 L 443 373 L 453 378 L 459 378 L 461 376 L 463 376 L 467 381 L 471 378 L 472 374 L 475 371 L 477 371 L 481 375 L 484 383 L 484 386 L 487 391 L 487 395 L 489 400 L 489 407 L 490 408 L 490 430 L 486 434 L 484 447 L 482 449 L 483 450 L 485 449 L 490 449 L 495 454 L 496 468 L 500 473 L 507 473 L 508 474 L 512 466 L 516 461 L 517 461 L 525 469 L 528 469 L 530 472 L 532 472 L 535 469 L 539 460 L 541 458 L 548 459 L 550 461 L 550 465 L 547 472 L 548 473 L 552 470 L 553 466 L 555 463 L 555 460 L 560 453 L 562 453 L 564 455 L 565 459 L 568 462 L 570 462 L 573 459 L 575 455 L 575 452 L 576 451 L 576 438 L 575 437 L 575 428 L 574 427 L 574 415 L 572 411 L 571 403 L 570 402 L 570 399 L 574 394 L 572 391 L 572 385 L 571 384 L 571 368 L 569 362 L 569 355 L 561 343 L 563 337 L 553 332 L 548 327 L 545 320 L 542 317 L 523 311 L 520 308 L 521 303 L 519 301 L 506 300 L 505 299 L 498 298 L 496 296 L 497 293 L 493 290 L 473 290 L 472 289 L 467 289 L 463 287 L 453 287 L 452 288 L 445 289 L 434 295 L 431 295 L 429 293 L 429 291 L 435 285 L 438 285 L 446 278 L 449 277 L 454 272 L 457 265 L 460 262 L 465 265 L 469 261 L 472 256 L 474 242 L 476 240 L 480 242 L 481 241 L 480 222 L 482 220 L 487 222 L 488 220 L 487 219 L 487 216 L 482 206 L 481 200 L 483 198 L 489 199 L 490 196 L 484 188 L 477 181 L 477 178 L 479 176 L 485 176 L 486 174 L 482 170 L 472 163 L 471 160 L 474 156 L 467 145 L 464 138 L 455 127 L 455 125 L 463 119 L 471 109 L 472 106 L 472 96 L 471 95 Z M 434 482 L 436 481 L 440 485 L 450 489 L 451 492 L 449 493 L 440 489 L 434 483 Z M 445 481 L 446 480 L 450 480 L 453 478 L 458 479 L 460 481 L 460 483 L 458 485 L 457 484 L 455 486 L 450 486 L 446 484 Z M 456 445 L 460 448 L 460 450 L 458 452 L 456 452 L 454 450 L 454 447 Z M 420 447 L 424 444 L 431 449 L 437 451 L 445 455 L 450 454 L 452 456 L 452 458 L 457 464 L 455 466 L 446 465 L 437 457 L 435 457 L 430 454 L 428 454 L 426 452 L 422 451 L 420 449 Z M 436 433 L 439 433 L 441 436 L 441 444 L 447 450 L 444 453 L 438 450 L 435 450 L 432 447 L 432 444 L 434 440 L 434 435 Z M 422 289 L 424 291 L 424 293 L 419 297 L 417 295 L 417 293 Z M 434 85 L 428 91 L 426 95 L 426 100 L 443 116 L 445 117 L 452 116 L 459 108 L 459 99 L 457 96 L 456 92 L 452 87 L 447 84 L 436 84 Z M 436 85 L 446 85 L 450 87 L 455 92 L 458 98 L 458 107 L 457 109 L 449 116 L 445 116 L 435 106 L 426 99 L 426 96 L 428 94 L 429 91 Z M 285 91 L 283 91 L 278 87 L 272 85 L 270 83 L 267 82 L 253 81 L 244 84 L 240 87 L 230 92 L 223 100 L 228 94 L 235 89 L 247 83 L 254 82 L 255 81 L 266 82 L 275 86 L 283 91 Z M 470 89 L 465 81 L 458 75 L 451 71 L 445 70 L 444 69 L 434 69 L 425 73 L 415 82 L 413 86 L 413 89 L 410 92 L 408 92 L 403 89 L 397 87 L 393 87 L 387 85 L 380 85 L 379 84 L 363 85 L 361 83 L 362 80 L 362 76 L 361 75 L 359 75 L 356 77 L 349 85 L 344 84 L 338 79 L 330 77 L 329 79 L 331 82 L 331 86 L 327 89 L 321 89 L 320 88 L 313 87 L 311 89 L 311 91 L 308 94 L 297 99 L 294 99 L 282 106 L 280 106 L 276 101 L 267 95 L 260 94 L 259 93 L 249 95 L 241 99 L 235 104 L 230 112 L 229 117 L 229 115 L 232 109 L 240 100 L 249 95 L 252 95 L 253 94 L 263 94 L 272 98 L 280 106 L 280 107 L 284 110 L 284 113 L 279 121 L 279 127 L 281 129 L 283 129 L 299 117 L 299 114 L 296 110 L 294 109 L 288 110 L 285 109 L 284 106 L 290 101 L 292 101 L 300 97 L 303 97 L 311 92 L 314 88 L 317 88 L 318 89 L 328 89 L 330 88 L 332 84 L 331 81 L 332 78 L 337 79 L 341 83 L 345 85 L 349 85 L 351 84 L 354 80 L 359 77 L 361 79 L 361 84 L 363 86 L 365 85 L 384 85 L 390 87 L 395 87 L 410 93 L 413 90 L 413 87 L 415 83 L 423 75 L 435 69 L 444 69 L 450 71 L 460 77 L 467 84 L 470 90 Z M 295 110 L 299 114 L 299 117 L 296 120 L 294 120 L 284 128 L 281 128 L 279 126 L 279 122 L 282 116 L 286 112 L 290 110 Z M 325 67 L 320 71 L 319 74 L 316 77 L 306 80 L 304 82 L 302 82 L 298 86 L 287 90 L 296 87 L 309 79 L 315 77 L 318 77 L 320 71 Z M 431 59 L 428 59 L 423 61 L 414 67 L 409 73 L 404 77 L 396 76 L 405 77 L 416 66 L 428 59 Z M 433 58 L 450 58 L 451 59 L 454 59 L 466 66 L 478 77 L 481 83 L 483 89 L 483 92 L 483 89 L 481 83 L 477 75 L 473 70 L 470 69 L 461 62 L 454 59 L 451 59 L 450 58 Z" fill="#D8D8D8" fill-rule="evenodd"/><path d="M 532 490 L 530 490 L 528 492 L 527 502 L 530 500 L 531 497 L 533 495 L 533 491 Z M 435 482 L 440 488 L 450 492 L 450 490 L 440 486 Z M 421 447 L 422 450 L 426 451 L 428 453 L 430 453 L 435 456 L 437 456 L 446 464 L 450 464 L 451 465 L 455 465 L 456 464 L 451 458 L 450 455 L 447 456 L 442 455 L 437 452 L 431 450 L 424 445 Z M 401 386 L 403 390 L 407 393 L 408 392 L 404 387 Z M 266 379 L 265 378 L 262 378 L 258 381 L 253 391 L 256 391 L 263 385 Z M 394 294 L 391 293 L 388 295 L 382 296 L 379 298 L 375 298 L 371 300 L 365 300 L 361 302 L 355 302 L 354 303 L 335 303 L 334 302 L 329 302 L 328 301 L 319 300 L 317 302 L 317 304 L 322 309 L 337 319 L 350 325 L 356 325 L 370 317 L 377 309 L 384 305 Z M 422 290 L 418 293 L 419 296 L 423 293 Z M 281 288 L 281 289 L 288 295 L 293 298 L 294 297 L 293 294 L 289 290 L 283 287 Z M 72 211 L 70 213 L 70 220 L 75 225 L 81 228 L 84 228 L 86 226 L 86 220 L 85 217 L 79 211 L 76 210 Z M 147 203 L 138 195 L 130 191 L 120 190 L 111 193 L 103 200 L 95 212 L 93 218 L 93 231 L 100 239 L 109 242 L 116 241 L 130 235 L 141 228 L 148 220 L 150 215 L 150 209 Z M 245 192 L 242 201 L 243 203 L 247 206 L 254 205 L 263 197 L 266 192 L 269 193 L 268 204 L 272 214 L 279 220 L 281 220 L 289 225 L 292 238 L 295 243 L 296 247 L 301 255 L 319 274 L 322 275 L 324 277 L 327 277 L 332 279 L 345 279 L 352 276 L 355 273 L 359 271 L 367 263 L 372 252 L 372 249 L 375 240 L 375 233 L 376 232 L 376 210 L 375 209 L 374 201 L 370 195 L 368 195 L 366 197 L 365 200 L 358 207 L 352 210 L 347 211 L 344 213 L 340 213 L 339 214 L 321 214 L 320 213 L 314 213 L 309 211 L 302 211 L 294 216 L 288 217 L 282 214 L 277 208 L 276 202 L 275 201 L 275 198 L 276 197 L 276 187 L 275 186 L 272 186 L 269 188 L 265 183 L 257 183 L 250 186 Z M 270 190 L 273 187 L 275 189 L 275 205 L 278 211 L 282 215 L 286 217 L 294 217 L 303 212 L 310 212 L 311 213 L 323 214 L 324 215 L 337 215 L 338 214 L 343 214 L 358 208 L 365 201 L 366 198 L 369 196 L 374 202 L 376 222 L 375 223 L 375 236 L 374 237 L 373 246 L 368 260 L 362 267 L 360 265 L 367 251 L 367 247 L 368 246 L 367 241 L 360 234 L 353 231 L 347 231 L 346 232 L 343 232 L 329 240 L 324 244 L 318 251 L 317 254 L 317 260 L 321 267 L 326 273 L 323 275 L 318 272 L 305 259 L 296 246 L 291 233 L 290 225 L 287 222 L 285 222 L 279 219 L 272 213 L 269 206 L 269 194 L 270 193 Z M 159 171 L 157 171 L 152 176 L 149 184 L 149 190 L 150 193 L 153 196 L 158 194 L 164 187 L 164 178 L 163 175 Z M 383 177 L 383 183 L 388 189 L 401 194 L 405 194 L 406 195 L 422 194 L 426 192 L 430 187 L 430 182 L 428 178 L 423 173 L 416 170 L 410 170 L 409 169 L 398 169 L 397 170 L 393 170 L 388 172 Z M 313 158 L 313 159 L 326 159 L 329 161 L 333 161 L 334 162 L 336 161 L 334 158 L 331 157 L 316 157 Z M 283 149 L 280 153 L 277 161 L 277 169 L 280 173 L 283 173 L 284 174 L 280 179 L 279 182 L 279 187 L 280 188 L 280 191 L 282 194 L 287 199 L 297 204 L 306 204 L 321 198 L 329 189 L 330 186 L 329 178 L 322 172 L 316 170 L 312 170 L 311 169 L 292 171 L 290 169 L 292 167 L 294 162 L 294 156 L 292 151 L 288 148 Z M 280 180 L 286 174 L 294 171 L 298 171 L 299 170 L 313 170 L 314 171 L 320 172 L 328 178 L 329 180 L 329 187 L 325 193 L 319 198 L 310 202 L 307 202 L 301 204 L 300 203 L 296 203 L 290 200 L 282 192 L 280 189 Z M 289 149 L 293 154 L 293 157 L 294 158 L 293 160 L 293 164 L 288 170 L 284 172 L 280 172 L 278 170 L 278 159 L 279 156 L 285 149 Z M 367 143 L 363 148 L 362 155 L 361 156 L 361 161 L 362 162 L 363 168 L 367 172 L 371 173 L 374 172 L 377 169 L 380 162 L 380 154 L 378 149 L 372 143 Z M 369 143 L 371 143 L 376 147 L 380 155 L 379 164 L 377 168 L 372 172 L 368 172 L 364 168 L 362 164 L 362 152 L 364 149 L 364 147 Z M 298 114 L 295 111 L 290 111 L 286 113 L 283 116 L 280 122 L 280 126 L 281 127 L 284 127 L 294 119 L 296 119 L 298 117 Z M 294 111 L 297 114 L 297 116 L 294 119 L 291 120 L 283 126 L 281 124 L 282 119 L 288 113 Z M 258 110 L 251 110 L 247 113 L 243 121 L 243 128 L 246 134 L 249 137 L 254 137 L 257 134 L 258 131 L 260 129 L 260 127 L 263 124 L 267 117 L 263 112 Z M 366 105 L 366 108 L 369 110 L 377 112 L 384 116 L 386 116 L 388 114 L 388 110 L 387 108 L 379 102 L 376 101 L 370 101 L 368 102 Z M 366 106 L 370 102 L 377 102 L 383 105 L 387 109 L 387 113 L 385 115 L 383 115 L 376 111 L 368 109 Z M 436 86 L 430 91 L 429 94 L 427 96 L 427 99 L 435 105 L 445 115 L 449 115 L 452 113 L 457 107 L 457 98 L 454 92 L 450 88 L 446 86 Z M 450 59 L 432 59 L 431 60 L 428 60 L 416 67 L 405 78 L 400 78 L 391 75 L 374 74 L 372 72 L 370 67 L 366 64 L 360 64 L 357 65 L 348 72 L 345 72 L 342 70 L 333 67 L 326 67 L 321 71 L 320 76 L 318 78 L 315 78 L 309 80 L 300 86 L 285 92 L 283 92 L 269 84 L 262 83 L 261 82 L 255 82 L 254 83 L 247 84 L 235 90 L 228 95 L 223 101 L 219 109 L 217 115 L 217 119 L 216 120 L 216 129 L 217 130 L 218 137 L 224 147 L 234 156 L 234 160 L 228 171 L 227 181 L 219 193 L 219 202 L 222 208 L 221 214 L 220 215 L 220 224 L 224 228 L 225 236 L 226 237 L 226 243 L 224 245 L 221 246 L 216 246 L 212 242 L 207 232 L 202 228 L 196 228 L 186 218 L 179 209 L 177 203 L 178 202 L 179 194 L 180 193 L 180 175 L 179 174 L 178 168 L 174 161 L 164 155 L 156 155 L 150 157 L 146 153 L 143 147 L 133 139 L 130 138 L 122 138 L 118 140 L 112 146 L 109 147 L 101 143 L 89 143 L 85 145 L 82 148 L 78 157 L 78 163 L 76 165 L 71 166 L 64 170 L 60 175 L 58 181 L 58 192 L 60 195 L 60 199 L 54 206 L 52 211 L 52 220 L 55 228 L 61 237 L 77 253 L 88 260 L 92 264 L 95 275 L 99 281 L 99 283 L 101 285 L 103 290 L 115 307 L 127 319 L 133 322 L 137 326 L 138 335 L 140 339 L 146 344 L 161 352 L 163 354 L 163 357 L 165 361 L 171 366 L 179 369 L 182 369 L 186 371 L 194 380 L 198 382 L 205 383 L 212 389 L 219 392 L 223 392 L 229 394 L 231 396 L 231 399 L 228 408 L 228 417 L 221 430 L 221 434 L 220 435 L 221 437 L 221 446 L 219 449 L 216 458 L 216 467 L 218 471 L 218 492 L 220 497 L 223 501 L 224 507 L 225 508 L 225 512 L 231 521 L 232 527 L 236 537 L 239 540 L 243 547 L 247 551 L 247 561 L 246 562 L 246 566 L 241 576 L 241 583 L 242 584 L 242 589 L 243 590 L 244 597 L 247 603 L 251 607 L 253 612 L 261 620 L 265 622 L 268 625 L 279 630 L 281 629 L 287 622 L 293 625 L 296 629 L 296 631 L 282 646 L 282 648 L 276 659 L 270 664 L 267 662 L 265 662 L 263 664 L 263 671 L 264 672 L 264 677 L 266 680 L 266 682 L 271 688 L 277 691 L 280 691 L 285 693 L 289 693 L 294 695 L 298 695 L 303 697 L 308 697 L 309 698 L 314 698 L 315 699 L 322 699 L 323 700 L 367 700 L 368 699 L 377 699 L 378 698 L 385 698 L 386 697 L 393 697 L 394 696 L 406 695 L 407 694 L 410 694 L 419 691 L 424 685 L 430 670 L 430 662 L 427 654 L 427 650 L 430 646 L 432 646 L 434 648 L 437 649 L 450 649 L 455 647 L 460 647 L 469 643 L 472 640 L 476 638 L 482 632 L 483 628 L 489 616 L 488 600 L 487 599 L 487 581 L 490 574 L 496 566 L 498 561 L 505 551 L 515 531 L 519 525 L 527 517 L 533 514 L 541 506 L 543 503 L 545 496 L 550 488 L 554 485 L 572 476 L 584 465 L 591 451 L 591 448 L 592 447 L 592 425 L 591 424 L 591 419 L 590 418 L 590 407 L 595 397 L 595 389 L 591 380 L 589 369 L 587 366 L 587 361 L 583 349 L 579 341 L 579 338 L 576 332 L 576 330 L 573 326 L 568 323 L 563 318 L 551 309 L 538 304 L 536 302 L 529 299 L 524 295 L 522 295 L 506 286 L 504 286 L 496 282 L 493 282 L 488 279 L 486 279 L 479 273 L 478 269 L 482 261 L 490 249 L 491 243 L 492 242 L 492 238 L 500 229 L 500 219 L 498 214 L 498 210 L 502 205 L 503 200 L 499 191 L 497 189 L 497 186 L 496 185 L 499 178 L 499 174 L 497 170 L 494 168 L 488 161 L 484 150 L 472 132 L 472 128 L 479 120 L 484 106 L 483 93 L 482 92 L 482 89 L 480 83 L 477 77 L 471 71 L 456 61 Z M 436 621 L 437 623 L 433 629 L 429 632 L 427 630 L 427 628 L 434 621 Z M 286 599 L 288 602 L 288 605 L 286 608 L 284 607 L 284 600 Z M 471 588 L 473 590 L 474 593 L 474 613 L 475 614 L 475 621 L 469 628 L 466 628 L 464 626 L 463 620 L 460 617 L 454 617 L 451 614 L 450 611 L 450 604 L 458 596 L 465 592 L 469 588 Z M 283 574 L 286 574 L 293 580 L 293 592 L 290 596 L 286 593 L 285 590 L 279 583 L 280 577 Z M 261 560 L 263 560 L 267 563 L 270 569 L 271 574 L 280 592 L 281 601 L 282 602 L 282 611 L 280 613 L 272 606 L 268 598 L 257 586 L 256 583 L 257 563 Z M 443 377 L 445 377 L 451 380 L 457 380 L 458 381 L 462 380 L 465 383 L 468 384 L 473 379 L 474 376 L 476 374 L 479 375 L 481 380 L 481 383 L 484 389 L 485 398 L 487 401 L 487 407 L 488 408 L 488 424 L 487 426 L 482 430 L 483 442 L 480 448 L 480 454 L 483 455 L 487 452 L 490 452 L 493 455 L 493 468 L 494 471 L 498 476 L 501 477 L 504 480 L 503 485 L 501 487 L 500 487 L 492 479 L 487 477 L 481 471 L 478 465 L 476 463 L 473 462 L 467 456 L 466 453 L 466 442 L 470 435 L 470 430 L 471 429 L 471 426 L 473 421 L 473 415 L 474 414 L 474 402 L 470 395 L 470 393 L 464 389 L 456 389 L 454 390 L 451 388 L 449 388 L 441 380 Z M 448 69 L 455 72 L 463 78 L 469 85 L 471 89 L 472 95 L 473 96 L 473 106 L 472 109 L 468 115 L 456 125 L 456 127 L 465 138 L 468 145 L 475 156 L 472 160 L 473 163 L 482 169 L 487 174 L 485 177 L 479 177 L 478 178 L 478 181 L 490 194 L 491 198 L 489 200 L 486 199 L 483 199 L 482 200 L 483 206 L 485 209 L 485 211 L 488 216 L 488 219 L 489 220 L 487 223 L 483 221 L 481 222 L 482 241 L 480 243 L 477 241 L 475 242 L 474 245 L 474 252 L 472 258 L 465 266 L 460 263 L 458 265 L 455 272 L 449 278 L 446 279 L 441 284 L 438 286 L 435 286 L 430 291 L 430 293 L 431 294 L 434 294 L 445 288 L 452 287 L 453 286 L 463 286 L 467 288 L 472 288 L 473 289 L 493 289 L 498 293 L 497 294 L 498 297 L 505 298 L 506 299 L 519 300 L 522 303 L 521 308 L 523 310 L 542 316 L 546 320 L 549 327 L 553 331 L 562 335 L 564 337 L 562 343 L 570 355 L 570 362 L 572 368 L 572 384 L 573 385 L 573 391 L 575 394 L 571 399 L 571 402 L 572 403 L 573 411 L 575 415 L 575 427 L 576 428 L 576 437 L 577 438 L 577 451 L 576 452 L 576 455 L 574 459 L 570 463 L 568 463 L 564 459 L 563 455 L 560 454 L 556 460 L 556 463 L 554 466 L 553 470 L 548 474 L 546 472 L 549 465 L 549 461 L 544 459 L 541 459 L 536 469 L 532 473 L 530 473 L 528 470 L 525 470 L 517 462 L 516 462 L 513 466 L 510 473 L 508 475 L 507 474 L 500 474 L 495 468 L 494 454 L 490 450 L 485 450 L 483 451 L 481 449 L 483 447 L 485 434 L 489 430 L 489 408 L 488 407 L 488 400 L 486 395 L 486 391 L 483 386 L 483 383 L 480 375 L 477 372 L 475 372 L 473 374 L 472 378 L 467 382 L 463 377 L 461 377 L 459 379 L 453 379 L 443 374 L 441 374 L 439 376 L 439 380 L 440 382 L 450 390 L 453 391 L 456 394 L 458 399 L 461 397 L 465 398 L 471 405 L 472 408 L 471 425 L 470 426 L 469 433 L 467 437 L 464 440 L 464 454 L 472 463 L 476 465 L 479 468 L 481 474 L 491 481 L 495 485 L 495 487 L 497 489 L 497 492 L 488 500 L 482 500 L 481 501 L 481 507 L 480 510 L 482 511 L 486 509 L 490 509 L 491 510 L 494 510 L 495 509 L 498 509 L 499 510 L 501 509 L 508 509 L 510 511 L 510 514 L 507 519 L 505 525 L 505 528 L 501 538 L 490 554 L 478 565 L 466 571 L 459 577 L 454 579 L 449 583 L 445 585 L 437 586 L 434 590 L 435 595 L 419 609 L 415 617 L 415 621 L 413 624 L 413 629 L 410 633 L 410 661 L 411 662 L 416 662 L 417 663 L 417 671 L 416 674 L 410 683 L 402 686 L 382 686 L 381 687 L 334 687 L 331 686 L 328 683 L 330 678 L 330 673 L 327 671 L 320 671 L 317 674 L 317 677 L 319 681 L 317 683 L 310 684 L 307 683 L 305 681 L 305 675 L 304 672 L 302 670 L 299 670 L 291 680 L 284 681 L 282 679 L 282 673 L 283 672 L 284 666 L 286 662 L 298 651 L 307 648 L 314 648 L 315 647 L 332 648 L 333 649 L 338 649 L 339 650 L 349 650 L 350 649 L 347 646 L 343 644 L 322 638 L 317 634 L 310 616 L 310 610 L 308 606 L 308 600 L 306 597 L 306 594 L 305 593 L 309 588 L 309 583 L 307 579 L 313 571 L 315 565 L 318 560 L 322 556 L 324 552 L 332 544 L 341 538 L 365 526 L 375 523 L 377 520 L 374 519 L 364 519 L 363 520 L 356 520 L 344 524 L 317 544 L 296 569 L 286 569 L 281 565 L 279 560 L 282 557 L 284 557 L 284 554 L 282 552 L 280 552 L 278 554 L 274 554 L 269 548 L 249 529 L 247 522 L 245 520 L 244 517 L 243 506 L 242 505 L 239 508 L 236 507 L 236 494 L 238 488 L 238 483 L 236 482 L 231 486 L 228 485 L 229 478 L 235 465 L 235 462 L 232 461 L 229 463 L 227 461 L 227 458 L 230 451 L 235 445 L 238 439 L 238 435 L 237 434 L 231 435 L 229 432 L 232 427 L 245 413 L 245 411 L 244 410 L 241 410 L 239 407 L 250 394 L 251 378 L 256 367 L 256 361 L 257 360 L 257 357 L 260 348 L 260 344 L 258 342 L 256 344 L 253 353 L 251 356 L 251 358 L 245 365 L 240 373 L 237 384 L 235 386 L 225 384 L 222 381 L 223 380 L 223 374 L 218 369 L 216 369 L 213 366 L 209 369 L 209 372 L 207 374 L 205 374 L 202 365 L 193 362 L 186 362 L 177 358 L 174 355 L 182 349 L 159 340 L 156 338 L 152 333 L 153 332 L 159 332 L 165 334 L 175 334 L 181 337 L 190 336 L 192 335 L 192 333 L 191 332 L 185 332 L 184 331 L 177 330 L 175 328 L 173 328 L 170 326 L 163 326 L 162 327 L 157 326 L 155 324 L 147 320 L 143 316 L 144 315 L 150 315 L 147 311 L 141 308 L 136 304 L 136 306 L 139 310 L 143 313 L 142 316 L 138 314 L 130 307 L 127 302 L 116 290 L 110 279 L 110 277 L 108 275 L 102 257 L 98 253 L 84 245 L 69 230 L 63 219 L 62 213 L 67 207 L 74 206 L 77 203 L 83 205 L 89 205 L 93 201 L 93 195 L 86 187 L 81 184 L 75 183 L 73 186 L 73 188 L 70 190 L 68 186 L 68 182 L 73 176 L 77 175 L 83 178 L 95 188 L 98 187 L 106 187 L 111 183 L 112 181 L 112 175 L 107 166 L 103 162 L 99 160 L 95 160 L 93 161 L 91 167 L 90 168 L 88 167 L 87 164 L 88 158 L 94 152 L 97 151 L 100 152 L 109 161 L 110 164 L 120 176 L 124 176 L 130 180 L 135 180 L 138 177 L 139 175 L 139 170 L 138 169 L 137 163 L 135 160 L 130 155 L 124 155 L 122 153 L 122 151 L 125 148 L 129 148 L 135 154 L 136 157 L 142 165 L 143 169 L 147 176 L 150 174 L 154 166 L 156 164 L 161 164 L 168 171 L 170 177 L 170 193 L 169 194 L 168 200 L 166 203 L 166 209 L 188 235 L 192 242 L 194 244 L 196 244 L 197 241 L 200 239 L 207 249 L 211 258 L 216 264 L 219 263 L 220 257 L 223 255 L 227 260 L 233 273 L 235 275 L 237 275 L 238 272 L 241 270 L 247 278 L 249 283 L 252 286 L 258 281 L 263 286 L 271 298 L 274 301 L 276 301 L 278 299 L 279 294 L 275 286 L 269 277 L 257 266 L 254 261 L 252 261 L 249 263 L 247 263 L 245 261 L 243 257 L 244 239 L 243 238 L 240 238 L 237 240 L 234 236 L 235 226 L 236 225 L 237 219 L 236 218 L 232 218 L 230 216 L 230 214 L 236 201 L 235 200 L 230 200 L 228 198 L 228 196 L 239 183 L 239 177 L 238 176 L 239 170 L 244 161 L 244 159 L 247 153 L 246 150 L 238 146 L 231 139 L 227 130 L 227 119 L 228 118 L 228 115 L 234 104 L 238 100 L 249 94 L 259 92 L 271 96 L 276 100 L 280 105 L 282 105 L 294 98 L 297 98 L 308 93 L 310 91 L 310 89 L 313 86 L 316 86 L 321 88 L 327 88 L 330 86 L 330 82 L 328 78 L 330 76 L 338 78 L 344 83 L 349 84 L 356 76 L 359 74 L 361 74 L 363 76 L 363 80 L 362 81 L 363 84 L 368 84 L 369 83 L 387 84 L 388 85 L 397 86 L 403 88 L 408 91 L 410 91 L 412 89 L 412 86 L 414 82 L 425 72 L 434 68 L 444 68 L 445 69 Z M 451 60 L 467 69 L 478 80 L 481 86 L 481 89 L 483 94 L 483 109 L 480 117 L 470 130 L 471 133 L 484 151 L 487 161 L 499 174 L 498 180 L 496 182 L 496 187 L 502 198 L 502 204 L 497 209 L 499 219 L 500 220 L 500 227 L 499 230 L 492 236 L 491 245 L 488 252 L 485 255 L 480 264 L 474 270 L 473 270 L 472 272 L 474 274 L 476 274 L 489 281 L 499 284 L 508 289 L 510 289 L 512 291 L 518 293 L 522 296 L 524 296 L 538 305 L 547 308 L 552 312 L 555 313 L 564 321 L 568 323 L 575 330 L 586 361 L 586 365 L 592 382 L 592 386 L 594 389 L 594 397 L 589 407 L 589 415 L 590 416 L 591 426 L 592 427 L 592 446 L 591 447 L 591 450 L 584 464 L 575 473 L 568 478 L 551 486 L 549 488 L 545 495 L 543 502 L 539 508 L 535 512 L 529 516 L 527 516 L 521 522 L 514 532 L 504 552 L 495 565 L 492 571 L 487 577 L 486 580 L 486 595 L 487 596 L 487 604 L 488 605 L 488 617 L 484 624 L 484 626 L 481 632 L 472 640 L 461 646 L 454 646 L 445 649 L 440 649 L 437 648 L 435 646 L 435 644 L 439 640 L 436 636 L 436 633 L 437 632 L 437 628 L 440 625 L 443 624 L 448 628 L 454 628 L 459 624 L 465 629 L 470 629 L 473 627 L 476 621 L 476 614 L 475 613 L 475 587 L 473 584 L 471 584 L 461 591 L 448 602 L 446 602 L 444 604 L 443 607 L 433 616 L 425 629 L 425 631 L 433 639 L 433 640 L 429 643 L 426 649 L 426 654 L 429 661 L 429 671 L 427 677 L 424 681 L 422 686 L 417 691 L 409 694 L 404 694 L 403 695 L 398 695 L 397 696 L 391 696 L 390 697 L 384 697 L 383 698 L 376 698 L 375 699 L 366 699 L 365 700 L 327 700 L 326 699 L 317 699 L 316 698 L 304 697 L 303 696 L 299 696 L 290 693 L 286 693 L 285 692 L 278 691 L 272 688 L 268 684 L 266 680 L 264 668 L 267 666 L 270 669 L 270 672 L 272 674 L 274 673 L 274 671 L 272 668 L 272 664 L 278 657 L 286 643 L 297 633 L 297 629 L 295 625 L 291 622 L 285 615 L 287 612 L 289 614 L 292 612 L 291 598 L 293 595 L 294 579 L 293 577 L 289 574 L 289 572 L 290 571 L 297 570 L 305 561 L 308 555 L 321 542 L 326 539 L 339 528 L 348 523 L 351 523 L 354 521 L 362 521 L 363 520 L 367 520 L 369 522 L 366 525 L 357 529 L 355 531 L 353 531 L 351 533 L 349 533 L 343 536 L 331 544 L 324 551 L 322 555 L 313 565 L 313 570 L 307 578 L 308 587 L 305 591 L 305 598 L 306 599 L 307 609 L 313 625 L 313 628 L 315 634 L 318 637 L 324 640 L 327 640 L 328 641 L 331 641 L 332 642 L 335 642 L 344 645 L 346 648 L 345 649 L 336 649 L 330 647 L 310 647 L 309 648 L 304 648 L 303 649 L 297 650 L 285 663 L 281 678 L 284 681 L 291 681 L 298 675 L 300 677 L 301 681 L 305 684 L 321 684 L 322 681 L 320 678 L 320 675 L 322 673 L 326 673 L 328 675 L 328 678 L 325 682 L 325 684 L 327 686 L 330 686 L 331 687 L 374 688 L 375 687 L 399 687 L 400 686 L 404 686 L 405 685 L 411 684 L 415 680 L 419 669 L 419 660 L 418 659 L 417 651 L 415 647 L 415 640 L 414 639 L 414 628 L 415 627 L 416 618 L 420 610 L 426 604 L 449 585 L 459 579 L 468 572 L 475 569 L 479 566 L 493 552 L 498 545 L 503 536 L 503 534 L 506 528 L 507 522 L 512 513 L 513 504 L 511 499 L 509 485 L 510 484 L 511 473 L 514 466 L 517 464 L 520 467 L 521 469 L 521 473 L 523 477 L 526 479 L 537 470 L 540 464 L 544 461 L 546 463 L 546 469 L 543 473 L 543 475 L 546 476 L 552 473 L 558 464 L 561 465 L 569 465 L 571 464 L 574 461 L 578 451 L 578 438 L 577 437 L 577 431 L 576 430 L 576 415 L 575 414 L 575 410 L 573 405 L 573 399 L 575 397 L 575 393 L 573 389 L 574 369 L 572 365 L 572 357 L 571 354 L 565 346 L 565 343 L 567 340 L 567 337 L 562 334 L 556 332 L 553 329 L 552 325 L 554 323 L 554 321 L 550 317 L 546 315 L 539 314 L 536 312 L 533 312 L 528 310 L 525 307 L 525 304 L 522 300 L 505 298 L 502 295 L 502 293 L 496 289 L 493 288 L 471 288 L 465 285 L 455 285 L 454 286 L 449 286 L 448 287 L 445 287 L 444 286 L 448 281 L 454 278 L 456 278 L 468 269 L 469 264 L 471 262 L 475 253 L 475 245 L 477 243 L 478 244 L 481 244 L 483 241 L 481 225 L 483 223 L 486 225 L 489 224 L 489 217 L 483 202 L 485 200 L 488 202 L 490 202 L 491 201 L 491 195 L 486 188 L 480 182 L 480 179 L 481 178 L 487 178 L 488 177 L 488 174 L 482 168 L 478 166 L 474 162 L 477 159 L 477 157 L 473 152 L 465 137 L 457 127 L 457 126 L 469 115 L 473 108 L 473 94 L 470 88 L 470 86 L 467 81 L 458 73 L 451 69 L 443 68 L 442 67 L 435 67 L 432 69 L 427 70 L 421 74 L 414 81 L 412 84 L 411 88 L 409 90 L 403 87 L 397 86 L 396 85 L 392 85 L 391 84 L 385 84 L 384 83 L 365 83 L 363 81 L 364 79 L 364 74 L 363 73 L 358 73 L 355 75 L 349 83 L 345 83 L 338 77 L 329 75 L 327 77 L 328 81 L 330 84 L 328 87 L 312 86 L 306 93 L 295 98 L 292 98 L 284 102 L 282 104 L 271 95 L 265 92 L 257 91 L 256 92 L 252 92 L 247 95 L 241 97 L 232 105 L 227 116 L 227 132 L 230 139 L 238 147 L 241 148 L 246 152 L 244 160 L 238 171 L 238 183 L 229 193 L 227 198 L 229 201 L 233 201 L 234 202 L 233 207 L 230 213 L 230 218 L 231 219 L 234 219 L 236 221 L 235 227 L 234 228 L 234 239 L 236 241 L 238 241 L 241 239 L 243 241 L 242 255 L 245 263 L 247 265 L 249 265 L 251 263 L 254 263 L 257 266 L 259 270 L 271 282 L 273 286 L 276 289 L 278 294 L 278 297 L 276 299 L 273 299 L 271 297 L 264 286 L 258 279 L 256 279 L 252 284 L 248 280 L 245 274 L 241 269 L 235 273 L 232 270 L 226 257 L 223 254 L 220 255 L 219 260 L 216 263 L 211 257 L 205 244 L 199 236 L 197 237 L 197 241 L 196 242 L 194 242 L 190 238 L 188 234 L 166 208 L 166 205 L 169 200 L 170 192 L 171 191 L 171 181 L 170 180 L 169 172 L 167 168 L 163 164 L 156 163 L 153 166 L 151 171 L 147 174 L 144 170 L 141 161 L 137 157 L 134 151 L 131 148 L 126 147 L 122 149 L 120 151 L 119 154 L 119 165 L 120 166 L 120 170 L 118 172 L 112 165 L 107 157 L 102 152 L 100 151 L 94 151 L 89 155 L 87 159 L 87 168 L 93 182 L 91 183 L 80 175 L 73 175 L 71 176 L 68 180 L 68 189 L 74 201 L 74 203 L 72 205 L 67 206 L 62 211 L 62 219 L 66 227 L 72 235 L 81 244 L 95 253 L 98 254 L 101 257 L 102 261 L 105 266 L 109 279 L 117 293 L 131 310 L 143 319 L 151 323 L 155 327 L 153 330 L 149 330 L 148 331 L 148 333 L 156 340 L 162 343 L 175 347 L 178 350 L 173 354 L 173 356 L 175 358 L 187 363 L 192 363 L 198 365 L 200 367 L 200 372 L 203 375 L 205 376 L 210 376 L 211 377 L 217 377 L 220 380 L 221 383 L 231 387 L 237 388 L 239 385 L 241 379 L 241 376 L 244 369 L 252 361 L 254 355 L 254 352 L 256 350 L 258 351 L 255 359 L 255 368 L 250 381 L 249 394 L 238 407 L 238 410 L 239 411 L 242 411 L 243 414 L 230 428 L 228 432 L 231 436 L 235 435 L 237 437 L 236 442 L 230 449 L 229 453 L 227 456 L 227 463 L 233 465 L 231 473 L 228 479 L 228 488 L 230 489 L 234 485 L 237 487 L 236 495 L 235 496 L 235 506 L 236 509 L 238 511 L 241 510 L 243 512 L 243 515 L 247 527 L 252 538 L 259 546 L 260 549 L 264 554 L 266 555 L 271 555 L 275 557 L 281 566 L 282 571 L 280 573 L 279 576 L 276 578 L 274 576 L 273 572 L 270 567 L 270 565 L 268 563 L 266 559 L 260 559 L 257 561 L 256 564 L 256 575 L 255 576 L 255 582 L 257 588 L 259 591 L 265 596 L 273 609 L 281 617 L 284 622 L 283 625 L 280 628 L 272 627 L 262 620 L 254 612 L 251 605 L 247 601 L 245 597 L 244 588 L 243 587 L 243 582 L 242 581 L 242 576 L 246 567 L 248 553 L 234 531 L 232 522 L 228 517 L 225 511 L 224 503 L 219 494 L 219 491 L 218 490 L 219 471 L 217 469 L 216 466 L 216 460 L 219 451 L 221 448 L 221 446 L 223 443 L 221 439 L 221 432 L 229 416 L 229 411 L 230 410 L 229 407 L 231 401 L 231 395 L 228 393 L 217 391 L 213 389 L 208 384 L 195 380 L 186 370 L 177 367 L 174 367 L 170 365 L 164 359 L 163 353 L 161 351 L 147 344 L 140 338 L 138 334 L 138 328 L 136 324 L 128 319 L 114 305 L 106 294 L 96 276 L 92 263 L 76 251 L 62 237 L 57 230 L 53 221 L 53 210 L 55 206 L 61 199 L 58 190 L 58 182 L 60 176 L 64 171 L 71 167 L 77 166 L 78 165 L 79 155 L 82 149 L 86 145 L 92 143 L 98 143 L 99 144 L 102 144 L 108 148 L 110 148 L 121 139 L 124 138 L 132 139 L 136 141 L 143 148 L 149 158 L 151 158 L 157 155 L 162 155 L 170 159 L 177 166 L 179 171 L 179 175 L 180 176 L 180 191 L 177 200 L 177 207 L 187 220 L 197 230 L 202 229 L 207 234 L 212 243 L 216 247 L 226 246 L 227 245 L 227 240 L 226 239 L 225 229 L 220 223 L 220 216 L 222 212 L 222 205 L 219 201 L 219 194 L 228 181 L 229 171 L 235 160 L 235 157 L 234 155 L 224 146 L 220 140 L 217 133 L 216 122 L 217 121 L 217 116 L 220 107 L 224 101 L 232 93 L 236 90 L 252 83 L 263 83 L 264 84 L 267 84 L 277 89 L 279 91 L 285 93 L 290 90 L 295 89 L 309 81 L 315 79 L 319 79 L 321 77 L 321 72 L 326 68 L 334 68 L 340 70 L 345 73 L 348 73 L 359 65 L 366 65 L 371 70 L 372 73 L 375 75 L 388 75 L 389 76 L 394 76 L 402 79 L 405 79 L 416 68 L 425 62 L 431 60 L 434 60 L 435 59 L 446 59 L 447 60 Z" fill="#B1B1B1" fill-rule="evenodd"/><path d="M 285 600 L 285 607 L 286 607 L 287 605 L 287 602 L 286 600 Z M 443 378 L 442 380 L 449 387 L 451 387 L 454 389 L 456 388 L 464 388 L 471 393 L 471 395 L 475 402 L 475 414 L 474 415 L 474 421 L 473 422 L 473 425 L 472 426 L 472 429 L 471 430 L 471 435 L 467 442 L 467 453 L 468 454 L 468 456 L 473 461 L 476 462 L 479 465 L 482 471 L 487 476 L 492 478 L 500 486 L 501 486 L 502 485 L 503 480 L 501 478 L 498 477 L 494 473 L 493 469 L 492 468 L 492 455 L 490 453 L 487 453 L 483 456 L 481 456 L 479 454 L 479 448 L 482 442 L 481 430 L 484 427 L 485 427 L 487 424 L 487 408 L 486 407 L 486 401 L 484 398 L 484 393 L 483 392 L 483 389 L 480 383 L 480 380 L 479 379 L 478 375 L 476 375 L 474 379 L 468 385 L 465 384 L 462 381 L 460 381 L 459 382 L 457 381 L 451 381 L 445 378 Z M 271 190 L 271 193 L 270 194 L 270 206 L 273 213 L 279 218 L 285 221 L 287 221 L 291 225 L 292 233 L 293 234 L 293 236 L 294 237 L 294 239 L 296 242 L 297 246 L 299 248 L 300 251 L 306 258 L 306 259 L 318 271 L 323 274 L 325 273 L 320 267 L 316 260 L 316 254 L 317 253 L 317 251 L 320 248 L 320 247 L 329 239 L 330 239 L 335 235 L 343 231 L 346 231 L 347 230 L 353 230 L 360 233 L 368 241 L 368 244 L 369 245 L 368 247 L 368 251 L 361 265 L 362 266 L 364 264 L 364 263 L 367 260 L 369 253 L 371 250 L 372 242 L 373 241 L 373 237 L 374 236 L 374 223 L 375 222 L 375 219 L 374 218 L 374 206 L 373 205 L 373 202 L 372 200 L 369 197 L 367 198 L 366 201 L 358 209 L 354 211 L 352 211 L 349 213 L 344 214 L 343 215 L 338 215 L 337 216 L 324 216 L 323 215 L 317 215 L 316 214 L 311 214 L 310 213 L 303 213 L 294 218 L 286 218 L 282 216 L 277 211 L 274 205 L 274 189 L 273 188 Z M 281 180 L 281 189 L 283 191 L 283 192 L 290 199 L 296 202 L 300 202 L 301 203 L 303 202 L 306 202 L 307 201 L 310 201 L 313 199 L 315 199 L 319 197 L 324 193 L 324 192 L 328 187 L 328 180 L 327 178 L 320 173 L 314 172 L 313 171 L 299 171 L 298 172 L 294 172 L 293 173 L 286 175 Z M 289 150 L 285 150 L 280 156 L 280 158 L 279 159 L 279 170 L 280 171 L 284 171 L 288 169 L 292 164 L 292 160 L 293 158 L 292 157 L 292 154 Z M 369 144 L 365 147 L 365 149 L 363 152 L 363 164 L 365 168 L 368 171 L 372 171 L 376 168 L 378 164 L 378 161 L 379 160 L 379 155 L 375 147 L 371 144 Z M 296 114 L 294 112 L 288 114 L 283 119 L 282 121 L 282 124 L 284 125 L 291 119 L 294 118 L 296 116 Z M 367 106 L 368 108 L 376 110 L 383 114 L 385 114 L 386 113 L 386 109 L 383 106 L 377 103 L 370 103 Z M 451 61 L 447 61 L 446 60 L 435 60 L 434 61 L 431 61 L 430 62 L 425 63 L 423 65 L 416 69 L 405 80 L 402 80 L 401 79 L 395 78 L 394 77 L 389 77 L 388 76 L 375 76 L 371 73 L 370 70 L 366 66 L 359 66 L 348 74 L 345 74 L 340 71 L 338 71 L 334 69 L 326 69 L 322 72 L 322 77 L 319 80 L 315 80 L 314 81 L 309 82 L 305 84 L 303 86 L 295 90 L 290 91 L 285 94 L 281 92 L 279 92 L 277 90 L 267 85 L 264 85 L 263 84 L 252 84 L 251 85 L 246 86 L 236 91 L 233 94 L 232 94 L 225 101 L 225 102 L 221 107 L 221 109 L 219 112 L 219 115 L 218 116 L 218 121 L 217 122 L 218 133 L 221 140 L 223 142 L 225 146 L 231 152 L 232 152 L 236 157 L 236 160 L 230 171 L 229 181 L 222 190 L 220 194 L 220 201 L 223 205 L 223 212 L 221 216 L 221 223 L 226 229 L 227 239 L 228 240 L 228 245 L 226 247 L 216 248 L 211 243 L 211 242 L 207 237 L 206 234 L 202 230 L 197 231 L 186 220 L 186 219 L 177 209 L 176 207 L 176 200 L 177 199 L 177 197 L 178 196 L 178 192 L 179 191 L 179 176 L 178 175 L 178 171 L 177 170 L 176 166 L 170 160 L 162 156 L 157 156 L 151 159 L 149 159 L 147 157 L 146 154 L 144 152 L 142 148 L 136 142 L 132 140 L 130 140 L 129 139 L 124 139 L 123 140 L 121 140 L 110 149 L 108 149 L 102 145 L 99 145 L 98 144 L 92 144 L 91 145 L 88 145 L 86 146 L 83 149 L 80 155 L 79 165 L 77 167 L 71 168 L 64 172 L 61 176 L 61 178 L 59 182 L 59 190 L 60 191 L 62 199 L 56 206 L 54 210 L 54 221 L 58 230 L 63 236 L 63 237 L 76 250 L 77 250 L 82 255 L 89 259 L 93 263 L 93 265 L 94 266 L 95 271 L 97 274 L 97 276 L 99 280 L 101 282 L 107 294 L 115 304 L 115 305 L 128 318 L 129 318 L 137 324 L 139 328 L 139 334 L 141 338 L 147 343 L 161 350 L 164 353 L 165 359 L 170 364 L 174 366 L 177 366 L 178 367 L 186 369 L 195 379 L 199 380 L 200 381 L 206 382 L 213 388 L 217 390 L 228 392 L 232 395 L 232 401 L 231 402 L 231 406 L 230 407 L 231 409 L 230 411 L 230 416 L 222 432 L 222 439 L 224 443 L 222 446 L 222 448 L 220 451 L 220 453 L 217 460 L 217 466 L 218 467 L 218 469 L 220 471 L 220 478 L 219 479 L 219 490 L 220 491 L 220 494 L 225 503 L 226 511 L 229 517 L 233 522 L 235 531 L 249 553 L 247 567 L 243 576 L 243 581 L 244 582 L 244 587 L 245 588 L 245 593 L 246 594 L 246 597 L 248 601 L 252 605 L 255 612 L 262 619 L 263 619 L 267 623 L 272 626 L 274 626 L 275 627 L 280 627 L 283 623 L 282 620 L 272 609 L 264 596 L 258 591 L 258 590 L 256 588 L 256 586 L 254 582 L 254 576 L 255 575 L 255 564 L 256 563 L 256 561 L 258 559 L 260 558 L 266 558 L 271 565 L 271 567 L 276 577 L 278 576 L 279 573 L 281 571 L 280 566 L 275 558 L 271 556 L 266 556 L 264 555 L 261 552 L 258 546 L 251 538 L 248 532 L 248 530 L 246 527 L 246 525 L 245 524 L 245 522 L 242 515 L 242 512 L 241 511 L 238 512 L 235 509 L 235 507 L 234 506 L 234 496 L 235 495 L 235 490 L 236 489 L 236 487 L 234 486 L 230 490 L 229 490 L 227 488 L 227 479 L 230 473 L 232 465 L 228 465 L 226 463 L 226 456 L 228 453 L 229 449 L 233 445 L 236 439 L 236 437 L 235 436 L 231 437 L 227 433 L 229 428 L 241 416 L 242 414 L 242 412 L 239 412 L 237 410 L 237 407 L 248 394 L 249 381 L 250 380 L 250 377 L 252 374 L 252 372 L 254 368 L 254 359 L 255 358 L 257 351 L 255 352 L 255 355 L 254 356 L 253 361 L 245 369 L 242 376 L 242 379 L 241 380 L 240 385 L 237 389 L 231 388 L 230 387 L 228 387 L 221 384 L 219 382 L 219 380 L 217 378 L 211 378 L 210 377 L 205 377 L 203 376 L 199 372 L 199 367 L 198 366 L 196 366 L 192 364 L 187 364 L 175 359 L 172 356 L 172 354 L 177 350 L 173 347 L 162 344 L 156 341 L 152 337 L 151 337 L 147 333 L 147 331 L 149 329 L 153 329 L 154 327 L 151 324 L 143 320 L 137 315 L 136 315 L 132 311 L 131 311 L 116 293 L 108 279 L 108 277 L 106 274 L 104 266 L 101 261 L 100 257 L 98 255 L 95 254 L 93 252 L 90 251 L 88 249 L 85 248 L 82 245 L 81 245 L 71 235 L 71 234 L 65 227 L 61 219 L 61 211 L 67 205 L 69 205 L 73 203 L 73 201 L 67 189 L 67 180 L 68 178 L 73 174 L 80 174 L 85 177 L 88 180 L 92 182 L 86 168 L 86 159 L 88 155 L 94 150 L 100 150 L 102 151 L 108 157 L 108 158 L 118 171 L 119 170 L 119 166 L 118 165 L 118 154 L 119 153 L 119 151 L 122 148 L 126 146 L 129 146 L 131 147 L 135 151 L 138 157 L 142 161 L 143 165 L 145 168 L 145 170 L 147 173 L 148 173 L 150 171 L 152 166 L 156 162 L 160 162 L 161 163 L 163 163 L 168 168 L 171 175 L 171 180 L 172 181 L 172 191 L 171 192 L 170 200 L 167 205 L 167 208 L 185 229 L 185 230 L 189 234 L 191 238 L 194 241 L 196 241 L 196 237 L 198 235 L 199 235 L 206 244 L 212 257 L 216 262 L 218 260 L 219 255 L 221 253 L 223 253 L 227 257 L 233 270 L 235 272 L 236 272 L 240 268 L 241 268 L 244 271 L 247 277 L 252 283 L 256 278 L 258 278 L 265 286 L 273 298 L 276 298 L 277 297 L 277 294 L 276 293 L 275 289 L 272 286 L 270 282 L 258 270 L 256 266 L 254 264 L 251 264 L 249 266 L 247 266 L 244 263 L 242 259 L 242 256 L 241 255 L 241 250 L 242 249 L 242 241 L 241 240 L 238 242 L 236 242 L 233 239 L 233 228 L 234 227 L 235 221 L 234 220 L 231 220 L 229 218 L 229 213 L 232 207 L 233 202 L 229 202 L 226 199 L 226 198 L 227 197 L 228 193 L 236 185 L 237 183 L 237 171 L 243 160 L 245 152 L 241 149 L 238 148 L 229 139 L 226 132 L 226 116 L 231 105 L 241 96 L 245 94 L 247 94 L 252 91 L 256 91 L 257 90 L 265 91 L 271 94 L 281 103 L 282 103 L 284 101 L 292 97 L 295 97 L 298 95 L 300 95 L 306 92 L 312 85 L 328 86 L 329 84 L 327 81 L 326 77 L 329 74 L 338 76 L 345 82 L 349 82 L 352 77 L 355 74 L 356 74 L 358 72 L 363 72 L 365 74 L 365 79 L 364 80 L 365 82 L 384 82 L 385 83 L 391 83 L 392 84 L 400 85 L 409 89 L 413 81 L 421 73 L 422 73 L 427 69 L 432 68 L 435 66 L 442 66 L 443 67 L 451 68 L 455 71 L 458 72 L 468 81 L 471 86 L 471 88 L 474 94 L 474 108 L 470 115 L 462 123 L 461 123 L 458 126 L 458 127 L 466 137 L 471 147 L 478 157 L 478 159 L 475 162 L 478 165 L 482 167 L 489 174 L 489 177 L 487 179 L 481 179 L 481 182 L 487 188 L 487 189 L 492 195 L 492 201 L 490 203 L 488 203 L 486 201 L 484 202 L 485 206 L 487 209 L 487 211 L 490 217 L 490 224 L 488 226 L 486 226 L 484 224 L 482 225 L 482 227 L 483 228 L 484 241 L 481 245 L 478 245 L 477 244 L 476 245 L 476 253 L 472 262 L 470 264 L 469 269 L 456 279 L 454 279 L 448 282 L 445 285 L 445 286 L 448 286 L 449 285 L 454 285 L 455 284 L 465 284 L 471 287 L 493 287 L 494 288 L 496 288 L 500 290 L 503 293 L 503 295 L 505 297 L 509 297 L 510 298 L 519 298 L 520 299 L 522 299 L 525 302 L 526 304 L 526 307 L 528 309 L 532 310 L 533 311 L 536 311 L 539 313 L 546 314 L 550 316 L 555 321 L 555 323 L 553 325 L 554 329 L 556 331 L 560 333 L 562 333 L 566 335 L 568 337 L 568 340 L 566 343 L 566 346 L 572 354 L 572 356 L 573 357 L 573 365 L 575 369 L 575 375 L 574 376 L 574 389 L 576 393 L 576 397 L 574 399 L 574 405 L 575 406 L 576 414 L 577 415 L 577 430 L 578 431 L 578 437 L 579 438 L 579 451 L 578 452 L 578 454 L 576 457 L 575 461 L 571 465 L 569 466 L 561 466 L 560 465 L 558 465 L 555 471 L 552 474 L 546 477 L 544 477 L 542 475 L 542 473 L 545 469 L 545 463 L 544 462 L 543 462 L 541 464 L 538 470 L 526 480 L 525 480 L 522 477 L 520 473 L 520 469 L 519 467 L 517 465 L 515 466 L 512 473 L 511 484 L 510 485 L 510 487 L 511 488 L 512 499 L 513 500 L 513 503 L 514 504 L 514 507 L 513 508 L 513 513 L 508 522 L 506 531 L 499 545 L 494 551 L 494 552 L 479 567 L 478 567 L 475 570 L 468 573 L 459 580 L 449 586 L 445 590 L 440 593 L 434 599 L 433 599 L 427 605 L 426 605 L 421 610 L 417 618 L 417 621 L 416 622 L 416 627 L 415 628 L 415 639 L 416 640 L 416 647 L 418 651 L 419 659 L 420 660 L 420 669 L 419 670 L 419 673 L 416 680 L 411 685 L 405 686 L 404 687 L 400 687 L 399 688 L 375 688 L 374 689 L 350 689 L 349 688 L 331 688 L 330 687 L 327 687 L 324 684 L 324 682 L 327 678 L 327 675 L 326 674 L 322 674 L 321 675 L 321 678 L 323 681 L 323 683 L 321 685 L 305 685 L 300 681 L 300 679 L 298 676 L 291 682 L 284 682 L 280 678 L 284 663 L 286 661 L 286 660 L 297 649 L 303 648 L 304 647 L 309 647 L 310 646 L 330 646 L 331 647 L 335 647 L 336 648 L 345 648 L 344 646 L 342 646 L 339 644 L 336 644 L 335 643 L 324 641 L 318 638 L 314 634 L 313 632 L 313 629 L 312 628 L 312 625 L 311 624 L 310 619 L 308 616 L 308 613 L 307 612 L 306 606 L 305 605 L 304 591 L 307 587 L 306 578 L 312 570 L 312 565 L 321 555 L 323 551 L 331 543 L 332 543 L 343 535 L 349 532 L 351 532 L 353 530 L 355 530 L 357 528 L 366 524 L 368 522 L 367 521 L 363 521 L 362 522 L 354 522 L 351 524 L 348 524 L 339 529 L 326 540 L 321 543 L 309 555 L 306 561 L 297 571 L 295 571 L 294 572 L 290 572 L 290 574 L 292 575 L 295 579 L 294 595 L 292 598 L 292 606 L 293 607 L 293 612 L 290 615 L 289 615 L 287 613 L 286 615 L 287 617 L 296 625 L 298 629 L 298 633 L 287 643 L 287 644 L 284 647 L 279 657 L 273 664 L 273 668 L 275 671 L 275 673 L 273 675 L 272 675 L 269 672 L 269 669 L 267 667 L 265 668 L 266 676 L 267 677 L 267 680 L 269 684 L 272 687 L 278 690 L 281 690 L 282 691 L 285 691 L 286 692 L 290 692 L 291 693 L 294 693 L 295 694 L 298 694 L 299 695 L 303 695 L 304 696 L 310 696 L 311 697 L 316 697 L 317 698 L 326 698 L 327 699 L 365 699 L 366 698 L 375 698 L 376 697 L 383 697 L 384 696 L 390 696 L 391 695 L 397 695 L 398 694 L 409 693 L 410 692 L 417 690 L 421 686 L 423 681 L 426 677 L 426 675 L 428 671 L 428 661 L 425 654 L 425 649 L 428 643 L 430 641 L 431 641 L 432 639 L 424 631 L 424 629 L 429 622 L 432 616 L 442 607 L 443 604 L 446 601 L 448 601 L 465 587 L 466 587 L 471 583 L 473 583 L 476 587 L 476 613 L 477 614 L 477 621 L 474 627 L 470 630 L 465 630 L 463 629 L 460 625 L 459 625 L 454 629 L 448 629 L 443 625 L 442 625 L 438 628 L 437 636 L 440 640 L 436 644 L 436 646 L 440 648 L 445 648 L 446 647 L 449 647 L 450 646 L 453 646 L 454 645 L 461 645 L 462 644 L 466 643 L 468 641 L 472 639 L 480 632 L 483 626 L 483 624 L 487 617 L 487 605 L 486 604 L 486 596 L 485 595 L 485 580 L 486 579 L 486 577 L 491 571 L 494 565 L 503 552 L 513 532 L 520 523 L 520 522 L 527 515 L 529 515 L 538 508 L 538 507 L 542 502 L 544 495 L 548 488 L 551 485 L 568 477 L 574 472 L 575 472 L 583 464 L 590 450 L 590 447 L 591 446 L 591 427 L 590 426 L 590 420 L 589 419 L 589 416 L 588 415 L 588 407 L 593 397 L 593 389 L 591 386 L 591 382 L 590 381 L 590 379 L 588 375 L 588 372 L 585 365 L 585 361 L 584 360 L 584 358 L 583 357 L 583 355 L 582 354 L 582 352 L 581 351 L 581 349 L 580 348 L 580 346 L 579 345 L 579 343 L 576 337 L 574 330 L 568 324 L 564 322 L 555 314 L 552 313 L 547 309 L 545 309 L 540 306 L 538 306 L 536 304 L 531 302 L 524 297 L 522 297 L 518 294 L 516 294 L 512 292 L 510 290 L 508 290 L 499 285 L 494 284 L 476 275 L 474 275 L 471 272 L 471 271 L 479 264 L 480 261 L 487 252 L 490 245 L 491 236 L 498 230 L 498 228 L 499 227 L 499 220 L 498 219 L 498 216 L 497 215 L 496 209 L 501 204 L 501 198 L 495 187 L 495 182 L 497 180 L 498 174 L 497 172 L 493 168 L 492 168 L 486 161 L 483 151 L 481 149 L 475 139 L 472 136 L 469 130 L 469 129 L 474 124 L 474 123 L 479 117 L 481 110 L 482 109 L 482 94 L 481 93 L 480 86 L 477 80 L 467 70 Z M 532 489 L 534 491 L 534 495 L 532 497 L 531 500 L 528 503 L 527 503 L 526 502 L 527 492 L 530 489 Z" fill="#010101" fill-rule="evenodd"/></svg>