<svg xmlns="http://www.w3.org/2000/svg" viewBox="0 0 653 704" shape-rendering="geometricPrecision"><title>intro frame 094</title><path d="M 470 512 L 458 522 L 454 522 L 450 525 L 445 531 L 441 528 L 433 538 L 429 536 L 421 546 L 416 545 L 412 550 L 404 557 L 399 567 L 395 571 L 391 578 L 390 584 L 389 585 L 389 589 L 392 592 L 392 603 L 391 604 L 391 608 L 394 608 L 396 610 L 396 617 L 395 618 L 395 625 L 396 628 L 399 627 L 402 630 L 402 641 L 403 642 L 403 645 L 402 646 L 402 650 L 400 656 L 400 666 L 402 671 L 406 675 L 408 675 L 411 677 L 414 677 L 417 679 L 421 679 L 427 681 L 435 681 L 436 680 L 436 665 L 440 659 L 444 659 L 448 663 L 448 666 L 449 667 L 449 681 L 450 682 L 468 682 L 469 681 L 469 677 L 468 676 L 468 660 L 470 658 L 475 658 L 479 662 L 481 666 L 481 669 L 482 670 L 482 680 L 491 680 L 495 678 L 495 668 L 494 667 L 493 659 L 497 655 L 499 655 L 502 657 L 505 661 L 506 665 L 508 668 L 508 675 L 510 676 L 515 670 L 516 663 L 515 662 L 515 656 L 514 653 L 506 644 L 499 641 L 497 639 L 493 639 L 492 638 L 488 638 L 486 640 L 459 639 L 458 640 L 451 640 L 450 641 L 446 641 L 445 640 L 435 640 L 433 642 L 431 642 L 429 640 L 431 638 L 434 638 L 439 635 L 442 635 L 443 634 L 451 634 L 452 633 L 457 633 L 458 632 L 480 632 L 483 633 L 482 632 L 481 623 L 483 620 L 483 616 L 486 613 L 490 617 L 490 623 L 493 621 L 492 618 L 489 615 L 486 606 L 484 604 L 484 602 L 486 601 L 488 604 L 491 606 L 493 604 L 493 601 L 487 596 L 481 594 L 478 591 L 474 589 L 465 580 L 466 578 L 470 578 L 483 584 L 486 584 L 487 585 L 489 584 L 488 581 L 474 565 L 476 562 L 478 562 L 488 569 L 489 566 L 486 561 L 486 559 L 484 556 L 478 552 L 474 551 L 471 548 L 473 546 L 474 547 L 482 547 L 484 548 L 484 545 L 477 539 L 477 537 L 478 536 L 482 536 L 484 538 L 487 538 L 487 537 L 477 526 L 475 519 Z M 444 583 L 445 583 L 452 590 L 456 598 L 456 600 L 454 602 L 453 602 L 446 595 L 445 592 L 443 590 L 442 585 Z M 436 580 L 437 581 L 437 588 L 436 591 L 433 594 L 430 590 L 432 587 L 433 582 Z M 409 562 L 411 564 L 409 571 L 404 575 L 402 572 L 406 564 Z M 229 508 L 225 516 L 223 518 L 224 519 L 227 519 L 229 521 L 229 523 L 225 530 L 225 532 L 222 538 L 227 537 L 229 539 L 229 543 L 225 551 L 225 554 L 222 562 L 222 566 L 227 565 L 229 567 L 228 575 L 226 580 L 230 583 L 229 585 L 229 594 L 231 597 L 231 604 L 233 609 L 233 613 L 235 617 L 235 620 L 239 624 L 244 624 L 245 625 L 248 625 L 256 628 L 259 632 L 257 634 L 252 634 L 243 631 L 224 631 L 210 636 L 205 640 L 202 646 L 201 656 L 200 657 L 201 662 L 203 665 L 205 665 L 205 659 L 207 655 L 207 652 L 211 647 L 215 645 L 218 645 L 221 648 L 218 657 L 218 664 L 217 665 L 219 669 L 228 671 L 229 670 L 229 663 L 232 654 L 237 650 L 241 650 L 244 653 L 244 657 L 242 661 L 242 667 L 241 668 L 242 672 L 244 673 L 272 672 L 275 668 L 283 665 L 286 662 L 288 662 L 294 656 L 294 650 L 293 647 L 287 640 L 287 634 L 290 633 L 291 635 L 292 635 L 293 631 L 295 629 L 297 629 L 293 621 L 293 619 L 297 613 L 294 604 L 286 595 L 285 587 L 288 586 L 290 590 L 293 593 L 295 593 L 292 589 L 292 587 L 296 583 L 276 561 L 264 542 L 261 539 L 259 539 L 254 534 L 248 524 L 242 519 L 239 518 L 234 512 Z M 258 581 L 260 583 L 260 585 L 257 588 L 255 586 L 255 583 Z M 266 575 L 268 575 L 270 577 L 274 585 L 274 589 L 273 590 L 268 586 L 265 579 L 265 576 Z M 280 571 L 283 573 L 283 579 L 281 584 L 278 583 L 278 575 Z M 248 566 L 250 568 L 250 570 L 243 577 L 242 577 L 240 574 Z M 465 424 L 465 426 L 468 429 L 471 430 L 471 429 Z M 193 82 L 193 83 L 196 85 L 198 88 L 198 91 L 199 91 L 198 84 L 196 82 Z M 449 15 L 435 15 L 423 21 L 415 30 L 414 37 L 411 40 L 407 38 L 404 38 L 401 36 L 392 35 L 391 34 L 386 34 L 385 33 L 367 33 L 366 34 L 361 34 L 360 33 L 361 24 L 359 24 L 356 26 L 349 34 L 347 34 L 334 27 L 332 27 L 331 29 L 333 31 L 334 36 L 331 39 L 314 39 L 312 40 L 308 45 L 305 45 L 295 50 L 286 57 L 283 57 L 276 48 L 266 43 L 253 43 L 247 45 L 235 55 L 231 63 L 230 71 L 229 72 L 232 85 L 242 96 L 246 98 L 249 98 L 251 100 L 250 107 L 248 109 L 248 111 L 242 124 L 242 127 L 244 133 L 233 146 L 233 147 L 240 147 L 242 149 L 242 151 L 235 164 L 235 167 L 240 167 L 242 169 L 241 175 L 240 176 L 240 180 L 239 181 L 239 189 L 245 187 L 248 190 L 247 192 L 247 204 L 249 209 L 251 210 L 252 208 L 255 206 L 258 210 L 260 217 L 261 218 L 264 218 L 272 228 L 274 228 L 277 231 L 287 236 L 289 236 L 297 245 L 297 248 L 295 250 L 293 250 L 289 246 L 287 246 L 282 243 L 280 247 L 277 250 L 274 250 L 269 245 L 267 241 L 266 241 L 265 243 L 263 243 L 260 240 L 256 231 L 252 233 L 248 229 L 245 218 L 243 216 L 242 216 L 240 219 L 238 219 L 236 217 L 228 194 L 224 195 L 221 192 L 218 183 L 216 180 L 216 177 L 214 174 L 214 172 L 207 158 L 205 156 L 205 151 L 212 144 L 213 141 L 218 134 L 218 132 L 222 123 L 222 116 L 218 110 L 214 110 L 212 112 L 217 112 L 219 114 L 220 123 L 217 132 L 212 137 L 204 141 L 200 140 L 196 136 L 195 133 L 195 128 L 198 123 L 202 119 L 198 115 L 198 111 L 197 110 L 196 113 L 189 119 L 184 118 L 177 111 L 176 111 L 173 108 L 173 94 L 172 93 L 172 87 L 170 81 L 165 75 L 159 75 L 155 80 L 159 78 L 164 78 L 170 85 L 171 95 L 172 96 L 172 100 L 171 101 L 172 106 L 167 112 L 162 114 L 159 114 L 156 113 L 153 110 L 149 111 L 146 107 L 143 98 L 142 98 L 145 106 L 145 117 L 144 119 L 140 123 L 137 124 L 132 124 L 125 117 L 122 119 L 127 124 L 130 130 L 130 134 L 128 138 L 123 143 L 118 143 L 116 142 L 112 137 L 109 129 L 109 123 L 110 121 L 113 118 L 118 118 L 118 117 L 116 115 L 113 115 L 107 120 L 107 133 L 111 145 L 113 148 L 113 150 L 116 153 L 116 155 L 120 163 L 127 172 L 127 175 L 128 176 L 128 184 L 129 185 L 129 194 L 130 195 L 131 204 L 134 202 L 136 204 L 146 219 L 149 226 L 159 240 L 166 247 L 166 248 L 177 258 L 187 264 L 197 267 L 202 272 L 202 275 L 200 277 L 194 277 L 193 278 L 194 280 L 201 281 L 202 282 L 210 282 L 216 288 L 218 288 L 221 290 L 229 291 L 232 294 L 229 298 L 220 300 L 221 302 L 235 307 L 238 307 L 248 295 L 252 293 L 255 293 L 257 295 L 256 301 L 247 320 L 247 325 L 245 329 L 245 333 L 247 333 L 252 328 L 261 322 L 263 322 L 265 324 L 265 326 L 261 333 L 254 342 L 246 349 L 239 353 L 231 364 L 231 366 L 235 366 L 237 368 L 237 371 L 222 390 L 223 391 L 224 390 L 229 390 L 231 393 L 229 398 L 226 401 L 224 406 L 222 408 L 216 421 L 217 422 L 222 419 L 225 422 L 225 424 L 223 427 L 220 436 L 217 450 L 222 446 L 224 447 L 224 455 L 223 456 L 222 471 L 223 472 L 226 470 L 229 473 L 229 481 L 231 485 L 231 488 L 233 489 L 232 488 L 235 486 L 237 488 L 240 494 L 240 496 L 243 494 L 246 497 L 250 508 L 252 509 L 254 507 L 256 507 L 265 520 L 268 518 L 277 527 L 279 527 L 281 524 L 283 525 L 292 535 L 293 535 L 294 533 L 296 533 L 302 540 L 302 538 L 295 527 L 289 514 L 289 511 L 288 510 L 288 505 L 289 504 L 292 505 L 296 515 L 303 525 L 316 538 L 320 537 L 324 532 L 325 532 L 327 534 L 328 537 L 330 538 L 345 524 L 347 524 L 348 525 L 348 528 L 344 536 L 344 542 L 345 543 L 349 539 L 353 537 L 356 534 L 359 533 L 363 529 L 365 529 L 367 531 L 367 533 L 362 542 L 363 544 L 368 541 L 370 541 L 378 532 L 384 522 L 388 519 L 390 521 L 390 524 L 387 531 L 387 534 L 388 534 L 388 532 L 390 529 L 393 520 L 394 514 L 396 512 L 399 514 L 400 517 L 400 526 L 397 535 L 398 535 L 403 531 L 410 522 L 417 507 L 419 505 L 421 505 L 423 507 L 422 517 L 419 522 L 419 525 L 420 525 L 431 513 L 432 509 L 435 505 L 436 499 L 438 497 L 439 494 L 442 496 L 442 505 L 441 508 L 443 509 L 450 499 L 452 494 L 452 491 L 456 485 L 459 487 L 459 491 L 460 491 L 463 480 L 465 477 L 465 468 L 464 465 L 467 461 L 467 453 L 464 448 L 464 446 L 466 443 L 468 443 L 470 445 L 471 444 L 470 443 L 470 439 L 456 418 L 455 414 L 456 413 L 465 420 L 468 419 L 469 415 L 465 409 L 455 404 L 449 404 L 446 401 L 446 399 L 448 397 L 453 397 L 454 398 L 460 399 L 466 403 L 467 402 L 464 397 L 463 393 L 461 391 L 460 386 L 456 381 L 458 378 L 461 380 L 462 379 L 445 361 L 447 359 L 454 364 L 459 365 L 457 358 L 451 352 L 443 351 L 442 350 L 436 350 L 432 346 L 434 343 L 439 343 L 453 350 L 453 347 L 451 344 L 451 342 L 446 336 L 446 333 L 447 332 L 450 333 L 452 332 L 449 325 L 451 323 L 454 325 L 455 328 L 462 336 L 462 338 L 464 340 L 465 344 L 472 354 L 473 358 L 476 361 L 476 363 L 480 370 L 483 380 L 488 391 L 488 394 L 491 402 L 491 405 L 493 410 L 493 414 L 495 419 L 495 423 L 497 428 L 497 433 L 499 438 L 499 442 L 494 455 L 494 460 L 493 461 L 493 470 L 494 471 L 494 474 L 497 479 L 501 482 L 506 482 L 510 476 L 512 469 L 514 467 L 517 466 L 521 469 L 521 480 L 518 489 L 514 493 L 514 495 L 516 498 L 522 501 L 528 501 L 530 500 L 533 497 L 540 483 L 542 481 L 544 481 L 547 484 L 547 494 L 544 503 L 549 503 L 557 498 L 558 494 L 561 489 L 561 487 L 563 483 L 566 480 L 568 480 L 571 483 L 571 493 L 578 485 L 578 483 L 582 474 L 583 466 L 584 465 L 584 458 L 585 457 L 585 449 L 584 448 L 584 441 L 583 440 L 582 433 L 584 431 L 586 431 L 586 429 L 581 416 L 581 412 L 576 404 L 576 402 L 574 400 L 576 397 L 579 397 L 580 398 L 580 396 L 565 374 L 567 372 L 573 374 L 573 372 L 564 360 L 553 348 L 555 345 L 558 345 L 562 347 L 564 347 L 564 346 L 544 327 L 535 320 L 537 317 L 542 317 L 543 318 L 546 317 L 541 312 L 527 302 L 525 302 L 521 298 L 521 296 L 523 294 L 527 294 L 528 293 L 527 292 L 517 288 L 507 281 L 510 277 L 513 278 L 517 278 L 517 277 L 503 267 L 495 263 L 493 263 L 489 259 L 492 255 L 495 255 L 495 254 L 491 253 L 487 250 L 484 250 L 479 247 L 476 247 L 474 245 L 468 243 L 457 243 L 455 244 L 453 248 L 449 251 L 444 247 L 431 247 L 430 246 L 428 246 L 425 249 L 420 249 L 418 247 L 418 242 L 417 241 L 407 254 L 404 252 L 404 249 L 407 243 L 415 235 L 419 235 L 425 227 L 428 228 L 428 233 L 430 233 L 431 231 L 431 224 L 435 220 L 439 224 L 441 221 L 441 215 L 440 213 L 443 211 L 447 215 L 448 214 L 448 208 L 453 202 L 456 203 L 457 202 L 457 200 L 449 192 L 450 190 L 454 190 L 462 194 L 463 193 L 463 191 L 459 184 L 459 182 L 460 181 L 465 181 L 468 183 L 470 181 L 470 178 L 465 172 L 471 170 L 470 166 L 463 159 L 464 156 L 470 157 L 475 160 L 478 164 L 483 168 L 482 169 L 482 172 L 483 173 L 483 171 L 485 169 L 488 169 L 491 171 L 492 170 L 490 163 L 485 155 L 484 150 L 487 147 L 489 147 L 493 149 L 494 147 L 490 141 L 479 129 L 479 127 L 481 125 L 491 125 L 491 124 L 487 120 L 481 117 L 476 112 L 476 110 L 479 107 L 479 105 L 472 95 L 469 88 L 463 79 L 459 75 L 459 72 L 461 70 L 464 69 L 473 59 L 476 50 L 475 39 L 473 33 L 464 23 L 460 20 Z M 285 512 L 288 516 L 287 519 L 286 519 L 283 515 Z M 264 498 L 267 499 L 267 501 L 269 504 L 267 507 L 264 503 L 263 500 Z M 428 495 L 430 496 L 430 501 L 429 502 L 427 501 L 427 496 Z M 408 488 L 412 491 L 413 494 L 413 504 L 411 507 L 408 505 L 409 503 L 409 499 L 410 498 L 410 494 L 407 490 Z M 269 487 L 272 489 L 273 493 L 279 504 L 280 511 L 278 513 L 276 513 L 273 510 L 269 500 L 269 497 L 268 496 L 268 490 L 267 489 Z M 273 463 L 274 465 L 273 466 L 272 473 L 271 475 L 269 476 L 267 474 L 268 469 L 270 464 Z M 436 454 L 440 457 L 445 467 L 448 476 L 448 482 L 447 483 L 444 483 L 443 482 L 440 487 L 440 490 L 438 492 L 430 491 L 429 490 L 430 480 L 426 474 L 426 471 L 428 470 L 434 476 L 436 475 L 436 463 L 434 458 L 434 456 Z M 258 440 L 260 442 L 260 445 L 254 463 L 251 466 L 248 463 L 249 454 L 253 445 Z M 411 423 L 413 421 L 419 424 L 429 423 L 432 426 L 429 429 L 425 429 L 424 430 L 425 431 L 424 433 L 420 433 Z M 257 416 L 259 418 L 254 424 L 250 433 L 248 435 L 247 434 L 244 434 L 243 431 L 248 421 L 251 418 Z M 427 402 L 429 401 L 433 404 L 442 408 L 450 416 L 449 418 L 441 418 L 439 417 L 438 419 L 441 424 L 438 426 L 435 423 L 433 417 L 433 414 L 432 413 L 432 410 L 428 406 Z M 421 393 L 422 392 L 429 392 L 432 396 L 430 398 L 429 397 L 424 397 Z M 434 386 L 436 384 L 438 384 L 443 390 L 443 392 L 442 393 L 437 392 L 434 389 Z M 436 372 L 438 370 L 444 370 L 448 373 L 448 377 L 444 381 L 441 381 Z M 385 370 L 388 368 L 403 378 L 406 379 L 409 378 L 410 379 L 408 382 L 409 385 L 406 387 L 390 374 L 388 374 Z M 409 365 L 411 364 L 414 367 L 417 368 L 420 371 L 420 373 L 418 375 L 412 377 L 409 374 Z M 535 355 L 537 354 L 543 358 L 542 359 L 538 359 Z M 424 325 L 426 324 L 434 327 L 437 327 L 439 329 L 439 332 L 437 333 L 434 330 L 431 330 L 429 328 L 426 328 Z M 431 311 L 434 314 L 438 321 L 438 323 L 436 325 L 433 322 L 429 315 L 429 313 Z M 373 310 L 377 313 L 377 316 L 375 318 L 372 314 L 372 311 Z M 378 311 L 381 309 L 388 315 L 390 315 L 391 312 L 393 311 L 394 312 L 394 317 L 391 320 L 388 318 L 384 318 L 378 312 Z M 324 306 L 322 309 L 318 311 L 315 309 L 320 305 L 323 305 Z M 434 298 L 439 302 L 439 304 L 437 306 L 435 305 L 432 301 Z M 384 292 L 388 295 L 388 299 L 392 306 L 390 308 L 381 297 L 381 295 Z M 312 290 L 314 292 L 312 294 L 311 297 L 306 301 L 305 300 L 305 297 L 307 294 Z M 421 287 L 423 289 L 422 300 L 424 303 L 425 309 L 419 317 L 415 318 L 413 315 L 421 309 L 421 302 L 416 297 L 419 293 L 419 289 Z M 424 281 L 426 280 L 427 283 L 425 284 Z M 259 271 L 260 274 L 257 277 L 259 280 L 259 282 L 251 288 L 249 285 L 252 279 L 252 275 L 255 272 Z M 259 262 L 261 260 L 268 260 L 269 261 L 269 263 L 267 265 L 262 265 Z M 421 260 L 421 261 L 416 265 L 413 265 L 412 264 L 415 260 L 418 259 Z M 265 251 L 266 250 L 269 250 L 271 253 L 269 255 L 267 255 L 265 253 Z M 400 244 L 400 248 L 398 251 L 384 265 L 374 272 L 371 273 L 367 277 L 365 278 L 362 277 L 359 279 L 350 279 L 342 274 L 340 274 L 330 267 L 319 255 L 319 252 L 323 249 L 331 250 L 332 251 L 338 251 L 339 252 L 355 252 L 356 251 L 360 251 L 361 250 L 366 250 L 367 249 L 380 247 L 394 242 L 398 242 Z M 386 129 L 387 126 L 395 119 L 398 119 L 403 117 L 417 117 L 418 118 L 423 118 L 430 121 L 437 128 L 438 130 L 438 137 L 431 145 L 426 147 L 407 147 L 398 144 L 393 141 L 388 136 L 386 132 Z M 182 120 L 187 126 L 193 138 L 193 142 L 194 143 L 193 151 L 191 155 L 185 161 L 178 164 L 175 164 L 170 166 L 166 166 L 165 167 L 160 167 L 159 168 L 141 168 L 136 166 L 131 162 L 126 152 L 126 143 L 128 139 L 138 129 L 149 121 L 162 116 L 173 116 Z M 308 112 L 311 108 L 319 104 L 335 104 L 341 107 L 345 111 L 345 113 L 343 115 L 335 114 L 331 112 L 320 112 L 314 114 L 310 114 Z M 289 98 L 292 97 L 295 98 L 299 102 L 301 107 L 300 116 L 296 122 L 302 120 L 307 120 L 308 119 L 322 120 L 328 122 L 333 125 L 337 129 L 339 134 L 337 141 L 330 149 L 317 156 L 314 156 L 313 157 L 304 157 L 296 154 L 293 152 L 287 146 L 285 142 L 284 142 L 283 156 L 286 162 L 293 167 L 301 167 L 308 162 L 311 161 L 324 163 L 325 164 L 330 164 L 331 165 L 342 165 L 343 164 L 350 163 L 363 157 L 369 151 L 371 146 L 373 144 L 377 144 L 381 148 L 384 154 L 384 162 L 385 163 L 385 182 L 384 183 L 384 189 L 381 197 L 381 200 L 375 213 L 370 220 L 363 226 L 360 227 L 357 230 L 353 232 L 350 232 L 345 234 L 337 233 L 328 229 L 322 225 L 313 216 L 299 196 L 295 187 L 294 178 L 284 173 L 274 162 L 273 160 L 273 156 L 272 155 L 272 149 L 271 149 L 262 158 L 258 160 L 251 159 L 244 153 L 244 146 L 247 140 L 250 137 L 262 131 L 269 131 L 276 137 L 279 137 L 280 136 L 283 137 L 283 133 L 287 126 L 285 126 L 282 123 L 281 120 L 281 111 L 284 103 Z M 376 90 L 382 92 L 386 96 L 389 104 L 389 110 L 388 111 L 387 118 L 382 123 L 374 123 L 372 122 L 368 118 L 366 112 L 366 102 L 369 95 L 372 92 Z M 302 59 L 306 63 L 305 68 L 303 70 L 293 74 L 289 78 L 286 79 L 282 75 L 282 70 L 291 61 L 295 59 Z M 262 57 L 269 61 L 273 66 L 273 68 L 263 81 L 261 85 L 255 91 L 253 91 L 243 82 L 242 79 L 242 71 L 244 66 L 251 59 L 256 57 Z M 366 52 L 369 49 L 372 48 L 379 48 L 382 50 L 384 50 L 392 57 L 393 63 L 389 67 L 386 67 L 379 62 L 368 59 L 366 57 Z M 439 31 L 447 30 L 450 32 L 452 32 L 460 39 L 463 45 L 463 54 L 460 59 L 453 65 L 449 65 L 436 53 L 433 51 L 431 51 L 427 46 L 428 41 L 430 38 L 435 33 Z" fill="#FBFBFB" fill-rule="evenodd"/><path d="M 215 646 L 217 646 L 220 649 L 219 653 L 217 656 L 216 668 L 220 671 L 229 672 L 230 671 L 230 663 L 230 670 L 228 672 L 219 670 L 216 666 L 217 664 L 217 657 L 220 648 L 218 646 Z M 443 585 L 444 590 L 446 592 L 447 595 L 453 601 L 454 601 L 455 598 L 451 590 L 445 584 Z M 258 582 L 256 583 L 256 586 L 257 587 L 259 585 Z M 436 581 L 434 582 L 433 587 L 431 590 L 433 593 L 435 591 L 436 588 Z M 266 576 L 266 579 L 269 586 L 273 589 L 273 585 L 269 577 Z M 280 572 L 279 575 L 279 583 L 281 583 L 281 580 L 282 579 L 282 573 Z M 248 567 L 241 574 L 242 576 L 243 576 L 249 570 Z M 409 563 L 408 563 L 405 567 L 405 569 L 403 572 L 404 574 L 405 574 L 409 569 L 410 566 Z M 264 499 L 265 503 L 267 506 L 268 504 L 266 501 L 266 499 Z M 408 489 L 411 494 L 411 498 L 409 505 L 411 506 L 412 504 L 412 494 L 411 491 Z M 269 488 L 268 489 L 269 490 L 269 496 L 270 497 L 270 500 L 274 510 L 276 512 L 278 512 L 279 511 L 278 504 L 272 493 L 271 489 Z M 272 494 L 275 498 L 275 500 L 278 505 L 278 507 L 276 509 L 272 504 L 270 498 L 270 495 Z M 513 495 L 513 493 L 517 489 L 520 480 L 520 475 L 520 480 L 518 486 L 513 493 L 513 495 L 517 500 L 522 502 L 528 502 L 530 501 L 535 496 L 540 485 L 542 483 L 544 483 L 546 485 L 546 494 L 542 502 L 543 504 L 550 504 L 553 503 L 560 495 L 563 485 L 566 481 L 568 481 L 570 483 L 570 493 L 569 495 L 571 495 L 575 491 L 578 486 L 571 494 L 570 493 L 570 483 L 568 481 L 566 481 L 562 487 L 562 489 L 559 494 L 558 498 L 555 501 L 549 504 L 544 504 L 543 503 L 546 494 L 546 484 L 544 482 L 541 483 L 534 497 L 528 502 L 522 502 L 517 500 Z M 273 464 L 271 464 L 270 466 L 269 472 L 268 473 L 269 475 L 270 475 L 271 473 L 271 470 Z M 436 455 L 435 458 L 437 463 L 437 475 L 434 477 L 428 471 L 427 471 L 427 474 L 431 480 L 430 490 L 438 491 L 441 483 L 443 481 L 444 482 L 447 482 L 447 476 L 444 467 L 439 457 Z M 437 458 L 440 460 L 443 467 L 443 471 L 444 472 L 442 474 L 438 471 L 438 466 L 437 465 L 437 460 L 436 459 Z M 223 447 L 218 451 L 216 450 L 217 453 L 220 450 L 223 451 L 222 463 Z M 258 441 L 254 445 L 250 454 L 249 463 L 251 465 L 253 463 L 255 455 L 257 452 L 257 449 L 259 445 L 259 442 Z M 255 448 L 256 451 L 254 456 L 252 457 L 251 456 L 253 449 Z M 412 423 L 420 432 L 424 432 L 423 430 L 425 428 L 429 428 L 431 426 L 429 424 L 419 425 L 414 422 Z M 257 417 L 253 418 L 249 421 L 245 428 L 244 433 L 247 433 L 248 434 L 253 424 L 257 420 L 258 418 Z M 428 402 L 429 406 L 433 410 L 434 417 L 436 423 L 438 425 L 440 424 L 437 419 L 439 416 L 441 417 L 449 417 L 449 416 L 442 409 Z M 435 411 L 438 409 L 440 410 L 441 412 L 440 413 L 437 413 Z M 422 393 L 424 396 L 429 396 L 430 397 L 431 396 L 429 393 Z M 436 385 L 435 386 L 435 389 L 439 392 L 442 392 L 442 390 L 438 385 Z M 438 371 L 437 373 L 441 380 L 444 380 L 447 377 L 447 373 L 444 371 Z M 386 370 L 388 373 L 390 373 L 403 384 L 406 386 L 408 385 L 407 382 L 409 379 L 408 380 L 403 379 L 392 371 L 388 369 Z M 410 365 L 410 374 L 412 376 L 418 374 L 419 371 Z M 555 346 L 554 348 L 560 354 L 574 372 L 573 375 L 569 373 L 566 374 L 581 396 L 580 399 L 579 398 L 576 398 L 575 399 L 581 411 L 577 403 L 577 400 L 578 399 L 582 400 L 582 398 L 568 377 L 569 374 L 575 376 L 576 375 L 568 365 L 566 361 L 555 348 L 557 346 L 561 347 Z M 425 325 L 426 327 L 429 327 L 431 329 L 434 329 L 438 332 L 438 329 L 437 328 L 434 328 Z M 452 324 L 450 325 L 453 332 L 451 334 L 447 333 L 447 336 L 452 342 L 452 344 L 454 347 L 454 350 L 452 351 L 448 348 L 439 344 L 434 344 L 433 346 L 436 349 L 442 349 L 443 350 L 451 351 L 458 358 L 460 364 L 459 366 L 454 365 L 447 360 L 446 361 L 463 379 L 461 381 L 458 379 L 457 381 L 461 386 L 462 391 L 464 393 L 465 397 L 468 402 L 466 404 L 460 400 L 454 399 L 453 398 L 448 398 L 447 401 L 449 403 L 455 403 L 465 408 L 469 413 L 470 417 L 467 421 L 463 420 L 456 414 L 456 416 L 471 439 L 471 443 L 472 444 L 470 446 L 468 444 L 466 444 L 465 446 L 465 448 L 468 453 L 468 461 L 465 465 L 466 468 L 466 477 L 464 480 L 461 491 L 459 492 L 458 491 L 458 487 L 457 486 L 455 487 L 451 499 L 443 510 L 440 508 L 441 505 L 441 496 L 439 495 L 439 497 L 437 499 L 436 502 L 436 505 L 434 507 L 432 513 L 420 526 L 418 525 L 418 522 L 421 517 L 421 514 L 422 513 L 422 507 L 421 506 L 418 507 L 411 522 L 404 531 L 398 536 L 397 536 L 396 534 L 399 526 L 399 517 L 398 514 L 396 513 L 394 517 L 394 520 L 391 529 L 388 535 L 386 534 L 386 531 L 389 524 L 389 521 L 388 520 L 385 522 L 379 532 L 370 542 L 368 542 L 363 545 L 361 543 L 366 533 L 366 531 L 363 530 L 359 534 L 356 535 L 345 544 L 343 542 L 343 536 L 346 531 L 347 525 L 345 525 L 330 539 L 327 537 L 325 533 L 324 533 L 320 538 L 316 539 L 302 525 L 295 515 L 291 505 L 289 505 L 290 514 L 296 527 L 303 538 L 302 541 L 296 534 L 294 534 L 294 535 L 292 536 L 283 526 L 281 525 L 279 528 L 277 528 L 268 519 L 265 521 L 262 518 L 261 515 L 256 508 L 254 508 L 251 510 L 247 504 L 245 497 L 243 495 L 240 497 L 235 487 L 233 488 L 234 489 L 233 490 L 230 488 L 230 485 L 228 481 L 228 473 L 226 471 L 223 473 L 221 471 L 221 465 L 221 475 L 223 475 L 225 472 L 228 475 L 229 486 L 235 499 L 235 504 L 233 506 L 228 505 L 226 512 L 221 520 L 222 521 L 226 520 L 228 522 L 220 539 L 221 540 L 223 539 L 227 539 L 228 540 L 228 543 L 225 548 L 224 554 L 221 562 L 221 566 L 220 568 L 222 568 L 226 566 L 228 568 L 227 574 L 226 575 L 226 579 L 225 580 L 228 584 L 228 593 L 228 585 L 229 583 L 225 580 L 227 575 L 228 567 L 227 566 L 224 566 L 223 567 L 221 566 L 222 558 L 224 554 L 225 548 L 228 543 L 228 539 L 227 538 L 222 539 L 221 537 L 228 523 L 227 520 L 224 520 L 222 518 L 229 507 L 230 507 L 239 517 L 242 518 L 249 524 L 255 534 L 265 542 L 277 561 L 297 583 L 293 587 L 293 589 L 296 592 L 295 594 L 293 594 L 289 590 L 288 587 L 286 587 L 287 595 L 295 604 L 298 613 L 294 619 L 294 621 L 298 629 L 294 631 L 294 633 L 292 636 L 291 636 L 290 634 L 288 634 L 288 640 L 294 647 L 295 650 L 295 656 L 288 663 L 286 663 L 283 666 L 275 669 L 272 673 L 263 673 L 262 674 L 244 674 L 242 673 L 241 671 L 241 672 L 244 674 L 267 674 L 268 673 L 287 672 L 293 670 L 299 670 L 300 669 L 306 669 L 307 668 L 314 667 L 320 664 L 323 661 L 325 656 L 325 638 L 323 633 L 323 629 L 326 626 L 330 628 L 331 614 L 330 613 L 329 596 L 331 594 L 334 596 L 336 596 L 336 591 L 335 589 L 336 588 L 336 584 L 338 579 L 338 574 L 337 573 L 333 573 L 330 571 L 322 569 L 312 564 L 308 560 L 308 558 L 311 555 L 316 555 L 330 560 L 334 560 L 335 561 L 339 561 L 345 563 L 354 563 L 355 564 L 375 563 L 380 561 L 384 562 L 387 565 L 387 568 L 384 571 L 380 572 L 380 575 L 384 583 L 384 588 L 386 594 L 388 593 L 391 594 L 391 603 L 391 592 L 388 589 L 389 581 L 392 574 L 398 567 L 403 557 L 408 553 L 416 544 L 421 545 L 429 535 L 433 537 L 441 527 L 445 530 L 450 524 L 454 521 L 458 521 L 469 511 L 470 511 L 475 517 L 478 526 L 488 537 L 487 539 L 484 539 L 482 537 L 478 537 L 478 539 L 485 545 L 485 548 L 484 549 L 482 548 L 474 548 L 473 547 L 472 548 L 474 550 L 478 551 L 486 557 L 487 561 L 490 566 L 490 568 L 488 570 L 478 563 L 476 563 L 475 565 L 489 581 L 490 584 L 487 586 L 486 585 L 480 584 L 470 579 L 466 579 L 466 580 L 474 588 L 478 590 L 481 593 L 487 595 L 494 601 L 494 604 L 491 607 L 485 602 L 485 604 L 487 606 L 490 615 L 493 618 L 494 621 L 490 624 L 489 623 L 489 617 L 486 614 L 484 616 L 484 620 L 482 623 L 482 627 L 484 633 L 483 634 L 480 633 L 458 633 L 457 634 L 452 634 L 451 635 L 443 635 L 430 640 L 431 641 L 433 641 L 435 639 L 445 639 L 446 640 L 450 640 L 448 640 L 446 638 L 449 635 L 453 635 L 458 633 L 477 633 L 485 636 L 484 639 L 477 639 L 486 639 L 488 637 L 497 638 L 499 640 L 506 643 L 513 650 L 516 656 L 516 662 L 517 663 L 516 670 L 514 673 L 509 677 L 507 675 L 507 668 L 506 666 L 507 668 L 507 676 L 510 677 L 515 672 L 517 667 L 517 661 L 516 660 L 516 656 L 514 651 L 506 643 L 499 640 L 496 637 L 496 635 L 499 632 L 501 627 L 502 617 L 503 616 L 503 603 L 504 602 L 504 593 L 503 592 L 503 586 L 502 583 L 505 579 L 500 569 L 503 567 L 508 570 L 508 567 L 505 562 L 504 557 L 496 543 L 498 540 L 503 542 L 505 544 L 507 543 L 499 523 L 499 521 L 501 519 L 505 520 L 504 513 L 503 512 L 503 507 L 502 506 L 502 500 L 500 497 L 494 495 L 485 486 L 481 477 L 481 473 L 480 472 L 480 458 L 485 443 L 485 435 L 484 434 L 484 430 L 482 425 L 482 420 L 481 419 L 481 416 L 478 407 L 477 399 L 472 384 L 464 368 L 464 366 L 459 358 L 455 349 L 455 345 L 458 342 L 464 347 L 474 362 L 485 386 L 488 395 L 488 398 L 490 402 L 491 409 L 492 410 L 492 413 L 492 410 L 488 398 L 487 391 L 482 380 L 479 370 L 475 363 L 475 361 L 472 358 L 471 354 L 464 344 L 463 340 L 461 338 L 461 336 L 454 328 Z M 479 568 L 482 567 L 485 571 L 484 572 Z M 363 533 L 364 535 L 363 537 L 360 539 L 359 536 Z M 386 526 L 387 527 L 385 531 L 383 532 L 382 530 L 383 528 Z M 269 522 L 271 522 L 284 538 L 282 541 L 280 540 L 271 530 L 268 524 Z M 397 518 L 398 519 L 398 526 L 397 529 L 395 530 L 394 529 L 394 522 L 395 519 Z M 258 515 L 263 519 L 269 528 L 267 530 L 262 526 L 257 518 Z M 292 513 L 294 514 L 299 523 L 307 532 L 308 534 L 307 536 L 305 536 L 300 531 L 294 522 L 291 515 Z M 421 508 L 422 509 L 421 516 L 417 523 L 416 527 L 414 528 L 412 526 L 412 524 L 415 519 L 418 509 Z M 437 505 L 438 506 L 438 510 L 436 513 L 433 515 L 432 514 L 434 511 L 435 507 Z M 244 498 L 247 502 L 248 507 L 251 513 L 251 516 L 250 517 L 246 514 L 243 506 L 243 502 L 242 500 Z M 456 491 L 457 494 L 456 496 L 454 497 L 453 495 L 454 492 Z M 464 424 L 466 423 L 472 429 L 471 431 L 468 430 L 464 426 Z M 263 323 L 261 323 L 256 326 L 247 334 L 244 333 L 244 330 L 239 345 L 238 353 L 228 367 L 229 368 L 234 367 L 236 369 L 236 371 L 220 391 L 221 392 L 228 391 L 230 393 L 229 391 L 224 391 L 223 392 L 221 390 L 236 371 L 236 368 L 235 367 L 231 367 L 230 364 L 239 352 L 246 348 L 253 342 L 264 326 Z M 262 324 L 263 327 L 259 333 L 255 337 L 252 342 L 249 345 L 247 345 L 246 344 L 250 338 L 249 334 L 256 327 L 260 324 Z M 537 318 L 536 320 L 544 326 L 565 346 L 565 347 L 563 348 L 566 348 L 566 347 L 554 335 L 553 335 L 537 320 L 539 318 L 542 318 Z M 431 312 L 430 315 L 436 324 L 437 321 Z M 373 311 L 373 314 L 375 317 L 376 316 L 376 313 Z M 379 311 L 384 317 L 388 317 L 390 319 L 393 317 L 393 312 L 392 312 L 392 314 L 390 316 L 388 316 L 381 310 Z M 323 306 L 320 306 L 316 309 L 318 310 L 322 308 Z M 434 299 L 433 301 L 434 303 L 437 305 L 438 302 Z M 384 293 L 382 295 L 382 297 L 390 307 L 391 306 L 387 299 L 387 295 Z M 312 291 L 308 294 L 306 297 L 306 300 L 310 297 L 311 294 L 313 292 Z M 421 288 L 420 289 L 420 293 L 417 297 L 422 302 L 422 309 L 414 315 L 415 317 L 419 316 L 424 309 L 424 306 L 421 300 L 421 294 L 422 293 L 422 289 Z M 259 272 L 257 272 L 253 275 L 253 279 L 250 285 L 251 287 L 258 282 L 258 280 L 256 277 L 259 274 Z M 260 262 L 262 264 L 267 264 L 268 263 L 268 261 L 261 261 Z M 420 260 L 415 261 L 413 264 L 418 263 Z M 266 251 L 267 254 L 270 253 L 269 251 Z M 488 250 L 496 254 L 495 256 L 492 256 L 490 258 L 493 262 L 495 262 L 503 266 L 516 275 L 518 278 L 515 279 L 518 279 L 519 278 L 503 266 L 494 262 L 491 259 L 491 257 L 492 256 L 498 256 L 498 255 Z M 399 244 L 398 243 L 394 243 L 380 248 L 367 250 L 366 251 L 361 251 L 355 253 L 339 253 L 338 252 L 332 252 L 331 251 L 323 250 L 320 252 L 320 255 L 330 266 L 340 273 L 342 273 L 350 278 L 359 278 L 362 276 L 364 277 L 367 276 L 371 272 L 374 271 L 384 264 L 397 251 L 399 248 Z M 345 256 L 348 255 L 349 257 L 346 258 Z M 362 254 L 360 257 L 356 257 L 355 258 L 353 258 L 351 256 L 353 254 L 358 254 L 359 253 Z M 321 254 L 323 252 L 329 252 L 334 254 L 341 254 L 344 256 L 343 258 L 330 257 L 328 255 L 327 255 L 327 257 L 339 267 L 344 269 L 348 272 L 351 272 L 352 273 L 359 273 L 368 269 L 382 259 L 384 259 L 385 261 L 374 270 L 371 271 L 366 275 L 361 275 L 358 277 L 353 278 L 335 269 L 322 257 Z M 247 205 L 248 209 L 251 212 L 254 209 L 257 211 L 259 217 L 261 219 L 264 220 L 276 234 L 279 239 L 280 244 L 276 249 L 274 249 L 270 245 L 267 239 L 263 242 L 261 240 L 257 230 L 255 229 L 252 232 L 249 228 L 252 232 L 256 230 L 258 232 L 261 240 L 263 242 L 265 242 L 265 241 L 267 240 L 270 245 L 274 249 L 277 249 L 282 242 L 287 245 L 289 245 L 293 249 L 296 248 L 295 243 L 289 237 L 287 237 L 277 232 L 274 229 L 272 229 L 264 219 L 261 219 L 259 217 L 257 210 L 255 207 L 250 211 L 248 209 Z M 290 243 L 292 242 L 295 246 L 293 247 Z M 498 188 L 498 196 L 497 199 L 490 207 L 489 212 L 483 223 L 492 234 L 492 238 L 495 241 L 509 248 L 516 255 L 516 262 L 521 265 L 525 269 L 516 261 L 516 255 L 508 247 L 495 241 L 492 238 L 492 234 L 491 232 L 483 223 L 489 212 L 490 207 L 497 199 L 498 196 Z M 243 188 L 241 190 L 239 190 L 241 191 L 244 189 L 246 191 L 246 203 L 246 192 L 247 190 L 245 188 Z M 220 187 L 222 192 L 224 194 L 227 193 L 229 194 L 237 217 L 240 218 L 241 216 L 243 215 L 246 218 L 248 226 L 246 218 L 243 214 L 241 214 L 241 216 L 239 218 L 236 215 L 229 193 L 227 191 L 224 194 L 222 192 Z M 127 176 L 127 185 L 128 186 L 129 200 L 130 201 L 132 212 L 136 221 L 136 223 L 138 226 L 138 228 L 151 250 L 164 263 L 161 267 L 154 266 L 154 268 L 165 278 L 172 282 L 176 283 L 183 289 L 181 292 L 174 292 L 173 294 L 175 296 L 183 300 L 199 305 L 201 307 L 201 309 L 197 312 L 197 314 L 206 318 L 210 318 L 216 320 L 218 323 L 215 326 L 215 328 L 219 330 L 222 330 L 225 332 L 231 333 L 236 322 L 241 318 L 244 319 L 246 321 L 245 328 L 246 320 L 255 301 L 256 295 L 255 294 L 252 294 L 248 296 L 238 308 L 235 308 L 223 304 L 219 301 L 220 299 L 229 297 L 231 295 L 229 292 L 221 291 L 218 289 L 216 289 L 210 283 L 202 283 L 201 282 L 194 281 L 192 278 L 194 276 L 200 276 L 201 275 L 201 272 L 197 268 L 195 268 L 192 266 L 183 263 L 171 254 L 154 235 L 153 232 L 148 226 L 145 219 L 134 203 L 132 205 L 130 204 L 129 195 L 128 194 Z M 254 294 L 256 296 L 254 302 L 248 315 L 245 316 L 244 314 L 249 303 L 247 303 L 244 306 L 242 305 L 244 301 L 249 296 L 252 294 Z M 217 292 L 218 291 L 221 292 L 227 292 L 229 295 L 227 297 L 220 298 L 219 297 L 220 294 Z M 187 268 L 190 267 L 198 270 L 200 273 L 198 275 L 196 275 Z M 156 268 L 158 267 L 159 270 L 157 271 Z M 133 208 L 135 209 L 136 212 L 135 214 L 134 214 L 132 211 Z M 221 154 L 221 156 L 224 160 L 225 158 L 223 155 Z M 377 145 L 373 145 L 370 151 L 361 159 L 370 151 L 371 148 L 374 145 L 376 145 L 381 150 L 383 156 L 383 165 L 384 166 L 383 187 L 380 195 L 380 199 L 378 202 L 376 209 L 371 217 L 366 222 L 363 223 L 354 230 L 351 230 L 346 232 L 340 232 L 328 228 L 311 212 L 300 196 L 298 191 L 303 201 L 314 216 L 322 224 L 328 228 L 337 232 L 341 232 L 342 233 L 353 231 L 357 229 L 360 226 L 367 222 L 374 213 L 380 200 L 380 197 L 383 189 L 383 183 L 384 182 L 384 163 L 383 162 L 383 154 L 380 148 Z M 278 138 L 276 138 L 269 132 L 262 132 L 253 136 L 248 140 L 245 146 L 245 153 L 251 158 L 258 159 L 262 157 L 271 148 L 273 149 L 273 155 L 273 147 L 274 146 L 274 143 Z M 271 134 L 274 137 L 274 140 L 271 144 L 269 142 L 269 138 L 268 137 L 259 138 L 256 140 L 257 145 L 259 145 L 261 147 L 261 150 L 264 149 L 267 145 L 269 146 L 269 148 L 261 156 L 258 158 L 252 158 L 246 153 L 245 151 L 246 144 L 253 137 L 262 133 L 269 133 Z M 242 128 L 243 133 L 231 146 L 232 149 L 238 148 L 240 150 L 240 153 L 233 167 L 234 170 L 237 168 L 239 168 L 241 170 L 239 176 L 239 180 L 239 176 L 240 175 L 241 169 L 240 168 L 235 168 L 234 167 L 234 164 L 241 151 L 241 149 L 240 148 L 233 148 L 232 146 L 242 135 L 243 133 Z M 485 118 L 487 119 L 492 125 L 491 126 L 481 126 L 480 129 L 491 141 L 495 147 L 493 150 L 489 148 L 487 148 L 485 150 L 486 155 L 491 163 L 493 170 L 491 172 L 488 170 L 485 170 L 483 174 L 481 172 L 481 169 L 482 168 L 480 167 L 475 161 L 470 158 L 464 157 L 464 159 L 472 168 L 472 170 L 470 172 L 466 172 L 471 178 L 471 181 L 468 184 L 465 182 L 460 182 L 460 184 L 464 191 L 464 193 L 462 195 L 457 192 L 450 191 L 450 192 L 458 200 L 458 202 L 456 204 L 455 203 L 452 204 L 449 208 L 449 214 L 447 216 L 443 212 L 441 213 L 442 215 L 442 221 L 439 225 L 435 221 L 432 224 L 432 231 L 430 234 L 427 233 L 427 228 L 425 228 L 419 236 L 415 236 L 408 243 L 405 249 L 405 252 L 406 253 L 409 251 L 411 247 L 417 240 L 419 242 L 419 247 L 420 248 L 425 248 L 428 245 L 430 245 L 431 246 L 444 246 L 447 249 L 450 250 L 452 248 L 453 245 L 457 242 L 468 242 L 474 244 L 476 246 L 479 246 L 484 249 L 486 249 L 474 244 L 471 241 L 473 239 L 476 239 L 476 238 L 474 237 L 470 237 L 467 234 L 470 232 L 469 230 L 465 230 L 463 228 L 463 226 L 471 218 L 476 209 L 479 200 L 479 193 L 481 191 L 484 193 L 486 192 L 486 177 L 485 176 L 485 172 L 488 170 L 493 173 L 492 165 L 485 151 L 487 149 L 491 149 L 492 150 L 495 150 L 496 149 L 489 138 L 480 129 L 482 126 L 492 126 L 493 124 Z M 444 244 L 446 242 L 449 242 L 450 244 L 447 246 Z M 442 237 L 444 240 L 439 245 L 437 245 L 435 242 L 440 237 Z M 456 222 L 458 225 L 455 228 L 454 231 L 448 236 L 446 234 L 447 231 Z M 387 129 L 387 132 L 389 136 L 393 140 L 398 143 L 407 146 L 426 146 L 431 144 L 437 137 L 437 130 L 430 122 L 423 119 L 418 119 L 417 118 L 403 118 L 402 119 L 395 120 L 388 126 Z M 388 127 L 393 122 L 400 119 L 404 119 L 405 118 L 423 119 L 426 121 L 428 121 L 435 127 L 437 130 L 437 137 L 429 144 L 423 146 L 411 146 L 410 145 L 406 145 L 394 140 L 388 133 Z M 184 123 L 182 121 L 173 117 L 162 117 L 153 120 L 143 126 L 129 139 L 127 143 L 127 152 L 132 162 L 136 165 L 141 167 L 159 167 L 160 166 L 165 166 L 166 165 L 170 165 L 171 164 L 178 163 L 185 160 L 190 155 L 192 151 L 193 143 L 192 142 L 192 138 Z M 187 128 L 192 140 L 192 150 L 190 154 L 184 160 L 169 165 L 157 166 L 156 167 L 142 167 L 136 165 L 130 159 L 127 152 L 127 143 L 130 138 L 137 131 L 148 123 L 154 120 L 166 117 L 167 118 L 174 118 L 181 121 Z M 299 114 L 298 118 L 292 124 L 288 126 L 284 133 L 284 137 L 283 138 L 280 137 L 283 139 L 283 147 L 282 148 L 282 156 L 285 162 L 291 167 L 292 167 L 285 162 L 282 156 L 283 142 L 285 141 L 288 146 L 293 151 L 299 154 L 293 151 L 288 146 L 284 138 L 284 133 L 291 125 L 296 123 L 295 121 L 298 118 Z M 218 109 L 215 109 L 218 109 L 221 112 L 223 116 L 223 123 L 219 132 L 219 134 L 217 136 L 213 144 L 206 151 L 206 156 L 208 158 L 214 171 L 213 167 L 206 155 L 206 152 L 214 143 L 222 127 L 223 116 L 221 112 Z M 309 112 L 310 113 L 314 113 L 320 111 L 331 111 L 340 114 L 343 114 L 344 113 L 344 111 L 341 108 L 335 105 L 319 105 L 311 109 Z M 315 109 L 321 106 L 324 106 L 325 107 L 336 107 L 338 108 L 341 112 L 340 113 L 331 110 L 319 110 L 316 111 Z M 230 103 L 233 110 L 235 110 L 236 108 Z M 135 88 L 129 89 L 125 93 L 124 99 L 125 99 L 131 92 L 136 93 L 139 96 L 143 104 L 143 109 L 144 110 L 143 118 L 139 122 L 134 123 L 132 122 L 125 114 L 122 117 L 120 117 L 116 114 L 113 114 L 110 115 L 106 120 L 106 132 L 106 120 L 113 114 L 116 114 L 119 117 L 118 119 L 113 119 L 110 123 L 111 133 L 115 140 L 118 142 L 123 142 L 127 138 L 129 134 L 128 127 L 121 119 L 125 116 L 132 123 L 140 122 L 144 117 L 144 106 L 141 99 L 142 97 L 144 98 L 144 99 L 142 94 Z M 115 119 L 122 121 L 128 128 L 128 135 L 122 142 L 119 142 L 113 136 L 111 132 L 110 124 L 111 122 Z M 191 81 L 188 85 L 189 86 L 192 85 L 196 90 L 196 107 L 194 113 L 190 117 L 185 117 L 181 113 L 178 108 L 176 109 L 174 107 L 174 108 L 186 118 L 191 117 L 195 113 L 195 111 L 197 109 L 199 111 L 199 115 L 203 119 L 196 128 L 196 133 L 197 136 L 200 139 L 204 140 L 209 138 L 216 132 L 219 123 L 219 118 L 217 113 L 212 113 L 211 112 L 213 110 L 209 112 L 203 117 L 201 117 L 199 115 L 200 87 L 199 84 L 196 81 Z M 215 113 L 218 116 L 218 125 L 217 128 L 209 137 L 205 139 L 201 139 L 196 133 L 196 129 L 198 125 L 208 116 L 213 113 Z M 193 81 L 196 81 L 199 84 L 200 87 L 200 91 L 199 92 L 197 91 L 197 88 L 195 85 L 192 83 Z M 159 74 L 165 74 L 169 78 L 173 87 L 173 93 L 172 83 L 168 76 L 165 74 L 159 74 L 157 75 L 153 81 L 153 84 L 154 84 L 160 79 L 162 79 L 167 84 L 169 89 L 169 94 L 170 95 L 170 105 L 169 108 L 164 112 L 157 112 L 153 107 L 150 109 L 147 107 L 147 106 L 149 110 L 153 109 L 156 112 L 162 113 L 167 111 L 171 106 L 170 103 L 171 96 L 170 95 L 169 85 L 164 79 L 159 79 L 156 81 L 154 80 Z M 473 60 L 464 70 L 460 72 L 460 75 L 464 79 L 470 88 L 476 100 L 479 103 L 480 107 L 477 110 L 477 112 L 483 117 L 477 112 L 477 111 L 482 107 L 475 98 L 465 80 L 461 76 L 461 73 L 470 65 Z M 305 63 L 302 60 L 295 60 L 291 62 L 283 70 L 283 75 L 286 78 L 289 77 L 293 73 L 303 69 L 305 66 Z M 305 63 L 305 66 L 302 69 L 293 73 L 289 77 L 286 78 L 283 75 L 283 70 L 291 62 L 295 60 L 302 60 Z M 262 58 L 256 58 L 251 60 L 245 66 L 243 71 L 243 79 L 244 82 L 253 90 L 255 90 L 260 85 L 262 81 L 272 68 L 272 66 L 270 63 Z M 263 60 L 270 66 L 270 68 L 267 71 L 266 74 L 263 77 L 261 82 L 256 88 L 252 88 L 250 87 L 244 80 L 243 77 L 244 70 L 247 65 L 251 61 L 253 60 Z M 435 34 L 429 41 L 428 44 L 429 48 L 431 50 L 433 50 L 436 52 L 449 64 L 453 64 L 455 63 L 459 59 L 462 54 L 462 45 L 459 39 L 452 33 L 450 33 L 447 31 L 442 31 Z M 435 35 L 441 32 L 446 32 L 453 35 L 460 42 L 462 51 L 459 57 L 453 63 L 450 63 L 438 52 L 433 49 L 431 49 L 429 47 L 429 43 L 431 39 Z M 363 23 L 361 22 L 357 24 L 349 33 L 347 33 L 343 30 L 334 26 L 330 26 L 330 29 L 332 31 L 333 34 L 330 38 L 315 38 L 331 38 L 333 36 L 332 31 L 330 29 L 332 26 L 334 26 L 347 33 L 349 33 L 356 25 L 359 23 L 361 23 L 362 26 Z M 434 15 L 429 16 L 420 22 L 414 30 L 413 36 L 411 38 L 408 38 L 411 39 L 413 37 L 414 30 L 423 20 L 432 15 Z" fill="#D8D8D8" fill-rule="evenodd"/><path d="M 447 638 L 448 639 L 451 639 L 452 638 L 460 638 L 461 637 L 484 638 L 484 636 L 478 635 L 477 634 L 458 634 L 453 636 L 449 636 Z M 462 635 L 463 634 L 472 634 L 473 636 L 472 637 L 463 637 Z M 269 523 L 272 530 L 277 536 L 282 540 L 283 538 L 272 524 Z M 397 519 L 396 519 L 395 522 L 395 529 L 396 529 L 397 526 Z M 258 516 L 258 518 L 263 526 L 267 529 L 268 528 L 262 519 Z M 292 514 L 295 522 L 301 531 L 305 535 L 307 535 L 306 532 L 298 523 L 293 514 Z M 421 509 L 419 509 L 416 519 L 413 524 L 414 527 L 415 527 L 416 523 L 420 516 Z M 244 499 L 243 501 L 244 502 L 244 506 L 247 514 L 250 516 L 249 510 Z M 271 495 L 271 498 L 273 504 L 276 508 L 277 505 L 274 500 L 274 498 L 272 495 Z M 437 459 L 438 460 L 439 471 L 442 473 L 443 472 L 442 471 L 441 464 L 439 460 Z M 262 325 L 260 325 L 250 334 L 251 338 L 247 344 L 249 344 L 262 327 Z M 254 295 L 252 295 L 245 301 L 243 305 L 247 302 L 250 303 L 248 306 L 245 315 L 247 315 L 250 309 L 250 307 L 255 297 Z M 218 292 L 221 294 L 220 297 L 224 297 L 228 295 L 227 293 L 221 293 Z M 188 268 L 196 274 L 199 273 L 199 272 L 196 270 Z M 361 254 L 353 255 L 352 256 L 353 257 L 360 256 Z M 322 254 L 323 257 L 335 268 L 353 277 L 358 276 L 361 274 L 366 274 L 384 261 L 384 260 L 380 261 L 377 264 L 374 265 L 371 268 L 359 274 L 352 274 L 351 273 L 348 273 L 344 270 L 339 268 L 332 263 L 326 257 L 327 254 L 330 256 L 336 256 L 337 257 L 343 257 L 343 256 L 341 255 L 334 255 L 329 253 L 323 253 Z M 443 239 L 440 238 L 436 243 L 439 244 Z M 456 223 L 448 231 L 447 233 L 448 235 L 453 231 L 454 228 L 457 225 Z M 220 152 L 220 157 L 222 161 L 225 162 L 226 161 L 226 157 L 222 152 Z M 221 153 L 222 153 L 226 158 L 224 161 L 220 156 Z M 276 141 L 274 147 L 274 156 L 276 162 L 284 171 L 289 174 L 293 175 L 295 177 L 296 184 L 301 196 L 312 212 L 324 224 L 328 227 L 330 227 L 336 230 L 346 231 L 347 230 L 354 229 L 363 222 L 366 221 L 370 217 L 375 209 L 377 202 L 379 199 L 379 195 L 382 187 L 382 179 L 383 178 L 382 156 L 380 150 L 376 146 L 374 146 L 372 148 L 371 151 L 363 159 L 350 165 L 347 165 L 342 167 L 331 167 L 330 166 L 325 166 L 324 165 L 320 165 L 315 163 L 310 163 L 301 169 L 294 169 L 287 165 L 282 159 L 281 156 L 282 139 L 279 138 Z M 276 142 L 279 139 L 282 141 L 282 144 L 281 145 L 281 157 L 283 161 L 289 167 L 297 170 L 300 170 L 306 167 L 309 164 L 317 164 L 318 165 L 322 165 L 328 167 L 344 167 L 345 166 L 348 166 L 364 159 L 371 152 L 372 149 L 374 147 L 376 147 L 379 150 L 381 155 L 381 161 L 382 162 L 382 180 L 381 181 L 381 186 L 379 191 L 378 199 L 376 205 L 371 214 L 367 218 L 365 217 L 365 215 L 370 207 L 373 198 L 373 193 L 372 191 L 364 184 L 361 183 L 349 183 L 337 189 L 326 201 L 324 205 L 324 213 L 334 226 L 333 227 L 330 227 L 325 224 L 312 211 L 304 200 L 298 189 L 297 183 L 296 182 L 296 177 L 294 175 L 286 172 L 277 163 L 274 154 Z M 269 134 L 262 134 L 253 138 L 247 144 L 246 147 L 246 151 L 247 153 L 252 157 L 258 157 L 261 155 L 268 148 L 268 146 L 267 146 L 264 150 L 261 151 L 260 150 L 260 147 L 256 145 L 255 140 L 259 137 L 268 136 L 270 138 L 270 142 L 271 143 L 273 140 L 273 137 Z M 254 148 L 256 146 L 259 150 L 256 151 Z M 285 133 L 285 138 L 289 146 L 296 152 L 303 155 L 314 155 L 325 150 L 334 142 L 337 136 L 336 130 L 332 126 L 319 121 L 306 121 L 305 122 L 297 123 L 291 126 Z M 286 132 L 292 126 L 298 123 L 306 122 L 307 121 L 318 121 L 331 126 L 336 131 L 336 137 L 334 141 L 324 150 L 312 155 L 305 155 L 295 151 L 288 144 L 286 140 Z M 115 120 L 113 121 L 111 124 L 112 132 L 114 136 L 119 141 L 122 141 L 127 135 L 127 128 L 122 122 Z M 389 127 L 389 133 L 390 135 L 394 139 L 406 144 L 410 144 L 411 145 L 423 145 L 429 143 L 436 137 L 436 130 L 434 127 L 428 122 L 426 122 L 423 120 L 417 120 L 416 119 L 405 119 L 404 120 L 400 120 L 393 123 Z M 183 124 L 177 120 L 174 119 L 167 119 L 165 118 L 164 119 L 160 119 L 154 121 L 145 126 L 137 132 L 131 138 L 128 143 L 128 152 L 131 159 L 136 164 L 142 166 L 156 166 L 157 165 L 163 165 L 164 164 L 169 164 L 173 162 L 177 162 L 180 160 L 184 159 L 189 154 L 191 150 L 191 140 L 189 134 Z M 215 114 L 213 114 L 208 117 L 199 125 L 197 129 L 197 133 L 201 138 L 205 138 L 209 136 L 216 128 L 217 125 L 217 116 Z M 316 109 L 316 110 L 319 109 L 331 109 L 340 112 L 340 111 L 336 108 L 325 108 L 324 107 L 321 107 Z M 294 99 L 289 100 L 286 103 L 283 110 L 283 121 L 287 125 L 292 123 L 297 118 L 299 113 L 299 106 L 297 102 Z M 295 100 L 297 102 L 299 108 L 298 115 L 290 124 L 286 124 L 283 120 L 283 111 L 285 105 L 290 100 Z M 375 92 L 373 93 L 369 98 L 368 101 L 368 113 L 370 118 L 372 120 L 379 122 L 382 121 L 386 115 L 387 112 L 387 104 L 384 96 L 379 92 Z M 376 92 L 380 93 L 384 97 L 387 106 L 386 114 L 384 118 L 381 121 L 375 121 L 373 120 L 369 115 L 368 112 L 368 103 L 371 96 Z M 304 63 L 302 61 L 295 61 L 291 63 L 284 70 L 284 75 L 286 77 L 289 76 L 293 72 L 302 68 L 304 66 Z M 303 63 L 303 66 L 301 68 L 295 70 L 288 76 L 286 76 L 284 74 L 284 71 L 292 63 L 296 61 L 301 61 Z M 263 61 L 253 61 L 248 65 L 245 70 L 245 73 L 244 74 L 245 80 L 246 82 L 252 87 L 256 87 L 260 82 L 262 77 L 269 68 L 269 66 Z M 368 52 L 368 56 L 370 58 L 373 58 L 379 60 L 387 65 L 391 63 L 391 59 L 390 57 L 386 53 L 379 50 L 371 50 Z M 368 53 L 372 50 L 378 50 L 385 53 L 390 58 L 391 61 L 388 64 L 386 64 L 380 60 L 370 57 L 368 55 Z M 435 36 L 432 39 L 430 43 L 430 47 L 438 51 L 450 62 L 453 62 L 458 57 L 461 51 L 459 42 L 453 36 L 446 33 L 441 33 Z M 450 13 L 444 13 L 443 12 L 438 12 L 426 16 L 415 26 L 412 31 L 412 35 L 410 37 L 399 33 L 395 33 L 389 31 L 382 31 L 381 30 L 363 31 L 362 29 L 364 25 L 364 21 L 362 20 L 356 23 L 348 31 L 346 31 L 344 29 L 336 25 L 329 24 L 328 25 L 328 28 L 331 32 L 331 34 L 329 36 L 313 37 L 311 38 L 307 43 L 302 44 L 294 48 L 285 55 L 284 55 L 280 49 L 274 44 L 263 40 L 257 40 L 256 41 L 252 41 L 249 43 L 247 43 L 240 47 L 233 54 L 229 62 L 228 69 L 227 70 L 228 81 L 233 91 L 241 98 L 247 100 L 249 102 L 249 104 L 240 123 L 241 133 L 235 139 L 229 147 L 229 149 L 231 151 L 233 150 L 238 150 L 239 151 L 235 160 L 233 162 L 232 165 L 232 171 L 234 172 L 237 170 L 239 172 L 238 179 L 237 180 L 237 189 L 239 192 L 244 192 L 245 193 L 245 204 L 247 210 L 250 214 L 252 214 L 254 212 L 257 215 L 257 217 L 260 220 L 263 221 L 271 230 L 278 240 L 278 245 L 276 247 L 274 247 L 271 244 L 266 235 L 263 239 L 261 237 L 258 231 L 258 229 L 255 226 L 253 229 L 250 228 L 250 226 L 248 223 L 248 220 L 245 214 L 242 211 L 240 212 L 239 215 L 237 214 L 229 190 L 228 189 L 223 190 L 220 185 L 219 179 L 215 171 L 214 166 L 210 160 L 207 153 L 215 144 L 222 131 L 224 125 L 224 115 L 222 111 L 219 108 L 214 108 L 203 115 L 200 113 L 202 95 L 201 94 L 201 86 L 198 81 L 196 80 L 190 80 L 187 82 L 182 90 L 178 102 L 176 104 L 174 103 L 174 86 L 171 78 L 166 73 L 159 73 L 153 78 L 150 87 L 150 105 L 149 106 L 147 105 L 146 100 L 142 92 L 138 88 L 136 87 L 130 87 L 128 88 L 124 92 L 122 98 L 123 114 L 122 115 L 119 115 L 117 113 L 111 113 L 106 117 L 105 119 L 105 133 L 106 134 L 106 137 L 109 146 L 116 160 L 121 168 L 125 172 L 126 175 L 126 184 L 126 174 L 117 161 L 109 145 L 106 136 L 106 133 L 105 132 L 105 120 L 106 118 L 110 114 L 113 113 L 116 113 L 120 116 L 122 116 L 125 113 L 127 116 L 134 122 L 139 121 L 142 118 L 143 115 L 142 104 L 138 96 L 134 93 L 131 93 L 125 100 L 123 99 L 124 93 L 129 88 L 132 87 L 137 88 L 143 94 L 147 103 L 147 105 L 149 108 L 153 106 L 157 111 L 164 111 L 168 108 L 169 105 L 169 95 L 168 94 L 168 89 L 166 84 L 162 80 L 160 80 L 154 85 L 152 84 L 152 81 L 154 77 L 159 73 L 165 73 L 167 74 L 173 83 L 173 86 L 174 87 L 174 106 L 176 108 L 178 107 L 185 116 L 190 116 L 193 113 L 195 107 L 195 90 L 192 86 L 189 87 L 187 84 L 191 80 L 196 80 L 200 84 L 201 87 L 200 115 L 203 116 L 209 111 L 215 108 L 218 108 L 222 112 L 224 116 L 224 123 L 221 132 L 215 143 L 207 152 L 207 155 L 214 167 L 215 172 L 219 180 L 220 186 L 224 193 L 227 190 L 230 193 L 237 215 L 239 217 L 240 214 L 243 213 L 247 218 L 250 229 L 252 231 L 256 228 L 258 230 L 262 240 L 263 241 L 267 238 L 271 245 L 274 248 L 276 248 L 279 244 L 277 237 L 266 223 L 258 217 L 257 213 L 255 210 L 251 213 L 247 209 L 245 203 L 245 191 L 243 190 L 240 192 L 237 188 L 238 176 L 240 170 L 237 169 L 234 171 L 232 169 L 233 164 L 239 153 L 239 150 L 238 149 L 232 150 L 230 148 L 230 146 L 242 133 L 240 125 L 241 124 L 241 121 L 245 114 L 245 112 L 249 105 L 249 101 L 248 100 L 242 98 L 233 90 L 230 85 L 228 79 L 228 68 L 229 67 L 229 63 L 233 55 L 241 47 L 248 43 L 254 41 L 266 41 L 269 43 L 271 43 L 276 46 L 281 51 L 283 55 L 286 55 L 295 48 L 303 44 L 308 43 L 312 38 L 315 37 L 330 37 L 332 35 L 331 31 L 329 29 L 329 26 L 330 25 L 334 25 L 343 29 L 347 32 L 349 32 L 357 23 L 361 21 L 364 23 L 362 27 L 362 31 L 363 32 L 367 32 L 368 31 L 385 31 L 386 32 L 391 32 L 392 33 L 400 34 L 407 37 L 411 37 L 412 36 L 413 30 L 420 21 L 429 15 L 439 13 L 440 12 L 442 13 L 452 14 L 460 18 L 472 29 L 477 39 L 477 53 L 471 65 L 462 73 L 462 76 L 466 80 L 476 98 L 483 107 L 479 110 L 478 112 L 494 124 L 492 127 L 482 127 L 481 129 L 490 138 L 497 149 L 495 151 L 492 151 L 491 150 L 487 150 L 486 151 L 493 165 L 494 173 L 492 174 L 488 171 L 486 172 L 486 176 L 487 177 L 487 192 L 485 194 L 482 192 L 480 193 L 480 200 L 477 209 L 472 218 L 464 226 L 464 228 L 465 229 L 469 229 L 471 231 L 471 232 L 468 234 L 470 236 L 474 236 L 477 238 L 476 240 L 473 240 L 472 241 L 474 243 L 482 247 L 489 249 L 491 251 L 493 251 L 499 255 L 498 257 L 492 257 L 492 259 L 494 261 L 503 265 L 512 271 L 520 278 L 518 280 L 511 279 L 510 281 L 517 286 L 525 290 L 527 290 L 531 293 L 530 295 L 525 295 L 523 298 L 537 307 L 549 317 L 548 320 L 545 319 L 539 319 L 538 320 L 553 334 L 554 334 L 567 347 L 566 349 L 563 349 L 558 347 L 556 348 L 567 361 L 569 365 L 577 375 L 575 377 L 569 375 L 569 377 L 583 398 L 582 401 L 578 400 L 578 403 L 582 410 L 584 420 L 588 430 L 588 433 L 584 435 L 585 442 L 586 443 L 586 465 L 585 466 L 584 474 L 582 480 L 576 491 L 571 496 L 569 496 L 568 495 L 569 493 L 569 483 L 566 482 L 559 498 L 553 504 L 550 505 L 543 505 L 541 502 L 545 494 L 545 485 L 542 484 L 536 496 L 530 502 L 528 503 L 522 503 L 517 501 L 512 495 L 512 493 L 516 488 L 519 480 L 519 475 L 520 474 L 519 470 L 517 468 L 514 470 L 510 480 L 506 484 L 501 484 L 499 483 L 493 476 L 492 469 L 491 468 L 491 462 L 492 461 L 492 455 L 497 443 L 497 437 L 495 432 L 495 428 L 494 427 L 494 423 L 493 422 L 493 418 L 492 417 L 489 402 L 487 398 L 487 395 L 484 386 L 473 362 L 463 347 L 459 343 L 456 345 L 457 352 L 462 360 L 473 384 L 478 399 L 479 407 L 480 408 L 480 411 L 483 420 L 483 425 L 484 426 L 485 434 L 486 435 L 486 443 L 481 458 L 481 472 L 482 473 L 482 477 L 486 486 L 494 494 L 500 496 L 503 500 L 503 506 L 504 507 L 504 512 L 505 513 L 506 520 L 505 521 L 501 520 L 500 523 L 508 543 L 506 545 L 498 541 L 497 543 L 505 557 L 506 562 L 509 567 L 509 570 L 507 571 L 503 568 L 501 569 L 506 579 L 503 583 L 504 586 L 504 592 L 505 593 L 505 602 L 504 603 L 504 616 L 503 617 L 502 627 L 500 632 L 497 635 L 497 637 L 499 639 L 506 642 L 515 651 L 517 656 L 517 660 L 518 661 L 518 667 L 517 670 L 510 678 L 508 678 L 506 676 L 506 668 L 504 662 L 499 657 L 497 657 L 495 659 L 496 668 L 497 669 L 497 678 L 494 681 L 491 682 L 484 682 L 481 683 L 479 681 L 480 679 L 480 670 L 479 669 L 479 666 L 475 660 L 471 660 L 469 662 L 470 681 L 467 684 L 449 684 L 447 682 L 447 665 L 444 661 L 441 661 L 438 664 L 438 682 L 437 683 L 422 682 L 421 681 L 411 679 L 405 676 L 400 671 L 398 666 L 398 657 L 399 656 L 399 651 L 401 646 L 401 636 L 400 635 L 400 631 L 398 630 L 396 632 L 394 630 L 394 626 L 393 625 L 394 611 L 391 611 L 390 610 L 390 594 L 387 595 L 385 594 L 383 588 L 383 583 L 379 575 L 379 572 L 384 570 L 386 568 L 386 565 L 382 562 L 376 563 L 375 564 L 365 564 L 364 565 L 345 564 L 344 563 L 330 561 L 316 556 L 311 556 L 309 558 L 309 560 L 312 563 L 322 568 L 330 570 L 333 572 L 337 572 L 339 574 L 339 579 L 338 580 L 337 588 L 336 589 L 337 591 L 337 596 L 336 597 L 334 597 L 332 595 L 330 596 L 331 613 L 332 614 L 331 628 L 329 629 L 326 627 L 324 629 L 324 633 L 326 638 L 326 656 L 324 661 L 320 665 L 314 668 L 311 668 L 306 670 L 293 671 L 287 673 L 278 673 L 277 674 L 268 674 L 267 675 L 244 675 L 240 672 L 240 661 L 242 657 L 242 653 L 241 652 L 237 652 L 234 655 L 231 662 L 231 671 L 229 673 L 225 673 L 224 672 L 220 672 L 215 668 L 216 656 L 219 650 L 217 647 L 214 647 L 209 652 L 208 658 L 207 659 L 207 666 L 204 668 L 200 664 L 199 662 L 199 651 L 200 650 L 200 647 L 203 640 L 210 634 L 217 631 L 225 630 L 226 629 L 241 629 L 242 630 L 247 630 L 248 631 L 255 632 L 255 630 L 245 626 L 238 626 L 234 622 L 232 616 L 232 613 L 231 612 L 231 609 L 230 608 L 229 597 L 227 593 L 227 584 L 224 581 L 227 568 L 226 567 L 222 569 L 219 568 L 221 558 L 223 554 L 223 551 L 227 543 L 227 540 L 223 540 L 221 541 L 219 539 L 227 523 L 226 521 L 222 522 L 220 520 L 225 512 L 227 505 L 228 504 L 231 504 L 232 505 L 234 504 L 234 499 L 228 486 L 227 475 L 225 473 L 223 476 L 220 475 L 220 465 L 221 464 L 222 451 L 220 451 L 217 454 L 215 452 L 218 436 L 223 423 L 220 422 L 216 424 L 214 422 L 215 418 L 221 406 L 229 394 L 228 392 L 221 393 L 219 391 L 235 371 L 234 368 L 229 369 L 227 367 L 237 353 L 238 345 L 240 341 L 240 338 L 242 335 L 242 332 L 244 329 L 245 321 L 242 319 L 239 320 L 237 322 L 233 330 L 233 332 L 231 334 L 228 334 L 222 331 L 219 331 L 214 328 L 214 326 L 217 323 L 216 321 L 210 319 L 206 319 L 203 317 L 200 317 L 196 314 L 196 312 L 200 309 L 199 306 L 183 301 L 175 297 L 172 294 L 174 291 L 181 291 L 182 289 L 176 284 L 172 283 L 165 279 L 153 268 L 154 265 L 161 266 L 163 263 L 150 250 L 137 228 L 137 226 L 135 223 L 135 221 L 131 212 L 131 209 L 128 200 L 127 186 L 127 196 L 128 197 L 128 201 L 129 202 L 131 213 L 134 222 L 136 225 L 136 227 L 148 248 L 161 262 L 159 265 L 155 265 L 153 264 L 152 265 L 152 268 L 161 277 L 165 280 L 176 285 L 180 289 L 178 291 L 172 291 L 171 294 L 176 298 L 184 302 L 197 306 L 198 309 L 196 311 L 194 311 L 193 314 L 198 317 L 214 321 L 215 323 L 212 325 L 211 327 L 213 329 L 217 330 L 220 332 L 225 333 L 228 335 L 231 335 L 233 333 L 237 324 L 241 320 L 245 323 L 243 331 L 239 340 L 239 343 L 237 348 L 237 352 L 227 366 L 227 369 L 228 370 L 232 369 L 234 372 L 229 377 L 218 392 L 219 394 L 226 393 L 228 395 L 222 403 L 214 420 L 214 425 L 217 425 L 219 423 L 222 425 L 218 435 L 218 438 L 216 442 L 216 447 L 215 448 L 215 455 L 216 456 L 219 453 L 221 454 L 221 460 L 220 461 L 220 477 L 222 478 L 225 476 L 227 478 L 227 484 L 234 501 L 233 503 L 231 503 L 229 501 L 227 502 L 226 508 L 220 519 L 220 522 L 221 523 L 224 522 L 226 524 L 219 538 L 219 541 L 220 542 L 225 541 L 226 544 L 224 547 L 223 553 L 221 557 L 221 560 L 219 565 L 219 569 L 222 570 L 224 568 L 226 570 L 226 573 L 224 578 L 224 584 L 227 587 L 227 595 L 229 598 L 229 604 L 230 605 L 230 609 L 232 614 L 232 618 L 236 626 L 232 629 L 223 629 L 222 630 L 219 630 L 209 634 L 203 640 L 200 646 L 199 654 L 198 655 L 199 663 L 203 668 L 206 669 L 208 668 L 207 665 L 208 655 L 214 648 L 216 648 L 218 650 L 215 659 L 215 670 L 218 672 L 221 672 L 222 673 L 232 673 L 232 670 L 231 669 L 232 660 L 234 656 L 238 652 L 240 652 L 242 654 L 241 660 L 240 661 L 240 667 L 239 668 L 240 670 L 240 674 L 241 675 L 274 675 L 275 674 L 282 674 L 283 673 L 292 673 L 293 672 L 298 672 L 299 671 L 305 671 L 306 670 L 314 669 L 322 665 L 326 658 L 326 654 L 327 653 L 327 642 L 326 641 L 325 631 L 327 629 L 329 631 L 331 631 L 332 629 L 332 607 L 331 606 L 331 599 L 333 597 L 335 599 L 337 598 L 337 586 L 340 578 L 340 573 L 318 566 L 310 560 L 312 557 L 316 557 L 317 558 L 320 558 L 332 562 L 336 562 L 342 564 L 348 564 L 349 565 L 356 565 L 357 566 L 365 566 L 366 565 L 378 564 L 379 563 L 383 563 L 385 565 L 385 568 L 383 570 L 379 571 L 378 572 L 378 575 L 381 579 L 385 596 L 386 597 L 388 595 L 390 597 L 389 611 L 393 615 L 393 630 L 394 633 L 396 633 L 398 631 L 400 633 L 400 648 L 398 654 L 398 667 L 400 672 L 404 676 L 410 679 L 416 680 L 420 682 L 426 682 L 427 683 L 438 684 L 439 683 L 438 666 L 441 662 L 444 662 L 446 664 L 446 667 L 447 668 L 447 683 L 448 684 L 469 684 L 471 682 L 471 675 L 470 674 L 469 663 L 473 660 L 477 663 L 479 668 L 479 682 L 480 683 L 493 682 L 497 679 L 496 660 L 498 658 L 504 663 L 505 669 L 506 670 L 506 675 L 505 676 L 506 679 L 512 677 L 516 673 L 518 669 L 518 658 L 516 652 L 508 643 L 501 640 L 498 637 L 498 635 L 501 632 L 501 629 L 503 624 L 503 619 L 504 618 L 504 610 L 505 609 L 505 589 L 504 588 L 504 584 L 507 580 L 503 573 L 503 571 L 506 570 L 509 573 L 511 572 L 510 568 L 505 558 L 505 556 L 499 545 L 501 543 L 506 546 L 509 546 L 508 540 L 501 525 L 503 522 L 505 523 L 507 522 L 506 516 L 505 515 L 504 504 L 503 503 L 503 497 L 494 493 L 487 486 L 483 478 L 483 475 L 482 474 L 482 456 L 487 443 L 487 435 L 485 430 L 485 426 L 484 425 L 484 421 L 482 416 L 482 412 L 481 411 L 479 400 L 473 382 L 466 369 L 466 367 L 460 355 L 458 353 L 457 345 L 459 344 L 463 348 L 476 369 L 477 373 L 482 383 L 482 385 L 484 388 L 487 397 L 487 400 L 489 404 L 489 407 L 490 408 L 490 411 L 493 420 L 495 434 L 497 439 L 497 442 L 494 448 L 492 458 L 491 459 L 491 471 L 492 472 L 492 475 L 494 479 L 499 484 L 505 485 L 509 482 L 513 474 L 513 472 L 516 469 L 519 471 L 518 482 L 516 485 L 515 489 L 512 492 L 512 496 L 514 499 L 518 502 L 524 504 L 530 503 L 536 497 L 541 486 L 543 484 L 545 486 L 545 494 L 543 499 L 540 503 L 542 506 L 549 506 L 554 504 L 560 498 L 564 486 L 567 483 L 569 485 L 569 492 L 567 497 L 569 498 L 572 496 L 578 489 L 584 475 L 585 467 L 586 466 L 586 460 L 587 459 L 587 449 L 586 448 L 585 437 L 589 435 L 589 432 L 584 419 L 583 412 L 579 404 L 581 402 L 583 403 L 584 400 L 575 384 L 570 378 L 572 376 L 574 377 L 577 377 L 578 376 L 563 355 L 559 351 L 560 348 L 566 350 L 568 350 L 569 348 L 541 322 L 542 320 L 550 320 L 550 317 L 542 310 L 538 308 L 531 302 L 528 301 L 525 298 L 526 296 L 531 296 L 532 293 L 530 291 L 518 286 L 513 282 L 514 280 L 520 280 L 521 277 L 502 264 L 494 260 L 495 258 L 497 257 L 501 257 L 502 256 L 500 254 L 488 248 L 486 248 L 481 245 L 477 244 L 475 242 L 478 240 L 479 238 L 473 236 L 471 234 L 473 232 L 473 230 L 471 229 L 467 229 L 466 228 L 466 226 L 470 222 L 478 208 L 479 202 L 480 201 L 480 195 L 482 193 L 484 195 L 486 195 L 488 192 L 488 180 L 486 174 L 488 172 L 492 175 L 495 174 L 494 166 L 487 152 L 489 150 L 496 152 L 497 151 L 497 148 L 490 137 L 482 129 L 484 127 L 493 128 L 495 126 L 495 124 L 479 112 L 483 109 L 483 106 L 480 103 L 468 82 L 463 76 L 463 73 L 470 67 L 476 57 L 477 51 L 478 50 L 477 38 L 472 28 L 464 20 Z M 458 6 L 452 4 L 446 4 L 445 3 L 438 3 L 437 4 L 432 4 L 431 5 L 425 6 L 415 12 L 409 18 L 407 22 L 404 25 L 397 24 L 396 23 L 390 23 L 389 22 L 374 22 L 372 20 L 371 17 L 367 13 L 364 13 L 363 12 L 355 14 L 347 20 L 344 20 L 336 16 L 327 16 L 322 20 L 321 22 L 321 27 L 319 29 L 313 29 L 312 30 L 306 31 L 304 33 L 302 33 L 300 35 L 291 39 L 288 42 L 286 42 L 278 35 L 267 31 L 254 31 L 253 32 L 250 32 L 244 34 L 232 41 L 225 49 L 220 58 L 218 64 L 218 68 L 217 69 L 217 77 L 218 78 L 218 82 L 220 88 L 224 95 L 228 99 L 227 101 L 221 99 L 213 99 L 212 98 L 210 81 L 207 76 L 203 72 L 199 70 L 190 70 L 185 72 L 183 74 L 180 74 L 172 65 L 166 63 L 160 63 L 154 65 L 148 69 L 141 79 L 138 78 L 128 78 L 120 82 L 117 85 L 113 92 L 112 102 L 103 106 L 97 112 L 95 116 L 95 134 L 97 138 L 97 141 L 108 165 L 110 167 L 116 178 L 116 193 L 117 194 L 117 200 L 118 201 L 120 214 L 124 226 L 127 231 L 127 233 L 129 235 L 129 237 L 131 239 L 137 250 L 143 257 L 142 260 L 142 269 L 149 279 L 161 289 L 161 296 L 164 301 L 169 305 L 181 310 L 183 312 L 183 317 L 186 321 L 189 322 L 191 324 L 198 326 L 200 328 L 201 331 L 205 335 L 217 341 L 224 343 L 228 346 L 223 357 L 219 363 L 219 366 L 218 367 L 219 377 L 215 381 L 210 390 L 209 395 L 213 402 L 208 411 L 205 420 L 205 430 L 209 435 L 208 441 L 207 442 L 207 446 L 206 447 L 206 458 L 210 466 L 210 473 L 211 474 L 212 481 L 216 488 L 220 492 L 215 509 L 212 514 L 212 517 L 210 521 L 213 530 L 211 533 L 209 542 L 210 543 L 210 546 L 213 549 L 213 552 L 210 559 L 209 568 L 211 574 L 215 577 L 215 588 L 216 589 L 216 593 L 218 599 L 218 605 L 220 610 L 221 618 L 218 621 L 211 622 L 198 630 L 193 636 L 189 644 L 188 651 L 187 652 L 188 663 L 191 669 L 196 674 L 199 675 L 201 677 L 207 679 L 210 679 L 211 680 L 214 680 L 215 681 L 225 682 L 226 683 L 234 683 L 235 684 L 274 684 L 275 683 L 284 683 L 285 682 L 292 682 L 293 681 L 305 680 L 310 678 L 318 677 L 327 673 L 334 666 L 337 659 L 337 651 L 338 650 L 337 647 L 337 639 L 342 631 L 342 627 L 343 626 L 343 606 L 347 602 L 348 599 L 348 591 L 349 590 L 349 585 L 350 584 L 350 577 L 352 575 L 355 576 L 368 576 L 370 578 L 370 581 L 372 585 L 372 588 L 374 592 L 374 595 L 378 605 L 381 608 L 383 628 L 386 636 L 390 641 L 390 647 L 388 653 L 388 669 L 393 679 L 399 684 L 407 688 L 410 688 L 414 690 L 422 691 L 423 692 L 428 692 L 429 693 L 438 693 L 439 694 L 476 694 L 477 693 L 487 693 L 488 692 L 499 691 L 500 690 L 504 690 L 513 687 L 520 683 L 527 675 L 529 669 L 529 655 L 527 649 L 522 641 L 512 633 L 513 625 L 514 624 L 514 619 L 515 618 L 515 607 L 516 606 L 516 586 L 515 584 L 520 579 L 520 576 L 521 575 L 520 568 L 518 562 L 515 557 L 515 555 L 519 551 L 519 543 L 517 537 L 514 532 L 517 527 L 517 519 L 515 514 L 516 513 L 519 513 L 523 515 L 532 515 L 534 514 L 540 517 L 549 517 L 564 512 L 577 505 L 586 496 L 590 490 L 595 478 L 595 475 L 597 470 L 597 466 L 598 465 L 598 450 L 597 449 L 597 443 L 599 440 L 599 430 L 598 429 L 596 419 L 593 413 L 593 410 L 595 408 L 595 401 L 589 388 L 586 384 L 588 381 L 588 376 L 584 368 L 576 358 L 579 354 L 579 348 L 574 340 L 559 326 L 559 324 L 561 322 L 561 317 L 554 308 L 541 298 L 542 290 L 538 285 L 529 279 L 529 274 L 528 272 L 515 262 L 515 255 L 506 247 L 495 242 L 491 238 L 491 234 L 482 223 L 488 212 L 489 207 L 496 199 L 498 185 L 504 178 L 505 171 L 504 170 L 504 165 L 502 162 L 502 160 L 506 156 L 507 149 L 503 139 L 500 136 L 500 134 L 504 129 L 504 123 L 502 119 L 492 110 L 492 105 L 488 97 L 475 77 L 476 74 L 483 66 L 487 57 L 487 54 L 488 53 L 488 41 L 487 40 L 486 33 L 480 22 L 471 13 Z M 229 103 L 230 102 L 233 104 L 237 109 L 235 111 L 233 111 Z M 457 6 L 467 11 L 475 17 L 482 26 L 486 34 L 487 42 L 488 43 L 488 52 L 487 53 L 486 59 L 481 68 L 476 73 L 475 78 L 479 83 L 484 93 L 489 100 L 491 104 L 491 110 L 502 120 L 504 124 L 504 128 L 499 134 L 506 146 L 506 155 L 502 159 L 502 163 L 504 167 L 504 177 L 501 182 L 497 186 L 497 194 L 496 195 L 496 198 L 489 206 L 487 213 L 485 217 L 482 220 L 482 224 L 489 232 L 490 234 L 490 239 L 494 242 L 508 249 L 515 257 L 514 262 L 524 269 L 529 275 L 529 280 L 536 284 L 541 289 L 542 293 L 540 298 L 551 306 L 558 313 L 561 318 L 561 321 L 559 323 L 559 326 L 578 346 L 579 348 L 579 353 L 576 356 L 576 359 L 581 364 L 585 370 L 588 377 L 588 380 L 586 382 L 586 385 L 591 392 L 592 396 L 594 399 L 595 406 L 592 412 L 594 415 L 597 424 L 598 434 L 599 435 L 596 444 L 597 451 L 598 452 L 598 461 L 597 462 L 596 473 L 589 491 L 576 505 L 558 514 L 552 516 L 547 516 L 546 517 L 538 516 L 535 514 L 525 515 L 524 514 L 521 514 L 518 512 L 514 512 L 516 517 L 516 528 L 514 530 L 514 534 L 516 536 L 518 542 L 518 546 L 519 547 L 518 551 L 515 554 L 515 558 L 519 566 L 519 569 L 520 570 L 520 578 L 515 583 L 515 612 L 514 613 L 514 620 L 513 621 L 513 626 L 512 627 L 512 633 L 522 642 L 528 653 L 528 656 L 529 657 L 529 667 L 528 668 L 528 671 L 525 677 L 519 683 L 512 687 L 509 687 L 505 689 L 501 689 L 497 691 L 482 692 L 481 693 L 460 693 L 459 694 L 434 693 L 433 692 L 426 692 L 425 691 L 420 691 L 419 690 L 412 689 L 400 684 L 392 677 L 388 668 L 388 655 L 389 654 L 389 650 L 390 649 L 391 642 L 387 637 L 384 630 L 383 621 L 382 620 L 382 609 L 378 604 L 377 600 L 375 597 L 370 577 L 368 575 L 352 575 L 350 577 L 350 583 L 348 589 L 348 599 L 346 603 L 342 607 L 342 615 L 343 616 L 342 618 L 342 629 L 339 636 L 337 638 L 337 657 L 334 665 L 329 671 L 320 676 L 317 676 L 308 679 L 298 680 L 297 681 L 291 681 L 290 682 L 265 683 L 264 684 L 230 683 L 229 682 L 222 682 L 221 681 L 212 680 L 211 679 L 208 679 L 202 677 L 197 674 L 191 668 L 188 661 L 188 649 L 193 637 L 199 630 L 210 623 L 220 621 L 221 620 L 221 613 L 219 608 L 217 592 L 215 586 L 215 576 L 211 573 L 209 567 L 210 560 L 213 553 L 213 548 L 210 545 L 210 536 L 214 529 L 211 525 L 211 518 L 215 510 L 218 499 L 220 496 L 220 491 L 216 487 L 212 480 L 211 473 L 210 472 L 210 465 L 206 457 L 206 448 L 207 447 L 207 443 L 209 438 L 209 434 L 205 429 L 205 420 L 207 414 L 213 403 L 213 400 L 210 397 L 210 391 L 212 386 L 220 376 L 220 374 L 218 371 L 218 368 L 220 362 L 228 348 L 228 345 L 225 343 L 220 342 L 213 338 L 209 337 L 201 330 L 199 326 L 188 322 L 184 318 L 183 316 L 183 311 L 182 310 L 173 307 L 163 299 L 161 295 L 161 288 L 153 282 L 144 272 L 142 268 L 143 256 L 139 252 L 130 238 L 124 225 L 120 213 L 120 209 L 119 208 L 118 200 L 117 199 L 116 176 L 106 161 L 106 159 L 101 150 L 101 148 L 97 139 L 96 131 L 95 130 L 95 118 L 98 111 L 105 105 L 114 102 L 113 100 L 114 90 L 122 81 L 128 78 L 137 78 L 140 80 L 142 80 L 146 72 L 151 67 L 161 63 L 165 63 L 171 65 L 180 75 L 182 75 L 186 72 L 191 70 L 198 70 L 202 72 L 209 80 L 211 86 L 211 99 L 212 100 L 220 99 L 225 101 L 230 106 L 233 113 L 235 113 L 238 107 L 233 104 L 223 93 L 219 85 L 217 70 L 218 69 L 219 61 L 224 51 L 233 41 L 243 35 L 249 33 L 252 33 L 253 32 L 256 32 L 257 31 L 263 31 L 264 32 L 272 33 L 281 38 L 285 42 L 288 42 L 292 39 L 308 31 L 314 30 L 315 29 L 320 29 L 321 28 L 321 23 L 322 21 L 328 16 L 334 16 L 335 17 L 338 17 L 345 21 L 348 21 L 356 14 L 359 13 L 366 13 L 370 16 L 373 22 L 386 22 L 387 23 L 393 23 L 394 24 L 405 25 L 409 19 L 417 11 L 426 6 L 429 6 L 434 4 L 449 4 L 450 5 Z" fill="#B1B1B1" fill-rule="evenodd"/><path d="M 463 635 L 463 636 L 472 636 L 472 635 Z M 277 142 L 275 154 L 276 155 L 276 159 L 278 163 L 286 171 L 294 174 L 297 177 L 297 182 L 298 183 L 299 189 L 302 195 L 304 197 L 305 200 L 313 210 L 313 211 L 325 223 L 330 226 L 333 226 L 333 225 L 327 219 L 327 218 L 323 213 L 323 205 L 325 201 L 327 199 L 327 198 L 337 188 L 349 182 L 361 182 L 362 183 L 364 183 L 366 184 L 373 191 L 374 193 L 374 198 L 373 199 L 371 207 L 366 215 L 366 217 L 367 217 L 370 214 L 371 211 L 373 209 L 375 205 L 375 203 L 377 199 L 378 191 L 379 190 L 379 187 L 380 186 L 380 181 L 381 180 L 381 162 L 380 161 L 380 155 L 379 154 L 378 150 L 376 148 L 374 148 L 372 152 L 364 160 L 354 165 L 352 165 L 348 167 L 345 167 L 344 168 L 328 168 L 327 167 L 323 167 L 322 166 L 318 166 L 317 165 L 309 165 L 306 168 L 300 171 L 297 171 L 296 170 L 293 170 L 289 168 L 282 161 L 280 157 L 280 145 L 281 144 L 281 141 L 279 140 Z M 292 127 L 287 132 L 287 140 L 289 144 L 295 150 L 301 153 L 304 153 L 305 154 L 312 154 L 324 149 L 333 141 L 335 137 L 335 131 L 331 127 L 325 124 L 322 124 L 318 122 L 307 122 L 306 123 L 298 124 Z M 295 101 L 290 101 L 286 105 L 286 107 L 284 111 L 284 120 L 286 123 L 290 123 L 296 117 L 297 115 L 298 108 L 297 107 L 297 104 Z M 376 93 L 372 96 L 370 100 L 370 102 L 369 103 L 369 112 L 370 113 L 370 115 L 373 119 L 375 120 L 381 120 L 383 118 L 385 114 L 386 106 L 385 105 L 385 101 L 383 97 L 380 94 Z M 302 63 L 301 62 L 296 62 L 292 64 L 285 71 L 285 74 L 286 75 L 288 75 L 295 69 L 301 67 L 302 66 Z M 369 53 L 369 55 L 372 57 L 375 57 L 378 59 L 380 59 L 384 61 L 386 63 L 388 63 L 390 61 L 389 58 L 385 54 L 381 52 L 379 52 L 378 51 L 372 51 Z M 457 7 L 454 7 L 453 6 L 450 6 L 449 5 L 434 5 L 433 6 L 426 7 L 417 12 L 410 19 L 408 23 L 405 26 L 400 26 L 399 25 L 394 25 L 393 24 L 387 24 L 386 23 L 373 23 L 371 21 L 369 16 L 366 14 L 359 14 L 358 15 L 356 15 L 354 16 L 348 22 L 345 22 L 338 18 L 335 18 L 334 17 L 328 17 L 323 21 L 322 23 L 322 28 L 320 30 L 315 30 L 314 31 L 308 32 L 292 40 L 288 43 L 285 43 L 281 39 L 272 34 L 270 34 L 269 33 L 264 33 L 263 32 L 257 32 L 256 33 L 253 33 L 252 34 L 249 34 L 248 35 L 243 36 L 233 42 L 225 51 L 220 61 L 219 69 L 218 70 L 220 85 L 224 93 L 233 103 L 234 103 L 239 107 L 238 110 L 235 114 L 233 114 L 232 113 L 229 106 L 225 102 L 221 101 L 220 100 L 215 100 L 214 101 L 212 101 L 210 99 L 210 86 L 209 85 L 207 78 L 202 73 L 198 71 L 191 71 L 190 72 L 186 73 L 182 76 L 180 76 L 171 66 L 169 65 L 166 65 L 165 64 L 161 64 L 160 65 L 157 65 L 151 68 L 147 72 L 144 79 L 142 81 L 140 81 L 137 79 L 128 79 L 122 82 L 115 90 L 115 93 L 114 94 L 114 100 L 115 102 L 113 104 L 105 106 L 103 108 L 102 108 L 99 111 L 97 115 L 97 117 L 96 118 L 96 130 L 97 131 L 98 139 L 99 140 L 100 145 L 102 148 L 102 150 L 107 159 L 107 161 L 109 163 L 111 168 L 117 176 L 118 199 L 119 200 L 119 204 L 120 205 L 120 208 L 121 209 L 121 213 L 122 214 L 125 225 L 128 230 L 128 232 L 131 238 L 133 240 L 134 243 L 136 245 L 140 252 L 144 256 L 144 260 L 143 261 L 143 268 L 145 272 L 153 281 L 158 284 L 162 288 L 162 295 L 164 299 L 173 306 L 180 308 L 184 311 L 184 316 L 188 321 L 199 325 L 201 327 L 202 330 L 209 336 L 213 337 L 220 341 L 225 342 L 229 345 L 229 348 L 225 356 L 223 358 L 221 362 L 220 367 L 219 368 L 219 371 L 221 374 L 221 376 L 215 383 L 211 391 L 211 397 L 214 400 L 214 403 L 208 414 L 208 416 L 206 420 L 206 429 L 210 434 L 210 438 L 209 439 L 208 447 L 207 448 L 207 457 L 211 465 L 211 472 L 212 473 L 212 477 L 213 478 L 213 480 L 217 487 L 221 491 L 221 496 L 219 499 L 216 510 L 212 518 L 212 525 L 215 528 L 215 529 L 211 536 L 211 545 L 214 548 L 214 553 L 211 560 L 211 564 L 210 565 L 210 567 L 211 568 L 211 571 L 212 573 L 216 576 L 216 586 L 217 587 L 217 591 L 218 592 L 218 597 L 219 598 L 220 608 L 221 609 L 221 612 L 222 613 L 222 620 L 220 622 L 217 622 L 216 623 L 210 624 L 206 627 L 203 628 L 196 634 L 191 643 L 191 645 L 189 649 L 189 661 L 192 668 L 197 673 L 202 676 L 204 676 L 208 678 L 211 678 L 212 679 L 216 679 L 217 680 L 221 680 L 222 681 L 229 681 L 230 682 L 242 682 L 243 683 L 264 683 L 265 682 L 281 682 L 282 681 L 290 681 L 291 680 L 303 679 L 304 678 L 308 678 L 309 677 L 320 675 L 329 670 L 333 665 L 335 658 L 336 657 L 336 638 L 338 636 L 341 629 L 341 618 L 342 617 L 341 615 L 341 607 L 345 603 L 347 599 L 347 589 L 348 588 L 348 584 L 349 583 L 349 577 L 352 574 L 368 574 L 371 577 L 376 597 L 378 600 L 379 604 L 383 609 L 383 620 L 384 621 L 384 626 L 385 627 L 385 630 L 388 637 L 392 642 L 392 645 L 391 646 L 391 649 L 390 650 L 390 654 L 389 655 L 389 668 L 393 677 L 400 683 L 412 688 L 415 688 L 416 689 L 419 689 L 420 690 L 425 690 L 426 691 L 433 691 L 434 692 L 450 692 L 451 693 L 459 693 L 460 692 L 481 692 L 482 691 L 497 690 L 501 688 L 505 688 L 509 686 L 512 686 L 519 682 L 524 677 L 527 671 L 527 668 L 528 667 L 528 657 L 527 656 L 527 653 L 521 642 L 511 633 L 511 627 L 512 626 L 513 613 L 514 612 L 514 583 L 519 578 L 519 570 L 518 569 L 517 563 L 514 558 L 514 554 L 517 551 L 518 547 L 517 546 L 517 542 L 516 541 L 515 536 L 513 534 L 513 530 L 515 528 L 515 517 L 514 516 L 513 512 L 514 511 L 518 511 L 521 513 L 524 513 L 525 514 L 535 513 L 538 515 L 543 515 L 544 516 L 546 516 L 547 515 L 552 515 L 553 514 L 558 513 L 576 504 L 586 494 L 586 493 L 588 491 L 591 485 L 591 483 L 592 482 L 592 480 L 595 473 L 596 462 L 597 461 L 597 452 L 596 451 L 596 447 L 595 446 L 595 444 L 596 443 L 598 435 L 597 434 L 597 428 L 596 427 L 596 424 L 595 423 L 593 415 L 591 412 L 594 406 L 593 399 L 591 396 L 590 392 L 585 385 L 585 382 L 587 380 L 587 377 L 584 370 L 582 368 L 580 364 L 575 359 L 575 356 L 578 353 L 578 348 L 577 346 L 575 344 L 575 343 L 558 326 L 558 323 L 560 321 L 560 318 L 557 313 L 551 307 L 550 307 L 546 303 L 542 301 L 539 298 L 540 294 L 541 293 L 540 289 L 536 285 L 530 282 L 528 280 L 528 275 L 527 273 L 513 262 L 514 257 L 508 250 L 494 243 L 489 239 L 489 234 L 488 232 L 482 226 L 481 224 L 481 220 L 484 217 L 488 206 L 495 198 L 495 195 L 496 194 L 496 186 L 500 182 L 503 177 L 503 167 L 501 163 L 501 159 L 505 155 L 505 146 L 502 140 L 498 135 L 498 134 L 503 128 L 503 124 L 501 120 L 490 110 L 490 104 L 488 100 L 486 98 L 485 95 L 483 93 L 478 83 L 474 78 L 474 75 L 475 73 L 482 65 L 486 56 L 486 53 L 487 52 L 487 43 L 486 42 L 485 34 L 481 26 L 475 18 L 474 18 L 467 12 Z M 220 151 L 222 151 L 227 157 L 227 161 L 225 163 L 223 163 L 221 161 L 219 157 L 219 152 Z M 453 13 L 456 15 L 458 15 L 460 17 L 464 19 L 473 28 L 477 35 L 477 37 L 478 38 L 478 42 L 479 43 L 479 50 L 478 51 L 478 54 L 474 63 L 471 66 L 471 67 L 464 73 L 464 76 L 467 79 L 470 85 L 472 87 L 474 92 L 476 94 L 477 97 L 484 106 L 484 109 L 480 112 L 482 114 L 488 117 L 496 124 L 496 126 L 493 129 L 490 129 L 489 128 L 484 128 L 483 129 L 491 137 L 498 148 L 498 151 L 496 153 L 494 153 L 490 151 L 488 152 L 495 166 L 495 168 L 496 169 L 496 174 L 494 176 L 492 176 L 488 173 L 487 174 L 488 175 L 488 179 L 489 180 L 489 192 L 486 196 L 484 196 L 482 194 L 481 195 L 481 201 L 480 202 L 479 208 L 475 216 L 473 218 L 471 222 L 467 226 L 467 228 L 471 228 L 474 230 L 474 232 L 472 234 L 473 235 L 478 236 L 480 238 L 480 239 L 476 242 L 477 243 L 481 244 L 486 247 L 488 247 L 500 253 L 503 256 L 501 258 L 497 258 L 495 259 L 495 260 L 502 263 L 522 277 L 522 279 L 520 281 L 514 281 L 514 282 L 518 285 L 526 289 L 530 290 L 533 293 L 533 295 L 531 297 L 526 297 L 526 298 L 528 300 L 531 301 L 538 307 L 542 309 L 551 317 L 551 320 L 550 321 L 542 321 L 542 322 L 570 348 L 570 349 L 568 351 L 562 350 L 561 349 L 560 349 L 560 351 L 564 355 L 564 356 L 567 359 L 567 360 L 570 363 L 572 367 L 579 376 L 577 378 L 574 378 L 573 377 L 571 378 L 576 384 L 577 387 L 581 392 L 585 400 L 585 402 L 583 404 L 581 403 L 580 404 L 584 412 L 585 419 L 586 420 L 586 422 L 587 423 L 587 425 L 590 432 L 590 435 L 588 437 L 586 437 L 586 440 L 587 441 L 587 448 L 588 449 L 588 459 L 587 460 L 587 466 L 586 467 L 585 475 L 579 489 L 572 497 L 571 497 L 569 499 L 568 499 L 566 497 L 567 493 L 568 492 L 568 485 L 567 484 L 565 486 L 565 488 L 564 489 L 564 491 L 561 498 L 554 505 L 550 506 L 549 507 L 542 507 L 539 504 L 539 503 L 542 499 L 543 495 L 544 494 L 544 486 L 543 485 L 537 497 L 530 504 L 524 505 L 523 504 L 520 504 L 518 503 L 516 501 L 515 501 L 511 496 L 511 492 L 514 489 L 515 485 L 517 482 L 517 479 L 518 478 L 518 471 L 516 470 L 514 472 L 514 474 L 510 482 L 505 486 L 499 485 L 493 479 L 491 475 L 491 472 L 490 471 L 490 459 L 491 458 L 491 455 L 492 454 L 493 448 L 496 442 L 496 439 L 495 438 L 495 435 L 494 434 L 494 430 L 493 429 L 493 425 L 492 424 L 492 420 L 491 419 L 491 416 L 490 415 L 488 404 L 486 400 L 486 397 L 485 396 L 483 388 L 481 385 L 481 383 L 479 380 L 479 378 L 476 373 L 475 369 L 473 367 L 471 362 L 469 360 L 465 352 L 462 349 L 462 348 L 459 345 L 458 345 L 458 350 L 459 351 L 459 353 L 461 355 L 467 367 L 467 369 L 474 382 L 474 384 L 475 385 L 475 387 L 476 388 L 476 390 L 477 391 L 477 393 L 480 400 L 480 403 L 481 404 L 481 407 L 482 408 L 482 411 L 483 412 L 483 416 L 484 417 L 484 420 L 485 421 L 486 430 L 487 431 L 487 434 L 488 435 L 488 443 L 487 444 L 487 446 L 486 447 L 486 449 L 483 456 L 483 474 L 484 475 L 484 478 L 488 486 L 494 492 L 498 494 L 500 494 L 504 497 L 504 503 L 505 504 L 505 509 L 506 510 L 506 515 L 507 516 L 508 522 L 506 524 L 503 523 L 502 525 L 504 528 L 506 535 L 509 540 L 510 546 L 509 547 L 506 547 L 501 544 L 500 545 L 506 556 L 506 558 L 508 561 L 508 563 L 511 568 L 512 572 L 510 574 L 509 574 L 506 571 L 504 571 L 504 573 L 508 580 L 508 581 L 505 584 L 505 588 L 506 589 L 506 609 L 505 610 L 505 618 L 504 619 L 504 624 L 503 625 L 502 632 L 499 635 L 499 637 L 501 639 L 508 642 L 517 652 L 518 654 L 518 657 L 519 658 L 519 669 L 517 673 L 512 678 L 508 680 L 506 680 L 504 678 L 504 676 L 505 675 L 505 670 L 504 669 L 503 663 L 499 659 L 498 659 L 497 660 L 497 666 L 498 667 L 498 679 L 493 683 L 488 683 L 487 684 L 480 684 L 478 682 L 478 668 L 477 667 L 476 663 L 473 661 L 472 661 L 470 663 L 470 666 L 471 667 L 471 674 L 472 675 L 472 682 L 469 685 L 448 685 L 446 683 L 446 668 L 445 667 L 445 664 L 444 663 L 441 663 L 439 666 L 439 677 L 440 678 L 440 683 L 438 685 L 435 685 L 434 684 L 427 684 L 426 683 L 420 683 L 416 681 L 410 680 L 404 677 L 399 672 L 398 668 L 397 667 L 397 654 L 398 653 L 398 649 L 399 648 L 399 633 L 398 632 L 396 634 L 394 634 L 393 633 L 393 631 L 392 630 L 392 615 L 388 611 L 389 597 L 388 596 L 386 598 L 384 596 L 383 594 L 383 591 L 382 590 L 382 585 L 381 584 L 380 579 L 377 575 L 377 572 L 379 570 L 383 569 L 384 568 L 384 565 L 383 564 L 379 564 L 378 565 L 372 565 L 371 566 L 366 566 L 365 567 L 357 567 L 356 566 L 349 566 L 348 565 L 342 565 L 341 564 L 332 563 L 331 562 L 324 561 L 323 560 L 317 559 L 316 558 L 312 558 L 311 560 L 318 565 L 320 565 L 323 567 L 325 567 L 332 570 L 339 571 L 341 573 L 341 578 L 340 579 L 340 582 L 338 586 L 338 598 L 336 600 L 335 600 L 333 598 L 332 599 L 332 606 L 333 607 L 333 629 L 331 632 L 329 632 L 327 630 L 326 631 L 326 634 L 327 635 L 327 641 L 328 642 L 328 653 L 327 654 L 327 658 L 324 664 L 322 666 L 314 670 L 306 671 L 305 672 L 293 673 L 292 674 L 283 674 L 282 675 L 275 675 L 274 676 L 241 676 L 239 674 L 239 670 L 238 669 L 239 667 L 239 661 L 240 660 L 241 654 L 240 653 L 238 653 L 235 656 L 233 660 L 233 663 L 232 664 L 232 669 L 233 670 L 233 673 L 232 674 L 222 674 L 221 673 L 218 673 L 214 670 L 214 659 L 215 658 L 215 655 L 217 651 L 216 649 L 214 649 L 209 655 L 209 658 L 208 659 L 208 665 L 209 666 L 209 668 L 207 670 L 203 669 L 199 665 L 198 663 L 198 659 L 197 658 L 199 646 L 202 640 L 209 633 L 213 631 L 215 631 L 219 629 L 222 629 L 223 628 L 232 628 L 235 626 L 231 618 L 231 614 L 230 613 L 229 605 L 228 604 L 228 598 L 226 595 L 226 587 L 223 584 L 223 578 L 224 577 L 225 570 L 224 569 L 222 571 L 220 571 L 218 569 L 218 565 L 219 564 L 220 557 L 222 553 L 223 547 L 225 544 L 225 542 L 220 543 L 218 541 L 218 538 L 225 524 L 224 523 L 222 523 L 221 524 L 219 522 L 219 519 L 225 508 L 226 502 L 228 500 L 229 500 L 231 502 L 233 502 L 226 484 L 226 478 L 224 477 L 222 479 L 221 479 L 219 477 L 219 461 L 220 460 L 220 454 L 219 454 L 216 457 L 214 455 L 214 448 L 215 447 L 215 442 L 217 438 L 217 435 L 218 434 L 218 432 L 221 425 L 219 424 L 217 426 L 214 426 L 213 425 L 213 420 L 221 403 L 227 395 L 226 394 L 224 394 L 223 395 L 219 395 L 217 393 L 217 392 L 220 387 L 233 372 L 232 370 L 228 371 L 226 369 L 226 366 L 231 358 L 236 352 L 236 348 L 237 347 L 238 340 L 239 339 L 240 334 L 242 331 L 244 323 L 242 321 L 241 321 L 238 324 L 234 333 L 231 336 L 228 336 L 225 334 L 223 334 L 222 333 L 220 333 L 217 331 L 213 330 L 210 327 L 210 326 L 212 324 L 213 324 L 214 322 L 208 321 L 207 320 L 204 320 L 203 319 L 201 319 L 194 316 L 192 314 L 192 312 L 194 310 L 196 310 L 197 309 L 197 307 L 195 307 L 194 306 L 189 305 L 186 303 L 184 303 L 173 297 L 170 294 L 170 292 L 172 290 L 178 290 L 179 289 L 176 286 L 165 281 L 151 268 L 151 265 L 153 263 L 155 264 L 159 264 L 160 262 L 147 248 L 147 247 L 143 242 L 141 237 L 139 235 L 135 227 L 135 225 L 133 222 L 133 220 L 130 213 L 128 202 L 127 201 L 127 197 L 126 196 L 125 175 L 124 174 L 124 172 L 120 168 L 117 162 L 115 160 L 108 146 L 108 144 L 105 137 L 105 134 L 104 133 L 104 119 L 105 117 L 111 112 L 117 112 L 119 114 L 122 114 L 122 108 L 121 107 L 121 98 L 122 97 L 122 94 L 123 92 L 130 86 L 136 86 L 138 87 L 143 92 L 147 100 L 148 105 L 149 105 L 149 87 L 150 86 L 150 83 L 151 82 L 152 78 L 159 72 L 166 72 L 172 78 L 174 85 L 175 86 L 175 103 L 177 102 L 177 100 L 179 97 L 181 90 L 183 88 L 186 82 L 190 79 L 196 79 L 198 80 L 200 82 L 202 86 L 202 94 L 203 95 L 203 98 L 202 99 L 202 109 L 201 110 L 201 113 L 203 114 L 214 107 L 219 107 L 223 111 L 225 115 L 225 125 L 224 126 L 223 131 L 216 144 L 209 151 L 208 153 L 211 160 L 213 162 L 215 166 L 216 171 L 220 179 L 221 185 L 223 189 L 228 188 L 230 190 L 231 194 L 233 197 L 233 200 L 235 203 L 235 206 L 236 207 L 238 214 L 239 214 L 239 212 L 241 210 L 242 210 L 246 214 L 249 220 L 249 223 L 251 226 L 251 228 L 253 228 L 253 227 L 255 225 L 259 229 L 259 231 L 263 238 L 266 234 L 268 236 L 272 244 L 274 246 L 276 246 L 277 245 L 277 240 L 270 231 L 270 230 L 266 226 L 266 225 L 263 222 L 260 221 L 256 217 L 256 215 L 254 213 L 252 215 L 250 215 L 245 208 L 245 205 L 244 204 L 244 193 L 239 193 L 236 189 L 236 180 L 237 179 L 237 175 L 238 174 L 238 172 L 237 171 L 233 173 L 231 171 L 231 165 L 232 164 L 232 162 L 234 160 L 236 156 L 236 154 L 238 152 L 238 151 L 233 151 L 231 152 L 228 149 L 228 147 L 234 140 L 234 139 L 240 133 L 239 123 L 244 113 L 244 111 L 248 104 L 248 102 L 247 101 L 245 101 L 241 99 L 232 91 L 227 81 L 226 70 L 227 69 L 227 65 L 228 64 L 228 62 L 232 54 L 243 44 L 247 42 L 249 42 L 252 40 L 256 40 L 257 39 L 263 39 L 264 40 L 267 40 L 274 43 L 277 46 L 278 46 L 281 49 L 283 53 L 285 54 L 294 47 L 302 43 L 307 42 L 308 40 L 313 36 L 329 35 L 330 34 L 330 32 L 327 28 L 327 25 L 329 23 L 333 23 L 334 24 L 336 24 L 344 28 L 346 30 L 348 30 L 356 22 L 362 19 L 363 19 L 365 21 L 365 25 L 364 26 L 363 30 L 369 30 L 370 29 L 381 29 L 382 30 L 389 30 L 390 31 L 399 32 L 400 33 L 402 33 L 403 34 L 410 36 L 411 35 L 411 31 L 414 26 L 423 17 L 424 17 L 426 15 L 430 14 L 433 12 L 437 12 L 438 11 L 443 11 L 444 12 L 450 12 L 451 13 Z" fill="#010101" fill-rule="evenodd"/></svg>