<svg xmlns="http://www.w3.org/2000/svg" viewBox="0 0 653 704" shape-rendering="geometricPrecision"><title>intro frame 009</title><path d="M 303 641 L 301 639 L 298 639 L 295 640 L 293 642 L 293 644 L 294 645 L 299 645 L 301 644 Z M 305 623 L 306 625 L 306 635 L 305 637 L 306 638 L 308 637 L 312 637 L 315 640 L 315 642 L 317 644 L 318 648 L 321 648 L 322 649 L 330 649 L 334 645 L 339 643 L 342 643 L 348 635 L 348 633 L 351 629 L 351 625 L 344 625 L 341 622 L 328 621 L 326 620 L 325 618 L 322 618 L 317 616 L 315 616 L 313 618 L 309 619 Z M 445 473 L 442 470 L 432 468 L 428 471 L 420 472 L 417 474 L 399 474 L 398 475 L 389 475 L 388 474 L 383 475 L 382 474 L 376 474 L 373 476 L 370 474 L 368 474 L 365 476 L 350 479 L 345 482 L 343 481 L 340 484 L 329 490 L 327 492 L 325 492 L 322 495 L 318 496 L 316 498 L 306 500 L 302 505 L 302 507 L 306 513 L 306 516 L 295 528 L 295 540 L 297 543 L 297 546 L 298 547 L 299 557 L 303 565 L 306 568 L 307 573 L 311 577 L 311 580 L 315 582 L 325 582 L 329 586 L 337 587 L 338 588 L 345 588 L 348 585 L 357 585 L 359 582 L 361 582 L 362 581 L 362 578 L 366 574 L 366 572 L 369 569 L 372 568 L 373 563 L 378 558 L 381 558 L 380 552 L 377 548 L 377 540 L 376 537 L 383 531 L 386 531 L 387 530 L 395 530 L 401 526 L 404 521 L 411 521 L 414 518 L 417 517 L 420 513 L 420 503 L 422 500 L 422 497 L 419 492 L 419 490 L 420 489 L 428 489 L 436 485 L 438 483 L 439 480 L 445 475 Z M 414 503 L 417 501 L 419 504 L 416 506 Z M 486 441 L 485 440 L 481 441 L 478 439 L 474 444 L 474 448 L 475 449 L 480 449 L 482 447 L 484 447 L 486 445 Z M 415 371 L 420 381 L 423 382 L 429 382 L 431 379 L 431 373 L 430 372 L 427 372 L 423 369 L 421 370 L 416 370 Z M 270 166 L 270 174 L 273 179 L 278 181 L 280 183 L 282 183 L 287 180 L 284 176 L 275 171 L 272 168 L 272 166 Z M 92 164 L 90 166 L 89 175 L 81 185 L 83 191 L 91 174 L 101 165 L 108 162 L 112 159 L 122 159 L 125 160 L 136 169 L 143 179 L 144 182 L 143 190 L 141 194 L 132 203 L 120 211 L 118 211 L 110 216 L 107 216 L 106 217 L 95 217 L 87 211 L 83 205 L 82 201 L 81 201 L 77 206 L 77 210 L 78 212 L 85 219 L 93 222 L 96 225 L 98 231 L 101 236 L 115 251 L 123 262 L 139 277 L 142 278 L 151 285 L 162 290 L 165 293 L 167 293 L 175 297 L 178 297 L 184 300 L 187 300 L 190 303 L 190 306 L 187 309 L 188 310 L 196 310 L 206 314 L 209 317 L 220 317 L 223 316 L 226 319 L 226 322 L 222 328 L 224 328 L 227 330 L 235 328 L 241 319 L 241 315 L 242 314 L 243 308 L 245 305 L 245 302 L 251 290 L 251 288 L 259 273 L 258 268 L 254 261 L 249 256 L 245 259 L 243 259 L 238 254 L 237 251 L 233 246 L 230 249 L 227 249 L 222 244 L 219 235 L 216 232 L 214 233 L 213 237 L 211 239 L 209 239 L 200 229 L 199 225 L 196 221 L 196 219 L 192 216 L 186 217 L 171 200 L 167 193 L 157 183 L 155 178 L 158 170 L 158 165 L 157 165 L 156 168 L 151 172 L 146 172 L 142 170 L 138 165 L 137 162 L 137 153 L 135 151 L 132 152 L 129 155 L 125 157 L 122 156 L 116 156 L 115 155 L 110 155 L 106 158 L 104 158 L 100 162 L 98 162 L 95 164 Z M 196 295 L 198 293 L 200 295 L 208 296 L 210 298 L 210 301 L 208 303 L 199 302 Z M 440 45 L 433 44 L 432 43 L 423 44 L 413 52 L 412 55 L 409 57 L 408 62 L 404 66 L 397 66 L 380 60 L 355 61 L 349 56 L 345 56 L 341 59 L 337 59 L 331 54 L 326 52 L 323 52 L 324 54 L 324 60 L 322 62 L 319 63 L 307 63 L 303 67 L 297 69 L 289 73 L 287 75 L 288 79 L 292 83 L 292 87 L 287 93 L 279 98 L 275 102 L 272 102 L 270 100 L 269 97 L 269 91 L 271 87 L 270 86 L 271 85 L 270 80 L 265 74 L 261 74 L 260 72 L 256 69 L 239 69 L 234 71 L 229 77 L 228 77 L 225 83 L 225 85 L 223 88 L 223 93 L 222 94 L 222 103 L 228 113 L 234 117 L 240 119 L 242 121 L 241 129 L 236 138 L 234 144 L 234 151 L 227 164 L 231 170 L 232 170 L 232 167 L 235 160 L 242 153 L 244 153 L 249 150 L 256 150 L 268 154 L 270 153 L 270 149 L 271 147 L 267 142 L 267 132 L 271 122 L 276 117 L 280 117 L 285 122 L 288 128 L 288 135 L 287 137 L 289 139 L 292 137 L 292 135 L 294 132 L 301 126 L 320 125 L 327 128 L 330 131 L 330 135 L 326 138 L 320 136 L 318 137 L 310 137 L 307 136 L 307 138 L 309 140 L 314 141 L 316 143 L 319 144 L 324 150 L 324 156 L 321 164 L 318 167 L 316 171 L 310 175 L 310 177 L 312 180 L 318 182 L 334 182 L 340 180 L 349 175 L 359 163 L 362 164 L 368 170 L 369 177 L 370 178 L 370 201 L 369 202 L 369 209 L 367 213 L 367 216 L 365 222 L 363 225 L 363 228 L 358 237 L 348 247 L 345 248 L 343 250 L 337 252 L 334 252 L 333 253 L 324 253 L 323 252 L 319 252 L 316 250 L 314 250 L 293 230 L 292 227 L 288 223 L 283 213 L 283 211 L 280 206 L 279 199 L 276 196 L 270 193 L 265 189 L 258 178 L 258 174 L 257 173 L 255 173 L 253 175 L 245 179 L 237 179 L 231 174 L 230 175 L 230 178 L 227 182 L 227 184 L 231 185 L 233 187 L 231 193 L 231 196 L 230 197 L 230 206 L 235 206 L 238 210 L 238 225 L 239 226 L 243 226 L 245 225 L 248 228 L 250 235 L 255 238 L 263 248 L 267 250 L 271 250 L 275 253 L 279 254 L 282 256 L 292 267 L 292 272 L 290 274 L 283 272 L 281 270 L 273 269 L 268 273 L 265 274 L 263 277 L 262 284 L 259 289 L 260 293 L 255 302 L 255 309 L 250 317 L 250 325 L 248 327 L 245 336 L 245 339 L 246 340 L 245 342 L 246 343 L 252 343 L 255 346 L 256 349 L 256 357 L 239 375 L 239 377 L 237 380 L 237 383 L 239 385 L 239 393 L 238 395 L 233 399 L 231 403 L 232 406 L 235 406 L 237 408 L 237 412 L 234 418 L 228 425 L 227 428 L 228 431 L 232 429 L 236 429 L 237 430 L 240 424 L 246 417 L 246 415 L 251 411 L 254 413 L 253 421 L 250 425 L 250 429 L 253 432 L 253 439 L 245 446 L 243 447 L 242 446 L 241 447 L 239 445 L 239 442 L 243 437 L 243 433 L 241 434 L 237 434 L 235 437 L 235 440 L 231 447 L 230 453 L 229 454 L 229 457 L 231 457 L 233 455 L 237 455 L 240 459 L 240 461 L 238 463 L 238 465 L 236 468 L 236 471 L 234 474 L 234 476 L 239 472 L 242 474 L 242 481 L 243 482 L 242 490 L 245 491 L 247 493 L 246 496 L 249 500 L 255 498 L 256 496 L 256 493 L 254 491 L 254 482 L 253 481 L 253 472 L 256 469 L 257 469 L 261 474 L 261 485 L 264 493 L 266 492 L 266 483 L 272 479 L 274 479 L 276 481 L 276 493 L 275 494 L 274 500 L 277 503 L 281 505 L 287 499 L 292 491 L 297 486 L 301 484 L 304 481 L 306 481 L 313 473 L 316 472 L 321 467 L 327 465 L 330 465 L 336 461 L 344 461 L 346 459 L 353 456 L 357 459 L 361 459 L 361 457 L 359 455 L 359 445 L 362 442 L 367 434 L 367 427 L 364 424 L 364 420 L 363 419 L 366 410 L 366 407 L 364 406 L 361 402 L 338 402 L 336 400 L 333 393 L 330 389 L 331 383 L 330 382 L 325 382 L 323 384 L 323 388 L 321 390 L 318 390 L 316 388 L 316 379 L 322 371 L 323 372 L 329 373 L 331 375 L 331 379 L 332 379 L 336 375 L 341 375 L 342 374 L 349 375 L 349 373 L 351 371 L 356 371 L 357 370 L 359 372 L 358 373 L 358 376 L 354 378 L 350 378 L 348 379 L 347 392 L 348 393 L 358 393 L 359 390 L 362 388 L 362 372 L 364 370 L 373 370 L 375 372 L 371 375 L 371 380 L 373 381 L 377 379 L 378 371 L 374 368 L 375 364 L 366 356 L 366 352 L 356 350 L 353 348 L 351 348 L 349 346 L 347 346 L 339 341 L 331 340 L 329 338 L 327 338 L 327 340 L 325 342 L 322 340 L 322 335 L 332 327 L 332 324 L 331 323 L 333 322 L 334 324 L 338 325 L 347 333 L 349 333 L 351 335 L 352 332 L 347 328 L 348 325 L 352 321 L 356 321 L 358 322 L 362 327 L 362 331 L 363 333 L 366 334 L 379 348 L 381 348 L 386 351 L 390 351 L 392 348 L 392 345 L 386 338 L 386 336 L 381 330 L 381 326 L 382 325 L 381 322 L 384 320 L 388 320 L 389 321 L 399 321 L 402 323 L 412 334 L 418 336 L 422 339 L 428 337 L 435 337 L 436 338 L 446 339 L 447 340 L 453 340 L 456 338 L 459 338 L 461 340 L 462 347 L 459 351 L 459 354 L 455 366 L 455 375 L 454 376 L 454 379 L 455 380 L 455 388 L 453 392 L 454 398 L 452 400 L 449 400 L 446 403 L 443 404 L 437 409 L 438 412 L 444 416 L 450 416 L 451 415 L 458 414 L 461 417 L 461 421 L 460 422 L 460 434 L 462 436 L 466 435 L 477 425 L 481 425 L 483 423 L 486 423 L 488 421 L 493 421 L 496 423 L 499 421 L 501 421 L 504 417 L 505 417 L 507 420 L 511 423 L 513 427 L 516 423 L 516 414 L 519 405 L 519 400 L 526 394 L 527 389 L 529 387 L 531 381 L 531 377 L 532 376 L 531 373 L 532 344 L 535 341 L 535 339 L 531 332 L 531 330 L 528 326 L 528 323 L 525 319 L 525 316 L 521 311 L 521 309 L 506 295 L 500 292 L 497 292 L 493 288 L 492 285 L 484 280 L 476 277 L 474 275 L 475 273 L 474 271 L 469 268 L 465 268 L 462 266 L 458 266 L 454 264 L 449 264 L 446 262 L 435 262 L 433 264 L 425 264 L 422 266 L 417 266 L 410 272 L 406 272 L 404 270 L 402 270 L 400 273 L 396 276 L 393 274 L 393 270 L 394 269 L 395 263 L 405 255 L 414 246 L 417 246 L 418 243 L 422 239 L 422 237 L 426 235 L 426 231 L 429 227 L 432 228 L 432 223 L 433 221 L 437 218 L 439 219 L 437 209 L 440 206 L 445 208 L 446 207 L 445 206 L 446 197 L 451 195 L 450 188 L 453 186 L 453 185 L 449 180 L 450 177 L 452 175 L 455 175 L 459 177 L 464 173 L 466 173 L 473 165 L 473 161 L 465 153 L 465 148 L 469 144 L 469 141 L 461 135 L 460 124 L 453 113 L 453 111 L 450 107 L 442 100 L 442 97 L 446 93 L 448 93 L 454 89 L 460 81 L 460 78 L 461 77 L 461 68 L 460 67 L 460 64 L 458 62 L 458 60 L 451 52 Z M 253 445 L 254 446 L 254 455 L 251 460 L 248 463 L 246 463 L 242 460 L 242 458 L 245 455 L 248 449 Z M 284 377 L 284 383 L 281 386 L 277 386 L 271 389 L 269 389 L 267 387 L 267 385 L 270 383 L 275 377 L 280 377 L 281 376 Z M 358 367 L 361 365 L 363 368 L 360 370 Z M 288 361 L 290 363 L 290 369 L 289 371 L 287 372 L 286 371 L 286 363 Z M 313 354 L 313 359 L 309 362 L 297 362 L 295 360 L 297 357 L 299 357 L 299 356 L 305 351 L 310 351 Z M 277 335 L 279 339 L 278 341 L 272 346 L 270 344 L 270 338 L 273 335 Z M 315 323 L 315 327 L 314 329 L 306 336 L 301 336 L 299 338 L 292 337 L 289 339 L 287 339 L 284 336 L 289 332 L 296 322 L 299 322 L 301 324 L 302 327 L 308 324 L 311 321 L 313 321 Z M 338 304 L 341 308 L 340 309 L 340 312 L 336 317 L 335 321 L 334 322 L 331 322 L 327 319 L 326 317 L 326 313 L 328 310 L 328 308 L 330 306 L 333 306 Z M 388 261 L 388 265 L 386 268 L 374 281 L 377 284 L 376 286 L 377 288 L 376 290 L 377 292 L 377 300 L 375 302 L 375 305 L 371 309 L 367 309 L 364 307 L 361 307 L 360 306 L 357 307 L 353 304 L 353 301 L 349 298 L 348 299 L 341 299 L 331 292 L 329 292 L 317 285 L 312 281 L 305 273 L 305 268 L 307 266 L 310 265 L 318 266 L 321 268 L 344 268 L 345 267 L 350 267 L 351 266 L 357 266 L 358 265 L 367 264 L 376 261 L 379 259 L 386 259 Z M 371 146 L 376 141 L 385 137 L 400 137 L 401 138 L 406 138 L 411 141 L 413 141 L 420 148 L 422 151 L 422 159 L 417 165 L 412 168 L 407 168 L 406 169 L 390 168 L 384 166 L 382 164 L 377 162 L 373 158 L 373 156 L 371 154 Z M 359 113 L 364 113 L 366 114 L 370 118 L 371 121 L 373 123 L 373 135 L 372 136 L 371 142 L 368 146 L 359 146 L 357 145 L 352 140 L 350 136 L 350 127 L 351 126 L 352 120 L 354 117 Z M 255 78 L 263 86 L 263 92 L 253 104 L 252 107 L 246 113 L 242 113 L 236 108 L 235 105 L 233 103 L 233 91 L 235 85 L 241 79 L 247 78 L 248 77 L 250 78 Z M 356 72 L 359 69 L 366 69 L 372 71 L 379 77 L 381 81 L 381 86 L 380 88 L 376 91 L 372 91 L 369 90 L 364 86 L 360 85 L 358 83 L 355 76 Z M 422 53 L 424 52 L 426 53 L 429 52 L 432 53 L 433 52 L 437 52 L 447 63 L 450 70 L 450 80 L 449 83 L 443 90 L 435 90 L 431 86 L 424 82 L 416 75 L 415 73 L 415 66 L 418 61 L 419 57 Z" fill="#FBFBFB" fill-rule="evenodd"/><path d="M 410 670 L 410 672 L 413 677 L 418 677 L 419 678 L 433 677 L 433 673 L 432 672 L 420 672 L 416 669 L 416 664 L 415 663 L 412 666 Z M 279 663 L 279 664 L 284 668 L 288 668 L 297 671 L 316 672 L 317 671 L 326 671 L 327 670 L 335 670 L 336 669 L 346 669 L 353 677 L 355 677 L 359 680 L 362 680 L 366 684 L 372 685 L 378 689 L 400 691 L 386 690 L 377 687 L 371 684 L 366 680 L 360 678 L 358 676 L 355 675 L 349 668 L 342 668 L 341 669 L 336 669 L 335 670 L 325 670 L 324 671 L 304 671 L 303 670 L 293 670 L 292 669 L 289 669 L 282 666 Z M 433 658 L 433 656 L 431 654 L 430 651 L 427 652 L 422 656 L 423 658 Z M 412 626 L 406 626 L 404 628 L 402 632 L 402 635 L 396 644 L 397 646 L 402 646 L 403 645 L 406 645 L 407 646 L 406 643 L 407 642 L 407 638 L 409 636 L 412 635 L 412 630 L 413 629 Z M 450 598 L 442 608 L 441 611 L 441 619 L 442 621 L 446 625 L 448 625 L 451 627 L 464 627 L 467 629 L 471 629 L 473 625 L 473 622 L 470 618 L 471 615 L 470 614 L 469 606 L 467 602 L 462 598 L 459 597 L 452 597 Z M 236 514 L 242 524 L 251 533 L 254 534 L 265 543 L 268 547 L 268 552 L 272 557 L 272 559 L 277 565 L 279 571 L 281 573 L 281 575 L 279 577 L 279 591 L 277 596 L 277 600 L 275 603 L 275 611 L 274 612 L 274 617 L 275 618 L 275 623 L 276 624 L 276 638 L 275 641 L 273 643 L 273 651 L 278 661 L 274 652 L 274 645 L 279 635 L 280 621 L 285 612 L 288 609 L 292 609 L 295 607 L 295 604 L 291 599 L 287 600 L 281 593 L 281 587 L 283 582 L 283 578 L 280 570 L 280 566 L 278 564 L 276 559 L 276 552 L 274 549 L 274 546 L 269 543 L 267 543 L 264 540 L 252 533 L 240 521 Z M 538 477 L 537 481 L 530 492 L 518 503 L 507 510 L 502 515 L 495 529 L 491 533 L 486 541 L 471 557 L 470 566 L 471 567 L 471 571 L 474 577 L 478 582 L 487 588 L 501 600 L 509 611 L 509 613 L 512 617 L 513 625 L 512 626 L 511 636 L 509 640 L 509 643 L 502 657 L 497 663 L 496 663 L 481 677 L 467 684 L 475 680 L 477 680 L 483 675 L 487 673 L 494 666 L 495 666 L 503 657 L 503 655 L 508 647 L 508 644 L 511 638 L 512 631 L 514 627 L 514 621 L 507 605 L 497 594 L 494 593 L 485 586 L 476 577 L 476 572 L 475 571 L 475 568 L 476 567 L 476 557 L 482 550 L 483 545 L 497 526 L 502 516 L 509 509 L 512 508 L 517 503 L 527 496 L 535 485 L 538 479 Z M 522 459 L 520 459 L 517 461 L 517 475 L 518 476 L 521 472 L 523 467 L 523 460 Z M 440 451 L 440 453 L 442 455 L 445 454 L 443 451 Z M 253 446 L 249 449 L 248 452 L 243 458 L 244 461 L 248 462 L 253 455 Z M 429 438 L 428 441 L 432 445 L 436 446 L 437 445 L 437 441 L 435 438 Z M 214 410 L 214 412 L 216 415 L 216 421 L 212 429 L 212 432 L 211 433 L 211 441 L 215 447 L 215 468 L 216 470 L 215 468 L 215 447 L 211 440 L 211 433 L 213 427 L 217 420 L 217 416 L 215 414 Z M 283 377 L 275 378 L 274 380 L 268 385 L 268 387 L 271 388 L 277 385 L 281 385 L 283 383 Z M 288 362 L 287 363 L 287 371 L 288 371 L 289 369 L 289 363 Z M 312 354 L 310 352 L 305 352 L 303 353 L 299 358 L 297 358 L 296 360 L 297 361 L 309 361 L 312 359 Z M 434 350 L 433 351 L 433 355 L 435 358 L 437 358 L 439 354 L 439 351 L 438 350 Z M 165 337 L 179 343 L 186 351 L 190 353 L 196 354 L 201 357 L 205 361 L 216 366 L 221 367 L 224 370 L 224 373 L 221 379 L 221 391 L 219 396 L 221 392 L 221 381 L 222 380 L 222 377 L 225 373 L 225 369 L 220 366 L 217 366 L 207 362 L 200 356 L 196 354 L 190 353 L 186 351 L 179 343 Z M 277 336 L 273 336 L 271 338 L 271 344 L 272 345 L 277 341 L 278 339 Z M 314 323 L 311 322 L 308 325 L 302 328 L 300 326 L 299 323 L 296 323 L 290 332 L 285 336 L 287 338 L 289 338 L 292 336 L 299 337 L 301 335 L 306 335 L 313 329 L 314 327 Z M 546 315 L 549 319 L 549 321 L 554 331 L 558 336 L 559 339 L 559 347 L 552 361 L 550 375 L 548 380 L 548 386 L 546 392 L 546 407 L 540 423 L 540 448 L 541 450 L 540 448 L 540 423 L 546 407 L 546 392 L 548 389 L 548 385 L 550 381 L 550 376 L 552 372 L 553 361 L 557 352 L 557 350 L 559 348 L 560 345 L 560 339 L 554 331 L 549 321 L 549 319 Z M 338 305 L 329 308 L 329 310 L 327 313 L 327 317 L 329 320 L 334 321 L 335 317 L 339 312 L 339 309 L 340 308 Z M 197 295 L 199 301 L 202 301 L 203 302 L 208 302 L 209 301 L 209 298 L 208 297 L 200 296 L 198 294 Z M 469 267 L 463 266 L 465 267 L 469 267 L 474 270 L 476 272 L 475 274 L 476 276 L 482 278 L 492 284 L 494 286 L 494 288 L 497 291 L 500 291 L 506 294 L 522 309 L 522 311 L 525 314 L 526 319 L 529 323 L 529 326 L 531 328 L 532 332 L 536 339 L 536 341 L 533 344 L 533 357 L 532 358 L 532 373 L 533 376 L 532 377 L 532 381 L 531 382 L 531 385 L 528 389 L 527 394 L 520 400 L 520 405 L 517 414 L 517 423 L 513 428 L 511 426 L 510 423 L 508 422 L 505 418 L 504 418 L 501 422 L 499 422 L 496 424 L 493 422 L 488 422 L 486 424 L 483 424 L 481 426 L 477 426 L 475 427 L 466 436 L 462 437 L 459 434 L 459 422 L 460 421 L 460 417 L 458 415 L 455 415 L 450 417 L 444 417 L 440 415 L 437 412 L 436 409 L 443 403 L 446 402 L 449 399 L 452 399 L 453 398 L 452 392 L 454 388 L 454 380 L 453 379 L 453 376 L 454 375 L 454 366 L 458 354 L 458 351 L 461 347 L 461 344 L 459 339 L 456 339 L 453 341 L 440 340 L 435 338 L 428 338 L 422 340 L 420 338 L 412 335 L 406 329 L 406 328 L 399 322 L 389 322 L 388 321 L 384 321 L 382 322 L 383 325 L 382 326 L 382 330 L 387 336 L 387 338 L 393 345 L 392 350 L 390 352 L 386 352 L 381 349 L 379 349 L 366 335 L 364 335 L 361 331 L 361 327 L 358 323 L 356 322 L 352 322 L 349 325 L 348 328 L 353 332 L 353 334 L 351 336 L 349 334 L 347 334 L 338 326 L 336 326 L 332 323 L 333 324 L 333 327 L 323 335 L 323 340 L 325 341 L 326 338 L 329 337 L 331 339 L 339 340 L 347 345 L 349 345 L 351 347 L 353 347 L 356 349 L 366 351 L 367 352 L 367 356 L 376 364 L 375 368 L 379 371 L 379 375 L 378 376 L 378 379 L 372 382 L 370 380 L 370 375 L 374 372 L 373 371 L 364 371 L 363 372 L 363 388 L 360 390 L 360 392 L 358 394 L 348 394 L 346 392 L 347 379 L 350 377 L 357 376 L 357 373 L 358 372 L 357 371 L 356 372 L 351 372 L 349 376 L 346 376 L 345 375 L 336 376 L 332 380 L 330 379 L 330 375 L 329 374 L 323 373 L 322 372 L 320 376 L 317 379 L 317 388 L 318 389 L 321 389 L 322 388 L 322 384 L 325 381 L 330 381 L 332 383 L 331 389 L 338 401 L 361 401 L 363 404 L 367 407 L 367 410 L 364 419 L 365 420 L 365 424 L 368 427 L 368 434 L 363 442 L 360 445 L 360 455 L 362 457 L 361 460 L 357 460 L 353 457 L 346 460 L 344 462 L 336 462 L 330 466 L 323 467 L 316 473 L 313 474 L 307 481 L 316 473 L 323 471 L 325 469 L 327 469 L 329 467 L 331 467 L 337 463 L 342 463 L 343 462 L 364 462 L 365 463 L 373 463 L 376 464 L 377 467 L 374 470 L 371 470 L 368 472 L 361 473 L 358 475 L 355 475 L 346 478 L 337 483 L 333 487 L 319 494 L 317 496 L 314 496 L 304 500 L 299 505 L 303 513 L 303 515 L 301 519 L 293 526 L 293 549 L 292 550 L 292 554 L 307 583 L 314 593 L 323 602 L 326 608 L 326 611 L 323 614 L 316 614 L 311 616 L 302 624 L 302 627 L 303 628 L 302 631 L 300 633 L 295 633 L 292 636 L 291 639 L 291 646 L 292 647 L 299 647 L 305 642 L 312 641 L 314 643 L 317 651 L 321 655 L 328 655 L 334 650 L 346 645 L 355 637 L 367 635 L 370 633 L 374 632 L 376 630 L 380 630 L 385 626 L 390 618 L 390 615 L 393 612 L 397 605 L 397 588 L 395 584 L 395 580 L 393 575 L 393 569 L 391 565 L 386 560 L 384 554 L 379 549 L 379 543 L 381 541 L 387 543 L 388 542 L 388 537 L 390 535 L 396 534 L 397 533 L 403 533 L 404 532 L 414 532 L 418 530 L 422 524 L 430 516 L 436 512 L 437 508 L 439 505 L 447 497 L 449 493 L 459 482 L 463 480 L 466 476 L 466 474 L 469 471 L 469 468 L 464 468 L 463 469 L 441 469 L 433 466 L 430 466 L 425 463 L 421 462 L 418 459 L 418 453 L 416 450 L 416 448 L 408 436 L 407 428 L 403 420 L 399 418 L 396 414 L 398 408 L 401 405 L 407 405 L 411 400 L 418 394 L 421 393 L 424 390 L 427 390 L 433 384 L 435 378 L 435 372 L 434 369 L 415 349 L 412 340 L 414 338 L 417 338 L 425 342 L 431 340 L 438 340 L 440 342 L 443 343 L 448 342 L 449 343 L 457 343 L 458 344 L 458 349 L 457 350 L 457 353 L 455 356 L 455 359 L 452 368 L 450 392 L 447 399 L 443 403 L 438 406 L 426 409 L 421 413 L 419 417 L 420 420 L 422 421 L 427 421 L 436 415 L 443 419 L 449 421 L 449 423 L 446 427 L 446 432 L 452 437 L 452 441 L 448 448 L 449 450 L 457 449 L 461 444 L 462 441 L 470 433 L 474 433 L 475 434 L 475 437 L 470 450 L 471 452 L 479 451 L 484 449 L 488 449 L 491 447 L 493 447 L 510 431 L 514 429 L 519 420 L 520 414 L 528 405 L 530 401 L 530 395 L 531 394 L 532 383 L 534 378 L 535 363 L 537 357 L 537 352 L 539 349 L 539 344 L 535 336 L 534 329 L 530 323 L 529 317 L 526 314 L 525 311 L 520 304 L 517 302 L 512 296 L 502 291 L 498 288 L 495 284 L 491 283 L 483 278 L 481 278 L 475 270 Z M 292 644 L 292 642 L 295 639 L 298 638 L 301 638 L 304 641 L 304 642 L 299 646 L 294 646 Z M 304 637 L 305 635 L 305 625 L 304 623 L 309 618 L 313 617 L 315 615 L 325 617 L 326 619 L 328 620 L 341 621 L 344 624 L 351 624 L 352 625 L 352 629 L 350 631 L 349 635 L 345 641 L 342 644 L 339 644 L 334 646 L 330 650 L 322 650 L 321 649 L 318 649 L 316 644 L 314 642 L 314 640 L 312 638 L 308 638 L 306 639 Z M 446 473 L 446 475 L 440 480 L 439 483 L 436 486 L 428 490 L 420 490 L 420 492 L 423 497 L 423 500 L 421 503 L 421 513 L 417 518 L 414 519 L 411 522 L 404 522 L 403 525 L 395 531 L 387 531 L 386 532 L 383 532 L 377 537 L 378 540 L 378 548 L 381 552 L 382 558 L 381 559 L 378 559 L 374 563 L 373 568 L 367 572 L 367 574 L 363 578 L 363 581 L 361 583 L 359 583 L 357 586 L 348 586 L 345 589 L 338 589 L 337 588 L 329 587 L 325 583 L 315 583 L 312 582 L 310 580 L 310 577 L 306 573 L 306 570 L 302 565 L 298 557 L 297 547 L 296 546 L 296 543 L 294 540 L 294 528 L 305 516 L 305 513 L 303 511 L 301 505 L 306 499 L 316 497 L 318 495 L 322 494 L 325 491 L 327 491 L 329 489 L 337 485 L 343 480 L 345 481 L 350 478 L 365 475 L 368 473 L 370 473 L 373 475 L 376 473 L 382 473 L 383 474 L 385 473 L 388 473 L 389 474 L 417 473 L 420 471 L 428 470 L 432 467 L 442 469 Z M 473 448 L 473 444 L 478 438 L 481 440 L 485 439 L 487 441 L 487 445 L 484 448 L 482 448 L 480 450 L 475 450 Z M 374 438 L 378 438 L 381 441 L 382 449 L 380 451 L 374 451 L 371 450 L 368 447 L 369 443 Z M 454 420 L 456 422 L 455 425 L 453 424 L 453 421 Z M 423 415 L 424 414 L 427 414 L 428 416 L 427 417 L 424 417 Z M 410 379 L 412 377 L 414 377 L 416 380 L 415 381 L 412 381 Z M 414 371 L 416 369 L 421 369 L 422 368 L 427 371 L 430 371 L 432 373 L 432 379 L 429 383 L 423 383 L 420 382 L 418 380 Z M 398 327 L 400 327 L 407 335 L 404 339 L 404 347 L 403 348 L 399 345 L 400 335 L 397 330 Z M 387 261 L 386 260 L 379 260 L 376 262 L 367 265 L 363 265 L 357 267 L 351 267 L 350 268 L 345 268 L 344 269 L 321 269 L 318 267 L 310 266 L 306 268 L 306 273 L 307 275 L 317 284 L 325 288 L 327 290 L 331 291 L 341 298 L 348 298 L 349 297 L 354 301 L 354 304 L 357 306 L 360 305 L 361 306 L 364 306 L 367 308 L 371 308 L 374 305 L 374 302 L 376 300 L 376 292 L 375 291 L 376 289 L 375 287 L 376 284 L 373 281 L 385 268 L 387 265 Z M 371 284 L 372 287 L 369 289 L 368 286 Z M 385 263 L 385 265 L 382 269 L 358 291 L 348 295 L 339 295 L 331 290 L 325 288 L 312 279 L 307 273 L 307 270 L 309 268 L 318 269 L 323 271 L 342 271 L 347 269 L 358 268 L 359 267 L 370 265 L 380 261 L 383 261 Z M 85 237 L 88 246 L 90 249 L 90 251 L 96 263 L 107 278 L 126 296 L 129 300 L 129 306 L 133 311 L 129 306 L 129 299 L 110 281 L 95 261 L 90 251 L 90 249 L 88 246 Z M 45 192 L 45 194 L 55 211 L 74 229 L 77 230 L 80 233 L 84 235 L 73 228 L 59 215 L 51 205 L 45 194 Z M 174 182 L 188 198 L 195 198 L 197 199 L 200 202 L 205 211 L 209 215 L 212 215 L 216 213 L 215 201 L 215 212 L 212 214 L 209 214 L 204 209 L 200 202 L 196 198 L 188 198 L 183 193 L 182 190 Z M 372 146 L 372 154 L 374 156 L 374 158 L 377 161 L 382 163 L 384 165 L 390 167 L 395 167 L 396 168 L 412 167 L 417 164 L 421 159 L 421 151 L 419 148 L 413 142 L 411 142 L 406 139 L 401 139 L 400 138 L 385 138 L 376 142 Z M 372 149 L 376 143 L 384 139 L 388 139 L 389 138 L 403 139 L 412 142 L 420 150 L 421 152 L 421 158 L 417 163 L 408 167 L 393 167 L 392 166 L 386 165 L 376 159 L 373 155 Z M 84 131 L 84 135 L 88 132 L 92 132 L 95 133 L 101 138 L 101 137 L 95 131 L 91 129 L 86 129 Z M 272 122 L 269 130 L 270 126 L 272 123 L 277 119 L 281 120 L 285 124 L 287 128 L 287 134 L 284 140 L 285 141 L 289 141 L 290 140 L 304 140 L 305 141 L 308 141 L 314 143 L 322 150 L 323 152 L 323 156 L 323 150 L 321 147 L 314 142 L 309 141 L 306 138 L 306 136 L 307 135 L 310 136 L 318 136 L 320 135 L 326 137 L 329 135 L 329 131 L 327 129 L 320 126 L 301 127 L 295 132 L 293 135 L 293 137 L 289 140 L 286 137 L 287 135 L 287 128 L 284 122 L 280 118 L 276 118 Z M 297 134 L 297 132 L 301 129 L 308 128 L 309 127 L 319 127 L 326 130 L 328 132 L 326 135 L 314 134 L 313 133 L 310 134 L 301 134 L 300 135 Z M 359 114 L 356 116 L 353 120 L 352 125 L 353 120 L 358 115 L 362 114 L 366 116 L 369 119 L 372 125 L 372 135 L 369 142 L 365 145 L 360 145 L 358 144 L 352 138 L 351 135 L 351 127 L 351 136 L 353 140 L 357 144 L 359 145 L 368 145 L 370 142 L 371 136 L 372 135 L 372 123 L 366 115 L 364 114 Z M 212 114 L 215 120 L 224 129 L 224 133 L 225 134 L 223 136 L 223 138 L 226 130 L 214 118 Z M 474 80 L 473 86 L 465 99 L 465 106 L 468 113 L 476 125 L 478 131 L 490 145 L 490 152 L 488 155 L 488 159 L 492 165 L 488 158 L 488 155 L 490 152 L 490 144 L 488 141 L 487 141 L 486 139 L 481 135 L 476 125 L 471 118 L 468 111 L 466 109 L 466 99 L 474 84 Z M 255 79 L 250 79 L 249 78 L 241 80 L 236 85 L 234 91 L 234 103 L 236 105 L 237 108 L 242 112 L 246 112 L 251 107 L 252 104 L 262 92 L 262 86 Z M 254 81 L 260 86 L 261 88 L 260 92 L 252 104 L 246 111 L 241 110 L 237 106 L 237 104 L 235 102 L 235 98 L 234 97 L 235 95 L 235 90 L 242 82 L 245 81 Z M 357 72 L 356 76 L 360 84 L 364 85 L 369 89 L 372 90 L 376 90 L 379 88 L 380 86 L 380 81 L 380 86 L 377 89 L 373 89 L 369 86 L 361 83 L 357 78 L 357 74 L 360 71 L 366 71 L 374 74 L 379 79 L 375 74 L 370 71 L 367 71 L 366 70 L 359 70 Z M 422 54 L 416 66 L 416 73 L 417 75 L 424 81 L 431 85 L 435 89 L 443 89 L 448 83 L 449 80 L 449 70 L 446 63 L 437 53 L 433 53 L 432 54 L 431 53 L 428 54 L 424 53 Z M 425 58 L 428 57 L 437 57 L 446 65 L 449 72 L 449 79 L 446 84 L 439 89 L 435 88 L 417 74 L 416 71 L 417 67 L 419 65 L 420 62 Z M 442 44 L 436 42 L 425 42 L 419 44 L 407 55 L 405 61 L 402 65 L 399 65 L 396 63 L 387 60 L 378 59 L 377 58 L 355 59 L 353 57 L 353 49 L 349 50 L 340 58 L 338 58 L 335 55 L 327 51 L 322 50 L 323 59 L 321 61 L 306 61 L 300 67 L 296 68 L 282 75 L 276 81 L 273 81 L 271 78 L 262 70 L 252 66 L 244 66 L 243 67 L 240 67 L 231 72 L 226 78 L 221 91 L 221 103 L 224 110 L 231 117 L 237 119 L 241 122 L 241 126 L 233 143 L 233 151 L 229 159 L 224 166 L 224 168 L 227 169 L 229 171 L 229 175 L 225 186 L 226 187 L 229 186 L 231 188 L 230 196 L 229 197 L 229 202 L 228 203 L 228 208 L 229 209 L 234 208 L 237 211 L 237 227 L 239 229 L 245 228 L 248 232 L 249 237 L 252 238 L 260 246 L 264 253 L 268 257 L 270 256 L 276 256 L 282 259 L 289 266 L 289 269 L 288 270 L 285 270 L 282 268 L 273 265 L 272 268 L 268 272 L 264 273 L 258 267 L 253 257 L 249 253 L 248 253 L 245 257 L 242 257 L 238 252 L 236 247 L 233 244 L 231 244 L 229 246 L 226 247 L 222 242 L 220 235 L 216 229 L 213 231 L 213 234 L 210 237 L 208 237 L 202 230 L 196 217 L 192 214 L 186 215 L 179 208 L 170 195 L 158 183 L 157 181 L 157 176 L 160 168 L 160 148 L 159 145 L 155 141 L 154 141 L 157 150 L 157 160 L 155 166 L 151 170 L 145 170 L 139 164 L 138 161 L 138 153 L 139 150 L 136 149 L 134 147 L 131 140 L 132 149 L 128 154 L 125 155 L 117 154 L 114 151 L 111 152 L 104 143 L 105 149 L 106 150 L 106 155 L 98 161 L 94 161 L 93 162 L 88 161 L 81 157 L 78 154 L 76 154 L 71 151 L 67 151 L 64 155 L 64 156 L 68 154 L 71 154 L 75 157 L 82 160 L 87 166 L 88 171 L 87 172 L 87 175 L 82 180 L 75 180 L 74 181 L 79 187 L 81 191 L 81 198 L 77 202 L 70 201 L 63 195 L 61 191 L 63 181 L 60 180 L 57 184 L 57 190 L 58 193 L 63 201 L 74 212 L 80 216 L 85 221 L 91 224 L 95 228 L 107 255 L 115 265 L 116 265 L 115 262 L 118 261 L 128 273 L 149 288 L 151 288 L 153 290 L 159 292 L 163 295 L 168 296 L 176 300 L 186 302 L 187 305 L 181 311 L 182 313 L 196 313 L 201 315 L 208 320 L 218 320 L 220 323 L 215 328 L 215 332 L 219 335 L 224 335 L 228 333 L 233 333 L 235 332 L 239 327 L 244 317 L 245 309 L 250 304 L 252 306 L 252 310 L 248 315 L 248 325 L 244 335 L 244 346 L 243 347 L 242 354 L 244 354 L 247 351 L 251 349 L 253 351 L 253 356 L 241 369 L 233 383 L 233 385 L 238 389 L 238 392 L 229 402 L 227 407 L 228 408 L 233 408 L 235 410 L 235 414 L 233 416 L 232 419 L 228 423 L 227 427 L 225 430 L 225 433 L 226 434 L 231 433 L 233 435 L 232 442 L 230 445 L 230 448 L 227 456 L 227 460 L 228 461 L 233 458 L 236 460 L 236 466 L 233 474 L 233 480 L 234 481 L 238 477 L 240 479 L 240 488 L 241 489 L 242 496 L 244 502 L 249 511 L 257 519 L 259 520 L 264 519 L 268 524 L 270 524 L 270 523 L 277 517 L 277 515 L 280 509 L 287 502 L 290 496 L 305 482 L 297 487 L 293 491 L 288 499 L 281 506 L 277 504 L 273 500 L 274 494 L 275 493 L 275 481 L 272 480 L 267 483 L 267 492 L 264 494 L 262 492 L 261 486 L 260 485 L 260 474 L 259 472 L 256 470 L 254 472 L 254 481 L 255 482 L 255 491 L 257 493 L 257 496 L 255 499 L 249 501 L 245 496 L 246 493 L 243 492 L 241 490 L 241 485 L 242 484 L 241 481 L 241 474 L 239 473 L 235 477 L 233 476 L 233 474 L 235 471 L 235 468 L 237 465 L 237 463 L 239 461 L 239 459 L 237 456 L 233 456 L 231 458 L 229 458 L 228 457 L 228 454 L 229 453 L 230 447 L 234 440 L 234 437 L 237 433 L 241 433 L 242 432 L 244 433 L 244 437 L 240 442 L 240 445 L 241 446 L 242 445 L 243 446 L 252 439 L 252 432 L 249 429 L 249 425 L 252 421 L 253 413 L 251 412 L 247 415 L 247 417 L 241 424 L 237 431 L 236 430 L 232 430 L 228 432 L 226 430 L 227 425 L 233 418 L 236 412 L 236 408 L 235 407 L 232 407 L 230 405 L 230 403 L 232 399 L 236 396 L 238 393 L 238 385 L 236 383 L 236 380 L 238 377 L 238 375 L 255 357 L 255 349 L 254 346 L 252 344 L 246 344 L 244 342 L 245 341 L 244 336 L 247 327 L 249 325 L 249 317 L 254 309 L 254 302 L 259 293 L 258 289 L 261 284 L 262 277 L 265 273 L 268 272 L 273 268 L 281 269 L 283 271 L 290 273 L 291 272 L 291 267 L 287 262 L 279 255 L 277 255 L 271 251 L 267 251 L 263 249 L 258 244 L 256 240 L 249 235 L 247 228 L 245 226 L 243 227 L 239 227 L 237 225 L 237 210 L 235 207 L 230 207 L 229 206 L 229 197 L 230 196 L 230 193 L 232 187 L 227 185 L 226 182 L 229 178 L 229 175 L 231 173 L 237 178 L 245 178 L 253 174 L 255 172 L 257 172 L 259 174 L 259 178 L 266 189 L 276 195 L 280 199 L 281 206 L 284 211 L 284 213 L 289 223 L 293 227 L 294 230 L 314 249 L 316 249 L 319 251 L 323 251 L 324 252 L 333 252 L 334 251 L 337 251 L 343 249 L 345 247 L 348 246 L 357 237 L 362 228 L 362 225 L 364 222 L 366 216 L 366 213 L 368 209 L 368 202 L 369 201 L 369 178 L 368 177 L 367 170 L 362 165 L 359 164 L 349 176 L 340 181 L 334 183 L 318 183 L 312 181 L 310 179 L 309 175 L 315 171 L 317 167 L 320 164 L 322 158 L 322 160 L 319 165 L 312 172 L 308 174 L 306 174 L 300 177 L 291 177 L 285 175 L 279 172 L 273 166 L 270 160 L 270 155 L 272 151 L 272 146 L 268 141 L 268 132 L 268 142 L 272 147 L 271 149 L 271 153 L 268 155 L 256 151 L 249 151 L 244 154 L 242 154 L 236 160 L 233 167 L 233 170 L 231 171 L 226 164 L 233 151 L 233 144 L 235 138 L 240 129 L 241 121 L 238 119 L 234 118 L 228 114 L 224 109 L 221 103 L 222 88 L 227 77 L 229 76 L 234 70 L 239 68 L 256 68 L 258 69 L 261 73 L 265 73 L 271 80 L 272 83 L 271 86 L 272 87 L 270 91 L 270 97 L 272 101 L 275 101 L 279 97 L 287 92 L 291 87 L 291 83 L 287 79 L 286 75 L 289 72 L 303 66 L 307 62 L 319 62 L 323 60 L 323 54 L 322 53 L 323 51 L 329 52 L 337 58 L 341 58 L 345 55 L 349 55 L 355 60 L 380 59 L 381 60 L 384 60 L 390 62 L 393 64 L 404 65 L 407 62 L 407 59 L 408 57 L 411 55 L 412 52 L 417 47 L 423 43 L 427 43 L 428 42 L 437 43 L 447 48 L 451 51 L 459 60 L 459 62 L 461 64 L 461 67 L 462 68 L 462 77 L 461 78 L 461 81 L 459 83 L 458 86 L 454 90 L 448 94 L 446 94 L 443 97 L 443 100 L 446 102 L 454 111 L 454 113 L 461 124 L 462 135 L 470 141 L 470 144 L 466 148 L 466 153 L 474 161 L 474 165 L 466 174 L 464 174 L 459 178 L 455 176 L 452 176 L 450 180 L 454 185 L 454 186 L 451 188 L 452 195 L 450 197 L 447 197 L 447 201 L 446 202 L 446 206 L 447 207 L 445 209 L 440 207 L 438 209 L 440 219 L 439 220 L 437 219 L 434 221 L 433 223 L 433 228 L 432 229 L 430 228 L 428 229 L 427 231 L 427 235 L 425 237 L 423 237 L 423 239 L 419 243 L 419 245 L 417 247 L 414 247 L 405 256 L 396 263 L 395 269 L 394 270 L 394 274 L 395 275 L 398 274 L 402 269 L 404 269 L 406 271 L 410 271 L 417 265 L 422 265 L 425 263 L 433 263 L 435 261 L 446 261 L 449 263 L 454 263 L 458 265 L 461 265 L 452 262 L 443 261 L 442 260 L 433 260 L 422 264 L 420 264 L 418 262 L 418 258 L 421 257 L 431 246 L 433 245 L 437 246 L 444 240 L 447 235 L 448 231 L 451 228 L 453 230 L 454 234 L 455 235 L 457 234 L 462 224 L 463 214 L 466 211 L 469 211 L 471 207 L 471 196 L 470 195 L 470 192 L 472 190 L 477 191 L 476 184 L 472 177 L 472 171 L 474 169 L 477 169 L 478 168 L 474 160 L 466 151 L 470 146 L 473 145 L 473 142 L 470 139 L 465 137 L 462 134 L 462 131 L 464 129 L 463 126 L 459 121 L 451 106 L 444 100 L 444 97 L 455 90 L 459 85 L 462 78 L 462 68 L 461 67 L 461 64 L 456 55 L 451 50 Z M 251 296 L 253 293 L 256 295 L 253 298 Z M 415 256 L 417 258 L 416 263 L 411 268 L 408 268 L 407 267 L 407 264 L 409 260 Z M 57 185 L 59 183 L 61 184 L 60 187 Z M 269 166 L 272 165 L 273 168 L 275 170 L 284 175 L 288 180 L 282 184 L 280 184 L 278 182 L 273 180 L 269 174 Z M 127 163 L 136 171 L 142 180 L 142 189 L 137 197 L 130 203 L 122 208 L 113 212 L 111 214 L 105 215 L 104 216 L 99 216 L 93 214 L 86 207 L 84 203 L 84 194 L 91 177 L 102 166 L 105 165 L 107 163 L 113 161 L 123 161 Z M 237 160 L 242 155 L 250 152 L 256 152 L 262 155 L 264 154 L 267 155 L 269 157 L 269 176 L 275 183 L 280 185 L 288 184 L 296 180 L 301 180 L 306 182 L 320 183 L 321 184 L 331 184 L 343 180 L 352 174 L 359 165 L 362 166 L 366 170 L 368 176 L 368 181 L 369 182 L 369 199 L 368 200 L 368 207 L 367 208 L 366 216 L 364 219 L 364 222 L 362 225 L 362 228 L 359 234 L 349 244 L 338 250 L 334 250 L 333 251 L 323 251 L 322 250 L 318 250 L 313 248 L 302 238 L 302 237 L 290 224 L 282 208 L 280 198 L 277 195 L 269 191 L 262 183 L 259 176 L 259 164 L 258 164 L 256 168 L 247 176 L 245 177 L 238 177 L 236 176 L 233 172 L 234 166 Z M 92 163 L 95 163 L 98 161 L 100 161 L 104 157 L 106 157 L 110 154 L 115 154 L 116 155 L 122 155 L 125 156 L 129 154 L 132 151 L 135 150 L 138 153 L 138 162 L 140 167 L 142 169 L 146 171 L 151 171 L 155 168 L 157 164 L 159 165 L 159 170 L 156 178 L 158 183 L 168 193 L 172 200 L 186 216 L 192 215 L 197 219 L 197 221 L 199 223 L 201 229 L 209 238 L 211 238 L 213 233 L 216 231 L 220 235 L 223 244 L 227 248 L 230 248 L 233 245 L 238 251 L 239 254 L 243 258 L 245 258 L 249 255 L 255 261 L 259 268 L 260 273 L 252 288 L 252 290 L 246 302 L 246 305 L 244 308 L 243 314 L 242 315 L 242 319 L 238 326 L 235 329 L 233 330 L 229 330 L 228 331 L 222 329 L 221 328 L 225 322 L 225 319 L 223 317 L 220 318 L 209 318 L 206 315 L 202 314 L 196 311 L 188 311 L 186 309 L 189 306 L 189 303 L 187 301 L 184 301 L 178 298 L 175 298 L 172 296 L 165 294 L 162 291 L 151 286 L 148 283 L 139 278 L 122 262 L 114 251 L 100 236 L 97 231 L 95 225 L 93 223 L 85 220 L 77 212 L 76 210 L 76 206 L 80 201 L 82 200 L 88 211 L 95 216 L 106 216 L 107 215 L 110 215 L 116 211 L 120 210 L 132 202 L 140 194 L 142 190 L 143 182 L 141 177 L 136 170 L 125 161 L 122 160 L 112 160 L 108 163 L 101 166 L 92 174 L 91 177 L 89 179 L 88 184 L 83 192 L 81 190 L 80 185 L 88 175 L 89 166 Z M 288 81 L 290 83 L 290 88 L 276 100 L 273 100 L 270 97 L 270 93 L 272 89 L 280 81 L 283 80 Z M 316 40 L 315 40 L 306 50 L 300 51 L 292 55 L 280 63 L 275 63 L 270 59 L 265 57 L 261 54 L 241 54 L 225 62 L 215 73 L 225 62 L 236 56 L 242 55 L 243 54 L 258 54 L 259 55 L 262 55 L 268 58 L 276 64 L 278 64 L 286 60 L 298 52 L 308 51 L 310 48 L 311 44 Z M 468 51 L 466 47 L 458 39 L 445 32 L 440 32 L 439 31 L 422 31 L 421 32 L 416 32 L 408 36 L 404 39 L 397 47 L 394 48 L 377 47 L 376 46 L 366 46 L 358 36 L 352 36 L 349 37 L 341 42 L 335 42 L 325 38 L 318 39 L 322 39 L 324 38 L 339 43 L 349 37 L 356 36 L 362 41 L 365 46 L 376 46 L 377 47 L 384 47 L 390 49 L 395 49 L 407 37 L 414 33 L 421 32 L 422 31 L 439 31 L 440 32 L 443 32 L 449 34 L 457 39 L 464 45 Z" fill="#E8E8E8" fill-rule="evenodd"/><path d="M 524 445 L 517 447 L 513 451 L 513 455 L 514 456 L 514 474 L 513 475 L 513 482 L 512 483 L 512 489 L 513 490 L 516 488 L 520 482 L 526 468 L 526 449 Z M 522 458 L 524 460 L 524 467 L 522 472 L 518 477 L 516 475 L 516 461 L 518 459 Z M 374 439 L 370 443 L 369 447 L 371 449 L 374 450 L 380 450 L 381 449 L 380 441 L 378 439 Z M 398 328 L 398 330 L 401 335 L 400 345 L 403 347 L 403 339 L 406 335 L 400 328 Z M 384 263 L 383 262 L 380 262 L 370 266 L 367 266 L 358 269 L 347 270 L 342 272 L 323 272 L 318 270 L 309 269 L 308 270 L 308 273 L 312 278 L 325 287 L 331 289 L 339 294 L 348 294 L 358 290 L 381 269 L 384 265 Z M 415 257 L 410 260 L 408 264 L 408 267 L 411 267 L 415 263 L 416 261 L 416 258 Z M 127 164 L 123 162 L 113 162 L 107 164 L 105 166 L 102 167 L 92 177 L 85 194 L 85 203 L 87 207 L 93 213 L 99 215 L 104 215 L 105 214 L 111 213 L 113 211 L 122 207 L 135 198 L 139 193 L 141 189 L 141 180 L 135 171 Z M 238 160 L 234 170 L 235 174 L 238 176 L 245 176 L 247 175 L 255 168 L 258 163 L 260 164 L 260 176 L 263 183 L 269 190 L 277 194 L 281 198 L 283 208 L 291 224 L 303 237 L 303 238 L 313 247 L 318 249 L 322 249 L 323 250 L 333 250 L 334 249 L 338 249 L 349 243 L 358 234 L 361 228 L 361 225 L 363 222 L 363 219 L 365 216 L 366 208 L 367 207 L 367 200 L 368 199 L 368 182 L 367 181 L 367 176 L 365 170 L 362 167 L 359 166 L 352 175 L 343 181 L 331 185 L 321 185 L 320 184 L 314 184 L 313 183 L 306 183 L 301 181 L 296 181 L 288 185 L 280 186 L 275 184 L 268 176 L 268 157 L 265 155 L 262 156 L 256 153 L 250 153 L 242 156 Z M 262 160 L 265 157 L 267 159 L 267 176 L 269 180 L 277 187 L 285 187 L 296 183 L 305 183 L 306 184 L 320 185 L 321 186 L 331 186 L 345 181 L 347 179 L 350 178 L 359 168 L 361 168 L 364 171 L 366 176 L 366 181 L 367 182 L 367 201 L 366 202 L 366 208 L 365 209 L 364 216 L 360 228 L 356 235 L 354 237 L 352 236 L 356 223 L 358 220 L 358 214 L 356 210 L 351 205 L 344 202 L 335 202 L 329 204 L 319 211 L 310 221 L 309 224 L 309 230 L 319 245 L 316 247 L 311 244 L 296 229 L 290 221 L 285 211 L 282 202 L 281 195 L 279 193 L 274 192 L 271 190 L 264 183 L 261 176 L 261 163 Z M 373 149 L 374 155 L 376 158 L 386 164 L 392 165 L 393 166 L 408 166 L 417 162 L 420 158 L 420 152 L 419 150 L 412 143 L 403 140 L 397 140 L 396 139 L 384 140 L 376 144 Z M 298 132 L 298 134 L 301 133 L 310 133 L 311 132 L 314 133 L 320 133 L 321 134 L 326 134 L 327 133 L 326 131 L 319 128 L 309 128 L 308 129 L 301 130 Z M 275 121 L 271 126 L 271 128 L 269 131 L 269 141 L 273 146 L 273 151 L 271 155 L 271 160 L 274 166 L 279 171 L 291 176 L 300 176 L 312 171 L 318 165 L 322 157 L 322 152 L 321 150 L 316 145 L 304 141 L 290 141 L 289 142 L 285 142 L 283 140 L 286 134 L 286 128 L 284 124 L 281 121 L 279 120 Z M 272 154 L 275 148 L 281 144 L 289 143 L 290 142 L 304 142 L 315 146 L 321 152 L 321 158 L 319 162 L 311 170 L 305 173 L 302 173 L 297 175 L 292 175 L 291 174 L 285 173 L 276 167 L 272 160 Z M 280 122 L 282 123 L 285 127 L 285 135 L 283 139 L 277 145 L 273 145 L 269 140 L 270 130 L 277 122 Z M 361 115 L 358 116 L 354 120 L 352 126 L 352 135 L 353 138 L 358 143 L 360 144 L 365 144 L 368 142 L 371 135 L 371 125 L 368 119 L 366 117 Z M 359 117 L 364 117 L 369 122 L 370 124 L 370 128 L 371 129 L 370 136 L 368 140 L 364 143 L 358 142 L 354 138 L 353 136 L 353 132 L 352 131 L 353 124 Z M 254 82 L 245 82 L 242 83 L 236 90 L 236 95 L 235 96 L 236 98 L 236 102 L 238 104 L 238 106 L 241 109 L 246 110 L 259 92 L 260 88 L 259 86 Z M 286 81 L 280 82 L 273 89 L 271 93 L 271 97 L 273 99 L 276 99 L 289 88 L 289 83 Z M 286 83 L 288 85 L 288 87 L 282 93 L 274 98 L 272 96 L 274 90 L 282 83 Z M 358 74 L 358 78 L 361 82 L 365 83 L 373 88 L 377 88 L 379 86 L 379 80 L 374 75 L 366 72 L 360 72 Z M 359 76 L 361 74 L 369 74 L 372 75 L 377 79 L 378 81 L 378 85 L 375 87 L 368 83 L 366 83 L 362 81 L 359 78 Z M 425 59 L 421 62 L 420 65 L 418 67 L 417 70 L 418 74 L 437 88 L 441 87 L 445 84 L 448 79 L 448 72 L 445 65 L 437 58 L 428 58 Z M 441 41 L 437 41 L 436 40 L 426 40 L 417 43 L 406 53 L 403 58 L 403 60 L 401 62 L 398 62 L 392 59 L 389 59 L 384 57 L 378 57 L 377 56 L 357 57 L 355 55 L 355 53 L 357 50 L 357 47 L 355 45 L 353 45 L 349 47 L 340 55 L 337 55 L 335 53 L 327 49 L 321 48 L 320 49 L 321 58 L 319 60 L 305 59 L 303 60 L 299 65 L 279 74 L 275 78 L 273 78 L 265 69 L 255 64 L 244 64 L 238 66 L 232 69 L 226 75 L 221 84 L 221 87 L 219 92 L 219 102 L 220 103 L 220 106 L 223 112 L 228 117 L 236 121 L 239 124 L 238 129 L 232 140 L 232 143 L 231 144 L 231 152 L 221 167 L 221 171 L 223 173 L 226 173 L 227 174 L 225 181 L 223 184 L 223 190 L 228 192 L 228 198 L 226 204 L 226 209 L 228 211 L 233 211 L 235 213 L 235 227 L 236 230 L 239 233 L 245 232 L 248 239 L 251 242 L 253 242 L 260 249 L 263 255 L 268 261 L 270 265 L 270 268 L 266 271 L 263 270 L 261 268 L 255 257 L 248 248 L 246 250 L 246 252 L 243 254 L 239 250 L 238 247 L 233 241 L 231 241 L 227 244 L 223 240 L 219 230 L 215 226 L 213 227 L 213 229 L 209 235 L 202 227 L 199 218 L 192 210 L 190 210 L 187 213 L 179 205 L 172 195 L 158 179 L 159 175 L 161 172 L 161 167 L 162 166 L 162 147 L 158 140 L 154 137 L 148 137 L 146 138 L 139 146 L 137 146 L 134 142 L 132 134 L 129 129 L 123 123 L 121 122 L 116 122 L 113 125 L 112 144 L 110 145 L 107 142 L 103 134 L 99 130 L 91 126 L 86 126 L 84 127 L 82 130 L 82 145 L 85 152 L 82 154 L 80 152 L 72 148 L 67 148 L 62 152 L 61 155 L 61 162 L 65 169 L 67 176 L 65 178 L 60 178 L 58 179 L 55 185 L 56 192 L 60 201 L 70 212 L 79 218 L 95 232 L 102 248 L 102 250 L 112 267 L 130 286 L 137 290 L 143 295 L 146 299 L 146 301 L 143 302 L 142 304 L 147 309 L 167 317 L 170 320 L 168 324 L 168 327 L 170 329 L 180 333 L 189 334 L 192 337 L 193 340 L 198 345 L 209 348 L 211 350 L 211 352 L 215 355 L 218 355 L 223 357 L 226 357 L 228 355 L 230 349 L 234 342 L 234 340 L 239 334 L 242 325 L 244 323 L 246 325 L 243 333 L 243 342 L 242 343 L 242 347 L 239 355 L 240 365 L 236 374 L 236 376 L 233 379 L 231 383 L 231 387 L 235 392 L 232 397 L 227 402 L 225 406 L 225 410 L 226 411 L 230 411 L 231 410 L 233 412 L 233 414 L 224 428 L 223 431 L 223 438 L 224 439 L 227 438 L 229 439 L 229 445 L 225 457 L 226 464 L 229 465 L 232 463 L 234 465 L 232 475 L 231 476 L 231 481 L 233 484 L 236 483 L 238 484 L 242 504 L 251 517 L 260 524 L 262 524 L 272 533 L 274 533 L 276 529 L 278 519 L 284 509 L 289 504 L 292 497 L 302 487 L 311 481 L 316 476 L 330 473 L 336 468 L 342 466 L 353 465 L 354 466 L 357 466 L 360 469 L 357 472 L 355 472 L 350 475 L 347 475 L 339 479 L 329 487 L 327 487 L 315 494 L 310 495 L 304 498 L 296 505 L 296 508 L 299 511 L 300 515 L 291 525 L 291 528 L 290 529 L 291 532 L 291 547 L 290 548 L 290 555 L 293 559 L 293 561 L 298 572 L 303 579 L 303 581 L 307 588 L 310 597 L 312 599 L 313 602 L 318 607 L 318 610 L 302 620 L 299 624 L 292 630 L 288 641 L 288 649 L 292 652 L 296 652 L 304 647 L 308 647 L 310 646 L 312 648 L 314 653 L 319 657 L 333 657 L 345 652 L 356 643 L 362 641 L 370 637 L 372 635 L 377 634 L 381 631 L 383 631 L 391 625 L 401 614 L 404 609 L 404 606 L 405 605 L 405 597 L 400 584 L 400 564 L 392 558 L 394 555 L 397 555 L 401 557 L 403 556 L 398 551 L 397 547 L 401 543 L 404 543 L 405 542 L 405 539 L 407 537 L 411 539 L 415 543 L 417 554 L 419 556 L 427 555 L 430 553 L 451 546 L 453 544 L 458 543 L 471 537 L 474 534 L 478 532 L 484 526 L 490 515 L 490 513 L 492 510 L 493 505 L 495 502 L 498 493 L 499 481 L 500 480 L 500 476 L 502 473 L 502 469 L 504 465 L 504 460 L 501 459 L 486 469 L 482 469 L 474 465 L 466 465 L 461 467 L 441 467 L 440 466 L 437 466 L 429 462 L 423 456 L 418 446 L 413 440 L 410 433 L 410 426 L 407 420 L 407 416 L 409 412 L 409 409 L 411 405 L 420 396 L 429 392 L 435 386 L 438 378 L 438 360 L 442 351 L 442 349 L 445 346 L 453 346 L 455 348 L 453 358 L 450 363 L 449 369 L 448 370 L 447 387 L 445 392 L 445 396 L 439 403 L 437 404 L 433 404 L 425 407 L 421 410 L 416 416 L 416 421 L 418 423 L 421 424 L 427 423 L 434 419 L 438 419 L 443 424 L 443 432 L 449 438 L 449 442 L 445 447 L 442 448 L 440 446 L 439 438 L 436 434 L 429 435 L 425 438 L 425 442 L 428 445 L 431 446 L 441 457 L 445 457 L 450 453 L 454 453 L 459 451 L 463 447 L 465 442 L 468 439 L 470 441 L 469 446 L 467 449 L 467 452 L 469 454 L 474 454 L 475 453 L 479 453 L 480 452 L 488 451 L 494 449 L 502 441 L 509 438 L 512 435 L 523 418 L 529 413 L 529 411 L 532 405 L 533 389 L 534 388 L 534 383 L 536 377 L 536 371 L 540 362 L 540 355 L 542 353 L 542 345 L 538 337 L 537 328 L 534 319 L 525 309 L 520 299 L 516 295 L 508 291 L 506 291 L 496 283 L 486 278 L 481 272 L 475 268 L 462 264 L 454 260 L 446 259 L 443 256 L 440 257 L 438 255 L 445 248 L 457 239 L 463 227 L 465 221 L 465 217 L 468 214 L 471 213 L 472 211 L 472 207 L 473 206 L 473 197 L 475 195 L 478 196 L 480 194 L 479 186 L 474 174 L 475 173 L 480 173 L 481 172 L 480 166 L 474 157 L 469 152 L 471 149 L 475 149 L 477 147 L 477 144 L 472 138 L 467 136 L 465 134 L 465 132 L 468 130 L 467 127 L 462 122 L 453 106 L 447 100 L 447 98 L 450 95 L 454 93 L 460 87 L 463 81 L 463 78 L 464 77 L 464 69 L 463 68 L 463 65 L 459 56 L 455 51 L 447 44 Z M 439 451 L 440 450 L 443 450 L 446 454 L 444 456 L 442 456 L 439 453 Z M 427 439 L 429 437 L 435 437 L 438 441 L 438 445 L 436 447 L 432 446 L 427 441 Z M 434 349 L 438 349 L 440 351 L 440 354 L 437 359 L 435 359 L 432 355 L 432 351 Z M 415 342 L 416 341 L 419 341 L 423 343 L 426 346 L 426 351 L 427 353 L 424 354 L 416 346 Z M 83 131 L 86 128 L 91 128 L 95 130 L 102 137 L 101 139 L 98 136 L 92 133 L 88 133 L 84 136 L 83 135 Z M 436 41 L 444 44 L 451 49 L 457 55 L 462 64 L 462 67 L 463 68 L 463 78 L 460 85 L 455 91 L 445 97 L 445 100 L 452 106 L 460 121 L 464 126 L 465 129 L 463 131 L 463 134 L 465 136 L 470 138 L 474 142 L 474 145 L 472 147 L 470 147 L 467 151 L 475 160 L 479 168 L 477 170 L 474 170 L 473 171 L 473 177 L 477 184 L 478 191 L 477 192 L 474 191 L 471 192 L 471 195 L 472 196 L 472 207 L 471 210 L 469 212 L 466 212 L 464 214 L 463 224 L 458 234 L 455 236 L 453 234 L 451 229 L 449 231 L 448 235 L 445 240 L 439 246 L 437 247 L 434 246 L 431 247 L 421 258 L 419 258 L 419 262 L 422 263 L 433 259 L 442 259 L 443 260 L 447 260 L 448 261 L 452 261 L 456 263 L 459 263 L 462 265 L 469 266 L 475 269 L 479 273 L 479 275 L 481 277 L 483 277 L 485 279 L 487 279 L 491 282 L 495 283 L 497 286 L 502 290 L 512 295 L 516 300 L 521 304 L 526 311 L 527 314 L 530 317 L 531 323 L 535 329 L 535 333 L 540 344 L 540 349 L 538 352 L 538 357 L 536 363 L 535 378 L 533 383 L 533 388 L 532 389 L 532 394 L 531 395 L 531 401 L 529 405 L 521 414 L 520 420 L 515 429 L 513 431 L 510 432 L 493 448 L 491 448 L 488 450 L 484 450 L 479 452 L 471 453 L 469 450 L 474 437 L 474 434 L 470 434 L 463 441 L 462 444 L 457 450 L 449 451 L 447 448 L 451 441 L 451 437 L 445 432 L 445 427 L 447 425 L 448 421 L 443 420 L 435 416 L 431 420 L 427 422 L 422 422 L 418 419 L 418 417 L 420 413 L 426 408 L 438 405 L 446 399 L 449 392 L 449 387 L 450 386 L 450 374 L 451 373 L 452 363 L 457 349 L 457 344 L 449 344 L 448 343 L 443 344 L 440 343 L 438 341 L 431 341 L 425 343 L 417 339 L 414 339 L 413 340 L 416 349 L 435 369 L 436 372 L 436 378 L 434 384 L 427 391 L 424 391 L 421 394 L 418 395 L 413 399 L 407 406 L 401 406 L 399 408 L 397 414 L 399 417 L 402 418 L 404 420 L 408 428 L 409 436 L 417 448 L 417 450 L 419 453 L 419 459 L 421 461 L 425 462 L 430 465 L 433 465 L 441 468 L 463 468 L 464 467 L 469 467 L 470 468 L 470 471 L 467 474 L 467 476 L 462 482 L 459 483 L 450 493 L 448 497 L 440 505 L 438 508 L 437 512 L 434 515 L 430 517 L 423 524 L 418 531 L 414 533 L 404 533 L 403 534 L 393 535 L 389 537 L 389 542 L 387 544 L 385 544 L 383 542 L 380 543 L 380 549 L 385 554 L 387 560 L 392 565 L 394 569 L 394 575 L 396 580 L 396 584 L 398 588 L 398 605 L 394 612 L 391 615 L 391 618 L 389 620 L 389 622 L 387 625 L 380 631 L 376 631 L 374 633 L 370 634 L 367 636 L 355 638 L 346 646 L 334 651 L 328 656 L 321 656 L 316 651 L 312 642 L 305 643 L 299 648 L 292 648 L 290 646 L 290 639 L 291 636 L 295 632 L 300 632 L 302 629 L 301 624 L 311 615 L 316 613 L 323 613 L 325 611 L 325 608 L 322 602 L 313 593 L 306 583 L 291 554 L 291 550 L 292 549 L 292 526 L 300 519 L 302 515 L 302 513 L 298 505 L 304 499 L 314 495 L 317 495 L 319 493 L 333 486 L 337 482 L 340 481 L 342 479 L 355 474 L 358 474 L 361 472 L 364 472 L 365 471 L 368 471 L 371 469 L 374 469 L 376 467 L 376 465 L 373 464 L 365 464 L 364 463 L 343 463 L 342 464 L 337 464 L 331 468 L 325 470 L 323 472 L 316 474 L 310 480 L 302 485 L 291 496 L 288 502 L 281 509 L 278 515 L 278 517 L 275 519 L 270 525 L 268 525 L 264 520 L 261 520 L 260 521 L 257 520 L 248 511 L 243 502 L 241 496 L 241 493 L 240 492 L 240 489 L 239 488 L 239 479 L 238 478 L 234 482 L 232 480 L 232 474 L 235 466 L 235 460 L 233 459 L 229 462 L 226 460 L 226 456 L 229 448 L 229 445 L 231 442 L 232 435 L 231 434 L 226 435 L 224 433 L 224 430 L 226 427 L 227 423 L 231 419 L 232 416 L 234 414 L 234 410 L 233 409 L 228 409 L 226 407 L 228 402 L 237 392 L 237 389 L 232 385 L 232 383 L 240 369 L 252 356 L 252 351 L 251 350 L 247 352 L 244 355 L 241 354 L 241 351 L 243 346 L 243 335 L 247 325 L 247 315 L 251 310 L 251 306 L 250 305 L 246 309 L 245 317 L 237 331 L 233 334 L 228 334 L 224 336 L 219 336 L 214 332 L 214 328 L 219 323 L 218 321 L 208 321 L 201 316 L 196 314 L 182 314 L 180 311 L 186 305 L 186 303 L 176 301 L 168 297 L 163 296 L 161 294 L 157 293 L 151 289 L 149 289 L 128 274 L 122 268 L 121 265 L 118 262 L 115 261 L 117 263 L 117 265 L 115 266 L 110 261 L 101 245 L 99 238 L 94 228 L 74 213 L 62 201 L 57 193 L 56 190 L 56 184 L 60 179 L 63 180 L 64 183 L 63 184 L 62 191 L 64 195 L 70 200 L 73 200 L 74 201 L 77 201 L 80 198 L 80 191 L 78 187 L 73 181 L 75 179 L 82 179 L 86 175 L 87 168 L 82 161 L 75 158 L 71 155 L 68 155 L 64 157 L 63 155 L 67 150 L 71 150 L 76 153 L 78 153 L 86 159 L 93 161 L 94 160 L 98 160 L 105 155 L 105 150 L 103 145 L 104 142 L 108 146 L 109 149 L 111 151 L 114 150 L 117 153 L 125 154 L 128 153 L 131 149 L 131 144 L 130 143 L 130 140 L 131 139 L 133 141 L 135 147 L 138 148 L 140 150 L 139 153 L 139 161 L 140 164 L 145 169 L 151 169 L 154 166 L 156 160 L 156 150 L 153 141 L 155 140 L 160 145 L 161 148 L 161 168 L 158 176 L 158 181 L 159 183 L 171 195 L 176 203 L 186 214 L 192 213 L 197 217 L 203 230 L 208 236 L 210 236 L 212 234 L 212 231 L 216 228 L 220 233 L 223 242 L 226 246 L 229 245 L 231 243 L 233 243 L 237 247 L 239 252 L 242 256 L 245 256 L 246 254 L 249 252 L 254 257 L 259 267 L 264 272 L 268 271 L 271 268 L 271 266 L 273 264 L 282 267 L 285 269 L 288 269 L 288 266 L 282 260 L 276 257 L 270 257 L 268 258 L 263 253 L 259 246 L 252 239 L 250 239 L 248 237 L 247 232 L 245 229 L 239 230 L 236 227 L 236 211 L 234 209 L 229 210 L 227 208 L 227 203 L 228 202 L 228 197 L 229 196 L 230 188 L 229 187 L 226 188 L 224 186 L 228 175 L 228 171 L 225 170 L 223 168 L 223 166 L 228 159 L 232 151 L 232 143 L 240 126 L 240 122 L 231 118 L 223 110 L 220 103 L 220 91 L 225 78 L 231 71 L 240 66 L 243 66 L 244 65 L 252 65 L 262 69 L 265 71 L 273 80 L 276 80 L 282 74 L 296 67 L 300 66 L 306 60 L 321 60 L 322 59 L 322 55 L 321 54 L 321 50 L 322 49 L 327 50 L 335 54 L 338 57 L 340 57 L 349 49 L 353 48 L 354 49 L 354 57 L 355 58 L 377 57 L 378 58 L 387 59 L 396 62 L 399 64 L 402 64 L 406 55 L 416 45 L 425 41 Z M 77 121 L 73 126 L 71 130 L 70 138 L 68 140 L 61 140 L 59 141 L 55 145 L 54 148 L 52 150 L 50 156 L 50 162 L 53 168 L 53 172 L 45 181 L 45 191 L 52 205 L 60 215 L 73 227 L 82 232 L 85 235 L 88 241 L 91 251 L 96 261 L 111 281 L 130 299 L 130 306 L 134 311 L 142 315 L 144 317 L 153 321 L 157 325 L 157 329 L 162 335 L 171 338 L 179 342 L 186 350 L 190 352 L 196 353 L 200 355 L 207 361 L 217 365 L 220 365 L 226 369 L 226 373 L 224 375 L 222 381 L 222 392 L 214 406 L 215 412 L 218 416 L 218 420 L 214 427 L 212 433 L 212 440 L 216 447 L 216 468 L 222 479 L 222 487 L 223 490 L 231 502 L 231 504 L 233 506 L 237 515 L 241 521 L 252 532 L 258 535 L 267 542 L 269 542 L 275 546 L 275 549 L 277 552 L 277 559 L 279 564 L 281 566 L 281 570 L 284 578 L 284 582 L 282 587 L 282 593 L 287 599 L 291 598 L 296 604 L 296 607 L 292 610 L 288 610 L 286 612 L 281 621 L 280 635 L 275 645 L 275 652 L 279 660 L 279 662 L 282 665 L 289 668 L 292 668 L 293 669 L 303 669 L 304 670 L 324 670 L 325 669 L 335 669 L 336 668 L 341 668 L 342 667 L 349 667 L 355 674 L 358 675 L 360 677 L 366 679 L 371 683 L 377 686 L 386 689 L 395 689 L 396 690 L 412 692 L 413 693 L 430 693 L 431 692 L 437 692 L 443 690 L 448 690 L 449 689 L 456 688 L 462 685 L 464 685 L 481 676 L 496 662 L 497 662 L 501 657 L 508 643 L 508 640 L 510 636 L 510 631 L 511 630 L 512 621 L 511 620 L 511 617 L 508 613 L 508 611 L 500 600 L 487 589 L 478 583 L 473 577 L 470 571 L 470 567 L 469 566 L 470 557 L 485 541 L 490 533 L 494 529 L 501 515 L 507 509 L 514 505 L 527 494 L 532 488 L 534 483 L 536 481 L 536 479 L 539 473 L 539 460 L 540 459 L 540 449 L 539 448 L 539 423 L 545 407 L 545 392 L 547 386 L 547 380 L 549 375 L 551 361 L 558 347 L 558 339 L 557 336 L 553 331 L 548 321 L 548 319 L 540 307 L 517 282 L 506 276 L 495 267 L 486 263 L 483 263 L 477 259 L 470 257 L 463 252 L 463 248 L 465 244 L 471 237 L 473 230 L 478 225 L 481 219 L 482 209 L 488 204 L 490 200 L 491 192 L 489 186 L 489 181 L 492 176 L 492 166 L 487 159 L 487 155 L 489 152 L 489 145 L 477 131 L 475 125 L 467 113 L 464 106 L 464 99 L 470 90 L 474 79 L 473 65 L 472 64 L 471 58 L 467 50 L 461 43 L 449 35 L 443 33 L 440 33 L 439 32 L 422 32 L 410 36 L 395 50 L 390 50 L 384 48 L 377 48 L 376 47 L 365 47 L 358 38 L 353 37 L 352 38 L 349 38 L 339 44 L 324 39 L 322 40 L 317 40 L 312 44 L 311 48 L 308 52 L 298 53 L 294 55 L 291 58 L 278 65 L 276 65 L 268 59 L 258 55 L 243 55 L 242 56 L 236 57 L 228 61 L 217 71 L 211 82 L 210 88 L 209 89 L 209 105 L 211 111 L 215 118 L 227 130 L 226 134 L 221 144 L 220 152 L 212 162 L 210 168 L 211 170 L 211 174 L 215 179 L 215 182 L 213 187 L 213 195 L 216 201 L 216 208 L 217 209 L 217 213 L 215 215 L 212 216 L 209 216 L 204 211 L 201 205 L 197 200 L 195 199 L 188 199 L 182 193 L 179 188 L 169 179 L 169 172 L 171 167 L 172 151 L 171 150 L 171 145 L 169 140 L 161 130 L 155 127 L 146 128 L 141 130 L 138 127 L 134 119 L 126 112 L 115 112 L 112 113 L 102 122 L 92 117 L 85 117 Z M 409 670 L 411 666 L 415 662 L 417 664 L 417 669 L 420 671 L 432 671 L 434 673 L 434 677 L 428 679 L 413 678 L 411 676 Z M 421 656 L 424 653 L 430 650 L 432 652 L 434 658 L 433 659 L 423 659 Z M 412 625 L 414 627 L 413 635 L 411 637 L 408 638 L 408 642 L 407 643 L 408 646 L 407 647 L 406 646 L 397 647 L 395 644 L 400 637 L 403 628 L 406 625 Z M 450 597 L 452 596 L 459 596 L 462 597 L 468 602 L 470 606 L 471 614 L 472 615 L 471 618 L 474 622 L 473 628 L 471 630 L 467 630 L 464 628 L 451 628 L 448 626 L 446 626 L 441 621 L 440 619 L 440 611 L 441 608 L 445 602 Z M 80 120 L 84 118 L 88 118 L 90 117 L 102 123 L 110 115 L 114 113 L 125 113 L 129 115 L 134 120 L 138 128 L 141 131 L 143 131 L 149 128 L 156 128 L 161 131 L 167 138 L 171 148 L 171 165 L 168 174 L 169 181 L 178 188 L 183 196 L 188 201 L 195 200 L 199 204 L 203 213 L 207 217 L 216 217 L 218 214 L 217 204 L 216 203 L 217 199 L 214 195 L 214 186 L 216 182 L 216 179 L 211 173 L 211 165 L 218 157 L 222 149 L 222 143 L 227 135 L 228 128 L 214 115 L 209 103 L 209 92 L 214 77 L 218 71 L 227 63 L 234 59 L 240 57 L 243 57 L 244 56 L 257 56 L 267 60 L 276 66 L 279 66 L 287 62 L 298 54 L 301 54 L 302 53 L 310 53 L 312 51 L 312 46 L 313 44 L 317 41 L 327 41 L 337 45 L 341 45 L 347 40 L 353 38 L 358 39 L 364 48 L 377 48 L 378 49 L 384 49 L 390 51 L 396 51 L 406 40 L 414 35 L 420 34 L 421 33 L 438 33 L 439 34 L 446 35 L 458 42 L 466 50 L 469 55 L 473 67 L 473 81 L 470 89 L 462 99 L 461 103 L 469 118 L 473 123 L 479 137 L 488 144 L 489 150 L 486 155 L 486 159 L 492 168 L 492 175 L 488 180 L 488 185 L 490 189 L 490 199 L 489 201 L 482 207 L 481 209 L 480 220 L 473 228 L 469 238 L 463 245 L 463 253 L 465 255 L 473 259 L 475 259 L 484 264 L 489 265 L 495 268 L 506 277 L 515 282 L 537 305 L 544 314 L 549 324 L 551 326 L 553 332 L 557 338 L 558 345 L 555 351 L 551 356 L 548 364 L 548 373 L 547 374 L 546 387 L 544 393 L 545 402 L 544 403 L 544 407 L 542 413 L 540 416 L 537 425 L 537 438 L 538 439 L 538 445 L 539 446 L 539 465 L 538 466 L 538 472 L 532 486 L 521 498 L 520 498 L 514 504 L 507 508 L 500 515 L 495 526 L 489 533 L 487 537 L 468 555 L 466 556 L 462 556 L 461 557 L 455 557 L 452 559 L 446 561 L 443 561 L 433 565 L 422 566 L 418 568 L 413 576 L 412 588 L 411 589 L 411 602 L 413 608 L 413 621 L 411 623 L 403 624 L 400 628 L 397 636 L 394 639 L 386 644 L 385 651 L 379 662 L 382 665 L 391 665 L 393 662 L 394 658 L 399 653 L 408 649 L 418 639 L 422 637 L 426 637 L 428 639 L 432 640 L 434 643 L 429 649 L 423 652 L 412 662 L 408 670 L 400 677 L 404 681 L 412 681 L 413 680 L 438 680 L 439 679 L 444 679 L 445 678 L 452 677 L 466 670 L 472 665 L 477 659 L 488 649 L 489 646 L 493 641 L 497 629 L 497 619 L 496 618 L 496 612 L 495 609 L 488 601 L 480 596 L 474 590 L 466 591 L 462 587 L 464 584 L 471 580 L 482 587 L 503 607 L 507 613 L 510 621 L 509 636 L 500 656 L 497 660 L 481 675 L 471 680 L 469 682 L 467 682 L 460 686 L 454 688 L 451 688 L 446 690 L 442 690 L 441 691 L 429 692 L 428 693 L 417 693 L 416 692 L 411 692 L 410 691 L 406 691 L 405 690 L 397 689 L 396 688 L 386 688 L 385 687 L 382 687 L 377 684 L 375 684 L 366 676 L 366 674 L 363 668 L 356 665 L 353 666 L 343 666 L 342 667 L 338 667 L 332 669 L 299 669 L 298 668 L 288 667 L 284 665 L 280 661 L 277 654 L 277 646 L 282 638 L 283 630 L 286 627 L 291 627 L 293 626 L 294 624 L 295 618 L 296 617 L 296 612 L 297 611 L 297 604 L 291 596 L 288 596 L 286 594 L 287 580 L 283 574 L 281 563 L 278 557 L 277 548 L 274 542 L 272 540 L 266 539 L 264 537 L 251 530 L 239 517 L 234 509 L 228 496 L 223 489 L 222 477 L 217 469 L 217 464 L 216 463 L 217 447 L 213 441 L 213 432 L 219 420 L 219 416 L 215 410 L 215 406 L 219 400 L 220 396 L 224 388 L 223 381 L 224 380 L 224 377 L 228 371 L 228 368 L 225 366 L 211 362 L 195 352 L 192 352 L 187 350 L 179 341 L 160 333 L 158 331 L 157 323 L 134 310 L 131 306 L 131 299 L 122 290 L 121 290 L 106 274 L 102 267 L 97 261 L 91 250 L 86 235 L 83 232 L 76 228 L 55 208 L 46 193 L 46 190 L 45 189 L 45 183 L 46 180 L 54 172 L 54 168 L 51 163 L 51 155 L 56 145 L 59 142 L 61 141 L 69 141 L 71 139 L 71 132 L 72 129 Z" fill="#B1B1B1" fill-rule="evenodd"/><path d="M 416 342 L 417 346 L 424 353 L 426 353 L 425 351 L 425 346 L 423 344 L 419 342 Z M 263 160 L 263 162 L 262 163 L 262 176 L 265 183 L 271 189 L 272 189 L 274 191 L 279 192 L 282 195 L 282 198 L 283 199 L 283 202 L 284 203 L 286 211 L 291 221 L 294 224 L 297 229 L 311 243 L 316 246 L 318 245 L 314 240 L 308 230 L 308 224 L 309 223 L 309 221 L 312 218 L 312 217 L 324 206 L 329 203 L 331 203 L 335 201 L 344 201 L 345 202 L 347 202 L 351 204 L 357 210 L 359 214 L 359 220 L 357 223 L 357 225 L 356 226 L 355 231 L 353 234 L 353 236 L 355 235 L 359 228 L 359 226 L 360 225 L 360 223 L 363 216 L 363 213 L 364 212 L 364 209 L 365 208 L 365 202 L 366 201 L 366 182 L 365 181 L 365 176 L 364 175 L 364 173 L 361 169 L 359 169 L 350 179 L 347 180 L 343 183 L 341 183 L 338 185 L 332 186 L 331 187 L 321 187 L 320 186 L 312 186 L 311 185 L 306 185 L 305 184 L 296 184 L 295 185 L 292 185 L 285 188 L 277 188 L 268 180 L 266 176 L 266 159 L 265 158 Z M 273 154 L 273 160 L 277 167 L 285 172 L 291 173 L 292 174 L 297 174 L 298 173 L 305 172 L 311 169 L 318 162 L 320 158 L 320 152 L 315 147 L 308 144 L 305 144 L 304 143 L 290 143 L 289 144 L 284 144 L 283 145 L 281 145 L 276 148 Z M 280 123 L 277 123 L 271 130 L 271 133 L 270 134 L 270 140 L 273 144 L 277 144 L 282 139 L 284 135 L 284 127 L 283 125 Z M 359 118 L 354 124 L 354 128 L 353 129 L 353 131 L 354 132 L 354 136 L 358 141 L 364 142 L 367 140 L 369 136 L 369 133 L 370 132 L 369 124 L 364 118 Z M 287 85 L 286 84 L 282 84 L 280 86 L 279 86 L 275 90 L 273 94 L 273 96 L 275 97 L 281 92 L 282 92 L 287 87 Z M 360 76 L 360 78 L 362 80 L 366 82 L 368 82 L 375 86 L 377 85 L 377 81 L 376 79 L 372 76 L 370 76 L 369 75 L 361 75 Z M 80 121 L 74 127 L 73 129 L 73 131 L 72 132 L 72 139 L 69 142 L 61 142 L 59 143 L 57 145 L 56 148 L 53 152 L 53 154 L 52 155 L 52 163 L 55 168 L 55 172 L 47 180 L 47 182 L 46 183 L 46 189 L 47 190 L 47 193 L 56 208 L 76 227 L 83 231 L 87 235 L 89 242 L 90 243 L 90 245 L 92 248 L 92 250 L 95 256 L 97 258 L 98 261 L 103 267 L 104 270 L 107 273 L 107 274 L 118 285 L 118 286 L 132 299 L 132 306 L 134 309 L 140 312 L 142 314 L 144 314 L 148 317 L 150 317 L 152 319 L 156 321 L 158 323 L 158 328 L 160 332 L 168 336 L 170 336 L 175 339 L 179 340 L 187 349 L 191 350 L 192 351 L 195 351 L 202 355 L 205 358 L 211 361 L 225 365 L 229 368 L 229 371 L 227 375 L 225 377 L 225 380 L 224 381 L 224 385 L 225 386 L 224 391 L 221 396 L 220 400 L 218 402 L 216 406 L 216 410 L 218 414 L 220 416 L 220 420 L 214 432 L 214 441 L 218 447 L 218 455 L 217 456 L 218 469 L 223 477 L 224 489 L 229 496 L 235 509 L 237 511 L 240 517 L 251 529 L 254 530 L 256 532 L 264 536 L 266 538 L 272 539 L 275 542 L 278 548 L 278 551 L 279 552 L 279 557 L 282 563 L 284 574 L 288 580 L 288 585 L 287 586 L 287 594 L 288 595 L 291 595 L 295 599 L 298 604 L 298 611 L 297 612 L 297 617 L 296 618 L 295 624 L 293 627 L 291 628 L 286 628 L 284 630 L 283 638 L 281 640 L 278 646 L 278 654 L 281 661 L 284 664 L 288 666 L 291 666 L 292 667 L 298 667 L 299 668 L 332 668 L 333 667 L 337 667 L 338 666 L 342 666 L 343 665 L 353 665 L 354 664 L 356 664 L 357 665 L 362 666 L 364 668 L 367 674 L 367 676 L 375 683 L 377 683 L 382 686 L 385 686 L 386 687 L 396 687 L 397 688 L 401 688 L 402 689 L 410 690 L 411 691 L 416 691 L 417 692 L 428 692 L 429 691 L 441 690 L 442 689 L 446 689 L 447 688 L 454 687 L 455 686 L 460 685 L 467 681 L 469 681 L 471 679 L 481 674 L 490 665 L 491 665 L 499 656 L 506 642 L 506 640 L 508 636 L 509 621 L 508 620 L 508 617 L 502 607 L 482 588 L 471 581 L 470 581 L 467 584 L 464 585 L 463 587 L 466 590 L 471 590 L 472 589 L 474 589 L 480 595 L 488 600 L 495 607 L 496 611 L 497 612 L 497 618 L 498 619 L 498 629 L 497 630 L 497 633 L 494 639 L 494 641 L 490 646 L 489 649 L 481 657 L 480 657 L 472 666 L 471 666 L 466 671 L 452 678 L 449 678 L 448 679 L 445 679 L 444 680 L 439 680 L 438 681 L 413 681 L 412 682 L 404 682 L 399 677 L 405 671 L 407 670 L 411 662 L 417 656 L 418 656 L 423 651 L 429 648 L 432 645 L 433 642 L 430 640 L 428 640 L 426 638 L 422 638 L 418 640 L 408 650 L 407 650 L 405 652 L 403 652 L 399 654 L 395 658 L 394 662 L 391 666 L 382 666 L 378 662 L 380 657 L 382 655 L 384 651 L 385 644 L 388 641 L 391 640 L 396 636 L 399 628 L 403 623 L 405 623 L 406 622 L 411 622 L 412 621 L 412 608 L 411 607 L 411 603 L 410 602 L 410 589 L 411 588 L 412 576 L 417 568 L 419 566 L 421 566 L 422 565 L 433 564 L 434 563 L 436 563 L 443 560 L 446 560 L 447 559 L 452 558 L 455 556 L 461 556 L 462 555 L 466 555 L 468 554 L 486 537 L 488 533 L 494 526 L 499 515 L 507 507 L 508 507 L 511 504 L 514 503 L 520 497 L 521 497 L 531 486 L 535 478 L 535 476 L 537 472 L 537 466 L 538 465 L 538 446 L 537 445 L 537 439 L 536 438 L 536 425 L 537 424 L 539 416 L 541 413 L 541 411 L 543 407 L 543 403 L 544 402 L 543 393 L 544 392 L 545 381 L 546 380 L 546 374 L 547 373 L 547 364 L 548 363 L 548 360 L 550 356 L 554 351 L 557 345 L 557 341 L 556 340 L 556 338 L 554 334 L 552 332 L 550 328 L 550 326 L 548 324 L 543 314 L 536 306 L 536 305 L 515 283 L 514 283 L 509 279 L 506 278 L 495 269 L 489 266 L 484 265 L 475 260 L 473 260 L 465 256 L 462 253 L 462 245 L 468 238 L 472 228 L 478 222 L 479 220 L 479 217 L 480 216 L 480 209 L 481 207 L 483 205 L 484 205 L 489 199 L 489 189 L 487 185 L 487 180 L 491 175 L 491 168 L 489 164 L 485 159 L 485 155 L 488 150 L 487 144 L 485 142 L 482 141 L 478 137 L 472 123 L 468 118 L 466 113 L 464 111 L 460 103 L 461 99 L 469 89 L 471 82 L 472 81 L 472 67 L 471 66 L 471 63 L 468 57 L 468 55 L 465 50 L 458 43 L 446 36 L 444 36 L 443 35 L 439 35 L 438 34 L 421 34 L 420 35 L 414 36 L 406 41 L 396 52 L 390 52 L 389 51 L 378 50 L 377 49 L 364 49 L 362 47 L 358 40 L 353 39 L 352 40 L 349 40 L 347 41 L 341 46 L 337 46 L 336 45 L 334 45 L 327 42 L 317 42 L 314 44 L 313 46 L 313 51 L 310 54 L 302 54 L 301 55 L 298 55 L 287 63 L 279 67 L 276 67 L 272 64 L 269 63 L 267 61 L 263 59 L 258 58 L 257 57 L 244 57 L 243 58 L 240 58 L 239 59 L 234 60 L 227 64 L 219 71 L 219 72 L 215 77 L 213 81 L 213 83 L 211 87 L 211 91 L 210 92 L 210 103 L 211 104 L 211 107 L 215 115 L 229 128 L 229 132 L 228 133 L 228 135 L 223 143 L 223 149 L 222 150 L 222 152 L 219 157 L 213 163 L 212 165 L 212 173 L 217 179 L 217 182 L 215 186 L 215 195 L 218 199 L 217 203 L 218 204 L 219 214 L 216 218 L 207 218 L 202 213 L 198 204 L 195 201 L 191 201 L 190 202 L 188 202 L 182 196 L 177 188 L 168 181 L 168 179 L 167 178 L 167 174 L 168 173 L 168 170 L 169 169 L 169 166 L 170 165 L 170 148 L 169 147 L 169 144 L 166 138 L 161 132 L 156 129 L 149 129 L 143 132 L 141 132 L 137 128 L 133 120 L 129 116 L 125 114 L 114 114 L 110 116 L 102 124 L 90 118 L 88 119 L 84 119 Z M 367 651 L 369 650 L 370 652 L 368 653 Z M 524 444 L 526 446 L 526 448 L 527 449 L 527 468 L 521 482 L 519 484 L 517 488 L 513 491 L 511 489 L 512 475 L 513 474 L 513 456 L 512 455 L 512 451 L 517 446 Z M 441 40 L 447 43 L 456 51 L 456 52 L 460 56 L 464 65 L 464 68 L 465 69 L 465 77 L 464 78 L 464 81 L 461 87 L 454 94 L 450 96 L 448 98 L 448 100 L 454 106 L 459 116 L 461 118 L 463 122 L 468 127 L 469 130 L 467 132 L 466 132 L 466 134 L 472 137 L 478 144 L 478 147 L 475 150 L 471 150 L 470 152 L 475 157 L 475 158 L 481 166 L 482 172 L 480 174 L 475 174 L 480 186 L 481 194 L 478 197 L 476 196 L 474 197 L 474 206 L 473 207 L 473 211 L 472 213 L 470 215 L 468 215 L 466 217 L 466 221 L 465 222 L 464 227 L 458 239 L 446 249 L 445 249 L 439 255 L 440 256 L 441 255 L 443 255 L 446 258 L 454 259 L 462 263 L 464 263 L 465 264 L 470 265 L 473 267 L 475 267 L 477 269 L 481 271 L 486 277 L 496 282 L 506 290 L 508 290 L 516 294 L 521 299 L 526 309 L 535 319 L 535 321 L 537 324 L 537 327 L 538 328 L 538 333 L 539 334 L 539 337 L 543 345 L 543 353 L 541 355 L 541 362 L 539 365 L 539 367 L 537 371 L 537 377 L 536 378 L 535 388 L 534 389 L 534 399 L 533 400 L 533 405 L 530 411 L 530 413 L 524 418 L 513 435 L 509 439 L 502 442 L 494 450 L 492 450 L 488 452 L 480 453 L 479 454 L 469 455 L 466 452 L 466 449 L 469 443 L 469 441 L 468 440 L 466 442 L 464 447 L 459 452 L 455 453 L 454 454 L 450 454 L 445 458 L 441 458 L 431 447 L 428 446 L 424 442 L 424 438 L 429 434 L 431 434 L 432 433 L 436 433 L 440 438 L 441 446 L 442 447 L 445 446 L 448 442 L 448 438 L 442 432 L 442 424 L 438 420 L 434 420 L 427 424 L 421 425 L 420 424 L 418 424 L 415 421 L 415 416 L 416 414 L 425 406 L 432 404 L 433 403 L 437 403 L 439 402 L 444 396 L 444 392 L 445 391 L 445 388 L 446 387 L 446 377 L 447 376 L 447 370 L 448 369 L 449 363 L 452 358 L 452 355 L 453 354 L 454 348 L 453 347 L 445 347 L 443 349 L 443 351 L 441 354 L 441 356 L 439 360 L 439 378 L 438 379 L 436 386 L 429 393 L 420 397 L 412 405 L 410 409 L 410 412 L 408 416 L 408 420 L 411 426 L 411 433 L 414 440 L 419 446 L 424 456 L 429 461 L 437 465 L 440 465 L 441 466 L 461 466 L 462 465 L 465 465 L 466 464 L 474 464 L 482 468 L 486 468 L 488 466 L 490 466 L 501 458 L 503 458 L 505 460 L 505 465 L 503 469 L 503 473 L 501 476 L 501 480 L 500 481 L 499 493 L 498 494 L 496 502 L 494 505 L 493 510 L 491 513 L 491 515 L 485 526 L 478 533 L 474 535 L 471 538 L 463 542 L 461 542 L 458 544 L 453 545 L 451 547 L 449 547 L 446 549 L 438 551 L 435 553 L 430 554 L 427 556 L 425 556 L 424 557 L 419 557 L 416 554 L 414 543 L 411 540 L 407 538 L 406 539 L 406 542 L 404 544 L 401 544 L 398 547 L 399 551 L 404 556 L 402 558 L 398 557 L 397 556 L 394 556 L 393 558 L 401 564 L 401 584 L 402 585 L 403 591 L 406 597 L 406 605 L 405 606 L 405 609 L 402 614 L 393 623 L 393 624 L 386 630 L 385 630 L 383 632 L 381 632 L 377 635 L 372 636 L 370 638 L 356 644 L 345 653 L 341 654 L 333 658 L 319 658 L 313 653 L 310 647 L 308 648 L 304 648 L 302 650 L 300 650 L 296 653 L 292 653 L 287 649 L 287 641 L 288 640 L 288 637 L 291 630 L 294 627 L 295 627 L 302 619 L 317 610 L 317 607 L 312 602 L 311 599 L 309 597 L 307 593 L 306 588 L 302 581 L 302 579 L 297 572 L 294 566 L 294 564 L 292 561 L 292 559 L 289 555 L 289 548 L 290 547 L 290 532 L 289 531 L 289 529 L 290 528 L 290 525 L 298 517 L 299 515 L 298 511 L 295 508 L 295 505 L 304 497 L 310 494 L 315 493 L 323 489 L 327 486 L 329 486 L 339 478 L 347 474 L 350 474 L 355 471 L 357 471 L 359 469 L 357 467 L 354 467 L 353 466 L 342 467 L 341 468 L 338 468 L 336 469 L 330 474 L 327 474 L 323 476 L 319 476 L 318 477 L 316 477 L 311 482 L 310 482 L 303 488 L 302 488 L 293 497 L 290 504 L 285 509 L 282 515 L 280 517 L 279 519 L 279 522 L 277 526 L 277 529 L 274 534 L 272 534 L 262 525 L 260 525 L 258 523 L 254 521 L 250 517 L 250 516 L 246 512 L 243 506 L 241 504 L 241 501 L 239 497 L 239 493 L 238 492 L 238 487 L 237 486 L 237 484 L 233 485 L 230 481 L 230 476 L 231 475 L 231 472 L 232 471 L 233 465 L 231 464 L 229 466 L 227 466 L 225 464 L 225 462 L 224 461 L 224 457 L 225 456 L 226 449 L 228 445 L 228 439 L 224 440 L 222 438 L 222 431 L 223 430 L 223 428 L 232 414 L 232 412 L 231 411 L 230 412 L 226 412 L 224 410 L 224 406 L 226 402 L 231 397 L 234 392 L 234 391 L 230 387 L 230 383 L 232 379 L 235 376 L 235 374 L 237 371 L 237 369 L 239 365 L 239 362 L 238 361 L 238 355 L 239 354 L 239 351 L 241 347 L 241 343 L 242 342 L 242 333 L 243 332 L 245 325 L 244 324 L 241 329 L 240 334 L 235 340 L 235 342 L 231 349 L 231 351 L 229 355 L 226 358 L 223 358 L 222 357 L 215 356 L 210 352 L 210 350 L 209 349 L 203 348 L 202 347 L 198 346 L 192 340 L 191 337 L 189 335 L 180 334 L 179 333 L 177 333 L 170 330 L 167 327 L 167 324 L 169 321 L 169 320 L 167 318 L 163 317 L 158 314 L 153 313 L 147 310 L 141 304 L 141 303 L 143 301 L 145 301 L 145 299 L 142 296 L 142 295 L 137 291 L 130 287 L 114 271 L 114 270 L 111 267 L 101 250 L 101 248 L 99 245 L 99 243 L 97 240 L 97 238 L 94 232 L 79 219 L 78 219 L 75 216 L 70 213 L 59 201 L 55 192 L 54 185 L 55 184 L 56 180 L 58 178 L 60 177 L 65 177 L 66 176 L 64 169 L 61 165 L 61 163 L 60 162 L 60 155 L 61 154 L 61 152 L 67 147 L 72 147 L 80 151 L 82 153 L 84 152 L 81 145 L 81 130 L 82 128 L 86 125 L 91 125 L 99 129 L 104 134 L 105 137 L 110 144 L 111 144 L 111 138 L 112 137 L 112 125 L 116 121 L 121 121 L 123 122 L 130 129 L 133 134 L 135 142 L 137 145 L 139 145 L 146 137 L 148 136 L 154 136 L 159 140 L 163 147 L 163 166 L 162 167 L 162 172 L 160 175 L 159 179 L 160 181 L 173 195 L 173 196 L 177 200 L 180 205 L 187 212 L 190 209 L 192 209 L 200 218 L 201 222 L 203 225 L 203 227 L 209 234 L 212 229 L 212 227 L 214 225 L 215 225 L 220 230 L 223 236 L 224 240 L 227 243 L 228 243 L 231 240 L 233 240 L 237 244 L 240 250 L 243 253 L 245 252 L 245 250 L 248 247 L 254 254 L 262 268 L 266 270 L 269 268 L 269 265 L 267 261 L 262 255 L 259 249 L 253 243 L 251 243 L 247 239 L 245 235 L 245 233 L 239 234 L 235 230 L 235 228 L 234 227 L 234 213 L 233 212 L 228 212 L 225 209 L 225 204 L 226 203 L 226 199 L 227 198 L 227 192 L 224 192 L 222 190 L 222 184 L 224 181 L 226 174 L 223 174 L 220 171 L 220 167 L 222 163 L 225 160 L 230 152 L 230 144 L 231 143 L 231 140 L 238 126 L 238 124 L 236 122 L 228 118 L 222 112 L 219 106 L 219 103 L 218 102 L 218 92 L 219 91 L 220 84 L 225 75 L 232 68 L 238 65 L 240 65 L 244 63 L 255 63 L 265 68 L 272 75 L 273 77 L 275 77 L 279 73 L 299 64 L 300 62 L 305 58 L 313 58 L 314 59 L 319 59 L 320 58 L 319 49 L 321 47 L 327 48 L 335 52 L 337 54 L 340 54 L 342 53 L 349 46 L 353 44 L 355 44 L 358 47 L 358 50 L 356 53 L 356 55 L 357 56 L 377 55 L 378 56 L 384 56 L 385 57 L 388 57 L 389 58 L 395 59 L 398 61 L 401 61 L 405 53 L 414 44 L 415 44 L 417 42 L 421 41 L 422 40 L 425 40 L 426 39 L 436 39 L 437 40 Z" fill="#010101" fill-rule="evenodd"/></svg>