<svg xmlns="http://www.w3.org/2000/svg" viewBox="0 0 653 704" shape-rendering="geometricPrecision"><title>intro frame 109</title><path d="M 470 513 L 458 523 L 454 523 L 445 532 L 441 529 L 436 537 L 433 540 L 431 538 L 428 538 L 425 543 L 421 547 L 417 545 L 412 551 L 404 558 L 403 561 L 393 575 L 390 581 L 390 587 L 389 590 L 392 593 L 392 603 L 391 604 L 391 608 L 392 609 L 394 608 L 396 610 L 395 628 L 396 629 L 399 627 L 402 630 L 402 635 L 403 636 L 403 646 L 402 647 L 401 655 L 400 656 L 400 667 L 406 675 L 408 675 L 411 677 L 414 677 L 417 679 L 420 679 L 421 680 L 435 681 L 436 680 L 436 664 L 440 659 L 444 659 L 448 663 L 448 666 L 449 667 L 449 681 L 450 682 L 467 682 L 469 680 L 469 677 L 468 676 L 468 660 L 470 658 L 475 658 L 479 662 L 481 666 L 481 669 L 482 670 L 482 679 L 483 680 L 491 680 L 495 678 L 495 668 L 494 667 L 493 659 L 497 655 L 502 657 L 504 659 L 508 669 L 508 675 L 509 676 L 511 675 L 515 670 L 515 667 L 516 666 L 515 656 L 512 650 L 506 644 L 496 639 L 487 639 L 486 640 L 459 639 L 458 640 L 452 640 L 451 641 L 439 640 L 433 642 L 431 642 L 429 640 L 431 638 L 436 637 L 442 634 L 451 634 L 452 633 L 467 632 L 468 631 L 470 632 L 480 632 L 483 633 L 482 632 L 482 629 L 480 623 L 483 620 L 483 616 L 485 614 L 487 614 L 490 617 L 490 622 L 491 623 L 492 622 L 492 619 L 485 608 L 483 602 L 485 601 L 490 606 L 493 604 L 493 602 L 484 595 L 481 595 L 465 581 L 467 578 L 469 578 L 485 585 L 488 584 L 488 582 L 486 579 L 480 573 L 474 565 L 474 564 L 477 562 L 485 568 L 489 569 L 486 559 L 482 555 L 470 549 L 471 547 L 480 547 L 481 548 L 484 548 L 485 547 L 477 539 L 477 538 L 479 536 L 483 537 L 487 539 L 487 538 L 477 527 L 476 522 Z M 444 583 L 445 583 L 452 591 L 456 599 L 456 601 L 454 603 L 443 591 L 442 585 Z M 436 579 L 437 580 L 437 589 L 435 593 L 432 595 L 430 592 L 431 591 L 431 588 L 434 580 Z M 409 562 L 411 564 L 410 570 L 409 572 L 404 576 L 402 574 L 402 572 L 404 570 L 405 566 Z M 230 507 L 227 512 L 227 514 L 225 516 L 225 518 L 228 518 L 230 520 L 230 522 L 226 529 L 226 532 L 223 537 L 224 538 L 225 537 L 228 537 L 230 539 L 230 542 L 226 550 L 226 553 L 223 560 L 223 565 L 228 565 L 230 567 L 229 569 L 229 573 L 228 574 L 228 580 L 230 582 L 230 594 L 232 598 L 232 605 L 233 606 L 234 615 L 236 620 L 239 624 L 245 624 L 256 628 L 259 632 L 257 634 L 252 634 L 243 631 L 224 631 L 210 636 L 205 640 L 204 643 L 202 645 L 201 655 L 200 656 L 201 662 L 205 665 L 205 659 L 208 650 L 212 646 L 214 645 L 218 645 L 220 647 L 220 653 L 218 657 L 218 662 L 217 663 L 217 667 L 219 669 L 228 671 L 229 670 L 229 661 L 231 658 L 232 654 L 237 650 L 241 650 L 244 653 L 244 657 L 242 661 L 242 666 L 241 667 L 241 671 L 244 673 L 263 673 L 264 672 L 273 672 L 276 668 L 283 665 L 286 662 L 288 662 L 295 655 L 293 647 L 290 645 L 287 641 L 287 634 L 290 633 L 291 635 L 292 635 L 293 630 L 294 629 L 297 629 L 296 625 L 293 621 L 293 618 L 297 614 L 297 611 L 296 610 L 296 607 L 291 599 L 286 595 L 286 587 L 288 585 L 294 593 L 295 591 L 293 589 L 292 586 L 295 584 L 296 582 L 291 576 L 289 576 L 287 574 L 287 572 L 285 569 L 277 561 L 264 541 L 262 539 L 260 539 L 252 530 L 252 528 L 243 519 L 240 518 Z M 255 585 L 255 583 L 257 581 L 259 581 L 261 583 L 258 587 Z M 268 574 L 271 577 L 275 585 L 275 588 L 273 590 L 269 586 L 266 580 L 266 576 Z M 282 570 L 284 574 L 284 577 L 283 578 L 283 582 L 280 584 L 279 583 L 279 573 L 280 571 Z M 249 565 L 251 567 L 250 571 L 243 576 L 241 573 Z M 467 425 L 466 428 L 471 432 L 472 431 L 471 429 Z M 208 105 L 208 106 L 210 106 L 214 110 L 214 107 L 212 105 Z M 229 103 L 229 106 L 231 112 L 233 114 L 235 112 L 236 108 L 231 103 Z M 149 77 L 154 77 L 155 78 L 156 77 L 153 75 L 150 75 Z M 454 16 L 441 14 L 432 18 L 430 18 L 423 23 L 418 30 L 416 37 L 413 40 L 400 35 L 393 35 L 387 33 L 369 33 L 368 34 L 364 34 L 362 32 L 363 26 L 364 25 L 361 24 L 352 33 L 348 33 L 339 28 L 334 27 L 334 29 L 336 31 L 337 36 L 333 39 L 316 39 L 312 44 L 299 49 L 291 54 L 288 57 L 285 57 L 283 55 L 282 52 L 274 45 L 265 42 L 255 43 L 246 47 L 236 57 L 232 68 L 232 79 L 236 88 L 241 93 L 249 98 L 251 98 L 253 100 L 253 105 L 248 114 L 248 116 L 244 124 L 245 134 L 235 145 L 235 147 L 241 146 L 243 148 L 242 155 L 240 157 L 239 161 L 237 164 L 238 167 L 239 166 L 242 166 L 244 168 L 244 171 L 242 176 L 241 188 L 243 189 L 245 187 L 247 187 L 249 189 L 249 202 L 250 203 L 250 206 L 252 209 L 253 209 L 255 206 L 257 206 L 260 210 L 260 213 L 262 217 L 265 217 L 276 229 L 285 234 L 291 236 L 297 242 L 299 247 L 296 251 L 295 251 L 289 245 L 287 245 L 284 243 L 282 244 L 281 247 L 278 250 L 276 250 L 271 245 L 268 239 L 265 241 L 262 239 L 258 229 L 256 229 L 254 231 L 251 229 L 248 223 L 247 217 L 245 215 L 241 217 L 237 213 L 231 195 L 228 192 L 225 193 L 220 187 L 218 181 L 215 176 L 215 174 L 209 163 L 209 161 L 207 159 L 207 157 L 203 151 L 203 145 L 208 139 L 209 134 L 207 134 L 204 136 L 197 136 L 195 135 L 191 130 L 190 127 L 191 122 L 193 118 L 197 114 L 197 113 L 194 113 L 191 108 L 190 108 L 189 111 L 186 114 L 184 115 L 179 115 L 175 113 L 171 109 L 168 109 L 166 107 L 164 101 L 164 97 L 163 97 L 163 106 L 159 112 L 157 113 L 150 113 L 147 111 L 142 112 L 138 108 L 138 106 L 136 104 L 138 110 L 138 113 L 139 114 L 138 121 L 132 126 L 125 125 L 121 121 L 119 121 L 119 124 L 125 130 L 127 133 L 127 136 L 128 136 L 140 124 L 144 122 L 147 119 L 158 115 L 171 115 L 179 119 L 185 126 L 188 131 L 188 133 L 190 136 L 190 140 L 191 141 L 190 148 L 188 152 L 181 159 L 178 161 L 176 161 L 174 163 L 171 163 L 162 166 L 158 166 L 157 167 L 153 167 L 152 168 L 141 169 L 133 166 L 125 157 L 125 155 L 123 152 L 123 145 L 117 146 L 113 144 L 108 138 L 106 134 L 106 125 L 109 122 L 111 122 L 112 120 L 106 120 L 103 123 L 103 131 L 104 132 L 105 138 L 109 146 L 109 148 L 112 151 L 112 153 L 117 161 L 121 165 L 122 168 L 127 173 L 128 176 L 128 186 L 130 189 L 131 200 L 135 199 L 137 201 L 140 208 L 142 210 L 146 218 L 149 221 L 151 226 L 155 230 L 160 238 L 171 250 L 177 255 L 180 256 L 187 261 L 199 265 L 204 269 L 205 272 L 202 275 L 197 275 L 194 276 L 194 277 L 197 279 L 200 279 L 201 280 L 211 280 L 220 287 L 230 289 L 233 292 L 233 294 L 230 297 L 222 298 L 222 300 L 229 302 L 232 304 L 240 305 L 244 299 L 249 294 L 253 292 L 256 292 L 258 294 L 258 298 L 251 313 L 251 315 L 248 320 L 248 324 L 245 333 L 249 332 L 256 325 L 264 321 L 266 323 L 266 326 L 256 340 L 249 347 L 245 349 L 242 352 L 239 353 L 231 365 L 232 366 L 236 365 L 238 367 L 238 371 L 232 377 L 224 388 L 224 390 L 230 389 L 232 391 L 232 393 L 230 397 L 227 400 L 217 420 L 218 421 L 221 419 L 223 419 L 226 422 L 220 438 L 218 449 L 222 446 L 223 446 L 225 449 L 224 461 L 223 462 L 223 471 L 226 469 L 229 471 L 230 473 L 230 482 L 232 488 L 233 488 L 235 485 L 238 488 L 241 496 L 244 493 L 246 495 L 246 497 L 252 509 L 256 506 L 259 509 L 266 520 L 269 518 L 277 527 L 282 523 L 292 535 L 296 532 L 302 539 L 303 539 L 303 538 L 300 535 L 300 533 L 296 528 L 291 519 L 291 516 L 289 512 L 289 504 L 290 503 L 293 505 L 293 508 L 299 519 L 310 532 L 317 538 L 318 538 L 323 532 L 325 532 L 329 537 L 331 537 L 341 527 L 345 524 L 347 524 L 348 525 L 348 528 L 344 537 L 344 542 L 346 543 L 350 538 L 359 533 L 363 529 L 365 529 L 367 531 L 367 533 L 362 543 L 364 544 L 370 541 L 376 535 L 380 528 L 388 519 L 390 521 L 390 525 L 387 532 L 387 534 L 388 534 L 388 532 L 390 529 L 390 527 L 394 518 L 394 515 L 396 513 L 398 513 L 400 516 L 400 528 L 397 534 L 398 536 L 409 524 L 417 509 L 417 507 L 419 505 L 421 505 L 424 509 L 423 511 L 423 515 L 419 523 L 419 525 L 422 524 L 432 512 L 432 510 L 435 505 L 437 499 L 437 493 L 431 492 L 429 490 L 429 479 L 425 473 L 425 471 L 427 470 L 429 471 L 435 478 L 436 477 L 436 463 L 434 458 L 436 455 L 437 455 L 442 461 L 449 479 L 449 482 L 446 485 L 443 483 L 440 489 L 440 493 L 442 495 L 442 498 L 443 499 L 442 500 L 442 509 L 446 506 L 451 497 L 454 488 L 457 485 L 459 487 L 459 492 L 460 492 L 462 487 L 462 483 L 465 478 L 465 469 L 464 467 L 468 459 L 468 455 L 464 448 L 467 444 L 470 445 L 471 444 L 471 441 L 467 436 L 466 433 L 463 430 L 461 424 L 456 417 L 456 415 L 457 414 L 466 421 L 469 419 L 470 416 L 463 408 L 455 405 L 449 405 L 446 402 L 446 400 L 448 398 L 453 398 L 454 399 L 458 399 L 466 404 L 468 403 L 464 394 L 462 392 L 458 383 L 456 381 L 458 379 L 462 381 L 463 380 L 454 372 L 445 361 L 445 360 L 447 359 L 455 365 L 459 366 L 459 361 L 458 359 L 451 353 L 438 351 L 433 347 L 434 344 L 441 344 L 448 348 L 450 348 L 452 350 L 454 350 L 454 347 L 452 345 L 452 343 L 448 338 L 447 335 L 449 332 L 453 334 L 453 331 L 451 328 L 451 325 L 452 324 L 454 324 L 457 329 L 463 335 L 466 341 L 466 343 L 475 356 L 475 358 L 479 364 L 481 370 L 483 372 L 485 380 L 487 383 L 491 395 L 491 398 L 493 402 L 493 405 L 496 414 L 497 423 L 499 428 L 499 433 L 501 438 L 501 443 L 496 456 L 496 462 L 495 463 L 495 470 L 498 478 L 502 482 L 504 483 L 508 483 L 511 479 L 514 470 L 517 467 L 520 467 L 523 470 L 523 480 L 522 481 L 521 487 L 517 493 L 517 497 L 520 500 L 525 502 L 529 502 L 533 500 L 536 496 L 539 489 L 541 487 L 541 485 L 544 482 L 546 482 L 549 485 L 549 494 L 548 495 L 548 498 L 546 501 L 546 504 L 550 504 L 559 499 L 560 495 L 562 492 L 562 489 L 565 483 L 568 480 L 570 480 L 573 484 L 573 492 L 574 493 L 579 487 L 584 475 L 585 466 L 586 465 L 586 455 L 587 454 L 586 452 L 586 444 L 585 443 L 584 433 L 586 431 L 587 432 L 588 430 L 584 420 L 582 410 L 578 405 L 578 403 L 576 400 L 578 397 L 582 398 L 581 395 L 567 375 L 569 372 L 571 372 L 575 374 L 575 373 L 569 366 L 567 362 L 555 349 L 557 346 L 561 346 L 566 348 L 566 347 L 545 327 L 536 320 L 538 317 L 541 317 L 542 318 L 547 318 L 547 317 L 543 313 L 535 308 L 531 304 L 526 302 L 523 299 L 523 297 L 525 295 L 529 294 L 529 293 L 519 289 L 509 282 L 509 280 L 512 278 L 515 279 L 519 279 L 519 278 L 503 267 L 494 263 L 491 260 L 491 258 L 493 256 L 497 256 L 497 255 L 493 254 L 488 251 L 486 251 L 481 248 L 478 248 L 476 246 L 473 246 L 469 244 L 465 244 L 463 243 L 457 246 L 452 251 L 449 251 L 446 248 L 433 248 L 431 246 L 426 250 L 424 250 L 419 246 L 419 243 L 418 243 L 413 248 L 409 254 L 406 252 L 406 247 L 408 243 L 417 234 L 420 234 L 428 225 L 431 229 L 430 232 L 432 232 L 432 226 L 434 221 L 437 219 L 440 223 L 442 222 L 442 214 L 441 212 L 442 211 L 445 211 L 449 214 L 449 208 L 454 202 L 458 203 L 458 200 L 450 191 L 452 189 L 454 189 L 463 193 L 464 192 L 464 189 L 461 186 L 460 181 L 461 180 L 467 182 L 470 182 L 471 181 L 471 177 L 465 173 L 467 170 L 468 171 L 471 171 L 472 170 L 472 167 L 470 164 L 464 159 L 466 156 L 471 157 L 477 160 L 480 164 L 485 168 L 484 171 L 485 171 L 486 169 L 490 169 L 493 171 L 494 170 L 491 161 L 486 153 L 486 150 L 488 148 L 495 149 L 496 147 L 481 129 L 481 127 L 483 125 L 492 125 L 493 124 L 483 117 L 478 112 L 478 110 L 481 106 L 474 95 L 471 88 L 461 75 L 461 73 L 471 65 L 476 57 L 477 51 L 478 50 L 477 38 L 474 32 L 467 24 Z M 285 511 L 288 515 L 289 518 L 288 520 L 285 518 L 283 514 Z M 265 497 L 268 499 L 270 505 L 268 507 L 264 502 L 264 498 Z M 428 495 L 430 496 L 430 502 L 429 503 L 426 501 Z M 398 492 L 399 495 L 397 497 L 395 497 L 394 495 Z M 407 488 L 409 488 L 413 493 L 414 504 L 411 508 L 408 505 L 410 495 L 406 490 Z M 269 486 L 273 489 L 275 496 L 277 498 L 277 500 L 280 505 L 280 511 L 278 513 L 277 513 L 272 507 L 269 498 L 269 493 L 268 492 L 268 487 Z M 418 466 L 421 465 L 422 467 L 420 469 Z M 272 462 L 274 464 L 274 468 L 272 473 L 269 475 L 268 474 L 268 471 L 269 470 L 270 464 Z M 260 440 L 261 441 L 261 444 L 256 457 L 256 460 L 252 466 L 249 463 L 250 452 L 254 444 L 258 440 Z M 412 423 L 413 422 L 416 422 L 419 424 L 429 424 L 432 425 L 433 428 L 430 430 L 426 430 L 426 432 L 424 434 L 420 434 L 412 425 Z M 258 416 L 260 418 L 254 425 L 252 431 L 249 434 L 246 434 L 244 432 L 244 429 L 246 425 L 251 418 L 255 416 Z M 427 403 L 430 402 L 434 405 L 444 410 L 451 417 L 451 418 L 449 420 L 440 418 L 439 420 L 441 423 L 441 426 L 438 427 L 435 423 L 435 420 L 433 417 L 432 410 L 429 407 Z M 422 394 L 424 392 L 430 393 L 433 397 L 432 398 L 424 397 Z M 435 388 L 437 386 L 440 386 L 443 389 L 444 393 L 443 394 L 438 393 L 435 390 Z M 437 373 L 439 371 L 445 371 L 448 372 L 450 374 L 449 379 L 444 383 L 440 379 Z M 385 370 L 387 368 L 389 368 L 393 370 L 405 379 L 409 379 L 410 380 L 410 386 L 407 388 L 396 378 L 387 373 Z M 492 365 L 495 369 L 494 371 L 491 370 L 491 366 Z M 410 363 L 412 362 L 417 368 L 421 370 L 423 373 L 420 376 L 417 376 L 412 378 L 410 376 Z M 537 356 L 540 355 L 544 357 L 546 360 L 545 361 L 540 360 Z M 422 350 L 425 348 L 427 350 L 427 352 L 425 353 Z M 431 312 L 436 316 L 439 321 L 439 328 L 441 332 L 439 335 L 436 331 L 432 331 L 424 327 L 425 325 L 428 325 L 429 326 L 433 325 L 436 327 L 436 325 L 430 315 Z M 375 310 L 378 314 L 378 316 L 376 318 L 373 314 L 373 311 Z M 503 309 L 505 307 L 507 307 L 508 308 L 511 308 L 512 310 L 511 311 L 505 311 Z M 324 304 L 325 306 L 321 310 L 318 311 L 316 309 L 322 304 Z M 433 299 L 436 298 L 440 302 L 441 305 L 438 307 L 434 303 Z M 385 292 L 388 294 L 390 301 L 393 305 L 393 308 L 395 312 L 395 317 L 393 320 L 386 319 L 383 317 L 379 312 L 379 310 L 382 309 L 389 316 L 390 316 L 392 313 L 391 308 L 382 298 L 382 296 Z M 313 290 L 315 292 L 309 300 L 307 300 L 306 299 L 307 294 Z M 422 287 L 424 289 L 424 294 L 423 296 L 424 297 L 424 302 L 427 306 L 427 310 L 423 313 L 423 316 L 420 319 L 415 319 L 413 316 L 420 311 L 422 308 L 422 302 L 417 297 L 420 293 L 420 289 Z M 424 282 L 427 280 L 429 283 L 426 285 Z M 260 270 L 262 272 L 257 277 L 260 279 L 260 281 L 255 285 L 250 287 L 249 286 L 253 280 L 253 275 L 257 271 Z M 413 265 L 413 263 L 417 260 L 421 260 L 422 262 L 417 266 L 414 266 Z M 260 262 L 263 259 L 269 259 L 271 261 L 271 262 L 267 265 L 262 264 Z M 265 251 L 267 249 L 269 249 L 271 250 L 273 253 L 271 255 L 269 255 L 267 254 Z M 402 244 L 402 247 L 396 256 L 395 256 L 387 264 L 376 272 L 373 273 L 367 278 L 363 277 L 360 279 L 351 279 L 349 277 L 342 274 L 333 268 L 321 256 L 321 252 L 324 249 L 333 250 L 334 251 L 340 251 L 341 252 L 356 252 L 357 251 L 362 251 L 363 250 L 382 247 L 396 242 L 400 242 Z M 389 127 L 394 121 L 401 118 L 404 118 L 405 117 L 418 117 L 419 118 L 424 118 L 433 122 L 439 128 L 440 130 L 440 137 L 433 145 L 428 147 L 422 147 L 421 148 L 408 147 L 396 142 L 391 137 L 389 134 Z M 310 111 L 314 107 L 320 104 L 334 103 L 340 106 L 342 106 L 347 112 L 344 115 L 341 115 L 333 112 L 322 112 L 321 113 L 312 114 Z M 293 97 L 298 98 L 301 101 L 303 106 L 303 113 L 301 118 L 298 122 L 303 120 L 307 120 L 308 119 L 320 119 L 321 120 L 324 120 L 334 124 L 339 129 L 340 131 L 340 138 L 339 141 L 331 150 L 319 156 L 316 156 L 315 157 L 306 157 L 295 152 L 290 147 L 287 141 L 286 141 L 286 145 L 285 146 L 285 156 L 287 160 L 292 165 L 296 167 L 303 167 L 312 161 L 317 161 L 318 162 L 322 162 L 328 164 L 333 164 L 334 165 L 345 165 L 349 163 L 352 163 L 358 161 L 367 156 L 372 150 L 373 146 L 375 144 L 379 144 L 385 151 L 386 154 L 386 163 L 387 164 L 387 182 L 386 183 L 386 188 L 385 189 L 383 200 L 377 213 L 372 220 L 357 231 L 351 233 L 346 233 L 345 234 L 343 233 L 338 233 L 324 225 L 313 214 L 302 198 L 297 187 L 295 177 L 286 173 L 278 165 L 274 155 L 274 148 L 273 148 L 273 149 L 264 158 L 259 160 L 252 159 L 246 152 L 246 145 L 247 142 L 253 136 L 263 131 L 272 131 L 279 137 L 280 136 L 284 136 L 286 137 L 286 131 L 288 129 L 289 126 L 288 126 L 283 120 L 283 111 L 286 103 Z M 377 90 L 383 91 L 388 96 L 390 99 L 390 102 L 391 103 L 391 111 L 390 112 L 390 115 L 388 119 L 384 123 L 376 123 L 371 119 L 368 111 L 368 102 L 371 95 Z M 308 63 L 308 66 L 305 70 L 300 71 L 291 78 L 287 78 L 284 75 L 284 70 L 296 59 L 302 58 Z M 265 57 L 268 58 L 275 65 L 275 68 L 258 91 L 255 91 L 246 83 L 244 79 L 244 70 L 247 64 L 252 59 L 257 57 Z M 368 53 L 373 48 L 382 48 L 385 50 L 387 50 L 394 56 L 395 58 L 395 64 L 391 67 L 387 66 L 379 61 L 376 61 L 371 59 L 368 56 Z M 444 30 L 449 30 L 457 34 L 462 39 L 465 45 L 465 54 L 462 59 L 454 66 L 451 65 L 442 56 L 433 51 L 430 48 L 430 42 L 433 37 L 439 32 Z" fill="#FBFBFB" fill-rule="evenodd"/><path d="M 219 651 L 216 660 L 216 668 L 220 671 L 224 671 L 225 672 L 229 672 L 230 671 L 230 662 L 233 655 L 237 651 L 241 651 L 243 653 L 243 657 L 241 661 L 241 666 L 241 661 L 243 657 L 243 653 L 241 651 L 237 651 L 233 654 L 232 658 L 230 661 L 230 670 L 228 672 L 219 670 L 216 667 L 217 657 Z M 444 584 L 443 585 L 444 591 L 454 602 L 455 599 L 449 588 Z M 259 582 L 256 583 L 257 586 L 260 584 Z M 436 580 L 435 580 L 432 588 L 432 591 L 431 592 L 432 594 L 434 593 L 436 589 Z M 268 575 L 267 576 L 268 583 L 273 589 L 274 588 L 274 585 L 270 577 Z M 282 571 L 281 571 L 280 573 L 280 583 L 282 582 L 282 578 L 283 577 Z M 249 566 L 242 573 L 243 575 L 249 571 L 250 569 Z M 409 563 L 406 566 L 405 570 L 403 572 L 404 575 L 405 575 L 409 570 L 410 567 L 410 564 Z M 222 561 L 222 565 L 221 567 L 222 568 L 224 566 L 227 566 L 228 567 L 228 573 L 227 574 L 226 581 L 229 584 L 229 594 L 230 596 L 229 594 L 229 582 L 227 580 L 227 574 L 228 573 L 228 569 L 229 567 L 228 566 L 223 566 L 222 565 Z M 285 512 L 284 514 L 286 518 L 288 519 L 287 515 Z M 265 498 L 265 502 L 268 506 L 269 505 L 267 499 Z M 407 489 L 411 495 L 410 497 L 410 501 L 409 502 L 409 505 L 411 507 L 413 504 L 412 493 L 409 489 Z M 269 487 L 270 498 L 274 509 L 278 512 L 279 511 L 279 505 L 276 500 L 276 498 L 274 496 L 272 489 Z M 271 493 L 274 495 L 278 504 L 278 507 L 277 508 L 274 506 L 271 500 L 271 496 L 270 495 Z M 515 495 L 520 501 L 525 503 L 530 503 L 536 498 L 542 487 L 542 485 L 544 483 L 546 483 L 548 485 L 548 494 L 548 485 L 546 483 L 544 483 L 542 485 L 542 487 L 540 489 L 535 499 L 529 503 L 522 502 L 516 497 L 516 493 L 520 487 L 521 482 L 519 489 Z M 584 476 L 584 478 L 580 487 L 574 494 L 572 492 L 572 484 L 570 481 L 568 481 L 566 483 L 563 489 L 563 492 L 561 495 L 561 497 L 558 501 L 555 502 L 553 504 L 546 505 L 545 504 L 545 501 L 547 498 L 547 496 L 547 498 L 544 504 L 545 505 L 552 505 L 556 503 L 562 496 L 565 485 L 568 481 L 572 484 L 572 493 L 571 496 L 574 495 L 580 487 L 584 478 Z M 272 463 L 270 467 L 269 474 L 271 473 L 273 468 L 273 464 Z M 260 441 L 258 441 L 255 444 L 251 452 L 250 463 L 252 465 L 255 460 L 255 457 L 260 444 Z M 256 447 L 257 448 L 255 454 L 253 455 L 252 454 L 254 448 Z M 413 423 L 413 425 L 420 433 L 424 433 L 426 429 L 430 429 L 432 428 L 432 426 L 429 425 L 419 425 L 416 423 Z M 258 417 L 255 417 L 251 419 L 245 429 L 245 432 L 246 433 L 249 433 L 251 431 L 253 425 L 259 418 Z M 428 403 L 430 407 L 433 410 L 434 417 L 438 426 L 440 426 L 440 423 L 438 420 L 440 417 L 442 418 L 447 418 L 448 419 L 450 418 L 450 417 L 444 411 L 434 406 L 432 404 Z M 435 411 L 437 409 L 441 411 L 442 413 L 441 414 L 438 414 Z M 423 394 L 424 396 L 432 397 L 430 394 L 427 394 L 426 393 Z M 436 388 L 436 390 L 438 392 L 443 393 L 443 391 L 440 387 L 437 387 Z M 439 372 L 438 374 L 441 379 L 444 382 L 448 379 L 449 374 L 445 372 Z M 386 370 L 387 372 L 396 377 L 404 385 L 407 387 L 409 386 L 409 380 L 405 380 L 393 371 L 389 369 Z M 411 363 L 411 376 L 413 377 L 417 375 L 420 375 L 422 372 L 417 369 L 413 364 Z M 538 356 L 540 359 L 545 360 L 544 358 Z M 557 347 L 556 349 L 568 362 L 570 366 L 576 373 L 575 375 L 571 373 L 569 373 L 568 375 L 582 395 L 583 398 L 582 399 L 580 398 L 577 399 L 579 405 L 582 409 L 578 401 L 579 400 L 584 401 L 584 399 L 581 393 L 569 376 L 571 374 L 577 376 L 577 374 L 557 349 L 558 347 L 564 348 Z M 454 325 L 452 325 L 452 328 L 454 331 L 454 334 L 452 335 L 449 333 L 448 335 L 449 338 L 452 341 L 453 345 L 455 347 L 455 350 L 452 351 L 450 349 L 448 349 L 441 345 L 434 345 L 434 347 L 438 350 L 448 351 L 453 353 L 460 361 L 460 366 L 457 367 L 449 361 L 446 360 L 455 372 L 464 380 L 462 382 L 459 380 L 457 381 L 459 383 L 469 403 L 466 405 L 458 400 L 454 400 L 453 399 L 448 399 L 447 402 L 449 404 L 455 404 L 463 407 L 470 414 L 471 417 L 467 422 L 464 421 L 457 415 L 457 417 L 462 424 L 464 430 L 471 439 L 472 444 L 470 446 L 467 445 L 465 448 L 469 455 L 469 459 L 465 467 L 466 469 L 466 478 L 463 483 L 462 490 L 461 492 L 459 493 L 458 492 L 458 487 L 457 486 L 455 488 L 450 501 L 448 503 L 447 506 L 443 510 L 441 509 L 441 500 L 442 499 L 441 498 L 441 495 L 439 493 L 439 489 L 441 484 L 443 482 L 445 484 L 448 482 L 448 479 L 444 467 L 441 461 L 437 456 L 435 457 L 437 463 L 437 477 L 435 479 L 429 472 L 426 471 L 426 473 L 430 479 L 430 490 L 438 493 L 438 499 L 436 505 L 433 510 L 433 512 L 428 519 L 422 525 L 420 526 L 418 525 L 423 510 L 422 507 L 419 506 L 410 524 L 398 537 L 396 534 L 399 528 L 399 516 L 398 514 L 396 514 L 395 515 L 395 518 L 388 535 L 386 534 L 389 525 L 389 521 L 388 520 L 381 528 L 377 535 L 370 542 L 364 545 L 361 543 L 366 533 L 366 531 L 363 530 L 359 534 L 350 539 L 348 542 L 345 544 L 343 542 L 343 537 L 345 534 L 347 528 L 347 525 L 345 525 L 341 528 L 331 538 L 329 538 L 325 533 L 323 533 L 322 535 L 317 539 L 309 532 L 298 519 L 292 508 L 292 505 L 290 504 L 290 512 L 292 516 L 292 519 L 297 528 L 301 533 L 301 535 L 304 538 L 304 539 L 302 540 L 296 533 L 292 536 L 282 524 L 277 528 L 269 519 L 266 521 L 263 518 L 262 515 L 256 507 L 252 510 L 250 508 L 244 494 L 241 497 L 239 495 L 238 490 L 235 486 L 233 489 L 231 488 L 229 482 L 229 473 L 227 470 L 224 472 L 222 471 L 222 462 L 223 461 L 224 449 L 223 447 L 219 450 L 217 449 L 217 452 L 221 449 L 224 451 L 223 454 L 223 461 L 222 462 L 222 474 L 225 472 L 228 474 L 229 476 L 230 486 L 236 499 L 236 503 L 234 505 L 229 505 L 228 509 L 224 517 L 222 519 L 223 520 L 226 519 L 228 521 L 228 525 L 226 528 L 228 525 L 229 520 L 228 519 L 225 519 L 224 516 L 226 514 L 226 512 L 230 506 L 240 517 L 243 518 L 253 528 L 253 530 L 257 535 L 265 541 L 278 561 L 286 569 L 288 572 L 288 574 L 291 575 L 297 582 L 297 583 L 293 586 L 294 589 L 296 591 L 294 594 L 291 591 L 288 586 L 287 587 L 287 595 L 292 599 L 296 605 L 298 611 L 298 614 L 294 618 L 294 621 L 296 623 L 298 629 L 297 630 L 294 630 L 292 636 L 291 636 L 290 634 L 288 634 L 288 641 L 290 644 L 294 647 L 296 655 L 288 663 L 286 663 L 283 666 L 276 669 L 273 673 L 264 673 L 263 674 L 244 674 L 241 672 L 244 674 L 268 674 L 269 673 L 278 673 L 279 672 L 287 672 L 293 670 L 306 669 L 307 668 L 314 667 L 320 664 L 324 659 L 325 656 L 325 638 L 323 633 L 323 629 L 326 626 L 328 628 L 330 628 L 330 625 L 331 624 L 331 611 L 330 610 L 329 596 L 331 594 L 336 596 L 336 585 L 337 584 L 337 581 L 339 575 L 337 573 L 334 573 L 325 570 L 311 563 L 308 559 L 311 555 L 316 555 L 330 560 L 334 560 L 335 561 L 339 561 L 345 563 L 353 563 L 354 564 L 376 563 L 380 561 L 384 562 L 387 565 L 387 568 L 383 572 L 381 572 L 380 575 L 384 583 L 384 587 L 386 591 L 386 594 L 389 593 L 391 595 L 391 603 L 391 593 L 388 590 L 389 587 L 389 581 L 392 575 L 402 561 L 403 558 L 409 553 L 417 544 L 421 546 L 428 537 L 431 537 L 433 539 L 441 528 L 445 531 L 454 522 L 458 522 L 470 512 L 475 518 L 478 527 L 488 538 L 487 540 L 480 537 L 478 538 L 478 539 L 486 547 L 484 549 L 481 549 L 480 548 L 471 548 L 471 549 L 482 554 L 487 559 L 490 569 L 487 570 L 477 563 L 475 564 L 476 567 L 489 582 L 489 584 L 487 586 L 482 585 L 469 579 L 467 579 L 466 581 L 481 594 L 484 594 L 494 602 L 494 604 L 491 607 L 484 602 L 486 608 L 493 619 L 493 622 L 491 624 L 489 622 L 489 617 L 487 615 L 485 615 L 484 616 L 484 620 L 481 623 L 483 629 L 483 632 L 484 633 L 483 634 L 480 633 L 470 633 L 469 632 L 467 633 L 458 633 L 457 634 L 452 634 L 451 635 L 442 635 L 430 640 L 431 641 L 438 640 L 439 639 L 451 640 L 447 640 L 446 637 L 449 635 L 453 635 L 459 633 L 476 633 L 485 636 L 484 639 L 476 639 L 496 638 L 501 641 L 496 637 L 496 635 L 499 632 L 501 627 L 502 617 L 503 616 L 503 606 L 504 605 L 504 591 L 503 590 L 502 583 L 505 580 L 500 570 L 502 568 L 504 568 L 508 571 L 509 570 L 505 562 L 505 559 L 499 547 L 497 545 L 497 543 L 499 541 L 503 542 L 505 544 L 507 544 L 504 534 L 501 529 L 499 523 L 501 520 L 504 521 L 505 520 L 504 512 L 503 511 L 503 500 L 500 497 L 494 494 L 489 489 L 485 483 L 482 474 L 482 458 L 487 443 L 487 437 L 486 436 L 484 422 L 483 421 L 482 413 L 480 408 L 480 404 L 479 403 L 479 400 L 477 396 L 476 390 L 474 387 L 472 380 L 466 369 L 466 367 L 457 351 L 456 346 L 459 343 L 461 343 L 466 348 L 480 370 L 482 377 L 487 387 L 490 396 L 490 399 L 493 406 L 494 413 L 495 414 L 495 417 L 495 414 L 494 413 L 492 402 L 490 398 L 490 395 L 486 383 L 484 380 L 482 372 L 480 370 L 480 368 L 476 362 L 474 356 L 465 343 L 465 341 L 462 335 L 456 329 Z M 479 568 L 480 567 L 483 568 L 487 573 L 485 574 L 481 571 Z M 481 551 L 483 550 L 485 551 L 486 553 L 483 554 Z M 363 533 L 364 536 L 360 539 L 359 536 Z M 386 526 L 387 527 L 386 530 L 382 533 L 381 531 L 383 528 Z M 271 521 L 285 539 L 283 541 L 281 540 L 271 529 L 269 525 L 269 523 Z M 397 518 L 398 519 L 398 528 L 395 530 L 393 526 L 395 522 L 395 519 Z M 258 514 L 261 515 L 270 528 L 268 530 L 263 526 L 259 520 L 257 515 Z M 293 513 L 296 516 L 297 519 L 302 526 L 309 534 L 307 536 L 304 535 L 297 526 L 292 517 L 292 514 Z M 420 508 L 422 510 L 422 514 L 417 524 L 417 527 L 414 528 L 412 525 L 414 522 L 418 510 Z M 438 506 L 439 509 L 437 513 L 433 517 L 432 516 L 433 512 L 435 508 Z M 244 498 L 246 499 L 250 508 L 250 510 L 252 513 L 250 516 L 247 514 L 243 504 L 243 499 Z M 456 491 L 457 492 L 457 495 L 454 497 L 453 496 L 454 493 Z M 437 459 L 440 461 L 444 471 L 444 474 L 443 475 L 438 471 L 438 466 L 436 460 Z M 467 424 L 473 431 L 471 433 L 465 428 L 465 426 Z M 431 313 L 431 315 L 435 321 L 437 327 L 436 328 L 433 326 L 431 327 L 425 326 L 425 327 L 427 327 L 432 330 L 436 330 L 439 334 L 440 332 L 438 328 L 438 321 L 435 316 Z M 374 311 L 374 314 L 376 317 L 377 314 L 376 312 Z M 324 305 L 322 305 L 317 309 L 318 310 L 321 309 Z M 532 304 L 535 307 L 543 312 L 548 317 L 547 319 L 538 318 L 537 320 L 545 326 L 560 341 L 561 341 L 567 347 L 567 349 L 569 348 L 567 347 L 553 333 L 552 333 L 539 321 L 541 318 L 542 319 L 550 319 L 550 318 Z M 434 299 L 435 303 L 439 306 L 440 305 L 439 302 L 436 299 Z M 385 293 L 383 296 L 383 298 L 392 308 L 393 313 L 392 315 L 389 317 L 382 310 L 380 310 L 380 312 L 381 314 L 386 318 L 393 319 L 394 317 L 394 312 L 392 308 L 392 305 L 389 301 L 387 294 Z M 313 291 L 308 294 L 307 299 L 309 299 L 311 297 L 314 292 Z M 422 288 L 421 289 L 421 293 L 418 297 L 423 302 L 423 308 L 420 312 L 414 316 L 415 318 L 420 318 L 422 316 L 422 313 L 426 310 L 426 306 L 423 302 L 423 297 L 422 296 L 423 294 L 423 289 Z M 260 271 L 257 272 L 254 275 L 254 280 L 250 286 L 255 284 L 259 281 L 259 279 L 256 277 L 261 272 Z M 421 261 L 417 261 L 414 263 L 414 265 L 419 264 Z M 261 262 L 267 264 L 269 263 L 270 261 L 269 260 L 263 260 Z M 266 251 L 266 252 L 269 254 L 272 253 L 272 252 L 269 250 Z M 401 244 L 400 243 L 396 243 L 382 248 L 378 248 L 377 249 L 368 250 L 362 252 L 357 252 L 356 253 L 341 253 L 340 252 L 334 252 L 333 251 L 324 250 L 322 252 L 322 256 L 333 267 L 342 273 L 349 276 L 351 278 L 360 278 L 363 276 L 367 277 L 373 272 L 376 271 L 387 263 L 395 255 L 396 255 L 401 247 Z M 367 253 L 366 255 L 360 257 L 354 257 L 353 258 L 349 258 L 348 257 L 349 255 L 352 254 L 359 254 L 365 252 Z M 328 253 L 331 252 L 337 254 L 343 254 L 345 256 L 343 258 L 340 257 L 334 257 L 333 256 L 330 256 Z M 323 253 L 326 252 L 329 258 L 342 268 L 346 269 L 348 271 L 356 272 L 357 273 L 365 272 L 368 269 L 370 269 L 385 258 L 389 256 L 391 257 L 386 261 L 385 263 L 381 265 L 374 271 L 371 272 L 367 276 L 362 275 L 358 278 L 355 278 L 338 270 L 334 267 L 323 256 Z M 250 207 L 252 211 L 254 211 L 255 208 L 258 209 L 260 216 L 263 219 L 266 220 L 278 234 L 281 240 L 281 245 L 278 248 L 275 248 L 272 245 L 269 238 L 267 237 L 266 239 L 264 239 L 262 237 L 260 232 L 264 240 L 268 238 L 270 240 L 272 245 L 276 249 L 278 249 L 283 242 L 289 244 L 295 250 L 297 249 L 298 246 L 296 242 L 291 237 L 285 235 L 276 230 L 265 218 L 262 218 L 260 216 L 259 210 L 257 207 L 255 207 L 253 210 L 252 210 Z M 286 239 L 289 238 L 292 240 L 297 246 L 295 248 L 289 242 L 288 242 Z M 128 187 L 128 191 L 129 192 L 130 202 L 132 206 L 132 209 L 136 218 L 136 220 L 143 234 L 151 246 L 165 260 L 165 263 L 163 265 L 158 265 L 156 264 L 155 265 L 156 267 L 165 275 L 181 283 L 184 286 L 184 288 L 182 290 L 176 291 L 175 292 L 180 296 L 182 296 L 192 301 L 200 303 L 203 307 L 199 310 L 198 312 L 207 316 L 211 316 L 217 318 L 219 320 L 219 322 L 215 325 L 220 328 L 232 332 L 236 323 L 240 318 L 244 318 L 247 321 L 247 324 L 241 341 L 239 352 L 229 366 L 230 367 L 235 366 L 237 368 L 237 370 L 221 390 L 222 392 L 229 390 L 231 393 L 222 407 L 216 420 L 217 423 L 220 421 L 223 421 L 224 422 L 224 426 L 222 429 L 220 437 L 225 422 L 223 420 L 221 420 L 218 422 L 216 420 L 226 400 L 229 397 L 231 393 L 230 390 L 224 391 L 223 388 L 231 377 L 237 371 L 237 367 L 236 366 L 232 367 L 230 365 L 238 353 L 249 346 L 255 340 L 265 326 L 265 323 L 264 322 L 256 326 L 249 333 L 247 334 L 244 333 L 247 324 L 247 320 L 256 301 L 257 294 L 256 293 L 253 293 L 249 295 L 240 306 L 236 306 L 224 302 L 221 300 L 222 297 L 230 296 L 232 294 L 232 292 L 230 290 L 220 288 L 211 281 L 201 281 L 195 279 L 193 276 L 197 274 L 202 274 L 204 272 L 203 269 L 199 266 L 187 262 L 185 260 L 177 256 L 167 247 L 150 226 L 148 221 L 145 218 L 144 215 L 139 208 L 135 200 L 132 201 L 130 200 L 130 195 L 129 194 L 129 189 Z M 263 323 L 264 326 L 255 339 L 249 345 L 248 345 L 247 343 L 251 337 L 250 334 L 251 332 L 259 325 Z M 255 293 L 257 295 L 257 297 L 253 305 L 253 307 L 249 315 L 247 317 L 245 315 L 245 312 L 247 310 L 251 300 L 250 300 L 246 305 L 244 304 L 244 302 L 250 295 Z M 216 289 L 219 288 L 223 290 L 227 290 L 231 293 L 227 296 L 223 296 L 221 297 L 220 296 L 221 294 Z M 189 266 L 190 265 L 193 265 L 198 268 L 200 268 L 202 271 L 200 273 L 197 273 Z M 181 262 L 184 261 L 186 263 L 183 264 Z M 174 258 L 177 257 L 182 261 L 179 262 Z M 220 146 L 219 148 L 220 152 L 224 160 L 226 160 L 226 157 L 222 153 L 221 151 L 221 146 Z M 379 145 L 375 145 L 374 147 L 376 145 L 378 145 L 382 149 L 385 156 L 385 165 L 386 166 L 386 178 L 385 179 L 385 186 L 382 195 L 382 199 L 376 212 L 367 222 L 355 230 L 352 230 L 347 232 L 341 232 L 332 228 L 330 228 L 312 211 L 305 201 L 300 191 L 303 198 L 314 214 L 324 224 L 330 228 L 338 232 L 343 232 L 344 233 L 346 232 L 351 232 L 359 229 L 362 226 L 370 221 L 376 213 L 382 200 L 382 197 L 385 188 L 385 183 L 386 182 L 385 154 L 383 149 Z M 247 145 L 247 152 L 248 154 L 252 158 L 259 159 L 264 157 L 273 147 L 275 148 L 275 155 L 276 143 L 281 137 L 283 137 L 285 139 L 285 145 L 285 141 L 287 140 L 291 147 L 295 151 L 299 153 L 291 147 L 287 140 L 287 138 L 284 137 L 280 137 L 279 138 L 272 132 L 263 132 L 256 135 L 248 142 Z M 276 137 L 276 139 L 273 144 L 271 143 L 272 141 L 272 138 L 271 137 L 261 137 L 259 138 L 258 141 L 255 142 L 253 145 L 259 150 L 259 152 L 263 152 L 266 149 L 268 150 L 260 158 L 251 157 L 249 155 L 247 151 L 247 146 L 255 137 L 259 136 L 263 133 L 272 133 Z M 390 127 L 390 134 L 396 141 L 408 146 L 414 146 L 415 147 L 428 146 L 433 144 L 439 137 L 439 130 L 438 128 L 433 123 L 424 119 L 419 119 L 418 118 L 405 118 L 394 122 Z M 390 128 L 394 123 L 402 119 L 406 119 L 407 118 L 424 119 L 431 122 L 436 126 L 439 130 L 439 137 L 436 141 L 426 146 L 413 146 L 412 145 L 407 145 L 396 140 L 391 135 L 390 133 Z M 247 115 L 243 124 L 244 134 L 235 143 L 232 148 L 235 149 L 240 147 L 242 149 L 242 152 L 236 163 L 235 169 L 238 169 L 239 168 L 242 169 L 240 188 L 242 191 L 245 189 L 248 190 L 248 201 L 248 189 L 245 188 L 242 190 L 240 188 L 241 176 L 242 175 L 243 168 L 242 167 L 239 167 L 238 168 L 236 166 L 238 159 L 241 155 L 242 148 L 241 147 L 238 147 L 237 148 L 234 147 L 234 145 L 237 141 L 244 134 L 243 124 Z M 311 111 L 312 113 L 316 113 L 322 111 L 333 111 L 341 114 L 344 114 L 346 112 L 342 107 L 340 107 L 334 104 L 320 105 L 314 108 Z M 318 109 L 322 106 L 333 106 L 334 107 L 338 107 L 344 111 L 342 113 L 334 110 L 319 110 Z M 298 99 L 297 99 L 300 101 L 302 106 L 302 113 L 300 118 L 293 125 L 288 125 L 285 122 L 284 120 L 284 111 L 284 120 L 285 122 L 290 126 L 289 129 L 287 131 L 287 133 L 287 131 L 294 124 L 303 121 L 306 121 L 303 121 L 299 123 L 297 122 L 300 118 L 302 113 L 302 106 L 300 101 Z M 203 82 L 205 93 L 217 93 L 227 102 L 230 111 L 230 123 L 225 135 L 225 137 L 226 137 L 231 132 L 231 124 L 232 123 L 233 117 L 237 110 L 237 107 L 227 99 L 223 93 L 221 87 L 221 91 L 224 94 L 222 96 L 218 93 L 207 93 L 205 91 Z M 230 127 L 231 128 L 231 131 L 229 134 L 227 135 L 226 132 L 228 128 Z M 229 102 L 231 102 L 237 108 L 236 112 L 233 115 L 230 112 L 228 106 L 228 103 Z M 119 81 L 114 83 L 110 86 L 106 91 L 104 96 L 104 106 L 102 108 L 97 110 L 92 115 L 90 119 L 90 134 L 91 135 L 91 139 L 93 145 L 95 148 L 96 152 L 98 154 L 99 158 L 102 161 L 102 163 L 115 182 L 115 193 L 116 194 L 117 204 L 125 228 L 134 244 L 142 254 L 143 258 L 143 255 L 134 244 L 123 223 L 118 208 L 117 200 L 116 199 L 116 194 L 115 193 L 115 181 L 108 172 L 104 164 L 99 157 L 94 147 L 91 138 L 91 135 L 90 134 L 90 120 L 91 117 L 97 110 L 104 107 L 104 97 L 105 96 L 105 93 L 114 83 Z M 255 75 L 254 76 L 259 80 L 260 79 L 257 77 L 257 75 Z M 118 95 L 117 97 L 117 101 L 118 101 L 118 99 L 122 95 L 126 95 L 132 101 L 138 114 L 137 116 L 137 120 L 132 124 L 127 124 L 121 119 L 119 119 L 117 121 L 113 119 L 105 119 L 102 123 L 102 132 L 109 150 L 119 166 L 126 174 L 127 177 L 127 185 L 127 176 L 126 173 L 121 168 L 120 165 L 116 161 L 111 153 L 111 151 L 108 148 L 108 146 L 106 143 L 102 131 L 102 123 L 106 119 L 112 119 L 113 120 L 111 123 L 109 123 L 107 125 L 107 134 L 113 143 L 117 145 L 120 145 L 121 144 L 124 145 L 124 152 L 126 155 L 126 157 L 133 165 L 137 167 L 145 168 L 146 167 L 152 167 L 153 166 L 157 166 L 158 165 L 162 165 L 163 164 L 167 164 L 171 162 L 174 162 L 176 160 L 178 160 L 181 158 L 187 152 L 190 144 L 189 136 L 187 133 L 187 131 L 179 120 L 171 116 L 158 116 L 147 120 L 144 123 L 140 125 L 128 137 L 126 136 L 126 133 L 124 130 L 118 124 L 118 121 L 119 120 L 121 120 L 125 124 L 128 125 L 132 125 L 137 121 L 138 114 L 135 106 L 136 103 L 142 111 L 144 110 L 147 110 L 150 112 L 157 112 L 159 111 L 162 106 L 162 97 L 164 96 L 165 97 L 165 101 L 167 107 L 168 108 L 171 108 L 175 112 L 179 114 L 184 114 L 188 111 L 189 108 L 191 107 L 194 112 L 197 112 L 198 113 L 192 122 L 191 125 L 193 132 L 197 135 L 204 135 L 207 133 L 210 134 L 209 139 L 204 145 L 204 151 L 207 155 L 208 159 L 210 161 L 210 163 L 216 174 L 216 176 L 219 181 L 221 187 L 225 192 L 228 191 L 231 194 L 229 190 L 225 191 L 221 187 L 218 178 L 211 164 L 211 162 L 204 150 L 204 146 L 210 139 L 216 126 L 216 123 L 217 122 L 217 111 L 214 105 L 212 104 L 208 104 L 203 107 L 199 111 L 195 112 L 193 110 L 192 107 L 192 92 L 191 91 L 191 85 L 190 82 L 186 78 L 183 78 L 180 80 L 180 82 L 183 82 L 187 86 L 189 92 L 189 98 L 190 99 L 189 101 L 189 108 L 188 110 L 183 114 L 178 113 L 171 105 L 169 107 L 166 105 L 166 100 L 165 99 L 165 94 L 164 93 L 163 85 L 160 79 L 155 74 L 150 74 L 148 75 L 144 80 L 144 84 L 145 84 L 148 80 L 152 79 L 157 83 L 160 89 L 160 93 L 161 94 L 161 107 L 157 111 L 155 112 L 148 110 L 146 107 L 145 107 L 142 111 L 139 108 L 139 106 L 134 96 L 129 91 L 122 91 Z M 111 123 L 115 123 L 124 131 L 125 133 L 125 139 L 121 144 L 116 144 L 108 135 L 107 133 L 107 126 Z M 176 119 L 184 127 L 188 134 L 188 137 L 189 138 L 189 146 L 188 149 L 180 158 L 175 161 L 169 163 L 166 163 L 161 165 L 157 165 L 156 166 L 152 166 L 151 167 L 138 167 L 134 165 L 127 158 L 124 150 L 125 144 L 128 138 L 142 124 L 150 119 L 156 117 L 159 117 L 160 116 L 167 116 Z M 210 108 L 213 111 L 213 123 L 212 126 L 209 130 L 204 134 L 201 135 L 196 134 L 192 129 L 192 123 L 194 119 L 203 110 L 207 108 Z M 207 105 L 208 104 L 212 104 L 215 107 L 215 110 L 214 111 L 210 107 L 208 107 Z M 121 92 L 122 91 L 127 91 L 129 92 L 130 94 L 129 95 L 122 94 Z M 183 79 L 185 78 L 187 81 L 185 82 Z M 148 76 L 150 74 L 153 74 L 157 77 L 155 79 L 154 78 L 149 78 Z M 268 59 L 265 58 L 257 58 L 254 59 L 248 64 L 245 70 L 245 79 L 247 83 L 255 90 L 258 90 L 274 68 L 274 65 Z M 266 60 L 273 66 L 267 74 L 265 79 L 261 83 L 260 86 L 258 88 L 254 88 L 248 83 L 246 79 L 246 70 L 249 65 L 254 60 L 257 60 L 258 59 L 260 60 L 262 59 Z M 478 51 L 478 54 L 475 61 L 469 68 L 465 70 L 462 73 L 462 75 L 472 88 L 475 95 L 482 106 L 479 110 L 479 112 L 494 124 L 492 126 L 483 126 L 482 129 L 497 147 L 495 150 L 492 149 L 488 149 L 487 150 L 487 153 L 492 161 L 495 170 L 493 172 L 490 170 L 486 170 L 486 171 L 484 172 L 483 171 L 484 168 L 481 166 L 477 161 L 471 158 L 466 157 L 465 159 L 467 160 L 473 167 L 473 170 L 471 172 L 468 172 L 467 171 L 466 172 L 467 174 L 470 175 L 472 177 L 472 181 L 470 183 L 467 183 L 461 181 L 461 184 L 465 189 L 465 192 L 463 194 L 454 190 L 451 191 L 457 197 L 459 200 L 459 203 L 458 204 L 456 203 L 453 204 L 450 208 L 450 214 L 449 215 L 445 212 L 442 212 L 443 214 L 443 222 L 440 224 L 438 221 L 436 220 L 433 226 L 433 232 L 432 233 L 429 232 L 430 229 L 428 226 L 420 235 L 417 235 L 409 243 L 407 247 L 407 252 L 409 253 L 412 248 L 418 242 L 420 243 L 420 246 L 424 249 L 426 249 L 431 245 L 433 247 L 446 247 L 449 250 L 452 250 L 457 245 L 463 242 L 465 243 L 469 243 L 473 245 L 476 245 L 478 247 L 481 247 L 486 250 L 488 250 L 493 253 L 497 254 L 498 256 L 497 257 L 493 257 L 492 260 L 494 262 L 503 266 L 508 270 L 514 273 L 520 278 L 520 279 L 518 280 L 520 280 L 521 279 L 517 275 L 508 270 L 503 266 L 496 263 L 493 260 L 495 257 L 500 257 L 499 255 L 491 251 L 486 250 L 477 245 L 475 245 L 473 243 L 473 241 L 474 240 L 477 240 L 477 239 L 471 237 L 469 235 L 472 231 L 468 231 L 465 228 L 465 226 L 473 218 L 475 213 L 478 209 L 480 203 L 480 193 L 482 191 L 486 193 L 488 191 L 488 178 L 486 172 L 488 170 L 490 170 L 493 173 L 495 173 L 495 168 L 489 155 L 487 153 L 487 151 L 489 149 L 492 149 L 496 151 L 498 150 L 496 145 L 482 129 L 484 126 L 494 126 L 495 124 L 483 116 L 479 112 L 479 111 L 484 107 L 480 103 L 469 83 L 463 76 L 463 73 L 468 69 L 475 61 L 478 54 Z M 447 244 L 450 243 L 451 245 L 448 246 Z M 443 237 L 445 239 L 445 241 L 439 246 L 437 244 L 437 242 Z M 458 222 L 460 224 L 459 226 L 456 229 L 454 234 L 452 236 L 450 236 L 448 234 L 448 232 L 450 229 Z M 441 32 L 436 35 L 431 42 L 431 48 L 442 55 L 451 64 L 454 65 L 456 64 L 463 56 L 464 54 L 464 45 L 461 39 L 454 33 L 449 31 Z M 444 32 L 448 32 L 454 34 L 462 42 L 464 47 L 464 50 L 462 56 L 459 60 L 454 64 L 451 63 L 444 55 L 440 52 L 435 50 L 431 46 L 432 41 L 438 35 Z M 365 23 L 363 22 L 359 24 L 352 32 L 348 32 L 342 28 L 333 25 L 332 27 L 336 34 L 334 37 L 332 38 L 316 38 L 314 39 L 310 44 L 305 45 L 291 53 L 288 56 L 286 56 L 283 52 L 275 45 L 283 52 L 285 56 L 288 56 L 291 53 L 299 48 L 312 43 L 316 38 L 333 38 L 335 37 L 336 34 L 335 31 L 333 29 L 334 26 L 339 27 L 348 32 L 352 32 L 361 23 L 363 23 L 365 25 L 364 28 Z" fill="#D8D8D8" fill-rule="evenodd"/><path d="M 447 637 L 447 639 L 461 638 L 462 637 L 484 638 L 484 636 L 481 636 L 476 634 L 459 634 L 458 635 L 454 635 L 453 636 L 449 636 Z M 463 635 L 464 634 L 471 634 L 472 636 L 471 637 L 464 637 Z M 480 568 L 481 570 L 486 573 L 483 569 Z M 271 522 L 270 525 L 272 529 L 276 534 L 283 540 L 284 539 Z M 397 519 L 396 519 L 396 522 L 394 526 L 395 529 L 397 528 Z M 258 515 L 264 526 L 268 529 L 269 528 L 260 515 Z M 293 514 L 293 517 L 298 526 L 301 529 L 303 533 L 307 535 L 308 534 L 301 526 Z M 420 509 L 413 525 L 414 527 L 416 527 L 416 524 L 421 514 L 421 510 Z M 438 507 L 436 508 L 433 516 L 436 513 Z M 244 499 L 244 504 L 248 514 L 250 515 L 251 513 L 249 510 L 247 503 L 245 499 Z M 271 494 L 272 496 L 272 500 L 275 506 L 277 507 L 276 501 L 273 495 Z M 437 460 L 439 466 L 439 471 L 443 474 L 443 471 L 439 461 Z M 263 324 L 259 326 L 253 332 L 252 332 L 251 334 L 252 337 L 248 344 L 254 339 L 262 328 Z M 255 294 L 250 296 L 245 302 L 245 304 L 246 304 L 250 299 L 252 300 L 250 306 L 246 312 L 246 315 L 247 316 L 256 297 Z M 216 288 L 222 294 L 221 296 L 223 295 L 227 295 L 230 293 L 227 291 L 223 291 Z M 190 266 L 197 272 L 200 272 L 201 271 L 200 269 L 198 269 L 193 266 Z M 366 253 L 364 254 L 360 254 L 359 255 L 352 255 L 349 256 L 349 257 L 360 256 L 366 254 Z M 329 253 L 330 255 L 333 255 L 334 256 L 340 256 L 341 257 L 344 256 L 343 255 L 337 255 L 336 254 Z M 324 253 L 324 256 L 334 266 L 338 269 L 355 277 L 358 277 L 362 274 L 367 275 L 371 271 L 374 270 L 381 264 L 385 262 L 385 261 L 390 257 L 385 259 L 382 262 L 376 265 L 370 270 L 368 270 L 365 273 L 357 274 L 356 273 L 348 272 L 346 270 L 342 269 L 330 260 L 326 255 L 326 253 Z M 287 239 L 287 240 L 295 247 L 296 246 L 292 241 L 289 239 Z M 443 238 L 438 242 L 439 245 L 444 241 Z M 458 223 L 451 229 L 449 232 L 450 235 L 453 234 L 455 229 L 459 224 Z M 278 141 L 277 143 L 277 147 L 276 148 L 276 156 L 278 162 L 285 170 L 292 174 L 294 174 L 297 177 L 300 190 L 306 201 L 313 211 L 326 224 L 330 227 L 332 227 L 335 229 L 341 231 L 347 231 L 359 227 L 367 221 L 373 215 L 381 199 L 381 195 L 384 186 L 384 179 L 385 178 L 384 156 L 381 149 L 378 146 L 376 146 L 374 148 L 371 154 L 367 158 L 358 163 L 352 165 L 349 165 L 344 167 L 334 167 L 333 166 L 328 166 L 327 165 L 323 165 L 318 163 L 312 163 L 303 169 L 296 169 L 292 167 L 284 158 L 283 155 L 284 139 L 281 138 Z M 278 142 L 281 139 L 284 140 L 283 156 L 285 161 L 291 167 L 300 170 L 306 168 L 313 163 L 316 163 L 320 165 L 330 166 L 331 167 L 347 167 L 356 164 L 359 162 L 361 162 L 363 160 L 366 159 L 371 155 L 374 149 L 376 147 L 378 147 L 381 150 L 383 155 L 383 161 L 384 162 L 384 180 L 383 181 L 383 186 L 382 187 L 379 202 L 371 216 L 368 219 L 366 217 L 374 201 L 374 198 L 375 197 L 374 191 L 366 184 L 363 183 L 351 183 L 339 189 L 332 195 L 326 205 L 326 213 L 329 218 L 336 225 L 334 227 L 332 227 L 327 224 L 313 210 L 306 200 L 300 189 L 297 176 L 295 174 L 293 174 L 287 171 L 279 163 L 276 154 Z M 275 137 L 272 134 L 263 134 L 259 137 L 255 138 L 248 146 L 248 151 L 250 155 L 255 157 L 260 157 L 267 150 L 263 153 L 259 153 L 258 150 L 252 145 L 255 141 L 257 141 L 259 137 L 261 136 L 271 136 L 273 138 L 272 143 L 273 143 Z M 108 126 L 108 133 L 109 135 L 116 143 L 121 143 L 124 139 L 124 133 L 123 131 L 115 124 L 111 124 Z M 391 128 L 391 133 L 392 135 L 396 139 L 407 144 L 412 144 L 413 145 L 426 145 L 436 140 L 438 137 L 438 130 L 435 126 L 431 123 L 424 120 L 419 120 L 418 119 L 407 119 L 406 120 L 402 120 L 394 124 Z M 183 127 L 176 120 L 167 117 L 160 117 L 159 118 L 156 118 L 150 120 L 142 125 L 129 138 L 125 147 L 126 154 L 128 158 L 134 164 L 138 166 L 151 166 L 152 165 L 156 165 L 157 164 L 161 164 L 162 163 L 169 162 L 177 159 L 186 151 L 188 146 L 188 138 L 187 137 L 187 134 Z M 210 109 L 207 109 L 203 111 L 195 119 L 193 123 L 193 129 L 196 133 L 199 133 L 200 134 L 204 133 L 207 131 L 211 126 L 212 123 L 212 111 Z M 319 109 L 334 109 L 342 112 L 343 111 L 338 108 L 334 108 L 333 107 L 322 107 Z M 291 100 L 288 103 L 285 110 L 285 120 L 288 124 L 293 124 L 294 125 L 288 131 L 287 134 L 288 140 L 292 147 L 300 153 L 306 155 L 316 155 L 329 149 L 336 142 L 338 138 L 338 131 L 337 129 L 331 124 L 325 122 L 322 122 L 321 121 L 307 121 L 306 122 L 303 122 L 294 125 L 293 124 L 300 116 L 301 113 L 301 106 L 298 100 L 296 99 Z M 288 132 L 291 128 L 298 124 L 304 122 L 307 122 L 308 121 L 320 121 L 332 125 L 337 130 L 338 132 L 338 137 L 336 141 L 326 150 L 314 155 L 307 155 L 299 152 L 292 146 L 288 139 Z M 295 99 L 297 100 L 300 104 L 301 112 L 299 117 L 292 124 L 289 124 L 285 119 L 285 111 L 288 104 L 292 100 Z M 377 92 L 373 95 L 370 101 L 370 113 L 372 117 L 376 121 L 381 122 L 384 121 L 388 115 L 389 112 L 389 103 L 386 96 L 383 93 L 381 92 Z M 378 92 L 382 93 L 386 97 L 389 106 L 388 114 L 386 118 L 383 121 L 377 121 L 375 120 L 370 112 L 370 103 L 373 96 Z M 306 63 L 302 60 L 299 60 L 293 63 L 286 70 L 286 75 L 287 76 L 291 76 L 298 70 L 304 68 L 306 66 Z M 306 64 L 303 68 L 297 70 L 290 76 L 288 76 L 286 74 L 287 70 L 294 63 L 298 61 L 303 61 Z M 268 62 L 263 60 L 261 61 L 259 60 L 254 61 L 247 70 L 247 79 L 249 83 L 254 87 L 258 87 L 260 83 L 264 79 L 266 74 L 272 66 Z M 253 76 L 255 74 L 257 74 L 258 77 L 261 79 L 259 81 Z M 253 69 L 255 67 L 256 68 L 259 68 L 261 71 L 258 72 L 255 71 Z M 370 53 L 370 56 L 373 58 L 384 61 L 390 65 L 393 63 L 393 58 L 392 56 L 385 51 L 382 50 L 373 50 Z M 370 54 L 374 50 L 381 50 L 384 51 L 392 57 L 393 62 L 391 64 L 389 64 L 383 60 L 378 59 L 375 57 L 372 57 Z M 444 33 L 438 36 L 433 41 L 432 46 L 435 49 L 440 51 L 444 54 L 451 62 L 454 63 L 457 61 L 461 56 L 463 50 L 463 47 L 461 42 L 454 35 L 448 33 Z M 455 14 L 446 13 L 445 12 L 440 12 L 427 17 L 419 24 L 415 30 L 414 35 L 412 37 L 410 37 L 405 34 L 392 32 L 391 31 L 386 31 L 385 30 L 372 30 L 371 31 L 367 31 L 365 29 L 367 22 L 364 20 L 357 24 L 351 31 L 349 31 L 347 29 L 339 25 L 332 24 L 331 25 L 331 28 L 334 32 L 334 34 L 332 36 L 314 37 L 309 43 L 304 44 L 298 47 L 287 55 L 279 46 L 273 42 L 267 40 L 258 40 L 249 43 L 240 49 L 236 53 L 231 62 L 230 72 L 229 73 L 230 81 L 236 92 L 245 99 L 249 100 L 251 102 L 251 104 L 242 123 L 242 129 L 243 132 L 231 146 L 231 149 L 232 150 L 237 150 L 238 149 L 240 151 L 240 153 L 234 164 L 234 170 L 235 171 L 239 170 L 241 172 L 240 174 L 240 178 L 239 179 L 239 190 L 241 192 L 246 192 L 247 193 L 247 203 L 250 211 L 253 214 L 256 212 L 258 214 L 259 217 L 263 221 L 265 221 L 274 231 L 279 239 L 279 245 L 277 247 L 273 244 L 270 237 L 267 233 L 265 236 L 262 234 L 257 224 L 255 224 L 253 227 L 251 225 L 249 219 L 249 216 L 245 210 L 243 210 L 242 212 L 239 211 L 230 188 L 227 187 L 225 189 L 223 187 L 220 181 L 220 179 L 216 172 L 216 170 L 213 165 L 211 158 L 206 150 L 206 146 L 213 137 L 218 126 L 218 121 L 219 120 L 218 109 L 213 103 L 207 103 L 198 110 L 195 110 L 194 109 L 193 87 L 191 81 L 187 77 L 181 77 L 176 82 L 172 91 L 171 100 L 170 102 L 168 103 L 167 102 L 167 97 L 166 96 L 165 87 L 162 79 L 156 73 L 149 73 L 147 74 L 143 78 L 142 85 L 141 86 L 141 94 L 142 95 L 143 107 L 142 108 L 140 107 L 136 97 L 130 90 L 122 90 L 117 94 L 115 100 L 115 105 L 116 106 L 116 110 L 117 111 L 118 117 L 116 119 L 111 117 L 107 117 L 103 119 L 101 122 L 101 133 L 102 134 L 103 140 L 106 145 L 106 147 L 117 166 L 125 175 L 125 181 L 126 182 L 126 187 L 128 193 L 129 203 L 131 207 L 131 210 L 134 219 L 143 237 L 149 246 L 163 261 L 161 263 L 154 262 L 153 263 L 154 267 L 165 277 L 177 283 L 182 287 L 180 289 L 174 289 L 173 290 L 173 293 L 175 295 L 187 301 L 195 303 L 200 306 L 198 309 L 194 311 L 195 313 L 205 317 L 215 319 L 217 321 L 212 325 L 214 327 L 223 330 L 230 334 L 233 334 L 238 323 L 241 320 L 243 320 L 245 322 L 245 327 L 239 343 L 238 351 L 227 367 L 228 369 L 233 368 L 235 371 L 224 384 L 219 392 L 220 394 L 226 392 L 229 394 L 221 406 L 214 422 L 215 425 L 221 422 L 223 424 L 217 442 L 216 455 L 218 455 L 220 452 L 222 454 L 222 458 L 221 459 L 221 469 L 220 470 L 221 477 L 222 478 L 225 476 L 227 477 L 229 488 L 234 498 L 234 501 L 232 503 L 230 501 L 228 502 L 228 505 L 226 508 L 226 510 L 221 518 L 221 522 L 225 521 L 227 524 L 225 526 L 225 528 L 222 533 L 222 535 L 220 538 L 220 541 L 221 542 L 225 540 L 227 543 L 225 546 L 224 552 L 222 556 L 222 559 L 220 563 L 220 569 L 225 568 L 227 570 L 224 583 L 228 586 L 228 595 L 230 600 L 230 607 L 231 608 L 234 622 L 236 624 L 236 626 L 234 628 L 231 629 L 223 629 L 222 630 L 219 630 L 213 632 L 208 635 L 203 640 L 199 649 L 198 659 L 200 665 L 205 669 L 207 668 L 207 659 L 208 658 L 208 655 L 214 648 L 216 648 L 218 650 L 215 659 L 215 670 L 218 672 L 221 672 L 222 673 L 229 673 L 230 674 L 232 673 L 232 670 L 231 669 L 232 660 L 234 656 L 238 652 L 240 652 L 242 654 L 240 660 L 240 665 L 239 666 L 239 671 L 241 675 L 275 675 L 276 674 L 281 674 L 282 673 L 292 673 L 293 672 L 305 671 L 306 670 L 310 670 L 314 668 L 317 668 L 323 664 L 326 658 L 326 653 L 327 652 L 327 643 L 326 642 L 325 631 L 326 630 L 331 631 L 332 629 L 332 604 L 331 603 L 331 599 L 333 597 L 336 599 L 338 598 L 337 587 L 339 583 L 341 573 L 340 572 L 336 572 L 335 571 L 332 571 L 315 564 L 311 560 L 311 558 L 312 557 L 316 557 L 317 558 L 321 558 L 324 560 L 327 560 L 332 562 L 336 562 L 342 564 L 348 564 L 349 565 L 364 566 L 365 565 L 372 565 L 373 564 L 383 563 L 386 566 L 386 567 L 382 571 L 380 571 L 378 574 L 383 585 L 383 590 L 385 596 L 386 597 L 388 596 L 390 597 L 389 612 L 393 615 L 393 631 L 394 633 L 396 633 L 398 631 L 400 633 L 400 648 L 398 653 L 398 668 L 400 672 L 404 676 L 410 679 L 416 681 L 419 681 L 420 682 L 438 684 L 439 683 L 438 666 L 441 662 L 444 662 L 446 664 L 446 667 L 447 668 L 447 683 L 448 684 L 469 684 L 471 681 L 469 663 L 473 660 L 477 663 L 479 668 L 479 682 L 480 683 L 493 682 L 497 679 L 497 667 L 495 661 L 497 658 L 499 658 L 504 663 L 505 670 L 506 671 L 506 674 L 505 675 L 505 678 L 506 679 L 512 677 L 517 671 L 518 668 L 518 658 L 515 650 L 507 642 L 501 640 L 498 637 L 498 635 L 501 632 L 502 629 L 502 625 L 504 619 L 504 613 L 505 612 L 505 589 L 504 588 L 504 585 L 507 581 L 503 573 L 503 571 L 505 570 L 509 573 L 511 572 L 508 563 L 506 560 L 506 558 L 499 545 L 501 543 L 507 547 L 509 546 L 508 540 L 501 525 L 503 522 L 504 523 L 507 522 L 506 515 L 505 514 L 505 508 L 504 507 L 504 497 L 498 495 L 491 489 L 488 485 L 484 475 L 484 469 L 483 468 L 484 465 L 484 457 L 489 444 L 488 431 L 487 430 L 485 417 L 484 416 L 484 413 L 483 412 L 483 409 L 482 408 L 482 405 L 478 394 L 477 388 L 469 372 L 469 370 L 467 368 L 467 366 L 462 356 L 460 354 L 458 347 L 461 345 L 465 349 L 477 368 L 484 384 L 484 386 L 486 389 L 490 401 L 490 404 L 492 408 L 492 411 L 494 416 L 494 420 L 496 425 L 496 429 L 497 430 L 497 435 L 499 439 L 499 443 L 496 449 L 494 459 L 493 460 L 493 471 L 494 472 L 495 478 L 497 481 L 502 485 L 508 485 L 511 483 L 515 473 L 519 470 L 521 472 L 521 479 L 518 488 L 514 493 L 515 498 L 519 502 L 523 504 L 531 504 L 533 503 L 537 499 L 541 492 L 542 488 L 545 485 L 547 487 L 547 494 L 542 505 L 545 507 L 550 507 L 556 505 L 561 500 L 564 494 L 566 486 L 568 484 L 571 485 L 571 492 L 569 498 L 571 499 L 574 497 L 581 488 L 586 476 L 586 472 L 588 466 L 588 460 L 589 459 L 589 452 L 588 451 L 587 438 L 589 436 L 591 436 L 591 433 L 586 420 L 586 417 L 585 416 L 585 413 L 583 407 L 581 405 L 582 403 L 585 404 L 586 403 L 586 400 L 578 386 L 573 380 L 574 377 L 577 377 L 578 378 L 579 375 L 571 365 L 569 361 L 561 352 L 562 349 L 565 350 L 570 350 L 571 349 L 542 322 L 544 320 L 546 321 L 552 321 L 552 318 L 544 311 L 540 309 L 533 303 L 530 302 L 527 299 L 528 297 L 533 297 L 534 294 L 532 292 L 520 287 L 515 283 L 516 281 L 522 281 L 523 278 L 504 265 L 496 261 L 497 259 L 501 259 L 504 257 L 501 254 L 499 254 L 492 250 L 490 250 L 485 247 L 479 245 L 477 243 L 480 241 L 481 239 L 475 237 L 473 235 L 475 231 L 469 229 L 467 227 L 472 222 L 480 208 L 481 202 L 482 201 L 482 195 L 483 194 L 485 195 L 488 195 L 489 194 L 490 182 L 489 181 L 489 176 L 488 174 L 490 172 L 493 175 L 496 175 L 497 174 L 496 166 L 489 152 L 490 151 L 498 152 L 499 151 L 499 148 L 491 136 L 485 130 L 486 127 L 489 128 L 495 128 L 497 125 L 494 121 L 484 115 L 481 112 L 485 109 L 485 106 L 481 102 L 471 84 L 465 76 L 465 73 L 473 66 L 478 58 L 479 52 L 480 51 L 480 42 L 479 41 L 479 38 L 474 28 L 466 20 Z M 454 14 L 465 20 L 475 30 L 478 36 L 479 43 L 480 44 L 480 49 L 479 50 L 478 57 L 474 64 L 464 73 L 464 76 L 470 83 L 481 103 L 485 107 L 482 109 L 480 112 L 496 124 L 494 127 L 484 127 L 483 129 L 490 136 L 499 149 L 497 152 L 492 150 L 489 150 L 488 151 L 488 153 L 490 155 L 496 168 L 496 173 L 493 174 L 490 171 L 487 172 L 489 178 L 489 191 L 486 194 L 483 192 L 481 193 L 481 203 L 479 209 L 476 213 L 474 218 L 466 226 L 466 228 L 468 230 L 472 230 L 473 232 L 470 235 L 473 237 L 476 237 L 478 239 L 477 241 L 474 241 L 475 244 L 477 244 L 486 249 L 491 250 L 499 254 L 501 257 L 500 258 L 495 258 L 494 260 L 496 262 L 503 265 L 508 269 L 517 274 L 522 279 L 520 281 L 512 280 L 512 282 L 519 287 L 527 291 L 529 291 L 533 294 L 531 296 L 526 297 L 525 299 L 539 308 L 551 318 L 550 320 L 542 320 L 541 319 L 540 321 L 570 348 L 568 350 L 566 349 L 562 349 L 561 348 L 558 348 L 558 349 L 578 374 L 577 377 L 572 375 L 570 376 L 582 393 L 585 399 L 584 402 L 582 401 L 579 401 L 579 402 L 583 408 L 585 414 L 585 418 L 590 431 L 590 433 L 588 435 L 587 434 L 586 435 L 587 443 L 588 444 L 588 464 L 587 465 L 587 470 L 586 471 L 586 474 L 583 483 L 577 493 L 572 497 L 570 496 L 571 493 L 571 484 L 568 482 L 566 485 L 563 496 L 561 499 L 556 504 L 552 506 L 545 506 L 543 503 L 547 495 L 547 485 L 544 484 L 539 495 L 532 503 L 530 504 L 525 504 L 520 502 L 515 497 L 514 494 L 518 489 L 518 487 L 521 481 L 521 477 L 522 476 L 521 471 L 519 469 L 516 470 L 512 481 L 508 485 L 501 484 L 495 477 L 493 464 L 494 463 L 494 457 L 496 453 L 496 450 L 499 444 L 499 437 L 497 433 L 497 428 L 496 427 L 496 423 L 495 422 L 495 418 L 494 417 L 492 406 L 489 399 L 489 396 L 486 387 L 481 377 L 479 370 L 477 368 L 475 363 L 471 358 L 468 352 L 461 344 L 459 344 L 457 346 L 458 351 L 467 367 L 467 369 L 473 380 L 473 382 L 477 390 L 478 396 L 481 404 L 483 417 L 485 422 L 485 426 L 486 427 L 486 431 L 488 437 L 488 443 L 483 458 L 483 474 L 486 483 L 490 489 L 494 493 L 500 496 L 504 500 L 504 511 L 505 512 L 506 520 L 504 522 L 501 521 L 500 523 L 502 529 L 505 534 L 508 544 L 505 545 L 503 543 L 499 542 L 498 545 L 500 547 L 506 559 L 506 562 L 510 570 L 508 572 L 504 569 L 501 570 L 506 580 L 503 583 L 503 586 L 505 591 L 505 605 L 504 606 L 504 616 L 503 617 L 502 627 L 500 632 L 497 635 L 497 637 L 502 641 L 506 642 L 511 646 L 515 651 L 517 656 L 517 661 L 518 662 L 517 670 L 510 678 L 508 678 L 506 676 L 506 669 L 503 661 L 499 657 L 497 657 L 495 659 L 496 668 L 497 669 L 497 678 L 494 681 L 491 682 L 483 682 L 481 683 L 479 681 L 480 679 L 480 670 L 479 669 L 479 666 L 475 660 L 471 660 L 469 662 L 470 681 L 467 684 L 449 684 L 447 682 L 447 665 L 444 661 L 441 661 L 438 664 L 438 681 L 436 683 L 422 682 L 421 681 L 417 681 L 408 677 L 406 677 L 400 671 L 398 665 L 398 657 L 399 656 L 399 651 L 401 647 L 401 636 L 400 635 L 400 631 L 399 630 L 396 632 L 394 631 L 394 628 L 393 627 L 394 611 L 391 611 L 390 610 L 390 595 L 389 594 L 388 595 L 385 594 L 385 591 L 383 587 L 383 583 L 379 575 L 379 573 L 381 571 L 383 571 L 386 568 L 386 565 L 384 563 L 381 562 L 376 564 L 366 564 L 365 565 L 345 564 L 344 563 L 330 561 L 316 556 L 311 556 L 309 558 L 310 561 L 320 567 L 322 567 L 325 569 L 334 572 L 337 572 L 340 575 L 338 581 L 338 584 L 337 585 L 337 596 L 336 597 L 332 595 L 330 596 L 331 610 L 332 611 L 332 624 L 330 629 L 328 629 L 326 627 L 324 629 L 324 633 L 326 638 L 326 656 L 323 662 L 320 665 L 314 668 L 311 668 L 306 670 L 301 670 L 300 671 L 293 671 L 287 673 L 269 674 L 268 675 L 244 675 L 240 672 L 240 661 L 242 657 L 242 653 L 241 652 L 237 652 L 234 655 L 231 662 L 231 671 L 229 673 L 225 673 L 224 672 L 220 672 L 215 668 L 215 660 L 219 649 L 217 647 L 214 647 L 208 654 L 208 657 L 207 658 L 207 666 L 204 668 L 199 662 L 199 651 L 203 640 L 210 634 L 217 631 L 225 630 L 226 629 L 242 629 L 243 630 L 247 630 L 252 632 L 255 632 L 256 631 L 254 629 L 252 629 L 249 627 L 238 626 L 234 621 L 233 615 L 232 614 L 232 610 L 230 605 L 230 597 L 228 594 L 228 584 L 225 581 L 225 578 L 227 573 L 227 567 L 224 567 L 222 569 L 220 567 L 222 557 L 224 553 L 224 550 L 228 542 L 227 539 L 225 539 L 222 541 L 220 539 L 223 534 L 225 527 L 227 525 L 227 521 L 226 520 L 223 521 L 221 519 L 223 517 L 228 505 L 229 504 L 234 504 L 235 503 L 235 499 L 229 486 L 228 476 L 226 473 L 223 475 L 221 474 L 221 462 L 222 461 L 222 454 L 223 451 L 221 450 L 218 453 L 216 452 L 217 443 L 218 442 L 218 439 L 219 438 L 219 435 L 221 429 L 223 426 L 223 422 L 220 422 L 217 424 L 215 422 L 216 417 L 221 407 L 230 393 L 229 391 L 222 393 L 220 390 L 236 370 L 235 367 L 230 368 L 228 366 L 238 352 L 240 341 L 246 324 L 246 321 L 244 319 L 240 319 L 237 323 L 234 331 L 232 333 L 230 333 L 225 330 L 216 327 L 214 325 L 218 322 L 217 319 L 211 317 L 207 317 L 199 314 L 197 311 L 200 309 L 202 306 L 200 304 L 192 302 L 189 300 L 187 300 L 182 297 L 178 296 L 174 292 L 176 290 L 182 289 L 183 286 L 181 284 L 165 276 L 155 267 L 154 265 L 156 263 L 158 264 L 163 264 L 164 263 L 164 260 L 147 242 L 135 220 L 129 202 L 129 197 L 127 191 L 125 174 L 118 166 L 106 146 L 106 144 L 104 141 L 101 132 L 101 123 L 105 118 L 113 118 L 116 120 L 119 118 L 121 118 L 127 123 L 132 123 L 136 120 L 136 116 L 137 114 L 134 108 L 134 106 L 132 104 L 131 101 L 126 96 L 122 96 L 119 99 L 118 102 L 116 101 L 116 97 L 117 95 L 122 90 L 129 90 L 135 96 L 140 106 L 140 108 L 142 110 L 145 106 L 146 106 L 148 109 L 153 111 L 157 110 L 160 107 L 160 94 L 159 93 L 159 89 L 156 83 L 154 81 L 150 80 L 148 81 L 145 85 L 143 84 L 143 80 L 144 78 L 150 73 L 155 73 L 161 79 L 165 89 L 167 105 L 169 106 L 171 104 L 178 112 L 181 113 L 185 112 L 188 108 L 188 101 L 189 100 L 188 98 L 188 92 L 186 86 L 183 83 L 180 83 L 179 80 L 183 77 L 186 77 L 191 82 L 192 85 L 192 91 L 193 92 L 193 107 L 194 110 L 197 111 L 208 103 L 212 103 L 216 106 L 218 111 L 218 122 L 217 123 L 217 126 L 214 132 L 214 134 L 205 146 L 205 150 L 212 162 L 212 164 L 219 178 L 222 187 L 225 190 L 229 189 L 231 191 L 236 206 L 238 209 L 238 211 L 241 214 L 244 212 L 247 214 L 252 227 L 254 228 L 257 226 L 259 228 L 263 237 L 266 238 L 266 237 L 268 236 L 270 238 L 273 245 L 275 247 L 278 247 L 280 245 L 280 240 L 274 230 L 266 221 L 263 220 L 259 216 L 257 209 L 255 209 L 254 212 L 252 212 L 250 210 L 247 201 L 247 190 L 245 190 L 242 192 L 239 188 L 241 169 L 238 170 L 235 170 L 234 169 L 235 163 L 241 152 L 241 149 L 239 148 L 233 150 L 231 147 L 243 134 L 242 124 L 252 102 L 251 100 L 249 100 L 243 97 L 238 93 L 232 85 L 230 79 L 230 69 L 231 68 L 231 63 L 236 54 L 246 45 L 256 41 L 264 40 L 265 41 L 272 42 L 274 44 L 277 45 L 286 55 L 288 55 L 291 52 L 305 44 L 310 43 L 312 40 L 316 37 L 332 37 L 334 36 L 335 34 L 331 27 L 333 24 L 342 27 L 348 31 L 352 31 L 359 23 L 363 21 L 366 23 L 364 29 L 365 32 L 369 32 L 370 31 L 388 31 L 389 32 L 403 34 L 413 38 L 415 35 L 415 32 L 419 25 L 428 17 L 442 12 L 444 13 Z M 463 7 L 454 4 L 447 4 L 446 3 L 441 3 L 440 4 L 431 5 L 419 11 L 409 21 L 409 23 L 407 25 L 399 24 L 398 23 L 392 23 L 391 22 L 377 22 L 374 19 L 373 16 L 367 12 L 363 12 L 357 14 L 350 20 L 347 20 L 339 16 L 329 16 L 324 20 L 323 26 L 320 29 L 314 29 L 293 39 L 291 41 L 287 41 L 280 35 L 270 31 L 256 31 L 255 32 L 252 32 L 246 34 L 238 38 L 233 42 L 224 54 L 220 64 L 220 69 L 219 70 L 220 83 L 224 93 L 228 99 L 238 107 L 238 110 L 234 117 L 233 123 L 232 124 L 232 132 L 226 138 L 224 137 L 224 135 L 229 123 L 229 111 L 226 102 L 217 94 L 205 94 L 203 89 L 202 81 L 200 77 L 193 69 L 188 67 L 184 67 L 183 68 L 177 69 L 171 73 L 170 73 L 162 65 L 158 63 L 149 63 L 140 67 L 135 73 L 135 75 L 131 81 L 127 81 L 126 80 L 124 81 L 120 81 L 114 84 L 108 90 L 106 93 L 106 96 L 105 97 L 105 107 L 103 109 L 97 111 L 92 117 L 91 120 L 91 134 L 92 135 L 92 138 L 95 147 L 107 169 L 116 181 L 116 193 L 117 194 L 117 199 L 118 200 L 119 208 L 124 223 L 132 239 L 140 251 L 144 255 L 143 266 L 146 272 L 157 283 L 163 287 L 163 295 L 164 297 L 170 303 L 173 304 L 175 306 L 182 308 L 184 310 L 184 314 L 185 317 L 187 319 L 194 323 L 199 324 L 201 326 L 202 329 L 208 334 L 220 340 L 227 342 L 229 344 L 229 346 L 223 358 L 221 360 L 219 366 L 220 376 L 212 386 L 210 392 L 210 396 L 213 400 L 213 403 L 209 410 L 209 412 L 206 418 L 206 430 L 210 434 L 208 444 L 207 445 L 207 458 L 211 466 L 211 475 L 215 485 L 221 492 L 218 500 L 218 503 L 211 519 L 211 523 L 214 529 L 212 532 L 211 538 L 210 539 L 211 546 L 214 549 L 211 558 L 210 568 L 211 569 L 211 572 L 216 577 L 216 589 L 217 590 L 217 596 L 218 597 L 218 602 L 220 608 L 221 618 L 218 621 L 211 622 L 198 630 L 193 636 L 189 644 L 188 651 L 187 652 L 187 658 L 188 659 L 188 663 L 190 668 L 196 674 L 203 678 L 206 678 L 215 681 L 219 681 L 220 682 L 234 683 L 235 684 L 274 684 L 275 683 L 284 683 L 285 682 L 293 682 L 294 681 L 305 680 L 310 678 L 318 677 L 327 673 L 333 668 L 337 659 L 337 652 L 338 651 L 337 639 L 341 634 L 343 628 L 343 607 L 347 603 L 348 600 L 350 581 L 351 580 L 351 577 L 353 575 L 355 576 L 368 576 L 370 578 L 376 601 L 378 605 L 381 608 L 383 628 L 385 634 L 390 642 L 390 647 L 388 652 L 388 660 L 387 661 L 388 669 L 393 679 L 402 686 L 404 686 L 410 689 L 417 690 L 418 691 L 422 691 L 428 693 L 438 693 L 439 694 L 476 694 L 477 693 L 487 693 L 488 692 L 499 691 L 500 690 L 503 690 L 504 689 L 507 689 L 513 687 L 520 683 L 525 678 L 529 670 L 529 655 L 527 649 L 525 647 L 524 644 L 512 633 L 512 630 L 514 625 L 514 621 L 515 620 L 515 609 L 516 608 L 516 584 L 521 578 L 520 567 L 516 558 L 516 555 L 519 552 L 519 543 L 515 534 L 515 531 L 517 528 L 517 518 L 516 517 L 516 514 L 519 513 L 526 516 L 537 515 L 543 518 L 551 518 L 566 513 L 579 506 L 590 494 L 594 487 L 594 485 L 597 479 L 597 476 L 599 471 L 599 466 L 600 465 L 600 450 L 599 449 L 599 443 L 601 441 L 601 431 L 600 430 L 599 422 L 595 413 L 595 411 L 597 408 L 597 401 L 592 390 L 589 386 L 590 377 L 585 367 L 579 360 L 579 357 L 581 355 L 581 349 L 580 346 L 561 326 L 563 322 L 563 318 L 559 312 L 543 298 L 544 295 L 544 291 L 543 289 L 532 280 L 532 277 L 530 273 L 517 263 L 517 256 L 510 249 L 507 248 L 505 246 L 501 245 L 493 239 L 493 235 L 484 224 L 484 221 L 488 216 L 491 207 L 498 199 L 499 196 L 499 187 L 504 182 L 506 178 L 506 166 L 504 160 L 508 156 L 509 149 L 506 141 L 502 136 L 502 134 L 506 129 L 506 123 L 504 119 L 494 110 L 494 105 L 490 97 L 477 77 L 479 73 L 486 65 L 489 58 L 489 55 L 491 50 L 490 48 L 490 40 L 489 39 L 489 36 L 483 23 L 480 19 L 473 13 L 465 9 Z M 220 145 L 222 146 L 222 151 L 223 153 L 227 157 L 227 160 L 226 161 L 223 160 L 219 152 L 218 148 Z M 462 7 L 464 9 L 471 12 L 481 21 L 488 34 L 489 42 L 490 43 L 490 52 L 489 53 L 488 60 L 484 67 L 477 75 L 477 78 L 483 86 L 485 91 L 491 100 L 494 107 L 494 112 L 498 114 L 504 120 L 506 124 L 506 128 L 501 134 L 502 137 L 505 140 L 508 147 L 508 155 L 504 159 L 504 163 L 506 167 L 506 177 L 504 181 L 499 186 L 499 194 L 497 200 L 491 206 L 489 213 L 483 222 L 483 224 L 491 233 L 492 235 L 492 240 L 494 242 L 496 242 L 506 247 L 517 257 L 516 263 L 525 269 L 531 275 L 531 280 L 543 290 L 544 292 L 543 299 L 553 307 L 561 315 L 563 319 L 563 321 L 561 324 L 561 327 L 579 345 L 581 349 L 581 354 L 578 357 L 578 359 L 584 366 L 590 378 L 590 380 L 588 383 L 588 386 L 592 391 L 597 403 L 597 407 L 595 410 L 595 415 L 598 421 L 598 424 L 600 428 L 600 434 L 601 435 L 600 441 L 598 444 L 599 447 L 599 453 L 600 454 L 600 460 L 599 461 L 599 468 L 598 469 L 597 477 L 592 490 L 588 496 L 578 506 L 567 512 L 565 512 L 560 515 L 554 517 L 541 517 L 536 514 L 534 515 L 524 515 L 516 511 L 515 512 L 516 520 L 517 521 L 517 527 L 514 531 L 514 533 L 518 541 L 518 545 L 519 546 L 519 550 L 515 555 L 515 558 L 518 563 L 520 569 L 520 579 L 515 584 L 515 590 L 516 591 L 516 596 L 515 597 L 515 613 L 514 614 L 514 621 L 513 622 L 513 627 L 512 628 L 512 634 L 521 641 L 528 653 L 528 657 L 529 658 L 529 668 L 528 669 L 528 672 L 526 674 L 525 677 L 519 683 L 512 687 L 509 687 L 505 689 L 501 689 L 496 691 L 482 692 L 481 693 L 460 693 L 459 694 L 434 693 L 433 692 L 426 692 L 425 691 L 420 691 L 419 690 L 412 689 L 400 684 L 392 677 L 388 668 L 388 655 L 389 654 L 389 649 L 391 645 L 391 642 L 388 639 L 384 630 L 383 622 L 382 621 L 382 609 L 376 600 L 375 594 L 372 586 L 372 583 L 371 582 L 371 579 L 368 575 L 352 575 L 351 576 L 350 585 L 349 586 L 348 600 L 343 606 L 343 622 L 342 623 L 342 630 L 341 633 L 337 638 L 337 657 L 333 667 L 329 671 L 320 676 L 317 676 L 308 679 L 298 680 L 297 681 L 291 681 L 290 682 L 282 682 L 281 683 L 267 683 L 266 684 L 229 683 L 228 682 L 216 681 L 215 680 L 212 680 L 211 679 L 208 679 L 198 675 L 191 668 L 188 661 L 188 649 L 190 643 L 193 637 L 199 630 L 210 623 L 220 621 L 222 619 L 220 606 L 219 605 L 219 600 L 218 599 L 218 594 L 217 593 L 217 588 L 216 587 L 216 576 L 211 571 L 210 568 L 210 563 L 211 562 L 212 555 L 214 552 L 214 548 L 211 545 L 210 542 L 211 535 L 214 530 L 214 527 L 212 525 L 211 521 L 213 517 L 213 514 L 218 504 L 221 495 L 221 491 L 215 484 L 212 478 L 212 475 L 211 474 L 211 465 L 207 458 L 207 446 L 210 437 L 210 433 L 206 429 L 206 419 L 208 413 L 214 402 L 214 400 L 211 397 L 210 393 L 212 387 L 221 375 L 219 368 L 220 367 L 221 361 L 229 347 L 229 343 L 212 336 L 210 334 L 207 333 L 202 328 L 200 324 L 191 321 L 185 316 L 185 310 L 183 308 L 171 303 L 163 294 L 163 286 L 151 277 L 146 271 L 143 264 L 144 254 L 140 250 L 132 238 L 122 217 L 122 214 L 120 210 L 120 207 L 118 202 L 118 198 L 117 197 L 116 180 L 106 166 L 94 143 L 92 137 L 92 133 L 91 132 L 91 122 L 92 121 L 92 118 L 99 110 L 104 109 L 106 107 L 106 95 L 108 91 L 118 82 L 121 81 L 130 81 L 132 82 L 134 76 L 137 71 L 144 65 L 150 63 L 156 63 L 161 65 L 169 74 L 171 74 L 180 68 L 190 68 L 199 76 L 203 86 L 203 92 L 205 95 L 208 95 L 209 94 L 215 94 L 218 95 L 223 99 L 229 111 L 229 121 L 228 122 L 228 125 L 225 134 L 223 137 L 222 142 L 218 147 L 218 150 L 220 153 L 220 155 L 223 161 L 226 163 L 228 160 L 228 157 L 223 152 L 222 148 L 223 147 L 223 144 L 226 139 L 233 132 L 233 121 L 235 118 L 236 114 L 239 110 L 239 107 L 226 95 L 222 88 L 220 82 L 220 65 L 222 59 L 227 50 L 234 42 L 241 37 L 250 33 L 253 33 L 258 31 L 268 31 L 277 34 L 282 37 L 286 41 L 290 42 L 294 39 L 312 30 L 323 29 L 324 28 L 324 21 L 330 16 L 337 16 L 343 18 L 348 21 L 350 21 L 358 14 L 361 13 L 368 13 L 373 17 L 374 20 L 376 22 L 389 22 L 390 23 L 407 25 L 417 13 L 421 10 L 432 5 L 437 5 L 438 4 L 451 4 L 452 5 Z" fill="#B1B1B1" fill-rule="evenodd"/><path d="M 464 635 L 464 636 L 471 636 L 471 635 Z M 279 142 L 277 154 L 278 155 L 278 159 L 280 163 L 287 170 L 293 173 L 295 173 L 298 176 L 301 189 L 304 195 L 306 197 L 307 200 L 314 209 L 314 210 L 327 223 L 332 226 L 334 226 L 335 225 L 328 218 L 325 213 L 325 205 L 327 201 L 329 199 L 331 195 L 339 188 L 351 182 L 363 182 L 364 183 L 366 183 L 368 184 L 375 191 L 375 193 L 376 194 L 375 201 L 367 217 L 368 218 L 370 216 L 378 202 L 378 199 L 379 198 L 379 195 L 380 194 L 380 191 L 381 190 L 381 187 L 382 186 L 382 181 L 383 180 L 383 162 L 382 161 L 382 155 L 381 154 L 380 150 L 378 148 L 376 148 L 372 155 L 366 160 L 363 161 L 361 163 L 359 163 L 356 165 L 354 165 L 347 168 L 331 168 L 330 167 L 320 166 L 316 164 L 313 164 L 306 169 L 300 171 L 299 170 L 295 170 L 291 168 L 284 161 L 283 157 L 282 156 L 282 146 L 283 145 L 283 140 L 281 140 Z M 289 132 L 289 139 L 293 146 L 299 151 L 306 153 L 307 154 L 314 154 L 326 149 L 335 141 L 337 137 L 337 132 L 332 126 L 328 124 L 325 124 L 324 123 L 321 123 L 320 122 L 308 122 L 307 123 L 304 123 L 303 124 L 301 124 L 294 127 L 292 129 L 291 129 Z M 295 100 L 292 101 L 289 104 L 286 111 L 286 119 L 289 123 L 292 123 L 298 117 L 299 113 L 300 112 L 300 107 L 299 106 L 299 104 L 298 102 Z M 378 93 L 374 96 L 372 100 L 372 102 L 371 103 L 371 112 L 375 119 L 377 120 L 383 120 L 385 118 L 387 114 L 387 109 L 388 108 L 388 106 L 387 105 L 387 101 L 385 97 L 382 94 Z M 305 64 L 303 62 L 298 62 L 294 64 L 288 70 L 287 74 L 288 75 L 290 75 L 297 69 L 303 67 L 305 65 Z M 371 54 L 372 56 L 375 56 L 378 58 L 383 59 L 389 63 L 391 63 L 392 62 L 392 59 L 391 57 L 384 52 L 382 52 L 381 51 L 374 51 Z M 462 8 L 456 7 L 455 6 L 452 6 L 451 5 L 438 5 L 437 6 L 432 6 L 421 11 L 418 14 L 417 14 L 407 26 L 396 25 L 395 24 L 390 24 L 389 23 L 376 23 L 373 20 L 372 17 L 368 14 L 361 14 L 360 15 L 358 15 L 350 22 L 348 22 L 343 19 L 341 19 L 337 17 L 330 17 L 325 21 L 325 28 L 323 30 L 316 30 L 315 31 L 312 31 L 294 40 L 290 43 L 286 42 L 279 36 L 275 35 L 272 33 L 269 33 L 268 32 L 258 32 L 257 33 L 250 34 L 247 36 L 245 36 L 241 38 L 235 43 L 234 43 L 228 50 L 223 59 L 223 61 L 221 65 L 221 82 L 222 83 L 223 88 L 227 95 L 240 107 L 240 110 L 237 114 L 236 118 L 234 121 L 234 132 L 227 139 L 224 144 L 224 147 L 223 148 L 224 152 L 229 157 L 229 160 L 226 164 L 225 164 L 222 161 L 219 155 L 219 153 L 217 150 L 217 147 L 221 142 L 222 137 L 224 134 L 224 132 L 227 125 L 227 122 L 228 121 L 228 111 L 227 110 L 227 108 L 222 99 L 218 96 L 216 96 L 215 95 L 209 95 L 208 96 L 205 96 L 203 94 L 202 92 L 202 86 L 201 85 L 201 83 L 198 76 L 192 70 L 190 69 L 180 69 L 176 71 L 171 75 L 169 75 L 167 73 L 167 72 L 161 66 L 159 65 L 157 65 L 156 64 L 150 64 L 149 65 L 144 66 L 138 71 L 135 76 L 134 81 L 132 83 L 130 82 L 121 82 L 120 83 L 118 83 L 116 84 L 109 91 L 107 95 L 107 107 L 104 110 L 99 111 L 93 118 L 93 121 L 92 122 L 92 132 L 93 133 L 93 137 L 94 138 L 95 143 L 97 146 L 97 148 L 99 152 L 101 154 L 107 166 L 117 180 L 117 190 L 118 191 L 118 197 L 119 198 L 119 202 L 120 203 L 121 210 L 123 214 L 123 217 L 133 238 L 135 240 L 136 243 L 139 246 L 141 250 L 145 254 L 144 264 L 147 271 L 151 276 L 152 276 L 158 282 L 159 282 L 164 286 L 164 294 L 165 296 L 171 302 L 179 306 L 183 307 L 186 310 L 186 316 L 188 318 L 189 318 L 191 320 L 193 320 L 196 322 L 200 323 L 202 325 L 203 328 L 207 332 L 210 333 L 212 335 L 216 336 L 223 340 L 228 341 L 230 343 L 230 347 L 225 357 L 223 359 L 222 363 L 221 364 L 220 370 L 221 371 L 222 375 L 213 387 L 213 389 L 211 393 L 211 395 L 215 400 L 215 402 L 209 413 L 209 415 L 207 419 L 207 429 L 211 433 L 211 437 L 210 438 L 210 440 L 209 441 L 209 445 L 208 446 L 208 458 L 212 465 L 212 474 L 213 475 L 213 478 L 216 484 L 222 491 L 222 495 L 221 496 L 219 504 L 217 507 L 217 509 L 214 514 L 214 517 L 212 521 L 213 525 L 215 527 L 215 530 L 212 535 L 211 542 L 212 543 L 212 545 L 215 548 L 215 552 L 213 555 L 213 558 L 212 559 L 212 562 L 211 563 L 211 568 L 212 569 L 212 571 L 217 576 L 217 587 L 218 588 L 218 593 L 219 594 L 219 599 L 220 600 L 220 605 L 221 606 L 221 610 L 222 611 L 222 616 L 223 617 L 223 619 L 220 622 L 217 622 L 216 623 L 210 624 L 206 627 L 203 628 L 197 633 L 191 643 L 191 645 L 189 649 L 189 661 L 192 668 L 198 674 L 202 676 L 204 676 L 208 678 L 211 678 L 212 679 L 215 679 L 216 680 L 228 681 L 229 682 L 243 682 L 244 683 L 266 683 L 267 682 L 281 682 L 282 681 L 290 681 L 291 680 L 297 680 L 298 679 L 308 678 L 309 677 L 320 675 L 329 670 L 332 667 L 335 661 L 335 658 L 336 657 L 336 638 L 340 633 L 340 631 L 341 630 L 341 623 L 342 622 L 342 606 L 347 600 L 347 593 L 348 592 L 349 580 L 350 579 L 350 576 L 352 574 L 368 574 L 372 579 L 372 582 L 373 583 L 373 586 L 374 587 L 374 590 L 376 594 L 377 600 L 379 604 L 383 609 L 383 621 L 384 622 L 385 630 L 389 639 L 392 642 L 392 645 L 390 649 L 390 654 L 389 655 L 389 668 L 393 677 L 400 683 L 412 688 L 415 688 L 416 689 L 419 689 L 420 690 L 425 690 L 426 691 L 433 691 L 434 692 L 450 692 L 451 693 L 459 693 L 460 692 L 481 692 L 482 691 L 490 691 L 491 690 L 496 690 L 497 689 L 500 689 L 501 688 L 505 688 L 509 686 L 512 686 L 519 682 L 524 677 L 525 674 L 527 672 L 527 669 L 528 668 L 528 658 L 527 657 L 527 653 L 523 645 L 520 642 L 520 641 L 511 634 L 511 628 L 512 627 L 513 614 L 514 613 L 514 597 L 515 596 L 514 584 L 519 579 L 519 569 L 518 568 L 517 563 L 514 558 L 514 555 L 518 550 L 517 541 L 513 533 L 513 531 L 516 527 L 516 521 L 515 520 L 514 512 L 516 510 L 524 514 L 534 514 L 536 513 L 541 516 L 554 516 L 555 515 L 560 514 L 565 511 L 567 511 L 578 505 L 587 496 L 587 495 L 591 490 L 593 486 L 595 478 L 596 477 L 597 469 L 598 468 L 598 461 L 599 460 L 599 454 L 598 453 L 598 447 L 597 446 L 597 444 L 599 441 L 600 435 L 599 434 L 599 428 L 597 424 L 597 421 L 594 415 L 594 410 L 596 407 L 596 403 L 591 391 L 587 386 L 587 383 L 589 380 L 589 378 L 583 366 L 577 359 L 577 357 L 580 354 L 580 349 L 578 345 L 560 327 L 560 324 L 562 321 L 562 319 L 560 315 L 553 308 L 552 308 L 542 299 L 542 295 L 543 294 L 542 290 L 530 280 L 530 275 L 525 270 L 518 266 L 515 263 L 516 257 L 506 248 L 496 243 L 494 243 L 491 240 L 491 235 L 490 233 L 482 224 L 482 222 L 484 220 L 488 213 L 490 206 L 496 200 L 496 198 L 498 194 L 498 186 L 503 181 L 505 177 L 505 167 L 503 163 L 503 159 L 507 155 L 507 147 L 504 140 L 500 135 L 500 134 L 505 128 L 505 124 L 503 120 L 498 115 L 495 114 L 493 112 L 493 107 L 492 106 L 492 104 L 490 100 L 488 98 L 486 93 L 484 91 L 482 86 L 476 78 L 476 75 L 483 67 L 487 60 L 487 57 L 488 56 L 488 53 L 489 52 L 489 43 L 488 42 L 487 34 L 480 21 L 471 13 L 464 10 Z M 455 13 L 458 15 L 460 15 L 462 17 L 466 19 L 475 28 L 479 35 L 480 41 L 481 42 L 481 51 L 480 52 L 480 55 L 479 56 L 478 60 L 476 62 L 474 66 L 468 72 L 466 73 L 466 76 L 472 84 L 480 99 L 486 106 L 486 109 L 482 112 L 484 114 L 494 120 L 498 125 L 498 126 L 495 129 L 489 129 L 488 128 L 486 128 L 486 130 L 492 136 L 492 137 L 498 144 L 500 148 L 500 151 L 498 153 L 490 152 L 497 166 L 497 169 L 498 170 L 498 174 L 496 176 L 493 176 L 490 173 L 489 174 L 490 176 L 490 181 L 491 182 L 491 186 L 490 187 L 490 194 L 488 196 L 485 196 L 483 195 L 483 201 L 482 202 L 481 208 L 473 222 L 468 227 L 469 228 L 474 229 L 476 231 L 474 235 L 475 236 L 480 237 L 482 239 L 482 240 L 478 243 L 483 246 L 485 246 L 490 249 L 492 249 L 499 253 L 501 253 L 505 257 L 503 259 L 501 260 L 497 260 L 497 261 L 504 264 L 524 278 L 524 280 L 522 282 L 516 282 L 516 283 L 520 286 L 532 291 L 535 294 L 535 296 L 533 298 L 528 298 L 528 299 L 530 301 L 533 302 L 540 308 L 544 310 L 553 318 L 553 321 L 552 322 L 546 322 L 545 321 L 543 322 L 545 324 L 546 324 L 558 336 L 559 336 L 572 349 L 570 351 L 565 351 L 564 350 L 562 350 L 562 352 L 570 361 L 572 365 L 580 375 L 580 377 L 578 379 L 577 378 L 574 378 L 574 380 L 579 386 L 580 389 L 584 394 L 587 400 L 587 403 L 585 405 L 584 404 L 582 404 L 582 405 L 584 407 L 584 409 L 586 413 L 586 416 L 587 417 L 587 420 L 590 426 L 591 432 L 592 433 L 592 436 L 588 438 L 588 442 L 589 443 L 589 451 L 590 452 L 590 459 L 589 460 L 589 466 L 588 467 L 587 476 L 582 488 L 574 498 L 573 498 L 571 500 L 570 500 L 568 498 L 568 496 L 570 492 L 570 485 L 568 485 L 567 486 L 565 494 L 562 500 L 556 506 L 554 507 L 551 507 L 550 508 L 545 508 L 541 505 L 546 494 L 546 487 L 545 486 L 543 488 L 540 496 L 533 504 L 531 505 L 523 505 L 519 503 L 514 498 L 513 496 L 513 493 L 517 488 L 517 486 L 520 479 L 520 472 L 518 471 L 516 473 L 515 477 L 512 483 L 508 486 L 502 486 L 500 484 L 499 484 L 494 478 L 493 472 L 492 471 L 492 460 L 493 459 L 493 456 L 494 455 L 495 449 L 498 443 L 498 439 L 496 435 L 496 430 L 495 429 L 495 425 L 494 424 L 494 421 L 493 420 L 493 416 L 492 415 L 491 408 L 489 404 L 489 401 L 488 400 L 485 389 L 483 386 L 483 384 L 481 381 L 481 379 L 478 374 L 478 372 L 476 368 L 474 366 L 472 361 L 470 359 L 464 349 L 461 346 L 459 347 L 461 354 L 463 356 L 468 366 L 468 368 L 470 370 L 470 372 L 478 388 L 479 394 L 482 401 L 482 404 L 483 405 L 485 416 L 486 417 L 486 421 L 487 422 L 488 430 L 489 431 L 489 435 L 490 436 L 490 444 L 487 450 L 486 456 L 485 457 L 485 465 L 484 466 L 484 468 L 485 469 L 485 475 L 486 476 L 487 481 L 492 489 L 498 494 L 500 495 L 503 495 L 505 497 L 505 507 L 506 508 L 506 514 L 507 515 L 507 519 L 508 520 L 508 522 L 506 524 L 504 524 L 503 523 L 502 525 L 504 528 L 506 535 L 509 540 L 510 546 L 508 548 L 507 548 L 501 544 L 500 545 L 507 558 L 507 560 L 509 563 L 509 565 L 511 568 L 512 572 L 510 574 L 509 574 L 504 571 L 504 573 L 508 581 L 508 582 L 505 585 L 505 588 L 506 589 L 506 612 L 505 613 L 505 619 L 504 620 L 503 629 L 502 630 L 502 632 L 499 635 L 499 637 L 501 639 L 505 641 L 507 641 L 516 650 L 518 654 L 518 657 L 519 658 L 519 668 L 518 669 L 518 671 L 512 678 L 508 680 L 506 680 L 504 678 L 505 671 L 504 670 L 504 666 L 503 665 L 503 663 L 499 659 L 497 659 L 496 661 L 497 662 L 497 666 L 498 667 L 498 679 L 493 683 L 480 684 L 478 682 L 478 668 L 477 667 L 476 663 L 473 661 L 472 661 L 470 663 L 472 681 L 469 685 L 448 685 L 446 683 L 446 668 L 445 667 L 445 664 L 444 663 L 441 663 L 439 666 L 439 677 L 440 678 L 440 683 L 438 685 L 435 685 L 434 684 L 426 684 L 425 683 L 420 683 L 419 682 L 416 682 L 415 681 L 410 680 L 404 677 L 399 672 L 397 668 L 397 653 L 398 652 L 398 649 L 399 648 L 399 633 L 398 632 L 396 634 L 394 634 L 392 631 L 392 615 L 388 612 L 389 597 L 386 598 L 384 596 L 384 594 L 382 590 L 382 585 L 379 579 L 379 577 L 377 574 L 377 573 L 380 570 L 382 570 L 385 567 L 385 566 L 383 564 L 380 564 L 379 565 L 373 565 L 372 566 L 357 567 L 356 566 L 349 566 L 348 565 L 342 565 L 341 564 L 332 563 L 331 562 L 324 561 L 321 559 L 317 559 L 316 558 L 312 558 L 312 560 L 315 563 L 332 570 L 340 571 L 342 573 L 341 579 L 340 580 L 340 583 L 338 587 L 338 590 L 339 591 L 339 598 L 337 600 L 336 600 L 334 598 L 332 599 L 332 603 L 333 604 L 333 629 L 331 632 L 326 631 L 326 634 L 327 635 L 327 642 L 328 643 L 328 652 L 327 653 L 327 658 L 324 664 L 317 669 L 314 669 L 313 670 L 311 670 L 310 671 L 306 671 L 305 672 L 293 673 L 292 674 L 282 674 L 281 675 L 276 675 L 275 676 L 241 676 L 239 674 L 239 672 L 238 671 L 239 660 L 240 659 L 241 654 L 240 653 L 238 653 L 235 656 L 233 660 L 233 663 L 232 664 L 232 669 L 233 670 L 233 673 L 231 675 L 229 674 L 222 674 L 221 673 L 218 673 L 214 670 L 214 659 L 215 658 L 215 655 L 217 651 L 216 649 L 214 649 L 209 655 L 209 658 L 208 659 L 208 668 L 206 670 L 205 670 L 199 665 L 198 663 L 198 660 L 197 659 L 198 649 L 199 648 L 200 643 L 202 641 L 202 640 L 208 634 L 213 631 L 215 631 L 219 629 L 222 629 L 223 628 L 231 628 L 235 626 L 235 624 L 233 622 L 233 620 L 232 619 L 232 616 L 231 615 L 231 612 L 230 611 L 230 608 L 229 607 L 229 600 L 228 599 L 228 596 L 227 595 L 227 586 L 223 583 L 226 570 L 225 569 L 223 570 L 220 570 L 219 569 L 219 563 L 221 559 L 221 556 L 223 552 L 224 546 L 226 543 L 225 541 L 221 543 L 219 541 L 219 538 L 221 535 L 221 533 L 224 528 L 224 526 L 226 524 L 225 522 L 221 523 L 220 522 L 220 518 L 222 516 L 225 510 L 225 508 L 227 505 L 227 502 L 229 500 L 230 500 L 232 502 L 233 501 L 233 498 L 228 488 L 226 477 L 225 477 L 223 479 L 222 479 L 220 477 L 219 470 L 220 469 L 220 459 L 221 458 L 221 454 L 220 453 L 218 456 L 216 456 L 215 455 L 215 447 L 216 446 L 216 442 L 217 441 L 218 434 L 219 433 L 219 431 L 222 424 L 221 423 L 215 426 L 213 424 L 213 422 L 214 421 L 215 416 L 220 406 L 222 404 L 223 401 L 228 394 L 226 393 L 225 394 L 222 394 L 220 395 L 218 393 L 218 392 L 223 384 L 234 371 L 233 369 L 231 370 L 228 370 L 226 368 L 226 367 L 237 351 L 238 343 L 239 342 L 239 340 L 240 339 L 240 337 L 241 336 L 241 334 L 244 327 L 244 322 L 243 321 L 241 321 L 239 323 L 236 329 L 236 331 L 233 335 L 230 335 L 223 331 L 221 331 L 214 328 L 211 325 L 216 321 L 215 320 L 209 319 L 208 318 L 205 318 L 204 317 L 202 317 L 195 314 L 193 312 L 193 311 L 195 309 L 198 308 L 199 306 L 195 304 L 187 302 L 175 296 L 172 293 L 172 290 L 174 288 L 180 288 L 181 287 L 177 284 L 165 278 L 153 267 L 152 263 L 154 261 L 156 261 L 157 262 L 161 262 L 162 261 L 148 246 L 148 245 L 142 237 L 133 219 L 133 217 L 130 210 L 130 207 L 128 203 L 127 193 L 126 192 L 125 182 L 124 181 L 124 175 L 116 166 L 105 147 L 105 145 L 102 140 L 101 134 L 100 133 L 100 122 L 103 118 L 107 116 L 111 116 L 115 118 L 117 117 L 116 111 L 115 110 L 115 106 L 114 105 L 114 100 L 115 99 L 115 96 L 116 94 L 122 89 L 130 89 L 135 94 L 139 101 L 139 103 L 141 107 L 142 107 L 142 103 L 141 102 L 141 95 L 140 94 L 140 86 L 141 85 L 141 81 L 142 80 L 142 78 L 147 73 L 149 72 L 156 72 L 163 79 L 165 83 L 165 86 L 166 87 L 166 91 L 167 92 L 167 96 L 168 97 L 168 102 L 169 102 L 170 100 L 171 91 L 175 82 L 181 76 L 187 76 L 192 81 L 193 83 L 193 86 L 194 87 L 194 94 L 195 95 L 195 109 L 198 109 L 207 102 L 213 102 L 219 109 L 219 113 L 220 114 L 219 126 L 217 129 L 217 131 L 214 137 L 207 146 L 207 150 L 210 156 L 212 158 L 214 165 L 217 170 L 217 172 L 221 179 L 221 181 L 225 188 L 227 186 L 229 186 L 231 188 L 233 192 L 234 197 L 236 200 L 237 205 L 240 211 L 242 211 L 243 209 L 245 209 L 247 211 L 250 216 L 250 219 L 251 220 L 252 225 L 253 226 L 255 223 L 257 223 L 259 225 L 263 234 L 265 235 L 265 234 L 267 232 L 271 237 L 274 244 L 276 246 L 277 246 L 278 245 L 278 239 L 273 231 L 265 222 L 263 222 L 258 217 L 256 213 L 253 215 L 249 211 L 247 204 L 246 203 L 246 193 L 241 193 L 238 190 L 238 179 L 239 178 L 239 174 L 240 172 L 239 171 L 235 172 L 233 170 L 233 164 L 239 153 L 239 151 L 238 150 L 237 151 L 232 151 L 230 149 L 230 146 L 242 132 L 242 130 L 241 129 L 241 123 L 246 113 L 246 111 L 250 104 L 250 102 L 249 101 L 245 100 L 235 92 L 229 81 L 229 76 L 228 75 L 228 73 L 229 72 L 230 62 L 235 53 L 240 48 L 241 48 L 244 45 L 249 42 L 251 42 L 254 40 L 257 40 L 258 39 L 267 39 L 268 40 L 273 41 L 275 43 L 279 45 L 287 54 L 298 46 L 304 43 L 309 42 L 314 36 L 320 36 L 321 35 L 332 35 L 333 34 L 333 32 L 330 28 L 330 25 L 332 23 L 339 24 L 347 28 L 349 30 L 351 30 L 357 23 L 364 19 L 365 19 L 368 22 L 368 24 L 366 27 L 366 29 L 367 30 L 371 30 L 372 29 L 385 29 L 386 30 L 391 30 L 392 31 L 396 31 L 397 32 L 405 33 L 410 36 L 412 36 L 414 33 L 414 30 L 415 28 L 418 25 L 418 24 L 427 16 L 431 14 L 439 12 L 440 11 L 445 11 L 446 12 L 451 12 L 452 13 Z" fill="#010101" fill-rule="evenodd"/></svg>