<svg xmlns="http://www.w3.org/2000/svg" viewBox="0 0 653 704" shape-rendering="geometricPrecision"><title>intro frame 050</title><path d="M 230 524 L 226 527 L 223 536 L 215 544 L 213 550 L 210 553 L 206 555 L 202 560 L 203 569 L 198 578 L 198 582 L 197 583 L 197 607 L 194 616 L 194 620 L 201 624 L 203 624 L 212 628 L 215 632 L 213 634 L 208 634 L 207 633 L 197 632 L 196 631 L 190 631 L 189 630 L 173 630 L 168 634 L 168 638 L 169 639 L 184 639 L 191 642 L 204 656 L 205 658 L 205 662 L 207 664 L 210 663 L 221 673 L 223 673 L 226 676 L 235 677 L 236 678 L 241 678 L 247 674 L 252 669 L 251 654 L 254 648 L 254 644 L 258 638 L 258 635 L 260 633 L 263 632 L 264 629 L 268 624 L 267 623 L 271 620 L 271 618 L 277 608 L 278 600 L 284 588 L 284 585 L 287 581 L 287 576 L 289 571 L 289 563 L 287 560 L 287 558 L 282 553 L 278 551 L 272 545 L 266 542 L 254 532 L 251 531 L 247 527 L 245 527 L 240 524 Z M 367 519 L 365 519 L 362 521 L 359 525 L 357 530 L 354 533 L 353 536 L 353 540 L 354 541 L 358 542 L 361 540 L 369 529 L 370 522 Z M 380 519 L 379 521 L 379 534 L 378 535 L 378 539 L 375 543 L 369 543 L 362 547 L 361 554 L 363 555 L 367 553 L 368 554 L 373 553 L 375 556 L 377 557 L 382 551 L 382 549 L 385 546 L 385 544 L 388 540 L 398 531 L 402 525 L 406 522 L 409 524 L 411 528 L 401 539 L 398 548 L 398 553 L 393 561 L 388 573 L 388 587 L 389 588 L 389 595 L 391 598 L 391 600 L 399 607 L 399 609 L 407 618 L 414 618 L 418 620 L 438 620 L 439 621 L 442 621 L 451 618 L 461 617 L 467 613 L 471 613 L 473 611 L 478 609 L 488 600 L 490 595 L 490 593 L 488 591 L 488 588 L 486 589 L 479 589 L 478 588 L 471 589 L 466 585 L 466 582 L 464 577 L 464 569 L 462 566 L 462 555 L 466 552 L 462 547 L 462 541 L 459 538 L 454 537 L 451 534 L 443 529 L 436 528 L 428 523 L 422 522 L 420 520 L 419 517 L 410 508 L 407 509 L 407 515 L 406 518 L 404 520 L 391 518 L 387 516 L 383 516 Z M 368 501 L 370 503 L 370 508 L 373 508 L 375 506 L 384 506 L 385 507 L 388 506 L 397 506 L 398 504 L 400 503 L 400 502 L 397 500 L 383 499 L 379 497 L 376 498 L 373 497 Z M 449 233 L 451 236 L 451 238 L 453 240 L 456 241 L 456 237 L 452 235 L 452 232 Z M 467 213 L 466 218 L 467 219 L 467 222 L 469 221 L 469 214 Z M 63 160 L 63 161 L 67 160 L 73 162 L 69 159 Z M 114 131 L 115 133 L 119 133 L 121 135 L 123 134 L 120 130 L 117 129 Z M 437 52 L 425 51 L 424 52 L 418 53 L 414 56 L 410 57 L 404 64 L 402 71 L 400 73 L 395 73 L 391 71 L 383 70 L 378 68 L 373 68 L 372 67 L 361 67 L 360 68 L 355 67 L 354 68 L 351 68 L 348 65 L 351 57 L 350 56 L 346 58 L 345 60 L 338 66 L 335 66 L 332 64 L 330 64 L 326 61 L 321 60 L 320 61 L 321 68 L 318 71 L 302 71 L 299 73 L 299 75 L 297 77 L 291 78 L 283 82 L 277 88 L 278 90 L 285 90 L 288 93 L 289 97 L 285 101 L 278 104 L 271 110 L 267 107 L 267 100 L 271 96 L 271 93 L 265 84 L 256 77 L 253 77 L 250 75 L 243 75 L 237 77 L 225 85 L 221 90 L 217 98 L 217 112 L 221 120 L 227 126 L 234 128 L 237 131 L 236 138 L 232 145 L 232 147 L 230 150 L 230 153 L 228 156 L 229 164 L 218 177 L 218 179 L 224 177 L 227 180 L 227 182 L 221 193 L 221 196 L 220 198 L 225 196 L 228 200 L 226 204 L 226 209 L 225 210 L 225 214 L 224 216 L 226 219 L 230 216 L 233 218 L 233 227 L 232 228 L 232 231 L 234 237 L 237 239 L 241 236 L 243 238 L 245 244 L 261 261 L 264 261 L 270 263 L 278 268 L 286 278 L 286 282 L 285 283 L 282 283 L 269 275 L 268 275 L 262 282 L 258 282 L 254 278 L 251 269 L 245 262 L 243 262 L 243 265 L 241 267 L 238 267 L 234 262 L 229 253 L 228 256 L 226 258 L 224 258 L 220 254 L 215 243 L 213 241 L 212 241 L 211 245 L 208 248 L 205 247 L 198 238 L 198 236 L 196 234 L 193 227 L 190 224 L 186 227 L 184 227 L 180 223 L 177 217 L 162 198 L 156 192 L 154 188 L 154 184 L 157 178 L 157 172 L 158 171 L 158 158 L 156 153 L 151 147 L 148 148 L 156 157 L 156 167 L 155 168 L 155 171 L 149 178 L 147 179 L 143 179 L 135 172 L 135 163 L 137 161 L 133 156 L 133 153 L 130 148 L 130 146 L 129 146 L 130 149 L 130 158 L 125 164 L 122 165 L 121 164 L 118 164 L 113 161 L 108 162 L 104 158 L 102 151 L 95 140 L 89 134 L 86 134 L 80 139 L 80 144 L 81 144 L 83 140 L 86 137 L 92 139 L 97 144 L 103 158 L 103 164 L 102 166 L 97 170 L 88 170 L 85 172 L 81 168 L 76 165 L 83 173 L 83 175 L 85 178 L 85 182 L 84 184 L 78 189 L 67 186 L 63 189 L 61 188 L 57 189 L 55 192 L 55 199 L 57 202 L 58 202 L 57 195 L 59 192 L 63 189 L 67 189 L 69 191 L 73 192 L 78 197 L 79 199 L 79 206 L 74 211 L 69 211 L 67 209 L 64 208 L 63 210 L 82 229 L 86 232 L 90 233 L 92 235 L 96 242 L 98 248 L 111 262 L 116 269 L 128 281 L 129 281 L 137 289 L 155 302 L 159 303 L 161 305 L 163 305 L 165 307 L 167 307 L 170 309 L 176 311 L 182 311 L 186 314 L 186 317 L 181 321 L 181 323 L 192 323 L 194 322 L 200 327 L 203 327 L 204 328 L 218 328 L 220 330 L 220 332 L 213 338 L 213 340 L 215 341 L 218 341 L 223 343 L 228 343 L 229 342 L 231 335 L 236 327 L 236 323 L 237 320 L 239 318 L 241 308 L 243 306 L 244 302 L 248 297 L 248 294 L 250 289 L 255 284 L 258 285 L 257 293 L 251 299 L 254 303 L 244 314 L 248 318 L 248 320 L 243 325 L 243 332 L 239 342 L 239 350 L 235 362 L 236 364 L 242 358 L 247 357 L 249 359 L 249 365 L 246 371 L 231 385 L 231 387 L 225 394 L 226 395 L 228 394 L 231 398 L 226 407 L 218 416 L 219 417 L 224 416 L 227 419 L 226 424 L 216 442 L 216 443 L 220 441 L 222 441 L 224 443 L 224 448 L 222 451 L 221 459 L 218 468 L 219 469 L 225 464 L 228 466 L 228 471 L 227 472 L 227 476 L 225 481 L 225 490 L 227 487 L 230 485 L 233 489 L 233 502 L 240 509 L 243 510 L 253 519 L 268 528 L 272 526 L 272 522 L 270 517 L 270 499 L 272 496 L 274 496 L 276 498 L 276 501 L 275 502 L 275 513 L 276 514 L 277 523 L 280 526 L 281 531 L 283 532 L 286 535 L 286 537 L 296 546 L 298 546 L 301 548 L 310 551 L 318 552 L 319 553 L 325 553 L 328 555 L 331 555 L 335 553 L 342 547 L 344 547 L 345 545 L 342 545 L 336 548 L 330 548 L 326 552 L 325 551 L 326 548 L 332 542 L 341 537 L 350 529 L 354 522 L 358 518 L 360 511 L 362 509 L 362 505 L 355 499 L 354 497 L 355 489 L 353 485 L 350 482 L 344 480 L 341 482 L 334 483 L 332 481 L 332 475 L 337 470 L 337 468 L 335 466 L 335 462 L 329 456 L 320 451 L 315 447 L 312 446 L 307 442 L 304 441 L 298 435 L 296 431 L 295 424 L 288 414 L 287 407 L 286 406 L 286 402 L 284 397 L 284 394 L 286 389 L 286 385 L 287 384 L 287 380 L 291 371 L 295 367 L 296 363 L 307 352 L 310 351 L 315 347 L 325 346 L 326 345 L 332 345 L 335 343 L 344 342 L 353 339 L 356 337 L 358 337 L 361 335 L 364 335 L 370 331 L 382 331 L 383 330 L 390 331 L 391 330 L 395 330 L 396 331 L 401 331 L 407 334 L 411 334 L 415 337 L 415 340 L 412 343 L 408 345 L 389 347 L 388 348 L 381 348 L 369 352 L 360 353 L 358 355 L 355 355 L 346 359 L 341 359 L 340 360 L 325 360 L 317 364 L 317 367 L 321 372 L 320 377 L 318 379 L 305 383 L 301 387 L 301 391 L 303 396 L 306 397 L 313 397 L 316 400 L 316 405 L 317 406 L 316 408 L 320 414 L 320 417 L 318 419 L 313 421 L 311 423 L 311 425 L 312 426 L 315 426 L 320 422 L 329 421 L 332 424 L 331 435 L 333 438 L 351 437 L 353 435 L 360 435 L 365 432 L 373 432 L 380 429 L 386 429 L 389 430 L 398 422 L 402 421 L 405 419 L 412 419 L 413 420 L 416 419 L 426 419 L 428 417 L 431 417 L 437 411 L 439 410 L 447 410 L 455 406 L 459 402 L 462 402 L 466 405 L 469 402 L 472 402 L 479 393 L 479 389 L 480 388 L 480 383 L 485 378 L 488 378 L 491 373 L 491 370 L 493 365 L 493 359 L 487 344 L 487 338 L 486 335 L 482 329 L 463 308 L 463 305 L 465 303 L 466 304 L 468 304 L 468 303 L 459 295 L 453 292 L 448 287 L 449 282 L 441 278 L 438 278 L 435 275 L 432 274 L 427 274 L 426 275 L 412 275 L 406 280 L 402 277 L 403 270 L 409 261 L 411 261 L 412 262 L 412 265 L 414 265 L 417 259 L 417 257 L 419 255 L 421 255 L 423 257 L 426 255 L 426 246 L 428 244 L 432 247 L 433 253 L 435 255 L 438 253 L 440 248 L 439 247 L 435 247 L 433 245 L 433 242 L 432 241 L 433 238 L 437 234 L 439 234 L 442 238 L 442 243 L 444 242 L 445 238 L 442 234 L 440 229 L 434 222 L 436 220 L 439 220 L 446 224 L 447 221 L 445 218 L 445 214 L 447 212 L 450 213 L 453 217 L 454 216 L 454 210 L 450 205 L 449 202 L 450 201 L 453 202 L 454 201 L 454 198 L 448 190 L 448 188 L 449 187 L 453 187 L 456 190 L 458 189 L 462 189 L 464 190 L 466 193 L 466 196 L 465 197 L 466 201 L 469 200 L 472 200 L 475 202 L 476 201 L 474 193 L 471 188 L 470 180 L 473 177 L 475 177 L 477 179 L 477 175 L 474 172 L 472 168 L 470 167 L 465 161 L 465 159 L 468 156 L 472 156 L 472 154 L 469 151 L 466 150 L 461 145 L 461 140 L 462 139 L 461 135 L 459 133 L 449 115 L 442 107 L 445 103 L 451 100 L 456 95 L 460 86 L 460 75 L 458 69 L 456 67 L 455 64 L 449 58 Z M 255 489 L 257 490 L 257 494 L 256 495 L 254 494 L 254 490 Z M 250 463 L 251 464 L 250 468 L 247 471 L 245 469 L 246 468 L 246 465 L 248 463 Z M 247 443 L 249 446 L 247 448 L 247 450 L 242 458 L 239 459 L 238 458 L 238 455 L 240 452 L 240 450 L 243 445 Z M 244 428 L 246 430 L 245 435 L 242 438 L 240 438 L 239 437 L 241 430 Z M 385 274 L 383 279 L 368 294 L 364 296 L 353 305 L 351 305 L 343 309 L 337 308 L 324 301 L 321 298 L 319 298 L 311 292 L 304 284 L 304 280 L 306 278 L 310 278 L 318 281 L 335 282 L 341 280 L 354 279 L 355 278 L 362 277 L 380 271 L 382 271 Z M 399 270 L 401 272 L 399 276 L 393 281 L 392 278 L 394 274 Z M 127 172 L 136 180 L 141 190 L 140 199 L 137 204 L 131 210 L 125 214 L 122 215 L 117 219 L 113 220 L 108 223 L 102 224 L 101 225 L 95 225 L 88 222 L 80 213 L 80 205 L 81 204 L 81 201 L 88 186 L 100 174 L 108 170 L 111 170 L 112 169 L 120 169 L 125 172 Z M 370 157 L 374 152 L 382 148 L 386 148 L 387 147 L 402 148 L 410 151 L 418 157 L 420 161 L 420 169 L 416 174 L 407 178 L 392 178 L 391 177 L 387 177 L 378 173 L 371 166 L 370 163 Z M 292 141 L 296 137 L 302 136 L 303 135 L 318 135 L 321 137 L 324 137 L 327 141 L 327 144 L 325 146 L 321 146 L 313 143 L 301 143 L 297 145 L 294 145 L 292 143 Z M 274 128 L 278 128 L 282 132 L 283 138 L 284 139 L 282 145 L 282 148 L 281 149 L 282 151 L 288 149 L 302 149 L 303 150 L 306 150 L 318 156 L 321 161 L 321 163 L 320 164 L 320 167 L 317 172 L 307 182 L 297 187 L 295 186 L 293 187 L 287 187 L 278 184 L 270 176 L 267 170 L 266 170 L 265 184 L 267 187 L 267 189 L 270 192 L 277 195 L 281 195 L 283 193 L 287 192 L 290 189 L 296 189 L 306 193 L 311 193 L 312 194 L 325 194 L 326 193 L 329 193 L 338 190 L 344 187 L 351 181 L 353 176 L 355 174 L 358 174 L 363 179 L 365 183 L 366 196 L 367 197 L 367 206 L 366 207 L 366 216 L 365 217 L 364 225 L 363 226 L 363 229 L 361 235 L 355 247 L 348 254 L 345 255 L 341 259 L 333 263 L 330 263 L 329 264 L 319 263 L 309 258 L 295 245 L 290 239 L 287 233 L 284 230 L 281 223 L 279 221 L 278 213 L 277 212 L 277 207 L 264 201 L 257 193 L 255 187 L 255 178 L 254 178 L 245 188 L 239 190 L 233 188 L 229 182 L 229 176 L 231 172 L 238 165 L 241 164 L 243 162 L 246 161 L 252 161 L 258 166 L 263 165 L 266 167 L 266 163 L 268 159 L 268 156 L 265 153 L 264 150 L 264 142 L 267 134 Z M 356 122 L 360 122 L 362 123 L 369 131 L 369 135 L 370 136 L 369 147 L 363 154 L 356 154 L 354 153 L 350 149 L 348 143 L 348 137 L 349 136 L 349 133 L 351 127 Z M 249 90 L 253 92 L 258 97 L 258 99 L 247 115 L 246 118 L 242 122 L 239 122 L 232 116 L 229 110 L 229 102 L 232 96 L 239 90 L 242 89 Z M 354 84 L 359 80 L 366 80 L 373 83 L 378 88 L 379 91 L 378 95 L 375 98 L 371 98 L 366 95 L 361 94 L 357 92 L 354 89 Z M 427 64 L 433 64 L 440 68 L 445 73 L 448 80 L 448 86 L 445 92 L 441 96 L 436 99 L 433 98 L 414 81 L 414 75 L 421 67 Z" fill="#FBFBFB" fill-rule="evenodd"/><path d="M 181 602 L 181 613 L 175 618 L 168 619 L 163 621 L 161 623 L 159 623 L 149 635 L 147 640 L 148 637 L 161 624 L 167 620 L 177 618 L 180 615 L 181 613 Z M 340 593 L 337 593 L 333 596 L 323 606 L 320 612 L 315 616 L 308 625 L 308 629 L 308 625 L 310 623 L 311 620 L 321 611 L 322 608 L 331 598 L 336 594 Z M 250 464 L 247 465 L 247 468 L 246 469 L 247 470 L 249 468 Z M 221 452 L 218 466 L 217 467 L 217 471 L 218 472 L 224 466 L 227 468 L 225 480 L 226 472 L 227 471 L 227 466 L 225 465 L 219 470 L 217 468 L 218 467 L 218 463 L 220 459 Z M 527 450 L 528 452 L 528 456 L 529 457 L 529 467 L 528 468 L 528 472 L 527 473 L 526 479 L 524 481 L 524 483 L 522 486 L 512 496 L 508 498 L 507 501 L 515 504 L 518 504 L 527 509 L 538 520 L 546 533 L 540 522 L 524 506 L 516 502 L 513 502 L 511 500 L 511 498 L 524 484 L 527 476 L 528 468 L 529 467 L 529 457 L 528 456 L 528 452 Z M 247 444 L 244 445 L 242 448 L 241 452 L 239 455 L 239 458 L 241 458 L 244 454 L 246 448 L 248 446 Z M 244 429 L 242 430 L 240 437 L 242 437 L 244 435 L 245 432 Z M 497 422 L 490 417 L 474 428 L 467 428 L 455 436 L 451 436 L 447 438 L 434 438 L 428 441 L 426 441 L 419 445 L 416 448 L 410 450 L 393 452 L 391 454 L 387 454 L 386 455 L 375 455 L 367 459 L 354 459 L 345 456 L 333 456 L 317 448 L 308 442 L 329 455 L 336 462 L 336 466 L 338 468 L 338 470 L 333 475 L 333 481 L 336 482 L 337 481 L 341 481 L 344 479 L 350 481 L 354 485 L 356 489 L 356 494 L 355 495 L 356 499 L 363 505 L 363 509 L 361 511 L 359 518 L 355 522 L 351 529 L 341 538 L 332 543 L 327 548 L 326 551 L 330 547 L 336 547 L 342 544 L 345 544 L 346 545 L 344 548 L 342 548 L 335 554 L 331 556 L 328 556 L 325 554 L 319 554 L 318 553 L 310 552 L 301 549 L 298 547 L 296 547 L 285 537 L 285 535 L 280 531 L 280 528 L 276 523 L 276 519 L 274 513 L 274 502 L 275 501 L 275 498 L 274 497 L 272 497 L 271 499 L 271 517 L 273 522 L 273 526 L 271 528 L 268 529 L 253 520 L 243 511 L 240 510 L 232 502 L 232 489 L 230 486 L 228 487 L 225 491 L 224 490 L 224 482 L 224 493 L 225 494 L 228 490 L 230 490 L 232 493 L 232 506 L 238 509 L 241 512 L 247 515 L 252 520 L 259 524 L 268 532 L 272 534 L 275 534 L 285 543 L 289 544 L 296 549 L 302 551 L 303 553 L 302 554 L 293 554 L 292 553 L 289 553 L 279 548 L 268 539 L 248 526 L 246 526 L 240 523 L 228 523 L 226 524 L 221 531 L 221 535 L 214 542 L 208 545 L 211 550 L 207 553 L 201 560 L 201 566 L 202 569 L 197 578 L 197 582 L 197 578 L 202 569 L 201 560 L 206 554 L 212 550 L 214 544 L 222 536 L 225 527 L 230 523 L 240 523 L 245 526 L 247 526 L 251 530 L 254 531 L 266 541 L 272 544 L 278 550 L 282 552 L 288 558 L 288 560 L 290 563 L 290 571 L 288 576 L 288 581 L 285 585 L 285 588 L 279 600 L 278 608 L 273 616 L 272 620 L 268 623 L 269 624 L 265 629 L 264 632 L 262 634 L 259 635 L 259 638 L 255 644 L 255 648 L 252 654 L 253 669 L 243 678 L 241 679 L 236 679 L 235 678 L 226 677 L 223 674 L 221 674 L 210 664 L 207 665 L 204 662 L 204 658 L 203 656 L 191 643 L 184 640 L 169 640 L 167 638 L 167 634 L 172 630 L 169 631 L 166 634 L 165 637 L 166 639 L 166 643 L 167 644 L 170 642 L 176 641 L 177 642 L 184 642 L 186 644 L 185 650 L 184 651 L 184 664 L 186 665 L 188 664 L 189 660 L 191 658 L 192 655 L 194 653 L 197 653 L 202 658 L 205 665 L 210 670 L 224 677 L 232 678 L 233 679 L 246 679 L 247 678 L 258 678 L 262 680 L 269 680 L 272 679 L 276 675 L 278 669 L 278 665 L 279 664 L 279 658 L 274 653 L 271 647 L 272 636 L 274 635 L 278 638 L 280 637 L 280 629 L 282 626 L 282 623 L 286 615 L 293 607 L 299 607 L 304 602 L 308 600 L 310 598 L 312 592 L 314 590 L 315 587 L 319 584 L 318 581 L 312 576 L 310 576 L 305 570 L 307 568 L 316 569 L 318 571 L 321 571 L 327 575 L 333 576 L 342 580 L 349 580 L 350 581 L 368 581 L 372 579 L 374 577 L 374 575 L 380 569 L 383 560 L 390 550 L 390 546 L 391 544 L 394 541 L 396 543 L 396 553 L 393 559 L 390 562 L 390 564 L 388 567 L 387 574 L 386 575 L 388 595 L 391 602 L 401 614 L 416 626 L 418 626 L 424 629 L 429 629 L 433 631 L 436 631 L 439 633 L 451 633 L 452 634 L 454 633 L 456 634 L 458 633 L 462 633 L 474 629 L 496 615 L 502 609 L 506 601 L 508 599 L 508 597 L 518 585 L 520 585 L 522 587 L 522 591 L 520 597 L 521 606 L 527 613 L 529 614 L 534 614 L 535 613 L 546 614 L 548 613 L 548 612 L 541 612 L 539 611 L 537 608 L 541 604 L 545 602 L 548 602 L 553 599 L 559 599 L 560 598 L 560 592 L 559 591 L 558 582 L 552 570 L 550 568 L 549 564 L 544 557 L 532 534 L 528 529 L 518 520 L 510 517 L 502 517 L 499 520 L 497 527 L 494 531 L 494 537 L 493 538 L 494 567 L 491 573 L 486 578 L 483 578 L 479 580 L 477 578 L 477 573 L 474 569 L 475 559 L 478 552 L 478 542 L 474 536 L 474 529 L 476 526 L 476 524 L 479 521 L 483 512 L 490 502 L 491 499 L 494 496 L 497 490 L 499 484 L 499 468 L 501 466 L 504 465 L 503 455 L 499 444 L 499 439 L 502 436 L 502 434 Z M 367 518 L 371 522 L 370 529 L 361 541 L 358 543 L 354 542 L 352 540 L 353 533 L 356 530 L 358 525 L 361 521 L 365 518 Z M 379 519 L 383 515 L 387 515 L 391 517 L 404 519 L 406 515 L 406 509 L 408 507 L 410 507 L 420 517 L 422 521 L 428 522 L 436 527 L 443 528 L 451 533 L 454 536 L 459 537 L 463 541 L 463 547 L 467 552 L 463 555 L 463 566 L 465 569 L 465 577 L 466 578 L 467 585 L 471 588 L 474 588 L 475 587 L 486 588 L 488 587 L 489 588 L 489 591 L 491 593 L 489 600 L 478 610 L 473 612 L 471 614 L 467 614 L 461 618 L 451 619 L 442 622 L 439 622 L 438 621 L 418 621 L 414 619 L 407 619 L 398 609 L 398 607 L 390 600 L 390 598 L 388 595 L 388 588 L 387 587 L 387 573 L 390 567 L 390 565 L 397 553 L 397 548 L 400 539 L 410 528 L 407 523 L 404 524 L 399 531 L 389 540 L 386 544 L 386 546 L 383 549 L 383 551 L 377 558 L 376 558 L 373 554 L 371 555 L 368 555 L 367 554 L 363 556 L 360 554 L 361 547 L 363 545 L 369 542 L 375 542 L 377 539 L 377 535 L 378 534 L 378 521 Z M 362 500 L 363 499 L 366 499 L 367 501 L 366 502 L 363 502 Z M 367 501 L 373 496 L 375 497 L 379 496 L 383 498 L 397 499 L 399 500 L 401 503 L 399 504 L 397 507 L 388 507 L 387 508 L 384 507 L 375 507 L 373 509 L 370 509 L 369 508 L 369 503 Z M 228 402 L 217 416 L 218 418 L 224 417 L 226 419 L 225 424 L 218 435 L 215 442 L 216 445 L 219 443 L 222 443 L 223 444 L 222 450 L 223 448 L 223 443 L 220 442 L 216 444 L 215 442 L 225 424 L 226 419 L 224 417 L 219 418 L 217 416 L 225 407 Z M 316 365 L 316 368 L 319 371 L 319 376 L 313 380 L 301 384 L 300 385 L 300 390 L 300 387 L 305 382 L 313 380 L 319 377 L 320 372 L 316 367 Z M 247 358 L 242 359 L 236 365 L 234 363 L 235 359 L 234 361 L 234 367 L 236 368 L 244 360 L 246 362 L 246 366 L 245 369 L 239 375 L 237 376 L 235 374 L 235 372 L 234 372 L 234 378 L 231 384 L 236 380 L 247 368 L 248 365 L 248 359 Z M 491 351 L 494 359 L 494 365 L 493 366 L 492 373 L 488 379 L 485 379 L 481 383 L 481 388 L 480 389 L 480 393 L 479 395 L 472 403 L 469 403 L 466 406 L 462 403 L 459 403 L 455 407 L 447 411 L 439 411 L 437 412 L 431 418 L 428 418 L 426 420 L 416 420 L 415 421 L 412 420 L 405 420 L 402 422 L 398 423 L 389 431 L 386 430 L 380 430 L 373 433 L 365 433 L 360 436 L 353 436 L 351 438 L 333 439 L 330 435 L 331 424 L 329 422 L 320 423 L 315 427 L 312 427 L 310 425 L 310 423 L 313 420 L 319 417 L 319 414 L 315 408 L 316 407 L 315 405 L 315 400 L 313 398 L 306 398 L 303 397 L 301 395 L 301 392 L 301 396 L 304 399 L 310 399 L 313 402 L 309 409 L 309 413 L 311 417 L 310 426 L 312 428 L 314 428 L 320 424 L 323 424 L 325 426 L 325 429 L 324 430 L 325 433 L 328 437 L 333 440 L 355 439 L 356 438 L 381 436 L 388 431 L 397 430 L 398 428 L 403 424 L 407 424 L 409 426 L 421 425 L 428 422 L 437 413 L 440 413 L 442 415 L 441 419 L 442 419 L 450 411 L 457 407 L 460 407 L 462 409 L 466 409 L 468 411 L 468 413 L 469 413 L 472 410 L 479 396 L 482 385 L 484 383 L 487 383 L 491 387 L 491 389 L 493 388 L 492 384 L 493 383 L 493 378 L 494 377 L 494 359 Z M 313 415 L 316 414 L 317 416 L 314 417 Z M 406 334 L 401 332 L 396 332 L 395 331 L 391 331 L 390 332 L 386 332 L 385 331 L 382 332 L 370 332 L 364 336 L 361 336 L 353 340 L 344 343 L 341 343 L 340 344 L 335 344 L 332 346 L 326 346 L 325 347 L 315 348 L 310 352 L 307 353 L 297 363 L 296 367 L 292 371 L 288 380 L 287 389 L 285 394 L 289 414 L 295 422 L 296 426 L 294 420 L 289 414 L 285 394 L 289 384 L 289 379 L 291 373 L 299 364 L 301 360 L 308 353 L 318 348 L 322 348 L 323 347 L 332 346 L 333 345 L 340 345 L 356 338 L 362 337 L 367 334 L 370 334 L 371 333 L 387 334 L 390 332 L 401 332 Z M 442 278 L 448 280 L 450 282 L 449 287 L 453 291 L 459 294 L 469 303 L 468 305 L 465 304 L 464 305 L 464 308 L 474 319 L 464 307 L 466 305 L 472 307 L 469 302 L 459 294 L 456 293 L 450 287 L 453 284 L 452 282 Z M 95 273 L 97 277 L 103 284 L 104 287 L 110 293 L 110 294 L 119 301 L 126 308 L 126 313 L 126 307 L 116 299 L 105 288 Z M 384 274 L 382 272 L 380 272 L 379 273 L 375 273 L 354 280 L 341 281 L 335 283 L 318 282 L 314 280 L 306 279 L 305 280 L 305 284 L 311 291 L 319 297 L 321 297 L 324 300 L 337 307 L 343 308 L 346 306 L 353 304 L 364 295 L 368 293 L 382 279 Z M 382 276 L 363 294 L 359 296 L 352 302 L 344 306 L 339 306 L 333 304 L 331 302 L 315 293 L 306 284 L 306 282 L 308 280 L 317 283 L 336 284 L 337 283 L 344 283 L 350 281 L 361 280 L 367 277 L 373 276 L 377 274 L 380 274 Z M 399 271 L 395 274 L 393 280 L 398 276 L 400 272 Z M 288 234 L 296 245 L 309 257 L 319 262 L 324 262 L 325 263 L 333 262 L 341 258 L 345 254 L 348 253 L 354 247 L 357 241 L 356 244 L 350 251 L 345 253 L 339 258 L 330 262 L 325 262 L 324 261 L 319 261 L 307 255 L 298 247 Z M 43 199 L 43 203 L 45 209 L 53 220 L 63 230 L 76 240 L 83 247 L 83 249 L 82 245 L 79 242 L 75 240 L 54 221 L 52 217 L 46 210 L 43 203 Z M 61 191 L 58 195 L 59 202 L 57 203 L 55 200 L 56 204 L 65 215 L 72 221 L 72 222 L 84 232 L 87 233 L 93 239 L 96 248 L 103 263 L 108 271 L 118 283 L 136 299 L 144 305 L 146 305 L 149 308 L 149 311 L 147 313 L 141 313 L 141 315 L 150 321 L 152 321 L 158 324 L 166 325 L 171 330 L 167 335 L 167 337 L 172 340 L 178 342 L 182 342 L 186 344 L 193 345 L 195 347 L 193 351 L 194 354 L 208 356 L 210 357 L 215 363 L 220 363 L 222 361 L 225 350 L 227 348 L 227 346 L 230 343 L 232 335 L 234 331 L 238 327 L 238 322 L 244 317 L 246 320 L 241 325 L 242 332 L 242 325 L 247 320 L 247 318 L 243 314 L 253 303 L 250 299 L 256 293 L 257 285 L 255 285 L 250 291 L 249 297 L 245 302 L 245 304 L 242 308 L 241 315 L 237 323 L 237 327 L 232 335 L 230 342 L 228 344 L 223 344 L 222 343 L 215 342 L 212 340 L 212 338 L 219 332 L 218 329 L 204 329 L 203 328 L 200 328 L 194 323 L 192 324 L 181 324 L 180 321 L 185 317 L 185 314 L 182 312 L 176 312 L 170 310 L 167 308 L 165 308 L 163 306 L 161 306 L 159 304 L 155 303 L 137 290 L 129 282 L 128 282 L 115 269 L 110 262 L 97 248 L 95 242 L 91 235 L 88 233 L 86 233 L 82 230 L 62 210 L 64 207 L 67 208 L 69 210 L 74 210 L 78 206 L 78 199 L 73 193 L 69 192 L 67 190 L 63 190 Z M 207 332 L 208 331 L 213 331 L 214 333 L 210 336 Z M 169 313 L 171 311 L 172 312 L 181 313 L 183 316 L 181 318 L 177 318 L 174 316 L 172 316 Z M 59 194 L 63 191 L 68 191 L 72 193 L 78 200 L 78 204 L 77 206 L 73 209 L 66 207 L 60 202 L 59 200 Z M 168 181 L 168 187 L 175 194 L 178 199 L 185 207 L 191 207 L 193 208 L 199 214 L 203 223 L 205 225 L 208 225 L 213 223 L 213 220 L 210 224 L 205 225 L 203 223 L 199 214 L 195 209 L 191 207 L 185 207 L 175 195 L 172 190 L 168 187 Z M 264 178 L 264 184 L 266 189 L 274 196 L 282 196 L 292 190 L 302 192 L 306 194 L 311 194 L 306 194 L 296 190 L 290 190 L 287 193 L 283 194 L 281 196 L 274 195 L 270 193 L 266 189 L 266 187 L 264 184 Z M 355 175 L 352 181 L 347 186 L 338 191 L 329 194 L 326 194 L 325 195 L 313 195 L 325 195 L 326 194 L 329 194 L 338 191 L 347 186 L 352 181 L 354 177 L 356 175 L 358 175 L 362 179 L 364 184 L 364 187 L 365 188 L 365 200 L 366 201 L 364 220 L 363 221 L 361 232 L 358 239 L 362 229 L 363 221 L 365 216 L 366 197 L 365 196 L 364 183 L 362 179 L 358 175 Z M 243 175 L 246 178 L 248 178 L 247 174 L 244 174 Z M 127 173 L 125 173 L 120 170 L 112 170 L 111 171 L 108 171 L 100 175 L 89 186 L 83 198 L 82 204 L 81 205 L 81 213 L 88 221 L 95 224 L 101 224 L 102 223 L 108 222 L 113 219 L 117 218 L 122 214 L 125 213 L 131 209 L 136 204 L 139 199 L 140 190 L 135 180 Z M 127 174 L 136 182 L 139 188 L 139 198 L 137 202 L 130 209 L 110 221 L 104 223 L 94 223 L 89 221 L 82 214 L 81 212 L 81 205 L 84 196 L 91 184 L 98 177 L 104 173 L 110 171 L 120 171 L 123 172 L 125 174 Z M 262 166 L 265 168 L 265 175 L 265 170 L 267 169 L 271 176 L 278 183 L 287 186 L 293 186 L 294 185 L 297 186 L 304 183 L 316 172 L 319 167 L 319 165 L 319 167 L 315 173 L 306 181 L 297 185 L 286 185 L 277 182 L 271 176 L 267 168 L 267 163 L 267 167 L 266 168 Z M 260 167 L 258 167 L 252 162 L 246 162 L 238 166 L 232 172 L 230 176 L 230 182 L 232 186 L 237 189 L 243 188 L 245 187 L 254 177 L 256 178 L 256 187 L 256 174 L 258 169 Z M 254 164 L 256 166 L 256 170 L 254 172 L 251 172 L 252 172 L 253 174 L 251 175 L 250 180 L 244 186 L 242 186 L 239 188 L 235 187 L 230 181 L 230 178 L 232 173 L 237 168 L 243 164 L 246 164 L 247 163 Z M 227 157 L 228 164 L 217 176 L 216 179 L 217 181 L 221 179 L 224 179 L 225 180 L 225 184 L 220 193 L 219 199 L 221 200 L 224 198 L 226 200 L 226 203 L 227 200 L 225 197 L 221 199 L 219 198 L 220 193 L 226 182 L 226 180 L 224 178 L 218 180 L 217 177 L 227 166 L 228 164 Z M 371 157 L 371 163 L 372 166 L 378 172 L 387 176 L 391 176 L 392 177 L 407 177 L 416 173 L 419 169 L 419 161 L 417 157 L 410 152 L 402 149 L 397 149 L 396 148 L 382 149 L 374 153 Z M 371 159 L 376 153 L 384 149 L 399 149 L 412 154 L 418 160 L 419 162 L 419 168 L 414 173 L 408 176 L 396 177 L 395 176 L 387 175 L 378 171 L 373 166 Z M 92 140 L 86 138 L 81 145 L 79 144 L 79 140 L 78 142 L 78 146 L 81 148 L 83 143 L 86 140 L 90 141 L 97 148 L 101 156 L 101 165 L 96 169 L 92 169 L 88 167 L 86 170 L 84 170 L 72 159 L 68 157 L 63 158 L 61 160 L 59 166 L 60 172 L 61 172 L 62 165 L 65 162 L 67 162 L 75 167 L 81 173 L 83 176 L 84 181 L 79 187 L 74 187 L 66 183 L 66 185 L 64 187 L 62 187 L 62 188 L 65 187 L 67 185 L 78 188 L 83 184 L 84 182 L 84 178 L 82 175 L 82 173 L 75 165 L 76 164 L 81 167 L 85 171 L 88 169 L 97 169 L 101 166 L 102 164 L 102 158 L 96 144 Z M 62 160 L 66 158 L 69 158 L 74 162 L 73 163 L 67 161 L 63 162 Z M 293 141 L 294 144 L 297 144 L 301 142 L 313 142 L 321 145 L 325 145 L 326 144 L 325 139 L 324 138 L 321 138 L 318 136 L 303 136 L 302 137 L 296 138 Z M 311 139 L 312 138 L 318 138 L 321 139 L 323 142 L 320 143 L 316 141 L 312 141 Z M 300 139 L 303 138 L 304 140 L 301 141 Z M 80 138 L 84 134 L 89 133 L 96 140 L 102 149 L 105 158 L 108 161 L 113 160 L 118 163 L 121 163 L 122 164 L 125 163 L 129 158 L 129 149 L 128 146 L 130 145 L 134 153 L 134 156 L 138 161 L 136 163 L 136 172 L 143 178 L 147 178 L 149 177 L 154 171 L 154 168 L 155 167 L 155 157 L 147 148 L 149 146 L 151 146 L 155 150 L 159 158 L 159 171 L 158 172 L 158 178 L 155 184 L 155 188 L 157 192 L 163 198 L 178 217 L 181 223 L 184 226 L 186 226 L 190 223 L 194 227 L 197 234 L 199 236 L 199 238 L 205 246 L 208 247 L 210 245 L 211 241 L 213 240 L 216 243 L 221 254 L 224 257 L 226 257 L 227 254 L 229 252 L 238 266 L 241 266 L 242 265 L 242 262 L 245 261 L 252 269 L 255 278 L 258 281 L 262 281 L 265 277 L 269 274 L 282 282 L 285 282 L 285 278 L 281 272 L 278 269 L 270 264 L 264 262 L 261 262 L 244 244 L 243 240 L 241 237 L 236 240 L 233 237 L 232 232 L 232 235 L 234 239 L 237 242 L 241 239 L 243 241 L 245 246 L 255 255 L 265 270 L 265 277 L 261 281 L 259 281 L 257 279 L 252 269 L 244 260 L 242 262 L 241 265 L 238 265 L 234 260 L 232 255 L 229 251 L 227 252 L 227 254 L 225 256 L 223 256 L 220 252 L 216 244 L 216 242 L 213 238 L 211 238 L 210 244 L 208 246 L 206 246 L 199 237 L 193 225 L 189 221 L 186 225 L 184 225 L 180 221 L 174 211 L 159 194 L 155 188 L 155 185 L 159 173 L 159 157 L 157 151 L 153 147 L 151 146 L 147 146 L 141 152 L 141 153 L 136 157 L 134 155 L 130 143 L 125 134 L 120 129 L 118 129 L 120 129 L 124 134 L 122 136 L 119 134 L 115 134 L 113 131 L 116 129 L 114 129 L 112 132 L 112 136 L 119 135 L 127 144 L 128 151 L 129 152 L 128 159 L 125 162 L 117 162 L 112 157 L 109 160 L 106 158 L 100 144 L 91 134 L 86 133 Z M 271 270 L 272 269 L 276 270 L 284 278 L 284 279 L 281 280 L 278 278 Z M 148 151 L 153 155 L 155 164 L 152 173 L 147 177 L 142 177 L 137 173 L 136 171 L 136 165 L 141 156 L 144 153 Z M 249 91 L 245 91 L 244 90 L 239 91 L 233 96 L 230 102 L 230 110 L 233 116 L 239 121 L 242 121 L 245 118 L 246 115 L 257 99 L 257 97 L 253 93 Z M 248 92 L 253 95 L 256 99 L 249 108 L 245 116 L 242 119 L 239 119 L 231 110 L 231 102 L 234 97 L 240 92 Z M 355 84 L 355 89 L 357 91 L 366 94 L 371 97 L 375 97 L 377 95 L 378 92 L 377 88 L 373 84 L 366 81 L 359 81 Z M 355 85 L 360 81 L 370 83 L 377 89 L 377 95 L 375 97 L 371 97 L 366 94 L 364 94 L 358 91 L 355 88 Z M 461 76 L 461 86 L 457 95 L 451 101 L 445 104 L 443 107 L 450 115 L 451 118 L 462 135 L 463 138 L 462 140 L 462 145 L 473 154 L 473 156 L 472 157 L 468 157 L 466 159 L 466 161 L 467 163 L 473 168 L 475 172 L 478 175 L 478 179 L 477 180 L 475 178 L 473 178 L 471 180 L 472 188 L 475 193 L 477 201 L 475 203 L 472 201 L 466 202 L 464 199 L 465 196 L 464 191 L 462 190 L 458 190 L 456 191 L 453 188 L 449 188 L 449 190 L 455 198 L 455 201 L 453 203 L 450 202 L 451 205 L 455 210 L 455 216 L 453 218 L 450 214 L 447 213 L 446 214 L 446 218 L 448 221 L 448 223 L 446 225 L 439 221 L 436 221 L 435 222 L 441 229 L 443 234 L 446 238 L 446 240 L 445 242 L 442 244 L 441 243 L 441 238 L 440 236 L 437 235 L 434 238 L 433 241 L 435 246 L 439 246 L 441 248 L 439 253 L 435 256 L 432 253 L 431 247 L 428 245 L 427 246 L 427 255 L 424 258 L 421 256 L 419 256 L 414 266 L 411 265 L 411 262 L 408 263 L 404 270 L 404 273 L 403 274 L 403 277 L 405 279 L 408 278 L 412 274 L 426 274 L 427 273 L 432 273 L 435 274 L 438 277 L 440 277 L 437 276 L 435 274 L 435 272 L 432 270 L 425 271 L 421 274 L 419 274 L 417 271 L 429 260 L 431 261 L 432 264 L 436 263 L 442 257 L 444 257 L 457 245 L 461 235 L 462 225 L 464 223 L 467 225 L 469 225 L 470 222 L 470 210 L 469 209 L 469 204 L 471 202 L 473 202 L 477 205 L 478 204 L 478 201 L 475 192 L 473 189 L 471 181 L 474 179 L 479 182 L 480 179 L 474 169 L 467 162 L 467 159 L 471 157 L 475 158 L 476 156 L 472 151 L 465 148 L 462 145 L 462 142 L 464 140 L 464 138 L 457 128 L 452 118 L 444 108 L 444 106 L 447 103 L 453 100 L 457 95 L 461 86 Z M 444 251 L 445 248 L 448 250 L 446 252 Z M 449 232 L 452 231 L 453 232 L 453 235 L 455 235 L 457 237 L 457 241 L 456 242 L 453 241 L 450 238 L 450 236 L 448 234 Z M 467 212 L 470 214 L 470 221 L 468 223 L 466 222 L 466 219 L 465 218 Z M 242 75 L 236 76 L 228 81 L 221 88 L 216 98 L 216 112 L 219 119 L 225 126 L 230 129 L 233 129 L 236 132 L 236 135 L 231 145 L 228 155 L 231 145 L 235 138 L 236 131 L 234 129 L 227 127 L 218 117 L 216 112 L 216 98 L 220 90 L 225 84 L 233 78 Z M 427 65 L 421 68 L 415 75 L 415 81 L 433 97 L 436 98 L 444 92 L 447 86 L 447 80 L 444 73 L 440 69 L 433 65 Z M 427 66 L 432 66 L 436 69 L 438 69 L 444 75 L 446 79 L 446 85 L 443 89 L 442 92 L 436 97 L 435 97 L 425 87 L 415 80 L 416 75 L 423 68 Z M 351 55 L 346 56 L 338 65 L 335 65 L 327 61 L 325 59 L 320 58 L 319 59 L 320 67 L 317 70 L 300 70 L 296 76 L 291 77 L 286 80 L 282 81 L 272 90 L 270 90 L 268 88 L 267 85 L 260 78 L 251 75 L 256 76 L 263 81 L 272 93 L 272 96 L 268 100 L 268 103 L 269 99 L 273 95 L 278 92 L 284 91 L 288 95 L 288 97 L 285 100 L 281 101 L 272 108 L 270 108 L 268 106 L 268 107 L 271 109 L 278 103 L 285 100 L 288 97 L 288 95 L 285 91 L 278 91 L 276 89 L 276 88 L 283 81 L 291 77 L 297 76 L 298 73 L 302 70 L 318 70 L 320 68 L 319 61 L 321 59 L 326 60 L 330 63 L 332 63 L 335 65 L 338 65 L 340 64 L 346 57 L 349 55 L 351 56 Z M 460 74 L 458 67 L 451 58 L 445 54 L 435 50 L 424 50 L 410 56 L 404 62 L 402 68 L 399 72 L 396 72 L 386 68 L 373 66 L 372 65 L 351 66 L 350 65 L 350 62 L 349 64 L 351 67 L 354 67 L 355 66 L 358 67 L 361 66 L 372 66 L 373 67 L 378 67 L 383 69 L 391 70 L 395 72 L 400 72 L 403 64 L 410 56 L 412 56 L 416 53 L 421 51 L 430 50 L 431 51 L 437 51 L 449 57 L 456 64 L 457 67 L 459 69 Z M 369 54 L 364 54 L 360 49 L 355 45 L 346 45 L 343 46 L 336 52 L 331 49 L 325 48 L 324 47 L 315 47 L 308 53 L 308 57 L 305 60 L 297 60 L 291 63 L 275 74 L 273 74 L 261 65 L 254 64 L 253 63 L 241 63 L 229 67 L 241 63 L 253 63 L 254 64 L 260 65 L 267 69 L 273 74 L 275 74 L 295 61 L 298 60 L 307 60 L 308 59 L 308 53 L 313 48 L 316 47 L 323 47 L 324 48 L 327 48 L 334 52 L 337 52 L 343 46 L 346 45 L 355 45 L 360 49 L 363 54 Z" fill="#D8D8D8" fill-rule="evenodd"/><path d="M 515 451 L 514 452 L 514 459 L 515 461 L 516 461 L 516 452 Z M 492 400 L 492 409 L 494 411 L 498 412 L 498 409 L 493 403 L 493 400 Z M 208 332 L 210 335 L 213 333 L 213 332 Z M 170 313 L 172 315 L 174 315 L 177 317 L 181 317 L 182 316 L 181 314 L 177 314 L 171 312 Z M 381 276 L 380 275 L 377 275 L 373 277 L 367 278 L 361 281 L 350 282 L 344 284 L 337 284 L 336 285 L 317 284 L 310 281 L 308 281 L 307 284 L 315 292 L 331 301 L 333 303 L 339 305 L 344 305 L 352 301 L 359 295 L 363 293 Z M 272 270 L 278 277 L 281 279 L 283 279 L 283 278 L 276 271 Z M 60 194 L 60 200 L 63 204 L 71 208 L 73 208 L 76 206 L 77 204 L 77 200 L 72 194 L 68 192 L 63 192 Z M 135 182 L 127 175 L 125 175 L 123 173 L 120 172 L 110 172 L 104 174 L 98 178 L 92 184 L 88 190 L 82 205 L 82 212 L 83 214 L 89 220 L 94 222 L 104 222 L 110 220 L 121 214 L 130 208 L 136 202 L 138 198 L 138 188 Z M 259 169 L 257 174 L 257 188 L 259 193 L 266 200 L 272 202 L 278 206 L 280 217 L 286 230 L 299 247 L 307 254 L 319 260 L 330 261 L 339 257 L 345 252 L 350 250 L 355 244 L 360 232 L 360 229 L 363 220 L 363 215 L 364 214 L 364 206 L 365 205 L 365 201 L 364 200 L 364 188 L 363 187 L 362 181 L 358 176 L 356 176 L 353 181 L 344 189 L 329 195 L 326 195 L 325 196 L 313 196 L 312 195 L 306 195 L 302 193 L 292 191 L 282 197 L 274 197 L 272 196 L 264 187 L 263 184 L 264 168 L 261 167 Z M 259 170 L 261 168 L 264 170 L 264 175 L 263 176 L 263 186 L 264 189 L 269 195 L 274 198 L 282 198 L 291 192 L 297 192 L 301 194 L 309 195 L 310 196 L 327 196 L 328 195 L 334 194 L 347 188 L 353 182 L 353 181 L 358 177 L 361 180 L 363 185 L 363 190 L 364 191 L 364 210 L 363 211 L 363 217 L 361 222 L 361 226 L 360 227 L 359 234 L 355 243 L 351 247 L 349 246 L 355 228 L 355 223 L 353 219 L 349 215 L 345 213 L 334 212 L 321 217 L 309 228 L 306 234 L 306 243 L 309 248 L 315 254 L 313 256 L 308 254 L 293 239 L 286 229 L 281 219 L 278 205 L 276 203 L 271 202 L 264 198 L 259 192 L 257 187 L 257 176 Z M 254 165 L 247 164 L 246 165 L 243 165 L 237 169 L 233 173 L 231 178 L 231 181 L 233 184 L 237 187 L 244 185 L 249 180 L 250 175 L 252 174 L 252 173 L 250 172 L 255 170 L 255 166 Z M 242 175 L 244 173 L 247 173 L 249 176 L 249 178 L 246 179 Z M 148 152 L 142 156 L 137 165 L 137 171 L 138 173 L 142 176 L 147 176 L 151 173 L 153 168 L 153 165 L 154 164 L 153 157 L 152 155 Z M 372 159 L 374 166 L 378 170 L 384 173 L 390 174 L 391 175 L 395 175 L 396 176 L 408 175 L 414 172 L 418 168 L 418 162 L 412 155 L 399 150 L 384 150 L 376 154 Z M 312 139 L 312 140 L 316 140 L 322 142 L 321 140 L 318 139 Z M 272 131 L 268 136 L 266 141 L 266 151 L 271 157 L 268 162 L 268 168 L 272 176 L 277 181 L 286 184 L 297 184 L 309 178 L 314 173 L 318 167 L 319 164 L 318 159 L 313 155 L 302 151 L 288 151 L 287 152 L 279 153 L 278 151 L 281 145 L 282 137 L 281 134 L 277 130 Z M 318 161 L 318 166 L 315 171 L 310 176 L 304 180 L 300 181 L 297 183 L 284 183 L 279 181 L 272 175 L 268 167 L 268 163 L 270 159 L 273 156 L 275 156 L 281 153 L 291 152 L 292 151 L 300 151 L 301 152 L 307 153 L 313 156 Z M 277 131 L 281 135 L 281 144 L 280 147 L 275 153 L 273 154 L 269 154 L 266 150 L 266 142 L 267 139 L 272 132 Z M 356 124 L 351 132 L 351 135 L 350 136 L 350 144 L 352 149 L 356 152 L 362 152 L 367 146 L 368 143 L 368 135 L 367 134 L 367 131 L 362 125 L 360 124 Z M 358 124 L 361 125 L 366 130 L 368 136 L 368 142 L 366 147 L 360 152 L 355 151 L 352 148 L 350 144 L 351 133 L 354 127 Z M 248 93 L 240 93 L 235 97 L 232 102 L 232 110 L 239 118 L 242 118 L 244 116 L 248 108 L 255 99 L 253 96 Z M 287 95 L 284 92 L 281 92 L 276 94 L 270 99 L 268 105 L 270 107 L 272 107 L 281 100 L 285 99 L 287 97 Z M 286 95 L 286 97 L 284 99 L 280 100 L 273 106 L 270 106 L 269 105 L 270 100 L 276 95 L 280 93 L 284 93 Z M 356 85 L 356 88 L 358 90 L 371 96 L 375 96 L 376 95 L 376 89 L 372 85 L 367 83 L 363 83 L 362 82 L 360 82 Z M 357 86 L 359 84 L 367 84 L 370 85 L 376 90 L 376 93 L 374 95 L 371 95 L 358 89 Z M 427 67 L 423 69 L 417 75 L 416 80 L 420 82 L 435 96 L 436 96 L 441 92 L 442 89 L 445 85 L 445 79 L 443 75 L 438 70 L 436 70 L 432 67 Z M 447 43 L 437 41 L 436 40 L 425 40 L 424 41 L 416 42 L 410 45 L 408 45 L 402 49 L 393 59 L 385 58 L 384 57 L 379 57 L 378 56 L 372 56 L 371 55 L 363 55 L 359 49 L 355 46 L 346 46 L 343 47 L 337 53 L 334 53 L 327 49 L 324 49 L 323 48 L 316 48 L 313 49 L 309 53 L 309 59 L 307 61 L 298 61 L 295 62 L 275 75 L 273 75 L 264 68 L 253 64 L 241 64 L 240 65 L 236 65 L 230 68 L 228 68 L 220 73 L 216 77 L 209 87 L 205 98 L 205 113 L 206 114 L 206 117 L 212 127 L 223 139 L 223 141 L 218 150 L 217 158 L 216 159 L 216 164 L 209 171 L 207 175 L 207 183 L 211 188 L 211 191 L 209 195 L 208 201 L 209 202 L 209 205 L 213 210 L 213 219 L 214 220 L 214 223 L 212 225 L 205 226 L 202 223 L 198 214 L 191 208 L 185 208 L 177 199 L 174 194 L 167 187 L 167 181 L 168 180 L 168 175 L 169 174 L 169 155 L 166 146 L 160 138 L 155 136 L 145 136 L 139 138 L 135 134 L 131 125 L 126 121 L 120 118 L 114 118 L 106 122 L 100 128 L 91 123 L 84 123 L 78 125 L 71 132 L 69 137 L 68 145 L 66 147 L 58 148 L 52 154 L 49 161 L 50 179 L 45 185 L 43 191 L 43 198 L 44 199 L 45 206 L 55 221 L 60 226 L 66 230 L 75 239 L 79 241 L 83 245 L 87 258 L 95 272 L 106 288 L 116 298 L 122 302 L 127 307 L 127 314 L 129 318 L 136 325 L 150 332 L 153 335 L 153 339 L 157 344 L 165 348 L 177 352 L 182 360 L 190 363 L 196 364 L 202 370 L 210 373 L 217 374 L 221 377 L 221 380 L 215 391 L 215 396 L 214 397 L 215 400 L 214 403 L 210 408 L 207 415 L 207 423 L 209 427 L 209 430 L 204 441 L 204 450 L 207 456 L 207 479 L 209 484 L 212 488 L 214 501 L 216 507 L 219 512 L 219 514 L 215 518 L 208 522 L 205 525 L 195 539 L 192 548 L 192 551 L 188 560 L 187 568 L 184 577 L 183 595 L 182 596 L 182 613 L 181 615 L 177 619 L 167 621 L 161 625 L 149 637 L 145 648 L 145 654 L 149 663 L 158 672 L 185 687 L 187 687 L 193 690 L 201 691 L 205 693 L 221 694 L 222 695 L 233 695 L 234 696 L 263 695 L 264 694 L 276 693 L 282 690 L 288 683 L 289 672 L 290 671 L 290 665 L 291 664 L 292 656 L 298 647 L 304 641 L 306 637 L 306 631 L 307 630 L 307 625 L 310 620 L 319 612 L 322 606 L 337 592 L 351 592 L 352 593 L 366 594 L 371 596 L 376 602 L 380 611 L 388 621 L 401 633 L 411 639 L 417 641 L 420 641 L 421 642 L 424 642 L 425 643 L 428 643 L 430 645 L 433 645 L 445 649 L 456 648 L 472 641 L 482 638 L 495 629 L 503 625 L 510 625 L 522 629 L 537 629 L 538 628 L 549 627 L 560 621 L 569 612 L 572 606 L 569 612 L 561 620 L 552 626 L 544 627 L 543 628 L 537 628 L 536 629 L 522 629 L 513 625 L 505 624 L 498 627 L 490 632 L 487 635 L 479 639 L 474 640 L 471 642 L 469 642 L 466 644 L 464 644 L 455 648 L 441 648 L 428 642 L 415 640 L 406 636 L 400 632 L 385 617 L 381 612 L 374 598 L 372 596 L 367 594 L 353 593 L 352 592 L 343 592 L 342 591 L 336 592 L 322 605 L 320 610 L 313 617 L 312 617 L 307 623 L 304 621 L 302 617 L 302 614 L 304 608 L 307 605 L 311 605 L 313 604 L 316 601 L 316 598 L 318 595 L 318 593 L 325 587 L 325 583 L 320 580 L 316 576 L 318 574 L 322 574 L 330 578 L 339 581 L 343 581 L 344 582 L 358 583 L 359 584 L 375 584 L 377 582 L 379 576 L 382 573 L 384 575 L 384 582 L 385 583 L 385 588 L 388 596 L 388 599 L 392 606 L 399 613 L 399 614 L 412 626 L 415 627 L 417 629 L 420 629 L 424 631 L 428 631 L 440 637 L 443 637 L 444 638 L 455 637 L 456 636 L 459 636 L 468 633 L 479 628 L 481 626 L 489 622 L 497 616 L 505 608 L 509 600 L 513 595 L 517 592 L 519 594 L 518 595 L 516 606 L 514 610 L 515 612 L 522 618 L 534 618 L 535 617 L 548 616 L 554 613 L 561 606 L 562 593 L 561 592 L 560 582 L 558 579 L 557 575 L 544 554 L 541 547 L 539 545 L 535 536 L 531 530 L 521 520 L 516 517 L 504 515 L 503 516 L 500 516 L 497 518 L 495 524 L 492 529 L 492 543 L 491 544 L 491 549 L 490 550 L 490 568 L 488 571 L 485 571 L 482 574 L 479 573 L 479 562 L 480 561 L 480 546 L 481 545 L 481 540 L 476 534 L 476 529 L 488 506 L 496 496 L 496 494 L 500 486 L 500 473 L 502 470 L 504 471 L 506 468 L 505 456 L 501 445 L 501 443 L 503 441 L 505 441 L 503 431 L 501 428 L 501 426 L 492 414 L 490 414 L 483 421 L 477 424 L 466 425 L 462 429 L 456 432 L 451 433 L 445 436 L 434 436 L 426 440 L 421 441 L 410 447 L 401 448 L 400 449 L 395 449 L 388 452 L 375 453 L 374 454 L 371 454 L 366 451 L 363 452 L 361 454 L 344 454 L 343 453 L 330 453 L 316 446 L 311 442 L 303 438 L 299 434 L 298 432 L 298 425 L 297 422 L 293 418 L 289 410 L 289 404 L 287 400 L 287 392 L 291 385 L 291 378 L 293 373 L 299 368 L 302 362 L 308 355 L 315 351 L 321 349 L 329 348 L 330 347 L 340 347 L 354 340 L 363 337 L 370 336 L 371 335 L 375 335 L 376 336 L 386 336 L 392 334 L 395 336 L 398 334 L 402 334 L 410 337 L 411 340 L 409 342 L 403 344 L 395 344 L 394 345 L 377 347 L 376 348 L 357 352 L 348 356 L 334 357 L 333 358 L 324 358 L 319 360 L 314 366 L 314 369 L 317 372 L 317 376 L 313 379 L 302 382 L 299 384 L 300 397 L 302 400 L 308 403 L 308 416 L 309 417 L 309 423 L 308 426 L 312 430 L 319 429 L 321 431 L 322 434 L 328 440 L 332 442 L 350 442 L 351 441 L 360 441 L 361 440 L 368 440 L 369 439 L 374 439 L 376 440 L 383 437 L 389 433 L 397 434 L 404 429 L 417 429 L 419 430 L 423 426 L 431 422 L 437 416 L 439 418 L 439 422 L 440 423 L 450 415 L 452 415 L 457 412 L 464 413 L 466 415 L 467 418 L 472 412 L 480 396 L 482 394 L 483 389 L 486 386 L 489 388 L 491 392 L 491 395 L 492 397 L 493 397 L 493 394 L 494 393 L 494 382 L 495 381 L 495 358 L 491 349 L 490 340 L 486 331 L 477 322 L 469 312 L 468 309 L 470 308 L 475 311 L 477 310 L 465 297 L 460 294 L 455 289 L 458 286 L 453 281 L 447 278 L 442 277 L 438 273 L 439 272 L 439 269 L 436 268 L 436 266 L 439 263 L 448 257 L 456 249 L 460 242 L 462 236 L 462 233 L 463 232 L 463 228 L 465 226 L 468 228 L 471 224 L 471 220 L 472 219 L 471 206 L 473 204 L 477 207 L 479 206 L 479 199 L 473 184 L 475 182 L 478 183 L 481 183 L 482 182 L 480 175 L 469 161 L 471 159 L 477 159 L 478 156 L 473 150 L 465 145 L 465 143 L 467 141 L 466 137 L 462 133 L 458 127 L 455 120 L 446 108 L 449 104 L 453 102 L 456 99 L 462 87 L 462 74 L 460 68 L 455 60 L 448 54 L 438 49 L 435 49 L 434 48 L 425 48 L 409 55 L 403 61 L 399 70 L 395 70 L 386 66 L 382 66 L 373 63 L 360 63 L 356 65 L 353 65 L 351 63 L 353 59 L 353 55 L 352 54 L 347 54 L 345 55 L 338 63 L 334 63 L 325 57 L 319 56 L 317 58 L 318 66 L 316 68 L 301 68 L 298 69 L 294 75 L 292 75 L 279 81 L 272 87 L 270 87 L 261 77 L 252 73 L 240 73 L 228 79 L 220 87 L 216 94 L 216 97 L 215 98 L 215 113 L 218 120 L 221 124 L 227 129 L 233 131 L 235 134 L 227 152 L 227 155 L 226 156 L 226 161 L 227 163 L 217 174 L 215 178 L 215 181 L 216 182 L 222 181 L 224 183 L 218 195 L 218 201 L 221 202 L 223 200 L 225 202 L 224 203 L 224 208 L 223 209 L 222 217 L 224 222 L 229 221 L 231 223 L 230 226 L 230 234 L 233 240 L 237 245 L 241 243 L 243 246 L 253 255 L 262 268 L 264 273 L 264 276 L 261 279 L 257 276 L 251 265 L 244 258 L 242 258 L 241 261 L 239 263 L 236 260 L 233 254 L 229 249 L 227 249 L 226 251 L 223 253 L 220 249 L 215 237 L 213 235 L 210 236 L 209 242 L 206 243 L 202 239 L 197 229 L 190 219 L 188 219 L 185 223 L 182 221 L 175 210 L 157 189 L 157 184 L 160 175 L 160 155 L 158 150 L 153 145 L 146 145 L 143 147 L 141 151 L 138 154 L 136 154 L 134 152 L 133 147 L 128 138 L 128 136 L 126 133 L 119 127 L 115 127 L 113 128 L 110 134 L 110 153 L 108 156 L 106 155 L 106 153 L 101 142 L 91 132 L 85 132 L 80 136 L 77 142 L 77 147 L 83 160 L 84 165 L 82 166 L 76 160 L 70 156 L 63 156 L 61 158 L 58 165 L 58 170 L 62 178 L 62 180 L 64 182 L 64 184 L 62 186 L 56 187 L 53 191 L 53 200 L 56 207 L 59 211 L 76 228 L 84 234 L 87 235 L 91 239 L 102 265 L 116 284 L 127 295 L 134 299 L 145 308 L 143 311 L 139 311 L 138 312 L 138 315 L 141 318 L 150 323 L 165 328 L 167 331 L 164 334 L 164 337 L 167 340 L 169 340 L 178 344 L 182 344 L 186 346 L 189 346 L 191 348 L 191 350 L 189 352 L 191 355 L 193 356 L 197 356 L 198 357 L 208 358 L 211 361 L 211 364 L 212 365 L 221 365 L 223 363 L 226 353 L 231 345 L 235 333 L 238 330 L 240 331 L 240 335 L 236 347 L 237 350 L 232 364 L 232 368 L 233 370 L 231 376 L 231 381 L 230 384 L 222 395 L 223 397 L 226 397 L 228 400 L 224 406 L 217 413 L 215 417 L 217 420 L 222 419 L 224 421 L 223 426 L 217 434 L 214 441 L 214 446 L 215 447 L 217 447 L 219 445 L 221 447 L 221 450 L 219 454 L 215 473 L 218 474 L 223 470 L 225 472 L 224 479 L 223 480 L 223 485 L 222 486 L 223 497 L 225 498 L 227 495 L 229 495 L 230 496 L 230 506 L 231 509 L 242 514 L 246 517 L 254 525 L 253 527 L 248 524 L 242 522 L 230 522 L 227 521 L 225 522 L 215 533 L 213 539 L 209 543 L 206 543 L 204 545 L 204 547 L 207 551 L 200 559 L 199 562 L 200 570 L 196 578 L 195 588 L 194 589 L 194 609 L 193 610 L 192 621 L 198 624 L 192 620 L 192 617 L 193 616 L 193 612 L 195 606 L 195 585 L 196 584 L 196 578 L 201 569 L 200 566 L 200 560 L 201 558 L 210 550 L 207 545 L 214 541 L 220 535 L 220 531 L 226 523 L 228 522 L 240 522 L 256 530 L 268 538 L 279 547 L 289 552 L 292 552 L 293 553 L 302 553 L 302 552 L 296 550 L 291 546 L 285 544 L 275 535 L 272 535 L 268 533 L 263 528 L 252 521 L 247 516 L 244 515 L 238 510 L 233 508 L 231 506 L 231 493 L 230 491 L 228 491 L 225 495 L 223 493 L 223 482 L 224 481 L 226 468 L 224 467 L 218 473 L 216 471 L 216 467 L 217 466 L 219 455 L 221 451 L 222 444 L 219 444 L 216 446 L 214 444 L 214 442 L 225 421 L 224 418 L 218 419 L 216 416 L 228 401 L 228 397 L 225 397 L 223 394 L 228 388 L 233 378 L 233 372 L 235 371 L 237 375 L 244 369 L 245 366 L 245 362 L 244 361 L 236 369 L 233 367 L 233 361 L 235 358 L 236 352 L 237 351 L 237 343 L 241 333 L 240 325 L 245 319 L 244 318 L 239 322 L 239 327 L 235 331 L 231 343 L 228 346 L 228 348 L 226 350 L 223 361 L 220 364 L 215 364 L 213 361 L 208 357 L 194 355 L 192 353 L 192 351 L 194 348 L 193 346 L 186 345 L 182 343 L 178 343 L 168 339 L 166 337 L 166 335 L 170 330 L 166 326 L 162 326 L 150 322 L 146 320 L 140 315 L 141 312 L 147 312 L 148 311 L 148 308 L 136 300 L 117 283 L 117 282 L 110 275 L 102 263 L 95 248 L 92 239 L 87 234 L 84 233 L 72 223 L 55 204 L 53 198 L 53 192 L 57 187 L 64 186 L 66 182 L 74 186 L 79 186 L 83 181 L 82 176 L 80 173 L 75 168 L 67 163 L 65 163 L 63 165 L 62 172 L 60 173 L 58 168 L 59 162 L 63 157 L 68 156 L 77 162 L 84 169 L 86 169 L 88 166 L 92 168 L 96 168 L 100 165 L 100 156 L 96 148 L 90 142 L 86 141 L 81 149 L 77 146 L 77 142 L 79 138 L 86 132 L 91 133 L 99 141 L 108 159 L 112 156 L 117 161 L 125 161 L 127 159 L 128 152 L 127 151 L 126 144 L 119 136 L 115 136 L 114 137 L 111 136 L 111 132 L 114 128 L 120 128 L 126 134 L 131 143 L 131 145 L 136 156 L 137 156 L 147 145 L 151 145 L 153 146 L 158 151 L 160 157 L 160 173 L 156 185 L 156 188 L 160 194 L 175 211 L 181 221 L 184 224 L 186 224 L 189 220 L 194 225 L 200 237 L 206 245 L 209 244 L 210 238 L 213 237 L 217 242 L 217 244 L 223 255 L 225 255 L 226 252 L 229 250 L 233 255 L 235 260 L 238 264 L 241 264 L 241 262 L 244 259 L 253 269 L 258 279 L 261 280 L 264 277 L 264 270 L 254 255 L 244 246 L 241 240 L 237 243 L 233 239 L 230 230 L 231 227 L 231 220 L 230 219 L 227 221 L 224 221 L 223 220 L 223 210 L 224 209 L 225 200 L 223 199 L 220 201 L 218 199 L 219 193 L 224 184 L 224 180 L 221 180 L 217 182 L 215 179 L 216 176 L 227 164 L 226 157 L 230 145 L 235 135 L 235 132 L 233 130 L 228 129 L 220 122 L 215 112 L 215 98 L 220 88 L 232 77 L 239 74 L 249 73 L 260 77 L 268 85 L 269 88 L 272 89 L 282 80 L 286 79 L 291 76 L 296 75 L 297 72 L 300 69 L 317 69 L 319 67 L 318 59 L 320 57 L 325 58 L 327 60 L 335 64 L 338 64 L 346 55 L 351 54 L 352 55 L 351 65 L 372 64 L 373 65 L 386 67 L 396 71 L 399 71 L 400 70 L 403 62 L 410 55 L 424 49 L 435 49 L 436 50 L 439 50 L 451 57 L 455 61 L 460 69 L 461 75 L 462 76 L 462 86 L 456 98 L 453 101 L 447 104 L 445 106 L 445 108 L 449 112 L 456 123 L 458 128 L 465 138 L 465 140 L 463 142 L 463 145 L 465 147 L 472 150 L 477 156 L 475 159 L 473 158 L 468 159 L 468 162 L 475 169 L 481 179 L 481 181 L 479 183 L 474 180 L 472 181 L 474 189 L 476 192 L 479 201 L 479 204 L 477 206 L 473 203 L 470 204 L 470 209 L 471 210 L 471 222 L 469 226 L 467 226 L 465 224 L 463 225 L 463 231 L 458 245 L 449 254 L 444 258 L 442 258 L 436 264 L 432 265 L 430 263 L 430 261 L 429 261 L 421 269 L 420 269 L 418 272 L 421 273 L 425 270 L 432 269 L 436 272 L 437 275 L 452 281 L 454 284 L 451 287 L 456 292 L 459 293 L 467 299 L 473 306 L 472 308 L 470 308 L 467 306 L 465 307 L 475 320 L 486 332 L 489 338 L 491 350 L 495 359 L 495 377 L 494 378 L 494 383 L 493 384 L 494 388 L 491 390 L 490 387 L 487 384 L 484 384 L 483 385 L 480 396 L 473 410 L 469 414 L 467 413 L 466 410 L 462 410 L 460 408 L 457 408 L 450 412 L 442 420 L 440 419 L 441 415 L 440 414 L 437 414 L 428 423 L 424 425 L 417 426 L 416 427 L 409 427 L 407 425 L 403 425 L 401 426 L 397 431 L 388 432 L 381 437 L 356 439 L 355 440 L 333 441 L 328 438 L 323 431 L 324 426 L 323 425 L 320 425 L 316 428 L 312 429 L 309 426 L 310 417 L 308 413 L 308 409 L 312 402 L 310 400 L 304 400 L 300 396 L 299 385 L 305 381 L 313 379 L 318 376 L 318 371 L 315 368 L 316 363 L 318 361 L 326 358 L 340 358 L 341 357 L 346 357 L 358 352 L 361 352 L 362 351 L 365 351 L 366 350 L 369 350 L 378 347 L 388 346 L 389 345 L 405 344 L 413 340 L 412 337 L 401 333 L 390 333 L 387 335 L 371 334 L 370 335 L 367 335 L 362 338 L 356 339 L 340 346 L 327 347 L 322 349 L 318 349 L 315 351 L 311 352 L 302 360 L 300 364 L 292 373 L 290 379 L 290 384 L 286 394 L 286 397 L 289 406 L 290 414 L 295 420 L 297 424 L 299 434 L 304 439 L 330 454 L 333 455 L 345 455 L 354 458 L 367 458 L 375 454 L 386 454 L 387 453 L 391 453 L 393 451 L 410 449 L 416 447 L 424 441 L 434 437 L 447 437 L 451 435 L 455 435 L 467 427 L 474 427 L 490 416 L 495 419 L 498 422 L 503 434 L 503 436 L 500 439 L 500 444 L 504 455 L 505 465 L 503 467 L 500 468 L 500 484 L 498 490 L 495 496 L 492 499 L 491 502 L 484 512 L 480 521 L 477 524 L 477 526 L 475 529 L 475 536 L 479 542 L 479 552 L 476 559 L 475 569 L 478 573 L 478 578 L 480 579 L 483 577 L 486 577 L 490 573 L 493 567 L 492 538 L 493 537 L 493 531 L 496 527 L 498 520 L 502 516 L 510 516 L 518 519 L 521 521 L 533 534 L 545 557 L 550 564 L 551 568 L 553 570 L 559 582 L 560 591 L 561 592 L 561 598 L 559 600 L 553 600 L 548 603 L 545 603 L 541 605 L 538 608 L 538 609 L 541 611 L 548 611 L 549 613 L 546 615 L 542 615 L 541 614 L 529 615 L 521 608 L 520 606 L 520 602 L 519 601 L 521 587 L 518 586 L 509 597 L 509 599 L 507 601 L 503 609 L 496 616 L 474 630 L 462 634 L 458 634 L 457 635 L 454 634 L 452 635 L 451 634 L 439 634 L 436 632 L 433 632 L 429 630 L 424 630 L 418 627 L 416 627 L 413 624 L 410 623 L 400 614 L 390 602 L 387 595 L 385 575 L 386 574 L 386 571 L 389 562 L 392 559 L 395 553 L 395 543 L 394 542 L 391 546 L 391 550 L 384 560 L 381 569 L 375 575 L 375 577 L 372 580 L 368 582 L 350 582 L 349 581 L 342 581 L 336 578 L 327 576 L 325 574 L 323 574 L 321 572 L 318 572 L 316 570 L 313 570 L 312 569 L 307 569 L 306 570 L 310 575 L 312 575 L 319 581 L 320 584 L 316 587 L 315 590 L 313 592 L 311 598 L 308 601 L 304 603 L 299 608 L 293 608 L 287 615 L 283 623 L 283 626 L 281 629 L 281 637 L 278 639 L 273 636 L 272 647 L 275 653 L 280 658 L 280 664 L 279 665 L 279 669 L 277 675 L 272 680 L 269 681 L 262 681 L 258 679 L 233 680 L 232 679 L 224 678 L 210 671 L 204 665 L 201 658 L 197 654 L 194 654 L 192 658 L 190 660 L 189 664 L 186 666 L 183 664 L 183 651 L 184 650 L 185 644 L 184 643 L 173 642 L 167 645 L 165 643 L 165 639 L 164 637 L 165 634 L 169 630 L 175 628 L 186 628 L 187 629 L 198 630 L 193 630 L 192 629 L 187 629 L 186 628 L 174 628 L 173 629 L 170 629 L 164 633 L 163 635 L 163 650 L 160 656 L 161 657 L 164 653 L 167 655 L 168 657 L 167 664 L 170 667 L 175 667 L 176 666 L 176 664 L 174 662 L 173 659 L 173 650 L 170 647 L 172 644 L 174 644 L 181 650 L 181 654 L 182 655 L 181 665 L 183 667 L 189 668 L 191 666 L 191 663 L 193 659 L 197 656 L 202 661 L 202 663 L 204 666 L 212 674 L 216 675 L 219 677 L 222 677 L 231 680 L 236 680 L 237 681 L 272 681 L 276 678 L 279 671 L 279 668 L 281 664 L 283 644 L 286 641 L 290 644 L 292 644 L 291 633 L 293 631 L 299 632 L 305 625 L 307 627 L 305 639 L 294 650 L 290 662 L 288 681 L 286 685 L 278 692 L 272 693 L 271 694 L 248 695 L 247 696 L 236 696 L 235 695 L 224 695 L 223 694 L 206 693 L 205 692 L 202 692 L 201 691 L 198 691 L 197 690 L 194 690 L 188 688 L 157 671 L 150 664 L 149 661 L 147 659 L 146 653 L 145 652 L 147 642 L 148 640 L 167 622 L 178 619 L 181 617 L 182 615 L 182 598 L 183 597 L 183 588 L 184 587 L 184 582 L 185 581 L 185 572 L 187 568 L 188 560 L 191 555 L 191 552 L 195 540 L 198 534 L 209 522 L 216 518 L 220 514 L 220 511 L 217 508 L 214 501 L 212 487 L 207 479 L 207 461 L 208 458 L 204 450 L 204 443 L 209 430 L 209 426 L 207 423 L 207 415 L 215 401 L 215 392 L 221 381 L 221 376 L 216 373 L 212 373 L 211 372 L 205 371 L 195 363 L 187 362 L 183 360 L 176 351 L 163 347 L 161 345 L 158 344 L 155 341 L 152 333 L 148 330 L 137 325 L 128 315 L 127 312 L 127 308 L 128 306 L 125 303 L 117 298 L 108 289 L 99 277 L 86 255 L 83 244 L 75 238 L 54 218 L 46 207 L 46 205 L 44 202 L 44 189 L 47 183 L 51 179 L 50 172 L 49 171 L 49 162 L 50 159 L 56 150 L 62 147 L 68 147 L 69 146 L 69 138 L 72 131 L 79 125 L 86 124 L 87 123 L 92 124 L 98 128 L 101 128 L 109 120 L 114 118 L 119 118 L 127 122 L 132 127 L 135 135 L 139 139 L 141 139 L 143 137 L 146 136 L 154 136 L 157 137 L 162 141 L 165 145 L 169 155 L 169 174 L 168 175 L 168 179 L 166 185 L 167 188 L 174 195 L 181 205 L 185 209 L 192 209 L 194 210 L 198 215 L 202 224 L 205 227 L 208 227 L 214 224 L 214 218 L 213 217 L 213 209 L 209 204 L 209 196 L 212 189 L 207 182 L 207 176 L 209 172 L 217 164 L 217 154 L 224 139 L 212 126 L 206 116 L 206 113 L 205 112 L 205 99 L 206 98 L 207 92 L 215 79 L 224 71 L 238 65 L 255 65 L 263 68 L 272 76 L 275 76 L 286 68 L 297 62 L 301 62 L 302 61 L 308 62 L 309 61 L 309 54 L 314 49 L 324 49 L 334 54 L 337 54 L 345 47 L 348 46 L 354 46 L 360 51 L 361 54 L 363 56 L 374 56 L 375 57 L 386 58 L 391 60 L 393 60 L 403 49 L 409 45 L 421 41 L 439 41 L 443 43 L 446 43 L 456 49 L 467 61 L 472 75 L 472 87 L 470 93 L 466 101 L 460 108 L 459 111 L 465 120 L 467 125 L 473 133 L 476 139 L 477 144 L 488 154 L 488 158 L 485 163 L 485 166 L 491 177 L 491 186 L 487 191 L 487 195 L 489 200 L 488 209 L 481 217 L 480 219 L 480 225 L 477 232 L 472 237 L 469 246 L 466 251 L 455 263 L 455 267 L 458 273 L 474 288 L 479 298 L 486 307 L 489 314 L 489 317 L 491 323 L 499 338 L 500 349 L 501 350 L 501 357 L 502 358 L 502 365 L 503 366 L 503 395 L 504 396 L 504 403 L 506 407 L 506 416 L 510 427 L 521 439 L 522 443 L 527 453 L 528 463 L 527 464 L 527 469 L 526 470 L 526 474 L 524 477 L 524 479 L 520 486 L 512 494 L 509 495 L 505 499 L 505 501 L 509 504 L 518 506 L 522 509 L 527 511 L 537 521 L 545 533 L 545 535 L 559 557 L 567 572 L 568 577 L 570 580 L 574 592 L 574 602 L 573 604 L 574 602 L 574 590 L 571 581 L 569 579 L 568 574 L 565 569 L 564 565 L 562 563 L 562 561 L 553 548 L 550 541 L 542 529 L 540 524 L 527 510 L 518 505 L 508 503 L 506 501 L 506 499 L 512 495 L 523 483 L 523 481 L 525 479 L 527 468 L 528 467 L 528 457 L 527 456 L 526 449 L 521 439 L 511 428 L 507 420 L 507 408 L 504 402 L 504 386 L 503 385 L 504 370 L 502 364 L 502 355 L 501 354 L 501 347 L 500 346 L 499 337 L 491 322 L 489 313 L 485 305 L 478 296 L 476 290 L 457 271 L 455 267 L 455 264 L 465 253 L 471 242 L 472 238 L 478 231 L 480 226 L 481 218 L 486 213 L 489 207 L 489 198 L 487 192 L 491 187 L 492 180 L 491 179 L 491 176 L 489 174 L 485 165 L 488 159 L 488 154 L 487 152 L 478 144 L 473 132 L 467 124 L 461 112 L 463 105 L 466 102 L 470 94 L 471 88 L 472 87 L 472 74 L 471 73 L 471 70 L 464 56 L 457 49 Z M 172 661 L 174 664 L 172 667 L 170 665 L 170 662 Z" fill="#B1B1B1" fill-rule="evenodd"/><path d="M 260 170 L 259 172 L 259 175 L 258 176 L 258 187 L 259 188 L 260 192 L 264 197 L 271 201 L 276 202 L 279 205 L 280 207 L 280 211 L 281 212 L 281 216 L 287 229 L 294 238 L 294 239 L 308 253 L 312 255 L 314 254 L 308 248 L 305 243 L 305 234 L 308 228 L 321 216 L 325 214 L 327 214 L 330 212 L 333 212 L 334 211 L 341 211 L 342 212 L 345 212 L 349 214 L 354 219 L 356 223 L 356 228 L 355 229 L 354 236 L 352 239 L 350 246 L 351 246 L 354 243 L 356 239 L 356 237 L 358 234 L 358 231 L 359 230 L 359 227 L 360 226 L 360 222 L 361 221 L 361 218 L 362 217 L 362 211 L 363 210 L 363 191 L 362 190 L 362 185 L 361 184 L 361 182 L 358 178 L 357 178 L 347 189 L 331 196 L 328 196 L 327 197 L 310 197 L 309 196 L 301 195 L 297 193 L 291 193 L 289 195 L 282 199 L 274 199 L 269 196 L 263 189 L 263 187 L 262 186 L 262 176 L 263 175 L 263 170 L 262 169 Z M 317 161 L 313 157 L 307 154 L 301 153 L 300 152 L 292 152 L 291 153 L 285 153 L 284 154 L 281 154 L 275 157 L 273 157 L 271 159 L 269 163 L 269 167 L 273 175 L 279 180 L 283 181 L 284 182 L 297 182 L 300 180 L 304 179 L 306 177 L 310 175 L 314 171 L 317 166 Z M 277 132 L 274 132 L 272 133 L 268 139 L 268 141 L 267 142 L 267 150 L 269 153 L 273 153 L 275 152 L 279 147 L 279 145 L 280 144 L 280 135 Z M 358 125 L 355 127 L 352 133 L 352 136 L 351 137 L 351 144 L 353 148 L 355 150 L 360 151 L 362 150 L 366 145 L 366 143 L 367 142 L 367 136 L 366 135 L 366 132 L 365 130 L 361 126 Z M 285 95 L 284 94 L 280 94 L 276 96 L 271 100 L 270 102 L 270 105 L 273 105 L 280 99 L 284 98 L 285 97 Z M 358 86 L 358 88 L 364 91 L 366 91 L 371 94 L 374 94 L 375 93 L 375 90 L 370 86 L 368 86 L 367 85 L 359 85 Z M 446 44 L 443 44 L 439 42 L 421 42 L 420 43 L 417 43 L 411 46 L 409 46 L 407 48 L 403 50 L 393 61 L 387 60 L 386 59 L 375 58 L 374 57 L 363 57 L 360 54 L 359 51 L 354 47 L 348 47 L 347 48 L 345 48 L 343 49 L 337 55 L 334 55 L 324 50 L 314 50 L 310 54 L 310 61 L 308 63 L 306 63 L 305 62 L 297 63 L 291 66 L 289 68 L 286 69 L 275 77 L 272 77 L 263 69 L 256 67 L 255 66 L 238 66 L 237 67 L 232 68 L 224 72 L 221 75 L 220 75 L 216 79 L 216 80 L 211 86 L 208 92 L 207 98 L 206 99 L 206 112 L 207 113 L 207 116 L 213 126 L 224 137 L 225 139 L 218 154 L 218 164 L 210 172 L 208 176 L 208 182 L 213 189 L 210 196 L 210 204 L 214 209 L 214 217 L 215 218 L 215 224 L 213 226 L 211 226 L 208 228 L 205 228 L 201 224 L 197 215 L 194 211 L 192 210 L 185 210 L 180 205 L 180 204 L 173 196 L 173 195 L 166 188 L 165 185 L 166 184 L 166 180 L 167 179 L 167 175 L 168 174 L 168 155 L 167 154 L 166 149 L 161 141 L 157 138 L 155 138 L 154 137 L 146 137 L 145 138 L 143 138 L 141 140 L 139 140 L 134 135 L 131 127 L 127 123 L 122 120 L 120 120 L 119 119 L 114 119 L 113 120 L 111 120 L 109 121 L 101 129 L 98 129 L 94 126 L 90 125 L 89 124 L 79 126 L 73 131 L 71 135 L 71 137 L 70 138 L 70 146 L 68 148 L 62 148 L 56 151 L 51 159 L 51 161 L 50 162 L 50 171 L 51 172 L 51 176 L 52 177 L 52 179 L 48 183 L 45 189 L 45 202 L 47 205 L 47 207 L 49 209 L 51 213 L 55 217 L 55 218 L 75 237 L 80 240 L 84 244 L 87 255 L 90 261 L 92 263 L 96 271 L 103 280 L 105 284 L 117 297 L 125 302 L 129 306 L 128 308 L 128 312 L 129 313 L 130 317 L 137 324 L 148 329 L 151 332 L 152 332 L 154 334 L 154 337 L 156 341 L 158 343 L 161 344 L 163 346 L 165 346 L 166 347 L 168 347 L 169 348 L 176 350 L 180 354 L 181 357 L 183 359 L 187 361 L 195 362 L 205 370 L 211 371 L 212 372 L 216 372 L 220 374 L 222 376 L 222 381 L 220 385 L 218 387 L 218 389 L 216 392 L 216 401 L 208 415 L 208 423 L 210 426 L 210 430 L 207 436 L 206 442 L 205 443 L 205 450 L 209 458 L 209 460 L 208 461 L 208 479 L 213 487 L 213 490 L 214 491 L 214 496 L 215 497 L 215 501 L 218 508 L 221 511 L 221 514 L 216 519 L 209 523 L 203 529 L 203 530 L 199 534 L 196 540 L 196 542 L 195 543 L 195 545 L 192 552 L 192 555 L 189 560 L 189 564 L 188 565 L 188 568 L 186 572 L 186 581 L 185 582 L 185 587 L 184 588 L 184 597 L 183 598 L 183 615 L 182 617 L 178 620 L 172 621 L 171 622 L 167 623 L 160 630 L 159 630 L 149 640 L 148 644 L 147 645 L 147 649 L 146 650 L 148 659 L 150 661 L 151 664 L 157 670 L 158 670 L 163 674 L 174 679 L 176 681 L 188 687 L 190 687 L 194 689 L 197 689 L 198 690 L 201 690 L 202 691 L 205 691 L 206 692 L 211 692 L 212 693 L 223 693 L 224 694 L 235 694 L 236 695 L 262 694 L 263 693 L 271 693 L 272 692 L 278 691 L 285 685 L 287 681 L 288 669 L 289 668 L 289 662 L 290 661 L 290 657 L 291 656 L 291 654 L 293 650 L 304 639 L 304 636 L 305 635 L 305 630 L 306 629 L 306 627 L 305 626 L 299 633 L 297 633 L 296 632 L 293 632 L 292 633 L 292 640 L 293 641 L 293 644 L 292 645 L 290 645 L 287 642 L 286 642 L 284 644 L 284 647 L 283 648 L 283 657 L 282 658 L 282 664 L 280 668 L 280 671 L 277 678 L 272 682 L 237 682 L 236 681 L 231 681 L 230 680 L 226 680 L 222 678 L 219 678 L 216 676 L 212 675 L 203 666 L 203 665 L 201 663 L 201 661 L 197 657 L 196 657 L 194 659 L 192 663 L 192 666 L 189 669 L 183 668 L 180 665 L 180 662 L 181 661 L 180 650 L 174 645 L 172 645 L 171 647 L 174 650 L 174 659 L 175 660 L 175 662 L 177 664 L 177 666 L 175 668 L 170 668 L 166 664 L 166 660 L 167 659 L 167 657 L 165 654 L 164 654 L 161 658 L 159 656 L 162 650 L 162 635 L 166 630 L 170 628 L 173 628 L 174 627 L 186 627 L 187 628 L 192 628 L 193 629 L 198 629 L 199 630 L 205 630 L 206 631 L 208 631 L 209 630 L 199 625 L 197 625 L 193 623 L 191 621 L 192 610 L 193 609 L 193 589 L 194 588 L 195 578 L 199 570 L 199 568 L 198 567 L 198 562 L 199 561 L 200 557 L 206 551 L 206 550 L 203 547 L 203 545 L 206 542 L 209 542 L 212 539 L 214 535 L 214 533 L 219 528 L 219 527 L 225 521 L 227 520 L 229 520 L 230 521 L 242 521 L 243 522 L 248 523 L 253 526 L 253 525 L 242 515 L 241 515 L 239 513 L 232 511 L 230 509 L 230 507 L 229 506 L 229 496 L 227 496 L 227 497 L 225 499 L 224 499 L 222 497 L 222 494 L 221 493 L 221 486 L 222 485 L 222 480 L 223 479 L 223 475 L 224 474 L 224 472 L 223 471 L 218 475 L 216 475 L 214 473 L 214 470 L 215 469 L 215 466 L 216 465 L 218 454 L 220 450 L 220 447 L 219 446 L 217 448 L 215 448 L 213 446 L 213 441 L 216 434 L 222 426 L 222 424 L 223 423 L 223 421 L 222 420 L 217 421 L 214 418 L 216 413 L 223 406 L 223 405 L 227 400 L 226 398 L 223 398 L 221 396 L 221 395 L 229 384 L 229 382 L 230 381 L 230 376 L 231 375 L 231 371 L 232 370 L 231 368 L 231 364 L 232 363 L 232 361 L 235 354 L 235 351 L 236 350 L 235 347 L 236 346 L 236 342 L 238 339 L 239 331 L 238 331 L 236 333 L 234 337 L 232 345 L 230 347 L 227 353 L 227 355 L 225 358 L 224 363 L 221 366 L 212 366 L 210 364 L 210 361 L 208 359 L 205 359 L 204 358 L 198 358 L 197 357 L 193 357 L 191 356 L 188 353 L 188 352 L 190 350 L 190 348 L 189 347 L 186 347 L 182 345 L 178 345 L 177 344 L 172 343 L 169 341 L 167 341 L 163 337 L 163 334 L 166 331 L 165 329 L 158 327 L 157 326 L 155 326 L 152 324 L 150 324 L 141 319 L 137 315 L 137 312 L 139 310 L 143 310 L 144 308 L 139 304 L 138 304 L 134 300 L 127 296 L 115 284 L 115 283 L 110 278 L 110 277 L 107 274 L 107 273 L 101 265 L 97 257 L 97 255 L 95 252 L 95 250 L 93 247 L 93 245 L 90 239 L 87 236 L 84 235 L 81 232 L 76 229 L 58 211 L 58 210 L 55 207 L 52 200 L 52 191 L 56 186 L 62 185 L 63 184 L 63 182 L 61 180 L 61 178 L 57 170 L 57 165 L 60 158 L 63 155 L 70 155 L 72 157 L 76 159 L 82 165 L 83 165 L 82 160 L 80 157 L 80 155 L 76 147 L 76 142 L 79 136 L 85 131 L 91 131 L 102 142 L 105 148 L 105 150 L 107 153 L 107 155 L 108 155 L 109 153 L 109 134 L 110 133 L 111 129 L 115 126 L 119 126 L 121 127 L 127 133 L 134 147 L 134 149 L 136 153 L 138 153 L 144 145 L 146 144 L 153 144 L 159 150 L 160 154 L 161 155 L 161 175 L 160 176 L 160 180 L 158 184 L 158 189 L 176 210 L 183 221 L 185 222 L 188 218 L 190 218 L 193 221 L 196 227 L 198 229 L 201 236 L 206 242 L 208 242 L 209 236 L 211 234 L 213 234 L 216 237 L 219 243 L 219 245 L 223 252 L 224 252 L 227 248 L 229 248 L 232 251 L 235 257 L 239 262 L 242 257 L 244 257 L 252 265 L 255 271 L 257 273 L 258 276 L 260 278 L 261 278 L 263 276 L 263 273 L 262 272 L 261 268 L 257 263 L 256 260 L 252 256 L 252 255 L 242 246 L 241 244 L 240 244 L 238 246 L 237 246 L 235 244 L 229 234 L 229 226 L 230 225 L 230 223 L 229 222 L 227 223 L 224 223 L 222 221 L 221 215 L 222 214 L 222 209 L 223 208 L 223 203 L 224 202 L 223 201 L 221 203 L 219 203 L 217 201 L 217 195 L 223 183 L 222 182 L 216 183 L 214 181 L 214 178 L 216 174 L 225 165 L 226 163 L 225 161 L 225 156 L 226 155 L 226 152 L 228 149 L 228 147 L 230 144 L 230 142 L 232 139 L 232 137 L 234 133 L 224 128 L 220 124 L 215 116 L 215 114 L 214 113 L 214 98 L 215 97 L 215 94 L 219 87 L 228 78 L 240 72 L 252 72 L 253 73 L 258 74 L 260 76 L 261 76 L 269 84 L 270 86 L 272 86 L 279 80 L 285 77 L 287 77 L 292 74 L 294 74 L 295 73 L 295 71 L 298 68 L 300 68 L 301 67 L 316 67 L 317 66 L 317 64 L 316 63 L 316 58 L 319 55 L 325 56 L 327 58 L 330 59 L 334 62 L 338 62 L 345 54 L 347 53 L 352 53 L 354 55 L 354 59 L 352 62 L 353 64 L 356 64 L 360 62 L 373 62 L 374 63 L 377 63 L 378 64 L 381 64 L 382 65 L 386 65 L 387 66 L 392 67 L 395 69 L 399 69 L 402 61 L 409 54 L 419 49 L 421 49 L 425 47 L 434 47 L 435 48 L 438 48 L 448 53 L 456 60 L 456 61 L 460 66 L 462 73 L 463 74 L 463 87 L 457 99 L 453 103 L 449 105 L 447 107 L 447 108 L 456 120 L 459 127 L 461 129 L 463 133 L 467 137 L 468 141 L 466 143 L 466 145 L 473 149 L 479 156 L 479 158 L 477 160 L 471 160 L 470 161 L 477 169 L 477 170 L 481 175 L 483 182 L 481 184 L 478 184 L 477 183 L 475 183 L 474 184 L 475 185 L 475 187 L 477 190 L 477 192 L 480 199 L 480 206 L 478 208 L 475 207 L 473 205 L 472 206 L 473 219 L 472 220 L 472 224 L 471 226 L 468 229 L 465 227 L 464 228 L 463 236 L 462 237 L 461 242 L 457 249 L 448 258 L 447 258 L 444 261 L 439 264 L 437 266 L 437 268 L 439 268 L 440 269 L 440 272 L 439 273 L 442 276 L 447 277 L 453 280 L 459 286 L 456 289 L 460 293 L 465 296 L 476 307 L 476 308 L 478 310 L 476 312 L 475 312 L 469 309 L 470 312 L 474 316 L 474 317 L 478 321 L 478 322 L 487 331 L 489 335 L 489 337 L 491 340 L 491 343 L 492 344 L 492 349 L 496 358 L 496 381 L 495 382 L 495 393 L 494 394 L 494 397 L 493 398 L 491 397 L 490 395 L 490 392 L 488 388 L 486 387 L 484 389 L 483 394 L 481 396 L 473 412 L 467 419 L 465 417 L 465 415 L 464 414 L 460 414 L 459 413 L 457 413 L 452 416 L 450 416 L 440 424 L 438 422 L 438 418 L 437 417 L 431 423 L 423 427 L 419 431 L 417 430 L 404 430 L 397 435 L 389 434 L 385 436 L 383 438 L 376 441 L 374 440 L 369 440 L 368 441 L 351 442 L 350 443 L 332 443 L 328 441 L 321 434 L 319 430 L 317 430 L 316 431 L 312 431 L 307 426 L 307 424 L 308 423 L 308 417 L 307 416 L 307 403 L 302 401 L 299 397 L 299 393 L 298 392 L 298 384 L 302 381 L 313 378 L 316 376 L 316 372 L 313 369 L 313 366 L 314 364 L 321 358 L 323 358 L 324 357 L 333 357 L 334 356 L 343 356 L 344 355 L 348 355 L 351 353 L 353 353 L 357 351 L 360 351 L 361 350 L 364 350 L 365 349 L 368 349 L 369 348 L 372 348 L 373 347 L 376 347 L 377 346 L 388 345 L 389 344 L 394 344 L 395 343 L 403 343 L 410 340 L 410 338 L 406 336 L 403 336 L 402 335 L 398 335 L 395 337 L 392 335 L 390 335 L 386 337 L 376 337 L 375 336 L 371 336 L 370 337 L 363 338 L 362 339 L 354 341 L 340 348 L 330 348 L 329 349 L 325 349 L 324 350 L 321 350 L 320 351 L 313 353 L 311 355 L 307 357 L 307 358 L 303 362 L 300 368 L 294 373 L 293 377 L 292 378 L 292 385 L 288 392 L 288 400 L 290 404 L 290 410 L 291 411 L 291 413 L 294 418 L 298 422 L 298 424 L 299 425 L 299 432 L 300 434 L 306 439 L 311 441 L 316 445 L 330 452 L 361 453 L 363 451 L 366 450 L 371 453 L 374 453 L 375 452 L 383 452 L 384 451 L 388 451 L 395 448 L 400 448 L 401 447 L 406 447 L 407 446 L 410 446 L 411 445 L 413 445 L 415 443 L 421 440 L 426 439 L 434 435 L 445 435 L 446 434 L 448 434 L 451 432 L 456 431 L 462 428 L 466 424 L 473 424 L 474 423 L 477 423 L 483 420 L 490 413 L 492 413 L 498 420 L 498 421 L 502 426 L 502 428 L 504 431 L 504 434 L 505 435 L 506 441 L 505 442 L 503 442 L 502 443 L 502 445 L 503 446 L 503 449 L 506 456 L 506 460 L 507 461 L 507 468 L 504 472 L 502 471 L 501 473 L 501 486 L 497 494 L 497 496 L 489 506 L 485 515 L 480 522 L 477 529 L 477 534 L 482 540 L 482 545 L 481 546 L 481 561 L 480 562 L 480 573 L 482 573 L 485 570 L 488 570 L 489 568 L 489 550 L 490 549 L 490 544 L 491 543 L 491 529 L 494 524 L 494 522 L 496 518 L 498 516 L 500 515 L 503 515 L 504 514 L 507 514 L 508 515 L 513 515 L 521 519 L 532 530 L 532 531 L 536 536 L 545 554 L 547 556 L 548 559 L 550 561 L 556 573 L 559 577 L 559 579 L 561 582 L 561 586 L 562 587 L 563 599 L 562 600 L 562 606 L 554 614 L 548 617 L 535 618 L 534 619 L 522 619 L 518 615 L 517 615 L 513 610 L 515 606 L 515 603 L 516 602 L 516 599 L 517 598 L 517 595 L 518 594 L 517 593 L 515 595 L 514 595 L 514 596 L 510 600 L 506 608 L 497 617 L 496 617 L 489 623 L 486 624 L 479 629 L 473 632 L 471 632 L 468 634 L 466 634 L 459 637 L 456 637 L 455 638 L 444 639 L 443 638 L 440 638 L 431 633 L 429 633 L 428 632 L 424 632 L 420 630 L 417 630 L 415 628 L 412 627 L 401 616 L 400 616 L 398 614 L 398 613 L 391 606 L 387 599 L 387 596 L 386 595 L 385 589 L 384 588 L 383 575 L 382 574 L 380 576 L 378 580 L 378 582 L 375 585 L 359 585 L 358 584 L 344 583 L 343 582 L 339 582 L 338 581 L 330 579 L 322 575 L 318 575 L 317 576 L 326 583 L 326 587 L 319 593 L 319 595 L 317 598 L 317 601 L 313 605 L 311 606 L 307 606 L 305 608 L 304 610 L 304 613 L 303 614 L 303 617 L 305 621 L 307 622 L 311 618 L 311 617 L 313 616 L 319 610 L 321 605 L 336 591 L 342 590 L 343 591 L 352 591 L 353 592 L 361 592 L 362 593 L 367 593 L 368 594 L 372 595 L 375 598 L 382 612 L 386 616 L 386 617 L 400 631 L 401 631 L 406 635 L 415 639 L 428 641 L 433 644 L 435 644 L 441 647 L 455 647 L 456 646 L 461 645 L 464 643 L 466 643 L 469 641 L 471 641 L 474 639 L 479 638 L 487 634 L 490 631 L 496 628 L 498 626 L 505 623 L 513 624 L 522 628 L 536 628 L 537 627 L 543 627 L 544 626 L 552 625 L 557 622 L 560 619 L 561 619 L 568 612 L 568 611 L 570 609 L 570 607 L 572 605 L 572 603 L 573 602 L 573 592 L 572 591 L 571 585 L 567 577 L 566 572 L 562 564 L 560 562 L 558 557 L 556 555 L 555 552 L 551 547 L 549 542 L 544 535 L 544 533 L 542 531 L 536 521 L 527 512 L 522 510 L 518 507 L 509 505 L 504 501 L 504 499 L 509 494 L 512 493 L 521 483 L 523 479 L 523 477 L 525 474 L 527 459 L 526 458 L 526 453 L 525 452 L 525 450 L 521 443 L 520 439 L 509 427 L 506 420 L 506 417 L 505 416 L 505 407 L 503 403 L 503 396 L 502 395 L 502 366 L 501 365 L 501 358 L 500 357 L 500 350 L 499 349 L 498 338 L 490 323 L 490 321 L 488 317 L 488 314 L 485 307 L 478 298 L 473 288 L 457 273 L 454 267 L 454 263 L 465 251 L 468 246 L 468 244 L 470 241 L 471 237 L 476 232 L 479 225 L 479 219 L 480 217 L 486 211 L 487 209 L 487 206 L 488 205 L 488 200 L 487 199 L 487 196 L 486 195 L 486 191 L 490 186 L 490 177 L 484 166 L 484 163 L 487 158 L 487 154 L 476 144 L 475 139 L 472 133 L 466 125 L 464 120 L 462 118 L 461 115 L 458 111 L 459 108 L 465 101 L 471 87 L 471 75 L 470 74 L 470 71 L 469 70 L 468 65 L 464 58 L 456 50 Z M 515 450 L 517 452 L 517 461 L 516 462 L 515 462 L 513 459 L 513 452 Z M 492 399 L 494 400 L 494 403 L 499 409 L 499 412 L 498 413 L 494 412 L 491 409 L 491 400 Z" fill="#010101" fill-rule="evenodd"/></svg>