<svg xmlns="http://www.w3.org/2000/svg" viewBox="0 0 653 704" shape-rendering="geometricPrecision"><title>intro frame 078</title><path d="M 490 635 L 489 633 L 485 630 L 485 628 L 482 629 L 477 628 L 476 630 L 474 629 L 467 629 L 466 628 L 443 629 L 438 631 L 427 631 L 425 630 L 421 633 L 416 633 L 413 635 L 407 635 L 400 640 L 399 647 L 397 652 L 397 660 L 401 665 L 404 667 L 406 667 L 408 669 L 410 669 L 411 667 L 411 660 L 413 654 L 418 649 L 421 649 L 425 653 L 426 656 L 427 673 L 428 674 L 438 674 L 439 671 L 438 663 L 439 662 L 440 654 L 444 649 L 447 649 L 453 653 L 453 655 L 455 657 L 456 660 L 457 670 L 458 671 L 461 671 L 463 670 L 462 666 L 466 661 L 466 652 L 472 645 L 475 645 L 476 644 L 479 644 L 485 648 L 490 642 Z M 268 585 L 267 586 L 267 589 L 269 590 L 270 589 L 270 586 Z M 210 533 L 206 541 L 209 541 L 210 540 L 212 542 L 212 547 L 210 550 L 210 553 L 208 557 L 208 561 L 206 564 L 206 570 L 211 570 L 213 572 L 211 585 L 216 589 L 216 600 L 217 601 L 217 605 L 218 606 L 218 609 L 222 619 L 227 623 L 237 623 L 238 624 L 242 624 L 254 629 L 257 633 L 255 635 L 249 635 L 248 634 L 238 633 L 237 632 L 215 632 L 203 636 L 198 641 L 197 645 L 194 651 L 194 660 L 195 662 L 196 662 L 197 656 L 205 646 L 207 645 L 211 645 L 214 648 L 214 652 L 212 656 L 212 663 L 211 666 L 212 668 L 215 670 L 220 670 L 221 669 L 222 659 L 224 655 L 229 650 L 234 649 L 237 652 L 237 658 L 235 663 L 235 671 L 236 672 L 239 672 L 240 673 L 263 672 L 267 670 L 270 667 L 272 667 L 282 661 L 286 657 L 286 655 L 289 652 L 279 637 L 278 630 L 276 628 L 276 624 L 277 623 L 276 615 L 275 613 L 266 605 L 263 598 L 261 597 L 259 599 L 254 598 L 249 593 L 247 588 L 245 586 L 246 584 L 246 580 L 248 577 L 252 580 L 253 583 L 257 586 L 257 579 L 258 577 L 254 573 L 249 571 L 250 568 L 239 566 L 236 562 L 236 555 L 230 550 L 227 549 L 220 542 L 219 542 L 211 533 Z M 267 637 L 268 635 L 270 635 L 271 632 L 273 632 L 276 635 L 272 638 L 268 638 Z M 238 583 L 239 585 L 241 586 L 245 586 L 246 587 L 245 588 L 246 593 L 243 596 L 241 596 L 239 594 L 237 589 L 235 587 Z M 232 573 L 234 575 L 234 578 L 230 584 L 227 584 L 224 581 L 224 579 L 229 573 Z M 344 526 L 340 526 L 338 528 L 338 535 L 342 532 Z M 399 506 L 390 515 L 383 519 L 379 519 L 377 523 L 375 525 L 375 528 L 371 531 L 371 533 L 367 539 L 364 546 L 364 555 L 371 561 L 371 565 L 373 568 L 372 570 L 377 577 L 381 577 L 384 573 L 387 573 L 389 569 L 393 565 L 396 565 L 398 567 L 398 577 L 397 578 L 397 582 L 398 581 L 402 586 L 404 586 L 408 592 L 413 593 L 416 596 L 429 597 L 432 601 L 437 601 L 441 598 L 445 593 L 449 594 L 450 593 L 450 587 L 452 585 L 456 588 L 461 588 L 462 587 L 460 585 L 460 580 L 453 566 L 450 567 L 438 567 L 433 564 L 431 564 L 427 561 L 427 559 L 429 557 L 438 557 L 441 559 L 445 559 L 448 561 L 450 560 L 450 557 L 446 554 L 442 554 L 438 552 L 431 543 L 431 541 L 433 539 L 438 539 L 440 541 L 443 541 L 446 543 L 450 543 L 450 540 L 447 534 L 438 529 L 435 529 L 432 527 L 429 523 L 430 520 L 418 513 L 410 505 L 406 504 L 402 506 Z M 407 565 L 411 566 L 421 576 L 421 579 L 418 582 L 414 580 L 406 572 L 405 567 Z M 93 432 L 96 437 L 98 432 Z M 214 278 L 209 283 L 210 287 L 208 290 L 192 303 L 195 306 L 182 319 L 178 321 L 179 324 L 178 329 L 167 339 L 162 342 L 165 346 L 158 354 L 150 359 L 150 360 L 137 372 L 126 385 L 107 404 L 104 406 L 97 406 L 96 407 L 85 408 L 83 410 L 79 411 L 75 416 L 77 416 L 82 411 L 102 411 L 105 413 L 107 413 L 110 416 L 109 421 L 106 425 L 113 421 L 129 423 L 132 426 L 134 426 L 145 437 L 145 439 L 148 442 L 152 443 L 161 434 L 162 430 L 166 425 L 168 415 L 170 413 L 170 411 L 175 406 L 175 404 L 177 401 L 181 398 L 183 392 L 183 388 L 184 387 L 186 374 L 189 370 L 191 364 L 189 361 L 189 358 L 188 357 L 188 350 L 189 349 L 189 346 L 191 340 L 195 335 L 194 327 L 200 319 L 200 312 L 205 306 L 207 296 L 210 292 L 210 289 L 209 288 L 212 285 Z M 397 31 L 385 31 L 375 35 L 367 42 L 365 47 L 365 50 L 362 53 L 360 53 L 350 48 L 338 44 L 332 44 L 331 43 L 312 44 L 310 42 L 310 39 L 312 36 L 311 34 L 307 36 L 306 38 L 300 43 L 298 43 L 285 36 L 284 37 L 285 38 L 286 44 L 282 47 L 264 46 L 261 50 L 259 50 L 256 52 L 247 53 L 233 62 L 231 62 L 228 59 L 226 53 L 221 48 L 214 44 L 205 43 L 204 44 L 197 45 L 195 47 L 193 47 L 190 49 L 181 59 L 181 61 L 179 64 L 179 67 L 178 68 L 178 80 L 179 81 L 179 84 L 181 88 L 187 94 L 192 97 L 194 97 L 196 99 L 196 103 L 193 109 L 193 111 L 188 121 L 186 123 L 186 135 L 176 144 L 176 146 L 178 146 L 182 149 L 182 152 L 178 159 L 177 164 L 182 168 L 182 171 L 179 177 L 178 188 L 179 187 L 183 187 L 185 189 L 184 208 L 186 212 L 191 208 L 194 212 L 194 215 L 197 224 L 198 223 L 199 224 L 201 223 L 209 232 L 212 232 L 214 234 L 216 234 L 218 236 L 220 236 L 226 240 L 242 255 L 244 259 L 244 261 L 242 263 L 237 263 L 236 262 L 233 263 L 233 266 L 231 272 L 225 277 L 224 279 L 225 285 L 223 288 L 219 291 L 215 298 L 219 302 L 210 312 L 210 313 L 214 316 L 214 318 L 213 319 L 213 322 L 210 327 L 209 338 L 207 340 L 207 342 L 215 339 L 217 341 L 217 346 L 215 348 L 213 354 L 210 357 L 210 359 L 208 361 L 207 365 L 200 376 L 200 378 L 204 382 L 204 384 L 202 390 L 194 402 L 197 403 L 199 405 L 199 409 L 190 428 L 190 430 L 193 430 L 196 433 L 196 438 L 195 439 L 195 442 L 192 451 L 192 457 L 195 455 L 197 457 L 197 477 L 200 475 L 202 476 L 203 487 L 206 491 L 207 496 L 211 499 L 212 503 L 215 505 L 220 502 L 224 508 L 225 513 L 227 512 L 229 513 L 233 512 L 236 514 L 235 508 L 233 505 L 233 501 L 230 496 L 230 487 L 229 485 L 230 484 L 230 476 L 232 471 L 234 469 L 237 472 L 236 474 L 237 476 L 236 479 L 236 497 L 246 512 L 250 520 L 254 519 L 256 522 L 258 523 L 261 529 L 261 535 L 269 541 L 270 541 L 267 534 L 262 528 L 262 526 L 258 519 L 256 513 L 256 510 L 257 509 L 259 509 L 261 511 L 265 519 L 279 533 L 289 539 L 291 538 L 291 536 L 294 532 L 297 532 L 300 535 L 302 535 L 309 523 L 314 519 L 317 522 L 317 532 L 316 533 L 316 537 L 318 537 L 328 526 L 327 525 L 330 522 L 329 521 L 329 518 L 340 505 L 346 505 L 347 504 L 348 487 L 350 483 L 350 479 L 358 472 L 358 467 L 359 465 L 361 464 L 366 458 L 372 456 L 377 451 L 379 451 L 382 449 L 381 443 L 378 441 L 378 438 L 375 440 L 372 436 L 369 438 L 367 436 L 360 436 L 358 433 L 354 430 L 354 419 L 356 417 L 378 418 L 380 416 L 380 411 L 378 406 L 373 402 L 364 392 L 366 388 L 373 387 L 379 391 L 380 395 L 378 396 L 380 396 L 383 399 L 386 399 L 389 401 L 392 399 L 390 393 L 387 390 L 384 390 L 382 388 L 380 388 L 376 384 L 376 379 L 379 376 L 379 373 L 376 369 L 376 366 L 379 363 L 387 363 L 388 362 L 387 358 L 383 354 L 375 353 L 366 350 L 361 350 L 356 346 L 357 344 L 360 342 L 365 342 L 370 337 L 374 337 L 375 336 L 379 337 L 380 336 L 379 325 L 380 324 L 380 320 L 382 318 L 384 318 L 392 326 L 393 329 L 397 333 L 398 336 L 403 342 L 408 346 L 409 346 L 411 343 L 416 341 L 420 344 L 419 373 L 418 374 L 418 392 L 417 393 L 417 407 L 416 408 L 416 414 L 415 415 L 415 419 L 405 430 L 402 437 L 402 444 L 405 448 L 408 448 L 414 441 L 416 441 L 418 439 L 420 439 L 424 443 L 424 449 L 422 453 L 422 456 L 419 461 L 415 465 L 415 469 L 419 473 L 424 474 L 426 472 L 432 470 L 433 466 L 442 458 L 444 458 L 447 462 L 447 469 L 446 471 L 453 477 L 454 476 L 453 475 L 454 472 L 457 472 L 458 474 L 459 474 L 462 471 L 463 468 L 473 459 L 477 462 L 478 464 L 477 465 L 480 468 L 484 468 L 486 465 L 486 461 L 490 458 L 489 456 L 493 453 L 492 450 L 493 446 L 498 444 L 499 429 L 500 428 L 498 422 L 500 416 L 502 415 L 503 413 L 502 412 L 502 408 L 503 407 L 502 404 L 502 395 L 498 390 L 500 389 L 500 387 L 502 385 L 505 385 L 504 384 L 504 378 L 505 376 L 503 373 L 501 365 L 499 362 L 499 359 L 502 357 L 507 361 L 508 361 L 508 360 L 505 357 L 505 354 L 499 346 L 498 343 L 489 332 L 491 329 L 501 331 L 482 312 L 477 309 L 473 305 L 473 303 L 475 301 L 481 303 L 485 303 L 485 302 L 477 297 L 473 293 L 463 288 L 460 285 L 460 283 L 463 279 L 456 274 L 452 273 L 449 270 L 449 267 L 451 265 L 456 265 L 456 264 L 444 256 L 438 254 L 433 251 L 431 251 L 427 247 L 430 243 L 432 243 L 431 241 L 423 239 L 420 237 L 416 237 L 415 236 L 407 236 L 401 238 L 397 241 L 395 241 L 389 247 L 383 248 L 373 255 L 362 257 L 356 263 L 352 264 L 347 267 L 341 267 L 338 264 L 337 261 L 338 257 L 341 252 L 349 246 L 356 239 L 360 237 L 363 237 L 368 231 L 372 231 L 373 233 L 375 232 L 375 225 L 374 223 L 376 221 L 379 221 L 380 222 L 381 221 L 381 215 L 382 214 L 384 214 L 387 212 L 390 213 L 392 212 L 386 205 L 386 202 L 387 201 L 391 201 L 397 203 L 397 200 L 394 197 L 394 195 L 397 192 L 400 192 L 406 194 L 405 191 L 400 187 L 400 184 L 402 182 L 408 182 L 408 181 L 401 173 L 401 171 L 403 169 L 406 169 L 411 172 L 413 172 L 415 170 L 419 171 L 423 169 L 423 165 L 426 162 L 430 162 L 432 163 L 424 150 L 423 150 L 419 145 L 419 143 L 422 140 L 427 140 L 428 138 L 416 127 L 416 125 L 418 123 L 419 120 L 416 115 L 416 113 L 411 103 L 411 101 L 409 99 L 408 96 L 403 91 L 403 88 L 406 85 L 410 84 L 415 81 L 420 75 L 422 71 L 422 63 L 423 62 L 422 60 L 422 54 L 416 45 L 407 36 L 404 35 L 402 33 L 399 33 Z M 351 457 L 352 454 L 355 455 L 357 454 L 359 456 L 357 458 L 352 458 Z M 219 451 L 221 453 L 221 461 L 220 462 L 220 467 L 219 468 L 219 475 L 218 478 L 215 480 L 212 477 L 212 464 L 216 454 Z M 351 435 L 354 440 L 353 441 L 354 446 L 350 449 L 350 455 L 348 457 L 347 460 L 345 462 L 343 462 L 339 457 L 339 450 L 343 445 L 343 441 L 345 437 L 347 435 Z M 217 426 L 219 428 L 219 431 L 216 435 L 213 445 L 209 449 L 207 449 L 205 447 L 205 440 L 207 437 L 207 435 L 215 426 Z M 221 382 L 223 383 L 223 386 L 222 387 L 220 386 L 220 383 Z M 301 378 L 302 379 L 301 384 L 299 386 L 296 387 L 295 386 L 295 383 Z M 259 376 L 261 378 L 261 380 L 257 385 L 255 382 Z M 365 365 L 367 367 L 367 373 L 359 378 L 358 385 L 356 387 L 361 394 L 362 399 L 359 401 L 357 401 L 354 399 L 351 399 L 349 401 L 345 402 L 339 408 L 338 411 L 332 410 L 328 408 L 326 406 L 326 401 L 334 397 L 333 395 L 341 389 L 345 389 L 347 388 L 347 387 L 339 380 L 332 380 L 325 387 L 322 383 L 320 382 L 318 384 L 316 384 L 309 378 L 310 374 L 316 368 L 316 367 L 320 364 L 322 364 L 324 366 L 325 369 L 340 372 L 346 376 L 351 376 L 351 368 L 355 363 L 360 362 Z M 293 362 L 298 368 L 298 371 L 296 373 L 292 374 L 290 377 L 287 377 L 283 373 L 287 369 L 287 367 Z M 272 361 L 273 362 L 273 367 L 271 371 L 268 373 L 266 371 L 266 367 L 267 365 Z M 269 345 L 268 349 L 265 352 L 259 351 L 257 349 L 261 344 L 267 343 Z M 321 343 L 323 341 L 326 341 L 335 349 L 335 353 L 332 355 Z M 462 341 L 465 338 L 472 338 L 476 340 L 479 343 L 479 345 L 478 346 L 468 346 Z M 314 337 L 315 338 L 313 339 L 314 340 L 312 343 L 309 343 L 307 341 L 311 339 L 312 337 Z M 434 330 L 435 329 L 438 329 L 440 332 L 438 333 Z M 285 319 L 288 317 L 294 323 L 297 324 L 301 329 L 299 331 L 297 331 L 290 327 L 285 322 Z M 271 315 L 271 316 L 264 322 L 260 322 L 258 320 L 262 315 L 264 315 L 266 313 L 269 313 Z M 261 298 L 263 300 L 263 304 L 253 318 L 250 319 L 249 318 L 249 314 L 254 307 L 254 305 L 256 303 L 257 300 L 259 298 Z M 300 295 L 301 296 L 300 298 L 297 299 L 296 298 Z M 291 293 L 294 295 L 294 297 L 292 299 L 291 297 L 289 296 Z M 438 295 L 440 291 L 443 291 L 445 293 L 448 291 L 452 294 L 453 296 L 451 298 L 443 298 L 440 297 Z M 317 289 L 321 289 L 323 291 L 324 298 L 333 309 L 335 319 L 332 322 L 328 324 L 323 323 L 317 320 L 312 323 L 310 322 L 307 318 L 307 312 L 310 309 L 312 311 L 316 311 L 320 313 L 325 313 L 326 312 L 326 310 L 314 299 L 313 294 Z M 351 284 L 354 285 L 354 287 L 357 291 L 360 291 L 367 297 L 367 301 L 363 305 L 368 315 L 368 317 L 373 323 L 374 327 L 372 329 L 369 329 L 366 326 L 362 326 L 361 325 L 354 324 L 350 319 L 344 319 L 341 320 L 340 318 L 338 317 L 337 318 L 336 317 L 336 312 L 338 309 L 341 309 L 346 306 L 350 305 L 350 301 L 346 292 L 348 289 L 348 287 Z M 318 278 L 320 277 L 324 279 L 325 278 L 328 278 L 330 275 L 332 275 L 334 278 L 334 287 L 331 289 L 326 285 L 326 283 L 323 283 L 322 282 L 320 283 L 318 281 Z M 335 251 L 335 254 L 330 261 L 318 271 L 310 280 L 305 280 L 302 283 L 299 283 L 294 286 L 288 286 L 274 279 L 260 269 L 251 259 L 251 256 L 254 253 L 259 253 L 260 254 L 264 254 L 269 256 L 276 256 L 277 257 L 294 257 L 299 255 L 310 254 L 313 252 L 318 252 L 326 249 L 333 249 Z M 324 138 L 326 135 L 333 129 L 341 128 L 342 127 L 356 128 L 369 133 L 375 139 L 377 143 L 377 149 L 372 156 L 368 157 L 365 159 L 349 159 L 348 158 L 342 157 L 331 151 L 326 145 Z M 248 117 L 252 113 L 256 112 L 259 110 L 273 110 L 282 114 L 285 117 L 285 120 L 281 123 L 270 119 L 250 120 Z M 231 102 L 236 102 L 241 108 L 241 119 L 239 123 L 248 123 L 251 122 L 252 123 L 257 123 L 258 124 L 262 124 L 265 126 L 267 126 L 276 134 L 277 136 L 277 143 L 274 148 L 268 154 L 258 159 L 251 160 L 250 161 L 243 161 L 231 156 L 227 152 L 225 148 L 222 146 L 221 160 L 223 163 L 229 168 L 235 169 L 242 166 L 244 164 L 251 164 L 261 168 L 266 168 L 267 169 L 272 169 L 273 170 L 282 170 L 283 169 L 286 169 L 295 166 L 301 163 L 312 151 L 315 152 L 320 158 L 320 161 L 321 162 L 321 186 L 320 187 L 320 194 L 318 198 L 318 201 L 315 210 L 310 220 L 306 225 L 299 231 L 287 238 L 281 239 L 280 240 L 272 240 L 260 235 L 248 224 L 234 202 L 234 200 L 232 197 L 232 194 L 229 188 L 228 180 L 222 177 L 214 169 L 210 162 L 209 153 L 208 152 L 204 156 L 197 160 L 190 160 L 187 158 L 184 154 L 183 147 L 186 141 L 198 133 L 206 132 L 211 134 L 215 138 L 216 137 L 222 138 L 222 135 L 224 129 L 221 125 L 221 114 L 225 107 Z M 315 101 L 320 102 L 325 107 L 327 112 L 327 123 L 325 129 L 319 134 L 314 134 L 312 133 L 307 128 L 305 123 L 305 115 L 306 114 L 307 108 Z M 250 68 L 251 70 L 250 74 L 247 77 L 241 79 L 233 85 L 229 85 L 225 82 L 224 79 L 225 76 L 236 66 L 244 64 L 247 65 Z M 311 64 L 314 60 L 318 58 L 324 58 L 330 61 L 332 61 L 338 67 L 339 70 L 338 75 L 334 79 L 332 79 L 328 77 L 325 74 L 314 71 L 311 68 Z M 210 57 L 219 65 L 220 69 L 210 80 L 205 88 L 201 91 L 198 91 L 189 81 L 188 78 L 189 68 L 190 66 L 200 57 Z M 386 45 L 389 44 L 396 44 L 399 45 L 407 52 L 411 60 L 411 68 L 410 69 L 410 72 L 407 76 L 400 81 L 396 81 L 394 80 L 385 70 L 375 62 L 375 57 L 378 52 Z" fill="#FBFBFB" fill-rule="evenodd"/><path d="M 320 647 L 318 647 L 318 657 L 319 657 L 320 654 Z M 202 636 L 197 641 L 194 647 L 194 650 L 193 651 L 193 661 L 194 664 L 197 666 L 198 665 L 199 656 L 202 650 L 207 646 L 211 646 L 213 648 L 213 651 L 210 658 L 209 669 L 213 671 L 222 672 L 223 671 L 223 660 L 226 654 L 231 650 L 234 650 L 236 652 L 234 650 L 231 650 L 225 655 L 223 659 L 222 669 L 220 671 L 215 671 L 212 669 L 210 666 L 211 663 L 211 656 L 213 652 L 213 648 L 211 646 L 207 646 L 202 650 L 198 656 L 197 662 L 195 663 L 193 660 L 193 651 L 197 641 Z M 275 635 L 273 633 L 271 633 L 271 635 L 268 636 L 268 637 L 272 637 Z M 211 578 L 209 588 L 210 589 L 212 588 L 215 591 L 215 601 L 216 602 L 216 605 L 217 606 L 217 609 L 221 619 L 226 623 L 221 619 L 217 609 L 217 606 L 216 605 L 216 601 L 215 600 L 215 589 L 210 585 Z M 315 574 L 316 576 L 319 576 L 322 578 L 324 581 L 326 579 L 326 577 L 324 576 L 321 576 Z M 232 574 L 229 574 L 225 579 L 225 581 L 227 583 L 230 583 L 233 578 L 233 575 Z M 407 566 L 406 567 L 407 572 L 414 579 L 418 581 L 420 579 L 420 576 L 411 567 Z M 411 572 L 412 571 L 417 575 L 415 577 Z M 338 562 L 338 564 L 345 564 L 346 563 L 345 562 L 342 562 L 341 563 Z M 211 528 L 204 543 L 210 542 L 211 543 L 211 547 L 210 549 L 211 547 L 211 542 L 210 541 L 209 542 L 206 542 L 205 540 L 208 534 L 211 532 L 219 540 L 219 541 L 237 555 L 237 562 L 239 565 L 250 567 L 251 568 L 250 571 L 254 572 L 259 577 L 258 579 L 258 586 L 256 587 L 252 583 L 251 580 L 248 578 L 247 580 L 247 584 L 245 587 L 241 587 L 239 586 L 238 584 L 236 587 L 241 595 L 243 595 L 245 593 L 244 588 L 246 586 L 248 588 L 250 593 L 254 597 L 259 598 L 261 596 L 264 598 L 267 605 L 269 606 L 277 615 L 277 620 L 278 621 L 277 628 L 279 630 L 280 637 L 286 647 L 290 651 L 287 655 L 287 657 L 282 662 L 276 666 L 270 668 L 267 671 L 263 673 L 243 674 L 254 674 L 255 673 L 270 673 L 271 672 L 275 672 L 276 669 L 279 666 L 284 664 L 288 661 L 293 655 L 293 646 L 288 634 L 288 630 L 285 626 L 285 621 L 279 612 L 269 603 L 269 601 L 271 600 L 278 607 L 279 607 L 280 605 L 278 600 L 280 598 L 283 599 L 284 596 L 281 591 L 274 584 L 260 573 L 238 550 L 222 539 L 217 534 L 213 528 Z M 268 584 L 271 586 L 271 589 L 269 591 L 266 589 L 266 586 Z M 98 477 L 91 487 L 91 493 L 92 494 L 95 493 L 94 492 L 94 483 Z M 116 470 L 119 474 L 116 489 L 117 490 L 117 494 L 118 496 L 121 497 L 121 495 L 119 493 L 119 490 L 118 489 L 118 482 L 120 477 L 124 473 Z M 74 468 L 73 468 L 70 474 L 70 479 L 72 481 L 74 481 L 73 478 L 73 470 Z M 352 455 L 352 457 L 357 457 L 358 456 L 357 455 L 355 456 Z M 219 452 L 217 454 L 213 464 L 213 477 L 215 479 L 217 478 L 218 475 L 218 468 L 219 467 L 219 462 L 220 461 L 220 453 Z M 218 457 L 219 458 L 219 464 L 217 470 L 215 471 L 214 470 L 214 464 L 216 458 Z M 351 436 L 347 436 L 344 441 L 344 445 L 340 450 L 340 457 L 343 461 L 346 460 L 347 457 L 349 455 L 349 449 L 353 446 L 352 444 L 352 441 L 353 440 Z M 521 427 L 521 433 L 520 434 L 520 439 L 519 440 L 518 456 L 513 467 L 513 469 L 511 471 L 509 476 L 504 482 L 492 494 L 489 506 L 491 496 L 496 490 L 508 480 L 510 477 L 510 474 L 513 470 L 513 468 L 517 460 L 518 452 L 519 451 L 519 440 L 520 439 L 520 434 L 521 433 Z M 217 427 L 215 427 L 208 435 L 208 437 L 206 440 L 206 447 L 207 448 L 209 448 L 212 445 L 215 435 L 218 431 L 218 428 Z M 214 430 L 216 432 L 214 434 L 213 438 L 209 441 L 208 438 L 210 434 Z M 83 408 L 75 413 L 74 415 L 74 420 L 75 421 L 81 415 L 86 413 L 104 413 L 108 417 L 108 421 L 99 429 L 85 431 L 70 439 L 65 445 L 65 448 L 66 449 L 68 447 L 68 444 L 74 437 L 86 433 L 91 433 L 94 437 L 94 442 L 93 443 L 94 447 L 92 451 L 95 452 L 100 457 L 101 459 L 101 463 L 102 464 L 102 468 L 99 475 L 107 469 L 113 469 L 113 468 L 106 464 L 103 461 L 99 454 L 97 448 L 97 443 L 98 442 L 99 436 L 102 431 L 107 426 L 112 423 L 118 422 L 113 422 L 106 426 L 105 425 L 108 421 L 109 416 L 107 414 L 105 414 L 102 412 L 82 412 L 77 417 L 75 417 L 74 416 L 75 414 L 79 410 L 84 408 Z M 92 432 L 93 431 L 98 431 L 99 432 L 98 436 L 96 438 Z M 301 379 L 296 383 L 296 386 L 300 384 Z M 259 377 L 258 380 L 256 382 L 257 384 L 260 380 Z M 360 363 L 355 364 L 352 368 L 352 376 L 351 377 L 346 377 L 340 373 L 325 370 L 323 368 L 323 366 L 320 365 L 318 366 L 311 374 L 310 378 L 316 383 L 318 383 L 320 381 L 322 382 L 325 386 L 332 379 L 339 379 L 348 387 L 347 389 L 345 390 L 341 390 L 334 395 L 335 397 L 333 399 L 327 401 L 327 406 L 332 409 L 338 410 L 338 408 L 345 401 L 349 400 L 351 398 L 354 398 L 357 400 L 361 399 L 360 394 L 355 387 L 357 385 L 358 378 L 366 373 L 366 367 Z M 293 363 L 288 367 L 288 369 L 284 373 L 287 376 L 290 376 L 292 373 L 294 373 L 297 371 L 297 368 Z M 272 362 L 271 362 L 267 367 L 267 371 L 268 372 L 270 371 L 272 367 Z M 190 359 L 190 361 L 192 364 L 190 370 L 187 374 L 185 387 L 184 388 L 184 392 L 182 398 L 178 401 L 176 404 L 176 406 L 171 411 L 171 413 L 169 415 L 167 425 L 163 430 L 162 434 L 152 444 L 148 443 L 144 439 L 144 437 L 134 427 L 132 427 L 129 424 L 120 423 L 125 423 L 133 427 L 144 438 L 149 446 L 149 448 L 151 450 L 151 459 L 148 465 L 142 471 L 136 474 L 138 476 L 138 483 L 136 487 L 137 487 L 145 477 L 147 472 L 150 469 L 154 461 L 153 458 L 153 447 L 161 439 L 166 431 L 170 427 L 172 421 L 178 415 L 177 412 L 178 411 L 179 404 L 184 393 L 186 391 L 186 379 L 190 370 L 190 368 L 192 365 Z M 268 345 L 267 344 L 261 345 L 258 349 L 259 350 L 265 351 L 267 349 Z M 323 342 L 322 343 L 323 345 L 332 354 L 334 353 L 334 349 L 326 342 Z M 463 341 L 468 345 L 478 345 L 478 343 L 472 339 L 465 339 Z M 212 320 L 212 322 L 209 327 L 208 337 L 205 342 L 204 346 L 208 345 L 211 342 L 215 342 L 216 344 L 214 349 L 208 358 L 203 370 L 198 378 L 198 381 L 200 381 L 202 383 L 202 386 L 200 391 L 192 403 L 192 405 L 196 404 L 198 406 L 198 409 L 193 418 L 193 420 L 191 423 L 191 425 L 188 430 L 188 433 L 187 434 L 188 435 L 191 432 L 193 432 L 195 434 L 195 438 L 191 450 L 190 463 L 191 463 L 193 460 L 196 461 L 196 485 L 197 485 L 199 482 L 202 484 L 202 488 L 203 489 L 204 496 L 213 506 L 217 513 L 217 515 L 218 515 L 218 509 L 220 507 L 223 510 L 226 516 L 226 518 L 230 524 L 231 522 L 234 520 L 243 532 L 247 531 L 255 538 L 259 537 L 270 545 L 273 544 L 276 545 L 276 543 L 263 526 L 259 518 L 260 515 L 262 516 L 265 521 L 280 536 L 289 542 L 292 542 L 293 539 L 295 537 L 297 537 L 300 540 L 303 540 L 307 532 L 310 529 L 310 527 L 313 524 L 315 526 L 313 539 L 316 542 L 317 542 L 334 524 L 336 526 L 336 529 L 335 530 L 335 534 L 333 540 L 335 541 L 338 539 L 340 539 L 346 533 L 353 519 L 356 517 L 358 519 L 357 522 L 357 532 L 358 533 L 360 532 L 361 529 L 366 524 L 369 525 L 367 531 L 363 536 L 363 546 L 361 552 L 362 570 L 363 571 L 363 574 L 369 581 L 371 589 L 376 594 L 376 596 L 380 604 L 386 609 L 390 617 L 390 620 L 394 624 L 398 632 L 399 640 L 397 644 L 397 649 L 396 650 L 396 660 L 397 663 L 403 669 L 411 672 L 412 671 L 412 660 L 414 654 L 418 650 L 421 650 L 425 656 L 426 673 L 428 675 L 439 675 L 440 674 L 440 660 L 441 659 L 441 655 L 445 651 L 448 651 L 450 652 L 453 656 L 455 662 L 455 672 L 456 673 L 467 671 L 469 669 L 469 666 L 470 665 L 470 649 L 473 646 L 479 646 L 484 654 L 484 665 L 486 666 L 490 664 L 496 657 L 496 655 L 498 653 L 498 650 L 500 646 L 500 633 L 499 632 L 498 624 L 488 607 L 488 604 L 486 601 L 486 595 L 484 591 L 482 580 L 478 568 L 476 566 L 476 564 L 470 558 L 470 556 L 467 553 L 465 553 L 457 548 L 454 539 L 452 537 L 451 534 L 442 527 L 439 527 L 437 525 L 438 523 L 440 523 L 442 521 L 432 515 L 430 515 L 425 510 L 423 510 L 419 506 L 417 506 L 410 499 L 406 499 L 403 496 L 403 483 L 402 480 L 397 475 L 393 476 L 390 473 L 389 470 L 386 439 L 387 438 L 388 432 L 390 429 L 390 426 L 392 424 L 394 419 L 397 418 L 401 412 L 402 375 L 401 374 L 400 367 L 394 361 L 394 355 L 391 349 L 391 347 L 386 340 L 385 336 L 381 330 L 381 328 L 385 323 L 387 324 L 391 328 L 398 339 L 407 350 L 408 350 L 414 344 L 417 344 L 419 346 L 418 360 L 417 361 L 417 392 L 416 393 L 416 402 L 415 403 L 415 414 L 415 408 L 416 407 L 416 393 L 417 392 L 417 374 L 418 373 L 419 344 L 416 342 L 411 344 L 410 346 L 408 347 L 402 342 L 397 336 L 396 333 L 392 329 L 391 326 L 384 319 L 381 320 L 381 324 L 380 325 L 381 336 L 379 338 L 377 337 L 370 338 L 365 343 L 360 343 L 358 344 L 357 346 L 361 349 L 366 349 L 375 352 L 383 353 L 389 360 L 389 362 L 387 364 L 379 364 L 377 366 L 377 369 L 380 373 L 380 376 L 377 379 L 377 384 L 380 387 L 382 387 L 384 389 L 387 389 L 391 393 L 393 399 L 390 402 L 386 400 L 383 400 L 380 397 L 377 396 L 379 395 L 379 393 L 377 390 L 373 388 L 366 389 L 365 392 L 367 395 L 379 406 L 381 411 L 381 416 L 378 419 L 364 419 L 363 418 L 356 418 L 355 419 L 355 430 L 357 431 L 360 435 L 367 435 L 369 437 L 372 435 L 375 439 L 378 437 L 379 438 L 379 441 L 382 443 L 383 449 L 381 451 L 377 452 L 372 457 L 366 459 L 366 460 L 360 465 L 359 467 L 359 472 L 351 479 L 351 483 L 349 487 L 348 504 L 346 506 L 340 506 L 330 518 L 330 521 L 331 522 L 328 525 L 329 526 L 318 538 L 315 537 L 315 533 L 316 532 L 316 522 L 314 520 L 310 523 L 309 526 L 304 532 L 302 536 L 300 536 L 297 533 L 294 533 L 292 536 L 292 538 L 289 540 L 279 534 L 264 519 L 260 511 L 257 510 L 257 513 L 259 519 L 263 526 L 263 528 L 268 534 L 271 541 L 269 542 L 260 535 L 260 529 L 257 523 L 256 523 L 254 520 L 252 521 L 249 520 L 245 512 L 235 497 L 235 479 L 236 478 L 235 474 L 236 472 L 234 470 L 231 476 L 231 484 L 230 486 L 231 487 L 231 496 L 234 501 L 234 505 L 236 508 L 236 511 L 237 512 L 236 515 L 233 513 L 230 514 L 227 513 L 225 514 L 223 508 L 221 506 L 220 503 L 216 506 L 213 505 L 211 503 L 210 499 L 206 496 L 205 491 L 202 487 L 201 476 L 198 478 L 196 477 L 196 457 L 195 456 L 192 458 L 191 457 L 191 451 L 192 450 L 192 446 L 195 438 L 195 433 L 193 431 L 190 431 L 189 428 L 198 409 L 198 405 L 195 404 L 193 402 L 201 390 L 203 384 L 203 382 L 199 378 L 199 376 L 206 365 L 206 363 L 209 359 L 209 357 L 212 354 L 214 348 L 216 346 L 216 341 L 215 340 L 208 343 L 206 342 L 206 340 L 208 338 L 209 327 L 212 322 Z M 491 635 L 491 642 L 485 649 L 479 645 L 472 646 L 467 652 L 467 661 L 463 666 L 464 670 L 461 672 L 458 672 L 456 670 L 454 657 L 452 655 L 452 653 L 447 650 L 444 650 L 441 654 L 440 662 L 439 663 L 440 671 L 438 675 L 428 675 L 426 673 L 425 656 L 424 653 L 421 650 L 418 650 L 414 654 L 412 660 L 412 667 L 410 670 L 408 670 L 406 668 L 404 668 L 401 666 L 396 660 L 396 652 L 398 647 L 398 643 L 399 640 L 402 637 L 407 634 L 413 634 L 416 632 L 421 632 L 425 629 L 427 630 L 438 630 L 439 629 L 442 629 L 439 629 L 437 627 L 441 624 L 449 623 L 450 622 L 463 622 L 467 624 L 466 627 L 456 627 L 466 627 L 467 628 L 474 628 L 476 629 L 477 627 L 479 628 L 485 627 L 486 630 L 489 632 Z M 435 544 L 437 542 L 438 543 L 441 543 L 447 545 L 451 548 L 453 548 L 454 550 L 450 552 L 445 550 L 442 550 Z M 344 525 L 345 528 L 343 532 L 338 536 L 337 535 L 337 528 L 340 525 Z M 338 519 L 341 517 L 343 520 L 340 522 Z M 238 517 L 240 518 L 240 521 L 239 522 L 237 520 Z M 237 504 L 242 508 L 248 518 L 249 524 L 247 526 L 243 522 L 238 513 L 236 507 Z M 399 505 L 402 505 L 406 503 L 410 504 L 418 512 L 429 518 L 431 520 L 430 523 L 432 526 L 435 528 L 438 528 L 446 532 L 448 534 L 451 540 L 451 543 L 450 544 L 446 544 L 443 542 L 440 542 L 438 540 L 433 540 L 432 543 L 438 551 L 442 553 L 446 553 L 448 554 L 451 557 L 451 560 L 448 562 L 445 560 L 441 560 L 438 558 L 429 558 L 428 561 L 438 566 L 450 566 L 453 565 L 455 567 L 457 573 L 461 580 L 461 585 L 463 587 L 461 589 L 456 589 L 452 586 L 451 587 L 451 593 L 449 595 L 445 594 L 443 597 L 437 602 L 432 602 L 429 598 L 416 597 L 413 594 L 408 593 L 404 587 L 402 587 L 398 582 L 397 583 L 396 582 L 396 578 L 397 577 L 397 567 L 396 566 L 393 566 L 390 569 L 389 572 L 387 574 L 384 574 L 381 578 L 377 578 L 371 570 L 372 568 L 370 565 L 370 561 L 369 561 L 363 555 L 363 546 L 364 543 L 368 537 L 370 531 L 374 528 L 374 525 L 376 523 L 377 520 L 379 518 L 383 518 L 390 514 Z M 383 501 L 385 503 L 385 507 L 383 508 L 381 505 L 381 503 Z M 379 403 L 381 401 L 387 403 L 390 406 L 390 408 L 388 410 L 384 410 L 381 407 Z M 286 319 L 286 322 L 290 326 L 297 330 L 300 329 L 297 325 L 294 324 L 288 318 Z M 270 315 L 269 314 L 266 314 L 264 316 L 262 316 L 259 320 L 260 321 L 264 321 L 266 320 Z M 476 302 L 474 303 L 474 305 L 482 311 L 502 331 L 501 332 L 498 332 L 494 330 L 491 330 L 490 332 L 499 343 L 500 346 L 506 354 L 506 357 L 509 360 L 509 361 L 507 362 L 502 358 L 500 359 L 500 362 L 502 365 L 504 373 L 506 376 L 505 378 L 505 384 L 506 385 L 505 386 L 502 386 L 501 389 L 499 390 L 503 395 L 503 404 L 504 405 L 503 408 L 503 412 L 504 413 L 503 415 L 501 416 L 499 422 L 501 426 L 500 429 L 499 444 L 497 446 L 494 446 L 493 448 L 494 453 L 490 456 L 491 458 L 487 461 L 487 465 L 484 469 L 480 469 L 476 465 L 477 464 L 476 462 L 473 460 L 470 462 L 465 468 L 464 468 L 463 471 L 459 475 L 458 475 L 457 473 L 454 473 L 455 476 L 453 478 L 445 471 L 446 469 L 446 462 L 444 459 L 440 460 L 434 466 L 434 468 L 432 471 L 426 473 L 424 475 L 419 474 L 414 469 L 414 465 L 418 461 L 421 456 L 421 453 L 423 449 L 423 443 L 420 440 L 418 440 L 416 442 L 414 442 L 408 449 L 405 449 L 401 444 L 401 437 L 404 430 L 414 419 L 414 417 L 413 420 L 407 426 L 402 434 L 401 437 L 401 445 L 405 450 L 409 450 L 417 441 L 420 441 L 423 444 L 423 448 L 422 449 L 421 455 L 419 459 L 413 466 L 416 472 L 422 476 L 426 476 L 430 474 L 434 469 L 435 466 L 441 461 L 444 461 L 446 463 L 446 468 L 441 480 L 441 484 L 443 486 L 446 487 L 453 486 L 457 483 L 462 476 L 462 474 L 464 472 L 466 467 L 471 463 L 475 466 L 475 474 L 472 482 L 472 486 L 475 486 L 477 484 L 479 484 L 498 460 L 498 458 L 500 455 L 500 452 L 502 449 L 502 430 L 501 429 L 500 421 L 502 419 L 505 420 L 507 418 L 507 408 L 506 407 L 506 400 L 504 396 L 504 392 L 506 390 L 510 391 L 510 386 L 508 383 L 508 380 L 505 371 L 503 368 L 502 362 L 503 361 L 506 361 L 509 363 L 510 361 L 504 350 L 492 334 L 493 331 L 497 331 L 501 333 L 504 332 L 489 317 L 476 306 L 477 303 L 480 303 L 477 303 Z M 261 299 L 259 299 L 255 305 L 255 307 L 250 314 L 250 318 L 252 318 L 262 304 L 262 300 Z M 439 295 L 443 297 L 451 297 L 452 295 L 448 292 L 445 294 L 443 292 L 440 292 Z M 317 290 L 314 294 L 315 299 L 327 310 L 327 312 L 325 314 L 320 314 L 316 312 L 312 312 L 310 310 L 308 312 L 308 318 L 309 320 L 312 322 L 317 319 L 323 322 L 328 323 L 334 319 L 332 309 L 323 298 L 322 291 L 321 290 Z M 351 285 L 349 287 L 349 289 L 347 292 L 351 301 L 351 305 L 341 310 L 338 310 L 337 312 L 337 317 L 338 316 L 340 317 L 341 319 L 344 318 L 350 318 L 354 323 L 361 324 L 362 325 L 366 325 L 369 328 L 372 328 L 373 327 L 372 323 L 367 317 L 367 315 L 362 305 L 366 301 L 366 297 L 360 292 L 357 292 L 353 287 L 353 285 Z M 319 278 L 319 281 L 320 282 L 322 281 L 323 282 L 326 282 L 328 286 L 331 288 L 333 287 L 333 278 L 332 276 L 330 276 L 328 279 L 325 279 L 324 280 Z M 457 274 L 464 279 L 461 283 L 461 285 L 472 292 L 465 288 L 462 285 L 465 281 L 468 281 L 468 280 L 465 278 L 461 277 Z M 334 251 L 333 250 L 326 250 L 322 252 L 313 253 L 310 255 L 299 256 L 294 258 L 277 258 L 276 257 L 269 257 L 268 256 L 260 255 L 259 254 L 254 254 L 252 256 L 252 259 L 260 268 L 274 278 L 288 285 L 294 285 L 299 282 L 302 282 L 305 279 L 310 279 L 310 278 L 318 270 L 329 261 L 334 254 Z M 333 252 L 332 256 L 320 268 L 308 277 L 305 278 L 302 281 L 297 282 L 292 285 L 284 283 L 275 278 L 263 270 L 253 259 L 253 257 L 255 255 L 261 255 L 262 256 L 272 257 L 273 258 L 294 258 L 295 257 L 301 257 L 302 256 L 312 255 L 313 254 L 316 254 L 317 253 L 320 253 L 329 250 L 331 250 Z M 445 184 L 444 193 L 442 197 L 436 203 L 434 213 L 430 219 L 434 224 L 435 228 L 439 230 L 438 230 L 434 225 L 434 223 L 432 220 L 432 216 L 435 210 L 435 205 L 436 203 L 442 198 L 445 189 Z M 178 178 L 178 181 L 176 186 L 176 190 L 178 190 L 181 188 L 184 190 L 184 195 L 183 196 L 183 209 L 184 212 L 186 214 L 190 210 L 193 212 L 194 221 L 197 229 L 198 230 L 199 227 L 202 225 L 205 228 L 208 235 L 216 243 L 218 244 L 221 241 L 227 243 L 240 255 L 242 258 L 242 260 L 241 261 L 231 260 L 227 264 L 230 267 L 229 271 L 220 280 L 218 278 L 218 275 L 219 274 L 218 273 L 210 280 L 203 284 L 203 285 L 205 285 L 207 287 L 206 290 L 197 298 L 185 305 L 190 305 L 192 308 L 183 317 L 175 322 L 173 322 L 171 324 L 171 325 L 176 324 L 177 325 L 177 328 L 174 330 L 168 337 L 158 344 L 161 345 L 163 347 L 157 353 L 152 356 L 107 403 L 102 405 L 97 405 L 96 406 L 87 407 L 96 406 L 97 405 L 104 405 L 107 403 L 125 385 L 136 372 L 149 360 L 150 358 L 158 353 L 164 346 L 161 342 L 167 338 L 177 329 L 178 327 L 177 321 L 179 319 L 182 318 L 194 306 L 191 303 L 196 298 L 205 292 L 209 287 L 211 289 L 211 292 L 208 296 L 206 306 L 201 312 L 201 319 L 195 327 L 196 335 L 192 340 L 190 348 L 191 343 L 196 335 L 195 329 L 197 324 L 205 315 L 210 314 L 209 312 L 218 302 L 214 298 L 218 291 L 221 289 L 224 285 L 223 279 L 224 277 L 230 272 L 232 266 L 232 263 L 234 261 L 237 262 L 242 262 L 243 261 L 241 255 L 226 241 L 220 237 L 214 235 L 212 233 L 209 233 L 201 224 L 199 225 L 198 224 L 197 225 L 195 222 L 193 212 L 191 209 L 186 213 L 184 211 L 183 208 L 184 189 L 183 188 L 179 188 L 178 189 L 177 188 Z M 215 301 L 216 304 L 208 312 L 208 313 L 205 315 L 203 313 L 205 308 L 210 303 L 213 301 Z M 221 282 L 223 285 L 220 289 L 214 294 L 213 297 L 211 298 L 210 295 L 213 292 L 214 287 L 218 283 Z M 214 277 L 215 280 L 213 283 L 213 285 L 210 288 L 208 285 L 208 283 Z M 180 154 L 174 166 L 175 168 L 179 167 L 181 169 L 180 173 L 181 168 L 176 164 L 177 159 Z M 315 153 L 312 152 L 301 164 L 296 166 L 301 164 L 305 161 L 311 153 L 315 153 L 317 155 L 320 163 L 320 185 L 319 186 L 319 192 L 318 193 L 318 196 L 317 197 L 317 200 L 315 206 L 307 222 L 297 231 L 286 237 L 278 238 L 277 239 L 264 236 L 259 233 L 250 225 L 240 211 L 235 201 L 240 211 L 249 224 L 260 234 L 272 239 L 280 239 L 281 238 L 284 238 L 293 234 L 303 227 L 309 220 L 314 210 L 317 201 L 317 198 L 319 194 L 319 187 L 320 186 L 320 162 L 319 161 L 319 158 Z M 184 147 L 185 154 L 186 156 L 190 159 L 197 159 L 204 155 L 208 151 L 210 153 L 210 158 L 211 146 L 210 146 L 210 147 L 200 157 L 195 159 L 189 158 L 185 154 L 185 146 L 187 142 L 190 139 L 200 134 L 209 134 L 213 139 L 219 138 L 221 140 L 220 160 L 228 169 L 236 170 L 245 165 L 251 165 L 257 167 L 251 165 L 244 165 L 242 167 L 235 170 L 229 169 L 226 167 L 220 160 L 220 152 L 221 151 L 221 146 L 222 145 L 226 148 L 228 152 L 231 155 L 238 158 L 233 156 L 224 146 L 223 143 L 223 135 L 223 138 L 222 139 L 219 138 L 216 138 L 215 139 L 209 134 L 201 133 L 194 136 L 187 141 Z M 325 138 L 326 143 L 331 150 L 342 156 L 348 157 L 349 158 L 365 158 L 368 156 L 372 155 L 376 149 L 376 143 L 374 139 L 369 134 L 356 129 L 342 128 L 341 129 L 333 130 L 330 132 Z M 326 137 L 331 132 L 337 129 L 355 129 L 356 130 L 362 131 L 370 135 L 374 139 L 376 143 L 376 149 L 375 151 L 369 156 L 363 157 L 362 158 L 351 158 L 350 157 L 347 157 L 338 154 L 332 150 L 326 143 Z M 249 117 L 250 119 L 270 118 L 281 122 L 284 120 L 284 117 L 282 115 L 273 111 L 259 111 L 256 113 L 252 114 Z M 251 117 L 255 113 L 258 112 L 274 112 L 277 114 L 279 114 L 283 119 L 281 121 L 279 121 L 272 118 L 255 118 L 253 119 Z M 192 110 L 188 119 L 185 123 L 185 135 L 179 140 L 173 147 L 174 148 L 179 148 L 181 150 L 181 152 L 181 149 L 178 147 L 176 147 L 175 144 L 185 135 L 185 123 L 187 121 Z M 422 72 L 419 78 L 415 82 L 410 85 L 406 86 L 404 88 L 404 91 L 409 96 L 410 99 L 412 101 L 412 103 L 415 108 L 417 115 L 420 120 L 419 123 L 417 125 L 417 127 L 429 138 L 427 141 L 422 141 L 420 143 L 420 145 L 423 149 L 425 150 L 433 163 L 432 164 L 430 163 L 426 163 L 424 165 L 424 169 L 422 171 L 419 172 L 415 171 L 413 173 L 411 173 L 406 170 L 403 170 L 402 171 L 402 173 L 409 181 L 408 183 L 402 183 L 401 184 L 401 187 L 406 191 L 407 194 L 404 195 L 400 193 L 397 193 L 395 195 L 395 197 L 398 200 L 398 203 L 397 204 L 391 202 L 387 202 L 387 205 L 393 212 L 391 214 L 387 213 L 384 215 L 382 215 L 382 221 L 380 223 L 379 222 L 376 222 L 375 223 L 376 225 L 376 232 L 374 234 L 373 234 L 372 232 L 368 232 L 363 238 L 360 238 L 356 240 L 349 247 L 342 252 L 338 260 L 339 264 L 341 266 L 347 266 L 352 263 L 354 263 L 362 256 L 373 254 L 381 248 L 386 246 L 389 246 L 395 240 L 397 240 L 399 238 L 407 235 L 420 236 L 423 238 L 431 240 L 433 243 L 430 244 L 428 246 L 431 250 L 433 250 L 438 253 L 444 255 L 457 264 L 456 266 L 451 266 L 450 267 L 450 270 L 452 272 L 455 273 L 451 270 L 451 268 L 453 266 L 458 266 L 459 265 L 444 255 L 432 250 L 429 247 L 431 244 L 437 244 L 437 243 L 411 233 L 407 233 L 402 235 L 400 237 L 392 241 L 385 247 L 382 247 L 378 249 L 372 254 L 370 254 L 368 252 L 376 241 L 377 237 L 379 235 L 381 235 L 382 237 L 384 238 L 390 232 L 399 220 L 403 223 L 403 226 L 407 228 L 408 227 L 408 225 L 410 223 L 414 213 L 414 205 L 415 204 L 418 204 L 420 206 L 422 205 L 422 186 L 424 184 L 427 185 L 429 187 L 431 186 L 428 177 L 428 174 L 424 167 L 424 165 L 426 163 L 429 163 L 432 165 L 435 164 L 433 160 L 430 157 L 428 153 L 422 147 L 420 143 L 422 141 L 431 141 L 432 140 L 426 134 L 422 132 L 418 128 L 418 125 L 422 122 L 415 110 L 415 108 L 412 103 L 410 97 L 405 91 L 405 88 L 407 86 L 414 83 L 420 77 Z M 349 257 L 350 260 L 347 262 L 346 260 L 347 258 Z M 364 247 L 366 249 L 365 252 L 355 260 L 353 258 L 355 250 L 357 248 L 362 249 Z M 391 205 L 393 204 L 396 206 L 399 210 L 396 212 L 391 207 Z M 402 196 L 405 198 L 405 202 L 404 203 L 402 202 L 402 200 L 400 198 Z M 407 175 L 409 174 L 411 177 L 409 178 Z M 210 58 L 200 58 L 197 60 L 190 68 L 190 71 L 189 72 L 189 78 L 190 81 L 198 90 L 203 89 L 209 80 L 219 69 L 218 65 Z M 208 58 L 212 60 L 218 66 L 218 69 L 213 74 L 207 82 L 206 85 L 201 90 L 199 90 L 191 82 L 190 76 L 189 75 L 191 67 L 199 59 L 201 58 Z M 384 47 L 377 55 L 376 57 L 376 62 L 385 69 L 394 79 L 396 80 L 400 80 L 407 75 L 409 72 L 409 69 L 410 68 L 410 60 L 406 52 L 399 46 L 396 45 L 389 45 Z M 387 46 L 390 45 L 398 46 L 407 54 L 410 61 L 410 68 L 408 72 L 400 79 L 395 79 L 383 66 L 377 62 L 377 56 L 379 53 Z M 337 43 L 333 43 L 332 42 L 317 42 L 316 43 L 313 43 L 311 41 L 314 34 L 313 32 L 309 33 L 300 42 L 298 42 L 291 37 L 283 34 L 282 36 L 284 40 L 284 43 L 280 46 L 277 46 L 276 45 L 263 45 L 260 49 L 261 49 L 264 45 L 272 45 L 273 46 L 282 46 L 284 45 L 285 42 L 283 37 L 285 35 L 298 42 L 300 42 L 310 33 L 313 35 L 311 39 L 311 42 L 312 43 L 318 43 L 319 42 L 331 42 L 332 43 Z M 398 31 L 399 32 L 402 32 L 404 34 L 407 35 L 417 45 L 423 54 L 423 60 L 424 61 L 423 63 L 423 70 L 424 59 L 423 58 L 423 54 L 420 48 L 415 41 L 408 35 L 400 31 Z M 396 30 L 385 30 L 384 31 L 378 32 L 376 34 L 373 35 L 365 43 L 364 48 L 361 51 L 358 51 L 348 46 L 339 44 L 345 45 L 355 50 L 362 52 L 364 50 L 364 47 L 366 42 L 375 34 L 385 30 Z" fill="#E8E8E8" fill-rule="evenodd"/><path d="M 438 627 L 439 628 L 443 628 L 444 627 L 466 626 L 466 624 L 463 623 L 450 623 L 449 624 L 441 625 Z M 436 544 L 442 549 L 445 549 L 449 551 L 453 550 L 453 549 L 451 549 L 447 546 L 441 544 L 438 544 L 437 543 Z M 237 505 L 239 513 L 244 522 L 247 525 L 248 524 L 247 518 L 241 508 Z M 218 458 L 217 458 L 216 460 L 215 470 L 216 470 L 217 468 Z M 214 431 L 211 434 L 209 440 L 212 438 L 213 434 L 215 432 Z M 380 403 L 384 409 L 388 409 L 389 408 L 389 406 L 387 404 L 385 404 L 382 402 Z M 215 302 L 213 302 L 206 308 L 204 312 L 205 314 L 207 313 L 207 312 L 215 304 Z M 221 283 L 218 284 L 215 287 L 214 292 L 211 295 L 211 297 L 212 297 L 213 294 L 217 291 L 222 285 Z M 332 252 L 329 251 L 328 252 L 325 252 L 324 253 L 321 253 L 312 256 L 302 257 L 301 258 L 295 258 L 294 259 L 273 259 L 272 258 L 267 258 L 261 256 L 255 256 L 254 259 L 263 269 L 275 277 L 284 282 L 292 284 L 297 281 L 302 280 L 305 277 L 308 276 L 311 273 L 315 271 L 331 256 Z M 364 248 L 362 250 L 359 249 L 356 250 L 354 256 L 355 259 L 364 252 L 365 249 Z M 392 205 L 392 207 L 397 211 L 398 209 Z M 188 142 L 186 146 L 186 154 L 189 157 L 192 158 L 195 158 L 200 156 L 210 145 L 212 146 L 211 159 L 215 168 L 222 175 L 227 177 L 230 180 L 230 184 L 233 192 L 233 195 L 238 206 L 251 225 L 262 234 L 270 237 L 274 237 L 275 238 L 283 237 L 292 233 L 300 228 L 308 219 L 316 200 L 316 197 L 318 192 L 318 186 L 319 185 L 319 163 L 318 162 L 318 159 L 315 154 L 311 154 L 307 160 L 301 165 L 289 170 L 274 172 L 273 171 L 267 171 L 266 170 L 255 168 L 251 166 L 245 166 L 236 171 L 231 171 L 228 170 L 219 160 L 219 149 L 220 148 L 220 140 L 219 139 L 213 140 L 209 135 L 200 135 L 190 140 Z M 214 142 L 216 140 L 219 140 L 220 141 L 219 151 L 218 152 L 218 157 L 220 163 L 224 168 L 229 171 L 232 171 L 233 172 L 238 171 L 247 166 L 253 168 L 256 168 L 260 170 L 263 170 L 264 171 L 268 171 L 269 172 L 282 172 L 283 171 L 287 171 L 302 165 L 306 162 L 310 156 L 313 154 L 316 157 L 318 162 L 318 185 L 317 186 L 317 191 L 316 192 L 316 196 L 315 197 L 315 200 L 308 217 L 303 224 L 299 227 L 297 225 L 306 208 L 307 201 L 305 197 L 302 194 L 293 190 L 282 190 L 276 192 L 264 200 L 259 206 L 257 210 L 257 217 L 260 223 L 267 231 L 265 233 L 262 233 L 259 231 L 248 220 L 238 205 L 232 190 L 230 178 L 223 175 L 214 165 L 212 160 L 212 149 L 213 148 Z M 327 137 L 327 143 L 329 146 L 338 153 L 340 153 L 343 155 L 346 155 L 351 157 L 362 157 L 371 154 L 375 149 L 375 143 L 373 139 L 367 134 L 365 134 L 359 131 L 356 131 L 355 130 L 337 130 L 331 133 Z M 252 117 L 253 118 L 255 117 L 272 117 L 279 120 L 282 119 L 279 115 L 277 115 L 274 113 L 258 113 L 255 114 Z M 229 105 L 226 108 L 223 114 L 223 118 L 222 119 L 223 126 L 227 129 L 224 134 L 224 143 L 227 149 L 233 155 L 243 159 L 251 159 L 252 158 L 255 158 L 268 152 L 274 145 L 275 142 L 275 136 L 274 134 L 267 128 L 258 125 L 245 124 L 244 125 L 239 125 L 237 126 L 236 124 L 239 119 L 239 116 L 240 115 L 239 108 L 236 104 L 231 104 Z M 224 135 L 228 130 L 237 126 L 240 126 L 241 125 L 257 125 L 269 130 L 274 135 L 275 140 L 273 145 L 263 154 L 253 158 L 241 158 L 233 154 L 228 149 L 224 142 Z M 235 104 L 239 109 L 239 118 L 233 126 L 229 128 L 226 128 L 223 124 L 223 116 L 226 109 L 230 105 Z M 314 103 L 308 110 L 307 113 L 307 124 L 309 128 L 312 131 L 314 132 L 319 132 L 323 128 L 325 124 L 325 111 L 323 107 L 319 103 Z M 316 103 L 319 104 L 323 108 L 325 113 L 325 122 L 323 127 L 319 131 L 313 131 L 309 127 L 307 122 L 308 111 L 309 109 Z M 248 68 L 245 66 L 241 66 L 236 68 L 227 76 L 227 81 L 229 83 L 232 83 L 237 79 L 247 75 L 249 72 Z M 248 70 L 248 72 L 245 75 L 239 77 L 232 82 L 229 82 L 227 80 L 228 76 L 234 70 L 240 67 L 245 67 Z M 313 64 L 313 68 L 314 69 L 323 71 L 332 77 L 335 76 L 337 73 L 336 67 L 332 63 L 328 61 L 318 60 Z M 313 65 L 317 61 L 326 61 L 332 64 L 335 67 L 336 69 L 336 73 L 332 76 L 325 71 L 319 69 L 316 69 Z M 208 59 L 201 59 L 199 60 L 192 67 L 190 75 L 191 76 L 192 82 L 199 89 L 201 89 L 205 85 L 206 82 L 217 69 L 217 66 L 212 61 Z M 387 47 L 384 49 L 378 56 L 378 62 L 383 65 L 395 78 L 400 78 L 407 72 L 409 68 L 409 61 L 406 54 L 398 47 L 395 46 Z M 399 29 L 387 28 L 386 29 L 379 30 L 373 33 L 366 39 L 361 49 L 358 49 L 351 45 L 345 43 L 341 43 L 337 41 L 331 41 L 330 40 L 318 40 L 315 41 L 314 40 L 314 37 L 316 34 L 316 31 L 315 30 L 312 30 L 306 33 L 299 40 L 297 40 L 294 37 L 287 33 L 282 32 L 280 34 L 282 39 L 282 42 L 280 44 L 275 44 L 274 43 L 262 43 L 258 48 L 243 52 L 233 59 L 230 57 L 226 49 L 221 45 L 212 41 L 203 41 L 194 44 L 189 47 L 181 55 L 176 66 L 176 69 L 175 70 L 176 83 L 181 92 L 185 96 L 192 99 L 194 101 L 194 103 L 188 116 L 184 122 L 183 125 L 184 133 L 183 135 L 172 145 L 171 148 L 172 150 L 176 150 L 177 149 L 179 151 L 179 153 L 172 167 L 173 170 L 176 170 L 177 169 L 179 171 L 177 179 L 175 182 L 175 192 L 177 193 L 180 191 L 182 193 L 182 201 L 181 202 L 182 211 L 185 216 L 187 216 L 189 214 L 192 215 L 193 223 L 195 229 L 199 233 L 200 230 L 203 229 L 209 239 L 214 244 L 223 249 L 230 256 L 230 258 L 227 261 L 218 261 L 214 265 L 217 269 L 217 271 L 210 278 L 198 285 L 198 288 L 202 287 L 204 289 L 196 297 L 193 298 L 181 306 L 182 307 L 187 307 L 188 308 L 187 311 L 182 316 L 174 320 L 167 325 L 168 327 L 172 327 L 173 329 L 167 336 L 163 338 L 155 345 L 155 346 L 158 348 L 158 350 L 148 357 L 124 383 L 124 384 L 106 402 L 82 407 L 78 409 L 73 414 L 72 417 L 73 422 L 81 426 L 83 428 L 83 430 L 81 432 L 75 434 L 70 437 L 64 444 L 63 448 L 65 451 L 75 451 L 76 450 L 79 450 L 88 447 L 91 449 L 86 454 L 78 459 L 72 466 L 69 472 L 69 480 L 71 482 L 78 482 L 80 481 L 93 470 L 97 468 L 99 471 L 89 488 L 89 493 L 92 496 L 99 495 L 109 488 L 110 476 L 112 474 L 114 474 L 116 476 L 114 488 L 117 497 L 120 499 L 123 499 L 128 497 L 132 494 L 146 479 L 155 463 L 165 454 L 169 452 L 176 445 L 176 429 L 178 423 L 182 417 L 180 407 L 181 406 L 182 400 L 185 394 L 188 391 L 187 381 L 189 377 L 189 374 L 193 366 L 193 363 L 191 359 L 191 347 L 198 334 L 197 328 L 199 324 L 205 318 L 209 316 L 211 318 L 211 321 L 207 329 L 207 335 L 201 348 L 202 350 L 204 350 L 206 352 L 205 360 L 203 364 L 203 367 L 199 373 L 195 382 L 196 383 L 199 383 L 201 385 L 196 395 L 190 403 L 190 407 L 194 406 L 196 408 L 196 410 L 191 419 L 191 421 L 185 434 L 185 437 L 188 437 L 191 434 L 193 436 L 193 439 L 190 448 L 190 452 L 189 453 L 188 466 L 190 467 L 193 465 L 195 467 L 195 473 L 194 474 L 194 484 L 195 485 L 195 488 L 196 489 L 198 488 L 201 489 L 202 496 L 205 502 L 214 515 L 215 518 L 213 521 L 209 518 L 206 518 L 204 522 L 205 524 L 207 524 L 209 526 L 209 528 L 206 534 L 206 536 L 202 543 L 202 545 L 204 546 L 208 544 L 210 546 L 206 556 L 205 563 L 203 567 L 202 575 L 204 576 L 207 573 L 210 575 L 210 580 L 208 585 L 208 590 L 211 591 L 213 593 L 214 603 L 215 604 L 215 607 L 219 619 L 225 625 L 241 626 L 247 628 L 249 631 L 248 632 L 244 632 L 243 631 L 238 631 L 237 630 L 215 630 L 201 635 L 196 640 L 191 653 L 191 660 L 193 665 L 198 669 L 200 668 L 200 658 L 201 655 L 207 648 L 210 648 L 211 649 L 211 652 L 208 660 L 208 670 L 210 672 L 213 672 L 214 673 L 221 673 L 223 674 L 225 672 L 224 670 L 224 663 L 227 655 L 230 652 L 233 652 L 235 654 L 235 658 L 233 662 L 233 668 L 232 669 L 233 673 L 235 675 L 268 675 L 269 674 L 278 674 L 279 673 L 287 673 L 288 672 L 300 671 L 301 670 L 305 670 L 306 669 L 309 669 L 315 667 L 320 662 L 321 660 L 321 656 L 322 655 L 322 645 L 321 644 L 321 640 L 320 639 L 319 632 L 321 630 L 324 631 L 325 629 L 324 628 L 323 612 L 322 611 L 322 607 L 320 602 L 322 600 L 326 602 L 327 601 L 327 592 L 326 591 L 326 588 L 329 580 L 329 576 L 328 575 L 317 573 L 305 569 L 300 565 L 300 563 L 302 561 L 307 561 L 308 562 L 324 564 L 325 565 L 347 566 L 349 562 L 349 558 L 350 557 L 351 550 L 352 548 L 359 542 L 361 544 L 361 549 L 360 550 L 360 575 L 361 576 L 361 579 L 362 580 L 365 580 L 367 582 L 369 587 L 370 594 L 373 595 L 375 597 L 379 607 L 382 608 L 385 611 L 388 617 L 389 622 L 393 626 L 397 634 L 397 641 L 395 646 L 395 662 L 397 666 L 401 670 L 413 674 L 414 673 L 414 669 L 413 668 L 414 658 L 416 654 L 418 652 L 420 652 L 423 655 L 423 659 L 424 660 L 424 673 L 425 675 L 428 677 L 438 677 L 442 675 L 442 657 L 445 653 L 448 653 L 451 656 L 453 662 L 453 674 L 454 675 L 463 674 L 468 672 L 471 669 L 472 666 L 471 653 L 472 650 L 475 647 L 478 648 L 482 654 L 482 667 L 484 669 L 489 667 L 495 662 L 499 655 L 501 649 L 502 636 L 501 635 L 500 626 L 491 609 L 491 606 L 487 595 L 487 592 L 483 580 L 483 577 L 476 558 L 477 551 L 472 542 L 476 537 L 468 523 L 471 519 L 474 519 L 475 518 L 475 509 L 477 506 L 471 503 L 466 503 L 465 502 L 443 501 L 440 500 L 438 498 L 436 498 L 430 493 L 426 493 L 425 492 L 419 491 L 414 487 L 411 486 L 404 478 L 402 472 L 402 465 L 393 458 L 389 449 L 389 437 L 394 425 L 402 415 L 402 411 L 403 410 L 403 399 L 404 398 L 404 371 L 401 362 L 387 336 L 387 333 L 389 331 L 395 337 L 408 354 L 410 350 L 413 347 L 415 346 L 417 348 L 416 364 L 415 365 L 415 396 L 414 397 L 413 417 L 402 430 L 400 434 L 399 443 L 401 449 L 404 452 L 409 452 L 417 443 L 419 443 L 421 445 L 421 450 L 419 456 L 411 466 L 413 471 L 419 477 L 421 478 L 428 478 L 430 477 L 436 468 L 442 463 L 444 465 L 444 468 L 441 477 L 439 480 L 439 484 L 440 486 L 443 488 L 450 489 L 456 487 L 462 480 L 467 469 L 471 466 L 473 468 L 473 474 L 469 483 L 469 488 L 470 489 L 475 489 L 478 487 L 495 469 L 501 458 L 502 452 L 503 451 L 503 447 L 504 446 L 503 425 L 505 423 L 508 423 L 509 422 L 509 411 L 508 410 L 508 403 L 507 402 L 507 397 L 506 395 L 508 393 L 512 394 L 512 388 L 510 384 L 510 381 L 508 378 L 508 375 L 506 369 L 504 366 L 506 363 L 511 365 L 512 364 L 512 361 L 507 352 L 503 347 L 502 344 L 495 335 L 497 333 L 503 335 L 506 335 L 507 334 L 506 332 L 480 307 L 481 305 L 489 306 L 490 303 L 487 300 L 474 291 L 468 288 L 465 285 L 467 283 L 471 283 L 472 281 L 470 279 L 459 274 L 454 270 L 455 268 L 460 268 L 462 266 L 458 262 L 449 256 L 437 250 L 435 250 L 433 248 L 435 245 L 441 245 L 440 242 L 438 242 L 435 240 L 430 239 L 427 237 L 418 234 L 416 232 L 418 230 L 418 228 L 415 228 L 411 225 L 415 216 L 415 211 L 418 207 L 422 209 L 424 206 L 424 189 L 426 187 L 430 190 L 433 189 L 432 181 L 428 172 L 427 166 L 429 165 L 433 167 L 436 167 L 437 164 L 434 158 L 423 145 L 425 142 L 427 143 L 433 143 L 434 142 L 434 139 L 420 127 L 424 124 L 424 121 L 420 116 L 415 106 L 415 104 L 408 92 L 408 89 L 411 86 L 414 85 L 421 78 L 425 69 L 425 56 L 424 55 L 424 52 L 418 42 L 408 33 Z M 313 663 L 313 661 L 315 659 L 318 660 L 314 664 Z M 318 646 L 321 647 L 321 654 L 319 658 L 317 657 L 317 647 Z M 318 638 L 320 640 L 320 642 L 318 644 L 317 643 L 317 639 Z M 314 574 L 316 573 L 317 574 L 324 575 L 327 577 L 327 579 L 324 582 L 322 579 L 319 577 L 316 577 Z M 337 564 L 338 561 L 340 562 L 345 561 L 347 563 L 345 565 L 338 565 Z M 211 527 L 213 527 L 222 538 L 238 549 L 260 572 L 274 583 L 282 591 L 285 596 L 285 598 L 283 600 L 281 599 L 279 600 L 281 605 L 279 608 L 278 608 L 271 601 L 270 601 L 270 603 L 280 612 L 286 621 L 286 626 L 289 630 L 289 634 L 294 646 L 294 655 L 288 662 L 284 665 L 279 667 L 275 673 L 271 673 L 270 674 L 255 674 L 254 675 L 235 674 L 233 672 L 233 664 L 236 656 L 236 653 L 234 651 L 231 651 L 227 654 L 224 660 L 224 671 L 222 673 L 210 671 L 208 669 L 208 664 L 209 663 L 209 658 L 212 651 L 212 648 L 211 647 L 207 647 L 203 650 L 200 656 L 199 665 L 197 667 L 193 664 L 192 661 L 192 651 L 193 650 L 193 647 L 196 641 L 202 635 L 217 630 L 234 630 L 235 631 L 241 631 L 247 633 L 252 633 L 253 632 L 252 630 L 246 627 L 243 627 L 238 625 L 228 625 L 225 624 L 220 619 L 216 609 L 216 606 L 215 605 L 215 602 L 214 601 L 214 591 L 212 589 L 210 590 L 208 588 L 210 578 L 211 577 L 211 573 L 210 572 L 207 572 L 205 574 L 203 572 L 205 561 L 210 547 L 210 543 L 204 544 L 203 542 L 207 535 L 209 529 Z M 94 482 L 95 483 L 95 492 L 96 493 L 94 495 L 92 495 L 90 493 L 90 487 Z M 116 469 L 120 471 L 123 471 L 125 473 L 121 477 L 119 482 L 119 489 L 120 490 L 120 493 L 122 495 L 121 498 L 119 498 L 116 494 L 116 490 L 115 489 L 116 487 L 116 483 L 117 482 L 117 478 L 118 477 L 118 474 L 115 471 Z M 73 467 L 75 468 L 74 470 L 74 478 L 75 481 L 74 482 L 72 482 L 69 479 L 69 474 Z M 73 437 L 74 438 L 69 444 L 69 447 L 66 450 L 64 448 L 64 445 L 70 438 Z M 109 428 L 115 425 L 126 426 L 132 429 L 142 439 L 148 450 L 148 458 L 144 465 L 141 468 L 137 470 L 123 470 L 120 468 L 116 467 L 110 463 L 103 456 L 100 449 L 100 441 L 102 438 L 103 434 Z M 218 265 L 220 262 L 223 264 L 221 266 Z M 195 44 L 201 42 L 213 42 L 221 46 L 228 53 L 230 59 L 233 60 L 241 54 L 247 51 L 250 51 L 255 49 L 259 49 L 263 44 L 276 44 L 277 45 L 282 44 L 283 43 L 283 40 L 281 35 L 283 33 L 291 36 L 298 41 L 300 41 L 309 32 L 313 31 L 315 33 L 314 37 L 312 40 L 313 42 L 316 42 L 317 41 L 332 41 L 333 42 L 337 42 L 338 43 L 345 44 L 358 50 L 361 50 L 363 48 L 364 43 L 373 34 L 376 33 L 378 31 L 384 30 L 385 29 L 396 29 L 408 34 L 414 39 L 419 45 L 424 54 L 425 66 L 424 67 L 423 73 L 421 77 L 414 84 L 406 88 L 406 91 L 411 97 L 413 103 L 416 108 L 416 110 L 423 122 L 419 125 L 419 128 L 422 131 L 426 133 L 433 140 L 431 142 L 422 142 L 421 143 L 423 147 L 429 153 L 436 164 L 434 166 L 432 166 L 429 164 L 426 164 L 425 165 L 425 167 L 429 174 L 429 177 L 432 186 L 430 188 L 425 185 L 423 186 L 423 205 L 421 207 L 418 205 L 415 205 L 415 213 L 413 219 L 409 225 L 409 227 L 407 229 L 404 228 L 402 226 L 402 223 L 399 221 L 391 232 L 384 239 L 383 239 L 381 236 L 378 237 L 377 241 L 369 252 L 370 253 L 374 252 L 378 248 L 382 246 L 385 246 L 395 238 L 407 232 L 411 232 L 437 242 L 438 243 L 437 245 L 431 245 L 430 247 L 432 249 L 444 254 L 460 265 L 458 267 L 453 267 L 452 270 L 454 272 L 459 274 L 463 277 L 465 277 L 469 280 L 468 282 L 465 282 L 463 285 L 483 298 L 488 303 L 487 305 L 477 304 L 477 306 L 489 316 L 505 332 L 503 334 L 497 332 L 493 332 L 493 334 L 499 341 L 511 361 L 509 364 L 506 362 L 503 362 L 503 365 L 506 371 L 509 380 L 509 383 L 511 386 L 511 391 L 510 392 L 507 391 L 505 392 L 505 396 L 507 400 L 507 407 L 508 408 L 508 418 L 505 421 L 503 420 L 501 421 L 502 429 L 503 430 L 503 449 L 501 452 L 501 455 L 495 466 L 479 485 L 477 485 L 475 487 L 472 487 L 471 486 L 471 482 L 474 474 L 474 466 L 472 464 L 467 467 L 465 472 L 463 474 L 463 476 L 459 482 L 453 487 L 446 488 L 443 487 L 440 484 L 440 480 L 445 468 L 445 463 L 444 462 L 441 462 L 438 464 L 430 475 L 426 477 L 422 477 L 418 475 L 415 472 L 412 466 L 418 459 L 420 455 L 421 449 L 422 448 L 422 444 L 420 442 L 417 442 L 409 451 L 405 451 L 400 445 L 400 437 L 403 430 L 412 420 L 414 416 L 414 403 L 415 402 L 415 393 L 416 392 L 416 361 L 417 360 L 418 346 L 417 345 L 414 345 L 408 351 L 407 351 L 397 339 L 390 328 L 385 324 L 382 328 L 382 330 L 384 332 L 387 340 L 392 347 L 392 349 L 395 355 L 395 361 L 401 367 L 402 374 L 403 375 L 402 412 L 400 416 L 397 419 L 395 419 L 393 424 L 391 426 L 391 429 L 389 432 L 388 438 L 387 439 L 388 454 L 389 455 L 389 463 L 390 464 L 390 470 L 391 473 L 393 475 L 397 474 L 403 480 L 404 483 L 404 496 L 406 498 L 410 498 L 417 505 L 419 505 L 423 509 L 425 509 L 430 514 L 432 514 L 441 519 L 443 521 L 440 524 L 438 524 L 439 526 L 442 526 L 452 534 L 453 537 L 455 539 L 458 548 L 465 552 L 467 552 L 471 556 L 471 558 L 477 564 L 477 566 L 479 568 L 483 580 L 485 591 L 487 595 L 487 601 L 489 604 L 489 607 L 499 624 L 500 632 L 501 633 L 501 646 L 499 650 L 499 653 L 497 655 L 497 657 L 495 660 L 490 665 L 486 667 L 483 665 L 483 654 L 479 647 L 473 647 L 471 649 L 471 665 L 470 666 L 470 669 L 467 672 L 460 673 L 459 674 L 456 674 L 454 672 L 454 662 L 451 654 L 448 652 L 445 652 L 442 655 L 442 659 L 441 660 L 441 674 L 439 676 L 428 676 L 425 673 L 424 656 L 421 651 L 418 651 L 415 654 L 413 660 L 413 671 L 411 673 L 403 670 L 396 663 L 395 660 L 395 650 L 396 649 L 396 644 L 398 640 L 397 632 L 393 624 L 389 620 L 389 617 L 385 609 L 379 604 L 375 596 L 375 594 L 370 589 L 368 581 L 362 574 L 362 571 L 361 570 L 360 552 L 362 546 L 362 536 L 366 531 L 368 525 L 366 525 L 362 529 L 361 532 L 358 534 L 356 532 L 356 522 L 357 521 L 356 518 L 354 519 L 347 533 L 340 540 L 338 540 L 335 542 L 332 540 L 334 534 L 334 530 L 335 529 L 335 526 L 334 525 L 317 543 L 312 539 L 313 531 L 314 530 L 314 526 L 313 525 L 303 541 L 300 541 L 297 538 L 295 538 L 294 541 L 292 543 L 289 543 L 280 537 L 264 521 L 261 516 L 260 516 L 260 518 L 264 526 L 277 543 L 276 546 L 275 545 L 270 546 L 259 538 L 255 539 L 247 532 L 243 533 L 234 521 L 233 521 L 230 525 L 225 518 L 225 516 L 220 508 L 219 509 L 219 515 L 218 516 L 216 515 L 216 513 L 212 506 L 203 496 L 202 489 L 201 488 L 201 484 L 199 483 L 197 486 L 195 485 L 195 461 L 193 461 L 191 464 L 189 463 L 190 450 L 194 438 L 194 434 L 191 433 L 188 436 L 186 434 L 187 433 L 187 430 L 192 420 L 192 418 L 197 409 L 197 406 L 196 405 L 193 406 L 191 405 L 192 401 L 196 396 L 201 386 L 201 383 L 197 381 L 197 378 L 202 370 L 204 364 L 211 351 L 213 349 L 215 343 L 211 343 L 206 347 L 203 346 L 204 342 L 207 337 L 208 327 L 212 319 L 212 316 L 211 315 L 205 316 L 198 324 L 196 329 L 197 335 L 194 339 L 190 349 L 190 358 L 191 361 L 193 363 L 193 365 L 191 368 L 191 370 L 187 379 L 187 391 L 185 393 L 181 401 L 179 411 L 178 412 L 179 415 L 173 421 L 171 427 L 167 431 L 162 439 L 154 447 L 154 458 L 155 461 L 151 469 L 148 472 L 146 477 L 137 488 L 135 487 L 137 483 L 137 476 L 135 474 L 137 472 L 142 470 L 147 465 L 150 459 L 150 450 L 148 448 L 148 446 L 143 438 L 133 428 L 125 424 L 115 423 L 110 425 L 103 431 L 99 439 L 98 448 L 100 454 L 104 461 L 113 467 L 114 469 L 113 470 L 107 470 L 100 475 L 99 474 L 101 468 L 100 459 L 95 453 L 93 453 L 91 451 L 93 447 L 92 445 L 93 442 L 93 437 L 91 434 L 86 434 L 85 435 L 79 436 L 76 438 L 73 437 L 75 435 L 85 430 L 99 428 L 107 421 L 107 417 L 104 414 L 86 414 L 81 416 L 75 422 L 73 420 L 73 415 L 74 413 L 83 407 L 86 407 L 91 405 L 96 405 L 97 404 L 102 404 L 107 402 L 122 387 L 122 386 L 135 373 L 135 372 L 152 355 L 157 352 L 162 347 L 159 346 L 157 344 L 168 336 L 171 332 L 176 328 L 176 325 L 171 326 L 170 324 L 173 321 L 175 321 L 183 316 L 191 308 L 190 306 L 185 306 L 184 305 L 186 303 L 197 297 L 205 290 L 206 287 L 203 286 L 202 284 L 210 279 L 218 272 L 220 274 L 219 275 L 219 278 L 220 279 L 228 271 L 229 267 L 226 264 L 231 259 L 241 260 L 241 258 L 239 255 L 227 244 L 223 242 L 221 242 L 218 245 L 216 244 L 207 235 L 204 228 L 202 226 L 200 227 L 200 229 L 198 231 L 196 229 L 193 221 L 192 212 L 190 211 L 186 215 L 183 212 L 182 209 L 182 196 L 183 195 L 183 190 L 182 189 L 178 191 L 175 190 L 175 186 L 176 185 L 176 182 L 177 181 L 177 178 L 180 169 L 179 168 L 175 169 L 173 166 L 178 155 L 180 153 L 180 150 L 179 149 L 174 149 L 172 147 L 173 145 L 184 135 L 184 123 L 187 119 L 194 104 L 194 100 L 192 98 L 190 98 L 184 94 L 179 88 L 176 81 L 176 68 L 181 56 L 190 47 Z M 403 20 L 399 20 L 398 19 L 383 19 L 382 20 L 378 20 L 368 24 L 355 35 L 352 35 L 343 32 L 339 32 L 338 31 L 327 31 L 325 29 L 324 25 L 319 21 L 308 22 L 299 28 L 297 28 L 289 23 L 281 22 L 276 24 L 274 26 L 272 32 L 270 34 L 262 34 L 246 41 L 244 41 L 239 44 L 236 44 L 230 38 L 219 32 L 216 32 L 215 31 L 202 31 L 201 32 L 197 32 L 191 34 L 181 40 L 171 51 L 165 66 L 165 80 L 166 81 L 167 88 L 173 99 L 181 107 L 181 110 L 176 117 L 175 121 L 173 124 L 173 132 L 164 141 L 162 145 L 163 153 L 166 156 L 166 160 L 163 166 L 163 171 L 165 176 L 167 178 L 167 181 L 166 182 L 166 194 L 168 198 L 172 202 L 171 209 L 172 210 L 173 217 L 177 222 L 183 224 L 186 227 L 186 230 L 189 236 L 192 239 L 198 242 L 200 242 L 210 252 L 211 255 L 206 259 L 200 271 L 190 279 L 187 284 L 187 289 L 184 292 L 176 296 L 172 300 L 171 302 L 171 309 L 164 314 L 158 320 L 157 322 L 157 328 L 153 332 L 149 334 L 143 340 L 138 350 L 109 380 L 104 388 L 99 392 L 89 392 L 88 393 L 84 393 L 83 394 L 77 395 L 68 400 L 63 405 L 59 413 L 59 424 L 60 425 L 60 429 L 53 438 L 51 444 L 51 453 L 53 457 L 60 463 L 60 466 L 58 469 L 58 472 L 57 473 L 57 480 L 60 487 L 64 491 L 70 493 L 76 493 L 78 495 L 80 501 L 84 505 L 88 507 L 97 508 L 108 503 L 112 508 L 121 511 L 123 510 L 128 510 L 131 508 L 135 507 L 139 504 L 150 493 L 159 479 L 162 472 L 166 468 L 172 465 L 175 462 L 177 461 L 179 463 L 179 471 L 181 476 L 185 481 L 185 487 L 186 488 L 187 495 L 197 507 L 197 510 L 193 520 L 193 528 L 196 533 L 192 542 L 192 550 L 196 556 L 192 568 L 192 577 L 193 580 L 198 585 L 199 597 L 205 615 L 207 618 L 207 620 L 205 622 L 203 622 L 197 625 L 186 634 L 182 641 L 180 647 L 179 657 L 180 658 L 181 666 L 183 668 L 184 671 L 188 675 L 196 679 L 199 679 L 204 681 L 208 681 L 209 682 L 213 682 L 214 683 L 222 683 L 223 684 L 240 684 L 241 685 L 243 684 L 245 685 L 250 685 L 251 684 L 275 684 L 276 683 L 287 683 L 288 682 L 294 682 L 295 681 L 306 680 L 307 679 L 310 679 L 311 678 L 314 678 L 320 676 L 322 674 L 325 673 L 330 667 L 333 659 L 333 642 L 332 639 L 335 633 L 334 609 L 337 603 L 337 587 L 338 586 L 338 582 L 339 579 L 341 577 L 346 577 L 349 580 L 352 589 L 357 599 L 366 610 L 367 613 L 374 620 L 379 631 L 385 638 L 385 641 L 381 651 L 381 660 L 385 670 L 392 678 L 402 683 L 405 683 L 410 685 L 415 685 L 416 686 L 421 686 L 422 687 L 432 687 L 434 688 L 435 687 L 457 687 L 458 686 L 465 686 L 466 685 L 471 685 L 475 683 L 482 682 L 498 675 L 503 671 L 509 664 L 515 650 L 515 634 L 514 633 L 514 628 L 507 612 L 507 610 L 505 607 L 505 605 L 501 598 L 498 589 L 497 582 L 495 578 L 495 575 L 489 560 L 489 540 L 488 539 L 487 528 L 486 527 L 486 515 L 487 514 L 487 509 L 488 508 L 488 504 L 489 503 L 489 500 L 491 494 L 508 476 L 510 471 L 512 469 L 512 467 L 517 456 L 518 440 L 519 439 L 520 427 L 521 426 L 521 408 L 520 407 L 520 404 L 524 398 L 524 389 L 520 377 L 520 374 L 523 370 L 524 362 L 521 353 L 517 347 L 517 343 L 519 341 L 519 334 L 513 324 L 501 312 L 502 309 L 502 303 L 500 299 L 493 291 L 484 285 L 484 276 L 478 270 L 475 269 L 473 267 L 472 261 L 467 256 L 456 249 L 457 247 L 457 243 L 448 235 L 436 230 L 434 228 L 433 224 L 429 220 L 433 213 L 435 203 L 441 197 L 443 193 L 444 183 L 442 177 L 447 173 L 447 169 L 448 168 L 446 158 L 442 152 L 442 150 L 444 148 L 446 143 L 445 138 L 442 133 L 435 127 L 434 119 L 431 115 L 431 113 L 422 94 L 422 91 L 425 89 L 431 82 L 435 73 L 435 70 L 436 69 L 436 58 L 435 57 L 435 52 L 433 46 L 429 38 L 419 28 L 411 23 L 409 23 Z M 404 21 L 413 25 L 419 29 L 428 38 L 432 45 L 435 54 L 435 59 L 436 60 L 436 66 L 435 67 L 434 74 L 430 82 L 420 92 L 420 93 L 422 95 L 427 105 L 429 112 L 434 121 L 434 127 L 442 134 L 445 139 L 445 145 L 441 151 L 445 157 L 447 163 L 447 171 L 441 176 L 443 181 L 443 191 L 440 197 L 434 202 L 433 211 L 427 220 L 432 224 L 433 228 L 435 230 L 441 233 L 443 233 L 450 237 L 456 243 L 456 250 L 466 256 L 471 261 L 472 263 L 472 267 L 474 269 L 477 270 L 484 277 L 483 285 L 494 293 L 500 300 L 502 305 L 501 313 L 513 325 L 519 335 L 519 339 L 516 343 L 516 347 L 520 352 L 523 360 L 523 369 L 520 372 L 519 375 L 523 387 L 524 396 L 520 403 L 520 432 L 518 436 L 517 452 L 511 469 L 503 480 L 491 493 L 489 499 L 489 502 L 488 503 L 488 506 L 487 507 L 487 511 L 486 512 L 486 532 L 487 533 L 487 537 L 489 543 L 488 557 L 492 567 L 492 570 L 494 573 L 494 576 L 497 583 L 497 586 L 498 587 L 498 590 L 501 599 L 505 606 L 505 608 L 507 611 L 507 613 L 514 629 L 514 633 L 515 634 L 514 651 L 510 661 L 503 670 L 495 676 L 480 682 L 477 682 L 468 685 L 463 685 L 462 686 L 455 686 L 454 687 L 424 687 L 423 686 L 417 686 L 416 685 L 407 684 L 398 681 L 393 678 L 386 671 L 382 663 L 381 654 L 382 653 L 382 648 L 384 645 L 386 638 L 379 630 L 374 619 L 369 614 L 364 606 L 357 598 L 353 590 L 349 578 L 348 577 L 340 577 L 337 585 L 337 601 L 336 602 L 336 605 L 333 609 L 334 619 L 335 620 L 335 632 L 332 638 L 333 657 L 330 666 L 324 673 L 321 674 L 319 676 L 313 677 L 309 679 L 299 680 L 298 681 L 292 681 L 291 682 L 284 682 L 283 683 L 270 683 L 269 684 L 228 684 L 227 683 L 218 683 L 217 682 L 211 682 L 210 681 L 206 681 L 205 680 L 198 679 L 189 675 L 184 670 L 180 661 L 180 649 L 185 637 L 188 633 L 195 627 L 200 624 L 206 622 L 207 621 L 207 617 L 200 599 L 199 590 L 198 589 L 198 584 L 193 579 L 192 576 L 192 568 L 196 557 L 196 554 L 193 551 L 192 548 L 193 539 L 196 534 L 196 531 L 193 527 L 193 521 L 197 511 L 197 506 L 187 494 L 186 486 L 185 485 L 185 480 L 181 475 L 179 470 L 179 461 L 177 460 L 174 463 L 163 470 L 155 485 L 152 488 L 150 492 L 137 505 L 127 510 L 117 510 L 114 509 L 109 503 L 107 503 L 99 507 L 89 507 L 85 505 L 80 500 L 77 493 L 74 492 L 67 492 L 65 491 L 60 486 L 57 478 L 58 470 L 60 467 L 61 463 L 53 456 L 51 452 L 51 446 L 52 445 L 53 439 L 61 429 L 61 426 L 59 422 L 59 414 L 64 405 L 70 399 L 78 395 L 84 394 L 85 393 L 100 392 L 107 385 L 110 380 L 138 351 L 143 341 L 151 333 L 157 329 L 158 321 L 165 314 L 171 310 L 171 303 L 172 301 L 178 295 L 181 293 L 185 292 L 187 290 L 187 285 L 189 281 L 200 272 L 202 266 L 206 260 L 211 256 L 211 252 L 209 251 L 201 242 L 193 239 L 189 235 L 186 229 L 186 225 L 180 223 L 174 217 L 172 213 L 172 201 L 168 197 L 166 193 L 166 183 L 168 178 L 164 173 L 164 164 L 167 159 L 167 156 L 163 152 L 163 144 L 165 140 L 173 133 L 173 126 L 175 120 L 182 109 L 182 107 L 173 98 L 167 87 L 166 80 L 165 79 L 165 69 L 166 68 L 166 64 L 168 58 L 173 49 L 183 39 L 190 35 L 199 32 L 205 32 L 206 31 L 217 32 L 224 35 L 230 39 L 235 45 L 238 45 L 243 42 L 245 42 L 261 35 L 272 35 L 273 34 L 273 29 L 274 27 L 279 23 L 287 23 L 299 29 L 307 23 L 317 21 L 320 22 L 323 25 L 326 31 L 341 32 L 353 36 L 356 36 L 362 29 L 369 24 L 373 23 L 376 21 L 386 20 L 387 19 L 396 19 L 397 20 Z" fill="#B1B1B1" fill-rule="evenodd"/><path d="M 109 429 L 104 434 L 103 438 L 101 441 L 101 449 L 104 456 L 110 462 L 111 462 L 116 466 L 120 467 L 123 469 L 137 469 L 141 467 L 143 465 L 147 458 L 147 450 L 146 449 L 146 447 L 144 445 L 141 439 L 132 430 L 126 427 L 123 427 L 122 426 L 115 426 Z M 215 142 L 214 148 L 213 149 L 213 160 L 214 161 L 214 163 L 217 168 L 223 174 L 227 176 L 229 176 L 231 178 L 233 190 L 234 191 L 235 196 L 238 201 L 239 205 L 241 207 L 242 210 L 249 219 L 249 220 L 259 230 L 260 230 L 262 232 L 265 232 L 266 231 L 259 223 L 256 217 L 256 210 L 258 206 L 261 203 L 261 202 L 268 196 L 269 196 L 274 192 L 281 190 L 282 189 L 293 189 L 302 193 L 306 197 L 308 201 L 307 208 L 305 211 L 305 213 L 300 220 L 298 225 L 299 226 L 302 224 L 302 223 L 307 217 L 310 211 L 310 209 L 312 206 L 312 204 L 314 200 L 314 197 L 315 196 L 316 186 L 317 185 L 317 162 L 316 161 L 315 157 L 313 155 L 312 155 L 308 160 L 308 161 L 302 166 L 296 169 L 294 169 L 287 172 L 283 172 L 282 173 L 269 173 L 268 172 L 264 172 L 263 171 L 260 171 L 256 169 L 253 169 L 252 168 L 249 168 L 247 167 L 246 168 L 244 168 L 242 170 L 238 172 L 235 172 L 233 173 L 232 172 L 229 172 L 224 169 L 219 163 L 218 161 L 218 158 L 217 157 L 217 152 L 218 151 L 219 141 L 216 141 Z M 225 135 L 225 142 L 229 149 L 233 153 L 241 157 L 253 157 L 254 156 L 256 156 L 259 154 L 263 153 L 272 145 L 273 141 L 274 140 L 273 135 L 269 131 L 261 127 L 258 127 L 257 126 L 241 126 L 240 127 L 237 127 L 228 131 Z M 235 105 L 232 105 L 230 106 L 227 109 L 225 113 L 225 115 L 224 116 L 224 124 L 226 127 L 229 127 L 233 125 L 238 118 L 238 109 Z M 317 104 L 314 105 L 310 109 L 309 111 L 309 114 L 308 115 L 308 122 L 309 123 L 310 127 L 313 130 L 319 130 L 322 127 L 323 123 L 324 122 L 324 113 L 323 112 L 323 110 L 322 108 Z M 247 70 L 245 68 L 240 68 L 234 71 L 229 76 L 228 80 L 229 81 L 232 81 L 239 76 L 245 74 L 247 72 Z M 314 65 L 314 66 L 316 68 L 319 68 L 320 69 L 325 70 L 332 75 L 333 75 L 335 73 L 335 69 L 334 67 L 332 65 L 326 62 L 317 62 Z M 404 22 L 401 22 L 400 21 L 397 21 L 396 20 L 387 20 L 386 21 L 380 21 L 379 22 L 376 22 L 366 27 L 363 30 L 362 30 L 356 37 L 353 37 L 352 36 L 346 35 L 345 34 L 342 34 L 341 33 L 326 32 L 324 30 L 322 25 L 320 23 L 318 23 L 317 22 L 314 22 L 313 23 L 307 24 L 299 30 L 287 24 L 279 24 L 275 27 L 274 29 L 274 34 L 272 36 L 261 36 L 260 37 L 255 38 L 250 41 L 248 41 L 245 43 L 243 43 L 238 46 L 235 46 L 230 40 L 220 34 L 218 34 L 217 33 L 213 33 L 212 32 L 199 33 L 198 34 L 195 34 L 192 36 L 190 36 L 183 40 L 174 49 L 169 58 L 169 60 L 167 64 L 167 68 L 166 69 L 166 79 L 167 80 L 167 84 L 168 85 L 168 87 L 174 98 L 183 107 L 182 111 L 180 113 L 179 116 L 176 120 L 176 122 L 174 126 L 174 133 L 166 140 L 164 144 L 164 152 L 168 156 L 168 159 L 165 164 L 165 173 L 169 178 L 168 182 L 167 183 L 167 193 L 169 197 L 173 201 L 173 213 L 175 217 L 180 222 L 182 223 L 185 223 L 187 225 L 187 229 L 190 235 L 193 238 L 201 241 L 208 248 L 208 249 L 212 252 L 212 256 L 207 260 L 207 261 L 203 266 L 203 268 L 201 272 L 190 281 L 188 285 L 188 290 L 185 293 L 181 294 L 179 296 L 178 296 L 173 301 L 172 303 L 172 310 L 166 315 L 165 315 L 159 321 L 159 323 L 158 324 L 158 329 L 155 332 L 151 334 L 144 341 L 139 351 L 111 380 L 108 385 L 100 393 L 85 394 L 84 395 L 78 396 L 70 400 L 65 405 L 60 414 L 60 422 L 62 426 L 62 429 L 54 439 L 53 445 L 52 446 L 52 452 L 54 456 L 62 463 L 61 467 L 59 470 L 58 478 L 59 479 L 59 482 L 61 486 L 65 490 L 67 491 L 74 491 L 75 492 L 77 492 L 79 494 L 79 496 L 81 500 L 85 504 L 89 506 L 99 506 L 107 502 L 109 502 L 114 508 L 116 508 L 117 509 L 127 509 L 137 504 L 149 492 L 151 488 L 154 485 L 156 480 L 158 478 L 162 470 L 165 467 L 168 466 L 177 459 L 178 459 L 180 461 L 180 470 L 181 471 L 182 475 L 186 480 L 186 485 L 187 486 L 187 491 L 188 492 L 188 494 L 198 506 L 198 511 L 197 512 L 197 514 L 194 521 L 194 527 L 197 531 L 197 534 L 194 539 L 194 542 L 193 543 L 193 548 L 194 549 L 194 551 L 197 554 L 197 557 L 196 558 L 196 560 L 194 564 L 194 567 L 193 568 L 193 576 L 194 577 L 194 579 L 199 584 L 199 589 L 200 590 L 200 595 L 201 596 L 201 599 L 202 600 L 205 611 L 208 617 L 208 621 L 206 623 L 202 625 L 200 625 L 195 628 L 191 632 L 190 632 L 186 637 L 181 649 L 181 661 L 185 670 L 189 674 L 198 678 L 201 678 L 202 679 L 205 679 L 206 680 L 210 680 L 211 681 L 217 681 L 218 682 L 227 682 L 228 683 L 269 683 L 270 682 L 283 682 L 284 681 L 291 681 L 292 680 L 304 679 L 305 678 L 309 678 L 313 676 L 319 675 L 321 673 L 324 672 L 329 666 L 330 662 L 331 661 L 331 658 L 332 657 L 332 645 L 331 644 L 331 638 L 334 632 L 334 620 L 333 619 L 332 609 L 334 607 L 335 605 L 335 602 L 336 601 L 336 585 L 337 584 L 338 578 L 340 576 L 348 576 L 350 578 L 352 585 L 354 588 L 354 590 L 358 598 L 365 606 L 370 614 L 375 619 L 375 620 L 377 622 L 377 624 L 380 630 L 387 638 L 387 640 L 383 648 L 383 653 L 382 654 L 383 663 L 387 671 L 393 677 L 398 680 L 400 680 L 403 682 L 406 682 L 407 683 L 411 683 L 412 684 L 416 684 L 417 685 L 423 685 L 424 686 L 454 686 L 455 685 L 462 685 L 463 684 L 468 684 L 469 683 L 480 681 L 481 680 L 486 679 L 489 677 L 491 677 L 495 675 L 502 669 L 503 669 L 509 661 L 511 657 L 512 652 L 513 651 L 513 646 L 514 645 L 514 634 L 513 633 L 513 629 L 512 628 L 511 623 L 508 618 L 508 616 L 506 613 L 506 611 L 504 608 L 504 606 L 500 599 L 500 597 L 497 590 L 496 583 L 493 576 L 493 573 L 491 570 L 491 567 L 490 566 L 490 564 L 488 561 L 488 558 L 487 557 L 487 553 L 488 552 L 488 543 L 487 542 L 487 538 L 486 537 L 486 533 L 485 532 L 485 512 L 486 511 L 486 507 L 487 506 L 487 503 L 488 502 L 488 499 L 489 498 L 489 495 L 490 493 L 492 491 L 492 490 L 502 480 L 502 479 L 506 475 L 506 474 L 510 469 L 511 465 L 513 462 L 514 457 L 515 456 L 515 453 L 516 452 L 517 436 L 519 432 L 519 403 L 522 399 L 522 397 L 523 396 L 522 387 L 521 386 L 520 379 L 518 375 L 519 372 L 522 369 L 522 360 L 521 359 L 521 356 L 519 352 L 515 347 L 515 343 L 518 339 L 518 335 L 512 325 L 500 313 L 500 308 L 501 307 L 501 305 L 500 304 L 499 300 L 494 294 L 493 294 L 489 290 L 485 288 L 482 285 L 483 277 L 477 271 L 474 270 L 471 267 L 471 263 L 466 257 L 465 257 L 460 253 L 457 252 L 455 250 L 455 243 L 447 236 L 435 231 L 432 228 L 431 224 L 426 220 L 426 219 L 430 215 L 432 211 L 432 208 L 433 207 L 433 202 L 439 197 L 442 191 L 442 181 L 441 180 L 440 176 L 446 171 L 446 163 L 445 162 L 444 157 L 442 155 L 440 150 L 444 145 L 444 139 L 441 134 L 433 127 L 433 121 L 428 112 L 426 105 L 421 95 L 419 93 L 419 92 L 429 82 L 434 71 L 435 60 L 434 59 L 434 54 L 433 53 L 431 45 L 427 38 L 419 30 L 418 30 L 413 26 L 409 24 L 407 24 Z M 399 28 L 408 32 L 411 35 L 412 35 L 419 42 L 425 52 L 425 55 L 426 56 L 426 69 L 425 70 L 425 72 L 422 78 L 414 86 L 411 87 L 409 89 L 409 92 L 412 96 L 421 116 L 425 121 L 425 124 L 421 127 L 425 131 L 429 133 L 435 139 L 435 142 L 433 144 L 427 144 L 425 143 L 424 145 L 435 158 L 438 164 L 438 166 L 436 168 L 433 168 L 432 167 L 428 166 L 428 169 L 433 181 L 434 189 L 432 191 L 430 191 L 426 188 L 425 189 L 425 206 L 422 210 L 421 210 L 419 208 L 417 209 L 416 211 L 416 216 L 412 225 L 415 227 L 418 227 L 419 228 L 419 230 L 417 232 L 422 235 L 427 236 L 430 238 L 435 239 L 438 241 L 440 241 L 442 243 L 442 245 L 441 246 L 435 246 L 434 248 L 449 255 L 451 257 L 458 261 L 463 266 L 460 269 L 455 269 L 455 270 L 459 273 L 470 278 L 473 281 L 473 282 L 471 284 L 467 284 L 466 285 L 468 287 L 474 290 L 483 297 L 487 299 L 491 303 L 491 305 L 489 307 L 486 307 L 485 306 L 481 306 L 481 307 L 487 313 L 488 313 L 507 332 L 508 334 L 506 336 L 503 336 L 499 334 L 497 334 L 496 335 L 503 344 L 504 347 L 508 352 L 509 355 L 511 357 L 513 361 L 513 364 L 511 366 L 507 364 L 505 365 L 507 369 L 508 374 L 509 375 L 509 378 L 511 381 L 512 387 L 513 388 L 513 394 L 512 395 L 510 395 L 509 394 L 507 395 L 508 397 L 508 402 L 509 403 L 509 410 L 510 411 L 510 422 L 508 424 L 505 424 L 504 425 L 504 433 L 505 434 L 505 446 L 504 447 L 504 451 L 503 452 L 502 458 L 496 469 L 478 488 L 477 488 L 475 490 L 470 490 L 468 488 L 468 483 L 470 480 L 470 478 L 472 474 L 472 468 L 471 467 L 470 467 L 468 469 L 463 480 L 460 483 L 460 484 L 456 488 L 454 489 L 451 489 L 450 490 L 446 490 L 445 489 L 443 489 L 441 488 L 438 484 L 438 480 L 440 477 L 440 475 L 442 472 L 442 469 L 443 468 L 443 465 L 442 464 L 441 464 L 437 468 L 435 472 L 430 478 L 428 479 L 421 479 L 419 478 L 412 471 L 410 467 L 411 464 L 418 456 L 418 454 L 420 450 L 420 445 L 419 444 L 417 444 L 409 453 L 404 453 L 400 449 L 400 447 L 398 443 L 399 434 L 401 430 L 412 417 L 413 397 L 414 396 L 414 365 L 415 364 L 416 348 L 415 347 L 413 348 L 408 355 L 401 347 L 401 346 L 394 338 L 394 337 L 389 332 L 388 333 L 388 336 L 402 362 L 402 364 L 404 367 L 404 370 L 405 371 L 405 398 L 404 399 L 404 410 L 403 411 L 403 415 L 397 422 L 392 431 L 392 433 L 390 437 L 390 449 L 391 450 L 392 455 L 394 457 L 394 458 L 403 465 L 403 472 L 404 473 L 405 478 L 411 485 L 414 486 L 419 490 L 425 491 L 426 492 L 430 492 L 436 497 L 438 497 L 440 499 L 442 499 L 443 500 L 451 500 L 452 501 L 465 501 L 466 502 L 471 502 L 478 506 L 478 507 L 476 509 L 476 518 L 474 520 L 471 520 L 469 522 L 469 523 L 477 537 L 477 538 L 475 540 L 474 540 L 473 542 L 478 551 L 478 555 L 477 556 L 477 558 L 478 559 L 478 561 L 479 562 L 479 564 L 480 565 L 480 567 L 481 568 L 481 570 L 484 577 L 484 580 L 486 584 L 486 587 L 487 588 L 488 595 L 490 599 L 490 602 L 492 606 L 492 609 L 496 617 L 498 619 L 501 626 L 501 629 L 502 630 L 502 635 L 503 636 L 503 644 L 502 645 L 502 649 L 501 650 L 500 655 L 496 662 L 489 668 L 485 669 L 484 670 L 481 667 L 481 654 L 479 650 L 475 648 L 473 650 L 473 652 L 472 653 L 472 657 L 473 658 L 473 666 L 472 667 L 472 669 L 468 673 L 464 674 L 463 675 L 454 676 L 452 674 L 452 662 L 451 661 L 451 658 L 448 654 L 445 654 L 443 657 L 443 675 L 441 677 L 439 677 L 438 678 L 428 678 L 424 675 L 423 673 L 423 660 L 422 659 L 422 655 L 420 653 L 418 653 L 415 658 L 415 661 L 414 662 L 415 673 L 413 675 L 411 674 L 408 674 L 405 672 L 401 671 L 396 666 L 394 662 L 394 646 L 395 645 L 395 642 L 396 641 L 396 634 L 395 633 L 395 631 L 392 626 L 388 622 L 387 617 L 384 611 L 382 609 L 380 609 L 378 607 L 374 597 L 373 596 L 371 596 L 369 594 L 369 592 L 368 591 L 368 587 L 367 586 L 366 582 L 365 581 L 362 581 L 360 579 L 360 576 L 359 575 L 359 550 L 360 549 L 360 544 L 359 543 L 353 548 L 352 552 L 351 553 L 350 562 L 349 563 L 349 565 L 347 567 L 333 567 L 332 566 L 325 566 L 324 565 L 313 564 L 312 563 L 308 563 L 307 562 L 302 562 L 301 563 L 301 565 L 305 568 L 307 568 L 308 569 L 310 569 L 317 572 L 328 574 L 330 576 L 330 580 L 329 581 L 328 587 L 327 588 L 327 591 L 328 592 L 328 601 L 326 603 L 323 601 L 321 602 L 322 603 L 323 611 L 324 612 L 324 618 L 325 619 L 325 628 L 326 629 L 326 630 L 324 632 L 322 632 L 321 631 L 320 632 L 320 635 L 321 636 L 321 639 L 322 640 L 322 644 L 323 645 L 323 655 L 322 656 L 322 660 L 321 662 L 315 668 L 313 668 L 309 670 L 306 670 L 305 671 L 301 671 L 300 672 L 288 673 L 287 674 L 279 674 L 278 675 L 269 675 L 268 676 L 235 676 L 232 673 L 232 671 L 231 670 L 232 668 L 232 662 L 234 658 L 234 654 L 233 653 L 230 653 L 228 655 L 226 659 L 226 662 L 225 663 L 225 670 L 226 672 L 223 675 L 221 674 L 214 674 L 213 673 L 210 673 L 207 670 L 207 660 L 208 659 L 208 656 L 210 652 L 210 649 L 207 649 L 202 655 L 202 657 L 201 658 L 201 668 L 199 670 L 198 670 L 196 668 L 195 668 L 191 663 L 191 661 L 190 660 L 190 653 L 191 652 L 192 646 L 195 640 L 201 634 L 205 632 L 210 631 L 211 630 L 214 630 L 215 629 L 237 629 L 238 630 L 248 631 L 247 629 L 245 629 L 241 627 L 236 627 L 235 626 L 225 626 L 218 619 L 218 617 L 216 614 L 216 611 L 214 607 L 214 604 L 213 603 L 213 597 L 212 596 L 212 593 L 211 592 L 209 592 L 207 590 L 207 585 L 208 584 L 208 581 L 209 580 L 209 575 L 207 574 L 204 577 L 203 577 L 201 575 L 202 567 L 204 563 L 205 556 L 206 555 L 206 553 L 209 546 L 207 545 L 203 547 L 201 545 L 201 543 L 205 536 L 205 534 L 208 528 L 208 526 L 207 525 L 205 525 L 203 523 L 203 522 L 204 521 L 204 519 L 206 517 L 209 517 L 212 520 L 213 520 L 214 518 L 213 517 L 213 515 L 204 502 L 201 496 L 200 489 L 196 490 L 194 488 L 194 485 L 193 484 L 193 474 L 194 473 L 194 467 L 192 466 L 190 468 L 189 468 L 187 466 L 188 453 L 189 452 L 189 448 L 190 447 L 192 436 L 191 435 L 188 438 L 185 438 L 184 437 L 184 434 L 187 428 L 187 426 L 190 421 L 190 419 L 195 410 L 195 408 L 194 407 L 192 408 L 190 408 L 189 407 L 189 403 L 195 395 L 200 385 L 199 384 L 196 384 L 194 382 L 198 373 L 200 371 L 202 367 L 202 364 L 204 360 L 204 355 L 205 354 L 205 352 L 204 351 L 202 351 L 200 349 L 200 348 L 205 338 L 205 336 L 206 335 L 206 329 L 210 321 L 210 318 L 209 317 L 205 319 L 200 324 L 198 328 L 199 334 L 192 347 L 192 359 L 194 363 L 194 366 L 190 374 L 190 377 L 188 381 L 188 387 L 189 388 L 189 391 L 186 394 L 183 400 L 182 406 L 181 407 L 181 410 L 182 411 L 183 417 L 181 421 L 179 423 L 179 425 L 177 429 L 177 445 L 169 453 L 165 455 L 156 463 L 155 466 L 151 471 L 147 479 L 132 495 L 131 495 L 128 498 L 124 499 L 123 500 L 120 500 L 118 499 L 115 495 L 115 492 L 113 488 L 115 476 L 114 475 L 112 475 L 111 476 L 111 483 L 110 484 L 110 488 L 107 491 L 101 494 L 99 496 L 97 496 L 96 497 L 92 497 L 88 493 L 88 488 L 98 471 L 97 469 L 93 471 L 80 482 L 78 483 L 71 483 L 68 480 L 68 472 L 71 466 L 78 458 L 86 453 L 90 449 L 88 448 L 87 449 L 84 449 L 83 450 L 80 450 L 79 451 L 76 451 L 75 452 L 65 452 L 62 448 L 63 444 L 70 436 L 82 430 L 82 428 L 81 427 L 74 424 L 72 422 L 71 420 L 72 414 L 78 408 L 82 406 L 106 401 L 123 384 L 123 383 L 134 372 L 134 371 L 145 360 L 145 359 L 148 356 L 149 356 L 152 353 L 157 350 L 157 348 L 156 348 L 154 346 L 154 345 L 163 337 L 167 335 L 172 329 L 172 328 L 168 328 L 166 326 L 166 325 L 174 319 L 182 315 L 186 311 L 187 308 L 182 308 L 180 306 L 183 303 L 188 301 L 193 297 L 196 296 L 203 289 L 202 288 L 198 289 L 197 288 L 197 285 L 202 281 L 204 281 L 206 279 L 210 277 L 216 271 L 216 269 L 213 266 L 213 265 L 218 260 L 227 260 L 229 258 L 229 256 L 223 250 L 214 245 L 208 239 L 208 238 L 204 233 L 203 230 L 201 230 L 201 232 L 199 234 L 194 229 L 193 227 L 193 224 L 192 223 L 191 215 L 189 215 L 187 217 L 185 217 L 183 215 L 181 211 L 181 207 L 180 206 L 180 202 L 181 201 L 181 193 L 180 192 L 176 194 L 174 192 L 174 182 L 176 179 L 178 171 L 177 170 L 176 171 L 173 171 L 171 169 L 171 167 L 178 153 L 178 151 L 177 150 L 176 151 L 172 151 L 170 149 L 170 148 L 171 147 L 171 145 L 182 135 L 183 133 L 183 131 L 182 130 L 182 125 L 183 124 L 183 122 L 185 118 L 187 116 L 193 103 L 193 101 L 192 100 L 185 97 L 180 92 L 175 83 L 175 79 L 174 78 L 174 70 L 175 69 L 175 66 L 178 60 L 178 58 L 180 56 L 180 55 L 189 46 L 194 43 L 196 43 L 199 41 L 202 41 L 203 40 L 212 40 L 221 44 L 227 49 L 231 57 L 233 58 L 243 51 L 245 51 L 252 48 L 256 48 L 258 47 L 262 42 L 274 42 L 275 43 L 280 43 L 281 42 L 281 39 L 280 38 L 279 34 L 282 31 L 287 32 L 294 36 L 297 39 L 299 39 L 306 32 L 312 29 L 315 29 L 317 31 L 317 34 L 315 37 L 315 40 L 317 40 L 318 39 L 330 39 L 331 40 L 337 40 L 341 42 L 345 42 L 346 43 L 351 44 L 358 48 L 361 48 L 362 44 L 365 39 L 373 32 L 379 29 L 381 29 L 382 28 L 386 28 L 387 27 L 394 27 L 395 28 Z" fill="#010101" fill-rule="evenodd"/></svg>