<svg xmlns="http://www.w3.org/2000/svg" viewBox="0 0 653 704" shape-rendering="geometricPrecision"><title>intro frame 061</title><path d="M 264 181 L 264 184 L 263 185 L 263 193 L 266 199 L 272 203 L 279 203 L 289 196 L 289 195 L 284 195 L 281 193 L 277 192 L 273 189 L 266 181 Z M 58 185 L 58 186 L 65 190 L 76 202 L 76 210 L 75 212 L 70 217 L 62 216 L 62 218 L 68 223 L 70 228 L 71 228 L 73 225 L 76 213 L 79 210 L 82 203 L 87 198 L 97 193 L 112 193 L 119 197 L 126 204 L 130 210 L 132 220 L 130 223 L 129 227 L 119 237 L 117 237 L 102 248 L 100 248 L 95 251 L 92 251 L 91 252 L 86 252 L 80 249 L 73 241 L 70 235 L 69 235 L 66 239 L 63 239 L 59 237 L 50 228 L 50 217 L 48 216 L 45 219 L 45 225 L 49 230 L 52 236 L 61 245 L 67 248 L 72 253 L 80 258 L 86 264 L 89 272 L 95 278 L 103 282 L 120 300 L 123 301 L 127 305 L 130 306 L 142 315 L 150 319 L 152 319 L 156 322 L 159 322 L 164 325 L 175 326 L 181 329 L 181 332 L 178 336 L 191 336 L 194 337 L 197 340 L 209 340 L 210 339 L 214 339 L 216 341 L 216 343 L 214 345 L 214 349 L 218 350 L 225 340 L 226 336 L 229 333 L 231 329 L 231 325 L 234 320 L 234 315 L 236 310 L 238 308 L 238 305 L 240 301 L 250 289 L 250 284 L 248 280 L 244 277 L 241 277 L 239 279 L 236 278 L 225 268 L 221 269 L 218 272 L 214 272 L 210 268 L 204 256 L 202 256 L 201 263 L 199 265 L 196 264 L 190 258 L 180 242 L 178 242 L 176 245 L 173 247 L 158 229 L 144 215 L 143 213 L 143 208 L 146 202 L 146 195 L 145 195 L 145 196 L 137 203 L 132 203 L 130 202 L 125 196 L 126 184 L 123 183 L 121 181 L 115 189 L 109 189 L 102 185 L 101 186 L 96 186 L 94 185 L 93 189 L 90 192 L 85 195 L 81 195 L 80 196 L 76 196 L 65 187 L 61 185 Z M 137 172 L 136 173 L 140 175 L 144 179 L 146 184 L 147 184 L 147 180 L 145 178 L 145 176 L 141 172 Z M 71 163 L 71 165 L 73 165 L 75 163 L 81 163 L 85 165 L 82 161 L 79 160 L 74 160 Z M 435 61 L 432 61 L 431 60 L 420 60 L 411 64 L 403 71 L 400 79 L 397 82 L 394 82 L 385 78 L 380 78 L 379 77 L 371 76 L 370 75 L 355 75 L 354 76 L 349 76 L 347 74 L 347 69 L 348 68 L 347 65 L 344 66 L 334 75 L 330 74 L 323 68 L 318 67 L 317 68 L 318 70 L 318 76 L 314 79 L 311 79 L 306 77 L 300 78 L 296 83 L 291 86 L 280 89 L 270 98 L 268 98 L 259 88 L 249 83 L 240 83 L 239 84 L 236 84 L 230 86 L 228 88 L 225 89 L 221 93 L 217 100 L 215 106 L 215 118 L 218 126 L 221 130 L 228 135 L 232 135 L 235 138 L 234 144 L 232 147 L 231 152 L 226 161 L 226 171 L 218 181 L 218 184 L 222 184 L 224 186 L 223 187 L 223 190 L 218 200 L 218 204 L 223 204 L 225 206 L 221 226 L 222 227 L 228 225 L 230 227 L 230 237 L 229 238 L 229 242 L 230 243 L 230 246 L 232 248 L 236 245 L 239 245 L 241 247 L 243 254 L 251 261 L 253 265 L 256 268 L 258 267 L 262 268 L 273 274 L 281 281 L 284 286 L 284 289 L 282 291 L 280 291 L 273 287 L 270 284 L 266 284 L 260 291 L 259 291 L 253 297 L 249 299 L 249 307 L 241 314 L 241 324 L 238 328 L 238 333 L 236 337 L 236 340 L 233 345 L 233 349 L 232 350 L 231 357 L 228 363 L 232 363 L 240 359 L 242 360 L 244 363 L 240 370 L 217 394 L 222 400 L 219 405 L 212 413 L 212 415 L 210 417 L 211 419 L 214 419 L 216 421 L 216 425 L 213 429 L 213 431 L 206 443 L 206 446 L 209 444 L 211 444 L 213 446 L 213 456 L 210 463 L 209 471 L 211 471 L 213 469 L 215 469 L 217 471 L 216 489 L 218 490 L 222 495 L 222 504 L 225 513 L 231 520 L 236 521 L 242 528 L 246 528 L 251 532 L 254 536 L 257 538 L 259 538 L 259 535 L 257 532 L 256 526 L 252 520 L 252 507 L 253 504 L 255 502 L 257 504 L 257 522 L 259 524 L 261 530 L 261 533 L 263 535 L 263 538 L 265 540 L 266 543 L 266 546 L 268 547 L 271 545 L 273 546 L 276 543 L 279 543 L 284 538 L 287 537 L 289 535 L 293 534 L 296 531 L 298 531 L 306 523 L 313 518 L 322 515 L 334 508 L 341 507 L 344 505 L 347 505 L 348 504 L 362 502 L 363 501 L 377 501 L 382 505 L 382 507 L 379 510 L 373 510 L 372 511 L 368 511 L 365 513 L 361 513 L 352 518 L 344 520 L 331 527 L 328 530 L 323 532 L 320 535 L 317 536 L 306 544 L 302 545 L 299 548 L 301 555 L 299 557 L 289 562 L 287 562 L 282 566 L 284 572 L 284 578 L 275 592 L 274 606 L 272 610 L 272 618 L 271 619 L 271 629 L 292 636 L 298 640 L 302 644 L 302 646 L 300 648 L 296 648 L 292 646 L 287 646 L 278 643 L 271 643 L 270 642 L 268 643 L 265 642 L 245 642 L 244 643 L 238 644 L 236 646 L 233 647 L 228 652 L 228 654 L 226 657 L 227 660 L 229 660 L 229 659 L 236 653 L 239 652 L 250 652 L 253 655 L 253 657 L 252 658 L 251 666 L 248 673 L 250 675 L 252 675 L 255 677 L 258 677 L 264 667 L 272 659 L 276 659 L 279 662 L 279 667 L 277 671 L 276 679 L 279 681 L 282 681 L 283 682 L 294 682 L 295 683 L 322 683 L 323 682 L 328 682 L 329 681 L 340 681 L 338 677 L 338 669 L 337 668 L 337 665 L 340 663 L 340 657 L 343 654 L 345 647 L 351 638 L 351 636 L 356 625 L 356 621 L 358 618 L 358 615 L 361 609 L 372 599 L 374 599 L 378 596 L 388 586 L 390 582 L 405 567 L 409 560 L 412 557 L 413 554 L 417 550 L 417 548 L 419 546 L 422 533 L 424 530 L 430 525 L 432 520 L 439 514 L 439 512 L 441 510 L 444 511 L 448 505 L 448 500 L 450 497 L 450 489 L 451 488 L 450 487 L 446 487 L 445 490 L 443 492 L 438 492 L 432 485 L 433 483 L 433 479 L 434 476 L 436 474 L 438 474 L 438 472 L 435 471 L 432 468 L 428 456 L 427 455 L 423 455 L 418 453 L 410 446 L 398 442 L 391 436 L 391 434 L 394 431 L 398 430 L 401 433 L 406 434 L 418 440 L 424 440 L 425 439 L 425 434 L 422 428 L 422 416 L 419 414 L 415 409 L 415 405 L 418 402 L 422 402 L 428 408 L 429 410 L 429 418 L 434 426 L 434 429 L 429 434 L 428 436 L 428 440 L 425 443 L 426 446 L 431 451 L 432 455 L 440 461 L 443 465 L 445 465 L 448 467 L 450 464 L 448 458 L 444 454 L 440 447 L 440 443 L 441 442 L 445 442 L 454 447 L 455 444 L 443 428 L 443 420 L 445 418 L 445 414 L 443 411 L 443 407 L 442 406 L 438 406 L 433 401 L 430 400 L 428 398 L 426 392 L 426 388 L 427 386 L 425 384 L 425 376 L 423 375 L 419 368 L 419 363 L 422 361 L 428 361 L 424 355 L 424 352 L 426 350 L 430 351 L 432 353 L 434 353 L 441 357 L 445 357 L 449 359 L 452 359 L 461 369 L 462 369 L 462 361 L 464 359 L 467 359 L 469 361 L 471 366 L 471 371 L 473 373 L 477 373 L 480 376 L 484 384 L 487 399 L 489 402 L 489 404 L 491 406 L 491 417 L 487 425 L 487 432 L 489 436 L 494 441 L 497 442 L 500 439 L 502 434 L 507 429 L 510 429 L 514 435 L 515 449 L 519 454 L 521 454 L 527 458 L 532 459 L 534 458 L 536 455 L 537 445 L 539 441 L 542 438 L 546 437 L 549 440 L 549 442 L 551 444 L 551 447 L 554 450 L 559 449 L 563 444 L 563 430 L 566 426 L 568 425 L 571 426 L 574 429 L 575 433 L 577 435 L 579 434 L 580 431 L 580 413 L 578 408 L 578 404 L 576 402 L 575 395 L 572 389 L 569 386 L 568 382 L 566 380 L 567 376 L 571 373 L 573 370 L 561 357 L 564 350 L 564 347 L 558 342 L 556 342 L 549 333 L 549 324 L 542 319 L 540 319 L 534 316 L 529 311 L 529 305 L 527 303 L 524 303 L 519 301 L 515 301 L 512 299 L 507 299 L 504 296 L 505 291 L 503 289 L 480 286 L 478 284 L 478 280 L 475 278 L 469 278 L 468 277 L 435 276 L 422 282 L 418 285 L 411 284 L 410 286 L 403 292 L 402 292 L 399 288 L 399 279 L 402 273 L 405 270 L 407 272 L 408 275 L 411 271 L 412 267 L 414 265 L 417 267 L 417 270 L 418 270 L 419 266 L 416 264 L 418 262 L 422 264 L 424 262 L 424 253 L 426 251 L 430 254 L 429 251 L 430 244 L 434 240 L 437 241 L 439 240 L 439 237 L 433 232 L 432 230 L 433 229 L 442 230 L 442 227 L 440 222 L 442 219 L 446 220 L 449 223 L 451 222 L 451 220 L 449 217 L 449 214 L 446 211 L 446 208 L 448 206 L 450 208 L 451 205 L 444 198 L 444 197 L 447 195 L 455 199 L 460 199 L 463 202 L 463 205 L 466 208 L 472 210 L 472 207 L 470 204 L 470 201 L 466 192 L 466 187 L 468 185 L 471 185 L 471 183 L 468 178 L 461 170 L 461 168 L 464 165 L 471 165 L 472 164 L 468 160 L 460 156 L 456 152 L 456 149 L 458 147 L 458 144 L 451 133 L 451 131 L 449 129 L 448 126 L 443 121 L 442 118 L 440 116 L 440 115 L 444 111 L 449 108 L 455 101 L 457 97 L 457 92 L 458 91 L 457 83 L 454 75 L 445 66 Z M 241 489 L 242 490 L 242 496 L 240 498 L 238 496 L 238 491 Z M 236 468 L 237 469 L 237 473 L 235 476 L 233 474 L 233 471 L 234 469 Z M 396 467 L 399 465 L 405 466 L 415 475 L 417 479 L 415 481 L 411 481 L 404 478 L 399 473 L 399 471 Z M 235 445 L 237 447 L 237 449 L 234 455 L 228 462 L 226 462 L 225 461 L 225 458 L 226 455 L 228 453 L 228 451 L 233 445 Z M 234 431 L 236 433 L 235 437 L 232 441 L 230 441 L 229 440 L 229 436 Z M 359 408 L 361 406 L 365 406 L 368 407 L 371 410 L 375 410 L 376 409 L 388 410 L 394 413 L 399 418 L 399 421 L 395 424 L 393 422 L 391 422 L 388 420 L 377 420 L 373 416 L 366 416 L 363 417 L 359 412 Z M 398 397 L 400 395 L 401 396 L 407 397 L 409 399 L 409 403 L 405 405 L 402 405 L 398 401 Z M 338 392 L 342 392 L 345 395 L 345 397 L 340 403 L 341 405 L 341 413 L 340 414 L 338 414 L 335 411 L 331 401 Z M 269 390 L 270 392 L 267 395 L 265 393 Z M 293 372 L 298 368 L 301 368 L 303 370 L 299 373 L 294 373 Z M 266 372 L 269 368 L 272 368 L 273 369 L 273 371 L 271 373 L 268 374 Z M 358 353 L 360 351 L 364 352 L 374 362 L 374 363 L 382 370 L 388 370 L 389 369 L 394 370 L 396 373 L 394 381 L 390 385 L 389 384 L 385 384 L 383 386 L 380 386 L 378 384 L 377 380 L 372 373 L 370 368 L 357 356 Z M 270 347 L 271 348 L 270 351 L 265 356 L 263 356 L 262 355 L 262 351 L 265 348 Z M 386 345 L 395 351 L 401 357 L 406 364 L 407 371 L 404 374 L 398 371 L 397 367 L 395 365 L 393 360 L 386 352 L 384 348 Z M 330 344 L 333 341 L 336 341 L 352 356 L 355 357 L 356 359 L 355 360 L 347 359 L 345 357 L 333 351 L 330 348 Z M 309 336 L 309 338 L 301 345 L 296 346 L 290 349 L 286 349 L 284 347 L 284 344 L 291 335 L 294 335 L 296 340 L 298 340 L 302 336 L 306 334 Z M 405 330 L 408 332 L 410 336 L 410 341 L 411 342 L 411 351 L 406 356 L 405 356 L 395 346 L 390 339 L 392 336 L 395 336 L 400 339 L 402 339 L 405 334 L 404 331 Z M 365 309 L 371 314 L 370 317 L 368 319 L 364 319 L 359 317 Z M 396 278 L 397 279 L 397 283 L 394 286 L 393 290 L 390 292 L 388 290 L 389 284 L 394 278 Z M 381 280 L 381 284 L 368 298 L 357 306 L 351 312 L 346 313 L 344 315 L 341 316 L 334 316 L 320 309 L 308 301 L 299 292 L 299 288 L 303 285 L 315 286 L 316 287 L 323 287 L 324 288 L 339 288 L 340 287 L 351 286 L 359 283 L 363 283 L 375 278 L 379 278 Z M 367 165 L 368 163 L 375 157 L 384 156 L 385 155 L 397 156 L 398 157 L 405 158 L 411 161 L 418 170 L 418 174 L 416 179 L 410 184 L 408 184 L 405 186 L 390 186 L 389 185 L 386 185 L 380 183 L 373 179 L 367 171 Z M 290 149 L 294 145 L 296 145 L 299 143 L 302 143 L 303 142 L 314 142 L 315 143 L 318 143 L 324 148 L 324 152 L 322 154 L 316 152 L 312 152 L 311 151 L 299 151 L 295 153 L 291 153 L 290 152 Z M 270 135 L 275 135 L 280 140 L 281 143 L 281 152 L 279 155 L 280 157 L 288 157 L 289 156 L 298 156 L 299 157 L 302 157 L 308 160 L 310 160 L 313 162 L 317 167 L 317 176 L 315 179 L 315 181 L 306 189 L 302 190 L 297 194 L 293 194 L 292 196 L 294 196 L 299 199 L 308 200 L 309 201 L 324 201 L 332 198 L 335 198 L 337 196 L 339 196 L 342 194 L 349 187 L 350 184 L 352 182 L 356 182 L 362 189 L 363 199 L 364 200 L 364 213 L 363 214 L 363 223 L 362 224 L 360 237 L 358 240 L 357 245 L 352 254 L 344 262 L 333 269 L 330 269 L 329 270 L 318 270 L 309 267 L 302 263 L 292 253 L 280 237 L 276 229 L 272 215 L 262 210 L 257 205 L 253 199 L 251 187 L 250 187 L 250 188 L 243 195 L 235 198 L 232 198 L 228 194 L 226 190 L 226 183 L 225 182 L 227 176 L 238 169 L 241 168 L 250 168 L 256 173 L 263 173 L 264 172 L 264 170 L 266 167 L 266 164 L 261 158 L 261 152 L 262 151 L 262 147 L 264 141 Z M 353 131 L 359 131 L 364 136 L 367 142 L 367 152 L 365 157 L 358 163 L 352 162 L 348 158 L 346 153 L 346 142 L 347 141 L 347 138 Z M 283 97 L 287 101 L 287 105 L 283 109 L 279 110 L 271 116 L 267 117 L 264 114 L 265 106 L 272 99 L 278 97 Z M 245 96 L 254 102 L 255 107 L 248 117 L 247 121 L 244 126 L 241 129 L 236 129 L 232 127 L 228 122 L 228 119 L 227 118 L 227 108 L 233 99 L 239 96 Z M 350 94 L 354 89 L 357 88 L 365 89 L 371 92 L 374 95 L 376 99 L 376 103 L 373 106 L 368 106 L 365 104 L 355 101 L 351 97 Z M 425 72 L 432 73 L 438 76 L 443 81 L 446 89 L 446 94 L 444 99 L 439 104 L 434 106 L 430 106 L 428 105 L 420 97 L 416 95 L 411 90 L 412 83 L 418 76 Z" fill="#FBFBFB" fill-rule="evenodd"/><path d="M 252 655 L 250 653 L 239 653 L 234 655 L 229 661 L 227 661 L 225 658 L 227 652 L 233 646 L 237 644 L 233 646 L 226 653 L 223 659 L 223 666 L 227 668 L 230 665 L 230 662 L 238 654 L 249 653 L 252 657 Z M 279 643 L 282 643 L 287 645 L 292 645 L 296 647 L 300 647 L 301 646 L 301 644 L 292 637 L 291 637 L 299 643 L 298 646 L 293 646 L 292 645 Z M 409 630 L 405 631 L 393 637 L 388 642 L 381 654 L 381 663 L 380 664 L 380 671 L 379 672 L 378 678 L 373 686 L 369 690 L 364 693 L 367 692 L 376 683 L 380 674 L 380 667 L 381 666 L 381 654 L 389 641 L 395 636 L 405 631 Z M 460 574 L 459 573 L 455 574 L 423 594 L 407 611 L 407 613 L 405 616 L 413 615 L 417 613 L 421 609 L 424 609 L 429 613 L 429 617 L 430 618 L 435 619 L 436 618 L 435 616 L 436 607 L 435 606 L 441 598 L 448 599 L 450 601 L 453 600 L 457 601 L 461 597 L 461 593 L 459 590 Z M 286 562 L 279 568 L 279 570 L 282 573 L 282 576 L 279 583 L 275 588 L 274 595 L 273 596 L 273 603 L 272 604 L 272 609 L 271 610 L 269 629 L 276 632 L 278 632 L 273 631 L 270 629 L 271 610 L 273 606 L 274 592 L 283 578 L 283 572 L 281 566 Z M 243 551 L 249 555 L 255 561 L 255 588 L 256 589 L 255 617 L 253 620 L 253 622 L 250 625 L 246 626 L 244 628 L 239 628 L 223 638 L 221 638 L 210 650 L 210 652 L 207 658 L 207 668 L 209 673 L 216 680 L 210 674 L 207 666 L 207 660 L 211 649 L 213 646 L 222 638 L 229 635 L 236 630 L 242 629 L 243 628 L 249 628 L 252 627 L 254 623 L 255 607 L 256 606 L 255 561 L 248 554 L 245 553 Z M 301 545 L 295 548 L 295 550 L 298 551 L 300 553 L 300 554 L 295 558 L 300 555 L 298 548 Z M 381 505 L 377 502 L 363 502 L 362 503 L 348 505 L 347 506 L 344 506 L 341 508 L 334 509 L 322 516 L 313 519 L 306 524 L 298 532 L 296 532 L 293 535 L 289 536 L 287 538 L 284 539 L 279 544 L 276 544 L 273 547 L 271 546 L 268 548 L 265 546 L 264 540 L 262 538 L 262 535 L 260 533 L 260 530 L 258 524 L 256 522 L 256 504 L 255 503 L 253 507 L 253 520 L 257 526 L 258 532 L 260 535 L 260 538 L 259 539 L 257 539 L 254 537 L 251 533 L 246 529 L 242 529 L 236 522 L 231 521 L 224 513 L 222 507 L 222 505 L 224 513 L 227 519 L 241 536 L 244 538 L 246 538 L 249 536 L 252 537 L 256 541 L 258 546 L 260 548 L 263 549 L 268 556 L 272 556 L 274 554 L 276 549 L 286 539 L 299 532 L 305 526 L 315 519 L 329 512 L 331 512 L 339 508 L 342 508 L 345 506 L 348 506 L 353 504 L 357 504 L 358 503 L 363 503 L 364 502 L 376 502 L 379 505 L 379 507 L 377 509 L 372 509 L 371 510 L 363 511 L 353 516 L 345 518 L 339 521 L 337 523 L 332 525 L 329 528 L 321 532 L 306 543 L 303 544 L 306 543 L 317 535 L 320 534 L 323 531 L 328 529 L 331 526 L 336 524 L 338 522 L 344 519 L 352 517 L 361 512 L 365 512 L 368 510 L 372 510 L 373 509 L 379 509 L 381 507 Z M 531 495 L 530 500 L 527 506 L 521 514 L 510 524 L 495 533 L 489 544 L 483 553 L 479 557 L 474 566 L 474 569 L 477 575 L 478 582 L 479 583 L 479 608 L 475 615 L 465 625 L 460 628 L 450 630 L 442 633 L 434 632 L 437 633 L 444 633 L 448 631 L 451 631 L 454 629 L 458 629 L 467 624 L 477 613 L 478 609 L 480 606 L 480 593 L 479 592 L 479 582 L 475 571 L 475 564 L 495 535 L 500 530 L 502 530 L 505 527 L 513 522 L 522 513 L 526 508 L 530 500 Z M 241 490 L 239 491 L 239 496 L 240 497 L 241 496 Z M 514 472 L 511 473 L 511 478 L 509 482 L 509 489 L 508 490 L 508 493 L 507 494 L 507 497 L 505 503 L 503 506 L 503 510 L 504 510 L 510 504 L 513 499 L 513 497 L 515 495 L 518 480 Z M 208 468 L 208 474 L 211 473 L 213 471 L 216 474 L 214 495 L 215 496 L 218 493 L 221 497 L 221 503 L 221 495 L 220 493 L 215 489 L 216 471 L 213 470 L 211 472 L 209 472 L 208 471 Z M 397 467 L 400 471 L 400 473 L 404 477 L 411 480 L 415 480 L 416 479 L 414 475 L 405 467 L 402 466 Z M 405 473 L 407 472 L 409 475 L 407 476 Z M 235 446 L 233 446 L 229 451 L 229 453 L 227 455 L 226 458 L 226 461 L 228 461 L 233 455 L 236 449 Z M 591 441 L 589 446 L 580 455 L 568 459 L 561 465 L 555 468 L 539 472 L 535 476 L 535 485 L 533 490 L 534 486 L 536 484 L 536 476 L 539 472 L 556 468 L 563 464 L 568 459 L 580 455 L 585 451 L 589 446 Z M 234 432 L 230 436 L 230 440 L 233 439 L 235 434 Z M 360 408 L 360 412 L 363 416 L 366 415 L 373 415 L 377 419 L 388 419 L 391 421 L 393 421 L 395 423 L 398 421 L 398 418 L 394 414 L 388 411 L 381 411 L 380 410 L 371 411 L 368 408 L 365 407 L 361 407 Z M 399 397 L 399 401 L 402 404 L 408 403 L 408 399 L 407 398 L 401 397 L 400 396 Z M 342 393 L 338 393 L 332 400 L 333 405 L 338 413 L 340 413 L 340 405 L 339 403 L 344 397 L 344 395 Z M 302 370 L 301 369 L 298 369 L 294 372 L 299 372 Z M 272 369 L 269 369 L 267 372 L 268 373 L 271 372 Z M 158 367 L 170 371 L 182 379 L 186 379 L 187 380 L 190 380 L 199 383 L 203 388 L 203 404 L 203 389 L 204 388 L 203 385 L 191 380 L 183 379 L 179 377 L 171 370 L 163 369 Z M 359 353 L 358 356 L 371 368 L 380 385 L 383 385 L 385 383 L 389 383 L 390 384 L 393 381 L 394 379 L 394 375 L 395 374 L 394 371 L 392 370 L 389 370 L 388 371 L 382 371 L 380 370 L 364 353 L 361 352 Z M 270 348 L 265 349 L 263 351 L 263 355 L 265 355 L 269 351 Z M 386 346 L 385 348 L 387 352 L 394 360 L 396 365 L 398 367 L 399 371 L 404 373 L 406 371 L 405 364 L 395 352 Z M 331 344 L 331 348 L 333 350 L 338 352 L 347 358 L 355 359 L 355 358 L 352 357 L 336 342 L 333 342 Z M 235 338 L 232 344 L 231 353 L 227 361 L 226 367 L 228 369 L 228 372 L 230 368 L 236 363 L 239 362 L 241 365 L 233 374 L 224 381 L 223 384 L 215 395 L 216 397 L 218 397 L 220 399 L 220 402 L 214 408 L 209 416 L 208 420 L 209 421 L 213 420 L 215 422 L 215 424 L 204 446 L 205 449 L 209 446 L 212 448 L 212 455 L 209 463 L 209 466 L 209 463 L 212 456 L 212 446 L 209 445 L 206 447 L 205 446 L 205 443 L 212 431 L 212 429 L 215 425 L 215 421 L 214 420 L 211 420 L 209 417 L 211 415 L 211 413 L 218 405 L 221 400 L 216 394 L 239 370 L 243 362 L 240 360 L 232 364 L 228 364 L 227 363 L 230 357 L 230 354 L 232 349 L 232 345 L 235 340 Z M 308 336 L 306 335 L 302 337 L 298 341 L 296 341 L 294 339 L 294 336 L 291 336 L 285 344 L 285 347 L 286 348 L 290 348 L 296 345 L 301 344 L 308 338 Z M 405 331 L 406 334 L 402 340 L 400 340 L 395 337 L 392 337 L 391 339 L 396 346 L 405 355 L 406 355 L 410 351 L 410 342 L 409 341 L 409 336 L 407 332 Z M 399 345 L 400 344 L 404 345 L 407 348 L 407 350 L 404 351 Z M 553 325 L 543 319 L 547 321 L 550 324 L 550 333 L 553 338 L 565 347 L 565 350 L 562 357 L 574 370 L 574 371 L 568 376 L 567 380 L 569 382 L 570 386 L 573 389 L 576 395 L 577 402 L 579 404 L 579 408 L 581 413 L 581 431 L 580 434 L 577 436 L 574 433 L 574 431 L 571 427 L 569 426 L 566 427 L 564 430 L 564 444 L 559 450 L 554 451 L 550 447 L 550 444 L 546 438 L 542 439 L 538 445 L 537 455 L 536 457 L 532 460 L 527 459 L 525 457 L 519 455 L 514 449 L 513 435 L 511 433 L 510 430 L 507 430 L 503 434 L 501 439 L 497 443 L 494 442 L 488 436 L 486 432 L 486 425 L 490 417 L 490 406 L 488 404 L 488 402 L 486 399 L 486 396 L 484 391 L 484 387 L 479 376 L 477 374 L 473 374 L 470 371 L 470 366 L 467 360 L 464 360 L 463 361 L 463 369 L 461 370 L 452 360 L 449 360 L 445 358 L 441 358 L 434 354 L 432 354 L 430 352 L 426 351 L 425 352 L 425 355 L 429 361 L 428 362 L 422 362 L 420 363 L 420 368 L 421 371 L 424 375 L 426 376 L 426 384 L 428 386 L 427 388 L 427 392 L 429 398 L 433 400 L 438 405 L 442 405 L 444 407 L 444 411 L 446 414 L 446 418 L 444 420 L 444 428 L 456 444 L 456 446 L 454 448 L 451 447 L 448 444 L 441 443 L 441 447 L 445 454 L 449 458 L 451 464 L 448 468 L 445 466 L 443 466 L 440 462 L 431 455 L 430 451 L 425 446 L 424 443 L 427 440 L 427 436 L 428 434 L 433 429 L 433 426 L 428 418 L 428 410 L 422 403 L 418 403 L 416 405 L 416 409 L 417 411 L 423 416 L 423 428 L 426 434 L 426 439 L 424 441 L 418 441 L 406 435 L 401 434 L 398 431 L 394 432 L 392 434 L 392 436 L 398 441 L 410 445 L 418 452 L 423 454 L 427 454 L 429 456 L 433 468 L 439 472 L 439 474 L 436 475 L 434 479 L 434 483 L 433 485 L 438 491 L 443 491 L 444 488 L 446 486 L 450 486 L 452 488 L 451 489 L 451 497 L 449 500 L 449 505 L 444 512 L 441 511 L 440 514 L 433 520 L 431 525 L 425 530 L 423 533 L 420 546 L 418 548 L 418 550 L 414 554 L 413 557 L 410 560 L 406 567 L 391 582 L 389 586 L 378 597 L 374 600 L 372 600 L 362 609 L 359 615 L 359 618 L 357 621 L 357 625 L 352 636 L 352 638 L 348 643 L 344 652 L 344 654 L 341 657 L 341 663 L 338 665 L 338 668 L 339 669 L 339 677 L 341 681 L 340 682 L 329 682 L 328 683 L 323 683 L 322 684 L 295 684 L 294 683 L 283 683 L 282 682 L 279 682 L 275 679 L 275 675 L 278 667 L 278 662 L 276 660 L 272 660 L 265 667 L 264 670 L 258 678 L 255 678 L 252 676 L 250 676 L 247 673 L 250 664 L 247 673 L 252 677 L 260 678 L 263 674 L 263 671 L 265 667 L 269 663 L 275 660 L 278 663 L 278 665 L 277 666 L 277 670 L 274 679 L 276 681 L 279 682 L 282 682 L 283 683 L 293 683 L 294 684 L 341 684 L 342 683 L 349 683 L 353 681 L 356 681 L 361 677 L 365 669 L 365 658 L 363 654 L 363 645 L 366 642 L 368 642 L 372 645 L 374 642 L 377 623 L 379 618 L 384 611 L 384 608 L 386 605 L 386 603 L 388 601 L 392 603 L 395 598 L 401 591 L 402 588 L 404 586 L 405 581 L 408 578 L 411 578 L 413 580 L 417 580 L 445 559 L 447 559 L 449 561 L 453 560 L 474 540 L 481 529 L 486 519 L 486 516 L 489 508 L 488 483 L 493 478 L 493 468 L 490 459 L 487 456 L 486 453 L 478 445 L 473 437 L 471 431 L 471 427 L 470 426 L 472 420 L 472 416 L 473 415 L 472 407 L 468 400 L 454 388 L 449 387 L 444 383 L 442 383 L 440 381 L 427 375 L 421 369 L 420 364 L 422 362 L 432 363 L 442 368 L 447 369 L 447 366 L 445 364 L 445 362 L 446 361 L 450 361 L 462 371 L 463 370 L 463 364 L 466 361 L 469 365 L 470 375 L 471 376 L 476 376 L 481 382 L 484 389 L 484 394 L 486 400 L 490 407 L 490 417 L 485 427 L 485 430 L 488 437 L 493 442 L 498 444 L 500 442 L 503 435 L 509 430 L 512 434 L 514 450 L 515 453 L 517 455 L 524 457 L 529 460 L 534 460 L 537 457 L 538 446 L 543 440 L 546 440 L 549 444 L 549 451 L 551 454 L 553 454 L 559 451 L 564 445 L 565 442 L 564 439 L 564 433 L 565 430 L 568 427 L 570 427 L 573 430 L 573 432 L 576 437 L 579 436 L 581 432 L 581 410 L 580 409 L 580 406 L 576 394 L 573 390 L 573 388 L 569 381 L 569 378 L 572 375 L 575 375 L 575 371 L 573 367 L 571 366 L 563 357 L 566 353 L 569 353 L 570 352 L 569 349 L 564 344 L 558 341 L 553 336 L 551 332 L 551 330 L 555 327 Z M 370 314 L 365 310 L 363 314 L 360 316 L 360 317 L 368 318 Z M 528 303 L 530 305 L 530 311 L 534 315 L 541 318 L 536 316 L 531 311 L 534 307 L 531 304 Z M 492 287 L 503 288 L 506 291 L 505 296 L 507 298 L 511 298 L 508 298 L 506 296 L 509 292 L 507 289 L 500 288 L 499 287 Z M 396 279 L 394 279 L 390 284 L 389 287 L 389 290 L 390 291 L 392 290 L 393 286 L 396 283 Z M 380 280 L 379 279 L 375 279 L 363 284 L 359 284 L 351 287 L 340 288 L 339 289 L 324 289 L 323 288 L 316 288 L 315 287 L 303 286 L 300 288 L 300 292 L 308 300 L 320 308 L 329 312 L 331 314 L 334 315 L 341 315 L 344 314 L 346 312 L 351 311 L 357 305 L 368 297 L 380 284 Z M 301 289 L 303 287 L 307 287 L 308 288 L 318 289 L 319 290 L 339 290 L 340 289 L 346 289 L 347 288 L 358 287 L 361 293 L 363 294 L 364 296 L 349 309 L 345 310 L 341 313 L 336 314 L 323 308 L 315 302 L 309 299 L 301 292 Z M 376 281 L 378 283 L 372 288 L 370 286 L 371 284 Z M 471 265 L 484 267 L 491 270 L 496 274 L 509 277 L 515 280 L 525 289 L 538 294 L 546 301 L 548 305 L 552 309 L 562 314 L 569 320 L 570 322 L 570 327 L 569 328 L 570 333 L 575 336 L 582 343 L 582 344 L 581 341 L 569 331 L 571 326 L 571 322 L 569 319 L 564 315 L 552 309 L 541 296 L 534 292 L 527 290 L 516 280 L 512 278 L 510 278 L 507 276 L 496 274 L 488 268 L 485 268 L 476 265 Z M 159 198 L 157 209 L 173 226 L 175 227 L 179 226 L 184 228 L 195 241 L 203 240 L 212 246 L 215 247 L 216 246 L 215 241 L 210 233 L 209 225 L 210 234 L 215 241 L 215 244 L 214 245 L 212 245 L 202 239 L 195 240 L 185 228 L 179 226 L 174 226 L 169 220 L 158 210 L 157 206 L 158 205 Z M 247 176 L 244 176 L 244 180 L 245 181 L 248 177 Z M 368 165 L 368 171 L 373 178 L 380 182 L 386 184 L 389 184 L 390 185 L 405 185 L 408 183 L 410 183 L 415 179 L 417 174 L 417 170 L 411 162 L 405 159 L 402 159 L 397 157 L 385 156 L 384 157 L 375 158 L 373 159 Z M 368 167 L 370 163 L 375 159 L 382 158 L 383 157 L 393 157 L 394 158 L 403 159 L 406 161 L 410 162 L 415 167 L 417 173 L 416 176 L 408 183 L 405 183 L 404 184 L 389 184 L 388 183 L 385 183 L 379 181 L 376 179 L 369 172 Z M 291 149 L 291 152 L 295 152 L 299 150 L 311 150 L 312 151 L 316 151 L 321 153 L 323 152 L 323 148 L 318 144 L 315 144 L 314 143 L 303 143 L 302 144 L 299 144 L 296 146 L 294 146 Z M 307 146 L 308 145 L 314 145 L 317 147 L 318 149 L 316 150 L 312 148 L 308 148 Z M 270 136 L 265 141 L 263 147 L 263 150 L 263 147 L 266 140 L 271 136 L 275 136 L 279 140 L 280 143 L 280 151 L 277 158 L 280 159 L 281 158 L 291 158 L 294 157 L 295 158 L 301 158 L 309 161 L 312 163 L 316 168 L 316 175 L 313 181 L 306 187 L 292 193 L 284 193 L 276 190 L 266 180 L 264 176 L 264 173 L 267 167 L 267 164 L 262 158 L 262 152 L 262 158 L 267 164 L 267 167 L 265 170 L 265 172 L 263 174 L 256 174 L 250 169 L 241 169 L 238 170 L 228 176 L 226 182 L 227 183 L 227 190 L 229 194 L 232 197 L 235 197 L 243 194 L 249 188 L 249 187 L 251 186 L 253 191 L 254 199 L 258 205 L 262 209 L 271 213 L 273 216 L 271 213 L 264 210 L 257 203 L 253 196 L 253 177 L 257 174 L 261 174 L 263 176 L 262 193 L 264 198 L 268 202 L 272 204 L 279 204 L 282 203 L 289 198 L 294 198 L 302 201 L 314 202 L 315 203 L 320 203 L 321 202 L 329 201 L 335 199 L 344 194 L 353 183 L 355 183 L 361 190 L 362 193 L 362 201 L 363 202 L 362 223 L 361 224 L 361 228 L 360 229 L 359 236 L 353 251 L 345 259 L 333 267 L 327 269 L 321 269 L 313 266 L 310 266 L 304 263 L 286 244 L 278 231 L 275 221 L 277 229 L 281 237 L 293 253 L 302 262 L 309 266 L 318 269 L 329 269 L 330 268 L 333 268 L 344 261 L 351 254 L 356 245 L 357 240 L 359 237 L 361 224 L 362 223 L 362 214 L 363 213 L 363 200 L 362 199 L 361 189 L 356 183 L 352 183 L 350 187 L 342 195 L 339 197 L 337 197 L 335 199 L 332 199 L 324 202 L 309 202 L 308 201 L 299 200 L 294 197 L 292 197 L 291 195 L 293 193 L 297 193 L 302 189 L 306 188 L 314 181 L 314 179 L 316 176 L 316 167 L 314 164 L 310 161 L 308 161 L 302 158 L 299 158 L 298 157 L 280 158 L 278 156 L 280 152 L 280 143 L 279 140 L 275 136 Z M 263 181 L 266 180 L 268 183 L 277 191 L 281 192 L 284 194 L 289 194 L 290 196 L 279 204 L 272 204 L 265 199 L 262 193 L 262 185 L 263 184 Z M 251 171 L 254 174 L 254 176 L 248 181 L 248 184 L 244 190 L 239 194 L 232 195 L 229 192 L 227 186 L 227 182 L 229 178 L 235 173 L 239 171 L 242 171 L 243 170 L 249 170 Z M 353 132 L 348 138 L 348 141 L 347 142 L 347 153 L 349 158 L 352 161 L 358 162 L 360 161 L 365 155 L 366 152 L 366 142 L 365 140 L 366 142 L 366 152 L 365 155 L 359 161 L 353 161 L 348 156 L 347 153 L 347 142 L 348 141 L 348 138 L 349 136 L 354 132 L 359 132 L 364 138 L 359 132 Z M 207 132 L 211 139 L 218 147 L 218 150 L 213 160 L 212 170 L 205 178 L 204 181 L 205 178 L 213 170 L 213 160 L 219 148 L 219 146 L 212 140 Z M 73 159 L 69 164 L 69 171 L 70 172 L 71 179 L 75 185 L 76 183 L 74 180 L 73 176 L 71 174 L 71 170 L 75 166 L 81 166 L 89 175 L 89 177 L 92 183 L 92 187 L 86 192 L 83 193 L 80 192 L 77 194 L 75 194 L 68 188 L 59 183 L 53 185 L 50 188 L 50 193 L 52 197 L 52 192 L 55 189 L 60 189 L 75 203 L 75 209 L 70 215 L 66 215 L 62 213 L 59 210 L 58 210 L 58 213 L 56 215 L 56 216 L 62 219 L 68 225 L 68 234 L 65 237 L 62 237 L 59 235 L 52 228 L 51 226 L 51 219 L 53 216 L 52 215 L 48 215 L 46 216 L 44 219 L 44 225 L 46 229 L 57 243 L 79 259 L 84 264 L 88 272 L 88 274 L 94 285 L 107 302 L 117 312 L 121 314 L 124 317 L 134 322 L 143 330 L 140 334 L 135 334 L 135 336 L 137 338 L 143 340 L 148 343 L 151 343 L 156 345 L 160 345 L 165 347 L 167 349 L 167 351 L 165 353 L 160 354 L 159 355 L 161 357 L 174 359 L 175 360 L 188 360 L 191 361 L 194 364 L 191 368 L 192 369 L 198 369 L 199 370 L 206 370 L 209 369 L 212 366 L 213 361 L 220 351 L 220 349 L 225 343 L 225 341 L 227 339 L 228 336 L 233 331 L 236 332 L 236 336 L 237 328 L 240 324 L 240 314 L 248 307 L 248 299 L 260 290 L 266 283 L 270 283 L 273 286 L 280 290 L 283 289 L 283 286 L 280 281 L 273 275 L 259 268 L 256 269 L 252 265 L 250 261 L 242 254 L 239 246 L 236 246 L 232 249 L 229 246 L 229 243 L 228 242 L 228 238 L 229 237 L 229 227 L 226 226 L 222 228 L 220 226 L 224 206 L 223 205 L 218 205 L 217 204 L 217 200 L 222 190 L 222 187 L 223 186 L 222 185 L 218 185 L 217 184 L 217 181 L 225 171 L 225 161 L 230 152 L 231 147 L 233 144 L 234 138 L 232 136 L 228 136 L 222 132 L 218 127 L 225 135 L 232 137 L 234 139 L 229 154 L 225 161 L 225 170 L 222 175 L 215 183 L 216 186 L 221 186 L 222 187 L 222 189 L 217 200 L 217 205 L 218 206 L 221 205 L 223 207 L 223 212 L 222 213 L 222 217 L 220 223 L 220 228 L 223 229 L 225 227 L 227 227 L 229 229 L 228 243 L 231 250 L 233 251 L 237 247 L 239 247 L 241 251 L 241 255 L 245 260 L 247 260 L 260 274 L 261 277 L 263 279 L 263 286 L 259 290 L 256 290 L 254 288 L 251 281 L 244 274 L 241 273 L 240 275 L 237 277 L 224 264 L 222 264 L 217 270 L 213 269 L 211 267 L 207 258 L 203 253 L 201 253 L 201 259 L 198 263 L 196 263 L 188 253 L 183 244 L 179 240 L 173 245 L 170 243 L 164 234 L 144 213 L 144 209 L 147 203 L 147 198 L 148 197 L 148 180 L 144 173 L 142 172 L 146 176 L 146 178 L 148 180 L 148 184 L 147 185 L 145 184 L 143 179 L 135 173 L 137 171 L 140 171 L 136 171 L 127 181 L 124 181 L 121 177 L 120 171 L 116 161 L 111 156 L 109 155 L 105 155 L 102 159 L 105 159 L 108 161 L 110 161 L 115 166 L 119 174 L 119 181 L 118 183 L 114 187 L 109 187 L 104 183 L 98 184 L 95 181 L 93 174 L 89 166 L 85 161 L 80 159 Z M 203 344 L 206 343 L 207 345 L 204 346 Z M 169 330 L 170 329 L 175 329 L 177 331 L 175 333 L 171 333 Z M 238 319 L 240 322 L 237 327 L 234 329 L 233 328 L 235 321 Z M 267 277 L 268 276 L 273 277 L 280 283 L 281 286 L 280 287 L 276 286 L 271 282 Z M 118 198 L 125 205 L 130 215 L 130 221 L 128 226 L 120 234 L 100 247 L 91 250 L 86 250 L 81 248 L 76 243 L 72 236 L 72 228 L 74 225 L 76 219 L 76 216 L 81 209 L 83 204 L 89 198 L 95 195 L 99 195 L 100 194 L 112 195 Z M 58 184 L 61 184 L 65 186 L 74 194 L 76 195 L 80 195 L 81 194 L 85 194 L 90 191 L 92 189 L 94 184 L 96 185 L 101 185 L 102 184 L 109 188 L 115 188 L 121 180 L 127 184 L 126 196 L 130 201 L 132 202 L 137 202 L 139 201 L 145 194 L 147 195 L 147 202 L 144 208 L 144 213 L 145 215 L 159 229 L 173 246 L 174 246 L 178 241 L 180 241 L 191 258 L 196 263 L 199 264 L 200 263 L 201 256 L 204 255 L 207 259 L 211 268 L 214 271 L 218 271 L 221 268 L 225 267 L 236 277 L 239 278 L 241 276 L 244 276 L 249 280 L 251 284 L 251 289 L 241 301 L 239 305 L 239 308 L 237 310 L 235 315 L 235 320 L 232 325 L 232 329 L 230 333 L 227 336 L 227 338 L 222 345 L 221 348 L 218 351 L 216 351 L 213 349 L 213 345 L 215 343 L 214 340 L 210 340 L 209 341 L 197 341 L 194 338 L 191 337 L 178 337 L 177 335 L 180 332 L 180 329 L 175 327 L 164 326 L 159 323 L 156 323 L 154 321 L 142 316 L 136 311 L 127 306 L 123 302 L 120 301 L 103 283 L 95 279 L 88 272 L 85 264 L 80 259 L 72 254 L 67 249 L 61 246 L 51 236 L 48 230 L 44 225 L 44 219 L 48 215 L 51 217 L 51 228 L 59 236 L 63 238 L 66 238 L 68 235 L 70 234 L 74 241 L 80 248 L 86 251 L 91 251 L 92 250 L 95 250 L 100 247 L 102 247 L 117 236 L 119 236 L 128 227 L 129 223 L 131 220 L 129 210 L 125 204 L 119 198 L 112 194 L 97 194 L 87 199 L 83 203 L 80 210 L 77 213 L 74 225 L 72 228 L 70 229 L 68 227 L 67 223 L 61 218 L 61 216 L 62 215 L 70 216 L 75 210 L 75 202 L 65 191 L 57 186 Z M 137 175 L 144 182 L 145 189 L 141 197 L 137 201 L 133 202 L 127 197 L 126 195 L 126 191 L 130 181 L 136 175 Z M 70 163 L 74 159 L 79 159 L 82 160 L 86 165 L 84 166 L 81 164 L 75 164 L 73 166 L 71 166 Z M 106 157 L 108 155 L 110 156 L 112 159 L 109 160 Z M 468 103 L 464 112 L 459 118 L 459 120 L 468 137 L 471 140 L 475 151 L 484 159 L 486 165 L 484 159 L 474 149 L 472 141 L 467 135 L 460 122 L 460 118 L 462 116 L 462 114 L 465 111 Z M 286 101 L 283 98 L 278 98 L 283 98 L 286 101 L 286 104 L 281 109 L 275 111 L 269 116 L 267 116 L 265 114 L 265 109 L 266 107 L 272 101 L 276 99 L 272 100 L 266 106 L 265 109 L 265 114 L 267 116 L 269 116 L 277 110 L 283 108 L 286 105 Z M 245 97 L 239 97 L 233 100 L 228 108 L 228 118 L 229 119 L 229 122 L 232 126 L 236 128 L 241 128 L 243 126 L 246 121 L 247 117 L 254 107 L 253 102 Z M 250 101 L 253 104 L 253 107 L 238 125 L 234 125 L 230 121 L 229 118 L 229 112 L 230 111 L 230 107 L 231 105 L 238 99 L 246 99 L 248 101 Z M 351 94 L 352 97 L 357 101 L 365 103 L 368 105 L 373 105 L 375 103 L 375 99 L 373 95 L 365 90 L 357 89 L 354 90 Z M 352 93 L 357 89 L 365 90 L 369 92 L 374 97 L 375 99 L 375 103 L 373 105 L 368 105 L 363 102 L 355 100 L 352 97 Z M 457 80 L 458 87 L 459 88 L 458 97 L 453 105 L 449 109 L 444 112 L 441 116 L 443 118 L 444 121 L 449 126 L 450 129 L 452 131 L 452 133 L 459 144 L 459 147 L 457 149 L 457 152 L 460 155 L 468 159 L 473 164 L 471 166 L 464 166 L 462 168 L 463 172 L 469 178 L 472 183 L 471 186 L 468 186 L 467 187 L 467 192 L 471 201 L 471 204 L 473 207 L 473 210 L 470 211 L 466 209 L 462 205 L 462 202 L 460 200 L 455 200 L 447 196 L 445 197 L 445 198 L 452 205 L 452 207 L 450 209 L 448 207 L 447 208 L 447 211 L 450 214 L 450 217 L 452 220 L 452 222 L 449 224 L 446 221 L 442 220 L 441 222 L 442 223 L 443 230 L 442 231 L 433 230 L 433 231 L 434 231 L 440 237 L 440 240 L 438 242 L 434 241 L 431 244 L 431 248 L 430 249 L 431 254 L 429 255 L 426 252 L 425 253 L 425 262 L 422 265 L 419 263 L 417 264 L 420 266 L 418 271 L 416 270 L 416 267 L 414 266 L 412 269 L 412 271 L 408 276 L 406 274 L 405 271 L 403 273 L 400 279 L 400 288 L 402 291 L 407 288 L 411 283 L 418 284 L 422 281 L 435 275 L 456 275 L 457 276 L 475 277 L 479 280 L 479 284 L 483 286 L 489 286 L 483 286 L 481 284 L 481 280 L 479 278 L 469 277 L 468 276 L 458 276 L 457 275 L 434 275 L 425 278 L 418 283 L 415 282 L 415 280 L 424 270 L 427 272 L 429 272 L 444 259 L 446 259 L 452 253 L 452 251 L 457 241 L 458 233 L 460 231 L 464 233 L 466 230 L 466 217 L 464 212 L 466 210 L 468 210 L 471 212 L 474 212 L 474 209 L 469 197 L 468 189 L 470 187 L 475 190 L 476 187 L 470 178 L 462 170 L 462 168 L 464 166 L 470 166 L 472 167 L 474 164 L 469 159 L 464 156 L 460 155 L 458 153 L 458 150 L 461 147 L 461 145 L 454 136 L 451 129 L 445 120 L 442 117 L 442 115 L 450 109 L 458 97 L 459 88 L 458 87 Z M 444 253 L 446 255 L 444 258 L 442 259 L 441 256 Z M 314 78 L 308 77 L 307 76 L 301 76 L 299 77 L 294 83 L 278 89 L 269 96 L 268 96 L 263 90 L 257 85 L 253 84 L 250 82 L 239 82 L 230 85 L 225 88 L 219 94 L 215 102 L 215 105 L 214 106 L 214 119 L 217 125 L 215 122 L 215 119 L 214 118 L 214 106 L 216 100 L 220 93 L 225 88 L 228 87 L 230 85 L 236 83 L 239 83 L 240 82 L 249 82 L 259 87 L 268 97 L 270 97 L 277 90 L 285 86 L 288 86 L 296 82 L 300 77 L 306 76 L 307 77 Z M 425 73 L 418 77 L 413 83 L 412 90 L 416 94 L 420 96 L 428 104 L 430 105 L 434 105 L 439 103 L 443 99 L 445 94 L 445 89 L 442 81 L 438 77 L 432 74 Z M 424 75 L 430 75 L 437 78 L 443 85 L 444 88 L 444 95 L 438 102 L 434 104 L 429 103 L 421 95 L 413 90 L 413 86 L 416 81 L 420 77 Z M 306 62 L 303 66 L 295 68 L 285 73 L 283 75 L 279 76 L 272 80 L 268 79 L 265 76 L 255 72 L 252 72 L 251 71 L 237 71 L 236 72 L 233 72 L 227 75 L 225 75 L 217 80 L 211 86 L 207 92 L 211 86 L 220 78 L 233 72 L 236 72 L 237 71 L 251 71 L 252 72 L 255 72 L 261 74 L 269 80 L 272 80 L 289 72 L 295 68 L 304 67 L 306 64 Z M 454 74 L 453 72 L 443 63 L 432 59 L 419 59 L 410 63 L 405 67 L 401 72 L 399 79 L 397 81 L 394 81 L 386 77 L 382 77 L 381 76 L 372 75 L 371 74 L 365 74 L 364 73 L 350 74 L 348 72 L 348 69 L 350 65 L 349 63 L 343 65 L 335 73 L 331 73 L 328 70 L 321 66 L 317 66 L 316 67 L 316 70 L 317 71 L 317 76 L 316 77 L 317 76 L 317 70 L 316 68 L 318 66 L 321 66 L 326 69 L 330 73 L 334 74 L 344 65 L 347 64 L 349 66 L 348 69 L 348 74 L 349 75 L 354 75 L 355 74 L 370 74 L 371 75 L 375 75 L 380 77 L 385 77 L 394 81 L 397 81 L 399 79 L 402 71 L 411 63 L 420 59 L 431 59 L 432 60 L 438 61 L 445 65 Z M 359 59 L 359 61 L 363 63 L 375 63 L 362 62 Z M 377 64 L 382 64 L 383 65 L 391 66 L 401 55 L 412 49 L 419 48 L 420 47 L 432 47 L 433 48 L 436 48 L 442 50 L 453 56 L 464 67 L 468 76 L 464 67 L 456 58 L 452 55 L 445 52 L 443 50 L 434 47 L 420 47 L 419 48 L 411 49 L 398 57 L 396 60 L 390 65 Z" fill="#D8D8D8" fill-rule="evenodd"/><path d="M 450 621 L 453 621 L 455 620 L 456 618 L 451 618 Z M 464 573 L 462 571 L 458 571 L 452 575 L 443 579 L 436 584 L 431 586 L 428 589 L 420 594 L 409 605 L 406 610 L 394 622 L 395 624 L 401 624 L 408 621 L 411 618 L 417 616 L 422 616 L 432 621 L 438 621 L 439 620 L 438 612 L 441 609 L 445 609 L 448 611 L 452 609 L 464 609 L 466 606 L 464 601 Z M 461 574 L 460 590 L 462 593 L 462 597 L 457 602 L 454 601 L 450 602 L 448 600 L 441 599 L 439 603 L 437 604 L 436 606 L 437 607 L 437 610 L 436 611 L 436 616 L 437 618 L 435 620 L 430 619 L 428 617 L 428 613 L 424 610 L 421 610 L 417 614 L 413 616 L 408 616 L 407 617 L 404 616 L 406 613 L 406 611 L 423 593 L 455 573 L 459 572 Z M 509 464 L 508 465 L 509 475 L 508 476 L 508 481 L 507 482 L 507 489 L 506 490 L 506 494 L 504 498 L 504 501 L 502 504 L 502 507 L 500 511 L 501 513 L 505 512 L 513 503 L 518 494 L 518 492 L 520 489 L 520 485 L 521 484 L 521 479 L 516 469 Z M 514 471 L 516 473 L 517 477 L 519 480 L 516 495 L 514 497 L 514 499 L 511 504 L 504 511 L 502 510 L 502 506 L 504 503 L 506 497 L 506 494 L 507 493 L 507 490 L 508 489 L 508 482 L 510 478 L 510 473 L 512 471 Z M 400 345 L 404 350 L 406 350 L 406 348 L 404 346 Z M 170 330 L 171 332 L 175 332 L 176 331 L 175 330 Z M 238 320 L 236 321 L 234 328 L 235 328 L 239 322 Z M 302 289 L 302 292 L 309 298 L 315 301 L 323 307 L 336 313 L 341 312 L 345 309 L 349 308 L 363 296 L 363 295 L 360 293 L 358 288 L 353 288 L 352 289 L 347 289 L 346 290 L 340 290 L 339 291 L 319 291 L 318 290 L 313 290 L 307 288 L 303 288 Z M 377 283 L 376 282 L 372 284 L 371 286 L 372 287 Z M 268 277 L 268 278 L 276 285 L 280 286 L 279 283 L 276 280 L 271 277 Z M 118 199 L 112 196 L 100 195 L 99 196 L 95 196 L 89 199 L 84 204 L 82 209 L 77 216 L 77 219 L 73 228 L 73 236 L 77 243 L 81 247 L 86 249 L 91 249 L 100 246 L 116 236 L 127 226 L 129 221 L 129 215 L 124 205 Z M 137 176 L 131 181 L 127 191 L 127 195 L 128 197 L 133 201 L 137 200 L 140 197 L 144 189 L 143 182 Z M 230 178 L 228 182 L 229 190 L 232 194 L 236 194 L 243 190 L 247 184 L 247 181 L 253 176 L 254 177 L 254 196 L 256 200 L 264 209 L 271 212 L 274 215 L 277 226 L 281 235 L 292 250 L 304 262 L 317 267 L 327 268 L 333 266 L 341 261 L 352 251 L 358 236 L 358 233 L 359 232 L 359 229 L 360 228 L 360 224 L 361 223 L 361 211 L 362 210 L 361 193 L 359 188 L 355 184 L 353 184 L 344 195 L 335 200 L 329 202 L 321 203 L 320 204 L 315 204 L 314 203 L 302 202 L 294 199 L 289 199 L 282 204 L 279 205 L 272 205 L 268 203 L 262 196 L 261 193 L 262 176 L 261 175 L 257 175 L 254 177 L 253 174 L 249 171 L 243 171 L 235 174 Z M 255 179 L 259 175 L 262 177 L 261 184 L 260 185 L 261 195 L 263 199 L 268 204 L 274 206 L 281 205 L 289 200 L 295 200 L 296 201 L 299 201 L 304 203 L 309 203 L 310 204 L 326 204 L 341 198 L 349 191 L 353 185 L 355 185 L 358 188 L 361 197 L 361 219 L 360 220 L 360 226 L 359 227 L 358 234 L 355 243 L 351 251 L 347 255 L 345 253 L 352 239 L 352 235 L 353 233 L 351 228 L 342 220 L 339 220 L 338 219 L 330 219 L 324 221 L 315 226 L 310 230 L 306 235 L 303 241 L 303 250 L 312 262 L 310 264 L 304 261 L 292 249 L 283 237 L 278 228 L 274 214 L 272 212 L 265 209 L 256 199 L 254 194 L 254 183 L 255 182 Z M 247 175 L 249 177 L 245 182 L 243 180 L 243 176 L 244 175 Z M 369 167 L 370 172 L 376 178 L 379 180 L 385 182 L 388 182 L 389 183 L 404 183 L 405 182 L 408 182 L 415 176 L 416 173 L 414 167 L 410 163 L 406 162 L 403 160 L 394 159 L 393 158 L 383 158 L 382 159 L 375 160 L 371 163 Z M 308 146 L 308 147 L 312 147 L 317 149 L 317 148 L 314 146 Z M 269 138 L 265 144 L 264 150 L 263 151 L 263 158 L 268 164 L 268 167 L 265 173 L 265 176 L 267 180 L 276 189 L 284 192 L 292 192 L 298 190 L 309 184 L 312 181 L 315 175 L 315 168 L 314 166 L 309 162 L 301 159 L 295 159 L 292 158 L 291 159 L 281 159 L 278 160 L 276 158 L 279 151 L 279 143 L 278 140 L 275 137 L 271 137 Z M 266 170 L 268 167 L 274 162 L 280 161 L 281 160 L 287 160 L 288 159 L 298 159 L 309 163 L 315 169 L 315 173 L 313 178 L 307 184 L 302 186 L 300 188 L 298 188 L 292 191 L 283 191 L 276 188 L 268 180 L 266 176 Z M 275 138 L 279 144 L 278 153 L 276 157 L 272 161 L 266 161 L 263 157 L 263 152 L 264 151 L 265 145 L 270 138 Z M 354 133 L 352 134 L 349 138 L 349 141 L 348 142 L 348 153 L 349 156 L 353 160 L 359 160 L 364 155 L 365 152 L 365 142 L 364 139 L 359 133 Z M 355 133 L 359 134 L 362 137 L 365 143 L 365 152 L 359 159 L 353 159 L 350 156 L 348 150 L 349 140 L 351 136 Z M 250 102 L 248 102 L 246 100 L 238 100 L 232 105 L 231 107 L 231 111 L 230 112 L 230 118 L 231 121 L 234 124 L 238 124 L 242 120 L 244 116 L 250 110 L 252 107 L 252 104 Z M 285 101 L 283 99 L 277 99 L 272 102 L 267 107 L 266 109 L 266 114 L 269 115 L 275 110 L 281 108 L 285 104 Z M 284 101 L 284 104 L 281 107 L 274 110 L 269 114 L 266 112 L 267 108 L 273 102 L 279 99 L 282 99 Z M 353 93 L 353 97 L 355 99 L 363 101 L 368 104 L 373 104 L 374 103 L 374 99 L 373 97 L 369 93 L 365 91 L 357 90 Z M 354 94 L 357 91 L 363 91 L 366 92 L 373 98 L 373 102 L 371 104 L 369 104 L 362 100 L 357 99 L 354 96 Z M 424 76 L 420 78 L 417 81 L 414 86 L 414 90 L 421 94 L 429 102 L 434 103 L 438 101 L 443 95 L 443 88 L 442 85 L 437 79 L 430 76 Z M 435 58 L 432 58 L 431 57 L 421 57 L 409 62 L 401 69 L 399 72 L 398 77 L 396 79 L 391 78 L 385 75 L 381 75 L 376 73 L 361 72 L 360 71 L 358 72 L 352 72 L 350 70 L 351 68 L 351 63 L 350 62 L 346 62 L 342 64 L 335 71 L 331 71 L 324 65 L 316 64 L 314 66 L 316 72 L 316 74 L 314 76 L 306 75 L 305 74 L 298 75 L 295 78 L 295 80 L 293 82 L 281 86 L 275 89 L 269 94 L 268 94 L 261 86 L 254 82 L 248 80 L 240 80 L 231 83 L 224 87 L 219 92 L 214 101 L 214 104 L 213 105 L 213 109 L 212 110 L 213 120 L 219 131 L 224 136 L 227 138 L 229 138 L 232 141 L 228 153 L 224 160 L 224 169 L 222 173 L 213 183 L 213 187 L 214 188 L 218 188 L 220 190 L 216 199 L 216 207 L 219 208 L 221 210 L 221 214 L 219 220 L 219 230 L 220 231 L 224 231 L 225 230 L 227 232 L 227 245 L 230 251 L 233 254 L 235 254 L 235 253 L 238 251 L 243 261 L 247 263 L 260 277 L 262 281 L 262 285 L 259 288 L 257 288 L 255 286 L 253 281 L 244 271 L 239 270 L 236 274 L 224 261 L 221 261 L 218 266 L 215 268 L 212 265 L 209 259 L 202 250 L 200 251 L 199 259 L 196 261 L 191 255 L 185 244 L 179 238 L 177 238 L 173 243 L 145 211 L 148 205 L 149 193 L 150 192 L 150 183 L 147 174 L 142 170 L 135 170 L 127 179 L 124 179 L 122 176 L 122 173 L 117 160 L 110 154 L 104 154 L 100 159 L 100 164 L 99 165 L 100 179 L 99 180 L 96 179 L 92 170 L 92 168 L 86 160 L 81 158 L 72 158 L 69 161 L 67 165 L 67 171 L 70 180 L 75 189 L 72 190 L 60 182 L 53 183 L 48 188 L 48 196 L 52 202 L 56 211 L 54 213 L 49 213 L 45 215 L 43 218 L 43 226 L 46 232 L 60 247 L 74 258 L 78 260 L 83 265 L 87 273 L 87 275 L 94 288 L 104 301 L 118 315 L 136 326 L 140 330 L 138 333 L 133 333 L 133 336 L 136 339 L 146 344 L 153 345 L 154 346 L 158 346 L 164 349 L 163 352 L 161 352 L 157 355 L 158 357 L 163 359 L 172 360 L 173 361 L 183 361 L 184 362 L 187 362 L 189 364 L 188 367 L 189 370 L 191 371 L 204 372 L 208 375 L 210 375 L 214 371 L 216 360 L 218 358 L 221 351 L 226 345 L 230 337 L 232 335 L 234 337 L 230 345 L 230 351 L 224 365 L 224 369 L 225 370 L 224 377 L 220 386 L 215 392 L 213 396 L 213 398 L 216 399 L 218 402 L 211 410 L 206 419 L 206 422 L 207 423 L 211 423 L 213 425 L 203 445 L 203 450 L 204 451 L 206 451 L 208 449 L 211 451 L 208 465 L 207 466 L 206 476 L 208 478 L 212 475 L 214 477 L 213 497 L 215 500 L 217 498 L 219 499 L 223 514 L 228 523 L 240 538 L 245 542 L 253 546 L 263 556 L 263 561 L 261 565 L 262 572 L 264 572 L 267 562 L 276 554 L 278 550 L 287 541 L 299 534 L 309 525 L 315 521 L 333 512 L 351 506 L 355 506 L 360 504 L 373 504 L 374 505 L 373 507 L 367 508 L 358 511 L 353 514 L 343 517 L 341 519 L 336 521 L 326 528 L 323 529 L 308 540 L 301 544 L 299 544 L 293 547 L 291 549 L 297 554 L 293 558 L 285 562 L 283 562 L 279 565 L 277 568 L 277 572 L 279 576 L 278 577 L 278 580 L 274 584 L 273 587 L 272 597 L 271 598 L 270 613 L 269 614 L 269 621 L 268 622 L 268 628 L 267 630 L 268 631 L 279 633 L 282 635 L 287 636 L 295 642 L 293 644 L 291 643 L 279 642 L 278 641 L 269 641 L 268 640 L 245 640 L 244 641 L 238 642 L 231 646 L 225 652 L 222 658 L 221 665 L 222 667 L 227 671 L 232 671 L 232 664 L 239 657 L 242 658 L 248 655 L 250 657 L 249 665 L 246 668 L 243 666 L 242 668 L 244 670 L 245 673 L 249 677 L 258 680 L 262 680 L 263 679 L 263 677 L 266 671 L 266 668 L 270 664 L 274 663 L 276 665 L 276 669 L 272 680 L 274 682 L 280 684 L 296 685 L 297 686 L 337 686 L 338 685 L 352 684 L 360 681 L 366 673 L 367 665 L 368 664 L 368 655 L 376 641 L 376 638 L 378 633 L 378 628 L 379 626 L 383 623 L 386 614 L 395 605 L 396 602 L 400 597 L 409 588 L 413 586 L 431 572 L 445 564 L 450 564 L 455 561 L 475 542 L 481 533 L 487 521 L 489 515 L 489 512 L 490 511 L 490 508 L 491 507 L 492 489 L 494 487 L 494 482 L 495 481 L 495 466 L 489 454 L 477 441 L 474 435 L 472 424 L 475 415 L 475 410 L 470 397 L 455 385 L 446 381 L 441 380 L 427 373 L 422 368 L 422 365 L 423 364 L 428 364 L 447 372 L 452 372 L 453 369 L 455 368 L 461 372 L 465 377 L 470 381 L 472 381 L 475 379 L 480 384 L 482 388 L 484 399 L 489 408 L 489 415 L 484 425 L 484 433 L 486 435 L 487 438 L 493 444 L 497 446 L 499 446 L 501 444 L 503 438 L 508 433 L 510 435 L 513 453 L 517 457 L 525 459 L 531 462 L 535 461 L 538 457 L 540 446 L 543 443 L 545 443 L 547 445 L 548 455 L 549 456 L 553 456 L 559 453 L 564 448 L 566 444 L 566 432 L 568 430 L 570 430 L 572 432 L 574 438 L 576 440 L 581 436 L 582 433 L 582 426 L 583 425 L 583 414 L 582 413 L 582 408 L 581 407 L 581 404 L 577 392 L 572 382 L 572 380 L 575 377 L 577 377 L 578 375 L 575 367 L 566 358 L 568 355 L 570 355 L 572 353 L 572 350 L 569 346 L 558 339 L 553 333 L 556 329 L 559 328 L 552 322 L 537 315 L 535 313 L 536 306 L 534 304 L 525 300 L 521 300 L 520 299 L 517 299 L 511 297 L 509 295 L 511 292 L 511 290 L 507 287 L 495 286 L 494 285 L 487 285 L 484 282 L 484 279 L 478 276 L 463 275 L 462 274 L 459 274 L 456 272 L 453 272 L 452 273 L 436 273 L 435 272 L 435 270 L 438 267 L 446 262 L 454 254 L 458 244 L 459 236 L 460 235 L 463 236 L 466 235 L 467 233 L 467 227 L 468 226 L 467 215 L 469 213 L 473 216 L 475 215 L 475 207 L 472 201 L 470 195 L 470 192 L 472 190 L 476 193 L 478 192 L 478 187 L 473 179 L 464 170 L 466 168 L 474 168 L 476 165 L 473 160 L 469 157 L 462 154 L 460 152 L 463 148 L 463 145 L 455 135 L 451 126 L 445 118 L 445 115 L 453 108 L 459 98 L 460 95 L 460 85 L 459 84 L 459 81 L 453 70 L 447 64 Z M 466 367 L 468 368 L 468 375 L 467 376 L 465 375 L 465 368 Z M 53 198 L 55 199 L 55 202 L 54 203 L 52 200 Z M 436 59 L 443 62 L 454 72 L 455 75 L 457 77 L 459 83 L 459 87 L 460 88 L 459 97 L 455 104 L 449 111 L 443 115 L 443 117 L 446 120 L 452 129 L 455 136 L 462 145 L 462 147 L 459 150 L 459 153 L 469 158 L 475 164 L 472 168 L 470 167 L 464 167 L 463 168 L 463 170 L 471 178 L 477 187 L 477 189 L 475 191 L 470 188 L 469 189 L 470 197 L 473 203 L 475 209 L 475 212 L 474 213 L 471 213 L 468 211 L 465 212 L 467 217 L 467 230 L 464 234 L 461 232 L 459 233 L 458 241 L 453 251 L 453 253 L 446 260 L 444 260 L 429 273 L 427 273 L 424 271 L 424 272 L 420 275 L 416 280 L 416 282 L 420 281 L 425 277 L 434 274 L 457 274 L 458 275 L 475 276 L 476 277 L 479 277 L 482 280 L 482 284 L 483 285 L 499 286 L 500 287 L 507 288 L 510 291 L 507 295 L 508 297 L 511 297 L 520 300 L 524 300 L 527 302 L 531 303 L 535 307 L 532 311 L 536 315 L 549 321 L 556 327 L 552 330 L 554 336 L 558 340 L 564 343 L 571 351 L 569 354 L 566 354 L 564 357 L 566 360 L 574 367 L 576 371 L 576 375 L 575 376 L 572 376 L 570 378 L 570 381 L 574 388 L 574 390 L 577 394 L 581 406 L 581 409 L 582 410 L 582 432 L 580 436 L 578 438 L 576 438 L 574 436 L 572 430 L 570 428 L 568 428 L 566 430 L 565 433 L 565 439 L 566 442 L 564 447 L 559 452 L 553 455 L 551 455 L 548 451 L 548 444 L 546 441 L 543 441 L 539 446 L 538 457 L 534 461 L 529 461 L 524 458 L 517 456 L 514 453 L 513 450 L 511 434 L 509 431 L 504 435 L 501 442 L 498 445 L 493 443 L 487 437 L 484 430 L 484 427 L 489 417 L 489 407 L 485 400 L 483 394 L 483 389 L 480 382 L 476 377 L 471 377 L 469 375 L 469 369 L 468 368 L 468 365 L 466 362 L 464 364 L 464 370 L 462 372 L 450 362 L 446 362 L 446 364 L 448 366 L 448 369 L 447 370 L 442 369 L 432 364 L 422 363 L 421 364 L 422 369 L 427 374 L 440 380 L 442 382 L 444 382 L 449 386 L 454 387 L 469 400 L 473 407 L 474 415 L 473 416 L 473 420 L 471 426 L 472 427 L 472 431 L 474 437 L 479 445 L 487 453 L 488 456 L 491 459 L 494 468 L 494 478 L 489 483 L 490 508 L 487 516 L 487 519 L 482 529 L 475 540 L 453 561 L 449 562 L 447 560 L 445 560 L 417 581 L 413 581 L 411 579 L 408 579 L 406 581 L 405 586 L 403 588 L 402 591 L 396 598 L 394 602 L 392 604 L 389 602 L 387 603 L 387 605 L 385 608 L 385 611 L 380 618 L 378 623 L 375 642 L 372 646 L 368 643 L 366 643 L 364 645 L 364 654 L 366 658 L 366 669 L 362 677 L 356 682 L 353 682 L 349 684 L 342 684 L 341 685 L 294 685 L 293 684 L 283 684 L 282 683 L 279 683 L 276 682 L 273 679 L 276 670 L 276 666 L 277 665 L 277 663 L 275 661 L 272 662 L 266 667 L 264 671 L 264 674 L 260 679 L 255 679 L 250 677 L 246 673 L 251 658 L 249 654 L 238 655 L 231 662 L 231 665 L 227 669 L 224 668 L 222 666 L 222 659 L 225 653 L 233 645 L 241 641 L 246 641 L 247 640 L 265 640 L 266 641 L 276 641 L 277 642 L 282 642 L 283 643 L 287 643 L 293 645 L 298 645 L 298 643 L 290 637 L 288 637 L 279 633 L 276 633 L 270 631 L 268 629 L 268 624 L 269 623 L 269 617 L 270 616 L 270 610 L 271 609 L 271 604 L 272 603 L 273 591 L 281 576 L 281 573 L 278 570 L 278 568 L 284 562 L 294 558 L 299 554 L 298 552 L 294 550 L 295 547 L 306 542 L 321 531 L 329 527 L 332 524 L 337 522 L 339 520 L 345 517 L 353 515 L 363 510 L 371 509 L 372 508 L 377 508 L 378 505 L 376 503 L 364 503 L 363 504 L 358 504 L 357 505 L 353 505 L 352 506 L 345 507 L 342 509 L 339 509 L 336 511 L 329 513 L 315 520 L 305 527 L 299 533 L 286 540 L 277 549 L 275 554 L 272 557 L 268 557 L 265 554 L 264 551 L 260 549 L 257 546 L 255 541 L 252 538 L 249 537 L 246 539 L 244 539 L 241 537 L 226 519 L 221 507 L 220 497 L 218 494 L 215 497 L 213 495 L 215 474 L 213 472 L 209 475 L 207 474 L 208 463 L 211 455 L 211 448 L 209 447 L 206 450 L 203 448 L 204 443 L 214 424 L 213 421 L 209 422 L 207 420 L 208 416 L 213 408 L 219 402 L 219 399 L 216 398 L 214 395 L 222 384 L 223 381 L 233 373 L 240 365 L 239 363 L 236 364 L 231 368 L 230 371 L 228 373 L 227 372 L 227 369 L 225 367 L 226 361 L 230 353 L 231 344 L 235 337 L 235 332 L 233 332 L 229 336 L 228 339 L 226 341 L 226 343 L 221 349 L 221 351 L 214 361 L 213 366 L 209 370 L 206 371 L 192 370 L 190 368 L 193 365 L 191 362 L 188 361 L 175 361 L 174 360 L 161 358 L 158 355 L 162 352 L 165 352 L 166 349 L 160 346 L 156 346 L 155 345 L 148 344 L 143 341 L 137 339 L 134 336 L 134 334 L 135 333 L 140 333 L 142 330 L 134 323 L 124 318 L 121 315 L 117 313 L 106 302 L 93 285 L 87 274 L 87 272 L 83 264 L 79 260 L 57 244 L 45 229 L 43 225 L 43 219 L 46 215 L 48 214 L 52 214 L 54 216 L 52 219 L 52 226 L 53 228 L 59 234 L 62 236 L 65 236 L 67 234 L 67 225 L 62 220 L 56 217 L 55 215 L 57 213 L 57 210 L 58 209 L 66 214 L 70 214 L 74 209 L 74 203 L 63 192 L 60 190 L 55 190 L 53 192 L 53 197 L 52 198 L 49 193 L 49 188 L 53 184 L 57 182 L 59 182 L 65 185 L 75 193 L 77 193 L 80 191 L 81 192 L 86 191 L 91 187 L 91 183 L 88 177 L 88 175 L 81 167 L 75 167 L 72 170 L 72 174 L 74 176 L 77 184 L 75 186 L 71 181 L 69 175 L 69 172 L 68 171 L 68 164 L 73 158 L 80 158 L 85 160 L 90 166 L 94 174 L 95 179 L 98 183 L 104 182 L 109 186 L 114 186 L 118 181 L 118 174 L 117 171 L 115 169 L 114 166 L 110 162 L 101 159 L 105 154 L 109 154 L 117 161 L 121 171 L 122 177 L 124 180 L 127 180 L 136 170 L 140 170 L 146 174 L 149 180 L 149 197 L 148 198 L 148 203 L 145 209 L 145 213 L 165 234 L 172 244 L 179 239 L 184 244 L 185 247 L 196 262 L 199 261 L 200 259 L 200 253 L 203 252 L 208 258 L 213 268 L 217 269 L 222 263 L 224 263 L 237 276 L 238 276 L 241 272 L 244 273 L 252 281 L 256 289 L 259 289 L 262 286 L 262 279 L 260 277 L 259 274 L 247 261 L 245 261 L 240 255 L 239 248 L 237 248 L 233 252 L 230 250 L 227 243 L 228 229 L 225 228 L 223 230 L 221 230 L 219 228 L 219 223 L 220 222 L 220 218 L 222 212 L 222 207 L 221 206 L 218 207 L 216 205 L 216 200 L 221 189 L 221 187 L 216 187 L 214 185 L 214 183 L 221 175 L 224 170 L 224 161 L 228 154 L 233 139 L 225 136 L 218 129 L 213 119 L 213 106 L 218 94 L 225 87 L 230 84 L 239 81 L 250 81 L 253 83 L 257 84 L 261 87 L 268 95 L 269 95 L 278 88 L 294 82 L 296 79 L 301 75 L 307 75 L 308 76 L 315 77 L 316 76 L 315 67 L 317 65 L 321 65 L 328 69 L 331 72 L 335 72 L 343 64 L 347 62 L 349 62 L 351 64 L 349 69 L 349 72 L 350 73 L 356 73 L 357 72 L 371 73 L 372 74 L 377 74 L 382 76 L 386 76 L 394 80 L 397 80 L 400 74 L 400 72 L 404 67 L 410 62 L 419 58 L 432 58 L 433 59 Z M 436 49 L 433 49 L 432 48 L 420 48 L 419 49 L 412 50 L 401 56 L 391 67 L 383 66 L 382 65 L 377 65 L 376 64 L 363 64 L 360 63 L 358 61 L 358 58 L 354 54 L 351 54 L 350 53 L 344 54 L 334 60 L 331 60 L 322 56 L 312 56 L 308 59 L 307 64 L 304 68 L 295 69 L 289 73 L 272 81 L 269 81 L 263 76 L 255 73 L 252 73 L 251 72 L 237 72 L 225 76 L 215 83 L 206 95 L 203 104 L 203 113 L 202 114 L 204 124 L 207 131 L 213 140 L 220 146 L 220 148 L 214 160 L 214 170 L 206 178 L 204 182 L 204 190 L 207 196 L 207 202 L 205 205 L 205 210 L 211 219 L 210 222 L 210 230 L 217 244 L 217 246 L 215 248 L 210 246 L 203 241 L 195 242 L 189 236 L 188 233 L 184 229 L 179 227 L 176 228 L 173 227 L 156 209 L 156 206 L 159 197 L 159 180 L 158 179 L 157 173 L 153 166 L 148 162 L 143 160 L 136 160 L 129 163 L 126 160 L 121 151 L 117 147 L 111 144 L 101 144 L 98 145 L 89 153 L 80 149 L 70 149 L 67 150 L 59 159 L 58 162 L 58 171 L 56 173 L 51 173 L 45 176 L 40 182 L 37 189 L 37 194 L 41 203 L 41 207 L 37 211 L 34 217 L 34 226 L 35 229 L 43 243 L 58 258 L 68 265 L 75 272 L 81 286 L 86 293 L 88 298 L 96 308 L 109 321 L 113 323 L 121 330 L 122 337 L 128 344 L 137 349 L 146 352 L 148 354 L 149 359 L 152 363 L 157 366 L 163 368 L 171 369 L 179 376 L 183 378 L 191 379 L 197 381 L 205 386 L 204 389 L 204 404 L 203 407 L 197 414 L 196 417 L 196 424 L 197 427 L 199 429 L 199 431 L 194 440 L 194 443 L 193 444 L 193 451 L 198 461 L 197 473 L 196 474 L 197 482 L 202 490 L 204 502 L 207 508 L 212 513 L 212 515 L 217 525 L 223 534 L 239 548 L 248 553 L 256 561 L 256 586 L 257 587 L 257 606 L 256 607 L 256 617 L 255 618 L 254 626 L 252 628 L 249 629 L 243 629 L 242 630 L 236 631 L 218 642 L 214 646 L 210 653 L 209 659 L 208 660 L 208 666 L 211 674 L 217 680 L 230 686 L 233 686 L 236 688 L 245 691 L 248 691 L 257 694 L 261 694 L 262 695 L 278 696 L 279 697 L 340 697 L 341 696 L 348 696 L 349 695 L 355 695 L 356 694 L 363 693 L 369 689 L 375 682 L 379 671 L 380 654 L 387 642 L 393 636 L 405 630 L 414 627 L 422 627 L 433 631 L 442 632 L 450 629 L 460 627 L 465 624 L 474 615 L 478 608 L 478 583 L 477 582 L 476 575 L 473 569 L 473 566 L 478 557 L 482 553 L 488 544 L 494 533 L 499 529 L 510 523 L 515 519 L 524 509 L 529 500 L 534 485 L 534 476 L 539 471 L 555 467 L 561 464 L 568 458 L 580 454 L 588 446 L 592 437 L 593 429 L 594 428 L 594 414 L 593 413 L 592 405 L 589 398 L 589 392 L 592 387 L 592 381 L 588 369 L 586 366 L 586 362 L 583 353 L 582 345 L 581 343 L 575 337 L 570 334 L 568 331 L 568 328 L 569 327 L 569 322 L 568 320 L 562 315 L 552 310 L 547 305 L 545 301 L 538 295 L 525 290 L 515 281 L 503 276 L 496 275 L 487 269 L 481 268 L 480 267 L 476 267 L 475 266 L 471 266 L 470 265 L 465 265 L 463 263 L 467 250 L 476 237 L 477 228 L 483 222 L 485 216 L 485 205 L 484 202 L 487 197 L 488 190 L 487 189 L 486 182 L 484 180 L 482 174 L 485 171 L 486 166 L 483 159 L 474 151 L 470 140 L 467 137 L 458 120 L 458 118 L 463 112 L 468 102 L 469 96 L 470 95 L 470 86 L 469 85 L 468 77 L 463 67 L 453 57 L 442 51 Z M 434 49 L 440 51 L 453 58 L 463 68 L 467 76 L 469 82 L 469 86 L 470 87 L 470 94 L 469 95 L 468 101 L 463 111 L 457 118 L 457 121 L 462 128 L 466 137 L 471 143 L 473 151 L 477 154 L 485 163 L 485 170 L 481 174 L 481 176 L 485 181 L 487 186 L 487 196 L 484 200 L 485 215 L 483 221 L 477 226 L 476 236 L 474 240 L 468 247 L 466 254 L 461 264 L 466 266 L 472 266 L 473 267 L 477 267 L 478 268 L 485 269 L 490 271 L 493 274 L 497 276 L 507 278 L 515 282 L 524 290 L 535 295 L 537 295 L 541 298 L 552 311 L 562 316 L 568 322 L 567 332 L 570 335 L 574 337 L 580 343 L 585 358 L 585 364 L 588 370 L 588 373 L 590 376 L 590 379 L 591 380 L 591 387 L 589 391 L 589 398 L 591 402 L 591 405 L 593 410 L 593 415 L 594 416 L 594 426 L 593 427 L 592 437 L 586 448 L 580 453 L 567 458 L 563 462 L 555 466 L 540 470 L 536 472 L 533 475 L 533 487 L 529 499 L 524 508 L 514 519 L 504 526 L 497 529 L 493 533 L 487 545 L 471 566 L 471 568 L 474 572 L 477 580 L 477 591 L 478 592 L 477 608 L 475 612 L 462 625 L 444 631 L 435 631 L 434 630 L 431 630 L 425 628 L 422 626 L 417 626 L 416 627 L 409 628 L 392 636 L 388 640 L 379 654 L 379 669 L 375 681 L 369 688 L 362 693 L 353 694 L 352 695 L 347 695 L 346 696 L 333 696 L 332 697 L 285 697 L 284 696 L 270 696 L 269 695 L 263 695 L 262 694 L 258 694 L 253 692 L 249 692 L 234 687 L 231 685 L 226 684 L 218 680 L 211 673 L 209 668 L 209 658 L 214 647 L 219 642 L 236 632 L 238 632 L 241 630 L 245 630 L 246 629 L 253 629 L 256 625 L 256 617 L 257 616 L 258 594 L 257 593 L 257 561 L 256 559 L 249 553 L 246 552 L 232 542 L 223 533 L 218 526 L 212 513 L 206 506 L 204 502 L 203 491 L 197 481 L 198 460 L 194 454 L 194 442 L 200 429 L 196 424 L 196 418 L 204 406 L 204 391 L 206 388 L 206 385 L 204 383 L 199 382 L 194 379 L 185 378 L 180 376 L 174 368 L 166 368 L 165 367 L 158 366 L 153 363 L 150 360 L 149 355 L 147 352 L 140 350 L 130 345 L 123 338 L 122 336 L 122 329 L 106 318 L 94 305 L 82 287 L 74 270 L 70 266 L 61 260 L 45 245 L 36 231 L 35 225 L 34 224 L 34 218 L 37 212 L 42 207 L 42 204 L 38 196 L 38 187 L 42 180 L 46 176 L 50 174 L 57 174 L 58 173 L 58 162 L 60 158 L 69 150 L 72 149 L 78 149 L 79 150 L 82 150 L 87 153 L 91 153 L 92 151 L 99 145 L 103 145 L 104 144 L 112 145 L 116 147 L 121 152 L 126 162 L 128 164 L 130 164 L 134 161 L 138 161 L 140 160 L 141 161 L 147 162 L 154 169 L 157 174 L 158 182 L 159 183 L 159 194 L 158 195 L 158 200 L 156 204 L 156 210 L 170 224 L 170 225 L 175 229 L 180 228 L 184 230 L 188 234 L 189 237 L 194 243 L 204 242 L 209 246 L 212 247 L 217 252 L 219 252 L 218 244 L 212 235 L 210 229 L 211 217 L 209 214 L 207 213 L 205 209 L 208 200 L 208 197 L 207 196 L 207 193 L 204 188 L 204 183 L 206 179 L 214 171 L 214 163 L 215 162 L 215 159 L 221 148 L 221 144 L 216 141 L 210 135 L 205 126 L 204 120 L 203 119 L 203 106 L 207 94 L 221 79 L 235 73 L 248 72 L 249 73 L 254 73 L 260 76 L 262 76 L 268 81 L 272 82 L 276 79 L 282 77 L 298 69 L 306 69 L 307 68 L 308 60 L 311 57 L 319 56 L 320 57 L 326 58 L 333 62 L 341 56 L 346 54 L 352 54 L 354 55 L 357 58 L 358 62 L 360 64 L 371 64 L 372 65 L 379 65 L 388 68 L 392 68 L 396 62 L 401 57 L 414 50 L 417 50 L 418 49 Z" fill="#B1B1B1" fill-rule="evenodd"/><path d="M 466 368 L 466 375 L 467 375 L 467 368 Z M 256 179 L 256 182 L 255 183 L 255 194 L 256 195 L 257 199 L 265 208 L 272 211 L 275 214 L 279 228 L 281 232 L 283 234 L 284 237 L 289 243 L 289 244 L 293 248 L 293 249 L 304 260 L 310 263 L 311 262 L 305 255 L 302 250 L 302 241 L 305 235 L 307 233 L 307 232 L 315 225 L 318 224 L 320 222 L 324 220 L 326 220 L 330 218 L 338 218 L 339 219 L 342 219 L 352 228 L 353 232 L 354 233 L 353 235 L 353 239 L 346 253 L 347 254 L 350 251 L 354 243 L 354 241 L 357 234 L 357 231 L 358 230 L 358 227 L 359 226 L 359 220 L 360 219 L 360 197 L 359 196 L 359 192 L 357 188 L 355 186 L 353 186 L 350 191 L 341 199 L 335 202 L 333 202 L 326 205 L 310 205 L 309 204 L 304 204 L 303 203 L 300 203 L 299 202 L 296 202 L 295 201 L 289 201 L 281 206 L 274 207 L 273 206 L 270 206 L 268 205 L 262 199 L 260 195 L 260 191 L 259 190 L 259 185 L 260 184 L 260 180 L 261 179 L 261 177 L 259 176 Z M 314 169 L 309 164 L 302 161 L 299 161 L 298 160 L 288 160 L 287 161 L 281 161 L 280 162 L 274 163 L 269 167 L 269 168 L 267 170 L 267 176 L 269 180 L 276 187 L 283 190 L 292 190 L 298 187 L 300 187 L 302 185 L 307 183 L 312 178 L 313 174 L 314 173 Z M 275 139 L 270 139 L 266 145 L 265 151 L 264 152 L 264 157 L 266 160 L 272 160 L 275 157 L 277 153 L 277 150 L 278 149 L 278 144 Z M 355 134 L 352 136 L 350 140 L 350 143 L 349 144 L 349 150 L 350 151 L 350 154 L 353 158 L 359 158 L 364 152 L 364 143 L 361 137 L 359 135 Z M 283 101 L 282 100 L 279 100 L 273 103 L 268 108 L 267 112 L 269 113 L 274 109 L 281 106 L 283 104 Z M 355 94 L 355 96 L 357 98 L 362 99 L 369 103 L 371 103 L 372 102 L 372 98 L 366 93 L 364 93 L 363 92 L 357 92 Z M 434 50 L 418 50 L 417 51 L 414 51 L 401 58 L 397 62 L 397 63 L 392 69 L 388 69 L 387 68 L 385 68 L 384 67 L 380 67 L 379 66 L 372 66 L 371 65 L 360 65 L 357 62 L 357 60 L 354 56 L 352 55 L 346 55 L 345 56 L 341 57 L 333 63 L 326 59 L 320 58 L 319 57 L 311 58 L 309 60 L 309 62 L 308 63 L 308 68 L 306 70 L 298 70 L 297 71 L 295 71 L 282 78 L 280 78 L 276 80 L 272 83 L 268 82 L 262 77 L 260 77 L 254 74 L 249 74 L 248 73 L 235 74 L 221 80 L 210 91 L 210 92 L 208 94 L 206 101 L 205 102 L 205 105 L 204 106 L 204 119 L 205 120 L 206 126 L 211 135 L 216 140 L 217 140 L 222 144 L 222 148 L 220 152 L 218 154 L 217 158 L 216 159 L 216 162 L 215 163 L 215 171 L 207 179 L 205 183 L 205 188 L 208 193 L 208 196 L 209 197 L 209 200 L 208 201 L 206 209 L 208 213 L 209 213 L 212 217 L 212 221 L 211 222 L 211 229 L 212 230 L 212 233 L 213 235 L 215 237 L 219 244 L 219 247 L 220 248 L 220 252 L 219 253 L 217 253 L 212 248 L 209 247 L 204 243 L 194 244 L 190 240 L 187 234 L 184 231 L 180 229 L 177 229 L 176 230 L 173 229 L 155 210 L 155 204 L 157 200 L 157 195 L 158 194 L 158 183 L 157 182 L 157 177 L 156 176 L 156 174 L 153 169 L 147 163 L 141 162 L 140 161 L 138 162 L 134 162 L 130 165 L 128 165 L 125 162 L 120 152 L 116 148 L 112 146 L 108 146 L 107 145 L 99 146 L 97 147 L 91 154 L 87 154 L 82 151 L 79 151 L 78 150 L 72 150 L 71 151 L 69 151 L 61 158 L 59 162 L 59 173 L 57 175 L 50 175 L 46 177 L 43 180 L 39 187 L 39 196 L 43 204 L 43 207 L 38 212 L 35 218 L 35 224 L 36 225 L 37 231 L 46 245 L 61 259 L 62 259 L 65 262 L 70 265 L 75 270 L 79 277 L 79 279 L 83 287 L 85 289 L 89 297 L 92 300 L 95 305 L 106 317 L 107 317 L 111 321 L 112 321 L 123 329 L 123 336 L 124 338 L 130 344 L 140 349 L 147 351 L 149 353 L 150 355 L 150 358 L 153 362 L 158 365 L 161 365 L 162 366 L 165 366 L 166 367 L 174 367 L 177 370 L 178 373 L 180 375 L 184 376 L 185 377 L 194 378 L 199 381 L 204 382 L 207 385 L 207 388 L 205 391 L 205 406 L 201 411 L 197 418 L 197 424 L 201 429 L 195 442 L 195 454 L 199 460 L 199 468 L 198 469 L 198 481 L 204 491 L 205 502 L 207 506 L 213 513 L 219 526 L 224 532 L 224 533 L 232 541 L 233 541 L 246 551 L 249 552 L 257 559 L 258 561 L 258 593 L 259 594 L 258 616 L 257 617 L 257 625 L 256 627 L 253 630 L 246 630 L 245 631 L 241 631 L 238 633 L 236 633 L 232 636 L 223 640 L 220 643 L 219 643 L 215 647 L 211 655 L 211 657 L 210 658 L 210 668 L 211 669 L 212 673 L 218 679 L 226 683 L 231 684 L 234 686 L 236 686 L 237 687 L 239 687 L 240 688 L 242 688 L 249 691 L 253 691 L 254 692 L 262 693 L 263 694 L 269 694 L 270 695 L 284 695 L 285 696 L 332 696 L 333 695 L 346 695 L 347 694 L 352 694 L 353 693 L 358 693 L 359 692 L 362 692 L 368 687 L 369 687 L 374 681 L 374 679 L 375 678 L 375 676 L 377 673 L 377 670 L 378 669 L 378 654 L 387 640 L 392 635 L 400 631 L 402 631 L 404 629 L 406 629 L 412 626 L 416 626 L 417 625 L 422 625 L 425 627 L 427 627 L 431 629 L 434 629 L 435 630 L 444 630 L 445 629 L 447 629 L 451 627 L 454 627 L 455 626 L 458 626 L 462 624 L 474 612 L 476 608 L 476 600 L 477 599 L 477 592 L 476 591 L 476 580 L 475 579 L 474 574 L 470 568 L 470 566 L 484 548 L 488 540 L 490 538 L 492 533 L 497 528 L 504 525 L 513 518 L 514 518 L 523 508 L 524 505 L 526 503 L 528 499 L 528 497 L 530 494 L 530 491 L 532 487 L 532 475 L 536 471 L 540 469 L 546 468 L 547 467 L 550 467 L 553 465 L 555 465 L 563 461 L 567 457 L 580 452 L 585 448 L 588 442 L 590 440 L 590 438 L 591 437 L 591 434 L 592 433 L 592 427 L 593 426 L 593 416 L 592 415 L 592 410 L 591 409 L 590 402 L 588 398 L 588 391 L 590 387 L 590 380 L 589 379 L 589 376 L 587 373 L 587 370 L 584 364 L 584 358 L 583 357 L 583 354 L 582 353 L 581 347 L 579 343 L 574 338 L 570 336 L 566 332 L 567 322 L 562 317 L 552 312 L 546 306 L 544 302 L 541 299 L 540 299 L 537 296 L 535 296 L 532 294 L 530 294 L 524 291 L 515 283 L 507 279 L 504 279 L 500 277 L 497 277 L 493 275 L 488 271 L 482 270 L 481 269 L 478 269 L 477 268 L 473 268 L 472 267 L 466 267 L 465 266 L 462 266 L 460 264 L 465 254 L 467 247 L 473 240 L 475 236 L 476 226 L 482 221 L 483 219 L 483 216 L 484 215 L 483 200 L 486 196 L 486 186 L 485 185 L 484 181 L 480 176 L 480 174 L 484 170 L 484 163 L 483 161 L 472 151 L 470 143 L 465 137 L 461 128 L 456 121 L 456 118 L 462 111 L 467 101 L 468 95 L 469 94 L 469 87 L 468 86 L 468 82 L 467 81 L 466 76 L 462 68 L 453 59 L 440 52 L 438 52 Z M 449 621 L 449 619 L 451 617 L 456 617 L 457 618 L 457 619 L 453 622 L 450 622 Z M 465 573 L 465 601 L 466 602 L 467 606 L 464 610 L 452 610 L 449 612 L 445 610 L 441 610 L 439 612 L 439 617 L 440 618 L 440 620 L 438 622 L 432 622 L 422 617 L 417 617 L 416 618 L 411 619 L 408 622 L 401 625 L 395 625 L 393 623 L 393 622 L 405 610 L 408 605 L 420 593 L 428 588 L 431 585 L 436 583 L 443 578 L 452 574 L 454 572 L 458 570 L 462 570 Z M 509 463 L 514 466 L 517 469 L 522 479 L 522 484 L 521 485 L 521 489 L 519 492 L 519 494 L 514 503 L 505 513 L 501 514 L 499 512 L 499 511 L 500 510 L 501 504 L 503 501 L 503 498 L 505 494 L 505 490 L 506 489 L 506 482 L 507 481 L 507 476 L 508 475 L 507 465 Z M 435 57 L 447 63 L 454 70 L 459 78 L 460 84 L 461 85 L 461 95 L 458 102 L 456 104 L 454 108 L 448 114 L 446 115 L 446 118 L 452 126 L 456 135 L 464 145 L 464 148 L 461 151 L 461 152 L 469 156 L 472 159 L 473 159 L 475 161 L 477 166 L 474 169 L 466 169 L 465 170 L 474 179 L 479 187 L 479 192 L 477 194 L 474 193 L 472 191 L 471 192 L 471 195 L 476 207 L 476 215 L 474 217 L 469 214 L 468 215 L 468 218 L 469 219 L 469 226 L 468 227 L 468 233 L 467 235 L 465 237 L 460 236 L 459 244 L 458 245 L 458 247 L 456 250 L 455 254 L 446 263 L 438 268 L 436 270 L 436 272 L 452 272 L 453 271 L 456 271 L 459 273 L 462 273 L 463 274 L 478 275 L 479 276 L 483 277 L 485 279 L 485 282 L 487 284 L 494 284 L 495 285 L 502 285 L 503 286 L 507 286 L 512 290 L 512 292 L 510 295 L 513 297 L 516 297 L 517 298 L 520 298 L 521 299 L 525 299 L 534 303 L 537 306 L 537 309 L 536 310 L 536 313 L 537 314 L 552 321 L 560 328 L 558 330 L 556 330 L 554 332 L 554 333 L 558 338 L 569 345 L 573 350 L 573 353 L 570 356 L 568 356 L 567 358 L 576 367 L 578 371 L 578 374 L 579 375 L 579 376 L 577 378 L 575 378 L 573 380 L 573 382 L 578 392 L 578 394 L 579 395 L 579 397 L 582 404 L 582 407 L 583 408 L 583 413 L 584 414 L 584 425 L 583 426 L 583 433 L 582 434 L 582 436 L 577 441 L 576 441 L 573 438 L 573 436 L 570 431 L 568 431 L 567 432 L 567 444 L 565 448 L 559 454 L 553 457 L 549 457 L 547 455 L 546 445 L 545 444 L 543 444 L 541 446 L 539 457 L 535 462 L 531 463 L 525 460 L 517 458 L 512 453 L 512 451 L 511 450 L 510 439 L 509 438 L 509 435 L 508 434 L 504 438 L 504 440 L 502 444 L 499 447 L 497 447 L 493 445 L 486 438 L 485 435 L 483 433 L 483 425 L 488 415 L 488 408 L 483 399 L 481 388 L 479 384 L 475 380 L 474 380 L 472 382 L 470 382 L 466 378 L 465 378 L 461 373 L 460 373 L 455 369 L 454 369 L 454 371 L 452 373 L 447 373 L 446 372 L 441 371 L 436 368 L 434 368 L 431 366 L 429 366 L 428 365 L 423 365 L 423 368 L 427 372 L 441 379 L 443 379 L 449 382 L 451 382 L 458 386 L 471 397 L 473 401 L 473 403 L 475 406 L 475 409 L 476 410 L 476 415 L 475 416 L 475 419 L 474 420 L 474 423 L 473 424 L 475 435 L 478 441 L 490 454 L 496 466 L 496 481 L 495 482 L 495 487 L 493 489 L 493 499 L 492 500 L 492 507 L 491 508 L 491 511 L 490 512 L 490 515 L 489 516 L 488 521 L 482 533 L 480 535 L 476 542 L 455 562 L 450 565 L 445 565 L 439 568 L 437 570 L 431 573 L 423 580 L 409 589 L 401 597 L 401 598 L 397 602 L 396 605 L 387 614 L 387 616 L 384 623 L 382 625 L 381 625 L 379 628 L 379 633 L 378 634 L 377 641 L 372 651 L 369 655 L 369 664 L 368 665 L 368 670 L 367 671 L 367 673 L 360 682 L 353 684 L 352 685 L 348 685 L 347 686 L 338 686 L 337 687 L 297 687 L 296 686 L 280 685 L 279 684 L 274 683 L 271 680 L 273 673 L 274 672 L 274 670 L 275 669 L 275 665 L 274 664 L 270 665 L 267 668 L 267 671 L 264 677 L 264 679 L 262 681 L 258 681 L 257 680 L 254 680 L 253 679 L 249 678 L 244 673 L 243 670 L 241 668 L 241 667 L 243 665 L 246 667 L 248 665 L 248 663 L 249 662 L 249 657 L 248 656 L 242 659 L 239 658 L 233 664 L 233 671 L 232 672 L 227 672 L 225 671 L 220 665 L 220 661 L 221 660 L 221 658 L 224 652 L 231 645 L 234 644 L 238 641 L 244 640 L 245 639 L 268 639 L 269 640 L 278 640 L 279 641 L 291 642 L 292 643 L 294 642 L 287 637 L 282 636 L 279 634 L 268 632 L 266 630 L 267 628 L 267 622 L 268 621 L 268 614 L 269 613 L 270 598 L 271 597 L 272 587 L 273 586 L 273 584 L 277 580 L 277 577 L 278 576 L 276 572 L 276 568 L 277 566 L 283 561 L 285 561 L 293 557 L 296 554 L 290 549 L 293 546 L 299 543 L 301 543 L 305 540 L 308 539 L 323 528 L 326 527 L 331 523 L 341 518 L 343 516 L 345 516 L 348 514 L 353 513 L 358 510 L 360 510 L 367 507 L 373 506 L 373 505 L 360 505 L 359 506 L 356 506 L 355 507 L 351 507 L 350 508 L 348 508 L 347 509 L 333 513 L 315 522 L 313 524 L 309 526 L 299 535 L 296 536 L 294 538 L 291 539 L 288 542 L 287 542 L 279 550 L 277 554 L 268 562 L 266 569 L 265 570 L 265 572 L 264 573 L 262 573 L 260 569 L 260 565 L 262 561 L 262 556 L 253 547 L 245 543 L 241 539 L 240 539 L 236 535 L 236 534 L 232 530 L 230 526 L 227 523 L 222 514 L 222 512 L 219 505 L 219 501 L 218 499 L 217 499 L 215 501 L 212 497 L 213 477 L 212 476 L 208 479 L 205 476 L 205 471 L 206 470 L 206 466 L 207 465 L 207 462 L 208 461 L 208 458 L 209 457 L 210 451 L 208 450 L 206 452 L 204 452 L 202 450 L 202 445 L 212 425 L 211 424 L 207 424 L 205 422 L 205 419 L 207 415 L 209 413 L 210 410 L 217 402 L 216 400 L 214 400 L 212 398 L 212 396 L 214 392 L 219 386 L 221 382 L 221 380 L 223 377 L 223 374 L 224 373 L 223 365 L 227 357 L 227 355 L 229 351 L 229 345 L 233 337 L 232 336 L 227 345 L 222 351 L 219 358 L 217 360 L 215 371 L 210 376 L 208 376 L 204 373 L 200 373 L 199 372 L 191 372 L 189 371 L 187 369 L 187 367 L 188 366 L 188 364 L 187 363 L 184 363 L 183 362 L 173 362 L 172 361 L 163 360 L 162 359 L 158 358 L 156 356 L 156 355 L 159 352 L 163 351 L 163 349 L 159 348 L 158 347 L 149 346 L 143 343 L 141 343 L 139 341 L 136 340 L 132 336 L 132 333 L 133 332 L 138 332 L 139 330 L 136 327 L 118 316 L 103 301 L 103 300 L 98 295 L 98 294 L 93 288 L 91 283 L 89 281 L 86 275 L 86 273 L 82 265 L 78 261 L 74 259 L 61 248 L 60 248 L 45 232 L 42 226 L 42 218 L 45 214 L 49 212 L 54 212 L 55 211 L 51 202 L 49 200 L 47 196 L 47 188 L 53 182 L 55 182 L 56 181 L 60 181 L 64 184 L 67 185 L 72 189 L 74 189 L 73 186 L 71 184 L 69 180 L 69 178 L 66 171 L 66 165 L 68 161 L 72 157 L 81 157 L 82 158 L 86 159 L 93 168 L 93 170 L 95 173 L 95 175 L 97 179 L 99 179 L 99 170 L 98 169 L 99 159 L 104 153 L 110 153 L 112 154 L 118 160 L 120 164 L 124 178 L 127 178 L 135 169 L 142 169 L 148 174 L 149 178 L 150 179 L 150 182 L 151 183 L 151 192 L 150 193 L 150 200 L 149 201 L 149 205 L 146 211 L 147 213 L 166 233 L 166 234 L 173 242 L 177 237 L 179 237 L 186 244 L 187 247 L 196 260 L 198 259 L 198 257 L 199 256 L 199 251 L 201 249 L 202 249 L 206 253 L 206 254 L 210 259 L 211 262 L 215 267 L 217 266 L 217 265 L 221 260 L 224 260 L 236 273 L 239 269 L 242 269 L 244 270 L 254 281 L 256 286 L 257 287 L 259 287 L 261 285 L 261 281 L 259 277 L 247 264 L 244 263 L 242 261 L 239 256 L 238 252 L 237 252 L 235 255 L 233 255 L 229 251 L 226 245 L 226 232 L 225 231 L 224 232 L 220 232 L 218 230 L 218 220 L 219 219 L 220 210 L 219 209 L 217 209 L 215 207 L 215 199 L 216 198 L 217 193 L 219 190 L 218 189 L 214 189 L 212 187 L 212 183 L 213 181 L 221 173 L 223 169 L 223 160 L 227 153 L 227 151 L 228 150 L 228 148 L 231 141 L 229 139 L 227 139 L 225 137 L 224 137 L 218 131 L 218 130 L 214 125 L 213 121 L 212 120 L 212 117 L 211 116 L 212 105 L 213 104 L 213 101 L 218 92 L 224 86 L 231 82 L 233 82 L 236 80 L 239 80 L 240 79 L 248 79 L 249 80 L 254 81 L 258 84 L 261 85 L 266 90 L 266 91 L 268 93 L 269 93 L 275 88 L 281 85 L 283 85 L 284 84 L 286 84 L 289 82 L 293 81 L 294 80 L 294 78 L 298 74 L 305 73 L 306 74 L 314 75 L 315 74 L 315 72 L 314 71 L 313 66 L 316 63 L 321 63 L 322 64 L 324 64 L 331 70 L 335 70 L 342 63 L 346 61 L 350 61 L 352 63 L 352 68 L 351 69 L 352 71 L 358 71 L 360 70 L 361 71 L 376 72 L 377 73 L 385 74 L 391 77 L 396 78 L 397 77 L 398 72 L 400 70 L 400 69 L 409 61 L 421 56 L 431 56 L 432 57 Z" fill="#010101" fill-rule="evenodd"/></svg>