<svg xmlns="http://www.w3.org/2000/svg" viewBox="0 0 653 704" shape-rendering="geometricPrecision"><title>intro frame 103</title><path d="M 469 512 L 457 522 L 452 523 L 445 530 L 441 527 L 436 535 L 433 538 L 431 538 L 429 536 L 420 546 L 417 544 L 411 550 L 411 551 L 403 558 L 399 566 L 394 572 L 392 577 L 390 579 L 389 587 L 387 591 L 389 590 L 392 594 L 391 597 L 391 608 L 393 608 L 396 612 L 395 615 L 395 628 L 396 629 L 399 627 L 402 630 L 402 642 L 403 645 L 402 646 L 402 650 L 400 656 L 400 667 L 402 671 L 406 675 L 410 677 L 413 677 L 421 680 L 426 680 L 427 681 L 435 681 L 436 680 L 436 664 L 440 659 L 444 659 L 448 663 L 448 666 L 449 667 L 449 681 L 450 682 L 468 682 L 469 681 L 469 677 L 468 676 L 468 666 L 467 663 L 468 660 L 470 658 L 475 658 L 479 662 L 481 666 L 481 669 L 482 670 L 482 680 L 491 680 L 495 678 L 495 668 L 494 667 L 493 659 L 497 655 L 500 656 L 505 661 L 508 669 L 508 675 L 509 676 L 511 675 L 515 670 L 516 662 L 515 661 L 515 655 L 513 651 L 506 644 L 496 639 L 492 639 L 491 638 L 487 638 L 485 640 L 477 640 L 476 639 L 458 639 L 457 640 L 451 640 L 450 641 L 436 640 L 432 642 L 430 640 L 432 638 L 437 637 L 440 635 L 451 634 L 452 633 L 457 633 L 458 632 L 479 632 L 480 633 L 483 633 L 481 627 L 481 622 L 483 620 L 483 616 L 485 614 L 487 614 L 489 616 L 490 623 L 491 623 L 492 621 L 492 618 L 488 613 L 483 602 L 485 601 L 489 605 L 492 605 L 493 602 L 485 595 L 475 590 L 469 584 L 468 584 L 465 580 L 465 578 L 467 577 L 473 580 L 475 580 L 482 584 L 487 584 L 488 583 L 487 580 L 475 567 L 474 563 L 475 562 L 478 562 L 484 567 L 488 569 L 489 568 L 485 558 L 481 554 L 474 551 L 472 549 L 473 547 L 481 547 L 483 548 L 484 546 L 476 538 L 478 536 L 481 536 L 484 538 L 486 538 L 486 537 L 477 527 L 474 518 Z M 443 583 L 445 583 L 453 593 L 456 600 L 454 602 L 453 602 L 443 591 L 442 589 L 442 584 Z M 434 580 L 436 582 L 436 588 L 435 591 L 432 594 L 430 592 L 430 589 L 432 585 L 432 582 Z M 409 562 L 410 563 L 410 568 L 408 572 L 404 575 L 402 573 L 402 571 L 405 565 Z M 229 508 L 225 516 L 223 518 L 223 519 L 226 519 L 228 521 L 228 525 L 223 535 L 223 538 L 227 537 L 229 539 L 229 543 L 225 551 L 225 554 L 222 561 L 222 566 L 227 565 L 229 567 L 227 580 L 229 583 L 229 594 L 231 597 L 231 605 L 233 609 L 233 613 L 234 614 L 235 620 L 239 624 L 243 624 L 244 625 L 251 626 L 254 628 L 256 628 L 259 632 L 257 634 L 252 634 L 251 633 L 243 632 L 242 631 L 224 631 L 210 636 L 205 640 L 201 650 L 201 655 L 200 656 L 201 658 L 201 662 L 203 665 L 205 666 L 205 659 L 207 655 L 207 652 L 209 649 L 214 645 L 218 645 L 220 647 L 220 653 L 218 657 L 218 662 L 217 663 L 217 668 L 218 669 L 228 671 L 229 670 L 229 661 L 232 656 L 232 654 L 237 650 L 241 650 L 244 653 L 244 656 L 242 661 L 242 665 L 241 666 L 241 671 L 244 673 L 263 673 L 264 672 L 273 672 L 276 668 L 278 668 L 282 666 L 286 662 L 290 661 L 295 655 L 294 648 L 287 640 L 287 635 L 289 633 L 292 635 L 293 631 L 295 629 L 297 629 L 295 623 L 293 621 L 293 618 L 297 615 L 297 612 L 294 604 L 286 596 L 285 593 L 285 587 L 288 586 L 290 590 L 294 594 L 295 592 L 292 589 L 292 586 L 296 583 L 276 561 L 269 549 L 261 539 L 259 539 L 251 530 L 251 528 L 243 520 L 239 518 L 234 512 Z M 258 581 L 260 584 L 257 588 L 255 586 L 255 583 Z M 266 575 L 268 575 L 270 577 L 275 588 L 274 590 L 271 590 L 269 588 L 265 579 L 265 576 Z M 280 571 L 283 573 L 283 578 L 281 584 L 278 583 L 278 575 Z M 248 566 L 250 568 L 249 571 L 243 577 L 242 577 L 240 574 L 242 571 Z M 465 424 L 464 426 L 470 431 L 471 429 Z M 160 113 L 160 114 L 166 114 L 170 116 L 166 111 L 163 111 Z M 448 15 L 437 14 L 436 15 L 432 15 L 424 19 L 417 25 L 413 31 L 413 35 L 410 39 L 407 39 L 400 36 L 387 34 L 386 33 L 366 33 L 365 34 L 361 34 L 359 32 L 360 24 L 358 24 L 356 25 L 349 33 L 344 33 L 336 28 L 331 27 L 330 29 L 332 31 L 333 35 L 329 39 L 313 39 L 311 40 L 308 44 L 295 49 L 284 57 L 282 57 L 273 47 L 265 43 L 252 43 L 244 46 L 240 49 L 232 58 L 231 62 L 229 65 L 229 70 L 228 71 L 228 76 L 229 77 L 230 84 L 233 89 L 238 94 L 245 98 L 248 98 L 250 100 L 250 103 L 247 108 L 247 110 L 241 123 L 242 134 L 231 146 L 231 148 L 233 147 L 238 147 L 240 149 L 240 152 L 234 163 L 234 166 L 233 167 L 234 168 L 235 167 L 238 167 L 240 169 L 240 174 L 239 175 L 237 189 L 239 190 L 242 187 L 244 187 L 246 189 L 246 196 L 245 198 L 246 199 L 246 205 L 249 211 L 254 207 L 256 209 L 258 216 L 260 218 L 263 219 L 277 232 L 289 237 L 294 242 L 296 245 L 296 248 L 293 251 L 289 247 L 281 243 L 279 245 L 279 247 L 274 251 L 269 246 L 267 241 L 261 233 L 259 234 L 259 236 L 257 238 L 255 238 L 244 221 L 243 221 L 243 225 L 240 228 L 238 227 L 233 221 L 231 215 L 227 208 L 225 208 L 225 214 L 223 216 L 221 216 L 215 209 L 209 196 L 206 193 L 206 191 L 205 191 L 203 194 L 200 194 L 196 190 L 175 161 L 169 155 L 169 150 L 172 145 L 173 134 L 174 133 L 174 123 L 173 121 L 172 121 L 173 128 L 172 129 L 171 136 L 163 144 L 157 144 L 154 142 L 150 137 L 150 130 L 152 127 L 153 123 L 152 122 L 149 123 L 146 120 L 145 116 L 144 116 L 144 125 L 139 129 L 133 129 L 129 126 L 122 126 L 116 118 L 116 116 L 113 112 L 113 110 L 108 104 L 102 101 L 96 101 L 93 104 L 93 107 L 94 107 L 97 103 L 102 102 L 111 110 L 115 117 L 118 120 L 118 129 L 116 132 L 112 135 L 109 136 L 102 136 L 101 137 L 98 137 L 90 129 L 88 129 L 88 130 L 96 138 L 99 143 L 98 150 L 92 155 L 87 155 L 83 153 L 73 154 L 67 159 L 67 163 L 69 167 L 70 166 L 70 160 L 73 157 L 78 155 L 85 157 L 92 164 L 93 166 L 92 171 L 88 177 L 82 177 L 80 175 L 75 173 L 71 168 L 70 170 L 83 184 L 105 202 L 109 214 L 111 216 L 115 225 L 129 238 L 136 247 L 142 253 L 143 253 L 148 259 L 162 269 L 164 269 L 174 274 L 178 274 L 179 275 L 183 275 L 184 276 L 190 277 L 194 280 L 194 283 L 192 285 L 187 287 L 188 289 L 191 289 L 192 290 L 205 289 L 208 292 L 215 295 L 224 295 L 228 298 L 228 300 L 226 302 L 217 306 L 218 307 L 226 308 L 227 309 L 238 309 L 242 304 L 243 301 L 250 294 L 255 293 L 257 295 L 256 301 L 247 320 L 247 324 L 244 331 L 244 334 L 247 333 L 257 324 L 261 322 L 263 322 L 265 324 L 265 326 L 255 340 L 246 349 L 239 353 L 230 365 L 230 366 L 235 366 L 237 368 L 237 371 L 222 390 L 223 391 L 228 390 L 230 392 L 230 396 L 223 406 L 223 408 L 221 410 L 216 421 L 217 422 L 220 420 L 222 420 L 224 422 L 224 427 L 222 430 L 219 439 L 217 450 L 221 447 L 224 449 L 223 462 L 222 463 L 222 472 L 226 470 L 229 473 L 229 482 L 230 483 L 231 489 L 232 489 L 234 486 L 237 489 L 240 497 L 241 497 L 243 494 L 246 497 L 248 505 L 251 510 L 256 507 L 265 520 L 268 518 L 277 528 L 282 524 L 292 536 L 294 533 L 296 533 L 302 540 L 303 540 L 303 539 L 300 536 L 300 534 L 294 526 L 290 518 L 290 515 L 288 510 L 288 505 L 289 504 L 292 506 L 295 514 L 302 524 L 309 531 L 309 532 L 316 538 L 318 538 L 323 532 L 325 532 L 327 534 L 328 537 L 330 537 L 341 527 L 346 524 L 348 527 L 344 535 L 343 541 L 345 543 L 350 538 L 359 533 L 363 529 L 365 529 L 367 532 L 362 542 L 363 544 L 369 541 L 377 533 L 380 527 L 387 519 L 389 521 L 389 526 L 386 533 L 386 535 L 387 535 L 394 514 L 396 512 L 399 514 L 399 517 L 400 518 L 399 529 L 396 535 L 397 536 L 409 523 L 414 512 L 416 510 L 416 508 L 419 505 L 423 508 L 423 512 L 418 525 L 423 522 L 429 515 L 434 506 L 435 500 L 439 494 L 442 498 L 442 503 L 441 504 L 441 509 L 442 509 L 445 506 L 447 501 L 449 499 L 453 488 L 457 485 L 459 487 L 459 490 L 460 490 L 461 484 L 464 478 L 464 464 L 466 461 L 466 457 L 467 456 L 466 452 L 464 449 L 464 445 L 466 443 L 470 444 L 470 440 L 466 435 L 465 432 L 462 429 L 460 423 L 456 418 L 456 416 L 458 415 L 463 419 L 466 420 L 468 417 L 468 414 L 462 407 L 456 404 L 448 404 L 445 401 L 445 399 L 447 397 L 453 397 L 454 398 L 460 399 L 464 402 L 466 402 L 464 398 L 463 394 L 460 390 L 458 384 L 455 381 L 457 378 L 461 380 L 461 378 L 457 375 L 445 362 L 445 360 L 447 359 L 451 363 L 455 365 L 458 365 L 456 357 L 452 353 L 448 351 L 436 350 L 434 349 L 431 345 L 435 342 L 448 347 L 451 350 L 453 349 L 449 340 L 445 335 L 445 333 L 447 331 L 451 333 L 449 327 L 449 324 L 450 323 L 454 326 L 455 329 L 463 339 L 463 341 L 466 347 L 470 351 L 470 353 L 479 369 L 480 374 L 484 382 L 489 397 L 489 400 L 490 401 L 490 404 L 493 413 L 493 418 L 495 423 L 496 432 L 498 437 L 498 442 L 493 455 L 493 461 L 492 462 L 492 470 L 496 479 L 498 481 L 505 482 L 508 478 L 511 469 L 514 466 L 517 466 L 520 469 L 520 479 L 517 488 L 514 492 L 514 496 L 517 499 L 521 501 L 527 501 L 529 500 L 538 486 L 538 484 L 541 481 L 543 481 L 546 484 L 546 493 L 545 494 L 545 497 L 543 500 L 543 503 L 548 503 L 551 502 L 556 498 L 560 486 L 565 479 L 567 479 L 570 482 L 570 492 L 571 492 L 576 486 L 581 474 L 581 470 L 583 465 L 583 458 L 584 457 L 584 449 L 583 448 L 583 441 L 581 436 L 581 432 L 583 430 L 585 431 L 585 429 L 581 419 L 580 411 L 573 399 L 575 397 L 578 397 L 580 398 L 580 397 L 564 374 L 566 371 L 573 374 L 573 373 L 553 348 L 554 345 L 558 345 L 562 347 L 564 346 L 534 319 L 536 316 L 539 317 L 545 317 L 545 316 L 531 305 L 523 301 L 520 298 L 520 296 L 523 293 L 526 293 L 526 292 L 518 289 L 506 281 L 506 279 L 508 277 L 512 277 L 513 278 L 516 278 L 516 277 L 504 268 L 499 266 L 495 263 L 491 262 L 488 259 L 488 257 L 490 255 L 495 255 L 495 254 L 491 253 L 486 250 L 484 250 L 479 247 L 476 247 L 474 245 L 464 243 L 463 242 L 459 242 L 456 244 L 454 244 L 449 250 L 447 250 L 443 246 L 442 247 L 430 247 L 427 246 L 423 249 L 422 248 L 419 248 L 417 246 L 417 244 L 415 243 L 405 254 L 403 252 L 404 245 L 410 238 L 414 235 L 418 234 L 420 230 L 424 226 L 427 228 L 427 232 L 428 233 L 429 232 L 429 226 L 431 221 L 434 219 L 436 221 L 436 223 L 439 222 L 440 219 L 439 211 L 441 210 L 446 214 L 447 212 L 447 208 L 450 205 L 450 203 L 452 201 L 454 202 L 456 201 L 456 200 L 447 191 L 449 189 L 451 189 L 460 193 L 461 192 L 461 189 L 457 182 L 459 180 L 462 180 L 464 182 L 466 182 L 468 180 L 468 177 L 464 174 L 463 172 L 464 171 L 469 171 L 470 169 L 468 165 L 461 158 L 463 156 L 469 157 L 474 160 L 480 168 L 480 170 L 482 170 L 484 168 L 490 170 L 490 167 L 488 161 L 483 153 L 483 149 L 485 147 L 488 147 L 491 149 L 493 148 L 489 141 L 478 129 L 478 127 L 480 125 L 489 125 L 490 124 L 486 120 L 478 116 L 475 113 L 474 110 L 478 106 L 473 99 L 467 87 L 463 81 L 458 76 L 458 72 L 468 64 L 471 60 L 471 58 L 474 52 L 474 42 L 473 41 L 473 37 L 470 31 L 461 22 L 457 19 Z M 283 514 L 285 513 L 287 515 L 288 518 L 286 519 L 283 516 Z M 265 498 L 267 500 L 267 503 L 268 504 L 267 506 L 264 504 L 264 499 Z M 427 495 L 429 496 L 429 501 L 428 502 L 426 501 L 426 496 Z M 407 488 L 412 492 L 413 495 L 413 503 L 410 509 L 408 508 L 408 505 L 409 504 L 409 493 L 406 490 Z M 268 487 L 271 488 L 274 494 L 274 496 L 279 505 L 279 511 L 277 513 L 272 509 L 271 504 L 269 501 L 268 490 L 267 489 Z M 271 463 L 273 465 L 273 469 L 271 472 L 271 474 L 268 475 L 267 474 L 268 472 L 268 468 L 269 465 Z M 435 454 L 436 454 L 441 460 L 446 471 L 446 474 L 448 478 L 448 482 L 446 484 L 443 482 L 441 483 L 438 492 L 435 492 L 429 489 L 429 479 L 425 474 L 425 471 L 427 470 L 429 471 L 434 477 L 435 476 L 435 470 L 436 468 L 435 467 L 435 461 L 433 457 Z M 258 440 L 260 442 L 259 444 L 259 448 L 255 457 L 255 460 L 253 464 L 250 466 L 248 464 L 249 453 L 255 442 Z M 411 423 L 413 421 L 419 424 L 428 423 L 432 426 L 430 428 L 423 428 L 424 431 L 422 433 L 420 433 L 415 429 Z M 257 417 L 258 419 L 253 425 L 250 432 L 248 434 L 245 434 L 243 432 L 243 430 L 247 422 L 251 418 L 253 417 Z M 428 401 L 441 408 L 449 416 L 447 418 L 441 418 L 438 417 L 437 418 L 440 424 L 438 426 L 435 424 L 431 409 L 426 403 Z M 421 393 L 422 392 L 428 392 L 431 395 L 429 397 L 424 397 Z M 433 387 L 437 384 L 443 391 L 441 393 L 437 392 Z M 438 369 L 444 370 L 448 373 L 447 378 L 444 381 L 442 381 L 437 376 L 436 371 Z M 384 370 L 386 368 L 388 368 L 396 373 L 399 376 L 408 379 L 409 380 L 408 385 L 407 386 L 404 386 L 396 378 L 390 374 L 386 373 Z M 488 368 L 490 367 L 492 370 L 490 372 L 488 370 Z M 409 364 L 411 363 L 420 371 L 420 373 L 418 375 L 413 375 L 411 376 L 409 374 Z M 534 355 L 537 354 L 543 358 L 541 360 L 536 358 Z M 435 327 L 438 329 L 438 332 L 437 333 L 434 331 L 434 328 Z M 424 325 L 425 324 L 431 326 L 432 328 L 431 329 L 426 328 Z M 430 311 L 434 315 L 435 318 L 437 320 L 437 322 L 435 324 L 429 316 L 428 313 Z M 420 311 L 421 312 L 417 317 L 414 318 L 412 316 L 412 315 L 417 311 Z M 372 312 L 374 311 L 376 313 L 377 316 L 374 317 L 372 315 Z M 378 310 L 380 309 L 387 315 L 389 315 L 390 312 L 392 311 L 393 312 L 393 317 L 390 320 L 387 318 L 383 318 L 378 313 Z M 322 305 L 323 307 L 321 309 L 317 311 L 315 309 L 320 305 Z M 431 299 L 434 298 L 438 302 L 438 304 L 436 306 L 431 301 Z M 383 292 L 386 294 L 387 298 L 391 305 L 390 306 L 385 303 L 381 298 L 381 294 Z M 312 290 L 313 293 L 310 297 L 306 300 L 305 297 L 307 294 Z M 420 287 L 422 289 L 421 296 L 425 307 L 425 309 L 423 311 L 420 310 L 420 302 L 416 297 L 416 295 L 419 292 L 419 288 Z M 259 271 L 260 274 L 256 277 L 256 279 L 259 281 L 254 286 L 250 287 L 249 286 L 250 283 L 252 281 L 252 276 L 256 272 Z M 259 263 L 262 260 L 267 260 L 269 262 L 267 265 L 261 265 Z M 420 261 L 414 265 L 411 264 L 411 262 L 416 259 L 418 259 Z M 263 252 L 265 250 L 267 250 L 269 251 L 271 254 L 269 256 L 267 256 L 265 255 Z M 399 244 L 399 247 L 395 253 L 381 266 L 373 272 L 370 273 L 366 277 L 360 277 L 358 279 L 349 279 L 339 274 L 330 268 L 318 256 L 318 252 L 322 249 L 330 250 L 331 251 L 338 251 L 339 252 L 352 252 L 353 251 L 359 251 L 360 250 L 364 250 L 369 248 L 373 248 L 374 247 L 381 246 L 392 242 L 397 242 Z M 142 136 L 150 143 L 153 147 L 156 154 L 155 164 L 152 169 L 141 179 L 122 189 L 116 191 L 108 191 L 101 188 L 95 182 L 93 178 L 93 167 L 95 161 L 101 151 L 113 138 L 119 135 L 125 133 L 134 133 Z M 385 127 L 389 122 L 396 118 L 399 118 L 400 117 L 417 117 L 418 118 L 423 118 L 429 121 L 435 127 L 437 131 L 437 136 L 433 142 L 429 145 L 427 145 L 424 147 L 407 147 L 403 145 L 400 145 L 392 141 L 385 133 Z M 307 111 L 311 107 L 314 106 L 316 104 L 323 104 L 324 103 L 334 104 L 340 107 L 343 110 L 343 112 L 340 115 L 334 113 L 331 113 L 330 112 L 319 112 L 318 113 L 309 114 Z M 290 97 L 294 98 L 299 104 L 299 115 L 295 121 L 305 120 L 306 119 L 316 119 L 317 120 L 321 120 L 327 122 L 332 125 L 337 131 L 337 137 L 334 143 L 324 152 L 312 157 L 302 157 L 293 153 L 287 148 L 284 144 L 284 142 L 283 142 L 282 145 L 282 157 L 284 161 L 292 167 L 299 167 L 306 162 L 309 161 L 319 162 L 320 163 L 330 164 L 331 165 L 340 165 L 341 164 L 345 164 L 354 161 L 360 158 L 366 153 L 369 147 L 372 144 L 376 144 L 381 150 L 382 156 L 383 157 L 384 175 L 383 176 L 383 185 L 382 186 L 382 190 L 381 191 L 380 198 L 378 204 L 370 218 L 365 223 L 354 231 L 351 231 L 347 233 L 336 233 L 327 229 L 321 225 L 311 215 L 300 200 L 294 188 L 292 178 L 290 176 L 288 176 L 281 172 L 274 164 L 271 157 L 271 148 L 270 148 L 263 156 L 256 160 L 249 159 L 242 151 L 242 147 L 244 144 L 244 142 L 250 136 L 260 131 L 267 131 L 270 132 L 274 137 L 277 137 L 278 136 L 282 137 L 282 132 L 286 126 L 284 126 L 281 123 L 279 119 L 279 114 L 280 113 L 280 110 L 282 104 L 286 99 Z M 374 90 L 377 90 L 381 92 L 385 96 L 387 101 L 387 114 L 384 120 L 380 123 L 373 123 L 371 122 L 367 118 L 365 114 L 365 100 L 367 96 Z M 304 62 L 304 67 L 301 70 L 295 72 L 287 78 L 283 78 L 281 76 L 280 72 L 282 68 L 291 60 L 293 59 L 301 59 Z M 261 57 L 265 59 L 272 66 L 272 68 L 265 76 L 264 79 L 261 82 L 259 86 L 254 91 L 252 91 L 242 82 L 241 80 L 241 70 L 244 64 L 249 59 L 251 59 L 254 57 Z M 364 54 L 369 48 L 378 48 L 385 51 L 391 57 L 392 61 L 388 66 L 384 66 L 376 61 L 373 61 L 367 59 L 364 56 Z M 439 30 L 446 30 L 452 33 L 459 40 L 461 44 L 461 54 L 459 58 L 451 65 L 448 65 L 444 62 L 440 57 L 433 52 L 430 51 L 426 47 L 426 42 L 429 37 L 432 34 Z" fill="#FBFBFB" fill-rule="evenodd"/><path d="M 469 661 L 471 659 L 475 659 L 480 666 L 480 670 L 481 671 L 481 678 L 480 679 L 481 682 L 491 681 L 494 680 L 496 678 L 496 669 L 496 678 L 494 680 L 491 681 L 482 681 L 481 680 L 481 670 L 478 662 L 475 659 L 470 659 Z M 219 651 L 216 660 L 216 669 L 217 670 L 224 671 L 225 672 L 229 672 L 230 671 L 230 662 L 233 655 L 237 651 L 241 651 L 243 653 L 243 656 L 241 661 L 241 665 L 241 661 L 242 660 L 243 653 L 241 651 L 237 651 L 233 654 L 233 656 L 230 661 L 230 670 L 228 672 L 218 670 L 216 668 L 216 663 L 217 662 L 217 657 Z M 243 631 L 247 631 L 252 633 L 257 633 L 258 632 L 256 629 L 254 629 L 248 626 L 245 626 L 248 626 L 251 628 L 253 628 L 256 631 L 254 633 L 248 632 L 247 631 Z M 443 584 L 443 589 L 446 594 L 453 601 L 455 600 L 452 593 L 445 584 Z M 258 582 L 256 583 L 256 586 L 257 587 L 259 584 Z M 434 581 L 431 589 L 431 592 L 432 593 L 434 591 L 435 588 L 435 582 Z M 266 576 L 266 579 L 271 589 L 274 589 L 269 577 Z M 280 572 L 279 575 L 279 583 L 281 583 L 281 579 L 282 578 L 282 573 Z M 227 571 L 225 582 L 228 585 L 228 594 L 230 597 L 230 604 L 230 597 L 228 594 L 228 583 L 226 580 Z M 248 567 L 243 571 L 241 574 L 242 576 L 248 571 L 249 569 Z M 409 563 L 406 565 L 403 571 L 404 574 L 407 572 L 409 568 Z M 407 489 L 410 493 L 410 504 L 409 505 L 409 508 L 410 508 L 412 503 L 412 495 L 411 492 Z M 268 488 L 269 490 L 270 501 L 272 504 L 273 509 L 277 512 L 278 511 L 278 505 L 273 496 L 273 494 L 270 488 Z M 271 495 L 274 497 L 278 506 L 276 509 L 271 502 L 270 499 L 270 496 Z M 579 481 L 575 489 L 570 493 L 569 492 L 569 482 L 567 480 L 565 480 L 562 484 L 559 494 L 555 500 L 551 503 L 543 504 L 542 503 L 542 500 L 544 497 L 544 495 L 544 497 L 541 503 L 542 504 L 549 504 L 553 502 L 559 495 L 561 487 L 565 481 L 567 481 L 569 483 L 569 492 L 568 495 L 570 495 L 576 488 Z M 512 469 L 509 477 L 510 473 L 514 467 L 516 467 L 519 470 L 519 479 L 516 488 L 512 493 L 513 496 L 517 500 L 521 502 L 527 502 L 529 501 L 533 497 L 539 485 L 542 482 L 545 484 L 545 493 L 545 484 L 543 482 L 541 482 L 539 484 L 539 486 L 537 488 L 532 498 L 529 501 L 527 502 L 521 502 L 517 500 L 513 496 L 513 492 L 516 488 L 519 479 L 519 469 L 517 467 L 514 467 Z M 271 464 L 269 468 L 269 472 L 268 474 L 270 474 L 270 472 L 272 469 L 272 465 Z M 435 455 L 434 457 L 436 461 L 436 467 L 437 468 L 436 470 L 436 476 L 434 478 L 430 473 L 426 471 L 426 474 L 430 479 L 430 489 L 432 489 L 435 491 L 438 491 L 438 488 L 440 485 L 440 483 L 442 481 L 446 483 L 447 482 L 447 478 L 445 474 L 445 471 L 438 457 Z M 437 458 L 439 459 L 443 469 L 443 471 L 441 473 L 438 470 L 437 467 L 437 463 L 436 462 L 436 459 Z M 223 449 L 221 448 L 218 451 L 217 451 L 216 449 L 216 453 L 220 450 L 222 450 L 223 451 L 223 454 Z M 258 441 L 256 442 L 250 453 L 250 457 L 249 458 L 249 464 L 250 465 L 252 464 L 254 460 L 254 457 L 258 448 L 258 444 L 259 443 Z M 412 423 L 416 429 L 420 432 L 423 431 L 422 430 L 423 427 L 430 427 L 431 426 L 428 424 L 419 425 L 413 422 Z M 257 418 L 253 418 L 248 422 L 244 430 L 245 433 L 248 433 L 252 425 Z M 428 402 L 427 403 L 428 405 L 432 409 L 433 415 L 435 419 L 435 422 L 436 424 L 438 425 L 439 424 L 436 418 L 438 416 L 441 417 L 447 417 L 448 416 L 441 409 Z M 422 393 L 424 396 L 429 396 L 430 395 L 428 393 Z M 436 385 L 434 388 L 437 391 L 441 392 L 442 391 L 440 388 Z M 438 370 L 437 371 L 438 376 L 442 380 L 444 380 L 446 378 L 447 373 L 444 371 Z M 385 370 L 386 372 L 388 372 L 396 377 L 404 385 L 407 385 L 408 380 L 399 377 L 396 374 L 388 369 Z M 410 364 L 410 374 L 411 375 L 413 374 L 418 374 L 419 371 Z M 535 355 L 535 356 L 541 359 L 542 358 L 537 355 Z M 554 346 L 555 350 L 566 362 L 570 369 L 574 373 L 573 375 L 566 372 L 565 374 L 581 397 L 580 399 L 578 398 L 575 398 L 574 399 L 580 410 L 576 401 L 578 399 L 581 401 L 582 400 L 581 397 L 567 376 L 569 374 L 572 375 L 575 374 L 571 370 L 564 359 L 554 348 L 556 346 L 561 347 Z M 451 324 L 450 324 L 450 327 L 452 333 L 450 334 L 447 332 L 446 335 L 450 340 L 454 349 L 451 351 L 448 348 L 439 344 L 434 343 L 432 345 L 433 347 L 436 349 L 448 350 L 452 352 L 457 357 L 459 363 L 458 366 L 455 366 L 451 364 L 447 360 L 446 360 L 446 362 L 451 368 L 462 378 L 461 381 L 457 379 L 456 381 L 459 384 L 467 402 L 464 403 L 460 400 L 454 399 L 453 398 L 447 398 L 446 401 L 448 403 L 456 403 L 462 406 L 468 412 L 469 417 L 466 421 L 463 420 L 458 416 L 457 416 L 457 418 L 461 423 L 463 429 L 471 440 L 471 444 L 470 445 L 468 444 L 465 445 L 465 449 L 467 452 L 468 456 L 467 457 L 467 461 L 465 464 L 465 478 L 463 481 L 461 490 L 459 491 L 457 486 L 454 488 L 450 499 L 448 501 L 446 506 L 442 510 L 440 509 L 441 498 L 439 495 L 436 500 L 435 506 L 432 512 L 427 519 L 419 526 L 418 526 L 417 524 L 420 519 L 421 513 L 422 512 L 422 508 L 420 506 L 417 508 L 417 510 L 415 512 L 410 523 L 397 537 L 395 535 L 398 529 L 399 518 L 398 517 L 398 514 L 396 513 L 387 536 L 385 535 L 388 526 L 388 521 L 387 520 L 381 527 L 378 533 L 369 542 L 363 545 L 361 543 L 366 532 L 365 530 L 363 530 L 359 534 L 350 539 L 345 544 L 342 541 L 342 538 L 347 527 L 346 525 L 341 528 L 330 538 L 328 538 L 326 534 L 323 533 L 318 539 L 316 539 L 312 536 L 301 524 L 294 514 L 291 506 L 289 505 L 289 510 L 290 511 L 291 518 L 295 526 L 301 534 L 301 536 L 304 539 L 304 540 L 302 541 L 296 534 L 294 534 L 292 537 L 282 525 L 277 529 L 268 519 L 265 521 L 262 518 L 256 508 L 251 511 L 247 505 L 245 497 L 243 495 L 242 497 L 240 498 L 236 489 L 234 487 L 232 490 L 230 489 L 229 483 L 228 482 L 228 473 L 226 471 L 223 473 L 221 472 L 221 464 L 221 475 L 225 472 L 228 476 L 229 486 L 235 500 L 235 504 L 233 506 L 228 505 L 226 512 L 221 520 L 222 521 L 225 520 L 227 522 L 227 525 L 221 537 L 221 540 L 226 539 L 228 541 L 228 543 L 224 551 L 224 554 L 222 560 L 225 548 L 228 543 L 228 539 L 227 538 L 225 539 L 222 538 L 222 535 L 227 525 L 227 521 L 226 520 L 223 520 L 222 518 L 224 516 L 227 509 L 230 507 L 239 517 L 243 519 L 252 528 L 252 530 L 259 538 L 261 538 L 270 549 L 277 561 L 297 583 L 293 586 L 293 589 L 296 592 L 294 595 L 289 590 L 288 587 L 286 587 L 286 593 L 287 596 L 295 604 L 298 612 L 298 615 L 294 618 L 294 621 L 296 623 L 298 629 L 294 631 L 294 633 L 292 636 L 289 634 L 288 635 L 288 640 L 295 648 L 296 655 L 290 662 L 286 663 L 282 667 L 276 669 L 273 673 L 264 673 L 263 674 L 244 674 L 241 672 L 242 674 L 269 674 L 270 673 L 278 673 L 279 672 L 287 672 L 288 671 L 293 671 L 294 670 L 300 670 L 301 669 L 306 669 L 307 668 L 314 667 L 317 665 L 319 665 L 323 661 L 325 656 L 325 639 L 323 633 L 323 628 L 325 626 L 328 628 L 330 628 L 330 618 L 331 617 L 331 614 L 330 613 L 329 596 L 331 594 L 335 597 L 336 596 L 335 587 L 337 583 L 338 574 L 337 573 L 334 573 L 322 569 L 312 564 L 308 560 L 308 558 L 311 555 L 319 556 L 329 560 L 339 561 L 344 563 L 352 563 L 353 564 L 375 563 L 380 561 L 384 562 L 386 564 L 386 568 L 382 572 L 380 572 L 379 574 L 382 579 L 384 585 L 385 594 L 390 593 L 391 596 L 390 592 L 389 591 L 387 592 L 386 591 L 388 587 L 388 582 L 393 572 L 398 566 L 402 558 L 408 552 L 409 552 L 417 543 L 420 545 L 429 535 L 431 537 L 433 537 L 441 526 L 445 529 L 452 522 L 457 521 L 469 511 L 475 518 L 478 527 L 487 537 L 486 539 L 484 539 L 481 537 L 478 537 L 477 538 L 485 546 L 483 549 L 481 548 L 473 548 L 473 549 L 481 553 L 486 558 L 490 568 L 488 570 L 481 566 L 478 563 L 475 563 L 476 567 L 488 580 L 489 583 L 487 585 L 482 585 L 475 581 L 473 581 L 466 578 L 466 580 L 467 582 L 475 589 L 485 594 L 494 602 L 494 604 L 492 606 L 489 606 L 484 602 L 489 613 L 493 618 L 493 621 L 492 623 L 490 624 L 489 623 L 488 616 L 487 615 L 484 616 L 484 620 L 482 622 L 482 627 L 484 632 L 483 634 L 480 634 L 479 633 L 458 633 L 457 634 L 440 636 L 431 640 L 432 641 L 436 639 L 450 640 L 448 640 L 446 638 L 449 635 L 453 635 L 459 633 L 476 633 L 477 634 L 483 635 L 485 637 L 483 639 L 477 639 L 485 639 L 487 637 L 491 637 L 492 638 L 496 638 L 506 643 L 514 651 L 515 654 L 514 651 L 510 646 L 506 643 L 499 640 L 496 637 L 496 635 L 499 632 L 501 621 L 502 620 L 502 612 L 503 611 L 503 589 L 501 583 L 504 580 L 504 578 L 500 571 L 500 569 L 502 567 L 507 570 L 508 569 L 504 560 L 504 558 L 500 551 L 500 549 L 496 544 L 496 542 L 498 540 L 504 543 L 506 543 L 505 538 L 499 525 L 499 520 L 500 519 L 504 520 L 504 516 L 503 515 L 503 510 L 501 504 L 501 498 L 492 494 L 485 487 L 480 477 L 480 474 L 479 473 L 479 458 L 484 443 L 484 435 L 483 434 L 480 415 L 477 406 L 477 402 L 475 398 L 475 395 L 472 386 L 464 369 L 464 367 L 455 351 L 454 345 L 457 342 L 458 342 L 464 348 L 477 369 L 477 371 L 481 378 L 482 383 L 484 386 L 489 401 L 491 412 L 492 413 L 492 417 L 492 413 L 491 412 L 488 397 L 483 382 L 479 374 L 478 369 L 474 363 L 469 353 L 469 351 L 465 347 L 462 341 L 462 339 Z M 479 568 L 481 567 L 486 571 L 483 572 Z M 363 532 L 364 534 L 363 536 L 360 538 L 359 537 L 361 533 Z M 382 529 L 384 526 L 386 527 L 384 530 Z M 269 522 L 272 523 L 284 539 L 282 541 L 280 540 L 271 530 L 268 524 Z M 397 518 L 398 519 L 397 528 L 394 529 L 393 528 L 393 524 L 395 519 Z M 258 515 L 262 518 L 269 528 L 267 530 L 260 523 L 257 517 Z M 293 514 L 297 519 L 298 522 L 307 533 L 306 535 L 304 535 L 301 532 L 294 522 L 292 518 L 292 515 Z M 420 508 L 421 509 L 421 515 L 416 526 L 414 528 L 412 526 L 412 523 L 415 519 L 418 509 Z M 437 505 L 438 508 L 436 512 L 434 513 L 433 511 L 435 508 L 435 506 Z M 243 499 L 246 501 L 246 503 L 249 508 L 251 514 L 250 516 L 248 516 L 244 510 L 243 504 L 242 503 L 242 500 Z M 456 490 L 457 493 L 456 495 L 454 496 L 453 494 L 454 491 Z M 463 425 L 466 423 L 472 429 L 472 430 L 470 432 L 467 430 Z M 536 317 L 535 319 L 549 332 L 550 332 L 562 344 L 563 344 L 565 346 L 563 348 L 565 348 L 566 347 L 563 344 L 562 344 L 547 329 L 537 321 L 537 318 L 538 317 Z M 430 312 L 429 313 L 430 316 L 435 323 L 436 320 Z M 420 312 L 417 312 L 413 315 L 414 317 L 417 316 Z M 379 310 L 379 313 L 383 317 L 387 317 L 390 319 L 392 317 L 392 312 L 391 312 L 391 314 L 389 316 L 387 316 L 383 312 Z M 432 299 L 432 301 L 436 305 L 437 302 L 434 299 Z M 383 293 L 382 294 L 382 298 L 385 302 L 390 305 L 386 298 L 385 294 Z M 312 291 L 308 294 L 306 297 L 306 299 L 309 297 L 312 293 Z M 420 288 L 420 292 L 417 295 L 417 297 L 421 302 L 421 310 L 423 310 L 424 307 L 420 296 L 420 293 L 421 292 L 421 289 Z M 508 278 L 507 279 L 508 282 L 511 283 L 518 288 L 527 292 L 526 294 L 523 294 L 521 296 L 521 298 L 530 304 L 521 298 L 524 294 L 529 294 L 529 293 L 510 283 L 508 280 L 510 278 L 512 278 Z M 259 272 L 256 273 L 253 276 L 253 281 L 251 283 L 250 286 L 254 285 L 258 281 L 255 279 L 255 277 L 259 274 Z M 260 263 L 261 264 L 267 264 L 268 262 L 267 261 L 262 261 Z M 419 261 L 416 260 L 412 262 L 412 264 L 414 264 Z M 264 252 L 264 253 L 267 255 L 270 254 L 270 253 L 267 251 Z M 398 244 L 397 243 L 392 243 L 381 247 L 378 247 L 373 249 L 369 249 L 364 251 L 360 251 L 359 252 L 353 252 L 352 253 L 339 253 L 338 252 L 331 252 L 330 251 L 322 250 L 319 252 L 319 256 L 330 267 L 339 273 L 349 278 L 358 278 L 360 276 L 366 276 L 370 272 L 373 271 L 381 265 L 394 253 L 398 247 Z M 379 263 L 375 268 L 368 272 L 365 275 L 363 275 L 361 273 L 377 262 Z M 379 262 L 381 259 L 384 260 L 381 263 Z M 334 255 L 335 254 L 338 254 L 341 255 L 342 257 L 341 258 L 339 257 L 335 257 Z M 320 254 L 323 252 L 327 259 L 345 271 L 349 271 L 351 273 L 358 273 L 360 272 L 361 274 L 357 277 L 349 277 L 334 269 L 321 257 Z M 245 199 L 245 205 L 247 210 L 250 213 L 253 209 L 256 212 L 258 218 L 261 220 L 263 220 L 275 234 L 278 239 L 279 244 L 281 242 L 289 246 L 293 250 L 295 248 L 295 245 L 289 238 L 277 233 L 263 220 L 260 219 L 257 216 L 256 211 L 254 208 L 253 208 L 250 212 L 247 210 L 245 205 Z M 54 156 L 54 167 L 61 181 L 78 198 L 88 205 L 94 211 L 94 212 L 93 209 L 90 206 L 77 197 L 60 179 L 54 167 Z M 69 155 L 66 159 L 66 164 L 73 176 L 91 193 L 104 202 L 111 223 L 114 228 L 116 234 L 118 236 L 122 244 L 127 249 L 130 254 L 142 266 L 156 276 L 157 279 L 155 281 L 150 281 L 149 282 L 153 286 L 158 288 L 160 290 L 176 295 L 181 299 L 179 302 L 177 303 L 173 303 L 173 305 L 175 307 L 199 313 L 201 315 L 201 317 L 197 320 L 199 322 L 206 323 L 207 324 L 214 324 L 217 325 L 219 327 L 219 329 L 217 332 L 228 336 L 231 334 L 236 322 L 239 319 L 243 319 L 246 322 L 243 331 L 243 334 L 241 337 L 241 340 L 239 344 L 238 352 L 228 366 L 229 368 L 234 367 L 236 369 L 236 371 L 220 391 L 221 393 L 225 391 L 228 391 L 229 392 L 229 396 L 222 406 L 215 420 L 215 423 L 216 424 L 220 421 L 223 422 L 220 421 L 217 423 L 215 421 L 220 410 L 222 408 L 222 406 L 229 396 L 229 392 L 228 391 L 223 392 L 221 390 L 236 371 L 236 368 L 235 367 L 230 367 L 229 365 L 235 356 L 239 352 L 246 348 L 254 340 L 264 326 L 264 324 L 261 323 L 257 325 L 247 334 L 245 335 L 243 334 L 243 331 L 246 324 L 246 320 L 255 301 L 256 295 L 255 294 L 250 295 L 244 301 L 243 304 L 238 310 L 227 310 L 226 309 L 218 308 L 216 306 L 218 304 L 226 301 L 227 300 L 226 297 L 224 296 L 215 296 L 208 293 L 205 290 L 201 290 L 200 291 L 192 291 L 191 290 L 188 290 L 186 287 L 188 285 L 190 285 L 193 283 L 193 280 L 192 279 L 183 276 L 174 275 L 164 270 L 160 269 L 148 260 L 146 257 L 135 247 L 128 238 L 114 225 L 110 216 L 108 214 L 104 202 L 83 185 L 69 170 L 71 167 L 75 172 L 80 174 L 82 176 L 88 176 L 91 171 L 91 168 L 92 167 L 91 164 L 85 158 L 78 156 L 73 158 L 71 160 L 71 166 L 69 168 L 66 163 L 66 159 L 72 154 Z M 261 324 L 263 326 L 253 340 L 247 345 L 246 343 L 250 338 L 250 335 L 249 334 L 255 328 Z M 216 301 L 217 300 L 216 299 L 217 297 L 223 297 L 225 299 L 219 303 Z M 253 295 L 255 297 L 254 302 L 248 315 L 245 317 L 244 314 L 247 309 L 249 302 L 248 302 L 245 306 L 244 306 L 243 304 L 245 300 L 251 295 Z M 186 281 L 188 279 L 190 279 L 192 281 L 190 283 L 188 283 Z M 74 158 L 77 157 L 83 158 L 90 164 L 91 169 L 90 172 L 87 175 L 81 175 L 72 167 L 71 162 Z M 376 145 L 372 145 L 367 153 L 360 159 L 354 162 L 346 164 L 354 162 L 363 157 L 367 153 L 372 145 L 375 145 L 380 151 L 381 158 L 382 159 L 382 183 L 381 184 L 381 188 L 380 189 L 379 197 L 377 203 L 371 215 L 364 222 L 360 224 L 357 227 L 348 231 L 339 232 L 327 228 L 308 210 L 297 192 L 307 209 L 321 224 L 327 228 L 336 232 L 347 232 L 351 230 L 354 230 L 369 218 L 372 214 L 379 198 L 379 195 L 381 190 L 381 186 L 382 185 L 383 168 L 382 167 L 382 157 L 381 156 L 381 153 L 379 148 Z M 142 137 L 134 134 L 125 134 L 113 139 L 106 146 L 98 157 L 94 167 L 94 178 L 96 182 L 101 187 L 108 190 L 116 190 L 122 188 L 141 178 L 151 169 L 154 164 L 155 154 L 152 147 L 149 143 Z M 146 141 L 153 150 L 154 153 L 154 162 L 151 168 L 144 175 L 137 180 L 121 188 L 115 189 L 114 190 L 104 188 L 97 182 L 94 176 L 94 169 L 95 168 L 96 162 L 103 150 L 114 139 L 123 135 L 133 134 L 139 137 L 141 137 Z M 386 127 L 386 133 L 392 140 L 400 144 L 403 144 L 407 146 L 424 146 L 427 144 L 429 144 L 433 141 L 436 136 L 436 131 L 434 127 L 429 122 L 423 119 L 418 119 L 417 118 L 400 118 L 399 119 L 396 119 L 389 123 Z M 386 129 L 387 127 L 395 120 L 401 119 L 402 118 L 416 118 L 417 119 L 422 119 L 430 123 L 435 129 L 436 135 L 434 139 L 427 144 L 424 145 L 406 145 L 393 140 L 388 135 Z M 244 114 L 240 123 L 241 133 L 230 145 L 229 148 L 230 149 L 237 148 L 239 150 L 239 152 L 236 156 L 236 158 L 233 163 L 232 169 L 234 170 L 237 168 L 239 170 L 236 189 L 237 191 L 240 191 L 243 189 L 245 191 L 245 196 L 245 189 L 244 188 L 242 188 L 239 191 L 236 189 L 237 186 L 237 180 L 239 174 L 239 169 L 238 168 L 235 168 L 234 169 L 232 167 L 233 166 L 233 163 L 239 152 L 239 149 L 238 148 L 233 148 L 232 149 L 230 148 L 230 146 L 233 142 L 241 134 L 240 123 Z M 298 112 L 298 115 L 296 119 L 292 123 L 288 125 L 283 132 L 283 137 L 282 138 L 280 137 L 274 138 L 270 133 L 267 132 L 260 132 L 250 137 L 245 142 L 245 144 L 243 147 L 243 151 L 244 153 L 249 158 L 256 159 L 263 155 L 266 151 L 271 147 L 272 148 L 272 157 L 272 145 L 273 142 L 276 138 L 279 137 L 282 140 L 282 144 L 281 145 L 281 157 L 283 161 L 288 166 L 291 167 L 287 165 L 283 161 L 281 157 L 281 145 L 282 142 L 284 141 L 283 139 L 283 132 L 284 130 L 288 126 L 298 122 L 295 122 L 294 121 L 298 115 Z M 252 137 L 255 138 L 249 144 L 248 150 L 251 149 L 253 154 L 256 154 L 260 152 L 261 154 L 256 158 L 248 157 L 244 152 L 244 146 L 245 144 Z M 255 137 L 258 134 L 261 133 L 268 133 L 272 137 L 272 141 L 269 143 L 268 142 L 269 139 L 267 137 L 264 136 L 258 138 Z M 308 111 L 309 113 L 313 113 L 319 111 L 330 111 L 339 114 L 342 112 L 342 110 L 340 108 L 330 104 L 316 105 Z M 332 109 L 335 108 L 337 110 L 334 111 Z M 323 108 L 324 107 L 331 107 L 332 109 L 331 110 L 324 110 Z M 315 109 L 317 107 L 321 107 L 322 108 L 321 110 L 316 110 Z M 71 131 L 71 135 L 73 138 L 74 138 L 75 135 L 75 131 L 78 128 L 80 128 L 81 129 L 84 129 L 95 139 L 97 142 L 97 149 L 93 153 L 87 153 L 84 152 L 82 150 L 77 153 L 83 152 L 87 154 L 92 154 L 97 150 L 98 143 L 95 138 L 87 130 L 88 128 L 90 128 L 98 136 L 109 135 L 114 133 L 117 129 L 117 120 L 118 119 L 122 125 L 129 125 L 133 128 L 139 128 L 143 125 L 143 116 L 145 115 L 147 118 L 147 120 L 149 122 L 152 121 L 154 123 L 153 127 L 151 130 L 151 137 L 152 139 L 157 143 L 163 143 L 170 136 L 171 129 L 172 128 L 171 121 L 173 120 L 175 123 L 175 133 L 174 134 L 173 145 L 170 150 L 170 155 L 176 161 L 185 173 L 189 180 L 196 188 L 185 174 L 181 167 L 170 154 L 170 151 L 173 146 L 174 138 L 175 137 L 175 121 L 172 115 L 168 111 L 167 111 L 171 115 L 170 117 L 166 115 L 160 115 L 159 114 L 160 112 L 156 117 L 150 122 L 147 119 L 145 111 L 139 99 L 133 94 L 129 94 L 126 98 L 131 98 L 133 99 L 138 104 L 142 112 L 143 123 L 140 127 L 138 128 L 134 128 L 127 123 L 123 125 L 120 122 L 114 109 L 107 102 L 104 100 L 99 99 L 94 101 L 91 106 L 91 112 L 93 115 L 94 114 L 95 108 L 98 104 L 103 105 L 113 116 L 117 125 L 116 130 L 111 134 L 105 134 L 102 132 L 99 136 L 89 127 L 83 124 L 77 124 L 73 127 Z M 75 127 L 77 124 L 81 124 L 82 125 L 80 128 L 76 128 Z M 165 115 L 171 122 L 171 130 L 167 139 L 165 141 L 159 143 L 153 139 L 151 135 L 151 131 L 157 119 L 162 115 Z M 92 104 L 96 100 L 102 100 L 108 103 L 114 110 L 114 112 L 116 114 L 117 118 L 116 119 L 114 117 L 110 110 L 104 104 L 99 103 L 97 104 L 94 108 L 92 107 Z M 471 93 L 479 106 L 475 110 L 476 113 L 478 115 L 486 119 L 491 124 L 489 126 L 480 126 L 479 127 L 480 131 L 490 141 L 494 148 L 492 150 L 488 148 L 485 148 L 484 149 L 484 153 L 489 161 L 491 167 L 491 170 L 489 171 L 486 169 L 484 169 L 482 171 L 480 171 L 479 168 L 476 165 L 474 161 L 469 158 L 463 157 L 462 158 L 469 165 L 471 169 L 469 172 L 464 172 L 464 173 L 469 177 L 469 180 L 466 183 L 464 183 L 462 181 L 459 181 L 458 182 L 462 189 L 462 192 L 460 194 L 451 190 L 448 191 L 457 200 L 457 201 L 455 203 L 453 202 L 451 203 L 451 205 L 448 208 L 448 212 L 446 215 L 440 211 L 440 215 L 441 216 L 440 222 L 438 224 L 436 224 L 435 221 L 433 220 L 430 226 L 430 232 L 428 234 L 426 232 L 426 228 L 424 227 L 418 235 L 414 236 L 410 239 L 405 245 L 405 248 L 404 249 L 404 252 L 405 253 L 415 242 L 418 244 L 419 247 L 422 247 L 423 248 L 427 245 L 430 246 L 442 246 L 443 245 L 447 249 L 449 249 L 454 243 L 456 243 L 459 241 L 463 241 L 464 242 L 474 244 L 476 246 L 479 246 L 492 252 L 473 244 L 470 241 L 472 239 L 475 238 L 474 237 L 470 237 L 468 236 L 467 233 L 469 232 L 469 230 L 464 230 L 462 228 L 462 226 L 468 220 L 475 208 L 477 202 L 477 193 L 479 191 L 481 191 L 483 193 L 485 190 L 485 179 L 484 178 L 483 172 L 485 170 L 487 170 L 491 173 L 492 172 L 492 169 L 490 163 L 484 153 L 484 150 L 486 148 L 491 150 L 494 149 L 494 147 L 491 142 L 479 129 L 481 126 L 491 126 L 492 125 L 490 122 L 483 117 L 480 116 L 475 111 L 479 108 L 480 106 L 477 103 Z M 443 244 L 445 242 L 450 242 L 451 243 L 450 245 L 446 245 L 445 246 Z M 440 237 L 442 240 L 436 245 L 434 242 L 438 237 Z M 455 222 L 457 224 L 453 228 L 452 231 L 448 235 L 446 235 L 445 234 L 446 230 Z M 471 61 L 467 66 L 459 72 L 459 76 L 464 81 L 470 91 L 465 82 L 459 75 L 459 73 L 464 69 Z M 261 58 L 254 58 L 251 60 L 249 60 L 245 64 L 242 70 L 242 80 L 243 82 L 252 90 L 254 90 L 258 86 L 260 82 L 263 79 L 264 76 L 271 68 L 271 66 L 265 60 Z M 260 77 L 261 78 L 260 81 L 256 84 L 255 83 L 258 78 Z M 255 60 L 256 62 L 247 69 L 247 72 L 246 73 L 247 80 L 251 85 L 251 86 L 249 87 L 243 80 L 243 70 L 245 66 L 250 61 Z M 439 31 L 430 37 L 427 42 L 427 47 L 430 50 L 433 51 L 440 56 L 442 59 L 448 64 L 451 64 L 458 58 L 460 54 L 460 44 L 458 40 L 452 34 L 446 31 Z M 435 34 L 440 32 L 445 32 L 450 34 L 458 41 L 460 46 L 460 51 L 458 56 L 451 63 L 447 62 L 437 52 L 434 50 L 430 49 L 428 47 L 428 41 Z M 385 32 L 366 32 L 365 33 L 362 33 L 360 31 L 360 27 L 362 23 L 361 22 L 359 22 L 354 25 L 348 32 L 344 32 L 342 30 L 334 26 L 329 25 L 328 27 L 332 34 L 330 37 L 327 37 L 326 38 L 313 38 L 310 39 L 306 44 L 302 45 L 308 43 L 309 41 L 313 38 L 329 38 L 332 35 L 331 31 L 329 29 L 331 26 L 336 27 L 344 32 L 349 32 L 356 24 L 360 23 L 361 24 L 360 27 L 360 32 L 361 33 L 365 33 L 366 32 Z" fill="#D8D8D8" fill-rule="evenodd"/><path d="M 447 638 L 448 639 L 451 639 L 452 638 L 460 638 L 461 637 L 474 637 L 475 638 L 483 638 L 484 637 L 476 634 L 459 634 L 458 635 L 449 636 Z M 462 635 L 463 634 L 471 634 L 472 636 L 471 637 L 463 637 Z M 269 523 L 272 530 L 276 535 L 282 540 L 283 539 L 271 523 Z M 397 519 L 396 519 L 395 521 L 394 528 L 396 528 Z M 258 516 L 261 523 L 267 529 L 268 528 L 261 518 Z M 293 515 L 293 518 L 299 528 L 304 534 L 306 534 L 304 530 L 297 522 Z M 420 509 L 419 509 L 416 519 L 413 523 L 413 526 L 414 527 L 420 515 Z M 243 500 L 245 510 L 247 514 L 250 515 L 248 508 L 245 503 L 245 501 Z M 271 496 L 272 502 L 276 508 L 277 506 L 275 503 L 275 501 L 273 497 Z M 437 459 L 439 470 L 441 472 L 442 469 L 438 459 Z M 261 325 L 255 329 L 250 334 L 251 335 L 251 338 L 247 344 L 252 340 L 259 331 L 262 326 Z M 217 301 L 219 302 L 224 299 L 223 298 L 217 298 L 218 300 Z M 253 296 L 251 296 L 248 298 L 244 304 L 244 305 L 245 305 L 248 301 L 250 302 L 250 304 L 245 314 L 245 316 L 247 315 L 254 299 Z M 378 263 L 362 273 L 365 274 L 368 271 L 375 267 Z M 321 254 L 322 257 L 329 264 L 339 271 L 349 276 L 357 276 L 360 274 L 360 273 L 358 274 L 351 274 L 349 272 L 345 272 L 327 260 L 323 255 L 323 253 Z M 440 238 L 438 238 L 435 242 L 436 244 L 441 240 Z M 455 223 L 447 230 L 446 234 L 448 234 L 451 231 L 452 228 L 456 224 Z M 74 159 L 72 162 L 73 167 L 81 174 L 87 174 L 89 172 L 90 169 L 89 164 L 83 159 L 80 159 L 79 158 Z M 275 140 L 273 145 L 273 158 L 274 161 L 280 169 L 284 172 L 292 175 L 294 177 L 294 181 L 295 182 L 295 185 L 297 191 L 299 193 L 304 203 L 309 210 L 323 224 L 327 227 L 339 231 L 348 230 L 357 226 L 360 223 L 364 221 L 370 215 L 376 203 L 378 197 L 379 189 L 380 188 L 380 184 L 381 183 L 381 159 L 380 158 L 379 151 L 375 146 L 372 146 L 368 153 L 363 158 L 354 163 L 348 165 L 345 165 L 340 167 L 332 167 L 331 166 L 319 165 L 314 163 L 308 163 L 299 169 L 293 169 L 288 167 L 282 161 L 280 157 L 280 145 L 281 144 L 281 140 L 279 138 Z M 275 142 L 278 139 L 280 141 L 280 158 L 283 163 L 291 169 L 295 169 L 296 170 L 298 170 L 310 163 L 312 164 L 316 164 L 317 165 L 327 166 L 328 167 L 342 167 L 343 166 L 346 166 L 355 162 L 357 162 L 364 158 L 368 154 L 371 148 L 374 146 L 377 149 L 380 157 L 381 175 L 380 176 L 380 184 L 378 189 L 378 193 L 377 194 L 376 201 L 370 213 L 366 217 L 364 216 L 371 200 L 371 196 L 372 194 L 370 190 L 366 186 L 360 183 L 348 183 L 342 185 L 333 191 L 328 196 L 324 202 L 322 208 L 323 213 L 326 218 L 333 225 L 331 227 L 329 227 L 324 224 L 309 209 L 302 199 L 296 187 L 295 181 L 294 180 L 294 176 L 285 172 L 281 169 L 275 162 L 273 157 L 273 147 Z M 252 138 L 246 144 L 245 146 L 245 152 L 248 156 L 256 157 L 258 156 L 260 153 L 256 155 L 253 155 L 251 153 L 251 150 L 249 151 L 247 150 L 248 144 L 254 138 Z M 146 142 L 141 138 L 139 138 L 133 135 L 123 136 L 114 140 L 104 150 L 97 162 L 96 168 L 95 169 L 95 176 L 98 182 L 104 187 L 114 189 L 115 188 L 121 187 L 137 179 L 144 174 L 150 168 L 153 162 L 153 153 L 152 150 Z M 256 137 L 264 135 L 267 136 L 270 139 L 269 142 L 271 141 L 271 137 L 268 134 L 261 134 L 258 135 Z M 284 132 L 284 139 L 287 145 L 293 151 L 302 155 L 312 155 L 322 151 L 324 149 L 327 148 L 332 143 L 335 137 L 335 131 L 331 126 L 325 123 L 322 123 L 317 121 L 304 121 L 303 122 L 299 122 L 288 127 Z M 284 133 L 289 127 L 297 123 L 300 123 L 305 121 L 316 121 L 317 122 L 324 123 L 330 126 L 334 130 L 335 132 L 335 136 L 332 142 L 326 148 L 314 154 L 304 155 L 303 154 L 297 153 L 286 143 L 284 138 Z M 387 129 L 389 135 L 393 139 L 406 144 L 424 144 L 432 140 L 435 135 L 434 129 L 430 124 L 422 120 L 417 120 L 416 119 L 402 119 L 401 120 L 395 121 L 393 122 Z M 165 116 L 162 116 L 158 119 L 152 131 L 152 135 L 154 139 L 159 142 L 161 142 L 166 139 L 170 130 L 170 122 Z M 292 99 L 288 100 L 284 104 L 281 113 L 281 119 L 283 123 L 286 125 L 289 124 L 295 119 L 298 111 L 297 104 L 296 102 Z M 293 100 L 297 105 L 297 114 L 295 118 L 290 123 L 285 124 L 282 121 L 282 117 L 281 116 L 282 110 L 285 103 L 288 100 Z M 373 92 L 368 97 L 366 103 L 366 111 L 369 118 L 373 121 L 380 121 L 383 118 L 385 114 L 386 105 L 382 95 L 378 92 Z M 375 92 L 379 93 L 382 96 L 385 102 L 385 113 L 383 117 L 379 121 L 374 121 L 372 120 L 369 117 L 366 110 L 366 105 L 367 104 L 368 98 Z M 302 62 L 301 61 L 293 61 L 284 68 L 282 74 L 286 77 L 293 71 L 301 68 L 302 67 Z M 302 63 L 302 66 L 300 68 L 298 68 L 292 71 L 287 76 L 285 76 L 283 74 L 284 69 L 289 64 L 292 63 L 294 61 L 300 61 Z M 255 61 L 250 62 L 246 66 L 244 70 L 244 80 L 249 86 L 250 86 L 250 85 L 246 80 L 245 73 L 246 72 L 246 69 L 255 62 Z M 366 54 L 367 57 L 378 60 L 384 64 L 388 64 L 390 61 L 389 57 L 385 53 L 375 49 L 369 50 Z M 367 53 L 370 50 L 377 50 L 384 53 L 389 58 L 389 62 L 387 64 L 385 64 L 377 59 L 369 57 L 367 55 Z M 435 35 L 429 41 L 429 47 L 437 51 L 447 61 L 451 62 L 457 56 L 459 51 L 459 46 L 457 41 L 450 35 L 445 33 L 440 33 Z M 452 14 L 446 13 L 445 12 L 436 12 L 424 16 L 414 25 L 411 30 L 409 36 L 405 36 L 398 33 L 389 32 L 383 30 L 368 30 L 367 31 L 362 31 L 361 28 L 363 25 L 363 21 L 360 20 L 353 24 L 347 31 L 335 25 L 328 24 L 327 25 L 327 28 L 330 32 L 330 34 L 328 36 L 311 37 L 309 38 L 305 43 L 296 46 L 284 55 L 283 55 L 274 45 L 271 44 L 269 42 L 263 41 L 262 40 L 255 40 L 254 41 L 248 42 L 239 47 L 232 54 L 227 64 L 226 79 L 228 85 L 231 90 L 238 97 L 244 100 L 246 100 L 248 103 L 239 122 L 239 130 L 240 132 L 228 146 L 228 150 L 229 151 L 235 149 L 237 151 L 236 155 L 231 164 L 230 170 L 232 172 L 236 170 L 238 172 L 236 182 L 235 183 L 235 191 L 237 193 L 240 193 L 241 192 L 243 193 L 243 202 L 246 211 L 250 215 L 253 213 L 259 221 L 263 222 L 268 227 L 277 241 L 277 245 L 275 247 L 273 247 L 271 245 L 267 237 L 260 229 L 258 229 L 257 232 L 255 234 L 253 232 L 249 224 L 244 218 L 241 218 L 241 221 L 238 223 L 236 221 L 230 208 L 226 204 L 223 206 L 223 211 L 221 212 L 216 206 L 210 193 L 205 187 L 203 188 L 202 191 L 200 191 L 197 188 L 182 166 L 172 154 L 172 151 L 174 148 L 175 142 L 176 141 L 177 124 L 173 114 L 169 110 L 166 109 L 161 110 L 157 113 L 157 114 L 151 120 L 150 120 L 148 118 L 144 105 L 139 97 L 134 93 L 128 93 L 123 98 L 122 101 L 123 115 L 124 116 L 124 119 L 122 121 L 120 119 L 120 117 L 118 115 L 114 107 L 108 101 L 102 98 L 97 98 L 95 99 L 90 105 L 90 113 L 95 125 L 99 130 L 99 132 L 97 133 L 91 127 L 84 123 L 76 123 L 71 128 L 70 136 L 78 150 L 74 153 L 69 154 L 65 158 L 65 166 L 72 177 L 83 188 L 94 197 L 98 199 L 104 205 L 104 208 L 106 211 L 112 229 L 123 248 L 138 265 L 154 277 L 152 280 L 151 279 L 148 279 L 147 280 L 147 283 L 153 288 L 163 293 L 176 297 L 178 299 L 175 302 L 172 302 L 170 304 L 174 308 L 197 314 L 199 316 L 195 319 L 194 321 L 197 323 L 203 324 L 204 325 L 215 326 L 216 329 L 213 332 L 216 334 L 230 338 L 232 336 L 237 324 L 240 321 L 242 321 L 244 323 L 243 330 L 240 336 L 240 339 L 237 346 L 237 351 L 226 367 L 227 370 L 232 369 L 234 371 L 218 392 L 219 394 L 226 393 L 228 395 L 221 405 L 214 419 L 214 422 L 213 423 L 215 426 L 220 423 L 222 425 L 216 442 L 215 455 L 216 456 L 219 453 L 221 454 L 221 460 L 220 461 L 220 477 L 221 478 L 224 476 L 226 477 L 228 488 L 233 498 L 233 503 L 232 504 L 229 502 L 227 502 L 226 508 L 219 521 L 220 523 L 224 522 L 226 524 L 219 538 L 219 542 L 224 541 L 226 543 L 221 557 L 221 560 L 219 565 L 219 569 L 220 570 L 223 569 L 226 570 L 223 584 L 227 587 L 227 596 L 229 599 L 230 610 L 232 614 L 233 621 L 236 626 L 232 629 L 224 629 L 223 630 L 219 630 L 213 632 L 208 635 L 203 640 L 200 646 L 200 649 L 198 654 L 198 659 L 200 665 L 205 669 L 208 668 L 207 666 L 208 655 L 214 648 L 216 648 L 218 650 L 215 659 L 215 670 L 218 672 L 221 672 L 222 673 L 229 673 L 230 674 L 232 673 L 232 670 L 231 669 L 232 660 L 234 656 L 238 652 L 242 655 L 240 660 L 240 665 L 239 666 L 239 672 L 241 675 L 275 675 L 276 674 L 282 674 L 283 673 L 292 673 L 293 672 L 305 671 L 306 670 L 310 670 L 314 668 L 317 668 L 323 664 L 326 658 L 326 653 L 327 652 L 327 644 L 326 643 L 325 631 L 326 630 L 331 631 L 332 628 L 332 608 L 331 607 L 331 599 L 333 597 L 335 599 L 337 598 L 337 586 L 339 582 L 340 573 L 316 565 L 310 560 L 312 557 L 315 557 L 316 558 L 320 558 L 324 560 L 327 560 L 336 563 L 355 565 L 356 566 L 371 565 L 372 564 L 378 564 L 379 563 L 382 563 L 385 566 L 381 571 L 379 571 L 377 573 L 382 583 L 384 596 L 385 597 L 387 596 L 389 597 L 389 612 L 393 615 L 393 631 L 394 633 L 396 633 L 398 631 L 400 633 L 400 648 L 398 654 L 398 668 L 400 672 L 404 676 L 410 679 L 416 681 L 419 681 L 420 682 L 438 684 L 439 683 L 438 666 L 441 662 L 444 662 L 446 664 L 446 667 L 447 668 L 447 683 L 448 684 L 469 684 L 471 681 L 469 663 L 473 660 L 477 663 L 479 668 L 479 682 L 480 683 L 493 682 L 497 679 L 497 667 L 495 661 L 497 658 L 499 658 L 504 663 L 505 670 L 506 671 L 506 674 L 505 675 L 505 678 L 506 679 L 512 677 L 517 671 L 518 668 L 518 658 L 515 650 L 507 642 L 501 640 L 498 637 L 498 635 L 501 631 L 501 627 L 503 622 L 504 603 L 505 602 L 505 593 L 504 592 L 503 584 L 506 581 L 506 579 L 502 571 L 504 569 L 508 572 L 510 571 L 510 569 L 503 554 L 503 552 L 499 546 L 500 543 L 502 543 L 504 545 L 508 546 L 507 539 L 500 524 L 502 522 L 506 522 L 506 518 L 505 517 L 505 513 L 503 507 L 503 502 L 502 501 L 502 497 L 500 495 L 495 494 L 487 487 L 481 475 L 480 463 L 481 462 L 482 452 L 486 443 L 486 435 L 485 434 L 485 430 L 483 425 L 482 416 L 481 415 L 477 396 L 473 384 L 465 368 L 465 366 L 458 354 L 458 352 L 456 349 L 456 346 L 458 344 L 463 349 L 473 365 L 482 385 L 488 403 L 488 406 L 489 407 L 489 410 L 492 419 L 492 423 L 493 424 L 494 434 L 496 438 L 496 442 L 493 448 L 491 454 L 491 457 L 490 458 L 490 471 L 491 472 L 491 475 L 493 479 L 497 483 L 501 485 L 504 485 L 508 482 L 512 472 L 515 469 L 518 471 L 518 478 L 516 484 L 511 492 L 511 496 L 516 501 L 523 504 L 526 504 L 530 502 L 534 498 L 539 489 L 539 487 L 542 484 L 544 486 L 544 494 L 539 504 L 542 506 L 547 506 L 553 504 L 560 496 L 560 494 L 563 488 L 563 485 L 565 483 L 568 484 L 568 491 L 566 497 L 568 498 L 571 496 L 578 487 L 583 475 L 584 467 L 585 466 L 585 459 L 586 458 L 586 449 L 585 448 L 584 437 L 588 435 L 588 432 L 583 418 L 582 411 L 579 405 L 580 402 L 583 403 L 584 401 L 580 393 L 570 378 L 572 376 L 576 377 L 577 375 L 558 350 L 559 348 L 567 350 L 568 349 L 567 346 L 540 321 L 541 319 L 543 320 L 549 320 L 550 318 L 545 313 L 524 298 L 525 296 L 530 296 L 531 293 L 529 291 L 516 285 L 512 282 L 513 280 L 519 280 L 520 277 L 503 265 L 500 264 L 498 262 L 496 262 L 493 259 L 494 257 L 500 257 L 501 255 L 494 251 L 492 251 L 483 246 L 477 244 L 475 241 L 477 240 L 478 238 L 475 236 L 473 236 L 471 234 L 472 230 L 471 229 L 466 229 L 464 227 L 473 215 L 477 207 L 479 195 L 481 193 L 483 195 L 486 194 L 486 177 L 485 176 L 485 173 L 487 172 L 491 175 L 494 173 L 493 166 L 486 152 L 488 150 L 494 152 L 496 150 L 496 148 L 492 141 L 481 129 L 483 127 L 492 127 L 493 126 L 493 123 L 478 112 L 482 107 L 475 98 L 469 86 L 461 75 L 461 73 L 470 65 L 474 58 L 476 52 L 476 42 L 475 41 L 475 37 L 473 32 L 467 24 L 461 19 Z M 451 14 L 464 22 L 472 31 L 475 38 L 475 41 L 476 42 L 475 55 L 471 63 L 460 73 L 460 75 L 466 82 L 474 97 L 481 106 L 481 107 L 476 111 L 480 115 L 483 116 L 490 121 L 493 125 L 491 127 L 481 127 L 480 129 L 488 137 L 495 147 L 495 149 L 493 151 L 487 149 L 485 150 L 485 153 L 491 163 L 493 169 L 493 172 L 491 174 L 487 171 L 484 172 L 485 178 L 486 179 L 486 190 L 483 194 L 481 192 L 478 193 L 478 202 L 476 208 L 469 220 L 463 226 L 463 228 L 464 229 L 469 229 L 470 232 L 468 233 L 468 235 L 470 236 L 474 236 L 476 238 L 474 240 L 471 241 L 473 243 L 479 245 L 484 248 L 486 248 L 493 252 L 495 252 L 499 255 L 497 257 L 491 257 L 491 259 L 493 261 L 495 261 L 507 268 L 519 277 L 518 280 L 510 279 L 509 281 L 515 285 L 528 291 L 530 293 L 529 295 L 524 295 L 522 298 L 528 301 L 531 304 L 542 311 L 548 317 L 547 319 L 540 319 L 538 318 L 538 321 L 547 328 L 567 347 L 565 349 L 559 348 L 558 347 L 555 348 L 565 359 L 572 370 L 576 374 L 574 376 L 571 375 L 568 376 L 582 397 L 583 400 L 581 402 L 578 400 L 577 402 L 581 409 L 583 419 L 587 429 L 587 433 L 586 434 L 584 433 L 583 434 L 584 441 L 585 442 L 585 464 L 584 465 L 584 469 L 583 470 L 582 477 L 575 491 L 570 496 L 568 496 L 567 495 L 568 492 L 568 483 L 565 482 L 562 487 L 560 495 L 558 498 L 553 503 L 549 505 L 542 505 L 540 503 L 544 494 L 544 484 L 542 483 L 540 485 L 534 497 L 529 502 L 527 503 L 521 503 L 517 501 L 512 496 L 511 493 L 514 490 L 518 479 L 518 470 L 516 468 L 513 469 L 509 478 L 509 480 L 505 484 L 500 484 L 498 483 L 492 476 L 491 470 L 490 469 L 490 461 L 491 460 L 491 455 L 496 443 L 496 437 L 494 432 L 494 427 L 492 422 L 492 418 L 491 417 L 491 413 L 490 412 L 488 401 L 483 386 L 481 383 L 480 378 L 476 371 L 475 367 L 463 348 L 458 343 L 455 345 L 456 351 L 465 367 L 465 369 L 473 386 L 476 395 L 476 398 L 478 402 L 478 406 L 481 415 L 481 419 L 482 420 L 482 424 L 483 425 L 483 429 L 485 435 L 485 443 L 480 458 L 480 473 L 481 474 L 481 477 L 486 487 L 492 493 L 498 495 L 502 498 L 502 504 L 504 510 L 505 520 L 504 521 L 500 520 L 500 525 L 506 538 L 507 543 L 504 544 L 498 541 L 497 544 L 501 549 L 501 551 L 505 558 L 505 560 L 509 569 L 507 571 L 503 568 L 501 569 L 501 571 L 505 578 L 505 580 L 502 583 L 504 589 L 504 611 L 503 612 L 503 620 L 502 621 L 500 632 L 497 635 L 497 637 L 499 639 L 506 642 L 510 645 L 515 651 L 517 656 L 517 660 L 518 661 L 518 667 L 517 670 L 510 678 L 508 678 L 506 676 L 506 669 L 503 661 L 500 658 L 497 657 L 495 659 L 496 668 L 497 669 L 497 678 L 494 681 L 491 682 L 481 683 L 479 681 L 480 678 L 480 671 L 479 670 L 479 666 L 475 660 L 471 660 L 469 662 L 470 682 L 468 684 L 449 684 L 447 682 L 447 665 L 444 661 L 441 661 L 438 664 L 438 682 L 437 683 L 422 682 L 421 681 L 417 681 L 406 677 L 400 671 L 398 666 L 398 657 L 399 656 L 399 651 L 401 646 L 400 631 L 398 630 L 395 632 L 393 629 L 393 616 L 394 615 L 394 611 L 391 612 L 389 610 L 390 594 L 387 595 L 384 594 L 383 585 L 381 579 L 378 574 L 380 571 L 382 571 L 385 568 L 385 564 L 382 562 L 376 563 L 375 564 L 366 564 L 365 565 L 344 564 L 339 562 L 329 561 L 315 556 L 311 556 L 309 558 L 309 560 L 312 563 L 322 568 L 334 572 L 337 572 L 339 574 L 338 583 L 336 587 L 337 596 L 335 598 L 332 595 L 330 596 L 331 613 L 332 614 L 332 617 L 331 618 L 331 628 L 330 629 L 328 629 L 326 627 L 324 628 L 324 633 L 326 639 L 326 656 L 324 661 L 319 666 L 317 666 L 311 669 L 307 669 L 306 670 L 294 671 L 293 672 L 288 672 L 287 673 L 270 674 L 269 675 L 242 675 L 240 673 L 240 661 L 241 660 L 242 653 L 241 652 L 237 652 L 234 655 L 231 662 L 231 671 L 229 673 L 225 673 L 224 672 L 217 671 L 215 669 L 215 660 L 219 649 L 217 647 L 214 647 L 209 652 L 208 658 L 207 659 L 207 667 L 204 668 L 199 662 L 199 651 L 203 640 L 210 634 L 220 630 L 235 629 L 236 628 L 242 630 L 247 630 L 252 632 L 255 631 L 253 629 L 251 629 L 248 627 L 238 626 L 234 622 L 232 617 L 232 613 L 231 612 L 230 605 L 229 604 L 229 597 L 227 594 L 227 585 L 224 582 L 227 568 L 225 567 L 221 570 L 219 568 L 221 558 L 223 554 L 223 551 L 227 543 L 226 540 L 223 541 L 220 540 L 220 537 L 226 525 L 226 522 L 225 521 L 222 522 L 220 520 L 225 512 L 227 505 L 228 504 L 233 505 L 234 504 L 234 500 L 228 486 L 227 476 L 225 473 L 222 476 L 220 475 L 220 464 L 221 463 L 222 451 L 220 451 L 217 454 L 215 453 L 215 449 L 216 448 L 216 444 L 217 443 L 218 436 L 223 423 L 220 422 L 216 425 L 214 423 L 214 420 L 221 406 L 228 396 L 228 392 L 225 392 L 221 394 L 219 391 L 235 371 L 234 368 L 229 369 L 227 366 L 237 352 L 238 344 L 240 340 L 240 337 L 242 334 L 242 331 L 245 322 L 243 320 L 239 320 L 237 322 L 232 334 L 229 337 L 218 334 L 216 332 L 218 329 L 217 326 L 202 324 L 199 323 L 196 320 L 200 317 L 199 314 L 175 308 L 172 305 L 172 303 L 173 302 L 177 302 L 179 301 L 180 299 L 178 297 L 160 291 L 158 289 L 153 287 L 148 282 L 150 280 L 155 280 L 156 279 L 155 276 L 142 267 L 129 254 L 126 249 L 121 244 L 113 230 L 113 228 L 110 223 L 103 202 L 95 197 L 83 187 L 72 176 L 66 167 L 65 159 L 69 154 L 71 153 L 76 153 L 81 149 L 87 152 L 93 152 L 96 149 L 96 142 L 94 139 L 84 130 L 78 129 L 76 131 L 76 135 L 74 139 L 71 137 L 70 135 L 70 131 L 72 127 L 77 123 L 83 123 L 89 126 L 99 135 L 102 131 L 105 133 L 111 133 L 115 130 L 116 128 L 115 122 L 110 113 L 103 106 L 98 105 L 96 108 L 95 114 L 93 116 L 90 112 L 90 106 L 94 100 L 99 98 L 104 99 L 107 101 L 115 109 L 121 122 L 123 124 L 127 122 L 134 127 L 138 127 L 141 125 L 142 123 L 142 116 L 137 104 L 133 100 L 131 99 L 126 99 L 125 98 L 129 93 L 133 93 L 135 94 L 140 99 L 144 106 L 148 119 L 150 121 L 151 121 L 160 111 L 164 109 L 168 110 L 173 115 L 176 121 L 176 137 L 175 138 L 174 146 L 171 151 L 171 154 L 182 167 L 197 189 L 200 192 L 202 192 L 205 188 L 208 191 L 217 209 L 221 214 L 223 213 L 224 207 L 226 205 L 230 209 L 235 219 L 235 221 L 239 225 L 241 224 L 241 220 L 243 218 L 247 222 L 252 231 L 256 236 L 257 233 L 260 230 L 267 238 L 273 248 L 276 248 L 278 245 L 278 242 L 274 234 L 263 221 L 261 221 L 257 218 L 256 214 L 253 210 L 250 214 L 246 210 L 244 205 L 244 191 L 242 190 L 240 192 L 237 192 L 235 189 L 238 170 L 236 169 L 233 171 L 231 169 L 231 166 L 235 158 L 235 156 L 238 152 L 238 150 L 237 149 L 230 150 L 228 147 L 240 133 L 239 123 L 247 106 L 248 101 L 239 97 L 235 94 L 230 88 L 228 84 L 227 77 L 226 76 L 226 72 L 227 71 L 227 66 L 231 56 L 241 46 L 252 41 L 265 41 L 273 45 L 282 55 L 284 55 L 295 47 L 304 43 L 306 43 L 310 38 L 313 37 L 326 37 L 327 36 L 330 36 L 331 34 L 327 27 L 329 24 L 334 25 L 342 29 L 344 31 L 348 31 L 354 24 L 359 21 L 361 21 L 363 23 L 361 27 L 361 31 L 362 32 L 365 32 L 366 31 L 385 31 L 386 32 L 396 33 L 397 34 L 400 34 L 403 36 L 409 37 L 411 35 L 411 31 L 414 26 L 425 16 L 437 12 L 442 12 L 443 13 Z M 457 6 L 451 4 L 447 4 L 446 3 L 429 4 L 423 6 L 416 10 L 410 15 L 403 24 L 397 24 L 396 23 L 390 23 L 389 22 L 380 22 L 379 21 L 373 22 L 370 19 L 370 17 L 367 14 L 363 12 L 356 13 L 352 15 L 346 20 L 343 20 L 335 16 L 325 16 L 321 19 L 320 21 L 320 26 L 318 28 L 307 30 L 288 40 L 286 42 L 282 40 L 276 35 L 265 31 L 253 31 L 252 32 L 249 32 L 243 34 L 232 40 L 223 50 L 218 59 L 217 65 L 216 66 L 216 80 L 217 81 L 218 87 L 223 96 L 235 107 L 235 110 L 231 117 L 229 123 L 229 133 L 222 140 L 220 144 L 220 153 L 225 158 L 225 160 L 223 162 L 222 165 L 222 174 L 227 180 L 226 183 L 226 191 L 227 193 L 225 195 L 220 196 L 218 194 L 214 185 L 208 178 L 201 177 L 198 174 L 191 162 L 182 152 L 184 142 L 185 141 L 185 135 L 186 134 L 186 122 L 181 110 L 173 102 L 167 100 L 160 101 L 154 104 L 150 100 L 150 98 L 146 92 L 141 87 L 135 84 L 125 84 L 122 85 L 113 93 L 111 93 L 106 90 L 103 90 L 102 89 L 97 89 L 89 92 L 81 101 L 80 104 L 80 112 L 76 114 L 73 114 L 67 118 L 63 123 L 60 129 L 60 138 L 63 145 L 58 150 L 55 155 L 55 167 L 57 170 L 58 174 L 64 183 L 77 196 L 90 205 L 94 209 L 98 222 L 107 241 L 121 261 L 137 276 L 137 282 L 140 288 L 148 295 L 158 300 L 162 304 L 162 308 L 166 313 L 173 317 L 179 319 L 182 319 L 185 322 L 188 328 L 197 332 L 201 332 L 204 336 L 210 341 L 212 341 L 217 344 L 226 347 L 226 351 L 223 355 L 218 366 L 219 377 L 211 387 L 209 393 L 209 397 L 212 401 L 212 404 L 208 411 L 208 413 L 205 419 L 205 431 L 209 435 L 208 441 L 207 442 L 207 446 L 206 447 L 206 459 L 210 466 L 210 475 L 212 481 L 215 487 L 220 492 L 215 509 L 210 520 L 210 524 L 213 528 L 213 530 L 210 535 L 209 542 L 210 543 L 210 546 L 213 549 L 213 552 L 210 558 L 209 569 L 211 574 L 215 578 L 215 590 L 216 591 L 216 595 L 218 601 L 218 606 L 219 607 L 221 618 L 218 621 L 215 621 L 207 624 L 196 632 L 189 644 L 188 652 L 187 653 L 187 658 L 188 659 L 188 663 L 190 668 L 196 674 L 201 677 L 207 679 L 210 679 L 211 680 L 214 680 L 215 681 L 225 682 L 226 683 L 234 683 L 235 684 L 274 684 L 275 683 L 284 683 L 285 682 L 292 682 L 293 681 L 305 680 L 310 678 L 318 677 L 327 673 L 334 666 L 337 659 L 337 639 L 340 635 L 342 630 L 342 626 L 343 625 L 343 606 L 347 602 L 348 599 L 348 590 L 349 589 L 349 584 L 350 583 L 350 577 L 352 575 L 355 575 L 356 576 L 367 576 L 370 579 L 370 582 L 374 594 L 374 597 L 376 600 L 377 604 L 381 608 L 381 617 L 382 618 L 383 629 L 387 638 L 390 642 L 390 647 L 388 652 L 388 660 L 387 661 L 388 669 L 393 679 L 399 684 L 407 688 L 410 688 L 414 690 L 422 691 L 423 692 L 428 692 L 429 693 L 438 693 L 439 694 L 475 694 L 476 693 L 487 693 L 488 692 L 499 691 L 500 690 L 503 690 L 504 689 L 507 689 L 513 687 L 520 683 L 527 675 L 529 669 L 529 655 L 527 649 L 525 647 L 524 644 L 512 633 L 512 628 L 514 622 L 514 614 L 515 613 L 515 583 L 520 577 L 520 570 L 515 557 L 515 554 L 518 551 L 518 542 L 514 533 L 514 530 L 516 527 L 516 517 L 515 515 L 518 513 L 523 515 L 530 515 L 533 514 L 540 517 L 548 517 L 549 516 L 552 516 L 571 508 L 577 504 L 584 497 L 589 490 L 595 475 L 595 471 L 597 465 L 597 449 L 596 448 L 596 443 L 598 440 L 598 429 L 597 428 L 597 425 L 594 416 L 592 413 L 592 410 L 594 408 L 594 400 L 589 389 L 586 385 L 587 375 L 580 363 L 576 359 L 576 356 L 578 354 L 578 347 L 576 343 L 558 325 L 560 322 L 560 317 L 558 313 L 540 297 L 541 295 L 541 290 L 540 288 L 536 284 L 530 281 L 528 279 L 529 277 L 528 273 L 523 268 L 514 262 L 514 255 L 513 253 L 506 247 L 493 241 L 490 238 L 490 234 L 489 232 L 481 223 L 481 221 L 486 213 L 488 206 L 493 201 L 495 197 L 496 186 L 500 182 L 503 176 L 503 166 L 501 163 L 501 159 L 505 154 L 505 147 L 501 138 L 499 136 L 499 133 L 502 129 L 502 122 L 500 118 L 490 110 L 490 104 L 482 89 L 474 77 L 475 73 L 480 68 L 484 61 L 486 51 L 487 50 L 487 45 L 486 44 L 486 39 L 485 38 L 484 32 L 480 24 L 472 15 L 465 10 Z M 458 7 L 470 14 L 478 22 L 484 33 L 485 40 L 486 41 L 486 53 L 482 64 L 478 70 L 473 75 L 473 77 L 479 85 L 481 90 L 487 99 L 490 105 L 490 111 L 495 114 L 501 120 L 502 123 L 502 129 L 498 133 L 498 135 L 503 142 L 505 148 L 505 153 L 500 159 L 500 161 L 502 164 L 502 168 L 503 169 L 503 175 L 500 181 L 496 185 L 495 196 L 493 200 L 488 205 L 486 212 L 481 220 L 481 224 L 489 233 L 489 238 L 492 241 L 505 247 L 513 254 L 514 256 L 513 262 L 521 267 L 528 274 L 528 279 L 531 282 L 535 284 L 541 290 L 540 298 L 548 304 L 558 314 L 560 318 L 560 321 L 558 323 L 558 326 L 572 339 L 578 347 L 578 353 L 576 355 L 575 358 L 581 365 L 587 376 L 587 380 L 585 384 L 593 398 L 594 406 L 592 409 L 592 414 L 594 417 L 595 423 L 597 427 L 597 431 L 598 432 L 598 438 L 596 441 L 597 459 L 596 460 L 596 467 L 595 468 L 594 476 L 589 489 L 585 495 L 576 504 L 566 510 L 564 510 L 557 514 L 551 515 L 550 516 L 538 516 L 535 514 L 525 515 L 517 512 L 514 513 L 515 519 L 516 520 L 516 526 L 513 530 L 513 532 L 515 535 L 518 544 L 518 549 L 514 554 L 514 557 L 517 562 L 519 568 L 520 576 L 514 583 L 514 587 L 515 588 L 515 604 L 514 605 L 514 618 L 513 619 L 513 625 L 512 626 L 511 633 L 521 641 L 528 653 L 528 657 L 529 658 L 528 672 L 526 674 L 525 677 L 519 683 L 512 687 L 509 687 L 505 689 L 501 689 L 497 691 L 482 692 L 481 693 L 457 693 L 456 694 L 453 694 L 452 693 L 434 693 L 433 692 L 426 692 L 425 691 L 420 691 L 419 690 L 412 689 L 400 684 L 392 677 L 388 668 L 388 655 L 389 654 L 389 649 L 390 648 L 391 642 L 388 639 L 384 631 L 383 623 L 382 622 L 382 612 L 381 611 L 381 607 L 377 603 L 377 601 L 375 598 L 370 578 L 368 575 L 351 575 L 350 576 L 350 582 L 348 588 L 348 598 L 346 603 L 342 607 L 342 629 L 339 636 L 337 638 L 337 657 L 336 658 L 336 661 L 334 665 L 326 673 L 320 676 L 317 676 L 308 679 L 304 679 L 303 680 L 291 681 L 290 682 L 282 682 L 281 683 L 265 683 L 264 684 L 229 683 L 228 682 L 216 681 L 215 680 L 212 680 L 211 679 L 208 679 L 198 675 L 191 668 L 188 662 L 188 649 L 193 637 L 198 631 L 210 623 L 213 623 L 221 620 L 221 614 L 219 609 L 218 599 L 217 598 L 217 594 L 215 588 L 215 577 L 210 572 L 209 569 L 210 560 L 211 559 L 211 556 L 213 553 L 213 548 L 210 545 L 210 536 L 213 531 L 213 528 L 211 526 L 210 522 L 211 521 L 212 515 L 215 510 L 218 499 L 220 496 L 220 491 L 215 486 L 211 478 L 211 475 L 210 474 L 210 465 L 206 458 L 206 448 L 207 447 L 207 443 L 209 438 L 209 434 L 205 430 L 205 420 L 207 414 L 213 403 L 213 401 L 210 398 L 209 394 L 212 386 L 219 377 L 218 367 L 223 356 L 227 350 L 227 347 L 209 340 L 202 332 L 192 330 L 186 325 L 186 322 L 184 319 L 177 318 L 168 314 L 163 309 L 162 307 L 162 302 L 152 297 L 146 293 L 139 286 L 137 282 L 137 275 L 120 259 L 107 240 L 98 221 L 95 209 L 91 205 L 87 203 L 76 194 L 64 182 L 58 173 L 55 166 L 55 156 L 58 150 L 63 145 L 60 136 L 60 130 L 64 122 L 70 116 L 75 114 L 79 114 L 80 113 L 80 105 L 84 97 L 91 91 L 97 90 L 98 89 L 102 89 L 109 92 L 111 94 L 113 94 L 122 85 L 125 85 L 126 84 L 133 84 L 140 87 L 147 94 L 151 102 L 153 104 L 156 104 L 158 102 L 166 100 L 172 102 L 179 108 L 185 120 L 185 139 L 184 140 L 184 145 L 182 149 L 183 154 L 191 163 L 199 176 L 201 178 L 207 178 L 213 184 L 218 193 L 218 195 L 219 196 L 224 196 L 227 194 L 227 188 L 226 187 L 227 179 L 222 173 L 222 166 L 225 160 L 225 157 L 220 152 L 220 145 L 222 141 L 230 132 L 229 124 L 230 123 L 230 120 L 236 109 L 236 107 L 228 101 L 221 92 L 216 79 L 216 67 L 217 66 L 218 60 L 222 52 L 233 40 L 247 33 L 251 33 L 256 31 L 261 31 L 262 32 L 270 33 L 278 37 L 284 42 L 287 42 L 291 39 L 312 29 L 319 29 L 320 28 L 320 22 L 321 20 L 326 16 L 333 16 L 334 17 L 337 17 L 344 21 L 346 21 L 350 17 L 357 13 L 365 13 L 370 18 L 370 20 L 372 22 L 386 22 L 387 23 L 393 23 L 394 24 L 404 25 L 408 18 L 414 12 L 422 7 L 431 4 L 437 4 L 438 3 L 449 4 Z" fill="#B1B1B1" fill-rule="evenodd"/><path d="M 463 635 L 463 636 L 471 636 L 471 635 Z M 276 142 L 275 146 L 274 147 L 274 157 L 275 158 L 276 162 L 279 165 L 279 166 L 285 171 L 289 173 L 291 173 L 295 176 L 295 180 L 296 181 L 297 187 L 303 199 L 310 208 L 310 209 L 324 223 L 329 226 L 331 226 L 332 225 L 325 218 L 322 213 L 321 208 L 322 207 L 322 204 L 323 202 L 325 200 L 327 196 L 333 190 L 334 190 L 337 187 L 340 186 L 342 184 L 344 184 L 348 182 L 360 182 L 361 183 L 363 183 L 371 190 L 373 194 L 372 196 L 372 200 L 371 201 L 370 206 L 365 216 L 366 216 L 369 213 L 375 201 L 375 198 L 376 197 L 376 194 L 377 193 L 377 189 L 378 188 L 378 185 L 379 184 L 379 176 L 380 175 L 380 168 L 379 167 L 379 157 L 378 156 L 378 153 L 376 149 L 374 147 L 372 148 L 369 154 L 364 159 L 361 160 L 357 163 L 355 163 L 352 165 L 350 165 L 346 167 L 343 167 L 342 168 L 328 168 L 327 167 L 317 166 L 316 165 L 312 165 L 310 164 L 306 166 L 304 168 L 298 171 L 296 171 L 295 170 L 291 170 L 289 169 L 282 163 L 279 158 L 279 141 L 278 140 Z M 285 133 L 285 138 L 286 139 L 287 143 L 297 152 L 303 153 L 304 154 L 310 154 L 311 153 L 314 153 L 326 147 L 331 142 L 334 136 L 334 132 L 330 127 L 324 124 L 321 124 L 320 123 L 317 123 L 316 122 L 305 122 L 304 123 L 297 124 L 289 128 Z M 293 101 L 288 101 L 286 103 L 284 107 L 282 116 L 283 117 L 283 121 L 285 123 L 288 123 L 290 122 L 294 118 L 296 114 L 296 105 Z M 375 93 L 369 98 L 368 104 L 367 105 L 367 110 L 370 117 L 372 119 L 374 120 L 379 120 L 382 117 L 384 113 L 384 102 L 381 96 L 379 94 Z M 301 63 L 300 62 L 294 62 L 292 64 L 289 65 L 285 69 L 284 71 L 284 74 L 285 75 L 287 75 L 292 70 L 298 67 L 300 67 L 301 66 Z M 368 53 L 368 55 L 369 56 L 377 58 L 383 61 L 385 63 L 387 63 L 388 62 L 388 58 L 384 54 L 380 52 L 378 52 L 377 51 L 370 51 Z M 458 8 L 456 8 L 449 5 L 443 5 L 442 4 L 431 5 L 430 6 L 422 8 L 414 13 L 409 18 L 406 24 L 404 26 L 394 25 L 393 24 L 387 24 L 386 23 L 372 23 L 369 20 L 369 18 L 365 14 L 357 14 L 350 18 L 346 22 L 344 22 L 337 18 L 334 18 L 333 17 L 326 17 L 322 20 L 321 22 L 321 28 L 319 30 L 312 30 L 311 31 L 309 31 L 291 40 L 287 43 L 284 43 L 278 38 L 270 34 L 268 34 L 267 33 L 262 33 L 261 32 L 256 32 L 255 33 L 252 33 L 251 34 L 247 34 L 233 41 L 223 52 L 219 60 L 218 66 L 217 67 L 217 79 L 218 80 L 219 86 L 222 92 L 227 98 L 227 99 L 237 107 L 237 109 L 231 120 L 231 123 L 230 124 L 230 129 L 231 130 L 231 132 L 230 134 L 223 141 L 221 145 L 221 152 L 226 157 L 226 160 L 223 166 L 223 173 L 228 179 L 228 184 L 227 185 L 227 187 L 228 188 L 228 194 L 224 197 L 219 197 L 217 195 L 217 193 L 215 189 L 213 187 L 212 184 L 207 179 L 201 179 L 198 176 L 195 170 L 192 167 L 190 163 L 182 154 L 181 152 L 181 149 L 183 145 L 183 140 L 184 139 L 184 120 L 178 108 L 172 103 L 170 102 L 167 102 L 166 101 L 158 103 L 156 105 L 153 105 L 150 102 L 146 94 L 140 88 L 136 86 L 134 86 L 133 85 L 126 85 L 125 86 L 122 86 L 113 95 L 111 95 L 109 93 L 102 90 L 98 90 L 97 91 L 91 92 L 85 97 L 82 102 L 82 104 L 81 105 L 81 113 L 79 115 L 75 115 L 74 116 L 70 117 L 65 122 L 61 130 L 61 136 L 62 137 L 62 140 L 64 143 L 64 145 L 59 150 L 56 156 L 56 166 L 59 173 L 61 175 L 62 178 L 65 181 L 65 182 L 76 193 L 77 193 L 87 202 L 91 204 L 96 209 L 99 221 L 108 240 L 110 242 L 111 245 L 113 247 L 115 251 L 121 258 L 121 259 L 138 275 L 138 282 L 140 286 L 146 292 L 147 292 L 152 296 L 161 300 L 163 302 L 163 307 L 164 309 L 168 313 L 177 317 L 184 318 L 187 322 L 187 325 L 192 329 L 198 330 L 199 331 L 202 331 L 209 339 L 215 342 L 226 345 L 228 347 L 228 350 L 226 354 L 224 356 L 219 367 L 220 377 L 213 386 L 211 393 L 210 394 L 210 396 L 214 401 L 214 403 L 208 414 L 208 416 L 206 420 L 206 430 L 210 434 L 210 438 L 209 439 L 208 447 L 207 448 L 207 458 L 208 459 L 208 461 L 211 465 L 211 474 L 212 475 L 212 478 L 216 486 L 221 491 L 221 496 L 219 499 L 216 510 L 213 515 L 212 521 L 211 522 L 212 526 L 214 528 L 214 531 L 211 536 L 211 545 L 214 548 L 214 553 L 212 556 L 211 564 L 210 565 L 210 569 L 211 570 L 211 572 L 216 577 L 216 588 L 217 589 L 217 593 L 218 594 L 218 598 L 219 599 L 220 609 L 221 610 L 221 613 L 222 614 L 222 620 L 220 622 L 217 622 L 213 624 L 210 624 L 202 629 L 196 634 L 191 643 L 191 645 L 189 649 L 189 662 L 192 668 L 198 674 L 202 676 L 204 676 L 208 678 L 211 678 L 212 679 L 215 679 L 216 680 L 228 681 L 229 682 L 243 682 L 244 683 L 264 683 L 265 682 L 281 682 L 282 681 L 290 681 L 291 680 L 303 679 L 304 678 L 308 678 L 309 677 L 320 675 L 326 672 L 333 665 L 335 661 L 335 658 L 336 657 L 336 638 L 338 636 L 341 629 L 341 607 L 345 603 L 346 599 L 347 598 L 347 588 L 348 587 L 348 583 L 349 582 L 349 576 L 351 574 L 368 574 L 371 578 L 376 598 L 378 601 L 378 603 L 382 607 L 382 611 L 383 612 L 383 622 L 384 623 L 385 631 L 389 639 L 392 642 L 391 648 L 390 649 L 390 654 L 389 655 L 389 668 L 393 677 L 400 683 L 412 688 L 415 688 L 416 689 L 419 689 L 420 690 L 425 690 L 426 691 L 433 691 L 434 692 L 452 692 L 453 693 L 456 693 L 457 692 L 481 692 L 482 691 L 497 690 L 501 688 L 505 688 L 509 686 L 512 686 L 519 682 L 524 677 L 525 674 L 527 672 L 527 668 L 528 667 L 528 658 L 527 657 L 527 653 L 523 645 L 520 642 L 520 641 L 510 633 L 510 630 L 511 629 L 511 626 L 512 625 L 512 619 L 513 618 L 513 605 L 514 604 L 514 588 L 513 587 L 513 583 L 519 576 L 518 568 L 517 567 L 516 562 L 513 557 L 513 554 L 517 549 L 517 544 L 516 543 L 516 540 L 512 532 L 512 530 L 515 526 L 515 520 L 514 519 L 513 513 L 515 511 L 517 511 L 518 512 L 524 513 L 525 514 L 528 514 L 529 513 L 535 513 L 538 515 L 550 515 L 551 514 L 557 513 L 564 509 L 566 509 L 576 503 L 584 495 L 584 494 L 588 489 L 590 485 L 592 477 L 593 476 L 594 468 L 595 467 L 595 460 L 596 459 L 596 452 L 595 451 L 595 441 L 597 438 L 597 432 L 596 431 L 596 427 L 594 423 L 594 420 L 591 414 L 591 409 L 593 406 L 592 398 L 584 384 L 586 380 L 586 376 L 583 370 L 581 368 L 580 365 L 574 358 L 575 355 L 577 353 L 577 347 L 571 340 L 571 339 L 557 326 L 557 323 L 559 321 L 559 318 L 557 314 L 548 305 L 547 305 L 539 298 L 540 290 L 535 285 L 531 283 L 527 279 L 527 274 L 521 268 L 520 268 L 512 262 L 512 260 L 513 259 L 513 256 L 512 254 L 505 248 L 492 242 L 488 238 L 488 233 L 481 226 L 480 224 L 480 220 L 485 212 L 486 207 L 492 200 L 494 196 L 495 185 L 499 181 L 502 175 L 502 169 L 501 168 L 501 164 L 499 161 L 499 159 L 504 153 L 504 148 L 503 147 L 502 142 L 497 135 L 497 133 L 501 129 L 501 123 L 500 122 L 500 120 L 495 115 L 494 115 L 489 111 L 489 105 L 486 99 L 484 97 L 482 92 L 480 90 L 478 85 L 472 77 L 472 75 L 477 70 L 477 69 L 481 64 L 484 57 L 484 54 L 485 53 L 485 41 L 484 40 L 484 36 L 477 22 L 466 12 Z M 452 13 L 458 16 L 464 21 L 465 21 L 472 29 L 475 34 L 475 36 L 476 37 L 476 41 L 477 42 L 477 52 L 476 53 L 476 55 L 473 62 L 471 64 L 471 65 L 462 73 L 462 75 L 470 86 L 476 98 L 483 107 L 483 108 L 480 111 L 479 111 L 479 112 L 481 114 L 487 117 L 494 123 L 494 126 L 492 128 L 483 128 L 482 129 L 493 141 L 497 148 L 497 150 L 494 153 L 490 152 L 489 151 L 487 152 L 494 166 L 494 170 L 495 171 L 495 173 L 492 176 L 486 173 L 486 176 L 487 177 L 487 194 L 485 196 L 483 196 L 481 194 L 480 195 L 478 207 L 474 215 L 472 217 L 470 221 L 465 226 L 465 227 L 466 228 L 471 228 L 473 230 L 472 234 L 473 235 L 477 236 L 479 238 L 479 239 L 477 241 L 476 241 L 477 243 L 481 245 L 483 245 L 492 250 L 494 250 L 500 253 L 502 255 L 502 256 L 500 258 L 494 258 L 494 259 L 496 261 L 498 261 L 500 263 L 503 264 L 505 266 L 518 274 L 521 277 L 521 279 L 519 281 L 513 281 L 513 282 L 529 290 L 532 293 L 532 295 L 530 297 L 525 297 L 525 298 L 530 301 L 533 304 L 537 306 L 544 312 L 545 312 L 551 318 L 551 319 L 549 321 L 543 321 L 542 320 L 541 320 L 541 321 L 565 344 L 566 344 L 568 346 L 569 349 L 567 351 L 565 350 L 562 350 L 561 349 L 559 349 L 559 350 L 578 375 L 578 376 L 576 378 L 574 378 L 573 377 L 571 378 L 576 385 L 577 388 L 581 393 L 585 401 L 585 402 L 583 404 L 580 403 L 580 405 L 583 411 L 584 418 L 585 419 L 585 421 L 588 428 L 588 431 L 589 432 L 589 435 L 587 437 L 585 437 L 585 440 L 586 441 L 586 448 L 587 449 L 587 458 L 586 459 L 586 466 L 585 467 L 584 475 L 579 487 L 577 489 L 575 493 L 571 497 L 570 497 L 568 499 L 567 499 L 565 497 L 565 495 L 567 491 L 567 484 L 565 484 L 564 485 L 563 491 L 559 499 L 553 505 L 551 506 L 548 506 L 547 507 L 542 507 L 538 504 L 543 494 L 543 486 L 542 485 L 540 487 L 540 489 L 537 495 L 530 503 L 526 505 L 523 505 L 516 502 L 510 496 L 510 492 L 512 490 L 515 484 L 515 482 L 517 478 L 517 471 L 515 470 L 513 472 L 512 476 L 509 482 L 504 486 L 501 486 L 497 484 L 492 479 L 490 475 L 490 472 L 489 471 L 489 458 L 490 457 L 490 454 L 491 453 L 492 448 L 495 442 L 495 438 L 493 434 L 492 424 L 491 423 L 491 419 L 490 418 L 490 415 L 489 414 L 487 403 L 486 402 L 486 400 L 484 396 L 484 393 L 482 390 L 481 385 L 479 382 L 479 380 L 476 375 L 476 373 L 472 365 L 470 363 L 469 360 L 467 358 L 466 355 L 464 353 L 462 349 L 458 345 L 457 346 L 457 349 L 459 352 L 459 354 L 462 358 L 462 360 L 464 362 L 466 366 L 466 368 L 474 384 L 474 386 L 475 387 L 475 389 L 478 396 L 478 399 L 479 400 L 479 403 L 480 404 L 480 407 L 481 408 L 481 411 L 482 412 L 482 415 L 483 416 L 484 425 L 485 426 L 485 429 L 486 430 L 486 434 L 487 435 L 487 443 L 483 452 L 483 455 L 482 456 L 482 462 L 481 463 L 482 475 L 488 487 L 495 493 L 497 494 L 500 494 L 503 497 L 503 501 L 504 502 L 504 507 L 505 508 L 505 512 L 506 513 L 507 522 L 506 523 L 502 523 L 501 524 L 508 539 L 508 541 L 509 542 L 509 546 L 508 547 L 506 547 L 502 544 L 500 544 L 500 546 L 502 548 L 504 552 L 504 554 L 507 559 L 507 561 L 509 564 L 511 571 L 509 573 L 506 572 L 504 570 L 503 571 L 507 579 L 507 581 L 504 584 L 504 586 L 505 587 L 505 592 L 506 593 L 506 602 L 505 603 L 505 615 L 504 616 L 504 622 L 503 623 L 503 626 L 502 627 L 502 631 L 499 635 L 499 637 L 501 639 L 503 639 L 507 641 L 516 650 L 518 654 L 518 657 L 519 658 L 519 668 L 518 669 L 518 671 L 512 678 L 508 680 L 506 680 L 504 678 L 505 671 L 504 670 L 504 666 L 503 665 L 503 663 L 499 659 L 497 659 L 496 661 L 497 662 L 497 666 L 498 667 L 498 679 L 493 683 L 480 684 L 478 682 L 478 668 L 477 667 L 476 663 L 473 661 L 472 661 L 470 663 L 470 666 L 471 667 L 471 676 L 472 677 L 472 681 L 469 685 L 448 685 L 446 683 L 446 668 L 445 667 L 445 664 L 444 663 L 441 663 L 439 666 L 439 677 L 440 678 L 440 683 L 438 685 L 435 685 L 434 684 L 426 684 L 425 683 L 420 683 L 419 682 L 416 682 L 415 681 L 410 680 L 404 677 L 399 672 L 397 668 L 397 654 L 398 653 L 398 649 L 399 648 L 399 633 L 398 632 L 396 634 L 394 634 L 392 631 L 392 615 L 388 612 L 388 597 L 385 598 L 383 596 L 383 592 L 382 591 L 382 588 L 381 587 L 381 583 L 376 573 L 379 570 L 381 570 L 384 567 L 384 566 L 382 564 L 379 564 L 378 565 L 372 565 L 371 566 L 356 567 L 355 566 L 349 566 L 348 565 L 336 564 L 335 563 L 332 563 L 331 562 L 328 562 L 327 561 L 324 561 L 323 560 L 321 560 L 320 559 L 316 559 L 315 558 L 312 558 L 311 560 L 316 564 L 320 566 L 331 569 L 332 570 L 339 571 L 341 573 L 340 582 L 338 586 L 338 598 L 336 600 L 335 600 L 333 598 L 332 599 L 332 607 L 333 608 L 333 628 L 331 632 L 326 631 L 326 635 L 327 636 L 327 643 L 328 644 L 328 652 L 327 653 L 327 658 L 324 664 L 317 669 L 314 669 L 313 670 L 311 670 L 310 671 L 306 671 L 305 672 L 293 673 L 292 674 L 283 674 L 282 675 L 276 675 L 275 676 L 241 676 L 238 672 L 239 660 L 240 659 L 241 655 L 239 653 L 238 653 L 235 656 L 233 660 L 233 663 L 232 664 L 232 669 L 233 670 L 233 673 L 231 675 L 229 674 L 222 674 L 221 673 L 218 673 L 214 670 L 214 659 L 215 658 L 215 655 L 217 651 L 216 649 L 214 649 L 209 655 L 209 658 L 208 659 L 208 666 L 209 668 L 207 670 L 205 670 L 199 665 L 198 663 L 198 660 L 197 659 L 197 654 L 198 653 L 199 646 L 202 640 L 208 634 L 213 631 L 215 631 L 219 629 L 223 629 L 224 628 L 232 628 L 235 626 L 232 621 L 232 619 L 231 618 L 231 614 L 229 610 L 228 599 L 226 596 L 226 587 L 222 584 L 225 570 L 220 571 L 218 569 L 218 565 L 219 564 L 220 557 L 222 553 L 223 547 L 225 544 L 224 542 L 222 543 L 219 543 L 218 542 L 218 538 L 225 524 L 224 523 L 220 524 L 218 522 L 218 521 L 225 508 L 226 502 L 227 501 L 229 501 L 231 503 L 232 503 L 232 498 L 227 488 L 227 485 L 226 484 L 226 479 L 225 477 L 224 477 L 222 479 L 221 479 L 219 477 L 219 461 L 220 460 L 220 454 L 219 454 L 216 457 L 214 455 L 215 442 L 216 441 L 217 435 L 218 434 L 218 432 L 221 425 L 220 424 L 215 427 L 212 424 L 212 423 L 213 422 L 213 419 L 220 405 L 227 395 L 226 394 L 224 394 L 223 395 L 219 395 L 217 393 L 217 392 L 220 387 L 224 383 L 224 382 L 228 378 L 228 377 L 233 371 L 232 370 L 227 371 L 225 369 L 225 367 L 236 351 L 236 346 L 239 339 L 239 336 L 242 330 L 243 323 L 242 322 L 240 322 L 238 324 L 234 332 L 233 336 L 230 339 L 216 335 L 212 332 L 215 329 L 215 327 L 210 327 L 209 326 L 204 326 L 203 325 L 200 325 L 199 324 L 195 323 L 193 321 L 193 320 L 198 316 L 195 314 L 187 313 L 186 312 L 183 312 L 182 311 L 174 309 L 169 304 L 172 301 L 175 301 L 177 299 L 176 298 L 172 297 L 171 296 L 168 296 L 165 294 L 163 294 L 153 289 L 146 283 L 146 280 L 148 278 L 151 278 L 152 279 L 153 277 L 147 272 L 143 270 L 139 266 L 138 266 L 122 248 L 111 229 L 111 227 L 107 219 L 105 211 L 103 208 L 103 205 L 98 200 L 94 198 L 84 189 L 83 189 L 71 177 L 64 166 L 64 158 L 69 153 L 71 152 L 74 152 L 77 150 L 74 144 L 70 139 L 70 137 L 69 136 L 69 131 L 70 130 L 70 128 L 76 122 L 84 122 L 91 126 L 97 132 L 98 132 L 98 130 L 94 125 L 89 113 L 89 105 L 90 103 L 97 97 L 102 97 L 108 100 L 115 107 L 122 120 L 123 119 L 123 116 L 122 115 L 121 101 L 122 100 L 122 98 L 128 92 L 134 92 L 140 97 L 143 103 L 145 105 L 145 107 L 147 110 L 147 112 L 150 119 L 151 119 L 156 114 L 156 113 L 163 108 L 169 109 L 174 114 L 177 120 L 177 123 L 178 124 L 178 135 L 177 136 L 177 141 L 176 142 L 176 145 L 173 151 L 173 154 L 183 166 L 187 173 L 196 184 L 198 188 L 200 190 L 202 190 L 202 188 L 204 186 L 205 186 L 211 193 L 217 206 L 221 211 L 222 211 L 222 206 L 225 203 L 226 203 L 231 208 L 238 222 L 240 221 L 240 218 L 241 217 L 244 217 L 250 224 L 251 227 L 253 229 L 255 233 L 256 232 L 256 230 L 258 228 L 260 228 L 268 237 L 273 246 L 275 246 L 276 245 L 276 241 L 267 227 L 263 223 L 259 222 L 256 219 L 255 216 L 253 214 L 251 216 L 250 216 L 245 211 L 244 207 L 243 206 L 243 203 L 242 202 L 242 193 L 240 194 L 237 194 L 234 191 L 234 183 L 235 182 L 235 179 L 236 178 L 236 174 L 237 172 L 236 171 L 232 173 L 229 170 L 230 164 L 235 155 L 236 151 L 235 150 L 234 151 L 229 152 L 227 150 L 227 146 L 239 132 L 238 130 L 238 122 L 241 117 L 243 110 L 247 103 L 246 101 L 244 101 L 238 98 L 230 90 L 227 85 L 227 83 L 225 79 L 225 70 L 226 69 L 226 64 L 231 54 L 242 44 L 248 41 L 254 40 L 255 39 L 262 39 L 263 40 L 269 41 L 271 43 L 274 44 L 281 51 L 281 52 L 283 54 L 284 54 L 287 51 L 288 51 L 291 48 L 294 47 L 296 45 L 300 43 L 305 42 L 307 40 L 307 39 L 311 36 L 316 36 L 317 35 L 328 35 L 329 34 L 329 32 L 326 28 L 326 25 L 328 23 L 332 23 L 333 24 L 335 24 L 347 30 L 353 23 L 360 19 L 362 19 L 364 21 L 364 25 L 362 28 L 362 30 L 367 30 L 368 29 L 383 29 L 384 30 L 388 30 L 389 31 L 394 31 L 395 32 L 398 32 L 405 35 L 409 35 L 410 30 L 413 25 L 424 15 L 428 14 L 431 12 L 435 12 L 436 11 L 445 11 L 446 12 Z" fill="#010101" fill-rule="evenodd"/></svg>