<svg xmlns="http://www.w3.org/2000/svg" viewBox="0 0 653 704" shape-rendering="geometricPrecision"><title>intro frame 046</title><path d="M 346 524 L 342 524 L 340 526 L 333 528 L 328 532 L 328 534 L 330 535 L 336 532 L 338 530 L 341 529 Z M 373 499 L 367 497 L 360 506 L 356 515 L 356 519 L 359 522 L 363 520 L 369 513 L 370 510 L 372 508 L 372 505 L 374 501 Z M 406 503 L 402 501 L 399 501 L 393 499 L 390 495 L 386 492 L 383 498 L 383 512 L 382 513 L 382 517 L 379 523 L 379 525 L 378 526 L 375 524 L 371 524 L 370 525 L 360 525 L 358 527 L 356 533 L 357 534 L 360 534 L 365 531 L 375 529 L 377 531 L 376 538 L 378 539 L 380 536 L 381 531 L 386 525 L 389 519 L 392 516 L 396 515 Z M 413 482 L 412 482 L 410 485 L 410 493 L 414 499 L 415 509 L 414 510 L 414 516 L 412 519 L 411 525 L 406 532 L 407 534 L 413 526 L 415 519 L 417 517 L 418 506 L 421 503 L 424 506 L 425 505 L 425 499 L 424 496 L 419 492 L 418 488 Z M 423 478 L 422 479 L 422 482 L 425 484 L 427 481 L 425 478 Z M 370 487 L 371 488 L 374 488 L 377 485 L 381 483 L 392 484 L 397 482 L 399 480 L 398 479 L 387 479 L 380 475 L 374 475 L 372 478 L 370 484 Z M 248 477 L 242 474 L 238 474 L 234 472 L 218 471 L 211 474 L 197 477 L 195 479 L 196 485 L 193 488 L 188 490 L 183 490 L 175 494 L 175 496 L 179 499 L 178 503 L 175 506 L 172 507 L 160 518 L 153 528 L 148 538 L 156 548 L 157 553 L 155 555 L 152 555 L 147 553 L 126 537 L 123 537 L 122 536 L 116 537 L 113 536 L 110 538 L 107 538 L 106 539 L 106 542 L 111 544 L 115 543 L 119 545 L 122 545 L 129 553 L 135 555 L 140 559 L 141 561 L 141 568 L 137 572 L 137 574 L 170 607 L 173 607 L 179 600 L 187 594 L 188 594 L 190 596 L 191 599 L 192 599 L 194 597 L 194 595 L 196 592 L 196 589 L 202 577 L 204 575 L 205 571 L 213 561 L 216 561 L 221 567 L 223 567 L 228 561 L 236 554 L 242 554 L 245 556 L 249 556 L 251 554 L 249 551 L 247 550 L 241 550 L 233 544 L 232 541 L 234 539 L 237 538 L 274 538 L 275 536 L 267 531 L 261 525 L 263 522 L 269 522 L 270 523 L 281 525 L 285 527 L 292 528 L 292 526 L 288 521 L 273 507 L 273 506 L 265 498 L 254 483 Z M 246 348 L 235 359 L 226 372 L 226 374 L 230 374 L 232 376 L 232 380 L 220 397 L 221 398 L 226 396 L 228 398 L 229 401 L 226 408 L 222 413 L 217 423 L 218 425 L 221 423 L 224 423 L 226 425 L 223 436 L 221 439 L 219 449 L 221 449 L 226 445 L 228 447 L 228 454 L 227 456 L 239 461 L 246 469 L 254 474 L 256 473 L 258 463 L 261 462 L 263 464 L 263 477 L 262 480 L 265 485 L 273 492 L 274 491 L 274 486 L 273 485 L 274 473 L 279 468 L 281 470 L 281 477 L 279 481 L 279 493 L 283 498 L 283 500 L 286 503 L 289 509 L 289 511 L 292 513 L 295 507 L 297 505 L 299 505 L 300 506 L 300 510 L 298 514 L 298 518 L 303 522 L 307 523 L 311 526 L 313 526 L 318 529 L 323 529 L 328 524 L 332 523 L 337 520 L 350 509 L 354 504 L 354 502 L 366 487 L 363 483 L 363 479 L 361 478 L 356 484 L 353 484 L 352 485 L 349 484 L 349 476 L 352 473 L 354 469 L 351 465 L 348 466 L 345 465 L 341 467 L 338 467 L 336 469 L 329 470 L 326 467 L 325 462 L 326 461 L 326 458 L 331 453 L 330 451 L 327 453 L 325 458 L 321 462 L 318 462 L 316 460 L 316 457 L 317 456 L 317 453 L 321 447 L 321 440 L 320 438 L 317 436 L 313 431 L 309 430 L 300 420 L 296 418 L 287 417 L 283 415 L 277 414 L 268 409 L 262 403 L 258 395 L 252 389 L 248 383 L 247 374 L 246 373 L 246 368 L 248 364 L 249 355 L 248 354 L 248 349 Z M 327 511 L 329 513 L 329 518 L 327 520 L 324 521 L 320 518 L 320 516 L 325 511 Z M 314 497 L 316 499 L 315 507 L 313 509 L 308 511 L 305 507 L 309 500 L 312 497 Z M 344 490 L 345 491 L 344 496 L 342 500 L 337 505 L 335 503 L 336 496 L 342 490 Z M 327 479 L 329 481 L 329 490 L 327 493 L 325 493 L 323 490 L 323 487 L 325 485 L 325 481 Z M 253 438 L 254 439 L 254 446 L 253 447 L 252 453 L 249 455 L 247 453 L 247 445 L 249 443 L 250 440 Z M 249 422 L 251 424 L 250 428 L 246 433 L 245 436 L 243 438 L 240 438 L 239 435 L 242 429 L 242 427 L 246 423 Z M 248 406 L 249 407 L 249 412 L 247 414 L 247 416 L 241 421 L 240 420 L 240 416 L 244 409 Z M 452 209 L 453 216 L 455 217 L 456 216 L 456 210 Z M 467 186 L 465 191 L 466 192 L 466 195 L 469 197 L 469 188 Z M 440 27 L 434 26 L 433 25 L 423 25 L 411 30 L 405 36 L 403 39 L 402 45 L 399 48 L 387 44 L 380 43 L 379 42 L 372 42 L 371 41 L 356 41 L 355 42 L 351 42 L 349 40 L 349 36 L 351 32 L 350 31 L 345 33 L 337 41 L 334 41 L 325 35 L 323 35 L 320 33 L 319 34 L 320 43 L 318 45 L 303 45 L 300 46 L 299 49 L 297 51 L 288 54 L 278 59 L 272 64 L 269 64 L 263 56 L 259 53 L 252 50 L 241 50 L 235 52 L 228 56 L 222 62 L 218 69 L 217 75 L 216 76 L 216 85 L 220 94 L 226 100 L 229 102 L 235 103 L 237 105 L 237 110 L 228 129 L 229 139 L 218 151 L 218 153 L 223 152 L 227 155 L 220 169 L 220 173 L 224 171 L 227 173 L 227 178 L 224 186 L 224 194 L 226 195 L 229 192 L 232 194 L 232 209 L 233 212 L 236 215 L 240 212 L 243 215 L 244 219 L 254 227 L 262 236 L 266 236 L 279 244 L 285 251 L 286 255 L 284 257 L 281 257 L 278 254 L 271 250 L 268 250 L 266 254 L 263 257 L 260 257 L 256 253 L 254 247 L 248 239 L 246 240 L 245 243 L 242 243 L 233 230 L 230 232 L 228 232 L 223 226 L 222 221 L 217 212 L 215 213 L 215 217 L 211 220 L 204 213 L 202 208 L 200 206 L 200 204 L 197 198 L 195 196 L 193 196 L 192 198 L 188 198 L 159 162 L 159 156 L 162 150 L 163 136 L 164 135 L 164 130 L 162 124 L 159 120 L 156 118 L 151 119 L 147 123 L 146 127 L 148 124 L 152 121 L 155 121 L 160 126 L 161 128 L 161 139 L 158 146 L 155 149 L 151 151 L 146 150 L 141 145 L 141 142 L 140 141 L 141 134 L 144 129 L 141 131 L 138 128 L 134 113 L 130 105 L 125 101 L 122 101 L 121 103 L 125 104 L 129 108 L 134 116 L 134 119 L 135 120 L 135 129 L 134 132 L 130 136 L 125 136 L 121 134 L 118 131 L 114 133 L 111 130 L 109 123 L 104 113 L 95 105 L 90 105 L 88 106 L 85 111 L 85 113 L 86 114 L 90 109 L 95 109 L 97 110 L 105 119 L 105 121 L 107 123 L 109 129 L 109 134 L 105 140 L 96 140 L 94 139 L 90 142 L 76 129 L 73 128 L 68 129 L 65 132 L 65 138 L 66 138 L 68 133 L 70 131 L 77 132 L 86 140 L 90 146 L 91 151 L 90 154 L 85 159 L 80 159 L 74 156 L 70 159 L 62 159 L 59 163 L 60 170 L 66 180 L 86 199 L 94 204 L 97 207 L 105 226 L 107 228 L 110 228 L 116 234 L 119 239 L 140 259 L 144 261 L 159 273 L 174 280 L 189 284 L 191 286 L 191 288 L 185 293 L 187 295 L 199 294 L 205 300 L 208 301 L 222 301 L 225 304 L 223 307 L 215 312 L 216 314 L 221 314 L 225 316 L 227 316 L 230 314 L 232 308 L 236 302 L 236 297 L 239 292 L 240 284 L 242 282 L 243 279 L 248 274 L 253 275 L 255 278 L 244 288 L 244 289 L 248 292 L 248 294 L 241 301 L 243 304 L 243 310 L 238 320 L 239 328 L 238 329 L 238 332 L 235 337 L 235 341 L 236 342 L 240 338 L 244 336 L 250 337 L 262 325 L 262 323 L 265 317 L 271 311 L 280 307 L 284 307 L 285 306 L 308 307 L 320 303 L 332 302 L 333 301 L 367 301 L 372 295 L 374 294 L 378 294 L 382 297 L 382 300 L 384 302 L 389 303 L 393 305 L 396 308 L 396 310 L 393 313 L 388 313 L 387 314 L 364 315 L 363 316 L 334 316 L 333 317 L 322 318 L 307 323 L 304 323 L 296 320 L 283 320 L 279 322 L 277 325 L 282 327 L 285 330 L 285 333 L 281 337 L 274 340 L 270 340 L 264 343 L 261 346 L 260 348 L 261 351 L 273 351 L 275 353 L 275 355 L 265 363 L 260 368 L 259 371 L 260 374 L 263 377 L 268 377 L 269 376 L 277 375 L 278 374 L 281 374 L 284 377 L 284 380 L 275 390 L 275 392 L 277 395 L 289 394 L 293 396 L 298 396 L 303 399 L 313 399 L 316 397 L 326 395 L 329 393 L 337 392 L 339 394 L 336 400 L 337 400 L 344 394 L 347 394 L 358 386 L 364 384 L 366 386 L 366 391 L 362 397 L 362 398 L 363 398 L 371 391 L 377 388 L 382 387 L 385 385 L 392 384 L 396 381 L 400 381 L 402 382 L 403 385 L 403 383 L 408 380 L 410 380 L 412 382 L 416 382 L 419 381 L 426 374 L 430 373 L 432 376 L 429 381 L 429 383 L 425 388 L 426 389 L 429 387 L 438 377 L 446 359 L 449 356 L 454 360 L 460 352 L 463 353 L 465 352 L 465 342 L 464 341 L 462 327 L 464 325 L 468 328 L 468 323 L 467 322 L 467 318 L 463 309 L 463 307 L 459 299 L 451 287 L 451 285 L 453 283 L 457 284 L 460 287 L 461 287 L 461 285 L 446 267 L 447 262 L 441 257 L 436 255 L 431 249 L 421 249 L 420 250 L 416 250 L 413 248 L 409 252 L 404 253 L 403 252 L 403 244 L 409 236 L 410 236 L 412 239 L 414 239 L 416 233 L 419 229 L 421 232 L 423 232 L 427 226 L 427 222 L 426 220 L 428 218 L 433 222 L 433 228 L 434 229 L 439 224 L 439 221 L 438 220 L 435 220 L 433 218 L 433 212 L 437 207 L 441 211 L 441 217 L 443 218 L 445 214 L 445 211 L 442 208 L 441 204 L 434 197 L 434 196 L 436 194 L 438 194 L 445 198 L 446 197 L 446 193 L 444 188 L 447 185 L 449 185 L 453 190 L 454 189 L 453 182 L 449 177 L 451 175 L 453 176 L 454 174 L 453 171 L 448 166 L 447 163 L 449 161 L 451 161 L 455 164 L 461 163 L 465 168 L 466 176 L 469 174 L 471 174 L 476 177 L 477 174 L 469 158 L 469 154 L 471 152 L 475 152 L 477 154 L 479 153 L 464 135 L 464 133 L 466 131 L 473 131 L 473 129 L 460 119 L 459 115 L 462 112 L 458 107 L 450 91 L 442 82 L 442 80 L 445 77 L 451 74 L 457 67 L 457 65 L 459 63 L 459 60 L 460 59 L 460 49 L 455 39 L 447 31 Z M 257 260 L 258 261 L 256 264 L 257 265 L 257 268 L 253 272 L 251 272 L 249 270 L 250 265 L 255 260 Z M 398 245 L 400 248 L 394 255 L 393 254 L 394 248 Z M 384 247 L 384 251 L 371 265 L 367 267 L 354 278 L 350 279 L 343 283 L 336 282 L 323 275 L 308 264 L 303 258 L 303 255 L 306 252 L 319 254 L 320 255 L 334 256 L 335 255 L 343 255 L 344 254 L 349 254 L 354 252 L 359 252 L 362 250 L 369 249 L 378 245 L 382 245 Z M 66 160 L 73 160 L 80 164 L 83 167 L 84 169 L 84 176 L 80 181 L 72 180 L 64 173 L 62 168 L 62 164 Z M 132 143 L 142 153 L 146 161 L 146 169 L 143 175 L 132 185 L 112 195 L 109 195 L 108 196 L 99 196 L 92 192 L 86 184 L 85 181 L 85 173 L 91 160 L 95 154 L 104 145 L 113 140 L 125 140 Z M 369 134 L 371 130 L 377 125 L 383 123 L 388 123 L 389 122 L 398 122 L 399 123 L 403 123 L 409 125 L 414 128 L 419 134 L 420 142 L 413 150 L 409 152 L 404 152 L 403 153 L 388 152 L 382 150 L 374 145 L 371 142 L 369 138 Z M 292 116 L 297 112 L 303 110 L 312 109 L 313 110 L 318 110 L 324 113 L 327 116 L 327 118 L 324 121 L 322 121 L 315 118 L 301 118 L 300 119 L 294 119 Z M 274 103 L 277 103 L 282 108 L 283 111 L 283 120 L 281 123 L 282 126 L 283 125 L 288 125 L 289 124 L 301 124 L 302 125 L 306 125 L 314 129 L 320 136 L 320 142 L 317 148 L 310 155 L 300 160 L 293 161 L 292 162 L 284 161 L 276 157 L 270 151 L 267 146 L 266 146 L 265 149 L 265 160 L 267 164 L 274 170 L 283 170 L 292 164 L 295 164 L 296 165 L 299 165 L 308 168 L 313 168 L 314 169 L 325 169 L 326 168 L 329 168 L 335 166 L 345 161 L 352 154 L 353 151 L 355 149 L 359 149 L 364 155 L 365 162 L 366 163 L 366 189 L 365 190 L 365 195 L 364 196 L 364 199 L 363 200 L 363 203 L 361 209 L 355 221 L 347 229 L 344 230 L 336 236 L 330 237 L 329 238 L 322 238 L 313 235 L 307 232 L 292 217 L 279 197 L 275 182 L 273 180 L 267 178 L 262 174 L 257 168 L 255 163 L 255 154 L 254 153 L 247 161 L 241 164 L 235 164 L 232 162 L 228 157 L 228 151 L 230 147 L 236 141 L 245 136 L 251 136 L 254 137 L 258 141 L 263 140 L 265 142 L 266 141 L 266 138 L 269 132 L 264 127 L 264 115 L 266 110 Z M 355 98 L 362 98 L 367 103 L 370 111 L 370 119 L 367 126 L 362 130 L 357 130 L 355 129 L 350 124 L 348 120 L 348 109 L 349 108 L 349 105 Z M 285 65 L 288 68 L 289 72 L 285 76 L 280 78 L 273 84 L 269 84 L 266 81 L 266 77 L 267 75 L 278 65 L 280 64 Z M 248 64 L 254 67 L 258 71 L 258 74 L 252 81 L 246 91 L 241 96 L 239 96 L 230 88 L 229 86 L 229 82 L 228 81 L 229 76 L 233 69 L 236 66 L 240 64 Z M 353 59 L 357 55 L 365 55 L 368 56 L 376 61 L 378 65 L 378 70 L 375 73 L 370 73 L 364 69 L 361 69 L 358 67 L 356 67 L 353 64 Z M 427 38 L 435 39 L 438 41 L 445 48 L 448 55 L 448 61 L 446 65 L 437 73 L 434 73 L 431 71 L 422 62 L 417 59 L 413 55 L 413 51 L 415 48 L 423 40 Z" fill="#FBFBFB" fill-rule="evenodd"/><path d="M 208 626 L 198 631 L 186 643 L 181 645 L 186 643 L 194 637 L 200 631 Z M 510 624 L 519 624 L 532 639 L 539 643 L 535 641 L 526 632 L 520 624 L 518 623 Z M 93 559 L 94 570 L 95 573 L 97 575 L 99 575 L 103 571 L 111 568 L 120 569 L 124 571 L 128 571 L 128 569 L 126 567 L 124 561 L 118 565 L 112 565 L 108 560 L 106 562 L 105 566 L 103 568 L 101 568 L 95 562 L 94 559 Z M 100 541 L 100 545 L 106 550 L 113 545 L 118 545 L 115 544 L 113 545 L 107 544 L 105 542 L 105 539 L 107 537 L 110 537 L 113 535 L 116 536 L 122 535 L 123 536 L 126 536 L 147 552 L 152 554 L 155 554 L 156 553 L 154 547 L 155 548 L 155 552 L 153 554 L 149 553 L 133 542 L 128 537 L 122 535 L 112 535 L 111 536 L 108 536 L 105 537 Z M 327 512 L 325 512 L 321 516 L 322 519 L 325 520 L 328 518 L 328 513 Z M 314 498 L 312 498 L 308 503 L 306 507 L 308 510 L 314 507 L 315 504 L 315 499 Z M 508 493 L 514 499 L 516 503 L 526 513 L 533 517 L 542 517 L 543 516 L 548 516 L 549 515 L 554 515 L 555 516 L 561 517 L 559 516 L 555 516 L 554 515 L 542 516 L 541 517 L 534 517 L 528 514 L 522 508 L 521 508 Z M 344 491 L 342 491 L 337 496 L 336 499 L 336 503 L 337 504 L 341 500 Z M 182 490 L 180 490 L 172 495 L 172 496 L 175 497 L 178 501 L 173 506 L 168 509 L 159 518 L 149 533 L 147 539 L 153 545 L 151 542 L 147 539 L 149 533 L 159 518 L 166 511 L 177 503 L 178 499 L 174 496 L 174 494 L 178 491 Z M 327 480 L 326 481 L 326 485 L 324 487 L 325 492 L 327 492 L 328 490 L 328 481 Z M 199 476 L 193 477 L 191 479 L 194 483 L 194 485 L 191 488 L 184 489 L 188 489 L 193 487 L 195 485 L 194 479 L 197 476 Z M 253 439 L 251 440 L 250 443 L 248 445 L 248 453 L 249 454 L 251 453 L 252 450 Z M 249 423 L 246 424 L 243 427 L 240 437 L 243 437 L 245 433 L 250 426 Z M 248 407 L 247 407 L 243 412 L 241 416 L 241 420 L 246 416 L 246 414 L 248 412 Z M 278 375 L 281 375 L 283 377 L 283 379 L 273 390 L 273 394 L 276 397 L 278 397 L 281 399 L 294 400 L 295 401 L 311 400 L 303 400 L 298 397 L 293 397 L 289 395 L 277 396 L 275 394 L 274 390 L 283 380 L 283 377 L 281 375 Z M 583 600 L 582 599 L 581 580 L 579 575 L 579 571 L 578 570 L 578 566 L 577 565 L 577 561 L 576 560 L 575 553 L 571 543 L 566 535 L 563 532 L 551 528 L 543 529 L 539 531 L 531 531 L 530 530 L 526 530 L 522 527 L 517 527 L 511 524 L 509 524 L 506 521 L 506 513 L 498 500 L 496 501 L 493 506 L 484 515 L 480 515 L 477 511 L 478 505 L 485 494 L 487 488 L 490 483 L 490 481 L 492 479 L 492 476 L 495 469 L 495 451 L 498 448 L 500 450 L 502 449 L 501 447 L 500 436 L 499 435 L 499 432 L 496 423 L 498 420 L 501 420 L 501 417 L 497 409 L 495 407 L 495 405 L 492 402 L 487 393 L 487 391 L 489 389 L 492 389 L 493 390 L 495 389 L 480 369 L 480 366 L 484 363 L 480 357 L 479 357 L 478 359 L 477 366 L 475 369 L 475 371 L 468 384 L 454 399 L 447 402 L 442 402 L 440 401 L 425 408 L 421 408 L 420 409 L 408 409 L 407 410 L 392 410 L 391 411 L 386 411 L 385 412 L 380 412 L 379 413 L 374 413 L 373 414 L 366 414 L 365 415 L 347 415 L 346 416 L 341 416 L 340 417 L 330 417 L 321 414 L 305 415 L 304 416 L 285 415 L 284 414 L 281 414 L 275 412 L 270 409 L 277 413 L 283 414 L 287 416 L 296 417 L 300 419 L 309 429 L 313 430 L 316 434 L 321 438 L 322 440 L 322 447 L 318 453 L 318 456 L 317 457 L 317 460 L 318 461 L 321 461 L 324 458 L 326 453 L 330 450 L 332 453 L 327 458 L 327 461 L 326 462 L 327 467 L 329 469 L 336 468 L 338 466 L 341 466 L 345 464 L 347 465 L 351 464 L 355 469 L 353 473 L 350 476 L 350 484 L 356 483 L 361 477 L 364 479 L 364 483 L 367 487 L 355 502 L 355 504 L 351 509 L 341 518 L 334 523 L 328 525 L 323 530 L 318 530 L 313 527 L 311 527 L 307 524 L 303 523 L 297 518 L 297 514 L 299 510 L 299 506 L 296 507 L 294 512 L 292 514 L 288 511 L 288 509 L 285 503 L 282 500 L 282 498 L 278 493 L 278 481 L 280 477 L 280 470 L 279 469 L 275 473 L 275 477 L 274 478 L 275 491 L 273 493 L 264 485 L 261 480 L 262 477 L 262 464 L 261 463 L 259 463 L 257 473 L 254 475 L 246 470 L 239 462 L 231 458 L 228 458 L 226 456 L 227 454 L 227 447 L 226 446 L 221 450 L 219 450 L 218 447 L 223 432 L 219 442 L 218 452 L 219 453 L 225 448 L 226 451 L 224 454 L 224 457 L 225 458 L 232 459 L 238 462 L 245 470 L 245 472 L 244 473 L 239 473 L 238 472 L 230 471 L 229 470 L 218 470 L 217 471 L 210 472 L 204 475 L 201 475 L 211 473 L 218 470 L 228 470 L 229 471 L 234 471 L 238 473 L 242 473 L 248 476 L 255 483 L 266 498 L 274 506 L 274 507 L 289 521 L 293 526 L 293 528 L 292 529 L 289 529 L 288 528 L 285 528 L 281 526 L 278 526 L 269 523 L 263 523 L 262 525 L 267 530 L 276 536 L 274 539 L 237 539 L 234 540 L 233 543 L 241 549 L 247 549 L 249 550 L 252 554 L 249 557 L 245 557 L 242 555 L 236 555 L 233 557 L 223 568 L 221 568 L 216 562 L 213 562 L 206 571 L 205 575 L 203 577 L 197 589 L 197 592 L 195 595 L 195 597 L 192 600 L 191 600 L 189 596 L 187 595 L 179 601 L 173 608 L 170 608 L 136 574 L 136 572 L 140 568 L 140 561 L 139 559 L 135 556 L 129 554 L 122 546 L 120 546 L 125 550 L 125 553 L 127 555 L 132 555 L 136 557 L 140 561 L 140 567 L 136 570 L 134 573 L 145 586 L 157 596 L 156 598 L 151 597 L 153 601 L 162 610 L 163 614 L 166 617 L 166 621 L 170 630 L 175 630 L 186 620 L 191 614 L 194 608 L 194 605 L 197 602 L 200 604 L 200 609 L 201 611 L 203 612 L 206 609 L 210 601 L 217 594 L 222 593 L 228 588 L 229 586 L 234 585 L 244 577 L 246 578 L 246 580 L 249 579 L 252 574 L 257 569 L 261 568 L 262 571 L 266 571 L 268 569 L 276 566 L 280 566 L 286 564 L 293 564 L 303 560 L 305 558 L 302 556 L 299 552 L 299 548 L 302 545 L 311 547 L 319 551 L 334 556 L 347 558 L 348 559 L 358 559 L 359 560 L 383 560 L 384 559 L 392 559 L 393 558 L 398 558 L 399 557 L 406 556 L 409 559 L 409 564 L 406 567 L 404 567 L 401 569 L 402 572 L 415 585 L 436 602 L 441 604 L 443 606 L 451 607 L 462 617 L 465 618 L 466 617 L 465 612 L 468 609 L 474 610 L 483 614 L 504 613 L 505 612 L 512 612 L 513 611 L 527 609 L 534 605 L 538 601 L 540 601 L 544 606 L 544 610 L 540 615 L 534 618 L 533 620 L 534 623 L 540 629 L 545 632 L 551 634 L 560 634 L 560 629 L 558 626 L 558 621 L 560 619 L 564 620 L 567 623 L 568 628 L 576 627 L 578 625 L 578 623 L 576 622 L 570 615 L 570 611 L 572 609 L 579 609 L 582 606 Z M 214 571 L 216 573 L 215 574 L 215 578 L 214 579 L 211 579 L 210 576 Z M 235 558 L 237 560 L 235 564 L 227 572 L 225 572 L 224 569 L 229 563 Z M 238 541 L 239 540 L 259 540 L 260 541 L 266 541 L 267 542 L 271 542 L 275 547 L 274 548 L 269 548 L 266 550 L 256 550 L 252 548 L 249 548 L 246 546 L 243 546 L 239 544 Z M 267 527 L 269 525 L 276 526 L 279 528 L 284 529 L 286 531 L 288 531 L 290 533 L 290 535 L 288 537 L 283 537 Z M 347 524 L 341 530 L 338 531 L 336 533 L 330 536 L 327 534 L 327 532 L 333 527 L 340 525 L 342 523 L 346 523 Z M 422 516 L 423 517 L 423 523 L 420 525 L 419 524 L 420 517 Z M 437 500 L 439 503 L 439 505 L 437 507 L 435 506 L 435 501 Z M 369 496 L 375 500 L 373 505 L 373 508 L 367 517 L 363 521 L 359 523 L 355 519 L 356 512 L 363 500 L 367 496 Z M 407 503 L 396 516 L 392 517 L 390 519 L 389 522 L 382 531 L 381 536 L 378 540 L 375 538 L 375 535 L 376 534 L 376 531 L 375 530 L 373 531 L 368 531 L 360 535 L 357 535 L 355 533 L 357 527 L 360 524 L 370 524 L 371 523 L 375 523 L 378 525 L 378 523 L 381 517 L 381 513 L 382 512 L 382 498 L 384 493 L 386 491 L 387 491 L 393 498 L 405 501 Z M 430 489 L 432 492 L 429 494 L 428 491 Z M 450 486 L 452 491 L 450 496 L 450 501 L 448 504 L 447 508 L 445 510 L 442 519 L 438 525 L 436 526 L 435 525 L 436 524 L 436 519 L 438 517 L 442 508 L 442 503 L 443 502 L 444 495 L 447 491 L 447 488 Z M 413 481 L 419 488 L 420 492 L 425 496 L 426 499 L 426 505 L 424 507 L 421 504 L 419 506 L 418 517 L 416 519 L 414 526 L 407 535 L 405 532 L 410 525 L 411 519 L 413 516 L 413 510 L 414 509 L 413 499 L 409 493 L 409 485 L 410 483 Z M 253 479 L 255 478 L 269 492 L 278 499 L 285 506 L 288 513 L 292 517 L 294 517 L 298 522 L 305 526 L 308 530 L 307 531 L 304 531 L 301 529 L 298 529 L 295 525 L 282 514 L 269 500 L 255 483 Z M 423 477 L 425 477 L 428 481 L 425 485 L 421 482 L 421 479 Z M 369 487 L 369 484 L 371 478 L 374 474 L 380 474 L 387 478 L 398 478 L 400 480 L 397 483 L 392 485 L 381 484 L 377 486 L 374 489 L 371 489 Z M 478 360 L 480 359 L 482 362 L 480 363 Z M 466 343 L 466 352 L 464 354 L 460 353 L 458 355 L 458 357 L 454 361 L 449 357 L 447 359 L 439 377 L 436 381 L 426 390 L 424 388 L 428 383 L 428 381 L 431 376 L 430 374 L 426 375 L 419 382 L 416 383 L 412 383 L 410 381 L 408 381 L 404 383 L 403 386 L 402 383 L 400 382 L 396 382 L 392 385 L 385 386 L 382 388 L 377 389 L 371 392 L 363 399 L 362 399 L 361 397 L 365 391 L 365 386 L 364 385 L 358 387 L 347 395 L 344 395 L 337 401 L 335 400 L 336 397 L 338 395 L 337 393 L 329 394 L 326 396 L 323 396 L 314 399 L 321 398 L 331 394 L 335 394 L 336 396 L 333 400 L 333 402 L 336 402 L 344 396 L 349 394 L 361 386 L 363 386 L 365 388 L 364 392 L 361 396 L 360 399 L 361 400 L 365 399 L 374 391 L 383 388 L 391 387 L 392 389 L 388 394 L 388 395 L 390 395 L 399 390 L 401 390 L 405 387 L 410 387 L 420 382 L 426 377 L 428 380 L 424 387 L 419 392 L 422 393 L 428 390 L 436 383 L 440 377 L 448 360 L 451 361 L 451 372 L 452 373 L 452 377 L 453 378 L 456 375 L 460 368 L 460 366 L 462 364 L 462 362 L 466 353 Z M 394 390 L 396 387 L 399 388 L 397 391 Z M 454 370 L 456 371 L 456 374 L 455 375 L 453 374 L 453 371 Z M 262 326 L 250 338 L 244 337 L 240 339 L 236 343 L 234 341 L 234 338 L 234 342 L 235 343 L 234 358 L 232 363 L 225 372 L 225 376 L 229 375 L 231 377 L 231 379 L 227 386 L 219 396 L 220 399 L 222 398 L 226 398 L 227 399 L 226 397 L 221 399 L 219 397 L 231 380 L 231 376 L 230 375 L 226 375 L 225 372 L 234 359 L 246 347 L 249 349 L 249 354 L 249 347 L 248 346 L 249 340 Z M 244 339 L 246 342 L 243 348 L 240 351 L 238 349 L 238 346 L 239 343 Z M 468 319 L 469 328 L 467 329 L 464 326 L 463 327 L 463 330 L 465 328 L 469 331 L 469 323 L 468 322 Z M 257 261 L 255 261 L 251 265 L 250 268 L 251 271 L 253 271 L 256 268 L 256 265 L 255 264 Z M 442 257 L 448 262 L 447 267 L 462 285 L 461 288 L 455 284 L 453 284 L 452 287 L 460 299 L 466 312 L 467 317 L 464 307 L 460 299 L 456 294 L 453 287 L 456 285 L 463 290 L 464 288 L 458 279 L 448 268 L 448 267 L 452 264 L 449 261 Z M 398 246 L 395 248 L 394 254 L 399 248 Z M 383 247 L 382 246 L 378 246 L 369 250 L 362 251 L 359 253 L 354 253 L 353 254 L 344 255 L 343 256 L 335 256 L 334 257 L 327 257 L 326 256 L 320 256 L 319 255 L 306 253 L 304 255 L 304 258 L 308 263 L 323 274 L 336 281 L 343 282 L 350 278 L 354 277 L 367 266 L 371 264 L 383 251 Z M 381 248 L 381 251 L 367 265 L 360 269 L 357 272 L 354 273 L 351 276 L 346 278 L 343 281 L 337 280 L 329 276 L 313 266 L 305 259 L 305 256 L 307 254 L 317 256 L 318 257 L 329 257 L 332 258 L 333 257 L 343 257 L 344 256 L 349 256 L 350 255 L 359 254 L 364 252 L 369 252 L 379 247 Z M 223 187 L 223 195 L 226 196 L 229 194 L 231 196 L 231 209 L 233 214 L 235 216 L 237 216 L 240 214 L 242 216 L 244 221 L 249 224 L 257 232 L 264 242 L 266 246 L 266 252 L 261 256 L 256 251 L 255 248 L 257 253 L 260 256 L 263 256 L 268 249 L 271 249 L 278 253 L 281 256 L 284 256 L 285 255 L 284 251 L 279 245 L 266 237 L 262 237 L 254 228 L 243 219 L 243 217 L 240 213 L 236 216 L 232 212 L 231 209 L 231 194 L 229 193 L 225 196 L 223 194 Z M 272 245 L 275 244 L 283 252 L 281 254 L 278 252 L 272 246 Z M 59 167 L 59 170 L 67 183 L 84 199 L 92 204 L 97 209 L 99 216 L 103 224 L 103 226 L 117 249 L 137 269 L 148 276 L 152 280 L 152 282 L 150 284 L 145 284 L 145 286 L 157 294 L 159 294 L 162 296 L 164 296 L 166 298 L 172 300 L 174 302 L 174 305 L 171 306 L 169 308 L 171 310 L 180 314 L 195 318 L 198 321 L 198 323 L 196 325 L 197 327 L 213 330 L 216 333 L 215 336 L 221 338 L 227 320 L 230 316 L 234 307 L 239 303 L 242 304 L 240 301 L 247 294 L 247 292 L 245 291 L 243 288 L 249 283 L 254 277 L 248 275 L 244 279 L 243 282 L 241 284 L 240 292 L 237 297 L 237 302 L 233 308 L 231 314 L 227 317 L 221 315 L 216 315 L 214 312 L 217 309 L 223 306 L 224 304 L 222 302 L 208 302 L 205 301 L 199 295 L 187 296 L 184 293 L 190 288 L 189 285 L 174 281 L 159 274 L 144 262 L 140 260 L 118 239 L 115 234 L 110 229 L 107 229 L 104 226 L 96 207 L 86 200 L 65 180 L 59 170 Z M 208 306 L 209 304 L 220 304 L 221 305 L 218 308 L 211 310 Z M 193 298 L 194 297 L 197 297 L 198 299 L 197 300 L 194 300 Z M 245 292 L 246 295 L 242 299 L 239 300 L 238 299 L 238 296 L 242 292 Z M 174 284 L 176 283 L 181 285 L 186 285 L 188 288 L 186 290 L 182 290 L 180 288 L 175 286 Z M 245 282 L 245 280 L 248 277 L 250 277 L 252 279 L 246 283 Z M 158 277 L 160 276 L 165 278 L 167 280 L 166 281 L 163 281 L 160 280 Z M 265 161 L 267 166 L 274 171 L 283 171 L 292 166 L 299 166 L 308 169 L 313 169 L 308 169 L 307 168 L 292 165 L 283 171 L 274 171 L 266 164 Z M 66 161 L 63 164 L 63 168 L 65 173 L 72 179 L 80 180 L 83 176 L 83 169 L 82 167 L 73 161 Z M 67 161 L 75 162 L 82 168 L 83 170 L 83 175 L 80 179 L 74 179 L 70 177 L 66 173 L 63 166 Z M 160 160 L 160 162 L 176 181 L 188 197 L 192 197 L 193 195 L 195 195 L 198 199 L 194 193 L 191 197 L 189 197 L 185 193 L 173 177 L 168 172 L 165 167 L 160 162 Z M 359 150 L 355 150 L 353 154 L 345 162 L 335 167 L 329 169 L 326 169 L 329 169 L 335 167 L 345 162 L 351 157 L 353 153 L 356 150 L 358 150 L 362 154 L 364 158 L 364 163 L 365 164 L 365 188 L 364 189 L 364 195 L 361 203 L 361 206 L 355 219 L 347 227 L 343 229 L 340 232 L 331 236 L 320 236 L 309 232 L 294 218 L 283 202 L 293 217 L 307 231 L 318 236 L 329 237 L 330 236 L 336 235 L 338 233 L 341 232 L 344 229 L 347 228 L 354 221 L 360 209 L 362 203 L 362 200 L 363 199 L 363 196 L 364 195 L 364 190 L 365 189 L 365 163 L 364 162 L 363 155 Z M 132 144 L 125 141 L 113 141 L 104 146 L 96 154 L 92 160 L 86 173 L 86 181 L 87 184 L 92 191 L 99 195 L 108 195 L 109 194 L 112 194 L 132 184 L 142 175 L 145 169 L 145 161 L 141 153 Z M 131 144 L 141 154 L 144 159 L 145 167 L 142 174 L 131 184 L 116 192 L 110 194 L 106 194 L 105 195 L 98 194 L 94 192 L 90 188 L 86 181 L 86 173 L 91 162 L 100 150 L 106 145 L 115 141 L 124 141 Z M 77 133 L 70 132 L 66 139 L 64 138 L 64 133 L 64 139 L 66 143 L 67 143 L 67 138 L 71 133 L 77 134 L 88 145 L 89 147 L 89 153 L 84 158 L 82 158 L 71 152 L 72 155 L 69 158 L 62 158 L 59 162 L 62 158 L 70 158 L 73 155 L 80 158 L 85 158 L 89 154 L 90 151 L 89 146 L 85 140 Z M 319 136 L 314 130 L 306 126 L 302 126 L 301 125 L 289 125 L 301 125 L 302 126 L 308 127 L 314 130 L 319 136 L 319 142 L 316 148 L 308 155 L 296 160 L 284 160 L 276 156 L 271 151 L 267 145 L 267 138 L 267 141 L 265 143 L 263 141 L 258 142 L 254 138 L 251 137 L 245 137 L 236 142 L 231 147 L 229 151 L 229 157 L 231 160 L 235 163 L 241 163 L 247 160 L 254 152 L 256 154 L 256 163 L 256 147 L 257 145 L 262 141 L 265 144 L 265 148 L 265 146 L 267 145 L 271 151 L 279 158 L 284 160 L 288 160 L 289 161 L 297 160 L 310 154 L 316 148 L 319 142 Z M 256 141 L 256 145 L 251 150 L 250 153 L 244 148 L 241 150 L 241 151 L 243 150 L 249 155 L 247 158 L 245 158 L 243 161 L 235 162 L 230 157 L 229 153 L 234 145 L 241 140 L 246 138 L 252 138 Z M 370 134 L 370 138 L 374 144 L 382 149 L 388 151 L 395 151 L 396 152 L 409 151 L 413 149 L 419 142 L 418 134 L 414 129 L 409 126 L 403 124 L 399 124 L 398 123 L 389 123 L 388 124 L 383 124 L 377 126 L 372 130 Z M 370 135 L 377 127 L 381 125 L 384 125 L 385 124 L 400 124 L 401 125 L 408 126 L 410 128 L 413 129 L 417 133 L 419 137 L 419 140 L 418 143 L 413 148 L 409 150 L 405 150 L 404 151 L 392 151 L 391 150 L 384 149 L 378 146 L 370 138 Z M 232 118 L 227 129 L 228 139 L 216 152 L 217 155 L 222 153 L 225 155 L 225 158 L 219 169 L 219 172 L 218 173 L 219 175 L 223 173 L 226 175 L 225 181 L 226 173 L 224 172 L 220 174 L 219 173 L 219 169 L 226 155 L 223 153 L 218 154 L 217 151 L 228 139 L 227 129 Z M 293 116 L 294 118 L 300 118 L 301 117 L 315 117 L 322 120 L 324 120 L 326 118 L 326 116 L 324 114 L 318 111 L 313 111 L 312 110 L 303 111 L 297 113 Z M 108 134 L 108 129 L 106 123 L 104 121 L 104 119 L 102 116 L 95 110 L 90 110 L 86 115 L 85 114 L 85 119 L 86 119 L 88 114 L 92 110 L 96 111 L 101 116 L 107 127 L 107 135 L 103 139 L 97 139 L 93 136 L 92 139 L 90 141 L 81 131 L 74 127 L 70 127 L 65 131 L 70 127 L 76 128 L 90 141 L 94 138 L 96 139 L 105 139 Z M 131 106 L 135 113 L 139 128 L 141 130 L 144 128 L 145 129 L 142 134 L 142 138 L 141 139 L 142 145 L 148 150 L 151 150 L 155 148 L 157 146 L 160 139 L 160 128 L 155 122 L 152 122 L 149 124 L 146 128 L 145 125 L 151 118 L 154 117 L 158 118 L 162 123 L 158 118 L 153 117 L 151 118 L 146 123 L 144 127 L 141 129 L 138 126 L 138 123 L 137 122 L 137 119 L 135 113 Z M 155 123 L 158 126 L 160 130 L 159 141 L 152 149 L 147 149 L 142 144 L 142 135 L 145 130 L 152 123 Z M 98 106 L 107 116 L 111 128 L 114 132 L 118 130 L 121 133 L 125 135 L 130 135 L 133 132 L 134 129 L 134 120 L 133 119 L 133 116 L 128 108 L 125 105 L 120 103 L 122 100 L 125 100 L 126 101 L 125 100 L 120 101 L 118 103 L 117 108 L 118 109 L 121 106 L 124 106 L 130 112 L 133 118 L 133 122 L 134 123 L 133 131 L 130 134 L 124 134 L 121 132 L 118 128 L 116 128 L 114 131 L 110 125 L 107 116 L 103 110 Z M 455 99 L 459 107 L 463 112 L 460 115 L 461 119 L 470 125 L 474 129 L 473 132 L 466 132 L 465 135 L 480 153 L 478 155 L 475 153 L 471 153 L 470 154 L 470 158 L 475 167 L 478 176 L 476 178 L 471 175 L 469 175 L 466 177 L 464 172 L 464 168 L 461 164 L 455 165 L 451 162 L 448 163 L 449 166 L 454 171 L 455 174 L 453 177 L 451 176 L 450 177 L 454 182 L 455 189 L 453 191 L 449 186 L 447 186 L 445 188 L 447 193 L 447 197 L 445 199 L 438 195 L 435 196 L 435 197 L 442 204 L 443 208 L 446 211 L 446 214 L 444 218 L 442 219 L 440 217 L 440 211 L 437 208 L 434 212 L 434 218 L 435 219 L 438 219 L 440 221 L 440 224 L 434 230 L 432 228 L 432 222 L 428 219 L 427 220 L 428 222 L 428 226 L 423 233 L 421 233 L 419 230 L 414 240 L 412 240 L 410 237 L 407 239 L 404 244 L 404 252 L 409 251 L 413 247 L 416 249 L 420 249 L 421 248 L 431 248 L 436 254 L 440 256 L 435 252 L 438 249 L 437 248 L 434 248 L 430 246 L 426 246 L 422 248 L 418 248 L 416 246 L 421 242 L 430 232 L 432 234 L 431 236 L 431 239 L 438 236 L 442 231 L 449 228 L 456 220 L 461 209 L 462 198 L 464 196 L 468 199 L 470 198 L 469 177 L 470 176 L 473 176 L 475 178 L 478 178 L 477 171 L 472 162 L 470 155 L 473 153 L 479 156 L 480 153 L 475 145 L 465 135 L 467 132 L 476 132 L 477 131 L 471 125 L 465 122 L 461 118 L 461 116 L 464 112 L 460 108 Z M 452 208 L 454 208 L 457 210 L 457 216 L 455 218 L 452 216 L 451 213 L 451 209 Z M 450 204 L 452 206 L 449 209 L 447 207 Z M 467 185 L 470 188 L 470 197 L 469 198 L 465 195 L 465 192 L 464 191 L 465 190 L 465 187 Z M 287 68 L 283 65 L 278 66 L 268 75 L 267 77 L 267 81 L 269 83 L 273 83 L 277 79 L 285 75 L 288 72 Z M 287 68 L 288 71 L 285 75 L 281 76 L 272 83 L 269 83 L 267 81 L 267 77 L 268 75 L 277 67 L 279 66 L 285 66 Z M 251 66 L 248 65 L 240 65 L 234 69 L 230 76 L 230 79 L 229 80 L 230 82 L 230 86 L 231 88 L 239 95 L 241 95 L 245 91 L 251 81 L 257 74 L 257 71 Z M 250 67 L 252 68 L 256 73 L 251 78 L 244 90 L 241 93 L 239 93 L 238 91 L 232 86 L 231 84 L 231 77 L 233 76 L 235 80 L 241 82 L 246 75 L 246 72 L 241 71 L 237 75 L 235 75 L 234 72 L 238 68 L 240 68 L 242 66 Z M 459 64 L 456 70 L 451 75 L 448 76 L 443 80 L 443 82 L 451 91 L 454 97 L 449 88 L 445 84 L 444 80 L 454 73 L 457 69 Z M 354 59 L 354 60 L 354 59 L 358 56 L 365 56 L 372 59 L 377 65 L 377 69 L 374 72 L 371 72 L 367 69 L 356 66 L 354 64 L 354 63 L 356 66 L 358 66 L 361 68 L 364 68 L 370 72 L 375 72 L 377 70 L 377 65 L 375 61 L 365 56 L 357 56 Z M 427 39 L 423 41 L 416 48 L 414 51 L 414 55 L 422 61 L 431 70 L 434 72 L 437 72 L 445 65 L 447 61 L 447 55 L 444 48 L 438 42 L 435 40 Z M 426 41 L 433 41 L 437 43 L 444 50 L 446 54 L 446 60 L 444 64 L 436 71 L 433 70 L 424 61 L 415 54 L 415 51 L 417 48 L 422 43 Z M 319 39 L 319 42 L 317 44 L 301 44 L 298 46 L 298 48 L 295 51 L 285 54 L 277 58 L 271 63 L 269 63 L 263 55 L 255 50 L 252 49 L 241 49 L 235 51 L 223 59 L 217 69 L 216 75 L 217 69 L 221 62 L 228 55 L 235 51 L 241 49 L 252 49 L 259 52 L 263 55 L 269 63 L 272 63 L 278 58 L 288 53 L 297 50 L 298 47 L 300 45 L 303 44 L 318 44 L 319 43 Z M 422 25 L 419 25 L 411 29 L 404 36 L 402 39 L 401 45 L 399 47 L 387 43 L 384 43 L 379 41 L 374 41 L 373 40 L 356 40 L 355 41 L 352 41 L 350 39 L 350 36 L 352 33 L 351 30 L 345 32 L 337 40 L 335 40 L 329 36 L 320 32 L 318 32 L 317 35 L 318 37 L 318 34 L 320 32 L 323 34 L 325 34 L 334 40 L 337 40 L 345 32 L 350 30 L 352 32 L 350 36 L 350 40 L 351 41 L 355 41 L 356 40 L 371 40 L 372 41 L 379 41 L 380 42 L 387 43 L 399 47 L 401 45 L 402 39 L 411 29 L 419 25 Z" fill="#D8D8D8" fill-rule="evenodd"/><path d="M 214 572 L 211 576 L 211 578 L 214 578 L 214 574 L 215 573 Z M 235 559 L 230 563 L 225 569 L 225 571 L 227 571 L 234 564 L 236 561 Z M 239 541 L 239 543 L 243 545 L 246 545 L 249 547 L 252 547 L 256 549 L 266 549 L 269 547 L 274 547 L 271 543 L 267 543 L 266 542 L 260 542 L 259 541 Z M 268 527 L 283 536 L 288 536 L 289 535 L 289 533 L 286 532 L 284 530 L 272 526 L 269 526 Z M 80 553 L 82 547 L 88 537 L 93 532 L 100 528 L 106 526 L 110 526 L 111 525 L 123 525 L 124 526 L 127 526 L 137 532 L 142 523 L 146 519 L 148 515 L 159 504 L 161 501 L 161 498 L 160 502 L 150 512 L 140 527 L 136 531 L 130 527 L 124 526 L 123 525 L 110 525 L 109 526 L 102 527 L 93 532 L 87 538 L 81 549 L 81 552 L 80 553 L 80 563 L 81 564 L 82 571 L 85 577 L 85 579 L 91 591 L 104 609 L 116 621 L 127 630 L 148 643 L 157 646 L 160 646 L 161 647 L 173 647 L 186 642 L 198 630 L 207 625 L 209 625 L 217 616 L 222 608 L 234 604 L 240 598 L 249 594 L 259 584 L 271 582 L 282 576 L 294 576 L 295 575 L 298 575 L 308 570 L 310 570 L 321 564 L 327 565 L 335 568 L 351 570 L 352 571 L 362 571 L 363 572 L 381 572 L 382 571 L 387 571 L 393 579 L 411 597 L 425 608 L 433 612 L 435 614 L 453 622 L 455 624 L 457 624 L 462 627 L 468 629 L 473 629 L 480 623 L 485 623 L 486 624 L 509 624 L 514 622 L 518 622 L 520 623 L 527 632 L 538 642 L 553 647 L 565 647 L 566 646 L 569 646 L 578 641 L 587 632 L 590 626 L 585 634 L 577 641 L 571 645 L 563 646 L 562 647 L 550 646 L 537 641 L 526 630 L 520 622 L 512 622 L 506 624 L 487 624 L 486 623 L 482 623 L 480 622 L 473 629 L 469 629 L 460 626 L 449 620 L 447 620 L 435 614 L 430 610 L 424 607 L 407 593 L 395 581 L 388 571 L 355 571 L 354 570 L 341 569 L 340 568 L 336 568 L 335 567 L 320 564 L 300 574 L 294 575 L 293 576 L 282 576 L 272 581 L 266 583 L 261 583 L 257 585 L 249 594 L 243 597 L 241 597 L 234 603 L 228 606 L 224 606 L 222 607 L 219 610 L 218 614 L 209 624 L 205 626 L 199 627 L 184 643 L 172 647 L 162 647 L 161 646 L 158 646 L 152 644 L 129 631 L 120 624 L 102 606 L 90 589 L 86 581 L 80 563 Z M 450 487 L 448 488 L 448 491 L 445 495 L 444 502 L 443 503 L 443 508 L 439 517 L 437 519 L 437 524 L 436 525 L 437 525 L 441 519 L 444 510 L 446 508 L 447 504 L 449 501 L 449 496 L 451 492 Z M 254 479 L 263 492 L 282 513 L 291 520 L 298 528 L 301 528 L 304 530 L 307 530 L 305 527 L 298 523 L 294 518 L 292 518 L 287 513 L 284 506 L 270 493 L 269 493 L 255 479 Z M 244 340 L 240 343 L 239 346 L 239 349 L 240 350 L 245 342 Z M 211 309 L 218 307 L 220 305 L 209 305 Z M 478 300 L 477 302 L 477 308 L 480 316 L 481 331 L 483 337 L 490 350 L 490 352 L 496 362 L 499 377 L 506 388 L 506 391 L 507 392 L 506 405 L 513 419 L 513 425 L 514 426 L 514 441 L 513 442 L 513 449 L 512 450 L 511 457 L 506 468 L 505 476 L 502 483 L 503 488 L 508 495 L 527 516 L 534 519 L 542 519 L 546 517 L 556 517 L 557 518 L 560 518 L 568 521 L 577 530 L 585 548 L 585 551 L 586 552 L 586 555 L 587 556 L 587 559 L 588 560 L 588 563 L 591 572 L 591 576 L 593 582 L 593 587 L 594 588 L 595 606 L 594 607 L 593 619 L 591 624 L 593 619 L 594 607 L 595 606 L 594 586 L 593 585 L 592 576 L 589 567 L 589 563 L 588 562 L 586 551 L 583 542 L 581 539 L 581 537 L 577 529 L 570 522 L 562 518 L 559 518 L 554 516 L 549 516 L 548 517 L 543 517 L 542 518 L 533 518 L 529 516 L 515 503 L 513 499 L 507 493 L 503 487 L 503 481 L 505 477 L 506 469 L 511 458 L 512 452 L 513 451 L 513 446 L 514 445 L 514 423 L 513 422 L 512 415 L 506 404 L 507 401 L 507 391 L 506 388 L 498 374 L 496 362 L 482 334 L 480 315 L 477 307 Z M 245 293 L 242 293 L 239 296 L 239 299 L 242 298 L 245 295 Z M 175 284 L 175 285 L 180 287 L 182 289 L 186 289 L 187 288 L 186 286 L 181 286 Z M 251 279 L 248 278 L 246 280 L 246 282 Z M 380 248 L 369 253 L 364 253 L 359 255 L 355 255 L 349 257 L 344 257 L 343 258 L 333 258 L 330 259 L 329 258 L 318 258 L 317 257 L 307 255 L 306 256 L 306 259 L 313 265 L 329 275 L 337 279 L 343 280 L 346 277 L 351 275 L 354 272 L 357 271 L 360 268 L 367 264 L 380 251 Z M 273 245 L 278 251 L 281 253 L 282 252 L 275 245 Z M 67 162 L 64 166 L 67 173 L 70 176 L 74 178 L 80 178 L 82 175 L 82 170 L 81 168 L 75 163 Z M 258 145 L 257 147 L 257 164 L 259 168 L 266 175 L 271 178 L 275 179 L 277 181 L 279 192 L 283 199 L 283 201 L 295 218 L 306 229 L 311 232 L 320 235 L 331 235 L 340 231 L 343 228 L 347 226 L 354 219 L 360 206 L 360 203 L 363 195 L 363 189 L 364 188 L 364 164 L 363 163 L 363 158 L 361 154 L 358 151 L 356 151 L 352 157 L 345 163 L 342 164 L 340 166 L 338 166 L 329 170 L 316 171 L 315 170 L 308 170 L 299 167 L 292 167 L 283 172 L 274 172 L 269 169 L 266 166 L 263 159 L 264 144 L 261 142 Z M 258 146 L 261 143 L 264 145 L 264 148 L 263 149 L 263 160 L 264 163 L 269 170 L 275 173 L 282 173 L 293 167 L 297 167 L 298 168 L 302 168 L 303 169 L 312 170 L 313 171 L 326 171 L 327 170 L 330 170 L 339 167 L 348 162 L 352 157 L 358 152 L 361 155 L 363 161 L 363 167 L 364 168 L 364 184 L 363 185 L 363 191 L 362 192 L 361 201 L 358 210 L 354 218 L 350 222 L 348 221 L 355 204 L 355 198 L 354 196 L 346 189 L 340 187 L 334 187 L 323 191 L 312 199 L 307 205 L 305 209 L 305 215 L 306 218 L 315 230 L 313 232 L 307 229 L 294 216 L 286 205 L 280 193 L 278 187 L 278 181 L 276 178 L 273 178 L 264 173 L 258 166 L 257 163 L 257 149 Z M 131 145 L 124 142 L 115 142 L 106 146 L 101 150 L 92 162 L 87 173 L 87 181 L 91 188 L 94 191 L 102 194 L 110 193 L 116 191 L 131 183 L 141 174 L 144 167 L 143 159 L 140 154 Z M 252 139 L 246 139 L 238 143 L 233 147 L 230 153 L 231 157 L 235 161 L 243 160 L 244 158 L 247 157 L 248 155 L 243 151 L 241 152 L 240 150 L 244 147 L 250 152 L 250 150 L 255 145 L 255 141 Z M 248 144 L 251 145 L 251 147 L 249 150 L 247 148 L 247 145 Z M 371 135 L 371 138 L 378 145 L 384 148 L 391 149 L 392 150 L 404 150 L 405 149 L 409 149 L 413 147 L 417 143 L 418 140 L 418 137 L 416 133 L 413 130 L 410 129 L 408 127 L 405 127 L 400 125 L 385 125 L 384 126 L 381 126 L 377 128 Z M 155 124 L 152 124 L 146 130 L 143 135 L 143 144 L 147 148 L 152 148 L 158 141 L 159 130 Z M 272 106 L 268 110 L 265 119 L 266 127 L 269 130 L 272 130 L 273 131 L 268 137 L 268 145 L 272 151 L 276 155 L 284 159 L 296 159 L 302 157 L 311 152 L 315 148 L 318 142 L 318 136 L 317 134 L 314 131 L 301 126 L 288 126 L 287 127 L 278 128 L 277 127 L 281 121 L 282 113 L 280 108 L 276 105 Z M 268 138 L 272 133 L 279 129 L 285 127 L 289 127 L 290 126 L 299 126 L 300 127 L 307 128 L 314 132 L 318 137 L 318 141 L 315 147 L 309 153 L 297 158 L 286 159 L 280 157 L 271 149 L 268 144 Z M 277 106 L 281 110 L 281 120 L 279 124 L 275 128 L 273 129 L 268 129 L 266 127 L 266 124 L 265 123 L 267 113 L 273 106 Z M 358 99 L 355 100 L 351 105 L 349 115 L 350 116 L 351 123 L 357 128 L 362 128 L 365 126 L 368 120 L 368 110 L 365 103 L 362 100 Z M 356 100 L 361 100 L 365 104 L 368 111 L 368 119 L 367 122 L 363 127 L 360 128 L 354 126 L 350 120 L 350 109 L 352 104 Z M 285 67 L 279 67 L 274 70 L 269 75 L 268 77 L 268 81 L 269 82 L 272 82 L 281 75 L 285 74 L 287 71 Z M 286 70 L 283 74 L 277 77 L 273 81 L 270 82 L 268 80 L 269 76 L 275 70 L 281 67 L 283 67 Z M 252 69 L 246 67 L 242 67 L 240 69 L 238 69 L 235 72 L 235 74 L 237 74 L 241 70 L 247 72 L 247 75 L 241 83 L 235 81 L 233 77 L 232 77 L 232 84 L 233 86 L 239 91 L 239 92 L 241 92 L 243 90 L 250 78 L 255 73 Z M 238 86 L 240 84 L 242 87 L 239 88 Z M 354 61 L 356 65 L 367 68 L 371 71 L 374 71 L 376 69 L 376 65 L 375 63 L 372 60 L 365 57 L 358 57 L 356 58 Z M 355 61 L 358 58 L 363 57 L 371 60 L 375 64 L 376 68 L 374 70 L 371 70 L 366 67 L 358 65 Z M 426 42 L 422 44 L 416 51 L 416 54 L 424 60 L 433 69 L 436 70 L 443 64 L 445 60 L 445 54 L 443 50 L 437 44 L 433 42 Z M 441 25 L 435 24 L 434 23 L 422 23 L 413 26 L 403 35 L 401 38 L 400 43 L 398 45 L 389 42 L 382 41 L 381 40 L 377 40 L 376 39 L 367 39 L 366 38 L 353 39 L 351 37 L 353 33 L 353 30 L 352 29 L 348 29 L 344 31 L 337 38 L 334 38 L 322 31 L 317 31 L 316 32 L 316 36 L 318 39 L 318 41 L 316 43 L 308 43 L 307 42 L 298 43 L 296 46 L 296 48 L 294 50 L 286 52 L 276 57 L 271 61 L 270 61 L 266 56 L 260 51 L 248 47 L 236 49 L 227 54 L 220 61 L 215 71 L 214 85 L 218 95 L 226 103 L 230 105 L 233 105 L 235 107 L 235 109 L 226 128 L 226 135 L 227 138 L 215 151 L 215 156 L 222 155 L 224 157 L 218 168 L 217 175 L 219 177 L 223 175 L 225 177 L 222 186 L 222 196 L 224 198 L 228 197 L 230 199 L 230 209 L 232 215 L 235 218 L 240 217 L 242 219 L 243 222 L 248 225 L 256 233 L 265 247 L 265 251 L 262 254 L 257 250 L 254 243 L 246 233 L 242 239 L 237 231 L 232 226 L 228 228 L 225 225 L 220 212 L 216 208 L 214 209 L 214 213 L 211 217 L 207 213 L 197 194 L 193 191 L 192 193 L 189 195 L 169 170 L 163 164 L 161 161 L 161 157 L 163 154 L 164 148 L 165 147 L 166 130 L 163 122 L 157 116 L 153 116 L 149 118 L 146 121 L 144 125 L 141 127 L 139 125 L 137 115 L 132 105 L 127 100 L 125 99 L 121 99 L 119 100 L 116 104 L 116 107 L 115 108 L 115 126 L 113 127 L 106 112 L 99 105 L 94 103 L 90 103 L 85 107 L 83 112 L 84 122 L 89 132 L 89 135 L 88 136 L 82 130 L 75 126 L 69 126 L 67 127 L 63 132 L 63 140 L 65 143 L 65 145 L 70 152 L 70 154 L 68 156 L 63 156 L 58 160 L 57 167 L 61 177 L 64 180 L 66 184 L 76 194 L 96 210 L 98 217 L 102 225 L 102 227 L 115 249 L 133 268 L 145 276 L 149 280 L 148 283 L 143 283 L 142 284 L 144 288 L 155 295 L 157 295 L 161 298 L 170 301 L 172 303 L 166 307 L 169 311 L 178 315 L 180 315 L 183 317 L 192 319 L 195 322 L 193 325 L 195 328 L 197 329 L 201 329 L 202 330 L 208 330 L 211 331 L 213 333 L 212 336 L 214 338 L 220 340 L 223 339 L 226 328 L 229 323 L 230 318 L 234 310 L 239 305 L 241 307 L 241 310 L 236 320 L 237 328 L 233 337 L 233 344 L 234 346 L 232 351 L 232 359 L 231 362 L 224 371 L 223 374 L 224 377 L 228 377 L 230 379 L 228 381 L 227 384 L 220 392 L 217 398 L 219 401 L 221 400 L 225 400 L 226 403 L 219 414 L 215 423 L 215 427 L 216 428 L 218 428 L 221 426 L 223 428 L 217 445 L 217 454 L 225 460 L 229 460 L 236 463 L 241 469 L 239 471 L 231 470 L 230 469 L 216 469 L 215 470 L 210 470 L 202 474 L 194 475 L 189 477 L 188 479 L 192 485 L 190 487 L 179 489 L 170 495 L 170 497 L 172 499 L 174 499 L 175 502 L 156 520 L 151 529 L 145 537 L 145 539 L 154 549 L 152 552 L 150 552 L 145 549 L 141 545 L 137 543 L 127 535 L 124 535 L 123 534 L 110 534 L 104 536 L 95 544 L 95 546 L 92 550 L 92 553 L 91 554 L 92 568 L 95 575 L 98 578 L 100 578 L 104 573 L 108 571 L 118 571 L 119 572 L 122 572 L 126 574 L 147 596 L 149 600 L 161 616 L 166 627 L 166 636 L 167 637 L 170 637 L 176 634 L 184 626 L 197 610 L 201 614 L 203 614 L 215 598 L 218 596 L 221 597 L 224 595 L 226 595 L 230 590 L 236 585 L 246 583 L 257 571 L 260 571 L 262 573 L 265 573 L 269 570 L 275 568 L 278 568 L 283 566 L 295 565 L 306 561 L 308 558 L 301 552 L 301 549 L 303 547 L 305 548 L 309 548 L 322 554 L 328 556 L 331 556 L 335 558 L 345 559 L 346 560 L 352 560 L 353 561 L 374 562 L 375 561 L 390 561 L 396 559 L 406 558 L 408 560 L 408 563 L 406 565 L 399 568 L 400 572 L 415 587 L 436 604 L 441 606 L 443 608 L 449 608 L 453 610 L 460 617 L 466 620 L 468 619 L 466 613 L 468 611 L 473 611 L 481 615 L 494 615 L 495 614 L 508 614 L 509 613 L 521 612 L 522 611 L 526 611 L 533 607 L 539 606 L 541 609 L 536 614 L 529 617 L 528 619 L 535 627 L 548 635 L 562 637 L 564 636 L 568 631 L 573 629 L 576 629 L 580 626 L 580 623 L 574 618 L 573 616 L 573 612 L 574 611 L 581 612 L 584 606 L 584 595 L 583 594 L 583 587 L 582 586 L 582 578 L 580 573 L 580 568 L 577 559 L 576 551 L 573 546 L 572 542 L 568 536 L 562 530 L 554 527 L 545 527 L 541 529 L 528 529 L 522 525 L 516 525 L 513 523 L 511 523 L 509 521 L 509 518 L 510 517 L 509 514 L 498 498 L 495 499 L 494 502 L 486 511 L 483 513 L 481 513 L 479 511 L 479 507 L 485 498 L 490 488 L 490 486 L 492 483 L 496 471 L 496 468 L 497 467 L 497 453 L 498 452 L 501 453 L 503 452 L 503 444 L 502 443 L 501 434 L 499 430 L 498 424 L 500 422 L 503 422 L 504 421 L 500 411 L 490 395 L 492 392 L 497 393 L 498 391 L 494 384 L 483 371 L 482 368 L 485 366 L 486 364 L 480 355 L 478 355 L 477 357 L 476 364 L 470 378 L 463 388 L 454 397 L 447 400 L 438 400 L 425 406 L 407 407 L 406 408 L 394 408 L 388 410 L 382 410 L 381 411 L 376 411 L 375 412 L 370 412 L 369 413 L 362 413 L 361 414 L 347 413 L 341 415 L 327 415 L 320 412 L 309 413 L 308 414 L 291 414 L 290 413 L 282 413 L 279 411 L 276 411 L 268 407 L 264 403 L 260 394 L 251 385 L 249 380 L 248 370 L 249 369 L 249 364 L 250 363 L 250 341 L 254 335 L 263 327 L 267 317 L 271 313 L 277 310 L 283 309 L 284 308 L 308 309 L 319 305 L 328 304 L 323 304 L 322 305 L 315 306 L 307 309 L 283 308 L 282 309 L 276 310 L 272 312 L 266 318 L 263 326 L 250 340 L 249 343 L 249 346 L 250 347 L 250 363 L 248 368 L 248 376 L 252 387 L 260 395 L 263 402 L 269 408 L 275 411 L 281 413 L 284 413 L 285 414 L 293 414 L 294 415 L 304 415 L 305 414 L 321 413 L 330 416 L 340 416 L 341 415 L 346 415 L 347 414 L 365 414 L 366 413 L 373 413 L 374 412 L 379 412 L 380 411 L 385 411 L 386 410 L 391 410 L 392 409 L 407 409 L 408 408 L 420 408 L 421 407 L 425 407 L 440 400 L 442 401 L 447 401 L 454 398 L 467 384 L 474 371 L 474 369 L 476 366 L 477 359 L 478 357 L 480 356 L 483 359 L 485 363 L 481 366 L 481 369 L 496 389 L 494 391 L 489 390 L 488 393 L 493 402 L 496 405 L 496 407 L 498 409 L 502 417 L 502 420 L 501 421 L 498 421 L 497 423 L 498 424 L 498 428 L 501 436 L 502 447 L 503 449 L 501 451 L 498 449 L 496 451 L 496 469 L 493 476 L 493 479 L 491 481 L 488 490 L 479 505 L 478 511 L 480 514 L 484 514 L 492 506 L 495 501 L 498 499 L 507 513 L 507 521 L 509 523 L 511 523 L 517 526 L 522 526 L 526 529 L 530 529 L 531 530 L 539 530 L 548 527 L 556 528 L 563 531 L 567 535 L 575 550 L 577 560 L 578 561 L 580 575 L 582 580 L 583 599 L 584 600 L 583 606 L 579 610 L 572 610 L 571 611 L 571 615 L 573 618 L 579 623 L 579 625 L 576 628 L 568 629 L 566 623 L 564 621 L 560 620 L 559 621 L 559 626 L 561 629 L 561 634 L 560 635 L 551 635 L 543 632 L 540 630 L 532 621 L 533 618 L 535 616 L 540 614 L 543 610 L 543 606 L 540 602 L 538 602 L 534 606 L 527 610 L 518 611 L 512 613 L 505 613 L 504 614 L 483 615 L 474 611 L 468 610 L 466 612 L 467 617 L 465 619 L 462 618 L 451 608 L 443 607 L 441 605 L 436 603 L 415 586 L 401 572 L 400 569 L 408 564 L 408 559 L 406 557 L 403 557 L 398 559 L 393 559 L 392 560 L 384 560 L 383 561 L 359 561 L 358 560 L 348 560 L 347 559 L 334 557 L 319 552 L 311 548 L 302 546 L 300 548 L 300 552 L 301 554 L 306 558 L 303 561 L 293 565 L 286 565 L 285 566 L 276 567 L 270 569 L 266 572 L 262 572 L 261 569 L 257 570 L 249 580 L 246 581 L 245 578 L 244 578 L 234 586 L 229 587 L 229 588 L 222 594 L 217 595 L 211 601 L 207 609 L 203 613 L 200 611 L 199 609 L 199 604 L 197 603 L 195 605 L 195 608 L 192 614 L 187 620 L 175 631 L 170 631 L 168 629 L 167 624 L 165 621 L 165 617 L 162 614 L 161 610 L 152 601 L 150 597 L 151 596 L 156 597 L 156 596 L 146 588 L 133 573 L 133 572 L 139 567 L 139 561 L 136 558 L 132 556 L 127 556 L 124 553 L 124 550 L 119 546 L 113 546 L 108 550 L 105 551 L 99 545 L 99 541 L 105 536 L 111 535 L 112 534 L 122 534 L 128 536 L 133 541 L 137 543 L 147 551 L 153 553 L 154 552 L 154 548 L 146 539 L 146 537 L 158 518 L 168 508 L 173 505 L 177 501 L 175 498 L 173 498 L 171 496 L 174 492 L 180 489 L 191 487 L 193 485 L 193 483 L 190 479 L 193 476 L 204 474 L 210 471 L 213 471 L 218 469 L 229 469 L 230 470 L 234 470 L 239 472 L 244 472 L 244 470 L 238 463 L 229 459 L 225 459 L 223 457 L 223 454 L 225 451 L 225 449 L 219 454 L 217 452 L 218 442 L 220 436 L 223 431 L 224 425 L 221 425 L 219 427 L 216 427 L 215 426 L 216 421 L 220 413 L 224 408 L 227 401 L 226 399 L 222 399 L 220 400 L 218 398 L 218 396 L 226 386 L 230 379 L 229 376 L 226 377 L 224 376 L 224 372 L 231 363 L 233 358 L 233 350 L 234 349 L 233 338 L 237 329 L 236 321 L 240 313 L 242 305 L 239 304 L 235 307 L 231 316 L 228 320 L 228 322 L 226 325 L 226 328 L 223 333 L 223 337 L 221 339 L 216 338 L 214 336 L 215 333 L 213 331 L 197 328 L 195 326 L 197 323 L 197 321 L 195 319 L 189 318 L 171 311 L 168 308 L 171 305 L 173 305 L 173 302 L 172 301 L 166 299 L 164 297 L 157 295 L 155 293 L 147 289 L 144 286 L 144 284 L 145 283 L 150 283 L 151 280 L 148 277 L 137 270 L 116 249 L 105 232 L 98 216 L 96 209 L 76 193 L 66 183 L 61 176 L 58 170 L 58 161 L 62 157 L 69 157 L 71 155 L 70 153 L 71 151 L 82 157 L 84 157 L 88 153 L 88 147 L 87 145 L 77 135 L 71 134 L 68 138 L 68 143 L 66 144 L 63 139 L 63 133 L 64 131 L 68 127 L 70 126 L 74 126 L 81 130 L 90 140 L 91 137 L 93 135 L 97 138 L 103 138 L 106 135 L 106 127 L 102 119 L 96 112 L 92 111 L 89 114 L 86 120 L 84 119 L 84 109 L 88 104 L 91 103 L 94 103 L 98 105 L 104 110 L 108 116 L 108 118 L 114 130 L 116 127 L 118 127 L 119 129 L 124 133 L 130 133 L 132 131 L 133 123 L 132 122 L 132 118 L 129 112 L 124 107 L 121 107 L 118 110 L 116 108 L 117 103 L 122 99 L 125 99 L 128 101 L 133 107 L 138 119 L 139 126 L 141 128 L 143 127 L 145 123 L 151 117 L 153 116 L 158 117 L 163 123 L 166 132 L 164 150 L 160 158 L 161 162 L 166 167 L 169 172 L 189 196 L 191 196 L 194 192 L 197 195 L 207 214 L 211 218 L 213 217 L 214 211 L 216 209 L 220 213 L 227 229 L 229 230 L 232 227 L 237 232 L 243 241 L 245 240 L 245 236 L 247 235 L 253 242 L 257 251 L 262 255 L 265 252 L 265 246 L 263 242 L 256 232 L 249 225 L 243 221 L 240 215 L 237 217 L 235 217 L 232 214 L 230 209 L 230 196 L 228 195 L 226 197 L 224 197 L 222 195 L 222 187 L 223 186 L 225 175 L 223 174 L 219 176 L 217 174 L 218 169 L 224 158 L 224 155 L 222 154 L 217 156 L 215 154 L 215 152 L 227 139 L 226 129 L 235 110 L 235 106 L 227 103 L 222 99 L 218 94 L 215 88 L 215 85 L 214 84 L 215 72 L 219 63 L 222 59 L 228 54 L 235 50 L 241 48 L 252 48 L 259 51 L 267 58 L 269 62 L 271 62 L 277 57 L 290 51 L 295 50 L 297 48 L 297 46 L 301 43 L 317 43 L 318 42 L 318 38 L 316 35 L 316 33 L 318 31 L 323 32 L 331 37 L 337 39 L 345 31 L 351 29 L 353 31 L 353 33 L 351 36 L 351 39 L 352 40 L 355 40 L 356 39 L 373 39 L 374 40 L 379 40 L 380 41 L 387 42 L 399 46 L 400 45 L 401 39 L 403 36 L 411 28 L 419 24 L 432 23 L 433 24 L 440 25 L 446 28 L 454 35 L 459 42 L 462 50 L 462 58 L 458 69 L 452 76 L 446 79 L 445 82 L 452 91 L 459 105 L 465 112 L 462 116 L 462 118 L 465 121 L 471 124 L 478 131 L 476 133 L 467 133 L 466 135 L 476 145 L 481 153 L 481 155 L 479 157 L 473 154 L 471 155 L 473 162 L 478 171 L 479 178 L 478 179 L 475 179 L 473 177 L 470 177 L 471 198 L 469 200 L 465 197 L 463 198 L 462 209 L 457 220 L 449 229 L 442 232 L 438 237 L 432 240 L 430 239 L 430 236 L 431 235 L 430 233 L 427 237 L 417 246 L 418 247 L 422 247 L 426 245 L 430 245 L 434 247 L 437 247 L 439 249 L 436 252 L 441 256 L 449 260 L 453 264 L 450 266 L 449 268 L 459 279 L 465 288 L 463 291 L 456 286 L 454 287 L 457 294 L 461 299 L 465 307 L 465 309 L 468 315 L 469 322 L 470 323 L 470 331 L 468 332 L 465 329 L 464 330 L 466 336 L 466 342 L 467 343 L 467 353 L 460 370 L 458 372 L 457 375 L 453 379 L 451 377 L 451 373 L 450 372 L 450 361 L 448 361 L 447 365 L 437 383 L 428 391 L 422 394 L 420 394 L 418 392 L 425 384 L 427 380 L 426 378 L 420 383 L 410 388 L 405 388 L 401 391 L 399 391 L 390 396 L 388 396 L 387 394 L 390 391 L 391 388 L 379 390 L 371 394 L 363 401 L 361 401 L 359 399 L 364 389 L 363 387 L 357 389 L 336 403 L 333 403 L 332 402 L 332 400 L 334 398 L 335 395 L 331 395 L 321 399 L 317 399 L 311 401 L 295 402 L 294 401 L 281 400 L 278 398 L 276 398 L 272 394 L 272 390 L 281 381 L 282 377 L 281 376 L 277 376 L 269 379 L 263 379 L 258 374 L 258 367 L 273 355 L 272 353 L 260 353 L 258 351 L 258 348 L 264 341 L 268 339 L 271 339 L 274 337 L 277 337 L 283 333 L 283 331 L 280 328 L 277 328 L 275 326 L 276 323 L 279 320 L 284 318 L 294 318 L 295 319 L 309 321 L 319 317 L 328 316 L 329 315 L 338 315 L 339 314 L 366 314 L 367 313 L 380 313 L 381 312 L 389 312 L 392 311 L 393 308 L 390 305 L 382 304 L 380 302 L 380 298 L 378 296 L 374 296 L 368 303 L 330 303 L 369 303 L 375 296 L 377 296 L 380 299 L 380 303 L 381 304 L 388 305 L 392 308 L 391 311 L 380 312 L 379 313 L 367 313 L 366 314 L 338 314 L 337 315 L 329 315 L 328 316 L 323 316 L 322 317 L 315 318 L 308 321 L 305 321 L 300 319 L 295 319 L 294 318 L 283 318 L 278 320 L 275 324 L 275 327 L 280 329 L 282 331 L 282 333 L 276 337 L 264 341 L 261 343 L 258 347 L 258 351 L 260 353 L 263 354 L 270 353 L 271 355 L 265 361 L 258 366 L 257 368 L 257 373 L 262 379 L 265 380 L 268 380 L 275 377 L 279 377 L 281 379 L 272 389 L 271 394 L 272 396 L 276 399 L 282 401 L 286 401 L 287 402 L 306 402 L 307 401 L 314 401 L 318 399 L 323 399 L 330 396 L 332 398 L 330 402 L 331 403 L 337 403 L 357 390 L 361 389 L 362 392 L 358 400 L 359 402 L 361 402 L 369 398 L 371 398 L 376 394 L 380 393 L 383 391 L 386 391 L 387 392 L 385 398 L 390 397 L 396 393 L 398 393 L 406 389 L 412 388 L 421 383 L 423 385 L 415 394 L 416 395 L 420 395 L 426 393 L 428 391 L 431 390 L 437 384 L 445 371 L 448 368 L 450 369 L 451 379 L 453 380 L 459 373 L 467 355 L 466 335 L 467 334 L 470 334 L 470 322 L 469 321 L 469 318 L 466 309 L 456 290 L 458 288 L 465 293 L 467 292 L 462 282 L 451 269 L 451 267 L 452 266 L 455 266 L 455 264 L 453 262 L 442 256 L 439 253 L 439 252 L 442 250 L 441 248 L 433 246 L 431 243 L 434 240 L 437 239 L 451 229 L 457 221 L 461 213 L 462 207 L 463 206 L 463 200 L 466 199 L 469 201 L 471 199 L 471 181 L 470 180 L 472 178 L 475 179 L 477 181 L 479 180 L 479 173 L 472 158 L 474 156 L 476 156 L 479 158 L 482 157 L 482 154 L 479 148 L 468 136 L 469 133 L 471 134 L 477 134 L 478 133 L 478 130 L 472 124 L 469 123 L 463 118 L 466 114 L 466 112 L 461 107 L 457 101 L 452 90 L 446 82 L 449 78 L 452 77 L 456 73 L 460 66 L 461 60 L 462 59 L 462 49 L 461 48 L 461 45 L 453 33 L 447 28 Z M 92 559 L 94 558 L 96 562 L 101 567 L 104 566 L 105 562 L 108 559 L 112 564 L 118 564 L 124 560 L 125 563 L 127 565 L 127 567 L 129 569 L 129 571 L 128 572 L 124 572 L 120 570 L 111 569 L 105 571 L 99 576 L 97 576 L 94 573 L 93 570 Z M 127 560 L 130 557 L 133 557 L 138 561 L 139 565 L 136 568 L 132 569 L 128 566 L 127 564 Z M 95 548 L 100 548 L 105 554 L 105 561 L 102 565 L 101 565 L 94 557 L 93 550 Z M 113 547 L 119 547 L 123 551 L 123 556 L 117 562 L 113 562 L 109 557 L 109 551 Z M 450 19 L 436 14 L 420 14 L 419 15 L 413 16 L 405 20 L 398 26 L 396 30 L 393 33 L 389 33 L 383 31 L 378 31 L 377 30 L 363 30 L 360 27 L 359 24 L 354 20 L 347 20 L 344 21 L 336 28 L 333 28 L 327 24 L 319 22 L 318 23 L 314 23 L 311 25 L 309 28 L 309 31 L 306 35 L 300 35 L 294 37 L 292 39 L 285 42 L 274 49 L 261 41 L 255 39 L 251 39 L 250 38 L 244 38 L 243 39 L 235 40 L 219 48 L 209 60 L 204 75 L 204 84 L 205 85 L 206 92 L 212 103 L 223 113 L 223 115 L 216 129 L 216 135 L 217 137 L 216 139 L 210 144 L 206 151 L 206 157 L 211 163 L 208 172 L 208 178 L 213 184 L 213 193 L 214 196 L 211 199 L 206 195 L 200 184 L 197 181 L 190 181 L 171 158 L 171 155 L 174 147 L 174 141 L 175 140 L 175 129 L 174 128 L 173 121 L 170 116 L 164 110 L 158 107 L 152 107 L 145 110 L 143 108 L 138 98 L 134 94 L 127 90 L 118 90 L 114 92 L 107 99 L 105 99 L 102 96 L 97 94 L 87 94 L 81 97 L 75 105 L 75 115 L 73 117 L 66 117 L 62 119 L 55 127 L 53 133 L 53 139 L 56 146 L 56 149 L 50 155 L 48 159 L 48 171 L 50 177 L 56 187 L 69 201 L 70 201 L 76 207 L 83 211 L 87 215 L 91 228 L 105 253 L 109 258 L 131 279 L 132 287 L 134 291 L 139 296 L 145 300 L 154 304 L 156 306 L 158 313 L 163 318 L 178 324 L 186 333 L 195 337 L 198 337 L 206 344 L 210 345 L 220 350 L 222 352 L 222 356 L 216 368 L 215 374 L 214 375 L 215 385 L 211 390 L 208 398 L 208 402 L 212 407 L 212 409 L 210 411 L 206 421 L 206 432 L 209 437 L 209 451 L 208 452 L 208 457 L 203 462 L 193 464 L 186 468 L 181 473 L 180 477 L 177 480 L 171 482 L 162 490 L 161 494 L 162 491 L 170 483 L 179 480 L 181 478 L 182 473 L 188 467 L 195 464 L 205 462 L 208 459 L 210 438 L 206 432 L 206 422 L 208 416 L 212 409 L 212 407 L 208 401 L 208 398 L 212 389 L 215 385 L 215 372 L 222 357 L 222 351 L 213 346 L 211 346 L 205 343 L 200 338 L 187 333 L 182 328 L 182 326 L 180 324 L 175 323 L 164 318 L 158 312 L 157 307 L 155 304 L 146 300 L 140 296 L 133 289 L 131 278 L 114 263 L 101 246 L 90 225 L 87 214 L 72 203 L 59 190 L 53 182 L 48 171 L 48 160 L 51 154 L 56 150 L 56 146 L 53 137 L 54 130 L 56 126 L 63 119 L 68 117 L 74 117 L 75 116 L 75 106 L 77 102 L 82 97 L 88 94 L 96 94 L 107 100 L 110 96 L 116 91 L 119 90 L 126 90 L 132 93 L 139 100 L 143 109 L 145 111 L 150 108 L 157 107 L 162 109 L 171 118 L 174 124 L 174 128 L 175 129 L 174 147 L 173 148 L 173 151 L 171 154 L 171 159 L 190 181 L 196 181 L 201 186 L 206 196 L 209 199 L 212 199 L 214 197 L 213 183 L 209 179 L 208 176 L 209 169 L 212 163 L 206 157 L 206 152 L 209 146 L 217 138 L 216 130 L 218 124 L 224 114 L 224 112 L 220 110 L 209 98 L 205 89 L 204 77 L 205 76 L 206 67 L 210 59 L 221 47 L 236 40 L 240 40 L 241 39 L 251 39 L 252 40 L 256 40 L 262 42 L 272 49 L 275 49 L 282 44 L 284 44 L 286 42 L 298 36 L 307 36 L 309 34 L 309 29 L 310 27 L 313 24 L 316 23 L 326 24 L 328 26 L 334 29 L 336 29 L 342 23 L 346 21 L 355 21 L 363 31 L 366 30 L 372 30 L 373 31 L 381 31 L 382 32 L 386 32 L 390 34 L 393 34 L 403 22 L 414 16 L 424 15 L 425 14 L 434 14 L 435 15 L 439 15 L 445 18 L 447 18 L 455 23 L 464 32 L 471 46 L 472 61 L 471 62 L 470 68 L 467 74 L 458 83 L 458 84 L 463 91 L 467 100 L 473 108 L 476 117 L 482 122 L 488 129 L 488 135 L 485 138 L 485 142 L 491 152 L 491 161 L 487 165 L 487 169 L 489 173 L 489 181 L 488 184 L 481 191 L 479 204 L 473 210 L 469 221 L 462 229 L 459 236 L 455 240 L 452 241 L 452 244 L 455 248 L 458 256 L 465 264 L 470 272 L 471 279 L 476 287 L 476 289 L 479 295 L 479 298 L 478 291 L 471 278 L 471 275 L 469 269 L 458 255 L 456 249 L 452 243 L 458 238 L 462 230 L 467 225 L 470 220 L 473 211 L 478 206 L 480 202 L 481 192 L 487 186 L 489 182 L 489 172 L 487 166 L 490 163 L 492 157 L 491 156 L 491 151 L 485 141 L 485 139 L 488 135 L 488 129 L 486 125 L 476 117 L 475 111 L 473 107 L 467 99 L 463 90 L 459 85 L 459 83 L 468 73 L 471 66 L 471 63 L 472 62 L 472 51 L 471 50 L 470 42 L 463 30 L 456 23 Z" fill="#B1B1B1" fill-rule="evenodd"/><path d="M 130 558 L 128 560 L 128 564 L 129 566 L 132 568 L 136 567 L 138 565 L 137 561 L 133 558 Z M 95 549 L 94 550 L 94 552 L 95 553 L 95 557 L 96 559 L 101 564 L 102 564 L 104 561 L 104 554 L 100 549 Z M 113 548 L 110 551 L 110 557 L 113 561 L 117 561 L 122 556 L 122 551 L 119 548 Z M 259 146 L 259 148 L 258 149 L 258 163 L 259 164 L 259 166 L 264 172 L 273 177 L 276 177 L 278 179 L 279 181 L 279 187 L 280 188 L 281 193 L 287 205 L 295 215 L 295 216 L 307 228 L 313 231 L 314 230 L 314 229 L 307 221 L 304 215 L 304 209 L 306 205 L 310 201 L 310 200 L 317 194 L 325 189 L 327 189 L 330 187 L 333 187 L 334 186 L 340 186 L 341 187 L 346 188 L 348 189 L 355 196 L 356 198 L 356 204 L 349 221 L 350 221 L 353 218 L 357 210 L 357 208 L 360 201 L 360 197 L 361 196 L 361 192 L 362 191 L 362 185 L 363 184 L 363 168 L 362 167 L 362 161 L 361 160 L 360 155 L 358 153 L 357 153 L 348 163 L 345 164 L 343 166 L 339 168 L 337 168 L 330 171 L 327 171 L 326 172 L 313 172 L 312 171 L 307 171 L 306 170 L 303 170 L 302 169 L 293 168 L 285 173 L 283 173 L 282 174 L 275 174 L 269 171 L 264 165 L 263 161 L 262 160 L 262 149 L 263 148 L 263 145 L 261 144 Z M 269 138 L 269 144 L 272 149 L 280 156 L 282 156 L 286 158 L 293 158 L 294 157 L 297 157 L 309 152 L 314 147 L 317 141 L 317 137 L 314 133 L 307 129 L 305 129 L 304 128 L 300 128 L 299 127 L 290 127 L 289 128 L 285 128 L 284 129 L 279 130 L 272 134 Z M 277 107 L 273 107 L 268 113 L 268 115 L 267 116 L 267 120 L 266 121 L 267 127 L 268 128 L 273 128 L 275 127 L 278 124 L 280 120 L 280 110 Z M 356 101 L 353 104 L 352 108 L 351 109 L 351 120 L 354 125 L 358 127 L 360 127 L 361 126 L 363 126 L 366 122 L 366 120 L 367 119 L 367 111 L 364 104 L 361 101 Z M 285 70 L 283 68 L 281 68 L 275 71 L 270 76 L 269 80 L 270 81 L 273 80 L 277 76 L 283 73 L 285 71 Z M 356 61 L 356 62 L 358 64 L 366 66 L 371 69 L 374 69 L 375 68 L 374 64 L 369 60 L 367 60 L 363 58 L 360 58 Z M 447 19 L 445 19 L 439 16 L 435 16 L 434 15 L 425 15 L 424 16 L 418 16 L 417 17 L 414 17 L 413 18 L 411 18 L 409 20 L 403 23 L 393 35 L 390 35 L 389 34 L 387 34 L 386 33 L 382 33 L 381 32 L 373 32 L 372 31 L 366 31 L 365 32 L 363 32 L 359 28 L 358 25 L 355 22 L 346 22 L 342 24 L 336 30 L 334 30 L 328 27 L 326 25 L 323 25 L 322 24 L 316 24 L 315 25 L 313 25 L 311 27 L 310 29 L 310 34 L 307 37 L 298 37 L 286 43 L 284 45 L 282 45 L 275 50 L 272 50 L 262 43 L 260 43 L 256 41 L 252 41 L 251 40 L 241 40 L 240 41 L 236 41 L 233 43 L 226 45 L 224 47 L 221 48 L 211 59 L 207 67 L 207 70 L 206 71 L 206 76 L 205 77 L 206 89 L 208 92 L 208 94 L 210 98 L 220 109 L 223 110 L 225 112 L 225 114 L 223 118 L 221 120 L 219 124 L 218 129 L 217 130 L 218 138 L 210 146 L 207 152 L 207 157 L 213 163 L 210 169 L 210 172 L 209 173 L 210 179 L 214 183 L 214 191 L 215 192 L 215 197 L 212 200 L 209 200 L 205 196 L 200 186 L 196 182 L 190 182 L 183 175 L 183 174 L 176 166 L 176 165 L 170 159 L 170 154 L 172 151 L 172 148 L 173 147 L 173 140 L 174 139 L 174 129 L 173 128 L 173 124 L 170 118 L 162 110 L 158 109 L 157 108 L 153 108 L 145 112 L 142 109 L 138 100 L 132 94 L 126 91 L 119 91 L 118 92 L 116 92 L 114 94 L 113 94 L 107 101 L 106 101 L 101 97 L 97 96 L 96 95 L 88 95 L 82 98 L 78 102 L 76 106 L 76 116 L 74 118 L 68 118 L 67 119 L 63 120 L 57 126 L 55 130 L 54 137 L 55 138 L 55 142 L 57 146 L 57 150 L 52 154 L 49 160 L 49 171 L 50 172 L 50 174 L 54 182 L 57 185 L 60 190 L 72 202 L 73 202 L 77 206 L 85 211 L 88 214 L 91 225 L 102 246 L 109 255 L 109 256 L 115 262 L 115 263 L 132 278 L 132 281 L 133 282 L 133 287 L 134 289 L 140 295 L 141 295 L 146 299 L 155 303 L 158 307 L 158 310 L 159 312 L 164 317 L 170 320 L 172 320 L 175 322 L 180 323 L 183 326 L 183 328 L 187 332 L 200 337 L 205 342 L 211 345 L 213 345 L 221 349 L 223 351 L 223 357 L 220 362 L 220 364 L 216 372 L 216 385 L 213 389 L 209 398 L 209 401 L 211 405 L 213 407 L 213 409 L 209 416 L 209 418 L 207 422 L 207 432 L 211 438 L 209 459 L 205 463 L 202 463 L 198 465 L 195 465 L 188 468 L 183 473 L 182 475 L 182 478 L 179 481 L 177 481 L 174 483 L 170 484 L 163 491 L 161 495 L 162 501 L 160 503 L 160 504 L 149 515 L 149 516 L 143 523 L 142 526 L 137 533 L 136 533 L 131 529 L 127 527 L 124 527 L 123 526 L 111 526 L 110 527 L 106 527 L 105 528 L 100 529 L 96 532 L 93 533 L 89 537 L 89 538 L 86 541 L 81 553 L 81 563 L 82 564 L 82 567 L 83 568 L 85 576 L 87 579 L 87 581 L 91 589 L 98 598 L 100 602 L 103 605 L 103 606 L 120 623 L 121 623 L 125 627 L 126 627 L 129 630 L 132 631 L 137 635 L 140 636 L 142 638 L 152 643 L 154 643 L 158 645 L 161 645 L 162 646 L 172 646 L 173 645 L 177 645 L 180 643 L 182 643 L 184 642 L 199 626 L 205 625 L 209 623 L 217 614 L 218 610 L 222 606 L 224 605 L 228 605 L 234 602 L 241 596 L 243 596 L 249 593 L 257 584 L 261 582 L 266 582 L 267 581 L 272 580 L 282 575 L 293 575 L 294 574 L 297 574 L 307 569 L 309 569 L 320 563 L 323 563 L 324 564 L 327 564 L 328 565 L 331 565 L 332 566 L 335 566 L 336 567 L 346 568 L 347 569 L 354 569 L 355 570 L 388 570 L 390 572 L 392 576 L 396 580 L 396 581 L 407 592 L 408 592 L 414 598 L 415 598 L 424 606 L 430 609 L 435 613 L 447 619 L 449 619 L 460 625 L 462 625 L 465 627 L 468 627 L 469 628 L 473 628 L 480 621 L 482 622 L 486 622 L 487 623 L 506 623 L 507 622 L 511 622 L 512 621 L 520 621 L 524 625 L 527 630 L 537 640 L 541 642 L 543 642 L 546 644 L 549 644 L 550 645 L 554 645 L 555 646 L 562 646 L 563 645 L 568 645 L 569 644 L 571 644 L 573 642 L 577 640 L 584 634 L 584 633 L 587 630 L 588 627 L 590 625 L 590 623 L 592 619 L 592 615 L 593 614 L 593 607 L 594 606 L 593 588 L 592 587 L 592 582 L 591 581 L 590 572 L 589 571 L 589 568 L 588 567 L 588 564 L 587 563 L 587 560 L 586 559 L 584 548 L 583 547 L 582 542 L 576 530 L 568 522 L 561 520 L 560 519 L 557 519 L 556 518 L 546 518 L 542 520 L 534 520 L 527 517 L 507 495 L 507 494 L 502 488 L 502 485 L 501 484 L 503 477 L 504 476 L 505 468 L 508 462 L 508 460 L 510 457 L 510 455 L 511 454 L 511 450 L 512 449 L 512 442 L 513 441 L 513 426 L 512 425 L 512 419 L 505 405 L 505 401 L 506 400 L 506 392 L 505 391 L 505 388 L 503 384 L 501 382 L 500 379 L 498 377 L 497 371 L 496 370 L 496 365 L 495 364 L 495 362 L 489 352 L 489 350 L 482 337 L 482 335 L 480 331 L 479 316 L 478 315 L 478 312 L 476 308 L 476 302 L 478 299 L 478 295 L 477 294 L 477 292 L 475 289 L 475 287 L 473 285 L 470 279 L 469 272 L 467 268 L 459 259 L 456 254 L 456 252 L 454 248 L 451 244 L 451 241 L 453 239 L 455 239 L 458 236 L 461 229 L 468 221 L 472 210 L 478 204 L 478 202 L 479 201 L 479 196 L 480 195 L 480 191 L 487 184 L 487 182 L 488 181 L 488 173 L 486 169 L 486 165 L 490 161 L 490 152 L 484 142 L 484 138 L 487 135 L 487 129 L 486 127 L 475 117 L 474 115 L 474 112 L 472 108 L 466 100 L 462 91 L 457 84 L 457 83 L 466 74 L 469 68 L 470 62 L 471 61 L 471 52 L 470 51 L 470 46 L 463 32 L 455 24 Z M 441 24 L 447 27 L 452 32 L 453 32 L 458 38 L 462 45 L 462 48 L 463 49 L 463 59 L 462 60 L 461 66 L 457 73 L 452 78 L 449 79 L 447 81 L 447 82 L 453 90 L 458 101 L 460 103 L 462 107 L 467 112 L 467 114 L 464 117 L 464 118 L 469 122 L 472 123 L 479 130 L 479 133 L 477 135 L 471 135 L 469 134 L 469 136 L 478 145 L 483 154 L 483 157 L 481 159 L 479 159 L 476 157 L 474 157 L 473 158 L 476 163 L 476 165 L 480 173 L 480 180 L 478 182 L 473 179 L 471 180 L 472 181 L 472 199 L 469 202 L 468 202 L 466 200 L 464 200 L 464 206 L 463 207 L 462 213 L 458 221 L 452 228 L 452 229 L 449 232 L 448 232 L 437 240 L 434 241 L 432 243 L 433 245 L 441 247 L 443 249 L 443 250 L 441 252 L 440 252 L 440 253 L 445 257 L 453 261 L 456 264 L 456 266 L 455 267 L 452 267 L 452 269 L 463 282 L 468 292 L 466 294 L 465 294 L 458 289 L 457 290 L 467 309 L 467 311 L 470 318 L 470 321 L 471 322 L 471 334 L 470 335 L 467 335 L 467 341 L 468 342 L 468 355 L 467 356 L 466 361 L 460 373 L 458 375 L 458 376 L 453 381 L 452 381 L 450 379 L 450 376 L 449 375 L 449 369 L 448 369 L 446 371 L 443 377 L 440 380 L 438 384 L 431 391 L 428 392 L 426 394 L 424 394 L 420 396 L 416 396 L 414 394 L 420 388 L 420 387 L 422 385 L 421 384 L 412 389 L 406 390 L 398 394 L 396 394 L 392 396 L 390 398 L 387 398 L 385 399 L 384 398 L 384 396 L 386 392 L 383 392 L 380 394 L 376 395 L 373 398 L 369 399 L 361 403 L 359 403 L 357 401 L 358 397 L 361 392 L 361 390 L 357 391 L 352 395 L 349 396 L 347 398 L 344 399 L 337 404 L 331 404 L 329 402 L 331 399 L 330 397 L 323 400 L 318 400 L 314 402 L 307 402 L 306 403 L 287 403 L 286 402 L 282 402 L 281 401 L 276 400 L 271 396 L 270 394 L 271 389 L 279 381 L 280 379 L 279 378 L 275 378 L 268 381 L 265 381 L 264 380 L 262 380 L 257 375 L 256 373 L 256 368 L 257 366 L 260 363 L 265 360 L 270 355 L 270 354 L 267 354 L 266 355 L 260 354 L 257 351 L 257 347 L 259 345 L 259 344 L 264 340 L 268 338 L 276 336 L 281 333 L 281 331 L 280 330 L 276 329 L 274 327 L 274 324 L 278 319 L 282 318 L 283 317 L 294 317 L 295 318 L 300 318 L 301 319 L 308 320 L 315 317 L 318 317 L 319 316 L 322 316 L 323 315 L 328 315 L 329 314 L 337 314 L 338 313 L 366 313 L 367 312 L 379 312 L 380 311 L 387 311 L 388 310 L 391 310 L 391 308 L 390 307 L 381 305 L 379 303 L 379 299 L 377 297 L 375 297 L 369 304 L 329 304 L 328 305 L 319 306 L 318 307 L 312 308 L 308 310 L 284 309 L 283 310 L 277 311 L 271 314 L 268 317 L 265 323 L 264 327 L 255 335 L 255 336 L 251 341 L 251 363 L 250 364 L 250 369 L 249 370 L 250 380 L 251 381 L 252 385 L 261 394 L 263 398 L 263 400 L 265 402 L 265 403 L 268 406 L 276 410 L 279 410 L 282 412 L 290 412 L 291 413 L 308 413 L 309 412 L 320 411 L 327 414 L 341 414 L 342 413 L 346 413 L 347 412 L 355 412 L 356 413 L 361 413 L 362 412 L 369 412 L 370 411 L 375 411 L 376 410 L 381 410 L 382 409 L 388 409 L 389 408 L 393 408 L 394 407 L 406 407 L 407 406 L 418 406 L 419 405 L 425 405 L 438 399 L 447 399 L 448 398 L 450 398 L 454 396 L 465 384 L 472 372 L 472 370 L 475 364 L 476 357 L 478 354 L 480 354 L 483 357 L 487 364 L 487 365 L 483 368 L 484 371 L 495 384 L 499 391 L 499 392 L 497 394 L 495 393 L 492 393 L 491 395 L 494 399 L 495 402 L 497 404 L 499 409 L 501 411 L 505 421 L 503 423 L 500 423 L 499 424 L 500 430 L 502 434 L 503 443 L 504 444 L 504 452 L 502 454 L 498 453 L 498 467 L 497 468 L 497 471 L 496 472 L 493 483 L 491 486 L 491 488 L 486 498 L 484 500 L 483 503 L 480 507 L 480 511 L 481 512 L 483 512 L 485 510 L 486 510 L 493 502 L 494 499 L 496 497 L 498 497 L 501 500 L 502 503 L 511 516 L 510 518 L 510 521 L 511 522 L 513 522 L 516 524 L 522 524 L 528 528 L 541 528 L 545 526 L 554 526 L 555 527 L 558 527 L 562 529 L 569 536 L 569 537 L 573 542 L 574 546 L 577 551 L 578 559 L 579 560 L 579 563 L 580 564 L 580 567 L 581 568 L 581 573 L 582 574 L 582 577 L 583 578 L 583 586 L 584 587 L 584 594 L 585 595 L 585 606 L 584 607 L 583 611 L 581 613 L 579 613 L 578 612 L 574 612 L 574 616 L 575 618 L 581 623 L 581 626 L 576 630 L 573 630 L 572 631 L 568 632 L 567 634 L 562 638 L 558 638 L 557 637 L 551 637 L 550 636 L 548 636 L 542 633 L 536 628 L 535 628 L 527 619 L 527 618 L 529 616 L 536 613 L 540 609 L 539 607 L 533 608 L 526 612 L 516 613 L 515 614 L 509 614 L 508 615 L 495 615 L 494 616 L 481 616 L 473 612 L 468 612 L 467 613 L 468 614 L 468 617 L 469 619 L 467 621 L 466 621 L 460 618 L 453 611 L 449 609 L 443 609 L 441 607 L 436 605 L 423 594 L 422 594 L 416 588 L 415 588 L 399 572 L 398 568 L 400 566 L 402 566 L 407 563 L 407 560 L 406 559 L 396 560 L 395 561 L 391 561 L 390 562 L 375 562 L 374 563 L 367 563 L 366 562 L 353 562 L 352 561 L 346 561 L 345 560 L 335 559 L 331 557 L 328 557 L 327 556 L 322 555 L 319 553 L 317 553 L 309 549 L 305 549 L 303 548 L 302 549 L 302 552 L 309 558 L 309 559 L 306 562 L 299 565 L 296 565 L 295 566 L 291 566 L 290 567 L 283 567 L 282 568 L 275 569 L 274 570 L 269 571 L 265 574 L 262 574 L 260 572 L 257 572 L 255 574 L 255 575 L 246 584 L 244 585 L 239 585 L 238 586 L 236 586 L 234 588 L 233 588 L 226 596 L 224 596 L 221 598 L 218 597 L 216 599 L 215 599 L 211 604 L 207 611 L 203 615 L 201 615 L 197 611 L 185 625 L 185 626 L 176 635 L 170 638 L 167 638 L 165 636 L 165 627 L 164 626 L 164 624 L 160 616 L 158 614 L 154 607 L 148 600 L 146 596 L 126 575 L 122 573 L 119 573 L 118 572 L 108 572 L 104 574 L 100 579 L 98 579 L 94 575 L 91 568 L 90 554 L 91 553 L 91 550 L 94 546 L 94 544 L 101 537 L 102 537 L 104 535 L 106 535 L 110 533 L 123 533 L 124 534 L 127 534 L 137 542 L 141 544 L 145 548 L 150 551 L 152 551 L 153 550 L 152 547 L 144 539 L 144 537 L 150 529 L 151 526 L 153 524 L 155 520 L 170 505 L 171 505 L 174 502 L 174 500 L 172 500 L 169 497 L 169 495 L 172 492 L 179 488 L 181 488 L 182 487 L 186 487 L 187 486 L 190 486 L 191 485 L 191 484 L 187 479 L 187 478 L 189 476 L 193 475 L 194 474 L 202 473 L 210 469 L 215 469 L 216 468 L 230 468 L 231 469 L 236 469 L 237 470 L 239 470 L 240 469 L 236 464 L 229 461 L 225 461 L 216 454 L 216 445 L 217 444 L 217 441 L 218 440 L 218 438 L 219 437 L 219 435 L 221 432 L 222 428 L 221 427 L 218 429 L 216 429 L 214 427 L 214 423 L 216 420 L 216 418 L 225 403 L 225 401 L 221 401 L 219 402 L 216 399 L 216 398 L 219 392 L 226 384 L 227 381 L 229 379 L 228 378 L 224 378 L 222 376 L 222 374 L 223 373 L 223 371 L 226 368 L 226 367 L 230 362 L 230 360 L 231 359 L 231 351 L 232 350 L 232 347 L 233 346 L 232 344 L 232 337 L 234 334 L 234 332 L 236 328 L 235 320 L 240 310 L 240 307 L 239 306 L 235 310 L 231 318 L 230 323 L 227 328 L 224 339 L 222 341 L 220 341 L 219 340 L 216 340 L 214 339 L 211 336 L 212 335 L 212 333 L 211 332 L 209 332 L 208 331 L 202 331 L 201 330 L 197 330 L 195 329 L 192 326 L 192 325 L 194 323 L 194 322 L 192 320 L 183 318 L 180 316 L 178 316 L 175 314 L 173 314 L 169 312 L 165 308 L 165 307 L 167 305 L 170 304 L 171 303 L 170 302 L 166 301 L 163 299 L 161 299 L 159 297 L 155 296 L 153 294 L 150 293 L 148 291 L 144 289 L 142 287 L 141 284 L 143 282 L 148 282 L 148 280 L 145 277 L 144 277 L 134 269 L 133 269 L 114 249 L 114 248 L 108 240 L 107 237 L 105 235 L 101 227 L 101 225 L 99 222 L 99 220 L 97 217 L 95 210 L 92 207 L 84 202 L 77 195 L 76 195 L 65 184 L 63 180 L 60 177 L 57 171 L 57 168 L 56 167 L 56 163 L 57 162 L 57 160 L 61 156 L 63 155 L 68 155 L 69 154 L 69 152 L 64 145 L 64 143 L 62 140 L 62 132 L 67 126 L 69 125 L 75 125 L 82 129 L 89 136 L 88 135 L 88 132 L 83 122 L 82 112 L 83 111 L 84 107 L 90 102 L 94 102 L 95 103 L 99 104 L 107 112 L 112 122 L 113 126 L 114 126 L 114 108 L 115 107 L 115 104 L 116 102 L 121 98 L 125 98 L 127 99 L 133 105 L 138 115 L 139 121 L 140 122 L 140 125 L 141 126 L 143 125 L 145 121 L 149 117 L 153 115 L 157 115 L 164 122 L 166 126 L 166 129 L 167 130 L 166 147 L 165 148 L 164 154 L 162 157 L 162 161 L 164 163 L 164 164 L 170 170 L 170 171 L 189 194 L 190 194 L 193 190 L 194 190 L 198 194 L 205 208 L 207 210 L 208 213 L 211 216 L 213 213 L 213 209 L 215 207 L 216 207 L 221 212 L 226 225 L 228 227 L 232 225 L 238 231 L 242 238 L 243 237 L 243 235 L 246 232 L 251 237 L 251 238 L 255 243 L 258 250 L 261 253 L 262 253 L 264 251 L 264 247 L 255 233 L 248 226 L 244 224 L 242 222 L 240 218 L 238 219 L 235 219 L 231 215 L 231 213 L 229 209 L 229 199 L 228 198 L 224 199 L 221 196 L 221 186 L 222 185 L 222 182 L 223 181 L 223 178 L 224 177 L 223 176 L 219 178 L 216 175 L 216 171 L 217 170 L 217 168 L 223 157 L 222 156 L 220 156 L 219 157 L 215 157 L 214 156 L 214 151 L 216 149 L 216 148 L 226 138 L 226 136 L 225 135 L 225 128 L 226 127 L 226 125 L 228 123 L 228 121 L 234 109 L 234 107 L 233 106 L 230 106 L 226 104 L 217 95 L 215 91 L 214 86 L 213 85 L 213 76 L 214 75 L 214 71 L 219 61 L 227 53 L 230 52 L 232 50 L 236 48 L 239 48 L 240 47 L 245 47 L 246 46 L 248 46 L 249 47 L 253 47 L 260 50 L 263 53 L 264 53 L 270 60 L 271 60 L 276 56 L 286 51 L 294 49 L 295 48 L 296 44 L 298 42 L 303 42 L 304 41 L 307 41 L 308 42 L 316 42 L 317 41 L 317 39 L 315 36 L 315 32 L 317 30 L 322 30 L 330 34 L 334 37 L 337 37 L 344 30 L 348 28 L 352 28 L 354 30 L 354 33 L 352 37 L 353 38 L 359 38 L 360 37 L 366 37 L 367 38 L 376 38 L 377 39 L 381 39 L 382 40 L 385 40 L 386 41 L 389 41 L 390 42 L 398 44 L 399 43 L 400 38 L 402 36 L 402 35 L 413 25 L 415 25 L 418 23 L 421 23 L 422 22 L 434 22 L 435 23 Z" fill="#010101" fill-rule="evenodd"/></svg>