<svg xmlns="http://www.w3.org/2000/svg" viewBox="0 0 653 704" shape-rendering="geometricPrecision"><title>intro frame 020</title><path d="M 492 653 L 490 650 L 487 650 L 486 649 L 476 649 L 475 650 L 469 650 L 468 651 L 463 651 L 462 652 L 457 652 L 456 653 L 453 653 L 452 652 L 428 652 L 421 655 L 412 662 L 410 668 L 410 675 L 413 676 L 422 664 L 424 663 L 428 663 L 431 667 L 430 669 L 431 672 L 430 680 L 431 681 L 438 681 L 442 678 L 442 675 L 444 673 L 444 669 L 449 664 L 451 663 L 455 663 L 459 666 L 458 682 L 462 684 L 468 683 L 470 681 L 470 679 L 473 676 L 473 673 L 475 671 L 482 669 L 486 664 L 490 662 L 492 657 Z M 293 623 L 291 622 L 288 623 L 286 621 L 285 618 L 277 617 L 274 615 L 272 616 L 269 615 L 267 616 L 257 616 L 253 618 L 250 617 L 249 618 L 240 619 L 237 621 L 235 621 L 231 625 L 228 632 L 228 642 L 229 643 L 239 643 L 243 640 L 243 638 L 248 633 L 254 633 L 258 637 L 258 639 L 261 642 L 261 645 L 267 643 L 271 643 L 279 637 L 284 631 L 289 629 L 289 626 L 290 625 L 293 625 Z M 394 564 L 383 574 L 382 577 L 383 594 L 385 596 L 385 598 L 388 604 L 399 615 L 400 618 L 405 624 L 418 637 L 425 638 L 428 640 L 431 640 L 431 638 L 429 636 L 426 635 L 427 633 L 430 632 L 430 623 L 428 622 L 427 620 L 434 616 L 436 612 L 436 607 L 434 604 L 434 595 L 432 592 L 433 581 L 429 577 L 429 572 L 427 568 L 424 565 L 421 565 L 420 566 L 417 562 L 415 563 L 411 563 L 410 564 Z M 380 542 L 377 541 L 374 543 L 370 543 L 367 545 L 366 549 L 373 548 L 380 544 Z M 378 517 L 375 517 L 370 521 L 365 529 L 365 534 L 367 536 L 374 530 L 377 523 L 379 521 L 379 518 Z M 410 518 L 401 518 L 394 510 L 391 518 L 391 528 L 389 531 L 388 539 L 391 539 L 394 537 L 395 535 L 411 520 Z M 232 487 L 229 488 L 218 499 L 216 499 L 211 504 L 209 514 L 204 520 L 204 523 L 207 526 L 206 531 L 201 537 L 201 539 L 202 540 L 205 540 L 207 542 L 207 557 L 209 560 L 209 567 L 212 572 L 216 576 L 218 582 L 221 585 L 223 585 L 228 589 L 230 592 L 230 594 L 234 598 L 236 597 L 245 597 L 249 600 L 250 599 L 250 595 L 254 592 L 254 589 L 256 587 L 261 587 L 264 583 L 269 583 L 271 581 L 274 580 L 287 568 L 287 562 L 288 559 L 290 557 L 290 550 L 287 547 L 287 545 L 289 543 L 294 543 L 296 541 L 296 539 L 288 532 L 283 532 L 275 526 L 275 523 L 270 518 L 267 513 L 250 495 L 247 493 L 245 493 L 241 489 L 237 487 Z M 275 165 L 275 168 L 274 169 L 274 177 L 276 181 L 282 186 L 285 186 L 286 187 L 291 187 L 293 186 L 297 180 L 294 178 L 291 178 L 283 173 L 276 166 L 276 165 Z M 111 150 L 112 154 L 109 161 L 107 163 L 96 163 L 93 165 L 93 177 L 89 181 L 85 182 L 84 181 L 77 180 L 77 182 L 80 183 L 86 189 L 87 193 L 88 193 L 96 177 L 106 167 L 111 163 L 113 163 L 116 161 L 127 160 L 128 161 L 131 161 L 142 168 L 147 174 L 147 176 L 150 181 L 150 188 L 147 195 L 137 205 L 131 209 L 114 217 L 101 217 L 97 215 L 90 208 L 87 200 L 86 200 L 82 205 L 77 206 L 79 210 L 84 215 L 87 216 L 91 220 L 97 223 L 103 230 L 103 233 L 107 241 L 123 257 L 128 264 L 142 277 L 151 282 L 164 292 L 166 292 L 168 294 L 181 300 L 184 300 L 185 301 L 188 301 L 194 303 L 196 305 L 196 308 L 191 312 L 192 314 L 205 313 L 213 320 L 228 320 L 230 323 L 222 330 L 223 333 L 228 333 L 231 335 L 241 335 L 246 329 L 247 323 L 249 321 L 249 318 L 251 313 L 251 309 L 255 302 L 255 298 L 261 290 L 261 285 L 265 282 L 265 278 L 267 274 L 264 270 L 262 264 L 255 256 L 251 261 L 248 260 L 242 253 L 239 247 L 237 247 L 233 250 L 227 243 L 226 238 L 222 233 L 220 234 L 220 237 L 218 239 L 216 239 L 211 236 L 208 233 L 206 227 L 200 218 L 197 218 L 194 220 L 190 217 L 179 202 L 173 196 L 172 193 L 166 185 L 162 181 L 162 174 L 164 171 L 164 168 L 165 167 L 164 164 L 163 164 L 157 170 L 155 171 L 151 171 L 148 170 L 145 167 L 143 162 L 143 157 L 144 154 L 146 152 L 143 151 L 139 147 L 138 147 L 138 152 L 135 155 L 131 157 L 127 157 L 121 153 L 119 153 L 116 155 L 113 151 Z M 209 301 L 211 299 L 214 300 L 213 302 L 210 302 Z M 157 139 L 160 142 L 164 148 L 164 151 L 165 151 L 165 148 L 163 145 L 163 143 L 159 139 Z M 102 133 L 105 138 L 107 139 L 105 134 Z M 126 123 L 126 124 L 133 130 L 133 132 L 135 135 L 136 135 L 136 133 L 134 131 L 132 126 L 128 123 Z M 443 44 L 430 44 L 427 46 L 425 46 L 419 50 L 414 55 L 412 58 L 412 61 L 408 66 L 403 66 L 396 62 L 393 62 L 392 61 L 379 60 L 378 59 L 369 59 L 368 60 L 360 61 L 357 58 L 357 54 L 358 53 L 357 51 L 353 52 L 347 58 L 342 58 L 335 54 L 328 52 L 327 54 L 329 57 L 329 60 L 326 63 L 311 63 L 309 64 L 305 69 L 299 71 L 296 71 L 290 74 L 280 83 L 266 70 L 260 68 L 251 68 L 250 69 L 243 70 L 236 74 L 230 81 L 226 91 L 226 104 L 230 112 L 236 118 L 238 118 L 241 120 L 244 120 L 246 122 L 246 127 L 244 130 L 242 137 L 240 139 L 237 148 L 239 153 L 238 158 L 233 162 L 228 168 L 229 169 L 234 169 L 236 171 L 236 174 L 233 178 L 229 188 L 230 189 L 231 188 L 235 188 L 237 190 L 234 199 L 233 209 L 234 210 L 236 208 L 239 208 L 242 211 L 241 227 L 243 229 L 249 228 L 252 231 L 253 235 L 256 240 L 259 242 L 261 242 L 271 253 L 276 253 L 286 260 L 288 260 L 295 268 L 295 273 L 293 275 L 291 275 L 282 269 L 278 268 L 276 270 L 275 275 L 272 278 L 269 287 L 265 290 L 268 293 L 268 296 L 267 298 L 261 303 L 262 310 L 258 317 L 257 326 L 254 333 L 254 338 L 253 339 L 254 342 L 254 348 L 252 352 L 253 352 L 257 349 L 263 349 L 265 351 L 265 357 L 262 362 L 242 382 L 241 384 L 244 385 L 246 387 L 246 389 L 243 395 L 234 407 L 235 408 L 239 408 L 241 410 L 241 415 L 238 420 L 238 422 L 230 433 L 230 436 L 235 435 L 238 438 L 237 443 L 233 450 L 232 458 L 231 459 L 234 460 L 236 458 L 239 458 L 241 460 L 241 463 L 240 464 L 240 471 L 241 473 L 247 477 L 251 486 L 251 488 L 253 491 L 259 497 L 263 499 L 266 502 L 269 503 L 272 502 L 271 499 L 269 497 L 269 491 L 268 490 L 268 477 L 271 473 L 274 474 L 274 478 L 275 479 L 275 489 L 276 490 L 275 497 L 276 498 L 276 502 L 278 503 L 281 501 L 281 496 L 283 494 L 284 486 L 286 484 L 287 481 L 290 479 L 292 481 L 292 489 L 289 498 L 289 503 L 292 509 L 292 515 L 297 528 L 299 527 L 302 522 L 302 520 L 305 517 L 307 519 L 308 524 L 304 527 L 303 529 L 303 533 L 305 535 L 308 536 L 313 541 L 318 543 L 321 546 L 324 546 L 325 547 L 329 547 L 333 545 L 339 537 L 341 537 L 345 533 L 347 533 L 350 529 L 353 529 L 358 524 L 359 521 L 370 508 L 373 502 L 371 499 L 367 501 L 363 501 L 361 502 L 358 498 L 358 493 L 367 483 L 363 477 L 357 474 L 352 478 L 350 478 L 347 481 L 343 481 L 342 482 L 340 480 L 340 475 L 341 473 L 345 469 L 350 466 L 350 463 L 344 456 L 343 452 L 340 448 L 340 444 L 339 443 L 339 433 L 335 427 L 335 420 L 336 419 L 336 410 L 337 409 L 337 406 L 341 399 L 349 391 L 355 387 L 360 387 L 361 386 L 370 385 L 380 376 L 380 373 L 384 369 L 384 367 L 389 363 L 389 360 L 392 357 L 391 355 L 392 354 L 396 355 L 397 353 L 396 350 L 396 342 L 394 336 L 395 333 L 397 331 L 400 331 L 408 337 L 408 343 L 411 347 L 416 343 L 418 343 L 421 341 L 425 342 L 431 349 L 431 355 L 420 364 L 413 368 L 393 390 L 390 392 L 388 392 L 383 397 L 375 402 L 372 403 L 362 403 L 359 405 L 357 409 L 354 411 L 354 414 L 356 415 L 366 413 L 369 416 L 369 422 L 368 424 L 356 434 L 354 438 L 354 442 L 357 446 L 362 446 L 370 441 L 376 441 L 378 443 L 378 451 L 377 454 L 371 460 L 371 462 L 374 465 L 379 465 L 384 460 L 385 455 L 387 453 L 392 453 L 397 457 L 397 470 L 398 471 L 401 471 L 402 472 L 411 471 L 417 467 L 421 466 L 428 458 L 431 457 L 432 455 L 438 450 L 438 448 L 441 445 L 445 444 L 455 436 L 458 428 L 461 425 L 465 423 L 467 426 L 469 426 L 476 420 L 477 416 L 480 413 L 483 413 L 485 415 L 487 415 L 487 414 L 492 410 L 493 404 L 504 392 L 504 388 L 506 386 L 506 376 L 508 372 L 511 369 L 515 369 L 517 366 L 514 353 L 508 345 L 508 343 L 506 340 L 506 335 L 502 329 L 502 327 L 482 306 L 479 301 L 481 298 L 483 298 L 482 295 L 479 292 L 474 290 L 467 283 L 467 279 L 465 277 L 453 272 L 447 267 L 435 267 L 429 269 L 423 268 L 415 274 L 413 274 L 410 271 L 409 268 L 406 274 L 403 277 L 400 275 L 399 272 L 401 266 L 406 261 L 410 261 L 412 258 L 412 256 L 417 251 L 419 251 L 421 253 L 422 256 L 426 247 L 428 245 L 433 246 L 435 244 L 435 238 L 434 237 L 435 234 L 437 233 L 440 229 L 440 227 L 448 221 L 445 218 L 442 212 L 444 210 L 450 212 L 454 212 L 453 204 L 456 201 L 461 203 L 462 202 L 456 195 L 459 191 L 461 192 L 462 191 L 462 189 L 457 183 L 457 180 L 458 179 L 461 179 L 465 182 L 468 182 L 469 181 L 476 182 L 477 183 L 479 182 L 477 176 L 477 171 L 478 169 L 481 167 L 481 163 L 473 154 L 473 150 L 478 146 L 477 144 L 468 136 L 470 130 L 469 126 L 463 118 L 457 106 L 451 100 L 451 97 L 455 93 L 460 91 L 466 84 L 468 79 L 468 74 L 469 73 L 468 72 L 468 66 L 464 59 L 453 48 Z M 333 526 L 336 526 L 338 528 L 338 530 L 335 534 L 332 534 L 330 532 L 330 529 Z M 322 511 L 324 513 L 323 521 L 318 526 L 316 526 L 314 524 L 314 520 L 316 518 L 317 515 Z M 354 505 L 355 506 L 355 509 L 351 513 L 348 519 L 346 517 L 346 512 L 348 508 L 351 505 Z M 266 448 L 268 450 L 267 458 L 265 463 L 263 465 L 261 465 L 259 462 L 259 456 L 261 452 Z M 263 430 L 265 432 L 265 435 L 263 438 L 263 440 L 260 443 L 259 446 L 254 451 L 252 451 L 251 450 L 251 446 L 256 438 L 256 436 L 261 430 Z M 262 417 L 263 418 L 263 421 L 260 427 L 260 429 L 258 431 L 255 431 L 253 429 L 253 426 L 257 419 L 260 417 Z M 345 336 L 348 333 L 352 333 L 360 341 L 364 342 L 370 347 L 374 347 L 375 346 L 383 346 L 387 349 L 387 352 L 391 355 L 388 358 L 385 356 L 380 356 L 375 353 L 367 353 L 351 344 L 346 339 Z M 325 327 L 325 330 L 320 336 L 314 338 L 311 338 L 307 341 L 302 341 L 300 339 L 300 337 L 308 327 L 311 327 L 313 330 L 317 327 L 319 327 L 322 325 Z M 343 312 L 345 312 L 347 314 L 346 316 L 346 321 L 344 323 L 342 323 L 337 319 L 338 318 L 337 316 Z M 394 264 L 394 268 L 393 270 L 380 284 L 377 285 L 370 292 L 370 293 L 378 300 L 378 302 L 376 304 L 370 304 L 359 299 L 345 300 L 321 286 L 312 276 L 312 273 L 315 270 L 322 270 L 328 272 L 349 272 L 350 271 L 356 271 L 361 269 L 366 269 L 371 267 L 375 267 L 389 262 L 392 262 Z M 377 151 L 381 145 L 387 141 L 398 140 L 399 139 L 411 140 L 420 143 L 426 148 L 429 153 L 429 160 L 422 168 L 420 168 L 417 170 L 412 170 L 411 171 L 398 170 L 392 168 L 383 163 L 379 159 L 377 155 Z M 300 133 L 303 130 L 312 127 L 325 127 L 328 129 L 330 129 L 335 134 L 335 137 L 333 139 L 327 138 L 323 136 L 309 136 L 308 137 L 302 138 L 300 136 Z M 283 118 L 287 119 L 291 124 L 291 128 L 292 129 L 292 138 L 291 141 L 292 142 L 295 142 L 300 140 L 308 140 L 322 145 L 328 152 L 328 162 L 326 164 L 325 167 L 320 172 L 314 176 L 307 178 L 306 180 L 321 185 L 338 185 L 347 182 L 357 176 L 361 170 L 361 168 L 364 165 L 367 165 L 373 172 L 375 178 L 375 188 L 376 189 L 376 196 L 375 198 L 376 200 L 375 201 L 375 208 L 374 209 L 374 215 L 372 219 L 372 222 L 370 225 L 368 232 L 362 242 L 355 248 L 347 253 L 341 255 L 330 255 L 317 250 L 308 242 L 294 225 L 286 209 L 284 199 L 277 195 L 275 195 L 268 189 L 264 182 L 264 179 L 262 174 L 255 180 L 251 182 L 245 182 L 238 175 L 237 171 L 240 163 L 247 156 L 254 153 L 260 153 L 263 154 L 266 157 L 271 157 L 274 159 L 276 153 L 276 148 L 274 146 L 272 140 L 273 132 L 278 122 Z M 365 114 L 369 114 L 375 119 L 378 125 L 378 129 L 379 130 L 379 134 L 376 143 L 373 146 L 368 148 L 364 147 L 359 142 L 356 134 L 356 129 L 357 128 L 358 122 Z M 293 82 L 297 86 L 296 91 L 282 102 L 278 103 L 274 99 L 274 93 L 278 89 L 278 87 L 282 82 L 288 82 L 289 81 Z M 259 82 L 263 84 L 267 88 L 268 92 L 257 106 L 257 108 L 252 113 L 250 114 L 246 114 L 240 107 L 237 100 L 237 94 L 239 90 L 246 83 L 251 81 Z M 362 74 L 366 71 L 374 71 L 379 73 L 383 77 L 384 80 L 386 82 L 387 88 L 383 92 L 381 92 L 372 86 L 369 86 L 366 84 L 364 84 L 361 81 L 361 76 Z M 434 57 L 445 57 L 452 63 L 455 68 L 456 74 L 457 75 L 457 81 L 456 84 L 447 92 L 443 91 L 438 88 L 427 78 L 425 78 L 422 74 L 422 67 L 430 59 Z" fill="#FBFBFB" fill-rule="evenodd"/><path d="M 409 669 L 409 675 L 411 678 L 414 678 L 418 670 L 424 664 L 427 664 L 430 667 L 429 669 L 429 682 L 430 683 L 442 683 L 443 682 L 444 674 L 443 675 L 443 678 L 438 682 L 431 682 L 429 680 L 429 676 L 430 675 L 429 669 L 430 667 L 428 664 L 424 664 L 422 665 L 418 670 L 417 673 L 413 677 L 411 677 L 409 675 Z M 378 615 L 387 628 L 405 645 L 402 651 L 398 655 L 398 657 L 394 663 L 393 679 L 395 683 L 404 691 L 408 692 L 400 688 L 394 680 L 394 665 L 398 656 L 405 647 L 405 645 L 383 623 Z M 212 599 L 223 612 L 223 614 L 221 616 L 219 621 L 214 626 L 211 632 L 209 638 L 209 646 L 210 648 L 210 636 L 211 635 L 211 632 L 223 614 L 223 612 Z M 367 593 L 365 591 L 361 591 L 355 588 L 341 587 L 340 588 L 341 610 L 337 618 L 331 624 L 331 625 L 312 643 L 290 657 L 281 660 L 283 660 L 288 657 L 291 657 L 294 654 L 307 647 L 332 625 L 340 613 L 342 607 L 342 594 L 348 590 L 352 590 L 354 589 L 357 591 L 360 591 L 365 593 L 367 595 L 369 600 L 371 602 L 377 613 L 372 605 Z M 302 570 L 302 573 L 304 575 L 310 575 L 311 574 L 311 571 L 308 568 L 304 568 Z M 333 527 L 331 529 L 331 532 L 332 533 L 335 533 L 337 530 L 337 528 L 336 527 Z M 322 512 L 318 515 L 317 518 L 315 520 L 315 524 L 316 525 L 318 525 L 322 521 L 323 518 L 323 513 Z M 354 506 L 351 506 L 349 508 L 347 512 L 347 517 L 348 518 L 350 513 L 354 509 Z M 460 475 L 456 471 L 446 471 L 444 472 L 441 475 L 443 479 L 441 482 L 437 482 L 433 484 L 429 483 L 428 484 L 428 487 L 429 488 L 429 496 L 430 497 L 437 497 L 440 492 L 441 487 L 443 485 L 451 485 L 452 484 L 452 481 Z M 508 459 L 506 461 L 506 464 L 508 466 L 510 466 L 511 465 L 510 464 L 510 459 Z M 542 455 L 542 467 L 537 480 L 529 488 L 524 491 L 516 500 L 512 508 L 512 510 L 510 512 L 509 520 L 509 516 L 512 511 L 512 508 L 516 503 L 517 500 L 525 491 L 533 486 L 537 481 L 542 468 Z M 266 449 L 262 452 L 260 456 L 260 462 L 261 464 L 263 464 L 265 461 L 266 453 L 267 452 Z M 523 448 L 523 457 L 524 458 L 524 465 L 526 464 L 526 459 L 527 458 L 527 452 L 525 447 Z M 508 435 L 505 434 L 497 441 L 488 446 L 485 451 L 485 453 L 489 456 L 495 456 L 497 453 L 499 452 L 501 447 L 505 445 L 506 443 L 506 439 L 508 437 Z M 263 431 L 261 431 L 257 436 L 257 438 L 252 446 L 252 450 L 254 450 L 262 440 L 262 438 L 264 435 L 264 432 Z M 262 418 L 258 419 L 254 426 L 254 429 L 255 430 L 258 430 L 259 429 L 259 427 L 262 421 Z M 237 402 L 232 407 L 232 409 L 233 410 L 238 409 L 240 411 L 240 414 L 236 423 L 228 435 L 228 438 L 230 438 L 233 436 L 236 438 L 236 442 L 230 456 L 229 464 L 230 466 L 232 466 L 233 464 L 236 462 L 238 464 L 238 470 L 239 473 L 244 477 L 248 482 L 246 477 L 242 475 L 239 471 L 240 460 L 239 459 L 236 459 L 234 461 L 232 461 L 230 459 L 231 458 L 231 453 L 236 443 L 237 438 L 235 436 L 230 437 L 229 436 L 229 433 L 237 422 L 237 420 L 240 415 L 240 410 L 239 409 L 235 409 L 233 407 Z M 515 354 L 517 359 L 518 366 L 515 370 L 511 370 L 509 372 L 507 376 L 507 386 L 505 388 L 505 392 L 494 404 L 493 410 L 491 411 L 487 416 L 485 416 L 483 414 L 480 414 L 478 416 L 477 420 L 469 427 L 467 427 L 465 424 L 461 426 L 459 428 L 456 436 L 453 438 L 451 441 L 445 445 L 441 446 L 439 448 L 439 450 L 436 452 L 431 458 L 428 459 L 428 460 L 421 467 L 417 468 L 411 472 L 407 472 L 406 473 L 398 472 L 396 470 L 396 457 L 392 454 L 387 454 L 385 460 L 379 466 L 374 466 L 370 462 L 370 460 L 376 454 L 377 451 L 377 443 L 376 442 L 370 442 L 362 447 L 357 447 L 354 444 L 353 442 L 353 438 L 355 434 L 363 428 L 368 422 L 368 416 L 366 414 L 360 415 L 359 416 L 356 416 L 353 414 L 353 411 L 356 409 L 357 406 L 362 402 L 372 402 L 383 396 L 388 391 L 390 391 L 393 389 L 403 377 L 406 375 L 413 367 L 420 363 L 423 360 L 413 367 L 405 375 L 404 375 L 395 385 L 394 385 L 381 397 L 373 401 L 363 401 L 359 403 L 352 412 L 352 416 L 354 418 L 358 418 L 363 415 L 365 415 L 367 417 L 367 422 L 366 424 L 354 435 L 353 437 L 353 442 L 357 447 L 363 447 L 372 442 L 376 445 L 377 450 L 374 455 L 370 459 L 370 464 L 376 467 L 380 467 L 382 466 L 388 459 L 393 459 L 395 461 L 395 473 L 397 475 L 399 474 L 407 474 L 408 473 L 411 473 L 413 471 L 418 470 L 432 459 L 437 457 L 439 455 L 443 454 L 448 449 L 448 447 L 453 441 L 456 440 L 460 435 L 462 437 L 463 443 L 464 443 L 472 432 L 473 429 L 476 426 L 483 426 L 485 428 L 488 426 L 490 423 L 494 409 L 497 406 L 499 406 L 501 409 L 502 409 L 502 407 L 504 404 L 504 401 L 507 396 L 507 392 L 508 391 L 508 381 L 509 378 L 512 376 L 517 382 L 520 380 L 519 364 Z M 253 342 L 253 347 L 250 352 L 249 358 L 250 359 L 252 358 L 253 356 L 256 355 L 259 352 L 261 352 L 263 354 L 262 359 L 257 365 L 246 375 L 239 385 L 240 387 L 242 387 L 244 389 L 244 391 L 245 387 L 242 386 L 240 384 L 241 382 L 261 362 L 264 357 L 264 351 L 263 350 L 257 350 L 253 353 L 251 352 L 253 348 Z M 346 336 L 347 339 L 351 343 L 367 352 L 375 352 L 380 355 L 385 355 L 388 357 L 390 355 L 386 352 L 386 349 L 383 347 L 370 348 L 364 343 L 360 342 L 352 334 L 348 334 Z M 397 332 L 395 336 L 397 342 L 397 350 L 398 353 L 396 356 L 392 355 L 393 357 L 390 360 L 390 363 L 385 367 L 385 369 L 381 373 L 381 376 L 370 386 L 366 386 L 360 388 L 355 388 L 349 392 L 339 403 L 338 409 L 337 410 L 336 427 L 340 433 L 340 443 L 341 444 L 341 448 L 344 452 L 345 456 L 351 463 L 351 466 L 342 473 L 341 475 L 341 480 L 342 481 L 343 480 L 347 480 L 350 477 L 352 477 L 357 473 L 363 476 L 368 482 L 359 493 L 359 498 L 360 500 L 362 501 L 371 498 L 374 501 L 373 505 L 363 517 L 359 524 L 353 530 L 350 530 L 347 534 L 345 534 L 341 538 L 339 538 L 335 544 L 329 548 L 321 547 L 318 544 L 313 542 L 308 537 L 305 536 L 302 533 L 302 529 L 303 527 L 307 524 L 305 518 L 303 520 L 302 524 L 298 529 L 296 528 L 291 515 L 291 509 L 288 503 L 288 498 L 291 489 L 291 481 L 290 480 L 288 481 L 287 484 L 285 486 L 284 494 L 282 496 L 282 501 L 278 504 L 275 502 L 275 498 L 274 497 L 275 490 L 274 489 L 274 479 L 273 478 L 273 474 L 271 474 L 269 477 L 270 497 L 273 501 L 271 504 L 266 503 L 263 500 L 259 498 L 251 489 L 253 492 L 250 494 L 244 489 L 238 486 L 230 486 L 228 487 L 219 496 L 215 498 L 211 502 L 210 505 L 210 504 L 216 498 L 218 498 L 229 487 L 237 486 L 241 488 L 245 492 L 247 492 L 250 494 L 256 500 L 256 501 L 268 513 L 271 518 L 276 523 L 276 526 L 283 531 L 288 531 L 297 539 L 297 541 L 294 544 L 289 544 L 288 545 L 288 547 L 291 550 L 291 557 L 289 559 L 288 562 L 288 568 L 274 581 L 271 582 L 269 584 L 264 584 L 261 588 L 256 588 L 255 589 L 255 592 L 251 595 L 251 599 L 248 601 L 245 598 L 236 598 L 234 599 L 229 594 L 228 590 L 223 586 L 221 586 L 217 582 L 215 576 L 211 572 L 208 567 L 208 560 L 206 557 L 206 542 L 205 541 L 202 541 L 200 539 L 200 537 L 205 530 L 200 537 L 199 540 L 200 541 L 204 541 L 206 543 L 206 557 L 207 558 L 207 563 L 208 564 L 208 567 L 210 573 L 229 597 L 237 605 L 259 605 L 260 606 L 265 606 L 269 609 L 269 611 L 266 614 L 263 614 L 262 615 L 254 615 L 253 616 L 249 616 L 248 617 L 240 618 L 237 620 L 235 620 L 230 625 L 226 634 L 226 645 L 227 646 L 229 645 L 239 645 L 242 648 L 242 652 L 245 655 L 247 654 L 247 652 L 244 648 L 243 644 L 244 643 L 244 638 L 249 634 L 248 634 L 244 638 L 244 640 L 239 644 L 229 644 L 227 642 L 227 632 L 230 625 L 235 620 L 237 620 L 240 618 L 249 617 L 250 616 L 253 617 L 257 615 L 267 615 L 268 614 L 272 615 L 274 614 L 277 616 L 285 617 L 287 619 L 288 622 L 291 621 L 294 623 L 293 626 L 290 626 L 290 629 L 284 632 L 279 638 L 271 644 L 267 644 L 261 646 L 260 645 L 260 642 L 257 639 L 257 637 L 253 634 L 257 638 L 258 647 L 260 649 L 263 649 L 264 648 L 270 647 L 272 645 L 276 644 L 279 641 L 281 641 L 284 638 L 288 637 L 291 635 L 294 635 L 299 631 L 301 631 L 320 614 L 320 611 L 319 610 L 320 609 L 318 606 L 321 604 L 324 605 L 326 603 L 326 596 L 324 593 L 319 591 L 318 592 L 318 598 L 315 601 L 314 608 L 310 611 L 296 611 L 295 610 L 290 610 L 287 608 L 285 608 L 282 605 L 284 601 L 284 589 L 283 588 L 284 581 L 292 574 L 294 558 L 297 555 L 297 553 L 299 551 L 303 551 L 304 550 L 304 544 L 288 530 L 282 528 L 277 523 L 270 514 L 260 504 L 262 501 L 271 507 L 279 515 L 282 516 L 287 521 L 289 521 L 295 529 L 299 531 L 306 538 L 322 551 L 332 555 L 337 555 L 345 551 L 349 551 L 351 554 L 351 561 L 349 563 L 348 571 L 351 571 L 354 573 L 364 574 L 365 575 L 375 575 L 377 576 L 380 579 L 381 592 L 388 606 L 401 620 L 405 626 L 418 639 L 425 642 L 438 642 L 439 643 L 479 642 L 481 643 L 483 646 L 481 648 L 478 648 L 486 648 L 487 649 L 490 649 L 493 653 L 493 657 L 491 662 L 489 664 L 486 665 L 482 670 L 475 672 L 474 673 L 474 676 L 468 684 L 462 685 L 459 684 L 457 682 L 457 675 L 458 674 L 458 666 L 455 664 L 451 664 L 445 669 L 445 672 L 445 670 L 448 666 L 451 664 L 455 664 L 458 667 L 457 670 L 457 683 L 461 685 L 467 685 L 475 682 L 490 681 L 505 675 L 511 669 L 512 669 L 518 663 L 524 652 L 526 650 L 530 639 L 530 631 L 531 630 L 530 628 L 530 622 L 527 616 L 523 612 L 521 612 L 517 609 L 510 609 L 508 607 L 507 602 L 505 600 L 503 595 L 501 594 L 496 588 L 495 585 L 496 571 L 491 563 L 491 560 L 488 557 L 483 554 L 480 554 L 479 555 L 479 559 L 477 561 L 472 561 L 469 559 L 464 558 L 463 556 L 460 556 L 457 554 L 453 557 L 452 556 L 449 556 L 448 554 L 450 552 L 448 551 L 444 551 L 441 548 L 440 545 L 440 535 L 444 526 L 447 523 L 449 518 L 449 514 L 450 512 L 448 510 L 444 510 L 442 515 L 439 518 L 436 515 L 434 509 L 432 508 L 426 501 L 426 497 L 425 496 L 415 496 L 410 492 L 391 491 L 387 489 L 384 489 L 377 485 L 372 484 L 353 467 L 352 464 L 342 449 L 342 446 L 341 445 L 341 436 L 340 435 L 340 428 L 339 427 L 339 420 L 338 419 L 338 406 L 340 402 L 353 390 L 357 388 L 370 386 L 379 380 L 386 372 L 388 368 L 398 358 L 399 356 L 399 351 L 398 350 L 398 345 L 396 341 L 396 336 L 398 334 L 400 334 L 412 349 L 417 344 L 424 344 L 430 350 L 430 351 L 429 347 L 425 343 L 422 342 L 416 344 L 411 348 L 407 343 L 407 337 L 400 332 Z M 394 563 L 410 563 L 411 562 L 415 562 L 417 561 L 420 565 L 421 564 L 424 564 L 428 568 L 430 572 L 430 577 L 434 581 L 433 592 L 435 595 L 435 604 L 437 607 L 437 612 L 435 616 L 433 618 L 428 620 L 428 621 L 431 623 L 431 632 L 429 634 L 427 634 L 427 635 L 429 635 L 432 638 L 431 641 L 428 641 L 425 639 L 418 638 L 404 624 L 399 618 L 398 615 L 387 604 L 384 598 L 384 596 L 382 594 L 382 588 L 381 587 L 381 577 L 382 574 Z M 379 550 L 380 552 L 377 559 L 371 564 L 364 566 L 362 563 L 359 561 L 364 555 L 374 550 Z M 381 542 L 380 545 L 370 550 L 366 550 L 365 549 L 366 545 L 370 542 L 374 542 L 377 540 L 379 540 Z M 431 525 L 436 529 L 435 539 L 432 542 L 425 544 L 423 542 L 423 540 L 425 537 L 425 530 L 426 527 L 428 525 Z M 420 520 L 420 525 L 418 528 L 416 534 L 416 537 L 412 544 L 404 552 L 398 555 L 391 562 L 387 564 L 385 562 L 388 559 L 393 549 L 396 546 L 397 541 L 401 535 L 418 519 Z M 386 518 L 388 522 L 388 527 L 386 532 L 383 534 L 381 533 L 378 529 L 383 520 Z M 378 516 L 380 518 L 380 521 L 378 523 L 375 530 L 367 537 L 364 534 L 364 529 L 369 521 L 375 516 Z M 412 519 L 412 520 L 405 527 L 404 527 L 404 528 L 402 529 L 394 538 L 391 540 L 388 540 L 387 539 L 388 531 L 390 528 L 390 518 L 391 517 L 392 511 L 394 509 L 401 517 L 410 517 Z M 394 502 L 397 499 L 403 499 L 407 501 L 410 501 L 415 506 L 418 515 L 417 516 L 415 514 L 411 514 L 407 512 L 403 512 Z M 324 327 L 322 326 L 319 328 L 317 328 L 314 331 L 313 331 L 311 328 L 308 328 L 301 337 L 301 339 L 302 340 L 307 340 L 311 337 L 314 337 L 320 335 L 324 330 Z M 174 328 L 180 331 L 185 331 L 186 332 L 189 331 L 189 329 L 183 324 L 181 324 L 179 326 L 177 326 Z M 345 313 L 343 313 L 341 315 L 338 316 L 339 318 L 338 319 L 342 322 L 345 321 L 345 316 L 346 315 Z M 480 292 L 484 297 L 483 299 L 480 300 L 481 303 L 502 326 L 482 304 L 482 302 L 486 299 Z M 393 264 L 392 263 L 389 263 L 385 265 L 382 265 L 379 267 L 371 268 L 366 270 L 361 270 L 356 272 L 350 272 L 349 273 L 328 273 L 322 271 L 315 271 L 313 273 L 313 276 L 321 285 L 345 299 L 359 298 L 370 303 L 376 303 L 377 300 L 374 298 L 369 292 L 377 284 L 380 283 L 392 270 L 393 268 Z M 392 266 L 388 273 L 376 284 L 363 294 L 355 296 L 352 298 L 345 298 L 337 293 L 335 293 L 321 284 L 313 275 L 315 272 L 324 272 L 329 274 L 348 274 L 349 273 L 355 273 L 356 272 L 361 272 L 366 270 L 370 270 L 385 265 L 391 265 Z M 227 239 L 228 243 L 233 249 L 237 246 L 239 246 L 243 253 L 248 259 L 251 260 L 255 255 L 263 264 L 264 268 L 268 274 L 266 278 L 266 282 L 262 285 L 262 290 L 256 298 L 255 305 L 252 309 L 252 313 L 251 314 L 250 321 L 248 323 L 247 328 L 247 326 L 251 320 L 253 310 L 256 307 L 258 307 L 260 309 L 260 311 L 256 316 L 256 326 L 254 332 L 256 326 L 257 317 L 261 310 L 260 303 L 263 301 L 267 296 L 267 293 L 264 290 L 268 287 L 271 278 L 275 273 L 275 270 L 278 267 L 280 267 L 287 272 L 293 274 L 294 273 L 294 268 L 288 261 L 286 261 L 276 254 L 271 254 L 265 248 L 265 247 L 260 243 L 267 250 L 273 259 L 274 259 L 276 256 L 278 256 L 287 262 L 293 268 L 293 271 L 290 272 L 276 262 L 275 263 L 276 266 L 275 272 L 272 275 L 270 275 L 265 269 L 262 262 L 255 254 L 253 255 L 253 257 L 251 259 L 249 259 L 244 254 L 238 244 L 237 244 L 234 248 L 232 248 L 230 246 Z M 263 294 L 265 297 L 261 300 L 259 297 Z M 241 228 L 244 232 L 249 230 L 251 232 L 254 239 L 258 242 L 254 239 L 252 233 L 249 229 L 243 230 Z M 487 225 L 481 232 L 478 241 L 474 245 L 467 258 L 480 272 L 484 274 L 492 282 L 493 285 L 498 291 L 493 285 L 490 279 L 479 271 L 468 259 L 468 256 L 471 253 L 472 249 L 477 243 L 480 237 L 481 232 Z M 232 205 L 232 212 L 234 212 L 236 210 L 239 210 L 241 213 L 241 216 L 240 217 L 240 226 L 241 211 L 239 209 L 236 209 L 234 211 L 232 209 Z M 55 203 L 57 208 L 64 217 L 91 239 L 94 249 L 102 263 L 94 249 L 91 239 L 89 236 L 69 221 L 60 212 L 57 208 Z M 229 185 L 228 191 L 229 192 L 233 189 L 236 192 L 235 189 L 231 189 L 230 190 L 228 188 Z M 367 166 L 364 166 L 362 169 L 364 167 L 367 167 L 371 171 L 373 176 L 373 179 L 374 180 L 374 207 L 373 208 L 373 213 L 372 214 L 371 221 L 367 230 L 367 232 L 363 239 L 357 245 L 354 246 L 349 250 L 339 254 L 332 254 L 331 253 L 324 252 L 315 247 L 301 233 L 295 225 L 291 217 L 293 222 L 301 233 L 309 241 L 309 242 L 317 249 L 330 254 L 341 254 L 347 252 L 359 244 L 364 238 L 371 222 L 371 219 L 373 215 L 374 201 L 375 200 L 374 198 L 375 196 L 374 178 L 371 170 Z M 238 171 L 239 175 L 245 181 L 251 181 L 255 179 L 262 173 L 264 175 L 264 178 L 264 165 L 263 165 L 261 172 L 256 177 L 251 180 L 245 180 L 243 179 L 239 174 L 239 168 L 242 163 L 246 159 L 254 155 L 261 155 L 266 160 L 269 158 L 271 158 L 274 161 L 273 176 L 273 169 L 274 168 L 274 165 L 276 164 L 283 172 L 291 177 L 296 178 L 298 180 L 296 184 L 293 187 L 291 188 L 286 188 L 285 187 L 282 187 L 275 181 L 274 178 L 275 181 L 280 186 L 284 188 L 291 188 L 300 182 L 305 182 L 306 183 L 315 184 L 321 186 L 338 186 L 347 183 L 355 179 L 361 172 L 361 171 L 357 177 L 347 183 L 338 186 L 321 186 L 317 184 L 310 183 L 306 181 L 305 179 L 307 177 L 314 175 L 320 171 L 324 167 L 325 164 L 327 162 L 327 159 L 327 162 L 325 165 L 318 172 L 310 176 L 307 176 L 303 178 L 295 178 L 286 174 L 277 165 L 275 161 L 275 157 L 275 159 L 273 160 L 271 158 L 266 158 L 263 155 L 260 154 L 254 154 L 247 157 L 241 163 Z M 378 151 L 378 155 L 380 159 L 383 162 L 392 167 L 398 169 L 406 169 L 407 170 L 417 169 L 420 167 L 422 167 L 428 160 L 428 153 L 425 148 L 420 144 L 411 141 L 399 140 L 398 141 L 387 142 L 383 144 Z M 378 152 L 380 148 L 388 142 L 391 142 L 392 141 L 410 141 L 421 145 L 427 151 L 428 159 L 427 161 L 420 167 L 414 169 L 400 169 L 399 168 L 393 167 L 385 163 L 379 157 Z M 239 140 L 236 146 L 236 149 L 238 155 L 226 169 L 227 171 L 232 170 L 234 172 L 234 176 L 233 177 L 235 174 L 235 171 L 234 170 L 229 170 L 227 168 L 230 164 L 237 158 L 238 153 L 236 148 Z M 291 129 L 291 138 L 289 142 L 290 143 L 296 143 L 297 142 L 310 142 L 311 143 L 314 143 L 320 145 L 326 151 L 327 155 L 327 152 L 322 146 L 318 144 L 312 143 L 308 141 L 300 141 L 299 142 L 292 143 L 290 141 L 291 138 Z M 301 133 L 301 136 L 302 137 L 308 136 L 309 135 L 323 135 L 331 138 L 334 137 L 334 134 L 330 130 L 328 130 L 325 128 L 312 128 L 311 129 L 305 130 Z M 307 132 L 309 130 L 312 130 L 313 129 L 324 129 L 331 132 L 333 134 L 331 136 L 327 136 L 324 134 L 317 134 L 316 133 L 314 134 L 308 134 Z M 91 127 L 87 132 L 87 137 L 89 136 L 90 133 L 92 131 L 96 131 L 98 132 L 104 138 L 106 143 L 108 145 L 110 151 L 110 157 L 104 162 L 101 162 L 97 160 L 95 160 L 92 162 L 84 154 L 76 150 L 72 150 L 70 151 L 68 154 L 68 161 L 70 162 L 71 156 L 73 154 L 78 154 L 82 156 L 87 160 L 92 168 L 92 176 L 87 180 L 80 179 L 76 176 L 73 180 L 69 180 L 64 182 L 62 187 L 66 198 L 75 209 L 76 209 L 83 216 L 96 225 L 101 230 L 104 236 L 104 238 L 109 247 L 109 249 L 114 256 L 114 258 L 116 260 L 117 263 L 126 274 L 136 284 L 142 287 L 137 281 L 136 278 L 135 279 L 133 278 L 124 270 L 122 265 L 123 264 L 125 264 L 141 280 L 145 281 L 150 285 L 153 286 L 163 294 L 165 294 L 169 297 L 171 297 L 173 299 L 175 299 L 178 301 L 184 303 L 192 304 L 194 307 L 186 312 L 186 314 L 190 316 L 204 315 L 209 321 L 212 321 L 213 322 L 225 322 L 226 324 L 218 330 L 218 333 L 221 335 L 226 335 L 231 337 L 233 339 L 233 342 L 231 344 L 230 343 L 230 345 L 236 348 L 238 346 L 240 340 L 246 330 L 241 336 L 231 336 L 228 334 L 223 334 L 221 332 L 221 330 L 229 323 L 228 321 L 213 321 L 205 314 L 192 315 L 190 312 L 195 308 L 195 305 L 194 304 L 188 302 L 185 302 L 184 301 L 181 301 L 176 298 L 174 298 L 166 293 L 164 293 L 151 283 L 142 278 L 127 264 L 122 257 L 106 241 L 102 233 L 102 230 L 97 224 L 91 221 L 87 217 L 84 216 L 76 207 L 77 205 L 82 204 L 85 200 L 87 199 L 91 208 L 97 214 L 101 216 L 114 216 L 131 208 L 137 204 L 146 195 L 149 188 L 149 181 L 146 176 L 146 174 L 143 170 L 131 162 L 122 161 L 121 162 L 116 162 L 113 164 L 111 164 L 97 177 L 88 194 L 86 193 L 85 189 L 80 184 L 78 184 L 76 182 L 76 180 L 77 179 L 84 180 L 85 181 L 89 180 L 92 177 L 92 165 L 96 162 L 107 162 L 111 154 L 110 151 L 111 149 L 112 149 L 116 154 L 119 152 L 121 152 L 127 156 L 131 156 L 137 152 L 137 147 L 139 146 L 143 150 L 145 150 L 147 152 L 145 154 L 144 157 L 144 162 L 146 167 L 148 169 L 155 170 L 163 163 L 165 164 L 166 167 L 165 168 L 165 171 L 163 174 L 163 181 L 167 185 L 173 193 L 174 196 L 180 202 L 191 217 L 194 219 L 197 217 L 200 217 L 203 220 L 205 225 L 207 227 L 209 233 L 214 237 L 218 238 L 219 237 L 219 234 L 221 232 L 222 232 L 226 237 L 225 234 L 221 229 L 219 235 L 217 237 L 213 236 L 209 232 L 200 215 L 198 214 L 195 217 L 193 217 L 185 209 L 183 205 L 179 201 L 169 187 L 163 181 L 163 175 L 166 169 L 167 152 L 166 151 L 165 145 L 160 138 L 157 137 L 154 138 L 151 143 L 145 149 L 143 149 L 138 141 L 137 134 L 137 135 L 135 136 L 132 132 L 132 130 L 127 126 L 125 123 L 128 122 L 132 125 L 128 122 L 124 122 L 122 124 L 127 126 L 131 130 L 136 140 L 136 145 L 137 146 L 136 151 L 132 155 L 126 155 L 120 150 L 116 152 L 113 149 L 106 133 L 103 130 L 97 127 Z M 66 185 L 68 183 L 76 183 L 79 184 L 85 191 L 85 198 L 81 202 L 76 202 L 74 201 L 69 196 L 66 190 Z M 139 167 L 145 173 L 148 179 L 148 190 L 147 193 L 139 202 L 123 212 L 121 212 L 112 216 L 103 216 L 100 215 L 91 207 L 89 203 L 89 193 L 95 181 L 103 171 L 109 166 L 117 162 L 130 162 Z M 157 141 L 160 144 L 162 148 L 163 158 L 162 159 L 162 162 L 157 168 L 155 169 L 150 169 L 146 166 L 144 159 L 151 144 L 153 142 Z M 157 138 L 159 138 L 164 143 L 164 145 L 166 148 L 166 151 L 165 152 L 163 151 L 163 148 L 156 139 Z M 101 133 L 104 132 L 106 134 L 108 139 L 106 140 Z M 93 128 L 96 127 L 100 129 L 101 131 L 98 132 L 97 130 L 94 130 Z M 293 83 L 289 82 L 288 83 L 282 83 L 279 88 L 284 84 L 292 83 L 296 87 L 296 89 L 281 101 L 278 101 L 275 98 L 275 94 L 278 90 L 275 93 L 275 99 L 278 102 L 282 101 L 290 94 L 293 93 L 295 91 L 296 86 Z M 263 85 L 259 83 L 251 82 L 246 84 L 240 90 L 238 94 L 238 100 L 241 107 L 246 113 L 250 113 L 252 112 L 256 108 L 256 106 L 267 92 L 266 88 Z M 256 83 L 261 85 L 266 91 L 258 102 L 255 108 L 251 112 L 248 113 L 243 109 L 238 99 L 239 93 L 240 91 L 249 83 Z M 469 74 L 469 79 L 467 84 L 460 92 L 455 94 L 452 97 L 452 100 L 458 106 L 464 118 L 470 126 L 471 130 L 469 136 L 475 141 L 479 146 L 474 150 L 474 154 L 482 163 L 482 167 L 480 168 L 478 171 L 478 176 L 480 182 L 477 184 L 471 182 L 465 183 L 461 180 L 458 180 L 458 183 L 463 189 L 463 191 L 461 193 L 459 192 L 457 195 L 463 202 L 461 204 L 457 202 L 454 204 L 454 209 L 455 210 L 454 213 L 450 213 L 446 211 L 443 212 L 446 218 L 449 221 L 443 225 L 438 233 L 436 234 L 435 236 L 436 238 L 436 244 L 433 247 L 428 246 L 425 251 L 424 255 L 422 257 L 420 255 L 420 253 L 417 252 L 413 256 L 413 258 L 410 262 L 406 262 L 402 266 L 400 272 L 401 275 L 403 276 L 409 267 L 411 269 L 411 271 L 413 273 L 415 273 L 423 267 L 429 268 L 435 266 L 447 266 L 453 271 L 465 276 L 468 279 L 468 283 L 474 289 L 478 291 L 474 289 L 470 285 L 469 283 L 469 280 L 470 279 L 468 277 L 464 276 L 451 269 L 447 264 L 440 265 L 439 266 L 433 266 L 432 267 L 428 267 L 426 265 L 428 260 L 435 253 L 436 250 L 438 248 L 445 249 L 450 245 L 453 240 L 453 238 L 455 236 L 455 234 L 457 232 L 459 232 L 462 237 L 465 235 L 469 227 L 469 224 L 470 223 L 470 215 L 472 213 L 477 214 L 479 211 L 477 195 L 479 193 L 482 194 L 485 194 L 486 193 L 483 183 L 481 181 L 478 174 L 478 172 L 480 170 L 486 171 L 486 167 L 474 153 L 474 151 L 476 149 L 481 149 L 482 146 L 473 140 L 469 136 L 469 134 L 471 132 L 471 128 L 463 116 L 460 109 L 453 100 L 453 98 L 465 88 L 466 85 L 468 83 Z M 422 261 L 423 263 L 421 266 L 415 271 L 414 270 L 414 266 L 416 263 L 419 261 Z M 362 76 L 362 81 L 364 83 L 366 83 L 369 85 L 371 85 L 365 83 L 362 80 L 362 76 L 367 72 L 372 72 L 378 74 L 383 79 L 379 74 L 374 72 L 366 72 L 364 73 Z M 267 70 L 280 82 L 290 73 L 295 71 L 288 74 L 280 80 L 277 80 L 275 77 Z M 434 58 L 430 60 L 423 67 L 423 74 L 425 77 L 427 77 L 438 87 L 443 90 L 447 91 L 455 84 L 456 81 L 456 75 L 455 74 L 454 68 L 451 63 L 445 58 Z M 433 59 L 436 58 L 443 58 L 447 60 L 451 64 L 454 69 L 456 78 L 453 84 L 449 88 L 445 90 L 438 86 L 423 73 L 423 70 L 425 66 Z M 467 62 L 467 63 L 463 56 L 452 46 L 443 43 L 434 42 L 425 45 L 423 47 L 420 48 L 412 56 L 410 62 L 407 65 L 404 65 L 396 61 L 393 61 L 388 59 L 383 59 L 382 58 L 367 58 L 366 59 L 360 59 L 358 57 L 358 54 L 359 53 L 359 49 L 358 48 L 352 51 L 347 57 L 342 57 L 333 52 L 327 51 L 326 54 L 328 57 L 328 59 L 325 62 L 309 62 L 307 65 L 311 62 L 326 62 L 328 60 L 328 57 L 326 54 L 328 51 L 335 53 L 342 57 L 347 57 L 355 50 L 358 51 L 359 53 L 358 54 L 358 58 L 360 60 L 368 59 L 369 58 L 378 58 L 379 59 L 392 60 L 393 61 L 396 61 L 403 65 L 408 65 L 411 61 L 411 58 L 413 55 L 419 49 L 430 43 L 443 43 L 453 47 Z" fill="#D8D8D8" fill-rule="evenodd"/><path d="M 379 551 L 374 551 L 364 556 L 360 561 L 361 561 L 364 565 L 371 563 L 376 559 Z M 431 526 L 428 526 L 426 530 L 426 537 L 424 540 L 425 543 L 430 542 L 434 539 L 435 529 Z M 419 520 L 418 520 L 402 535 L 398 541 L 397 546 L 394 549 L 393 552 L 391 554 L 391 556 L 386 562 L 387 563 L 391 561 L 398 554 L 404 551 L 411 544 L 415 537 L 415 534 L 419 525 Z M 386 519 L 384 520 L 379 530 L 383 533 L 385 532 L 387 527 Z M 395 502 L 403 511 L 407 511 L 411 513 L 415 513 L 417 515 L 414 506 L 410 502 L 407 502 L 403 500 L 397 500 Z M 524 442 L 522 444 L 522 470 L 521 471 L 521 476 L 522 476 L 525 472 L 525 470 L 528 464 L 528 448 Z M 524 446 L 526 447 L 528 452 L 527 464 L 525 466 L 523 465 L 523 458 L 522 457 L 522 448 Z M 263 295 L 260 297 L 261 299 L 264 297 Z M 391 266 L 385 266 L 370 271 L 366 271 L 365 272 L 356 273 L 355 274 L 349 274 L 348 275 L 329 275 L 324 273 L 315 273 L 314 275 L 321 283 L 335 292 L 337 292 L 345 297 L 352 297 L 355 295 L 361 294 L 366 291 L 386 274 L 390 269 Z M 422 262 L 417 263 L 415 266 L 415 270 L 420 266 Z M 68 184 L 67 185 L 67 190 L 70 196 L 76 201 L 81 201 L 84 198 L 84 191 L 83 189 L 79 185 L 76 184 Z M 139 168 L 130 163 L 117 163 L 109 167 L 102 173 L 96 181 L 90 193 L 90 203 L 92 207 L 100 214 L 103 215 L 112 215 L 121 211 L 123 211 L 139 201 L 144 196 L 147 190 L 147 179 L 144 173 Z M 240 168 L 240 174 L 241 176 L 245 179 L 251 179 L 256 176 L 260 172 L 262 165 L 263 164 L 265 165 L 265 180 L 268 186 L 274 192 L 283 196 L 286 199 L 288 209 L 296 225 L 302 233 L 318 248 L 324 251 L 331 252 L 332 253 L 343 252 L 357 244 L 364 236 L 370 221 L 370 218 L 372 213 L 372 208 L 373 207 L 373 180 L 372 179 L 371 173 L 367 168 L 364 168 L 362 170 L 362 172 L 360 175 L 355 180 L 347 184 L 338 187 L 321 187 L 320 186 L 310 185 L 305 183 L 300 183 L 291 189 L 284 189 L 280 187 L 273 179 L 272 176 L 273 161 L 271 159 L 269 159 L 266 161 L 261 156 L 254 156 L 246 160 Z M 269 161 L 272 163 L 272 178 L 273 181 L 278 187 L 284 190 L 291 190 L 302 184 L 315 186 L 316 187 L 321 187 L 322 188 L 337 188 L 338 187 L 341 187 L 355 181 L 361 175 L 363 171 L 366 169 L 370 173 L 372 179 L 373 200 L 372 201 L 372 208 L 371 209 L 371 213 L 370 214 L 370 218 L 368 222 L 368 225 L 362 237 L 359 240 L 357 239 L 361 231 L 363 225 L 363 222 L 364 221 L 364 215 L 363 213 L 354 205 L 351 204 L 340 204 L 335 206 L 326 212 L 318 220 L 314 229 L 315 234 L 323 246 L 320 248 L 313 243 L 304 234 L 294 220 L 288 207 L 287 198 L 284 195 L 282 195 L 274 191 L 268 185 L 265 176 L 265 171 L 266 170 L 266 165 Z M 379 152 L 380 157 L 385 162 L 393 166 L 399 167 L 400 168 L 414 168 L 422 165 L 427 159 L 426 151 L 421 146 L 410 142 L 392 142 L 391 143 L 388 143 L 382 147 Z M 157 142 L 155 142 L 152 144 L 145 159 L 147 166 L 150 168 L 155 168 L 157 167 L 161 162 L 162 152 L 161 151 L 161 148 Z M 308 132 L 308 133 L 314 133 L 315 132 L 317 133 L 324 133 L 327 135 L 331 135 L 332 134 L 324 130 L 313 130 Z M 282 121 L 278 125 L 274 135 L 274 142 L 275 145 L 279 149 L 278 153 L 276 156 L 276 161 L 278 165 L 286 173 L 295 177 L 303 177 L 307 175 L 310 175 L 318 171 L 326 162 L 327 156 L 325 151 L 320 146 L 314 144 L 311 144 L 310 143 L 290 144 L 288 142 L 290 138 L 290 127 L 287 122 Z M 277 155 L 283 148 L 285 148 L 288 146 L 296 145 L 297 144 L 311 144 L 321 148 L 325 152 L 326 154 L 326 160 L 324 164 L 316 171 L 307 175 L 295 176 L 288 173 L 279 165 L 277 161 Z M 285 123 L 290 129 L 290 136 L 288 141 L 283 146 L 279 147 L 275 143 L 275 133 L 278 127 L 282 123 Z M 366 116 L 361 120 L 359 124 L 359 127 L 358 128 L 358 137 L 360 141 L 364 145 L 371 145 L 374 142 L 377 135 L 377 129 L 373 119 L 371 117 Z M 366 117 L 370 118 L 374 122 L 376 126 L 376 136 L 373 142 L 369 145 L 364 144 L 361 141 L 358 134 L 359 126 L 361 122 Z M 295 87 L 292 84 L 287 84 L 282 86 L 276 94 L 276 98 L 278 100 L 281 100 L 288 94 L 292 92 L 295 89 Z M 291 84 L 294 87 L 294 89 L 282 98 L 279 99 L 277 97 L 277 95 L 280 90 L 283 87 L 289 84 Z M 259 85 L 256 84 L 249 84 L 246 86 L 240 93 L 240 96 L 239 97 L 240 102 L 244 109 L 248 112 L 251 111 L 254 108 L 257 102 L 265 91 L 265 90 Z M 363 76 L 363 80 L 365 82 L 374 85 L 380 89 L 383 89 L 385 87 L 385 84 L 383 80 L 378 75 L 372 73 L 367 73 Z M 364 77 L 366 75 L 377 76 L 383 82 L 384 86 L 381 88 L 376 85 L 369 83 L 364 79 Z M 433 60 L 426 66 L 424 70 L 424 73 L 432 79 L 438 85 L 445 89 L 449 87 L 452 84 L 455 78 L 453 69 L 450 64 L 447 61 L 443 59 L 436 59 Z M 447 42 L 434 40 L 420 46 L 413 52 L 409 57 L 409 59 L 406 63 L 404 63 L 396 59 L 393 59 L 389 57 L 384 57 L 383 56 L 366 56 L 365 57 L 362 57 L 360 55 L 361 47 L 360 46 L 357 46 L 353 48 L 345 56 L 339 54 L 333 50 L 326 49 L 325 50 L 325 56 L 326 58 L 324 60 L 309 60 L 306 61 L 305 64 L 302 67 L 298 69 L 292 70 L 283 75 L 280 78 L 278 78 L 275 74 L 269 69 L 258 65 L 244 67 L 235 72 L 228 80 L 224 90 L 224 94 L 223 95 L 224 105 L 229 115 L 232 118 L 238 121 L 243 125 L 240 135 L 235 144 L 235 157 L 224 169 L 224 173 L 225 174 L 230 173 L 232 175 L 227 185 L 227 194 L 229 195 L 231 193 L 233 195 L 233 198 L 231 203 L 231 214 L 232 215 L 235 214 L 238 214 L 239 215 L 239 228 L 240 231 L 245 236 L 249 234 L 251 236 L 253 241 L 256 244 L 260 245 L 266 251 L 268 255 L 271 258 L 274 265 L 274 270 L 272 272 L 270 272 L 267 269 L 261 258 L 254 251 L 252 251 L 251 254 L 248 256 L 237 241 L 232 245 L 230 243 L 224 229 L 221 226 L 220 226 L 218 229 L 218 233 L 217 234 L 214 234 L 209 228 L 205 219 L 199 211 L 197 211 L 194 215 L 188 210 L 180 198 L 165 181 L 165 176 L 167 173 L 167 169 L 168 168 L 168 148 L 166 145 L 166 143 L 161 137 L 159 136 L 154 136 L 146 146 L 143 146 L 140 141 L 139 135 L 136 128 L 131 122 L 124 120 L 118 125 L 118 128 L 117 129 L 117 145 L 115 146 L 113 144 L 108 133 L 103 128 L 96 125 L 92 125 L 87 128 L 85 133 L 86 144 L 91 156 L 90 157 L 84 152 L 75 148 L 70 149 L 66 154 L 66 161 L 73 176 L 71 179 L 65 179 L 61 182 L 61 191 L 66 202 L 74 211 L 90 224 L 94 226 L 100 232 L 110 255 L 122 273 L 130 281 L 130 282 L 131 282 L 137 288 L 147 294 L 154 301 L 152 303 L 149 302 L 146 302 L 145 303 L 146 306 L 150 310 L 158 314 L 160 314 L 163 316 L 175 320 L 176 323 L 174 325 L 172 325 L 171 328 L 179 333 L 185 335 L 188 335 L 189 336 L 197 337 L 199 339 L 197 342 L 197 344 L 200 347 L 208 348 L 209 349 L 214 349 L 220 356 L 231 360 L 235 360 L 238 357 L 242 343 L 247 333 L 247 331 L 250 325 L 252 323 L 254 324 L 253 331 L 251 335 L 251 348 L 247 356 L 248 363 L 247 364 L 246 372 L 237 385 L 237 389 L 240 389 L 242 392 L 236 401 L 230 407 L 230 412 L 231 413 L 233 412 L 237 412 L 238 415 L 233 425 L 230 428 L 226 435 L 226 441 L 227 442 L 232 439 L 234 441 L 228 457 L 228 468 L 230 470 L 234 469 L 237 472 L 238 475 L 247 484 L 248 487 L 246 488 L 244 486 L 238 484 L 230 484 L 227 485 L 210 501 L 209 504 L 207 506 L 206 514 L 200 521 L 200 525 L 203 528 L 203 531 L 197 540 L 197 544 L 198 545 L 201 544 L 204 548 L 204 555 L 205 556 L 206 567 L 210 576 L 215 583 L 221 589 L 223 593 L 236 607 L 241 607 L 242 608 L 256 607 L 257 608 L 262 608 L 264 610 L 263 612 L 257 612 L 256 613 L 253 613 L 252 614 L 249 614 L 245 616 L 242 616 L 236 618 L 229 624 L 224 633 L 224 636 L 223 637 L 223 645 L 226 652 L 230 655 L 232 654 L 232 649 L 233 648 L 236 648 L 242 656 L 245 656 L 246 657 L 250 655 L 250 651 L 246 645 L 246 639 L 250 635 L 255 639 L 256 650 L 257 651 L 264 651 L 273 647 L 275 647 L 283 643 L 285 641 L 287 641 L 291 638 L 298 635 L 313 625 L 324 615 L 329 606 L 329 598 L 328 595 L 318 585 L 316 574 L 309 565 L 310 562 L 313 562 L 323 567 L 329 568 L 333 570 L 336 570 L 339 572 L 350 574 L 354 576 L 360 576 L 361 577 L 375 577 L 378 580 L 378 585 L 379 586 L 380 594 L 389 610 L 397 618 L 403 626 L 419 642 L 425 644 L 434 644 L 435 645 L 444 645 L 445 646 L 457 646 L 458 645 L 470 645 L 471 646 L 470 648 L 464 648 L 463 649 L 435 649 L 434 650 L 427 650 L 419 653 L 413 657 L 409 663 L 409 666 L 408 667 L 408 677 L 409 679 L 412 681 L 415 681 L 416 680 L 416 678 L 421 669 L 426 666 L 428 668 L 427 683 L 430 685 L 444 685 L 445 684 L 446 673 L 451 667 L 453 667 L 456 670 L 455 673 L 455 685 L 458 687 L 466 687 L 475 684 L 486 684 L 487 683 L 491 683 L 500 679 L 502 679 L 509 675 L 520 664 L 525 656 L 526 652 L 530 645 L 531 639 L 532 638 L 532 623 L 531 622 L 530 616 L 529 614 L 511 597 L 505 584 L 501 580 L 499 576 L 499 572 L 498 571 L 498 568 L 496 563 L 496 558 L 495 557 L 495 540 L 496 539 L 495 537 L 495 533 L 489 529 L 490 523 L 500 506 L 500 504 L 502 501 L 502 499 L 506 490 L 506 476 L 509 472 L 511 472 L 513 469 L 513 462 L 512 461 L 511 452 L 510 451 L 510 440 L 511 439 L 510 432 L 508 430 L 505 430 L 496 438 L 484 445 L 473 456 L 464 463 L 459 465 L 455 465 L 454 466 L 446 466 L 443 467 L 432 477 L 419 484 L 414 488 L 408 488 L 407 489 L 395 489 L 394 488 L 389 488 L 379 483 L 370 480 L 357 468 L 354 463 L 346 454 L 343 446 L 342 419 L 340 416 L 340 408 L 342 403 L 346 398 L 352 393 L 358 390 L 362 390 L 363 389 L 373 387 L 386 376 L 390 369 L 401 358 L 401 351 L 399 346 L 399 340 L 401 339 L 409 347 L 413 353 L 417 348 L 419 347 L 423 347 L 427 350 L 428 354 L 424 358 L 408 369 L 382 394 L 374 398 L 367 398 L 366 399 L 360 400 L 352 408 L 350 412 L 350 418 L 353 420 L 359 420 L 362 418 L 365 419 L 365 422 L 358 429 L 357 429 L 351 436 L 351 443 L 352 445 L 357 449 L 365 449 L 370 446 L 372 446 L 374 448 L 374 450 L 368 458 L 368 465 L 371 468 L 377 470 L 385 470 L 389 466 L 391 466 L 392 467 L 391 474 L 394 477 L 405 477 L 419 472 L 426 466 L 434 461 L 436 461 L 439 459 L 443 459 L 448 452 L 457 444 L 459 446 L 459 451 L 460 452 L 475 434 L 477 435 L 481 435 L 490 427 L 493 421 L 494 415 L 496 413 L 499 414 L 499 417 L 500 418 L 505 410 L 506 403 L 509 398 L 510 385 L 513 382 L 516 385 L 520 385 L 522 381 L 522 372 L 521 371 L 520 362 L 518 356 L 512 346 L 512 344 L 510 341 L 510 337 L 506 329 L 501 322 L 486 306 L 487 304 L 490 305 L 492 304 L 488 300 L 486 296 L 473 285 L 475 281 L 473 278 L 456 270 L 453 267 L 455 263 L 453 262 L 444 262 L 442 260 L 452 252 L 456 250 L 463 243 L 468 235 L 472 223 L 472 219 L 474 217 L 476 218 L 479 217 L 480 215 L 480 197 L 481 196 L 485 198 L 487 197 L 487 188 L 480 175 L 482 173 L 484 173 L 487 175 L 490 174 L 490 171 L 488 166 L 477 154 L 479 151 L 484 151 L 485 150 L 485 147 L 472 136 L 474 132 L 474 129 L 466 118 L 460 106 L 456 101 L 456 98 L 458 96 L 461 95 L 466 90 L 469 84 L 470 77 L 471 76 L 470 66 L 465 56 L 456 47 Z M 301 570 L 304 567 L 308 567 L 312 571 L 312 574 L 310 576 L 304 576 L 301 573 Z M 319 557 L 321 559 L 321 562 L 320 563 L 317 561 L 317 559 Z M 461 475 L 457 479 L 455 479 L 453 481 L 453 484 L 451 486 L 443 486 L 441 492 L 437 498 L 430 498 L 428 496 L 428 488 L 427 487 L 427 484 L 429 482 L 433 483 L 437 481 L 441 481 L 442 479 L 440 475 L 444 471 L 446 470 L 456 470 Z M 508 458 L 511 459 L 511 464 L 512 465 L 510 467 L 508 467 L 505 464 L 505 461 Z M 507 433 L 509 435 L 509 437 L 507 439 L 507 443 L 505 446 L 502 447 L 500 452 L 498 453 L 495 457 L 489 457 L 487 456 L 484 453 L 486 447 L 494 441 L 497 440 L 505 433 Z M 173 328 L 175 326 L 179 325 L 181 323 L 183 323 L 190 329 L 190 331 L 188 333 L 180 332 L 177 330 L 175 330 Z M 143 289 L 145 288 L 151 293 L 149 294 L 144 291 Z M 91 126 L 97 126 L 103 129 L 107 133 L 114 149 L 116 151 L 120 149 L 126 154 L 132 154 L 135 151 L 136 146 L 135 145 L 135 140 L 130 130 L 127 127 L 123 126 L 121 124 L 124 121 L 128 121 L 130 122 L 136 129 L 136 131 L 138 134 L 139 141 L 143 148 L 145 148 L 150 143 L 154 137 L 156 136 L 160 137 L 165 143 L 168 152 L 167 169 L 164 175 L 164 181 L 170 187 L 173 192 L 184 205 L 186 209 L 193 216 L 195 216 L 199 213 L 203 218 L 210 232 L 213 235 L 217 236 L 219 230 L 221 228 L 226 234 L 226 236 L 231 246 L 234 247 L 235 245 L 238 243 L 242 248 L 245 254 L 249 258 L 251 258 L 252 255 L 255 253 L 263 262 L 266 269 L 270 274 L 272 274 L 274 272 L 275 269 L 274 263 L 276 261 L 288 270 L 292 271 L 292 268 L 287 263 L 278 257 L 276 257 L 275 259 L 273 260 L 266 250 L 259 243 L 256 242 L 253 239 L 249 231 L 244 233 L 240 229 L 239 226 L 239 217 L 240 216 L 240 213 L 239 211 L 236 211 L 234 213 L 231 212 L 231 205 L 233 200 L 233 196 L 235 192 L 233 190 L 229 193 L 227 191 L 227 188 L 230 182 L 230 180 L 233 176 L 233 172 L 232 171 L 227 172 L 225 169 L 237 155 L 235 149 L 235 146 L 240 137 L 241 132 L 244 127 L 244 123 L 235 119 L 227 111 L 224 103 L 224 92 L 225 91 L 226 85 L 230 78 L 235 73 L 243 68 L 246 68 L 251 66 L 260 66 L 269 70 L 277 79 L 280 79 L 288 73 L 294 70 L 305 67 L 306 64 L 309 61 L 325 61 L 327 59 L 327 57 L 325 54 L 325 52 L 327 50 L 333 51 L 342 56 L 347 56 L 352 50 L 357 47 L 360 49 L 360 53 L 359 54 L 359 57 L 360 58 L 366 58 L 367 57 L 382 57 L 383 58 L 388 58 L 389 59 L 396 60 L 404 64 L 407 64 L 409 62 L 411 56 L 420 47 L 423 46 L 425 44 L 434 41 L 443 42 L 444 43 L 450 44 L 456 48 L 464 56 L 468 62 L 470 68 L 470 79 L 469 80 L 469 83 L 467 85 L 466 88 L 460 94 L 457 95 L 454 98 L 454 100 L 461 109 L 464 116 L 472 128 L 472 132 L 470 134 L 470 136 L 483 146 L 483 148 L 481 150 L 476 150 L 475 153 L 487 167 L 487 171 L 486 172 L 483 171 L 480 171 L 479 172 L 480 177 L 484 183 L 487 193 L 485 195 L 482 195 L 481 194 L 478 195 L 480 211 L 477 215 L 475 214 L 472 214 L 471 215 L 471 223 L 468 232 L 466 235 L 462 238 L 460 236 L 459 233 L 457 233 L 451 245 L 445 250 L 438 249 L 436 253 L 429 260 L 427 265 L 428 266 L 432 266 L 433 265 L 439 265 L 440 264 L 447 263 L 451 268 L 464 275 L 468 276 L 471 279 L 470 280 L 471 285 L 474 288 L 480 291 L 485 296 L 487 299 L 483 302 L 483 304 L 501 323 L 505 329 L 509 337 L 509 341 L 511 344 L 511 346 L 519 360 L 520 369 L 521 370 L 521 380 L 517 383 L 512 377 L 510 378 L 509 381 L 509 391 L 508 392 L 508 396 L 505 401 L 505 404 L 503 407 L 503 409 L 501 410 L 499 407 L 497 407 L 495 409 L 491 423 L 486 429 L 483 427 L 476 427 L 467 441 L 464 444 L 462 443 L 462 440 L 460 436 L 456 441 L 453 442 L 449 447 L 449 449 L 443 455 L 439 456 L 437 458 L 432 460 L 418 471 L 413 472 L 411 474 L 408 474 L 407 475 L 399 475 L 397 476 L 394 473 L 394 461 L 393 460 L 388 460 L 385 464 L 380 468 L 373 467 L 369 464 L 369 459 L 373 455 L 376 450 L 376 447 L 373 443 L 363 448 L 357 448 L 353 444 L 352 442 L 352 437 L 353 435 L 365 424 L 366 422 L 366 417 L 363 416 L 358 419 L 354 419 L 351 416 L 351 412 L 359 402 L 363 400 L 373 400 L 381 396 L 394 384 L 395 384 L 398 380 L 413 366 L 429 355 L 430 352 L 424 345 L 417 345 L 412 350 L 408 346 L 403 338 L 400 335 L 398 335 L 397 336 L 397 341 L 399 345 L 399 350 L 400 351 L 400 356 L 399 358 L 389 368 L 387 372 L 379 381 L 370 387 L 357 389 L 353 391 L 341 402 L 339 406 L 339 419 L 340 420 L 340 427 L 341 428 L 341 435 L 342 436 L 342 445 L 343 446 L 343 449 L 353 464 L 354 467 L 360 473 L 372 483 L 377 484 L 384 488 L 387 488 L 391 490 L 398 490 L 399 491 L 410 491 L 415 495 L 425 495 L 427 497 L 427 501 L 429 504 L 435 509 L 437 515 L 439 517 L 444 509 L 448 509 L 451 513 L 450 514 L 449 521 L 445 526 L 441 535 L 441 545 L 442 548 L 444 550 L 448 550 L 451 552 L 449 555 L 452 555 L 453 556 L 457 553 L 460 555 L 463 555 L 464 557 L 469 558 L 472 560 L 477 560 L 478 559 L 478 555 L 480 553 L 483 553 L 488 556 L 492 560 L 492 563 L 497 571 L 497 577 L 496 578 L 496 585 L 499 591 L 504 595 L 506 600 L 508 602 L 508 605 L 510 608 L 517 608 L 519 610 L 523 611 L 528 616 L 531 622 L 531 628 L 532 629 L 531 631 L 531 639 L 529 643 L 529 646 L 519 663 L 505 676 L 490 682 L 475 683 L 467 686 L 461 686 L 458 685 L 456 683 L 456 670 L 457 667 L 455 665 L 451 665 L 448 667 L 446 670 L 445 677 L 444 678 L 444 682 L 442 684 L 430 684 L 428 682 L 428 669 L 429 667 L 427 665 L 424 665 L 419 670 L 416 677 L 414 679 L 411 679 L 408 675 L 408 669 L 409 668 L 410 662 L 419 654 L 425 651 L 428 651 L 429 650 L 463 650 L 464 649 L 470 649 L 471 648 L 481 647 L 482 645 L 479 643 L 457 643 L 456 644 L 425 643 L 418 640 L 404 626 L 400 620 L 387 606 L 380 592 L 379 579 L 375 576 L 365 576 L 359 574 L 354 574 L 351 572 L 348 572 L 347 571 L 348 563 L 350 561 L 350 554 L 349 552 L 345 552 L 337 556 L 328 555 L 322 552 L 306 539 L 299 532 L 295 530 L 289 522 L 287 522 L 282 517 L 279 516 L 271 508 L 262 502 L 261 504 L 282 527 L 288 529 L 305 544 L 305 550 L 303 552 L 299 552 L 298 555 L 295 558 L 293 574 L 285 581 L 284 584 L 284 588 L 285 589 L 285 601 L 283 605 L 285 607 L 287 607 L 290 609 L 295 609 L 296 610 L 310 610 L 313 608 L 314 601 L 317 598 L 317 592 L 319 590 L 324 592 L 327 596 L 327 603 L 324 606 L 321 605 L 319 606 L 321 609 L 320 610 L 321 611 L 321 614 L 301 632 L 299 632 L 294 636 L 291 636 L 288 638 L 284 639 L 281 642 L 279 642 L 276 645 L 272 646 L 270 648 L 260 650 L 257 647 L 256 638 L 252 634 L 248 635 L 245 638 L 244 646 L 248 652 L 248 654 L 246 656 L 241 652 L 241 648 L 239 646 L 229 646 L 227 647 L 225 645 L 225 634 L 229 625 L 235 619 L 237 619 L 240 617 L 253 615 L 254 614 L 262 614 L 263 613 L 266 613 L 268 611 L 267 608 L 265 607 L 260 607 L 259 606 L 237 606 L 228 597 L 210 575 L 207 567 L 206 558 L 205 557 L 205 543 L 204 542 L 200 542 L 198 540 L 199 537 L 205 529 L 205 527 L 201 524 L 201 521 L 207 514 L 208 507 L 210 502 L 215 497 L 219 495 L 230 485 L 238 485 L 241 486 L 250 493 L 252 492 L 246 480 L 238 473 L 237 470 L 237 464 L 235 463 L 232 467 L 230 467 L 228 464 L 229 456 L 231 450 L 234 445 L 235 438 L 233 437 L 230 439 L 228 439 L 227 438 L 227 435 L 235 423 L 239 414 L 239 411 L 238 410 L 233 411 L 231 409 L 231 407 L 237 401 L 243 392 L 243 389 L 240 388 L 238 385 L 245 375 L 252 368 L 253 368 L 261 359 L 262 354 L 259 353 L 250 360 L 248 358 L 249 352 L 252 347 L 252 334 L 255 326 L 255 316 L 258 313 L 259 309 L 256 308 L 254 310 L 252 320 L 250 322 L 248 328 L 243 336 L 239 346 L 236 349 L 229 345 L 229 343 L 232 342 L 232 339 L 226 336 L 221 336 L 217 333 L 217 330 L 220 327 L 223 326 L 225 323 L 213 323 L 212 322 L 209 322 L 204 316 L 190 317 L 186 315 L 185 312 L 193 307 L 192 305 L 184 304 L 178 302 L 175 300 L 173 300 L 171 298 L 169 298 L 165 295 L 163 295 L 153 287 L 150 286 L 145 282 L 141 281 L 125 265 L 123 265 L 125 270 L 133 277 L 135 278 L 136 277 L 138 279 L 138 281 L 143 287 L 141 288 L 136 285 L 125 274 L 116 263 L 115 260 L 113 258 L 113 256 L 109 251 L 108 247 L 103 238 L 103 236 L 100 230 L 96 226 L 83 217 L 70 205 L 65 198 L 61 187 L 62 183 L 64 181 L 69 179 L 73 179 L 76 175 L 78 177 L 83 179 L 87 179 L 91 176 L 91 168 L 86 160 L 78 155 L 73 155 L 72 156 L 71 162 L 69 163 L 67 161 L 67 154 L 70 150 L 72 149 L 76 149 L 84 153 L 92 161 L 95 159 L 101 161 L 104 161 L 109 157 L 109 151 L 107 145 L 105 143 L 103 138 L 98 133 L 96 132 L 92 132 L 88 138 L 86 137 L 86 132 Z M 454 35 L 448 33 L 445 33 L 444 32 L 432 32 L 431 33 L 427 33 L 419 37 L 417 37 L 411 41 L 401 51 L 388 49 L 387 48 L 381 48 L 380 47 L 371 47 L 366 40 L 360 38 L 358 39 L 354 39 L 344 45 L 341 45 L 332 41 L 323 41 L 317 46 L 316 51 L 314 53 L 309 53 L 308 54 L 302 55 L 283 65 L 280 65 L 274 61 L 265 57 L 262 57 L 261 56 L 250 56 L 238 60 L 228 66 L 220 75 L 216 83 L 215 89 L 214 90 L 214 105 L 215 106 L 216 112 L 222 122 L 231 130 L 230 136 L 226 144 L 226 154 L 217 164 L 215 169 L 216 177 L 219 180 L 219 185 L 217 190 L 217 195 L 218 198 L 222 203 L 222 215 L 220 217 L 214 217 L 201 201 L 195 201 L 175 178 L 175 174 L 177 169 L 177 162 L 178 161 L 178 151 L 177 150 L 176 142 L 172 135 L 168 131 L 162 128 L 156 128 L 151 130 L 147 130 L 139 118 L 136 115 L 129 112 L 121 112 L 118 113 L 108 122 L 103 118 L 98 116 L 92 116 L 85 119 L 78 126 L 77 132 L 76 133 L 76 138 L 74 140 L 69 140 L 64 142 L 58 149 L 57 155 L 56 156 L 56 162 L 58 166 L 58 172 L 54 177 L 51 184 L 51 192 L 53 195 L 55 202 L 61 212 L 69 220 L 90 236 L 92 239 L 95 249 L 103 264 L 112 277 L 120 285 L 120 286 L 136 300 L 136 306 L 139 312 L 147 319 L 159 324 L 162 328 L 163 333 L 167 337 L 184 344 L 191 352 L 197 355 L 200 355 L 203 357 L 205 357 L 209 361 L 216 365 L 222 367 L 225 367 L 226 368 L 230 368 L 232 370 L 231 377 L 228 383 L 228 396 L 224 404 L 222 406 L 221 412 L 220 413 L 223 422 L 217 434 L 217 445 L 219 449 L 219 454 L 220 455 L 219 456 L 219 469 L 220 470 L 220 475 L 218 480 L 212 486 L 210 486 L 202 494 L 197 504 L 191 512 L 188 519 L 189 530 L 186 539 L 186 547 L 187 548 L 187 551 L 197 575 L 201 580 L 202 584 L 208 593 L 224 612 L 223 616 L 221 618 L 220 621 L 216 625 L 212 632 L 212 635 L 211 636 L 211 649 L 215 656 L 224 665 L 226 665 L 229 667 L 236 668 L 237 669 L 244 669 L 245 668 L 251 668 L 263 664 L 266 664 L 270 662 L 277 661 L 283 659 L 288 656 L 290 656 L 292 654 L 308 645 L 321 633 L 322 633 L 336 618 L 340 610 L 339 588 L 341 586 L 349 586 L 350 587 L 355 587 L 361 590 L 365 590 L 368 593 L 373 605 L 375 607 L 378 614 L 384 623 L 406 645 L 406 647 L 399 656 L 395 665 L 395 680 L 400 687 L 414 694 L 426 695 L 427 696 L 435 696 L 436 697 L 464 697 L 465 696 L 483 695 L 484 694 L 492 693 L 499 690 L 502 690 L 515 684 L 526 674 L 531 667 L 540 649 L 543 640 L 543 636 L 544 635 L 544 623 L 543 622 L 542 615 L 536 604 L 520 588 L 515 580 L 512 577 L 505 558 L 506 543 L 507 542 L 507 524 L 508 523 L 509 512 L 511 510 L 511 508 L 518 496 L 536 480 L 541 467 L 541 453 L 536 440 L 534 437 L 518 422 L 517 420 L 517 417 L 520 411 L 520 409 L 524 404 L 525 400 L 527 397 L 527 394 L 532 379 L 532 374 L 531 373 L 531 367 L 530 366 L 529 356 L 527 352 L 527 349 L 525 343 L 512 317 L 510 315 L 510 313 L 505 303 L 499 295 L 496 289 L 492 285 L 491 282 L 484 275 L 480 273 L 466 258 L 473 245 L 477 241 L 480 232 L 487 224 L 489 219 L 490 209 L 496 202 L 496 199 L 497 198 L 496 184 L 499 180 L 499 170 L 493 158 L 496 151 L 496 146 L 494 142 L 484 133 L 483 126 L 479 121 L 470 104 L 470 101 L 477 92 L 477 90 L 481 81 L 481 68 L 480 67 L 480 63 L 477 57 L 477 55 L 473 49 L 466 42 Z M 451 35 L 460 39 L 466 43 L 475 53 L 479 61 L 479 64 L 481 69 L 481 79 L 476 92 L 468 100 L 468 102 L 476 117 L 481 124 L 483 128 L 484 134 L 495 144 L 496 150 L 495 153 L 493 155 L 493 160 L 496 164 L 499 171 L 499 178 L 495 183 L 495 188 L 496 189 L 496 201 L 489 208 L 488 220 L 485 225 L 480 230 L 477 239 L 471 246 L 468 253 L 465 256 L 465 258 L 479 273 L 483 275 L 490 282 L 494 289 L 498 293 L 504 302 L 507 311 L 511 316 L 524 342 L 527 351 L 529 362 L 530 363 L 531 382 L 527 391 L 526 398 L 523 404 L 518 409 L 517 412 L 517 421 L 518 423 L 525 430 L 526 430 L 536 441 L 540 450 L 541 463 L 540 464 L 540 469 L 534 480 L 514 499 L 507 514 L 507 524 L 506 525 L 505 560 L 508 567 L 509 573 L 513 580 L 523 593 L 535 604 L 540 612 L 543 621 L 543 637 L 542 638 L 542 641 L 539 650 L 532 664 L 525 674 L 518 681 L 510 686 L 501 690 L 498 690 L 491 693 L 483 694 L 482 695 L 462 696 L 461 697 L 439 697 L 438 696 L 431 696 L 430 695 L 424 695 L 423 694 L 413 693 L 403 688 L 396 681 L 396 675 L 395 674 L 396 672 L 396 665 L 398 659 L 407 648 L 407 644 L 403 641 L 382 619 L 373 603 L 373 601 L 371 598 L 368 589 L 367 588 L 362 588 L 361 587 L 356 587 L 355 586 L 348 586 L 342 584 L 334 584 L 338 591 L 338 594 L 339 595 L 339 602 L 340 603 L 339 611 L 335 618 L 314 639 L 290 655 L 275 661 L 268 662 L 261 665 L 258 665 L 249 668 L 234 668 L 224 664 L 216 656 L 212 649 L 212 644 L 211 643 L 213 632 L 215 628 L 224 617 L 225 613 L 210 595 L 198 576 L 190 558 L 187 549 L 186 542 L 187 541 L 187 536 L 189 533 L 189 518 L 191 513 L 197 506 L 200 499 L 204 493 L 209 488 L 215 485 L 218 482 L 220 478 L 220 466 L 219 465 L 219 462 L 220 461 L 220 449 L 217 444 L 217 436 L 224 422 L 224 420 L 221 416 L 221 411 L 228 397 L 228 385 L 232 376 L 232 374 L 234 371 L 234 369 L 229 367 L 225 367 L 224 366 L 217 365 L 210 361 L 206 357 L 192 352 L 185 343 L 183 343 L 180 341 L 168 337 L 163 332 L 162 325 L 161 324 L 157 323 L 147 318 L 139 311 L 137 308 L 137 300 L 136 298 L 130 294 L 114 278 L 104 264 L 98 252 L 96 250 L 91 235 L 73 222 L 59 208 L 52 193 L 52 182 L 54 178 L 59 172 L 59 169 L 57 164 L 57 154 L 60 147 L 64 143 L 76 139 L 77 137 L 77 130 L 78 127 L 86 119 L 91 117 L 99 117 L 102 118 L 106 122 L 109 122 L 112 118 L 117 114 L 123 113 L 124 112 L 131 113 L 135 115 L 143 124 L 145 129 L 148 132 L 154 129 L 163 129 L 168 132 L 172 136 L 176 143 L 176 146 L 177 147 L 177 167 L 174 175 L 174 178 L 195 202 L 201 202 L 207 209 L 211 216 L 214 219 L 216 219 L 222 216 L 222 201 L 218 196 L 218 187 L 220 184 L 220 180 L 216 176 L 216 168 L 218 164 L 226 155 L 226 146 L 231 135 L 231 129 L 222 121 L 216 111 L 215 105 L 214 104 L 214 91 L 219 78 L 231 65 L 243 59 L 246 59 L 251 57 L 262 57 L 263 58 L 266 58 L 280 66 L 283 66 L 304 55 L 315 54 L 317 52 L 317 48 L 318 46 L 322 42 L 325 41 L 331 41 L 341 46 L 344 46 L 354 40 L 362 39 L 368 44 L 370 48 L 382 48 L 383 49 L 388 49 L 389 50 L 402 52 L 410 43 L 417 38 L 419 38 L 424 35 L 427 35 L 432 33 L 444 33 L 445 34 Z" fill="#B1B1B1" fill-rule="evenodd"/><path d="M 268 163 L 267 165 L 267 170 L 266 171 L 266 176 L 267 177 L 267 181 L 269 185 L 274 190 L 282 194 L 284 194 L 288 198 L 288 203 L 289 204 L 289 207 L 291 210 L 291 212 L 295 220 L 297 222 L 298 225 L 301 228 L 301 229 L 305 233 L 305 234 L 313 242 L 314 242 L 320 247 L 322 246 L 322 245 L 318 241 L 314 234 L 314 232 L 313 231 L 314 226 L 317 220 L 326 211 L 327 211 L 335 205 L 339 204 L 340 203 L 351 203 L 352 204 L 354 204 L 364 213 L 365 215 L 365 221 L 364 222 L 364 225 L 363 226 L 362 231 L 358 239 L 359 239 L 361 237 L 367 225 L 367 222 L 368 221 L 368 219 L 369 218 L 369 214 L 370 213 L 370 209 L 371 208 L 371 201 L 372 200 L 372 188 L 371 187 L 371 179 L 370 178 L 369 173 L 366 170 L 364 171 L 362 175 L 355 182 L 341 188 L 338 188 L 337 189 L 322 189 L 321 188 L 316 188 L 315 187 L 311 187 L 310 186 L 302 185 L 296 188 L 294 190 L 292 190 L 291 191 L 284 191 L 278 188 L 272 181 L 272 179 L 271 178 L 271 163 L 270 162 Z M 278 155 L 278 161 L 280 165 L 288 172 L 295 175 L 302 175 L 303 174 L 307 174 L 308 173 L 310 173 L 319 168 L 323 164 L 325 160 L 325 154 L 324 152 L 321 149 L 315 146 L 312 146 L 311 145 L 297 145 L 296 146 L 288 147 L 285 149 L 283 149 Z M 285 124 L 282 124 L 279 127 L 276 133 L 276 143 L 279 146 L 283 145 L 287 141 L 288 137 L 289 136 L 289 129 Z M 366 118 L 362 122 L 360 126 L 359 134 L 362 141 L 364 143 L 369 144 L 371 143 L 374 139 L 374 137 L 375 136 L 375 126 L 373 122 L 370 119 Z M 293 87 L 291 85 L 289 85 L 283 88 L 279 93 L 278 97 L 279 98 L 282 97 L 285 94 L 293 89 Z M 365 77 L 365 79 L 367 81 L 371 82 L 374 84 L 376 84 L 381 87 L 383 86 L 382 82 L 377 77 L 374 77 L 373 76 L 366 76 Z M 451 36 L 445 35 L 444 34 L 432 34 L 431 35 L 424 36 L 419 39 L 417 39 L 411 44 L 410 44 L 402 53 L 394 52 L 393 51 L 389 51 L 388 50 L 383 50 L 382 49 L 370 49 L 368 47 L 367 44 L 362 40 L 357 40 L 356 41 L 354 41 L 344 47 L 341 47 L 331 42 L 325 42 L 324 43 L 322 43 L 319 46 L 318 48 L 318 52 L 315 55 L 308 55 L 307 56 L 304 56 L 283 67 L 280 67 L 276 65 L 274 63 L 266 59 L 263 59 L 262 58 L 251 58 L 250 59 L 243 60 L 231 66 L 222 75 L 222 76 L 220 78 L 217 84 L 217 87 L 215 91 L 215 104 L 216 105 L 217 111 L 223 121 L 232 129 L 232 135 L 230 138 L 230 140 L 227 146 L 227 155 L 219 164 L 217 168 L 217 176 L 221 180 L 221 184 L 219 187 L 219 196 L 223 201 L 223 216 L 221 218 L 217 219 L 216 220 L 214 220 L 210 216 L 206 209 L 201 203 L 195 203 L 188 196 L 188 195 L 184 191 L 184 190 L 173 178 L 173 175 L 174 174 L 175 168 L 176 167 L 176 147 L 175 146 L 175 143 L 171 136 L 168 133 L 163 130 L 154 130 L 148 133 L 144 129 L 142 124 L 139 121 L 139 120 L 135 116 L 131 114 L 127 114 L 126 113 L 124 113 L 123 114 L 117 115 L 115 116 L 109 123 L 106 123 L 102 119 L 100 119 L 99 118 L 91 118 L 90 119 L 86 120 L 79 127 L 79 129 L 78 130 L 78 137 L 77 139 L 75 141 L 71 141 L 64 144 L 61 147 L 59 151 L 59 153 L 58 154 L 58 164 L 59 165 L 60 172 L 55 178 L 53 182 L 53 193 L 60 208 L 73 221 L 74 221 L 79 226 L 86 230 L 92 235 L 94 242 L 95 243 L 95 245 L 97 248 L 97 250 L 99 252 L 105 264 L 107 266 L 111 273 L 115 277 L 115 278 L 130 293 L 134 295 L 137 298 L 138 300 L 138 308 L 140 310 L 140 311 L 147 317 L 157 322 L 161 323 L 163 325 L 163 329 L 164 330 L 164 332 L 168 336 L 172 338 L 180 340 L 183 342 L 185 342 L 192 351 L 206 356 L 210 360 L 213 361 L 217 364 L 219 364 L 220 365 L 224 365 L 225 366 L 229 366 L 230 367 L 233 367 L 235 369 L 235 371 L 233 374 L 233 376 L 231 379 L 231 381 L 229 385 L 229 397 L 222 411 L 222 416 L 225 420 L 225 422 L 218 436 L 218 444 L 221 449 L 221 461 L 220 462 L 220 465 L 221 466 L 221 478 L 219 482 L 215 486 L 209 489 L 205 493 L 205 494 L 201 499 L 198 506 L 192 513 L 191 517 L 190 518 L 190 533 L 188 536 L 188 541 L 187 542 L 187 545 L 188 546 L 188 549 L 189 550 L 191 558 L 193 561 L 193 563 L 196 568 L 196 570 L 199 576 L 201 578 L 204 585 L 207 588 L 211 595 L 226 613 L 225 617 L 216 628 L 214 632 L 212 643 L 213 644 L 213 649 L 217 656 L 224 663 L 228 665 L 230 665 L 234 667 L 249 667 L 250 666 L 254 666 L 258 664 L 261 664 L 268 661 L 275 660 L 276 659 L 281 658 L 286 655 L 290 654 L 292 652 L 297 650 L 299 648 L 306 644 L 313 638 L 314 638 L 334 618 L 338 611 L 338 608 L 339 607 L 339 603 L 338 602 L 338 595 L 337 594 L 337 591 L 335 587 L 333 585 L 334 583 L 342 583 L 343 584 L 347 584 L 348 585 L 355 585 L 356 586 L 367 587 L 369 589 L 370 593 L 372 596 L 372 598 L 374 601 L 374 603 L 383 619 L 386 622 L 386 623 L 403 640 L 404 640 L 408 644 L 408 648 L 404 652 L 404 653 L 399 659 L 399 661 L 397 665 L 397 672 L 396 674 L 397 675 L 397 681 L 403 687 L 413 692 L 416 692 L 417 693 L 423 693 L 424 694 L 430 694 L 431 695 L 438 695 L 439 696 L 461 696 L 462 695 L 482 694 L 483 693 L 491 692 L 498 689 L 501 689 L 515 682 L 524 674 L 524 673 L 531 664 L 538 650 L 538 648 L 541 641 L 541 638 L 542 637 L 542 621 L 541 620 L 539 612 L 534 604 L 532 602 L 531 602 L 522 593 L 522 592 L 512 580 L 511 577 L 508 573 L 507 567 L 504 560 L 505 525 L 506 524 L 506 514 L 507 513 L 507 511 L 513 499 L 531 481 L 533 480 L 539 469 L 539 464 L 540 463 L 539 450 L 535 441 L 533 439 L 533 438 L 517 423 L 516 421 L 516 412 L 517 411 L 517 409 L 522 404 L 525 398 L 526 391 L 528 388 L 528 386 L 530 382 L 530 370 L 529 369 L 529 363 L 528 362 L 528 359 L 527 358 L 527 355 L 526 354 L 526 351 L 525 350 L 523 342 L 510 316 L 506 311 L 506 309 L 503 302 L 501 300 L 497 293 L 493 289 L 489 282 L 483 276 L 479 274 L 464 258 L 464 256 L 467 253 L 470 246 L 476 239 L 478 235 L 479 230 L 484 225 L 487 220 L 487 216 L 488 215 L 488 208 L 495 201 L 495 189 L 494 188 L 494 183 L 498 178 L 498 171 L 495 164 L 492 160 L 492 155 L 494 153 L 494 151 L 495 150 L 494 144 L 483 134 L 482 128 L 480 124 L 478 122 L 477 119 L 475 117 L 473 112 L 471 110 L 467 102 L 467 100 L 475 92 L 477 88 L 479 80 L 480 79 L 480 69 L 479 68 L 478 61 L 474 53 L 466 44 L 465 44 L 460 40 L 456 38 L 454 38 Z M 326 582 L 328 581 L 329 583 L 327 584 Z M 524 441 L 527 444 L 529 448 L 529 464 L 526 470 L 526 472 L 524 474 L 524 475 L 522 477 L 521 477 L 520 476 L 520 471 L 521 470 L 521 444 Z M 88 126 L 92 124 L 96 124 L 103 127 L 109 133 L 115 145 L 116 145 L 116 129 L 117 128 L 117 125 L 124 119 L 131 121 L 137 128 L 139 132 L 140 138 L 143 145 L 146 145 L 149 140 L 154 135 L 159 135 L 161 136 L 165 140 L 169 148 L 169 168 L 168 169 L 168 173 L 166 176 L 166 181 L 181 198 L 181 199 L 187 206 L 189 210 L 194 214 L 197 210 L 199 210 L 206 219 L 210 228 L 214 233 L 217 233 L 217 229 L 218 227 L 220 225 L 221 225 L 225 229 L 228 235 L 228 237 L 232 244 L 236 240 L 237 240 L 241 244 L 248 255 L 250 254 L 252 250 L 254 250 L 262 258 L 265 264 L 267 266 L 268 269 L 270 271 L 272 271 L 273 270 L 273 265 L 272 264 L 272 262 L 265 251 L 260 246 L 256 245 L 252 241 L 249 235 L 245 237 L 239 231 L 239 229 L 238 228 L 238 215 L 232 216 L 230 214 L 230 203 L 231 202 L 232 195 L 231 194 L 229 196 L 228 196 L 226 194 L 226 185 L 231 175 L 230 174 L 228 175 L 225 175 L 223 173 L 223 169 L 224 167 L 234 157 L 234 144 L 239 135 L 240 130 L 242 127 L 242 125 L 232 119 L 228 115 L 223 105 L 223 101 L 222 100 L 223 90 L 224 89 L 224 86 L 230 76 L 235 71 L 244 66 L 247 66 L 248 65 L 253 65 L 254 64 L 258 64 L 259 65 L 262 65 L 269 68 L 272 71 L 273 71 L 278 77 L 280 77 L 283 74 L 286 73 L 288 71 L 302 66 L 304 64 L 304 62 L 306 60 L 308 60 L 309 59 L 324 59 L 325 58 L 324 56 L 324 50 L 326 48 L 333 49 L 337 51 L 339 53 L 341 53 L 345 55 L 353 47 L 357 45 L 360 45 L 362 47 L 362 51 L 361 52 L 361 55 L 362 56 L 365 56 L 366 55 L 383 55 L 384 56 L 389 56 L 393 58 L 396 58 L 399 60 L 406 62 L 408 59 L 408 57 L 412 53 L 412 52 L 420 45 L 428 41 L 430 41 L 434 39 L 438 39 L 439 40 L 447 41 L 453 44 L 455 46 L 456 46 L 466 56 L 471 66 L 472 76 L 471 77 L 471 81 L 470 82 L 470 84 L 467 90 L 461 96 L 457 98 L 457 101 L 461 106 L 467 118 L 475 129 L 475 132 L 473 136 L 476 139 L 480 141 L 486 147 L 486 150 L 484 152 L 479 152 L 478 154 L 487 163 L 487 164 L 489 166 L 490 170 L 491 171 L 491 174 L 489 176 L 487 176 L 484 174 L 482 174 L 481 175 L 488 188 L 488 197 L 486 199 L 481 197 L 481 215 L 480 217 L 478 219 L 476 219 L 475 218 L 473 219 L 473 223 L 472 224 L 469 235 L 464 243 L 456 251 L 452 253 L 443 260 L 444 261 L 453 261 L 455 262 L 456 264 L 454 266 L 454 267 L 456 269 L 464 273 L 466 273 L 473 277 L 476 281 L 474 285 L 477 288 L 481 290 L 487 296 L 489 300 L 493 304 L 491 306 L 489 305 L 487 305 L 487 306 L 489 308 L 489 309 L 502 322 L 502 323 L 507 329 L 511 337 L 511 341 L 513 344 L 513 346 L 519 356 L 519 358 L 521 362 L 521 365 L 522 366 L 522 371 L 523 372 L 523 381 L 522 382 L 522 384 L 520 386 L 516 386 L 513 383 L 511 385 L 511 393 L 510 394 L 510 398 L 507 403 L 507 406 L 506 407 L 506 410 L 500 419 L 498 417 L 498 414 L 496 414 L 495 415 L 495 418 L 491 427 L 483 435 L 481 436 L 477 436 L 475 435 L 468 443 L 466 447 L 460 453 L 458 451 L 458 446 L 457 445 L 449 452 L 449 453 L 443 460 L 439 460 L 436 462 L 434 462 L 432 464 L 426 467 L 419 473 L 415 475 L 410 476 L 409 477 L 406 477 L 405 478 L 394 478 L 390 474 L 391 467 L 389 467 L 385 471 L 377 471 L 376 470 L 371 469 L 367 465 L 367 458 L 372 452 L 373 448 L 372 447 L 370 447 L 365 450 L 357 450 L 355 448 L 354 448 L 350 443 L 350 436 L 352 434 L 352 433 L 364 422 L 364 419 L 362 419 L 359 421 L 353 421 L 349 418 L 349 412 L 351 408 L 360 399 L 366 398 L 367 397 L 374 397 L 382 393 L 408 368 L 416 363 L 427 354 L 427 352 L 425 349 L 423 348 L 419 348 L 417 349 L 413 354 L 410 351 L 408 347 L 401 340 L 400 340 L 400 346 L 401 347 L 401 350 L 402 351 L 402 358 L 391 369 L 387 376 L 376 386 L 370 389 L 367 389 L 366 390 L 363 390 L 362 391 L 358 391 L 348 397 L 342 405 L 342 407 L 341 408 L 341 416 L 343 419 L 343 435 L 344 436 L 344 446 L 345 447 L 347 454 L 355 463 L 358 468 L 370 479 L 374 481 L 379 482 L 386 486 L 388 486 L 389 487 L 394 487 L 395 488 L 407 488 L 408 487 L 414 487 L 419 483 L 432 476 L 443 466 L 445 466 L 446 465 L 454 465 L 455 464 L 459 464 L 460 463 L 464 462 L 472 455 L 473 455 L 484 444 L 485 444 L 493 438 L 496 437 L 505 429 L 508 429 L 511 432 L 511 434 L 512 435 L 512 439 L 511 440 L 511 451 L 512 452 L 512 457 L 513 458 L 513 461 L 514 462 L 514 469 L 513 471 L 511 473 L 509 473 L 507 476 L 507 490 L 506 491 L 505 496 L 503 499 L 503 501 L 501 504 L 501 506 L 491 523 L 490 529 L 491 530 L 493 530 L 496 533 L 496 537 L 497 538 L 496 540 L 496 557 L 497 558 L 497 563 L 498 564 L 498 567 L 499 568 L 499 571 L 500 572 L 500 576 L 502 580 L 506 584 L 512 597 L 530 614 L 531 618 L 532 619 L 532 622 L 533 623 L 533 638 L 532 639 L 531 645 L 523 661 L 521 663 L 521 664 L 509 676 L 502 680 L 500 680 L 497 682 L 495 682 L 491 684 L 487 684 L 486 685 L 475 685 L 474 686 L 471 686 L 470 687 L 467 687 L 466 688 L 458 688 L 454 685 L 454 673 L 455 672 L 455 670 L 453 668 L 451 668 L 447 673 L 447 676 L 446 677 L 446 684 L 444 686 L 430 686 L 426 683 L 427 668 L 425 667 L 423 669 L 422 669 L 417 678 L 417 680 L 415 682 L 412 682 L 410 681 L 407 677 L 407 667 L 408 666 L 408 663 L 410 659 L 419 652 L 426 650 L 427 649 L 434 649 L 435 648 L 463 648 L 464 647 L 470 647 L 470 646 L 445 647 L 444 646 L 425 645 L 424 644 L 421 644 L 419 643 L 402 626 L 402 625 L 396 619 L 396 618 L 388 610 L 379 594 L 379 592 L 378 591 L 378 586 L 377 585 L 377 580 L 375 578 L 361 578 L 360 577 L 354 577 L 350 575 L 339 573 L 336 571 L 333 571 L 329 569 L 323 568 L 313 563 L 310 563 L 310 565 L 317 574 L 317 576 L 318 577 L 318 583 L 319 585 L 329 595 L 329 597 L 330 598 L 330 606 L 325 615 L 313 626 L 312 626 L 303 633 L 291 639 L 289 641 L 285 642 L 283 644 L 275 648 L 273 648 L 270 650 L 268 650 L 264 652 L 257 652 L 255 650 L 254 639 L 251 636 L 250 636 L 247 639 L 247 645 L 249 649 L 251 651 L 251 655 L 249 657 L 247 658 L 245 657 L 242 657 L 239 654 L 236 649 L 233 649 L 233 654 L 231 656 L 228 655 L 225 652 L 222 645 L 222 637 L 223 636 L 223 633 L 228 624 L 234 618 L 236 617 L 238 617 L 242 615 L 245 615 L 249 613 L 256 612 L 257 611 L 263 611 L 263 610 L 262 609 L 257 609 L 256 608 L 247 608 L 246 609 L 236 608 L 227 599 L 227 598 L 222 593 L 220 589 L 214 583 L 214 582 L 209 576 L 205 567 L 204 556 L 203 555 L 203 548 L 201 545 L 199 545 L 198 546 L 196 544 L 196 540 L 199 536 L 200 533 L 202 531 L 202 528 L 199 525 L 199 521 L 205 514 L 205 512 L 206 511 L 206 506 L 208 504 L 209 501 L 227 484 L 229 484 L 230 483 L 238 483 L 239 484 L 242 484 L 247 487 L 246 484 L 237 475 L 236 472 L 234 470 L 230 471 L 227 468 L 227 457 L 228 456 L 228 454 L 229 453 L 229 451 L 230 450 L 230 448 L 232 445 L 233 441 L 232 440 L 227 443 L 225 441 L 225 435 L 229 428 L 232 425 L 237 415 L 237 413 L 233 413 L 231 414 L 229 412 L 229 407 L 235 401 L 235 400 L 238 397 L 239 394 L 241 392 L 240 390 L 237 390 L 236 389 L 236 385 L 243 376 L 245 372 L 246 364 L 247 363 L 247 359 L 246 358 L 246 356 L 250 348 L 250 335 L 252 331 L 253 324 L 251 325 L 248 331 L 248 333 L 245 338 L 245 340 L 243 343 L 239 357 L 235 361 L 231 361 L 230 360 L 227 360 L 220 357 L 214 350 L 209 350 L 208 349 L 203 349 L 202 348 L 200 348 L 196 344 L 196 342 L 198 340 L 197 338 L 185 336 L 173 331 L 170 328 L 170 326 L 172 324 L 174 324 L 175 323 L 175 321 L 171 319 L 163 317 L 160 315 L 158 315 L 150 311 L 145 306 L 144 303 L 146 301 L 149 301 L 150 302 L 152 302 L 153 301 L 147 295 L 137 289 L 131 283 L 130 283 L 129 281 L 121 273 L 121 272 L 118 269 L 118 268 L 112 260 L 111 257 L 109 255 L 99 232 L 94 227 L 90 225 L 75 212 L 74 212 L 67 205 L 60 191 L 60 182 L 65 178 L 71 178 L 72 177 L 70 173 L 70 171 L 67 166 L 67 164 L 65 161 L 65 154 L 66 152 L 70 148 L 75 147 L 84 151 L 90 156 L 87 150 L 87 148 L 85 144 L 85 140 L 84 139 L 84 133 L 85 132 L 86 128 Z" fill="#010101" fill-rule="evenodd"/></svg>