<svg xmlns="http://www.w3.org/2000/svg" viewBox="0 0 653 704" shape-rendering="geometricPrecision"><title>intro frame 035</title><path d="M 419 378 L 418 379 L 418 382 L 415 385 L 410 387 L 407 394 L 407 397 L 412 401 L 424 405 L 422 401 L 422 397 L 424 395 L 424 393 L 421 390 L 421 388 L 424 385 L 425 386 L 426 383 L 422 378 Z M 451 366 L 452 371 L 454 373 L 455 372 L 453 366 Z M 626 329 L 626 333 L 628 336 L 627 338 L 629 338 L 630 336 L 628 334 Z M 270 146 L 269 148 L 269 157 L 270 160 L 274 165 L 278 167 L 286 167 L 292 162 L 289 158 L 282 157 L 279 155 L 271 147 L 271 146 Z M 61 156 L 60 160 L 67 173 L 88 193 L 95 197 L 99 201 L 102 208 L 113 223 L 137 250 L 159 267 L 163 268 L 172 273 L 174 273 L 183 277 L 186 277 L 192 282 L 192 285 L 190 287 L 186 288 L 187 290 L 200 289 L 203 293 L 208 296 L 211 296 L 212 297 L 214 296 L 224 296 L 226 298 L 226 301 L 223 304 L 219 306 L 217 309 L 220 310 L 229 310 L 230 309 L 232 303 L 235 300 L 234 297 L 235 296 L 235 293 L 237 291 L 237 289 L 240 285 L 240 283 L 242 281 L 244 275 L 249 270 L 252 261 L 255 259 L 258 255 L 258 249 L 255 243 L 250 237 L 249 239 L 245 242 L 239 236 L 235 228 L 228 229 L 226 227 L 223 221 L 223 219 L 218 210 L 217 210 L 216 214 L 214 216 L 210 215 L 203 206 L 202 203 L 200 201 L 198 195 L 195 191 L 192 194 L 189 194 L 186 191 L 183 185 L 172 172 L 168 165 L 160 155 L 160 149 L 162 147 L 163 137 L 162 137 L 160 141 L 157 144 L 149 145 L 145 143 L 142 139 L 142 136 L 141 135 L 142 128 L 144 126 L 144 124 L 142 125 L 139 121 L 137 120 L 137 125 L 132 130 L 124 129 L 121 126 L 115 127 L 113 125 L 111 125 L 110 130 L 107 133 L 103 135 L 95 135 L 92 137 L 92 146 L 87 152 L 85 153 L 81 153 L 75 151 L 75 153 L 79 154 L 85 159 L 86 164 L 87 164 L 89 157 L 97 145 L 105 137 L 113 133 L 116 133 L 117 132 L 125 132 L 131 135 L 133 135 L 142 143 L 145 147 L 147 153 L 147 157 L 148 158 L 147 165 L 145 169 L 134 179 L 127 182 L 121 186 L 109 190 L 99 190 L 92 186 L 86 179 L 86 176 L 85 175 L 86 171 L 81 175 L 72 173 L 65 166 L 63 162 L 63 157 L 67 154 L 67 153 L 64 153 Z M 201 280 L 201 278 L 203 276 L 206 275 L 212 275 L 213 276 L 213 279 L 210 282 L 205 282 Z M 443 25 L 436 24 L 435 23 L 428 23 L 419 26 L 413 30 L 408 35 L 406 39 L 406 42 L 403 46 L 400 46 L 397 44 L 394 44 L 385 41 L 373 40 L 372 39 L 361 39 L 360 40 L 354 41 L 351 38 L 351 35 L 353 31 L 352 30 L 342 38 L 336 38 L 331 34 L 323 31 L 322 33 L 325 37 L 325 40 L 321 43 L 305 43 L 300 49 L 296 49 L 291 52 L 287 53 L 285 55 L 282 56 L 274 63 L 271 62 L 269 60 L 269 58 L 267 55 L 261 50 L 257 48 L 255 49 L 253 48 L 244 48 L 238 50 L 230 55 L 223 65 L 221 71 L 221 85 L 222 87 L 231 97 L 233 98 L 239 98 L 241 100 L 241 106 L 231 126 L 231 129 L 233 133 L 232 137 L 222 148 L 222 149 L 223 148 L 229 148 L 231 150 L 230 155 L 228 157 L 224 166 L 224 168 L 230 167 L 232 169 L 232 172 L 228 182 L 228 190 L 231 188 L 234 188 L 237 191 L 237 196 L 236 197 L 236 206 L 237 207 L 237 210 L 239 211 L 243 208 L 246 211 L 247 216 L 250 219 L 252 219 L 263 231 L 275 235 L 281 239 L 288 246 L 290 252 L 286 255 L 280 251 L 271 248 L 270 250 L 264 255 L 260 262 L 260 265 L 256 268 L 257 275 L 249 280 L 246 283 L 246 285 L 248 287 L 248 290 L 242 296 L 242 305 L 240 307 L 240 309 L 238 312 L 238 317 L 237 318 L 236 326 L 232 334 L 234 335 L 237 332 L 239 332 L 242 330 L 246 330 L 248 332 L 248 335 L 244 342 L 236 350 L 229 355 L 228 358 L 224 363 L 223 367 L 227 370 L 227 374 L 218 385 L 214 392 L 215 393 L 221 392 L 223 394 L 222 400 L 219 404 L 216 411 L 214 413 L 214 415 L 211 421 L 213 421 L 216 418 L 218 418 L 220 420 L 220 425 L 215 440 L 214 450 L 215 450 L 220 444 L 223 446 L 223 463 L 222 464 L 222 468 L 226 465 L 228 465 L 230 467 L 230 477 L 229 480 L 231 484 L 231 487 L 233 490 L 235 490 L 235 488 L 245 478 L 250 474 L 253 473 L 262 465 L 265 464 L 282 452 L 293 448 L 305 448 L 306 447 L 316 447 L 317 446 L 330 446 L 331 447 L 345 447 L 347 446 L 349 448 L 355 448 L 360 450 L 368 451 L 374 454 L 377 454 L 383 458 L 385 458 L 393 467 L 391 469 L 388 469 L 385 467 L 381 467 L 378 465 L 366 464 L 365 463 L 355 463 L 354 462 L 325 462 L 324 463 L 305 465 L 301 467 L 301 470 L 296 474 L 280 474 L 279 476 L 281 478 L 280 480 L 275 484 L 257 487 L 258 489 L 263 490 L 265 493 L 261 497 L 257 499 L 248 500 L 245 502 L 238 514 L 233 518 L 218 536 L 210 544 L 210 545 L 214 547 L 219 553 L 220 558 L 217 562 L 215 562 L 209 558 L 201 551 L 199 551 L 195 548 L 177 540 L 163 539 L 157 541 L 150 546 L 150 547 L 161 547 L 164 546 L 167 547 L 172 552 L 173 555 L 177 557 L 186 557 L 188 558 L 191 561 L 191 568 L 188 572 L 187 578 L 191 580 L 200 589 L 203 590 L 222 609 L 223 611 L 228 614 L 236 614 L 239 613 L 242 609 L 245 602 L 248 599 L 255 599 L 259 595 L 261 595 L 268 588 L 270 588 L 274 585 L 278 585 L 281 582 L 283 582 L 286 580 L 305 562 L 306 562 L 310 557 L 311 557 L 318 550 L 324 547 L 326 544 L 335 543 L 338 539 L 340 539 L 343 537 L 348 537 L 349 536 L 358 535 L 360 533 L 364 532 L 370 527 L 373 527 L 376 524 L 378 524 L 386 519 L 393 518 L 403 510 L 404 506 L 412 494 L 414 494 L 417 497 L 420 494 L 420 492 L 422 491 L 425 495 L 438 483 L 439 479 L 447 473 L 448 462 L 449 461 L 448 459 L 448 453 L 451 449 L 451 445 L 449 441 L 447 442 L 447 450 L 444 454 L 439 454 L 431 446 L 432 440 L 436 436 L 436 434 L 435 432 L 431 429 L 430 426 L 429 426 L 428 424 L 426 424 L 426 427 L 427 428 L 424 432 L 422 433 L 417 433 L 416 435 L 419 437 L 425 444 L 423 447 L 414 446 L 407 440 L 406 435 L 402 430 L 404 428 L 415 429 L 416 430 L 419 426 L 423 424 L 417 414 L 413 410 L 408 408 L 403 408 L 397 406 L 394 403 L 394 400 L 397 397 L 400 396 L 400 390 L 396 386 L 383 386 L 378 384 L 369 384 L 363 386 L 360 383 L 359 379 L 361 374 L 363 372 L 371 371 L 376 374 L 377 373 L 393 374 L 402 380 L 404 380 L 404 373 L 399 369 L 396 369 L 394 367 L 394 363 L 395 362 L 399 362 L 400 359 L 393 353 L 390 353 L 386 355 L 381 349 L 381 347 L 375 339 L 375 337 L 372 333 L 366 328 L 362 327 L 360 329 L 355 329 L 351 326 L 347 325 L 344 322 L 342 322 L 339 319 L 335 319 L 329 326 L 326 323 L 325 320 L 330 315 L 333 315 L 339 307 L 342 308 L 343 310 L 353 318 L 360 322 L 361 319 L 364 316 L 370 317 L 386 335 L 389 335 L 390 334 L 393 334 L 399 332 L 402 335 L 404 339 L 404 343 L 398 348 L 401 357 L 415 367 L 416 366 L 425 366 L 431 369 L 435 373 L 437 377 L 436 391 L 438 393 L 439 397 L 435 400 L 432 400 L 431 399 L 437 409 L 435 411 L 431 411 L 429 410 L 429 411 L 436 422 L 436 424 L 442 429 L 443 431 L 443 435 L 445 436 L 445 434 L 447 432 L 445 428 L 447 425 L 444 424 L 441 420 L 445 415 L 445 413 L 441 410 L 441 407 L 443 405 L 448 405 L 453 407 L 460 412 L 463 412 L 463 409 L 452 398 L 443 386 L 443 385 L 447 382 L 453 382 L 454 380 L 453 376 L 449 377 L 445 373 L 444 370 L 430 357 L 430 355 L 437 347 L 437 342 L 435 338 L 435 327 L 436 325 L 439 322 L 441 323 L 448 323 L 449 324 L 451 323 L 450 320 L 446 319 L 442 315 L 441 310 L 443 308 L 450 309 L 453 311 L 460 312 L 461 313 L 497 313 L 498 314 L 508 314 L 513 317 L 521 317 L 533 325 L 538 327 L 544 333 L 548 335 L 552 335 L 554 337 L 558 338 L 562 342 L 562 348 L 564 354 L 571 362 L 576 362 L 578 361 L 577 359 L 577 352 L 582 347 L 587 348 L 603 360 L 609 360 L 612 357 L 612 350 L 608 346 L 608 340 L 611 336 L 611 333 L 613 331 L 617 330 L 619 327 L 623 324 L 622 321 L 624 319 L 624 316 L 628 313 L 628 312 L 625 310 L 625 306 L 628 304 L 628 301 L 622 296 L 619 291 L 613 288 L 605 281 L 601 276 L 601 272 L 598 273 L 596 271 L 593 271 L 592 269 L 590 269 L 583 262 L 583 260 L 580 259 L 576 255 L 567 254 L 561 251 L 558 248 L 558 242 L 556 241 L 551 241 L 549 243 L 547 242 L 534 242 L 528 237 L 530 235 L 531 232 L 533 231 L 532 230 L 528 230 L 527 231 L 524 231 L 515 234 L 511 234 L 510 235 L 505 235 L 502 232 L 503 229 L 505 227 L 503 226 L 502 227 L 493 228 L 490 230 L 488 230 L 477 237 L 474 237 L 472 235 L 472 232 L 474 230 L 471 229 L 466 232 L 462 232 L 460 234 L 454 235 L 443 241 L 436 243 L 427 249 L 424 250 L 417 249 L 410 256 L 407 256 L 405 254 L 405 249 L 402 251 L 401 254 L 397 258 L 395 258 L 393 256 L 396 244 L 400 240 L 407 236 L 413 228 L 415 227 L 416 228 L 419 225 L 421 221 L 423 221 L 424 223 L 429 221 L 427 219 L 426 213 L 428 211 L 431 210 L 433 204 L 437 204 L 441 202 L 441 200 L 436 194 L 436 192 L 437 191 L 444 191 L 447 192 L 446 189 L 447 182 L 449 180 L 452 180 L 455 182 L 456 181 L 455 179 L 450 175 L 450 172 L 452 170 L 455 169 L 455 167 L 452 164 L 450 159 L 452 157 L 458 159 L 461 158 L 471 158 L 472 157 L 471 152 L 474 149 L 480 151 L 480 149 L 469 138 L 468 135 L 466 133 L 466 130 L 468 128 L 474 126 L 471 123 L 468 122 L 462 116 L 462 110 L 463 108 L 461 105 L 461 103 L 458 100 L 458 98 L 451 86 L 444 79 L 446 75 L 448 75 L 450 73 L 453 73 L 458 69 L 462 62 L 462 59 L 463 58 L 463 48 L 462 47 L 462 44 L 455 34 L 451 30 Z M 244 458 L 246 458 L 249 462 L 248 472 L 246 474 L 242 471 L 242 461 Z M 242 433 L 244 435 L 243 443 L 241 448 L 238 451 L 236 449 L 236 440 Z M 354 423 L 358 423 L 363 427 L 362 429 L 362 433 L 361 434 L 358 434 L 356 438 L 353 436 L 353 430 L 352 429 L 352 425 Z M 240 417 L 242 419 L 241 423 L 235 431 L 231 435 L 229 435 L 228 434 L 228 430 L 230 426 L 238 417 Z M 367 401 L 369 401 L 373 404 L 373 407 L 371 411 L 368 410 L 366 408 L 366 404 L 365 403 Z M 241 398 L 243 400 L 242 406 L 239 409 L 238 412 L 234 416 L 232 416 L 230 414 L 231 409 L 234 404 L 240 398 Z M 262 372 L 257 378 L 254 378 L 253 377 L 253 374 L 257 372 L 258 373 L 260 371 Z M 297 363 L 299 367 L 295 369 L 292 373 L 291 372 L 289 373 L 287 370 L 293 364 Z M 341 357 L 346 358 L 351 363 L 347 372 L 348 385 L 347 387 L 344 389 L 341 387 L 339 384 L 338 380 L 333 374 L 333 366 Z M 314 351 L 316 354 L 316 357 L 315 359 L 311 362 L 309 360 L 309 355 Z M 284 352 L 281 358 L 277 360 L 270 368 L 267 369 L 264 368 L 264 365 L 271 358 L 271 357 L 279 350 Z M 328 349 L 331 353 L 327 357 L 326 359 L 326 363 L 323 366 L 323 371 L 320 375 L 318 373 L 318 363 L 319 362 L 319 358 L 320 355 L 322 353 L 322 351 L 324 349 Z M 282 348 L 283 347 L 286 347 L 287 349 L 284 351 Z M 265 342 L 265 341 L 272 335 L 279 335 L 281 337 L 277 342 L 274 342 L 271 344 L 268 344 Z M 310 335 L 310 340 L 308 342 L 299 343 L 296 345 L 294 343 L 294 341 L 296 340 L 301 334 L 308 333 Z M 275 313 L 278 316 L 277 320 L 267 329 L 265 329 L 263 327 L 265 321 L 270 315 Z M 389 308 L 392 308 L 413 328 L 416 334 L 416 338 L 414 340 L 409 340 L 402 334 L 400 329 L 398 327 L 398 325 L 389 315 L 388 312 L 388 309 Z M 354 302 L 359 303 L 363 306 L 363 310 L 364 311 L 361 315 L 358 315 L 352 310 L 353 303 Z M 319 303 L 319 305 L 315 310 L 308 315 L 301 316 L 293 320 L 290 320 L 287 317 L 287 316 L 293 310 L 293 308 L 300 302 L 303 304 L 303 306 L 306 306 L 309 303 L 311 303 L 315 300 Z M 342 287 L 344 289 L 343 296 L 337 303 L 335 303 L 328 296 L 328 293 L 329 291 L 332 289 L 335 289 L 338 287 Z M 398 286 L 403 288 L 410 288 L 412 290 L 416 291 L 423 298 L 424 301 L 426 303 L 427 314 L 420 322 L 413 322 L 405 317 L 394 307 L 394 304 L 396 302 L 402 302 L 411 306 L 414 305 L 414 300 L 407 294 L 401 294 L 400 293 L 398 294 L 396 292 L 396 288 Z M 389 244 L 389 250 L 376 263 L 368 269 L 367 273 L 369 275 L 371 275 L 373 272 L 373 270 L 375 268 L 377 270 L 380 279 L 379 281 L 379 285 L 377 287 L 374 286 L 372 288 L 366 288 L 365 287 L 362 288 L 358 285 L 353 279 L 348 281 L 339 280 L 335 277 L 330 275 L 317 265 L 313 263 L 306 255 L 306 251 L 309 248 L 315 248 L 322 251 L 341 252 L 342 251 L 350 251 L 351 250 L 355 250 L 360 248 L 364 248 L 381 242 L 387 242 Z M 371 133 L 374 127 L 378 123 L 388 119 L 403 119 L 404 120 L 411 121 L 419 126 L 424 134 L 424 139 L 421 145 L 413 150 L 410 151 L 396 151 L 395 150 L 391 150 L 385 148 L 375 142 L 372 138 Z M 293 114 L 298 109 L 300 109 L 303 107 L 318 106 L 319 107 L 323 107 L 326 109 L 328 109 L 331 113 L 331 116 L 329 118 L 319 117 L 314 115 L 308 115 L 302 117 L 296 117 Z M 278 100 L 282 101 L 287 106 L 287 117 L 285 119 L 286 122 L 294 121 L 295 120 L 302 120 L 303 121 L 310 122 L 317 125 L 324 133 L 324 139 L 318 148 L 308 155 L 299 158 L 299 159 L 302 159 L 306 162 L 311 164 L 317 164 L 321 166 L 328 166 L 329 165 L 339 163 L 348 158 L 353 154 L 359 146 L 363 147 L 369 154 L 369 158 L 370 159 L 370 170 L 371 173 L 370 174 L 370 190 L 369 191 L 369 196 L 367 202 L 360 217 L 357 221 L 350 228 L 341 234 L 335 235 L 334 236 L 325 236 L 313 231 L 306 226 L 293 213 L 290 207 L 287 204 L 287 202 L 285 200 L 284 196 L 281 191 L 281 187 L 280 186 L 280 181 L 277 177 L 272 176 L 267 173 L 260 165 L 260 163 L 258 161 L 258 152 L 257 152 L 250 159 L 246 161 L 238 161 L 236 160 L 232 155 L 232 151 L 231 150 L 232 145 L 237 138 L 241 135 L 249 132 L 255 132 L 259 134 L 262 137 L 268 137 L 269 136 L 269 133 L 272 129 L 267 124 L 267 113 L 271 105 L 274 102 Z M 360 95 L 364 95 L 370 99 L 372 102 L 373 109 L 374 110 L 373 118 L 370 124 L 365 128 L 360 128 L 358 127 L 353 122 L 351 117 L 351 107 L 354 100 Z M 288 61 L 292 65 L 292 70 L 289 73 L 287 73 L 276 81 L 271 80 L 268 76 L 269 71 L 279 62 L 282 61 Z M 255 60 L 263 68 L 263 70 L 257 77 L 250 89 L 245 93 L 241 93 L 233 85 L 232 82 L 232 73 L 233 70 L 240 62 L 247 59 Z M 356 55 L 360 52 L 368 52 L 377 56 L 382 61 L 382 67 L 379 70 L 376 71 L 369 67 L 362 65 L 356 61 L 355 59 Z M 430 35 L 438 35 L 446 41 L 452 51 L 452 61 L 444 70 L 440 72 L 438 72 L 416 53 L 416 50 L 419 44 L 426 37 Z" fill="#FBFBFB" fill-rule="evenodd"/><path d="M 281 624 L 270 629 L 253 645 L 247 649 L 241 651 L 248 649 L 250 647 L 255 645 L 258 641 L 270 630 Z M 534 622 L 535 625 L 537 627 L 541 627 L 543 625 L 542 622 L 539 620 L 537 620 Z M 466 620 L 476 620 L 477 621 L 488 620 L 489 621 L 492 621 L 495 623 L 492 620 Z M 512 617 L 511 620 L 514 623 L 512 625 L 514 629 L 519 634 L 522 634 L 522 633 L 516 628 L 516 617 L 515 616 Z M 355 579 L 361 575 L 364 575 L 388 595 L 391 596 L 399 603 L 406 607 L 399 603 L 385 591 L 373 583 L 366 576 L 361 575 Z M 166 548 L 170 551 L 171 553 L 171 557 L 173 560 L 176 561 L 180 558 L 186 558 L 177 558 L 173 556 L 171 552 Z M 162 539 L 157 540 L 148 545 L 146 548 L 147 549 L 157 550 L 162 547 L 164 547 L 161 548 L 150 548 L 149 547 L 152 543 L 155 542 L 157 540 Z M 245 479 L 236 488 L 235 491 L 233 491 L 231 488 L 234 494 L 236 493 L 236 491 L 239 485 Z M 309 464 L 293 463 L 293 464 L 298 468 L 298 470 L 295 473 L 279 473 L 277 474 L 276 476 L 279 479 L 278 481 L 280 478 L 278 475 L 280 473 L 296 473 L 300 470 L 300 467 L 305 464 Z M 244 459 L 243 461 L 243 471 L 246 473 L 247 472 L 248 462 L 246 459 Z M 281 454 L 286 451 L 292 450 L 293 449 L 309 449 L 310 448 L 347 448 L 348 449 L 354 449 L 355 450 L 359 450 L 360 451 L 367 452 L 376 455 L 379 457 L 381 457 L 383 459 L 386 460 L 390 464 L 390 466 L 389 467 L 386 467 L 382 465 L 379 465 L 381 466 L 385 466 L 388 468 L 391 468 L 392 467 L 385 459 L 383 459 L 377 455 L 374 455 L 368 452 L 360 451 L 355 449 L 349 449 L 347 447 L 345 448 L 317 447 L 316 448 L 306 448 L 305 449 L 293 449 L 292 450 L 286 451 Z M 220 445 L 215 451 L 213 450 L 213 448 L 213 452 L 214 453 L 219 447 L 222 448 L 221 473 L 222 473 L 226 468 L 228 468 L 229 469 L 229 477 L 229 467 L 226 466 L 223 469 L 221 468 L 221 464 L 222 463 L 222 446 Z M 242 434 L 237 440 L 237 449 L 238 450 L 240 448 L 242 443 L 242 439 L 243 438 L 243 435 Z M 358 424 L 354 424 L 353 425 L 354 436 L 356 437 L 356 435 L 358 433 L 361 433 L 361 429 L 362 427 Z M 240 418 L 238 418 L 233 423 L 229 430 L 229 434 L 231 434 L 240 423 L 241 420 Z M 367 402 L 366 403 L 367 404 L 367 408 L 371 410 L 372 404 L 369 402 Z M 240 399 L 233 407 L 231 413 L 232 415 L 234 415 L 241 406 L 242 403 L 242 400 Z M 574 378 L 587 378 L 589 376 L 592 376 L 593 375 L 598 375 L 599 374 L 611 374 L 592 374 L 586 378 Z M 261 372 L 258 374 L 257 373 L 254 374 L 254 377 L 257 377 Z M 297 364 L 293 365 L 288 371 L 289 372 L 290 371 L 292 372 L 295 368 L 298 367 Z M 341 358 L 334 366 L 334 374 L 339 380 L 340 384 L 342 387 L 344 388 L 346 387 L 347 385 L 346 372 L 350 363 L 346 359 Z M 490 357 L 495 366 L 495 370 L 496 371 L 495 375 L 499 381 L 496 377 L 496 368 L 495 365 Z M 314 352 L 310 355 L 310 360 L 312 361 L 315 357 Z M 283 352 L 279 351 L 273 356 L 265 365 L 265 368 L 270 367 L 277 359 L 280 358 Z M 328 350 L 324 350 L 323 353 L 321 355 L 320 362 L 319 363 L 319 373 L 320 374 L 322 371 L 322 366 L 325 363 L 325 359 L 330 353 Z M 280 337 L 279 336 L 272 336 L 270 337 L 266 342 L 271 343 L 274 341 L 277 341 Z M 309 335 L 308 334 L 301 335 L 298 339 L 295 341 L 295 343 L 296 344 L 299 342 L 308 341 L 309 340 Z M 246 331 L 242 331 L 239 333 L 237 333 L 234 336 L 231 335 L 231 338 L 233 339 L 238 334 L 243 331 L 246 333 L 246 335 L 243 341 L 236 348 L 229 353 L 228 356 L 220 368 L 221 369 L 224 368 L 226 370 L 226 374 L 219 382 L 212 394 L 214 395 L 220 393 L 222 395 L 222 397 L 210 419 L 210 422 L 209 423 L 210 424 L 215 420 L 217 420 L 219 422 L 219 425 L 219 420 L 218 419 L 216 419 L 213 422 L 211 422 L 210 420 L 222 397 L 222 394 L 221 393 L 215 394 L 213 392 L 217 385 L 226 374 L 226 370 L 222 367 L 222 365 L 227 358 L 228 355 L 236 349 L 243 342 L 247 335 L 247 332 Z M 220 328 L 217 330 L 215 330 L 213 333 L 218 334 Z M 275 314 L 270 316 L 270 317 L 268 318 L 264 325 L 265 328 L 267 328 L 276 320 L 277 316 Z M 389 309 L 390 315 L 399 325 L 399 327 L 401 329 L 403 334 L 409 339 L 414 339 L 415 338 L 415 334 L 412 328 L 392 309 Z M 395 315 L 397 315 L 409 327 L 413 334 L 411 337 L 409 337 L 404 332 L 401 326 L 394 317 Z M 561 342 L 558 339 L 556 339 L 552 336 L 548 336 L 544 334 L 538 328 L 533 326 L 521 318 L 513 318 L 508 315 L 498 315 L 497 314 L 461 314 L 460 313 L 453 312 L 450 310 L 443 309 L 442 310 L 443 315 L 446 318 L 450 319 L 452 321 L 452 323 L 450 325 L 448 324 L 441 324 L 440 323 L 437 325 L 436 327 L 436 338 L 438 342 L 438 347 L 431 355 L 431 357 L 445 370 L 446 373 L 449 376 L 452 375 L 454 376 L 455 378 L 454 382 L 453 383 L 447 383 L 445 384 L 444 386 L 453 398 L 464 409 L 464 412 L 463 413 L 460 413 L 451 407 L 448 406 L 443 406 L 442 407 L 442 410 L 446 413 L 446 415 L 442 420 L 444 423 L 448 425 L 446 428 L 448 432 L 446 434 L 446 436 L 444 437 L 442 435 L 442 431 L 441 429 L 435 424 L 435 422 L 428 411 L 429 409 L 431 410 L 435 410 L 436 409 L 430 399 L 431 398 L 432 399 L 435 399 L 438 397 L 438 395 L 435 391 L 436 377 L 434 373 L 431 370 L 425 367 L 416 367 L 415 368 L 409 363 L 407 363 L 400 357 L 397 348 L 403 343 L 403 339 L 399 333 L 393 335 L 390 335 L 389 336 L 386 336 L 378 328 L 375 323 L 370 318 L 364 317 L 360 323 L 357 322 L 343 311 L 342 309 L 339 308 L 333 316 L 330 316 L 326 320 L 327 323 L 329 325 L 335 318 L 339 318 L 342 321 L 344 321 L 347 324 L 351 325 L 355 328 L 360 328 L 362 326 L 364 326 L 373 333 L 376 337 L 376 339 L 382 347 L 382 349 L 386 354 L 390 352 L 393 352 L 401 359 L 401 361 L 399 363 L 395 363 L 395 367 L 396 368 L 399 368 L 405 373 L 405 380 L 404 381 L 402 381 L 393 375 L 384 375 L 383 374 L 377 374 L 376 375 L 371 372 L 363 373 L 361 376 L 360 381 L 363 385 L 369 383 L 378 383 L 383 385 L 396 385 L 401 390 L 401 396 L 395 400 L 395 403 L 397 405 L 403 407 L 408 407 L 413 409 L 418 414 L 424 424 L 422 426 L 419 427 L 416 431 L 415 430 L 408 430 L 407 429 L 404 429 L 403 430 L 407 435 L 408 440 L 414 445 L 419 445 L 420 446 L 423 446 L 424 445 L 422 441 L 418 438 L 415 434 L 417 432 L 422 432 L 424 431 L 426 428 L 425 427 L 425 424 L 426 423 L 428 423 L 429 425 L 431 426 L 432 429 L 433 429 L 437 434 L 437 436 L 433 440 L 432 446 L 439 453 L 444 453 L 446 450 L 446 442 L 448 440 L 451 442 L 452 449 L 449 453 L 449 459 L 450 461 L 449 462 L 448 473 L 444 477 L 441 478 L 439 481 L 439 483 L 425 496 L 422 492 L 421 492 L 421 494 L 417 498 L 414 495 L 412 495 L 411 498 L 405 506 L 404 510 L 399 515 L 397 515 L 393 519 L 386 520 L 384 522 L 378 525 L 376 525 L 373 528 L 370 528 L 364 533 L 362 533 L 358 536 L 349 537 L 348 538 L 343 538 L 340 540 L 338 540 L 335 544 L 326 545 L 324 548 L 318 551 L 311 558 L 310 558 L 306 563 L 305 563 L 286 581 L 283 583 L 281 583 L 278 586 L 274 586 L 270 589 L 268 589 L 261 596 L 259 596 L 255 600 L 248 600 L 246 602 L 243 609 L 239 614 L 236 615 L 228 615 L 223 612 L 203 591 L 200 590 L 191 581 L 187 579 L 186 576 L 187 575 L 187 572 L 189 570 L 190 567 L 189 570 L 185 575 L 184 579 L 186 581 L 190 582 L 199 591 L 202 592 L 226 617 L 229 619 L 231 618 L 238 618 L 247 608 L 252 608 L 261 601 L 267 598 L 268 596 L 273 594 L 281 587 L 287 585 L 294 576 L 319 553 L 325 550 L 335 550 L 341 547 L 345 543 L 347 543 L 354 539 L 356 539 L 358 537 L 361 537 L 367 533 L 372 532 L 379 528 L 394 523 L 397 521 L 397 520 L 401 517 L 410 507 L 414 508 L 417 505 L 422 503 L 427 498 L 429 498 L 435 492 L 439 485 L 449 476 L 450 472 L 452 469 L 452 465 L 454 462 L 454 460 L 456 458 L 458 458 L 458 455 L 460 453 L 465 455 L 464 448 L 462 445 L 462 439 L 464 437 L 467 439 L 469 438 L 467 431 L 465 429 L 465 427 L 463 425 L 459 424 L 451 416 L 450 413 L 448 411 L 448 410 L 450 409 L 458 413 L 463 417 L 469 417 L 470 416 L 470 409 L 468 407 L 466 407 L 459 401 L 457 397 L 456 391 L 460 388 L 459 372 L 457 366 L 455 364 L 455 362 L 446 355 L 442 355 L 440 353 L 441 346 L 437 337 L 437 327 L 440 324 L 444 324 L 445 325 L 458 325 L 461 323 L 459 321 L 446 315 L 443 312 L 445 310 L 451 311 L 459 314 L 464 314 L 465 315 L 492 315 L 496 317 L 500 317 L 510 325 L 526 334 L 526 330 L 521 324 L 524 321 L 533 326 L 545 335 L 557 339 L 560 342 L 562 352 L 564 356 L 570 362 L 563 354 L 561 348 Z M 439 441 L 443 444 L 443 447 L 441 449 L 437 446 L 437 443 Z M 403 403 L 404 402 L 408 402 L 417 405 L 423 410 L 424 413 L 421 414 L 413 408 L 404 405 Z M 419 377 L 422 377 L 427 383 L 427 385 L 425 387 L 424 386 L 422 388 L 422 390 L 425 393 L 425 395 L 423 397 L 423 401 L 425 404 L 424 406 L 412 402 L 406 397 L 406 394 L 409 387 L 411 385 L 415 384 L 417 382 L 417 379 Z M 384 378 L 385 377 L 393 377 L 395 378 L 397 381 L 396 382 L 387 381 Z M 451 365 L 453 365 L 455 368 L 456 372 L 454 374 L 451 371 L 450 368 Z M 435 357 L 436 356 L 440 356 L 442 358 L 442 360 L 440 361 Z M 370 325 L 372 324 L 376 327 L 385 337 L 387 338 L 392 338 L 394 337 L 396 340 L 387 347 L 384 346 Z M 354 303 L 353 310 L 358 314 L 361 314 L 363 311 L 362 310 L 362 306 L 359 304 Z M 168 304 L 168 305 L 171 307 L 177 308 L 180 310 L 181 309 L 179 306 L 176 304 L 173 304 L 172 303 Z M 318 303 L 315 301 L 311 304 L 309 304 L 306 307 L 303 307 L 302 304 L 300 303 L 294 308 L 294 310 L 288 316 L 288 317 L 290 319 L 293 319 L 301 315 L 308 314 L 314 310 L 318 305 Z M 342 288 L 338 288 L 335 290 L 330 291 L 329 296 L 335 302 L 337 302 L 342 296 L 343 293 L 343 289 Z M 398 287 L 397 288 L 397 292 L 398 293 L 399 292 L 401 293 L 407 293 L 415 300 L 415 305 L 413 307 L 411 307 L 402 303 L 396 303 L 395 304 L 395 307 L 405 316 L 413 321 L 420 321 L 426 314 L 426 307 L 425 306 L 425 303 L 423 301 L 422 298 L 416 292 L 412 291 L 410 289 L 403 289 Z M 412 292 L 420 297 L 425 305 L 425 313 L 423 317 L 420 320 L 415 320 L 407 316 L 398 308 L 400 305 L 405 306 L 412 310 L 414 310 L 417 308 L 417 301 L 415 297 L 411 294 Z M 202 278 L 202 280 L 210 281 L 212 279 L 212 276 L 206 276 Z M 388 244 L 387 243 L 381 243 L 368 248 L 360 249 L 359 250 L 351 251 L 350 252 L 342 252 L 341 253 L 330 253 L 329 252 L 322 252 L 315 249 L 309 249 L 307 251 L 307 255 L 313 262 L 317 264 L 330 274 L 335 276 L 339 279 L 348 280 L 353 278 L 355 281 L 362 287 L 365 286 L 366 287 L 372 287 L 374 285 L 376 286 L 378 285 L 378 281 L 379 279 L 375 269 L 373 274 L 371 276 L 369 276 L 366 273 L 367 269 L 376 262 L 388 250 Z M 387 246 L 387 248 L 383 254 L 372 264 L 356 276 L 351 277 L 348 279 L 341 279 L 331 274 L 314 262 L 307 254 L 307 252 L 309 250 L 315 250 L 316 251 L 320 251 L 325 253 L 345 253 L 346 252 L 358 251 L 362 249 L 373 247 L 379 244 L 385 244 Z M 529 229 L 532 229 L 534 231 L 532 232 L 531 235 L 529 237 L 532 240 L 534 241 L 547 241 L 548 242 L 551 240 L 556 240 L 559 242 L 559 248 L 561 250 L 567 253 L 576 254 L 580 258 L 582 258 L 584 260 L 584 262 L 590 268 L 592 268 L 593 270 L 596 270 L 598 272 L 601 271 L 602 272 L 602 276 L 606 281 L 613 287 L 619 290 L 623 296 L 629 301 L 629 304 L 626 306 L 626 310 L 627 310 L 629 313 L 625 316 L 625 319 L 623 321 L 624 324 L 620 327 L 617 331 L 612 333 L 612 336 L 609 340 L 609 346 L 613 350 L 613 357 L 609 361 L 603 361 L 587 349 L 582 348 L 578 352 L 578 359 L 579 361 L 576 363 L 572 363 L 577 365 L 579 365 L 581 363 L 581 361 L 579 358 L 579 351 L 582 348 L 586 349 L 594 356 L 602 361 L 609 361 L 611 360 L 614 357 L 614 351 L 610 343 L 610 339 L 613 336 L 617 336 L 619 337 L 626 345 L 628 345 L 632 340 L 632 334 L 625 322 L 625 319 L 628 316 L 631 316 L 638 322 L 639 321 L 638 314 L 634 306 L 619 290 L 612 286 L 607 281 L 607 278 L 609 275 L 608 273 L 606 273 L 598 269 L 591 268 L 586 264 L 585 262 L 589 259 L 588 257 L 579 254 L 574 254 L 573 253 L 566 252 L 562 250 L 559 247 L 559 245 L 562 242 L 564 242 L 564 240 L 544 240 L 543 241 L 533 240 L 531 238 L 531 236 L 537 230 L 537 229 Z M 626 328 L 631 336 L 629 339 L 626 338 L 627 336 L 625 333 L 625 329 Z M 494 227 L 504 225 L 506 227 L 503 231 L 505 234 L 510 234 L 511 233 L 515 233 L 516 232 L 527 230 L 524 230 L 515 233 L 511 233 L 510 234 L 506 234 L 504 232 L 504 230 L 508 226 L 507 225 L 501 225 L 500 226 Z M 192 193 L 195 190 L 197 192 L 201 199 L 201 201 L 210 214 L 214 215 L 216 210 L 218 209 L 220 211 L 223 218 L 219 209 L 217 207 L 215 213 L 212 215 L 205 207 L 195 189 Z M 60 161 L 64 170 L 70 178 L 80 186 L 90 196 L 95 198 L 98 201 L 104 219 L 111 233 L 123 249 L 124 247 L 117 238 L 113 230 L 114 228 L 139 254 L 155 267 L 161 269 L 172 275 L 187 280 L 190 284 L 183 289 L 186 292 L 195 292 L 198 291 L 203 296 L 208 298 L 220 298 L 222 300 L 222 302 L 217 306 L 214 307 L 212 309 L 213 310 L 216 310 L 221 312 L 225 312 L 228 314 L 230 312 L 233 304 L 238 298 L 241 300 L 241 304 L 240 306 L 241 305 L 241 296 L 247 290 L 247 287 L 245 285 L 245 283 L 249 279 L 256 275 L 255 268 L 259 265 L 259 262 L 263 255 L 266 253 L 271 247 L 280 250 L 286 254 L 289 252 L 287 246 L 281 240 L 275 236 L 263 232 L 252 220 L 250 220 L 246 216 L 246 213 L 243 209 L 238 212 L 236 210 L 236 207 L 235 206 L 235 199 L 235 206 L 236 207 L 236 210 L 238 213 L 240 213 L 240 212 L 243 210 L 245 212 L 246 216 L 257 225 L 268 240 L 268 238 L 270 236 L 278 239 L 286 246 L 288 251 L 287 252 L 284 252 L 279 248 L 273 246 L 270 243 L 269 244 L 270 246 L 269 250 L 266 253 L 263 254 L 259 250 L 256 243 L 249 233 L 247 233 L 247 238 L 244 239 L 238 232 L 238 230 L 234 225 L 229 228 L 226 225 L 224 220 L 228 228 L 235 227 L 237 229 L 237 231 L 239 233 L 240 236 L 245 241 L 246 241 L 250 236 L 256 243 L 259 249 L 259 255 L 257 258 L 253 261 L 250 270 L 245 275 L 244 279 L 241 283 L 241 285 L 239 287 L 238 291 L 236 293 L 236 296 L 235 297 L 236 300 L 233 303 L 231 309 L 229 311 L 220 311 L 217 310 L 216 308 L 225 301 L 225 298 L 224 297 L 214 297 L 213 298 L 208 297 L 203 294 L 200 290 L 187 291 L 185 288 L 191 285 L 191 282 L 186 278 L 183 278 L 177 276 L 163 269 L 159 268 L 144 257 L 134 248 L 134 247 L 116 228 L 103 211 L 98 201 L 95 198 L 88 194 L 66 173 Z M 244 286 L 246 288 L 246 290 L 240 296 L 238 294 L 238 291 Z M 255 274 L 249 278 L 247 277 L 247 275 L 251 272 L 253 272 Z M 363 148 L 359 147 L 351 157 L 344 161 L 350 158 L 355 153 L 359 147 L 363 148 L 366 151 L 368 156 L 368 160 L 369 161 L 369 187 L 368 188 L 368 193 L 367 194 L 366 201 L 359 217 L 352 225 L 349 226 L 343 231 L 339 232 L 336 234 L 332 234 L 331 235 L 323 234 L 310 228 L 304 223 L 292 210 L 288 203 L 294 213 L 306 225 L 313 230 L 325 235 L 334 235 L 335 234 L 338 234 L 350 227 L 359 217 L 368 196 L 368 191 L 369 190 L 369 174 L 370 173 L 369 170 L 369 159 L 368 158 L 368 154 Z M 231 136 L 231 137 L 219 150 L 219 151 L 222 151 L 225 149 L 227 149 L 229 151 L 229 155 L 228 156 L 230 150 L 229 149 L 223 149 L 222 150 L 221 148 Z M 238 138 L 234 143 L 232 148 L 234 157 L 238 160 L 246 160 L 250 158 L 257 151 L 259 152 L 259 161 L 260 162 L 259 161 L 259 147 L 258 147 L 257 150 L 247 159 L 239 160 L 237 159 L 233 154 L 233 146 L 236 141 L 240 137 L 247 134 L 252 133 L 258 135 L 262 139 L 264 138 L 262 138 L 259 135 L 255 133 L 245 134 Z M 133 136 L 131 136 L 125 133 L 117 133 L 116 134 L 113 134 L 105 138 L 98 145 L 92 154 L 101 142 L 104 139 L 109 137 L 111 135 L 118 134 L 119 133 L 128 134 L 134 137 L 142 145 L 146 154 L 146 164 L 144 168 L 136 176 L 128 181 L 118 186 L 112 188 L 108 188 L 107 189 L 100 189 L 95 187 L 88 180 L 86 174 L 87 179 L 92 185 L 99 189 L 109 189 L 110 188 L 113 188 L 119 185 L 121 185 L 127 181 L 134 178 L 144 169 L 147 161 L 146 153 L 144 147 L 141 143 Z M 268 121 L 268 124 L 273 129 L 270 133 L 270 136 L 267 138 L 269 140 L 268 157 L 270 162 L 274 166 L 278 168 L 286 168 L 290 166 L 295 161 L 300 161 L 311 165 L 320 166 L 317 165 L 311 165 L 306 163 L 302 160 L 299 160 L 298 159 L 299 157 L 306 155 L 312 151 L 300 157 L 286 157 L 279 154 L 272 147 L 270 143 L 270 133 L 274 128 L 271 127 L 268 124 Z M 269 146 L 271 145 L 279 154 L 282 156 L 289 157 L 293 162 L 286 168 L 278 168 L 274 166 L 271 163 L 268 157 L 268 148 Z M 372 133 L 373 138 L 375 141 L 385 147 L 391 149 L 395 149 L 396 150 L 410 150 L 419 146 L 423 139 L 423 134 L 419 127 L 411 122 L 404 121 L 403 120 L 388 120 L 378 124 L 375 127 Z M 373 131 L 379 124 L 383 122 L 389 121 L 390 120 L 401 120 L 402 121 L 407 121 L 416 125 L 421 130 L 423 134 L 423 139 L 421 143 L 418 146 L 411 149 L 404 149 L 403 150 L 400 149 L 392 149 L 379 143 L 374 138 L 373 136 Z M 294 114 L 296 116 L 302 116 L 308 114 L 314 114 L 315 115 L 324 116 L 325 117 L 329 117 L 330 116 L 330 113 L 328 110 L 326 110 L 323 108 L 319 108 L 318 107 L 303 108 L 300 110 L 298 110 Z M 297 113 L 301 110 L 307 109 L 308 108 L 318 108 L 327 111 L 330 115 L 329 116 L 324 116 L 315 113 L 298 115 Z M 462 104 L 464 108 L 463 110 L 463 116 L 475 126 L 473 128 L 468 129 L 467 130 L 467 133 L 469 135 L 470 138 L 481 149 L 481 151 L 478 152 L 476 150 L 474 150 L 472 152 L 473 157 L 471 159 L 461 159 L 460 160 L 454 158 L 451 159 L 453 164 L 456 167 L 456 169 L 454 171 L 451 172 L 451 175 L 454 177 L 457 181 L 455 183 L 452 181 L 449 181 L 448 182 L 448 185 L 447 186 L 448 192 L 447 193 L 444 192 L 437 192 L 437 194 L 441 198 L 442 202 L 440 204 L 433 205 L 432 210 L 430 212 L 427 213 L 428 219 L 430 221 L 428 223 L 424 224 L 423 222 L 421 222 L 420 225 L 416 229 L 415 228 L 413 229 L 407 237 L 404 238 L 397 244 L 395 254 L 394 255 L 395 257 L 397 257 L 404 248 L 406 249 L 406 254 L 407 255 L 410 255 L 417 248 L 420 249 L 427 248 L 436 242 L 443 240 L 454 234 L 460 233 L 462 231 L 466 231 L 471 228 L 473 228 L 475 230 L 473 232 L 473 235 L 474 236 L 477 236 L 486 230 L 492 228 L 488 229 L 479 234 L 476 234 L 474 232 L 475 229 L 474 228 L 471 228 L 459 232 L 456 234 L 454 234 L 445 239 L 434 242 L 427 248 L 421 248 L 419 246 L 419 244 L 424 239 L 427 233 L 431 229 L 431 227 L 434 225 L 435 228 L 438 229 L 452 210 L 455 212 L 457 217 L 460 215 L 461 212 L 463 210 L 464 202 L 465 201 L 465 196 L 468 193 L 471 196 L 473 193 L 473 187 L 471 181 L 471 175 L 473 173 L 476 173 L 480 176 L 480 172 L 474 159 L 473 153 L 475 151 L 482 153 L 482 150 L 467 132 L 469 129 L 478 129 L 479 128 L 474 123 L 466 119 L 463 116 L 463 114 L 466 110 Z M 418 240 L 419 241 L 416 245 L 416 247 L 410 253 L 409 253 L 407 251 L 407 249 L 410 241 L 412 239 Z M 443 196 L 444 195 L 447 196 L 450 199 L 451 203 L 448 204 L 443 198 Z M 453 184 L 455 186 L 456 189 L 455 190 L 451 187 Z M 67 124 L 66 126 L 66 132 L 67 135 L 68 135 L 68 129 L 71 125 L 75 125 L 81 128 L 89 136 L 91 140 L 91 145 L 86 151 L 82 152 L 75 148 L 72 152 L 64 152 L 62 153 L 60 157 L 64 152 L 67 152 L 68 154 L 64 157 L 64 162 L 66 166 L 72 172 L 77 173 L 71 171 L 66 166 L 64 162 L 64 157 L 66 155 L 71 153 L 80 156 L 84 160 L 85 163 L 85 168 L 84 170 L 79 174 L 81 174 L 83 173 L 85 170 L 86 170 L 87 172 L 87 165 L 85 164 L 84 159 L 79 155 L 75 154 L 74 151 L 75 150 L 81 152 L 85 152 L 87 151 L 91 146 L 91 137 L 95 134 L 103 134 L 107 132 L 109 130 L 111 124 L 113 124 L 115 126 L 121 125 L 124 128 L 132 129 L 136 125 L 136 120 L 138 119 L 142 124 L 144 123 L 145 124 L 145 126 L 143 128 L 143 131 L 143 129 L 146 125 L 146 123 L 148 121 L 149 118 L 152 115 L 157 116 L 162 121 L 163 124 L 162 135 L 155 143 L 153 144 L 149 144 L 157 143 L 162 136 L 164 137 L 164 143 L 163 144 L 163 147 L 161 149 L 161 155 L 169 165 L 173 172 L 184 185 L 187 191 L 190 193 L 185 188 L 184 185 L 181 182 L 179 178 L 175 174 L 161 155 L 161 150 L 164 144 L 165 134 L 166 133 L 166 124 L 163 117 L 158 112 L 154 112 L 144 123 L 142 123 L 139 119 L 139 116 L 132 99 L 127 95 L 123 95 L 122 96 L 123 98 L 128 99 L 132 103 L 136 114 L 136 123 L 135 125 L 132 128 L 128 129 L 125 128 L 120 124 L 118 124 L 115 126 L 112 122 L 110 114 L 106 107 L 97 99 L 91 99 L 88 102 L 87 107 L 92 103 L 97 103 L 104 110 L 109 120 L 109 129 L 104 133 L 97 133 L 94 132 L 91 134 L 84 126 L 75 121 L 70 122 Z M 83 129 L 85 128 L 89 133 L 88 134 L 86 133 Z M 69 124 L 70 125 L 69 127 L 67 128 L 66 126 Z M 91 100 L 92 99 L 95 99 L 96 101 L 95 102 L 92 102 Z M 462 63 L 459 69 L 455 73 L 450 74 L 448 76 L 446 76 L 445 79 L 452 86 L 453 89 L 456 92 L 459 98 L 459 100 L 461 102 L 455 90 L 447 81 L 447 78 L 449 76 L 454 74 L 459 69 Z M 291 65 L 291 70 L 288 72 L 291 70 L 291 65 L 288 62 L 282 62 L 279 63 L 270 71 L 269 73 L 270 78 L 273 80 L 276 80 L 286 73 L 283 74 L 275 80 L 273 80 L 270 77 L 270 72 L 280 63 L 282 62 L 287 62 Z M 255 61 L 252 61 L 251 60 L 244 61 L 240 63 L 234 70 L 233 73 L 233 82 L 234 85 L 241 92 L 245 92 L 249 89 L 256 77 L 262 70 L 262 68 Z M 252 61 L 258 65 L 261 68 L 261 70 L 258 73 L 257 76 L 252 82 L 250 86 L 244 92 L 241 91 L 234 83 L 234 79 L 233 78 L 234 76 L 234 72 L 235 69 L 241 63 L 245 61 Z M 295 49 L 293 49 L 281 55 L 275 60 L 272 60 L 262 49 L 260 49 L 258 47 L 255 47 L 254 46 L 243 47 L 232 52 L 226 58 L 221 67 L 221 70 L 220 71 L 220 85 L 222 89 L 230 98 L 238 100 L 240 102 L 240 106 L 239 108 L 240 106 L 240 100 L 239 99 L 233 99 L 231 98 L 225 92 L 220 85 L 220 71 L 222 65 L 227 57 L 234 51 L 244 47 L 253 47 L 254 48 L 257 47 L 264 51 L 270 58 L 270 60 L 274 62 L 282 55 L 289 51 Z M 430 36 L 426 38 L 420 44 L 417 50 L 417 53 L 427 61 L 435 69 L 438 71 L 440 71 L 444 69 L 451 61 L 451 51 L 445 41 L 438 36 Z M 429 37 L 432 36 L 438 37 L 447 45 L 451 53 L 451 59 L 442 69 L 437 69 L 425 58 L 421 56 L 418 53 L 418 49 L 421 44 Z M 324 37 L 322 34 L 324 37 L 324 39 L 321 42 L 307 41 L 304 42 L 303 45 L 301 47 L 297 48 L 300 48 L 305 42 L 321 42 L 324 40 Z M 321 32 L 323 30 L 324 31 L 327 31 L 336 37 L 342 37 L 352 29 L 354 31 L 352 35 L 352 38 L 354 40 L 360 39 L 361 38 L 372 38 L 373 39 L 380 39 L 381 40 L 385 40 L 386 41 L 396 43 L 386 41 L 385 40 L 381 40 L 380 39 L 375 39 L 374 38 L 360 38 L 359 39 L 354 39 L 352 37 L 353 33 L 355 30 L 354 28 L 351 28 L 348 30 L 341 37 L 337 37 L 332 33 L 328 32 L 325 30 L 322 30 Z M 365 23 L 367 26 L 381 26 L 382 27 L 386 27 L 375 26 L 374 25 L 367 25 Z" fill="#E8E8E8" fill-rule="evenodd"/><path d="M 377 569 L 381 574 L 407 594 L 419 605 L 423 605 L 425 602 L 427 602 L 438 610 L 442 610 L 442 607 L 445 604 L 457 608 L 464 608 L 465 609 L 484 609 L 485 608 L 490 608 L 502 604 L 505 602 L 508 602 L 511 605 L 511 607 L 505 614 L 505 620 L 509 627 L 518 636 L 523 638 L 527 638 L 528 637 L 525 631 L 525 626 L 528 623 L 530 623 L 537 630 L 540 630 L 545 626 L 546 621 L 543 620 L 538 615 L 538 612 L 540 610 L 543 610 L 545 612 L 548 613 L 551 609 L 552 602 L 553 601 L 553 571 L 552 570 L 552 562 L 551 561 L 551 556 L 550 555 L 550 552 L 548 546 L 543 536 L 540 533 L 532 530 L 521 530 L 515 532 L 507 526 L 504 525 L 501 525 L 500 526 L 495 525 L 488 519 L 488 515 L 487 514 L 484 514 L 464 534 L 450 543 L 434 550 L 432 550 L 427 553 L 422 554 L 419 556 L 413 558 L 410 558 L 403 561 L 396 562 L 386 566 L 379 567 Z M 533 622 L 535 620 L 539 619 L 543 622 L 544 625 L 541 628 L 537 628 L 534 625 Z M 514 615 L 517 617 L 517 628 L 523 633 L 522 635 L 519 635 L 513 629 L 511 625 L 513 623 L 510 620 L 510 618 Z M 439 442 L 438 443 L 438 446 L 441 448 L 442 447 L 442 444 Z M 510 424 L 508 424 L 506 426 L 505 429 L 505 432 L 506 433 L 506 444 L 507 445 L 507 458 L 506 459 L 507 460 L 510 457 L 515 444 L 515 436 L 512 427 Z M 510 439 L 512 438 L 513 441 L 511 442 Z M 404 403 L 404 404 L 413 407 L 421 413 L 423 413 L 422 410 L 417 406 L 408 403 Z M 385 378 L 387 380 L 396 381 L 396 380 L 393 378 Z M 371 325 L 377 333 L 378 336 L 381 339 L 381 341 L 384 345 L 387 346 L 395 340 L 394 338 L 392 339 L 387 339 L 385 338 L 376 328 Z M 395 316 L 396 319 L 402 326 L 405 332 L 409 336 L 411 336 L 412 334 L 408 327 L 397 316 Z M 412 293 L 412 294 L 416 297 L 418 301 L 418 308 L 414 311 L 412 311 L 402 306 L 400 306 L 399 308 L 407 315 L 415 319 L 420 319 L 424 313 L 424 305 L 421 299 Z M 244 287 L 239 291 L 239 294 L 240 295 L 245 290 Z M 254 274 L 251 273 L 248 275 L 248 277 Z M 386 246 L 385 245 L 379 245 L 376 247 L 362 250 L 358 252 L 346 253 L 345 254 L 325 254 L 324 253 L 316 252 L 315 251 L 309 251 L 308 254 L 314 261 L 331 273 L 341 278 L 348 278 L 351 276 L 356 275 L 372 263 L 382 254 L 385 250 Z M 418 241 L 415 241 L 414 240 L 411 241 L 408 249 L 409 252 L 415 247 L 415 245 Z M 444 196 L 444 198 L 447 202 L 450 203 L 449 199 L 447 197 Z M 66 156 L 65 157 L 65 162 L 67 166 L 71 170 L 80 173 L 84 168 L 83 160 L 80 157 L 73 154 Z M 234 146 L 234 154 L 235 156 L 239 159 L 247 158 L 256 150 L 258 146 L 260 147 L 260 161 L 262 165 L 267 171 L 272 174 L 277 175 L 281 178 L 282 187 L 288 202 L 298 216 L 310 227 L 323 233 L 328 233 L 329 234 L 336 233 L 339 231 L 343 230 L 346 227 L 352 224 L 358 217 L 364 204 L 366 194 L 367 193 L 367 188 L 368 187 L 368 161 L 367 160 L 366 153 L 363 149 L 359 148 L 356 153 L 350 159 L 338 165 L 332 166 L 331 167 L 317 167 L 316 166 L 311 166 L 307 164 L 304 164 L 300 162 L 295 162 L 290 167 L 286 169 L 278 169 L 274 167 L 268 160 L 267 157 L 268 140 L 266 138 L 262 140 L 258 136 L 251 134 L 240 138 Z M 262 142 L 265 139 L 268 142 L 266 153 L 267 154 L 267 159 L 269 163 L 273 167 L 280 170 L 288 169 L 296 163 L 299 163 L 308 166 L 312 166 L 313 167 L 318 167 L 319 168 L 330 168 L 331 167 L 334 167 L 350 160 L 356 154 L 356 153 L 361 149 L 366 155 L 367 171 L 368 174 L 367 175 L 367 186 L 366 187 L 366 193 L 365 194 L 364 201 L 357 217 L 352 222 L 350 220 L 358 202 L 358 194 L 353 188 L 343 184 L 338 184 L 337 185 L 333 185 L 325 189 L 316 196 L 312 201 L 309 207 L 309 214 L 320 227 L 318 229 L 316 229 L 310 226 L 299 216 L 289 202 L 283 188 L 281 177 L 270 172 L 261 162 L 261 159 L 260 158 L 260 150 L 261 149 Z M 134 138 L 124 134 L 114 135 L 104 140 L 96 149 L 92 155 L 88 164 L 88 172 L 87 173 L 89 180 L 95 186 L 100 188 L 107 188 L 108 187 L 112 187 L 118 185 L 136 175 L 143 168 L 145 164 L 145 154 L 141 145 Z M 374 131 L 374 136 L 379 142 L 392 148 L 400 148 L 401 149 L 404 148 L 411 148 L 418 145 L 422 139 L 422 134 L 420 130 L 416 126 L 407 122 L 402 122 L 401 121 L 390 121 L 389 122 L 386 122 L 379 125 Z M 155 116 L 152 116 L 150 118 L 143 132 L 144 138 L 148 143 L 153 143 L 155 142 L 161 135 L 162 124 L 161 121 Z M 298 113 L 298 114 L 303 114 L 304 113 L 315 112 L 324 115 L 329 115 L 327 112 L 318 109 L 308 109 L 307 110 L 301 111 Z M 274 104 L 269 112 L 269 117 L 268 118 L 269 124 L 275 128 L 271 133 L 271 143 L 273 147 L 279 153 L 286 156 L 300 156 L 313 150 L 320 143 L 322 139 L 322 133 L 321 131 L 317 127 L 313 125 L 303 123 L 302 122 L 288 123 L 282 125 L 281 123 L 284 119 L 286 114 L 285 106 L 281 102 L 277 102 Z M 271 135 L 277 128 L 283 125 L 290 124 L 291 123 L 305 123 L 311 125 L 318 129 L 321 132 L 322 137 L 320 142 L 312 150 L 301 155 L 288 156 L 282 154 L 273 146 L 271 142 Z M 282 103 L 285 107 L 285 116 L 283 120 L 277 126 L 272 126 L 269 123 L 269 114 L 270 111 L 276 103 Z M 360 97 L 356 100 L 353 107 L 353 118 L 355 122 L 358 125 L 360 126 L 365 126 L 369 122 L 371 118 L 372 107 L 370 102 L 365 97 Z M 360 98 L 365 98 L 370 103 L 371 106 L 371 116 L 369 121 L 363 126 L 358 124 L 355 121 L 353 116 L 353 108 L 354 105 Z M 290 65 L 287 63 L 282 63 L 280 64 L 271 72 L 271 77 L 273 79 L 275 79 L 283 73 L 289 71 L 290 70 Z M 290 67 L 287 71 L 282 72 L 275 78 L 273 78 L 271 76 L 272 72 L 277 67 L 282 64 L 287 64 Z M 252 62 L 245 62 L 241 64 L 236 69 L 235 72 L 235 76 L 234 77 L 235 79 L 235 83 L 236 85 L 243 91 L 249 86 L 251 82 L 256 76 L 257 73 L 260 70 L 260 68 Z M 357 57 L 357 60 L 359 62 L 367 64 L 376 69 L 380 66 L 380 62 L 379 60 L 371 55 L 363 53 L 360 54 Z M 358 57 L 362 54 L 369 55 L 372 57 L 374 57 L 380 63 L 380 65 L 377 68 L 375 68 L 373 66 L 361 62 L 358 59 Z M 429 38 L 422 44 L 419 49 L 419 53 L 425 57 L 437 68 L 442 68 L 450 59 L 450 53 L 446 45 L 438 38 L 435 37 Z M 444 23 L 438 21 L 426 21 L 420 23 L 411 28 L 407 32 L 404 37 L 403 41 L 401 43 L 389 39 L 385 39 L 379 37 L 372 37 L 371 36 L 360 36 L 359 37 L 356 37 L 354 35 L 357 29 L 356 26 L 352 26 L 348 28 L 340 35 L 338 35 L 328 29 L 321 28 L 320 29 L 320 33 L 322 36 L 322 38 L 320 40 L 302 40 L 300 42 L 300 45 L 299 46 L 291 48 L 281 53 L 275 58 L 272 58 L 270 56 L 269 53 L 263 48 L 251 44 L 240 46 L 234 49 L 224 58 L 221 63 L 219 69 L 219 72 L 218 73 L 218 83 L 222 92 L 229 99 L 233 101 L 236 101 L 239 104 L 238 108 L 229 125 L 230 136 L 221 144 L 218 149 L 218 152 L 219 153 L 222 153 L 225 151 L 227 153 L 227 156 L 224 160 L 221 167 L 221 171 L 222 172 L 227 171 L 229 173 L 226 181 L 225 191 L 227 194 L 229 194 L 231 192 L 234 194 L 234 209 L 236 213 L 239 216 L 243 214 L 245 216 L 246 219 L 251 222 L 262 234 L 268 245 L 268 249 L 265 252 L 263 252 L 261 250 L 255 238 L 248 230 L 246 231 L 246 234 L 243 235 L 237 226 L 233 222 L 229 225 L 226 222 L 225 218 L 222 213 L 222 211 L 216 204 L 214 206 L 214 210 L 211 212 L 205 204 L 198 190 L 195 187 L 193 187 L 190 191 L 187 188 L 175 170 L 163 156 L 162 151 L 165 146 L 166 137 L 167 136 L 167 122 L 165 117 L 161 112 L 157 110 L 154 110 L 152 111 L 146 119 L 143 121 L 140 117 L 140 114 L 134 99 L 129 94 L 127 93 L 122 93 L 119 96 L 118 99 L 118 102 L 117 103 L 117 120 L 115 121 L 113 119 L 113 117 L 106 104 L 102 100 L 96 97 L 92 97 L 90 98 L 85 104 L 85 113 L 87 119 L 90 124 L 91 129 L 89 130 L 84 124 L 77 120 L 71 120 L 65 125 L 64 131 L 68 140 L 72 146 L 72 149 L 71 150 L 64 150 L 59 154 L 58 156 L 59 164 L 67 177 L 90 198 L 95 200 L 97 202 L 103 221 L 110 235 L 116 244 L 133 263 L 146 272 L 150 276 L 148 279 L 142 279 L 141 280 L 142 282 L 154 290 L 156 290 L 161 293 L 170 296 L 172 299 L 170 301 L 164 303 L 167 307 L 180 312 L 183 312 L 187 314 L 193 315 L 195 318 L 191 322 L 192 324 L 197 326 L 209 327 L 211 329 L 209 333 L 211 335 L 215 335 L 218 337 L 221 335 L 222 330 L 226 322 L 231 316 L 231 313 L 235 304 L 237 302 L 239 303 L 238 308 L 234 316 L 235 323 L 230 334 L 230 341 L 227 350 L 227 354 L 226 357 L 223 360 L 218 369 L 219 370 L 223 370 L 224 371 L 224 374 L 216 384 L 210 394 L 211 396 L 216 396 L 218 395 L 220 398 L 213 411 L 211 413 L 211 415 L 208 421 L 208 425 L 209 426 L 212 425 L 215 422 L 217 423 L 217 427 L 215 431 L 215 434 L 213 439 L 213 444 L 212 445 L 212 454 L 214 455 L 218 451 L 220 452 L 219 475 L 221 477 L 225 472 L 227 473 L 227 481 L 232 494 L 235 496 L 237 494 L 240 486 L 247 479 L 257 473 L 263 467 L 272 462 L 278 457 L 290 451 L 317 450 L 318 449 L 341 449 L 342 450 L 351 450 L 352 451 L 356 451 L 357 452 L 360 452 L 361 453 L 364 453 L 370 455 L 373 457 L 380 459 L 384 462 L 383 464 L 380 464 L 375 462 L 359 461 L 358 460 L 343 460 L 342 459 L 325 459 L 324 460 L 319 460 L 313 462 L 301 462 L 300 461 L 289 462 L 288 464 L 293 466 L 295 468 L 295 470 L 293 472 L 277 472 L 272 475 L 276 480 L 274 482 L 255 485 L 252 489 L 258 491 L 260 494 L 258 496 L 245 499 L 233 516 L 208 543 L 208 545 L 217 555 L 215 558 L 212 557 L 203 550 L 194 546 L 192 544 L 181 539 L 178 539 L 173 537 L 163 537 L 162 538 L 159 538 L 150 542 L 146 545 L 142 552 L 142 555 L 141 556 L 141 565 L 142 566 L 143 573 L 148 582 L 150 580 L 151 575 L 153 573 L 161 573 L 169 577 L 176 582 L 181 584 L 194 597 L 194 598 L 204 607 L 213 618 L 219 628 L 219 631 L 220 632 L 220 635 L 218 638 L 219 640 L 230 640 L 231 639 L 234 639 L 243 636 L 263 617 L 272 610 L 275 612 L 278 612 L 295 595 L 298 593 L 302 592 L 314 581 L 322 576 L 323 576 L 326 580 L 341 566 L 347 570 L 359 561 L 364 562 L 377 554 L 383 552 L 394 551 L 406 547 L 409 547 L 448 532 L 458 525 L 467 516 L 478 501 L 484 490 L 484 488 L 486 485 L 490 473 L 490 456 L 492 454 L 494 455 L 497 454 L 497 447 L 496 446 L 495 437 L 492 430 L 491 423 L 493 421 L 497 422 L 498 420 L 494 410 L 490 405 L 489 402 L 483 395 L 483 393 L 485 391 L 491 393 L 492 392 L 492 389 L 476 371 L 481 365 L 477 358 L 473 343 L 470 340 L 457 339 L 456 338 L 447 338 L 443 336 L 439 331 L 439 329 L 442 326 L 459 327 L 460 328 L 467 328 L 468 329 L 485 329 L 486 330 L 490 330 L 495 332 L 496 330 L 493 327 L 492 324 L 494 322 L 499 322 L 509 327 L 511 327 L 527 337 L 528 337 L 529 335 L 526 328 L 529 326 L 539 334 L 547 338 L 556 341 L 559 344 L 560 352 L 562 356 L 567 362 L 574 366 L 581 366 L 584 364 L 580 356 L 580 352 L 582 350 L 585 350 L 594 359 L 597 360 L 599 362 L 602 362 L 603 363 L 609 363 L 612 362 L 616 358 L 616 351 L 612 344 L 612 340 L 614 338 L 617 338 L 620 340 L 623 345 L 627 348 L 633 342 L 633 338 L 634 337 L 633 332 L 629 326 L 627 320 L 629 318 L 631 318 L 639 325 L 641 323 L 640 313 L 634 303 L 620 289 L 613 285 L 609 281 L 609 279 L 612 276 L 612 274 L 606 270 L 591 266 L 589 264 L 589 262 L 593 259 L 591 256 L 589 256 L 583 253 L 574 252 L 573 251 L 570 251 L 564 249 L 562 246 L 565 243 L 568 242 L 568 240 L 565 238 L 536 238 L 534 235 L 540 230 L 538 227 L 531 227 L 530 228 L 526 228 L 525 229 L 521 229 L 520 230 L 509 232 L 507 230 L 510 226 L 509 223 L 498 224 L 486 228 L 479 232 L 477 230 L 478 227 L 477 226 L 472 226 L 454 232 L 442 238 L 439 237 L 439 235 L 445 229 L 456 222 L 462 216 L 465 210 L 467 198 L 469 197 L 472 199 L 474 197 L 475 189 L 474 188 L 474 181 L 473 178 L 476 176 L 480 180 L 482 179 L 482 173 L 475 155 L 477 153 L 482 156 L 484 155 L 484 150 L 483 148 L 470 133 L 471 130 L 480 131 L 481 130 L 481 127 L 477 123 L 469 119 L 466 116 L 466 114 L 469 113 L 470 111 L 463 103 L 456 89 L 449 80 L 451 77 L 456 75 L 459 72 L 465 60 L 465 46 L 461 37 L 450 26 Z M 185 559 L 189 563 L 189 567 L 185 574 L 181 578 L 177 578 L 173 573 L 173 566 L 180 560 Z M 147 550 L 150 550 L 152 552 L 153 555 L 153 567 L 151 569 L 148 568 L 143 562 L 143 555 Z M 162 549 L 166 549 L 169 552 L 169 561 L 166 565 L 160 565 L 157 561 L 158 553 Z M 221 328 L 220 333 L 218 335 L 215 335 L 212 333 L 215 329 L 217 329 L 219 327 Z M 167 304 L 170 302 L 176 303 L 178 304 L 182 309 L 180 311 L 177 309 L 174 309 L 169 307 Z M 144 281 L 147 280 L 151 283 L 148 285 L 145 283 Z M 443 23 L 450 27 L 460 37 L 461 40 L 463 42 L 465 48 L 465 58 L 463 64 L 461 66 L 460 69 L 454 75 L 448 78 L 448 81 L 456 90 L 463 105 L 467 110 L 464 114 L 464 116 L 466 118 L 474 122 L 480 128 L 478 130 L 469 130 L 468 132 L 483 150 L 483 153 L 482 154 L 480 154 L 477 152 L 474 153 L 475 159 L 481 172 L 481 176 L 479 177 L 476 174 L 473 174 L 472 175 L 472 181 L 474 187 L 474 193 L 471 197 L 468 194 L 466 196 L 466 201 L 465 202 L 464 210 L 462 212 L 461 215 L 457 218 L 455 216 L 454 212 L 452 211 L 444 223 L 438 230 L 436 230 L 434 228 L 434 226 L 432 227 L 432 229 L 428 233 L 425 239 L 420 244 L 420 246 L 421 247 L 427 247 L 434 241 L 445 238 L 454 233 L 456 233 L 459 231 L 471 227 L 474 227 L 476 229 L 475 232 L 476 233 L 479 233 L 488 228 L 497 225 L 500 225 L 501 224 L 507 224 L 509 226 L 505 230 L 506 233 L 515 232 L 516 231 L 519 231 L 524 229 L 528 229 L 529 228 L 537 228 L 538 230 L 532 236 L 533 239 L 536 239 L 537 240 L 543 240 L 544 239 L 564 239 L 565 242 L 562 243 L 560 245 L 560 247 L 562 249 L 566 251 L 586 255 L 590 258 L 590 259 L 586 262 L 588 265 L 591 267 L 598 268 L 606 272 L 608 272 L 610 274 L 608 278 L 608 281 L 612 285 L 619 289 L 633 303 L 638 311 L 640 321 L 638 323 L 631 317 L 628 317 L 626 319 L 626 322 L 633 334 L 633 340 L 628 346 L 626 346 L 623 342 L 617 337 L 613 337 L 611 339 L 611 343 L 615 351 L 615 357 L 611 361 L 609 362 L 602 362 L 598 360 L 586 350 L 582 349 L 580 351 L 580 358 L 582 361 L 582 363 L 579 366 L 577 366 L 576 365 L 573 365 L 570 363 L 563 356 L 561 352 L 559 342 L 557 340 L 545 336 L 543 334 L 540 333 L 536 329 L 524 322 L 522 324 L 527 330 L 527 334 L 526 335 L 510 326 L 500 318 L 496 318 L 492 316 L 465 316 L 464 315 L 459 315 L 458 314 L 455 314 L 451 312 L 445 311 L 444 312 L 446 314 L 459 320 L 462 323 L 458 326 L 445 326 L 444 325 L 440 325 L 438 327 L 438 337 L 442 346 L 441 353 L 442 354 L 446 354 L 456 362 L 456 364 L 458 366 L 460 372 L 460 379 L 461 380 L 461 388 L 457 391 L 458 397 L 460 401 L 466 406 L 468 406 L 471 409 L 471 416 L 469 418 L 463 418 L 458 414 L 449 410 L 452 416 L 459 423 L 463 424 L 466 427 L 466 429 L 468 431 L 470 438 L 468 440 L 465 438 L 463 439 L 463 445 L 465 448 L 466 455 L 465 456 L 461 454 L 459 455 L 459 458 L 455 460 L 455 462 L 453 465 L 453 469 L 451 472 L 450 476 L 440 485 L 436 492 L 429 499 L 427 499 L 422 504 L 417 506 L 414 509 L 410 508 L 397 522 L 394 524 L 392 524 L 390 526 L 379 529 L 372 533 L 367 534 L 361 538 L 358 538 L 356 540 L 354 540 L 347 544 L 345 544 L 341 548 L 335 551 L 325 551 L 319 554 L 305 567 L 304 567 L 295 576 L 287 586 L 281 588 L 273 595 L 268 597 L 267 599 L 261 602 L 252 609 L 247 609 L 238 619 L 231 619 L 229 620 L 226 618 L 202 593 L 199 592 L 190 583 L 186 582 L 183 579 L 184 575 L 190 566 L 190 562 L 187 559 L 180 559 L 175 562 L 171 559 L 170 557 L 170 553 L 167 549 L 162 548 L 157 551 L 153 551 L 152 550 L 147 550 L 145 548 L 146 546 L 151 542 L 160 538 L 166 538 L 167 537 L 176 538 L 185 541 L 193 545 L 195 547 L 202 550 L 214 559 L 217 559 L 217 553 L 215 550 L 210 547 L 208 544 L 237 512 L 245 500 L 253 497 L 257 497 L 262 494 L 261 491 L 258 491 L 254 489 L 257 485 L 260 484 L 266 484 L 267 483 L 273 483 L 277 481 L 278 479 L 275 475 L 279 472 L 295 472 L 297 470 L 297 468 L 292 464 L 293 462 L 310 463 L 311 462 L 317 462 L 318 461 L 323 461 L 324 460 L 351 460 L 352 461 L 362 461 L 363 462 L 377 463 L 386 466 L 389 466 L 389 464 L 381 458 L 379 458 L 376 456 L 367 453 L 364 453 L 359 451 L 355 451 L 354 450 L 348 450 L 347 449 L 310 449 L 309 450 L 293 450 L 280 455 L 265 466 L 262 467 L 253 475 L 247 478 L 240 485 L 237 491 L 237 493 L 235 495 L 232 493 L 228 483 L 228 469 L 226 469 L 222 474 L 220 473 L 221 448 L 219 448 L 214 454 L 212 452 L 213 441 L 218 426 L 218 422 L 215 421 L 211 425 L 208 423 L 209 422 L 209 419 L 221 397 L 220 394 L 214 396 L 211 394 L 218 382 L 225 374 L 225 370 L 224 369 L 221 370 L 219 368 L 227 356 L 228 353 L 236 347 L 242 341 L 245 335 L 245 333 L 243 332 L 238 335 L 233 340 L 230 338 L 231 332 L 235 325 L 236 313 L 240 304 L 240 300 L 238 299 L 236 301 L 232 308 L 231 312 L 228 315 L 225 313 L 221 313 L 220 312 L 213 311 L 211 309 L 214 306 L 221 302 L 220 299 L 208 299 L 203 297 L 198 292 L 195 293 L 186 293 L 182 289 L 185 286 L 189 284 L 187 281 L 172 276 L 161 270 L 155 268 L 139 255 L 114 229 L 118 238 L 125 247 L 123 250 L 119 246 L 110 233 L 103 219 L 97 201 L 95 199 L 90 197 L 80 187 L 69 178 L 63 170 L 59 162 L 59 156 L 62 152 L 64 151 L 72 151 L 75 147 L 82 151 L 84 151 L 86 150 L 90 145 L 90 140 L 88 136 L 81 129 L 75 126 L 71 126 L 69 129 L 69 135 L 67 136 L 65 132 L 65 126 L 68 122 L 75 120 L 84 125 L 91 133 L 94 131 L 97 132 L 104 132 L 108 129 L 108 120 L 103 110 L 97 104 L 92 104 L 88 108 L 86 107 L 87 102 L 91 98 L 97 98 L 107 107 L 111 114 L 113 122 L 115 125 L 118 123 L 120 123 L 125 127 L 130 128 L 134 125 L 135 123 L 135 114 L 131 103 L 128 100 L 123 99 L 121 97 L 123 94 L 127 94 L 133 99 L 140 116 L 140 119 L 142 122 L 144 122 L 154 111 L 158 111 L 164 117 L 167 124 L 167 133 L 166 134 L 165 144 L 162 150 L 162 155 L 176 174 L 180 178 L 182 182 L 185 185 L 186 188 L 191 193 L 195 188 L 199 193 L 206 207 L 212 214 L 214 213 L 215 208 L 217 206 L 220 209 L 227 225 L 230 227 L 234 224 L 239 230 L 239 232 L 244 238 L 246 238 L 246 233 L 249 232 L 254 238 L 260 250 L 263 253 L 266 252 L 269 248 L 268 244 L 270 242 L 273 245 L 279 247 L 282 250 L 287 251 L 285 246 L 278 240 L 270 237 L 268 241 L 256 225 L 253 222 L 250 221 L 245 216 L 245 214 L 243 211 L 242 211 L 240 214 L 238 214 L 236 212 L 234 206 L 235 192 L 233 190 L 229 193 L 226 191 L 226 183 L 230 173 L 230 170 L 228 169 L 225 171 L 222 171 L 221 168 L 225 159 L 228 155 L 228 151 L 225 150 L 222 152 L 219 152 L 218 150 L 231 135 L 231 132 L 229 129 L 229 126 L 238 109 L 239 102 L 230 99 L 223 92 L 219 85 L 219 71 L 220 70 L 220 67 L 225 58 L 232 51 L 240 47 L 246 46 L 247 45 L 254 45 L 255 46 L 258 46 L 260 48 L 262 48 L 272 59 L 275 59 L 281 54 L 293 48 L 296 48 L 301 46 L 302 43 L 304 41 L 307 40 L 321 41 L 323 39 L 323 37 L 320 32 L 322 29 L 325 29 L 328 31 L 330 31 L 337 36 L 341 36 L 348 29 L 351 27 L 354 27 L 356 29 L 353 36 L 354 38 L 359 38 L 360 37 L 374 37 L 375 38 L 385 39 L 386 40 L 389 40 L 390 41 L 393 41 L 402 44 L 404 42 L 404 38 L 408 32 L 417 25 L 428 21 L 435 21 L 436 22 Z M 448 14 L 442 12 L 438 12 L 437 11 L 429 11 L 428 12 L 418 13 L 411 16 L 405 20 L 399 26 L 398 29 L 396 31 L 387 28 L 382 28 L 381 27 L 367 27 L 364 24 L 364 22 L 359 17 L 351 17 L 343 21 L 339 25 L 326 19 L 320 19 L 314 22 L 312 25 L 312 30 L 310 32 L 302 32 L 299 33 L 291 38 L 280 43 L 278 45 L 274 44 L 271 41 L 265 38 L 263 38 L 260 36 L 256 36 L 255 35 L 245 35 L 244 36 L 240 36 L 234 39 L 232 39 L 225 43 L 213 56 L 209 65 L 208 73 L 207 74 L 207 82 L 211 94 L 215 100 L 227 110 L 224 114 L 220 123 L 219 135 L 213 141 L 209 149 L 209 155 L 214 161 L 211 175 L 212 178 L 216 181 L 216 190 L 212 194 L 210 194 L 208 192 L 205 185 L 197 176 L 194 175 L 191 176 L 189 174 L 184 166 L 173 153 L 173 150 L 176 141 L 176 136 L 177 135 L 177 121 L 176 120 L 176 117 L 171 108 L 167 104 L 163 102 L 153 101 L 147 103 L 145 101 L 140 91 L 136 87 L 127 83 L 119 84 L 115 86 L 109 92 L 107 92 L 105 90 L 100 88 L 90 88 L 83 91 L 77 98 L 75 108 L 73 110 L 69 110 L 63 113 L 59 117 L 55 124 L 55 137 L 58 142 L 55 144 L 49 151 L 48 162 L 49 163 L 50 169 L 55 178 L 64 189 L 88 209 L 92 223 L 101 240 L 110 253 L 131 275 L 131 283 L 135 289 L 141 294 L 153 300 L 155 302 L 155 306 L 156 308 L 162 314 L 178 321 L 180 323 L 181 326 L 186 331 L 197 335 L 204 341 L 212 345 L 214 345 L 217 348 L 217 351 L 214 356 L 214 358 L 209 369 L 209 379 L 202 391 L 202 395 L 201 397 L 202 398 L 202 402 L 205 406 L 201 413 L 201 416 L 199 421 L 199 429 L 201 434 L 203 436 L 203 458 L 206 465 L 209 468 L 209 473 L 210 474 L 211 482 L 223 497 L 223 499 L 225 502 L 225 506 L 217 518 L 199 537 L 196 537 L 192 534 L 178 528 L 175 528 L 174 527 L 159 527 L 158 528 L 152 529 L 140 536 L 134 543 L 130 552 L 130 566 L 131 567 L 131 570 L 133 576 L 135 579 L 136 583 L 151 606 L 167 623 L 181 634 L 195 643 L 211 650 L 221 651 L 222 652 L 235 652 L 247 648 L 259 639 L 270 628 L 280 623 L 287 621 L 302 606 L 306 605 L 317 595 L 322 595 L 329 591 L 339 583 L 341 583 L 343 581 L 348 581 L 354 579 L 361 574 L 366 575 L 373 582 L 385 590 L 399 602 L 418 613 L 432 616 L 443 621 L 450 621 L 453 620 L 455 618 L 461 618 L 462 619 L 492 619 L 496 623 L 501 633 L 509 641 L 525 648 L 535 647 L 545 642 L 552 635 L 556 629 L 556 627 L 559 622 L 562 613 L 562 607 L 563 606 L 563 600 L 564 599 L 564 571 L 563 570 L 562 553 L 556 535 L 546 524 L 542 522 L 539 522 L 534 520 L 517 520 L 509 514 L 497 509 L 493 505 L 494 503 L 493 500 L 498 490 L 500 481 L 504 477 L 511 473 L 516 468 L 523 457 L 525 451 L 525 447 L 526 446 L 526 438 L 525 437 L 524 429 L 517 417 L 510 411 L 505 410 L 502 406 L 501 401 L 503 397 L 503 392 L 501 388 L 501 385 L 496 379 L 494 375 L 495 373 L 494 366 L 485 349 L 484 342 L 486 340 L 488 340 L 489 341 L 502 343 L 506 338 L 509 338 L 527 347 L 530 347 L 531 348 L 540 347 L 544 349 L 547 349 L 551 353 L 552 359 L 556 366 L 562 372 L 573 377 L 586 377 L 592 373 L 613 373 L 620 369 L 627 361 L 634 358 L 640 351 L 642 346 L 643 338 L 647 334 L 651 326 L 651 313 L 650 312 L 650 309 L 645 299 L 636 289 L 628 283 L 625 282 L 622 279 L 623 277 L 622 270 L 615 264 L 606 261 L 603 258 L 600 252 L 595 248 L 585 244 L 581 244 L 579 242 L 578 234 L 575 231 L 567 228 L 553 228 L 552 227 L 549 227 L 547 225 L 545 220 L 538 216 L 527 216 L 522 218 L 518 218 L 512 213 L 503 213 L 502 214 L 497 214 L 494 216 L 485 216 L 476 213 L 476 211 L 483 202 L 484 192 L 489 187 L 492 181 L 492 171 L 490 165 L 494 161 L 495 154 L 494 153 L 493 147 L 488 140 L 488 137 L 491 134 L 492 131 L 492 127 L 489 122 L 479 114 L 478 109 L 464 84 L 464 81 L 470 74 L 475 61 L 476 53 L 475 52 L 475 45 L 473 39 L 467 28 L 457 19 Z M 447 15 L 449 15 L 461 23 L 469 32 L 472 38 L 475 47 L 475 60 L 469 74 L 462 81 L 462 83 L 469 93 L 473 102 L 475 104 L 478 110 L 479 115 L 482 118 L 485 119 L 491 126 L 491 133 L 487 136 L 487 139 L 492 146 L 494 151 L 494 159 L 489 164 L 492 173 L 492 178 L 489 186 L 484 190 L 483 192 L 483 199 L 482 202 L 475 210 L 474 214 L 475 215 L 483 215 L 486 217 L 491 217 L 499 214 L 509 213 L 514 215 L 518 219 L 534 216 L 535 217 L 539 217 L 541 218 L 550 228 L 569 229 L 574 231 L 578 235 L 579 238 L 578 243 L 579 244 L 589 246 L 597 250 L 601 254 L 603 259 L 605 261 L 617 266 L 621 270 L 623 274 L 622 276 L 622 280 L 629 284 L 635 290 L 636 290 L 647 303 L 651 315 L 651 324 L 650 325 L 650 328 L 648 332 L 643 337 L 642 345 L 639 352 L 633 358 L 626 361 L 619 369 L 611 373 L 600 373 L 596 371 L 593 371 L 587 376 L 583 376 L 582 377 L 579 376 L 572 376 L 561 370 L 555 364 L 553 361 L 551 355 L 551 352 L 548 349 L 542 348 L 536 345 L 533 347 L 528 347 L 510 338 L 505 338 L 502 342 L 495 342 L 490 340 L 484 340 L 483 341 L 484 349 L 489 359 L 491 361 L 491 363 L 494 369 L 494 377 L 499 383 L 502 390 L 501 405 L 505 411 L 510 412 L 518 419 L 522 425 L 525 434 L 525 449 L 523 455 L 516 467 L 500 480 L 498 488 L 493 497 L 492 506 L 497 510 L 499 510 L 508 514 L 516 520 L 532 520 L 533 521 L 537 521 L 543 523 L 554 533 L 555 536 L 557 538 L 557 540 L 561 549 L 562 560 L 563 561 L 563 571 L 564 572 L 564 597 L 563 598 L 562 611 L 561 612 L 561 615 L 559 621 L 553 633 L 544 642 L 534 647 L 523 647 L 513 642 L 511 642 L 507 639 L 499 629 L 496 623 L 496 621 L 494 619 L 491 619 L 490 618 L 485 618 L 484 619 L 467 619 L 466 618 L 454 617 L 448 621 L 444 621 L 441 619 L 429 615 L 419 613 L 403 604 L 385 589 L 377 584 L 368 575 L 362 573 L 359 574 L 353 579 L 350 580 L 343 580 L 341 582 L 339 582 L 325 593 L 322 594 L 319 593 L 305 605 L 301 606 L 287 620 L 283 622 L 280 622 L 276 624 L 272 624 L 270 625 L 257 639 L 256 639 L 250 645 L 241 650 L 238 650 L 237 651 L 217 651 L 216 650 L 213 650 L 207 648 L 191 640 L 178 631 L 167 622 L 150 604 L 137 584 L 132 573 L 132 570 L 130 565 L 130 553 L 134 544 L 141 536 L 145 533 L 157 528 L 161 528 L 162 527 L 177 528 L 186 531 L 195 537 L 199 538 L 216 520 L 226 505 L 226 503 L 220 491 L 211 481 L 210 478 L 210 470 L 209 467 L 206 464 L 203 456 L 203 441 L 204 440 L 204 436 L 200 431 L 200 419 L 201 418 L 202 412 L 205 407 L 205 404 L 202 400 L 202 392 L 210 379 L 209 370 L 213 361 L 213 359 L 217 353 L 218 348 L 216 346 L 204 341 L 198 335 L 185 330 L 182 327 L 180 322 L 178 320 L 173 319 L 160 312 L 156 307 L 156 301 L 144 295 L 134 287 L 131 282 L 131 274 L 111 253 L 100 237 L 92 222 L 88 207 L 75 198 L 59 182 L 50 168 L 49 161 L 48 160 L 49 153 L 51 149 L 58 143 L 58 140 L 56 138 L 55 135 L 55 126 L 58 119 L 65 112 L 67 111 L 75 111 L 76 110 L 76 102 L 79 96 L 87 89 L 90 88 L 99 88 L 104 90 L 109 94 L 116 86 L 120 84 L 129 84 L 135 87 L 141 93 L 146 104 L 148 104 L 151 102 L 158 101 L 166 104 L 171 109 L 175 116 L 177 122 L 177 133 L 176 134 L 176 140 L 173 149 L 173 153 L 184 167 L 190 176 L 196 176 L 202 182 L 208 193 L 210 195 L 212 195 L 216 192 L 217 181 L 212 176 L 212 168 L 215 163 L 215 161 L 210 156 L 209 151 L 210 150 L 210 147 L 213 142 L 220 135 L 220 132 L 219 131 L 220 124 L 228 109 L 226 107 L 224 107 L 221 105 L 215 99 L 211 93 L 208 85 L 208 70 L 213 57 L 226 43 L 238 37 L 248 36 L 250 35 L 251 36 L 258 36 L 264 38 L 270 41 L 274 45 L 278 46 L 283 42 L 294 37 L 300 33 L 306 33 L 307 32 L 310 33 L 312 31 L 312 27 L 313 25 L 319 20 L 327 20 L 334 23 L 336 25 L 340 25 L 347 19 L 350 18 L 359 18 L 364 23 L 364 25 L 366 28 L 369 28 L 370 27 L 383 28 L 384 29 L 387 29 L 396 32 L 400 26 L 410 17 L 419 13 L 423 13 L 424 12 L 441 12 Z" fill="#B1B1B1" fill-rule="evenodd"/><path d="M 185 560 L 182 560 L 180 561 L 174 566 L 174 573 L 177 577 L 181 577 L 184 574 L 188 567 L 188 563 Z M 147 551 L 144 555 L 144 562 L 148 567 L 151 568 L 152 567 L 152 555 L 150 551 Z M 162 550 L 159 553 L 159 555 L 158 556 L 158 561 L 160 564 L 166 564 L 168 561 L 168 552 L 166 550 Z M 263 142 L 263 144 L 262 145 L 262 149 L 261 150 L 261 158 L 262 159 L 262 162 L 270 171 L 276 174 L 278 174 L 282 177 L 283 179 L 283 184 L 284 185 L 284 188 L 290 202 L 292 204 L 295 210 L 300 215 L 300 216 L 302 217 L 310 225 L 316 228 L 318 228 L 319 227 L 314 222 L 314 221 L 308 214 L 308 207 L 311 201 L 314 198 L 314 197 L 322 190 L 333 184 L 337 184 L 338 183 L 343 183 L 344 184 L 346 184 L 353 187 L 359 194 L 359 202 L 358 203 L 357 208 L 351 220 L 352 221 L 356 217 L 361 207 L 361 205 L 363 201 L 363 198 L 364 197 L 364 194 L 365 193 L 365 187 L 366 186 L 366 175 L 367 174 L 367 172 L 366 171 L 366 161 L 365 160 L 365 155 L 361 150 L 360 150 L 350 161 L 334 168 L 331 168 L 330 169 L 319 169 L 318 168 L 313 168 L 312 167 L 308 167 L 307 166 L 296 164 L 288 170 L 286 170 L 285 171 L 280 171 L 273 168 L 268 163 L 266 159 L 266 154 L 265 153 L 266 151 L 266 144 L 267 142 L 265 140 Z M 272 135 L 272 142 L 274 146 L 282 153 L 284 153 L 288 155 L 296 155 L 297 154 L 301 154 L 312 149 L 319 142 L 320 138 L 321 137 L 320 132 L 318 130 L 311 126 L 309 126 L 305 124 L 291 124 L 290 125 L 286 125 L 277 129 Z M 282 104 L 276 104 L 271 111 L 271 113 L 270 114 L 270 123 L 272 125 L 277 125 L 282 120 L 284 116 L 284 107 Z M 360 99 L 355 105 L 355 107 L 354 108 L 354 116 L 355 117 L 356 121 L 358 123 L 363 125 L 365 124 L 369 119 L 369 117 L 370 116 L 370 106 L 369 105 L 369 103 L 365 99 Z M 289 67 L 287 65 L 282 65 L 280 66 L 273 72 L 272 76 L 273 77 L 277 76 L 282 71 L 287 70 L 289 68 Z M 359 57 L 359 59 L 361 61 L 368 63 L 371 65 L 373 65 L 375 67 L 377 67 L 379 65 L 379 63 L 374 58 L 372 58 L 369 56 L 366 56 L 365 55 L 362 55 Z M 444 14 L 442 14 L 441 13 L 424 13 L 423 14 L 419 14 L 416 16 L 414 16 L 410 18 L 407 21 L 406 21 L 401 26 L 399 30 L 396 33 L 394 33 L 391 31 L 384 30 L 383 29 L 376 29 L 375 28 L 370 28 L 369 29 L 366 29 L 364 27 L 363 23 L 359 19 L 350 19 L 349 20 L 347 20 L 340 26 L 336 26 L 334 24 L 327 21 L 319 21 L 314 25 L 313 27 L 313 31 L 310 34 L 308 34 L 307 33 L 306 34 L 300 34 L 296 36 L 294 38 L 283 43 L 278 47 L 274 46 L 270 42 L 264 39 L 262 39 L 258 37 L 251 37 L 250 36 L 248 37 L 242 37 L 241 38 L 238 38 L 226 44 L 216 54 L 216 55 L 214 57 L 211 63 L 210 69 L 209 70 L 209 85 L 210 86 L 212 93 L 214 95 L 216 99 L 221 104 L 222 104 L 224 106 L 226 106 L 229 109 L 228 112 L 224 117 L 223 121 L 221 124 L 221 128 L 220 129 L 221 135 L 214 142 L 211 147 L 211 150 L 210 151 L 210 154 L 211 156 L 216 161 L 216 163 L 213 168 L 213 176 L 218 181 L 217 192 L 212 196 L 210 196 L 207 193 L 207 192 L 205 190 L 205 188 L 203 186 L 201 182 L 196 177 L 190 177 L 188 175 L 183 167 L 172 153 L 172 149 L 174 145 L 175 134 L 176 133 L 176 122 L 175 121 L 174 116 L 170 109 L 166 105 L 162 103 L 159 103 L 158 102 L 155 102 L 154 103 L 151 103 L 148 105 L 146 105 L 144 103 L 144 101 L 140 93 L 135 88 L 129 85 L 120 85 L 116 87 L 109 95 L 108 95 L 104 91 L 100 90 L 99 89 L 90 89 L 89 90 L 87 90 L 85 92 L 84 92 L 78 99 L 78 101 L 77 102 L 77 110 L 75 112 L 67 112 L 65 113 L 59 119 L 57 123 L 57 125 L 56 126 L 56 135 L 57 136 L 57 138 L 59 140 L 59 143 L 52 149 L 50 153 L 49 160 L 50 161 L 50 165 L 51 166 L 51 168 L 60 182 L 75 197 L 76 197 L 89 207 L 93 222 L 97 230 L 99 232 L 101 237 L 103 239 L 104 242 L 106 244 L 108 248 L 112 252 L 112 253 L 132 274 L 132 282 L 135 287 L 144 294 L 155 299 L 157 301 L 157 307 L 160 311 L 173 318 L 178 319 L 181 322 L 183 327 L 185 329 L 198 334 L 204 340 L 216 345 L 219 348 L 218 353 L 216 355 L 216 357 L 214 359 L 214 361 L 212 364 L 212 366 L 210 370 L 211 379 L 206 386 L 203 392 L 203 400 L 206 404 L 206 407 L 203 412 L 202 418 L 201 419 L 201 431 L 205 436 L 205 440 L 204 441 L 204 456 L 205 457 L 205 460 L 207 464 L 210 467 L 210 469 L 211 470 L 211 478 L 212 479 L 212 481 L 213 483 L 221 491 L 227 503 L 227 505 L 225 509 L 217 519 L 217 520 L 201 536 L 201 537 L 199 539 L 195 538 L 193 536 L 192 536 L 190 534 L 188 534 L 186 532 L 184 532 L 181 530 L 178 530 L 177 529 L 172 529 L 171 528 L 162 528 L 161 529 L 157 529 L 156 530 L 151 531 L 141 537 L 135 544 L 131 553 L 131 565 L 132 566 L 133 573 L 135 576 L 135 578 L 138 584 L 140 586 L 141 589 L 143 591 L 151 604 L 167 621 L 168 621 L 178 630 L 182 632 L 191 639 L 207 647 L 209 647 L 213 649 L 216 649 L 217 650 L 237 650 L 238 649 L 241 649 L 250 644 L 256 638 L 257 638 L 270 624 L 272 623 L 276 623 L 280 621 L 283 621 L 287 619 L 301 605 L 305 604 L 307 602 L 308 602 L 319 592 L 321 593 L 325 592 L 339 581 L 341 581 L 343 579 L 350 579 L 351 578 L 353 578 L 359 573 L 361 573 L 362 572 L 368 574 L 377 583 L 385 588 L 403 603 L 419 612 L 425 613 L 426 614 L 429 614 L 430 615 L 441 618 L 444 620 L 448 620 L 452 618 L 454 616 L 466 617 L 467 618 L 484 618 L 485 617 L 490 617 L 491 618 L 494 618 L 497 621 L 497 623 L 500 629 L 507 638 L 508 638 L 511 641 L 513 641 L 523 646 L 534 646 L 544 641 L 552 633 L 558 621 L 558 619 L 560 615 L 560 612 L 561 611 L 561 607 L 562 606 L 562 598 L 563 597 L 563 572 L 562 571 L 562 561 L 561 560 L 560 549 L 559 548 L 558 543 L 556 540 L 556 538 L 554 536 L 553 533 L 543 524 L 541 524 L 537 522 L 533 522 L 532 521 L 516 521 L 511 518 L 508 515 L 504 513 L 502 513 L 499 511 L 497 511 L 491 506 L 491 501 L 492 500 L 492 497 L 497 488 L 499 480 L 504 475 L 508 473 L 515 467 L 515 466 L 518 463 L 522 455 L 522 453 L 524 449 L 524 434 L 523 433 L 523 430 L 521 427 L 521 425 L 519 423 L 517 419 L 510 413 L 508 412 L 505 412 L 502 409 L 500 405 L 500 400 L 501 399 L 501 390 L 498 383 L 493 377 L 493 369 L 490 363 L 490 361 L 488 359 L 483 349 L 482 341 L 484 339 L 490 339 L 491 340 L 494 340 L 495 341 L 502 341 L 505 337 L 510 337 L 528 346 L 533 346 L 535 344 L 536 344 L 539 346 L 548 348 L 552 352 L 552 355 L 553 356 L 554 361 L 556 363 L 556 364 L 561 369 L 562 369 L 567 373 L 569 373 L 572 375 L 579 375 L 580 376 L 582 376 L 583 375 L 587 375 L 593 370 L 596 370 L 600 372 L 611 372 L 619 368 L 620 366 L 626 360 L 633 357 L 638 352 L 641 345 L 642 337 L 647 332 L 649 328 L 649 325 L 650 324 L 650 315 L 649 314 L 649 310 L 646 305 L 646 303 L 642 299 L 642 298 L 636 291 L 635 291 L 629 285 L 623 282 L 621 280 L 621 276 L 622 274 L 620 270 L 617 267 L 605 262 L 602 259 L 600 254 L 597 251 L 589 247 L 586 247 L 582 245 L 579 245 L 577 243 L 577 240 L 578 239 L 577 235 L 574 232 L 570 231 L 569 230 L 550 229 L 541 219 L 539 218 L 535 218 L 534 217 L 532 217 L 531 218 L 526 218 L 525 219 L 522 219 L 521 220 L 518 220 L 514 216 L 510 215 L 509 214 L 499 215 L 498 216 L 495 216 L 491 218 L 486 218 L 483 216 L 475 216 L 473 214 L 474 210 L 480 204 L 481 200 L 482 199 L 482 192 L 483 190 L 488 186 L 490 182 L 490 179 L 491 178 L 491 173 L 490 172 L 488 164 L 493 159 L 493 151 L 492 150 L 491 146 L 486 139 L 486 136 L 490 133 L 490 126 L 485 120 L 482 119 L 478 115 L 477 110 L 474 104 L 472 102 L 468 93 L 461 83 L 461 81 L 468 74 L 474 60 L 474 47 L 473 46 L 473 43 L 471 40 L 471 38 L 468 32 L 461 24 L 460 24 L 457 21 L 451 18 L 449 16 L 447 16 Z M 376 569 L 379 566 L 386 565 L 387 564 L 389 564 L 396 561 L 403 560 L 410 557 L 413 557 L 414 556 L 419 555 L 422 553 L 427 552 L 432 549 L 434 549 L 437 547 L 439 547 L 442 545 L 444 545 L 450 542 L 452 540 L 457 538 L 463 533 L 464 533 L 484 513 L 487 513 L 489 515 L 489 519 L 495 524 L 498 524 L 499 525 L 501 524 L 504 524 L 505 525 L 507 525 L 515 531 L 517 530 L 520 530 L 521 529 L 532 529 L 533 530 L 536 530 L 540 532 L 544 536 L 549 546 L 549 548 L 551 552 L 551 555 L 552 556 L 552 561 L 553 562 L 553 570 L 554 571 L 554 601 L 553 602 L 553 606 L 552 607 L 552 609 L 548 614 L 545 613 L 543 611 L 540 611 L 539 612 L 539 615 L 543 619 L 545 619 L 547 621 L 547 624 L 546 626 L 542 630 L 540 631 L 537 631 L 530 624 L 528 624 L 526 626 L 526 631 L 529 637 L 527 639 L 523 639 L 522 638 L 518 637 L 508 627 L 504 620 L 504 614 L 510 607 L 510 605 L 508 603 L 505 603 L 502 605 L 500 605 L 499 606 L 497 606 L 490 609 L 485 609 L 484 610 L 465 610 L 464 609 L 457 609 L 456 608 L 453 608 L 450 606 L 447 606 L 445 605 L 443 607 L 443 610 L 442 611 L 438 611 L 427 603 L 425 603 L 423 606 L 419 606 L 407 595 L 406 595 L 402 591 L 397 588 L 393 584 L 388 581 L 382 575 L 381 575 L 376 570 Z M 510 423 L 512 425 L 513 429 L 515 432 L 515 435 L 516 436 L 516 444 L 515 445 L 515 447 L 514 448 L 514 450 L 512 453 L 511 457 L 507 461 L 505 459 L 506 458 L 506 445 L 505 444 L 505 433 L 504 432 L 504 429 L 505 428 L 505 426 L 508 423 Z M 444 22 L 450 25 L 462 37 L 466 46 L 466 60 L 465 61 L 465 63 L 460 72 L 456 76 L 451 78 L 450 80 L 457 89 L 464 103 L 471 111 L 471 112 L 469 114 L 467 114 L 467 116 L 469 118 L 477 122 L 482 127 L 482 130 L 480 132 L 475 132 L 474 131 L 471 131 L 471 133 L 484 148 L 485 150 L 485 155 L 483 157 L 477 154 L 476 155 L 477 159 L 480 164 L 482 172 L 483 173 L 483 179 L 481 181 L 480 181 L 476 177 L 474 178 L 474 180 L 475 181 L 475 188 L 476 189 L 476 191 L 475 192 L 475 197 L 472 200 L 468 198 L 466 210 L 463 216 L 456 223 L 445 230 L 440 235 L 440 237 L 445 236 L 454 231 L 456 231 L 459 229 L 462 229 L 463 228 L 465 228 L 472 225 L 477 225 L 479 227 L 478 228 L 478 230 L 479 231 L 480 230 L 482 230 L 486 227 L 488 227 L 489 226 L 491 226 L 498 223 L 502 223 L 503 222 L 509 222 L 511 224 L 511 226 L 508 230 L 509 231 L 511 230 L 516 230 L 517 229 L 520 229 L 521 228 L 525 228 L 526 227 L 530 227 L 531 226 L 538 226 L 541 229 L 541 230 L 535 235 L 536 237 L 565 237 L 569 240 L 569 242 L 567 244 L 565 244 L 563 246 L 564 248 L 566 249 L 569 249 L 570 250 L 573 250 L 574 251 L 579 251 L 580 252 L 583 252 L 589 255 L 591 255 L 594 258 L 594 259 L 591 262 L 590 262 L 590 264 L 591 265 L 606 269 L 610 271 L 613 274 L 613 276 L 610 279 L 610 281 L 613 284 L 616 285 L 619 288 L 620 288 L 635 303 L 641 313 L 642 323 L 639 326 L 633 320 L 631 319 L 629 319 L 628 320 L 628 322 L 630 326 L 632 328 L 635 335 L 635 337 L 634 338 L 634 342 L 627 349 L 626 349 L 622 345 L 620 341 L 619 341 L 617 339 L 614 339 L 613 340 L 613 344 L 617 351 L 617 358 L 612 363 L 610 363 L 609 364 L 603 364 L 602 363 L 599 363 L 597 361 L 594 360 L 585 351 L 582 351 L 581 352 L 581 356 L 585 364 L 581 367 L 574 367 L 567 363 L 561 356 L 559 352 L 559 347 L 558 346 L 558 344 L 556 342 L 552 340 L 547 339 L 539 335 L 529 327 L 527 328 L 530 336 L 528 338 L 521 335 L 511 328 L 509 328 L 499 323 L 494 323 L 493 324 L 494 327 L 497 330 L 497 331 L 495 333 L 491 332 L 490 331 L 486 331 L 485 330 L 468 330 L 467 329 L 460 329 L 459 328 L 449 328 L 448 327 L 442 327 L 440 329 L 440 331 L 443 335 L 447 337 L 456 337 L 457 338 L 470 339 L 474 343 L 475 349 L 476 350 L 478 358 L 482 365 L 482 366 L 480 368 L 479 368 L 477 370 L 478 373 L 491 386 L 491 387 L 493 389 L 493 392 L 491 394 L 485 392 L 484 393 L 484 395 L 490 402 L 491 405 L 495 410 L 497 414 L 498 419 L 499 420 L 499 421 L 497 423 L 495 423 L 494 422 L 492 423 L 492 426 L 493 427 L 493 430 L 496 437 L 496 441 L 497 442 L 497 446 L 498 447 L 498 454 L 496 456 L 494 456 L 493 455 L 491 456 L 491 473 L 490 474 L 487 485 L 485 488 L 485 490 L 483 494 L 481 496 L 479 501 L 476 504 L 476 505 L 468 515 L 468 516 L 458 526 L 457 526 L 448 533 L 441 535 L 431 540 L 429 540 L 426 542 L 424 542 L 421 544 L 419 544 L 418 545 L 416 545 L 409 548 L 406 548 L 405 549 L 399 550 L 398 551 L 395 551 L 394 552 L 383 553 L 382 554 L 377 555 L 371 558 L 364 563 L 362 563 L 361 562 L 357 563 L 347 571 L 346 571 L 342 567 L 339 568 L 326 581 L 324 579 L 324 578 L 322 577 L 314 582 L 302 593 L 298 594 L 296 596 L 295 596 L 278 613 L 275 613 L 273 611 L 272 611 L 264 618 L 263 618 L 246 635 L 245 635 L 243 637 L 241 637 L 234 640 L 231 640 L 230 641 L 219 641 L 217 639 L 219 635 L 218 628 L 212 618 L 203 608 L 203 607 L 202 607 L 181 585 L 176 583 L 174 581 L 161 574 L 153 574 L 152 575 L 151 580 L 148 583 L 146 581 L 142 573 L 142 570 L 141 569 L 141 566 L 140 565 L 140 556 L 141 555 L 141 552 L 145 545 L 150 541 L 159 537 L 162 537 L 163 536 L 173 536 L 174 537 L 177 537 L 178 538 L 181 538 L 184 540 L 186 540 L 192 543 L 194 545 L 203 549 L 212 556 L 215 557 L 216 556 L 215 553 L 207 545 L 207 543 L 218 532 L 218 531 L 224 525 L 224 524 L 232 516 L 232 515 L 237 510 L 237 509 L 245 498 L 247 497 L 255 496 L 259 494 L 258 492 L 253 491 L 251 489 L 251 488 L 255 484 L 274 481 L 275 480 L 271 476 L 271 475 L 273 473 L 277 471 L 293 471 L 294 470 L 294 468 L 291 466 L 289 466 L 287 464 L 287 463 L 289 461 L 292 461 L 293 460 L 300 460 L 301 461 L 313 461 L 314 460 L 324 459 L 325 458 L 342 458 L 343 459 L 358 459 L 359 460 L 375 461 L 376 462 L 379 462 L 380 463 L 383 463 L 383 462 L 380 460 L 378 460 L 370 456 L 368 456 L 364 454 L 361 454 L 360 453 L 357 453 L 356 452 L 352 452 L 351 451 L 342 451 L 341 450 L 318 450 L 317 451 L 300 451 L 299 452 L 290 452 L 278 458 L 272 463 L 269 464 L 267 466 L 263 468 L 257 474 L 247 480 L 241 486 L 238 494 L 235 497 L 234 497 L 231 494 L 228 488 L 228 485 L 226 481 L 226 473 L 225 473 L 221 478 L 218 475 L 218 467 L 219 466 L 219 452 L 218 452 L 214 456 L 213 456 L 211 454 L 211 445 L 212 444 L 212 439 L 213 438 L 214 431 L 216 427 L 216 423 L 215 423 L 212 426 L 209 427 L 207 425 L 207 421 L 210 415 L 210 413 L 212 411 L 214 406 L 216 404 L 219 398 L 218 396 L 216 397 L 211 397 L 209 395 L 209 394 L 215 384 L 219 380 L 219 379 L 223 374 L 223 371 L 219 371 L 217 369 L 218 368 L 218 366 L 225 357 L 225 355 L 226 354 L 226 350 L 227 349 L 227 346 L 228 345 L 228 342 L 229 341 L 229 334 L 234 323 L 234 319 L 233 318 L 233 316 L 237 308 L 238 303 L 236 304 L 233 310 L 232 316 L 227 322 L 223 330 L 222 335 L 219 338 L 218 338 L 215 336 L 211 336 L 208 333 L 208 332 L 210 330 L 209 328 L 197 327 L 196 326 L 192 325 L 190 323 L 190 322 L 194 318 L 193 316 L 187 315 L 183 313 L 180 313 L 179 312 L 177 312 L 176 311 L 174 311 L 171 309 L 167 308 L 163 304 L 163 303 L 165 301 L 168 301 L 170 300 L 171 298 L 166 295 L 164 295 L 156 291 L 154 291 L 152 289 L 144 285 L 141 282 L 140 280 L 142 278 L 148 278 L 149 276 L 146 273 L 145 273 L 142 270 L 141 270 L 138 267 L 133 264 L 115 244 L 115 243 L 109 235 L 102 221 L 102 219 L 99 213 L 99 210 L 98 209 L 96 202 L 90 199 L 75 185 L 74 185 L 66 177 L 58 164 L 58 162 L 57 161 L 57 156 L 58 154 L 64 149 L 71 149 L 71 146 L 69 142 L 67 140 L 63 131 L 64 125 L 71 119 L 77 119 L 84 123 L 88 127 L 88 128 L 90 129 L 89 124 L 86 119 L 86 117 L 84 113 L 84 104 L 85 102 L 92 96 L 96 96 L 102 99 L 107 104 L 115 120 L 116 120 L 116 103 L 117 102 L 118 96 L 122 92 L 127 92 L 129 93 L 135 99 L 138 105 L 138 107 L 141 114 L 141 117 L 143 120 L 145 119 L 148 114 L 152 110 L 154 109 L 157 109 L 161 111 L 166 117 L 167 121 L 168 122 L 168 136 L 167 137 L 167 142 L 166 143 L 166 146 L 163 151 L 163 154 L 164 156 L 176 170 L 176 171 L 182 178 L 182 179 L 190 190 L 193 186 L 195 186 L 199 190 L 202 197 L 204 199 L 206 204 L 211 211 L 213 210 L 213 206 L 216 203 L 223 211 L 223 213 L 226 218 L 226 220 L 229 224 L 232 221 L 233 221 L 238 226 L 243 234 L 245 234 L 245 231 L 247 229 L 248 229 L 256 238 L 262 250 L 263 251 L 265 251 L 267 249 L 267 245 L 264 239 L 262 237 L 261 234 L 251 223 L 250 223 L 245 219 L 243 215 L 239 217 L 235 213 L 233 209 L 233 194 L 231 193 L 229 195 L 227 195 L 224 191 L 225 181 L 226 180 L 228 173 L 227 172 L 225 173 L 222 173 L 220 171 L 220 167 L 223 160 L 226 156 L 226 153 L 225 152 L 222 154 L 219 154 L 217 152 L 217 149 L 220 144 L 229 136 L 228 125 L 237 108 L 238 104 L 236 102 L 233 102 L 229 100 L 221 92 L 217 83 L 217 73 L 218 72 L 218 69 L 219 68 L 220 63 L 223 58 L 234 48 L 240 45 L 248 44 L 249 43 L 251 43 L 252 44 L 256 44 L 263 47 L 270 53 L 272 57 L 275 57 L 281 52 L 291 47 L 299 45 L 299 42 L 302 39 L 320 39 L 321 38 L 321 36 L 319 33 L 319 29 L 321 27 L 325 27 L 326 28 L 328 28 L 334 31 L 336 33 L 340 34 L 342 33 L 342 32 L 348 27 L 352 25 L 356 25 L 358 27 L 358 29 L 355 34 L 356 36 L 359 36 L 360 35 L 371 35 L 372 36 L 379 36 L 380 37 L 389 38 L 390 39 L 401 42 L 406 32 L 411 27 L 420 22 L 422 22 L 426 20 L 438 20 L 439 21 Z" fill="#010101" fill-rule="evenodd"/></svg>