<svg xmlns="http://www.w3.org/2000/svg" viewBox="0 0 653 704" shape-rendering="geometricPrecision"><title>intro frame 072</title><path d="M 389 531 L 387 531 L 385 533 L 384 538 L 387 537 L 387 534 L 390 532 Z M 529 560 L 527 559 L 526 557 L 523 557 L 522 558 L 517 557 L 514 561 L 512 558 L 509 558 L 508 559 L 503 558 L 500 561 L 497 561 L 485 574 L 483 574 L 480 577 L 477 578 L 472 574 L 472 563 L 471 561 L 467 561 L 463 565 L 463 567 L 461 569 L 461 574 L 457 578 L 455 578 L 453 576 L 453 570 L 460 561 L 461 558 L 467 551 L 467 542 L 466 541 L 466 534 L 465 533 L 453 529 L 438 530 L 437 531 L 432 531 L 431 532 L 405 531 L 403 534 L 403 536 L 401 538 L 399 538 L 396 541 L 393 542 L 388 547 L 381 562 L 381 565 L 379 570 L 379 578 L 385 596 L 394 606 L 396 606 L 399 609 L 401 610 L 405 610 L 406 611 L 419 611 L 420 612 L 422 611 L 438 611 L 439 612 L 443 612 L 444 611 L 451 611 L 458 607 L 461 607 L 465 604 L 467 604 L 471 601 L 473 601 L 475 599 L 478 599 L 480 597 L 482 597 L 493 589 L 496 588 L 504 581 L 507 581 L 511 579 L 517 572 L 520 574 L 526 574 L 527 573 L 521 563 L 522 562 L 528 562 Z M 213 526 L 209 531 L 209 532 L 212 534 L 212 537 L 208 544 L 205 547 L 200 557 L 200 561 L 203 563 L 201 569 L 201 572 L 199 575 L 202 578 L 202 600 L 203 601 L 203 607 L 205 612 L 205 616 L 208 620 L 212 620 L 213 621 L 220 622 L 226 625 L 228 625 L 233 628 L 236 632 L 234 634 L 227 634 L 226 633 L 218 632 L 217 631 L 197 631 L 196 632 L 192 632 L 189 634 L 187 634 L 181 637 L 177 641 L 173 650 L 173 658 L 174 661 L 175 661 L 175 658 L 179 650 L 185 645 L 189 645 L 192 648 L 192 653 L 189 661 L 190 669 L 191 670 L 199 671 L 200 670 L 200 661 L 202 655 L 207 650 L 209 649 L 213 649 L 216 652 L 216 656 L 213 664 L 213 669 L 215 671 L 224 672 L 225 673 L 250 673 L 253 671 L 259 670 L 263 667 L 268 665 L 277 655 L 276 642 L 272 633 L 271 626 L 269 624 L 261 608 L 261 605 L 260 604 L 260 601 L 261 600 L 265 604 L 267 604 L 267 598 L 268 595 L 270 593 L 273 592 L 274 588 L 265 578 L 256 572 L 241 557 L 234 552 L 226 544 L 220 535 L 219 529 L 216 526 Z M 98 406 L 99 408 L 99 414 L 97 417 L 104 416 L 107 417 L 112 421 L 114 421 L 108 417 Z M 107 361 L 105 361 L 100 366 L 94 369 L 89 374 L 91 380 L 91 385 L 89 388 L 90 390 L 89 392 L 90 394 L 90 400 L 93 401 L 96 404 L 97 404 L 97 402 L 94 398 L 94 395 L 93 394 L 93 380 L 94 377 L 103 367 L 110 365 L 110 363 Z M 75 351 L 76 353 L 79 352 L 80 353 L 81 352 L 97 352 L 97 351 L 82 351 L 81 350 L 76 350 Z M 106 340 L 106 341 L 109 342 L 115 342 L 112 340 Z M 228 296 L 226 296 L 212 307 L 213 310 L 212 313 L 213 316 L 210 319 L 208 320 L 197 321 L 196 322 L 199 327 L 199 329 L 196 332 L 184 332 L 183 333 L 169 334 L 160 338 L 158 338 L 155 340 L 153 340 L 150 342 L 144 343 L 137 347 L 131 347 L 124 343 L 119 343 L 118 344 L 124 350 L 126 360 L 129 363 L 133 365 L 139 373 L 140 379 L 141 380 L 140 382 L 141 384 L 141 396 L 140 397 L 140 406 L 134 415 L 130 418 L 126 423 L 124 423 L 120 426 L 118 426 L 116 424 L 112 429 L 112 431 L 117 431 L 125 427 L 127 425 L 130 425 L 132 423 L 136 423 L 152 408 L 156 408 L 158 406 L 164 404 L 177 403 L 183 401 L 193 401 L 198 397 L 199 388 L 203 379 L 203 377 L 201 374 L 201 359 L 206 349 L 205 338 L 208 333 L 212 329 L 212 324 L 219 316 L 218 313 L 219 310 L 224 304 L 224 302 Z M 442 205 L 440 216 L 443 218 L 444 217 L 444 210 L 443 209 L 443 205 Z M 415 46 L 405 45 L 392 50 L 385 57 L 382 63 L 382 65 L 380 67 L 376 67 L 370 64 L 364 62 L 356 61 L 355 60 L 336 60 L 335 61 L 331 61 L 329 59 L 329 56 L 332 51 L 331 50 L 330 51 L 327 51 L 318 60 L 311 57 L 307 54 L 301 53 L 302 61 L 298 64 L 281 64 L 277 69 L 269 71 L 259 76 L 252 81 L 250 81 L 248 79 L 245 73 L 241 69 L 232 65 L 220 65 L 212 68 L 204 75 L 199 84 L 197 90 L 197 101 L 200 108 L 208 116 L 213 117 L 217 121 L 217 124 L 215 127 L 215 129 L 213 131 L 213 133 L 207 143 L 208 154 L 197 166 L 197 168 L 202 167 L 205 170 L 204 174 L 197 186 L 198 188 L 202 186 L 205 189 L 202 198 L 202 201 L 201 202 L 201 209 L 202 210 L 205 207 L 207 207 L 209 209 L 208 224 L 209 225 L 210 232 L 212 233 L 215 229 L 217 229 L 219 231 L 222 245 L 225 247 L 227 244 L 229 244 L 237 254 L 243 255 L 253 261 L 261 268 L 264 273 L 264 276 L 262 278 L 260 278 L 250 273 L 247 277 L 247 282 L 239 289 L 239 291 L 236 294 L 236 299 L 229 306 L 225 312 L 228 315 L 228 317 L 222 324 L 224 327 L 224 333 L 219 341 L 221 347 L 216 357 L 215 361 L 217 362 L 223 357 L 228 356 L 229 357 L 229 362 L 225 370 L 218 379 L 217 383 L 213 390 L 213 392 L 217 395 L 217 397 L 212 408 L 209 411 L 207 416 L 212 416 L 214 420 L 205 437 L 203 443 L 204 445 L 209 442 L 212 445 L 209 454 L 209 457 L 207 461 L 206 471 L 207 471 L 210 467 L 213 469 L 212 489 L 216 488 L 218 490 L 219 503 L 221 506 L 221 508 L 230 519 L 232 517 L 234 517 L 237 520 L 238 525 L 241 530 L 246 529 L 257 542 L 262 544 L 253 533 L 251 527 L 248 522 L 248 519 L 246 514 L 248 511 L 253 517 L 264 536 L 266 538 L 269 539 L 273 545 L 273 548 L 278 552 L 281 553 L 284 556 L 285 555 L 282 552 L 281 549 L 276 544 L 275 540 L 273 538 L 271 532 L 271 530 L 273 528 L 283 542 L 291 550 L 302 558 L 305 558 L 306 555 L 310 551 L 314 554 L 317 554 L 327 539 L 330 541 L 330 550 L 329 551 L 329 556 L 330 557 L 332 557 L 338 552 L 347 542 L 351 545 L 350 555 L 355 554 L 360 548 L 362 540 L 364 537 L 364 528 L 362 526 L 362 520 L 365 516 L 365 514 L 363 511 L 360 510 L 357 507 L 353 506 L 347 501 L 344 500 L 332 487 L 330 483 L 331 480 L 329 478 L 329 473 L 322 465 L 317 455 L 317 451 L 314 444 L 314 438 L 311 430 L 311 421 L 315 413 L 327 401 L 336 396 L 339 392 L 352 380 L 355 376 L 355 374 L 367 360 L 369 356 L 369 353 L 371 350 L 370 342 L 368 337 L 368 335 L 371 332 L 374 333 L 381 339 L 385 339 L 386 338 L 395 339 L 397 341 L 397 345 L 391 355 L 375 376 L 348 404 L 333 412 L 327 418 L 325 424 L 327 427 L 329 427 L 336 423 L 338 423 L 342 427 L 341 432 L 337 437 L 337 439 L 334 444 L 334 447 L 333 448 L 333 456 L 337 458 L 340 457 L 351 448 L 356 449 L 359 453 L 357 455 L 357 462 L 355 464 L 356 467 L 355 470 L 359 473 L 363 473 L 365 472 L 369 467 L 369 465 L 373 461 L 376 461 L 377 460 L 379 460 L 383 463 L 383 467 L 381 471 L 383 474 L 396 473 L 398 471 L 400 471 L 412 461 L 425 446 L 425 444 L 428 440 L 428 438 L 433 434 L 437 433 L 441 429 L 448 427 L 454 419 L 455 413 L 464 404 L 467 404 L 470 401 L 471 393 L 474 390 L 474 383 L 476 381 L 482 381 L 485 379 L 484 369 L 482 366 L 482 362 L 481 361 L 481 353 L 484 352 L 488 357 L 491 359 L 489 354 L 489 351 L 486 345 L 470 327 L 472 324 L 475 324 L 476 325 L 478 325 L 478 324 L 460 307 L 463 303 L 459 301 L 448 291 L 450 288 L 456 288 L 457 289 L 458 288 L 449 280 L 438 273 L 436 273 L 432 269 L 436 264 L 426 260 L 423 260 L 420 258 L 412 257 L 395 265 L 392 263 L 391 265 L 381 274 L 377 271 L 378 269 L 378 264 L 380 261 L 380 259 L 384 256 L 386 258 L 386 260 L 389 260 L 393 250 L 395 250 L 397 252 L 401 249 L 402 247 L 402 241 L 403 240 L 406 241 L 409 244 L 408 248 L 411 249 L 419 238 L 419 234 L 418 234 L 417 239 L 414 242 L 411 242 L 409 240 L 409 233 L 412 230 L 415 231 L 418 230 L 416 225 L 410 219 L 410 218 L 413 216 L 420 220 L 422 220 L 423 218 L 422 217 L 422 214 L 420 211 L 422 208 L 424 208 L 428 212 L 430 212 L 429 205 L 425 200 L 427 198 L 430 197 L 430 194 L 424 187 L 426 184 L 428 184 L 433 187 L 440 187 L 443 190 L 442 191 L 442 198 L 443 199 L 445 197 L 449 199 L 452 199 L 451 194 L 445 181 L 445 177 L 447 175 L 454 177 L 454 174 L 452 172 L 451 169 L 447 166 L 440 158 L 440 156 L 442 154 L 451 154 L 452 153 L 447 148 L 444 147 L 437 141 L 437 139 L 439 137 L 441 137 L 441 134 L 436 128 L 436 126 L 434 124 L 434 122 L 428 111 L 422 104 L 422 102 L 424 100 L 431 97 L 437 90 L 441 80 L 441 72 L 438 64 L 432 56 L 425 50 L 423 50 L 421 48 Z M 353 515 L 356 518 L 355 530 L 349 539 L 346 536 L 346 532 L 348 529 L 349 523 L 351 521 L 350 517 Z M 246 488 L 248 489 L 248 501 L 247 502 L 245 501 L 245 489 Z M 230 466 L 232 468 L 232 474 L 231 475 L 231 482 L 230 484 L 228 485 L 226 482 L 226 474 L 228 468 Z M 229 440 L 230 441 L 230 445 L 228 448 L 228 450 L 225 455 L 221 458 L 220 457 L 220 451 L 221 448 L 223 446 L 224 443 L 227 440 Z M 274 320 L 275 323 L 271 328 L 267 331 L 266 328 L 270 323 Z M 354 314 L 358 318 L 362 325 L 363 334 L 361 336 L 358 335 L 356 331 L 355 324 L 353 322 L 352 316 Z M 359 267 L 358 272 L 345 285 L 340 288 L 328 298 L 322 299 L 320 301 L 312 301 L 303 297 L 288 287 L 278 277 L 278 274 L 281 271 L 287 271 L 291 273 L 307 274 L 309 275 L 310 274 L 317 274 L 318 273 L 331 272 L 339 269 L 346 268 L 349 266 L 354 266 L 355 265 L 357 265 Z M 347 154 L 349 150 L 355 145 L 361 143 L 377 143 L 378 144 L 384 145 L 392 149 L 398 157 L 398 164 L 393 170 L 389 172 L 381 173 L 380 174 L 375 174 L 374 173 L 370 173 L 369 172 L 363 171 L 352 165 L 348 160 Z M 270 134 L 273 131 L 277 130 L 280 128 L 291 127 L 292 128 L 297 128 L 302 130 L 305 133 L 306 136 L 303 139 L 301 139 L 294 136 L 278 136 L 277 137 L 272 137 Z M 251 121 L 258 121 L 261 124 L 262 127 L 262 136 L 260 139 L 260 142 L 264 142 L 265 141 L 279 141 L 280 142 L 287 143 L 291 145 L 298 152 L 298 161 L 295 166 L 287 173 L 275 178 L 263 178 L 260 177 L 252 172 L 246 164 L 245 164 L 244 166 L 244 170 L 243 171 L 243 176 L 245 181 L 250 186 L 252 187 L 260 187 L 269 182 L 274 182 L 275 183 L 278 183 L 283 185 L 287 185 L 292 187 L 303 187 L 304 186 L 314 184 L 324 179 L 329 174 L 330 171 L 333 168 L 338 169 L 342 175 L 343 178 L 343 185 L 344 186 L 344 202 L 343 203 L 342 215 L 341 216 L 341 219 L 339 225 L 330 241 L 325 246 L 312 254 L 306 255 L 305 256 L 297 256 L 288 253 L 282 249 L 270 237 L 261 224 L 256 214 L 254 208 L 254 205 L 253 204 L 253 199 L 251 197 L 245 195 L 235 185 L 233 180 L 233 170 L 232 169 L 232 170 L 225 177 L 219 180 L 212 179 L 207 173 L 207 165 L 209 161 L 218 154 L 224 152 L 230 152 L 233 153 L 237 158 L 244 155 L 244 153 L 247 148 L 243 144 L 243 141 L 242 140 L 243 132 L 245 127 Z M 334 118 L 341 118 L 343 119 L 347 124 L 348 127 L 348 139 L 346 144 L 341 149 L 335 149 L 333 148 L 329 144 L 327 140 L 327 134 L 326 133 L 327 131 L 327 127 L 329 123 Z M 269 86 L 270 90 L 269 92 L 264 96 L 258 98 L 254 102 L 249 103 L 246 100 L 246 95 L 247 93 L 257 84 L 265 83 Z M 227 78 L 233 81 L 239 87 L 239 91 L 232 98 L 227 106 L 222 111 L 218 111 L 209 101 L 209 91 L 211 87 L 218 80 L 223 78 Z M 331 81 L 332 79 L 337 75 L 344 75 L 352 78 L 356 82 L 358 87 L 358 90 L 354 94 L 351 94 L 344 89 L 333 86 L 331 84 Z M 408 59 L 413 59 L 419 62 L 425 68 L 428 75 L 428 84 L 427 86 L 417 95 L 414 95 L 403 84 L 397 80 L 393 75 L 395 69 L 403 61 Z" fill="#FBFBFB" fill-rule="evenodd"/><path d="M 184 634 L 181 636 L 174 644 L 172 650 L 172 661 L 173 664 L 176 666 L 177 665 L 177 658 L 180 651 L 183 648 L 188 646 L 191 649 L 190 656 L 188 660 L 188 669 L 190 671 L 193 671 L 194 672 L 201 672 L 202 671 L 201 669 L 202 658 L 204 654 L 209 650 L 212 650 L 215 653 L 213 663 L 213 660 L 215 656 L 215 652 L 213 650 L 209 650 L 203 655 L 201 661 L 201 670 L 199 672 L 191 671 L 189 669 L 188 661 L 191 653 L 191 648 L 189 646 L 185 646 L 180 650 L 176 658 L 176 661 L 175 662 L 173 661 L 172 658 L 172 650 L 176 641 L 181 636 L 191 632 Z M 355 591 L 364 591 L 367 594 L 369 602 L 374 612 L 380 620 L 389 629 L 400 636 L 407 639 L 395 633 L 383 623 L 383 622 L 377 616 L 369 602 L 367 596 L 367 593 L 365 591 Z M 208 542 L 204 547 L 198 559 L 198 561 L 202 564 L 198 575 L 201 579 L 201 599 L 201 578 L 198 575 L 200 572 L 200 569 L 202 563 L 199 561 L 199 557 L 204 547 Z M 353 516 L 351 517 L 352 521 L 350 523 L 350 526 L 347 532 L 347 536 L 349 538 L 350 535 L 354 530 L 355 518 Z M 246 489 L 246 501 L 247 501 L 247 489 Z M 527 481 L 525 485 L 517 494 L 513 497 L 501 503 L 498 508 L 498 510 L 499 511 L 500 510 L 511 511 L 522 518 L 531 526 L 539 538 L 542 544 L 542 546 L 544 548 L 549 563 L 545 550 L 542 546 L 542 544 L 537 534 L 532 527 L 525 520 L 518 516 L 510 510 L 505 510 L 500 508 L 500 506 L 503 503 L 507 501 L 510 498 L 514 497 L 522 489 Z M 205 468 L 205 474 L 209 471 L 212 472 L 212 479 L 212 469 L 210 468 L 209 470 L 206 472 L 205 471 Z M 230 467 L 227 474 L 227 482 L 228 484 L 229 484 L 230 482 L 230 475 L 231 474 L 231 468 Z M 209 443 L 204 446 L 202 444 L 203 447 L 207 444 L 210 446 L 210 450 L 208 454 L 207 460 L 208 454 L 211 447 L 211 445 Z M 229 441 L 227 441 L 222 448 L 221 451 L 221 457 L 222 457 L 226 452 L 227 448 L 229 445 Z M 511 434 L 506 434 L 504 437 L 504 450 L 506 455 L 506 463 L 507 464 L 506 481 L 504 485 L 505 486 L 512 478 L 516 470 L 517 464 L 518 463 L 518 457 L 519 456 L 519 450 L 517 445 L 511 440 L 512 437 Z M 486 423 L 483 422 L 477 426 L 465 439 L 460 446 L 443 462 L 434 467 L 430 468 L 402 490 L 388 495 L 377 496 L 376 495 L 371 495 L 370 494 L 362 493 L 359 491 L 356 491 L 350 489 L 344 485 L 334 474 L 329 471 L 324 466 L 319 458 L 318 452 L 318 455 L 321 462 L 330 473 L 330 478 L 332 480 L 331 483 L 335 490 L 344 499 L 347 500 L 353 505 L 357 506 L 360 509 L 363 510 L 366 514 L 366 516 L 363 520 L 363 526 L 365 528 L 365 537 L 363 540 L 361 548 L 355 555 L 352 556 L 349 555 L 350 545 L 347 543 L 338 553 L 332 558 L 330 558 L 328 556 L 329 541 L 327 540 L 322 549 L 317 555 L 314 555 L 310 552 L 307 555 L 307 557 L 305 559 L 302 559 L 291 551 L 277 536 L 273 529 L 272 532 L 274 538 L 276 540 L 277 544 L 282 549 L 283 552 L 286 555 L 284 557 L 272 548 L 272 545 L 268 539 L 266 539 L 263 536 L 259 528 L 248 512 L 247 514 L 252 529 L 254 533 L 263 544 L 261 545 L 257 543 L 251 537 L 249 533 L 246 530 L 241 531 L 239 529 L 236 520 L 234 518 L 232 518 L 230 520 L 220 508 L 220 506 L 218 503 L 217 490 L 216 489 L 213 490 L 211 489 L 211 481 L 211 495 L 212 496 L 214 492 L 217 494 L 218 505 L 222 515 L 229 525 L 229 531 L 227 533 L 224 533 L 216 524 L 214 524 L 207 532 L 207 533 L 209 533 L 211 535 L 211 537 L 209 540 L 211 537 L 211 534 L 209 533 L 208 531 L 213 525 L 216 525 L 220 529 L 221 535 L 227 544 L 234 551 L 241 556 L 256 571 L 265 577 L 275 588 L 274 592 L 272 594 L 269 595 L 268 598 L 268 604 L 265 605 L 261 601 L 261 604 L 262 605 L 262 608 L 270 624 L 272 626 L 273 633 L 275 636 L 277 642 L 277 646 L 278 647 L 278 655 L 276 658 L 268 666 L 263 668 L 259 671 L 253 672 L 250 674 L 225 674 L 224 673 L 215 672 L 212 669 L 212 665 L 212 671 L 214 673 L 220 673 L 221 674 L 263 674 L 264 673 L 282 672 L 283 671 L 287 671 L 288 670 L 291 670 L 297 668 L 303 661 L 303 645 L 302 644 L 301 633 L 303 631 L 306 632 L 307 631 L 307 618 L 306 617 L 306 608 L 305 605 L 307 603 L 309 603 L 312 606 L 313 605 L 314 596 L 319 586 L 318 584 L 306 579 L 302 575 L 302 573 L 304 571 L 312 571 L 313 572 L 318 572 L 319 573 L 323 573 L 329 575 L 334 575 L 340 577 L 361 577 L 363 573 L 364 565 L 368 561 L 372 561 L 376 566 L 378 583 L 381 589 L 382 594 L 387 604 L 398 617 L 409 624 L 412 627 L 414 628 L 425 628 L 430 630 L 447 630 L 448 629 L 461 627 L 476 620 L 479 617 L 487 612 L 497 602 L 500 600 L 504 599 L 506 601 L 506 603 L 501 610 L 501 612 L 495 619 L 494 622 L 492 624 L 490 624 L 487 626 L 485 629 L 493 637 L 508 642 L 515 642 L 513 639 L 511 639 L 508 636 L 505 636 L 501 632 L 505 629 L 521 629 L 527 624 L 527 621 L 531 617 L 535 616 L 538 614 L 541 614 L 543 612 L 542 584 L 541 583 L 541 579 L 534 558 L 529 548 L 529 546 L 525 541 L 524 538 L 516 530 L 511 527 L 505 526 L 504 525 L 499 525 L 494 529 L 493 532 L 491 534 L 489 540 L 489 544 L 487 548 L 489 551 L 489 557 L 487 560 L 487 563 L 482 569 L 480 569 L 478 567 L 478 563 L 481 560 L 481 558 L 483 555 L 482 555 L 478 560 L 474 560 L 470 556 L 470 550 L 477 534 L 477 532 L 473 529 L 473 524 L 483 508 L 483 506 L 486 501 L 488 495 L 489 487 L 490 486 L 490 475 L 489 474 L 489 470 L 491 468 L 494 469 L 495 468 L 494 461 L 492 457 L 491 449 L 488 442 L 488 436 L 490 433 L 490 431 Z M 283 548 L 285 547 L 290 552 L 287 553 Z M 246 537 L 248 535 L 260 550 L 263 548 L 267 550 L 271 554 L 273 559 L 271 561 L 261 552 L 258 553 L 254 551 L 248 544 Z M 389 530 L 391 532 L 388 534 L 388 537 L 386 539 L 384 539 L 383 538 L 384 533 L 387 530 Z M 530 560 L 528 563 L 522 563 L 528 573 L 526 575 L 520 575 L 517 573 L 511 580 L 507 582 L 504 582 L 496 589 L 493 590 L 482 598 L 480 598 L 478 600 L 475 600 L 473 602 L 471 602 L 469 604 L 465 605 L 461 608 L 458 608 L 451 612 L 444 612 L 443 613 L 439 613 L 438 612 L 422 612 L 420 613 L 419 612 L 406 612 L 405 611 L 401 611 L 399 610 L 396 607 L 394 607 L 384 596 L 378 578 L 378 570 L 379 569 L 380 562 L 387 547 L 393 541 L 396 540 L 399 537 L 401 537 L 403 532 L 405 530 L 431 531 L 432 530 L 437 530 L 438 529 L 453 528 L 465 532 L 467 534 L 468 551 L 462 558 L 461 561 L 454 570 L 454 576 L 455 577 L 457 577 L 460 574 L 460 569 L 462 567 L 462 565 L 467 560 L 471 560 L 473 563 L 473 574 L 477 577 L 480 576 L 483 573 L 485 573 L 497 560 L 500 560 L 503 557 L 505 558 L 512 557 L 514 560 L 517 556 L 519 557 L 526 556 L 527 558 Z M 253 522 L 258 528 L 261 534 L 260 536 L 259 536 L 254 530 L 252 526 L 252 523 Z M 233 522 L 235 522 L 238 526 L 238 528 L 243 538 L 243 541 L 242 542 L 240 542 L 237 539 L 235 535 L 235 532 L 232 524 Z M 228 357 L 223 358 L 217 363 L 214 361 L 215 364 L 216 363 L 219 363 L 225 359 L 227 361 L 223 369 L 218 375 L 216 379 L 215 385 L 211 392 L 211 394 L 214 395 L 216 397 L 212 406 L 208 411 L 205 417 L 206 418 L 211 417 L 213 420 L 205 436 L 213 420 L 212 417 L 207 417 L 206 416 L 208 411 L 211 408 L 216 397 L 216 395 L 212 392 L 212 390 L 216 383 L 217 379 L 224 370 L 228 362 Z M 395 340 L 390 340 L 389 339 L 381 340 L 372 333 L 369 335 L 372 350 L 370 353 L 370 356 L 368 360 L 356 374 L 356 376 L 353 380 L 342 391 L 341 391 L 336 397 L 327 402 L 316 413 L 312 421 L 312 430 L 315 438 L 315 444 L 317 450 L 317 443 L 312 429 L 313 420 L 317 413 L 330 400 L 339 396 L 347 388 L 362 368 L 368 362 L 373 351 L 372 345 L 370 341 L 370 336 L 372 334 L 376 336 L 382 343 L 387 340 L 389 341 L 393 340 L 396 343 L 395 347 L 377 372 L 356 394 L 356 395 L 348 403 L 333 411 L 327 417 L 333 411 L 348 403 L 374 376 L 394 349 L 396 345 L 396 341 Z M 274 321 L 273 321 L 267 328 L 267 330 L 268 330 L 274 323 Z M 354 315 L 353 318 L 354 319 L 354 322 L 356 324 L 357 327 L 357 331 L 359 335 L 361 335 L 362 334 L 361 325 L 357 318 Z M 358 267 L 357 266 L 349 267 L 346 269 L 339 270 L 331 273 L 325 273 L 324 274 L 318 274 L 317 275 L 310 275 L 309 276 L 307 275 L 291 274 L 287 272 L 281 272 L 279 274 L 279 277 L 288 286 L 303 296 L 312 300 L 320 300 L 322 298 L 328 297 L 340 287 L 345 284 L 357 272 Z M 280 275 L 282 273 L 286 273 L 290 275 L 298 276 L 301 278 L 302 277 L 312 277 L 313 276 L 317 276 L 318 278 L 316 280 L 302 280 L 301 283 L 298 286 L 299 287 L 301 286 L 306 290 L 309 290 L 311 293 L 321 294 L 331 288 L 334 289 L 328 295 L 322 296 L 318 299 L 313 299 L 307 297 L 305 295 L 294 289 L 285 282 L 281 278 Z M 355 271 L 352 273 L 349 277 L 347 274 L 351 269 Z M 199 237 L 203 243 L 209 245 L 212 248 L 214 253 L 218 258 L 228 265 L 228 268 L 222 275 L 216 279 L 214 285 L 210 289 L 207 290 L 207 291 L 191 307 L 187 308 L 191 307 L 197 301 L 198 301 L 209 289 L 212 288 L 214 285 L 215 281 L 229 268 L 229 266 L 225 262 L 221 260 L 214 253 L 212 248 L 209 245 L 205 244 L 199 238 Z M 201 199 L 199 208 L 201 212 L 205 209 L 208 211 L 207 224 L 208 225 L 208 229 L 210 234 L 212 235 L 215 231 L 218 233 L 221 245 L 224 250 L 226 250 L 226 248 L 229 246 L 233 251 L 233 253 L 237 259 L 247 268 L 248 273 L 245 276 L 239 278 L 242 282 L 239 286 L 235 283 L 225 288 L 225 290 L 227 293 L 220 300 L 212 306 L 210 306 L 207 309 L 207 310 L 211 313 L 211 315 L 208 318 L 206 319 L 201 319 L 200 320 L 195 320 L 192 322 L 197 326 L 197 328 L 194 331 L 183 331 L 182 332 L 169 333 L 160 336 L 157 338 L 155 338 L 152 340 L 146 341 L 139 345 L 136 345 L 135 346 L 130 345 L 124 341 L 118 340 L 114 338 L 104 338 L 100 341 L 100 347 L 96 350 L 82 350 L 97 350 L 98 351 L 97 353 L 81 353 L 80 354 L 79 353 L 76 354 L 74 352 L 75 350 L 73 350 L 69 353 L 67 357 L 67 360 L 68 361 L 71 360 L 70 357 L 72 355 L 79 355 L 80 354 L 94 354 L 95 355 L 98 355 L 101 358 L 101 361 L 96 366 L 86 373 L 79 373 L 78 374 L 66 375 L 57 379 L 54 383 L 55 388 L 57 390 L 60 391 L 61 390 L 59 387 L 59 383 L 67 377 L 70 377 L 71 376 L 84 376 L 89 380 L 89 385 L 86 389 L 87 394 L 85 398 L 83 400 L 75 404 L 68 406 L 65 409 L 65 411 L 67 413 L 69 413 L 74 408 L 84 402 L 88 402 L 94 404 L 98 409 L 98 413 L 95 416 L 93 423 L 88 428 L 88 430 L 91 433 L 94 434 L 109 434 L 139 424 L 169 424 L 170 423 L 174 423 L 175 422 L 179 422 L 180 421 L 191 419 L 193 417 L 195 410 L 199 404 L 199 394 L 200 393 L 200 390 L 202 384 L 204 381 L 204 376 L 202 373 L 202 359 L 206 350 L 208 348 L 208 345 L 206 343 L 206 338 L 213 329 L 218 326 L 221 326 L 223 328 L 223 333 L 220 338 L 223 333 L 223 327 L 221 324 L 227 317 L 227 315 L 224 312 L 228 306 L 235 299 L 235 294 L 238 291 L 238 289 L 246 282 L 246 277 L 247 275 L 251 272 L 260 277 L 263 276 L 263 273 L 260 268 L 253 262 L 243 256 L 237 255 L 232 250 L 229 245 L 227 245 L 226 247 L 224 248 L 221 245 L 219 234 L 217 230 L 215 230 L 212 234 L 209 232 L 208 225 L 207 224 L 208 209 L 205 208 L 202 211 L 200 209 L 200 202 Z M 89 428 L 91 427 L 93 430 L 90 432 L 89 431 Z M 93 423 L 97 419 L 102 417 L 107 419 L 110 422 L 110 427 L 106 432 L 100 433 L 97 432 L 93 428 Z M 97 406 L 98 405 L 108 416 L 112 418 L 115 421 L 112 422 L 107 418 L 104 417 L 97 418 L 96 417 L 98 414 L 98 408 Z M 131 366 L 136 371 L 139 378 L 139 402 L 136 410 L 128 418 L 119 421 L 110 417 L 99 405 L 94 393 L 94 383 L 97 376 L 106 368 L 112 367 L 113 366 Z M 107 360 L 111 363 L 111 365 L 105 368 L 103 368 L 95 377 L 94 380 L 94 394 L 95 395 L 95 398 L 98 402 L 98 404 L 96 405 L 93 402 L 91 402 L 89 400 L 89 394 L 88 393 L 89 390 L 88 388 L 90 385 L 90 380 L 88 374 L 94 368 L 100 365 L 105 360 Z M 101 347 L 103 345 L 106 344 L 112 344 L 118 347 L 123 352 L 123 359 L 121 361 L 114 361 L 106 357 L 102 352 Z M 105 340 L 106 339 L 112 339 L 116 342 L 115 343 L 109 343 L 106 342 Z M 224 315 L 226 318 L 222 322 L 218 324 L 216 322 L 223 315 Z M 231 298 L 233 300 L 230 303 L 228 301 Z M 228 295 L 229 296 L 226 300 L 225 304 L 220 310 L 219 313 L 220 316 L 213 324 L 213 329 L 209 333 L 206 338 L 207 349 L 202 359 L 202 374 L 204 377 L 204 379 L 200 388 L 199 397 L 193 402 L 183 402 L 177 404 L 164 405 L 163 406 L 160 406 L 156 409 L 152 409 L 136 424 L 132 424 L 130 426 L 127 426 L 125 428 L 117 432 L 112 432 L 111 429 L 116 423 L 118 425 L 120 425 L 122 423 L 126 422 L 127 420 L 133 415 L 139 406 L 139 397 L 140 396 L 140 384 L 139 383 L 140 380 L 139 379 L 138 373 L 134 367 L 129 364 L 125 360 L 124 352 L 117 344 L 119 342 L 124 342 L 131 346 L 137 346 L 144 342 L 150 341 L 153 339 L 155 339 L 158 337 L 160 337 L 169 333 L 183 332 L 184 331 L 196 331 L 198 329 L 198 327 L 195 322 L 197 320 L 208 319 L 212 316 L 211 313 L 212 312 L 211 307 L 226 295 Z M 250 267 L 252 265 L 255 265 L 262 273 L 259 275 Z M 348 154 L 349 160 L 352 164 L 363 170 L 369 171 L 370 172 L 374 172 L 375 173 L 386 172 L 393 169 L 397 164 L 397 157 L 394 152 L 389 148 L 377 144 L 361 144 L 355 146 L 350 150 Z M 349 153 L 354 147 L 356 147 L 359 145 L 363 145 L 364 144 L 378 145 L 389 149 L 396 156 L 397 158 L 397 163 L 391 169 L 386 171 L 383 171 L 382 172 L 369 171 L 360 168 L 355 165 L 349 159 Z M 206 144 L 207 154 L 195 166 L 195 169 L 196 170 L 200 168 L 203 170 L 203 173 L 196 186 L 196 189 L 201 188 L 203 190 L 202 197 L 204 189 L 202 187 L 198 189 L 196 186 L 200 178 L 202 176 L 204 170 L 202 168 L 197 169 L 196 166 L 207 154 Z M 210 161 L 208 165 L 208 173 L 212 178 L 219 179 L 225 176 L 232 168 L 234 170 L 234 180 L 236 185 L 245 194 L 251 196 L 254 199 L 255 208 L 254 199 L 251 196 L 245 194 L 237 186 L 234 180 L 234 168 L 235 167 L 235 163 L 239 158 L 242 158 L 244 160 L 244 165 L 242 170 L 242 176 L 245 183 L 250 187 L 255 189 L 260 188 L 269 183 L 274 183 L 278 185 L 291 187 L 292 188 L 303 188 L 304 187 L 311 186 L 317 183 L 319 183 L 321 181 L 324 180 L 330 174 L 331 171 L 333 169 L 336 169 L 339 172 L 342 179 L 342 207 L 341 208 L 341 213 L 340 214 L 340 217 L 337 226 L 330 239 L 324 245 L 321 246 L 316 250 L 307 254 L 296 254 L 285 250 L 281 247 L 269 234 L 282 248 L 288 252 L 297 255 L 305 255 L 316 251 L 325 245 L 333 235 L 340 219 L 341 210 L 342 209 L 342 203 L 343 202 L 343 186 L 342 185 L 342 178 L 338 170 L 333 169 L 331 171 L 330 174 L 324 180 L 314 185 L 304 187 L 303 188 L 292 188 L 291 187 L 283 186 L 274 183 L 269 183 L 260 188 L 252 188 L 244 181 L 242 176 L 243 166 L 245 163 L 247 164 L 252 171 L 260 176 L 263 177 L 275 177 L 281 175 L 291 169 L 296 163 L 297 158 L 296 163 L 288 171 L 283 174 L 274 177 L 264 177 L 263 176 L 260 176 L 255 173 L 248 166 L 245 161 L 245 153 L 250 147 L 247 147 L 244 144 L 244 142 L 244 144 L 248 149 L 243 157 L 237 159 L 233 154 L 230 153 L 224 153 L 218 155 Z M 235 158 L 235 160 L 233 163 L 232 163 L 230 160 L 223 160 L 220 163 L 219 162 L 217 163 L 218 167 L 216 169 L 216 172 L 217 173 L 219 172 L 220 170 L 222 171 L 223 174 L 219 177 L 213 177 L 209 174 L 209 166 L 210 163 L 219 156 L 225 154 L 230 154 Z M 271 134 L 272 136 L 277 136 L 278 135 L 294 135 L 301 138 L 303 138 L 305 136 L 304 133 L 302 131 L 297 129 L 292 129 L 291 128 L 280 129 L 277 131 L 273 132 Z M 287 131 L 288 130 L 297 131 L 300 132 L 302 135 L 301 136 L 297 134 L 288 133 Z M 452 87 L 449 96 L 440 107 L 443 111 L 446 118 L 448 120 L 449 124 L 451 126 L 455 134 L 455 138 L 464 146 L 467 151 L 467 158 L 463 164 L 466 167 L 468 171 L 470 180 L 469 178 L 469 173 L 464 164 L 467 158 L 467 151 L 465 147 L 456 139 L 454 131 L 451 127 L 449 121 L 441 109 L 441 105 L 448 98 L 451 92 Z M 228 91 L 225 88 L 222 89 L 218 87 L 215 91 L 214 96 L 215 98 L 218 96 L 222 97 L 222 95 Z M 268 86 L 265 84 L 257 85 L 248 93 L 247 95 L 247 100 L 249 102 L 254 101 L 258 97 L 264 95 L 267 93 L 269 90 Z M 268 87 L 269 90 L 265 94 L 258 97 L 255 100 L 251 102 L 249 102 L 247 100 L 247 95 L 248 93 L 254 87 L 260 84 L 265 84 Z M 441 81 L 441 84 L 436 93 L 431 98 L 424 101 L 423 104 L 429 111 L 435 122 L 435 124 L 437 126 L 437 128 L 442 134 L 442 137 L 439 138 L 438 141 L 444 146 L 447 147 L 453 153 L 451 155 L 442 155 L 441 156 L 442 160 L 452 169 L 453 172 L 455 174 L 455 177 L 454 178 L 452 178 L 449 176 L 446 177 L 446 181 L 452 194 L 453 199 L 452 200 L 449 200 L 445 198 L 443 200 L 441 198 L 441 191 L 442 190 L 440 188 L 433 188 L 428 185 L 426 185 L 425 187 L 431 194 L 431 197 L 429 199 L 426 200 L 430 205 L 431 212 L 428 213 L 424 209 L 422 209 L 421 211 L 423 214 L 423 217 L 424 218 L 422 221 L 420 221 L 413 217 L 411 218 L 411 219 L 417 225 L 419 230 L 417 232 L 412 231 L 410 233 L 410 240 L 411 241 L 414 241 L 416 239 L 416 236 L 418 233 L 420 234 L 420 238 L 411 250 L 409 250 L 407 248 L 408 244 L 406 242 L 403 241 L 403 247 L 402 249 L 397 253 L 395 251 L 393 251 L 393 254 L 391 257 L 391 259 L 389 261 L 386 261 L 384 257 L 381 259 L 381 261 L 379 264 L 379 269 L 378 271 L 381 273 L 385 270 L 392 262 L 395 264 L 412 256 L 420 257 L 423 259 L 426 259 L 436 263 L 437 265 L 435 266 L 433 269 L 436 272 L 438 272 L 449 279 L 459 288 L 457 290 L 456 289 L 450 289 L 449 291 L 454 296 L 464 303 L 461 307 L 479 324 L 478 326 L 472 325 L 471 327 L 487 345 L 490 351 L 490 354 L 492 359 L 490 360 L 484 353 L 482 353 L 482 361 L 483 362 L 483 366 L 485 369 L 486 379 L 482 382 L 476 382 L 475 383 L 475 390 L 472 393 L 471 401 L 467 405 L 464 405 L 456 413 L 455 419 L 452 422 L 452 424 L 448 428 L 443 429 L 437 434 L 433 435 L 430 437 L 428 442 L 426 444 L 426 446 L 420 454 L 412 462 L 400 472 L 398 472 L 396 474 L 383 475 L 380 472 L 382 467 L 382 463 L 379 461 L 373 462 L 370 465 L 370 467 L 365 473 L 363 474 L 359 474 L 354 470 L 355 469 L 354 464 L 356 462 L 356 455 L 358 453 L 356 450 L 351 449 L 340 458 L 337 459 L 332 456 L 332 448 L 333 447 L 333 444 L 336 439 L 336 437 L 340 432 L 341 427 L 338 424 L 336 424 L 329 428 L 327 428 L 324 425 L 326 419 L 324 424 L 324 427 L 325 428 L 330 428 L 336 424 L 340 427 L 340 430 L 333 443 L 331 449 L 332 456 L 335 459 L 340 459 L 348 452 L 353 451 L 355 453 L 355 456 L 354 457 L 354 462 L 353 463 L 352 472 L 354 474 L 360 476 L 366 474 L 369 469 L 376 462 L 378 462 L 381 465 L 380 471 L 377 477 L 377 480 L 378 481 L 382 481 L 383 480 L 389 479 L 397 475 L 400 472 L 404 470 L 413 461 L 421 455 L 426 449 L 430 440 L 434 436 L 443 433 L 444 434 L 444 438 L 446 439 L 450 435 L 455 420 L 460 413 L 462 413 L 465 411 L 467 413 L 467 417 L 469 416 L 473 406 L 474 393 L 476 387 L 479 386 L 481 388 L 484 394 L 484 396 L 486 396 L 488 390 L 487 376 L 483 364 L 482 356 L 484 355 L 493 365 L 494 364 L 491 353 L 486 343 L 472 328 L 474 326 L 478 326 L 480 327 L 480 325 L 473 317 L 468 314 L 462 308 L 465 304 L 450 292 L 452 289 L 459 290 L 459 288 L 452 281 L 442 274 L 437 272 L 434 269 L 436 267 L 440 266 L 440 265 L 427 259 L 424 259 L 419 255 L 423 251 L 436 232 L 436 228 L 437 227 L 437 220 L 439 218 L 443 221 L 445 220 L 445 215 L 446 213 L 445 212 L 445 204 L 444 201 L 446 199 L 448 199 L 452 202 L 453 201 L 452 193 L 447 183 L 446 179 L 448 177 L 451 177 L 454 179 L 456 178 L 456 175 L 450 166 L 442 159 L 442 157 L 444 155 L 453 155 L 454 153 L 449 148 L 443 145 L 439 141 L 443 135 L 438 129 L 430 112 L 424 105 L 424 103 L 427 100 L 431 98 L 437 92 L 441 84 Z M 442 204 L 444 205 L 444 209 L 445 210 L 445 217 L 443 219 L 439 216 L 440 209 Z M 230 80 L 223 79 L 218 81 L 212 87 L 210 91 L 210 101 L 218 110 L 222 110 L 226 106 L 231 98 L 238 91 L 238 87 Z M 229 81 L 232 83 L 237 89 L 232 94 L 224 106 L 221 109 L 219 109 L 212 102 L 211 99 L 211 91 L 214 88 L 215 85 L 220 81 Z M 408 60 L 403 62 L 396 69 L 394 75 L 397 79 L 403 83 L 414 94 L 417 94 L 426 86 L 427 84 L 427 75 L 424 68 L 419 63 L 413 60 Z M 408 61 L 412 61 L 419 65 L 423 69 L 426 75 L 426 84 L 416 93 L 415 93 L 404 82 L 395 76 L 395 73 L 397 69 L 402 64 Z M 441 71 L 438 62 L 427 50 L 419 46 L 411 45 L 410 44 L 401 45 L 389 51 L 385 55 L 382 60 L 381 64 L 379 66 L 376 66 L 373 64 L 364 61 L 356 60 L 355 59 L 349 59 L 348 58 L 341 58 L 340 59 L 332 60 L 330 58 L 331 54 L 333 51 L 332 49 L 327 50 L 318 58 L 315 58 L 308 53 L 300 51 L 299 53 L 301 57 L 301 60 L 298 63 L 293 63 L 292 62 L 283 62 L 280 63 L 279 66 L 277 68 L 266 71 L 257 76 L 252 80 L 248 77 L 247 74 L 241 68 L 232 64 L 220 64 L 215 66 L 220 64 L 232 64 L 241 68 L 246 73 L 249 79 L 252 80 L 259 75 L 269 70 L 277 68 L 281 63 L 298 63 L 301 61 L 301 57 L 300 56 L 300 53 L 301 52 L 307 53 L 311 56 L 318 59 L 327 50 L 330 50 L 331 49 L 333 51 L 330 56 L 330 59 L 331 60 L 335 60 L 336 59 L 355 59 L 360 61 L 364 61 L 376 66 L 380 66 L 384 57 L 392 49 L 401 45 L 409 44 L 410 45 L 415 45 L 421 47 L 423 49 L 425 49 L 431 54 L 439 64 Z M 353 47 L 345 47 L 342 44 L 341 41 L 337 38 L 328 38 L 322 41 L 317 45 L 314 45 L 312 43 L 305 40 L 297 40 L 290 46 L 290 50 L 288 52 L 280 52 L 274 54 L 270 57 L 257 63 L 254 63 L 248 58 L 234 52 L 223 52 L 233 52 L 242 55 L 249 59 L 253 63 L 256 64 L 260 61 L 272 56 L 274 54 L 280 53 L 281 52 L 289 52 L 290 51 L 290 46 L 297 40 L 305 40 L 310 42 L 314 45 L 318 45 L 322 41 L 328 38 L 336 38 L 342 43 L 344 47 Z M 421 35 L 426 36 L 432 39 L 443 48 L 451 60 L 453 66 L 453 70 L 453 66 L 450 57 L 446 51 L 434 40 L 429 38 L 427 36 Z" fill="#D8D8D8" fill-rule="evenodd"/><path d="M 248 536 L 247 539 L 249 544 L 252 548 L 258 552 L 261 551 L 271 560 L 272 558 L 270 554 L 264 549 L 260 551 Z M 253 523 L 253 526 L 257 533 L 260 535 L 257 528 Z M 233 523 L 236 532 L 236 535 L 238 539 L 240 541 L 242 541 L 242 538 L 237 528 L 237 526 L 235 523 Z M 512 432 L 505 433 L 503 435 L 502 438 L 502 448 L 503 449 L 504 461 L 505 462 L 505 475 L 504 476 L 504 482 L 502 487 L 503 489 L 505 489 L 516 475 L 519 468 L 520 460 L 521 459 L 521 450 L 518 443 L 513 439 L 514 434 Z M 511 433 L 513 435 L 512 440 L 515 442 L 519 447 L 520 450 L 520 456 L 519 457 L 519 463 L 518 464 L 517 470 L 513 478 L 505 487 L 503 485 L 505 481 L 505 473 L 506 472 L 505 455 L 503 450 L 503 437 L 506 433 Z M 102 418 L 97 420 L 94 423 L 94 428 L 97 431 L 100 432 L 106 431 L 109 427 L 109 422 L 107 420 Z M 131 367 L 113 367 L 112 368 L 106 369 L 98 376 L 95 383 L 95 393 L 100 405 L 110 416 L 119 420 L 128 417 L 135 410 L 138 402 L 138 378 L 135 371 Z M 102 347 L 102 350 L 106 356 L 114 360 L 121 360 L 122 359 L 122 352 L 118 348 L 112 345 L 106 345 Z M 225 317 L 223 316 L 217 322 L 219 323 L 222 321 Z M 281 275 L 282 278 L 294 288 L 305 294 L 307 296 L 313 298 L 318 298 L 322 295 L 328 294 L 333 289 L 331 289 L 321 295 L 311 294 L 309 291 L 306 291 L 303 288 L 301 287 L 299 288 L 297 286 L 300 283 L 300 281 L 302 279 L 316 279 L 317 277 L 313 277 L 312 278 L 302 278 L 301 279 L 298 277 L 294 277 L 286 274 L 282 274 Z M 354 271 L 351 270 L 348 275 L 349 276 L 350 274 Z M 251 267 L 257 273 L 259 274 L 261 273 L 255 266 L 252 266 Z M 236 163 L 236 167 L 235 168 L 235 180 L 236 183 L 245 193 L 251 195 L 255 199 L 256 209 L 262 222 L 269 233 L 281 246 L 285 249 L 292 252 L 295 252 L 296 253 L 307 253 L 316 249 L 321 245 L 324 244 L 329 239 L 336 226 L 339 217 L 339 214 L 340 213 L 340 208 L 341 207 L 341 179 L 338 172 L 336 170 L 333 170 L 331 174 L 324 181 L 321 182 L 319 184 L 317 184 L 311 187 L 304 188 L 303 189 L 292 189 L 291 188 L 278 186 L 274 184 L 269 184 L 260 189 L 255 190 L 250 188 L 244 183 L 241 176 L 241 170 L 243 165 L 243 160 L 242 159 L 239 159 Z M 237 162 L 240 159 L 243 162 L 242 164 L 242 168 L 241 169 L 241 177 L 242 180 L 246 186 L 253 190 L 259 190 L 266 187 L 268 185 L 275 185 L 276 186 L 279 186 L 284 188 L 288 188 L 289 189 L 306 189 L 324 182 L 334 171 L 336 171 L 338 173 L 340 178 L 340 184 L 341 185 L 341 201 L 340 202 L 340 208 L 339 209 L 338 217 L 335 226 L 330 236 L 325 241 L 324 240 L 324 238 L 327 234 L 331 224 L 331 221 L 332 220 L 331 215 L 325 209 L 318 206 L 306 206 L 299 209 L 290 215 L 282 225 L 281 228 L 281 234 L 284 240 L 291 248 L 289 250 L 282 246 L 274 238 L 262 221 L 256 207 L 255 197 L 246 193 L 236 182 L 235 179 L 235 169 L 236 168 Z M 234 158 L 230 155 L 225 155 L 219 157 L 211 163 L 210 166 L 210 174 L 213 176 L 219 176 L 221 175 L 222 172 L 220 171 L 220 172 L 217 174 L 215 172 L 215 169 L 217 167 L 216 163 L 219 161 L 220 162 L 223 159 L 230 159 L 232 162 L 233 162 Z M 350 153 L 350 159 L 355 164 L 360 167 L 369 170 L 375 170 L 376 171 L 386 170 L 391 168 L 396 163 L 396 158 L 395 156 L 389 150 L 378 146 L 373 146 L 372 145 L 359 146 L 356 148 L 354 148 Z M 288 131 L 288 132 L 297 133 L 301 135 L 300 133 L 297 132 Z M 251 123 L 246 129 L 245 136 L 244 137 L 245 144 L 247 146 L 250 146 L 251 147 L 246 153 L 246 161 L 249 166 L 255 172 L 260 175 L 263 175 L 264 176 L 274 176 L 283 173 L 288 170 L 296 161 L 297 156 L 295 151 L 290 147 L 279 143 L 264 143 L 255 146 L 254 144 L 257 142 L 260 136 L 260 127 L 256 122 Z M 246 154 L 252 148 L 258 145 L 266 144 L 267 143 L 278 143 L 279 144 L 285 145 L 292 149 L 296 154 L 296 159 L 294 163 L 287 170 L 276 175 L 266 176 L 265 175 L 259 174 L 249 165 L 246 159 Z M 256 123 L 260 128 L 260 135 L 259 138 L 255 143 L 250 146 L 248 146 L 245 143 L 245 133 L 246 130 L 252 123 Z M 334 120 L 331 123 L 329 127 L 329 130 L 328 131 L 329 140 L 333 146 L 335 147 L 341 147 L 344 144 L 346 140 L 346 136 L 347 135 L 346 127 L 344 123 L 341 120 Z M 335 120 L 340 120 L 344 124 L 346 128 L 346 139 L 344 143 L 339 147 L 335 147 L 331 143 L 329 139 L 329 128 L 331 124 Z M 267 87 L 265 85 L 260 85 L 254 88 L 249 93 L 248 95 L 248 100 L 251 101 L 255 99 L 258 96 L 265 93 L 268 90 Z M 267 88 L 267 90 L 264 93 L 259 95 L 254 99 L 250 100 L 248 98 L 249 94 L 257 87 L 259 86 L 265 86 Z M 229 82 L 220 82 L 216 85 L 215 88 L 212 91 L 212 99 L 213 102 L 219 108 L 221 108 L 223 106 L 231 94 L 236 89 L 236 88 Z M 213 96 L 214 91 L 218 86 L 222 88 L 225 87 L 229 91 L 226 94 L 223 95 L 222 98 L 218 97 L 215 99 Z M 333 81 L 333 83 L 335 85 L 344 87 L 350 91 L 354 91 L 356 89 L 356 86 L 354 82 L 348 78 L 345 77 L 337 77 L 335 78 Z M 334 80 L 338 77 L 346 78 L 350 80 L 355 85 L 355 89 L 352 91 L 346 87 L 336 85 L 334 83 Z M 408 62 L 402 65 L 398 69 L 396 73 L 396 76 L 404 81 L 415 92 L 416 92 L 425 84 L 425 75 L 424 72 L 419 66 L 412 62 Z M 421 45 L 415 44 L 414 43 L 403 43 L 397 45 L 389 49 L 383 55 L 380 61 L 380 63 L 378 65 L 367 60 L 354 58 L 353 57 L 334 57 L 333 56 L 333 53 L 335 50 L 335 48 L 334 47 L 330 47 L 324 50 L 318 56 L 315 56 L 313 54 L 305 50 L 299 49 L 298 50 L 298 55 L 300 59 L 298 61 L 280 61 L 275 67 L 262 71 L 252 78 L 249 76 L 248 73 L 242 67 L 239 65 L 230 62 L 219 63 L 207 69 L 200 77 L 195 89 L 195 102 L 198 109 L 205 117 L 210 120 L 212 120 L 214 122 L 214 125 L 205 143 L 205 146 L 204 147 L 205 149 L 205 155 L 201 158 L 193 167 L 193 170 L 194 171 L 198 171 L 199 170 L 201 172 L 201 174 L 195 185 L 195 190 L 196 191 L 199 191 L 200 190 L 202 192 L 198 204 L 198 211 L 200 213 L 203 213 L 204 212 L 206 214 L 206 227 L 209 235 L 212 237 L 215 234 L 218 237 L 219 244 L 222 250 L 225 253 L 227 253 L 227 251 L 229 249 L 231 251 L 235 259 L 244 267 L 246 270 L 246 273 L 244 275 L 237 274 L 235 280 L 230 284 L 225 286 L 222 289 L 222 291 L 224 294 L 215 302 L 206 308 L 205 311 L 208 314 L 206 317 L 203 317 L 198 319 L 193 319 L 190 321 L 195 327 L 193 329 L 190 330 L 176 330 L 175 331 L 170 331 L 161 335 L 159 335 L 156 337 L 145 340 L 138 344 L 132 344 L 123 339 L 116 338 L 111 336 L 102 337 L 99 340 L 98 346 L 96 348 L 75 348 L 70 350 L 67 353 L 65 357 L 65 361 L 67 363 L 81 366 L 84 368 L 84 370 L 83 371 L 71 372 L 70 373 L 64 374 L 58 377 L 53 383 L 53 387 L 54 389 L 60 394 L 63 395 L 81 395 L 82 396 L 82 398 L 80 400 L 65 406 L 63 408 L 63 411 L 65 415 L 71 419 L 74 419 L 75 420 L 88 420 L 90 423 L 87 427 L 87 431 L 92 435 L 95 435 L 96 436 L 106 436 L 107 435 L 116 434 L 122 432 L 127 429 L 130 429 L 133 427 L 136 427 L 137 426 L 168 426 L 169 425 L 175 425 L 176 424 L 191 421 L 196 415 L 201 405 L 201 392 L 204 383 L 206 380 L 203 371 L 203 360 L 207 351 L 209 349 L 209 344 L 207 342 L 208 337 L 210 334 L 216 329 L 220 328 L 222 330 L 222 333 L 217 341 L 218 350 L 213 360 L 213 364 L 217 368 L 216 375 L 215 376 L 215 380 L 214 381 L 214 384 L 209 394 L 209 396 L 212 397 L 214 399 L 204 416 L 204 419 L 205 420 L 209 419 L 211 421 L 201 442 L 201 448 L 202 449 L 206 447 L 209 448 L 206 456 L 203 475 L 204 477 L 206 477 L 208 475 L 210 476 L 209 495 L 211 499 L 214 498 L 216 500 L 218 511 L 224 520 L 227 528 L 224 530 L 216 522 L 213 522 L 204 533 L 204 534 L 207 535 L 209 538 L 200 551 L 200 553 L 196 561 L 196 564 L 197 565 L 198 564 L 200 566 L 196 579 L 200 581 L 200 602 L 201 603 L 201 607 L 202 608 L 202 612 L 203 613 L 203 618 L 206 622 L 215 623 L 216 624 L 219 624 L 225 626 L 230 629 L 231 631 L 230 632 L 227 632 L 226 631 L 217 630 L 216 629 L 196 629 L 195 630 L 188 631 L 180 635 L 174 641 L 171 648 L 171 663 L 172 665 L 176 668 L 179 667 L 179 657 L 181 652 L 184 649 L 187 648 L 189 650 L 189 653 L 187 658 L 186 668 L 187 670 L 191 673 L 197 673 L 198 674 L 203 674 L 204 673 L 204 670 L 203 669 L 203 661 L 205 656 L 209 652 L 211 652 L 213 654 L 213 657 L 211 662 L 211 666 L 210 667 L 210 672 L 212 674 L 215 674 L 216 675 L 232 675 L 233 676 L 270 675 L 271 674 L 280 674 L 281 673 L 291 672 L 299 669 L 303 665 L 305 659 L 305 646 L 304 645 L 303 635 L 304 634 L 307 635 L 309 633 L 309 622 L 308 621 L 307 608 L 309 606 L 312 609 L 315 607 L 315 598 L 322 585 L 321 583 L 308 578 L 305 574 L 306 573 L 313 573 L 314 574 L 325 575 L 330 577 L 342 578 L 343 579 L 362 579 L 365 576 L 366 566 L 369 563 L 371 563 L 373 565 L 374 572 L 375 573 L 375 577 L 376 578 L 376 584 L 383 599 L 383 601 L 385 603 L 386 606 L 395 617 L 410 627 L 413 630 L 418 632 L 424 632 L 425 631 L 443 632 L 444 631 L 450 631 L 455 629 L 459 629 L 468 626 L 480 619 L 499 604 L 501 606 L 500 609 L 498 611 L 498 613 L 494 618 L 483 628 L 483 630 L 490 637 L 497 641 L 500 641 L 509 644 L 517 644 L 519 641 L 512 637 L 510 634 L 512 632 L 517 633 L 522 638 L 528 638 L 532 636 L 538 629 L 535 627 L 533 627 L 530 624 L 530 622 L 533 619 L 538 617 L 542 617 L 544 615 L 544 586 L 543 585 L 542 577 L 538 568 L 538 565 L 534 557 L 534 554 L 527 540 L 516 528 L 506 523 L 500 523 L 497 524 L 492 529 L 489 535 L 487 541 L 487 544 L 483 552 L 477 558 L 475 558 L 472 554 L 473 546 L 475 543 L 475 541 L 477 539 L 478 534 L 480 531 L 479 529 L 477 529 L 475 527 L 475 524 L 482 513 L 487 503 L 490 494 L 490 491 L 491 490 L 491 473 L 493 471 L 495 472 L 496 471 L 496 462 L 495 461 L 493 450 L 490 442 L 490 436 L 492 434 L 492 431 L 490 428 L 490 426 L 485 420 L 480 421 L 463 438 L 459 444 L 443 459 L 430 465 L 416 477 L 402 487 L 394 491 L 388 492 L 387 493 L 371 493 L 370 492 L 367 492 L 352 487 L 346 484 L 334 472 L 329 469 L 322 461 L 319 453 L 319 444 L 318 443 L 317 436 L 314 430 L 314 422 L 317 416 L 321 411 L 332 401 L 339 398 L 348 389 L 372 359 L 372 357 L 374 355 L 375 352 L 372 343 L 372 339 L 374 337 L 380 343 L 381 346 L 383 346 L 387 343 L 393 343 L 394 345 L 391 351 L 376 371 L 355 393 L 355 394 L 348 401 L 332 410 L 325 417 L 323 422 L 323 429 L 326 431 L 331 430 L 335 427 L 338 429 L 333 438 L 333 440 L 330 446 L 330 455 L 331 457 L 335 461 L 341 461 L 345 457 L 350 454 L 352 456 L 351 459 L 351 466 L 350 467 L 350 473 L 353 476 L 359 478 L 363 478 L 365 477 L 376 465 L 378 466 L 378 471 L 375 476 L 375 482 L 376 483 L 384 483 L 390 480 L 392 480 L 399 476 L 417 461 L 426 452 L 431 442 L 434 439 L 436 438 L 438 440 L 438 445 L 439 447 L 442 446 L 452 435 L 455 425 L 458 419 L 461 416 L 463 416 L 467 421 L 470 418 L 473 412 L 473 409 L 475 404 L 476 392 L 478 390 L 481 392 L 483 397 L 485 399 L 487 398 L 489 394 L 489 378 L 484 363 L 484 360 L 486 359 L 494 369 L 495 368 L 495 361 L 494 360 L 493 354 L 488 344 L 482 336 L 476 330 L 477 328 L 482 329 L 483 327 L 479 321 L 465 309 L 468 304 L 460 299 L 454 293 L 455 291 L 461 292 L 462 290 L 460 287 L 449 277 L 438 270 L 439 268 L 444 268 L 445 267 L 440 263 L 431 259 L 426 258 L 423 256 L 423 254 L 426 252 L 427 248 L 434 239 L 438 230 L 438 222 L 439 221 L 441 221 L 443 223 L 446 222 L 447 219 L 447 206 L 446 203 L 448 201 L 453 205 L 455 204 L 454 193 L 448 181 L 450 179 L 457 181 L 458 180 L 458 175 L 453 167 L 444 158 L 446 156 L 455 156 L 456 153 L 453 149 L 441 141 L 445 136 L 439 128 L 431 111 L 426 105 L 426 103 L 428 101 L 431 100 L 436 96 L 441 88 L 443 82 L 443 71 L 442 70 L 442 67 L 438 59 L 428 49 Z M 419 45 L 427 49 L 437 59 L 442 69 L 442 72 L 443 73 L 442 84 L 438 92 L 431 99 L 427 101 L 425 103 L 425 105 L 431 112 L 439 129 L 444 135 L 440 141 L 443 144 L 449 147 L 455 153 L 453 156 L 444 156 L 443 159 L 451 166 L 457 175 L 457 178 L 455 180 L 451 178 L 448 178 L 447 179 L 448 183 L 453 193 L 454 201 L 452 203 L 448 200 L 445 201 L 446 204 L 446 212 L 447 213 L 446 215 L 446 220 L 444 222 L 440 219 L 438 220 L 438 227 L 437 228 L 437 232 L 424 251 L 420 255 L 424 258 L 427 258 L 430 260 L 432 260 L 441 265 L 440 267 L 435 269 L 452 280 L 460 288 L 459 291 L 452 290 L 451 292 L 466 304 L 463 308 L 468 313 L 473 316 L 481 325 L 480 328 L 478 327 L 474 327 L 473 328 L 487 343 L 492 353 L 494 359 L 494 362 L 495 363 L 493 366 L 491 363 L 484 356 L 483 356 L 483 360 L 484 361 L 484 364 L 488 376 L 489 390 L 487 396 L 484 397 L 480 388 L 477 387 L 475 393 L 474 406 L 470 416 L 467 418 L 465 412 L 462 414 L 460 414 L 456 420 L 451 435 L 446 440 L 443 438 L 443 434 L 434 437 L 431 440 L 427 449 L 422 455 L 413 462 L 404 471 L 400 473 L 397 476 L 386 481 L 378 482 L 376 480 L 376 477 L 380 467 L 380 465 L 378 463 L 376 463 L 370 469 L 366 475 L 361 477 L 354 475 L 351 472 L 352 463 L 353 462 L 353 457 L 354 456 L 354 453 L 353 452 L 348 453 L 340 460 L 335 460 L 331 456 L 330 449 L 332 443 L 339 430 L 339 427 L 336 425 L 330 429 L 325 429 L 323 427 L 323 424 L 326 417 L 333 410 L 348 402 L 355 395 L 355 394 L 376 372 L 394 347 L 395 343 L 393 341 L 391 342 L 387 341 L 382 344 L 376 337 L 372 335 L 371 336 L 371 341 L 373 345 L 374 351 L 372 354 L 371 359 L 363 368 L 348 388 L 339 397 L 330 401 L 318 413 L 314 420 L 313 429 L 318 443 L 318 451 L 319 452 L 320 458 L 322 462 L 329 470 L 334 473 L 344 484 L 350 488 L 356 490 L 359 490 L 362 492 L 365 492 L 366 493 L 380 495 L 381 494 L 392 493 L 402 489 L 430 467 L 434 466 L 443 461 L 458 446 L 459 446 L 464 439 L 477 425 L 481 422 L 485 421 L 489 426 L 491 431 L 491 433 L 489 436 L 489 442 L 492 449 L 493 457 L 495 461 L 496 468 L 494 470 L 493 469 L 490 470 L 490 474 L 491 475 L 491 486 L 490 487 L 489 495 L 487 501 L 484 506 L 484 508 L 474 524 L 474 529 L 478 532 L 478 534 L 471 550 L 471 556 L 474 559 L 478 559 L 482 554 L 484 555 L 482 558 L 482 560 L 479 563 L 479 567 L 482 568 L 486 563 L 486 560 L 488 557 L 488 551 L 486 548 L 488 544 L 488 540 L 490 534 L 492 532 L 493 529 L 499 524 L 508 525 L 516 529 L 525 538 L 526 541 L 530 546 L 530 548 L 535 558 L 542 579 L 542 583 L 543 584 L 544 612 L 541 615 L 538 615 L 535 617 L 531 618 L 528 621 L 528 624 L 521 630 L 505 630 L 502 632 L 505 635 L 508 635 L 511 638 L 513 638 L 516 641 L 515 643 L 508 643 L 493 638 L 484 629 L 487 625 L 490 623 L 492 623 L 494 619 L 500 612 L 500 610 L 505 603 L 504 600 L 500 601 L 497 603 L 487 613 L 479 618 L 476 621 L 461 628 L 448 630 L 447 631 L 430 631 L 425 629 L 414 629 L 398 618 L 388 607 L 381 594 L 380 589 L 377 583 L 375 566 L 372 562 L 368 562 L 365 565 L 363 576 L 361 578 L 340 578 L 339 577 L 329 576 L 328 575 L 324 575 L 318 573 L 313 573 L 312 572 L 304 572 L 303 573 L 303 575 L 306 578 L 318 583 L 320 586 L 315 596 L 314 605 L 312 607 L 309 604 L 306 605 L 307 608 L 307 617 L 308 618 L 308 631 L 306 633 L 305 632 L 302 633 L 303 644 L 304 645 L 304 661 L 297 669 L 291 671 L 288 671 L 287 672 L 283 672 L 282 673 L 264 674 L 263 675 L 221 675 L 220 674 L 214 674 L 211 671 L 211 665 L 212 664 L 212 660 L 213 659 L 214 653 L 212 651 L 209 651 L 205 654 L 203 658 L 203 662 L 202 663 L 202 669 L 203 671 L 201 673 L 194 673 L 193 672 L 190 672 L 187 669 L 187 660 L 190 651 L 190 649 L 188 647 L 183 649 L 181 651 L 178 658 L 178 665 L 176 667 L 172 664 L 171 661 L 171 650 L 175 641 L 184 633 L 193 630 L 196 630 L 197 629 L 214 629 L 215 630 L 221 630 L 222 631 L 231 632 L 232 633 L 233 631 L 228 627 L 226 627 L 217 623 L 208 622 L 204 619 L 203 612 L 202 611 L 202 607 L 201 606 L 201 600 L 200 599 L 200 579 L 197 576 L 201 564 L 197 561 L 197 559 L 203 547 L 208 541 L 210 537 L 210 535 L 206 533 L 207 530 L 214 523 L 216 523 L 224 532 L 227 532 L 228 531 L 228 525 L 221 515 L 217 505 L 216 494 L 214 493 L 214 495 L 212 497 L 210 495 L 211 472 L 209 472 L 206 475 L 204 474 L 205 462 L 209 450 L 209 446 L 207 445 L 204 448 L 201 446 L 204 435 L 212 420 L 211 418 L 206 419 L 204 417 L 207 411 L 211 406 L 215 397 L 212 396 L 210 394 L 210 392 L 214 385 L 215 379 L 217 375 L 222 369 L 226 361 L 225 360 L 221 363 L 215 365 L 213 363 L 214 358 L 219 348 L 218 340 L 222 333 L 222 328 L 221 327 L 216 328 L 210 333 L 207 338 L 207 343 L 209 345 L 209 348 L 207 350 L 203 359 L 203 373 L 205 376 L 205 381 L 203 384 L 201 390 L 201 393 L 200 394 L 200 404 L 196 410 L 194 417 L 191 420 L 188 420 L 179 423 L 175 423 L 174 424 L 170 424 L 169 425 L 139 425 L 138 426 L 134 426 L 128 428 L 126 430 L 114 434 L 110 434 L 109 435 L 94 435 L 91 434 L 87 430 L 87 428 L 92 423 L 94 416 L 97 413 L 97 409 L 94 405 L 88 403 L 84 403 L 74 409 L 69 414 L 67 414 L 64 411 L 64 409 L 68 405 L 75 403 L 84 398 L 86 394 L 85 389 L 88 385 L 88 380 L 84 377 L 71 377 L 70 378 L 67 378 L 60 383 L 60 387 L 62 390 L 60 392 L 57 391 L 54 388 L 53 383 L 57 378 L 63 375 L 70 374 L 71 373 L 86 372 L 96 365 L 100 361 L 100 358 L 98 356 L 95 356 L 94 355 L 72 356 L 71 357 L 72 360 L 70 362 L 68 362 L 66 360 L 66 357 L 68 353 L 73 349 L 96 349 L 99 347 L 99 341 L 104 337 L 114 337 L 118 339 L 124 340 L 130 344 L 135 345 L 136 344 L 139 344 L 146 340 L 152 339 L 155 337 L 157 337 L 160 335 L 169 332 L 182 331 L 183 330 L 194 330 L 196 328 L 196 326 L 191 322 L 195 319 L 200 319 L 201 318 L 206 318 L 210 315 L 210 313 L 208 312 L 206 309 L 210 305 L 212 305 L 226 293 L 224 290 L 224 288 L 226 286 L 228 286 L 235 282 L 239 285 L 241 282 L 238 278 L 240 276 L 243 276 L 247 273 L 246 268 L 236 259 L 229 247 L 227 248 L 226 251 L 223 250 L 220 245 L 217 233 L 215 232 L 212 236 L 209 234 L 207 229 L 207 225 L 206 224 L 207 211 L 205 210 L 201 213 L 199 211 L 198 208 L 199 206 L 199 202 L 202 194 L 202 190 L 201 189 L 196 190 L 195 189 L 195 186 L 202 173 L 202 170 L 200 169 L 196 171 L 194 169 L 194 166 L 206 154 L 205 144 L 215 124 L 215 121 L 205 116 L 198 108 L 195 101 L 195 90 L 198 81 L 202 75 L 208 69 L 220 63 L 232 63 L 241 67 L 248 74 L 249 77 L 252 79 L 257 75 L 266 70 L 277 67 L 278 64 L 280 62 L 283 61 L 298 62 L 300 60 L 300 57 L 298 53 L 300 50 L 308 52 L 315 57 L 318 57 L 324 51 L 329 48 L 332 48 L 334 50 L 331 57 L 332 59 L 340 58 L 341 57 L 348 57 L 349 58 L 355 58 L 356 59 L 364 60 L 373 63 L 376 65 L 379 65 L 384 55 L 392 48 L 405 43 L 410 43 L 411 44 Z M 426 37 L 420 35 L 416 35 L 415 34 L 397 35 L 386 40 L 382 43 L 374 52 L 369 52 L 368 51 L 355 49 L 354 48 L 344 48 L 342 46 L 341 43 L 336 39 L 328 39 L 322 42 L 318 46 L 314 46 L 310 43 L 305 41 L 297 41 L 291 46 L 291 51 L 289 53 L 281 53 L 280 54 L 274 55 L 272 57 L 264 61 L 262 61 L 256 65 L 253 64 L 246 58 L 233 53 L 222 53 L 221 54 L 214 55 L 202 61 L 192 72 L 187 82 L 186 89 L 185 90 L 185 101 L 186 102 L 187 108 L 192 117 L 203 128 L 203 130 L 198 137 L 195 145 L 195 150 L 196 152 L 195 154 L 187 161 L 185 166 L 185 172 L 189 177 L 189 181 L 187 184 L 186 191 L 188 196 L 191 199 L 191 202 L 190 203 L 190 213 L 193 219 L 197 223 L 197 227 L 198 228 L 198 232 L 200 238 L 205 243 L 209 244 L 213 248 L 215 253 L 221 259 L 225 261 L 230 266 L 230 268 L 216 281 L 214 287 L 212 289 L 209 290 L 198 302 L 189 309 L 179 311 L 176 314 L 176 316 L 173 320 L 168 320 L 167 321 L 163 321 L 158 323 L 154 323 L 142 329 L 139 329 L 138 330 L 129 330 L 115 325 L 101 325 L 92 329 L 88 333 L 73 336 L 61 341 L 57 344 L 54 349 L 54 354 L 53 355 L 54 357 L 54 365 L 43 375 L 41 379 L 41 387 L 42 390 L 46 396 L 52 402 L 51 404 L 51 412 L 53 417 L 59 424 L 67 428 L 73 429 L 77 433 L 79 440 L 87 445 L 94 446 L 95 447 L 106 447 L 107 446 L 117 445 L 137 437 L 152 437 L 153 438 L 171 437 L 186 432 L 192 432 L 194 434 L 192 439 L 191 449 L 192 450 L 192 453 L 196 459 L 196 465 L 195 466 L 195 480 L 197 486 L 201 491 L 202 502 L 206 509 L 206 513 L 199 520 L 194 528 L 194 531 L 193 532 L 193 539 L 194 542 L 186 558 L 186 571 L 188 575 L 188 595 L 189 596 L 189 604 L 190 605 L 190 610 L 192 615 L 192 619 L 190 621 L 180 623 L 173 627 L 165 635 L 160 647 L 160 651 L 159 652 L 160 665 L 162 667 L 163 670 L 171 676 L 176 677 L 179 679 L 192 681 L 193 682 L 214 683 L 215 684 L 266 684 L 267 683 L 279 683 L 280 682 L 293 681 L 294 680 L 298 680 L 307 677 L 313 671 L 316 663 L 316 647 L 315 644 L 319 638 L 319 634 L 320 633 L 319 619 L 323 615 L 324 612 L 324 605 L 328 600 L 332 592 L 332 590 L 335 587 L 343 588 L 344 589 L 351 589 L 352 590 L 365 590 L 368 593 L 368 596 L 373 608 L 378 616 L 386 625 L 400 635 L 419 643 L 447 642 L 448 641 L 457 640 L 468 636 L 473 636 L 481 644 L 490 649 L 496 651 L 499 651 L 500 652 L 514 653 L 515 652 L 519 652 L 520 651 L 526 650 L 542 640 L 550 631 L 552 625 L 555 620 L 556 612 L 557 611 L 557 593 L 556 592 L 556 587 L 555 586 L 554 579 L 547 558 L 538 538 L 530 526 L 522 519 L 511 512 L 508 512 L 507 511 L 500 511 L 499 512 L 497 510 L 499 504 L 504 500 L 513 496 L 517 493 L 524 485 L 525 482 L 527 480 L 532 465 L 532 450 L 531 449 L 529 439 L 525 432 L 520 426 L 513 422 L 499 421 L 495 416 L 494 413 L 494 404 L 499 397 L 500 390 L 501 389 L 501 385 L 504 382 L 507 375 L 507 364 L 506 363 L 506 360 L 503 351 L 500 346 L 500 344 L 495 335 L 495 330 L 493 324 L 483 312 L 483 305 L 481 301 L 475 295 L 475 290 L 471 283 L 461 274 L 461 269 L 458 264 L 442 253 L 442 247 L 446 240 L 447 235 L 455 226 L 456 223 L 456 216 L 457 214 L 463 209 L 465 205 L 465 194 L 464 193 L 464 189 L 467 186 L 469 179 L 468 178 L 467 171 L 465 167 L 462 164 L 466 158 L 466 151 L 463 146 L 454 138 L 454 134 L 450 126 L 448 124 L 447 120 L 445 118 L 442 111 L 439 107 L 448 96 L 452 86 L 452 82 L 453 81 L 453 71 L 452 70 L 452 66 L 449 58 L 442 48 L 435 42 Z M 425 37 L 435 43 L 445 53 L 450 62 L 452 68 L 453 77 L 452 78 L 451 88 L 447 96 L 439 105 L 439 108 L 453 133 L 454 140 L 464 149 L 466 153 L 466 157 L 462 162 L 462 165 L 464 167 L 468 175 L 468 183 L 463 189 L 463 192 L 465 196 L 465 204 L 464 207 L 457 213 L 456 215 L 455 225 L 447 234 L 447 236 L 441 249 L 441 253 L 444 256 L 455 262 L 459 266 L 460 268 L 460 274 L 465 278 L 473 287 L 475 291 L 475 296 L 481 302 L 483 306 L 483 313 L 489 319 L 493 325 L 495 337 L 498 341 L 498 343 L 505 357 L 507 373 L 506 374 L 506 377 L 500 387 L 499 396 L 494 403 L 493 406 L 493 413 L 496 419 L 499 422 L 510 422 L 511 423 L 514 423 L 519 426 L 527 436 L 532 451 L 532 464 L 531 465 L 530 472 L 526 481 L 517 492 L 513 495 L 502 500 L 498 504 L 496 512 L 497 513 L 508 512 L 515 515 L 524 521 L 529 526 L 537 537 L 542 547 L 544 554 L 547 559 L 549 567 L 551 570 L 551 573 L 553 577 L 553 580 L 556 589 L 557 609 L 556 610 L 555 619 L 549 632 L 540 641 L 527 648 L 525 650 L 519 651 L 518 652 L 503 652 L 502 651 L 498 651 L 492 649 L 482 644 L 473 635 L 467 637 L 464 637 L 457 640 L 448 641 L 447 642 L 422 643 L 421 642 L 417 642 L 411 639 L 409 639 L 399 634 L 388 626 L 382 620 L 374 609 L 369 598 L 368 592 L 365 589 L 346 589 L 340 587 L 334 587 L 332 589 L 330 596 L 324 604 L 324 611 L 323 614 L 319 618 L 319 636 L 317 641 L 315 643 L 315 647 L 316 648 L 316 661 L 313 670 L 306 677 L 297 680 L 293 680 L 292 681 L 277 682 L 276 683 L 260 683 L 259 684 L 221 684 L 220 683 L 203 683 L 202 682 L 194 682 L 193 681 L 189 681 L 188 680 L 184 680 L 180 678 L 177 678 L 168 674 L 162 668 L 160 664 L 160 648 L 165 636 L 174 627 L 179 624 L 185 622 L 188 622 L 189 621 L 192 621 L 193 620 L 191 610 L 190 609 L 190 603 L 189 602 L 189 594 L 188 593 L 188 574 L 186 570 L 186 558 L 190 549 L 194 543 L 194 537 L 193 536 L 194 529 L 198 522 L 207 512 L 207 510 L 204 506 L 204 504 L 202 501 L 201 490 L 196 483 L 196 479 L 195 478 L 196 458 L 192 453 L 192 440 L 196 431 L 189 431 L 188 432 L 185 432 L 182 434 L 179 434 L 174 436 L 170 436 L 169 437 L 146 437 L 145 436 L 135 437 L 125 442 L 116 445 L 112 445 L 111 446 L 100 447 L 99 446 L 91 446 L 82 442 L 79 439 L 77 432 L 75 430 L 63 426 L 54 418 L 51 411 L 52 401 L 44 393 L 41 386 L 41 380 L 42 377 L 48 370 L 55 366 L 54 351 L 57 345 L 62 341 L 77 335 L 89 334 L 95 328 L 103 325 L 114 325 L 129 330 L 138 330 L 139 329 L 145 328 L 150 325 L 156 323 L 160 323 L 164 321 L 174 320 L 176 318 L 176 315 L 180 311 L 191 309 L 209 291 L 212 290 L 215 287 L 216 282 L 220 278 L 223 277 L 230 269 L 230 265 L 227 262 L 223 260 L 215 252 L 212 245 L 206 243 L 201 238 L 198 231 L 198 223 L 191 215 L 190 212 L 190 204 L 192 199 L 187 193 L 187 185 L 190 180 L 190 177 L 186 173 L 185 167 L 187 162 L 196 153 L 196 149 L 195 148 L 196 143 L 198 138 L 203 131 L 204 127 L 195 120 L 188 110 L 186 104 L 186 100 L 185 99 L 185 92 L 186 91 L 186 86 L 190 76 L 194 70 L 203 61 L 206 60 L 208 58 L 220 54 L 234 54 L 246 59 L 253 65 L 257 65 L 279 54 L 290 54 L 291 53 L 291 47 L 296 42 L 306 42 L 309 43 L 314 47 L 318 47 L 323 42 L 331 39 L 337 40 L 341 44 L 343 49 L 357 49 L 358 50 L 362 50 L 363 51 L 374 53 L 383 43 L 389 39 L 396 36 L 407 35 L 409 34 L 410 35 L 418 35 L 419 36 Z" fill="#B1B1B1" fill-rule="evenodd"/><path d="M 238 162 L 237 168 L 236 169 L 236 179 L 237 180 L 237 182 L 246 192 L 250 194 L 252 194 L 256 197 L 257 207 L 263 221 L 265 223 L 271 233 L 282 245 L 289 249 L 290 248 L 283 240 L 280 234 L 280 228 L 281 227 L 281 225 L 283 223 L 285 219 L 290 214 L 291 214 L 294 211 L 297 210 L 299 208 L 306 205 L 318 205 L 319 206 L 321 206 L 325 208 L 332 215 L 332 217 L 333 218 L 332 224 L 331 225 L 330 230 L 325 238 L 325 240 L 329 236 L 334 226 L 334 224 L 337 217 L 338 209 L 339 208 L 339 202 L 340 201 L 340 185 L 339 184 L 339 178 L 336 172 L 334 172 L 324 183 L 318 186 L 316 186 L 315 187 L 313 187 L 306 190 L 289 190 L 288 189 L 284 189 L 283 188 L 280 188 L 279 187 L 276 187 L 275 186 L 268 186 L 266 188 L 262 190 L 260 190 L 259 191 L 253 191 L 246 187 L 242 182 L 241 178 L 240 177 L 240 169 L 241 168 L 241 164 L 242 162 L 240 160 Z M 247 154 L 247 159 L 250 165 L 259 173 L 265 174 L 266 175 L 276 174 L 287 169 L 293 163 L 295 159 L 295 154 L 292 150 L 285 146 L 279 145 L 278 144 L 267 144 L 266 145 L 258 146 L 252 149 Z M 256 124 L 252 124 L 247 130 L 247 132 L 246 133 L 246 143 L 248 145 L 250 145 L 255 142 L 258 138 L 258 136 L 259 135 L 259 128 Z M 335 121 L 332 124 L 330 128 L 330 139 L 332 143 L 335 146 L 339 146 L 343 143 L 345 139 L 345 128 L 343 124 L 340 121 Z M 266 88 L 265 87 L 259 87 L 257 88 L 250 94 L 249 98 L 250 99 L 254 98 L 259 94 L 264 92 L 266 90 Z M 335 80 L 335 83 L 336 84 L 339 84 L 340 85 L 346 86 L 348 88 L 352 90 L 354 89 L 354 85 L 350 81 L 346 79 L 344 79 L 343 78 L 338 78 Z M 425 38 L 419 37 L 418 36 L 410 36 L 409 35 L 407 36 L 400 36 L 399 37 L 396 37 L 389 40 L 387 42 L 383 44 L 374 54 L 371 54 L 370 53 L 367 53 L 366 52 L 363 52 L 362 51 L 358 51 L 357 50 L 343 50 L 341 48 L 340 44 L 337 41 L 331 40 L 330 41 L 327 41 L 323 43 L 318 48 L 314 48 L 309 44 L 307 44 L 306 43 L 296 43 L 292 47 L 292 53 L 290 55 L 279 55 L 257 66 L 253 66 L 246 60 L 234 55 L 220 55 L 219 56 L 216 56 L 210 59 L 208 59 L 206 61 L 203 62 L 195 70 L 195 71 L 191 76 L 189 80 L 188 85 L 187 86 L 187 91 L 186 92 L 186 99 L 187 100 L 187 104 L 188 105 L 189 110 L 191 112 L 192 115 L 196 119 L 196 120 L 205 127 L 205 129 L 202 133 L 201 136 L 199 138 L 198 142 L 197 143 L 197 146 L 196 147 L 197 149 L 197 153 L 188 162 L 187 166 L 186 167 L 187 173 L 191 177 L 191 180 L 188 185 L 188 193 L 193 199 L 192 203 L 191 204 L 191 212 L 192 213 L 192 215 L 198 221 L 199 223 L 199 231 L 202 238 L 206 242 L 208 243 L 211 243 L 213 245 L 216 252 L 223 259 L 227 261 L 231 265 L 231 269 L 223 278 L 220 279 L 217 282 L 216 284 L 216 287 L 212 291 L 209 292 L 191 310 L 189 311 L 183 311 L 182 312 L 180 312 L 177 315 L 177 318 L 174 321 L 170 321 L 169 322 L 164 322 L 160 324 L 156 324 L 155 325 L 150 326 L 145 329 L 139 330 L 138 331 L 129 331 L 128 330 L 125 330 L 124 329 L 122 329 L 118 327 L 115 327 L 114 326 L 103 326 L 102 327 L 99 327 L 95 329 L 89 335 L 77 336 L 76 337 L 68 339 L 62 342 L 58 345 L 55 351 L 55 360 L 56 361 L 56 366 L 54 368 L 48 371 L 43 377 L 43 379 L 42 380 L 42 386 L 45 393 L 53 401 L 52 411 L 55 418 L 63 425 L 65 426 L 68 426 L 75 429 L 78 432 L 80 439 L 82 441 L 88 444 L 90 444 L 91 445 L 99 445 L 100 446 L 103 446 L 104 445 L 111 445 L 112 444 L 116 444 L 117 443 L 125 441 L 128 439 L 130 439 L 135 436 L 140 436 L 141 435 L 145 435 L 146 436 L 169 436 L 170 435 L 174 435 L 175 434 L 182 433 L 185 431 L 188 431 L 189 430 L 196 430 L 197 431 L 193 440 L 193 453 L 197 458 L 196 478 L 197 479 L 197 483 L 202 490 L 203 501 L 205 504 L 205 506 L 208 510 L 208 512 L 199 522 L 195 529 L 195 532 L 194 533 L 194 536 L 195 537 L 195 543 L 193 547 L 191 549 L 189 553 L 189 555 L 187 558 L 187 570 L 189 574 L 189 593 L 190 594 L 190 602 L 191 603 L 191 609 L 192 610 L 192 613 L 193 614 L 194 620 L 192 622 L 185 623 L 184 624 L 179 625 L 174 628 L 166 636 L 162 644 L 162 647 L 161 648 L 161 664 L 163 668 L 168 673 L 172 675 L 174 675 L 177 677 L 180 677 L 181 678 L 183 678 L 184 679 L 188 679 L 189 680 L 193 680 L 194 681 L 202 681 L 203 682 L 220 682 L 221 683 L 259 683 L 260 682 L 276 682 L 277 681 L 292 680 L 293 679 L 297 679 L 298 678 L 301 678 L 302 677 L 306 676 L 312 670 L 313 666 L 314 665 L 314 662 L 315 661 L 315 648 L 314 647 L 314 643 L 316 641 L 317 637 L 318 636 L 318 618 L 322 614 L 322 612 L 323 611 L 323 604 L 329 596 L 331 589 L 334 586 L 340 586 L 341 587 L 345 587 L 346 588 L 365 588 L 369 592 L 370 598 L 372 601 L 372 603 L 375 609 L 377 611 L 379 615 L 383 619 L 383 620 L 388 625 L 389 625 L 393 629 L 394 629 L 399 633 L 414 640 L 416 640 L 417 641 L 421 641 L 422 642 L 432 642 L 433 641 L 447 641 L 448 640 L 457 639 L 464 636 L 467 636 L 468 635 L 471 635 L 473 634 L 482 643 L 492 648 L 494 648 L 498 650 L 502 650 L 503 651 L 518 651 L 519 650 L 525 649 L 527 647 L 532 645 L 534 643 L 540 640 L 548 632 L 548 631 L 550 629 L 550 627 L 554 619 L 554 616 L 555 615 L 555 610 L 556 609 L 555 589 L 554 588 L 552 577 L 551 576 L 550 570 L 548 567 L 546 559 L 543 554 L 541 547 L 536 537 L 534 535 L 532 531 L 528 527 L 528 526 L 524 522 L 523 522 L 515 516 L 508 513 L 501 513 L 500 514 L 497 514 L 495 512 L 497 504 L 502 499 L 513 494 L 516 491 L 517 491 L 525 481 L 527 477 L 527 475 L 529 472 L 529 469 L 530 468 L 530 465 L 531 464 L 531 451 L 530 450 L 530 446 L 529 445 L 528 440 L 524 433 L 519 427 L 514 424 L 511 424 L 510 423 L 499 423 L 495 419 L 492 413 L 492 406 L 493 405 L 493 403 L 498 396 L 498 393 L 499 392 L 499 387 L 502 383 L 505 377 L 505 374 L 506 373 L 504 357 L 497 343 L 497 341 L 494 337 L 492 325 L 488 320 L 488 319 L 482 313 L 482 306 L 480 302 L 474 296 L 474 291 L 472 287 L 470 285 L 470 284 L 459 274 L 459 268 L 458 266 L 449 259 L 444 257 L 440 253 L 440 249 L 444 241 L 446 234 L 453 227 L 454 225 L 455 215 L 456 213 L 463 207 L 463 205 L 464 204 L 464 196 L 462 192 L 462 189 L 467 183 L 467 175 L 463 167 L 461 165 L 461 162 L 465 157 L 465 153 L 463 149 L 453 140 L 453 136 L 452 135 L 452 133 L 450 129 L 448 127 L 442 114 L 440 112 L 438 108 L 438 105 L 446 96 L 450 88 L 450 85 L 451 84 L 451 78 L 452 77 L 452 74 L 451 73 L 451 68 L 450 67 L 449 62 L 444 53 L 435 44 Z M 512 431 L 515 434 L 515 437 L 514 439 L 519 443 L 521 447 L 521 449 L 522 450 L 522 459 L 521 460 L 520 468 L 517 475 L 515 477 L 513 481 L 508 486 L 508 487 L 505 490 L 503 490 L 501 488 L 501 487 L 502 486 L 502 483 L 503 482 L 503 476 L 504 475 L 504 462 L 503 461 L 503 455 L 502 454 L 502 449 L 501 448 L 501 438 L 502 437 L 502 435 L 505 432 L 507 432 L 508 431 Z M 421 44 L 428 48 L 439 59 L 443 67 L 443 70 L 444 71 L 444 82 L 443 83 L 442 88 L 437 96 L 434 99 L 427 103 L 427 105 L 432 111 L 440 128 L 446 136 L 446 137 L 442 141 L 453 148 L 457 153 L 457 155 L 455 157 L 446 157 L 445 158 L 454 167 L 459 175 L 459 180 L 457 182 L 455 182 L 451 180 L 449 181 L 455 193 L 455 196 L 456 197 L 456 204 L 454 206 L 453 206 L 448 202 L 447 203 L 447 205 L 448 206 L 448 219 L 447 220 L 447 222 L 445 224 L 443 224 L 441 222 L 439 222 L 439 230 L 438 231 L 438 233 L 435 239 L 428 248 L 427 252 L 425 254 L 424 254 L 424 256 L 431 258 L 434 260 L 436 260 L 443 264 L 446 267 L 444 269 L 439 269 L 439 270 L 449 276 L 461 287 L 463 291 L 461 293 L 459 293 L 458 292 L 455 292 L 455 293 L 460 298 L 461 298 L 469 304 L 466 309 L 474 316 L 475 316 L 480 321 L 480 322 L 484 327 L 484 328 L 482 330 L 480 329 L 477 329 L 477 330 L 483 336 L 483 337 L 489 344 L 494 354 L 495 360 L 496 361 L 496 368 L 494 370 L 491 367 L 489 363 L 486 360 L 485 360 L 485 363 L 486 364 L 486 366 L 488 370 L 488 373 L 489 374 L 489 377 L 490 378 L 490 394 L 488 398 L 486 400 L 485 400 L 482 397 L 480 392 L 478 391 L 477 392 L 476 404 L 475 405 L 474 412 L 471 418 L 467 422 L 463 417 L 461 417 L 459 419 L 456 425 L 456 427 L 453 433 L 453 435 L 451 437 L 451 438 L 442 447 L 439 448 L 437 445 L 437 440 L 436 439 L 434 440 L 432 442 L 427 452 L 417 462 L 416 462 L 399 477 L 396 478 L 392 481 L 390 481 L 384 484 L 376 484 L 374 482 L 374 476 L 377 471 L 377 466 L 376 466 L 371 471 L 371 472 L 365 478 L 363 479 L 359 479 L 358 478 L 353 477 L 349 473 L 350 459 L 351 458 L 351 456 L 350 455 L 345 458 L 341 462 L 335 462 L 330 457 L 329 455 L 329 446 L 332 440 L 332 438 L 337 429 L 335 428 L 331 431 L 326 432 L 322 429 L 322 422 L 323 421 L 324 417 L 332 409 L 348 400 L 354 394 L 354 393 L 375 371 L 375 370 L 390 351 L 393 344 L 387 344 L 385 346 L 381 347 L 379 345 L 379 343 L 374 338 L 373 339 L 373 343 L 374 344 L 376 352 L 375 353 L 375 355 L 373 357 L 373 359 L 367 366 L 367 367 L 362 372 L 359 377 L 349 388 L 349 389 L 339 399 L 332 402 L 322 411 L 322 412 L 318 416 L 315 422 L 315 430 L 318 436 L 318 439 L 319 440 L 319 443 L 320 444 L 320 453 L 321 454 L 321 457 L 323 461 L 329 468 L 334 471 L 346 483 L 352 486 L 354 486 L 355 487 L 357 487 L 358 488 L 360 488 L 367 491 L 370 491 L 371 492 L 387 492 L 388 491 L 394 490 L 402 486 L 415 476 L 416 476 L 430 464 L 436 461 L 438 461 L 443 458 L 455 446 L 456 446 L 458 444 L 458 443 L 462 439 L 462 438 L 480 420 L 482 419 L 485 419 L 489 423 L 493 431 L 493 434 L 491 436 L 491 442 L 492 443 L 492 446 L 494 450 L 494 453 L 495 454 L 495 457 L 496 458 L 496 461 L 497 462 L 497 471 L 495 473 L 494 472 L 492 473 L 492 490 L 491 491 L 491 494 L 490 495 L 488 503 L 483 513 L 481 515 L 480 518 L 478 520 L 476 524 L 476 527 L 477 528 L 479 528 L 481 530 L 481 531 L 479 534 L 478 539 L 476 541 L 476 543 L 474 546 L 474 548 L 473 549 L 473 554 L 475 557 L 477 557 L 482 552 L 486 544 L 486 541 L 491 529 L 497 523 L 499 523 L 500 522 L 506 522 L 516 527 L 526 537 L 526 538 L 528 540 L 535 554 L 535 557 L 537 560 L 537 562 L 539 565 L 539 568 L 541 571 L 541 573 L 543 577 L 544 585 L 545 586 L 545 615 L 542 618 L 538 618 L 537 619 L 535 619 L 531 622 L 531 624 L 533 626 L 535 626 L 539 629 L 532 637 L 528 639 L 522 639 L 517 634 L 514 634 L 513 633 L 511 634 L 512 636 L 515 637 L 520 641 L 520 642 L 517 645 L 509 645 L 508 644 L 504 644 L 500 642 L 497 642 L 493 639 L 490 638 L 482 630 L 482 628 L 487 623 L 488 623 L 497 613 L 497 611 L 499 609 L 499 607 L 500 606 L 499 605 L 480 620 L 479 620 L 474 624 L 472 624 L 468 627 L 466 627 L 459 630 L 455 630 L 454 631 L 451 631 L 450 632 L 444 632 L 443 633 L 436 633 L 435 632 L 425 632 L 424 633 L 418 633 L 417 632 L 413 631 L 410 628 L 409 628 L 407 626 L 400 622 L 396 618 L 395 618 L 390 613 L 388 609 L 385 606 L 384 603 L 382 601 L 382 599 L 379 594 L 379 592 L 375 584 L 375 578 L 374 577 L 374 573 L 373 572 L 373 568 L 372 567 L 372 565 L 371 564 L 369 564 L 367 566 L 366 576 L 362 580 L 343 580 L 342 579 L 330 578 L 329 577 L 326 577 L 325 576 L 320 576 L 319 575 L 314 575 L 313 574 L 306 574 L 306 575 L 308 577 L 314 580 L 321 582 L 323 584 L 323 585 L 316 598 L 316 607 L 313 610 L 312 610 L 309 607 L 308 608 L 308 612 L 309 613 L 309 621 L 310 622 L 310 633 L 307 636 L 306 635 L 304 635 L 305 645 L 306 646 L 306 659 L 305 660 L 305 663 L 304 665 L 299 670 L 292 672 L 291 673 L 281 674 L 280 675 L 271 675 L 270 676 L 257 676 L 256 677 L 233 677 L 232 676 L 216 676 L 215 675 L 212 675 L 209 672 L 209 667 L 210 666 L 210 662 L 211 661 L 211 658 L 212 657 L 212 654 L 211 653 L 209 653 L 206 656 L 205 660 L 204 661 L 204 669 L 205 670 L 205 673 L 203 675 L 191 674 L 189 673 L 185 668 L 185 663 L 186 662 L 186 658 L 187 657 L 187 654 L 188 653 L 188 650 L 187 649 L 184 650 L 182 652 L 181 656 L 180 657 L 180 667 L 178 669 L 176 669 L 174 668 L 170 663 L 170 648 L 173 641 L 180 634 L 188 630 L 190 630 L 191 629 L 195 629 L 196 628 L 216 628 L 217 629 L 222 629 L 223 630 L 230 631 L 230 630 L 225 627 L 223 627 L 219 625 L 216 625 L 215 624 L 206 623 L 203 620 L 202 618 L 201 608 L 200 607 L 200 603 L 199 602 L 199 581 L 197 581 L 195 579 L 195 577 L 196 576 L 196 574 L 199 567 L 198 565 L 197 566 L 195 564 L 195 561 L 199 553 L 199 551 L 208 538 L 208 537 L 207 536 L 205 536 L 203 534 L 203 533 L 213 521 L 216 521 L 224 529 L 226 528 L 223 520 L 221 518 L 217 511 L 215 500 L 214 499 L 213 500 L 211 500 L 209 498 L 209 496 L 208 495 L 208 489 L 209 488 L 209 476 L 208 476 L 206 478 L 204 478 L 202 475 L 202 472 L 203 471 L 203 465 L 204 464 L 205 456 L 206 455 L 208 448 L 206 448 L 203 450 L 202 450 L 200 448 L 200 442 L 201 441 L 201 439 L 210 421 L 209 420 L 205 421 L 203 419 L 203 416 L 213 399 L 212 398 L 210 398 L 208 396 L 208 394 L 213 384 L 213 381 L 214 380 L 214 376 L 215 375 L 215 371 L 216 370 L 216 368 L 212 364 L 212 360 L 217 350 L 217 345 L 216 344 L 216 341 L 221 333 L 221 330 L 219 329 L 218 330 L 216 330 L 213 333 L 212 333 L 209 337 L 209 339 L 208 340 L 208 342 L 210 344 L 210 349 L 208 351 L 204 360 L 204 371 L 205 372 L 207 380 L 205 383 L 205 385 L 202 392 L 202 405 L 197 415 L 191 422 L 188 422 L 187 423 L 184 423 L 183 424 L 180 424 L 179 425 L 176 425 L 175 426 L 169 426 L 168 427 L 137 427 L 136 428 L 133 428 L 130 430 L 127 430 L 122 433 L 120 433 L 116 435 L 113 435 L 112 436 L 107 436 L 106 437 L 96 437 L 95 436 L 92 436 L 86 431 L 86 427 L 89 423 L 88 421 L 75 421 L 74 420 L 71 420 L 67 418 L 64 415 L 62 411 L 62 408 L 65 405 L 69 403 L 74 402 L 81 398 L 81 396 L 63 396 L 62 395 L 60 395 L 53 389 L 52 387 L 52 383 L 58 376 L 64 373 L 70 372 L 71 371 L 78 371 L 79 370 L 83 370 L 83 368 L 81 367 L 79 367 L 78 366 L 74 366 L 70 364 L 67 364 L 64 361 L 64 357 L 66 353 L 70 349 L 74 348 L 75 347 L 96 347 L 97 346 L 98 340 L 102 336 L 105 336 L 106 335 L 111 335 L 112 336 L 123 338 L 132 343 L 138 343 L 145 339 L 156 336 L 159 334 L 161 334 L 164 332 L 166 332 L 170 330 L 175 330 L 176 329 L 190 329 L 191 328 L 193 328 L 194 327 L 189 322 L 189 321 L 193 318 L 198 318 L 199 317 L 206 316 L 207 314 L 204 311 L 205 308 L 208 305 L 215 301 L 221 295 L 223 294 L 223 293 L 221 291 L 221 289 L 225 285 L 233 281 L 235 278 L 235 275 L 237 273 L 239 273 L 240 274 L 244 274 L 245 273 L 245 270 L 243 268 L 243 267 L 241 266 L 234 259 L 233 256 L 231 254 L 229 250 L 227 254 L 225 254 L 221 250 L 218 244 L 217 237 L 215 235 L 212 238 L 211 238 L 208 235 L 206 231 L 206 228 L 205 227 L 205 214 L 204 213 L 203 214 L 200 214 L 197 211 L 197 204 L 198 203 L 199 197 L 200 196 L 201 192 L 200 191 L 199 192 L 196 192 L 194 190 L 194 185 L 200 174 L 200 172 L 199 171 L 198 172 L 194 172 L 192 170 L 192 167 L 193 165 L 204 155 L 204 149 L 203 148 L 204 146 L 204 143 L 210 132 L 210 130 L 213 125 L 213 122 L 205 118 L 197 109 L 194 102 L 194 89 L 199 77 L 207 68 L 219 62 L 230 61 L 231 62 L 234 62 L 237 64 L 239 64 L 241 66 L 242 66 L 249 73 L 250 76 L 252 77 L 262 70 L 264 70 L 267 68 L 275 66 L 280 60 L 298 60 L 299 58 L 297 55 L 297 50 L 299 48 L 305 49 L 313 53 L 315 55 L 318 55 L 324 49 L 330 46 L 334 46 L 336 48 L 336 50 L 334 53 L 334 56 L 353 56 L 354 57 L 358 57 L 359 58 L 367 59 L 370 61 L 372 61 L 378 64 L 382 55 L 389 48 L 397 44 L 399 44 L 403 42 L 414 42 L 415 43 Z" fill="#010101" fill-rule="evenodd"/></svg>