<svg xmlns="http://www.w3.org/2000/svg" viewBox="0 0 653 704" shape-rendering="geometricPrecision"><title>intro frame 039</title><path d="M 445 462 L 444 463 L 444 468 L 447 469 L 448 468 L 448 465 Z M 451 436 L 450 437 L 451 444 L 457 448 L 459 443 L 457 437 L 456 436 Z M 434 415 L 432 421 L 422 428 L 422 433 L 426 438 L 432 440 L 437 440 L 438 439 L 438 436 L 437 435 L 438 432 L 438 426 L 437 423 L 440 421 L 440 419 L 437 416 Z M 275 180 L 274 183 L 274 195 L 277 199 L 282 203 L 291 203 L 297 198 L 301 196 L 291 195 L 288 192 L 284 190 L 279 185 L 276 180 Z M 83 173 L 91 182 L 92 190 L 86 197 L 75 196 L 82 200 L 85 203 L 86 207 L 88 206 L 93 194 L 98 187 L 108 178 L 111 178 L 113 176 L 116 176 L 117 175 L 125 175 L 135 179 L 144 188 L 148 196 L 148 205 L 144 212 L 134 221 L 118 229 L 116 231 L 110 233 L 100 233 L 99 232 L 96 232 L 88 224 L 87 221 L 84 219 L 82 220 L 78 220 L 76 218 L 73 218 L 70 216 L 64 209 L 64 206 L 63 205 L 63 202 L 66 197 L 63 198 L 61 202 L 62 207 L 65 213 L 73 221 L 73 222 L 92 238 L 97 240 L 101 245 L 101 247 L 106 255 L 124 274 L 126 278 L 156 304 L 159 305 L 166 310 L 175 313 L 178 315 L 191 317 L 194 320 L 194 323 L 191 325 L 189 328 L 202 328 L 207 333 L 210 334 L 226 334 L 227 335 L 227 339 L 222 343 L 220 346 L 226 349 L 238 349 L 240 346 L 241 342 L 244 339 L 245 330 L 249 324 L 250 315 L 254 310 L 254 308 L 257 306 L 257 300 L 262 294 L 263 286 L 261 284 L 260 280 L 257 276 L 252 272 L 252 275 L 248 278 L 243 273 L 240 268 L 240 266 L 237 262 L 236 262 L 235 265 L 233 267 L 231 267 L 227 263 L 223 251 L 220 247 L 218 248 L 218 253 L 215 256 L 213 256 L 205 246 L 204 243 L 202 241 L 202 239 L 198 234 L 197 230 L 196 230 L 194 233 L 190 233 L 183 226 L 178 218 L 172 212 L 171 209 L 160 197 L 160 193 L 162 190 L 162 187 L 164 182 L 163 175 L 162 175 L 162 178 L 156 186 L 154 187 L 149 187 L 147 186 L 142 181 L 141 178 L 141 174 L 143 170 L 143 167 L 140 164 L 139 161 L 137 161 L 136 169 L 132 173 L 128 173 L 120 169 L 115 170 L 113 168 L 111 168 L 110 173 L 102 180 L 95 180 L 92 181 L 86 174 Z M 206 316 L 208 314 L 210 315 L 213 314 L 215 316 L 213 318 L 208 318 Z M 156 155 L 156 156 L 162 161 L 162 159 L 159 156 Z M 88 145 L 88 147 L 89 146 L 96 146 L 102 149 L 100 146 L 96 143 L 90 143 Z M 123 138 L 123 140 L 125 140 L 129 143 L 130 142 L 127 139 Z M 449 61 L 445 61 L 440 59 L 431 59 L 425 61 L 420 64 L 413 71 L 413 73 L 408 81 L 404 81 L 403 80 L 400 80 L 397 78 L 389 77 L 388 76 L 385 77 L 384 76 L 381 76 L 379 74 L 366 74 L 365 75 L 358 76 L 356 74 L 358 68 L 357 65 L 354 66 L 346 75 L 342 75 L 336 70 L 334 70 L 332 68 L 328 67 L 327 68 L 329 70 L 329 76 L 325 79 L 309 79 L 308 82 L 306 84 L 301 85 L 298 87 L 296 87 L 294 89 L 292 89 L 288 92 L 284 97 L 283 96 L 280 98 L 277 98 L 274 95 L 272 91 L 264 85 L 258 83 L 249 83 L 237 89 L 230 96 L 225 108 L 225 118 L 228 126 L 233 132 L 237 133 L 245 138 L 245 143 L 242 148 L 241 152 L 239 154 L 239 157 L 237 159 L 236 162 L 237 165 L 237 171 L 226 183 L 226 185 L 230 185 L 232 184 L 235 187 L 235 189 L 231 195 L 230 199 L 228 202 L 229 204 L 235 204 L 236 205 L 236 209 L 234 212 L 234 215 L 232 220 L 232 225 L 233 226 L 235 224 L 239 224 L 242 228 L 241 242 L 242 243 L 242 246 L 244 248 L 248 243 L 252 247 L 253 253 L 256 256 L 258 256 L 271 268 L 278 270 L 286 275 L 295 286 L 295 289 L 292 292 L 283 287 L 277 286 L 275 289 L 268 295 L 268 301 L 263 305 L 265 308 L 265 311 L 256 319 L 256 322 L 258 324 L 258 327 L 251 334 L 254 338 L 249 347 L 247 353 L 248 355 L 248 360 L 245 364 L 243 370 L 246 370 L 254 365 L 259 365 L 261 367 L 261 371 L 251 383 L 239 391 L 232 399 L 233 400 L 236 400 L 238 402 L 238 405 L 236 407 L 235 410 L 224 422 L 225 423 L 230 422 L 233 425 L 233 428 L 232 431 L 225 439 L 220 447 L 221 450 L 226 447 L 230 450 L 228 457 L 226 459 L 225 466 L 223 469 L 223 474 L 229 469 L 232 469 L 234 472 L 232 478 L 232 481 L 230 485 L 230 491 L 229 494 L 230 494 L 234 489 L 237 491 L 238 494 L 237 505 L 241 517 L 247 517 L 251 521 L 253 521 L 255 523 L 262 521 L 264 522 L 268 527 L 271 526 L 271 514 L 270 511 L 272 508 L 272 503 L 276 498 L 278 498 L 281 501 L 281 504 L 280 505 L 280 514 L 279 515 L 280 531 L 282 533 L 282 536 L 286 544 L 289 547 L 289 543 L 291 541 L 296 544 L 297 543 L 301 543 L 303 542 L 308 537 L 312 535 L 337 515 L 342 513 L 344 511 L 346 511 L 357 506 L 362 506 L 363 505 L 374 504 L 376 503 L 377 504 L 381 504 L 383 506 L 390 507 L 392 508 L 395 512 L 392 516 L 387 513 L 378 514 L 375 516 L 357 521 L 355 523 L 349 525 L 341 531 L 339 531 L 323 544 L 320 545 L 319 548 L 321 551 L 321 553 L 317 557 L 314 558 L 312 560 L 308 561 L 301 567 L 303 572 L 303 576 L 302 578 L 297 582 L 294 588 L 294 594 L 293 595 L 293 612 L 292 613 L 292 616 L 293 617 L 294 631 L 296 633 L 299 634 L 306 634 L 309 636 L 312 636 L 314 638 L 320 639 L 322 641 L 327 641 L 330 644 L 333 644 L 335 647 L 332 650 L 326 650 L 325 649 L 319 649 L 318 648 L 301 647 L 292 643 L 277 643 L 276 644 L 270 644 L 265 646 L 263 648 L 260 649 L 254 655 L 252 660 L 253 669 L 254 670 L 257 669 L 259 662 L 267 653 L 277 652 L 279 654 L 279 657 L 271 669 L 272 674 L 274 676 L 277 677 L 284 677 L 288 671 L 288 668 L 294 662 L 296 661 L 301 661 L 303 663 L 303 668 L 302 669 L 301 675 L 299 678 L 299 681 L 303 683 L 309 683 L 310 684 L 331 684 L 337 682 L 340 683 L 351 683 L 353 682 L 356 676 L 362 671 L 367 662 L 365 658 L 365 649 L 370 644 L 370 641 L 374 635 L 373 632 L 375 629 L 377 623 L 377 620 L 380 614 L 383 611 L 383 609 L 388 604 L 389 598 L 397 590 L 397 589 L 415 572 L 415 569 L 433 547 L 434 537 L 438 525 L 442 521 L 443 521 L 445 524 L 447 524 L 447 520 L 450 517 L 452 519 L 452 527 L 453 527 L 457 515 L 460 512 L 464 511 L 466 508 L 466 505 L 467 504 L 466 501 L 464 501 L 461 497 L 456 496 L 448 488 L 448 479 L 449 478 L 448 475 L 443 474 L 442 476 L 439 477 L 439 478 L 446 484 L 446 486 L 444 488 L 442 488 L 436 485 L 433 485 L 427 483 L 423 479 L 417 470 L 413 468 L 410 468 L 406 465 L 406 459 L 408 457 L 410 457 L 418 463 L 421 463 L 427 467 L 430 466 L 435 459 L 435 456 L 430 450 L 424 446 L 418 444 L 415 444 L 411 442 L 408 439 L 408 437 L 415 429 L 415 427 L 412 423 L 399 422 L 398 421 L 394 421 L 391 419 L 385 419 L 381 421 L 377 418 L 377 413 L 380 409 L 384 409 L 385 408 L 393 411 L 396 410 L 402 412 L 409 412 L 419 417 L 421 415 L 420 410 L 418 408 L 414 407 L 407 403 L 407 400 L 411 397 L 410 395 L 405 391 L 398 393 L 395 390 L 395 388 L 393 386 L 392 383 L 392 380 L 389 377 L 388 374 L 378 365 L 375 366 L 369 366 L 366 365 L 362 362 L 354 359 L 350 355 L 346 356 L 344 358 L 344 360 L 338 365 L 336 362 L 337 361 L 336 358 L 338 352 L 341 352 L 344 350 L 346 346 L 349 344 L 351 344 L 359 348 L 369 357 L 371 357 L 373 353 L 381 354 L 398 372 L 403 372 L 407 370 L 411 370 L 411 366 L 409 364 L 408 361 L 398 350 L 398 345 L 399 344 L 405 349 L 407 349 L 409 351 L 409 349 L 403 342 L 403 340 L 405 338 L 411 339 L 412 336 L 405 328 L 403 324 L 403 322 L 405 320 L 413 327 L 415 333 L 422 341 L 426 349 L 426 356 L 423 359 L 420 359 L 419 360 L 425 371 L 425 375 L 423 377 L 418 377 L 419 378 L 418 383 L 415 385 L 413 384 L 412 386 L 414 389 L 414 391 L 416 393 L 419 394 L 423 398 L 423 400 L 429 407 L 431 407 L 433 405 L 441 405 L 444 408 L 448 408 L 450 414 L 452 415 L 456 420 L 460 418 L 460 416 L 456 408 L 447 399 L 445 399 L 435 392 L 436 383 L 435 382 L 434 375 L 431 370 L 431 364 L 433 362 L 437 362 L 438 361 L 437 358 L 439 356 L 442 355 L 451 358 L 454 358 L 455 359 L 461 359 L 467 364 L 470 362 L 470 359 L 472 357 L 476 357 L 478 359 L 479 362 L 487 368 L 490 374 L 490 381 L 491 382 L 491 386 L 493 391 L 493 395 L 495 398 L 495 401 L 497 404 L 497 407 L 498 408 L 497 414 L 494 417 L 494 419 L 492 421 L 491 424 L 491 430 L 494 435 L 502 436 L 508 429 L 508 426 L 511 423 L 515 423 L 519 427 L 518 428 L 519 430 L 518 435 L 520 441 L 523 444 L 523 446 L 525 448 L 525 451 L 530 456 L 533 457 L 539 457 L 541 453 L 541 449 L 544 441 L 549 437 L 551 437 L 556 442 L 557 444 L 557 455 L 565 452 L 569 447 L 569 438 L 567 436 L 567 432 L 569 428 L 567 427 L 571 424 L 573 424 L 576 426 L 577 425 L 583 425 L 585 423 L 586 418 L 585 417 L 584 398 L 582 395 L 582 390 L 578 386 L 576 382 L 572 380 L 572 374 L 575 371 L 578 370 L 577 365 L 573 361 L 570 356 L 570 352 L 574 349 L 574 348 L 558 334 L 556 329 L 556 327 L 558 324 L 555 321 L 546 318 L 541 314 L 540 312 L 540 307 L 541 306 L 540 304 L 536 303 L 533 301 L 521 300 L 518 297 L 519 292 L 514 289 L 493 288 L 490 285 L 490 280 L 486 278 L 459 279 L 458 280 L 451 280 L 450 281 L 448 280 L 442 280 L 437 283 L 431 285 L 423 284 L 419 288 L 414 291 L 411 289 L 411 284 L 409 284 L 406 288 L 406 290 L 402 295 L 398 292 L 399 286 L 402 279 L 420 264 L 422 266 L 421 267 L 421 269 L 422 269 L 422 266 L 425 261 L 424 260 L 425 258 L 429 258 L 432 262 L 433 261 L 434 257 L 432 254 L 432 249 L 434 247 L 438 247 L 437 245 L 437 241 L 441 238 L 445 238 L 444 233 L 441 228 L 443 226 L 447 226 L 452 229 L 453 226 L 451 224 L 451 219 L 455 216 L 460 217 L 455 210 L 455 208 L 457 206 L 460 205 L 460 203 L 456 198 L 455 194 L 457 192 L 462 194 L 467 194 L 469 193 L 470 194 L 473 194 L 475 197 L 477 197 L 478 196 L 477 193 L 477 187 L 480 184 L 482 185 L 485 184 L 484 182 L 480 179 L 479 176 L 472 169 L 472 166 L 476 163 L 482 163 L 478 159 L 475 158 L 468 153 L 467 151 L 468 143 L 466 139 L 463 136 L 463 134 L 457 123 L 449 114 L 451 111 L 456 109 L 464 102 L 468 93 L 468 85 L 467 84 L 467 80 L 460 69 Z M 259 490 L 261 491 L 263 494 L 263 500 L 262 501 L 262 504 L 260 507 L 257 505 L 255 500 L 256 493 Z M 255 463 L 257 465 L 257 470 L 256 471 L 256 474 L 254 480 L 251 482 L 249 479 L 249 472 L 250 469 Z M 372 449 L 373 449 L 375 451 L 376 454 L 382 459 L 383 458 L 385 459 L 386 458 L 390 460 L 391 459 L 394 462 L 393 465 L 388 465 L 386 468 L 380 471 L 378 471 L 377 474 L 375 476 L 375 478 L 373 480 L 368 478 L 371 474 L 369 469 L 369 460 L 370 459 L 369 454 L 371 452 L 370 451 Z M 254 446 L 256 448 L 256 450 L 253 456 L 245 465 L 243 465 L 242 464 L 242 459 L 245 456 L 248 450 L 251 447 Z M 341 441 L 343 443 L 343 448 L 337 456 L 335 457 L 331 457 L 329 455 L 333 452 L 334 450 L 334 446 L 338 441 Z M 382 436 L 386 436 L 389 440 L 393 443 L 393 447 L 394 448 L 392 451 L 387 450 L 385 448 L 385 446 L 383 444 L 383 442 L 381 439 Z M 256 428 L 258 430 L 256 436 L 251 442 L 251 444 L 245 448 L 243 446 L 243 443 L 245 440 L 246 436 L 254 428 Z M 276 409 L 273 412 L 268 414 L 264 411 L 267 407 L 271 407 L 272 406 Z M 357 393 L 361 394 L 364 398 L 364 401 L 361 405 L 361 409 L 363 411 L 363 415 L 364 416 L 364 422 L 361 425 L 358 424 L 355 416 L 351 413 L 348 408 L 348 401 Z M 301 383 L 302 385 L 298 392 L 287 401 L 285 401 L 283 399 L 283 397 L 291 389 L 292 389 L 295 385 Z M 342 378 L 345 383 L 345 387 L 340 398 L 338 400 L 338 402 L 335 404 L 333 402 L 334 393 L 336 390 L 337 384 Z M 283 376 L 283 374 L 287 371 L 294 371 L 296 373 L 293 377 L 289 379 L 285 378 Z M 325 371 L 324 374 L 318 379 L 312 379 L 310 377 L 316 370 L 320 368 L 322 368 Z M 290 350 L 292 352 L 292 354 L 283 364 L 281 364 L 278 361 L 279 357 L 285 350 Z M 362 340 L 363 339 L 370 339 L 373 342 L 373 348 L 371 350 L 367 350 L 362 345 Z M 327 339 L 327 343 L 318 351 L 311 352 L 305 355 L 301 355 L 299 353 L 299 351 L 309 339 L 312 339 L 313 340 L 313 343 L 315 343 L 321 338 L 324 337 Z M 342 323 L 348 323 L 351 326 L 352 332 L 350 338 L 348 340 L 344 340 L 336 331 L 336 329 Z M 394 280 L 394 284 L 393 286 L 385 294 L 385 295 L 383 296 L 379 301 L 375 303 L 369 308 L 369 310 L 371 309 L 376 310 L 377 309 L 377 304 L 379 302 L 381 302 L 382 303 L 382 308 L 386 316 L 380 324 L 377 324 L 376 323 L 370 327 L 363 322 L 359 318 L 358 315 L 349 318 L 346 317 L 344 315 L 340 314 L 338 312 L 330 308 L 319 300 L 311 291 L 311 288 L 314 285 L 320 285 L 321 286 L 332 287 L 333 288 L 348 288 L 349 287 L 355 287 L 356 286 L 365 285 L 369 283 L 373 283 L 379 280 L 389 278 L 390 277 Z M 377 166 L 382 159 L 389 155 L 392 155 L 393 154 L 408 154 L 421 159 L 427 165 L 429 170 L 429 175 L 428 177 L 420 184 L 413 185 L 412 186 L 403 186 L 402 185 L 398 185 L 397 184 L 391 183 L 389 181 L 385 180 L 379 175 L 379 173 L 377 170 Z M 298 149 L 303 145 L 308 143 L 311 143 L 312 142 L 325 142 L 331 144 L 335 148 L 335 151 L 333 153 L 328 153 L 324 151 L 311 151 L 308 153 L 301 154 L 298 151 Z M 281 134 L 285 134 L 290 139 L 292 143 L 292 151 L 290 157 L 291 158 L 296 156 L 309 156 L 321 160 L 328 167 L 328 176 L 324 183 L 315 190 L 309 192 L 307 194 L 304 195 L 304 196 L 309 197 L 312 199 L 321 200 L 322 201 L 334 201 L 335 200 L 339 200 L 349 195 L 351 195 L 360 187 L 360 185 L 363 181 L 368 182 L 372 186 L 374 190 L 374 196 L 375 197 L 375 223 L 374 224 L 373 232 L 369 242 L 369 245 L 362 256 L 351 266 L 340 271 L 330 271 L 329 270 L 326 270 L 313 263 L 302 252 L 291 237 L 286 227 L 284 221 L 284 215 L 279 212 L 275 211 L 271 208 L 265 201 L 263 195 L 263 188 L 262 187 L 255 194 L 248 197 L 243 197 L 241 196 L 238 193 L 236 189 L 236 184 L 239 178 L 245 172 L 251 169 L 258 168 L 259 169 L 263 169 L 267 173 L 270 173 L 271 172 L 273 173 L 274 172 L 274 169 L 276 165 L 274 163 L 271 156 L 272 146 L 274 144 L 275 140 Z M 364 130 L 370 130 L 372 131 L 375 134 L 379 144 L 379 150 L 377 156 L 371 163 L 365 163 L 363 162 L 358 157 L 356 151 L 357 139 L 359 135 Z M 293 97 L 296 100 L 297 105 L 293 109 L 291 109 L 289 111 L 286 112 L 282 116 L 277 118 L 273 113 L 274 108 L 276 105 L 285 98 Z M 256 95 L 262 98 L 266 102 L 267 106 L 255 124 L 250 129 L 245 129 L 238 122 L 236 118 L 236 109 L 240 102 L 245 97 L 251 96 L 252 95 Z M 360 93 L 361 91 L 366 87 L 373 87 L 381 91 L 387 97 L 387 102 L 383 106 L 378 105 L 376 103 L 374 103 L 372 101 L 365 100 L 361 96 Z M 434 71 L 442 71 L 445 73 L 447 73 L 455 81 L 457 87 L 457 96 L 452 103 L 448 106 L 443 107 L 426 93 L 421 87 L 421 85 L 424 79 L 429 74 Z" fill="#FBFBFB" fill-rule="evenodd"/><path d="M 300 635 L 304 635 L 316 639 L 318 641 L 320 641 L 324 646 L 322 648 L 319 648 L 332 649 L 334 647 L 333 645 L 330 645 L 327 642 L 322 642 L 320 640 L 314 639 L 312 637 L 309 637 L 306 635 Z M 430 609 L 427 611 L 427 614 L 430 617 L 432 617 L 434 615 L 434 610 L 433 609 Z M 265 599 L 265 604 L 270 617 L 275 623 L 278 630 L 276 632 L 260 634 L 263 633 L 270 633 L 271 632 L 277 632 L 278 631 L 275 622 L 270 616 L 267 610 L 266 604 L 265 603 Z M 280 572 L 279 572 L 278 588 L 280 587 L 282 582 Z M 304 563 L 299 569 L 301 572 L 301 576 L 296 582 L 294 587 L 296 582 L 301 578 L 302 576 L 302 572 L 300 567 Z M 257 559 L 256 560 L 256 563 L 260 566 L 261 569 L 262 585 L 261 568 L 260 567 L 260 564 L 257 561 Z M 338 531 L 331 537 L 321 543 L 316 548 L 316 550 L 317 550 L 319 553 L 315 557 L 308 560 L 306 562 L 308 560 L 312 559 L 314 557 L 317 556 L 320 553 L 318 546 Z M 394 512 L 392 509 L 384 507 L 390 509 L 393 512 L 391 514 L 388 512 L 381 512 L 372 516 L 370 516 L 375 515 L 378 513 L 382 513 L 383 512 L 387 512 L 392 515 Z M 237 506 L 237 510 L 239 514 L 239 517 L 248 530 L 249 527 L 252 525 L 263 536 L 264 539 L 266 541 L 267 549 L 273 554 L 274 554 L 268 548 L 268 545 L 267 544 L 267 536 L 269 534 L 271 534 L 275 538 L 277 542 L 283 548 L 285 548 L 287 550 L 288 553 L 290 555 L 292 555 L 296 550 L 311 536 L 301 544 L 297 544 L 296 545 L 291 542 L 289 548 L 285 544 L 281 536 L 281 533 L 279 531 L 278 515 L 279 514 L 279 505 L 280 504 L 280 501 L 278 499 L 276 499 L 273 503 L 273 508 L 271 511 L 272 514 L 272 526 L 270 528 L 268 528 L 266 525 L 262 522 L 255 524 L 253 522 L 251 522 L 247 518 L 241 518 L 239 516 L 237 510 Z M 542 495 L 541 499 L 535 508 L 526 517 L 515 524 L 503 542 L 502 545 L 487 566 L 487 577 L 488 578 L 488 602 L 487 603 L 487 607 L 485 610 L 485 613 L 482 619 L 469 630 L 473 628 L 484 617 L 484 614 L 488 605 L 488 578 L 487 577 L 487 569 L 488 568 L 488 565 L 494 557 L 494 555 L 498 551 L 504 542 L 505 539 L 511 532 L 511 530 L 517 523 L 528 516 L 534 510 L 536 506 L 539 503 L 539 501 L 541 499 Z M 259 491 L 257 493 L 256 500 L 258 505 L 260 506 L 262 500 L 262 494 L 261 492 Z M 255 464 L 251 469 L 250 472 L 250 479 L 251 481 L 253 480 L 255 474 L 255 471 L 256 470 L 256 465 Z M 225 460 L 222 469 L 221 476 L 223 477 L 229 471 L 232 473 L 232 476 L 229 485 L 229 490 L 228 491 L 228 498 L 230 497 L 231 494 L 234 491 L 237 494 L 237 498 L 237 494 L 235 490 L 234 490 L 230 495 L 228 494 L 229 491 L 229 485 L 231 481 L 231 478 L 233 472 L 232 470 L 229 470 L 224 475 L 222 474 L 222 469 L 224 466 Z M 372 450 L 371 451 L 372 452 L 370 454 L 370 457 L 371 458 L 370 460 L 370 469 L 372 474 L 369 478 L 372 478 L 373 479 L 374 476 L 376 474 L 376 472 L 378 470 L 380 470 L 386 467 L 388 464 L 393 464 L 393 462 L 391 460 L 390 461 L 386 459 L 385 460 L 384 459 L 382 460 L 375 454 L 374 451 Z M 254 447 L 251 448 L 249 450 L 246 456 L 243 459 L 243 464 L 245 464 L 252 456 L 255 450 Z M 341 442 L 338 442 L 335 446 L 335 450 L 334 452 L 330 455 L 331 456 L 335 456 L 338 454 L 339 451 L 342 448 L 342 443 Z M 382 437 L 382 439 L 384 442 L 384 444 L 386 446 L 386 448 L 392 450 L 393 448 L 392 447 L 392 443 L 390 442 L 386 437 Z M 256 429 L 254 429 L 247 436 L 246 440 L 244 443 L 244 446 L 245 447 L 250 444 L 250 442 L 255 436 L 257 431 Z M 275 409 L 272 407 L 271 408 L 267 408 L 265 411 L 268 413 L 273 411 Z M 219 397 L 218 399 L 218 407 L 219 408 L 212 417 L 210 422 L 210 430 L 212 432 L 213 435 L 210 439 L 210 441 L 208 443 L 207 446 L 207 457 L 207 446 L 208 443 L 213 436 L 213 433 L 210 429 L 210 422 L 213 416 L 219 409 L 218 406 L 218 400 Z M 357 394 L 349 401 L 349 408 L 352 413 L 356 416 L 359 424 L 361 424 L 363 422 L 363 416 L 362 415 L 362 411 L 360 409 L 360 405 L 363 401 L 363 398 L 361 395 Z M 301 384 L 295 386 L 295 387 L 284 397 L 284 399 L 287 400 L 291 396 L 296 393 L 300 388 Z M 342 379 L 338 384 L 337 390 L 335 393 L 335 397 L 334 398 L 334 402 L 335 403 L 337 402 L 337 400 L 339 398 L 344 387 L 344 383 Z M 284 376 L 289 378 L 293 376 L 295 373 L 294 372 L 287 372 L 284 374 Z M 197 372 L 201 373 L 209 380 L 215 382 L 217 384 L 219 384 L 222 388 L 222 391 L 225 388 L 223 385 L 216 383 L 208 379 L 202 373 Z M 324 371 L 322 369 L 320 369 L 316 371 L 311 377 L 312 378 L 318 378 L 323 374 Z M 259 366 L 254 366 L 246 371 L 243 371 L 242 369 L 243 367 L 242 369 L 243 377 L 254 367 L 257 367 L 259 369 L 259 371 L 247 384 L 240 388 L 231 398 L 230 400 L 231 401 L 235 401 L 237 403 L 237 405 L 223 421 L 222 424 L 225 425 L 230 423 L 232 425 L 232 428 L 220 446 L 224 439 L 231 431 L 232 428 L 232 425 L 230 423 L 225 424 L 223 422 L 234 410 L 235 407 L 237 405 L 237 402 L 236 401 L 233 401 L 231 399 L 239 390 L 243 388 L 255 378 L 260 371 L 260 367 Z M 290 351 L 285 351 L 282 354 L 279 360 L 281 363 L 283 363 L 284 361 L 288 358 L 291 354 Z M 171 344 L 173 345 L 175 345 L 178 347 L 182 347 L 183 348 L 180 344 L 178 344 L 176 342 L 172 342 Z M 363 340 L 363 345 L 367 349 L 371 349 L 372 348 L 372 342 L 370 340 Z M 326 339 L 325 338 L 321 339 L 315 344 L 312 343 L 312 340 L 309 340 L 300 351 L 300 353 L 301 354 L 305 354 L 311 351 L 318 350 L 326 343 Z M 342 324 L 337 329 L 337 331 L 344 339 L 348 339 L 351 332 L 350 326 L 348 324 Z M 556 321 L 559 324 L 557 327 L 559 334 L 564 339 L 568 341 L 575 348 L 575 349 L 571 352 L 571 356 L 574 361 L 578 365 L 579 370 L 573 374 L 573 380 L 575 380 L 582 389 L 575 377 L 575 375 L 577 373 L 580 372 L 580 368 L 578 364 L 572 357 L 572 355 L 575 352 L 578 352 L 578 350 L 574 345 L 566 340 L 559 334 L 558 329 L 562 325 Z M 583 391 L 583 395 L 585 398 L 585 410 L 586 411 L 586 417 L 587 419 L 586 420 L 586 423 L 583 426 L 577 426 L 575 427 L 573 425 L 571 425 L 568 427 L 570 428 L 568 432 L 568 436 L 570 438 L 570 447 L 569 449 L 565 453 L 557 456 L 556 455 L 556 444 L 551 438 L 549 438 L 547 439 L 544 443 L 541 456 L 539 458 L 533 458 L 530 457 L 524 451 L 524 448 L 522 446 L 522 444 L 519 441 L 517 435 L 518 433 L 517 428 L 518 427 L 515 424 L 511 424 L 509 426 L 509 429 L 502 437 L 497 437 L 494 436 L 492 434 L 490 430 L 490 424 L 491 421 L 493 419 L 493 417 L 496 414 L 497 408 L 496 407 L 496 404 L 494 401 L 494 398 L 492 395 L 492 391 L 491 390 L 490 382 L 489 381 L 489 374 L 486 368 L 482 366 L 478 362 L 476 358 L 472 358 L 471 359 L 471 362 L 467 365 L 461 360 L 455 360 L 454 359 L 451 359 L 442 356 L 438 358 L 439 361 L 437 363 L 433 363 L 432 364 L 432 370 L 435 375 L 436 382 L 437 383 L 436 392 L 445 398 L 447 398 L 457 408 L 461 416 L 461 418 L 456 421 L 454 418 L 449 414 L 449 412 L 447 410 L 448 409 L 444 409 L 441 406 L 433 406 L 431 408 L 429 408 L 422 400 L 422 398 L 413 391 L 411 385 L 413 383 L 415 384 L 417 383 L 418 381 L 418 378 L 417 377 L 418 376 L 423 376 L 424 375 L 424 371 L 418 360 L 420 358 L 423 358 L 425 356 L 425 349 L 421 341 L 414 333 L 412 327 L 405 321 L 404 324 L 406 328 L 412 334 L 413 338 L 411 340 L 408 339 L 405 339 L 404 340 L 404 342 L 410 349 L 409 352 L 407 350 L 405 350 L 399 345 L 399 350 L 409 361 L 410 364 L 412 366 L 412 370 L 411 371 L 407 371 L 403 373 L 398 373 L 381 355 L 373 354 L 373 356 L 371 358 L 369 358 L 359 349 L 351 345 L 349 345 L 346 347 L 345 350 L 341 353 L 338 353 L 338 357 L 337 358 L 338 360 L 337 362 L 338 364 L 339 364 L 343 360 L 343 358 L 348 354 L 350 354 L 354 358 L 358 359 L 366 364 L 369 365 L 375 365 L 378 364 L 389 374 L 390 377 L 393 380 L 394 386 L 398 392 L 405 390 L 411 395 L 412 397 L 408 400 L 408 403 L 418 407 L 421 410 L 422 415 L 419 418 L 409 413 L 402 413 L 396 411 L 393 412 L 392 411 L 389 411 L 386 409 L 384 410 L 380 410 L 378 413 L 378 418 L 381 420 L 385 418 L 391 418 L 394 420 L 398 420 L 399 421 L 412 422 L 416 427 L 416 429 L 409 437 L 409 439 L 415 443 L 418 443 L 424 445 L 430 449 L 436 456 L 436 459 L 434 461 L 433 464 L 428 468 L 421 464 L 418 464 L 410 458 L 407 459 L 407 465 L 410 467 L 413 467 L 417 469 L 427 482 L 433 484 L 436 484 L 442 487 L 444 487 L 445 484 L 443 483 L 438 477 L 440 475 L 442 475 L 443 473 L 448 474 L 450 477 L 449 479 L 449 488 L 456 495 L 461 496 L 464 500 L 466 500 L 468 502 L 468 504 L 467 505 L 467 508 L 465 511 L 462 513 L 460 513 L 458 515 L 455 522 L 455 525 L 453 528 L 451 527 L 451 519 L 450 518 L 448 520 L 448 524 L 447 525 L 445 525 L 443 522 L 439 525 L 435 537 L 434 547 L 416 569 L 416 572 L 413 574 L 390 598 L 389 604 L 384 609 L 384 611 L 381 614 L 378 620 L 378 623 L 374 632 L 375 635 L 371 641 L 371 644 L 366 649 L 366 658 L 368 662 L 363 671 L 357 676 L 355 679 L 355 681 L 351 684 L 340 684 L 337 683 L 331 685 L 315 685 L 331 685 L 332 686 L 362 685 L 363 684 L 372 684 L 373 683 L 380 682 L 383 680 L 384 676 L 386 675 L 386 673 L 383 673 L 381 676 L 378 674 L 377 675 L 374 675 L 373 674 L 372 675 L 370 673 L 370 671 L 374 666 L 373 665 L 374 663 L 373 660 L 374 651 L 378 648 L 378 646 L 381 640 L 386 635 L 386 633 L 388 631 L 390 625 L 390 622 L 389 621 L 390 613 L 394 604 L 409 587 L 409 585 L 414 577 L 425 566 L 431 557 L 434 551 L 435 542 L 436 541 L 436 537 L 438 531 L 440 529 L 442 530 L 442 540 L 443 540 L 446 535 L 447 530 L 448 529 L 450 530 L 450 534 L 451 535 L 454 530 L 455 526 L 459 521 L 460 518 L 463 516 L 465 516 L 468 513 L 471 505 L 471 494 L 472 493 L 472 490 L 476 488 L 477 486 L 478 471 L 480 469 L 485 469 L 492 477 L 501 477 L 504 475 L 507 476 L 510 475 L 510 470 L 502 465 L 499 465 L 497 462 L 495 463 L 490 463 L 487 461 L 484 462 L 479 457 L 476 449 L 476 437 L 474 432 L 473 417 L 470 413 L 469 404 L 466 404 L 464 407 L 462 408 L 455 399 L 451 398 L 448 395 L 451 391 L 454 391 L 455 390 L 453 386 L 449 386 L 443 380 L 442 380 L 434 371 L 433 366 L 435 364 L 440 364 L 443 366 L 449 368 L 452 368 L 448 363 L 449 361 L 461 361 L 468 368 L 470 368 L 471 362 L 475 359 L 478 362 L 480 370 L 484 369 L 488 374 L 488 378 L 489 379 L 490 388 L 492 392 L 492 396 L 496 405 L 496 413 L 493 417 L 490 424 L 490 430 L 492 435 L 495 438 L 501 440 L 509 430 L 509 428 L 513 425 L 516 428 L 516 437 L 517 440 L 519 442 L 524 453 L 528 457 L 533 459 L 538 459 L 542 457 L 544 444 L 548 439 L 550 439 L 554 442 L 555 445 L 555 455 L 556 456 L 559 456 L 566 453 L 570 448 L 569 431 L 572 427 L 575 428 L 578 431 L 580 439 L 582 439 L 584 437 L 586 431 L 587 416 L 586 415 L 585 397 Z M 458 481 L 460 483 L 460 485 L 457 487 L 456 486 L 456 483 Z M 426 475 L 427 474 L 431 475 L 434 478 L 434 480 L 433 481 L 429 480 L 428 477 Z M 445 461 L 449 465 L 449 468 L 447 470 L 445 470 L 443 468 L 443 463 Z M 469 450 L 470 449 L 473 450 L 475 454 L 473 456 L 472 455 L 471 456 L 469 454 Z M 465 446 L 467 445 L 469 448 L 467 449 Z M 415 439 L 417 437 L 419 437 L 426 441 L 434 442 L 440 447 L 441 451 L 438 453 L 434 451 L 429 446 L 427 446 L 425 444 L 419 442 Z M 451 435 L 456 435 L 458 437 L 460 443 L 459 444 L 459 447 L 457 449 L 453 447 L 450 444 L 449 437 Z M 434 414 L 437 415 L 441 419 L 441 421 L 438 423 L 439 426 L 439 432 L 438 433 L 439 439 L 437 441 L 432 441 L 426 439 L 421 433 L 421 428 L 431 421 L 432 416 Z M 384 364 L 385 363 L 387 364 L 392 370 L 399 376 L 404 376 L 406 378 L 404 382 L 402 384 L 399 385 L 394 380 L 390 374 L 389 370 Z M 408 355 L 411 356 L 419 364 L 421 368 L 421 370 L 419 372 L 414 368 L 410 360 L 407 357 Z M 410 346 L 412 344 L 418 346 L 421 350 L 421 353 L 418 355 L 410 347 Z M 534 301 L 538 302 L 541 304 L 542 306 L 541 307 L 541 312 L 542 314 L 546 317 L 548 317 L 554 320 L 546 316 L 541 312 L 541 310 L 543 308 L 546 307 L 544 305 Z M 487 278 L 489 278 L 491 280 L 491 285 L 493 287 L 513 288 L 496 287 L 493 284 L 495 281 L 490 278 Z M 393 280 L 390 278 L 389 279 L 379 281 L 373 284 L 369 284 L 365 286 L 361 286 L 355 288 L 349 288 L 348 289 L 333 289 L 332 288 L 326 288 L 320 286 L 314 286 L 312 288 L 312 291 L 319 299 L 330 307 L 333 308 L 340 313 L 344 314 L 346 316 L 349 317 L 358 314 L 360 318 L 370 326 L 376 322 L 377 323 L 380 323 L 382 321 L 382 319 L 385 316 L 381 308 L 381 303 L 378 304 L 378 309 L 376 311 L 373 310 L 369 311 L 368 308 L 375 302 L 379 300 L 380 298 L 384 295 L 384 294 L 392 286 L 393 284 Z M 392 281 L 390 286 L 378 298 L 372 302 L 362 311 L 357 312 L 353 315 L 347 315 L 333 308 L 319 298 L 313 291 L 313 289 L 315 287 L 321 287 L 327 289 L 342 289 L 344 290 L 345 289 L 351 289 L 352 288 L 357 288 L 358 287 L 367 286 L 388 279 L 390 279 Z M 227 203 L 226 207 L 229 207 L 233 205 L 235 207 L 234 211 L 235 209 L 235 205 L 229 205 Z M 366 182 L 363 182 L 361 186 L 364 182 L 366 182 L 372 188 L 373 198 L 374 199 L 374 219 L 373 220 L 372 232 L 365 250 L 355 261 L 348 266 L 341 269 L 333 270 L 332 269 L 328 269 L 315 263 L 307 256 L 297 244 L 303 252 L 316 264 L 326 269 L 329 269 L 330 270 L 340 270 L 351 265 L 356 261 L 364 252 L 366 247 L 368 245 L 368 242 L 372 232 L 373 224 L 374 223 L 374 197 L 373 196 L 373 190 L 371 186 Z M 237 184 L 237 189 L 239 193 L 243 196 L 248 196 L 255 193 L 262 186 L 264 188 L 264 195 L 264 183 L 263 183 L 260 187 L 252 194 L 246 196 L 242 195 L 237 189 L 237 185 L 239 180 L 246 173 L 252 170 L 257 169 L 263 171 L 266 175 L 268 174 L 272 174 L 274 176 L 273 194 L 273 183 L 274 180 L 276 179 L 280 185 L 291 194 L 296 194 L 302 196 L 291 204 L 283 204 L 291 204 L 300 198 L 306 198 L 307 199 L 320 201 L 321 202 L 335 202 L 338 201 L 335 201 L 334 202 L 322 202 L 321 201 L 312 200 L 303 196 L 304 194 L 311 190 L 315 189 L 321 185 L 326 179 L 327 174 L 325 180 L 319 186 L 305 193 L 293 193 L 286 190 L 281 186 L 275 177 L 275 169 L 278 164 L 274 161 L 277 166 L 275 169 L 275 172 L 273 174 L 272 173 L 267 174 L 263 170 L 259 170 L 258 169 L 251 170 L 245 173 L 240 178 Z M 378 166 L 378 170 L 381 176 L 385 179 L 389 180 L 391 182 L 397 183 L 398 184 L 402 184 L 403 185 L 412 185 L 413 184 L 420 183 L 422 182 L 428 175 L 428 170 L 426 165 L 421 160 L 408 155 L 393 155 L 392 156 L 389 156 L 382 160 Z M 378 166 L 384 159 L 390 156 L 396 156 L 397 155 L 411 156 L 417 159 L 419 159 L 425 164 L 428 170 L 428 174 L 421 182 L 415 184 L 399 184 L 386 179 L 379 172 Z M 238 155 L 235 161 L 236 171 L 224 185 L 225 187 L 232 186 L 234 188 L 231 194 L 234 189 L 234 187 L 232 185 L 230 186 L 226 186 L 225 183 L 236 171 L 236 165 L 235 162 L 236 159 L 238 157 Z M 159 154 L 153 154 L 144 165 L 141 164 L 144 167 L 144 170 L 142 174 L 143 181 L 149 186 L 154 186 L 156 185 L 161 178 L 161 175 L 162 174 L 164 175 L 165 181 L 165 162 L 163 158 Z M 156 158 L 160 161 L 162 165 L 162 172 L 158 181 L 154 185 L 151 186 L 148 185 L 143 180 L 143 171 L 148 162 L 152 158 Z M 156 154 L 159 155 L 163 159 L 163 161 L 161 162 L 160 160 L 155 156 Z M 299 149 L 299 151 L 301 153 L 308 152 L 311 150 L 324 150 L 328 152 L 333 152 L 334 151 L 334 148 L 331 145 L 325 143 L 312 143 L 311 144 L 305 145 Z M 302 150 L 306 146 L 313 145 L 314 144 L 325 144 L 330 146 L 333 149 L 332 151 L 327 151 L 325 149 L 313 149 L 310 151 L 307 151 L 306 152 L 304 152 Z M 90 142 L 86 147 L 86 151 L 87 151 L 90 147 L 94 147 L 99 149 L 104 154 L 105 157 L 107 159 L 107 161 L 109 164 L 109 171 L 104 177 L 94 176 L 93 178 L 91 178 L 81 168 L 75 165 L 70 165 L 66 170 L 70 166 L 71 166 L 72 168 L 69 170 L 67 173 L 65 172 L 66 176 L 67 176 L 68 173 L 71 170 L 76 170 L 78 172 L 81 173 L 88 180 L 91 185 L 91 190 L 87 195 L 84 196 L 78 194 L 74 194 L 72 196 L 63 196 L 60 200 L 60 206 L 64 213 L 75 226 L 99 244 L 102 253 L 105 258 L 105 260 L 116 280 L 119 281 L 114 273 L 116 270 L 134 289 L 150 301 L 155 306 L 173 315 L 190 319 L 192 322 L 189 325 L 187 325 L 185 327 L 186 330 L 189 331 L 197 331 L 200 330 L 206 335 L 209 335 L 210 336 L 221 336 L 223 339 L 215 346 L 217 349 L 228 350 L 229 351 L 238 351 L 240 349 L 242 343 L 248 336 L 250 336 L 252 338 L 252 341 L 251 342 L 253 337 L 250 334 L 257 327 L 257 324 L 255 322 L 255 319 L 264 311 L 264 308 L 262 305 L 267 301 L 267 295 L 272 291 L 277 285 L 283 286 L 292 291 L 294 289 L 294 286 L 289 279 L 280 272 L 271 269 L 258 257 L 256 257 L 252 253 L 251 247 L 248 244 L 244 249 L 241 246 L 241 243 L 240 242 L 241 228 L 239 225 L 235 225 L 233 227 L 231 225 L 231 220 L 232 219 L 233 213 L 232 219 L 231 220 L 231 226 L 233 228 L 236 225 L 238 225 L 241 229 L 240 232 L 240 244 L 242 249 L 245 250 L 246 247 L 249 245 L 251 247 L 253 255 L 255 257 L 258 258 L 265 265 L 275 280 L 276 283 L 275 287 L 270 291 L 266 288 L 261 279 L 252 269 L 251 270 L 251 274 L 248 276 L 243 271 L 239 262 L 237 260 L 235 260 L 235 262 L 232 266 L 228 262 L 223 249 L 219 245 L 217 248 L 217 252 L 215 254 L 213 254 L 205 244 L 203 239 L 198 232 L 198 230 L 196 228 L 193 232 L 190 232 L 179 219 L 173 210 L 161 197 L 161 193 L 161 197 L 162 199 L 172 209 L 173 212 L 179 218 L 184 226 L 190 232 L 194 232 L 196 229 L 198 230 L 198 232 L 203 239 L 203 241 L 213 255 L 215 255 L 217 253 L 217 248 L 220 246 L 224 251 L 228 263 L 231 266 L 233 266 L 235 262 L 237 261 L 241 266 L 241 268 L 244 273 L 248 277 L 251 275 L 251 272 L 253 271 L 261 280 L 261 282 L 264 286 L 263 294 L 258 300 L 258 306 L 255 308 L 255 310 L 251 315 L 250 324 L 246 330 L 245 339 L 242 342 L 241 346 L 238 350 L 226 350 L 221 348 L 219 346 L 219 345 L 226 339 L 226 335 L 210 335 L 207 334 L 202 329 L 189 329 L 188 327 L 193 323 L 193 320 L 191 318 L 178 316 L 175 314 L 168 312 L 156 305 L 151 300 L 146 297 L 125 278 L 123 274 L 105 255 L 102 251 L 102 249 L 100 247 L 100 245 L 98 242 L 92 239 L 81 230 L 75 224 L 74 224 L 64 213 L 61 207 L 60 202 L 61 199 L 63 197 L 66 196 L 67 198 L 64 202 L 64 205 L 65 206 L 65 209 L 70 215 L 73 217 L 76 217 L 78 219 L 82 219 L 84 218 L 88 221 L 89 224 L 96 231 L 99 231 L 100 232 L 110 232 L 116 230 L 118 228 L 134 220 L 143 212 L 147 205 L 147 196 L 143 188 L 135 180 L 125 176 L 117 176 L 116 177 L 113 177 L 111 179 L 108 179 L 99 187 L 94 194 L 91 201 L 93 196 L 98 189 L 107 181 L 115 177 L 128 177 L 134 180 L 144 190 L 147 196 L 147 204 L 144 210 L 133 220 L 130 221 L 123 226 L 119 227 L 117 229 L 112 231 L 109 231 L 108 232 L 101 232 L 98 231 L 89 223 L 87 218 L 87 213 L 88 212 L 88 207 L 90 203 L 89 206 L 86 208 L 84 205 L 84 203 L 74 196 L 75 195 L 86 196 L 91 190 L 90 182 L 82 173 L 83 172 L 86 173 L 92 180 L 95 179 L 102 179 L 109 173 L 111 167 L 113 167 L 115 169 L 120 168 L 125 171 L 132 172 L 135 169 L 136 161 L 139 160 L 140 162 L 137 152 L 131 141 L 126 137 L 122 137 L 119 141 L 120 142 L 122 141 L 126 142 L 130 145 L 134 150 L 136 156 L 136 165 L 135 168 L 132 171 L 124 170 L 119 166 L 115 168 L 113 166 L 110 160 L 110 158 L 104 148 L 96 142 Z M 254 323 L 256 325 L 256 327 L 250 333 L 249 333 L 247 330 L 249 327 Z M 261 309 L 262 311 L 255 318 L 254 318 L 253 315 L 258 309 Z M 274 274 L 275 273 L 279 273 L 284 276 L 292 284 L 293 288 L 292 289 L 289 289 L 286 286 L 282 284 L 274 277 Z M 67 199 L 71 197 L 78 199 L 85 206 L 85 212 L 84 215 L 80 218 L 74 217 L 66 210 L 64 204 L 65 201 Z M 87 145 L 90 142 L 96 142 L 99 144 L 102 148 L 101 149 L 99 149 L 96 147 L 89 147 L 88 148 Z M 122 138 L 125 137 L 131 142 L 129 144 L 127 142 L 123 141 Z M 276 140 L 275 143 L 275 142 L 281 136 L 285 136 L 289 139 L 291 144 L 291 151 L 290 152 L 290 155 L 287 160 L 292 158 L 296 158 L 297 157 L 309 157 L 322 162 L 327 167 L 327 169 L 327 167 L 321 161 L 319 161 L 313 158 L 310 158 L 309 157 L 296 157 L 291 159 L 289 157 L 291 151 L 291 143 L 289 139 L 285 135 L 281 135 Z M 214 127 L 218 135 L 228 146 L 228 150 L 225 156 L 230 146 L 218 135 Z M 478 103 L 477 107 L 469 117 L 469 119 L 474 125 L 478 134 L 482 139 L 483 142 L 480 135 L 476 130 L 475 126 L 470 120 L 470 116 L 477 107 Z M 466 100 L 460 107 L 456 110 L 451 112 L 450 114 L 458 123 L 464 134 L 464 136 L 467 139 L 469 143 L 469 147 L 468 148 L 469 153 L 478 158 L 483 163 L 482 164 L 476 164 L 473 166 L 473 169 L 480 176 L 481 179 L 483 180 L 486 184 L 484 186 L 480 185 L 478 187 L 478 193 L 479 196 L 477 198 L 475 198 L 473 195 L 470 195 L 469 194 L 467 195 L 462 195 L 457 193 L 456 194 L 457 198 L 461 203 L 461 205 L 459 207 L 457 207 L 456 210 L 461 217 L 460 218 L 455 217 L 452 219 L 452 224 L 454 226 L 454 228 L 452 230 L 447 227 L 443 227 L 442 228 L 445 233 L 446 238 L 445 239 L 441 239 L 438 241 L 438 245 L 439 247 L 433 249 L 433 254 L 435 257 L 434 261 L 432 263 L 429 259 L 425 259 L 426 261 L 423 266 L 423 269 L 422 270 L 420 269 L 421 266 L 420 265 L 412 272 L 407 275 L 403 279 L 400 286 L 399 292 L 401 294 L 403 293 L 405 290 L 405 288 L 409 283 L 412 284 L 412 289 L 414 290 L 419 287 L 423 283 L 431 284 L 437 282 L 442 279 L 448 279 L 450 280 L 451 279 L 458 279 L 459 278 L 485 277 L 473 277 L 472 278 L 442 278 L 439 280 L 437 280 L 433 283 L 427 283 L 426 282 L 426 278 L 431 273 L 436 264 L 439 262 L 441 265 L 443 266 L 445 262 L 453 252 L 454 248 L 456 246 L 460 249 L 460 254 L 461 255 L 463 254 L 468 245 L 470 230 L 472 228 L 476 231 L 477 230 L 477 215 L 476 214 L 476 211 L 478 209 L 481 209 L 484 212 L 485 211 L 485 207 L 483 201 L 478 192 L 478 188 L 480 186 L 482 186 L 487 189 L 488 188 L 483 179 L 473 169 L 473 167 L 475 165 L 483 165 L 484 163 L 480 159 L 474 156 L 468 151 L 471 147 L 471 145 L 467 140 L 459 124 L 452 116 L 452 113 L 461 107 Z M 419 276 L 422 280 L 421 282 L 415 287 L 413 285 L 413 283 L 415 279 Z M 448 232 L 451 231 L 453 233 L 454 236 L 451 237 Z M 456 223 L 458 222 L 460 225 L 458 226 Z M 256 96 L 252 96 L 251 97 L 245 98 L 241 102 L 237 109 L 237 118 L 239 122 L 245 128 L 250 128 L 254 124 L 266 106 L 265 102 L 262 99 Z M 256 97 L 260 99 L 264 103 L 265 106 L 254 121 L 253 124 L 250 127 L 245 127 L 238 120 L 237 117 L 237 111 L 241 103 L 245 99 L 250 97 Z M 434 72 L 429 75 L 425 79 L 422 85 L 422 87 L 426 92 L 443 106 L 448 105 L 451 103 L 456 96 L 456 87 L 454 81 L 447 74 L 445 74 L 442 72 Z M 434 73 L 443 73 L 452 80 L 456 88 L 455 96 L 450 102 L 445 105 L 442 104 L 436 98 L 423 88 L 423 83 L 429 76 Z M 217 93 L 220 87 L 226 81 L 233 76 L 245 71 L 250 71 L 251 70 L 264 71 L 273 75 L 281 81 L 299 71 L 286 78 L 284 78 L 281 81 L 277 77 L 275 77 L 266 71 L 262 71 L 261 70 L 250 70 L 249 71 L 245 71 L 239 73 L 227 80 L 220 87 Z M 469 85 L 469 93 L 467 98 L 469 93 L 469 85 L 468 84 L 468 80 L 465 74 L 456 64 L 449 60 L 443 58 L 430 58 L 421 62 L 413 69 L 410 75 L 410 77 L 407 80 L 404 80 L 398 77 L 395 77 L 386 74 L 382 74 L 381 73 L 365 73 L 359 75 L 357 72 L 360 64 L 358 63 L 354 65 L 345 74 L 343 74 L 337 69 L 331 66 L 327 66 L 326 68 L 328 71 L 328 75 L 325 78 L 309 77 L 303 84 L 291 88 L 279 97 L 278 97 L 273 91 L 266 85 L 259 82 L 249 82 L 238 87 L 230 94 L 226 102 L 225 107 L 226 102 L 229 96 L 237 88 L 249 82 L 258 82 L 264 84 L 271 89 L 277 97 L 280 97 L 283 95 L 284 96 L 284 95 L 292 88 L 294 88 L 296 86 L 298 86 L 301 84 L 306 83 L 307 80 L 309 78 L 325 78 L 328 76 L 328 70 L 326 68 L 328 66 L 332 67 L 334 69 L 336 69 L 342 74 L 346 74 L 354 65 L 357 64 L 359 66 L 357 72 L 358 75 L 361 75 L 366 73 L 379 73 L 381 75 L 384 75 L 385 76 L 388 75 L 389 76 L 397 77 L 400 79 L 408 80 L 410 77 L 410 75 L 412 73 L 412 71 L 420 63 L 425 60 L 431 58 L 440 58 L 445 60 L 449 60 L 460 68 L 468 80 L 468 84 Z M 348 56 L 343 59 L 333 54 L 324 54 L 321 55 L 317 59 L 315 65 L 313 67 L 308 67 L 307 68 L 304 68 L 301 70 L 308 67 L 314 67 L 317 59 L 321 55 L 324 54 L 333 54 L 343 60 Z" fill="#E8E8E8" fill-rule="evenodd"/><path d="M 473 574 L 470 575 L 468 577 L 457 583 L 451 588 L 449 588 L 440 594 L 426 608 L 422 615 L 416 621 L 419 620 L 425 620 L 433 624 L 441 624 L 443 621 L 443 619 L 445 617 L 450 615 L 454 615 L 461 607 L 465 610 L 466 612 L 465 616 L 466 617 L 467 614 L 472 610 L 474 605 L 474 598 L 475 597 L 475 578 Z M 430 608 L 433 608 L 435 610 L 435 615 L 432 618 L 430 618 L 426 614 L 426 611 Z M 427 475 L 429 477 L 429 479 L 433 480 L 433 478 L 431 476 Z M 527 468 L 525 468 L 523 470 L 524 487 L 523 488 L 522 497 L 519 505 L 521 505 L 527 497 L 527 495 L 530 489 L 530 485 L 531 484 L 531 471 Z M 525 473 L 527 472 L 529 474 L 529 476 L 527 477 Z M 470 450 L 470 454 L 473 455 L 474 454 L 473 451 Z M 416 439 L 425 443 L 427 445 L 429 445 L 434 450 L 438 452 L 440 451 L 439 447 L 436 444 L 431 442 L 426 442 L 419 438 Z M 385 364 L 390 370 L 391 374 L 395 380 L 399 384 L 402 383 L 405 378 L 404 377 L 399 377 Z M 408 356 L 415 368 L 419 371 L 420 368 L 418 364 L 411 357 Z M 412 345 L 411 347 L 418 354 L 420 353 L 419 348 L 414 345 Z M 254 324 L 253 324 L 248 330 L 249 332 L 255 327 Z M 261 310 L 258 310 L 254 315 L 254 317 L 255 317 L 261 311 Z M 391 281 L 388 280 L 371 286 L 358 288 L 357 289 L 352 289 L 351 290 L 345 290 L 344 291 L 342 290 L 327 290 L 321 288 L 315 288 L 314 291 L 319 297 L 333 307 L 347 314 L 353 314 L 357 311 L 362 310 L 372 301 L 378 297 L 389 286 Z M 419 277 L 416 279 L 414 283 L 415 286 L 416 286 L 421 280 Z M 275 274 L 275 277 L 278 280 L 286 285 L 289 288 L 292 288 L 291 284 L 284 277 L 279 274 Z M 67 200 L 65 204 L 67 210 L 74 216 L 77 217 L 82 216 L 84 212 L 84 206 L 78 200 L 72 198 Z M 131 179 L 128 178 L 115 178 L 103 185 L 96 193 L 91 202 L 91 204 L 89 207 L 89 212 L 88 213 L 89 221 L 96 229 L 101 231 L 108 231 L 109 230 L 115 229 L 119 226 L 121 226 L 133 219 L 143 210 L 146 204 L 146 196 L 143 190 Z M 240 180 L 238 185 L 238 189 L 239 191 L 244 195 L 252 193 L 256 190 L 263 182 L 265 183 L 265 196 L 266 199 L 275 209 L 281 211 L 285 214 L 288 227 L 293 237 L 308 256 L 315 262 L 328 268 L 332 268 L 333 269 L 341 268 L 348 265 L 355 260 L 364 250 L 371 232 L 372 220 L 373 219 L 373 199 L 372 198 L 372 192 L 371 191 L 371 188 L 366 183 L 364 183 L 361 188 L 354 195 L 344 200 L 335 203 L 321 203 L 320 202 L 311 201 L 306 199 L 300 199 L 291 205 L 283 205 L 279 203 L 274 198 L 272 194 L 272 183 L 273 182 L 273 176 L 272 175 L 268 175 L 266 176 L 263 172 L 255 170 L 246 174 Z M 266 179 L 270 175 L 272 177 L 272 187 L 271 188 L 272 195 L 274 199 L 279 204 L 284 206 L 290 206 L 293 205 L 300 200 L 307 200 L 308 201 L 316 202 L 317 203 L 322 203 L 323 204 L 334 204 L 335 203 L 338 203 L 349 198 L 351 198 L 357 194 L 364 185 L 367 185 L 370 188 L 371 196 L 372 197 L 372 221 L 371 222 L 371 228 L 370 229 L 370 232 L 369 233 L 369 236 L 367 242 L 361 253 L 358 256 L 356 254 L 363 239 L 363 236 L 364 235 L 364 231 L 363 229 L 357 223 L 350 220 L 343 220 L 342 221 L 336 222 L 328 226 L 317 236 L 314 241 L 314 249 L 316 253 L 324 262 L 322 264 L 320 264 L 315 261 L 301 247 L 295 239 L 288 225 L 287 218 L 286 217 L 286 213 L 275 208 L 268 201 L 265 195 L 265 183 L 266 182 Z M 156 159 L 152 159 L 149 162 L 144 171 L 144 180 L 148 184 L 151 185 L 154 184 L 157 181 L 161 172 L 161 165 L 159 161 Z M 379 166 L 380 172 L 386 178 L 399 183 L 415 183 L 421 181 L 427 174 L 427 170 L 424 164 L 419 160 L 417 160 L 411 157 L 404 157 L 403 156 L 390 157 L 384 160 Z M 303 150 L 306 151 L 307 150 L 310 150 L 313 148 L 325 148 L 327 150 L 332 150 L 332 149 L 330 147 L 325 145 L 314 145 L 313 146 L 306 147 Z M 281 137 L 276 142 L 273 151 L 273 157 L 274 160 L 279 164 L 276 169 L 276 177 L 278 181 L 282 186 L 286 189 L 293 192 L 305 192 L 311 189 L 313 189 L 319 185 L 324 180 L 327 173 L 326 167 L 322 163 L 309 158 L 297 158 L 296 159 L 292 159 L 287 161 L 286 159 L 289 155 L 290 144 L 287 138 L 285 137 Z M 326 168 L 326 175 L 321 182 L 308 190 L 301 191 L 300 192 L 289 190 L 279 181 L 276 176 L 276 171 L 282 164 L 295 159 L 301 159 L 304 158 L 305 159 L 315 160 L 322 164 Z M 285 138 L 289 142 L 289 146 L 290 147 L 289 153 L 287 157 L 281 162 L 277 162 L 274 159 L 274 149 L 277 142 L 281 138 Z M 364 132 L 361 135 L 358 142 L 358 152 L 360 157 L 363 160 L 365 161 L 370 161 L 374 158 L 377 151 L 377 143 L 375 137 L 370 132 Z M 364 133 L 370 133 L 374 137 L 376 141 L 376 152 L 375 155 L 371 160 L 364 160 L 359 154 L 358 145 L 359 144 L 360 138 Z M 295 102 L 292 99 L 288 99 L 282 102 L 277 106 L 275 113 L 277 115 L 280 115 L 289 108 L 293 107 L 295 105 Z M 294 102 L 294 104 L 291 107 L 286 109 L 280 114 L 278 114 L 276 112 L 276 109 L 283 102 L 287 100 L 292 100 Z M 256 98 L 250 98 L 245 100 L 239 108 L 238 111 L 238 117 L 239 120 L 245 126 L 250 126 L 252 124 L 253 121 L 264 106 L 263 103 L 260 100 Z M 363 91 L 363 96 L 369 99 L 372 99 L 380 104 L 383 104 L 385 102 L 385 97 L 380 92 L 372 89 L 366 89 Z M 363 93 L 366 90 L 373 90 L 380 93 L 384 97 L 385 101 L 383 103 L 380 103 L 373 99 L 365 97 L 363 95 Z M 434 74 L 426 80 L 424 83 L 424 88 L 430 92 L 442 103 L 445 104 L 450 101 L 454 96 L 455 93 L 454 85 L 451 80 L 443 74 Z M 446 57 L 443 57 L 442 56 L 432 56 L 423 59 L 417 63 L 412 68 L 409 73 L 409 75 L 406 78 L 391 73 L 387 73 L 381 71 L 361 72 L 360 71 L 361 62 L 359 61 L 351 65 L 345 72 L 343 72 L 340 69 L 331 64 L 326 64 L 324 66 L 327 73 L 325 76 L 307 76 L 301 83 L 298 83 L 293 85 L 291 87 L 283 91 L 280 94 L 277 94 L 269 85 L 261 81 L 256 81 L 255 80 L 247 81 L 237 86 L 229 93 L 225 100 L 223 106 L 223 111 L 222 112 L 223 120 L 227 129 L 234 136 L 240 138 L 243 142 L 233 162 L 234 171 L 233 173 L 226 179 L 222 186 L 224 189 L 226 188 L 230 188 L 231 189 L 231 192 L 228 196 L 227 200 L 225 203 L 225 209 L 226 210 L 228 210 L 230 208 L 233 209 L 231 215 L 231 219 L 230 220 L 230 229 L 231 230 L 234 230 L 237 228 L 239 230 L 238 232 L 238 243 L 241 250 L 243 252 L 245 252 L 248 249 L 250 251 L 252 257 L 254 259 L 258 260 L 264 266 L 274 282 L 274 286 L 272 288 L 269 288 L 266 285 L 261 276 L 253 267 L 251 266 L 250 267 L 250 270 L 247 273 L 243 268 L 243 266 L 241 264 L 240 261 L 236 257 L 235 257 L 231 262 L 228 259 L 226 252 L 223 246 L 220 243 L 217 244 L 216 250 L 213 251 L 209 247 L 199 229 L 196 226 L 191 230 L 185 224 L 174 209 L 162 196 L 162 194 L 166 185 L 167 165 L 164 157 L 160 153 L 158 152 L 154 152 L 152 153 L 144 162 L 142 162 L 140 159 L 137 148 L 133 141 L 127 136 L 121 136 L 118 139 L 117 142 L 117 157 L 116 158 L 117 163 L 115 164 L 113 162 L 107 149 L 101 143 L 94 140 L 90 140 L 85 146 L 85 158 L 87 164 L 92 172 L 92 174 L 90 175 L 84 168 L 77 164 L 74 164 L 73 163 L 69 164 L 64 170 L 64 176 L 72 192 L 70 194 L 63 194 L 59 199 L 58 203 L 62 213 L 67 220 L 78 231 L 91 241 L 94 242 L 98 246 L 101 255 L 103 258 L 103 260 L 110 274 L 123 292 L 138 306 L 145 310 L 151 315 L 150 318 L 144 318 L 143 320 L 147 324 L 155 328 L 157 330 L 173 336 L 174 339 L 168 341 L 168 344 L 175 348 L 178 348 L 191 353 L 194 353 L 197 356 L 195 359 L 196 362 L 213 365 L 215 367 L 214 369 L 215 372 L 221 374 L 229 375 L 231 372 L 232 366 L 237 357 L 240 354 L 243 354 L 245 356 L 245 361 L 241 368 L 241 376 L 239 380 L 238 388 L 230 397 L 228 401 L 229 403 L 233 403 L 235 405 L 221 422 L 221 425 L 222 426 L 226 426 L 228 425 L 230 428 L 227 434 L 219 444 L 217 449 L 217 452 L 218 453 L 221 453 L 225 450 L 227 452 L 221 468 L 220 478 L 223 479 L 227 475 L 229 476 L 229 481 L 227 487 L 226 498 L 227 501 L 229 502 L 233 495 L 235 496 L 235 507 L 236 508 L 236 512 L 238 518 L 243 527 L 246 530 L 248 534 L 258 542 L 271 555 L 272 555 L 279 563 L 277 567 L 277 602 L 278 602 L 279 592 L 283 583 L 283 577 L 284 576 L 285 569 L 288 565 L 290 559 L 307 541 L 326 527 L 330 523 L 342 515 L 350 511 L 356 509 L 359 509 L 360 508 L 363 508 L 364 507 L 368 507 L 369 506 L 378 506 L 381 508 L 381 510 L 378 512 L 375 512 L 370 515 L 356 519 L 350 522 L 348 524 L 337 530 L 326 539 L 317 544 L 312 549 L 313 551 L 316 552 L 316 554 L 314 556 L 306 560 L 297 568 L 299 574 L 292 589 L 291 603 L 290 604 L 290 626 L 291 627 L 291 632 L 295 635 L 313 640 L 319 644 L 317 646 L 311 646 L 296 641 L 277 641 L 276 642 L 269 642 L 258 648 L 251 656 L 249 662 L 249 668 L 252 672 L 256 674 L 259 673 L 259 668 L 262 661 L 267 656 L 269 655 L 274 655 L 276 657 L 269 668 L 268 674 L 270 677 L 279 680 L 288 681 L 289 680 L 289 673 L 290 670 L 295 664 L 299 664 L 301 666 L 301 668 L 297 676 L 296 682 L 299 684 L 302 684 L 303 685 L 324 686 L 325 687 L 354 687 L 355 686 L 370 686 L 371 685 L 376 685 L 387 681 L 391 677 L 394 669 L 394 649 L 398 644 L 398 627 L 399 626 L 399 623 L 401 621 L 402 622 L 404 619 L 406 609 L 408 607 L 410 607 L 427 588 L 439 579 L 449 573 L 455 568 L 464 565 L 473 559 L 486 547 L 492 539 L 503 517 L 503 515 L 505 512 L 505 509 L 507 506 L 507 500 L 508 499 L 508 493 L 509 492 L 508 488 L 509 485 L 513 482 L 513 468 L 511 464 L 506 462 L 491 452 L 484 444 L 479 435 L 479 432 L 478 431 L 478 417 L 481 411 L 481 407 L 480 406 L 480 402 L 478 398 L 478 395 L 473 390 L 465 386 L 460 385 L 457 383 L 452 382 L 445 378 L 443 378 L 436 371 L 435 369 L 436 366 L 440 366 L 451 371 L 454 371 L 458 373 L 459 372 L 459 368 L 460 367 L 464 367 L 475 376 L 473 373 L 473 366 L 475 365 L 477 367 L 477 373 L 478 374 L 479 373 L 484 373 L 486 375 L 490 395 L 493 404 L 495 407 L 495 411 L 491 419 L 489 421 L 489 434 L 491 438 L 496 442 L 504 445 L 506 442 L 506 437 L 509 434 L 510 431 L 513 430 L 514 431 L 514 437 L 510 441 L 511 442 L 512 441 L 515 441 L 518 444 L 523 455 L 529 460 L 532 461 L 539 461 L 541 460 L 544 457 L 545 447 L 549 442 L 553 445 L 554 457 L 555 458 L 562 457 L 568 453 L 571 449 L 572 446 L 571 432 L 574 430 L 578 435 L 579 441 L 582 442 L 585 439 L 588 431 L 588 424 L 589 423 L 588 405 L 587 404 L 587 400 L 586 399 L 585 392 L 578 378 L 580 376 L 582 376 L 583 374 L 582 373 L 581 367 L 574 357 L 576 354 L 581 354 L 582 352 L 575 344 L 564 337 L 560 332 L 560 330 L 563 328 L 565 325 L 562 322 L 552 318 L 545 312 L 549 307 L 546 304 L 537 300 L 524 298 L 522 296 L 523 291 L 519 288 L 511 287 L 510 286 L 499 286 L 497 284 L 498 280 L 491 277 L 488 277 L 487 276 L 461 276 L 460 275 L 445 276 L 444 275 L 444 273 L 450 267 L 458 262 L 463 257 L 467 251 L 471 240 L 471 234 L 473 232 L 476 235 L 478 234 L 479 232 L 479 215 L 478 213 L 480 211 L 485 215 L 487 214 L 487 207 L 480 192 L 480 190 L 482 188 L 487 191 L 490 189 L 485 179 L 476 169 L 477 166 L 485 167 L 486 166 L 486 163 L 483 159 L 472 152 L 472 150 L 474 148 L 474 145 L 466 135 L 461 124 L 455 116 L 455 114 L 466 104 L 470 95 L 470 81 L 465 71 L 455 61 Z M 280 571 L 281 572 L 283 582 L 281 587 L 278 589 L 277 588 L 277 581 L 278 580 L 278 572 Z M 170 343 L 172 341 L 176 341 L 178 343 L 180 343 L 184 348 L 183 349 L 182 348 L 178 348 L 175 346 L 171 345 Z M 249 339 L 250 341 L 245 351 L 243 352 L 242 351 L 243 345 L 244 343 Z M 147 321 L 148 320 L 151 320 L 153 322 L 150 324 L 148 323 Z M 126 293 L 128 291 L 133 296 L 131 298 Z M 443 57 L 449 59 L 456 63 L 464 71 L 469 80 L 469 84 L 470 85 L 470 93 L 464 105 L 461 108 L 453 113 L 453 116 L 460 124 L 468 140 L 472 145 L 472 147 L 469 151 L 474 155 L 480 158 L 485 163 L 483 166 L 475 166 L 474 169 L 484 179 L 489 188 L 487 190 L 482 187 L 479 188 L 479 192 L 484 201 L 486 207 L 486 211 L 484 213 L 481 210 L 478 210 L 477 211 L 477 214 L 478 215 L 478 230 L 476 232 L 473 229 L 471 230 L 470 233 L 470 241 L 466 251 L 464 254 L 461 256 L 459 254 L 459 249 L 456 247 L 454 252 L 443 267 L 442 267 L 439 263 L 437 264 L 432 273 L 427 278 L 427 282 L 433 282 L 437 279 L 439 279 L 442 277 L 472 277 L 473 276 L 485 276 L 494 279 L 496 281 L 494 284 L 496 286 L 505 286 L 506 287 L 513 287 L 514 288 L 520 289 L 522 291 L 520 294 L 520 297 L 526 299 L 532 299 L 544 304 L 547 307 L 545 309 L 543 309 L 542 312 L 551 318 L 557 320 L 563 325 L 559 329 L 560 334 L 574 344 L 579 350 L 579 352 L 578 353 L 575 353 L 573 355 L 573 357 L 579 364 L 581 368 L 581 372 L 579 374 L 577 374 L 576 377 L 580 385 L 583 388 L 586 397 L 587 415 L 588 416 L 587 431 L 585 437 L 582 440 L 580 440 L 577 431 L 575 429 L 572 428 L 570 431 L 571 448 L 566 454 L 562 456 L 556 457 L 554 455 L 554 445 L 553 442 L 550 440 L 548 440 L 545 444 L 543 457 L 541 459 L 538 460 L 530 459 L 523 453 L 518 442 L 516 440 L 515 437 L 515 428 L 513 426 L 510 428 L 510 430 L 501 441 L 495 439 L 491 435 L 489 430 L 489 424 L 492 417 L 495 413 L 495 405 L 491 396 L 491 392 L 489 388 L 487 374 L 484 370 L 482 371 L 479 370 L 477 362 L 475 360 L 472 362 L 471 368 L 470 369 L 468 369 L 461 362 L 449 362 L 453 367 L 452 369 L 449 369 L 440 365 L 435 365 L 434 366 L 434 369 L 437 374 L 449 385 L 453 385 L 456 389 L 454 392 L 451 392 L 449 395 L 451 397 L 455 398 L 462 407 L 463 407 L 466 403 L 469 403 L 470 404 L 471 413 L 474 417 L 475 432 L 477 437 L 477 449 L 480 457 L 484 461 L 487 460 L 490 462 L 495 462 L 497 461 L 499 464 L 502 464 L 504 466 L 509 468 L 511 470 L 511 475 L 509 477 L 504 476 L 501 478 L 492 478 L 485 470 L 480 470 L 479 471 L 478 486 L 476 489 L 473 490 L 473 493 L 472 494 L 472 505 L 469 513 L 465 517 L 461 518 L 460 521 L 456 526 L 453 534 L 451 536 L 449 534 L 449 530 L 448 530 L 447 535 L 443 541 L 441 540 L 441 530 L 439 531 L 437 537 L 435 551 L 432 557 L 426 566 L 415 577 L 410 585 L 410 587 L 395 604 L 391 613 L 391 618 L 390 619 L 391 625 L 389 631 L 387 633 L 387 635 L 382 640 L 379 646 L 379 648 L 375 651 L 375 656 L 374 657 L 374 660 L 375 661 L 374 665 L 375 666 L 371 671 L 371 673 L 372 674 L 373 673 L 374 674 L 377 674 L 378 673 L 381 675 L 383 672 L 386 672 L 387 675 L 385 676 L 385 678 L 382 682 L 376 684 L 373 684 L 372 685 L 345 686 L 344 687 L 305 685 L 304 684 L 301 684 L 297 681 L 297 678 L 302 666 L 300 663 L 296 663 L 291 667 L 288 674 L 288 678 L 286 680 L 274 678 L 269 674 L 269 669 L 277 656 L 276 654 L 270 654 L 266 656 L 262 660 L 259 667 L 259 670 L 255 673 L 250 668 L 250 660 L 251 657 L 259 648 L 271 642 L 278 642 L 279 641 L 292 641 L 293 642 L 296 642 L 297 643 L 300 643 L 309 646 L 315 646 L 316 647 L 322 647 L 323 646 L 320 642 L 318 642 L 316 640 L 304 636 L 300 636 L 294 634 L 292 632 L 292 629 L 291 628 L 291 599 L 292 598 L 292 590 L 295 582 L 300 576 L 300 572 L 298 569 L 304 562 L 308 559 L 315 556 L 318 553 L 318 552 L 315 550 L 315 548 L 321 542 L 351 522 L 353 522 L 360 518 L 363 518 L 366 516 L 369 516 L 381 511 L 388 511 L 390 513 L 392 512 L 386 508 L 384 508 L 381 506 L 377 506 L 376 505 L 373 506 L 366 506 L 365 507 L 361 507 L 360 508 L 357 508 L 351 510 L 337 517 L 330 523 L 326 525 L 317 533 L 307 540 L 292 556 L 290 556 L 287 553 L 286 550 L 283 549 L 276 542 L 274 538 L 271 535 L 269 535 L 268 536 L 268 544 L 269 545 L 269 548 L 275 554 L 274 555 L 271 554 L 266 549 L 265 541 L 263 539 L 262 536 L 252 526 L 250 527 L 250 529 L 248 531 L 246 529 L 238 517 L 238 514 L 236 510 L 236 504 L 235 503 L 236 494 L 234 492 L 229 499 L 227 498 L 227 491 L 228 490 L 228 485 L 229 484 L 231 473 L 229 472 L 223 478 L 220 476 L 221 469 L 224 460 L 227 455 L 228 450 L 226 449 L 222 452 L 219 452 L 218 451 L 218 448 L 221 442 L 227 435 L 231 428 L 231 425 L 230 424 L 225 426 L 223 426 L 221 424 L 222 421 L 236 405 L 235 402 L 231 402 L 229 400 L 230 398 L 240 387 L 247 383 L 258 371 L 257 368 L 254 368 L 243 378 L 242 377 L 241 369 L 246 360 L 245 352 L 247 349 L 248 345 L 251 341 L 251 338 L 248 337 L 245 340 L 242 345 L 241 349 L 238 352 L 229 352 L 228 351 L 217 350 L 214 346 L 222 339 L 221 337 L 210 337 L 209 336 L 206 336 L 200 331 L 197 332 L 189 332 L 186 331 L 184 329 L 184 327 L 187 324 L 189 324 L 191 322 L 190 320 L 173 316 L 155 307 L 150 302 L 134 290 L 116 271 L 115 273 L 120 281 L 117 282 L 111 274 L 104 260 L 104 258 L 101 253 L 98 244 L 93 240 L 90 239 L 75 227 L 69 221 L 59 206 L 59 200 L 63 195 L 72 195 L 74 193 L 78 193 L 84 195 L 87 194 L 90 190 L 90 185 L 89 183 L 81 174 L 78 173 L 76 171 L 71 171 L 69 173 L 68 176 L 66 177 L 64 172 L 65 169 L 70 164 L 75 164 L 81 167 L 91 177 L 93 177 L 94 175 L 104 176 L 107 173 L 108 171 L 108 164 L 103 154 L 99 150 L 94 148 L 90 148 L 87 152 L 85 151 L 85 147 L 90 141 L 96 141 L 105 148 L 109 154 L 111 160 L 115 167 L 119 165 L 122 168 L 127 170 L 132 170 L 134 168 L 135 165 L 135 156 L 133 150 L 130 146 L 126 143 L 123 142 L 120 143 L 118 141 L 122 136 L 126 136 L 132 141 L 138 152 L 142 164 L 144 164 L 147 161 L 148 158 L 153 153 L 159 153 L 164 158 L 166 162 L 166 181 L 165 182 L 164 189 L 162 192 L 162 197 L 174 210 L 187 228 L 190 231 L 193 231 L 196 227 L 199 230 L 199 232 L 204 239 L 206 244 L 213 253 L 216 252 L 216 248 L 219 244 L 224 249 L 229 262 L 232 265 L 234 262 L 234 260 L 237 259 L 240 262 L 244 271 L 248 275 L 250 274 L 250 270 L 252 268 L 259 275 L 267 288 L 270 290 L 274 287 L 275 284 L 273 278 L 264 265 L 258 259 L 255 258 L 252 255 L 249 246 L 247 247 L 247 249 L 245 251 L 243 251 L 241 249 L 239 244 L 239 232 L 240 229 L 238 226 L 236 226 L 233 229 L 230 226 L 230 220 L 231 219 L 231 216 L 234 207 L 233 206 L 229 208 L 226 208 L 225 207 L 228 197 L 230 195 L 233 188 L 232 187 L 225 188 L 223 185 L 235 171 L 234 161 L 243 143 L 243 139 L 242 138 L 236 136 L 227 128 L 223 118 L 223 109 L 224 108 L 225 102 L 229 94 L 238 86 L 244 83 L 246 83 L 249 81 L 259 81 L 269 86 L 274 92 L 279 96 L 291 87 L 303 83 L 309 76 L 325 77 L 327 75 L 327 71 L 325 68 L 327 65 L 331 65 L 337 68 L 343 73 L 345 73 L 354 64 L 358 62 L 361 64 L 358 72 L 359 74 L 365 72 L 381 72 L 382 73 L 386 73 L 387 74 L 398 76 L 404 79 L 407 79 L 409 77 L 409 75 L 412 69 L 421 61 L 430 57 Z M 448 48 L 444 48 L 443 47 L 431 47 L 430 48 L 423 49 L 409 57 L 401 67 L 395 65 L 392 65 L 391 64 L 387 64 L 386 63 L 372 63 L 369 60 L 368 57 L 362 52 L 355 53 L 349 56 L 344 61 L 333 55 L 324 55 L 321 56 L 318 59 L 316 66 L 314 68 L 308 68 L 302 70 L 296 74 L 287 78 L 282 82 L 279 81 L 276 78 L 267 73 L 260 72 L 259 71 L 245 72 L 233 77 L 226 82 L 219 90 L 215 98 L 214 104 L 213 105 L 213 109 L 212 110 L 213 122 L 217 132 L 219 135 L 231 146 L 224 160 L 224 163 L 223 164 L 224 170 L 217 177 L 214 182 L 214 192 L 218 196 L 218 199 L 216 202 L 216 212 L 221 218 L 221 221 L 220 222 L 221 230 L 219 232 L 214 234 L 209 230 L 207 225 L 201 217 L 199 216 L 192 216 L 188 212 L 182 203 L 174 195 L 173 192 L 176 183 L 176 172 L 177 169 L 176 168 L 176 160 L 171 150 L 166 145 L 161 143 L 154 143 L 148 146 L 146 146 L 144 144 L 140 135 L 132 128 L 126 126 L 119 127 L 113 130 L 108 136 L 106 136 L 96 131 L 88 131 L 82 134 L 78 138 L 75 144 L 75 152 L 72 155 L 66 155 L 61 158 L 55 167 L 54 178 L 57 183 L 57 186 L 52 191 L 49 196 L 49 207 L 54 219 L 61 228 L 69 236 L 89 252 L 92 262 L 102 281 L 115 298 L 123 306 L 133 314 L 133 321 L 135 325 L 145 334 L 153 338 L 155 338 L 158 341 L 159 347 L 162 351 L 172 356 L 181 358 L 185 362 L 186 365 L 191 369 L 202 372 L 208 378 L 216 382 L 221 383 L 226 387 L 220 396 L 220 399 L 219 400 L 219 406 L 220 409 L 214 416 L 211 422 L 211 429 L 214 433 L 214 436 L 212 438 L 208 446 L 208 458 L 212 464 L 211 476 L 210 478 L 211 479 L 211 485 L 213 489 L 216 492 L 218 506 L 226 516 L 227 521 L 232 531 L 239 541 L 257 557 L 258 561 L 261 564 L 261 567 L 262 568 L 262 578 L 263 579 L 263 589 L 265 594 L 267 607 L 271 616 L 276 622 L 279 630 L 277 633 L 263 634 L 253 638 L 249 641 L 242 649 L 237 659 L 237 671 L 239 676 L 249 685 L 262 690 L 265 690 L 266 691 L 269 691 L 270 692 L 273 692 L 282 695 L 286 695 L 287 696 L 305 697 L 306 698 L 320 698 L 321 699 L 351 698 L 352 697 L 367 697 L 368 696 L 382 695 L 393 691 L 400 684 L 403 678 L 405 672 L 405 668 L 406 667 L 406 656 L 408 653 L 409 647 L 410 646 L 410 638 L 415 633 L 417 633 L 420 631 L 425 631 L 430 634 L 436 636 L 448 636 L 449 635 L 460 634 L 471 628 L 481 619 L 483 616 L 484 610 L 486 607 L 486 603 L 487 602 L 487 578 L 486 577 L 486 566 L 490 559 L 501 545 L 502 542 L 514 524 L 517 521 L 522 519 L 526 516 L 537 504 L 542 494 L 542 482 L 540 476 L 543 473 L 547 471 L 550 471 L 554 469 L 563 469 L 564 468 L 567 468 L 579 458 L 588 454 L 593 449 L 599 436 L 600 428 L 601 427 L 601 409 L 600 408 L 600 404 L 598 399 L 599 377 L 596 371 L 594 365 L 594 362 L 592 358 L 591 347 L 587 340 L 576 331 L 577 324 L 576 323 L 576 319 L 575 317 L 571 313 L 563 310 L 559 306 L 558 302 L 554 297 L 544 292 L 541 292 L 536 290 L 530 283 L 518 278 L 510 277 L 502 271 L 494 268 L 484 267 L 483 266 L 474 266 L 472 264 L 473 261 L 477 256 L 481 246 L 487 239 L 488 236 L 488 226 L 491 224 L 496 218 L 497 215 L 497 206 L 495 200 L 499 195 L 499 186 L 495 177 L 493 175 L 493 172 L 496 169 L 496 162 L 494 158 L 484 149 L 483 143 L 481 139 L 477 134 L 473 125 L 468 119 L 468 117 L 476 107 L 480 97 L 481 87 L 480 86 L 480 80 L 478 74 L 474 66 L 466 57 L 459 52 L 457 52 Z M 448 49 L 462 55 L 473 66 L 478 75 L 479 81 L 480 82 L 480 96 L 476 104 L 476 106 L 467 116 L 467 119 L 471 123 L 475 132 L 480 139 L 483 145 L 484 150 L 494 159 L 496 163 L 496 167 L 492 172 L 492 174 L 495 178 L 499 188 L 499 194 L 495 199 L 495 203 L 497 208 L 496 216 L 494 220 L 488 225 L 487 237 L 485 241 L 480 246 L 477 255 L 471 262 L 471 266 L 480 266 L 481 267 L 487 267 L 488 268 L 495 269 L 504 273 L 508 277 L 523 280 L 529 283 L 536 291 L 552 296 L 557 301 L 559 307 L 562 310 L 568 313 L 570 313 L 575 318 L 576 321 L 576 328 L 575 330 L 587 341 L 591 348 L 591 355 L 592 356 L 595 371 L 598 377 L 597 395 L 598 396 L 598 402 L 599 403 L 600 411 L 601 412 L 601 424 L 600 425 L 600 430 L 599 431 L 598 438 L 595 445 L 588 453 L 581 457 L 579 457 L 569 466 L 560 469 L 552 469 L 546 472 L 543 472 L 539 475 L 541 481 L 542 489 L 541 490 L 541 495 L 538 501 L 533 508 L 527 514 L 520 519 L 517 520 L 513 524 L 510 530 L 505 536 L 503 541 L 500 544 L 496 551 L 488 560 L 485 566 L 486 569 L 486 582 L 487 583 L 487 598 L 486 599 L 485 609 L 481 617 L 467 630 L 463 631 L 461 633 L 458 634 L 451 634 L 446 636 L 439 636 L 438 635 L 434 635 L 426 630 L 419 631 L 416 633 L 412 634 L 410 636 L 410 639 L 409 640 L 409 649 L 406 653 L 406 662 L 405 663 L 405 670 L 404 671 L 403 677 L 400 683 L 393 690 L 385 694 L 376 695 L 375 696 L 367 696 L 366 697 L 351 697 L 350 698 L 307 698 L 306 697 L 296 697 L 295 696 L 283 695 L 282 694 L 267 691 L 263 689 L 260 689 L 247 683 L 239 675 L 238 669 L 237 668 L 237 662 L 242 650 L 252 640 L 261 635 L 264 635 L 265 634 L 274 634 L 279 632 L 279 627 L 278 626 L 278 621 L 277 620 L 277 608 L 276 608 L 275 612 L 273 613 L 270 610 L 268 606 L 268 603 L 266 599 L 266 596 L 263 587 L 262 566 L 258 557 L 239 540 L 237 536 L 232 530 L 227 520 L 225 513 L 218 505 L 217 494 L 216 491 L 213 488 L 211 484 L 212 463 L 208 457 L 208 448 L 210 442 L 215 435 L 211 428 L 211 424 L 214 417 L 220 410 L 219 402 L 222 394 L 226 389 L 226 385 L 223 383 L 213 380 L 201 371 L 198 371 L 190 368 L 182 358 L 168 354 L 163 351 L 159 346 L 158 340 L 156 338 L 154 338 L 142 331 L 135 324 L 133 313 L 125 307 L 114 296 L 102 280 L 93 263 L 90 252 L 70 236 L 62 228 L 54 218 L 50 210 L 50 207 L 49 206 L 49 198 L 52 192 L 58 186 L 57 182 L 55 179 L 55 169 L 57 164 L 63 157 L 69 155 L 74 155 L 75 154 L 76 143 L 78 139 L 85 133 L 88 132 L 97 132 L 102 134 L 105 137 L 108 137 L 111 133 L 117 128 L 120 127 L 128 127 L 131 128 L 140 136 L 143 141 L 144 145 L 146 147 L 148 147 L 152 144 L 156 144 L 158 143 L 166 146 L 172 152 L 176 162 L 176 180 L 175 181 L 175 186 L 173 190 L 173 195 L 182 204 L 191 216 L 198 216 L 203 220 L 211 234 L 213 235 L 219 233 L 220 234 L 222 233 L 221 230 L 221 217 L 218 214 L 216 210 L 216 204 L 219 198 L 219 195 L 217 194 L 214 190 L 214 184 L 217 178 L 224 171 L 224 162 L 232 146 L 219 134 L 215 127 L 213 121 L 213 106 L 219 91 L 227 82 L 233 78 L 244 73 L 247 73 L 248 72 L 260 72 L 261 73 L 267 74 L 273 77 L 279 82 L 282 83 L 290 77 L 306 69 L 315 69 L 317 67 L 317 62 L 318 60 L 323 56 L 333 56 L 341 61 L 345 61 L 352 55 L 358 53 L 362 53 L 364 54 L 367 57 L 370 63 L 373 64 L 375 63 L 382 63 L 383 64 L 388 64 L 389 65 L 392 65 L 393 66 L 396 66 L 402 68 L 407 60 L 410 57 L 420 51 L 429 48 L 444 48 L 445 49 Z" fill="#B1B1B1" fill-rule="evenodd"/><path d="M 249 340 L 248 340 L 245 343 L 244 347 L 243 348 L 243 351 L 244 351 Z M 267 179 L 267 182 L 266 183 L 266 195 L 269 201 L 275 207 L 281 210 L 283 210 L 287 213 L 287 217 L 288 218 L 288 222 L 289 223 L 289 225 L 296 239 L 299 242 L 302 247 L 315 260 L 320 263 L 322 263 L 323 262 L 315 253 L 313 249 L 313 241 L 316 236 L 325 227 L 326 227 L 328 225 L 336 221 L 342 220 L 343 219 L 350 219 L 351 220 L 353 220 L 357 222 L 364 229 L 365 231 L 364 239 L 357 254 L 358 255 L 360 253 L 366 242 L 366 240 L 368 236 L 368 233 L 369 232 L 369 229 L 370 228 L 370 222 L 371 221 L 371 197 L 370 196 L 370 191 L 369 190 L 369 188 L 367 186 L 364 186 L 361 191 L 357 195 L 356 195 L 351 199 L 349 199 L 346 201 L 344 201 L 338 204 L 335 204 L 334 205 L 323 205 L 322 204 L 317 204 L 316 203 L 312 203 L 311 202 L 308 202 L 307 201 L 300 201 L 293 206 L 291 206 L 290 207 L 284 207 L 283 206 L 279 205 L 273 199 L 271 195 L 271 192 L 270 191 L 270 188 L 271 187 L 271 177 L 270 176 Z M 325 168 L 322 165 L 315 161 L 312 161 L 311 160 L 305 160 L 304 159 L 302 159 L 301 160 L 295 160 L 294 161 L 292 161 L 291 162 L 289 162 L 282 165 L 277 171 L 277 176 L 280 181 L 289 189 L 300 191 L 301 190 L 305 190 L 306 189 L 308 189 L 314 186 L 320 181 L 321 181 L 321 180 L 325 175 Z M 285 139 L 281 139 L 278 142 L 276 146 L 276 148 L 275 149 L 275 159 L 277 161 L 281 161 L 283 159 L 284 159 L 286 157 L 288 153 L 288 150 L 289 149 L 289 147 L 288 146 L 288 142 Z M 364 134 L 361 138 L 360 144 L 359 145 L 359 150 L 360 151 L 360 154 L 364 159 L 371 159 L 374 155 L 374 153 L 375 152 L 375 141 L 373 137 L 370 134 Z M 293 102 L 292 101 L 287 101 L 283 103 L 277 109 L 277 112 L 278 113 L 280 113 L 286 108 L 291 106 L 293 104 Z M 364 93 L 364 95 L 365 96 L 373 98 L 380 102 L 383 102 L 384 101 L 383 97 L 380 94 L 376 92 L 374 92 L 373 91 L 366 91 Z M 448 50 L 445 50 L 444 49 L 429 49 L 428 50 L 425 50 L 422 52 L 420 52 L 410 58 L 402 69 L 400 69 L 396 67 L 393 67 L 392 66 L 389 66 L 388 65 L 383 65 L 382 64 L 375 64 L 374 65 L 370 64 L 368 62 L 366 57 L 364 55 L 362 54 L 358 54 L 357 55 L 354 55 L 352 56 L 345 62 L 341 62 L 333 57 L 323 57 L 319 60 L 318 62 L 318 67 L 315 70 L 306 70 L 290 78 L 282 84 L 279 83 L 273 78 L 267 75 L 261 74 L 260 73 L 248 73 L 247 74 L 244 74 L 233 79 L 231 81 L 227 83 L 220 91 L 217 97 L 217 99 L 214 106 L 214 121 L 215 122 L 216 127 L 220 134 L 233 146 L 225 162 L 225 171 L 218 178 L 215 184 L 215 190 L 216 192 L 220 195 L 220 198 L 217 204 L 217 210 L 219 214 L 222 217 L 222 230 L 223 231 L 223 233 L 220 235 L 219 234 L 218 235 L 215 235 L 214 236 L 211 235 L 207 230 L 202 220 L 198 217 L 191 217 L 187 213 L 187 212 L 184 209 L 181 204 L 172 195 L 172 190 L 174 186 L 174 181 L 175 180 L 175 162 L 174 161 L 174 158 L 171 152 L 166 147 L 162 145 L 159 145 L 158 144 L 156 145 L 152 145 L 150 147 L 146 148 L 143 145 L 142 141 L 139 136 L 133 130 L 131 129 L 129 129 L 128 128 L 120 128 L 119 129 L 117 129 L 115 131 L 114 131 L 108 138 L 105 138 L 102 135 L 98 134 L 97 133 L 88 133 L 87 134 L 85 134 L 79 139 L 77 143 L 77 146 L 76 147 L 76 154 L 74 156 L 69 156 L 68 157 L 65 157 L 63 158 L 58 164 L 57 168 L 56 169 L 56 179 L 58 182 L 59 186 L 53 192 L 50 198 L 50 206 L 51 207 L 51 210 L 55 218 L 63 227 L 63 228 L 70 235 L 71 235 L 76 240 L 77 240 L 81 244 L 86 247 L 91 252 L 92 258 L 94 261 L 94 263 L 103 280 L 105 282 L 107 286 L 115 295 L 115 296 L 125 306 L 126 306 L 134 313 L 135 315 L 135 322 L 136 324 L 142 330 L 143 330 L 148 334 L 154 337 L 156 337 L 159 340 L 160 346 L 163 350 L 168 353 L 182 357 L 186 361 L 187 364 L 190 367 L 197 369 L 198 370 L 201 370 L 208 376 L 211 377 L 213 379 L 215 379 L 218 381 L 223 382 L 227 385 L 227 389 L 223 394 L 221 398 L 221 401 L 220 402 L 221 410 L 215 417 L 212 424 L 212 428 L 216 434 L 215 437 L 211 442 L 211 444 L 209 448 L 209 457 L 211 461 L 213 463 L 213 470 L 212 471 L 212 484 L 214 488 L 217 491 L 217 493 L 218 494 L 218 501 L 219 502 L 219 505 L 220 507 L 226 513 L 228 520 L 233 530 L 238 536 L 240 540 L 259 557 L 263 566 L 264 587 L 265 588 L 265 592 L 267 596 L 267 599 L 269 603 L 269 606 L 271 610 L 273 612 L 274 612 L 274 610 L 276 607 L 278 608 L 278 620 L 279 621 L 280 632 L 278 634 L 275 634 L 274 635 L 265 635 L 264 636 L 261 636 L 252 641 L 243 650 L 239 658 L 239 661 L 238 662 L 238 668 L 239 669 L 240 675 L 247 682 L 250 683 L 252 685 L 254 685 L 260 688 L 263 688 L 267 690 L 270 690 L 271 691 L 274 691 L 275 692 L 278 692 L 279 693 L 282 693 L 283 694 L 295 695 L 296 696 L 306 696 L 307 697 L 350 697 L 351 696 L 366 696 L 367 695 L 375 695 L 376 694 L 381 694 L 382 693 L 385 693 L 393 689 L 399 683 L 402 677 L 403 671 L 404 670 L 405 653 L 408 649 L 408 640 L 409 639 L 409 636 L 412 633 L 416 632 L 419 630 L 422 630 L 423 629 L 426 629 L 428 631 L 434 634 L 438 634 L 439 635 L 446 635 L 447 634 L 450 634 L 451 633 L 458 633 L 459 632 L 461 632 L 463 630 L 467 629 L 480 617 L 484 609 L 484 606 L 485 605 L 485 599 L 486 598 L 486 583 L 485 582 L 485 569 L 484 568 L 484 566 L 487 560 L 498 547 L 499 544 L 502 541 L 504 536 L 509 530 L 512 524 L 517 519 L 520 518 L 526 513 L 527 513 L 532 508 L 532 507 L 537 501 L 540 495 L 540 490 L 541 489 L 541 487 L 540 486 L 540 481 L 539 480 L 538 475 L 541 472 L 543 471 L 546 471 L 552 468 L 560 468 L 561 467 L 565 467 L 569 465 L 579 456 L 581 456 L 588 452 L 594 445 L 597 438 L 597 435 L 598 434 L 598 431 L 599 430 L 599 425 L 600 424 L 600 412 L 599 411 L 599 407 L 598 406 L 598 403 L 597 402 L 597 396 L 596 395 L 596 389 L 597 388 L 597 377 L 594 371 L 594 368 L 593 367 L 593 364 L 592 363 L 592 360 L 591 359 L 591 356 L 590 355 L 590 348 L 586 341 L 584 339 L 583 339 L 574 330 L 575 328 L 575 321 L 574 320 L 574 318 L 570 314 L 568 314 L 562 311 L 558 307 L 556 301 L 552 297 L 545 295 L 544 294 L 542 294 L 541 293 L 539 293 L 538 292 L 536 292 L 529 284 L 520 280 L 508 278 L 504 274 L 495 270 L 492 270 L 491 269 L 488 269 L 487 268 L 481 268 L 480 267 L 471 267 L 470 266 L 470 262 L 476 255 L 479 246 L 484 241 L 486 237 L 486 233 L 487 232 L 487 225 L 493 220 L 495 216 L 496 208 L 495 207 L 495 204 L 494 203 L 494 199 L 498 194 L 498 188 L 497 187 L 497 184 L 491 174 L 491 172 L 495 167 L 495 163 L 493 159 L 483 150 L 482 148 L 482 145 L 479 139 L 474 132 L 470 123 L 466 119 L 466 116 L 475 106 L 475 104 L 479 96 L 479 82 L 478 81 L 477 75 L 472 66 L 462 56 Z M 475 575 L 475 577 L 476 578 L 476 597 L 475 598 L 475 605 L 474 606 L 473 610 L 468 614 L 468 616 L 466 618 L 464 616 L 465 612 L 464 610 L 462 608 L 461 608 L 454 616 L 450 616 L 449 617 L 445 618 L 444 619 L 443 623 L 441 625 L 433 625 L 425 621 L 419 621 L 418 622 L 416 622 L 415 621 L 421 615 L 425 608 L 440 593 L 441 593 L 449 587 L 451 587 L 457 582 L 463 579 L 465 577 L 468 576 L 470 574 L 473 573 Z M 527 467 L 532 471 L 532 484 L 531 485 L 531 489 L 528 495 L 528 497 L 526 499 L 524 503 L 521 506 L 519 506 L 518 504 L 521 497 L 521 493 L 522 492 L 522 488 L 523 487 L 522 470 L 525 467 Z M 446 56 L 455 60 L 466 71 L 467 74 L 470 78 L 470 80 L 471 81 L 471 95 L 470 96 L 470 98 L 467 104 L 456 114 L 456 116 L 459 121 L 462 124 L 467 135 L 469 137 L 471 141 L 475 145 L 475 148 L 473 150 L 473 152 L 483 158 L 487 163 L 487 166 L 485 168 L 477 167 L 477 169 L 486 179 L 491 189 L 488 192 L 482 189 L 481 190 L 481 192 L 484 197 L 484 199 L 488 207 L 488 214 L 486 216 L 485 216 L 480 212 L 479 213 L 480 215 L 480 232 L 479 234 L 477 236 L 476 236 L 473 233 L 472 234 L 472 240 L 471 241 L 471 244 L 468 251 L 466 253 L 464 257 L 458 263 L 450 268 L 445 273 L 445 275 L 460 274 L 461 275 L 487 275 L 488 276 L 491 276 L 499 280 L 499 282 L 498 283 L 499 285 L 510 285 L 511 286 L 519 287 L 524 291 L 524 293 L 523 294 L 523 296 L 524 297 L 528 297 L 529 298 L 537 299 L 540 301 L 542 301 L 546 303 L 550 307 L 546 311 L 546 312 L 552 317 L 558 320 L 562 321 L 566 325 L 566 326 L 561 330 L 561 332 L 564 336 L 575 343 L 582 350 L 583 353 L 581 355 L 576 355 L 575 357 L 582 367 L 583 373 L 584 374 L 584 375 L 582 377 L 580 377 L 579 378 L 586 392 L 586 394 L 587 395 L 587 399 L 588 400 L 588 404 L 589 405 L 589 413 L 590 414 L 589 431 L 588 432 L 586 439 L 582 443 L 580 443 L 578 441 L 577 435 L 576 433 L 574 431 L 573 431 L 572 432 L 572 441 L 573 442 L 573 446 L 572 447 L 572 449 L 568 454 L 567 454 L 562 458 L 555 459 L 553 457 L 553 450 L 552 449 L 552 445 L 550 443 L 549 443 L 546 447 L 546 453 L 545 454 L 545 457 L 541 461 L 539 462 L 532 462 L 531 461 L 529 461 L 522 455 L 517 444 L 515 442 L 512 442 L 511 443 L 509 441 L 513 437 L 513 431 L 511 431 L 510 434 L 507 437 L 507 442 L 504 446 L 496 443 L 490 438 L 488 434 L 488 421 L 490 419 L 494 411 L 494 407 L 492 404 L 492 402 L 489 395 L 489 392 L 488 391 L 488 387 L 487 386 L 487 382 L 486 381 L 486 377 L 484 374 L 479 374 L 478 375 L 476 373 L 476 367 L 475 366 L 474 366 L 474 373 L 475 374 L 474 376 L 473 376 L 464 368 L 460 368 L 460 372 L 458 374 L 454 372 L 451 372 L 448 370 L 446 370 L 440 367 L 436 367 L 437 371 L 443 377 L 445 377 L 452 381 L 457 382 L 460 384 L 465 385 L 473 389 L 479 395 L 479 398 L 480 399 L 480 401 L 481 402 L 481 406 L 482 407 L 482 411 L 479 417 L 479 431 L 480 432 L 480 435 L 485 444 L 491 451 L 492 451 L 495 454 L 501 457 L 506 461 L 511 463 L 513 465 L 513 467 L 514 468 L 514 482 L 510 485 L 510 487 L 509 488 L 510 492 L 509 493 L 508 506 L 506 509 L 506 512 L 504 515 L 504 517 L 493 539 L 487 546 L 487 547 L 473 560 L 472 560 L 466 565 L 455 569 L 449 574 L 439 580 L 436 583 L 435 583 L 432 586 L 427 589 L 416 601 L 416 602 L 410 608 L 408 608 L 406 611 L 405 619 L 402 623 L 401 622 L 400 623 L 400 626 L 399 627 L 399 644 L 395 649 L 395 669 L 394 670 L 392 677 L 387 682 L 380 685 L 377 685 L 376 686 L 371 686 L 370 687 L 355 687 L 354 688 L 325 688 L 324 687 L 311 687 L 310 686 L 303 686 L 302 685 L 299 685 L 295 682 L 296 676 L 300 668 L 300 666 L 299 665 L 295 665 L 291 670 L 291 672 L 290 673 L 290 680 L 288 682 L 279 681 L 278 680 L 275 680 L 272 678 L 270 678 L 267 674 L 268 668 L 270 666 L 271 663 L 273 661 L 275 657 L 274 656 L 269 656 L 263 661 L 260 668 L 260 673 L 258 675 L 256 675 L 252 673 L 249 670 L 248 668 L 248 662 L 249 661 L 250 656 L 252 654 L 252 653 L 261 645 L 269 641 L 276 641 L 277 640 L 296 640 L 297 641 L 304 642 L 311 645 L 317 645 L 318 644 L 313 641 L 295 636 L 290 632 L 290 627 L 289 626 L 289 604 L 290 603 L 290 595 L 291 594 L 291 589 L 298 574 L 296 570 L 296 568 L 306 559 L 315 554 L 315 552 L 313 552 L 311 550 L 311 549 L 317 543 L 323 540 L 337 529 L 338 529 L 343 525 L 348 523 L 350 521 L 356 518 L 370 514 L 375 511 L 378 511 L 380 510 L 380 508 L 378 507 L 369 507 L 368 508 L 364 508 L 363 509 L 360 509 L 359 510 L 356 510 L 355 511 L 350 512 L 342 516 L 340 518 L 330 524 L 326 528 L 325 528 L 322 531 L 321 531 L 318 534 L 313 537 L 308 542 L 307 542 L 291 559 L 290 563 L 286 569 L 286 572 L 285 573 L 285 576 L 284 577 L 284 583 L 281 589 L 280 595 L 279 596 L 279 602 L 278 603 L 276 602 L 276 567 L 278 563 L 272 556 L 271 556 L 258 543 L 257 543 L 251 537 L 250 537 L 242 527 L 237 518 L 237 516 L 235 512 L 235 508 L 234 507 L 234 496 L 233 496 L 231 501 L 229 503 L 228 503 L 226 501 L 226 499 L 225 498 L 225 495 L 226 494 L 226 487 L 227 486 L 227 482 L 228 481 L 228 476 L 227 476 L 223 480 L 221 480 L 219 478 L 219 472 L 220 471 L 220 468 L 221 467 L 221 465 L 222 464 L 222 462 L 223 461 L 223 459 L 225 456 L 226 452 L 225 451 L 221 454 L 218 454 L 216 452 L 216 449 L 217 448 L 218 444 L 220 442 L 222 438 L 226 434 L 229 428 L 228 426 L 226 427 L 222 427 L 220 425 L 220 422 L 225 416 L 225 415 L 233 407 L 234 405 L 233 404 L 229 404 L 227 402 L 229 397 L 237 388 L 237 384 L 238 383 L 238 380 L 240 376 L 240 368 L 244 361 L 244 356 L 243 355 L 240 355 L 238 357 L 233 366 L 232 372 L 229 376 L 221 375 L 220 374 L 215 373 L 213 371 L 213 369 L 214 368 L 213 366 L 211 365 L 204 365 L 203 364 L 198 364 L 196 363 L 194 361 L 194 359 L 196 357 L 196 356 L 194 354 L 191 354 L 190 353 L 188 353 L 187 352 L 185 352 L 178 349 L 175 349 L 169 346 L 167 344 L 167 341 L 168 340 L 173 339 L 173 337 L 169 335 L 167 335 L 164 333 L 157 331 L 155 329 L 147 325 L 142 320 L 142 319 L 144 317 L 150 317 L 150 315 L 145 311 L 142 310 L 139 307 L 138 307 L 122 292 L 122 291 L 117 286 L 117 285 L 109 274 L 102 260 L 102 258 L 100 255 L 100 253 L 97 246 L 94 243 L 91 242 L 79 232 L 78 232 L 66 220 L 66 219 L 61 213 L 58 207 L 58 204 L 57 203 L 58 199 L 63 193 L 70 193 L 71 192 L 64 179 L 64 177 L 63 176 L 63 170 L 69 163 L 73 162 L 74 163 L 77 163 L 81 165 L 83 167 L 84 167 L 90 174 L 91 174 L 91 172 L 88 168 L 86 164 L 85 159 L 84 158 L 84 146 L 90 139 L 94 139 L 101 142 L 108 149 L 115 163 L 116 163 L 116 160 L 115 159 L 116 157 L 116 142 L 117 141 L 117 139 L 121 135 L 127 135 L 134 141 L 135 144 L 138 148 L 138 150 L 140 153 L 140 156 L 141 157 L 142 161 L 144 161 L 152 152 L 154 151 L 158 151 L 160 152 L 165 157 L 167 161 L 167 164 L 168 165 L 167 185 L 166 186 L 165 191 L 163 194 L 163 196 L 175 209 L 175 210 L 179 214 L 179 215 L 186 223 L 186 224 L 191 229 L 192 229 L 193 227 L 195 225 L 196 225 L 200 229 L 208 244 L 213 250 L 215 250 L 216 244 L 218 242 L 220 242 L 224 246 L 227 252 L 229 259 L 231 261 L 233 259 L 233 258 L 235 256 L 236 256 L 241 261 L 242 264 L 244 266 L 244 268 L 247 272 L 249 270 L 249 267 L 251 265 L 253 266 L 262 276 L 262 277 L 266 282 L 267 285 L 269 287 L 272 287 L 273 286 L 273 282 L 263 266 L 258 261 L 254 260 L 251 257 L 250 253 L 248 250 L 245 253 L 243 253 L 240 250 L 237 243 L 237 232 L 238 230 L 236 229 L 234 231 L 231 231 L 229 229 L 229 220 L 230 219 L 230 215 L 231 214 L 232 209 L 230 209 L 228 211 L 226 211 L 224 209 L 224 203 L 226 200 L 227 196 L 230 192 L 230 189 L 226 189 L 224 190 L 221 187 L 221 186 L 222 185 L 222 183 L 225 180 L 225 179 L 227 177 L 228 177 L 233 171 L 232 162 L 242 142 L 242 141 L 240 139 L 238 139 L 234 137 L 226 129 L 222 120 L 222 115 L 221 114 L 221 112 L 222 111 L 222 106 L 223 105 L 224 100 L 228 93 L 237 85 L 247 80 L 252 80 L 253 79 L 255 79 L 256 80 L 261 80 L 269 84 L 276 91 L 277 93 L 280 93 L 283 90 L 286 89 L 293 84 L 297 83 L 298 82 L 301 82 L 307 75 L 325 75 L 326 73 L 323 66 L 326 63 L 331 63 L 337 66 L 343 71 L 345 71 L 351 64 L 359 60 L 360 60 L 362 62 L 361 71 L 367 71 L 368 70 L 381 70 L 382 71 L 391 72 L 392 73 L 406 77 L 408 75 L 408 73 L 411 68 L 417 62 L 418 62 L 423 58 L 425 58 L 428 56 L 431 56 L 432 55 L 442 55 L 443 56 Z" fill="#010101" fill-rule="evenodd"/></svg>