<svg xmlns="http://www.w3.org/2000/svg" viewBox="0 0 653 704" shape-rendering="geometricPrecision"><title>intro frame 089</title><path d="M 469 512 L 458 521 L 452 523 L 445 530 L 441 527 L 439 531 L 433 538 L 429 536 L 421 545 L 418 544 L 415 545 L 411 550 L 404 556 L 399 566 L 395 570 L 390 579 L 388 590 L 389 590 L 392 594 L 392 597 L 391 598 L 391 608 L 394 608 L 396 611 L 396 615 L 395 616 L 395 628 L 399 627 L 402 630 L 402 636 L 403 637 L 403 646 L 400 655 L 400 667 L 402 671 L 406 675 L 410 677 L 413 677 L 417 679 L 425 680 L 426 681 L 435 681 L 436 680 L 436 665 L 440 659 L 445 659 L 447 661 L 449 667 L 449 681 L 450 682 L 468 682 L 469 681 L 469 675 L 468 674 L 468 660 L 470 658 L 475 658 L 479 662 L 481 666 L 481 669 L 482 670 L 482 680 L 483 681 L 484 680 L 491 680 L 495 678 L 494 658 L 497 655 L 501 656 L 506 662 L 508 668 L 508 675 L 510 676 L 515 670 L 516 667 L 516 661 L 515 660 L 515 655 L 511 648 L 506 644 L 499 641 L 495 638 L 488 638 L 486 640 L 478 640 L 477 639 L 458 639 L 457 640 L 451 640 L 450 641 L 447 641 L 446 640 L 435 640 L 434 639 L 435 637 L 438 637 L 441 635 L 451 634 L 452 633 L 458 633 L 459 632 L 480 632 L 484 634 L 481 627 L 481 622 L 483 616 L 486 613 L 488 614 L 490 619 L 490 623 L 491 623 L 492 621 L 491 617 L 488 614 L 488 612 L 484 603 L 486 602 L 489 605 L 491 605 L 492 604 L 492 600 L 485 595 L 481 594 L 473 588 L 465 580 L 465 579 L 468 577 L 478 582 L 484 584 L 488 584 L 487 580 L 474 565 L 474 564 L 477 562 L 488 569 L 486 559 L 480 553 L 476 552 L 472 549 L 473 547 L 484 547 L 484 545 L 477 539 L 477 536 L 479 535 L 486 538 L 486 536 L 479 529 L 473 516 Z M 444 583 L 445 583 L 452 591 L 456 599 L 454 602 L 453 602 L 446 595 L 445 592 L 443 590 L 442 585 Z M 435 582 L 436 583 L 436 589 L 433 593 L 431 593 L 430 590 L 432 584 Z M 408 562 L 410 564 L 410 567 L 408 572 L 404 575 L 402 573 L 402 571 L 404 566 Z M 228 508 L 228 510 L 223 518 L 223 520 L 226 519 L 228 521 L 228 525 L 222 538 L 223 539 L 224 538 L 227 538 L 229 541 L 222 561 L 222 567 L 227 566 L 229 568 L 227 574 L 227 581 L 229 583 L 229 594 L 231 598 L 232 609 L 235 617 L 235 620 L 239 624 L 243 624 L 244 625 L 251 626 L 254 628 L 256 628 L 259 632 L 257 634 L 252 634 L 243 631 L 225 631 L 224 632 L 220 632 L 214 634 L 205 640 L 202 646 L 200 659 L 203 665 L 205 665 L 205 659 L 207 655 L 207 652 L 213 646 L 217 645 L 220 648 L 220 653 L 218 656 L 217 666 L 218 668 L 221 670 L 228 671 L 229 670 L 229 662 L 231 659 L 232 655 L 237 650 L 241 650 L 244 653 L 244 657 L 242 661 L 242 667 L 241 668 L 241 671 L 244 673 L 266 673 L 267 672 L 273 672 L 277 668 L 282 666 L 286 662 L 289 662 L 294 656 L 294 650 L 295 649 L 294 647 L 288 642 L 287 638 L 289 634 L 292 635 L 293 631 L 295 629 L 297 629 L 294 622 L 294 618 L 297 615 L 297 610 L 295 608 L 294 604 L 286 596 L 285 594 L 285 588 L 288 587 L 291 592 L 294 594 L 295 592 L 292 589 L 292 587 L 296 583 L 277 563 L 264 542 L 261 539 L 259 539 L 254 534 L 250 527 L 245 522 L 238 518 L 235 515 L 234 512 L 230 508 Z M 257 582 L 259 584 L 257 587 L 255 585 Z M 267 575 L 270 578 L 270 580 L 274 586 L 274 588 L 272 590 L 268 587 L 266 583 L 265 577 Z M 281 572 L 282 573 L 282 581 L 281 583 L 279 584 L 278 583 L 278 575 L 279 573 Z M 248 567 L 250 569 L 249 571 L 243 577 L 242 577 L 240 574 L 247 567 Z M 61 169 L 61 175 L 63 179 L 66 182 L 65 176 L 63 174 L 62 169 Z M 74 134 L 77 138 L 80 140 L 81 139 L 78 136 Z M 449 16 L 446 16 L 445 15 L 433 15 L 432 16 L 429 16 L 427 18 L 425 18 L 418 23 L 413 29 L 411 34 L 411 37 L 408 40 L 397 36 L 392 36 L 391 35 L 382 34 L 381 33 L 366 33 L 362 35 L 359 35 L 357 33 L 357 30 L 359 25 L 357 24 L 355 25 L 347 34 L 344 34 L 338 30 L 329 27 L 328 29 L 331 33 L 331 37 L 329 39 L 314 39 L 313 40 L 310 40 L 306 45 L 298 47 L 282 58 L 281 58 L 271 47 L 262 43 L 252 43 L 246 45 L 238 50 L 231 58 L 227 69 L 227 79 L 228 80 L 228 83 L 231 87 L 231 89 L 236 94 L 242 98 L 245 98 L 248 100 L 247 108 L 244 113 L 244 115 L 241 120 L 239 126 L 241 131 L 241 134 L 230 146 L 230 148 L 237 147 L 239 149 L 239 152 L 232 165 L 232 168 L 237 167 L 239 169 L 239 173 L 237 178 L 236 190 L 238 191 L 241 188 L 243 188 L 245 190 L 244 204 L 247 212 L 248 213 L 250 209 L 253 208 L 256 212 L 256 216 L 258 220 L 263 220 L 270 229 L 287 237 L 295 245 L 295 249 L 293 251 L 279 243 L 277 248 L 275 250 L 272 250 L 266 244 L 264 244 L 257 237 L 256 237 L 255 241 L 252 243 L 248 240 L 242 229 L 240 227 L 239 230 L 236 233 L 234 233 L 230 229 L 226 221 L 222 216 L 221 216 L 220 221 L 218 223 L 216 223 L 210 217 L 202 202 L 200 200 L 197 202 L 194 202 L 186 194 L 180 185 L 162 165 L 162 159 L 165 150 L 165 134 L 163 135 L 163 141 L 160 149 L 156 153 L 148 153 L 143 147 L 143 144 L 142 143 L 143 141 L 143 135 L 138 130 L 134 137 L 130 140 L 125 140 L 122 138 L 117 138 L 115 137 L 110 131 L 109 140 L 105 144 L 101 146 L 98 146 L 96 148 L 91 148 L 91 151 L 92 152 L 91 154 L 91 158 L 88 162 L 85 163 L 74 163 L 73 164 L 74 166 L 80 167 L 84 171 L 84 175 L 85 176 L 88 174 L 91 165 L 95 161 L 98 156 L 109 147 L 111 147 L 120 143 L 126 143 L 129 145 L 133 146 L 143 155 L 146 161 L 146 164 L 147 165 L 147 175 L 145 178 L 145 180 L 137 188 L 131 192 L 110 203 L 102 203 L 101 202 L 97 202 L 95 201 L 85 190 L 84 186 L 81 188 L 76 188 L 70 185 L 68 185 L 71 191 L 75 195 L 76 195 L 83 202 L 95 210 L 99 214 L 102 220 L 103 225 L 105 227 L 105 229 L 107 231 L 107 233 L 115 247 L 115 245 L 118 243 L 131 257 L 137 262 L 144 266 L 148 270 L 151 271 L 158 277 L 169 282 L 191 286 L 194 289 L 194 291 L 191 294 L 188 295 L 188 297 L 191 298 L 205 297 L 211 301 L 225 302 L 227 304 L 227 306 L 219 311 L 219 312 L 221 313 L 234 313 L 238 310 L 241 303 L 248 296 L 253 294 L 256 297 L 254 305 L 246 321 L 246 326 L 243 335 L 244 336 L 254 327 L 260 323 L 263 323 L 265 326 L 255 341 L 247 349 L 238 354 L 230 365 L 231 367 L 234 367 L 237 371 L 221 391 L 222 392 L 223 391 L 228 391 L 230 393 L 230 396 L 223 406 L 216 420 L 216 422 L 218 422 L 220 420 L 222 420 L 224 422 L 224 425 L 219 439 L 217 450 L 221 447 L 223 448 L 222 472 L 223 473 L 226 470 L 228 472 L 229 483 L 231 489 L 233 490 L 233 489 L 235 488 L 240 495 L 240 497 L 243 495 L 246 498 L 248 505 L 251 510 L 256 507 L 265 521 L 269 519 L 278 529 L 281 526 L 283 526 L 292 536 L 294 534 L 296 534 L 302 540 L 301 536 L 291 520 L 288 511 L 288 506 L 289 505 L 292 506 L 293 510 L 296 514 L 296 516 L 305 528 L 314 537 L 319 538 L 323 533 L 325 533 L 327 536 L 330 538 L 345 524 L 347 524 L 348 525 L 348 528 L 343 538 L 343 541 L 345 543 L 349 539 L 353 537 L 363 529 L 365 529 L 367 531 L 367 533 L 362 543 L 365 543 L 370 541 L 374 537 L 384 522 L 388 519 L 390 522 L 389 523 L 389 527 L 387 533 L 390 528 L 394 514 L 396 512 L 399 514 L 400 517 L 400 524 L 397 533 L 398 535 L 409 523 L 417 507 L 419 505 L 421 505 L 423 507 L 423 513 L 421 519 L 418 524 L 419 525 L 425 520 L 432 511 L 436 499 L 440 494 L 442 495 L 442 502 L 441 503 L 441 509 L 442 509 L 446 505 L 448 500 L 450 498 L 451 492 L 453 488 L 457 485 L 459 487 L 459 489 L 460 489 L 462 483 L 462 480 L 464 477 L 464 464 L 466 461 L 466 457 L 467 456 L 466 451 L 464 449 L 464 445 L 466 443 L 469 444 L 470 443 L 469 438 L 463 430 L 463 427 L 464 426 L 467 429 L 469 430 L 470 429 L 469 427 L 465 424 L 462 426 L 457 420 L 455 415 L 457 414 L 463 419 L 466 420 L 468 417 L 468 414 L 462 407 L 456 404 L 450 404 L 447 403 L 445 401 L 445 398 L 446 397 L 454 397 L 455 398 L 458 398 L 462 401 L 465 402 L 466 401 L 462 393 L 460 391 L 460 389 L 457 383 L 455 381 L 456 378 L 460 380 L 461 379 L 453 372 L 445 362 L 447 360 L 454 364 L 457 364 L 457 361 L 455 359 L 455 357 L 448 351 L 437 350 L 434 349 L 430 345 L 432 343 L 438 343 L 439 344 L 442 344 L 444 346 L 451 349 L 451 346 L 448 340 L 444 335 L 445 332 L 448 332 L 449 333 L 450 332 L 448 327 L 448 325 L 450 323 L 459 334 L 462 340 L 462 342 L 472 357 L 472 360 L 474 362 L 479 372 L 482 383 L 484 386 L 487 395 L 487 398 L 488 399 L 488 402 L 489 403 L 489 406 L 492 415 L 492 419 L 494 424 L 494 430 L 497 439 L 496 441 L 496 445 L 494 448 L 492 454 L 492 457 L 491 458 L 491 471 L 495 479 L 499 482 L 503 482 L 506 479 L 510 469 L 513 466 L 515 466 L 519 470 L 519 479 L 517 485 L 512 493 L 512 495 L 514 498 L 520 501 L 526 501 L 528 500 L 532 495 L 537 484 L 540 481 L 542 481 L 545 484 L 545 493 L 541 502 L 542 503 L 545 503 L 546 502 L 549 502 L 555 497 L 556 493 L 559 488 L 559 485 L 564 479 L 566 479 L 569 483 L 569 492 L 570 492 L 575 486 L 580 473 L 581 463 L 582 462 L 582 444 L 581 443 L 581 438 L 579 432 L 581 430 L 583 431 L 583 427 L 580 420 L 578 410 L 572 400 L 572 398 L 574 396 L 578 398 L 578 396 L 563 374 L 565 372 L 568 372 L 569 373 L 571 373 L 571 372 L 565 365 L 560 357 L 552 348 L 553 345 L 562 346 L 548 332 L 547 332 L 533 319 L 535 316 L 538 316 L 539 317 L 544 317 L 544 316 L 533 307 L 524 302 L 519 298 L 519 295 L 521 293 L 525 293 L 524 291 L 522 291 L 514 287 L 505 280 L 507 277 L 515 277 L 515 276 L 512 275 L 500 266 L 490 262 L 487 259 L 487 257 L 489 255 L 493 255 L 492 253 L 490 253 L 471 244 L 467 244 L 462 242 L 453 243 L 452 246 L 449 249 L 446 250 L 443 247 L 428 247 L 427 246 L 423 249 L 418 249 L 416 247 L 416 241 L 415 241 L 408 249 L 408 251 L 405 254 L 402 253 L 403 247 L 405 243 L 414 235 L 418 235 L 418 233 L 423 227 L 426 229 L 426 233 L 427 234 L 429 232 L 429 226 L 430 223 L 432 221 L 433 221 L 435 224 L 438 223 L 438 220 L 439 219 L 438 217 L 438 213 L 441 211 L 445 214 L 445 210 L 448 205 L 451 202 L 454 203 L 454 200 L 446 192 L 448 190 L 451 190 L 459 194 L 460 193 L 460 189 L 456 183 L 458 181 L 461 181 L 464 183 L 467 182 L 467 179 L 462 172 L 463 171 L 467 171 L 468 168 L 460 159 L 462 156 L 471 159 L 477 166 L 478 165 L 480 167 L 479 169 L 480 171 L 482 169 L 486 169 L 488 171 L 489 170 L 487 162 L 482 154 L 481 150 L 484 147 L 486 147 L 489 149 L 492 148 L 490 144 L 477 130 L 477 127 L 479 125 L 488 125 L 488 124 L 484 120 L 478 117 L 473 112 L 473 110 L 476 107 L 476 105 L 472 100 L 462 82 L 456 76 L 456 72 L 458 70 L 463 68 L 467 64 L 472 55 L 472 51 L 473 50 L 472 38 L 469 32 L 462 24 Z M 284 515 L 286 514 L 288 518 L 286 519 L 284 517 Z M 428 495 L 430 496 L 430 500 L 429 501 L 427 500 L 427 496 Z M 412 495 L 413 496 L 413 503 L 411 505 L 409 502 L 409 499 L 410 496 Z M 408 490 L 409 489 L 412 493 L 410 494 Z M 269 488 L 272 490 L 273 494 L 279 505 L 280 512 L 278 514 L 272 509 L 272 507 L 270 504 L 269 498 L 268 497 L 268 489 Z M 272 464 L 273 465 L 273 469 L 271 474 L 269 475 L 268 474 L 268 469 L 270 465 Z M 436 454 L 440 457 L 445 467 L 446 472 L 448 475 L 448 479 L 449 480 L 447 483 L 442 483 L 440 487 L 440 490 L 438 492 L 433 492 L 429 489 L 429 483 L 430 481 L 426 474 L 426 471 L 428 470 L 434 477 L 436 475 L 436 464 L 434 459 L 434 456 Z M 258 441 L 260 443 L 260 445 L 258 449 L 257 455 L 255 458 L 255 461 L 251 466 L 248 463 L 249 454 L 254 444 Z M 412 423 L 413 422 L 416 422 L 419 424 L 429 423 L 431 425 L 431 427 L 429 429 L 424 429 L 425 431 L 423 433 L 420 433 L 414 427 Z M 257 417 L 258 420 L 252 428 L 251 432 L 249 434 L 245 434 L 243 432 L 245 426 L 248 421 L 254 417 Z M 426 402 L 429 401 L 431 403 L 442 408 L 449 415 L 449 417 L 448 418 L 441 418 L 439 417 L 438 420 L 440 422 L 440 424 L 438 426 L 433 420 L 432 411 Z M 421 394 L 423 392 L 429 392 L 431 395 L 429 397 L 424 397 Z M 434 386 L 436 384 L 438 384 L 443 391 L 441 393 L 437 392 L 434 389 Z M 438 369 L 445 370 L 447 372 L 447 378 L 444 381 L 441 381 L 438 378 L 438 376 L 435 372 Z M 384 370 L 387 368 L 393 371 L 402 378 L 407 379 L 408 380 L 408 385 L 407 386 L 403 385 L 397 379 L 389 374 L 387 374 Z M 409 366 L 411 364 L 414 367 L 417 368 L 420 372 L 417 375 L 410 377 L 408 374 L 409 372 Z M 533 355 L 535 354 L 540 357 L 541 359 L 540 360 L 536 359 Z M 432 329 L 435 327 L 437 329 L 437 331 L 435 332 Z M 423 325 L 426 324 L 429 325 L 430 327 L 427 328 L 424 327 Z M 429 311 L 432 313 L 436 320 L 436 322 L 434 324 L 428 316 L 427 313 Z M 371 312 L 374 311 L 376 314 L 376 316 L 373 317 L 371 315 Z M 377 311 L 380 309 L 387 315 L 389 315 L 390 312 L 392 311 L 393 314 L 392 317 L 390 319 L 388 318 L 383 318 L 377 312 Z M 316 309 L 319 306 L 322 307 L 320 310 L 317 310 Z M 432 297 L 434 298 L 437 302 L 435 305 L 430 301 L 430 299 Z M 418 293 L 421 297 L 421 302 L 423 304 L 424 308 L 421 311 L 419 315 L 417 317 L 414 318 L 411 314 L 419 309 L 419 301 L 415 297 Z M 383 292 L 386 294 L 387 299 L 390 305 L 389 307 L 386 305 L 380 297 L 380 295 Z M 311 291 L 312 294 L 310 297 L 306 300 L 305 299 L 306 295 Z M 419 288 L 421 289 L 421 292 L 420 293 L 418 292 L 418 289 Z M 257 272 L 259 275 L 255 280 L 256 280 L 258 283 L 252 288 L 250 288 L 249 286 L 251 283 L 251 277 Z M 258 264 L 262 261 L 266 261 L 268 263 L 268 264 L 264 267 L 262 267 Z M 417 259 L 418 260 L 417 263 L 413 265 L 410 263 L 413 260 Z M 263 253 L 265 251 L 267 251 L 270 254 L 268 256 L 265 256 Z M 398 244 L 398 248 L 397 250 L 391 256 L 391 257 L 380 267 L 377 268 L 364 278 L 359 278 L 355 280 L 347 279 L 336 273 L 325 265 L 317 256 L 317 253 L 320 250 L 326 250 L 332 252 L 355 252 L 356 251 L 361 251 L 362 250 L 366 250 L 367 249 L 371 249 L 372 248 L 379 247 L 388 243 L 396 242 Z M 384 128 L 391 120 L 397 118 L 400 118 L 401 117 L 413 117 L 414 118 L 419 118 L 427 121 L 434 128 L 436 135 L 434 140 L 427 146 L 420 147 L 419 148 L 411 148 L 410 147 L 400 146 L 390 141 L 384 134 Z M 306 111 L 312 106 L 317 104 L 330 104 L 338 107 L 342 111 L 342 113 L 340 115 L 336 115 L 331 113 L 320 112 L 319 113 L 314 113 L 308 115 L 306 113 Z M 287 98 L 292 98 L 297 103 L 298 106 L 298 113 L 297 114 L 297 117 L 295 119 L 294 122 L 296 121 L 300 121 L 301 120 L 318 120 L 327 123 L 330 125 L 336 132 L 336 137 L 334 142 L 325 151 L 312 157 L 300 157 L 291 153 L 284 146 L 283 143 L 281 144 L 280 156 L 284 163 L 290 167 L 299 167 L 306 162 L 315 162 L 316 163 L 320 163 L 326 165 L 341 165 L 353 161 L 362 156 L 366 152 L 368 147 L 371 144 L 374 144 L 380 151 L 381 154 L 381 161 L 382 162 L 382 182 L 381 183 L 381 190 L 378 198 L 378 201 L 370 217 L 361 226 L 352 232 L 349 232 L 344 234 L 337 234 L 331 232 L 323 228 L 310 216 L 298 199 L 293 189 L 292 183 L 291 182 L 291 178 L 282 174 L 272 164 L 269 155 L 269 150 L 270 149 L 269 148 L 259 159 L 256 160 L 249 160 L 247 159 L 241 152 L 242 144 L 248 137 L 258 132 L 268 132 L 274 138 L 275 137 L 279 137 L 280 138 L 280 133 L 284 127 L 283 127 L 278 121 L 278 111 L 281 103 Z M 371 91 L 378 91 L 384 97 L 386 103 L 386 113 L 383 120 L 380 123 L 377 123 L 376 124 L 369 122 L 366 119 L 363 112 L 363 103 L 365 97 Z M 303 63 L 303 67 L 299 71 L 293 73 L 285 79 L 283 79 L 279 75 L 279 71 L 281 68 L 289 61 L 293 59 L 298 59 Z M 258 57 L 263 59 L 271 67 L 271 68 L 265 75 L 259 85 L 253 91 L 250 91 L 241 83 L 239 77 L 239 72 L 241 67 L 247 60 L 251 58 Z M 363 53 L 369 48 L 376 48 L 379 50 L 381 50 L 390 58 L 390 64 L 386 67 L 383 67 L 376 62 L 370 60 L 366 60 L 363 57 Z M 439 30 L 444 30 L 451 33 L 456 38 L 460 45 L 460 55 L 459 57 L 449 66 L 442 62 L 434 54 L 428 51 L 424 47 L 426 40 L 433 33 Z" fill="#FBFBFB" fill-rule="evenodd"/><path d="M 219 651 L 216 660 L 216 668 L 220 671 L 229 672 L 230 671 L 230 663 L 231 660 L 230 662 L 230 670 L 228 672 L 221 671 L 219 670 L 216 666 L 217 656 L 219 653 Z M 457 634 L 441 636 L 438 638 L 435 638 L 435 639 L 446 639 L 447 640 L 450 640 L 448 640 L 446 638 L 449 635 Z M 444 584 L 443 585 L 444 590 L 446 592 L 447 595 L 453 601 L 454 601 L 455 599 L 451 591 L 448 587 Z M 435 583 L 433 584 L 431 592 L 433 592 L 435 589 Z M 267 576 L 266 577 L 267 583 L 269 587 L 272 589 L 273 586 L 269 580 L 269 578 Z M 281 573 L 280 573 L 279 575 L 279 583 L 280 583 L 281 581 Z M 247 568 L 241 574 L 242 576 L 248 571 L 249 569 Z M 408 563 L 404 568 L 403 571 L 404 574 L 405 574 L 408 570 L 409 567 L 409 564 Z M 412 496 L 411 496 L 410 499 L 411 504 L 412 503 Z M 269 489 L 269 497 L 270 498 L 271 504 L 273 507 L 273 509 L 278 513 L 279 512 L 278 505 L 272 494 L 271 490 Z M 271 495 L 274 497 L 276 501 L 276 503 L 278 506 L 277 509 L 273 506 L 271 502 L 271 499 L 270 498 Z M 575 487 L 573 490 L 569 493 L 568 492 L 568 483 L 566 480 L 564 480 L 560 485 L 560 488 L 557 493 L 556 497 L 549 503 L 542 504 L 540 502 L 542 498 L 540 503 L 541 504 L 546 504 L 552 502 L 556 498 L 559 492 L 561 484 L 564 481 L 566 481 L 568 483 L 568 491 L 567 492 L 567 495 L 568 495 Z M 272 465 L 271 465 L 269 469 L 269 474 L 270 474 L 271 472 Z M 437 455 L 435 456 L 435 459 L 437 464 L 437 475 L 434 478 L 432 475 L 427 471 L 427 474 L 431 481 L 430 483 L 430 489 L 433 491 L 438 491 L 441 483 L 442 482 L 447 482 L 448 480 L 447 479 L 447 475 L 445 472 L 444 467 L 439 457 Z M 437 458 L 439 459 L 442 465 L 443 471 L 441 473 L 438 470 L 438 466 L 436 460 Z M 216 448 L 216 453 L 220 450 L 222 452 L 222 460 L 222 448 L 218 451 L 216 450 Z M 258 442 L 255 444 L 250 454 L 249 463 L 251 465 L 254 461 L 254 458 L 257 452 L 257 449 L 259 445 Z M 255 449 L 256 451 L 255 454 L 253 455 L 252 452 L 253 450 Z M 413 423 L 415 427 L 420 432 L 423 432 L 424 431 L 423 430 L 424 428 L 429 428 L 430 427 L 429 424 L 419 425 L 416 423 Z M 257 418 L 254 418 L 249 421 L 246 426 L 244 432 L 245 433 L 249 433 L 250 432 L 250 430 L 254 423 L 257 420 Z M 427 402 L 433 411 L 434 420 L 438 425 L 439 422 L 437 420 L 437 418 L 439 416 L 441 417 L 448 417 L 448 415 L 442 409 L 431 404 L 429 402 Z M 435 410 L 438 409 L 440 412 L 437 413 Z M 422 394 L 424 396 L 429 396 L 430 395 L 429 393 L 423 393 Z M 436 385 L 435 386 L 435 389 L 437 391 L 441 392 L 442 391 L 439 386 Z M 438 370 L 436 372 L 439 376 L 439 378 L 441 380 L 444 380 L 446 378 L 446 372 L 445 371 Z M 385 370 L 387 373 L 389 373 L 397 378 L 403 384 L 407 385 L 407 380 L 402 379 L 396 374 L 387 369 Z M 411 365 L 410 366 L 410 372 L 409 373 L 410 376 L 417 374 L 419 372 L 417 369 L 414 368 Z M 450 324 L 449 327 L 451 332 L 449 334 L 448 333 L 445 333 L 445 335 L 449 340 L 452 346 L 452 349 L 450 350 L 442 345 L 439 345 L 438 344 L 432 344 L 431 345 L 434 348 L 437 349 L 448 350 L 456 357 L 456 359 L 458 361 L 458 364 L 457 365 L 454 365 L 447 361 L 446 362 L 454 372 L 462 379 L 460 381 L 456 379 L 456 381 L 458 383 L 461 389 L 461 391 L 463 393 L 467 401 L 465 403 L 458 399 L 455 399 L 454 398 L 446 398 L 446 401 L 450 403 L 456 403 L 462 406 L 469 414 L 469 417 L 466 421 L 463 420 L 457 415 L 456 415 L 456 416 L 462 425 L 465 423 L 470 427 L 471 429 L 469 431 L 464 427 L 464 430 L 470 438 L 471 443 L 469 445 L 468 444 L 465 445 L 465 449 L 467 451 L 468 456 L 467 457 L 467 461 L 465 464 L 465 477 L 463 480 L 463 483 L 461 489 L 459 490 L 457 486 L 454 488 L 452 492 L 451 498 L 449 500 L 447 505 L 442 510 L 440 509 L 440 503 L 441 502 L 441 495 L 440 495 L 437 499 L 433 511 L 426 520 L 419 526 L 417 524 L 420 519 L 422 513 L 422 507 L 421 506 L 418 507 L 410 523 L 398 536 L 396 533 L 399 524 L 399 517 L 398 514 L 396 513 L 391 528 L 387 534 L 386 531 L 389 522 L 388 520 L 385 522 L 380 529 L 379 532 L 370 542 L 365 544 L 362 544 L 361 543 L 366 533 L 366 531 L 363 530 L 360 533 L 349 540 L 345 544 L 342 541 L 342 538 L 347 528 L 347 525 L 345 525 L 330 539 L 329 539 L 325 534 L 323 534 L 319 539 L 316 539 L 304 528 L 295 516 L 295 514 L 293 512 L 291 506 L 289 506 L 289 511 L 292 520 L 303 538 L 302 541 L 296 535 L 294 535 L 292 537 L 283 527 L 281 527 L 278 530 L 269 520 L 265 522 L 256 508 L 251 511 L 247 505 L 245 498 L 243 496 L 240 498 L 235 489 L 234 489 L 233 491 L 230 489 L 228 483 L 227 472 L 226 471 L 223 474 L 221 472 L 221 462 L 221 475 L 222 476 L 225 473 L 227 475 L 228 478 L 228 484 L 235 500 L 235 504 L 233 506 L 229 505 L 227 507 L 227 509 L 221 521 L 225 521 L 227 523 L 227 525 L 223 532 L 223 534 L 220 540 L 221 541 L 224 539 L 226 539 L 227 540 L 227 544 L 228 540 L 227 539 L 224 539 L 223 540 L 221 538 L 227 525 L 227 521 L 226 520 L 223 521 L 222 518 L 224 516 L 227 510 L 227 508 L 230 507 L 235 512 L 236 515 L 245 521 L 251 527 L 255 534 L 265 542 L 278 563 L 297 583 L 293 587 L 293 589 L 296 592 L 294 595 L 290 592 L 288 588 L 286 588 L 286 594 L 287 596 L 295 604 L 296 608 L 298 610 L 298 615 L 295 618 L 295 622 L 298 629 L 294 631 L 294 633 L 292 636 L 289 635 L 288 638 L 289 642 L 292 644 L 296 649 L 295 650 L 295 656 L 294 658 L 289 663 L 286 663 L 282 667 L 277 669 L 273 673 L 267 673 L 266 674 L 244 674 L 241 672 L 243 674 L 269 674 L 270 673 L 278 673 L 279 672 L 287 672 L 288 671 L 293 671 L 294 670 L 300 670 L 301 669 L 306 669 L 307 668 L 311 668 L 317 666 L 323 661 L 325 657 L 325 638 L 324 637 L 324 628 L 326 626 L 330 628 L 331 625 L 331 612 L 330 611 L 329 596 L 331 594 L 335 597 L 336 596 L 336 584 L 339 575 L 337 573 L 334 573 L 322 569 L 317 566 L 315 566 L 308 560 L 308 558 L 310 556 L 314 555 L 329 560 L 333 560 L 334 561 L 338 561 L 344 563 L 353 563 L 354 564 L 375 563 L 380 561 L 384 562 L 386 564 L 386 568 L 383 571 L 380 572 L 379 574 L 382 579 L 384 585 L 385 594 L 390 593 L 391 594 L 391 597 L 390 592 L 387 590 L 388 582 L 392 573 L 398 566 L 403 556 L 408 552 L 415 544 L 417 543 L 421 544 L 429 535 L 433 537 L 441 526 L 445 529 L 452 522 L 458 520 L 469 511 L 474 516 L 480 529 L 487 536 L 486 539 L 478 536 L 478 539 L 485 545 L 484 548 L 473 548 L 473 549 L 476 551 L 480 552 L 487 559 L 488 565 L 489 566 L 489 569 L 488 570 L 477 563 L 476 563 L 475 565 L 488 580 L 489 584 L 488 585 L 484 585 L 467 578 L 466 580 L 473 587 L 481 593 L 485 594 L 487 596 L 490 597 L 493 600 L 493 604 L 491 606 L 489 606 L 485 603 L 489 612 L 489 614 L 488 615 L 486 614 L 484 616 L 482 622 L 482 627 L 485 633 L 484 635 L 480 633 L 459 633 L 477 633 L 478 634 L 484 635 L 486 637 L 484 639 L 478 639 L 486 639 L 488 637 L 495 637 L 499 640 L 506 643 L 510 646 L 514 651 L 516 655 L 516 660 L 517 661 L 517 667 L 516 670 L 510 677 L 507 675 L 507 668 L 506 665 L 507 668 L 507 676 L 510 677 L 514 674 L 517 668 L 516 655 L 512 648 L 509 645 L 499 640 L 496 637 L 496 635 L 500 630 L 500 626 L 502 620 L 502 615 L 503 614 L 503 588 L 501 582 L 504 579 L 504 577 L 500 569 L 502 567 L 508 569 L 504 560 L 504 558 L 501 553 L 501 551 L 496 543 L 498 540 L 500 540 L 506 544 L 507 543 L 503 535 L 502 530 L 499 525 L 499 521 L 501 519 L 503 520 L 504 519 L 504 515 L 503 514 L 502 505 L 500 502 L 500 498 L 491 494 L 483 486 L 480 481 L 478 475 L 478 469 L 477 468 L 478 465 L 478 456 L 481 449 L 481 446 L 483 443 L 483 436 L 482 435 L 482 431 L 480 426 L 480 421 L 479 420 L 478 411 L 476 407 L 476 402 L 470 384 L 468 381 L 467 376 L 463 369 L 463 367 L 459 361 L 453 347 L 453 345 L 456 342 L 457 342 L 464 349 L 470 360 L 472 362 L 483 386 L 485 392 L 485 395 L 487 399 L 488 406 L 489 407 L 489 409 L 486 395 L 483 386 L 481 383 L 480 377 L 473 362 L 471 360 L 471 357 L 461 342 L 461 340 L 458 334 Z M 489 614 L 492 617 L 493 620 L 491 624 L 489 623 L 489 619 L 488 618 L 488 615 Z M 362 533 L 363 536 L 362 538 L 360 539 L 359 536 Z M 270 522 L 283 537 L 284 539 L 282 541 L 281 541 L 274 534 L 269 527 L 268 524 Z M 397 518 L 398 519 L 398 524 L 397 525 L 397 528 L 395 529 L 394 528 L 394 522 L 395 519 Z M 259 515 L 269 528 L 267 530 L 261 525 L 260 522 L 258 520 L 257 517 Z M 293 514 L 297 519 L 300 525 L 306 531 L 306 534 L 305 535 L 301 532 L 294 522 L 292 518 L 292 515 Z M 421 508 L 422 510 L 421 511 L 420 518 L 417 524 L 414 526 L 412 523 L 415 519 L 415 516 L 418 511 L 418 509 Z M 243 500 L 246 501 L 246 503 L 249 508 L 251 514 L 249 517 L 246 514 L 244 510 L 243 504 L 242 503 Z M 263 324 L 258 325 L 244 337 L 242 335 L 244 328 L 244 330 L 241 336 L 240 343 L 238 347 L 238 352 L 228 367 L 229 369 L 233 368 L 235 370 L 235 372 L 220 391 L 221 393 L 227 392 L 229 394 L 229 396 L 223 405 L 229 396 L 229 393 L 228 392 L 223 392 L 222 393 L 220 391 L 236 371 L 234 368 L 231 368 L 229 365 L 238 353 L 247 348 L 254 341 L 264 326 Z M 261 325 L 262 326 L 261 330 L 251 343 L 247 346 L 246 343 L 252 336 L 251 333 L 258 326 Z M 429 312 L 428 313 L 429 316 L 434 323 L 435 320 L 431 313 Z M 372 312 L 372 315 L 375 316 L 374 312 Z M 378 311 L 383 317 L 388 317 L 389 318 L 391 317 L 392 312 L 391 312 L 391 314 L 389 316 L 387 316 L 380 310 Z M 523 300 L 533 306 L 545 316 L 544 318 L 535 317 L 534 319 L 547 331 L 548 331 L 563 346 L 562 347 L 553 346 L 553 348 L 561 357 L 566 365 L 572 372 L 571 374 L 568 373 L 565 373 L 564 374 L 579 396 L 578 399 L 575 397 L 573 398 L 573 400 L 577 406 L 579 412 L 579 410 L 574 401 L 576 399 L 580 400 L 580 398 L 566 377 L 567 374 L 573 375 L 573 373 L 553 348 L 555 346 L 561 347 L 562 348 L 565 347 L 546 329 L 535 320 L 537 317 L 539 318 L 546 318 L 546 317 L 533 306 Z M 138 299 L 144 305 L 156 311 L 159 314 L 161 320 L 164 323 L 171 326 L 179 327 L 183 329 L 185 331 L 186 334 L 191 337 L 190 337 L 182 328 L 175 327 L 166 324 L 160 318 L 159 313 L 157 311 L 151 309 L 149 307 L 144 305 Z M 432 298 L 431 301 L 435 304 L 436 302 L 435 300 Z M 418 294 L 416 297 L 420 301 L 420 309 L 417 312 L 412 314 L 414 317 L 417 316 L 423 308 L 423 306 L 420 302 L 420 297 Z M 383 293 L 381 295 L 381 297 L 387 305 L 389 306 L 385 294 Z M 311 292 L 307 295 L 306 299 L 309 297 L 311 294 Z M 257 273 L 252 277 L 252 283 L 250 287 L 252 287 L 257 283 L 257 282 L 254 280 L 258 275 Z M 259 264 L 262 266 L 264 266 L 266 265 L 267 263 L 266 262 L 262 262 Z M 417 260 L 415 260 L 411 263 L 413 264 L 417 262 Z M 264 253 L 265 255 L 268 255 L 269 254 L 267 252 Z M 397 244 L 396 243 L 388 244 L 379 248 L 376 248 L 371 250 L 367 250 L 366 251 L 362 251 L 361 252 L 356 252 L 355 253 L 332 253 L 326 251 L 320 251 L 318 253 L 318 256 L 325 264 L 336 272 L 347 278 L 355 279 L 359 277 L 364 277 L 377 267 L 380 266 L 387 259 L 388 259 L 396 250 L 397 248 Z M 345 256 L 346 255 L 349 255 L 350 257 L 349 258 L 346 258 Z M 355 255 L 358 254 L 359 256 L 356 257 Z M 319 255 L 322 252 L 337 255 L 338 256 L 337 258 L 336 257 L 329 257 L 328 256 L 325 256 L 324 257 L 339 269 L 343 270 L 345 272 L 349 272 L 352 274 L 359 273 L 370 267 L 382 258 L 384 259 L 382 262 L 364 275 L 359 275 L 355 278 L 350 278 L 341 274 L 327 265 L 320 258 Z M 103 226 L 112 246 L 120 258 L 134 272 L 141 276 L 144 279 L 148 280 L 156 287 L 156 289 L 153 292 L 150 292 L 149 293 L 160 300 L 163 300 L 170 303 L 176 304 L 180 307 L 180 309 L 178 311 L 176 311 L 173 313 L 174 314 L 183 317 L 199 319 L 202 322 L 202 324 L 199 328 L 201 329 L 217 330 L 220 332 L 219 338 L 223 338 L 224 339 L 227 339 L 229 337 L 234 324 L 238 320 L 243 320 L 245 322 L 245 326 L 245 321 L 248 316 L 248 314 L 253 305 L 255 299 L 255 297 L 253 295 L 248 297 L 242 303 L 239 310 L 236 313 L 234 314 L 221 314 L 219 313 L 218 311 L 226 306 L 225 303 L 211 302 L 205 298 L 197 298 L 196 299 L 188 298 L 187 295 L 193 291 L 193 289 L 191 287 L 169 283 L 155 276 L 151 272 L 148 271 L 144 267 L 137 263 L 131 258 L 118 244 L 116 245 L 115 248 L 110 241 Z M 213 305 L 214 304 L 223 304 L 224 306 L 221 308 L 217 309 L 214 307 Z M 253 296 L 254 297 L 254 301 L 247 316 L 245 318 L 243 316 L 243 314 L 246 310 L 247 305 L 242 309 L 241 308 L 242 304 L 246 299 L 251 296 Z M 187 290 L 189 288 L 191 289 L 190 292 Z M 495 194 L 495 197 L 493 201 L 488 206 L 486 213 L 481 221 L 481 223 L 489 232 L 490 234 L 490 238 L 492 240 L 505 246 L 512 252 L 514 255 L 514 262 L 522 267 L 527 272 L 528 274 L 528 279 L 531 281 L 528 278 L 528 274 L 527 272 L 514 261 L 514 255 L 513 253 L 505 246 L 492 240 L 490 238 L 490 234 L 489 232 L 481 223 L 481 221 L 486 213 L 487 208 L 492 203 L 495 197 Z M 225 193 L 225 195 L 229 201 L 228 202 L 225 202 L 230 206 L 232 206 L 232 203 L 226 197 Z M 164 156 L 163 159 L 163 165 L 171 173 L 175 179 L 181 185 L 187 194 L 194 201 L 197 201 L 200 199 L 203 202 L 211 217 L 216 222 L 219 221 L 220 216 L 222 215 L 225 218 L 231 229 L 234 232 L 236 232 L 240 226 L 243 229 L 249 240 L 252 242 L 254 241 L 255 237 L 257 236 L 264 243 L 266 243 L 272 249 L 275 249 L 277 246 L 277 244 L 279 242 L 287 246 L 292 250 L 294 249 L 294 245 L 287 238 L 270 230 L 266 226 L 263 221 L 258 221 L 256 219 L 255 212 L 253 209 L 251 209 L 250 212 L 248 214 L 245 210 L 245 209 L 246 212 L 248 214 L 250 213 L 251 210 L 253 210 L 255 213 L 255 216 L 258 222 L 263 222 L 275 237 L 277 241 L 277 246 L 274 249 L 272 249 L 265 242 L 256 235 L 254 235 L 254 239 L 251 241 L 247 237 L 240 225 L 238 227 L 238 230 L 235 232 L 230 227 L 226 219 L 221 213 L 219 219 L 217 221 L 215 221 L 210 215 L 202 200 L 200 198 L 196 201 L 193 200 L 188 195 L 173 175 L 163 165 L 163 159 Z M 285 242 L 288 241 L 293 246 L 291 248 Z M 488 149 L 484 148 L 482 150 L 482 152 L 485 156 L 490 168 L 490 170 L 488 172 L 486 170 L 482 170 L 480 172 L 478 170 L 479 167 L 478 166 L 477 167 L 471 160 L 469 160 L 467 158 L 464 158 L 463 157 L 461 158 L 469 168 L 469 170 L 467 172 L 463 172 L 467 177 L 468 182 L 466 184 L 464 184 L 461 182 L 458 182 L 457 183 L 461 189 L 461 193 L 459 195 L 451 191 L 448 191 L 447 192 L 455 200 L 455 203 L 454 204 L 451 203 L 449 205 L 446 210 L 446 214 L 445 215 L 441 212 L 439 213 L 439 217 L 440 218 L 439 223 L 437 225 L 435 225 L 434 223 L 432 222 L 430 226 L 430 232 L 427 235 L 425 233 L 425 229 L 423 228 L 419 233 L 418 236 L 414 236 L 406 243 L 404 247 L 403 253 L 405 253 L 407 251 L 407 249 L 415 240 L 417 241 L 417 247 L 418 248 L 423 248 L 427 245 L 428 246 L 443 246 L 446 249 L 449 248 L 453 242 L 462 241 L 467 243 L 471 243 L 490 252 L 492 252 L 494 255 L 493 256 L 489 256 L 488 259 L 490 261 L 500 265 L 514 275 L 500 265 L 491 261 L 489 258 L 491 256 L 496 256 L 496 254 L 471 243 L 470 240 L 474 238 L 473 237 L 469 237 L 465 234 L 468 230 L 463 230 L 461 228 L 461 226 L 467 220 L 474 208 L 476 202 L 476 193 L 478 191 L 481 193 L 483 192 L 483 185 L 484 182 L 483 181 L 482 172 L 484 170 L 487 171 L 489 173 L 491 172 L 489 164 L 484 154 L 482 152 L 484 149 Z M 439 237 L 441 239 L 441 241 L 437 245 L 435 245 L 433 242 Z M 455 222 L 456 225 L 453 228 L 451 232 L 447 236 L 445 236 L 444 235 L 444 232 L 454 222 Z M 374 145 L 371 145 L 367 151 L 371 145 L 374 145 L 377 148 L 380 155 L 380 163 L 381 164 L 381 180 L 380 181 L 380 188 L 379 189 L 377 200 L 372 212 L 364 222 L 361 223 L 354 229 L 345 232 L 336 232 L 325 228 L 309 213 L 298 197 L 311 216 L 326 229 L 328 229 L 337 233 L 344 233 L 345 232 L 352 231 L 361 225 L 371 214 L 377 201 L 377 198 L 380 190 L 380 183 L 381 182 L 381 162 L 380 161 L 380 154 L 379 151 Z M 385 128 L 385 134 L 390 140 L 397 144 L 403 145 L 404 146 L 410 146 L 411 147 L 419 147 L 420 146 L 427 145 L 433 140 L 435 135 L 433 128 L 427 122 L 419 119 L 414 119 L 413 118 L 401 118 L 400 119 L 397 119 L 391 121 Z M 385 129 L 391 122 L 395 120 L 398 120 L 399 119 L 418 119 L 428 123 L 433 128 L 435 135 L 433 139 L 427 144 L 421 145 L 420 146 L 408 146 L 407 145 L 403 145 L 397 143 L 391 140 L 385 133 Z M 296 115 L 296 117 L 294 120 L 288 126 L 283 126 L 279 121 L 279 111 L 279 121 L 280 123 L 285 127 L 281 133 L 281 138 L 280 139 L 279 138 L 275 138 L 274 139 L 268 133 L 258 133 L 248 138 L 243 144 L 243 147 L 242 148 L 242 152 L 243 154 L 249 159 L 256 159 L 259 158 L 269 147 L 271 149 L 270 150 L 271 159 L 271 156 L 270 155 L 271 143 L 275 138 L 278 138 L 281 141 L 279 154 L 280 144 L 283 142 L 281 137 L 281 133 L 282 131 L 290 124 L 298 122 L 295 123 L 293 122 L 294 119 L 296 117 Z M 269 135 L 271 137 L 271 140 L 268 144 L 266 143 L 267 139 L 264 137 L 263 138 L 256 139 L 255 141 L 250 145 L 249 148 L 253 154 L 256 154 L 257 153 L 260 154 L 256 158 L 248 158 L 243 153 L 243 146 L 244 144 L 253 136 L 262 133 L 265 133 Z M 246 107 L 238 126 L 240 133 L 228 147 L 229 150 L 234 148 L 236 148 L 238 150 L 231 164 L 231 167 L 230 168 L 230 170 L 237 169 L 238 170 L 238 173 L 238 169 L 237 168 L 234 169 L 231 168 L 231 165 L 238 152 L 238 149 L 237 148 L 230 149 L 229 146 L 240 134 L 240 131 L 238 126 Z M 124 106 L 121 106 L 118 109 L 118 112 L 120 112 L 123 108 L 125 108 L 132 115 L 133 121 L 135 124 L 135 133 L 131 138 L 124 138 L 121 135 L 116 135 L 112 131 L 109 124 L 98 112 L 95 110 L 89 110 L 84 115 L 83 118 L 85 125 L 86 125 L 87 118 L 90 115 L 93 115 L 98 117 L 102 121 L 105 127 L 105 129 L 108 135 L 108 139 L 104 143 L 97 145 L 96 144 L 90 144 L 76 133 L 71 133 L 69 135 L 69 137 L 73 137 L 84 144 L 90 151 L 90 157 L 88 160 L 86 161 L 83 160 L 75 160 L 71 162 L 67 166 L 71 168 L 78 168 L 82 172 L 83 175 L 82 177 L 82 182 L 79 185 L 74 185 L 68 179 L 64 171 L 64 167 L 63 166 L 60 167 L 60 176 L 66 187 L 74 196 L 99 216 L 99 218 L 102 224 L 98 214 L 75 196 L 70 191 L 67 185 L 70 184 L 76 187 L 81 187 L 84 185 L 86 190 L 95 200 L 97 201 L 101 201 L 102 202 L 110 202 L 131 191 L 137 187 L 144 180 L 144 178 L 146 175 L 146 165 L 145 164 L 145 161 L 142 155 L 133 147 L 129 146 L 126 144 L 120 144 L 111 148 L 109 148 L 106 151 L 102 153 L 92 165 L 89 174 L 85 177 L 83 175 L 83 171 L 80 168 L 74 167 L 72 164 L 74 162 L 85 162 L 88 161 L 90 158 L 90 154 L 91 153 L 90 148 L 91 147 L 96 147 L 98 145 L 101 145 L 105 143 L 108 140 L 109 131 L 110 130 L 112 133 L 117 137 L 122 137 L 125 139 L 130 139 L 133 137 L 134 134 L 138 129 L 144 135 L 144 141 L 143 143 L 145 149 L 148 152 L 156 152 L 159 149 L 162 141 L 162 135 L 165 133 L 166 134 L 166 149 L 166 134 L 163 126 L 160 123 L 155 122 L 152 123 L 144 132 L 141 132 L 137 126 L 133 114 Z M 61 168 L 63 169 L 64 174 L 66 176 L 67 179 L 67 182 L 66 183 L 62 179 L 60 175 L 60 169 Z M 135 149 L 144 159 L 145 166 L 146 167 L 146 173 L 143 180 L 133 189 L 130 190 L 125 194 L 123 194 L 114 200 L 111 201 L 100 201 L 94 198 L 89 193 L 86 187 L 86 180 L 94 163 L 102 154 L 108 149 L 114 146 L 117 146 L 118 145 L 128 145 Z M 73 134 L 74 133 L 78 135 L 82 139 L 80 141 L 77 139 Z M 156 125 L 161 131 L 161 143 L 159 148 L 156 151 L 154 152 L 149 152 L 144 146 L 144 139 L 148 131 L 154 125 Z M 307 111 L 308 114 L 314 112 L 319 112 L 320 111 L 331 112 L 336 114 L 340 114 L 341 113 L 341 111 L 338 108 L 330 105 L 317 105 L 312 107 Z M 314 109 L 317 107 L 329 107 L 330 108 L 334 108 L 336 109 L 338 112 L 336 113 L 333 111 L 330 111 L 329 110 L 318 110 L 315 111 Z M 247 72 L 246 73 L 247 74 L 247 77 L 246 78 L 247 81 L 248 78 L 252 76 L 252 75 L 250 75 Z M 250 67 L 249 68 L 256 72 L 256 77 L 258 76 L 258 73 L 255 69 L 252 67 Z M 302 63 L 298 60 L 293 60 L 289 62 L 282 68 L 280 71 L 280 75 L 283 78 L 285 78 L 293 72 L 299 70 L 302 67 Z M 302 63 L 302 67 L 300 69 L 294 71 L 285 78 L 283 78 L 280 75 L 280 71 L 282 68 L 289 62 L 293 60 L 298 60 Z M 258 58 L 251 59 L 247 61 L 242 67 L 240 72 L 240 77 L 242 83 L 250 90 L 253 90 L 258 85 L 264 75 L 270 68 L 270 67 L 263 60 Z M 259 60 L 264 63 L 268 67 L 266 69 L 261 66 L 260 67 L 261 69 L 263 69 L 265 71 L 261 76 L 258 82 L 255 85 L 252 82 L 251 84 L 254 86 L 254 87 L 251 89 L 248 88 L 241 79 L 241 73 L 243 68 L 249 61 L 252 60 Z M 472 56 L 468 64 L 463 69 L 457 72 L 457 76 L 463 82 L 473 100 L 477 105 L 477 107 L 474 110 L 474 112 L 478 116 L 484 119 L 489 124 L 488 126 L 479 126 L 478 127 L 478 130 L 491 144 L 493 148 L 490 150 L 492 150 L 493 148 L 491 144 L 478 129 L 480 126 L 490 126 L 491 125 L 487 121 L 477 115 L 474 112 L 474 111 L 479 107 L 472 98 L 462 80 L 458 76 L 458 73 L 468 64 Z M 439 31 L 433 34 L 427 40 L 425 47 L 428 50 L 434 53 L 442 61 L 449 65 L 458 57 L 459 55 L 459 45 L 455 38 L 451 34 L 444 31 Z M 433 35 L 440 32 L 447 33 L 457 42 L 459 47 L 459 52 L 458 55 L 452 62 L 447 63 L 432 50 L 430 50 L 426 46 L 428 40 Z M 360 23 L 359 22 L 353 25 L 346 33 L 344 33 L 340 30 L 331 26 L 328 26 L 327 29 L 330 33 L 330 36 L 328 38 L 315 38 L 329 38 L 330 37 L 330 33 L 327 29 L 329 26 L 338 29 L 344 33 L 347 33 L 348 31 L 357 23 L 360 25 L 359 28 Z M 428 16 L 420 20 L 412 29 L 410 34 L 410 37 L 408 39 L 397 35 L 393 35 L 387 33 L 382 33 L 381 32 L 366 32 L 365 33 L 360 33 L 358 30 L 358 33 L 359 34 L 362 34 L 366 32 L 381 32 L 382 33 L 387 33 L 392 35 L 397 35 L 408 39 L 410 37 L 410 34 L 412 29 L 416 24 L 422 19 Z" fill="#D8D8D8" fill-rule="evenodd"/><path d="M 447 638 L 448 639 L 451 639 L 452 638 L 460 638 L 461 637 L 474 637 L 475 638 L 484 638 L 485 637 L 477 634 L 458 634 L 453 636 L 449 636 Z M 462 635 L 463 634 L 472 634 L 473 636 L 472 637 L 463 637 Z M 270 523 L 269 524 L 272 530 L 281 540 L 283 539 L 282 537 Z M 397 519 L 396 519 L 395 522 L 395 528 L 396 528 L 396 525 L 397 524 Z M 259 516 L 258 518 L 262 525 L 267 529 L 268 528 Z M 293 515 L 293 518 L 298 527 L 302 532 L 305 534 L 305 531 L 299 525 Z M 421 509 L 419 509 L 419 511 L 416 516 L 416 519 L 413 523 L 414 525 L 416 524 L 419 518 Z M 243 501 L 245 510 L 249 516 L 250 514 L 248 508 L 245 503 L 245 501 Z M 271 496 L 272 502 L 274 506 L 277 508 L 275 501 L 273 497 Z M 437 459 L 438 461 L 438 465 L 439 466 L 439 470 L 441 472 L 442 471 L 441 465 L 438 459 Z M 261 326 L 258 327 L 252 333 L 253 336 L 247 343 L 247 345 L 250 343 L 258 333 L 261 328 Z M 214 305 L 214 306 L 217 308 L 223 306 L 223 305 Z M 253 297 L 251 297 L 246 300 L 243 304 L 242 308 L 243 308 L 246 304 L 248 305 L 247 310 L 244 314 L 245 317 L 251 306 L 251 304 L 253 301 Z M 320 255 L 321 258 L 327 264 L 341 273 L 350 277 L 355 277 L 359 274 L 364 274 L 382 261 L 383 259 L 359 274 L 352 275 L 349 273 L 345 273 L 343 271 L 339 270 L 323 257 L 325 255 L 336 256 L 337 257 L 337 256 L 335 255 L 330 255 L 329 254 L 324 254 L 323 253 Z M 439 238 L 434 242 L 435 244 L 437 244 L 440 241 Z M 455 223 L 454 223 L 445 232 L 445 235 L 447 235 L 450 232 L 452 228 L 455 225 Z M 132 148 L 128 146 L 118 146 L 117 147 L 114 147 L 108 150 L 102 155 L 95 163 L 87 180 L 87 187 L 88 190 L 94 197 L 100 200 L 111 200 L 114 199 L 123 193 L 125 193 L 130 189 L 133 188 L 142 180 L 145 173 L 144 162 L 142 157 Z M 272 143 L 272 149 L 271 150 L 272 160 L 274 164 L 281 171 L 288 175 L 290 175 L 293 178 L 293 183 L 296 192 L 298 194 L 298 196 L 310 213 L 321 224 L 327 228 L 336 231 L 345 231 L 354 228 L 367 218 L 371 212 L 372 208 L 375 203 L 378 189 L 379 188 L 379 181 L 380 180 L 379 155 L 376 148 L 374 146 L 371 146 L 367 153 L 362 158 L 353 163 L 344 166 L 341 166 L 340 167 L 328 167 L 327 166 L 321 166 L 320 165 L 316 165 L 315 164 L 309 163 L 306 164 L 299 169 L 290 169 L 285 166 L 279 159 L 278 151 L 279 150 L 279 144 L 280 141 L 278 139 L 275 139 Z M 273 143 L 277 139 L 279 141 L 279 146 L 278 147 L 278 156 L 279 159 L 283 165 L 287 168 L 292 170 L 298 170 L 307 164 L 313 164 L 314 165 L 324 166 L 325 167 L 331 167 L 332 168 L 342 167 L 346 165 L 349 165 L 360 160 L 367 154 L 369 150 L 373 147 L 376 150 L 379 159 L 379 182 L 378 183 L 378 188 L 376 193 L 376 197 L 373 206 L 368 215 L 364 219 L 362 217 L 368 206 L 370 200 L 370 192 L 369 190 L 361 184 L 358 184 L 357 183 L 348 183 L 342 185 L 332 191 L 326 197 L 322 204 L 321 212 L 325 219 L 332 226 L 329 228 L 321 223 L 312 214 L 300 198 L 295 188 L 294 182 L 293 181 L 293 177 L 291 175 L 283 172 L 274 163 L 272 159 L 272 146 Z M 270 137 L 265 134 L 262 134 L 253 137 L 245 144 L 244 146 L 244 153 L 248 157 L 256 157 L 259 154 L 253 155 L 248 148 L 249 145 L 252 143 L 256 138 L 263 137 L 264 136 L 268 139 L 267 143 L 268 143 L 270 140 Z M 156 126 L 154 126 L 149 131 L 145 139 L 145 146 L 149 151 L 154 151 L 158 148 L 160 143 L 160 131 Z M 386 129 L 386 133 L 391 139 L 397 142 L 403 144 L 407 144 L 408 145 L 420 145 L 421 144 L 427 143 L 432 139 L 434 135 L 432 128 L 428 124 L 418 120 L 399 120 L 398 121 L 395 121 L 391 123 Z M 315 109 L 315 110 L 318 109 L 329 109 L 337 112 L 336 110 L 334 109 L 330 109 L 329 108 L 317 108 Z M 285 101 L 282 105 L 280 110 L 280 121 L 283 125 L 288 125 L 289 126 L 286 128 L 282 133 L 283 141 L 286 146 L 291 151 L 297 154 L 304 155 L 305 156 L 315 154 L 326 148 L 333 140 L 334 137 L 334 132 L 333 130 L 329 126 L 319 122 L 315 122 L 314 121 L 299 122 L 290 125 L 289 124 L 293 120 L 296 114 L 296 106 L 295 103 L 292 100 L 287 100 Z M 333 131 L 334 136 L 330 143 L 322 150 L 310 155 L 301 155 L 295 153 L 286 145 L 283 140 L 283 132 L 290 126 L 301 122 L 313 121 L 314 122 L 322 123 L 328 126 Z M 291 100 L 295 104 L 296 107 L 296 113 L 294 118 L 288 124 L 284 125 L 280 120 L 280 112 L 281 111 L 281 108 L 283 104 L 287 100 Z M 374 92 L 371 93 L 366 99 L 365 102 L 365 112 L 369 120 L 374 122 L 377 122 L 379 121 L 383 116 L 384 113 L 384 103 L 381 96 L 378 93 Z M 372 93 L 377 93 L 381 97 L 384 105 L 383 115 L 382 117 L 376 122 L 372 121 L 367 116 L 365 111 L 366 100 Z M 301 63 L 298 61 L 293 61 L 289 63 L 283 68 L 281 71 L 281 75 L 283 77 L 285 77 L 294 70 L 300 68 L 301 67 Z M 301 64 L 301 66 L 299 68 L 293 70 L 286 76 L 283 77 L 281 75 L 281 72 L 283 69 L 290 63 L 294 61 L 297 61 Z M 259 61 L 252 61 L 249 62 L 243 70 L 242 73 L 242 79 L 248 87 L 252 88 L 253 86 L 252 86 L 250 83 L 252 81 L 255 84 L 259 79 L 260 76 L 263 73 L 264 71 L 261 70 L 259 67 L 261 65 L 266 68 L 267 67 Z M 247 71 L 250 74 L 253 75 L 251 78 L 249 78 L 247 82 L 245 80 L 246 77 L 246 74 L 245 73 Z M 250 66 L 252 66 L 255 68 L 259 73 L 259 76 L 257 78 L 255 77 L 255 72 L 250 70 L 248 68 Z M 365 53 L 365 56 L 367 58 L 376 60 L 384 65 L 386 65 L 388 63 L 388 58 L 383 53 L 376 50 L 369 50 Z M 365 54 L 370 50 L 378 51 L 387 57 L 388 62 L 386 64 L 383 64 L 377 60 L 367 57 Z M 433 36 L 429 40 L 427 46 L 430 49 L 432 49 L 447 62 L 452 61 L 457 55 L 458 52 L 458 47 L 456 42 L 447 34 L 440 33 Z M 453 15 L 447 13 L 441 13 L 440 12 L 436 12 L 435 13 L 428 14 L 419 19 L 414 24 L 409 32 L 409 35 L 407 37 L 405 37 L 399 34 L 386 32 L 385 31 L 375 31 L 374 30 L 370 30 L 369 31 L 363 31 L 361 32 L 360 31 L 360 27 L 362 24 L 361 21 L 357 21 L 352 24 L 346 31 L 344 31 L 333 25 L 326 24 L 325 25 L 325 28 L 328 32 L 328 35 L 324 37 L 310 37 L 308 38 L 304 43 L 292 48 L 283 55 L 281 55 L 272 45 L 264 41 L 251 41 L 245 43 L 237 48 L 230 55 L 226 63 L 226 67 L 225 68 L 225 80 L 226 81 L 226 84 L 229 90 L 236 97 L 241 100 L 243 100 L 246 103 L 246 105 L 238 121 L 238 124 L 237 125 L 238 134 L 228 144 L 226 148 L 227 151 L 232 151 L 234 150 L 236 152 L 229 165 L 229 171 L 230 172 L 233 172 L 234 171 L 236 172 L 236 177 L 234 182 L 234 192 L 236 194 L 238 194 L 240 192 L 242 194 L 242 204 L 245 213 L 248 216 L 251 214 L 253 214 L 255 218 L 255 221 L 259 225 L 263 224 L 276 242 L 276 245 L 274 247 L 272 247 L 266 240 L 263 239 L 255 232 L 253 233 L 253 237 L 251 239 L 246 233 L 242 225 L 239 223 L 237 224 L 237 227 L 234 229 L 231 226 L 227 218 L 222 212 L 219 212 L 219 217 L 217 219 L 215 219 L 212 216 L 205 202 L 200 196 L 198 196 L 195 199 L 190 195 L 174 174 L 164 164 L 164 160 L 167 151 L 167 133 L 164 125 L 161 122 L 159 121 L 151 122 L 143 130 L 142 130 L 139 126 L 136 116 L 133 111 L 127 105 L 122 104 L 118 106 L 116 108 L 115 111 L 115 114 L 116 115 L 116 123 L 117 124 L 117 128 L 115 130 L 109 121 L 99 111 L 94 108 L 90 108 L 88 109 L 82 116 L 82 123 L 89 137 L 87 139 L 75 131 L 71 131 L 66 137 L 65 146 L 68 153 L 71 157 L 71 160 L 68 163 L 66 164 L 61 164 L 59 166 L 58 174 L 61 182 L 66 190 L 78 202 L 97 216 L 110 245 L 121 262 L 132 273 L 148 283 L 153 288 L 150 290 L 148 290 L 146 293 L 152 298 L 160 302 L 175 306 L 177 308 L 171 312 L 172 315 L 184 319 L 191 319 L 197 321 L 199 324 L 196 327 L 196 329 L 198 330 L 202 330 L 203 331 L 212 331 L 215 332 L 217 334 L 216 338 L 220 340 L 228 340 L 230 338 L 235 328 L 235 326 L 239 322 L 242 322 L 244 324 L 237 345 L 236 353 L 226 367 L 227 370 L 232 370 L 234 372 L 218 392 L 219 395 L 226 394 L 227 397 L 220 407 L 213 422 L 213 425 L 214 426 L 216 426 L 219 424 L 221 425 L 221 428 L 219 431 L 216 445 L 215 446 L 215 456 L 216 457 L 219 453 L 221 455 L 219 475 L 221 479 L 224 477 L 226 478 L 227 486 L 233 499 L 233 502 L 231 504 L 229 502 L 227 503 L 226 508 L 219 521 L 220 523 L 224 523 L 225 526 L 222 531 L 222 533 L 219 538 L 218 542 L 221 543 L 224 541 L 226 543 L 220 560 L 219 570 L 221 571 L 224 569 L 226 571 L 223 584 L 227 587 L 227 595 L 229 599 L 230 610 L 231 611 L 232 618 L 236 626 L 232 629 L 224 629 L 223 630 L 213 632 L 208 635 L 203 640 L 200 646 L 198 659 L 200 665 L 205 669 L 208 668 L 207 660 L 208 659 L 209 653 L 214 648 L 216 648 L 218 650 L 215 659 L 215 670 L 218 672 L 221 672 L 222 673 L 229 673 L 230 674 L 232 673 L 231 664 L 234 656 L 238 652 L 240 652 L 242 654 L 242 657 L 240 661 L 240 667 L 239 668 L 239 671 L 241 675 L 275 675 L 276 674 L 282 674 L 283 673 L 292 673 L 293 672 L 299 672 L 300 671 L 305 671 L 306 670 L 314 669 L 321 666 L 323 664 L 327 655 L 327 641 L 326 640 L 326 634 L 325 632 L 327 630 L 329 631 L 332 630 L 332 605 L 331 604 L 331 599 L 333 597 L 335 599 L 337 598 L 337 586 L 340 578 L 340 573 L 316 565 L 310 560 L 312 557 L 315 557 L 316 558 L 323 559 L 331 562 L 335 562 L 341 564 L 355 565 L 356 566 L 365 566 L 366 565 L 371 565 L 372 564 L 377 564 L 378 563 L 383 563 L 385 565 L 385 567 L 377 573 L 382 583 L 382 587 L 383 588 L 384 595 L 386 597 L 387 596 L 389 597 L 389 612 L 393 614 L 393 630 L 394 633 L 396 633 L 398 631 L 400 633 L 400 649 L 398 654 L 398 667 L 400 672 L 404 676 L 410 679 L 416 681 L 419 681 L 420 682 L 438 684 L 439 683 L 438 666 L 441 662 L 444 662 L 446 664 L 446 667 L 447 668 L 447 683 L 448 684 L 469 684 L 471 682 L 471 673 L 470 672 L 470 665 L 469 663 L 473 660 L 477 663 L 479 668 L 479 673 L 480 674 L 479 682 L 480 683 L 487 683 L 488 682 L 495 681 L 497 679 L 497 675 L 498 673 L 497 672 L 496 660 L 498 658 L 500 658 L 503 661 L 505 665 L 505 668 L 506 669 L 506 676 L 505 678 L 506 679 L 511 678 L 514 676 L 517 672 L 518 669 L 518 657 L 515 650 L 507 642 L 500 639 L 498 637 L 498 635 L 501 632 L 501 628 L 503 622 L 503 617 L 504 616 L 504 603 L 505 602 L 505 592 L 504 591 L 504 586 L 503 584 L 506 581 L 506 578 L 502 571 L 504 569 L 508 572 L 510 571 L 509 566 L 506 561 L 504 554 L 498 544 L 500 542 L 507 546 L 508 545 L 508 541 L 501 526 L 501 523 L 502 522 L 505 522 L 506 521 L 506 518 L 505 517 L 505 513 L 504 512 L 504 508 L 503 507 L 501 497 L 499 495 L 496 495 L 492 493 L 485 486 L 480 475 L 479 461 L 480 460 L 481 452 L 485 443 L 485 436 L 483 431 L 481 417 L 478 408 L 477 400 L 474 393 L 474 390 L 472 387 L 469 377 L 464 368 L 464 366 L 456 351 L 455 346 L 457 344 L 462 349 L 469 360 L 472 367 L 474 369 L 475 373 L 479 380 L 480 385 L 482 388 L 485 397 L 485 400 L 487 404 L 487 407 L 490 416 L 490 420 L 491 421 L 491 425 L 492 426 L 492 430 L 493 431 L 493 435 L 494 436 L 494 444 L 489 457 L 489 472 L 492 479 L 497 484 L 499 485 L 503 485 L 508 480 L 511 472 L 514 469 L 517 472 L 517 477 L 512 490 L 509 493 L 510 496 L 516 502 L 522 503 L 523 504 L 529 502 L 535 495 L 536 491 L 540 485 L 543 486 L 543 493 L 538 504 L 541 506 L 546 506 L 553 503 L 557 499 L 560 493 L 562 485 L 564 483 L 567 485 L 567 490 L 566 491 L 565 497 L 566 498 L 568 497 L 575 490 L 577 485 L 579 483 L 582 474 L 583 466 L 584 465 L 584 443 L 582 437 L 584 435 L 586 436 L 587 433 L 585 429 L 585 426 L 581 416 L 581 413 L 579 407 L 577 404 L 579 402 L 581 403 L 582 400 L 575 387 L 569 379 L 570 376 L 574 377 L 575 374 L 557 350 L 558 348 L 561 349 L 566 349 L 567 348 L 539 321 L 540 319 L 548 320 L 549 318 L 539 309 L 523 298 L 524 295 L 529 295 L 530 293 L 528 291 L 517 286 L 512 282 L 513 280 L 517 280 L 519 277 L 504 267 L 501 264 L 494 261 L 492 259 L 494 257 L 499 257 L 500 255 L 485 247 L 476 244 L 474 241 L 477 238 L 474 236 L 472 236 L 469 233 L 471 231 L 470 229 L 466 229 L 464 227 L 465 224 L 471 217 L 477 204 L 477 196 L 479 194 L 482 196 L 485 194 L 485 178 L 484 177 L 484 174 L 486 172 L 489 175 L 491 175 L 493 173 L 492 171 L 492 167 L 489 162 L 488 158 L 485 154 L 485 151 L 487 150 L 493 152 L 494 151 L 494 147 L 489 139 L 480 130 L 482 127 L 490 128 L 492 126 L 492 124 L 487 119 L 481 116 L 476 112 L 481 108 L 473 97 L 467 85 L 460 76 L 460 73 L 469 65 L 473 58 L 474 52 L 475 51 L 475 42 L 474 41 L 474 38 L 468 27 L 461 20 Z M 449 14 L 460 20 L 469 29 L 473 36 L 474 43 L 475 44 L 475 49 L 474 50 L 473 57 L 469 64 L 459 73 L 459 76 L 463 80 L 473 98 L 480 107 L 476 110 L 475 112 L 487 120 L 492 125 L 490 127 L 480 127 L 479 129 L 489 140 L 494 148 L 492 151 L 489 150 L 484 150 L 483 151 L 490 164 L 492 172 L 490 174 L 485 171 L 483 172 L 484 181 L 485 182 L 484 185 L 484 192 L 482 194 L 479 192 L 477 193 L 477 202 L 475 208 L 468 220 L 462 226 L 462 228 L 463 229 L 468 229 L 469 231 L 466 234 L 469 236 L 473 236 L 475 238 L 473 240 L 471 240 L 471 242 L 497 254 L 496 257 L 491 257 L 490 258 L 491 260 L 500 264 L 518 277 L 516 279 L 509 279 L 508 280 L 511 283 L 527 291 L 529 293 L 527 295 L 522 295 L 521 298 L 533 305 L 547 317 L 546 319 L 539 319 L 537 318 L 536 320 L 546 328 L 566 347 L 564 349 L 558 348 L 557 347 L 554 348 L 574 373 L 573 376 L 567 375 L 567 377 L 581 398 L 580 401 L 577 400 L 575 401 L 580 410 L 581 417 L 586 431 L 584 434 L 582 433 L 582 439 L 584 445 L 584 463 L 583 464 L 582 473 L 580 479 L 575 489 L 568 496 L 566 495 L 566 492 L 567 491 L 567 483 L 564 482 L 562 484 L 560 492 L 557 498 L 550 504 L 541 505 L 539 502 L 543 494 L 543 485 L 540 483 L 537 488 L 537 490 L 535 492 L 535 494 L 528 502 L 526 503 L 520 503 L 514 500 L 510 495 L 510 493 L 512 491 L 517 479 L 517 470 L 515 468 L 512 469 L 508 479 L 504 484 L 499 484 L 497 483 L 492 478 L 490 474 L 490 471 L 489 470 L 489 459 L 490 458 L 491 451 L 495 442 L 495 438 L 493 433 L 491 419 L 490 418 L 489 410 L 487 406 L 486 399 L 480 381 L 471 362 L 469 360 L 463 349 L 457 343 L 454 345 L 456 353 L 460 361 L 462 363 L 464 369 L 468 376 L 469 381 L 471 384 L 477 402 L 477 407 L 479 411 L 479 415 L 481 421 L 481 426 L 482 427 L 483 435 L 484 436 L 484 443 L 482 446 L 482 449 L 479 456 L 479 465 L 478 466 L 479 469 L 479 475 L 481 481 L 484 486 L 491 493 L 497 496 L 499 496 L 501 498 L 501 502 L 503 505 L 503 509 L 505 515 L 505 519 L 503 521 L 502 520 L 500 521 L 500 525 L 503 530 L 504 535 L 508 543 L 506 545 L 500 541 L 498 541 L 497 543 L 502 551 L 502 553 L 505 558 L 505 560 L 509 569 L 508 570 L 506 570 L 503 568 L 501 569 L 505 577 L 505 579 L 502 582 L 504 588 L 504 614 L 503 615 L 503 620 L 502 621 L 501 630 L 497 635 L 497 637 L 499 639 L 509 644 L 513 648 L 517 655 L 518 668 L 515 674 L 510 678 L 508 678 L 506 676 L 506 668 L 504 662 L 499 657 L 497 657 L 495 660 L 496 662 L 496 667 L 497 668 L 497 678 L 494 681 L 491 682 L 483 682 L 481 683 L 479 681 L 480 679 L 480 670 L 479 669 L 478 663 L 475 660 L 471 660 L 469 662 L 469 666 L 470 667 L 470 678 L 471 679 L 470 682 L 468 684 L 449 684 L 447 682 L 447 665 L 444 661 L 441 661 L 438 665 L 438 679 L 439 681 L 437 683 L 422 682 L 421 681 L 417 681 L 406 677 L 400 671 L 398 666 L 399 651 L 401 647 L 401 635 L 400 634 L 400 631 L 398 630 L 396 632 L 394 630 L 393 627 L 394 611 L 390 611 L 389 610 L 390 594 L 387 595 L 384 594 L 383 585 L 381 579 L 378 574 L 380 571 L 383 570 L 385 568 L 385 564 L 382 562 L 376 563 L 375 564 L 366 564 L 365 565 L 344 564 L 343 563 L 329 561 L 314 556 L 312 556 L 309 558 L 309 560 L 312 563 L 322 568 L 334 572 L 337 572 L 340 575 L 337 584 L 337 596 L 335 598 L 332 595 L 330 596 L 331 611 L 332 612 L 332 625 L 330 629 L 327 627 L 325 628 L 325 637 L 326 638 L 326 657 L 324 661 L 319 666 L 311 669 L 307 669 L 306 670 L 294 671 L 293 672 L 288 672 L 287 673 L 270 674 L 269 675 L 243 675 L 240 672 L 240 662 L 242 657 L 242 653 L 241 652 L 237 652 L 234 655 L 232 659 L 232 662 L 231 663 L 231 671 L 229 673 L 224 673 L 218 671 L 215 668 L 215 660 L 216 659 L 217 653 L 219 650 L 217 647 L 215 647 L 210 651 L 207 659 L 207 666 L 204 668 L 199 662 L 199 651 L 203 640 L 210 634 L 217 631 L 226 630 L 227 629 L 240 629 L 241 630 L 246 630 L 247 631 L 255 632 L 255 630 L 251 628 L 245 627 L 244 626 L 238 626 L 234 622 L 231 613 L 231 609 L 229 603 L 229 598 L 227 594 L 227 585 L 224 582 L 225 575 L 226 574 L 226 568 L 224 568 L 221 570 L 219 568 L 220 561 L 223 554 L 223 551 L 226 545 L 226 540 L 224 540 L 221 542 L 219 540 L 222 534 L 222 532 L 226 525 L 225 522 L 221 522 L 220 520 L 226 509 L 226 507 L 229 504 L 233 505 L 234 504 L 234 500 L 227 484 L 227 478 L 225 474 L 222 477 L 220 475 L 221 452 L 220 451 L 216 454 L 215 453 L 215 448 L 216 447 L 217 439 L 222 426 L 222 423 L 219 423 L 216 425 L 214 423 L 214 420 L 224 401 L 228 396 L 227 393 L 221 394 L 219 391 L 234 372 L 233 369 L 229 370 L 227 367 L 237 352 L 237 347 L 239 343 L 241 333 L 244 327 L 244 322 L 243 321 L 238 321 L 235 324 L 231 333 L 231 335 L 227 340 L 219 339 L 218 338 L 219 332 L 217 331 L 210 331 L 209 330 L 201 330 L 199 329 L 198 327 L 201 324 L 201 322 L 199 320 L 188 319 L 187 318 L 183 318 L 174 315 L 172 313 L 174 311 L 179 309 L 178 306 L 163 301 L 160 301 L 151 296 L 148 293 L 150 291 L 153 291 L 155 289 L 155 287 L 148 281 L 144 280 L 141 277 L 134 273 L 119 258 L 111 246 L 108 240 L 108 238 L 102 227 L 102 225 L 98 218 L 98 216 L 74 197 L 63 184 L 59 176 L 59 167 L 61 165 L 63 165 L 65 167 L 65 171 L 69 179 L 74 184 L 79 184 L 81 182 L 81 177 L 82 176 L 81 172 L 78 169 L 71 169 L 68 168 L 66 166 L 71 161 L 75 159 L 83 159 L 86 160 L 88 159 L 89 157 L 89 151 L 88 149 L 84 145 L 73 138 L 69 138 L 68 135 L 71 132 L 76 132 L 90 143 L 96 143 L 97 144 L 104 142 L 107 139 L 107 135 L 104 129 L 104 127 L 101 121 L 98 118 L 93 116 L 90 116 L 88 118 L 87 125 L 86 126 L 84 125 L 82 118 L 83 115 L 89 109 L 95 109 L 98 111 L 110 124 L 113 131 L 116 134 L 121 134 L 124 137 L 131 137 L 134 133 L 134 124 L 132 121 L 131 115 L 125 109 L 123 109 L 120 113 L 117 112 L 117 109 L 121 105 L 126 106 L 134 114 L 138 126 L 141 131 L 144 131 L 152 122 L 155 121 L 160 122 L 164 126 L 167 134 L 167 149 L 166 150 L 166 154 L 164 159 L 164 165 L 174 175 L 189 195 L 195 200 L 200 197 L 205 203 L 211 215 L 215 220 L 218 219 L 219 214 L 221 212 L 225 216 L 229 224 L 235 231 L 237 230 L 237 227 L 240 224 L 244 229 L 248 237 L 251 240 L 253 239 L 253 235 L 256 234 L 265 241 L 272 248 L 274 248 L 276 246 L 276 241 L 274 237 L 270 233 L 263 223 L 258 223 L 256 221 L 253 211 L 251 211 L 251 213 L 249 215 L 245 212 L 243 207 L 243 203 L 242 202 L 243 191 L 240 191 L 238 193 L 236 193 L 234 191 L 234 185 L 235 184 L 235 179 L 237 174 L 237 170 L 234 170 L 233 171 L 230 171 L 229 170 L 230 164 L 237 150 L 234 149 L 229 151 L 227 149 L 227 147 L 239 133 L 237 126 L 247 103 L 245 100 L 242 100 L 237 97 L 229 89 L 226 83 L 226 80 L 225 79 L 225 70 L 226 69 L 227 62 L 230 56 L 242 45 L 253 41 L 262 41 L 274 47 L 279 54 L 282 56 L 291 49 L 301 44 L 306 43 L 307 40 L 309 38 L 314 38 L 315 37 L 328 37 L 329 36 L 329 33 L 326 29 L 326 27 L 328 25 L 331 25 L 340 29 L 344 32 L 346 32 L 353 24 L 359 21 L 361 23 L 359 29 L 360 32 L 365 32 L 366 31 L 381 31 L 382 32 L 387 32 L 388 33 L 397 34 L 408 38 L 411 29 L 414 25 L 423 17 L 433 13 L 445 13 L 446 14 Z M 457 7 L 448 4 L 440 4 L 439 3 L 426 5 L 414 11 L 401 25 L 398 24 L 392 24 L 391 23 L 385 23 L 384 22 L 371 22 L 369 20 L 368 17 L 363 13 L 356 13 L 348 17 L 344 21 L 333 16 L 325 16 L 322 17 L 319 20 L 318 22 L 318 27 L 316 29 L 310 29 L 304 31 L 289 39 L 286 42 L 283 42 L 280 39 L 272 34 L 266 32 L 262 32 L 261 31 L 254 31 L 253 32 L 245 33 L 231 40 L 223 48 L 217 58 L 215 64 L 215 67 L 214 68 L 214 79 L 215 80 L 216 87 L 223 99 L 234 108 L 228 121 L 228 125 L 227 126 L 228 132 L 220 141 L 218 146 L 218 152 L 223 158 L 223 161 L 221 163 L 221 166 L 220 167 L 220 173 L 222 177 L 225 180 L 225 192 L 227 197 L 233 203 L 233 206 L 232 207 L 230 207 L 224 202 L 216 203 L 208 191 L 203 186 L 194 184 L 188 178 L 184 171 L 176 163 L 175 158 L 177 152 L 177 130 L 176 129 L 176 126 L 171 118 L 167 114 L 161 111 L 151 111 L 145 113 L 142 110 L 136 99 L 129 94 L 119 93 L 112 96 L 105 102 L 102 102 L 95 99 L 86 99 L 80 102 L 75 108 L 74 111 L 74 118 L 73 120 L 70 123 L 60 128 L 57 131 L 55 135 L 54 141 L 55 142 L 55 148 L 56 149 L 56 156 L 49 164 L 49 167 L 48 168 L 49 179 L 57 193 L 76 212 L 83 216 L 89 222 L 98 244 L 111 265 L 122 277 L 127 281 L 130 282 L 135 287 L 136 294 L 138 298 L 144 304 L 149 306 L 151 308 L 157 310 L 160 313 L 161 318 L 166 323 L 171 325 L 182 327 L 190 336 L 195 338 L 203 339 L 209 345 L 224 350 L 224 354 L 218 366 L 218 378 L 213 384 L 209 393 L 209 398 L 212 402 L 212 404 L 207 413 L 205 419 L 205 425 L 204 426 L 205 431 L 209 436 L 207 442 L 207 445 L 206 446 L 206 460 L 210 467 L 210 476 L 213 485 L 220 493 L 215 509 L 212 514 L 210 520 L 210 524 L 211 527 L 213 529 L 209 539 L 210 547 L 213 550 L 210 559 L 210 563 L 211 556 L 213 553 L 213 549 L 210 546 L 209 543 L 210 536 L 213 531 L 213 528 L 211 526 L 210 522 L 211 521 L 212 515 L 215 510 L 220 495 L 220 492 L 215 487 L 212 482 L 211 476 L 210 475 L 210 466 L 206 459 L 206 446 L 209 438 L 209 435 L 205 430 L 205 419 L 213 403 L 209 397 L 210 390 L 219 377 L 218 374 L 218 367 L 225 353 L 225 350 L 210 345 L 204 339 L 196 338 L 189 335 L 184 327 L 172 325 L 165 322 L 162 319 L 161 317 L 161 313 L 158 310 L 145 304 L 138 297 L 136 293 L 136 288 L 135 286 L 122 276 L 110 263 L 104 254 L 94 235 L 90 222 L 85 217 L 77 212 L 59 195 L 50 181 L 49 178 L 49 165 L 57 155 L 56 147 L 55 146 L 55 136 L 57 132 L 62 127 L 71 123 L 74 119 L 74 111 L 76 107 L 82 101 L 86 99 L 94 99 L 102 103 L 106 103 L 114 95 L 120 93 L 123 93 L 133 98 L 138 103 L 144 114 L 152 111 L 160 111 L 166 114 L 173 122 L 176 128 L 176 132 L 177 133 L 177 150 L 176 151 L 176 157 L 175 158 L 175 162 L 176 164 L 185 173 L 189 180 L 194 185 L 200 185 L 204 187 L 216 204 L 223 202 L 230 208 L 231 211 L 233 211 L 233 202 L 227 196 L 225 191 L 226 180 L 221 175 L 221 165 L 222 162 L 224 160 L 224 158 L 219 153 L 218 151 L 218 147 L 220 142 L 229 132 L 228 129 L 228 122 L 235 108 L 229 104 L 222 97 L 218 91 L 218 89 L 215 83 L 215 79 L 214 78 L 214 70 L 215 69 L 215 65 L 217 59 L 223 49 L 232 40 L 241 35 L 247 33 L 251 33 L 252 32 L 264 32 L 276 37 L 283 43 L 285 43 L 290 39 L 301 34 L 303 32 L 305 32 L 308 30 L 318 29 L 319 28 L 318 26 L 319 21 L 323 17 L 326 17 L 327 16 L 334 17 L 342 21 L 345 21 L 349 17 L 354 14 L 362 13 L 368 18 L 370 22 L 381 22 L 382 23 L 402 25 L 409 16 L 416 10 L 424 6 L 427 6 L 432 4 L 445 4 L 446 5 L 450 5 L 464 11 L 478 24 L 484 37 L 484 41 L 485 42 L 485 53 L 483 57 L 483 60 L 477 70 L 472 75 L 472 78 L 478 86 L 483 96 L 485 98 L 489 106 L 489 111 L 493 114 L 501 123 L 501 129 L 497 133 L 497 136 L 501 141 L 504 149 L 503 156 L 499 160 L 499 162 L 501 165 L 501 170 L 502 171 L 501 178 L 495 185 L 494 196 L 492 200 L 487 205 L 484 214 L 480 220 L 480 224 L 488 233 L 488 238 L 491 241 L 504 247 L 512 254 L 513 256 L 512 262 L 520 267 L 526 273 L 527 275 L 527 280 L 533 283 L 539 289 L 540 291 L 539 298 L 547 304 L 557 314 L 559 318 L 559 321 L 557 323 L 557 326 L 574 343 L 577 348 L 577 353 L 574 356 L 574 358 L 583 370 L 583 372 L 586 378 L 584 382 L 584 385 L 592 399 L 592 408 L 590 410 L 590 412 L 592 415 L 595 424 L 595 427 L 596 428 L 596 440 L 594 443 L 594 446 L 595 447 L 595 466 L 594 467 L 594 471 L 593 472 L 591 482 L 585 493 L 582 497 L 572 506 L 569 507 L 567 509 L 565 509 L 560 512 L 558 512 L 549 516 L 537 516 L 532 513 L 526 515 L 520 514 L 517 512 L 514 513 L 515 519 L 516 520 L 516 525 L 515 528 L 513 530 L 513 532 L 516 537 L 517 543 L 518 544 L 518 549 L 514 554 L 514 556 L 517 561 L 519 567 L 520 575 L 519 578 L 514 582 L 514 587 L 515 588 L 515 606 L 514 607 L 514 619 L 513 620 L 513 625 L 512 626 L 511 633 L 516 636 L 525 646 L 529 656 L 529 668 L 528 669 L 528 672 L 525 677 L 519 683 L 512 687 L 509 687 L 505 689 L 501 689 L 496 691 L 490 691 L 489 692 L 481 692 L 480 693 L 434 693 L 433 692 L 426 692 L 425 691 L 420 691 L 419 690 L 412 689 L 400 684 L 393 678 L 389 671 L 389 668 L 388 667 L 388 656 L 389 655 L 389 650 L 390 649 L 391 642 L 385 633 L 384 627 L 383 626 L 383 622 L 382 621 L 382 611 L 381 610 L 381 607 L 378 604 L 376 600 L 376 598 L 374 595 L 372 584 L 370 580 L 370 577 L 368 575 L 351 575 L 350 576 L 350 583 L 348 589 L 348 598 L 346 603 L 342 608 L 342 612 L 343 613 L 342 630 L 341 633 L 337 638 L 337 657 L 333 667 L 326 673 L 320 676 L 317 676 L 309 679 L 304 679 L 303 680 L 298 680 L 297 681 L 291 681 L 290 682 L 282 682 L 281 683 L 266 683 L 265 684 L 229 683 L 228 682 L 216 681 L 215 680 L 212 680 L 211 679 L 208 679 L 198 675 L 191 668 L 188 661 L 188 650 L 191 641 L 193 639 L 194 636 L 202 628 L 208 624 L 217 621 L 220 621 L 221 620 L 221 614 L 219 609 L 218 599 L 217 598 L 217 594 L 215 588 L 215 577 L 210 572 L 209 565 L 210 572 L 215 578 L 215 589 L 216 590 L 216 595 L 217 596 L 217 600 L 218 601 L 218 605 L 219 606 L 219 610 L 220 611 L 221 618 L 218 621 L 215 621 L 209 623 L 201 628 L 194 635 L 190 642 L 188 648 L 188 662 L 191 669 L 196 674 L 206 679 L 210 679 L 211 680 L 219 681 L 220 682 L 225 682 L 226 683 L 234 683 L 235 684 L 275 684 L 276 683 L 285 683 L 286 682 L 293 682 L 294 681 L 305 680 L 310 678 L 318 677 L 327 673 L 333 668 L 337 659 L 337 654 L 338 653 L 337 639 L 341 634 L 342 628 L 343 627 L 343 606 L 347 602 L 348 599 L 348 590 L 349 589 L 349 584 L 350 583 L 350 577 L 352 575 L 355 575 L 356 576 L 367 576 L 370 579 L 375 599 L 378 605 L 381 608 L 382 623 L 383 624 L 384 631 L 386 636 L 390 641 L 390 648 L 388 654 L 388 669 L 392 677 L 401 685 L 414 690 L 422 691 L 423 692 L 428 692 L 429 693 L 439 693 L 440 694 L 474 694 L 475 693 L 487 693 L 488 692 L 499 691 L 500 690 L 503 690 L 504 689 L 507 689 L 513 687 L 520 683 L 525 678 L 528 673 L 529 666 L 530 665 L 530 661 L 529 660 L 529 655 L 527 649 L 521 640 L 512 633 L 512 629 L 514 623 L 514 614 L 515 613 L 515 583 L 520 577 L 520 570 L 515 557 L 515 554 L 518 550 L 518 542 L 517 541 L 517 538 L 514 533 L 514 529 L 516 527 L 516 517 L 515 515 L 518 513 L 522 515 L 533 514 L 539 517 L 551 516 L 571 507 L 577 503 L 582 498 L 587 491 L 591 483 L 593 477 L 593 474 L 594 473 L 594 470 L 595 469 L 595 462 L 596 461 L 595 442 L 597 439 L 597 432 L 596 431 L 596 426 L 591 413 L 591 410 L 593 407 L 593 401 L 587 388 L 584 384 L 586 380 L 586 376 L 581 366 L 574 358 L 577 354 L 577 348 L 575 344 L 557 325 L 559 322 L 559 317 L 556 312 L 539 297 L 540 294 L 540 290 L 539 288 L 535 284 L 529 281 L 527 279 L 527 274 L 526 272 L 522 268 L 513 262 L 513 255 L 511 252 L 505 247 L 492 241 L 489 238 L 489 234 L 488 232 L 480 223 L 480 221 L 485 213 L 487 206 L 492 201 L 494 197 L 495 186 L 501 179 L 502 168 L 500 164 L 500 159 L 504 154 L 504 147 L 502 144 L 501 140 L 497 135 L 501 129 L 501 123 L 499 119 L 489 110 L 489 105 L 485 97 L 472 77 L 479 68 L 484 58 L 484 55 L 485 54 L 485 40 L 484 39 L 483 33 L 477 22 L 468 13 Z" fill="#B1B1B1" fill-rule="evenodd"/><path d="M 463 635 L 463 636 L 472 636 L 472 635 Z M 274 143 L 274 145 L 273 146 L 273 159 L 275 163 L 283 171 L 291 174 L 294 177 L 294 181 L 295 182 L 295 185 L 298 191 L 298 193 L 300 195 L 301 198 L 308 207 L 308 208 L 321 222 L 329 227 L 331 226 L 324 219 L 320 212 L 320 207 L 325 197 L 332 190 L 333 190 L 338 186 L 342 184 L 347 183 L 348 182 L 357 182 L 358 183 L 361 183 L 366 186 L 370 190 L 371 192 L 371 200 L 370 201 L 369 206 L 363 217 L 364 218 L 367 215 L 372 206 L 372 204 L 375 197 L 375 193 L 376 192 L 376 189 L 377 188 L 377 183 L 378 182 L 378 159 L 377 158 L 377 154 L 375 150 L 373 148 L 372 148 L 370 150 L 368 154 L 360 161 L 354 164 L 352 164 L 349 166 L 346 166 L 342 168 L 332 169 L 331 168 L 325 168 L 324 167 L 319 167 L 318 166 L 314 166 L 313 165 L 307 165 L 305 167 L 298 171 L 292 171 L 291 170 L 287 169 L 284 166 L 283 166 L 279 161 L 278 157 L 277 156 L 277 147 L 278 146 L 278 141 L 277 140 Z M 332 131 L 328 127 L 322 124 L 314 123 L 313 122 L 301 123 L 300 124 L 297 124 L 294 126 L 292 126 L 287 129 L 284 132 L 284 140 L 287 145 L 295 152 L 297 153 L 300 153 L 301 154 L 310 154 L 322 149 L 329 143 L 333 136 Z M 291 101 L 287 101 L 284 104 L 282 108 L 282 111 L 281 112 L 281 120 L 284 124 L 288 123 L 293 118 L 294 114 L 295 113 L 295 107 L 294 106 L 294 104 Z M 372 94 L 367 100 L 367 103 L 366 104 L 366 111 L 367 112 L 368 116 L 372 120 L 376 121 L 378 120 L 382 115 L 382 112 L 383 111 L 383 105 L 382 104 L 382 101 L 380 97 L 377 94 Z M 300 64 L 297 62 L 294 62 L 290 64 L 284 69 L 284 70 L 282 72 L 282 75 L 283 76 L 286 75 L 293 69 L 299 67 L 300 66 Z M 366 54 L 367 56 L 369 57 L 372 57 L 375 59 L 377 59 L 383 63 L 386 63 L 387 62 L 387 59 L 386 57 L 378 52 L 376 52 L 375 51 L 370 51 Z M 456 8 L 454 8 L 450 6 L 446 6 L 445 5 L 432 5 L 431 6 L 424 7 L 416 11 L 413 14 L 412 14 L 402 26 L 389 25 L 388 24 L 382 24 L 381 23 L 370 23 L 368 21 L 367 18 L 362 14 L 357 14 L 356 15 L 354 15 L 349 18 L 345 22 L 342 22 L 334 18 L 327 17 L 326 18 L 323 18 L 320 21 L 320 23 L 319 24 L 320 28 L 318 30 L 308 31 L 305 33 L 303 33 L 301 35 L 290 40 L 285 44 L 283 44 L 276 38 L 268 34 L 265 34 L 264 33 L 252 33 L 251 34 L 247 34 L 246 35 L 241 36 L 237 38 L 235 40 L 232 41 L 224 49 L 218 59 L 218 61 L 216 65 L 216 69 L 215 70 L 215 78 L 216 79 L 216 83 L 219 89 L 219 91 L 221 93 L 223 97 L 229 103 L 233 105 L 236 108 L 229 122 L 229 129 L 230 130 L 230 132 L 221 142 L 220 146 L 219 147 L 219 151 L 220 153 L 225 158 L 225 160 L 223 162 L 223 164 L 222 165 L 222 175 L 227 180 L 227 183 L 226 184 L 226 191 L 227 192 L 227 194 L 228 196 L 234 202 L 234 211 L 233 212 L 231 212 L 229 208 L 223 203 L 216 205 L 211 199 L 210 196 L 205 190 L 205 189 L 200 186 L 194 186 L 188 180 L 184 173 L 175 164 L 174 162 L 174 158 L 175 157 L 175 151 L 176 150 L 176 133 L 175 132 L 175 128 L 174 127 L 174 125 L 169 119 L 169 118 L 166 115 L 160 112 L 152 112 L 151 113 L 144 115 L 142 113 L 137 103 L 133 99 L 126 95 L 120 94 L 119 95 L 114 96 L 106 104 L 102 104 L 94 100 L 86 100 L 82 102 L 77 107 L 75 111 L 75 119 L 74 121 L 71 124 L 67 126 L 65 126 L 63 128 L 62 128 L 58 132 L 56 136 L 56 146 L 57 147 L 58 155 L 50 165 L 50 178 L 51 179 L 51 181 L 53 183 L 55 188 L 60 194 L 60 195 L 77 211 L 85 216 L 91 222 L 91 224 L 92 225 L 93 230 L 95 233 L 95 235 L 100 245 L 102 247 L 105 254 L 107 256 L 111 263 L 122 275 L 123 275 L 127 279 L 132 282 L 136 286 L 137 288 L 137 293 L 139 297 L 145 303 L 148 304 L 150 306 L 152 306 L 158 309 L 162 313 L 162 317 L 165 321 L 172 324 L 184 326 L 187 329 L 187 331 L 189 334 L 196 337 L 201 337 L 202 338 L 204 338 L 210 344 L 217 347 L 224 348 L 226 350 L 226 353 L 219 367 L 219 374 L 220 375 L 220 377 L 211 390 L 210 397 L 214 402 L 214 403 L 206 419 L 206 430 L 210 435 L 210 438 L 209 439 L 208 445 L 207 446 L 207 459 L 208 460 L 208 462 L 211 466 L 211 475 L 212 476 L 213 482 L 216 487 L 221 492 L 221 495 L 220 496 L 216 510 L 213 515 L 212 521 L 211 522 L 211 524 L 214 528 L 214 531 L 211 536 L 210 543 L 211 544 L 211 546 L 214 549 L 214 553 L 212 556 L 212 559 L 211 560 L 211 563 L 210 564 L 210 569 L 211 570 L 211 572 L 216 577 L 216 588 L 217 589 L 217 593 L 218 594 L 218 598 L 219 599 L 220 609 L 221 610 L 221 613 L 222 614 L 222 620 L 220 622 L 217 622 L 216 623 L 208 625 L 206 627 L 202 629 L 195 636 L 190 646 L 190 649 L 189 650 L 189 661 L 190 662 L 190 664 L 192 668 L 198 674 L 202 676 L 204 676 L 208 678 L 211 678 L 212 679 L 215 679 L 216 680 L 228 681 L 229 682 L 242 682 L 243 683 L 265 683 L 266 682 L 281 682 L 282 681 L 290 681 L 291 680 L 297 680 L 298 679 L 309 678 L 310 677 L 313 677 L 317 675 L 320 675 L 329 670 L 332 667 L 335 661 L 335 658 L 336 657 L 336 638 L 340 633 L 340 631 L 341 630 L 341 622 L 342 621 L 342 613 L 341 612 L 341 608 L 345 603 L 346 599 L 347 598 L 347 589 L 348 588 L 348 584 L 349 583 L 349 576 L 351 574 L 368 574 L 371 577 L 371 580 L 373 584 L 375 595 L 377 598 L 377 600 L 379 604 L 382 607 L 382 610 L 383 611 L 383 621 L 384 622 L 385 630 L 388 637 L 392 642 L 392 645 L 391 646 L 391 649 L 390 650 L 390 655 L 389 656 L 389 667 L 390 668 L 390 671 L 394 678 L 400 683 L 412 688 L 415 688 L 416 689 L 419 689 L 420 690 L 425 690 L 426 691 L 433 691 L 434 692 L 480 692 L 481 691 L 496 690 L 497 689 L 500 689 L 501 688 L 505 688 L 509 686 L 512 686 L 519 682 L 524 677 L 527 672 L 527 669 L 528 668 L 528 656 L 527 655 L 526 650 L 521 642 L 516 637 L 515 637 L 510 633 L 510 631 L 511 630 L 511 626 L 512 625 L 512 620 L 513 619 L 513 607 L 514 606 L 514 588 L 513 587 L 513 582 L 518 578 L 518 576 L 519 575 L 519 573 L 518 572 L 518 567 L 517 566 L 516 561 L 513 556 L 513 554 L 517 549 L 517 544 L 516 543 L 516 540 L 512 532 L 512 530 L 514 528 L 514 526 L 515 525 L 515 520 L 514 519 L 513 513 L 515 511 L 517 511 L 520 513 L 523 513 L 524 514 L 532 512 L 537 515 L 549 515 L 550 514 L 555 513 L 558 511 L 560 511 L 565 508 L 567 508 L 569 506 L 575 503 L 581 497 L 581 496 L 586 490 L 590 482 L 591 476 L 592 475 L 592 472 L 593 471 L 593 467 L 594 466 L 594 447 L 593 446 L 593 443 L 595 440 L 595 428 L 594 427 L 594 424 L 593 423 L 591 415 L 589 412 L 589 410 L 591 408 L 591 399 L 586 389 L 583 385 L 583 382 L 585 378 L 582 372 L 582 370 L 573 358 L 573 356 L 576 353 L 576 348 L 575 346 L 573 344 L 573 343 L 556 326 L 556 323 L 558 321 L 558 318 L 556 314 L 547 305 L 546 305 L 538 298 L 538 294 L 539 293 L 538 289 L 533 284 L 528 282 L 526 280 L 526 275 L 525 273 L 520 268 L 519 268 L 511 262 L 511 259 L 512 258 L 511 254 L 504 248 L 491 242 L 487 238 L 487 233 L 479 224 L 479 220 L 481 218 L 483 214 L 485 207 L 491 200 L 493 196 L 493 189 L 494 188 L 494 185 L 500 178 L 500 174 L 501 173 L 501 171 L 500 170 L 500 165 L 498 162 L 498 160 L 502 156 L 502 154 L 503 153 L 503 149 L 502 148 L 502 145 L 500 141 L 496 136 L 496 133 L 500 129 L 500 123 L 499 121 L 488 111 L 488 106 L 484 98 L 482 96 L 477 86 L 471 78 L 471 75 L 476 70 L 482 60 L 482 57 L 484 53 L 484 42 L 483 41 L 483 37 L 480 31 L 480 29 L 477 24 L 467 14 Z M 453 14 L 461 19 L 469 27 L 469 28 L 473 33 L 474 37 L 475 38 L 475 41 L 476 42 L 476 51 L 475 52 L 474 58 L 470 65 L 463 72 L 461 73 L 461 76 L 468 85 L 474 97 L 482 108 L 477 112 L 487 118 L 493 124 L 493 126 L 490 129 L 482 128 L 481 130 L 490 139 L 495 147 L 495 151 L 493 153 L 486 151 L 486 154 L 489 158 L 490 162 L 493 167 L 493 171 L 494 173 L 491 176 L 489 176 L 486 173 L 485 174 L 485 177 L 486 178 L 486 194 L 483 197 L 482 197 L 480 195 L 478 196 L 478 204 L 477 205 L 477 207 L 472 217 L 466 224 L 465 227 L 466 228 L 470 228 L 472 230 L 472 231 L 470 233 L 472 235 L 474 235 L 478 238 L 475 241 L 476 243 L 480 244 L 483 246 L 485 246 L 499 253 L 501 255 L 501 256 L 499 258 L 494 258 L 493 259 L 494 260 L 501 263 L 504 266 L 517 274 L 520 277 L 520 278 L 517 281 L 513 281 L 513 282 L 517 285 L 528 290 L 531 293 L 531 294 L 529 296 L 524 296 L 524 298 L 528 300 L 531 303 L 539 308 L 550 318 L 550 319 L 548 321 L 543 321 L 542 320 L 540 320 L 540 321 L 568 348 L 566 350 L 561 350 L 560 349 L 558 349 L 558 350 L 576 374 L 576 376 L 574 378 L 570 377 L 570 379 L 576 387 L 583 400 L 583 402 L 581 404 L 579 403 L 578 404 L 580 407 L 580 409 L 582 413 L 582 416 L 583 417 L 583 419 L 586 426 L 586 429 L 588 433 L 588 435 L 586 437 L 584 436 L 583 437 L 584 438 L 584 442 L 585 443 L 585 465 L 584 466 L 583 474 L 582 475 L 580 483 L 578 485 L 576 490 L 568 498 L 566 499 L 564 497 L 565 491 L 566 490 L 566 485 L 564 484 L 563 485 L 561 493 L 558 499 L 553 504 L 549 506 L 547 506 L 546 507 L 541 507 L 537 504 L 542 493 L 542 486 L 540 486 L 537 491 L 536 495 L 529 503 L 525 504 L 524 505 L 516 503 L 509 496 L 508 494 L 513 486 L 513 484 L 516 477 L 516 472 L 514 470 L 512 472 L 509 480 L 503 486 L 499 486 L 497 485 L 491 479 L 489 475 L 489 473 L 488 472 L 488 457 L 489 456 L 490 450 L 493 444 L 493 436 L 492 435 L 492 431 L 491 430 L 491 426 L 490 425 L 490 421 L 489 420 L 489 416 L 488 415 L 486 404 L 484 400 L 484 397 L 483 396 L 481 388 L 479 385 L 478 380 L 474 373 L 473 369 L 471 367 L 464 353 L 457 345 L 456 346 L 457 351 L 465 366 L 465 368 L 470 377 L 470 379 L 472 382 L 473 387 L 475 390 L 475 393 L 478 400 L 479 408 L 480 409 L 480 412 L 481 413 L 481 416 L 482 417 L 482 421 L 483 422 L 484 431 L 485 432 L 485 435 L 486 436 L 486 443 L 484 446 L 484 448 L 482 452 L 482 455 L 481 456 L 481 460 L 480 461 L 480 470 L 481 471 L 481 475 L 486 486 L 492 492 L 496 494 L 499 494 L 502 497 L 503 503 L 504 504 L 504 507 L 505 508 L 506 517 L 507 518 L 507 521 L 505 523 L 502 523 L 502 526 L 509 541 L 509 545 L 507 547 L 500 543 L 499 544 L 505 554 L 507 561 L 510 566 L 511 571 L 509 573 L 504 570 L 503 571 L 507 578 L 507 581 L 504 584 L 505 586 L 505 591 L 506 592 L 506 602 L 505 603 L 505 616 L 504 617 L 504 622 L 503 623 L 502 632 L 499 635 L 499 637 L 507 641 L 516 650 L 519 657 L 519 669 L 518 670 L 518 672 L 514 677 L 513 677 L 511 679 L 506 680 L 504 678 L 505 676 L 505 669 L 504 668 L 504 665 L 502 661 L 500 659 L 498 659 L 497 660 L 498 672 L 499 673 L 498 675 L 498 679 L 495 682 L 493 682 L 492 683 L 488 683 L 487 684 L 480 684 L 478 682 L 478 677 L 479 676 L 479 674 L 478 673 L 478 668 L 477 667 L 476 663 L 473 661 L 472 661 L 470 663 L 471 665 L 471 672 L 472 673 L 472 682 L 469 685 L 448 685 L 446 683 L 446 668 L 445 667 L 445 664 L 444 663 L 441 663 L 439 666 L 439 676 L 440 677 L 440 683 L 438 685 L 435 685 L 434 684 L 426 684 L 425 683 L 420 683 L 419 682 L 416 682 L 415 681 L 410 680 L 404 677 L 399 672 L 398 668 L 397 667 L 397 654 L 398 653 L 398 650 L 399 649 L 399 633 L 398 632 L 396 634 L 394 634 L 393 633 L 393 631 L 392 630 L 392 614 L 390 614 L 388 612 L 388 597 L 386 598 L 383 595 L 383 592 L 382 591 L 382 588 L 381 587 L 381 583 L 376 573 L 379 570 L 382 569 L 384 567 L 384 565 L 383 564 L 378 564 L 377 565 L 372 565 L 371 566 L 366 566 L 365 567 L 356 567 L 355 566 L 349 566 L 348 565 L 341 565 L 340 564 L 331 563 L 330 562 L 327 562 L 326 561 L 320 560 L 319 559 L 316 559 L 315 558 L 312 558 L 311 560 L 316 564 L 320 566 L 334 570 L 335 571 L 339 571 L 341 573 L 341 578 L 340 579 L 340 582 L 338 586 L 338 598 L 336 600 L 335 600 L 333 598 L 332 599 L 332 604 L 333 605 L 333 630 L 331 632 L 329 632 L 328 631 L 326 632 L 327 634 L 327 640 L 328 641 L 328 655 L 327 656 L 326 661 L 324 663 L 324 664 L 321 667 L 317 669 L 311 670 L 310 671 L 306 671 L 305 672 L 300 672 L 299 673 L 293 673 L 292 674 L 283 674 L 282 675 L 276 675 L 275 676 L 241 676 L 239 674 L 239 672 L 238 671 L 238 668 L 239 667 L 239 661 L 241 657 L 241 654 L 240 653 L 238 653 L 235 656 L 233 663 L 232 664 L 233 673 L 231 675 L 229 674 L 222 674 L 221 673 L 218 673 L 214 670 L 214 659 L 215 658 L 215 655 L 217 651 L 216 649 L 214 649 L 210 653 L 210 655 L 209 656 L 209 659 L 208 660 L 208 665 L 209 666 L 209 668 L 207 670 L 205 670 L 199 665 L 198 663 L 198 660 L 197 659 L 197 655 L 198 654 L 199 646 L 202 640 L 208 634 L 213 631 L 219 630 L 220 629 L 223 629 L 224 628 L 232 628 L 235 626 L 231 618 L 231 615 L 230 614 L 230 611 L 229 610 L 228 599 L 226 595 L 226 587 L 222 584 L 222 582 L 223 581 L 223 577 L 224 576 L 224 573 L 225 571 L 223 570 L 221 572 L 220 572 L 218 570 L 218 564 L 219 563 L 219 560 L 220 559 L 221 553 L 222 552 L 222 550 L 225 543 L 224 542 L 221 544 L 219 544 L 217 542 L 218 538 L 221 533 L 221 531 L 224 526 L 224 524 L 220 524 L 218 522 L 218 521 L 225 508 L 225 505 L 226 503 L 228 501 L 229 501 L 231 503 L 232 502 L 232 499 L 227 489 L 225 478 L 221 480 L 219 478 L 219 476 L 218 475 L 218 469 L 219 468 L 219 459 L 220 458 L 220 455 L 219 454 L 216 458 L 214 456 L 214 446 L 215 445 L 217 434 L 220 428 L 220 425 L 216 427 L 214 427 L 212 425 L 212 422 L 219 407 L 226 397 L 226 395 L 219 396 L 217 394 L 217 392 L 221 387 L 221 386 L 233 372 L 232 371 L 227 371 L 225 369 L 225 367 L 235 353 L 236 345 L 237 344 L 238 338 L 240 335 L 243 324 L 242 323 L 239 323 L 236 326 L 236 328 L 231 338 L 228 341 L 220 341 L 219 340 L 217 340 L 215 338 L 215 336 L 216 335 L 215 333 L 213 333 L 212 332 L 203 332 L 202 331 L 198 331 L 195 329 L 195 327 L 198 324 L 197 322 L 195 321 L 192 321 L 191 320 L 184 320 L 183 319 L 176 318 L 172 316 L 170 314 L 170 312 L 172 310 L 175 309 L 176 308 L 175 307 L 171 306 L 170 305 L 167 305 L 166 304 L 160 303 L 152 299 L 145 293 L 145 292 L 148 289 L 152 288 L 148 284 L 132 274 L 120 262 L 120 261 L 115 255 L 111 247 L 109 245 L 107 241 L 107 239 L 101 228 L 101 226 L 96 216 L 88 211 L 79 203 L 78 203 L 65 190 L 62 184 L 60 182 L 58 178 L 58 175 L 57 174 L 57 169 L 58 168 L 58 166 L 61 163 L 66 163 L 70 160 L 70 157 L 67 153 L 64 146 L 64 141 L 65 140 L 65 137 L 71 130 L 75 130 L 77 132 L 82 134 L 87 138 L 88 137 L 81 123 L 81 116 L 82 114 L 88 108 L 90 107 L 94 107 L 99 110 L 110 121 L 115 129 L 116 128 L 116 124 L 115 123 L 115 115 L 114 114 L 114 111 L 115 110 L 115 108 L 118 105 L 122 103 L 125 103 L 127 104 L 134 111 L 137 116 L 138 121 L 142 129 L 143 129 L 151 121 L 153 121 L 154 120 L 159 120 L 161 121 L 165 125 L 167 129 L 167 132 L 168 133 L 168 151 L 167 152 L 167 156 L 165 160 L 165 164 L 175 174 L 175 175 L 179 179 L 179 180 L 183 184 L 183 185 L 187 189 L 187 190 L 191 194 L 191 195 L 195 198 L 198 195 L 200 195 L 206 202 L 213 216 L 215 218 L 217 218 L 218 217 L 218 212 L 219 211 L 222 211 L 226 215 L 230 223 L 234 228 L 236 227 L 236 224 L 238 222 L 239 222 L 243 225 L 247 233 L 251 238 L 252 237 L 252 233 L 254 231 L 257 232 L 263 238 L 266 239 L 272 246 L 274 246 L 275 245 L 275 242 L 271 237 L 269 233 L 266 230 L 263 225 L 259 226 L 254 221 L 253 215 L 251 215 L 249 217 L 248 217 L 244 213 L 243 209 L 242 208 L 242 205 L 241 204 L 241 194 L 240 193 L 238 195 L 236 195 L 233 192 L 233 182 L 234 181 L 234 178 L 235 177 L 235 172 L 233 173 L 230 173 L 228 171 L 228 165 L 235 152 L 234 151 L 232 152 L 227 152 L 225 150 L 225 148 L 227 144 L 237 134 L 237 129 L 236 128 L 237 121 L 245 105 L 245 103 L 243 101 L 241 101 L 236 98 L 228 90 L 225 84 L 225 81 L 224 80 L 224 68 L 225 67 L 225 63 L 229 55 L 241 44 L 245 42 L 250 41 L 251 40 L 264 40 L 272 44 L 281 54 L 283 54 L 292 47 L 300 43 L 304 42 L 306 40 L 306 39 L 310 36 L 324 36 L 325 35 L 327 35 L 327 32 L 324 28 L 324 25 L 326 23 L 333 24 L 344 30 L 346 30 L 352 23 L 357 20 L 361 20 L 363 22 L 363 24 L 361 27 L 361 31 L 363 30 L 369 30 L 370 29 L 374 29 L 375 30 L 385 30 L 386 31 L 390 31 L 391 32 L 399 33 L 405 36 L 407 36 L 408 35 L 408 32 L 413 24 L 419 18 L 428 13 L 430 13 L 431 12 L 435 12 L 436 11 L 440 11 L 441 12 L 447 12 L 448 13 Z" fill="#010101" fill-rule="evenodd"/></svg>