<svg xmlns="http://www.w3.org/2000/svg" viewBox="0 0 653 704" shape-rendering="geometricPrecision"><title>intro frame 096</title><path d="M 470 512 L 458 522 L 454 522 L 450 525 L 445 531 L 441 528 L 433 538 L 429 536 L 421 546 L 417 544 L 412 550 L 404 557 L 399 565 L 399 567 L 395 571 L 391 578 L 389 584 L 389 588 L 388 589 L 392 593 L 391 608 L 394 608 L 396 610 L 396 617 L 395 618 L 395 625 L 396 628 L 399 627 L 402 630 L 402 641 L 403 642 L 403 645 L 402 646 L 401 654 L 400 655 L 400 667 L 402 671 L 408 676 L 414 677 L 417 679 L 420 679 L 421 680 L 425 680 L 426 681 L 435 681 L 436 680 L 436 665 L 440 659 L 444 659 L 448 663 L 448 667 L 449 668 L 449 681 L 450 682 L 468 682 L 469 681 L 469 677 L 468 676 L 468 660 L 470 658 L 475 658 L 479 662 L 481 666 L 481 669 L 482 670 L 482 680 L 491 680 L 495 678 L 495 668 L 494 667 L 493 659 L 497 655 L 500 656 L 505 661 L 508 669 L 508 675 L 509 676 L 511 675 L 515 670 L 516 662 L 515 661 L 515 656 L 513 651 L 506 644 L 499 641 L 497 639 L 493 639 L 492 638 L 488 638 L 486 640 L 459 639 L 458 640 L 452 640 L 451 641 L 446 641 L 445 640 L 435 640 L 433 641 L 432 640 L 433 638 L 439 635 L 443 635 L 444 634 L 451 634 L 452 633 L 458 633 L 459 632 L 480 632 L 483 633 L 481 627 L 481 623 L 483 620 L 483 616 L 485 614 L 487 614 L 490 618 L 490 623 L 493 621 L 486 608 L 486 606 L 484 604 L 486 601 L 488 604 L 491 606 L 493 604 L 493 601 L 485 595 L 481 594 L 465 580 L 467 578 L 470 578 L 482 584 L 486 584 L 487 585 L 488 584 L 488 581 L 474 565 L 474 564 L 477 562 L 488 569 L 489 566 L 487 563 L 487 561 L 484 556 L 478 552 L 474 551 L 472 549 L 473 547 L 484 548 L 485 546 L 481 543 L 477 538 L 479 536 L 486 538 L 486 536 L 479 529 L 477 526 L 474 517 Z M 445 583 L 454 594 L 456 598 L 456 601 L 455 602 L 453 602 L 443 590 L 443 585 Z M 436 581 L 437 582 L 437 587 L 435 592 L 433 594 L 431 592 L 431 588 L 433 585 L 433 583 Z M 409 562 L 411 564 L 410 569 L 408 573 L 406 575 L 404 575 L 402 572 L 404 570 L 406 564 Z M 229 508 L 225 516 L 223 518 L 223 519 L 226 519 L 228 521 L 228 525 L 223 535 L 223 538 L 227 537 L 229 539 L 229 542 L 224 554 L 224 557 L 222 561 L 222 566 L 225 566 L 226 565 L 229 568 L 228 570 L 228 574 L 227 575 L 227 581 L 229 583 L 229 594 L 231 597 L 231 604 L 232 605 L 233 614 L 235 620 L 239 624 L 243 624 L 244 625 L 251 626 L 254 628 L 256 628 L 259 632 L 257 634 L 252 634 L 243 631 L 225 631 L 210 636 L 205 640 L 202 646 L 201 655 L 200 656 L 201 662 L 203 665 L 205 665 L 205 659 L 207 655 L 207 652 L 213 646 L 218 645 L 220 647 L 221 650 L 218 657 L 217 667 L 221 670 L 228 671 L 229 670 L 229 662 L 232 655 L 237 650 L 241 650 L 244 653 L 244 657 L 242 661 L 242 666 L 241 667 L 241 671 L 244 673 L 263 673 L 264 672 L 273 672 L 276 668 L 278 668 L 282 666 L 286 662 L 290 661 L 293 658 L 295 653 L 294 648 L 288 642 L 288 637 L 287 635 L 289 633 L 292 635 L 293 631 L 295 629 L 297 629 L 296 625 L 293 621 L 293 619 L 297 616 L 297 612 L 296 611 L 296 608 L 292 601 L 286 596 L 285 588 L 288 587 L 294 594 L 295 592 L 292 589 L 292 587 L 296 582 L 287 574 L 282 567 L 276 561 L 264 542 L 261 539 L 259 539 L 252 531 L 251 528 L 243 520 L 239 518 L 233 512 L 233 511 Z M 258 581 L 260 583 L 260 585 L 257 588 L 255 586 L 255 584 Z M 266 575 L 269 576 L 272 581 L 272 583 L 274 585 L 274 588 L 272 590 L 267 585 L 265 579 L 265 576 Z M 281 571 L 283 573 L 283 579 L 282 580 L 282 583 L 280 584 L 278 582 L 278 576 L 279 573 Z M 248 566 L 250 568 L 249 571 L 243 577 L 242 577 L 240 574 Z M 465 424 L 465 427 L 470 431 L 471 430 L 470 428 Z M 217 148 L 214 151 L 213 156 L 220 167 L 222 163 L 222 158 L 220 156 Z M 108 126 L 103 124 L 101 125 L 99 128 L 100 129 Z M 200 112 L 200 113 L 205 113 L 209 118 L 210 118 L 210 116 L 208 113 L 206 112 Z M 142 82 L 142 84 L 144 83 L 150 83 L 152 84 L 153 86 L 154 85 L 150 80 L 145 80 Z M 447 15 L 441 15 L 439 14 L 438 15 L 434 15 L 428 18 L 426 18 L 416 27 L 413 32 L 413 36 L 410 39 L 403 38 L 400 36 L 397 36 L 396 35 L 391 35 L 390 34 L 385 34 L 384 33 L 367 33 L 366 34 L 361 34 L 359 32 L 359 27 L 360 25 L 358 24 L 347 34 L 333 27 L 330 27 L 329 28 L 332 32 L 332 36 L 329 39 L 313 39 L 311 40 L 307 45 L 295 49 L 285 57 L 282 57 L 273 47 L 264 43 L 252 43 L 243 47 L 234 55 L 230 63 L 229 70 L 228 71 L 229 81 L 233 89 L 238 94 L 245 98 L 247 98 L 250 101 L 250 104 L 246 111 L 246 113 L 242 120 L 242 123 L 241 124 L 242 135 L 231 147 L 232 148 L 234 147 L 238 147 L 240 149 L 240 153 L 237 157 L 233 166 L 234 168 L 236 167 L 239 167 L 240 168 L 240 175 L 238 181 L 238 189 L 239 190 L 242 187 L 244 187 L 246 189 L 246 196 L 245 198 L 246 199 L 246 205 L 247 208 L 250 210 L 253 206 L 256 209 L 259 217 L 262 218 L 272 229 L 285 236 L 289 237 L 296 245 L 296 248 L 294 250 L 292 250 L 288 246 L 286 246 L 281 243 L 279 244 L 279 247 L 276 250 L 273 250 L 268 245 L 265 240 L 263 243 L 260 243 L 258 241 L 256 235 L 253 230 L 250 232 L 248 232 L 244 228 L 242 224 L 242 221 L 239 216 L 233 218 L 229 214 L 223 195 L 222 194 L 217 195 L 215 193 L 210 183 L 208 176 L 206 174 L 201 163 L 196 157 L 196 151 L 201 146 L 205 139 L 204 138 L 199 141 L 195 141 L 193 142 L 192 141 L 189 141 L 185 136 L 185 128 L 191 120 L 191 118 L 188 118 L 186 116 L 185 113 L 178 121 L 173 121 L 167 116 L 163 115 L 160 112 L 152 119 L 144 119 L 140 117 L 138 118 L 134 117 L 133 118 L 133 125 L 132 127 L 127 131 L 121 131 L 116 127 L 114 127 L 121 139 L 121 142 L 122 142 L 134 130 L 148 122 L 151 122 L 152 121 L 166 121 L 169 123 L 171 123 L 177 129 L 181 135 L 183 141 L 183 144 L 184 145 L 183 156 L 178 163 L 171 167 L 165 169 L 162 169 L 158 171 L 149 172 L 148 173 L 133 174 L 128 172 L 121 166 L 117 158 L 117 150 L 115 150 L 112 152 L 109 152 L 107 151 L 103 146 L 101 146 L 106 158 L 121 179 L 122 182 L 122 188 L 123 189 L 123 194 L 125 198 L 125 204 L 127 204 L 131 208 L 136 217 L 140 221 L 145 231 L 151 238 L 153 242 L 173 261 L 182 266 L 184 266 L 187 268 L 196 271 L 200 275 L 200 277 L 197 280 L 192 280 L 190 282 L 193 284 L 200 284 L 201 285 L 209 285 L 214 290 L 216 290 L 219 292 L 225 292 L 228 293 L 231 297 L 228 300 L 222 301 L 218 303 L 221 305 L 227 307 L 231 307 L 232 308 L 238 308 L 242 303 L 243 300 L 250 294 L 254 293 L 256 295 L 256 300 L 246 321 L 246 327 L 244 331 L 244 335 L 256 325 L 262 322 L 265 324 L 265 326 L 252 344 L 242 352 L 239 353 L 230 365 L 231 367 L 232 366 L 235 367 L 237 369 L 237 371 L 222 390 L 223 391 L 228 390 L 230 392 L 230 396 L 226 401 L 216 420 L 217 422 L 220 420 L 222 420 L 224 422 L 224 426 L 221 432 L 221 435 L 219 439 L 217 450 L 222 446 L 224 448 L 223 461 L 222 462 L 222 472 L 225 470 L 228 472 L 229 474 L 229 482 L 231 488 L 232 489 L 235 487 L 237 489 L 240 497 L 241 497 L 242 495 L 245 496 L 250 509 L 252 510 L 255 507 L 259 511 L 265 521 L 266 521 L 268 518 L 278 529 L 279 529 L 279 527 L 281 525 L 283 525 L 292 536 L 296 533 L 302 540 L 303 540 L 303 539 L 291 520 L 289 514 L 289 510 L 288 509 L 288 506 L 290 504 L 292 506 L 294 512 L 298 519 L 304 527 L 308 530 L 314 537 L 318 538 L 320 537 L 323 533 L 325 533 L 328 537 L 331 537 L 345 524 L 347 524 L 348 525 L 348 528 L 344 536 L 344 542 L 345 543 L 349 539 L 353 537 L 356 534 L 359 533 L 363 529 L 365 529 L 367 531 L 367 533 L 362 543 L 364 544 L 366 542 L 370 541 L 375 536 L 380 529 L 381 526 L 388 519 L 390 521 L 390 524 L 387 531 L 387 535 L 390 529 L 394 517 L 394 514 L 396 512 L 399 514 L 400 517 L 400 526 L 397 534 L 398 536 L 410 522 L 417 507 L 419 505 L 421 505 L 423 507 L 422 517 L 419 522 L 419 525 L 420 525 L 431 513 L 433 507 L 435 505 L 436 499 L 438 497 L 439 494 L 442 496 L 442 505 L 441 506 L 441 509 L 443 509 L 450 499 L 454 487 L 457 485 L 459 487 L 459 490 L 461 489 L 461 486 L 465 477 L 465 468 L 464 465 L 467 461 L 467 453 L 464 448 L 464 446 L 467 443 L 470 444 L 470 439 L 467 436 L 461 425 L 461 423 L 458 420 L 456 416 L 458 415 L 463 419 L 467 420 L 469 417 L 469 415 L 465 409 L 458 405 L 449 404 L 446 401 L 446 399 L 448 397 L 450 397 L 451 398 L 459 399 L 466 403 L 467 402 L 463 394 L 461 392 L 461 390 L 458 384 L 455 381 L 457 379 L 461 381 L 462 380 L 461 378 L 451 369 L 446 362 L 447 360 L 453 364 L 458 365 L 458 362 L 456 359 L 456 357 L 450 352 L 442 351 L 441 350 L 436 350 L 432 347 L 432 345 L 434 343 L 438 343 L 440 345 L 443 345 L 450 350 L 453 350 L 453 348 L 449 340 L 445 335 L 447 332 L 451 333 L 449 327 L 449 325 L 451 323 L 461 336 L 463 342 L 467 347 L 468 350 L 470 352 L 470 354 L 476 363 L 481 374 L 481 377 L 485 385 L 488 394 L 488 397 L 490 401 L 490 405 L 492 409 L 493 418 L 494 419 L 495 427 L 496 428 L 496 433 L 498 438 L 498 442 L 493 455 L 493 460 L 492 461 L 492 470 L 495 478 L 500 482 L 505 482 L 507 480 L 511 470 L 515 466 L 517 466 L 520 470 L 520 479 L 517 488 L 513 493 L 513 495 L 515 498 L 521 501 L 528 501 L 534 494 L 534 492 L 537 488 L 539 483 L 541 481 L 543 481 L 546 484 L 546 494 L 544 500 L 542 502 L 543 503 L 549 503 L 551 501 L 553 501 L 556 498 L 557 494 L 560 490 L 560 487 L 562 483 L 565 480 L 567 480 L 570 483 L 570 492 L 569 493 L 570 494 L 575 489 L 582 472 L 583 460 L 584 459 L 584 447 L 583 446 L 583 439 L 581 433 L 583 431 L 585 431 L 585 429 L 582 422 L 582 419 L 581 418 L 581 415 L 579 409 L 574 401 L 574 398 L 575 397 L 578 397 L 579 398 L 579 396 L 573 388 L 568 379 L 565 376 L 565 373 L 566 372 L 569 372 L 573 374 L 573 373 L 567 366 L 565 362 L 553 349 L 553 347 L 555 345 L 558 345 L 560 347 L 563 347 L 563 346 L 534 319 L 536 317 L 541 317 L 542 318 L 545 318 L 546 317 L 535 308 L 531 306 L 528 303 L 523 301 L 520 298 L 520 296 L 522 294 L 526 294 L 527 293 L 526 292 L 518 289 L 506 281 L 508 278 L 516 278 L 516 277 L 502 267 L 499 266 L 497 264 L 491 262 L 488 259 L 491 255 L 495 255 L 495 254 L 490 253 L 486 250 L 481 249 L 473 245 L 470 245 L 467 243 L 456 243 L 455 244 L 453 243 L 452 244 L 453 246 L 449 250 L 447 250 L 444 247 L 430 247 L 429 246 L 427 246 L 424 249 L 419 249 L 417 247 L 417 240 L 416 240 L 415 243 L 410 248 L 409 251 L 407 253 L 405 253 L 403 251 L 405 245 L 413 236 L 418 235 L 424 227 L 427 229 L 427 233 L 428 234 L 430 232 L 430 226 L 431 223 L 433 221 L 435 221 L 438 224 L 440 221 L 440 215 L 439 213 L 442 211 L 446 215 L 447 214 L 447 209 L 450 206 L 450 204 L 452 202 L 456 203 L 456 200 L 448 192 L 449 190 L 453 190 L 461 194 L 462 191 L 458 184 L 458 182 L 459 181 L 463 181 L 467 183 L 469 181 L 469 178 L 464 172 L 465 171 L 468 171 L 469 172 L 470 171 L 470 168 L 462 159 L 463 156 L 468 157 L 475 161 L 477 163 L 478 166 L 482 168 L 480 169 L 481 172 L 482 172 L 484 169 L 487 169 L 490 171 L 491 170 L 489 163 L 483 152 L 483 150 L 486 147 L 488 147 L 491 149 L 493 148 L 489 141 L 478 129 L 478 127 L 480 125 L 489 126 L 490 124 L 475 113 L 475 110 L 479 107 L 474 100 L 464 82 L 458 76 L 458 72 L 464 68 L 470 62 L 474 53 L 474 40 L 473 39 L 473 36 L 465 25 L 457 19 Z M 285 512 L 287 514 L 288 517 L 287 519 L 286 519 L 283 515 Z M 265 498 L 268 502 L 268 504 L 266 506 L 264 504 L 264 501 L 263 500 Z M 428 495 L 430 496 L 430 501 L 429 502 L 427 501 L 427 496 Z M 408 489 L 412 492 L 412 495 L 413 496 L 413 504 L 410 507 L 408 505 L 409 503 L 409 496 L 410 495 L 407 490 Z M 269 487 L 272 490 L 280 508 L 280 511 L 277 514 L 273 510 L 270 504 L 270 501 L 268 497 L 268 488 Z M 272 464 L 273 465 L 273 469 L 272 470 L 272 473 L 269 476 L 267 473 L 268 472 L 269 466 Z M 436 454 L 439 456 L 440 459 L 442 461 L 448 477 L 448 481 L 446 483 L 443 481 L 439 490 L 437 492 L 431 491 L 429 489 L 429 483 L 430 480 L 426 475 L 425 472 L 428 470 L 434 477 L 436 476 L 436 463 L 434 458 L 434 456 Z M 258 440 L 260 442 L 260 445 L 254 463 L 251 466 L 248 463 L 249 454 L 252 448 L 252 446 Z M 412 423 L 413 422 L 419 424 L 427 423 L 430 424 L 432 426 L 429 429 L 424 429 L 424 432 L 423 433 L 420 433 L 413 426 Z M 257 416 L 258 417 L 258 420 L 252 427 L 250 433 L 249 434 L 245 434 L 243 431 L 245 428 L 246 424 L 251 418 Z M 428 402 L 430 402 L 434 405 L 443 409 L 449 416 L 447 418 L 441 418 L 439 417 L 438 418 L 438 421 L 441 424 L 439 426 L 438 426 L 434 421 L 432 411 L 427 405 Z M 421 394 L 423 392 L 428 392 L 431 396 L 429 398 L 428 397 L 424 397 Z M 436 384 L 437 384 L 443 390 L 443 392 L 441 394 L 437 392 L 434 389 L 434 386 Z M 436 372 L 438 370 L 444 370 L 448 373 L 447 378 L 444 381 L 442 381 L 439 378 Z M 385 370 L 386 369 L 390 369 L 402 378 L 407 379 L 409 381 L 408 384 L 406 386 L 403 385 L 396 378 L 387 373 Z M 409 365 L 411 364 L 415 368 L 418 369 L 420 371 L 420 373 L 418 375 L 412 377 L 409 374 Z M 535 356 L 538 355 L 541 358 L 538 359 Z M 434 329 L 436 328 L 439 331 L 437 333 Z M 425 326 L 428 325 L 430 327 L 429 328 L 426 328 Z M 429 312 L 431 312 L 435 317 L 437 321 L 435 324 L 430 318 L 428 314 Z M 412 316 L 412 315 L 416 312 L 419 312 L 420 313 L 420 315 L 417 318 L 414 318 Z M 374 311 L 377 315 L 375 318 L 372 315 L 372 312 Z M 378 310 L 380 309 L 387 315 L 389 315 L 390 314 L 390 311 L 392 310 L 393 311 L 393 317 L 391 319 L 383 318 L 378 313 Z M 322 305 L 323 307 L 320 310 L 317 311 L 315 309 L 320 305 Z M 422 302 L 425 307 L 425 309 L 420 313 L 419 312 L 420 310 L 420 304 Z M 433 298 L 438 302 L 438 304 L 436 306 L 431 301 Z M 383 292 L 387 295 L 387 298 L 390 304 L 389 307 L 381 298 L 381 294 Z M 312 290 L 314 292 L 310 298 L 306 301 L 305 300 L 305 297 L 307 294 Z M 419 288 L 422 289 L 421 299 L 420 300 L 416 297 L 419 293 L 418 290 Z M 258 271 L 260 273 L 255 278 L 255 279 L 258 280 L 258 282 L 254 286 L 251 287 L 250 286 L 250 283 L 252 281 L 251 278 L 252 276 Z M 259 262 L 261 260 L 267 260 L 269 263 L 267 265 L 263 266 L 261 265 Z M 420 261 L 415 265 L 412 265 L 411 264 L 413 261 L 417 259 Z M 263 253 L 267 250 L 270 254 L 267 256 Z M 399 244 L 399 247 L 397 251 L 383 265 L 378 268 L 374 272 L 369 274 L 366 277 L 364 278 L 361 277 L 358 279 L 349 279 L 339 274 L 328 266 L 318 255 L 318 253 L 321 250 L 330 250 L 331 251 L 336 251 L 337 252 L 356 252 L 361 250 L 366 250 L 371 248 L 379 247 L 394 242 L 397 242 Z M 385 128 L 391 121 L 398 118 L 401 118 L 402 117 L 422 118 L 429 121 L 435 127 L 437 131 L 437 136 L 436 139 L 431 144 L 425 147 L 406 147 L 397 144 L 392 141 L 387 136 L 385 132 Z M 308 110 L 310 108 L 318 104 L 334 104 L 340 107 L 343 110 L 343 113 L 341 115 L 334 114 L 330 112 L 319 112 L 318 113 L 309 114 L 308 113 Z M 288 98 L 294 98 L 298 102 L 299 105 L 299 115 L 297 119 L 294 122 L 297 122 L 302 120 L 307 120 L 308 119 L 321 120 L 327 122 L 332 125 L 337 131 L 337 138 L 332 146 L 326 151 L 316 156 L 313 156 L 312 157 L 303 157 L 293 153 L 287 148 L 284 142 L 283 142 L 283 145 L 282 146 L 282 157 L 285 162 L 292 167 L 300 167 L 307 162 L 310 161 L 317 162 L 318 163 L 322 163 L 323 164 L 328 164 L 329 165 L 342 165 L 343 164 L 346 164 L 355 161 L 362 157 L 368 151 L 370 146 L 372 144 L 376 144 L 381 150 L 383 156 L 384 179 L 383 180 L 382 192 L 380 196 L 380 199 L 378 205 L 374 213 L 369 220 L 362 226 L 359 227 L 356 230 L 352 232 L 344 233 L 343 234 L 336 233 L 327 229 L 321 225 L 312 216 L 299 198 L 294 187 L 294 184 L 292 178 L 290 176 L 288 176 L 280 171 L 274 164 L 271 156 L 271 149 L 270 149 L 261 158 L 257 160 L 250 159 L 243 153 L 243 146 L 246 140 L 249 137 L 258 132 L 267 131 L 270 132 L 275 138 L 277 137 L 280 137 L 281 138 L 282 137 L 282 133 L 286 127 L 284 126 L 280 121 L 280 110 L 283 103 Z M 373 91 L 379 91 L 381 92 L 384 95 L 387 101 L 387 104 L 388 105 L 387 114 L 385 119 L 381 123 L 373 123 L 371 122 L 367 118 L 365 113 L 365 101 L 368 95 Z M 304 62 L 305 66 L 300 71 L 298 71 L 292 74 L 288 78 L 283 78 L 281 76 L 281 70 L 290 61 L 294 59 L 301 59 Z M 261 57 L 265 59 L 272 66 L 272 68 L 266 75 L 259 86 L 254 91 L 252 91 L 247 88 L 241 80 L 241 71 L 243 66 L 250 59 L 255 57 Z M 365 52 L 368 49 L 371 48 L 377 48 L 383 50 L 391 57 L 392 63 L 389 66 L 386 67 L 378 62 L 367 59 L 365 57 Z M 438 31 L 446 30 L 452 33 L 459 40 L 462 47 L 461 56 L 459 59 L 452 65 L 448 65 L 436 54 L 430 51 L 426 47 L 426 42 L 428 39 L 434 33 Z" fill="#FBFBFB" fill-rule="evenodd"/><path d="M 469 661 L 471 659 L 475 659 L 479 664 L 480 670 L 481 671 L 481 678 L 480 679 L 481 682 L 491 681 L 494 680 L 496 678 L 496 669 L 496 678 L 494 680 L 491 681 L 482 681 L 481 680 L 481 670 L 478 662 L 475 659 L 470 659 Z M 208 652 L 208 654 L 209 651 L 213 647 L 217 646 L 220 650 L 217 656 L 216 668 L 220 671 L 229 672 L 230 671 L 230 662 L 233 655 L 237 651 L 241 651 L 243 653 L 243 657 L 241 661 L 241 666 L 241 661 L 243 657 L 243 653 L 241 651 L 237 651 L 233 655 L 230 662 L 230 670 L 228 672 L 221 671 L 216 667 L 217 657 L 220 650 L 218 646 L 215 646 Z M 390 609 L 390 610 L 394 610 L 395 611 L 395 617 L 394 618 L 395 631 L 398 629 L 401 631 L 401 639 L 401 630 L 399 628 L 396 629 L 394 625 L 395 610 L 394 609 Z M 445 584 L 444 585 L 444 590 L 449 597 L 453 601 L 455 601 L 455 598 L 453 594 Z M 436 582 L 434 583 L 434 585 L 432 588 L 432 592 L 433 593 L 436 587 Z M 258 582 L 256 584 L 257 587 L 259 585 Z M 266 576 L 266 579 L 268 585 L 272 589 L 273 588 L 273 585 L 271 583 L 271 581 L 268 576 Z M 281 572 L 279 576 L 279 582 L 281 583 L 281 580 L 282 579 L 282 573 Z M 248 567 L 241 574 L 242 576 L 248 571 L 249 569 Z M 409 563 L 407 564 L 405 570 L 403 572 L 404 574 L 406 574 L 409 569 L 409 566 L 410 565 Z M 221 562 L 220 568 L 221 569 L 224 567 L 227 568 L 227 574 L 226 575 L 225 582 L 228 585 L 228 594 L 230 597 L 230 604 L 231 605 L 232 613 L 231 605 L 230 604 L 230 597 L 228 594 L 228 583 L 226 581 L 226 575 L 227 574 L 227 570 L 228 568 L 226 566 L 225 567 L 222 567 L 221 566 Z M 408 490 L 411 494 L 410 496 L 410 503 L 409 504 L 410 506 L 412 504 L 412 496 L 411 495 L 411 492 Z M 269 488 L 269 497 L 271 501 L 271 504 L 274 510 L 277 513 L 279 511 L 279 508 L 274 498 L 274 496 Z M 271 495 L 274 497 L 278 506 L 276 509 L 271 501 L 270 498 Z M 575 490 L 570 495 L 568 493 L 569 492 L 569 483 L 567 481 L 565 481 L 561 487 L 561 490 L 558 494 L 557 498 L 553 502 L 551 502 L 549 504 L 543 504 L 541 502 L 543 500 L 545 494 L 545 490 L 545 494 L 541 503 L 544 505 L 545 504 L 550 504 L 555 501 L 558 497 L 562 485 L 565 481 L 567 481 L 569 483 L 569 492 L 568 493 L 569 496 Z M 512 495 L 512 493 L 516 488 L 518 481 L 516 488 L 512 493 L 512 495 L 513 497 L 518 501 L 521 502 L 528 502 L 531 500 L 534 496 L 539 485 L 541 483 L 543 483 L 545 485 L 545 487 L 545 484 L 543 482 L 540 483 L 538 488 L 535 492 L 535 494 L 528 502 L 521 502 L 516 500 Z M 272 465 L 270 466 L 269 469 L 269 472 L 268 473 L 269 475 L 271 473 Z M 437 455 L 435 456 L 436 462 L 437 463 L 437 476 L 434 478 L 428 471 L 426 472 L 427 475 L 431 480 L 430 483 L 430 489 L 435 491 L 438 490 L 440 484 L 443 480 L 445 482 L 447 481 L 447 477 L 445 473 L 445 470 L 441 461 Z M 437 458 L 439 459 L 442 465 L 442 468 L 443 469 L 443 472 L 442 473 L 438 470 L 438 466 L 436 460 Z M 258 441 L 253 446 L 253 448 L 250 454 L 249 463 L 251 465 L 253 463 L 255 455 L 257 452 L 257 449 L 259 445 L 259 442 Z M 254 450 L 255 451 L 255 454 L 253 456 L 252 455 L 252 452 Z M 220 433 L 218 439 L 218 442 L 217 443 L 216 453 L 220 450 L 221 450 L 223 453 L 223 448 L 222 447 L 218 451 L 216 450 Z M 413 423 L 414 426 L 420 432 L 423 432 L 423 429 L 424 428 L 429 428 L 431 426 L 427 424 L 419 425 Z M 257 417 L 253 418 L 249 421 L 244 431 L 245 433 L 249 433 L 251 427 L 257 420 Z M 428 403 L 428 405 L 433 411 L 435 421 L 436 423 L 439 425 L 440 424 L 437 421 L 437 418 L 439 416 L 441 417 L 447 417 L 448 416 L 443 410 L 434 406 L 430 403 Z M 422 394 L 424 396 L 428 396 L 429 397 L 430 396 L 428 393 L 423 393 Z M 436 385 L 435 386 L 435 389 L 441 393 L 442 390 Z M 438 371 L 437 372 L 438 375 L 442 380 L 444 380 L 446 378 L 447 373 L 444 371 Z M 386 370 L 387 372 L 396 377 L 403 384 L 405 385 L 407 384 L 408 381 L 407 380 L 402 379 L 390 370 Z M 410 365 L 410 374 L 412 376 L 418 374 L 419 371 Z M 555 346 L 554 349 L 566 362 L 568 366 L 574 373 L 573 375 L 569 373 L 566 373 L 566 376 L 569 379 L 574 388 L 580 396 L 579 399 L 578 398 L 575 398 L 575 401 L 579 408 L 576 401 L 578 399 L 582 401 L 578 392 L 575 389 L 574 386 L 569 380 L 567 376 L 569 374 L 574 376 L 575 374 L 555 349 L 556 346 L 559 347 L 558 346 Z M 451 324 L 450 327 L 452 333 L 451 334 L 447 333 L 446 335 L 450 340 L 454 348 L 454 350 L 453 351 L 450 351 L 443 346 L 440 346 L 438 344 L 434 344 L 433 347 L 436 349 L 441 349 L 442 350 L 450 351 L 457 357 L 457 359 L 459 362 L 459 365 L 456 366 L 453 365 L 451 363 L 449 363 L 447 361 L 448 364 L 452 369 L 462 378 L 463 380 L 461 382 L 458 380 L 456 381 L 459 384 L 462 390 L 462 392 L 464 394 L 468 402 L 466 404 L 459 400 L 451 399 L 450 398 L 448 398 L 447 401 L 449 403 L 454 403 L 462 406 L 467 410 L 470 415 L 470 417 L 467 421 L 465 421 L 457 416 L 459 420 L 462 423 L 462 425 L 468 436 L 471 439 L 471 444 L 470 445 L 467 444 L 465 446 L 465 448 L 468 453 L 468 461 L 465 465 L 466 468 L 466 477 L 464 480 L 462 486 L 462 489 L 459 491 L 458 490 L 458 487 L 457 486 L 455 487 L 451 499 L 443 510 L 440 509 L 440 506 L 441 505 L 441 496 L 439 495 L 439 497 L 437 499 L 436 502 L 436 505 L 434 507 L 432 513 L 420 526 L 418 525 L 418 522 L 421 517 L 421 514 L 422 513 L 422 507 L 421 506 L 418 507 L 411 522 L 398 537 L 396 534 L 399 526 L 399 517 L 398 514 L 396 513 L 395 514 L 395 517 L 391 529 L 389 532 L 389 534 L 387 536 L 386 535 L 386 531 L 389 524 L 389 521 L 388 520 L 382 526 L 379 532 L 370 542 L 366 543 L 364 545 L 361 543 L 366 533 L 366 531 L 363 530 L 359 534 L 356 535 L 345 544 L 343 542 L 343 536 L 347 528 L 347 525 L 345 525 L 331 538 L 328 538 L 325 534 L 323 534 L 320 538 L 316 539 L 303 527 L 295 516 L 293 510 L 290 505 L 289 506 L 290 514 L 294 524 L 304 539 L 304 540 L 302 541 L 296 534 L 292 537 L 287 532 L 283 526 L 281 526 L 280 529 L 278 530 L 268 519 L 267 521 L 265 522 L 258 511 L 255 508 L 252 511 L 249 509 L 244 496 L 242 496 L 242 497 L 240 498 L 236 489 L 234 488 L 232 490 L 230 488 L 228 482 L 228 474 L 226 471 L 223 473 L 221 472 L 222 455 L 221 475 L 222 476 L 225 473 L 227 475 L 229 487 L 235 500 L 235 504 L 233 506 L 228 505 L 227 509 L 221 520 L 222 521 L 225 520 L 227 522 L 227 525 L 220 539 L 221 541 L 224 539 L 226 539 L 228 541 L 224 553 L 225 548 L 228 542 L 228 539 L 227 538 L 223 539 L 222 538 L 222 535 L 227 525 L 227 521 L 226 520 L 223 520 L 222 518 L 229 507 L 252 528 L 253 531 L 259 538 L 261 538 L 265 542 L 277 561 L 283 567 L 288 574 L 297 582 L 293 587 L 293 589 L 296 592 L 294 595 L 288 588 L 286 588 L 287 596 L 293 601 L 297 608 L 297 611 L 298 612 L 298 616 L 294 619 L 294 621 L 296 623 L 298 629 L 294 631 L 294 633 L 292 636 L 289 634 L 288 635 L 289 637 L 289 642 L 295 648 L 296 653 L 294 658 L 290 662 L 286 663 L 282 667 L 276 669 L 273 673 L 264 673 L 263 674 L 244 674 L 241 672 L 242 674 L 269 674 L 270 673 L 278 673 L 279 672 L 287 672 L 288 671 L 293 671 L 294 670 L 300 670 L 301 669 L 306 669 L 307 668 L 314 667 L 317 665 L 319 665 L 323 661 L 325 657 L 325 638 L 324 637 L 323 629 L 326 626 L 328 628 L 330 628 L 330 621 L 331 620 L 329 596 L 331 594 L 335 597 L 336 596 L 336 584 L 339 575 L 337 573 L 334 573 L 322 569 L 312 564 L 308 560 L 308 558 L 311 555 L 315 555 L 329 560 L 333 560 L 334 561 L 338 561 L 344 563 L 352 563 L 353 564 L 376 563 L 380 561 L 384 562 L 387 565 L 387 567 L 384 571 L 380 572 L 380 575 L 383 580 L 384 588 L 386 594 L 388 593 L 391 594 L 391 601 L 391 593 L 387 589 L 388 588 L 388 584 L 392 574 L 398 567 L 398 565 L 403 557 L 408 553 L 417 543 L 421 545 L 429 535 L 433 537 L 441 527 L 445 530 L 450 524 L 454 521 L 458 521 L 469 511 L 470 511 L 475 517 L 478 526 L 480 529 L 487 536 L 486 539 L 484 539 L 481 537 L 478 538 L 479 540 L 486 546 L 484 549 L 481 549 L 480 548 L 473 548 L 473 549 L 476 551 L 478 551 L 486 557 L 490 566 L 490 568 L 488 570 L 477 563 L 475 564 L 478 569 L 489 581 L 489 584 L 487 586 L 486 585 L 482 585 L 470 579 L 467 579 L 466 580 L 481 593 L 485 594 L 487 596 L 490 597 L 494 601 L 494 604 L 491 607 L 490 607 L 486 602 L 485 603 L 494 621 L 490 624 L 489 623 L 489 618 L 487 615 L 484 616 L 484 620 L 482 623 L 482 627 L 484 632 L 483 634 L 480 633 L 459 633 L 458 634 L 439 636 L 433 639 L 433 640 L 435 639 L 445 639 L 446 640 L 458 639 L 448 640 L 446 638 L 449 635 L 453 635 L 459 633 L 477 633 L 478 634 L 481 634 L 485 637 L 483 639 L 477 639 L 486 639 L 488 637 L 497 638 L 499 640 L 506 643 L 515 653 L 516 661 L 517 662 L 517 667 L 515 672 L 509 677 L 507 675 L 507 669 L 506 666 L 507 669 L 507 677 L 510 677 L 514 674 L 517 667 L 517 661 L 516 660 L 515 653 L 510 646 L 506 643 L 499 640 L 496 637 L 496 635 L 500 631 L 500 628 L 501 627 L 502 617 L 503 616 L 503 603 L 504 602 L 504 592 L 503 591 L 502 583 L 505 579 L 500 569 L 501 568 L 504 568 L 508 570 L 508 567 L 505 562 L 504 557 L 496 542 L 497 541 L 501 541 L 505 544 L 507 544 L 507 542 L 505 539 L 505 537 L 503 534 L 503 532 L 500 527 L 500 524 L 499 523 L 500 520 L 503 520 L 504 521 L 505 519 L 504 518 L 504 514 L 503 513 L 503 509 L 501 503 L 501 498 L 492 494 L 485 487 L 482 482 L 480 476 L 480 473 L 479 472 L 479 461 L 480 460 L 480 455 L 481 454 L 481 451 L 485 439 L 484 438 L 483 428 L 481 423 L 480 414 L 479 413 L 476 398 L 474 394 L 474 391 L 472 388 L 469 378 L 464 369 L 464 367 L 455 351 L 455 347 L 454 345 L 456 343 L 459 343 L 463 347 L 473 362 L 484 386 L 488 398 L 489 405 L 491 409 L 491 413 L 492 414 L 492 417 L 491 409 L 489 405 L 489 401 L 487 397 L 487 394 L 484 385 L 482 382 L 482 380 L 480 377 L 480 374 L 478 371 L 478 369 L 471 356 L 469 354 L 469 352 L 462 342 L 460 336 Z M 480 568 L 482 567 L 485 570 L 482 571 Z M 363 533 L 364 535 L 361 539 L 359 537 L 360 535 Z M 270 522 L 283 537 L 284 539 L 282 541 L 280 540 L 271 530 L 268 524 Z M 397 519 L 398 520 L 398 525 L 395 527 L 394 524 L 395 523 L 395 520 Z M 259 515 L 269 528 L 267 530 L 266 530 L 260 523 L 257 517 Z M 292 513 L 294 514 L 299 524 L 306 532 L 304 534 L 301 532 L 297 525 L 294 522 L 291 515 Z M 420 509 L 421 510 L 421 515 L 417 523 L 417 525 L 414 527 L 413 526 L 413 522 L 416 518 L 416 515 L 418 510 Z M 243 499 L 246 501 L 246 503 L 249 508 L 251 514 L 249 517 L 245 512 L 242 503 L 242 500 Z M 464 424 L 466 423 L 472 430 L 470 432 L 464 427 Z M 263 323 L 256 326 L 245 336 L 243 335 L 243 332 L 238 347 L 238 352 L 228 367 L 229 368 L 233 367 L 236 371 L 220 391 L 221 393 L 226 391 L 229 393 L 229 396 L 222 406 L 215 420 L 215 423 L 216 424 L 221 421 L 223 423 L 223 426 L 221 431 L 223 426 L 223 422 L 220 421 L 217 423 L 215 420 L 225 401 L 229 396 L 229 392 L 228 391 L 223 392 L 221 390 L 236 371 L 235 368 L 233 367 L 231 368 L 229 365 L 231 363 L 232 360 L 239 352 L 242 351 L 251 344 L 264 326 Z M 261 324 L 263 326 L 254 339 L 248 345 L 247 343 L 252 336 L 251 333 Z M 536 318 L 535 319 L 564 346 L 564 347 L 562 348 L 565 348 L 566 347 L 564 345 L 563 345 L 549 331 L 536 320 L 538 318 L 541 318 Z M 429 313 L 431 318 L 435 323 L 436 321 L 431 313 Z M 379 310 L 379 313 L 383 317 L 387 317 L 388 318 L 391 318 L 392 317 L 392 311 L 391 311 L 391 314 L 389 316 L 387 316 Z M 322 306 L 320 306 L 316 309 L 318 310 L 320 309 Z M 422 303 L 421 304 L 421 310 L 419 313 L 416 313 L 413 315 L 414 317 L 417 317 L 419 315 L 419 313 L 424 309 Z M 433 299 L 432 301 L 436 305 L 437 302 Z M 383 293 L 382 294 L 382 298 L 389 306 L 388 301 L 386 298 L 386 295 Z M 312 291 L 308 294 L 306 297 L 306 300 L 309 298 L 313 292 Z M 421 289 L 419 289 L 420 293 L 417 296 L 419 299 L 420 299 Z M 258 272 L 253 276 L 252 278 L 253 281 L 251 283 L 251 286 L 254 285 L 257 282 L 257 280 L 255 280 L 254 278 L 259 273 Z M 260 263 L 263 265 L 265 265 L 268 263 L 267 261 L 261 261 Z M 419 261 L 417 260 L 413 262 L 412 264 L 415 264 Z M 266 251 L 264 253 L 268 255 L 269 253 Z M 398 244 L 397 243 L 394 243 L 379 248 L 371 249 L 366 251 L 361 251 L 356 253 L 337 253 L 336 252 L 331 252 L 330 251 L 321 251 L 319 253 L 319 255 L 328 265 L 339 273 L 349 278 L 358 278 L 361 276 L 363 277 L 366 276 L 369 273 L 374 271 L 378 267 L 383 264 L 396 251 L 398 247 Z M 379 264 L 373 270 L 370 271 L 367 274 L 364 275 L 362 273 L 376 263 Z M 320 255 L 323 253 L 325 257 L 330 262 L 346 272 L 352 273 L 353 274 L 358 273 L 359 275 L 357 277 L 352 278 L 339 272 L 329 265 Z M 245 199 L 245 205 L 248 211 L 251 212 L 253 209 L 256 211 L 258 218 L 262 220 L 270 228 L 276 236 L 278 240 L 278 246 L 275 249 L 273 249 L 269 245 L 265 238 L 264 238 L 261 242 L 258 239 L 257 236 L 260 242 L 263 242 L 265 239 L 273 249 L 276 249 L 278 247 L 278 244 L 280 242 L 286 245 L 288 245 L 292 249 L 294 249 L 295 248 L 294 243 L 289 238 L 285 237 L 272 230 L 262 219 L 260 219 L 258 217 L 256 211 L 253 207 L 250 211 L 246 208 L 245 205 Z M 503 178 L 502 181 L 497 186 L 497 195 L 493 203 L 489 207 L 487 214 L 482 221 L 482 223 L 490 232 L 491 234 L 491 238 L 494 241 L 507 247 L 515 255 L 515 262 L 520 265 L 528 272 L 529 274 L 529 279 L 533 282 L 529 278 L 529 274 L 528 272 L 515 261 L 515 255 L 513 252 L 507 247 L 494 241 L 491 238 L 491 234 L 490 232 L 482 223 L 487 214 L 489 207 L 494 202 L 497 195 L 497 186 L 502 181 Z M 232 167 L 233 170 L 237 168 L 239 170 L 239 175 L 237 181 L 237 190 L 240 191 L 243 189 L 245 191 L 245 196 L 245 189 L 244 188 L 242 188 L 239 191 L 237 189 L 237 181 L 239 175 L 239 168 L 234 169 Z M 214 159 L 219 168 L 221 174 L 222 174 L 222 164 L 222 166 L 220 168 L 217 165 L 217 163 Z M 376 145 L 372 145 L 369 151 L 362 158 L 358 160 L 362 158 L 369 151 L 370 148 L 373 145 L 375 145 L 379 149 L 381 154 L 381 158 L 382 159 L 382 184 L 381 185 L 381 190 L 380 191 L 380 194 L 379 195 L 379 198 L 377 204 L 372 214 L 366 221 L 359 225 L 356 228 L 349 231 L 339 232 L 326 227 L 310 212 L 302 201 L 297 191 L 300 198 L 313 216 L 321 224 L 327 228 L 336 232 L 340 232 L 341 233 L 352 231 L 367 221 L 373 213 L 379 199 L 379 196 L 382 187 L 382 180 L 383 179 L 382 156 L 380 150 Z M 480 126 L 479 127 L 480 131 L 490 141 L 494 148 L 492 150 L 488 148 L 486 148 L 484 150 L 484 152 L 490 163 L 492 170 L 490 172 L 487 170 L 484 170 L 483 172 L 481 173 L 479 169 L 481 168 L 479 168 L 475 162 L 468 158 L 463 157 L 463 159 L 471 168 L 471 171 L 469 173 L 468 172 L 465 172 L 470 178 L 470 181 L 467 184 L 463 182 L 459 182 L 459 184 L 463 191 L 463 193 L 461 195 L 456 192 L 449 191 L 449 192 L 457 200 L 457 203 L 456 204 L 454 203 L 451 204 L 451 206 L 448 209 L 448 214 L 446 216 L 442 212 L 440 213 L 441 215 L 441 221 L 438 225 L 435 222 L 433 222 L 431 226 L 431 232 L 428 235 L 426 233 L 426 229 L 424 228 L 418 236 L 413 237 L 406 245 L 404 251 L 407 252 L 416 239 L 418 240 L 418 247 L 419 248 L 424 248 L 427 245 L 429 245 L 430 246 L 444 246 L 447 249 L 449 249 L 452 246 L 451 244 L 453 242 L 454 243 L 456 242 L 467 242 L 470 244 L 473 244 L 481 248 L 486 249 L 490 252 L 496 254 L 495 256 L 491 256 L 489 258 L 491 261 L 497 263 L 499 265 L 502 266 L 517 277 L 516 279 L 508 279 L 507 281 L 518 288 L 526 291 L 528 293 L 526 295 L 522 295 L 521 296 L 521 298 L 527 302 L 523 300 L 521 297 L 523 295 L 529 295 L 529 293 L 524 290 L 518 288 L 508 281 L 510 279 L 518 279 L 518 277 L 502 266 L 499 265 L 497 263 L 493 262 L 490 258 L 492 256 L 498 256 L 498 255 L 486 249 L 484 249 L 479 246 L 473 244 L 470 241 L 472 239 L 475 239 L 475 238 L 468 236 L 467 233 L 469 232 L 468 230 L 464 230 L 462 228 L 463 225 L 470 218 L 475 209 L 475 207 L 477 204 L 477 200 L 478 199 L 478 193 L 480 191 L 483 193 L 485 192 L 485 177 L 484 176 L 484 172 L 486 170 L 490 173 L 492 172 L 492 168 L 484 151 L 486 149 L 490 149 L 493 151 L 494 150 L 494 147 L 487 137 L 479 129 L 481 126 L 485 126 Z M 443 244 L 445 242 L 449 242 L 450 243 L 449 245 L 446 246 Z M 441 237 L 443 240 L 439 244 L 436 245 L 434 243 L 435 241 L 439 237 Z M 454 224 L 455 227 L 451 233 L 447 236 L 445 234 L 446 231 L 453 224 Z M 241 121 L 240 124 L 241 134 L 230 146 L 230 149 L 237 148 L 239 150 L 239 152 L 234 161 L 233 165 L 234 161 L 239 153 L 239 149 L 238 148 L 234 148 L 232 149 L 230 147 L 241 135 L 241 129 L 240 128 Z M 386 128 L 386 132 L 388 136 L 392 140 L 397 143 L 406 146 L 425 146 L 431 143 L 435 139 L 436 136 L 436 131 L 434 127 L 429 122 L 422 119 L 402 118 L 391 122 Z M 387 128 L 392 122 L 396 120 L 405 119 L 406 118 L 421 119 L 424 121 L 428 122 L 433 126 L 436 131 L 436 136 L 435 138 L 428 144 L 422 145 L 421 146 L 411 146 L 410 145 L 405 145 L 393 140 L 387 134 Z M 298 111 L 298 115 L 296 119 L 288 126 L 284 125 L 282 123 L 281 119 L 282 123 L 287 127 L 285 129 L 283 133 L 283 137 L 281 139 L 280 138 L 275 139 L 270 133 L 267 132 L 258 133 L 252 136 L 247 140 L 244 146 L 244 153 L 250 158 L 257 159 L 261 157 L 270 148 L 272 149 L 272 156 L 272 147 L 273 146 L 273 143 L 277 138 L 280 138 L 282 140 L 281 156 L 281 146 L 283 141 L 285 142 L 289 149 L 293 152 L 298 154 L 293 152 L 286 145 L 283 139 L 283 133 L 284 131 L 289 126 L 292 124 L 296 123 L 293 122 L 296 119 L 298 115 Z M 253 137 L 256 138 L 250 144 L 248 148 L 248 151 L 251 152 L 253 154 L 258 154 L 260 152 L 261 154 L 256 158 L 248 157 L 244 152 L 244 148 L 246 143 Z M 255 137 L 258 134 L 268 133 L 272 137 L 272 140 L 270 141 L 267 136 L 263 136 L 258 138 Z M 309 110 L 309 113 L 313 113 L 319 111 L 330 111 L 339 114 L 342 113 L 342 110 L 334 105 L 318 105 Z M 328 108 L 331 107 L 332 109 L 329 110 Z M 316 109 L 318 107 L 325 107 L 326 108 L 325 110 L 317 110 Z M 469 89 L 480 107 L 476 110 L 476 113 L 488 121 L 491 124 L 490 127 L 491 127 L 492 125 L 487 120 L 480 116 L 476 112 L 478 109 L 480 109 L 480 106 L 475 100 Z M 143 80 L 144 80 L 140 83 L 139 88 L 141 88 L 144 85 L 148 85 L 154 91 L 158 102 L 158 111 L 157 113 L 154 116 L 150 118 L 146 118 L 140 114 L 138 116 L 136 116 L 129 101 L 125 97 L 123 96 L 119 96 L 115 99 L 112 107 L 113 107 L 118 101 L 122 101 L 126 106 L 131 116 L 131 119 L 132 120 L 132 124 L 131 126 L 128 129 L 122 130 L 116 124 L 109 125 L 104 123 L 107 124 L 109 126 L 107 128 L 101 129 L 100 130 L 98 127 L 101 124 L 102 124 L 101 124 L 96 130 L 97 141 L 98 142 L 98 145 L 101 150 L 101 152 L 103 154 L 106 161 L 111 167 L 112 170 L 120 180 L 121 191 L 123 196 L 125 210 L 130 225 L 133 230 L 134 234 L 138 239 L 143 248 L 151 258 L 161 267 L 161 269 L 159 271 L 152 271 L 151 272 L 157 278 L 166 284 L 168 284 L 178 289 L 182 293 L 180 296 L 173 297 L 172 298 L 174 300 L 180 303 L 192 307 L 195 307 L 199 309 L 201 311 L 201 313 L 196 317 L 202 320 L 215 322 L 218 325 L 218 326 L 214 329 L 216 331 L 230 335 L 236 322 L 240 319 L 243 319 L 245 321 L 245 327 L 244 330 L 245 327 L 245 321 L 255 300 L 255 295 L 253 294 L 246 298 L 241 306 L 238 309 L 232 309 L 231 308 L 227 308 L 221 306 L 217 303 L 219 301 L 228 299 L 230 297 L 228 294 L 225 293 L 219 293 L 216 291 L 214 291 L 209 286 L 201 286 L 200 285 L 193 285 L 189 282 L 192 279 L 197 279 L 199 277 L 199 275 L 196 272 L 187 269 L 184 267 L 182 267 L 173 262 L 152 242 L 150 238 L 144 231 L 139 221 L 135 217 L 130 208 L 127 205 L 124 204 L 124 198 L 122 194 L 122 189 L 121 188 L 121 182 L 120 179 L 115 173 L 102 152 L 100 146 L 101 145 L 103 145 L 106 149 L 109 151 L 112 151 L 115 149 L 117 149 L 118 150 L 118 158 L 120 161 L 120 163 L 125 169 L 133 173 L 148 172 L 149 171 L 158 170 L 162 168 L 165 168 L 171 166 L 179 161 L 182 156 L 182 149 L 183 148 L 181 137 L 176 129 L 171 124 L 169 124 L 166 122 L 152 122 L 151 123 L 148 123 L 134 131 L 122 143 L 120 142 L 120 139 L 113 127 L 116 126 L 121 130 L 127 130 L 129 129 L 132 125 L 132 118 L 134 116 L 136 117 L 140 116 L 144 118 L 152 118 L 160 111 L 163 114 L 167 115 L 171 119 L 173 120 L 178 120 L 185 112 L 187 114 L 188 117 L 191 117 L 192 118 L 192 120 L 186 128 L 186 136 L 188 139 L 193 141 L 195 140 L 199 140 L 204 137 L 206 139 L 202 146 L 197 151 L 197 157 L 202 163 L 208 175 L 206 170 L 204 168 L 197 155 L 197 152 L 205 143 L 209 135 L 210 129 L 212 125 L 212 118 L 211 115 L 207 111 L 199 111 L 193 116 L 190 117 L 187 114 L 186 89 L 183 85 L 178 84 L 175 86 L 175 89 L 178 89 L 181 92 L 182 95 L 183 112 L 182 115 L 178 119 L 175 120 L 171 118 L 166 112 L 163 113 L 161 111 L 159 92 L 158 91 L 158 88 L 155 83 L 150 79 L 146 79 L 150 79 L 155 85 L 153 87 L 152 85 L 150 84 L 144 84 L 142 85 L 141 82 Z M 253 295 L 255 298 L 252 304 L 252 306 L 248 313 L 248 315 L 246 317 L 244 314 L 249 303 L 248 302 L 244 306 L 243 303 L 248 297 L 251 295 Z M 227 296 L 225 299 L 222 300 L 219 300 L 218 299 L 221 295 L 225 294 Z M 190 273 L 193 272 L 197 275 L 195 277 L 193 277 Z M 104 129 L 112 129 L 116 133 L 119 138 L 119 143 L 113 150 L 110 150 L 103 142 L 103 140 L 101 137 L 101 132 Z M 171 125 L 179 135 L 182 144 L 182 154 L 181 157 L 174 164 L 164 168 L 161 168 L 156 170 L 152 170 L 151 171 L 147 171 L 146 172 L 131 172 L 127 170 L 122 165 L 118 155 L 119 149 L 122 144 L 136 130 L 147 124 L 153 122 L 164 122 Z M 203 114 L 208 119 L 208 127 L 207 130 L 200 138 L 196 140 L 192 140 L 187 136 L 186 130 L 188 126 L 196 117 L 199 115 Z M 199 112 L 200 111 L 206 111 L 210 114 L 211 118 L 209 119 L 205 114 L 200 114 Z M 129 103 L 132 108 L 131 110 L 130 110 L 127 106 Z M 179 86 L 181 85 L 183 86 L 185 89 L 183 90 L 180 88 Z M 186 73 L 189 74 L 195 80 L 198 87 L 200 98 L 201 99 L 213 99 L 215 100 L 220 105 L 224 113 L 224 119 L 225 120 L 224 130 L 221 139 L 212 153 L 212 156 L 213 157 L 212 156 L 212 153 L 217 147 L 219 149 L 219 152 L 223 158 L 223 162 L 223 158 L 219 152 L 219 145 L 223 138 L 228 132 L 228 121 L 234 110 L 234 107 L 226 101 L 221 95 L 218 88 L 219 92 L 221 94 L 222 97 L 234 108 L 234 110 L 231 113 L 231 115 L 228 121 L 228 132 L 224 137 L 223 136 L 223 132 L 225 127 L 225 117 L 224 116 L 224 111 L 221 107 L 221 105 L 217 101 L 213 99 L 202 99 L 200 97 L 200 93 L 198 89 L 198 86 L 195 80 L 192 76 Z M 135 72 L 130 77 L 129 80 L 124 84 L 121 83 L 115 85 L 117 84 L 124 84 L 126 85 L 131 76 Z M 261 58 L 255 58 L 250 60 L 244 66 L 242 71 L 242 80 L 247 87 L 252 90 L 254 90 L 258 86 L 265 75 L 271 68 L 271 66 L 265 60 Z M 252 61 L 253 62 L 252 65 L 249 66 L 246 71 L 246 79 L 252 86 L 250 88 L 243 80 L 243 73 L 244 72 L 244 69 L 246 66 Z M 474 54 L 474 56 L 471 62 L 464 69 L 459 72 L 459 76 L 465 82 L 468 87 L 463 79 L 459 75 L 459 73 L 469 65 L 474 56 Z M 434 34 L 427 42 L 427 47 L 430 50 L 436 53 L 448 64 L 452 64 L 454 63 L 460 56 L 460 53 L 461 52 L 461 47 L 458 40 L 452 34 L 446 31 L 441 31 Z M 438 33 L 443 32 L 449 34 L 454 37 L 459 43 L 460 46 L 460 53 L 458 57 L 451 63 L 449 63 L 437 52 L 432 49 L 430 49 L 428 47 L 428 42 L 430 39 Z M 407 38 L 410 38 L 412 36 L 412 32 L 413 30 L 423 19 L 431 15 L 438 14 L 439 13 L 441 14 L 447 14 L 457 18 L 465 24 L 473 34 L 473 35 L 469 28 L 463 22 L 451 15 L 438 13 L 437 14 L 434 14 L 428 16 L 421 20 L 414 28 L 412 32 L 412 36 L 410 38 Z" fill="#D8D8D8" fill-rule="evenodd"/><path d="M 447 638 L 448 639 L 451 639 L 452 638 L 460 638 L 461 637 L 474 637 L 475 638 L 483 638 L 484 637 L 481 635 L 478 635 L 477 634 L 459 634 L 458 635 L 449 636 Z M 463 635 L 464 634 L 471 634 L 472 636 L 471 637 L 464 637 Z M 270 523 L 269 524 L 272 530 L 276 535 L 282 540 L 283 539 L 282 537 Z M 259 516 L 258 517 L 263 526 L 267 529 L 268 528 Z M 292 514 L 295 522 L 298 525 L 302 532 L 304 533 L 305 532 L 298 524 L 293 514 Z M 420 510 L 419 510 L 417 515 L 417 518 L 414 522 L 414 526 L 416 525 L 416 523 L 419 518 Z M 243 500 L 243 503 L 246 512 L 249 516 L 250 514 L 248 508 L 245 503 L 245 501 Z M 271 496 L 272 501 L 276 508 L 277 506 L 275 503 L 275 501 L 273 497 Z M 437 459 L 438 461 L 438 465 L 439 466 L 439 470 L 442 472 L 441 465 L 438 459 Z M 261 325 L 252 333 L 253 336 L 248 344 L 259 331 L 262 326 Z M 253 296 L 251 296 L 248 298 L 244 303 L 244 305 L 248 301 L 250 303 L 245 314 L 246 316 L 254 298 Z M 226 296 L 225 295 L 221 296 L 219 299 L 225 298 Z M 381 262 L 378 264 L 374 265 L 371 268 L 368 269 L 363 273 L 364 274 L 367 273 Z M 321 255 L 329 264 L 339 271 L 352 277 L 358 275 L 358 274 L 353 275 L 352 274 L 346 273 L 330 263 L 324 257 L 323 254 Z M 442 239 L 439 238 L 435 243 L 436 244 L 439 243 Z M 454 225 L 453 225 L 447 231 L 446 233 L 447 235 L 450 233 L 454 227 Z M 275 141 L 273 147 L 273 157 L 276 164 L 284 172 L 290 174 L 294 177 L 297 190 L 303 201 L 311 212 L 323 224 L 332 229 L 338 230 L 339 231 L 344 231 L 356 227 L 368 218 L 376 204 L 378 198 L 378 195 L 379 194 L 379 191 L 380 190 L 380 185 L 381 184 L 381 159 L 380 158 L 379 151 L 375 146 L 373 146 L 371 148 L 370 151 L 362 159 L 346 166 L 343 166 L 342 167 L 329 167 L 328 166 L 323 166 L 322 165 L 318 165 L 313 163 L 309 163 L 300 169 L 292 169 L 288 167 L 281 159 L 280 156 L 281 140 L 280 139 L 277 139 Z M 275 142 L 278 139 L 280 141 L 280 157 L 281 160 L 284 164 L 289 168 L 295 170 L 299 170 L 305 167 L 308 164 L 315 164 L 316 165 L 320 165 L 326 167 L 344 167 L 353 164 L 363 159 L 370 152 L 371 149 L 373 147 L 375 147 L 377 149 L 380 156 L 381 178 L 380 179 L 380 185 L 378 190 L 378 194 L 377 195 L 376 202 L 369 215 L 366 218 L 364 217 L 364 215 L 369 207 L 372 198 L 372 193 L 371 191 L 366 186 L 360 183 L 348 183 L 336 189 L 331 193 L 326 199 L 323 205 L 323 213 L 325 217 L 332 224 L 332 226 L 329 227 L 324 224 L 311 211 L 301 197 L 297 189 L 294 176 L 282 170 L 276 163 L 273 155 L 273 150 L 274 149 Z M 271 137 L 268 134 L 262 134 L 261 135 L 258 135 L 255 138 L 251 139 L 246 145 L 245 152 L 248 156 L 251 157 L 256 157 L 258 156 L 260 153 L 258 155 L 253 155 L 247 151 L 247 148 L 249 144 L 256 137 L 267 135 L 269 137 L 270 140 L 271 140 Z M 104 130 L 102 132 L 102 137 L 104 140 L 104 142 L 110 149 L 113 149 L 118 143 L 118 138 L 112 130 Z M 174 129 L 171 126 L 164 123 L 153 123 L 147 125 L 136 131 L 123 144 L 120 149 L 119 155 L 123 165 L 127 169 L 131 171 L 146 171 L 147 170 L 151 170 L 152 169 L 156 169 L 157 168 L 164 167 L 174 163 L 180 157 L 181 154 L 181 144 L 180 143 L 180 140 Z M 289 127 L 284 133 L 284 139 L 287 145 L 293 151 L 302 155 L 313 155 L 324 150 L 333 142 L 335 138 L 335 131 L 332 127 L 327 124 L 321 122 L 318 122 L 317 121 L 300 122 Z M 288 128 L 298 123 L 306 122 L 307 121 L 316 121 L 320 123 L 324 123 L 330 126 L 334 130 L 335 132 L 335 136 L 333 141 L 323 150 L 311 155 L 304 155 L 303 154 L 297 153 L 286 143 L 284 137 L 284 134 Z M 388 128 L 388 134 L 393 139 L 405 144 L 410 144 L 411 145 L 421 145 L 422 144 L 425 144 L 431 141 L 435 136 L 435 131 L 432 126 L 428 123 L 424 122 L 421 120 L 414 120 L 413 119 L 400 120 L 392 123 Z M 203 115 L 199 116 L 196 118 L 189 126 L 187 130 L 187 133 L 188 136 L 192 139 L 196 139 L 200 137 L 206 130 L 207 127 L 207 119 Z M 292 99 L 288 100 L 283 106 L 283 109 L 281 114 L 282 121 L 283 123 L 286 125 L 288 125 L 295 119 L 297 115 L 297 111 L 298 110 L 297 108 L 297 104 L 296 102 Z M 293 100 L 297 105 L 297 114 L 295 118 L 289 124 L 286 125 L 282 121 L 282 110 L 284 105 L 289 100 Z M 375 92 L 371 94 L 368 98 L 367 105 L 366 106 L 367 114 L 371 120 L 373 121 L 380 121 L 383 119 L 385 115 L 386 106 L 383 97 L 379 93 Z M 373 93 L 378 93 L 383 98 L 385 103 L 385 113 L 384 116 L 379 121 L 374 121 L 372 120 L 369 117 L 367 113 L 367 102 L 368 99 Z M 252 62 L 247 66 L 245 69 L 245 72 L 244 73 L 244 80 L 250 87 L 251 86 L 245 79 L 245 71 L 247 67 L 249 65 L 251 65 Z M 303 64 L 300 61 L 294 61 L 290 63 L 283 70 L 283 75 L 285 77 L 288 76 L 295 70 L 301 68 Z M 302 64 L 302 66 L 300 68 L 294 70 L 287 76 L 285 76 L 283 74 L 283 71 L 291 63 L 295 61 L 299 61 Z M 367 52 L 367 56 L 369 58 L 378 60 L 386 65 L 390 62 L 388 56 L 383 52 L 381 52 L 378 50 L 370 50 Z M 367 53 L 371 50 L 380 51 L 385 54 L 389 58 L 389 62 L 387 64 L 385 64 L 379 60 L 369 57 L 367 55 Z M 436 35 L 433 37 L 429 42 L 429 47 L 437 51 L 449 62 L 453 61 L 457 57 L 459 53 L 459 46 L 457 41 L 451 36 L 443 33 Z M 452 14 L 443 13 L 442 12 L 437 12 L 436 13 L 432 13 L 423 17 L 416 23 L 411 30 L 411 33 L 408 37 L 401 34 L 398 34 L 393 32 L 388 32 L 387 31 L 381 31 L 380 30 L 369 30 L 363 32 L 361 30 L 363 24 L 363 21 L 361 20 L 355 23 L 347 31 L 345 31 L 337 26 L 331 24 L 328 24 L 327 25 L 327 29 L 330 33 L 328 36 L 311 37 L 309 38 L 305 43 L 293 48 L 284 55 L 283 55 L 275 46 L 266 41 L 263 41 L 262 40 L 251 41 L 248 43 L 246 43 L 238 48 L 232 54 L 227 64 L 227 68 L 226 69 L 226 78 L 227 79 L 227 82 L 231 90 L 238 97 L 243 100 L 246 100 L 248 103 L 244 110 L 243 115 L 239 123 L 240 133 L 234 139 L 228 147 L 228 150 L 229 151 L 233 151 L 235 150 L 237 152 L 231 165 L 231 171 L 233 172 L 236 170 L 238 172 L 237 174 L 237 178 L 236 179 L 236 183 L 235 184 L 235 188 L 236 191 L 238 193 L 241 192 L 243 194 L 244 206 L 247 212 L 249 214 L 254 213 L 256 215 L 257 219 L 261 221 L 269 229 L 277 241 L 277 245 L 275 247 L 273 247 L 270 244 L 269 241 L 264 234 L 262 238 L 260 239 L 253 226 L 250 226 L 249 228 L 247 228 L 245 225 L 244 220 L 241 214 L 237 210 L 236 210 L 233 214 L 231 212 L 227 201 L 227 198 L 224 192 L 222 190 L 217 190 L 215 188 L 215 186 L 210 177 L 210 175 L 208 173 L 206 167 L 199 156 L 199 152 L 204 147 L 211 135 L 212 129 L 213 128 L 213 116 L 211 112 L 206 109 L 198 110 L 192 115 L 188 112 L 188 94 L 187 93 L 187 88 L 184 84 L 182 83 L 177 83 L 171 88 L 167 98 L 166 104 L 165 106 L 163 107 L 162 106 L 162 99 L 161 98 L 160 89 L 156 81 L 150 78 L 145 78 L 141 80 L 137 87 L 137 92 L 136 93 L 136 101 L 137 102 L 138 111 L 136 112 L 134 110 L 134 108 L 130 100 L 126 96 L 124 95 L 118 95 L 113 99 L 110 107 L 112 122 L 111 123 L 107 123 L 106 122 L 100 123 L 95 129 L 95 140 L 96 141 L 97 147 L 104 161 L 119 181 L 119 187 L 120 188 L 123 207 L 131 231 L 142 249 L 150 259 L 158 267 L 157 270 L 150 269 L 149 272 L 160 282 L 171 288 L 173 288 L 179 293 L 177 295 L 172 295 L 170 297 L 173 301 L 190 308 L 193 308 L 198 311 L 198 313 L 193 316 L 195 319 L 200 321 L 208 322 L 214 324 L 215 326 L 211 329 L 212 331 L 230 337 L 232 335 L 236 325 L 240 321 L 242 321 L 244 323 L 243 330 L 241 333 L 239 339 L 239 342 L 237 346 L 237 351 L 226 367 L 227 370 L 232 369 L 234 371 L 218 392 L 219 394 L 226 393 L 228 395 L 222 403 L 214 419 L 214 422 L 213 423 L 214 426 L 220 423 L 222 425 L 219 431 L 217 441 L 216 442 L 215 455 L 216 456 L 219 453 L 221 455 L 219 475 L 221 478 L 223 477 L 226 478 L 228 488 L 233 498 L 233 503 L 232 504 L 229 502 L 227 502 L 226 508 L 219 521 L 220 523 L 224 522 L 226 524 L 222 531 L 222 533 L 219 538 L 218 542 L 220 543 L 224 541 L 226 543 L 220 560 L 219 570 L 222 570 L 223 569 L 226 570 L 223 584 L 227 587 L 227 596 L 229 599 L 230 610 L 231 611 L 233 621 L 236 626 L 232 629 L 224 629 L 223 630 L 219 630 L 213 632 L 208 635 L 203 640 L 200 646 L 198 659 L 200 665 L 205 669 L 208 668 L 207 665 L 208 656 L 210 652 L 214 648 L 216 648 L 218 650 L 215 659 L 215 670 L 218 672 L 221 672 L 222 673 L 229 673 L 230 674 L 232 673 L 231 664 L 234 656 L 239 652 L 242 654 L 240 660 L 240 666 L 239 667 L 239 671 L 241 675 L 275 675 L 276 674 L 282 674 L 283 673 L 292 673 L 293 672 L 299 672 L 300 671 L 305 671 L 306 670 L 314 669 L 321 666 L 325 661 L 326 654 L 327 653 L 327 642 L 326 641 L 325 631 L 326 630 L 331 631 L 332 629 L 332 607 L 331 606 L 331 599 L 333 597 L 335 599 L 337 598 L 337 586 L 339 582 L 340 573 L 316 565 L 310 560 L 312 557 L 315 557 L 316 558 L 323 559 L 331 562 L 335 562 L 341 564 L 355 565 L 356 566 L 365 566 L 366 565 L 378 564 L 379 563 L 383 563 L 385 565 L 385 568 L 383 570 L 379 571 L 378 572 L 378 575 L 380 577 L 380 579 L 382 582 L 383 590 L 385 596 L 386 597 L 388 596 L 390 597 L 390 600 L 389 601 L 389 612 L 393 615 L 393 630 L 394 633 L 396 633 L 398 631 L 400 633 L 400 648 L 398 654 L 398 668 L 400 672 L 404 676 L 410 679 L 416 681 L 419 681 L 420 682 L 438 684 L 439 683 L 438 666 L 441 662 L 444 662 L 446 664 L 446 667 L 447 668 L 447 683 L 448 684 L 469 684 L 471 682 L 471 675 L 470 674 L 469 663 L 473 660 L 477 663 L 479 668 L 479 682 L 480 683 L 488 683 L 489 682 L 493 682 L 497 679 L 496 660 L 498 658 L 504 663 L 505 670 L 506 671 L 506 675 L 505 676 L 506 679 L 511 678 L 517 672 L 518 669 L 518 658 L 515 650 L 507 642 L 501 640 L 498 637 L 499 634 L 501 632 L 501 629 L 503 624 L 503 619 L 504 618 L 504 610 L 505 609 L 505 589 L 504 588 L 504 585 L 507 582 L 507 580 L 503 572 L 505 570 L 509 573 L 511 572 L 510 568 L 505 558 L 505 556 L 499 545 L 501 543 L 507 547 L 509 546 L 509 543 L 501 525 L 503 522 L 506 523 L 507 521 L 505 516 L 502 497 L 493 493 L 486 486 L 482 478 L 482 475 L 481 474 L 481 458 L 482 457 L 483 450 L 487 441 L 486 439 L 486 434 L 484 429 L 484 425 L 483 424 L 483 420 L 482 419 L 482 415 L 481 414 L 478 399 L 473 384 L 465 368 L 465 366 L 457 352 L 456 346 L 458 344 L 463 349 L 469 358 L 472 365 L 474 367 L 482 385 L 487 400 L 487 403 L 489 407 L 489 410 L 491 415 L 491 419 L 493 424 L 494 434 L 496 439 L 496 442 L 492 451 L 492 454 L 490 459 L 490 471 L 491 472 L 491 475 L 493 479 L 498 484 L 500 485 L 505 485 L 509 481 L 512 472 L 515 469 L 518 471 L 518 478 L 515 487 L 511 492 L 511 496 L 515 501 L 522 504 L 529 503 L 535 497 L 540 486 L 542 484 L 544 486 L 544 494 L 542 499 L 539 503 L 541 506 L 548 506 L 556 502 L 561 494 L 563 486 L 566 483 L 568 485 L 568 492 L 566 497 L 567 498 L 570 497 L 576 491 L 578 486 L 580 484 L 580 482 L 583 476 L 585 463 L 586 462 L 586 447 L 585 446 L 585 440 L 584 438 L 588 435 L 588 432 L 582 415 L 581 409 L 579 406 L 580 403 L 583 403 L 583 399 L 578 390 L 574 385 L 573 382 L 570 379 L 572 376 L 573 377 L 576 377 L 577 375 L 558 350 L 560 348 L 561 349 L 567 350 L 568 348 L 541 322 L 542 320 L 549 320 L 550 318 L 541 310 L 524 298 L 525 296 L 531 296 L 532 295 L 529 291 L 517 286 L 512 282 L 514 280 L 519 280 L 520 277 L 494 260 L 495 258 L 500 257 L 501 255 L 485 247 L 476 244 L 475 241 L 477 240 L 478 238 L 471 235 L 472 230 L 470 229 L 466 229 L 465 228 L 465 226 L 469 222 L 477 208 L 478 202 L 479 201 L 479 195 L 480 194 L 483 195 L 486 194 L 487 180 L 485 174 L 487 172 L 491 175 L 494 174 L 493 166 L 486 152 L 488 150 L 492 152 L 495 152 L 496 151 L 496 148 L 492 141 L 482 130 L 483 127 L 486 128 L 492 128 L 494 125 L 488 119 L 482 116 L 478 112 L 482 109 L 482 107 L 474 96 L 468 84 L 461 75 L 461 74 L 469 67 L 475 57 L 475 54 L 476 53 L 476 40 L 475 39 L 475 36 L 472 30 L 464 21 Z M 451 14 L 463 21 L 470 28 L 475 37 L 475 40 L 476 41 L 476 52 L 475 53 L 475 56 L 470 65 L 466 69 L 462 71 L 460 73 L 460 75 L 464 79 L 476 100 L 481 106 L 481 109 L 478 110 L 477 112 L 480 115 L 487 119 L 493 125 L 491 128 L 489 127 L 481 127 L 480 129 L 488 137 L 495 147 L 495 150 L 493 152 L 490 150 L 486 150 L 485 151 L 493 168 L 493 172 L 491 174 L 487 171 L 485 172 L 485 176 L 486 177 L 486 192 L 484 194 L 480 192 L 479 193 L 479 199 L 478 200 L 478 204 L 476 207 L 476 209 L 471 218 L 464 225 L 463 228 L 464 229 L 468 229 L 470 231 L 470 232 L 468 233 L 468 235 L 473 236 L 476 238 L 475 240 L 472 240 L 471 241 L 473 243 L 479 245 L 484 248 L 486 248 L 493 252 L 495 252 L 499 255 L 498 257 L 492 257 L 491 259 L 493 261 L 497 262 L 499 264 L 502 265 L 519 277 L 518 280 L 510 280 L 509 281 L 518 287 L 524 289 L 530 293 L 529 296 L 523 296 L 522 298 L 535 306 L 543 312 L 549 318 L 547 320 L 543 320 L 542 319 L 538 319 L 537 320 L 567 347 L 565 349 L 562 349 L 556 347 L 556 349 L 576 374 L 574 377 L 570 375 L 568 376 L 570 380 L 575 386 L 576 389 L 579 392 L 583 400 L 582 402 L 578 400 L 577 402 L 582 412 L 582 416 L 588 433 L 586 435 L 585 434 L 583 435 L 585 441 L 585 449 L 586 450 L 586 458 L 585 459 L 585 465 L 584 466 L 583 475 L 578 487 L 569 497 L 567 495 L 568 492 L 568 483 L 565 482 L 563 485 L 559 497 L 555 502 L 550 505 L 545 505 L 543 506 L 540 503 L 543 497 L 544 490 L 545 489 L 543 484 L 540 485 L 533 499 L 528 503 L 521 503 L 516 501 L 512 497 L 511 493 L 515 488 L 515 486 L 518 480 L 518 470 L 516 468 L 513 470 L 509 480 L 505 484 L 499 484 L 494 480 L 492 476 L 491 470 L 490 469 L 490 462 L 491 461 L 492 452 L 496 443 L 496 437 L 494 432 L 492 418 L 491 417 L 490 409 L 488 405 L 487 398 L 483 386 L 479 378 L 479 376 L 472 362 L 462 347 L 459 344 L 456 344 L 455 345 L 456 347 L 456 351 L 465 367 L 465 369 L 470 378 L 473 388 L 475 391 L 475 394 L 477 398 L 477 401 L 478 402 L 478 405 L 481 414 L 482 423 L 484 428 L 484 433 L 485 434 L 486 441 L 482 451 L 481 460 L 480 461 L 480 472 L 481 473 L 481 476 L 483 482 L 486 487 L 492 493 L 495 495 L 500 496 L 502 498 L 502 503 L 503 504 L 503 508 L 504 509 L 504 513 L 505 514 L 505 518 L 506 520 L 504 522 L 503 521 L 500 521 L 500 523 L 501 524 L 501 527 L 506 537 L 506 539 L 508 542 L 508 544 L 505 545 L 501 542 L 497 542 L 497 543 L 505 557 L 506 562 L 509 567 L 509 570 L 507 571 L 504 569 L 501 569 L 506 579 L 503 583 L 504 591 L 505 592 L 505 602 L 504 603 L 504 616 L 503 617 L 502 627 L 501 628 L 501 631 L 497 635 L 497 637 L 499 639 L 506 642 L 510 645 L 515 651 L 517 656 L 517 660 L 518 661 L 518 667 L 517 670 L 513 676 L 510 678 L 507 678 L 506 677 L 506 669 L 505 668 L 505 665 L 503 661 L 499 657 L 497 657 L 495 659 L 496 668 L 497 669 L 497 678 L 494 681 L 491 682 L 481 683 L 479 681 L 480 678 L 480 671 L 479 670 L 478 664 L 475 660 L 471 660 L 469 662 L 470 682 L 468 684 L 449 684 L 447 682 L 447 666 L 446 663 L 444 661 L 441 661 L 438 665 L 438 680 L 439 681 L 437 683 L 422 682 L 421 681 L 417 681 L 406 677 L 400 671 L 398 666 L 398 657 L 399 656 L 399 651 L 401 646 L 400 631 L 399 630 L 396 632 L 394 631 L 394 626 L 393 625 L 394 611 L 390 611 L 389 610 L 390 608 L 390 594 L 387 595 L 385 594 L 383 588 L 382 580 L 379 575 L 379 572 L 384 570 L 386 567 L 386 565 L 384 563 L 381 562 L 376 564 L 367 564 L 366 565 L 344 564 L 343 563 L 329 561 L 315 556 L 311 556 L 309 558 L 309 560 L 312 563 L 322 568 L 334 572 L 337 572 L 340 575 L 337 584 L 337 596 L 335 598 L 332 595 L 330 596 L 332 620 L 331 621 L 331 628 L 328 629 L 326 627 L 324 629 L 325 637 L 326 638 L 326 657 L 324 661 L 319 666 L 317 666 L 311 669 L 307 669 L 306 670 L 294 671 L 293 672 L 288 672 L 287 673 L 270 674 L 269 675 L 242 675 L 240 673 L 240 661 L 242 657 L 242 653 L 241 652 L 237 652 L 234 655 L 231 662 L 231 671 L 229 673 L 224 673 L 218 671 L 215 668 L 216 656 L 219 650 L 217 647 L 215 647 L 210 651 L 207 659 L 207 666 L 204 668 L 199 662 L 199 651 L 203 640 L 210 634 L 217 631 L 225 630 L 226 629 L 242 629 L 243 630 L 247 630 L 252 632 L 255 631 L 253 629 L 248 627 L 238 626 L 234 622 L 232 617 L 231 610 L 230 609 L 229 597 L 227 594 L 227 585 L 224 582 L 224 579 L 226 574 L 226 568 L 224 568 L 221 570 L 219 568 L 221 558 L 223 554 L 223 551 L 227 542 L 226 540 L 224 540 L 221 542 L 219 540 L 226 525 L 226 522 L 225 521 L 222 522 L 220 520 L 226 509 L 227 505 L 228 504 L 233 505 L 234 504 L 234 500 L 228 487 L 226 475 L 225 474 L 222 477 L 220 475 L 220 462 L 221 461 L 221 455 L 222 452 L 220 451 L 216 454 L 215 453 L 215 448 L 216 447 L 217 439 L 222 426 L 222 423 L 221 422 L 216 425 L 214 423 L 214 420 L 221 406 L 228 396 L 228 393 L 227 392 L 221 394 L 219 391 L 235 371 L 233 368 L 229 369 L 227 367 L 237 352 L 237 347 L 244 327 L 244 321 L 243 320 L 240 320 L 237 322 L 233 330 L 233 332 L 230 336 L 216 332 L 213 329 L 217 326 L 215 323 L 212 322 L 206 322 L 197 319 L 195 317 L 200 313 L 199 310 L 195 308 L 192 308 L 180 304 L 174 301 L 171 298 L 173 296 L 180 295 L 181 293 L 178 290 L 168 285 L 166 285 L 157 279 L 150 272 L 152 270 L 159 270 L 160 267 L 154 262 L 145 252 L 132 232 L 132 230 L 129 225 L 128 220 L 125 214 L 123 201 L 122 200 L 122 196 L 120 191 L 119 180 L 111 170 L 110 167 L 107 164 L 102 154 L 100 152 L 100 150 L 97 145 L 97 142 L 96 141 L 95 130 L 101 123 L 104 122 L 109 124 L 116 123 L 122 129 L 128 128 L 131 124 L 130 116 L 122 102 L 118 102 L 113 108 L 111 107 L 114 99 L 119 95 L 123 95 L 125 96 L 130 101 L 136 115 L 138 115 L 140 113 L 146 117 L 150 117 L 156 113 L 157 111 L 157 102 L 153 91 L 148 86 L 144 86 L 141 89 L 138 88 L 139 83 L 143 79 L 146 78 L 150 78 L 152 79 L 156 83 L 159 88 L 160 96 L 161 97 L 162 111 L 163 112 L 166 111 L 171 117 L 175 119 L 178 118 L 181 115 L 182 112 L 181 95 L 180 92 L 178 90 L 175 90 L 174 89 L 174 86 L 178 83 L 183 84 L 187 89 L 188 114 L 191 116 L 199 110 L 207 110 L 212 115 L 213 118 L 213 125 L 211 129 L 210 135 L 206 143 L 198 152 L 198 155 L 205 168 L 207 170 L 208 174 L 213 183 L 213 185 L 217 192 L 222 191 L 224 193 L 227 199 L 229 209 L 233 216 L 238 212 L 241 215 L 245 224 L 245 226 L 248 230 L 249 230 L 251 227 L 253 227 L 255 229 L 257 235 L 261 241 L 263 238 L 265 237 L 270 245 L 273 248 L 275 248 L 277 246 L 277 240 L 273 233 L 262 221 L 259 220 L 257 218 L 254 210 L 253 210 L 251 213 L 249 213 L 245 208 L 244 205 L 244 191 L 243 190 L 240 192 L 238 192 L 236 190 L 236 181 L 238 175 L 238 170 L 237 169 L 233 171 L 231 169 L 233 161 L 238 152 L 238 150 L 237 149 L 230 150 L 229 149 L 229 146 L 240 134 L 239 124 L 241 118 L 244 113 L 244 111 L 248 104 L 248 101 L 247 100 L 242 99 L 233 92 L 227 81 L 227 76 L 226 75 L 227 66 L 232 55 L 240 47 L 247 43 L 253 41 L 264 41 L 273 45 L 282 55 L 284 55 L 297 46 L 307 43 L 311 38 L 314 37 L 329 37 L 330 36 L 330 32 L 327 27 L 328 25 L 333 25 L 347 32 L 359 21 L 362 22 L 362 26 L 361 27 L 361 31 L 362 32 L 366 32 L 367 31 L 384 31 L 385 32 L 390 32 L 391 33 L 399 34 L 406 37 L 410 37 L 413 28 L 416 24 L 424 17 L 438 12 Z M 459 7 L 450 4 L 444 4 L 443 3 L 437 3 L 436 4 L 427 5 L 424 7 L 420 8 L 414 12 L 407 19 L 403 25 L 395 24 L 394 23 L 388 23 L 387 22 L 373 22 L 370 19 L 369 16 L 365 13 L 357 13 L 354 14 L 346 20 L 343 20 L 338 17 L 335 17 L 334 16 L 326 16 L 320 21 L 320 27 L 318 29 L 308 30 L 290 39 L 286 42 L 282 40 L 276 35 L 265 31 L 254 31 L 253 32 L 246 33 L 234 39 L 224 49 L 219 57 L 216 66 L 216 79 L 217 80 L 218 87 L 222 95 L 227 101 L 235 107 L 235 110 L 229 121 L 229 132 L 224 138 L 220 145 L 220 152 L 224 158 L 224 162 L 223 163 L 223 174 L 222 175 L 220 174 L 218 168 L 213 158 L 211 156 L 211 153 L 220 139 L 223 130 L 223 126 L 224 125 L 223 113 L 219 105 L 215 101 L 213 100 L 201 100 L 199 98 L 197 87 L 194 80 L 189 75 L 185 73 L 178 72 L 177 73 L 174 73 L 168 77 L 164 77 L 158 71 L 150 68 L 142 69 L 136 72 L 132 76 L 128 84 L 126 86 L 124 85 L 117 85 L 114 86 L 104 95 L 101 102 L 101 111 L 99 113 L 92 116 L 88 120 L 85 127 L 85 139 L 86 140 L 86 143 L 87 144 L 87 147 L 89 153 L 95 165 L 110 185 L 111 203 L 112 204 L 115 219 L 125 242 L 133 254 L 140 262 L 140 273 L 142 277 L 151 287 L 160 293 L 161 295 L 160 297 L 161 301 L 167 308 L 177 313 L 181 314 L 184 317 L 184 321 L 188 325 L 194 328 L 199 329 L 205 337 L 218 343 L 223 344 L 227 347 L 227 349 L 219 363 L 219 366 L 218 367 L 219 377 L 211 387 L 209 393 L 209 397 L 212 401 L 212 404 L 208 411 L 205 420 L 205 430 L 209 435 L 208 441 L 207 442 L 207 446 L 206 447 L 206 459 L 208 464 L 210 466 L 210 475 L 211 476 L 212 482 L 214 486 L 220 492 L 215 509 L 213 512 L 210 521 L 210 524 L 213 528 L 213 530 L 210 535 L 209 543 L 210 546 L 213 549 L 213 552 L 210 559 L 209 569 L 211 574 L 215 578 L 215 589 L 216 590 L 216 594 L 217 595 L 218 605 L 219 606 L 219 610 L 220 611 L 220 616 L 221 618 L 218 621 L 215 621 L 209 623 L 201 628 L 193 636 L 188 647 L 188 663 L 191 669 L 196 674 L 201 677 L 207 679 L 210 679 L 211 680 L 214 680 L 215 681 L 225 682 L 226 683 L 234 683 L 235 684 L 274 684 L 275 683 L 292 682 L 293 681 L 298 681 L 299 680 L 304 680 L 305 679 L 314 678 L 327 673 L 334 666 L 337 659 L 337 639 L 340 635 L 342 630 L 342 626 L 343 625 L 343 606 L 347 602 L 348 599 L 348 590 L 349 589 L 349 584 L 350 583 L 350 577 L 352 575 L 355 575 L 356 576 L 368 576 L 370 578 L 370 581 L 372 585 L 372 588 L 374 592 L 374 595 L 378 605 L 381 608 L 383 628 L 387 638 L 390 641 L 390 647 L 388 653 L 388 669 L 391 676 L 394 680 L 399 684 L 407 688 L 410 688 L 418 691 L 427 692 L 428 693 L 438 693 L 439 694 L 475 694 L 476 693 L 487 693 L 488 692 L 493 692 L 494 691 L 499 691 L 500 690 L 507 689 L 517 685 L 525 678 L 529 669 L 529 656 L 528 655 L 528 652 L 524 644 L 512 633 L 513 625 L 514 624 L 514 618 L 515 617 L 515 606 L 516 605 L 516 589 L 515 588 L 515 584 L 520 579 L 520 568 L 518 562 L 515 557 L 515 555 L 519 550 L 519 544 L 516 535 L 514 533 L 514 531 L 516 529 L 517 526 L 517 521 L 515 515 L 518 513 L 522 515 L 531 515 L 534 514 L 540 517 L 548 517 L 549 516 L 552 516 L 561 512 L 563 512 L 573 507 L 585 496 L 592 484 L 594 478 L 594 475 L 595 474 L 595 471 L 596 470 L 596 467 L 597 466 L 597 449 L 596 448 L 596 443 L 598 440 L 598 429 L 597 428 L 597 425 L 595 419 L 592 413 L 592 411 L 594 408 L 594 401 L 588 388 L 586 386 L 587 375 L 582 366 L 575 358 L 578 354 L 578 348 L 574 341 L 558 326 L 560 322 L 560 317 L 555 310 L 540 298 L 541 290 L 537 285 L 528 279 L 528 274 L 527 272 L 514 262 L 514 255 L 507 248 L 494 242 L 490 238 L 490 234 L 489 232 L 481 223 L 481 221 L 486 214 L 488 207 L 492 203 L 496 195 L 496 186 L 501 181 L 503 177 L 503 166 L 501 160 L 505 155 L 505 146 L 499 136 L 499 133 L 502 130 L 503 125 L 501 120 L 491 111 L 490 104 L 474 77 L 474 75 L 480 69 L 481 66 L 483 64 L 487 52 L 487 43 L 486 42 L 485 34 L 478 21 L 468 12 Z M 458 7 L 470 14 L 478 22 L 484 33 L 485 39 L 486 40 L 486 54 L 483 63 L 481 65 L 480 68 L 474 74 L 473 77 L 479 85 L 485 97 L 487 99 L 490 105 L 490 111 L 496 115 L 500 119 L 502 123 L 502 129 L 498 133 L 498 135 L 503 142 L 505 147 L 505 154 L 500 160 L 503 168 L 503 176 L 501 180 L 496 185 L 496 193 L 495 194 L 495 197 L 493 201 L 488 206 L 486 213 L 484 217 L 481 220 L 481 224 L 488 232 L 489 234 L 489 238 L 493 242 L 495 242 L 501 245 L 512 253 L 514 256 L 513 262 L 522 268 L 527 273 L 528 275 L 528 280 L 535 284 L 540 289 L 541 294 L 539 298 L 551 307 L 559 316 L 560 321 L 558 324 L 558 326 L 576 344 L 578 348 L 578 353 L 575 358 L 584 370 L 587 377 L 587 380 L 585 383 L 585 385 L 589 390 L 593 399 L 594 406 L 592 410 L 592 414 L 598 432 L 598 438 L 596 442 L 597 462 L 596 463 L 596 468 L 595 469 L 594 477 L 592 483 L 586 494 L 575 505 L 564 511 L 562 511 L 557 514 L 551 516 L 538 516 L 535 514 L 524 515 L 517 512 L 514 513 L 516 518 L 516 528 L 514 530 L 514 534 L 517 539 L 518 546 L 519 547 L 518 551 L 514 556 L 519 566 L 519 569 L 520 570 L 520 578 L 515 583 L 515 610 L 514 611 L 514 619 L 513 620 L 513 626 L 512 627 L 512 631 L 511 633 L 521 641 L 527 651 L 528 657 L 529 658 L 529 667 L 528 668 L 528 671 L 525 677 L 519 683 L 514 686 L 505 689 L 501 689 L 497 691 L 482 692 L 481 693 L 460 693 L 459 694 L 434 693 L 433 692 L 426 692 L 425 691 L 420 691 L 419 690 L 412 689 L 400 684 L 392 677 L 388 668 L 388 655 L 389 654 L 389 650 L 390 649 L 391 642 L 387 637 L 384 630 L 383 621 L 382 620 L 382 609 L 378 604 L 377 600 L 375 597 L 370 577 L 368 575 L 351 575 L 350 576 L 350 582 L 348 588 L 348 598 L 346 603 L 342 607 L 342 629 L 339 636 L 337 638 L 337 657 L 334 665 L 326 673 L 320 676 L 317 676 L 308 679 L 303 679 L 302 680 L 297 680 L 296 681 L 290 681 L 289 682 L 281 682 L 280 683 L 265 683 L 264 684 L 230 683 L 229 682 L 222 682 L 221 681 L 212 680 L 211 679 L 208 679 L 198 675 L 191 668 L 188 661 L 188 649 L 193 637 L 202 628 L 208 624 L 217 621 L 220 621 L 221 620 L 221 614 L 219 609 L 219 604 L 218 603 L 217 593 L 215 587 L 215 577 L 210 572 L 209 569 L 210 560 L 213 553 L 213 549 L 210 546 L 210 543 L 209 542 L 210 536 L 213 531 L 213 528 L 211 526 L 210 522 L 211 521 L 212 515 L 215 510 L 218 499 L 220 496 L 220 491 L 214 485 L 212 481 L 211 475 L 210 474 L 210 465 L 208 463 L 206 458 L 206 447 L 209 438 L 209 434 L 205 430 L 205 420 L 207 414 L 213 403 L 213 401 L 210 398 L 209 394 L 211 388 L 219 377 L 219 373 L 218 372 L 219 364 L 224 356 L 228 347 L 224 344 L 221 344 L 218 342 L 216 342 L 207 338 L 199 329 L 194 328 L 188 325 L 184 320 L 184 316 L 182 314 L 175 312 L 168 308 L 161 300 L 161 293 L 153 288 L 142 277 L 140 273 L 140 265 L 141 263 L 126 243 L 116 221 L 116 218 L 114 214 L 114 211 L 112 206 L 112 202 L 111 201 L 110 184 L 106 180 L 104 176 L 101 173 L 100 170 L 97 167 L 89 152 L 88 146 L 86 142 L 86 137 L 85 136 L 86 125 L 88 121 L 93 116 L 101 112 L 101 103 L 106 93 L 110 89 L 118 85 L 122 85 L 127 87 L 130 79 L 138 71 L 147 68 L 153 69 L 157 71 L 164 78 L 167 78 L 175 73 L 184 73 L 188 75 L 195 83 L 195 85 L 197 88 L 197 92 L 198 93 L 198 99 L 199 100 L 212 100 L 214 101 L 218 105 L 223 116 L 223 128 L 222 129 L 222 132 L 218 141 L 214 146 L 211 152 L 211 156 L 215 162 L 215 164 L 218 169 L 219 175 L 222 178 L 224 178 L 224 175 L 223 174 L 223 164 L 225 158 L 221 154 L 220 147 L 222 142 L 228 135 L 230 131 L 229 124 L 230 123 L 231 117 L 234 113 L 236 107 L 231 104 L 222 94 L 218 86 L 218 83 L 216 78 L 216 67 L 219 58 L 223 51 L 235 39 L 238 38 L 240 36 L 252 32 L 267 32 L 273 34 L 281 39 L 284 42 L 287 42 L 291 39 L 307 31 L 314 30 L 315 29 L 319 29 L 320 28 L 320 22 L 327 16 L 333 16 L 339 18 L 343 21 L 346 21 L 353 15 L 357 13 L 364 13 L 369 17 L 370 20 L 372 22 L 384 22 L 385 23 L 391 23 L 392 24 L 397 24 L 398 25 L 404 25 L 407 20 L 416 11 L 425 6 L 428 6 L 433 4 L 448 4 L 449 5 L 452 5 Z" fill="#B1B1B1" fill-rule="evenodd"/><path d="M 464 635 L 464 636 L 471 636 L 471 635 Z M 276 142 L 276 144 L 275 145 L 275 149 L 274 150 L 274 155 L 275 156 L 275 159 L 277 163 L 282 169 L 289 173 L 293 174 L 295 176 L 296 178 L 296 183 L 302 197 L 304 199 L 308 206 L 312 210 L 312 211 L 324 223 L 329 226 L 331 226 L 331 224 L 324 217 L 322 213 L 322 205 L 325 199 L 328 196 L 328 195 L 336 188 L 348 182 L 360 182 L 366 185 L 372 191 L 373 193 L 373 198 L 372 199 L 370 207 L 365 215 L 365 217 L 366 217 L 368 215 L 375 202 L 375 199 L 376 198 L 376 195 L 377 194 L 377 190 L 378 189 L 378 186 L 379 185 L 379 179 L 380 178 L 379 156 L 375 148 L 373 148 L 371 152 L 363 160 L 353 165 L 351 165 L 344 168 L 326 168 L 325 167 L 321 167 L 320 166 L 316 166 L 315 165 L 308 165 L 305 168 L 299 171 L 295 171 L 294 170 L 291 170 L 289 169 L 286 166 L 285 166 L 280 160 L 280 158 L 279 157 L 279 141 L 278 140 Z M 288 129 L 285 134 L 285 137 L 286 138 L 286 141 L 287 143 L 297 152 L 303 153 L 304 154 L 311 154 L 323 149 L 332 141 L 333 137 L 334 136 L 334 132 L 330 127 L 324 124 L 320 124 L 316 122 L 307 122 L 306 123 L 302 123 L 301 124 L 295 125 Z M 293 101 L 289 101 L 285 105 L 284 109 L 283 110 L 283 121 L 286 124 L 289 123 L 294 118 L 296 114 L 296 105 Z M 373 94 L 369 99 L 369 101 L 368 102 L 368 113 L 370 117 L 372 119 L 374 120 L 379 120 L 383 116 L 383 114 L 384 113 L 384 103 L 383 102 L 382 98 L 378 94 Z M 301 64 L 299 62 L 295 62 L 291 64 L 284 71 L 284 74 L 285 75 L 287 75 L 294 69 L 300 67 L 301 66 Z M 368 53 L 368 55 L 371 57 L 379 59 L 385 63 L 387 63 L 388 62 L 388 58 L 385 55 L 380 52 L 377 52 L 376 51 L 371 51 Z M 458 8 L 456 8 L 452 6 L 449 6 L 448 5 L 433 5 L 432 6 L 425 7 L 416 12 L 408 20 L 408 21 L 404 26 L 398 26 L 397 25 L 385 24 L 384 23 L 372 23 L 369 20 L 368 17 L 364 14 L 357 14 L 353 16 L 346 22 L 343 22 L 341 20 L 334 18 L 333 17 L 327 17 L 321 22 L 321 28 L 319 30 L 315 30 L 314 31 L 310 31 L 309 32 L 307 32 L 291 40 L 287 43 L 284 43 L 281 40 L 275 37 L 273 35 L 271 35 L 267 33 L 252 33 L 251 34 L 248 34 L 242 37 L 240 37 L 238 39 L 235 40 L 224 51 L 223 54 L 220 58 L 220 60 L 217 67 L 217 78 L 218 79 L 219 86 L 225 97 L 231 103 L 232 103 L 237 107 L 237 109 L 235 113 L 233 115 L 232 119 L 231 120 L 231 123 L 230 124 L 230 128 L 231 129 L 231 131 L 229 135 L 223 142 L 222 146 L 221 147 L 221 151 L 222 152 L 222 154 L 226 158 L 226 160 L 224 164 L 224 174 L 225 175 L 225 178 L 224 179 L 222 179 L 218 175 L 217 169 L 214 164 L 214 162 L 212 160 L 210 156 L 210 152 L 213 146 L 217 141 L 221 132 L 221 129 L 222 128 L 222 116 L 221 115 L 221 113 L 217 105 L 214 102 L 212 101 L 199 101 L 197 99 L 197 93 L 196 92 L 196 88 L 194 85 L 194 83 L 188 76 L 184 74 L 175 74 L 167 79 L 164 79 L 157 72 L 153 70 L 147 69 L 146 70 L 143 70 L 142 71 L 138 72 L 131 79 L 129 86 L 127 88 L 123 87 L 122 86 L 118 86 L 117 87 L 113 88 L 107 93 L 102 103 L 102 112 L 100 114 L 96 115 L 94 117 L 93 117 L 89 121 L 87 125 L 87 128 L 86 129 L 86 136 L 87 137 L 87 142 L 89 146 L 90 152 L 98 167 L 101 170 L 102 173 L 105 176 L 107 180 L 111 184 L 111 189 L 112 190 L 112 192 L 111 193 L 112 194 L 112 201 L 113 202 L 113 206 L 114 207 L 115 214 L 117 218 L 117 221 L 119 224 L 120 229 L 127 243 L 129 245 L 133 252 L 137 256 L 137 257 L 142 263 L 141 265 L 141 273 L 143 277 L 153 287 L 154 287 L 162 293 L 162 300 L 168 307 L 175 311 L 182 313 L 185 316 L 185 320 L 188 324 L 194 327 L 197 327 L 199 328 L 207 337 L 211 339 L 213 339 L 216 341 L 218 341 L 221 343 L 224 343 L 229 347 L 225 356 L 223 358 L 220 364 L 220 367 L 219 368 L 220 377 L 212 388 L 212 390 L 210 394 L 210 396 L 214 401 L 214 403 L 208 414 L 208 416 L 206 420 L 206 430 L 210 434 L 210 438 L 209 439 L 209 441 L 208 442 L 208 446 L 207 447 L 207 458 L 208 459 L 209 463 L 211 465 L 211 474 L 212 475 L 213 481 L 215 485 L 221 491 L 221 496 L 219 499 L 216 510 L 213 515 L 212 521 L 211 522 L 212 526 L 214 528 L 214 531 L 211 536 L 210 542 L 211 543 L 211 546 L 214 549 L 214 553 L 211 560 L 210 569 L 211 570 L 211 572 L 216 577 L 216 587 L 217 588 L 217 592 L 218 593 L 218 598 L 219 599 L 219 603 L 220 604 L 220 609 L 221 610 L 221 613 L 222 614 L 222 620 L 220 622 L 217 622 L 216 623 L 208 625 L 206 627 L 202 629 L 194 637 L 191 643 L 191 645 L 189 649 L 189 661 L 192 668 L 198 674 L 202 676 L 204 676 L 208 678 L 211 678 L 212 679 L 216 679 L 217 680 L 221 680 L 222 681 L 229 681 L 230 682 L 243 682 L 244 683 L 264 683 L 265 682 L 280 682 L 281 681 L 289 681 L 290 680 L 296 680 L 297 679 L 308 678 L 309 677 L 320 675 L 326 672 L 333 665 L 335 658 L 336 657 L 336 638 L 338 636 L 341 629 L 341 607 L 345 603 L 346 599 L 347 598 L 347 588 L 348 587 L 348 583 L 349 582 L 349 576 L 351 574 L 368 574 L 371 577 L 376 597 L 378 600 L 379 604 L 383 609 L 383 620 L 384 621 L 384 626 L 385 627 L 385 630 L 388 637 L 392 642 L 392 645 L 391 646 L 391 649 L 390 650 L 390 654 L 389 655 L 389 668 L 393 677 L 400 683 L 412 688 L 415 688 L 416 689 L 419 689 L 420 690 L 425 690 L 426 691 L 433 691 L 434 692 L 450 692 L 451 693 L 459 693 L 460 692 L 481 692 L 482 691 L 497 690 L 501 688 L 505 688 L 506 687 L 514 685 L 519 682 L 524 677 L 527 671 L 527 668 L 528 667 L 528 658 L 527 657 L 526 651 L 520 641 L 510 633 L 511 631 L 511 627 L 512 626 L 512 620 L 513 619 L 513 611 L 514 610 L 514 583 L 519 578 L 519 570 L 518 569 L 518 566 L 513 556 L 513 555 L 517 551 L 517 549 L 518 548 L 516 539 L 513 534 L 513 530 L 515 528 L 515 518 L 514 517 L 513 513 L 515 511 L 517 511 L 524 514 L 535 513 L 538 515 L 551 515 L 552 514 L 557 513 L 562 510 L 564 510 L 575 504 L 585 494 L 591 483 L 591 481 L 593 477 L 594 469 L 595 468 L 595 463 L 596 462 L 595 442 L 597 438 L 597 432 L 596 431 L 596 427 L 595 426 L 595 424 L 594 423 L 594 421 L 591 414 L 591 410 L 593 406 L 592 399 L 588 390 L 584 385 L 584 383 L 586 380 L 586 377 L 583 370 L 574 358 L 577 353 L 577 348 L 575 344 L 557 326 L 557 324 L 559 321 L 559 318 L 558 316 L 551 308 L 550 308 L 545 303 L 541 301 L 538 298 L 540 294 L 540 291 L 539 289 L 535 285 L 529 282 L 527 280 L 527 275 L 526 273 L 522 269 L 515 265 L 512 262 L 513 256 L 511 254 L 511 253 L 501 246 L 495 243 L 493 243 L 488 238 L 488 234 L 487 232 L 480 224 L 480 220 L 483 217 L 487 206 L 492 201 L 494 197 L 494 194 L 495 193 L 495 185 L 500 180 L 502 176 L 502 168 L 501 167 L 501 164 L 499 160 L 504 154 L 504 147 L 503 146 L 502 142 L 497 135 L 497 133 L 501 129 L 501 123 L 499 119 L 489 111 L 489 105 L 486 99 L 484 97 L 481 90 L 479 88 L 478 85 L 472 77 L 473 74 L 479 68 L 484 58 L 484 55 L 485 54 L 485 40 L 484 39 L 484 36 L 477 22 L 470 15 Z M 452 13 L 464 20 L 470 26 L 476 36 L 476 39 L 477 40 L 477 53 L 476 54 L 476 57 L 470 67 L 467 70 L 466 70 L 462 74 L 462 75 L 469 84 L 475 96 L 483 107 L 483 109 L 479 112 L 482 115 L 488 118 L 495 125 L 495 126 L 492 129 L 486 129 L 485 128 L 483 128 L 483 130 L 493 141 L 497 148 L 497 151 L 495 153 L 492 153 L 488 151 L 487 152 L 494 166 L 494 168 L 495 169 L 495 174 L 493 176 L 491 176 L 487 173 L 486 174 L 487 176 L 487 179 L 488 180 L 488 189 L 487 190 L 487 194 L 485 196 L 480 195 L 480 201 L 479 202 L 478 208 L 474 216 L 472 218 L 470 222 L 466 226 L 466 228 L 470 228 L 473 230 L 472 235 L 477 236 L 479 238 L 479 239 L 477 241 L 476 241 L 476 243 L 480 244 L 483 246 L 485 246 L 494 251 L 496 251 L 500 253 L 502 255 L 502 256 L 500 258 L 497 258 L 495 259 L 495 260 L 501 263 L 509 269 L 512 270 L 521 277 L 521 279 L 519 281 L 514 281 L 513 282 L 517 285 L 529 290 L 533 294 L 533 295 L 531 297 L 525 297 L 525 298 L 530 301 L 533 304 L 537 306 L 540 309 L 541 309 L 551 318 L 551 319 L 549 321 L 542 321 L 542 322 L 569 348 L 569 349 L 567 351 L 561 350 L 560 349 L 559 350 L 567 360 L 567 361 L 575 371 L 575 372 L 578 375 L 578 376 L 576 378 L 573 378 L 572 377 L 571 379 L 574 382 L 575 385 L 579 390 L 580 393 L 582 395 L 584 399 L 584 403 L 583 404 L 580 404 L 580 406 L 582 409 L 583 415 L 584 416 L 584 418 L 585 419 L 585 421 L 588 428 L 588 431 L 589 432 L 589 435 L 585 438 L 586 440 L 586 446 L 587 447 L 587 462 L 586 463 L 586 467 L 585 468 L 584 476 L 581 482 L 581 484 L 579 486 L 577 491 L 570 498 L 567 499 L 565 497 L 566 493 L 567 492 L 567 485 L 566 484 L 564 486 L 564 488 L 563 489 L 563 491 L 560 498 L 556 503 L 548 507 L 541 507 L 538 504 L 538 503 L 541 499 L 542 495 L 543 494 L 543 486 L 542 485 L 536 497 L 529 504 L 527 504 L 526 505 L 522 505 L 515 502 L 510 496 L 510 492 L 514 487 L 514 485 L 517 478 L 517 471 L 515 470 L 513 472 L 513 474 L 511 477 L 510 481 L 505 486 L 500 486 L 498 485 L 492 479 L 490 475 L 490 472 L 489 471 L 489 459 L 490 458 L 491 451 L 493 448 L 493 446 L 495 442 L 495 439 L 494 438 L 494 435 L 493 434 L 492 424 L 491 423 L 491 420 L 490 419 L 490 415 L 489 414 L 488 407 L 486 403 L 486 400 L 485 399 L 481 385 L 479 382 L 479 380 L 476 375 L 476 373 L 473 367 L 471 365 L 468 358 L 466 356 L 462 349 L 458 345 L 457 346 L 458 352 L 461 358 L 463 360 L 466 366 L 466 368 L 471 377 L 471 379 L 474 384 L 474 386 L 475 387 L 475 389 L 476 390 L 476 392 L 479 399 L 479 402 L 480 403 L 480 406 L 481 407 L 481 410 L 482 411 L 482 414 L 483 415 L 483 419 L 484 420 L 485 429 L 486 430 L 486 433 L 487 434 L 487 439 L 488 441 L 487 442 L 486 447 L 484 450 L 484 452 L 483 453 L 483 457 L 482 458 L 482 474 L 483 475 L 483 478 L 487 486 L 493 492 L 497 494 L 499 494 L 503 497 L 503 501 L 504 502 L 504 506 L 505 507 L 506 516 L 507 517 L 507 520 L 508 521 L 508 522 L 506 524 L 504 524 L 503 523 L 502 525 L 505 531 L 505 533 L 508 538 L 508 540 L 510 543 L 510 546 L 508 548 L 507 548 L 505 546 L 501 544 L 500 545 L 506 556 L 506 558 L 508 561 L 508 563 L 511 568 L 512 572 L 510 574 L 507 573 L 505 571 L 504 572 L 508 580 L 508 582 L 505 585 L 505 588 L 506 589 L 506 609 L 505 610 L 505 618 L 504 619 L 504 624 L 503 625 L 502 632 L 500 634 L 499 637 L 501 639 L 505 641 L 507 641 L 516 650 L 518 654 L 518 657 L 519 658 L 519 669 L 518 670 L 518 672 L 511 679 L 506 680 L 504 678 L 504 676 L 505 675 L 505 671 L 504 670 L 504 666 L 503 665 L 503 663 L 499 659 L 498 659 L 497 660 L 497 666 L 498 667 L 498 679 L 495 682 L 493 683 L 489 683 L 488 684 L 480 684 L 478 682 L 478 668 L 477 667 L 476 663 L 473 661 L 472 661 L 470 663 L 470 666 L 471 667 L 471 674 L 472 675 L 472 682 L 469 685 L 448 685 L 446 683 L 446 668 L 445 667 L 445 664 L 444 663 L 441 663 L 439 666 L 439 677 L 440 678 L 440 683 L 438 685 L 434 685 L 433 684 L 426 684 L 425 683 L 420 683 L 419 682 L 416 682 L 415 681 L 410 680 L 404 677 L 399 672 L 397 668 L 397 654 L 398 653 L 398 649 L 399 648 L 399 633 L 398 632 L 396 634 L 394 634 L 393 633 L 393 631 L 392 630 L 392 615 L 388 612 L 388 601 L 389 600 L 389 597 L 386 598 L 384 596 L 383 594 L 383 591 L 382 590 L 381 582 L 379 579 L 379 577 L 377 575 L 377 572 L 379 570 L 383 569 L 384 568 L 384 565 L 383 564 L 379 564 L 378 565 L 372 565 L 371 566 L 366 566 L 365 567 L 356 567 L 355 566 L 349 566 L 348 565 L 341 565 L 340 564 L 331 563 L 330 562 L 327 562 L 326 561 L 320 560 L 319 559 L 316 559 L 315 558 L 312 558 L 311 560 L 316 564 L 320 566 L 331 569 L 332 570 L 339 571 L 341 573 L 340 582 L 338 586 L 338 598 L 336 600 L 335 600 L 333 598 L 332 599 L 332 606 L 333 607 L 333 629 L 331 632 L 326 631 L 326 634 L 327 635 L 327 641 L 328 642 L 328 653 L 327 654 L 327 658 L 326 659 L 326 661 L 324 663 L 324 664 L 321 667 L 317 669 L 311 670 L 310 671 L 306 671 L 305 672 L 300 672 L 299 673 L 293 673 L 292 674 L 283 674 L 282 675 L 276 675 L 275 676 L 241 676 L 239 674 L 239 672 L 238 671 L 239 660 L 241 656 L 241 654 L 239 653 L 235 656 L 233 663 L 232 664 L 232 669 L 233 670 L 233 673 L 231 675 L 229 674 L 222 674 L 221 673 L 218 673 L 214 670 L 214 659 L 215 658 L 215 655 L 217 651 L 216 649 L 214 649 L 211 652 L 209 656 L 209 659 L 208 660 L 208 665 L 209 666 L 209 668 L 207 670 L 205 670 L 199 665 L 198 663 L 198 660 L 197 659 L 197 655 L 198 654 L 199 646 L 202 640 L 208 634 L 213 631 L 215 631 L 219 629 L 223 629 L 224 628 L 232 628 L 235 626 L 232 621 L 231 615 L 230 614 L 230 611 L 229 610 L 228 599 L 226 596 L 226 587 L 222 584 L 225 570 L 223 570 L 222 571 L 219 571 L 218 570 L 218 564 L 219 563 L 219 560 L 220 559 L 220 557 L 222 553 L 222 550 L 225 543 L 223 542 L 219 544 L 217 542 L 218 538 L 221 533 L 221 531 L 225 524 L 224 523 L 220 524 L 218 522 L 218 521 L 225 508 L 226 502 L 227 501 L 229 501 L 231 503 L 232 503 L 232 498 L 227 488 L 225 478 L 221 479 L 218 475 L 218 469 L 219 468 L 219 459 L 220 458 L 220 455 L 219 454 L 216 457 L 214 455 L 214 447 L 215 446 L 215 442 L 216 441 L 216 438 L 217 437 L 218 431 L 221 425 L 220 424 L 214 427 L 212 425 L 212 423 L 213 422 L 213 419 L 221 403 L 227 395 L 226 394 L 224 394 L 223 395 L 219 395 L 217 393 L 217 392 L 220 387 L 224 383 L 224 382 L 228 378 L 228 377 L 233 371 L 232 370 L 230 371 L 227 371 L 225 369 L 225 367 L 229 362 L 230 359 L 234 355 L 236 351 L 236 346 L 238 342 L 238 339 L 239 338 L 240 333 L 242 330 L 243 323 L 242 322 L 240 322 L 237 325 L 236 329 L 233 335 L 230 338 L 226 337 L 223 335 L 217 334 L 214 332 L 212 332 L 210 330 L 210 329 L 212 327 L 213 327 L 214 325 L 212 324 L 209 324 L 208 323 L 200 322 L 199 321 L 195 320 L 192 317 L 192 316 L 194 314 L 197 313 L 197 311 L 193 309 L 190 309 L 189 308 L 184 307 L 181 305 L 179 305 L 173 302 L 169 298 L 169 297 L 172 294 L 177 294 L 178 293 L 173 289 L 171 289 L 160 283 L 148 272 L 148 270 L 150 268 L 157 269 L 157 267 L 144 253 L 144 252 L 141 249 L 141 248 L 135 240 L 134 237 L 132 235 L 130 231 L 130 229 L 126 221 L 126 219 L 124 215 L 124 212 L 123 211 L 123 208 L 122 207 L 122 203 L 121 202 L 121 198 L 120 197 L 120 193 L 119 192 L 119 188 L 118 187 L 118 181 L 112 174 L 110 170 L 103 161 L 96 147 L 95 141 L 94 140 L 94 129 L 100 122 L 102 122 L 103 121 L 111 122 L 109 107 L 110 106 L 110 103 L 112 99 L 118 94 L 124 94 L 126 95 L 131 100 L 135 108 L 135 110 L 137 111 L 137 108 L 136 107 L 136 102 L 135 101 L 135 93 L 136 92 L 136 87 L 139 81 L 141 79 L 145 77 L 150 77 L 151 78 L 155 79 L 157 81 L 161 89 L 161 92 L 162 93 L 163 106 L 164 106 L 165 104 L 166 98 L 167 97 L 167 95 L 170 88 L 177 82 L 182 82 L 184 83 L 188 88 L 188 93 L 189 94 L 189 112 L 191 114 L 192 114 L 198 109 L 200 109 L 201 108 L 206 108 L 210 110 L 212 112 L 214 116 L 214 128 L 213 129 L 212 135 L 205 147 L 200 152 L 200 156 L 202 160 L 204 162 L 205 165 L 207 167 L 207 169 L 209 171 L 209 173 L 211 175 L 211 177 L 216 186 L 216 188 L 217 189 L 222 189 L 225 192 L 228 198 L 228 201 L 229 202 L 229 204 L 230 205 L 232 212 L 233 213 L 234 211 L 236 209 L 237 209 L 242 214 L 245 220 L 247 227 L 249 227 L 250 225 L 253 225 L 255 227 L 260 238 L 261 238 L 262 235 L 264 233 L 270 241 L 271 244 L 273 246 L 275 246 L 276 245 L 276 241 L 271 233 L 268 230 L 268 229 L 261 222 L 258 221 L 256 219 L 255 215 L 254 214 L 252 215 L 249 215 L 246 212 L 243 206 L 243 202 L 242 201 L 242 194 L 241 193 L 240 194 L 238 194 L 235 191 L 235 189 L 234 188 L 234 184 L 235 183 L 235 179 L 236 178 L 236 174 L 237 172 L 236 171 L 232 173 L 230 171 L 230 165 L 236 152 L 235 151 L 233 152 L 229 152 L 227 150 L 227 147 L 233 140 L 233 139 L 239 133 L 239 130 L 238 129 L 238 123 L 242 115 L 243 110 L 247 103 L 246 101 L 243 101 L 238 98 L 230 90 L 226 82 L 226 79 L 225 78 L 225 69 L 226 68 L 226 64 L 231 54 L 242 44 L 246 42 L 248 42 L 251 40 L 256 40 L 257 39 L 262 39 L 263 40 L 266 40 L 272 43 L 274 45 L 275 45 L 283 54 L 284 54 L 293 47 L 301 43 L 305 42 L 307 40 L 307 39 L 311 36 L 328 35 L 329 33 L 326 29 L 326 25 L 328 23 L 331 23 L 332 24 L 337 25 L 339 27 L 341 27 L 343 29 L 347 30 L 355 22 L 361 19 L 362 19 L 364 21 L 364 24 L 362 28 L 362 30 L 363 31 L 364 30 L 368 30 L 369 29 L 380 29 L 381 30 L 393 31 L 394 32 L 401 33 L 408 36 L 410 33 L 410 30 L 412 28 L 412 27 L 415 24 L 415 23 L 423 16 L 427 14 L 429 14 L 432 12 L 436 12 L 437 11 L 442 11 L 443 12 L 448 12 L 449 13 Z" fill="#010101" fill-rule="evenodd"/></svg>