<svg xmlns="http://www.w3.org/2000/svg" viewBox="0 0 653 704" shape-rendering="geometricPrecision"><title>intro frame 067</title><path d="M 538 632 L 536 630 L 533 629 L 520 629 L 516 632 L 513 631 L 508 634 L 503 634 L 501 636 L 499 636 L 497 638 L 495 638 L 492 640 L 487 640 L 479 643 L 477 646 L 477 650 L 483 661 L 485 662 L 491 669 L 501 672 L 502 671 L 502 668 L 500 665 L 500 661 L 502 655 L 504 653 L 508 653 L 514 660 L 517 660 L 521 662 L 526 658 L 527 652 L 531 646 L 531 642 L 535 638 Z M 389 507 L 387 507 L 387 511 L 385 513 L 385 517 L 384 518 L 385 519 L 390 513 L 390 509 Z M 211 490 L 206 493 L 204 493 L 197 497 L 193 498 L 193 500 L 195 502 L 194 506 L 181 517 L 177 525 L 181 523 L 183 524 L 186 528 L 176 541 L 173 550 L 173 554 L 172 555 L 171 567 L 174 569 L 176 569 L 180 573 L 185 576 L 190 582 L 188 584 L 181 584 L 163 576 L 159 576 L 153 574 L 138 574 L 137 575 L 134 575 L 124 581 L 119 587 L 120 588 L 123 588 L 125 590 L 128 586 L 132 584 L 138 584 L 145 588 L 148 587 L 154 587 L 160 590 L 164 595 L 163 607 L 165 610 L 174 613 L 188 621 L 203 626 L 210 630 L 216 631 L 218 633 L 222 633 L 226 629 L 226 624 L 228 620 L 228 616 L 230 613 L 229 610 L 230 607 L 232 605 L 232 598 L 233 597 L 234 587 L 238 582 L 239 578 L 247 570 L 253 567 L 260 559 L 263 553 L 264 543 L 263 540 L 241 519 L 238 514 L 231 507 L 228 506 L 224 502 L 221 497 L 220 497 L 214 491 Z M 33 272 L 33 273 L 45 275 L 45 274 L 42 273 Z M 37 248 L 38 250 L 42 247 L 50 248 L 55 250 L 59 253 L 61 253 L 54 248 L 45 244 L 40 244 Z M 63 229 L 63 231 L 66 230 L 72 231 L 81 238 L 88 246 L 89 249 L 89 255 L 85 258 L 68 259 L 68 266 L 67 268 L 64 271 L 58 273 L 56 277 L 56 280 L 60 284 L 60 290 L 56 294 L 51 296 L 47 296 L 44 298 L 44 299 L 53 299 L 59 302 L 61 304 L 63 309 L 62 314 L 57 318 L 54 318 L 48 315 L 46 315 L 40 310 L 37 305 L 37 303 L 35 303 L 35 307 L 38 311 L 44 314 L 49 318 L 61 321 L 70 326 L 82 330 L 91 331 L 95 334 L 102 334 L 105 333 L 112 337 L 116 337 L 120 339 L 123 339 L 132 342 L 148 344 L 149 345 L 171 345 L 176 343 L 182 343 L 188 341 L 199 340 L 203 336 L 204 331 L 210 320 L 210 309 L 211 306 L 217 298 L 218 294 L 224 286 L 224 280 L 231 270 L 232 267 L 230 263 L 236 257 L 236 256 L 232 258 L 227 258 L 222 263 L 208 263 L 210 269 L 208 271 L 205 272 L 199 272 L 194 269 L 181 266 L 181 268 L 182 268 L 185 272 L 182 276 L 178 276 L 169 273 L 166 271 L 164 271 L 161 269 L 156 269 L 155 270 L 155 273 L 152 275 L 140 269 L 126 267 L 122 262 L 122 254 L 121 253 L 121 250 L 119 244 L 117 242 L 117 240 L 111 234 L 105 233 L 103 234 L 100 238 L 104 235 L 110 237 L 116 243 L 119 250 L 117 260 L 113 263 L 107 263 L 102 261 L 99 258 L 97 254 L 97 245 L 94 247 L 92 247 L 79 234 L 73 230 L 71 230 L 68 228 L 64 228 Z M 84 261 L 91 261 L 92 262 L 96 262 L 99 264 L 101 264 L 107 268 L 113 274 L 113 276 L 115 279 L 115 287 L 114 290 L 112 292 L 112 294 L 109 298 L 103 310 L 96 318 L 89 321 L 77 320 L 67 314 L 64 310 L 63 299 L 62 298 L 63 285 L 68 273 L 74 266 Z M 428 20 L 415 19 L 414 20 L 411 20 L 406 23 L 404 23 L 400 26 L 394 33 L 393 39 L 390 42 L 375 37 L 370 37 L 364 35 L 347 35 L 346 36 L 341 36 L 339 34 L 339 31 L 341 27 L 340 26 L 338 26 L 335 28 L 334 30 L 328 35 L 325 34 L 318 29 L 311 28 L 313 36 L 310 39 L 295 39 L 292 40 L 288 45 L 282 46 L 279 48 L 275 49 L 263 58 L 261 58 L 253 48 L 243 43 L 232 43 L 223 47 L 214 55 L 210 62 L 209 68 L 208 69 L 208 78 L 211 87 L 218 95 L 223 97 L 226 97 L 228 99 L 227 107 L 224 112 L 223 117 L 220 121 L 220 129 L 221 132 L 210 144 L 211 147 L 212 146 L 215 146 L 217 148 L 216 155 L 214 157 L 213 161 L 211 164 L 212 166 L 216 165 L 218 167 L 218 172 L 215 181 L 215 187 L 217 188 L 219 186 L 221 186 L 224 190 L 223 193 L 223 205 L 225 211 L 226 212 L 227 209 L 230 206 L 232 206 L 234 210 L 234 213 L 235 214 L 235 217 L 237 223 L 239 224 L 241 221 L 243 221 L 246 224 L 247 228 L 250 231 L 251 230 L 255 230 L 268 237 L 276 245 L 277 247 L 277 251 L 275 253 L 273 253 L 268 249 L 262 247 L 258 250 L 253 252 L 252 254 L 241 264 L 238 264 L 242 269 L 241 271 L 230 281 L 230 284 L 231 284 L 234 288 L 228 295 L 229 297 L 229 302 L 226 306 L 225 309 L 225 318 L 224 321 L 222 323 L 220 329 L 222 330 L 228 326 L 231 326 L 233 328 L 233 331 L 212 363 L 213 365 L 215 364 L 217 366 L 217 371 L 207 386 L 207 387 L 212 386 L 214 388 L 214 392 L 205 409 L 205 412 L 204 413 L 204 416 L 208 413 L 212 417 L 212 421 L 208 433 L 206 446 L 207 446 L 210 442 L 213 444 L 213 456 L 212 457 L 212 461 L 213 462 L 216 461 L 218 463 L 219 471 L 221 476 L 231 487 L 234 485 L 237 488 L 239 493 L 241 495 L 245 495 L 253 504 L 254 503 L 249 491 L 249 485 L 248 484 L 250 482 L 255 488 L 257 494 L 261 498 L 265 506 L 265 508 L 266 509 L 269 507 L 271 509 L 276 520 L 279 523 L 280 522 L 278 520 L 278 518 L 275 512 L 275 506 L 277 505 L 281 510 L 284 516 L 301 533 L 304 532 L 308 528 L 311 528 L 313 530 L 317 529 L 327 517 L 329 519 L 329 527 L 327 531 L 329 534 L 338 528 L 342 524 L 345 523 L 348 523 L 349 524 L 349 532 L 353 532 L 357 528 L 358 525 L 360 523 L 360 521 L 365 512 L 365 510 L 366 508 L 368 507 L 367 505 L 370 501 L 372 502 L 372 505 L 373 506 L 371 509 L 373 512 L 375 507 L 375 502 L 378 500 L 378 498 L 382 494 L 381 492 L 379 491 L 378 488 L 373 488 L 367 483 L 363 483 L 357 478 L 355 478 L 353 475 L 343 470 L 337 469 L 331 463 L 328 462 L 324 458 L 322 458 L 315 451 L 314 451 L 307 443 L 306 438 L 300 432 L 294 423 L 294 419 L 289 414 L 285 405 L 285 401 L 284 400 L 284 395 L 289 382 L 289 369 L 292 363 L 306 350 L 310 349 L 312 347 L 314 347 L 324 342 L 326 340 L 328 340 L 330 338 L 334 337 L 345 329 L 351 326 L 360 318 L 361 316 L 361 312 L 360 311 L 360 307 L 357 301 L 356 295 L 359 293 L 370 306 L 370 308 L 373 313 L 379 308 L 382 308 L 385 311 L 389 311 L 391 313 L 391 317 L 390 319 L 381 327 L 378 328 L 375 331 L 373 331 L 365 335 L 345 349 L 343 349 L 340 352 L 338 352 L 330 357 L 325 357 L 324 358 L 321 358 L 311 362 L 307 366 L 304 371 L 304 373 L 306 374 L 309 371 L 315 370 L 317 372 L 317 376 L 311 383 L 311 385 L 302 396 L 301 399 L 305 402 L 317 397 L 321 397 L 323 399 L 322 403 L 315 413 L 315 418 L 317 420 L 322 420 L 337 411 L 340 414 L 340 417 L 337 423 L 336 429 L 344 429 L 349 427 L 363 426 L 365 424 L 367 424 L 375 420 L 379 417 L 384 410 L 389 408 L 392 405 L 394 404 L 401 404 L 402 401 L 407 396 L 410 396 L 413 399 L 412 401 L 414 402 L 415 401 L 414 398 L 421 392 L 423 394 L 423 398 L 422 399 L 423 399 L 428 394 L 437 382 L 441 382 L 442 383 L 456 370 L 459 371 L 459 377 L 457 382 L 457 386 L 458 386 L 458 383 L 460 380 L 460 377 L 462 375 L 462 370 L 464 364 L 464 354 L 467 350 L 468 350 L 472 355 L 474 354 L 475 337 L 469 324 L 466 321 L 464 317 L 466 314 L 471 315 L 471 312 L 458 294 L 455 287 L 446 277 L 449 273 L 452 273 L 452 272 L 446 265 L 440 262 L 436 258 L 436 256 L 439 253 L 428 247 L 421 241 L 417 241 L 411 243 L 404 243 L 398 247 L 396 247 L 394 245 L 394 239 L 400 231 L 403 234 L 405 234 L 410 226 L 414 226 L 418 222 L 418 215 L 420 213 L 423 214 L 425 217 L 424 219 L 424 223 L 426 223 L 429 220 L 430 217 L 424 212 L 424 209 L 425 206 L 428 203 L 433 204 L 434 201 L 425 192 L 427 190 L 430 190 L 435 193 L 437 193 L 438 192 L 438 189 L 435 185 L 435 183 L 437 181 L 441 181 L 445 184 L 444 176 L 440 172 L 441 169 L 444 170 L 445 169 L 445 166 L 439 158 L 441 156 L 443 156 L 448 159 L 454 159 L 458 164 L 456 172 L 460 169 L 466 171 L 464 165 L 464 162 L 460 155 L 460 150 L 463 147 L 465 148 L 468 148 L 465 142 L 455 131 L 455 128 L 458 125 L 464 125 L 464 124 L 458 119 L 456 119 L 450 113 L 450 111 L 453 108 L 453 106 L 447 99 L 442 88 L 434 77 L 434 75 L 443 69 L 447 65 L 448 62 L 450 60 L 452 54 L 452 44 L 449 36 L 444 30 L 435 23 L 431 22 Z M 232 441 L 233 442 L 233 449 L 232 450 L 232 454 L 230 456 L 228 454 L 228 444 L 230 441 Z M 228 414 L 229 415 L 229 419 L 227 423 L 224 426 L 222 424 L 222 421 L 224 417 Z M 375 242 L 375 245 L 370 252 L 357 264 L 349 269 L 344 274 L 338 275 L 335 277 L 327 277 L 320 274 L 302 262 L 294 254 L 294 250 L 297 247 L 304 248 L 309 250 L 334 250 L 335 249 L 341 249 L 346 247 L 354 246 L 371 240 L 373 240 Z M 360 129 L 362 125 L 366 121 L 376 117 L 391 117 L 405 122 L 410 127 L 412 131 L 412 135 L 410 140 L 403 146 L 400 147 L 392 147 L 390 148 L 389 147 L 378 146 L 369 142 L 362 136 Z M 283 112 L 288 107 L 290 107 L 293 105 L 297 105 L 298 104 L 307 104 L 316 108 L 318 110 L 318 113 L 316 115 L 311 115 L 303 112 L 295 112 L 290 114 L 285 114 Z M 265 98 L 270 98 L 274 103 L 275 111 L 272 118 L 273 119 L 277 119 L 278 118 L 294 118 L 306 123 L 311 128 L 312 133 L 309 142 L 302 149 L 295 153 L 286 156 L 279 156 L 268 152 L 260 144 L 259 141 L 257 142 L 257 156 L 263 163 L 267 165 L 273 165 L 276 164 L 282 159 L 289 159 L 293 161 L 303 162 L 308 164 L 316 164 L 317 163 L 320 163 L 326 161 L 338 155 L 342 151 L 344 146 L 347 143 L 350 143 L 354 147 L 357 154 L 357 160 L 358 161 L 358 182 L 357 183 L 357 189 L 356 190 L 354 200 L 352 203 L 350 210 L 344 219 L 329 230 L 323 232 L 311 232 L 302 229 L 296 225 L 282 210 L 273 197 L 268 185 L 266 175 L 256 170 L 250 164 L 246 155 L 246 147 L 234 157 L 226 157 L 224 156 L 221 152 L 220 149 L 221 143 L 223 139 L 229 133 L 231 133 L 236 130 L 244 130 L 250 136 L 253 134 L 257 134 L 257 132 L 260 126 L 256 121 L 256 111 L 257 110 L 257 107 L 260 102 Z M 349 92 L 354 93 L 358 97 L 361 104 L 361 115 L 359 119 L 352 125 L 346 124 L 342 120 L 340 115 L 340 103 L 342 100 L 342 98 Z M 280 62 L 281 66 L 277 70 L 270 73 L 264 78 L 261 78 L 258 75 L 258 72 L 260 68 L 267 60 L 269 59 L 276 59 Z M 239 57 L 247 61 L 250 64 L 250 67 L 243 75 L 237 86 L 234 89 L 231 90 L 227 88 L 220 79 L 220 72 L 222 67 L 228 60 L 234 57 Z M 345 55 L 346 53 L 351 49 L 359 50 L 364 53 L 369 58 L 369 64 L 366 67 L 361 67 L 356 63 L 353 63 L 347 61 L 345 59 Z M 419 33 L 427 34 L 431 36 L 437 42 L 439 46 L 439 49 L 440 50 L 439 58 L 432 66 L 428 68 L 425 67 L 412 55 L 409 54 L 404 48 L 406 43 L 414 35 Z" fill="#FBFBFB" fill-rule="evenodd"/><path d="M 270 621 L 261 631 L 258 640 L 256 643 L 256 645 L 254 648 L 244 658 L 243 658 L 247 656 L 253 650 L 257 643 L 260 633 Z M 130 602 L 131 603 L 131 606 L 133 609 L 137 607 L 133 605 Z M 290 591 L 285 595 L 283 599 L 276 606 L 273 615 L 276 607 Z M 117 588 L 117 590 L 119 589 L 122 590 L 126 595 L 127 594 L 127 590 L 130 586 L 132 585 L 138 585 L 142 591 L 142 601 L 140 605 L 141 607 L 145 607 L 146 608 L 152 609 L 148 602 L 148 595 L 149 592 L 152 589 L 156 589 L 160 591 L 163 595 L 163 600 L 163 595 L 162 593 L 154 588 L 148 588 L 145 589 L 138 585 L 132 585 L 128 587 L 125 591 L 123 589 L 120 589 L 118 587 L 119 585 L 124 580 L 131 576 L 122 581 L 119 584 Z M 210 443 L 207 447 L 206 447 L 205 445 L 205 448 L 207 448 L 210 445 L 212 447 L 212 456 L 212 444 Z M 232 442 L 230 442 L 229 444 L 229 454 L 230 455 L 232 449 Z M 506 421 L 505 422 L 505 426 L 506 427 L 506 436 L 507 437 L 507 454 L 508 454 L 512 446 L 512 431 L 509 426 L 509 424 Z M 228 415 L 225 417 L 223 421 L 223 424 L 224 425 L 228 419 Z M 558 596 L 557 595 L 557 590 L 555 586 L 555 583 L 551 575 L 546 570 L 542 568 L 538 569 L 530 565 L 524 559 L 522 554 L 516 548 L 516 547 L 513 544 L 511 544 L 505 538 L 503 535 L 503 532 L 498 524 L 497 518 L 494 512 L 490 508 L 487 508 L 485 506 L 478 506 L 474 501 L 474 497 L 478 489 L 480 487 L 480 485 L 484 478 L 484 475 L 488 466 L 488 462 L 489 461 L 489 448 L 490 447 L 490 444 L 494 442 L 494 434 L 493 433 L 493 429 L 492 428 L 491 422 L 487 414 L 487 409 L 488 408 L 488 404 L 487 402 L 480 394 L 471 394 L 463 402 L 459 404 L 456 407 L 446 411 L 442 415 L 437 417 L 434 420 L 427 421 L 425 423 L 422 423 L 419 425 L 413 425 L 405 429 L 403 431 L 401 431 L 398 433 L 395 433 L 388 437 L 376 437 L 373 438 L 361 445 L 356 450 L 349 450 L 348 451 L 346 450 L 337 450 L 336 449 L 328 448 L 325 446 L 323 446 L 316 440 L 307 436 L 299 427 L 296 418 L 290 413 L 286 405 L 286 402 L 286 405 L 290 414 L 295 419 L 295 423 L 301 432 L 307 438 L 308 443 L 314 450 L 315 450 L 322 457 L 324 457 L 328 461 L 331 462 L 337 468 L 343 469 L 353 474 L 355 477 L 357 477 L 363 482 L 367 482 L 373 487 L 378 487 L 380 489 L 380 491 L 381 491 L 383 494 L 379 498 L 379 500 L 376 502 L 375 511 L 373 513 L 370 509 L 372 506 L 371 505 L 371 502 L 370 502 L 368 505 L 369 507 L 367 508 L 366 512 L 361 521 L 361 523 L 359 525 L 358 528 L 353 533 L 349 533 L 348 532 L 348 524 L 345 524 L 342 525 L 338 529 L 329 535 L 326 532 L 328 527 L 328 519 L 327 518 L 317 530 L 313 531 L 311 529 L 308 529 L 304 533 L 301 534 L 283 516 L 278 507 L 276 506 L 276 512 L 279 518 L 279 520 L 281 522 L 279 524 L 273 517 L 273 515 L 270 509 L 268 508 L 266 510 L 264 508 L 264 506 L 260 498 L 256 494 L 254 488 L 250 483 L 249 484 L 250 485 L 250 491 L 255 503 L 253 505 L 245 496 L 241 496 L 238 493 L 236 488 L 234 486 L 231 488 L 220 476 L 218 471 L 217 463 L 216 462 L 213 463 L 212 462 L 212 469 L 213 469 L 215 466 L 217 467 L 218 469 L 218 473 L 220 476 L 221 480 L 228 487 L 229 487 L 230 489 L 232 490 L 234 489 L 237 492 L 238 496 L 243 506 L 246 508 L 246 504 L 248 503 L 258 515 L 262 516 L 268 521 L 262 513 L 262 511 L 264 510 L 268 514 L 269 517 L 271 519 L 272 523 L 275 527 L 275 529 L 273 530 L 272 532 L 269 531 L 260 522 L 254 520 L 247 513 L 241 509 L 232 499 L 223 496 L 217 491 L 211 488 L 208 488 L 204 492 L 201 493 L 199 495 L 192 497 L 190 500 L 194 503 L 193 506 L 189 510 L 185 512 L 179 518 L 175 524 L 175 526 L 182 525 L 184 528 L 176 539 L 174 543 L 173 549 L 175 541 L 185 528 L 185 527 L 181 524 L 177 526 L 176 524 L 180 517 L 193 506 L 194 502 L 192 500 L 192 498 L 212 489 L 221 496 L 225 502 L 228 505 L 231 506 L 239 514 L 242 519 L 264 540 L 265 543 L 264 553 L 263 556 L 257 564 L 253 568 L 247 571 L 240 578 L 239 582 L 236 585 L 234 591 L 233 605 L 231 607 L 230 610 L 231 613 L 229 616 L 229 620 L 227 624 L 227 629 L 222 634 L 218 634 L 216 632 L 210 631 L 203 627 L 188 622 L 174 614 L 165 611 L 162 607 L 162 602 L 162 607 L 160 610 L 160 612 L 168 616 L 180 620 L 186 624 L 189 624 L 204 629 L 209 633 L 209 635 L 217 639 L 220 642 L 222 642 L 228 645 L 234 646 L 237 645 L 241 641 L 247 628 L 248 621 L 252 611 L 254 609 L 256 609 L 259 613 L 260 612 L 261 602 L 263 596 L 267 590 L 267 588 L 281 573 L 283 573 L 286 575 L 290 568 L 294 564 L 304 562 L 306 560 L 306 559 L 297 551 L 297 548 L 299 546 L 305 546 L 316 550 L 319 550 L 328 553 L 332 553 L 333 554 L 338 554 L 339 555 L 362 556 L 363 555 L 377 555 L 378 554 L 388 553 L 391 554 L 393 556 L 393 560 L 387 566 L 388 569 L 410 593 L 412 597 L 417 602 L 420 600 L 422 600 L 428 609 L 432 613 L 437 613 L 443 618 L 448 620 L 450 622 L 452 622 L 457 625 L 463 627 L 466 627 L 475 630 L 496 630 L 498 632 L 498 634 L 494 638 L 491 638 L 490 639 L 487 639 L 478 642 L 476 644 L 476 647 L 475 648 L 478 656 L 486 666 L 495 672 L 498 673 L 504 673 L 505 672 L 502 667 L 502 658 L 505 654 L 507 654 L 510 657 L 513 664 L 516 667 L 519 667 L 520 666 L 529 666 L 531 665 L 533 662 L 533 659 L 530 655 L 530 651 L 531 649 L 536 645 L 539 649 L 539 652 L 541 652 L 550 641 L 557 620 L 557 612 L 558 611 L 558 605 L 557 602 L 558 601 Z M 539 632 L 536 638 L 532 642 L 532 646 L 528 652 L 527 658 L 521 663 L 517 661 L 514 661 L 508 654 L 504 654 L 503 655 L 501 661 L 501 665 L 503 668 L 503 671 L 501 673 L 491 670 L 486 664 L 482 661 L 476 650 L 476 646 L 479 642 L 487 639 L 492 639 L 495 637 L 497 637 L 499 635 L 501 635 L 503 633 L 508 633 L 513 630 L 516 631 L 520 628 L 533 628 L 536 629 Z M 281 515 L 289 524 L 290 526 L 289 528 L 286 526 L 280 518 Z M 389 506 L 391 509 L 391 513 L 385 520 L 383 518 L 384 517 L 384 513 L 386 511 L 386 507 Z M 255 494 L 259 498 L 262 503 L 263 507 L 261 509 L 256 503 L 256 501 L 254 498 L 254 495 Z M 309 350 L 302 354 L 293 363 L 290 369 L 290 382 L 285 395 L 285 400 L 286 392 L 291 381 L 291 369 L 297 359 L 306 351 Z M 476 336 L 471 327 L 476 337 L 475 354 L 472 356 L 468 351 L 466 352 L 465 354 L 465 364 L 463 370 L 463 375 L 461 377 L 461 380 L 459 383 L 459 386 L 458 387 L 456 386 L 456 382 L 458 377 L 458 371 L 456 371 L 442 384 L 441 383 L 437 383 L 429 394 L 423 400 L 421 399 L 422 398 L 422 394 L 421 393 L 415 398 L 416 401 L 414 403 L 411 401 L 412 399 L 410 397 L 407 397 L 403 401 L 403 403 L 401 405 L 394 405 L 392 406 L 389 409 L 384 411 L 380 417 L 375 421 L 367 425 L 365 425 L 363 427 L 349 428 L 344 430 L 336 430 L 335 427 L 339 417 L 339 414 L 337 412 L 322 421 L 317 421 L 314 418 L 314 413 L 321 403 L 322 399 L 321 398 L 317 398 L 316 399 L 313 399 L 306 403 L 300 399 L 301 396 L 310 385 L 310 383 L 315 378 L 316 376 L 316 372 L 315 371 L 313 371 L 316 375 L 310 383 L 309 386 L 302 394 L 300 401 L 301 403 L 305 406 L 316 399 L 319 399 L 321 401 L 314 412 L 314 420 L 317 423 L 322 423 L 333 414 L 336 413 L 338 415 L 338 420 L 333 430 L 333 433 L 335 435 L 347 434 L 357 429 L 359 429 L 372 423 L 377 422 L 395 405 L 398 407 L 398 413 L 397 414 L 397 417 L 398 417 L 404 411 L 406 412 L 409 411 L 414 407 L 420 404 L 437 388 L 440 388 L 441 389 L 445 384 L 448 384 L 450 382 L 451 378 L 455 374 L 457 375 L 457 381 L 453 391 L 454 392 L 459 387 L 464 376 L 466 355 L 468 354 L 470 356 L 473 365 L 475 365 L 476 363 L 476 358 L 477 357 L 477 340 L 476 339 Z M 408 398 L 410 400 L 410 405 L 405 411 L 403 411 L 402 410 L 402 406 L 404 403 L 404 401 Z M 207 327 L 204 336 L 199 341 L 188 342 L 182 344 L 176 344 L 171 346 L 149 346 L 148 345 L 137 344 L 136 343 L 132 343 L 131 342 L 120 340 L 116 338 L 112 338 L 105 334 L 102 335 L 95 335 L 91 332 L 88 332 L 94 334 L 104 343 L 121 353 L 130 356 L 133 356 L 137 358 L 140 358 L 145 360 L 150 360 L 151 361 L 174 361 L 179 367 L 187 365 L 193 362 L 196 362 L 198 364 L 198 368 L 197 369 L 197 371 L 198 371 L 199 363 L 203 354 L 203 352 L 206 347 L 206 344 L 204 341 L 204 334 Z M 221 324 L 219 328 L 219 331 L 222 333 L 224 331 L 227 330 L 229 333 L 226 338 L 221 342 L 219 345 L 219 350 L 211 363 L 211 366 L 212 367 L 214 366 L 216 368 L 216 370 L 212 377 L 205 386 L 206 389 L 210 387 L 213 389 L 213 392 L 204 409 L 204 412 L 202 418 L 204 418 L 208 415 L 211 417 L 211 421 L 208 429 L 208 432 L 208 429 L 211 421 L 211 417 L 208 414 L 204 417 L 203 416 L 203 413 L 204 412 L 204 409 L 213 392 L 213 388 L 212 387 L 209 387 L 208 388 L 206 387 L 210 379 L 216 371 L 216 366 L 215 365 L 213 366 L 211 363 L 232 331 L 232 328 L 231 327 L 228 327 L 226 329 L 221 331 L 219 329 Z M 390 313 L 389 312 L 385 312 L 382 309 L 379 309 L 373 314 L 371 312 L 367 303 L 361 297 L 361 296 L 358 294 L 357 297 L 362 312 L 362 316 L 361 318 L 355 324 L 342 332 L 339 335 L 315 347 L 335 338 L 338 335 L 341 334 L 344 331 L 347 330 L 354 324 L 358 322 L 362 318 L 361 307 L 358 300 L 358 298 L 360 296 L 368 305 L 372 314 L 374 314 L 381 309 L 384 312 L 388 312 L 390 314 L 390 317 L 383 324 L 363 335 L 339 351 L 331 355 L 321 357 L 311 361 L 306 366 L 304 370 L 306 366 L 311 361 L 321 357 L 330 356 L 338 351 L 340 351 L 343 348 L 345 348 L 365 334 L 373 330 L 375 330 L 378 327 L 385 323 L 389 319 L 390 317 Z M 84 262 L 74 267 L 69 273 L 64 285 L 63 298 L 64 299 L 65 310 L 67 313 L 77 319 L 89 320 L 96 317 L 102 310 L 108 298 L 110 296 L 111 292 L 113 290 L 114 287 L 114 279 L 112 276 L 112 274 L 107 269 L 101 265 L 99 265 L 96 263 L 92 263 L 91 262 Z M 83 263 L 95 263 L 98 265 L 100 265 L 102 267 L 105 268 L 111 274 L 114 280 L 113 289 L 103 308 L 94 318 L 91 319 L 79 319 L 69 314 L 65 309 L 64 306 L 64 286 L 67 277 L 69 275 L 70 272 L 75 267 Z M 374 242 L 371 241 L 354 247 L 346 248 L 341 250 L 335 250 L 334 251 L 309 251 L 308 250 L 297 248 L 295 250 L 295 254 L 302 261 L 320 273 L 327 276 L 335 276 L 338 274 L 344 273 L 349 268 L 357 263 L 369 252 L 374 245 Z M 324 272 L 325 271 L 330 271 L 332 274 L 331 275 L 328 275 Z M 309 253 L 312 252 L 313 254 L 310 255 Z M 296 251 L 297 250 L 303 250 L 307 252 L 308 254 L 306 255 L 305 257 L 311 260 L 323 270 L 320 271 L 318 269 L 316 269 L 303 260 L 296 253 Z M 268 238 L 258 232 L 255 231 L 251 231 L 250 232 L 247 229 L 249 233 L 258 243 L 259 247 L 256 250 L 253 250 L 252 251 L 248 250 L 246 253 L 245 257 L 242 260 L 240 259 L 241 257 L 240 255 L 235 255 L 231 257 L 226 257 L 224 258 L 221 262 L 206 262 L 205 263 L 208 267 L 206 270 L 200 271 L 194 268 L 189 267 L 194 268 L 199 271 L 205 271 L 209 269 L 209 267 L 207 265 L 208 262 L 222 262 L 227 257 L 232 257 L 235 255 L 237 256 L 237 257 L 231 263 L 233 267 L 232 270 L 225 280 L 225 286 L 219 294 L 218 298 L 212 306 L 211 309 L 211 320 L 209 323 L 212 318 L 211 315 L 211 309 L 214 303 L 223 296 L 226 296 L 228 298 L 227 295 L 233 288 L 233 287 L 229 284 L 229 281 L 232 279 L 241 269 L 237 264 L 238 263 L 241 263 L 247 258 L 253 251 L 258 249 L 262 246 L 268 248 L 273 252 L 276 251 L 276 247 L 275 245 Z M 230 286 L 232 288 L 227 293 L 223 295 L 221 293 L 222 291 L 226 287 Z M 237 269 L 238 271 L 231 278 L 229 276 L 230 274 L 235 269 Z M 265 242 L 267 240 L 274 246 L 274 248 L 273 249 L 270 248 Z M 33 306 L 36 311 L 47 318 L 56 321 L 59 323 L 61 323 L 64 325 L 66 325 L 69 327 L 78 329 L 70 327 L 61 322 L 49 319 L 44 315 L 38 312 L 34 307 L 34 303 L 37 302 L 41 310 L 46 314 L 48 314 L 54 317 L 59 316 L 61 314 L 61 311 L 62 310 L 60 304 L 53 300 L 44 300 L 43 298 L 47 295 L 54 294 L 59 290 L 59 284 L 55 280 L 55 277 L 56 274 L 58 272 L 60 272 L 66 268 L 67 266 L 67 259 L 68 258 L 79 258 L 80 257 L 85 257 L 88 255 L 88 249 L 85 243 L 72 232 L 69 232 L 68 231 L 63 232 L 62 229 L 64 227 L 68 227 L 79 233 L 92 246 L 94 246 L 97 244 L 98 245 L 98 254 L 100 258 L 104 261 L 107 262 L 113 262 L 115 261 L 117 258 L 117 252 L 118 251 L 115 243 L 110 238 L 105 236 L 101 239 L 99 238 L 103 233 L 108 232 L 111 233 L 118 240 L 118 242 L 120 244 L 122 250 L 122 253 L 123 254 L 123 262 L 126 266 L 140 268 L 152 274 L 154 273 L 154 270 L 156 268 L 160 268 L 155 267 L 154 268 L 154 271 L 152 273 L 150 273 L 140 268 L 127 266 L 123 262 L 123 254 L 122 253 L 121 245 L 119 241 L 113 234 L 109 232 L 104 232 L 102 233 L 99 236 L 97 242 L 94 245 L 91 245 L 76 230 L 69 227 L 64 227 L 62 229 L 61 233 L 62 234 L 65 233 L 71 233 L 85 244 L 87 247 L 88 252 L 87 254 L 83 257 L 79 257 L 78 258 L 74 258 L 71 256 L 67 257 L 56 248 L 45 243 L 39 243 L 37 245 L 37 247 L 40 243 L 45 243 L 54 247 L 62 253 L 59 254 L 53 250 L 46 249 L 45 248 L 42 248 L 39 251 L 36 249 L 37 250 L 37 253 L 39 256 L 40 255 L 40 252 L 43 249 L 51 250 L 59 254 L 66 260 L 66 266 L 61 271 L 55 271 L 53 270 L 56 274 L 54 277 L 52 277 L 46 274 L 45 276 L 42 276 L 41 275 L 37 275 L 32 273 L 33 271 L 41 272 L 38 271 L 31 271 L 29 273 L 28 276 L 29 279 L 32 282 L 33 281 L 33 278 L 35 276 L 42 276 L 54 280 L 59 286 L 59 289 L 55 293 L 45 295 L 41 299 L 35 301 Z M 40 304 L 43 301 L 47 301 L 48 300 L 54 301 L 60 305 L 61 307 L 61 313 L 57 316 L 50 315 L 46 313 L 41 308 Z M 105 237 L 108 238 L 114 243 L 116 246 L 116 249 L 117 250 L 116 258 L 111 262 L 109 261 L 105 261 L 99 256 L 99 245 L 101 240 Z M 223 206 L 223 209 L 226 213 L 230 208 L 233 210 L 235 221 L 238 226 L 240 226 L 240 225 L 243 223 L 246 227 L 245 224 L 243 222 L 241 222 L 239 225 L 236 223 L 232 207 L 230 207 L 226 213 L 223 209 Z M 212 160 L 210 164 L 210 168 L 211 169 L 213 167 L 216 167 L 217 168 L 217 172 L 215 176 L 213 187 L 215 190 L 217 190 L 219 188 L 222 190 L 222 204 L 222 193 L 223 190 L 221 187 L 219 187 L 217 189 L 214 187 L 214 181 L 217 172 L 217 167 L 216 166 L 212 167 L 210 165 Z M 350 144 L 347 144 L 343 150 L 345 146 L 347 144 L 349 144 L 355 151 L 356 161 L 357 162 L 357 180 L 356 181 L 355 192 L 354 193 L 354 196 L 351 205 L 345 216 L 340 221 L 337 222 L 331 227 L 320 231 L 314 231 L 309 229 L 305 229 L 299 226 L 284 211 L 276 200 L 272 192 L 274 197 L 283 210 L 288 216 L 300 227 L 311 231 L 323 231 L 329 229 L 342 220 L 346 215 L 353 200 L 355 190 L 356 189 L 356 183 L 357 182 L 357 161 L 356 160 L 356 154 L 353 147 Z M 221 146 L 222 152 L 223 154 L 226 156 L 234 156 L 246 146 L 247 147 L 247 155 L 251 164 L 256 169 L 263 173 L 265 173 L 267 175 L 271 190 L 267 175 L 265 173 L 263 173 L 256 169 L 250 162 L 247 155 L 247 144 L 248 143 L 248 140 L 253 135 L 257 138 L 257 141 L 256 142 L 256 156 L 258 160 L 266 166 L 274 166 L 283 160 L 287 160 L 292 162 L 296 162 L 302 164 L 307 164 L 308 165 L 316 165 L 317 164 L 320 164 L 326 162 L 338 156 L 342 152 L 338 156 L 326 162 L 320 164 L 317 164 L 316 165 L 308 165 L 303 163 L 293 162 L 289 160 L 282 160 L 276 165 L 273 166 L 267 166 L 263 164 L 256 156 L 256 142 L 258 140 L 260 141 L 261 144 L 268 151 L 279 155 L 286 155 L 295 152 L 302 148 L 308 142 L 310 136 L 310 138 L 307 143 L 300 149 L 292 153 L 289 153 L 284 155 L 275 154 L 267 150 L 260 142 L 258 136 L 258 132 L 262 125 L 260 125 L 258 123 L 261 127 L 257 135 L 253 135 L 250 137 L 244 131 L 236 131 L 231 134 L 229 134 L 224 139 Z M 225 141 L 227 142 L 227 144 L 225 146 L 225 149 L 226 151 L 230 153 L 229 155 L 225 154 L 222 151 L 222 145 Z M 236 136 L 229 141 L 227 140 L 227 139 L 233 134 Z M 219 122 L 219 129 L 220 131 L 208 146 L 209 149 L 213 147 L 216 149 L 216 152 L 214 156 L 216 152 L 216 148 L 215 147 L 212 147 L 211 148 L 209 146 L 209 144 L 220 132 L 219 129 Z M 361 129 L 363 136 L 369 141 L 378 145 L 389 146 L 390 147 L 392 146 L 400 146 L 403 145 L 409 140 L 411 135 L 411 131 L 409 127 L 405 123 L 391 118 L 376 118 L 366 122 L 363 125 Z M 362 129 L 369 121 L 375 119 L 379 119 L 380 118 L 383 119 L 392 119 L 404 123 L 409 128 L 411 134 L 410 137 L 402 144 L 399 145 L 381 145 L 375 143 L 368 139 L 363 134 Z M 284 112 L 285 113 L 290 113 L 295 111 L 303 111 L 311 114 L 316 114 L 317 113 L 317 110 L 307 105 L 298 105 L 297 106 L 293 106 L 290 108 L 288 108 Z M 279 62 L 276 60 L 269 60 L 267 61 L 261 68 L 259 72 L 259 75 L 261 77 L 264 77 L 270 72 L 277 69 L 280 66 Z M 279 63 L 279 67 L 277 69 L 271 71 L 264 77 L 261 77 L 259 75 L 259 72 L 261 68 L 270 60 L 276 60 Z M 239 58 L 234 58 L 228 61 L 223 67 L 221 72 L 221 79 L 227 87 L 231 89 L 234 88 L 236 86 L 242 75 L 249 67 L 249 64 L 247 62 Z M 238 76 L 239 77 L 236 83 L 232 87 L 230 87 L 228 85 L 228 83 L 231 81 L 233 81 L 233 80 Z M 453 45 L 453 54 L 451 60 L 449 62 L 448 65 L 443 70 L 435 75 L 435 77 L 443 88 L 448 99 L 454 106 L 454 108 L 451 111 L 451 113 L 456 118 L 458 118 L 465 124 L 464 126 L 458 126 L 456 128 L 456 131 L 466 142 L 469 147 L 468 149 L 463 148 L 461 150 L 461 155 L 465 162 L 465 165 L 467 171 L 464 172 L 460 170 L 456 173 L 455 170 L 457 164 L 454 160 L 448 160 L 443 157 L 440 158 L 446 166 L 446 169 L 444 171 L 441 170 L 441 172 L 445 176 L 446 184 L 444 185 L 441 182 L 437 182 L 436 183 L 436 185 L 439 189 L 439 192 L 437 194 L 435 194 L 430 191 L 427 191 L 426 192 L 435 201 L 433 205 L 428 204 L 426 206 L 425 209 L 425 212 L 431 217 L 430 220 L 426 224 L 424 224 L 423 223 L 423 219 L 424 217 L 423 215 L 420 214 L 419 215 L 419 222 L 414 227 L 410 227 L 405 235 L 403 235 L 400 232 L 395 239 L 395 245 L 398 246 L 404 242 L 411 242 L 412 241 L 421 240 L 425 244 L 438 251 L 440 253 L 437 256 L 437 258 L 440 261 L 446 264 L 453 272 L 452 274 L 449 274 L 447 277 L 456 287 L 459 294 L 472 312 L 472 315 L 471 316 L 469 315 L 466 315 L 465 316 L 467 321 L 469 323 L 466 319 L 466 317 L 468 315 L 471 316 L 473 318 L 474 317 L 473 314 L 465 301 L 462 298 L 461 295 L 458 292 L 457 288 L 455 285 L 448 278 L 450 275 L 453 275 L 456 277 L 457 276 L 446 264 L 442 262 L 438 258 L 438 257 L 440 255 L 442 255 L 442 254 L 437 250 L 429 246 L 426 243 L 426 241 L 421 237 L 421 235 L 432 227 L 431 222 L 438 214 L 440 215 L 439 220 L 443 219 L 446 216 L 449 211 L 452 202 L 452 194 L 454 192 L 456 192 L 458 194 L 460 193 L 460 176 L 459 173 L 461 171 L 464 172 L 466 174 L 468 173 L 468 170 L 465 161 L 461 154 L 461 151 L 463 149 L 470 151 L 471 149 L 467 142 L 456 130 L 459 126 L 461 127 L 467 127 L 467 124 L 452 114 L 452 111 L 455 110 L 455 107 L 448 98 L 444 89 L 436 78 L 436 76 L 440 73 L 450 62 L 453 54 Z M 434 207 L 436 210 L 433 213 L 432 212 L 432 209 Z M 304 38 L 293 38 L 291 39 L 287 44 L 282 45 L 273 49 L 263 57 L 261 57 L 259 55 L 258 52 L 252 46 L 243 42 L 232 42 L 221 47 L 213 55 L 209 62 L 209 64 L 209 62 L 213 55 L 220 48 L 232 42 L 243 42 L 253 47 L 257 51 L 259 55 L 261 57 L 263 57 L 275 48 L 279 47 L 282 45 L 288 44 L 292 39 L 295 38 Z M 419 34 L 414 36 L 407 43 L 405 48 L 409 53 L 412 54 L 425 66 L 428 67 L 432 65 L 438 58 L 438 54 L 439 53 L 438 46 L 436 42 L 431 37 L 427 35 Z M 416 37 L 426 37 L 429 38 L 435 43 L 438 49 L 438 53 L 435 60 L 429 65 L 426 65 L 417 56 L 406 49 L 406 47 L 409 42 Z M 452 43 L 450 36 L 440 25 L 429 19 L 425 19 L 424 18 L 415 18 L 404 22 L 395 30 L 393 33 L 392 38 L 389 41 L 379 37 L 366 35 L 365 34 L 346 34 L 345 35 L 342 35 L 340 33 L 342 28 L 342 24 L 337 25 L 328 34 L 325 33 L 319 28 L 317 28 L 314 26 L 309 26 L 312 35 L 309 38 L 307 38 L 310 38 L 312 36 L 310 30 L 311 27 L 318 28 L 325 33 L 328 34 L 330 33 L 335 27 L 338 25 L 340 25 L 342 27 L 340 31 L 340 34 L 341 35 L 346 35 L 347 34 L 364 34 L 370 36 L 375 36 L 390 41 L 392 39 L 393 33 L 396 29 L 404 22 L 406 22 L 411 19 L 414 19 L 415 18 L 423 18 L 424 19 L 428 19 L 431 21 L 433 21 L 441 26 L 450 36 Z" fill="#D8D8D8" fill-rule="evenodd"/><path d="M 280 515 L 283 521 L 287 526 L 289 527 L 288 524 Z M 255 495 L 255 498 L 257 501 L 257 503 L 261 508 L 262 507 L 261 503 Z M 508 418 L 505 418 L 503 420 L 504 423 L 504 431 L 505 432 L 505 442 L 506 443 L 505 456 L 504 457 L 505 460 L 506 460 L 510 455 L 514 445 L 514 432 Z M 506 420 L 510 424 L 510 426 L 513 431 L 513 446 L 508 455 L 506 454 L 506 437 L 505 436 L 505 427 L 504 426 L 504 422 Z M 408 399 L 405 401 L 405 403 L 403 406 L 403 410 L 405 410 L 409 405 L 409 400 Z M 481 381 L 480 384 L 482 386 L 485 386 L 486 385 L 484 381 Z M 164 378 L 187 378 L 189 379 L 195 386 L 195 391 L 197 397 L 197 403 L 193 412 L 192 421 L 193 422 L 194 428 L 197 431 L 197 438 L 196 439 L 196 455 L 197 456 L 197 459 L 201 465 L 202 478 L 199 481 L 186 488 L 181 493 L 179 499 L 180 495 L 185 489 L 191 485 L 200 481 L 202 479 L 201 464 L 197 458 L 197 454 L 196 453 L 197 431 L 193 425 L 193 414 L 198 399 L 196 396 L 195 384 L 193 381 L 187 378 Z M 41 304 L 42 308 L 46 312 L 50 314 L 57 315 L 60 313 L 60 307 L 59 305 L 54 302 L 48 301 L 47 302 L 43 302 Z M 231 288 L 230 287 L 226 288 L 222 293 L 223 294 L 227 292 Z M 237 270 L 235 270 L 230 276 L 231 277 L 237 271 Z M 83 264 L 75 268 L 71 272 L 70 275 L 68 277 L 65 286 L 65 306 L 68 312 L 76 317 L 79 318 L 91 318 L 94 317 L 102 308 L 112 289 L 113 280 L 110 274 L 105 269 L 102 268 L 100 266 L 98 266 L 95 264 Z M 297 251 L 297 253 L 303 259 L 314 267 L 318 268 L 320 270 L 322 270 L 319 267 L 316 266 L 311 261 L 306 259 L 304 257 L 307 253 L 303 251 Z M 267 241 L 266 242 L 270 247 L 273 248 L 273 246 Z M 105 238 L 102 240 L 100 245 L 100 256 L 105 260 L 109 260 L 111 261 L 115 258 L 116 255 L 115 246 L 112 242 Z M 225 142 L 223 145 L 223 151 L 225 153 L 229 154 L 229 153 L 226 152 L 224 149 L 224 146 L 226 144 L 226 142 Z M 249 140 L 249 143 L 248 144 L 248 155 L 251 162 L 256 168 L 263 172 L 265 172 L 268 175 L 272 191 L 277 200 L 285 211 L 299 225 L 305 228 L 309 228 L 314 230 L 320 230 L 331 226 L 334 223 L 340 220 L 344 216 L 350 205 L 353 196 L 353 193 L 354 192 L 355 181 L 356 180 L 356 162 L 355 161 L 355 155 L 353 149 L 349 145 L 346 146 L 343 152 L 338 157 L 320 165 L 317 165 L 316 166 L 308 166 L 307 165 L 302 165 L 301 164 L 292 163 L 287 161 L 283 161 L 274 167 L 266 167 L 261 164 L 257 160 L 255 156 L 255 142 L 256 141 L 256 138 L 253 136 Z M 250 140 L 253 137 L 255 138 L 254 154 L 257 161 L 263 166 L 268 168 L 275 167 L 284 161 L 290 163 L 293 163 L 294 164 L 297 164 L 298 165 L 303 165 L 304 166 L 318 166 L 319 165 L 322 165 L 340 156 L 343 153 L 345 149 L 349 146 L 353 150 L 354 157 L 355 158 L 355 183 L 354 184 L 353 193 L 352 194 L 352 197 L 350 203 L 347 208 L 347 210 L 341 218 L 339 217 L 339 215 L 344 206 L 345 200 L 346 199 L 346 193 L 341 186 L 336 183 L 333 183 L 332 182 L 323 182 L 313 186 L 304 193 L 299 199 L 296 206 L 296 211 L 298 215 L 306 224 L 304 226 L 300 225 L 285 210 L 277 199 L 276 196 L 274 194 L 274 192 L 270 183 L 269 174 L 267 172 L 260 170 L 256 167 L 251 161 L 248 154 L 248 146 Z M 235 136 L 234 135 L 231 136 L 228 140 Z M 363 129 L 364 134 L 368 138 L 375 142 L 381 144 L 399 144 L 402 143 L 409 137 L 410 134 L 408 128 L 404 124 L 392 120 L 383 120 L 382 119 L 375 120 L 369 122 Z M 264 100 L 261 103 L 257 114 L 258 122 L 260 124 L 263 125 L 259 132 L 259 136 L 263 145 L 270 151 L 275 153 L 279 153 L 280 154 L 284 154 L 285 153 L 292 152 L 303 146 L 309 138 L 310 135 L 310 130 L 309 128 L 304 124 L 294 120 L 277 120 L 276 121 L 272 121 L 270 123 L 268 121 L 272 115 L 273 112 L 273 106 L 272 103 L 269 100 Z M 260 131 L 264 126 L 269 124 L 271 122 L 277 121 L 278 120 L 292 120 L 293 121 L 299 122 L 306 126 L 309 129 L 310 133 L 309 134 L 309 137 L 306 142 L 297 149 L 287 153 L 277 153 L 271 151 L 262 143 L 260 138 Z M 269 100 L 272 104 L 273 111 L 270 118 L 266 122 L 261 124 L 258 121 L 258 110 L 261 104 L 265 100 Z M 349 94 L 347 95 L 343 100 L 341 111 L 342 112 L 343 119 L 346 122 L 351 123 L 354 122 L 358 118 L 359 115 L 359 103 L 358 100 L 354 95 Z M 348 95 L 353 95 L 357 99 L 359 104 L 359 114 L 358 117 L 353 122 L 347 122 L 342 116 L 342 104 L 344 99 Z M 238 77 L 237 77 L 233 82 L 229 83 L 229 85 L 232 86 L 235 83 Z M 278 63 L 276 61 L 270 61 L 262 68 L 260 72 L 260 75 L 261 76 L 264 76 L 271 70 L 277 68 L 278 67 Z M 278 64 L 275 68 L 270 70 L 264 75 L 261 75 L 260 74 L 262 69 L 271 62 L 276 62 Z M 347 54 L 347 58 L 350 60 L 354 60 L 362 65 L 366 65 L 367 64 L 367 58 L 361 53 L 355 51 L 351 51 Z M 347 55 L 350 52 L 356 52 L 363 55 L 367 59 L 367 62 L 365 64 L 362 64 L 356 60 L 349 59 L 347 57 Z M 411 41 L 407 47 L 408 50 L 413 52 L 417 55 L 426 64 L 429 64 L 434 60 L 437 53 L 437 49 L 432 41 L 426 38 L 416 38 L 414 40 Z M 435 20 L 427 17 L 421 17 L 420 16 L 417 16 L 416 17 L 413 17 L 407 19 L 400 23 L 394 29 L 392 32 L 391 37 L 389 39 L 384 38 L 381 36 L 378 36 L 373 34 L 369 34 L 368 33 L 361 33 L 360 32 L 344 33 L 342 31 L 344 27 L 344 23 L 343 22 L 340 22 L 334 25 L 328 32 L 325 31 L 318 26 L 316 26 L 313 24 L 309 24 L 308 25 L 308 29 L 310 32 L 310 35 L 308 37 L 290 37 L 286 43 L 278 45 L 272 48 L 263 55 L 262 55 L 253 45 L 247 42 L 240 41 L 239 40 L 231 41 L 222 45 L 212 54 L 207 64 L 207 67 L 206 68 L 206 80 L 208 86 L 210 88 L 211 91 L 217 97 L 221 99 L 224 99 L 226 101 L 225 106 L 217 124 L 218 132 L 217 134 L 211 139 L 206 147 L 207 150 L 213 149 L 215 151 L 208 166 L 208 169 L 210 171 L 212 170 L 215 171 L 215 174 L 212 183 L 212 189 L 214 192 L 219 191 L 221 193 L 221 207 L 224 214 L 227 215 L 230 211 L 232 212 L 233 219 L 236 226 L 239 230 L 243 226 L 246 229 L 249 235 L 254 240 L 257 245 L 255 248 L 252 249 L 248 247 L 245 247 L 244 248 L 244 251 L 242 253 L 236 253 L 231 255 L 223 256 L 219 261 L 208 261 L 205 260 L 203 262 L 205 266 L 203 269 L 200 269 L 199 268 L 196 268 L 192 266 L 184 265 L 183 264 L 176 264 L 176 266 L 181 271 L 179 273 L 177 273 L 158 266 L 153 266 L 152 269 L 149 271 L 144 268 L 138 266 L 127 264 L 124 260 L 124 251 L 123 250 L 122 244 L 119 238 L 111 231 L 103 231 L 101 232 L 98 235 L 96 241 L 94 243 L 92 243 L 75 228 L 70 226 L 63 226 L 60 231 L 60 237 L 64 247 L 67 250 L 66 253 L 64 253 L 57 247 L 46 242 L 38 242 L 36 244 L 35 247 L 35 253 L 39 261 L 45 267 L 46 267 L 52 273 L 51 275 L 48 273 L 39 270 L 36 270 L 35 269 L 30 270 L 27 274 L 27 278 L 29 282 L 42 294 L 41 297 L 35 299 L 32 303 L 32 307 L 34 311 L 48 320 L 57 324 L 62 325 L 65 327 L 74 330 L 77 330 L 78 331 L 86 332 L 92 334 L 107 347 L 122 355 L 131 358 L 135 358 L 136 359 L 139 359 L 148 362 L 172 362 L 175 365 L 174 369 L 180 369 L 191 364 L 194 364 L 196 366 L 196 372 L 197 373 L 200 373 L 201 362 L 208 347 L 205 337 L 206 336 L 206 332 L 208 329 L 208 327 L 213 319 L 213 315 L 212 314 L 213 307 L 221 299 L 225 298 L 227 300 L 227 302 L 223 308 L 223 310 L 221 312 L 223 318 L 217 330 L 217 332 L 220 335 L 219 342 L 217 346 L 217 350 L 209 365 L 209 367 L 212 368 L 214 370 L 214 372 L 207 380 L 203 387 L 203 390 L 204 391 L 206 391 L 209 389 L 212 391 L 204 406 L 201 415 L 201 420 L 203 421 L 207 418 L 209 419 L 209 423 L 208 424 L 207 432 L 205 437 L 204 449 L 206 451 L 208 449 L 211 451 L 211 459 L 210 460 L 210 468 L 211 469 L 211 472 L 212 473 L 215 471 L 217 472 L 217 475 L 221 484 L 228 493 L 225 494 L 211 486 L 208 486 L 204 490 L 198 494 L 192 496 L 188 500 L 188 501 L 191 503 L 191 506 L 188 509 L 184 511 L 176 520 L 173 527 L 174 528 L 178 528 L 180 527 L 181 530 L 177 535 L 173 543 L 171 553 L 170 554 L 170 560 L 169 561 L 168 568 L 178 573 L 185 580 L 183 582 L 163 574 L 153 573 L 152 572 L 138 572 L 124 578 L 119 582 L 114 592 L 114 598 L 115 598 L 115 595 L 119 591 L 123 594 L 129 605 L 129 608 L 127 610 L 123 607 L 122 609 L 128 617 L 130 617 L 139 609 L 146 609 L 161 614 L 187 627 L 194 629 L 212 638 L 218 643 L 224 646 L 227 646 L 228 647 L 237 647 L 243 641 L 247 633 L 253 613 L 256 612 L 259 615 L 261 615 L 262 604 L 266 595 L 266 593 L 268 590 L 274 584 L 276 585 L 276 588 L 277 588 L 278 579 L 281 576 L 284 578 L 286 578 L 290 571 L 294 567 L 298 567 L 306 563 L 309 560 L 309 557 L 302 554 L 300 552 L 300 549 L 301 548 L 306 548 L 316 552 L 319 552 L 324 554 L 328 554 L 329 555 L 340 556 L 341 557 L 373 557 L 374 556 L 380 556 L 381 555 L 389 555 L 391 557 L 391 560 L 385 565 L 388 571 L 407 592 L 411 598 L 416 603 L 421 602 L 425 606 L 427 610 L 433 616 L 438 616 L 447 622 L 449 622 L 458 627 L 460 627 L 466 630 L 477 631 L 478 632 L 493 632 L 494 633 L 494 635 L 492 637 L 485 638 L 477 641 L 474 645 L 474 650 L 478 659 L 487 669 L 496 674 L 504 675 L 507 673 L 503 665 L 503 660 L 506 657 L 509 659 L 512 666 L 515 669 L 527 668 L 532 666 L 536 661 L 542 656 L 544 652 L 549 646 L 551 640 L 554 635 L 555 630 L 557 627 L 558 619 L 559 618 L 559 612 L 560 611 L 559 592 L 558 591 L 556 581 L 553 575 L 546 568 L 540 565 L 537 565 L 530 562 L 526 558 L 520 549 L 520 546 L 512 542 L 509 539 L 509 536 L 505 532 L 499 521 L 499 517 L 497 513 L 491 507 L 486 499 L 482 504 L 479 504 L 476 501 L 477 494 L 480 490 L 488 472 L 488 469 L 490 464 L 490 458 L 491 457 L 491 449 L 493 447 L 496 448 L 496 436 L 495 435 L 495 430 L 494 429 L 493 422 L 490 417 L 490 412 L 492 410 L 492 406 L 485 396 L 478 389 L 476 389 L 474 391 L 471 391 L 461 401 L 454 405 L 447 407 L 438 414 L 432 417 L 417 422 L 411 423 L 398 431 L 390 432 L 384 435 L 376 435 L 373 437 L 371 437 L 364 442 L 360 443 L 358 445 L 352 447 L 349 447 L 348 448 L 337 448 L 336 447 L 329 446 L 326 444 L 322 443 L 314 437 L 308 434 L 303 429 L 298 418 L 290 410 L 287 403 L 287 394 L 293 381 L 292 371 L 296 363 L 310 350 L 336 339 L 359 323 L 364 318 L 363 312 L 362 311 L 362 307 L 364 305 L 369 309 L 369 311 L 372 315 L 375 315 L 379 312 L 381 312 L 382 313 L 386 313 L 388 315 L 388 317 L 383 322 L 377 325 L 374 328 L 365 332 L 338 350 L 330 354 L 327 354 L 326 355 L 323 355 L 314 358 L 312 360 L 309 361 L 305 365 L 302 371 L 302 376 L 303 377 L 312 373 L 314 376 L 311 379 L 306 388 L 301 393 L 299 397 L 299 402 L 304 408 L 308 407 L 314 402 L 317 403 L 317 405 L 315 407 L 312 414 L 312 419 L 314 423 L 317 425 L 323 425 L 328 420 L 334 416 L 336 418 L 335 423 L 332 426 L 332 429 L 331 430 L 331 435 L 334 437 L 342 437 L 343 436 L 350 435 L 353 433 L 355 433 L 357 431 L 364 429 L 366 427 L 373 425 L 382 420 L 394 408 L 396 410 L 396 413 L 395 414 L 395 419 L 396 420 L 404 414 L 410 413 L 418 408 L 433 394 L 436 395 L 434 401 L 434 404 L 435 405 L 442 391 L 445 388 L 447 388 L 452 382 L 454 383 L 454 386 L 451 391 L 451 394 L 455 393 L 460 388 L 465 378 L 465 375 L 466 374 L 466 366 L 468 360 L 470 361 L 471 365 L 474 369 L 477 366 L 478 363 L 478 357 L 479 356 L 479 342 L 478 341 L 477 335 L 469 321 L 470 318 L 475 320 L 475 315 L 470 308 L 470 306 L 467 303 L 464 297 L 460 292 L 459 288 L 451 279 L 453 277 L 459 280 L 461 279 L 457 273 L 442 259 L 442 258 L 445 257 L 446 255 L 438 249 L 433 247 L 430 244 L 432 240 L 427 239 L 424 236 L 427 233 L 436 228 L 447 217 L 452 207 L 453 197 L 456 194 L 458 196 L 461 195 L 462 193 L 462 178 L 461 175 L 463 173 L 466 176 L 469 176 L 470 175 L 469 167 L 463 155 L 463 153 L 465 151 L 469 153 L 472 153 L 473 152 L 470 143 L 459 131 L 460 128 L 464 128 L 466 129 L 469 127 L 469 125 L 465 120 L 457 116 L 455 114 L 455 112 L 458 110 L 458 108 L 452 101 L 444 86 L 438 78 L 438 76 L 446 70 L 452 61 L 454 55 L 454 44 L 453 43 L 452 37 L 449 32 L 441 24 Z M 534 649 L 537 650 L 538 655 L 536 657 L 532 654 L 532 651 Z M 125 612 L 126 611 L 129 612 L 130 615 L 128 616 Z M 130 603 L 131 602 L 138 607 L 136 609 L 133 610 L 130 606 Z M 154 590 L 159 592 L 162 596 L 160 606 L 158 608 L 153 607 L 150 604 L 149 601 L 150 593 Z M 133 586 L 136 586 L 139 589 L 139 602 L 137 604 L 135 604 L 129 597 L 129 589 Z M 232 41 L 243 41 L 252 45 L 259 52 L 260 55 L 263 56 L 273 48 L 282 44 L 287 43 L 289 40 L 293 37 L 304 37 L 305 38 L 309 37 L 311 35 L 308 28 L 309 25 L 314 25 L 317 27 L 319 27 L 325 32 L 328 33 L 339 23 L 342 23 L 343 24 L 343 28 L 341 32 L 342 34 L 345 34 L 346 33 L 365 33 L 366 34 L 379 36 L 389 40 L 391 38 L 392 33 L 394 30 L 401 23 L 406 20 L 415 17 L 429 18 L 437 22 L 449 33 L 452 38 L 453 44 L 454 45 L 454 54 L 452 60 L 449 65 L 437 76 L 437 78 L 442 84 L 449 98 L 456 107 L 456 110 L 453 111 L 453 114 L 462 119 L 468 124 L 468 127 L 467 128 L 461 128 L 459 127 L 457 130 L 468 142 L 472 149 L 470 152 L 464 150 L 462 151 L 462 154 L 466 161 L 469 170 L 469 173 L 467 175 L 462 172 L 460 173 L 461 176 L 461 193 L 459 195 L 456 193 L 453 194 L 453 202 L 450 211 L 447 216 L 443 220 L 439 221 L 438 220 L 439 215 L 438 215 L 438 216 L 434 219 L 432 222 L 433 227 L 423 234 L 422 237 L 427 241 L 427 243 L 429 245 L 437 249 L 443 254 L 443 255 L 440 256 L 439 258 L 442 261 L 446 263 L 458 276 L 456 278 L 453 276 L 450 276 L 449 278 L 456 285 L 458 288 L 459 292 L 470 307 L 475 317 L 473 319 L 471 317 L 468 316 L 467 319 L 473 328 L 478 340 L 478 357 L 477 358 L 477 363 L 475 366 L 473 366 L 470 361 L 469 356 L 467 355 L 467 358 L 466 359 L 466 370 L 465 371 L 464 379 L 460 387 L 454 393 L 452 390 L 455 385 L 456 375 L 452 378 L 451 382 L 448 385 L 445 385 L 441 390 L 440 389 L 437 389 L 420 405 L 414 408 L 409 412 L 406 413 L 404 412 L 398 418 L 396 417 L 397 407 L 395 406 L 377 423 L 372 424 L 347 435 L 335 436 L 332 433 L 332 430 L 337 420 L 337 415 L 336 414 L 333 415 L 322 424 L 317 424 L 313 420 L 313 412 L 320 401 L 319 400 L 316 400 L 312 402 L 306 407 L 303 406 L 300 403 L 299 399 L 301 394 L 308 386 L 309 383 L 315 375 L 315 374 L 312 372 L 306 376 L 304 376 L 302 374 L 302 372 L 305 366 L 311 360 L 321 356 L 331 354 L 339 350 L 363 334 L 383 323 L 389 317 L 389 314 L 388 313 L 384 313 L 381 310 L 374 315 L 372 315 L 370 313 L 370 311 L 367 305 L 360 297 L 359 300 L 362 307 L 363 318 L 358 323 L 354 325 L 347 331 L 344 332 L 341 335 L 338 336 L 335 339 L 306 352 L 301 356 L 295 363 L 292 369 L 292 381 L 287 392 L 286 401 L 291 413 L 297 418 L 300 427 L 307 435 L 316 439 L 323 445 L 325 445 L 328 447 L 336 448 L 337 449 L 346 449 L 348 450 L 349 449 L 356 449 L 361 444 L 373 437 L 376 436 L 388 436 L 395 432 L 398 432 L 401 430 L 403 430 L 405 428 L 413 424 L 419 424 L 422 422 L 425 422 L 427 420 L 434 419 L 437 416 L 442 414 L 446 410 L 456 406 L 459 403 L 463 401 L 471 393 L 480 393 L 486 399 L 489 404 L 488 414 L 493 425 L 494 433 L 495 434 L 495 442 L 493 444 L 491 444 L 489 466 L 485 475 L 485 478 L 481 485 L 481 487 L 479 489 L 475 497 L 475 501 L 478 505 L 485 505 L 487 507 L 490 507 L 495 512 L 497 515 L 499 524 L 501 526 L 504 532 L 504 535 L 506 538 L 511 543 L 513 543 L 517 547 L 517 548 L 523 554 L 525 559 L 530 564 L 538 568 L 542 567 L 546 569 L 552 575 L 555 580 L 556 586 L 558 590 L 558 595 L 559 596 L 559 601 L 558 602 L 559 605 L 558 620 L 551 641 L 541 653 L 538 652 L 538 649 L 536 646 L 532 649 L 531 651 L 531 655 L 534 659 L 534 662 L 533 664 L 529 667 L 520 667 L 519 668 L 516 668 L 512 664 L 509 657 L 507 655 L 505 655 L 503 658 L 503 667 L 506 672 L 504 674 L 498 674 L 495 673 L 486 667 L 485 665 L 481 662 L 475 652 L 475 649 L 474 648 L 475 647 L 475 644 L 480 640 L 494 637 L 497 634 L 497 632 L 496 631 L 475 631 L 474 630 L 470 630 L 466 628 L 463 628 L 457 626 L 452 623 L 450 623 L 448 621 L 443 619 L 437 614 L 432 614 L 427 609 L 422 601 L 420 601 L 417 603 L 387 569 L 386 566 L 392 560 L 392 556 L 388 554 L 378 555 L 377 556 L 363 556 L 362 557 L 339 556 L 338 555 L 333 555 L 332 554 L 328 554 L 327 553 L 316 551 L 305 547 L 299 547 L 298 548 L 298 551 L 304 556 L 307 560 L 304 563 L 294 565 L 291 568 L 290 571 L 286 576 L 283 574 L 281 574 L 268 588 L 268 590 L 266 592 L 262 602 L 261 612 L 259 614 L 256 610 L 253 611 L 249 621 L 248 628 L 242 641 L 237 646 L 234 647 L 228 646 L 222 643 L 220 643 L 217 640 L 209 636 L 208 633 L 204 630 L 189 625 L 186 625 L 180 621 L 178 621 L 160 613 L 159 610 L 161 607 L 162 595 L 160 592 L 156 590 L 152 590 L 150 592 L 149 595 L 149 602 L 150 605 L 153 608 L 152 610 L 146 609 L 145 608 L 141 608 L 139 606 L 141 601 L 141 591 L 138 586 L 132 586 L 130 587 L 128 590 L 128 594 L 126 596 L 122 591 L 120 590 L 117 591 L 116 590 L 118 584 L 122 580 L 128 576 L 138 572 L 152 572 L 153 573 L 166 575 L 181 582 L 186 582 L 187 581 L 180 574 L 173 570 L 171 570 L 169 568 L 169 562 L 170 561 L 170 556 L 171 555 L 171 551 L 172 550 L 173 543 L 183 528 L 182 526 L 175 527 L 174 524 L 178 518 L 185 511 L 189 509 L 192 506 L 193 503 L 191 502 L 189 499 L 192 496 L 197 495 L 204 491 L 208 487 L 211 487 L 217 490 L 223 495 L 232 498 L 241 508 L 247 512 L 254 519 L 260 521 L 269 530 L 272 531 L 272 530 L 274 529 L 274 527 L 272 525 L 270 519 L 264 511 L 263 511 L 263 513 L 269 521 L 268 522 L 262 517 L 258 516 L 248 504 L 247 504 L 247 508 L 246 509 L 242 506 L 240 503 L 240 501 L 237 496 L 236 492 L 234 490 L 232 491 L 230 490 L 229 488 L 228 488 L 220 480 L 219 476 L 217 473 L 217 469 L 216 467 L 215 467 L 213 470 L 211 469 L 211 447 L 210 446 L 207 449 L 204 448 L 207 429 L 210 421 L 210 417 L 208 416 L 204 419 L 202 419 L 201 417 L 202 416 L 203 409 L 212 392 L 212 389 L 211 388 L 206 390 L 204 388 L 204 386 L 211 377 L 215 370 L 214 367 L 212 368 L 210 366 L 210 363 L 218 350 L 218 345 L 219 343 L 225 338 L 228 332 L 226 331 L 221 334 L 218 331 L 218 328 L 223 319 L 222 311 L 228 299 L 226 297 L 221 298 L 215 303 L 212 309 L 212 315 L 213 318 L 209 324 L 205 334 L 205 341 L 207 344 L 207 347 L 202 357 L 200 363 L 199 371 L 197 372 L 196 371 L 197 368 L 197 364 L 196 363 L 193 363 L 187 366 L 179 368 L 174 362 L 151 362 L 150 361 L 145 361 L 144 360 L 137 359 L 133 357 L 130 357 L 121 354 L 104 344 L 94 335 L 90 333 L 83 332 L 75 329 L 72 329 L 47 319 L 36 312 L 34 310 L 32 305 L 33 302 L 35 300 L 41 298 L 45 294 L 55 292 L 58 289 L 58 286 L 54 281 L 42 277 L 35 277 L 34 278 L 34 281 L 32 283 L 28 279 L 27 275 L 31 270 L 38 270 L 47 273 L 52 276 L 54 276 L 55 274 L 52 271 L 53 269 L 55 270 L 61 270 L 65 266 L 65 260 L 59 255 L 51 251 L 43 250 L 41 252 L 41 255 L 39 257 L 37 255 L 35 249 L 36 248 L 36 245 L 39 242 L 45 242 L 59 249 L 67 256 L 71 255 L 74 257 L 78 257 L 79 256 L 83 256 L 86 254 L 87 250 L 86 247 L 82 242 L 71 234 L 65 234 L 62 235 L 60 233 L 61 229 L 64 226 L 69 226 L 76 229 L 91 244 L 94 244 L 96 242 L 98 236 L 102 232 L 104 231 L 109 231 L 113 233 L 118 238 L 122 245 L 123 253 L 124 254 L 124 262 L 127 265 L 140 267 L 150 272 L 152 272 L 153 271 L 153 268 L 156 266 L 178 274 L 181 274 L 182 271 L 177 266 L 178 265 L 187 265 L 202 270 L 207 268 L 206 265 L 204 263 L 206 261 L 221 261 L 224 257 L 226 256 L 231 256 L 235 254 L 240 254 L 242 256 L 241 259 L 242 259 L 244 257 L 245 253 L 248 249 L 252 250 L 253 249 L 256 249 L 258 247 L 257 243 L 246 230 L 245 226 L 243 224 L 242 224 L 240 227 L 238 227 L 236 225 L 234 221 L 232 210 L 230 209 L 226 214 L 223 211 L 222 209 L 222 205 L 221 204 L 221 190 L 219 189 L 217 191 L 215 191 L 212 187 L 214 176 L 216 172 L 216 168 L 213 168 L 211 170 L 209 168 L 209 164 L 213 157 L 213 155 L 215 152 L 215 149 L 213 148 L 209 150 L 207 148 L 207 146 L 219 131 L 218 129 L 218 122 L 225 107 L 226 100 L 218 97 L 211 90 L 207 82 L 207 79 L 206 78 L 206 70 L 207 69 L 208 62 L 212 55 L 221 46 Z M 437 11 L 431 10 L 430 9 L 426 9 L 425 8 L 415 8 L 414 9 L 410 9 L 406 11 L 403 11 L 394 16 L 383 28 L 377 26 L 373 26 L 372 25 L 367 25 L 366 24 L 354 24 L 347 15 L 340 14 L 334 16 L 326 22 L 317 17 L 306 17 L 301 21 L 300 27 L 298 29 L 288 30 L 285 32 L 283 32 L 281 34 L 266 42 L 263 42 L 255 35 L 253 35 L 247 32 L 230 32 L 216 38 L 203 50 L 198 60 L 197 67 L 196 68 L 196 80 L 197 81 L 198 87 L 203 96 L 214 107 L 214 109 L 209 118 L 209 121 L 208 122 L 208 132 L 200 140 L 198 144 L 198 151 L 203 157 L 203 159 L 201 162 L 200 169 L 201 170 L 201 174 L 205 179 L 204 181 L 204 190 L 205 193 L 212 201 L 212 207 L 213 208 L 214 214 L 216 217 L 227 227 L 229 232 L 235 238 L 235 239 L 233 241 L 228 242 L 220 247 L 208 248 L 201 251 L 191 252 L 187 254 L 173 253 L 164 258 L 162 257 L 158 257 L 157 256 L 153 256 L 152 255 L 140 255 L 134 250 L 130 238 L 126 231 L 120 225 L 117 224 L 115 222 L 112 221 L 101 221 L 95 224 L 90 228 L 77 218 L 69 215 L 64 215 L 58 217 L 53 221 L 50 226 L 50 230 L 48 233 L 35 233 L 30 235 L 28 237 L 25 243 L 25 255 L 27 257 L 28 260 L 26 262 L 22 263 L 18 266 L 16 270 L 16 279 L 20 287 L 25 293 L 22 297 L 22 308 L 23 311 L 32 321 L 43 328 L 59 336 L 65 338 L 68 338 L 69 339 L 72 339 L 73 340 L 76 340 L 77 341 L 80 341 L 81 342 L 84 342 L 97 351 L 105 358 L 117 364 L 119 364 L 122 366 L 131 369 L 151 372 L 158 377 L 162 377 L 158 377 L 151 371 L 143 371 L 137 369 L 132 369 L 120 365 L 115 362 L 113 362 L 104 357 L 100 353 L 86 343 L 77 340 L 73 340 L 69 338 L 66 338 L 60 336 L 55 333 L 53 333 L 51 331 L 47 330 L 45 328 L 42 327 L 30 319 L 26 315 L 22 308 L 22 298 L 25 294 L 25 291 L 19 285 L 16 278 L 16 271 L 18 267 L 21 264 L 29 261 L 25 254 L 25 244 L 28 238 L 33 234 L 36 233 L 48 234 L 50 231 L 51 224 L 57 218 L 61 216 L 71 216 L 78 219 L 84 223 L 89 228 L 92 228 L 96 224 L 102 221 L 111 221 L 119 225 L 127 233 L 133 246 L 134 251 L 137 254 L 139 255 L 143 255 L 144 256 L 156 256 L 161 258 L 166 258 L 171 254 L 174 253 L 180 253 L 183 255 L 188 255 L 193 252 L 196 252 L 197 251 L 202 251 L 210 248 L 222 247 L 227 243 L 234 241 L 236 239 L 236 237 L 228 230 L 227 225 L 221 221 L 214 213 L 213 207 L 212 206 L 212 200 L 205 193 L 205 190 L 204 189 L 205 177 L 201 173 L 201 170 L 200 169 L 201 167 L 201 163 L 204 157 L 199 152 L 198 150 L 198 145 L 199 142 L 209 132 L 208 129 L 208 123 L 210 117 L 215 108 L 215 106 L 202 94 L 198 87 L 198 84 L 196 79 L 196 68 L 197 67 L 197 64 L 201 54 L 206 47 L 217 38 L 225 34 L 232 33 L 233 32 L 245 32 L 246 33 L 249 33 L 257 37 L 262 42 L 266 43 L 282 34 L 284 32 L 290 30 L 299 30 L 300 29 L 301 22 L 307 17 L 316 17 L 324 22 L 328 22 L 335 16 L 338 15 L 346 15 L 350 18 L 351 22 L 353 25 L 361 24 L 362 25 L 370 25 L 371 26 L 375 26 L 380 28 L 384 28 L 395 16 L 402 12 L 411 9 L 429 9 L 444 15 L 447 17 L 458 29 L 462 37 L 463 44 L 464 45 L 464 55 L 463 56 L 463 59 L 459 68 L 450 78 L 450 80 L 462 101 L 464 103 L 466 107 L 466 111 L 467 113 L 471 116 L 478 124 L 478 131 L 475 134 L 475 137 L 477 139 L 481 147 L 481 156 L 477 161 L 477 165 L 479 169 L 479 176 L 477 181 L 471 186 L 471 193 L 470 194 L 470 198 L 469 200 L 462 208 L 458 218 L 444 234 L 444 236 L 446 239 L 446 243 L 447 245 L 460 257 L 461 259 L 461 264 L 470 275 L 474 284 L 473 286 L 473 290 L 477 294 L 479 298 L 479 302 L 480 303 L 481 309 L 483 311 L 486 318 L 487 335 L 488 336 L 488 342 L 489 343 L 489 373 L 492 377 L 496 386 L 496 397 L 499 404 L 502 407 L 511 410 L 519 418 L 524 430 L 525 443 L 524 444 L 523 453 L 520 459 L 515 465 L 499 476 L 496 481 L 494 487 L 494 492 L 497 498 L 503 506 L 503 508 L 509 516 L 513 525 L 513 527 L 517 533 L 536 553 L 542 556 L 544 556 L 552 561 L 560 569 L 566 580 L 566 582 L 568 585 L 568 589 L 569 590 L 570 607 L 569 608 L 568 622 L 567 623 L 567 626 L 566 627 L 566 630 L 563 639 L 560 644 L 560 646 L 547 667 L 539 674 L 522 681 L 518 681 L 517 682 L 503 683 L 502 682 L 491 681 L 478 675 L 469 666 L 464 654 L 464 645 L 466 643 L 466 639 L 465 638 L 440 630 L 420 617 L 409 608 L 386 583 L 375 566 L 339 566 L 330 563 L 320 563 L 306 574 L 290 590 L 286 591 L 283 595 L 283 597 L 277 603 L 274 604 L 274 609 L 269 621 L 262 627 L 256 638 L 256 640 L 252 648 L 244 656 L 234 660 L 224 660 L 221 661 L 220 660 L 203 659 L 198 657 L 194 657 L 193 656 L 189 656 L 188 655 L 184 655 L 176 652 L 173 652 L 170 650 L 163 648 L 157 644 L 155 644 L 150 640 L 148 640 L 140 634 L 124 625 L 109 609 L 108 606 L 106 604 L 104 598 L 104 590 L 105 589 L 105 586 L 110 578 L 115 573 L 121 569 L 133 564 L 138 564 L 139 563 L 156 564 L 157 563 L 157 555 L 158 554 L 159 547 L 166 533 L 166 524 L 165 523 L 166 517 L 169 512 L 178 503 L 178 501 L 178 503 L 171 509 L 166 517 L 165 520 L 166 533 L 161 541 L 158 550 L 158 553 L 157 554 L 157 562 L 155 564 L 137 563 L 136 564 L 133 564 L 127 566 L 119 570 L 109 579 L 105 586 L 105 589 L 104 590 L 104 598 L 107 606 L 113 614 L 125 626 L 133 630 L 151 642 L 167 650 L 179 654 L 186 655 L 187 656 L 191 656 L 192 657 L 196 657 L 202 659 L 207 659 L 208 660 L 216 660 L 217 661 L 229 661 L 230 660 L 235 660 L 244 657 L 255 645 L 255 643 L 257 640 L 260 631 L 268 623 L 272 616 L 275 606 L 282 599 L 284 595 L 288 591 L 291 590 L 301 579 L 321 563 L 329 563 L 334 565 L 345 566 L 346 567 L 374 566 L 377 569 L 386 584 L 413 612 L 425 621 L 428 622 L 435 628 L 464 638 L 466 640 L 464 643 L 464 656 L 467 664 L 476 674 L 482 678 L 489 681 L 498 682 L 499 683 L 511 683 L 512 682 L 523 681 L 540 674 L 547 668 L 550 662 L 556 654 L 563 640 L 566 631 L 567 624 L 568 623 L 569 610 L 570 609 L 570 596 L 569 595 L 569 589 L 568 588 L 568 585 L 566 579 L 563 573 L 556 564 L 545 556 L 538 554 L 516 531 L 512 524 L 512 521 L 508 513 L 504 509 L 501 502 L 497 497 L 494 489 L 496 482 L 498 480 L 499 477 L 502 474 L 511 469 L 520 460 L 523 454 L 524 446 L 525 445 L 525 434 L 524 433 L 522 423 L 518 416 L 513 411 L 503 407 L 499 403 L 496 396 L 496 385 L 491 374 L 489 372 L 489 341 L 488 340 L 488 335 L 487 334 L 487 321 L 486 320 L 486 317 L 480 306 L 479 297 L 474 290 L 474 283 L 471 276 L 461 263 L 461 258 L 459 255 L 446 243 L 446 237 L 445 236 L 446 233 L 456 222 L 461 213 L 463 207 L 466 205 L 469 201 L 471 195 L 471 187 L 477 182 L 479 178 L 479 168 L 477 162 L 481 158 L 482 151 L 481 150 L 480 144 L 475 136 L 479 129 L 478 123 L 476 120 L 467 112 L 465 104 L 463 102 L 460 95 L 451 81 L 451 78 L 459 69 L 464 57 L 464 44 L 463 43 L 462 36 L 454 23 L 445 15 Z" fill="#B1B1B1" fill-rule="evenodd"/><path d="M 534 650 L 533 651 L 533 654 L 535 656 L 536 656 L 537 655 L 536 653 L 536 650 Z M 154 591 L 151 593 L 151 598 L 150 599 L 150 601 L 151 602 L 151 604 L 153 606 L 155 607 L 158 607 L 160 603 L 160 599 L 161 598 L 161 596 L 159 593 Z M 133 587 L 130 589 L 130 597 L 135 603 L 137 603 L 138 602 L 138 589 L 136 587 Z M 251 140 L 250 142 L 250 145 L 249 146 L 249 154 L 252 161 L 255 164 L 255 165 L 260 169 L 267 171 L 270 174 L 270 179 L 271 180 L 271 183 L 272 184 L 273 189 L 275 192 L 275 194 L 277 196 L 280 202 L 286 209 L 286 210 L 300 224 L 302 225 L 304 225 L 305 224 L 297 215 L 295 211 L 295 206 L 298 199 L 304 192 L 305 192 L 313 185 L 319 182 L 322 182 L 323 181 L 332 181 L 333 182 L 336 182 L 341 185 L 346 191 L 347 193 L 347 199 L 346 200 L 345 206 L 340 215 L 340 217 L 342 216 L 342 215 L 346 210 L 346 208 L 349 203 L 349 201 L 351 197 L 351 194 L 352 193 L 353 184 L 354 183 L 354 158 L 353 157 L 353 153 L 352 152 L 352 150 L 349 147 L 348 147 L 346 149 L 344 153 L 340 157 L 322 166 L 319 166 L 318 167 L 304 167 L 303 166 L 298 166 L 297 165 L 294 165 L 293 164 L 290 164 L 289 163 L 284 162 L 275 168 L 273 168 L 272 169 L 268 169 L 267 168 L 263 167 L 256 161 L 253 154 L 253 148 L 254 147 L 254 138 L 253 138 Z M 261 131 L 261 138 L 262 139 L 263 143 L 271 150 L 273 150 L 277 152 L 287 152 L 288 151 L 291 151 L 297 148 L 305 142 L 308 137 L 308 134 L 309 133 L 308 129 L 306 127 L 299 123 L 293 122 L 292 121 L 278 121 L 277 122 L 274 122 L 264 127 Z M 269 101 L 265 101 L 262 104 L 259 110 L 259 121 L 261 123 L 266 121 L 269 118 L 271 114 L 271 112 L 272 111 L 272 107 Z M 348 96 L 345 99 L 344 103 L 343 104 L 343 116 L 347 121 L 353 121 L 357 117 L 357 115 L 358 114 L 358 104 L 357 103 L 356 99 L 353 96 Z M 277 64 L 276 63 L 271 63 L 269 64 L 263 69 L 261 74 L 264 74 L 270 69 L 275 67 L 277 65 Z M 348 55 L 348 57 L 349 58 L 353 58 L 354 59 L 356 59 L 362 63 L 365 63 L 366 62 L 366 59 L 363 56 L 359 54 L 357 54 L 356 53 L 350 53 Z M 438 13 L 436 13 L 429 10 L 411 10 L 410 11 L 407 11 L 395 17 L 384 29 L 380 29 L 379 28 L 371 27 L 370 26 L 362 26 L 361 25 L 353 26 L 351 24 L 349 18 L 346 16 L 338 16 L 337 17 L 335 17 L 328 23 L 324 23 L 322 21 L 316 18 L 307 18 L 302 22 L 302 24 L 301 25 L 301 29 L 299 31 L 290 31 L 289 32 L 284 33 L 282 35 L 279 36 L 277 38 L 272 40 L 270 42 L 266 44 L 262 43 L 257 38 L 249 34 L 246 34 L 245 33 L 233 33 L 232 34 L 228 34 L 227 35 L 225 35 L 217 39 L 207 47 L 207 48 L 202 54 L 200 58 L 199 63 L 198 64 L 198 67 L 197 68 L 197 79 L 198 80 L 199 87 L 202 91 L 203 94 L 216 106 L 216 108 L 211 117 L 211 119 L 209 123 L 209 129 L 210 130 L 210 132 L 200 142 L 200 144 L 199 145 L 199 150 L 205 157 L 202 163 L 202 167 L 201 169 L 202 170 L 202 173 L 206 177 L 206 181 L 205 182 L 205 189 L 206 190 L 206 193 L 213 200 L 213 206 L 214 207 L 215 213 L 221 220 L 225 222 L 228 225 L 229 230 L 237 237 L 237 239 L 234 242 L 229 243 L 222 248 L 218 248 L 217 249 L 210 249 L 209 250 L 206 250 L 202 252 L 197 252 L 196 253 L 193 253 L 188 256 L 183 256 L 180 254 L 174 254 L 173 255 L 171 255 L 166 259 L 161 259 L 160 258 L 157 258 L 156 257 L 144 257 L 143 256 L 139 256 L 137 255 L 133 251 L 132 249 L 132 246 L 129 241 L 129 239 L 126 233 L 119 226 L 111 222 L 102 222 L 96 225 L 92 229 L 89 229 L 84 224 L 83 224 L 78 220 L 71 217 L 61 217 L 57 219 L 52 224 L 52 226 L 51 227 L 51 231 L 48 235 L 44 235 L 43 234 L 36 234 L 30 237 L 27 241 L 27 243 L 26 244 L 26 254 L 29 258 L 30 261 L 28 263 L 23 264 L 19 267 L 17 271 L 17 278 L 20 285 L 26 291 L 26 294 L 23 298 L 23 308 L 27 315 L 30 318 L 31 318 L 42 326 L 45 327 L 47 329 L 51 330 L 53 332 L 55 332 L 60 335 L 62 335 L 66 337 L 69 337 L 73 339 L 77 339 L 78 340 L 86 342 L 107 358 L 113 361 L 115 361 L 120 364 L 122 364 L 123 365 L 125 365 L 132 368 L 137 368 L 138 369 L 142 369 L 143 370 L 151 370 L 158 376 L 162 376 L 163 377 L 187 377 L 193 380 L 196 384 L 197 396 L 199 399 L 199 401 L 198 402 L 198 404 L 197 405 L 197 407 L 195 410 L 195 413 L 194 414 L 194 425 L 196 429 L 198 431 L 198 439 L 197 440 L 197 453 L 198 454 L 198 458 L 202 464 L 203 479 L 200 482 L 191 486 L 183 492 L 180 497 L 179 503 L 170 512 L 170 513 L 168 515 L 167 517 L 167 520 L 166 521 L 166 523 L 167 524 L 167 533 L 160 547 L 160 550 L 159 551 L 159 554 L 158 555 L 158 563 L 156 565 L 149 565 L 148 564 L 139 564 L 138 565 L 133 565 L 121 570 L 119 572 L 115 574 L 111 578 L 111 579 L 108 582 L 106 586 L 106 589 L 105 590 L 105 598 L 106 599 L 107 604 L 109 606 L 110 609 L 124 624 L 132 628 L 148 639 L 150 639 L 155 643 L 157 643 L 159 645 L 163 647 L 165 647 L 168 649 L 170 649 L 173 651 L 176 651 L 180 653 L 188 654 L 189 655 L 193 655 L 194 656 L 198 656 L 199 657 L 202 657 L 203 658 L 208 658 L 209 659 L 220 659 L 221 660 L 223 660 L 224 659 L 234 659 L 235 658 L 238 658 L 244 655 L 251 648 L 255 640 L 255 638 L 261 627 L 268 621 L 273 609 L 273 604 L 275 602 L 277 602 L 282 597 L 282 595 L 286 590 L 290 589 L 306 573 L 307 573 L 320 562 L 330 562 L 331 563 L 334 563 L 335 564 L 338 564 L 339 565 L 375 565 L 377 567 L 377 568 L 381 573 L 383 578 L 387 582 L 387 583 L 407 604 L 407 605 L 415 612 L 416 612 L 420 616 L 424 618 L 427 621 L 430 622 L 436 627 L 440 629 L 448 631 L 451 633 L 463 636 L 467 639 L 467 643 L 465 645 L 465 654 L 466 655 L 466 658 L 470 666 L 478 674 L 488 679 L 494 680 L 495 681 L 509 682 L 510 681 L 517 681 L 518 680 L 522 680 L 523 679 L 528 678 L 531 676 L 533 676 L 539 673 L 546 667 L 549 661 L 555 653 L 557 648 L 559 646 L 559 644 L 562 639 L 562 637 L 565 630 L 565 627 L 566 626 L 566 623 L 567 622 L 567 617 L 568 616 L 569 600 L 568 599 L 568 590 L 567 589 L 567 585 L 559 569 L 549 560 L 546 559 L 544 557 L 542 557 L 536 554 L 516 533 L 516 532 L 512 527 L 512 525 L 510 522 L 510 520 L 508 516 L 502 508 L 502 506 L 500 504 L 499 501 L 496 498 L 493 492 L 493 487 L 494 486 L 495 481 L 498 476 L 501 473 L 507 470 L 514 464 L 515 464 L 519 459 L 522 453 L 522 450 L 523 449 L 523 444 L 524 443 L 523 430 L 518 418 L 511 411 L 509 411 L 506 409 L 502 408 L 498 404 L 496 400 L 496 398 L 495 397 L 495 386 L 491 377 L 488 373 L 488 343 L 487 342 L 487 336 L 486 335 L 486 325 L 485 324 L 485 318 L 482 311 L 480 309 L 479 303 L 478 302 L 478 298 L 476 294 L 472 290 L 472 286 L 473 284 L 469 275 L 460 264 L 460 259 L 459 257 L 446 245 L 445 243 L 445 239 L 443 236 L 443 234 L 449 228 L 449 227 L 457 218 L 460 212 L 461 208 L 468 200 L 469 198 L 469 194 L 470 193 L 470 186 L 473 183 L 474 183 L 477 179 L 477 177 L 478 176 L 478 169 L 476 165 L 476 161 L 480 156 L 480 147 L 476 139 L 474 137 L 474 134 L 477 131 L 477 124 L 476 122 L 466 113 L 465 111 L 465 107 L 463 103 L 461 101 L 460 98 L 458 96 L 456 91 L 454 89 L 452 84 L 449 80 L 449 78 L 458 68 L 460 64 L 460 62 L 462 59 L 462 56 L 463 55 L 463 45 L 462 44 L 462 40 L 457 29 L 454 26 L 454 25 L 447 18 Z M 508 417 L 510 419 L 511 424 L 515 432 L 515 445 L 514 446 L 514 448 L 511 455 L 509 457 L 509 458 L 506 461 L 505 461 L 503 459 L 503 457 L 504 456 L 504 448 L 505 447 L 505 443 L 504 442 L 504 432 L 503 431 L 503 423 L 502 422 L 502 420 L 505 417 Z M 479 382 L 481 380 L 484 380 L 486 382 L 487 385 L 485 387 L 482 387 L 479 384 Z M 435 19 L 437 21 L 441 23 L 450 32 L 453 37 L 454 43 L 455 44 L 455 55 L 454 56 L 453 61 L 451 65 L 447 69 L 447 70 L 439 76 L 439 78 L 445 86 L 451 98 L 459 108 L 459 110 L 457 112 L 456 112 L 456 114 L 465 119 L 470 125 L 470 127 L 468 129 L 466 130 L 464 129 L 460 129 L 460 131 L 471 143 L 473 147 L 474 152 L 472 154 L 469 154 L 465 152 L 464 153 L 464 155 L 470 167 L 471 175 L 469 177 L 466 177 L 463 174 L 462 175 L 462 177 L 463 178 L 463 193 L 462 195 L 460 197 L 458 197 L 456 195 L 454 197 L 454 203 L 453 204 L 453 207 L 448 217 L 436 229 L 430 232 L 425 236 L 427 238 L 430 238 L 433 240 L 433 241 L 431 243 L 431 244 L 433 246 L 438 248 L 447 255 L 447 256 L 445 258 L 443 258 L 443 259 L 458 273 L 458 274 L 462 279 L 460 281 L 456 280 L 453 278 L 452 279 L 460 288 L 461 292 L 465 297 L 468 303 L 471 306 L 471 308 L 476 315 L 476 320 L 474 321 L 470 319 L 470 321 L 478 335 L 479 341 L 480 342 L 480 356 L 479 357 L 479 363 L 478 364 L 478 366 L 474 370 L 471 367 L 469 361 L 468 361 L 466 378 L 461 388 L 455 394 L 451 395 L 450 394 L 450 391 L 453 386 L 453 383 L 452 383 L 452 384 L 447 389 L 445 389 L 443 391 L 442 394 L 440 396 L 440 398 L 437 404 L 435 406 L 433 404 L 433 401 L 434 400 L 434 397 L 435 395 L 433 395 L 418 409 L 412 412 L 410 414 L 404 415 L 401 418 L 396 421 L 394 419 L 394 414 L 395 413 L 395 410 L 394 409 L 382 421 L 373 426 L 366 428 L 364 430 L 357 432 L 355 434 L 353 434 L 350 436 L 347 436 L 346 437 L 343 437 L 342 438 L 334 438 L 332 437 L 330 435 L 330 430 L 331 429 L 331 426 L 334 423 L 335 418 L 334 417 L 332 418 L 323 426 L 317 426 L 313 423 L 311 419 L 311 414 L 314 407 L 316 405 L 316 403 L 314 403 L 308 408 L 304 409 L 298 402 L 298 397 L 300 393 L 305 388 L 305 387 L 309 382 L 310 379 L 313 376 L 313 375 L 311 374 L 303 378 L 301 376 L 301 371 L 304 365 L 309 360 L 312 359 L 314 357 L 316 357 L 323 354 L 330 353 L 338 349 L 340 347 L 343 346 L 351 340 L 354 339 L 365 331 L 374 327 L 377 324 L 383 321 L 387 317 L 387 315 L 386 314 L 382 314 L 381 313 L 379 313 L 375 316 L 372 316 L 369 313 L 368 309 L 365 306 L 364 306 L 363 307 L 363 311 L 364 312 L 365 318 L 359 324 L 355 326 L 351 330 L 345 333 L 336 340 L 328 344 L 326 344 L 321 347 L 319 347 L 314 350 L 310 351 L 308 353 L 307 353 L 297 363 L 293 371 L 293 377 L 294 378 L 294 381 L 292 384 L 292 386 L 288 394 L 288 403 L 291 410 L 299 418 L 304 429 L 308 433 L 314 436 L 322 442 L 326 443 L 329 445 L 332 445 L 333 446 L 336 446 L 337 447 L 348 447 L 349 446 L 352 446 L 353 445 L 358 444 L 360 442 L 364 441 L 371 436 L 373 436 L 376 434 L 384 434 L 390 431 L 398 430 L 411 422 L 417 421 L 418 420 L 432 416 L 438 413 L 447 406 L 458 402 L 460 400 L 461 400 L 471 390 L 474 390 L 476 388 L 478 388 L 486 396 L 486 397 L 493 406 L 493 410 L 491 412 L 491 417 L 494 422 L 494 425 L 495 426 L 495 429 L 496 430 L 496 435 L 497 436 L 497 448 L 496 449 L 494 449 L 493 448 L 492 449 L 492 457 L 491 458 L 491 464 L 490 465 L 489 472 L 487 475 L 486 480 L 481 490 L 478 494 L 478 496 L 477 497 L 477 501 L 479 503 L 482 503 L 486 498 L 489 501 L 492 507 L 498 513 L 500 517 L 500 521 L 504 529 L 510 536 L 510 539 L 512 541 L 519 544 L 521 546 L 521 549 L 523 551 L 527 558 L 530 561 L 537 564 L 540 564 L 546 567 L 554 575 L 557 581 L 558 587 L 559 588 L 559 591 L 560 592 L 561 611 L 560 612 L 560 618 L 559 619 L 558 627 L 556 630 L 555 635 L 552 640 L 552 642 L 550 646 L 545 652 L 543 656 L 539 660 L 538 660 L 532 667 L 528 668 L 527 669 L 523 669 L 522 670 L 515 670 L 511 666 L 508 659 L 506 658 L 504 660 L 504 665 L 508 673 L 504 676 L 496 675 L 492 673 L 490 671 L 487 670 L 480 663 L 480 662 L 477 659 L 473 650 L 473 645 L 477 640 L 484 638 L 485 637 L 489 637 L 490 636 L 492 636 L 493 635 L 493 633 L 478 633 L 477 632 L 470 632 L 469 631 L 466 631 L 460 628 L 458 628 L 449 623 L 447 623 L 445 621 L 438 617 L 433 617 L 426 610 L 424 606 L 421 603 L 419 604 L 416 604 L 387 571 L 384 565 L 390 560 L 390 557 L 389 556 L 381 556 L 380 557 L 374 557 L 373 558 L 341 558 L 340 557 L 335 557 L 334 556 L 329 556 L 328 555 L 324 555 L 323 554 L 316 553 L 315 552 L 313 552 L 306 549 L 301 549 L 301 552 L 310 557 L 310 560 L 306 564 L 298 568 L 294 568 L 291 571 L 290 574 L 286 579 L 284 579 L 281 577 L 279 579 L 279 583 L 278 584 L 278 588 L 277 589 L 275 588 L 275 585 L 274 585 L 269 590 L 269 591 L 267 593 L 267 595 L 265 598 L 265 600 L 263 604 L 263 607 L 262 608 L 262 615 L 261 616 L 259 616 L 256 613 L 254 613 L 253 615 L 253 618 L 251 621 L 251 625 L 249 628 L 248 633 L 244 641 L 237 648 L 228 648 L 227 647 L 224 647 L 218 644 L 212 639 L 194 630 L 187 628 L 161 615 L 159 615 L 158 614 L 156 614 L 155 613 L 153 613 L 146 610 L 139 610 L 137 611 L 130 618 L 128 618 L 124 614 L 123 611 L 121 609 L 121 608 L 123 606 L 127 609 L 128 608 L 128 605 L 125 599 L 123 597 L 122 594 L 120 592 L 119 592 L 116 595 L 116 598 L 115 599 L 113 598 L 113 592 L 118 582 L 124 577 L 138 571 L 152 571 L 153 572 L 163 573 L 164 574 L 166 574 L 169 576 L 171 576 L 174 578 L 176 578 L 183 581 L 184 580 L 178 574 L 169 570 L 167 568 L 167 566 L 168 565 L 168 561 L 169 560 L 169 554 L 170 553 L 170 550 L 171 549 L 172 543 L 176 535 L 180 530 L 180 528 L 178 529 L 174 529 L 172 527 L 172 526 L 178 516 L 184 510 L 185 510 L 190 506 L 190 503 L 189 503 L 187 501 L 187 500 L 192 495 L 196 493 L 198 493 L 200 491 L 204 489 L 208 485 L 211 485 L 217 488 L 219 490 L 221 490 L 223 492 L 227 493 L 227 492 L 220 484 L 217 478 L 216 472 L 215 472 L 213 474 L 212 474 L 210 472 L 210 469 L 209 468 L 210 451 L 208 450 L 206 452 L 203 449 L 203 443 L 204 442 L 204 437 L 205 436 L 206 428 L 207 427 L 207 424 L 208 423 L 208 419 L 203 422 L 202 422 L 200 420 L 200 415 L 201 414 L 203 406 L 211 391 L 209 390 L 206 392 L 204 392 L 202 390 L 202 387 L 206 380 L 213 372 L 213 370 L 212 369 L 210 369 L 208 367 L 208 365 L 211 359 L 213 357 L 216 350 L 216 346 L 217 345 L 218 339 L 219 338 L 219 335 L 216 332 L 216 330 L 222 318 L 220 314 L 220 312 L 222 310 L 222 308 L 224 306 L 226 302 L 226 300 L 225 299 L 221 300 L 214 307 L 214 309 L 213 310 L 214 319 L 209 327 L 209 329 L 207 332 L 207 336 L 206 337 L 206 339 L 207 340 L 209 347 L 203 359 L 203 361 L 202 362 L 202 366 L 201 367 L 201 373 L 200 374 L 197 374 L 195 372 L 195 366 L 194 365 L 191 365 L 188 367 L 186 367 L 180 370 L 174 370 L 173 369 L 174 365 L 172 363 L 148 363 L 147 362 L 143 362 L 142 361 L 136 360 L 135 359 L 131 359 L 130 358 L 122 356 L 107 348 L 92 335 L 90 335 L 86 333 L 82 333 L 81 332 L 74 331 L 73 330 L 65 328 L 62 326 L 57 325 L 54 323 L 52 323 L 48 321 L 46 319 L 43 318 L 41 316 L 38 315 L 33 311 L 31 307 L 31 303 L 35 298 L 37 298 L 41 296 L 41 294 L 28 282 L 26 278 L 26 274 L 27 272 L 32 268 L 39 269 L 40 270 L 48 272 L 51 274 L 51 273 L 38 261 L 34 253 L 34 247 L 35 246 L 35 244 L 38 241 L 46 241 L 57 246 L 64 252 L 66 252 L 66 250 L 63 247 L 60 241 L 60 238 L 59 237 L 59 231 L 61 227 L 63 225 L 70 225 L 71 226 L 75 227 L 77 229 L 78 229 L 90 241 L 92 242 L 94 242 L 97 237 L 97 235 L 101 231 L 103 230 L 111 230 L 120 238 L 123 244 L 124 250 L 125 251 L 125 260 L 127 263 L 129 264 L 134 264 L 135 265 L 138 265 L 139 266 L 144 267 L 149 270 L 151 269 L 151 267 L 153 265 L 158 265 L 159 266 L 161 266 L 162 267 L 164 267 L 170 270 L 176 271 L 177 272 L 179 272 L 180 271 L 175 266 L 175 264 L 176 263 L 183 263 L 184 264 L 188 264 L 189 265 L 192 265 L 196 267 L 203 268 L 204 266 L 202 262 L 205 259 L 207 259 L 208 260 L 219 260 L 223 255 L 231 254 L 232 253 L 235 253 L 236 252 L 242 252 L 243 251 L 243 248 L 245 246 L 248 246 L 252 248 L 255 247 L 256 246 L 255 243 L 248 235 L 245 229 L 243 227 L 239 231 L 237 229 L 233 222 L 231 212 L 230 212 L 227 216 L 225 216 L 223 214 L 220 207 L 220 193 L 219 192 L 217 193 L 214 193 L 211 189 L 211 183 L 212 182 L 212 178 L 214 174 L 214 171 L 210 172 L 207 169 L 207 166 L 214 151 L 213 150 L 207 151 L 205 149 L 205 147 L 210 139 L 212 137 L 213 137 L 217 132 L 216 124 L 225 103 L 225 101 L 224 100 L 221 100 L 217 98 L 210 91 L 209 88 L 207 86 L 207 84 L 205 80 L 205 68 L 206 67 L 206 64 L 211 54 L 222 44 L 228 41 L 230 41 L 231 40 L 235 40 L 236 39 L 244 40 L 253 44 L 260 51 L 260 52 L 262 54 L 263 54 L 272 47 L 278 44 L 286 42 L 287 41 L 287 39 L 290 36 L 308 36 L 309 35 L 309 32 L 307 29 L 307 25 L 309 23 L 313 23 L 316 25 L 318 25 L 325 30 L 328 31 L 334 24 L 340 21 L 343 21 L 345 23 L 345 27 L 343 31 L 344 32 L 350 32 L 351 31 L 368 32 L 369 33 L 373 33 L 374 34 L 381 35 L 384 37 L 389 38 L 390 37 L 391 32 L 393 30 L 393 29 L 400 22 L 407 18 L 409 18 L 413 16 L 416 16 L 417 15 L 420 15 L 421 16 L 427 16 L 428 17 Z" fill="#010101" fill-rule="evenodd"/></svg>