<svg xmlns="http://www.w3.org/2000/svg" viewBox="0 0 653 704" shape-rendering="geometricPrecision"><title>intro frame 088</title><path d="M 489 616 L 490 618 L 490 623 L 491 623 L 492 620 L 491 617 Z M 469 512 L 458 521 L 452 523 L 445 530 L 441 528 L 433 538 L 429 536 L 421 545 L 418 544 L 415 545 L 412 548 L 411 551 L 404 556 L 399 566 L 394 571 L 390 579 L 388 590 L 389 590 L 392 594 L 392 597 L 391 598 L 391 608 L 394 608 L 396 611 L 395 628 L 399 627 L 402 630 L 402 636 L 403 637 L 403 646 L 400 655 L 400 666 L 403 672 L 408 676 L 417 679 L 420 679 L 421 680 L 435 681 L 436 680 L 436 665 L 440 659 L 445 659 L 447 661 L 449 666 L 449 681 L 450 682 L 468 682 L 469 681 L 469 675 L 468 674 L 468 660 L 470 658 L 475 658 L 479 662 L 481 666 L 481 669 L 482 670 L 482 680 L 483 681 L 484 680 L 491 680 L 495 678 L 494 658 L 497 655 L 501 656 L 505 660 L 507 664 L 508 675 L 510 676 L 515 670 L 516 662 L 515 661 L 515 655 L 510 647 L 506 644 L 499 641 L 497 639 L 493 639 L 492 638 L 489 638 L 486 640 L 459 639 L 458 640 L 451 640 L 450 641 L 446 641 L 445 640 L 436 640 L 434 641 L 433 640 L 435 637 L 437 637 L 439 635 L 445 635 L 446 634 L 458 633 L 459 632 L 480 632 L 483 633 L 481 627 L 481 622 L 483 618 L 483 615 L 485 613 L 487 614 L 487 610 L 483 602 L 485 601 L 489 605 L 492 604 L 492 601 L 490 598 L 487 597 L 485 595 L 481 594 L 475 590 L 465 580 L 465 578 L 468 577 L 484 584 L 487 584 L 488 583 L 486 579 L 474 565 L 474 563 L 477 562 L 484 566 L 487 569 L 488 566 L 486 560 L 481 554 L 474 551 L 471 548 L 473 546 L 476 547 L 484 547 L 483 544 L 481 543 L 476 537 L 479 535 L 485 538 L 486 536 L 478 528 L 473 516 Z M 444 583 L 445 583 L 452 591 L 456 599 L 454 602 L 453 602 L 444 592 L 442 587 L 442 585 Z M 435 581 L 436 582 L 436 589 L 433 593 L 431 593 L 430 592 L 430 589 L 432 583 Z M 409 562 L 410 563 L 409 570 L 408 572 L 404 575 L 401 572 L 403 570 L 404 566 Z M 229 508 L 225 516 L 223 518 L 223 520 L 226 519 L 228 521 L 228 525 L 222 538 L 223 539 L 224 538 L 227 538 L 229 541 L 224 554 L 224 557 L 222 561 L 222 565 L 221 567 L 227 566 L 229 568 L 227 574 L 227 580 L 229 583 L 229 594 L 231 597 L 232 609 L 236 621 L 239 624 L 243 624 L 244 625 L 248 625 L 256 628 L 259 632 L 257 634 L 252 634 L 243 631 L 226 631 L 225 632 L 220 632 L 210 636 L 205 640 L 202 646 L 201 656 L 200 657 L 201 662 L 205 665 L 205 660 L 206 659 L 207 652 L 213 646 L 217 645 L 221 649 L 220 654 L 218 657 L 218 668 L 219 669 L 228 671 L 229 670 L 229 665 L 230 664 L 230 660 L 232 655 L 237 650 L 241 650 L 244 653 L 244 657 L 242 661 L 242 667 L 241 668 L 241 671 L 244 673 L 266 673 L 267 672 L 273 672 L 280 666 L 282 666 L 286 662 L 290 661 L 294 656 L 294 648 L 293 646 L 288 642 L 287 638 L 289 634 L 292 635 L 293 631 L 296 629 L 293 619 L 297 613 L 294 604 L 285 594 L 285 588 L 286 587 L 288 587 L 291 592 L 294 594 L 294 591 L 291 587 L 294 584 L 294 581 L 277 563 L 263 541 L 261 539 L 258 538 L 252 532 L 250 527 L 245 522 L 238 518 Z M 257 582 L 260 584 L 258 587 L 255 586 L 255 584 Z M 267 575 L 270 578 L 270 580 L 274 586 L 274 589 L 273 590 L 271 590 L 266 584 L 265 577 Z M 281 572 L 282 573 L 282 581 L 281 583 L 279 584 L 277 578 L 279 573 Z M 248 567 L 250 569 L 249 571 L 243 577 L 242 577 L 240 574 L 247 567 Z M 465 424 L 464 425 L 465 427 L 469 430 L 470 429 Z M 59 149 L 59 152 L 60 153 L 62 150 L 62 148 L 65 145 L 67 145 L 75 151 L 77 151 L 76 149 L 68 144 L 63 144 Z M 78 122 L 79 124 L 83 122 L 87 122 L 89 123 L 101 136 L 100 131 L 98 128 L 88 119 L 86 118 L 82 118 Z M 448 16 L 435 15 L 434 16 L 430 16 L 424 19 L 414 28 L 411 35 L 411 38 L 409 40 L 406 40 L 396 36 L 391 36 L 390 35 L 386 35 L 380 33 L 367 33 L 366 34 L 359 35 L 357 33 L 358 25 L 354 26 L 347 34 L 344 34 L 333 28 L 329 27 L 328 29 L 331 33 L 331 37 L 329 39 L 310 40 L 306 45 L 301 46 L 293 50 L 282 58 L 280 58 L 278 56 L 277 53 L 272 48 L 262 43 L 253 43 L 252 44 L 246 45 L 238 50 L 231 58 L 227 69 L 227 79 L 228 80 L 228 83 L 231 89 L 236 94 L 242 98 L 247 99 L 249 101 L 247 108 L 244 113 L 244 115 L 241 120 L 239 126 L 241 131 L 241 134 L 230 146 L 230 148 L 236 147 L 239 150 L 239 152 L 232 165 L 232 168 L 237 167 L 239 169 L 239 173 L 237 178 L 236 190 L 238 191 L 241 188 L 243 188 L 245 190 L 245 194 L 244 195 L 244 205 L 246 211 L 248 213 L 250 209 L 253 208 L 256 212 L 256 216 L 258 221 L 262 220 L 270 229 L 287 237 L 294 244 L 295 249 L 293 251 L 291 251 L 285 246 L 283 246 L 281 244 L 278 244 L 277 248 L 275 250 L 272 250 L 267 245 L 263 245 L 255 238 L 253 238 L 253 241 L 251 243 L 249 243 L 245 239 L 243 235 L 238 229 L 236 232 L 236 234 L 234 236 L 232 236 L 227 231 L 222 221 L 219 218 L 218 219 L 218 225 L 216 227 L 212 226 L 198 205 L 195 203 L 193 206 L 190 206 L 157 170 L 156 166 L 158 163 L 158 159 L 160 153 L 160 141 L 159 140 L 159 137 L 157 135 L 157 133 L 150 127 L 147 127 L 144 129 L 145 130 L 146 129 L 150 129 L 155 134 L 156 136 L 156 151 L 155 152 L 155 155 L 151 159 L 145 160 L 141 158 L 137 154 L 135 148 L 136 141 L 132 137 L 130 131 L 130 128 L 126 120 L 119 112 L 113 112 L 111 114 L 112 115 L 117 114 L 124 121 L 125 126 L 129 135 L 129 141 L 127 145 L 124 147 L 123 146 L 120 146 L 116 143 L 108 144 L 104 139 L 103 140 L 104 142 L 104 146 L 98 153 L 93 154 L 87 158 L 84 157 L 85 159 L 85 168 L 81 172 L 73 172 L 72 173 L 79 180 L 79 184 L 80 184 L 84 179 L 86 174 L 91 168 L 92 165 L 103 154 L 112 150 L 122 150 L 130 154 L 138 162 L 142 169 L 142 173 L 143 174 L 142 183 L 137 190 L 116 206 L 110 208 L 108 210 L 96 210 L 89 207 L 83 202 L 81 199 L 80 192 L 79 191 L 77 192 L 75 196 L 71 197 L 60 187 L 59 184 L 59 179 L 60 177 L 58 176 L 56 178 L 56 183 L 58 189 L 83 214 L 90 218 L 97 225 L 104 238 L 105 242 L 111 249 L 112 249 L 114 246 L 136 267 L 143 271 L 153 279 L 165 285 L 168 285 L 176 288 L 182 288 L 183 289 L 191 290 L 194 293 L 194 295 L 189 300 L 190 301 L 201 301 L 204 300 L 211 304 L 217 304 L 218 305 L 224 304 L 226 305 L 228 308 L 221 314 L 221 315 L 223 316 L 230 316 L 236 313 L 239 309 L 239 307 L 241 305 L 242 302 L 250 295 L 253 294 L 256 297 L 254 305 L 246 321 L 246 327 L 243 335 L 244 336 L 250 330 L 260 323 L 263 323 L 265 325 L 265 327 L 255 341 L 247 349 L 239 354 L 230 365 L 231 367 L 234 367 L 237 371 L 222 390 L 222 391 L 228 391 L 230 393 L 230 396 L 225 403 L 216 420 L 217 422 L 220 420 L 222 420 L 224 422 L 224 426 L 219 439 L 217 451 L 218 451 L 221 447 L 223 448 L 222 472 L 223 473 L 223 472 L 226 470 L 228 472 L 229 483 L 231 489 L 233 490 L 233 489 L 235 488 L 238 491 L 238 493 L 240 496 L 243 495 L 246 498 L 246 500 L 249 505 L 250 509 L 252 510 L 255 507 L 259 511 L 265 521 L 266 521 L 267 519 L 269 519 L 278 529 L 279 527 L 282 525 L 292 536 L 295 533 L 302 540 L 301 536 L 297 531 L 290 518 L 289 512 L 288 511 L 288 506 L 290 504 L 292 506 L 294 512 L 301 523 L 314 537 L 319 538 L 323 533 L 325 533 L 328 537 L 330 538 L 345 524 L 347 524 L 348 525 L 348 528 L 343 538 L 343 541 L 345 543 L 363 529 L 365 529 L 367 531 L 367 533 L 362 543 L 365 543 L 373 538 L 378 532 L 381 526 L 387 519 L 390 521 L 389 523 L 389 527 L 387 532 L 388 532 L 394 514 L 396 512 L 399 514 L 400 517 L 400 525 L 397 533 L 398 535 L 409 523 L 411 518 L 414 514 L 414 512 L 417 508 L 417 506 L 419 504 L 423 507 L 423 513 L 422 514 L 422 517 L 418 524 L 419 525 L 432 511 L 436 499 L 439 494 L 442 495 L 442 502 L 441 503 L 441 508 L 442 509 L 446 505 L 448 500 L 450 498 L 451 492 L 454 486 L 457 484 L 459 486 L 459 489 L 460 489 L 460 484 L 461 483 L 460 480 L 464 477 L 464 468 L 463 466 L 467 456 L 466 451 L 464 449 L 464 444 L 465 443 L 468 443 L 469 444 L 470 443 L 469 442 L 469 438 L 462 429 L 460 423 L 455 417 L 455 415 L 458 414 L 462 418 L 466 420 L 468 417 L 468 414 L 462 407 L 456 404 L 449 404 L 445 401 L 445 398 L 446 397 L 455 397 L 463 401 L 465 401 L 462 395 L 462 393 L 460 391 L 458 385 L 455 381 L 456 378 L 460 380 L 461 379 L 452 371 L 444 361 L 446 359 L 452 363 L 456 363 L 455 358 L 453 355 L 448 351 L 442 351 L 441 350 L 434 349 L 430 345 L 432 343 L 438 343 L 439 344 L 442 344 L 449 348 L 451 348 L 448 340 L 444 335 L 444 333 L 446 331 L 449 333 L 450 332 L 447 325 L 449 322 L 458 333 L 462 340 L 463 344 L 469 352 L 472 358 L 472 360 L 475 364 L 476 368 L 480 375 L 487 396 L 487 399 L 488 400 L 488 403 L 489 404 L 489 407 L 492 416 L 495 435 L 496 436 L 496 444 L 491 457 L 491 472 L 493 475 L 493 477 L 497 481 L 499 482 L 503 482 L 506 479 L 510 469 L 512 467 L 515 466 L 519 471 L 519 477 L 518 478 L 517 485 L 512 493 L 513 497 L 516 500 L 519 501 L 526 501 L 528 500 L 533 493 L 536 487 L 536 485 L 541 481 L 545 485 L 545 493 L 541 502 L 542 503 L 545 503 L 546 502 L 549 502 L 550 500 L 552 500 L 555 497 L 558 488 L 561 482 L 564 479 L 566 479 L 569 483 L 569 491 L 568 492 L 569 493 L 576 484 L 576 482 L 580 473 L 580 467 L 582 462 L 582 446 L 581 445 L 581 441 L 579 436 L 579 432 L 580 431 L 583 431 L 583 429 L 579 418 L 578 411 L 571 399 L 573 397 L 576 397 L 578 398 L 578 397 L 571 388 L 566 379 L 563 376 L 563 374 L 565 372 L 567 372 L 571 374 L 571 373 L 551 348 L 553 345 L 556 345 L 560 347 L 562 346 L 543 328 L 533 320 L 533 317 L 534 316 L 537 316 L 542 318 L 544 317 L 539 312 L 525 302 L 522 301 L 519 298 L 519 295 L 521 293 L 525 293 L 525 292 L 515 288 L 505 281 L 505 279 L 507 277 L 512 277 L 513 278 L 515 277 L 498 265 L 490 262 L 487 259 L 487 257 L 489 255 L 493 255 L 493 254 L 489 253 L 480 248 L 475 247 L 471 244 L 467 244 L 462 242 L 455 243 L 447 250 L 442 247 L 430 247 L 429 248 L 425 247 L 423 249 L 418 250 L 416 248 L 415 245 L 416 242 L 415 241 L 408 249 L 408 251 L 405 255 L 402 253 L 402 248 L 403 246 L 412 236 L 417 235 L 418 232 L 423 227 L 426 229 L 426 233 L 427 234 L 429 231 L 429 224 L 432 221 L 433 221 L 435 224 L 437 224 L 439 219 L 438 217 L 438 213 L 441 211 L 445 214 L 445 209 L 448 204 L 454 202 L 454 200 L 446 192 L 448 190 L 451 190 L 459 194 L 460 193 L 459 188 L 455 183 L 457 181 L 461 181 L 464 183 L 467 182 L 466 177 L 461 173 L 463 171 L 467 171 L 468 170 L 466 165 L 460 160 L 462 157 L 466 157 L 469 159 L 471 159 L 473 160 L 475 163 L 476 163 L 477 160 L 480 159 L 481 160 L 481 168 L 482 169 L 485 169 L 488 171 L 489 170 L 487 163 L 481 153 L 481 150 L 484 147 L 489 149 L 491 149 L 491 147 L 488 142 L 476 129 L 479 125 L 488 126 L 488 124 L 473 113 L 473 110 L 476 108 L 476 105 L 473 102 L 471 97 L 467 92 L 461 81 L 456 76 L 456 73 L 467 64 L 472 55 L 472 51 L 473 50 L 472 39 L 468 31 L 460 23 Z M 284 513 L 285 513 L 288 517 L 287 520 L 284 518 L 283 515 Z M 264 501 L 266 500 L 268 503 L 266 504 Z M 412 495 L 413 496 L 413 503 L 411 505 L 409 502 L 409 499 L 410 496 Z M 428 494 L 430 495 L 430 500 L 429 501 L 427 500 L 427 495 Z M 408 490 L 409 489 L 412 493 L 410 494 Z M 269 487 L 272 490 L 274 496 L 279 505 L 280 512 L 278 514 L 276 514 L 273 511 L 269 501 L 269 498 L 268 497 L 268 488 Z M 272 464 L 273 465 L 273 469 L 272 470 L 272 473 L 269 476 L 267 474 L 268 473 L 268 469 L 269 466 Z M 435 454 L 437 454 L 441 458 L 446 469 L 446 472 L 448 475 L 448 479 L 449 480 L 446 484 L 442 483 L 439 492 L 433 492 L 429 489 L 429 478 L 425 472 L 427 469 L 433 474 L 434 477 L 436 475 L 436 464 L 434 458 L 434 455 Z M 258 441 L 260 443 L 260 446 L 255 461 L 253 465 L 250 466 L 248 463 L 249 454 L 254 444 Z M 411 423 L 413 421 L 419 424 L 429 423 L 432 426 L 429 429 L 425 429 L 425 432 L 424 433 L 420 433 Z M 257 417 L 258 420 L 252 428 L 251 432 L 248 435 L 247 434 L 244 434 L 243 433 L 244 428 L 248 421 L 254 417 Z M 426 402 L 429 401 L 431 403 L 442 408 L 449 415 L 449 417 L 447 419 L 446 418 L 439 418 L 440 425 L 438 426 L 434 422 L 432 411 Z M 421 393 L 423 391 L 427 391 L 431 394 L 431 396 L 429 398 L 428 397 L 424 397 Z M 433 387 L 436 384 L 438 384 L 441 387 L 443 391 L 441 393 L 439 393 L 437 392 Z M 435 371 L 437 369 L 445 370 L 448 373 L 447 378 L 444 381 L 441 382 L 438 379 L 438 376 L 435 373 Z M 383 370 L 385 368 L 390 369 L 402 378 L 406 378 L 407 379 L 408 378 L 409 379 L 408 385 L 406 387 L 404 386 L 397 379 L 387 374 Z M 409 365 L 411 364 L 414 367 L 417 368 L 420 371 L 420 373 L 418 375 L 415 375 L 410 378 L 408 374 Z M 532 355 L 533 354 L 537 355 L 540 357 L 541 359 L 540 360 L 537 360 L 535 359 Z M 421 325 L 424 323 L 425 324 L 428 324 L 434 326 L 437 329 L 437 331 L 435 332 L 429 328 L 425 328 Z M 429 311 L 432 313 L 436 320 L 436 323 L 435 324 L 431 321 L 427 314 Z M 373 310 L 376 314 L 376 316 L 374 318 L 371 315 L 371 312 Z M 376 310 L 377 309 L 380 309 L 387 315 L 388 315 L 390 313 L 390 311 L 392 310 L 393 311 L 392 318 L 390 320 L 387 318 L 383 318 L 377 313 Z M 500 307 L 501 306 L 504 306 L 505 308 L 504 309 L 501 309 Z M 322 305 L 323 307 L 320 310 L 317 311 L 316 309 L 320 305 Z M 432 297 L 436 300 L 437 302 L 436 305 L 434 305 L 430 301 L 430 299 Z M 382 292 L 384 292 L 387 296 L 387 299 L 390 304 L 389 307 L 386 305 L 380 297 L 380 294 Z M 311 290 L 313 293 L 310 296 L 310 298 L 306 301 L 305 300 L 305 297 L 307 293 Z M 420 288 L 421 289 L 420 296 L 422 300 L 422 303 L 424 306 L 424 309 L 417 317 L 413 318 L 410 316 L 410 314 L 419 309 L 419 302 L 415 297 L 415 295 L 418 292 L 417 290 Z M 258 272 L 260 274 L 255 279 L 258 283 L 250 289 L 249 286 L 251 283 L 251 278 L 257 272 Z M 259 265 L 259 263 L 262 261 L 266 261 L 268 263 L 265 267 L 261 267 Z M 419 261 L 414 265 L 411 265 L 410 264 L 410 262 L 415 259 L 417 259 Z M 263 253 L 265 251 L 267 251 L 270 255 L 268 257 L 266 257 Z M 398 244 L 398 248 L 397 250 L 387 261 L 373 272 L 370 273 L 366 277 L 364 278 L 359 278 L 356 280 L 350 280 L 337 274 L 326 266 L 317 257 L 317 253 L 320 250 L 325 250 L 326 251 L 331 251 L 332 252 L 341 252 L 343 253 L 344 252 L 355 252 L 356 251 L 366 250 L 367 249 L 375 248 L 379 246 L 385 245 L 388 243 L 393 243 L 394 242 L 396 242 Z M 384 127 L 390 121 L 394 119 L 401 118 L 402 117 L 412 117 L 413 118 L 418 118 L 427 121 L 434 128 L 436 135 L 434 140 L 427 146 L 421 147 L 420 148 L 409 148 L 408 147 L 403 147 L 391 142 L 384 134 Z M 306 111 L 314 105 L 317 105 L 318 104 L 331 104 L 334 106 L 338 107 L 342 111 L 342 113 L 340 115 L 335 115 L 331 113 L 320 112 L 319 113 L 314 113 L 308 115 L 306 113 Z M 285 99 L 287 98 L 292 98 L 294 99 L 297 103 L 298 106 L 298 113 L 297 114 L 297 117 L 295 119 L 294 122 L 296 121 L 300 121 L 301 120 L 308 120 L 309 119 L 322 121 L 330 125 L 335 130 L 336 133 L 336 137 L 334 142 L 325 151 L 312 157 L 300 157 L 288 151 L 285 148 L 282 142 L 281 142 L 280 156 L 282 161 L 288 166 L 296 168 L 301 166 L 306 162 L 315 162 L 316 163 L 325 164 L 326 165 L 341 165 L 348 162 L 351 162 L 362 156 L 371 144 L 374 144 L 380 151 L 381 154 L 381 161 L 382 162 L 382 182 L 381 183 L 381 191 L 379 195 L 379 198 L 376 204 L 375 209 L 371 216 L 360 227 L 354 231 L 345 234 L 336 234 L 326 230 L 318 224 L 309 215 L 304 207 L 298 200 L 292 187 L 291 178 L 282 174 L 278 171 L 271 163 L 269 157 L 269 150 L 268 149 L 268 150 L 257 160 L 249 160 L 241 153 L 241 147 L 243 142 L 248 137 L 258 132 L 268 132 L 274 138 L 275 137 L 280 137 L 280 133 L 284 127 L 283 127 L 278 121 L 278 110 L 281 103 Z M 371 91 L 378 91 L 384 97 L 386 103 L 386 113 L 383 120 L 380 123 L 377 124 L 374 124 L 369 122 L 365 118 L 363 113 L 363 102 L 364 99 Z M 299 59 L 303 63 L 303 67 L 299 71 L 297 71 L 285 79 L 283 79 L 279 75 L 279 71 L 281 68 L 289 61 L 293 59 Z M 258 57 L 263 59 L 271 67 L 271 68 L 263 78 L 259 85 L 252 92 L 251 92 L 241 83 L 239 78 L 239 72 L 242 65 L 247 60 L 251 58 Z M 363 53 L 367 49 L 370 48 L 375 48 L 378 50 L 381 50 L 390 58 L 390 64 L 386 67 L 383 67 L 375 62 L 369 60 L 366 60 L 363 57 Z M 440 30 L 447 31 L 452 34 L 456 38 L 460 45 L 460 55 L 457 60 L 450 66 L 447 66 L 444 64 L 436 56 L 429 52 L 424 47 L 426 40 L 433 33 Z" fill="#FBFBFB" fill-rule="evenodd"/><path d="M 219 652 L 217 657 L 216 667 L 217 669 L 220 671 L 229 672 L 230 671 L 230 665 L 230 670 L 228 672 L 219 670 L 217 668 L 217 657 L 219 654 Z M 457 634 L 452 634 L 451 635 L 446 635 L 445 636 L 439 636 L 437 638 L 435 638 L 434 640 L 436 639 L 450 640 L 448 640 L 446 638 L 449 635 Z M 444 584 L 443 587 L 447 595 L 453 601 L 454 601 L 455 599 L 451 591 L 448 587 Z M 435 582 L 433 583 L 431 589 L 431 592 L 433 592 L 435 589 Z M 267 576 L 266 577 L 267 584 L 271 589 L 273 589 L 273 586 L 269 580 L 269 578 Z M 281 573 L 280 573 L 278 578 L 279 583 L 280 583 L 281 581 Z M 247 568 L 241 574 L 242 576 L 248 571 L 249 569 Z M 409 563 L 405 566 L 404 570 L 402 572 L 404 574 L 405 574 L 408 570 Z M 412 496 L 411 496 L 410 499 L 411 504 L 412 503 Z M 269 488 L 269 497 L 270 498 L 270 501 L 274 511 L 276 513 L 278 513 L 279 512 L 278 505 L 273 496 L 271 490 Z M 271 495 L 274 497 L 277 503 L 278 508 L 276 510 L 271 502 L 270 499 L 270 496 Z M 576 485 L 573 490 L 569 494 L 567 492 L 568 491 L 568 483 L 566 480 L 564 480 L 559 488 L 556 497 L 552 501 L 550 501 L 549 503 L 542 504 L 540 502 L 544 493 L 544 485 L 540 482 L 537 485 L 537 487 L 534 493 L 528 501 L 526 502 L 519 502 L 517 501 L 519 502 L 526 502 L 528 501 L 532 497 L 538 484 L 540 482 L 544 485 L 544 493 L 540 502 L 541 504 L 547 504 L 553 501 L 556 498 L 560 489 L 560 486 L 564 481 L 568 484 L 567 495 L 568 495 L 574 489 Z M 272 465 L 270 466 L 269 469 L 269 473 L 268 474 L 269 475 L 271 473 Z M 435 455 L 436 463 L 437 464 L 437 475 L 434 478 L 430 472 L 427 470 L 426 472 L 430 478 L 430 489 L 433 491 L 439 491 L 439 487 L 442 482 L 446 483 L 448 480 L 447 479 L 447 475 L 445 472 L 445 469 L 440 458 L 437 455 Z M 437 458 L 440 460 L 444 471 L 441 475 L 438 471 L 438 466 L 436 460 Z M 258 442 L 255 444 L 250 454 L 250 459 L 249 460 L 250 465 L 252 465 L 254 461 L 259 446 L 259 443 Z M 255 449 L 256 452 L 254 457 L 252 458 L 251 457 L 253 450 Z M 412 423 L 420 432 L 424 432 L 424 429 L 425 428 L 429 428 L 431 426 L 429 424 L 419 425 L 414 422 Z M 257 418 L 254 418 L 249 421 L 245 428 L 244 433 L 247 433 L 248 434 L 250 432 L 250 430 L 254 423 L 257 420 Z M 427 402 L 433 411 L 435 422 L 439 425 L 438 418 L 439 417 L 446 417 L 447 418 L 448 415 L 442 409 L 431 404 L 429 402 Z M 434 410 L 436 408 L 439 409 L 442 412 L 439 414 Z M 422 393 L 424 396 L 428 396 L 429 397 L 430 396 L 430 394 L 427 392 L 423 392 Z M 436 385 L 434 388 L 437 391 L 441 392 L 442 390 L 438 385 Z M 437 370 L 436 373 L 439 376 L 439 379 L 441 381 L 444 380 L 446 378 L 447 373 L 445 371 L 442 370 Z M 384 370 L 387 373 L 397 378 L 404 385 L 406 386 L 407 385 L 408 379 L 407 380 L 406 379 L 402 379 L 390 370 L 387 369 Z M 410 365 L 410 368 L 409 369 L 410 377 L 415 374 L 418 374 L 419 371 Z M 533 355 L 535 358 L 540 359 L 540 358 L 537 356 Z M 553 346 L 552 348 L 572 373 L 571 375 L 565 373 L 564 376 L 567 379 L 572 388 L 579 397 L 578 399 L 576 398 L 573 398 L 572 399 L 578 410 L 574 401 L 576 399 L 579 401 L 580 400 L 579 397 L 565 376 L 567 374 L 569 374 L 572 376 L 573 374 L 567 367 L 562 359 L 553 349 L 555 346 L 559 347 Z M 422 325 L 425 327 L 429 327 L 436 331 L 436 329 L 434 327 L 428 325 L 425 325 L 424 324 Z M 449 323 L 448 325 L 451 332 L 449 334 L 446 332 L 445 335 L 449 340 L 452 348 L 449 349 L 442 345 L 439 345 L 438 344 L 432 344 L 431 345 L 434 348 L 437 349 L 448 350 L 451 352 L 456 358 L 457 361 L 456 364 L 452 364 L 446 360 L 445 361 L 453 371 L 462 379 L 460 381 L 456 379 L 456 381 L 458 383 L 459 387 L 463 393 L 463 395 L 466 401 L 463 402 L 455 398 L 446 398 L 446 401 L 449 403 L 456 403 L 462 406 L 469 414 L 469 417 L 466 421 L 462 419 L 458 415 L 456 415 L 456 417 L 461 423 L 463 429 L 470 438 L 470 442 L 471 443 L 469 445 L 468 444 L 465 444 L 465 449 L 467 451 L 468 456 L 464 466 L 465 468 L 465 477 L 461 480 L 462 482 L 461 484 L 461 489 L 459 490 L 458 489 L 458 486 L 457 485 L 455 486 L 452 492 L 451 498 L 449 500 L 447 505 L 442 510 L 440 508 L 441 495 L 439 495 L 436 504 L 433 509 L 433 511 L 419 526 L 417 524 L 421 517 L 421 514 L 422 513 L 422 507 L 420 505 L 418 506 L 418 508 L 415 512 L 415 514 L 412 518 L 410 523 L 398 536 L 396 533 L 399 525 L 399 517 L 398 514 L 396 513 L 391 528 L 388 533 L 386 532 L 388 527 L 388 523 L 389 521 L 387 520 L 382 526 L 379 532 L 374 538 L 369 542 L 365 544 L 362 544 L 361 543 L 366 533 L 366 531 L 363 530 L 353 538 L 349 540 L 345 544 L 342 541 L 342 538 L 346 531 L 347 525 L 345 525 L 330 539 L 329 539 L 325 534 L 323 534 L 319 539 L 316 539 L 314 538 L 300 523 L 293 512 L 292 508 L 290 505 L 289 506 L 290 515 L 295 526 L 303 538 L 302 541 L 295 534 L 292 537 L 282 526 L 281 526 L 278 530 L 269 520 L 267 520 L 267 521 L 265 522 L 258 511 L 255 508 L 251 511 L 248 507 L 245 498 L 243 496 L 240 497 L 235 489 L 234 489 L 233 491 L 230 489 L 228 483 L 227 472 L 226 471 L 224 472 L 223 474 L 221 472 L 221 462 L 221 475 L 222 476 L 225 473 L 228 477 L 228 484 L 230 490 L 234 497 L 235 504 L 233 506 L 230 506 L 229 505 L 227 507 L 226 512 L 221 520 L 221 521 L 225 521 L 227 523 L 227 525 L 220 540 L 221 541 L 224 539 L 226 539 L 228 541 L 227 539 L 224 539 L 223 540 L 221 537 L 227 525 L 227 521 L 226 520 L 223 521 L 222 518 L 229 507 L 238 517 L 245 521 L 251 527 L 253 532 L 258 537 L 261 538 L 264 541 L 278 563 L 295 581 L 295 584 L 292 587 L 295 591 L 295 594 L 294 595 L 290 592 L 288 588 L 286 588 L 286 594 L 295 604 L 298 613 L 294 619 L 297 629 L 294 631 L 293 635 L 292 636 L 289 635 L 288 638 L 289 642 L 293 645 L 295 648 L 295 656 L 294 658 L 290 662 L 286 663 L 282 667 L 280 667 L 273 673 L 267 673 L 266 674 L 244 674 L 241 672 L 243 674 L 268 674 L 269 673 L 278 673 L 279 672 L 286 672 L 287 671 L 292 671 L 293 670 L 300 670 L 301 669 L 306 669 L 307 668 L 311 668 L 317 666 L 323 661 L 325 657 L 325 638 L 324 637 L 324 632 L 323 630 L 326 626 L 330 628 L 330 625 L 331 624 L 331 612 L 330 611 L 329 596 L 331 594 L 334 596 L 336 596 L 336 584 L 339 575 L 337 573 L 333 573 L 313 565 L 308 561 L 308 558 L 310 556 L 314 555 L 329 560 L 333 560 L 334 561 L 338 561 L 344 563 L 353 563 L 354 564 L 374 563 L 379 561 L 383 561 L 386 564 L 386 568 L 383 571 L 380 572 L 379 574 L 383 582 L 385 593 L 386 594 L 390 593 L 391 594 L 391 597 L 390 592 L 387 590 L 388 582 L 393 571 L 398 566 L 403 556 L 409 552 L 411 548 L 415 544 L 417 543 L 421 544 L 429 535 L 433 537 L 441 527 L 445 529 L 452 522 L 458 520 L 469 511 L 474 516 L 479 528 L 487 536 L 485 539 L 479 536 L 477 537 L 477 538 L 484 544 L 485 546 L 484 548 L 476 548 L 475 547 L 472 548 L 474 550 L 481 553 L 487 560 L 489 566 L 489 568 L 487 570 L 484 567 L 477 563 L 475 563 L 475 565 L 487 579 L 489 583 L 487 585 L 484 585 L 468 578 L 466 578 L 466 580 L 475 589 L 481 593 L 485 594 L 487 596 L 490 597 L 493 601 L 493 604 L 491 606 L 489 606 L 484 602 L 488 610 L 488 614 L 487 615 L 486 614 L 484 615 L 484 618 L 482 622 L 482 627 L 484 631 L 483 634 L 480 633 L 459 633 L 477 633 L 478 634 L 484 635 L 486 637 L 484 639 L 476 639 L 486 639 L 489 637 L 492 637 L 493 638 L 497 638 L 499 640 L 506 643 L 512 648 L 516 655 L 517 667 L 515 672 L 509 677 L 507 675 L 507 668 L 507 676 L 510 677 L 515 672 L 517 668 L 517 660 L 514 651 L 509 645 L 499 640 L 496 637 L 496 635 L 500 630 L 500 626 L 502 620 L 502 615 L 501 615 L 500 613 L 503 612 L 503 589 L 502 588 L 502 584 L 501 582 L 504 578 L 500 571 L 500 569 L 502 567 L 508 569 L 505 563 L 504 558 L 498 546 L 496 544 L 496 542 L 498 540 L 500 540 L 504 543 L 506 543 L 503 533 L 499 525 L 499 521 L 501 519 L 503 520 L 504 519 L 503 510 L 500 502 L 500 499 L 498 497 L 493 496 L 490 494 L 484 488 L 480 482 L 477 473 L 477 461 L 478 460 L 478 455 L 483 442 L 482 432 L 480 428 L 479 417 L 476 408 L 475 400 L 469 382 L 453 348 L 453 344 L 455 342 L 457 342 L 463 348 L 473 364 L 482 384 L 486 396 L 488 407 L 489 408 L 489 410 L 486 396 L 484 392 L 484 389 L 482 386 L 479 375 L 475 368 L 475 366 L 472 362 L 468 352 L 462 344 L 459 336 Z M 489 615 L 492 617 L 493 620 L 491 624 L 489 623 L 489 618 L 488 617 Z M 479 567 L 480 566 L 483 568 L 485 571 L 483 572 Z M 363 533 L 364 535 L 363 537 L 360 539 L 359 536 Z M 270 522 L 283 537 L 284 539 L 282 541 L 281 541 L 271 531 L 268 524 Z M 397 518 L 398 519 L 398 526 L 397 528 L 395 529 L 394 528 L 394 522 L 395 519 Z M 258 515 L 261 517 L 269 528 L 268 530 L 266 530 L 261 525 L 257 519 L 257 516 Z M 292 514 L 295 516 L 298 522 L 307 532 L 308 534 L 307 536 L 304 536 L 299 530 L 291 516 Z M 421 508 L 422 511 L 421 512 L 420 518 L 416 526 L 414 527 L 412 525 L 413 520 L 415 518 L 418 509 Z M 437 507 L 438 509 L 437 511 L 435 512 L 434 509 Z M 244 499 L 246 501 L 246 503 L 251 513 L 251 516 L 250 517 L 245 513 L 242 504 L 242 501 Z M 463 425 L 465 423 L 471 429 L 469 431 L 467 430 Z M 534 317 L 534 320 L 543 327 L 563 346 L 561 348 L 564 348 L 564 347 L 556 339 L 555 339 L 535 320 L 536 317 L 541 318 Z M 429 312 L 428 314 L 432 321 L 435 323 L 435 320 L 431 313 Z M 373 311 L 372 312 L 372 315 L 374 317 L 375 314 Z M 377 310 L 378 313 L 383 317 L 387 317 L 389 319 L 391 318 L 392 311 L 391 311 L 391 313 L 387 316 L 380 310 Z M 322 306 L 320 306 L 317 310 L 320 309 Z M 432 298 L 431 301 L 434 304 L 436 304 L 435 300 Z M 382 293 L 381 294 L 382 299 L 387 305 L 389 306 L 385 294 Z M 311 291 L 308 293 L 306 297 L 306 300 L 309 298 L 309 296 L 312 293 Z M 420 289 L 418 290 L 419 292 L 416 295 L 416 297 L 420 302 L 420 309 L 418 311 L 416 311 L 413 314 L 411 314 L 411 316 L 413 317 L 417 316 L 423 309 L 423 306 L 421 303 L 421 300 L 419 296 Z M 507 278 L 506 279 L 507 282 L 510 283 L 515 287 L 526 292 L 525 294 L 521 294 L 520 295 L 520 298 L 539 311 L 545 317 L 544 318 L 546 319 L 546 317 L 520 298 L 520 296 L 522 294 L 527 294 L 528 293 L 523 290 L 517 288 L 509 283 L 507 280 L 509 278 L 512 278 Z M 258 273 L 252 278 L 252 283 L 250 286 L 250 288 L 257 283 L 254 279 L 259 274 Z M 260 263 L 261 266 L 265 266 L 267 264 L 266 262 L 262 262 Z M 418 261 L 415 260 L 411 262 L 411 264 L 414 264 Z M 265 252 L 264 254 L 266 256 L 268 256 L 269 254 L 267 252 Z M 93 247 L 96 253 L 111 274 L 121 284 L 132 291 L 135 294 L 135 297 L 135 294 L 128 288 L 124 286 L 108 270 Z M 397 244 L 396 243 L 388 244 L 385 246 L 379 247 L 375 249 L 371 249 L 370 250 L 362 251 L 361 252 L 356 252 L 355 253 L 344 253 L 342 254 L 341 253 L 332 253 L 331 252 L 320 251 L 318 253 L 318 257 L 326 265 L 337 273 L 350 279 L 356 279 L 359 277 L 364 277 L 366 276 L 370 272 L 373 271 L 376 268 L 380 266 L 386 260 L 387 260 L 396 250 L 397 248 Z M 319 254 L 321 252 L 324 253 L 330 253 L 331 254 L 336 254 L 337 255 L 352 255 L 353 254 L 358 254 L 359 253 L 364 253 L 365 254 L 366 252 L 373 252 L 374 253 L 372 255 L 361 256 L 360 257 L 351 258 L 350 259 L 336 259 L 335 258 L 330 259 L 329 258 L 326 258 L 331 263 L 334 264 L 340 269 L 352 273 L 357 273 L 359 271 L 362 271 L 368 267 L 370 267 L 374 263 L 380 260 L 384 256 L 385 256 L 386 258 L 374 269 L 368 272 L 365 275 L 360 275 L 358 277 L 355 278 L 349 278 L 337 272 L 328 266 L 320 258 Z M 383 251 L 381 253 L 376 253 L 375 252 L 376 250 L 380 250 L 381 249 Z M 392 248 L 393 250 L 388 256 L 387 254 L 389 251 L 389 249 Z M 236 228 L 236 231 L 238 228 L 249 242 L 251 242 L 252 241 L 252 238 L 255 237 L 263 244 L 267 244 L 272 249 L 275 249 L 278 243 L 281 243 L 283 245 L 285 245 L 291 250 L 294 249 L 293 244 L 287 238 L 270 230 L 262 221 L 258 222 L 256 220 L 255 212 L 253 209 L 251 209 L 250 212 L 248 214 L 246 212 L 249 214 L 251 210 L 254 211 L 257 222 L 259 224 L 263 223 L 267 227 L 269 231 L 276 239 L 277 241 L 277 246 L 274 249 L 272 249 L 266 243 L 263 244 L 254 236 L 252 236 L 252 240 L 251 241 L 248 241 L 240 229 L 238 227 Z M 282 240 L 285 239 L 293 246 L 291 248 L 283 242 Z M 58 190 L 59 192 L 78 211 L 84 216 L 91 220 L 96 225 L 101 234 L 101 236 L 103 238 L 105 244 L 117 262 L 130 275 L 146 286 L 152 288 L 156 292 L 156 295 L 153 298 L 150 299 L 152 301 L 165 306 L 173 307 L 176 309 L 178 309 L 181 312 L 178 316 L 176 316 L 177 319 L 198 322 L 203 326 L 203 328 L 201 330 L 203 332 L 214 332 L 215 333 L 218 333 L 221 336 L 221 339 L 222 340 L 226 340 L 230 335 L 231 330 L 234 324 L 238 320 L 241 320 L 242 319 L 245 322 L 245 327 L 238 347 L 238 352 L 228 367 L 229 369 L 233 368 L 235 370 L 235 373 L 220 391 L 221 393 L 227 392 L 229 394 L 229 396 L 220 410 L 216 419 L 220 410 L 229 396 L 229 393 L 228 392 L 222 392 L 221 390 L 236 371 L 234 368 L 231 368 L 229 365 L 239 353 L 247 348 L 254 341 L 264 327 L 263 324 L 260 324 L 250 331 L 244 337 L 242 335 L 245 327 L 245 321 L 253 305 L 255 297 L 252 295 L 247 298 L 243 302 L 238 312 L 233 316 L 230 317 L 223 317 L 220 315 L 220 314 L 227 308 L 227 307 L 224 305 L 221 305 L 220 306 L 217 305 L 211 305 L 204 301 L 201 302 L 190 302 L 188 300 L 193 295 L 193 293 L 191 291 L 183 290 L 182 289 L 176 289 L 168 286 L 165 286 L 153 280 L 143 272 L 136 268 L 114 247 L 113 249 L 111 250 L 104 242 L 103 238 L 96 225 L 90 219 L 83 215 Z M 261 325 L 263 327 L 252 342 L 245 348 L 244 346 L 249 340 L 249 337 L 248 336 L 250 333 L 258 326 Z M 211 308 L 213 306 L 215 307 L 221 307 L 222 306 L 224 309 L 220 312 L 217 312 Z M 253 296 L 254 297 L 253 304 L 248 313 L 247 317 L 244 318 L 243 317 L 243 314 L 246 308 L 242 310 L 241 309 L 242 304 L 246 299 L 251 296 Z M 185 293 L 186 292 L 190 292 L 192 294 L 190 296 L 187 296 Z M 45 189 L 47 195 L 53 204 L 70 219 L 78 224 L 87 233 L 89 236 L 89 239 L 92 245 L 89 236 L 86 231 L 81 226 L 73 221 L 54 205 L 46 193 Z M 158 164 L 157 166 L 158 170 L 190 205 L 193 205 L 194 203 L 196 202 L 202 209 L 212 225 L 214 226 L 217 225 L 217 219 L 219 217 L 223 221 L 226 227 L 223 221 L 219 217 L 217 218 L 217 224 L 214 226 L 210 222 L 205 213 L 196 201 L 194 201 L 193 204 L 188 203 L 170 183 L 170 182 L 158 170 Z M 374 145 L 371 145 L 366 153 L 362 157 L 352 162 L 362 157 L 366 153 L 369 147 L 371 145 L 373 145 L 379 152 L 380 155 L 380 162 L 381 163 L 381 181 L 380 182 L 380 189 L 378 193 L 378 197 L 374 206 L 374 208 L 368 218 L 364 222 L 360 224 L 354 229 L 346 232 L 335 232 L 325 228 L 308 212 L 298 198 L 295 191 L 299 200 L 305 207 L 310 215 L 318 223 L 326 229 L 336 233 L 345 233 L 349 231 L 352 231 L 360 226 L 372 213 L 378 198 L 378 195 L 380 191 L 380 183 L 381 182 L 381 162 L 380 161 L 380 154 L 379 151 Z M 239 128 L 240 134 L 228 147 L 229 150 L 234 148 L 237 150 L 237 153 L 232 162 L 230 170 L 237 169 L 238 170 L 238 173 L 238 169 L 237 168 L 234 169 L 231 168 L 231 165 L 238 152 L 238 150 L 236 148 L 230 149 L 229 146 L 240 134 Z M 479 126 L 482 126 L 479 126 L 477 129 L 489 142 L 492 147 L 491 150 L 485 148 L 482 150 L 482 153 L 488 163 L 490 170 L 488 172 L 485 170 L 482 170 L 480 168 L 480 160 L 477 161 L 477 163 L 475 164 L 474 162 L 471 160 L 469 160 L 466 158 L 462 158 L 461 160 L 467 165 L 469 169 L 467 172 L 463 172 L 462 173 L 467 177 L 468 182 L 466 184 L 464 184 L 461 182 L 457 182 L 456 183 L 460 188 L 461 193 L 459 195 L 451 191 L 448 191 L 447 192 L 455 200 L 455 202 L 453 204 L 449 204 L 446 209 L 446 214 L 445 215 L 441 212 L 439 213 L 439 217 L 440 219 L 438 224 L 435 225 L 434 223 L 432 222 L 430 224 L 430 231 L 427 235 L 425 233 L 425 229 L 423 228 L 419 232 L 417 236 L 412 237 L 404 246 L 403 248 L 403 253 L 405 254 L 407 251 L 407 249 L 415 240 L 417 242 L 416 245 L 418 249 L 423 248 L 425 246 L 428 247 L 430 246 L 442 246 L 447 249 L 455 242 L 458 242 L 459 241 L 462 241 L 467 243 L 471 243 L 475 246 L 480 247 L 489 252 L 493 253 L 494 255 L 493 256 L 489 256 L 488 259 L 490 261 L 498 264 L 510 272 L 516 277 L 515 279 L 517 278 L 514 275 L 498 264 L 492 262 L 488 258 L 490 256 L 496 256 L 496 254 L 472 244 L 469 241 L 473 238 L 467 236 L 465 234 L 468 231 L 467 230 L 463 230 L 461 228 L 461 226 L 467 220 L 474 208 L 475 202 L 476 201 L 476 193 L 478 191 L 481 193 L 483 192 L 483 176 L 482 175 L 482 172 L 485 170 L 489 173 L 491 173 L 491 170 L 488 164 L 488 162 L 482 151 L 484 149 L 488 149 L 492 151 L 493 148 L 486 138 L 478 130 L 478 127 Z M 439 237 L 441 239 L 441 241 L 437 245 L 435 245 L 433 242 Z M 458 220 L 459 221 L 457 225 L 452 230 L 450 234 L 446 237 L 444 235 L 444 232 L 456 220 Z M 150 126 L 158 133 L 158 135 L 160 137 L 160 140 L 160 137 L 157 131 L 153 127 L 150 126 L 145 127 L 140 135 L 137 138 L 135 138 L 133 136 L 131 129 L 133 137 L 137 141 L 136 148 L 138 154 L 141 157 L 145 159 L 151 158 L 154 155 L 154 152 L 155 151 L 155 136 L 154 134 L 150 130 L 146 130 L 145 131 L 143 129 L 147 126 Z M 146 131 L 149 131 L 155 138 L 155 149 L 154 150 L 154 153 L 149 158 L 143 158 L 138 153 L 137 150 L 137 144 L 138 141 L 140 139 L 141 136 Z M 385 127 L 385 134 L 391 141 L 397 144 L 403 146 L 408 146 L 409 147 L 420 147 L 421 146 L 427 145 L 433 140 L 435 135 L 433 128 L 427 122 L 418 119 L 413 119 L 412 118 L 402 118 L 401 119 L 397 119 L 390 122 Z M 385 128 L 391 122 L 395 120 L 398 120 L 399 119 L 417 119 L 418 120 L 422 120 L 428 123 L 434 130 L 435 135 L 434 138 L 429 143 L 422 146 L 406 146 L 392 141 L 386 135 L 385 133 Z M 296 115 L 296 117 L 294 120 L 288 126 L 283 126 L 280 123 L 279 118 L 280 123 L 285 127 L 281 133 L 281 137 L 280 138 L 275 138 L 274 139 L 268 133 L 258 133 L 248 138 L 244 142 L 242 147 L 242 153 L 249 159 L 257 159 L 259 158 L 268 148 L 270 150 L 270 157 L 272 163 L 278 170 L 273 164 L 270 157 L 271 143 L 275 138 L 278 138 L 280 140 L 279 156 L 281 161 L 286 166 L 290 168 L 294 168 L 290 168 L 281 161 L 279 156 L 279 150 L 280 149 L 280 142 L 282 141 L 284 144 L 281 138 L 281 133 L 282 131 L 290 124 L 298 122 L 295 123 L 293 122 L 294 119 L 296 117 Z M 271 137 L 271 141 L 268 145 L 265 143 L 266 140 L 265 138 L 257 140 L 257 142 L 255 144 L 256 145 L 258 145 L 259 142 L 261 143 L 261 146 L 258 148 L 258 149 L 261 149 L 263 145 L 266 146 L 266 148 L 258 157 L 256 158 L 248 158 L 243 153 L 243 146 L 251 137 L 261 133 L 266 133 Z M 119 111 L 127 120 L 130 127 L 125 117 L 119 111 L 113 111 L 110 114 L 110 120 L 114 116 L 116 116 L 122 121 L 127 134 L 127 142 L 124 145 L 121 145 L 115 141 L 108 142 L 104 137 L 98 126 L 90 119 L 87 118 L 91 120 L 99 128 L 101 131 L 102 136 L 101 137 L 94 130 L 94 129 L 87 123 L 83 123 L 80 125 L 77 123 L 77 128 L 78 129 L 83 124 L 87 124 L 89 125 L 100 138 L 100 140 L 102 143 L 102 147 L 97 152 L 89 152 L 87 154 L 83 154 L 77 148 L 66 142 L 61 144 L 58 149 L 58 151 L 59 147 L 63 143 L 68 143 L 76 148 L 78 151 L 75 152 L 69 147 L 65 146 L 63 148 L 62 152 L 60 154 L 59 153 L 60 156 L 63 158 L 62 151 L 67 147 L 76 154 L 83 161 L 84 164 L 83 168 L 79 171 L 70 168 L 70 170 L 66 174 L 60 174 L 56 177 L 58 175 L 61 177 L 60 179 L 61 187 L 71 196 L 75 195 L 76 192 L 79 190 L 81 192 L 81 196 L 84 202 L 89 206 L 96 209 L 108 209 L 110 207 L 116 205 L 133 193 L 141 183 L 142 174 L 139 165 L 130 155 L 122 151 L 112 151 L 103 155 L 93 165 L 92 168 L 87 174 L 85 179 L 80 185 L 78 184 L 78 180 L 71 173 L 73 171 L 81 171 L 84 168 L 84 159 L 83 157 L 84 156 L 87 157 L 93 153 L 98 152 L 103 146 L 103 142 L 102 140 L 104 138 L 108 143 L 116 142 L 120 145 L 123 145 L 124 146 L 126 145 L 128 141 L 128 135 L 124 126 L 123 121 L 117 115 L 112 116 L 110 114 L 113 111 Z M 63 179 L 67 177 L 73 177 L 77 181 L 77 190 L 74 194 L 69 193 L 61 185 L 61 181 Z M 126 153 L 139 165 L 139 167 L 141 170 L 141 181 L 140 184 L 132 193 L 111 207 L 104 208 L 103 209 L 99 209 L 90 206 L 82 198 L 81 195 L 81 187 L 93 166 L 107 153 L 113 151 L 121 151 L 124 153 Z M 307 111 L 308 114 L 314 112 L 319 112 L 320 111 L 331 112 L 335 114 L 340 114 L 341 113 L 341 111 L 338 108 L 334 107 L 331 105 L 318 105 L 312 107 Z M 312 110 L 316 107 L 330 107 L 336 109 L 338 112 L 336 113 L 335 112 L 327 111 L 326 110 L 321 110 L 320 111 L 313 111 Z M 472 98 L 474 102 L 477 105 L 477 108 L 474 110 L 474 113 L 489 124 L 489 126 L 486 127 L 490 127 L 490 124 L 488 122 L 479 117 L 474 112 L 476 109 L 478 109 L 478 106 L 474 102 Z M 302 63 L 299 60 L 293 60 L 289 62 L 282 68 L 280 71 L 280 75 L 283 78 L 285 78 L 293 72 L 299 70 L 302 67 Z M 302 63 L 302 67 L 300 69 L 291 73 L 285 78 L 283 78 L 280 75 L 280 71 L 282 68 L 289 62 L 293 60 L 299 60 Z M 258 58 L 251 59 L 247 61 L 243 65 L 240 72 L 240 78 L 242 83 L 251 91 L 252 91 L 258 85 L 262 78 L 270 68 L 270 67 L 263 60 Z M 260 60 L 268 67 L 255 87 L 251 90 L 243 83 L 241 79 L 241 71 L 243 67 L 249 61 L 251 60 Z M 437 32 L 433 34 L 427 40 L 425 47 L 429 51 L 436 55 L 444 63 L 447 65 L 450 65 L 456 60 L 459 55 L 459 45 L 455 38 L 449 33 L 443 31 Z M 437 33 L 443 32 L 450 35 L 458 44 L 459 47 L 459 53 L 456 58 L 450 64 L 447 64 L 437 54 L 431 50 L 429 50 L 426 47 L 426 44 L 428 40 L 432 36 Z M 360 23 L 359 22 L 355 24 L 346 33 L 344 33 L 338 29 L 334 28 L 331 26 L 328 26 L 327 29 L 330 33 L 330 36 L 328 38 L 319 38 L 329 38 L 330 37 L 330 33 L 327 29 L 329 26 L 333 27 L 344 33 L 347 33 L 349 30 L 356 24 L 359 25 L 359 28 Z" fill="#D8D8D8" fill-rule="evenodd"/><path d="M 447 638 L 448 639 L 451 639 L 452 638 L 461 638 L 462 637 L 473 637 L 474 638 L 484 638 L 485 637 L 477 634 L 458 634 L 457 635 L 449 636 Z M 462 635 L 463 634 L 472 634 L 473 636 L 472 637 L 463 637 Z M 270 523 L 269 524 L 272 531 L 281 540 L 283 539 L 282 537 Z M 397 519 L 396 519 L 395 522 L 395 528 L 396 528 L 397 526 Z M 258 516 L 258 519 L 262 525 L 266 529 L 268 529 L 260 517 Z M 292 515 L 296 524 L 304 535 L 307 535 L 306 532 L 300 526 L 294 516 Z M 421 509 L 419 509 L 416 518 L 414 520 L 413 523 L 414 526 L 415 526 L 419 518 Z M 244 500 L 243 501 L 243 504 L 246 513 L 250 516 L 250 513 Z M 271 496 L 272 502 L 276 509 L 277 508 L 276 503 L 273 497 Z M 437 459 L 438 461 L 438 465 L 439 466 L 439 471 L 441 474 L 443 472 L 442 467 L 440 464 L 439 460 Z M 435 410 L 439 413 L 441 412 L 439 410 L 436 409 Z M 261 326 L 258 327 L 251 333 L 249 336 L 250 337 L 250 340 L 247 343 L 245 347 L 248 345 L 255 337 L 262 327 Z M 212 308 L 217 311 L 220 311 L 223 309 L 222 307 L 221 308 L 215 308 L 214 307 Z M 253 297 L 251 297 L 246 300 L 243 304 L 242 309 L 245 307 L 247 308 L 245 311 L 244 317 L 246 317 L 247 313 L 252 304 Z M 385 258 L 385 257 L 384 257 L 380 261 L 374 264 L 370 268 L 368 268 L 362 272 L 359 272 L 357 274 L 352 274 L 340 270 L 337 267 L 331 264 L 325 258 L 326 257 L 329 257 L 330 258 L 333 257 L 336 258 L 350 258 L 351 257 L 356 257 L 361 255 L 368 255 L 369 254 L 372 254 L 374 252 L 373 253 L 366 253 L 365 255 L 364 254 L 359 254 L 358 255 L 353 255 L 352 256 L 337 256 L 336 255 L 324 254 L 323 253 L 320 254 L 321 258 L 328 265 L 337 271 L 349 277 L 355 277 L 358 276 L 360 274 L 365 274 L 368 271 L 374 268 Z M 283 240 L 283 241 L 291 247 L 292 246 L 285 240 Z M 439 238 L 434 242 L 435 244 L 437 244 L 440 241 Z M 458 221 L 456 221 L 445 232 L 445 235 L 446 236 L 449 234 Z M 62 181 L 62 185 L 69 192 L 74 193 L 76 190 L 76 181 L 73 178 L 67 178 Z M 126 154 L 124 154 L 121 152 L 113 152 L 107 154 L 94 166 L 82 187 L 82 195 L 83 198 L 90 205 L 99 208 L 103 208 L 104 207 L 111 206 L 132 192 L 139 184 L 140 181 L 140 170 L 138 167 L 138 165 Z M 272 143 L 272 147 L 271 148 L 271 157 L 274 164 L 279 170 L 285 174 L 290 175 L 293 179 L 293 184 L 299 198 L 309 212 L 322 225 L 329 229 L 335 231 L 346 231 L 354 228 L 367 218 L 370 214 L 377 197 L 377 193 L 379 189 L 379 182 L 380 181 L 380 163 L 379 162 L 379 155 L 377 150 L 373 146 L 370 147 L 367 153 L 362 158 L 348 165 L 345 165 L 340 167 L 327 167 L 326 166 L 321 166 L 320 165 L 316 165 L 315 164 L 309 163 L 306 164 L 299 169 L 290 169 L 286 167 L 279 159 L 278 156 L 279 140 L 278 139 L 275 139 Z M 273 143 L 276 140 L 279 141 L 279 146 L 278 147 L 278 157 L 279 160 L 285 167 L 292 170 L 298 170 L 307 164 L 313 164 L 318 166 L 323 166 L 324 167 L 329 167 L 330 168 L 343 167 L 352 164 L 360 160 L 367 154 L 369 150 L 373 147 L 377 152 L 378 159 L 379 160 L 379 182 L 378 183 L 378 188 L 376 193 L 376 197 L 373 206 L 368 215 L 364 219 L 362 217 L 368 206 L 370 200 L 370 192 L 364 186 L 360 184 L 349 183 L 348 184 L 342 185 L 332 191 L 324 200 L 321 206 L 321 213 L 324 218 L 331 225 L 331 226 L 328 228 L 323 225 L 309 211 L 299 197 L 294 186 L 293 177 L 291 175 L 289 175 L 283 172 L 275 165 L 272 159 L 272 146 Z M 270 137 L 266 134 L 261 134 L 251 138 L 244 146 L 244 153 L 248 157 L 256 157 L 258 156 L 265 148 L 265 146 L 263 146 L 263 148 L 261 150 L 258 150 L 257 148 L 260 146 L 260 143 L 259 143 L 258 146 L 256 146 L 254 144 L 256 142 L 256 140 L 265 137 L 267 139 L 266 143 L 268 144 L 270 141 Z M 149 132 L 146 132 L 142 136 L 138 144 L 138 150 L 139 153 L 143 157 L 149 157 L 153 153 L 153 150 L 154 149 L 154 138 Z M 386 128 L 386 133 L 392 140 L 406 145 L 422 145 L 429 142 L 433 138 L 434 135 L 433 130 L 428 124 L 422 121 L 418 121 L 417 120 L 399 120 L 398 121 L 395 121 L 391 123 Z M 313 110 L 326 109 L 327 110 L 331 110 L 337 112 L 336 110 L 330 108 L 316 108 Z M 285 101 L 281 107 L 280 115 L 279 116 L 281 123 L 283 125 L 288 125 L 289 126 L 286 128 L 282 133 L 282 138 L 285 145 L 294 153 L 299 155 L 303 155 L 304 156 L 315 154 L 326 148 L 333 140 L 334 137 L 333 130 L 325 124 L 319 122 L 315 122 L 314 121 L 299 122 L 290 125 L 289 124 L 293 120 L 296 114 L 296 106 L 295 103 L 292 100 L 287 100 Z M 332 130 L 333 132 L 333 138 L 330 143 L 322 150 L 310 155 L 300 155 L 293 152 L 285 144 L 283 140 L 283 132 L 288 127 L 301 122 L 313 121 L 314 122 L 321 123 L 326 125 Z M 291 100 L 295 104 L 295 107 L 296 108 L 295 116 L 288 124 L 284 125 L 280 120 L 280 112 L 281 111 L 281 108 L 283 104 L 287 100 Z M 371 93 L 367 97 L 365 102 L 365 113 L 367 118 L 369 120 L 373 122 L 377 122 L 379 121 L 383 116 L 384 113 L 384 103 L 381 96 L 377 93 Z M 372 93 L 376 93 L 378 94 L 381 97 L 384 105 L 383 115 L 382 117 L 376 122 L 371 121 L 366 115 L 366 112 L 365 111 L 366 100 Z M 301 63 L 299 61 L 293 61 L 289 63 L 283 68 L 281 71 L 281 75 L 283 77 L 285 77 L 291 72 L 301 67 Z M 301 64 L 301 66 L 299 68 L 293 70 L 286 76 L 283 77 L 281 75 L 281 73 L 284 68 L 290 63 L 294 61 L 297 61 Z M 260 61 L 251 61 L 249 62 L 244 67 L 242 71 L 242 79 L 244 83 L 251 89 L 252 89 L 257 83 L 267 67 Z M 365 53 L 365 57 L 366 58 L 375 60 L 383 65 L 386 65 L 388 63 L 388 58 L 381 52 L 375 50 L 369 50 Z M 365 54 L 368 51 L 371 50 L 377 51 L 383 54 L 388 59 L 388 62 L 384 65 L 382 63 L 374 59 L 368 58 Z M 437 34 L 429 40 L 427 44 L 427 47 L 429 49 L 431 49 L 437 53 L 447 63 L 450 63 L 455 58 L 458 53 L 458 47 L 457 44 L 450 36 L 443 33 Z M 452 15 L 446 13 L 432 13 L 426 15 L 418 20 L 415 23 L 410 30 L 409 35 L 407 37 L 398 34 L 395 34 L 394 33 L 385 32 L 384 31 L 364 31 L 361 32 L 359 30 L 362 24 L 361 21 L 357 21 L 346 31 L 343 31 L 335 26 L 327 24 L 325 26 L 325 28 L 328 32 L 328 35 L 326 37 L 311 37 L 308 38 L 304 43 L 292 48 L 283 55 L 281 55 L 273 46 L 263 41 L 251 41 L 245 43 L 238 47 L 230 55 L 226 63 L 226 67 L 225 68 L 225 80 L 226 81 L 226 84 L 232 94 L 239 99 L 243 100 L 246 103 L 237 125 L 238 134 L 228 144 L 226 148 L 227 151 L 232 151 L 234 150 L 236 152 L 229 165 L 229 171 L 230 172 L 233 172 L 234 171 L 236 172 L 236 176 L 235 177 L 235 181 L 234 182 L 233 189 L 234 192 L 236 194 L 238 194 L 240 192 L 242 194 L 242 205 L 245 213 L 248 216 L 251 214 L 253 214 L 255 218 L 255 221 L 258 226 L 260 228 L 264 226 L 276 242 L 276 245 L 274 247 L 272 247 L 266 240 L 262 241 L 252 233 L 250 234 L 250 237 L 248 238 L 238 225 L 236 225 L 234 230 L 231 232 L 227 227 L 222 217 L 219 215 L 216 216 L 216 221 L 213 223 L 207 215 L 202 206 L 196 199 L 194 199 L 191 202 L 188 201 L 171 181 L 159 169 L 159 164 L 161 160 L 161 154 L 162 153 L 162 141 L 159 132 L 153 126 L 151 125 L 146 125 L 141 130 L 139 134 L 136 136 L 132 131 L 128 119 L 125 115 L 119 110 L 113 110 L 111 111 L 108 116 L 108 127 L 110 132 L 110 137 L 108 139 L 104 134 L 102 129 L 97 123 L 92 119 L 86 116 L 83 116 L 77 120 L 75 126 L 76 133 L 82 144 L 83 148 L 81 149 L 79 147 L 68 141 L 64 141 L 58 146 L 57 149 L 58 155 L 66 167 L 67 170 L 65 172 L 62 172 L 57 174 L 54 178 L 55 187 L 57 190 L 57 192 L 60 196 L 83 217 L 90 221 L 95 226 L 103 241 L 103 243 L 113 259 L 120 268 L 131 278 L 135 280 L 142 286 L 149 289 L 153 293 L 150 296 L 147 297 L 147 299 L 150 302 L 161 307 L 169 308 L 175 310 L 178 313 L 176 315 L 173 316 L 173 318 L 175 320 L 181 322 L 190 322 L 191 323 L 198 324 L 200 326 L 200 328 L 198 330 L 200 333 L 217 335 L 219 337 L 218 340 L 221 342 L 227 342 L 230 339 L 230 337 L 236 325 L 239 322 L 242 322 L 244 324 L 237 345 L 236 353 L 226 367 L 227 370 L 232 370 L 234 372 L 218 392 L 219 395 L 226 394 L 227 397 L 223 402 L 220 409 L 218 411 L 213 423 L 214 426 L 216 426 L 219 424 L 222 426 L 220 429 L 217 438 L 216 445 L 215 446 L 215 456 L 216 457 L 219 454 L 221 455 L 219 475 L 221 479 L 224 477 L 226 478 L 227 486 L 233 499 L 233 502 L 231 504 L 229 502 L 227 503 L 226 508 L 219 521 L 220 523 L 224 523 L 225 526 L 222 531 L 222 533 L 219 538 L 218 542 L 221 543 L 224 541 L 226 543 L 220 560 L 219 570 L 221 571 L 224 569 L 226 571 L 223 584 L 227 587 L 227 596 L 229 599 L 230 610 L 231 611 L 232 618 L 236 626 L 232 629 L 224 629 L 223 630 L 213 632 L 208 635 L 203 640 L 200 646 L 199 656 L 198 657 L 199 658 L 200 665 L 205 669 L 208 668 L 208 665 L 207 664 L 208 656 L 210 652 L 214 648 L 216 648 L 218 650 L 216 656 L 216 659 L 215 660 L 215 670 L 218 672 L 221 672 L 222 673 L 229 673 L 230 674 L 232 673 L 232 669 L 231 668 L 232 661 L 234 656 L 238 652 L 240 652 L 242 654 L 242 657 L 240 661 L 240 667 L 239 668 L 239 671 L 241 675 L 275 675 L 276 674 L 282 674 L 283 673 L 292 673 L 293 672 L 299 672 L 300 671 L 305 671 L 306 670 L 314 669 L 321 666 L 323 664 L 327 655 L 327 641 L 326 640 L 326 634 L 325 632 L 327 630 L 329 631 L 332 630 L 332 605 L 331 604 L 331 599 L 333 597 L 335 599 L 337 598 L 337 586 L 339 582 L 340 573 L 339 572 L 335 572 L 331 570 L 328 570 L 325 568 L 320 567 L 314 564 L 310 559 L 312 557 L 315 557 L 316 558 L 323 559 L 331 562 L 335 562 L 341 564 L 347 564 L 348 565 L 355 565 L 356 566 L 365 566 L 366 565 L 371 565 L 372 564 L 377 564 L 378 563 L 383 563 L 385 565 L 385 567 L 382 570 L 378 571 L 377 574 L 380 578 L 382 584 L 382 587 L 383 588 L 383 591 L 384 592 L 384 595 L 386 597 L 387 596 L 389 597 L 389 612 L 393 614 L 393 630 L 394 633 L 396 633 L 398 631 L 400 633 L 400 649 L 398 654 L 398 667 L 400 672 L 404 676 L 410 679 L 416 681 L 419 681 L 420 682 L 438 684 L 439 683 L 438 666 L 439 664 L 443 661 L 446 664 L 447 667 L 447 683 L 448 684 L 469 684 L 471 682 L 471 673 L 470 672 L 470 665 L 469 663 L 473 660 L 478 664 L 479 667 L 479 672 L 480 673 L 479 682 L 480 683 L 487 683 L 488 682 L 495 681 L 497 679 L 498 672 L 497 671 L 496 660 L 498 658 L 500 658 L 503 661 L 505 665 L 505 668 L 506 669 L 506 678 L 507 679 L 511 678 L 514 676 L 517 672 L 518 669 L 518 657 L 515 650 L 507 642 L 500 639 L 498 637 L 498 635 L 501 632 L 501 628 L 503 622 L 503 616 L 504 615 L 504 601 L 505 600 L 505 592 L 504 591 L 504 586 L 503 584 L 506 581 L 506 579 L 502 571 L 504 569 L 508 572 L 510 571 L 509 566 L 506 561 L 504 554 L 498 544 L 500 542 L 506 546 L 508 545 L 507 539 L 501 526 L 501 523 L 502 522 L 505 522 L 506 521 L 506 518 L 504 513 L 504 508 L 501 500 L 501 497 L 498 495 L 495 495 L 490 492 L 484 485 L 480 476 L 480 473 L 479 472 L 479 460 L 480 459 L 481 451 L 485 442 L 485 438 L 484 437 L 481 418 L 480 417 L 475 394 L 471 385 L 471 383 L 469 380 L 469 378 L 463 366 L 463 364 L 456 352 L 455 346 L 457 344 L 462 349 L 468 360 L 470 362 L 481 386 L 485 398 L 486 405 L 488 409 L 489 417 L 490 418 L 491 426 L 492 427 L 492 431 L 493 432 L 493 436 L 494 437 L 494 444 L 492 447 L 489 456 L 489 461 L 488 462 L 489 474 L 492 480 L 495 483 L 499 485 L 503 485 L 505 484 L 508 480 L 508 478 L 511 472 L 514 469 L 516 471 L 517 474 L 516 480 L 513 486 L 513 488 L 509 493 L 510 497 L 514 501 L 521 504 L 528 503 L 533 498 L 538 487 L 541 484 L 543 486 L 543 492 L 541 498 L 538 502 L 538 504 L 540 506 L 546 506 L 553 503 L 557 499 L 560 493 L 562 485 L 564 483 L 567 485 L 567 489 L 566 490 L 565 497 L 566 498 L 568 497 L 575 490 L 581 477 L 581 474 L 583 469 L 583 464 L 584 463 L 584 445 L 583 444 L 582 437 L 583 436 L 586 436 L 586 431 L 581 418 L 581 414 L 579 408 L 577 405 L 578 403 L 581 403 L 582 401 L 575 388 L 568 378 L 570 376 L 571 377 L 574 377 L 575 375 L 560 354 L 556 350 L 558 348 L 566 350 L 566 347 L 538 321 L 540 319 L 541 320 L 547 320 L 548 317 L 540 310 L 523 298 L 524 296 L 528 296 L 530 294 L 528 291 L 518 287 L 511 282 L 512 280 L 518 280 L 519 277 L 492 259 L 493 257 L 499 257 L 499 255 L 493 251 L 491 251 L 482 246 L 476 244 L 474 241 L 477 238 L 474 236 L 471 236 L 469 234 L 471 231 L 469 229 L 465 229 L 464 228 L 465 224 L 469 220 L 474 212 L 474 210 L 477 204 L 477 196 L 479 194 L 482 196 L 485 194 L 485 178 L 484 177 L 484 174 L 487 173 L 491 176 L 493 173 L 491 165 L 484 152 L 485 151 L 493 152 L 494 151 L 494 147 L 488 138 L 480 130 L 481 128 L 491 128 L 492 127 L 492 124 L 476 112 L 478 110 L 480 110 L 480 107 L 474 99 L 466 84 L 459 75 L 459 74 L 470 64 L 474 56 L 474 53 L 475 52 L 475 42 L 474 41 L 474 38 L 467 26 L 462 21 Z M 451 15 L 462 22 L 468 28 L 474 39 L 474 43 L 475 44 L 474 55 L 470 63 L 462 71 L 461 71 L 458 75 L 464 82 L 475 102 L 479 106 L 479 109 L 476 110 L 475 112 L 479 116 L 482 117 L 491 124 L 491 127 L 490 128 L 479 127 L 479 130 L 487 138 L 494 148 L 494 150 L 492 152 L 488 150 L 484 150 L 483 151 L 489 162 L 489 164 L 492 170 L 492 173 L 489 174 L 485 171 L 483 172 L 483 175 L 484 176 L 484 192 L 482 194 L 479 192 L 477 193 L 477 201 L 476 202 L 475 208 L 468 220 L 462 226 L 462 228 L 463 229 L 467 229 L 469 231 L 466 234 L 469 236 L 472 236 L 474 238 L 470 241 L 472 243 L 478 245 L 483 248 L 485 248 L 497 254 L 496 257 L 490 257 L 489 258 L 492 261 L 498 263 L 510 271 L 518 278 L 516 280 L 514 279 L 509 279 L 508 281 L 517 287 L 527 291 L 529 293 L 527 295 L 522 295 L 521 298 L 535 307 L 547 317 L 546 320 L 544 319 L 538 319 L 536 318 L 536 320 L 565 347 L 564 349 L 561 349 L 555 347 L 554 349 L 559 354 L 574 374 L 572 377 L 569 375 L 566 376 L 580 397 L 581 400 L 579 402 L 576 400 L 575 402 L 579 409 L 581 415 L 581 419 L 586 432 L 584 435 L 581 434 L 582 441 L 583 442 L 583 447 L 584 448 L 584 460 L 583 461 L 582 472 L 580 476 L 580 479 L 575 489 L 568 496 L 566 495 L 567 484 L 564 482 L 561 486 L 561 489 L 557 498 L 550 504 L 547 505 L 541 505 L 539 502 L 543 493 L 543 485 L 540 483 L 533 497 L 528 502 L 526 503 L 519 503 L 515 501 L 510 496 L 510 493 L 514 487 L 517 478 L 517 471 L 513 468 L 509 475 L 507 481 L 504 484 L 498 484 L 493 480 L 489 472 L 489 458 L 490 457 L 490 454 L 492 448 L 494 445 L 495 439 L 493 434 L 491 420 L 490 419 L 489 411 L 487 407 L 485 396 L 481 384 L 479 381 L 479 379 L 472 364 L 462 348 L 457 343 L 454 344 L 455 351 L 468 377 L 468 379 L 470 382 L 476 400 L 477 408 L 480 417 L 481 428 L 483 432 L 484 442 L 479 455 L 479 460 L 478 461 L 478 473 L 481 482 L 485 488 L 490 493 L 493 495 L 498 496 L 501 499 L 501 502 L 504 510 L 505 519 L 503 521 L 502 520 L 500 521 L 500 525 L 504 533 L 507 543 L 504 544 L 502 542 L 498 541 L 497 544 L 499 546 L 505 558 L 506 563 L 509 569 L 508 570 L 506 570 L 503 568 L 501 569 L 501 571 L 505 578 L 502 582 L 503 584 L 503 588 L 504 589 L 504 612 L 503 613 L 503 620 L 502 621 L 501 630 L 497 635 L 497 637 L 499 639 L 509 644 L 513 648 L 517 655 L 518 668 L 516 672 L 510 678 L 508 678 L 506 676 L 506 667 L 504 662 L 501 658 L 497 657 L 495 660 L 496 662 L 496 666 L 497 667 L 497 678 L 494 681 L 491 682 L 483 682 L 482 683 L 480 681 L 480 669 L 478 663 L 475 660 L 471 660 L 469 662 L 469 665 L 470 666 L 470 682 L 465 684 L 449 684 L 447 682 L 447 677 L 448 676 L 447 673 L 447 665 L 444 661 L 441 661 L 438 665 L 438 679 L 439 681 L 437 683 L 422 682 L 421 681 L 417 681 L 406 677 L 400 671 L 398 666 L 399 651 L 401 647 L 401 635 L 400 634 L 400 631 L 398 630 L 396 632 L 394 630 L 393 627 L 394 611 L 390 611 L 389 610 L 390 594 L 386 595 L 384 593 L 382 582 L 378 574 L 380 571 L 383 570 L 385 568 L 385 564 L 383 562 L 379 562 L 374 564 L 365 564 L 364 565 L 344 564 L 343 563 L 329 561 L 314 556 L 312 556 L 309 558 L 309 561 L 324 569 L 333 572 L 337 572 L 340 575 L 337 584 L 337 596 L 336 597 L 334 597 L 332 595 L 330 596 L 331 611 L 332 612 L 332 624 L 330 629 L 326 627 L 324 630 L 325 632 L 325 637 L 326 638 L 326 657 L 324 661 L 319 666 L 311 669 L 307 669 L 306 670 L 293 671 L 292 672 L 279 673 L 278 674 L 269 674 L 268 675 L 243 675 L 240 672 L 240 662 L 242 657 L 242 653 L 241 652 L 237 652 L 234 655 L 231 662 L 231 671 L 229 673 L 225 673 L 224 672 L 220 672 L 218 671 L 215 667 L 216 657 L 219 651 L 219 649 L 217 647 L 215 647 L 210 651 L 207 659 L 207 666 L 204 668 L 199 662 L 199 651 L 202 642 L 210 634 L 217 631 L 227 630 L 228 629 L 240 629 L 241 630 L 246 630 L 252 632 L 255 632 L 256 631 L 248 627 L 238 626 L 234 622 L 232 616 L 232 613 L 231 612 L 231 609 L 230 608 L 229 598 L 227 594 L 227 585 L 224 582 L 225 575 L 226 574 L 226 568 L 224 568 L 221 570 L 219 568 L 221 558 L 223 554 L 223 551 L 227 542 L 226 540 L 224 540 L 221 542 L 219 540 L 226 525 L 225 522 L 221 522 L 220 520 L 225 512 L 226 507 L 229 504 L 230 505 L 233 505 L 234 504 L 234 500 L 227 484 L 227 477 L 225 474 L 222 477 L 220 475 L 221 452 L 220 451 L 216 454 L 215 453 L 215 448 L 216 447 L 217 439 L 220 430 L 222 427 L 222 423 L 219 423 L 216 425 L 214 423 L 214 421 L 219 410 L 228 396 L 227 393 L 221 394 L 219 391 L 234 373 L 234 370 L 233 369 L 229 370 L 227 367 L 237 352 L 237 347 L 244 327 L 244 322 L 242 320 L 241 321 L 238 321 L 235 324 L 232 330 L 231 335 L 226 341 L 222 341 L 220 339 L 220 336 L 218 334 L 215 334 L 214 333 L 203 333 L 200 330 L 202 328 L 202 326 L 198 323 L 177 320 L 175 318 L 175 316 L 178 315 L 180 313 L 178 310 L 176 310 L 170 307 L 165 307 L 152 302 L 149 299 L 155 295 L 155 292 L 152 289 L 146 287 L 130 276 L 116 262 L 104 244 L 102 238 L 100 236 L 100 234 L 95 225 L 91 221 L 84 217 L 78 212 L 58 192 L 55 186 L 55 182 L 54 181 L 55 177 L 60 173 L 66 173 L 69 170 L 70 167 L 79 170 L 82 168 L 83 164 L 82 161 L 67 148 L 63 151 L 64 158 L 62 159 L 59 156 L 57 149 L 61 143 L 66 141 L 77 147 L 83 153 L 87 153 L 89 151 L 97 151 L 101 147 L 101 143 L 99 140 L 99 138 L 89 126 L 87 125 L 83 125 L 78 130 L 76 128 L 76 123 L 77 121 L 83 116 L 88 117 L 95 122 L 99 126 L 108 141 L 115 140 L 121 144 L 124 144 L 126 142 L 126 134 L 121 121 L 116 117 L 114 117 L 110 121 L 109 120 L 109 114 L 113 110 L 119 110 L 128 120 L 131 126 L 133 134 L 135 137 L 137 137 L 141 132 L 142 129 L 147 125 L 153 126 L 158 131 L 161 137 L 161 143 L 162 144 L 161 158 L 159 163 L 159 170 L 171 182 L 188 202 L 193 203 L 193 201 L 196 200 L 199 203 L 211 222 L 214 225 L 216 224 L 216 218 L 219 216 L 224 221 L 227 228 L 232 234 L 235 232 L 235 228 L 238 226 L 241 229 L 248 240 L 251 240 L 251 236 L 254 235 L 263 243 L 266 242 L 272 248 L 274 248 L 276 246 L 276 241 L 268 231 L 266 227 L 263 224 L 259 225 L 256 222 L 253 211 L 251 211 L 251 213 L 249 215 L 245 212 L 242 203 L 243 191 L 240 191 L 238 193 L 236 193 L 234 191 L 234 185 L 235 184 L 237 170 L 234 170 L 233 171 L 230 171 L 229 170 L 231 162 L 236 153 L 236 150 L 234 149 L 229 151 L 227 149 L 227 147 L 239 134 L 238 123 L 247 103 L 246 101 L 242 100 L 237 97 L 229 89 L 226 83 L 226 80 L 225 79 L 225 70 L 226 69 L 227 62 L 230 56 L 242 45 L 254 41 L 261 41 L 269 44 L 272 46 L 281 56 L 282 56 L 293 48 L 301 44 L 306 43 L 310 38 L 328 37 L 329 36 L 329 33 L 326 29 L 326 27 L 328 25 L 331 25 L 334 27 L 338 28 L 344 32 L 346 32 L 355 23 L 359 21 L 361 23 L 359 29 L 359 32 L 360 33 L 362 32 L 367 32 L 368 31 L 379 31 L 380 32 L 391 33 L 392 34 L 395 34 L 396 35 L 399 35 L 408 38 L 412 28 L 415 24 L 423 17 L 435 13 L 443 13 L 444 14 Z M 457 7 L 451 5 L 448 5 L 447 4 L 431 4 L 430 5 L 426 5 L 414 11 L 401 25 L 391 24 L 390 23 L 384 23 L 383 22 L 371 22 L 369 20 L 368 17 L 363 13 L 356 13 L 348 17 L 344 21 L 336 17 L 325 16 L 322 17 L 319 20 L 318 22 L 318 27 L 316 29 L 311 29 L 310 30 L 304 31 L 300 34 L 291 38 L 286 42 L 283 42 L 274 35 L 272 35 L 266 32 L 262 32 L 261 31 L 254 31 L 253 32 L 245 33 L 231 40 L 223 48 L 217 58 L 215 64 L 215 67 L 214 68 L 214 80 L 215 81 L 216 87 L 221 96 L 234 108 L 234 110 L 228 121 L 228 125 L 227 126 L 228 133 L 220 141 L 218 146 L 218 152 L 223 158 L 223 161 L 220 167 L 220 173 L 222 177 L 225 180 L 225 192 L 226 195 L 233 203 L 233 209 L 235 213 L 233 216 L 232 216 L 225 208 L 220 205 L 212 206 L 201 191 L 195 188 L 191 189 L 169 165 L 170 159 L 171 158 L 171 138 L 170 137 L 169 131 L 165 124 L 159 118 L 155 116 L 145 116 L 141 119 L 138 119 L 136 117 L 132 109 L 125 103 L 118 100 L 110 100 L 106 102 L 98 112 L 88 107 L 79 107 L 75 109 L 71 113 L 67 120 L 66 131 L 64 133 L 57 134 L 50 142 L 49 148 L 48 149 L 48 154 L 51 162 L 51 165 L 45 173 L 44 176 L 44 183 L 45 184 L 46 191 L 55 205 L 73 220 L 81 225 L 87 231 L 90 236 L 93 246 L 106 266 L 124 285 L 128 287 L 136 294 L 136 298 L 138 303 L 144 309 L 159 316 L 162 319 L 163 323 L 167 327 L 172 329 L 185 331 L 192 339 L 197 341 L 204 341 L 212 348 L 217 350 L 221 350 L 224 353 L 218 366 L 218 378 L 212 386 L 209 393 L 209 398 L 212 402 L 212 404 L 207 413 L 205 419 L 205 424 L 204 425 L 205 431 L 209 436 L 207 442 L 207 445 L 206 446 L 206 460 L 210 467 L 210 476 L 211 477 L 212 483 L 215 488 L 220 493 L 215 509 L 212 514 L 210 520 L 210 525 L 213 530 L 210 535 L 209 544 L 210 547 L 213 550 L 213 552 L 210 559 L 209 569 L 210 570 L 210 573 L 215 578 L 215 590 L 216 591 L 216 595 L 218 601 L 218 606 L 219 607 L 219 611 L 220 612 L 220 616 L 221 618 L 218 621 L 215 621 L 209 623 L 201 628 L 194 635 L 190 642 L 188 648 L 188 662 L 191 669 L 196 674 L 206 679 L 210 679 L 211 680 L 219 681 L 220 682 L 225 682 L 226 683 L 234 683 L 235 684 L 275 684 L 276 683 L 293 682 L 294 681 L 299 681 L 300 680 L 305 680 L 310 678 L 314 678 L 315 677 L 321 676 L 330 671 L 335 665 L 337 659 L 337 655 L 338 654 L 338 643 L 337 642 L 337 639 L 341 634 L 342 628 L 343 627 L 343 606 L 347 602 L 348 599 L 348 590 L 350 584 L 350 577 L 352 575 L 355 576 L 367 576 L 370 579 L 370 582 L 371 583 L 371 586 L 372 587 L 372 590 L 375 599 L 378 605 L 381 608 L 381 615 L 382 616 L 383 628 L 386 636 L 390 641 L 390 648 L 388 654 L 388 669 L 390 672 L 391 676 L 399 684 L 407 688 L 410 688 L 418 691 L 427 692 L 428 693 L 438 693 L 439 694 L 475 694 L 476 693 L 487 693 L 488 692 L 499 691 L 500 690 L 503 690 L 504 689 L 507 689 L 513 687 L 520 683 L 525 678 L 528 673 L 529 667 L 530 666 L 530 660 L 529 659 L 529 655 L 527 649 L 522 641 L 512 632 L 513 624 L 514 623 L 514 614 L 515 613 L 515 583 L 519 579 L 520 576 L 519 566 L 515 557 L 515 554 L 518 550 L 518 542 L 514 533 L 514 529 L 516 527 L 516 517 L 515 515 L 517 513 L 521 515 L 529 515 L 532 514 L 538 517 L 546 517 L 564 511 L 576 504 L 585 494 L 592 480 L 592 477 L 595 468 L 595 447 L 594 444 L 596 441 L 597 435 L 596 434 L 595 424 L 591 414 L 591 410 L 593 406 L 593 402 L 589 392 L 584 385 L 584 383 L 586 380 L 586 377 L 580 365 L 574 358 L 577 354 L 577 348 L 575 344 L 571 339 L 557 326 L 557 324 L 559 322 L 559 317 L 552 308 L 539 297 L 540 294 L 540 290 L 539 288 L 535 284 L 532 283 L 527 279 L 527 274 L 526 272 L 512 261 L 513 259 L 513 255 L 511 252 L 503 246 L 492 241 L 489 238 L 489 234 L 488 232 L 480 223 L 487 207 L 491 203 L 494 198 L 494 195 L 495 194 L 495 186 L 501 179 L 502 168 L 500 164 L 500 160 L 503 157 L 504 154 L 504 148 L 500 139 L 497 135 L 501 130 L 501 123 L 499 119 L 489 111 L 489 105 L 486 101 L 479 87 L 472 77 L 480 67 L 484 58 L 484 55 L 485 54 L 485 40 L 484 39 L 484 36 L 481 30 L 481 28 L 477 22 L 469 14 Z M 456 7 L 467 13 L 477 23 L 483 34 L 484 41 L 485 42 L 485 53 L 480 66 L 472 75 L 472 78 L 487 102 L 489 107 L 489 112 L 494 115 L 499 120 L 501 124 L 501 129 L 498 132 L 497 136 L 501 141 L 504 150 L 503 156 L 499 160 L 501 166 L 501 170 L 502 171 L 501 178 L 495 185 L 493 199 L 486 207 L 485 212 L 480 220 L 480 224 L 487 232 L 488 234 L 488 239 L 502 246 L 511 253 L 513 256 L 512 262 L 521 268 L 526 273 L 527 275 L 527 280 L 534 284 L 539 289 L 540 293 L 538 296 L 538 298 L 543 301 L 556 313 L 559 318 L 559 320 L 557 323 L 557 326 L 575 345 L 577 349 L 577 353 L 574 356 L 574 359 L 582 369 L 585 376 L 584 386 L 588 391 L 592 400 L 592 408 L 590 410 L 590 413 L 592 416 L 594 422 L 594 425 L 595 426 L 595 429 L 596 430 L 596 440 L 594 442 L 594 448 L 595 449 L 595 465 L 594 466 L 594 471 L 593 472 L 593 475 L 590 484 L 582 497 L 575 504 L 567 509 L 565 509 L 558 513 L 549 516 L 536 516 L 533 514 L 523 515 L 516 512 L 514 513 L 515 519 L 516 520 L 516 525 L 513 530 L 513 532 L 516 537 L 517 543 L 518 544 L 518 548 L 517 551 L 514 554 L 514 557 L 518 564 L 518 567 L 519 568 L 519 578 L 514 582 L 514 588 L 515 589 L 515 606 L 514 607 L 514 619 L 513 620 L 513 625 L 512 626 L 511 633 L 516 636 L 522 642 L 527 650 L 529 656 L 529 669 L 526 676 L 519 683 L 512 687 L 509 687 L 497 691 L 482 692 L 481 693 L 463 693 L 462 694 L 434 693 L 433 692 L 426 692 L 425 691 L 420 691 L 419 690 L 412 689 L 400 684 L 393 678 L 390 673 L 388 667 L 388 656 L 389 655 L 391 642 L 387 637 L 384 630 L 383 622 L 382 621 L 382 611 L 381 610 L 381 607 L 378 604 L 375 598 L 374 592 L 371 584 L 371 581 L 370 580 L 370 577 L 368 575 L 351 575 L 350 576 L 350 583 L 348 589 L 348 598 L 346 603 L 342 608 L 343 621 L 342 622 L 342 630 L 341 633 L 337 638 L 337 658 L 333 667 L 329 671 L 320 676 L 317 676 L 309 679 L 304 679 L 303 680 L 298 680 L 297 681 L 291 681 L 290 682 L 282 682 L 281 683 L 266 683 L 265 684 L 229 683 L 228 682 L 216 681 L 215 680 L 212 680 L 211 679 L 208 679 L 198 675 L 191 668 L 188 661 L 188 650 L 191 641 L 193 639 L 194 636 L 202 628 L 208 624 L 217 621 L 220 621 L 221 620 L 221 614 L 219 609 L 219 605 L 217 599 L 217 594 L 215 588 L 215 577 L 210 572 L 209 569 L 209 564 L 213 553 L 213 549 L 210 546 L 209 543 L 210 536 L 213 531 L 213 528 L 211 526 L 210 522 L 211 521 L 212 515 L 215 510 L 218 499 L 220 496 L 220 492 L 215 487 L 212 482 L 211 476 L 210 475 L 210 466 L 206 459 L 206 447 L 207 446 L 207 442 L 209 438 L 209 435 L 205 430 L 205 419 L 213 403 L 209 397 L 209 394 L 211 388 L 219 377 L 218 374 L 218 367 L 225 352 L 222 350 L 219 350 L 213 348 L 205 341 L 198 341 L 193 339 L 186 331 L 179 330 L 178 329 L 173 329 L 168 327 L 164 323 L 161 316 L 145 309 L 138 302 L 136 297 L 136 293 L 129 287 L 125 285 L 110 270 L 94 247 L 88 231 L 82 225 L 74 220 L 69 215 L 57 206 L 54 203 L 46 190 L 44 178 L 46 172 L 52 165 L 48 153 L 49 145 L 52 139 L 56 135 L 60 133 L 65 133 L 67 129 L 67 121 L 70 115 L 77 108 L 80 107 L 87 107 L 99 113 L 102 107 L 108 101 L 111 100 L 118 100 L 126 104 L 133 111 L 135 114 L 136 118 L 138 120 L 146 116 L 154 116 L 158 118 L 165 125 L 168 130 L 170 136 L 171 157 L 169 162 L 169 166 L 180 177 L 183 182 L 190 189 L 197 189 L 199 190 L 205 196 L 209 204 L 212 207 L 214 207 L 217 205 L 223 207 L 232 217 L 235 217 L 236 215 L 233 207 L 233 202 L 227 196 L 225 190 L 226 180 L 221 175 L 221 165 L 224 160 L 224 158 L 218 151 L 218 147 L 220 142 L 229 132 L 228 130 L 228 123 L 230 117 L 232 115 L 235 108 L 229 104 L 220 94 L 216 86 L 215 79 L 214 78 L 214 70 L 215 69 L 215 65 L 217 59 L 223 49 L 231 41 L 239 36 L 241 36 L 247 33 L 251 33 L 252 32 L 264 32 L 276 37 L 283 43 L 285 43 L 294 37 L 306 31 L 318 29 L 319 28 L 318 26 L 319 21 L 323 17 L 329 16 L 330 17 L 337 18 L 342 21 L 345 21 L 349 17 L 357 13 L 362 13 L 364 14 L 368 18 L 369 21 L 371 23 L 379 22 L 380 23 L 387 23 L 388 24 L 394 24 L 395 25 L 402 26 L 411 14 L 422 7 L 428 5 L 433 5 L 434 4 L 444 4 L 445 5 L 449 5 L 450 6 Z" fill="#B1B1B1" fill-rule="evenodd"/><path d="M 463 635 L 463 636 L 472 636 L 472 635 Z M 274 143 L 274 145 L 273 146 L 273 159 L 276 165 L 280 169 L 289 174 L 291 174 L 294 177 L 294 182 L 295 183 L 295 186 L 297 189 L 297 191 L 300 197 L 310 210 L 310 211 L 323 224 L 328 227 L 330 226 L 330 225 L 323 218 L 320 213 L 320 206 L 323 200 L 332 190 L 342 184 L 348 183 L 349 182 L 356 182 L 357 183 L 360 183 L 364 185 L 371 192 L 371 200 L 370 201 L 369 206 L 363 217 L 364 218 L 367 215 L 372 206 L 372 204 L 375 197 L 375 193 L 376 192 L 376 189 L 377 188 L 377 183 L 378 182 L 378 160 L 377 159 L 377 155 L 376 154 L 376 152 L 373 148 L 372 148 L 370 150 L 368 154 L 360 161 L 352 165 L 350 165 L 343 168 L 339 168 L 338 169 L 330 169 L 329 168 L 318 167 L 317 166 L 314 166 L 313 165 L 307 165 L 305 167 L 298 171 L 292 171 L 285 168 L 278 160 L 278 158 L 277 157 L 277 147 L 278 146 L 278 141 L 276 141 Z M 331 130 L 324 125 L 318 124 L 317 123 L 314 123 L 313 122 L 301 123 L 300 124 L 297 124 L 294 126 L 292 126 L 288 128 L 284 132 L 284 140 L 286 144 L 293 151 L 300 154 L 310 154 L 322 149 L 329 143 L 332 138 L 332 132 Z M 291 101 L 287 101 L 284 104 L 282 108 L 282 111 L 281 112 L 281 120 L 284 124 L 288 123 L 294 116 L 295 108 L 294 107 L 294 104 Z M 372 94 L 367 100 L 367 103 L 366 104 L 366 111 L 367 112 L 367 115 L 369 117 L 369 118 L 371 120 L 374 120 L 376 121 L 378 120 L 382 115 L 382 112 L 383 111 L 383 105 L 382 104 L 382 101 L 380 97 L 376 94 Z M 300 64 L 297 62 L 294 62 L 290 64 L 285 68 L 282 73 L 282 75 L 283 76 L 286 75 L 293 69 L 299 67 L 300 66 Z M 366 54 L 366 55 L 368 57 L 374 58 L 382 62 L 384 64 L 385 64 L 387 62 L 387 59 L 383 55 L 377 52 L 371 51 L 370 52 L 368 52 Z M 456 8 L 450 7 L 449 6 L 445 6 L 444 5 L 434 5 L 433 6 L 428 6 L 427 7 L 422 8 L 411 15 L 406 21 L 405 24 L 402 27 L 400 27 L 399 26 L 395 26 L 394 25 L 388 25 L 387 24 L 380 24 L 379 23 L 374 23 L 373 24 L 371 24 L 364 15 L 362 14 L 357 14 L 356 15 L 352 16 L 345 22 L 342 22 L 337 19 L 335 19 L 334 18 L 330 18 L 329 17 L 323 18 L 320 21 L 320 23 L 319 24 L 320 28 L 318 30 L 306 32 L 294 38 L 292 40 L 289 41 L 285 44 L 283 44 L 276 38 L 264 33 L 252 33 L 251 34 L 247 34 L 241 37 L 239 37 L 237 39 L 231 42 L 224 49 L 218 59 L 218 61 L 216 65 L 216 69 L 215 70 L 215 78 L 216 79 L 216 83 L 217 84 L 217 86 L 221 94 L 229 103 L 233 105 L 236 108 L 233 115 L 231 117 L 231 119 L 229 123 L 229 130 L 230 132 L 229 134 L 221 142 L 220 146 L 219 147 L 219 151 L 220 153 L 225 158 L 225 160 L 222 165 L 222 175 L 227 180 L 227 183 L 226 184 L 226 190 L 227 191 L 227 194 L 228 196 L 234 202 L 234 207 L 235 208 L 235 211 L 237 216 L 235 218 L 232 218 L 230 216 L 230 215 L 223 208 L 217 206 L 214 208 L 212 208 L 208 204 L 204 196 L 199 191 L 197 190 L 190 190 L 182 182 L 179 177 L 168 166 L 168 162 L 169 161 L 169 158 L 170 157 L 170 144 L 169 143 L 169 136 L 168 135 L 167 130 L 164 125 L 158 119 L 154 117 L 146 117 L 138 121 L 135 118 L 134 114 L 132 112 L 132 111 L 126 105 L 118 101 L 111 101 L 110 102 L 108 102 L 103 107 L 101 112 L 99 114 L 87 108 L 80 108 L 79 109 L 77 109 L 71 115 L 68 121 L 68 129 L 67 130 L 67 132 L 65 134 L 60 134 L 56 136 L 53 139 L 50 145 L 49 153 L 50 154 L 50 157 L 53 163 L 53 165 L 47 172 L 46 174 L 46 177 L 45 178 L 47 190 L 49 194 L 57 205 L 58 205 L 64 211 L 69 214 L 74 219 L 82 224 L 89 231 L 95 247 L 101 255 L 104 261 L 111 269 L 111 270 L 125 284 L 129 286 L 137 293 L 137 297 L 138 298 L 139 302 L 145 308 L 155 313 L 157 313 L 161 315 L 163 317 L 163 319 L 165 323 L 168 326 L 172 327 L 173 328 L 178 328 L 179 329 L 183 329 L 184 330 L 186 330 L 193 338 L 197 339 L 198 340 L 205 340 L 207 341 L 213 347 L 215 348 L 218 348 L 219 349 L 222 349 L 226 352 L 219 367 L 219 374 L 220 375 L 220 377 L 212 388 L 212 390 L 210 394 L 210 397 L 214 402 L 214 403 L 206 419 L 206 430 L 210 435 L 210 438 L 209 439 L 209 441 L 208 442 L 208 446 L 207 447 L 207 459 L 208 460 L 208 462 L 211 466 L 211 475 L 212 476 L 213 482 L 216 487 L 221 492 L 221 496 L 219 499 L 216 510 L 213 515 L 212 521 L 211 522 L 211 524 L 214 528 L 214 531 L 211 536 L 210 543 L 211 544 L 211 546 L 214 549 L 214 553 L 211 560 L 211 563 L 210 564 L 210 569 L 211 570 L 211 572 L 216 577 L 216 588 L 217 589 L 217 593 L 218 594 L 218 599 L 219 600 L 220 609 L 221 610 L 221 613 L 222 614 L 222 620 L 220 622 L 217 622 L 216 623 L 208 625 L 206 627 L 202 629 L 195 636 L 190 646 L 190 649 L 189 650 L 189 661 L 190 662 L 190 664 L 192 668 L 198 674 L 202 676 L 204 676 L 208 678 L 211 678 L 212 679 L 215 679 L 216 680 L 228 681 L 229 682 L 242 682 L 243 683 L 265 683 L 266 682 L 281 682 L 282 681 L 290 681 L 291 680 L 297 680 L 298 679 L 309 678 L 310 677 L 313 677 L 317 675 L 320 675 L 329 670 L 332 667 L 336 658 L 336 638 L 340 633 L 340 631 L 341 630 L 341 622 L 342 621 L 342 613 L 341 612 L 341 608 L 345 603 L 346 599 L 347 598 L 347 589 L 348 588 L 348 584 L 349 583 L 349 576 L 351 574 L 368 574 L 371 577 L 371 580 L 372 581 L 372 584 L 373 585 L 373 588 L 375 592 L 376 598 L 379 604 L 382 607 L 382 610 L 383 611 L 383 621 L 384 622 L 385 630 L 388 637 L 392 642 L 391 650 L 390 651 L 390 655 L 389 656 L 389 667 L 390 668 L 391 673 L 394 678 L 400 683 L 412 688 L 415 688 L 416 689 L 419 689 L 420 690 L 425 690 L 426 691 L 433 691 L 434 692 L 451 692 L 452 693 L 462 693 L 463 692 L 481 692 L 482 691 L 497 690 L 498 689 L 505 688 L 509 686 L 512 686 L 519 682 L 525 676 L 527 672 L 527 670 L 528 669 L 528 656 L 527 655 L 526 650 L 521 642 L 516 637 L 515 637 L 510 633 L 510 631 L 511 630 L 511 626 L 512 625 L 512 620 L 513 619 L 513 607 L 514 606 L 514 589 L 513 588 L 513 582 L 518 578 L 518 568 L 517 567 L 517 564 L 513 557 L 513 554 L 516 551 L 516 549 L 517 548 L 516 540 L 512 532 L 512 530 L 515 525 L 515 520 L 514 519 L 513 513 L 515 511 L 523 514 L 533 513 L 536 515 L 549 515 L 550 514 L 553 514 L 556 512 L 558 512 L 565 508 L 567 508 L 569 506 L 575 503 L 581 497 L 581 496 L 586 490 L 589 484 L 589 482 L 592 475 L 592 472 L 593 471 L 593 466 L 594 465 L 594 449 L 593 448 L 593 442 L 595 440 L 595 430 L 594 429 L 594 426 L 593 425 L 593 422 L 592 421 L 591 416 L 589 413 L 589 410 L 591 408 L 591 400 L 589 397 L 589 395 L 587 391 L 583 386 L 584 376 L 581 369 L 579 367 L 577 363 L 573 359 L 573 356 L 576 353 L 576 349 L 574 345 L 572 343 L 572 342 L 556 326 L 556 323 L 558 320 L 558 318 L 555 313 L 549 307 L 548 307 L 543 302 L 542 302 L 537 298 L 537 296 L 539 293 L 538 289 L 534 285 L 528 282 L 526 280 L 526 275 L 525 273 L 521 269 L 520 269 L 517 266 L 514 265 L 511 262 L 512 256 L 510 254 L 510 253 L 502 247 L 489 241 L 487 239 L 487 234 L 486 232 L 480 226 L 479 224 L 479 220 L 481 218 L 484 212 L 485 207 L 492 199 L 492 197 L 493 196 L 493 188 L 494 187 L 494 185 L 500 178 L 500 174 L 501 173 L 501 171 L 500 170 L 500 166 L 499 165 L 498 160 L 502 156 L 503 150 L 502 149 L 501 143 L 496 136 L 497 132 L 500 129 L 500 124 L 498 120 L 494 116 L 493 116 L 488 112 L 488 107 L 487 106 L 487 104 L 484 100 L 482 95 L 480 93 L 478 88 L 471 78 L 471 75 L 479 66 L 482 60 L 482 57 L 484 53 L 484 42 L 483 41 L 483 37 L 480 31 L 480 29 L 478 27 L 476 23 L 467 14 Z M 452 14 L 462 20 L 468 26 L 468 27 L 471 30 L 475 38 L 475 41 L 476 42 L 476 52 L 475 53 L 475 56 L 471 64 L 463 72 L 462 72 L 460 74 L 460 75 L 467 84 L 469 89 L 471 91 L 475 99 L 481 107 L 481 110 L 477 112 L 482 116 L 485 117 L 493 124 L 493 127 L 491 129 L 481 129 L 481 130 L 489 138 L 489 139 L 492 142 L 495 147 L 495 151 L 493 153 L 485 152 L 492 165 L 494 173 L 491 177 L 490 177 L 487 174 L 485 174 L 485 177 L 486 178 L 486 194 L 483 197 L 482 197 L 480 195 L 478 196 L 478 204 L 475 210 L 475 212 L 473 214 L 470 220 L 466 224 L 465 228 L 469 228 L 472 231 L 470 233 L 470 234 L 471 235 L 474 235 L 478 238 L 475 241 L 476 243 L 480 245 L 482 245 L 491 250 L 493 250 L 497 252 L 500 255 L 500 257 L 499 258 L 493 258 L 493 259 L 499 262 L 520 277 L 520 279 L 518 281 L 512 281 L 512 282 L 513 282 L 518 286 L 522 287 L 528 290 L 531 293 L 531 294 L 528 297 L 524 297 L 524 298 L 529 301 L 532 304 L 536 306 L 539 309 L 540 309 L 549 317 L 549 319 L 547 321 L 541 321 L 540 320 L 539 321 L 567 347 L 567 350 L 566 351 L 560 350 L 559 349 L 557 350 L 561 354 L 561 355 L 564 358 L 566 362 L 576 375 L 576 376 L 574 378 L 571 378 L 570 377 L 569 378 L 576 388 L 583 401 L 583 402 L 581 404 L 578 404 L 578 405 L 580 408 L 580 410 L 582 414 L 582 418 L 583 419 L 583 421 L 584 422 L 584 424 L 587 431 L 587 436 L 586 437 L 583 437 L 583 439 L 584 440 L 584 444 L 585 445 L 585 463 L 584 464 L 584 469 L 583 470 L 582 477 L 576 490 L 568 498 L 566 499 L 564 497 L 564 494 L 565 493 L 565 490 L 566 489 L 566 485 L 564 484 L 563 485 L 561 493 L 558 499 L 553 504 L 546 507 L 540 507 L 537 504 L 537 502 L 539 500 L 541 493 L 542 492 L 542 486 L 541 485 L 539 487 L 536 493 L 536 495 L 534 497 L 534 498 L 528 504 L 526 504 L 525 505 L 521 505 L 514 502 L 509 497 L 508 493 L 512 488 L 512 486 L 515 480 L 515 477 L 516 476 L 515 471 L 514 470 L 512 472 L 509 478 L 509 480 L 507 482 L 507 483 L 503 486 L 499 486 L 495 484 L 491 480 L 488 474 L 488 470 L 487 469 L 487 462 L 488 461 L 488 456 L 489 455 L 491 447 L 493 444 L 493 437 L 492 436 L 492 432 L 491 431 L 490 422 L 489 421 L 489 418 L 488 417 L 488 413 L 487 412 L 487 409 L 485 405 L 484 398 L 483 397 L 480 386 L 476 378 L 476 376 L 463 352 L 457 345 L 456 346 L 457 352 L 461 360 L 464 364 L 464 366 L 467 371 L 467 373 L 470 378 L 470 380 L 472 383 L 472 385 L 474 388 L 474 390 L 476 394 L 476 397 L 477 398 L 477 401 L 478 402 L 478 405 L 479 406 L 479 409 L 480 410 L 480 413 L 481 414 L 481 417 L 482 418 L 482 422 L 483 423 L 483 427 L 484 428 L 485 437 L 486 438 L 486 442 L 485 443 L 484 448 L 482 451 L 481 459 L 480 460 L 480 472 L 481 473 L 481 476 L 487 488 L 493 493 L 495 494 L 498 494 L 502 497 L 502 500 L 503 501 L 504 507 L 505 508 L 505 513 L 506 514 L 506 517 L 507 518 L 507 521 L 505 523 L 502 523 L 502 526 L 504 529 L 504 531 L 508 539 L 509 545 L 507 547 L 506 547 L 504 545 L 500 543 L 499 544 L 505 554 L 507 561 L 510 566 L 511 571 L 509 573 L 504 570 L 503 571 L 507 579 L 507 581 L 504 584 L 505 586 L 505 591 L 506 592 L 506 600 L 505 601 L 505 615 L 504 616 L 504 622 L 503 623 L 502 632 L 499 635 L 499 637 L 507 641 L 516 650 L 519 657 L 519 669 L 518 670 L 518 672 L 514 677 L 513 677 L 511 679 L 507 680 L 505 678 L 505 669 L 504 668 L 504 665 L 502 661 L 500 659 L 498 659 L 497 660 L 498 671 L 499 672 L 498 679 L 495 682 L 493 682 L 492 683 L 488 683 L 487 684 L 480 684 L 478 682 L 478 677 L 479 676 L 479 673 L 478 672 L 478 667 L 477 666 L 477 664 L 473 661 L 472 661 L 470 663 L 471 665 L 471 672 L 472 673 L 472 682 L 469 685 L 448 685 L 446 683 L 446 667 L 445 666 L 445 664 L 443 662 L 442 662 L 439 666 L 439 676 L 440 677 L 440 683 L 438 685 L 435 685 L 434 684 L 426 684 L 425 683 L 420 683 L 419 682 L 416 682 L 415 681 L 410 680 L 404 677 L 399 672 L 398 668 L 397 667 L 397 654 L 398 653 L 398 650 L 399 649 L 399 633 L 398 632 L 396 634 L 394 634 L 393 633 L 393 631 L 392 630 L 392 614 L 390 614 L 388 612 L 388 597 L 386 598 L 383 595 L 381 584 L 380 583 L 379 578 L 376 574 L 376 572 L 378 570 L 382 569 L 384 567 L 384 565 L 383 564 L 378 564 L 377 565 L 372 565 L 371 566 L 366 566 L 365 567 L 356 567 L 355 566 L 348 566 L 347 565 L 341 565 L 340 564 L 331 563 L 330 562 L 327 562 L 326 561 L 320 560 L 319 559 L 316 559 L 315 558 L 312 558 L 311 559 L 311 560 L 314 563 L 320 566 L 325 567 L 328 569 L 331 569 L 335 571 L 339 571 L 341 573 L 340 582 L 338 586 L 338 598 L 336 600 L 335 600 L 333 598 L 332 599 L 332 604 L 333 605 L 333 630 L 331 632 L 329 632 L 328 631 L 326 632 L 327 634 L 327 640 L 328 641 L 328 655 L 327 656 L 326 661 L 324 663 L 324 664 L 321 667 L 317 669 L 311 670 L 310 671 L 306 671 L 305 672 L 300 672 L 299 673 L 293 673 L 292 674 L 283 674 L 282 675 L 276 675 L 275 676 L 241 676 L 239 674 L 239 672 L 238 671 L 238 668 L 239 667 L 239 661 L 241 657 L 241 654 L 240 653 L 238 653 L 235 656 L 234 660 L 233 661 L 233 664 L 232 665 L 233 673 L 231 675 L 229 674 L 222 674 L 221 673 L 218 673 L 214 670 L 214 660 L 215 659 L 215 656 L 217 652 L 217 650 L 216 649 L 214 649 L 211 652 L 209 656 L 209 661 L 208 662 L 209 668 L 207 670 L 205 670 L 199 665 L 199 663 L 198 662 L 198 658 L 197 657 L 198 656 L 198 650 L 199 649 L 199 646 L 202 640 L 208 634 L 213 631 L 219 630 L 220 629 L 223 629 L 224 628 L 232 628 L 235 626 L 231 618 L 231 615 L 230 614 L 230 611 L 229 610 L 228 599 L 226 596 L 226 587 L 222 584 L 222 582 L 223 581 L 223 577 L 224 576 L 224 573 L 225 571 L 223 570 L 221 572 L 220 572 L 218 570 L 218 564 L 219 563 L 219 560 L 220 559 L 220 557 L 222 553 L 222 550 L 225 543 L 224 542 L 221 544 L 219 544 L 217 542 L 218 538 L 221 533 L 221 531 L 224 526 L 224 524 L 220 524 L 218 522 L 218 521 L 225 508 L 225 505 L 226 503 L 228 501 L 229 501 L 231 503 L 232 502 L 232 499 L 227 489 L 225 478 L 221 480 L 219 478 L 219 476 L 218 475 L 218 469 L 219 468 L 219 459 L 220 458 L 220 455 L 219 455 L 216 458 L 214 456 L 214 446 L 215 445 L 215 442 L 216 441 L 216 438 L 217 437 L 219 429 L 221 426 L 219 425 L 216 427 L 214 427 L 212 425 L 212 423 L 217 411 L 219 409 L 222 402 L 226 397 L 226 395 L 219 396 L 217 394 L 217 392 L 221 387 L 221 386 L 233 372 L 232 371 L 227 371 L 225 369 L 225 367 L 235 353 L 236 345 L 237 344 L 237 342 L 238 341 L 238 339 L 239 338 L 243 324 L 242 323 L 239 323 L 237 325 L 231 337 L 231 339 L 227 343 L 221 343 L 217 340 L 218 338 L 217 336 L 215 336 L 214 335 L 205 335 L 204 334 L 200 334 L 197 331 L 197 330 L 199 328 L 199 326 L 198 325 L 195 325 L 194 324 L 191 324 L 190 323 L 181 323 L 180 322 L 175 321 L 172 318 L 172 316 L 174 314 L 176 314 L 177 313 L 175 311 L 173 310 L 170 310 L 169 309 L 161 308 L 158 306 L 156 306 L 150 303 L 146 299 L 146 297 L 148 295 L 150 295 L 152 293 L 149 290 L 142 287 L 135 281 L 131 279 L 119 268 L 119 267 L 112 259 L 112 258 L 108 253 L 107 250 L 105 248 L 104 245 L 102 243 L 102 241 L 94 226 L 90 222 L 83 218 L 78 213 L 77 213 L 63 199 L 62 199 L 56 192 L 56 190 L 54 187 L 54 182 L 53 181 L 53 178 L 57 173 L 61 172 L 62 171 L 65 171 L 66 170 L 65 167 L 63 165 L 57 155 L 57 153 L 56 152 L 57 146 L 62 141 L 64 140 L 68 140 L 82 148 L 81 144 L 75 133 L 75 131 L 74 130 L 74 126 L 75 125 L 75 122 L 76 120 L 79 117 L 83 115 L 86 115 L 92 118 L 96 122 L 97 122 L 103 129 L 105 134 L 108 138 L 109 137 L 109 132 L 108 131 L 108 128 L 107 127 L 107 116 L 109 112 L 111 110 L 113 109 L 119 109 L 121 111 L 122 111 L 129 119 L 131 123 L 133 131 L 136 135 L 138 134 L 140 130 L 146 124 L 151 124 L 153 125 L 160 132 L 162 136 L 162 140 L 163 141 L 163 153 L 162 154 L 162 160 L 160 164 L 160 169 L 172 181 L 172 182 L 181 191 L 181 192 L 188 200 L 191 201 L 194 198 L 196 198 L 203 206 L 213 222 L 215 221 L 215 216 L 217 214 L 219 214 L 223 217 L 228 227 L 231 231 L 233 230 L 234 226 L 236 224 L 238 224 L 242 228 L 242 229 L 248 237 L 249 237 L 249 234 L 251 232 L 252 232 L 262 240 L 266 239 L 272 246 L 274 246 L 275 245 L 275 242 L 267 232 L 265 228 L 263 227 L 261 229 L 260 229 L 255 223 L 253 215 L 251 215 L 249 217 L 248 217 L 244 213 L 242 209 L 242 206 L 241 205 L 241 194 L 240 193 L 238 195 L 236 195 L 233 192 L 233 190 L 232 189 L 232 187 L 233 186 L 233 182 L 234 181 L 234 177 L 235 176 L 235 172 L 233 173 L 230 173 L 228 171 L 228 165 L 235 152 L 234 151 L 232 152 L 227 152 L 225 150 L 225 148 L 227 144 L 237 134 L 237 129 L 236 128 L 236 125 L 237 124 L 238 119 L 241 114 L 241 112 L 244 107 L 245 103 L 243 101 L 239 100 L 233 95 L 232 95 L 228 90 L 225 84 L 225 81 L 224 80 L 224 68 L 225 67 L 225 63 L 229 55 L 238 46 L 245 42 L 247 42 L 251 40 L 263 40 L 264 41 L 266 41 L 273 45 L 281 54 L 283 54 L 292 47 L 300 43 L 304 42 L 308 37 L 310 37 L 311 36 L 326 36 L 327 35 L 327 32 L 325 30 L 324 26 L 327 23 L 335 25 L 341 28 L 343 30 L 346 30 L 354 22 L 355 22 L 357 20 L 361 20 L 363 22 L 362 27 L 360 30 L 361 31 L 363 31 L 364 30 L 384 30 L 385 31 L 388 31 L 389 32 L 394 32 L 395 33 L 398 33 L 399 34 L 407 36 L 408 35 L 409 30 L 414 24 L 414 23 L 418 19 L 426 14 L 428 14 L 432 12 L 446 12 L 447 13 Z" fill="#010101" fill-rule="evenodd"/></svg>