<svg xmlns="http://www.w3.org/2000/svg" viewBox="0 0 653 704" shape-rendering="geometricPrecision"><title>intro frame 040</title><path d="M 250 557 L 247 566 L 247 575 L 249 578 L 249 585 L 250 587 L 255 590 L 258 594 L 262 597 L 263 600 L 264 600 L 265 597 L 265 591 L 269 589 L 268 579 L 270 576 L 267 574 L 265 570 L 265 565 L 262 562 L 254 557 Z M 377 320 L 376 319 L 371 323 L 369 326 L 374 326 L 375 327 L 376 326 L 376 321 Z M 65 217 L 61 220 L 61 226 L 62 226 Z M 88 197 L 91 202 L 94 202 L 95 203 L 93 205 L 93 208 L 91 213 L 86 218 L 83 219 L 85 223 L 85 228 L 87 227 L 89 221 L 92 216 L 92 214 L 97 207 L 97 203 L 98 201 L 94 202 L 90 200 Z M 70 187 L 70 189 L 78 191 L 78 190 L 74 189 L 72 187 Z M 111 185 L 110 186 L 111 189 L 110 192 L 108 194 L 108 196 L 114 195 L 115 194 L 125 194 L 133 197 L 142 205 L 145 209 L 145 211 L 147 214 L 147 219 L 148 220 L 145 229 L 135 238 L 132 239 L 117 249 L 115 249 L 113 251 L 110 252 L 99 252 L 94 249 L 88 243 L 86 238 L 86 233 L 85 233 L 85 235 L 80 239 L 73 238 L 72 237 L 70 237 L 70 239 L 75 244 L 79 246 L 86 253 L 94 258 L 101 265 L 101 267 L 112 279 L 114 283 L 144 312 L 151 316 L 163 325 L 169 328 L 171 328 L 177 332 L 180 332 L 183 334 L 186 334 L 191 336 L 194 339 L 193 344 L 195 345 L 203 345 L 207 350 L 211 350 L 212 351 L 228 351 L 230 354 L 224 362 L 226 365 L 232 365 L 233 366 L 235 365 L 237 366 L 241 365 L 243 363 L 244 359 L 249 352 L 250 343 L 253 337 L 253 332 L 255 328 L 258 325 L 258 320 L 260 317 L 262 310 L 265 306 L 265 303 L 263 301 L 263 299 L 256 292 L 254 292 L 251 295 L 247 295 L 245 293 L 245 291 L 243 289 L 241 284 L 238 281 L 234 285 L 232 285 L 225 277 L 223 270 L 221 268 L 220 268 L 219 271 L 216 274 L 211 273 L 203 263 L 203 260 L 197 252 L 189 253 L 187 251 L 187 249 L 181 243 L 179 239 L 160 218 L 159 216 L 159 212 L 163 202 L 162 199 L 154 205 L 148 205 L 145 203 L 141 198 L 141 191 L 143 188 L 143 186 L 141 185 L 138 181 L 137 181 L 137 185 L 132 190 L 123 190 L 121 188 L 114 188 Z M 206 332 L 208 330 L 214 330 L 216 332 L 216 334 L 215 335 L 208 335 Z M 446 75 L 436 74 L 425 78 L 414 88 L 414 90 L 409 98 L 405 98 L 403 96 L 400 96 L 396 94 L 386 93 L 380 91 L 368 91 L 364 93 L 360 93 L 358 91 L 359 81 L 357 81 L 354 83 L 354 84 L 346 91 L 344 91 L 332 84 L 330 84 L 329 85 L 331 88 L 331 93 L 329 95 L 320 95 L 319 96 L 312 95 L 310 97 L 310 99 L 307 102 L 302 102 L 301 103 L 294 104 L 287 110 L 288 112 L 292 112 L 294 113 L 298 117 L 298 121 L 293 126 L 288 128 L 281 134 L 278 134 L 274 129 L 275 125 L 278 120 L 278 117 L 276 111 L 271 105 L 265 101 L 261 101 L 260 100 L 249 100 L 241 103 L 233 110 L 227 122 L 227 135 L 232 145 L 235 148 L 238 149 L 240 151 L 243 151 L 247 154 L 247 158 L 243 164 L 243 166 L 238 177 L 239 187 L 229 197 L 228 199 L 229 201 L 237 201 L 242 191 L 245 188 L 254 184 L 262 184 L 270 190 L 271 189 L 274 189 L 277 182 L 277 180 L 273 174 L 273 165 L 275 159 L 282 151 L 287 151 L 291 154 L 293 158 L 293 167 L 292 168 L 292 172 L 293 173 L 298 171 L 303 171 L 303 170 L 300 168 L 300 166 L 303 163 L 311 159 L 315 159 L 316 158 L 321 158 L 322 159 L 328 159 L 331 160 L 336 165 L 336 168 L 334 170 L 323 169 L 322 168 L 313 168 L 307 171 L 307 172 L 314 173 L 319 176 L 323 177 L 329 183 L 330 186 L 330 191 L 326 199 L 320 204 L 313 208 L 311 208 L 303 212 L 300 211 L 293 211 L 285 206 L 280 200 L 276 197 L 276 200 L 275 201 L 275 209 L 276 212 L 281 218 L 283 219 L 291 219 L 296 217 L 303 212 L 305 212 L 307 214 L 315 215 L 320 217 L 329 217 L 330 218 L 332 217 L 338 217 L 356 209 L 361 203 L 362 199 L 364 197 L 368 197 L 375 204 L 375 209 L 376 210 L 376 221 L 377 222 L 376 230 L 377 231 L 377 235 L 376 236 L 376 241 L 375 242 L 375 246 L 371 258 L 371 261 L 369 263 L 367 269 L 357 279 L 345 286 L 341 286 L 340 287 L 330 287 L 329 286 L 326 286 L 315 280 L 306 272 L 297 261 L 296 258 L 290 250 L 290 248 L 287 243 L 286 233 L 283 229 L 280 229 L 272 224 L 266 217 L 264 211 L 264 203 L 263 203 L 258 209 L 250 214 L 244 214 L 237 206 L 231 214 L 231 217 L 230 218 L 232 220 L 236 220 L 238 222 L 238 226 L 234 234 L 233 242 L 235 242 L 237 240 L 241 240 L 243 242 L 242 263 L 245 265 L 249 261 L 251 261 L 254 264 L 255 271 L 257 273 L 259 273 L 270 284 L 275 285 L 282 289 L 284 289 L 295 299 L 297 303 L 297 307 L 295 309 L 292 309 L 286 305 L 279 304 L 273 311 L 272 316 L 267 320 L 270 324 L 270 327 L 261 335 L 264 339 L 264 341 L 258 348 L 259 350 L 259 355 L 257 358 L 257 360 L 255 362 L 255 373 L 254 374 L 254 377 L 250 384 L 252 385 L 258 381 L 264 381 L 267 385 L 262 394 L 253 403 L 245 407 L 240 412 L 240 413 L 242 413 L 245 416 L 245 419 L 242 424 L 233 433 L 233 436 L 239 436 L 241 438 L 241 441 L 237 448 L 232 453 L 231 456 L 229 458 L 230 461 L 234 461 L 237 464 L 236 469 L 232 474 L 232 477 L 230 480 L 230 484 L 229 486 L 231 486 L 236 482 L 239 482 L 241 484 L 239 490 L 239 493 L 236 499 L 236 502 L 237 503 L 237 502 L 240 500 L 243 502 L 244 520 L 247 522 L 249 526 L 259 531 L 263 534 L 264 536 L 266 536 L 275 546 L 278 547 L 279 546 L 279 539 L 277 536 L 276 522 L 277 521 L 277 518 L 281 514 L 285 513 L 287 516 L 286 517 L 286 520 L 284 522 L 283 542 L 285 545 L 285 549 L 289 554 L 290 557 L 291 557 L 291 554 L 293 551 L 296 553 L 298 553 L 300 555 L 306 554 L 307 553 L 310 553 L 312 555 L 316 554 L 331 538 L 335 536 L 342 530 L 350 526 L 352 526 L 356 523 L 372 523 L 373 524 L 376 524 L 378 526 L 378 528 L 374 532 L 372 532 L 370 534 L 368 534 L 365 537 L 363 537 L 357 541 L 355 541 L 344 550 L 341 551 L 337 555 L 331 558 L 327 562 L 327 566 L 316 575 L 316 576 L 320 579 L 320 582 L 314 589 L 312 593 L 313 596 L 312 598 L 312 602 L 315 611 L 315 615 L 318 621 L 318 625 L 324 633 L 326 633 L 328 635 L 331 635 L 334 637 L 340 637 L 348 641 L 357 644 L 360 644 L 363 646 L 366 646 L 373 651 L 374 653 L 372 655 L 363 655 L 362 654 L 358 654 L 352 652 L 345 652 L 342 650 L 337 650 L 336 649 L 331 649 L 330 648 L 311 648 L 305 650 L 299 653 L 293 659 L 291 664 L 291 671 L 293 673 L 295 673 L 297 669 L 304 661 L 312 658 L 316 659 L 318 661 L 318 663 L 313 669 L 312 673 L 310 676 L 310 680 L 313 683 L 325 683 L 326 682 L 326 674 L 328 671 L 328 669 L 335 663 L 338 663 L 342 667 L 341 673 L 339 676 L 339 679 L 338 680 L 338 683 L 340 685 L 364 686 L 365 685 L 379 684 L 383 682 L 387 677 L 398 667 L 398 665 L 401 662 L 400 659 L 401 657 L 401 650 L 400 649 L 399 641 L 395 635 L 395 627 L 398 622 L 400 612 L 406 605 L 406 603 L 414 598 L 419 593 L 423 586 L 428 581 L 430 576 L 432 574 L 432 571 L 433 569 L 435 568 L 436 563 L 439 559 L 441 548 L 443 546 L 441 542 L 441 538 L 444 534 L 444 515 L 442 512 L 441 508 L 436 502 L 434 502 L 428 496 L 425 496 L 423 494 L 419 493 L 416 489 L 413 481 L 411 479 L 411 477 L 413 475 L 417 475 L 420 477 L 430 477 L 433 479 L 440 479 L 441 478 L 440 470 L 433 463 L 432 463 L 430 460 L 423 460 L 422 459 L 419 461 L 413 455 L 413 452 L 416 446 L 416 441 L 414 441 L 411 439 L 404 439 L 399 443 L 399 448 L 397 449 L 395 445 L 395 440 L 391 437 L 390 437 L 388 440 L 382 439 L 379 435 L 380 428 L 383 425 L 388 424 L 394 428 L 413 429 L 418 431 L 423 435 L 425 435 L 426 432 L 424 429 L 424 427 L 420 423 L 414 422 L 412 420 L 412 416 L 411 415 L 412 413 L 411 411 L 412 408 L 410 407 L 404 407 L 402 409 L 399 410 L 396 407 L 393 395 L 386 386 L 382 384 L 379 381 L 376 383 L 370 383 L 364 380 L 361 376 L 358 376 L 349 370 L 346 371 L 344 373 L 344 375 L 340 378 L 338 376 L 337 373 L 338 371 L 338 367 L 342 365 L 345 362 L 345 359 L 342 355 L 336 350 L 336 344 L 338 342 L 340 342 L 343 339 L 347 338 L 352 344 L 352 349 L 349 357 L 353 361 L 357 362 L 365 370 L 365 371 L 368 373 L 372 373 L 375 370 L 383 371 L 401 388 L 411 387 L 412 386 L 412 384 L 408 377 L 400 369 L 400 367 L 398 365 L 402 356 L 408 351 L 411 354 L 414 355 L 415 366 L 417 368 L 417 370 L 419 373 L 420 379 L 430 395 L 433 394 L 435 397 L 438 397 L 440 395 L 437 394 L 435 391 L 430 387 L 430 385 L 428 383 L 428 379 L 425 375 L 425 373 L 428 371 L 430 371 L 433 375 L 435 376 L 437 376 L 440 373 L 448 373 L 450 375 L 458 375 L 465 379 L 467 379 L 469 381 L 467 390 L 463 396 L 463 408 L 461 414 L 460 424 L 455 432 L 451 436 L 447 444 L 448 450 L 450 453 L 453 451 L 455 451 L 462 446 L 464 446 L 467 449 L 467 455 L 464 461 L 464 463 L 460 468 L 460 477 L 467 482 L 472 481 L 475 479 L 482 471 L 486 469 L 491 473 L 493 479 L 495 480 L 502 480 L 505 478 L 507 478 L 511 474 L 515 474 L 517 473 L 520 469 L 523 469 L 532 465 L 536 466 L 539 462 L 540 455 L 543 451 L 544 442 L 547 438 L 547 430 L 548 429 L 549 420 L 553 414 L 552 408 L 550 406 L 546 397 L 546 390 L 550 381 L 550 378 L 549 377 L 549 362 L 550 361 L 550 358 L 546 353 L 539 347 L 538 344 L 533 338 L 529 337 L 523 332 L 521 322 L 514 318 L 511 318 L 507 316 L 503 316 L 500 314 L 497 314 L 489 304 L 483 302 L 477 302 L 472 300 L 468 300 L 463 297 L 452 297 L 448 295 L 444 295 L 438 299 L 432 301 L 426 300 L 417 307 L 414 307 L 412 305 L 412 302 L 411 302 L 405 310 L 402 310 L 400 308 L 401 300 L 404 297 L 404 295 L 412 287 L 422 279 L 425 279 L 428 273 L 432 273 L 434 275 L 435 274 L 435 269 L 433 263 L 435 261 L 440 262 L 439 257 L 444 252 L 446 253 L 447 252 L 443 244 L 445 242 L 453 243 L 454 241 L 453 239 L 454 237 L 453 234 L 455 232 L 462 233 L 457 227 L 457 223 L 461 220 L 461 218 L 457 213 L 457 210 L 458 209 L 461 209 L 465 211 L 468 210 L 477 210 L 479 205 L 481 203 L 486 201 L 475 189 L 472 184 L 475 180 L 483 179 L 483 178 L 480 175 L 471 171 L 469 169 L 469 163 L 470 161 L 467 155 L 464 152 L 460 143 L 450 132 L 450 130 L 453 127 L 465 119 L 469 108 L 469 99 L 465 90 L 452 78 L 448 77 Z M 349 501 L 351 503 L 351 506 L 348 513 L 345 516 L 341 515 L 340 514 L 340 511 L 342 505 L 344 503 Z M 263 501 L 265 501 L 268 504 L 268 515 L 266 520 L 267 528 L 264 530 L 262 528 L 263 519 L 260 510 L 261 508 L 261 503 Z M 260 478 L 263 481 L 262 483 L 262 488 L 261 489 L 261 492 L 257 495 L 255 493 L 255 486 Z M 392 473 L 394 475 L 394 477 L 392 482 L 390 484 L 390 486 L 389 487 L 388 486 L 387 488 L 379 495 L 377 502 L 375 504 L 369 505 L 368 504 L 368 497 L 370 494 L 370 492 L 373 488 L 371 476 L 373 473 L 376 471 L 375 470 L 377 468 L 379 470 L 379 472 L 383 474 L 390 474 Z M 347 455 L 348 457 L 347 458 L 347 464 L 342 471 L 334 474 L 330 469 L 335 465 L 336 462 L 341 456 L 345 454 Z M 384 451 L 390 446 L 393 449 L 395 453 L 400 453 L 402 456 L 405 458 L 406 462 L 404 464 L 401 463 L 398 465 L 396 465 L 391 469 L 390 468 L 391 465 L 388 462 L 388 460 L 384 456 L 385 454 Z M 263 442 L 265 444 L 265 446 L 261 452 L 261 454 L 258 457 L 258 458 L 260 457 L 263 461 L 262 464 L 254 476 L 248 480 L 246 478 L 246 475 L 254 464 L 254 462 L 251 462 L 249 460 L 249 457 L 260 442 Z M 318 417 L 320 420 L 315 423 L 314 420 Z M 358 410 L 362 410 L 364 411 L 366 415 L 366 418 L 363 421 L 363 424 L 365 427 L 365 430 L 366 431 L 366 437 L 364 440 L 361 439 L 357 431 L 353 428 L 351 422 L 351 418 Z M 297 409 L 298 410 L 297 414 L 293 418 L 290 418 L 289 417 L 290 413 L 294 409 Z M 328 407 L 330 408 L 330 412 L 329 413 L 327 411 L 327 408 Z M 298 409 L 299 406 L 302 407 L 299 410 Z M 344 399 L 346 401 L 344 406 L 344 409 L 340 417 L 339 423 L 336 425 L 334 423 L 335 410 L 341 400 Z M 326 390 L 326 392 L 320 397 L 316 397 L 315 398 L 313 396 L 313 394 L 315 391 L 319 388 L 324 388 Z M 286 394 L 286 392 L 291 388 L 296 388 L 300 391 L 298 393 L 290 396 L 288 396 Z M 292 366 L 295 369 L 295 371 L 294 373 L 286 381 L 285 381 L 282 378 L 282 375 L 286 370 Z M 363 357 L 364 356 L 371 356 L 374 359 L 374 364 L 372 366 L 368 367 L 363 362 Z M 327 358 L 327 361 L 318 369 L 314 369 L 309 372 L 306 372 L 301 374 L 299 372 L 300 369 L 311 356 L 313 358 L 314 361 L 324 356 Z M 401 341 L 405 341 L 407 344 L 406 348 L 404 350 L 400 345 L 401 343 L 400 342 Z M 396 295 L 396 300 L 394 303 L 381 315 L 381 319 L 383 322 L 382 330 L 384 333 L 384 336 L 382 341 L 379 343 L 372 343 L 370 341 L 367 341 L 359 331 L 353 334 L 345 333 L 343 331 L 334 327 L 319 317 L 313 311 L 312 308 L 312 305 L 315 302 L 323 302 L 324 303 L 339 304 L 341 305 L 342 304 L 352 304 L 353 303 L 358 303 L 363 301 L 368 301 L 371 299 L 375 299 L 392 293 L 394 293 Z M 377 185 L 379 180 L 388 172 L 394 170 L 409 170 L 422 175 L 428 181 L 430 185 L 430 193 L 426 198 L 423 199 L 421 201 L 418 201 L 417 202 L 399 202 L 385 196 L 378 189 Z M 366 146 L 371 146 L 373 147 L 378 153 L 378 155 L 380 158 L 380 167 L 378 170 L 377 174 L 372 179 L 365 179 L 363 178 L 359 173 L 357 168 L 357 162 L 358 161 L 358 157 L 360 151 Z M 258 111 L 262 113 L 268 119 L 268 123 L 257 139 L 250 146 L 247 146 L 239 138 L 237 132 L 237 126 L 241 118 L 246 113 L 250 111 Z M 362 108 L 367 104 L 375 104 L 376 105 L 379 105 L 381 107 L 383 107 L 388 112 L 389 114 L 389 118 L 386 121 L 379 121 L 370 117 L 367 118 L 362 113 Z M 438 86 L 442 86 L 449 89 L 454 94 L 458 102 L 458 111 L 456 115 L 447 123 L 442 122 L 422 105 L 422 101 L 426 94 L 430 90 Z" fill="#FBFBFB" fill-rule="evenodd"/><path d="M 292 660 L 289 666 L 289 674 L 291 676 L 295 677 L 300 667 L 298 669 L 297 672 L 295 674 L 293 674 L 290 671 L 290 664 Z M 337 638 L 340 638 L 345 641 L 362 646 L 368 649 L 371 652 L 369 654 L 363 654 L 362 653 L 353 652 L 357 652 L 363 654 L 372 654 L 373 652 L 366 647 L 363 647 L 360 645 L 357 645 L 348 642 L 343 639 Z M 318 626 L 320 633 L 322 635 L 333 637 L 324 634 Z M 250 554 L 248 556 L 247 565 L 248 558 L 250 556 L 254 556 L 258 558 L 266 565 L 266 570 L 268 574 L 271 576 L 269 579 L 270 589 L 268 591 L 266 591 L 266 597 L 265 600 L 263 601 L 261 597 L 259 596 L 255 591 L 249 587 L 248 585 L 248 578 L 246 575 L 246 568 L 245 575 L 247 580 L 248 591 L 253 595 L 254 597 L 254 602 L 256 606 L 266 617 L 277 626 L 284 629 L 287 629 L 293 634 L 301 635 L 302 632 L 298 624 L 296 622 L 296 609 L 295 608 L 295 604 L 296 603 L 296 589 L 295 588 L 295 584 L 289 577 L 274 569 L 258 557 L 256 557 L 254 555 Z M 511 553 L 505 561 L 497 569 L 494 570 L 481 582 L 474 586 L 460 600 L 457 610 L 449 615 L 447 623 L 439 630 L 437 634 L 437 640 L 436 643 L 437 644 L 437 648 L 439 651 L 439 656 L 440 657 L 440 669 L 439 670 L 439 673 L 434 682 L 438 676 L 440 670 L 440 655 L 439 654 L 438 646 L 437 645 L 437 637 L 438 636 L 438 633 L 447 625 L 448 622 L 451 619 L 451 617 L 453 615 L 457 615 L 458 614 L 458 612 L 460 609 L 459 604 L 462 598 L 474 586 L 479 584 L 494 570 L 497 569 L 508 558 Z M 340 551 L 331 557 L 325 563 L 325 566 L 314 576 L 314 577 L 317 578 L 319 581 L 316 586 L 312 590 L 311 593 L 311 605 L 313 609 L 314 616 L 317 624 L 317 621 L 314 615 L 314 611 L 311 602 L 311 598 L 312 597 L 311 593 L 313 589 L 319 582 L 319 579 L 317 578 L 315 575 L 326 566 L 326 562 L 331 557 L 337 554 Z M 231 532 L 232 542 L 231 543 L 231 573 L 230 574 L 230 581 L 232 587 L 232 595 L 232 587 L 230 581 L 230 574 L 231 573 L 231 566 L 232 565 L 232 553 L 231 552 L 232 535 Z M 356 540 L 363 536 L 365 536 L 368 533 L 374 531 L 377 528 L 377 526 L 372 524 L 356 524 L 353 526 L 357 524 L 369 524 L 370 525 L 373 525 L 375 527 L 375 529 L 373 531 L 364 535 Z M 349 502 L 343 505 L 341 511 L 341 514 L 345 515 L 347 513 L 350 506 L 350 503 Z M 265 502 L 262 503 L 262 508 L 261 509 L 262 511 L 262 515 L 264 519 L 264 524 L 263 525 L 263 528 L 264 529 L 266 528 L 265 520 L 267 515 L 267 504 Z M 260 479 L 256 486 L 256 493 L 257 494 L 260 492 L 260 489 L 261 488 L 261 483 L 262 481 Z M 392 474 L 390 475 L 383 475 L 380 474 L 378 472 L 377 469 L 376 470 L 377 471 L 374 473 L 372 476 L 374 488 L 371 492 L 371 494 L 369 497 L 369 504 L 375 503 L 378 497 L 378 495 L 381 493 L 388 485 L 389 486 L 389 484 L 391 482 L 393 477 Z M 347 456 L 345 455 L 341 457 L 337 462 L 336 465 L 331 469 L 334 473 L 342 470 L 346 464 L 346 458 Z M 462 447 L 465 449 L 465 457 L 458 469 L 458 474 L 459 477 L 463 481 L 466 482 L 459 477 L 459 468 L 463 463 L 463 461 L 466 455 L 466 449 L 464 447 Z M 385 451 L 386 453 L 385 456 L 389 460 L 389 462 L 392 465 L 391 468 L 396 464 L 398 464 L 401 462 L 404 463 L 405 462 L 404 458 L 402 457 L 400 454 L 395 454 L 390 447 Z M 229 456 L 227 462 L 228 463 L 233 462 L 235 464 L 235 468 L 232 472 L 231 476 L 229 479 L 228 488 L 229 489 L 235 484 L 238 484 L 239 485 L 238 492 L 236 495 L 236 498 L 235 499 L 234 508 L 235 508 L 240 502 L 242 504 L 242 516 L 243 517 L 243 522 L 248 532 L 252 538 L 258 537 L 261 539 L 267 546 L 277 552 L 281 552 L 283 553 L 287 558 L 288 561 L 294 567 L 297 565 L 297 563 L 299 561 L 307 562 L 316 555 L 334 537 L 344 530 L 351 527 L 342 531 L 335 537 L 331 539 L 316 555 L 312 556 L 310 554 L 307 554 L 306 555 L 300 556 L 298 554 L 296 554 L 293 552 L 292 557 L 290 558 L 284 549 L 284 545 L 282 542 L 282 530 L 283 529 L 283 522 L 285 520 L 285 517 L 286 516 L 285 514 L 281 515 L 278 518 L 278 521 L 277 522 L 278 536 L 280 539 L 280 546 L 278 548 L 275 547 L 266 537 L 264 537 L 263 535 L 259 532 L 249 527 L 246 522 L 243 520 L 242 502 L 240 501 L 238 502 L 237 504 L 235 502 L 235 499 L 237 496 L 240 484 L 239 483 L 236 483 L 231 487 L 228 486 L 229 484 L 229 480 L 231 477 L 231 474 L 235 469 L 236 464 L 234 462 L 230 462 L 228 460 L 228 458 L 230 456 L 231 453 L 238 445 Z M 263 443 L 260 443 L 250 457 L 250 460 L 251 461 L 254 461 L 255 464 L 247 475 L 247 478 L 248 479 L 253 476 L 261 464 L 262 461 L 260 458 L 258 459 L 257 457 L 260 454 L 260 452 L 264 446 Z M 255 467 L 256 470 L 253 473 L 252 471 Z M 450 437 L 446 444 L 446 451 L 449 454 L 452 454 L 457 450 L 451 454 L 448 452 L 446 444 Z M 358 411 L 352 418 L 352 422 L 354 428 L 358 431 L 362 439 L 364 439 L 365 437 L 365 431 L 364 430 L 364 427 L 362 424 L 362 421 L 365 418 L 365 415 L 364 412 L 362 411 Z M 297 410 L 294 410 L 291 413 L 290 417 L 293 417 L 296 414 Z M 344 400 L 342 400 L 336 410 L 336 416 L 335 417 L 335 423 L 336 424 L 338 423 L 339 417 L 343 409 L 343 406 L 345 402 Z M 207 394 L 211 398 L 213 398 L 219 401 L 223 401 L 228 406 L 227 410 L 229 404 L 228 402 L 220 401 L 214 399 Z M 325 390 L 324 389 L 319 389 L 316 391 L 314 394 L 314 396 L 315 397 L 316 396 L 320 396 L 322 395 L 325 392 Z M 287 394 L 290 395 L 291 394 L 294 394 L 299 391 L 296 389 L 291 389 L 287 392 Z M 264 382 L 258 382 L 252 386 L 249 384 L 250 382 L 249 387 L 251 390 L 256 384 L 260 382 L 262 382 L 264 384 L 264 387 L 261 392 L 251 402 L 246 404 L 238 412 L 239 415 L 242 414 L 244 416 L 244 419 L 240 425 L 233 431 L 230 436 L 231 437 L 238 437 L 240 439 L 239 443 L 240 438 L 239 437 L 233 437 L 232 436 L 232 433 L 241 424 L 244 419 L 244 416 L 242 414 L 240 414 L 239 412 L 245 406 L 253 402 L 261 394 L 266 385 Z M 292 367 L 286 371 L 283 375 L 283 378 L 285 380 L 286 380 L 293 373 L 294 369 Z M 364 357 L 364 362 L 368 366 L 370 366 L 373 364 L 373 359 L 371 357 Z M 326 358 L 324 357 L 314 362 L 312 360 L 311 357 L 301 369 L 300 372 L 301 373 L 302 372 L 309 371 L 314 368 L 318 368 L 326 361 Z M 566 355 L 570 363 L 571 370 L 572 371 L 572 382 L 571 383 L 572 386 L 571 388 L 571 414 L 572 368 Z M 401 342 L 402 343 L 401 345 L 404 349 L 406 344 L 405 342 Z M 345 339 L 340 343 L 337 344 L 337 350 L 338 350 L 346 359 L 346 362 L 342 366 L 339 367 L 339 371 L 338 372 L 339 376 L 341 377 L 343 375 L 343 373 L 346 370 L 349 369 L 356 374 L 361 375 L 364 379 L 370 382 L 376 382 L 379 380 L 382 383 L 385 384 L 394 395 L 397 407 L 399 409 L 402 408 L 404 406 L 410 406 L 413 408 L 412 411 L 413 412 L 412 414 L 413 416 L 413 420 L 414 421 L 420 422 L 425 427 L 425 429 L 427 432 L 427 434 L 425 436 L 423 436 L 418 432 L 413 430 L 394 429 L 390 426 L 386 425 L 383 426 L 381 428 L 381 431 L 380 432 L 381 437 L 382 438 L 388 439 L 388 438 L 391 436 L 396 440 L 397 448 L 398 448 L 398 443 L 404 438 L 411 438 L 414 440 L 416 440 L 417 441 L 417 446 L 415 449 L 414 455 L 419 460 L 422 458 L 423 459 L 430 459 L 431 461 L 441 470 L 442 473 L 442 478 L 440 480 L 433 480 L 430 478 L 420 478 L 417 476 L 413 476 L 412 477 L 412 479 L 414 481 L 416 487 L 419 492 L 423 493 L 425 495 L 428 495 L 434 501 L 436 501 L 442 508 L 443 512 L 445 515 L 445 534 L 442 538 L 442 542 L 444 546 L 442 548 L 440 559 L 437 563 L 436 568 L 434 569 L 433 571 L 433 574 L 431 576 L 429 581 L 424 586 L 420 593 L 414 599 L 408 602 L 405 608 L 401 612 L 400 619 L 396 627 L 396 635 L 401 644 L 401 649 L 402 650 L 402 657 L 401 659 L 402 662 L 399 665 L 399 667 L 391 675 L 390 675 L 383 683 L 374 686 L 358 687 L 378 686 L 379 685 L 390 685 L 391 684 L 402 683 L 407 681 L 412 681 L 416 679 L 416 675 L 417 674 L 418 675 L 418 673 L 416 672 L 416 674 L 414 676 L 409 675 L 409 676 L 407 677 L 404 674 L 404 673 L 406 672 L 410 667 L 410 663 L 412 660 L 412 656 L 415 650 L 415 636 L 414 635 L 414 631 L 412 629 L 412 623 L 415 620 L 417 616 L 417 612 L 418 610 L 424 605 L 428 599 L 434 594 L 440 585 L 440 581 L 446 569 L 446 564 L 447 563 L 447 548 L 446 547 L 446 544 L 449 540 L 450 536 L 452 534 L 454 536 L 455 539 L 456 539 L 458 537 L 458 534 L 462 529 L 463 520 L 465 518 L 468 520 L 470 517 L 470 514 L 467 511 L 466 507 L 463 504 L 463 500 L 459 495 L 446 483 L 444 479 L 444 476 L 442 470 L 433 461 L 430 455 L 431 443 L 436 433 L 442 426 L 444 422 L 445 409 L 446 408 L 446 404 L 444 401 L 443 396 L 434 388 L 431 383 L 431 380 L 433 378 L 440 378 L 441 377 L 447 377 L 448 378 L 457 377 L 465 386 L 465 390 L 462 396 L 462 406 L 461 407 L 460 419 L 456 429 L 451 435 L 454 432 L 459 424 L 460 414 L 462 408 L 462 396 L 466 390 L 468 381 L 458 376 L 450 376 L 448 374 L 440 374 L 437 377 L 435 377 L 433 376 L 430 372 L 428 372 L 426 373 L 426 375 L 429 379 L 429 383 L 431 385 L 431 387 L 434 389 L 437 393 L 439 393 L 441 395 L 438 398 L 435 398 L 433 395 L 430 396 L 427 393 L 426 390 L 424 388 L 424 386 L 419 379 L 418 373 L 416 370 L 416 368 L 414 366 L 413 355 L 411 355 L 408 352 L 403 356 L 399 365 L 401 367 L 401 369 L 409 377 L 413 384 L 413 386 L 411 388 L 401 389 L 383 372 L 375 371 L 372 374 L 368 374 L 366 373 L 357 363 L 353 362 L 348 357 L 351 349 L 351 344 L 347 339 Z M 415 400 L 418 398 L 421 399 L 422 401 L 417 403 Z M 388 382 L 389 381 L 402 392 L 406 392 L 408 395 L 405 397 L 403 400 L 400 400 L 392 388 L 388 384 Z M 409 372 L 411 372 L 417 379 L 419 383 L 418 386 L 412 380 L 408 374 Z M 207 332 L 208 334 L 215 334 L 214 331 L 208 331 Z M 395 295 L 392 294 L 375 300 L 371 300 L 368 302 L 363 302 L 362 303 L 353 304 L 352 305 L 342 305 L 340 306 L 339 305 L 330 305 L 329 304 L 324 304 L 323 303 L 315 303 L 313 305 L 313 308 L 314 311 L 319 316 L 334 326 L 343 330 L 345 332 L 353 333 L 359 330 L 367 340 L 370 340 L 372 342 L 379 342 L 381 341 L 383 336 L 383 333 L 381 330 L 382 322 L 380 319 L 380 315 L 388 307 L 389 307 L 392 303 L 393 303 L 395 300 Z M 376 318 L 378 320 L 377 321 L 377 326 L 375 328 L 374 327 L 369 327 L 368 325 Z M 394 298 L 388 306 L 375 318 L 372 319 L 362 328 L 360 328 L 354 331 L 346 331 L 334 325 L 329 321 L 323 318 L 314 310 L 314 306 L 317 303 L 324 304 L 329 306 L 349 306 L 350 305 L 355 305 L 356 304 L 361 304 L 366 302 L 370 302 L 388 296 L 392 296 Z M 284 220 L 291 220 L 303 214 L 309 215 L 310 216 L 314 216 L 319 218 L 328 218 L 329 219 L 337 218 L 332 218 L 331 219 L 329 218 L 320 218 L 315 216 L 307 215 L 305 213 L 303 213 L 294 219 L 291 220 Z M 368 198 L 364 198 L 362 203 L 359 207 L 353 212 L 351 212 L 344 216 L 339 217 L 347 215 L 356 210 L 361 205 L 363 200 L 365 198 L 369 199 L 372 202 L 375 210 L 375 239 L 374 240 L 374 245 L 370 257 L 370 260 L 366 268 L 356 278 L 348 283 L 346 283 L 343 285 L 333 286 L 332 285 L 329 285 L 323 283 L 314 278 L 302 266 L 297 259 L 307 272 L 318 281 L 330 286 L 340 286 L 341 285 L 345 285 L 357 278 L 366 269 L 366 267 L 370 261 L 370 258 L 374 246 L 375 236 L 376 235 L 376 231 L 375 230 L 376 222 L 375 221 L 374 204 Z M 327 195 L 320 203 L 313 207 L 311 207 L 305 210 L 292 209 L 287 206 L 278 197 L 276 192 L 276 186 L 280 179 L 277 179 L 276 178 L 278 180 L 278 182 L 276 188 L 274 190 L 271 190 L 270 191 L 262 185 L 254 185 L 245 189 L 241 194 L 239 200 L 237 202 L 229 202 L 227 199 L 238 187 L 238 183 L 237 188 L 228 197 L 227 199 L 227 203 L 229 202 L 234 202 L 236 204 L 234 208 L 237 205 L 244 213 L 250 213 L 258 208 L 260 205 L 264 202 L 265 203 L 265 211 L 265 199 L 264 199 L 253 211 L 248 213 L 244 212 L 239 206 L 239 199 L 241 195 L 247 189 L 253 186 L 262 186 L 268 191 L 273 190 L 275 192 L 275 199 L 274 200 L 274 209 L 275 211 L 274 209 L 274 201 L 276 196 L 277 196 L 285 205 L 293 210 L 300 210 L 303 211 L 317 205 L 324 200 Z M 378 185 L 379 189 L 385 195 L 399 201 L 417 201 L 418 200 L 421 200 L 423 198 L 426 197 L 429 193 L 429 185 L 427 181 L 422 176 L 409 171 L 394 171 L 388 173 L 380 180 Z M 379 182 L 384 176 L 392 172 L 397 172 L 398 171 L 411 172 L 421 176 L 427 182 L 429 186 L 429 192 L 428 194 L 422 199 L 416 201 L 402 201 L 401 200 L 394 199 L 384 194 L 379 188 Z M 73 166 L 73 170 L 71 172 L 64 173 L 57 179 L 52 190 L 52 198 L 54 202 L 54 207 L 51 210 L 49 214 L 55 206 L 55 203 L 53 201 L 53 198 L 52 197 L 52 190 L 56 181 L 61 176 L 66 173 L 70 173 L 73 170 Z M 291 169 L 289 175 L 297 174 L 298 173 L 309 173 L 321 177 L 328 183 L 329 186 L 329 191 L 328 193 L 329 191 L 328 183 L 323 178 L 319 177 L 314 174 L 307 173 L 306 171 L 308 169 L 313 167 L 322 167 L 323 168 L 334 169 L 335 168 L 335 165 L 331 161 L 328 160 L 316 159 L 315 160 L 311 160 L 303 164 L 301 166 L 301 168 L 304 170 L 303 172 L 298 172 L 293 174 L 291 172 Z M 307 164 L 312 161 L 328 161 L 332 163 L 334 166 L 331 168 L 325 166 L 308 166 Z M 88 163 L 85 166 L 84 172 L 86 172 L 90 167 L 96 167 L 99 169 L 105 175 L 108 184 L 108 191 L 104 196 L 100 197 L 94 195 L 91 198 L 84 191 L 75 186 L 69 186 L 66 189 L 65 191 L 66 197 L 67 197 L 68 194 L 70 192 L 75 192 L 85 197 L 91 204 L 91 210 L 90 212 L 85 216 L 80 215 L 74 212 L 71 215 L 66 215 L 61 218 L 60 220 L 60 227 L 70 241 L 89 257 L 95 260 L 99 264 L 103 276 L 107 284 L 109 286 L 111 284 L 114 286 L 135 309 L 159 326 L 163 327 L 169 331 L 171 331 L 179 335 L 187 336 L 190 340 L 185 344 L 186 347 L 200 347 L 206 352 L 209 352 L 210 353 L 223 353 L 225 355 L 217 363 L 217 364 L 219 366 L 223 366 L 228 368 L 234 368 L 237 369 L 238 368 L 241 368 L 244 365 L 245 361 L 251 351 L 253 342 L 257 338 L 260 338 L 262 340 L 262 342 L 257 347 L 258 355 L 255 361 L 258 355 L 258 350 L 257 348 L 263 341 L 263 339 L 260 335 L 269 327 L 269 324 L 266 320 L 271 316 L 272 311 L 279 303 L 286 304 L 292 308 L 295 308 L 296 307 L 296 303 L 294 299 L 284 290 L 282 290 L 275 286 L 270 285 L 259 274 L 257 274 L 254 271 L 253 264 L 251 262 L 249 262 L 245 266 L 241 263 L 242 242 L 241 241 L 237 241 L 235 243 L 232 242 L 232 238 L 234 232 L 232 238 L 232 244 L 233 245 L 237 242 L 240 242 L 242 244 L 241 263 L 244 266 L 247 265 L 249 263 L 251 263 L 253 266 L 253 270 L 256 274 L 259 275 L 274 291 L 277 289 L 283 291 L 295 302 L 295 306 L 294 307 L 290 306 L 277 295 L 278 298 L 278 302 L 277 304 L 274 307 L 270 307 L 267 304 L 264 298 L 254 288 L 252 288 L 252 291 L 250 293 L 248 293 L 245 290 L 240 280 L 238 278 L 237 278 L 233 283 L 227 278 L 225 272 L 221 265 L 219 265 L 218 270 L 214 273 L 208 267 L 200 253 L 196 249 L 193 251 L 190 251 L 160 216 L 160 212 L 164 203 L 165 186 L 162 177 L 158 173 L 151 173 L 149 175 L 149 177 L 143 183 L 141 183 L 138 180 L 136 170 L 131 161 L 127 157 L 121 157 L 118 160 L 119 161 L 120 160 L 124 160 L 131 166 L 134 171 L 135 179 L 136 180 L 135 185 L 132 188 L 130 189 L 126 189 L 121 187 L 119 185 L 114 186 L 112 184 L 110 178 L 106 171 L 101 165 L 94 162 Z M 265 323 L 267 325 L 267 327 L 258 334 L 256 332 L 263 323 Z M 263 316 L 265 313 L 267 313 L 269 315 L 266 318 Z M 68 218 L 76 218 L 84 225 L 84 232 L 80 237 L 76 237 L 72 235 L 64 227 L 64 222 Z M 65 216 L 66 219 L 64 221 L 63 226 L 61 227 L 60 226 L 60 220 Z M 98 200 L 99 201 L 98 203 L 98 207 L 94 212 L 88 227 L 85 229 L 84 228 L 84 223 L 82 219 L 84 217 L 86 217 L 90 213 L 92 208 L 92 205 L 94 203 L 91 203 L 89 200 L 90 199 L 94 201 Z M 134 199 L 143 208 L 146 215 L 146 224 L 144 228 L 136 236 L 114 249 L 103 251 L 95 248 L 88 240 L 87 237 L 87 231 L 88 230 L 88 227 L 90 221 L 97 209 L 106 200 L 114 196 L 125 195 Z M 69 187 L 72 186 L 74 188 L 78 189 L 79 191 L 76 192 L 70 190 Z M 111 184 L 114 187 L 121 187 L 123 189 L 132 189 L 136 185 L 136 181 L 138 180 L 139 182 L 144 186 L 144 188 L 142 191 L 142 198 L 145 202 L 148 204 L 154 204 L 162 198 L 164 200 L 164 202 L 160 212 L 160 216 L 172 231 L 180 239 L 182 243 L 188 249 L 189 252 L 197 251 L 201 255 L 202 258 L 204 260 L 204 263 L 208 267 L 209 270 L 211 272 L 216 273 L 218 271 L 219 268 L 221 267 L 224 270 L 226 277 L 232 284 L 234 284 L 238 280 L 242 284 L 247 294 L 251 294 L 254 291 L 256 291 L 264 299 L 264 301 L 266 303 L 266 306 L 263 310 L 263 312 L 259 320 L 259 325 L 256 328 L 254 332 L 254 337 L 251 343 L 250 352 L 245 359 L 244 363 L 241 366 L 239 367 L 236 366 L 234 367 L 232 366 L 226 366 L 223 362 L 229 354 L 228 352 L 212 352 L 211 351 L 207 351 L 203 346 L 195 346 L 192 344 L 193 339 L 191 337 L 186 335 L 183 335 L 180 333 L 177 333 L 171 329 L 169 329 L 163 326 L 151 317 L 144 313 L 113 283 L 111 279 L 100 267 L 100 265 L 94 259 L 86 254 L 69 239 L 70 236 L 80 238 L 84 235 L 84 233 L 86 232 L 87 233 L 88 241 L 94 248 L 99 251 L 110 251 L 113 250 L 115 248 L 117 248 L 132 238 L 135 237 L 144 229 L 147 221 L 146 219 L 146 214 L 144 211 L 144 209 L 136 200 L 131 197 L 125 195 L 115 195 L 114 196 L 108 197 L 107 194 L 109 192 L 110 189 L 109 186 Z M 155 177 L 160 182 L 161 185 L 161 193 L 158 199 L 152 204 L 149 204 L 144 200 L 142 193 L 145 184 L 151 177 Z M 106 177 L 108 176 L 110 180 L 108 181 Z M 155 176 L 157 174 L 162 179 L 160 181 Z M 480 119 L 478 124 L 472 130 L 470 134 L 477 144 L 480 151 L 483 154 L 487 166 L 492 169 L 496 174 L 495 172 L 487 165 L 486 160 L 482 152 L 471 135 L 471 132 L 476 127 Z M 258 112 L 250 112 L 246 114 L 242 118 L 241 121 L 239 123 L 238 126 L 239 136 L 247 145 L 250 145 L 256 139 L 267 123 L 267 119 L 262 114 Z M 258 113 L 262 115 L 265 118 L 266 123 L 263 126 L 262 129 L 255 139 L 250 144 L 248 144 L 246 143 L 239 135 L 239 125 L 242 119 L 247 114 L 249 113 Z M 470 100 L 470 108 L 466 119 L 463 122 L 460 123 L 457 126 L 453 128 L 451 130 L 451 132 L 461 143 L 465 152 L 468 155 L 471 161 L 470 163 L 470 169 L 480 174 L 484 178 L 483 180 L 475 181 L 473 184 L 476 189 L 487 201 L 485 203 L 481 204 L 479 207 L 479 209 L 477 211 L 468 211 L 465 212 L 461 210 L 458 210 L 458 213 L 462 218 L 462 220 L 458 223 L 458 227 L 463 233 L 462 234 L 459 233 L 455 233 L 454 234 L 455 236 L 454 238 L 455 241 L 453 244 L 450 243 L 445 243 L 444 244 L 448 252 L 446 254 L 444 253 L 440 257 L 440 260 L 441 261 L 440 263 L 437 262 L 434 263 L 436 269 L 436 274 L 434 276 L 432 274 L 428 274 L 428 276 L 425 280 L 422 280 L 412 288 L 405 295 L 405 297 L 402 300 L 401 308 L 402 309 L 405 309 L 407 307 L 407 305 L 411 301 L 413 302 L 413 305 L 414 306 L 417 306 L 426 299 L 432 300 L 438 298 L 444 294 L 448 294 L 452 296 L 463 296 L 468 299 L 472 299 L 477 301 L 483 301 L 489 303 L 497 313 L 500 313 L 503 315 L 507 315 L 511 317 L 514 317 L 521 321 L 523 324 L 523 330 L 524 332 L 529 336 L 533 337 L 539 344 L 540 347 L 545 351 L 551 358 L 551 361 L 550 362 L 550 377 L 551 378 L 551 381 L 547 390 L 547 397 L 551 406 L 553 408 L 554 414 L 550 420 L 550 424 L 548 430 L 548 438 L 545 442 L 544 451 L 541 455 L 541 459 L 539 464 L 536 467 L 532 466 L 523 470 L 520 470 L 517 474 L 515 475 L 511 475 L 507 479 L 505 479 L 502 481 L 495 481 L 491 478 L 490 473 L 486 470 L 482 472 L 475 480 L 472 482 L 469 482 L 474 481 L 484 471 L 487 471 L 489 473 L 488 491 L 490 493 L 498 493 L 500 492 L 505 485 L 505 483 L 511 477 L 513 477 L 516 481 L 516 489 L 515 492 L 517 493 L 518 492 L 521 492 L 523 490 L 526 489 L 536 481 L 540 475 L 540 471 L 543 466 L 543 464 L 548 457 L 548 452 L 550 448 L 550 445 L 552 442 L 553 428 L 555 425 L 554 410 L 549 398 L 549 394 L 551 392 L 554 392 L 555 391 L 555 387 L 553 383 L 552 374 L 551 373 L 551 361 L 552 359 L 540 346 L 539 342 L 535 338 L 530 336 L 524 330 L 525 325 L 520 320 L 514 317 L 511 317 L 500 313 L 496 309 L 495 305 L 490 302 L 473 300 L 460 292 L 447 292 L 440 295 L 434 299 L 429 299 L 427 297 L 428 293 L 436 284 L 438 278 L 441 276 L 442 278 L 445 280 L 458 261 L 462 264 L 462 269 L 464 269 L 466 267 L 470 258 L 471 247 L 473 245 L 476 245 L 477 246 L 479 245 L 479 236 L 478 235 L 477 227 L 479 225 L 482 225 L 485 228 L 487 227 L 485 220 L 481 213 L 480 206 L 482 204 L 487 204 L 488 205 L 489 202 L 474 185 L 474 183 L 476 181 L 484 181 L 485 178 L 480 174 L 473 171 L 470 168 L 470 166 L 473 162 L 466 153 L 461 142 L 452 132 L 452 130 L 455 127 L 459 125 L 466 119 L 470 109 Z M 422 292 L 424 294 L 424 298 L 418 304 L 417 304 L 415 302 L 416 296 L 420 292 Z M 227 119 L 227 121 L 227 119 L 230 115 L 230 113 L 237 105 L 241 102 L 249 99 L 260 99 L 261 100 L 265 100 L 271 104 L 277 111 L 279 117 L 279 120 L 278 121 L 283 116 L 286 114 L 289 114 L 290 113 L 294 114 L 297 117 L 297 121 L 294 124 L 289 126 L 282 132 L 278 133 L 276 131 L 275 128 L 276 131 L 278 133 L 281 133 L 288 127 L 293 125 L 297 121 L 297 117 L 294 114 L 292 113 L 288 113 L 286 111 L 286 110 L 293 104 L 284 109 L 281 112 L 279 112 L 277 111 L 269 102 L 263 99 L 249 99 L 248 100 L 245 100 L 235 106 L 230 112 L 229 116 Z M 438 87 L 435 89 L 433 89 L 427 94 L 423 101 L 423 105 L 442 121 L 447 122 L 455 115 L 457 111 L 457 102 L 455 99 L 455 97 L 449 90 L 442 87 Z M 438 88 L 443 88 L 449 91 L 452 94 L 456 101 L 456 111 L 455 113 L 446 121 L 442 120 L 433 111 L 427 108 L 423 104 L 423 102 L 427 95 L 433 90 Z M 469 95 L 464 87 L 453 77 L 446 74 L 436 73 L 435 74 L 431 74 L 428 76 L 426 76 L 420 80 L 415 85 L 411 92 L 411 94 L 408 97 L 398 93 L 395 93 L 391 91 L 387 91 L 382 89 L 372 89 L 371 90 L 367 90 L 361 92 L 359 90 L 359 87 L 361 83 L 361 79 L 358 79 L 347 89 L 342 89 L 335 84 L 329 82 L 328 83 L 328 86 L 330 89 L 330 92 L 328 94 L 310 94 L 309 97 L 305 101 L 301 101 L 295 103 L 301 102 L 302 101 L 307 101 L 309 99 L 309 97 L 312 94 L 315 94 L 316 95 L 319 95 L 320 94 L 329 94 L 330 93 L 330 88 L 328 85 L 330 83 L 332 83 L 340 88 L 346 90 L 357 80 L 360 81 L 360 86 L 359 87 L 359 91 L 360 92 L 364 92 L 368 90 L 380 90 L 386 92 L 396 93 L 400 95 L 403 95 L 405 97 L 409 97 L 413 90 L 413 88 L 422 79 L 429 75 L 435 74 L 436 73 L 446 74 L 448 76 L 452 77 L 466 90 L 469 96 L 469 98 Z M 446 63 L 449 63 L 455 65 L 467 72 L 476 81 L 478 85 L 478 83 L 472 77 L 472 76 L 465 70 L 450 63 Z" fill="#E8E8E8" fill-rule="evenodd"/><path d="M 535 493 L 530 499 L 526 506 L 525 513 L 524 514 L 524 521 L 523 522 L 523 525 L 524 526 L 527 523 L 534 511 L 536 505 L 536 494 Z M 389 382 L 389 384 L 393 388 L 400 399 L 403 399 L 404 397 L 407 395 L 406 393 L 402 393 Z M 409 373 L 413 380 L 418 385 L 418 383 L 414 376 L 411 373 Z M 265 324 L 263 324 L 260 327 L 257 332 L 258 333 L 266 327 Z M 393 298 L 392 297 L 383 298 L 380 300 L 374 301 L 370 303 L 366 303 L 365 304 L 356 305 L 355 306 L 350 306 L 349 307 L 329 307 L 328 306 L 317 304 L 315 306 L 315 310 L 323 317 L 329 320 L 334 324 L 346 330 L 354 330 L 360 327 L 362 327 L 372 318 L 375 317 L 387 306 Z M 422 293 L 420 293 L 417 296 L 416 299 L 416 302 L 417 303 L 423 298 L 423 294 Z M 68 219 L 65 222 L 65 227 L 72 234 L 76 236 L 80 236 L 83 232 L 83 225 L 76 219 Z M 134 200 L 125 196 L 118 196 L 109 199 L 98 209 L 91 221 L 89 227 L 89 230 L 88 231 L 88 237 L 89 240 L 95 247 L 103 250 L 114 248 L 136 235 L 143 228 L 145 224 L 145 215 L 142 208 Z M 242 195 L 240 199 L 240 206 L 244 211 L 247 212 L 253 210 L 264 198 L 266 199 L 266 213 L 268 217 L 276 225 L 283 227 L 287 230 L 288 240 L 295 255 L 303 266 L 317 279 L 323 282 L 329 284 L 332 284 L 333 285 L 343 284 L 356 277 L 365 268 L 369 260 L 369 257 L 372 250 L 373 240 L 374 239 L 374 210 L 373 209 L 373 206 L 369 200 L 365 199 L 362 205 L 353 213 L 347 216 L 341 218 L 338 218 L 337 219 L 332 219 L 331 220 L 328 219 L 319 219 L 318 218 L 303 215 L 291 221 L 284 221 L 281 220 L 276 215 L 273 209 L 273 200 L 274 199 L 274 192 L 273 191 L 268 192 L 262 187 L 253 187 L 247 190 Z M 270 193 L 273 194 L 273 210 L 275 215 L 278 219 L 286 222 L 294 221 L 303 216 L 310 217 L 311 218 L 315 218 L 316 219 L 320 219 L 321 220 L 337 220 L 338 219 L 341 219 L 355 213 L 362 207 L 366 201 L 368 201 L 371 204 L 373 209 L 373 215 L 374 216 L 374 231 L 373 232 L 373 241 L 372 242 L 372 246 L 371 247 L 370 254 L 368 260 L 363 269 L 360 272 L 358 271 L 358 268 L 363 259 L 365 253 L 365 247 L 364 245 L 360 241 L 353 237 L 345 236 L 333 240 L 324 246 L 319 251 L 315 258 L 315 266 L 317 270 L 324 278 L 321 280 L 313 275 L 304 266 L 294 252 L 289 241 L 288 231 L 285 227 L 282 227 L 279 225 L 277 225 L 268 216 L 266 211 L 266 202 L 267 201 L 267 197 Z M 155 178 L 151 178 L 146 184 L 143 193 L 145 200 L 149 203 L 152 203 L 155 201 L 160 193 L 160 185 L 159 182 Z M 380 182 L 380 188 L 384 193 L 394 198 L 397 198 L 402 200 L 416 200 L 422 198 L 426 195 L 428 192 L 428 186 L 426 182 L 421 177 L 411 173 L 405 173 L 404 172 L 392 173 L 384 177 Z M 308 164 L 308 165 L 325 165 L 331 167 L 333 166 L 332 164 L 328 162 L 312 162 Z M 281 154 L 278 157 L 275 165 L 275 175 L 277 178 L 280 178 L 281 179 L 277 186 L 277 192 L 279 197 L 287 205 L 292 208 L 296 208 L 297 209 L 305 209 L 311 206 L 313 206 L 320 202 L 327 194 L 328 191 L 327 183 L 321 178 L 309 174 L 298 174 L 297 175 L 289 176 L 288 174 L 291 168 L 291 159 L 290 156 L 286 153 Z M 278 185 L 283 180 L 293 176 L 296 176 L 297 175 L 310 175 L 319 178 L 322 180 L 327 185 L 327 192 L 323 198 L 315 204 L 306 208 L 295 208 L 287 204 L 279 196 L 278 194 Z M 287 154 L 291 160 L 291 166 L 288 173 L 285 176 L 283 177 L 278 177 L 275 173 L 276 163 L 281 155 L 283 154 Z M 366 148 L 361 153 L 360 159 L 359 160 L 359 169 L 361 173 L 365 177 L 371 177 L 375 174 L 378 167 L 378 158 L 376 153 L 373 149 L 371 148 Z M 366 149 L 371 149 L 376 154 L 378 160 L 377 169 L 371 176 L 365 176 L 361 172 L 359 166 L 360 157 L 362 153 Z M 296 117 L 292 114 L 286 115 L 283 117 L 277 124 L 276 127 L 277 131 L 280 132 L 289 125 L 294 123 L 296 121 Z M 293 115 L 295 117 L 295 120 L 279 131 L 277 129 L 277 125 L 283 118 L 289 115 Z M 258 114 L 249 114 L 247 115 L 243 119 L 240 125 L 240 135 L 241 137 L 248 143 L 250 143 L 254 139 L 261 129 L 262 126 L 265 123 L 264 118 Z M 363 110 L 366 114 L 371 116 L 374 116 L 382 120 L 384 120 L 387 117 L 386 112 L 383 109 L 376 106 L 366 106 Z M 364 109 L 367 106 L 374 106 L 380 108 L 385 112 L 386 117 L 384 119 L 381 119 L 376 116 L 370 115 L 366 113 L 364 111 Z M 438 89 L 433 91 L 428 95 L 424 102 L 424 104 L 427 107 L 433 110 L 442 119 L 446 120 L 448 119 L 455 111 L 455 101 L 449 92 L 443 89 Z M 445 72 L 433 72 L 423 76 L 411 87 L 410 92 L 407 95 L 392 89 L 383 88 L 382 87 L 372 87 L 371 88 L 363 89 L 361 87 L 363 83 L 363 78 L 360 77 L 355 79 L 347 87 L 343 87 L 333 81 L 327 81 L 325 83 L 328 89 L 326 92 L 311 92 L 308 93 L 304 99 L 298 101 L 295 101 L 287 106 L 283 107 L 281 109 L 278 109 L 272 102 L 267 99 L 261 97 L 251 97 L 250 98 L 243 99 L 237 102 L 230 109 L 226 117 L 225 124 L 224 125 L 224 133 L 225 134 L 225 137 L 227 140 L 227 142 L 229 144 L 229 146 L 234 151 L 240 153 L 244 156 L 243 161 L 237 172 L 235 178 L 236 186 L 235 188 L 229 193 L 225 199 L 225 204 L 226 205 L 231 204 L 233 206 L 227 219 L 227 224 L 228 225 L 231 225 L 232 224 L 235 225 L 231 237 L 231 246 L 238 245 L 240 247 L 240 252 L 239 253 L 239 262 L 240 265 L 243 268 L 247 268 L 249 266 L 252 269 L 252 272 L 256 276 L 259 277 L 271 290 L 276 298 L 276 302 L 273 305 L 271 305 L 268 302 L 264 295 L 254 285 L 251 285 L 250 288 L 248 290 L 238 275 L 236 275 L 235 278 L 232 280 L 227 275 L 224 266 L 220 262 L 218 262 L 217 267 L 214 270 L 208 264 L 197 246 L 195 246 L 192 249 L 190 249 L 187 246 L 184 241 L 162 216 L 162 212 L 165 205 L 165 200 L 166 199 L 166 182 L 163 176 L 159 172 L 157 171 L 152 171 L 150 172 L 142 181 L 139 178 L 136 166 L 133 161 L 127 155 L 120 155 L 117 158 L 115 163 L 115 180 L 113 181 L 108 171 L 101 163 L 97 161 L 88 161 L 85 163 L 83 167 L 83 176 L 86 185 L 89 189 L 89 191 L 87 192 L 82 187 L 75 184 L 69 184 L 65 187 L 64 190 L 64 197 L 68 205 L 70 207 L 71 211 L 69 213 L 63 214 L 60 217 L 58 221 L 58 226 L 62 234 L 76 249 L 90 260 L 93 261 L 98 266 L 106 287 L 118 305 L 130 317 L 152 333 L 150 336 L 144 338 L 145 341 L 152 345 L 154 345 L 163 350 L 165 350 L 171 353 L 173 355 L 173 357 L 170 360 L 171 363 L 187 369 L 198 371 L 200 373 L 199 376 L 197 378 L 198 380 L 200 381 L 211 381 L 214 382 L 216 384 L 216 387 L 220 390 L 230 391 L 231 392 L 234 392 L 235 391 L 240 376 L 242 372 L 246 368 L 249 358 L 253 353 L 256 354 L 251 366 L 252 376 L 247 386 L 248 391 L 247 392 L 247 395 L 243 405 L 236 413 L 236 415 L 237 416 L 240 416 L 242 419 L 239 424 L 234 428 L 229 434 L 229 437 L 231 439 L 236 438 L 238 440 L 238 442 L 229 453 L 225 461 L 225 465 L 226 466 L 231 464 L 233 466 L 233 468 L 227 481 L 227 491 L 229 492 L 234 487 L 236 488 L 236 492 L 233 501 L 233 511 L 234 512 L 239 506 L 241 507 L 241 520 L 242 521 L 242 524 L 254 546 L 266 554 L 270 554 L 275 556 L 282 564 L 288 566 L 292 570 L 295 571 L 297 574 L 296 575 L 293 575 L 281 569 L 279 569 L 272 565 L 259 555 L 249 550 L 247 550 L 245 553 L 245 569 L 244 570 L 243 580 L 246 586 L 246 595 L 247 596 L 247 599 L 252 607 L 270 625 L 273 626 L 275 628 L 283 630 L 294 637 L 303 637 L 304 636 L 304 632 L 300 622 L 300 618 L 298 612 L 298 588 L 299 587 L 299 580 L 303 574 L 306 567 L 313 560 L 313 559 L 333 540 L 344 532 L 359 525 L 369 526 L 371 528 L 369 531 L 359 536 L 336 552 L 333 555 L 329 557 L 324 562 L 322 567 L 313 574 L 311 578 L 315 581 L 315 584 L 310 591 L 310 594 L 309 595 L 309 603 L 313 615 L 313 618 L 318 631 L 318 634 L 321 637 L 332 638 L 333 639 L 337 639 L 346 642 L 349 644 L 357 646 L 363 650 L 362 652 L 361 651 L 356 651 L 355 650 L 349 650 L 348 649 L 337 648 L 332 646 L 314 645 L 313 646 L 307 647 L 297 652 L 291 658 L 287 667 L 287 672 L 286 674 L 287 676 L 291 679 L 297 680 L 298 679 L 298 673 L 300 670 L 300 668 L 305 663 L 309 661 L 312 661 L 314 663 L 309 672 L 307 678 L 307 682 L 309 684 L 312 684 L 313 685 L 327 686 L 329 684 L 329 674 L 330 671 L 335 666 L 337 666 L 339 668 L 339 673 L 335 684 L 337 687 L 345 687 L 346 688 L 386 687 L 387 686 L 397 686 L 398 685 L 410 684 L 420 680 L 423 677 L 426 670 L 426 653 L 420 635 L 420 631 L 424 626 L 424 620 L 425 617 L 431 611 L 434 606 L 450 591 L 470 578 L 491 559 L 499 549 L 507 534 L 511 522 L 512 509 L 510 507 L 494 507 L 493 506 L 487 506 L 480 502 L 478 502 L 470 496 L 461 493 L 455 489 L 447 481 L 445 476 L 445 473 L 442 467 L 435 461 L 433 457 L 433 454 L 432 453 L 433 443 L 437 435 L 443 427 L 446 421 L 446 416 L 447 415 L 447 401 L 446 398 L 434 385 L 433 382 L 435 380 L 440 380 L 443 381 L 446 385 L 448 386 L 453 381 L 457 380 L 462 388 L 461 398 L 460 399 L 460 409 L 459 410 L 459 415 L 458 416 L 457 423 L 455 428 L 445 442 L 444 450 L 446 455 L 449 457 L 453 456 L 461 449 L 464 451 L 463 453 L 463 457 L 457 467 L 456 474 L 458 478 L 465 484 L 472 484 L 474 483 L 484 473 L 485 473 L 487 475 L 487 477 L 484 485 L 484 490 L 487 494 L 490 495 L 499 495 L 501 494 L 505 489 L 507 484 L 511 480 L 513 482 L 513 491 L 512 492 L 512 495 L 513 496 L 519 495 L 525 491 L 531 489 L 535 486 L 537 482 L 542 476 L 542 474 L 548 463 L 550 457 L 550 453 L 554 442 L 555 429 L 556 428 L 556 414 L 555 413 L 555 407 L 554 406 L 554 400 L 553 398 L 555 396 L 558 395 L 557 387 L 554 380 L 556 375 L 556 368 L 555 367 L 555 361 L 553 357 L 544 348 L 544 343 L 536 337 L 533 336 L 528 331 L 529 326 L 526 323 L 517 317 L 504 313 L 500 309 L 498 304 L 491 301 L 475 299 L 473 298 L 470 295 L 470 293 L 467 291 L 462 291 L 461 290 L 448 290 L 446 288 L 452 281 L 459 277 L 467 269 L 472 258 L 473 250 L 475 248 L 476 249 L 479 249 L 481 246 L 481 233 L 480 230 L 483 228 L 487 231 L 489 228 L 488 222 L 483 212 L 483 208 L 485 206 L 490 207 L 491 206 L 491 201 L 477 186 L 479 183 L 485 183 L 487 181 L 487 178 L 484 175 L 474 170 L 472 168 L 475 164 L 475 161 L 468 153 L 461 139 L 455 132 L 455 130 L 461 126 L 468 119 L 471 112 L 471 105 L 472 104 L 470 93 L 467 88 L 456 77 L 451 74 Z M 250 553 L 254 554 L 256 556 L 258 556 L 274 568 L 289 576 L 296 584 L 296 588 L 297 589 L 297 603 L 296 604 L 296 608 L 297 609 L 297 622 L 299 624 L 303 632 L 303 634 L 301 636 L 293 635 L 287 630 L 284 630 L 277 627 L 266 618 L 255 606 L 253 602 L 253 597 L 252 595 L 247 591 L 246 580 L 244 575 L 245 568 L 246 567 L 247 556 Z M 227 388 L 229 385 L 231 385 L 233 387 L 231 389 L 228 389 Z M 176 362 L 179 360 L 182 363 L 179 365 Z M 158 345 L 159 343 L 165 343 L 166 344 L 164 347 Z M 152 340 L 153 339 L 156 339 L 157 342 L 155 344 L 152 342 Z M 446 73 L 453 76 L 457 79 L 465 87 L 470 95 L 471 109 L 467 119 L 463 123 L 453 130 L 453 132 L 462 142 L 467 153 L 474 162 L 471 166 L 471 168 L 473 170 L 480 173 L 486 178 L 486 180 L 484 182 L 476 182 L 475 185 L 488 199 L 490 202 L 490 204 L 488 206 L 487 205 L 482 205 L 481 206 L 481 210 L 486 220 L 488 227 L 486 229 L 482 226 L 479 226 L 478 227 L 479 235 L 480 236 L 480 245 L 478 247 L 476 246 L 473 246 L 472 247 L 471 258 L 467 267 L 464 270 L 462 270 L 461 269 L 461 264 L 458 262 L 450 275 L 445 281 L 444 281 L 441 277 L 439 278 L 437 284 L 429 293 L 428 297 L 429 298 L 434 298 L 440 294 L 447 291 L 460 291 L 473 299 L 490 301 L 494 303 L 496 305 L 497 309 L 500 312 L 511 316 L 514 316 L 520 319 L 526 325 L 525 330 L 530 335 L 535 337 L 540 342 L 541 346 L 553 359 L 552 361 L 552 373 L 553 374 L 554 383 L 556 387 L 556 391 L 554 393 L 551 393 L 550 394 L 550 398 L 554 406 L 555 416 L 556 417 L 556 425 L 554 428 L 553 442 L 551 445 L 551 448 L 549 452 L 549 457 L 544 464 L 544 466 L 541 471 L 541 475 L 537 481 L 532 486 L 521 493 L 516 494 L 514 492 L 515 489 L 515 481 L 513 478 L 511 478 L 506 483 L 506 485 L 500 493 L 498 494 L 490 494 L 487 491 L 487 483 L 488 482 L 488 473 L 487 472 L 484 472 L 472 483 L 465 483 L 463 482 L 458 477 L 457 469 L 464 457 L 464 449 L 461 448 L 454 454 L 449 455 L 445 451 L 445 444 L 448 438 L 455 429 L 459 419 L 460 407 L 461 406 L 461 396 L 464 390 L 464 386 L 457 378 L 453 378 L 452 379 L 441 378 L 440 379 L 433 379 L 432 380 L 432 383 L 435 388 L 444 396 L 445 401 L 447 404 L 447 408 L 446 409 L 445 422 L 443 426 L 437 433 L 432 443 L 431 455 L 434 461 L 443 470 L 445 476 L 445 479 L 447 483 L 456 492 L 457 492 L 464 500 L 464 504 L 467 507 L 468 511 L 471 514 L 471 517 L 468 521 L 465 519 L 464 520 L 463 529 L 459 534 L 459 537 L 456 540 L 454 539 L 452 535 L 451 536 L 451 538 L 447 544 L 447 547 L 448 548 L 448 563 L 447 564 L 447 569 L 441 581 L 441 585 L 435 594 L 429 599 L 427 603 L 419 610 L 418 612 L 418 616 L 416 620 L 413 623 L 413 629 L 415 631 L 415 635 L 416 636 L 416 650 L 413 656 L 413 660 L 411 663 L 411 667 L 407 672 L 405 673 L 405 674 L 407 676 L 408 676 L 409 674 L 414 675 L 416 671 L 419 673 L 419 675 L 418 676 L 417 675 L 417 679 L 412 682 L 407 682 L 406 683 L 398 684 L 397 685 L 379 686 L 378 687 L 368 687 L 367 688 L 340 687 L 336 684 L 336 681 L 340 670 L 340 667 L 338 665 L 335 665 L 331 668 L 328 675 L 328 683 L 326 685 L 315 685 L 314 684 L 311 684 L 308 681 L 309 673 L 315 663 L 314 660 L 311 660 L 304 663 L 301 666 L 297 674 L 297 676 L 295 678 L 291 677 L 288 674 L 288 666 L 292 658 L 299 651 L 308 648 L 311 646 L 328 646 L 329 647 L 346 649 L 351 651 L 357 651 L 363 653 L 369 653 L 370 652 L 362 647 L 345 642 L 340 639 L 322 636 L 319 633 L 319 631 L 317 628 L 317 625 L 313 616 L 312 609 L 310 605 L 310 593 L 311 590 L 315 586 L 318 580 L 315 579 L 313 576 L 324 566 L 324 563 L 331 556 L 341 550 L 354 540 L 357 539 L 364 534 L 373 530 L 374 527 L 369 525 L 357 525 L 344 531 L 334 538 L 311 560 L 307 563 L 299 562 L 298 565 L 295 568 L 294 568 L 287 561 L 283 554 L 281 553 L 277 553 L 267 547 L 262 541 L 258 538 L 252 539 L 250 537 L 242 522 L 242 517 L 241 516 L 241 504 L 240 503 L 235 509 L 233 508 L 234 499 L 235 498 L 235 495 L 237 492 L 238 485 L 235 485 L 229 490 L 227 488 L 228 479 L 230 476 L 231 472 L 234 468 L 234 464 L 233 463 L 228 464 L 226 461 L 228 456 L 238 444 L 239 441 L 238 438 L 231 438 L 229 436 L 232 431 L 239 425 L 243 419 L 243 416 L 242 415 L 239 416 L 237 414 L 237 412 L 246 403 L 251 401 L 260 392 L 263 387 L 263 384 L 262 383 L 256 385 L 251 391 L 248 387 L 248 384 L 253 374 L 252 366 L 257 355 L 256 347 L 261 342 L 261 340 L 260 339 L 257 339 L 254 342 L 252 351 L 249 355 L 245 365 L 241 369 L 238 369 L 237 370 L 234 369 L 228 369 L 223 367 L 219 367 L 216 364 L 216 363 L 224 355 L 223 354 L 210 354 L 209 353 L 206 353 L 200 348 L 186 348 L 184 346 L 184 344 L 189 340 L 187 337 L 179 336 L 176 334 L 169 332 L 167 330 L 159 327 L 140 314 L 126 301 L 122 295 L 114 287 L 111 285 L 109 287 L 106 284 L 102 276 L 98 264 L 74 246 L 64 235 L 63 232 L 60 229 L 59 227 L 59 220 L 62 216 L 66 214 L 71 214 L 74 211 L 80 214 L 85 215 L 87 214 L 90 210 L 90 204 L 85 198 L 75 193 L 70 193 L 68 197 L 66 198 L 64 194 L 64 191 L 69 185 L 75 185 L 84 190 L 91 197 L 94 194 L 101 196 L 104 195 L 107 191 L 107 184 L 104 175 L 99 170 L 96 168 L 90 168 L 86 173 L 83 172 L 84 166 L 88 162 L 91 161 L 97 162 L 103 166 L 110 176 L 111 180 L 114 185 L 119 184 L 121 186 L 126 188 L 130 188 L 134 185 L 135 182 L 134 174 L 130 166 L 124 161 L 120 161 L 119 162 L 117 160 L 121 156 L 127 156 L 134 164 L 137 170 L 139 180 L 141 182 L 143 182 L 148 177 L 148 175 L 151 172 L 158 172 L 163 177 L 165 181 L 166 192 L 165 193 L 165 203 L 161 212 L 161 216 L 162 218 L 171 227 L 190 250 L 193 250 L 196 248 L 201 253 L 209 267 L 214 272 L 217 270 L 218 265 L 221 264 L 223 266 L 228 278 L 231 281 L 233 282 L 235 279 L 238 277 L 241 280 L 243 285 L 248 292 L 250 292 L 251 291 L 251 288 L 254 287 L 265 298 L 266 301 L 270 306 L 274 306 L 277 302 L 276 295 L 277 294 L 290 305 L 294 306 L 294 302 L 287 295 L 283 292 L 277 290 L 274 292 L 259 276 L 256 275 L 252 270 L 252 266 L 251 264 L 249 264 L 247 266 L 244 267 L 240 263 L 241 244 L 240 243 L 237 243 L 233 246 L 231 244 L 231 238 L 234 229 L 236 226 L 236 223 L 235 222 L 229 223 L 228 222 L 228 219 L 229 218 L 229 215 L 235 204 L 234 203 L 229 203 L 227 204 L 226 203 L 226 199 L 237 186 L 236 177 L 238 171 L 244 160 L 245 155 L 236 151 L 229 144 L 225 135 L 225 123 L 229 112 L 232 108 L 239 102 L 249 98 L 263 98 L 269 101 L 277 109 L 277 110 L 281 111 L 284 108 L 295 102 L 301 100 L 305 100 L 308 97 L 308 95 L 310 93 L 328 93 L 329 92 L 329 89 L 327 86 L 327 83 L 329 81 L 335 83 L 342 88 L 347 88 L 358 78 L 361 78 L 362 79 L 362 83 L 360 87 L 360 90 L 361 91 L 367 89 L 371 89 L 372 88 L 382 88 L 383 89 L 398 92 L 408 96 L 410 94 L 410 92 L 414 85 L 424 76 L 436 72 Z M 445 63 L 432 63 L 431 64 L 425 65 L 411 73 L 406 78 L 405 81 L 403 83 L 399 83 L 398 82 L 395 82 L 390 80 L 386 80 L 385 79 L 373 79 L 370 76 L 370 74 L 366 69 L 361 68 L 352 71 L 345 77 L 334 72 L 325 72 L 320 75 L 318 81 L 314 85 L 310 85 L 309 86 L 303 87 L 291 93 L 286 97 L 282 97 L 273 91 L 261 87 L 247 88 L 229 96 L 220 106 L 214 124 L 214 135 L 215 136 L 216 143 L 219 149 L 223 154 L 231 161 L 231 165 L 225 177 L 225 186 L 217 195 L 215 200 L 215 206 L 216 209 L 219 212 L 219 216 L 217 219 L 217 225 L 218 228 L 222 232 L 223 235 L 222 237 L 222 245 L 224 250 L 222 252 L 221 251 L 216 251 L 215 252 L 211 251 L 206 245 L 202 237 L 198 234 L 190 234 L 179 219 L 173 213 L 173 208 L 175 204 L 176 183 L 175 182 L 174 175 L 169 167 L 166 164 L 161 162 L 152 162 L 146 165 L 141 159 L 140 156 L 135 149 L 131 146 L 128 146 L 127 145 L 119 146 L 115 148 L 107 155 L 103 155 L 96 152 L 87 152 L 84 154 L 82 154 L 79 156 L 76 160 L 74 165 L 74 170 L 70 174 L 66 174 L 61 177 L 57 181 L 53 190 L 53 197 L 54 198 L 54 201 L 56 203 L 56 206 L 50 213 L 48 218 L 48 227 L 53 238 L 57 244 L 69 256 L 89 271 L 92 283 L 104 304 L 113 315 L 123 325 L 130 329 L 134 333 L 134 341 L 135 343 L 145 352 L 156 356 L 159 359 L 160 365 L 165 370 L 171 373 L 182 376 L 189 385 L 195 388 L 203 390 L 212 397 L 220 400 L 225 400 L 228 401 L 230 403 L 229 408 L 227 411 L 226 423 L 219 432 L 219 435 L 218 436 L 218 439 L 221 447 L 217 454 L 215 460 L 215 471 L 218 475 L 218 479 L 217 480 L 217 496 L 222 505 L 223 515 L 225 519 L 228 522 L 233 535 L 233 544 L 232 545 L 233 565 L 232 566 L 232 573 L 231 574 L 231 581 L 233 587 L 233 598 L 236 605 L 240 611 L 251 624 L 264 633 L 271 636 L 274 636 L 283 639 L 287 642 L 287 645 L 281 653 L 275 664 L 275 667 L 274 668 L 274 679 L 276 684 L 281 688 L 290 692 L 301 694 L 305 696 L 309 696 L 315 698 L 322 698 L 323 699 L 371 699 L 372 698 L 384 698 L 385 697 L 394 697 L 395 696 L 401 696 L 407 694 L 412 694 L 413 693 L 423 691 L 428 688 L 433 683 L 438 673 L 438 670 L 439 669 L 439 657 L 438 656 L 438 651 L 436 648 L 436 644 L 435 643 L 436 640 L 436 634 L 438 630 L 446 623 L 448 615 L 453 611 L 456 610 L 459 600 L 474 585 L 481 581 L 494 569 L 497 568 L 504 561 L 511 552 L 514 546 L 519 541 L 528 537 L 532 534 L 537 528 L 542 520 L 542 518 L 547 507 L 549 485 L 557 471 L 557 469 L 562 458 L 562 453 L 564 448 L 564 444 L 566 438 L 566 433 L 568 427 L 568 418 L 570 415 L 570 388 L 571 387 L 570 385 L 571 382 L 571 371 L 570 370 L 569 363 L 565 356 L 565 354 L 563 352 L 562 349 L 555 342 L 548 332 L 538 324 L 534 319 L 524 310 L 510 302 L 498 293 L 478 284 L 474 284 L 472 282 L 472 279 L 479 269 L 481 263 L 489 253 L 490 246 L 491 245 L 491 241 L 498 233 L 498 220 L 497 219 L 497 216 L 501 210 L 501 202 L 499 197 L 494 190 L 494 188 L 497 184 L 497 177 L 494 172 L 486 166 L 482 154 L 479 151 L 476 144 L 469 134 L 471 130 L 477 124 L 482 112 L 482 99 L 481 98 L 481 94 L 478 88 L 478 86 L 476 84 L 475 81 L 467 73 L 455 66 L 449 64 L 446 64 Z M 446 64 L 447 65 L 453 66 L 464 72 L 475 83 L 479 90 L 481 96 L 481 101 L 482 102 L 482 110 L 478 121 L 469 131 L 468 134 L 472 139 L 474 144 L 480 153 L 483 159 L 485 167 L 487 169 L 489 169 L 497 178 L 497 183 L 493 188 L 493 190 L 497 195 L 501 204 L 501 209 L 496 216 L 498 222 L 498 231 L 495 236 L 490 240 L 490 248 L 489 249 L 489 252 L 481 262 L 476 273 L 473 276 L 471 282 L 473 284 L 479 285 L 488 290 L 497 293 L 509 302 L 522 309 L 526 312 L 538 325 L 542 327 L 548 333 L 552 340 L 562 350 L 567 360 L 570 369 L 570 385 L 569 386 L 569 406 L 570 407 L 570 411 L 569 412 L 569 416 L 567 421 L 567 430 L 566 431 L 565 442 L 564 443 L 560 462 L 555 472 L 555 474 L 549 484 L 549 488 L 548 489 L 548 501 L 547 502 L 546 509 L 540 522 L 536 528 L 528 536 L 523 539 L 517 541 L 504 560 L 496 568 L 492 570 L 482 579 L 472 586 L 459 599 L 455 608 L 446 615 L 445 621 L 437 629 L 435 635 L 435 646 L 436 647 L 437 655 L 438 656 L 438 669 L 437 670 L 436 676 L 432 683 L 427 688 L 419 692 L 411 693 L 410 694 L 405 694 L 404 695 L 399 695 L 398 696 L 384 697 L 383 698 L 368 698 L 367 699 L 327 699 L 326 698 L 311 697 L 310 696 L 307 696 L 306 695 L 303 695 L 302 694 L 299 694 L 295 692 L 292 692 L 282 688 L 276 682 L 275 680 L 275 667 L 280 656 L 288 645 L 289 641 L 286 639 L 268 634 L 254 625 L 242 613 L 234 600 L 234 589 L 232 585 L 232 580 L 231 579 L 232 570 L 233 569 L 233 562 L 234 561 L 234 556 L 233 555 L 233 543 L 234 542 L 234 537 L 233 536 L 233 533 L 231 530 L 230 524 L 225 518 L 223 514 L 222 503 L 219 499 L 217 494 L 218 474 L 215 469 L 216 458 L 219 451 L 221 449 L 221 444 L 219 441 L 219 434 L 221 430 L 227 423 L 227 413 L 230 407 L 231 402 L 229 400 L 224 400 L 223 399 L 216 398 L 210 395 L 203 389 L 191 386 L 186 381 L 185 378 L 183 376 L 166 370 L 161 365 L 158 356 L 148 353 L 142 349 L 135 342 L 134 340 L 134 332 L 131 329 L 124 325 L 114 315 L 104 303 L 93 284 L 89 270 L 70 256 L 59 245 L 53 237 L 49 228 L 48 220 L 50 214 L 57 207 L 57 203 L 55 201 L 54 198 L 54 189 L 57 182 L 64 176 L 71 175 L 74 173 L 74 168 L 75 167 L 76 161 L 82 155 L 86 153 L 93 152 L 94 153 L 98 153 L 103 156 L 106 156 L 111 153 L 115 149 L 121 146 L 129 146 L 139 155 L 143 163 L 146 166 L 154 162 L 159 162 L 164 164 L 170 170 L 175 180 L 175 202 L 172 210 L 172 213 L 182 224 L 186 231 L 191 235 L 198 235 L 203 240 L 207 248 L 212 253 L 221 252 L 226 256 L 228 256 L 228 253 L 224 248 L 222 242 L 223 232 L 218 226 L 218 218 L 221 214 L 221 212 L 216 207 L 216 198 L 226 186 L 226 182 L 225 181 L 226 179 L 226 175 L 233 162 L 233 160 L 228 157 L 220 149 L 216 142 L 215 134 L 214 133 L 214 126 L 215 125 L 215 121 L 216 120 L 217 114 L 221 106 L 226 100 L 236 93 L 250 88 L 262 88 L 263 89 L 266 89 L 275 93 L 282 98 L 285 98 L 304 87 L 311 86 L 312 85 L 316 85 L 318 83 L 319 77 L 324 73 L 334 73 L 345 78 L 350 73 L 359 69 L 363 69 L 365 70 L 369 74 L 369 76 L 372 80 L 387 80 L 388 81 L 403 84 L 415 71 L 420 68 L 422 68 L 424 66 L 430 65 L 431 64 Z" fill="#B1B1B1" fill-rule="evenodd"/><path d="M 268 197 L 268 201 L 267 202 L 267 211 L 268 212 L 269 216 L 277 224 L 279 224 L 282 226 L 285 226 L 288 229 L 289 231 L 289 237 L 290 238 L 290 241 L 292 244 L 292 246 L 295 252 L 297 254 L 298 257 L 301 260 L 301 261 L 305 265 L 305 266 L 313 274 L 321 279 L 323 278 L 322 276 L 316 270 L 314 266 L 314 258 L 318 251 L 324 245 L 325 245 L 328 242 L 331 241 L 333 239 L 337 237 L 339 237 L 340 236 L 344 236 L 345 235 L 347 235 L 348 236 L 353 236 L 360 240 L 365 245 L 366 247 L 366 253 L 365 254 L 364 259 L 359 268 L 359 271 L 360 271 L 362 269 L 367 260 L 367 258 L 369 254 L 369 251 L 370 250 L 370 247 L 371 246 L 371 242 L 372 241 L 372 232 L 373 231 L 373 216 L 372 215 L 372 209 L 371 208 L 370 204 L 368 202 L 366 202 L 363 207 L 358 212 L 349 217 L 347 217 L 341 220 L 338 220 L 337 221 L 321 221 L 320 220 L 316 220 L 315 219 L 311 219 L 310 218 L 306 218 L 305 217 L 303 217 L 294 222 L 286 223 L 285 222 L 282 222 L 278 220 L 274 215 L 273 211 L 272 210 L 272 194 L 270 194 Z M 279 185 L 279 194 L 280 196 L 287 203 L 295 207 L 306 207 L 307 206 L 309 206 L 315 203 L 321 198 L 322 198 L 322 197 L 326 192 L 326 185 L 319 179 L 317 179 L 314 177 L 311 177 L 310 176 L 297 176 L 296 177 L 293 177 L 292 178 L 290 178 L 283 181 Z M 287 155 L 283 155 L 281 156 L 277 163 L 277 166 L 276 167 L 276 173 L 278 176 L 283 176 L 285 175 L 287 173 L 289 169 L 289 167 L 290 166 L 290 160 Z M 366 150 L 363 153 L 361 157 L 360 166 L 361 167 L 361 170 L 362 172 L 365 175 L 371 175 L 376 169 L 376 166 L 377 165 L 377 160 L 376 159 L 375 154 L 371 150 Z M 294 117 L 293 116 L 289 116 L 283 119 L 278 125 L 278 129 L 280 130 L 286 125 L 294 120 Z M 365 109 L 365 111 L 370 114 L 376 115 L 381 118 L 384 118 L 385 117 L 385 114 L 384 112 L 380 109 L 378 109 L 374 107 L 367 107 Z M 446 65 L 431 65 L 430 66 L 424 67 L 422 69 L 420 69 L 415 72 L 403 85 L 400 85 L 399 84 L 396 84 L 395 83 L 392 83 L 391 82 L 388 82 L 387 81 L 372 81 L 369 78 L 368 74 L 365 71 L 363 70 L 359 70 L 350 74 L 345 79 L 334 74 L 324 74 L 320 77 L 319 83 L 316 86 L 312 86 L 311 87 L 307 87 L 306 88 L 304 88 L 285 99 L 282 99 L 275 94 L 266 90 L 263 90 L 262 89 L 250 89 L 249 90 L 246 90 L 240 93 L 238 93 L 234 96 L 231 97 L 227 101 L 226 101 L 222 106 L 218 114 L 217 120 L 216 121 L 216 125 L 215 126 L 215 133 L 216 134 L 216 139 L 217 140 L 217 142 L 221 149 L 228 156 L 229 156 L 234 160 L 234 162 L 227 175 L 227 179 L 226 180 L 227 182 L 227 186 L 217 198 L 217 207 L 222 212 L 222 214 L 219 218 L 219 226 L 224 232 L 224 238 L 223 239 L 223 242 L 224 243 L 224 246 L 229 253 L 229 256 L 228 257 L 226 257 L 221 253 L 216 253 L 215 254 L 212 254 L 206 248 L 202 240 L 198 236 L 191 236 L 185 231 L 181 224 L 176 219 L 176 218 L 175 218 L 172 215 L 171 213 L 171 210 L 172 209 L 173 203 L 174 202 L 174 180 L 171 173 L 164 165 L 160 164 L 159 163 L 154 163 L 146 167 L 142 163 L 138 155 L 131 148 L 129 147 L 121 147 L 115 150 L 111 154 L 106 157 L 103 157 L 98 154 L 94 154 L 93 153 L 86 154 L 82 156 L 77 161 L 76 167 L 75 168 L 75 173 L 71 176 L 67 176 L 61 179 L 58 182 L 55 189 L 55 198 L 56 199 L 56 201 L 58 203 L 58 207 L 51 214 L 51 216 L 49 220 L 50 228 L 54 237 L 60 244 L 60 245 L 70 255 L 71 255 L 76 260 L 87 267 L 90 270 L 94 284 L 96 288 L 98 290 L 99 293 L 101 295 L 102 298 L 104 300 L 105 303 L 115 314 L 115 315 L 124 324 L 131 328 L 135 332 L 135 340 L 136 342 L 142 348 L 143 348 L 148 352 L 155 354 L 156 355 L 158 355 L 160 357 L 160 361 L 162 365 L 166 369 L 170 371 L 172 371 L 173 372 L 175 372 L 176 373 L 183 375 L 186 378 L 187 381 L 191 385 L 203 388 L 210 394 L 216 397 L 218 397 L 219 398 L 223 398 L 224 399 L 229 399 L 232 402 L 231 407 L 228 413 L 228 423 L 222 430 L 220 434 L 220 441 L 222 444 L 222 449 L 220 451 L 217 458 L 217 461 L 216 462 L 216 469 L 219 474 L 218 494 L 219 495 L 220 499 L 223 503 L 224 514 L 226 518 L 231 524 L 232 530 L 234 533 L 234 536 L 235 537 L 235 542 L 234 543 L 234 555 L 235 556 L 235 561 L 234 562 L 234 569 L 233 570 L 233 575 L 232 576 L 232 579 L 233 580 L 233 585 L 235 589 L 235 600 L 238 606 L 243 612 L 243 613 L 254 624 L 268 633 L 274 634 L 275 635 L 286 638 L 290 641 L 289 645 L 281 656 L 276 667 L 276 680 L 277 682 L 282 687 L 286 689 L 288 689 L 292 691 L 295 691 L 299 693 L 310 695 L 311 696 L 326 697 L 327 698 L 367 698 L 368 697 L 383 697 L 384 696 L 391 696 L 392 695 L 398 695 L 399 694 L 404 694 L 405 693 L 410 693 L 411 692 L 419 691 L 427 687 L 431 683 L 435 676 L 436 670 L 437 669 L 437 656 L 436 655 L 436 651 L 435 650 L 435 647 L 434 646 L 434 635 L 435 634 L 435 631 L 436 629 L 444 621 L 445 615 L 449 611 L 454 608 L 458 599 L 472 585 L 473 585 L 477 581 L 482 578 L 492 569 L 496 567 L 507 555 L 508 552 L 510 550 L 514 543 L 517 540 L 525 537 L 535 528 L 535 527 L 539 522 L 542 516 L 542 514 L 545 509 L 545 507 L 546 506 L 546 502 L 547 501 L 547 489 L 548 488 L 548 484 L 550 480 L 552 478 L 554 474 L 554 472 L 557 467 L 557 465 L 559 462 L 560 456 L 561 455 L 561 451 L 562 450 L 562 447 L 563 446 L 563 443 L 564 442 L 564 437 L 565 436 L 565 431 L 566 430 L 566 421 L 567 420 L 568 412 L 569 411 L 569 407 L 568 406 L 569 369 L 568 368 L 568 365 L 566 362 L 566 360 L 561 350 L 551 340 L 547 333 L 542 328 L 538 326 L 532 320 L 532 319 L 522 310 L 509 303 L 497 294 L 493 292 L 488 291 L 479 286 L 473 285 L 470 282 L 470 280 L 472 276 L 475 273 L 480 262 L 488 252 L 488 249 L 489 248 L 489 240 L 494 236 L 497 231 L 497 222 L 496 221 L 496 218 L 495 216 L 500 209 L 500 204 L 496 195 L 492 190 L 492 188 L 496 183 L 496 178 L 495 176 L 489 170 L 487 170 L 484 167 L 482 159 L 479 153 L 477 151 L 471 139 L 467 134 L 468 131 L 477 121 L 479 117 L 480 111 L 481 110 L 481 102 L 480 101 L 480 96 L 479 95 L 478 90 L 474 83 L 464 73 L 453 67 L 447 66 Z M 535 492 L 537 494 L 537 505 L 532 517 L 530 519 L 528 523 L 524 527 L 522 525 L 524 509 L 529 499 Z M 445 71 L 446 72 L 451 73 L 456 76 L 468 88 L 471 93 L 471 95 L 472 96 L 472 101 L 473 102 L 471 115 L 469 119 L 461 127 L 456 130 L 456 132 L 462 139 L 469 153 L 476 161 L 476 164 L 473 167 L 473 168 L 481 172 L 488 178 L 488 181 L 485 184 L 479 184 L 478 186 L 490 198 L 490 199 L 492 201 L 492 206 L 490 208 L 487 208 L 486 207 L 484 208 L 484 212 L 489 222 L 490 228 L 487 232 L 486 232 L 483 229 L 481 230 L 481 232 L 482 233 L 482 246 L 481 248 L 479 250 L 476 250 L 475 249 L 474 250 L 474 252 L 473 253 L 473 258 L 468 269 L 459 278 L 452 282 L 447 288 L 448 289 L 461 289 L 462 290 L 467 290 L 469 291 L 471 293 L 471 295 L 475 298 L 480 298 L 481 299 L 491 300 L 498 303 L 500 305 L 501 309 L 504 312 L 506 312 L 507 313 L 512 314 L 515 316 L 517 316 L 521 318 L 525 322 L 526 322 L 530 326 L 530 329 L 529 331 L 533 335 L 536 336 L 545 343 L 545 348 L 554 357 L 556 361 L 556 367 L 557 368 L 557 375 L 556 376 L 555 380 L 558 387 L 559 395 L 557 397 L 555 397 L 554 398 L 555 400 L 555 406 L 556 407 L 556 413 L 557 414 L 557 428 L 556 429 L 555 442 L 553 446 L 553 449 L 551 453 L 551 457 L 550 458 L 549 463 L 543 474 L 543 476 L 535 487 L 534 487 L 531 490 L 529 490 L 519 496 L 513 497 L 511 495 L 511 492 L 512 491 L 512 482 L 511 481 L 508 484 L 506 489 L 501 495 L 499 496 L 490 496 L 489 495 L 487 495 L 483 490 L 483 485 L 484 484 L 485 478 L 486 477 L 486 475 L 485 474 L 484 474 L 474 484 L 472 485 L 465 485 L 463 484 L 457 478 L 455 474 L 456 467 L 462 457 L 462 453 L 463 451 L 461 450 L 453 457 L 449 458 L 445 455 L 444 451 L 443 450 L 443 445 L 444 444 L 444 442 L 454 428 L 455 424 L 456 423 L 456 420 L 457 419 L 457 416 L 458 415 L 458 410 L 459 409 L 459 399 L 460 398 L 460 392 L 461 391 L 461 388 L 457 381 L 453 382 L 448 387 L 447 387 L 443 382 L 441 382 L 440 381 L 435 381 L 434 382 L 435 385 L 446 396 L 447 400 L 448 401 L 448 415 L 447 416 L 447 421 L 444 427 L 435 440 L 435 442 L 434 443 L 434 447 L 433 448 L 433 453 L 434 454 L 434 457 L 436 461 L 443 467 L 446 473 L 446 476 L 447 477 L 448 481 L 455 488 L 456 488 L 461 492 L 468 494 L 478 501 L 480 501 L 487 505 L 493 505 L 494 506 L 510 506 L 513 509 L 513 517 L 512 518 L 512 522 L 511 523 L 508 534 L 500 549 L 492 558 L 492 559 L 480 570 L 479 570 L 470 579 L 469 579 L 460 586 L 455 588 L 451 592 L 450 592 L 435 606 L 432 611 L 426 617 L 426 619 L 425 620 L 425 626 L 421 631 L 421 635 L 422 636 L 423 643 L 424 644 L 424 646 L 427 653 L 427 670 L 424 677 L 420 681 L 416 683 L 411 684 L 410 685 L 398 686 L 397 687 L 387 687 L 386 688 L 373 688 L 372 689 L 346 689 L 345 688 L 337 688 L 334 685 L 334 684 L 335 683 L 335 680 L 338 673 L 338 668 L 337 667 L 335 667 L 331 671 L 331 673 L 330 674 L 330 684 L 327 687 L 313 686 L 312 685 L 309 685 L 306 682 L 306 678 L 307 677 L 308 672 L 313 663 L 312 662 L 309 662 L 305 664 L 301 668 L 301 670 L 299 673 L 299 679 L 297 681 L 291 680 L 289 678 L 288 678 L 285 674 L 286 672 L 286 667 L 290 658 L 297 651 L 307 646 L 313 645 L 314 644 L 324 644 L 325 645 L 332 645 L 333 646 L 336 646 L 337 647 L 342 647 L 343 648 L 348 648 L 349 649 L 355 649 L 356 650 L 361 650 L 362 651 L 362 650 L 357 647 L 349 645 L 346 643 L 344 643 L 337 640 L 327 639 L 326 638 L 321 638 L 317 634 L 317 631 L 316 630 L 316 628 L 315 627 L 315 625 L 312 618 L 312 615 L 311 614 L 310 608 L 309 607 L 309 604 L 308 603 L 308 595 L 309 594 L 309 591 L 314 584 L 314 581 L 313 581 L 310 578 L 310 577 L 313 573 L 314 573 L 321 567 L 323 562 L 329 556 L 333 554 L 336 551 L 340 549 L 347 543 L 348 543 L 359 535 L 369 530 L 370 528 L 369 527 L 365 527 L 364 526 L 359 526 L 344 533 L 342 535 L 338 537 L 334 541 L 333 541 L 317 557 L 316 557 L 307 567 L 304 574 L 302 576 L 300 580 L 300 587 L 299 588 L 299 612 L 300 613 L 301 622 L 302 623 L 302 625 L 305 632 L 305 636 L 303 638 L 294 638 L 292 636 L 289 635 L 287 633 L 283 631 L 275 629 L 273 627 L 270 626 L 251 607 L 246 599 L 246 596 L 245 595 L 245 586 L 242 580 L 243 570 L 244 569 L 244 553 L 247 549 L 249 549 L 259 554 L 262 557 L 265 558 L 275 566 L 279 568 L 281 568 L 293 574 L 296 574 L 295 572 L 292 571 L 288 567 L 286 567 L 282 565 L 275 557 L 271 556 L 270 555 L 266 555 L 256 549 L 253 546 L 253 545 L 249 540 L 241 524 L 241 521 L 240 520 L 240 507 L 239 507 L 234 513 L 232 511 L 232 501 L 233 500 L 233 496 L 235 492 L 235 488 L 234 488 L 229 493 L 228 493 L 226 491 L 226 481 L 229 475 L 229 473 L 232 468 L 232 466 L 231 465 L 230 466 L 226 467 L 224 465 L 224 461 L 228 453 L 232 449 L 232 448 L 237 442 L 237 440 L 236 439 L 233 439 L 231 440 L 228 437 L 228 434 L 231 431 L 231 430 L 238 424 L 241 419 L 240 417 L 237 417 L 235 415 L 235 413 L 236 411 L 242 405 L 244 401 L 244 399 L 246 395 L 246 392 L 247 391 L 247 388 L 246 386 L 251 376 L 251 370 L 250 369 L 250 366 L 255 354 L 253 354 L 250 358 L 248 365 L 247 366 L 247 368 L 243 372 L 241 376 L 241 378 L 240 379 L 240 381 L 239 382 L 239 384 L 237 387 L 236 391 L 234 393 L 231 393 L 230 392 L 226 392 L 225 391 L 220 391 L 218 390 L 215 387 L 215 384 L 214 383 L 212 383 L 211 382 L 200 382 L 198 381 L 196 379 L 199 374 L 198 372 L 187 370 L 186 369 L 184 369 L 183 368 L 181 368 L 180 367 L 178 367 L 171 364 L 169 362 L 169 360 L 172 357 L 172 355 L 165 351 L 163 351 L 154 346 L 152 346 L 145 342 L 143 340 L 143 338 L 145 336 L 148 336 L 150 335 L 151 333 L 140 326 L 136 322 L 135 322 L 131 318 L 130 318 L 117 305 L 117 304 L 113 300 L 110 294 L 108 292 L 107 289 L 105 287 L 97 266 L 93 262 L 90 261 L 77 250 L 76 250 L 61 234 L 57 226 L 57 221 L 59 217 L 63 213 L 69 212 L 70 211 L 70 209 L 67 205 L 63 197 L 63 190 L 64 189 L 64 187 L 67 184 L 69 183 L 75 183 L 82 186 L 87 191 L 88 191 L 88 189 L 85 185 L 85 183 L 82 176 L 82 167 L 84 163 L 88 160 L 97 160 L 101 162 L 109 171 L 113 180 L 114 180 L 114 163 L 115 162 L 116 158 L 120 154 L 127 154 L 134 161 L 137 166 L 140 178 L 142 180 L 150 171 L 152 170 L 157 170 L 159 171 L 164 176 L 167 182 L 167 199 L 166 200 L 166 205 L 163 212 L 163 216 L 180 235 L 180 236 L 185 241 L 188 246 L 190 248 L 192 248 L 195 245 L 197 245 L 203 253 L 204 256 L 206 258 L 209 264 L 214 269 L 216 267 L 216 264 L 218 261 L 220 261 L 225 266 L 227 270 L 228 275 L 232 279 L 234 278 L 234 276 L 236 274 L 238 274 L 241 277 L 245 285 L 248 289 L 251 284 L 254 284 L 265 295 L 269 302 L 271 304 L 273 304 L 275 302 L 275 298 L 270 290 L 266 286 L 266 285 L 259 278 L 256 277 L 251 272 L 251 269 L 249 267 L 247 269 L 243 269 L 239 265 L 239 263 L 238 262 L 238 253 L 239 252 L 239 247 L 238 246 L 236 246 L 235 247 L 231 247 L 230 246 L 230 237 L 231 236 L 231 233 L 232 232 L 234 225 L 228 226 L 226 224 L 226 219 L 232 206 L 231 205 L 226 206 L 224 204 L 224 199 L 228 194 L 228 193 L 230 192 L 235 186 L 235 181 L 234 180 L 234 178 L 235 177 L 236 172 L 242 161 L 243 156 L 240 154 L 238 154 L 234 152 L 228 146 L 228 144 L 226 142 L 226 140 L 224 137 L 224 134 L 223 133 L 223 125 L 224 124 L 224 120 L 225 119 L 225 117 L 229 109 L 237 101 L 243 98 L 245 98 L 246 97 L 250 97 L 251 96 L 261 96 L 262 97 L 267 98 L 272 101 L 278 108 L 281 108 L 283 106 L 285 106 L 295 100 L 298 100 L 299 99 L 304 98 L 306 94 L 308 92 L 310 92 L 311 91 L 326 91 L 327 89 L 324 83 L 327 80 L 333 80 L 343 86 L 347 86 L 355 78 L 359 77 L 360 76 L 362 76 L 364 78 L 364 83 L 362 87 L 363 88 L 371 87 L 372 86 L 382 86 L 383 87 L 388 87 L 389 88 L 392 88 L 393 89 L 401 91 L 407 94 L 409 92 L 409 89 L 410 87 L 420 77 L 421 77 L 423 75 L 429 72 L 432 72 L 433 71 Z" fill="#010101" fill-rule="evenodd"/></svg>