<svg xmlns="http://www.w3.org/2000/svg" viewBox="0 0 653 704" shape-rendering="geometricPrecision"><title>intro frame 083</title><path d="M 222 515 L 219 519 L 223 522 L 223 527 L 217 540 L 222 539 L 224 541 L 224 545 L 220 556 L 220 559 L 218 564 L 218 568 L 223 567 L 225 569 L 223 582 L 227 585 L 227 596 L 229 600 L 229 604 L 232 612 L 232 615 L 235 621 L 238 624 L 246 624 L 255 627 L 259 630 L 259 632 L 257 634 L 252 634 L 251 633 L 243 632 L 242 631 L 226 631 L 225 632 L 221 632 L 212 635 L 205 641 L 202 647 L 201 661 L 202 663 L 205 665 L 205 661 L 206 660 L 206 657 L 208 651 L 213 646 L 218 645 L 221 648 L 221 652 L 218 658 L 218 668 L 221 670 L 229 671 L 230 670 L 230 661 L 233 654 L 238 650 L 242 650 L 245 654 L 243 660 L 243 663 L 242 664 L 242 671 L 244 673 L 266 673 L 267 672 L 273 672 L 278 667 L 283 665 L 286 662 L 288 662 L 294 656 L 295 653 L 293 645 L 290 644 L 287 639 L 288 637 L 287 635 L 289 633 L 292 633 L 294 629 L 294 626 L 292 624 L 291 621 L 293 617 L 293 612 L 292 609 L 280 596 L 280 590 L 282 588 L 288 593 L 287 588 L 290 586 L 290 584 L 272 567 L 266 558 L 256 549 L 255 545 L 249 540 L 246 539 L 238 531 L 238 530 Z M 252 587 L 255 586 L 256 588 L 254 590 Z M 261 578 L 263 578 L 266 581 L 269 587 L 270 591 L 268 593 L 263 589 L 260 582 L 260 579 Z M 275 574 L 276 574 L 278 577 L 277 586 L 276 587 L 272 584 L 272 579 L 273 576 Z M 243 570 L 245 572 L 245 574 L 241 578 L 239 578 L 238 577 L 238 574 Z M 460 510 L 458 510 L 448 519 L 444 520 L 437 527 L 433 526 L 426 534 L 422 534 L 414 543 L 409 543 L 399 554 L 396 561 L 387 575 L 386 581 L 383 589 L 384 590 L 383 591 L 386 591 L 389 594 L 389 608 L 394 612 L 394 628 L 398 628 L 402 633 L 402 642 L 403 643 L 403 646 L 402 647 L 401 657 L 400 658 L 401 669 L 406 675 L 408 675 L 410 677 L 416 679 L 419 679 L 420 680 L 425 680 L 426 681 L 435 681 L 436 680 L 436 665 L 437 662 L 440 659 L 444 659 L 448 663 L 448 666 L 449 667 L 449 681 L 450 682 L 467 682 L 468 681 L 468 668 L 467 667 L 467 663 L 468 660 L 470 658 L 475 658 L 479 662 L 481 666 L 482 680 L 483 681 L 484 680 L 491 680 L 495 678 L 494 658 L 497 655 L 501 656 L 505 660 L 507 664 L 508 675 L 509 676 L 514 672 L 516 667 L 515 655 L 512 649 L 507 644 L 501 642 L 494 638 L 489 638 L 486 640 L 478 640 L 477 639 L 457 639 L 456 640 L 451 640 L 450 641 L 446 641 L 440 639 L 439 640 L 437 638 L 439 636 L 442 636 L 446 634 L 451 634 L 452 633 L 462 632 L 463 631 L 475 631 L 476 632 L 481 632 L 480 625 L 478 621 L 478 618 L 479 617 L 478 615 L 482 610 L 484 610 L 484 606 L 482 602 L 484 600 L 487 602 L 489 601 L 488 597 L 485 594 L 476 590 L 474 588 L 472 588 L 460 578 L 461 575 L 464 575 L 470 578 L 483 582 L 483 578 L 482 576 L 478 573 L 469 563 L 469 561 L 470 560 L 473 560 L 482 566 L 484 566 L 484 563 L 482 560 L 481 556 L 478 553 L 473 550 L 469 549 L 466 546 L 468 544 L 471 545 L 478 545 L 479 543 L 476 541 L 471 535 L 472 534 L 476 534 L 480 536 L 481 535 L 470 524 L 470 522 L 465 514 Z M 440 582 L 442 583 L 449 591 L 452 597 L 450 599 L 446 597 L 438 588 L 438 584 Z M 430 580 L 432 582 L 432 586 L 431 587 L 431 590 L 428 593 L 426 591 L 426 586 L 427 583 Z M 403 563 L 404 564 L 404 569 L 400 574 L 398 572 L 398 568 L 399 566 Z M 111 418 L 107 418 L 101 422 L 98 422 L 98 424 L 101 425 L 110 420 Z M 77 418 L 76 418 L 76 421 L 73 428 L 76 430 L 77 429 L 76 427 L 76 421 Z M 437 21 L 434 21 L 433 20 L 423 20 L 419 22 L 416 22 L 414 24 L 412 24 L 403 32 L 401 35 L 401 38 L 398 42 L 395 42 L 386 38 L 383 38 L 378 36 L 374 36 L 373 35 L 367 35 L 366 34 L 359 34 L 353 36 L 348 36 L 346 34 L 348 27 L 346 26 L 335 35 L 323 28 L 320 28 L 319 29 L 321 33 L 321 36 L 317 39 L 300 39 L 297 43 L 284 47 L 271 55 L 267 55 L 265 53 L 263 48 L 259 44 L 251 40 L 239 40 L 233 42 L 226 46 L 219 53 L 218 56 L 216 58 L 216 61 L 214 65 L 214 78 L 217 84 L 221 89 L 227 93 L 231 94 L 234 97 L 234 101 L 231 105 L 231 108 L 224 122 L 225 131 L 214 143 L 214 144 L 219 144 L 222 147 L 221 152 L 214 163 L 214 164 L 220 164 L 222 166 L 222 169 L 220 172 L 220 175 L 218 179 L 218 186 L 225 185 L 227 187 L 227 190 L 226 191 L 226 206 L 227 209 L 229 210 L 230 207 L 232 205 L 234 205 L 236 207 L 237 210 L 238 220 L 239 221 L 242 219 L 245 220 L 248 223 L 250 228 L 255 229 L 257 231 L 270 237 L 278 245 L 280 251 L 278 253 L 275 253 L 270 249 L 264 248 L 260 251 L 261 252 L 261 259 L 254 263 L 252 263 L 250 261 L 248 256 L 239 256 L 228 266 L 222 268 L 217 268 L 214 269 L 211 272 L 207 273 L 209 277 L 204 282 L 194 285 L 190 290 L 187 290 L 184 292 L 178 293 L 166 302 L 165 307 L 163 309 L 153 314 L 143 322 L 131 326 L 109 337 L 107 337 L 104 340 L 95 345 L 69 346 L 68 347 L 65 347 L 59 351 L 59 352 L 61 351 L 81 351 L 86 355 L 86 361 L 85 362 L 86 363 L 96 363 L 111 375 L 114 379 L 115 383 L 117 385 L 117 388 L 120 397 L 124 397 L 134 393 L 142 393 L 148 389 L 156 387 L 159 385 L 162 385 L 164 383 L 169 383 L 171 381 L 176 380 L 187 369 L 189 369 L 193 365 L 197 364 L 202 359 L 207 358 L 210 356 L 211 352 L 215 349 L 215 347 L 219 339 L 220 333 L 227 322 L 227 317 L 230 312 L 234 308 L 233 303 L 235 300 L 235 298 L 238 295 L 238 293 L 240 291 L 238 287 L 245 280 L 246 283 L 243 289 L 246 292 L 246 294 L 238 302 L 238 304 L 241 304 L 243 306 L 243 310 L 239 318 L 233 339 L 236 338 L 247 329 L 250 331 L 250 333 L 247 339 L 243 343 L 240 348 L 228 358 L 221 369 L 224 370 L 226 372 L 226 376 L 213 393 L 213 395 L 215 394 L 219 394 L 221 396 L 221 398 L 217 404 L 208 423 L 209 425 L 210 424 L 214 424 L 216 426 L 215 431 L 213 434 L 209 453 L 213 450 L 215 452 L 214 473 L 215 474 L 217 473 L 220 474 L 221 484 L 223 490 L 225 492 L 228 493 L 232 499 L 236 499 L 240 504 L 240 506 L 243 512 L 248 511 L 254 518 L 258 525 L 261 523 L 269 530 L 272 530 L 273 529 L 276 530 L 286 539 L 289 537 L 291 538 L 291 536 L 283 524 L 283 522 L 280 517 L 280 513 L 279 512 L 279 509 L 280 508 L 282 508 L 284 510 L 285 514 L 295 528 L 309 540 L 311 540 L 316 534 L 318 534 L 323 538 L 337 523 L 340 526 L 338 532 L 338 535 L 336 538 L 336 542 L 338 543 L 344 537 L 346 537 L 356 528 L 359 530 L 359 534 L 356 542 L 359 543 L 363 541 L 368 536 L 373 528 L 374 524 L 379 518 L 382 520 L 382 524 L 383 524 L 386 513 L 388 511 L 391 513 L 392 516 L 392 529 L 391 530 L 392 533 L 394 532 L 403 520 L 403 518 L 407 510 L 407 507 L 410 503 L 413 503 L 415 505 L 415 513 L 413 518 L 413 521 L 414 521 L 422 511 L 425 505 L 425 502 L 426 501 L 426 498 L 428 492 L 430 490 L 432 492 L 433 495 L 432 505 L 433 506 L 437 500 L 437 498 L 439 496 L 442 483 L 447 478 L 447 476 L 452 472 L 452 464 L 451 462 L 453 457 L 453 448 L 451 443 L 453 441 L 456 441 L 457 440 L 457 437 L 450 427 L 451 425 L 456 426 L 456 424 L 454 422 L 449 422 L 445 419 L 441 414 L 441 412 L 443 410 L 448 414 L 452 415 L 454 413 L 453 408 L 447 403 L 433 401 L 429 396 L 431 394 L 440 394 L 441 395 L 450 396 L 448 391 L 445 388 L 442 382 L 438 377 L 439 371 L 433 365 L 429 359 L 431 357 L 439 360 L 438 355 L 433 348 L 434 343 L 426 332 L 427 329 L 430 329 L 431 328 L 430 322 L 432 320 L 443 333 L 443 335 L 450 344 L 451 348 L 463 364 L 469 383 L 473 392 L 473 395 L 478 410 L 478 414 L 480 418 L 481 428 L 483 432 L 483 438 L 478 451 L 478 465 L 480 471 L 485 475 L 490 474 L 492 471 L 492 469 L 494 467 L 495 463 L 497 461 L 501 460 L 504 464 L 504 474 L 503 475 L 503 478 L 501 484 L 499 487 L 499 490 L 505 494 L 512 494 L 518 488 L 523 477 L 526 475 L 528 475 L 531 478 L 531 487 L 529 492 L 529 496 L 534 496 L 536 493 L 540 490 L 545 482 L 545 479 L 547 475 L 549 473 L 552 473 L 555 476 L 555 479 L 556 480 L 555 484 L 556 485 L 557 482 L 562 478 L 564 473 L 564 470 L 566 465 L 566 461 L 567 460 L 567 456 L 568 455 L 568 440 L 567 439 L 565 425 L 567 423 L 568 424 L 569 422 L 564 409 L 564 406 L 562 402 L 559 399 L 558 396 L 558 392 L 561 390 L 561 388 L 549 368 L 551 365 L 553 366 L 555 366 L 555 365 L 548 355 L 536 341 L 538 338 L 541 338 L 542 339 L 545 339 L 545 338 L 532 325 L 517 313 L 518 310 L 527 310 L 527 309 L 520 303 L 507 295 L 502 290 L 504 287 L 508 287 L 508 286 L 492 278 L 489 275 L 489 273 L 491 271 L 497 271 L 497 270 L 487 263 L 477 258 L 473 257 L 469 252 L 471 250 L 474 249 L 474 248 L 464 244 L 461 244 L 458 242 L 452 241 L 451 240 L 441 239 L 440 240 L 434 240 L 430 245 L 424 245 L 417 249 L 409 248 L 407 250 L 399 254 L 396 250 L 396 244 L 399 239 L 399 236 L 403 232 L 405 232 L 407 237 L 410 233 L 411 227 L 414 226 L 415 228 L 417 229 L 419 227 L 421 221 L 421 218 L 422 217 L 425 218 L 427 217 L 427 213 L 429 209 L 432 206 L 436 207 L 436 203 L 429 196 L 429 195 L 432 193 L 435 195 L 439 196 L 441 198 L 442 197 L 442 192 L 440 190 L 439 187 L 441 185 L 444 185 L 446 187 L 449 186 L 449 181 L 445 177 L 447 175 L 450 175 L 451 173 L 449 169 L 443 163 L 444 161 L 449 161 L 459 167 L 463 164 L 464 165 L 464 172 L 471 175 L 471 172 L 468 166 L 465 155 L 469 152 L 471 153 L 474 152 L 471 146 L 461 135 L 461 132 L 463 130 L 471 130 L 471 129 L 458 118 L 457 115 L 460 112 L 460 110 L 458 108 L 458 106 L 452 94 L 443 81 L 443 77 L 445 75 L 450 73 L 458 64 L 459 60 L 461 57 L 461 48 L 460 47 L 459 41 L 455 34 L 444 24 Z M 258 493 L 260 493 L 262 495 L 263 499 L 270 511 L 271 517 L 269 520 L 268 520 L 261 513 L 259 509 L 258 499 L 257 498 L 257 494 Z M 400 487 L 402 489 L 402 492 L 403 493 L 403 500 L 401 502 L 399 499 L 400 497 L 400 492 L 398 490 Z M 260 467 L 261 468 L 261 475 L 259 480 L 257 481 L 256 480 L 256 473 L 258 468 Z M 424 452 L 427 455 L 431 463 L 435 468 L 435 470 L 438 476 L 436 478 L 436 480 L 430 485 L 431 488 L 429 490 L 423 490 L 421 492 L 420 498 L 418 499 L 417 498 L 417 494 L 419 489 L 418 479 L 414 472 L 416 470 L 418 470 L 421 473 L 423 472 L 423 462 L 422 461 L 421 454 Z M 247 445 L 248 446 L 248 450 L 246 454 L 243 468 L 240 471 L 238 469 L 237 466 L 238 457 L 242 448 L 245 445 Z M 397 423 L 399 421 L 402 421 L 403 422 L 414 422 L 417 425 L 415 427 L 411 427 L 411 430 L 409 432 L 405 432 L 399 427 Z M 244 420 L 246 422 L 246 424 L 243 427 L 238 437 L 234 440 L 232 438 L 232 433 L 235 427 L 241 421 Z M 411 401 L 413 399 L 420 403 L 422 403 L 428 406 L 436 414 L 436 416 L 433 417 L 430 415 L 426 415 L 425 418 L 427 422 L 424 424 L 419 419 L 417 409 L 413 405 Z M 405 392 L 407 390 L 412 390 L 415 393 L 412 396 L 410 396 Z M 417 383 L 419 381 L 423 381 L 425 383 L 426 388 L 425 389 L 421 389 L 417 385 Z M 366 371 L 368 369 L 374 370 L 380 374 L 382 374 L 384 376 L 388 377 L 391 380 L 392 383 L 389 386 L 377 377 L 371 375 Z M 418 369 L 420 367 L 427 367 L 431 370 L 431 375 L 425 380 L 422 377 L 422 375 L 419 372 Z M 391 368 L 392 366 L 395 364 L 398 366 L 400 366 L 404 371 L 401 374 L 393 375 L 391 373 Z M 515 348 L 516 347 L 521 348 L 524 352 L 523 353 L 517 351 Z M 412 342 L 414 340 L 418 340 L 421 342 L 425 342 L 430 344 L 431 347 L 430 348 L 417 347 L 415 346 Z M 352 312 L 358 309 L 360 309 L 366 314 L 370 314 L 371 311 L 373 310 L 374 311 L 374 317 L 372 319 L 363 318 L 361 316 L 358 315 L 354 317 L 352 314 Z M 410 308 L 414 312 L 417 318 L 417 325 L 419 328 L 417 330 L 410 326 L 407 326 L 401 323 L 402 321 L 414 322 L 408 312 L 408 310 Z M 305 307 L 306 309 L 301 313 L 299 311 L 303 307 Z M 410 296 L 412 294 L 414 294 L 417 297 L 418 300 L 416 302 L 414 302 L 411 299 Z M 296 294 L 297 295 L 291 304 L 288 307 L 286 307 L 285 305 L 290 299 L 290 297 L 292 295 Z M 363 290 L 366 292 L 367 298 L 370 302 L 370 305 L 369 306 L 361 297 L 361 292 Z M 400 287 L 401 288 L 400 292 L 402 295 L 402 298 L 403 299 L 403 302 L 405 304 L 405 307 L 397 316 L 394 316 L 390 313 L 394 310 L 398 310 L 400 307 L 400 300 L 396 295 L 396 292 L 398 290 L 398 288 Z M 252 267 L 255 271 L 252 274 L 248 276 L 246 274 L 246 271 L 250 267 Z M 392 262 L 395 258 L 397 258 L 399 260 L 395 263 Z M 379 245 L 379 248 L 377 252 L 367 262 L 347 277 L 340 278 L 337 280 L 330 280 L 319 275 L 316 272 L 313 271 L 305 265 L 298 258 L 296 254 L 296 252 L 299 249 L 305 249 L 306 250 L 314 251 L 315 252 L 337 252 L 338 251 L 344 251 L 345 250 L 354 249 L 355 248 L 358 248 L 359 247 L 362 247 L 363 246 L 366 246 L 375 243 L 377 243 Z M 394 240 L 395 243 L 388 253 L 388 255 L 385 258 L 383 256 L 384 249 L 392 240 Z M 367 131 L 371 125 L 378 121 L 381 121 L 382 120 L 396 120 L 397 121 L 402 121 L 410 124 L 417 131 L 419 137 L 419 140 L 415 146 L 407 150 L 402 150 L 401 151 L 388 150 L 387 149 L 384 149 L 379 146 L 377 146 L 373 143 L 368 137 Z M 289 111 L 294 107 L 300 105 L 303 105 L 304 104 L 310 104 L 311 105 L 316 105 L 321 107 L 326 113 L 324 115 L 318 115 L 315 113 L 309 113 L 308 112 L 291 114 Z M 269 98 L 272 97 L 277 98 L 281 104 L 282 111 L 279 120 L 282 120 L 283 119 L 299 119 L 300 120 L 303 120 L 313 124 L 319 131 L 319 137 L 314 145 L 308 150 L 302 152 L 297 155 L 292 155 L 291 156 L 280 155 L 273 151 L 266 144 L 266 143 L 264 142 L 263 143 L 263 157 L 265 160 L 270 164 L 277 166 L 278 165 L 281 165 L 287 161 L 293 160 L 297 162 L 310 164 L 311 165 L 323 165 L 324 164 L 327 164 L 328 163 L 331 163 L 337 161 L 343 158 L 350 151 L 350 149 L 354 145 L 357 146 L 363 153 L 364 156 L 364 185 L 363 186 L 363 191 L 358 206 L 352 217 L 345 224 L 333 232 L 327 233 L 326 234 L 316 234 L 310 231 L 306 230 L 302 227 L 291 216 L 284 207 L 276 193 L 276 191 L 273 185 L 272 176 L 262 171 L 255 163 L 252 157 L 252 150 L 251 148 L 242 155 L 237 157 L 230 156 L 224 150 L 224 144 L 227 138 L 231 134 L 236 131 L 242 130 L 243 129 L 248 129 L 251 130 L 256 135 L 262 135 L 263 134 L 266 125 L 262 120 L 261 113 L 262 112 L 262 108 L 265 102 Z M 355 94 L 360 94 L 364 96 L 366 98 L 370 108 L 369 117 L 367 121 L 363 125 L 360 126 L 355 126 L 353 125 L 350 122 L 346 112 L 346 108 L 347 107 L 348 101 L 349 99 Z M 289 63 L 289 67 L 287 69 L 277 73 L 274 76 L 270 78 L 268 78 L 265 75 L 264 71 L 266 67 L 276 59 L 283 58 L 286 59 Z M 247 54 L 255 60 L 257 63 L 257 66 L 252 71 L 247 79 L 239 87 L 235 87 L 228 80 L 226 76 L 226 67 L 231 59 L 236 55 L 239 54 Z M 350 56 L 357 50 L 364 50 L 373 54 L 376 57 L 378 61 L 378 64 L 375 68 L 370 69 L 362 64 L 352 61 L 350 59 Z M 429 34 L 432 34 L 439 37 L 446 45 L 449 53 L 448 60 L 446 63 L 437 71 L 431 68 L 426 62 L 413 52 L 413 46 L 416 42 L 422 37 Z" fill="#FBFBFB" fill-rule="evenodd"/><path d="M 208 653 L 208 655 L 210 650 L 215 646 L 218 646 L 220 648 L 220 651 L 217 658 L 217 669 L 220 671 L 223 671 L 224 672 L 230 672 L 231 671 L 231 661 L 232 658 L 238 651 L 241 651 L 244 654 L 243 659 L 244 654 L 242 651 L 238 651 L 234 654 L 231 661 L 231 670 L 229 672 L 226 672 L 225 671 L 221 671 L 217 668 L 217 658 L 220 652 L 220 648 L 218 646 L 215 646 L 213 647 Z M 508 644 L 513 649 L 516 655 L 516 660 L 517 661 L 517 667 L 516 670 L 510 677 L 507 675 L 507 668 L 504 660 L 501 657 L 497 656 L 495 659 L 495 658 L 498 656 L 505 662 L 507 668 L 507 676 L 508 677 L 510 677 L 514 674 L 517 668 L 517 659 L 513 649 Z M 232 616 L 235 623 L 237 625 L 245 625 L 246 626 L 249 626 L 254 628 L 256 630 L 255 633 L 248 632 L 251 632 L 252 633 L 257 633 L 258 632 L 258 630 L 255 628 L 246 625 L 238 625 L 234 621 Z M 440 583 L 439 584 L 439 588 L 446 596 L 450 598 L 451 597 L 448 591 L 445 587 Z M 430 581 L 428 583 L 427 586 L 427 591 L 428 592 L 430 590 L 430 587 L 431 586 L 431 582 Z M 261 579 L 261 582 L 264 589 L 268 592 L 269 590 L 265 581 L 263 579 Z M 275 575 L 273 579 L 273 584 L 276 586 L 277 577 L 276 575 Z M 243 571 L 239 574 L 239 577 L 241 577 L 244 574 Z M 403 564 L 402 564 L 399 568 L 399 572 L 400 573 L 403 569 Z M 258 494 L 260 509 L 262 513 L 268 519 L 269 519 L 270 517 L 269 511 L 264 503 L 261 495 Z M 261 500 L 263 501 L 263 503 L 267 509 L 268 512 L 266 514 L 263 511 L 263 509 L 261 507 L 261 504 L 260 503 Z M 400 488 L 399 490 L 401 492 L 401 497 L 400 498 L 401 501 L 402 500 L 402 493 Z M 260 468 L 259 468 L 257 473 L 257 480 L 258 480 L 260 475 Z M 424 453 L 422 454 L 422 457 L 424 462 L 424 472 L 422 474 L 418 471 L 415 472 L 418 476 L 419 479 L 419 485 L 420 486 L 420 489 L 418 494 L 418 498 L 419 498 L 420 492 L 423 489 L 429 489 L 430 488 L 429 485 L 435 480 L 435 478 L 437 476 L 434 470 L 434 468 Z M 426 462 L 429 464 L 429 467 L 430 468 L 428 471 L 426 469 L 426 464 L 425 463 Z M 247 446 L 245 446 L 243 448 L 239 457 L 238 466 L 240 470 L 242 468 L 245 454 L 247 450 Z M 582 439 L 582 445 L 583 446 L 582 464 L 581 465 L 581 468 L 579 472 L 578 478 L 571 490 L 559 501 L 540 510 L 534 512 L 524 512 L 519 510 L 512 510 L 511 511 L 512 514 L 512 527 L 511 528 L 511 532 L 515 540 L 515 549 L 512 552 L 512 554 L 515 560 L 516 565 L 515 560 L 512 554 L 513 551 L 515 549 L 515 540 L 511 531 L 511 528 L 512 527 L 512 514 L 511 512 L 513 510 L 519 510 L 524 512 L 534 512 L 540 510 L 554 503 L 556 503 L 562 499 L 573 488 L 574 485 L 576 483 L 576 481 L 578 479 L 578 476 L 582 465 L 582 457 L 583 456 Z M 398 423 L 400 427 L 405 431 L 409 431 L 411 426 L 415 426 L 416 425 L 414 423 L 403 423 L 402 422 L 399 422 Z M 244 421 L 241 422 L 236 427 L 233 433 L 233 438 L 234 439 L 237 437 L 242 427 L 245 424 Z M 142 420 L 132 421 L 128 423 L 106 439 L 103 440 L 96 445 L 84 450 L 73 450 L 70 449 L 64 444 L 62 439 L 51 440 L 61 440 L 68 448 L 73 450 L 84 450 L 85 449 L 89 449 L 110 437 L 128 423 L 132 421 Z M 412 401 L 414 405 L 418 409 L 420 419 L 424 423 L 426 422 L 424 418 L 424 416 L 426 414 L 430 414 L 433 416 L 435 416 L 435 414 L 428 407 L 422 404 L 420 404 L 413 400 Z M 48 392 L 42 394 L 35 400 L 34 403 L 34 409 L 38 411 L 39 409 L 38 406 L 41 399 L 44 397 Z M 406 392 L 410 395 L 412 395 L 414 393 L 412 391 L 407 391 Z M 418 383 L 418 385 L 421 388 L 425 388 L 423 382 L 419 382 Z M 40 375 L 37 377 L 37 383 L 38 384 L 40 384 L 42 381 L 42 377 Z M 367 371 L 371 374 L 377 376 L 389 385 L 391 383 L 390 380 L 388 378 L 386 378 L 374 371 L 371 370 L 368 370 Z M 420 368 L 419 369 L 420 372 L 423 375 L 423 377 L 426 379 L 430 375 L 430 370 L 427 368 Z M 392 368 L 392 373 L 393 374 L 398 374 L 401 373 L 403 371 L 400 367 L 398 367 L 394 365 Z M 516 348 L 517 350 L 523 352 L 521 349 Z M 413 343 L 417 346 L 430 347 L 430 345 L 425 343 L 421 343 L 418 341 L 414 341 Z M 538 339 L 537 341 L 549 355 L 556 365 L 555 367 L 551 366 L 550 368 L 562 388 L 562 390 L 559 392 L 559 396 L 560 399 L 563 402 L 565 406 L 565 409 L 570 422 L 568 425 L 567 424 L 566 425 L 566 428 L 567 426 L 570 426 L 571 425 L 570 424 L 570 421 L 568 415 L 566 412 L 566 409 L 564 403 L 560 397 L 560 394 L 561 393 L 565 394 L 565 392 L 551 369 L 553 367 L 555 368 L 558 367 L 555 364 L 548 353 L 538 342 L 538 341 L 541 339 Z M 569 441 L 569 455 L 568 456 L 568 460 L 567 461 L 567 465 L 566 466 L 565 473 L 563 478 L 558 482 L 556 486 L 554 484 L 555 481 L 554 476 L 552 474 L 549 474 L 546 479 L 546 482 L 541 490 L 538 492 L 534 497 L 529 497 L 528 496 L 528 492 L 530 487 L 530 478 L 528 476 L 526 476 L 524 477 L 519 488 L 512 495 L 505 495 L 498 490 L 498 487 L 500 484 L 502 478 L 502 475 L 503 474 L 503 464 L 501 461 L 497 462 L 495 465 L 495 467 L 493 469 L 492 473 L 488 476 L 483 475 L 479 471 L 477 465 L 477 451 L 482 438 L 482 432 L 480 428 L 479 418 L 477 414 L 477 410 L 472 395 L 472 392 L 468 383 L 462 364 L 450 348 L 449 344 L 442 335 L 442 333 L 432 321 L 431 322 L 432 328 L 430 330 L 427 330 L 427 332 L 435 343 L 434 348 L 439 355 L 440 360 L 438 361 L 431 358 L 430 359 L 434 365 L 440 371 L 439 377 L 443 382 L 446 388 L 449 391 L 451 396 L 450 397 L 446 397 L 440 395 L 431 395 L 430 396 L 433 400 L 436 401 L 444 401 L 449 403 L 454 408 L 455 413 L 452 416 L 448 415 L 443 411 L 442 412 L 442 414 L 445 418 L 449 421 L 454 421 L 457 424 L 456 427 L 451 426 L 452 429 L 458 437 L 458 440 L 456 442 L 453 442 L 452 443 L 454 448 L 454 457 L 452 462 L 453 464 L 453 472 L 448 476 L 448 478 L 443 483 L 440 496 L 438 498 L 438 500 L 435 505 L 433 507 L 431 505 L 432 495 L 430 491 L 427 498 L 426 505 L 423 511 L 420 514 L 419 517 L 413 522 L 412 521 L 412 518 L 414 513 L 414 505 L 413 504 L 410 504 L 408 507 L 408 510 L 404 518 L 404 520 L 393 534 L 390 532 L 391 529 L 391 516 L 389 512 L 387 513 L 384 524 L 382 525 L 381 524 L 381 520 L 379 519 L 375 524 L 374 528 L 369 536 L 363 542 L 359 544 L 357 544 L 355 542 L 358 534 L 358 530 L 357 529 L 337 544 L 335 542 L 335 538 L 337 535 L 337 532 L 339 527 L 337 524 L 323 539 L 318 535 L 316 535 L 311 541 L 309 541 L 294 528 L 284 514 L 284 512 L 282 509 L 280 509 L 281 517 L 284 522 L 284 524 L 292 536 L 291 539 L 289 538 L 286 540 L 276 531 L 273 530 L 272 531 L 269 531 L 261 524 L 258 526 L 250 514 L 248 512 L 243 513 L 236 500 L 232 500 L 230 498 L 229 495 L 225 493 L 222 490 L 220 484 L 219 474 L 215 475 L 213 473 L 214 452 L 213 451 L 210 454 L 208 453 L 208 450 L 209 449 L 212 435 L 210 441 L 209 449 L 208 450 L 208 456 L 211 454 L 214 456 L 213 478 L 214 479 L 217 476 L 219 478 L 222 493 L 226 500 L 229 503 L 229 510 L 227 512 L 221 511 L 220 515 L 216 522 L 217 523 L 220 522 L 222 524 L 222 527 L 219 532 L 216 541 L 217 542 L 219 541 L 222 541 L 223 542 L 223 545 L 221 549 L 221 552 L 217 564 L 217 569 L 218 570 L 222 568 L 224 570 L 223 578 L 222 579 L 222 584 L 226 587 L 226 596 L 228 600 L 229 607 L 228 600 L 226 596 L 226 585 L 222 582 L 224 569 L 223 568 L 220 568 L 219 569 L 217 568 L 217 564 L 218 563 L 219 556 L 223 545 L 223 541 L 222 540 L 219 541 L 216 540 L 222 527 L 222 522 L 218 519 L 222 514 L 225 516 L 246 538 L 249 539 L 256 545 L 257 549 L 267 558 L 273 567 L 291 584 L 291 586 L 288 588 L 289 593 L 287 594 L 282 589 L 281 590 L 281 596 L 293 609 L 294 612 L 294 617 L 292 621 L 293 624 L 295 626 L 295 629 L 294 632 L 292 634 L 289 634 L 288 635 L 289 636 L 288 639 L 290 643 L 292 643 L 295 647 L 295 650 L 296 651 L 295 656 L 288 663 L 286 663 L 283 666 L 278 668 L 273 673 L 267 673 L 266 674 L 244 674 L 241 671 L 241 666 L 241 672 L 243 674 L 270 674 L 271 673 L 279 673 L 280 672 L 287 672 L 288 671 L 307 669 L 308 668 L 315 667 L 323 662 L 326 655 L 326 640 L 324 635 L 324 628 L 325 627 L 328 627 L 329 628 L 330 627 L 330 610 L 329 609 L 328 596 L 330 594 L 333 596 L 334 595 L 334 581 L 335 580 L 335 574 L 324 572 L 309 566 L 305 562 L 305 559 L 307 557 L 313 557 L 325 561 L 330 561 L 335 563 L 349 564 L 350 565 L 361 565 L 362 564 L 368 564 L 373 562 L 378 562 L 381 565 L 381 568 L 375 573 L 375 576 L 380 585 L 380 588 L 382 594 L 383 595 L 384 594 L 387 594 L 388 595 L 388 611 L 391 611 L 393 613 L 393 628 L 395 632 L 398 630 L 401 633 L 401 642 L 402 643 L 402 646 L 400 652 L 400 657 L 400 652 L 402 646 L 402 643 L 401 642 L 401 633 L 398 629 L 394 629 L 393 628 L 393 612 L 388 608 L 388 594 L 386 592 L 383 592 L 382 591 L 383 590 L 382 589 L 383 588 L 383 585 L 385 581 L 386 575 L 391 568 L 398 554 L 409 542 L 414 542 L 422 533 L 426 533 L 433 525 L 437 526 L 444 519 L 448 518 L 458 509 L 460 509 L 466 514 L 471 522 L 471 524 L 482 535 L 480 537 L 476 535 L 472 535 L 472 536 L 480 543 L 478 546 L 471 546 L 470 545 L 467 546 L 469 548 L 473 549 L 478 552 L 482 556 L 483 560 L 485 563 L 485 566 L 482 567 L 475 562 L 470 561 L 470 563 L 478 571 L 478 572 L 483 576 L 484 578 L 484 582 L 483 583 L 470 579 L 464 576 L 461 576 L 461 578 L 472 587 L 474 587 L 476 589 L 485 593 L 489 597 L 490 601 L 488 603 L 484 601 L 483 602 L 485 606 L 485 610 L 482 611 L 479 615 L 480 616 L 479 621 L 482 629 L 482 632 L 481 633 L 476 633 L 475 632 L 463 632 L 462 633 L 457 633 L 451 635 L 446 635 L 438 638 L 439 639 L 440 638 L 446 640 L 456 639 L 447 640 L 446 637 L 448 635 L 451 635 L 452 634 L 470 632 L 471 633 L 482 634 L 485 637 L 483 639 L 478 639 L 486 639 L 489 637 L 494 637 L 506 643 L 503 641 L 499 640 L 496 637 L 496 634 L 498 631 L 498 627 L 499 626 L 500 605 L 501 604 L 501 600 L 500 599 L 500 586 L 498 581 L 498 579 L 501 576 L 497 569 L 497 565 L 499 564 L 503 567 L 504 567 L 504 565 L 500 558 L 498 551 L 493 543 L 493 541 L 496 539 L 502 542 L 502 539 L 494 523 L 494 519 L 495 518 L 499 520 L 500 518 L 498 515 L 497 508 L 487 498 L 485 491 L 476 487 L 467 477 L 464 468 L 464 451 L 465 450 L 466 443 L 469 437 L 468 428 L 466 425 L 464 411 L 462 408 L 462 404 L 458 393 L 458 389 L 455 384 L 452 375 L 450 373 L 450 371 L 448 369 L 442 356 L 437 349 L 436 343 L 435 342 L 435 338 L 436 337 L 442 339 L 445 342 L 462 367 L 462 369 L 465 374 L 466 379 L 469 384 L 472 393 L 472 396 L 474 400 L 474 403 L 475 404 L 475 407 L 476 408 L 476 411 L 479 420 L 479 425 L 482 432 L 482 437 L 479 443 L 477 449 L 477 453 L 476 454 L 476 463 L 479 472 L 484 476 L 489 476 L 493 472 L 495 465 L 499 461 L 503 464 L 503 473 L 502 474 L 502 477 L 499 484 L 496 487 L 496 489 L 499 492 L 507 496 L 511 496 L 513 495 L 519 489 L 522 483 L 522 481 L 524 478 L 527 476 L 530 479 L 530 485 L 526 496 L 528 498 L 536 497 L 539 495 L 544 489 L 544 487 L 546 484 L 546 481 L 548 478 L 548 476 L 550 474 L 554 477 L 554 485 L 553 486 L 554 489 L 562 481 L 566 471 L 566 468 L 568 463 L 568 458 L 569 457 Z M 265 528 L 276 540 L 277 542 L 275 544 L 274 544 L 265 535 L 263 532 L 263 529 Z M 251 519 L 262 533 L 260 535 L 255 531 L 249 522 Z M 285 518 L 295 531 L 301 537 L 299 539 L 297 538 L 289 529 L 284 521 Z M 412 508 L 413 509 L 413 513 L 411 519 L 408 521 L 407 520 L 408 513 L 410 509 Z M 237 504 L 239 506 L 244 517 L 244 519 L 242 521 L 239 518 L 239 516 L 236 511 L 235 506 Z M 353 312 L 354 316 L 358 314 L 361 315 L 363 317 L 366 317 L 367 318 L 372 318 L 373 317 L 373 311 L 372 311 L 372 313 L 370 315 L 366 315 L 360 310 Z M 410 309 L 409 312 L 415 322 L 414 323 L 402 322 L 402 323 L 407 325 L 410 325 L 417 329 L 418 328 L 416 325 L 416 318 L 413 312 Z M 412 295 L 411 296 L 412 299 L 414 301 L 416 301 L 417 300 L 416 297 L 414 295 Z M 296 295 L 294 295 L 291 297 L 291 299 L 288 302 L 286 306 L 288 306 Z M 363 291 L 362 292 L 362 297 L 369 305 L 369 302 L 366 298 L 365 292 Z M 400 288 L 399 288 L 399 290 L 397 292 L 397 295 L 401 300 L 401 307 L 398 311 L 394 311 L 391 313 L 394 315 L 397 315 L 397 314 L 404 307 L 404 304 L 402 302 L 401 295 L 399 292 Z M 171 280 L 166 280 L 146 291 L 135 303 L 132 304 L 122 312 L 119 312 L 108 317 L 102 324 L 96 328 L 84 328 L 83 327 L 79 327 L 70 323 L 65 323 L 62 324 L 60 326 L 58 326 L 55 329 L 54 332 L 52 333 L 42 344 L 41 346 L 41 350 L 39 354 L 41 350 L 41 346 L 45 340 L 49 336 L 54 334 L 61 327 L 66 325 L 70 325 L 71 326 L 76 326 L 79 328 L 83 328 L 84 329 L 95 329 L 106 321 L 111 316 L 117 313 L 120 313 L 131 306 L 140 299 L 142 296 L 150 289 L 157 286 L 166 280 Z M 518 276 L 525 282 L 525 288 L 524 291 L 533 297 L 543 307 L 545 311 L 543 318 L 557 332 L 563 341 L 563 346 L 561 349 L 561 352 L 566 358 L 571 367 L 571 374 L 570 377 L 574 382 L 579 392 L 579 401 L 577 405 L 580 411 L 582 417 L 582 420 L 583 421 L 584 431 L 582 437 L 584 432 L 584 426 L 583 425 L 582 416 L 580 413 L 580 410 L 578 408 L 577 405 L 580 399 L 580 396 L 577 387 L 570 377 L 571 375 L 571 367 L 568 361 L 561 352 L 561 349 L 563 347 L 563 341 L 562 338 L 543 318 L 545 314 L 545 311 L 543 307 L 539 302 L 525 291 L 525 282 Z M 252 268 L 250 268 L 247 271 L 247 274 L 248 275 L 254 271 Z M 378 245 L 375 244 L 374 245 L 370 245 L 366 247 L 363 247 L 354 250 L 350 250 L 344 252 L 338 252 L 337 253 L 315 253 L 314 252 L 310 252 L 305 250 L 299 250 L 297 252 L 297 254 L 299 258 L 305 264 L 313 270 L 316 271 L 319 274 L 330 279 L 337 279 L 340 277 L 347 276 L 354 270 L 361 266 L 376 252 L 378 248 Z M 351 270 L 345 275 L 342 275 L 341 274 L 344 270 L 347 270 L 348 269 Z M 307 255 L 310 253 L 311 254 L 317 254 L 320 256 L 317 258 L 316 257 L 309 257 Z M 299 253 L 301 251 L 304 251 L 306 253 L 305 257 L 309 262 L 314 266 L 328 273 L 331 273 L 332 274 L 335 274 L 336 273 L 338 276 L 335 278 L 330 278 L 318 272 L 308 265 L 299 256 Z M 394 241 L 392 241 L 386 247 L 384 252 L 384 256 L 385 257 L 387 255 L 387 253 L 389 251 L 390 248 L 393 245 Z M 205 183 L 205 187 L 206 188 L 207 194 L 213 201 L 213 209 L 215 212 L 215 214 L 220 220 L 224 222 L 228 226 L 228 228 L 231 234 L 241 241 L 240 243 L 236 243 L 233 245 L 229 245 L 223 248 L 221 248 L 212 256 L 209 257 L 205 257 L 212 256 L 220 249 L 229 245 L 233 245 L 234 244 L 240 243 L 242 241 L 234 236 L 229 230 L 228 225 L 225 222 L 223 222 L 216 215 L 213 208 L 213 199 L 207 193 L 205 187 Z M 308 123 L 311 124 L 316 128 L 318 134 L 315 142 L 308 149 L 303 151 L 311 147 L 316 141 L 318 137 L 318 131 L 317 129 L 313 125 Z M 368 131 L 369 137 L 373 142 L 377 145 L 379 145 L 384 148 L 387 148 L 388 149 L 394 149 L 395 150 L 407 149 L 415 145 L 418 140 L 418 137 L 416 131 L 410 125 L 402 122 L 397 122 L 396 121 L 382 121 L 381 122 L 378 122 L 371 126 Z M 369 130 L 375 124 L 380 122 L 388 122 L 389 121 L 400 122 L 409 125 L 416 132 L 417 134 L 417 141 L 413 145 L 403 149 L 388 148 L 376 143 L 369 136 Z M 228 138 L 225 144 L 225 150 L 230 155 L 237 156 L 245 152 L 250 147 L 252 148 L 253 150 L 253 157 L 256 163 L 262 170 L 271 174 L 273 176 L 275 188 L 279 197 L 281 199 L 285 207 L 292 216 L 306 229 L 316 233 L 326 233 L 327 232 L 330 232 L 341 226 L 351 217 L 357 206 L 362 191 L 362 186 L 363 185 L 363 156 L 362 153 L 357 147 L 354 146 L 351 150 L 353 147 L 356 147 L 360 151 L 362 155 L 362 160 L 363 161 L 363 181 L 362 182 L 362 187 L 361 188 L 360 195 L 357 204 L 355 207 L 355 209 L 351 216 L 345 222 L 338 226 L 335 229 L 333 229 L 327 232 L 315 232 L 304 227 L 299 223 L 290 213 L 282 202 L 279 195 L 277 193 L 274 184 L 273 176 L 271 174 L 264 171 L 257 164 L 253 157 L 253 144 L 254 143 L 254 140 L 258 136 L 261 136 L 263 138 L 263 142 L 261 148 L 261 153 L 263 159 L 268 164 L 275 167 L 278 167 L 279 166 L 282 166 L 288 162 L 281 166 L 275 167 L 267 163 L 262 157 L 262 143 L 264 141 L 265 141 L 273 150 L 280 154 L 283 154 L 278 153 L 272 149 L 268 145 L 265 140 L 264 132 L 266 128 L 269 125 L 267 124 L 263 119 L 266 123 L 267 127 L 264 132 L 264 134 L 262 136 L 256 136 L 251 131 L 243 130 L 234 133 Z M 253 135 L 253 137 L 251 139 L 247 136 L 243 136 L 242 135 L 241 136 L 240 135 L 238 136 L 229 146 L 229 148 L 232 150 L 232 152 L 230 153 L 226 149 L 227 142 L 235 134 L 243 131 L 248 131 Z M 290 111 L 291 113 L 296 113 L 297 112 L 302 112 L 303 111 L 315 112 L 318 114 L 324 114 L 325 113 L 321 108 L 316 106 L 311 106 L 310 105 L 300 106 L 294 108 Z M 276 99 L 279 102 L 281 109 L 280 110 L 280 115 L 274 123 L 283 120 L 299 120 L 283 120 L 282 121 L 279 121 L 278 118 L 280 115 L 281 107 L 278 100 Z M 355 95 L 353 96 L 349 101 L 348 107 L 347 108 L 347 112 L 351 122 L 355 125 L 360 125 L 363 124 L 366 121 L 368 117 L 369 108 L 368 107 L 368 104 L 364 97 L 360 95 Z M 355 95 L 360 95 L 362 96 L 366 100 L 366 102 L 368 104 L 368 116 L 366 120 L 360 125 L 356 125 L 350 120 L 347 111 L 349 101 L 350 99 Z M 287 61 L 283 59 L 276 60 L 267 67 L 265 71 L 266 75 L 268 77 L 270 77 L 274 75 L 277 72 L 287 68 L 288 67 L 288 63 Z M 288 63 L 288 66 L 285 69 L 277 72 L 270 77 L 268 77 L 266 75 L 266 70 L 267 68 L 273 62 L 279 59 L 283 59 Z M 247 55 L 239 55 L 236 56 L 232 59 L 227 67 L 227 76 L 229 80 L 235 86 L 239 86 L 246 79 L 251 71 L 256 66 L 256 63 L 254 60 Z M 247 57 L 254 63 L 254 65 L 248 72 L 245 78 L 238 85 L 237 85 L 231 80 L 228 71 L 229 70 L 231 71 L 233 77 L 235 76 L 238 78 L 238 76 L 240 74 L 240 70 L 243 69 L 243 68 L 246 66 L 246 64 L 248 61 L 243 62 L 242 64 L 241 64 L 240 62 L 238 62 L 232 65 L 231 63 L 239 56 Z M 351 56 L 355 52 L 351 56 L 351 59 L 354 61 L 362 63 L 370 68 L 375 67 L 377 64 L 377 61 L 375 57 L 370 53 L 366 52 L 371 54 L 377 61 L 377 64 L 373 68 L 370 68 L 363 63 L 354 61 L 351 58 Z M 429 35 L 422 38 L 417 42 L 414 46 L 414 52 L 426 61 L 431 67 L 437 70 L 440 68 L 447 60 L 448 53 L 445 45 L 439 38 L 432 35 Z M 426 37 L 433 37 L 436 38 L 443 44 L 447 51 L 447 57 L 445 61 L 438 68 L 435 68 L 427 59 L 415 51 L 415 47 L 416 45 L 421 40 L 424 39 Z M 415 22 L 410 24 L 404 29 L 401 33 L 399 39 L 397 41 L 392 40 L 387 37 L 374 35 L 373 34 L 367 34 L 366 33 L 358 33 L 357 34 L 352 34 L 350 35 L 348 33 L 348 30 L 350 27 L 350 24 L 349 23 L 343 26 L 336 33 L 333 33 L 328 29 L 322 26 L 318 26 L 317 28 L 320 34 L 318 37 L 316 38 L 299 38 L 295 43 L 292 43 L 286 45 L 278 49 L 271 54 L 268 54 L 265 51 L 265 49 L 258 42 L 254 41 L 251 39 L 239 39 L 233 41 L 224 46 L 218 52 L 213 64 L 213 78 L 217 86 L 222 91 L 230 95 L 233 98 L 233 100 L 223 121 L 224 130 L 212 143 L 213 146 L 218 145 L 220 147 L 220 150 L 213 162 L 213 165 L 214 166 L 218 165 L 220 167 L 220 171 L 218 175 L 218 178 L 216 183 L 216 187 L 218 189 L 222 187 L 225 189 L 225 207 L 228 212 L 229 212 L 233 207 L 236 211 L 236 219 L 238 225 L 241 228 L 242 227 L 241 224 L 243 222 L 245 222 L 247 224 L 250 231 L 263 244 L 263 246 L 260 249 L 256 249 L 254 251 L 258 255 L 256 258 L 254 258 L 252 254 L 237 255 L 233 257 L 233 260 L 228 265 L 222 267 L 217 267 L 208 272 L 203 273 L 202 275 L 206 278 L 203 281 L 199 283 L 193 284 L 189 289 L 187 289 L 184 291 L 172 293 L 172 296 L 164 301 L 164 304 L 160 309 L 144 318 L 141 321 L 132 324 L 125 328 L 123 328 L 113 333 L 111 335 L 105 337 L 99 342 L 94 344 L 74 344 L 73 345 L 67 345 L 61 347 L 57 351 L 58 354 L 61 355 L 66 353 L 80 353 L 84 356 L 84 359 L 78 364 L 69 365 L 68 364 L 63 364 L 61 363 L 59 365 L 47 369 L 45 371 L 45 372 L 47 372 L 48 371 L 53 371 L 54 370 L 62 369 L 63 370 L 66 370 L 68 372 L 67 377 L 65 380 L 65 387 L 66 389 L 63 392 L 67 395 L 68 398 L 67 401 L 63 406 L 51 417 L 51 420 L 50 421 L 50 425 L 51 426 L 56 425 L 56 422 L 54 422 L 53 419 L 67 407 L 70 407 L 71 406 L 74 407 L 77 410 L 77 413 L 72 428 L 78 435 L 83 435 L 84 433 L 82 433 L 78 428 L 78 419 L 82 415 L 90 415 L 90 414 L 83 410 L 74 401 L 71 393 L 70 385 L 74 376 L 81 369 L 89 365 L 94 365 L 98 367 L 111 378 L 116 388 L 116 391 L 117 392 L 117 402 L 114 409 L 107 416 L 102 418 L 96 418 L 93 417 L 95 419 L 94 426 L 92 429 L 88 432 L 88 433 L 91 433 L 96 431 L 102 426 L 106 425 L 118 415 L 127 410 L 134 409 L 135 408 L 140 408 L 141 407 L 146 407 L 147 406 L 152 406 L 157 404 L 161 404 L 167 401 L 172 400 L 180 395 L 188 393 L 196 389 L 198 387 L 204 385 L 208 380 L 208 369 L 211 364 L 211 362 L 215 356 L 216 349 L 221 334 L 228 322 L 228 317 L 231 312 L 238 306 L 241 306 L 242 307 L 242 310 L 235 326 L 235 330 L 231 340 L 231 345 L 229 349 L 228 356 L 219 370 L 220 372 L 223 371 L 225 373 L 225 375 L 211 395 L 211 396 L 218 395 L 219 396 L 219 400 L 216 404 L 210 417 L 216 404 L 220 398 L 219 395 L 215 395 L 214 396 L 212 395 L 212 393 L 225 376 L 225 372 L 222 371 L 220 369 L 227 358 L 239 348 L 242 343 L 246 339 L 249 333 L 249 331 L 247 330 L 234 340 L 232 339 L 238 318 L 242 310 L 242 306 L 241 305 L 238 305 L 237 302 L 245 294 L 245 292 L 242 289 L 244 286 L 245 281 L 239 287 L 241 291 L 239 293 L 239 295 L 236 298 L 236 300 L 234 303 L 235 308 L 228 317 L 228 322 L 221 333 L 220 339 L 216 347 L 216 349 L 212 352 L 211 356 L 207 359 L 202 360 L 197 365 L 195 365 L 189 370 L 187 370 L 176 381 L 171 382 L 169 384 L 164 384 L 162 386 L 159 386 L 156 388 L 148 390 L 142 394 L 134 394 L 124 398 L 120 398 L 118 396 L 116 385 L 114 383 L 114 381 L 110 375 L 96 364 L 86 364 L 84 362 L 85 361 L 85 355 L 81 352 L 61 352 L 60 353 L 58 352 L 58 351 L 63 347 L 69 345 L 95 344 L 101 341 L 107 336 L 109 336 L 131 325 L 143 321 L 153 313 L 163 308 L 165 302 L 178 292 L 184 291 L 187 289 L 190 289 L 194 284 L 204 281 L 208 277 L 206 274 L 207 272 L 211 271 L 214 268 L 222 267 L 228 265 L 239 255 L 248 255 L 250 257 L 251 261 L 254 262 L 260 259 L 260 252 L 259 251 L 264 247 L 270 248 L 275 252 L 278 252 L 279 251 L 277 245 L 270 238 L 257 232 L 255 230 L 250 229 L 245 221 L 242 220 L 239 222 L 237 220 L 236 210 L 234 206 L 232 206 L 229 211 L 226 209 L 225 206 L 225 191 L 226 190 L 226 187 L 225 186 L 222 186 L 221 187 L 218 187 L 217 186 L 217 179 L 219 175 L 219 172 L 221 169 L 221 166 L 220 165 L 214 165 L 213 163 L 220 152 L 221 147 L 219 145 L 214 145 L 213 143 L 224 131 L 223 122 L 230 108 L 230 105 L 233 101 L 233 97 L 231 95 L 229 95 L 221 90 L 218 87 L 213 78 L 213 65 L 215 61 L 215 58 L 217 56 L 218 53 L 226 45 L 233 41 L 239 39 L 251 39 L 259 43 L 264 48 L 267 54 L 271 54 L 284 46 L 297 42 L 300 38 L 317 38 L 320 36 L 320 33 L 318 29 L 320 27 L 323 27 L 335 34 L 346 25 L 349 27 L 347 33 L 348 35 L 353 35 L 359 33 L 366 33 L 367 34 L 378 35 L 379 36 L 389 38 L 395 41 L 398 41 L 402 32 L 409 25 Z M 112 418 L 110 421 L 101 426 L 99 426 L 97 424 L 98 421 L 101 421 L 107 417 L 111 417 Z M 77 417 L 78 418 L 77 421 L 77 427 L 78 429 L 76 431 L 74 430 L 72 427 L 75 421 L 75 418 Z M 80 410 L 82 412 L 78 417 L 77 414 Z M 178 384 L 179 385 L 179 389 L 177 391 L 174 392 L 172 390 L 172 388 Z M 244 334 L 246 336 L 242 341 L 240 339 Z M 267 241 L 269 240 L 272 242 L 277 248 L 274 249 L 267 242 Z M 419 20 L 417 21 L 423 19 L 433 19 L 444 23 L 456 34 L 460 41 L 461 47 L 462 48 L 462 57 L 457 67 L 450 74 L 444 77 L 444 81 L 453 94 L 459 106 L 459 108 L 461 110 L 461 112 L 458 115 L 459 118 L 462 121 L 466 123 L 472 129 L 471 131 L 463 131 L 462 132 L 462 135 L 472 146 L 475 152 L 473 154 L 469 153 L 466 155 L 469 166 L 472 172 L 472 175 L 471 176 L 465 174 L 463 172 L 463 165 L 459 168 L 449 162 L 444 162 L 444 163 L 450 169 L 452 173 L 450 176 L 447 176 L 446 177 L 450 181 L 450 186 L 448 188 L 446 188 L 444 186 L 441 186 L 440 187 L 441 190 L 443 192 L 443 197 L 441 199 L 439 197 L 435 196 L 432 194 L 430 195 L 430 196 L 437 203 L 437 207 L 436 208 L 432 207 L 430 209 L 428 213 L 428 217 L 426 219 L 422 218 L 422 221 L 420 227 L 417 230 L 416 230 L 414 227 L 412 227 L 411 233 L 407 238 L 405 236 L 405 233 L 403 233 L 400 236 L 400 239 L 397 244 L 397 250 L 399 253 L 407 249 L 409 247 L 417 248 L 424 244 L 430 244 L 434 239 L 440 239 L 441 238 L 446 238 L 447 239 L 455 240 L 461 243 L 464 243 L 474 247 L 475 249 L 471 251 L 470 253 L 473 256 L 477 257 L 487 262 L 498 270 L 497 272 L 491 272 L 490 275 L 492 277 L 507 284 L 509 286 L 508 288 L 504 288 L 503 290 L 507 294 L 520 302 L 528 309 L 527 311 L 518 311 L 518 313 L 532 324 L 546 338 L 545 340 L 543 340 L 548 341 L 549 340 L 543 334 L 542 334 L 530 322 L 519 313 L 521 311 L 527 311 L 530 312 L 530 310 L 519 301 L 504 291 L 506 288 L 510 288 L 511 286 L 498 280 L 491 275 L 493 272 L 499 272 L 500 271 L 484 260 L 474 256 L 471 253 L 474 250 L 477 250 L 478 249 L 477 248 L 459 242 L 453 239 L 451 237 L 454 233 L 451 231 L 447 231 L 445 229 L 445 227 L 448 224 L 449 221 L 455 213 L 455 211 L 458 205 L 458 198 L 461 195 L 464 197 L 466 196 L 466 180 L 465 177 L 467 175 L 470 176 L 472 178 L 474 177 L 474 174 L 467 156 L 469 154 L 476 155 L 476 152 L 472 145 L 462 134 L 464 131 L 473 131 L 474 129 L 459 117 L 459 115 L 462 113 L 462 110 L 460 108 L 449 86 L 444 80 L 448 75 L 452 73 L 456 69 L 462 57 L 462 47 L 459 38 L 455 32 L 443 22 L 434 19 L 423 19 L 422 20 Z M 422 242 L 422 243 L 417 247 L 414 247 L 413 245 L 419 240 Z M 434 226 L 436 228 L 434 235 L 424 241 L 423 238 Z M 362 22 L 359 16 L 355 13 L 346 13 L 341 15 L 336 19 L 332 19 L 324 15 L 314 15 L 310 18 L 308 21 L 308 25 L 306 27 L 296 28 L 275 38 L 270 37 L 266 33 L 258 29 L 252 28 L 258 29 L 264 32 L 272 39 L 274 39 L 296 28 L 307 27 L 308 26 L 308 21 L 314 15 L 324 15 L 327 17 L 331 18 L 333 20 L 335 20 L 343 14 L 346 13 L 355 13 L 360 18 Z M 425 7 L 438 8 L 447 11 L 454 15 L 466 26 L 471 35 L 473 45 L 474 46 L 474 59 L 469 71 L 460 81 L 460 83 L 463 86 L 475 110 L 475 116 L 477 117 L 486 127 L 487 132 L 486 135 L 483 138 L 483 142 L 488 150 L 489 157 L 488 158 L 488 161 L 484 165 L 484 169 L 486 173 L 485 184 L 478 192 L 477 201 L 473 208 L 469 212 L 465 222 L 472 229 L 472 231 L 475 235 L 488 241 L 496 248 L 497 250 L 497 255 L 506 261 L 511 266 L 512 268 L 512 272 L 516 275 L 512 271 L 511 266 L 505 260 L 502 259 L 497 255 L 497 250 L 495 246 L 490 242 L 483 239 L 481 237 L 475 235 L 473 233 L 472 228 L 466 222 L 466 219 L 469 212 L 476 204 L 477 198 L 478 197 L 478 193 L 483 188 L 486 181 L 486 173 L 485 172 L 484 166 L 488 161 L 488 158 L 489 157 L 488 150 L 483 141 L 483 139 L 487 133 L 486 126 L 484 123 L 476 116 L 474 107 L 472 105 L 467 93 L 461 84 L 461 80 L 470 70 L 470 68 L 472 66 L 474 60 L 474 46 L 473 45 L 473 41 L 471 35 L 464 23 L 459 18 L 456 17 L 451 13 L 438 8 Z" fill="#D8D8D8" fill-rule="evenodd"/><path d="M 484 637 L 482 635 L 479 635 L 478 634 L 466 633 L 465 634 L 457 634 L 456 635 L 448 636 L 447 639 L 450 639 L 451 638 L 459 638 L 460 637 L 475 637 L 476 638 L 483 638 Z M 264 529 L 264 532 L 266 535 L 274 543 L 276 542 L 270 534 Z M 251 520 L 250 522 L 252 524 L 253 527 L 256 531 L 260 534 L 261 533 Z M 285 519 L 285 521 L 294 534 L 299 538 L 300 537 L 294 531 Z M 412 509 L 411 509 L 409 513 L 408 520 L 410 519 L 412 513 Z M 237 505 L 236 506 L 237 511 L 240 516 L 240 518 L 242 520 L 243 517 Z M 261 501 L 262 507 L 266 513 L 267 512 L 266 509 L 262 503 L 262 501 Z M 178 385 L 173 388 L 174 391 L 178 389 Z M 350 270 L 344 271 L 342 274 L 345 274 Z M 308 255 L 309 256 L 316 256 L 317 257 L 319 256 L 317 255 L 311 255 L 310 254 Z M 300 253 L 300 256 L 308 264 L 318 271 L 330 277 L 335 277 L 337 276 L 336 274 L 335 275 L 332 275 L 331 274 L 325 273 L 321 270 L 314 267 L 309 263 L 304 257 L 305 253 L 304 252 L 301 252 Z M 421 242 L 420 241 L 417 242 L 414 246 L 419 245 Z M 268 241 L 268 242 L 274 248 L 276 248 L 272 243 Z M 434 227 L 426 235 L 424 238 L 424 240 L 433 235 L 435 230 Z M 255 140 L 255 143 L 254 144 L 254 157 L 256 161 L 264 170 L 271 173 L 274 176 L 275 184 L 278 193 L 280 195 L 285 205 L 299 222 L 307 228 L 309 228 L 315 231 L 327 231 L 333 228 L 335 228 L 338 225 L 345 221 L 350 216 L 356 204 L 359 195 L 360 188 L 361 187 L 361 182 L 362 181 L 362 161 L 361 160 L 361 155 L 359 151 L 356 148 L 353 148 L 351 152 L 343 160 L 337 163 L 331 165 L 328 165 L 327 166 L 324 166 L 323 167 L 312 167 L 311 166 L 306 166 L 305 165 L 301 165 L 300 164 L 289 162 L 282 167 L 275 168 L 268 165 L 261 157 L 260 148 L 261 147 L 262 138 L 261 137 L 258 137 Z M 256 140 L 259 137 L 261 139 L 260 155 L 262 160 L 268 166 L 273 168 L 281 168 L 289 163 L 294 163 L 295 164 L 298 164 L 303 166 L 308 166 L 309 167 L 325 167 L 343 161 L 350 155 L 352 151 L 355 149 L 359 153 L 360 156 L 360 162 L 361 163 L 361 181 L 360 182 L 360 186 L 359 187 L 356 201 L 349 215 L 345 219 L 343 218 L 349 207 L 352 198 L 352 194 L 351 192 L 345 186 L 340 184 L 335 184 L 334 183 L 326 184 L 312 191 L 305 198 L 301 204 L 300 207 L 301 213 L 309 223 L 310 226 L 307 227 L 304 225 L 292 213 L 281 197 L 276 186 L 275 175 L 273 173 L 271 173 L 265 170 L 256 160 L 254 155 L 254 147 L 255 146 Z M 252 135 L 248 132 L 243 132 L 235 135 L 228 142 L 227 149 L 231 152 L 231 150 L 228 148 L 228 146 L 238 135 L 240 134 L 241 135 L 242 134 L 243 135 L 247 135 L 249 136 L 250 138 L 252 137 Z M 370 130 L 370 136 L 376 142 L 388 147 L 403 148 L 413 144 L 416 141 L 416 134 L 415 132 L 409 126 L 400 123 L 394 123 L 393 122 L 380 123 L 375 125 Z M 271 99 L 266 104 L 263 113 L 263 118 L 264 120 L 270 125 L 267 128 L 265 132 L 265 137 L 269 145 L 276 151 L 284 154 L 292 154 L 293 153 L 296 153 L 302 151 L 308 148 L 314 142 L 316 138 L 317 133 L 315 128 L 307 123 L 301 122 L 300 121 L 283 121 L 274 124 L 273 122 L 278 117 L 280 108 L 278 102 L 275 99 Z M 266 131 L 271 126 L 277 123 L 280 123 L 285 121 L 298 121 L 299 122 L 302 122 L 308 124 L 315 130 L 316 132 L 316 136 L 312 143 L 303 150 L 301 150 L 295 153 L 282 153 L 274 149 L 267 141 L 266 139 Z M 275 100 L 278 103 L 279 106 L 279 113 L 277 117 L 272 122 L 268 123 L 264 119 L 264 111 L 267 104 L 271 100 Z M 355 96 L 353 97 L 350 101 L 348 111 L 351 120 L 356 124 L 360 124 L 365 120 L 367 116 L 367 104 L 365 102 L 365 100 L 362 97 L 360 96 Z M 356 96 L 361 97 L 364 100 L 367 107 L 367 113 L 364 120 L 360 123 L 355 123 L 350 117 L 350 114 L 349 113 L 349 106 L 351 100 Z M 287 63 L 283 60 L 279 60 L 273 63 L 268 68 L 267 70 L 267 75 L 270 76 L 277 71 L 285 68 L 287 66 Z M 286 63 L 286 66 L 284 68 L 282 68 L 276 71 L 271 75 L 269 75 L 267 73 L 267 71 L 269 68 L 278 61 L 284 61 Z M 247 58 L 239 57 L 232 63 L 232 64 L 238 61 L 240 61 L 241 63 L 242 63 L 243 61 L 246 61 L 247 60 L 249 61 L 247 64 L 247 66 L 244 68 L 243 70 L 241 70 L 241 74 L 239 76 L 238 79 L 235 77 L 233 78 L 231 76 L 230 71 L 229 71 L 232 80 L 237 84 L 238 84 L 244 78 L 247 72 L 253 65 L 253 63 Z M 352 56 L 352 58 L 354 60 L 363 62 L 370 67 L 373 67 L 376 64 L 375 59 L 371 55 L 365 52 L 356 52 Z M 353 56 L 358 52 L 366 53 L 370 55 L 375 60 L 375 64 L 373 66 L 370 66 L 363 61 L 356 60 Z M 426 38 L 424 40 L 421 41 L 417 45 L 416 47 L 416 51 L 427 58 L 435 67 L 438 67 L 444 61 L 446 57 L 446 51 L 442 44 L 436 39 L 433 38 Z M 440 19 L 433 18 L 432 17 L 424 17 L 415 20 L 405 26 L 400 32 L 398 37 L 396 39 L 394 39 L 386 35 L 373 33 L 372 32 L 354 32 L 352 33 L 350 31 L 350 29 L 352 26 L 352 23 L 351 22 L 347 22 L 342 25 L 336 31 L 333 31 L 328 27 L 322 24 L 317 24 L 316 25 L 316 30 L 318 34 L 316 36 L 300 36 L 297 37 L 296 40 L 294 42 L 287 43 L 275 49 L 271 52 L 268 52 L 266 48 L 257 40 L 248 37 L 237 38 L 231 40 L 224 44 L 216 52 L 211 66 L 211 76 L 215 86 L 222 93 L 228 96 L 231 99 L 229 105 L 225 112 L 225 114 L 222 119 L 222 122 L 221 123 L 222 130 L 213 139 L 210 144 L 210 147 L 211 148 L 216 147 L 218 149 L 218 151 L 214 156 L 211 164 L 211 167 L 212 168 L 216 168 L 218 170 L 218 173 L 215 180 L 215 189 L 218 191 L 220 190 L 223 191 L 223 205 L 224 206 L 224 209 L 228 214 L 230 214 L 232 211 L 235 213 L 235 221 L 239 229 L 242 231 L 243 228 L 245 226 L 248 229 L 249 232 L 261 245 L 257 248 L 253 248 L 249 252 L 232 255 L 230 257 L 230 261 L 225 265 L 216 266 L 211 268 L 209 270 L 200 273 L 199 275 L 202 278 L 197 282 L 191 283 L 187 288 L 183 290 L 171 291 L 168 293 L 168 296 L 164 298 L 159 303 L 159 306 L 155 310 L 145 315 L 139 320 L 133 323 L 128 324 L 126 326 L 119 328 L 117 330 L 106 335 L 95 342 L 78 342 L 77 343 L 69 343 L 60 346 L 55 352 L 57 356 L 58 362 L 53 366 L 44 369 L 38 373 L 35 377 L 35 382 L 36 384 L 39 387 L 44 388 L 45 390 L 42 393 L 39 394 L 34 399 L 32 405 L 33 410 L 35 412 L 38 413 L 43 410 L 49 408 L 52 408 L 56 406 L 57 409 L 50 416 L 48 422 L 48 425 L 51 428 L 53 429 L 60 429 L 64 427 L 67 427 L 70 429 L 77 437 L 88 436 L 91 434 L 98 432 L 104 427 L 110 424 L 118 417 L 127 412 L 135 411 L 136 410 L 141 410 L 142 409 L 147 409 L 148 408 L 153 408 L 157 406 L 164 405 L 175 400 L 177 400 L 198 390 L 200 388 L 204 387 L 210 380 L 210 369 L 217 355 L 218 346 L 220 343 L 222 335 L 230 323 L 230 317 L 235 310 L 237 309 L 239 310 L 239 313 L 237 315 L 237 318 L 233 325 L 233 332 L 230 339 L 230 342 L 227 350 L 226 357 L 217 370 L 217 373 L 218 374 L 221 373 L 223 376 L 213 389 L 209 396 L 210 398 L 216 397 L 218 399 L 214 405 L 205 424 L 205 428 L 206 429 L 208 429 L 210 427 L 213 429 L 210 436 L 210 439 L 207 448 L 207 454 L 206 455 L 206 458 L 208 460 L 210 458 L 212 459 L 211 480 L 213 482 L 216 480 L 218 481 L 219 490 L 227 506 L 226 509 L 222 508 L 220 510 L 214 522 L 215 525 L 217 524 L 220 525 L 220 528 L 215 538 L 214 543 L 215 544 L 219 543 L 221 545 L 219 551 L 219 554 L 218 555 L 218 558 L 217 559 L 217 562 L 216 563 L 215 571 L 218 572 L 220 570 L 222 572 L 220 586 L 223 587 L 225 589 L 225 597 L 226 598 L 229 613 L 231 619 L 235 625 L 235 627 L 232 629 L 224 629 L 223 630 L 216 631 L 208 635 L 203 640 L 199 651 L 199 662 L 200 665 L 205 669 L 208 669 L 208 658 L 211 651 L 215 648 L 218 649 L 218 652 L 215 660 L 215 670 L 217 672 L 226 673 L 227 674 L 232 674 L 233 673 L 232 670 L 232 663 L 234 657 L 238 653 L 241 653 L 242 654 L 242 659 L 240 663 L 240 674 L 241 675 L 277 675 L 278 674 L 284 674 L 285 673 L 293 673 L 294 672 L 299 672 L 300 671 L 306 671 L 307 670 L 311 670 L 315 668 L 318 668 L 325 662 L 327 658 L 327 652 L 328 651 L 326 631 L 327 630 L 329 631 L 332 630 L 332 613 L 331 612 L 330 599 L 331 598 L 334 599 L 336 598 L 335 585 L 336 584 L 336 580 L 338 574 L 334 572 L 330 572 L 329 571 L 319 569 L 316 567 L 312 566 L 307 562 L 309 559 L 313 559 L 322 562 L 326 562 L 332 564 L 337 564 L 338 565 L 344 565 L 345 566 L 366 566 L 372 564 L 377 564 L 379 566 L 379 568 L 376 571 L 373 572 L 373 576 L 377 583 L 378 589 L 380 592 L 381 597 L 384 597 L 385 596 L 387 598 L 387 613 L 390 614 L 392 616 L 392 631 L 394 634 L 398 633 L 400 637 L 400 649 L 398 655 L 398 667 L 400 672 L 405 677 L 419 682 L 438 684 L 439 683 L 438 666 L 441 662 L 444 662 L 446 664 L 446 667 L 447 668 L 447 681 L 446 682 L 447 684 L 469 684 L 471 682 L 471 675 L 470 674 L 470 666 L 469 664 L 472 661 L 475 661 L 477 663 L 479 668 L 479 682 L 480 683 L 494 682 L 497 680 L 498 677 L 498 670 L 496 665 L 496 660 L 498 658 L 504 663 L 505 670 L 506 671 L 506 675 L 505 676 L 506 679 L 509 679 L 513 677 L 516 674 L 518 670 L 519 663 L 518 662 L 518 657 L 516 651 L 509 643 L 504 640 L 500 639 L 498 637 L 498 634 L 500 629 L 500 623 L 501 622 L 501 614 L 502 613 L 502 589 L 501 588 L 501 584 L 500 582 L 503 579 L 503 577 L 500 571 L 500 569 L 501 568 L 505 570 L 507 569 L 506 565 L 501 556 L 501 554 L 496 545 L 497 542 L 501 544 L 504 544 L 505 543 L 504 539 L 496 524 L 498 521 L 501 521 L 502 519 L 499 513 L 499 509 L 497 505 L 489 498 L 487 494 L 487 491 L 484 488 L 479 487 L 472 481 L 468 474 L 467 468 L 466 467 L 466 451 L 471 437 L 470 427 L 468 423 L 468 419 L 467 418 L 467 415 L 466 414 L 466 411 L 465 410 L 465 407 L 464 406 L 464 403 L 462 399 L 462 396 L 461 395 L 461 392 L 459 386 L 457 383 L 457 381 L 454 376 L 453 372 L 451 370 L 446 359 L 444 357 L 438 346 L 438 341 L 440 340 L 445 345 L 457 363 L 463 374 L 463 376 L 470 392 L 470 395 L 473 403 L 473 406 L 474 407 L 474 410 L 477 419 L 477 423 L 480 432 L 480 438 L 476 446 L 475 453 L 474 454 L 475 468 L 477 472 L 482 477 L 484 478 L 489 478 L 493 475 L 495 469 L 499 463 L 502 466 L 502 470 L 501 471 L 500 478 L 497 484 L 494 487 L 494 489 L 502 496 L 505 497 L 513 497 L 515 496 L 519 492 L 520 489 L 522 487 L 524 481 L 526 479 L 528 480 L 528 487 L 524 495 L 524 498 L 528 500 L 536 499 L 544 492 L 550 477 L 553 479 L 553 482 L 550 491 L 551 492 L 557 489 L 561 485 L 566 476 L 568 470 L 568 467 L 569 466 L 569 462 L 570 461 L 570 450 L 571 449 L 571 446 L 570 445 L 570 437 L 569 436 L 568 430 L 570 428 L 572 428 L 572 423 L 568 413 L 568 410 L 566 407 L 566 404 L 563 399 L 564 396 L 567 396 L 567 392 L 564 388 L 562 383 L 554 372 L 555 370 L 559 370 L 560 368 L 549 352 L 541 343 L 543 341 L 550 343 L 551 340 L 524 315 L 526 313 L 532 313 L 532 310 L 528 306 L 508 292 L 510 289 L 513 288 L 513 286 L 511 284 L 501 280 L 496 276 L 497 274 L 500 274 L 502 271 L 490 262 L 479 256 L 477 256 L 475 253 L 476 252 L 479 252 L 482 250 L 480 248 L 472 244 L 459 240 L 456 237 L 459 234 L 454 230 L 451 230 L 448 227 L 457 213 L 459 207 L 459 204 L 460 203 L 460 200 L 462 198 L 464 200 L 467 198 L 468 195 L 468 182 L 467 179 L 469 178 L 474 181 L 476 178 L 475 171 L 469 157 L 470 156 L 477 157 L 478 156 L 478 152 L 471 141 L 465 135 L 466 133 L 474 133 L 476 131 L 476 129 L 471 124 L 464 120 L 461 117 L 465 113 L 465 111 L 461 106 L 452 88 L 447 81 L 447 79 L 457 70 L 462 62 L 463 56 L 464 55 L 464 49 L 463 48 L 462 41 L 457 32 L 449 24 Z M 48 391 L 49 393 L 42 399 L 39 406 L 40 409 L 38 412 L 35 411 L 33 409 L 33 403 L 34 400 L 42 393 Z M 39 374 L 43 377 L 43 381 L 40 385 L 38 385 L 36 383 L 36 377 Z M 438 19 L 441 21 L 443 21 L 450 26 L 456 32 L 462 43 L 462 46 L 463 47 L 463 57 L 457 69 L 452 74 L 448 76 L 445 80 L 450 86 L 461 108 L 463 110 L 463 113 L 460 115 L 460 117 L 475 129 L 473 132 L 464 132 L 463 134 L 473 145 L 477 152 L 477 155 L 476 156 L 473 155 L 469 155 L 468 156 L 469 160 L 471 162 L 471 165 L 473 168 L 475 174 L 475 177 L 473 179 L 468 176 L 466 177 L 467 180 L 467 196 L 465 198 L 462 196 L 459 198 L 459 205 L 456 211 L 456 213 L 450 221 L 449 224 L 446 227 L 446 229 L 447 230 L 451 230 L 455 233 L 452 237 L 459 241 L 477 247 L 479 249 L 477 251 L 474 251 L 472 253 L 474 255 L 484 259 L 499 269 L 501 271 L 499 273 L 493 273 L 492 275 L 498 279 L 508 284 L 510 284 L 512 287 L 510 289 L 506 289 L 505 291 L 519 300 L 531 310 L 530 313 L 527 312 L 521 312 L 520 313 L 530 321 L 550 340 L 548 342 L 540 340 L 539 342 L 549 353 L 556 364 L 559 367 L 557 369 L 554 368 L 552 369 L 566 392 L 565 395 L 561 394 L 561 397 L 565 403 L 567 409 L 567 412 L 569 415 L 571 421 L 571 424 L 572 425 L 570 427 L 567 427 L 568 434 L 569 435 L 569 440 L 570 441 L 570 457 L 569 458 L 569 463 L 568 464 L 567 471 L 563 481 L 554 490 L 552 488 L 553 485 L 553 477 L 550 475 L 547 481 L 547 484 L 545 487 L 545 489 L 543 492 L 536 498 L 528 499 L 525 495 L 528 489 L 529 479 L 526 477 L 523 481 L 523 483 L 520 489 L 513 496 L 511 497 L 507 497 L 502 495 L 495 489 L 495 487 L 498 484 L 501 477 L 501 474 L 502 473 L 502 464 L 499 462 L 496 465 L 494 472 L 489 477 L 484 477 L 482 476 L 478 472 L 476 468 L 475 454 L 476 453 L 476 449 L 478 443 L 481 437 L 481 432 L 478 425 L 478 420 L 477 419 L 473 400 L 471 396 L 471 393 L 468 384 L 465 379 L 464 374 L 461 369 L 461 367 L 444 342 L 442 340 L 436 338 L 436 342 L 437 343 L 438 349 L 443 356 L 449 369 L 451 371 L 451 373 L 453 375 L 453 377 L 459 389 L 459 393 L 462 400 L 463 408 L 465 411 L 467 425 L 469 428 L 470 437 L 467 443 L 467 446 L 465 451 L 465 468 L 468 477 L 476 486 L 482 489 L 484 489 L 486 491 L 488 498 L 498 508 L 499 515 L 501 518 L 499 521 L 495 519 L 495 523 L 503 539 L 503 542 L 501 543 L 496 540 L 494 541 L 494 543 L 497 547 L 501 556 L 501 558 L 505 565 L 504 568 L 498 565 L 498 569 L 502 576 L 499 579 L 500 585 L 501 586 L 501 599 L 502 600 L 502 604 L 501 605 L 500 626 L 499 627 L 499 631 L 497 634 L 497 637 L 499 639 L 503 640 L 508 643 L 514 649 L 518 659 L 518 668 L 517 671 L 512 677 L 508 678 L 506 676 L 506 668 L 504 662 L 500 658 L 497 657 L 495 660 L 496 666 L 497 667 L 497 678 L 494 681 L 491 682 L 486 682 L 485 683 L 481 683 L 480 682 L 480 670 L 479 669 L 479 666 L 475 660 L 471 660 L 469 662 L 470 682 L 468 684 L 449 684 L 447 682 L 447 666 L 446 663 L 444 661 L 441 661 L 438 665 L 438 681 L 436 683 L 421 682 L 406 677 L 400 671 L 399 665 L 398 664 L 399 652 L 401 646 L 401 643 L 400 642 L 400 633 L 398 631 L 395 633 L 393 631 L 392 628 L 392 613 L 387 611 L 387 595 L 384 595 L 383 596 L 381 594 L 379 588 L 379 585 L 374 576 L 374 573 L 380 568 L 380 565 L 378 563 L 373 563 L 372 564 L 362 565 L 361 566 L 350 566 L 349 565 L 343 565 L 342 564 L 335 564 L 330 562 L 325 562 L 313 558 L 307 558 L 306 559 L 306 562 L 309 565 L 315 568 L 324 571 L 335 573 L 336 574 L 336 580 L 335 581 L 335 595 L 333 597 L 330 595 L 329 596 L 329 602 L 330 603 L 330 609 L 331 610 L 331 627 L 329 629 L 328 628 L 325 628 L 325 635 L 327 640 L 327 655 L 324 662 L 321 665 L 315 668 L 312 668 L 307 670 L 302 670 L 301 671 L 295 671 L 294 672 L 288 672 L 287 673 L 280 673 L 279 674 L 271 674 L 270 675 L 243 675 L 240 672 L 240 666 L 241 665 L 241 661 L 242 660 L 243 654 L 241 652 L 238 652 L 234 656 L 232 661 L 232 671 L 230 673 L 224 673 L 223 672 L 220 672 L 216 669 L 216 658 L 219 651 L 219 648 L 218 647 L 215 647 L 211 650 L 208 656 L 208 661 L 207 662 L 208 666 L 205 668 L 201 665 L 199 661 L 199 652 L 203 641 L 209 635 L 218 631 L 227 630 L 228 629 L 239 629 L 240 630 L 246 630 L 247 631 L 255 632 L 255 630 L 252 628 L 246 627 L 245 626 L 237 626 L 234 623 L 231 617 L 229 611 L 229 608 L 227 604 L 227 600 L 225 596 L 225 587 L 221 584 L 221 579 L 222 578 L 223 570 L 221 569 L 218 571 L 216 569 L 216 564 L 220 552 L 220 549 L 222 545 L 222 542 L 217 543 L 215 541 L 215 539 L 221 527 L 221 524 L 220 523 L 217 524 L 215 522 L 221 510 L 224 510 L 225 511 L 228 510 L 228 503 L 225 500 L 221 493 L 218 478 L 217 477 L 214 480 L 212 478 L 213 456 L 211 455 L 208 457 L 207 456 L 207 450 L 209 445 L 209 441 L 213 431 L 213 426 L 211 426 L 208 428 L 205 426 L 209 418 L 209 416 L 215 404 L 218 400 L 218 396 L 211 397 L 210 395 L 224 375 L 223 372 L 220 373 L 218 370 L 227 356 L 228 349 L 230 345 L 230 340 L 234 330 L 234 326 L 236 323 L 236 320 L 241 310 L 241 307 L 238 307 L 235 309 L 229 317 L 229 322 L 222 334 L 217 349 L 216 356 L 212 362 L 212 364 L 209 369 L 209 380 L 204 386 L 200 387 L 188 394 L 180 396 L 172 401 L 167 402 L 161 405 L 157 405 L 152 407 L 147 407 L 146 408 L 141 408 L 140 409 L 135 409 L 134 410 L 127 411 L 118 416 L 106 426 L 102 427 L 96 432 L 91 434 L 88 434 L 87 432 L 89 431 L 93 426 L 94 419 L 92 417 L 93 416 L 96 417 L 102 417 L 107 415 L 113 409 L 116 402 L 116 392 L 115 391 L 114 385 L 110 378 L 102 371 L 94 366 L 89 366 L 84 368 L 75 376 L 71 385 L 71 389 L 72 390 L 72 393 L 74 399 L 83 409 L 86 410 L 91 414 L 90 416 L 82 416 L 79 419 L 79 428 L 82 432 L 84 432 L 85 434 L 83 436 L 78 436 L 71 428 L 76 413 L 76 410 L 74 408 L 71 407 L 70 408 L 67 408 L 59 414 L 54 419 L 54 421 L 57 422 L 57 425 L 56 426 L 51 427 L 49 425 L 50 417 L 60 407 L 61 407 L 66 401 L 67 397 L 66 395 L 62 392 L 65 389 L 64 387 L 64 380 L 66 377 L 67 372 L 66 371 L 59 370 L 58 371 L 45 373 L 44 371 L 47 368 L 52 367 L 57 364 L 59 364 L 61 362 L 63 363 L 68 363 L 69 364 L 74 364 L 80 362 L 83 359 L 83 356 L 80 354 L 66 354 L 61 356 L 58 355 L 56 353 L 56 351 L 61 346 L 67 344 L 73 344 L 74 343 L 94 343 L 97 342 L 105 336 L 111 334 L 113 332 L 132 323 L 137 322 L 141 320 L 144 317 L 157 310 L 162 306 L 163 301 L 171 296 L 171 293 L 172 292 L 184 290 L 187 288 L 189 288 L 193 283 L 199 282 L 203 280 L 205 278 L 201 275 L 203 272 L 208 271 L 217 266 L 222 266 L 228 264 L 232 260 L 232 257 L 234 255 L 237 254 L 243 254 L 244 253 L 252 253 L 254 255 L 254 257 L 257 256 L 253 251 L 256 248 L 260 248 L 262 246 L 262 244 L 249 231 L 245 223 L 242 224 L 243 227 L 241 229 L 237 225 L 235 219 L 235 211 L 233 208 L 231 211 L 228 213 L 224 207 L 224 189 L 222 188 L 218 190 L 215 187 L 215 183 L 219 171 L 219 167 L 218 166 L 214 167 L 212 165 L 212 162 L 219 150 L 219 147 L 218 146 L 213 147 L 211 145 L 211 143 L 223 130 L 222 121 L 232 100 L 232 98 L 230 96 L 222 92 L 216 86 L 212 78 L 212 64 L 213 63 L 213 60 L 217 52 L 224 45 L 233 40 L 239 38 L 251 38 L 254 40 L 258 41 L 266 49 L 266 51 L 268 53 L 271 53 L 278 48 L 286 44 L 292 42 L 295 42 L 299 37 L 316 37 L 318 36 L 319 34 L 316 28 L 318 25 L 322 25 L 328 28 L 333 32 L 336 32 L 343 25 L 349 22 L 351 24 L 351 27 L 349 30 L 349 33 L 350 34 L 352 33 L 357 33 L 358 32 L 366 32 L 367 33 L 373 33 L 374 34 L 387 36 L 392 39 L 397 40 L 399 37 L 400 33 L 403 29 L 410 23 L 423 18 L 434 18 L 435 19 Z M 447 12 L 438 9 L 433 9 L 432 8 L 424 8 L 423 9 L 414 10 L 402 16 L 391 27 L 378 25 L 377 24 L 371 24 L 370 23 L 362 23 L 360 21 L 359 18 L 355 14 L 346 14 L 343 15 L 335 21 L 333 21 L 331 19 L 327 18 L 324 16 L 314 16 L 309 21 L 309 26 L 307 28 L 296 29 L 274 40 L 272 40 L 264 33 L 251 28 L 238 28 L 237 29 L 234 29 L 222 34 L 215 39 L 207 49 L 201 65 L 201 75 L 202 76 L 202 79 L 204 85 L 208 92 L 220 104 L 217 111 L 214 115 L 212 121 L 212 127 L 213 129 L 204 138 L 202 142 L 202 149 L 206 154 L 206 156 L 203 162 L 203 170 L 207 176 L 207 180 L 206 181 L 207 191 L 214 199 L 214 208 L 217 215 L 223 221 L 225 221 L 229 225 L 229 228 L 233 234 L 240 238 L 243 241 L 240 244 L 234 245 L 233 246 L 229 246 L 220 250 L 212 257 L 201 259 L 190 269 L 183 271 L 179 275 L 178 278 L 176 280 L 166 281 L 157 287 L 147 292 L 140 300 L 131 307 L 127 309 L 124 312 L 111 317 L 106 322 L 95 330 L 84 330 L 83 329 L 79 329 L 76 327 L 71 327 L 70 326 L 66 326 L 61 328 L 54 335 L 49 337 L 46 340 L 42 346 L 42 350 L 39 356 L 25 369 L 23 373 L 22 380 L 24 386 L 27 389 L 27 392 L 21 402 L 21 410 L 22 413 L 27 419 L 30 421 L 34 422 L 37 425 L 40 433 L 43 436 L 50 439 L 58 439 L 59 438 L 62 438 L 64 440 L 65 444 L 68 447 L 73 449 L 84 449 L 85 448 L 88 448 L 106 438 L 119 429 L 123 425 L 132 420 L 144 419 L 145 418 L 150 418 L 151 417 L 157 417 L 180 408 L 186 409 L 200 404 L 202 406 L 202 410 L 200 413 L 197 422 L 197 425 L 196 426 L 196 434 L 200 439 L 199 448 L 198 449 L 198 462 L 200 467 L 202 469 L 203 482 L 205 485 L 205 487 L 212 495 L 212 500 L 211 501 L 210 508 L 205 522 L 205 526 L 208 530 L 208 533 L 205 539 L 205 547 L 209 552 L 207 562 L 206 563 L 206 573 L 212 581 L 213 595 L 215 599 L 215 602 L 216 603 L 216 606 L 217 607 L 217 610 L 220 619 L 218 621 L 212 622 L 200 629 L 193 637 L 189 646 L 189 649 L 188 650 L 188 661 L 192 670 L 196 674 L 201 677 L 207 679 L 210 679 L 211 680 L 214 680 L 215 681 L 225 682 L 226 683 L 235 683 L 236 684 L 274 684 L 275 683 L 285 683 L 286 682 L 293 682 L 294 681 L 305 680 L 310 678 L 318 677 L 329 672 L 334 667 L 338 657 L 338 641 L 337 639 L 340 635 L 342 630 L 342 605 L 344 603 L 346 597 L 346 584 L 347 583 L 347 578 L 349 576 L 363 576 L 365 578 L 366 584 L 370 596 L 372 599 L 372 601 L 374 605 L 379 611 L 380 623 L 381 624 L 381 628 L 383 634 L 390 644 L 389 654 L 388 655 L 388 668 L 392 677 L 399 684 L 413 690 L 417 690 L 422 692 L 428 692 L 429 693 L 439 693 L 440 694 L 474 694 L 475 693 L 487 693 L 488 692 L 493 692 L 494 691 L 499 691 L 500 690 L 507 689 L 517 685 L 525 678 L 529 669 L 529 655 L 527 649 L 523 642 L 511 631 L 511 626 L 512 625 L 512 580 L 516 575 L 516 566 L 511 554 L 511 552 L 514 549 L 514 540 L 510 532 L 510 528 L 511 527 L 511 514 L 510 511 L 512 509 L 519 509 L 524 511 L 534 511 L 540 509 L 559 500 L 570 490 L 577 478 L 578 472 L 581 464 L 581 457 L 582 456 L 581 435 L 583 431 L 583 428 L 582 427 L 581 417 L 576 405 L 578 401 L 578 392 L 573 382 L 569 377 L 570 374 L 570 367 L 565 358 L 560 352 L 560 349 L 562 346 L 562 341 L 560 337 L 542 318 L 544 313 L 542 307 L 533 298 L 523 291 L 524 288 L 524 282 L 520 278 L 514 275 L 511 272 L 511 268 L 510 266 L 506 262 L 499 258 L 496 255 L 496 250 L 495 248 L 488 242 L 475 236 L 472 233 L 471 229 L 464 222 L 468 212 L 472 208 L 476 201 L 477 192 L 484 184 L 485 173 L 483 169 L 483 165 L 487 161 L 488 154 L 487 153 L 487 150 L 482 142 L 482 138 L 485 135 L 486 132 L 484 125 L 474 116 L 474 110 L 462 86 L 459 83 L 459 81 L 466 74 L 472 63 L 472 60 L 473 59 L 473 46 L 472 45 L 471 38 L 465 26 L 457 18 Z M 445 12 L 457 19 L 466 29 L 470 37 L 471 44 L 472 45 L 472 53 L 473 54 L 472 56 L 472 60 L 468 70 L 466 73 L 458 80 L 458 82 L 462 88 L 473 110 L 474 117 L 483 125 L 485 129 L 485 134 L 481 139 L 481 142 L 483 144 L 487 152 L 487 160 L 482 165 L 484 171 L 484 182 L 482 186 L 478 189 L 476 192 L 476 198 L 474 204 L 468 210 L 464 219 L 464 223 L 470 229 L 472 235 L 490 244 L 496 251 L 495 256 L 506 263 L 510 267 L 511 273 L 514 276 L 516 276 L 519 278 L 524 283 L 524 287 L 522 291 L 533 299 L 542 308 L 543 310 L 543 314 L 541 317 L 541 319 L 543 320 L 560 338 L 562 342 L 562 345 L 559 348 L 559 351 L 569 367 L 570 372 L 568 376 L 574 385 L 578 394 L 578 399 L 576 402 L 576 407 L 578 410 L 581 419 L 581 423 L 582 424 L 582 433 L 580 436 L 580 440 L 581 441 L 581 460 L 580 461 L 580 465 L 579 466 L 579 469 L 576 478 L 569 490 L 558 500 L 535 510 L 527 511 L 526 510 L 522 510 L 519 508 L 510 508 L 509 509 L 509 512 L 511 516 L 511 525 L 509 528 L 509 531 L 512 536 L 513 542 L 514 543 L 514 547 L 510 552 L 510 554 L 514 561 L 515 567 L 516 568 L 515 576 L 511 580 L 511 587 L 512 588 L 512 617 L 511 618 L 510 632 L 515 635 L 523 643 L 527 650 L 528 656 L 529 657 L 529 667 L 528 668 L 528 671 L 525 677 L 516 685 L 505 689 L 501 689 L 500 690 L 491 691 L 490 692 L 481 692 L 480 693 L 434 693 L 433 692 L 426 692 L 425 691 L 420 691 L 419 690 L 412 689 L 400 684 L 394 679 L 391 675 L 389 670 L 388 659 L 389 658 L 389 652 L 390 651 L 390 643 L 384 635 L 384 633 L 382 630 L 382 626 L 380 620 L 380 615 L 379 614 L 379 609 L 375 605 L 371 597 L 366 582 L 366 579 L 364 576 L 348 575 L 346 581 L 345 600 L 341 606 L 341 610 L 342 611 L 342 629 L 340 634 L 337 638 L 337 643 L 338 644 L 338 654 L 337 655 L 337 659 L 334 666 L 328 672 L 320 676 L 317 676 L 308 679 L 303 679 L 302 680 L 297 680 L 296 681 L 290 681 L 289 682 L 261 683 L 260 684 L 230 683 L 229 682 L 223 682 L 222 681 L 217 681 L 216 680 L 205 678 L 197 674 L 193 670 L 189 663 L 189 648 L 191 642 L 195 635 L 204 627 L 211 623 L 214 623 L 220 620 L 220 616 L 218 612 L 218 609 L 217 608 L 217 605 L 216 604 L 216 601 L 215 600 L 215 597 L 212 588 L 212 579 L 206 572 L 206 564 L 209 555 L 209 551 L 205 545 L 206 537 L 209 532 L 209 530 L 206 527 L 206 519 L 210 510 L 210 506 L 213 498 L 213 495 L 205 486 L 203 480 L 203 470 L 200 466 L 198 461 L 198 450 L 199 449 L 199 445 L 200 444 L 201 438 L 197 435 L 196 428 L 197 427 L 198 419 L 203 408 L 203 405 L 202 404 L 198 404 L 190 408 L 178 408 L 159 416 L 154 416 L 148 418 L 141 418 L 140 419 L 134 419 L 125 423 L 108 436 L 103 438 L 94 444 L 86 448 L 75 449 L 69 447 L 66 444 L 63 438 L 47 438 L 45 437 L 40 432 L 37 426 L 37 424 L 35 422 L 31 421 L 28 419 L 23 414 L 21 404 L 23 398 L 26 395 L 28 391 L 28 389 L 23 383 L 23 375 L 26 369 L 34 361 L 37 360 L 40 357 L 42 353 L 42 348 L 44 344 L 53 336 L 64 330 L 68 330 L 69 329 L 78 329 L 83 331 L 94 331 L 97 330 L 105 324 L 111 318 L 127 311 L 141 300 L 143 297 L 151 290 L 160 286 L 167 281 L 175 281 L 177 280 L 183 272 L 192 269 L 199 261 L 203 259 L 207 259 L 213 257 L 217 253 L 226 247 L 242 244 L 244 242 L 244 239 L 238 237 L 230 229 L 229 223 L 223 220 L 216 212 L 215 210 L 215 205 L 214 204 L 215 199 L 208 192 L 207 189 L 208 175 L 204 171 L 203 168 L 204 161 L 207 156 L 207 153 L 203 150 L 202 148 L 202 144 L 204 139 L 213 130 L 213 119 L 218 109 L 220 107 L 221 103 L 208 91 L 202 78 L 202 63 L 203 62 L 203 59 L 206 54 L 206 52 L 210 46 L 220 36 L 232 30 L 240 29 L 241 28 L 248 28 L 249 29 L 256 30 L 264 34 L 271 40 L 275 40 L 298 29 L 308 29 L 309 28 L 309 23 L 310 21 L 316 16 L 325 17 L 335 22 L 342 16 L 347 14 L 353 14 L 355 15 L 358 18 L 359 22 L 361 24 L 374 24 L 375 25 L 380 25 L 381 26 L 385 26 L 391 28 L 393 27 L 403 16 L 416 10 L 419 10 L 420 9 L 435 9 L 436 10 L 439 10 Z" fill="#B1B1B1" fill-rule="evenodd"/><path d="M 257 140 L 256 146 L 255 147 L 255 155 L 256 156 L 257 160 L 265 169 L 271 172 L 273 172 L 276 175 L 277 186 L 279 189 L 279 191 L 282 197 L 284 199 L 287 205 L 293 212 L 293 213 L 304 224 L 305 224 L 307 226 L 309 226 L 308 223 L 300 213 L 300 211 L 299 210 L 300 204 L 302 202 L 304 198 L 312 190 L 326 183 L 334 182 L 335 183 L 340 183 L 341 184 L 343 184 L 345 185 L 352 192 L 353 194 L 353 198 L 352 199 L 350 207 L 344 218 L 345 218 L 348 215 L 355 201 L 356 195 L 357 194 L 357 191 L 358 190 L 358 187 L 359 186 L 359 182 L 360 181 L 360 163 L 359 162 L 359 156 L 358 155 L 358 153 L 355 150 L 354 150 L 351 155 L 343 162 L 341 162 L 338 164 L 336 164 L 329 167 L 326 167 L 325 168 L 309 168 L 308 167 L 303 167 L 302 166 L 299 166 L 298 165 L 295 165 L 294 164 L 289 164 L 281 169 L 273 169 L 272 168 L 268 167 L 261 160 L 260 156 L 259 155 L 259 145 L 260 144 L 260 139 L 259 138 Z M 267 131 L 267 139 L 268 141 L 274 148 L 282 152 L 295 152 L 301 149 L 303 149 L 311 143 L 315 136 L 315 132 L 311 127 L 310 127 L 308 125 L 306 125 L 302 123 L 299 123 L 298 122 L 285 122 L 284 123 L 277 124 L 271 127 Z M 275 101 L 271 101 L 268 104 L 266 108 L 266 110 L 265 111 L 265 119 L 268 122 L 272 121 L 276 117 L 278 113 L 278 106 L 277 105 L 277 103 Z M 356 97 L 352 100 L 352 102 L 350 106 L 350 113 L 351 114 L 351 117 L 355 122 L 360 122 L 363 120 L 365 116 L 365 114 L 366 113 L 366 107 L 363 100 L 361 98 Z M 285 63 L 284 62 L 278 62 L 276 63 L 270 68 L 270 69 L 268 71 L 268 73 L 269 74 L 271 74 L 276 70 L 282 67 L 284 67 L 285 66 Z M 354 56 L 354 57 L 356 59 L 363 60 L 370 65 L 373 65 L 374 64 L 374 60 L 370 56 L 366 54 L 364 54 L 363 53 L 358 53 Z M 445 13 L 443 13 L 439 11 L 436 11 L 435 10 L 420 10 L 419 11 L 416 11 L 410 14 L 408 14 L 403 17 L 395 25 L 395 26 L 391 29 L 389 28 L 386 28 L 385 27 L 381 27 L 380 26 L 375 26 L 374 25 L 361 25 L 358 22 L 358 20 L 355 16 L 353 15 L 347 15 L 346 16 L 342 17 L 335 23 L 325 18 L 322 18 L 321 17 L 316 17 L 311 21 L 310 23 L 310 28 L 308 30 L 298 30 L 286 36 L 284 36 L 275 41 L 271 41 L 264 35 L 256 31 L 254 31 L 253 30 L 249 30 L 248 29 L 241 29 L 240 30 L 232 31 L 220 37 L 211 46 L 211 47 L 207 52 L 207 54 L 204 59 L 204 62 L 203 63 L 203 78 L 204 79 L 204 81 L 209 91 L 219 101 L 220 101 L 222 103 L 222 105 L 219 109 L 214 119 L 214 130 L 205 139 L 204 143 L 203 144 L 203 148 L 204 150 L 208 153 L 208 156 L 205 161 L 204 168 L 205 169 L 205 171 L 209 175 L 209 179 L 208 180 L 208 189 L 209 190 L 209 192 L 216 199 L 215 204 L 216 205 L 216 210 L 217 212 L 223 219 L 228 221 L 230 223 L 231 229 L 238 236 L 240 237 L 243 237 L 245 239 L 245 242 L 242 245 L 240 245 L 239 246 L 235 246 L 234 247 L 226 248 L 221 251 L 218 254 L 217 254 L 213 258 L 211 259 L 208 259 L 207 260 L 203 260 L 199 262 L 192 270 L 183 273 L 181 275 L 180 278 L 177 281 L 175 282 L 167 282 L 160 287 L 151 291 L 149 293 L 148 293 L 141 301 L 140 301 L 135 306 L 134 306 L 127 312 L 111 319 L 105 325 L 104 325 L 97 331 L 95 331 L 94 332 L 83 332 L 82 331 L 79 331 L 78 330 L 69 330 L 68 331 L 64 331 L 58 334 L 56 336 L 53 337 L 45 344 L 43 348 L 43 353 L 41 357 L 37 361 L 34 362 L 27 369 L 24 375 L 24 383 L 29 389 L 29 391 L 27 395 L 24 398 L 23 400 L 23 403 L 22 404 L 22 407 L 23 408 L 23 412 L 24 414 L 28 418 L 29 418 L 31 420 L 35 421 L 38 424 L 38 426 L 41 432 L 45 436 L 47 437 L 63 437 L 65 439 L 67 444 L 69 446 L 71 447 L 74 447 L 75 448 L 82 448 L 83 447 L 86 447 L 94 443 L 96 441 L 108 435 L 110 433 L 114 431 L 118 427 L 122 425 L 125 422 L 131 419 L 133 419 L 134 418 L 140 418 L 141 417 L 148 417 L 149 416 L 153 416 L 154 415 L 159 415 L 160 414 L 165 413 L 168 411 L 170 411 L 178 407 L 190 407 L 198 403 L 202 403 L 204 405 L 204 408 L 201 414 L 201 416 L 199 419 L 198 427 L 197 428 L 197 432 L 198 433 L 198 435 L 202 438 L 201 444 L 200 445 L 200 449 L 199 450 L 199 461 L 200 462 L 201 466 L 204 470 L 204 480 L 205 481 L 206 486 L 207 488 L 214 495 L 214 498 L 213 499 L 212 505 L 211 506 L 211 510 L 207 519 L 207 527 L 210 530 L 210 532 L 207 537 L 207 540 L 206 541 L 206 545 L 208 549 L 210 551 L 210 555 L 209 556 L 209 559 L 208 560 L 208 563 L 207 564 L 207 572 L 213 579 L 213 588 L 214 589 L 214 593 L 216 597 L 216 600 L 217 601 L 219 612 L 221 616 L 221 620 L 219 622 L 209 625 L 207 627 L 201 630 L 196 635 L 192 642 L 192 644 L 190 648 L 190 663 L 192 667 L 197 673 L 205 677 L 207 677 L 208 678 L 212 678 L 213 679 L 216 679 L 217 680 L 229 681 L 230 682 L 260 683 L 261 682 L 279 682 L 280 681 L 289 681 L 290 680 L 296 680 L 297 679 L 308 678 L 309 677 L 320 675 L 328 671 L 333 666 L 336 659 L 336 655 L 337 654 L 337 644 L 336 643 L 336 638 L 339 634 L 340 630 L 341 629 L 341 611 L 340 610 L 340 606 L 342 604 L 344 600 L 345 581 L 346 580 L 346 576 L 348 574 L 353 574 L 354 575 L 364 575 L 367 579 L 367 582 L 368 583 L 372 597 L 376 605 L 380 609 L 380 614 L 381 615 L 381 620 L 382 621 L 383 630 L 385 633 L 385 635 L 391 643 L 391 651 L 390 652 L 390 658 L 389 659 L 389 666 L 390 667 L 390 670 L 391 671 L 392 675 L 395 678 L 395 679 L 400 683 L 412 688 L 415 688 L 416 689 L 419 689 L 420 690 L 425 690 L 426 691 L 433 691 L 434 692 L 480 692 L 481 691 L 490 691 L 491 690 L 496 690 L 497 689 L 505 688 L 506 687 L 514 685 L 519 682 L 524 677 L 527 671 L 527 668 L 528 667 L 528 657 L 527 656 L 526 650 L 522 643 L 515 636 L 514 636 L 509 632 L 509 628 L 510 627 L 510 618 L 511 617 L 511 588 L 510 587 L 510 580 L 514 576 L 514 574 L 515 573 L 515 568 L 514 567 L 513 561 L 509 554 L 509 552 L 513 547 L 513 543 L 512 542 L 511 536 L 508 531 L 508 528 L 510 525 L 510 516 L 508 512 L 508 509 L 510 507 L 519 507 L 522 509 L 526 509 L 527 510 L 535 509 L 558 499 L 568 490 L 568 489 L 571 486 L 575 478 L 575 476 L 578 469 L 578 466 L 579 465 L 579 461 L 580 460 L 580 441 L 579 440 L 579 436 L 581 433 L 581 424 L 580 423 L 580 419 L 579 418 L 577 410 L 575 407 L 575 402 L 577 399 L 577 394 L 573 385 L 571 383 L 567 376 L 569 372 L 568 367 L 565 361 L 558 351 L 558 348 L 561 345 L 561 342 L 559 338 L 555 334 L 555 333 L 543 321 L 542 321 L 540 319 L 540 317 L 542 314 L 542 310 L 541 308 L 533 300 L 532 300 L 528 296 L 524 294 L 521 291 L 523 287 L 523 283 L 519 279 L 518 279 L 516 277 L 514 277 L 510 273 L 509 267 L 506 264 L 505 264 L 502 261 L 496 258 L 494 256 L 494 253 L 495 252 L 494 249 L 487 243 L 472 236 L 470 234 L 470 231 L 469 229 L 463 223 L 463 219 L 467 210 L 473 204 L 473 202 L 475 198 L 475 192 L 476 190 L 481 186 L 483 182 L 483 171 L 482 170 L 481 165 L 486 160 L 486 152 L 482 144 L 480 142 L 480 139 L 484 134 L 484 129 L 482 125 L 473 117 L 473 115 L 472 114 L 472 110 L 461 88 L 459 86 L 457 82 L 457 80 L 459 78 L 460 78 L 467 70 L 469 66 L 470 61 L 471 60 L 471 56 L 472 54 L 471 53 L 471 45 L 470 44 L 470 40 L 465 29 L 462 26 L 462 25 L 457 20 L 454 19 L 452 17 Z M 440 18 L 449 23 L 458 32 L 463 41 L 463 44 L 464 45 L 464 48 L 465 49 L 465 55 L 464 56 L 463 62 L 458 70 L 448 79 L 448 81 L 453 88 L 457 97 L 459 99 L 459 101 L 466 111 L 466 113 L 462 117 L 464 119 L 471 123 L 477 129 L 477 131 L 474 134 L 466 134 L 466 135 L 472 141 L 479 152 L 479 156 L 477 158 L 475 158 L 474 157 L 470 157 L 473 163 L 473 165 L 475 168 L 476 174 L 477 175 L 477 178 L 474 182 L 468 179 L 468 181 L 469 182 L 469 195 L 468 196 L 468 198 L 465 201 L 464 201 L 462 199 L 461 200 L 461 203 L 460 204 L 460 207 L 459 208 L 458 213 L 449 227 L 451 229 L 454 229 L 460 234 L 457 237 L 459 239 L 466 241 L 467 242 L 469 242 L 470 243 L 472 243 L 480 247 L 483 250 L 479 253 L 476 253 L 476 254 L 490 261 L 503 271 L 503 272 L 500 275 L 497 275 L 497 276 L 501 279 L 507 282 L 511 283 L 514 286 L 514 288 L 512 290 L 510 290 L 509 292 L 520 299 L 523 302 L 528 305 L 533 310 L 533 313 L 532 314 L 526 314 L 525 315 L 540 329 L 541 329 L 552 340 L 552 342 L 550 344 L 548 343 L 545 343 L 544 342 L 542 343 L 550 352 L 550 353 L 553 356 L 553 357 L 561 368 L 561 369 L 559 371 L 555 371 L 555 372 L 563 383 L 565 388 L 568 392 L 568 396 L 567 397 L 564 397 L 564 399 L 567 404 L 567 407 L 569 410 L 569 413 L 570 414 L 570 416 L 573 423 L 573 428 L 569 430 L 570 436 L 571 437 L 571 445 L 572 446 L 572 449 L 571 450 L 571 461 L 570 462 L 570 466 L 569 467 L 569 470 L 568 471 L 567 476 L 562 485 L 557 490 L 551 493 L 549 491 L 550 490 L 552 479 L 550 478 L 550 480 L 548 483 L 548 485 L 545 492 L 538 499 L 536 500 L 528 501 L 527 500 L 525 500 L 523 498 L 523 495 L 527 487 L 527 480 L 526 480 L 520 492 L 515 497 L 513 498 L 505 498 L 504 497 L 502 497 L 493 489 L 493 487 L 496 484 L 499 478 L 499 476 L 500 475 L 500 471 L 501 470 L 501 466 L 499 464 L 498 465 L 494 475 L 489 479 L 484 479 L 482 478 L 476 472 L 474 468 L 474 464 L 473 463 L 473 454 L 474 453 L 474 449 L 475 448 L 475 446 L 479 438 L 479 432 L 478 431 L 478 428 L 477 427 L 477 424 L 476 423 L 476 419 L 475 418 L 475 415 L 474 414 L 472 403 L 470 399 L 469 392 L 459 368 L 448 352 L 447 349 L 444 346 L 444 345 L 440 341 L 439 341 L 439 346 L 442 352 L 444 354 L 445 357 L 447 359 L 452 370 L 454 372 L 455 376 L 460 386 L 460 388 L 462 392 L 462 395 L 463 396 L 463 399 L 465 403 L 465 406 L 466 407 L 468 418 L 469 419 L 469 423 L 471 427 L 472 437 L 471 438 L 471 441 L 470 442 L 470 444 L 468 447 L 468 450 L 467 451 L 467 467 L 468 468 L 469 474 L 471 478 L 475 483 L 476 483 L 479 486 L 484 487 L 488 491 L 488 494 L 490 498 L 498 505 L 500 509 L 500 513 L 503 519 L 503 520 L 501 522 L 498 522 L 497 524 L 505 539 L 506 543 L 504 545 L 501 545 L 497 543 L 497 545 L 502 554 L 502 556 L 507 565 L 508 569 L 506 571 L 501 569 L 501 571 L 503 574 L 504 579 L 501 582 L 502 584 L 502 588 L 503 589 L 503 613 L 502 614 L 502 622 L 501 623 L 501 629 L 500 630 L 499 637 L 509 642 L 517 651 L 518 653 L 518 656 L 519 657 L 519 662 L 520 663 L 520 665 L 519 666 L 519 670 L 517 674 L 513 678 L 509 680 L 506 680 L 504 678 L 504 676 L 505 675 L 505 671 L 504 670 L 504 666 L 503 665 L 503 663 L 499 659 L 498 659 L 497 660 L 497 665 L 498 666 L 498 669 L 499 670 L 499 677 L 498 678 L 498 680 L 494 683 L 490 683 L 489 684 L 480 684 L 478 682 L 478 668 L 475 662 L 472 662 L 470 664 L 471 666 L 472 682 L 469 685 L 447 685 L 445 683 L 446 681 L 446 668 L 445 667 L 445 664 L 444 663 L 441 663 L 439 666 L 439 677 L 440 678 L 440 683 L 438 685 L 432 685 L 431 684 L 419 683 L 418 682 L 415 682 L 414 681 L 412 681 L 405 678 L 399 672 L 398 668 L 397 667 L 397 655 L 398 654 L 398 650 L 399 649 L 399 637 L 398 636 L 398 634 L 394 635 L 391 631 L 391 616 L 390 615 L 388 615 L 386 613 L 386 598 L 385 597 L 384 598 L 381 598 L 379 595 L 379 592 L 377 589 L 376 583 L 372 576 L 372 572 L 374 570 L 376 570 L 378 568 L 378 566 L 377 565 L 372 565 L 371 566 L 367 566 L 366 567 L 345 567 L 344 566 L 338 566 L 337 565 L 332 565 L 331 564 L 322 563 L 321 562 L 318 562 L 317 561 L 314 561 L 313 560 L 309 560 L 308 562 L 312 565 L 316 566 L 319 568 L 325 569 L 326 570 L 329 570 L 330 571 L 334 571 L 335 572 L 337 572 L 339 574 L 338 576 L 338 579 L 337 580 L 337 584 L 336 585 L 337 598 L 335 600 L 331 599 L 332 612 L 333 613 L 333 630 L 331 632 L 327 631 L 329 651 L 328 652 L 328 658 L 326 662 L 320 668 L 318 669 L 315 669 L 311 671 L 307 671 L 306 672 L 300 672 L 299 673 L 294 673 L 293 674 L 285 674 L 284 675 L 278 675 L 277 676 L 241 676 L 239 674 L 239 663 L 241 659 L 241 654 L 238 654 L 235 657 L 234 659 L 234 662 L 233 663 L 233 670 L 234 671 L 234 673 L 232 675 L 227 675 L 226 674 L 221 674 L 220 673 L 217 673 L 214 670 L 214 660 L 215 659 L 215 656 L 217 652 L 217 649 L 215 649 L 212 651 L 209 658 L 209 669 L 208 670 L 205 670 L 199 665 L 199 663 L 198 662 L 198 651 L 199 650 L 199 647 L 202 640 L 208 634 L 216 630 L 219 630 L 220 629 L 223 629 L 224 628 L 232 628 L 234 627 L 234 625 L 231 621 L 229 614 L 228 613 L 228 610 L 227 609 L 227 606 L 226 605 L 226 602 L 225 601 L 225 598 L 224 597 L 224 589 L 223 588 L 221 588 L 219 586 L 219 582 L 220 581 L 221 572 L 220 571 L 218 573 L 216 573 L 214 571 L 215 563 L 216 562 L 216 559 L 217 558 L 217 555 L 218 554 L 218 551 L 219 550 L 220 545 L 219 544 L 215 545 L 213 543 L 214 538 L 219 528 L 219 525 L 215 526 L 213 524 L 213 522 L 219 510 L 222 507 L 226 508 L 226 506 L 218 490 L 218 485 L 217 484 L 217 481 L 213 483 L 210 480 L 211 459 L 210 459 L 208 461 L 205 458 L 205 455 L 206 454 L 206 448 L 207 447 L 209 436 L 212 429 L 210 428 L 208 430 L 206 430 L 204 428 L 204 424 L 207 419 L 207 417 L 213 405 L 215 403 L 217 399 L 216 398 L 210 399 L 208 397 L 208 396 L 212 389 L 222 376 L 221 374 L 218 375 L 216 373 L 216 370 L 225 357 L 225 354 L 226 353 L 226 350 L 228 346 L 229 339 L 232 332 L 232 325 L 236 318 L 236 315 L 238 313 L 238 310 L 235 311 L 231 317 L 231 323 L 229 325 L 223 335 L 221 343 L 219 346 L 219 351 L 218 352 L 218 355 L 211 369 L 211 380 L 204 388 L 200 389 L 198 391 L 188 396 L 186 396 L 177 401 L 175 401 L 172 403 L 170 403 L 164 406 L 157 407 L 153 409 L 148 409 L 147 410 L 142 410 L 141 411 L 136 411 L 135 412 L 130 412 L 129 413 L 127 413 L 123 415 L 121 417 L 118 418 L 114 422 L 104 428 L 98 433 L 96 433 L 88 437 L 77 438 L 74 435 L 74 434 L 67 428 L 64 428 L 60 430 L 53 430 L 51 429 L 47 425 L 47 422 L 48 421 L 49 416 L 56 409 L 56 407 L 52 409 L 49 409 L 48 410 L 43 411 L 38 414 L 35 413 L 32 410 L 31 405 L 32 404 L 32 401 L 33 399 L 39 393 L 42 392 L 44 390 L 44 389 L 41 389 L 39 388 L 35 384 L 34 382 L 34 377 L 38 372 L 39 372 L 44 368 L 48 367 L 51 365 L 53 365 L 57 362 L 56 356 L 54 352 L 60 345 L 64 344 L 65 343 L 68 343 L 69 342 L 77 342 L 78 341 L 95 341 L 99 339 L 101 337 L 104 336 L 106 334 L 117 329 L 119 327 L 121 327 L 124 325 L 126 325 L 128 323 L 133 322 L 139 319 L 145 314 L 155 309 L 158 306 L 158 303 L 164 297 L 167 296 L 167 293 L 169 291 L 171 290 L 178 290 L 179 289 L 183 289 L 187 287 L 191 282 L 199 280 L 201 278 L 198 275 L 198 274 L 200 272 L 204 271 L 207 269 L 209 269 L 213 266 L 215 266 L 216 265 L 220 265 L 221 264 L 225 264 L 227 263 L 229 261 L 229 257 L 232 254 L 234 254 L 235 253 L 239 253 L 240 252 L 245 252 L 246 251 L 249 251 L 253 247 L 257 247 L 260 245 L 259 243 L 248 232 L 247 229 L 245 227 L 244 228 L 244 230 L 242 232 L 241 232 L 238 229 L 234 221 L 234 213 L 233 212 L 232 212 L 232 213 L 230 215 L 228 215 L 224 211 L 223 209 L 223 206 L 222 205 L 222 191 L 218 192 L 214 189 L 214 180 L 217 173 L 217 170 L 216 169 L 212 169 L 210 167 L 211 160 L 213 156 L 217 151 L 217 149 L 216 148 L 214 149 L 211 149 L 209 147 L 209 144 L 212 139 L 221 130 L 221 126 L 220 125 L 221 119 L 224 114 L 224 112 L 230 100 L 230 99 L 228 97 L 222 94 L 214 86 L 212 82 L 211 77 L 210 76 L 210 66 L 211 65 L 211 62 L 212 61 L 213 56 L 215 52 L 224 43 L 231 39 L 233 39 L 237 37 L 248 36 L 249 37 L 253 37 L 257 39 L 267 48 L 268 51 L 271 51 L 275 48 L 287 42 L 294 41 L 295 40 L 295 38 L 297 36 L 299 36 L 300 35 L 316 35 L 317 33 L 315 30 L 315 25 L 317 23 L 322 23 L 328 26 L 331 29 L 333 30 L 336 30 L 342 24 L 347 21 L 351 21 L 353 23 L 353 26 L 351 29 L 351 31 L 352 32 L 354 31 L 372 31 L 373 32 L 377 32 L 378 33 L 386 34 L 394 38 L 396 38 L 402 28 L 409 22 L 415 19 L 417 19 L 424 16 L 432 16 L 433 17 L 437 17 L 438 18 Z" fill="#010101" fill-rule="evenodd"/></svg>