<svg xmlns="http://www.w3.org/2000/svg" viewBox="0 0 653 704" shape-rendering="geometricPrecision"><title>intro frame 018</title><path d="M 327 681 L 330 682 L 335 678 L 338 677 L 346 684 L 350 683 L 352 681 L 352 671 L 355 665 L 358 662 L 361 662 L 364 666 L 364 675 L 362 679 L 362 682 L 363 683 L 368 683 L 370 680 L 370 678 L 373 675 L 376 675 L 382 681 L 382 682 L 385 682 L 387 684 L 390 685 L 420 684 L 430 680 L 431 676 L 434 672 L 435 667 L 437 664 L 437 657 L 434 656 L 432 654 L 425 654 L 421 657 L 418 657 L 414 655 L 383 655 L 378 653 L 365 652 L 364 651 L 343 651 L 334 659 L 333 662 L 331 664 L 327 676 Z M 246 537 L 245 539 L 245 549 L 244 550 L 244 565 L 242 567 L 242 574 L 241 575 L 241 580 L 240 581 L 241 588 L 245 592 L 245 594 L 248 597 L 250 597 L 255 602 L 255 604 L 259 609 L 268 617 L 274 620 L 276 620 L 278 618 L 288 617 L 290 615 L 292 615 L 292 608 L 289 601 L 292 600 L 292 599 L 289 600 L 287 597 L 287 578 L 286 577 L 286 574 L 283 571 L 280 570 L 275 566 L 272 561 L 272 559 L 259 545 L 259 544 L 249 537 Z M 68 211 L 64 214 L 65 220 L 66 220 L 67 214 L 69 212 Z M 70 184 L 73 182 L 78 182 L 77 180 L 72 180 L 70 182 Z M 72 210 L 72 211 L 78 211 L 80 213 L 82 213 L 88 219 L 88 222 L 89 223 L 89 229 L 86 233 L 80 233 L 72 229 L 70 229 L 72 233 L 88 247 L 95 251 L 97 251 L 102 256 L 107 266 L 107 268 L 119 280 L 122 285 L 142 305 L 151 312 L 154 313 L 165 322 L 171 323 L 178 327 L 184 329 L 188 329 L 189 330 L 193 330 L 195 331 L 198 335 L 195 338 L 191 340 L 192 343 L 207 342 L 214 347 L 220 347 L 221 348 L 223 347 L 230 347 L 233 351 L 227 357 L 227 359 L 229 361 L 232 361 L 233 362 L 242 362 L 243 361 L 247 361 L 249 359 L 255 348 L 256 337 L 257 336 L 257 330 L 261 324 L 261 321 L 264 316 L 264 313 L 267 309 L 267 305 L 270 301 L 265 292 L 259 286 L 257 287 L 255 290 L 252 289 L 246 282 L 242 275 L 239 279 L 236 280 L 232 276 L 228 268 L 228 266 L 225 262 L 223 262 L 222 263 L 222 267 L 220 269 L 218 269 L 216 268 L 208 258 L 208 256 L 206 254 L 206 252 L 201 246 L 199 246 L 197 249 L 194 248 L 180 230 L 163 211 L 163 205 L 166 200 L 166 194 L 167 192 L 163 194 L 157 199 L 152 200 L 149 198 L 146 194 L 146 180 L 142 175 L 141 175 L 140 179 L 137 183 L 134 185 L 130 185 L 124 182 L 121 182 L 120 183 L 117 182 L 112 174 L 113 180 L 114 181 L 113 186 L 107 191 L 104 191 L 103 192 L 98 191 L 96 193 L 93 193 L 95 197 L 95 205 L 91 210 L 88 211 L 87 210 L 82 210 L 79 208 L 77 208 L 75 210 Z M 142 197 L 150 206 L 151 209 L 151 220 L 149 224 L 141 232 L 137 235 L 128 239 L 126 241 L 124 241 L 119 244 L 113 246 L 105 246 L 104 245 L 101 245 L 93 238 L 90 234 L 90 222 L 94 213 L 94 210 L 98 204 L 107 195 L 111 192 L 124 189 L 125 190 L 131 190 Z M 163 170 L 166 176 L 166 178 L 167 178 L 167 175 L 165 171 Z M 90 159 L 90 160 L 91 160 L 93 158 L 95 158 L 96 159 L 102 160 L 97 156 L 94 156 Z M 248 98 L 241 102 L 235 108 L 230 118 L 230 132 L 234 140 L 237 143 L 247 148 L 250 152 L 250 154 L 241 173 L 241 179 L 242 180 L 241 184 L 230 197 L 231 198 L 236 198 L 238 200 L 237 206 L 234 210 L 233 216 L 232 217 L 237 216 L 240 219 L 240 222 L 237 231 L 237 238 L 242 235 L 246 238 L 245 257 L 248 261 L 253 258 L 257 262 L 259 267 L 265 270 L 273 279 L 279 282 L 281 282 L 286 286 L 289 287 L 297 295 L 299 299 L 299 303 L 297 305 L 295 305 L 286 299 L 282 299 L 281 302 L 274 308 L 274 313 L 273 315 L 269 318 L 272 322 L 272 324 L 264 333 L 268 339 L 265 344 L 265 350 L 261 360 L 261 367 L 258 376 L 256 379 L 256 381 L 257 382 L 263 377 L 270 377 L 272 379 L 272 383 L 264 394 L 248 406 L 247 410 L 249 410 L 252 413 L 252 415 L 248 421 L 244 424 L 237 432 L 237 433 L 243 433 L 245 435 L 245 440 L 243 445 L 239 450 L 237 451 L 233 457 L 234 459 L 239 457 L 241 457 L 243 459 L 243 462 L 237 473 L 234 484 L 236 484 L 240 481 L 243 477 L 246 477 L 248 479 L 248 481 L 245 486 L 242 495 L 242 504 L 243 504 L 245 501 L 247 501 L 250 504 L 250 515 L 252 517 L 252 519 L 256 525 L 264 529 L 271 537 L 281 545 L 283 545 L 285 547 L 291 549 L 295 553 L 299 555 L 304 554 L 309 559 L 319 559 L 322 557 L 328 551 L 333 548 L 333 547 L 339 542 L 339 540 L 341 538 L 348 534 L 356 525 L 358 525 L 364 519 L 367 519 L 368 518 L 372 522 L 386 522 L 390 525 L 390 529 L 387 532 L 378 533 L 376 535 L 373 535 L 369 538 L 365 539 L 357 546 L 348 552 L 342 560 L 342 562 L 338 568 L 338 577 L 337 578 L 337 581 L 334 586 L 334 588 L 331 591 L 331 599 L 332 600 L 333 608 L 343 632 L 346 635 L 351 636 L 359 641 L 362 641 L 367 643 L 372 643 L 373 644 L 387 645 L 388 646 L 420 646 L 423 648 L 426 648 L 428 645 L 426 635 L 423 634 L 421 632 L 422 606 L 425 600 L 433 593 L 436 584 L 439 579 L 439 577 L 443 570 L 443 568 L 449 555 L 451 545 L 449 539 L 446 534 L 445 526 L 447 524 L 449 524 L 452 520 L 455 520 L 456 519 L 456 514 L 453 511 L 449 509 L 446 509 L 440 507 L 434 499 L 435 496 L 430 496 L 427 493 L 428 484 L 426 482 L 426 479 L 423 474 L 423 471 L 420 468 L 410 463 L 407 463 L 405 461 L 398 461 L 396 459 L 396 454 L 398 452 L 400 453 L 405 453 L 410 449 L 414 448 L 417 445 L 421 445 L 424 442 L 426 442 L 430 438 L 434 437 L 439 432 L 439 414 L 438 413 L 438 402 L 437 401 L 439 391 L 435 386 L 429 384 L 426 384 L 422 380 L 419 379 L 403 362 L 403 360 L 404 359 L 408 360 L 411 357 L 414 357 L 419 362 L 419 365 L 427 373 L 440 373 L 447 381 L 450 382 L 453 378 L 458 377 L 462 374 L 466 374 L 467 375 L 467 389 L 461 406 L 461 412 L 459 416 L 459 422 L 457 424 L 457 427 L 455 430 L 453 438 L 451 441 L 451 446 L 448 451 L 448 454 L 451 459 L 451 465 L 453 467 L 453 478 L 451 481 L 450 488 L 455 493 L 466 493 L 471 489 L 475 489 L 480 482 L 480 479 L 482 477 L 482 474 L 487 469 L 488 466 L 490 464 L 490 462 L 496 455 L 508 464 L 508 469 L 511 472 L 513 473 L 518 473 L 521 471 L 522 469 L 525 469 L 527 471 L 529 471 L 532 473 L 534 469 L 534 466 L 538 458 L 538 455 L 542 449 L 543 443 L 549 435 L 549 426 L 552 419 L 552 414 L 550 409 L 550 402 L 549 401 L 548 394 L 549 393 L 549 386 L 553 381 L 554 378 L 553 377 L 553 372 L 551 369 L 550 362 L 548 360 L 544 359 L 542 357 L 539 356 L 536 353 L 534 347 L 537 344 L 537 341 L 533 338 L 526 330 L 521 327 L 503 322 L 498 318 L 502 315 L 505 315 L 505 313 L 493 308 L 490 308 L 486 306 L 480 305 L 474 297 L 469 297 L 468 296 L 457 294 L 453 292 L 435 298 L 429 298 L 426 297 L 420 302 L 415 302 L 414 301 L 414 295 L 412 296 L 412 300 L 408 305 L 406 305 L 403 302 L 404 295 L 411 289 L 414 289 L 420 281 L 424 280 L 426 282 L 426 284 L 427 284 L 429 282 L 429 280 L 433 273 L 435 273 L 437 275 L 440 272 L 441 270 L 441 264 L 445 260 L 447 255 L 453 250 L 453 249 L 447 243 L 447 241 L 449 239 L 457 240 L 459 238 L 456 234 L 456 232 L 459 229 L 463 229 L 465 231 L 466 230 L 466 227 L 464 226 L 460 221 L 462 220 L 464 217 L 459 209 L 462 206 L 465 207 L 467 209 L 475 208 L 478 210 L 480 210 L 482 212 L 482 214 L 484 215 L 484 213 L 481 207 L 481 203 L 480 201 L 481 199 L 484 197 L 487 198 L 488 195 L 476 182 L 476 179 L 479 176 L 483 175 L 483 174 L 479 170 L 477 170 L 471 164 L 471 160 L 473 158 L 473 156 L 470 152 L 463 137 L 454 127 L 454 125 L 456 123 L 460 121 L 466 116 L 472 107 L 472 95 L 471 94 L 471 91 L 469 89 L 468 86 L 461 79 L 457 76 L 453 75 L 451 73 L 447 73 L 446 72 L 434 72 L 424 77 L 418 83 L 416 86 L 415 91 L 412 94 L 409 94 L 405 92 L 402 92 L 399 90 L 395 90 L 391 88 L 386 88 L 385 87 L 371 87 L 367 89 L 364 89 L 362 87 L 362 81 L 360 79 L 350 87 L 342 86 L 338 83 L 332 82 L 333 88 L 330 91 L 328 92 L 318 92 L 315 91 L 308 98 L 306 98 L 304 100 L 301 100 L 299 102 L 296 102 L 290 106 L 287 109 L 287 111 L 288 112 L 290 111 L 297 111 L 301 114 L 301 119 L 283 131 L 282 131 L 278 126 L 278 122 L 281 119 L 283 115 L 283 112 L 275 102 L 272 101 L 270 99 L 264 98 L 263 97 L 252 97 L 251 98 Z M 273 501 L 275 503 L 275 507 L 273 511 L 270 513 L 269 512 L 269 506 Z M 268 476 L 269 477 L 268 484 L 264 487 L 263 486 L 263 482 L 265 478 Z M 268 440 L 270 442 L 270 444 L 265 452 L 265 455 L 267 458 L 267 461 L 262 469 L 259 472 L 257 472 L 256 471 L 256 468 L 261 459 L 258 455 L 258 451 L 260 447 Z M 365 412 L 368 415 L 367 429 L 366 430 L 363 429 L 360 425 L 360 419 L 362 415 Z M 300 407 L 301 410 L 297 413 L 295 411 Z M 327 384 L 329 384 L 331 386 L 331 390 L 329 392 L 325 392 L 322 389 L 323 387 Z M 299 366 L 301 368 L 301 370 L 297 373 L 292 370 L 293 367 L 297 367 Z M 356 362 L 358 360 L 360 360 L 362 361 L 369 369 L 371 369 L 376 372 L 379 372 L 382 369 L 389 369 L 393 374 L 394 374 L 395 376 L 406 386 L 409 386 L 414 382 L 418 386 L 418 391 L 413 397 L 413 402 L 410 404 L 407 401 L 403 400 L 399 396 L 399 393 L 396 391 L 394 386 L 385 378 L 372 377 L 366 374 L 364 374 L 356 368 L 355 365 Z M 333 354 L 333 357 L 329 361 L 327 361 L 324 365 L 314 369 L 310 366 L 310 364 L 314 356 L 316 354 L 321 358 L 324 358 L 328 354 L 331 353 Z M 348 337 L 353 337 L 355 339 L 355 348 L 353 350 L 348 349 L 344 345 L 344 341 Z M 398 293 L 398 296 L 394 300 L 388 309 L 375 320 L 377 325 L 381 325 L 387 321 L 389 322 L 389 332 L 388 334 L 385 336 L 380 336 L 374 331 L 369 330 L 365 326 L 363 326 L 357 330 L 350 329 L 344 326 L 342 326 L 338 324 L 335 321 L 333 321 L 322 314 L 314 304 L 318 299 L 327 299 L 328 300 L 334 300 L 335 301 L 351 301 L 357 299 L 363 299 L 369 297 L 374 297 L 378 295 L 385 294 L 390 291 L 396 291 Z M 381 179 L 390 169 L 396 168 L 397 167 L 413 167 L 414 168 L 421 169 L 429 176 L 432 181 L 433 189 L 429 194 L 422 198 L 408 199 L 407 198 L 403 198 L 402 197 L 395 196 L 389 193 L 382 186 Z M 304 161 L 307 158 L 316 154 L 330 154 L 337 157 L 340 160 L 341 164 L 338 167 L 335 167 L 327 164 L 307 165 Z M 286 147 L 289 147 L 296 155 L 296 160 L 297 161 L 295 166 L 295 170 L 304 169 L 309 167 L 315 169 L 319 169 L 331 178 L 333 183 L 333 187 L 330 193 L 318 204 L 303 209 L 301 209 L 290 204 L 279 195 L 279 199 L 278 200 L 279 205 L 281 210 L 284 213 L 286 213 L 289 215 L 296 215 L 305 209 L 308 209 L 311 211 L 315 211 L 316 212 L 323 212 L 324 213 L 338 213 L 339 212 L 343 212 L 358 206 L 363 201 L 367 194 L 372 194 L 377 201 L 378 208 L 379 209 L 379 236 L 378 237 L 378 242 L 376 246 L 375 253 L 368 267 L 362 273 L 350 281 L 337 284 L 336 283 L 330 283 L 320 278 L 306 264 L 297 252 L 291 240 L 288 227 L 286 225 L 284 225 L 278 222 L 271 215 L 267 207 L 267 199 L 266 199 L 265 202 L 258 208 L 253 210 L 249 210 L 245 208 L 242 205 L 241 202 L 242 194 L 244 190 L 251 184 L 260 180 L 264 180 L 271 186 L 272 185 L 279 186 L 279 180 L 280 177 L 276 171 L 276 160 L 280 152 Z M 371 141 L 374 142 L 380 148 L 383 154 L 383 163 L 379 172 L 376 175 L 373 175 L 372 176 L 366 174 L 362 170 L 360 165 L 360 154 L 362 148 L 366 143 Z M 263 109 L 269 114 L 270 119 L 263 129 L 263 131 L 259 137 L 254 141 L 250 141 L 244 136 L 241 130 L 241 121 L 244 115 L 251 109 L 254 108 Z M 364 106 L 369 100 L 377 100 L 384 103 L 389 107 L 391 110 L 391 115 L 387 119 L 385 119 L 380 117 L 378 115 L 375 115 L 372 113 L 367 112 L 365 110 Z M 438 84 L 447 84 L 451 86 L 456 91 L 461 101 L 461 107 L 459 111 L 449 120 L 443 118 L 435 109 L 426 102 L 426 97 L 428 93 L 434 86 Z" fill="#FBFBFB" fill-rule="evenodd"/><path d="M 469 641 L 470 667 L 467 676 L 464 681 L 459 686 L 453 690 L 447 692 L 449 692 L 460 686 L 466 679 L 470 667 Z M 269 634 L 275 637 L 278 637 L 290 641 L 301 652 L 302 652 L 308 659 L 307 669 L 307 666 L 309 663 L 309 661 L 306 655 L 304 654 L 293 642 Z M 504 558 L 498 564 L 498 565 L 479 584 L 477 585 L 471 594 L 470 603 L 469 604 L 470 614 L 471 615 L 471 623 L 470 626 L 467 629 L 468 639 L 467 631 L 469 629 L 476 629 L 476 626 L 474 624 L 472 614 L 471 613 L 471 604 L 474 601 L 478 600 L 480 597 L 480 594 L 482 589 L 482 581 L 491 573 L 491 572 Z M 244 533 L 243 534 L 243 544 L 242 545 L 241 558 L 240 559 L 239 585 L 242 591 L 242 593 L 246 599 L 249 601 L 256 609 L 270 620 L 272 620 L 274 622 L 276 622 L 285 627 L 291 627 L 293 628 L 297 625 L 309 625 L 313 630 L 307 635 L 307 644 L 308 646 L 311 648 L 316 649 L 320 654 L 322 654 L 330 647 L 334 646 L 336 643 L 334 642 L 325 632 L 322 626 L 321 620 L 316 611 L 315 605 L 312 601 L 312 598 L 314 595 L 314 586 L 313 583 L 311 582 L 311 580 L 302 573 L 300 573 L 292 568 L 277 563 L 261 544 L 248 534 Z M 246 536 L 249 536 L 259 543 L 273 559 L 273 561 L 276 566 L 283 570 L 287 574 L 287 577 L 288 578 L 288 597 L 289 599 L 290 598 L 293 599 L 292 601 L 290 601 L 291 605 L 293 608 L 293 615 L 292 616 L 290 616 L 288 618 L 278 619 L 276 621 L 274 621 L 268 618 L 258 609 L 254 604 L 254 602 L 250 598 L 248 598 L 240 588 L 239 581 L 240 580 L 240 575 L 241 574 L 241 567 L 243 565 L 244 539 Z M 250 516 L 253 523 L 256 527 L 269 539 L 272 540 L 278 545 L 281 546 L 288 551 L 293 553 L 299 557 L 305 563 L 308 564 L 310 566 L 317 566 L 319 567 L 323 561 L 334 551 L 337 546 L 357 527 L 367 523 L 381 523 L 384 524 L 387 527 L 384 530 L 374 533 L 366 537 L 351 548 L 343 556 L 337 568 L 337 577 L 335 580 L 333 587 L 330 590 L 330 603 L 331 604 L 331 607 L 333 610 L 333 612 L 335 615 L 335 617 L 338 622 L 338 624 L 342 633 L 347 638 L 350 638 L 353 640 L 362 643 L 365 643 L 366 644 L 372 644 L 367 644 L 366 643 L 359 642 L 351 637 L 346 636 L 342 632 L 332 608 L 331 600 L 330 599 L 330 591 L 333 588 L 333 586 L 336 581 L 336 578 L 337 577 L 337 568 L 341 562 L 341 560 L 347 552 L 365 538 L 369 537 L 373 534 L 376 534 L 378 532 L 387 531 L 389 529 L 389 525 L 386 523 L 372 523 L 368 519 L 367 520 L 364 520 L 358 526 L 356 526 L 348 535 L 341 539 L 340 542 L 319 560 L 309 560 L 304 555 L 299 556 L 295 554 L 291 550 L 285 548 L 283 546 L 281 546 L 271 538 L 264 530 L 257 527 L 252 521 Z M 273 502 L 270 506 L 270 512 L 272 511 L 274 507 L 274 503 Z M 245 502 L 244 504 L 242 505 L 242 507 L 247 504 L 249 506 L 249 513 L 249 504 L 247 502 Z M 246 478 L 243 478 L 240 482 L 236 485 L 234 485 L 235 486 L 242 480 L 245 481 L 245 485 L 241 495 L 241 503 L 241 495 L 244 486 L 247 481 Z M 268 477 L 266 478 L 264 482 L 264 486 L 267 484 Z M 268 441 L 261 447 L 259 451 L 259 455 L 262 459 L 257 468 L 257 471 L 259 471 L 261 469 L 266 461 L 266 458 L 264 455 L 264 452 L 269 444 Z M 433 438 L 430 439 L 426 443 L 424 443 L 421 446 L 417 446 L 414 449 L 410 450 L 405 454 L 400 454 L 399 453 L 397 454 L 397 459 L 398 460 L 405 460 L 407 462 L 410 462 L 420 467 L 424 471 L 424 474 L 427 479 L 427 482 L 429 484 L 428 493 L 430 495 L 435 495 L 436 496 L 435 499 L 440 506 L 446 508 L 449 508 L 453 510 L 457 514 L 457 519 L 455 521 L 452 521 L 449 525 L 446 526 L 447 534 L 450 539 L 452 545 L 450 555 L 448 558 L 444 570 L 440 577 L 440 579 L 437 584 L 434 593 L 426 600 L 423 606 L 422 632 L 425 633 L 427 635 L 429 645 L 426 649 L 423 649 L 420 647 L 388 647 L 387 646 L 381 646 L 395 647 L 396 648 L 406 648 L 410 651 L 408 653 L 403 653 L 402 654 L 385 654 L 384 653 L 374 652 L 373 651 L 365 651 L 373 651 L 374 652 L 378 652 L 383 654 L 414 654 L 418 656 L 421 656 L 425 653 L 432 653 L 438 657 L 438 664 L 436 667 L 436 670 L 433 674 L 431 680 L 429 682 L 426 682 L 420 685 L 390 686 L 387 685 L 385 683 L 382 683 L 376 676 L 373 676 L 368 684 L 363 684 L 361 682 L 361 679 L 363 675 L 363 666 L 361 663 L 358 663 L 353 671 L 353 681 L 350 684 L 346 685 L 338 678 L 335 679 L 330 683 L 328 683 L 326 681 L 326 678 L 326 682 L 327 683 L 332 683 L 335 681 L 340 681 L 343 684 L 346 685 L 350 685 L 353 683 L 353 675 L 354 674 L 354 671 L 356 669 L 356 667 L 359 664 L 363 667 L 362 669 L 362 677 L 361 678 L 361 683 L 362 684 L 369 684 L 371 681 L 374 679 L 378 684 L 385 685 L 386 686 L 407 686 L 408 685 L 422 685 L 423 684 L 440 683 L 449 680 L 453 676 L 456 670 L 456 666 L 458 663 L 458 648 L 450 633 L 448 631 L 445 631 L 440 628 L 440 619 L 443 616 L 443 612 L 442 611 L 443 609 L 443 602 L 447 598 L 450 591 L 454 586 L 468 575 L 474 568 L 481 564 L 495 550 L 502 540 L 502 538 L 506 532 L 506 530 L 509 524 L 509 520 L 508 519 L 509 518 L 512 518 L 515 514 L 514 513 L 511 516 L 502 516 L 496 513 L 482 513 L 481 512 L 476 512 L 474 510 L 462 510 L 446 504 L 440 498 L 438 494 L 432 489 L 424 470 L 420 466 L 414 463 L 410 459 L 410 453 L 412 451 L 423 445 Z M 567 434 L 564 444 L 559 454 L 558 463 L 554 472 L 554 477 L 553 478 L 553 483 L 552 484 L 551 491 L 552 484 L 553 483 L 553 478 L 554 477 L 554 472 L 560 462 L 560 455 L 562 452 L 562 449 L 564 446 L 564 443 Z M 443 456 L 443 458 L 447 462 L 449 466 L 449 474 L 448 475 L 448 482 L 447 485 L 449 489 L 453 493 L 459 496 L 471 497 L 474 494 L 483 479 L 485 477 L 487 477 L 491 481 L 490 498 L 493 500 L 500 500 L 503 498 L 503 496 L 506 493 L 513 493 L 517 489 L 519 484 L 519 476 L 522 473 L 524 473 L 530 479 L 532 478 L 532 476 L 534 473 L 534 470 L 532 474 L 529 472 L 527 472 L 525 470 L 522 470 L 522 471 L 518 474 L 513 474 L 507 469 L 507 464 L 496 456 L 491 462 L 491 464 L 489 466 L 488 469 L 483 474 L 483 477 L 481 479 L 481 482 L 475 490 L 471 490 L 466 494 L 455 494 L 449 488 L 450 481 L 452 478 L 452 467 L 450 465 L 450 459 L 447 454 L 447 451 L 450 446 L 450 441 L 452 438 L 454 431 L 453 435 L 447 445 L 446 451 Z M 497 478 L 498 475 L 500 473 L 502 473 L 505 475 L 505 477 L 502 479 L 498 479 Z M 365 413 L 361 419 L 361 425 L 363 428 L 366 429 L 367 415 Z M 329 385 L 325 386 L 323 389 L 325 391 L 329 391 L 330 390 L 330 386 Z M 270 378 L 263 378 L 257 383 L 255 380 L 255 389 L 254 390 L 255 391 L 259 385 L 265 380 L 268 380 L 270 383 L 267 388 L 261 394 L 256 397 L 245 409 L 246 412 L 249 412 L 250 413 L 250 416 L 236 432 L 237 435 L 242 434 L 244 436 L 244 439 L 241 446 L 235 452 L 233 456 L 236 451 L 238 450 L 242 445 L 244 440 L 244 435 L 243 434 L 237 434 L 236 432 L 237 430 L 247 421 L 251 415 L 251 413 L 249 411 L 247 411 L 246 408 L 251 402 L 258 398 L 265 392 L 271 383 L 271 379 Z M 300 368 L 299 367 L 297 368 L 293 368 L 293 370 L 297 372 L 300 370 Z M 357 362 L 356 365 L 358 369 L 364 373 L 366 373 L 372 376 L 385 377 L 395 386 L 397 391 L 400 393 L 400 396 L 403 399 L 407 400 L 410 403 L 412 402 L 412 397 L 417 391 L 417 386 L 414 383 L 409 387 L 406 387 L 403 385 L 389 370 L 382 370 L 379 373 L 376 373 L 371 370 L 369 370 L 362 362 L 360 361 Z M 401 386 L 404 389 L 403 392 L 399 388 Z M 404 360 L 404 362 L 419 378 L 422 379 L 426 383 L 429 383 L 435 385 L 440 391 L 439 399 L 438 400 L 439 402 L 439 413 L 440 414 L 440 432 L 435 437 L 440 433 L 444 424 L 444 422 L 447 418 L 447 414 L 445 409 L 445 398 L 443 395 L 443 393 L 436 383 L 432 381 L 427 381 L 421 378 L 415 371 L 417 369 L 423 374 L 428 376 L 434 376 L 435 377 L 437 376 L 441 376 L 447 383 L 451 383 L 453 381 L 464 375 L 466 377 L 466 385 L 465 386 L 465 390 L 461 402 L 461 405 L 462 399 L 466 389 L 466 375 L 462 375 L 458 378 L 453 379 L 450 383 L 447 382 L 440 374 L 427 374 L 418 365 L 418 362 L 414 358 L 411 358 L 408 361 Z M 332 354 L 328 355 L 324 359 L 321 359 L 316 355 L 311 364 L 311 366 L 314 368 L 324 364 L 327 360 L 329 360 L 332 357 Z M 559 348 L 562 354 L 570 365 L 575 378 L 575 385 L 574 386 L 574 408 L 569 416 L 569 429 L 569 426 L 570 425 L 570 415 L 574 410 L 574 386 L 575 385 L 575 378 L 574 377 L 573 371 L 569 363 L 564 357 Z M 348 338 L 345 341 L 345 345 L 348 348 L 353 349 L 354 348 L 354 339 L 353 338 Z M 524 328 L 538 341 L 538 344 L 535 347 L 535 349 L 539 355 L 542 356 L 544 358 L 548 359 L 551 362 L 552 369 L 554 372 L 554 377 L 555 378 L 554 381 L 550 386 L 550 393 L 549 394 L 549 397 L 551 402 L 551 409 L 553 414 L 553 419 L 550 426 L 550 435 L 544 443 L 543 449 L 539 455 L 539 458 L 537 461 L 535 468 L 535 466 L 539 458 L 543 454 L 543 452 L 546 446 L 546 443 L 550 436 L 550 426 L 552 424 L 555 423 L 554 416 L 553 415 L 553 407 L 556 404 L 556 402 L 555 401 L 555 398 L 553 396 L 552 393 L 552 388 L 554 386 L 559 387 L 560 386 L 560 383 L 559 382 L 559 378 L 556 373 L 556 371 L 558 369 L 554 365 L 551 359 L 541 348 L 540 342 L 530 332 Z M 500 310 L 506 313 L 505 316 L 502 316 L 499 318 L 501 320 L 520 326 L 504 321 L 502 319 L 505 316 L 508 316 L 508 314 Z M 132 307 L 132 309 L 138 314 L 137 311 Z M 397 293 L 396 292 L 390 292 L 385 295 L 378 296 L 374 298 L 369 298 L 363 300 L 357 300 L 351 302 L 335 302 L 334 301 L 328 301 L 327 300 L 318 300 L 315 304 L 322 313 L 333 320 L 335 320 L 338 323 L 342 325 L 354 329 L 357 329 L 361 326 L 365 325 L 369 329 L 374 330 L 380 335 L 385 335 L 387 334 L 388 332 L 388 322 L 381 326 L 377 326 L 375 324 L 374 320 L 387 309 L 393 300 L 397 296 Z M 395 295 L 388 304 L 384 306 L 368 321 L 364 322 L 356 327 L 348 326 L 337 321 L 335 319 L 324 313 L 317 305 L 317 303 L 319 301 L 325 301 L 326 302 L 332 302 L 333 303 L 353 303 L 354 302 L 365 301 L 366 300 L 375 299 L 379 297 L 383 297 L 392 293 Z M 492 248 L 491 251 L 484 260 L 480 268 L 480 277 L 477 280 L 474 279 L 473 281 L 474 282 L 478 282 L 483 286 L 498 291 L 501 293 L 505 298 L 513 302 L 527 317 L 531 319 L 543 329 L 552 338 L 558 346 L 556 342 L 549 335 L 549 334 L 541 328 L 531 318 L 529 318 L 518 306 L 509 299 L 507 299 L 504 295 L 499 291 L 484 286 L 480 282 L 481 279 L 480 268 L 484 260 L 489 254 Z M 55 232 L 60 241 L 78 258 L 89 265 L 91 268 L 87 263 L 77 257 L 59 239 Z M 179 198 L 178 207 L 187 219 L 197 229 L 199 228 L 203 228 L 209 234 L 214 244 L 217 247 L 219 247 L 221 245 L 225 245 L 225 238 L 225 243 L 223 245 L 221 245 L 218 247 L 213 242 L 209 233 L 205 229 L 203 228 L 197 228 L 190 222 L 185 215 L 179 209 L 178 206 Z M 148 204 L 142 198 L 131 191 L 125 191 L 122 190 L 121 191 L 117 191 L 111 193 L 99 204 L 95 210 L 95 212 L 100 204 L 111 194 L 118 191 L 129 191 L 136 194 L 148 205 L 150 209 L 150 219 L 148 223 L 136 234 L 127 238 L 125 240 L 123 240 L 121 242 L 108 245 L 99 242 L 92 234 L 91 226 L 92 225 L 92 220 L 94 214 L 91 222 L 91 234 L 99 243 L 105 245 L 113 245 L 119 243 L 124 240 L 126 240 L 128 238 L 137 234 L 148 224 L 150 220 L 150 209 Z M 382 179 L 383 186 L 389 192 L 395 195 L 398 195 L 403 197 L 407 197 L 408 198 L 422 197 L 429 193 L 432 189 L 431 181 L 428 176 L 421 170 L 418 170 L 413 168 L 397 168 L 396 169 L 390 170 Z M 382 180 L 389 172 L 393 170 L 400 169 L 401 168 L 408 168 L 409 169 L 419 170 L 424 173 L 430 180 L 432 187 L 426 194 L 422 196 L 405 197 L 404 196 L 401 196 L 395 194 L 389 191 L 384 186 Z M 245 190 L 242 198 L 242 202 L 243 205 L 245 207 L 249 209 L 256 208 L 263 203 L 264 200 L 267 198 L 268 199 L 268 207 L 272 215 L 278 221 L 284 224 L 286 224 L 289 227 L 290 232 L 289 226 L 277 220 L 273 216 L 268 207 L 268 196 L 269 195 L 269 191 L 273 186 L 275 186 L 278 189 L 277 203 L 279 209 L 284 214 L 290 217 L 297 216 L 306 211 L 313 212 L 314 213 L 323 213 L 324 214 L 341 214 L 357 208 L 363 203 L 365 199 L 369 195 L 371 195 L 374 198 L 376 202 L 377 210 L 378 211 L 378 233 L 377 234 L 377 241 L 375 245 L 375 249 L 372 258 L 368 265 L 361 272 L 347 280 L 344 281 L 330 281 L 324 278 L 322 278 L 314 271 L 314 270 L 300 255 L 292 240 L 291 234 L 291 237 L 294 243 L 294 245 L 296 247 L 302 258 L 320 277 L 327 281 L 338 283 L 339 282 L 343 282 L 344 281 L 350 280 L 362 272 L 369 264 L 374 253 L 375 246 L 377 242 L 377 237 L 378 236 L 378 209 L 377 208 L 376 201 L 372 195 L 367 195 L 364 201 L 358 207 L 343 213 L 339 213 L 338 214 L 324 214 L 323 213 L 316 213 L 315 212 L 311 212 L 308 210 L 305 210 L 296 216 L 289 216 L 286 214 L 284 214 L 279 208 L 278 202 L 277 201 L 278 199 L 278 195 L 279 194 L 290 203 L 301 208 L 303 208 L 318 203 L 329 193 L 332 187 L 332 183 L 330 178 L 319 170 L 315 170 L 309 168 L 304 170 L 295 171 L 294 170 L 294 167 L 292 172 L 308 169 L 309 170 L 315 170 L 323 173 L 331 180 L 332 183 L 331 190 L 321 200 L 318 201 L 316 203 L 307 206 L 298 206 L 289 202 L 282 196 L 280 193 L 279 187 L 276 186 L 272 186 L 271 187 L 264 181 L 257 182 L 251 185 Z M 265 183 L 269 188 L 267 194 L 260 203 L 255 207 L 252 207 L 251 208 L 247 207 L 243 203 L 243 196 L 245 192 L 250 187 L 257 183 Z M 305 161 L 307 164 L 327 163 L 335 166 L 338 166 L 340 164 L 339 160 L 337 158 L 330 155 L 316 155 L 307 159 Z M 313 159 L 315 157 L 318 157 L 319 156 L 330 156 L 335 158 L 338 161 L 338 163 L 337 164 L 333 164 L 325 161 L 315 161 Z M 92 155 L 88 159 L 87 162 L 88 169 L 89 169 L 90 164 L 93 161 L 97 161 L 101 163 L 108 171 L 112 180 L 112 185 L 108 189 L 101 190 L 97 188 L 94 191 L 82 181 L 76 178 L 71 179 L 69 181 L 69 190 L 70 190 L 71 186 L 73 184 L 81 185 L 92 195 L 94 199 L 94 203 L 93 205 L 88 209 L 82 208 L 79 206 L 76 206 L 74 209 L 68 209 L 66 210 L 63 213 L 63 219 L 67 229 L 81 244 L 95 253 L 98 254 L 102 258 L 105 267 L 107 270 L 107 272 L 110 277 L 110 279 L 112 281 L 117 291 L 126 302 L 127 302 L 126 299 L 129 297 L 136 305 L 147 312 L 153 318 L 151 320 L 149 319 L 149 320 L 155 325 L 158 326 L 164 325 L 165 326 L 168 326 L 175 330 L 191 332 L 193 334 L 191 337 L 189 337 L 186 339 L 183 339 L 179 337 L 176 334 L 174 336 L 160 336 L 155 334 L 152 334 L 151 335 L 154 338 L 160 341 L 169 344 L 172 344 L 182 349 L 182 352 L 175 357 L 177 359 L 181 360 L 184 362 L 190 362 L 191 363 L 196 363 L 197 364 L 201 364 L 203 365 L 206 368 L 206 371 L 205 372 L 206 374 L 214 373 L 217 371 L 223 372 L 229 379 L 229 382 L 228 383 L 229 385 L 240 386 L 241 385 L 241 378 L 242 375 L 247 368 L 247 366 L 249 364 L 250 360 L 259 343 L 258 339 L 260 337 L 264 337 L 266 339 L 266 341 L 262 345 L 264 348 L 264 350 L 259 363 L 259 371 L 258 373 L 260 367 L 260 360 L 264 350 L 264 344 L 267 339 L 263 333 L 271 324 L 271 322 L 268 318 L 272 315 L 273 313 L 273 308 L 280 302 L 280 300 L 282 298 L 286 298 L 295 304 L 297 304 L 298 303 L 298 299 L 296 295 L 289 288 L 286 287 L 283 284 L 273 280 L 265 271 L 260 269 L 258 267 L 256 262 L 253 259 L 248 262 L 244 257 L 245 238 L 243 236 L 240 237 L 238 239 L 236 238 L 237 227 L 237 230 L 236 231 L 236 239 L 238 240 L 242 237 L 245 239 L 244 257 L 246 261 L 248 263 L 254 261 L 258 266 L 259 269 L 263 271 L 271 279 L 277 288 L 277 290 L 279 292 L 280 295 L 280 300 L 276 304 L 270 299 L 267 293 L 259 284 L 257 284 L 257 285 L 253 288 L 249 284 L 242 273 L 236 278 L 232 274 L 227 262 L 223 258 L 221 262 L 221 265 L 219 267 L 217 267 L 209 257 L 204 246 L 201 242 L 197 247 L 195 247 L 164 210 L 164 206 L 166 203 L 168 197 L 168 193 L 169 192 L 169 178 L 168 177 L 168 174 L 164 168 L 162 167 L 156 167 L 153 170 L 151 174 L 146 178 L 143 175 L 140 166 L 134 155 L 130 151 L 124 151 L 121 153 L 121 156 L 128 155 L 135 162 L 138 168 L 138 172 L 139 173 L 139 177 L 138 179 L 134 183 L 130 183 L 125 181 L 122 178 L 121 178 L 120 180 L 118 180 L 115 177 L 109 165 L 105 160 L 97 155 Z M 206 347 L 204 349 L 197 349 L 196 348 L 197 346 L 201 346 L 202 345 L 204 345 Z M 267 323 L 268 326 L 261 333 L 260 333 L 259 330 L 265 323 Z M 280 289 L 282 287 L 286 288 L 295 296 L 297 300 L 294 302 L 284 294 Z M 66 224 L 68 223 L 70 227 L 68 228 Z M 71 213 L 74 212 L 78 213 L 82 215 L 86 219 L 87 222 L 87 228 L 84 231 L 77 230 L 73 228 L 70 225 L 68 221 L 68 216 Z M 68 210 L 70 212 L 68 214 L 67 220 L 65 221 L 63 217 L 63 214 Z M 166 183 L 168 182 L 169 185 L 167 186 Z M 69 184 L 69 182 L 72 179 L 77 179 L 79 181 L 78 183 L 73 183 L 71 185 Z M 71 210 L 72 209 L 75 209 L 77 207 L 79 207 L 82 209 L 87 209 L 88 210 L 91 209 L 94 205 L 94 197 L 92 193 L 93 192 L 96 192 L 98 190 L 103 191 L 109 189 L 112 186 L 113 183 L 112 177 L 111 176 L 112 173 L 117 181 L 119 182 L 124 181 L 130 184 L 134 184 L 137 182 L 139 179 L 140 175 L 142 174 L 147 180 L 147 194 L 148 196 L 152 199 L 157 198 L 163 193 L 167 191 L 168 192 L 167 194 L 167 200 L 164 205 L 164 211 L 181 230 L 193 246 L 197 248 L 199 245 L 201 245 L 207 252 L 207 254 L 209 256 L 209 258 L 215 266 L 218 268 L 220 268 L 221 267 L 221 263 L 223 261 L 225 261 L 229 266 L 229 268 L 233 276 L 236 279 L 239 278 L 242 274 L 252 288 L 255 289 L 256 287 L 259 285 L 266 292 L 271 301 L 268 305 L 268 309 L 265 313 L 265 316 L 262 321 L 262 324 L 258 330 L 258 336 L 257 337 L 256 348 L 250 359 L 247 362 L 243 362 L 242 363 L 233 363 L 232 362 L 229 362 L 226 359 L 226 357 L 232 351 L 230 348 L 223 348 L 222 349 L 220 348 L 214 348 L 207 343 L 192 344 L 190 342 L 190 340 L 197 335 L 195 332 L 193 331 L 189 331 L 188 330 L 184 330 L 178 328 L 171 324 L 165 323 L 154 314 L 151 313 L 142 306 L 121 285 L 118 280 L 106 268 L 106 266 L 101 256 L 97 252 L 95 252 L 88 248 L 71 233 L 69 230 L 70 228 L 72 228 L 80 232 L 86 232 L 88 229 L 87 219 L 82 214 L 80 214 L 78 212 L 72 212 Z M 159 170 L 164 176 L 165 186 L 163 191 L 156 198 L 151 198 L 147 193 L 147 184 L 152 175 L 157 170 Z M 163 169 L 166 171 L 168 175 L 168 178 L 167 179 L 165 178 L 165 176 L 162 171 Z M 89 159 L 92 156 L 97 155 L 103 160 L 100 161 L 99 160 L 93 159 L 90 161 Z M 127 152 L 129 151 L 132 155 L 131 156 L 128 154 Z M 371 142 L 365 145 L 363 148 L 362 152 L 364 147 L 367 144 L 369 143 L 373 143 L 376 145 L 382 154 L 382 163 L 379 170 L 375 174 L 368 174 L 362 168 L 361 165 L 361 154 L 361 165 L 363 170 L 366 173 L 372 175 L 373 174 L 376 174 L 381 166 L 382 163 L 382 154 L 379 148 L 374 143 Z M 120 140 L 115 142 L 110 147 L 108 147 L 103 144 L 100 144 L 99 143 L 90 143 L 85 145 L 80 150 L 77 156 L 76 165 L 74 167 L 69 167 L 63 170 L 60 173 L 58 179 L 60 173 L 63 170 L 69 167 L 75 167 L 76 166 L 77 156 L 81 149 L 85 145 L 91 143 L 98 143 L 104 145 L 109 149 L 117 141 Z M 485 109 L 484 115 L 482 119 L 474 128 L 474 132 L 486 151 L 489 157 L 490 162 L 500 172 L 501 174 L 501 178 L 501 174 L 499 170 L 494 166 L 491 162 L 488 156 L 488 154 L 486 152 L 480 140 L 477 137 L 474 131 L 475 127 L 481 121 L 484 115 Z M 263 110 L 260 110 L 259 109 L 251 110 L 245 115 L 242 121 L 242 130 L 245 136 L 250 140 L 254 140 L 258 137 L 262 131 L 262 129 L 269 119 L 268 114 Z M 262 111 L 267 116 L 267 120 L 264 123 L 264 125 L 262 127 L 259 134 L 254 139 L 251 139 L 249 138 L 243 131 L 243 121 L 245 117 L 252 111 Z M 472 92 L 473 95 L 473 107 L 467 116 L 460 122 L 456 124 L 455 127 L 464 137 L 471 152 L 474 156 L 474 158 L 472 160 L 472 164 L 484 174 L 483 176 L 481 176 L 477 179 L 477 182 L 489 195 L 489 197 L 487 199 L 484 198 L 482 199 L 481 201 L 482 203 L 482 207 L 485 213 L 485 215 L 483 216 L 481 214 L 480 211 L 478 211 L 475 209 L 467 210 L 463 207 L 460 209 L 465 217 L 465 218 L 461 221 L 463 224 L 467 227 L 467 230 L 465 232 L 463 230 L 459 230 L 457 232 L 457 234 L 460 238 L 457 241 L 454 241 L 453 240 L 449 240 L 448 241 L 448 243 L 454 249 L 454 250 L 448 255 L 446 260 L 442 264 L 442 270 L 441 272 L 437 276 L 435 274 L 433 274 L 430 280 L 430 282 L 427 285 L 425 284 L 424 281 L 422 281 L 419 283 L 414 290 L 411 290 L 405 295 L 405 298 L 404 299 L 404 302 L 406 304 L 409 303 L 411 300 L 411 296 L 413 294 L 415 295 L 415 301 L 420 301 L 426 296 L 429 297 L 435 297 L 453 291 L 457 293 L 460 293 L 469 296 L 474 296 L 478 300 L 478 302 L 480 304 L 485 305 L 482 304 L 480 302 L 482 298 L 475 297 L 466 294 L 458 293 L 455 291 L 450 291 L 437 296 L 432 296 L 431 295 L 431 292 L 433 289 L 443 279 L 445 278 L 450 278 L 454 275 L 455 272 L 459 267 L 460 263 L 462 261 L 464 262 L 465 266 L 468 264 L 471 260 L 471 258 L 473 255 L 474 243 L 477 240 L 481 242 L 482 240 L 481 223 L 483 221 L 485 221 L 487 223 L 489 222 L 488 221 L 487 215 L 483 207 L 482 201 L 484 199 L 488 199 L 490 200 L 491 198 L 489 194 L 477 181 L 479 178 L 481 177 L 486 177 L 487 175 L 483 171 L 478 169 L 472 164 L 472 162 L 475 159 L 475 156 L 472 153 L 470 148 L 468 146 L 466 140 L 456 127 L 461 121 L 468 116 L 472 110 L 473 107 L 473 95 Z M 424 290 L 426 293 L 422 298 L 420 298 L 418 296 L 419 294 Z M 449 271 L 451 270 L 452 273 L 450 274 Z M 438 85 L 434 87 L 429 93 L 427 97 L 427 102 L 435 108 L 443 117 L 449 119 L 458 111 L 460 107 L 460 101 L 458 98 L 457 94 L 451 87 L 447 85 Z M 438 86 L 445 86 L 450 88 L 456 94 L 459 101 L 459 105 L 457 110 L 448 118 L 445 117 L 436 107 L 433 106 L 427 100 L 430 93 Z M 287 92 L 285 92 L 271 84 L 268 84 L 267 83 L 251 83 L 245 85 L 232 92 L 225 99 L 219 111 L 222 104 L 230 94 L 237 89 L 248 84 L 251 84 L 252 83 L 264 83 L 265 84 L 271 85 L 276 88 L 278 88 L 284 92 Z M 471 89 L 463 79 L 456 74 L 447 71 L 434 71 L 425 75 L 417 82 L 415 85 L 414 90 L 411 93 L 396 88 L 393 88 L 388 86 L 382 86 L 381 85 L 374 85 L 373 86 L 365 87 L 363 85 L 363 78 L 362 77 L 359 77 L 350 86 L 341 84 L 336 80 L 331 79 L 330 80 L 331 88 L 328 91 L 321 91 L 320 90 L 313 89 L 312 90 L 312 93 L 310 95 L 303 99 L 301 99 L 292 103 L 284 109 L 282 109 L 274 100 L 262 95 L 254 95 L 242 100 L 235 106 L 231 112 L 229 118 L 229 132 L 232 139 L 238 145 L 246 149 L 249 152 L 249 154 L 246 160 L 249 154 L 248 150 L 237 144 L 233 140 L 229 132 L 229 118 L 234 108 L 241 101 L 248 97 L 251 97 L 252 96 L 263 96 L 264 97 L 270 98 L 272 100 L 275 101 L 284 112 L 284 115 L 282 119 L 279 122 L 279 126 L 280 128 L 283 130 L 300 119 L 300 114 L 297 112 L 290 112 L 288 113 L 286 111 L 286 109 L 294 102 L 299 101 L 301 99 L 304 99 L 306 97 L 308 97 L 315 90 L 318 91 L 328 91 L 332 88 L 332 85 L 331 84 L 332 81 L 338 82 L 342 85 L 350 86 L 360 78 L 363 81 L 363 87 L 364 88 L 367 88 L 371 86 L 385 86 L 386 87 L 391 87 L 395 89 L 399 89 L 402 91 L 405 91 L 409 93 L 412 93 L 414 91 L 415 86 L 417 83 L 424 76 L 434 71 L 446 71 L 447 72 L 451 72 L 453 74 L 457 75 L 469 86 L 471 90 Z M 300 115 L 300 118 L 297 121 L 292 123 L 286 128 L 282 129 L 279 126 L 279 123 L 281 121 L 282 118 L 286 114 L 290 112 L 297 112 Z M 326 69 L 320 72 L 320 75 L 316 79 L 313 79 L 310 81 L 308 81 L 302 84 L 299 87 L 309 81 L 318 79 L 320 73 Z M 384 74 L 376 74 L 372 70 L 370 66 L 367 64 L 362 64 L 349 72 L 345 72 L 336 68 L 328 68 L 335 68 L 336 69 L 339 69 L 346 73 L 348 73 L 350 71 L 354 70 L 360 65 L 368 65 L 372 69 L 375 74 Z M 402 78 L 405 78 L 416 68 L 428 61 L 434 59 L 448 59 L 449 60 L 456 61 L 471 70 L 479 78 L 482 85 L 478 76 L 469 67 L 464 65 L 461 62 L 459 62 L 456 60 L 451 60 L 450 59 L 434 59 L 425 62 L 415 68 L 405 78 Z" fill="#D8D8D8" fill-rule="evenodd"/><path d="M 498 478 L 502 478 L 504 477 L 504 475 L 500 474 Z M 205 347 L 202 346 L 201 347 L 197 347 L 197 348 L 204 348 Z M 267 324 L 265 324 L 260 330 L 260 332 L 261 332 L 267 326 Z M 394 295 L 392 294 L 383 298 L 379 298 L 375 300 L 371 300 L 365 302 L 360 302 L 359 303 L 354 303 L 353 304 L 333 304 L 332 303 L 319 302 L 318 305 L 324 312 L 335 318 L 337 320 L 348 325 L 356 326 L 362 322 L 368 320 L 384 305 L 388 303 Z M 424 291 L 420 294 L 419 296 L 420 297 L 422 297 L 425 293 Z M 281 289 L 284 293 L 294 301 L 296 300 L 294 296 L 289 291 L 284 288 Z M 71 214 L 69 216 L 69 221 L 71 225 L 77 229 L 84 230 L 86 228 L 86 222 L 85 219 L 82 216 L 75 213 Z M 140 198 L 136 195 L 129 192 L 118 192 L 111 195 L 101 204 L 95 213 L 95 216 L 93 220 L 93 225 L 92 226 L 93 234 L 99 241 L 103 243 L 110 244 L 111 243 L 115 243 L 121 241 L 123 239 L 125 239 L 127 237 L 139 231 L 147 223 L 149 219 L 149 209 L 147 205 Z M 270 191 L 270 195 L 269 196 L 269 207 L 272 213 L 277 219 L 284 223 L 288 224 L 290 226 L 293 240 L 299 252 L 304 259 L 315 270 L 315 271 L 322 277 L 324 277 L 330 280 L 344 280 L 355 275 L 358 272 L 361 271 L 367 265 L 371 258 L 374 249 L 374 245 L 376 241 L 376 234 L 377 233 L 377 211 L 376 210 L 375 202 L 371 196 L 369 196 L 366 199 L 364 203 L 357 209 L 341 215 L 324 215 L 323 214 L 314 214 L 313 213 L 306 212 L 297 217 L 290 218 L 284 215 L 278 209 L 276 203 L 277 189 L 275 187 L 273 187 Z M 271 190 L 273 188 L 275 188 L 277 190 L 277 193 L 276 194 L 276 206 L 280 213 L 288 218 L 296 218 L 305 213 L 316 214 L 317 215 L 326 215 L 327 216 L 340 216 L 341 215 L 344 215 L 350 213 L 361 207 L 365 203 L 367 199 L 370 197 L 374 201 L 376 207 L 376 237 L 375 238 L 375 242 L 372 250 L 372 253 L 368 262 L 364 266 L 362 265 L 367 255 L 367 252 L 369 248 L 368 242 L 361 235 L 352 232 L 348 232 L 347 233 L 341 234 L 330 241 L 323 247 L 318 255 L 318 262 L 327 275 L 325 277 L 320 274 L 304 258 L 302 254 L 299 251 L 292 235 L 291 225 L 288 223 L 283 222 L 277 218 L 272 212 L 270 208 L 270 193 Z M 265 184 L 257 184 L 250 188 L 246 192 L 244 196 L 244 203 L 247 206 L 251 207 L 252 206 L 255 206 L 259 203 L 266 194 L 266 192 L 268 189 L 267 186 Z M 159 171 L 157 171 L 153 175 L 148 184 L 148 193 L 151 197 L 156 197 L 162 191 L 164 186 L 163 176 Z M 383 180 L 385 186 L 389 190 L 395 193 L 401 195 L 404 195 L 405 196 L 422 195 L 426 193 L 431 187 L 429 180 L 424 174 L 419 171 L 409 170 L 408 169 L 401 169 L 400 170 L 393 171 L 389 173 Z M 314 159 L 315 160 L 325 160 L 329 162 L 337 163 L 337 161 L 335 159 L 330 157 L 319 157 Z M 283 151 L 280 155 L 278 160 L 278 171 L 283 177 L 281 180 L 281 184 L 280 185 L 280 190 L 283 196 L 289 201 L 298 205 L 307 205 L 316 202 L 318 200 L 321 199 L 330 190 L 331 187 L 330 180 L 323 174 L 315 171 L 309 171 L 306 170 L 305 171 L 300 171 L 299 172 L 292 173 L 291 171 L 294 166 L 294 156 L 293 153 L 290 150 L 285 150 Z M 281 181 L 285 177 L 298 172 L 301 172 L 302 171 L 309 171 L 310 172 L 315 172 L 321 174 L 323 176 L 326 177 L 330 182 L 330 188 L 321 198 L 311 203 L 308 203 L 307 204 L 297 204 L 289 200 L 282 193 L 281 191 Z M 289 150 L 294 156 L 294 165 L 292 169 L 289 172 L 285 174 L 281 174 L 278 170 L 278 161 L 280 156 L 286 150 Z M 369 144 L 365 147 L 362 153 L 362 165 L 363 168 L 368 173 L 375 173 L 378 170 L 381 163 L 381 154 L 376 146 L 373 144 Z M 368 145 L 373 145 L 375 146 L 381 155 L 380 165 L 378 169 L 373 173 L 368 172 L 363 167 L 362 164 L 362 156 L 363 155 L 363 152 L 365 148 Z M 299 115 L 297 113 L 290 113 L 286 115 L 280 123 L 280 126 L 282 128 L 286 127 L 292 122 L 297 120 L 299 118 Z M 299 116 L 297 119 L 289 123 L 286 126 L 283 127 L 281 125 L 282 121 L 288 115 L 293 113 L 296 113 Z M 262 112 L 252 112 L 246 117 L 244 121 L 244 131 L 246 134 L 251 138 L 254 138 L 258 134 L 261 127 L 263 125 L 263 123 L 266 120 L 266 116 Z M 366 106 L 366 108 L 370 111 L 378 113 L 385 117 L 388 117 L 389 116 L 389 110 L 385 106 L 377 102 L 370 102 L 368 103 Z M 367 105 L 369 103 L 372 102 L 381 104 L 388 110 L 389 114 L 387 116 L 384 116 L 377 112 L 369 110 L 367 108 Z M 438 87 L 431 93 L 428 100 L 433 105 L 436 106 L 445 116 L 448 117 L 456 110 L 458 105 L 458 101 L 455 94 L 450 89 L 445 87 Z M 448 60 L 434 60 L 428 62 L 416 69 L 405 79 L 402 79 L 397 77 L 393 77 L 392 76 L 387 76 L 386 75 L 375 75 L 368 66 L 360 66 L 354 71 L 350 72 L 348 74 L 346 74 L 339 70 L 336 70 L 335 69 L 327 69 L 321 73 L 320 78 L 318 80 L 309 82 L 303 86 L 287 93 L 284 93 L 280 90 L 268 85 L 265 85 L 264 84 L 252 84 L 251 85 L 245 86 L 237 90 L 230 95 L 223 104 L 219 112 L 218 118 L 217 119 L 217 132 L 218 133 L 219 139 L 224 147 L 235 157 L 234 162 L 228 175 L 228 182 L 222 189 L 219 196 L 219 201 L 220 204 L 222 206 L 222 211 L 221 212 L 221 218 L 220 221 L 221 222 L 221 226 L 225 231 L 225 237 L 226 238 L 226 245 L 225 246 L 221 246 L 219 248 L 217 248 L 213 244 L 208 234 L 203 229 L 199 229 L 197 230 L 186 219 L 177 207 L 177 203 L 179 197 L 179 174 L 175 164 L 170 159 L 163 156 L 157 156 L 151 159 L 149 159 L 142 148 L 137 143 L 131 140 L 121 140 L 117 142 L 109 150 L 104 146 L 98 144 L 91 144 L 85 146 L 82 149 L 78 156 L 77 166 L 75 168 L 69 168 L 61 173 L 57 185 L 57 191 L 60 197 L 60 201 L 54 207 L 52 212 L 52 224 L 60 239 L 77 256 L 87 262 L 92 267 L 92 269 L 94 272 L 94 275 L 96 277 L 96 279 L 98 281 L 105 296 L 119 313 L 125 319 L 136 327 L 138 337 L 141 342 L 151 349 L 156 351 L 158 353 L 160 353 L 163 356 L 164 361 L 169 366 L 187 373 L 189 376 L 197 383 L 204 385 L 217 392 L 223 394 L 226 394 L 227 395 L 230 395 L 235 398 L 235 402 L 232 408 L 232 415 L 233 418 L 227 426 L 224 434 L 224 437 L 227 440 L 227 444 L 221 455 L 221 465 L 224 471 L 224 486 L 223 487 L 223 491 L 228 501 L 232 513 L 232 516 L 234 519 L 233 521 L 233 525 L 232 526 L 232 535 L 229 543 L 229 547 L 228 548 L 227 554 L 228 548 L 229 547 L 229 543 L 232 535 L 232 529 L 233 528 L 234 517 L 230 509 L 227 498 L 224 494 L 224 474 L 225 473 L 225 470 L 221 464 L 221 457 L 228 443 L 228 440 L 225 437 L 225 432 L 226 429 L 233 419 L 232 409 L 235 402 L 237 400 L 237 398 L 228 394 L 218 392 L 208 387 L 206 385 L 196 382 L 186 372 L 176 369 L 168 365 L 164 360 L 164 357 L 161 353 L 152 349 L 140 340 L 138 336 L 137 328 L 127 320 L 118 311 L 105 295 L 97 278 L 95 276 L 92 266 L 87 261 L 84 260 L 76 254 L 61 239 L 53 225 L 52 214 L 55 207 L 61 201 L 61 198 L 57 188 L 60 176 L 64 171 L 72 168 L 76 169 L 78 167 L 78 158 L 80 153 L 84 148 L 90 145 L 100 145 L 104 147 L 107 150 L 110 151 L 118 142 L 122 140 L 130 140 L 133 141 L 142 149 L 149 160 L 156 157 L 164 157 L 170 160 L 175 165 L 179 175 L 179 195 L 176 204 L 177 209 L 195 230 L 197 231 L 203 230 L 207 234 L 213 245 L 217 249 L 219 249 L 221 247 L 227 247 L 227 242 L 226 241 L 226 236 L 225 235 L 225 229 L 221 224 L 221 213 L 223 210 L 223 206 L 220 203 L 219 198 L 222 190 L 229 182 L 229 174 L 235 161 L 235 156 L 224 146 L 220 140 L 218 134 L 218 131 L 217 130 L 217 121 L 218 120 L 219 113 L 225 102 L 234 93 L 240 89 L 251 85 L 265 85 L 271 87 L 276 90 L 278 90 L 284 94 L 287 94 L 292 91 L 299 89 L 311 82 L 319 81 L 321 79 L 321 75 L 327 70 L 336 70 L 346 75 L 348 75 L 363 66 L 367 67 L 374 75 L 390 76 L 391 77 L 395 77 L 403 80 L 406 80 L 416 70 L 425 64 L 433 61 L 437 61 L 438 60 L 449 61 L 461 66 L 474 75 L 479 81 L 484 94 L 485 106 L 484 107 L 484 110 L 482 116 L 479 121 L 472 128 L 472 132 L 483 149 L 487 157 L 488 162 L 495 169 L 496 169 L 500 174 L 500 179 L 496 186 L 499 193 L 502 197 L 503 205 L 498 211 L 498 214 L 501 221 L 501 229 L 494 235 L 490 250 L 483 259 L 479 267 L 477 274 L 473 277 L 469 282 L 470 283 L 473 283 L 478 286 L 492 290 L 498 293 L 504 299 L 513 304 L 527 319 L 532 321 L 548 336 L 558 348 L 561 355 L 569 366 L 572 372 L 572 375 L 573 376 L 573 393 L 572 394 L 572 407 L 567 416 L 567 431 L 563 439 L 563 442 L 557 453 L 557 461 L 553 469 L 552 481 L 551 482 L 551 487 L 550 488 L 550 494 L 549 495 L 549 498 L 547 504 L 543 511 L 532 522 L 523 528 L 519 532 L 507 553 L 500 560 L 493 569 L 480 581 L 473 586 L 470 590 L 466 602 L 463 603 L 463 608 L 462 609 L 463 622 L 465 625 L 465 634 L 468 640 L 468 659 L 469 660 L 468 669 L 463 679 L 456 686 L 450 690 L 444 692 L 441 692 L 440 693 L 424 695 L 423 696 L 417 696 L 416 697 L 409 697 L 408 698 L 375 698 L 374 699 L 365 699 L 364 698 L 335 697 L 334 696 L 320 694 L 313 691 L 306 684 L 306 677 L 307 674 L 309 672 L 311 674 L 312 677 L 314 675 L 313 673 L 313 669 L 316 665 L 316 662 L 326 652 L 330 649 L 340 645 L 332 635 L 332 633 L 329 629 L 329 627 L 326 624 L 318 608 L 317 602 L 316 601 L 315 580 L 314 577 L 312 575 L 314 572 L 319 570 L 322 570 L 326 567 L 326 563 L 334 554 L 336 550 L 347 539 L 348 539 L 356 530 L 358 530 L 363 527 L 369 526 L 370 525 L 380 525 L 381 527 L 379 529 L 361 538 L 344 552 L 341 556 L 341 558 L 337 566 L 335 568 L 335 577 L 329 590 L 329 606 L 332 612 L 332 614 L 336 621 L 338 629 L 343 637 L 346 640 L 351 642 L 355 642 L 359 644 L 362 644 L 363 645 L 383 647 L 384 648 L 387 648 L 388 650 L 387 651 L 377 651 L 376 650 L 371 650 L 370 649 L 354 649 L 353 648 L 345 648 L 340 650 L 331 660 L 328 666 L 326 676 L 325 677 L 325 683 L 327 685 L 340 684 L 346 687 L 350 687 L 355 684 L 355 676 L 358 671 L 360 672 L 360 677 L 358 681 L 358 683 L 362 686 L 370 686 L 373 685 L 377 687 L 386 687 L 387 688 L 402 688 L 403 687 L 413 687 L 414 686 L 438 685 L 439 684 L 442 684 L 451 681 L 455 677 L 460 662 L 460 648 L 457 642 L 456 637 L 451 631 L 446 620 L 446 612 L 447 611 L 448 600 L 452 592 L 465 581 L 479 567 L 484 564 L 499 548 L 505 539 L 510 528 L 510 526 L 516 516 L 521 511 L 524 511 L 527 509 L 533 503 L 539 490 L 539 485 L 534 481 L 535 470 L 538 463 L 542 459 L 544 459 L 546 457 L 549 442 L 552 437 L 552 434 L 554 428 L 557 425 L 557 416 L 559 414 L 559 408 L 558 407 L 558 401 L 557 400 L 556 393 L 558 391 L 562 390 L 564 387 L 564 378 L 565 377 L 565 374 L 554 362 L 550 355 L 546 351 L 543 346 L 542 341 L 527 328 L 514 322 L 511 322 L 509 320 L 512 316 L 510 313 L 499 308 L 488 305 L 486 303 L 486 302 L 489 300 L 488 298 L 486 297 L 482 297 L 481 296 L 477 296 L 476 295 L 473 295 L 464 292 L 461 292 L 456 288 L 450 288 L 448 290 L 445 291 L 442 290 L 443 288 L 446 287 L 466 271 L 472 262 L 472 260 L 474 257 L 476 245 L 478 243 L 481 245 L 483 244 L 483 225 L 485 224 L 487 226 L 490 226 L 491 224 L 491 221 L 484 203 L 486 201 L 492 202 L 492 196 L 487 189 L 480 182 L 482 179 L 487 179 L 489 177 L 489 174 L 486 171 L 478 167 L 475 164 L 475 162 L 478 160 L 478 158 L 471 148 L 467 139 L 458 128 L 458 126 L 470 116 L 475 106 L 474 93 L 468 82 L 459 74 L 453 71 L 446 70 L 445 69 L 435 69 L 425 73 L 418 78 L 414 84 L 413 88 L 410 91 L 406 90 L 403 88 L 400 88 L 395 86 L 391 86 L 386 84 L 371 84 L 370 85 L 366 85 L 364 83 L 365 80 L 365 76 L 364 75 L 359 75 L 356 77 L 350 84 L 346 84 L 336 78 L 329 77 L 328 78 L 328 82 L 330 87 L 328 89 L 320 89 L 316 87 L 313 87 L 310 89 L 310 92 L 308 94 L 294 101 L 292 101 L 284 107 L 282 107 L 274 98 L 261 93 L 255 93 L 246 96 L 239 100 L 232 107 L 228 116 L 227 130 L 231 140 L 238 147 L 244 150 L 247 153 L 247 155 L 239 171 L 239 183 L 229 194 L 227 198 L 229 201 L 232 201 L 233 200 L 235 202 L 235 204 L 232 209 L 231 215 L 230 216 L 230 219 L 232 221 L 235 220 L 237 222 L 234 238 L 236 242 L 238 242 L 241 240 L 243 242 L 243 258 L 244 261 L 248 265 L 254 264 L 256 266 L 257 269 L 261 272 L 273 285 L 278 294 L 278 299 L 276 301 L 275 301 L 269 295 L 265 288 L 261 283 L 257 281 L 254 285 L 252 285 L 242 271 L 240 271 L 237 275 L 235 275 L 232 271 L 228 261 L 223 256 L 221 257 L 220 263 L 217 264 L 210 256 L 210 254 L 208 252 L 207 248 L 203 241 L 201 239 L 199 239 L 198 240 L 198 243 L 195 245 L 177 222 L 167 212 L 166 210 L 166 206 L 168 203 L 169 197 L 170 196 L 170 186 L 171 183 L 170 182 L 170 175 L 165 167 L 161 165 L 157 165 L 155 166 L 147 175 L 146 175 L 144 173 L 141 164 L 136 155 L 130 150 L 122 150 L 119 153 L 119 156 L 118 157 L 118 172 L 119 174 L 117 175 L 114 172 L 109 162 L 105 158 L 98 154 L 93 153 L 89 155 L 86 160 L 86 169 L 87 170 L 87 173 L 89 179 L 91 181 L 92 185 L 91 186 L 82 179 L 77 177 L 72 177 L 70 178 L 67 182 L 67 189 L 69 195 L 74 203 L 74 206 L 73 207 L 66 208 L 62 212 L 61 215 L 62 223 L 66 231 L 79 245 L 100 258 L 107 274 L 107 276 L 109 279 L 109 281 L 117 295 L 130 311 L 139 318 L 150 324 L 155 329 L 153 332 L 150 332 L 147 334 L 151 339 L 159 343 L 171 346 L 175 348 L 178 351 L 173 355 L 173 358 L 185 364 L 190 364 L 191 365 L 195 365 L 200 367 L 202 369 L 201 374 L 203 376 L 209 377 L 210 378 L 215 377 L 218 378 L 220 380 L 220 382 L 226 386 L 229 387 L 238 387 L 239 388 L 243 385 L 244 377 L 252 364 L 252 361 L 256 352 L 259 349 L 262 351 L 260 355 L 259 361 L 257 364 L 258 370 L 253 383 L 254 386 L 253 387 L 252 399 L 247 404 L 243 410 L 243 413 L 246 414 L 248 416 L 235 430 L 234 435 L 236 437 L 240 436 L 242 438 L 241 443 L 234 451 L 231 457 L 231 462 L 232 463 L 236 461 L 239 463 L 239 465 L 233 478 L 232 486 L 233 488 L 236 488 L 240 484 L 242 485 L 242 488 L 240 493 L 240 506 L 241 507 L 241 511 L 245 508 L 248 511 L 249 518 L 255 528 L 272 545 L 278 549 L 283 554 L 283 556 L 281 560 L 275 558 L 269 550 L 258 539 L 247 531 L 243 530 L 241 533 L 241 547 L 239 552 L 239 558 L 237 562 L 237 583 L 243 597 L 256 612 L 259 613 L 271 622 L 281 627 L 298 631 L 302 635 L 301 643 L 298 644 L 295 641 L 291 639 L 269 633 L 246 618 L 241 613 L 239 609 L 231 600 L 228 593 L 228 590 L 227 589 L 227 581 L 225 576 L 226 557 L 225 577 L 227 581 L 227 591 L 229 595 L 229 598 L 244 617 L 268 633 L 283 638 L 286 638 L 293 641 L 296 645 L 307 655 L 310 661 L 310 663 L 308 666 L 306 677 L 305 678 L 305 683 L 307 687 L 316 693 L 319 693 L 323 695 L 327 695 L 332 697 L 339 697 L 340 698 L 356 698 L 357 699 L 390 699 L 391 698 L 410 698 L 411 697 L 420 697 L 421 696 L 432 695 L 437 693 L 442 693 L 443 692 L 449 691 L 459 685 L 463 681 L 466 676 L 469 667 L 468 640 L 466 635 L 466 629 L 469 626 L 470 623 L 470 615 L 469 614 L 469 608 L 468 607 L 470 594 L 476 585 L 497 565 L 508 552 L 517 535 L 526 526 L 534 521 L 545 509 L 550 494 L 550 489 L 552 483 L 553 472 L 557 463 L 558 454 L 563 444 L 565 436 L 568 430 L 568 416 L 573 408 L 573 386 L 574 385 L 573 374 L 569 365 L 561 354 L 558 347 L 543 330 L 531 320 L 527 318 L 513 303 L 505 299 L 501 294 L 494 290 L 483 287 L 478 283 L 474 283 L 472 281 L 474 278 L 477 279 L 479 277 L 479 268 L 483 260 L 488 254 L 492 247 L 492 243 L 494 237 L 498 234 L 501 230 L 501 220 L 499 216 L 499 211 L 503 206 L 503 199 L 497 187 L 497 184 L 500 180 L 500 174 L 489 162 L 488 157 L 485 151 L 473 132 L 473 128 L 481 119 L 485 108 L 485 97 L 484 96 L 484 92 L 482 86 L 478 78 L 471 71 L 456 62 L 453 62 Z M 312 651 L 314 651 L 316 653 L 316 658 L 315 659 L 313 659 L 310 656 L 310 653 Z M 244 532 L 248 533 L 261 543 L 267 549 L 277 562 L 287 565 L 300 572 L 302 572 L 312 580 L 312 582 L 314 583 L 315 586 L 315 595 L 313 598 L 313 601 L 316 605 L 317 611 L 322 620 L 323 626 L 326 632 L 331 638 L 337 643 L 334 647 L 330 648 L 322 655 L 320 655 L 316 650 L 311 649 L 308 647 L 306 644 L 306 635 L 312 630 L 309 626 L 297 626 L 293 629 L 291 628 L 285 628 L 276 623 L 274 623 L 272 621 L 270 621 L 256 610 L 252 605 L 245 599 L 241 593 L 241 591 L 238 585 L 239 559 L 240 558 L 240 551 L 241 550 L 241 545 L 242 544 L 242 534 Z M 439 379 L 441 379 L 447 385 L 451 385 L 462 378 L 464 379 L 463 393 L 460 400 L 459 410 L 458 411 L 456 422 L 452 431 L 452 433 L 449 439 L 446 442 L 444 448 L 442 450 L 438 447 L 432 447 L 427 455 L 427 460 L 433 463 L 437 463 L 442 467 L 443 469 L 443 478 L 444 479 L 444 485 L 445 487 L 452 494 L 457 497 L 464 498 L 468 500 L 473 500 L 479 488 L 482 484 L 485 482 L 487 484 L 487 494 L 488 495 L 488 499 L 490 501 L 493 502 L 498 502 L 513 495 L 518 490 L 521 483 L 521 480 L 524 477 L 530 484 L 531 487 L 531 500 L 526 506 L 522 508 L 512 509 L 508 511 L 478 510 L 474 508 L 464 508 L 463 507 L 460 507 L 444 498 L 433 487 L 425 468 L 421 464 L 418 463 L 413 457 L 414 454 L 418 450 L 424 447 L 429 442 L 436 437 L 439 436 L 442 433 L 446 424 L 446 422 L 448 420 L 449 416 L 451 413 L 451 406 L 444 391 L 438 382 Z M 131 307 L 132 306 L 134 307 L 138 311 L 139 314 L 137 315 L 131 309 Z M 447 70 L 456 73 L 463 78 L 472 89 L 474 95 L 474 107 L 473 110 L 469 116 L 461 122 L 457 127 L 467 140 L 469 146 L 471 148 L 473 153 L 476 156 L 476 159 L 473 162 L 473 164 L 478 168 L 483 170 L 488 175 L 486 178 L 481 178 L 479 179 L 478 181 L 490 194 L 492 199 L 490 201 L 488 200 L 484 200 L 483 201 L 483 204 L 488 215 L 489 221 L 490 222 L 488 224 L 485 222 L 482 223 L 483 240 L 481 243 L 478 241 L 475 243 L 475 250 L 474 251 L 474 255 L 472 258 L 472 260 L 466 267 L 464 266 L 464 264 L 463 262 L 462 262 L 455 275 L 450 279 L 445 279 L 443 280 L 434 289 L 432 292 L 432 295 L 437 295 L 450 290 L 455 290 L 458 292 L 466 293 L 467 294 L 482 297 L 483 298 L 481 301 L 482 303 L 486 305 L 489 305 L 495 307 L 498 309 L 501 309 L 509 314 L 508 317 L 505 317 L 503 319 L 504 320 L 518 324 L 526 328 L 541 342 L 542 348 L 552 359 L 555 365 L 559 369 L 557 371 L 557 373 L 560 378 L 561 386 L 559 388 L 556 387 L 553 388 L 553 393 L 554 396 L 556 398 L 556 401 L 557 402 L 557 404 L 554 407 L 554 415 L 555 416 L 556 423 L 554 425 L 551 426 L 551 436 L 547 443 L 547 446 L 544 452 L 544 454 L 540 458 L 536 466 L 535 473 L 533 476 L 533 478 L 530 480 L 524 474 L 522 474 L 520 476 L 520 484 L 519 487 L 513 494 L 506 494 L 504 496 L 504 498 L 500 501 L 493 501 L 489 498 L 490 481 L 487 478 L 485 478 L 475 494 L 471 498 L 456 496 L 448 489 L 446 485 L 447 482 L 447 475 L 448 474 L 448 466 L 446 462 L 442 458 L 442 456 L 445 451 L 446 445 L 449 441 L 455 427 L 455 424 L 456 423 L 456 420 L 457 419 L 457 416 L 460 407 L 460 402 L 464 390 L 465 377 L 463 376 L 451 384 L 447 384 L 441 377 L 437 377 L 436 378 L 434 377 L 428 377 L 423 375 L 419 371 L 417 370 L 416 371 L 421 377 L 427 380 L 432 380 L 436 382 L 439 385 L 446 398 L 446 409 L 448 414 L 448 418 L 445 422 L 445 424 L 441 433 L 438 436 L 432 439 L 423 446 L 411 453 L 411 459 L 414 462 L 420 465 L 425 470 L 433 489 L 439 494 L 441 498 L 446 503 L 462 509 L 474 509 L 476 511 L 481 511 L 482 512 L 496 512 L 502 515 L 511 515 L 514 512 L 516 514 L 512 519 L 509 519 L 510 520 L 510 524 L 507 530 L 507 532 L 503 538 L 503 540 L 496 550 L 481 565 L 474 569 L 468 576 L 467 576 L 460 583 L 456 585 L 451 591 L 448 598 L 444 602 L 444 609 L 443 610 L 444 612 L 444 616 L 441 619 L 441 628 L 445 630 L 448 630 L 451 633 L 459 648 L 459 663 L 457 666 L 457 670 L 454 676 L 449 681 L 444 683 L 434 684 L 433 685 L 408 686 L 407 687 L 386 687 L 385 686 L 378 685 L 376 682 L 373 680 L 369 685 L 362 685 L 360 683 L 361 669 L 362 667 L 359 665 L 355 671 L 355 674 L 354 675 L 354 683 L 350 686 L 346 686 L 343 685 L 340 682 L 335 682 L 332 684 L 327 684 L 325 682 L 325 678 L 326 677 L 326 673 L 328 669 L 328 666 L 333 658 L 343 649 L 363 649 L 364 650 L 379 651 L 385 653 L 402 653 L 403 652 L 408 652 L 409 651 L 406 649 L 396 649 L 395 648 L 388 648 L 387 647 L 381 647 L 380 646 L 374 646 L 373 645 L 366 645 L 365 644 L 362 644 L 353 641 L 350 639 L 347 639 L 341 633 L 329 603 L 329 590 L 332 587 L 332 585 L 336 577 L 336 568 L 342 556 L 351 547 L 366 536 L 374 532 L 384 529 L 386 527 L 384 525 L 381 524 L 367 524 L 357 528 L 338 546 L 335 551 L 324 561 L 322 565 L 319 568 L 317 567 L 310 567 L 308 565 L 305 564 L 299 558 L 278 546 L 272 541 L 269 540 L 255 527 L 249 517 L 248 506 L 246 505 L 242 508 L 240 503 L 240 495 L 244 485 L 244 481 L 242 481 L 235 487 L 233 485 L 233 479 L 241 461 L 240 460 L 236 460 L 233 462 L 231 460 L 231 458 L 234 452 L 240 446 L 243 439 L 243 436 L 242 435 L 237 436 L 235 434 L 235 432 L 249 416 L 249 413 L 246 413 L 244 411 L 244 409 L 256 396 L 261 393 L 266 388 L 269 383 L 268 381 L 265 381 L 260 385 L 258 389 L 255 392 L 253 390 L 254 389 L 254 380 L 258 371 L 258 363 L 263 350 L 263 348 L 261 345 L 265 341 L 265 339 L 264 338 L 260 338 L 259 339 L 260 343 L 251 360 L 250 364 L 248 366 L 248 368 L 243 375 L 242 378 L 242 385 L 240 387 L 229 386 L 227 384 L 228 379 L 223 373 L 217 372 L 214 374 L 206 375 L 204 373 L 205 368 L 201 365 L 197 365 L 196 364 L 191 364 L 190 363 L 184 363 L 181 361 L 177 360 L 174 357 L 177 354 L 181 352 L 181 349 L 172 345 L 169 345 L 160 342 L 154 339 L 150 335 L 152 333 L 155 333 L 160 335 L 174 335 L 176 333 L 179 336 L 183 338 L 186 338 L 189 336 L 191 336 L 192 334 L 191 333 L 186 333 L 180 331 L 175 331 L 168 327 L 165 327 L 164 326 L 161 327 L 155 326 L 148 320 L 149 318 L 151 319 L 152 318 L 147 313 L 136 306 L 129 298 L 127 299 L 128 302 L 126 303 L 114 288 L 111 281 L 109 279 L 109 277 L 106 272 L 106 270 L 104 267 L 101 258 L 98 255 L 95 254 L 81 245 L 66 229 L 62 219 L 62 213 L 66 209 L 68 208 L 74 208 L 76 205 L 79 205 L 82 207 L 88 208 L 91 206 L 93 203 L 93 199 L 91 195 L 81 186 L 73 185 L 71 190 L 69 191 L 68 190 L 68 181 L 71 178 L 76 177 L 82 180 L 94 190 L 97 187 L 101 189 L 105 189 L 108 188 L 111 185 L 111 180 L 109 177 L 109 175 L 105 168 L 101 164 L 97 162 L 93 162 L 90 166 L 90 169 L 89 170 L 87 169 L 86 162 L 87 159 L 92 154 L 97 154 L 105 159 L 110 165 L 113 172 L 118 179 L 120 179 L 120 178 L 122 177 L 125 180 L 130 182 L 134 182 L 137 179 L 138 177 L 138 173 L 137 172 L 137 168 L 134 162 L 128 156 L 124 156 L 123 157 L 120 156 L 120 153 L 124 150 L 130 150 L 135 155 L 141 166 L 143 173 L 146 177 L 150 174 L 152 170 L 156 166 L 162 166 L 164 167 L 167 170 L 170 178 L 170 192 L 169 193 L 169 197 L 167 203 L 165 206 L 165 210 L 166 212 L 175 221 L 195 246 L 197 246 L 201 241 L 203 243 L 210 257 L 217 266 L 220 265 L 221 259 L 223 257 L 228 262 L 233 274 L 236 277 L 242 272 L 253 287 L 254 287 L 257 283 L 259 283 L 265 289 L 271 299 L 276 303 L 279 300 L 279 295 L 278 292 L 276 290 L 276 288 L 270 279 L 263 272 L 260 271 L 258 269 L 254 262 L 248 264 L 245 261 L 243 257 L 244 239 L 242 238 L 238 241 L 235 239 L 235 231 L 238 223 L 238 220 L 237 219 L 233 220 L 231 218 L 231 213 L 236 203 L 236 201 L 235 200 L 229 200 L 228 199 L 228 196 L 239 184 L 240 181 L 239 179 L 239 173 L 245 161 L 248 152 L 246 150 L 238 146 L 231 139 L 228 132 L 228 118 L 230 112 L 234 106 L 239 101 L 248 96 L 254 94 L 262 94 L 274 99 L 282 108 L 284 108 L 292 102 L 301 98 L 303 98 L 311 93 L 311 90 L 313 88 L 316 88 L 321 90 L 328 90 L 330 88 L 329 80 L 331 78 L 336 79 L 341 83 L 350 85 L 359 76 L 362 76 L 364 78 L 364 85 L 365 86 L 373 85 L 374 84 L 381 84 L 382 85 L 388 85 L 389 86 L 396 87 L 411 92 L 413 90 L 414 85 L 416 82 L 425 74 L 434 70 Z" fill="#B1B1B1" fill-rule="evenodd"/><path d="M 312 652 L 311 653 L 311 656 L 313 658 L 315 658 L 315 653 L 314 652 Z M 439 380 L 439 382 L 442 386 L 443 389 L 445 391 L 452 406 L 452 413 L 450 416 L 449 420 L 447 422 L 447 424 L 445 427 L 445 429 L 443 433 L 439 437 L 436 438 L 430 443 L 429 443 L 424 448 L 418 451 L 415 454 L 415 456 L 414 457 L 418 462 L 421 463 L 426 468 L 430 476 L 430 478 L 432 481 L 432 483 L 434 487 L 444 497 L 450 500 L 452 502 L 460 506 L 463 506 L 464 507 L 474 507 L 478 509 L 508 510 L 512 508 L 518 508 L 519 507 L 522 507 L 526 505 L 530 500 L 530 487 L 529 486 L 529 484 L 524 478 L 522 480 L 522 483 L 519 490 L 513 496 L 498 503 L 493 503 L 492 502 L 490 502 L 487 499 L 487 495 L 486 494 L 486 484 L 485 483 L 484 483 L 480 488 L 475 499 L 473 501 L 468 501 L 464 499 L 460 499 L 459 498 L 457 498 L 452 495 L 444 487 L 443 485 L 443 479 L 442 478 L 442 469 L 441 467 L 437 464 L 433 464 L 432 463 L 428 462 L 426 460 L 426 455 L 429 449 L 432 446 L 438 446 L 441 449 L 442 449 L 445 442 L 448 439 L 451 433 L 451 431 L 453 428 L 453 426 L 455 422 L 457 411 L 458 410 L 459 400 L 462 393 L 463 379 L 458 381 L 455 384 L 451 386 L 447 386 L 441 380 Z M 272 190 L 272 192 L 271 193 L 271 208 L 273 212 L 277 217 L 278 217 L 283 221 L 290 223 L 292 225 L 293 235 L 294 236 L 295 241 L 300 251 L 303 254 L 305 258 L 320 273 L 325 276 L 326 275 L 324 271 L 320 267 L 317 262 L 317 255 L 318 253 L 320 251 L 322 247 L 330 240 L 331 240 L 336 236 L 339 235 L 341 233 L 347 232 L 348 231 L 352 231 L 353 232 L 356 232 L 357 233 L 361 234 L 369 242 L 370 248 L 368 252 L 368 255 L 363 265 L 364 265 L 367 262 L 369 258 L 369 256 L 371 253 L 371 250 L 373 246 L 374 238 L 375 237 L 375 207 L 374 206 L 373 201 L 370 198 L 368 199 L 366 203 L 361 208 L 350 214 L 348 214 L 344 216 L 341 216 L 340 217 L 327 217 L 326 216 L 317 216 L 316 215 L 305 214 L 296 219 L 288 219 L 282 216 L 277 210 L 275 206 L 275 194 L 276 193 L 276 190 L 275 189 L 273 189 Z M 282 181 L 282 191 L 283 193 L 289 199 L 297 203 L 307 203 L 308 202 L 311 202 L 321 197 L 328 190 L 329 188 L 329 182 L 326 178 L 323 177 L 321 175 L 319 175 L 315 173 L 310 173 L 309 172 L 302 172 L 301 173 L 298 173 L 297 174 L 289 176 L 285 178 Z M 289 151 L 286 151 L 280 158 L 280 160 L 279 161 L 279 170 L 281 173 L 285 173 L 289 171 L 291 169 L 293 165 L 293 156 Z M 368 146 L 366 148 L 364 152 L 364 155 L 363 156 L 363 164 L 364 165 L 364 167 L 368 171 L 370 172 L 373 172 L 377 169 L 379 165 L 379 162 L 380 161 L 380 155 L 375 147 L 373 146 Z M 298 116 L 296 114 L 293 114 L 292 115 L 288 116 L 283 121 L 282 125 L 283 126 L 286 125 L 289 122 L 297 118 Z M 368 105 L 368 108 L 369 109 L 377 111 L 384 115 L 387 115 L 388 114 L 387 110 L 381 105 L 375 104 L 374 103 L 372 103 Z M 449 62 L 438 61 L 437 62 L 433 62 L 432 63 L 427 64 L 416 71 L 406 81 L 403 81 L 399 79 L 391 78 L 390 77 L 374 76 L 367 68 L 363 67 L 348 76 L 346 76 L 336 71 L 327 71 L 322 75 L 322 79 L 319 82 L 317 82 L 316 83 L 311 83 L 305 86 L 303 88 L 299 90 L 297 90 L 294 92 L 292 92 L 287 95 L 284 95 L 282 93 L 278 91 L 276 91 L 271 88 L 269 88 L 265 86 L 251 86 L 250 87 L 242 89 L 234 94 L 224 105 L 220 113 L 220 115 L 219 116 L 219 120 L 218 121 L 218 130 L 219 131 L 219 134 L 220 135 L 220 138 L 221 140 L 223 142 L 225 146 L 236 156 L 236 161 L 233 166 L 233 168 L 230 174 L 230 182 L 229 184 L 223 190 L 221 194 L 221 197 L 220 198 L 221 200 L 221 203 L 224 206 L 224 210 L 222 213 L 222 224 L 226 229 L 226 235 L 227 236 L 227 241 L 228 242 L 228 247 L 227 248 L 221 248 L 219 250 L 217 250 L 212 245 L 206 234 L 203 231 L 201 231 L 200 232 L 197 232 L 195 231 L 176 209 L 175 207 L 175 204 L 176 203 L 176 200 L 177 199 L 177 196 L 178 195 L 178 175 L 177 174 L 177 171 L 174 165 L 170 161 L 164 158 L 156 158 L 149 161 L 147 159 L 141 149 L 136 144 L 130 141 L 122 141 L 118 143 L 110 152 L 107 151 L 104 148 L 100 146 L 90 146 L 84 149 L 81 153 L 80 157 L 79 158 L 79 167 L 76 170 L 74 170 L 73 169 L 71 170 L 68 170 L 64 172 L 61 176 L 58 188 L 59 189 L 59 192 L 62 198 L 62 201 L 56 207 L 53 214 L 53 221 L 54 222 L 54 225 L 59 235 L 62 238 L 62 239 L 76 253 L 77 253 L 84 259 L 87 260 L 93 266 L 93 268 L 96 274 L 96 276 L 98 278 L 106 295 L 111 301 L 111 302 L 119 310 L 119 311 L 127 319 L 128 319 L 132 323 L 133 323 L 138 328 L 139 336 L 141 340 L 143 342 L 144 342 L 152 348 L 161 352 L 164 355 L 165 357 L 165 360 L 168 364 L 176 368 L 178 368 L 179 369 L 186 371 L 196 381 L 203 383 L 204 384 L 206 384 L 208 386 L 218 391 L 221 391 L 225 393 L 228 393 L 229 394 L 234 395 L 238 398 L 238 400 L 236 402 L 233 409 L 234 419 L 227 429 L 227 431 L 226 432 L 226 437 L 229 440 L 229 443 L 222 457 L 222 464 L 224 468 L 226 470 L 226 473 L 225 474 L 225 494 L 228 498 L 231 509 L 235 517 L 235 522 L 234 523 L 234 528 L 233 529 L 233 535 L 232 536 L 232 539 L 230 543 L 229 551 L 227 555 L 227 565 L 226 566 L 226 576 L 227 577 L 227 580 L 228 581 L 228 589 L 229 590 L 229 593 L 232 600 L 246 617 L 269 632 L 271 632 L 274 634 L 277 634 L 278 635 L 281 635 L 285 637 L 291 638 L 295 640 L 298 643 L 300 643 L 301 635 L 298 632 L 296 632 L 292 630 L 287 630 L 286 629 L 281 628 L 271 623 L 269 621 L 262 617 L 259 614 L 256 613 L 244 600 L 238 589 L 238 587 L 236 583 L 236 562 L 238 558 L 238 552 L 239 551 L 239 548 L 240 547 L 240 533 L 243 529 L 247 530 L 257 538 L 258 538 L 270 550 L 270 551 L 275 557 L 281 559 L 281 557 L 282 556 L 282 554 L 278 550 L 277 550 L 273 546 L 272 546 L 254 528 L 248 518 L 248 516 L 247 515 L 247 511 L 245 509 L 242 512 L 240 511 L 240 507 L 239 506 L 239 493 L 240 492 L 241 485 L 240 485 L 236 489 L 233 489 L 231 486 L 232 478 L 234 475 L 234 473 L 238 465 L 238 463 L 236 462 L 232 464 L 230 462 L 230 457 L 231 456 L 231 454 L 238 446 L 241 440 L 241 438 L 240 437 L 236 438 L 233 435 L 233 433 L 234 432 L 234 430 L 246 418 L 247 416 L 246 415 L 244 415 L 242 413 L 242 410 L 246 405 L 246 404 L 251 399 L 251 395 L 252 394 L 252 387 L 253 386 L 252 383 L 253 382 L 253 379 L 255 376 L 255 374 L 257 370 L 256 364 L 258 361 L 259 355 L 261 351 L 259 350 L 257 352 L 254 358 L 253 364 L 248 371 L 245 377 L 244 385 L 239 389 L 238 388 L 229 388 L 228 387 L 226 387 L 222 385 L 219 382 L 219 380 L 218 379 L 216 379 L 215 378 L 210 379 L 209 378 L 203 377 L 200 374 L 200 372 L 201 371 L 201 369 L 200 368 L 196 367 L 195 366 L 185 365 L 174 360 L 172 358 L 172 355 L 177 351 L 175 349 L 171 347 L 159 344 L 151 340 L 146 335 L 146 334 L 150 331 L 153 331 L 154 329 L 150 325 L 149 325 L 144 321 L 139 319 L 131 312 L 130 312 L 116 295 L 108 281 L 108 279 L 106 276 L 106 274 L 104 271 L 104 269 L 102 266 L 102 264 L 99 258 L 93 255 L 88 251 L 86 251 L 83 248 L 79 246 L 67 234 L 67 233 L 65 231 L 61 223 L 61 218 L 60 217 L 60 215 L 61 214 L 61 212 L 66 207 L 68 207 L 69 206 L 73 206 L 73 203 L 71 201 L 66 189 L 66 182 L 70 177 L 72 176 L 77 176 L 78 177 L 82 178 L 91 185 L 91 183 L 88 179 L 88 177 L 86 173 L 86 170 L 85 169 L 85 160 L 87 156 L 89 154 L 93 152 L 98 153 L 105 157 L 110 162 L 115 172 L 117 174 L 118 174 L 117 172 L 117 157 L 118 156 L 118 153 L 122 149 L 130 149 L 137 155 L 142 164 L 143 169 L 146 174 L 147 174 L 150 171 L 150 170 L 157 164 L 161 164 L 165 166 L 167 168 L 171 175 L 171 182 L 172 183 L 172 185 L 171 186 L 171 196 L 170 197 L 169 203 L 167 206 L 167 210 L 168 212 L 178 222 L 178 223 L 182 227 L 182 228 L 186 232 L 186 233 L 190 237 L 190 238 L 195 244 L 197 243 L 197 240 L 199 238 L 201 238 L 204 241 L 205 244 L 208 248 L 209 252 L 211 254 L 211 256 L 217 263 L 219 263 L 220 257 L 222 255 L 223 255 L 229 261 L 231 265 L 231 267 L 235 274 L 237 274 L 237 273 L 240 270 L 242 270 L 248 277 L 249 280 L 252 283 L 252 284 L 254 284 L 254 283 L 257 280 L 258 280 L 262 283 L 262 284 L 266 288 L 270 295 L 275 300 L 276 300 L 277 299 L 277 294 L 275 290 L 273 288 L 272 285 L 269 282 L 269 281 L 256 269 L 254 265 L 248 266 L 243 261 L 243 259 L 242 258 L 242 242 L 241 241 L 238 243 L 236 243 L 234 241 L 234 239 L 233 238 L 233 236 L 234 235 L 234 230 L 235 229 L 235 226 L 236 225 L 236 222 L 235 221 L 232 222 L 229 219 L 229 216 L 230 215 L 231 209 L 234 204 L 234 202 L 233 201 L 232 202 L 229 202 L 226 199 L 228 194 L 237 185 L 238 183 L 238 171 L 242 164 L 242 162 L 246 155 L 246 153 L 244 151 L 238 148 L 230 140 L 228 136 L 227 131 L 226 130 L 226 121 L 227 120 L 227 116 L 231 107 L 242 97 L 246 95 L 254 93 L 255 92 L 261 92 L 262 93 L 268 94 L 274 97 L 281 104 L 282 106 L 284 106 L 287 103 L 290 102 L 292 100 L 294 100 L 308 93 L 309 92 L 309 89 L 313 86 L 316 86 L 320 88 L 328 88 L 329 86 L 327 82 L 327 78 L 329 76 L 333 76 L 340 79 L 342 81 L 346 83 L 350 83 L 354 79 L 354 78 L 359 74 L 364 74 L 366 76 L 366 80 L 365 81 L 365 83 L 366 84 L 370 84 L 371 83 L 386 83 L 387 84 L 390 84 L 391 85 L 395 85 L 396 86 L 403 87 L 406 89 L 410 90 L 412 88 L 412 86 L 417 78 L 425 72 L 429 70 L 434 69 L 435 68 L 445 68 L 446 69 L 450 69 L 451 70 L 453 70 L 459 73 L 462 76 L 463 76 L 471 85 L 475 93 L 475 97 L 476 98 L 476 106 L 471 116 L 465 122 L 461 124 L 459 126 L 459 128 L 466 136 L 472 148 L 479 158 L 479 160 L 477 162 L 476 162 L 476 164 L 478 166 L 486 170 L 490 174 L 490 177 L 487 180 L 482 180 L 481 182 L 488 189 L 488 190 L 493 196 L 493 202 L 492 203 L 489 203 L 488 202 L 486 202 L 485 203 L 486 207 L 488 210 L 488 212 L 490 215 L 490 217 L 492 221 L 492 224 L 490 227 L 487 227 L 485 225 L 484 225 L 484 244 L 482 246 L 478 244 L 477 245 L 475 257 L 473 260 L 473 262 L 471 264 L 467 271 L 458 279 L 454 281 L 446 288 L 443 289 L 443 290 L 448 289 L 450 287 L 456 287 L 461 291 L 464 291 L 465 292 L 468 292 L 469 293 L 472 293 L 473 294 L 476 294 L 477 295 L 481 295 L 482 296 L 486 296 L 488 297 L 490 299 L 490 300 L 487 302 L 488 304 L 490 304 L 493 306 L 499 307 L 502 309 L 504 309 L 510 312 L 513 315 L 513 316 L 510 319 L 511 321 L 514 321 L 517 323 L 519 323 L 527 327 L 535 334 L 536 334 L 543 341 L 544 346 L 547 351 L 551 355 L 555 362 L 565 372 L 566 374 L 566 377 L 565 378 L 565 387 L 562 391 L 558 392 L 557 393 L 557 395 L 558 396 L 558 400 L 559 401 L 559 407 L 560 408 L 560 414 L 558 416 L 558 425 L 555 428 L 555 430 L 553 434 L 553 437 L 550 442 L 547 457 L 544 460 L 542 460 L 539 463 L 536 470 L 535 481 L 540 485 L 540 490 L 534 503 L 527 510 L 526 510 L 524 512 L 521 512 L 517 516 L 511 526 L 511 528 L 509 531 L 509 533 L 506 539 L 504 541 L 500 548 L 484 565 L 479 568 L 465 582 L 464 582 L 453 592 L 449 600 L 449 603 L 448 604 L 448 611 L 447 612 L 447 620 L 452 631 L 457 637 L 458 642 L 461 648 L 461 662 L 459 666 L 459 669 L 458 670 L 456 677 L 451 682 L 449 682 L 446 684 L 439 685 L 438 686 L 414 687 L 413 688 L 403 688 L 402 689 L 387 689 L 386 688 L 377 688 L 373 686 L 371 686 L 370 687 L 362 687 L 357 683 L 357 681 L 359 677 L 359 672 L 358 672 L 356 676 L 356 684 L 354 686 L 350 688 L 346 688 L 340 685 L 327 686 L 324 683 L 324 677 L 325 676 L 325 673 L 326 672 L 327 666 L 330 660 L 340 649 L 344 648 L 345 647 L 353 647 L 354 648 L 370 648 L 371 649 L 376 649 L 377 650 L 387 650 L 387 649 L 379 648 L 378 647 L 369 647 L 368 646 L 363 646 L 362 645 L 359 645 L 355 643 L 351 643 L 350 642 L 346 641 L 342 637 L 342 636 L 338 631 L 336 624 L 335 623 L 335 621 L 331 614 L 331 612 L 328 606 L 328 590 L 330 587 L 330 585 L 334 577 L 334 568 L 336 566 L 340 558 L 340 556 L 344 551 L 345 551 L 361 537 L 379 528 L 380 526 L 370 526 L 369 527 L 363 528 L 358 531 L 356 531 L 350 537 L 350 538 L 348 540 L 347 540 L 337 550 L 335 554 L 327 563 L 327 567 L 322 571 L 319 571 L 318 572 L 314 573 L 313 575 L 315 577 L 315 579 L 316 580 L 316 588 L 317 589 L 317 601 L 318 602 L 319 608 L 327 624 L 330 627 L 330 629 L 332 631 L 333 635 L 341 644 L 341 645 L 339 647 L 337 647 L 330 650 L 317 662 L 317 665 L 314 669 L 314 673 L 315 675 L 312 678 L 310 676 L 310 674 L 309 673 L 308 674 L 308 676 L 307 677 L 307 684 L 313 690 L 317 692 L 319 692 L 320 693 L 324 693 L 325 694 L 329 694 L 330 695 L 334 695 L 335 696 L 347 696 L 348 697 L 364 697 L 365 698 L 374 698 L 375 697 L 408 697 L 409 696 L 416 696 L 417 695 L 423 695 L 424 694 L 429 694 L 430 693 L 440 692 L 441 691 L 444 691 L 445 690 L 450 689 L 455 685 L 456 685 L 462 679 L 465 674 L 465 672 L 467 669 L 467 666 L 468 665 L 468 660 L 467 659 L 467 640 L 464 634 L 464 625 L 462 622 L 462 614 L 461 613 L 462 603 L 463 602 L 465 602 L 467 594 L 471 587 L 479 580 L 480 580 L 487 573 L 488 573 L 506 553 L 509 547 L 511 545 L 515 536 L 518 533 L 518 532 L 523 527 L 524 527 L 527 524 L 532 521 L 542 511 L 542 510 L 544 508 L 546 504 L 547 499 L 548 498 L 548 495 L 549 494 L 549 488 L 550 487 L 550 482 L 551 481 L 552 469 L 556 461 L 556 453 L 562 442 L 562 439 L 566 431 L 566 416 L 571 407 L 571 394 L 572 393 L 572 376 L 571 375 L 571 372 L 568 366 L 560 355 L 557 348 L 554 345 L 554 344 L 547 337 L 547 336 L 532 322 L 527 320 L 513 305 L 512 305 L 507 301 L 504 300 L 498 294 L 492 291 L 478 287 L 473 284 L 470 284 L 468 282 L 468 281 L 476 274 L 478 267 L 482 259 L 489 250 L 490 246 L 491 245 L 491 241 L 492 240 L 492 237 L 493 235 L 500 229 L 500 221 L 497 214 L 497 211 L 502 205 L 502 200 L 495 186 L 496 183 L 499 179 L 499 174 L 498 172 L 487 162 L 486 157 L 482 149 L 480 147 L 479 144 L 477 142 L 471 132 L 471 128 L 480 118 L 482 111 L 483 110 L 483 107 L 484 106 L 484 99 L 483 98 L 483 94 L 482 93 L 481 87 L 476 78 L 469 72 L 463 69 L 461 67 Z" fill="#010101" fill-rule="evenodd"/></svg>