<svg xmlns="http://www.w3.org/2000/svg" viewBox="0 0 653 704" shape-rendering="geometricPrecision"><title>intro frame 051</title><path d="M 234 537 L 230 541 L 230 548 L 226 553 L 221 557 L 224 562 L 224 567 L 218 577 L 217 582 L 215 585 L 215 590 L 217 592 L 218 598 L 219 599 L 219 605 L 221 610 L 222 619 L 223 622 L 227 626 L 228 629 L 231 631 L 234 631 L 237 633 L 240 633 L 252 637 L 257 641 L 257 643 L 255 645 L 243 645 L 242 644 L 238 644 L 233 642 L 210 641 L 205 643 L 203 645 L 201 645 L 195 650 L 192 654 L 191 663 L 193 664 L 195 661 L 196 657 L 203 651 L 205 651 L 208 654 L 208 659 L 207 660 L 207 665 L 206 666 L 206 672 L 207 673 L 213 673 L 214 672 L 214 664 L 216 662 L 217 659 L 219 657 L 225 657 L 227 659 L 227 673 L 229 675 L 237 675 L 239 677 L 245 677 L 246 678 L 277 677 L 286 668 L 286 643 L 288 638 L 289 624 L 290 623 L 290 620 L 292 617 L 292 613 L 294 610 L 294 603 L 297 599 L 297 594 L 296 593 L 297 589 L 295 585 L 291 581 L 290 576 L 279 566 L 274 565 L 271 562 L 269 562 L 266 559 L 265 556 L 264 556 L 258 550 L 254 548 L 249 543 L 246 543 L 242 540 Z M 410 524 L 403 528 L 400 532 L 398 532 L 389 541 L 388 544 L 383 550 L 383 552 L 380 555 L 372 575 L 372 586 L 371 587 L 371 596 L 373 601 L 376 603 L 377 609 L 380 612 L 382 612 L 387 616 L 389 616 L 391 618 L 394 619 L 406 619 L 409 617 L 424 617 L 425 616 L 434 616 L 440 614 L 452 613 L 456 608 L 462 605 L 466 600 L 469 600 L 470 599 L 469 598 L 458 597 L 451 600 L 444 594 L 444 585 L 446 583 L 446 579 L 447 578 L 447 570 L 446 569 L 446 562 L 447 561 L 447 535 L 445 533 L 444 530 L 440 529 L 435 526 L 430 526 L 426 524 Z M 436 265 L 435 268 L 437 269 L 438 266 Z M 267 190 L 267 202 L 274 210 L 282 210 L 283 209 L 286 209 L 289 206 L 289 205 L 286 204 L 283 201 L 281 201 L 278 199 L 268 189 Z M 64 204 L 72 209 L 78 215 L 78 216 L 79 216 L 84 204 L 87 201 L 89 197 L 96 190 L 99 189 L 101 187 L 105 186 L 108 184 L 116 184 L 117 183 L 129 190 L 137 199 L 139 203 L 139 214 L 135 221 L 124 231 L 122 231 L 120 233 L 104 241 L 101 241 L 100 242 L 90 242 L 88 240 L 85 239 L 80 233 L 79 228 L 77 226 L 72 230 L 69 230 L 66 228 L 65 229 L 66 231 L 69 234 L 72 235 L 82 245 L 85 247 L 89 248 L 92 251 L 97 260 L 97 262 L 100 266 L 110 276 L 121 290 L 122 290 L 123 292 L 135 303 L 143 308 L 147 312 L 157 317 L 159 317 L 161 319 L 163 319 L 169 323 L 183 326 L 186 329 L 186 331 L 183 334 L 183 336 L 195 336 L 199 340 L 203 342 L 219 342 L 222 345 L 215 352 L 214 352 L 212 355 L 216 355 L 217 356 L 222 356 L 224 357 L 229 355 L 233 351 L 234 347 L 237 343 L 237 338 L 241 331 L 242 323 L 244 320 L 245 316 L 249 310 L 249 306 L 252 302 L 252 292 L 253 290 L 250 284 L 245 278 L 244 278 L 243 282 L 240 284 L 234 278 L 232 272 L 229 268 L 228 268 L 228 272 L 226 274 L 223 274 L 218 268 L 216 261 L 212 255 L 210 255 L 211 257 L 210 261 L 207 264 L 205 264 L 200 259 L 196 253 L 194 247 L 189 240 L 187 240 L 185 243 L 182 242 L 176 236 L 171 228 L 165 222 L 164 219 L 162 218 L 157 211 L 153 208 L 152 206 L 152 199 L 153 198 L 154 191 L 152 191 L 148 195 L 141 196 L 132 188 L 132 175 L 130 173 L 129 167 L 128 166 L 127 167 L 127 179 L 124 182 L 117 182 L 111 178 L 103 179 L 95 188 L 89 188 L 87 187 L 84 190 L 81 190 L 84 199 L 82 203 L 79 206 L 75 207 L 74 206 L 71 206 L 66 203 Z M 195 326 L 195 323 L 200 319 L 205 320 L 209 323 L 207 326 L 203 326 L 201 328 Z M 441 70 L 437 70 L 432 68 L 421 68 L 413 72 L 406 78 L 403 87 L 401 89 L 396 89 L 392 87 L 388 87 L 383 85 L 375 85 L 374 84 L 352 84 L 349 81 L 351 75 L 350 74 L 346 75 L 343 79 L 338 83 L 334 82 L 328 78 L 322 77 L 322 84 L 319 87 L 303 87 L 301 88 L 301 91 L 296 95 L 292 95 L 289 97 L 287 97 L 283 100 L 282 104 L 287 106 L 290 110 L 290 114 L 286 118 L 284 118 L 279 121 L 274 126 L 270 126 L 268 124 L 268 117 L 270 113 L 274 110 L 268 105 L 266 101 L 262 97 L 250 91 L 242 92 L 232 96 L 228 99 L 223 105 L 223 108 L 219 114 L 219 128 L 222 134 L 227 140 L 233 143 L 235 143 L 238 146 L 238 151 L 235 156 L 232 165 L 229 169 L 230 181 L 220 192 L 220 193 L 226 193 L 228 195 L 228 199 L 222 210 L 223 213 L 226 211 L 229 214 L 229 217 L 226 226 L 226 234 L 228 234 L 231 231 L 234 233 L 235 235 L 235 250 L 236 253 L 239 253 L 242 251 L 245 254 L 247 260 L 259 271 L 259 272 L 262 274 L 266 274 L 271 278 L 280 283 L 286 289 L 289 298 L 287 300 L 284 300 L 273 293 L 270 293 L 265 298 L 263 298 L 261 300 L 260 308 L 256 312 L 257 319 L 253 322 L 248 328 L 251 333 L 250 335 L 244 340 L 244 342 L 247 345 L 247 349 L 243 356 L 243 362 L 242 363 L 242 367 L 240 372 L 240 376 L 248 370 L 252 370 L 255 373 L 255 376 L 249 388 L 232 404 L 232 406 L 235 409 L 235 413 L 224 427 L 225 428 L 230 427 L 232 429 L 232 434 L 230 436 L 227 443 L 224 447 L 225 451 L 228 454 L 228 460 L 225 466 L 224 472 L 222 474 L 222 477 L 224 477 L 228 474 L 230 474 L 233 477 L 232 480 L 232 486 L 231 487 L 231 491 L 229 494 L 229 497 L 232 495 L 236 495 L 237 496 L 237 501 L 239 503 L 239 516 L 240 518 L 243 521 L 249 521 L 253 525 L 255 529 L 261 534 L 267 537 L 271 537 L 272 535 L 271 533 L 271 527 L 270 526 L 270 514 L 271 513 L 271 509 L 273 503 L 277 500 L 280 502 L 280 505 L 279 506 L 279 515 L 278 516 L 278 525 L 279 526 L 280 533 L 288 546 L 289 552 L 292 546 L 295 544 L 295 541 L 296 540 L 299 541 L 299 544 L 295 551 L 296 555 L 299 558 L 303 558 L 304 559 L 309 558 L 312 560 L 316 560 L 322 555 L 321 552 L 323 550 L 329 555 L 331 555 L 342 543 L 344 543 L 348 539 L 347 536 L 351 534 L 352 521 L 353 520 L 353 514 L 354 513 L 354 504 L 357 500 L 357 495 L 356 494 L 356 491 L 354 489 L 353 484 L 342 472 L 338 464 L 335 461 L 332 454 L 322 439 L 322 435 L 321 434 L 321 426 L 322 425 L 321 410 L 326 400 L 336 391 L 338 391 L 348 385 L 351 385 L 353 383 L 358 382 L 358 381 L 354 378 L 345 378 L 344 379 L 340 379 L 338 378 L 337 379 L 334 379 L 328 375 L 328 371 L 326 368 L 328 366 L 329 362 L 328 362 L 326 359 L 329 357 L 332 353 L 335 355 L 338 361 L 345 361 L 348 365 L 349 365 L 352 361 L 355 360 L 357 362 L 357 367 L 359 370 L 359 373 L 360 374 L 366 374 L 378 367 L 378 364 L 374 360 L 372 355 L 377 349 L 379 349 L 383 345 L 386 345 L 387 346 L 389 346 L 392 344 L 395 345 L 398 348 L 398 351 L 401 355 L 406 355 L 408 354 L 408 352 L 410 350 L 417 350 L 419 352 L 424 354 L 427 354 L 429 356 L 429 360 L 424 365 L 419 367 L 415 371 L 411 373 L 408 373 L 398 378 L 395 378 L 392 380 L 390 380 L 385 384 L 381 385 L 371 394 L 369 394 L 367 396 L 365 396 L 359 400 L 356 400 L 354 402 L 351 402 L 350 404 L 348 404 L 345 406 L 345 407 L 346 406 L 349 406 L 351 408 L 351 416 L 349 420 L 337 433 L 338 437 L 341 441 L 345 439 L 349 441 L 355 437 L 358 441 L 358 448 L 363 450 L 365 452 L 379 451 L 381 453 L 381 461 L 382 462 L 386 462 L 391 464 L 393 463 L 401 464 L 406 462 L 409 463 L 411 461 L 411 457 L 413 455 L 416 455 L 422 449 L 422 447 L 429 441 L 433 441 L 436 438 L 439 438 L 440 437 L 445 438 L 451 433 L 453 434 L 457 430 L 460 430 L 464 425 L 470 422 L 470 420 L 473 417 L 476 418 L 482 407 L 486 404 L 488 404 L 490 406 L 492 405 L 498 397 L 498 385 L 500 383 L 503 383 L 504 384 L 506 383 L 506 377 L 507 376 L 506 366 L 502 360 L 500 352 L 495 345 L 494 337 L 489 332 L 476 323 L 464 312 L 464 310 L 466 308 L 469 308 L 466 305 L 464 305 L 462 303 L 460 303 L 454 300 L 448 292 L 445 292 L 440 290 L 428 290 L 424 292 L 416 291 L 408 298 L 407 298 L 402 292 L 398 296 L 397 299 L 395 301 L 393 301 L 391 299 L 391 295 L 393 289 L 401 281 L 405 279 L 409 274 L 411 273 L 415 274 L 420 267 L 425 270 L 426 269 L 426 264 L 423 259 L 426 256 L 429 255 L 428 252 L 431 248 L 434 248 L 439 246 L 439 245 L 433 239 L 433 237 L 434 236 L 442 236 L 443 237 L 446 237 L 444 231 L 444 228 L 448 226 L 453 228 L 453 225 L 448 220 L 447 217 L 449 214 L 453 215 L 453 213 L 447 205 L 447 203 L 449 201 L 451 201 L 456 204 L 459 204 L 460 203 L 470 204 L 470 194 L 472 192 L 475 191 L 473 187 L 465 177 L 465 174 L 468 171 L 472 171 L 472 169 L 466 166 L 461 161 L 460 159 L 461 156 L 460 150 L 456 144 L 455 140 L 447 130 L 443 123 L 443 121 L 445 119 L 452 116 L 454 114 L 454 112 L 460 103 L 460 99 L 461 98 L 460 90 L 458 85 L 455 81 L 448 74 L 445 72 L 443 72 Z M 303 544 L 305 538 L 307 536 L 315 537 L 317 539 L 314 543 L 311 543 L 309 545 L 305 546 Z M 258 494 L 260 494 L 262 496 L 261 515 L 259 517 L 254 511 L 254 500 Z M 340 485 L 342 487 L 343 490 L 341 493 L 338 494 L 336 496 L 334 494 L 334 490 Z M 253 471 L 254 472 L 254 479 L 252 484 L 250 485 L 248 483 L 247 479 L 248 476 L 251 472 Z M 250 454 L 252 456 L 252 462 L 247 470 L 243 474 L 240 471 L 241 466 L 243 463 L 244 459 Z M 251 437 L 253 439 L 252 446 L 250 450 L 247 453 L 243 454 L 241 452 L 241 447 L 244 442 L 248 438 Z M 312 348 L 311 350 L 311 354 L 308 357 L 304 358 L 303 361 L 300 364 L 298 365 L 291 365 L 290 364 L 287 365 L 286 364 L 287 363 L 286 360 L 289 357 L 290 353 L 294 349 L 294 347 L 296 345 L 299 347 L 302 347 L 303 346 L 309 347 L 310 346 Z M 334 336 L 337 340 L 333 348 L 331 350 L 328 350 L 327 352 L 324 354 L 322 352 L 322 343 L 326 340 L 326 338 L 328 336 Z M 387 288 L 387 292 L 384 297 L 370 310 L 366 312 L 363 316 L 364 315 L 367 315 L 369 313 L 372 316 L 371 319 L 371 328 L 373 331 L 372 332 L 368 332 L 368 335 L 367 336 L 360 336 L 357 334 L 352 334 L 351 333 L 352 329 L 350 326 L 350 324 L 347 324 L 341 326 L 335 323 L 333 323 L 312 309 L 306 303 L 304 299 L 304 296 L 306 294 L 315 294 L 324 297 L 338 297 L 339 296 L 350 295 L 351 294 L 360 293 L 364 291 L 368 291 L 380 286 L 385 286 Z M 370 175 L 371 172 L 379 165 L 385 163 L 390 163 L 391 162 L 402 163 L 403 164 L 407 164 L 415 168 L 419 172 L 422 178 L 422 183 L 421 186 L 413 193 L 407 194 L 406 195 L 390 194 L 384 192 L 377 188 L 371 182 Z M 275 142 L 278 142 L 283 147 L 285 152 L 285 163 L 286 164 L 291 164 L 293 162 L 292 157 L 297 153 L 303 151 L 307 151 L 308 150 L 319 150 L 325 153 L 328 156 L 328 160 L 326 162 L 319 162 L 315 160 L 305 160 L 300 162 L 302 164 L 308 165 L 316 169 L 319 172 L 322 178 L 322 182 L 318 190 L 311 197 L 308 198 L 306 200 L 302 201 L 301 202 L 301 205 L 302 206 L 304 206 L 307 208 L 311 208 L 312 209 L 328 209 L 329 208 L 332 208 L 338 206 L 347 201 L 352 196 L 354 191 L 356 189 L 360 189 L 365 194 L 367 198 L 367 207 L 368 208 L 368 228 L 367 229 L 366 239 L 363 248 L 361 251 L 361 253 L 359 255 L 357 261 L 353 266 L 344 274 L 335 279 L 325 280 L 313 276 L 305 270 L 302 266 L 296 261 L 283 243 L 278 231 L 277 223 L 267 218 L 261 213 L 257 206 L 256 198 L 254 196 L 247 204 L 244 205 L 235 205 L 231 201 L 229 197 L 230 190 L 232 186 L 237 181 L 243 177 L 246 176 L 254 176 L 259 180 L 264 180 L 265 181 L 267 180 L 267 176 L 269 172 L 265 166 L 264 158 L 268 147 L 271 144 Z M 358 137 L 363 137 L 365 138 L 369 143 L 371 148 L 371 162 L 368 167 L 362 171 L 357 170 L 351 164 L 350 158 L 349 157 L 349 152 L 350 151 L 350 147 L 352 144 L 352 142 Z M 251 104 L 255 106 L 260 112 L 260 115 L 255 121 L 248 133 L 243 137 L 239 137 L 235 134 L 230 126 L 230 116 L 231 113 L 241 104 Z M 354 102 L 355 100 L 360 96 L 368 96 L 374 99 L 379 104 L 380 106 L 380 111 L 377 114 L 370 113 L 368 111 L 365 111 L 362 109 L 358 108 L 354 104 Z M 425 80 L 428 79 L 437 80 L 447 89 L 447 91 L 450 96 L 450 100 L 449 101 L 449 105 L 448 107 L 439 115 L 435 115 L 426 106 L 418 101 L 414 97 L 415 90 L 417 87 Z" fill="#FBFBFB" fill-rule="evenodd"/><path d="M 200 654 L 197 657 L 196 661 L 193 665 L 190 663 L 191 655 L 190 658 L 190 666 L 191 669 L 193 671 L 194 670 L 194 666 L 195 665 L 196 659 Z M 468 650 L 471 648 L 479 648 L 480 647 L 485 648 L 480 646 L 474 646 Z M 248 637 L 251 638 L 254 641 L 252 644 L 255 644 L 256 643 L 255 640 L 252 638 Z M 368 628 L 372 634 L 379 641 L 392 648 L 380 641 Z M 352 604 L 350 606 L 350 609 L 348 613 L 345 616 L 338 629 L 338 635 L 337 636 L 337 640 L 335 645 L 335 668 L 334 669 L 334 672 L 330 678 L 323 685 L 315 689 L 325 684 L 330 679 L 335 670 L 335 663 L 336 662 L 336 658 L 335 657 L 335 646 L 337 643 L 338 630 L 342 622 L 344 620 L 344 618 L 348 614 L 350 610 L 350 606 Z M 214 587 L 214 591 L 216 593 L 217 596 L 217 600 L 218 601 L 219 610 L 221 615 L 222 624 L 224 628 L 228 630 L 226 626 L 222 622 L 221 619 L 220 610 L 218 605 L 218 599 L 217 598 L 216 592 L 214 590 Z M 485 560 L 481 566 L 481 570 L 480 572 L 484 571 L 483 566 L 486 564 Z M 504 538 L 499 544 L 500 545 L 502 544 L 504 545 L 504 550 L 508 552 L 511 555 L 513 555 L 516 558 L 516 560 L 521 567 L 522 563 L 515 554 L 515 550 L 511 544 L 505 538 Z M 304 544 L 306 545 L 309 544 L 311 542 L 314 542 L 316 539 L 315 538 L 307 537 Z M 234 536 L 231 538 L 228 542 L 228 549 L 219 559 L 219 561 L 223 564 L 223 567 L 221 570 L 223 567 L 223 562 L 220 557 L 224 554 L 229 548 L 229 541 L 235 536 L 238 538 L 242 539 L 246 542 L 249 542 L 254 547 L 258 549 L 264 555 L 265 555 L 269 561 L 271 561 L 274 564 L 279 565 L 291 576 L 292 581 L 296 585 L 298 589 L 297 591 L 298 599 L 295 603 L 295 610 L 293 613 L 293 617 L 291 620 L 290 628 L 289 629 L 289 638 L 287 643 L 287 668 L 277 678 L 246 679 L 245 678 L 239 678 L 237 676 L 229 676 L 226 673 L 226 664 L 226 675 L 227 677 L 232 677 L 237 679 L 249 679 L 250 680 L 262 680 L 263 681 L 282 681 L 283 680 L 299 679 L 302 677 L 309 676 L 312 673 L 311 670 L 309 672 L 306 672 L 300 676 L 292 676 L 289 679 L 286 679 L 284 677 L 289 671 L 289 668 L 290 667 L 290 646 L 291 645 L 291 642 L 293 639 L 293 631 L 294 630 L 294 623 L 295 622 L 296 609 L 302 597 L 301 578 L 298 574 L 291 570 L 288 567 L 286 567 L 276 562 L 263 550 L 258 548 L 255 545 L 245 540 L 243 540 L 236 536 Z M 260 495 L 258 495 L 255 500 L 255 511 L 259 516 L 260 515 L 260 508 L 261 507 L 261 496 Z M 538 493 L 535 499 L 529 506 L 524 509 L 516 511 L 511 517 L 511 522 L 513 526 L 521 534 L 525 540 L 521 534 L 514 527 L 512 523 L 513 515 L 515 513 L 528 507 L 534 501 Z M 340 486 L 335 490 L 335 494 L 336 495 L 338 493 L 341 492 L 342 490 Z M 253 472 L 252 472 L 249 476 L 248 479 L 250 484 L 251 484 L 253 479 Z M 224 467 L 223 471 L 221 474 L 220 481 L 221 482 L 228 476 L 231 478 L 230 487 L 228 493 L 228 503 L 230 502 L 230 500 L 233 497 L 236 499 L 237 502 L 237 515 L 240 522 L 247 526 L 251 527 L 258 534 L 263 537 L 268 543 L 274 543 L 279 547 L 286 555 L 293 560 L 297 560 L 301 562 L 308 563 L 317 567 L 323 567 L 327 569 L 333 569 L 337 566 L 348 554 L 349 554 L 351 556 L 351 561 L 349 564 L 348 568 L 349 569 L 353 569 L 358 565 L 362 556 L 364 554 L 364 552 L 368 546 L 373 541 L 378 532 L 381 530 L 384 531 L 388 528 L 393 527 L 395 529 L 395 532 L 387 541 L 384 547 L 381 550 L 381 552 L 376 560 L 375 565 L 373 568 L 373 571 L 371 574 L 371 580 L 370 581 L 370 597 L 376 609 L 376 611 L 385 624 L 394 632 L 400 635 L 403 635 L 406 637 L 411 634 L 414 634 L 415 635 L 435 635 L 440 630 L 449 627 L 454 621 L 457 621 L 460 618 L 465 619 L 467 616 L 471 613 L 472 610 L 476 606 L 477 603 L 480 600 L 480 597 L 484 593 L 488 592 L 494 583 L 489 581 L 485 578 L 480 578 L 466 591 L 463 591 L 458 593 L 454 593 L 449 587 L 449 580 L 455 573 L 458 567 L 464 562 L 468 557 L 468 555 L 470 553 L 470 551 L 472 548 L 471 542 L 466 536 L 465 532 L 461 529 L 455 529 L 454 528 L 449 528 L 444 526 L 439 526 L 429 522 L 426 522 L 421 519 L 415 518 L 409 513 L 407 508 L 405 506 L 403 506 L 400 504 L 396 504 L 385 492 L 383 491 L 379 491 L 378 490 L 366 489 L 360 485 L 357 485 L 352 481 L 342 470 L 334 457 L 336 461 L 339 464 L 343 472 L 354 484 L 355 489 L 357 491 L 357 494 L 358 495 L 358 500 L 355 504 L 355 513 L 354 514 L 352 534 L 350 536 L 348 536 L 349 539 L 344 544 L 342 544 L 331 556 L 329 556 L 323 551 L 322 552 L 323 555 L 316 561 L 312 561 L 309 559 L 306 560 L 299 559 L 294 553 L 294 551 L 298 544 L 298 541 L 296 541 L 296 544 L 293 546 L 291 549 L 291 551 L 289 553 L 288 552 L 287 546 L 279 533 L 279 530 L 277 525 L 277 516 L 278 515 L 278 506 L 279 505 L 279 502 L 278 501 L 274 503 L 272 509 L 272 513 L 271 514 L 271 526 L 272 527 L 272 533 L 273 534 L 271 538 L 267 538 L 261 535 L 253 528 L 252 525 L 249 522 L 243 522 L 239 518 L 238 516 L 238 503 L 236 501 L 236 496 L 232 496 L 230 498 L 228 497 L 228 494 L 230 491 L 232 477 L 230 475 L 228 475 L 224 478 L 221 477 L 221 474 L 223 472 Z M 322 559 L 324 557 L 327 557 L 328 558 L 327 561 L 324 561 Z M 347 551 L 341 556 L 338 555 L 340 552 L 342 552 L 345 549 Z M 410 523 L 426 523 L 430 525 L 435 525 L 440 528 L 444 529 L 448 535 L 448 561 L 447 562 L 448 578 L 447 579 L 447 583 L 445 585 L 445 594 L 451 599 L 458 596 L 469 597 L 471 599 L 469 601 L 466 601 L 462 606 L 456 609 L 452 614 L 446 614 L 445 615 L 440 615 L 434 617 L 425 617 L 424 618 L 409 618 L 406 620 L 394 620 L 391 619 L 389 617 L 387 617 L 384 614 L 380 613 L 376 609 L 375 603 L 374 603 L 371 599 L 370 596 L 371 575 L 379 555 L 382 552 L 382 550 L 387 544 L 388 541 L 398 531 L 400 531 L 403 527 Z M 250 455 L 245 459 L 244 463 L 242 466 L 241 471 L 243 473 L 246 470 L 251 462 L 251 456 Z M 251 438 L 248 439 L 242 447 L 242 452 L 243 453 L 245 453 L 249 450 L 252 443 L 252 439 Z M 252 371 L 248 371 L 240 377 L 239 376 L 240 369 L 238 375 L 238 378 L 239 379 L 247 373 L 251 373 L 253 376 L 248 386 L 235 398 L 228 407 L 229 408 L 232 408 L 234 410 L 234 412 L 231 417 L 222 427 L 223 430 L 225 430 L 227 428 L 229 428 L 231 430 L 231 434 L 224 444 L 219 455 L 221 456 L 225 453 L 227 455 L 227 460 L 227 454 L 224 451 L 223 447 L 226 443 L 229 436 L 231 434 L 231 429 L 230 428 L 225 429 L 223 427 L 234 413 L 234 409 L 231 406 L 231 404 L 236 400 L 250 385 L 251 381 L 253 379 L 254 376 L 254 373 Z M 171 367 L 181 376 L 187 379 L 193 380 L 198 384 L 206 388 L 209 388 L 215 390 L 219 394 L 219 400 L 216 406 L 216 415 L 216 406 L 220 398 L 221 392 L 220 391 L 217 391 L 216 390 L 213 390 L 204 387 L 193 380 L 185 378 L 181 376 L 176 371 L 175 368 Z M 428 356 L 425 355 L 426 355 L 428 358 L 423 364 L 397 377 L 403 375 L 408 372 L 411 372 L 415 370 L 419 366 L 424 364 L 428 360 Z M 164 350 L 164 352 L 169 353 L 168 350 Z M 311 348 L 310 347 L 309 348 L 306 347 L 299 348 L 296 346 L 295 349 L 291 353 L 290 357 L 287 360 L 288 362 L 287 364 L 290 363 L 291 364 L 298 364 L 300 363 L 304 357 L 306 357 L 310 354 L 310 350 Z M 423 354 L 421 354 L 417 351 L 410 351 L 408 355 L 406 356 L 401 356 L 398 353 L 397 348 L 393 345 L 389 347 L 383 346 L 379 350 L 377 350 L 373 355 L 375 360 L 379 364 L 379 367 L 377 369 L 375 369 L 372 372 L 370 372 L 366 375 L 360 375 L 358 373 L 358 370 L 356 367 L 356 362 L 355 361 L 352 362 L 351 364 L 348 366 L 345 362 L 338 362 L 336 360 L 334 355 L 332 354 L 331 356 L 327 359 L 327 360 L 330 362 L 330 364 L 327 368 L 329 371 L 329 375 L 334 378 L 337 378 L 338 377 L 340 378 L 354 377 L 356 378 L 359 382 L 356 384 L 353 384 L 351 386 L 348 386 L 338 392 L 336 392 L 327 400 L 322 410 L 322 418 L 323 419 L 322 434 L 323 435 L 323 439 L 325 441 L 327 445 L 324 440 L 322 434 L 322 428 L 324 424 L 323 409 L 327 401 L 334 394 L 347 387 L 353 385 L 356 385 L 359 383 L 364 377 L 385 364 L 389 363 L 390 360 L 386 358 L 384 355 L 386 353 L 389 353 L 390 352 L 390 349 L 392 347 L 395 347 L 397 349 L 397 351 L 401 357 L 403 356 L 421 355 Z M 334 337 L 328 337 L 327 340 L 323 343 L 323 352 L 325 353 L 328 349 L 331 349 L 336 340 Z M 196 323 L 196 326 L 199 326 L 200 327 L 203 325 L 207 325 L 208 323 L 205 321 L 202 321 L 201 320 L 198 321 Z M 495 337 L 489 331 L 481 326 L 472 318 L 481 326 L 489 331 L 495 337 L 496 345 L 501 352 L 503 360 L 507 366 L 507 371 L 508 372 L 507 383 L 505 385 L 503 384 L 500 384 L 499 385 L 499 397 L 491 407 L 488 405 L 484 406 L 476 419 L 473 418 L 471 420 L 471 422 L 464 426 L 460 431 L 457 431 L 453 435 L 451 434 L 445 439 L 443 438 L 436 439 L 433 442 L 429 442 L 423 447 L 423 449 L 416 456 L 413 456 L 412 457 L 412 461 L 409 464 L 406 463 L 401 465 L 398 464 L 393 464 L 391 465 L 386 463 L 382 463 L 380 461 L 380 453 L 379 452 L 365 453 L 357 448 L 357 441 L 355 438 L 349 442 L 345 440 L 341 442 L 337 437 L 336 434 L 338 430 L 348 420 L 350 416 L 350 408 L 349 407 L 346 407 L 345 408 L 344 406 L 348 403 L 350 403 L 351 401 L 354 401 L 356 399 L 359 399 L 363 396 L 367 395 L 369 393 L 371 393 L 381 384 L 385 383 L 387 381 L 381 384 L 366 395 L 349 401 L 343 405 L 338 410 L 339 412 L 343 412 L 345 410 L 348 409 L 350 411 L 350 415 L 347 421 L 337 430 L 336 432 L 337 439 L 340 442 L 349 442 L 353 440 L 356 442 L 356 447 L 354 450 L 354 454 L 352 456 L 353 460 L 356 462 L 361 462 L 363 459 L 369 454 L 376 452 L 378 454 L 378 457 L 375 463 L 375 474 L 379 477 L 389 476 L 392 474 L 398 473 L 400 471 L 406 469 L 421 456 L 423 451 L 430 445 L 436 443 L 438 445 L 438 452 L 439 452 L 442 448 L 442 443 L 450 437 L 454 440 L 454 443 L 457 442 L 462 437 L 463 434 L 466 431 L 470 430 L 475 425 L 479 416 L 484 411 L 488 413 L 491 411 L 495 411 L 496 410 L 498 404 L 498 400 L 499 399 L 500 389 L 502 387 L 507 390 L 508 389 L 508 383 L 510 377 L 509 375 L 509 371 L 507 365 L 501 354 L 501 352 L 497 346 L 497 342 Z M 467 305 L 470 308 L 469 309 L 466 309 L 465 312 L 470 317 L 465 312 L 467 310 L 471 310 L 472 311 L 473 310 Z M 386 288 L 385 287 L 380 287 L 368 292 L 364 292 L 360 294 L 356 294 L 350 296 L 345 296 L 344 297 L 339 297 L 338 298 L 324 298 L 315 295 L 306 295 L 305 296 L 305 299 L 307 303 L 312 308 L 333 322 L 335 322 L 341 325 L 347 323 L 350 323 L 353 329 L 352 333 L 357 333 L 360 335 L 367 335 L 367 332 L 368 331 L 372 331 L 370 328 L 370 319 L 371 316 L 369 314 L 367 316 L 364 316 L 363 314 L 366 311 L 370 309 L 383 297 L 386 292 Z M 385 290 L 382 296 L 365 311 L 361 313 L 353 320 L 346 322 L 344 324 L 333 321 L 323 314 L 320 313 L 314 309 L 306 300 L 306 297 L 308 295 L 312 295 L 317 297 L 323 297 L 324 298 L 343 298 L 348 296 L 353 296 L 354 295 L 358 295 L 359 294 L 370 292 L 380 288 L 383 288 Z M 358 256 L 357 259 L 350 268 L 340 275 L 332 278 L 323 278 L 314 275 L 303 267 L 313 275 L 325 279 L 330 279 L 331 278 L 335 278 L 348 270 L 356 261 Z M 195 248 L 201 259 L 205 263 L 207 263 L 209 261 L 210 257 L 209 260 L 207 262 L 205 262 L 200 257 Z M 40 217 L 41 223 L 47 232 L 58 244 L 80 262 L 82 269 L 85 274 L 82 269 L 80 261 L 63 248 L 48 233 L 43 226 Z M 166 201 L 166 202 L 176 212 L 184 223 L 189 222 L 193 224 L 197 228 L 201 236 L 204 239 L 213 239 L 215 240 L 214 238 L 214 227 L 211 224 L 209 220 L 209 213 L 209 221 L 214 227 L 214 238 L 213 239 L 206 239 L 204 238 L 200 234 L 197 228 L 192 223 L 184 222 L 179 217 L 177 213 Z M 356 190 L 353 196 L 347 202 L 338 207 L 332 209 L 329 209 L 332 209 L 338 207 L 349 201 L 353 196 L 354 193 L 357 190 L 359 190 L 364 195 L 366 200 L 366 207 L 367 208 L 367 223 L 366 224 L 366 232 L 365 233 L 364 242 L 359 254 L 365 239 L 365 234 L 367 228 L 367 208 L 366 207 L 366 198 L 364 194 L 360 190 Z M 230 194 L 230 197 L 232 201 L 235 204 L 244 204 L 247 203 L 254 195 L 257 198 L 257 203 L 256 192 L 255 192 L 250 199 L 243 204 L 236 204 L 231 199 L 230 196 L 232 188 L 239 181 L 244 178 L 253 177 L 255 178 L 259 183 L 262 181 L 264 181 L 267 184 L 267 189 L 268 188 L 278 198 L 281 200 L 283 200 L 286 203 L 290 205 L 286 210 L 283 210 L 282 211 L 274 211 L 266 202 L 266 191 L 266 202 L 268 206 L 276 212 L 282 212 L 285 211 L 293 206 L 298 206 L 299 207 L 302 207 L 307 209 L 311 209 L 312 210 L 327 210 L 312 210 L 311 209 L 307 209 L 304 207 L 302 207 L 300 205 L 300 202 L 302 200 L 306 199 L 308 197 L 311 196 L 317 190 L 320 184 L 317 190 L 307 198 L 298 201 L 293 201 L 292 202 L 285 201 L 282 199 L 278 198 L 269 188 L 268 186 L 268 176 L 271 172 L 268 170 L 270 173 L 268 176 L 268 180 L 266 182 L 264 181 L 259 181 L 254 177 L 246 177 L 241 179 L 233 186 Z M 228 170 L 229 181 L 218 193 L 219 196 L 223 194 L 225 194 L 227 196 L 227 199 L 223 205 L 222 209 L 223 205 L 227 199 L 227 195 L 226 194 L 220 194 L 219 192 L 229 181 Z M 371 175 L 372 182 L 377 187 L 384 191 L 390 193 L 398 193 L 399 194 L 410 193 L 415 191 L 420 186 L 421 183 L 421 178 L 418 172 L 415 169 L 407 165 L 403 165 L 402 164 L 391 163 L 390 164 L 385 164 L 379 166 L 372 172 Z M 371 176 L 372 173 L 378 167 L 382 165 L 386 165 L 387 164 L 399 164 L 400 165 L 404 165 L 410 167 L 415 170 L 420 176 L 421 183 L 417 189 L 408 193 L 393 193 L 379 188 L 372 181 Z M 327 156 L 319 151 L 308 151 L 307 152 L 303 152 L 302 153 L 299 153 L 293 157 L 294 162 L 291 165 L 286 165 L 284 163 L 284 152 L 284 160 L 282 163 L 281 167 L 287 166 L 288 165 L 303 165 L 314 169 L 320 175 L 320 176 L 316 170 L 308 166 L 302 165 L 299 162 L 301 160 L 304 160 L 305 159 L 315 159 L 319 161 L 326 161 L 327 160 Z M 296 157 L 299 154 L 305 152 L 318 152 L 324 155 L 326 157 L 326 159 L 325 160 L 320 160 L 316 158 L 297 159 Z M 82 151 L 77 157 L 77 162 L 78 162 L 79 159 L 82 156 L 87 156 L 89 157 L 94 162 L 98 169 L 98 171 L 100 174 L 100 181 L 99 183 L 95 186 L 85 186 L 84 188 L 82 188 L 72 178 L 66 175 L 62 175 L 60 176 L 57 180 L 57 187 L 58 187 L 59 182 L 62 179 L 66 179 L 70 181 L 81 192 L 82 194 L 82 200 L 78 205 L 72 205 L 67 202 L 64 202 L 61 205 L 56 205 L 54 206 L 52 209 L 52 216 L 55 221 L 70 237 L 82 247 L 87 249 L 92 254 L 94 261 L 99 271 L 101 273 L 103 273 L 127 299 L 137 307 L 141 309 L 147 315 L 157 320 L 159 320 L 165 324 L 182 328 L 184 330 L 178 335 L 178 336 L 182 339 L 184 338 L 194 338 L 198 342 L 202 344 L 216 344 L 217 347 L 212 351 L 208 353 L 208 356 L 210 357 L 221 358 L 222 359 L 229 359 L 233 354 L 235 348 L 239 342 L 239 337 L 240 335 L 243 332 L 243 330 L 245 329 L 249 334 L 243 340 L 243 343 L 246 345 L 246 347 L 242 356 L 242 362 L 242 356 L 246 349 L 246 345 L 243 342 L 243 340 L 246 338 L 250 333 L 247 329 L 248 326 L 256 319 L 255 312 L 259 308 L 260 300 L 263 297 L 265 297 L 270 292 L 273 292 L 282 298 L 287 299 L 288 298 L 285 289 L 280 284 L 271 279 L 266 275 L 262 275 L 259 273 L 258 271 L 246 260 L 244 254 L 242 252 L 239 254 L 236 254 L 234 250 L 234 235 L 232 232 L 228 235 L 226 235 L 225 234 L 225 227 L 225 235 L 228 235 L 230 233 L 232 233 L 234 235 L 234 250 L 236 255 L 239 256 L 239 255 L 242 253 L 244 255 L 246 261 L 256 269 L 264 281 L 270 279 L 272 281 L 277 283 L 283 288 L 287 294 L 287 296 L 284 298 L 273 291 L 269 287 L 268 288 L 268 292 L 267 294 L 264 297 L 261 297 L 255 292 L 252 285 L 244 275 L 243 276 L 243 280 L 241 282 L 239 282 L 228 265 L 227 266 L 227 269 L 224 272 L 223 272 L 219 267 L 223 273 L 226 273 L 227 272 L 227 268 L 229 267 L 233 272 L 235 278 L 240 283 L 242 282 L 243 278 L 245 277 L 249 281 L 254 290 L 253 292 L 253 302 L 250 306 L 250 310 L 246 316 L 245 320 L 243 323 L 242 331 L 238 338 L 238 343 L 236 345 L 234 351 L 229 356 L 224 358 L 222 357 L 212 356 L 211 354 L 221 345 L 219 343 L 203 343 L 199 341 L 195 337 L 183 337 L 182 334 L 185 331 L 185 329 L 183 327 L 169 324 L 167 322 L 147 313 L 143 309 L 135 304 L 120 290 L 109 276 L 96 262 L 96 260 L 91 251 L 89 249 L 85 248 L 82 246 L 72 236 L 69 235 L 64 229 L 66 227 L 69 229 L 72 229 L 77 225 L 80 228 L 81 233 L 85 238 L 88 239 L 90 241 L 100 241 L 101 240 L 104 240 L 120 232 L 122 230 L 124 230 L 134 221 L 138 214 L 138 203 L 136 199 L 129 191 L 117 184 L 116 185 L 108 185 L 96 191 L 90 197 L 88 201 L 85 204 L 82 210 L 81 215 L 79 217 L 78 217 L 72 210 L 66 207 L 63 204 L 66 202 L 71 205 L 74 205 L 75 206 L 79 205 L 83 199 L 80 190 L 81 189 L 84 189 L 87 186 L 89 187 L 95 187 L 103 178 L 111 177 L 117 181 L 124 181 L 126 179 L 126 171 L 126 176 L 125 178 L 121 181 L 114 179 L 110 175 L 106 177 L 103 174 L 98 162 L 92 154 L 87 151 Z M 252 315 L 254 317 L 254 319 L 250 323 L 245 326 L 244 323 L 246 319 L 250 315 Z M 255 305 L 257 308 L 254 311 L 252 311 L 251 308 Z M 54 209 L 56 214 L 56 219 L 55 220 L 52 216 L 53 210 Z M 61 206 L 64 206 L 70 209 L 76 215 L 77 217 L 77 222 L 73 227 L 67 227 L 57 219 L 56 211 Z M 122 187 L 134 197 L 138 204 L 138 213 L 135 219 L 127 227 L 121 231 L 103 240 L 91 240 L 87 238 L 81 232 L 80 230 L 80 226 L 79 225 L 80 223 L 80 216 L 86 203 L 89 199 L 100 189 L 102 189 L 107 186 L 110 186 L 111 185 L 117 185 Z M 81 153 L 83 151 L 87 151 L 90 155 L 88 156 L 85 154 L 82 154 Z M 113 146 L 111 149 L 117 149 L 125 158 L 126 160 L 126 166 L 128 165 L 130 167 L 131 173 L 133 175 L 133 188 L 141 195 L 148 194 L 152 190 L 154 190 L 155 191 L 154 198 L 153 199 L 153 206 L 154 208 L 156 209 L 161 216 L 165 219 L 166 222 L 172 228 L 177 236 L 182 241 L 185 242 L 187 239 L 189 239 L 194 246 L 189 238 L 187 238 L 185 241 L 182 241 L 162 215 L 154 207 L 153 205 L 153 199 L 156 190 L 156 173 L 152 165 L 150 163 L 146 162 L 140 167 L 140 169 L 142 167 L 146 166 L 152 171 L 153 174 L 153 184 L 151 189 L 146 194 L 139 194 L 134 189 L 133 186 L 133 182 L 137 174 L 137 172 L 135 174 L 133 174 L 131 172 L 126 157 L 121 149 L 117 146 Z M 457 143 L 462 153 L 462 156 L 461 157 L 462 161 L 466 165 L 473 169 L 472 172 L 468 172 L 466 174 L 467 179 L 476 190 L 474 193 L 471 194 L 471 204 L 470 205 L 466 205 L 465 204 L 456 205 L 451 202 L 448 203 L 448 205 L 454 213 L 453 216 L 451 215 L 448 216 L 449 220 L 454 225 L 454 228 L 453 229 L 449 227 L 445 228 L 445 231 L 447 236 L 446 238 L 443 238 L 442 237 L 434 237 L 434 239 L 440 245 L 440 246 L 438 248 L 431 249 L 429 252 L 430 255 L 424 259 L 427 264 L 427 269 L 425 271 L 420 268 L 415 275 L 411 274 L 409 275 L 405 280 L 401 282 L 393 291 L 393 294 L 392 295 L 392 299 L 393 300 L 395 300 L 397 296 L 402 291 L 404 294 L 408 297 L 416 290 L 424 291 L 428 289 L 440 289 L 441 290 L 448 291 L 452 295 L 454 299 L 461 302 L 456 300 L 453 297 L 453 293 L 438 289 L 436 287 L 429 287 L 421 291 L 418 290 L 416 288 L 410 294 L 408 295 L 406 293 L 406 288 L 411 282 L 412 283 L 416 283 L 417 282 L 421 283 L 431 270 L 434 272 L 437 272 L 443 265 L 447 257 L 450 254 L 454 258 L 455 261 L 457 260 L 461 251 L 463 238 L 466 237 L 469 239 L 470 237 L 470 225 L 469 224 L 469 219 L 472 216 L 475 219 L 477 219 L 477 214 L 472 204 L 471 196 L 474 194 L 479 197 L 480 194 L 466 176 L 468 173 L 476 173 L 477 172 L 472 167 L 467 165 L 462 161 L 462 157 L 464 154 L 460 149 Z M 436 264 L 439 266 L 439 268 L 437 270 L 434 268 L 434 266 Z M 440 241 L 441 240 L 444 241 L 447 245 L 445 247 Z M 448 232 L 451 231 L 453 233 L 453 236 L 451 237 Z M 81 138 L 89 139 L 93 141 L 97 145 L 99 144 L 99 143 L 98 144 L 97 142 L 95 142 L 92 139 Z M 251 105 L 241 105 L 232 113 L 231 116 L 231 126 L 236 134 L 239 136 L 243 136 L 247 133 L 250 127 L 259 115 L 259 112 L 257 109 Z M 248 105 L 253 107 L 258 112 L 258 116 L 255 119 L 248 131 L 244 135 L 241 136 L 233 129 L 231 125 L 231 117 L 233 113 L 239 107 L 244 105 Z M 355 102 L 355 104 L 358 107 L 362 108 L 365 110 L 368 110 L 371 112 L 368 110 L 360 108 L 355 104 L 356 100 L 360 97 L 369 98 L 373 100 L 379 106 L 379 111 L 377 113 L 373 113 L 377 113 L 379 111 L 379 106 L 374 100 L 368 97 L 360 97 L 358 98 Z M 462 96 L 461 103 L 455 112 L 455 114 L 452 117 L 444 121 L 444 123 L 448 130 L 452 134 L 455 139 L 449 129 L 445 125 L 445 121 L 451 118 L 455 114 L 461 103 Z M 425 81 L 422 83 L 416 90 L 415 97 L 418 100 L 426 105 L 435 114 L 439 114 L 447 107 L 448 105 L 448 101 L 449 100 L 449 96 L 446 91 L 446 89 L 437 81 L 434 81 L 433 80 Z M 427 81 L 434 81 L 440 84 L 447 92 L 448 95 L 448 102 L 445 108 L 438 114 L 435 113 L 425 103 L 416 97 L 417 89 L 423 83 Z M 299 76 L 297 76 L 288 82 L 278 86 L 275 90 L 270 87 L 265 82 L 255 78 L 244 77 L 240 79 L 234 80 L 231 82 L 234 80 L 241 79 L 242 78 L 253 78 L 266 83 L 270 87 L 275 90 L 281 85 L 288 82 L 295 77 Z M 342 79 L 340 81 L 337 82 L 324 75 L 321 75 L 320 76 L 321 84 L 319 86 L 302 86 L 298 92 L 291 94 L 279 100 L 273 106 L 271 106 L 260 94 L 250 90 L 241 91 L 230 96 L 223 103 L 218 114 L 218 128 L 222 136 L 229 143 L 234 144 L 237 147 L 237 151 L 234 156 L 232 162 L 234 156 L 237 151 L 237 146 L 235 144 L 233 144 L 227 141 L 221 134 L 218 128 L 218 114 L 222 108 L 222 105 L 228 98 L 236 93 L 242 91 L 246 91 L 247 90 L 250 90 L 262 96 L 267 101 L 269 105 L 275 110 L 271 113 L 269 117 L 269 124 L 270 125 L 274 125 L 279 120 L 284 117 L 286 117 L 289 114 L 287 116 L 280 119 L 273 125 L 271 125 L 269 123 L 269 117 L 270 115 L 278 108 L 282 106 L 285 106 L 289 110 L 287 107 L 283 106 L 281 104 L 281 102 L 284 98 L 292 94 L 296 94 L 300 91 L 300 88 L 303 86 L 319 86 L 321 84 L 321 77 L 322 76 L 328 77 L 330 79 L 332 79 L 334 81 L 337 82 L 340 81 Z M 420 68 L 411 72 L 405 78 L 403 84 L 400 88 L 396 88 L 390 85 L 387 85 L 382 83 L 377 83 L 376 82 L 353 82 L 351 80 L 351 76 L 352 75 L 351 72 L 348 72 L 345 74 L 343 77 L 346 74 L 350 73 L 352 75 L 350 79 L 350 81 L 352 83 L 374 83 L 375 84 L 383 84 L 388 86 L 392 86 L 396 88 L 401 88 L 405 78 L 410 73 Z M 423 67 L 432 67 L 437 69 L 441 69 L 443 71 L 445 71 L 456 81 L 459 86 L 455 79 L 446 71 L 435 67 Z M 361 64 L 357 60 L 352 60 L 350 59 L 343 62 L 337 67 L 330 63 L 327 63 L 326 62 L 316 62 L 311 66 L 316 62 L 325 62 L 335 67 L 338 67 L 343 62 L 347 60 L 357 60 Z" fill="#E8E8E8" fill-rule="evenodd"/><path d="M 524 455 L 521 455 L 519 457 L 520 459 L 520 466 L 521 467 L 521 487 L 520 488 L 520 491 L 518 497 L 519 497 L 523 492 L 526 486 L 529 477 L 529 473 L 530 472 L 529 463 Z M 252 316 L 250 316 L 247 319 L 245 325 L 253 319 Z M 256 307 L 254 306 L 252 308 L 252 310 L 254 310 Z M 384 290 L 383 289 L 380 289 L 370 293 L 367 293 L 358 296 L 354 296 L 353 297 L 348 297 L 343 299 L 324 299 L 323 298 L 317 298 L 312 296 L 308 296 L 307 297 L 307 300 L 314 308 L 323 313 L 328 317 L 331 318 L 333 320 L 344 323 L 346 321 L 353 319 L 361 312 L 365 310 L 381 296 Z M 441 241 L 445 246 L 446 244 L 444 242 Z M 61 207 L 57 211 L 58 219 L 67 226 L 73 226 L 76 222 L 76 217 L 75 215 L 70 210 L 64 207 Z M 122 188 L 117 186 L 107 187 L 97 192 L 87 203 L 81 216 L 81 223 L 80 224 L 82 232 L 87 237 L 91 239 L 103 239 L 121 230 L 127 226 L 134 219 L 137 213 L 137 204 L 133 197 Z M 233 188 L 231 196 L 232 199 L 236 203 L 243 203 L 251 197 L 255 191 L 257 192 L 258 204 L 261 210 L 267 216 L 275 220 L 279 224 L 279 227 L 280 228 L 280 231 L 282 237 L 291 252 L 304 267 L 314 274 L 323 277 L 332 277 L 338 275 L 350 267 L 356 259 L 363 242 L 364 233 L 365 232 L 365 224 L 366 223 L 366 208 L 365 207 L 365 200 L 363 195 L 359 191 L 357 191 L 355 193 L 354 196 L 349 202 L 338 208 L 332 210 L 328 210 L 327 211 L 312 211 L 311 210 L 307 210 L 298 207 L 293 207 L 285 212 L 282 213 L 276 213 L 271 210 L 267 206 L 265 202 L 266 184 L 264 182 L 262 182 L 259 184 L 255 179 L 253 178 L 248 178 L 242 180 Z M 260 185 L 262 183 L 265 185 L 264 200 L 266 206 L 271 211 L 274 213 L 277 213 L 278 214 L 283 214 L 293 208 L 299 208 L 300 209 L 303 209 L 308 211 L 313 211 L 314 212 L 326 212 L 327 211 L 335 210 L 349 203 L 354 198 L 355 195 L 359 192 L 362 195 L 364 199 L 364 204 L 365 205 L 365 225 L 364 226 L 364 232 L 363 233 L 362 242 L 358 251 L 358 253 L 353 262 L 351 264 L 348 263 L 355 246 L 355 243 L 356 242 L 355 237 L 351 232 L 343 228 L 333 228 L 322 233 L 317 237 L 309 246 L 307 251 L 307 257 L 309 261 L 317 270 L 315 272 L 313 272 L 308 269 L 298 259 L 286 243 L 282 235 L 280 229 L 280 226 L 279 225 L 279 222 L 277 220 L 268 216 L 261 209 L 258 202 L 258 191 Z M 372 176 L 373 181 L 379 187 L 393 192 L 408 192 L 417 188 L 420 183 L 419 176 L 415 171 L 410 168 L 404 166 L 400 166 L 399 165 L 387 165 L 386 166 L 382 166 L 378 168 L 373 173 Z M 297 157 L 297 158 L 316 157 L 320 159 L 325 159 L 324 156 L 318 153 L 305 153 L 299 155 Z M 273 145 L 269 149 L 266 157 L 266 165 L 268 169 L 272 172 L 269 176 L 269 186 L 272 191 L 278 197 L 290 201 L 302 199 L 305 197 L 307 197 L 315 191 L 320 183 L 320 177 L 319 175 L 314 170 L 303 166 L 288 166 L 287 167 L 281 168 L 280 166 L 283 160 L 283 151 L 279 145 L 276 144 Z M 269 178 L 273 173 L 284 168 L 287 168 L 288 167 L 303 167 L 314 171 L 318 175 L 319 177 L 319 184 L 312 192 L 306 196 L 297 199 L 286 199 L 279 196 L 273 191 L 269 183 Z M 277 145 L 281 148 L 283 154 L 283 157 L 280 164 L 274 170 L 271 170 L 267 166 L 267 163 L 266 162 L 267 155 L 270 149 L 273 146 Z M 358 139 L 356 140 L 353 144 L 352 150 L 351 151 L 351 159 L 353 164 L 357 168 L 364 168 L 369 162 L 369 158 L 370 157 L 369 147 L 367 143 L 363 139 Z M 358 140 L 363 140 L 367 144 L 369 149 L 369 159 L 368 162 L 364 167 L 361 168 L 357 167 L 353 163 L 351 157 L 352 148 L 354 144 Z M 289 111 L 285 107 L 282 107 L 278 109 L 271 115 L 270 117 L 270 123 L 273 124 L 280 118 L 287 115 L 289 113 Z M 288 111 L 285 115 L 280 117 L 273 123 L 270 121 L 270 118 L 272 115 L 281 108 L 285 108 Z M 248 106 L 244 106 L 239 108 L 234 113 L 232 117 L 232 125 L 234 129 L 241 135 L 244 134 L 247 131 L 248 128 L 257 116 L 257 112 L 253 108 Z M 356 102 L 356 104 L 358 106 L 368 109 L 372 112 L 377 112 L 378 111 L 378 106 L 373 101 L 369 99 L 360 98 L 358 99 Z M 357 102 L 361 99 L 366 99 L 369 101 L 373 102 L 377 106 L 378 109 L 374 112 L 365 107 L 360 106 Z M 427 82 L 423 84 L 418 89 L 417 97 L 425 102 L 435 112 L 438 113 L 444 108 L 447 102 L 447 95 L 445 90 L 437 83 L 434 82 Z M 435 65 L 424 65 L 423 66 L 417 67 L 411 70 L 404 77 L 401 84 L 399 86 L 396 86 L 393 84 L 390 84 L 386 82 L 378 81 L 377 80 L 370 80 L 369 79 L 354 80 L 352 78 L 354 74 L 354 71 L 353 70 L 346 71 L 338 80 L 334 79 L 329 75 L 323 72 L 319 72 L 318 73 L 319 82 L 317 84 L 302 84 L 298 86 L 298 89 L 296 91 L 291 92 L 277 99 L 272 104 L 269 102 L 268 99 L 262 93 L 253 89 L 242 89 L 241 90 L 235 91 L 224 99 L 221 103 L 217 113 L 216 126 L 217 127 L 217 130 L 222 139 L 230 146 L 233 146 L 235 148 L 235 152 L 227 169 L 227 177 L 228 179 L 216 193 L 216 197 L 217 198 L 223 196 L 225 198 L 220 209 L 219 217 L 220 218 L 223 217 L 225 218 L 225 223 L 224 224 L 224 230 L 223 233 L 224 236 L 226 238 L 229 236 L 232 237 L 232 249 L 237 260 L 239 261 L 242 257 L 244 259 L 245 263 L 249 265 L 256 272 L 260 279 L 263 282 L 266 288 L 266 292 L 263 295 L 261 295 L 256 290 L 251 280 L 244 273 L 242 273 L 241 277 L 239 278 L 236 275 L 232 267 L 228 263 L 226 263 L 226 265 L 223 269 L 221 267 L 215 254 L 212 251 L 209 251 L 208 257 L 205 259 L 201 255 L 193 240 L 188 234 L 184 239 L 178 234 L 173 226 L 169 222 L 162 212 L 156 207 L 154 203 L 157 194 L 157 189 L 158 188 L 158 174 L 156 168 L 150 161 L 144 161 L 142 162 L 138 168 L 134 171 L 131 168 L 129 160 L 124 150 L 120 146 L 114 144 L 111 145 L 108 150 L 108 154 L 107 155 L 107 171 L 105 172 L 98 158 L 92 152 L 83 149 L 78 152 L 75 158 L 76 168 L 78 174 L 83 183 L 81 185 L 79 182 L 72 176 L 65 173 L 60 174 L 56 178 L 55 181 L 56 190 L 62 201 L 60 203 L 54 204 L 50 209 L 50 214 L 54 223 L 69 239 L 80 248 L 86 251 L 90 255 L 100 279 L 111 295 L 125 310 L 133 315 L 144 325 L 142 327 L 137 327 L 136 329 L 143 335 L 156 341 L 162 342 L 167 346 L 165 349 L 161 349 L 160 350 L 163 354 L 175 358 L 189 361 L 191 364 L 188 366 L 187 368 L 190 370 L 198 371 L 199 372 L 206 372 L 210 375 L 210 377 L 212 379 L 224 380 L 226 378 L 226 374 L 229 365 L 231 363 L 238 347 L 240 345 L 242 345 L 244 347 L 242 354 L 240 357 L 240 367 L 236 376 L 236 382 L 237 384 L 235 388 L 234 396 L 226 407 L 227 410 L 230 410 L 232 412 L 230 416 L 222 424 L 220 428 L 220 431 L 221 432 L 227 431 L 229 434 L 222 444 L 218 452 L 218 458 L 219 459 L 222 457 L 225 458 L 225 461 L 222 467 L 218 481 L 220 485 L 226 480 L 228 482 L 227 496 L 226 497 L 226 505 L 228 508 L 229 508 L 232 504 L 235 506 L 235 514 L 239 524 L 241 526 L 248 529 L 254 535 L 256 535 L 263 542 L 262 543 L 259 543 L 255 540 L 248 540 L 235 534 L 232 535 L 228 539 L 226 543 L 226 549 L 217 559 L 217 563 L 221 566 L 221 568 L 217 574 L 213 586 L 213 593 L 215 596 L 215 599 L 217 604 L 218 615 L 219 616 L 219 620 L 220 621 L 221 627 L 224 630 L 228 632 L 243 636 L 246 638 L 248 638 L 251 641 L 249 643 L 244 643 L 243 642 L 240 642 L 235 640 L 231 640 L 230 639 L 217 638 L 216 639 L 210 639 L 198 644 L 191 651 L 191 653 L 189 656 L 189 668 L 192 673 L 195 673 L 196 672 L 196 662 L 198 658 L 201 655 L 204 655 L 206 658 L 205 659 L 203 673 L 206 676 L 210 676 L 211 677 L 217 677 L 216 667 L 218 662 L 221 659 L 223 659 L 225 661 L 225 678 L 230 680 L 246 681 L 247 682 L 258 682 L 259 683 L 285 683 L 286 682 L 299 681 L 313 676 L 319 669 L 319 666 L 320 665 L 320 656 L 319 655 L 319 646 L 318 645 L 318 640 L 322 636 L 322 627 L 320 621 L 320 616 L 322 614 L 330 614 L 332 612 L 330 604 L 334 599 L 336 599 L 334 596 L 331 595 L 325 589 L 324 586 L 325 585 L 328 585 L 329 586 L 338 587 L 347 591 L 356 591 L 358 588 L 358 573 L 359 572 L 359 567 L 370 548 L 382 537 L 385 537 L 386 539 L 383 545 L 379 550 L 377 555 L 375 557 L 375 559 L 373 562 L 369 574 L 368 589 L 367 590 L 368 592 L 368 597 L 370 600 L 370 602 L 372 604 L 372 606 L 375 611 L 377 617 L 383 626 L 390 633 L 400 639 L 406 641 L 409 641 L 410 642 L 413 642 L 414 643 L 417 643 L 418 644 L 425 644 L 426 645 L 431 645 L 436 647 L 446 647 L 467 636 L 478 628 L 486 620 L 493 610 L 494 607 L 499 602 L 501 605 L 500 606 L 500 609 L 497 618 L 495 621 L 494 625 L 488 633 L 490 636 L 497 639 L 507 639 L 508 638 L 507 633 L 509 631 L 512 631 L 517 633 L 522 633 L 529 630 L 532 627 L 523 624 L 520 621 L 520 619 L 522 617 L 538 616 L 539 615 L 539 608 L 538 607 L 537 598 L 527 568 L 514 544 L 505 534 L 497 530 L 491 530 L 487 533 L 484 541 L 484 550 L 483 551 L 483 554 L 479 562 L 479 565 L 477 570 L 477 574 L 475 579 L 469 585 L 468 585 L 466 583 L 466 581 L 470 576 L 469 574 L 464 575 L 460 578 L 458 578 L 456 576 L 458 572 L 469 559 L 470 555 L 475 547 L 475 543 L 471 537 L 471 533 L 472 531 L 482 520 L 486 517 L 492 515 L 501 507 L 505 498 L 506 483 L 508 481 L 509 482 L 511 479 L 510 476 L 510 468 L 509 467 L 509 464 L 506 455 L 506 452 L 509 450 L 510 448 L 508 442 L 506 440 L 505 437 L 499 431 L 496 431 L 489 439 L 485 441 L 475 450 L 467 455 L 461 461 L 454 463 L 442 469 L 437 470 L 432 474 L 426 476 L 418 476 L 415 477 L 403 485 L 389 488 L 388 489 L 374 488 L 365 485 L 351 477 L 343 469 L 339 463 L 334 453 L 328 445 L 324 435 L 324 429 L 327 423 L 327 420 L 325 415 L 325 409 L 327 406 L 327 404 L 330 400 L 342 391 L 358 386 L 370 375 L 373 374 L 378 370 L 391 364 L 394 359 L 394 357 L 396 355 L 397 355 L 400 359 L 408 358 L 409 357 L 415 357 L 416 356 L 423 356 L 425 358 L 424 360 L 419 364 L 390 379 L 383 381 L 365 394 L 359 396 L 356 396 L 346 400 L 343 402 L 336 410 L 336 412 L 338 414 L 342 414 L 343 413 L 347 413 L 348 414 L 346 420 L 335 430 L 335 439 L 336 441 L 342 446 L 345 446 L 350 443 L 353 445 L 350 451 L 350 460 L 351 462 L 355 465 L 361 466 L 369 457 L 373 455 L 374 456 L 374 459 L 369 472 L 375 478 L 378 478 L 379 479 L 389 478 L 398 475 L 403 472 L 405 472 L 421 461 L 430 451 L 433 451 L 434 452 L 435 459 L 436 459 L 441 454 L 449 443 L 451 444 L 451 452 L 453 452 L 465 439 L 467 439 L 469 437 L 470 434 L 480 424 L 483 424 L 484 425 L 490 419 L 493 421 L 496 421 L 500 412 L 500 407 L 501 406 L 501 400 L 502 397 L 504 395 L 508 399 L 511 399 L 512 396 L 513 382 L 512 381 L 511 372 L 508 366 L 506 358 L 503 352 L 499 347 L 499 341 L 497 337 L 490 330 L 482 325 L 469 314 L 469 313 L 471 312 L 477 315 L 479 315 L 480 314 L 475 309 L 467 303 L 459 300 L 456 297 L 457 295 L 456 293 L 450 290 L 441 288 L 437 283 L 437 281 L 444 274 L 453 268 L 458 262 L 463 250 L 464 242 L 466 240 L 469 242 L 470 241 L 472 235 L 471 222 L 474 220 L 477 223 L 479 223 L 480 221 L 480 217 L 473 199 L 475 197 L 479 199 L 482 198 L 482 194 L 469 177 L 471 175 L 478 175 L 479 172 L 474 166 L 471 165 L 469 163 L 467 163 L 464 160 L 468 156 L 460 146 L 455 135 L 448 125 L 448 122 L 454 118 L 462 105 L 462 102 L 463 101 L 463 93 L 462 92 L 461 86 L 457 79 L 448 70 Z M 485 559 L 487 562 L 487 564 L 484 566 L 485 571 L 482 573 L 480 573 L 479 572 L 480 570 L 480 566 L 482 562 L 484 561 Z M 504 537 L 505 537 L 515 548 L 516 550 L 516 554 L 523 563 L 521 568 L 515 560 L 515 558 L 503 550 L 503 545 L 500 546 L 498 544 L 498 543 L 501 541 Z M 234 535 L 236 535 L 243 539 L 245 539 L 255 544 L 258 547 L 263 549 L 276 561 L 286 566 L 288 566 L 291 569 L 298 573 L 302 578 L 303 597 L 297 609 L 297 615 L 296 616 L 296 622 L 295 623 L 295 630 L 294 631 L 294 639 L 292 642 L 292 645 L 291 646 L 291 667 L 290 668 L 290 671 L 285 677 L 286 678 L 289 678 L 292 675 L 300 675 L 302 673 L 304 673 L 306 671 L 309 671 L 311 669 L 313 671 L 313 673 L 309 677 L 302 678 L 299 680 L 283 681 L 282 682 L 263 682 L 262 681 L 237 680 L 232 678 L 227 678 L 225 675 L 225 664 L 226 661 L 224 658 L 221 658 L 217 662 L 216 665 L 216 674 L 214 676 L 210 676 L 209 675 L 206 675 L 204 673 L 204 666 L 206 660 L 206 655 L 205 654 L 201 654 L 198 657 L 195 666 L 195 670 L 193 672 L 190 669 L 189 666 L 189 658 L 192 651 L 199 644 L 207 640 L 210 640 L 211 639 L 226 639 L 227 640 L 231 640 L 232 641 L 236 641 L 242 643 L 248 643 L 249 644 L 251 644 L 253 642 L 251 639 L 247 637 L 232 633 L 229 631 L 225 630 L 223 628 L 220 620 L 220 615 L 218 610 L 216 596 L 215 593 L 213 591 L 213 587 L 216 578 L 222 567 L 222 564 L 218 561 L 218 559 L 227 549 L 227 542 L 228 540 Z M 453 444 L 455 445 L 455 448 L 454 449 L 452 447 Z M 163 350 L 164 349 L 168 349 L 170 351 L 170 353 L 169 354 L 164 353 Z M 141 330 L 143 329 L 145 332 L 143 333 Z M 82 150 L 87 150 L 93 154 L 99 162 L 103 170 L 103 172 L 106 176 L 110 174 L 114 178 L 121 180 L 123 179 L 125 176 L 125 171 L 126 170 L 125 160 L 117 150 L 111 150 L 110 149 L 113 145 L 117 145 L 119 146 L 122 149 L 127 157 L 132 172 L 133 173 L 135 173 L 137 171 L 138 172 L 138 174 L 134 182 L 134 186 L 135 189 L 139 193 L 146 193 L 151 187 L 152 184 L 152 174 L 151 171 L 146 167 L 144 167 L 140 170 L 139 169 L 139 167 L 144 162 L 146 161 L 150 162 L 155 168 L 157 173 L 157 190 L 154 199 L 154 205 L 171 225 L 182 240 L 185 240 L 187 237 L 189 237 L 192 240 L 201 257 L 205 261 L 208 260 L 209 254 L 212 252 L 216 257 L 219 266 L 221 269 L 224 271 L 226 269 L 226 266 L 228 264 L 234 272 L 236 277 L 239 281 L 242 280 L 242 276 L 244 274 L 248 278 L 250 282 L 253 285 L 256 292 L 259 295 L 264 296 L 267 292 L 267 288 L 269 286 L 273 290 L 285 297 L 286 294 L 282 288 L 270 280 L 264 282 L 255 269 L 245 261 L 244 257 L 242 254 L 241 254 L 239 257 L 237 257 L 235 255 L 233 250 L 233 235 L 232 234 L 230 234 L 228 236 L 225 236 L 224 235 L 224 227 L 225 226 L 225 221 L 227 215 L 225 214 L 221 216 L 220 215 L 220 211 L 222 205 L 226 199 L 226 196 L 223 195 L 219 197 L 217 195 L 217 193 L 228 181 L 227 170 L 236 151 L 236 147 L 234 145 L 229 144 L 221 136 L 217 128 L 217 114 L 222 103 L 230 95 L 241 90 L 250 89 L 260 93 L 271 105 L 273 105 L 279 99 L 291 93 L 298 91 L 299 88 L 302 85 L 319 85 L 320 84 L 319 76 L 321 74 L 324 74 L 332 78 L 334 80 L 338 81 L 342 78 L 343 75 L 348 71 L 351 71 L 353 73 L 352 76 L 352 80 L 353 81 L 376 81 L 377 82 L 382 82 L 383 83 L 390 84 L 396 87 L 400 87 L 401 86 L 404 78 L 411 71 L 423 66 L 435 66 L 436 67 L 439 67 L 449 72 L 456 79 L 462 90 L 462 95 L 463 96 L 462 103 L 456 114 L 451 119 L 446 121 L 446 125 L 454 135 L 458 144 L 465 154 L 463 157 L 463 161 L 467 164 L 472 166 L 478 172 L 476 174 L 468 174 L 467 175 L 468 178 L 474 184 L 478 191 L 481 194 L 481 196 L 479 198 L 474 195 L 472 196 L 473 204 L 478 214 L 478 219 L 475 220 L 472 217 L 470 219 L 470 224 L 471 225 L 471 237 L 469 240 L 466 238 L 464 238 L 462 251 L 458 260 L 455 262 L 453 260 L 453 258 L 450 255 L 448 257 L 444 265 L 437 273 L 434 273 L 431 271 L 426 277 L 425 280 L 421 284 L 419 283 L 412 284 L 411 283 L 407 288 L 407 293 L 408 294 L 410 293 L 416 287 L 418 289 L 421 290 L 429 286 L 436 286 L 438 288 L 453 292 L 454 293 L 454 297 L 456 299 L 470 306 L 474 310 L 472 312 L 471 311 L 467 311 L 466 312 L 481 325 L 489 330 L 497 339 L 498 346 L 502 352 L 502 354 L 508 365 L 510 371 L 510 375 L 511 377 L 509 383 L 509 389 L 507 391 L 503 388 L 501 389 L 500 399 L 499 400 L 499 404 L 497 410 L 495 412 L 491 412 L 488 414 L 484 412 L 480 416 L 476 425 L 470 431 L 466 432 L 464 434 L 463 437 L 457 443 L 454 444 L 453 443 L 453 440 L 450 438 L 447 441 L 443 443 L 443 448 L 439 453 L 437 452 L 437 445 L 436 444 L 430 446 L 424 451 L 422 456 L 406 470 L 400 472 L 398 474 L 392 475 L 389 477 L 379 478 L 374 474 L 374 463 L 377 457 L 377 454 L 376 453 L 369 455 L 365 458 L 361 463 L 356 463 L 354 462 L 351 458 L 351 456 L 353 454 L 353 450 L 355 447 L 355 442 L 353 441 L 349 443 L 340 443 L 336 439 L 336 436 L 335 435 L 336 430 L 346 421 L 349 415 L 349 411 L 348 410 L 345 411 L 343 413 L 339 413 L 337 410 L 343 404 L 349 400 L 366 394 L 381 383 L 391 378 L 396 377 L 398 375 L 406 371 L 408 371 L 423 363 L 427 358 L 427 357 L 424 355 L 421 356 L 403 357 L 401 358 L 398 355 L 396 349 L 395 348 L 392 348 L 391 349 L 391 352 L 389 354 L 386 354 L 385 355 L 386 357 L 389 358 L 391 360 L 391 362 L 389 364 L 385 365 L 378 370 L 373 372 L 364 378 L 364 379 L 356 386 L 353 386 L 347 388 L 337 393 L 328 401 L 324 409 L 325 424 L 323 428 L 323 434 L 329 448 L 334 454 L 334 456 L 340 464 L 343 470 L 350 477 L 350 478 L 357 484 L 360 484 L 366 488 L 378 489 L 379 490 L 383 490 L 385 491 L 396 503 L 400 503 L 403 505 L 405 505 L 408 508 L 410 513 L 415 517 L 418 517 L 426 521 L 429 521 L 439 525 L 444 525 L 445 526 L 454 527 L 455 528 L 461 528 L 466 532 L 467 536 L 472 542 L 473 548 L 471 551 L 471 553 L 469 555 L 469 557 L 466 561 L 459 567 L 456 573 L 450 580 L 450 587 L 454 592 L 458 592 L 459 591 L 466 590 L 480 577 L 485 577 L 489 580 L 493 581 L 495 583 L 490 591 L 488 593 L 484 594 L 481 597 L 481 600 L 478 603 L 477 606 L 473 610 L 472 613 L 468 616 L 465 620 L 460 619 L 457 622 L 454 622 L 449 628 L 440 631 L 435 636 L 415 636 L 414 635 L 411 635 L 406 638 L 403 636 L 400 636 L 394 633 L 387 626 L 386 626 L 377 615 L 369 597 L 369 581 L 370 580 L 370 574 L 372 571 L 372 568 L 374 565 L 375 560 L 380 552 L 380 550 L 383 547 L 386 541 L 394 532 L 394 529 L 393 528 L 388 529 L 384 532 L 381 531 L 379 532 L 374 541 L 369 546 L 365 552 L 365 554 L 363 556 L 359 565 L 355 569 L 353 570 L 349 570 L 347 568 L 348 564 L 350 561 L 350 556 L 348 555 L 342 561 L 342 562 L 333 570 L 327 570 L 323 568 L 317 568 L 308 564 L 305 564 L 304 563 L 301 563 L 297 561 L 293 561 L 291 560 L 274 544 L 268 544 L 263 538 L 258 535 L 251 528 L 247 527 L 239 522 L 236 515 L 236 502 L 235 499 L 233 498 L 229 504 L 227 503 L 227 493 L 228 492 L 230 478 L 229 477 L 226 478 L 221 483 L 219 481 L 220 474 L 226 461 L 226 455 L 224 454 L 221 457 L 218 455 L 223 444 L 230 434 L 230 430 L 229 429 L 227 429 L 225 431 L 223 431 L 221 429 L 221 427 L 230 417 L 233 412 L 232 409 L 229 409 L 227 407 L 234 398 L 247 386 L 252 376 L 251 374 L 247 374 L 240 380 L 237 378 L 237 375 L 241 364 L 241 356 L 245 347 L 245 345 L 242 343 L 242 340 L 248 334 L 248 333 L 244 330 L 244 332 L 240 337 L 240 342 L 236 348 L 234 354 L 229 360 L 222 360 L 216 358 L 210 358 L 207 356 L 207 353 L 215 348 L 216 345 L 202 345 L 198 343 L 194 339 L 184 339 L 183 340 L 180 339 L 177 335 L 183 330 L 182 329 L 165 325 L 161 322 L 157 321 L 147 316 L 141 310 L 137 308 L 127 300 L 108 280 L 108 279 L 103 274 L 101 274 L 98 271 L 93 261 L 91 254 L 87 250 L 82 248 L 70 238 L 60 228 L 51 216 L 51 209 L 54 205 L 56 204 L 61 204 L 64 201 L 67 201 L 72 204 L 78 204 L 81 200 L 81 194 L 80 192 L 70 182 L 66 180 L 62 180 L 59 184 L 59 187 L 58 188 L 56 187 L 56 180 L 60 175 L 62 174 L 66 174 L 72 177 L 82 187 L 84 187 L 85 185 L 95 185 L 97 184 L 99 181 L 99 174 L 97 171 L 97 169 L 93 162 L 89 158 L 87 157 L 82 157 L 78 163 L 76 162 L 76 157 Z M 445 58 L 439 57 L 435 55 L 425 55 L 424 56 L 415 57 L 404 63 L 394 74 L 385 73 L 380 71 L 372 71 L 371 70 L 367 70 L 365 71 L 357 61 L 347 61 L 343 63 L 338 68 L 335 68 L 325 63 L 316 63 L 311 67 L 310 69 L 310 74 L 308 76 L 300 76 L 297 77 L 288 83 L 281 86 L 275 91 L 270 88 L 266 84 L 253 79 L 242 79 L 241 80 L 237 80 L 226 85 L 219 90 L 211 100 L 206 114 L 206 129 L 207 130 L 207 133 L 214 145 L 224 155 L 217 169 L 217 179 L 210 186 L 208 190 L 208 199 L 212 204 L 212 207 L 210 211 L 210 220 L 212 224 L 215 227 L 215 238 L 216 239 L 215 241 L 213 240 L 204 240 L 200 236 L 196 228 L 193 225 L 189 223 L 184 224 L 175 212 L 165 202 L 165 198 L 167 192 L 167 169 L 162 159 L 156 153 L 145 151 L 144 152 L 137 153 L 134 150 L 130 143 L 122 136 L 119 135 L 109 135 L 106 136 L 100 142 L 100 144 L 98 146 L 89 140 L 86 140 L 85 139 L 77 140 L 69 147 L 65 157 L 65 161 L 66 162 L 64 164 L 61 163 L 54 166 L 49 171 L 46 178 L 46 190 L 47 191 L 47 196 L 42 202 L 40 207 L 40 216 L 44 226 L 49 233 L 63 247 L 81 261 L 83 269 L 95 291 L 107 307 L 115 315 L 124 322 L 125 330 L 128 335 L 137 342 L 148 347 L 151 350 L 151 354 L 153 357 L 159 362 L 166 365 L 169 365 L 175 367 L 177 369 L 177 371 L 181 375 L 193 379 L 204 386 L 213 389 L 220 390 L 222 392 L 221 398 L 217 406 L 217 415 L 212 422 L 209 429 L 210 435 L 212 437 L 213 440 L 210 444 L 207 453 L 207 463 L 210 469 L 210 476 L 209 477 L 210 491 L 215 499 L 215 503 L 216 504 L 216 507 L 218 513 L 226 523 L 225 528 L 217 538 L 217 540 L 212 550 L 206 558 L 206 561 L 205 562 L 205 573 L 203 576 L 203 579 L 202 580 L 203 602 L 204 603 L 206 614 L 208 618 L 208 621 L 210 624 L 210 627 L 207 630 L 200 631 L 189 637 L 183 644 L 178 656 L 178 670 L 180 675 L 186 681 L 201 688 L 207 689 L 208 690 L 212 690 L 213 691 L 230 692 L 231 693 L 274 694 L 275 693 L 288 693 L 289 692 L 306 691 L 307 690 L 314 689 L 320 686 L 329 678 L 333 672 L 333 669 L 334 668 L 334 645 L 335 644 L 336 636 L 337 635 L 337 629 L 344 616 L 347 613 L 349 609 L 349 606 L 352 603 L 357 603 L 359 605 L 363 618 L 365 620 L 368 627 L 380 640 L 389 646 L 400 651 L 405 652 L 411 655 L 422 656 L 423 657 L 434 657 L 435 658 L 438 658 L 439 657 L 448 657 L 449 656 L 455 655 L 465 650 L 467 650 L 470 647 L 472 647 L 474 645 L 480 645 L 490 649 L 501 649 L 502 648 L 507 648 L 508 647 L 512 647 L 520 644 L 523 644 L 536 638 L 540 635 L 547 627 L 548 623 L 550 620 L 550 617 L 551 616 L 551 603 L 550 602 L 550 597 L 548 593 L 548 590 L 545 581 L 541 574 L 540 569 L 537 565 L 537 563 L 531 551 L 529 549 L 523 538 L 512 526 L 510 522 L 510 517 L 516 510 L 526 507 L 529 505 L 534 499 L 538 492 L 538 490 L 541 484 L 541 480 L 542 479 L 542 466 L 538 454 L 530 445 L 523 441 L 519 440 L 515 436 L 512 427 L 512 419 L 514 415 L 520 408 L 520 405 L 522 400 L 522 396 L 523 395 L 523 390 L 524 389 L 524 377 L 523 376 L 523 371 L 521 368 L 520 363 L 518 360 L 517 355 L 513 348 L 509 336 L 505 330 L 500 325 L 494 314 L 479 299 L 478 296 L 471 289 L 463 285 L 458 280 L 470 262 L 470 260 L 473 254 L 479 247 L 481 241 L 481 235 L 482 233 L 489 226 L 490 223 L 490 215 L 489 214 L 488 207 L 492 203 L 492 193 L 486 183 L 489 177 L 489 170 L 486 165 L 477 157 L 474 148 L 470 143 L 462 129 L 462 126 L 466 120 L 473 104 L 474 96 L 473 95 L 473 89 L 472 88 L 471 82 L 465 72 L 458 65 Z M 440 57 L 455 64 L 465 73 L 470 81 L 473 90 L 473 103 L 467 117 L 462 123 L 460 127 L 475 151 L 477 158 L 487 167 L 489 171 L 489 176 L 486 180 L 486 184 L 489 188 L 492 195 L 492 202 L 487 207 L 489 213 L 489 224 L 481 233 L 481 239 L 480 240 L 479 246 L 472 254 L 472 256 L 468 264 L 461 274 L 457 278 L 457 281 L 462 285 L 471 290 L 477 296 L 479 300 L 495 316 L 498 323 L 509 337 L 511 341 L 512 347 L 517 356 L 518 361 L 522 370 L 522 373 L 523 374 L 523 393 L 522 394 L 522 398 L 518 410 L 510 420 L 510 425 L 512 428 L 515 437 L 519 441 L 526 443 L 529 445 L 536 452 L 541 463 L 541 481 L 538 490 L 533 499 L 527 505 L 521 508 L 514 509 L 508 518 L 508 522 L 522 538 L 526 544 L 527 547 L 531 552 L 543 578 L 543 580 L 545 583 L 549 595 L 550 605 L 551 606 L 551 613 L 550 614 L 549 621 L 545 629 L 538 636 L 530 641 L 521 644 L 518 644 L 510 647 L 494 649 L 493 648 L 489 648 L 480 642 L 477 642 L 473 644 L 467 649 L 451 656 L 448 656 L 447 657 L 430 657 L 429 656 L 420 656 L 419 655 L 410 654 L 401 650 L 399 650 L 394 647 L 392 647 L 384 642 L 371 630 L 364 618 L 360 606 L 355 602 L 350 602 L 348 605 L 346 612 L 343 615 L 339 624 L 336 628 L 336 635 L 335 636 L 335 640 L 333 645 L 333 668 L 329 677 L 319 686 L 313 689 L 306 690 L 305 691 L 287 692 L 286 693 L 268 693 L 267 694 L 262 694 L 261 693 L 234 693 L 233 692 L 223 692 L 222 691 L 216 691 L 215 690 L 210 690 L 209 689 L 202 688 L 185 680 L 182 677 L 178 668 L 178 658 L 183 645 L 188 639 L 199 632 L 209 630 L 211 628 L 210 622 L 207 615 L 205 604 L 204 603 L 204 599 L 203 598 L 203 586 L 202 585 L 202 582 L 203 581 L 204 575 L 206 573 L 206 560 L 211 553 L 218 538 L 226 527 L 226 522 L 220 515 L 217 509 L 217 506 L 215 501 L 215 497 L 212 494 L 210 490 L 210 473 L 211 472 L 211 469 L 209 467 L 207 462 L 207 455 L 208 454 L 208 451 L 210 445 L 213 441 L 213 437 L 210 434 L 210 426 L 218 415 L 217 413 L 217 407 L 223 396 L 224 392 L 221 389 L 217 389 L 216 388 L 213 388 L 201 384 L 196 379 L 183 376 L 178 371 L 177 368 L 175 366 L 165 364 L 157 360 L 153 356 L 151 352 L 151 349 L 149 347 L 135 340 L 128 334 L 125 329 L 125 322 L 104 302 L 94 288 L 83 267 L 82 261 L 62 245 L 50 233 L 43 223 L 41 217 L 41 206 L 44 200 L 48 197 L 48 193 L 46 188 L 46 180 L 47 179 L 47 176 L 49 172 L 55 166 L 57 165 L 65 165 L 66 164 L 66 156 L 67 155 L 67 152 L 69 148 L 77 141 L 79 140 L 86 140 L 91 142 L 97 148 L 98 148 L 100 145 L 100 143 L 106 137 L 111 135 L 120 136 L 125 139 L 130 144 L 137 155 L 139 155 L 141 153 L 144 152 L 151 152 L 156 154 L 162 160 L 167 171 L 167 191 L 165 197 L 165 203 L 173 211 L 184 225 L 186 224 L 192 225 L 195 228 L 201 239 L 203 241 L 214 241 L 221 249 L 222 246 L 218 242 L 215 236 L 215 226 L 210 219 L 210 214 L 211 213 L 211 210 L 213 204 L 209 200 L 208 197 L 208 191 L 210 187 L 218 179 L 217 177 L 217 171 L 221 162 L 225 156 L 225 153 L 221 151 L 215 145 L 210 138 L 206 127 L 206 116 L 211 101 L 223 88 L 231 83 L 237 81 L 241 81 L 242 80 L 252 80 L 264 84 L 272 91 L 275 92 L 281 87 L 286 85 L 288 83 L 299 77 L 309 77 L 310 76 L 310 70 L 311 68 L 316 64 L 325 64 L 337 70 L 345 63 L 350 61 L 354 61 L 357 62 L 360 65 L 362 70 L 364 72 L 367 71 L 373 71 L 374 72 L 381 72 L 382 73 L 386 73 L 387 74 L 394 75 L 404 64 L 412 59 L 418 57 L 424 57 L 425 56 L 435 56 L 436 57 Z" fill="#B1B1B1" fill-rule="evenodd"/><path d="M 261 185 L 260 187 L 260 190 L 259 191 L 259 202 L 262 209 L 268 215 L 277 219 L 280 222 L 281 229 L 287 243 L 289 245 L 291 249 L 299 258 L 299 259 L 308 268 L 313 271 L 315 271 L 316 270 L 315 268 L 308 261 L 306 257 L 306 251 L 307 250 L 308 246 L 310 244 L 310 243 L 322 232 L 333 227 L 343 227 L 344 228 L 346 228 L 351 231 L 356 237 L 356 239 L 357 240 L 356 246 L 355 247 L 354 252 L 350 259 L 349 263 L 351 263 L 357 253 L 357 251 L 359 248 L 359 246 L 361 242 L 361 239 L 362 238 L 362 233 L 363 232 L 363 226 L 364 225 L 364 205 L 363 204 L 363 199 L 361 195 L 359 193 L 358 193 L 356 195 L 355 198 L 349 204 L 335 211 L 327 212 L 326 213 L 314 213 L 313 212 L 308 212 L 307 211 L 304 211 L 303 210 L 300 210 L 299 209 L 293 209 L 283 215 L 278 215 L 277 214 L 274 214 L 272 212 L 271 212 L 265 206 L 264 204 L 264 201 L 263 200 L 264 185 L 263 184 Z M 270 178 L 270 183 L 274 191 L 279 195 L 286 198 L 297 198 L 298 197 L 301 197 L 304 195 L 306 195 L 308 193 L 312 191 L 318 184 L 318 177 L 317 175 L 314 172 L 310 171 L 307 169 L 304 169 L 303 168 L 288 168 L 287 169 L 284 169 L 273 174 Z M 277 146 L 273 147 L 271 149 L 268 155 L 268 159 L 267 160 L 267 162 L 268 163 L 268 166 L 271 169 L 274 169 L 279 164 L 282 157 L 281 150 L 280 148 Z M 358 141 L 355 144 L 353 148 L 352 157 L 353 158 L 353 161 L 354 163 L 357 166 L 361 167 L 362 166 L 364 166 L 367 162 L 367 160 L 368 159 L 368 149 L 367 148 L 366 144 L 363 141 Z M 287 111 L 285 109 L 281 109 L 273 115 L 273 116 L 271 118 L 271 121 L 273 122 L 280 116 L 285 114 L 287 112 Z M 358 102 L 358 103 L 360 105 L 365 106 L 374 111 L 375 111 L 377 109 L 376 106 L 373 103 L 369 102 L 366 100 L 361 100 Z M 440 58 L 436 58 L 435 57 L 425 57 L 424 58 L 418 58 L 417 59 L 412 60 L 410 62 L 404 65 L 394 76 L 391 76 L 390 75 L 387 75 L 386 74 L 382 74 L 381 73 L 374 73 L 373 72 L 367 72 L 366 73 L 364 73 L 361 70 L 359 65 L 357 63 L 355 63 L 354 62 L 350 62 L 342 66 L 337 71 L 325 65 L 316 65 L 312 68 L 311 70 L 311 76 L 309 78 L 299 78 L 295 80 L 293 82 L 288 84 L 286 86 L 281 88 L 275 93 L 272 92 L 264 85 L 260 83 L 258 83 L 257 82 L 253 82 L 252 81 L 242 81 L 241 82 L 237 82 L 236 83 L 231 84 L 229 86 L 223 89 L 214 98 L 214 99 L 212 101 L 211 105 L 209 108 L 209 110 L 208 111 L 208 115 L 207 116 L 207 127 L 208 128 L 208 131 L 211 138 L 216 144 L 216 145 L 221 150 L 224 151 L 226 153 L 226 156 L 224 160 L 222 162 L 218 171 L 218 177 L 219 179 L 211 187 L 209 191 L 209 197 L 210 198 L 210 200 L 214 204 L 214 206 L 212 210 L 212 213 L 211 214 L 211 219 L 216 226 L 216 236 L 219 242 L 223 246 L 223 248 L 221 250 L 214 242 L 203 242 L 200 239 L 198 234 L 196 232 L 194 228 L 192 226 L 190 226 L 189 225 L 186 225 L 184 226 L 180 222 L 180 221 L 176 217 L 176 216 L 172 212 L 172 211 L 164 203 L 164 197 L 165 196 L 165 192 L 166 191 L 166 171 L 161 160 L 156 155 L 152 154 L 151 153 L 144 153 L 143 154 L 141 154 L 139 156 L 137 156 L 135 154 L 129 144 L 125 140 L 120 137 L 111 136 L 110 137 L 106 138 L 101 143 L 101 145 L 98 149 L 97 149 L 91 143 L 89 142 L 87 142 L 86 141 L 79 141 L 77 142 L 70 148 L 68 152 L 68 155 L 67 156 L 67 164 L 65 166 L 57 166 L 55 167 L 50 172 L 48 176 L 48 179 L 47 180 L 47 188 L 48 189 L 48 192 L 49 193 L 49 197 L 45 200 L 42 206 L 42 217 L 43 218 L 44 223 L 46 225 L 47 228 L 51 232 L 51 233 L 62 244 L 63 244 L 73 253 L 78 256 L 83 261 L 84 267 L 95 288 L 97 290 L 101 297 L 105 301 L 105 302 L 126 322 L 126 329 L 129 334 L 135 339 L 149 346 L 152 349 L 152 352 L 154 356 L 157 359 L 160 360 L 162 362 L 168 363 L 172 365 L 175 365 L 178 368 L 179 371 L 183 375 L 196 378 L 201 383 L 203 383 L 206 385 L 209 385 L 210 386 L 216 387 L 217 388 L 221 388 L 225 392 L 224 396 L 218 407 L 218 413 L 219 415 L 211 426 L 211 434 L 214 437 L 214 441 L 211 445 L 211 447 L 209 451 L 209 454 L 208 455 L 208 462 L 209 463 L 210 467 L 212 469 L 212 472 L 211 473 L 211 490 L 213 494 L 216 497 L 216 501 L 217 502 L 218 509 L 221 515 L 227 522 L 227 527 L 219 538 L 212 553 L 207 560 L 207 573 L 205 575 L 204 581 L 203 582 L 203 585 L 204 586 L 204 598 L 205 599 L 205 603 L 206 604 L 206 607 L 207 608 L 207 611 L 208 612 L 208 615 L 211 622 L 212 628 L 209 631 L 206 631 L 205 632 L 199 633 L 188 640 L 184 645 L 181 651 L 180 657 L 179 658 L 179 668 L 180 669 L 181 674 L 183 676 L 183 677 L 185 679 L 195 684 L 197 684 L 202 687 L 205 687 L 206 688 L 209 688 L 210 689 L 215 689 L 216 690 L 222 690 L 223 691 L 233 691 L 234 692 L 261 692 L 262 693 L 267 693 L 268 692 L 286 692 L 287 691 L 298 691 L 299 690 L 305 690 L 306 689 L 310 689 L 311 688 L 313 688 L 319 685 L 328 677 L 331 671 L 331 669 L 332 668 L 332 645 L 333 644 L 334 636 L 335 635 L 335 628 L 338 624 L 342 615 L 345 612 L 347 605 L 350 601 L 355 601 L 361 606 L 363 613 L 365 616 L 365 618 L 368 624 L 370 626 L 372 630 L 380 638 L 381 638 L 384 641 L 390 644 L 392 646 L 394 646 L 399 649 L 401 649 L 404 651 L 406 651 L 410 653 L 413 653 L 414 654 L 419 654 L 420 655 L 429 655 L 430 656 L 447 656 L 448 655 L 451 655 L 454 653 L 459 652 L 467 648 L 473 643 L 477 641 L 480 641 L 485 645 L 489 647 L 493 647 L 494 648 L 514 645 L 518 643 L 521 643 L 522 642 L 530 640 L 532 638 L 538 635 L 544 629 L 548 621 L 548 618 L 549 617 L 549 614 L 550 613 L 550 606 L 549 605 L 549 599 L 548 598 L 548 595 L 547 594 L 544 583 L 542 580 L 542 578 L 539 573 L 539 571 L 536 566 L 536 564 L 534 562 L 534 560 L 530 552 L 526 547 L 525 544 L 523 542 L 521 538 L 508 524 L 507 522 L 507 518 L 510 514 L 511 511 L 514 508 L 516 508 L 517 507 L 521 507 L 527 504 L 532 499 L 537 490 L 537 488 L 540 481 L 540 463 L 535 452 L 529 446 L 528 446 L 526 444 L 519 442 L 514 437 L 512 433 L 511 428 L 509 425 L 509 420 L 513 415 L 513 414 L 517 410 L 519 406 L 519 403 L 520 402 L 520 399 L 521 398 L 521 394 L 522 393 L 522 374 L 521 373 L 521 370 L 520 369 L 519 364 L 517 361 L 516 356 L 511 347 L 510 341 L 504 331 L 497 323 L 494 316 L 478 300 L 476 296 L 471 291 L 470 291 L 465 287 L 462 286 L 456 281 L 456 278 L 460 274 L 460 273 L 467 264 L 471 256 L 471 254 L 478 246 L 479 240 L 480 239 L 480 233 L 487 226 L 488 224 L 488 213 L 487 212 L 486 207 L 491 202 L 491 195 L 488 188 L 485 184 L 485 180 L 488 176 L 488 171 L 486 167 L 476 158 L 474 151 L 472 149 L 471 146 L 467 141 L 466 138 L 464 136 L 463 133 L 461 131 L 459 127 L 461 123 L 466 117 L 472 103 L 472 90 L 471 89 L 471 86 L 469 83 L 468 79 L 466 77 L 464 73 L 459 68 L 458 68 L 455 65 Z M 524 454 L 527 457 L 527 459 L 530 463 L 531 472 L 530 473 L 530 477 L 529 478 L 529 481 L 527 484 L 527 486 L 524 492 L 521 495 L 521 496 L 519 498 L 518 498 L 517 497 L 517 495 L 518 494 L 519 488 L 520 487 L 520 467 L 519 466 L 519 459 L 518 457 L 521 454 Z M 444 67 L 448 69 L 458 79 L 463 89 L 463 92 L 464 93 L 464 101 L 463 102 L 463 105 L 460 111 L 455 117 L 455 118 L 453 120 L 449 122 L 449 125 L 456 135 L 461 146 L 469 156 L 465 160 L 467 162 L 469 162 L 471 164 L 474 165 L 480 172 L 480 174 L 478 176 L 471 176 L 470 177 L 482 192 L 483 194 L 483 198 L 481 200 L 479 200 L 476 198 L 474 199 L 475 203 L 477 206 L 477 208 L 479 211 L 480 216 L 481 217 L 481 221 L 479 224 L 477 224 L 474 221 L 472 222 L 472 226 L 473 227 L 473 235 L 472 236 L 472 239 L 471 241 L 469 243 L 466 241 L 465 242 L 464 250 L 459 262 L 453 269 L 452 269 L 449 272 L 444 275 L 438 281 L 438 283 L 441 287 L 447 288 L 456 292 L 458 294 L 457 297 L 459 299 L 467 302 L 474 308 L 475 308 L 481 314 L 479 316 L 477 316 L 471 313 L 470 313 L 470 314 L 482 324 L 490 329 L 498 337 L 500 341 L 500 347 L 504 352 L 507 358 L 509 366 L 512 372 L 512 375 L 513 376 L 513 381 L 514 382 L 514 391 L 513 392 L 513 396 L 511 400 L 508 400 L 504 396 L 503 397 L 503 399 L 502 400 L 502 406 L 501 407 L 501 412 L 499 415 L 498 420 L 496 422 L 493 422 L 491 420 L 490 420 L 484 426 L 483 425 L 480 425 L 471 434 L 470 437 L 467 440 L 465 440 L 464 442 L 453 453 L 451 453 L 450 452 L 450 444 L 449 444 L 442 453 L 442 454 L 436 460 L 434 459 L 433 452 L 430 452 L 421 462 L 420 462 L 417 465 L 416 465 L 405 473 L 403 473 L 398 476 L 396 476 L 389 479 L 384 479 L 383 480 L 375 479 L 368 472 L 370 468 L 372 460 L 373 459 L 373 456 L 369 458 L 361 467 L 355 466 L 353 464 L 352 464 L 349 460 L 349 451 L 352 445 L 350 444 L 345 447 L 342 447 L 335 441 L 334 439 L 334 430 L 345 420 L 347 416 L 347 414 L 338 415 L 335 412 L 335 410 L 336 408 L 346 399 L 350 397 L 355 396 L 356 395 L 359 395 L 360 394 L 365 393 L 375 385 L 381 382 L 383 380 L 390 378 L 414 366 L 416 364 L 422 361 L 424 358 L 423 357 L 416 357 L 415 358 L 409 358 L 408 359 L 403 359 L 402 360 L 400 360 L 398 358 L 398 357 L 396 356 L 393 363 L 391 365 L 378 371 L 373 375 L 370 376 L 361 385 L 360 385 L 358 387 L 356 387 L 355 388 L 350 389 L 347 391 L 342 392 L 331 400 L 331 401 L 328 404 L 328 406 L 326 409 L 326 415 L 327 416 L 328 423 L 325 429 L 325 435 L 326 436 L 326 438 L 329 445 L 335 453 L 340 463 L 342 465 L 344 469 L 351 476 L 365 484 L 367 484 L 374 487 L 378 487 L 379 488 L 388 488 L 389 487 L 392 487 L 393 486 L 396 486 L 397 485 L 403 484 L 407 481 L 410 480 L 415 476 L 417 476 L 418 475 L 426 475 L 427 474 L 432 473 L 437 469 L 442 468 L 454 462 L 461 460 L 467 454 L 475 449 L 485 440 L 489 438 L 496 430 L 499 430 L 506 437 L 507 440 L 509 442 L 509 444 L 511 449 L 507 452 L 507 455 L 508 456 L 508 459 L 509 460 L 509 463 L 510 464 L 510 467 L 511 468 L 511 476 L 512 477 L 512 479 L 509 483 L 508 482 L 507 483 L 506 498 L 505 499 L 504 504 L 502 506 L 502 507 L 492 516 L 488 517 L 483 521 L 482 521 L 473 531 L 472 533 L 472 537 L 474 541 L 476 543 L 476 547 L 473 553 L 471 555 L 470 559 L 464 566 L 464 567 L 459 572 L 457 576 L 458 577 L 460 577 L 464 574 L 467 574 L 469 573 L 471 575 L 471 576 L 467 581 L 467 583 L 468 584 L 469 584 L 474 579 L 475 575 L 476 574 L 476 570 L 477 569 L 478 562 L 482 554 L 482 551 L 483 550 L 483 541 L 484 540 L 484 537 L 486 533 L 491 529 L 497 529 L 498 530 L 500 530 L 505 533 L 515 544 L 528 568 L 528 570 L 530 573 L 531 578 L 533 581 L 533 583 L 535 587 L 535 590 L 536 591 L 536 594 L 538 598 L 538 602 L 539 603 L 539 607 L 540 608 L 540 615 L 538 617 L 529 617 L 528 618 L 522 618 L 521 619 L 521 621 L 523 623 L 527 624 L 528 625 L 531 625 L 533 627 L 529 631 L 522 634 L 517 634 L 516 633 L 509 632 L 508 633 L 508 636 L 509 638 L 507 640 L 497 640 L 490 637 L 487 634 L 487 633 L 494 623 L 494 621 L 496 618 L 496 616 L 499 609 L 499 606 L 500 605 L 499 603 L 495 607 L 494 610 L 487 619 L 487 620 L 478 629 L 477 629 L 473 633 L 472 633 L 467 637 L 458 641 L 456 643 L 446 648 L 436 648 L 435 647 L 432 647 L 431 646 L 418 645 L 417 644 L 414 644 L 413 643 L 410 643 L 409 642 L 406 642 L 405 641 L 400 640 L 390 634 L 382 626 L 382 625 L 379 622 L 378 619 L 376 617 L 374 613 L 374 611 L 371 606 L 371 604 L 369 602 L 369 600 L 367 597 L 367 592 L 366 590 L 367 589 L 368 574 L 369 573 L 372 562 L 374 559 L 374 557 L 376 555 L 378 550 L 382 545 L 385 539 L 385 538 L 382 538 L 371 548 L 360 567 L 360 572 L 359 573 L 359 588 L 356 592 L 347 592 L 346 591 L 341 590 L 338 588 L 325 586 L 326 589 L 331 594 L 334 595 L 337 598 L 337 599 L 336 600 L 334 600 L 331 604 L 333 612 L 330 615 L 322 615 L 321 616 L 321 621 L 322 622 L 322 626 L 323 627 L 323 636 L 319 640 L 319 645 L 320 646 L 320 655 L 321 656 L 321 665 L 320 666 L 320 669 L 313 677 L 309 679 L 304 680 L 303 681 L 300 681 L 299 682 L 293 682 L 292 683 L 286 683 L 285 684 L 259 684 L 258 683 L 247 683 L 246 682 L 237 682 L 236 681 L 230 681 L 229 680 L 226 680 L 224 678 L 224 661 L 223 660 L 221 660 L 219 662 L 218 666 L 217 667 L 218 677 L 217 678 L 211 678 L 210 677 L 206 677 L 202 673 L 202 670 L 203 669 L 203 664 L 204 663 L 204 659 L 205 658 L 204 656 L 201 656 L 199 658 L 197 662 L 197 672 L 195 674 L 192 674 L 190 672 L 188 668 L 188 656 L 190 653 L 190 651 L 198 643 L 210 638 L 216 638 L 217 637 L 230 638 L 231 639 L 235 639 L 236 640 L 239 640 L 240 641 L 243 641 L 244 642 L 249 642 L 250 641 L 248 639 L 246 639 L 243 637 L 237 636 L 236 635 L 228 633 L 224 631 L 220 627 L 219 621 L 218 620 L 218 616 L 217 615 L 216 604 L 215 603 L 214 596 L 212 593 L 212 586 L 213 585 L 216 574 L 218 572 L 220 568 L 220 566 L 216 563 L 216 559 L 217 557 L 225 549 L 225 543 L 227 539 L 232 534 L 235 533 L 245 538 L 247 538 L 248 539 L 255 539 L 259 542 L 262 542 L 256 536 L 254 536 L 248 530 L 241 527 L 238 524 L 235 518 L 235 515 L 234 514 L 234 506 L 232 505 L 231 507 L 229 509 L 228 509 L 225 505 L 225 497 L 226 496 L 226 488 L 227 487 L 227 482 L 226 481 L 221 486 L 220 486 L 218 484 L 218 482 L 217 481 L 221 467 L 224 461 L 224 458 L 222 458 L 220 460 L 219 460 L 217 458 L 217 452 L 221 444 L 228 434 L 227 432 L 221 433 L 219 431 L 219 428 L 221 424 L 229 416 L 231 412 L 230 411 L 227 411 L 225 409 L 225 407 L 233 396 L 234 388 L 236 384 L 235 382 L 235 376 L 239 367 L 239 357 L 241 354 L 243 347 L 242 346 L 240 346 L 236 353 L 236 355 L 232 363 L 230 365 L 230 367 L 227 374 L 227 378 L 224 381 L 217 381 L 216 380 L 212 380 L 209 377 L 209 375 L 206 373 L 199 373 L 198 372 L 190 371 L 186 368 L 186 367 L 190 364 L 189 362 L 187 361 L 179 360 L 178 359 L 175 359 L 174 358 L 168 357 L 165 355 L 163 355 L 159 351 L 159 350 L 161 348 L 165 348 L 166 346 L 162 343 L 156 342 L 153 340 L 151 340 L 143 336 L 135 329 L 135 328 L 137 326 L 142 326 L 143 325 L 133 316 L 125 311 L 110 295 L 110 294 L 107 291 L 107 290 L 99 279 L 97 275 L 97 273 L 93 266 L 93 264 L 90 259 L 89 255 L 86 252 L 80 249 L 70 240 L 69 240 L 56 227 L 56 226 L 53 223 L 49 214 L 49 209 L 54 203 L 57 203 L 61 201 L 55 190 L 55 187 L 54 186 L 54 181 L 55 180 L 55 178 L 60 173 L 62 172 L 65 172 L 72 175 L 77 180 L 78 180 L 81 184 L 82 183 L 77 174 L 77 172 L 75 168 L 74 158 L 77 152 L 79 150 L 83 148 L 85 148 L 92 151 L 99 158 L 100 161 L 102 163 L 102 165 L 105 171 L 106 171 L 106 155 L 107 154 L 107 150 L 109 146 L 111 144 L 113 144 L 114 143 L 120 145 L 125 150 L 130 160 L 132 168 L 134 170 L 135 170 L 137 168 L 139 164 L 142 161 L 144 160 L 150 160 L 157 168 L 158 170 L 158 173 L 159 174 L 159 188 L 158 189 L 158 194 L 157 195 L 157 198 L 155 201 L 155 203 L 157 207 L 163 212 L 163 213 L 167 217 L 170 222 L 174 226 L 179 234 L 183 238 L 184 238 L 188 233 L 192 237 L 195 243 L 197 245 L 199 250 L 201 252 L 202 255 L 205 258 L 207 257 L 208 251 L 209 250 L 212 250 L 216 254 L 223 268 L 225 265 L 225 263 L 226 262 L 228 262 L 233 267 L 237 275 L 239 277 L 240 277 L 241 273 L 242 272 L 244 272 L 252 280 L 257 290 L 261 294 L 263 294 L 265 292 L 265 288 L 262 282 L 259 279 L 255 272 L 249 266 L 246 265 L 244 263 L 243 259 L 242 258 L 239 262 L 238 262 L 236 260 L 231 249 L 231 237 L 229 237 L 227 239 L 226 239 L 223 236 L 223 234 L 222 233 L 222 231 L 223 230 L 223 224 L 224 223 L 224 218 L 220 219 L 218 217 L 219 209 L 221 206 L 221 204 L 224 198 L 223 197 L 222 198 L 217 199 L 215 197 L 215 193 L 227 179 L 226 177 L 226 169 L 231 159 L 231 157 L 234 152 L 234 148 L 233 147 L 230 147 L 228 145 L 227 145 L 221 139 L 220 136 L 218 134 L 216 130 L 216 127 L 215 126 L 215 118 L 216 117 L 216 113 L 217 112 L 218 107 L 223 99 L 226 96 L 227 96 L 230 93 L 233 92 L 235 90 L 241 89 L 242 88 L 253 88 L 262 92 L 269 99 L 270 102 L 272 103 L 277 98 L 291 91 L 296 90 L 297 89 L 297 86 L 299 84 L 301 84 L 302 83 L 317 83 L 318 82 L 317 73 L 319 71 L 323 71 L 329 74 L 334 78 L 338 79 L 346 70 L 348 70 L 349 69 L 353 69 L 355 71 L 355 74 L 353 78 L 354 79 L 361 79 L 362 78 L 377 79 L 378 80 L 382 80 L 383 81 L 386 81 L 390 83 L 393 83 L 396 85 L 399 85 L 403 77 L 411 69 L 417 66 L 423 65 L 424 64 L 435 64 L 436 65 L 439 65 L 442 67 Z" fill="#010101" fill-rule="evenodd"/></svg>