<svg xmlns="http://www.w3.org/2000/svg" viewBox="0 0 653 704" shape-rendering="geometricPrecision"><title>intro frame 100</title><path d="M 469 512 L 465 514 L 457 521 L 453 521 L 445 530 L 443 530 L 440 528 L 432 538 L 430 536 L 428 536 L 420 546 L 416 544 L 411 550 L 404 556 L 400 564 L 393 573 L 389 582 L 388 590 L 389 590 L 392 594 L 391 597 L 391 608 L 394 608 L 396 611 L 395 628 L 396 629 L 399 627 L 402 630 L 402 642 L 403 645 L 402 646 L 402 650 L 400 656 L 400 667 L 402 671 L 406 675 L 408 675 L 411 677 L 414 677 L 417 679 L 426 680 L 427 681 L 435 681 L 436 680 L 436 664 L 440 659 L 444 659 L 448 663 L 448 666 L 449 667 L 449 681 L 450 682 L 467 682 L 469 680 L 467 663 L 468 660 L 470 658 L 475 658 L 479 662 L 482 670 L 482 679 L 483 680 L 491 680 L 495 678 L 495 668 L 494 667 L 493 659 L 497 655 L 499 655 L 505 661 L 506 665 L 508 668 L 508 675 L 509 676 L 511 675 L 515 670 L 516 663 L 515 662 L 515 656 L 514 653 L 506 644 L 496 639 L 491 639 L 490 638 L 488 638 L 485 640 L 477 640 L 476 639 L 458 639 L 457 640 L 451 640 L 450 641 L 436 640 L 433 642 L 431 642 L 429 640 L 431 638 L 436 637 L 442 634 L 443 635 L 444 634 L 451 634 L 452 633 L 466 632 L 467 631 L 470 631 L 471 632 L 480 632 L 482 633 L 481 622 L 483 618 L 483 615 L 485 613 L 489 616 L 490 618 L 490 622 L 492 621 L 492 618 L 489 615 L 485 607 L 485 605 L 483 603 L 485 600 L 489 605 L 491 605 L 493 603 L 492 600 L 485 595 L 481 594 L 473 588 L 464 579 L 466 577 L 469 577 L 481 583 L 487 583 L 487 581 L 484 576 L 475 567 L 473 563 L 476 561 L 488 568 L 488 565 L 486 562 L 486 560 L 483 555 L 470 548 L 471 546 L 479 546 L 480 547 L 483 547 L 483 544 L 480 542 L 476 537 L 478 535 L 485 537 L 485 535 L 477 527 L 474 518 Z M 444 582 L 452 591 L 456 600 L 454 602 L 453 602 L 443 591 L 442 589 L 442 584 Z M 435 579 L 436 580 L 436 588 L 435 591 L 432 594 L 430 592 L 430 588 L 433 580 Z M 410 562 L 411 564 L 408 572 L 405 575 L 403 575 L 402 574 L 402 570 L 404 566 L 408 562 Z M 229 508 L 222 519 L 223 520 L 226 519 L 228 521 L 228 524 L 225 529 L 224 534 L 222 536 L 222 539 L 226 538 L 228 540 L 228 544 L 224 553 L 221 567 L 226 566 L 228 568 L 228 572 L 227 573 L 226 580 L 229 583 L 229 591 L 228 593 L 230 596 L 230 601 L 231 602 L 232 611 L 235 620 L 238 624 L 248 625 L 254 628 L 256 628 L 258 630 L 258 632 L 256 634 L 252 634 L 251 633 L 243 632 L 242 631 L 225 631 L 210 636 L 205 640 L 201 649 L 201 655 L 200 656 L 201 662 L 205 665 L 205 659 L 206 658 L 207 652 L 212 646 L 214 645 L 218 645 L 220 647 L 220 653 L 218 657 L 218 662 L 217 663 L 217 668 L 218 669 L 227 671 L 229 669 L 229 661 L 231 658 L 232 654 L 237 650 L 241 650 L 244 653 L 244 657 L 242 661 L 242 666 L 241 667 L 241 671 L 244 673 L 273 672 L 276 668 L 283 665 L 286 662 L 288 662 L 294 656 L 294 650 L 293 647 L 290 645 L 287 641 L 287 634 L 290 633 L 291 635 L 292 635 L 293 631 L 296 628 L 296 626 L 293 621 L 293 618 L 297 613 L 296 612 L 295 606 L 285 594 L 285 588 L 287 586 L 294 594 L 295 592 L 292 589 L 292 587 L 296 583 L 291 577 L 289 577 L 287 575 L 284 570 L 276 562 L 274 558 L 271 555 L 271 553 L 268 550 L 263 542 L 261 540 L 258 539 L 252 533 L 250 528 L 244 522 L 237 518 Z M 258 581 L 260 584 L 257 588 L 254 584 Z M 267 575 L 270 578 L 274 586 L 274 589 L 272 591 L 268 587 L 265 581 L 265 577 Z M 281 571 L 283 576 L 282 577 L 282 582 L 279 584 L 278 583 L 278 575 L 279 572 Z M 249 567 L 250 568 L 249 571 L 243 577 L 241 577 L 240 574 L 247 567 Z M 464 424 L 463 425 L 469 430 L 470 429 Z M 55 172 L 53 175 L 54 178 L 55 178 L 56 176 L 56 173 Z M 152 120 L 150 118 L 145 118 L 141 121 L 139 124 L 139 126 L 145 119 L 148 119 L 150 121 L 152 121 Z M 73 119 L 75 119 L 78 116 L 82 116 L 84 117 L 84 116 L 82 114 L 76 114 L 73 116 Z M 446 15 L 433 14 L 422 18 L 413 26 L 410 31 L 409 37 L 407 39 L 404 39 L 394 35 L 389 35 L 383 33 L 364 33 L 363 34 L 357 34 L 355 32 L 356 30 L 356 26 L 357 25 L 356 23 L 344 34 L 330 27 L 327 27 L 327 29 L 329 31 L 330 36 L 326 39 L 311 39 L 308 40 L 304 45 L 301 45 L 292 49 L 282 57 L 278 57 L 276 55 L 275 52 L 270 47 L 261 43 L 250 43 L 244 45 L 235 51 L 230 57 L 226 66 L 226 71 L 225 72 L 226 75 L 226 81 L 230 89 L 239 97 L 245 98 L 247 100 L 246 107 L 244 109 L 244 111 L 238 124 L 238 129 L 240 133 L 229 146 L 229 148 L 235 147 L 238 150 L 231 165 L 231 168 L 236 167 L 238 169 L 235 189 L 237 190 L 240 187 L 243 189 L 244 191 L 243 193 L 243 204 L 246 211 L 248 211 L 248 209 L 251 207 L 254 210 L 255 215 L 257 218 L 262 220 L 264 223 L 273 231 L 276 232 L 278 234 L 285 236 L 294 246 L 294 248 L 291 251 L 285 246 L 280 244 L 277 244 L 277 248 L 275 250 L 271 251 L 266 246 L 262 239 L 255 232 L 253 232 L 253 236 L 250 238 L 245 233 L 237 221 L 235 221 L 235 225 L 233 227 L 231 227 L 225 221 L 224 218 L 217 209 L 216 210 L 216 215 L 214 217 L 212 217 L 206 211 L 196 195 L 194 194 L 192 197 L 188 196 L 170 177 L 164 168 L 156 161 L 155 159 L 155 155 L 158 147 L 158 134 L 157 134 L 157 137 L 155 143 L 148 150 L 146 151 L 139 149 L 134 143 L 134 135 L 135 134 L 135 131 L 132 132 L 130 130 L 128 124 L 126 122 L 125 119 L 126 126 L 127 127 L 127 132 L 125 136 L 122 138 L 117 138 L 111 135 L 105 137 L 102 133 L 100 132 L 101 134 L 101 140 L 100 142 L 96 146 L 92 148 L 88 148 L 85 150 L 81 149 L 76 144 L 73 143 L 71 141 L 70 142 L 82 153 L 83 155 L 83 162 L 82 164 L 77 168 L 73 169 L 72 168 L 68 168 L 66 167 L 62 169 L 62 170 L 73 170 L 76 172 L 80 177 L 80 183 L 73 194 L 77 197 L 77 199 L 81 203 L 93 209 L 96 212 L 96 214 L 104 228 L 110 233 L 129 253 L 144 265 L 149 267 L 154 271 L 162 275 L 171 278 L 174 278 L 175 279 L 180 279 L 181 280 L 187 281 L 191 286 L 188 289 L 184 290 L 183 291 L 184 293 L 202 293 L 204 295 L 211 298 L 221 298 L 225 301 L 225 303 L 222 306 L 220 306 L 216 308 L 216 309 L 220 311 L 229 311 L 230 312 L 235 312 L 238 309 L 238 307 L 240 305 L 241 302 L 247 296 L 251 294 L 253 294 L 255 296 L 254 302 L 245 321 L 245 326 L 242 335 L 245 334 L 251 328 L 259 323 L 262 323 L 263 324 L 263 327 L 251 344 L 244 350 L 237 354 L 229 366 L 229 367 L 234 367 L 236 369 L 236 371 L 221 390 L 222 391 L 227 390 L 229 392 L 229 396 L 224 403 L 215 422 L 217 422 L 221 420 L 223 422 L 223 428 L 221 431 L 218 440 L 216 451 L 221 447 L 223 448 L 222 472 L 225 470 L 228 473 L 228 481 L 231 490 L 232 490 L 234 487 L 237 490 L 239 497 L 242 495 L 245 497 L 250 510 L 252 510 L 252 509 L 255 507 L 258 510 L 259 513 L 264 520 L 267 518 L 278 529 L 278 527 L 280 525 L 282 525 L 292 536 L 295 533 L 301 539 L 302 539 L 302 538 L 293 525 L 290 519 L 290 516 L 288 512 L 288 506 L 290 504 L 292 506 L 294 513 L 304 527 L 316 538 L 318 538 L 323 532 L 325 532 L 327 534 L 327 536 L 330 537 L 345 524 L 347 524 L 348 527 L 344 535 L 343 542 L 345 543 L 350 538 L 358 533 L 362 529 L 364 529 L 366 531 L 366 534 L 362 541 L 362 543 L 365 543 L 369 541 L 375 535 L 381 525 L 387 519 L 389 521 L 389 525 L 386 534 L 387 534 L 387 532 L 389 529 L 389 527 L 393 518 L 393 515 L 395 512 L 397 512 L 399 514 L 399 528 L 396 535 L 397 535 L 402 531 L 409 522 L 416 508 L 416 506 L 418 504 L 423 508 L 422 515 L 418 524 L 420 524 L 426 518 L 431 511 L 431 509 L 434 504 L 437 494 L 439 492 L 441 495 L 441 508 L 442 508 L 446 503 L 450 495 L 451 490 L 456 484 L 458 486 L 458 490 L 459 490 L 461 484 L 461 481 L 463 478 L 463 474 L 464 473 L 463 463 L 465 461 L 466 458 L 466 453 L 462 446 L 465 442 L 469 443 L 469 441 L 468 440 L 468 437 L 461 428 L 461 426 L 459 424 L 459 422 L 456 419 L 454 414 L 456 413 L 463 419 L 466 418 L 467 414 L 463 408 L 456 404 L 449 404 L 447 403 L 444 400 L 444 398 L 446 396 L 448 396 L 449 397 L 455 397 L 458 398 L 464 402 L 465 401 L 462 396 L 462 394 L 458 388 L 458 386 L 454 381 L 455 378 L 459 379 L 458 376 L 450 369 L 443 360 L 443 359 L 445 358 L 448 361 L 451 362 L 453 364 L 455 364 L 456 363 L 454 357 L 450 353 L 446 351 L 433 349 L 429 345 L 431 342 L 436 342 L 447 347 L 449 349 L 451 348 L 449 345 L 448 341 L 443 335 L 443 333 L 445 331 L 449 332 L 447 326 L 447 323 L 448 322 L 452 325 L 453 328 L 459 335 L 461 341 L 468 351 L 474 364 L 476 366 L 477 371 L 479 374 L 480 379 L 482 382 L 486 394 L 486 398 L 490 410 L 490 414 L 491 415 L 491 419 L 492 420 L 492 424 L 493 425 L 493 429 L 495 435 L 495 443 L 493 446 L 491 452 L 491 455 L 490 456 L 490 472 L 494 479 L 497 481 L 502 481 L 505 478 L 508 469 L 512 465 L 514 465 L 517 468 L 518 476 L 514 488 L 511 492 L 511 495 L 517 500 L 525 500 L 531 493 L 532 489 L 534 487 L 535 484 L 540 480 L 544 484 L 544 491 L 540 501 L 541 502 L 546 502 L 553 497 L 559 482 L 563 478 L 567 481 L 568 484 L 568 490 L 569 491 L 575 483 L 575 481 L 579 472 L 579 467 L 581 461 L 581 444 L 580 443 L 580 437 L 578 432 L 580 430 L 582 430 L 582 427 L 579 420 L 578 412 L 571 399 L 573 396 L 577 397 L 577 396 L 565 377 L 562 374 L 564 371 L 570 372 L 560 358 L 550 347 L 552 344 L 555 344 L 558 346 L 561 346 L 561 345 L 542 327 L 531 318 L 533 316 L 541 316 L 542 317 L 542 315 L 534 308 L 530 306 L 524 301 L 522 301 L 518 297 L 518 295 L 520 293 L 523 292 L 523 291 L 507 283 L 504 280 L 507 276 L 509 277 L 514 277 L 514 276 L 498 265 L 492 262 L 490 262 L 486 258 L 486 256 L 488 254 L 492 254 L 492 253 L 488 252 L 483 249 L 481 249 L 476 246 L 473 246 L 471 244 L 468 244 L 464 242 L 455 242 L 451 245 L 447 250 L 445 250 L 442 247 L 437 247 L 436 246 L 431 246 L 430 247 L 424 246 L 422 248 L 416 248 L 414 246 L 414 243 L 413 242 L 403 254 L 400 252 L 400 248 L 403 242 L 412 234 L 415 234 L 418 229 L 422 225 L 424 226 L 425 228 L 425 232 L 427 231 L 427 224 L 429 220 L 432 219 L 435 223 L 437 219 L 436 211 L 439 210 L 443 213 L 444 211 L 444 206 L 446 205 L 449 201 L 451 202 L 453 201 L 451 197 L 445 191 L 446 189 L 449 189 L 457 193 L 459 192 L 458 188 L 454 182 L 456 180 L 460 180 L 462 182 L 464 182 L 465 181 L 465 176 L 459 172 L 461 170 L 467 170 L 466 166 L 458 158 L 460 155 L 467 157 L 470 159 L 476 165 L 477 165 L 480 169 L 481 168 L 485 168 L 487 170 L 488 169 L 486 163 L 480 152 L 480 149 L 482 147 L 486 147 L 487 148 L 490 147 L 488 143 L 475 129 L 475 127 L 478 124 L 480 125 L 486 125 L 487 124 L 483 120 L 476 116 L 471 111 L 475 105 L 472 102 L 461 82 L 454 74 L 454 72 L 457 69 L 460 68 L 466 62 L 470 55 L 470 52 L 471 51 L 470 37 L 469 34 L 462 25 L 453 18 L 451 18 Z M 285 512 L 288 518 L 287 520 L 283 517 L 283 513 Z M 265 498 L 267 500 L 267 503 L 268 504 L 267 507 L 263 504 L 263 500 Z M 427 494 L 430 496 L 428 501 L 426 500 L 426 495 Z M 407 487 L 411 490 L 412 492 L 412 496 L 413 497 L 413 504 L 410 507 L 408 506 L 409 494 L 406 490 Z M 269 487 L 271 489 L 274 495 L 274 497 L 279 506 L 279 512 L 277 514 L 272 510 L 270 506 L 270 503 L 268 499 L 268 494 L 267 493 L 267 489 Z M 271 463 L 273 465 L 273 467 L 271 471 L 271 474 L 269 476 L 267 474 L 267 471 L 268 470 L 268 467 Z M 435 453 L 438 455 L 439 458 L 441 460 L 448 478 L 448 480 L 445 483 L 442 481 L 441 482 L 441 484 L 439 487 L 439 490 L 437 492 L 428 489 L 428 478 L 424 472 L 424 471 L 427 469 L 433 476 L 435 476 L 435 463 L 433 458 L 433 455 Z M 257 440 L 259 442 L 258 450 L 255 456 L 253 464 L 251 466 L 249 466 L 247 462 L 248 460 L 248 455 L 251 449 L 251 447 Z M 410 423 L 412 421 L 414 421 L 418 424 L 421 423 L 428 423 L 431 425 L 431 427 L 430 428 L 426 428 L 423 430 L 424 431 L 423 433 L 419 433 Z M 257 417 L 258 419 L 251 428 L 250 432 L 247 435 L 246 434 L 243 434 L 242 431 L 246 423 L 251 418 L 253 417 Z M 427 400 L 432 404 L 434 404 L 436 406 L 440 407 L 448 415 L 446 418 L 443 417 L 438 417 L 437 418 L 440 423 L 438 426 L 437 426 L 433 421 L 433 418 L 431 415 L 431 411 L 425 402 Z M 420 392 L 421 391 L 427 391 L 430 395 L 428 397 L 423 397 L 420 394 Z M 394 393 L 396 391 L 399 392 L 397 394 Z M 432 386 L 434 384 L 437 384 L 442 391 L 440 393 L 436 392 L 432 388 Z M 434 371 L 436 369 L 442 369 L 444 370 L 447 373 L 446 378 L 444 380 L 440 381 L 434 373 Z M 383 369 L 384 368 L 388 368 L 402 378 L 406 378 L 407 379 L 407 384 L 405 386 L 403 386 L 395 378 L 392 377 L 389 374 L 385 373 L 383 371 Z M 486 367 L 488 366 L 490 369 L 487 370 Z M 409 363 L 418 370 L 418 373 L 416 375 L 412 375 L 410 376 L 407 373 L 407 367 Z M 532 355 L 534 353 L 540 356 L 541 359 L 540 360 L 534 358 Z M 420 348 L 422 347 L 424 349 L 424 351 L 422 352 L 420 350 Z M 422 325 L 423 324 L 427 324 L 431 327 L 434 327 L 437 330 L 437 332 L 435 333 L 431 329 L 425 328 L 423 327 Z M 427 311 L 429 311 L 431 313 L 435 320 L 435 322 L 433 324 L 428 318 L 428 316 L 426 313 Z M 372 309 L 375 313 L 375 316 L 373 318 L 370 315 L 370 310 Z M 376 309 L 378 308 L 386 315 L 388 314 L 388 310 L 390 309 L 392 312 L 391 317 L 389 319 L 382 318 L 376 313 Z M 322 307 L 317 311 L 314 311 L 313 309 L 318 305 L 320 305 Z M 431 297 L 436 301 L 436 304 L 435 305 L 433 305 L 430 302 L 429 299 Z M 381 292 L 385 295 L 385 297 L 389 305 L 388 307 L 387 307 L 386 305 L 379 299 L 379 294 Z M 310 290 L 312 292 L 310 296 L 304 301 L 303 300 L 303 297 L 305 294 Z M 419 287 L 420 288 L 419 297 L 420 298 L 420 301 L 422 303 L 423 309 L 416 317 L 413 318 L 411 316 L 411 314 L 413 312 L 418 310 L 418 302 L 414 297 L 414 295 L 416 293 L 416 288 Z M 257 273 L 258 275 L 254 279 L 257 282 L 254 286 L 249 289 L 247 287 L 249 283 L 249 279 L 254 273 Z M 257 265 L 257 263 L 259 261 L 265 261 L 267 263 L 267 264 L 263 267 L 260 267 Z M 417 261 L 412 265 L 410 265 L 408 263 L 413 259 L 416 259 Z M 260 254 L 263 251 L 266 251 L 268 253 L 268 255 L 266 257 L 262 256 Z M 397 244 L 396 248 L 390 256 L 380 265 L 363 277 L 358 277 L 355 279 L 346 279 L 344 277 L 335 273 L 324 265 L 315 255 L 315 253 L 319 249 L 322 250 L 328 250 L 329 251 L 335 251 L 336 252 L 350 252 L 351 251 L 356 251 L 357 250 L 362 250 L 367 248 L 375 247 L 388 242 L 395 242 Z M 129 145 L 136 151 L 141 158 L 141 161 L 142 162 L 142 170 L 139 177 L 128 188 L 121 192 L 118 195 L 107 201 L 96 202 L 87 197 L 82 191 L 82 188 L 81 187 L 81 177 L 90 157 L 100 147 L 110 142 L 118 141 Z M 382 127 L 386 122 L 393 118 L 396 118 L 397 117 L 415 117 L 416 118 L 420 118 L 426 121 L 432 127 L 434 131 L 434 135 L 433 138 L 426 145 L 420 147 L 405 147 L 404 146 L 401 146 L 395 144 L 387 139 L 382 133 Z M 304 111 L 308 107 L 314 104 L 327 103 L 328 104 L 334 105 L 340 110 L 340 113 L 338 115 L 328 113 L 327 112 L 315 112 L 310 114 L 306 114 Z M 285 98 L 291 98 L 296 104 L 296 109 L 297 111 L 296 112 L 296 116 L 293 121 L 303 120 L 304 119 L 314 119 L 328 124 L 334 131 L 334 137 L 332 142 L 329 146 L 323 151 L 313 156 L 310 156 L 309 157 L 299 157 L 290 153 L 282 145 L 281 142 L 280 142 L 279 156 L 280 159 L 287 166 L 290 167 L 296 167 L 300 165 L 303 162 L 306 161 L 311 161 L 312 162 L 316 162 L 322 164 L 328 164 L 329 165 L 338 165 L 342 163 L 345 163 L 351 161 L 360 156 L 364 152 L 366 147 L 369 144 L 373 144 L 379 151 L 379 154 L 380 155 L 380 165 L 381 166 L 381 181 L 380 182 L 380 188 L 378 192 L 378 195 L 377 196 L 377 199 L 375 205 L 367 219 L 359 226 L 349 232 L 346 232 L 345 233 L 333 233 L 330 231 L 328 231 L 318 225 L 308 215 L 296 198 L 291 187 L 289 178 L 287 176 L 281 174 L 271 164 L 268 156 L 268 149 L 267 149 L 261 156 L 255 160 L 249 160 L 246 159 L 240 153 L 240 146 L 241 143 L 249 135 L 258 131 L 265 131 L 269 133 L 272 137 L 279 137 L 279 133 L 282 127 L 278 123 L 276 115 L 277 114 L 277 110 L 279 104 Z M 370 90 L 375 90 L 377 91 L 382 96 L 384 100 L 384 104 L 385 105 L 384 114 L 383 117 L 377 123 L 370 123 L 368 122 L 364 118 L 362 114 L 362 100 L 363 97 Z M 298 59 L 302 64 L 301 67 L 298 70 L 292 72 L 283 79 L 280 78 L 278 76 L 277 72 L 279 68 L 285 62 L 290 59 Z M 258 57 L 262 59 L 269 66 L 269 68 L 266 71 L 254 89 L 252 91 L 249 91 L 239 82 L 238 80 L 238 70 L 241 64 L 246 59 L 252 57 Z M 361 54 L 366 48 L 376 48 L 382 51 L 388 57 L 389 61 L 385 66 L 381 66 L 376 62 L 364 59 L 361 56 Z M 432 31 L 438 29 L 446 31 L 456 40 L 458 44 L 458 49 L 459 51 L 455 59 L 450 64 L 445 65 L 442 63 L 437 57 L 429 51 L 427 51 L 422 46 L 424 39 Z" fill="#FBFBFB" fill-rule="evenodd"/><path d="M 219 651 L 216 660 L 216 669 L 217 670 L 224 671 L 225 672 L 229 672 L 230 671 L 230 662 L 233 655 L 237 651 L 241 651 L 243 653 L 243 656 L 241 661 L 241 666 L 241 661 L 243 657 L 243 653 L 241 651 L 237 651 L 233 654 L 232 658 L 230 661 L 230 669 L 227 672 L 218 670 L 216 668 L 216 663 L 217 662 L 217 657 Z M 219 614 L 219 618 L 217 620 L 208 622 L 199 628 L 194 633 L 190 639 L 190 641 L 187 646 L 186 659 L 189 668 L 194 674 L 204 679 L 206 679 L 199 677 L 189 668 L 187 663 L 187 659 L 186 658 L 187 647 L 192 636 L 195 632 L 207 623 L 215 620 L 218 620 L 219 619 Z M 390 599 L 390 610 L 391 611 L 392 610 L 395 611 L 395 615 L 394 616 L 394 629 L 395 631 L 398 629 L 401 631 L 401 640 L 401 630 L 399 628 L 396 630 L 394 628 L 395 611 L 394 609 L 391 609 L 390 608 Z M 444 583 L 443 584 L 443 589 L 446 594 L 453 601 L 455 600 L 451 591 Z M 258 582 L 255 584 L 257 587 L 259 584 Z M 435 580 L 434 580 L 431 588 L 431 592 L 432 593 L 434 591 L 435 588 Z M 267 576 L 266 577 L 267 584 L 272 590 L 273 589 L 273 586 L 269 578 Z M 281 572 L 280 572 L 279 575 L 279 583 L 281 582 L 281 577 L 282 576 L 281 575 Z M 249 568 L 247 568 L 241 574 L 241 576 L 243 576 L 248 571 Z M 410 563 L 408 563 L 405 566 L 403 570 L 403 574 L 405 574 L 407 572 Z M 284 513 L 284 517 L 287 519 L 285 513 Z M 265 499 L 264 500 L 264 504 L 267 506 L 266 500 Z M 407 488 L 407 490 L 410 494 L 410 498 L 409 499 L 409 506 L 410 506 L 412 504 L 412 497 L 411 496 L 411 492 L 410 490 Z M 269 488 L 268 489 L 268 493 L 269 494 L 269 499 L 271 503 L 271 506 L 273 510 L 277 513 L 278 512 L 278 506 Z M 271 495 L 273 496 L 277 505 L 277 507 L 275 509 L 273 507 L 270 500 L 270 496 Z M 509 494 L 513 499 L 517 501 L 525 501 L 530 497 L 536 485 L 539 482 L 541 482 L 543 484 L 543 491 L 542 492 L 542 495 L 538 502 L 540 504 L 547 503 L 551 501 L 554 498 L 558 490 L 559 485 L 563 480 L 564 480 L 567 484 L 567 489 L 565 494 L 566 495 L 575 485 L 579 473 L 576 483 L 574 485 L 573 488 L 569 492 L 567 490 L 567 484 L 566 481 L 563 479 L 560 482 L 554 497 L 546 503 L 541 503 L 539 501 L 543 491 L 543 484 L 540 481 L 536 484 L 535 487 L 533 489 L 532 493 L 525 501 L 517 501 L 510 495 L 510 492 L 513 488 L 517 476 L 516 468 L 514 466 L 512 466 L 509 469 L 508 472 L 509 469 L 513 466 L 517 471 L 517 476 L 516 477 L 515 483 Z M 271 464 L 269 467 L 269 470 L 268 471 L 268 474 L 269 475 L 272 467 Z M 435 454 L 434 455 L 434 458 L 436 463 L 436 476 L 433 477 L 427 470 L 426 470 L 425 472 L 429 478 L 429 489 L 432 489 L 437 491 L 440 482 L 442 480 L 445 482 L 447 480 L 447 478 L 444 469 L 442 466 L 442 464 L 437 455 Z M 436 458 L 439 460 L 441 464 L 442 470 L 443 471 L 441 473 L 437 470 L 437 465 L 435 459 Z M 257 441 L 252 447 L 252 449 L 250 452 L 249 460 L 248 461 L 249 465 L 252 464 L 254 456 L 256 453 L 257 447 L 258 446 L 258 442 Z M 254 449 L 255 451 L 254 454 L 252 455 L 251 453 L 252 450 Z M 411 423 L 419 432 L 423 432 L 422 430 L 426 427 L 430 427 L 430 425 L 428 424 L 421 424 L 418 425 L 414 422 Z M 257 418 L 253 418 L 247 423 L 243 431 L 243 433 L 246 433 L 247 434 L 249 432 L 250 428 Z M 579 413 L 580 420 L 583 427 L 583 430 L 579 432 L 580 436 L 580 434 L 582 432 L 583 433 L 584 431 L 580 420 Z M 427 401 L 426 402 L 432 411 L 432 415 L 434 418 L 434 421 L 435 423 L 438 425 L 439 423 L 436 418 L 438 416 L 446 417 L 447 415 L 440 408 L 438 408 L 434 405 L 432 405 Z M 421 392 L 421 394 L 423 396 L 428 396 L 429 395 L 427 392 Z M 434 385 L 433 388 L 436 391 L 440 392 L 441 390 L 437 385 Z M 436 370 L 435 373 L 440 380 L 444 379 L 446 373 L 442 370 Z M 384 369 L 385 372 L 387 372 L 392 376 L 395 377 L 403 385 L 406 384 L 406 379 L 402 379 L 388 369 Z M 409 364 L 408 367 L 408 373 L 410 375 L 412 374 L 416 374 L 417 373 L 417 370 Z M 533 355 L 534 357 L 540 359 L 540 357 L 534 354 Z M 552 345 L 551 347 L 557 353 L 571 372 L 570 373 L 564 372 L 563 374 L 566 377 L 578 396 L 577 398 L 575 397 L 572 398 L 575 405 L 577 407 L 578 411 L 577 407 L 573 400 L 575 398 L 578 400 L 579 398 L 571 384 L 565 376 L 566 373 L 572 375 L 573 374 L 567 367 L 562 359 L 553 349 L 553 346 L 554 345 L 557 346 Z M 423 325 L 423 326 L 425 327 L 431 328 L 436 332 L 436 330 L 434 328 L 431 328 L 427 325 Z M 449 323 L 448 323 L 448 326 L 450 332 L 449 333 L 445 332 L 444 335 L 449 341 L 450 345 L 452 348 L 449 350 L 447 348 L 436 343 L 431 343 L 430 345 L 433 348 L 436 349 L 442 349 L 450 352 L 456 359 L 456 362 L 457 363 L 455 365 L 453 365 L 445 359 L 444 359 L 444 360 L 451 369 L 459 376 L 460 379 L 459 380 L 455 379 L 455 381 L 459 386 L 459 388 L 463 394 L 463 396 L 466 401 L 464 403 L 458 399 L 455 398 L 449 398 L 448 397 L 446 397 L 445 400 L 449 403 L 456 403 L 463 407 L 466 410 L 468 416 L 465 420 L 463 420 L 456 414 L 455 414 L 457 419 L 460 422 L 462 428 L 469 437 L 470 443 L 469 444 L 465 443 L 463 446 L 466 450 L 467 458 L 466 461 L 464 463 L 465 473 L 464 474 L 464 478 L 462 481 L 462 484 L 460 490 L 459 491 L 457 490 L 457 486 L 456 485 L 454 487 L 447 503 L 442 509 L 440 508 L 440 495 L 439 493 L 436 499 L 435 504 L 432 509 L 432 511 L 427 518 L 420 525 L 418 525 L 417 523 L 421 515 L 422 508 L 418 505 L 410 522 L 403 531 L 397 536 L 396 536 L 395 534 L 398 528 L 398 514 L 395 513 L 392 524 L 387 535 L 385 534 L 388 525 L 388 521 L 387 520 L 382 525 L 376 535 L 369 542 L 365 544 L 362 544 L 361 543 L 361 541 L 365 534 L 365 531 L 362 530 L 358 534 L 354 536 L 344 544 L 342 542 L 342 538 L 346 530 L 347 525 L 345 525 L 330 538 L 328 538 L 326 536 L 326 534 L 323 533 L 318 539 L 316 539 L 303 527 L 293 513 L 290 505 L 289 506 L 289 512 L 291 516 L 291 519 L 303 539 L 301 540 L 295 534 L 292 537 L 282 526 L 280 526 L 278 530 L 267 519 L 264 521 L 255 508 L 254 508 L 252 511 L 250 511 L 247 506 L 244 497 L 242 496 L 239 498 L 237 492 L 234 488 L 232 491 L 230 490 L 227 481 L 227 473 L 225 471 L 223 473 L 221 472 L 222 448 L 217 452 L 216 452 L 215 450 L 215 453 L 216 454 L 219 450 L 222 452 L 221 465 L 220 466 L 220 476 L 222 476 L 224 473 L 227 475 L 228 486 L 235 502 L 235 504 L 233 506 L 230 506 L 229 505 L 227 506 L 227 508 L 221 519 L 221 521 L 225 521 L 227 524 L 220 538 L 220 541 L 225 539 L 227 541 L 227 544 L 223 553 L 223 556 L 220 564 L 220 568 L 221 569 L 225 567 L 227 569 L 226 577 L 224 582 L 228 585 L 228 591 L 228 583 L 225 580 L 226 573 L 227 572 L 227 568 L 226 567 L 221 568 L 220 567 L 220 564 L 221 563 L 221 560 L 223 556 L 223 553 L 225 547 L 227 544 L 227 540 L 226 539 L 223 540 L 221 539 L 221 536 L 223 534 L 224 529 L 227 524 L 227 521 L 226 520 L 223 521 L 221 519 L 223 517 L 226 510 L 229 507 L 234 512 L 236 516 L 244 521 L 251 528 L 253 533 L 258 538 L 261 539 L 264 542 L 269 550 L 272 553 L 272 555 L 275 558 L 277 562 L 285 570 L 288 575 L 291 576 L 297 583 L 293 587 L 293 589 L 296 592 L 294 595 L 287 587 L 286 588 L 286 594 L 296 606 L 297 612 L 298 613 L 294 618 L 294 621 L 297 626 L 297 628 L 294 631 L 292 636 L 291 636 L 290 634 L 288 634 L 288 641 L 290 644 L 294 647 L 295 650 L 295 656 L 288 663 L 286 663 L 283 666 L 276 669 L 273 673 L 244 674 L 241 672 L 243 674 L 269 674 L 270 673 L 278 673 L 279 672 L 287 672 L 288 671 L 293 671 L 294 670 L 306 669 L 307 668 L 311 668 L 317 665 L 319 665 L 324 659 L 325 656 L 325 639 L 323 633 L 323 628 L 325 626 L 328 628 L 330 628 L 330 605 L 329 604 L 329 596 L 331 594 L 335 597 L 336 596 L 335 593 L 335 586 L 337 582 L 338 574 L 337 573 L 334 573 L 319 568 L 313 565 L 308 560 L 308 558 L 311 555 L 315 555 L 329 560 L 333 560 L 334 561 L 338 561 L 344 563 L 353 563 L 354 564 L 374 563 L 379 561 L 384 562 L 386 564 L 386 568 L 383 571 L 380 572 L 379 574 L 382 579 L 384 585 L 385 594 L 390 593 L 391 596 L 390 592 L 387 590 L 388 582 L 392 573 L 399 564 L 403 556 L 407 553 L 416 543 L 420 545 L 428 535 L 430 535 L 432 537 L 440 527 L 443 529 L 445 529 L 453 520 L 457 520 L 468 511 L 473 515 L 475 518 L 478 527 L 486 535 L 485 538 L 483 538 L 480 536 L 477 537 L 477 538 L 484 544 L 484 547 L 483 548 L 480 548 L 479 547 L 471 547 L 471 548 L 480 552 L 484 555 L 489 565 L 489 568 L 487 569 L 476 562 L 474 563 L 476 567 L 487 579 L 488 581 L 487 584 L 481 584 L 469 578 L 466 578 L 465 579 L 473 587 L 481 593 L 483 593 L 490 597 L 493 600 L 494 603 L 491 606 L 489 606 L 485 601 L 484 602 L 490 615 L 493 618 L 493 621 L 490 623 L 489 622 L 489 618 L 486 614 L 484 615 L 484 618 L 482 622 L 482 627 L 483 628 L 483 633 L 482 634 L 480 633 L 471 633 L 470 632 L 467 632 L 466 633 L 458 633 L 457 634 L 452 634 L 451 635 L 444 635 L 443 636 L 442 635 L 430 640 L 431 641 L 433 641 L 436 639 L 450 640 L 448 640 L 446 638 L 449 635 L 457 634 L 458 633 L 477 633 L 478 634 L 481 634 L 485 637 L 483 639 L 477 639 L 485 639 L 488 637 L 496 638 L 506 643 L 515 653 L 516 656 L 516 662 L 517 663 L 516 670 L 514 673 L 509 677 L 507 675 L 507 668 L 506 666 L 507 669 L 507 676 L 508 677 L 510 677 L 515 672 L 517 666 L 517 661 L 516 660 L 516 656 L 514 651 L 510 646 L 506 643 L 499 640 L 496 637 L 496 635 L 499 632 L 499 629 L 501 624 L 501 619 L 502 618 L 502 606 L 503 605 L 503 590 L 502 589 L 501 582 L 504 578 L 499 568 L 502 566 L 504 568 L 507 569 L 507 566 L 505 563 L 504 558 L 495 541 L 498 539 L 505 543 L 506 542 L 498 523 L 498 520 L 500 518 L 503 520 L 504 519 L 503 518 L 502 509 L 499 502 L 499 498 L 497 496 L 494 496 L 489 493 L 482 486 L 479 481 L 477 475 L 477 471 L 476 470 L 476 460 L 477 459 L 477 455 L 478 454 L 479 447 L 482 441 L 482 437 L 480 432 L 478 416 L 475 407 L 475 403 L 474 402 L 473 395 L 469 383 L 467 380 L 467 378 L 453 350 L 452 344 L 454 342 L 457 342 L 461 346 L 466 353 L 476 371 L 476 373 L 478 376 L 478 378 L 480 381 L 480 383 L 482 386 L 485 395 L 485 398 L 487 402 L 487 405 L 489 410 L 489 414 L 490 415 L 490 418 L 489 410 L 485 398 L 485 394 L 481 382 L 479 379 L 478 374 L 476 371 L 475 366 L 473 364 L 467 351 L 460 341 L 458 335 Z M 479 567 L 480 566 L 485 570 L 483 571 L 481 570 Z M 363 532 L 364 534 L 363 536 L 360 538 L 359 537 L 360 534 Z M 270 522 L 283 538 L 282 541 L 281 541 L 271 531 L 268 525 Z M 396 518 L 397 519 L 397 527 L 395 528 L 393 526 L 393 524 L 394 523 L 394 520 Z M 258 516 L 262 519 L 268 527 L 267 530 L 266 530 L 258 521 L 257 519 Z M 292 513 L 296 518 L 299 524 L 307 533 L 305 535 L 299 530 L 293 521 L 291 516 Z M 420 508 L 421 509 L 421 513 L 417 521 L 417 523 L 414 527 L 412 525 L 412 522 L 415 518 L 415 515 L 417 512 L 417 510 Z M 437 505 L 438 506 L 437 509 L 435 511 L 434 508 L 435 506 Z M 243 499 L 245 500 L 248 509 L 250 512 L 250 515 L 248 517 L 243 509 L 243 506 L 242 505 L 242 500 Z M 453 491 L 455 490 L 456 493 L 454 494 Z M 462 425 L 465 423 L 471 429 L 469 431 Z M 427 312 L 429 318 L 433 323 L 434 320 L 429 312 Z M 371 310 L 371 315 L 373 317 L 374 316 L 374 313 L 372 310 Z M 377 309 L 377 313 L 382 317 L 386 317 L 387 318 L 390 317 L 390 314 L 391 313 L 390 310 L 389 310 L 389 314 L 386 316 Z M 321 307 L 318 306 L 315 308 L 314 310 L 317 310 Z M 525 301 L 534 307 L 543 315 L 542 318 L 541 317 L 533 317 L 532 318 L 542 326 L 562 345 L 561 347 L 559 347 L 563 347 L 563 346 L 556 339 L 555 339 L 534 319 L 536 317 L 545 318 L 545 316 Z M 431 298 L 430 299 L 431 302 L 433 304 L 435 304 L 435 301 Z M 381 293 L 380 294 L 380 299 L 383 301 L 387 306 L 388 306 L 387 302 L 384 297 L 384 295 Z M 310 291 L 306 294 L 304 297 L 304 300 L 309 296 L 311 292 Z M 419 288 L 417 288 L 417 293 L 415 295 L 415 297 L 419 302 L 419 310 L 417 312 L 415 312 L 412 314 L 413 317 L 416 316 L 422 309 L 422 306 L 421 303 L 419 301 L 419 298 L 418 297 Z M 507 277 L 505 279 L 507 282 L 524 291 L 523 293 L 519 295 L 519 297 L 523 300 L 522 300 L 519 296 L 523 293 L 526 293 L 526 292 L 524 290 L 522 290 L 509 283 L 506 280 L 508 277 Z M 257 274 L 254 274 L 251 277 L 250 279 L 250 283 L 248 287 L 249 288 L 255 284 L 256 282 L 253 279 Z M 258 263 L 258 265 L 260 266 L 263 266 L 266 264 L 265 262 L 259 262 Z M 416 260 L 413 260 L 409 263 L 412 264 L 414 263 Z M 261 254 L 265 256 L 267 255 L 266 252 L 263 252 Z M 396 244 L 395 243 L 388 243 L 375 248 L 367 249 L 362 251 L 351 252 L 350 253 L 336 253 L 335 252 L 329 252 L 328 251 L 322 251 L 319 250 L 316 253 L 316 255 L 324 264 L 335 272 L 344 276 L 346 278 L 355 278 L 358 276 L 363 276 L 380 264 L 389 256 L 395 248 Z M 380 261 L 370 270 L 367 271 L 364 274 L 361 275 L 359 273 L 360 271 L 368 267 L 371 264 L 376 262 L 378 260 Z M 330 255 L 331 254 L 335 254 L 338 255 L 339 257 L 338 258 L 331 257 Z M 324 254 L 327 253 L 328 255 L 325 256 Z M 318 254 L 321 252 L 323 254 L 322 256 L 328 262 L 342 271 L 348 273 L 357 273 L 358 274 L 355 277 L 352 278 L 344 276 L 342 274 L 340 274 L 338 272 L 333 270 L 325 264 L 318 257 Z M 493 196 L 492 200 L 486 206 L 485 211 L 480 219 L 480 223 L 488 232 L 488 236 L 490 239 L 503 245 L 512 253 L 513 255 L 512 260 L 518 264 L 527 273 L 527 278 L 531 281 L 527 278 L 527 273 L 525 270 L 513 260 L 513 255 L 512 253 L 505 246 L 492 240 L 489 237 L 487 230 L 480 223 L 480 219 L 484 214 L 486 206 L 492 200 Z M 170 152 L 170 156 L 181 168 L 184 173 L 189 178 L 196 179 L 204 187 L 210 197 L 212 197 L 215 195 L 218 195 L 225 199 L 229 203 L 223 192 L 223 180 L 220 177 L 219 172 L 219 175 L 223 180 L 223 193 L 225 196 L 223 198 L 219 195 L 214 195 L 211 197 L 200 182 L 196 179 L 189 178 L 184 173 L 178 164 L 171 157 Z M 373 145 L 369 145 L 367 147 L 365 152 L 360 157 L 351 162 L 345 164 L 342 164 L 338 166 L 329 166 L 328 165 L 322 165 L 321 164 L 317 164 L 311 162 L 306 162 L 303 163 L 300 166 L 296 168 L 290 168 L 287 167 L 279 159 L 278 156 L 278 148 L 278 156 L 279 159 L 284 165 L 290 168 L 297 168 L 306 162 L 311 162 L 316 164 L 321 164 L 322 165 L 327 165 L 328 166 L 338 166 L 339 165 L 342 165 L 351 162 L 360 157 L 365 152 L 367 147 L 369 145 L 372 145 L 377 150 L 378 156 L 379 157 L 379 169 L 380 170 L 380 175 L 379 176 L 378 190 L 377 191 L 377 194 L 376 195 L 376 198 L 374 204 L 366 218 L 363 221 L 349 230 L 342 231 L 341 232 L 336 232 L 327 229 L 320 225 L 306 211 L 297 198 L 294 191 L 300 203 L 309 215 L 318 224 L 324 228 L 333 232 L 345 232 L 346 231 L 349 231 L 363 222 L 369 215 L 376 199 L 377 192 L 379 188 L 379 182 L 380 181 L 379 155 L 377 149 Z M 129 146 L 118 142 L 110 143 L 100 148 L 91 157 L 82 177 L 82 187 L 83 188 L 83 191 L 87 196 L 96 201 L 107 200 L 118 194 L 121 191 L 124 190 L 138 177 L 141 170 L 141 162 L 140 161 L 140 158 L 135 151 Z M 128 146 L 139 158 L 140 161 L 140 172 L 138 176 L 128 186 L 117 193 L 114 196 L 108 199 L 105 199 L 104 200 L 96 200 L 90 197 L 85 192 L 83 188 L 82 180 L 83 179 L 83 175 L 85 169 L 91 158 L 101 148 L 111 143 L 121 143 L 124 145 Z M 275 138 L 272 138 L 269 134 L 265 132 L 258 132 L 249 136 L 242 143 L 241 146 L 241 153 L 246 158 L 249 159 L 255 159 L 261 155 L 262 153 L 268 148 L 269 149 L 269 156 L 270 143 L 271 141 Z M 267 134 L 270 137 L 270 140 L 267 143 L 266 142 L 266 138 L 261 136 L 252 139 L 248 144 L 248 149 L 251 154 L 254 154 L 257 152 L 259 153 L 255 158 L 248 158 L 242 153 L 241 151 L 241 147 L 243 143 L 248 138 L 259 133 L 265 133 Z M 238 130 L 238 134 L 228 145 L 227 148 L 228 149 L 234 148 L 236 150 L 236 153 L 230 165 L 230 169 L 232 170 L 235 168 L 237 170 L 237 173 L 235 178 L 235 183 L 234 184 L 234 190 L 236 192 L 240 189 L 242 191 L 242 203 L 242 193 L 243 192 L 242 189 L 240 188 L 237 191 L 234 189 L 237 169 L 236 168 L 233 168 L 232 169 L 230 168 L 231 162 L 237 150 L 235 148 L 232 148 L 231 149 L 228 148 L 228 146 L 231 142 L 238 135 L 239 133 Z M 478 125 L 479 125 L 476 127 L 476 129 L 489 143 L 491 147 L 489 149 L 486 148 L 482 148 L 481 149 L 481 152 L 487 163 L 489 169 L 487 171 L 485 169 L 481 169 L 480 170 L 478 167 L 467 158 L 460 156 L 459 158 L 468 168 L 467 171 L 461 171 L 460 172 L 463 173 L 466 176 L 466 181 L 464 183 L 462 183 L 460 181 L 456 181 L 455 182 L 459 188 L 460 192 L 457 194 L 452 191 L 446 190 L 446 191 L 452 197 L 454 201 L 452 203 L 449 202 L 448 204 L 445 206 L 445 211 L 443 214 L 439 211 L 437 211 L 437 214 L 438 215 L 437 222 L 435 224 L 432 220 L 430 220 L 428 224 L 428 231 L 426 233 L 424 232 L 424 228 L 423 226 L 422 226 L 415 235 L 412 235 L 404 242 L 401 248 L 401 252 L 403 253 L 407 247 L 413 241 L 415 243 L 415 246 L 416 247 L 422 247 L 424 245 L 427 245 L 428 246 L 436 245 L 437 246 L 442 246 L 445 249 L 447 249 L 448 247 L 455 241 L 464 241 L 468 243 L 471 243 L 473 245 L 476 245 L 481 248 L 483 248 L 488 251 L 492 252 L 493 254 L 492 255 L 488 255 L 487 258 L 490 261 L 492 261 L 509 271 L 515 276 L 514 278 L 512 278 L 515 278 L 516 277 L 509 271 L 498 264 L 491 261 L 488 258 L 489 255 L 495 255 L 494 253 L 470 243 L 468 240 L 470 238 L 472 238 L 472 237 L 467 236 L 464 233 L 467 231 L 467 230 L 463 230 L 459 227 L 459 226 L 465 220 L 472 208 L 472 206 L 474 203 L 475 192 L 477 190 L 480 192 L 482 191 L 482 177 L 480 171 L 482 169 L 484 169 L 487 172 L 489 172 L 488 165 L 481 152 L 481 150 L 483 148 L 486 148 L 490 150 L 491 149 L 491 146 L 476 128 Z M 441 244 L 443 241 L 446 241 L 447 242 L 445 245 L 442 245 Z M 432 243 L 432 241 L 435 237 L 438 237 L 440 239 L 435 244 Z M 453 222 L 454 224 L 451 227 L 450 230 L 444 235 L 443 234 L 443 231 L 445 228 L 450 223 Z M 383 127 L 383 133 L 387 138 L 395 143 L 401 145 L 404 145 L 405 146 L 420 146 L 426 144 L 432 138 L 433 135 L 433 131 L 431 127 L 426 122 L 420 119 L 416 119 L 415 118 L 397 118 L 396 119 L 393 119 L 386 123 Z M 383 129 L 384 127 L 392 120 L 398 119 L 399 118 L 415 118 L 416 119 L 422 120 L 427 123 L 431 127 L 433 132 L 433 135 L 431 139 L 424 144 L 421 145 L 403 145 L 400 143 L 394 142 L 389 139 L 385 135 Z M 278 119 L 279 123 L 283 127 L 280 133 L 280 137 L 277 138 L 279 140 L 279 146 L 279 142 L 281 141 L 283 145 L 290 152 L 299 156 L 309 156 L 299 156 L 292 153 L 283 145 L 280 139 L 280 133 L 281 131 L 288 124 L 296 122 L 293 122 L 292 121 L 295 116 L 295 113 L 294 118 L 286 126 L 281 125 L 279 123 Z M 154 107 L 160 109 L 165 114 L 170 124 L 171 133 L 172 134 L 171 150 L 172 133 L 171 132 L 171 128 L 170 127 L 169 120 L 163 110 L 157 107 Z M 305 111 L 306 113 L 310 113 L 315 111 L 327 111 L 336 114 L 339 113 L 339 110 L 334 106 L 328 105 L 327 104 L 314 105 L 308 108 Z M 312 109 L 314 107 L 318 106 L 319 107 L 330 107 L 333 108 L 334 110 L 331 111 L 330 110 L 313 110 Z M 76 113 L 72 116 L 71 121 L 74 123 L 78 119 L 82 119 L 89 123 L 99 134 L 99 141 L 95 145 L 92 146 L 86 145 L 86 147 L 84 149 L 72 140 L 66 138 L 61 138 L 55 142 L 54 147 L 56 149 L 60 143 L 67 143 L 73 147 L 82 156 L 82 161 L 78 166 L 69 167 L 65 164 L 62 168 L 55 170 L 52 174 L 52 179 L 60 190 L 75 202 L 93 211 L 95 213 L 96 217 L 106 238 L 117 254 L 132 269 L 146 278 L 149 279 L 154 284 L 151 288 L 147 288 L 146 289 L 149 292 L 157 296 L 163 298 L 171 299 L 174 301 L 176 301 L 179 304 L 176 308 L 172 309 L 171 310 L 172 311 L 181 314 L 185 314 L 190 316 L 196 316 L 199 317 L 201 319 L 201 321 L 198 324 L 198 326 L 209 327 L 210 328 L 216 328 L 219 330 L 219 332 L 217 335 L 226 338 L 229 336 L 230 332 L 233 327 L 233 325 L 237 320 L 241 319 L 244 322 L 244 326 L 241 333 L 241 336 L 239 339 L 236 354 L 227 366 L 228 369 L 229 368 L 233 368 L 235 371 L 219 391 L 220 393 L 223 392 L 227 392 L 228 393 L 228 396 L 220 408 L 214 421 L 215 424 L 219 422 L 222 423 L 221 421 L 217 423 L 215 423 L 214 421 L 223 403 L 228 396 L 228 392 L 227 391 L 222 392 L 220 390 L 235 371 L 234 368 L 229 368 L 228 366 L 235 355 L 250 344 L 262 327 L 262 324 L 259 324 L 251 329 L 245 335 L 243 336 L 241 335 L 244 326 L 244 321 L 251 307 L 251 305 L 254 299 L 254 296 L 251 295 L 247 297 L 242 302 L 241 305 L 239 307 L 239 309 L 235 313 L 220 312 L 217 311 L 215 308 L 220 305 L 222 305 L 224 303 L 223 300 L 221 299 L 211 299 L 204 296 L 202 294 L 184 294 L 182 291 L 190 286 L 187 282 L 181 281 L 180 280 L 175 280 L 174 279 L 171 279 L 162 276 L 141 264 L 135 258 L 129 254 L 121 246 L 121 245 L 103 228 L 100 224 L 100 222 L 97 218 L 95 212 L 93 210 L 81 204 L 76 199 L 76 197 L 72 194 L 79 183 L 79 177 L 76 173 L 73 171 L 62 171 L 61 169 L 66 166 L 68 167 L 72 167 L 73 168 L 79 166 L 82 162 L 82 155 L 81 153 L 69 142 L 71 140 L 73 142 L 76 143 L 81 148 L 85 149 L 88 147 L 92 147 L 96 145 L 99 142 L 100 140 L 100 134 L 99 132 L 101 131 L 105 136 L 111 134 L 117 137 L 122 137 L 124 136 L 126 132 L 126 127 L 124 121 L 125 118 L 127 120 L 127 122 L 129 124 L 131 130 L 132 131 L 134 130 L 136 131 L 136 134 L 135 135 L 135 143 L 138 147 L 141 149 L 144 149 L 145 150 L 148 149 L 154 143 L 156 137 L 156 134 L 158 133 L 159 134 L 159 147 L 156 155 L 156 159 L 157 161 L 165 168 L 171 177 L 188 195 L 192 196 L 193 194 L 195 193 L 200 199 L 207 211 L 212 216 L 215 215 L 215 210 L 217 208 L 221 212 L 226 221 L 231 226 L 233 226 L 234 225 L 234 221 L 237 220 L 242 226 L 246 233 L 250 237 L 252 236 L 252 232 L 255 231 L 263 239 L 267 246 L 271 250 L 273 250 L 276 248 L 276 244 L 277 243 L 280 243 L 285 245 L 290 250 L 293 248 L 293 246 L 285 237 L 278 235 L 276 233 L 270 230 L 262 221 L 257 219 L 255 217 L 253 210 L 251 208 L 249 209 L 248 212 L 246 212 L 243 207 L 243 205 L 243 207 L 247 213 L 248 213 L 251 209 L 253 211 L 256 219 L 261 221 L 271 232 L 276 240 L 276 247 L 273 250 L 270 249 L 259 234 L 254 230 L 252 230 L 252 234 L 249 236 L 241 224 L 235 218 L 234 219 L 234 224 L 231 226 L 226 221 L 222 212 L 217 207 L 215 208 L 215 214 L 212 216 L 205 208 L 195 192 L 193 192 L 193 194 L 191 196 L 188 195 L 175 181 L 166 169 L 156 158 L 156 155 L 158 152 L 159 144 L 160 143 L 160 133 L 159 132 L 158 125 L 151 117 L 144 117 L 139 122 L 137 127 L 134 130 L 132 130 L 130 128 L 127 119 L 124 115 L 122 110 L 116 104 L 114 103 L 110 103 L 106 107 L 106 109 L 110 107 L 113 108 L 119 114 L 125 125 L 125 133 L 122 136 L 119 137 L 118 136 L 115 136 L 111 133 L 108 133 L 105 135 L 102 132 L 98 125 L 91 118 L 83 113 Z M 260 324 L 262 326 L 261 328 L 258 331 L 257 334 L 246 346 L 245 344 L 249 338 L 248 334 Z M 213 301 L 214 300 L 221 300 L 222 303 L 219 305 L 215 306 Z M 252 296 L 253 297 L 252 303 L 249 308 L 246 317 L 243 318 L 242 317 L 242 314 L 244 312 L 244 310 L 247 304 L 246 304 L 242 309 L 241 308 L 241 305 L 245 299 L 250 296 Z M 182 286 L 184 283 L 186 283 L 188 285 L 184 288 Z M 287 244 L 289 243 L 292 246 L 290 248 Z M 57 175 L 60 172 L 63 171 L 69 171 L 72 172 L 78 177 L 78 184 L 74 189 L 70 189 L 62 185 L 59 182 Z M 55 171 L 57 173 L 57 176 L 56 178 L 54 179 L 52 177 L 52 175 Z M 94 125 L 96 124 L 98 127 L 96 128 Z M 145 121 L 148 121 L 153 126 L 155 130 L 155 138 L 152 144 L 147 149 L 142 149 L 136 144 L 135 142 L 135 136 L 139 128 Z M 86 119 L 88 118 L 91 119 L 92 121 L 90 122 L 87 121 Z M 153 120 L 152 122 L 150 122 L 148 120 L 145 120 L 139 127 L 138 126 L 138 124 L 140 121 L 145 117 L 150 117 Z M 72 119 L 72 116 L 76 113 L 82 113 L 85 116 L 84 118 L 82 117 L 78 117 L 75 120 Z M 111 105 L 112 104 L 115 104 L 117 107 L 114 108 Z M 102 94 L 99 95 L 92 101 L 74 101 L 86 101 L 92 104 L 95 99 L 99 95 Z M 115 93 L 120 94 L 123 96 L 134 108 L 137 108 L 141 106 L 152 106 L 141 106 L 140 107 L 136 107 L 126 96 L 119 93 Z M 300 62 L 298 60 L 290 60 L 288 61 L 280 68 L 278 72 L 279 76 L 283 78 L 292 71 L 298 69 L 301 65 Z M 301 64 L 300 67 L 298 69 L 292 71 L 283 78 L 278 74 L 279 70 L 284 64 L 291 60 L 297 60 Z M 258 58 L 252 58 L 246 60 L 242 64 L 239 70 L 239 80 L 240 82 L 249 90 L 252 90 L 259 81 L 260 78 L 268 68 L 268 66 L 262 60 Z M 259 73 L 260 76 L 257 81 L 255 82 L 254 80 L 257 76 L 257 74 Z M 261 64 L 263 63 L 266 66 L 264 67 Z M 252 60 L 253 62 L 246 67 L 246 69 L 244 71 L 243 74 L 246 83 L 249 85 L 249 87 L 247 88 L 240 80 L 240 70 L 243 65 L 247 61 Z M 470 56 L 467 62 L 460 69 L 457 70 L 455 72 L 455 74 L 462 82 L 473 102 L 476 105 L 472 111 L 476 115 L 483 119 L 488 124 L 486 126 L 482 126 L 488 126 L 489 124 L 485 120 L 476 115 L 472 111 L 472 110 L 474 108 L 476 108 L 477 106 L 472 100 L 460 79 L 456 75 L 456 72 L 466 64 Z M 432 32 L 425 39 L 423 46 L 427 50 L 429 50 L 437 56 L 439 59 L 445 64 L 450 63 L 454 59 L 458 51 L 457 49 L 457 44 L 455 40 L 446 32 L 440 31 L 439 30 Z M 435 32 L 443 32 L 449 35 L 456 43 L 457 46 L 456 54 L 453 58 L 447 63 L 440 58 L 434 52 L 429 49 L 427 49 L 424 46 L 424 43 L 426 39 L 430 35 Z M 358 23 L 356 22 L 351 25 L 345 32 L 341 32 L 335 28 L 333 28 L 330 26 L 326 26 L 325 27 L 328 32 L 328 36 L 324 38 L 310 38 L 303 44 L 301 44 L 293 48 L 301 44 L 304 44 L 308 39 L 311 38 L 326 38 L 328 37 L 329 34 L 328 31 L 326 29 L 327 26 L 330 26 L 344 33 L 356 22 L 358 24 L 357 28 Z M 469 33 L 465 27 L 459 21 L 453 17 L 446 14 L 433 13 L 432 14 L 426 15 L 417 20 L 411 27 L 409 31 L 409 34 L 406 38 L 395 35 L 404 38 L 407 38 L 410 29 L 419 19 L 426 15 L 432 14 L 433 13 L 441 13 L 453 17 L 462 24 Z" fill="#D8D8D8" fill-rule="evenodd"/><path d="M 447 638 L 448 639 L 451 639 L 452 638 L 459 638 L 460 637 L 474 637 L 475 638 L 483 638 L 484 637 L 481 635 L 478 635 L 477 634 L 458 634 L 457 635 L 449 636 Z M 462 635 L 463 634 L 472 634 L 473 636 L 472 637 L 463 637 Z M 270 523 L 269 525 L 272 531 L 281 540 L 282 540 L 282 538 Z M 396 519 L 394 524 L 395 527 L 396 527 Z M 258 517 L 258 519 L 261 524 L 267 529 L 267 527 L 261 519 Z M 292 514 L 294 521 L 300 530 L 305 534 L 306 533 L 298 524 Z M 420 509 L 418 510 L 418 512 L 416 515 L 416 518 L 413 522 L 413 525 L 414 526 L 419 516 Z M 243 500 L 244 509 L 248 516 L 249 515 L 249 512 L 247 509 L 244 500 Z M 271 496 L 271 500 L 275 508 L 276 505 L 272 496 Z M 436 459 L 438 465 L 438 470 L 441 472 L 442 471 L 441 470 L 440 464 L 438 460 Z M 260 325 L 249 334 L 250 338 L 246 345 L 256 334 L 257 331 L 261 326 Z M 214 301 L 215 305 L 221 303 L 221 301 Z M 252 297 L 250 297 L 245 300 L 242 305 L 242 308 L 246 303 L 248 304 L 245 310 L 245 312 L 243 314 L 243 317 L 245 317 L 245 315 L 251 303 Z M 379 261 L 371 265 L 368 268 L 360 272 L 361 274 L 364 273 Z M 319 254 L 319 257 L 325 263 L 340 273 L 342 273 L 344 275 L 350 277 L 355 276 L 357 274 L 348 274 L 342 272 L 328 263 L 321 256 L 322 254 L 321 253 Z M 439 239 L 438 238 L 435 238 L 433 241 L 433 243 L 435 243 Z M 453 223 L 450 224 L 444 231 L 444 234 L 449 230 Z M 58 175 L 60 182 L 62 184 L 70 188 L 74 188 L 77 184 L 77 177 L 72 173 L 69 172 L 63 172 L 60 173 Z M 128 147 L 124 146 L 121 144 L 111 144 L 101 149 L 92 158 L 86 169 L 84 175 L 84 179 L 83 180 L 84 188 L 86 192 L 90 196 L 96 199 L 104 199 L 105 198 L 108 198 L 114 195 L 117 192 L 128 185 L 137 176 L 139 172 L 139 161 L 137 156 Z M 272 141 L 271 143 L 271 147 L 270 148 L 270 157 L 273 164 L 281 172 L 287 174 L 291 177 L 292 184 L 298 198 L 307 211 L 320 224 L 327 228 L 336 231 L 341 231 L 353 227 L 365 218 L 368 214 L 375 198 L 375 195 L 377 190 L 377 186 L 378 185 L 378 176 L 379 175 L 379 170 L 378 169 L 378 157 L 377 156 L 376 150 L 372 146 L 369 146 L 366 152 L 360 158 L 351 163 L 342 166 L 339 166 L 338 167 L 328 167 L 327 166 L 316 165 L 311 163 L 306 163 L 297 169 L 290 169 L 284 166 L 278 159 L 277 156 L 278 140 L 276 138 Z M 272 142 L 275 139 L 278 141 L 278 144 L 277 145 L 277 157 L 279 161 L 285 167 L 293 170 L 298 169 L 307 163 L 309 164 L 313 164 L 314 165 L 318 165 L 319 166 L 324 166 L 325 167 L 340 167 L 344 165 L 347 165 L 361 158 L 366 153 L 368 149 L 370 147 L 372 147 L 375 150 L 377 155 L 378 178 L 377 179 L 377 185 L 376 186 L 376 190 L 375 191 L 373 202 L 366 215 L 363 218 L 361 216 L 368 202 L 369 193 L 367 189 L 362 185 L 358 183 L 350 182 L 349 183 L 345 183 L 339 185 L 330 191 L 325 196 L 320 205 L 320 213 L 330 226 L 329 227 L 326 227 L 321 224 L 307 210 L 301 202 L 294 189 L 291 176 L 282 172 L 273 163 L 270 154 Z M 269 137 L 265 134 L 259 134 L 248 139 L 244 143 L 242 147 L 242 151 L 243 153 L 248 157 L 255 157 L 258 153 L 254 155 L 251 155 L 247 149 L 247 144 L 249 141 L 254 137 L 262 135 L 265 136 L 267 138 L 267 142 L 269 140 Z M 148 122 L 145 122 L 143 124 L 136 136 L 136 142 L 137 144 L 142 148 L 147 148 L 151 144 L 154 138 L 154 130 L 152 126 Z M 384 129 L 386 135 L 389 138 L 394 141 L 400 142 L 403 144 L 421 144 L 429 140 L 432 135 L 431 129 L 427 124 L 422 121 L 416 120 L 415 119 L 399 119 L 398 120 L 395 120 L 390 122 Z M 313 109 L 330 109 L 333 110 L 333 109 L 330 108 L 319 108 L 318 107 Z M 285 100 L 281 104 L 278 113 L 278 118 L 280 123 L 283 125 L 286 125 L 287 126 L 281 133 L 281 139 L 284 145 L 289 150 L 299 155 L 310 155 L 324 148 L 329 143 L 332 138 L 332 131 L 331 129 L 328 126 L 315 121 L 302 121 L 301 122 L 297 122 L 288 125 L 287 124 L 294 116 L 295 107 L 293 102 L 289 99 Z M 327 126 L 332 132 L 332 136 L 329 142 L 320 150 L 307 155 L 301 155 L 291 151 L 284 144 L 281 137 L 281 134 L 285 128 L 292 124 L 298 122 L 314 121 Z M 290 100 L 294 105 L 294 115 L 289 122 L 283 125 L 279 120 L 279 110 L 281 105 L 286 100 Z M 370 92 L 365 97 L 363 103 L 363 111 L 366 118 L 370 121 L 377 121 L 380 118 L 382 114 L 383 105 L 380 96 L 375 92 Z M 371 92 L 376 93 L 379 96 L 382 102 L 382 112 L 380 117 L 376 121 L 371 121 L 369 120 L 366 117 L 363 110 L 363 105 L 364 104 L 365 98 Z M 300 64 L 297 61 L 291 61 L 282 67 L 280 70 L 279 74 L 283 77 L 292 70 L 298 68 Z M 299 63 L 299 66 L 297 68 L 291 70 L 284 76 L 282 76 L 280 74 L 280 71 L 282 68 L 288 63 L 292 61 L 297 61 Z M 252 61 L 247 62 L 241 70 L 241 80 L 247 87 L 248 87 L 248 85 L 245 83 L 242 74 L 243 71 L 245 69 L 245 67 L 252 62 Z M 363 53 L 363 56 L 364 57 L 373 59 L 381 64 L 385 64 L 387 61 L 386 57 L 382 53 L 376 50 L 368 49 Z M 364 53 L 367 50 L 375 50 L 381 53 L 386 58 L 386 62 L 384 64 L 382 64 L 380 62 L 372 58 L 366 57 L 364 55 Z M 435 33 L 427 39 L 425 43 L 425 46 L 427 48 L 429 48 L 434 51 L 440 57 L 447 62 L 449 61 L 455 54 L 456 51 L 455 43 L 454 41 L 446 34 L 443 33 Z M 450 14 L 444 12 L 432 12 L 431 13 L 427 13 L 419 17 L 413 22 L 408 29 L 407 35 L 406 36 L 402 36 L 396 33 L 392 33 L 391 32 L 387 32 L 381 30 L 365 30 L 360 32 L 358 30 L 358 27 L 360 24 L 360 21 L 357 20 L 350 24 L 344 31 L 342 31 L 340 29 L 332 25 L 325 24 L 324 25 L 324 29 L 327 33 L 325 36 L 308 37 L 306 38 L 302 43 L 293 46 L 281 55 L 280 55 L 272 46 L 263 41 L 260 41 L 259 40 L 248 41 L 245 43 L 243 43 L 235 48 L 229 54 L 224 64 L 223 79 L 225 85 L 228 90 L 235 97 L 240 100 L 242 100 L 245 103 L 241 111 L 241 113 L 236 122 L 236 130 L 237 133 L 225 147 L 225 149 L 227 151 L 233 150 L 235 152 L 229 163 L 228 171 L 229 172 L 232 171 L 235 172 L 235 176 L 233 181 L 233 191 L 235 193 L 238 193 L 239 192 L 241 194 L 241 205 L 244 212 L 247 215 L 252 214 L 255 220 L 258 222 L 260 222 L 269 232 L 275 242 L 275 245 L 272 248 L 268 245 L 264 238 L 254 228 L 252 228 L 251 229 L 251 232 L 249 233 L 245 229 L 242 223 L 234 216 L 232 222 L 230 223 L 227 220 L 222 209 L 217 205 L 214 206 L 214 212 L 212 214 L 206 207 L 201 198 L 195 190 L 193 190 L 192 192 L 189 194 L 183 188 L 158 158 L 158 155 L 160 152 L 160 149 L 161 148 L 161 130 L 159 124 L 152 116 L 147 115 L 142 117 L 139 120 L 136 126 L 133 128 L 130 125 L 130 123 L 122 108 L 115 102 L 109 102 L 103 109 L 103 120 L 105 126 L 105 129 L 104 130 L 101 128 L 98 123 L 92 117 L 86 113 L 78 111 L 73 113 L 70 117 L 70 123 L 83 144 L 81 145 L 73 139 L 67 137 L 59 137 L 55 140 L 53 143 L 53 150 L 58 157 L 62 165 L 60 167 L 56 168 L 51 173 L 51 181 L 57 189 L 64 196 L 80 207 L 91 212 L 95 216 L 95 218 L 105 239 L 115 254 L 121 260 L 121 261 L 132 271 L 148 281 L 151 284 L 149 286 L 144 288 L 148 293 L 158 298 L 174 302 L 176 304 L 176 306 L 175 307 L 172 307 L 169 309 L 171 312 L 182 316 L 196 318 L 199 321 L 195 324 L 196 327 L 203 328 L 204 329 L 213 329 L 217 332 L 214 335 L 216 337 L 219 338 L 229 339 L 231 336 L 232 331 L 235 325 L 238 322 L 241 322 L 243 324 L 237 341 L 237 344 L 235 349 L 235 353 L 225 367 L 226 370 L 230 370 L 231 369 L 233 372 L 217 392 L 218 395 L 224 393 L 227 395 L 219 407 L 212 423 L 213 426 L 215 426 L 218 424 L 221 426 L 218 432 L 216 442 L 215 443 L 214 456 L 216 456 L 218 454 L 220 455 L 220 461 L 219 462 L 219 478 L 220 479 L 223 477 L 226 478 L 227 488 L 231 495 L 233 501 L 231 504 L 228 502 L 226 503 L 225 509 L 219 520 L 220 523 L 224 523 L 225 525 L 218 539 L 218 542 L 220 543 L 223 541 L 225 543 L 225 545 L 223 548 L 223 551 L 219 562 L 218 570 L 219 571 L 223 569 L 225 570 L 225 574 L 223 580 L 223 585 L 226 588 L 226 595 L 228 598 L 229 608 L 230 609 L 230 612 L 232 616 L 233 622 L 235 624 L 235 627 L 232 629 L 224 629 L 223 630 L 215 631 L 208 635 L 203 640 L 199 649 L 198 659 L 200 665 L 205 669 L 208 668 L 207 666 L 208 655 L 214 648 L 216 648 L 218 650 L 215 658 L 215 670 L 218 672 L 221 672 L 222 673 L 229 673 L 230 674 L 232 673 L 232 670 L 231 669 L 232 660 L 234 656 L 238 652 L 242 655 L 240 660 L 240 665 L 239 666 L 239 672 L 241 675 L 275 675 L 276 674 L 282 674 L 283 673 L 292 673 L 293 672 L 299 672 L 300 671 L 305 671 L 306 670 L 314 669 L 319 667 L 323 664 L 326 658 L 326 653 L 327 652 L 327 644 L 326 643 L 325 631 L 326 630 L 331 631 L 331 627 L 332 626 L 331 599 L 333 597 L 335 599 L 337 598 L 337 585 L 339 581 L 340 573 L 339 572 L 328 570 L 325 568 L 316 565 L 310 560 L 312 557 L 315 557 L 316 558 L 319 558 L 331 562 L 341 563 L 342 564 L 348 564 L 349 565 L 355 565 L 356 566 L 363 566 L 364 565 L 370 565 L 371 564 L 377 564 L 378 563 L 382 563 L 385 566 L 382 570 L 378 571 L 377 574 L 379 576 L 382 584 L 382 588 L 384 592 L 384 596 L 385 597 L 387 596 L 389 597 L 389 612 L 393 615 L 393 631 L 394 633 L 397 632 L 400 633 L 400 648 L 398 653 L 398 668 L 400 672 L 404 676 L 412 680 L 415 680 L 420 682 L 438 684 L 439 683 L 438 666 L 441 662 L 444 662 L 446 664 L 446 667 L 447 668 L 447 683 L 448 684 L 469 684 L 471 681 L 469 663 L 473 660 L 477 663 L 479 668 L 479 682 L 480 683 L 493 682 L 497 679 L 497 666 L 495 661 L 497 658 L 499 658 L 504 663 L 505 670 L 506 671 L 506 674 L 505 675 L 505 678 L 506 679 L 511 678 L 517 671 L 518 668 L 518 658 L 515 650 L 513 647 L 507 642 L 500 639 L 498 637 L 498 635 L 501 631 L 501 627 L 503 621 L 503 613 L 504 612 L 504 588 L 503 587 L 503 583 L 506 580 L 502 571 L 504 569 L 508 572 L 510 571 L 507 562 L 505 559 L 505 557 L 501 550 L 501 548 L 498 544 L 500 542 L 505 545 L 508 544 L 508 542 L 500 524 L 502 521 L 504 522 L 505 521 L 505 516 L 503 511 L 503 507 L 500 500 L 500 496 L 490 492 L 484 486 L 479 476 L 479 473 L 478 472 L 478 457 L 479 456 L 479 453 L 482 444 L 484 441 L 484 437 L 482 432 L 480 417 L 479 416 L 474 393 L 471 384 L 469 381 L 469 379 L 455 351 L 454 345 L 457 344 L 460 347 L 469 361 L 476 375 L 476 377 L 480 385 L 485 400 L 485 403 L 488 412 L 488 416 L 490 421 L 490 425 L 491 426 L 492 436 L 493 437 L 493 442 L 489 451 L 488 459 L 487 460 L 487 469 L 488 470 L 489 476 L 495 483 L 497 484 L 502 484 L 506 480 L 510 470 L 513 468 L 515 470 L 515 478 L 513 484 L 508 492 L 508 495 L 514 501 L 519 503 L 525 503 L 531 498 L 537 486 L 540 484 L 542 486 L 542 490 L 541 491 L 540 497 L 537 501 L 537 504 L 538 505 L 546 505 L 551 503 L 557 496 L 560 486 L 563 482 L 566 484 L 566 488 L 563 497 L 566 497 L 574 489 L 581 473 L 581 469 L 583 463 L 583 444 L 582 443 L 582 436 L 585 435 L 586 433 L 581 419 L 580 412 L 577 406 L 577 403 L 580 402 L 581 399 L 575 388 L 568 378 L 569 375 L 573 376 L 574 374 L 563 358 L 556 350 L 557 348 L 565 349 L 566 347 L 538 321 L 539 319 L 547 319 L 547 316 L 522 297 L 523 295 L 528 295 L 529 292 L 515 285 L 510 281 L 511 279 L 517 279 L 518 276 L 499 263 L 491 259 L 492 257 L 494 256 L 498 256 L 499 255 L 497 253 L 485 247 L 483 247 L 474 243 L 472 241 L 475 239 L 476 237 L 470 235 L 468 233 L 470 230 L 467 228 L 464 228 L 462 226 L 467 220 L 468 217 L 473 210 L 473 208 L 475 205 L 476 195 L 478 193 L 481 195 L 483 194 L 484 180 L 483 179 L 483 175 L 482 173 L 484 171 L 488 174 L 491 173 L 491 169 L 489 163 L 483 152 L 485 150 L 492 151 L 493 150 L 493 147 L 487 138 L 478 129 L 480 127 L 489 127 L 490 126 L 490 123 L 486 119 L 475 112 L 475 110 L 478 109 L 479 106 L 475 102 L 469 91 L 467 89 L 465 84 L 458 75 L 458 73 L 466 66 L 471 58 L 472 52 L 473 51 L 473 41 L 472 40 L 472 37 L 466 26 L 460 20 Z M 449 14 L 459 20 L 466 27 L 469 31 L 472 38 L 473 50 L 472 51 L 471 57 L 467 64 L 462 69 L 457 72 L 457 75 L 461 79 L 473 100 L 478 106 L 478 107 L 476 109 L 474 109 L 473 111 L 476 114 L 485 119 L 490 124 L 488 127 L 478 126 L 477 128 L 492 146 L 492 149 L 490 151 L 486 149 L 483 149 L 482 150 L 482 152 L 487 160 L 487 162 L 490 168 L 490 172 L 489 173 L 487 173 L 484 170 L 481 171 L 483 177 L 483 191 L 481 193 L 477 191 L 476 192 L 475 203 L 473 206 L 473 208 L 466 220 L 460 226 L 460 227 L 463 229 L 467 229 L 468 231 L 465 233 L 467 235 L 470 235 L 473 237 L 472 239 L 469 240 L 470 242 L 479 246 L 481 246 L 484 248 L 486 248 L 494 252 L 496 254 L 495 256 L 489 256 L 489 258 L 513 273 L 517 277 L 515 279 L 508 278 L 507 280 L 514 285 L 522 289 L 524 289 L 527 292 L 526 294 L 523 294 L 521 295 L 520 297 L 534 306 L 546 316 L 545 319 L 542 319 L 541 318 L 536 318 L 535 319 L 564 346 L 563 348 L 559 348 L 554 346 L 554 349 L 559 354 L 574 374 L 572 376 L 566 374 L 566 376 L 572 384 L 580 398 L 578 401 L 576 399 L 574 400 L 578 407 L 580 413 L 580 416 L 581 417 L 581 420 L 585 431 L 583 434 L 582 433 L 581 434 L 582 445 L 583 446 L 583 460 L 582 461 L 582 466 L 581 467 L 580 475 L 576 485 L 566 496 L 564 494 L 566 489 L 566 484 L 565 482 L 563 481 L 560 485 L 559 490 L 555 498 L 551 502 L 547 504 L 540 505 L 537 502 L 541 495 L 541 492 L 542 491 L 542 484 L 541 483 L 539 483 L 537 485 L 533 494 L 527 501 L 525 502 L 517 502 L 513 500 L 510 497 L 508 493 L 511 489 L 515 480 L 515 477 L 516 476 L 516 471 L 513 467 L 510 469 L 506 479 L 502 483 L 497 483 L 495 482 L 489 475 L 488 472 L 488 456 L 493 443 L 493 435 L 492 434 L 491 424 L 490 423 L 490 419 L 488 414 L 488 410 L 487 409 L 486 402 L 484 398 L 484 395 L 481 386 L 471 363 L 460 346 L 457 343 L 454 343 L 453 344 L 456 355 L 458 357 L 470 383 L 474 395 L 474 398 L 476 403 L 476 407 L 479 416 L 479 421 L 480 422 L 483 441 L 480 447 L 480 450 L 478 455 L 478 459 L 477 460 L 477 470 L 478 471 L 478 475 L 480 481 L 483 486 L 489 492 L 494 495 L 497 495 L 500 498 L 500 502 L 503 509 L 503 513 L 505 519 L 503 521 L 500 519 L 499 520 L 499 523 L 507 542 L 505 544 L 498 540 L 496 541 L 505 558 L 506 563 L 508 566 L 508 569 L 507 570 L 504 569 L 502 567 L 500 568 L 505 578 L 502 582 L 503 589 L 504 590 L 504 605 L 503 606 L 503 618 L 502 619 L 502 624 L 501 625 L 500 632 L 497 635 L 497 637 L 499 639 L 506 642 L 510 645 L 515 651 L 517 656 L 517 660 L 518 661 L 517 670 L 510 678 L 508 678 L 506 676 L 506 669 L 503 661 L 499 657 L 497 657 L 495 659 L 496 668 L 497 669 L 497 678 L 494 681 L 491 682 L 483 682 L 481 683 L 479 681 L 480 678 L 480 670 L 479 669 L 479 666 L 475 660 L 471 660 L 469 662 L 470 681 L 467 684 L 449 684 L 447 682 L 447 665 L 444 661 L 441 661 L 438 664 L 438 681 L 436 683 L 422 682 L 421 681 L 417 681 L 406 677 L 400 671 L 398 666 L 398 657 L 399 656 L 399 651 L 401 646 L 400 631 L 398 630 L 395 632 L 393 629 L 393 616 L 394 615 L 394 611 L 391 612 L 389 610 L 389 599 L 390 598 L 390 594 L 387 595 L 384 594 L 383 585 L 381 579 L 378 574 L 380 571 L 383 570 L 385 568 L 385 564 L 382 562 L 379 562 L 374 564 L 365 564 L 364 565 L 344 564 L 343 563 L 329 561 L 315 556 L 311 556 L 309 558 L 309 560 L 313 564 L 319 567 L 334 572 L 337 572 L 339 574 L 339 578 L 336 586 L 336 593 L 337 596 L 335 598 L 332 595 L 330 596 L 330 604 L 331 605 L 331 628 L 330 629 L 328 629 L 326 627 L 324 628 L 324 633 L 326 639 L 326 656 L 323 662 L 319 666 L 317 666 L 314 668 L 307 669 L 306 670 L 301 670 L 300 671 L 294 671 L 293 672 L 288 672 L 287 673 L 279 673 L 278 674 L 270 674 L 269 675 L 243 675 L 240 672 L 240 661 L 241 660 L 242 653 L 241 652 L 237 652 L 234 655 L 231 662 L 231 671 L 229 673 L 225 673 L 224 672 L 217 671 L 215 669 L 215 660 L 219 649 L 217 647 L 214 647 L 208 654 L 208 657 L 207 658 L 207 666 L 204 668 L 199 662 L 199 651 L 203 640 L 210 634 L 217 631 L 225 630 L 226 629 L 241 629 L 242 630 L 246 630 L 252 632 L 255 631 L 253 629 L 251 629 L 248 627 L 238 626 L 233 621 L 230 607 L 229 606 L 229 600 L 227 596 L 227 585 L 223 582 L 225 577 L 226 569 L 224 568 L 221 570 L 219 568 L 219 564 L 222 556 L 222 553 L 226 544 L 226 541 L 225 540 L 221 542 L 219 541 L 219 538 L 226 524 L 225 522 L 221 522 L 220 519 L 226 508 L 226 506 L 228 504 L 233 505 L 234 502 L 227 486 L 226 475 L 224 474 L 222 477 L 219 476 L 219 466 L 220 465 L 221 452 L 219 451 L 216 455 L 214 453 L 216 440 L 222 424 L 219 423 L 215 425 L 213 423 L 213 421 L 219 408 L 227 396 L 227 393 L 220 394 L 218 391 L 234 371 L 233 369 L 229 369 L 228 370 L 226 368 L 226 366 L 235 354 L 236 346 L 243 326 L 243 322 L 241 320 L 237 321 L 234 325 L 234 327 L 231 332 L 230 336 L 227 339 L 225 338 L 221 338 L 218 337 L 216 335 L 218 332 L 218 330 L 216 329 L 210 329 L 209 328 L 198 327 L 197 324 L 200 321 L 199 318 L 196 317 L 190 317 L 189 316 L 181 315 L 172 312 L 170 310 L 178 305 L 176 302 L 167 299 L 163 299 L 149 293 L 145 289 L 147 287 L 151 287 L 153 284 L 149 280 L 146 279 L 132 270 L 116 254 L 105 238 L 95 217 L 94 213 L 80 206 L 68 198 L 59 190 L 51 179 L 51 174 L 55 169 L 62 167 L 65 163 L 69 166 L 78 165 L 81 161 L 81 156 L 69 145 L 67 144 L 60 144 L 56 150 L 53 147 L 54 142 L 61 137 L 66 137 L 72 139 L 84 148 L 86 144 L 92 145 L 95 144 L 98 141 L 98 134 L 89 124 L 82 120 L 78 120 L 74 124 L 70 121 L 71 116 L 76 112 L 83 112 L 91 117 L 99 125 L 105 134 L 108 132 L 111 132 L 115 135 L 118 135 L 119 136 L 122 135 L 124 133 L 124 125 L 118 114 L 111 108 L 107 110 L 105 109 L 105 107 L 110 102 L 114 102 L 116 103 L 123 110 L 125 115 L 128 119 L 128 121 L 132 129 L 134 129 L 136 127 L 138 122 L 144 116 L 151 116 L 159 125 L 160 132 L 161 133 L 161 143 L 160 144 L 159 152 L 157 155 L 157 158 L 185 191 L 190 195 L 192 194 L 193 191 L 195 191 L 203 202 L 206 208 L 212 215 L 214 214 L 214 208 L 217 206 L 223 212 L 227 221 L 231 225 L 233 224 L 233 219 L 235 217 L 242 224 L 249 235 L 251 234 L 251 230 L 254 229 L 260 234 L 269 247 L 273 249 L 275 247 L 275 240 L 270 232 L 261 222 L 257 221 L 255 219 L 251 210 L 248 214 L 244 211 L 241 203 L 241 191 L 240 190 L 236 193 L 233 190 L 233 184 L 234 183 L 234 178 L 235 177 L 236 170 L 234 169 L 231 171 L 229 169 L 229 165 L 235 153 L 235 150 L 234 149 L 228 150 L 226 147 L 237 134 L 236 124 L 244 107 L 245 101 L 244 100 L 241 100 L 232 94 L 225 84 L 223 72 L 224 71 L 225 63 L 229 55 L 237 47 L 244 43 L 250 41 L 261 41 L 270 45 L 279 55 L 282 55 L 289 49 L 296 45 L 303 43 L 310 37 L 324 37 L 327 36 L 327 32 L 324 27 L 326 25 L 330 25 L 341 31 L 345 31 L 351 24 L 356 21 L 359 23 L 357 29 L 358 32 L 362 32 L 363 31 L 383 31 L 384 32 L 393 33 L 394 34 L 397 34 L 406 37 L 408 34 L 408 31 L 413 23 L 420 17 L 433 12 L 441 12 L 442 13 Z M 454 6 L 448 4 L 445 4 L 444 3 L 431 3 L 430 4 L 425 4 L 419 7 L 417 7 L 411 11 L 403 19 L 402 22 L 400 24 L 394 24 L 393 23 L 387 23 L 386 22 L 379 22 L 378 21 L 369 21 L 367 19 L 366 16 L 360 12 L 353 13 L 346 17 L 343 20 L 340 20 L 332 16 L 322 16 L 318 19 L 316 24 L 316 27 L 314 29 L 308 29 L 302 31 L 294 36 L 285 40 L 283 42 L 280 41 L 273 35 L 261 31 L 251 31 L 250 32 L 246 32 L 234 37 L 227 42 L 220 50 L 215 59 L 215 62 L 213 66 L 213 80 L 214 81 L 215 87 L 219 95 L 225 102 L 233 108 L 227 120 L 227 123 L 226 124 L 227 132 L 221 138 L 217 146 L 217 152 L 222 158 L 220 164 L 220 167 L 219 168 L 219 171 L 221 177 L 224 180 L 224 192 L 230 202 L 229 204 L 225 200 L 218 196 L 215 196 L 212 198 L 210 198 L 206 193 L 203 187 L 196 180 L 189 179 L 169 156 L 170 144 L 171 143 L 171 134 L 170 133 L 169 124 L 164 114 L 160 110 L 153 107 L 141 107 L 137 109 L 134 109 L 128 103 L 128 102 L 120 95 L 114 93 L 103 94 L 99 96 L 92 105 L 86 102 L 73 102 L 67 105 L 63 109 L 60 115 L 60 125 L 57 129 L 54 129 L 50 131 L 47 134 L 43 141 L 42 150 L 47 161 L 41 168 L 40 171 L 40 180 L 42 186 L 47 194 L 61 207 L 70 212 L 75 216 L 82 219 L 86 223 L 94 241 L 107 260 L 119 273 L 134 284 L 134 290 L 139 297 L 149 304 L 158 307 L 161 310 L 161 314 L 167 320 L 177 324 L 184 325 L 186 327 L 187 331 L 191 334 L 196 336 L 203 337 L 208 343 L 218 347 L 221 347 L 224 349 L 224 352 L 217 366 L 217 374 L 218 377 L 212 384 L 208 392 L 208 398 L 212 403 L 208 409 L 208 411 L 204 420 L 204 431 L 208 436 L 206 446 L 205 447 L 205 459 L 207 464 L 209 466 L 209 474 L 210 475 L 210 479 L 212 482 L 212 484 L 219 492 L 219 495 L 209 522 L 210 527 L 212 529 L 212 531 L 209 536 L 209 546 L 212 550 L 212 553 L 209 560 L 209 566 L 208 568 L 210 574 L 214 578 L 214 588 L 215 589 L 215 593 L 216 594 L 216 598 L 217 599 L 217 603 L 218 604 L 218 608 L 220 614 L 220 619 L 218 621 L 215 621 L 207 624 L 196 632 L 189 644 L 188 652 L 187 653 L 187 658 L 188 659 L 188 663 L 190 668 L 196 674 L 201 677 L 207 679 L 210 679 L 211 680 L 214 680 L 215 681 L 225 682 L 226 683 L 234 683 L 235 684 L 274 684 L 275 683 L 284 683 L 285 682 L 292 682 L 293 681 L 305 680 L 310 678 L 318 677 L 327 673 L 334 666 L 337 659 L 337 639 L 340 635 L 342 630 L 342 625 L 343 624 L 343 606 L 347 602 L 347 599 L 348 598 L 348 588 L 350 582 L 350 577 L 352 575 L 355 575 L 356 576 L 367 576 L 370 580 L 372 590 L 374 594 L 374 597 L 376 600 L 377 604 L 381 609 L 381 618 L 382 619 L 383 629 L 387 638 L 390 642 L 390 646 L 388 652 L 388 659 L 387 660 L 388 670 L 393 679 L 402 686 L 404 686 L 410 689 L 417 690 L 418 691 L 428 692 L 429 693 L 439 693 L 440 694 L 474 694 L 475 693 L 487 693 L 488 692 L 499 691 L 500 690 L 503 690 L 504 689 L 507 689 L 513 687 L 520 683 L 527 675 L 529 669 L 529 655 L 527 649 L 525 647 L 524 644 L 512 633 L 512 627 L 513 626 L 513 621 L 514 620 L 514 610 L 515 609 L 515 586 L 514 583 L 519 577 L 519 567 L 517 561 L 514 556 L 514 554 L 517 551 L 518 548 L 518 543 L 515 534 L 513 532 L 513 529 L 515 527 L 516 524 L 515 514 L 516 513 L 519 514 L 529 514 L 531 513 L 536 516 L 546 516 L 547 515 L 550 515 L 567 508 L 575 503 L 581 497 L 589 484 L 589 482 L 591 479 L 592 472 L 593 471 L 594 457 L 595 456 L 594 453 L 594 445 L 593 443 L 596 438 L 596 432 L 595 431 L 594 422 L 590 413 L 590 409 L 592 406 L 592 401 L 587 389 L 583 384 L 583 382 L 585 380 L 585 376 L 579 364 L 573 357 L 576 353 L 576 347 L 571 339 L 556 325 L 556 323 L 558 320 L 558 317 L 556 313 L 545 302 L 538 297 L 539 289 L 536 285 L 529 281 L 526 278 L 526 273 L 518 265 L 514 263 L 511 260 L 512 258 L 511 253 L 503 246 L 490 240 L 487 236 L 487 232 L 479 223 L 479 219 L 484 211 L 485 206 L 492 198 L 493 195 L 493 186 L 499 179 L 500 176 L 500 165 L 498 162 L 498 159 L 502 154 L 502 146 L 499 139 L 496 135 L 496 132 L 499 129 L 500 125 L 498 119 L 487 109 L 488 107 L 487 103 L 473 79 L 471 77 L 471 74 L 477 68 L 478 65 L 480 63 L 483 54 L 484 46 L 483 45 L 483 39 L 482 38 L 481 32 L 475 21 L 467 13 Z M 453 6 L 466 13 L 475 22 L 481 33 L 482 40 L 483 41 L 483 53 L 482 54 L 482 57 L 477 67 L 470 74 L 470 76 L 478 88 L 484 100 L 487 104 L 487 110 L 491 113 L 499 122 L 499 128 L 495 132 L 495 135 L 499 140 L 502 147 L 502 153 L 497 159 L 497 161 L 500 167 L 500 175 L 499 178 L 493 184 L 493 193 L 490 200 L 485 205 L 483 212 L 478 220 L 478 223 L 487 233 L 487 238 L 489 240 L 495 242 L 497 244 L 499 244 L 501 246 L 504 247 L 511 254 L 512 256 L 511 261 L 521 268 L 526 274 L 526 279 L 534 284 L 538 288 L 539 292 L 537 295 L 537 297 L 550 307 L 557 315 L 558 319 L 556 322 L 556 326 L 559 328 L 575 345 L 576 352 L 573 355 L 573 358 L 581 368 L 585 377 L 583 381 L 583 385 L 587 390 L 591 399 L 591 407 L 589 409 L 589 412 L 591 415 L 594 424 L 594 427 L 595 428 L 595 439 L 593 442 L 593 447 L 594 448 L 594 463 L 593 464 L 593 469 L 592 470 L 592 474 L 589 483 L 582 495 L 574 503 L 568 507 L 549 515 L 538 516 L 532 513 L 521 514 L 517 512 L 514 512 L 515 526 L 513 528 L 512 531 L 517 541 L 517 549 L 513 555 L 518 565 L 519 576 L 514 582 L 514 614 L 513 615 L 513 623 L 512 624 L 511 633 L 521 641 L 528 653 L 528 657 L 529 658 L 529 667 L 528 668 L 528 671 L 525 677 L 519 683 L 516 684 L 514 686 L 505 689 L 497 690 L 496 691 L 481 692 L 480 693 L 434 693 L 433 692 L 426 692 L 425 691 L 420 691 L 419 690 L 412 689 L 400 684 L 392 677 L 388 669 L 388 654 L 389 653 L 389 649 L 390 648 L 391 642 L 388 639 L 384 631 L 383 623 L 382 622 L 381 607 L 377 603 L 376 599 L 374 596 L 372 585 L 370 581 L 370 577 L 368 575 L 351 575 L 350 576 L 349 586 L 348 587 L 347 600 L 342 606 L 342 629 L 340 634 L 337 638 L 337 656 L 336 657 L 336 660 L 334 665 L 326 673 L 320 676 L 317 676 L 308 679 L 298 680 L 297 681 L 281 682 L 280 683 L 265 683 L 264 684 L 230 683 L 229 682 L 222 682 L 221 681 L 212 680 L 211 679 L 208 679 L 198 675 L 191 668 L 188 661 L 188 649 L 193 637 L 198 631 L 210 623 L 213 623 L 221 620 L 219 607 L 218 606 L 218 602 L 217 601 L 217 597 L 216 596 L 216 592 L 215 591 L 215 584 L 214 583 L 215 578 L 209 571 L 209 561 L 211 557 L 211 554 L 213 551 L 209 546 L 209 537 L 213 530 L 210 526 L 210 519 L 214 511 L 219 496 L 219 492 L 211 481 L 210 475 L 209 474 L 209 465 L 207 463 L 205 458 L 205 448 L 206 447 L 206 443 L 207 442 L 208 435 L 204 431 L 204 420 L 206 414 L 210 406 L 212 404 L 212 401 L 208 397 L 208 394 L 210 388 L 218 378 L 217 367 L 222 356 L 225 352 L 225 349 L 222 347 L 219 347 L 209 343 L 205 338 L 202 336 L 197 336 L 190 333 L 187 330 L 185 325 L 175 323 L 166 319 L 162 315 L 161 313 L 161 309 L 159 307 L 154 306 L 142 299 L 136 293 L 134 289 L 134 283 L 121 274 L 106 258 L 91 235 L 91 233 L 88 228 L 86 222 L 83 219 L 76 216 L 74 214 L 63 208 L 46 192 L 41 183 L 41 180 L 40 179 L 40 172 L 43 165 L 47 161 L 47 159 L 43 153 L 43 149 L 42 148 L 43 142 L 46 136 L 51 131 L 60 128 L 60 116 L 61 113 L 68 105 L 74 102 L 83 102 L 89 105 L 93 105 L 95 103 L 96 100 L 103 94 L 107 94 L 108 93 L 116 94 L 120 96 L 134 111 L 142 107 L 152 107 L 160 111 L 165 117 L 170 130 L 170 138 L 171 141 L 170 142 L 170 149 L 169 150 L 168 156 L 174 162 L 188 180 L 195 180 L 203 188 L 209 198 L 220 197 L 231 207 L 232 204 L 224 191 L 224 183 L 225 181 L 220 174 L 220 165 L 223 158 L 219 155 L 217 151 L 217 146 L 221 139 L 227 133 L 226 125 L 227 124 L 228 118 L 233 110 L 233 107 L 227 103 L 219 94 L 218 91 L 216 89 L 214 83 L 214 80 L 213 79 L 213 67 L 214 66 L 215 60 L 220 51 L 229 41 L 237 36 L 245 33 L 249 33 L 250 32 L 264 32 L 275 37 L 281 42 L 284 42 L 288 39 L 306 30 L 316 29 L 317 28 L 317 22 L 318 20 L 323 16 L 330 16 L 336 18 L 341 21 L 343 21 L 348 16 L 354 13 L 361 13 L 363 14 L 369 22 L 384 22 L 385 23 L 391 23 L 392 24 L 400 25 L 402 23 L 403 20 L 413 10 L 421 6 L 427 4 L 433 4 L 434 3 L 441 3 L 442 4 L 446 4 L 447 5 Z" fill="#B1B1B1" fill-rule="evenodd"/><path d="M 463 635 L 463 636 L 472 636 L 472 635 Z M 273 142 L 271 154 L 272 155 L 272 159 L 274 163 L 282 171 L 286 173 L 288 173 L 292 176 L 293 178 L 293 183 L 294 184 L 295 189 L 302 202 L 308 209 L 308 210 L 321 223 L 326 226 L 329 226 L 329 225 L 323 219 L 323 218 L 319 213 L 319 205 L 324 196 L 330 190 L 331 190 L 339 184 L 341 184 L 345 182 L 349 182 L 350 181 L 352 181 L 353 182 L 358 182 L 362 184 L 368 189 L 370 193 L 370 198 L 369 199 L 369 202 L 362 216 L 363 217 L 365 215 L 372 202 L 372 199 L 373 198 L 373 195 L 374 194 L 374 191 L 375 190 L 375 186 L 376 185 L 376 179 L 377 178 L 377 164 L 376 163 L 376 155 L 375 154 L 374 150 L 372 148 L 370 148 L 367 153 L 361 159 L 347 166 L 344 166 L 340 168 L 325 168 L 324 167 L 319 167 L 318 166 L 314 166 L 313 165 L 309 165 L 307 164 L 300 169 L 293 171 L 292 170 L 289 170 L 285 168 L 278 161 L 276 157 L 276 145 L 277 144 L 277 141 L 275 140 Z M 330 130 L 327 127 L 321 124 L 318 124 L 314 122 L 304 122 L 303 123 L 298 123 L 297 124 L 292 125 L 285 129 L 282 134 L 282 137 L 285 144 L 291 150 L 297 153 L 300 153 L 301 154 L 307 154 L 308 153 L 311 153 L 314 151 L 316 151 L 320 149 L 328 142 L 331 136 L 331 132 Z M 290 101 L 286 101 L 282 105 L 281 109 L 280 110 L 280 120 L 283 124 L 289 121 L 293 115 L 293 105 Z M 371 93 L 366 98 L 365 104 L 364 105 L 364 110 L 367 117 L 369 119 L 371 120 L 376 120 L 379 117 L 380 113 L 381 112 L 381 102 L 378 96 L 376 94 L 374 93 Z M 298 63 L 297 62 L 292 62 L 288 64 L 283 68 L 283 69 L 281 71 L 281 74 L 282 75 L 284 75 L 291 69 L 295 67 L 297 67 L 298 66 Z M 365 53 L 365 55 L 366 56 L 372 57 L 380 61 L 382 63 L 384 63 L 385 62 L 385 58 L 381 54 L 375 51 L 367 51 Z M 453 7 L 447 6 L 446 5 L 442 5 L 441 4 L 427 5 L 426 6 L 421 7 L 413 11 L 404 20 L 403 23 L 400 26 L 392 25 L 391 24 L 385 24 L 384 23 L 369 23 L 366 20 L 365 17 L 363 15 L 361 14 L 354 14 L 348 17 L 343 22 L 341 22 L 336 19 L 334 19 L 330 17 L 323 17 L 319 20 L 318 22 L 318 28 L 316 30 L 310 30 L 309 31 L 306 31 L 288 40 L 284 43 L 281 43 L 275 38 L 264 33 L 250 33 L 249 34 L 245 34 L 244 35 L 239 36 L 229 42 L 221 51 L 216 60 L 215 66 L 214 67 L 214 79 L 215 80 L 215 83 L 216 84 L 217 89 L 219 91 L 220 94 L 227 102 L 231 104 L 234 107 L 234 110 L 229 118 L 228 124 L 227 125 L 228 133 L 222 139 L 218 146 L 218 151 L 220 155 L 224 158 L 221 165 L 221 174 L 226 181 L 225 183 L 225 191 L 228 197 L 231 200 L 233 204 L 233 206 L 231 208 L 220 198 L 209 199 L 207 197 L 206 194 L 204 192 L 202 188 L 195 181 L 188 181 L 178 169 L 178 168 L 173 163 L 173 162 L 167 156 L 168 150 L 169 149 L 169 142 L 170 141 L 170 139 L 169 138 L 169 130 L 168 129 L 167 123 L 164 117 L 160 112 L 152 108 L 142 108 L 134 112 L 120 97 L 116 95 L 112 95 L 111 94 L 103 95 L 97 100 L 96 103 L 93 106 L 89 106 L 83 103 L 74 103 L 68 106 L 64 110 L 61 116 L 61 128 L 59 130 L 56 130 L 55 131 L 51 132 L 47 136 L 44 142 L 44 145 L 43 146 L 43 148 L 44 149 L 44 153 L 46 155 L 48 159 L 48 161 L 44 165 L 42 169 L 42 171 L 41 172 L 41 179 L 42 180 L 42 183 L 47 192 L 63 207 L 69 210 L 71 212 L 74 213 L 76 215 L 83 218 L 87 222 L 89 226 L 89 228 L 92 233 L 92 235 L 94 237 L 96 242 L 98 244 L 102 251 L 105 254 L 107 258 L 121 273 L 122 273 L 126 277 L 127 277 L 135 283 L 135 289 L 137 293 L 142 298 L 154 305 L 159 306 L 162 309 L 162 313 L 166 318 L 175 322 L 178 322 L 179 323 L 183 323 L 185 324 L 187 326 L 187 328 L 190 332 L 197 335 L 202 335 L 204 336 L 209 342 L 213 344 L 218 345 L 219 346 L 222 346 L 226 349 L 226 352 L 223 356 L 218 367 L 219 378 L 215 382 L 215 383 L 211 388 L 211 390 L 209 394 L 209 397 L 213 401 L 213 404 L 211 406 L 205 420 L 205 431 L 209 435 L 209 438 L 208 439 L 208 442 L 207 443 L 207 447 L 206 448 L 206 458 L 207 459 L 208 463 L 210 465 L 210 474 L 211 475 L 212 481 L 220 492 L 220 496 L 219 497 L 215 511 L 211 519 L 211 526 L 214 529 L 214 530 L 210 537 L 210 546 L 214 550 L 214 551 L 212 554 L 212 557 L 210 561 L 210 571 L 216 578 L 216 581 L 215 582 L 216 584 L 216 591 L 217 592 L 217 596 L 218 597 L 218 601 L 219 602 L 219 606 L 220 607 L 220 611 L 221 612 L 222 620 L 220 622 L 217 622 L 213 624 L 210 624 L 202 629 L 197 633 L 191 643 L 191 645 L 189 649 L 189 661 L 192 668 L 198 674 L 202 676 L 204 676 L 208 678 L 211 678 L 212 679 L 216 679 L 217 680 L 221 680 L 222 681 L 229 681 L 230 682 L 243 682 L 244 683 L 264 683 L 265 682 L 280 682 L 281 681 L 297 680 L 298 679 L 308 678 L 309 677 L 320 675 L 326 672 L 333 665 L 334 661 L 335 660 L 335 657 L 336 656 L 336 638 L 339 634 L 340 630 L 341 629 L 341 606 L 346 600 L 348 581 L 349 580 L 349 576 L 351 574 L 368 574 L 371 577 L 371 581 L 373 585 L 375 596 L 377 599 L 378 603 L 382 607 L 383 622 L 384 623 L 385 631 L 389 639 L 392 642 L 391 648 L 390 649 L 390 653 L 389 654 L 389 669 L 393 677 L 400 683 L 412 688 L 415 688 L 416 689 L 419 689 L 420 690 L 425 690 L 426 691 L 433 691 L 434 692 L 480 692 L 481 691 L 496 690 L 497 689 L 505 688 L 506 687 L 514 685 L 516 683 L 519 682 L 524 677 L 527 671 L 527 668 L 528 667 L 528 658 L 527 657 L 527 653 L 523 645 L 520 642 L 520 641 L 510 633 L 510 629 L 511 628 L 511 624 L 512 623 L 512 615 L 513 614 L 513 582 L 518 576 L 518 569 L 517 568 L 517 565 L 512 555 L 512 554 L 516 549 L 516 541 L 511 531 L 512 528 L 514 526 L 514 517 L 513 516 L 513 512 L 514 511 L 517 511 L 521 513 L 532 512 L 538 515 L 545 515 L 546 514 L 549 514 L 550 513 L 555 512 L 562 508 L 564 508 L 568 506 L 570 504 L 574 502 L 581 495 L 588 483 L 588 481 L 591 474 L 591 470 L 592 469 L 592 464 L 593 463 L 593 448 L 592 447 L 592 442 L 594 439 L 594 428 L 593 427 L 593 424 L 592 423 L 590 415 L 588 412 L 588 409 L 590 407 L 590 399 L 588 396 L 588 394 L 586 390 L 582 385 L 582 381 L 584 377 L 580 368 L 578 366 L 576 362 L 572 358 L 572 355 L 575 352 L 575 348 L 574 347 L 574 345 L 572 343 L 572 342 L 559 329 L 558 329 L 555 326 L 555 322 L 557 319 L 556 315 L 550 308 L 549 308 L 543 302 L 539 300 L 536 297 L 536 295 L 538 292 L 537 288 L 534 285 L 528 282 L 525 279 L 525 274 L 524 272 L 510 261 L 510 258 L 511 257 L 510 254 L 504 248 L 501 247 L 499 245 L 497 245 L 495 243 L 493 243 L 489 241 L 486 238 L 486 233 L 477 223 L 477 220 L 482 212 L 484 205 L 489 200 L 491 196 L 491 194 L 492 193 L 492 184 L 498 178 L 498 176 L 499 175 L 499 167 L 496 161 L 496 159 L 501 153 L 501 147 L 498 140 L 494 135 L 494 132 L 498 128 L 498 122 L 497 120 L 486 110 L 486 104 L 483 100 L 482 97 L 480 95 L 474 83 L 469 76 L 469 74 L 476 67 L 481 57 L 481 54 L 482 53 L 482 41 L 481 40 L 481 36 L 480 35 L 480 33 L 474 22 L 466 14 Z M 450 13 L 460 19 L 467 26 L 467 27 L 471 32 L 472 36 L 473 37 L 473 40 L 474 41 L 474 51 L 473 52 L 472 58 L 467 66 L 459 73 L 459 75 L 466 84 L 468 89 L 470 91 L 472 96 L 474 98 L 476 102 L 480 106 L 480 108 L 478 110 L 476 110 L 476 112 L 486 118 L 491 123 L 491 126 L 489 128 L 480 128 L 479 129 L 488 138 L 488 139 L 491 142 L 494 147 L 494 150 L 492 152 L 488 152 L 487 151 L 485 151 L 484 152 L 490 163 L 490 165 L 492 169 L 492 173 L 490 175 L 488 175 L 484 172 L 483 173 L 484 175 L 484 179 L 485 180 L 485 188 L 484 189 L 484 194 L 482 196 L 481 196 L 479 194 L 477 195 L 477 200 L 476 201 L 476 205 L 474 208 L 474 210 L 472 212 L 468 220 L 463 225 L 463 226 L 464 227 L 467 227 L 469 228 L 471 230 L 469 233 L 470 234 L 475 235 L 477 237 L 477 238 L 473 241 L 478 244 L 480 244 L 483 246 L 485 246 L 497 252 L 500 255 L 498 257 L 494 257 L 492 258 L 492 259 L 499 262 L 519 276 L 519 278 L 517 280 L 511 280 L 511 281 L 515 284 L 528 290 L 530 292 L 530 294 L 528 296 L 523 296 L 523 297 L 525 299 L 532 303 L 539 309 L 540 309 L 548 316 L 548 319 L 547 320 L 539 320 L 539 321 L 567 347 L 567 348 L 565 350 L 563 350 L 562 349 L 557 349 L 557 350 L 564 358 L 566 362 L 569 365 L 569 366 L 575 374 L 575 375 L 573 377 L 569 376 L 569 378 L 576 388 L 577 391 L 579 393 L 582 399 L 582 401 L 580 403 L 578 403 L 578 406 L 580 409 L 581 415 L 582 416 L 582 419 L 583 420 L 583 422 L 586 429 L 586 432 L 587 433 L 587 434 L 585 436 L 583 436 L 583 443 L 584 444 L 584 463 L 583 464 L 582 473 L 581 474 L 580 479 L 575 489 L 566 498 L 563 498 L 562 497 L 563 493 L 564 492 L 564 489 L 565 488 L 565 484 L 563 483 L 561 486 L 561 488 L 560 489 L 558 496 L 556 498 L 556 499 L 549 505 L 547 505 L 546 506 L 538 506 L 536 504 L 536 501 L 539 497 L 540 491 L 541 490 L 541 486 L 540 485 L 538 486 L 532 498 L 525 504 L 519 504 L 518 503 L 514 502 L 507 495 L 507 492 L 510 488 L 512 484 L 513 479 L 514 478 L 514 470 L 513 469 L 511 470 L 510 474 L 507 480 L 502 485 L 497 485 L 495 484 L 489 478 L 488 476 L 487 470 L 486 469 L 486 460 L 487 459 L 488 451 L 490 448 L 490 446 L 492 442 L 492 437 L 491 436 L 490 426 L 489 425 L 489 421 L 488 420 L 488 417 L 487 416 L 487 412 L 486 411 L 484 400 L 483 399 L 479 385 L 475 377 L 475 375 L 468 361 L 466 359 L 465 356 L 463 354 L 462 351 L 459 348 L 459 347 L 457 345 L 455 345 L 456 351 L 470 379 L 470 381 L 472 384 L 472 386 L 475 393 L 475 396 L 477 400 L 477 404 L 478 405 L 478 408 L 479 409 L 479 412 L 480 413 L 480 416 L 481 417 L 483 432 L 484 433 L 484 436 L 485 437 L 485 441 L 483 444 L 483 446 L 480 453 L 480 456 L 479 457 L 479 472 L 480 473 L 480 476 L 483 483 L 490 491 L 494 493 L 499 494 L 501 496 L 501 500 L 504 507 L 504 511 L 505 512 L 505 515 L 506 516 L 506 521 L 504 523 L 502 522 L 501 524 L 504 530 L 504 532 L 507 537 L 509 544 L 507 546 L 505 546 L 501 543 L 499 544 L 502 548 L 502 550 L 506 557 L 506 559 L 508 562 L 508 564 L 510 567 L 511 571 L 509 573 L 508 573 L 505 570 L 503 571 L 507 580 L 504 583 L 504 587 L 505 588 L 505 612 L 504 613 L 504 621 L 503 622 L 502 631 L 499 635 L 499 637 L 507 641 L 511 645 L 512 645 L 516 650 L 518 654 L 518 657 L 519 658 L 519 668 L 518 669 L 518 671 L 517 673 L 511 679 L 506 680 L 504 678 L 505 671 L 504 670 L 504 666 L 503 665 L 503 663 L 499 659 L 497 659 L 496 661 L 497 662 L 497 665 L 498 666 L 498 679 L 493 683 L 480 684 L 478 682 L 478 668 L 477 667 L 476 663 L 473 661 L 472 661 L 470 663 L 470 666 L 471 667 L 471 675 L 472 676 L 472 681 L 469 685 L 448 685 L 446 683 L 446 668 L 445 667 L 445 664 L 444 663 L 441 663 L 439 666 L 439 677 L 440 678 L 440 683 L 438 685 L 435 685 L 434 684 L 426 684 L 425 683 L 420 683 L 419 682 L 412 681 L 404 677 L 399 672 L 397 668 L 397 653 L 398 652 L 398 649 L 399 648 L 399 633 L 394 634 L 392 631 L 392 615 L 388 612 L 388 597 L 385 598 L 383 596 L 383 592 L 381 588 L 381 584 L 380 583 L 379 578 L 376 574 L 376 572 L 378 570 L 382 569 L 384 567 L 384 566 L 382 564 L 378 564 L 377 565 L 371 565 L 370 566 L 364 566 L 363 567 L 356 567 L 355 566 L 349 566 L 348 565 L 342 565 L 341 564 L 331 563 L 330 562 L 323 561 L 322 560 L 316 559 L 315 558 L 312 558 L 311 560 L 316 564 L 320 566 L 325 567 L 328 569 L 339 571 L 341 573 L 340 581 L 338 585 L 338 598 L 336 600 L 335 600 L 333 598 L 332 599 L 332 609 L 333 610 L 333 626 L 332 627 L 332 631 L 331 632 L 326 631 L 326 635 L 327 636 L 327 643 L 328 644 L 328 652 L 327 653 L 327 658 L 324 664 L 317 669 L 311 670 L 310 671 L 306 671 L 305 672 L 300 672 L 299 673 L 293 673 L 292 674 L 283 674 L 282 675 L 276 675 L 275 676 L 241 676 L 238 672 L 239 660 L 240 659 L 241 655 L 239 653 L 238 653 L 235 656 L 233 660 L 233 663 L 232 664 L 232 669 L 233 670 L 233 673 L 231 675 L 229 674 L 222 674 L 221 673 L 218 673 L 214 670 L 214 658 L 217 651 L 216 649 L 214 649 L 209 655 L 209 658 L 208 659 L 208 666 L 209 668 L 207 670 L 205 670 L 199 665 L 198 663 L 198 660 L 197 659 L 197 653 L 198 652 L 198 649 L 199 648 L 200 643 L 202 641 L 202 640 L 208 634 L 215 630 L 223 629 L 224 628 L 232 628 L 234 627 L 234 624 L 232 622 L 231 616 L 230 615 L 229 609 L 228 608 L 227 598 L 225 595 L 225 588 L 222 585 L 222 580 L 223 579 L 224 570 L 219 572 L 217 570 L 218 562 L 220 558 L 220 555 L 222 551 L 222 548 L 224 545 L 224 543 L 223 542 L 220 544 L 219 544 L 217 542 L 217 539 L 224 525 L 224 524 L 220 524 L 218 522 L 218 520 L 224 509 L 225 503 L 227 501 L 231 503 L 232 501 L 231 500 L 230 495 L 226 488 L 226 485 L 225 484 L 225 478 L 223 478 L 221 480 L 220 480 L 218 478 L 218 462 L 219 461 L 219 455 L 218 455 L 216 457 L 214 457 L 213 456 L 213 448 L 214 447 L 214 443 L 215 442 L 215 439 L 216 438 L 217 432 L 220 426 L 218 425 L 215 427 L 213 427 L 211 425 L 211 423 L 218 407 L 220 405 L 221 402 L 226 395 L 224 394 L 223 395 L 218 396 L 216 394 L 216 392 L 220 387 L 220 386 L 232 372 L 231 370 L 230 371 L 226 371 L 224 369 L 224 367 L 234 353 L 234 349 L 235 348 L 236 341 L 237 340 L 237 338 L 238 337 L 238 335 L 239 334 L 239 332 L 240 331 L 242 324 L 241 323 L 238 323 L 236 325 L 233 331 L 232 336 L 229 340 L 219 339 L 218 338 L 216 338 L 213 335 L 216 332 L 213 330 L 204 330 L 203 329 L 199 329 L 198 328 L 196 328 L 194 326 L 194 324 L 198 321 L 196 319 L 192 319 L 191 318 L 182 317 L 181 316 L 178 316 L 175 314 L 171 313 L 168 310 L 168 309 L 172 306 L 175 306 L 175 304 L 174 303 L 158 299 L 148 294 L 143 289 L 143 288 L 145 286 L 147 286 L 150 284 L 148 282 L 142 279 L 133 272 L 132 272 L 123 263 L 122 263 L 114 254 L 114 253 L 109 247 L 108 244 L 104 239 L 98 227 L 98 225 L 94 218 L 94 216 L 91 213 L 80 208 L 78 206 L 75 205 L 72 202 L 68 200 L 65 197 L 64 197 L 56 189 L 56 188 L 50 181 L 50 173 L 56 167 L 58 167 L 61 165 L 60 162 L 58 160 L 57 157 L 52 150 L 52 143 L 53 141 L 59 136 L 67 136 L 68 137 L 71 137 L 73 138 L 79 143 L 82 144 L 69 123 L 69 117 L 70 115 L 73 112 L 77 111 L 78 110 L 86 112 L 88 114 L 92 116 L 99 123 L 102 128 L 104 129 L 103 121 L 102 120 L 102 109 L 103 107 L 109 101 L 115 101 L 117 102 L 123 108 L 131 123 L 131 125 L 133 127 L 135 126 L 138 120 L 142 116 L 146 115 L 147 114 L 149 115 L 152 115 L 158 121 L 161 126 L 161 129 L 162 130 L 162 148 L 161 149 L 161 152 L 159 155 L 159 158 L 177 179 L 177 180 L 184 187 L 184 188 L 189 193 L 190 193 L 193 189 L 195 189 L 198 192 L 198 193 L 202 198 L 203 201 L 212 213 L 213 212 L 213 206 L 215 204 L 217 204 L 223 209 L 228 220 L 230 222 L 231 222 L 232 220 L 232 217 L 234 215 L 236 216 L 243 223 L 246 229 L 249 232 L 250 232 L 250 229 L 252 227 L 254 227 L 265 238 L 269 245 L 271 247 L 272 247 L 274 245 L 274 242 L 272 238 L 270 236 L 268 232 L 264 228 L 264 227 L 260 223 L 256 222 L 254 220 L 252 215 L 247 216 L 243 212 L 240 205 L 240 194 L 239 193 L 238 194 L 235 194 L 232 191 L 232 181 L 233 180 L 233 177 L 234 176 L 234 172 L 229 173 L 227 171 L 227 166 L 228 165 L 228 163 L 234 152 L 233 151 L 227 152 L 224 149 L 224 147 L 236 133 L 236 131 L 235 130 L 235 122 L 240 113 L 240 111 L 244 103 L 242 101 L 240 101 L 235 98 L 227 90 L 224 85 L 224 83 L 222 79 L 222 70 L 223 69 L 223 64 L 228 54 L 235 47 L 236 47 L 241 43 L 245 42 L 248 40 L 253 40 L 254 39 L 259 39 L 260 40 L 263 40 L 269 43 L 271 45 L 272 45 L 280 54 L 281 54 L 284 51 L 285 51 L 288 48 L 291 47 L 293 45 L 297 44 L 300 42 L 302 42 L 304 40 L 304 39 L 308 36 L 325 35 L 326 33 L 323 29 L 323 25 L 325 23 L 329 23 L 330 24 L 332 24 L 340 28 L 342 30 L 344 30 L 350 23 L 357 19 L 359 19 L 361 21 L 361 24 L 359 27 L 359 30 L 360 31 L 361 30 L 364 30 L 365 29 L 381 29 L 382 30 L 386 30 L 387 31 L 396 32 L 402 35 L 406 35 L 406 32 L 409 26 L 412 23 L 412 22 L 419 16 L 427 12 L 431 12 L 432 11 L 444 11 L 445 12 Z" fill="#010101" fill-rule="evenodd"/></svg>