<svg xmlns="http://www.w3.org/2000/svg" viewBox="0 0 653 704" shape-rendering="geometricPrecision"><title>intro frame 037</title><path d="M 427 394 L 425 400 L 423 402 L 421 402 L 416 406 L 416 409 L 417 412 L 421 416 L 427 419 L 430 419 L 430 413 L 433 411 L 429 407 L 429 404 L 431 402 L 434 402 L 435 399 L 434 397 L 431 395 Z M 68 172 L 66 172 L 64 174 L 62 178 L 63 182 L 64 182 L 64 178 L 69 173 Z M 272 159 L 272 173 L 274 177 L 280 182 L 288 182 L 295 177 L 293 174 L 291 173 L 287 173 L 282 170 L 277 165 L 273 159 Z M 121 145 L 117 147 L 112 143 L 112 148 L 111 150 L 105 155 L 97 155 L 93 157 L 93 164 L 87 172 L 84 174 L 82 174 L 86 180 L 86 185 L 87 185 L 88 180 L 94 169 L 105 158 L 116 151 L 125 151 L 124 148 Z M 139 138 L 138 146 L 134 150 L 130 152 L 138 157 L 145 164 L 148 170 L 148 174 L 149 175 L 149 179 L 147 185 L 139 194 L 134 198 L 132 198 L 125 203 L 110 209 L 101 209 L 96 207 L 92 204 L 87 197 L 87 191 L 81 196 L 76 198 L 80 201 L 90 212 L 94 214 L 101 221 L 102 224 L 104 226 L 104 228 L 107 232 L 111 235 L 123 251 L 136 265 L 139 266 L 152 278 L 162 285 L 164 285 L 168 288 L 175 290 L 180 293 L 187 294 L 191 296 L 193 298 L 194 302 L 192 304 L 189 305 L 190 307 L 201 306 L 206 312 L 209 312 L 213 314 L 215 313 L 226 313 L 228 315 L 228 318 L 222 324 L 219 325 L 219 326 L 221 327 L 231 328 L 235 325 L 235 322 L 238 318 L 238 313 L 240 310 L 240 305 L 245 297 L 245 293 L 253 284 L 253 280 L 258 274 L 258 272 L 260 270 L 260 264 L 258 261 L 258 259 L 252 252 L 248 257 L 244 255 L 237 243 L 230 244 L 226 240 L 224 232 L 219 224 L 218 224 L 217 232 L 215 234 L 212 233 L 206 226 L 204 221 L 202 219 L 202 217 L 199 211 L 197 209 L 197 207 L 196 207 L 196 209 L 193 212 L 191 212 L 185 206 L 180 197 L 176 193 L 167 180 L 161 174 L 161 168 L 163 165 L 163 162 L 164 161 L 164 154 L 163 154 L 162 157 L 158 162 L 156 162 L 153 164 L 148 162 L 142 155 L 142 147 L 143 145 L 140 140 L 140 138 Z M 200 298 L 206 290 L 214 290 L 217 292 L 217 295 L 218 296 L 216 298 L 211 300 L 202 300 Z M 202 264 L 205 267 L 205 269 L 203 272 L 207 275 L 206 277 L 200 282 L 200 286 L 197 288 L 195 286 L 198 280 L 198 274 L 196 272 L 199 270 L 200 265 Z M 439 39 L 429 39 L 428 40 L 425 40 L 416 45 L 410 51 L 408 55 L 408 59 L 405 62 L 396 59 L 393 59 L 389 57 L 383 57 L 382 56 L 371 55 L 370 54 L 356 57 L 353 54 L 353 51 L 355 47 L 351 47 L 350 49 L 344 54 L 339 54 L 334 50 L 327 47 L 326 48 L 326 52 L 327 53 L 327 56 L 321 59 L 313 59 L 312 58 L 309 58 L 307 60 L 307 62 L 304 65 L 295 66 L 293 68 L 290 69 L 281 77 L 274 78 L 269 70 L 264 66 L 260 64 L 253 63 L 252 64 L 246 64 L 235 69 L 229 74 L 224 83 L 224 86 L 223 87 L 223 100 L 225 104 L 232 112 L 235 113 L 241 113 L 243 115 L 243 121 L 234 141 L 234 147 L 235 148 L 234 153 L 223 165 L 224 166 L 227 164 L 230 164 L 233 167 L 232 171 L 230 173 L 226 181 L 226 184 L 230 184 L 232 183 L 234 185 L 234 189 L 230 197 L 230 205 L 237 204 L 240 207 L 239 209 L 239 224 L 240 226 L 244 223 L 247 224 L 249 226 L 250 231 L 252 233 L 255 234 L 266 246 L 273 248 L 276 251 L 286 256 L 291 262 L 293 268 L 290 271 L 288 271 L 281 266 L 274 264 L 265 274 L 263 281 L 259 285 L 260 287 L 260 291 L 250 300 L 252 303 L 252 306 L 247 313 L 247 318 L 245 321 L 244 326 L 241 332 L 242 337 L 238 344 L 236 352 L 239 351 L 242 348 L 247 346 L 249 344 L 253 345 L 255 347 L 255 349 L 252 355 L 246 361 L 231 372 L 227 378 L 227 380 L 231 384 L 231 388 L 221 399 L 220 402 L 218 404 L 219 405 L 224 404 L 227 407 L 224 415 L 219 421 L 215 429 L 216 432 L 217 431 L 220 431 L 222 433 L 222 438 L 221 439 L 221 442 L 219 445 L 218 453 L 217 454 L 217 459 L 216 460 L 217 460 L 223 453 L 225 453 L 227 455 L 227 460 L 225 465 L 225 471 L 224 472 L 224 478 L 223 480 L 229 475 L 232 478 L 232 494 L 234 497 L 235 503 L 239 509 L 240 509 L 244 504 L 246 504 L 247 507 L 250 506 L 258 510 L 264 517 L 269 513 L 270 509 L 273 505 L 275 505 L 277 503 L 279 503 L 289 498 L 294 494 L 312 489 L 324 483 L 327 483 L 328 482 L 342 481 L 347 479 L 351 479 L 354 477 L 372 478 L 373 479 L 378 479 L 380 481 L 384 481 L 388 484 L 393 490 L 390 494 L 386 491 L 379 491 L 376 490 L 375 491 L 364 491 L 363 492 L 358 492 L 357 493 L 352 493 L 351 494 L 346 494 L 345 495 L 340 495 L 336 497 L 333 497 L 330 499 L 327 499 L 322 502 L 307 507 L 304 507 L 302 509 L 303 510 L 303 513 L 301 516 L 296 518 L 291 523 L 289 523 L 287 525 L 284 525 L 278 527 L 276 529 L 280 533 L 279 537 L 273 542 L 269 543 L 263 548 L 263 550 L 261 552 L 258 560 L 254 564 L 251 570 L 251 572 L 247 577 L 247 579 L 243 584 L 241 584 L 237 588 L 239 595 L 246 605 L 247 608 L 246 611 L 242 610 L 238 606 L 236 606 L 234 604 L 228 601 L 226 601 L 218 595 L 202 588 L 193 588 L 192 589 L 188 589 L 186 588 L 183 590 L 184 592 L 192 591 L 199 597 L 199 599 L 205 604 L 213 605 L 217 609 L 217 616 L 216 617 L 216 622 L 217 624 L 225 631 L 229 633 L 237 641 L 241 643 L 246 648 L 250 649 L 262 656 L 265 656 L 268 654 L 268 653 L 272 651 L 274 648 L 282 643 L 291 633 L 293 633 L 296 629 L 298 629 L 305 623 L 309 614 L 332 592 L 339 587 L 344 581 L 348 581 L 352 578 L 359 570 L 368 567 L 381 556 L 384 555 L 393 546 L 396 544 L 399 544 L 404 540 L 407 539 L 414 526 L 414 524 L 417 518 L 426 506 L 428 506 L 430 508 L 430 517 L 434 512 L 436 511 L 437 512 L 441 507 L 441 504 L 450 494 L 452 494 L 454 492 L 457 483 L 457 477 L 455 474 L 450 474 L 440 463 L 440 453 L 442 449 L 439 445 L 440 448 L 438 450 L 430 450 L 429 449 L 426 449 L 426 452 L 436 462 L 436 464 L 433 466 L 430 464 L 426 464 L 423 462 L 420 462 L 411 454 L 409 449 L 404 446 L 400 442 L 400 438 L 401 437 L 404 437 L 409 441 L 412 441 L 418 446 L 423 447 L 427 444 L 427 442 L 430 439 L 430 436 L 426 432 L 425 429 L 423 427 L 417 424 L 412 424 L 407 421 L 405 421 L 402 418 L 402 415 L 408 410 L 408 405 L 405 402 L 391 402 L 389 400 L 384 400 L 383 399 L 381 399 L 379 401 L 374 401 L 370 397 L 370 391 L 374 387 L 377 387 L 378 386 L 382 386 L 386 389 L 402 390 L 412 396 L 413 395 L 413 390 L 412 388 L 408 385 L 405 385 L 402 382 L 402 379 L 403 378 L 406 378 L 406 375 L 401 371 L 396 371 L 393 373 L 390 369 L 389 370 L 388 369 L 388 365 L 389 364 L 387 361 L 386 356 L 381 349 L 376 344 L 374 344 L 372 342 L 369 342 L 366 344 L 362 343 L 357 340 L 355 340 L 351 336 L 348 335 L 346 333 L 344 333 L 342 335 L 341 339 L 336 344 L 335 344 L 332 340 L 333 331 L 341 328 L 343 325 L 341 322 L 341 318 L 338 314 L 334 311 L 334 307 L 338 302 L 340 301 L 345 301 L 349 304 L 348 310 L 345 315 L 345 319 L 347 322 L 352 324 L 363 335 L 366 336 L 367 335 L 367 332 L 369 330 L 371 330 L 374 332 L 378 332 L 385 341 L 393 349 L 396 350 L 403 347 L 408 348 L 408 345 L 404 339 L 393 326 L 393 324 L 395 322 L 397 322 L 404 329 L 409 332 L 420 343 L 423 348 L 423 354 L 421 356 L 417 356 L 411 353 L 413 358 L 406 364 L 406 366 L 409 368 L 409 371 L 412 372 L 414 374 L 415 377 L 418 377 L 422 382 L 426 382 L 427 381 L 429 382 L 433 382 L 440 386 L 446 394 L 446 407 L 448 413 L 446 415 L 442 416 L 441 419 L 447 426 L 447 429 L 445 431 L 442 432 L 447 440 L 449 439 L 448 437 L 448 432 L 447 431 L 449 428 L 448 425 L 451 421 L 454 421 L 466 428 L 469 428 L 470 426 L 459 414 L 457 410 L 452 406 L 451 401 L 455 398 L 455 391 L 453 388 L 452 388 L 435 372 L 437 363 L 439 361 L 441 361 L 441 358 L 438 349 L 438 342 L 441 338 L 449 338 L 442 331 L 441 326 L 443 324 L 447 324 L 450 326 L 456 328 L 459 328 L 460 329 L 471 329 L 472 330 L 485 330 L 486 329 L 495 329 L 497 330 L 499 329 L 501 331 L 504 331 L 511 335 L 515 335 L 517 337 L 523 339 L 540 353 L 547 357 L 551 357 L 554 361 L 554 369 L 553 370 L 554 375 L 557 378 L 563 378 L 564 379 L 566 378 L 568 372 L 572 369 L 577 369 L 578 370 L 581 369 L 589 369 L 592 365 L 597 365 L 598 366 L 598 369 L 600 367 L 600 365 L 604 362 L 610 362 L 612 363 L 614 361 L 614 355 L 616 352 L 615 347 L 618 344 L 621 343 L 627 343 L 633 348 L 633 344 L 630 340 L 629 335 L 625 331 L 624 326 L 620 321 L 615 317 L 615 316 L 603 307 L 600 303 L 600 301 L 597 297 L 597 295 L 591 293 L 586 288 L 586 285 L 581 279 L 574 278 L 568 275 L 566 275 L 560 269 L 560 265 L 558 263 L 537 262 L 534 259 L 534 256 L 532 254 L 529 253 L 522 253 L 519 255 L 512 255 L 508 251 L 509 250 L 509 247 L 508 246 L 494 249 L 486 252 L 481 252 L 479 250 L 479 246 L 472 246 L 463 249 L 460 251 L 457 251 L 454 253 L 451 253 L 448 255 L 446 255 L 441 258 L 437 259 L 431 263 L 428 264 L 419 264 L 413 270 L 409 270 L 407 268 L 406 265 L 404 267 L 404 269 L 399 274 L 396 272 L 397 262 L 399 259 L 406 252 L 409 251 L 415 244 L 417 243 L 419 244 L 422 241 L 422 238 L 424 236 L 427 238 L 430 238 L 429 228 L 433 225 L 433 222 L 435 220 L 437 220 L 440 217 L 442 217 L 442 214 L 439 209 L 439 207 L 441 205 L 444 205 L 448 208 L 450 207 L 449 206 L 449 197 L 451 195 L 456 196 L 452 189 L 452 187 L 454 185 L 457 184 L 454 180 L 452 174 L 455 172 L 460 174 L 464 174 L 465 173 L 467 174 L 473 174 L 474 173 L 474 167 L 476 165 L 479 165 L 482 167 L 483 165 L 474 156 L 469 148 L 469 145 L 471 143 L 475 143 L 476 141 L 471 137 L 469 137 L 464 132 L 464 125 L 465 123 L 463 120 L 463 118 L 461 116 L 461 114 L 459 112 L 455 104 L 446 95 L 446 93 L 449 90 L 455 88 L 462 81 L 465 75 L 465 61 L 461 54 L 451 44 L 448 42 Z M 251 473 L 253 472 L 256 475 L 257 482 L 259 486 L 262 487 L 264 484 L 264 482 L 266 480 L 269 481 L 273 485 L 272 501 L 270 503 L 266 501 L 263 498 L 263 496 L 261 494 L 259 494 L 259 496 L 257 498 L 254 496 L 254 491 L 251 490 L 249 488 L 248 485 L 248 477 Z M 341 467 L 340 470 L 337 473 L 332 473 L 331 472 L 332 469 L 334 469 L 338 466 Z M 249 445 L 250 446 L 249 458 L 247 464 L 244 468 L 242 466 L 242 454 L 245 448 Z M 365 430 L 372 436 L 375 445 L 373 448 L 373 451 L 371 453 L 368 453 L 366 456 L 367 460 L 364 462 L 361 466 L 360 466 L 358 464 L 358 459 L 360 457 L 363 456 L 362 455 L 362 450 L 360 447 L 359 442 L 360 441 L 360 437 L 362 435 L 362 432 Z M 377 417 L 380 417 L 385 422 L 385 425 L 383 430 L 380 429 L 376 421 L 376 418 Z M 249 409 L 251 411 L 250 413 L 250 417 L 243 427 L 248 430 L 248 434 L 241 444 L 237 448 L 234 448 L 233 447 L 233 444 L 241 431 L 238 430 L 235 426 L 237 423 L 238 419 L 246 410 Z M 269 388 L 268 391 L 262 395 L 258 395 L 256 393 L 256 390 L 261 386 L 266 385 Z M 310 379 L 310 382 L 308 383 L 303 389 L 299 389 L 297 390 L 295 388 L 295 386 L 304 378 L 309 378 Z M 352 371 L 356 371 L 361 379 L 357 384 L 358 400 L 355 403 L 350 399 L 350 396 L 344 389 L 342 385 L 342 381 L 343 379 Z M 326 365 L 328 368 L 327 371 L 325 373 L 325 375 L 322 377 L 320 374 L 320 370 L 324 365 Z M 297 360 L 298 361 L 297 366 L 292 370 L 292 371 L 290 372 L 283 380 L 279 383 L 274 385 L 272 383 L 272 380 L 286 367 L 287 363 L 289 361 Z M 338 358 L 341 361 L 341 366 L 340 367 L 340 370 L 338 372 L 337 377 L 335 380 L 334 387 L 331 391 L 328 388 L 328 385 L 327 384 L 328 382 L 328 375 L 330 373 L 330 370 L 332 367 L 332 364 L 334 360 L 336 358 Z M 273 357 L 278 351 L 281 350 L 287 350 L 289 352 L 289 354 L 283 359 L 279 359 Z M 321 349 L 320 351 L 320 355 L 318 357 L 315 357 L 311 359 L 309 358 L 305 359 L 303 357 L 311 348 L 318 346 Z M 285 329 L 287 331 L 287 334 L 276 345 L 273 346 L 271 344 L 271 341 L 272 340 L 272 337 L 274 334 L 280 329 Z M 361 317 L 365 317 L 368 318 L 370 320 L 371 326 L 367 331 L 362 329 L 359 325 L 359 319 Z M 325 318 L 325 321 L 322 325 L 316 330 L 312 330 L 306 334 L 302 334 L 299 336 L 297 336 L 294 333 L 294 331 L 300 324 L 301 321 L 307 316 L 312 321 L 315 318 L 317 318 L 319 316 L 322 315 Z M 402 297 L 406 297 L 409 300 L 410 303 L 413 302 L 415 304 L 419 305 L 427 314 L 430 323 L 429 324 L 429 331 L 426 337 L 424 338 L 415 334 L 408 328 L 405 327 L 401 322 L 400 319 L 403 316 L 408 317 L 411 319 L 418 319 L 418 314 L 412 308 L 409 308 L 408 309 L 405 308 L 404 309 L 401 306 L 400 299 Z M 392 260 L 391 266 L 382 274 L 377 281 L 375 281 L 367 288 L 367 289 L 371 288 L 374 290 L 375 289 L 375 284 L 377 282 L 379 282 L 381 284 L 381 289 L 383 291 L 383 299 L 381 301 L 378 301 L 375 303 L 365 303 L 361 298 L 358 297 L 356 295 L 354 295 L 351 297 L 346 297 L 332 290 L 329 287 L 316 279 L 309 271 L 309 267 L 311 265 L 322 265 L 326 267 L 331 267 L 332 268 L 344 268 L 345 267 L 352 267 L 353 266 L 357 266 L 358 265 L 369 263 L 375 260 L 381 259 L 385 257 L 389 257 Z M 374 146 L 379 140 L 385 136 L 388 135 L 394 135 L 395 134 L 402 134 L 403 135 L 407 135 L 408 136 L 414 137 L 419 140 L 426 148 L 426 156 L 425 158 L 418 164 L 415 164 L 410 166 L 396 165 L 384 161 L 378 157 L 375 153 Z M 333 128 L 333 132 L 331 134 L 323 133 L 322 132 L 313 132 L 312 131 L 310 132 L 298 133 L 296 131 L 297 128 L 302 124 L 307 122 L 315 122 L 316 121 L 325 122 L 329 124 Z M 279 115 L 283 115 L 285 116 L 289 122 L 290 129 L 289 130 L 288 137 L 291 137 L 292 136 L 307 136 L 308 137 L 311 137 L 322 142 L 326 148 L 326 154 L 324 159 L 317 167 L 309 171 L 306 174 L 306 175 L 309 177 L 311 177 L 317 180 L 321 180 L 322 181 L 331 181 L 335 179 L 338 179 L 349 174 L 357 167 L 357 165 L 361 161 L 365 161 L 371 168 L 372 171 L 372 181 L 373 182 L 373 197 L 372 198 L 371 210 L 369 214 L 368 220 L 362 233 L 351 244 L 341 250 L 338 251 L 327 251 L 321 249 L 311 243 L 297 229 L 291 221 L 289 216 L 286 213 L 286 211 L 283 206 L 283 202 L 282 201 L 282 196 L 279 192 L 275 191 L 270 188 L 263 181 L 263 179 L 261 177 L 261 168 L 260 167 L 253 174 L 247 177 L 240 177 L 235 172 L 234 169 L 234 163 L 237 157 L 246 149 L 252 147 L 257 147 L 260 148 L 265 152 L 267 151 L 271 152 L 273 144 L 269 139 L 269 128 L 271 122 Z M 362 110 L 368 110 L 372 113 L 376 122 L 376 131 L 375 132 L 375 135 L 373 139 L 370 142 L 365 144 L 361 143 L 356 138 L 354 134 L 354 120 L 357 114 Z M 290 76 L 295 82 L 294 86 L 292 88 L 284 92 L 280 96 L 275 97 L 271 93 L 271 89 L 273 85 L 282 77 Z M 258 76 L 264 82 L 265 87 L 258 95 L 249 108 L 247 109 L 242 109 L 234 100 L 233 91 L 237 83 L 243 77 L 247 75 L 255 75 Z M 358 70 L 363 66 L 370 66 L 379 71 L 384 76 L 385 81 L 381 86 L 377 86 L 370 81 L 362 79 L 358 75 Z M 433 50 L 440 50 L 444 52 L 451 59 L 455 68 L 455 74 L 453 79 L 446 86 L 442 88 L 438 86 L 427 75 L 419 69 L 419 63 L 421 60 L 429 52 Z" fill="#FBFBFB" fill-rule="evenodd"/><path d="M 369 611 L 364 612 L 354 622 L 342 629 L 336 636 L 331 644 L 322 654 L 324 653 L 324 652 L 336 639 L 336 637 L 342 629 L 357 620 L 357 619 L 364 613 Z M 526 587 L 529 589 L 534 589 L 535 588 L 531 586 L 527 586 Z M 238 559 L 219 580 L 217 581 L 216 580 L 213 580 L 218 581 L 224 575 L 225 575 L 229 569 Z M 280 526 L 273 528 L 273 529 L 279 534 L 277 538 L 273 541 L 276 539 L 279 535 L 279 533 L 275 529 L 278 526 Z M 505 504 L 503 506 L 503 510 L 501 515 L 501 518 L 503 520 L 503 523 L 506 525 L 510 525 L 513 527 L 516 527 L 518 524 L 518 518 L 514 511 L 509 506 Z M 313 504 L 300 507 L 302 510 L 302 513 L 299 516 L 292 518 L 288 523 L 285 524 L 291 522 L 296 517 L 301 515 L 302 513 L 302 510 L 301 509 L 304 506 L 307 506 Z M 392 490 L 390 487 L 384 482 L 380 482 L 378 480 L 375 480 L 377 480 L 380 482 L 382 482 L 384 484 L 386 484 L 391 490 L 389 492 L 386 490 L 383 490 L 382 489 L 363 490 L 362 491 L 339 494 L 336 496 L 333 496 L 318 502 L 322 501 L 327 498 L 330 498 L 333 496 L 336 496 L 340 494 L 345 494 L 346 493 L 351 493 L 352 492 L 357 492 L 358 491 L 363 491 L 364 490 L 375 490 L 378 489 L 379 490 L 386 490 L 390 493 Z M 251 474 L 249 477 L 249 485 L 250 488 L 253 489 L 255 491 L 255 496 L 257 497 L 258 494 L 261 493 L 264 496 L 264 498 L 270 502 L 271 501 L 271 494 L 272 493 L 272 485 L 269 482 L 266 481 L 264 486 L 262 488 L 259 487 L 257 485 L 255 475 L 253 473 Z M 528 467 L 528 469 L 523 477 L 514 486 L 514 489 L 518 493 L 515 489 L 515 486 L 525 475 L 525 473 L 527 471 Z M 340 467 L 338 467 L 336 469 L 332 470 L 332 472 L 337 472 L 339 470 Z M 216 461 L 216 462 L 217 462 L 223 455 L 225 457 L 225 464 L 224 465 L 224 471 L 223 472 L 223 477 L 222 478 L 222 484 L 223 485 L 228 478 L 231 480 L 231 494 L 234 503 L 241 515 L 249 522 L 250 522 L 251 517 L 253 515 L 256 518 L 256 520 L 259 522 L 263 518 L 267 516 L 271 511 L 279 504 L 289 499 L 291 497 L 289 499 L 279 504 L 277 504 L 275 506 L 273 506 L 271 509 L 270 513 L 264 518 L 258 512 L 258 511 L 250 507 L 247 508 L 245 506 L 246 505 L 244 505 L 241 509 L 239 510 L 236 507 L 233 500 L 233 497 L 231 494 L 231 478 L 229 476 L 224 481 L 222 480 L 223 478 L 223 472 L 224 471 L 224 465 L 226 460 L 226 455 L 223 454 L 219 459 Z M 249 446 L 246 448 L 243 454 L 243 466 L 244 467 L 248 458 Z M 365 431 L 363 432 L 363 435 L 361 437 L 361 441 L 360 442 L 361 447 L 363 450 L 363 455 L 364 456 L 362 458 L 359 459 L 359 464 L 360 465 L 366 460 L 365 458 L 366 454 L 368 452 L 371 452 L 372 451 L 372 448 L 374 445 L 371 436 Z M 377 418 L 377 421 L 380 428 L 383 429 L 384 422 L 380 418 Z M 249 410 L 246 411 L 238 421 L 238 423 L 236 426 L 238 429 L 240 429 L 242 431 L 239 435 L 239 437 L 236 440 L 234 444 L 234 447 L 237 447 L 247 434 L 247 430 L 244 429 L 242 427 L 249 417 L 249 413 L 250 412 Z M 242 435 L 243 438 L 239 441 L 238 439 Z M 244 417 L 246 419 L 244 422 L 241 424 L 240 422 Z M 268 388 L 266 386 L 261 387 L 257 390 L 257 393 L 258 394 L 262 394 L 266 392 Z M 309 379 L 304 379 L 301 381 L 296 386 L 296 388 L 297 389 L 299 388 L 303 388 L 307 383 L 309 382 Z M 352 372 L 350 373 L 345 379 L 344 379 L 343 381 L 343 385 L 345 389 L 351 396 L 351 399 L 355 402 L 357 400 L 356 384 L 360 379 L 356 372 Z M 353 376 L 355 378 L 352 381 L 350 379 Z M 326 366 L 324 366 L 321 370 L 321 374 L 322 376 L 324 375 L 324 373 L 326 371 L 327 368 Z M 297 361 L 289 362 L 287 367 L 273 380 L 273 383 L 275 384 L 283 379 L 285 376 L 296 366 Z M 338 359 L 335 360 L 333 364 L 333 367 L 331 370 L 331 373 L 329 375 L 329 382 L 328 384 L 329 385 L 329 388 L 331 390 L 333 387 L 334 380 L 336 377 L 337 372 L 339 370 L 339 367 L 340 366 L 340 361 Z M 501 360 L 503 359 L 507 361 L 510 364 L 514 366 L 517 366 L 519 368 L 522 369 L 525 368 L 527 369 L 529 368 L 538 368 L 540 370 L 539 379 L 543 387 L 554 398 L 561 402 L 565 402 L 566 403 L 576 403 L 580 400 L 583 401 L 589 401 L 590 402 L 598 402 L 602 400 L 608 399 L 614 393 L 624 387 L 616 391 L 608 399 L 593 402 L 592 401 L 586 401 L 583 399 L 581 399 L 575 403 L 566 403 L 556 399 L 545 389 L 540 382 L 539 379 L 540 370 L 538 368 L 535 368 L 534 367 L 531 367 L 530 368 L 521 368 L 518 366 L 515 366 L 510 362 L 507 361 L 504 358 Z M 288 352 L 287 351 L 281 351 L 278 352 L 274 357 L 283 358 L 288 354 Z M 320 349 L 318 347 L 311 349 L 304 357 L 305 358 L 308 357 L 311 358 L 315 356 L 318 356 L 319 355 L 319 351 Z M 251 345 L 249 345 L 237 353 L 235 352 L 235 350 L 236 348 L 235 350 L 235 354 L 237 355 L 247 347 L 250 347 L 252 349 L 250 355 L 241 363 L 235 366 L 225 379 L 225 383 L 228 382 L 230 384 L 230 387 L 215 406 L 218 407 L 223 405 L 225 407 L 225 411 L 215 426 L 215 428 L 212 434 L 213 436 L 219 432 L 221 434 L 221 438 L 221 433 L 220 432 L 217 432 L 216 433 L 214 431 L 214 429 L 218 421 L 223 415 L 226 408 L 224 405 L 219 406 L 217 404 L 219 402 L 220 399 L 230 388 L 230 384 L 226 380 L 226 378 L 232 370 L 236 368 L 251 355 L 254 349 L 254 347 Z M 285 330 L 280 330 L 275 334 L 273 337 L 273 340 L 272 341 L 272 344 L 273 345 L 276 344 L 286 334 L 286 331 Z M 361 318 L 360 319 L 360 325 L 362 328 L 367 330 L 370 326 L 369 320 L 365 318 Z M 324 318 L 322 316 L 319 317 L 317 319 L 315 319 L 312 322 L 307 317 L 305 318 L 295 331 L 295 333 L 297 335 L 299 335 L 302 333 L 306 333 L 312 329 L 316 329 L 320 326 L 324 321 Z M 305 323 L 307 325 L 307 328 L 303 331 L 301 329 L 301 327 Z M 634 345 L 634 348 L 633 349 L 627 344 L 621 344 L 618 345 L 616 347 L 617 352 L 615 355 L 615 361 L 612 364 L 610 363 L 604 363 L 601 365 L 601 367 L 598 370 L 597 369 L 597 366 L 592 366 L 589 370 L 581 370 L 580 371 L 572 370 L 569 372 L 567 378 L 564 380 L 563 379 L 557 379 L 553 375 L 553 372 L 552 371 L 553 369 L 553 361 L 551 358 L 547 358 L 540 354 L 523 340 L 519 339 L 515 336 L 511 336 L 504 332 L 501 332 L 499 330 L 497 331 L 495 330 L 486 330 L 485 331 L 460 330 L 459 329 L 456 329 L 450 327 L 447 325 L 443 325 L 442 326 L 443 331 L 450 338 L 449 339 L 441 339 L 439 342 L 439 349 L 440 350 L 440 354 L 442 358 L 442 361 L 438 363 L 436 372 L 452 387 L 453 387 L 456 391 L 456 398 L 452 401 L 453 406 L 458 410 L 460 414 L 471 426 L 469 429 L 466 429 L 454 422 L 451 422 L 449 425 L 450 428 L 448 431 L 449 432 L 449 437 L 450 439 L 447 441 L 441 433 L 443 430 L 446 429 L 446 426 L 440 419 L 440 417 L 442 415 L 444 415 L 447 413 L 445 407 L 445 394 L 440 387 L 433 383 L 429 383 L 428 382 L 426 383 L 422 383 L 418 378 L 415 378 L 413 376 L 413 374 L 408 371 L 408 368 L 405 366 L 405 364 L 412 358 L 410 354 L 411 352 L 417 355 L 421 355 L 422 354 L 422 348 L 419 343 L 409 333 L 404 330 L 397 323 L 395 323 L 394 326 L 402 335 L 409 345 L 409 348 L 408 349 L 403 348 L 395 351 L 384 341 L 378 333 L 374 333 L 371 331 L 369 331 L 368 332 L 368 335 L 365 337 L 352 325 L 347 323 L 344 319 L 344 315 L 347 310 L 348 304 L 345 302 L 340 302 L 338 303 L 335 307 L 335 311 L 337 312 L 342 318 L 342 322 L 344 325 L 341 329 L 334 331 L 333 340 L 335 343 L 336 343 L 340 339 L 341 335 L 344 332 L 346 332 L 348 334 L 351 335 L 355 339 L 357 339 L 362 342 L 366 343 L 369 341 L 372 341 L 374 343 L 376 343 L 382 349 L 387 356 L 388 361 L 390 364 L 389 365 L 389 369 L 390 368 L 393 372 L 396 370 L 401 370 L 407 375 L 407 378 L 406 379 L 403 379 L 403 382 L 405 384 L 408 384 L 413 388 L 414 390 L 414 395 L 412 397 L 402 391 L 386 390 L 382 387 L 374 388 L 371 391 L 371 397 L 374 400 L 379 400 L 381 398 L 383 398 L 384 399 L 389 399 L 391 401 L 405 401 L 409 405 L 409 410 L 403 415 L 403 418 L 405 420 L 407 420 L 412 423 L 417 423 L 423 426 L 431 436 L 431 439 L 428 442 L 428 444 L 423 448 L 418 447 L 412 442 L 409 442 L 404 438 L 401 438 L 401 442 L 409 448 L 412 454 L 420 461 L 423 461 L 426 463 L 430 463 L 433 465 L 435 464 L 435 462 L 425 452 L 425 449 L 426 448 L 429 448 L 430 449 L 438 449 L 439 448 L 438 447 L 439 444 L 443 449 L 441 453 L 441 463 L 450 473 L 455 473 L 458 477 L 458 483 L 455 492 L 452 495 L 450 495 L 442 504 L 442 507 L 437 513 L 436 512 L 434 513 L 430 518 L 429 517 L 429 508 L 426 507 L 418 518 L 415 524 L 415 526 L 409 538 L 407 540 L 404 541 L 399 545 L 396 545 L 393 547 L 384 556 L 381 557 L 368 568 L 359 571 L 359 572 L 348 582 L 344 582 L 339 588 L 332 593 L 310 614 L 306 623 L 301 628 L 298 630 L 296 630 L 293 634 L 291 634 L 282 644 L 274 649 L 272 652 L 269 653 L 269 654 L 265 657 L 262 657 L 258 654 L 246 649 L 241 644 L 237 642 L 229 634 L 220 628 L 215 622 L 216 609 L 213 606 L 205 605 L 202 603 L 194 593 L 192 592 L 184 593 L 182 590 L 186 587 L 188 588 L 202 587 L 218 594 L 226 600 L 228 600 L 236 605 L 238 605 L 242 609 L 246 610 L 245 605 L 238 595 L 236 588 L 241 583 L 244 582 L 246 579 L 247 575 L 250 572 L 250 570 L 253 564 L 257 560 L 258 556 L 262 550 L 262 548 L 268 543 L 262 548 L 259 555 L 255 560 L 250 570 L 234 587 L 234 589 L 238 594 L 243 604 L 241 607 L 225 599 L 220 595 L 202 587 L 185 587 L 184 588 L 181 588 L 178 590 L 182 598 L 184 598 L 185 595 L 187 593 L 193 593 L 197 597 L 200 606 L 202 607 L 207 605 L 212 606 L 216 610 L 216 614 L 212 621 L 212 624 L 222 630 L 230 638 L 241 645 L 249 653 L 246 654 L 245 656 L 247 658 L 250 659 L 254 664 L 256 665 L 257 662 L 254 659 L 255 656 L 256 656 L 260 661 L 264 661 L 273 657 L 280 648 L 287 641 L 289 641 L 308 625 L 310 619 L 331 597 L 334 596 L 346 585 L 348 585 L 356 580 L 361 574 L 364 574 L 369 570 L 371 570 L 377 564 L 389 556 L 395 550 L 405 545 L 410 539 L 415 529 L 417 522 L 422 516 L 425 515 L 427 517 L 426 518 L 426 521 L 428 523 L 434 518 L 436 518 L 438 516 L 447 502 L 457 494 L 461 482 L 461 479 L 463 475 L 466 473 L 465 471 L 467 469 L 471 472 L 472 471 L 472 465 L 470 461 L 470 456 L 472 454 L 474 456 L 477 454 L 476 450 L 474 448 L 473 445 L 470 442 L 467 441 L 455 429 L 455 427 L 458 426 L 468 432 L 471 435 L 475 435 L 476 434 L 476 431 L 474 427 L 465 415 L 465 413 L 458 406 L 459 403 L 465 406 L 467 403 L 467 395 L 466 394 L 466 391 L 463 382 L 461 379 L 453 372 L 449 372 L 447 375 L 444 374 L 446 368 L 445 367 L 444 358 L 439 347 L 439 343 L 442 340 L 459 341 L 459 339 L 454 335 L 450 334 L 444 329 L 446 327 L 451 327 L 455 329 L 463 330 L 464 331 L 472 331 L 473 332 L 481 332 L 482 331 L 485 331 L 486 332 L 490 332 L 492 334 L 496 335 L 500 338 L 505 340 L 511 346 L 515 347 L 515 342 L 517 340 L 522 341 L 534 352 L 540 356 L 549 359 L 552 362 L 552 373 L 554 378 L 564 387 L 570 387 L 570 385 L 568 383 L 568 376 L 570 374 L 574 374 L 576 375 L 587 385 L 593 387 L 598 387 L 600 386 L 604 381 L 604 376 L 602 372 L 602 367 L 605 363 L 608 363 L 610 364 L 617 372 L 619 372 L 624 366 L 623 359 L 619 350 L 619 348 L 623 344 L 626 344 L 633 349 L 634 348 Z M 448 458 L 453 462 L 453 466 L 452 467 L 450 467 L 446 463 L 446 460 Z M 415 451 L 418 450 L 421 452 L 427 458 L 427 459 L 424 460 L 420 458 L 416 454 Z M 409 416 L 410 415 L 413 415 L 418 418 L 425 420 L 433 427 L 434 430 L 432 432 L 421 423 L 418 423 L 416 421 L 412 421 L 409 418 Z M 427 393 L 431 394 L 434 396 L 436 399 L 436 401 L 434 403 L 431 403 L 430 404 L 430 407 L 434 411 L 431 413 L 431 419 L 430 420 L 427 420 L 421 417 L 416 412 L 415 409 L 415 406 L 418 403 L 424 400 L 425 396 Z M 392 395 L 394 393 L 403 393 L 407 396 L 407 398 L 406 399 L 404 398 L 398 398 L 397 397 L 394 397 Z M 434 387 L 438 390 L 439 392 L 438 395 L 433 391 L 432 389 Z M 374 336 L 375 335 L 378 336 L 392 351 L 396 353 L 404 352 L 406 355 L 402 359 L 396 363 L 394 363 L 384 350 L 384 348 L 374 338 Z M 401 329 L 407 333 L 417 343 L 420 348 L 420 351 L 418 353 L 417 353 L 410 346 L 408 341 L 401 333 L 400 331 Z M 402 298 L 401 299 L 401 302 L 402 303 L 402 306 L 404 308 L 405 307 L 406 308 L 412 307 L 419 314 L 419 319 L 418 320 L 411 320 L 408 318 L 403 317 L 401 319 L 402 322 L 405 326 L 408 327 L 415 333 L 424 337 L 426 336 L 426 334 L 428 331 L 428 324 L 429 323 L 426 314 L 419 306 L 415 305 L 413 303 L 410 304 L 406 298 Z M 421 309 L 427 317 L 428 320 L 427 331 L 424 335 L 415 332 L 405 323 L 407 320 L 409 320 L 419 324 L 421 322 L 421 314 L 419 311 Z M 201 298 L 202 299 L 211 299 L 217 296 L 216 295 L 216 292 L 214 291 L 206 291 L 204 293 L 204 295 Z M 607 282 L 610 286 L 618 290 L 623 295 L 625 300 L 624 302 L 624 306 L 637 319 L 641 325 L 642 328 L 644 330 L 646 340 L 644 330 L 642 328 L 640 323 L 634 315 L 625 307 L 625 300 L 623 295 L 617 289 L 614 288 L 612 286 L 610 286 Z M 202 265 L 201 265 L 200 270 L 197 272 L 199 274 L 199 280 L 196 285 L 197 287 L 199 286 L 199 282 L 204 278 L 206 275 L 202 272 L 204 269 L 204 267 Z M 391 260 L 389 258 L 385 258 L 381 260 L 375 261 L 369 264 L 366 264 L 357 267 L 353 267 L 352 268 L 345 268 L 344 269 L 332 269 L 331 268 L 326 268 L 322 266 L 311 266 L 310 267 L 310 271 L 311 273 L 320 281 L 329 286 L 332 289 L 346 296 L 351 296 L 354 294 L 356 294 L 358 296 L 361 297 L 365 302 L 375 302 L 378 300 L 381 300 L 382 299 L 382 291 L 380 289 L 380 284 L 379 283 L 376 284 L 376 289 L 374 291 L 371 289 L 367 290 L 366 288 L 375 280 L 377 280 L 381 274 L 389 266 L 390 266 Z M 389 260 L 389 264 L 378 276 L 377 276 L 370 283 L 366 285 L 360 291 L 355 292 L 350 295 L 347 295 L 335 290 L 327 284 L 318 279 L 310 270 L 310 268 L 312 266 L 317 266 L 318 267 L 322 267 L 327 269 L 346 269 L 347 268 L 354 268 L 363 265 L 367 265 L 384 259 L 388 259 Z M 525 252 L 532 253 L 535 256 L 535 259 L 537 261 L 558 262 L 561 265 L 561 269 L 566 274 L 568 274 L 574 277 L 581 278 L 587 285 L 587 288 L 591 292 L 595 293 L 598 295 L 598 297 L 600 299 L 601 303 L 604 307 L 615 315 L 616 317 L 621 321 L 625 326 L 626 331 L 630 335 L 631 340 L 633 343 L 632 339 L 624 324 L 604 305 L 607 301 L 609 301 L 609 299 L 606 298 L 604 296 L 592 292 L 588 288 L 588 286 L 592 283 L 591 281 L 577 276 L 573 276 L 566 273 L 562 268 L 566 264 L 568 264 L 568 263 L 565 262 L 547 262 L 546 261 L 538 261 L 536 259 L 536 256 L 540 252 L 539 251 L 537 252 Z M 499 247 L 508 245 L 510 247 L 510 250 L 509 251 L 512 254 L 519 254 L 521 253 L 519 254 L 512 254 L 510 252 L 510 250 L 513 246 L 512 245 L 506 245 L 505 246 Z M 217 223 L 217 228 L 217 224 L 219 223 L 222 226 L 225 232 L 227 240 L 230 243 L 237 242 L 239 244 L 239 246 L 244 254 L 248 256 L 252 251 L 258 258 L 255 253 L 251 249 L 249 249 L 249 253 L 247 255 L 245 254 L 235 239 L 231 243 L 227 239 L 225 232 L 219 222 Z M 478 229 L 479 231 L 487 231 L 492 233 L 494 235 L 499 235 L 500 234 L 514 232 L 509 232 L 508 233 L 503 233 L 502 234 L 494 234 L 487 231 L 480 231 L 479 229 L 484 222 L 485 218 L 484 222 Z M 484 166 L 482 168 L 479 166 L 476 166 L 475 167 L 475 173 L 473 175 L 467 175 L 466 174 L 464 175 L 460 175 L 456 173 L 453 174 L 453 176 L 458 184 L 456 186 L 453 187 L 453 189 L 457 196 L 456 197 L 453 196 L 450 197 L 450 206 L 451 207 L 449 209 L 444 206 L 441 206 L 440 207 L 440 209 L 443 214 L 443 217 L 440 218 L 437 221 L 435 221 L 434 222 L 434 225 L 430 228 L 431 238 L 430 239 L 427 239 L 424 237 L 423 238 L 423 241 L 419 245 L 417 244 L 415 245 L 409 252 L 406 253 L 400 259 L 398 262 L 398 266 L 397 267 L 397 272 L 398 273 L 403 269 L 403 267 L 406 264 L 408 266 L 409 269 L 413 269 L 419 263 L 428 263 L 435 260 L 439 257 L 441 257 L 451 252 L 456 251 L 437 257 L 428 263 L 424 263 L 422 261 L 421 258 L 420 258 L 418 260 L 418 262 L 413 267 L 410 265 L 410 261 L 412 257 L 415 254 L 420 256 L 424 256 L 426 255 L 436 241 L 438 242 L 439 245 L 441 245 L 454 226 L 457 228 L 459 234 L 462 231 L 466 221 L 466 217 L 467 216 L 467 212 L 468 210 L 471 209 L 474 211 L 475 201 L 474 200 L 473 190 L 475 188 L 477 188 L 482 192 L 481 183 L 476 173 L 475 168 L 477 166 L 484 168 Z M 447 210 L 449 211 L 453 216 L 453 218 L 451 220 L 445 212 Z M 365 162 L 361 162 L 358 166 L 361 162 L 364 162 L 368 165 L 370 169 L 370 172 L 371 173 L 371 183 L 372 184 L 370 209 L 369 210 L 369 213 L 365 225 L 362 231 L 354 240 L 346 246 L 339 249 L 329 250 L 314 244 L 309 240 L 294 224 L 284 206 L 284 203 L 284 206 L 287 211 L 287 213 L 290 216 L 294 224 L 298 229 L 315 245 L 327 250 L 338 250 L 347 246 L 361 233 L 368 217 L 368 214 L 371 205 L 371 198 L 372 197 L 371 171 L 370 168 Z M 235 163 L 235 169 L 236 172 L 240 176 L 247 176 L 250 175 L 260 166 L 261 167 L 261 163 L 259 164 L 257 168 L 253 172 L 246 176 L 242 176 L 236 171 L 235 164 L 238 158 L 244 152 L 250 149 L 259 149 L 263 153 L 269 152 L 271 154 L 271 173 L 273 177 L 277 181 L 279 182 L 273 177 L 271 173 L 271 159 L 272 158 L 274 159 L 282 169 L 287 172 L 291 172 L 296 176 L 293 180 L 288 183 L 281 183 L 289 183 L 297 177 L 300 176 L 312 180 L 321 181 L 317 181 L 311 178 L 309 178 L 306 176 L 305 174 L 309 170 L 317 166 L 323 159 L 324 156 L 323 159 L 315 167 L 308 171 L 302 172 L 301 173 L 292 173 L 282 169 L 273 158 L 272 150 L 271 153 L 269 152 L 265 153 L 260 149 L 257 148 L 252 148 L 246 150 L 238 157 Z M 375 146 L 375 150 L 378 156 L 384 160 L 396 164 L 410 165 L 411 164 L 418 163 L 420 162 L 425 156 L 425 148 L 424 146 L 416 139 L 407 136 L 403 136 L 402 135 L 388 136 L 379 141 Z M 375 147 L 382 139 L 386 137 L 389 137 L 390 136 L 406 136 L 417 140 L 424 147 L 425 149 L 425 155 L 424 157 L 417 163 L 414 163 L 413 164 L 397 164 L 383 159 L 376 152 Z M 332 128 L 329 125 L 325 123 L 316 122 L 315 123 L 307 123 L 299 127 L 297 131 L 298 132 L 303 132 L 304 131 L 310 131 L 312 130 L 313 131 L 322 131 L 323 132 L 331 133 L 332 132 Z M 300 129 L 305 125 L 309 125 L 310 124 L 324 124 L 329 126 L 332 130 L 330 132 L 327 132 L 321 130 L 306 130 L 305 131 L 301 131 Z M 93 117 L 90 120 L 89 124 L 95 122 L 99 124 L 106 131 L 110 138 L 110 141 L 111 142 L 110 149 L 105 153 L 99 153 L 95 151 L 95 153 L 92 155 L 88 149 L 82 143 L 79 141 L 76 141 L 75 140 L 71 141 L 68 144 L 68 151 L 70 151 L 70 148 L 74 144 L 78 145 L 87 152 L 92 160 L 92 163 L 91 166 L 84 172 L 82 172 L 77 169 L 74 171 L 65 171 L 63 173 L 62 177 L 63 174 L 66 171 L 68 171 L 70 173 L 65 178 L 65 182 L 64 183 L 62 182 L 62 180 L 63 185 L 65 187 L 66 190 L 78 203 L 91 214 L 95 216 L 100 221 L 104 230 L 106 238 L 111 246 L 111 244 L 113 242 L 122 252 L 124 256 L 130 262 L 131 262 L 132 264 L 158 285 L 164 288 L 166 288 L 168 290 L 177 294 L 189 297 L 191 299 L 191 302 L 185 306 L 186 308 L 188 309 L 200 309 L 204 313 L 206 313 L 209 315 L 223 316 L 224 319 L 220 323 L 215 325 L 215 327 L 221 329 L 233 330 L 239 317 L 242 314 L 241 311 L 243 308 L 243 306 L 248 302 L 250 304 L 250 307 L 247 310 L 246 313 L 246 317 L 240 332 L 240 339 L 239 341 L 241 337 L 240 332 L 243 326 L 244 321 L 246 318 L 246 313 L 251 306 L 251 303 L 249 300 L 259 291 L 259 287 L 258 285 L 262 281 L 264 274 L 274 263 L 281 265 L 288 270 L 290 270 L 292 268 L 290 262 L 287 258 L 283 255 L 276 252 L 273 249 L 266 247 L 255 235 L 252 234 L 249 231 L 247 225 L 244 224 L 241 227 L 239 226 L 238 224 L 238 209 L 239 207 L 237 205 L 230 206 L 229 205 L 229 198 L 229 207 L 232 207 L 234 205 L 236 205 L 238 207 L 238 224 L 239 227 L 241 228 L 244 225 L 246 225 L 248 227 L 249 231 L 251 234 L 254 235 L 263 244 L 272 258 L 272 266 L 268 270 L 265 271 L 263 269 L 259 260 L 261 264 L 261 270 L 259 272 L 259 274 L 254 280 L 254 284 L 246 293 L 246 297 L 241 305 L 241 310 L 239 313 L 239 318 L 236 322 L 236 325 L 233 328 L 228 329 L 227 328 L 221 328 L 218 326 L 219 324 L 222 323 L 227 318 L 227 315 L 226 314 L 215 314 L 213 315 L 209 313 L 206 313 L 201 307 L 190 308 L 188 305 L 193 302 L 193 300 L 191 297 L 187 295 L 180 294 L 175 291 L 168 289 L 164 286 L 162 286 L 152 279 L 139 267 L 136 266 L 122 251 L 110 235 L 106 232 L 103 228 L 103 226 L 101 224 L 100 221 L 94 215 L 90 213 L 85 207 L 75 198 L 77 196 L 81 195 L 87 190 L 88 191 L 88 197 L 92 203 L 96 206 L 101 208 L 110 208 L 125 202 L 132 197 L 134 197 L 144 188 L 147 183 L 147 180 L 148 179 L 147 170 L 144 164 L 138 158 L 129 152 L 137 146 L 138 138 L 140 137 L 144 145 L 143 147 L 143 155 L 148 161 L 152 163 L 158 161 L 163 153 L 165 154 L 165 161 L 164 162 L 164 165 L 162 168 L 162 174 L 172 185 L 174 189 L 181 197 L 186 206 L 191 211 L 193 211 L 195 209 L 195 207 L 197 206 L 195 206 L 195 208 L 193 210 L 190 210 L 186 206 L 181 197 L 162 173 L 162 168 L 164 165 L 165 157 L 166 156 L 166 140 L 164 136 L 159 131 L 154 131 L 151 135 L 144 142 L 143 142 L 141 140 L 138 128 L 134 120 L 130 115 L 125 113 L 122 115 L 122 118 L 126 118 L 128 119 L 135 127 L 137 133 L 137 144 L 136 146 L 133 149 L 128 149 L 126 148 L 121 142 L 118 144 L 116 144 L 110 131 L 106 125 L 96 117 Z M 255 288 L 257 290 L 250 297 L 249 297 L 247 295 L 248 293 L 253 288 Z M 257 279 L 259 278 L 260 281 L 258 282 Z M 271 254 L 273 252 L 275 252 L 277 254 L 279 254 L 284 257 L 289 262 L 290 264 L 290 268 L 288 269 L 282 264 L 274 260 L 272 258 Z M 71 173 L 77 173 L 85 180 L 85 188 L 80 194 L 77 194 L 72 191 L 66 184 L 65 180 L 67 176 Z M 113 142 L 115 145 L 117 146 L 121 144 L 125 148 L 126 151 L 125 152 L 116 152 L 112 154 L 105 159 L 95 169 L 93 173 L 100 164 L 109 156 L 118 152 L 125 152 L 135 156 L 142 162 L 147 170 L 148 178 L 147 179 L 146 185 L 136 195 L 116 206 L 103 208 L 95 205 L 91 201 L 88 196 L 88 183 L 92 175 L 89 180 L 88 185 L 86 186 L 85 185 L 85 180 L 81 174 L 87 171 L 92 164 L 92 157 L 97 154 L 105 154 L 110 150 L 111 148 L 111 143 Z M 152 134 L 156 134 L 158 135 L 163 142 L 163 150 L 160 157 L 154 162 L 150 162 L 148 161 L 143 154 L 144 146 L 146 144 L 146 142 L 148 140 L 149 137 Z M 159 133 L 164 137 L 165 139 L 164 142 L 158 135 Z M 125 115 L 127 114 L 130 117 L 128 118 L 126 117 Z M 465 76 L 463 81 L 455 89 L 449 91 L 447 93 L 447 95 L 456 104 L 457 107 L 462 114 L 462 116 L 464 118 L 464 120 L 466 123 L 465 125 L 465 132 L 469 136 L 471 136 L 477 141 L 475 144 L 471 144 L 470 145 L 470 148 L 475 156 L 483 164 L 470 148 L 473 144 L 478 144 L 480 145 L 481 143 L 473 137 L 468 135 L 465 132 L 465 129 L 469 126 L 464 119 L 457 105 L 449 96 L 449 93 L 454 89 L 457 88 L 462 83 Z M 258 77 L 255 76 L 247 76 L 243 78 L 238 83 L 234 91 L 234 96 L 235 97 L 235 100 L 242 108 L 247 108 L 249 107 L 257 95 L 264 87 L 263 82 Z M 253 76 L 257 78 L 263 84 L 263 86 L 254 98 L 250 105 L 248 107 L 244 108 L 237 102 L 235 98 L 235 90 L 238 84 L 244 78 L 249 76 Z M 359 70 L 359 75 L 362 78 L 370 80 L 377 85 L 381 85 L 384 81 L 383 76 L 379 72 L 370 67 L 363 67 Z M 359 71 L 364 67 L 372 68 L 377 71 L 383 77 L 384 81 L 381 85 L 378 85 L 370 80 L 362 78 L 359 75 Z M 294 66 L 289 68 L 276 77 L 272 74 L 270 70 L 267 67 L 257 62 L 249 62 L 238 66 L 236 68 L 233 69 L 228 74 L 223 83 L 223 86 L 222 87 L 222 100 L 224 103 L 224 105 L 232 113 L 237 115 L 240 115 L 242 117 L 242 121 L 242 115 L 241 114 L 235 114 L 232 113 L 227 108 L 222 100 L 222 87 L 223 86 L 223 83 L 228 74 L 235 68 L 246 63 L 252 63 L 253 62 L 260 63 L 268 68 L 274 77 L 278 77 L 281 76 L 290 68 Z M 296 65 L 304 64 L 306 62 L 306 60 L 309 57 L 312 57 L 313 58 L 321 58 L 307 57 L 306 60 L 302 64 Z M 433 51 L 429 53 L 422 60 L 420 63 L 420 69 L 427 74 L 438 85 L 442 87 L 446 85 L 452 79 L 454 74 L 454 68 L 452 62 L 444 53 L 440 51 Z M 435 51 L 438 51 L 444 54 L 450 60 L 454 69 L 454 72 L 452 77 L 444 85 L 439 84 L 426 72 L 423 71 L 420 68 L 420 65 L 422 61 L 429 54 Z M 325 47 L 325 50 L 325 48 L 328 46 L 334 49 L 339 53 L 344 53 L 347 51 L 351 46 L 355 46 L 356 48 L 354 51 L 354 54 L 356 56 L 370 53 L 371 54 L 377 54 L 383 56 L 389 56 L 403 61 L 405 61 L 407 59 L 407 57 L 407 59 L 405 61 L 403 61 L 394 57 L 390 57 L 389 56 L 381 55 L 380 54 L 373 54 L 372 53 L 367 53 L 366 54 L 360 54 L 357 55 L 355 53 L 355 50 L 357 47 L 356 44 L 354 44 L 349 47 L 344 53 L 340 53 L 335 49 L 329 46 L 326 46 Z M 408 53 L 408 54 L 409 51 L 416 44 L 425 39 L 428 39 L 429 38 L 439 38 L 448 41 L 451 43 L 462 54 L 465 60 L 463 55 L 454 45 L 450 42 L 440 38 L 428 38 L 416 44 Z" fill="#E8E8E8" fill-rule="evenodd"/><path d="M 513 506 L 507 501 L 503 501 L 499 506 L 494 521 L 489 527 L 487 531 L 475 544 L 460 556 L 452 560 L 450 562 L 424 575 L 422 575 L 394 590 L 387 596 L 387 600 L 389 603 L 404 614 L 412 618 L 413 617 L 413 614 L 416 611 L 434 612 L 441 608 L 454 604 L 469 597 L 471 595 L 475 594 L 486 587 L 497 575 L 499 575 L 501 577 L 501 588 L 505 592 L 517 598 L 524 599 L 525 597 L 523 593 L 525 591 L 535 591 L 539 589 L 540 587 L 538 585 L 531 584 L 528 581 L 528 578 L 532 575 L 540 575 L 541 574 L 541 565 L 539 561 L 539 558 L 536 552 L 534 544 L 530 537 L 530 535 L 521 518 Z M 525 587 L 527 585 L 531 585 L 534 586 L 536 588 L 534 590 L 529 590 Z M 505 503 L 509 505 L 515 511 L 519 518 L 519 524 L 516 528 L 513 528 L 510 526 L 506 526 L 502 523 L 502 520 L 500 518 L 500 515 L 502 510 L 502 506 Z M 448 459 L 447 460 L 447 463 L 450 466 L 452 466 L 452 462 Z M 416 451 L 417 454 L 420 457 L 426 459 L 421 453 L 418 451 Z M 512 435 L 511 436 L 510 444 L 511 445 L 511 454 L 512 455 L 512 465 L 513 466 L 513 472 L 514 472 L 516 469 L 517 461 L 518 460 L 518 447 L 515 441 L 515 439 Z M 410 416 L 410 418 L 412 420 L 416 420 L 418 422 L 421 422 L 430 430 L 432 431 L 433 430 L 432 427 L 425 421 L 418 419 L 413 416 Z M 393 395 L 398 397 L 404 397 L 406 398 L 406 396 L 403 394 L 394 394 Z M 434 388 L 433 389 L 434 391 L 438 394 L 437 390 Z M 375 336 L 375 338 L 385 348 L 385 350 L 394 362 L 396 362 L 405 355 L 404 353 L 396 354 L 392 352 L 378 337 Z M 401 330 L 402 333 L 409 341 L 411 346 L 417 352 L 419 351 L 419 348 L 416 343 L 407 334 Z M 305 324 L 302 327 L 303 330 L 306 328 L 306 325 Z M 421 310 L 420 311 L 422 314 L 422 322 L 419 325 L 409 321 L 407 321 L 406 323 L 415 331 L 424 334 L 426 331 L 426 328 L 427 327 L 427 320 L 426 317 Z M 256 290 L 253 289 L 248 295 L 250 296 Z M 388 260 L 384 260 L 380 262 L 377 262 L 374 264 L 371 264 L 367 266 L 363 266 L 354 269 L 347 269 L 346 270 L 327 270 L 322 268 L 312 267 L 311 270 L 318 278 L 327 283 L 335 289 L 341 292 L 347 294 L 350 294 L 355 291 L 360 290 L 366 284 L 370 282 L 377 275 L 378 275 L 388 264 Z M 272 254 L 274 259 L 277 260 L 289 268 L 289 264 L 284 258 L 279 255 L 277 255 L 275 253 Z M 447 211 L 446 212 L 451 219 L 452 216 L 451 214 Z M 69 175 L 66 180 L 67 184 L 72 190 L 77 193 L 80 193 L 84 188 L 84 180 L 77 174 L 71 174 Z M 139 160 L 131 155 L 125 153 L 118 153 L 109 157 L 104 161 L 95 171 L 89 183 L 89 196 L 92 201 L 95 204 L 99 206 L 107 207 L 108 206 L 116 205 L 136 194 L 145 185 L 146 179 L 147 178 L 146 170 L 144 166 Z M 239 158 L 236 164 L 236 168 L 237 171 L 242 175 L 249 174 L 256 168 L 260 162 L 262 163 L 262 173 L 264 179 L 271 187 L 277 189 L 283 193 L 285 206 L 293 221 L 299 229 L 314 243 L 329 249 L 339 248 L 346 245 L 354 239 L 361 231 L 368 213 L 369 205 L 370 204 L 370 192 L 371 191 L 370 173 L 369 172 L 369 169 L 366 164 L 361 163 L 358 168 L 352 174 L 343 179 L 334 182 L 323 183 L 322 182 L 312 181 L 300 177 L 297 178 L 289 184 L 281 184 L 277 182 L 272 177 L 270 173 L 270 154 L 269 153 L 263 154 L 259 150 L 250 150 L 244 153 Z M 265 156 L 267 154 L 270 156 L 269 171 L 272 178 L 277 183 L 281 185 L 288 185 L 291 184 L 298 179 L 305 179 L 309 181 L 317 182 L 318 183 L 333 183 L 351 176 L 357 171 L 362 164 L 364 164 L 367 167 L 369 173 L 370 195 L 369 196 L 369 204 L 368 205 L 367 214 L 364 223 L 360 231 L 356 235 L 354 234 L 354 232 L 359 223 L 361 217 L 361 209 L 356 204 L 350 201 L 346 201 L 345 200 L 337 201 L 331 203 L 324 207 L 319 211 L 314 217 L 311 223 L 311 228 L 313 232 L 321 241 L 321 243 L 318 244 L 314 242 L 300 229 L 292 218 L 290 213 L 288 211 L 288 209 L 285 203 L 284 193 L 281 190 L 279 190 L 270 185 L 265 179 L 263 175 L 263 161 Z M 376 147 L 377 152 L 383 158 L 397 163 L 413 163 L 414 162 L 417 162 L 419 161 L 424 155 L 424 149 L 423 147 L 417 141 L 406 137 L 390 137 L 389 138 L 386 138 L 382 140 Z M 301 129 L 301 130 L 305 130 L 306 129 L 321 129 L 327 131 L 330 131 L 331 130 L 329 127 L 324 125 L 310 125 L 309 126 L 305 126 Z M 276 119 L 271 127 L 271 132 L 270 134 L 271 135 L 271 139 L 272 141 L 276 145 L 273 149 L 273 155 L 274 158 L 279 165 L 282 168 L 292 172 L 301 172 L 302 171 L 305 171 L 315 166 L 322 159 L 324 155 L 324 148 L 323 146 L 320 143 L 307 138 L 292 138 L 286 140 L 284 138 L 287 134 L 288 124 L 286 120 L 283 117 L 279 117 Z M 323 147 L 323 156 L 322 158 L 314 166 L 302 171 L 291 171 L 285 169 L 278 163 L 274 156 L 274 149 L 275 147 L 280 143 L 291 139 L 297 139 L 298 138 L 309 139 L 317 142 Z M 283 118 L 287 123 L 287 132 L 285 136 L 279 142 L 274 142 L 271 138 L 271 129 L 272 126 L 279 118 Z M 362 112 L 358 116 L 356 120 L 355 130 L 358 138 L 361 141 L 368 141 L 372 137 L 374 132 L 374 122 L 371 115 L 368 112 Z M 364 112 L 368 113 L 371 116 L 374 124 L 373 134 L 372 136 L 366 141 L 361 140 L 358 137 L 356 133 L 356 121 L 358 117 Z M 293 81 L 290 78 L 285 78 L 281 80 L 275 85 L 273 89 L 273 93 L 275 95 L 278 95 L 285 89 L 290 87 L 293 84 Z M 292 81 L 292 84 L 290 86 L 285 88 L 278 94 L 276 94 L 274 92 L 275 87 L 281 81 L 285 79 L 290 79 Z M 253 77 L 249 77 L 244 79 L 239 84 L 236 90 L 236 98 L 238 102 L 244 107 L 246 107 L 249 105 L 253 98 L 262 86 L 262 84 L 257 79 Z M 360 71 L 360 75 L 362 77 L 370 79 L 378 84 L 381 84 L 383 81 L 382 77 L 377 72 L 372 69 L 364 68 Z M 361 72 L 364 69 L 368 69 L 374 71 L 381 77 L 382 81 L 380 83 L 378 83 L 369 78 L 364 77 L 361 74 Z M 435 52 L 429 55 L 423 61 L 421 65 L 421 68 L 431 75 L 439 83 L 444 84 L 451 77 L 453 72 L 453 69 L 451 63 L 444 55 L 438 52 Z M 443 37 L 440 37 L 439 36 L 429 36 L 419 40 L 411 46 L 406 54 L 406 57 L 404 59 L 394 55 L 390 55 L 389 54 L 381 53 L 380 52 L 374 52 L 373 51 L 368 51 L 367 52 L 361 52 L 359 53 L 357 51 L 359 46 L 359 43 L 358 42 L 354 42 L 350 44 L 343 51 L 341 51 L 334 46 L 332 46 L 329 44 L 324 44 L 323 45 L 324 54 L 322 56 L 307 55 L 303 58 L 303 60 L 301 62 L 296 63 L 287 67 L 278 74 L 275 74 L 266 64 L 260 61 L 255 61 L 254 60 L 246 61 L 240 64 L 238 64 L 236 66 L 233 67 L 226 74 L 221 85 L 221 90 L 220 91 L 221 102 L 223 106 L 229 113 L 234 116 L 240 118 L 240 123 L 231 142 L 232 151 L 224 159 L 221 164 L 221 168 L 222 169 L 224 169 L 227 167 L 229 169 L 229 172 L 224 180 L 223 187 L 224 188 L 229 187 L 231 189 L 228 197 L 227 205 L 228 208 L 230 210 L 234 208 L 236 210 L 236 223 L 238 228 L 241 231 L 244 229 L 246 229 L 249 234 L 255 238 L 261 244 L 271 261 L 271 264 L 268 268 L 266 268 L 263 265 L 259 256 L 252 247 L 249 246 L 248 249 L 245 250 L 242 247 L 238 239 L 236 237 L 233 237 L 230 239 L 228 237 L 227 233 L 222 223 L 218 219 L 216 221 L 216 226 L 212 229 L 208 224 L 199 206 L 196 203 L 195 203 L 192 207 L 190 207 L 187 204 L 181 194 L 163 172 L 163 170 L 166 164 L 167 151 L 168 150 L 168 142 L 166 136 L 161 130 L 159 129 L 152 130 L 145 139 L 143 139 L 140 132 L 139 126 L 134 117 L 128 112 L 123 112 L 119 117 L 119 120 L 118 121 L 118 138 L 116 139 L 109 126 L 104 120 L 97 116 L 92 116 L 89 118 L 87 122 L 87 136 L 92 146 L 92 149 L 91 150 L 84 142 L 79 139 L 71 139 L 67 143 L 66 146 L 67 153 L 74 167 L 72 169 L 65 169 L 60 175 L 60 182 L 64 190 L 74 202 L 75 202 L 89 215 L 98 221 L 101 227 L 107 245 L 111 250 L 117 261 L 132 278 L 142 285 L 151 293 L 149 296 L 145 296 L 144 299 L 148 303 L 153 305 L 155 307 L 167 311 L 170 313 L 172 313 L 174 316 L 168 321 L 169 324 L 185 330 L 188 330 L 194 332 L 196 334 L 196 337 L 194 339 L 196 342 L 204 343 L 205 344 L 210 344 L 212 345 L 215 348 L 215 350 L 221 353 L 224 352 L 228 340 L 237 330 L 238 331 L 239 338 L 237 344 L 234 349 L 234 356 L 233 357 L 231 368 L 229 372 L 225 376 L 222 382 L 223 385 L 226 385 L 228 387 L 224 393 L 217 400 L 214 405 L 214 408 L 215 409 L 221 408 L 223 411 L 212 429 L 211 437 L 213 438 L 217 435 L 220 437 L 218 441 L 218 444 L 214 456 L 214 464 L 217 465 L 221 460 L 223 462 L 222 473 L 221 474 L 221 487 L 223 488 L 227 483 L 229 484 L 229 492 L 230 493 L 230 496 L 232 502 L 235 507 L 235 509 L 240 517 L 249 526 L 253 529 L 256 529 L 260 524 L 275 510 L 296 496 L 319 489 L 328 485 L 339 484 L 340 483 L 347 483 L 353 481 L 374 481 L 380 485 L 379 487 L 373 487 L 372 488 L 366 488 L 365 489 L 360 489 L 359 490 L 354 490 L 353 491 L 337 493 L 328 497 L 326 497 L 323 499 L 321 499 L 318 501 L 298 506 L 297 508 L 300 512 L 297 515 L 291 516 L 287 519 L 287 521 L 285 523 L 274 526 L 269 529 L 270 531 L 273 531 L 276 534 L 276 536 L 272 540 L 266 542 L 261 547 L 248 569 L 237 581 L 230 586 L 231 590 L 236 595 L 239 600 L 237 603 L 225 597 L 216 591 L 214 591 L 207 587 L 200 586 L 199 585 L 187 585 L 186 586 L 182 586 L 174 590 L 169 595 L 168 597 L 168 607 L 169 608 L 170 616 L 173 621 L 176 621 L 181 617 L 185 617 L 186 618 L 192 619 L 194 621 L 205 626 L 215 634 L 228 647 L 232 649 L 249 663 L 250 666 L 255 673 L 260 676 L 274 676 L 278 674 L 286 666 L 289 661 L 302 647 L 305 647 L 306 648 L 309 647 L 315 641 L 323 629 L 335 617 L 335 616 L 344 608 L 347 609 L 358 597 L 360 596 L 363 597 L 369 591 L 375 589 L 379 585 L 391 577 L 393 577 L 399 573 L 401 573 L 406 570 L 415 567 L 431 559 L 440 553 L 442 553 L 451 549 L 466 537 L 474 529 L 483 516 L 487 508 L 488 503 L 490 500 L 490 498 L 492 495 L 496 483 L 496 474 L 495 471 L 497 469 L 500 469 L 502 465 L 501 454 L 498 446 L 498 443 L 496 440 L 496 438 L 498 436 L 501 436 L 502 435 L 502 432 L 499 426 L 491 416 L 487 409 L 489 406 L 491 407 L 495 407 L 496 405 L 494 401 L 482 388 L 486 382 L 479 369 L 477 359 L 475 357 L 472 357 L 471 356 L 457 355 L 456 354 L 451 354 L 445 352 L 442 349 L 441 346 L 444 342 L 451 342 L 452 343 L 462 344 L 463 345 L 478 346 L 479 347 L 484 347 L 488 349 L 491 349 L 489 343 L 491 341 L 496 341 L 507 346 L 509 348 L 517 352 L 520 351 L 519 346 L 522 344 L 535 356 L 537 356 L 542 359 L 545 359 L 550 363 L 551 376 L 554 382 L 559 387 L 564 389 L 571 389 L 572 388 L 572 385 L 570 382 L 570 378 L 572 376 L 576 378 L 584 386 L 591 389 L 600 389 L 602 388 L 605 385 L 606 382 L 606 377 L 604 373 L 604 367 L 606 365 L 608 365 L 616 375 L 620 375 L 623 372 L 626 366 L 625 358 L 622 352 L 622 348 L 624 346 L 626 346 L 632 352 L 635 350 L 635 343 L 628 327 L 625 323 L 607 306 L 607 305 L 612 301 L 612 299 L 609 296 L 607 296 L 604 294 L 592 290 L 590 288 L 595 283 L 593 280 L 580 275 L 572 274 L 568 272 L 565 269 L 568 266 L 573 265 L 574 264 L 573 262 L 567 261 L 566 260 L 544 260 L 541 259 L 539 256 L 544 251 L 543 249 L 533 249 L 532 250 L 522 251 L 521 252 L 514 252 L 513 249 L 516 246 L 515 243 L 504 244 L 493 248 L 484 249 L 482 247 L 483 244 L 481 242 L 477 242 L 445 253 L 442 251 L 449 244 L 456 240 L 463 233 L 466 228 L 469 214 L 471 212 L 473 214 L 475 214 L 476 211 L 476 192 L 478 191 L 482 195 L 484 194 L 484 187 L 483 186 L 482 180 L 478 173 L 478 170 L 479 169 L 481 169 L 483 171 L 486 170 L 486 166 L 484 162 L 473 149 L 475 146 L 482 147 L 483 146 L 483 143 L 478 138 L 475 137 L 468 132 L 472 127 L 466 119 L 460 107 L 451 95 L 453 92 L 456 91 L 463 84 L 466 79 L 467 73 L 468 72 L 468 64 L 467 63 L 467 60 L 465 55 L 462 51 L 453 42 Z M 211 608 L 214 611 L 214 613 L 210 621 L 207 624 L 205 624 L 200 619 L 200 615 L 206 608 Z M 188 595 L 193 595 L 196 598 L 196 607 L 192 613 L 188 613 L 185 609 L 185 600 L 186 597 Z M 174 594 L 176 594 L 179 597 L 180 600 L 180 606 L 181 607 L 180 608 L 180 612 L 178 614 L 172 609 L 170 605 L 171 597 Z M 241 321 L 242 323 L 240 326 L 240 328 L 238 330 L 237 327 L 239 322 Z M 171 322 L 172 321 L 176 321 L 179 323 L 179 325 L 178 326 L 175 324 L 172 324 Z M 440 37 L 446 39 L 454 44 L 464 55 L 467 62 L 467 74 L 463 83 L 457 89 L 450 93 L 450 96 L 458 105 L 461 112 L 470 126 L 466 129 L 466 132 L 468 134 L 476 138 L 482 143 L 480 146 L 478 145 L 473 145 L 471 148 L 483 162 L 485 166 L 484 169 L 482 169 L 479 167 L 476 168 L 477 173 L 482 183 L 483 192 L 481 193 L 477 189 L 474 190 L 475 200 L 476 201 L 475 211 L 473 212 L 471 210 L 469 210 L 468 212 L 468 216 L 467 217 L 467 221 L 463 231 L 459 235 L 457 233 L 456 228 L 454 227 L 452 231 L 449 234 L 448 237 L 444 241 L 443 244 L 441 246 L 439 246 L 437 244 L 437 242 L 436 242 L 426 256 L 424 257 L 420 257 L 415 255 L 411 261 L 411 265 L 413 266 L 417 262 L 417 260 L 420 257 L 422 258 L 424 262 L 428 262 L 437 256 L 476 243 L 479 243 L 481 245 L 481 249 L 482 250 L 491 249 L 506 244 L 512 244 L 514 246 L 511 250 L 512 253 L 519 253 L 525 251 L 537 251 L 539 250 L 541 252 L 537 256 L 537 259 L 538 260 L 546 260 L 547 261 L 565 261 L 568 262 L 569 264 L 566 265 L 563 268 L 566 272 L 573 275 L 577 275 L 591 280 L 593 283 L 589 286 L 589 288 L 592 291 L 604 295 L 610 299 L 610 301 L 607 302 L 605 305 L 625 324 L 633 339 L 635 345 L 635 348 L 632 350 L 626 345 L 623 345 L 620 348 L 620 350 L 624 359 L 625 366 L 619 373 L 617 373 L 610 365 L 608 364 L 605 364 L 603 367 L 603 372 L 605 376 L 605 381 L 600 387 L 598 388 L 593 388 L 587 386 L 576 376 L 574 375 L 570 375 L 569 376 L 569 383 L 571 385 L 571 387 L 570 388 L 564 388 L 553 378 L 551 373 L 551 362 L 549 360 L 540 357 L 534 353 L 522 342 L 517 341 L 516 342 L 516 347 L 514 348 L 511 347 L 505 341 L 500 339 L 496 336 L 492 335 L 490 333 L 486 333 L 485 332 L 482 332 L 481 333 L 464 332 L 463 331 L 455 330 L 451 328 L 446 328 L 445 329 L 447 331 L 452 334 L 454 334 L 460 339 L 459 342 L 442 341 L 440 343 L 440 347 L 444 355 L 445 361 L 446 362 L 447 370 L 445 374 L 447 374 L 449 371 L 453 371 L 455 372 L 464 382 L 467 391 L 467 394 L 468 395 L 468 403 L 465 407 L 459 404 L 459 406 L 466 413 L 466 415 L 475 427 L 477 431 L 477 434 L 475 436 L 471 436 L 468 433 L 458 427 L 456 427 L 456 429 L 467 440 L 470 441 L 474 445 L 475 448 L 477 450 L 478 454 L 475 457 L 472 455 L 471 456 L 471 461 L 473 465 L 473 471 L 471 473 L 467 470 L 466 471 L 467 473 L 464 475 L 462 479 L 462 482 L 458 494 L 448 502 L 442 512 L 436 519 L 434 519 L 428 524 L 425 521 L 425 518 L 426 517 L 425 516 L 422 517 L 418 522 L 416 529 L 411 539 L 405 546 L 395 551 L 389 557 L 382 561 L 371 571 L 369 571 L 364 575 L 361 575 L 356 581 L 352 584 L 346 586 L 334 597 L 331 598 L 311 619 L 309 625 L 289 642 L 287 642 L 273 658 L 264 662 L 260 662 L 258 659 L 255 657 L 255 659 L 258 662 L 257 665 L 255 666 L 250 660 L 247 659 L 244 656 L 246 653 L 248 653 L 241 646 L 234 642 L 222 631 L 216 628 L 211 624 L 211 621 L 215 614 L 215 610 L 212 607 L 210 606 L 207 606 L 203 608 L 200 607 L 198 605 L 198 601 L 196 597 L 193 594 L 187 594 L 185 598 L 182 599 L 179 595 L 177 590 L 179 588 L 185 586 L 202 586 L 220 594 L 225 598 L 241 606 L 242 604 L 237 594 L 233 589 L 233 587 L 249 570 L 251 565 L 258 555 L 261 548 L 266 543 L 272 541 L 276 538 L 278 534 L 272 529 L 273 527 L 284 524 L 288 522 L 292 517 L 299 515 L 301 513 L 301 510 L 299 508 L 300 506 L 314 503 L 327 497 L 333 495 L 336 495 L 339 493 L 344 493 L 345 492 L 350 492 L 351 491 L 356 491 L 357 490 L 362 490 L 363 489 L 370 489 L 371 488 L 382 488 L 383 489 L 386 489 L 389 491 L 390 489 L 386 485 L 384 485 L 382 483 L 380 483 L 374 480 L 353 480 L 352 481 L 342 482 L 341 483 L 328 484 L 327 485 L 324 485 L 317 489 L 292 497 L 289 500 L 279 505 L 274 509 L 267 517 L 263 519 L 259 523 L 255 520 L 255 518 L 253 516 L 251 522 L 249 523 L 240 515 L 233 503 L 230 494 L 230 480 L 228 479 L 223 486 L 221 484 L 221 478 L 222 477 L 223 465 L 224 464 L 224 457 L 223 456 L 217 463 L 215 462 L 215 454 L 220 439 L 220 434 L 218 433 L 213 437 L 211 434 L 215 424 L 220 418 L 224 411 L 224 407 L 223 406 L 218 408 L 216 408 L 214 406 L 229 387 L 229 384 L 228 383 L 226 384 L 224 383 L 224 379 L 229 373 L 231 369 L 235 365 L 238 364 L 245 359 L 249 355 L 251 351 L 250 348 L 247 348 L 237 356 L 234 354 L 234 350 L 239 339 L 239 332 L 245 317 L 246 310 L 249 307 L 249 304 L 247 303 L 244 306 L 244 308 L 242 311 L 243 314 L 240 317 L 237 323 L 237 325 L 233 331 L 217 329 L 214 327 L 214 325 L 220 322 L 223 319 L 223 317 L 209 316 L 206 314 L 204 314 L 200 310 L 188 310 L 186 309 L 184 306 L 187 303 L 190 302 L 190 299 L 189 298 L 177 295 L 168 291 L 166 289 L 164 289 L 158 286 L 132 265 L 131 263 L 130 263 L 123 256 L 121 252 L 113 243 L 111 247 L 108 244 L 107 240 L 105 238 L 103 230 L 99 221 L 78 204 L 67 193 L 62 185 L 61 182 L 61 175 L 65 170 L 74 170 L 77 168 L 82 171 L 84 171 L 90 166 L 91 163 L 91 160 L 85 151 L 78 146 L 74 145 L 71 148 L 71 151 L 68 152 L 67 151 L 67 144 L 71 140 L 75 139 L 76 140 L 79 140 L 82 142 L 89 149 L 92 154 L 94 153 L 95 150 L 99 152 L 105 152 L 109 149 L 110 142 L 109 141 L 109 138 L 105 131 L 99 125 L 95 123 L 93 123 L 90 125 L 88 124 L 89 120 L 93 116 L 96 116 L 107 125 L 111 131 L 116 143 L 118 143 L 121 141 L 126 147 L 128 148 L 133 148 L 136 144 L 136 133 L 134 127 L 128 120 L 126 119 L 122 119 L 121 118 L 121 115 L 123 113 L 126 112 L 130 114 L 135 120 L 139 128 L 142 140 L 144 141 L 149 136 L 150 137 L 149 140 L 147 142 L 147 144 L 145 146 L 144 154 L 148 160 L 150 161 L 154 161 L 159 157 L 162 150 L 162 142 L 158 136 L 156 135 L 152 135 L 151 136 L 150 134 L 154 130 L 159 130 L 165 136 L 167 140 L 167 156 L 166 157 L 165 165 L 163 168 L 163 173 L 182 197 L 187 206 L 190 209 L 193 209 L 194 206 L 197 205 L 200 209 L 208 226 L 213 231 L 216 229 L 216 223 L 219 221 L 223 226 L 228 239 L 231 242 L 235 238 L 240 244 L 244 252 L 247 254 L 248 253 L 248 249 L 251 248 L 256 253 L 264 269 L 266 270 L 271 266 L 271 258 L 269 254 L 262 244 L 254 236 L 252 236 L 250 234 L 246 226 L 244 226 L 241 229 L 238 227 L 237 224 L 237 207 L 236 206 L 234 206 L 232 208 L 229 208 L 228 207 L 228 198 L 232 189 L 232 186 L 225 187 L 224 186 L 224 182 L 230 171 L 230 167 L 228 166 L 223 168 L 221 165 L 226 158 L 229 156 L 233 151 L 232 141 L 241 122 L 241 117 L 232 114 L 223 105 L 223 103 L 221 100 L 221 87 L 222 86 L 222 83 L 227 74 L 233 68 L 240 64 L 249 61 L 257 61 L 267 66 L 271 70 L 273 74 L 276 76 L 289 67 L 299 63 L 302 63 L 305 60 L 305 58 L 307 56 L 315 56 L 316 57 L 322 57 L 325 55 L 324 47 L 326 45 L 329 45 L 335 48 L 340 52 L 344 52 L 349 46 L 354 43 L 356 43 L 358 45 L 358 47 L 356 50 L 356 53 L 357 54 L 360 53 L 366 53 L 367 52 L 372 52 L 373 53 L 380 53 L 381 54 L 385 54 L 390 56 L 394 56 L 397 58 L 405 60 L 408 51 L 419 41 L 428 37 Z M 443 27 L 427 27 L 426 28 L 423 28 L 417 30 L 407 36 L 398 47 L 390 44 L 386 44 L 385 43 L 369 42 L 366 39 L 365 36 L 361 33 L 352 33 L 349 34 L 341 40 L 330 35 L 321 35 L 318 36 L 315 39 L 314 45 L 312 47 L 300 49 L 289 55 L 287 57 L 282 59 L 280 61 L 278 61 L 270 55 L 266 54 L 263 52 L 260 52 L 259 51 L 247 51 L 246 52 L 242 52 L 236 54 L 223 62 L 215 72 L 210 86 L 210 100 L 211 101 L 211 104 L 218 116 L 228 125 L 228 127 L 222 138 L 222 141 L 221 142 L 222 149 L 213 159 L 211 163 L 211 171 L 215 176 L 215 180 L 214 181 L 214 193 L 218 198 L 218 207 L 215 210 L 212 210 L 209 207 L 207 202 L 201 194 L 197 192 L 192 192 L 189 189 L 184 181 L 175 171 L 176 161 L 177 160 L 177 153 L 178 152 L 178 142 L 177 141 L 176 133 L 173 128 L 166 121 L 161 119 L 156 119 L 155 120 L 148 121 L 144 116 L 141 110 L 136 105 L 129 102 L 122 102 L 119 103 L 110 111 L 107 111 L 102 107 L 99 107 L 98 106 L 90 106 L 84 109 L 78 116 L 76 127 L 74 129 L 69 129 L 62 133 L 56 142 L 56 154 L 58 160 L 52 167 L 50 171 L 50 182 L 51 183 L 52 189 L 56 196 L 80 221 L 89 228 L 93 240 L 107 265 L 115 275 L 132 291 L 133 301 L 135 304 L 141 310 L 154 317 L 157 320 L 159 327 L 163 331 L 178 338 L 184 345 L 195 351 L 197 351 L 203 354 L 218 366 L 217 372 L 212 380 L 212 384 L 211 385 L 212 392 L 205 401 L 204 404 L 204 413 L 207 417 L 207 419 L 205 421 L 201 431 L 201 441 L 205 448 L 204 468 L 206 474 L 210 479 L 211 482 L 211 490 L 212 493 L 216 499 L 222 505 L 223 509 L 228 519 L 235 527 L 247 535 L 252 540 L 252 542 L 243 552 L 237 562 L 230 569 L 226 575 L 218 582 L 215 582 L 201 575 L 184 575 L 183 576 L 180 576 L 171 579 L 163 584 L 157 593 L 156 601 L 155 602 L 155 607 L 156 608 L 156 613 L 158 616 L 158 618 L 167 633 L 174 642 L 193 661 L 212 674 L 226 681 L 237 684 L 240 686 L 245 686 L 246 687 L 255 688 L 256 689 L 270 689 L 271 688 L 280 687 L 286 684 L 294 677 L 303 664 L 307 660 L 321 654 L 326 649 L 338 632 L 342 628 L 354 621 L 364 611 L 370 610 L 375 607 L 377 607 L 387 618 L 395 622 L 397 622 L 403 625 L 414 626 L 404 625 L 388 618 L 382 612 L 378 605 L 368 610 L 362 610 L 359 615 L 353 621 L 348 624 L 346 624 L 336 633 L 333 638 L 329 642 L 325 649 L 321 653 L 314 657 L 307 659 L 295 674 L 287 682 L 280 686 L 274 687 L 273 688 L 253 688 L 252 687 L 247 687 L 246 686 L 243 686 L 242 685 L 239 685 L 233 683 L 228 680 L 226 680 L 219 676 L 217 676 L 211 673 L 189 657 L 173 640 L 166 631 L 161 621 L 159 619 L 159 617 L 156 611 L 156 598 L 159 590 L 167 582 L 173 579 L 179 578 L 182 576 L 187 576 L 188 575 L 202 576 L 216 583 L 219 583 L 229 573 L 240 559 L 244 552 L 254 542 L 254 539 L 235 526 L 227 516 L 221 503 L 212 492 L 212 489 L 211 488 L 211 480 L 205 470 L 205 466 L 204 465 L 206 449 L 202 443 L 201 435 L 202 434 L 203 426 L 208 418 L 207 415 L 204 412 L 204 405 L 208 398 L 213 393 L 212 382 L 219 370 L 219 365 L 214 361 L 205 356 L 202 353 L 193 349 L 191 349 L 186 346 L 182 342 L 182 340 L 180 338 L 165 332 L 159 326 L 158 324 L 158 320 L 154 316 L 147 313 L 141 309 L 134 302 L 133 300 L 133 292 L 116 275 L 108 265 L 94 241 L 90 228 L 80 220 L 59 199 L 55 193 L 50 181 L 50 173 L 53 167 L 59 161 L 56 152 L 57 141 L 60 136 L 66 131 L 69 130 L 76 130 L 77 129 L 77 121 L 80 114 L 84 110 L 89 107 L 92 107 L 93 106 L 100 107 L 104 109 L 107 112 L 110 112 L 120 103 L 130 103 L 133 104 L 141 111 L 147 122 L 150 122 L 154 120 L 162 120 L 166 122 L 173 129 L 177 138 L 177 144 L 178 145 L 177 148 L 177 158 L 176 159 L 176 163 L 174 168 L 174 172 L 184 182 L 188 189 L 192 193 L 200 194 L 206 202 L 211 211 L 215 211 L 218 209 L 219 197 L 215 193 L 214 190 L 214 182 L 216 178 L 216 175 L 212 172 L 211 166 L 213 160 L 222 150 L 222 139 L 227 129 L 229 127 L 229 124 L 225 122 L 215 111 L 210 98 L 210 88 L 211 87 L 211 83 L 213 77 L 216 71 L 219 67 L 228 59 L 244 52 L 251 52 L 254 51 L 255 52 L 260 52 L 266 54 L 273 58 L 276 61 L 280 62 L 282 60 L 296 53 L 300 50 L 306 49 L 307 48 L 313 48 L 315 46 L 315 40 L 320 36 L 331 36 L 339 41 L 341 41 L 351 34 L 359 33 L 366 39 L 366 41 L 368 43 L 381 43 L 382 44 L 391 45 L 395 47 L 399 47 L 407 37 L 416 31 L 425 28 L 439 27 L 440 28 L 444 28 L 450 31 L 452 31 L 463 38 L 469 44 L 473 50 L 478 64 L 478 74 L 477 75 L 476 81 L 473 87 L 465 96 L 465 99 L 473 113 L 477 118 L 481 126 L 482 131 L 485 133 L 493 142 L 493 149 L 490 153 L 490 155 L 495 163 L 496 169 L 497 170 L 496 175 L 492 179 L 492 182 L 494 187 L 494 193 L 492 199 L 486 206 L 484 218 L 482 222 L 477 227 L 476 232 L 477 233 L 487 233 L 493 237 L 500 237 L 503 235 L 506 235 L 507 234 L 516 234 L 519 235 L 524 240 L 546 239 L 553 245 L 553 248 L 555 250 L 558 250 L 559 251 L 568 251 L 579 255 L 583 260 L 583 266 L 585 268 L 595 271 L 598 273 L 604 279 L 605 283 L 608 287 L 617 291 L 622 296 L 623 298 L 622 306 L 634 318 L 640 326 L 645 338 L 645 344 L 646 345 L 646 349 L 645 350 L 644 357 L 638 364 L 635 373 L 631 380 L 626 385 L 616 389 L 608 397 L 602 399 L 597 399 L 596 400 L 581 397 L 574 402 L 564 401 L 556 397 L 543 384 L 541 380 L 541 369 L 539 367 L 536 366 L 522 366 L 506 357 L 501 357 L 499 360 L 496 361 L 493 361 L 492 360 L 489 361 L 489 364 L 491 367 L 491 369 L 493 371 L 494 375 L 499 385 L 499 389 L 498 391 L 505 401 L 505 404 L 506 405 L 505 417 L 507 420 L 515 423 L 523 431 L 526 437 L 526 440 L 528 443 L 529 455 L 528 456 L 528 464 L 524 473 L 516 481 L 515 481 L 510 487 L 512 490 L 523 499 L 527 505 L 530 512 L 532 514 L 542 534 L 542 536 L 545 541 L 546 546 L 550 554 L 550 557 L 552 562 L 552 566 L 553 567 L 553 580 L 552 581 L 552 584 L 546 596 L 539 603 L 530 607 L 527 607 L 526 608 L 518 608 L 517 607 L 514 607 L 511 605 L 507 604 L 496 596 L 491 596 L 485 600 L 477 604 L 475 604 L 473 606 L 461 610 L 445 618 L 438 623 L 428 623 L 427 624 L 416 625 L 440 623 L 452 615 L 462 610 L 467 609 L 472 606 L 479 604 L 481 602 L 492 596 L 494 596 L 506 604 L 516 608 L 528 608 L 529 607 L 532 607 L 540 603 L 546 597 L 552 586 L 553 576 L 554 575 L 553 572 L 553 564 L 552 563 L 552 560 L 551 559 L 551 556 L 548 547 L 545 542 L 540 527 L 538 525 L 528 505 L 524 499 L 513 489 L 513 486 L 522 477 L 527 469 L 528 463 L 529 462 L 529 447 L 528 446 L 528 442 L 526 436 L 523 430 L 515 422 L 509 420 L 506 417 L 506 412 L 507 411 L 506 403 L 503 396 L 499 391 L 499 384 L 497 378 L 490 365 L 490 362 L 491 361 L 498 361 L 504 357 L 507 360 L 510 361 L 515 365 L 518 365 L 521 367 L 530 367 L 531 366 L 538 367 L 541 370 L 540 379 L 542 384 L 546 389 L 556 398 L 566 402 L 575 402 L 581 398 L 583 398 L 586 400 L 596 401 L 597 400 L 601 400 L 602 399 L 608 398 L 616 390 L 627 385 L 631 381 L 635 374 L 637 366 L 644 358 L 645 352 L 646 351 L 646 341 L 645 340 L 643 330 L 641 328 L 640 325 L 636 319 L 623 306 L 623 302 L 624 300 L 622 295 L 618 291 L 610 287 L 606 283 L 606 281 L 601 274 L 597 271 L 587 268 L 584 265 L 583 258 L 579 254 L 571 251 L 557 250 L 554 247 L 551 241 L 545 238 L 524 239 L 520 235 L 515 233 L 510 233 L 509 234 L 505 234 L 499 236 L 494 236 L 490 233 L 487 232 L 479 232 L 477 230 L 484 220 L 486 207 L 490 203 L 494 195 L 494 185 L 492 181 L 495 178 L 497 174 L 497 168 L 495 162 L 491 156 L 491 153 L 493 150 L 493 141 L 482 129 L 482 127 L 478 118 L 466 100 L 466 96 L 473 88 L 478 76 L 478 62 L 475 53 L 470 44 L 462 36 L 452 30 Z" fill="#B1B1B1" fill-rule="evenodd"/><path d="M 211 609 L 206 609 L 201 615 L 201 619 L 205 623 L 207 623 L 209 621 L 213 613 L 213 611 Z M 188 596 L 186 600 L 186 609 L 188 612 L 192 612 L 195 607 L 195 598 L 193 596 Z M 174 595 L 172 597 L 172 599 L 171 600 L 171 605 L 173 609 L 177 613 L 178 613 L 179 612 L 179 608 L 180 607 L 179 606 L 179 600 L 178 599 L 178 597 L 176 595 Z M 266 156 L 265 160 L 264 161 L 264 175 L 266 179 L 270 184 L 279 189 L 281 189 L 285 193 L 285 199 L 286 200 L 286 203 L 289 209 L 289 211 L 291 213 L 293 218 L 295 220 L 297 224 L 301 228 L 301 229 L 314 241 L 318 243 L 320 243 L 320 241 L 312 232 L 310 228 L 310 223 L 313 217 L 315 215 L 315 214 L 324 206 L 327 205 L 331 202 L 333 202 L 337 200 L 341 200 L 342 199 L 350 200 L 356 203 L 362 209 L 362 217 L 361 218 L 360 223 L 355 232 L 355 234 L 356 234 L 359 231 L 363 223 L 363 221 L 366 214 L 366 210 L 367 209 L 367 205 L 368 204 L 368 196 L 369 195 L 369 182 L 368 181 L 368 173 L 367 172 L 367 169 L 364 165 L 362 165 L 358 170 L 358 171 L 351 177 L 345 180 L 343 180 L 342 181 L 340 181 L 333 184 L 318 184 L 317 183 L 309 182 L 305 180 L 298 180 L 291 185 L 289 185 L 288 186 L 281 186 L 277 184 L 271 178 L 268 171 L 269 156 L 268 155 Z M 322 147 L 317 143 L 310 141 L 309 140 L 304 140 L 303 139 L 291 140 L 290 141 L 282 143 L 277 146 L 275 149 L 275 156 L 279 163 L 285 168 L 287 168 L 291 170 L 302 170 L 314 165 L 321 158 L 322 156 Z M 283 119 L 279 119 L 273 126 L 273 128 L 272 129 L 272 138 L 274 141 L 279 141 L 284 136 L 286 132 L 286 123 Z M 364 113 L 359 117 L 357 121 L 357 133 L 359 137 L 361 139 L 366 140 L 368 139 L 372 134 L 372 131 L 373 130 L 373 124 L 372 123 L 372 120 L 370 116 L 368 114 Z M 291 81 L 290 80 L 285 80 L 281 82 L 276 87 L 275 89 L 275 92 L 276 93 L 278 93 L 282 89 L 291 84 Z M 362 72 L 362 74 L 364 76 L 369 77 L 378 82 L 380 82 L 381 81 L 380 77 L 374 72 L 372 72 L 368 70 L 364 70 Z M 444 29 L 440 29 L 439 28 L 431 28 L 430 29 L 425 29 L 424 30 L 421 30 L 418 32 L 416 32 L 414 34 L 411 35 L 408 38 L 407 38 L 403 43 L 403 44 L 399 48 L 395 48 L 391 46 L 387 46 L 386 45 L 382 45 L 381 44 L 368 44 L 365 41 L 365 39 L 361 35 L 359 34 L 355 34 L 354 35 L 351 35 L 341 42 L 339 42 L 337 40 L 331 37 L 320 37 L 316 40 L 316 46 L 313 49 L 307 49 L 306 50 L 300 51 L 296 54 L 287 58 L 280 63 L 276 62 L 273 59 L 266 55 L 264 55 L 260 53 L 255 53 L 254 52 L 252 52 L 251 53 L 244 53 L 243 54 L 238 55 L 228 60 L 225 63 L 224 63 L 217 71 L 214 77 L 214 79 L 212 83 L 212 87 L 211 88 L 211 98 L 212 99 L 213 105 L 216 111 L 225 121 L 228 122 L 230 124 L 230 127 L 228 129 L 223 139 L 223 150 L 222 152 L 214 160 L 213 162 L 213 165 L 212 166 L 213 172 L 217 175 L 217 178 L 215 182 L 215 190 L 216 191 L 216 193 L 220 197 L 219 209 L 215 212 L 211 212 L 209 210 L 208 207 L 206 205 L 205 202 L 200 195 L 198 195 L 197 194 L 192 194 L 187 189 L 183 182 L 173 172 L 173 168 L 174 167 L 175 159 L 176 158 L 176 148 L 177 147 L 177 145 L 176 144 L 176 138 L 172 129 L 166 123 L 162 121 L 154 121 L 150 123 L 147 123 L 145 121 L 140 111 L 133 105 L 131 105 L 130 104 L 120 104 L 118 105 L 110 113 L 107 113 L 104 110 L 100 108 L 96 108 L 95 107 L 89 108 L 84 111 L 81 114 L 78 121 L 78 129 L 76 131 L 69 131 L 68 132 L 66 132 L 61 136 L 58 141 L 58 144 L 57 145 L 57 152 L 58 153 L 60 161 L 54 167 L 51 173 L 51 181 L 52 182 L 52 185 L 60 199 L 80 219 L 81 219 L 85 223 L 86 223 L 91 228 L 92 232 L 93 233 L 93 236 L 95 239 L 95 241 L 98 245 L 101 252 L 103 254 L 105 259 L 107 261 L 109 265 L 113 269 L 113 270 L 117 274 L 117 275 L 134 292 L 134 300 L 135 302 L 141 308 L 142 308 L 147 312 L 154 315 L 159 320 L 159 324 L 160 326 L 165 331 L 169 333 L 171 333 L 176 336 L 180 337 L 183 340 L 183 342 L 186 345 L 191 348 L 193 348 L 196 350 L 198 350 L 202 352 L 205 355 L 206 355 L 211 359 L 214 360 L 220 365 L 220 370 L 217 374 L 213 382 L 213 389 L 214 390 L 214 393 L 209 398 L 205 405 L 205 412 L 209 417 L 206 424 L 204 426 L 203 434 L 202 435 L 203 443 L 205 445 L 207 449 L 207 451 L 206 452 L 205 465 L 206 466 L 206 470 L 212 480 L 212 488 L 213 489 L 213 492 L 222 503 L 228 516 L 235 525 L 236 525 L 240 529 L 248 533 L 252 537 L 253 537 L 255 539 L 255 542 L 245 552 L 241 559 L 230 572 L 230 573 L 219 584 L 216 584 L 207 579 L 205 579 L 202 577 L 198 577 L 197 576 L 188 576 L 187 577 L 182 577 L 179 579 L 176 579 L 167 583 L 160 590 L 158 594 L 158 597 L 157 598 L 157 611 L 160 617 L 160 619 L 162 621 L 167 631 L 174 639 L 174 640 L 189 656 L 190 656 L 194 660 L 195 660 L 198 663 L 199 663 L 202 666 L 203 666 L 211 672 L 239 684 L 242 684 L 243 685 L 246 685 L 247 686 L 252 686 L 253 687 L 273 687 L 274 686 L 277 686 L 284 683 L 294 674 L 294 673 L 300 667 L 302 663 L 307 658 L 314 656 L 321 652 L 324 649 L 328 642 L 332 638 L 335 633 L 346 623 L 348 623 L 353 620 L 358 615 L 358 614 L 362 609 L 368 609 L 369 608 L 371 608 L 373 606 L 378 604 L 380 606 L 383 612 L 388 617 L 404 624 L 407 624 L 408 625 L 415 625 L 416 624 L 427 623 L 428 622 L 438 622 L 445 617 L 461 609 L 463 609 L 466 607 L 473 605 L 475 603 L 477 603 L 491 595 L 496 595 L 507 603 L 511 604 L 514 606 L 517 606 L 518 607 L 526 607 L 527 606 L 533 605 L 539 602 L 547 593 L 550 587 L 551 581 L 552 580 L 552 567 L 551 566 L 551 562 L 550 561 L 549 554 L 547 551 L 547 549 L 545 546 L 545 544 L 541 536 L 541 534 L 531 514 L 529 512 L 526 505 L 524 503 L 522 499 L 513 491 L 512 491 L 509 487 L 509 486 L 523 473 L 526 467 L 526 465 L 527 464 L 527 456 L 528 455 L 528 451 L 527 450 L 527 443 L 525 440 L 525 437 L 522 431 L 515 424 L 507 421 L 504 417 L 504 413 L 505 412 L 505 405 L 504 404 L 504 401 L 497 391 L 498 389 L 498 385 L 493 375 L 493 373 L 490 369 L 490 367 L 488 364 L 488 361 L 491 359 L 493 360 L 499 359 L 501 356 L 506 356 L 522 365 L 536 365 L 537 366 L 539 366 L 542 369 L 542 380 L 544 384 L 556 396 L 557 396 L 559 398 L 561 398 L 564 400 L 574 401 L 581 396 L 584 396 L 585 397 L 587 397 L 588 398 L 592 398 L 593 399 L 606 397 L 608 396 L 616 388 L 626 384 L 632 377 L 637 364 L 642 359 L 643 355 L 644 354 L 645 345 L 644 344 L 644 338 L 643 337 L 642 332 L 639 326 L 633 319 L 633 318 L 621 306 L 621 303 L 622 302 L 622 298 L 621 296 L 617 292 L 608 288 L 604 283 L 603 279 L 598 274 L 597 274 L 595 272 L 593 272 L 587 269 L 585 269 L 582 266 L 582 260 L 579 256 L 572 253 L 569 253 L 568 252 L 559 252 L 558 251 L 555 251 L 552 248 L 552 245 L 546 240 L 533 240 L 532 241 L 524 241 L 519 236 L 517 236 L 516 235 L 507 235 L 506 236 L 503 236 L 500 238 L 493 238 L 491 236 L 487 234 L 477 234 L 475 232 L 475 229 L 476 227 L 481 222 L 483 218 L 485 206 L 491 199 L 491 197 L 493 193 L 493 187 L 492 186 L 491 179 L 495 175 L 496 170 L 495 169 L 494 163 L 489 155 L 489 153 L 492 149 L 492 142 L 491 140 L 481 131 L 480 129 L 480 126 L 476 118 L 472 113 L 471 110 L 469 108 L 468 105 L 466 103 L 464 99 L 464 96 L 472 87 L 475 81 L 476 75 L 477 74 L 477 64 L 476 63 L 476 60 L 475 59 L 474 54 L 468 44 L 463 39 L 462 39 L 456 34 Z M 517 510 L 531 535 L 531 537 L 535 544 L 535 546 L 536 547 L 537 552 L 539 555 L 540 561 L 542 565 L 542 574 L 540 576 L 532 576 L 529 578 L 529 581 L 531 583 L 533 583 L 534 584 L 538 584 L 541 587 L 541 588 L 539 590 L 535 592 L 525 592 L 524 594 L 526 598 L 524 600 L 522 600 L 521 599 L 517 599 L 505 593 L 500 588 L 500 577 L 499 576 L 497 576 L 495 578 L 495 579 L 486 588 L 485 588 L 480 592 L 477 593 L 475 595 L 471 596 L 469 598 L 461 602 L 459 602 L 454 605 L 452 605 L 451 606 L 446 607 L 443 609 L 441 609 L 434 613 L 416 612 L 414 614 L 414 617 L 412 619 L 404 615 L 394 607 L 391 606 L 388 603 L 388 602 L 386 600 L 386 596 L 394 589 L 397 588 L 404 583 L 406 583 L 408 581 L 422 574 L 424 574 L 450 561 L 452 559 L 460 555 L 463 552 L 468 549 L 474 543 L 475 543 L 486 531 L 488 527 L 493 521 L 494 517 L 496 514 L 498 506 L 503 500 L 507 500 L 509 502 L 510 502 Z M 512 434 L 515 437 L 516 441 L 519 447 L 519 460 L 518 461 L 517 469 L 514 473 L 512 472 L 512 466 L 511 465 L 511 455 L 510 454 L 510 445 L 509 444 L 510 436 Z M 443 36 L 453 41 L 463 51 L 463 52 L 467 57 L 468 63 L 469 64 L 469 72 L 468 73 L 467 79 L 464 84 L 456 92 L 453 93 L 452 95 L 461 107 L 464 114 L 473 127 L 473 128 L 471 130 L 470 130 L 469 132 L 473 134 L 475 136 L 478 137 L 484 143 L 484 146 L 482 148 L 475 147 L 474 149 L 483 159 L 487 166 L 487 170 L 485 172 L 483 172 L 481 170 L 479 170 L 479 173 L 484 183 L 484 186 L 485 187 L 485 194 L 483 196 L 482 196 L 478 192 L 477 192 L 477 211 L 476 212 L 476 214 L 475 215 L 473 215 L 471 213 L 470 214 L 470 216 L 469 217 L 469 221 L 467 225 L 467 228 L 464 233 L 456 241 L 449 245 L 443 251 L 445 252 L 446 251 L 448 251 L 452 249 L 455 249 L 456 248 L 458 248 L 459 247 L 461 247 L 462 246 L 464 246 L 465 245 L 467 245 L 468 244 L 470 244 L 473 242 L 476 242 L 477 241 L 481 241 L 484 244 L 483 246 L 484 248 L 493 247 L 494 246 L 496 246 L 500 244 L 503 244 L 504 243 L 515 242 L 517 244 L 517 246 L 514 249 L 514 251 L 521 251 L 522 250 L 527 250 L 528 249 L 532 249 L 533 248 L 543 248 L 545 250 L 545 251 L 540 256 L 541 258 L 543 258 L 544 259 L 566 259 L 567 260 L 573 261 L 575 263 L 575 264 L 573 266 L 568 267 L 566 269 L 568 271 L 572 273 L 580 274 L 581 275 L 583 275 L 584 276 L 586 276 L 589 278 L 593 279 L 596 282 L 596 283 L 591 288 L 596 291 L 598 291 L 599 292 L 604 293 L 607 295 L 609 295 L 613 299 L 613 301 L 610 304 L 609 304 L 608 306 L 610 308 L 611 308 L 626 323 L 626 324 L 629 327 L 634 337 L 634 339 L 636 343 L 636 350 L 633 353 L 632 353 L 626 347 L 624 347 L 623 348 L 623 352 L 626 358 L 627 366 L 624 372 L 620 376 L 616 376 L 612 372 L 612 371 L 608 366 L 606 366 L 605 367 L 605 373 L 607 377 L 607 382 L 606 383 L 606 385 L 602 389 L 600 390 L 591 390 L 590 389 L 588 389 L 584 387 L 576 379 L 572 377 L 571 378 L 571 382 L 573 385 L 573 388 L 571 390 L 564 390 L 563 389 L 559 388 L 553 382 L 550 376 L 549 363 L 545 360 L 542 360 L 537 357 L 535 357 L 522 345 L 520 346 L 521 351 L 519 353 L 517 353 L 509 349 L 507 347 L 496 342 L 491 342 L 490 343 L 492 347 L 492 349 L 491 350 L 488 350 L 484 348 L 479 348 L 478 347 L 471 347 L 470 346 L 463 346 L 462 345 L 457 345 L 456 344 L 452 344 L 451 343 L 444 343 L 442 345 L 442 346 L 443 347 L 443 349 L 447 352 L 450 352 L 451 353 L 456 353 L 457 354 L 471 355 L 472 356 L 475 356 L 478 359 L 478 362 L 479 363 L 480 369 L 483 375 L 485 377 L 485 379 L 487 382 L 487 383 L 483 387 L 483 388 L 495 401 L 497 406 L 495 408 L 491 408 L 489 407 L 488 409 L 492 416 L 500 426 L 503 432 L 503 435 L 501 437 L 498 437 L 497 438 L 497 440 L 499 443 L 499 446 L 501 450 L 501 453 L 502 454 L 502 461 L 503 462 L 503 465 L 502 466 L 502 468 L 500 470 L 497 470 L 496 471 L 496 473 L 497 474 L 497 483 L 496 484 L 493 495 L 489 503 L 488 508 L 484 516 L 482 518 L 481 521 L 475 528 L 475 529 L 466 538 L 465 538 L 459 544 L 458 544 L 451 550 L 447 552 L 445 552 L 442 554 L 440 554 L 438 556 L 433 558 L 431 560 L 415 568 L 413 568 L 408 571 L 406 571 L 401 574 L 399 574 L 395 576 L 393 578 L 391 578 L 389 580 L 383 583 L 375 590 L 373 590 L 369 592 L 363 598 L 361 597 L 358 598 L 347 610 L 344 609 L 336 616 L 336 617 L 324 629 L 324 630 L 321 633 L 316 641 L 309 648 L 307 649 L 305 648 L 302 648 L 290 661 L 287 666 L 278 675 L 274 677 L 260 677 L 256 675 L 254 673 L 254 672 L 251 669 L 248 663 L 246 661 L 245 661 L 232 650 L 228 648 L 215 635 L 214 635 L 205 627 L 194 622 L 192 620 L 186 619 L 185 618 L 181 618 L 176 622 L 173 622 L 171 620 L 169 616 L 168 608 L 167 607 L 167 597 L 168 595 L 174 589 L 179 586 L 181 586 L 182 585 L 186 585 L 187 584 L 199 584 L 200 585 L 204 585 L 205 586 L 207 586 L 214 590 L 216 590 L 220 592 L 225 596 L 237 602 L 238 600 L 235 595 L 230 590 L 229 586 L 232 583 L 237 580 L 247 569 L 247 568 L 251 563 L 252 560 L 256 555 L 260 547 L 266 541 L 272 539 L 275 536 L 275 534 L 273 532 L 270 532 L 268 530 L 269 528 L 274 525 L 276 525 L 280 523 L 283 523 L 286 521 L 286 519 L 289 516 L 293 515 L 294 514 L 297 514 L 299 512 L 299 511 L 296 508 L 296 507 L 298 505 L 304 504 L 305 503 L 308 503 L 309 502 L 312 502 L 313 501 L 318 500 L 321 498 L 323 498 L 326 496 L 328 496 L 331 494 L 333 494 L 337 492 L 340 492 L 341 491 L 347 491 L 348 490 L 353 490 L 354 489 L 359 489 L 360 488 L 365 488 L 366 487 L 379 486 L 379 485 L 374 482 L 353 482 L 352 483 L 348 483 L 347 484 L 340 484 L 339 485 L 328 486 L 327 487 L 322 488 L 319 490 L 317 490 L 316 491 L 314 491 L 313 492 L 311 492 L 310 493 L 296 497 L 291 501 L 283 505 L 280 508 L 275 511 L 266 520 L 265 520 L 256 530 L 253 530 L 250 527 L 249 527 L 239 517 L 239 516 L 235 511 L 234 507 L 231 502 L 231 500 L 229 496 L 229 493 L 228 492 L 228 484 L 227 484 L 223 489 L 222 489 L 220 487 L 220 474 L 221 473 L 221 466 L 222 465 L 222 462 L 221 461 L 217 466 L 215 466 L 213 464 L 213 456 L 214 455 L 215 448 L 217 444 L 217 441 L 219 437 L 217 436 L 213 439 L 212 439 L 210 437 L 210 432 L 211 431 L 211 429 L 214 423 L 216 421 L 222 411 L 221 409 L 215 410 L 213 408 L 213 405 L 216 400 L 223 393 L 223 392 L 227 387 L 226 386 L 223 386 L 221 384 L 221 382 L 224 376 L 228 372 L 230 368 L 230 365 L 231 364 L 231 361 L 232 360 L 232 357 L 233 356 L 233 349 L 236 344 L 236 342 L 238 338 L 238 336 L 237 335 L 237 331 L 236 333 L 233 336 L 232 336 L 229 340 L 225 352 L 223 354 L 218 353 L 216 352 L 214 350 L 214 348 L 210 345 L 205 345 L 204 344 L 199 344 L 198 343 L 196 343 L 193 340 L 193 339 L 195 337 L 195 334 L 194 333 L 192 333 L 188 331 L 185 331 L 184 330 L 182 330 L 176 327 L 169 325 L 167 323 L 167 321 L 170 318 L 171 318 L 173 316 L 173 315 L 167 312 L 165 312 L 164 311 L 162 311 L 159 309 L 155 308 L 153 306 L 148 304 L 143 299 L 143 297 L 145 295 L 149 295 L 150 293 L 142 286 L 141 286 L 133 279 L 132 279 L 116 261 L 113 255 L 111 253 L 110 250 L 106 245 L 106 243 L 103 238 L 100 227 L 97 221 L 89 216 L 75 203 L 74 203 L 63 190 L 59 182 L 59 175 L 65 168 L 72 168 L 73 167 L 66 153 L 66 149 L 65 148 L 65 146 L 66 145 L 66 143 L 71 138 L 79 138 L 84 141 L 91 149 L 91 146 L 86 136 L 86 122 L 88 118 L 92 115 L 97 115 L 104 119 L 110 126 L 116 138 L 117 138 L 117 121 L 118 120 L 118 117 L 123 111 L 128 111 L 135 117 L 140 126 L 143 138 L 145 138 L 152 129 L 154 129 L 155 128 L 159 128 L 161 129 L 167 136 L 167 138 L 169 142 L 168 158 L 167 159 L 167 164 L 164 170 L 164 172 L 176 186 L 176 187 L 182 194 L 188 204 L 190 206 L 192 206 L 193 204 L 195 202 L 196 202 L 202 209 L 209 224 L 212 228 L 213 228 L 215 226 L 215 221 L 218 218 L 223 223 L 230 238 L 231 238 L 233 236 L 236 236 L 239 239 L 241 244 L 245 249 L 247 249 L 247 247 L 249 245 L 252 246 L 260 256 L 264 265 L 266 267 L 268 267 L 270 264 L 270 261 L 263 248 L 255 239 L 251 237 L 248 234 L 246 230 L 244 230 L 242 232 L 241 232 L 237 228 L 236 224 L 235 223 L 235 210 L 234 209 L 230 211 L 227 208 L 227 206 L 226 205 L 226 201 L 227 200 L 227 197 L 228 196 L 230 189 L 229 188 L 227 189 L 224 189 L 222 187 L 222 183 L 225 176 L 228 172 L 228 169 L 227 168 L 224 170 L 222 170 L 220 168 L 220 164 L 223 159 L 231 151 L 230 142 L 239 123 L 239 118 L 234 117 L 229 114 L 225 110 L 220 102 L 220 98 L 219 97 L 220 85 L 225 74 L 233 66 L 236 65 L 238 63 L 240 63 L 246 60 L 250 60 L 251 59 L 254 59 L 255 60 L 260 60 L 266 63 L 274 71 L 275 73 L 278 73 L 287 66 L 291 64 L 293 64 L 296 62 L 301 61 L 302 60 L 302 58 L 307 54 L 322 55 L 323 54 L 322 45 L 324 43 L 329 43 L 332 45 L 334 45 L 339 49 L 343 50 L 350 43 L 354 41 L 358 41 L 360 43 L 360 46 L 358 50 L 359 52 L 361 51 L 373 50 L 374 51 L 380 51 L 381 52 L 385 52 L 386 53 L 389 53 L 390 54 L 394 54 L 395 55 L 397 55 L 400 57 L 404 58 L 405 57 L 405 54 L 410 46 L 419 39 L 423 38 L 429 35 L 439 35 L 440 36 Z" fill="#010101" fill-rule="evenodd"/></svg>