<svg xmlns="http://www.w3.org/2000/svg" viewBox="0 0 653 704" shape-rendering="geometricPrecision"><title>intro frame 000</title><path d="M 177 597 L 182 604 L 184 609 L 186 610 L 190 605 L 190 600 L 189 599 L 180 599 Z M 138 545 L 138 546 L 141 548 L 142 553 L 150 556 L 153 559 L 155 559 L 155 554 L 153 552 L 141 545 Z M 129 545 L 130 547 L 134 547 L 137 549 L 132 544 Z M 338 520 L 337 521 L 337 525 L 338 526 L 339 525 L 339 521 Z M 373 511 L 370 511 L 365 518 L 363 524 L 364 526 L 368 524 L 374 517 L 374 513 Z M 299 509 L 296 511 L 296 517 L 299 511 Z M 393 504 L 391 504 L 390 507 L 391 509 L 390 512 L 391 519 L 389 522 L 389 528 L 390 529 L 393 525 L 393 512 L 391 510 L 393 508 Z M 313 499 L 312 502 L 308 507 L 309 507 L 314 501 Z M 439 472 L 437 472 L 434 470 L 432 473 L 430 472 L 427 473 L 430 476 L 433 477 L 435 474 L 439 473 Z M 346 455 L 339 456 L 338 457 L 338 460 L 340 460 L 343 457 L 345 457 Z M 264 447 L 262 450 L 261 457 L 262 457 L 264 453 Z M 435 429 L 433 433 L 433 436 L 439 440 L 440 437 L 438 435 L 436 429 Z M 422 429 L 427 440 L 432 443 L 433 442 L 425 433 L 424 430 Z M 378 409 L 378 418 L 379 418 L 380 416 L 383 415 L 380 410 Z M 238 409 L 234 418 L 229 423 L 226 424 L 226 425 L 223 427 L 223 429 L 227 426 L 233 426 L 235 428 L 235 433 L 231 437 L 231 440 L 227 445 L 228 450 L 235 449 L 238 453 L 236 459 L 232 464 L 233 465 L 247 465 L 250 461 L 248 457 L 242 452 L 241 449 L 242 438 L 246 432 L 245 431 L 246 424 L 243 422 L 244 418 L 240 415 L 240 410 Z M 242 390 L 240 390 L 237 392 L 230 399 L 230 401 L 233 400 L 235 398 L 237 399 L 241 399 L 242 398 Z M 414 388 L 414 389 L 418 389 L 422 393 L 423 392 L 419 387 Z M 556 374 L 556 381 L 559 382 L 561 384 L 560 386 L 562 388 L 563 387 L 563 382 L 557 377 L 557 374 Z M 246 376 L 243 374 L 240 374 L 239 377 L 237 379 L 238 380 L 241 377 L 245 377 Z M 399 330 L 398 331 L 398 337 L 396 339 L 394 339 L 399 344 L 407 344 L 408 339 L 405 337 Z M 406 322 L 406 324 L 409 324 L 412 327 L 415 328 L 408 322 Z M 552 279 L 553 281 L 563 281 L 563 280 L 560 280 L 558 278 L 553 278 Z M 348 249 L 346 252 L 347 254 L 347 264 L 346 265 L 350 267 L 354 265 L 354 252 Z M 89 209 L 92 213 L 98 216 L 108 225 L 108 227 L 110 226 L 111 219 L 113 217 L 116 217 L 117 216 L 116 214 L 104 214 L 101 211 L 99 211 L 96 208 L 92 206 L 90 206 Z M 302 179 L 303 180 L 306 180 L 308 177 L 303 177 Z M 98 176 L 96 175 L 92 179 L 83 179 L 93 187 L 94 183 Z M 233 179 L 231 186 L 232 187 L 235 187 L 237 189 L 234 204 L 235 205 L 243 205 L 245 207 L 244 209 L 244 223 L 245 224 L 251 221 L 251 203 L 253 201 L 255 202 L 255 216 L 257 219 L 257 233 L 258 235 L 259 235 L 261 232 L 262 219 L 264 217 L 266 219 L 266 224 L 267 225 L 274 225 L 277 228 L 277 232 L 278 233 L 285 233 L 288 237 L 293 237 L 295 239 L 295 248 L 296 249 L 309 249 L 311 251 L 311 256 L 312 257 L 317 257 L 319 259 L 319 260 L 315 263 L 316 265 L 320 267 L 329 267 L 330 268 L 339 268 L 340 269 L 342 269 L 344 267 L 342 264 L 342 254 L 344 253 L 344 252 L 339 252 L 338 253 L 324 253 L 322 252 L 321 253 L 320 251 L 312 247 L 311 245 L 308 244 L 306 242 L 304 242 L 302 240 L 302 236 L 291 223 L 290 219 L 287 216 L 287 214 L 282 205 L 281 200 L 277 195 L 271 192 L 265 185 L 265 183 L 263 180 L 262 172 L 261 171 L 254 179 L 246 183 L 238 178 L 234 178 Z M 268 201 L 271 203 L 271 216 L 269 218 L 266 216 L 266 203 Z M 254 201 L 254 199 L 256 197 L 261 197 L 263 199 L 261 202 L 255 202 Z M 242 190 L 246 193 L 246 198 L 247 200 L 245 202 L 243 201 L 241 198 L 241 191 Z M 275 167 L 275 173 L 274 176 L 281 184 L 285 186 L 289 186 L 292 183 L 294 183 L 299 180 L 298 177 L 285 177 L 281 172 L 278 173 L 277 172 L 277 169 Z M 147 165 L 147 169 L 151 173 L 152 179 L 153 180 L 153 185 L 151 188 L 152 189 L 157 189 L 160 186 L 162 186 L 162 181 L 163 180 L 163 175 L 164 174 L 164 172 L 162 169 L 162 166 L 157 170 L 155 170 Z M 115 155 L 114 161 L 122 157 L 135 158 L 144 166 L 145 159 L 142 160 L 138 157 L 138 154 L 129 155 L 126 153 L 119 153 L 117 152 Z M 76 149 L 77 151 L 84 151 L 87 153 L 84 150 Z M 344 118 L 343 119 L 343 140 L 339 143 L 338 146 L 331 146 L 330 145 L 330 141 L 322 137 L 309 137 L 308 138 L 301 138 L 301 139 L 304 139 L 305 140 L 313 140 L 325 149 L 329 146 L 331 147 L 331 149 L 327 152 L 326 162 L 324 165 L 315 173 L 316 177 L 314 179 L 320 179 L 322 182 L 334 183 L 337 181 L 339 181 L 341 179 L 343 179 L 345 177 L 348 177 L 355 171 L 356 168 L 361 162 L 362 162 L 364 165 L 366 165 L 370 169 L 370 171 L 374 177 L 374 181 L 373 182 L 374 185 L 373 209 L 371 212 L 365 230 L 357 243 L 361 241 L 363 243 L 363 245 L 360 249 L 363 249 L 363 247 L 365 246 L 367 248 L 367 252 L 368 253 L 378 253 L 380 247 L 376 250 L 374 248 L 374 245 L 378 241 L 378 239 L 380 237 L 383 237 L 384 236 L 384 233 L 381 227 L 383 225 L 386 224 L 382 219 L 386 216 L 386 202 L 388 199 L 387 199 L 386 202 L 384 202 L 382 200 L 382 195 L 381 194 L 378 194 L 376 191 L 378 189 L 381 189 L 382 188 L 382 183 L 386 180 L 384 176 L 386 172 L 386 169 L 381 165 L 376 159 L 373 162 L 368 162 L 366 160 L 368 157 L 374 157 L 374 156 L 367 148 L 362 149 L 360 147 L 360 145 L 354 141 L 351 137 L 351 131 L 352 130 L 351 124 L 352 121 L 351 121 L 349 118 Z M 338 146 L 341 145 L 343 148 L 340 150 L 338 148 Z M 452 75 L 451 75 L 451 78 L 450 79 L 450 84 L 448 85 L 448 86 L 450 85 L 450 83 L 452 81 Z M 312 72 L 308 72 L 307 71 L 304 72 L 295 72 L 292 76 L 290 76 L 290 80 L 289 81 L 292 82 L 295 85 L 295 88 L 297 87 L 299 88 L 298 91 L 299 89 L 301 89 L 301 84 L 300 83 L 302 80 L 302 77 L 304 76 L 307 78 Z M 258 69 L 252 69 L 246 72 L 240 73 L 238 75 L 238 77 L 231 83 L 230 89 L 229 90 L 231 96 L 234 97 L 236 95 L 237 90 L 246 81 L 259 81 L 263 84 L 267 89 L 267 92 L 265 94 L 265 96 L 263 98 L 261 98 L 256 108 L 248 115 L 247 118 L 247 125 L 245 130 L 242 134 L 241 139 L 239 142 L 241 145 L 241 148 L 237 152 L 238 154 L 238 158 L 231 164 L 234 167 L 237 165 L 237 162 L 240 160 L 244 155 L 248 153 L 251 153 L 253 151 L 257 152 L 261 149 L 263 151 L 263 153 L 266 156 L 269 156 L 273 153 L 274 148 L 270 144 L 267 139 L 270 135 L 270 131 L 272 127 L 277 121 L 281 119 L 284 119 L 290 123 L 290 137 L 288 140 L 288 142 L 297 139 L 297 138 L 294 136 L 295 133 L 297 131 L 302 130 L 305 127 L 307 127 L 306 123 L 301 119 L 297 119 L 295 117 L 294 111 L 286 106 L 286 104 L 288 102 L 288 98 L 287 97 L 279 102 L 276 102 L 272 98 L 272 95 L 270 93 L 272 90 L 274 90 L 274 84 L 272 81 L 272 78 L 271 77 L 268 77 L 266 75 L 266 73 L 262 73 Z M 253 141 L 255 143 L 255 148 L 254 150 L 251 152 L 248 151 L 246 149 L 246 147 L 249 145 L 252 141 Z M 388 64 L 388 66 L 390 67 L 393 67 L 394 65 L 391 63 Z M 376 62 L 375 61 L 371 61 L 370 62 L 371 64 L 369 66 L 360 66 L 359 67 L 359 72 L 360 73 L 363 72 L 370 72 L 373 74 L 374 73 L 377 73 Z M 350 58 L 346 60 L 347 64 L 343 67 L 343 72 L 344 73 L 349 73 L 350 72 L 350 67 L 352 65 L 356 65 L 353 64 L 350 61 Z M 326 56 L 328 61 L 330 63 L 330 65 L 332 65 L 334 62 L 332 59 L 332 56 L 329 57 Z M 412 59 L 412 60 L 414 60 L 417 63 L 417 65 L 415 67 L 417 67 L 417 66 L 423 60 L 428 57 L 439 57 L 447 64 L 449 68 L 453 65 L 455 59 L 452 58 L 446 52 L 445 49 L 443 48 L 439 48 L 438 46 L 435 45 L 432 45 L 429 48 L 421 48 L 414 53 L 414 57 Z" fill="#FBFBFB" fill-rule="evenodd"/><path d="M 517 637 L 521 644 L 527 649 L 528 651 L 535 655 L 537 655 L 539 657 L 555 657 L 562 654 L 565 651 L 561 654 L 557 655 L 555 657 L 540 657 L 537 655 L 533 654 L 525 648 L 519 641 Z M 246 606 L 243 609 L 239 611 L 234 611 L 232 613 L 231 617 L 223 625 L 215 627 L 210 634 L 201 643 L 195 646 L 201 643 L 216 627 L 220 627 L 226 623 L 229 620 L 234 612 L 240 611 Z M 348 578 L 354 580 L 364 580 L 365 581 L 385 581 L 399 596 L 407 602 L 409 605 L 412 606 L 425 618 L 428 619 L 433 623 L 437 624 L 441 627 L 443 627 L 456 634 L 458 634 L 454 633 L 442 626 L 435 624 L 426 618 L 396 593 L 385 581 L 366 581 L 365 580 L 354 580 Z M 312 576 L 315 576 L 317 574 L 320 574 L 326 571 L 338 576 L 346 577 L 342 577 L 335 574 L 332 574 L 326 571 L 322 571 L 320 573 Z M 545 545 L 545 546 L 553 547 L 557 552 L 557 554 L 562 557 L 560 555 L 559 548 L 555 545 Z M 353 544 L 350 546 L 350 549 L 351 549 L 354 545 Z M 355 528 L 352 530 L 351 534 L 353 534 L 356 531 Z M 441 500 L 439 501 L 438 504 L 438 514 L 434 519 L 434 523 L 436 528 L 438 527 L 438 515 L 440 513 L 442 515 L 444 514 L 444 503 Z M 465 444 L 464 445 L 465 448 L 470 451 L 472 451 L 475 454 L 477 458 L 477 462 L 478 464 L 482 467 L 482 462 L 479 458 L 478 452 L 476 448 L 473 445 L 470 446 L 467 444 Z M 450 443 L 450 446 L 453 449 L 457 449 L 457 448 L 455 448 L 453 445 Z M 483 435 L 484 436 L 482 438 L 479 438 L 479 441 L 488 450 L 488 452 L 489 452 L 487 439 L 486 437 Z M 630 380 L 629 383 L 621 391 L 617 392 L 607 402 L 603 404 L 599 404 L 603 404 L 609 401 L 615 394 L 619 393 L 621 391 L 623 391 L 628 384 L 631 382 Z M 461 375 L 460 376 L 461 381 L 464 383 L 464 377 Z M 115 272 L 119 278 L 135 293 L 137 296 L 137 301 L 139 303 L 137 300 L 137 295 Z M 268 202 L 267 203 L 267 216 L 269 217 L 270 216 L 270 203 Z M 242 191 L 242 198 L 243 200 L 245 201 L 246 200 L 245 198 L 245 193 Z M 55 188 L 54 191 L 56 193 L 56 195 L 60 200 L 63 206 L 74 217 L 94 233 L 94 238 L 97 242 L 97 244 L 102 254 L 111 266 L 103 255 L 95 239 L 94 233 L 74 217 L 66 209 L 56 195 Z M 214 170 L 215 177 L 218 180 L 218 183 L 216 187 L 217 188 L 217 195 L 221 203 L 221 209 L 221 203 L 222 201 L 217 195 L 217 185 L 219 180 L 215 176 Z M 61 149 L 59 152 L 59 157 L 60 158 L 60 162 L 62 168 L 57 173 L 55 177 L 55 181 L 55 178 L 57 174 L 62 169 L 62 166 L 60 161 L 60 151 Z M 124 110 L 120 111 L 114 117 L 112 116 L 108 117 L 105 115 L 102 115 L 101 114 L 92 115 L 105 115 L 107 117 L 109 117 L 112 119 L 120 111 Z M 259 68 L 247 69 L 235 75 L 227 85 L 226 89 L 224 92 L 224 104 L 227 111 L 232 117 L 239 121 L 243 122 L 245 124 L 244 129 L 236 145 L 236 152 L 240 148 L 240 145 L 238 142 L 240 139 L 241 134 L 245 128 L 247 115 L 255 108 L 260 98 L 264 96 L 264 94 L 266 92 L 266 89 L 264 86 L 259 82 L 246 82 L 238 90 L 237 95 L 234 98 L 232 98 L 228 92 L 230 83 L 237 77 L 237 75 L 240 72 L 243 72 L 252 68 L 258 68 L 262 72 L 266 72 L 268 76 L 271 76 L 272 77 L 267 72 Z M 258 83 L 262 86 L 265 91 L 256 103 L 254 108 L 250 112 L 246 113 L 239 107 L 237 103 L 237 95 L 238 92 L 241 88 L 247 83 Z M 444 46 L 442 46 L 439 44 L 429 43 L 417 47 L 407 56 L 405 60 L 405 64 L 403 66 L 398 65 L 392 62 L 387 62 L 378 59 L 362 59 L 361 60 L 355 61 L 353 59 L 353 56 L 355 52 L 354 50 L 348 53 L 342 60 L 340 60 L 337 57 L 329 53 L 324 52 L 324 55 L 326 58 L 326 61 L 322 64 L 306 64 L 305 67 L 303 69 L 296 71 L 304 71 L 307 70 L 313 72 L 313 73 L 307 79 L 303 77 L 303 80 L 301 83 L 302 84 L 302 89 L 299 90 L 298 92 L 297 91 L 298 88 L 295 89 L 291 94 L 287 95 L 279 101 L 276 101 L 274 99 L 274 93 L 275 91 L 285 83 L 291 83 L 294 86 L 292 83 L 290 83 L 288 81 L 289 80 L 289 76 L 292 75 L 294 72 L 291 73 L 286 77 L 277 82 L 275 82 L 273 79 L 273 81 L 275 84 L 275 90 L 271 92 L 273 95 L 273 98 L 276 101 L 279 101 L 287 96 L 289 98 L 289 102 L 287 104 L 287 106 L 292 108 L 295 111 L 296 117 L 297 118 L 301 118 L 305 121 L 308 125 L 307 128 L 305 128 L 302 131 L 296 133 L 295 136 L 298 138 L 297 140 L 288 143 L 287 140 L 289 137 L 289 134 L 289 137 L 285 143 L 286 144 L 295 141 L 307 141 L 308 142 L 312 142 L 317 144 L 325 151 L 326 154 L 326 157 L 324 162 L 318 169 L 306 176 L 299 177 L 300 180 L 298 182 L 292 184 L 289 187 L 285 187 L 281 185 L 273 176 L 274 173 L 274 167 L 275 166 L 278 169 L 278 172 L 281 171 L 285 176 L 292 176 L 288 176 L 282 172 L 277 167 L 274 162 L 273 164 L 273 169 L 272 170 L 272 175 L 275 181 L 279 185 L 283 187 L 289 187 L 299 181 L 306 181 L 307 182 L 311 182 L 317 184 L 326 184 L 327 185 L 330 185 L 345 180 L 352 176 L 361 165 L 365 166 L 369 170 L 370 173 L 370 183 L 371 184 L 370 186 L 371 188 L 370 190 L 370 209 L 369 210 L 368 218 L 365 227 L 360 236 L 352 244 L 342 250 L 336 251 L 335 252 L 330 252 L 329 251 L 321 250 L 319 248 L 314 246 L 308 240 L 307 240 L 291 220 L 283 203 L 282 197 L 275 192 L 273 192 L 266 184 L 271 191 L 277 194 L 282 200 L 283 205 L 288 214 L 288 216 L 291 219 L 292 223 L 303 236 L 303 240 L 304 241 L 306 241 L 308 243 L 311 244 L 312 246 L 320 250 L 321 252 L 322 251 L 324 252 L 338 252 L 339 251 L 344 251 L 345 253 L 343 254 L 343 264 L 345 267 L 342 270 L 339 269 L 330 269 L 329 268 L 320 268 L 316 266 L 314 263 L 317 261 L 318 259 L 317 258 L 312 258 L 310 256 L 310 251 L 309 250 L 296 250 L 294 248 L 294 239 L 293 238 L 288 238 L 285 234 L 278 234 L 276 232 L 276 228 L 274 226 L 267 226 L 265 224 L 265 219 L 264 218 L 263 219 L 262 232 L 261 234 L 258 236 L 256 233 L 256 219 L 254 216 L 254 202 L 255 201 L 261 201 L 262 200 L 261 198 L 256 198 L 255 201 L 252 203 L 252 221 L 246 225 L 243 223 L 243 209 L 244 207 L 243 206 L 235 206 L 233 204 L 236 189 L 235 188 L 232 188 L 230 186 L 230 184 L 232 179 L 234 177 L 238 177 L 246 182 L 254 178 L 261 170 L 263 172 L 263 175 L 263 168 L 262 168 L 252 178 L 250 179 L 242 178 L 237 173 L 239 163 L 245 157 L 251 154 L 260 154 L 264 157 L 264 159 L 271 158 L 273 160 L 273 156 L 277 148 L 275 147 L 271 142 L 272 130 L 274 126 L 280 121 L 284 121 L 286 122 L 289 125 L 289 128 L 289 123 L 284 120 L 281 120 L 275 124 L 271 131 L 271 135 L 268 139 L 271 144 L 275 148 L 274 153 L 271 156 L 266 157 L 262 153 L 261 150 L 257 153 L 253 152 L 252 151 L 254 148 L 254 143 L 252 142 L 251 144 L 247 147 L 247 149 L 253 152 L 251 154 L 248 154 L 244 156 L 243 158 L 238 162 L 238 165 L 234 168 L 230 164 L 237 158 L 237 154 L 233 160 L 226 167 L 225 171 L 231 169 L 234 171 L 234 175 L 230 183 L 228 185 L 227 189 L 230 190 L 233 188 L 236 191 L 234 194 L 234 198 L 232 202 L 232 209 L 234 209 L 236 207 L 238 207 L 241 211 L 240 213 L 240 223 L 242 229 L 244 231 L 245 228 L 248 226 L 251 229 L 251 231 L 253 233 L 253 236 L 257 238 L 271 253 L 277 253 L 283 257 L 291 265 L 292 267 L 290 269 L 288 269 L 282 266 L 276 261 L 275 262 L 275 266 L 271 270 L 268 270 L 262 263 L 262 261 L 252 250 L 251 251 L 251 254 L 249 256 L 247 256 L 243 251 L 241 246 L 238 242 L 236 242 L 236 244 L 234 246 L 232 246 L 227 238 L 227 235 L 224 229 L 221 226 L 219 227 L 219 229 L 221 230 L 221 232 L 217 235 L 211 231 L 208 227 L 201 211 L 199 210 L 199 211 L 195 214 L 165 180 L 164 176 L 167 168 L 168 148 L 166 142 L 162 137 L 158 137 L 156 138 L 150 144 L 150 145 L 151 145 L 156 139 L 159 139 L 164 143 L 166 148 L 166 154 L 163 161 L 159 166 L 155 168 L 152 167 L 147 162 L 146 157 L 147 156 L 148 149 L 143 145 L 139 134 L 139 131 L 137 129 L 136 126 L 131 121 L 126 121 L 124 124 L 125 125 L 131 125 L 136 130 L 137 133 L 139 135 L 139 137 L 141 140 L 140 142 L 140 149 L 136 153 L 131 154 L 124 149 L 120 150 L 116 146 L 116 144 L 110 133 L 104 127 L 99 125 L 95 126 L 91 130 L 91 136 L 92 136 L 93 132 L 97 129 L 104 132 L 107 135 L 113 145 L 114 148 L 114 154 L 113 156 L 109 159 L 99 158 L 98 160 L 96 160 L 86 150 L 85 150 L 88 153 L 87 154 L 84 152 L 77 152 L 75 150 L 76 148 L 83 149 L 81 148 L 76 148 L 74 149 L 71 153 L 71 159 L 72 159 L 73 155 L 77 152 L 81 152 L 83 154 L 86 155 L 96 166 L 96 173 L 90 178 L 86 178 L 80 174 L 77 177 L 71 177 L 66 181 L 66 189 L 68 191 L 69 194 L 81 207 L 87 211 L 93 217 L 96 218 L 103 223 L 106 229 L 106 233 L 113 237 L 117 241 L 117 244 L 118 245 L 124 245 L 133 253 L 132 257 L 136 262 L 142 263 L 144 265 L 150 266 L 152 268 L 151 270 L 147 272 L 148 274 L 152 275 L 157 280 L 161 280 L 163 282 L 163 285 L 165 287 L 168 287 L 176 293 L 193 297 L 197 302 L 195 304 L 190 306 L 189 308 L 196 308 L 197 307 L 199 308 L 203 308 L 205 310 L 204 313 L 211 314 L 214 316 L 220 316 L 222 314 L 225 314 L 229 311 L 232 317 L 225 323 L 221 325 L 221 326 L 226 325 L 227 326 L 227 329 L 241 329 L 244 325 L 244 320 L 245 319 L 244 318 L 250 311 L 251 307 L 253 305 L 258 305 L 260 307 L 260 308 L 254 314 L 256 318 L 252 326 L 252 336 L 247 346 L 247 349 L 246 350 L 247 352 L 246 359 L 248 357 L 248 353 L 253 349 L 256 350 L 258 348 L 261 347 L 263 349 L 263 351 L 249 364 L 246 365 L 244 367 L 243 370 L 236 377 L 235 381 L 242 381 L 243 383 L 226 403 L 227 404 L 228 403 L 235 402 L 237 404 L 237 406 L 229 418 L 224 423 L 220 431 L 221 432 L 229 427 L 232 429 L 232 433 L 227 440 L 226 444 L 224 447 L 224 450 L 222 453 L 222 457 L 223 458 L 232 451 L 235 453 L 232 457 L 232 460 L 230 465 L 232 465 L 231 464 L 235 459 L 237 453 L 235 450 L 228 451 L 226 448 L 226 445 L 230 440 L 230 437 L 234 433 L 234 428 L 233 427 L 227 427 L 223 430 L 222 427 L 233 418 L 235 415 L 236 410 L 239 408 L 241 410 L 241 415 L 245 418 L 244 422 L 247 424 L 246 427 L 246 431 L 247 432 L 243 438 L 242 449 L 243 452 L 249 457 L 251 462 L 247 466 L 235 466 L 245 466 L 247 467 L 251 472 L 251 476 L 249 478 L 241 478 L 240 477 L 223 478 L 220 482 L 209 481 L 202 484 L 208 488 L 206 491 L 200 493 L 195 493 L 191 495 L 188 495 L 182 498 L 181 501 L 185 501 L 187 503 L 186 506 L 170 522 L 166 529 L 159 538 L 159 541 L 169 550 L 169 553 L 165 557 L 159 555 L 147 546 L 140 543 L 126 542 L 117 546 L 115 548 L 115 549 L 128 549 L 129 548 L 132 548 L 137 552 L 148 558 L 155 566 L 155 573 L 154 576 L 175 597 L 185 612 L 187 612 L 190 609 L 194 597 L 198 593 L 200 593 L 203 596 L 203 600 L 204 602 L 206 601 L 206 599 L 208 597 L 208 595 L 210 593 L 224 563 L 227 560 L 230 562 L 230 565 L 231 566 L 231 573 L 227 580 L 228 582 L 238 573 L 239 570 L 247 561 L 252 558 L 255 560 L 254 567 L 252 570 L 253 571 L 260 563 L 263 557 L 259 554 L 253 552 L 246 545 L 246 543 L 248 541 L 288 546 L 289 544 L 275 531 L 275 528 L 276 527 L 281 527 L 283 529 L 285 529 L 300 537 L 301 536 L 298 532 L 296 527 L 296 524 L 298 523 L 300 525 L 303 526 L 304 528 L 309 532 L 313 532 L 316 536 L 319 536 L 321 539 L 324 539 L 328 545 L 331 547 L 333 547 L 341 542 L 347 536 L 344 534 L 338 537 L 335 541 L 330 545 L 328 543 L 328 537 L 333 532 L 337 531 L 343 525 L 345 525 L 349 521 L 353 520 L 359 513 L 359 511 L 363 505 L 365 506 L 368 505 L 369 507 L 365 512 L 364 517 L 362 520 L 362 527 L 364 530 L 363 536 L 362 537 L 362 542 L 365 544 L 370 542 L 373 539 L 376 542 L 381 540 L 382 543 L 378 551 L 381 552 L 386 549 L 390 545 L 391 539 L 389 536 L 395 529 L 396 525 L 400 521 L 402 521 L 403 518 L 407 514 L 409 514 L 411 512 L 403 506 L 398 507 L 396 504 L 396 501 L 398 498 L 397 497 L 393 497 L 390 500 L 388 505 L 388 519 L 383 534 L 382 535 L 380 534 L 378 528 L 371 532 L 368 532 L 366 529 L 374 521 L 377 515 L 377 509 L 374 505 L 374 503 L 372 500 L 375 496 L 379 498 L 381 495 L 387 490 L 391 493 L 396 493 L 399 492 L 401 490 L 408 489 L 409 490 L 409 493 L 412 494 L 414 496 L 415 501 L 420 507 L 420 517 L 417 521 L 414 530 L 416 530 L 418 527 L 420 520 L 422 518 L 422 512 L 424 510 L 429 518 L 431 520 L 432 519 L 433 505 L 431 503 L 428 504 L 426 503 L 426 496 L 432 491 L 437 489 L 440 492 L 445 494 L 448 497 L 449 496 L 449 488 L 450 487 L 448 480 L 451 477 L 455 479 L 458 488 L 458 504 L 459 504 L 459 502 L 461 500 L 465 504 L 466 504 L 466 501 L 468 499 L 473 500 L 475 496 L 475 489 L 474 486 L 476 483 L 476 479 L 474 476 L 475 468 L 472 462 L 471 457 L 468 456 L 464 460 L 465 464 L 462 465 L 456 460 L 456 456 L 453 454 L 445 454 L 443 453 L 442 454 L 449 460 L 447 462 L 441 462 L 440 463 L 432 462 L 426 456 L 426 450 L 418 443 L 419 442 L 421 443 L 426 443 L 428 445 L 431 446 L 442 445 L 443 444 L 443 439 L 440 431 L 435 424 L 429 422 L 428 425 L 426 426 L 415 416 L 417 413 L 420 412 L 422 410 L 422 407 L 420 404 L 419 400 L 417 398 L 415 400 L 410 401 L 404 398 L 397 399 L 393 394 L 387 394 L 386 393 L 383 394 L 382 393 L 384 389 L 387 386 L 390 387 L 392 389 L 398 389 L 400 391 L 410 390 L 416 392 L 422 397 L 425 395 L 426 391 L 429 390 L 434 396 L 434 398 L 431 401 L 426 403 L 426 411 L 427 413 L 434 417 L 440 418 L 445 421 L 447 421 L 449 423 L 449 425 L 455 432 L 456 435 L 458 437 L 461 435 L 464 435 L 459 427 L 459 426 L 463 423 L 467 425 L 474 424 L 476 428 L 478 429 L 479 428 L 474 416 L 470 412 L 471 408 L 466 403 L 466 401 L 468 399 L 473 399 L 474 396 L 466 388 L 466 386 L 465 386 L 464 388 L 461 388 L 458 385 L 457 381 L 445 372 L 446 369 L 450 369 L 450 366 L 446 362 L 446 360 L 441 355 L 440 350 L 446 348 L 449 345 L 453 345 L 454 346 L 457 346 L 457 345 L 451 342 L 441 334 L 441 332 L 443 330 L 448 331 L 456 337 L 460 338 L 463 340 L 483 340 L 496 346 L 502 347 L 507 353 L 515 358 L 516 357 L 516 354 L 511 348 L 511 346 L 512 345 L 516 346 L 527 355 L 533 358 L 538 363 L 542 365 L 547 365 L 553 370 L 553 380 L 556 387 L 561 392 L 565 394 L 569 394 L 570 393 L 569 384 L 572 381 L 575 381 L 584 389 L 588 391 L 591 391 L 592 392 L 598 392 L 600 391 L 602 387 L 602 381 L 600 379 L 599 374 L 602 370 L 607 371 L 615 378 L 619 375 L 620 367 L 618 362 L 614 358 L 614 354 L 617 351 L 621 351 L 627 355 L 628 354 L 628 348 L 626 343 L 620 334 L 614 328 L 604 321 L 603 318 L 607 314 L 605 312 L 595 307 L 591 307 L 588 305 L 586 305 L 584 303 L 584 300 L 587 298 L 587 296 L 572 290 L 565 289 L 561 285 L 563 282 L 566 281 L 565 279 L 556 276 L 550 276 L 546 274 L 534 273 L 532 272 L 530 269 L 535 265 L 534 263 L 505 263 L 504 260 L 506 257 L 506 255 L 504 256 L 490 257 L 484 259 L 478 259 L 476 256 L 479 251 L 473 251 L 472 252 L 464 253 L 455 256 L 451 256 L 445 258 L 439 258 L 436 260 L 434 260 L 428 265 L 424 265 L 422 263 L 422 259 L 424 257 L 424 255 L 435 243 L 440 244 L 446 237 L 446 235 L 449 229 L 451 227 L 455 230 L 458 230 L 459 229 L 459 227 L 461 225 L 462 219 L 464 216 L 464 212 L 466 210 L 468 210 L 470 212 L 472 211 L 472 207 L 471 206 L 471 196 L 470 193 L 472 191 L 478 191 L 479 190 L 479 187 L 475 180 L 472 177 L 471 173 L 474 170 L 478 170 L 479 171 L 482 171 L 483 170 L 477 162 L 467 152 L 467 150 L 469 148 L 477 148 L 476 144 L 474 142 L 468 140 L 462 135 L 462 133 L 465 129 L 459 121 L 459 118 L 456 114 L 456 112 L 446 100 L 446 98 L 450 94 L 453 93 L 461 82 L 462 79 L 462 67 L 457 57 L 448 48 Z M 177 596 L 180 598 L 189 598 L 191 600 L 191 605 L 186 611 L 183 609 L 181 604 L 176 597 Z M 202 551 L 203 552 L 203 555 L 199 560 L 197 560 L 196 559 L 196 555 Z M 221 544 L 223 546 L 223 548 L 222 550 L 218 553 L 217 552 L 218 547 Z M 137 545 L 138 544 L 141 544 L 149 548 L 156 554 L 156 559 L 153 560 L 150 557 L 142 554 L 140 548 L 139 548 Z M 128 545 L 130 543 L 132 543 L 138 549 L 136 550 L 134 548 L 130 548 Z M 210 546 L 210 544 L 212 542 L 215 543 L 212 547 Z M 342 537 L 343 539 L 338 543 L 336 541 L 340 537 Z M 234 531 L 234 529 L 236 527 L 238 527 L 240 529 L 236 533 Z M 338 519 L 340 521 L 340 525 L 338 527 L 336 525 L 336 521 Z M 333 517 L 335 519 L 335 521 L 331 526 L 329 526 L 326 523 L 329 521 L 332 517 Z M 373 510 L 375 513 L 375 517 L 368 525 L 364 527 L 362 525 L 364 518 L 370 510 Z M 326 509 L 328 512 L 328 514 L 326 517 L 324 516 L 324 510 Z M 299 508 L 300 511 L 298 514 L 298 516 L 296 518 L 295 517 L 295 511 Z M 305 506 L 306 507 L 306 519 L 305 520 L 300 520 L 298 518 L 301 514 L 303 507 Z M 393 503 L 394 504 L 394 508 L 392 510 L 394 512 L 394 525 L 390 530 L 388 528 L 388 522 L 390 519 L 390 516 L 389 515 L 390 509 L 389 507 L 390 504 Z M 318 503 L 319 506 L 323 509 L 319 514 L 314 514 L 312 516 L 311 519 L 309 520 L 308 519 L 308 514 L 309 512 L 315 506 L 315 505 Z M 313 498 L 315 501 L 312 505 L 308 508 L 307 506 L 311 502 L 311 500 Z M 350 497 L 351 498 L 350 503 L 347 506 L 345 506 L 343 504 L 344 501 L 347 498 Z M 268 494 L 271 493 L 272 494 L 272 497 L 270 498 L 268 496 Z M 336 491 L 337 492 L 336 497 L 333 500 L 331 500 L 330 497 L 334 492 Z M 209 486 L 211 485 L 213 488 L 211 489 Z M 372 482 L 373 483 L 373 491 L 370 495 L 368 493 L 368 490 L 370 486 L 370 483 Z M 261 482 L 264 484 L 264 487 L 263 488 L 260 487 L 260 483 Z M 409 486 L 416 479 L 418 479 L 424 484 L 425 489 L 423 490 L 419 486 L 417 486 L 416 489 L 414 491 L 412 491 L 409 489 Z M 366 478 L 367 481 L 364 488 L 361 491 L 358 492 L 355 489 L 365 478 Z M 439 477 L 442 477 L 447 481 L 448 483 L 448 489 L 446 491 L 437 484 L 436 480 Z M 456 472 L 458 472 L 461 476 L 461 480 L 459 482 L 454 477 L 454 474 Z M 287 470 L 290 472 L 290 479 L 287 488 L 287 497 L 291 504 L 291 507 L 294 511 L 293 518 L 291 520 L 289 519 L 288 515 L 284 512 L 282 507 L 280 505 L 280 503 L 276 498 L 276 495 L 282 491 L 280 481 L 282 478 L 283 474 Z M 440 472 L 439 474 L 435 475 L 433 478 L 430 477 L 426 473 L 428 471 L 432 472 L 434 469 Z M 272 466 L 274 467 L 274 470 L 273 471 L 270 469 Z M 407 464 L 410 467 L 408 472 L 408 476 L 406 478 L 404 477 L 404 480 L 402 481 L 401 480 L 401 475 L 402 472 L 404 470 L 404 467 Z M 268 463 L 270 464 L 270 473 L 271 474 L 272 481 L 276 490 L 274 493 L 264 481 L 264 467 Z M 347 455 L 345 458 L 343 458 L 340 461 L 337 460 L 337 457 L 339 455 L 343 455 L 344 454 Z M 336 454 L 337 457 L 334 460 L 332 460 L 331 458 Z M 383 449 L 385 451 L 383 453 L 380 453 L 379 454 L 378 460 L 375 463 L 376 470 L 373 472 L 371 467 L 371 462 L 370 461 L 366 464 L 364 462 L 365 458 L 373 451 L 377 451 L 379 449 Z M 357 449 L 359 451 L 359 459 L 355 463 L 351 465 L 351 471 L 349 473 L 337 474 L 334 471 L 335 466 L 340 462 L 346 459 L 352 453 L 353 453 L 356 449 Z M 264 446 L 265 447 L 265 453 L 263 457 L 261 458 L 260 457 L 260 454 L 261 453 L 261 450 Z M 389 439 L 392 441 L 392 443 L 390 445 L 388 444 L 388 440 Z M 263 438 L 264 439 L 264 442 L 262 446 L 262 449 L 260 452 L 260 457 L 257 459 L 255 457 L 255 447 L 260 440 Z M 258 431 L 260 433 L 258 436 L 256 434 Z M 435 428 L 437 429 L 439 435 L 441 437 L 441 439 L 439 441 L 435 439 L 432 436 L 433 430 Z M 422 428 L 425 430 L 426 433 L 434 442 L 432 444 L 426 440 L 421 430 Z M 259 422 L 261 424 L 259 429 L 255 433 L 253 437 L 247 442 L 245 439 L 250 429 L 254 425 Z M 414 421 L 416 422 L 416 425 L 415 426 L 413 424 Z M 351 415 L 352 418 L 348 425 L 347 430 L 345 433 L 342 433 L 339 429 L 344 425 L 348 416 Z M 390 413 L 393 415 L 393 417 L 396 422 L 395 425 L 394 425 L 388 418 L 388 415 Z M 443 409 L 451 415 L 451 420 L 450 421 L 443 413 L 442 411 Z M 378 408 L 381 410 L 384 415 L 382 417 L 380 417 L 379 419 L 377 418 L 377 409 Z M 432 407 L 434 406 L 436 408 L 437 411 L 435 412 L 433 410 Z M 261 403 L 263 405 L 261 411 L 252 422 L 249 422 L 248 421 L 248 418 L 250 416 L 250 414 L 253 410 Z M 455 394 L 456 391 L 459 392 L 457 395 Z M 242 389 L 243 390 L 243 398 L 241 400 L 237 400 L 235 399 L 233 401 L 230 402 L 229 399 L 237 391 L 240 389 Z M 363 388 L 365 388 L 368 392 L 368 398 L 367 399 L 365 398 L 365 396 L 362 392 L 362 389 Z M 413 388 L 419 386 L 424 392 L 422 394 L 418 390 L 414 390 Z M 438 382 L 442 383 L 444 385 L 446 385 L 450 389 L 450 392 L 454 401 L 457 403 L 459 403 L 462 406 L 461 407 L 458 407 L 455 410 L 455 413 L 453 415 L 450 414 L 449 409 L 443 404 L 443 401 L 445 399 L 445 396 L 441 391 L 440 387 L 437 384 Z M 323 381 L 318 387 L 314 387 L 312 385 L 320 379 Z M 556 373 L 558 374 L 558 377 L 564 382 L 564 387 L 562 389 L 559 386 L 560 384 L 557 383 L 555 381 L 555 374 Z M 365 373 L 367 375 L 367 377 L 365 379 L 362 379 L 361 378 L 360 379 L 361 380 L 361 383 L 358 385 L 356 383 L 357 378 L 359 377 L 362 373 Z M 236 379 L 240 373 L 243 373 L 247 376 L 245 378 L 241 378 L 238 381 Z M 299 371 L 300 372 L 291 381 L 289 379 L 291 376 L 296 371 Z M 614 369 L 616 368 L 617 371 L 615 372 Z M 330 370 L 332 368 L 334 369 L 333 372 Z M 269 367 L 271 364 L 274 365 L 274 366 L 271 368 Z M 347 363 L 349 365 L 349 367 L 345 371 L 345 375 L 342 377 L 340 375 L 340 371 L 342 369 L 342 365 L 344 363 Z M 294 354 L 296 352 L 298 353 L 297 356 L 295 356 Z M 377 336 L 379 334 L 384 334 L 388 336 L 402 351 L 404 351 L 406 349 L 409 349 L 411 347 L 416 351 L 419 351 L 421 355 L 420 356 L 417 355 L 414 358 L 412 358 L 413 364 L 417 369 L 417 371 L 416 372 L 413 372 L 407 364 L 405 364 L 403 366 L 400 363 L 396 355 L 390 347 L 386 343 L 380 340 Z M 301 335 L 303 332 L 305 333 L 303 336 Z M 488 333 L 490 331 L 492 331 L 496 335 L 497 338 L 494 340 Z M 292 331 L 293 332 L 292 335 L 288 339 L 289 342 L 286 344 L 284 342 L 286 335 L 290 331 Z M 399 329 L 401 332 L 409 339 L 409 342 L 407 345 L 399 345 L 393 339 L 397 337 L 397 331 Z M 480 328 L 484 325 L 486 326 L 488 329 L 487 330 L 481 330 Z M 353 326 L 356 325 L 361 329 L 363 329 L 371 337 L 376 339 L 377 341 L 374 342 L 368 338 L 366 338 L 363 336 L 359 336 L 352 330 Z M 400 325 L 402 324 L 410 328 L 414 332 L 417 333 L 421 337 L 423 342 L 427 346 L 428 350 L 425 353 L 420 352 L 412 339 L 401 328 Z M 371 324 L 374 323 L 375 326 L 372 327 Z M 256 324 L 257 323 L 260 324 L 261 327 L 258 328 L 256 326 Z M 489 322 L 493 325 L 493 327 L 491 329 L 490 329 L 487 325 Z M 313 322 L 315 324 L 315 328 L 311 332 L 307 333 L 306 331 Z M 405 322 L 408 321 L 416 328 L 414 329 L 409 325 L 406 325 Z M 325 321 L 326 322 L 324 326 L 320 329 L 318 329 L 317 327 L 323 321 Z M 465 322 L 467 320 L 469 320 L 471 323 L 469 325 L 467 325 Z M 452 314 L 454 312 L 457 312 L 459 315 L 455 318 Z M 347 309 L 349 310 L 349 312 L 351 314 L 349 316 L 345 313 Z M 581 306 L 583 305 L 584 307 L 587 307 L 588 308 L 587 309 L 582 309 Z M 213 306 L 216 304 L 218 304 L 220 306 L 218 308 L 215 308 Z M 418 301 L 421 301 L 424 305 L 430 310 L 433 310 L 437 313 L 441 313 L 446 318 L 443 320 L 442 319 L 437 319 L 431 316 L 431 329 L 427 334 L 422 334 L 408 319 L 410 316 L 416 318 L 421 321 L 422 320 L 422 313 L 416 304 Z M 404 304 L 406 301 L 409 303 L 407 305 Z M 223 302 L 227 299 L 233 299 L 237 303 L 237 305 L 234 306 L 232 304 L 232 302 L 229 302 L 226 304 L 224 304 Z M 199 295 L 200 294 L 202 295 L 204 294 L 210 294 L 213 297 L 209 300 L 206 300 L 201 298 Z M 388 294 L 389 297 L 385 303 L 383 304 L 379 304 L 373 302 L 373 298 L 372 297 L 374 295 L 379 294 L 383 297 L 384 296 L 383 295 L 383 292 L 384 291 Z M 380 282 L 382 283 L 382 287 L 381 288 L 379 287 L 379 283 Z M 194 282 L 196 280 L 199 282 L 197 284 Z M 551 279 L 553 277 L 558 277 L 560 279 L 563 279 L 564 281 L 563 282 L 553 282 Z M 309 265 L 311 267 L 310 268 L 310 271 L 308 272 L 307 271 L 307 267 Z M 517 264 L 518 263 L 521 263 L 522 265 L 521 266 L 518 266 Z M 389 262 L 387 265 L 387 267 L 371 283 L 371 288 L 369 291 L 367 290 L 368 289 L 368 286 L 367 285 L 363 288 L 363 290 L 365 292 L 365 295 L 362 298 L 359 294 L 350 297 L 344 294 L 338 293 L 335 290 L 330 289 L 326 285 L 318 280 L 310 271 L 313 267 L 316 267 L 321 269 L 326 269 L 327 270 L 346 270 L 347 269 L 354 269 L 359 267 L 365 267 L 386 260 Z M 153 261 L 155 259 L 158 259 L 159 260 L 157 263 L 155 263 Z M 420 255 L 421 256 L 421 259 L 419 261 L 417 266 L 413 269 L 410 266 L 411 262 L 415 257 L 417 257 Z M 348 248 L 351 250 L 353 250 L 355 252 L 355 265 L 350 268 L 347 267 L 345 265 L 346 264 L 346 254 L 345 252 Z M 238 244 L 240 246 L 239 249 L 237 248 L 237 245 Z M 88 209 L 89 206 L 92 205 L 96 207 L 99 210 L 101 210 L 104 213 L 116 213 L 118 216 L 116 218 L 113 218 L 112 219 L 111 226 L 108 228 L 107 225 L 98 217 L 92 214 Z M 452 203 L 454 203 L 456 206 L 456 209 L 455 210 L 452 208 L 451 205 Z M 81 202 L 83 200 L 85 200 L 87 202 L 84 205 Z M 73 180 L 75 179 L 81 180 L 85 182 L 90 187 L 91 192 L 90 195 L 86 199 L 82 199 L 78 197 L 72 191 L 70 187 L 70 184 Z M 301 179 L 303 176 L 308 176 L 309 177 L 306 181 L 303 181 Z M 99 176 L 93 188 L 82 179 L 83 178 L 92 178 L 96 174 Z M 147 164 L 155 169 L 157 169 L 161 165 L 163 166 L 163 169 L 165 172 L 164 180 L 163 181 L 163 186 L 160 187 L 157 190 L 152 190 L 150 188 L 152 185 L 152 180 L 151 179 L 150 173 L 146 169 L 146 165 Z M 138 162 L 146 169 L 151 177 L 151 186 L 149 191 L 140 200 L 131 206 L 116 213 L 106 213 L 100 210 L 95 205 L 92 196 L 93 195 L 93 190 L 96 184 L 96 182 L 105 169 L 113 162 L 115 162 L 117 160 L 120 160 L 121 159 L 131 159 Z M 114 155 L 117 151 L 119 152 L 126 152 L 129 154 L 138 153 L 140 158 L 142 159 L 145 158 L 146 159 L 145 166 L 144 167 L 135 159 L 129 159 L 128 158 L 122 158 L 114 162 L 113 161 Z M 374 149 L 383 141 L 386 141 L 391 139 L 401 139 L 402 140 L 406 140 L 415 143 L 422 150 L 423 152 L 423 159 L 417 165 L 412 167 L 407 167 L 406 168 L 394 168 L 391 166 L 382 163 L 375 156 L 374 154 Z M 298 134 L 300 132 L 309 128 L 323 128 L 331 133 L 331 135 L 329 137 L 327 136 L 323 136 L 322 135 L 308 135 L 307 136 L 302 136 L 300 137 Z M 344 117 L 349 117 L 351 120 L 353 121 L 352 124 L 353 127 L 352 137 L 355 141 L 360 144 L 362 148 L 367 147 L 375 156 L 374 158 L 368 158 L 367 160 L 368 161 L 373 161 L 376 158 L 379 162 L 387 169 L 387 172 L 385 175 L 387 180 L 383 183 L 383 188 L 381 190 L 378 190 L 377 191 L 378 193 L 381 193 L 383 195 L 383 200 L 387 202 L 387 216 L 383 219 L 387 224 L 385 226 L 382 227 L 384 230 L 385 236 L 383 238 L 380 238 L 379 241 L 375 245 L 375 248 L 377 249 L 379 246 L 381 247 L 380 252 L 378 254 L 368 254 L 366 252 L 366 248 L 364 247 L 363 250 L 360 250 L 359 249 L 362 245 L 361 242 L 358 244 L 356 243 L 364 230 L 370 212 L 372 209 L 372 200 L 373 199 L 373 185 L 372 182 L 373 181 L 373 177 L 369 171 L 369 169 L 361 163 L 357 168 L 356 171 L 351 176 L 348 178 L 345 178 L 343 180 L 341 180 L 339 182 L 337 182 L 334 184 L 322 183 L 320 180 L 314 180 L 313 179 L 315 177 L 314 173 L 319 169 L 325 162 L 326 152 L 330 149 L 330 147 L 325 150 L 313 141 L 305 141 L 300 139 L 301 137 L 322 136 L 325 138 L 329 139 L 331 141 L 331 145 L 338 145 L 339 148 L 341 149 L 342 147 L 339 146 L 338 143 L 342 140 L 342 119 Z M 361 115 L 366 115 L 372 121 L 374 125 L 374 136 L 372 140 L 367 145 L 362 145 L 360 144 L 355 139 L 353 134 L 354 123 Z M 452 74 L 453 75 L 453 81 L 451 83 L 451 85 L 448 87 L 447 85 L 449 84 L 450 75 Z M 358 78 L 362 74 L 364 73 L 368 73 L 378 78 L 381 81 L 382 86 L 378 90 L 376 90 L 368 85 L 362 84 L 358 80 Z M 387 64 L 391 62 L 393 63 L 395 66 L 393 68 L 390 68 L 387 66 Z M 377 62 L 377 69 L 378 70 L 378 73 L 377 74 L 374 74 L 373 75 L 370 73 L 363 73 L 360 74 L 358 72 L 358 67 L 360 65 L 369 65 L 370 64 L 369 62 L 371 60 L 375 60 Z M 427 59 L 432 58 L 433 59 L 439 60 L 441 61 L 448 69 L 449 72 L 449 81 L 441 90 L 438 90 L 422 76 L 420 76 L 417 73 L 417 71 L 420 65 Z M 350 57 L 351 58 L 351 61 L 357 65 L 351 67 L 351 72 L 349 74 L 344 74 L 342 72 L 342 67 L 346 64 L 345 60 Z M 326 55 L 328 56 L 332 55 L 333 56 L 333 59 L 335 62 L 332 66 L 329 65 L 329 63 L 327 61 L 325 56 Z M 413 53 L 421 47 L 429 47 L 432 44 L 435 44 L 438 45 L 439 47 L 443 47 L 447 50 L 447 52 L 452 57 L 456 59 L 454 65 L 452 66 L 450 69 L 449 69 L 446 64 L 439 58 L 428 58 L 423 61 L 417 68 L 415 68 L 414 67 L 416 65 L 416 63 L 414 61 L 411 60 L 413 57 Z M 456 40 L 467 50 L 470 56 L 469 53 L 461 42 L 458 40 Z" fill="#E8E8E8" fill-rule="evenodd"/><path d="M 202 552 L 197 555 L 197 559 L 200 558 L 202 555 Z M 221 545 L 219 547 L 218 552 L 219 552 L 222 548 Z M 238 528 L 235 529 L 236 532 L 239 529 Z M 333 518 L 327 523 L 329 525 L 331 525 L 334 521 Z M 305 507 L 304 507 L 302 514 L 299 518 L 300 519 L 305 519 Z M 318 504 L 317 504 L 310 512 L 309 514 L 309 519 L 310 519 L 311 516 L 314 513 L 319 513 L 322 509 L 318 506 Z M 350 498 L 347 499 L 345 501 L 344 504 L 345 505 L 347 505 L 349 503 Z M 336 492 L 335 492 L 331 497 L 331 499 L 333 499 L 335 497 Z M 372 483 L 371 483 L 371 486 L 369 490 L 369 493 L 370 494 L 372 491 Z M 410 486 L 410 489 L 412 490 L 414 490 L 415 487 L 417 485 L 419 485 L 424 489 L 423 484 L 418 480 L 416 480 Z M 366 479 L 365 479 L 356 489 L 358 491 L 361 490 L 363 488 Z M 439 478 L 437 480 L 438 484 L 446 490 L 447 489 L 447 483 L 446 481 L 442 478 Z M 456 473 L 455 474 L 455 477 L 459 481 L 460 480 L 460 476 L 458 473 Z M 287 471 L 284 474 L 283 478 L 281 481 L 283 491 L 277 495 L 277 498 L 281 503 L 281 505 L 283 507 L 285 512 L 289 515 L 290 519 L 292 518 L 293 511 L 291 509 L 290 504 L 286 497 L 286 488 L 289 479 L 289 472 Z M 407 465 L 405 467 L 405 470 L 403 472 L 402 480 L 403 480 L 403 477 L 404 476 L 406 477 L 407 476 L 407 472 L 409 468 Z M 268 464 L 265 467 L 265 481 L 274 492 L 275 490 L 271 481 L 271 478 L 269 473 L 269 464 Z M 383 450 L 379 450 L 377 452 L 373 452 L 366 458 L 365 461 L 366 463 L 370 460 L 372 462 L 373 471 L 375 470 L 374 463 L 377 460 L 378 454 L 380 452 L 383 452 L 384 451 Z M 356 450 L 355 452 L 346 460 L 336 466 L 335 471 L 337 473 L 349 472 L 350 471 L 350 465 L 358 459 L 358 451 Z M 263 439 L 261 440 L 256 447 L 256 457 L 257 458 L 259 457 L 259 452 L 261 449 Z M 259 423 L 251 429 L 246 439 L 247 441 L 252 437 L 254 433 L 258 429 L 260 425 Z M 351 416 L 349 416 L 345 425 L 340 429 L 342 432 L 345 432 L 347 425 L 351 418 Z M 390 414 L 389 415 L 389 418 L 390 420 L 395 424 L 392 415 Z M 261 404 L 256 408 L 251 414 L 251 416 L 249 418 L 249 421 L 252 421 L 260 411 L 260 409 L 262 407 Z M 363 389 L 363 392 L 365 394 L 366 398 L 367 398 L 367 392 L 365 389 Z M 438 383 L 441 387 L 442 391 L 446 396 L 446 399 L 444 401 L 444 404 L 450 409 L 451 414 L 449 415 L 444 410 L 443 410 L 443 411 L 450 420 L 450 415 L 454 413 L 454 410 L 458 406 L 461 406 L 453 401 L 449 392 L 449 389 L 446 386 L 444 386 L 442 384 Z M 322 381 L 320 380 L 317 383 L 313 385 L 314 386 L 318 386 Z M 365 374 L 362 374 L 360 377 L 358 378 L 357 380 L 357 383 L 358 384 L 360 383 L 360 380 L 359 379 L 361 377 L 362 378 L 365 378 L 366 377 Z M 299 372 L 296 372 L 290 379 L 291 380 Z M 347 364 L 344 364 L 343 365 L 343 369 L 341 371 L 341 375 L 342 376 L 344 375 L 344 371 L 348 367 Z M 490 332 L 489 333 L 491 336 L 495 339 L 496 338 L 495 335 L 492 332 Z M 292 332 L 290 332 L 287 335 L 287 337 L 285 340 L 286 343 L 288 342 L 287 339 L 291 335 Z M 487 328 L 484 326 L 482 327 L 481 329 L 487 329 Z M 354 326 L 353 330 L 359 335 L 363 335 L 374 341 L 376 341 L 376 340 L 371 338 L 363 330 L 361 330 L 358 327 Z M 378 336 L 380 339 L 386 342 L 391 347 L 403 365 L 405 363 L 407 363 L 411 367 L 413 371 L 416 371 L 416 369 L 412 364 L 411 358 L 414 357 L 417 354 L 420 355 L 419 354 L 420 351 L 425 352 L 427 350 L 426 346 L 422 342 L 420 337 L 417 334 L 414 333 L 410 329 L 401 325 L 402 328 L 413 339 L 420 350 L 419 352 L 416 352 L 412 348 L 409 350 L 406 350 L 404 352 L 402 352 L 388 337 L 384 335 L 379 335 Z M 489 323 L 488 325 L 489 327 L 491 328 L 492 325 Z M 313 323 L 307 332 L 311 331 L 314 328 L 314 324 Z M 325 322 L 323 322 L 318 328 L 320 328 L 323 326 Z M 467 321 L 466 323 L 469 324 L 470 322 Z M 454 313 L 453 315 L 456 317 L 458 314 L 457 313 Z M 347 310 L 346 313 L 349 315 L 350 314 L 348 312 L 348 310 Z M 418 302 L 417 304 L 423 313 L 423 320 L 421 322 L 416 319 L 410 317 L 409 319 L 422 333 L 427 333 L 430 329 L 430 316 L 431 315 L 437 318 L 442 318 L 443 319 L 445 318 L 441 314 L 437 314 L 433 311 L 430 311 L 426 308 L 421 302 Z M 224 302 L 224 303 L 226 303 L 229 301 L 232 301 L 233 304 L 236 305 L 236 303 L 233 300 L 227 300 Z M 200 295 L 201 297 L 206 299 L 209 299 L 212 297 L 210 295 L 204 295 L 203 296 Z M 387 294 L 384 292 L 384 295 L 385 296 L 383 298 L 379 295 L 374 296 L 373 297 L 374 298 L 374 302 L 378 302 L 379 303 L 383 303 L 385 302 L 388 297 Z M 388 262 L 387 261 L 385 262 L 381 262 L 379 264 L 376 264 L 373 266 L 369 266 L 365 268 L 359 268 L 354 270 L 347 270 L 346 271 L 327 271 L 326 270 L 321 270 L 316 268 L 313 268 L 311 271 L 318 279 L 322 281 L 330 288 L 335 289 L 338 292 L 341 292 L 350 296 L 359 293 L 362 297 L 364 295 L 364 292 L 362 290 L 362 288 L 367 284 L 369 286 L 369 289 L 368 290 L 369 290 L 370 288 L 370 283 L 386 267 L 386 265 Z M 420 256 L 417 258 L 415 258 L 413 260 L 411 265 L 413 268 L 416 266 L 418 261 L 420 259 Z M 73 181 L 71 184 L 71 187 L 73 191 L 78 196 L 82 198 L 86 198 L 89 195 L 90 192 L 89 187 L 85 183 L 78 180 Z M 138 163 L 131 160 L 121 160 L 120 161 L 117 161 L 115 163 L 113 163 L 106 169 L 97 182 L 97 184 L 94 190 L 94 195 L 93 196 L 96 205 L 100 209 L 106 212 L 116 212 L 131 205 L 140 199 L 148 191 L 150 186 L 150 177 L 145 169 Z M 375 149 L 375 154 L 376 156 L 382 162 L 391 165 L 394 167 L 406 167 L 407 166 L 412 166 L 417 164 L 422 159 L 422 152 L 421 150 L 415 144 L 406 141 L 402 141 L 401 140 L 391 140 L 390 141 L 383 142 Z M 299 134 L 300 136 L 302 135 L 307 135 L 308 134 L 322 134 L 328 136 L 330 135 L 329 132 L 323 129 L 309 129 Z M 278 123 L 275 126 L 272 135 L 272 142 L 273 144 L 278 148 L 275 153 L 274 160 L 273 161 L 271 159 L 264 160 L 263 157 L 260 155 L 251 155 L 245 158 L 240 163 L 238 173 L 242 177 L 250 178 L 263 167 L 264 168 L 264 178 L 266 181 L 266 183 L 273 191 L 275 191 L 283 197 L 284 203 L 292 220 L 307 239 L 308 239 L 314 245 L 324 250 L 335 251 L 348 246 L 359 236 L 364 227 L 367 218 L 367 214 L 369 209 L 369 190 L 370 189 L 369 187 L 370 184 L 369 183 L 369 173 L 368 170 L 365 167 L 361 166 L 357 172 L 352 177 L 345 181 L 330 186 L 327 186 L 326 185 L 317 185 L 316 184 L 312 184 L 306 182 L 299 182 L 289 188 L 283 188 L 279 186 L 274 181 L 271 175 L 272 164 L 274 161 L 278 167 L 286 174 L 288 175 L 292 175 L 293 176 L 302 176 L 303 175 L 306 175 L 318 168 L 323 162 L 325 157 L 325 154 L 324 151 L 317 145 L 312 143 L 308 143 L 307 142 L 295 142 L 286 145 L 284 143 L 286 141 L 289 133 L 288 125 L 284 122 L 280 122 Z M 268 160 L 271 161 L 270 175 L 272 180 L 279 187 L 284 189 L 290 188 L 299 183 L 306 183 L 307 184 L 317 185 L 318 186 L 333 186 L 334 185 L 338 185 L 354 177 L 357 174 L 359 170 L 361 168 L 363 168 L 366 171 L 368 175 L 368 181 L 369 182 L 369 202 L 368 203 L 368 209 L 366 214 L 366 218 L 360 233 L 355 238 L 353 236 L 360 220 L 360 214 L 359 211 L 351 204 L 348 203 L 337 203 L 332 206 L 330 206 L 318 215 L 315 219 L 312 226 L 312 230 L 316 237 L 322 244 L 320 246 L 318 246 L 316 244 L 313 243 L 303 233 L 295 223 L 286 205 L 284 196 L 282 194 L 278 193 L 276 191 L 273 190 L 266 182 L 265 176 L 264 175 L 264 170 L 265 169 L 265 164 Z M 275 155 L 282 147 L 286 145 L 289 145 L 293 143 L 308 143 L 320 148 L 324 153 L 324 158 L 322 162 L 315 169 L 312 170 L 310 172 L 303 175 L 291 175 L 286 173 L 277 164 L 275 160 Z M 283 122 L 285 123 L 288 127 L 288 136 L 286 140 L 280 146 L 276 146 L 273 142 L 273 133 L 276 126 L 279 123 Z M 361 116 L 355 123 L 354 134 L 356 139 L 360 143 L 362 144 L 367 144 L 371 140 L 373 136 L 373 125 L 371 121 L 366 116 Z M 363 116 L 367 117 L 369 119 L 372 124 L 372 127 L 373 128 L 372 137 L 371 139 L 365 144 L 361 143 L 357 139 L 355 135 L 355 126 L 357 121 Z M 294 87 L 291 84 L 285 84 L 276 91 L 275 93 L 275 99 L 276 100 L 279 100 L 287 94 L 291 93 L 294 90 Z M 293 87 L 293 90 L 291 92 L 287 93 L 279 99 L 277 99 L 275 97 L 276 93 L 285 85 L 291 85 Z M 258 84 L 247 84 L 244 86 L 239 92 L 238 95 L 238 103 L 240 107 L 246 112 L 250 111 L 253 108 L 255 103 L 264 91 L 261 86 Z M 359 78 L 359 80 L 362 83 L 368 84 L 376 89 L 378 89 L 381 86 L 380 81 L 371 75 L 364 74 Z M 360 78 L 363 75 L 369 75 L 376 78 L 379 81 L 380 86 L 378 88 L 376 88 L 369 84 L 363 83 L 360 80 Z M 425 61 L 421 65 L 418 71 L 418 73 L 426 78 L 438 89 L 441 89 L 448 81 L 448 72 L 446 67 L 441 62 L 436 60 L 431 59 Z M 443 44 L 437 43 L 436 42 L 427 42 L 415 46 L 407 53 L 404 59 L 404 61 L 402 63 L 399 63 L 395 61 L 387 60 L 382 58 L 376 58 L 375 57 L 363 57 L 362 58 L 357 58 L 355 56 L 357 52 L 357 49 L 356 48 L 352 48 L 341 58 L 331 52 L 329 52 L 326 50 L 323 50 L 322 51 L 322 55 L 324 57 L 324 60 L 322 62 L 306 62 L 303 64 L 303 66 L 301 68 L 288 73 L 278 80 L 276 80 L 271 73 L 265 69 L 257 66 L 248 67 L 242 70 L 240 70 L 234 74 L 229 79 L 223 91 L 223 105 L 227 114 L 232 119 L 241 123 L 243 125 L 240 134 L 234 145 L 234 152 L 235 155 L 223 168 L 223 172 L 224 173 L 230 172 L 232 174 L 226 185 L 226 191 L 228 193 L 231 193 L 232 194 L 232 198 L 230 202 L 230 211 L 232 213 L 234 212 L 237 212 L 238 213 L 238 224 L 241 231 L 244 234 L 248 233 L 253 239 L 257 240 L 266 250 L 272 260 L 272 266 L 270 268 L 268 268 L 265 265 L 258 253 L 252 247 L 251 247 L 250 250 L 247 252 L 244 249 L 242 244 L 238 239 L 236 239 L 232 242 L 230 240 L 225 228 L 221 224 L 218 226 L 218 230 L 215 231 L 210 225 L 201 208 L 198 207 L 197 209 L 194 211 L 172 184 L 166 178 L 169 169 L 169 162 L 170 161 L 170 146 L 169 143 L 164 136 L 162 135 L 157 135 L 155 136 L 151 140 L 149 144 L 146 146 L 144 144 L 144 141 L 141 132 L 136 123 L 130 119 L 126 119 L 123 122 L 121 126 L 121 144 L 118 145 L 111 132 L 104 125 L 97 123 L 95 124 L 89 131 L 89 139 L 90 140 L 90 143 L 93 147 L 96 153 L 96 155 L 94 156 L 87 149 L 80 146 L 77 146 L 73 148 L 70 152 L 70 161 L 77 173 L 74 176 L 69 176 L 65 180 L 64 182 L 64 187 L 66 192 L 78 207 L 91 218 L 97 221 L 103 227 L 106 237 L 108 240 L 108 243 L 110 245 L 110 247 L 112 249 L 116 257 L 127 271 L 138 282 L 156 295 L 154 298 L 148 297 L 147 299 L 154 305 L 164 310 L 176 314 L 178 317 L 176 319 L 172 320 L 172 322 L 174 324 L 185 329 L 200 332 L 202 334 L 197 338 L 200 341 L 207 342 L 208 343 L 218 344 L 219 345 L 218 350 L 220 351 L 227 352 L 230 354 L 234 354 L 239 341 L 244 336 L 246 336 L 249 339 L 248 342 L 246 344 L 244 350 L 245 355 L 243 358 L 242 368 L 236 374 L 232 381 L 233 383 L 238 383 L 239 386 L 224 402 L 224 405 L 225 406 L 232 405 L 234 407 L 232 411 L 222 423 L 219 429 L 219 433 L 220 434 L 222 434 L 226 431 L 229 433 L 223 445 L 222 451 L 220 455 L 221 458 L 225 462 L 225 465 L 227 467 L 239 467 L 240 468 L 245 468 L 249 472 L 249 474 L 247 476 L 239 476 L 238 475 L 222 476 L 216 480 L 210 479 L 209 480 L 202 481 L 199 483 L 199 485 L 204 489 L 202 491 L 189 493 L 181 497 L 178 501 L 179 502 L 183 502 L 184 503 L 184 506 L 179 510 L 168 522 L 164 529 L 156 539 L 156 541 L 161 545 L 166 551 L 166 553 L 164 555 L 161 554 L 155 549 L 143 542 L 136 541 L 135 540 L 127 540 L 126 541 L 123 541 L 113 546 L 108 552 L 106 556 L 105 569 L 111 583 L 113 584 L 119 577 L 123 575 L 131 575 L 137 577 L 149 585 L 158 594 L 176 616 L 181 626 L 181 632 L 180 635 L 178 637 L 179 639 L 188 638 L 194 635 L 202 627 L 204 623 L 213 612 L 217 615 L 219 615 L 223 611 L 226 605 L 232 597 L 236 600 L 238 600 L 242 596 L 246 589 L 249 586 L 254 590 L 258 586 L 261 581 L 268 574 L 270 574 L 272 577 L 274 578 L 291 568 L 294 568 L 297 570 L 300 570 L 301 569 L 304 569 L 309 566 L 311 566 L 312 564 L 309 562 L 305 557 L 308 553 L 312 554 L 317 557 L 319 557 L 326 561 L 329 561 L 338 565 L 341 565 L 346 567 L 356 568 L 357 569 L 364 569 L 365 570 L 380 570 L 381 569 L 394 568 L 398 566 L 406 565 L 408 567 L 409 570 L 406 573 L 397 576 L 397 578 L 409 590 L 417 596 L 432 610 L 438 614 L 441 612 L 443 612 L 453 622 L 461 626 L 460 619 L 462 617 L 464 617 L 472 621 L 496 622 L 497 621 L 501 621 L 502 620 L 517 617 L 523 614 L 525 614 L 527 616 L 527 620 L 524 623 L 524 628 L 527 634 L 531 639 L 537 644 L 542 646 L 548 646 L 544 639 L 544 636 L 546 634 L 549 635 L 555 640 L 562 640 L 564 639 L 567 635 L 567 633 L 558 625 L 558 620 L 561 618 L 568 623 L 570 623 L 574 618 L 574 610 L 575 609 L 575 584 L 572 577 L 572 572 L 571 571 L 571 566 L 569 562 L 569 559 L 564 549 L 560 545 L 554 542 L 546 542 L 540 545 L 520 543 L 518 540 L 521 537 L 519 535 L 511 535 L 509 533 L 510 531 L 504 528 L 501 525 L 493 511 L 491 512 L 487 519 L 480 527 L 476 527 L 473 523 L 475 518 L 478 515 L 483 505 L 485 503 L 485 501 L 489 494 L 490 488 L 493 480 L 493 463 L 494 462 L 496 462 L 499 464 L 502 463 L 502 457 L 495 435 L 497 433 L 502 435 L 504 433 L 504 431 L 497 418 L 488 406 L 490 403 L 492 404 L 497 404 L 498 401 L 493 394 L 484 385 L 484 384 L 488 381 L 488 378 L 484 373 L 481 367 L 481 365 L 478 363 L 471 363 L 470 362 L 465 362 L 464 361 L 460 361 L 456 359 L 453 359 L 445 354 L 445 350 L 446 349 L 452 349 L 453 350 L 458 350 L 463 352 L 468 352 L 473 354 L 478 354 L 486 357 L 490 357 L 491 356 L 486 350 L 488 348 L 491 348 L 506 355 L 515 361 L 518 361 L 518 356 L 519 355 L 522 355 L 537 366 L 548 370 L 551 373 L 552 383 L 556 390 L 563 395 L 570 396 L 572 394 L 572 390 L 570 386 L 572 383 L 574 383 L 583 391 L 587 393 L 590 393 L 591 394 L 598 394 L 601 393 L 604 390 L 605 387 L 601 375 L 603 373 L 606 373 L 613 381 L 616 381 L 620 377 L 622 373 L 622 366 L 616 355 L 618 353 L 621 353 L 628 358 L 630 356 L 630 349 L 628 343 L 622 334 L 606 319 L 606 317 L 609 314 L 606 310 L 597 306 L 594 306 L 589 304 L 587 302 L 590 298 L 590 296 L 588 294 L 567 287 L 566 284 L 569 281 L 568 278 L 560 275 L 555 275 L 554 274 L 550 274 L 545 272 L 536 271 L 534 269 L 539 264 L 537 262 L 534 262 L 533 261 L 514 261 L 513 262 L 509 262 L 507 260 L 510 256 L 508 254 L 499 254 L 498 255 L 492 255 L 491 256 L 482 257 L 480 255 L 482 252 L 481 249 L 470 250 L 469 251 L 460 252 L 456 254 L 451 254 L 450 255 L 445 255 L 443 253 L 443 250 L 446 247 L 453 245 L 461 235 L 465 227 L 466 216 L 468 214 L 471 216 L 473 215 L 475 209 L 475 203 L 474 202 L 474 197 L 473 195 L 475 193 L 480 197 L 482 196 L 482 189 L 479 183 L 479 181 L 477 179 L 475 174 L 477 172 L 483 174 L 485 171 L 483 166 L 470 152 L 472 150 L 479 150 L 480 149 L 480 146 L 475 141 L 467 137 L 465 135 L 468 132 L 468 129 L 463 124 L 457 111 L 449 101 L 449 98 L 460 88 L 462 84 L 463 78 L 464 77 L 464 68 L 460 59 L 455 52 L 449 47 Z M 145 561 L 148 561 L 152 566 L 152 573 L 149 577 L 145 576 L 142 573 L 142 564 Z M 112 553 L 115 553 L 119 558 L 119 567 L 116 571 L 114 571 L 109 565 L 109 557 Z M 128 551 L 132 551 L 135 554 L 135 565 L 132 568 L 129 568 L 125 564 L 125 555 Z M 544 545 L 545 544 L 555 544 L 557 545 L 560 548 L 561 555 L 563 557 L 561 558 L 558 556 L 553 548 L 545 547 Z M 353 543 L 355 545 L 353 548 L 350 550 L 349 549 L 349 546 Z M 406 541 L 407 544 L 405 546 L 404 543 Z M 355 527 L 357 529 L 357 531 L 353 535 L 351 535 L 350 532 L 351 530 Z M 441 499 L 445 503 L 445 514 L 443 516 L 440 514 L 439 515 L 439 527 L 436 529 L 434 527 L 433 519 L 437 514 L 437 504 L 438 501 Z M 465 443 L 467 443 L 470 445 L 473 444 L 477 448 L 479 452 L 480 458 L 483 462 L 483 467 L 482 468 L 477 464 L 476 462 L 476 458 L 474 454 L 472 452 L 470 452 L 464 448 L 463 445 Z M 449 443 L 451 442 L 454 446 L 457 447 L 458 449 L 457 450 L 453 450 L 449 446 Z M 483 434 L 487 437 L 489 442 L 489 447 L 490 448 L 490 452 L 489 453 L 487 452 L 487 450 L 478 441 L 478 438 L 479 437 L 482 437 Z M 461 374 L 465 377 L 465 383 L 464 384 L 460 381 L 459 376 Z M 444 45 L 448 47 L 458 57 L 463 67 L 463 79 L 462 82 L 456 91 L 447 98 L 447 100 L 457 112 L 457 114 L 460 118 L 460 121 L 466 129 L 463 133 L 463 135 L 468 139 L 474 141 L 477 144 L 478 146 L 477 149 L 469 149 L 468 152 L 478 162 L 484 170 L 482 172 L 474 171 L 472 173 L 473 177 L 476 180 L 480 187 L 480 190 L 478 192 L 472 192 L 471 193 L 472 196 L 472 206 L 473 207 L 473 211 L 471 213 L 468 211 L 465 212 L 465 216 L 463 219 L 462 225 L 460 227 L 460 229 L 458 231 L 455 231 L 451 228 L 447 235 L 447 237 L 440 245 L 435 244 L 425 255 L 425 257 L 423 259 L 423 263 L 424 264 L 428 264 L 434 259 L 436 259 L 439 257 L 445 257 L 446 256 L 455 255 L 456 254 L 459 254 L 464 252 L 468 252 L 473 250 L 479 250 L 480 252 L 477 256 L 478 258 L 484 258 L 490 256 L 496 256 L 497 255 L 504 255 L 506 254 L 507 257 L 505 260 L 505 262 L 534 262 L 536 265 L 531 269 L 532 271 L 534 272 L 546 273 L 550 275 L 556 275 L 565 278 L 567 281 L 565 283 L 563 283 L 562 285 L 565 288 L 572 289 L 587 295 L 588 298 L 585 300 L 585 303 L 586 304 L 588 304 L 591 306 L 595 306 L 605 311 L 608 314 L 604 318 L 605 321 L 614 327 L 621 334 L 627 343 L 629 348 L 629 354 L 627 356 L 621 352 L 617 352 L 615 354 L 615 358 L 619 362 L 621 367 L 620 375 L 615 379 L 607 372 L 602 371 L 600 374 L 601 379 L 603 381 L 603 387 L 602 390 L 598 393 L 588 392 L 584 390 L 575 382 L 572 382 L 570 384 L 571 393 L 569 395 L 565 395 L 561 393 L 555 387 L 552 380 L 552 370 L 547 366 L 542 366 L 538 364 L 533 359 L 527 356 L 516 347 L 512 346 L 512 348 L 517 354 L 517 357 L 515 359 L 507 354 L 502 348 L 496 347 L 483 341 L 463 341 L 460 339 L 456 338 L 450 333 L 443 331 L 442 334 L 447 337 L 451 341 L 456 343 L 458 345 L 457 347 L 449 346 L 446 349 L 441 350 L 442 355 L 447 360 L 447 362 L 451 366 L 451 369 L 450 370 L 446 370 L 446 372 L 451 376 L 454 377 L 458 381 L 459 385 L 461 387 L 464 387 L 464 386 L 466 385 L 467 388 L 475 396 L 475 398 L 473 400 L 468 400 L 467 403 L 472 408 L 471 412 L 475 416 L 480 428 L 478 430 L 475 428 L 474 425 L 467 426 L 463 424 L 461 425 L 460 427 L 465 435 L 464 436 L 461 436 L 458 438 L 450 428 L 447 422 L 445 422 L 440 419 L 434 418 L 426 413 L 425 411 L 425 403 L 433 398 L 433 396 L 429 391 L 427 391 L 426 395 L 423 398 L 416 393 L 410 391 L 400 392 L 398 390 L 392 390 L 388 387 L 385 389 L 383 393 L 385 392 L 387 393 L 393 393 L 397 398 L 404 397 L 410 400 L 415 399 L 417 397 L 420 400 L 421 404 L 423 407 L 423 410 L 420 413 L 417 414 L 416 416 L 426 425 L 427 425 L 427 423 L 429 421 L 435 423 L 441 431 L 444 439 L 444 444 L 442 446 L 431 447 L 428 446 L 426 444 L 421 444 L 419 443 L 427 450 L 427 456 L 432 461 L 437 461 L 438 462 L 441 461 L 447 461 L 448 460 L 441 454 L 443 452 L 445 453 L 453 453 L 457 456 L 457 460 L 462 464 L 464 464 L 463 460 L 468 455 L 472 457 L 473 462 L 476 468 L 475 476 L 477 479 L 477 483 L 475 486 L 476 489 L 476 496 L 473 501 L 468 500 L 466 505 L 461 501 L 460 504 L 458 505 L 457 504 L 457 488 L 454 479 L 451 478 L 449 480 L 451 486 L 450 488 L 450 496 L 448 498 L 445 495 L 440 493 L 437 490 L 432 492 L 427 496 L 427 503 L 431 502 L 434 505 L 433 519 L 431 521 L 425 514 L 424 511 L 423 512 L 423 518 L 421 520 L 420 525 L 417 530 L 414 531 L 413 528 L 415 526 L 416 521 L 419 517 L 419 507 L 414 501 L 413 496 L 410 495 L 408 493 L 408 490 L 404 490 L 396 494 L 391 494 L 387 491 L 383 494 L 379 499 L 375 497 L 373 500 L 375 503 L 375 505 L 378 509 L 378 515 L 375 521 L 367 529 L 368 531 L 371 531 L 378 527 L 380 529 L 381 534 L 382 534 L 387 519 L 387 505 L 389 500 L 393 496 L 397 496 L 399 498 L 397 501 L 398 506 L 403 505 L 412 512 L 409 515 L 407 515 L 404 518 L 404 520 L 402 522 L 400 522 L 397 525 L 396 529 L 390 536 L 392 539 L 391 545 L 386 550 L 381 553 L 379 553 L 377 551 L 381 543 L 381 541 L 376 543 L 373 540 L 370 543 L 365 545 L 361 542 L 361 537 L 363 532 L 363 530 L 361 527 L 361 520 L 363 517 L 364 512 L 368 506 L 367 507 L 363 506 L 362 509 L 360 511 L 360 513 L 353 521 L 349 522 L 345 526 L 343 526 L 337 532 L 333 533 L 329 537 L 329 543 L 330 544 L 333 542 L 338 536 L 344 533 L 348 536 L 341 543 L 333 548 L 331 548 L 325 543 L 324 540 L 321 540 L 319 537 L 316 537 L 313 533 L 309 533 L 306 531 L 303 527 L 300 526 L 298 524 L 297 524 L 297 527 L 299 532 L 302 536 L 300 538 L 285 530 L 283 530 L 281 528 L 276 528 L 276 531 L 290 544 L 288 547 L 248 542 L 247 545 L 253 551 L 259 553 L 264 557 L 261 563 L 253 572 L 251 570 L 253 567 L 253 564 L 254 563 L 254 560 L 252 559 L 247 562 L 240 570 L 239 573 L 228 583 L 226 580 L 230 573 L 230 566 L 229 565 L 229 562 L 227 561 L 225 563 L 221 571 L 221 573 L 211 593 L 209 595 L 209 597 L 207 599 L 207 601 L 204 603 L 202 600 L 202 596 L 200 594 L 198 594 L 195 597 L 191 609 L 187 613 L 185 613 L 182 610 L 178 602 L 174 597 L 153 576 L 154 573 L 154 566 L 148 559 L 145 558 L 142 555 L 137 553 L 132 549 L 129 549 L 128 550 L 115 550 L 114 548 L 117 545 L 126 541 L 134 541 L 135 542 L 143 543 L 153 549 L 159 554 L 165 556 L 168 553 L 168 550 L 158 541 L 158 538 L 165 529 L 169 522 L 185 506 L 186 503 L 180 501 L 180 499 L 182 497 L 188 494 L 191 494 L 195 492 L 200 492 L 206 490 L 207 488 L 201 484 L 203 482 L 209 480 L 220 481 L 223 477 L 228 477 L 229 476 L 249 477 L 250 476 L 250 472 L 247 468 L 245 467 L 235 467 L 229 465 L 231 460 L 231 457 L 234 454 L 233 452 L 228 455 L 224 459 L 221 457 L 221 453 L 223 450 L 223 447 L 225 444 L 226 440 L 231 433 L 231 429 L 229 428 L 221 433 L 219 431 L 223 423 L 228 418 L 236 406 L 235 403 L 232 403 L 227 405 L 225 403 L 242 383 L 242 382 L 235 382 L 234 381 L 235 377 L 242 370 L 243 367 L 246 364 L 249 363 L 262 351 L 261 348 L 258 349 L 256 351 L 253 350 L 249 353 L 249 357 L 246 360 L 245 359 L 246 356 L 246 352 L 245 350 L 246 349 L 246 346 L 251 336 L 251 326 L 255 318 L 253 314 L 259 308 L 258 306 L 253 306 L 252 307 L 251 311 L 245 318 L 246 319 L 245 320 L 245 325 L 241 330 L 227 330 L 226 329 L 226 326 L 223 326 L 222 327 L 220 326 L 221 324 L 225 322 L 231 317 L 229 314 L 229 312 L 228 312 L 227 314 L 222 315 L 220 317 L 214 317 L 211 315 L 204 314 L 203 313 L 204 310 L 203 309 L 199 309 L 198 308 L 196 309 L 189 309 L 188 307 L 196 302 L 193 298 L 176 294 L 168 288 L 165 288 L 162 285 L 162 282 L 161 281 L 157 281 L 152 276 L 148 275 L 146 272 L 148 270 L 151 269 L 150 267 L 144 266 L 142 264 L 136 263 L 131 257 L 132 253 L 124 246 L 118 246 L 116 244 L 116 241 L 113 238 L 110 237 L 105 233 L 105 229 L 102 223 L 93 218 L 87 212 L 81 208 L 68 194 L 67 191 L 65 189 L 65 181 L 71 176 L 77 176 L 80 173 L 86 177 L 90 177 L 95 173 L 95 166 L 86 156 L 83 155 L 81 153 L 77 153 L 74 155 L 73 159 L 71 160 L 70 159 L 70 153 L 74 148 L 76 147 L 81 147 L 84 149 L 86 149 L 96 159 L 98 159 L 99 157 L 109 158 L 112 156 L 113 154 L 113 148 L 112 145 L 104 133 L 97 130 L 94 132 L 92 137 L 90 136 L 90 130 L 97 124 L 104 126 L 111 133 L 117 144 L 117 146 L 120 149 L 124 148 L 131 153 L 136 152 L 139 149 L 139 142 L 140 141 L 138 135 L 136 133 L 135 130 L 131 126 L 125 126 L 123 124 L 126 120 L 131 120 L 137 126 L 138 129 L 140 131 L 140 134 L 144 145 L 149 149 L 148 156 L 147 157 L 148 162 L 152 166 L 155 167 L 159 165 L 162 161 L 165 154 L 165 148 L 163 143 L 159 140 L 156 140 L 151 146 L 150 146 L 149 144 L 156 137 L 158 136 L 162 136 L 167 142 L 169 148 L 169 161 L 168 162 L 167 172 L 165 176 L 166 180 L 195 213 L 196 213 L 199 209 L 202 211 L 206 219 L 206 221 L 212 231 L 217 234 L 218 233 L 218 227 L 221 225 L 225 229 L 228 235 L 228 238 L 232 245 L 234 245 L 235 242 L 238 241 L 242 246 L 244 251 L 247 255 L 250 254 L 250 251 L 252 249 L 263 261 L 263 263 L 268 269 L 271 269 L 274 266 L 274 262 L 276 260 L 282 265 L 288 268 L 290 268 L 291 267 L 290 265 L 283 258 L 277 254 L 271 254 L 257 239 L 254 238 L 252 236 L 252 233 L 248 227 L 246 228 L 246 230 L 244 232 L 241 229 L 239 223 L 239 213 L 240 212 L 238 208 L 236 208 L 234 210 L 231 209 L 231 202 L 233 198 L 233 194 L 235 191 L 233 189 L 230 191 L 228 191 L 226 189 L 226 187 L 233 175 L 233 171 L 231 170 L 225 172 L 224 169 L 236 155 L 235 152 L 235 145 L 243 129 L 244 124 L 232 118 L 226 111 L 223 104 L 223 92 L 225 89 L 226 85 L 230 79 L 235 74 L 242 70 L 244 70 L 247 68 L 251 68 L 252 67 L 259 67 L 267 71 L 273 77 L 274 80 L 277 81 L 286 76 L 291 72 L 303 68 L 304 65 L 306 63 L 322 63 L 325 61 L 325 58 L 323 55 L 323 52 L 324 51 L 329 52 L 337 56 L 340 59 L 342 59 L 348 52 L 354 49 L 356 51 L 354 56 L 354 59 L 355 60 L 361 59 L 362 58 L 378 58 L 387 61 L 392 61 L 398 64 L 403 65 L 406 56 L 417 46 L 429 42 L 439 43 L 442 45 Z M 448 36 L 446 36 L 443 34 L 439 34 L 438 33 L 426 33 L 425 34 L 420 34 L 414 36 L 406 41 L 396 52 L 389 51 L 388 50 L 383 50 L 382 49 L 375 49 L 374 48 L 367 49 L 365 47 L 364 44 L 359 40 L 352 40 L 349 41 L 340 47 L 332 43 L 323 42 L 317 44 L 314 47 L 314 52 L 312 54 L 305 54 L 302 55 L 281 67 L 279 67 L 272 62 L 263 58 L 246 58 L 240 60 L 229 66 L 222 73 L 216 82 L 216 85 L 214 88 L 214 92 L 213 93 L 213 105 L 215 111 L 220 120 L 231 131 L 231 133 L 226 141 L 226 144 L 225 145 L 225 154 L 218 162 L 215 169 L 216 176 L 220 180 L 218 185 L 218 195 L 223 201 L 222 203 L 222 210 L 223 213 L 221 215 L 214 215 L 212 213 L 207 203 L 201 197 L 194 197 L 183 183 L 177 177 L 176 173 L 178 169 L 178 162 L 179 161 L 179 146 L 178 145 L 177 139 L 174 134 L 169 129 L 161 126 L 158 126 L 150 129 L 141 116 L 138 113 L 134 111 L 131 111 L 130 110 L 122 111 L 112 120 L 109 118 L 107 118 L 105 116 L 91 116 L 88 118 L 82 125 L 82 127 L 80 130 L 80 136 L 78 138 L 74 138 L 69 140 L 62 148 L 61 151 L 61 161 L 62 162 L 63 169 L 58 174 L 55 182 L 55 187 L 56 188 L 57 195 L 67 209 L 74 216 L 90 228 L 95 233 L 96 239 L 104 255 L 118 275 L 138 295 L 138 300 L 140 304 L 147 311 L 161 318 L 163 320 L 163 325 L 169 331 L 175 334 L 180 335 L 182 337 L 186 337 L 188 339 L 189 343 L 194 347 L 198 349 L 202 349 L 204 350 L 210 356 L 216 359 L 224 361 L 228 363 L 231 366 L 225 377 L 225 388 L 216 399 L 215 408 L 218 412 L 218 415 L 213 421 L 210 429 L 210 437 L 214 442 L 214 447 L 212 452 L 212 460 L 215 465 L 215 467 L 212 470 L 205 471 L 193 476 L 190 480 L 190 484 L 188 486 L 183 487 L 173 493 L 170 497 L 170 503 L 171 505 L 161 515 L 154 527 L 148 534 L 143 534 L 142 533 L 137 533 L 136 532 L 122 532 L 116 534 L 107 539 L 101 545 L 97 552 L 97 555 L 96 556 L 95 567 L 96 568 L 96 572 L 98 578 L 105 591 L 115 605 L 137 628 L 151 638 L 164 645 L 173 648 L 179 648 L 180 649 L 185 649 L 194 646 L 201 642 L 209 634 L 215 626 L 223 624 L 230 617 L 231 613 L 234 610 L 239 610 L 243 608 L 251 599 L 258 599 L 260 598 L 268 589 L 274 588 L 290 579 L 303 579 L 314 574 L 316 574 L 322 570 L 326 570 L 332 573 L 335 573 L 342 576 L 350 577 L 354 579 L 385 580 L 396 591 L 396 592 L 426 617 L 435 623 L 442 625 L 446 628 L 459 634 L 466 634 L 471 630 L 473 631 L 483 631 L 484 632 L 496 632 L 501 630 L 513 629 L 515 631 L 518 638 L 524 646 L 533 653 L 537 654 L 540 656 L 555 656 L 557 654 L 561 653 L 571 646 L 575 642 L 580 634 L 583 625 L 583 621 L 585 618 L 585 610 L 586 609 L 586 592 L 585 591 L 585 583 L 583 577 L 583 571 L 582 570 L 582 567 L 581 566 L 581 563 L 579 557 L 576 552 L 575 548 L 564 536 L 562 536 L 560 534 L 549 533 L 548 532 L 545 532 L 542 534 L 538 534 L 537 535 L 532 534 L 526 528 L 521 527 L 515 523 L 506 514 L 502 506 L 498 501 L 498 496 L 502 488 L 503 477 L 510 469 L 511 454 L 510 453 L 510 450 L 508 444 L 513 437 L 513 429 L 508 418 L 504 413 L 507 407 L 507 400 L 499 388 L 499 382 L 497 376 L 493 369 L 495 367 L 498 367 L 500 365 L 505 365 L 519 373 L 522 373 L 525 371 L 529 371 L 542 379 L 543 386 L 547 394 L 554 401 L 562 405 L 575 405 L 580 401 L 584 401 L 591 404 L 598 404 L 607 401 L 617 391 L 621 390 L 628 383 L 630 379 L 630 373 L 635 368 L 638 362 L 638 356 L 638 361 L 635 367 L 630 372 L 630 377 L 627 383 L 620 390 L 614 392 L 607 400 L 600 403 L 590 403 L 583 400 L 579 400 L 575 404 L 572 405 L 561 404 L 555 401 L 547 393 L 544 387 L 542 378 L 534 374 L 532 372 L 528 370 L 526 370 L 523 372 L 519 372 L 516 370 L 514 370 L 505 364 L 500 364 L 492 369 L 498 381 L 498 388 L 504 396 L 507 402 L 507 405 L 504 411 L 504 414 L 506 416 L 512 428 L 512 437 L 507 444 L 508 449 L 510 452 L 510 466 L 508 471 L 502 476 L 501 489 L 498 494 L 498 502 L 500 504 L 505 514 L 510 520 L 518 526 L 526 529 L 532 535 L 539 535 L 543 533 L 554 533 L 566 538 L 573 546 L 578 556 L 579 562 L 582 570 L 582 577 L 585 586 L 585 614 L 582 622 L 582 626 L 578 636 L 573 643 L 565 650 L 558 654 L 552 656 L 543 656 L 531 651 L 522 643 L 518 637 L 518 635 L 514 628 L 503 629 L 498 631 L 470 630 L 464 634 L 456 632 L 442 624 L 439 624 L 433 621 L 430 618 L 426 616 L 408 602 L 385 579 L 361 579 L 360 578 L 353 578 L 352 577 L 348 577 L 336 573 L 333 573 L 330 571 L 327 571 L 326 570 L 321 570 L 315 574 L 313 574 L 310 576 L 301 579 L 291 578 L 274 587 L 268 588 L 260 597 L 256 599 L 250 599 L 249 601 L 239 610 L 233 610 L 228 618 L 222 624 L 215 625 L 211 629 L 208 634 L 197 644 L 187 648 L 175 648 L 174 647 L 168 646 L 157 641 L 152 637 L 146 634 L 136 626 L 120 610 L 109 596 L 100 581 L 96 569 L 96 560 L 97 559 L 98 552 L 101 546 L 109 538 L 117 534 L 124 533 L 125 532 L 135 532 L 136 533 L 140 533 L 141 534 L 148 535 L 154 528 L 155 525 L 158 522 L 162 515 L 171 506 L 170 499 L 177 491 L 182 488 L 189 486 L 191 483 L 191 480 L 196 475 L 198 475 L 207 471 L 214 470 L 216 468 L 216 466 L 213 461 L 213 451 L 214 450 L 215 441 L 211 437 L 211 427 L 215 419 L 219 415 L 219 412 L 216 409 L 216 401 L 218 397 L 226 388 L 225 386 L 225 378 L 232 365 L 228 362 L 213 357 L 210 355 L 206 350 L 200 349 L 193 346 L 189 342 L 187 337 L 181 336 L 169 330 L 164 325 L 163 323 L 163 319 L 161 317 L 147 310 L 140 303 L 138 297 L 138 293 L 118 274 L 107 259 L 98 242 L 98 240 L 96 237 L 96 232 L 76 217 L 66 207 L 58 195 L 56 189 L 56 180 L 58 175 L 64 169 L 63 163 L 61 159 L 62 150 L 64 146 L 69 141 L 74 139 L 79 139 L 81 137 L 80 133 L 81 132 L 82 126 L 84 123 L 92 116 L 104 116 L 112 121 L 123 111 L 132 111 L 137 113 L 143 119 L 144 122 L 150 130 L 156 127 L 162 127 L 168 129 L 176 138 L 176 140 L 178 143 L 178 147 L 179 148 L 178 167 L 175 174 L 176 177 L 183 184 L 194 198 L 198 198 L 200 197 L 206 203 L 210 209 L 211 213 L 214 216 L 223 216 L 224 215 L 222 209 L 223 200 L 218 194 L 218 187 L 219 186 L 220 179 L 216 175 L 216 168 L 219 162 L 225 156 L 226 142 L 231 134 L 232 130 L 220 119 L 215 110 L 215 107 L 214 106 L 214 91 L 219 78 L 230 66 L 242 60 L 245 60 L 250 58 L 259 58 L 260 59 L 264 59 L 272 63 L 278 68 L 281 68 L 304 55 L 313 54 L 314 53 L 314 49 L 315 47 L 320 43 L 331 43 L 334 45 L 336 45 L 338 47 L 342 47 L 346 43 L 350 41 L 358 40 L 364 45 L 364 47 L 366 49 L 380 49 L 381 50 L 391 51 L 396 53 L 407 41 L 419 35 L 434 33 L 435 34 L 440 34 L 449 38 L 451 38 L 457 42 L 465 50 L 472 63 L 472 67 L 473 68 L 473 80 L 472 81 L 472 84 L 470 87 L 469 91 L 462 99 L 461 103 L 468 113 L 473 123 L 477 128 L 477 132 L 478 134 L 487 142 L 489 146 L 489 151 L 486 154 L 486 158 L 490 163 L 493 170 L 493 175 L 488 181 L 490 187 L 490 198 L 488 202 L 483 206 L 482 209 L 482 216 L 479 222 L 474 227 L 474 229 L 468 241 L 469 242 L 485 241 L 492 247 L 511 246 L 514 247 L 520 253 L 539 254 L 544 256 L 547 259 L 549 265 L 555 267 L 561 267 L 574 272 L 579 277 L 579 282 L 589 287 L 591 287 L 594 289 L 599 294 L 601 300 L 611 304 L 617 309 L 617 318 L 632 332 L 638 344 L 638 350 L 638 343 L 632 331 L 627 325 L 618 317 L 618 310 L 617 308 L 614 305 L 602 300 L 600 298 L 600 295 L 597 290 L 591 286 L 589 286 L 586 284 L 583 284 L 580 281 L 580 277 L 579 275 L 574 271 L 569 270 L 566 268 L 551 265 L 548 262 L 548 259 L 544 255 L 538 253 L 521 253 L 518 249 L 514 246 L 511 246 L 510 245 L 492 246 L 489 242 L 484 240 L 479 240 L 478 241 L 473 241 L 472 242 L 469 240 L 473 233 L 474 228 L 479 223 L 482 217 L 482 211 L 483 208 L 487 204 L 491 197 L 491 188 L 489 184 L 489 181 L 493 176 L 493 169 L 490 162 L 486 157 L 486 155 L 489 152 L 489 145 L 487 141 L 478 133 L 477 127 L 462 103 L 462 101 L 471 89 L 472 83 L 474 79 L 474 69 L 473 68 L 472 61 L 466 50 L 459 43 Z" fill="#B1B1B1" fill-rule="evenodd"/><path d="M 145 562 L 143 564 L 143 573 L 145 575 L 149 576 L 151 573 L 151 566 L 148 562 Z M 112 554 L 110 557 L 110 565 L 114 570 L 116 570 L 118 567 L 118 558 L 115 554 Z M 128 552 L 126 555 L 126 564 L 129 567 L 132 567 L 134 565 L 134 554 L 132 552 Z M 266 164 L 266 169 L 265 170 L 265 175 L 266 176 L 267 182 L 273 189 L 276 190 L 278 192 L 282 193 L 285 196 L 287 205 L 296 223 L 304 232 L 304 233 L 313 242 L 316 243 L 318 245 L 320 245 L 321 244 L 315 237 L 311 230 L 311 226 L 314 219 L 317 216 L 317 215 L 324 209 L 325 209 L 330 205 L 332 205 L 337 202 L 348 202 L 349 203 L 351 203 L 353 204 L 360 211 L 360 213 L 361 214 L 361 220 L 354 236 L 355 237 L 359 233 L 362 227 L 362 225 L 365 218 L 365 214 L 366 213 L 366 210 L 367 209 L 367 203 L 368 202 L 368 182 L 367 181 L 367 175 L 365 171 L 363 169 L 361 169 L 358 174 L 354 178 L 338 186 L 334 186 L 333 187 L 318 187 L 317 186 L 312 186 L 311 185 L 307 185 L 306 184 L 299 184 L 290 189 L 284 190 L 283 189 L 279 188 L 271 180 L 270 176 L 269 175 L 269 170 L 270 169 L 270 161 L 268 161 Z M 276 155 L 276 160 L 278 164 L 286 172 L 290 173 L 291 174 L 303 174 L 304 173 L 306 173 L 310 171 L 312 169 L 315 168 L 321 162 L 323 158 L 323 153 L 320 149 L 308 144 L 293 144 L 289 146 L 286 146 L 282 148 Z M 283 123 L 281 123 L 277 126 L 274 133 L 274 142 L 276 145 L 280 145 L 285 140 L 287 136 L 287 127 L 286 125 Z M 363 117 L 361 118 L 357 123 L 357 125 L 356 126 L 356 135 L 358 139 L 361 142 L 365 143 L 367 142 L 371 137 L 371 134 L 372 133 L 372 128 L 371 127 L 371 124 L 367 118 Z M 292 87 L 291 86 L 285 86 L 277 93 L 276 97 L 277 98 L 279 98 L 287 92 L 291 91 L 292 90 Z M 361 78 L 361 80 L 363 82 L 369 83 L 376 87 L 378 87 L 379 86 L 379 83 L 378 81 L 376 79 L 372 77 L 370 77 L 369 76 L 363 76 Z M 451 39 L 449 39 L 446 37 L 444 37 L 440 35 L 435 35 L 434 34 L 419 36 L 407 42 L 396 54 L 392 53 L 391 52 L 385 52 L 384 51 L 381 51 L 380 50 L 366 50 L 363 47 L 363 45 L 358 41 L 353 41 L 352 42 L 350 42 L 346 44 L 342 48 L 338 48 L 336 46 L 334 46 L 331 44 L 320 44 L 316 47 L 315 49 L 315 53 L 313 55 L 310 55 L 309 56 L 304 56 L 281 69 L 278 69 L 272 64 L 264 60 L 260 60 L 259 59 L 250 59 L 249 60 L 242 61 L 230 67 L 220 78 L 217 84 L 216 90 L 215 91 L 215 106 L 216 107 L 216 110 L 221 119 L 233 130 L 233 132 L 227 142 L 227 146 L 226 147 L 226 156 L 220 162 L 217 168 L 217 175 L 221 179 L 221 182 L 220 183 L 220 186 L 219 187 L 219 194 L 224 200 L 224 203 L 223 204 L 223 209 L 224 210 L 224 213 L 225 215 L 223 217 L 214 217 L 210 213 L 210 211 L 205 203 L 200 198 L 198 199 L 194 199 L 186 190 L 186 189 L 182 185 L 182 184 L 175 177 L 174 174 L 177 167 L 178 148 L 177 147 L 177 143 L 173 135 L 168 130 L 166 129 L 163 129 L 162 128 L 156 128 L 150 131 L 147 128 L 146 125 L 143 122 L 142 119 L 135 113 L 133 113 L 132 112 L 123 112 L 112 122 L 104 117 L 92 117 L 90 119 L 89 119 L 83 126 L 82 132 L 81 133 L 82 137 L 79 140 L 74 140 L 73 141 L 69 142 L 65 146 L 63 150 L 63 153 L 62 154 L 62 159 L 64 163 L 65 169 L 59 175 L 58 179 L 57 180 L 57 189 L 58 190 L 58 193 L 59 195 L 61 197 L 62 200 L 67 206 L 67 207 L 76 216 L 81 219 L 86 224 L 87 224 L 97 232 L 97 237 L 99 240 L 99 242 L 108 259 L 115 268 L 115 269 L 119 273 L 119 274 L 139 293 L 139 297 L 140 298 L 140 301 L 141 303 L 147 309 L 161 316 L 164 319 L 164 323 L 165 325 L 169 329 L 181 335 L 187 336 L 189 338 L 190 342 L 193 345 L 200 348 L 206 349 L 209 352 L 209 353 L 213 356 L 215 356 L 218 358 L 220 358 L 226 361 L 228 361 L 233 365 L 226 378 L 226 386 L 227 388 L 219 397 L 217 401 L 217 409 L 220 412 L 220 415 L 216 419 L 212 427 L 212 437 L 216 441 L 216 445 L 215 446 L 215 450 L 214 451 L 214 461 L 217 466 L 217 468 L 214 471 L 212 471 L 211 472 L 207 472 L 206 473 L 201 474 L 198 476 L 196 476 L 192 480 L 192 483 L 189 487 L 182 489 L 177 492 L 171 499 L 171 501 L 172 502 L 172 506 L 163 515 L 159 522 L 156 525 L 155 528 L 148 536 L 145 536 L 144 535 L 141 535 L 140 534 L 136 534 L 135 533 L 125 533 L 124 534 L 120 534 L 119 535 L 117 535 L 109 539 L 102 546 L 98 555 L 98 559 L 97 560 L 97 569 L 98 570 L 98 573 L 103 585 L 105 587 L 106 590 L 108 592 L 110 596 L 113 599 L 116 604 L 121 609 L 121 610 L 136 625 L 137 625 L 146 633 L 163 643 L 165 643 L 168 645 L 174 646 L 175 647 L 187 647 L 188 646 L 193 645 L 201 640 L 207 634 L 210 629 L 215 624 L 219 624 L 220 623 L 222 623 L 227 618 L 230 612 L 233 609 L 239 609 L 242 606 L 243 606 L 250 598 L 256 598 L 260 596 L 268 587 L 274 586 L 291 577 L 301 578 L 302 577 L 310 575 L 313 573 L 315 573 L 319 571 L 321 569 L 326 569 L 327 570 L 330 570 L 333 572 L 336 572 L 340 574 L 343 574 L 344 575 L 347 575 L 348 576 L 352 576 L 353 577 L 360 577 L 361 578 L 385 578 L 408 601 L 409 601 L 426 615 L 430 617 L 433 620 L 439 623 L 442 623 L 446 625 L 448 627 L 462 633 L 464 633 L 470 629 L 479 629 L 480 630 L 498 630 L 499 629 L 502 629 L 503 628 L 514 627 L 516 629 L 519 635 L 519 637 L 521 639 L 523 643 L 527 647 L 528 647 L 531 650 L 539 654 L 542 654 L 543 655 L 552 655 L 553 654 L 558 653 L 562 650 L 565 649 L 572 643 L 579 632 L 579 630 L 581 626 L 581 622 L 582 621 L 583 615 L 584 614 L 584 586 L 583 585 L 583 582 L 582 581 L 582 578 L 581 577 L 581 570 L 580 569 L 580 566 L 578 562 L 578 559 L 572 546 L 566 539 L 558 535 L 555 535 L 554 534 L 543 534 L 539 536 L 532 536 L 526 530 L 518 527 L 511 521 L 510 521 L 504 514 L 499 504 L 497 502 L 497 494 L 500 489 L 501 476 L 507 471 L 508 467 L 509 466 L 509 452 L 507 449 L 507 446 L 506 444 L 511 437 L 511 428 L 509 425 L 509 423 L 507 421 L 505 416 L 503 414 L 503 411 L 505 408 L 506 402 L 503 396 L 500 393 L 497 388 L 497 381 L 491 369 L 494 366 L 498 365 L 500 363 L 505 363 L 509 366 L 512 367 L 514 369 L 516 369 L 519 371 L 523 371 L 526 369 L 528 369 L 532 371 L 534 373 L 541 376 L 543 378 L 544 380 L 544 384 L 548 393 L 555 400 L 561 403 L 572 404 L 573 403 L 575 403 L 579 399 L 583 399 L 590 402 L 600 402 L 607 399 L 614 391 L 618 389 L 620 389 L 628 380 L 628 378 L 629 377 L 629 372 L 634 367 L 637 361 L 637 356 L 638 355 L 637 344 L 631 332 L 619 320 L 618 320 L 616 318 L 616 309 L 611 305 L 601 301 L 599 299 L 599 296 L 598 294 L 594 290 L 593 290 L 591 288 L 589 288 L 586 286 L 584 286 L 580 284 L 578 282 L 578 277 L 574 273 L 568 270 L 565 270 L 561 268 L 555 268 L 554 267 L 551 267 L 549 266 L 547 264 L 547 261 L 546 259 L 544 257 L 540 256 L 539 255 L 533 255 L 532 254 L 520 254 L 514 248 L 512 248 L 511 247 L 499 247 L 498 248 L 492 248 L 485 242 L 475 242 L 474 243 L 469 243 L 467 241 L 473 229 L 473 227 L 478 222 L 481 216 L 481 209 L 482 208 L 482 206 L 487 202 L 489 198 L 489 187 L 488 186 L 488 183 L 487 181 L 492 175 L 492 170 L 489 163 L 485 158 L 485 154 L 488 151 L 488 146 L 486 142 L 477 134 L 476 132 L 476 128 L 472 123 L 470 118 L 468 116 L 467 113 L 460 103 L 461 99 L 466 94 L 471 84 L 471 81 L 472 80 L 472 68 L 471 67 L 471 63 L 464 50 L 457 43 L 456 43 Z M 443 43 L 449 46 L 456 52 L 456 53 L 461 59 L 464 65 L 464 67 L 465 68 L 465 77 L 464 78 L 463 84 L 461 88 L 452 97 L 450 98 L 450 101 L 458 111 L 464 124 L 469 129 L 469 132 L 466 135 L 475 140 L 481 146 L 481 149 L 479 151 L 472 151 L 471 152 L 479 160 L 479 161 L 484 166 L 486 170 L 485 173 L 483 175 L 479 174 L 478 173 L 476 174 L 477 175 L 478 179 L 480 181 L 480 183 L 483 189 L 483 196 L 481 198 L 480 198 L 477 195 L 475 194 L 474 195 L 475 197 L 475 202 L 476 203 L 476 209 L 475 210 L 475 213 L 474 215 L 472 217 L 471 217 L 469 215 L 467 216 L 466 227 L 462 235 L 459 238 L 457 242 L 453 246 L 446 248 L 444 250 L 444 253 L 445 254 L 450 254 L 451 253 L 456 253 L 460 251 L 464 251 L 465 250 L 469 250 L 470 249 L 481 248 L 483 250 L 483 252 L 481 254 L 482 256 L 485 256 L 486 255 L 491 255 L 492 254 L 498 254 L 499 253 L 508 253 L 511 256 L 508 260 L 509 261 L 513 261 L 514 260 L 533 260 L 534 261 L 537 261 L 540 264 L 535 269 L 536 270 L 545 271 L 546 272 L 554 273 L 555 274 L 560 274 L 561 275 L 564 275 L 568 277 L 570 279 L 570 281 L 567 284 L 567 286 L 588 293 L 591 296 L 591 298 L 588 301 L 589 303 L 593 304 L 594 305 L 597 305 L 600 307 L 602 307 L 606 309 L 610 313 L 610 314 L 607 317 L 607 319 L 623 334 L 623 335 L 626 338 L 627 341 L 629 343 L 629 345 L 631 349 L 631 356 L 628 359 L 627 359 L 621 354 L 618 354 L 617 355 L 618 358 L 622 363 L 622 365 L 623 366 L 623 373 L 621 377 L 616 382 L 613 382 L 606 374 L 603 374 L 602 375 L 603 379 L 605 382 L 606 387 L 605 388 L 605 390 L 601 394 L 599 394 L 598 395 L 591 395 L 590 394 L 587 394 L 583 392 L 577 386 L 576 386 L 574 384 L 572 384 L 571 386 L 573 390 L 573 394 L 570 397 L 566 397 L 565 396 L 563 396 L 558 393 L 555 390 L 551 383 L 550 373 L 548 371 L 537 367 L 522 356 L 519 356 L 519 361 L 518 362 L 515 362 L 511 359 L 508 358 L 506 356 L 491 349 L 488 349 L 487 350 L 492 356 L 490 358 L 486 358 L 482 356 L 479 356 L 478 355 L 473 355 L 472 354 L 469 354 L 468 353 L 463 353 L 462 352 L 459 352 L 458 351 L 446 350 L 446 354 L 453 358 L 456 358 L 457 359 L 459 359 L 460 360 L 464 360 L 465 361 L 470 361 L 471 362 L 478 362 L 482 365 L 482 367 L 485 373 L 489 378 L 489 381 L 487 383 L 486 383 L 485 385 L 494 394 L 494 395 L 499 401 L 499 403 L 497 405 L 492 405 L 490 404 L 489 406 L 492 409 L 492 410 L 498 418 L 505 431 L 505 433 L 502 436 L 498 434 L 496 435 L 496 437 L 497 438 L 497 440 L 498 441 L 498 443 L 499 444 L 499 446 L 502 453 L 502 456 L 503 457 L 503 463 L 501 465 L 494 463 L 494 480 L 493 481 L 493 484 L 491 488 L 491 491 L 486 501 L 486 503 L 484 505 L 481 512 L 476 518 L 474 523 L 476 526 L 480 526 L 486 519 L 490 512 L 492 510 L 493 510 L 495 512 L 502 525 L 504 527 L 509 529 L 511 531 L 510 533 L 511 534 L 519 534 L 522 537 L 519 540 L 520 542 L 526 542 L 527 543 L 536 543 L 537 544 L 540 544 L 546 541 L 554 541 L 560 544 L 565 549 L 570 559 L 570 562 L 572 566 L 573 577 L 576 584 L 576 609 L 575 610 L 575 618 L 570 624 L 568 624 L 561 619 L 559 620 L 559 625 L 568 633 L 568 635 L 567 637 L 562 641 L 555 641 L 552 638 L 546 635 L 545 636 L 545 639 L 548 643 L 549 646 L 548 647 L 542 647 L 541 646 L 539 646 L 530 639 L 530 638 L 526 634 L 523 628 L 523 623 L 526 620 L 526 616 L 525 615 L 523 615 L 517 618 L 514 618 L 513 619 L 510 619 L 509 620 L 506 620 L 505 621 L 502 621 L 501 622 L 497 622 L 496 623 L 482 623 L 481 622 L 472 622 L 464 618 L 462 618 L 461 619 L 461 621 L 462 622 L 462 626 L 460 627 L 453 623 L 443 613 L 441 613 L 439 615 L 438 615 L 433 611 L 432 611 L 417 597 L 416 597 L 410 591 L 409 591 L 396 578 L 396 576 L 397 575 L 404 573 L 408 570 L 406 566 L 402 566 L 401 567 L 398 567 L 394 569 L 381 570 L 380 571 L 365 571 L 364 570 L 357 570 L 356 569 L 352 569 L 351 568 L 346 568 L 345 567 L 338 566 L 337 565 L 332 564 L 329 562 L 326 562 L 319 558 L 317 558 L 312 555 L 308 554 L 306 556 L 307 559 L 313 564 L 313 565 L 311 567 L 309 567 L 304 570 L 301 570 L 300 571 L 297 571 L 294 569 L 291 569 L 285 572 L 283 574 L 278 576 L 274 579 L 273 579 L 270 575 L 268 575 L 262 581 L 259 586 L 254 591 L 253 591 L 251 589 L 251 588 L 249 587 L 247 589 L 243 596 L 238 601 L 236 601 L 233 598 L 232 598 L 227 605 L 224 611 L 219 616 L 217 616 L 214 613 L 213 613 L 205 623 L 203 627 L 194 636 L 188 639 L 185 639 L 184 640 L 179 640 L 177 638 L 177 637 L 179 635 L 179 633 L 180 632 L 180 626 L 175 616 L 171 612 L 171 611 L 167 607 L 167 606 L 163 602 L 163 601 L 157 595 L 157 594 L 149 586 L 148 586 L 145 583 L 142 582 L 137 578 L 135 578 L 131 576 L 123 576 L 119 578 L 113 585 L 112 585 L 110 583 L 104 569 L 104 561 L 105 560 L 105 556 L 107 552 L 113 545 L 114 545 L 116 543 L 118 543 L 123 540 L 126 540 L 127 539 L 135 539 L 136 540 L 140 540 L 141 541 L 143 541 L 149 544 L 161 553 L 164 554 L 165 553 L 165 551 L 162 548 L 162 547 L 155 541 L 155 539 L 163 529 L 167 522 L 175 514 L 175 513 L 183 506 L 183 503 L 179 503 L 177 501 L 177 500 L 181 496 L 189 492 L 202 490 L 203 489 L 198 485 L 198 483 L 200 481 L 204 480 L 205 479 L 209 479 L 210 478 L 216 479 L 222 475 L 230 475 L 231 474 L 247 475 L 248 474 L 248 472 L 245 469 L 240 469 L 239 468 L 227 468 L 224 465 L 224 462 L 220 458 L 219 455 L 221 451 L 222 445 L 228 433 L 226 432 L 222 435 L 220 435 L 218 433 L 218 429 L 221 423 L 228 415 L 233 407 L 232 406 L 225 407 L 223 405 L 223 402 L 225 400 L 225 399 L 238 386 L 238 384 L 233 384 L 231 382 L 231 381 L 235 374 L 241 368 L 242 358 L 244 355 L 244 352 L 243 350 L 244 349 L 245 344 L 247 342 L 247 340 L 248 339 L 246 337 L 244 337 L 240 341 L 238 345 L 238 347 L 236 350 L 236 353 L 234 355 L 230 355 L 227 353 L 223 353 L 222 352 L 220 352 L 217 350 L 218 345 L 214 345 L 213 344 L 208 344 L 207 343 L 203 343 L 202 342 L 200 342 L 196 338 L 201 334 L 200 333 L 197 333 L 196 332 L 185 330 L 182 328 L 180 328 L 174 325 L 171 322 L 171 320 L 172 319 L 176 318 L 177 317 L 176 315 L 172 313 L 164 311 L 154 306 L 146 299 L 146 298 L 148 296 L 154 297 L 155 295 L 150 291 L 146 289 L 139 283 L 138 283 L 126 271 L 126 270 L 120 264 L 118 260 L 115 257 L 111 249 L 109 247 L 109 245 L 107 243 L 107 240 L 105 237 L 105 235 L 104 234 L 102 227 L 97 222 L 91 219 L 79 208 L 78 208 L 65 192 L 64 188 L 63 187 L 63 182 L 64 180 L 69 175 L 74 175 L 76 173 L 73 169 L 69 161 L 69 152 L 73 147 L 77 145 L 80 145 L 87 148 L 94 155 L 95 155 L 95 153 L 89 143 L 89 140 L 88 139 L 88 131 L 89 129 L 95 123 L 97 122 L 104 124 L 112 132 L 115 138 L 117 140 L 118 144 L 120 144 L 120 126 L 122 122 L 126 118 L 130 118 L 134 120 L 137 123 L 142 132 L 142 134 L 145 141 L 145 144 L 146 145 L 148 144 L 150 140 L 155 135 L 157 134 L 162 134 L 164 135 L 170 143 L 170 145 L 171 146 L 171 161 L 170 162 L 170 169 L 169 170 L 167 178 L 173 184 L 173 185 L 178 190 L 178 191 L 183 196 L 183 197 L 188 202 L 188 203 L 194 210 L 195 210 L 198 206 L 200 206 L 202 208 L 207 218 L 209 220 L 211 225 L 215 230 L 217 230 L 217 226 L 220 223 L 221 223 L 226 228 L 230 236 L 230 238 L 232 241 L 233 241 L 236 238 L 238 238 L 241 241 L 245 249 L 247 251 L 248 251 L 249 250 L 249 248 L 251 246 L 252 246 L 259 253 L 266 265 L 268 267 L 270 267 L 271 266 L 271 260 L 265 250 L 257 241 L 253 240 L 248 234 L 244 235 L 240 231 L 237 224 L 237 213 L 234 213 L 232 214 L 229 211 L 229 202 L 231 198 L 231 194 L 228 194 L 225 191 L 225 185 L 227 181 L 229 179 L 230 175 L 231 174 L 230 173 L 224 174 L 222 172 L 222 168 L 234 155 L 234 153 L 233 152 L 233 145 L 239 134 L 239 132 L 242 127 L 242 125 L 232 120 L 226 114 L 222 105 L 222 91 L 228 79 L 234 73 L 235 73 L 240 69 L 242 69 L 248 66 L 252 66 L 253 65 L 257 65 L 258 66 L 265 68 L 267 70 L 271 72 L 276 79 L 278 79 L 288 72 L 301 67 L 302 66 L 302 64 L 306 61 L 322 61 L 323 60 L 323 57 L 321 55 L 321 51 L 323 49 L 326 49 L 329 51 L 331 51 L 341 57 L 349 49 L 350 49 L 352 47 L 356 47 L 358 49 L 358 52 L 356 55 L 357 57 L 362 57 L 363 56 L 375 56 L 376 57 L 382 57 L 383 58 L 391 59 L 392 60 L 395 60 L 399 62 L 402 62 L 406 53 L 415 45 L 417 45 L 420 43 L 426 42 L 427 41 L 436 41 L 437 42 Z" fill="#010101" fill-rule="evenodd"/></svg>