<svg xmlns="http://www.w3.org/2000/svg" viewBox="0 0 653 704" shape-rendering="geometricPrecision"><title>intro frame 082</title><path d="M 221 523 L 218 532 L 214 541 L 219 540 L 221 542 L 221 545 L 219 548 L 219 551 L 215 563 L 215 569 L 220 568 L 222 570 L 220 583 L 224 587 L 225 598 L 226 599 L 226 602 L 227 603 L 227 606 L 230 615 L 233 621 L 236 624 L 246 624 L 250 626 L 253 626 L 255 627 L 259 632 L 257 634 L 252 634 L 251 633 L 241 632 L 240 631 L 227 631 L 226 632 L 217 633 L 210 636 L 205 641 L 202 647 L 202 650 L 201 651 L 201 660 L 202 663 L 204 665 L 205 664 L 205 660 L 208 651 L 213 646 L 218 645 L 221 648 L 221 651 L 218 658 L 218 668 L 219 669 L 229 671 L 230 670 L 230 660 L 232 655 L 237 650 L 242 650 L 245 653 L 244 659 L 242 663 L 242 672 L 243 673 L 266 673 L 267 672 L 272 672 L 277 667 L 279 667 L 287 662 L 294 655 L 295 652 L 294 647 L 287 641 L 287 634 L 290 633 L 292 630 L 292 627 L 289 621 L 290 614 L 288 610 L 277 599 L 275 595 L 276 592 L 280 592 L 282 594 L 284 594 L 283 591 L 287 588 L 285 584 L 274 575 L 265 566 L 259 558 L 256 556 L 253 556 L 252 555 L 251 551 L 248 546 L 242 543 L 230 532 L 230 531 Z M 250 586 L 253 588 L 253 590 L 251 592 L 248 590 L 248 588 Z M 259 578 L 262 581 L 266 588 L 267 592 L 265 594 L 264 594 L 258 587 L 257 580 Z M 272 576 L 273 576 L 275 579 L 275 589 L 274 590 L 272 590 L 269 586 L 269 581 L 270 578 Z M 240 572 L 242 575 L 240 578 L 237 580 L 235 578 L 235 576 Z M 448 506 L 439 514 L 435 515 L 428 521 L 424 521 L 422 525 L 417 530 L 415 530 L 407 539 L 402 539 L 398 543 L 396 547 L 392 551 L 392 553 L 388 559 L 387 565 L 385 567 L 381 576 L 379 589 L 383 591 L 386 594 L 387 608 L 392 612 L 392 615 L 393 616 L 393 627 L 394 628 L 397 628 L 400 631 L 401 634 L 401 638 L 402 639 L 402 649 L 401 650 L 401 656 L 400 657 L 401 668 L 407 675 L 413 678 L 416 678 L 421 680 L 425 680 L 426 681 L 435 681 L 435 665 L 436 662 L 439 659 L 444 659 L 448 664 L 448 672 L 449 673 L 448 681 L 449 682 L 465 682 L 468 680 L 468 676 L 467 675 L 467 660 L 469 658 L 475 658 L 478 661 L 481 668 L 481 679 L 482 680 L 487 680 L 488 679 L 492 679 L 494 677 L 495 670 L 493 665 L 493 657 L 495 655 L 499 655 L 501 656 L 505 661 L 507 666 L 507 674 L 509 675 L 513 672 L 515 666 L 514 654 L 511 648 L 508 645 L 498 640 L 496 638 L 488 637 L 486 639 L 455 639 L 454 640 L 448 640 L 447 641 L 441 639 L 438 639 L 437 638 L 438 636 L 441 636 L 448 633 L 452 633 L 458 631 L 469 631 L 470 630 L 478 631 L 479 630 L 479 627 L 478 626 L 477 619 L 475 616 L 475 609 L 476 607 L 480 604 L 479 596 L 480 595 L 484 596 L 484 592 L 478 587 L 473 586 L 467 583 L 458 577 L 454 573 L 456 571 L 461 571 L 464 573 L 467 573 L 476 577 L 478 577 L 479 574 L 477 571 L 462 557 L 464 555 L 467 555 L 475 560 L 478 561 L 479 559 L 476 553 L 472 548 L 464 545 L 460 541 L 463 539 L 464 540 L 472 540 L 472 538 L 466 532 L 466 531 L 468 529 L 472 531 L 474 530 L 463 519 L 460 513 L 453 506 Z M 435 578 L 436 578 L 443 585 L 447 592 L 446 594 L 443 594 L 439 591 L 433 584 L 433 580 Z M 425 576 L 427 578 L 427 586 L 423 590 L 420 587 L 420 585 L 421 584 L 422 578 Z M 397 561 L 399 564 L 398 567 L 395 569 L 394 568 L 394 563 Z M 75 394 L 76 397 L 78 399 L 81 400 L 83 399 L 83 396 L 81 394 L 79 395 Z M 241 263 L 239 261 L 229 263 L 226 266 L 226 268 L 221 273 L 218 275 L 216 275 L 214 277 L 211 277 L 205 280 L 203 282 L 205 286 L 200 291 L 194 293 L 192 295 L 189 295 L 185 301 L 175 311 L 168 313 L 164 316 L 163 322 L 159 326 L 150 330 L 139 342 L 133 347 L 127 349 L 107 366 L 100 370 L 94 371 L 91 373 L 90 372 L 87 373 L 75 373 L 66 377 L 66 379 L 70 377 L 78 377 L 81 375 L 90 375 L 92 377 L 92 383 L 87 391 L 88 393 L 89 392 L 92 392 L 98 388 L 104 388 L 113 392 L 122 401 L 138 420 L 142 423 L 144 422 L 148 422 L 149 421 L 148 419 L 148 415 L 154 409 L 159 408 L 169 395 L 171 395 L 173 393 L 176 392 L 181 387 L 183 387 L 189 383 L 195 382 L 197 380 L 198 375 L 200 373 L 201 369 L 205 363 L 206 360 L 205 355 L 210 348 L 213 335 L 215 332 L 215 330 L 218 326 L 218 321 L 220 315 L 224 311 L 224 307 L 229 299 L 229 297 L 231 295 L 230 293 L 230 289 L 236 282 L 236 278 L 238 275 L 238 273 L 240 271 L 240 265 Z M 423 23 L 411 23 L 410 24 L 404 25 L 402 27 L 399 28 L 392 35 L 390 38 L 389 42 L 387 44 L 380 43 L 372 39 L 359 37 L 358 36 L 338 37 L 336 35 L 336 32 L 338 29 L 337 27 L 334 28 L 327 35 L 322 35 L 315 30 L 310 29 L 309 30 L 310 32 L 310 37 L 306 40 L 289 40 L 285 44 L 273 47 L 265 51 L 258 56 L 253 52 L 251 47 L 245 42 L 238 39 L 229 39 L 228 40 L 222 41 L 212 47 L 206 54 L 203 63 L 203 76 L 206 83 L 211 89 L 215 92 L 219 93 L 222 96 L 222 99 L 211 122 L 212 131 L 200 142 L 201 144 L 205 143 L 208 145 L 210 145 L 213 138 L 217 133 L 225 129 L 229 129 L 230 128 L 237 129 L 239 130 L 242 134 L 247 134 L 248 135 L 249 134 L 250 128 L 252 126 L 248 121 L 248 110 L 250 107 L 250 105 L 256 98 L 263 98 L 266 101 L 268 106 L 268 113 L 265 120 L 275 119 L 276 118 L 290 120 L 298 124 L 304 130 L 305 132 L 305 137 L 302 142 L 294 150 L 291 152 L 282 155 L 278 155 L 277 156 L 272 156 L 271 155 L 267 155 L 259 151 L 251 142 L 249 143 L 249 156 L 255 163 L 260 165 L 266 165 L 275 160 L 279 160 L 286 163 L 290 163 L 295 165 L 311 165 L 328 159 L 334 154 L 336 150 L 340 146 L 343 147 L 347 151 L 350 158 L 350 182 L 349 183 L 349 188 L 348 189 L 346 199 L 340 212 L 338 214 L 337 217 L 327 227 L 324 228 L 321 231 L 317 233 L 311 234 L 310 235 L 300 235 L 289 230 L 282 224 L 267 204 L 259 187 L 257 176 L 255 174 L 250 172 L 240 161 L 238 157 L 238 148 L 237 146 L 231 152 L 223 156 L 216 155 L 211 149 L 209 148 L 208 151 L 205 154 L 201 161 L 202 163 L 206 162 L 208 164 L 208 168 L 205 176 L 205 184 L 206 185 L 210 183 L 213 186 L 212 189 L 212 197 L 211 198 L 211 202 L 213 208 L 215 209 L 218 205 L 220 205 L 222 207 L 223 215 L 225 220 L 230 219 L 237 227 L 242 229 L 245 232 L 250 234 L 260 241 L 268 250 L 268 254 L 267 255 L 264 255 L 258 251 L 254 251 L 253 252 L 254 261 L 244 269 L 244 271 L 246 274 L 241 280 L 236 290 L 236 293 L 238 295 L 238 297 L 231 305 L 231 306 L 235 309 L 235 312 L 233 315 L 230 324 L 230 327 L 227 333 L 226 339 L 228 339 L 236 332 L 238 332 L 240 334 L 240 336 L 238 338 L 237 342 L 233 346 L 232 349 L 220 362 L 215 370 L 215 372 L 217 372 L 219 374 L 219 378 L 207 396 L 207 397 L 212 396 L 214 398 L 214 401 L 202 424 L 202 426 L 207 426 L 209 428 L 209 432 L 205 443 L 203 455 L 204 456 L 207 452 L 210 456 L 209 458 L 209 472 L 208 475 L 209 476 L 212 475 L 214 477 L 216 488 L 227 502 L 231 501 L 234 504 L 234 506 L 238 514 L 240 514 L 243 512 L 247 516 L 251 524 L 253 526 L 257 526 L 263 531 L 266 529 L 268 530 L 281 541 L 285 538 L 285 536 L 278 527 L 274 519 L 273 512 L 272 511 L 273 509 L 275 509 L 277 511 L 280 517 L 289 528 L 299 537 L 304 540 L 306 540 L 310 534 L 312 534 L 316 538 L 319 537 L 324 531 L 326 527 L 331 523 L 334 526 L 332 532 L 332 535 L 330 538 L 332 542 L 344 533 L 350 527 L 352 527 L 354 529 L 351 541 L 353 542 L 357 540 L 362 535 L 369 521 L 373 517 L 376 519 L 376 523 L 377 522 L 378 514 L 381 510 L 385 513 L 386 516 L 386 528 L 385 530 L 387 531 L 391 527 L 392 524 L 394 522 L 397 516 L 398 510 L 400 507 L 400 504 L 403 501 L 405 501 L 408 504 L 407 518 L 414 508 L 418 496 L 418 488 L 413 490 L 412 496 L 410 498 L 408 497 L 408 490 L 409 489 L 408 477 L 407 474 L 403 470 L 404 468 L 407 468 L 410 471 L 413 470 L 412 460 L 410 454 L 410 452 L 412 450 L 414 450 L 416 452 L 428 473 L 427 477 L 421 483 L 421 487 L 424 493 L 423 500 L 426 501 L 426 499 L 428 497 L 431 488 L 432 479 L 436 475 L 436 473 L 440 471 L 440 454 L 441 453 L 440 439 L 443 436 L 443 431 L 438 424 L 437 419 L 434 417 L 427 409 L 429 407 L 432 407 L 437 411 L 440 411 L 441 408 L 438 403 L 432 400 L 421 399 L 417 394 L 419 391 L 437 393 L 435 388 L 426 376 L 425 373 L 426 369 L 415 357 L 417 354 L 423 357 L 425 356 L 425 352 L 421 347 L 420 340 L 413 331 L 413 329 L 417 326 L 416 321 L 418 319 L 423 323 L 431 335 L 435 339 L 436 342 L 439 345 L 443 352 L 448 358 L 452 361 L 454 367 L 454 370 L 458 379 L 458 382 L 460 386 L 460 389 L 462 393 L 462 397 L 464 402 L 467 423 L 470 429 L 470 435 L 464 450 L 464 465 L 467 469 L 474 469 L 476 467 L 478 461 L 483 456 L 486 456 L 489 459 L 489 473 L 488 474 L 488 479 L 489 480 L 488 481 L 491 484 L 487 487 L 489 489 L 496 490 L 504 481 L 505 477 L 511 472 L 513 472 L 517 476 L 517 480 L 515 483 L 515 486 L 512 492 L 513 494 L 518 494 L 522 491 L 523 488 L 527 484 L 527 480 L 534 471 L 539 470 L 541 472 L 544 479 L 550 474 L 552 468 L 553 460 L 554 459 L 554 454 L 555 453 L 555 438 L 554 437 L 554 433 L 552 428 L 552 424 L 556 421 L 555 420 L 553 410 L 551 407 L 551 403 L 549 401 L 548 397 L 545 392 L 545 389 L 547 387 L 549 388 L 550 387 L 548 385 L 546 379 L 543 376 L 542 372 L 539 369 L 537 364 L 538 362 L 542 362 L 542 360 L 536 351 L 530 345 L 524 337 L 526 334 L 533 335 L 533 333 L 519 320 L 514 317 L 506 309 L 507 306 L 510 306 L 511 307 L 516 307 L 516 306 L 509 300 L 490 288 L 490 286 L 492 284 L 496 284 L 495 282 L 480 275 L 477 272 L 477 270 L 479 268 L 485 268 L 485 267 L 477 261 L 459 253 L 456 249 L 458 247 L 462 246 L 462 245 L 441 238 L 434 238 L 433 237 L 431 238 L 426 238 L 423 240 L 420 240 L 412 245 L 409 245 L 401 251 L 398 251 L 394 249 L 391 252 L 389 252 L 385 256 L 383 256 L 381 253 L 381 246 L 383 243 L 385 236 L 389 233 L 392 236 L 393 239 L 395 236 L 397 228 L 399 227 L 401 230 L 403 230 L 405 228 L 406 219 L 408 217 L 411 220 L 413 220 L 413 213 L 417 208 L 421 208 L 422 207 L 421 204 L 415 198 L 415 197 L 418 195 L 421 196 L 423 198 L 428 199 L 428 195 L 425 189 L 427 187 L 430 187 L 432 189 L 435 188 L 435 183 L 431 178 L 432 177 L 435 177 L 436 176 L 436 173 L 429 164 L 432 162 L 437 164 L 441 167 L 447 167 L 450 166 L 452 168 L 452 173 L 451 174 L 456 177 L 457 176 L 457 173 L 456 170 L 454 168 L 452 157 L 454 155 L 459 155 L 460 156 L 461 155 L 457 148 L 448 138 L 448 135 L 450 133 L 456 133 L 457 131 L 446 122 L 445 120 L 446 111 L 442 104 L 440 98 L 437 94 L 437 92 L 431 84 L 431 80 L 439 75 L 445 69 L 448 64 L 448 61 L 449 60 L 449 47 L 445 39 L 434 28 L 431 27 L 429 25 Z M 269 518 L 273 524 L 272 526 L 271 526 L 267 521 Z M 252 495 L 262 511 L 264 517 L 264 523 L 263 524 L 257 520 L 251 507 L 250 497 Z M 390 486 L 393 488 L 393 491 L 394 492 L 394 496 L 395 497 L 395 502 L 394 503 L 391 501 L 390 498 L 391 495 L 391 491 L 389 489 Z M 251 468 L 253 470 L 253 478 L 252 479 L 252 484 L 250 486 L 248 484 L 248 476 L 249 475 L 249 470 Z M 237 447 L 239 449 L 239 455 L 238 456 L 235 470 L 232 474 L 230 472 L 229 469 L 230 458 L 232 455 L 233 451 Z M 236 423 L 237 426 L 235 428 L 230 438 L 226 442 L 223 439 L 223 436 L 227 428 L 232 423 Z M 384 421 L 386 419 L 391 420 L 393 422 L 395 421 L 403 421 L 405 424 L 403 426 L 400 427 L 401 429 L 399 431 L 393 431 L 387 427 Z M 399 399 L 401 398 L 406 401 L 409 401 L 412 403 L 416 404 L 423 410 L 423 414 L 422 415 L 414 414 L 414 418 L 416 421 L 415 422 L 411 422 L 407 418 L 405 409 L 399 402 Z M 392 390 L 393 389 L 399 389 L 401 392 L 399 394 L 395 394 Z M 366 392 L 370 389 L 372 391 L 371 394 L 368 394 Z M 354 371 L 356 369 L 361 370 L 363 372 L 376 378 L 378 380 L 379 383 L 377 385 L 375 385 L 366 378 L 359 376 L 355 373 Z M 406 365 L 413 365 L 418 369 L 418 373 L 414 378 L 414 381 L 413 382 L 414 387 L 413 388 L 408 388 L 403 382 L 406 379 L 409 378 L 408 373 L 404 369 L 404 367 Z M 378 366 L 380 364 L 387 365 L 390 368 L 390 371 L 387 374 L 380 375 L 378 373 Z M 347 364 L 348 367 L 343 373 L 341 371 L 341 369 L 345 364 Z M 317 358 L 320 361 L 318 364 L 315 363 L 315 360 Z M 503 344 L 504 343 L 507 345 L 510 345 L 512 348 L 511 349 L 507 349 L 503 346 Z M 398 340 L 400 338 L 403 338 L 414 342 L 416 345 L 415 346 L 406 346 L 405 345 L 402 345 L 398 342 Z M 338 312 L 344 309 L 354 314 L 356 312 L 356 310 L 358 309 L 359 310 L 359 317 L 357 319 L 355 319 L 354 318 L 350 318 L 344 315 L 340 318 L 338 316 Z M 292 308 L 294 310 L 290 314 L 288 314 L 287 312 Z M 395 307 L 399 311 L 402 317 L 402 321 L 405 327 L 403 329 L 400 327 L 394 325 L 391 325 L 385 321 L 387 319 L 390 319 L 394 321 L 398 321 L 398 319 L 393 310 Z M 284 294 L 286 297 L 280 305 L 276 309 L 274 309 L 273 307 L 278 301 L 279 298 Z M 397 293 L 398 293 L 402 298 L 402 300 L 400 302 L 399 302 L 395 297 L 395 295 Z M 349 288 L 352 292 L 353 298 L 357 305 L 356 306 L 354 306 L 346 296 L 346 291 Z M 385 286 L 386 287 L 387 298 L 388 301 L 391 304 L 391 306 L 383 315 L 379 316 L 376 315 L 374 312 L 378 308 L 383 307 L 385 304 L 385 299 L 380 294 L 383 290 L 383 287 Z M 382 257 L 384 259 L 379 263 L 377 261 Z M 364 246 L 364 250 L 362 253 L 346 268 L 343 269 L 332 278 L 325 279 L 322 281 L 315 281 L 312 280 L 298 272 L 286 261 L 281 254 L 284 250 L 292 250 L 293 251 L 304 252 L 305 253 L 317 253 L 318 252 L 326 252 L 327 251 L 332 251 L 333 250 L 342 249 L 343 248 L 346 248 L 347 247 L 350 247 L 359 244 L 362 244 Z M 379 241 L 381 244 L 376 250 L 374 254 L 374 257 L 372 259 L 370 259 L 368 256 L 369 250 L 378 241 Z M 354 131 L 357 127 L 364 123 L 371 122 L 372 121 L 380 121 L 381 122 L 385 122 L 386 123 L 392 124 L 400 129 L 404 135 L 405 141 L 403 146 L 400 149 L 394 152 L 390 152 L 389 153 L 376 152 L 370 150 L 365 147 L 363 147 L 358 143 L 354 137 Z M 276 111 L 279 108 L 288 105 L 300 105 L 307 108 L 311 112 L 311 115 L 310 116 L 304 116 L 297 113 L 286 113 L 285 114 L 278 115 L 276 113 Z M 341 96 L 347 96 L 352 100 L 356 109 L 355 119 L 349 127 L 346 127 L 345 128 L 339 127 L 336 124 L 333 118 L 333 107 L 336 100 Z M 276 62 L 277 66 L 274 70 L 270 71 L 258 78 L 255 78 L 252 75 L 252 71 L 254 67 L 264 59 L 270 58 L 273 59 Z M 235 53 L 240 56 L 244 60 L 245 65 L 234 79 L 227 86 L 223 86 L 217 80 L 214 74 L 214 69 L 216 63 L 223 55 L 227 53 Z M 338 58 L 340 55 L 344 52 L 354 52 L 360 55 L 364 59 L 366 65 L 362 70 L 358 71 L 350 66 L 347 66 L 341 64 L 338 61 Z M 415 37 L 421 36 L 427 39 L 434 46 L 437 52 L 437 62 L 434 67 L 427 73 L 423 73 L 421 72 L 401 53 L 402 48 L 408 41 Z" fill="#FBFBFB" fill-rule="evenodd"/><path d="M 200 652 L 200 661 L 202 665 L 206 667 L 206 661 L 207 660 L 207 656 L 209 651 L 213 647 L 218 646 L 220 648 L 220 651 L 217 658 L 216 668 L 218 670 L 224 672 L 230 672 L 231 671 L 231 668 L 231 670 L 229 672 L 221 671 L 217 668 L 217 658 L 220 651 L 220 648 L 218 646 L 213 647 L 209 651 L 206 660 L 206 664 L 204 666 L 201 663 L 200 660 Z M 215 614 L 216 618 L 213 621 L 211 621 L 205 624 L 195 632 L 191 638 L 191 640 L 188 646 L 188 649 L 187 650 L 187 662 L 190 669 L 198 676 L 191 670 L 188 665 L 188 662 L 187 661 L 187 650 L 188 649 L 188 646 L 193 635 L 202 626 L 216 619 Z M 250 587 L 249 590 L 251 591 L 252 588 Z M 434 580 L 434 584 L 437 588 L 443 593 L 446 593 L 442 585 L 436 579 Z M 259 579 L 258 580 L 259 587 L 260 589 L 265 593 L 266 592 L 265 588 Z M 425 577 L 423 578 L 422 584 L 421 585 L 421 587 L 423 589 L 426 586 L 426 578 Z M 347 577 L 346 578 L 347 577 L 357 577 L 360 580 L 362 586 L 362 589 L 368 602 L 368 604 L 375 612 L 376 621 L 378 625 L 379 631 L 384 640 L 388 644 L 388 651 L 388 644 L 382 637 L 379 631 L 379 628 L 376 620 L 375 612 L 373 608 L 368 603 L 368 601 L 364 594 L 364 592 L 362 589 L 360 578 L 359 577 Z M 272 577 L 270 581 L 270 586 L 272 589 L 274 589 L 274 579 L 273 577 Z M 240 573 L 236 576 L 237 579 L 238 579 L 241 575 Z M 397 562 L 395 563 L 395 568 L 397 567 L 398 564 Z M 252 496 L 251 497 L 251 502 L 252 503 L 252 507 L 254 510 L 254 512 L 258 520 L 263 523 L 263 517 L 261 511 L 259 509 Z M 254 503 L 256 504 L 262 515 L 261 518 L 257 515 L 253 507 L 253 504 Z M 390 487 L 390 489 L 392 491 L 391 498 L 392 501 L 394 502 L 394 497 L 393 496 L 392 488 Z M 251 469 L 250 470 L 250 475 L 249 476 L 249 484 L 250 485 L 251 484 L 251 479 L 252 478 L 252 470 Z M 83 449 L 75 457 L 76 460 L 80 458 L 80 453 Z M 237 448 L 234 451 L 233 455 L 231 458 L 230 469 L 232 473 L 234 470 L 237 456 L 238 455 L 238 449 Z M 67 443 L 65 443 L 59 446 L 57 448 L 57 450 L 60 451 L 67 444 Z M 569 435 L 569 441 L 570 442 L 569 460 L 568 461 L 568 465 L 566 469 L 565 475 L 561 482 L 547 497 L 528 506 L 522 508 L 519 508 L 522 508 L 544 499 L 546 497 L 549 496 L 561 483 L 566 474 L 566 471 L 569 462 L 569 455 L 570 454 Z M 61 431 L 57 433 L 57 436 L 61 433 Z M 236 424 L 232 424 L 228 428 L 224 436 L 224 439 L 226 441 L 232 433 L 234 428 L 236 426 Z M 193 441 L 193 444 L 193 441 L 189 436 L 189 424 L 186 424 L 180 427 L 175 431 L 169 433 L 167 435 L 155 439 L 146 444 L 135 457 L 133 461 L 118 476 L 113 479 L 107 480 L 106 481 L 102 481 L 101 480 L 95 479 L 87 474 L 85 475 L 79 475 L 78 476 L 68 475 L 63 472 L 54 461 L 60 469 L 64 473 L 68 475 L 71 475 L 72 476 L 87 475 L 101 481 L 106 481 L 117 477 L 132 463 L 136 457 L 141 452 L 142 449 L 147 444 L 154 441 L 156 439 L 161 438 L 171 433 L 173 433 L 183 426 L 187 426 L 189 428 L 189 436 Z M 385 421 L 388 427 L 393 430 L 399 430 L 400 429 L 399 427 L 401 425 L 404 424 L 403 422 L 395 422 L 393 423 L 391 421 L 388 421 L 387 420 Z M 50 415 L 51 417 L 54 417 L 56 415 L 62 413 L 65 415 L 74 418 L 77 421 L 77 423 L 79 424 L 83 429 L 83 432 L 89 437 L 89 439 L 93 439 L 99 443 L 102 443 L 103 442 L 90 428 L 87 427 L 84 424 L 82 414 L 81 413 L 74 413 L 70 410 L 70 407 L 69 406 L 67 406 L 60 410 L 56 414 L 51 414 Z M 400 399 L 400 402 L 406 409 L 408 418 L 411 421 L 415 421 L 413 418 L 413 414 L 414 413 L 422 414 L 422 410 L 416 405 L 412 404 L 409 402 L 406 402 Z M 393 390 L 395 393 L 399 393 L 400 392 L 399 390 Z M 355 371 L 355 372 L 359 375 L 366 377 L 375 384 L 378 383 L 377 380 L 373 377 L 371 377 L 363 373 L 361 371 L 358 370 Z M 406 366 L 405 369 L 409 373 L 410 378 L 404 382 L 408 387 L 413 387 L 412 382 L 413 381 L 413 378 L 417 373 L 417 369 L 413 366 Z M 379 366 L 379 373 L 380 374 L 384 374 L 387 373 L 389 371 L 389 368 L 387 366 L 384 366 L 383 365 L 380 365 Z M 347 365 L 345 365 L 345 366 L 343 367 L 342 369 L 343 372 L 346 369 Z M 64 362 L 57 365 L 55 367 L 51 376 L 49 389 L 47 391 L 47 393 L 37 404 L 35 408 L 34 416 L 39 428 L 35 420 L 35 416 L 34 415 L 35 408 L 38 403 L 44 398 L 50 388 L 51 376 L 54 369 L 59 364 Z M 504 344 L 504 346 L 507 348 L 511 348 L 510 346 L 507 346 Z M 399 340 L 399 342 L 402 344 L 405 344 L 406 345 L 415 345 L 414 343 L 410 341 L 407 341 L 403 339 L 400 339 Z M 167 313 L 164 314 L 160 318 L 160 322 L 154 327 L 159 325 L 162 322 L 163 316 Z M 339 312 L 339 316 L 340 317 L 344 314 L 350 317 L 354 317 L 355 318 L 358 317 L 358 310 L 357 310 L 357 312 L 354 315 L 344 310 Z M 395 308 L 394 310 L 399 319 L 399 321 L 398 322 L 394 322 L 390 320 L 387 320 L 386 321 L 391 324 L 394 324 L 403 328 L 404 327 L 401 321 L 401 317 L 398 311 Z M 150 304 L 143 307 L 141 310 L 139 319 L 135 323 L 127 329 L 116 341 L 106 348 L 100 354 L 97 355 L 100 354 L 110 345 L 116 341 L 134 323 L 135 323 L 140 318 L 140 313 L 142 309 L 147 305 Z M 284 295 L 280 298 L 279 301 L 276 304 L 274 308 L 276 308 L 285 297 Z M 397 294 L 396 297 L 398 300 L 400 301 L 401 298 L 400 296 Z M 349 289 L 347 291 L 347 296 L 354 305 L 356 305 L 352 298 L 351 292 Z M 385 287 L 384 287 L 384 290 L 381 294 L 386 299 L 386 304 L 383 308 L 378 309 L 375 312 L 376 314 L 379 315 L 383 314 L 390 306 L 390 304 L 387 301 L 386 298 Z M 210 277 L 199 281 L 197 283 L 200 284 L 202 287 L 196 292 L 185 295 L 184 296 L 184 299 L 181 303 L 173 311 L 169 312 L 175 310 L 184 301 L 186 297 L 189 294 L 192 294 L 194 292 L 200 290 L 204 286 L 202 282 L 205 279 Z M 197 268 L 192 270 L 182 282 L 170 290 L 159 301 L 152 303 L 161 300 L 175 286 L 182 282 L 184 282 L 187 279 L 189 273 L 192 270 Z M 363 246 L 362 245 L 359 245 L 358 246 L 354 246 L 342 250 L 338 250 L 332 252 L 327 252 L 326 253 L 318 253 L 317 254 L 305 254 L 304 253 L 298 253 L 292 251 L 284 251 L 282 254 L 287 261 L 298 271 L 312 279 L 315 280 L 322 280 L 325 278 L 332 277 L 343 268 L 346 267 L 361 253 L 363 250 Z M 284 254 L 286 252 L 291 252 L 292 253 L 296 253 L 297 254 L 306 255 L 307 256 L 320 255 L 321 257 L 318 259 L 307 259 L 306 258 L 303 258 L 302 259 L 297 258 L 295 259 L 293 258 L 294 261 L 295 261 L 297 264 L 306 270 L 312 272 L 314 274 L 319 274 L 320 273 L 324 274 L 331 270 L 335 269 L 345 261 L 346 261 L 347 263 L 330 276 L 326 276 L 321 279 L 315 279 L 297 269 L 286 258 Z M 379 242 L 378 242 L 370 250 L 369 253 L 370 258 L 373 257 L 373 254 L 375 250 L 380 244 Z M 222 211 L 223 219 L 227 226 L 228 223 L 231 222 L 234 225 L 236 230 L 241 235 L 247 235 L 249 237 L 254 239 L 265 249 L 265 251 L 263 252 L 256 248 L 254 248 L 251 250 L 245 249 L 244 251 L 247 255 L 246 258 L 240 258 L 234 261 L 231 261 L 225 263 L 223 265 L 224 268 L 218 274 L 217 274 L 221 272 L 229 262 L 239 260 L 242 263 L 241 265 L 241 271 L 239 273 L 239 275 L 237 278 L 237 282 L 231 289 L 231 293 L 232 295 L 230 297 L 230 299 L 225 307 L 225 311 L 221 315 L 219 321 L 219 326 L 216 330 L 216 332 L 214 335 L 211 348 L 206 355 L 206 358 L 207 359 L 206 363 L 204 365 L 202 371 L 199 375 L 198 380 L 195 383 L 189 384 L 183 388 L 181 388 L 176 393 L 173 394 L 171 396 L 169 396 L 163 405 L 159 409 L 154 410 L 149 415 L 149 419 L 150 421 L 148 423 L 144 423 L 142 424 L 134 417 L 128 409 L 113 393 L 104 389 L 98 389 L 96 391 L 88 394 L 86 391 L 91 383 L 91 377 L 90 376 L 81 376 L 78 378 L 70 378 L 67 380 L 65 379 L 66 376 L 75 372 L 87 372 L 88 371 L 91 372 L 94 370 L 97 370 L 102 368 L 104 366 L 107 365 L 127 348 L 133 346 L 152 328 L 148 330 L 140 339 L 131 346 L 124 350 L 105 366 L 99 369 L 95 369 L 94 370 L 86 370 L 85 371 L 73 372 L 66 375 L 62 379 L 62 382 L 64 384 L 79 379 L 87 379 L 89 381 L 88 386 L 83 391 L 75 391 L 74 390 L 70 390 L 69 391 L 69 397 L 71 399 L 76 401 L 79 404 L 81 405 L 84 404 L 96 391 L 99 390 L 105 390 L 113 394 L 124 405 L 131 414 L 135 422 L 135 428 L 133 431 L 121 442 L 115 444 L 118 450 L 118 456 L 121 455 L 130 446 L 134 439 L 144 429 L 152 425 L 167 421 L 175 416 L 177 416 L 187 411 L 190 408 L 193 397 L 202 382 L 202 372 L 209 358 L 210 349 L 212 345 L 214 335 L 219 326 L 220 318 L 221 316 L 230 308 L 232 308 L 234 310 L 234 312 L 233 314 L 234 309 L 232 308 L 230 305 L 237 297 L 237 295 L 235 293 L 235 290 L 240 280 L 245 274 L 243 271 L 243 269 L 253 261 L 252 252 L 254 250 L 258 250 L 264 254 L 267 254 L 267 250 L 264 246 L 255 238 L 245 233 L 242 230 L 237 228 L 230 220 L 225 221 L 223 219 Z M 74 394 L 75 393 L 77 394 L 81 393 L 84 396 L 84 399 L 82 401 L 78 400 L 75 397 Z M 245 260 L 247 258 L 250 260 L 248 262 Z M 192 182 L 192 188 L 194 191 L 194 193 L 199 198 L 199 206 L 202 215 L 206 219 L 209 220 L 214 225 L 215 229 L 232 244 L 229 248 L 232 247 L 233 244 L 226 237 L 221 235 L 217 231 L 213 223 L 211 221 L 208 220 L 203 216 L 200 210 L 199 197 L 193 190 Z M 355 131 L 355 137 L 358 142 L 363 146 L 365 146 L 370 149 L 376 151 L 381 151 L 382 152 L 394 151 L 400 148 L 402 146 L 404 141 L 403 135 L 400 130 L 392 125 L 386 124 L 385 123 L 381 123 L 380 122 L 367 123 L 357 128 Z M 355 132 L 363 125 L 369 124 L 370 123 L 382 123 L 383 124 L 390 125 L 398 129 L 403 135 L 404 140 L 403 143 L 398 148 L 389 151 L 382 151 L 381 150 L 372 149 L 362 144 L 356 138 L 355 136 Z M 277 111 L 278 114 L 285 113 L 286 112 L 297 112 L 304 115 L 310 115 L 310 112 L 307 109 L 300 106 L 288 106 L 279 109 Z M 296 109 L 297 108 L 305 110 L 306 112 L 305 113 L 297 111 Z M 341 97 L 337 100 L 334 107 L 334 118 L 339 126 L 345 127 L 346 126 L 349 126 L 354 119 L 355 109 L 350 99 L 347 97 Z M 341 97 L 347 97 L 352 102 L 352 104 L 354 106 L 354 118 L 352 122 L 348 126 L 345 127 L 340 126 L 336 122 L 334 117 L 334 108 L 335 107 L 335 104 L 337 100 Z M 275 62 L 273 60 L 270 59 L 264 60 L 255 67 L 253 71 L 253 75 L 255 77 L 258 77 L 264 73 L 274 69 L 276 66 Z M 275 63 L 275 67 L 272 70 L 270 70 L 258 77 L 256 77 L 253 74 L 254 69 L 263 61 L 265 60 L 272 60 Z M 235 54 L 227 54 L 223 56 L 217 63 L 215 69 L 215 74 L 218 80 L 223 85 L 227 85 L 233 79 L 244 65 L 243 60 Z M 232 55 L 237 57 L 243 63 L 243 64 L 238 69 L 237 72 L 226 84 L 225 84 L 218 78 L 217 76 L 217 71 L 216 70 L 218 68 L 220 70 L 222 70 L 224 66 L 219 67 L 218 64 L 225 56 Z M 192 54 L 189 63 L 189 76 L 190 77 L 190 80 L 195 91 L 206 103 L 206 105 L 202 111 L 201 115 L 199 118 L 198 129 L 190 137 L 188 141 L 188 148 L 192 154 L 189 160 L 189 169 L 193 175 L 193 179 L 193 174 L 189 169 L 189 160 L 192 155 L 192 153 L 188 148 L 188 141 L 190 137 L 198 129 L 199 118 L 207 103 L 203 100 L 196 92 L 190 80 L 190 77 L 189 76 L 189 63 Z M 339 58 L 339 61 L 341 63 L 347 65 L 350 65 L 358 70 L 362 69 L 365 65 L 363 59 L 360 56 L 354 53 L 344 53 L 342 54 Z M 339 58 L 344 53 L 354 53 L 358 55 L 364 61 L 365 65 L 362 69 L 358 70 L 353 66 L 342 63 L 339 60 Z M 415 38 L 408 42 L 403 48 L 402 53 L 421 71 L 423 72 L 427 72 L 433 67 L 436 62 L 436 52 L 433 46 L 427 40 L 421 37 Z M 415 39 L 422 39 L 424 40 L 433 48 L 436 55 L 435 62 L 434 64 L 426 71 L 422 70 L 413 60 L 403 53 L 404 48 L 411 41 L 413 41 Z M 427 23 L 416 21 L 415 22 L 411 22 L 410 23 L 404 24 L 397 28 L 390 35 L 389 39 L 386 43 L 381 42 L 373 38 L 360 36 L 359 35 L 344 35 L 343 36 L 339 36 L 337 33 L 340 27 L 340 25 L 336 25 L 326 34 L 323 34 L 314 28 L 308 27 L 307 30 L 309 33 L 309 36 L 307 38 L 291 38 L 288 39 L 285 43 L 275 45 L 265 50 L 260 54 L 257 54 L 254 51 L 253 48 L 247 42 L 238 38 L 229 38 L 228 39 L 225 39 L 219 41 L 214 44 L 206 52 L 202 62 L 202 67 L 201 68 L 202 77 L 206 85 L 212 91 L 220 96 L 220 101 L 218 103 L 218 105 L 210 121 L 211 130 L 199 142 L 200 145 L 205 144 L 208 147 L 200 161 L 200 164 L 201 165 L 205 164 L 207 166 L 205 172 L 205 175 L 204 176 L 204 179 L 203 180 L 203 185 L 205 187 L 207 187 L 209 185 L 211 187 L 210 203 L 212 208 L 215 211 L 219 207 L 221 209 L 221 207 L 218 206 L 217 208 L 214 210 L 211 206 L 210 198 L 211 197 L 211 189 L 212 186 L 210 184 L 206 186 L 204 184 L 204 176 L 207 168 L 207 164 L 206 163 L 202 164 L 200 161 L 209 147 L 210 147 L 216 154 L 223 155 L 231 151 L 237 145 L 239 148 L 239 157 L 241 161 L 250 171 L 255 173 L 258 176 L 260 187 L 268 204 L 283 224 L 289 229 L 300 234 L 310 234 L 321 230 L 324 227 L 327 226 L 336 217 L 345 199 L 347 189 L 348 188 L 348 183 L 349 182 L 349 158 L 346 151 L 343 148 L 340 147 L 331 158 L 325 161 L 330 159 L 340 148 L 342 148 L 347 154 L 348 157 L 348 185 L 347 186 L 345 197 L 342 203 L 342 205 L 335 218 L 327 225 L 312 233 L 299 233 L 287 227 L 279 219 L 278 216 L 273 211 L 267 202 L 262 192 L 259 183 L 259 177 L 258 175 L 250 171 L 243 164 L 239 156 L 239 143 L 240 142 L 240 139 L 243 135 L 247 135 L 249 137 L 249 141 L 247 147 L 247 153 L 249 158 L 256 165 L 259 166 L 266 166 L 271 164 L 275 161 L 285 163 L 279 161 L 275 161 L 266 166 L 260 166 L 255 164 L 248 156 L 248 143 L 250 141 L 251 141 L 253 144 L 262 152 L 267 154 L 270 154 L 267 154 L 261 151 L 253 143 L 250 137 L 250 131 L 254 125 L 252 124 L 249 120 L 249 110 L 251 107 L 251 105 L 254 101 L 257 99 L 253 102 L 249 110 L 249 121 L 253 126 L 251 128 L 250 134 L 248 136 L 247 135 L 242 135 L 240 132 L 237 130 L 230 129 L 229 130 L 225 130 L 217 134 L 214 138 L 212 144 L 210 146 L 208 146 L 205 144 L 201 145 L 199 143 L 199 142 L 211 131 L 210 122 L 221 99 L 221 96 L 219 94 L 215 93 L 207 86 L 202 76 L 202 63 L 205 54 L 209 49 L 216 43 L 229 38 L 238 38 L 248 43 L 252 47 L 254 52 L 258 55 L 265 50 L 273 46 L 285 43 L 289 39 L 306 39 L 309 37 L 309 32 L 308 30 L 310 28 L 315 29 L 322 34 L 327 34 L 334 27 L 337 26 L 339 28 L 337 32 L 337 35 L 338 36 L 358 35 L 359 36 L 372 38 L 380 42 L 387 43 L 391 35 L 399 27 L 402 26 L 404 24 L 410 23 L 411 22 L 423 22 L 429 24 L 431 26 L 434 27 L 446 39 L 450 47 L 450 60 L 449 61 L 449 64 L 446 69 L 439 76 L 432 80 L 432 84 L 438 92 L 438 94 L 441 98 L 443 104 L 447 111 L 447 116 L 446 117 L 447 122 L 453 126 L 458 131 L 456 134 L 450 134 L 449 135 L 449 138 L 458 148 L 462 154 L 460 157 L 459 156 L 454 156 L 453 157 L 455 168 L 457 170 L 458 176 L 456 178 L 450 174 L 451 173 L 451 168 L 450 167 L 447 168 L 441 168 L 435 164 L 432 163 L 430 164 L 437 173 L 437 176 L 435 178 L 432 178 L 436 183 L 436 188 L 434 190 L 432 190 L 430 188 L 427 188 L 426 189 L 429 195 L 429 199 L 428 200 L 423 199 L 421 197 L 418 196 L 416 197 L 416 198 L 422 204 L 423 207 L 421 209 L 417 209 L 414 213 L 414 220 L 413 221 L 411 221 L 408 218 L 407 219 L 406 228 L 403 231 L 401 231 L 400 229 L 398 228 L 396 236 L 393 240 L 389 234 L 386 236 L 384 243 L 382 246 L 382 253 L 383 255 L 385 255 L 389 251 L 391 251 L 394 248 L 398 250 L 401 250 L 409 244 L 412 244 L 420 239 L 423 239 L 426 237 L 431 237 L 432 236 L 434 237 L 441 237 L 462 244 L 463 246 L 457 249 L 459 252 L 477 260 L 479 262 L 482 263 L 486 267 L 485 269 L 479 269 L 478 272 L 480 274 L 495 281 L 497 283 L 496 285 L 492 285 L 491 288 L 509 299 L 517 306 L 516 308 L 507 307 L 507 309 L 534 333 L 533 336 L 526 335 L 525 337 L 531 345 L 537 351 L 543 360 L 542 363 L 538 363 L 540 369 L 543 372 L 544 376 L 547 379 L 549 385 L 551 387 L 549 389 L 547 388 L 546 389 L 546 392 L 549 397 L 550 401 L 552 403 L 552 407 L 554 410 L 556 420 L 557 421 L 553 424 L 553 428 L 554 429 L 555 437 L 556 438 L 556 453 L 555 454 L 555 459 L 554 460 L 553 468 L 551 474 L 544 480 L 542 478 L 542 476 L 539 471 L 534 472 L 528 480 L 528 484 L 524 488 L 523 491 L 518 495 L 513 495 L 511 493 L 512 489 L 514 486 L 514 483 L 516 480 L 516 476 L 513 473 L 511 473 L 506 477 L 505 481 L 496 491 L 489 490 L 486 487 L 490 484 L 487 481 L 488 480 L 487 479 L 487 474 L 488 473 L 488 459 L 486 457 L 483 457 L 479 461 L 477 467 L 474 470 L 467 470 L 463 465 L 463 450 L 469 435 L 469 429 L 466 423 L 463 402 L 462 401 L 459 386 L 457 382 L 457 379 L 454 373 L 451 361 L 449 360 L 442 352 L 422 323 L 418 320 L 417 321 L 418 326 L 414 329 L 414 331 L 421 340 L 422 347 L 426 352 L 426 356 L 423 358 L 417 355 L 416 357 L 427 369 L 426 372 L 427 376 L 438 392 L 437 394 L 425 393 L 424 392 L 419 392 L 418 394 L 421 398 L 432 399 L 435 401 L 437 401 L 439 403 L 442 408 L 442 410 L 440 412 L 437 412 L 432 408 L 429 408 L 428 409 L 431 413 L 438 419 L 438 422 L 444 431 L 444 436 L 441 439 L 441 446 L 442 447 L 442 453 L 441 454 L 441 471 L 439 473 L 437 473 L 437 475 L 433 479 L 432 488 L 429 497 L 427 499 L 427 501 L 424 502 L 422 500 L 423 493 L 420 487 L 420 483 L 426 477 L 427 473 L 415 452 L 412 451 L 411 454 L 413 460 L 414 470 L 412 472 L 410 472 L 407 469 L 404 469 L 404 470 L 408 474 L 409 477 L 409 482 L 410 483 L 409 497 L 411 496 L 412 490 L 414 488 L 417 487 L 419 488 L 419 496 L 415 508 L 410 516 L 407 519 L 406 518 L 407 504 L 405 502 L 403 502 L 401 504 L 401 507 L 399 510 L 399 513 L 395 522 L 393 524 L 392 527 L 387 532 L 384 530 L 385 528 L 385 516 L 384 513 L 381 511 L 379 514 L 378 522 L 376 524 L 375 523 L 375 519 L 373 518 L 370 521 L 363 535 L 357 541 L 353 543 L 350 541 L 352 535 L 352 532 L 353 531 L 353 529 L 350 528 L 344 534 L 332 543 L 329 539 L 333 527 L 331 524 L 327 527 L 325 531 L 319 538 L 316 539 L 312 535 L 310 535 L 308 539 L 306 541 L 304 541 L 292 532 L 279 517 L 276 511 L 273 510 L 275 519 L 279 527 L 286 536 L 286 538 L 281 542 L 268 531 L 266 530 L 263 532 L 259 528 L 257 527 L 253 527 L 250 524 L 248 519 L 243 513 L 240 515 L 238 515 L 233 506 L 233 504 L 231 502 L 227 503 L 216 490 L 214 484 L 214 481 L 213 480 L 213 477 L 212 476 L 209 477 L 207 475 L 208 472 L 208 458 L 209 456 L 207 453 L 204 457 L 202 455 L 202 452 L 203 451 L 203 447 L 206 439 L 206 436 L 208 432 L 208 428 L 207 427 L 202 427 L 201 424 L 213 401 L 213 398 L 212 397 L 207 398 L 206 396 L 218 378 L 218 374 L 214 372 L 216 366 L 231 349 L 232 346 L 236 342 L 236 340 L 239 336 L 239 334 L 236 333 L 228 340 L 226 340 L 225 339 L 226 334 L 225 340 L 224 341 L 225 347 L 222 351 L 221 359 L 213 371 L 213 374 L 216 374 L 218 377 L 205 397 L 206 399 L 211 398 L 213 401 L 200 426 L 201 429 L 204 427 L 206 427 L 208 429 L 208 432 L 206 436 L 206 439 L 204 443 L 203 451 L 202 452 L 202 458 L 203 459 L 206 456 L 208 458 L 207 480 L 209 481 L 211 478 L 214 482 L 214 486 L 215 487 L 215 491 L 220 500 L 224 504 L 225 506 L 225 510 L 226 511 L 226 513 L 224 515 L 221 515 L 219 513 L 216 515 L 216 517 L 213 523 L 214 524 L 217 523 L 219 526 L 212 543 L 218 542 L 220 545 L 219 547 L 220 545 L 220 542 L 219 541 L 214 542 L 213 540 L 219 527 L 219 524 L 221 522 L 223 523 L 237 538 L 242 542 L 248 545 L 251 549 L 253 555 L 256 555 L 263 561 L 266 566 L 286 584 L 288 588 L 284 591 L 285 594 L 282 595 L 280 593 L 276 593 L 276 595 L 278 599 L 289 610 L 291 614 L 290 621 L 293 627 L 293 630 L 290 634 L 288 634 L 288 641 L 292 644 L 296 649 L 295 655 L 287 663 L 283 666 L 277 668 L 272 673 L 267 673 L 266 674 L 244 674 L 269 674 L 270 673 L 278 673 L 279 672 L 286 672 L 287 671 L 306 669 L 307 668 L 311 668 L 317 666 L 324 660 L 325 654 L 326 653 L 326 643 L 325 642 L 325 637 L 324 636 L 323 628 L 325 626 L 328 627 L 329 626 L 329 614 L 328 613 L 328 607 L 327 606 L 326 596 L 327 595 L 330 595 L 331 596 L 332 595 L 332 589 L 331 586 L 332 585 L 333 575 L 332 574 L 328 574 L 327 573 L 320 572 L 306 566 L 303 563 L 303 560 L 305 558 L 313 558 L 322 561 L 326 561 L 332 563 L 339 563 L 340 564 L 347 564 L 348 565 L 355 565 L 356 564 L 364 563 L 368 561 L 373 561 L 376 564 L 375 567 L 370 572 L 370 574 L 373 579 L 373 581 L 375 583 L 378 592 L 379 593 L 382 592 L 385 595 L 386 610 L 389 611 L 391 613 L 391 616 L 392 617 L 392 628 L 394 631 L 397 630 L 400 634 L 400 639 L 401 640 L 400 656 L 400 650 L 401 649 L 401 639 L 400 638 L 400 634 L 399 631 L 397 629 L 394 629 L 392 627 L 392 616 L 391 615 L 391 612 L 386 608 L 385 594 L 378 589 L 380 576 L 384 567 L 386 565 L 387 559 L 391 553 L 391 551 L 395 547 L 397 543 L 402 538 L 407 538 L 415 529 L 417 529 L 421 525 L 422 522 L 424 520 L 428 520 L 435 514 L 439 513 L 448 505 L 453 505 L 461 513 L 464 519 L 475 530 L 473 532 L 468 530 L 467 532 L 473 538 L 472 541 L 464 541 L 463 540 L 461 541 L 464 544 L 472 547 L 475 550 L 480 559 L 478 562 L 471 559 L 467 556 L 464 556 L 463 557 L 478 571 L 480 574 L 480 576 L 478 578 L 476 578 L 467 574 L 464 574 L 461 572 L 456 572 L 455 573 L 467 582 L 473 585 L 478 586 L 485 592 L 485 596 L 484 597 L 480 596 L 481 604 L 478 606 L 476 609 L 476 616 L 478 619 L 478 622 L 480 627 L 480 630 L 478 632 L 475 631 L 458 632 L 457 633 L 448 634 L 441 637 L 438 637 L 438 638 L 441 638 L 446 640 L 448 639 L 454 639 L 446 639 L 445 637 L 447 635 L 450 634 L 460 633 L 461 632 L 476 632 L 477 633 L 481 633 L 485 636 L 483 638 L 457 638 L 486 638 L 488 636 L 493 636 L 508 644 L 512 648 L 515 654 L 515 660 L 516 661 L 515 670 L 514 672 L 509 676 L 506 674 L 506 666 L 502 658 L 499 656 L 495 656 L 494 657 L 494 665 L 496 670 L 495 677 L 492 680 L 488 680 L 487 681 L 482 681 L 480 679 L 480 668 L 477 661 L 475 659 L 469 659 L 468 660 L 468 662 L 470 659 L 474 659 L 478 663 L 480 669 L 480 680 L 481 681 L 489 681 L 490 680 L 493 680 L 495 678 L 496 670 L 494 665 L 494 658 L 496 656 L 499 656 L 504 661 L 506 666 L 506 676 L 510 676 L 514 672 L 516 667 L 516 658 L 512 648 L 507 643 L 500 640 L 495 634 L 495 631 L 496 630 L 496 618 L 497 617 L 497 590 L 496 589 L 496 581 L 494 576 L 494 573 L 496 571 L 496 569 L 492 561 L 494 559 L 499 562 L 500 561 L 493 547 L 493 545 L 488 538 L 489 535 L 492 535 L 495 537 L 498 537 L 489 518 L 489 516 L 491 514 L 492 515 L 495 515 L 495 513 L 493 508 L 489 504 L 484 503 L 475 499 L 470 494 L 468 490 L 468 487 L 465 484 L 459 481 L 454 476 L 450 468 L 450 466 L 447 460 L 446 452 L 449 446 L 449 444 L 452 440 L 452 438 L 454 435 L 454 428 L 453 427 L 453 424 L 450 415 L 450 410 L 448 405 L 447 394 L 440 373 L 432 361 L 432 359 L 430 357 L 428 352 L 425 349 L 420 335 L 422 333 L 424 335 L 427 335 L 436 344 L 440 351 L 447 359 L 452 367 L 452 369 L 454 372 L 460 390 L 460 394 L 462 399 L 462 404 L 464 409 L 465 420 L 468 429 L 468 436 L 462 451 L 462 463 L 463 466 L 468 471 L 473 471 L 477 468 L 480 461 L 484 457 L 488 460 L 487 474 L 482 482 L 482 485 L 490 491 L 498 491 L 506 481 L 508 476 L 511 473 L 515 476 L 515 481 L 510 494 L 513 496 L 519 495 L 523 493 L 526 490 L 531 481 L 531 479 L 534 473 L 536 471 L 540 474 L 539 485 L 541 485 L 544 483 L 551 475 L 555 463 L 555 459 L 556 458 L 556 437 L 555 436 L 553 426 L 555 424 L 557 425 L 558 422 L 555 415 L 555 412 L 552 406 L 552 403 L 547 393 L 549 390 L 552 390 L 552 388 L 539 366 L 541 363 L 543 364 L 546 364 L 546 363 L 543 360 L 536 349 L 527 339 L 528 336 L 533 336 L 534 337 L 537 336 L 525 324 L 508 310 L 510 308 L 518 308 L 519 307 L 508 298 L 505 297 L 492 288 L 494 285 L 498 285 L 499 284 L 498 282 L 486 277 L 479 272 L 481 269 L 487 269 L 488 268 L 485 265 L 474 258 L 461 253 L 458 250 L 461 247 L 465 247 L 466 246 L 465 245 L 440 236 L 439 235 L 440 231 L 438 230 L 434 230 L 432 228 L 441 215 L 441 213 L 444 207 L 444 200 L 447 197 L 450 199 L 452 197 L 452 181 L 451 179 L 453 177 L 456 178 L 458 180 L 460 179 L 460 176 L 454 160 L 454 157 L 455 156 L 458 156 L 463 158 L 463 155 L 456 144 L 449 137 L 451 134 L 459 134 L 460 132 L 446 120 L 446 118 L 449 116 L 449 114 L 441 99 L 441 97 L 437 89 L 433 84 L 433 81 L 445 71 L 450 61 L 450 47 L 447 40 L 442 33 L 438 29 Z M 350 532 L 351 534 L 350 536 L 348 537 L 347 534 Z M 258 531 L 260 530 L 273 543 L 273 544 L 271 546 L 268 545 L 260 537 L 258 534 Z M 245 520 L 249 523 L 253 530 L 257 534 L 256 537 L 254 537 L 247 529 L 244 523 Z M 279 519 L 295 537 L 293 539 L 290 538 L 278 523 L 278 520 Z M 405 506 L 406 507 L 406 511 L 404 517 L 401 519 L 400 518 L 402 508 Z M 231 506 L 234 508 L 236 514 L 240 521 L 240 524 L 239 525 L 234 521 L 234 519 L 230 510 L 230 507 Z M 415 459 L 417 460 L 419 464 L 419 467 L 417 468 L 415 465 L 415 462 L 414 461 Z M 234 337 L 235 338 L 234 342 L 228 347 L 227 346 L 228 343 Z M 405 241 L 407 244 L 403 248 L 400 249 L 398 247 L 399 245 Z M 421 227 L 422 228 L 422 232 L 416 239 L 410 241 L 409 238 L 411 235 Z M 239 133 L 239 136 L 237 138 L 235 138 L 233 136 L 229 135 L 228 136 L 225 136 L 220 142 L 218 142 L 217 146 L 219 148 L 220 151 L 218 153 L 212 148 L 213 142 L 220 134 L 229 130 L 234 130 L 237 131 Z M 428 12 L 431 12 L 447 21 L 455 29 L 459 36 L 462 45 L 462 50 L 463 51 L 463 62 L 458 74 L 449 83 L 449 86 L 462 112 L 463 119 L 471 126 L 474 133 L 473 138 L 470 142 L 470 144 L 474 150 L 476 156 L 476 162 L 471 168 L 471 172 L 472 173 L 472 185 L 471 188 L 464 195 L 464 199 L 463 200 L 462 206 L 455 214 L 453 220 L 460 226 L 461 230 L 463 232 L 467 233 L 480 240 L 485 246 L 485 252 L 495 258 L 499 262 L 501 266 L 501 269 L 503 271 L 508 273 L 513 278 L 514 280 L 513 287 L 517 291 L 521 293 L 531 303 L 533 306 L 532 315 L 545 328 L 551 336 L 552 343 L 549 347 L 559 363 L 560 366 L 559 369 L 559 375 L 562 379 L 567 390 L 567 399 L 565 401 L 565 404 L 570 418 L 570 425 L 571 426 L 571 431 L 570 433 L 571 431 L 571 423 L 570 422 L 569 413 L 567 410 L 566 404 L 565 403 L 568 397 L 568 393 L 566 387 L 561 377 L 559 375 L 559 372 L 560 371 L 560 365 L 555 355 L 550 349 L 550 346 L 552 343 L 551 336 L 545 328 L 532 315 L 533 312 L 533 306 L 529 300 L 513 287 L 514 285 L 514 280 L 513 278 L 508 273 L 503 271 L 501 269 L 501 266 L 499 262 L 494 257 L 488 254 L 485 251 L 485 246 L 480 240 L 467 233 L 463 232 L 461 230 L 460 225 L 454 220 L 456 213 L 462 206 L 464 196 L 470 190 L 472 186 L 472 173 L 471 172 L 471 169 L 474 166 L 476 162 L 476 155 L 472 146 L 470 144 L 470 142 L 473 139 L 474 133 L 472 127 L 463 118 L 462 111 L 454 96 L 454 94 L 451 88 L 449 86 L 449 84 L 459 73 L 459 71 L 461 69 L 463 63 L 463 50 L 462 49 L 462 45 L 461 44 L 460 37 L 452 25 L 445 19 L 436 14 L 434 14 L 431 12 Z" fill="#D8D8D8" fill-rule="evenodd"/><path d="M 446 638 L 456 638 L 457 637 L 483 637 L 484 636 L 481 634 L 477 634 L 476 633 L 461 633 L 460 634 L 450 635 L 447 636 Z M 259 531 L 259 534 L 261 537 L 268 544 L 271 545 L 272 543 L 260 531 Z M 245 521 L 245 523 L 250 532 L 254 536 L 256 536 L 256 534 L 252 530 L 248 523 Z M 278 519 L 279 520 L 279 523 L 287 534 L 290 537 L 293 538 L 294 537 Z M 405 507 L 403 508 L 401 518 L 403 517 L 405 511 Z M 231 507 L 231 510 L 235 519 L 235 521 L 239 524 L 239 521 L 235 514 L 235 512 L 233 508 Z M 254 504 L 254 507 L 258 515 L 261 517 L 261 515 L 258 509 L 256 507 L 255 504 Z M 234 338 L 229 343 L 228 346 L 233 342 Z M 285 254 L 287 258 L 297 268 L 315 278 L 321 278 L 326 275 L 330 275 L 346 263 L 346 262 L 345 262 L 335 270 L 331 271 L 324 275 L 321 274 L 319 275 L 314 275 L 312 273 L 306 271 L 297 265 L 295 262 L 293 261 L 292 258 L 293 257 L 295 258 L 297 257 L 300 258 L 303 257 L 306 257 L 307 258 L 318 258 L 320 257 L 320 256 L 307 257 L 306 256 L 301 256 L 300 255 L 292 254 L 291 253 L 286 253 Z M 406 243 L 404 242 L 401 244 L 399 247 L 400 248 L 403 247 Z M 421 228 L 412 235 L 410 238 L 410 240 L 416 238 L 421 232 Z M 242 137 L 240 143 L 240 156 L 244 164 L 250 170 L 257 173 L 260 177 L 261 187 L 268 202 L 274 211 L 279 216 L 280 219 L 287 226 L 299 232 L 312 232 L 327 224 L 334 218 L 343 200 L 346 186 L 347 185 L 347 157 L 345 152 L 342 149 L 340 149 L 330 160 L 315 166 L 311 166 L 310 167 L 295 167 L 294 166 L 275 162 L 271 165 L 266 167 L 259 167 L 256 166 L 247 156 L 246 153 L 246 147 L 247 146 L 248 137 L 247 136 L 243 136 Z M 244 137 L 247 139 L 247 143 L 246 144 L 246 155 L 249 161 L 253 165 L 262 168 L 265 168 L 271 166 L 275 163 L 279 163 L 280 164 L 283 164 L 288 166 L 292 166 L 293 167 L 297 167 L 298 168 L 313 167 L 317 165 L 320 165 L 331 160 L 341 150 L 344 153 L 346 158 L 346 184 L 345 185 L 345 189 L 342 196 L 341 202 L 334 216 L 330 220 L 328 218 L 337 200 L 337 194 L 334 190 L 328 186 L 322 185 L 321 184 L 314 184 L 302 188 L 296 192 L 288 201 L 285 208 L 285 211 L 288 217 L 293 223 L 294 227 L 292 228 L 286 224 L 273 208 L 266 197 L 266 195 L 261 185 L 260 174 L 250 169 L 242 159 L 241 153 L 240 152 L 240 147 L 241 146 L 241 141 Z M 238 133 L 234 131 L 229 131 L 220 135 L 214 142 L 213 148 L 218 152 L 219 151 L 218 148 L 216 146 L 216 144 L 218 141 L 220 141 L 225 135 L 228 135 L 229 134 L 231 134 L 235 137 L 237 137 L 238 136 Z M 356 132 L 356 136 L 357 138 L 362 143 L 372 148 L 375 148 L 376 149 L 381 149 L 382 150 L 393 149 L 398 147 L 402 143 L 403 140 L 402 135 L 398 130 L 390 126 L 383 125 L 382 124 L 370 124 L 369 125 L 366 125 L 361 127 Z M 256 100 L 252 105 L 252 107 L 250 110 L 250 120 L 251 122 L 255 125 L 251 131 L 251 137 L 254 143 L 264 152 L 270 153 L 271 154 L 282 153 L 294 148 L 300 142 L 302 138 L 303 134 L 301 129 L 296 125 L 290 122 L 282 121 L 281 120 L 268 121 L 262 123 L 261 121 L 265 116 L 266 106 L 265 103 L 261 99 Z M 252 130 L 256 126 L 262 123 L 270 122 L 271 121 L 284 121 L 293 124 L 296 126 L 301 131 L 302 136 L 298 143 L 291 149 L 281 153 L 268 153 L 262 150 L 254 142 L 252 138 Z M 261 100 L 265 105 L 265 114 L 261 120 L 256 123 L 254 123 L 250 118 L 251 109 L 253 105 L 258 100 Z M 341 98 L 338 100 L 336 104 L 336 107 L 335 108 L 335 117 L 337 122 L 340 125 L 345 126 L 348 125 L 351 122 L 353 118 L 353 106 L 351 104 L 351 102 L 347 98 Z M 342 98 L 345 98 L 350 102 L 353 110 L 352 118 L 350 122 L 346 125 L 341 125 L 338 122 L 335 113 L 336 106 L 338 102 Z M 274 63 L 272 61 L 265 61 L 263 62 L 255 69 L 254 74 L 256 76 L 258 76 L 270 69 L 272 69 L 274 67 Z M 273 64 L 273 66 L 270 69 L 264 71 L 259 75 L 256 75 L 255 74 L 255 71 L 257 68 L 263 63 L 267 61 L 270 61 Z M 232 56 L 225 57 L 219 64 L 219 66 L 222 66 L 223 65 L 225 66 L 224 69 L 222 71 L 220 71 L 218 69 L 217 70 L 218 71 L 218 76 L 219 78 L 225 83 L 226 83 L 236 72 L 237 69 L 242 64 L 237 58 Z M 340 58 L 340 60 L 342 62 L 353 65 L 358 69 L 362 68 L 364 65 L 363 61 L 358 56 L 354 54 L 344 54 Z M 341 58 L 346 54 L 351 54 L 358 57 L 362 61 L 363 65 L 359 68 L 353 64 L 347 62 L 344 62 Z M 415 40 L 413 42 L 411 42 L 405 48 L 404 53 L 413 59 L 422 69 L 426 70 L 429 68 L 434 62 L 435 59 L 434 52 L 432 48 L 424 41 L 422 40 Z M 429 22 L 423 21 L 422 20 L 413 20 L 412 21 L 405 22 L 397 26 L 389 34 L 387 39 L 385 41 L 383 41 L 378 38 L 372 36 L 369 36 L 364 34 L 359 34 L 358 33 L 344 33 L 341 34 L 340 33 L 340 30 L 342 24 L 341 23 L 337 23 L 330 27 L 325 32 L 322 32 L 319 29 L 312 25 L 307 25 L 305 27 L 305 29 L 307 32 L 307 35 L 305 37 L 287 37 L 283 42 L 276 43 L 273 45 L 271 45 L 260 52 L 257 52 L 255 50 L 254 47 L 245 39 L 240 37 L 236 37 L 235 36 L 227 37 L 214 42 L 207 48 L 201 60 L 201 63 L 200 64 L 200 76 L 206 88 L 212 93 L 216 95 L 219 99 L 209 119 L 209 130 L 198 141 L 197 144 L 198 147 L 202 147 L 203 146 L 205 147 L 205 150 L 201 155 L 198 162 L 198 165 L 200 167 L 203 166 L 205 168 L 202 177 L 202 188 L 203 189 L 209 189 L 210 190 L 209 193 L 209 205 L 212 211 L 214 213 L 216 213 L 219 211 L 221 213 L 221 217 L 224 225 L 229 230 L 231 228 L 233 228 L 236 234 L 248 243 L 250 246 L 248 248 L 247 247 L 243 248 L 241 250 L 241 255 L 238 258 L 232 260 L 229 260 L 228 261 L 225 261 L 221 263 L 219 265 L 221 269 L 217 273 L 210 275 L 207 277 L 204 277 L 199 280 L 195 281 L 194 283 L 199 287 L 195 291 L 189 293 L 184 293 L 182 295 L 180 295 L 177 298 L 178 300 L 178 304 L 172 310 L 170 310 L 161 314 L 156 319 L 156 324 L 154 326 L 147 329 L 137 339 L 119 352 L 105 364 L 95 368 L 80 369 L 79 370 L 74 370 L 65 373 L 60 378 L 59 381 L 60 385 L 65 389 L 65 399 L 61 403 L 52 408 L 48 412 L 48 417 L 50 419 L 62 418 L 66 421 L 66 422 L 60 428 L 57 429 L 53 434 L 53 437 L 56 440 L 59 440 L 60 442 L 54 447 L 54 450 L 58 453 L 64 453 L 72 444 L 81 439 L 83 439 L 84 440 L 83 444 L 71 458 L 71 460 L 73 463 L 79 463 L 82 461 L 84 461 L 86 459 L 86 454 L 89 452 L 91 454 L 92 461 L 96 464 L 104 468 L 109 468 L 113 466 L 128 452 L 136 440 L 146 431 L 152 428 L 155 428 L 158 426 L 168 423 L 179 417 L 188 414 L 192 410 L 195 397 L 198 393 L 199 389 L 204 382 L 204 371 L 211 356 L 212 347 L 214 343 L 214 340 L 216 334 L 221 327 L 221 320 L 222 317 L 227 312 L 229 311 L 231 312 L 231 315 L 229 318 L 226 327 L 226 331 L 223 340 L 222 348 L 220 352 L 220 356 L 216 365 L 212 370 L 210 375 L 211 376 L 214 376 L 216 378 L 208 389 L 203 399 L 204 400 L 209 400 L 211 402 L 199 425 L 198 429 L 200 431 L 204 429 L 206 430 L 206 434 L 204 438 L 204 441 L 201 450 L 201 455 L 200 456 L 200 460 L 202 462 L 204 460 L 206 462 L 206 475 L 205 476 L 206 483 L 207 484 L 210 483 L 212 484 L 214 493 L 223 509 L 221 512 L 218 510 L 216 512 L 211 523 L 212 525 L 215 525 L 217 528 L 215 531 L 215 533 L 213 536 L 210 545 L 212 546 L 216 544 L 218 546 L 216 550 L 216 553 L 213 562 L 212 573 L 213 574 L 216 572 L 219 573 L 219 577 L 217 583 L 217 588 L 220 589 L 222 591 L 222 596 L 226 608 L 226 611 L 228 617 L 234 627 L 232 629 L 224 629 L 223 630 L 219 630 L 213 632 L 208 635 L 203 640 L 199 650 L 199 662 L 200 665 L 205 669 L 208 668 L 208 657 L 210 652 L 214 648 L 216 648 L 218 650 L 215 659 L 215 670 L 217 672 L 226 673 L 227 674 L 231 674 L 232 673 L 232 663 L 233 662 L 233 659 L 235 655 L 239 652 L 242 654 L 242 658 L 240 662 L 240 674 L 241 675 L 276 675 L 277 674 L 284 674 L 285 673 L 293 673 L 294 672 L 299 672 L 300 671 L 305 671 L 306 670 L 314 669 L 321 666 L 324 663 L 327 657 L 327 639 L 326 638 L 326 633 L 325 631 L 327 629 L 328 630 L 331 629 L 331 616 L 330 615 L 330 609 L 329 608 L 328 600 L 330 598 L 332 599 L 334 598 L 333 584 L 334 583 L 335 574 L 331 572 L 326 572 L 325 571 L 322 571 L 313 568 L 305 563 L 307 560 L 313 560 L 314 561 L 318 561 L 323 563 L 334 564 L 335 565 L 341 565 L 342 566 L 360 566 L 368 563 L 372 563 L 374 565 L 374 566 L 368 572 L 369 577 L 373 584 L 373 586 L 377 593 L 377 595 L 378 596 L 381 595 L 384 598 L 384 608 L 385 609 L 385 613 L 388 614 L 390 616 L 390 625 L 391 626 L 391 631 L 392 633 L 394 634 L 396 632 L 399 636 L 400 647 L 398 653 L 398 666 L 401 673 L 407 678 L 419 682 L 437 684 L 438 683 L 437 667 L 438 664 L 440 662 L 443 662 L 446 666 L 446 683 L 447 684 L 469 684 L 470 683 L 469 663 L 471 661 L 474 661 L 477 664 L 478 671 L 479 672 L 478 682 L 479 683 L 491 682 L 494 681 L 497 678 L 497 668 L 495 663 L 495 660 L 497 658 L 499 658 L 503 662 L 505 668 L 505 678 L 509 678 L 511 677 L 516 672 L 518 662 L 517 661 L 517 655 L 515 650 L 508 642 L 500 638 L 497 635 L 497 625 L 498 624 L 498 602 L 499 601 L 499 596 L 498 595 L 498 583 L 497 582 L 498 569 L 496 564 L 497 563 L 501 565 L 502 564 L 502 561 L 492 541 L 493 538 L 495 538 L 498 540 L 500 539 L 499 533 L 492 521 L 492 519 L 494 517 L 495 518 L 497 517 L 497 513 L 495 509 L 495 506 L 493 504 L 477 498 L 472 493 L 471 485 L 461 480 L 456 475 L 452 467 L 452 464 L 451 463 L 451 448 L 457 434 L 456 424 L 455 423 L 455 420 L 454 419 L 454 416 L 451 407 L 451 402 L 450 401 L 450 397 L 446 385 L 446 382 L 444 379 L 444 377 L 440 368 L 427 348 L 424 340 L 427 338 L 435 346 L 442 357 L 448 364 L 452 372 L 459 393 L 459 397 L 461 403 L 461 408 L 463 414 L 463 420 L 466 429 L 466 436 L 460 450 L 460 463 L 461 466 L 465 471 L 469 473 L 474 473 L 478 470 L 479 467 L 481 465 L 481 463 L 484 460 L 486 461 L 487 463 L 486 465 L 486 470 L 484 473 L 483 477 L 479 482 L 480 486 L 486 491 L 491 493 L 498 493 L 500 492 L 511 477 L 513 478 L 513 481 L 508 493 L 508 495 L 511 498 L 516 498 L 525 494 L 529 490 L 534 479 L 534 477 L 536 475 L 538 476 L 538 481 L 536 486 L 537 489 L 542 487 L 546 484 L 553 475 L 553 473 L 555 470 L 556 463 L 557 462 L 557 458 L 558 457 L 558 439 L 556 434 L 556 429 L 560 426 L 560 424 L 559 423 L 559 419 L 554 404 L 550 396 L 552 393 L 555 392 L 555 390 L 542 368 L 544 366 L 548 367 L 548 363 L 545 360 L 538 349 L 530 340 L 532 337 L 537 339 L 539 339 L 540 337 L 523 320 L 513 312 L 514 309 L 520 309 L 521 307 L 516 302 L 495 288 L 497 286 L 501 286 L 502 283 L 483 273 L 485 270 L 490 270 L 491 268 L 479 259 L 467 253 L 465 253 L 463 250 L 466 248 L 469 248 L 468 245 L 460 241 L 446 237 L 443 234 L 445 231 L 438 228 L 436 226 L 442 217 L 442 215 L 445 209 L 446 202 L 448 200 L 450 202 L 453 200 L 453 197 L 454 196 L 454 182 L 456 180 L 459 183 L 462 182 L 461 172 L 458 166 L 458 163 L 456 160 L 458 158 L 464 160 L 465 159 L 465 154 L 459 145 L 453 139 L 454 136 L 460 136 L 462 135 L 463 133 L 457 126 L 451 123 L 448 120 L 452 117 L 452 114 L 448 109 L 443 99 L 443 97 L 435 83 L 435 82 L 447 71 L 450 66 L 452 60 L 452 48 L 450 42 L 445 34 L 438 27 Z M 82 449 L 83 451 L 81 453 L 81 458 L 79 460 L 76 461 L 74 459 L 74 457 Z M 87 442 L 88 443 L 88 446 L 85 448 L 84 445 Z M 67 442 L 68 444 L 60 452 L 58 452 L 56 450 L 56 448 L 59 445 L 65 442 Z M 61 430 L 62 433 L 57 437 L 56 436 L 56 433 L 58 431 Z M 49 415 L 51 413 L 56 413 L 60 409 L 67 405 L 69 405 L 71 407 L 71 410 L 74 412 L 81 412 L 83 414 L 85 424 L 87 426 L 90 427 L 104 442 L 102 444 L 99 444 L 93 440 L 89 440 L 88 437 L 82 432 L 82 429 L 80 426 L 76 423 L 76 421 L 72 418 L 70 418 L 62 414 L 58 415 L 54 418 L 51 418 Z M 427 22 L 438 28 L 443 33 L 448 40 L 451 47 L 451 61 L 446 71 L 440 77 L 437 78 L 434 81 L 434 84 L 438 89 L 442 97 L 442 99 L 450 114 L 450 116 L 447 118 L 447 120 L 455 126 L 461 132 L 459 135 L 451 135 L 450 137 L 457 144 L 464 155 L 464 158 L 463 159 L 458 157 L 455 157 L 455 160 L 461 176 L 461 179 L 459 181 L 454 178 L 452 179 L 453 181 L 453 197 L 450 200 L 448 198 L 445 200 L 445 207 L 442 213 L 442 215 L 433 228 L 434 229 L 438 229 L 441 231 L 440 235 L 465 244 L 467 246 L 465 248 L 461 248 L 459 250 L 463 253 L 465 253 L 474 257 L 485 264 L 489 268 L 487 270 L 481 270 L 480 272 L 486 276 L 498 281 L 500 283 L 498 286 L 494 286 L 493 288 L 505 296 L 508 297 L 520 307 L 518 309 L 510 309 L 509 310 L 525 323 L 538 336 L 536 338 L 528 337 L 528 339 L 537 349 L 544 360 L 547 363 L 546 365 L 541 364 L 540 366 L 553 388 L 553 390 L 552 391 L 549 391 L 548 393 L 553 403 L 553 406 L 556 412 L 556 415 L 559 422 L 559 424 L 557 426 L 556 425 L 554 426 L 556 436 L 557 437 L 557 458 L 556 459 L 556 463 L 552 475 L 544 484 L 541 486 L 538 485 L 539 474 L 536 472 L 527 490 L 523 494 L 519 496 L 513 497 L 509 494 L 514 481 L 514 476 L 511 474 L 509 476 L 507 481 L 498 492 L 490 492 L 481 485 L 481 482 L 486 474 L 487 460 L 484 458 L 481 461 L 478 468 L 473 472 L 468 472 L 462 466 L 461 463 L 461 451 L 467 436 L 467 429 L 464 420 L 464 415 L 463 414 L 463 409 L 461 404 L 461 399 L 459 394 L 459 390 L 453 372 L 451 369 L 451 367 L 449 363 L 439 351 L 435 344 L 427 336 L 424 336 L 422 334 L 421 335 L 426 349 L 429 352 L 431 357 L 433 359 L 433 361 L 441 373 L 448 394 L 449 405 L 451 410 L 451 415 L 452 416 L 452 419 L 455 428 L 455 435 L 453 438 L 453 440 L 450 444 L 450 446 L 447 452 L 447 456 L 451 468 L 455 476 L 459 480 L 465 483 L 469 487 L 469 490 L 471 494 L 475 498 L 484 502 L 489 503 L 494 508 L 496 513 L 495 516 L 492 516 L 491 515 L 490 518 L 499 537 L 498 538 L 495 538 L 492 536 L 489 536 L 489 538 L 494 545 L 494 547 L 501 561 L 499 563 L 495 560 L 493 561 L 497 569 L 497 571 L 495 573 L 495 576 L 497 581 L 497 589 L 498 590 L 498 617 L 497 618 L 497 630 L 496 631 L 496 634 L 500 639 L 507 642 L 513 648 L 517 658 L 517 667 L 516 670 L 510 677 L 506 677 L 505 676 L 505 666 L 504 663 L 499 657 L 496 657 L 495 658 L 495 665 L 497 670 L 496 678 L 493 681 L 490 681 L 489 682 L 481 682 L 479 680 L 479 669 L 478 668 L 478 665 L 474 660 L 470 660 L 468 663 L 469 665 L 469 681 L 465 684 L 448 684 L 446 682 L 446 679 L 447 678 L 446 664 L 443 661 L 440 661 L 437 665 L 437 678 L 438 681 L 436 683 L 421 682 L 420 681 L 417 681 L 408 678 L 401 672 L 398 664 L 399 650 L 400 649 L 399 634 L 397 631 L 394 632 L 391 628 L 391 617 L 390 616 L 390 613 L 387 612 L 385 610 L 384 595 L 382 593 L 379 594 L 377 592 L 374 583 L 372 581 L 372 579 L 369 574 L 369 572 L 374 567 L 375 564 L 373 562 L 368 562 L 360 565 L 348 566 L 347 565 L 332 564 L 331 563 L 322 562 L 313 559 L 305 559 L 304 560 L 304 563 L 306 565 L 314 569 L 320 571 L 323 571 L 324 572 L 327 572 L 328 573 L 332 573 L 334 575 L 333 585 L 332 586 L 333 589 L 333 595 L 331 597 L 330 596 L 327 596 L 328 606 L 329 607 L 329 613 L 330 614 L 330 626 L 328 628 L 327 627 L 324 628 L 325 636 L 326 637 L 326 642 L 327 643 L 327 653 L 326 654 L 325 660 L 317 667 L 311 669 L 307 669 L 306 670 L 287 672 L 286 673 L 279 673 L 278 674 L 270 674 L 269 675 L 244 675 L 240 672 L 240 664 L 241 663 L 241 660 L 243 654 L 241 652 L 237 652 L 233 657 L 232 660 L 232 665 L 231 666 L 232 671 L 230 673 L 224 673 L 218 671 L 215 668 L 216 658 L 219 651 L 219 648 L 218 647 L 215 647 L 213 648 L 209 653 L 208 660 L 207 661 L 207 667 L 205 668 L 201 665 L 199 661 L 199 652 L 203 641 L 210 634 L 221 630 L 229 630 L 230 629 L 237 629 L 238 630 L 245 630 L 246 631 L 255 632 L 254 629 L 246 626 L 236 626 L 231 621 L 225 606 L 225 603 L 223 598 L 222 588 L 218 586 L 218 581 L 219 580 L 220 571 L 219 570 L 215 572 L 212 571 L 216 552 L 219 545 L 218 543 L 215 544 L 212 544 L 211 543 L 218 526 L 217 524 L 214 525 L 212 522 L 215 517 L 215 515 L 218 512 L 221 514 L 224 514 L 225 511 L 224 510 L 224 506 L 223 504 L 219 500 L 214 491 L 214 487 L 213 486 L 213 482 L 211 479 L 209 482 L 206 480 L 207 458 L 206 457 L 203 460 L 201 458 L 202 447 L 207 432 L 207 429 L 204 428 L 201 430 L 199 428 L 199 426 L 212 401 L 211 399 L 206 400 L 204 397 L 217 377 L 216 375 L 213 375 L 212 374 L 212 371 L 220 359 L 221 351 L 224 347 L 223 344 L 224 337 L 233 310 L 232 309 L 228 310 L 221 318 L 220 326 L 215 335 L 215 338 L 211 349 L 210 358 L 203 372 L 203 382 L 194 397 L 191 408 L 187 412 L 177 417 L 175 417 L 167 422 L 152 426 L 144 430 L 135 439 L 131 446 L 119 457 L 117 456 L 117 450 L 114 444 L 116 442 L 121 441 L 127 436 L 134 428 L 134 422 L 130 414 L 123 405 L 113 395 L 105 391 L 99 391 L 96 392 L 84 405 L 82 406 L 79 405 L 76 402 L 71 400 L 68 397 L 68 391 L 70 389 L 83 390 L 87 386 L 88 381 L 87 380 L 79 380 L 64 385 L 61 382 L 61 379 L 66 374 L 73 371 L 85 370 L 86 369 L 94 369 L 95 368 L 99 368 L 105 365 L 124 349 L 131 345 L 140 338 L 148 329 L 155 326 L 159 322 L 159 318 L 164 313 L 173 310 L 180 303 L 183 299 L 183 296 L 185 294 L 191 293 L 194 291 L 198 290 L 201 287 L 200 285 L 198 285 L 196 283 L 199 280 L 218 273 L 223 268 L 222 265 L 225 262 L 231 260 L 234 260 L 240 257 L 246 257 L 246 255 L 243 251 L 245 248 L 251 249 L 254 247 L 256 247 L 264 251 L 264 249 L 254 240 L 249 238 L 247 236 L 241 236 L 235 230 L 233 225 L 231 223 L 229 223 L 229 225 L 227 227 L 225 225 L 222 219 L 221 210 L 219 208 L 215 212 L 210 206 L 209 203 L 210 187 L 209 186 L 207 188 L 205 188 L 202 185 L 202 180 L 203 179 L 203 176 L 204 175 L 204 172 L 206 166 L 205 165 L 201 166 L 199 164 L 199 161 L 207 147 L 205 145 L 200 146 L 198 144 L 198 142 L 210 130 L 209 121 L 217 105 L 217 103 L 219 101 L 219 96 L 212 92 L 205 85 L 201 77 L 200 68 L 201 67 L 201 62 L 205 52 L 214 43 L 219 40 L 225 38 L 228 38 L 229 37 L 238 37 L 247 41 L 254 48 L 255 51 L 257 53 L 260 53 L 265 49 L 275 44 L 285 42 L 288 38 L 291 37 L 307 37 L 308 36 L 308 33 L 306 30 L 306 28 L 308 26 L 314 27 L 319 31 L 323 33 L 326 33 L 336 24 L 340 24 L 341 25 L 341 27 L 338 33 L 339 35 L 343 35 L 344 34 L 359 34 L 360 35 L 373 37 L 381 41 L 386 42 L 388 39 L 389 35 L 397 27 L 404 23 L 410 22 L 411 21 L 415 21 L 416 20 Z M 431 13 L 421 12 L 420 11 L 412 11 L 411 12 L 402 13 L 397 16 L 395 16 L 389 20 L 380 29 L 374 27 L 370 27 L 369 26 L 364 26 L 363 25 L 352 25 L 349 22 L 349 20 L 344 15 L 335 15 L 329 18 L 324 22 L 319 20 L 315 17 L 312 17 L 311 16 L 304 17 L 299 21 L 298 26 L 296 28 L 283 30 L 264 39 L 260 39 L 251 31 L 241 27 L 226 27 L 214 31 L 207 35 L 199 43 L 195 49 L 190 63 L 190 76 L 191 77 L 192 83 L 197 92 L 202 98 L 208 103 L 200 118 L 199 129 L 191 137 L 189 141 L 189 148 L 193 153 L 193 155 L 190 160 L 190 169 L 194 174 L 193 187 L 195 192 L 200 197 L 201 210 L 204 216 L 211 220 L 214 223 L 218 231 L 221 234 L 226 236 L 234 244 L 234 246 L 232 248 L 228 249 L 221 253 L 219 253 L 211 258 L 204 267 L 202 268 L 198 268 L 192 271 L 190 273 L 188 279 L 184 283 L 182 283 L 175 287 L 161 301 L 154 304 L 151 304 L 144 308 L 141 313 L 141 318 L 116 342 L 110 346 L 100 355 L 92 358 L 77 359 L 76 360 L 65 362 L 59 365 L 55 369 L 53 373 L 52 380 L 51 381 L 51 388 L 48 394 L 45 398 L 39 403 L 36 408 L 35 415 L 36 416 L 36 420 L 40 427 L 42 433 L 42 438 L 43 439 L 43 445 L 44 446 L 45 454 L 49 458 L 54 460 L 59 465 L 61 469 L 68 474 L 78 475 L 79 474 L 85 474 L 87 473 L 95 478 L 101 479 L 102 480 L 110 479 L 118 475 L 132 461 L 134 457 L 139 452 L 142 447 L 149 441 L 165 434 L 167 434 L 169 432 L 175 430 L 180 426 L 186 423 L 189 423 L 190 424 L 190 436 L 194 441 L 193 449 L 192 450 L 192 465 L 194 469 L 197 472 L 197 480 L 198 481 L 198 485 L 200 488 L 200 490 L 207 498 L 206 507 L 205 508 L 205 511 L 204 512 L 204 515 L 201 524 L 202 529 L 205 532 L 201 544 L 202 550 L 205 553 L 205 557 L 202 566 L 202 574 L 203 577 L 208 582 L 208 587 L 209 588 L 210 596 L 217 617 L 217 619 L 215 621 L 211 622 L 202 627 L 194 635 L 189 646 L 189 649 L 188 650 L 188 661 L 189 662 L 189 665 L 192 670 L 196 674 L 201 677 L 207 679 L 210 679 L 214 681 L 219 681 L 220 682 L 225 682 L 226 683 L 236 683 L 237 684 L 274 684 L 275 683 L 285 683 L 286 682 L 293 682 L 294 681 L 305 680 L 306 679 L 321 676 L 329 672 L 334 667 L 338 656 L 338 641 L 337 640 L 337 637 L 339 635 L 341 630 L 340 605 L 343 601 L 343 587 L 344 586 L 345 578 L 347 576 L 359 576 L 361 578 L 362 585 L 365 594 L 369 601 L 369 603 L 374 608 L 376 612 L 377 620 L 380 628 L 380 631 L 383 637 L 389 644 L 389 651 L 388 652 L 388 668 L 391 676 L 402 686 L 404 686 L 413 690 L 417 690 L 422 692 L 428 692 L 429 693 L 442 693 L 443 694 L 473 694 L 474 693 L 485 693 L 486 692 L 491 692 L 492 691 L 497 691 L 498 690 L 505 689 L 517 684 L 523 679 L 528 669 L 528 654 L 527 653 L 527 650 L 522 641 L 515 634 L 508 629 L 508 621 L 509 620 L 508 575 L 512 569 L 512 562 L 508 552 L 509 535 L 506 528 L 506 525 L 508 521 L 508 513 L 507 512 L 507 509 L 509 507 L 515 507 L 516 508 L 522 507 L 528 505 L 533 502 L 535 502 L 540 499 L 542 499 L 544 497 L 547 496 L 557 486 L 564 475 L 565 469 L 567 465 L 567 461 L 568 460 L 568 453 L 569 452 L 568 435 L 570 431 L 569 418 L 564 404 L 564 401 L 566 399 L 566 390 L 561 379 L 558 375 L 558 369 L 559 368 L 558 363 L 548 347 L 551 343 L 550 336 L 544 328 L 531 315 L 532 306 L 530 303 L 521 294 L 517 292 L 512 287 L 513 284 L 513 280 L 512 278 L 508 274 L 503 272 L 500 269 L 500 266 L 498 262 L 491 256 L 486 254 L 484 252 L 484 246 L 483 244 L 477 239 L 467 234 L 463 233 L 460 230 L 459 226 L 452 220 L 454 214 L 461 206 L 462 200 L 463 199 L 463 195 L 470 188 L 471 185 L 471 173 L 470 172 L 470 168 L 475 162 L 475 156 L 473 150 L 469 144 L 469 142 L 472 138 L 473 133 L 470 126 L 462 119 L 461 112 L 448 86 L 448 83 L 457 74 L 462 62 L 462 51 L 461 50 L 461 45 L 458 36 L 454 29 L 447 22 Z M 428 13 L 439 18 L 449 25 L 455 32 L 458 38 L 460 44 L 460 50 L 461 51 L 461 62 L 460 63 L 460 66 L 457 73 L 446 84 L 446 85 L 448 87 L 460 112 L 461 120 L 470 128 L 472 132 L 472 138 L 468 142 L 468 144 L 471 148 L 474 155 L 474 163 L 469 168 L 470 175 L 471 176 L 471 182 L 469 188 L 463 193 L 461 204 L 459 208 L 453 214 L 452 216 L 452 221 L 458 226 L 459 230 L 462 233 L 476 239 L 483 245 L 484 247 L 483 252 L 494 259 L 499 265 L 499 270 L 507 274 L 512 279 L 512 285 L 511 288 L 521 295 L 530 304 L 531 306 L 530 316 L 543 328 L 548 334 L 550 338 L 550 342 L 548 344 L 547 347 L 553 355 L 558 366 L 557 375 L 559 377 L 564 387 L 565 393 L 566 394 L 563 403 L 568 416 L 568 421 L 569 422 L 569 432 L 567 435 L 568 453 L 567 454 L 567 461 L 566 462 L 564 473 L 561 479 L 556 486 L 544 497 L 520 507 L 511 507 L 510 506 L 507 506 L 506 507 L 506 511 L 507 512 L 506 530 L 509 538 L 509 542 L 507 545 L 507 551 L 511 560 L 511 569 L 507 574 L 507 582 L 508 583 L 508 625 L 507 626 L 507 629 L 510 632 L 514 634 L 524 645 L 528 655 L 528 668 L 523 678 L 516 684 L 503 689 L 499 689 L 494 691 L 488 691 L 487 692 L 479 692 L 478 693 L 435 693 L 434 692 L 426 692 L 425 691 L 420 691 L 419 690 L 412 689 L 400 684 L 394 679 L 390 673 L 389 667 L 388 666 L 388 654 L 389 653 L 390 644 L 382 634 L 379 625 L 379 622 L 377 618 L 376 610 L 371 604 L 366 595 L 362 583 L 362 579 L 359 575 L 346 575 L 344 579 L 344 584 L 343 585 L 343 599 L 339 606 L 340 618 L 341 619 L 341 628 L 340 629 L 340 632 L 337 636 L 337 645 L 338 646 L 337 659 L 333 667 L 326 673 L 324 673 L 322 675 L 316 677 L 313 677 L 312 678 L 308 678 L 302 680 L 297 680 L 296 681 L 290 681 L 289 682 L 280 682 L 279 683 L 247 684 L 246 683 L 231 683 L 230 682 L 224 682 L 223 681 L 217 681 L 212 679 L 208 679 L 197 674 L 192 669 L 189 663 L 189 648 L 194 636 L 202 628 L 218 620 L 214 608 L 214 605 L 211 598 L 210 591 L 209 590 L 209 582 L 204 577 L 202 573 L 203 563 L 206 555 L 206 553 L 202 548 L 202 540 L 205 534 L 205 531 L 202 527 L 202 521 L 205 514 L 206 504 L 207 503 L 207 496 L 201 490 L 199 486 L 198 478 L 197 477 L 197 471 L 193 466 L 192 463 L 192 453 L 193 452 L 193 447 L 194 446 L 194 440 L 191 437 L 191 422 L 190 421 L 185 422 L 175 429 L 149 440 L 141 447 L 131 461 L 117 475 L 108 479 L 99 479 L 87 472 L 79 473 L 78 474 L 70 474 L 67 473 L 62 469 L 55 460 L 52 459 L 50 457 L 48 457 L 46 455 L 44 450 L 44 446 L 43 445 L 42 432 L 40 426 L 37 422 L 37 419 L 36 418 L 36 410 L 37 407 L 49 395 L 51 390 L 54 386 L 52 381 L 53 375 L 56 369 L 60 365 L 74 360 L 93 358 L 99 356 L 104 353 L 110 347 L 117 342 L 142 318 L 142 313 L 147 307 L 150 305 L 163 301 L 176 287 L 182 284 L 187 283 L 189 281 L 190 274 L 194 270 L 201 269 L 204 267 L 206 267 L 213 257 L 229 249 L 232 249 L 235 246 L 234 242 L 231 239 L 221 233 L 218 230 L 215 224 L 215 222 L 209 219 L 203 213 L 201 207 L 201 197 L 195 191 L 194 188 L 194 178 L 195 177 L 195 173 L 190 167 L 191 159 L 194 154 L 194 152 L 190 149 L 189 143 L 191 138 L 200 129 L 199 124 L 200 123 L 201 117 L 209 104 L 209 103 L 196 89 L 192 81 L 191 73 L 190 72 L 190 66 L 191 65 L 192 57 L 194 54 L 194 52 L 200 43 L 207 36 L 213 32 L 215 32 L 224 28 L 229 28 L 230 27 L 238 27 L 239 28 L 245 29 L 251 32 L 260 40 L 264 40 L 288 29 L 297 29 L 299 26 L 300 21 L 305 17 L 312 17 L 317 19 L 321 22 L 326 22 L 334 16 L 342 15 L 348 20 L 350 25 L 359 25 L 360 26 L 371 27 L 376 29 L 382 29 L 389 21 L 401 14 L 407 13 L 408 12 L 424 12 L 425 13 Z" fill="#B1B1B1" fill-rule="evenodd"/><path d="M 243 139 L 242 141 L 242 146 L 241 147 L 241 152 L 242 153 L 243 159 L 250 168 L 255 171 L 259 172 L 261 174 L 262 185 L 267 195 L 267 197 L 269 199 L 270 202 L 272 204 L 274 208 L 286 223 L 287 223 L 290 226 L 293 227 L 292 223 L 289 220 L 284 211 L 284 208 L 287 201 L 296 191 L 304 186 L 306 186 L 309 184 L 313 184 L 314 183 L 321 183 L 322 184 L 328 185 L 333 189 L 334 189 L 338 194 L 338 200 L 337 201 L 337 203 L 335 206 L 335 208 L 333 210 L 329 218 L 330 219 L 333 216 L 340 202 L 341 196 L 344 189 L 344 185 L 345 184 L 345 158 L 344 157 L 343 153 L 341 151 L 331 161 L 325 164 L 323 164 L 320 166 L 317 166 L 313 168 L 308 168 L 307 169 L 298 169 L 297 168 L 288 167 L 287 166 L 284 166 L 283 165 L 280 165 L 279 164 L 275 164 L 271 167 L 269 167 L 265 169 L 262 169 L 261 168 L 257 168 L 253 166 L 246 158 L 246 156 L 245 155 L 245 144 L 246 143 L 246 139 L 245 138 Z M 253 130 L 253 138 L 255 142 L 262 149 L 268 152 L 281 152 L 287 149 L 289 149 L 297 143 L 301 136 L 301 133 L 300 131 L 296 127 L 295 127 L 293 125 L 291 125 L 288 123 L 285 123 L 284 122 L 271 122 L 270 123 L 262 124 L 256 127 Z M 261 101 L 258 101 L 254 105 L 252 109 L 252 112 L 251 113 L 251 118 L 254 122 L 256 122 L 261 119 L 264 114 L 264 105 Z M 342 99 L 339 102 L 337 106 L 337 110 L 336 111 L 336 113 L 337 114 L 337 118 L 339 122 L 341 124 L 346 124 L 349 122 L 351 118 L 352 110 L 351 109 L 351 106 L 349 102 L 345 99 Z M 272 64 L 270 62 L 267 62 L 263 64 L 258 68 L 258 69 L 256 71 L 256 74 L 259 74 L 264 70 L 268 68 L 270 68 L 272 66 Z M 342 58 L 342 59 L 344 61 L 347 61 L 348 62 L 353 63 L 355 65 L 360 67 L 362 65 L 361 61 L 358 58 L 354 56 L 352 56 L 351 55 L 346 55 Z M 431 15 L 425 14 L 424 13 L 408 13 L 407 14 L 404 14 L 393 19 L 390 22 L 389 22 L 382 30 L 376 30 L 375 29 L 372 29 L 371 28 L 360 27 L 359 26 L 350 26 L 348 24 L 347 20 L 344 17 L 342 16 L 337 16 L 336 17 L 332 18 L 326 23 L 321 23 L 317 20 L 313 19 L 312 18 L 305 18 L 301 21 L 300 23 L 300 26 L 297 30 L 288 30 L 280 34 L 278 34 L 273 37 L 271 37 L 264 41 L 260 41 L 251 33 L 245 30 L 239 29 L 238 28 L 230 28 L 229 29 L 224 29 L 223 30 L 218 31 L 215 33 L 213 33 L 211 35 L 207 37 L 201 43 L 201 44 L 198 47 L 197 50 L 195 52 L 195 54 L 193 57 L 193 60 L 192 61 L 192 65 L 191 66 L 192 78 L 197 89 L 199 91 L 199 92 L 210 103 L 209 106 L 205 111 L 202 117 L 201 123 L 200 124 L 201 126 L 201 129 L 192 138 L 191 142 L 190 143 L 191 149 L 195 152 L 195 154 L 192 159 L 191 167 L 196 173 L 196 177 L 195 178 L 195 188 L 196 189 L 196 191 L 202 197 L 202 207 L 203 208 L 204 213 L 209 218 L 214 220 L 216 222 L 216 224 L 219 230 L 221 232 L 231 238 L 235 242 L 236 246 L 232 250 L 229 250 L 213 258 L 210 262 L 209 265 L 206 268 L 204 268 L 201 270 L 197 270 L 196 271 L 194 271 L 191 274 L 191 276 L 190 277 L 190 281 L 187 284 L 182 285 L 176 288 L 175 290 L 163 302 L 156 304 L 155 305 L 153 305 L 152 306 L 150 306 L 148 308 L 147 308 L 143 313 L 143 318 L 117 343 L 116 343 L 111 348 L 110 348 L 104 354 L 99 357 L 97 357 L 93 359 L 90 359 L 89 360 L 79 360 L 78 361 L 74 361 L 73 362 L 70 362 L 69 363 L 67 363 L 60 366 L 57 369 L 54 375 L 54 378 L 53 379 L 53 381 L 55 385 L 54 388 L 52 390 L 50 395 L 38 407 L 38 409 L 37 410 L 37 418 L 38 419 L 38 422 L 40 424 L 42 431 L 43 432 L 43 436 L 44 437 L 44 445 L 45 446 L 45 450 L 46 451 L 47 455 L 55 459 L 59 463 L 59 464 L 63 468 L 63 469 L 67 472 L 69 472 L 70 473 L 78 473 L 79 472 L 84 472 L 85 471 L 87 471 L 99 478 L 108 478 L 109 477 L 114 476 L 116 474 L 117 474 L 130 461 L 130 460 L 133 457 L 135 453 L 140 448 L 140 447 L 149 439 L 153 437 L 155 437 L 158 435 L 160 435 L 165 432 L 167 432 L 180 425 L 185 421 L 188 421 L 190 420 L 192 422 L 192 437 L 195 440 L 195 446 L 194 447 L 194 452 L 193 453 L 193 463 L 194 464 L 194 466 L 198 471 L 198 477 L 199 478 L 199 483 L 200 484 L 200 486 L 202 490 L 208 496 L 207 509 L 206 510 L 206 514 L 203 521 L 203 527 L 206 531 L 206 534 L 203 540 L 203 548 L 207 553 L 206 559 L 204 563 L 203 573 L 205 577 L 210 582 L 210 590 L 211 591 L 212 598 L 215 605 L 215 608 L 216 609 L 216 611 L 219 618 L 219 620 L 217 622 L 213 623 L 205 627 L 195 636 L 190 648 L 190 663 L 193 669 L 197 673 L 205 677 L 207 677 L 208 678 L 212 678 L 213 679 L 216 679 L 217 680 L 230 681 L 231 682 L 246 682 L 247 683 L 259 683 L 260 682 L 279 682 L 280 681 L 289 681 L 290 680 L 296 680 L 297 679 L 302 679 L 303 678 L 312 677 L 313 676 L 316 676 L 317 675 L 322 674 L 324 672 L 326 672 L 328 670 L 329 670 L 332 667 L 336 659 L 336 654 L 337 653 L 336 636 L 339 632 L 339 629 L 340 628 L 340 619 L 339 618 L 339 611 L 338 610 L 338 606 L 341 602 L 341 600 L 342 599 L 342 585 L 343 584 L 343 579 L 344 578 L 344 576 L 346 574 L 359 574 L 363 579 L 363 583 L 364 584 L 367 595 L 370 601 L 377 610 L 378 618 L 380 622 L 380 625 L 381 626 L 383 634 L 385 636 L 387 640 L 391 644 L 391 648 L 390 649 L 390 653 L 389 654 L 389 666 L 390 667 L 391 673 L 395 678 L 395 679 L 400 683 L 412 688 L 415 688 L 416 689 L 419 689 L 420 690 L 425 690 L 426 691 L 434 691 L 435 692 L 478 692 L 479 691 L 487 691 L 488 690 L 494 690 L 495 689 L 498 689 L 499 688 L 503 688 L 504 687 L 506 687 L 507 686 L 509 686 L 516 683 L 522 678 L 527 668 L 527 655 L 526 654 L 526 651 L 523 645 L 514 635 L 510 633 L 506 629 L 506 626 L 507 625 L 507 583 L 506 582 L 506 574 L 510 569 L 510 560 L 509 559 L 508 554 L 506 551 L 506 545 L 508 542 L 508 538 L 507 537 L 507 534 L 505 530 L 505 523 L 506 522 L 506 512 L 505 511 L 505 507 L 507 505 L 510 505 L 511 506 L 520 506 L 544 496 L 555 486 L 555 485 L 560 479 L 563 473 L 563 470 L 564 469 L 564 466 L 565 465 L 565 462 L 566 461 L 566 454 L 567 453 L 567 442 L 566 441 L 566 435 L 568 432 L 568 422 L 567 421 L 567 416 L 566 415 L 566 413 L 565 412 L 565 410 L 562 403 L 562 401 L 565 396 L 565 394 L 564 393 L 563 387 L 558 377 L 556 375 L 556 371 L 557 370 L 557 366 L 556 365 L 556 363 L 552 355 L 546 347 L 547 344 L 549 342 L 549 338 L 547 334 L 542 329 L 542 328 L 532 318 L 531 318 L 529 316 L 529 312 L 530 311 L 530 306 L 529 304 L 521 296 L 513 291 L 510 288 L 510 286 L 511 285 L 511 279 L 507 275 L 500 272 L 498 270 L 498 265 L 497 263 L 494 260 L 493 260 L 488 256 L 485 255 L 482 252 L 483 250 L 483 247 L 482 245 L 476 240 L 462 234 L 458 230 L 457 226 L 451 221 L 451 216 L 452 214 L 458 208 L 460 204 L 462 193 L 468 188 L 469 186 L 469 183 L 470 182 L 470 176 L 469 175 L 469 171 L 468 170 L 468 168 L 473 163 L 473 155 L 470 148 L 467 144 L 467 142 L 471 138 L 471 132 L 469 128 L 460 120 L 460 115 L 459 114 L 459 112 L 454 103 L 454 101 L 447 87 L 445 85 L 445 84 L 456 73 L 459 66 L 459 63 L 460 62 L 460 51 L 459 50 L 459 44 L 458 43 L 457 38 L 454 32 L 449 26 L 448 26 L 439 19 Z M 429 21 L 438 26 L 446 34 L 446 35 L 450 40 L 452 47 L 453 48 L 453 60 L 452 61 L 451 66 L 448 71 L 441 78 L 440 78 L 436 82 L 438 87 L 440 89 L 449 109 L 453 114 L 453 117 L 449 120 L 451 122 L 457 125 L 463 131 L 464 134 L 460 137 L 454 137 L 454 139 L 460 145 L 460 146 L 466 154 L 466 159 L 464 161 L 462 161 L 458 159 L 457 160 L 459 163 L 459 166 L 462 172 L 462 175 L 463 176 L 463 182 L 461 184 L 459 184 L 456 181 L 455 182 L 455 196 L 454 197 L 454 200 L 451 203 L 450 203 L 448 201 L 447 202 L 446 209 L 443 215 L 443 217 L 441 219 L 437 226 L 442 229 L 444 229 L 446 231 L 446 232 L 444 234 L 446 236 L 460 240 L 468 244 L 470 246 L 470 248 L 469 249 L 466 249 L 464 250 L 464 251 L 479 258 L 492 268 L 492 269 L 490 271 L 485 271 L 484 273 L 501 281 L 503 283 L 503 285 L 501 287 L 497 287 L 496 288 L 516 301 L 522 307 L 522 308 L 520 310 L 514 310 L 514 312 L 522 319 L 523 319 L 541 337 L 541 338 L 539 340 L 533 339 L 532 338 L 531 340 L 539 349 L 546 360 L 549 363 L 549 367 L 548 368 L 546 368 L 545 367 L 543 368 L 546 372 L 547 375 L 549 377 L 550 380 L 552 382 L 556 390 L 556 392 L 554 394 L 552 394 L 551 396 L 555 404 L 555 406 L 556 407 L 556 409 L 557 410 L 557 412 L 560 419 L 560 423 L 561 424 L 561 426 L 557 429 L 557 434 L 558 435 L 558 438 L 559 439 L 559 457 L 558 458 L 558 462 L 557 463 L 557 466 L 556 467 L 556 470 L 554 473 L 554 475 L 552 477 L 550 481 L 546 485 L 545 485 L 542 488 L 537 490 L 535 488 L 536 482 L 537 481 L 537 476 L 536 476 L 530 490 L 525 495 L 524 495 L 522 497 L 519 497 L 516 499 L 511 499 L 507 495 L 508 490 L 510 487 L 510 485 L 512 481 L 512 478 L 511 478 L 507 483 L 506 486 L 500 493 L 498 494 L 491 494 L 490 493 L 486 492 L 484 490 L 483 490 L 478 484 L 478 482 L 482 477 L 483 473 L 485 470 L 485 465 L 486 464 L 485 461 L 484 461 L 482 463 L 482 465 L 480 467 L 479 470 L 474 474 L 469 474 L 465 472 L 460 466 L 460 464 L 459 463 L 459 450 L 465 436 L 465 429 L 464 428 L 464 425 L 463 424 L 463 421 L 462 420 L 462 414 L 461 413 L 461 409 L 460 408 L 460 403 L 459 402 L 459 398 L 458 397 L 457 389 L 456 388 L 453 377 L 451 374 L 451 372 L 447 364 L 441 357 L 434 346 L 427 339 L 425 340 L 428 348 L 432 353 L 437 363 L 441 368 L 443 372 L 443 374 L 445 377 L 445 379 L 447 382 L 447 385 L 448 386 L 449 392 L 450 393 L 450 396 L 451 397 L 452 407 L 453 408 L 453 411 L 454 412 L 454 415 L 455 416 L 455 419 L 456 420 L 456 423 L 457 424 L 458 434 L 452 448 L 452 463 L 453 464 L 453 467 L 457 475 L 461 479 L 470 483 L 472 485 L 472 490 L 473 491 L 473 493 L 477 497 L 493 503 L 496 506 L 496 509 L 498 513 L 498 517 L 496 519 L 494 518 L 493 519 L 493 521 L 497 529 L 499 531 L 500 535 L 501 536 L 501 539 L 499 541 L 495 539 L 493 539 L 493 541 L 503 561 L 503 564 L 501 566 L 497 564 L 498 568 L 499 569 L 499 573 L 498 574 L 498 582 L 499 583 L 499 595 L 500 596 L 500 601 L 499 602 L 499 624 L 498 625 L 498 635 L 500 637 L 508 641 L 516 650 L 517 654 L 518 655 L 518 661 L 519 662 L 517 672 L 511 678 L 509 679 L 505 679 L 504 678 L 504 668 L 503 667 L 502 662 L 499 659 L 497 659 L 496 660 L 496 663 L 497 664 L 497 667 L 498 668 L 498 678 L 494 682 L 492 682 L 491 683 L 487 683 L 486 684 L 479 684 L 477 682 L 477 679 L 478 678 L 478 672 L 477 671 L 477 667 L 476 666 L 476 664 L 474 662 L 471 662 L 470 663 L 471 683 L 469 685 L 447 685 L 445 683 L 445 666 L 443 663 L 440 663 L 438 667 L 438 673 L 439 674 L 439 683 L 437 685 L 433 685 L 432 684 L 425 684 L 424 683 L 419 683 L 418 682 L 415 682 L 414 681 L 407 679 L 400 673 L 397 666 L 397 653 L 398 652 L 398 648 L 399 647 L 398 636 L 396 633 L 394 635 L 393 635 L 391 633 L 390 631 L 390 626 L 389 625 L 389 616 L 388 615 L 386 615 L 384 613 L 384 609 L 383 608 L 383 598 L 381 596 L 380 597 L 378 597 L 376 595 L 376 593 L 368 577 L 368 574 L 367 572 L 373 566 L 373 565 L 372 564 L 368 564 L 367 565 L 361 566 L 360 567 L 342 567 L 341 566 L 335 566 L 334 565 L 323 564 L 322 563 L 314 562 L 313 561 L 307 561 L 306 563 L 313 567 L 315 567 L 322 570 L 325 570 L 326 571 L 331 571 L 332 572 L 334 572 L 336 574 L 336 578 L 335 579 L 335 583 L 334 584 L 335 598 L 333 600 L 331 599 L 329 600 L 329 602 L 330 603 L 330 608 L 331 609 L 331 615 L 332 616 L 332 629 L 330 631 L 328 631 L 327 630 L 326 631 L 327 633 L 327 638 L 328 639 L 328 657 L 325 663 L 321 667 L 317 669 L 311 670 L 310 671 L 306 671 L 305 672 L 294 673 L 293 674 L 285 674 L 284 675 L 277 675 L 276 676 L 241 676 L 239 674 L 239 662 L 241 658 L 241 654 L 239 653 L 236 655 L 234 659 L 234 662 L 233 663 L 233 673 L 231 675 L 227 675 L 226 674 L 221 674 L 220 673 L 217 673 L 214 670 L 214 659 L 217 652 L 217 650 L 216 649 L 214 649 L 211 652 L 210 656 L 209 657 L 209 668 L 207 670 L 205 670 L 199 665 L 199 663 L 198 662 L 198 650 L 199 649 L 199 646 L 202 640 L 208 634 L 213 631 L 215 631 L 219 629 L 223 629 L 224 628 L 232 628 L 233 627 L 227 617 L 227 615 L 225 611 L 225 608 L 223 604 L 222 597 L 221 596 L 221 591 L 220 590 L 218 590 L 216 588 L 216 583 L 217 582 L 218 573 L 216 573 L 214 575 L 213 575 L 211 573 L 212 562 L 213 561 L 215 550 L 217 546 L 215 545 L 211 547 L 209 545 L 210 541 L 212 538 L 212 536 L 214 533 L 214 531 L 216 528 L 215 526 L 212 526 L 210 524 L 215 512 L 218 509 L 220 511 L 221 511 L 222 509 L 213 493 L 211 484 L 207 485 L 205 483 L 205 479 L 204 478 L 204 476 L 205 475 L 205 462 L 204 461 L 202 463 L 199 460 L 200 450 L 201 449 L 203 438 L 205 434 L 205 430 L 200 432 L 197 429 L 198 425 L 210 402 L 209 401 L 204 401 L 202 399 L 207 389 L 215 378 L 214 377 L 211 377 L 209 375 L 210 374 L 211 370 L 215 365 L 218 359 L 218 357 L 219 356 L 219 352 L 221 348 L 222 340 L 223 339 L 223 336 L 224 335 L 224 332 L 225 331 L 225 327 L 226 326 L 228 318 L 230 315 L 230 312 L 227 313 L 223 317 L 223 319 L 222 320 L 222 327 L 217 334 L 217 336 L 215 340 L 215 343 L 213 347 L 212 356 L 205 371 L 205 382 L 200 389 L 199 393 L 196 397 L 196 399 L 195 400 L 195 404 L 194 405 L 194 408 L 193 410 L 188 415 L 186 415 L 181 418 L 179 418 L 168 424 L 166 424 L 163 426 L 158 427 L 155 429 L 152 429 L 146 432 L 137 440 L 137 441 L 131 448 L 129 452 L 113 467 L 109 469 L 104 469 L 96 465 L 91 461 L 91 458 L 90 457 L 90 454 L 89 453 L 87 454 L 87 459 L 84 462 L 82 462 L 79 464 L 73 464 L 71 462 L 70 458 L 71 456 L 80 447 L 83 442 L 83 440 L 81 440 L 72 445 L 64 454 L 58 454 L 56 453 L 53 450 L 53 447 L 57 443 L 58 443 L 59 441 L 56 441 L 52 437 L 52 434 L 53 432 L 57 428 L 60 427 L 65 422 L 65 421 L 62 419 L 58 419 L 57 420 L 50 420 L 47 417 L 47 412 L 52 407 L 58 404 L 64 399 L 64 389 L 59 385 L 58 381 L 59 380 L 59 378 L 65 372 L 69 371 L 70 370 L 73 370 L 74 369 L 87 368 L 88 367 L 95 367 L 96 366 L 99 366 L 105 363 L 119 351 L 120 351 L 132 341 L 137 338 L 147 328 L 154 325 L 155 324 L 155 319 L 161 313 L 165 311 L 167 311 L 170 309 L 172 309 L 177 304 L 177 300 L 176 298 L 180 294 L 182 294 L 184 292 L 189 292 L 190 291 L 195 290 L 198 287 L 193 283 L 193 282 L 195 280 L 199 279 L 204 276 L 207 276 L 210 274 L 217 272 L 220 269 L 218 265 L 221 262 L 225 260 L 228 260 L 229 259 L 232 259 L 233 258 L 238 257 L 240 255 L 240 250 L 245 246 L 247 246 L 248 247 L 249 246 L 248 244 L 247 244 L 242 239 L 238 237 L 235 234 L 233 229 L 231 229 L 229 231 L 223 225 L 221 221 L 220 213 L 219 212 L 218 212 L 216 214 L 214 214 L 211 211 L 208 205 L 208 193 L 209 192 L 209 190 L 203 190 L 201 188 L 201 177 L 202 176 L 204 168 L 203 167 L 202 168 L 200 168 L 197 165 L 197 162 L 200 155 L 204 150 L 204 147 L 202 148 L 198 148 L 196 146 L 196 144 L 197 143 L 197 141 L 208 130 L 208 119 L 218 99 L 218 98 L 216 96 L 212 94 L 205 88 L 199 76 L 199 64 L 200 63 L 201 57 L 206 48 L 214 41 L 218 39 L 220 39 L 223 37 L 226 37 L 227 36 L 235 35 L 236 36 L 240 36 L 241 37 L 245 38 L 255 47 L 257 51 L 260 51 L 262 49 L 265 48 L 267 46 L 271 44 L 273 44 L 276 42 L 280 42 L 281 41 L 283 41 L 287 36 L 305 36 L 306 35 L 306 32 L 304 29 L 304 27 L 307 24 L 312 24 L 319 28 L 322 31 L 325 31 L 330 26 L 337 22 L 341 22 L 343 24 L 343 26 L 341 30 L 341 33 L 343 33 L 344 32 L 358 32 L 359 33 L 364 33 L 365 34 L 372 35 L 373 36 L 378 37 L 383 40 L 385 40 L 388 34 L 397 25 L 405 21 L 407 21 L 408 20 L 412 20 L 413 19 L 422 19 L 423 20 Z" fill="#010101" fill-rule="evenodd"/></svg>