<svg xmlns="http://www.w3.org/2000/svg" viewBox="0 0 653 704" shape-rendering="geometricPrecision"><title>intro frame 068</title><path d="M 450 558 L 448 558 L 447 560 L 443 563 L 443 568 L 444 569 L 449 569 L 450 567 L 454 564 L 454 562 Z M 211 500 L 201 510 L 201 512 L 198 518 L 192 525 L 190 529 L 190 533 L 193 536 L 192 540 L 184 552 L 180 561 L 180 563 L 177 568 L 177 574 L 184 578 L 193 587 L 195 591 L 192 594 L 190 594 L 182 589 L 173 585 L 165 584 L 164 583 L 157 583 L 156 582 L 146 582 L 141 584 L 139 587 L 145 589 L 153 589 L 159 593 L 163 593 L 165 594 L 170 601 L 169 613 L 173 617 L 179 619 L 181 621 L 189 625 L 191 625 L 210 634 L 212 634 L 217 638 L 219 638 L 224 641 L 227 639 L 228 635 L 230 633 L 230 629 L 232 627 L 234 621 L 234 618 L 238 609 L 239 597 L 241 593 L 246 590 L 247 584 L 250 579 L 250 575 L 251 573 L 254 570 L 259 569 L 263 564 L 265 560 L 265 554 L 262 549 L 262 546 L 261 546 L 255 539 L 246 532 L 227 512 L 220 508 L 215 500 Z M 356 489 L 355 490 L 355 496 L 357 497 L 357 490 Z M 63 333 L 63 335 L 66 335 L 68 337 L 73 339 L 84 340 L 86 338 L 85 336 L 83 336 L 81 334 L 79 334 L 71 330 L 69 327 L 67 327 Z M 80 273 L 68 273 L 67 282 L 59 289 L 59 294 L 63 300 L 62 314 L 64 314 L 65 299 L 68 292 L 68 289 L 72 282 L 80 275 Z M 89 337 L 92 340 L 95 341 L 117 343 L 119 345 L 125 345 L 126 346 L 142 348 L 143 349 L 149 349 L 150 350 L 168 350 L 169 349 L 173 349 L 178 347 L 182 347 L 187 344 L 191 344 L 194 342 L 197 342 L 201 338 L 201 335 L 203 332 L 204 327 L 208 320 L 208 308 L 214 300 L 216 294 L 221 288 L 221 282 L 223 280 L 224 276 L 227 273 L 228 270 L 228 261 L 226 261 L 221 266 L 210 268 L 209 269 L 212 271 L 211 273 L 207 276 L 200 277 L 197 275 L 188 272 L 182 272 L 186 278 L 183 282 L 173 281 L 169 279 L 165 279 L 163 277 L 158 277 L 154 282 L 152 282 L 140 278 L 127 278 L 125 277 L 122 274 L 121 262 L 119 259 L 118 260 L 117 271 L 113 275 L 106 275 L 100 271 L 97 265 L 97 261 L 96 260 L 91 260 L 89 258 L 88 259 L 89 261 L 89 267 L 85 271 L 85 273 L 94 273 L 103 276 L 105 278 L 110 280 L 116 286 L 117 289 L 117 301 L 113 309 L 112 314 L 110 316 L 110 318 L 104 327 L 98 333 Z M 424 19 L 412 19 L 403 23 L 396 29 L 392 36 L 392 39 L 389 42 L 386 42 L 380 39 L 377 39 L 374 37 L 364 36 L 363 35 L 347 35 L 346 36 L 340 36 L 338 34 L 339 27 L 337 26 L 327 35 L 317 29 L 312 29 L 313 35 L 309 39 L 306 39 L 305 40 L 300 40 L 299 39 L 297 40 L 292 40 L 287 45 L 281 46 L 270 52 L 264 59 L 260 59 L 258 57 L 256 52 L 250 46 L 244 43 L 239 42 L 238 43 L 227 44 L 220 48 L 214 54 L 209 63 L 209 67 L 208 68 L 208 79 L 211 86 L 218 94 L 224 95 L 228 98 L 227 105 L 225 107 L 225 109 L 223 112 L 223 114 L 219 123 L 219 126 L 221 132 L 210 144 L 210 145 L 215 145 L 217 147 L 216 153 L 214 156 L 214 158 L 212 160 L 212 163 L 211 164 L 212 165 L 213 164 L 216 164 L 218 166 L 218 170 L 215 178 L 215 186 L 220 184 L 224 189 L 224 192 L 223 193 L 223 207 L 225 210 L 226 207 L 230 204 L 233 207 L 234 215 L 236 220 L 238 219 L 242 219 L 248 226 L 251 226 L 254 228 L 257 228 L 261 232 L 263 232 L 267 235 L 276 244 L 277 246 L 277 252 L 276 253 L 272 253 L 264 248 L 261 248 L 258 249 L 256 251 L 254 251 L 241 265 L 242 267 L 241 271 L 236 275 L 229 283 L 233 288 L 231 292 L 227 295 L 228 301 L 223 311 L 224 318 L 222 321 L 222 323 L 220 325 L 219 329 L 221 330 L 226 327 L 231 326 L 233 328 L 233 331 L 223 347 L 216 355 L 212 362 L 212 365 L 214 365 L 216 367 L 216 371 L 214 373 L 214 375 L 212 377 L 208 385 L 213 389 L 213 392 L 202 414 L 202 416 L 203 416 L 206 413 L 210 417 L 210 423 L 207 429 L 204 446 L 205 446 L 207 441 L 209 440 L 211 444 L 211 460 L 212 461 L 215 460 L 217 462 L 217 471 L 219 477 L 222 481 L 227 485 L 227 487 L 232 486 L 235 489 L 237 493 L 239 493 L 241 495 L 244 495 L 245 496 L 247 496 L 246 494 L 245 486 L 244 485 L 244 467 L 246 463 L 246 459 L 249 458 L 251 460 L 251 484 L 253 487 L 254 492 L 260 500 L 262 505 L 266 505 L 269 508 L 270 512 L 272 514 L 274 519 L 275 519 L 273 515 L 273 511 L 271 506 L 273 503 L 275 503 L 277 505 L 280 513 L 284 518 L 293 527 L 301 532 L 303 531 L 303 529 L 307 525 L 315 526 L 325 513 L 327 513 L 329 517 L 329 528 L 327 530 L 327 531 L 329 532 L 337 524 L 338 524 L 340 521 L 338 514 L 342 512 L 341 508 L 344 505 L 344 499 L 346 496 L 346 491 L 342 486 L 342 482 L 336 481 L 335 484 L 333 486 L 330 486 L 326 480 L 326 475 L 314 464 L 309 462 L 300 455 L 298 451 L 288 439 L 288 436 L 282 426 L 281 421 L 278 417 L 278 414 L 272 406 L 271 400 L 270 399 L 270 389 L 275 379 L 275 373 L 276 372 L 275 368 L 280 360 L 289 352 L 300 347 L 304 347 L 305 346 L 311 345 L 321 339 L 324 336 L 327 335 L 328 333 L 330 332 L 327 327 L 325 326 L 320 326 L 318 324 L 316 324 L 314 322 L 314 319 L 311 319 L 310 318 L 310 315 L 307 313 L 307 311 L 309 309 L 311 309 L 316 315 L 318 315 L 326 321 L 330 321 L 333 323 L 335 321 L 334 318 L 335 307 L 337 305 L 340 305 L 341 306 L 344 306 L 349 312 L 346 317 L 347 318 L 346 320 L 351 318 L 354 315 L 356 311 L 356 306 L 353 298 L 353 291 L 355 289 L 359 292 L 360 295 L 366 301 L 369 309 L 377 304 L 382 309 L 385 309 L 388 312 L 388 314 L 385 318 L 381 320 L 376 325 L 374 325 L 371 328 L 368 328 L 366 330 L 362 331 L 343 344 L 341 344 L 339 346 L 329 350 L 322 356 L 312 360 L 306 360 L 297 363 L 295 366 L 291 369 L 292 371 L 295 369 L 302 369 L 304 371 L 303 376 L 299 382 L 299 385 L 305 390 L 306 393 L 306 400 L 302 406 L 300 415 L 303 419 L 309 419 L 318 409 L 321 407 L 325 407 L 326 406 L 329 408 L 329 415 L 327 417 L 325 423 L 329 426 L 336 426 L 337 425 L 347 424 L 350 422 L 353 422 L 360 418 L 365 413 L 374 410 L 377 406 L 383 404 L 390 399 L 394 397 L 400 397 L 408 391 L 417 388 L 420 385 L 431 379 L 434 375 L 440 376 L 439 374 L 440 372 L 447 370 L 448 368 L 454 363 L 454 360 L 456 358 L 457 355 L 457 350 L 460 347 L 464 349 L 467 348 L 466 343 L 468 339 L 468 332 L 462 320 L 460 318 L 460 315 L 464 312 L 465 313 L 464 308 L 461 305 L 461 303 L 457 299 L 455 294 L 453 292 L 451 286 L 443 277 L 443 275 L 446 272 L 448 272 L 448 270 L 442 264 L 434 258 L 433 255 L 435 252 L 419 242 L 403 243 L 396 248 L 394 248 L 392 246 L 391 243 L 387 245 L 387 247 L 382 252 L 380 250 L 381 243 L 387 236 L 394 232 L 397 228 L 402 227 L 408 221 L 414 222 L 416 220 L 414 210 L 415 209 L 421 209 L 420 204 L 424 199 L 428 199 L 429 200 L 430 199 L 423 191 L 423 189 L 425 187 L 428 187 L 434 190 L 435 188 L 432 183 L 432 181 L 434 179 L 437 178 L 443 180 L 443 178 L 437 171 L 437 169 L 439 167 L 443 167 L 443 165 L 439 161 L 437 157 L 439 155 L 445 155 L 446 156 L 454 155 L 455 156 L 458 156 L 459 155 L 458 152 L 459 149 L 464 145 L 463 141 L 454 131 L 454 127 L 457 124 L 460 124 L 461 122 L 454 118 L 449 113 L 449 110 L 451 108 L 451 106 L 445 98 L 441 88 L 432 76 L 435 72 L 439 71 L 442 69 L 449 59 L 449 54 L 451 50 L 450 42 L 447 35 L 440 27 L 431 21 L 425 20 Z M 230 437 L 233 440 L 233 443 L 232 444 L 232 457 L 231 458 L 231 463 L 230 464 L 227 464 L 225 462 L 225 455 L 224 452 L 225 451 L 226 441 Z M 227 412 L 229 414 L 229 418 L 223 430 L 220 431 L 218 429 L 219 421 L 222 416 Z M 252 337 L 254 334 L 256 334 L 258 336 L 256 338 L 253 338 Z M 282 333 L 285 336 L 285 338 L 281 341 L 279 341 L 277 338 L 278 336 Z M 254 315 L 255 316 L 254 319 L 249 323 L 247 321 L 247 319 L 251 315 Z M 288 304 L 290 306 L 290 308 L 287 311 L 282 313 L 280 310 L 285 305 Z M 281 293 L 283 295 L 279 301 L 273 307 L 272 307 L 270 305 L 270 302 L 277 293 Z M 375 240 L 375 244 L 373 248 L 364 257 L 363 257 L 356 264 L 352 266 L 344 274 L 339 274 L 334 277 L 326 277 L 323 276 L 321 274 L 319 274 L 300 261 L 293 253 L 293 248 L 295 246 L 302 246 L 311 249 L 329 249 L 330 248 L 335 248 L 336 247 L 345 246 L 357 242 L 361 242 L 366 239 L 369 239 L 370 238 L 373 238 Z M 359 127 L 365 120 L 374 116 L 392 116 L 396 118 L 400 118 L 406 122 L 410 127 L 411 135 L 408 141 L 399 147 L 391 147 L 390 148 L 388 147 L 381 147 L 372 144 L 365 140 L 359 133 Z M 318 109 L 318 114 L 317 115 L 312 115 L 311 114 L 307 114 L 302 112 L 295 112 L 286 115 L 282 112 L 282 110 L 285 107 L 291 104 L 294 104 L 295 103 L 303 103 L 304 102 L 309 103 L 311 105 L 315 106 Z M 264 96 L 268 96 L 274 103 L 275 110 L 274 111 L 273 118 L 289 116 L 290 117 L 295 117 L 298 119 L 300 119 L 307 123 L 311 128 L 311 136 L 309 141 L 301 149 L 299 149 L 297 151 L 293 153 L 290 153 L 285 156 L 275 155 L 273 153 L 267 151 L 259 143 L 259 142 L 258 142 L 257 144 L 257 155 L 259 159 L 265 163 L 273 163 L 277 160 L 279 160 L 282 157 L 286 157 L 294 160 L 298 160 L 304 162 L 317 162 L 318 161 L 324 160 L 338 153 L 341 150 L 343 145 L 347 141 L 350 142 L 354 146 L 357 153 L 357 169 L 358 170 L 358 177 L 357 178 L 357 187 L 356 188 L 354 199 L 352 202 L 349 211 L 343 219 L 339 223 L 325 231 L 322 232 L 310 232 L 304 230 L 298 227 L 282 211 L 270 193 L 265 175 L 255 170 L 248 162 L 245 154 L 245 148 L 244 148 L 237 155 L 233 157 L 225 157 L 222 155 L 219 151 L 220 140 L 226 133 L 229 132 L 231 130 L 240 128 L 241 129 L 245 129 L 249 134 L 252 134 L 256 132 L 257 129 L 259 127 L 259 125 L 255 121 L 255 109 L 258 102 Z M 346 91 L 352 91 L 354 92 L 358 96 L 360 100 L 361 112 L 358 119 L 353 124 L 346 124 L 341 119 L 339 114 L 339 102 L 342 95 Z M 280 63 L 280 67 L 277 70 L 273 71 L 271 73 L 269 73 L 264 78 L 259 78 L 256 74 L 257 70 L 259 66 L 266 58 L 268 57 L 275 58 Z M 241 56 L 244 58 L 251 65 L 251 66 L 244 74 L 237 85 L 233 89 L 230 90 L 220 81 L 219 79 L 219 70 L 223 62 L 231 56 Z M 343 55 L 349 48 L 354 48 L 363 52 L 368 57 L 369 59 L 369 63 L 365 68 L 359 67 L 356 64 L 354 64 L 351 62 L 347 62 L 343 58 Z M 416 32 L 424 32 L 432 36 L 438 43 L 440 49 L 439 57 L 437 61 L 432 66 L 428 68 L 425 68 L 417 60 L 408 54 L 403 49 L 404 42 L 410 36 Z" fill="#FBFBFB" fill-rule="evenodd"/><path d="M 440 628 L 443 629 L 463 630 L 464 631 L 475 631 L 476 632 L 493 631 L 498 635 L 501 641 L 501 643 L 505 650 L 512 656 L 506 651 L 502 644 L 502 642 L 500 639 L 500 637 L 498 635 L 498 633 L 494 630 L 477 632 L 476 631 L 468 631 L 467 630 L 460 630 L 459 629 L 443 629 Z M 150 600 L 147 603 L 145 610 L 146 611 L 150 611 L 152 612 L 153 611 L 152 601 Z M 415 595 L 414 596 L 416 599 L 416 601 L 418 603 L 420 599 Z M 128 592 L 129 594 L 132 594 L 137 590 L 142 590 L 149 593 L 151 595 L 157 595 L 158 594 L 164 595 L 168 599 L 165 595 L 163 594 L 159 594 L 153 590 L 145 590 L 144 589 L 141 589 L 138 587 L 141 583 L 145 582 L 142 582 L 139 584 L 137 584 L 134 587 L 131 588 Z M 388 564 L 387 565 L 388 568 L 392 571 L 393 569 L 392 564 Z M 174 526 L 173 528 L 173 538 L 172 539 L 172 542 L 167 550 L 167 552 L 165 554 L 165 557 L 162 564 L 162 567 L 160 569 L 156 569 L 157 570 L 161 570 L 162 569 L 166 554 L 174 537 L 173 535 L 173 529 Z M 200 511 L 198 516 L 193 522 L 188 531 L 188 534 L 190 536 L 190 541 L 184 551 L 192 537 L 189 533 L 189 529 L 193 522 L 197 518 Z M 482 505 L 476 509 L 476 512 L 473 515 L 473 519 L 471 521 L 471 525 L 469 527 L 463 530 L 460 534 L 456 535 L 453 538 L 450 539 L 446 542 L 444 545 L 442 545 L 437 549 L 433 550 L 431 552 L 431 554 L 423 563 L 423 569 L 424 570 L 424 575 L 425 576 L 425 585 L 426 586 L 426 589 L 431 594 L 433 593 L 435 595 L 435 598 L 430 602 L 430 604 L 432 607 L 435 609 L 438 609 L 441 611 L 444 611 L 445 612 L 452 612 L 453 613 L 452 609 L 454 605 L 454 602 L 450 599 L 450 595 L 452 593 L 501 593 L 504 597 L 509 597 L 510 595 L 513 593 L 515 595 L 514 607 L 518 610 L 520 610 L 523 613 L 523 616 L 517 622 L 513 628 L 513 634 L 514 637 L 517 640 L 517 642 L 523 648 L 525 649 L 530 649 L 531 648 L 532 639 L 534 637 L 537 637 L 546 645 L 556 645 L 557 644 L 557 641 L 552 636 L 551 633 L 551 627 L 552 625 L 556 622 L 562 625 L 565 625 L 568 621 L 568 581 L 566 577 L 566 571 L 562 559 L 557 553 L 555 548 L 552 545 L 548 543 L 543 543 L 542 544 L 533 544 L 532 543 L 529 543 L 525 548 L 521 549 L 518 546 L 516 541 L 511 536 L 508 535 L 504 529 L 498 527 L 495 524 L 494 513 L 492 509 L 488 506 Z M 450 557 L 455 562 L 455 564 L 452 566 L 449 570 L 444 570 L 442 568 L 442 563 L 445 561 L 448 557 Z M 213 497 L 201 509 L 211 499 L 215 499 L 219 504 L 220 507 L 227 511 L 246 531 L 255 538 L 261 544 L 261 545 L 263 546 L 263 549 L 266 554 L 266 560 L 264 564 L 259 570 L 254 571 L 251 575 L 251 579 L 248 584 L 247 590 L 245 592 L 242 593 L 240 597 L 239 609 L 236 615 L 233 627 L 231 629 L 231 633 L 229 635 L 228 639 L 224 642 L 219 639 L 217 639 L 212 635 L 210 635 L 203 631 L 201 631 L 196 628 L 189 626 L 181 622 L 179 620 L 173 618 L 168 613 L 169 601 L 169 607 L 167 610 L 166 616 L 168 618 L 170 618 L 175 621 L 178 621 L 184 625 L 187 625 L 190 628 L 192 628 L 194 630 L 199 632 L 210 642 L 216 645 L 223 650 L 224 649 L 225 650 L 226 648 L 229 647 L 233 652 L 238 652 L 243 648 L 246 647 L 250 639 L 250 632 L 248 630 L 243 630 L 240 632 L 237 629 L 236 625 L 238 621 L 238 618 L 240 616 L 241 612 L 245 605 L 245 603 L 247 601 L 248 592 L 250 589 L 250 586 L 252 584 L 253 580 L 259 574 L 260 574 L 266 567 L 266 565 L 271 557 L 271 550 L 268 547 L 267 544 L 247 522 L 241 520 L 235 514 L 231 508 L 229 508 L 223 505 L 215 497 Z M 425 485 L 423 485 L 423 488 L 421 490 L 421 496 L 422 496 L 425 492 L 425 488 L 426 487 Z M 199 480 L 200 483 L 200 489 L 191 496 L 188 500 L 188 503 L 188 501 L 190 498 L 202 488 L 202 486 Z M 518 456 L 513 462 L 512 462 L 498 475 L 497 478 L 497 477 L 509 465 L 510 465 Z M 230 438 L 227 441 L 226 451 L 225 452 L 226 455 L 226 462 L 227 463 L 230 463 L 230 458 L 231 457 L 231 444 L 232 443 L 232 440 Z M 505 423 L 504 424 L 504 429 L 505 430 L 505 436 L 507 438 L 508 437 L 508 427 Z M 204 438 L 203 448 L 204 449 L 207 445 L 210 446 L 210 465 L 209 467 L 211 468 L 211 466 L 213 464 L 215 465 L 217 477 L 220 483 L 225 487 L 229 492 L 233 491 L 235 493 L 235 495 L 240 503 L 244 500 L 247 503 L 251 510 L 255 514 L 257 515 L 259 514 L 256 511 L 249 495 L 249 490 L 251 489 L 261 504 L 264 513 L 272 523 L 274 523 L 281 529 L 282 528 L 274 513 L 274 510 L 276 509 L 282 518 L 295 531 L 302 535 L 305 534 L 307 530 L 309 530 L 312 533 L 314 533 L 320 527 L 321 524 L 324 521 L 326 521 L 327 523 L 324 532 L 324 534 L 326 536 L 330 536 L 342 525 L 345 525 L 346 526 L 346 530 L 344 533 L 344 536 L 345 537 L 348 537 L 356 532 L 357 529 L 359 527 L 359 525 L 361 523 L 362 519 L 365 516 L 367 517 L 367 521 L 369 523 L 372 520 L 372 518 L 377 510 L 379 511 L 379 522 L 381 523 L 383 521 L 388 519 L 392 515 L 398 506 L 398 504 L 402 501 L 404 503 L 404 510 L 403 511 L 403 514 L 404 515 L 408 511 L 408 509 L 411 505 L 411 502 L 414 495 L 413 488 L 412 487 L 399 487 L 397 488 L 393 486 L 388 486 L 378 482 L 371 482 L 359 476 L 353 475 L 338 468 L 332 468 L 326 465 L 323 465 L 321 463 L 314 460 L 307 452 L 307 451 L 310 450 L 311 448 L 305 443 L 301 442 L 299 440 L 294 438 L 288 432 L 283 424 L 282 420 L 279 415 L 279 417 L 282 421 L 283 426 L 289 436 L 289 439 L 293 443 L 294 446 L 299 451 L 301 455 L 309 461 L 314 463 L 327 475 L 327 480 L 330 485 L 333 485 L 334 482 L 336 480 L 342 481 L 343 482 L 343 486 L 347 491 L 347 496 L 345 499 L 345 505 L 342 508 L 343 512 L 341 514 L 339 514 L 341 521 L 338 525 L 328 533 L 326 531 L 328 528 L 328 517 L 327 514 L 325 514 L 323 516 L 322 519 L 315 527 L 307 526 L 304 529 L 304 531 L 301 533 L 293 528 L 283 518 L 279 513 L 275 504 L 272 505 L 274 511 L 274 515 L 276 518 L 275 520 L 273 519 L 271 514 L 269 512 L 268 508 L 266 506 L 262 506 L 259 500 L 253 492 L 252 487 L 250 484 L 250 460 L 249 459 L 247 459 L 247 463 L 245 467 L 245 485 L 246 486 L 246 490 L 248 496 L 245 497 L 244 496 L 241 496 L 239 494 L 237 494 L 232 487 L 227 488 L 226 485 L 222 482 L 218 477 L 216 471 L 216 462 L 215 461 L 212 462 L 210 460 L 210 444 L 209 441 L 208 441 L 205 447 L 203 446 Z M 356 488 L 358 490 L 358 497 L 357 498 L 354 496 L 354 490 Z M 227 413 L 223 416 L 219 424 L 219 429 L 220 430 L 222 430 L 224 425 L 226 423 L 226 421 L 228 418 L 228 414 Z M 213 374 L 203 389 L 205 390 L 207 388 L 210 388 L 212 390 L 212 392 L 203 409 L 202 413 L 203 409 L 212 392 L 212 389 L 210 388 L 207 384 Z M 291 352 L 286 355 L 278 364 L 276 368 L 277 372 L 276 373 L 276 379 L 275 381 L 276 380 L 277 368 L 280 362 L 286 355 Z M 282 334 L 279 336 L 278 338 L 279 340 L 281 340 L 284 338 L 284 336 Z M 231 327 L 226 328 L 220 331 L 218 328 L 219 326 L 218 328 L 218 332 L 220 332 L 227 328 L 229 328 L 231 330 L 230 333 L 227 336 L 223 344 L 220 347 L 219 350 L 216 353 L 215 356 L 210 363 L 210 366 L 213 366 L 215 368 L 215 371 L 214 372 L 215 371 L 215 367 L 211 365 L 211 362 L 215 355 L 222 347 L 232 331 L 232 328 Z M 470 334 L 465 325 L 469 332 L 469 339 L 467 343 L 468 348 L 466 350 L 460 348 L 458 350 L 458 355 L 457 358 L 455 360 L 455 363 L 452 365 L 447 371 L 440 373 L 441 375 L 440 377 L 434 376 L 431 380 L 420 386 L 417 389 L 408 392 L 400 398 L 394 398 L 390 400 L 383 405 L 377 407 L 374 411 L 365 414 L 360 419 L 353 423 L 350 423 L 347 425 L 337 426 L 336 427 L 329 427 L 327 426 L 324 423 L 324 421 L 328 415 L 328 408 L 326 407 L 325 408 L 321 408 L 318 410 L 309 420 L 303 420 L 299 415 L 299 413 L 300 412 L 301 406 L 305 400 L 305 393 L 304 390 L 298 385 L 298 382 L 300 380 L 300 378 L 302 376 L 303 373 L 302 370 L 295 370 L 293 371 L 301 370 L 302 371 L 302 375 L 299 380 L 289 388 L 287 392 L 287 396 L 289 398 L 291 398 L 300 392 L 303 392 L 305 394 L 305 399 L 301 405 L 300 412 L 299 413 L 299 418 L 302 422 L 305 423 L 310 420 L 319 410 L 321 409 L 326 409 L 328 411 L 328 413 L 325 420 L 321 426 L 321 431 L 327 432 L 328 431 L 339 430 L 362 420 L 371 414 L 376 409 L 378 409 L 382 406 L 385 406 L 391 400 L 393 400 L 395 402 L 394 405 L 394 410 L 395 410 L 403 398 L 410 398 L 418 391 L 421 393 L 423 393 L 434 381 L 437 382 L 441 381 L 447 374 L 449 376 L 449 384 L 447 387 L 448 388 L 450 386 L 452 379 L 454 377 L 454 372 L 458 361 L 458 354 L 461 351 L 464 354 L 466 363 L 467 363 L 468 361 L 468 357 L 469 356 L 469 346 L 471 343 Z M 44 319 L 41 321 L 41 324 L 44 322 L 45 320 Z M 254 316 L 251 316 L 248 319 L 248 321 L 249 322 L 253 319 Z M 387 312 L 385 310 L 383 310 L 385 310 L 387 313 L 386 315 L 379 321 L 371 326 L 365 328 L 363 330 L 361 330 L 358 333 L 353 335 L 337 346 L 335 346 L 329 349 L 321 355 L 317 356 L 314 358 L 310 358 L 309 359 L 306 359 L 297 362 L 291 367 L 290 371 L 291 372 L 290 369 L 293 367 L 297 362 L 306 359 L 312 359 L 322 355 L 329 349 L 333 348 L 341 343 L 343 343 L 362 330 L 366 329 L 368 327 L 371 327 L 374 324 L 376 324 L 381 319 L 386 316 Z M 465 309 L 466 313 L 465 314 L 464 313 L 461 315 L 461 318 L 462 319 L 461 316 L 463 314 L 468 315 Z M 289 306 L 288 305 L 285 306 L 281 311 L 283 312 L 287 310 L 289 308 Z M 281 294 L 277 294 L 274 299 L 271 302 L 271 305 L 272 306 L 278 301 L 282 295 Z M 357 291 L 355 290 L 354 291 L 354 298 L 357 306 L 357 311 L 355 315 L 351 319 L 347 321 L 345 320 L 346 318 L 345 317 L 348 312 L 344 307 L 341 307 L 340 306 L 337 306 L 336 307 L 336 314 L 335 315 L 336 321 L 333 324 L 330 322 L 326 322 L 323 319 L 320 318 L 318 316 L 316 316 L 311 310 L 308 311 L 308 313 L 311 315 L 311 318 L 314 318 L 316 323 L 318 323 L 320 325 L 325 325 L 327 326 L 331 331 L 327 336 L 324 337 L 321 340 L 312 345 L 317 343 L 332 332 L 338 329 L 347 321 L 354 317 L 357 314 L 358 310 L 357 309 L 357 305 L 355 300 L 355 293 L 356 292 L 359 294 L 361 298 L 366 304 L 365 301 L 359 295 Z M 335 327 L 337 325 L 340 326 L 338 328 Z M 33 289 L 33 293 L 41 298 L 48 298 L 50 296 L 48 293 L 46 293 L 37 288 L 34 288 Z M 186 271 L 180 271 L 184 276 L 184 279 L 182 281 L 173 280 L 159 275 L 157 275 L 154 280 L 149 280 L 148 279 L 141 278 L 144 278 L 145 279 L 148 279 L 154 281 L 158 276 L 163 276 L 165 278 L 169 278 L 178 281 L 183 281 L 185 278 L 181 272 L 182 271 Z M 38 261 L 38 266 L 44 264 L 54 264 L 58 267 L 60 267 L 58 264 L 45 259 L 41 259 Z M 62 244 L 63 247 L 64 246 L 69 246 L 75 248 L 79 251 L 87 259 L 88 261 L 88 266 L 83 271 L 79 271 L 78 272 L 68 271 L 65 272 L 66 273 L 66 280 L 65 282 L 61 286 L 56 287 L 58 290 L 58 294 L 62 300 L 62 303 L 61 306 L 54 312 L 54 314 L 57 314 L 64 319 L 65 321 L 65 327 L 60 331 L 52 331 L 54 333 L 59 334 L 61 336 L 69 339 L 98 344 L 111 353 L 113 353 L 113 350 L 117 347 L 123 347 L 129 349 L 135 349 L 136 350 L 142 350 L 143 351 L 149 351 L 150 352 L 167 352 L 168 351 L 175 351 L 176 350 L 183 349 L 195 345 L 203 345 L 202 343 L 202 336 L 203 333 L 202 338 L 197 343 L 194 343 L 191 345 L 187 345 L 182 348 L 178 348 L 177 349 L 169 350 L 168 351 L 150 351 L 149 350 L 143 350 L 142 349 L 131 348 L 125 346 L 119 346 L 117 344 L 101 343 L 100 342 L 92 341 L 88 337 L 90 335 L 95 334 L 98 332 L 106 323 L 107 320 L 109 318 L 109 316 L 111 314 L 112 309 L 116 301 L 116 289 L 115 286 L 110 281 L 105 279 L 103 277 L 94 274 L 85 274 L 84 273 L 84 271 L 88 267 L 88 261 L 87 259 L 89 257 L 91 259 L 96 259 L 98 261 L 98 265 L 102 272 L 106 274 L 113 274 L 116 271 L 117 260 L 119 258 L 122 262 L 123 274 L 127 277 L 139 277 L 129 277 L 123 272 L 122 262 L 120 258 L 120 255 L 118 252 L 110 245 L 103 245 L 99 248 L 99 251 L 102 247 L 108 247 L 115 253 L 116 255 L 116 260 L 117 261 L 116 263 L 116 269 L 115 271 L 111 274 L 105 273 L 100 269 L 98 265 L 97 255 L 94 258 L 91 258 L 80 247 L 75 244 L 69 243 L 68 242 L 64 242 Z M 62 333 L 66 327 L 69 326 L 71 329 L 79 333 L 81 333 L 83 335 L 85 335 L 87 338 L 84 341 L 73 340 L 68 338 L 66 336 L 63 336 Z M 68 272 L 80 272 L 81 273 L 81 275 L 73 282 L 69 289 L 69 291 L 71 285 L 77 279 L 85 274 L 93 274 L 104 278 L 106 280 L 109 281 L 114 286 L 116 290 L 116 299 L 112 311 L 105 324 L 95 333 L 92 333 L 91 334 L 81 333 L 76 331 L 68 324 L 66 318 L 66 299 L 68 293 L 66 299 L 65 314 L 64 315 L 61 314 L 62 300 L 58 294 L 58 289 L 66 282 L 66 278 Z M 374 240 L 373 239 L 370 239 L 369 240 L 366 240 L 361 243 L 357 243 L 353 245 L 350 245 L 345 247 L 341 247 L 340 248 L 336 248 L 335 249 L 330 249 L 329 250 L 311 250 L 302 247 L 295 247 L 294 248 L 294 253 L 300 260 L 319 273 L 321 273 L 323 275 L 326 276 L 334 276 L 339 273 L 344 273 L 352 265 L 356 263 L 363 256 L 364 256 L 372 248 L 374 244 Z M 373 242 L 373 245 L 369 250 L 357 261 L 350 265 L 343 271 L 334 274 L 331 276 L 325 275 L 312 268 L 300 259 L 294 252 L 294 249 L 296 247 L 304 248 L 305 249 L 310 249 L 311 250 L 331 250 L 332 249 L 338 249 L 339 248 L 343 248 L 344 247 L 348 247 L 349 246 L 356 245 L 369 240 L 371 240 Z M 70 229 L 75 230 L 83 235 L 87 236 L 89 238 L 101 230 L 110 230 L 115 232 L 111 230 L 100 230 L 98 232 L 96 232 L 91 237 L 89 237 L 75 230 Z M 234 216 L 235 221 L 238 225 L 240 221 L 242 221 L 246 225 L 248 231 L 257 241 L 259 246 L 255 250 L 248 251 L 247 252 L 248 253 L 247 256 L 239 263 L 236 263 L 235 262 L 235 260 L 238 257 L 237 256 L 234 256 L 229 259 L 224 260 L 223 262 L 218 266 L 208 266 L 207 268 L 209 272 L 207 274 L 204 275 L 198 275 L 192 273 L 197 274 L 200 276 L 207 275 L 210 273 L 211 271 L 208 269 L 210 267 L 221 265 L 226 260 L 229 261 L 229 270 L 228 273 L 225 276 L 225 278 L 222 282 L 222 288 L 219 291 L 215 298 L 215 300 L 210 306 L 209 311 L 211 305 L 217 299 L 217 295 L 219 292 L 225 286 L 230 286 L 231 287 L 230 291 L 227 294 L 224 295 L 227 299 L 227 301 L 226 295 L 230 292 L 232 288 L 228 283 L 234 277 L 234 276 L 240 271 L 241 268 L 240 265 L 254 250 L 256 250 L 258 248 L 261 247 L 264 247 L 272 252 L 276 252 L 276 246 L 275 244 L 267 236 L 263 233 L 261 233 L 257 229 L 254 229 L 251 227 L 248 227 L 242 220 L 238 220 L 236 221 L 234 218 Z M 237 267 L 239 269 L 239 271 L 232 278 L 226 282 L 225 279 L 230 271 L 234 267 Z M 254 234 L 256 232 L 258 232 L 267 237 L 275 245 L 276 249 L 274 251 L 270 250 L 267 247 L 263 245 L 256 238 L 256 236 Z M 214 179 L 214 188 L 216 189 L 219 186 L 222 188 L 222 205 L 222 193 L 223 192 L 223 189 L 220 185 L 216 187 L 214 186 Z M 357 170 L 356 184 L 355 185 L 354 195 L 347 212 L 339 221 L 332 226 L 324 230 L 321 230 L 320 231 L 312 231 L 300 227 L 284 212 L 277 202 L 283 211 L 298 226 L 310 231 L 322 231 L 325 230 L 339 222 L 348 211 L 351 202 L 353 199 L 354 192 L 356 187 Z M 251 135 L 249 135 L 245 130 L 241 130 L 239 129 L 238 130 L 231 131 L 229 133 L 226 134 L 221 140 L 220 151 L 222 154 L 225 156 L 233 156 L 237 154 L 244 147 L 246 148 L 246 154 L 246 143 L 245 143 L 242 148 L 236 154 L 232 156 L 226 156 L 224 155 L 220 151 L 220 144 L 223 138 L 227 134 L 236 130 L 243 130 L 249 136 Z M 256 120 L 260 125 L 260 127 L 258 129 L 257 132 L 255 134 L 253 134 L 257 137 L 255 151 L 256 152 L 256 156 L 257 158 L 264 164 L 271 165 L 276 163 L 281 159 L 289 159 L 293 161 L 297 161 L 303 163 L 317 163 L 318 162 L 324 161 L 329 158 L 331 158 L 333 156 L 335 156 L 342 150 L 344 145 L 346 143 L 350 143 L 354 148 L 355 154 L 356 155 L 356 168 L 356 153 L 353 146 L 348 142 L 344 145 L 342 150 L 338 154 L 321 162 L 318 162 L 317 163 L 304 163 L 303 162 L 294 161 L 286 158 L 282 158 L 279 161 L 277 161 L 273 164 L 265 164 L 260 161 L 256 155 L 256 144 L 258 141 L 259 141 L 260 143 L 269 151 L 260 143 L 258 139 L 257 131 L 260 127 L 260 125 Z M 360 127 L 360 133 L 365 139 L 372 143 L 381 146 L 388 146 L 389 147 L 391 146 L 399 146 L 406 142 L 409 138 L 409 137 L 404 143 L 400 145 L 397 145 L 396 146 L 383 146 L 369 141 L 362 135 L 360 131 L 361 126 L 367 120 L 376 117 L 390 117 L 391 118 L 395 118 L 404 122 L 409 128 L 407 124 L 400 119 L 396 119 L 392 117 L 374 117 L 365 121 Z M 221 116 L 218 123 L 219 132 L 208 145 L 209 147 L 214 146 L 216 148 L 215 153 L 212 159 L 215 153 L 216 147 L 215 146 L 210 146 L 209 144 L 220 132 L 218 126 L 218 123 Z M 317 109 L 309 104 L 304 103 L 303 104 L 295 104 L 294 105 L 291 105 L 285 108 L 283 110 L 283 112 L 286 114 L 295 111 L 302 111 L 307 113 L 317 114 Z M 284 110 L 286 108 L 290 107 L 293 105 L 309 105 L 313 107 L 317 112 L 315 114 L 306 111 L 291 111 L 288 113 L 285 113 Z M 449 60 L 444 68 L 439 72 L 435 73 L 433 76 L 442 88 L 446 98 L 452 106 L 452 108 L 450 110 L 450 113 L 454 117 L 457 118 L 462 122 L 460 125 L 457 125 L 455 127 L 455 131 L 464 141 L 465 145 L 460 149 L 459 151 L 460 155 L 458 157 L 455 157 L 454 156 L 451 156 L 450 157 L 439 156 L 438 157 L 440 161 L 444 165 L 443 168 L 439 168 L 438 169 L 439 173 L 444 178 L 444 180 L 441 181 L 437 179 L 433 181 L 433 183 L 436 188 L 434 191 L 428 188 L 425 188 L 424 189 L 424 191 L 431 199 L 429 201 L 428 200 L 424 200 L 421 204 L 422 209 L 421 210 L 415 210 L 417 220 L 414 223 L 408 222 L 402 228 L 397 229 L 394 233 L 387 237 L 382 243 L 381 250 L 382 251 L 386 247 L 386 245 L 390 242 L 392 243 L 394 247 L 396 247 L 403 242 L 410 242 L 411 241 L 419 241 L 426 246 L 428 246 L 430 248 L 433 249 L 436 252 L 434 255 L 435 258 L 442 263 L 449 270 L 449 272 L 446 273 L 444 275 L 444 277 L 452 286 L 454 292 L 464 307 L 454 292 L 454 289 L 445 278 L 445 276 L 447 274 L 453 275 L 447 267 L 435 257 L 435 256 L 437 254 L 439 254 L 439 253 L 437 251 L 427 246 L 423 242 L 422 239 L 414 239 L 411 240 L 409 238 L 410 235 L 413 232 L 414 229 L 418 224 L 421 223 L 423 225 L 425 225 L 429 221 L 430 218 L 438 208 L 442 211 L 442 215 L 445 214 L 448 209 L 450 203 L 451 192 L 454 189 L 457 192 L 459 191 L 459 177 L 458 176 L 458 172 L 460 170 L 467 172 L 465 166 L 465 163 L 460 154 L 460 150 L 462 148 L 468 149 L 469 147 L 466 142 L 455 130 L 455 127 L 457 125 L 465 126 L 466 124 L 460 119 L 456 118 L 450 113 L 450 111 L 453 109 L 454 107 L 445 95 L 445 93 L 440 86 L 440 84 L 434 77 L 434 75 L 436 73 L 441 71 L 445 67 Z M 401 236 L 404 239 L 401 242 L 397 244 L 395 242 L 397 239 Z M 429 193 L 432 192 L 435 196 L 433 197 Z M 440 183 L 442 185 L 441 188 L 439 187 L 439 184 Z M 442 159 L 445 158 L 448 161 L 448 163 L 446 164 Z M 279 63 L 274 59 L 279 63 L 279 66 L 276 69 L 270 71 L 263 77 L 260 77 L 257 74 L 259 68 L 265 61 L 272 58 L 268 58 L 266 59 L 260 66 L 257 73 L 259 77 L 264 77 L 269 72 L 271 72 L 273 70 L 277 69 L 279 67 Z M 241 57 L 231 57 L 224 62 L 220 70 L 220 79 L 221 81 L 230 89 L 233 88 L 236 85 L 243 74 L 250 66 L 250 65 Z M 241 58 L 247 63 L 248 67 L 236 84 L 232 88 L 229 88 L 220 78 L 220 71 L 221 68 L 229 59 L 234 57 Z M 242 42 L 244 42 L 250 45 L 257 52 L 260 58 L 264 58 L 270 51 L 280 46 L 269 51 L 264 56 L 260 57 L 253 47 L 244 42 Z M 416 33 L 410 37 L 405 42 L 404 49 L 408 53 L 417 59 L 425 67 L 428 67 L 432 65 L 436 61 L 438 57 L 439 49 L 437 43 L 432 37 L 424 33 Z M 414 35 L 417 34 L 425 34 L 429 36 L 436 43 L 438 47 L 438 56 L 429 66 L 425 66 L 417 58 L 409 53 L 404 48 L 406 42 Z M 323 32 L 318 28 L 310 26 L 309 29 L 311 32 L 311 36 L 309 38 L 300 39 L 309 38 L 312 35 L 311 32 L 311 29 L 312 28 L 317 28 Z M 452 53 L 452 45 L 448 34 L 434 21 L 426 18 L 422 18 L 421 17 L 412 18 L 404 21 L 394 30 L 391 36 L 391 38 L 388 41 L 374 36 L 370 36 L 364 34 L 345 34 L 344 35 L 341 35 L 339 33 L 340 27 L 341 26 L 340 24 L 335 26 L 329 33 L 327 34 L 325 33 L 326 34 L 329 33 L 337 25 L 338 25 L 340 27 L 340 30 L 339 31 L 339 34 L 340 35 L 346 35 L 347 34 L 363 34 L 364 35 L 374 36 L 377 38 L 380 38 L 383 40 L 389 41 L 391 39 L 391 36 L 395 29 L 403 22 L 412 18 L 424 18 L 425 19 L 431 20 L 433 22 L 436 23 L 440 26 L 448 35 L 452 47 L 452 50 L 450 54 L 450 58 Z" fill="#E8E8E8" fill-rule="evenodd"/><path d="M 502 415 L 501 416 L 501 423 L 502 424 L 503 438 L 504 439 L 504 451 L 503 452 L 503 455 L 504 456 L 508 451 L 511 445 L 511 442 L 512 441 L 512 430 L 506 420 L 506 417 L 504 415 Z M 505 422 L 509 427 L 509 437 L 507 439 L 504 436 L 504 430 L 503 429 L 503 424 Z M 475 382 L 477 385 L 480 386 L 483 386 L 484 385 L 483 382 L 481 380 L 477 380 Z M 85 275 L 77 280 L 72 285 L 70 289 L 69 295 L 67 299 L 67 318 L 69 324 L 76 330 L 85 333 L 91 333 L 97 331 L 106 321 L 114 303 L 114 300 L 115 299 L 115 290 L 113 286 L 109 282 L 106 281 L 104 279 L 93 275 Z M 110 289 L 113 291 L 113 296 L 112 297 L 110 296 L 110 292 L 109 291 Z M 237 268 L 234 268 L 231 271 L 227 277 L 226 281 L 232 277 L 238 271 Z M 372 242 L 369 241 L 356 246 L 353 246 L 348 248 L 344 248 L 343 249 L 339 249 L 338 250 L 332 250 L 331 251 L 311 251 L 310 250 L 305 250 L 304 249 L 296 248 L 295 249 L 295 252 L 300 258 L 312 267 L 325 274 L 331 275 L 334 273 L 343 270 L 350 264 L 357 260 L 368 250 L 372 245 Z M 403 239 L 400 237 L 396 242 L 398 243 Z M 255 234 L 257 236 L 257 238 L 263 244 L 272 250 L 275 249 L 274 245 L 267 238 L 258 233 Z M 224 138 L 221 144 L 221 151 L 226 155 L 232 155 L 236 153 L 241 148 L 245 142 L 247 143 L 247 156 L 250 162 L 255 168 L 262 172 L 264 172 L 267 175 L 270 188 L 277 201 L 285 212 L 300 226 L 312 230 L 320 230 L 321 229 L 324 229 L 332 225 L 339 220 L 346 212 L 353 195 L 354 185 L 355 184 L 355 175 L 356 174 L 356 169 L 355 168 L 355 155 L 354 154 L 353 148 L 350 144 L 346 144 L 343 150 L 335 157 L 333 157 L 331 159 L 329 159 L 321 163 L 318 163 L 317 164 L 303 164 L 302 163 L 293 162 L 289 160 L 281 160 L 274 165 L 267 166 L 261 163 L 255 156 L 254 149 L 255 148 L 255 140 L 256 137 L 254 135 L 252 135 L 249 137 L 243 131 L 236 131 L 227 135 Z M 249 139 L 252 136 L 255 138 L 255 142 L 254 143 L 254 155 L 256 159 L 262 165 L 268 167 L 274 166 L 284 160 L 290 162 L 293 162 L 294 163 L 297 163 L 298 164 L 302 164 L 303 165 L 316 165 L 317 164 L 320 164 L 338 156 L 342 152 L 345 147 L 347 145 L 349 145 L 353 150 L 353 153 L 354 154 L 355 176 L 354 177 L 354 185 L 353 186 L 350 201 L 345 212 L 340 218 L 337 217 L 345 199 L 345 192 L 344 190 L 338 184 L 336 184 L 333 182 L 322 182 L 316 184 L 303 193 L 298 199 L 296 203 L 296 211 L 299 216 L 306 224 L 303 226 L 296 222 L 288 214 L 275 196 L 270 186 L 270 183 L 268 178 L 268 173 L 258 169 L 249 159 L 248 153 L 247 152 L 247 147 L 248 146 L 248 141 Z M 361 128 L 361 131 L 363 135 L 366 138 L 373 142 L 379 144 L 382 144 L 383 145 L 396 145 L 397 144 L 400 144 L 404 142 L 409 136 L 409 129 L 404 123 L 398 120 L 391 119 L 390 118 L 376 118 L 375 119 L 369 120 L 367 121 Z M 285 110 L 285 112 L 288 112 L 291 110 L 306 110 L 307 111 L 310 111 L 313 113 L 316 112 L 313 108 L 309 106 L 293 106 Z M 263 99 L 258 105 L 257 111 L 256 112 L 256 119 L 261 125 L 261 127 L 258 131 L 258 136 L 261 143 L 267 149 L 276 153 L 287 153 L 301 147 L 306 142 L 309 137 L 309 128 L 304 123 L 302 123 L 300 121 L 294 119 L 285 118 L 284 119 L 271 120 L 270 117 L 272 115 L 273 112 L 273 106 L 271 101 L 267 98 Z M 259 131 L 265 124 L 271 121 L 278 120 L 279 119 L 291 119 L 304 124 L 309 130 L 309 135 L 307 139 L 299 147 L 296 148 L 294 150 L 288 152 L 279 153 L 270 150 L 262 143 L 259 137 Z M 268 99 L 272 104 L 272 113 L 270 117 L 265 122 L 260 123 L 257 120 L 256 117 L 257 109 L 260 103 L 264 99 Z M 346 93 L 343 96 L 341 101 L 341 106 L 340 107 L 341 115 L 343 119 L 346 122 L 353 122 L 358 116 L 358 113 L 359 112 L 359 103 L 356 96 L 353 93 Z M 348 93 L 351 93 L 356 97 L 358 101 L 358 106 L 359 107 L 357 117 L 352 122 L 348 122 L 346 121 L 343 118 L 341 114 L 341 103 L 344 96 Z M 278 63 L 273 59 L 271 59 L 265 62 L 260 68 L 258 74 L 260 76 L 263 76 L 270 70 L 276 68 L 278 66 Z M 277 63 L 277 65 L 274 68 L 272 68 L 270 70 L 267 71 L 263 75 L 260 75 L 259 74 L 260 69 L 268 62 L 270 61 L 275 61 Z M 241 59 L 238 59 L 237 58 L 231 59 L 229 60 L 222 68 L 221 71 L 221 78 L 229 87 L 232 87 L 235 84 L 247 67 L 246 63 Z M 345 54 L 345 58 L 348 60 L 351 60 L 357 62 L 363 66 L 367 63 L 367 59 L 366 57 L 358 51 L 350 50 Z M 346 54 L 349 51 L 357 52 L 365 57 L 366 62 L 364 64 L 361 64 L 357 61 L 351 59 L 348 59 L 346 57 Z M 414 36 L 407 42 L 405 48 L 409 52 L 417 57 L 425 65 L 429 65 L 437 56 L 437 47 L 435 43 L 429 37 L 425 35 L 417 35 Z M 438 10 L 432 8 L 428 8 L 427 7 L 411 7 L 410 8 L 407 8 L 401 10 L 392 15 L 387 20 L 383 26 L 379 26 L 374 24 L 368 24 L 367 23 L 361 23 L 360 22 L 353 23 L 351 21 L 349 15 L 345 13 L 338 13 L 335 14 L 326 20 L 324 20 L 320 17 L 315 15 L 307 15 L 303 17 L 300 20 L 299 27 L 297 29 L 293 28 L 292 29 L 284 30 L 265 41 L 263 41 L 255 34 L 243 30 L 232 30 L 231 31 L 228 31 L 222 33 L 216 36 L 208 42 L 202 49 L 198 56 L 196 62 L 196 65 L 195 66 L 195 80 L 196 81 L 197 87 L 203 97 L 213 106 L 213 109 L 211 111 L 207 120 L 207 131 L 199 139 L 197 143 L 197 151 L 202 157 L 199 164 L 199 169 L 200 170 L 200 173 L 203 178 L 203 189 L 204 190 L 204 193 L 211 201 L 211 207 L 214 215 L 216 218 L 226 227 L 227 231 L 234 238 L 234 239 L 232 241 L 226 243 L 219 248 L 205 251 L 202 253 L 196 255 L 193 255 L 185 259 L 175 258 L 172 259 L 166 264 L 161 264 L 155 262 L 138 263 L 134 259 L 131 250 L 127 243 L 116 233 L 110 231 L 101 231 L 89 239 L 87 237 L 85 237 L 75 231 L 69 229 L 64 229 L 55 232 L 50 237 L 49 243 L 46 247 L 37 247 L 32 249 L 27 254 L 24 261 L 24 269 L 27 275 L 27 277 L 21 281 L 18 286 L 18 294 L 21 302 L 27 309 L 27 315 L 26 316 L 26 323 L 27 326 L 35 335 L 58 347 L 73 352 L 81 353 L 82 354 L 85 354 L 94 357 L 100 360 L 109 367 L 119 372 L 141 379 L 159 379 L 162 382 L 166 384 L 173 384 L 174 385 L 177 384 L 187 384 L 190 385 L 193 388 L 195 403 L 190 415 L 190 427 L 194 433 L 194 437 L 193 438 L 193 458 L 198 467 L 198 476 L 203 486 L 203 488 L 191 498 L 189 501 L 187 509 L 178 519 L 175 525 L 175 528 L 174 529 L 174 535 L 175 537 L 167 554 L 163 569 L 161 571 L 157 571 L 156 570 L 143 570 L 128 575 L 116 586 L 110 598 L 110 608 L 111 609 L 111 612 L 116 620 L 124 628 L 151 646 L 154 649 L 173 659 L 178 660 L 187 664 L 190 664 L 199 667 L 210 668 L 211 669 L 232 669 L 233 668 L 242 667 L 247 664 L 251 663 L 254 661 L 260 654 L 266 637 L 270 634 L 275 628 L 281 617 L 282 611 L 294 601 L 296 597 L 301 592 L 306 584 L 328 564 L 330 565 L 335 565 L 336 566 L 341 566 L 342 567 L 350 567 L 351 568 L 374 567 L 379 572 L 380 575 L 386 583 L 403 601 L 403 602 L 409 608 L 416 612 L 422 617 L 429 620 L 439 627 L 442 627 L 443 628 L 459 628 L 460 629 L 476 630 L 477 631 L 494 629 L 499 633 L 499 635 L 501 637 L 503 644 L 509 653 L 519 660 L 535 666 L 544 665 L 558 659 L 567 650 L 575 637 L 579 625 L 580 618 L 581 617 L 582 598 L 581 597 L 581 584 L 580 583 L 579 571 L 578 570 L 577 563 L 569 545 L 562 538 L 553 532 L 545 531 L 544 530 L 534 530 L 525 526 L 515 516 L 515 515 L 504 505 L 500 498 L 495 492 L 494 489 L 494 482 L 496 479 L 497 475 L 504 468 L 513 461 L 518 455 L 523 442 L 523 431 L 522 430 L 521 423 L 515 411 L 509 405 L 500 402 L 495 396 L 495 386 L 491 377 L 485 369 L 485 345 L 484 344 L 484 338 L 482 332 L 482 317 L 481 316 L 481 313 L 478 309 L 476 304 L 475 295 L 471 289 L 471 281 L 468 274 L 460 264 L 459 256 L 445 242 L 445 233 L 456 221 L 460 214 L 462 208 L 468 202 L 470 198 L 471 187 L 478 179 L 478 175 L 479 174 L 478 161 L 481 157 L 481 153 L 482 151 L 481 150 L 481 146 L 479 143 L 479 141 L 475 135 L 478 131 L 478 123 L 476 119 L 467 111 L 465 103 L 463 101 L 455 86 L 451 81 L 451 77 L 457 71 L 463 58 L 464 46 L 463 45 L 462 36 L 454 22 L 448 16 Z M 150 599 L 153 601 L 154 611 L 152 613 L 150 612 L 146 612 L 144 610 L 146 603 Z M 159 597 L 163 597 L 165 598 L 168 602 L 167 604 L 167 608 L 162 614 L 158 613 L 155 610 L 154 607 L 155 600 Z M 415 594 L 421 599 L 420 602 L 418 604 L 415 601 L 415 599 L 413 596 Z M 139 592 L 141 592 L 145 595 L 145 603 L 143 607 L 140 610 L 137 610 L 132 604 L 132 598 Z M 388 563 L 392 563 L 393 564 L 394 569 L 392 572 L 391 572 L 386 566 Z M 482 504 L 488 505 L 493 509 L 495 513 L 496 524 L 498 526 L 504 528 L 507 531 L 507 533 L 511 535 L 517 541 L 519 546 L 521 548 L 525 547 L 529 542 L 532 542 L 533 543 L 548 542 L 552 544 L 556 548 L 558 553 L 563 559 L 567 571 L 567 577 L 569 581 L 569 621 L 565 626 L 562 626 L 557 623 L 553 625 L 552 627 L 552 633 L 553 636 L 558 641 L 558 644 L 556 646 L 546 646 L 537 638 L 534 638 L 533 639 L 532 648 L 530 650 L 525 650 L 516 642 L 516 640 L 513 637 L 512 634 L 512 628 L 516 622 L 522 616 L 522 613 L 513 607 L 513 602 L 514 601 L 514 595 L 512 594 L 509 598 L 504 598 L 501 594 L 452 594 L 451 595 L 451 599 L 455 602 L 455 605 L 453 609 L 454 612 L 453 614 L 452 613 L 445 613 L 444 612 L 441 612 L 438 610 L 435 610 L 433 609 L 429 604 L 429 602 L 434 598 L 434 595 L 433 594 L 431 595 L 425 589 L 425 586 L 424 585 L 424 576 L 423 575 L 423 570 L 422 569 L 422 563 L 430 554 L 430 552 L 433 549 L 437 548 L 442 544 L 444 544 L 444 543 L 450 538 L 453 537 L 456 534 L 460 533 L 463 529 L 470 525 L 470 521 L 472 519 L 472 515 L 475 512 L 475 509 Z M 213 496 L 215 496 L 223 504 L 229 507 L 231 507 L 241 519 L 247 521 L 268 544 L 269 547 L 272 550 L 272 557 L 267 565 L 267 567 L 265 570 L 254 580 L 253 584 L 251 586 L 251 589 L 249 592 L 248 601 L 246 603 L 246 605 L 242 612 L 242 614 L 239 618 L 239 621 L 237 625 L 238 629 L 240 631 L 243 629 L 248 629 L 251 632 L 251 639 L 247 647 L 238 653 L 233 653 L 229 648 L 226 649 L 225 651 L 224 650 L 223 651 L 210 643 L 199 633 L 194 631 L 192 629 L 190 629 L 187 626 L 184 626 L 178 622 L 175 622 L 170 619 L 168 619 L 165 616 L 165 613 L 168 607 L 168 600 L 164 596 L 161 595 L 151 596 L 149 594 L 142 591 L 137 591 L 132 595 L 129 595 L 127 593 L 128 590 L 137 583 L 139 583 L 142 581 L 146 581 L 147 580 L 156 580 L 157 581 L 169 582 L 175 584 L 189 591 L 192 590 L 191 587 L 185 581 L 178 577 L 175 574 L 175 569 L 180 559 L 180 557 L 186 545 L 189 541 L 189 536 L 187 534 L 187 531 L 190 525 L 197 516 L 198 512 L 200 509 Z M 425 484 L 427 486 L 426 488 L 426 492 L 423 496 L 421 497 L 420 496 L 420 490 L 422 488 L 422 485 Z M 44 318 L 46 320 L 45 322 L 41 325 L 40 324 L 40 321 Z M 32 289 L 34 287 L 37 287 L 46 292 L 48 292 L 51 296 L 48 299 L 41 299 L 35 296 L 32 293 Z M 37 261 L 41 258 L 45 258 L 58 263 L 61 267 L 58 268 L 54 265 L 44 265 L 38 267 L 37 266 Z M 426 17 L 432 19 L 437 22 L 449 34 L 451 38 L 452 44 L 453 45 L 453 53 L 450 59 L 450 61 L 446 67 L 441 72 L 435 75 L 435 77 L 441 84 L 441 86 L 445 91 L 446 95 L 455 107 L 455 108 L 451 111 L 451 113 L 456 117 L 460 118 L 467 124 L 465 127 L 457 126 L 456 127 L 456 130 L 467 142 L 470 148 L 468 150 L 465 149 L 462 149 L 461 150 L 461 154 L 466 163 L 466 166 L 468 172 L 467 173 L 465 173 L 462 171 L 459 172 L 459 176 L 460 177 L 460 191 L 458 193 L 454 190 L 452 192 L 451 203 L 448 211 L 444 216 L 442 216 L 441 215 L 441 211 L 438 209 L 435 214 L 431 218 L 430 221 L 425 226 L 419 224 L 415 229 L 414 232 L 411 235 L 410 238 L 411 239 L 414 238 L 422 238 L 424 240 L 424 242 L 427 245 L 437 250 L 440 254 L 437 255 L 436 257 L 447 266 L 454 275 L 453 276 L 447 275 L 446 278 L 455 289 L 455 292 L 463 303 L 466 310 L 469 314 L 468 316 L 465 316 L 464 315 L 462 316 L 463 320 L 467 326 L 472 338 L 472 343 L 470 346 L 470 356 L 469 357 L 469 361 L 468 363 L 466 364 L 464 361 L 463 354 L 461 352 L 459 354 L 459 361 L 455 372 L 455 377 L 453 379 L 451 386 L 448 389 L 446 387 L 448 384 L 448 376 L 447 375 L 441 382 L 439 383 L 434 382 L 423 394 L 421 394 L 418 392 L 410 399 L 403 399 L 395 411 L 393 410 L 394 402 L 391 401 L 385 407 L 382 407 L 378 410 L 376 410 L 367 418 L 356 424 L 349 426 L 339 431 L 324 433 L 320 431 L 320 426 L 326 416 L 327 413 L 326 410 L 321 410 L 319 411 L 310 421 L 304 424 L 302 423 L 298 418 L 299 408 L 304 399 L 304 394 L 303 393 L 300 393 L 291 399 L 289 399 L 286 396 L 286 392 L 288 388 L 291 385 L 295 383 L 301 375 L 301 371 L 296 371 L 291 373 L 289 371 L 290 367 L 294 363 L 299 360 L 302 360 L 310 357 L 314 357 L 317 355 L 321 354 L 329 348 L 335 345 L 337 345 L 353 334 L 358 332 L 361 329 L 363 329 L 365 327 L 367 327 L 379 320 L 385 315 L 386 312 L 380 310 L 378 307 L 375 307 L 372 310 L 368 311 L 365 303 L 360 298 L 358 294 L 356 293 L 356 300 L 357 301 L 359 311 L 358 314 L 354 318 L 347 322 L 338 330 L 332 333 L 317 344 L 310 347 L 303 348 L 294 352 L 292 352 L 283 359 L 278 368 L 277 380 L 275 382 L 275 384 L 273 386 L 272 389 L 272 399 L 277 411 L 281 416 L 283 422 L 289 432 L 294 437 L 299 439 L 301 441 L 305 442 L 312 448 L 310 451 L 308 451 L 309 454 L 314 459 L 321 462 L 323 464 L 326 464 L 332 467 L 338 467 L 353 474 L 359 475 L 371 481 L 378 481 L 388 485 L 393 485 L 397 487 L 399 486 L 412 486 L 414 488 L 414 492 L 415 493 L 412 502 L 412 505 L 410 507 L 409 511 L 404 516 L 402 514 L 402 511 L 403 510 L 403 503 L 402 502 L 399 504 L 399 506 L 393 515 L 388 520 L 383 522 L 381 524 L 378 522 L 378 511 L 377 511 L 375 514 L 375 516 L 373 518 L 373 520 L 369 524 L 366 521 L 366 517 L 365 517 L 363 519 L 362 523 L 360 525 L 360 527 L 358 529 L 357 532 L 348 538 L 345 538 L 343 536 L 343 533 L 345 530 L 345 526 L 342 526 L 330 537 L 326 537 L 323 534 L 326 522 L 324 522 L 322 524 L 321 527 L 314 534 L 312 534 L 309 531 L 307 531 L 307 533 L 305 535 L 302 536 L 295 532 L 281 518 L 276 510 L 275 510 L 276 516 L 283 528 L 281 530 L 274 524 L 272 524 L 263 513 L 260 504 L 252 493 L 251 490 L 250 490 L 250 495 L 257 511 L 260 514 L 258 516 L 255 515 L 250 510 L 244 501 L 240 504 L 237 501 L 234 495 L 234 493 L 233 492 L 229 493 L 226 489 L 219 483 L 216 477 L 214 465 L 212 466 L 211 469 L 208 467 L 209 465 L 209 446 L 207 446 L 204 450 L 202 448 L 203 438 L 204 437 L 206 426 L 208 422 L 208 417 L 206 416 L 203 419 L 201 419 L 200 418 L 200 415 L 202 409 L 211 392 L 210 389 L 207 389 L 205 391 L 202 389 L 214 371 L 214 368 L 213 367 L 210 367 L 209 366 L 209 363 L 211 361 L 215 353 L 218 350 L 219 347 L 222 344 L 230 330 L 227 329 L 220 333 L 217 332 L 217 328 L 222 319 L 221 312 L 226 302 L 226 299 L 223 295 L 229 291 L 230 287 L 225 287 L 220 292 L 218 295 L 218 299 L 212 305 L 209 312 L 210 320 L 204 332 L 204 335 L 203 336 L 203 343 L 204 345 L 203 346 L 195 346 L 183 350 L 180 350 L 175 352 L 168 352 L 167 353 L 150 353 L 149 352 L 129 350 L 123 348 L 117 348 L 114 350 L 114 353 L 111 354 L 98 345 L 69 340 L 63 338 L 59 335 L 56 335 L 51 331 L 52 330 L 60 330 L 64 327 L 64 321 L 63 319 L 59 316 L 53 314 L 53 312 L 60 306 L 61 303 L 61 300 L 57 294 L 57 290 L 55 287 L 61 285 L 64 282 L 65 280 L 65 273 L 64 272 L 68 270 L 72 270 L 73 271 L 83 270 L 87 266 L 87 261 L 86 259 L 79 252 L 75 249 L 69 247 L 64 247 L 63 248 L 61 246 L 61 244 L 64 241 L 72 242 L 80 246 L 91 257 L 94 257 L 97 254 L 98 255 L 99 265 L 101 269 L 105 272 L 111 273 L 113 272 L 115 269 L 115 263 L 116 261 L 115 260 L 115 255 L 114 253 L 108 248 L 102 248 L 99 252 L 98 251 L 98 248 L 101 245 L 103 244 L 110 244 L 113 246 L 121 255 L 121 258 L 123 262 L 124 272 L 127 275 L 129 276 L 139 276 L 140 277 L 144 277 L 149 279 L 154 279 L 155 276 L 157 274 L 159 274 L 173 279 L 182 280 L 183 279 L 183 276 L 179 272 L 180 270 L 186 270 L 198 274 L 204 274 L 208 272 L 206 268 L 208 265 L 218 265 L 220 264 L 224 259 L 229 258 L 234 255 L 237 255 L 239 257 L 236 260 L 236 262 L 241 261 L 246 256 L 247 254 L 246 252 L 248 250 L 255 249 L 258 245 L 256 241 L 247 231 L 245 225 L 242 222 L 240 222 L 240 224 L 238 226 L 235 223 L 233 218 L 233 214 L 232 213 L 231 207 L 230 206 L 225 212 L 222 209 L 222 206 L 221 205 L 221 188 L 219 187 L 216 190 L 213 188 L 213 179 L 215 175 L 216 167 L 213 166 L 211 168 L 209 166 L 209 163 L 212 158 L 215 148 L 214 147 L 209 148 L 207 145 L 218 132 L 217 123 L 225 105 L 226 99 L 223 97 L 218 96 L 212 90 L 207 82 L 207 79 L 206 78 L 206 67 L 211 55 L 223 44 L 231 41 L 238 41 L 240 40 L 241 41 L 244 41 L 253 46 L 258 52 L 259 55 L 262 56 L 269 50 L 279 45 L 287 43 L 288 40 L 290 38 L 305 38 L 306 37 L 309 37 L 310 36 L 310 32 L 308 29 L 308 27 L 310 25 L 318 27 L 324 32 L 327 33 L 329 32 L 335 25 L 340 23 L 342 25 L 340 31 L 341 34 L 344 34 L 345 33 L 364 33 L 365 34 L 374 35 L 388 40 L 390 38 L 390 36 L 393 30 L 404 20 L 412 17 L 416 17 L 417 16 Z M 433 9 L 444 14 L 448 17 L 456 26 L 461 35 L 462 41 L 463 42 L 463 56 L 461 59 L 458 68 L 449 79 L 463 101 L 467 113 L 472 116 L 476 120 L 478 124 L 478 130 L 475 133 L 475 137 L 477 139 L 481 148 L 481 155 L 476 161 L 476 163 L 478 166 L 478 177 L 477 180 L 472 184 L 470 187 L 470 195 L 468 200 L 461 208 L 461 210 L 457 218 L 443 234 L 443 236 L 445 238 L 445 243 L 459 257 L 459 264 L 467 273 L 470 279 L 470 282 L 471 283 L 470 289 L 475 297 L 475 303 L 482 318 L 482 334 L 483 335 L 484 349 L 485 350 L 485 370 L 493 382 L 495 397 L 500 403 L 503 403 L 508 405 L 516 413 L 520 421 L 521 427 L 522 428 L 522 433 L 523 434 L 522 444 L 517 455 L 507 465 L 499 471 L 493 483 L 493 490 L 500 499 L 506 509 L 526 528 L 533 531 L 545 531 L 546 532 L 553 533 L 560 538 L 568 546 L 569 549 L 571 551 L 578 569 L 579 578 L 580 579 L 580 587 L 581 588 L 581 614 L 580 615 L 580 621 L 575 636 L 563 654 L 554 661 L 552 661 L 543 665 L 534 665 L 530 663 L 527 663 L 517 658 L 506 648 L 502 636 L 500 633 L 500 631 L 497 629 L 475 630 L 474 629 L 460 628 L 454 626 L 450 626 L 446 628 L 445 627 L 439 626 L 432 621 L 420 615 L 417 612 L 410 608 L 402 600 L 402 599 L 385 581 L 380 574 L 379 571 L 375 567 L 344 567 L 343 566 L 337 566 L 332 564 L 326 564 L 318 573 L 306 583 L 303 588 L 293 600 L 282 610 L 280 618 L 278 620 L 276 625 L 272 631 L 266 636 L 259 654 L 251 662 L 235 668 L 209 668 L 208 667 L 203 667 L 198 665 L 194 665 L 170 657 L 157 650 L 148 643 L 142 640 L 139 637 L 126 629 L 113 615 L 110 607 L 110 602 L 114 590 L 117 586 L 129 575 L 133 573 L 136 573 L 140 571 L 145 571 L 146 570 L 163 571 L 165 566 L 165 562 L 167 559 L 171 547 L 173 543 L 178 538 L 186 538 L 188 541 L 180 556 L 178 563 L 175 568 L 175 575 L 179 579 L 184 581 L 190 587 L 190 589 L 187 590 L 174 583 L 167 582 L 166 581 L 160 581 L 159 580 L 145 580 L 144 581 L 140 581 L 128 588 L 124 594 L 124 597 L 131 605 L 131 607 L 133 610 L 133 614 L 132 615 L 129 615 L 128 614 L 126 615 L 131 621 L 132 621 L 139 614 L 152 614 L 153 615 L 160 616 L 180 626 L 185 630 L 194 634 L 211 646 L 232 658 L 242 656 L 249 649 L 249 647 L 253 638 L 254 630 L 256 624 L 259 621 L 261 621 L 263 623 L 265 622 L 267 616 L 267 613 L 269 610 L 272 601 L 276 597 L 280 598 L 282 596 L 284 589 L 287 586 L 292 584 L 294 580 L 314 562 L 312 559 L 306 557 L 302 553 L 302 550 L 303 549 L 306 549 L 307 550 L 310 550 L 319 553 L 324 553 L 329 555 L 349 556 L 350 557 L 376 556 L 377 555 L 382 555 L 383 554 L 390 554 L 393 557 L 393 559 L 390 562 L 386 563 L 385 564 L 385 567 L 399 584 L 410 594 L 414 601 L 418 605 L 422 602 L 425 602 L 432 610 L 436 612 L 439 612 L 443 614 L 447 614 L 451 616 L 461 617 L 462 618 L 469 618 L 470 619 L 486 619 L 487 620 L 494 620 L 495 619 L 505 618 L 514 615 L 516 617 L 516 619 L 513 625 L 510 628 L 510 634 L 511 637 L 521 651 L 530 655 L 533 655 L 534 656 L 537 656 L 538 655 L 538 653 L 534 647 L 534 643 L 536 641 L 541 645 L 547 648 L 554 648 L 558 646 L 560 644 L 560 639 L 554 634 L 553 631 L 554 627 L 557 625 L 561 629 L 564 629 L 569 623 L 570 620 L 570 603 L 571 602 L 570 581 L 569 580 L 568 572 L 567 571 L 567 568 L 564 559 L 562 557 L 557 547 L 551 541 L 548 540 L 535 541 L 526 536 L 521 536 L 515 534 L 508 526 L 502 526 L 498 523 L 498 514 L 491 504 L 486 499 L 484 499 L 479 504 L 477 504 L 474 501 L 474 495 L 483 478 L 488 463 L 489 447 L 491 445 L 493 447 L 494 446 L 494 437 L 493 436 L 491 423 L 487 415 L 487 411 L 490 407 L 484 397 L 477 390 L 476 390 L 473 386 L 470 388 L 466 389 L 456 398 L 448 402 L 445 402 L 435 406 L 427 413 L 421 416 L 410 419 L 377 435 L 365 435 L 359 437 L 350 443 L 341 446 L 337 446 L 336 447 L 320 447 L 319 446 L 315 446 L 295 436 L 289 430 L 283 420 L 282 414 L 278 410 L 273 401 L 272 392 L 273 391 L 273 388 L 278 380 L 279 369 L 282 362 L 293 352 L 301 349 L 312 347 L 318 344 L 335 332 L 338 331 L 348 322 L 354 319 L 359 314 L 359 305 L 358 304 L 358 301 L 360 300 L 366 306 L 366 309 L 368 313 L 376 308 L 382 311 L 384 314 L 376 321 L 358 330 L 342 341 L 329 347 L 321 353 L 317 354 L 314 356 L 310 356 L 296 361 L 293 363 L 288 369 L 288 373 L 295 373 L 298 372 L 300 374 L 299 377 L 286 389 L 284 398 L 286 401 L 292 401 L 299 396 L 301 396 L 303 398 L 300 403 L 298 413 L 297 414 L 297 420 L 301 425 L 303 426 L 307 426 L 318 414 L 323 411 L 325 413 L 325 416 L 318 427 L 318 432 L 320 434 L 323 435 L 328 435 L 329 434 L 338 433 L 347 429 L 349 429 L 366 420 L 374 414 L 376 415 L 376 417 L 378 417 L 390 404 L 392 407 L 389 414 L 392 415 L 401 408 L 408 404 L 414 398 L 416 397 L 419 397 L 420 398 L 423 397 L 423 396 L 432 388 L 434 389 L 438 389 L 445 382 L 446 382 L 447 384 L 443 392 L 445 393 L 448 391 L 452 386 L 456 378 L 456 375 L 457 374 L 457 371 L 458 370 L 458 367 L 461 358 L 463 359 L 463 361 L 467 369 L 470 365 L 471 357 L 472 356 L 472 351 L 473 350 L 473 340 L 469 328 L 467 326 L 464 320 L 464 318 L 466 317 L 470 319 L 471 317 L 465 305 L 457 293 L 455 287 L 449 280 L 450 277 L 455 279 L 458 279 L 458 278 L 452 270 L 439 258 L 441 256 L 444 255 L 440 251 L 429 245 L 428 242 L 431 240 L 430 239 L 427 239 L 423 236 L 428 230 L 435 227 L 440 223 L 447 215 L 451 206 L 453 195 L 455 193 L 458 195 L 460 194 L 461 192 L 461 177 L 460 174 L 462 172 L 467 176 L 469 175 L 468 166 L 462 154 L 462 152 L 463 151 L 467 151 L 468 152 L 471 152 L 472 151 L 470 144 L 458 130 L 459 127 L 463 127 L 464 128 L 468 127 L 468 124 L 463 119 L 458 117 L 453 113 L 457 108 L 450 99 L 442 84 L 437 78 L 437 76 L 447 67 L 451 60 L 451 58 L 453 55 L 453 42 L 450 36 L 450 34 L 447 30 L 440 23 L 434 19 L 425 16 L 413 16 L 407 19 L 405 19 L 401 21 L 395 26 L 390 34 L 390 37 L 388 39 L 374 34 L 364 33 L 363 32 L 346 32 L 343 33 L 341 31 L 343 27 L 343 23 L 342 22 L 338 22 L 333 25 L 328 31 L 325 31 L 318 26 L 312 24 L 308 24 L 307 25 L 307 28 L 309 31 L 309 35 L 307 37 L 289 37 L 285 43 L 282 43 L 269 49 L 262 55 L 259 53 L 257 49 L 253 45 L 243 40 L 232 40 L 231 41 L 228 41 L 219 46 L 211 54 L 208 59 L 206 65 L 206 68 L 205 69 L 205 77 L 206 78 L 206 81 L 208 84 L 208 86 L 213 93 L 218 97 L 222 98 L 225 101 L 224 106 L 217 121 L 217 128 L 218 131 L 206 145 L 206 148 L 207 149 L 212 148 L 214 150 L 213 154 L 208 164 L 208 169 L 209 170 L 213 168 L 215 170 L 213 180 L 212 181 L 212 189 L 214 191 L 217 190 L 220 191 L 220 204 L 223 212 L 226 213 L 230 210 L 232 212 L 233 220 L 237 228 L 239 228 L 242 224 L 245 227 L 245 229 L 256 244 L 256 246 L 254 248 L 247 248 L 244 247 L 243 248 L 243 251 L 241 253 L 231 255 L 229 257 L 226 257 L 222 259 L 218 264 L 215 264 L 214 265 L 205 265 L 204 268 L 206 271 L 204 273 L 197 273 L 189 270 L 179 269 L 177 271 L 182 276 L 180 279 L 165 276 L 159 273 L 155 273 L 154 276 L 152 278 L 127 274 L 125 272 L 125 268 L 124 267 L 123 259 L 121 253 L 115 246 L 110 243 L 102 243 L 98 246 L 95 254 L 92 256 L 79 244 L 72 241 L 64 240 L 60 245 L 60 251 L 63 260 L 66 265 L 65 268 L 64 268 L 58 262 L 47 258 L 38 258 L 36 261 L 36 269 L 38 274 L 55 291 L 52 293 L 36 286 L 33 286 L 31 288 L 31 294 L 33 297 L 37 300 L 45 303 L 49 307 L 47 309 L 44 309 L 42 311 L 42 316 L 39 320 L 39 326 L 46 331 L 66 340 L 69 340 L 78 343 L 82 343 L 83 344 L 87 344 L 88 345 L 95 345 L 98 346 L 107 353 L 122 361 L 124 361 L 133 365 L 140 366 L 141 367 L 155 368 L 156 369 L 180 368 L 183 372 L 187 372 L 194 369 L 199 363 L 202 357 L 202 355 L 206 348 L 204 342 L 204 333 L 209 322 L 211 320 L 210 310 L 212 306 L 217 301 L 221 299 L 224 299 L 226 301 L 223 306 L 223 308 L 219 314 L 221 317 L 221 320 L 216 330 L 216 333 L 218 336 L 218 341 L 215 347 L 214 354 L 208 364 L 208 369 L 211 369 L 213 371 L 201 389 L 202 392 L 208 391 L 209 394 L 201 410 L 199 416 L 199 421 L 202 421 L 205 418 L 207 420 L 207 424 L 205 428 L 205 431 L 203 436 L 203 440 L 202 441 L 202 451 L 203 452 L 206 449 L 208 451 L 208 471 L 210 475 L 213 472 L 215 474 L 215 477 L 217 483 L 219 485 L 224 495 L 227 498 L 224 500 L 215 495 L 213 495 L 210 497 L 210 498 L 198 510 L 198 512 L 192 522 L 189 525 L 187 529 L 179 537 L 178 537 L 175 533 L 175 527 L 178 521 L 188 510 L 190 501 L 205 488 L 205 484 L 203 483 L 199 478 L 199 475 L 198 474 L 198 465 L 195 461 L 193 456 L 194 432 L 190 425 L 190 417 L 191 416 L 192 410 L 195 405 L 195 399 L 194 398 L 194 390 L 193 387 L 190 384 L 168 384 L 157 378 L 154 379 L 138 378 L 129 374 L 126 374 L 120 371 L 118 371 L 95 357 L 62 348 L 37 336 L 30 330 L 26 323 L 26 318 L 29 312 L 29 310 L 21 301 L 18 293 L 19 285 L 24 280 L 28 278 L 28 276 L 24 268 L 24 262 L 28 254 L 32 250 L 36 248 L 47 248 L 49 244 L 50 238 L 55 233 L 61 230 L 69 230 L 75 232 L 89 240 L 92 239 L 96 235 L 101 232 L 110 232 L 113 233 L 121 238 L 127 244 L 131 251 L 134 260 L 137 263 L 141 263 L 142 264 L 145 263 L 157 263 L 162 265 L 166 265 L 173 259 L 186 260 L 190 257 L 196 255 L 199 255 L 207 251 L 216 250 L 219 248 L 221 248 L 226 244 L 233 241 L 235 239 L 235 238 L 228 231 L 226 225 L 214 214 L 212 209 L 211 200 L 204 192 L 204 186 L 203 185 L 204 177 L 200 172 L 200 163 L 202 159 L 202 156 L 198 152 L 197 149 L 197 144 L 199 140 L 208 131 L 207 129 L 207 123 L 208 122 L 208 119 L 214 108 L 214 106 L 204 97 L 198 88 L 196 83 L 196 79 L 195 78 L 195 69 L 196 68 L 196 63 L 200 53 L 204 47 L 213 39 L 219 35 L 223 34 L 226 32 L 230 32 L 231 31 L 245 31 L 255 35 L 262 42 L 266 42 L 283 31 L 289 29 L 298 29 L 300 27 L 300 22 L 301 20 L 304 17 L 307 16 L 316 16 L 324 21 L 327 21 L 332 16 L 336 14 L 346 14 L 350 18 L 351 22 L 353 24 L 356 23 L 362 23 L 363 24 L 369 24 L 370 25 L 374 25 L 379 27 L 383 27 L 387 21 L 396 13 L 398 13 L 400 11 L 402 11 L 405 9 L 415 8 L 416 7 L 423 7 L 424 8 Z" fill="#B1B1B1" fill-rule="evenodd"/><path d="M 159 598 L 156 600 L 156 602 L 155 603 L 155 607 L 156 608 L 156 610 L 158 612 L 162 613 L 166 608 L 166 604 L 167 602 L 165 599 L 163 598 Z M 141 593 L 137 594 L 133 598 L 133 604 L 137 609 L 140 609 L 142 607 L 144 603 L 144 595 Z M 110 290 L 111 292 L 111 296 L 112 296 L 112 291 Z M 250 139 L 249 141 L 249 146 L 248 147 L 248 152 L 249 153 L 250 159 L 258 168 L 262 170 L 267 171 L 269 173 L 269 178 L 270 179 L 271 186 L 276 196 L 278 198 L 279 201 L 285 208 L 285 209 L 296 221 L 303 225 L 305 224 L 298 216 L 295 211 L 295 203 L 297 199 L 299 197 L 299 196 L 308 188 L 309 188 L 314 184 L 321 182 L 322 181 L 333 181 L 336 183 L 338 183 L 345 190 L 346 192 L 346 199 L 345 200 L 344 205 L 338 217 L 340 217 L 341 216 L 341 215 L 344 212 L 347 206 L 347 204 L 349 201 L 349 198 L 351 194 L 351 190 L 352 189 L 352 186 L 353 185 L 353 177 L 354 176 L 353 154 L 352 153 L 352 150 L 349 146 L 347 146 L 343 151 L 343 152 L 338 157 L 326 163 L 324 163 L 320 165 L 317 165 L 316 166 L 303 166 L 302 165 L 298 165 L 297 164 L 294 164 L 293 163 L 290 163 L 289 162 L 284 161 L 274 167 L 268 168 L 267 167 L 264 167 L 262 166 L 255 159 L 253 155 L 253 143 L 254 142 L 254 138 L 252 137 Z M 260 131 L 260 137 L 263 143 L 270 149 L 274 150 L 275 151 L 278 151 L 279 152 L 283 152 L 284 151 L 288 151 L 289 150 L 294 149 L 296 147 L 299 146 L 306 139 L 308 135 L 308 130 L 304 125 L 298 122 L 292 121 L 291 120 L 279 120 L 278 121 L 274 121 L 273 122 L 271 122 L 265 125 Z M 268 100 L 264 100 L 261 103 L 258 109 L 258 114 L 257 115 L 257 117 L 258 118 L 258 120 L 260 122 L 263 122 L 265 121 L 269 117 L 271 113 L 271 104 Z M 348 94 L 345 96 L 342 103 L 342 114 L 344 118 L 346 120 L 348 121 L 352 121 L 356 117 L 358 107 L 357 106 L 357 101 L 355 97 L 351 94 Z M 276 63 L 275 62 L 270 62 L 265 65 L 261 69 L 260 71 L 260 74 L 263 74 L 267 70 L 270 69 L 272 67 L 274 67 L 276 65 Z M 347 54 L 347 57 L 348 58 L 351 58 L 352 59 L 357 60 L 361 63 L 364 63 L 365 62 L 365 59 L 364 57 L 357 53 L 355 53 L 354 52 L 349 52 Z M 433 10 L 430 10 L 429 9 L 424 9 L 423 8 L 416 8 L 415 9 L 405 10 L 402 12 L 400 12 L 398 14 L 396 14 L 393 17 L 392 17 L 388 21 L 386 25 L 383 28 L 379 28 L 378 27 L 370 26 L 369 25 L 363 25 L 362 24 L 356 24 L 355 25 L 353 25 L 350 22 L 349 18 L 346 15 L 336 15 L 332 17 L 327 22 L 324 22 L 316 17 L 307 17 L 306 18 L 304 18 L 302 20 L 301 22 L 301 27 L 298 30 L 289 30 L 288 31 L 283 32 L 278 36 L 271 39 L 266 43 L 262 43 L 255 36 L 251 34 L 246 33 L 245 32 L 231 32 L 230 33 L 226 33 L 223 35 L 219 36 L 217 38 L 213 40 L 205 47 L 205 48 L 201 53 L 199 57 L 198 62 L 197 63 L 197 68 L 196 69 L 196 78 L 197 79 L 197 83 L 198 84 L 199 88 L 201 90 L 202 93 L 205 96 L 205 97 L 215 106 L 215 108 L 209 119 L 209 122 L 208 123 L 208 129 L 209 131 L 200 140 L 198 144 L 198 149 L 199 150 L 199 152 L 203 156 L 203 159 L 201 163 L 201 172 L 205 177 L 205 182 L 204 183 L 204 185 L 205 186 L 205 192 L 206 194 L 212 200 L 213 209 L 214 210 L 215 214 L 227 225 L 227 227 L 229 231 L 236 238 L 236 239 L 233 242 L 226 245 L 223 248 L 219 249 L 216 251 L 211 251 L 210 252 L 207 252 L 199 256 L 196 256 L 195 257 L 190 258 L 186 261 L 182 261 L 181 260 L 173 260 L 166 266 L 162 266 L 161 265 L 158 265 L 157 264 L 145 264 L 144 265 L 142 265 L 141 264 L 137 264 L 133 260 L 131 256 L 130 251 L 127 247 L 126 244 L 121 239 L 113 234 L 111 234 L 110 233 L 101 233 L 96 236 L 92 240 L 89 241 L 79 236 L 75 233 L 73 233 L 69 231 L 61 231 L 55 234 L 51 238 L 49 247 L 47 249 L 36 249 L 32 251 L 29 254 L 25 262 L 25 268 L 29 276 L 29 278 L 27 280 L 24 281 L 20 285 L 20 287 L 19 288 L 19 293 L 20 294 L 20 297 L 22 301 L 30 310 L 30 312 L 27 318 L 27 323 L 31 330 L 37 335 L 49 341 L 51 341 L 55 344 L 59 345 L 62 347 L 64 347 L 71 350 L 74 350 L 78 352 L 86 353 L 87 354 L 95 356 L 101 359 L 107 364 L 110 365 L 112 367 L 118 370 L 120 370 L 126 373 L 129 373 L 132 375 L 134 375 L 138 377 L 143 377 L 144 378 L 154 378 L 155 377 L 157 377 L 158 378 L 160 378 L 163 381 L 167 382 L 168 383 L 190 383 L 194 387 L 194 389 L 195 390 L 196 405 L 193 410 L 192 416 L 191 417 L 191 425 L 192 426 L 192 428 L 195 432 L 195 440 L 194 441 L 194 456 L 195 457 L 196 461 L 199 465 L 199 474 L 200 475 L 200 478 L 201 480 L 206 484 L 206 488 L 191 501 L 189 510 L 179 521 L 176 527 L 176 533 L 177 535 L 179 536 L 186 529 L 188 525 L 191 522 L 191 521 L 195 516 L 197 512 L 197 510 L 209 498 L 210 496 L 211 496 L 213 494 L 215 494 L 224 499 L 226 498 L 223 495 L 218 485 L 216 483 L 216 481 L 214 477 L 214 474 L 213 473 L 210 476 L 208 474 L 208 472 L 207 471 L 207 451 L 206 450 L 203 453 L 201 451 L 201 441 L 202 440 L 202 436 L 203 435 L 204 428 L 206 424 L 206 420 L 205 419 L 202 422 L 199 422 L 198 421 L 198 416 L 199 415 L 200 410 L 208 394 L 208 392 L 202 393 L 200 391 L 200 389 L 202 385 L 208 378 L 212 371 L 211 370 L 208 370 L 207 369 L 207 364 L 213 354 L 213 352 L 214 351 L 214 347 L 217 341 L 217 336 L 215 333 L 215 330 L 220 320 L 220 317 L 218 315 L 220 310 L 222 308 L 222 306 L 225 301 L 224 300 L 221 300 L 217 302 L 213 306 L 211 310 L 212 320 L 210 322 L 205 333 L 205 342 L 206 343 L 207 348 L 203 355 L 203 357 L 200 363 L 194 370 L 187 373 L 183 373 L 180 369 L 156 370 L 155 369 L 147 369 L 146 368 L 141 368 L 140 367 L 133 366 L 132 365 L 127 364 L 124 362 L 122 362 L 116 359 L 114 357 L 112 357 L 110 355 L 107 354 L 98 347 L 96 347 L 95 346 L 88 346 L 87 345 L 83 345 L 82 344 L 78 344 L 77 343 L 66 341 L 63 339 L 58 338 L 46 332 L 44 330 L 41 329 L 38 326 L 38 320 L 41 316 L 41 311 L 44 308 L 47 308 L 48 307 L 45 304 L 37 301 L 32 297 L 32 296 L 30 294 L 30 288 L 33 285 L 36 285 L 37 286 L 42 287 L 47 290 L 49 290 L 52 292 L 54 291 L 37 274 L 36 270 L 35 269 L 35 261 L 38 257 L 47 257 L 48 258 L 50 258 L 51 259 L 58 261 L 64 267 L 65 267 L 65 265 L 62 260 L 62 258 L 59 251 L 59 245 L 64 239 L 72 240 L 79 243 L 92 255 L 94 254 L 97 246 L 100 243 L 102 242 L 110 242 L 115 245 L 122 253 L 122 255 L 124 259 L 125 267 L 126 268 L 126 272 L 127 273 L 129 273 L 130 274 L 143 275 L 144 276 L 147 276 L 148 277 L 152 277 L 153 276 L 153 274 L 155 272 L 159 272 L 165 275 L 168 275 L 169 276 L 180 278 L 181 276 L 176 271 L 179 268 L 189 269 L 190 270 L 193 270 L 197 272 L 204 272 L 205 270 L 203 268 L 203 266 L 205 264 L 214 264 L 215 263 L 218 263 L 222 258 L 226 256 L 229 256 L 231 254 L 233 254 L 234 253 L 238 253 L 239 252 L 241 252 L 242 251 L 242 248 L 244 246 L 246 246 L 247 247 L 254 247 L 255 246 L 255 244 L 244 229 L 244 227 L 242 225 L 239 229 L 237 229 L 232 220 L 231 212 L 229 211 L 226 214 L 224 214 L 222 212 L 220 208 L 220 205 L 219 204 L 219 191 L 214 192 L 211 189 L 211 181 L 212 180 L 212 177 L 213 176 L 214 170 L 213 169 L 209 171 L 207 169 L 207 164 L 212 154 L 213 150 L 212 149 L 210 150 L 207 150 L 205 148 L 205 145 L 217 131 L 217 129 L 216 128 L 216 121 L 220 113 L 220 111 L 223 106 L 224 101 L 222 99 L 218 98 L 212 93 L 212 92 L 207 86 L 207 84 L 205 81 L 205 78 L 204 77 L 204 69 L 205 68 L 205 65 L 206 64 L 207 59 L 210 54 L 219 45 L 228 40 L 231 40 L 232 39 L 243 39 L 246 41 L 248 41 L 253 44 L 258 49 L 260 53 L 262 54 L 269 48 L 277 44 L 279 44 L 282 42 L 285 42 L 286 41 L 286 39 L 289 36 L 307 36 L 308 35 L 308 31 L 306 28 L 306 25 L 308 23 L 312 23 L 313 24 L 318 25 L 325 30 L 328 30 L 331 27 L 331 26 L 338 21 L 342 21 L 344 23 L 344 27 L 342 30 L 343 32 L 345 32 L 346 31 L 363 31 L 364 32 L 374 33 L 375 34 L 377 34 L 378 35 L 380 35 L 381 36 L 388 38 L 389 37 L 389 34 L 394 26 L 401 20 L 405 18 L 407 18 L 413 15 L 425 15 L 426 16 L 429 16 L 430 17 L 434 18 L 436 20 L 440 22 L 448 30 L 448 31 L 451 34 L 451 36 L 454 42 L 454 55 L 452 58 L 452 60 L 448 67 L 438 76 L 438 78 L 443 84 L 444 87 L 449 94 L 451 99 L 458 108 L 458 109 L 455 112 L 454 112 L 454 113 L 458 116 L 463 118 L 469 124 L 469 127 L 466 129 L 464 129 L 463 128 L 459 128 L 459 130 L 469 141 L 472 146 L 473 151 L 471 153 L 463 152 L 463 154 L 469 166 L 469 169 L 470 170 L 470 175 L 468 177 L 467 177 L 462 173 L 461 174 L 461 176 L 462 177 L 462 192 L 461 194 L 459 196 L 455 194 L 454 195 L 452 206 L 448 215 L 440 224 L 439 224 L 435 228 L 428 231 L 424 235 L 424 236 L 427 238 L 430 238 L 432 240 L 430 242 L 429 242 L 429 244 L 440 250 L 445 255 L 443 257 L 441 257 L 440 258 L 453 270 L 453 271 L 459 278 L 458 280 L 455 280 L 454 279 L 450 278 L 450 280 L 456 287 L 458 293 L 460 295 L 461 298 L 466 305 L 472 317 L 472 318 L 470 320 L 465 318 L 465 320 L 468 326 L 470 328 L 470 330 L 472 333 L 473 339 L 474 340 L 474 350 L 473 351 L 473 356 L 472 357 L 471 365 L 467 370 L 464 366 L 462 359 L 461 359 L 461 362 L 460 363 L 460 366 L 459 367 L 457 378 L 453 386 L 448 392 L 447 392 L 445 394 L 444 394 L 442 392 L 445 387 L 445 385 L 446 384 L 446 383 L 445 383 L 438 390 L 434 390 L 432 389 L 427 394 L 426 394 L 426 395 L 424 396 L 423 398 L 421 399 L 419 398 L 416 398 L 414 399 L 408 405 L 407 405 L 404 408 L 401 409 L 392 416 L 390 416 L 388 414 L 391 407 L 390 405 L 378 418 L 376 418 L 375 417 L 375 415 L 374 415 L 366 421 L 359 424 L 357 426 L 349 430 L 347 430 L 344 432 L 342 432 L 338 434 L 335 434 L 334 435 L 329 435 L 328 436 L 323 436 L 322 435 L 320 435 L 317 432 L 317 427 L 319 423 L 321 421 L 322 418 L 324 416 L 324 413 L 323 412 L 318 415 L 316 417 L 316 418 L 307 427 L 303 427 L 301 426 L 296 420 L 296 414 L 297 413 L 297 410 L 298 409 L 299 403 L 302 398 L 301 397 L 299 397 L 292 402 L 286 402 L 283 398 L 285 389 L 291 383 L 292 383 L 298 377 L 299 375 L 298 373 L 296 373 L 295 374 L 288 374 L 287 373 L 287 369 L 288 367 L 296 360 L 303 357 L 306 357 L 310 355 L 314 355 L 317 353 L 321 352 L 323 350 L 326 349 L 329 346 L 335 343 L 337 343 L 339 341 L 342 340 L 358 329 L 376 320 L 383 314 L 382 312 L 376 309 L 368 314 L 366 312 L 365 306 L 360 301 L 359 301 L 359 304 L 360 305 L 360 314 L 354 320 L 348 323 L 338 332 L 335 333 L 329 338 L 323 341 L 318 345 L 312 348 L 309 348 L 308 349 L 305 349 L 304 350 L 301 350 L 300 351 L 295 352 L 290 355 L 283 362 L 280 369 L 279 380 L 277 382 L 274 388 L 274 391 L 273 392 L 273 395 L 274 396 L 274 401 L 279 410 L 283 414 L 284 420 L 286 424 L 288 426 L 290 430 L 295 435 L 315 445 L 319 445 L 320 446 L 336 446 L 337 445 L 341 445 L 342 444 L 350 442 L 354 439 L 357 438 L 359 436 L 361 436 L 365 434 L 377 434 L 378 433 L 380 433 L 410 418 L 421 415 L 427 412 L 435 405 L 439 403 L 444 402 L 445 401 L 448 401 L 456 397 L 466 388 L 470 387 L 472 385 L 473 385 L 475 387 L 475 388 L 477 389 L 485 397 L 491 407 L 491 408 L 488 411 L 488 415 L 492 423 L 493 431 L 494 432 L 494 436 L 495 437 L 495 446 L 493 448 L 491 446 L 490 447 L 489 463 L 488 464 L 487 470 L 484 476 L 484 478 L 475 495 L 475 501 L 477 503 L 479 503 L 484 498 L 486 498 L 492 504 L 492 505 L 499 514 L 499 523 L 502 525 L 508 525 L 515 533 L 517 533 L 521 535 L 526 535 L 530 537 L 532 539 L 534 539 L 535 540 L 548 539 L 549 540 L 551 540 L 558 547 L 563 557 L 565 559 L 565 561 L 568 568 L 568 571 L 569 572 L 570 580 L 571 581 L 572 602 L 571 603 L 571 620 L 570 621 L 570 623 L 564 630 L 561 630 L 557 626 L 555 627 L 555 629 L 554 630 L 555 634 L 561 639 L 561 644 L 558 647 L 554 649 L 547 649 L 541 646 L 537 642 L 536 642 L 535 643 L 535 647 L 538 651 L 539 655 L 537 657 L 530 656 L 527 654 L 525 654 L 521 652 L 515 645 L 514 642 L 510 637 L 510 635 L 509 634 L 509 628 L 512 625 L 515 619 L 515 617 L 514 616 L 512 617 L 509 617 L 505 619 L 495 620 L 494 621 L 487 621 L 486 620 L 470 620 L 469 619 L 462 619 L 461 618 L 451 617 L 447 615 L 443 615 L 439 613 L 436 613 L 432 611 L 425 603 L 422 603 L 419 606 L 418 606 L 413 601 L 412 598 L 409 595 L 409 594 L 398 584 L 398 583 L 392 577 L 392 576 L 384 567 L 384 564 L 386 562 L 390 561 L 392 559 L 392 557 L 390 555 L 383 555 L 382 556 L 377 556 L 376 557 L 360 557 L 359 558 L 350 558 L 349 557 L 337 557 L 336 556 L 329 556 L 328 555 L 325 555 L 324 554 L 319 554 L 318 553 L 315 553 L 314 552 L 303 550 L 303 553 L 306 556 L 312 558 L 315 561 L 315 562 L 300 576 L 299 576 L 295 580 L 292 585 L 287 587 L 285 589 L 283 596 L 280 599 L 276 598 L 273 601 L 271 605 L 270 610 L 268 613 L 268 616 L 267 617 L 267 620 L 266 622 L 264 624 L 263 624 L 261 622 L 259 622 L 257 624 L 257 626 L 255 630 L 254 638 L 253 639 L 252 644 L 250 647 L 250 649 L 242 657 L 236 658 L 235 659 L 232 659 L 231 658 L 229 658 L 221 652 L 211 647 L 205 642 L 204 642 L 199 638 L 196 637 L 194 635 L 185 631 L 180 627 L 160 617 L 157 617 L 156 616 L 153 616 L 152 615 L 139 615 L 132 622 L 131 622 L 125 615 L 127 613 L 129 614 L 132 614 L 132 610 L 130 607 L 130 605 L 123 597 L 123 594 L 125 590 L 128 587 L 129 587 L 132 584 L 140 580 L 144 580 L 145 579 L 159 579 L 160 580 L 166 580 L 167 581 L 171 581 L 172 582 L 174 582 L 187 589 L 189 589 L 189 587 L 184 582 L 179 580 L 174 575 L 174 568 L 177 563 L 179 556 L 187 541 L 186 539 L 178 539 L 174 543 L 172 547 L 172 549 L 170 552 L 170 554 L 166 562 L 165 570 L 163 572 L 152 572 L 151 571 L 146 571 L 145 572 L 140 572 L 136 574 L 133 574 L 129 576 L 127 578 L 126 578 L 115 590 L 113 594 L 113 596 L 112 597 L 112 601 L 111 602 L 111 607 L 112 608 L 112 611 L 114 615 L 116 617 L 116 618 L 126 628 L 139 636 L 142 639 L 148 642 L 157 649 L 162 651 L 164 653 L 170 656 L 172 656 L 178 659 L 180 659 L 187 662 L 190 662 L 194 664 L 198 664 L 199 665 L 202 665 L 203 666 L 208 666 L 209 667 L 235 667 L 236 666 L 239 666 L 251 661 L 258 654 L 261 648 L 262 642 L 265 636 L 271 631 L 271 630 L 275 625 L 277 620 L 279 618 L 281 610 L 292 600 L 292 599 L 302 588 L 305 583 L 311 577 L 312 577 L 317 572 L 318 572 L 319 570 L 326 563 L 332 563 L 333 564 L 336 564 L 337 565 L 343 565 L 344 566 L 375 566 L 380 571 L 381 574 L 386 580 L 386 581 L 403 599 L 403 600 L 410 607 L 411 607 L 414 610 L 417 611 L 420 614 L 432 620 L 437 624 L 441 625 L 442 626 L 445 626 L 446 627 L 450 625 L 454 625 L 455 626 L 459 626 L 460 627 L 465 627 L 466 628 L 474 628 L 475 629 L 497 628 L 501 631 L 501 633 L 503 636 L 503 638 L 504 639 L 504 641 L 507 648 L 517 657 L 527 662 L 530 662 L 534 664 L 543 664 L 544 663 L 549 662 L 552 660 L 554 660 L 562 654 L 562 653 L 566 649 L 574 636 L 574 634 L 576 631 L 577 625 L 579 621 L 579 615 L 580 614 L 580 588 L 579 587 L 579 579 L 578 578 L 578 573 L 577 572 L 577 569 L 576 568 L 574 560 L 572 557 L 572 555 L 570 551 L 568 549 L 567 546 L 560 539 L 559 539 L 553 534 L 551 534 L 550 533 L 546 533 L 545 532 L 533 532 L 526 529 L 505 509 L 499 499 L 492 490 L 492 483 L 498 471 L 506 464 L 507 464 L 516 455 L 521 444 L 522 434 L 521 433 L 521 428 L 520 427 L 520 424 L 515 413 L 508 406 L 504 405 L 503 404 L 500 404 L 494 397 L 494 395 L 493 394 L 493 385 L 492 384 L 492 382 L 490 378 L 487 375 L 484 370 L 484 350 L 483 349 L 483 341 L 482 340 L 482 335 L 481 334 L 481 318 L 475 306 L 475 304 L 474 303 L 474 297 L 471 291 L 469 289 L 469 287 L 470 286 L 469 279 L 466 273 L 458 264 L 458 257 L 444 243 L 444 238 L 442 236 L 442 234 L 456 218 L 460 210 L 460 208 L 467 200 L 468 196 L 469 195 L 469 187 L 470 185 L 476 180 L 476 178 L 477 177 L 477 166 L 475 163 L 475 161 L 480 155 L 480 148 L 476 139 L 474 137 L 474 133 L 477 130 L 477 124 L 475 120 L 466 113 L 465 111 L 465 108 L 462 101 L 460 99 L 459 96 L 457 94 L 456 91 L 454 89 L 448 79 L 448 78 L 457 68 L 459 64 L 460 59 L 462 56 L 462 42 L 461 41 L 460 35 L 455 26 L 448 18 L 447 18 L 444 15 L 438 12 L 436 12 Z M 502 414 L 504 414 L 507 417 L 507 420 L 513 430 L 513 441 L 512 442 L 512 445 L 509 451 L 504 457 L 502 455 L 502 452 L 503 451 L 503 439 L 502 438 L 502 431 L 501 430 L 501 424 L 500 423 L 500 416 Z M 474 382 L 477 379 L 481 379 L 484 382 L 485 385 L 483 387 L 480 387 L 479 386 L 477 386 L 474 383 Z" fill="#010101" fill-rule="evenodd"/></svg>