<svg xmlns="http://www.w3.org/2000/svg" viewBox="0 0 653 704" shape-rendering="geometricPrecision"><title>intro frame 074</title><path d="M 486 626 L 486 628 L 488 630 L 488 633 L 489 634 L 491 634 L 493 636 L 497 636 L 498 637 L 499 636 L 499 633 L 502 628 L 501 626 Z M 212 527 L 208 531 L 208 533 L 210 535 L 210 539 L 206 545 L 206 547 L 204 549 L 199 560 L 199 562 L 202 561 L 205 564 L 204 569 L 201 575 L 201 578 L 204 582 L 204 599 L 205 600 L 205 604 L 207 608 L 208 615 L 211 620 L 213 620 L 216 622 L 228 623 L 232 625 L 235 625 L 241 628 L 244 632 L 241 635 L 239 634 L 229 633 L 228 632 L 222 632 L 221 631 L 205 631 L 204 632 L 197 633 L 191 636 L 185 642 L 181 652 L 181 658 L 182 661 L 184 661 L 185 655 L 188 650 L 191 647 L 197 645 L 200 648 L 200 653 L 198 656 L 198 659 L 197 660 L 197 668 L 199 670 L 202 671 L 208 671 L 209 670 L 209 661 L 211 658 L 211 656 L 216 650 L 221 649 L 225 653 L 223 659 L 223 662 L 222 663 L 222 671 L 223 672 L 226 672 L 227 673 L 255 673 L 256 672 L 260 672 L 265 668 L 274 664 L 278 661 L 284 654 L 283 647 L 282 645 L 277 641 L 273 632 L 274 626 L 270 619 L 270 616 L 258 601 L 258 598 L 261 596 L 270 603 L 270 595 L 272 593 L 275 592 L 270 585 L 264 579 L 257 575 L 246 563 L 245 563 L 239 557 L 230 552 L 222 544 L 217 536 L 217 532 L 216 530 Z M 363 558 L 363 578 L 364 579 L 364 585 L 366 591 L 371 599 L 373 601 L 375 601 L 382 608 L 386 608 L 388 606 L 391 605 L 396 607 L 403 607 L 404 606 L 408 606 L 411 604 L 428 604 L 429 603 L 433 603 L 439 600 L 444 600 L 446 598 L 455 596 L 458 593 L 469 591 L 474 585 L 481 585 L 485 583 L 488 584 L 492 581 L 492 579 L 491 579 L 490 577 L 493 575 L 491 572 L 487 570 L 484 571 L 481 567 L 477 568 L 473 574 L 466 574 L 461 570 L 461 562 L 462 561 L 461 559 L 456 559 L 452 561 L 451 560 L 450 556 L 452 553 L 457 549 L 458 533 L 456 531 L 451 531 L 450 530 L 447 530 L 446 531 L 443 531 L 442 530 L 420 530 L 419 529 L 413 529 L 412 528 L 408 528 L 402 526 L 397 526 L 396 525 L 391 525 L 389 526 L 384 524 L 380 524 L 376 528 L 374 536 L 369 542 L 364 553 L 364 557 Z M 222 300 L 211 308 L 210 317 L 206 321 L 202 323 L 201 330 L 197 335 L 188 343 L 166 349 L 164 351 L 162 351 L 156 355 L 151 356 L 147 359 L 141 361 L 122 373 L 114 373 L 110 370 L 101 370 L 99 372 L 100 374 L 117 379 L 119 381 L 119 385 L 111 394 L 109 394 L 107 396 L 98 397 L 94 404 L 94 408 L 93 409 L 94 423 L 95 424 L 95 429 L 98 435 L 102 437 L 104 436 L 102 432 L 99 429 L 96 421 L 97 407 L 104 399 L 107 398 L 113 393 L 127 392 L 136 396 L 139 399 L 143 407 L 144 413 L 146 417 L 147 431 L 149 432 L 152 428 L 154 428 L 158 425 L 162 425 L 175 416 L 189 404 L 192 404 L 193 402 L 195 401 L 197 386 L 199 383 L 199 380 L 200 379 L 200 376 L 198 373 L 198 359 L 204 347 L 203 338 L 206 333 L 210 329 L 210 325 L 215 317 L 218 314 L 218 309 L 222 303 Z M 227 290 L 226 289 L 222 292 L 225 293 Z M 405 243 L 402 244 L 400 243 L 399 244 L 399 249 L 400 250 L 404 246 Z M 408 47 L 399 46 L 387 50 L 377 59 L 375 63 L 375 66 L 371 69 L 362 65 L 360 65 L 357 63 L 350 62 L 345 60 L 323 61 L 321 59 L 321 57 L 324 52 L 323 51 L 319 52 L 311 60 L 307 60 L 305 58 L 297 54 L 295 54 L 294 55 L 295 62 L 293 64 L 275 64 L 270 69 L 261 72 L 258 72 L 254 75 L 252 75 L 245 81 L 242 81 L 239 78 L 236 72 L 230 67 L 223 64 L 215 64 L 214 65 L 210 65 L 200 71 L 195 76 L 190 85 L 190 88 L 189 89 L 189 101 L 193 109 L 199 115 L 202 117 L 205 117 L 208 120 L 208 123 L 206 129 L 198 144 L 199 154 L 191 162 L 190 162 L 187 166 L 188 167 L 189 166 L 193 166 L 195 168 L 195 171 L 188 184 L 188 186 L 193 185 L 195 187 L 195 191 L 191 202 L 191 208 L 192 209 L 194 207 L 197 207 L 199 209 L 199 229 L 201 233 L 204 229 L 207 229 L 209 231 L 211 237 L 212 245 L 214 247 L 218 244 L 225 252 L 229 252 L 231 254 L 235 255 L 250 266 L 256 274 L 256 277 L 254 279 L 252 279 L 246 276 L 243 276 L 243 282 L 233 293 L 233 299 L 228 304 L 224 310 L 226 313 L 226 317 L 219 324 L 223 327 L 223 329 L 221 335 L 218 339 L 217 350 L 212 359 L 212 361 L 214 361 L 219 356 L 223 354 L 225 354 L 227 356 L 227 359 L 222 369 L 216 377 L 215 381 L 210 391 L 214 394 L 214 398 L 212 400 L 209 407 L 205 412 L 205 414 L 208 414 L 210 416 L 210 420 L 200 440 L 201 443 L 203 441 L 205 441 L 208 444 L 204 456 L 204 461 L 203 462 L 202 471 L 203 471 L 207 466 L 209 468 L 208 490 L 211 488 L 214 490 L 215 504 L 225 518 L 227 519 L 231 516 L 233 518 L 236 528 L 238 529 L 240 527 L 242 527 L 248 534 L 249 537 L 254 542 L 258 543 L 258 541 L 249 531 L 247 525 L 244 520 L 242 514 L 242 511 L 244 510 L 247 513 L 261 537 L 266 541 L 268 547 L 271 550 L 279 555 L 280 555 L 278 550 L 271 541 L 267 533 L 267 530 L 266 529 L 267 527 L 269 527 L 271 529 L 272 532 L 277 539 L 289 551 L 298 557 L 300 557 L 302 553 L 305 550 L 311 554 L 322 539 L 325 541 L 325 548 L 323 553 L 323 556 L 324 557 L 326 557 L 331 553 L 342 541 L 345 544 L 346 547 L 345 550 L 345 556 L 347 556 L 351 549 L 351 546 L 353 544 L 354 539 L 356 536 L 356 532 L 357 531 L 356 529 L 356 523 L 360 518 L 361 510 L 360 507 L 355 502 L 355 500 L 351 496 L 349 491 L 347 489 L 347 484 L 345 481 L 346 480 L 346 476 L 344 474 L 341 458 L 338 451 L 334 447 L 334 444 L 333 443 L 334 441 L 334 432 L 335 431 L 335 428 L 340 419 L 359 401 L 358 398 L 354 396 L 351 396 L 349 394 L 346 394 L 341 388 L 343 386 L 351 387 L 357 390 L 360 393 L 364 394 L 367 389 L 367 387 L 369 386 L 371 381 L 374 378 L 374 375 L 377 370 L 377 364 L 378 363 L 378 356 L 372 341 L 372 337 L 374 335 L 376 335 L 379 337 L 388 347 L 390 346 L 393 347 L 397 344 L 400 344 L 402 346 L 402 351 L 396 364 L 395 369 L 378 401 L 369 413 L 356 421 L 349 429 L 349 435 L 351 436 L 358 431 L 360 431 L 362 433 L 362 443 L 356 456 L 356 462 L 360 465 L 364 465 L 367 461 L 371 461 L 373 459 L 377 459 L 379 461 L 380 466 L 379 467 L 379 470 L 376 479 L 377 481 L 379 482 L 383 482 L 387 479 L 391 479 L 395 474 L 395 472 L 400 467 L 404 467 L 410 472 L 415 472 L 420 474 L 424 474 L 429 472 L 431 470 L 433 470 L 447 455 L 449 450 L 450 441 L 453 434 L 459 428 L 467 428 L 469 426 L 469 423 L 470 422 L 470 412 L 471 411 L 471 406 L 474 402 L 476 402 L 480 407 L 482 406 L 483 404 L 483 387 L 482 386 L 483 385 L 483 380 L 485 378 L 487 378 L 491 383 L 493 384 L 493 375 L 492 374 L 492 371 L 490 368 L 490 365 L 487 361 L 484 352 L 486 350 L 488 350 L 494 354 L 496 354 L 496 353 L 485 337 L 472 325 L 472 323 L 474 321 L 478 321 L 480 322 L 480 321 L 474 315 L 461 305 L 461 302 L 463 299 L 457 294 L 455 294 L 449 288 L 451 285 L 457 285 L 457 284 L 453 280 L 444 274 L 433 269 L 430 266 L 430 264 L 432 262 L 435 262 L 435 261 L 433 261 L 426 257 L 424 257 L 422 255 L 412 254 L 406 256 L 395 263 L 393 263 L 386 269 L 382 267 L 380 270 L 373 275 L 369 275 L 367 273 L 368 271 L 368 265 L 371 259 L 375 257 L 377 259 L 377 261 L 379 261 L 382 258 L 383 254 L 386 251 L 390 252 L 393 247 L 393 244 L 395 242 L 398 242 L 400 233 L 405 230 L 409 230 L 408 226 L 401 219 L 403 217 L 407 217 L 413 220 L 414 219 L 414 215 L 412 212 L 412 210 L 415 208 L 419 211 L 421 211 L 421 206 L 417 200 L 419 198 L 421 198 L 422 195 L 415 187 L 417 185 L 420 185 L 425 188 L 429 188 L 431 187 L 435 190 L 435 197 L 436 198 L 439 198 L 443 201 L 444 199 L 442 193 L 439 188 L 437 182 L 437 179 L 439 177 L 444 177 L 446 179 L 448 178 L 443 170 L 437 165 L 433 160 L 433 157 L 435 155 L 444 155 L 444 154 L 441 151 L 434 147 L 429 142 L 429 140 L 433 137 L 433 135 L 429 130 L 422 114 L 415 105 L 415 103 L 417 101 L 423 99 L 429 93 L 430 90 L 432 88 L 434 82 L 434 74 L 429 62 L 420 53 L 414 49 Z M 345 520 L 347 522 L 348 530 L 346 533 L 346 536 L 343 538 L 342 537 L 342 533 L 341 531 L 343 528 L 343 523 Z M 243 486 L 244 487 L 244 499 L 242 504 L 240 502 L 240 492 L 241 491 L 241 487 Z M 227 464 L 229 466 L 229 473 L 228 474 L 227 485 L 224 486 L 222 482 L 222 477 L 223 476 L 224 468 Z M 226 438 L 228 441 L 224 448 L 222 454 L 218 457 L 216 453 L 217 452 L 217 449 L 220 443 Z M 273 334 L 275 331 L 278 333 L 275 336 Z M 356 320 L 360 325 L 361 330 L 363 333 L 363 336 L 362 337 L 360 337 L 353 329 L 353 323 Z M 269 319 L 270 322 L 267 326 L 263 329 L 262 328 L 263 325 L 266 321 Z M 324 306 L 325 306 L 328 310 L 328 313 L 326 314 L 322 309 Z M 361 269 L 363 266 L 365 267 L 363 270 Z M 349 268 L 348 273 L 331 290 L 325 293 L 319 298 L 310 301 L 302 301 L 291 296 L 275 285 L 267 276 L 267 274 L 270 271 L 277 271 L 286 274 L 309 274 L 310 273 L 317 273 L 318 272 L 327 271 L 328 270 L 339 268 L 343 266 L 347 266 Z M 338 155 L 340 151 L 346 146 L 353 145 L 354 144 L 367 144 L 368 145 L 372 145 L 378 147 L 383 150 L 387 154 L 390 160 L 390 163 L 388 168 L 382 173 L 376 174 L 375 175 L 365 175 L 364 174 L 359 174 L 353 172 L 346 168 L 340 162 Z M 261 134 L 263 132 L 275 128 L 283 128 L 284 129 L 288 129 L 294 132 L 297 135 L 297 137 L 295 139 L 290 139 L 286 137 L 280 137 L 279 136 L 274 136 L 273 137 L 264 138 Z M 243 121 L 248 121 L 253 127 L 254 130 L 254 135 L 252 139 L 253 142 L 256 141 L 270 141 L 271 142 L 274 142 L 280 144 L 289 152 L 290 154 L 290 160 L 286 167 L 282 171 L 275 174 L 273 176 L 267 178 L 263 178 L 262 179 L 257 179 L 248 176 L 245 174 L 239 168 L 237 164 L 235 165 L 234 178 L 236 182 L 240 186 L 244 188 L 249 188 L 256 185 L 260 182 L 264 182 L 271 185 L 279 186 L 280 187 L 286 187 L 287 188 L 297 187 L 298 186 L 301 186 L 307 184 L 315 180 L 320 175 L 321 172 L 324 169 L 328 169 L 331 172 L 333 176 L 335 198 L 334 199 L 334 207 L 333 208 L 332 217 L 328 229 L 323 238 L 315 247 L 301 255 L 293 256 L 292 257 L 284 256 L 279 253 L 273 251 L 261 239 L 255 231 L 248 219 L 244 207 L 243 199 L 235 195 L 225 184 L 224 178 L 223 177 L 223 170 L 217 175 L 210 179 L 204 179 L 202 178 L 197 172 L 198 162 L 202 158 L 210 153 L 213 152 L 222 152 L 224 153 L 227 157 L 230 156 L 235 157 L 235 154 L 237 148 L 234 144 L 234 141 L 233 140 L 234 138 L 234 133 L 238 125 Z M 326 119 L 332 119 L 337 123 L 340 130 L 340 139 L 337 146 L 333 150 L 326 150 L 324 149 L 320 145 L 318 140 L 318 131 L 319 130 L 319 127 L 321 123 Z M 261 88 L 261 93 L 259 95 L 251 98 L 247 102 L 241 104 L 237 101 L 238 94 L 248 85 L 251 84 L 257 84 Z M 221 78 L 224 79 L 230 85 L 231 89 L 224 97 L 218 106 L 214 110 L 211 111 L 203 104 L 201 100 L 201 90 L 204 85 L 212 78 Z M 322 82 L 327 77 L 335 76 L 341 78 L 346 81 L 350 87 L 350 90 L 347 94 L 342 94 L 333 89 L 326 88 L 322 84 Z M 401 60 L 406 60 L 412 63 L 418 69 L 422 79 L 421 86 L 415 93 L 409 96 L 404 94 L 401 90 L 391 82 L 386 76 L 387 72 L 389 69 L 396 62 Z" fill="#FBFBFB" fill-rule="evenodd"/><path d="M 345 521 L 344 523 L 344 528 L 342 531 L 343 533 L 343 537 L 345 536 L 345 533 L 347 530 L 347 526 Z M 243 487 L 242 487 L 242 491 L 241 492 L 241 502 L 242 503 L 242 500 L 243 499 Z M 527 483 L 523 490 L 515 499 L 511 502 L 502 506 L 497 511 L 492 524 L 492 527 L 503 527 L 496 527 L 492 524 L 494 521 L 497 511 L 501 507 L 513 501 L 521 493 Z M 227 465 L 225 468 L 224 476 L 223 477 L 224 485 L 226 485 L 226 481 L 227 480 L 227 474 L 228 473 L 228 466 Z M 226 439 L 221 443 L 218 449 L 218 452 L 217 453 L 218 456 L 221 454 L 223 450 L 223 448 L 227 441 Z M 510 438 L 508 438 L 506 440 L 506 445 L 505 446 L 505 452 L 506 453 L 506 480 L 505 481 L 504 490 L 505 490 L 512 480 L 518 465 L 518 452 L 517 450 L 512 446 L 512 443 Z M 492 431 L 490 430 L 487 433 L 487 435 L 480 445 L 465 459 L 456 471 L 447 480 L 446 480 L 433 492 L 424 498 L 413 503 L 403 504 L 394 501 L 389 501 L 384 499 L 378 499 L 375 498 L 373 496 L 371 496 L 358 487 L 346 475 L 344 471 L 344 468 L 345 474 L 347 476 L 347 480 L 346 481 L 348 484 L 348 489 L 350 491 L 352 496 L 356 500 L 356 502 L 361 507 L 362 510 L 361 518 L 357 523 L 357 529 L 358 530 L 357 532 L 357 536 L 355 539 L 355 542 L 352 546 L 352 549 L 347 557 L 344 556 L 344 550 L 345 547 L 344 544 L 342 542 L 331 554 L 326 558 L 324 558 L 322 556 L 322 553 L 324 548 L 324 541 L 322 540 L 315 551 L 311 555 L 305 551 L 303 553 L 302 556 L 300 558 L 298 558 L 289 552 L 276 539 L 271 532 L 270 529 L 267 528 L 268 533 L 272 541 L 275 544 L 276 547 L 279 550 L 281 555 L 279 556 L 271 551 L 267 547 L 265 541 L 260 537 L 246 513 L 243 511 L 243 514 L 245 520 L 248 525 L 250 531 L 259 541 L 258 544 L 254 543 L 248 537 L 247 534 L 242 528 L 240 528 L 238 530 L 235 528 L 234 523 L 231 517 L 226 520 L 220 513 L 219 510 L 214 504 L 213 490 L 212 489 L 209 491 L 207 490 L 207 482 L 207 496 L 208 497 L 210 493 L 213 495 L 214 506 L 218 514 L 223 520 L 226 526 L 227 531 L 224 534 L 222 534 L 220 533 L 213 525 L 211 525 L 205 533 L 209 536 L 209 538 L 197 562 L 197 565 L 201 563 L 203 565 L 203 569 L 201 572 L 201 574 L 204 564 L 202 562 L 199 563 L 198 560 L 203 549 L 205 547 L 205 545 L 209 539 L 209 535 L 207 533 L 207 531 L 213 526 L 217 530 L 218 532 L 218 536 L 223 544 L 230 551 L 239 556 L 245 562 L 246 562 L 257 574 L 264 578 L 271 585 L 276 592 L 274 594 L 271 595 L 271 603 L 270 604 L 261 597 L 259 598 L 259 601 L 271 616 L 271 619 L 275 626 L 274 632 L 278 641 L 283 645 L 285 650 L 285 654 L 278 662 L 274 665 L 265 669 L 260 673 L 256 673 L 255 674 L 227 674 L 226 673 L 223 673 L 221 671 L 221 663 L 222 662 L 222 659 L 224 653 L 221 650 L 218 650 L 216 651 L 212 656 L 212 658 L 210 661 L 210 670 L 208 672 L 202 672 L 199 671 L 196 668 L 196 660 L 197 659 L 197 656 L 199 653 L 199 648 L 197 646 L 195 646 L 189 650 L 186 655 L 185 661 L 184 662 L 182 662 L 180 658 L 180 652 L 184 642 L 191 635 L 196 633 L 188 637 L 182 646 L 180 652 L 180 661 L 181 663 L 184 666 L 186 665 L 185 664 L 185 661 L 188 652 L 193 647 L 197 646 L 199 648 L 199 652 L 196 659 L 196 669 L 198 671 L 201 671 L 202 672 L 210 672 L 211 671 L 210 670 L 211 659 L 213 655 L 218 650 L 221 650 L 223 652 L 223 658 L 221 663 L 221 672 L 224 674 L 264 674 L 265 673 L 276 673 L 277 672 L 285 672 L 286 671 L 296 670 L 305 667 L 309 664 L 311 659 L 311 644 L 310 643 L 308 632 L 310 630 L 313 631 L 314 630 L 313 628 L 313 618 L 312 617 L 312 612 L 311 611 L 310 604 L 312 602 L 318 604 L 318 594 L 322 586 L 305 578 L 301 574 L 301 572 L 303 570 L 308 570 L 309 571 L 312 571 L 316 573 L 324 574 L 325 575 L 342 576 L 345 577 L 347 576 L 349 573 L 351 559 L 354 553 L 358 549 L 361 549 L 362 550 L 362 580 L 363 581 L 363 586 L 364 587 L 365 593 L 367 595 L 367 597 L 369 599 L 370 602 L 387 617 L 393 620 L 400 621 L 403 623 L 409 625 L 412 625 L 413 626 L 417 626 L 418 627 L 437 627 L 438 626 L 449 624 L 471 612 L 483 603 L 485 603 L 487 605 L 487 608 L 485 611 L 463 631 L 456 635 L 452 639 L 451 643 L 456 647 L 458 647 L 464 650 L 471 656 L 479 657 L 476 652 L 476 646 L 481 641 L 487 639 L 493 641 L 496 644 L 501 645 L 503 641 L 503 633 L 504 631 L 509 627 L 511 627 L 513 629 L 514 634 L 516 636 L 518 636 L 520 631 L 520 617 L 521 616 L 521 610 L 522 609 L 522 578 L 521 577 L 521 571 L 519 566 L 519 562 L 514 552 L 509 546 L 506 545 L 504 543 L 501 543 L 500 542 L 489 542 L 484 545 L 478 554 L 478 556 L 475 561 L 467 569 L 464 567 L 465 558 L 460 556 L 458 554 L 462 550 L 465 541 L 470 537 L 473 531 L 473 526 L 475 520 L 477 518 L 487 497 L 488 488 L 489 487 L 489 468 L 491 466 L 494 466 L 494 460 L 493 459 L 491 448 L 489 444 L 489 438 L 492 433 Z M 485 626 L 486 625 L 501 625 L 503 628 L 500 633 L 500 636 L 498 638 L 489 635 L 487 633 L 487 630 L 485 628 Z M 260 546 L 269 556 L 267 558 L 259 551 L 258 548 Z M 275 542 L 276 541 L 286 552 L 284 553 L 278 547 Z M 245 535 L 258 550 L 256 552 L 252 550 L 245 542 L 243 537 Z M 362 558 L 363 557 L 363 553 L 365 550 L 365 548 L 368 542 L 373 536 L 375 528 L 380 523 L 384 523 L 389 525 L 391 524 L 396 524 L 397 525 L 402 525 L 403 526 L 407 526 L 413 528 L 419 528 L 420 529 L 442 529 L 443 530 L 450 529 L 451 530 L 456 530 L 459 533 L 458 549 L 455 551 L 451 556 L 452 560 L 456 558 L 461 558 L 463 560 L 462 562 L 462 570 L 466 573 L 473 573 L 477 567 L 481 566 L 484 570 L 487 569 L 491 571 L 494 575 L 491 577 L 491 578 L 493 579 L 493 581 L 488 585 L 485 584 L 481 586 L 474 586 L 469 592 L 458 594 L 455 597 L 446 599 L 444 601 L 439 601 L 433 604 L 429 604 L 428 605 L 411 605 L 408 607 L 404 607 L 403 608 L 396 608 L 391 606 L 388 607 L 386 609 L 382 609 L 375 602 L 373 602 L 370 599 L 365 591 L 363 585 L 363 579 L 362 578 Z M 231 522 L 233 523 L 235 529 L 238 534 L 238 536 L 240 538 L 240 540 L 238 542 L 234 539 L 232 535 L 231 529 L 230 528 L 230 523 Z M 249 521 L 254 527 L 257 533 L 256 535 L 252 532 L 251 529 L 249 527 L 247 522 Z M 63 417 L 59 420 L 58 422 L 59 425 L 62 425 L 63 424 L 63 420 L 64 419 Z M 211 401 L 203 414 L 203 416 L 207 415 L 209 417 L 209 419 L 198 442 L 199 445 L 203 442 L 206 444 L 206 448 L 204 452 L 203 460 L 202 461 L 201 473 L 202 474 L 203 472 L 206 470 L 208 472 L 208 480 L 208 468 L 207 467 L 203 472 L 201 471 L 201 467 L 203 461 L 203 456 L 207 444 L 205 442 L 203 442 L 201 444 L 199 442 L 199 440 L 209 420 L 209 416 L 208 415 L 205 415 L 204 412 L 208 407 Z M 76 390 L 68 391 L 65 393 L 62 397 L 65 399 L 72 399 L 75 396 L 75 392 Z M 374 379 L 372 381 L 370 386 L 368 387 L 368 389 L 364 395 L 360 394 L 357 391 L 351 388 L 347 388 L 346 387 L 343 387 L 342 388 L 346 393 L 349 393 L 351 395 L 354 395 L 360 399 L 360 401 L 341 419 L 336 428 L 336 431 L 335 432 L 335 441 L 334 443 L 335 444 L 335 447 L 339 451 L 341 455 L 342 461 L 343 462 L 343 466 L 342 456 L 335 445 L 335 434 L 336 433 L 337 427 L 340 422 L 349 413 L 349 412 L 361 401 Z M 225 355 L 219 357 L 214 362 L 212 362 L 211 360 L 212 363 L 213 362 L 216 362 L 222 357 L 224 359 L 224 361 L 221 367 L 215 374 L 215 377 L 213 383 L 210 387 L 208 392 L 211 393 L 213 395 L 212 399 L 213 398 L 213 394 L 211 393 L 209 390 L 214 381 L 215 377 L 221 369 L 226 359 L 226 356 Z M 356 321 L 354 323 L 354 329 L 360 336 L 362 336 L 362 333 L 360 330 L 359 325 Z M 269 320 L 267 321 L 263 328 L 266 326 L 269 322 Z M 324 307 L 323 309 L 324 311 L 327 313 L 327 310 L 326 308 Z M 198 300 L 195 306 L 187 314 L 182 317 L 177 323 L 172 325 L 164 333 L 155 337 L 148 342 L 139 345 L 133 350 L 139 345 L 148 342 L 154 339 L 159 335 L 167 332 L 171 326 L 178 323 L 182 318 L 195 306 Z M 348 268 L 347 267 L 343 267 L 339 269 L 336 269 L 327 272 L 323 272 L 317 274 L 310 274 L 309 275 L 286 275 L 277 272 L 270 272 L 268 274 L 268 276 L 275 284 L 291 295 L 302 300 L 310 300 L 319 297 L 325 292 L 331 289 L 347 273 Z M 320 290 L 321 292 L 318 295 L 315 296 L 313 294 L 316 291 Z M 286 277 L 288 276 L 290 279 L 288 280 Z M 279 276 L 282 275 L 284 277 L 283 278 L 280 278 Z M 270 276 L 272 274 L 275 274 L 277 276 L 276 277 L 280 281 L 282 281 L 283 283 L 288 287 L 290 286 L 292 287 L 297 292 L 303 295 L 310 294 L 312 296 L 309 299 L 302 299 L 299 298 L 279 286 L 270 277 Z M 191 199 L 189 208 L 191 211 L 194 209 L 196 209 L 198 211 L 198 229 L 201 235 L 204 231 L 206 231 L 208 233 L 210 239 L 210 242 L 213 248 L 216 249 L 218 246 L 221 249 L 225 256 L 232 263 L 238 266 L 243 271 L 243 273 L 239 277 L 235 277 L 234 278 L 235 281 L 233 283 L 218 293 L 221 296 L 221 298 L 214 305 L 206 309 L 206 311 L 209 313 L 208 317 L 199 323 L 200 326 L 199 329 L 193 335 L 189 336 L 188 337 L 188 340 L 186 342 L 178 345 L 167 347 L 161 351 L 153 355 L 151 355 L 142 360 L 145 358 L 147 358 L 151 355 L 156 354 L 158 352 L 160 352 L 166 348 L 188 342 L 194 337 L 200 330 L 201 323 L 209 317 L 210 308 L 216 304 L 221 299 L 223 300 L 223 303 L 219 309 L 219 314 L 216 317 L 211 325 L 211 329 L 207 333 L 204 338 L 205 347 L 199 359 L 199 373 L 201 376 L 201 379 L 200 380 L 200 383 L 198 386 L 196 401 L 194 402 L 192 405 L 189 405 L 175 417 L 162 426 L 158 426 L 156 428 L 152 429 L 151 431 L 148 433 L 146 431 L 146 422 L 145 421 L 145 417 L 143 413 L 143 410 L 138 399 L 136 397 L 127 393 L 118 393 L 117 394 L 113 394 L 110 397 L 104 400 L 98 407 L 97 421 L 100 429 L 103 432 L 105 436 L 103 438 L 98 436 L 95 432 L 94 424 L 93 423 L 93 416 L 92 415 L 93 404 L 98 396 L 107 395 L 109 393 L 111 393 L 118 385 L 118 381 L 117 380 L 100 375 L 98 372 L 101 369 L 110 369 L 114 372 L 122 372 L 124 370 L 140 361 L 122 371 L 114 371 L 111 369 L 101 367 L 100 368 L 92 368 L 87 372 L 88 374 L 90 373 L 97 374 L 106 379 L 113 381 L 116 385 L 112 391 L 109 393 L 102 394 L 101 395 L 96 394 L 91 386 L 88 386 L 87 387 L 88 392 L 93 397 L 92 400 L 92 407 L 88 412 L 88 414 L 91 417 L 91 421 L 92 422 L 92 426 L 94 429 L 94 433 L 90 438 L 87 438 L 81 442 L 76 443 L 73 446 L 73 448 L 75 450 L 79 451 L 80 450 L 79 444 L 82 441 L 87 440 L 91 437 L 100 437 L 102 438 L 106 442 L 106 446 L 100 456 L 100 460 L 101 462 L 104 464 L 110 464 L 111 462 L 105 460 L 103 458 L 103 454 L 104 452 L 111 446 L 114 447 L 122 447 L 126 451 L 126 453 L 123 458 L 124 459 L 132 455 L 148 443 L 156 442 L 157 441 L 162 441 L 171 438 L 175 438 L 182 435 L 185 435 L 189 431 L 190 429 L 190 418 L 191 417 L 191 413 L 197 402 L 197 392 L 198 391 L 198 387 L 202 378 L 199 372 L 199 359 L 205 347 L 204 339 L 206 335 L 215 327 L 219 326 L 222 329 L 222 327 L 218 324 L 225 317 L 225 313 L 223 310 L 227 304 L 232 299 L 232 293 L 242 282 L 242 276 L 243 275 L 246 275 L 252 278 L 255 277 L 254 272 L 251 268 L 244 262 L 235 256 L 231 255 L 229 253 L 225 253 L 218 245 L 214 248 L 211 245 L 210 237 L 207 230 L 204 230 L 201 234 L 199 232 L 198 229 L 198 209 L 197 208 L 194 208 L 192 210 L 190 208 L 190 202 Z M 117 394 L 124 393 L 133 396 L 139 402 L 142 408 L 143 414 L 145 418 L 145 432 L 142 439 L 135 446 L 122 446 L 112 442 L 109 440 L 103 433 L 98 423 L 98 409 L 99 407 L 105 401 Z M 223 316 L 222 319 L 217 323 L 215 321 L 221 315 Z M 226 288 L 228 291 L 225 294 L 223 294 L 221 292 Z M 244 267 L 245 266 L 248 267 L 254 274 L 252 276 L 248 275 L 245 272 Z M 460 174 L 462 184 L 456 191 L 458 197 L 458 206 L 456 211 L 449 217 L 448 226 L 446 230 L 440 236 L 439 241 L 439 238 L 447 229 L 449 218 L 457 210 L 458 207 L 458 196 L 457 195 L 457 191 L 461 187 L 462 184 L 462 180 Z M 339 155 L 341 162 L 346 167 L 353 171 L 359 173 L 364 173 L 365 174 L 375 174 L 376 173 L 382 172 L 387 168 L 389 163 L 389 160 L 386 154 L 383 151 L 378 148 L 372 146 L 368 146 L 367 145 L 354 145 L 353 146 L 346 147 L 341 151 Z M 340 155 L 346 148 L 352 146 L 368 146 L 369 147 L 376 148 L 382 151 L 388 158 L 388 165 L 382 171 L 376 172 L 375 173 L 364 173 L 363 172 L 359 172 L 358 171 L 355 171 L 346 166 L 340 159 Z M 262 134 L 264 137 L 273 136 L 274 135 L 286 136 L 290 138 L 295 138 L 296 137 L 296 135 L 294 133 L 288 130 L 284 130 L 283 129 L 275 129 Z M 243 122 L 239 125 L 238 128 L 236 130 L 235 137 L 235 133 L 238 127 L 243 122 L 248 122 L 251 125 L 253 130 L 252 137 L 248 143 L 249 144 L 250 143 L 255 143 L 256 142 L 270 142 L 283 147 L 289 154 L 289 159 L 287 164 L 280 171 L 272 175 L 266 177 L 254 177 L 247 174 L 239 166 L 236 159 L 236 154 L 236 157 L 235 158 L 233 157 L 227 158 L 225 155 L 222 153 L 213 153 L 206 156 L 199 162 L 198 172 L 202 177 L 204 178 L 210 178 L 217 174 L 223 169 L 224 170 L 224 177 L 225 178 L 226 184 L 235 194 L 242 197 L 244 199 L 244 203 L 245 204 L 246 210 L 245 204 L 244 203 L 244 198 L 241 196 L 237 195 L 229 188 L 225 181 L 225 178 L 224 177 L 225 165 L 226 164 L 226 161 L 230 157 L 232 157 L 235 160 L 235 163 L 233 168 L 233 178 L 234 181 L 240 187 L 244 189 L 250 189 L 261 183 L 267 185 L 270 185 L 271 186 L 274 186 L 275 187 L 278 187 L 279 188 L 284 188 L 285 189 L 298 188 L 307 185 L 315 181 L 325 170 L 327 170 L 330 173 L 333 182 L 333 204 L 331 210 L 331 215 L 326 230 L 320 240 L 315 245 L 312 247 L 310 247 L 304 252 L 298 254 L 295 254 L 294 255 L 288 255 L 287 254 L 280 253 L 271 248 L 257 232 L 252 224 L 247 214 L 247 212 L 249 219 L 256 231 L 262 239 L 273 250 L 279 252 L 284 255 L 288 255 L 289 256 L 301 254 L 315 246 L 322 238 L 327 229 L 331 217 L 331 213 L 333 207 L 333 199 L 334 198 L 332 176 L 328 170 L 324 170 L 322 172 L 321 175 L 315 181 L 307 185 L 301 187 L 298 187 L 297 188 L 292 188 L 291 189 L 275 187 L 264 183 L 260 183 L 256 186 L 249 189 L 244 189 L 240 187 L 235 182 L 233 178 L 234 165 L 236 163 L 237 163 L 240 168 L 248 175 L 257 178 L 262 178 L 263 177 L 267 177 L 273 175 L 275 173 L 282 170 L 285 167 L 289 160 L 289 154 L 288 152 L 280 145 L 274 143 L 271 143 L 270 142 L 256 142 L 253 143 L 251 141 L 253 135 L 252 127 L 248 122 Z M 222 154 L 225 157 L 225 160 L 223 162 L 221 159 L 219 158 L 215 160 L 212 160 L 209 162 L 209 164 L 215 164 L 216 166 L 219 168 L 213 175 L 207 177 L 206 176 L 203 176 L 199 172 L 200 164 L 204 159 L 209 156 L 215 154 Z M 179 109 L 183 117 L 192 127 L 192 130 L 186 141 L 185 151 L 177 160 L 175 164 L 175 172 L 178 176 L 178 180 L 176 184 L 176 193 L 179 196 L 180 201 L 180 197 L 176 192 L 176 184 L 178 180 L 178 176 L 175 172 L 175 164 L 177 160 L 185 152 L 186 141 L 191 131 L 193 129 L 193 126 L 183 117 Z M 260 88 L 257 85 L 251 85 L 248 86 L 244 89 L 239 95 L 247 87 L 251 85 L 257 85 L 260 88 L 260 92 L 257 95 L 251 97 L 242 103 L 238 100 L 238 97 L 238 101 L 241 103 L 243 103 L 247 101 L 251 97 L 259 94 L 260 93 Z M 224 80 L 221 79 L 212 79 L 205 85 L 202 90 L 202 100 L 204 104 L 211 110 L 214 109 L 217 106 L 223 97 L 230 89 L 229 85 Z M 223 81 L 228 86 L 228 89 L 223 93 L 222 96 L 217 102 L 215 106 L 213 108 L 211 108 L 209 107 L 204 101 L 204 97 L 203 95 L 205 94 L 206 97 L 211 102 L 213 102 L 214 100 L 217 99 L 214 95 L 218 93 L 219 89 L 217 88 L 214 89 L 212 87 L 210 87 L 205 91 L 204 90 L 205 87 L 210 82 L 214 80 L 220 80 Z M 445 66 L 446 73 L 447 74 L 447 84 L 446 85 L 446 88 L 441 99 L 433 107 L 433 109 L 440 121 L 440 123 L 442 125 L 446 133 L 447 140 L 455 147 L 459 153 L 459 159 L 455 164 L 459 172 L 458 169 L 456 167 L 456 164 L 459 160 L 459 153 L 457 149 L 447 140 L 446 133 L 442 125 L 440 123 L 440 121 L 434 110 L 434 107 L 439 102 L 443 96 L 446 89 L 446 85 L 447 84 L 447 74 L 446 73 Z M 401 61 L 396 63 L 390 69 L 388 72 L 387 76 L 388 78 L 397 85 L 404 93 L 409 95 L 415 92 L 420 86 L 421 79 L 417 69 L 412 64 L 406 61 Z M 401 62 L 406 62 L 412 66 L 416 70 L 419 75 L 420 82 L 418 87 L 409 94 L 406 93 L 397 83 L 388 77 L 389 72 L 398 63 Z M 282 51 L 281 52 L 270 53 L 265 56 L 263 56 L 257 60 L 252 61 L 250 63 L 245 62 L 241 58 L 232 53 L 224 52 L 231 53 L 237 56 L 246 63 L 250 63 L 270 53 L 281 52 Z M 201 69 L 193 77 L 188 88 L 188 101 L 190 104 L 190 106 L 200 117 L 205 119 L 207 121 L 203 133 L 197 143 L 197 150 L 198 153 L 185 167 L 186 169 L 190 167 L 192 167 L 194 169 L 193 173 L 190 177 L 186 186 L 186 188 L 189 188 L 190 187 L 193 187 L 194 188 L 194 191 L 192 197 L 194 191 L 194 187 L 193 186 L 188 187 L 187 184 L 194 171 L 194 168 L 193 167 L 189 167 L 188 168 L 186 166 L 187 164 L 198 154 L 197 144 L 205 129 L 207 123 L 207 120 L 205 118 L 202 118 L 199 116 L 192 109 L 188 101 L 188 89 L 189 88 L 189 85 L 194 76 L 204 67 L 210 64 L 223 63 L 233 68 L 237 72 L 240 78 L 242 80 L 245 80 L 252 74 L 254 74 L 258 71 L 261 71 L 270 68 L 275 63 L 293 63 L 294 62 L 293 55 L 295 53 L 297 53 L 305 57 L 307 59 L 311 59 L 319 51 L 323 50 L 325 52 L 322 57 L 323 60 L 345 59 L 346 60 L 357 62 L 360 64 L 362 64 L 371 68 L 374 66 L 374 63 L 376 59 L 384 51 L 387 49 L 389 49 L 391 47 L 402 45 L 403 46 L 408 46 L 414 48 L 420 52 L 430 62 L 433 68 L 435 74 L 435 82 L 433 88 L 431 90 L 430 93 L 423 100 L 417 102 L 416 105 L 423 114 L 430 130 L 434 135 L 434 137 L 430 140 L 430 142 L 445 154 L 444 156 L 435 156 L 434 157 L 435 162 L 444 170 L 449 178 L 447 180 L 444 178 L 439 178 L 438 179 L 438 182 L 440 188 L 443 193 L 445 200 L 443 202 L 439 199 L 436 199 L 434 197 L 434 190 L 431 188 L 429 189 L 425 189 L 420 186 L 417 186 L 416 187 L 423 195 L 423 197 L 421 199 L 418 200 L 422 206 L 422 211 L 419 212 L 415 209 L 413 210 L 413 212 L 415 215 L 415 219 L 413 221 L 407 218 L 403 218 L 402 219 L 409 226 L 410 230 L 401 233 L 399 242 L 398 243 L 395 243 L 392 251 L 390 253 L 386 252 L 384 254 L 383 258 L 379 262 L 377 262 L 375 258 L 372 259 L 369 265 L 369 271 L 368 273 L 369 274 L 373 274 L 380 269 L 382 266 L 386 268 L 393 262 L 395 262 L 406 255 L 412 253 L 422 254 L 424 256 L 426 256 L 433 260 L 435 260 L 436 262 L 435 263 L 432 263 L 431 266 L 433 268 L 444 273 L 453 279 L 458 284 L 457 286 L 451 286 L 450 288 L 455 293 L 457 293 L 464 299 L 462 302 L 462 305 L 474 314 L 481 321 L 480 323 L 478 322 L 474 322 L 473 325 L 486 337 L 494 348 L 497 354 L 494 355 L 488 351 L 485 352 L 488 361 L 491 365 L 491 368 L 493 371 L 493 374 L 494 375 L 494 384 L 492 385 L 487 379 L 484 380 L 484 385 L 483 386 L 484 387 L 484 404 L 483 406 L 480 408 L 476 403 L 473 404 L 472 406 L 472 411 L 471 412 L 471 422 L 470 423 L 470 426 L 467 429 L 459 429 L 454 434 L 451 441 L 451 445 L 450 446 L 449 453 L 442 462 L 433 471 L 431 471 L 429 473 L 424 475 L 420 475 L 415 473 L 410 473 L 406 469 L 404 468 L 400 468 L 396 472 L 396 474 L 391 480 L 387 480 L 383 483 L 379 483 L 377 482 L 375 479 L 378 470 L 378 467 L 379 466 L 377 460 L 373 460 L 371 462 L 367 462 L 364 466 L 360 466 L 355 462 L 355 456 L 361 443 L 361 433 L 358 432 L 351 437 L 348 435 L 348 429 L 356 420 L 369 412 L 377 401 L 394 369 L 395 364 L 401 351 L 401 346 L 400 345 L 397 345 L 393 348 L 391 347 L 388 348 L 379 338 L 376 336 L 373 337 L 373 341 L 379 356 L 378 370 L 375 375 L 375 377 L 378 371 L 378 367 L 379 366 L 379 354 L 375 347 L 373 339 L 375 337 L 378 338 L 386 346 L 389 351 L 391 351 L 398 345 L 401 347 L 401 351 L 395 364 L 394 369 L 377 401 L 373 407 L 366 414 L 360 417 L 352 423 L 348 428 L 347 431 L 347 438 L 350 439 L 358 433 L 361 435 L 361 443 L 354 457 L 354 461 L 356 465 L 361 469 L 364 469 L 370 463 L 375 461 L 378 464 L 377 471 L 375 474 L 375 481 L 377 483 L 380 484 L 390 484 L 392 483 L 397 473 L 401 469 L 403 469 L 406 472 L 406 476 L 405 477 L 405 481 L 402 486 L 403 487 L 409 487 L 421 479 L 424 478 L 427 475 L 430 474 L 445 460 L 448 456 L 448 454 L 450 451 L 450 447 L 451 446 L 452 439 L 454 435 L 459 430 L 462 432 L 462 438 L 464 441 L 470 430 L 472 409 L 474 407 L 477 407 L 480 410 L 481 413 L 483 414 L 483 411 L 484 410 L 484 383 L 487 381 L 491 385 L 494 390 L 495 390 L 496 387 L 496 382 L 495 381 L 494 373 L 486 354 L 488 352 L 490 352 L 497 357 L 498 356 L 495 349 L 483 333 L 474 325 L 475 322 L 478 322 L 483 324 L 484 323 L 477 316 L 462 304 L 464 301 L 467 301 L 467 300 L 464 299 L 451 289 L 453 286 L 460 286 L 460 285 L 452 278 L 446 274 L 435 269 L 432 266 L 435 263 L 439 263 L 439 262 L 429 257 L 427 257 L 419 252 L 419 249 L 421 247 L 421 244 L 428 231 L 428 222 L 431 219 L 435 222 L 437 221 L 437 204 L 436 202 L 438 200 L 440 200 L 443 203 L 445 204 L 446 203 L 442 189 L 438 182 L 438 180 L 440 178 L 443 178 L 448 181 L 449 180 L 449 177 L 446 172 L 434 159 L 436 156 L 446 156 L 446 154 L 442 150 L 436 147 L 431 142 L 431 141 L 435 138 L 435 136 L 431 131 L 428 124 L 426 122 L 426 120 L 422 112 L 417 106 L 417 104 L 420 101 L 425 99 L 431 92 L 435 83 L 435 74 L 432 65 L 428 59 L 421 52 L 412 47 L 406 46 L 405 45 L 398 45 L 385 50 L 376 58 L 374 62 L 374 65 L 372 67 L 368 67 L 360 63 L 354 61 L 346 60 L 345 59 L 328 59 L 325 60 L 323 58 L 325 52 L 325 49 L 319 51 L 310 59 L 308 59 L 298 53 L 293 52 L 292 54 L 294 58 L 294 61 L 292 63 L 273 63 L 272 66 L 270 68 L 257 71 L 253 73 L 245 80 L 242 80 L 240 78 L 236 70 L 229 65 L 227 65 L 224 63 L 213 63 Z M 396 257 L 399 254 L 402 255 L 400 258 L 397 258 Z M 405 242 L 406 243 L 405 246 L 400 251 L 398 249 L 398 244 L 400 242 L 402 243 Z" fill="#D8D8D8" fill-rule="evenodd"/><path d="M 260 547 L 259 548 L 260 551 L 267 557 L 268 556 L 266 553 Z M 276 542 L 279 547 L 285 552 Z M 245 536 L 244 537 L 248 545 L 252 549 L 256 551 L 257 550 Z M 231 523 L 231 528 L 232 529 L 233 535 L 235 539 L 238 541 L 239 538 L 237 536 L 237 534 L 234 529 L 232 523 Z M 248 522 L 253 532 L 256 534 L 251 524 Z M 512 436 L 507 436 L 504 439 L 504 447 L 503 448 L 503 451 L 504 452 L 504 481 L 502 486 L 502 494 L 503 494 L 509 488 L 516 477 L 520 467 L 520 461 L 521 460 L 520 452 L 518 448 L 514 444 L 514 440 Z M 510 437 L 512 439 L 513 446 L 516 448 L 519 452 L 519 465 L 513 480 L 506 490 L 504 491 L 503 490 L 503 486 L 505 480 L 505 453 L 504 452 L 504 446 L 505 445 L 505 440 L 508 437 Z M 117 395 L 105 402 L 100 407 L 99 409 L 99 423 L 104 433 L 107 437 L 112 441 L 122 445 L 135 445 L 141 439 L 144 432 L 144 418 L 142 414 L 141 408 L 138 402 L 133 397 L 124 394 Z M 222 316 L 216 321 L 217 322 L 221 319 Z M 320 291 L 316 292 L 314 294 L 316 295 L 318 294 Z M 271 277 L 279 285 L 295 295 L 302 298 L 309 298 L 311 296 L 310 295 L 303 296 L 297 293 L 292 288 L 290 287 L 288 288 L 284 285 L 282 282 L 280 282 L 275 277 L 276 276 L 275 275 L 272 275 Z M 245 267 L 246 272 L 248 274 L 252 275 L 253 274 L 252 272 L 248 268 Z M 227 161 L 226 169 L 225 170 L 225 177 L 228 185 L 233 191 L 237 194 L 243 196 L 245 198 L 245 203 L 246 204 L 247 211 L 253 224 L 261 236 L 271 247 L 280 252 L 283 252 L 288 254 L 294 254 L 295 253 L 298 253 L 304 251 L 310 246 L 312 246 L 319 240 L 325 230 L 330 215 L 330 210 L 332 204 L 332 182 L 331 181 L 331 177 L 327 171 L 325 171 L 315 182 L 307 186 L 298 189 L 285 190 L 284 189 L 279 189 L 278 188 L 275 188 L 274 187 L 271 187 L 270 186 L 267 186 L 261 184 L 250 190 L 244 190 L 240 188 L 233 181 L 232 178 L 232 168 L 233 167 L 234 160 L 232 158 L 230 158 Z M 228 162 L 231 159 L 233 161 L 232 170 L 231 171 L 233 182 L 242 190 L 251 190 L 256 188 L 260 185 L 264 185 L 265 186 L 268 186 L 269 187 L 272 187 L 281 190 L 296 190 L 315 183 L 322 177 L 323 174 L 326 172 L 330 176 L 330 179 L 331 180 L 331 205 L 330 206 L 330 210 L 329 211 L 329 214 L 328 215 L 328 218 L 325 227 L 319 238 L 316 241 L 314 240 L 314 238 L 319 231 L 321 225 L 321 222 L 322 221 L 322 218 L 320 214 L 315 209 L 311 207 L 308 207 L 307 206 L 298 206 L 286 211 L 274 222 L 271 228 L 271 234 L 275 242 L 280 248 L 278 250 L 271 246 L 261 235 L 253 223 L 247 209 L 245 197 L 243 195 L 238 194 L 234 191 L 228 184 L 226 180 L 226 168 Z M 224 157 L 222 155 L 215 155 L 207 158 L 202 162 L 200 167 L 200 172 L 203 175 L 206 175 L 207 176 L 213 174 L 219 167 L 218 168 L 216 167 L 215 165 L 209 165 L 208 162 L 212 159 L 215 159 L 219 157 L 221 158 L 223 161 L 224 160 Z M 341 155 L 341 159 L 346 165 L 355 170 L 358 170 L 359 171 L 363 171 L 364 172 L 375 172 L 376 171 L 382 170 L 387 165 L 387 158 L 382 152 L 376 149 L 373 149 L 368 147 L 352 147 L 346 149 Z M 243 123 L 239 127 L 236 133 L 236 137 L 235 138 L 236 144 L 240 147 L 240 149 L 237 153 L 237 159 L 240 166 L 247 173 L 254 176 L 266 176 L 280 170 L 287 162 L 288 159 L 288 154 L 287 152 L 283 148 L 270 143 L 256 143 L 255 144 L 250 144 L 249 145 L 247 143 L 251 137 L 252 130 L 250 125 L 248 123 Z M 238 152 L 244 147 L 249 145 L 257 144 L 258 143 L 267 143 L 268 144 L 272 144 L 278 146 L 283 149 L 287 153 L 287 161 L 281 168 L 275 172 L 263 176 L 257 176 L 248 173 L 240 165 L 238 161 Z M 246 123 L 248 124 L 251 128 L 251 136 L 249 140 L 242 146 L 239 146 L 236 143 L 236 135 L 239 128 L 244 123 Z M 328 120 L 326 121 L 321 127 L 320 130 L 320 140 L 322 145 L 326 148 L 331 148 L 333 147 L 337 142 L 338 139 L 338 129 L 336 125 L 332 121 Z M 327 121 L 331 121 L 336 126 L 338 132 L 337 140 L 335 144 L 332 147 L 325 147 L 322 144 L 320 138 L 320 132 L 322 126 Z M 259 88 L 257 86 L 251 86 L 247 88 L 239 96 L 239 100 L 242 102 L 251 96 L 257 94 L 259 92 Z M 258 89 L 258 91 L 255 94 L 248 97 L 245 100 L 242 101 L 240 99 L 240 96 L 248 88 L 252 86 L 255 86 Z M 223 82 L 220 81 L 214 81 L 210 83 L 206 87 L 205 90 L 210 86 L 212 86 L 214 88 L 217 87 L 220 89 L 219 93 L 215 95 L 218 99 L 216 101 L 214 101 L 213 103 L 211 103 L 208 100 L 210 99 L 211 97 L 208 100 L 205 97 L 205 95 L 204 95 L 205 97 L 205 101 L 209 106 L 213 107 L 221 96 L 222 93 L 227 89 L 227 86 Z M 324 82 L 324 84 L 326 86 L 329 86 L 335 88 L 342 92 L 346 92 L 348 89 L 347 85 L 343 81 L 335 78 L 329 78 Z M 325 82 L 328 79 L 337 79 L 340 81 L 342 81 L 347 86 L 347 89 L 345 91 L 342 91 L 337 88 L 327 86 L 325 84 Z M 401 63 L 398 64 L 390 72 L 389 77 L 397 82 L 406 92 L 409 93 L 417 87 L 419 82 L 418 75 L 412 67 L 406 63 Z M 414 46 L 408 44 L 396 44 L 395 45 L 392 45 L 382 50 L 374 58 L 373 63 L 371 65 L 368 65 L 365 63 L 356 60 L 353 60 L 348 58 L 343 58 L 342 57 L 328 57 L 327 58 L 325 56 L 327 49 L 326 48 L 322 48 L 316 51 L 310 57 L 308 57 L 304 54 L 302 54 L 295 50 L 292 50 L 290 52 L 292 57 L 292 60 L 290 62 L 287 61 L 273 61 L 268 67 L 258 69 L 252 72 L 244 78 L 240 75 L 240 73 L 235 67 L 223 61 L 212 62 L 206 64 L 198 69 L 194 73 L 189 81 L 187 87 L 187 90 L 186 91 L 186 98 L 190 109 L 196 116 L 203 120 L 205 122 L 205 124 L 195 144 L 196 153 L 188 161 L 187 161 L 184 165 L 184 169 L 185 170 L 190 170 L 191 171 L 191 173 L 185 184 L 185 189 L 186 190 L 189 190 L 190 189 L 192 191 L 190 197 L 190 200 L 188 204 L 188 210 L 190 213 L 192 213 L 194 211 L 196 213 L 196 227 L 197 228 L 198 234 L 201 237 L 205 234 L 208 238 L 211 248 L 215 252 L 217 252 L 219 250 L 224 257 L 241 272 L 238 275 L 231 275 L 230 276 L 230 281 L 229 283 L 225 287 L 222 288 L 215 293 L 219 298 L 213 304 L 203 309 L 203 311 L 205 312 L 207 315 L 196 324 L 197 328 L 193 333 L 191 333 L 182 337 L 182 341 L 181 342 L 175 344 L 167 345 L 158 351 L 148 356 L 146 356 L 144 358 L 135 362 L 133 364 L 120 370 L 114 369 L 107 366 L 93 366 L 85 371 L 83 374 L 83 383 L 80 386 L 77 386 L 71 388 L 65 391 L 60 395 L 60 398 L 62 400 L 67 401 L 76 406 L 85 406 L 87 408 L 85 410 L 82 410 L 81 411 L 75 411 L 73 409 L 69 409 L 67 410 L 58 418 L 56 422 L 56 426 L 58 428 L 61 428 L 68 431 L 80 431 L 81 430 L 87 430 L 89 431 L 90 434 L 88 436 L 76 440 L 71 445 L 71 448 L 74 451 L 79 453 L 96 454 L 98 456 L 98 461 L 101 464 L 106 466 L 116 465 L 126 460 L 128 460 L 136 455 L 145 447 L 149 445 L 163 443 L 167 441 L 171 441 L 172 440 L 187 437 L 190 434 L 191 430 L 193 427 L 193 424 L 192 423 L 193 413 L 199 402 L 199 390 L 203 380 L 203 376 L 200 371 L 200 360 L 207 346 L 206 338 L 213 330 L 217 328 L 220 330 L 220 332 L 216 338 L 216 346 L 215 347 L 215 350 L 209 362 L 209 364 L 212 365 L 214 367 L 214 372 L 213 373 L 212 381 L 207 390 L 207 395 L 209 395 L 211 398 L 208 404 L 202 412 L 201 415 L 202 418 L 205 417 L 207 420 L 197 441 L 197 446 L 198 447 L 202 445 L 204 446 L 204 450 L 202 454 L 201 462 L 200 463 L 199 475 L 201 477 L 204 475 L 206 476 L 205 495 L 207 499 L 211 499 L 212 500 L 212 504 L 213 505 L 214 511 L 221 521 L 224 529 L 221 531 L 213 522 L 208 526 L 206 530 L 203 533 L 207 538 L 207 540 L 204 544 L 197 558 L 197 560 L 195 563 L 195 567 L 196 568 L 198 567 L 201 568 L 197 583 L 202 585 L 202 601 L 203 602 L 203 605 L 204 606 L 204 609 L 205 610 L 205 613 L 207 619 L 210 622 L 214 624 L 230 626 L 236 628 L 238 631 L 235 632 L 234 631 L 223 630 L 222 629 L 205 629 L 204 630 L 200 630 L 194 632 L 187 636 L 184 639 L 181 644 L 179 650 L 179 655 L 178 656 L 179 663 L 182 667 L 187 668 L 187 659 L 188 658 L 188 655 L 190 652 L 195 648 L 197 650 L 197 653 L 194 662 L 194 669 L 195 671 L 198 673 L 205 673 L 206 674 L 211 674 L 212 673 L 212 661 L 214 658 L 214 656 L 218 652 L 220 652 L 222 654 L 220 664 L 219 665 L 219 673 L 221 675 L 229 675 L 230 676 L 272 675 L 273 674 L 290 673 L 291 672 L 295 672 L 307 668 L 311 664 L 313 658 L 313 646 L 312 645 L 312 641 L 311 640 L 310 634 L 315 632 L 315 621 L 314 620 L 314 614 L 313 613 L 313 609 L 312 607 L 314 605 L 316 607 L 319 607 L 319 596 L 324 587 L 324 585 L 306 577 L 303 574 L 305 572 L 309 572 L 310 573 L 313 573 L 322 576 L 327 576 L 328 577 L 333 577 L 334 578 L 349 578 L 351 573 L 351 568 L 352 567 L 353 559 L 355 555 L 358 552 L 361 554 L 361 583 L 362 584 L 362 588 L 364 594 L 368 601 L 368 603 L 373 609 L 375 609 L 384 617 L 387 618 L 389 620 L 404 625 L 407 625 L 411 627 L 422 628 L 423 629 L 434 629 L 435 628 L 439 628 L 440 627 L 444 627 L 448 625 L 451 625 L 459 621 L 464 617 L 471 614 L 476 610 L 481 608 L 482 611 L 474 619 L 465 625 L 461 629 L 454 633 L 448 640 L 448 643 L 447 644 L 451 649 L 461 651 L 467 656 L 474 659 L 487 659 L 488 658 L 487 656 L 482 654 L 479 651 L 479 649 L 484 645 L 490 650 L 490 652 L 492 655 L 498 655 L 500 654 L 503 651 L 505 647 L 505 640 L 504 637 L 505 636 L 505 633 L 508 630 L 511 632 L 512 635 L 515 638 L 518 638 L 521 634 L 521 630 L 522 629 L 522 618 L 523 617 L 523 610 L 524 609 L 524 580 L 523 579 L 523 571 L 522 570 L 521 562 L 517 553 L 508 543 L 502 540 L 489 540 L 485 542 L 473 553 L 466 553 L 465 552 L 465 549 L 474 534 L 475 524 L 480 514 L 482 512 L 489 496 L 490 486 L 491 485 L 491 471 L 493 469 L 494 470 L 496 469 L 495 456 L 491 444 L 491 439 L 493 437 L 493 427 L 491 426 L 487 430 L 485 435 L 482 438 L 480 442 L 472 450 L 471 450 L 457 465 L 455 466 L 452 471 L 436 487 L 420 498 L 418 498 L 412 501 L 400 501 L 391 498 L 386 498 L 385 497 L 378 496 L 371 493 L 361 485 L 355 482 L 346 473 L 345 465 L 344 464 L 344 456 L 336 444 L 336 438 L 337 437 L 337 433 L 339 427 L 343 421 L 364 399 L 370 388 L 372 386 L 374 381 L 376 379 L 376 377 L 380 370 L 381 356 L 375 343 L 376 340 L 378 340 L 385 347 L 389 353 L 391 353 L 397 348 L 399 349 L 399 353 L 396 358 L 393 368 L 377 398 L 371 407 L 365 413 L 357 417 L 349 424 L 345 431 L 345 435 L 344 437 L 346 441 L 351 441 L 357 436 L 359 437 L 359 444 L 355 450 L 355 452 L 352 457 L 352 461 L 354 465 L 360 471 L 366 471 L 372 465 L 373 465 L 375 467 L 375 471 L 373 474 L 372 480 L 373 482 L 377 485 L 380 486 L 391 486 L 395 483 L 396 480 L 401 473 L 404 474 L 402 482 L 400 485 L 400 488 L 401 489 L 408 489 L 411 488 L 420 482 L 429 478 L 435 473 L 448 459 L 452 449 L 453 441 L 455 437 L 458 434 L 461 435 L 461 442 L 462 444 L 464 444 L 466 442 L 470 435 L 471 429 L 472 428 L 473 413 L 477 410 L 481 415 L 481 417 L 482 418 L 484 417 L 485 410 L 486 409 L 486 387 L 488 385 L 494 393 L 496 393 L 497 391 L 496 374 L 492 365 L 492 363 L 489 358 L 489 356 L 492 355 L 499 360 L 500 359 L 500 355 L 489 338 L 478 326 L 479 324 L 481 325 L 486 325 L 486 322 L 465 305 L 467 303 L 469 303 L 470 300 L 464 297 L 455 290 L 456 288 L 462 288 L 463 287 L 462 284 L 456 279 L 437 267 L 438 265 L 442 265 L 443 264 L 441 261 L 425 254 L 422 251 L 425 248 L 424 242 L 426 239 L 426 237 L 428 235 L 430 229 L 430 224 L 432 222 L 434 224 L 437 224 L 439 221 L 439 206 L 438 204 L 440 202 L 443 205 L 446 206 L 448 203 L 445 192 L 440 182 L 442 180 L 446 182 L 450 182 L 451 181 L 451 178 L 446 169 L 437 160 L 439 158 L 447 158 L 448 157 L 448 154 L 443 149 L 437 146 L 433 142 L 438 138 L 431 128 L 422 109 L 420 107 L 420 104 L 422 102 L 425 101 L 430 96 L 435 88 L 436 85 L 436 73 L 435 72 L 435 69 L 432 62 L 429 58 L 421 50 Z M 81 441 L 82 442 L 80 444 L 81 450 L 79 452 L 75 451 L 72 448 L 72 446 L 76 442 Z M 91 438 L 89 440 L 84 442 L 81 441 L 87 437 L 90 437 Z M 63 416 L 65 418 L 64 420 L 64 424 L 62 426 L 59 426 L 57 424 L 57 422 L 58 420 Z M 77 390 L 76 392 L 76 396 L 72 400 L 65 400 L 61 397 L 61 396 L 68 390 L 71 389 L 76 389 Z M 412 46 L 421 51 L 429 59 L 433 65 L 436 74 L 436 83 L 432 92 L 425 100 L 420 102 L 418 104 L 418 106 L 423 112 L 427 120 L 427 122 L 429 124 L 432 131 L 436 136 L 436 138 L 434 139 L 432 142 L 436 146 L 442 149 L 447 154 L 446 157 L 436 157 L 435 159 L 436 161 L 444 168 L 450 177 L 450 180 L 448 182 L 443 179 L 440 179 L 439 180 L 439 182 L 443 189 L 447 203 L 445 205 L 440 201 L 437 202 L 438 204 L 438 221 L 436 223 L 432 220 L 429 222 L 429 231 L 422 244 L 422 247 L 420 249 L 420 252 L 440 262 L 439 264 L 435 264 L 433 266 L 435 268 L 446 273 L 452 277 L 461 285 L 460 287 L 453 287 L 452 289 L 468 300 L 467 302 L 464 302 L 463 304 L 477 315 L 485 323 L 483 325 L 482 324 L 475 323 L 475 325 L 484 333 L 492 343 L 499 355 L 497 358 L 490 353 L 487 354 L 495 373 L 496 381 L 497 382 L 497 387 L 496 390 L 494 391 L 487 382 L 485 383 L 485 410 L 484 411 L 484 414 L 482 415 L 477 408 L 474 408 L 473 409 L 471 430 L 466 440 L 464 442 L 461 438 L 461 432 L 459 431 L 455 435 L 453 439 L 452 446 L 451 447 L 451 451 L 449 454 L 449 456 L 434 472 L 409 488 L 403 488 L 401 486 L 404 481 L 404 477 L 405 476 L 405 472 L 403 470 L 401 470 L 398 473 L 394 482 L 390 485 L 380 485 L 377 484 L 374 481 L 374 474 L 376 471 L 376 468 L 377 467 L 377 464 L 375 462 L 370 464 L 364 470 L 361 470 L 355 465 L 353 461 L 353 457 L 360 443 L 360 435 L 358 434 L 350 440 L 348 440 L 346 438 L 346 431 L 347 428 L 351 423 L 357 418 L 366 413 L 372 407 L 376 401 L 393 369 L 394 364 L 400 351 L 400 347 L 398 346 L 391 352 L 389 352 L 385 346 L 378 339 L 375 338 L 374 339 L 375 344 L 380 354 L 380 366 L 379 367 L 379 371 L 372 385 L 362 401 L 350 412 L 339 425 L 336 434 L 336 445 L 343 456 L 344 467 L 347 475 L 358 486 L 375 497 L 378 498 L 384 498 L 389 500 L 394 500 L 403 503 L 409 503 L 410 502 L 416 501 L 424 497 L 438 487 L 455 471 L 464 459 L 479 445 L 486 435 L 486 433 L 490 429 L 493 431 L 493 433 L 490 438 L 490 444 L 492 448 L 492 451 L 495 460 L 495 466 L 490 468 L 490 487 L 489 488 L 488 497 L 478 518 L 476 520 L 474 526 L 474 531 L 471 537 L 466 541 L 463 550 L 459 554 L 462 556 L 464 556 L 466 558 L 465 567 L 467 568 L 474 561 L 477 556 L 477 554 L 483 545 L 489 541 L 500 541 L 501 542 L 504 542 L 506 544 L 509 545 L 515 552 L 520 562 L 520 566 L 522 571 L 522 577 L 523 578 L 523 609 L 522 610 L 522 616 L 521 617 L 521 631 L 520 632 L 520 635 L 518 637 L 516 637 L 513 634 L 512 629 L 509 628 L 507 629 L 504 633 L 504 641 L 503 644 L 501 646 L 496 645 L 493 642 L 485 640 L 481 642 L 477 646 L 477 652 L 480 657 L 479 658 L 474 658 L 468 655 L 464 651 L 453 646 L 450 643 L 450 641 L 456 634 L 463 630 L 484 611 L 486 608 L 486 605 L 485 604 L 483 604 L 471 613 L 455 621 L 453 623 L 449 625 L 446 625 L 437 628 L 418 628 L 417 627 L 409 626 L 400 622 L 396 622 L 387 618 L 369 602 L 368 599 L 366 597 L 366 595 L 364 593 L 363 587 L 362 586 L 362 581 L 361 580 L 361 550 L 358 550 L 355 553 L 352 559 L 350 573 L 349 575 L 345 578 L 342 577 L 325 576 L 324 575 L 320 575 L 308 571 L 303 571 L 302 572 L 302 574 L 305 577 L 315 582 L 317 582 L 323 586 L 319 594 L 319 604 L 318 605 L 316 605 L 314 603 L 311 604 L 312 611 L 313 612 L 313 617 L 314 618 L 314 628 L 315 630 L 313 632 L 312 631 L 309 632 L 310 639 L 312 644 L 312 659 L 310 664 L 308 666 L 300 670 L 292 671 L 291 672 L 286 672 L 285 673 L 277 673 L 276 674 L 265 674 L 264 675 L 224 675 L 220 672 L 220 663 L 222 658 L 222 652 L 221 651 L 218 651 L 214 655 L 212 659 L 212 662 L 211 663 L 211 670 L 212 671 L 210 673 L 202 673 L 201 672 L 198 672 L 195 669 L 195 659 L 198 652 L 198 648 L 197 647 L 193 648 L 189 652 L 186 661 L 186 664 L 187 665 L 185 667 L 184 667 L 179 661 L 179 652 L 181 646 L 185 639 L 188 636 L 195 632 L 201 630 L 208 630 L 209 629 L 227 630 L 228 631 L 232 631 L 238 633 L 241 632 L 239 629 L 235 627 L 229 626 L 228 625 L 223 625 L 222 624 L 213 623 L 208 619 L 206 615 L 206 612 L 204 608 L 203 600 L 202 599 L 202 583 L 198 580 L 200 575 L 200 572 L 202 569 L 202 565 L 201 564 L 198 566 L 196 565 L 196 562 L 198 559 L 198 557 L 208 538 L 208 536 L 204 533 L 210 525 L 213 524 L 219 530 L 219 531 L 222 533 L 224 533 L 226 531 L 225 526 L 222 520 L 217 514 L 213 506 L 212 495 L 210 494 L 210 496 L 208 498 L 206 496 L 207 472 L 205 471 L 202 475 L 200 473 L 201 461 L 202 460 L 203 452 L 205 448 L 205 444 L 203 443 L 200 446 L 197 444 L 200 435 L 208 419 L 207 416 L 205 417 L 202 416 L 202 414 L 205 408 L 208 405 L 212 397 L 212 395 L 209 394 L 207 392 L 209 387 L 212 383 L 214 377 L 214 374 L 218 370 L 223 361 L 222 358 L 216 363 L 213 363 L 212 364 L 210 362 L 210 360 L 212 357 L 212 355 L 214 353 L 216 347 L 216 339 L 219 335 L 221 329 L 219 327 L 215 328 L 207 335 L 205 339 L 206 347 L 200 359 L 200 372 L 203 378 L 199 387 L 199 391 L 198 392 L 198 402 L 192 413 L 192 417 L 191 418 L 191 429 L 190 431 L 185 436 L 182 436 L 175 439 L 171 439 L 162 442 L 157 442 L 156 443 L 148 444 L 143 447 L 135 454 L 124 460 L 122 458 L 125 453 L 125 451 L 122 448 L 114 448 L 111 447 L 109 448 L 104 454 L 104 458 L 112 462 L 110 465 L 104 465 L 102 464 L 99 460 L 99 456 L 105 446 L 105 442 L 100 438 L 91 438 L 90 437 L 93 433 L 93 429 L 91 426 L 90 417 L 87 414 L 87 412 L 91 407 L 91 400 L 92 397 L 87 392 L 86 387 L 88 385 L 91 385 L 94 388 L 94 390 L 96 393 L 101 394 L 102 393 L 109 392 L 112 390 L 115 384 L 113 382 L 106 380 L 97 375 L 94 375 L 93 374 L 88 375 L 86 372 L 92 367 L 100 367 L 101 366 L 111 368 L 114 370 L 122 370 L 141 360 L 143 358 L 151 354 L 153 354 L 167 346 L 178 344 L 186 341 L 187 340 L 187 337 L 189 335 L 193 334 L 198 329 L 199 327 L 198 323 L 207 317 L 208 313 L 205 311 L 205 309 L 214 304 L 220 298 L 220 296 L 217 293 L 220 290 L 223 289 L 234 281 L 233 278 L 235 276 L 239 276 L 242 273 L 242 271 L 238 267 L 232 264 L 224 256 L 218 247 L 216 250 L 214 250 L 210 245 L 209 239 L 206 232 L 204 232 L 201 236 L 199 234 L 197 229 L 197 211 L 194 210 L 191 212 L 188 208 L 189 206 L 189 202 L 191 198 L 191 195 L 193 191 L 193 188 L 186 189 L 185 186 L 189 177 L 192 173 L 193 169 L 190 168 L 186 170 L 184 167 L 197 153 L 196 150 L 196 143 L 200 137 L 206 123 L 205 120 L 200 118 L 191 109 L 187 101 L 187 88 L 192 77 L 201 68 L 213 62 L 224 62 L 235 68 L 239 73 L 242 79 L 245 79 L 249 75 L 257 70 L 270 67 L 271 64 L 273 62 L 292 62 L 293 61 L 293 58 L 291 53 L 293 51 L 298 52 L 306 57 L 310 58 L 316 52 L 323 48 L 326 49 L 326 52 L 324 56 L 325 59 L 328 58 L 345 58 L 346 59 L 354 60 L 360 62 L 368 66 L 372 66 L 375 58 L 385 49 L 398 44 L 405 44 L 406 45 Z M 418 38 L 412 36 L 406 36 L 405 35 L 399 35 L 398 36 L 389 37 L 377 42 L 372 46 L 366 53 L 360 52 L 359 51 L 355 51 L 354 50 L 350 50 L 349 49 L 337 49 L 335 47 L 334 44 L 330 40 L 325 39 L 316 42 L 310 47 L 308 47 L 299 42 L 289 42 L 284 46 L 283 51 L 281 53 L 270 54 L 250 64 L 246 64 L 237 57 L 231 54 L 224 53 L 223 52 L 217 52 L 216 53 L 206 54 L 197 58 L 187 67 L 183 73 L 177 87 L 177 102 L 179 108 L 184 117 L 194 126 L 194 129 L 192 131 L 187 141 L 186 152 L 178 160 L 176 164 L 176 172 L 179 176 L 179 180 L 177 184 L 177 192 L 181 197 L 181 201 L 180 202 L 180 213 L 182 217 L 187 221 L 188 234 L 190 238 L 194 242 L 200 244 L 202 246 L 205 253 L 212 259 L 218 261 L 225 269 L 219 275 L 218 278 L 213 283 L 209 291 L 199 299 L 196 306 L 186 316 L 185 316 L 178 324 L 171 327 L 170 330 L 167 333 L 159 336 L 154 340 L 148 343 L 139 346 L 133 351 L 121 357 L 98 356 L 97 357 L 88 358 L 77 363 L 66 372 L 62 379 L 58 382 L 53 388 L 48 399 L 49 412 L 47 414 L 44 421 L 44 425 L 46 430 L 54 437 L 61 448 L 61 451 L 63 457 L 67 461 L 72 463 L 76 463 L 77 464 L 84 464 L 86 465 L 93 473 L 100 476 L 114 476 L 115 475 L 118 475 L 127 472 L 139 466 L 143 462 L 155 454 L 159 454 L 165 452 L 170 452 L 171 451 L 175 451 L 176 450 L 180 450 L 187 448 L 190 452 L 190 454 L 192 457 L 191 479 L 192 480 L 192 483 L 196 488 L 197 491 L 198 501 L 204 512 L 203 515 L 193 529 L 192 532 L 193 545 L 187 556 L 186 562 L 185 563 L 185 571 L 189 577 L 189 581 L 188 582 L 189 596 L 190 597 L 190 601 L 191 602 L 192 609 L 195 616 L 195 620 L 192 623 L 190 623 L 181 628 L 175 634 L 170 643 L 169 649 L 168 650 L 168 662 L 173 672 L 181 677 L 187 679 L 190 679 L 191 680 L 194 680 L 195 681 L 199 681 L 200 682 L 217 683 L 218 684 L 266 684 L 267 683 L 280 683 L 281 682 L 295 681 L 296 680 L 305 679 L 314 676 L 319 672 L 323 665 L 323 662 L 324 661 L 324 646 L 323 645 L 323 640 L 325 638 L 325 635 L 326 634 L 326 626 L 325 625 L 324 616 L 328 612 L 328 609 L 329 608 L 329 600 L 334 591 L 334 589 L 336 587 L 339 587 L 348 590 L 352 594 L 360 612 L 367 619 L 380 628 L 393 634 L 399 636 L 402 636 L 403 637 L 407 637 L 408 638 L 428 638 L 429 639 L 432 639 L 437 645 L 443 657 L 449 663 L 458 668 L 464 670 L 467 670 L 468 671 L 482 671 L 483 670 L 488 670 L 489 669 L 497 668 L 503 665 L 505 665 L 512 660 L 520 652 L 530 637 L 531 631 L 532 630 L 532 626 L 533 625 L 534 610 L 535 609 L 535 582 L 534 581 L 534 569 L 533 568 L 533 564 L 532 563 L 531 557 L 523 541 L 516 534 L 512 531 L 504 528 L 492 528 L 491 527 L 491 524 L 496 511 L 502 505 L 511 501 L 515 498 L 526 484 L 530 475 L 530 472 L 532 467 L 532 454 L 531 453 L 530 446 L 524 435 L 516 427 L 512 425 L 502 424 L 498 419 L 498 415 L 499 414 L 502 400 L 506 396 L 509 390 L 509 382 L 510 381 L 510 374 L 511 373 L 511 367 L 512 366 L 512 359 L 508 350 L 508 348 L 497 332 L 497 322 L 495 318 L 483 305 L 483 299 L 481 295 L 474 287 L 473 282 L 466 275 L 459 270 L 459 264 L 458 262 L 449 255 L 444 253 L 439 248 L 438 238 L 445 230 L 447 226 L 448 217 L 452 214 L 456 209 L 457 206 L 457 197 L 455 191 L 460 186 L 461 181 L 460 180 L 459 173 L 454 165 L 458 159 L 458 153 L 454 147 L 446 140 L 445 133 L 441 125 L 439 123 L 439 121 L 432 109 L 432 107 L 440 99 L 445 88 L 445 85 L 446 84 L 446 74 L 445 73 L 444 65 L 436 51 L 427 43 Z M 417 38 L 423 41 L 431 47 L 439 56 L 443 64 L 444 70 L 445 71 L 445 86 L 442 94 L 438 100 L 431 106 L 431 108 L 442 130 L 444 132 L 446 138 L 446 141 L 457 152 L 458 155 L 457 160 L 453 163 L 453 165 L 455 167 L 460 178 L 460 185 L 454 190 L 456 195 L 456 199 L 457 200 L 456 207 L 455 209 L 448 215 L 447 217 L 447 224 L 446 227 L 437 238 L 437 241 L 439 244 L 439 249 L 441 252 L 448 255 L 458 263 L 458 269 L 473 283 L 474 288 L 479 293 L 482 298 L 482 305 L 483 307 L 489 312 L 489 313 L 495 319 L 497 323 L 497 329 L 496 330 L 497 334 L 501 338 L 507 347 L 512 360 L 512 366 L 510 371 L 509 389 L 508 392 L 503 398 L 501 402 L 501 406 L 498 414 L 498 421 L 501 424 L 514 426 L 518 429 L 525 437 L 531 450 L 532 465 L 526 483 L 522 489 L 511 500 L 499 506 L 496 510 L 493 519 L 489 526 L 490 528 L 505 529 L 514 533 L 522 541 L 526 547 L 532 562 L 532 565 L 533 566 L 534 585 L 535 586 L 534 615 L 533 616 L 533 623 L 532 624 L 532 628 L 531 629 L 530 636 L 521 650 L 512 659 L 505 664 L 492 669 L 487 669 L 486 670 L 481 670 L 480 671 L 470 671 L 469 670 L 466 670 L 460 668 L 456 665 L 451 663 L 443 655 L 436 642 L 431 638 L 410 638 L 409 637 L 404 637 L 403 636 L 400 636 L 394 634 L 379 627 L 368 619 L 360 611 L 355 601 L 354 596 L 350 590 L 341 587 L 335 587 L 329 599 L 328 611 L 324 615 L 324 621 L 325 622 L 325 636 L 322 641 L 323 643 L 323 647 L 324 648 L 324 659 L 323 660 L 323 664 L 320 670 L 315 675 L 311 677 L 308 677 L 299 680 L 293 680 L 292 681 L 286 681 L 285 682 L 276 682 L 275 683 L 258 683 L 257 684 L 226 684 L 225 683 L 210 683 L 209 682 L 202 682 L 201 681 L 197 681 L 196 680 L 185 678 L 176 674 L 172 670 L 168 660 L 168 651 L 169 650 L 170 644 L 175 635 L 182 628 L 196 621 L 196 618 L 193 611 L 193 608 L 191 604 L 191 600 L 189 595 L 189 576 L 185 570 L 185 565 L 186 564 L 186 560 L 189 554 L 189 552 L 192 548 L 194 543 L 192 537 L 193 530 L 195 526 L 203 516 L 204 510 L 200 505 L 200 503 L 198 500 L 197 489 L 192 482 L 192 477 L 191 476 L 192 456 L 189 450 L 189 446 L 187 445 L 182 449 L 179 449 L 174 451 L 169 451 L 168 452 L 154 454 L 150 456 L 136 467 L 116 475 L 102 476 L 101 475 L 95 474 L 90 469 L 88 465 L 82 464 L 81 463 L 73 463 L 68 461 L 64 457 L 62 453 L 62 448 L 61 446 L 58 443 L 54 436 L 47 430 L 45 426 L 45 420 L 47 415 L 50 411 L 50 408 L 48 403 L 49 397 L 55 386 L 63 378 L 66 373 L 78 363 L 86 359 L 92 358 L 93 357 L 112 357 L 113 358 L 123 357 L 129 354 L 138 347 L 144 344 L 154 341 L 159 337 L 171 332 L 171 329 L 174 326 L 180 324 L 196 307 L 199 300 L 204 295 L 207 294 L 210 291 L 210 289 L 213 284 L 218 279 L 219 276 L 225 271 L 225 268 L 217 260 L 211 258 L 205 252 L 202 245 L 200 243 L 195 242 L 190 237 L 188 232 L 187 220 L 182 216 L 180 211 L 180 203 L 182 197 L 177 191 L 177 186 L 178 185 L 178 182 L 180 179 L 180 176 L 176 171 L 176 165 L 178 161 L 187 152 L 187 143 L 188 140 L 195 129 L 195 126 L 184 116 L 178 105 L 178 101 L 177 100 L 177 90 L 178 89 L 178 85 L 182 76 L 189 66 L 194 61 L 208 54 L 212 54 L 213 53 L 226 53 L 236 57 L 246 65 L 250 65 L 252 63 L 261 60 L 272 54 L 283 54 L 284 53 L 284 48 L 285 46 L 291 42 L 297 42 L 304 45 L 308 48 L 310 48 L 314 44 L 321 40 L 329 40 L 334 45 L 334 47 L 336 49 L 352 50 L 353 51 L 357 51 L 358 52 L 361 52 L 367 54 L 377 43 L 384 39 L 390 37 L 394 37 L 395 36 L 409 36 L 410 37 Z" fill="#B1B1B1" fill-rule="evenodd"/><path d="M 229 162 L 228 164 L 228 167 L 227 168 L 227 180 L 229 184 L 234 190 L 235 190 L 238 193 L 243 194 L 246 197 L 248 209 L 254 223 L 256 225 L 262 235 L 271 245 L 278 249 L 279 248 L 274 242 L 270 234 L 270 228 L 273 222 L 286 210 L 298 205 L 307 205 L 308 206 L 311 206 L 315 208 L 321 214 L 323 218 L 323 221 L 322 222 L 322 225 L 321 226 L 320 231 L 315 238 L 315 240 L 316 240 L 318 238 L 324 227 L 324 225 L 327 218 L 328 211 L 329 210 L 329 206 L 330 205 L 330 180 L 329 179 L 329 176 L 326 173 L 325 173 L 323 177 L 315 184 L 311 185 L 306 188 L 304 188 L 300 190 L 297 190 L 296 191 L 281 191 L 280 190 L 276 190 L 275 189 L 269 188 L 268 187 L 265 187 L 264 186 L 260 186 L 256 189 L 252 190 L 251 191 L 242 191 L 240 190 L 232 182 L 231 176 L 230 175 L 230 171 L 231 170 L 231 165 L 232 164 L 232 161 L 231 160 Z M 239 152 L 239 161 L 241 165 L 248 172 L 252 173 L 253 174 L 256 174 L 257 175 L 263 175 L 264 174 L 267 174 L 273 171 L 275 171 L 277 169 L 281 167 L 286 161 L 286 153 L 283 150 L 278 147 L 276 147 L 272 145 L 268 145 L 267 144 L 258 144 L 257 145 L 249 146 L 248 147 L 244 148 Z M 246 124 L 244 124 L 240 128 L 238 132 L 238 134 L 237 135 L 237 143 L 239 145 L 242 145 L 244 143 L 245 143 L 248 140 L 250 136 L 250 128 L 249 126 Z M 327 122 L 323 126 L 323 128 L 321 132 L 321 138 L 322 139 L 322 142 L 325 146 L 332 146 L 334 144 L 336 140 L 336 138 L 337 137 L 337 132 L 336 131 L 336 128 L 335 126 L 331 122 Z M 257 89 L 255 87 L 252 87 L 248 89 L 241 96 L 241 99 L 243 100 L 248 96 L 255 93 L 257 91 Z M 326 82 L 326 84 L 327 85 L 334 86 L 342 90 L 345 90 L 346 89 L 346 86 L 342 82 L 340 82 L 337 80 L 328 80 Z M 417 39 L 414 39 L 413 38 L 410 38 L 409 37 L 395 37 L 394 38 L 390 38 L 389 39 L 384 40 L 377 44 L 367 55 L 365 55 L 361 53 L 358 53 L 357 52 L 353 52 L 352 51 L 346 51 L 345 50 L 336 50 L 333 47 L 333 45 L 329 41 L 321 41 L 314 45 L 310 49 L 308 49 L 304 46 L 297 43 L 291 43 L 286 46 L 285 48 L 285 53 L 283 55 L 272 55 L 261 61 L 254 63 L 250 66 L 246 66 L 236 58 L 230 55 L 227 55 L 226 54 L 213 54 L 212 55 L 208 55 L 194 62 L 190 66 L 190 67 L 183 76 L 181 80 L 181 82 L 179 85 L 179 89 L 178 90 L 178 100 L 179 101 L 179 105 L 185 116 L 196 126 L 196 129 L 191 136 L 188 143 L 188 152 L 179 161 L 177 165 L 177 171 L 181 176 L 181 179 L 179 182 L 179 185 L 178 186 L 178 191 L 183 197 L 183 199 L 181 203 L 181 211 L 182 212 L 183 216 L 188 220 L 189 232 L 190 233 L 191 237 L 195 241 L 197 242 L 200 242 L 203 245 L 206 252 L 211 257 L 217 259 L 226 268 L 226 271 L 220 276 L 219 279 L 212 287 L 211 291 L 207 295 L 204 296 L 200 300 L 197 307 L 180 325 L 174 327 L 172 329 L 172 332 L 171 333 L 159 338 L 154 342 L 152 342 L 149 344 L 144 345 L 138 348 L 132 353 L 123 358 L 120 358 L 119 359 L 113 359 L 112 358 L 93 358 L 92 359 L 86 360 L 78 364 L 72 369 L 71 369 L 67 373 L 64 378 L 56 386 L 50 397 L 49 403 L 50 404 L 51 411 L 48 415 L 47 419 L 46 420 L 46 426 L 48 430 L 55 436 L 59 443 L 62 446 L 63 448 L 63 453 L 65 457 L 68 460 L 72 461 L 73 462 L 81 462 L 82 463 L 88 464 L 90 466 L 91 469 L 95 473 L 101 474 L 102 475 L 111 475 L 112 474 L 116 474 L 117 473 L 125 471 L 128 469 L 130 469 L 136 466 L 138 464 L 142 462 L 150 455 L 154 453 L 158 453 L 159 452 L 163 452 L 164 451 L 168 451 L 169 450 L 174 450 L 175 449 L 182 448 L 187 444 L 188 444 L 190 446 L 190 450 L 193 456 L 193 467 L 192 468 L 192 476 L 193 477 L 193 482 L 198 489 L 199 500 L 201 503 L 201 505 L 205 510 L 204 516 L 196 526 L 194 530 L 194 532 L 193 533 L 193 537 L 194 538 L 195 543 L 194 544 L 193 548 L 190 552 L 190 554 L 187 560 L 187 564 L 186 565 L 186 570 L 188 574 L 190 576 L 190 595 L 191 596 L 191 599 L 192 600 L 192 604 L 194 608 L 194 611 L 197 618 L 197 621 L 195 623 L 191 624 L 185 627 L 176 635 L 171 644 L 170 650 L 169 651 L 169 660 L 170 661 L 170 664 L 173 670 L 176 673 L 180 675 L 182 675 L 185 677 L 188 677 L 189 678 L 192 678 L 193 679 L 196 679 L 197 680 L 201 680 L 202 681 L 209 681 L 210 682 L 225 682 L 226 683 L 257 683 L 258 682 L 275 682 L 276 681 L 285 681 L 286 680 L 299 679 L 300 678 L 304 678 L 308 676 L 311 676 L 315 674 L 319 670 L 322 664 L 322 660 L 323 659 L 323 648 L 322 647 L 322 643 L 321 642 L 324 636 L 324 622 L 323 621 L 323 615 L 327 611 L 327 607 L 328 606 L 328 599 L 332 592 L 333 588 L 335 586 L 341 586 L 342 587 L 345 587 L 346 588 L 350 589 L 354 594 L 356 601 L 361 611 L 368 618 L 369 618 L 379 626 L 389 631 L 391 631 L 394 633 L 396 633 L 400 635 L 403 635 L 404 636 L 409 636 L 410 637 L 431 637 L 437 642 L 444 655 L 451 662 L 456 664 L 460 667 L 462 667 L 466 669 L 469 669 L 470 670 L 480 670 L 481 669 L 492 668 L 493 667 L 495 667 L 496 666 L 498 666 L 505 663 L 511 658 L 512 658 L 520 650 L 529 636 L 529 634 L 530 633 L 530 629 L 531 628 L 531 624 L 532 623 L 532 616 L 533 615 L 533 597 L 534 596 L 533 574 L 532 573 L 532 566 L 531 565 L 531 562 L 530 561 L 529 556 L 527 553 L 527 551 L 525 547 L 523 545 L 521 541 L 514 534 L 505 530 L 500 530 L 499 529 L 490 529 L 488 527 L 488 526 L 492 519 L 494 512 L 498 507 L 498 506 L 500 504 L 511 499 L 521 489 L 521 488 L 525 483 L 527 479 L 527 477 L 530 470 L 530 466 L 531 465 L 530 450 L 527 444 L 527 442 L 525 440 L 524 437 L 518 430 L 517 430 L 514 427 L 501 425 L 497 421 L 497 414 L 498 413 L 498 410 L 500 406 L 500 402 L 502 398 L 507 392 L 507 390 L 508 389 L 509 371 L 510 370 L 510 367 L 511 366 L 511 360 L 510 359 L 510 356 L 508 353 L 508 351 L 506 347 L 504 345 L 500 338 L 496 334 L 496 332 L 495 331 L 496 329 L 496 323 L 494 319 L 488 313 L 488 312 L 482 307 L 481 305 L 481 298 L 478 293 L 473 288 L 472 283 L 457 269 L 457 263 L 448 256 L 441 253 L 438 249 L 438 244 L 436 241 L 436 238 L 445 227 L 445 225 L 446 224 L 446 217 L 447 215 L 449 213 L 450 213 L 455 207 L 455 203 L 456 202 L 456 200 L 455 199 L 455 195 L 454 194 L 453 190 L 459 185 L 459 178 L 454 167 L 452 165 L 452 163 L 456 160 L 457 158 L 457 155 L 456 154 L 456 152 L 445 141 L 445 138 L 444 137 L 443 132 L 441 130 L 430 108 L 430 106 L 437 100 L 437 99 L 441 94 L 443 87 L 444 86 L 444 71 L 443 70 L 442 64 L 438 56 L 435 53 L 435 52 L 426 44 Z M 512 435 L 514 437 L 514 439 L 515 440 L 515 444 L 519 448 L 521 452 L 521 455 L 522 456 L 521 467 L 520 468 L 520 470 L 517 477 L 515 479 L 514 482 L 512 484 L 510 488 L 503 495 L 502 495 L 501 494 L 501 486 L 502 485 L 502 482 L 503 481 L 503 452 L 502 451 L 502 448 L 503 447 L 503 439 L 507 435 Z M 414 45 L 421 49 L 430 58 L 430 59 L 433 62 L 436 69 L 436 72 L 437 73 L 437 85 L 436 86 L 436 88 L 431 96 L 425 102 L 421 104 L 421 107 L 423 109 L 432 128 L 439 138 L 434 142 L 437 145 L 443 148 L 449 154 L 449 157 L 447 159 L 439 159 L 438 160 L 447 169 L 452 178 L 452 181 L 450 183 L 446 183 L 443 181 L 441 182 L 446 192 L 449 203 L 446 207 L 443 206 L 440 203 L 439 204 L 440 206 L 440 221 L 437 225 L 434 225 L 432 223 L 431 224 L 431 229 L 430 230 L 429 235 L 427 237 L 427 239 L 425 242 L 426 248 L 423 251 L 425 253 L 441 260 L 444 263 L 444 264 L 442 266 L 438 266 L 438 267 L 456 278 L 463 284 L 464 287 L 462 289 L 456 289 L 456 290 L 457 290 L 461 294 L 469 298 L 471 300 L 471 302 L 469 304 L 467 304 L 466 305 L 476 313 L 477 313 L 487 322 L 487 325 L 486 326 L 481 326 L 480 325 L 479 325 L 480 328 L 482 330 L 483 330 L 490 338 L 501 355 L 501 359 L 499 361 L 498 361 L 492 356 L 490 356 L 490 358 L 493 363 L 493 365 L 495 368 L 495 370 L 497 374 L 497 379 L 498 380 L 498 391 L 496 394 L 494 394 L 491 391 L 490 388 L 488 386 L 487 387 L 487 409 L 486 410 L 486 414 L 485 415 L 485 417 L 483 419 L 482 419 L 480 417 L 480 415 L 477 411 L 476 411 L 474 413 L 474 418 L 473 419 L 473 428 L 472 429 L 471 435 L 467 442 L 464 445 L 462 445 L 460 442 L 460 435 L 458 435 L 456 437 L 454 441 L 453 449 L 452 450 L 452 452 L 449 459 L 443 465 L 443 466 L 429 479 L 420 483 L 418 485 L 411 489 L 409 489 L 408 490 L 401 490 L 399 488 L 399 485 L 401 482 L 402 476 L 403 475 L 403 474 L 401 474 L 401 475 L 397 480 L 396 483 L 393 486 L 391 487 L 380 487 L 379 486 L 377 486 L 375 485 L 371 480 L 372 474 L 374 471 L 374 467 L 373 466 L 372 466 L 366 472 L 360 472 L 353 465 L 351 461 L 351 457 L 354 452 L 354 450 L 356 448 L 358 444 L 358 437 L 357 437 L 351 442 L 346 442 L 344 440 L 344 438 L 343 437 L 344 435 L 344 431 L 348 424 L 357 416 L 365 412 L 370 407 L 370 406 L 376 398 L 392 368 L 393 363 L 398 353 L 398 349 L 397 349 L 391 354 L 389 354 L 386 351 L 384 347 L 378 341 L 376 341 L 376 343 L 378 346 L 378 348 L 382 356 L 382 365 L 381 366 L 381 370 L 377 377 L 377 379 L 375 381 L 373 386 L 371 388 L 369 393 L 367 395 L 365 399 L 362 402 L 362 403 L 344 421 L 344 422 L 339 429 L 339 432 L 338 433 L 338 437 L 337 438 L 337 444 L 339 448 L 343 452 L 345 456 L 345 464 L 346 465 L 346 470 L 347 471 L 347 473 L 355 481 L 361 484 L 364 487 L 375 494 L 381 495 L 382 496 L 385 496 L 386 497 L 391 497 L 392 498 L 395 498 L 396 499 L 399 499 L 400 500 L 412 500 L 418 497 L 420 497 L 422 495 L 425 494 L 428 491 L 432 489 L 435 486 L 436 486 L 451 471 L 454 466 L 456 464 L 457 464 L 463 458 L 463 457 L 479 442 L 481 438 L 484 435 L 486 430 L 491 425 L 492 425 L 494 427 L 494 437 L 492 439 L 492 444 L 493 445 L 493 448 L 494 449 L 495 455 L 496 456 L 497 469 L 495 471 L 493 470 L 492 471 L 492 485 L 491 486 L 491 492 L 490 493 L 490 496 L 489 497 L 488 502 L 476 524 L 476 530 L 475 531 L 475 534 L 472 538 L 471 541 L 469 543 L 466 549 L 466 552 L 473 552 L 475 550 L 476 550 L 485 541 L 489 539 L 502 539 L 508 542 L 518 553 L 522 562 L 523 570 L 524 571 L 524 579 L 525 580 L 525 609 L 524 610 L 524 617 L 523 618 L 523 629 L 522 630 L 522 634 L 518 639 L 515 639 L 511 635 L 510 632 L 508 631 L 506 633 L 506 636 L 505 637 L 505 639 L 506 640 L 506 647 L 504 651 L 500 655 L 498 656 L 492 656 L 490 654 L 489 650 L 485 646 L 484 646 L 480 649 L 480 651 L 482 653 L 487 655 L 489 657 L 489 658 L 487 660 L 474 660 L 467 657 L 461 652 L 459 652 L 458 651 L 453 651 L 451 650 L 446 645 L 446 644 L 447 643 L 447 640 L 450 637 L 450 636 L 454 632 L 455 632 L 458 629 L 461 628 L 465 624 L 466 624 L 469 621 L 474 618 L 481 611 L 481 609 L 476 611 L 471 615 L 464 618 L 459 622 L 451 626 L 448 626 L 447 627 L 445 627 L 444 628 L 440 628 L 439 629 L 435 629 L 434 630 L 423 630 L 422 629 L 416 629 L 415 628 L 411 628 L 407 626 L 404 626 L 400 624 L 397 624 L 396 623 L 391 622 L 387 619 L 384 618 L 375 610 L 373 610 L 367 603 L 367 601 L 363 594 L 363 592 L 361 588 L 361 584 L 360 583 L 360 554 L 358 553 L 356 555 L 354 559 L 354 561 L 353 562 L 353 567 L 352 568 L 352 573 L 351 574 L 351 577 L 349 579 L 334 579 L 333 578 L 322 577 L 321 576 L 318 576 L 317 575 L 314 575 L 313 574 L 310 574 L 309 573 L 305 573 L 304 574 L 306 576 L 312 579 L 314 579 L 319 582 L 321 582 L 325 585 L 325 587 L 320 596 L 320 607 L 319 608 L 316 608 L 314 606 L 313 607 L 314 609 L 314 613 L 315 614 L 315 620 L 316 621 L 316 632 L 314 634 L 311 634 L 312 640 L 313 641 L 313 645 L 314 646 L 314 658 L 313 659 L 313 662 L 312 664 L 307 669 L 300 671 L 299 672 L 296 672 L 295 673 L 291 673 L 290 674 L 283 674 L 282 675 L 273 675 L 272 676 L 258 676 L 257 677 L 230 677 L 229 676 L 221 676 L 218 673 L 218 665 L 219 664 L 219 661 L 220 660 L 221 654 L 220 653 L 218 653 L 215 656 L 215 658 L 213 661 L 213 673 L 211 675 L 198 674 L 196 673 L 193 669 L 193 662 L 194 661 L 194 657 L 196 653 L 196 650 L 195 649 L 193 650 L 189 655 L 189 658 L 188 659 L 188 668 L 187 669 L 184 669 L 182 668 L 178 663 L 178 659 L 177 658 L 177 656 L 178 655 L 178 650 L 179 649 L 180 644 L 183 639 L 190 633 L 194 631 L 196 631 L 200 629 L 204 629 L 205 628 L 222 628 L 223 629 L 229 629 L 230 630 L 234 630 L 235 631 L 237 631 L 236 629 L 234 629 L 230 627 L 214 625 L 210 623 L 206 619 L 206 617 L 204 613 L 204 610 L 203 609 L 203 606 L 202 605 L 202 602 L 201 601 L 201 585 L 198 585 L 196 583 L 200 568 L 196 569 L 194 567 L 194 563 L 196 560 L 196 558 L 203 544 L 206 540 L 206 538 L 202 534 L 202 533 L 205 530 L 207 526 L 212 521 L 213 521 L 221 530 L 223 529 L 220 521 L 213 511 L 212 505 L 211 504 L 211 500 L 207 500 L 205 498 L 205 496 L 204 495 L 204 488 L 205 487 L 205 476 L 201 478 L 198 475 L 198 471 L 199 470 L 199 463 L 200 462 L 201 454 L 203 450 L 203 446 L 198 448 L 196 446 L 196 441 L 201 431 L 201 429 L 204 425 L 205 421 L 206 420 L 205 418 L 204 419 L 202 419 L 200 417 L 200 415 L 201 414 L 201 412 L 207 404 L 210 398 L 209 396 L 207 396 L 206 395 L 206 390 L 211 381 L 212 373 L 213 372 L 213 367 L 212 366 L 210 366 L 208 364 L 208 362 L 214 350 L 214 347 L 215 346 L 215 338 L 217 336 L 219 332 L 219 330 L 217 329 L 213 331 L 207 338 L 207 343 L 208 344 L 208 346 L 201 360 L 201 371 L 204 376 L 204 380 L 203 381 L 203 383 L 201 386 L 201 389 L 200 390 L 200 402 L 194 413 L 194 418 L 193 419 L 194 427 L 192 430 L 191 434 L 187 438 L 185 438 L 184 439 L 180 439 L 179 440 L 176 440 L 175 441 L 172 441 L 171 442 L 167 442 L 163 444 L 152 445 L 145 448 L 136 456 L 130 459 L 128 461 L 126 461 L 121 464 L 119 464 L 116 466 L 113 466 L 112 467 L 106 467 L 105 466 L 103 466 L 97 461 L 97 456 L 96 455 L 79 454 L 78 453 L 74 452 L 70 448 L 70 445 L 76 439 L 88 435 L 89 434 L 89 432 L 87 431 L 81 431 L 80 432 L 68 432 L 61 429 L 58 429 L 55 426 L 55 422 L 57 418 L 67 409 L 69 408 L 73 408 L 75 410 L 81 410 L 82 409 L 85 409 L 86 408 L 85 407 L 76 407 L 67 402 L 62 401 L 59 398 L 59 395 L 65 390 L 71 387 L 73 387 L 77 385 L 80 385 L 82 383 L 82 374 L 85 370 L 93 365 L 107 365 L 114 368 L 120 369 L 133 363 L 135 361 L 144 357 L 146 355 L 148 355 L 158 350 L 160 348 L 167 344 L 175 343 L 176 342 L 181 341 L 181 337 L 186 334 L 193 332 L 196 328 L 195 324 L 200 319 L 203 318 L 206 315 L 206 314 L 202 311 L 202 309 L 204 307 L 213 303 L 218 298 L 218 297 L 216 296 L 214 294 L 214 293 L 217 290 L 225 286 L 228 283 L 229 281 L 229 276 L 231 274 L 238 274 L 240 272 L 234 266 L 231 265 L 223 257 L 223 256 L 219 251 L 217 253 L 215 253 L 210 248 L 208 241 L 207 240 L 207 238 L 205 235 L 202 238 L 201 238 L 197 234 L 196 228 L 195 227 L 195 213 L 194 212 L 192 214 L 190 214 L 187 210 L 187 204 L 189 200 L 189 197 L 190 196 L 190 193 L 191 191 L 190 190 L 189 191 L 186 191 L 184 189 L 184 184 L 190 173 L 190 171 L 185 171 L 183 169 L 183 165 L 185 163 L 185 162 L 195 153 L 194 144 L 197 137 L 199 135 L 201 131 L 201 129 L 204 124 L 204 122 L 196 117 L 189 109 L 186 102 L 186 99 L 185 98 L 185 91 L 186 90 L 186 87 L 187 86 L 187 84 L 190 77 L 198 68 L 204 65 L 206 63 L 208 63 L 212 61 L 223 60 L 235 66 L 239 70 L 239 71 L 241 73 L 241 75 L 243 77 L 244 77 L 252 71 L 258 68 L 264 67 L 265 66 L 268 66 L 273 60 L 287 60 L 288 61 L 290 61 L 291 60 L 291 57 L 290 56 L 289 52 L 292 49 L 295 49 L 302 53 L 304 53 L 308 56 L 310 56 L 316 50 L 322 47 L 326 47 L 328 49 L 328 51 L 326 55 L 327 57 L 328 56 L 342 56 L 343 57 L 348 57 L 349 58 L 356 59 L 357 60 L 365 62 L 368 64 L 371 64 L 372 63 L 373 58 L 382 49 L 392 44 L 395 44 L 396 43 L 408 43 L 409 44 Z" fill="#010101" fill-rule="evenodd"/></svg>