<svg xmlns="http://www.w3.org/2000/svg" viewBox="0 0 653 704" shape-rendering="geometricPrecision"><title>intro frame 045</title><path d="M 343 521 L 341 520 L 338 522 L 336 522 L 329 526 L 328 528 L 329 529 L 332 529 L 339 525 Z M 369 493 L 366 495 L 358 507 L 356 514 L 360 519 L 361 519 L 369 511 L 371 508 L 371 506 L 373 504 L 374 497 Z M 406 500 L 404 498 L 396 498 L 394 497 L 388 489 L 385 492 L 385 497 L 384 498 L 384 501 L 385 502 L 384 504 L 384 510 L 380 522 L 377 524 L 374 521 L 372 521 L 370 523 L 362 521 L 359 523 L 359 525 L 357 528 L 359 530 L 364 529 L 366 527 L 373 527 L 376 526 L 378 528 L 377 530 L 377 534 L 378 535 L 381 532 L 383 527 L 389 519 L 390 516 L 394 512 L 398 511 L 405 503 Z M 416 483 L 413 484 L 413 490 L 416 495 L 416 507 L 415 508 L 415 512 L 412 518 L 412 520 L 407 527 L 407 529 L 412 525 L 417 516 L 420 500 L 423 498 L 425 501 L 426 501 L 425 499 L 425 495 L 423 496 L 421 494 L 420 489 Z M 371 482 L 373 484 L 376 484 L 381 480 L 386 480 L 388 478 L 385 477 L 382 474 L 376 474 L 372 477 Z M 453 206 L 452 209 L 453 212 L 455 213 L 456 212 L 456 208 Z M 466 173 L 465 176 L 465 184 L 466 185 L 466 188 L 468 190 L 468 192 L 469 192 L 469 188 L 468 187 L 469 180 L 467 178 Z M 439 23 L 433 22 L 432 21 L 425 21 L 413 25 L 410 27 L 403 35 L 402 42 L 400 44 L 396 44 L 387 40 L 379 39 L 378 38 L 372 38 L 371 37 L 357 37 L 356 38 L 352 38 L 350 36 L 351 28 L 346 29 L 338 37 L 335 37 L 323 30 L 320 30 L 319 31 L 320 33 L 320 38 L 317 41 L 302 41 L 299 43 L 299 45 L 297 47 L 285 51 L 277 56 L 273 60 L 269 60 L 264 53 L 259 49 L 253 46 L 240 46 L 237 48 L 233 49 L 227 53 L 220 61 L 217 69 L 217 83 L 220 89 L 226 95 L 229 97 L 234 98 L 238 101 L 238 104 L 236 110 L 229 124 L 229 130 L 230 131 L 229 136 L 220 145 L 219 148 L 225 148 L 227 150 L 227 154 L 225 156 L 221 165 L 221 168 L 222 169 L 225 167 L 228 170 L 226 180 L 225 181 L 225 190 L 226 191 L 230 188 L 233 191 L 233 206 L 235 210 L 237 211 L 240 208 L 242 208 L 244 210 L 245 214 L 252 221 L 253 221 L 263 232 L 267 232 L 280 240 L 286 248 L 286 252 L 285 253 L 282 253 L 271 246 L 269 246 L 264 252 L 261 253 L 256 248 L 254 242 L 248 234 L 248 236 L 245 239 L 243 239 L 240 236 L 237 230 L 233 226 L 229 228 L 224 223 L 221 214 L 217 209 L 215 210 L 215 214 L 213 216 L 211 216 L 204 209 L 202 204 L 200 202 L 200 200 L 197 194 L 195 192 L 190 195 L 182 187 L 170 172 L 168 168 L 159 158 L 158 153 L 162 146 L 162 139 L 163 138 L 163 123 L 161 119 L 156 114 L 150 115 L 147 119 L 147 121 L 151 117 L 155 117 L 159 121 L 161 125 L 161 134 L 158 141 L 155 144 L 151 146 L 147 146 L 141 140 L 141 131 L 142 130 L 142 127 L 137 123 L 135 113 L 131 104 L 127 99 L 123 97 L 121 97 L 119 100 L 124 100 L 130 106 L 134 112 L 134 115 L 135 116 L 135 125 L 131 131 L 124 131 L 119 128 L 113 129 L 110 126 L 107 116 L 103 109 L 97 103 L 93 101 L 90 101 L 86 104 L 85 106 L 85 110 L 86 111 L 91 105 L 94 105 L 103 113 L 108 122 L 108 125 L 109 126 L 109 131 L 104 136 L 94 136 L 92 138 L 90 138 L 82 130 L 75 125 L 68 125 L 65 128 L 64 131 L 64 134 L 65 135 L 70 127 L 75 127 L 79 129 L 89 140 L 91 144 L 91 147 L 90 150 L 84 155 L 80 155 L 77 154 L 75 152 L 72 153 L 72 155 L 74 157 L 77 158 L 83 165 L 84 171 L 79 177 L 74 177 L 70 175 L 63 168 L 62 160 L 65 155 L 62 155 L 59 158 L 59 164 L 62 171 L 70 181 L 78 187 L 86 195 L 93 199 L 96 202 L 102 214 L 103 218 L 118 232 L 125 241 L 143 258 L 147 259 L 152 264 L 161 270 L 163 270 L 172 275 L 188 279 L 191 282 L 191 284 L 186 289 L 187 290 L 191 290 L 192 291 L 194 290 L 199 290 L 207 296 L 211 296 L 212 297 L 223 297 L 225 300 L 220 305 L 216 307 L 217 309 L 223 311 L 229 311 L 231 309 L 236 299 L 237 293 L 241 284 L 241 279 L 243 277 L 244 273 L 248 269 L 253 269 L 255 271 L 255 274 L 247 282 L 247 284 L 249 286 L 249 290 L 244 296 L 245 303 L 244 304 L 244 307 L 239 317 L 240 319 L 240 324 L 239 325 L 239 328 L 236 333 L 236 336 L 237 337 L 245 331 L 247 332 L 249 335 L 249 340 L 245 346 L 236 355 L 227 369 L 228 370 L 230 369 L 233 372 L 233 374 L 230 380 L 222 390 L 222 392 L 227 391 L 229 393 L 229 399 L 225 405 L 225 407 L 222 410 L 218 419 L 219 420 L 222 418 L 225 418 L 226 419 L 226 425 L 221 438 L 221 442 L 222 443 L 227 440 L 232 444 L 237 450 L 238 455 L 241 460 L 240 461 L 235 460 L 234 461 L 222 461 L 221 462 L 206 462 L 203 464 L 202 467 L 199 470 L 188 472 L 191 476 L 191 478 L 187 482 L 185 482 L 176 486 L 172 490 L 172 492 L 173 492 L 175 495 L 174 499 L 164 511 L 161 517 L 161 519 L 156 526 L 156 528 L 153 532 L 150 539 L 150 541 L 163 553 L 163 556 L 161 558 L 154 558 L 135 550 L 124 550 L 123 551 L 120 551 L 111 554 L 104 560 L 103 564 L 109 564 L 117 560 L 122 560 L 129 565 L 132 566 L 134 565 L 142 566 L 150 575 L 150 579 L 148 581 L 148 583 L 152 588 L 158 588 L 161 592 L 166 596 L 168 596 L 173 600 L 186 607 L 189 607 L 194 601 L 202 600 L 207 596 L 210 592 L 212 586 L 212 582 L 214 579 L 214 576 L 219 565 L 221 563 L 226 562 L 241 548 L 248 548 L 250 550 L 252 550 L 256 547 L 248 542 L 245 542 L 238 539 L 236 537 L 236 535 L 238 533 L 241 533 L 242 532 L 261 532 L 262 531 L 272 531 L 274 532 L 276 530 L 273 527 L 267 524 L 262 520 L 264 517 L 277 518 L 281 520 L 284 520 L 287 522 L 289 521 L 288 517 L 274 502 L 266 490 L 247 473 L 243 467 L 242 464 L 243 462 L 248 465 L 256 472 L 260 474 L 258 471 L 258 459 L 259 457 L 262 455 L 264 457 L 264 473 L 265 474 L 265 477 L 272 485 L 274 482 L 274 472 L 278 464 L 281 462 L 283 464 L 283 470 L 280 478 L 280 487 L 285 494 L 290 506 L 293 507 L 294 504 L 299 500 L 301 502 L 301 505 L 299 509 L 299 513 L 305 518 L 322 525 L 326 522 L 326 520 L 328 518 L 335 517 L 347 508 L 365 486 L 364 478 L 362 476 L 356 481 L 351 482 L 349 480 L 349 474 L 352 466 L 348 461 L 346 461 L 341 464 L 337 464 L 336 465 L 330 466 L 327 462 L 326 459 L 327 456 L 326 455 L 321 459 L 317 456 L 317 454 L 318 453 L 318 449 L 320 447 L 320 442 L 321 441 L 320 438 L 317 436 L 313 431 L 310 430 L 308 428 L 307 424 L 303 421 L 290 419 L 281 416 L 274 412 L 267 405 L 266 402 L 260 396 L 255 389 L 252 381 L 252 376 L 251 375 L 251 368 L 253 364 L 253 359 L 252 358 L 252 342 L 263 331 L 266 322 L 274 315 L 283 312 L 290 312 L 291 311 L 305 313 L 327 304 L 331 304 L 332 303 L 340 303 L 341 302 L 343 303 L 346 303 L 347 302 L 362 302 L 369 299 L 374 293 L 381 293 L 383 295 L 383 299 L 385 302 L 392 303 L 398 308 L 398 310 L 396 312 L 390 313 L 389 314 L 372 315 L 371 316 L 365 316 L 364 317 L 353 317 L 352 318 L 339 318 L 338 319 L 326 320 L 313 326 L 286 326 L 282 328 L 279 331 L 282 333 L 285 333 L 288 336 L 288 340 L 286 342 L 281 344 L 272 345 L 266 350 L 265 354 L 269 357 L 276 356 L 279 359 L 275 365 L 266 374 L 266 377 L 268 381 L 274 381 L 275 380 L 278 380 L 284 378 L 287 381 L 287 384 L 283 389 L 282 394 L 290 397 L 295 397 L 300 401 L 316 401 L 317 400 L 325 399 L 328 397 L 335 396 L 339 394 L 344 395 L 346 397 L 352 396 L 359 389 L 368 383 L 370 383 L 372 385 L 372 391 L 371 392 L 371 395 L 372 395 L 374 393 L 377 393 L 385 387 L 392 385 L 397 382 L 400 382 L 401 381 L 404 381 L 405 382 L 408 382 L 409 381 L 411 382 L 416 378 L 422 379 L 426 377 L 427 375 L 432 371 L 435 371 L 437 373 L 436 379 L 439 380 L 441 379 L 446 371 L 446 368 L 450 356 L 452 354 L 455 354 L 458 356 L 463 351 L 467 351 L 469 347 L 469 339 L 468 338 L 468 334 L 466 329 L 466 323 L 468 321 L 471 323 L 470 313 L 464 298 L 454 285 L 454 283 L 457 280 L 463 282 L 462 279 L 448 262 L 448 257 L 431 245 L 425 245 L 424 246 L 416 246 L 413 245 L 407 250 L 405 250 L 403 248 L 403 241 L 407 234 L 410 232 L 412 235 L 414 235 L 419 227 L 421 228 L 421 230 L 423 230 L 427 222 L 427 217 L 429 215 L 432 217 L 433 219 L 433 224 L 434 225 L 440 219 L 438 216 L 436 216 L 433 213 L 433 209 L 437 204 L 441 207 L 441 212 L 442 213 L 444 212 L 445 208 L 441 201 L 441 199 L 434 192 L 436 190 L 440 190 L 442 192 L 446 193 L 447 191 L 446 190 L 445 184 L 447 182 L 450 182 L 453 186 L 455 185 L 454 177 L 453 176 L 455 169 L 449 162 L 448 159 L 450 157 L 452 157 L 456 160 L 463 159 L 467 165 L 466 166 L 467 171 L 469 170 L 472 170 L 475 172 L 477 171 L 476 166 L 471 157 L 470 150 L 473 147 L 475 147 L 477 149 L 478 147 L 477 144 L 465 131 L 465 128 L 467 126 L 472 126 L 472 124 L 460 114 L 462 107 L 457 100 L 451 88 L 442 77 L 445 73 L 448 72 L 457 64 L 461 53 L 460 44 L 456 36 L 448 28 Z M 328 505 L 330 507 L 330 513 L 327 516 L 325 516 L 322 513 L 322 511 Z M 315 492 L 317 494 L 317 500 L 311 506 L 309 506 L 306 503 L 307 499 L 313 492 Z M 344 485 L 346 487 L 345 488 L 345 491 L 343 494 L 343 496 L 338 501 L 336 499 L 336 494 Z M 327 476 L 330 477 L 330 486 L 328 489 L 324 486 L 324 482 Z M 254 433 L 256 435 L 255 444 L 253 449 L 250 450 L 248 447 L 248 443 L 250 437 Z M 250 417 L 252 419 L 252 423 L 246 431 L 242 434 L 240 432 L 242 425 L 244 421 L 247 418 Z M 249 403 L 250 404 L 249 410 L 248 412 L 243 416 L 241 414 L 242 409 L 246 404 Z M 254 258 L 256 259 L 257 264 L 255 266 L 252 266 L 250 264 L 250 262 Z M 398 241 L 400 243 L 397 249 L 394 252 L 392 250 L 394 247 L 394 245 Z M 385 243 L 384 248 L 372 261 L 356 274 L 354 274 L 344 279 L 339 279 L 330 275 L 322 269 L 316 266 L 304 255 L 304 251 L 307 248 L 312 248 L 313 249 L 316 249 L 321 251 L 327 251 L 328 252 L 336 252 L 337 251 L 343 251 L 344 250 L 349 250 L 350 249 L 359 248 L 379 241 L 383 241 Z M 131 138 L 139 145 L 145 154 L 146 157 L 146 165 L 144 170 L 135 179 L 127 184 L 125 184 L 123 186 L 121 186 L 116 189 L 110 191 L 106 191 L 105 192 L 100 192 L 99 191 L 96 191 L 94 189 L 91 188 L 87 183 L 84 175 L 84 171 L 88 162 L 88 160 L 90 158 L 90 156 L 106 139 L 110 137 L 116 136 L 117 135 L 122 135 Z M 370 129 L 372 126 L 379 120 L 385 118 L 400 118 L 401 119 L 404 119 L 410 121 L 415 124 L 418 127 L 421 136 L 420 137 L 420 140 L 412 147 L 409 148 L 402 148 L 401 149 L 399 148 L 391 148 L 376 142 L 370 135 Z M 292 112 L 295 109 L 304 106 L 318 106 L 324 109 L 327 112 L 327 115 L 325 117 L 322 117 L 315 114 L 301 114 L 300 115 L 294 115 Z M 274 99 L 279 100 L 283 105 L 284 108 L 284 116 L 283 117 L 283 120 L 284 121 L 288 121 L 289 120 L 301 120 L 302 121 L 306 121 L 312 124 L 314 124 L 319 128 L 321 132 L 321 136 L 319 142 L 311 151 L 309 151 L 304 154 L 295 157 L 285 157 L 278 154 L 269 145 L 267 142 L 267 140 L 266 140 L 267 142 L 266 144 L 266 156 L 268 160 L 272 164 L 277 166 L 282 166 L 293 160 L 296 160 L 297 161 L 305 162 L 310 164 L 325 165 L 337 161 L 349 154 L 353 147 L 356 144 L 359 144 L 364 149 L 366 153 L 366 158 L 367 159 L 367 183 L 366 184 L 366 189 L 365 190 L 365 194 L 364 195 L 362 205 L 356 217 L 347 226 L 337 232 L 331 234 L 323 234 L 311 230 L 293 213 L 282 197 L 279 191 L 276 178 L 266 173 L 259 166 L 256 160 L 255 149 L 249 156 L 241 160 L 236 160 L 234 159 L 229 153 L 229 147 L 230 144 L 237 136 L 245 132 L 253 132 L 259 137 L 264 137 L 265 138 L 266 137 L 269 128 L 266 125 L 264 121 L 264 112 L 267 105 Z M 358 93 L 364 95 L 369 101 L 370 109 L 371 110 L 370 117 L 368 121 L 362 126 L 358 126 L 354 124 L 351 121 L 348 113 L 349 102 L 352 97 Z M 284 60 L 288 64 L 289 68 L 285 72 L 283 72 L 274 79 L 270 80 L 266 75 L 268 70 L 277 61 L 279 60 Z M 248 60 L 253 62 L 258 67 L 259 70 L 249 82 L 247 87 L 242 92 L 240 92 L 236 90 L 230 83 L 229 75 L 231 69 L 236 63 L 239 61 Z M 353 56 L 358 51 L 365 51 L 371 53 L 377 58 L 378 60 L 378 67 L 376 69 L 370 69 L 359 63 L 357 63 L 353 59 Z M 426 35 L 433 35 L 439 38 L 447 47 L 448 50 L 448 58 L 447 61 L 438 69 L 435 69 L 432 67 L 424 59 L 417 55 L 413 50 L 414 46 L 416 43 L 422 37 Z" fill="#FBFBFB" fill-rule="evenodd"/><path d="M 446 621 L 455 629 L 457 629 L 462 632 L 466 632 L 470 630 L 473 630 L 490 636 L 496 636 L 497 637 L 502 636 L 506 640 L 509 649 L 512 654 L 507 644 L 506 637 L 505 636 L 491 636 L 474 630 L 470 630 L 466 632 L 462 632 Z M 260 586 L 242 605 L 239 612 L 232 618 L 228 620 L 221 627 L 215 635 L 210 639 L 204 642 L 213 637 L 226 622 L 236 616 L 239 613 L 240 609 L 242 607 L 243 604 L 255 593 Z M 101 564 L 101 568 L 105 566 L 111 565 L 117 561 L 122 561 L 128 566 L 129 568 L 129 573 L 130 573 L 130 570 L 133 567 L 138 566 L 134 566 L 132 567 L 129 566 L 122 561 L 117 561 L 109 565 L 103 565 L 102 564 L 103 560 L 108 555 L 116 551 L 123 550 L 115 551 L 109 554 L 103 560 Z M 328 506 L 323 511 L 323 513 L 325 515 L 327 515 L 329 513 L 329 507 Z M 315 493 L 313 493 L 309 497 L 307 502 L 309 505 L 311 505 L 316 500 L 316 494 Z M 344 486 L 337 494 L 337 499 L 338 500 L 342 496 L 345 487 Z M 329 477 L 327 477 L 325 482 L 325 486 L 327 488 L 328 488 L 329 486 Z M 195 470 L 186 471 L 185 473 L 189 476 L 189 478 L 186 481 L 180 483 L 173 487 L 167 493 L 168 494 L 171 494 L 173 496 L 173 498 L 164 510 L 173 499 L 174 495 L 173 493 L 171 492 L 171 490 L 176 485 L 185 481 L 187 481 L 190 478 L 190 476 L 187 473 L 188 471 Z M 254 434 L 250 439 L 250 442 L 249 443 L 249 447 L 250 449 L 252 449 L 254 444 L 254 440 L 255 439 L 255 435 Z M 250 418 L 247 419 L 245 421 L 241 431 L 242 433 L 245 431 L 251 423 L 251 419 Z M 249 404 L 246 405 L 243 409 L 242 412 L 243 415 L 247 412 L 249 407 Z M 265 355 L 267 358 L 275 358 L 277 360 L 266 371 L 265 373 L 265 379 L 268 382 L 275 382 L 283 379 L 286 383 L 279 391 L 278 393 L 278 397 L 280 399 L 292 404 L 302 405 L 303 404 L 315 403 L 327 399 L 334 398 L 338 396 L 341 396 L 343 398 L 344 401 L 354 396 L 365 386 L 359 390 L 352 397 L 349 397 L 348 398 L 339 395 L 335 397 L 328 398 L 325 400 L 317 401 L 316 402 L 300 402 L 295 398 L 290 398 L 286 396 L 283 396 L 281 394 L 282 389 L 286 384 L 286 381 L 284 379 L 278 381 L 275 381 L 274 382 L 268 382 L 266 380 L 265 374 L 274 365 L 278 359 L 276 357 L 269 358 Z M 235 334 L 235 338 L 236 339 L 238 339 L 243 335 L 245 335 L 247 338 L 243 345 L 235 352 L 233 359 L 226 368 L 227 371 L 230 371 L 231 372 L 231 376 L 222 388 L 220 393 L 221 394 L 226 393 L 228 395 L 228 398 L 226 403 L 224 405 L 218 416 L 217 421 L 220 421 L 222 419 L 225 421 L 225 425 L 220 437 L 220 442 L 219 444 L 222 445 L 227 443 L 232 446 L 237 453 L 237 457 L 234 460 L 223 460 L 234 460 L 235 459 L 240 460 L 241 462 L 243 463 L 244 467 L 248 473 L 258 481 L 267 490 L 275 502 L 289 517 L 290 521 L 287 523 L 284 521 L 281 521 L 277 519 L 264 518 L 263 519 L 264 521 L 273 526 L 277 530 L 274 533 L 272 532 L 262 532 L 261 533 L 242 533 L 241 534 L 238 534 L 237 535 L 238 538 L 245 541 L 248 541 L 254 544 L 257 547 L 252 551 L 250 551 L 248 549 L 241 549 L 226 563 L 221 564 L 215 576 L 215 579 L 213 582 L 213 586 L 211 592 L 208 596 L 202 601 L 194 602 L 189 608 L 186 608 L 173 601 L 168 597 L 166 597 L 163 595 L 158 589 L 152 589 L 147 583 L 147 581 L 149 579 L 149 575 L 142 567 L 140 567 L 145 571 L 145 577 L 141 583 L 141 586 L 142 587 L 146 587 L 158 598 L 161 599 L 163 601 L 168 601 L 172 603 L 178 609 L 180 609 L 183 611 L 190 620 L 190 624 L 191 626 L 194 629 L 197 629 L 201 627 L 208 620 L 216 607 L 220 603 L 222 604 L 224 602 L 225 599 L 228 596 L 230 592 L 238 584 L 239 584 L 241 578 L 244 575 L 247 576 L 250 575 L 254 569 L 254 567 L 259 562 L 263 562 L 265 564 L 267 564 L 283 556 L 296 557 L 302 554 L 295 547 L 295 544 L 299 540 L 301 541 L 307 541 L 310 543 L 314 544 L 316 546 L 318 546 L 320 548 L 323 548 L 329 551 L 332 551 L 341 554 L 346 554 L 351 556 L 360 556 L 361 557 L 391 557 L 392 556 L 398 556 L 399 555 L 405 555 L 407 554 L 411 558 L 411 561 L 408 565 L 402 568 L 404 572 L 419 587 L 429 595 L 434 601 L 439 605 L 445 604 L 455 615 L 457 616 L 466 615 L 480 621 L 490 622 L 491 623 L 507 623 L 508 622 L 514 622 L 515 621 L 525 621 L 527 623 L 527 626 L 517 635 L 518 641 L 523 649 L 529 655 L 536 659 L 539 659 L 540 658 L 536 651 L 536 647 L 538 645 L 544 646 L 551 652 L 559 652 L 562 649 L 562 648 L 554 641 L 554 634 L 557 631 L 561 630 L 567 636 L 569 636 L 575 621 L 575 615 L 576 614 L 576 591 L 575 590 L 575 583 L 574 582 L 573 573 L 569 562 L 560 554 L 554 552 L 544 551 L 535 547 L 533 547 L 531 545 L 526 543 L 524 541 L 524 536 L 526 535 L 526 534 L 523 533 L 519 529 L 518 526 L 509 518 L 507 515 L 507 513 L 505 511 L 498 498 L 496 499 L 495 502 L 485 513 L 481 513 L 478 509 L 478 505 L 489 485 L 489 483 L 491 480 L 495 468 L 495 464 L 496 463 L 496 447 L 497 446 L 500 446 L 501 447 L 502 446 L 502 435 L 501 434 L 501 431 L 498 422 L 498 418 L 501 415 L 501 413 L 500 412 L 500 409 L 496 403 L 496 401 L 493 398 L 489 390 L 489 387 L 490 386 L 494 386 L 495 387 L 496 386 L 495 383 L 483 369 L 483 364 L 485 362 L 484 358 L 482 358 L 479 370 L 474 379 L 470 384 L 469 387 L 462 394 L 457 397 L 451 399 L 447 399 L 438 402 L 433 405 L 419 406 L 418 407 L 407 408 L 406 409 L 398 409 L 397 410 L 394 410 L 391 412 L 378 413 L 377 414 L 372 414 L 371 415 L 358 415 L 357 416 L 354 416 L 350 418 L 345 418 L 344 419 L 338 419 L 332 417 L 319 417 L 314 419 L 301 419 L 300 418 L 287 417 L 278 413 L 281 415 L 290 418 L 299 419 L 300 420 L 303 420 L 308 424 L 309 428 L 313 430 L 322 440 L 321 442 L 321 447 L 319 449 L 318 456 L 321 458 L 326 454 L 328 456 L 327 459 L 330 465 L 336 464 L 337 463 L 341 463 L 346 460 L 348 460 L 353 466 L 350 474 L 350 480 L 351 481 L 358 479 L 361 475 L 365 478 L 366 486 L 357 496 L 352 504 L 347 509 L 335 518 L 328 519 L 327 522 L 322 526 L 305 519 L 298 513 L 298 509 L 300 505 L 300 502 L 299 501 L 295 504 L 295 506 L 293 508 L 291 508 L 289 506 L 284 494 L 279 487 L 279 478 L 282 470 L 282 464 L 281 463 L 279 464 L 275 472 L 275 482 L 272 486 L 264 477 L 264 474 L 263 473 L 263 457 L 261 456 L 259 459 L 259 471 L 261 474 L 259 475 L 248 466 L 244 464 L 239 459 L 237 455 L 237 452 L 232 445 L 227 441 L 222 444 L 220 442 L 220 438 L 225 425 L 225 419 L 222 419 L 220 421 L 217 419 L 221 410 L 224 407 L 224 405 L 228 399 L 228 393 L 227 392 L 222 393 L 221 390 L 229 380 L 232 374 L 232 372 L 230 370 L 228 371 L 226 369 L 235 355 L 244 346 L 248 340 L 248 335 L 247 333 L 245 332 L 237 338 L 235 336 Z M 227 565 L 228 566 L 228 569 L 226 571 L 225 574 L 219 579 L 217 577 L 219 572 L 224 566 Z M 238 555 L 239 557 L 238 559 L 235 561 L 234 558 Z M 242 536 L 244 534 L 256 534 L 258 533 L 259 534 L 268 534 L 271 535 L 273 537 L 273 539 L 269 542 L 263 543 L 262 542 L 254 542 L 250 540 L 247 540 L 244 539 Z M 341 529 L 343 526 L 346 527 L 344 530 Z M 344 521 L 339 526 L 332 530 L 329 530 L 327 528 L 329 525 L 336 521 L 338 521 L 341 519 Z M 267 520 L 268 519 L 273 519 L 276 521 L 279 521 L 283 523 L 287 527 L 288 531 L 286 533 L 283 532 L 279 528 L 268 522 Z M 369 492 L 375 497 L 374 504 L 372 506 L 372 508 L 370 511 L 361 520 L 360 520 L 355 513 L 357 507 L 359 505 L 360 502 L 365 495 Z M 407 500 L 406 503 L 400 509 L 400 510 L 398 512 L 394 513 L 391 516 L 390 519 L 384 527 L 382 532 L 378 536 L 376 534 L 376 530 L 377 529 L 376 527 L 373 528 L 366 528 L 364 530 L 359 531 L 356 528 L 358 525 L 358 523 L 362 520 L 364 521 L 368 521 L 369 522 L 372 520 L 374 520 L 377 523 L 379 522 L 383 510 L 383 504 L 384 503 L 383 498 L 384 497 L 384 492 L 388 488 L 394 496 L 396 497 L 404 497 Z M 450 486 L 452 488 L 451 498 L 449 500 L 445 512 L 441 518 L 439 519 L 438 516 L 440 514 L 442 506 L 444 504 L 444 500 L 445 499 L 445 495 L 448 487 Z M 416 482 L 419 485 L 422 494 L 423 495 L 424 494 L 426 495 L 426 499 L 427 501 L 425 502 L 423 499 L 421 500 L 418 516 L 413 525 L 407 530 L 406 527 L 411 520 L 411 518 L 414 512 L 414 508 L 415 507 L 415 495 L 412 490 L 412 484 L 414 482 Z M 424 478 L 427 477 L 428 480 L 425 481 Z M 370 482 L 371 477 L 376 473 L 382 473 L 385 476 L 387 476 L 389 478 L 386 481 L 381 481 L 376 485 L 373 485 Z M 247 470 L 249 468 L 261 478 L 263 478 L 273 488 L 276 489 L 285 499 L 288 507 L 292 511 L 294 511 L 301 519 L 305 521 L 307 523 L 305 526 L 297 525 L 288 513 L 273 498 L 272 495 L 261 484 L 261 483 Z M 275 316 L 271 318 L 267 322 L 264 331 L 253 342 L 253 358 L 254 359 L 254 364 L 252 368 L 252 375 L 253 376 L 254 384 L 253 376 L 252 375 L 252 369 L 254 364 L 254 357 L 253 356 L 254 345 L 257 339 L 264 331 L 266 325 L 269 320 Z M 471 314 L 472 323 L 471 324 L 468 322 L 467 323 L 467 329 L 468 330 L 469 338 L 470 339 L 470 347 L 469 350 L 467 352 L 463 352 L 458 357 L 455 355 L 452 355 L 451 356 L 447 368 L 447 371 L 441 380 L 437 381 L 435 379 L 436 373 L 435 372 L 432 372 L 429 374 L 426 378 L 422 380 L 416 379 L 411 383 L 409 382 L 408 383 L 405 383 L 404 382 L 397 383 L 392 386 L 385 388 L 377 394 L 374 394 L 372 396 L 370 395 L 371 385 L 368 384 L 367 385 L 369 385 L 371 388 L 368 397 L 366 399 L 367 400 L 370 399 L 380 392 L 393 386 L 395 386 L 397 388 L 396 390 L 396 393 L 397 393 L 411 385 L 416 385 L 419 383 L 423 382 L 432 374 L 434 376 L 433 381 L 427 390 L 428 391 L 432 390 L 436 387 L 444 378 L 448 370 L 451 359 L 453 357 L 456 359 L 457 373 L 459 375 L 462 371 L 462 369 L 465 364 L 465 362 L 467 359 L 470 350 L 470 339 L 469 338 L 469 333 L 468 332 L 467 326 L 469 324 L 472 326 L 472 318 L 471 317 Z M 401 388 L 402 385 L 405 386 L 404 388 L 402 389 Z M 397 310 L 397 308 L 394 305 L 388 303 L 385 303 L 382 299 L 382 295 L 381 294 L 374 294 L 369 300 L 362 303 L 347 303 L 366 303 L 370 300 L 371 297 L 375 294 L 380 294 L 382 296 L 382 302 L 383 303 L 392 304 L 396 307 L 396 309 L 393 312 L 384 313 L 389 313 Z M 255 259 L 251 262 L 252 265 L 255 265 L 256 264 Z M 398 242 L 395 245 L 395 247 L 393 250 L 394 251 L 399 243 Z M 384 243 L 383 242 L 379 242 L 359 249 L 350 250 L 349 251 L 344 251 L 343 252 L 337 252 L 336 253 L 328 253 L 327 252 L 321 252 L 312 249 L 307 249 L 305 251 L 305 255 L 316 265 L 322 268 L 330 274 L 339 278 L 344 278 L 354 273 L 356 273 L 372 260 L 383 248 Z M 383 245 L 367 262 L 352 273 L 350 273 L 344 277 L 340 277 L 329 272 L 326 269 L 318 265 L 306 255 L 306 252 L 308 250 L 315 251 L 319 253 L 324 253 L 325 254 L 340 254 L 341 253 L 355 251 L 359 249 L 368 248 L 374 246 L 376 244 L 381 243 Z M 224 182 L 224 191 L 227 192 L 230 190 L 232 192 L 232 206 L 234 210 L 236 212 L 238 212 L 241 210 L 244 213 L 245 216 L 257 226 L 267 242 L 267 247 L 264 251 L 261 252 L 258 249 L 253 238 L 248 232 L 246 232 L 246 236 L 244 238 L 239 233 L 238 230 L 233 224 L 231 224 L 228 226 L 225 223 L 224 220 L 225 223 L 229 227 L 233 225 L 238 230 L 239 233 L 243 238 L 245 238 L 247 236 L 248 233 L 252 237 L 253 240 L 255 242 L 257 248 L 261 252 L 264 251 L 269 245 L 275 247 L 282 252 L 285 252 L 285 248 L 282 243 L 271 235 L 267 233 L 263 233 L 259 228 L 244 214 L 244 212 L 242 209 L 240 209 L 237 212 L 234 210 L 232 206 L 232 191 L 230 189 L 226 192 L 224 190 Z M 271 239 L 273 238 L 278 241 L 284 248 L 281 250 L 271 241 Z M 50 175 L 59 189 L 73 202 L 82 208 L 86 213 L 81 207 L 69 198 L 57 186 Z M 58 159 L 59 167 L 65 177 L 84 195 L 92 200 L 96 204 L 106 228 L 121 250 L 136 264 L 149 272 L 153 276 L 153 279 L 151 281 L 146 281 L 145 282 L 154 288 L 163 291 L 169 295 L 171 295 L 174 298 L 174 300 L 170 303 L 171 306 L 174 308 L 177 308 L 180 310 L 195 314 L 198 317 L 196 320 L 196 322 L 201 324 L 205 324 L 206 325 L 212 326 L 215 329 L 215 331 L 217 333 L 221 334 L 223 331 L 228 315 L 230 313 L 235 302 L 239 298 L 242 298 L 244 300 L 243 307 L 241 311 L 244 303 L 243 296 L 248 290 L 248 286 L 246 284 L 246 282 L 254 274 L 254 271 L 253 270 L 248 270 L 245 273 L 245 275 L 242 279 L 242 284 L 239 290 L 237 299 L 232 309 L 229 312 L 223 312 L 217 310 L 215 307 L 217 305 L 220 304 L 224 300 L 223 298 L 212 298 L 211 297 L 207 297 L 199 291 L 194 291 L 193 292 L 191 291 L 187 291 L 185 289 L 190 284 L 190 282 L 188 280 L 172 276 L 163 271 L 159 270 L 147 260 L 143 259 L 137 254 L 124 241 L 117 232 L 102 218 L 101 214 L 95 202 L 86 196 L 67 179 L 59 167 Z M 209 300 L 210 299 L 220 299 L 221 301 L 217 304 L 212 304 Z M 192 294 L 193 293 L 197 293 L 198 295 L 197 296 L 193 296 Z M 246 287 L 247 288 L 246 292 L 243 295 L 240 296 L 239 293 L 241 289 L 243 287 Z M 177 281 L 178 280 L 183 280 L 184 281 L 187 281 L 189 283 L 186 286 L 182 286 L 179 284 Z M 251 271 L 253 273 L 249 277 L 247 277 L 246 275 Z M 152 269 L 153 268 L 156 271 L 168 275 L 169 277 L 166 278 L 160 276 L 155 273 Z M 146 264 L 147 263 L 151 267 L 149 268 Z M 266 157 L 268 162 L 275 167 L 283 167 L 291 162 L 300 162 L 301 163 L 309 164 L 293 161 L 285 166 L 277 167 L 272 165 L 267 160 Z M 359 145 L 356 145 L 350 154 L 343 159 L 332 164 L 326 165 L 332 164 L 345 158 L 351 153 L 353 149 L 357 145 L 363 150 L 365 155 L 365 159 L 366 160 L 366 182 L 365 183 L 364 193 L 363 194 L 363 197 L 361 201 L 360 207 L 354 218 L 350 222 L 347 223 L 339 229 L 332 232 L 321 232 L 312 229 L 307 226 L 295 214 L 283 197 L 279 187 L 283 197 L 294 213 L 311 229 L 323 233 L 331 233 L 337 231 L 347 225 L 355 217 L 356 214 L 358 212 L 358 210 L 362 202 L 362 199 L 364 194 L 364 190 L 365 189 L 365 184 L 366 183 L 366 159 L 365 158 L 365 153 L 363 149 Z M 131 139 L 122 136 L 113 137 L 106 140 L 95 151 L 91 156 L 91 158 L 89 160 L 89 162 L 85 171 L 86 179 L 91 187 L 94 188 L 96 190 L 99 190 L 100 191 L 110 190 L 116 188 L 121 185 L 123 185 L 125 183 L 127 183 L 129 181 L 132 180 L 143 170 L 145 165 L 145 157 L 144 154 L 138 145 Z M 133 141 L 142 151 L 145 159 L 144 167 L 139 174 L 124 184 L 109 190 L 98 190 L 92 187 L 87 181 L 85 174 L 86 173 L 87 166 L 93 154 L 107 140 L 114 137 L 125 137 Z M 228 135 L 228 136 L 220 143 L 217 150 L 224 149 L 226 151 L 226 153 L 220 165 L 220 169 L 221 170 L 225 169 L 227 171 L 225 177 L 225 180 L 227 170 L 225 168 L 222 170 L 220 168 L 220 165 L 224 156 L 226 154 L 226 150 L 225 149 L 219 149 L 218 148 L 219 145 L 228 136 Z M 260 138 L 253 133 L 245 133 L 237 137 L 231 144 L 230 147 L 230 153 L 231 155 L 236 159 L 241 159 L 249 155 L 255 148 L 256 149 L 256 153 L 256 145 L 257 144 L 257 141 Z M 252 134 L 256 138 L 255 143 L 252 146 L 250 141 L 247 141 L 246 142 L 248 145 L 251 145 L 252 146 L 251 150 L 244 157 L 236 158 L 230 151 L 232 144 L 242 135 L 245 134 Z M 70 128 L 68 131 L 68 133 L 65 136 L 64 135 L 66 140 L 67 140 L 67 134 L 68 132 L 71 129 L 74 129 L 78 131 L 88 141 L 89 143 L 89 149 L 85 153 L 79 153 L 71 148 L 71 152 L 69 154 L 61 154 L 59 157 L 62 154 L 65 154 L 66 156 L 63 160 L 64 168 L 70 174 L 74 176 L 79 176 L 83 171 L 82 165 L 77 159 L 74 158 L 71 155 L 71 153 L 73 151 L 75 151 L 77 153 L 84 154 L 89 150 L 90 144 L 88 140 L 79 130 L 75 128 Z M 64 159 L 66 157 L 72 157 L 76 159 L 82 166 L 82 172 L 79 175 L 73 175 L 71 174 L 64 166 Z M 164 124 L 164 138 L 163 139 L 163 146 L 159 153 L 160 158 L 169 168 L 178 181 L 190 194 L 195 191 L 198 194 L 201 200 L 201 202 L 203 204 L 205 209 L 211 215 L 213 215 L 214 212 L 212 214 L 210 214 L 207 211 L 203 205 L 198 194 L 194 190 L 191 193 L 189 193 L 184 188 L 170 169 L 161 159 L 159 153 L 161 151 L 163 146 L 163 140 L 164 139 Z M 371 129 L 371 135 L 376 141 L 391 147 L 399 147 L 401 148 L 402 147 L 409 147 L 412 146 L 419 140 L 419 137 L 420 136 L 419 131 L 415 125 L 410 122 L 404 120 L 401 120 L 400 119 L 385 119 L 377 122 Z M 371 130 L 373 127 L 380 121 L 383 121 L 384 120 L 401 120 L 402 121 L 406 121 L 414 125 L 419 131 L 419 139 L 412 145 L 404 146 L 403 147 L 395 147 L 394 146 L 390 146 L 384 144 L 376 140 L 372 136 L 371 134 Z M 293 112 L 294 114 L 300 114 L 301 113 L 315 113 L 322 116 L 325 116 L 326 115 L 326 112 L 318 107 L 304 107 L 303 108 L 297 109 Z M 301 110 L 302 109 L 312 108 L 313 109 L 317 109 L 318 111 L 317 112 L 302 112 Z M 108 126 L 107 125 L 107 122 L 102 113 L 96 107 L 91 106 L 86 112 L 84 110 L 84 107 L 84 113 L 85 116 L 86 116 L 87 112 L 91 107 L 96 108 L 103 115 L 103 117 L 106 121 L 108 127 L 107 131 L 103 135 L 97 135 L 94 133 L 90 136 L 82 128 L 76 124 L 68 124 L 64 128 L 64 130 L 64 128 L 68 124 L 75 124 L 82 129 L 90 137 L 92 137 L 94 135 L 104 135 L 108 131 Z M 272 101 L 268 105 L 265 112 L 265 121 L 267 125 L 270 128 L 267 137 L 265 139 L 264 138 L 265 140 L 267 139 L 270 145 L 278 153 L 285 156 L 295 156 L 301 154 L 295 156 L 286 156 L 285 155 L 282 155 L 278 153 L 270 145 L 267 139 L 267 136 L 269 131 L 272 127 L 269 127 L 265 121 L 265 112 L 267 107 L 271 102 L 273 101 L 279 101 L 280 102 L 276 100 Z M 128 99 L 132 104 L 135 110 L 136 116 L 138 120 L 138 123 L 143 127 L 143 130 L 142 131 L 142 140 L 147 145 L 151 145 L 155 143 L 157 141 L 160 134 L 160 125 L 158 121 L 155 118 L 151 118 L 147 122 L 146 121 L 147 117 L 150 114 L 155 113 L 150 114 L 147 117 L 144 123 L 142 125 L 140 125 L 138 123 L 138 120 L 137 119 L 137 116 L 135 110 L 132 104 Z M 154 118 L 159 124 L 159 136 L 154 143 L 149 145 L 146 144 L 142 139 L 142 131 L 147 123 L 152 118 Z M 94 101 L 97 102 L 104 109 L 108 116 L 111 126 L 113 128 L 119 127 L 124 130 L 131 130 L 134 125 L 134 116 L 133 115 L 133 112 L 129 106 L 124 101 L 119 101 L 118 100 L 120 97 L 117 99 L 116 104 L 119 105 L 123 102 L 129 107 L 133 114 L 134 123 L 133 126 L 129 130 L 123 129 L 118 124 L 116 124 L 116 125 L 113 127 L 110 123 L 109 118 L 105 110 L 97 102 Z M 456 96 L 463 107 L 461 114 L 473 124 L 472 127 L 467 127 L 466 128 L 466 131 L 478 144 L 479 147 L 477 150 L 475 148 L 473 148 L 471 150 L 471 154 L 477 166 L 478 171 L 476 173 L 472 171 L 467 172 L 465 168 L 466 165 L 463 160 L 456 161 L 452 158 L 449 159 L 450 162 L 456 169 L 456 171 L 454 174 L 456 185 L 453 187 L 450 183 L 447 183 L 446 186 L 448 192 L 446 194 L 444 194 L 440 191 L 436 191 L 435 192 L 442 199 L 442 201 L 446 208 L 445 212 L 442 214 L 440 212 L 440 207 L 437 205 L 434 209 L 434 213 L 436 215 L 438 215 L 441 219 L 434 226 L 432 224 L 432 219 L 431 217 L 429 216 L 428 217 L 428 222 L 423 231 L 421 231 L 420 228 L 419 228 L 418 231 L 414 236 L 412 236 L 410 233 L 408 234 L 404 241 L 404 248 L 407 249 L 413 244 L 416 245 L 431 244 L 437 249 L 447 255 L 449 257 L 449 262 L 463 279 L 464 282 L 463 283 L 457 281 L 455 283 L 455 285 L 461 292 L 465 299 L 462 293 L 456 286 L 455 283 L 456 282 L 460 282 L 465 285 L 466 284 L 458 272 L 450 263 L 451 258 L 439 250 L 435 246 L 435 243 L 431 242 L 430 243 L 424 243 L 420 245 L 418 245 L 416 243 L 416 242 L 429 230 L 432 233 L 436 232 L 441 228 L 440 225 L 441 223 L 442 223 L 443 225 L 445 225 L 449 223 L 457 215 L 462 202 L 462 194 L 464 192 L 468 195 L 470 194 L 470 177 L 469 174 L 471 172 L 478 174 L 478 168 L 472 156 L 471 151 L 473 149 L 480 151 L 480 147 L 478 143 L 466 131 L 466 129 L 468 127 L 476 127 L 474 123 L 462 115 L 462 112 L 465 109 L 460 103 Z M 453 205 L 457 208 L 457 212 L 455 214 L 452 212 L 451 207 Z M 466 172 L 468 175 L 468 178 L 470 180 L 470 184 L 469 185 L 470 192 L 469 193 L 467 192 L 467 190 L 465 188 L 465 185 L 464 184 L 464 176 Z M 284 61 L 279 61 L 277 62 L 269 70 L 267 75 L 270 79 L 274 78 L 277 75 L 283 71 L 285 71 L 288 68 L 287 64 Z M 287 64 L 288 67 L 285 71 L 281 72 L 273 78 L 270 78 L 268 76 L 268 72 L 269 70 L 277 63 L 283 61 Z M 248 61 L 239 62 L 234 66 L 231 71 L 231 74 L 230 75 L 231 83 L 236 89 L 240 91 L 242 91 L 246 87 L 248 82 L 258 70 L 257 67 L 253 63 Z M 252 64 L 256 69 L 251 75 L 249 80 L 247 82 L 247 84 L 242 89 L 240 89 L 235 85 L 231 79 L 231 75 L 234 72 L 235 73 L 234 78 L 235 78 L 239 75 L 245 74 L 243 71 L 244 68 L 241 69 L 238 72 L 237 72 L 236 70 L 244 63 Z M 461 54 L 461 57 L 458 64 L 452 70 L 443 76 L 444 79 L 450 85 L 455 94 L 452 88 L 445 79 L 444 76 L 452 71 L 456 67 L 460 60 Z M 426 36 L 422 38 L 417 43 L 415 46 L 414 50 L 417 54 L 424 58 L 432 66 L 435 68 L 438 68 L 446 61 L 447 58 L 447 50 L 445 45 L 436 37 L 433 36 Z M 425 38 L 431 37 L 440 41 L 446 49 L 447 52 L 446 58 L 445 60 L 437 67 L 434 66 L 426 58 L 418 53 L 415 50 L 415 48 L 418 43 Z M 402 36 L 401 41 L 399 43 L 397 43 L 391 40 L 388 40 L 384 38 L 374 37 L 373 36 L 356 36 L 353 37 L 351 35 L 351 32 L 352 31 L 352 27 L 351 26 L 346 28 L 338 36 L 335 36 L 326 30 L 319 29 L 318 30 L 319 38 L 317 40 L 302 40 L 299 41 L 298 44 L 295 47 L 285 50 L 279 53 L 271 59 L 270 59 L 262 50 L 254 46 L 259 48 L 267 55 L 269 59 L 273 59 L 277 55 L 285 50 L 297 46 L 298 43 L 302 40 L 317 40 L 319 38 L 319 33 L 318 31 L 320 29 L 323 29 L 335 36 L 338 36 L 346 28 L 351 27 L 352 28 L 351 31 L 351 36 L 352 37 L 356 37 L 357 36 L 371 36 L 372 37 L 378 37 L 379 38 L 387 39 L 396 43 L 400 43 L 401 42 L 401 38 Z" fill="#D8D8D8" fill-rule="evenodd"/><path d="M 227 566 L 224 567 L 220 572 L 218 576 L 219 578 L 224 574 L 225 571 L 227 569 Z M 243 536 L 244 538 L 247 539 L 250 539 L 254 541 L 262 541 L 263 542 L 269 541 L 272 539 L 272 537 L 268 535 L 259 535 L 257 534 L 256 535 L 244 535 Z M 268 520 L 268 521 L 279 527 L 283 531 L 285 532 L 287 531 L 286 527 L 283 524 L 279 522 L 276 522 L 273 520 Z M 449 487 L 446 495 L 445 504 L 443 506 L 439 518 L 440 518 L 444 512 L 445 507 L 447 505 L 448 500 L 450 498 L 450 492 L 451 491 L 451 488 Z M 248 470 L 258 480 L 259 480 L 273 495 L 274 498 L 289 513 L 297 524 L 305 525 L 306 523 L 301 520 L 294 512 L 292 512 L 287 507 L 284 499 L 278 493 L 278 492 L 276 491 L 276 490 L 273 489 L 263 479 L 261 479 L 249 469 Z M 210 300 L 212 303 L 217 303 L 220 301 L 220 300 Z M 246 288 L 243 288 L 242 289 L 240 295 L 243 294 L 245 292 Z M 178 281 L 178 282 L 182 285 L 186 285 L 188 283 L 183 281 Z M 252 273 L 250 272 L 247 276 L 249 276 Z M 153 269 L 153 270 L 158 274 L 168 277 L 168 276 L 156 272 Z M 382 245 L 379 244 L 376 245 L 374 247 L 368 249 L 359 250 L 355 252 L 351 252 L 350 253 L 346 253 L 340 255 L 325 255 L 324 254 L 319 254 L 311 251 L 308 251 L 307 252 L 307 255 L 318 264 L 326 268 L 329 271 L 337 275 L 344 276 L 346 274 L 352 272 L 367 261 Z M 272 239 L 272 241 L 281 249 L 283 248 L 278 242 Z M 66 158 L 65 159 L 65 166 L 66 168 L 73 174 L 79 174 L 81 172 L 81 166 L 80 164 L 76 160 L 72 158 Z M 258 141 L 258 144 L 257 145 L 257 157 L 259 163 L 261 166 L 268 172 L 274 174 L 278 177 L 279 186 L 284 197 L 296 214 L 307 225 L 312 228 L 321 231 L 332 231 L 344 225 L 353 218 L 359 207 L 360 201 L 363 193 L 364 183 L 365 182 L 365 160 L 364 159 L 363 152 L 358 146 L 354 149 L 352 153 L 348 157 L 337 163 L 335 163 L 329 166 L 316 167 L 315 166 L 311 166 L 310 165 L 306 165 L 300 163 L 291 163 L 283 168 L 275 168 L 270 165 L 267 162 L 264 155 L 264 145 L 265 144 L 265 141 L 264 139 L 261 138 Z M 261 139 L 264 141 L 264 157 L 267 163 L 270 166 L 276 169 L 282 169 L 293 163 L 299 163 L 300 164 L 303 164 L 308 166 L 313 166 L 314 167 L 326 167 L 327 166 L 330 166 L 348 158 L 352 154 L 354 150 L 358 147 L 362 151 L 363 157 L 364 158 L 365 176 L 364 177 L 364 185 L 363 186 L 363 191 L 362 192 L 361 199 L 357 208 L 357 210 L 354 215 L 351 218 L 349 217 L 349 215 L 353 208 L 356 199 L 356 194 L 354 190 L 345 184 L 342 183 L 333 183 L 321 189 L 313 195 L 308 201 L 306 205 L 306 212 L 308 216 L 316 226 L 314 228 L 308 225 L 295 212 L 287 201 L 281 190 L 279 184 L 278 176 L 276 174 L 269 172 L 260 164 L 257 155 L 257 149 L 258 148 L 258 143 Z M 133 142 L 125 138 L 114 138 L 107 141 L 94 154 L 90 161 L 90 163 L 87 169 L 87 173 L 86 174 L 87 179 L 92 186 L 98 189 L 109 189 L 124 183 L 138 174 L 143 167 L 144 159 L 141 151 Z M 252 135 L 245 135 L 242 136 L 233 144 L 231 151 L 236 157 L 244 156 L 250 150 L 251 146 L 255 141 L 255 138 Z M 245 142 L 247 140 L 250 140 L 252 142 L 252 145 L 251 146 L 248 146 Z M 372 130 L 372 134 L 376 139 L 384 143 L 390 145 L 394 145 L 395 146 L 409 145 L 414 143 L 418 139 L 418 131 L 414 126 L 406 122 L 402 122 L 401 121 L 384 121 L 383 122 L 380 122 L 377 124 Z M 154 119 L 152 119 L 148 123 L 143 131 L 143 139 L 146 143 L 149 144 L 154 142 L 158 136 L 158 124 Z M 302 110 L 302 111 L 317 111 L 317 110 L 313 110 L 312 109 Z M 271 103 L 268 107 L 266 112 L 266 121 L 269 126 L 272 126 L 273 127 L 270 131 L 268 136 L 268 139 L 271 145 L 278 152 L 286 155 L 295 155 L 299 153 L 302 153 L 312 148 L 318 140 L 319 137 L 319 132 L 318 130 L 314 126 L 302 122 L 288 122 L 287 123 L 281 123 L 280 120 L 282 117 L 282 107 L 279 102 L 273 102 Z M 269 133 L 275 127 L 281 124 L 290 123 L 291 122 L 300 122 L 301 123 L 305 123 L 311 125 L 318 131 L 319 136 L 315 144 L 308 150 L 304 151 L 301 153 L 289 155 L 288 154 L 284 154 L 279 152 L 271 144 L 269 140 Z M 277 102 L 282 108 L 282 115 L 280 120 L 275 125 L 270 126 L 266 121 L 266 113 L 269 106 L 272 103 Z M 358 95 L 355 96 L 351 102 L 350 105 L 350 115 L 352 120 L 355 123 L 362 124 L 367 120 L 369 114 L 369 107 L 367 101 L 362 96 Z M 356 96 L 361 96 L 363 97 L 366 100 L 369 109 L 369 113 L 367 119 L 363 123 L 360 124 L 356 123 L 352 119 L 350 114 L 351 103 L 353 99 Z M 252 65 L 244 64 L 237 70 L 237 71 L 238 71 L 241 68 L 244 67 L 245 68 L 244 71 L 246 73 L 245 75 L 239 76 L 235 79 L 233 78 L 234 73 L 232 75 L 232 79 L 235 84 L 240 88 L 242 88 L 246 84 L 246 82 L 248 80 L 250 75 L 254 71 L 255 68 Z M 286 64 L 282 62 L 274 66 L 270 70 L 269 72 L 269 76 L 270 77 L 273 77 L 281 71 L 285 70 L 287 67 Z M 286 65 L 286 67 L 283 70 L 278 72 L 274 76 L 271 77 L 269 75 L 270 71 L 275 66 L 281 63 L 284 63 Z M 355 56 L 355 59 L 356 60 L 372 67 L 375 67 L 377 64 L 375 58 L 371 55 L 365 53 L 358 53 Z M 356 56 L 360 53 L 364 53 L 373 57 L 376 61 L 376 64 L 374 66 L 371 66 L 364 62 L 359 61 L 356 58 Z M 425 39 L 419 43 L 416 48 L 416 50 L 426 57 L 434 65 L 437 66 L 439 65 L 445 58 L 446 55 L 445 49 L 440 42 L 431 38 Z M 440 21 L 434 20 L 433 19 L 422 19 L 416 21 L 409 25 L 403 31 L 400 37 L 400 39 L 398 41 L 396 41 L 393 39 L 382 37 L 381 36 L 377 36 L 376 35 L 368 35 L 367 34 L 354 35 L 352 33 L 354 29 L 354 27 L 352 25 L 345 27 L 338 34 L 335 34 L 325 28 L 318 27 L 316 29 L 316 31 L 318 34 L 318 36 L 316 38 L 304 38 L 303 39 L 300 39 L 296 42 L 296 44 L 294 46 L 286 48 L 276 53 L 271 57 L 270 57 L 263 49 L 253 44 L 240 44 L 234 46 L 226 51 L 221 56 L 216 65 L 216 68 L 215 69 L 215 83 L 218 90 L 225 97 L 230 100 L 234 101 L 236 104 L 233 110 L 233 112 L 227 123 L 227 135 L 217 145 L 216 148 L 216 151 L 217 152 L 222 151 L 224 153 L 219 163 L 218 170 L 220 172 L 223 171 L 225 173 L 224 180 L 223 181 L 223 192 L 225 194 L 229 193 L 231 195 L 231 206 L 233 211 L 236 214 L 241 213 L 247 220 L 252 223 L 257 228 L 263 237 L 266 246 L 262 250 L 259 248 L 253 236 L 247 229 L 245 230 L 245 233 L 242 234 L 233 222 L 228 223 L 225 220 L 223 214 L 219 206 L 217 204 L 214 205 L 214 210 L 211 212 L 204 204 L 197 190 L 195 188 L 193 188 L 190 191 L 188 190 L 170 167 L 163 160 L 161 157 L 161 152 L 164 147 L 164 143 L 165 142 L 165 132 L 166 129 L 165 128 L 165 123 L 161 116 L 158 113 L 155 112 L 150 113 L 145 118 L 144 121 L 141 123 L 139 121 L 137 112 L 132 102 L 125 96 L 118 96 L 115 101 L 115 119 L 114 121 L 112 122 L 107 111 L 99 102 L 96 100 L 88 100 L 86 101 L 83 107 L 83 115 L 84 116 L 85 122 L 89 129 L 89 131 L 88 132 L 82 126 L 79 125 L 77 123 L 74 123 L 73 122 L 68 123 L 63 127 L 63 131 L 62 132 L 63 137 L 70 150 L 68 152 L 63 152 L 61 153 L 57 158 L 57 165 L 60 172 L 70 185 L 95 205 L 105 229 L 118 249 L 134 265 L 144 271 L 150 277 L 148 279 L 144 279 L 143 280 L 143 283 L 145 285 L 156 291 L 158 291 L 160 293 L 169 296 L 171 298 L 171 300 L 167 303 L 167 305 L 169 307 L 175 310 L 193 315 L 195 317 L 193 320 L 193 322 L 195 324 L 210 327 L 212 329 L 212 332 L 217 335 L 223 335 L 224 334 L 227 323 L 231 316 L 234 307 L 240 300 L 242 302 L 242 307 L 237 316 L 238 325 L 234 334 L 234 340 L 235 342 L 233 348 L 233 355 L 224 370 L 225 373 L 228 373 L 230 375 L 219 391 L 219 395 L 220 396 L 225 395 L 227 397 L 216 418 L 216 423 L 220 423 L 222 421 L 224 423 L 219 436 L 218 446 L 219 447 L 222 447 L 223 446 L 229 446 L 231 447 L 235 452 L 235 456 L 231 459 L 206 460 L 203 461 L 200 464 L 200 466 L 196 469 L 185 470 L 183 472 L 183 474 L 185 475 L 187 478 L 185 480 L 175 484 L 166 492 L 166 494 L 169 495 L 171 497 L 171 499 L 163 509 L 151 533 L 147 539 L 147 541 L 160 552 L 161 554 L 159 556 L 154 556 L 135 548 L 118 549 L 110 552 L 102 559 L 98 570 L 98 578 L 99 580 L 103 583 L 107 589 L 110 590 L 116 585 L 130 585 L 131 586 L 135 586 L 139 589 L 148 593 L 156 600 L 166 605 L 176 612 L 184 620 L 186 623 L 187 629 L 190 632 L 199 631 L 203 629 L 207 625 L 209 621 L 214 615 L 223 607 L 227 599 L 234 591 L 237 590 L 239 592 L 242 592 L 244 588 L 245 582 L 253 575 L 256 568 L 259 565 L 265 566 L 283 558 L 296 559 L 304 556 L 305 554 L 298 548 L 298 545 L 300 543 L 306 543 L 326 552 L 329 552 L 338 555 L 342 555 L 343 556 L 354 557 L 355 558 L 386 559 L 387 558 L 395 558 L 396 557 L 406 556 L 409 559 L 409 562 L 407 564 L 400 567 L 401 571 L 435 604 L 439 607 L 444 606 L 457 619 L 461 619 L 463 617 L 468 617 L 475 621 L 481 623 L 484 623 L 485 624 L 490 624 L 491 625 L 507 625 L 508 624 L 513 624 L 514 623 L 522 623 L 524 626 L 516 633 L 516 641 L 520 648 L 528 656 L 534 660 L 537 661 L 542 661 L 543 660 L 538 652 L 538 649 L 540 647 L 542 647 L 548 652 L 554 655 L 559 654 L 563 651 L 564 647 L 556 641 L 556 635 L 559 632 L 567 638 L 569 638 L 572 635 L 572 632 L 574 629 L 574 626 L 577 618 L 577 588 L 576 587 L 576 579 L 575 578 L 574 571 L 572 565 L 569 560 L 563 554 L 561 554 L 555 551 L 545 550 L 529 543 L 526 539 L 530 535 L 530 533 L 525 532 L 520 528 L 519 524 L 512 518 L 498 496 L 495 498 L 492 503 L 485 510 L 482 510 L 480 508 L 480 505 L 491 485 L 492 480 L 495 474 L 495 471 L 497 467 L 497 450 L 498 449 L 503 449 L 504 448 L 503 433 L 500 425 L 500 420 L 504 415 L 501 407 L 499 405 L 491 390 L 493 388 L 494 389 L 498 389 L 499 388 L 497 383 L 485 369 L 486 359 L 483 355 L 481 356 L 479 366 L 473 378 L 470 381 L 465 389 L 457 395 L 451 397 L 447 397 L 432 403 L 411 405 L 406 407 L 395 408 L 387 411 L 380 411 L 379 412 L 368 413 L 367 414 L 354 414 L 346 417 L 337 417 L 331 415 L 318 415 L 313 417 L 297 417 L 296 416 L 288 416 L 282 414 L 276 411 L 268 403 L 267 400 L 257 389 L 254 380 L 254 367 L 255 366 L 255 356 L 254 353 L 255 352 L 255 348 L 260 338 L 265 332 L 269 322 L 272 319 L 277 316 L 283 315 L 284 314 L 289 314 L 290 313 L 306 315 L 312 313 L 314 311 L 316 311 L 319 309 L 322 309 L 325 307 L 334 306 L 335 305 L 370 304 L 372 298 L 376 295 L 379 295 L 381 298 L 380 299 L 380 302 L 382 304 L 391 305 L 394 307 L 394 309 L 391 311 L 383 312 L 382 313 L 331 317 L 310 324 L 286 324 L 281 326 L 278 329 L 277 333 L 280 335 L 283 335 L 285 338 L 280 342 L 269 344 L 265 347 L 263 352 L 263 356 L 265 359 L 267 360 L 271 360 L 272 362 L 265 368 L 263 374 L 263 378 L 267 383 L 270 384 L 274 384 L 281 381 L 284 383 L 276 393 L 276 397 L 280 401 L 291 406 L 306 406 L 307 405 L 313 405 L 318 403 L 322 403 L 330 400 L 335 400 L 338 404 L 342 405 L 353 399 L 366 388 L 368 391 L 364 400 L 365 401 L 369 401 L 379 396 L 381 396 L 385 393 L 389 393 L 390 392 L 395 396 L 410 388 L 417 387 L 424 383 L 427 383 L 428 384 L 426 389 L 424 391 L 425 393 L 427 393 L 435 390 L 443 382 L 451 367 L 453 365 L 455 367 L 456 376 L 459 377 L 462 374 L 467 364 L 471 352 L 471 338 L 470 337 L 470 331 L 473 329 L 473 317 L 472 316 L 472 313 L 469 304 L 463 292 L 458 286 L 460 284 L 466 288 L 468 288 L 468 285 L 465 279 L 453 264 L 453 262 L 456 260 L 453 257 L 443 251 L 439 247 L 441 245 L 440 243 L 435 242 L 431 239 L 435 235 L 447 228 L 456 219 L 462 208 L 464 197 L 466 195 L 468 197 L 471 196 L 471 193 L 472 192 L 472 181 L 471 180 L 471 176 L 473 174 L 476 176 L 479 176 L 479 167 L 474 157 L 473 153 L 475 151 L 481 153 L 482 152 L 482 148 L 480 145 L 480 143 L 469 132 L 470 129 L 478 129 L 479 128 L 478 125 L 464 114 L 467 111 L 467 109 L 461 102 L 453 87 L 447 79 L 447 76 L 449 74 L 452 73 L 457 68 L 461 61 L 462 54 L 463 53 L 462 43 L 457 34 L 449 26 Z M 240 587 L 242 586 L 243 589 L 241 590 Z M 136 568 L 140 568 L 144 572 L 143 577 L 141 581 L 138 584 L 135 584 L 132 581 L 132 573 Z M 105 568 L 107 568 L 111 573 L 111 577 L 112 579 L 111 582 L 109 584 L 105 584 L 103 583 L 101 580 L 101 576 L 100 574 L 101 571 Z M 116 563 L 122 562 L 126 566 L 127 571 L 126 572 L 126 577 L 124 579 L 119 579 L 116 576 L 113 567 Z M 439 21 L 448 26 L 458 36 L 462 44 L 462 57 L 459 64 L 452 72 L 446 75 L 445 77 L 453 88 L 459 100 L 466 109 L 463 112 L 463 115 L 474 122 L 477 126 L 476 128 L 468 128 L 467 131 L 479 143 L 481 147 L 481 151 L 480 152 L 478 152 L 475 150 L 472 151 L 473 156 L 479 168 L 479 174 L 478 175 L 476 175 L 473 173 L 470 174 L 471 177 L 471 194 L 469 196 L 465 193 L 463 194 L 463 202 L 458 215 L 449 224 L 445 226 L 443 226 L 442 224 L 441 224 L 442 228 L 436 233 L 432 234 L 429 231 L 424 235 L 423 237 L 417 242 L 417 243 L 420 244 L 424 242 L 430 242 L 431 241 L 435 242 L 436 243 L 436 246 L 439 249 L 449 255 L 452 258 L 451 263 L 459 272 L 467 284 L 465 286 L 460 283 L 456 283 L 457 286 L 466 298 L 466 300 L 470 307 L 472 317 L 473 318 L 473 326 L 472 327 L 469 325 L 468 326 L 469 332 L 470 333 L 470 338 L 471 339 L 471 350 L 468 359 L 466 362 L 466 364 L 463 369 L 463 371 L 459 376 L 456 373 L 455 359 L 453 358 L 449 370 L 445 378 L 436 388 L 429 392 L 426 390 L 432 381 L 432 378 L 433 377 L 432 375 L 423 383 L 419 384 L 416 386 L 411 386 L 397 394 L 395 393 L 396 388 L 393 387 L 380 393 L 375 397 L 367 401 L 365 399 L 367 397 L 367 395 L 369 392 L 369 389 L 370 388 L 369 386 L 366 386 L 354 397 L 344 402 L 342 400 L 341 397 L 338 397 L 334 399 L 327 400 L 315 404 L 297 406 L 296 405 L 289 404 L 280 400 L 277 397 L 277 393 L 284 385 L 285 382 L 282 380 L 275 383 L 268 383 L 264 379 L 264 373 L 265 371 L 276 360 L 275 359 L 267 359 L 264 356 L 264 349 L 270 344 L 273 344 L 277 342 L 281 342 L 285 340 L 285 336 L 279 334 L 278 333 L 278 330 L 282 326 L 287 324 L 302 324 L 303 325 L 308 325 L 332 317 L 354 316 L 355 315 L 366 315 L 367 314 L 373 314 L 374 313 L 383 313 L 384 312 L 393 311 L 395 309 L 395 307 L 392 305 L 383 304 L 381 302 L 381 296 L 380 295 L 375 295 L 373 296 L 371 300 L 366 304 L 342 304 L 341 305 L 333 305 L 332 306 L 327 306 L 318 309 L 308 314 L 287 313 L 286 314 L 282 314 L 276 316 L 271 319 L 268 323 L 265 331 L 258 339 L 254 349 L 255 364 L 253 369 L 253 375 L 254 376 L 255 385 L 258 391 L 265 398 L 269 405 L 274 410 L 281 414 L 287 416 L 300 417 L 301 418 L 314 418 L 319 416 L 332 416 L 338 418 L 344 418 L 345 417 L 350 417 L 358 414 L 371 414 L 372 413 L 377 413 L 378 412 L 391 411 L 394 409 L 397 409 L 398 408 L 406 408 L 407 407 L 413 407 L 419 405 L 433 404 L 438 401 L 457 396 L 462 393 L 468 387 L 469 384 L 473 379 L 478 370 L 481 358 L 484 357 L 486 360 L 486 362 L 484 364 L 484 369 L 496 383 L 497 386 L 495 388 L 494 387 L 490 387 L 490 390 L 494 398 L 497 401 L 497 403 L 499 405 L 502 413 L 502 415 L 499 418 L 499 422 L 500 423 L 500 426 L 503 435 L 503 446 L 501 448 L 500 447 L 497 447 L 497 463 L 496 464 L 496 468 L 492 480 L 490 483 L 490 485 L 479 505 L 479 509 L 481 512 L 485 512 L 494 502 L 495 499 L 498 497 L 500 499 L 510 518 L 519 526 L 520 529 L 523 532 L 527 534 L 527 535 L 525 536 L 525 541 L 531 544 L 533 546 L 535 546 L 544 550 L 554 551 L 560 553 L 570 562 L 575 577 L 576 590 L 577 591 L 577 614 L 576 615 L 576 621 L 572 630 L 571 635 L 569 637 L 567 637 L 561 631 L 557 632 L 555 634 L 555 641 L 560 645 L 563 649 L 559 653 L 551 653 L 544 647 L 538 646 L 537 647 L 537 651 L 541 658 L 539 660 L 536 660 L 529 656 L 522 649 L 517 641 L 516 635 L 526 626 L 526 623 L 525 622 L 515 622 L 514 623 L 508 623 L 507 624 L 491 624 L 490 623 L 480 622 L 466 616 L 461 616 L 460 617 L 455 616 L 445 605 L 439 606 L 434 602 L 429 596 L 419 588 L 403 572 L 401 568 L 403 566 L 408 564 L 410 561 L 410 558 L 407 555 L 405 556 L 399 556 L 398 557 L 392 557 L 391 558 L 361 558 L 360 557 L 351 557 L 346 555 L 341 555 L 340 554 L 336 554 L 332 552 L 329 552 L 326 550 L 320 549 L 318 547 L 316 547 L 314 545 L 310 544 L 307 542 L 301 542 L 300 541 L 296 544 L 296 547 L 303 554 L 301 556 L 296 558 L 283 557 L 267 565 L 265 565 L 263 563 L 259 563 L 255 567 L 255 569 L 250 576 L 248 577 L 244 576 L 242 578 L 240 584 L 231 592 L 229 596 L 226 599 L 225 602 L 222 605 L 220 604 L 217 607 L 209 620 L 201 628 L 197 630 L 194 630 L 190 626 L 189 624 L 189 620 L 183 612 L 180 610 L 178 610 L 172 604 L 168 602 L 163 602 L 161 600 L 158 599 L 146 588 L 142 588 L 140 586 L 140 583 L 144 577 L 144 571 L 141 568 L 139 567 L 133 568 L 131 570 L 131 573 L 129 574 L 128 573 L 128 568 L 127 566 L 122 562 L 117 562 L 111 566 L 105 567 L 101 569 L 100 568 L 100 564 L 102 560 L 109 553 L 115 550 L 125 549 L 126 548 L 134 548 L 154 556 L 160 556 L 161 553 L 154 546 L 148 542 L 148 538 L 164 508 L 172 498 L 171 495 L 168 495 L 166 493 L 173 486 L 180 482 L 186 480 L 188 478 L 188 476 L 184 473 L 186 470 L 198 469 L 200 467 L 200 464 L 203 461 L 206 461 L 207 460 L 234 459 L 236 457 L 236 453 L 232 447 L 227 444 L 222 446 L 220 446 L 218 444 L 219 442 L 219 437 L 224 425 L 224 421 L 222 420 L 220 422 L 217 422 L 216 419 L 227 398 L 227 395 L 226 394 L 221 395 L 219 393 L 221 388 L 230 376 L 230 372 L 227 372 L 225 370 L 225 368 L 232 359 L 234 352 L 242 345 L 246 338 L 245 336 L 243 336 L 238 340 L 236 340 L 234 338 L 234 334 L 238 325 L 238 314 L 240 312 L 240 310 L 242 307 L 243 300 L 242 299 L 239 299 L 236 302 L 231 313 L 229 315 L 223 333 L 220 335 L 217 334 L 214 331 L 214 329 L 212 327 L 206 326 L 205 325 L 201 325 L 196 323 L 195 320 L 197 317 L 195 315 L 186 312 L 183 312 L 177 309 L 174 309 L 169 305 L 169 303 L 173 300 L 173 298 L 171 296 L 169 296 L 163 292 L 158 291 L 147 285 L 144 282 L 146 280 L 151 280 L 152 279 L 152 276 L 149 273 L 136 265 L 120 250 L 105 228 L 95 204 L 76 189 L 64 177 L 60 171 L 57 164 L 57 159 L 58 156 L 61 153 L 69 153 L 71 147 L 79 152 L 85 152 L 88 149 L 88 143 L 87 141 L 78 132 L 74 130 L 71 130 L 68 134 L 68 140 L 66 141 L 63 136 L 63 128 L 68 123 L 76 123 L 82 127 L 90 135 L 94 132 L 97 134 L 103 134 L 106 131 L 107 129 L 106 123 L 103 119 L 102 115 L 96 109 L 91 108 L 88 112 L 87 116 L 86 117 L 84 116 L 83 113 L 83 107 L 84 104 L 88 100 L 95 100 L 97 101 L 106 110 L 113 126 L 114 126 L 116 123 L 118 123 L 123 128 L 126 129 L 129 129 L 132 126 L 133 123 L 132 114 L 128 107 L 123 103 L 119 106 L 117 106 L 115 104 L 116 99 L 119 96 L 125 96 L 131 101 L 136 110 L 138 116 L 138 119 L 139 120 L 139 123 L 140 124 L 143 123 L 146 117 L 150 113 L 153 112 L 157 113 L 162 118 L 165 124 L 165 139 L 164 140 L 164 146 L 162 151 L 160 153 L 162 159 L 189 192 L 191 192 L 194 189 L 199 194 L 204 205 L 210 213 L 212 213 L 214 211 L 214 207 L 217 206 L 222 212 L 222 214 L 226 223 L 228 225 L 231 223 L 233 223 L 239 230 L 240 233 L 244 237 L 245 236 L 245 232 L 248 231 L 254 238 L 259 249 L 262 251 L 264 250 L 266 247 L 266 242 L 263 236 L 256 226 L 248 220 L 244 216 L 243 213 L 241 211 L 238 213 L 236 213 L 233 210 L 231 206 L 231 192 L 229 191 L 227 193 L 225 193 L 223 191 L 223 182 L 224 181 L 224 177 L 226 171 L 225 170 L 221 171 L 219 169 L 219 165 L 225 153 L 225 151 L 224 150 L 217 151 L 216 149 L 219 143 L 224 139 L 228 134 L 227 131 L 227 124 L 235 108 L 236 102 L 234 100 L 227 98 L 222 94 L 216 85 L 215 82 L 215 70 L 220 58 L 228 50 L 235 46 L 241 44 L 252 44 L 262 49 L 268 55 L 268 56 L 271 58 L 279 52 L 290 47 L 295 46 L 299 40 L 302 39 L 317 39 L 318 38 L 317 30 L 319 28 L 326 29 L 333 34 L 338 35 L 346 27 L 350 25 L 353 27 L 353 31 L 352 32 L 352 35 L 353 36 L 356 35 L 373 35 L 379 37 L 384 37 L 399 42 L 403 32 L 413 23 L 425 19 L 431 19 L 432 20 Z M 448 14 L 446 14 L 440 11 L 436 11 L 435 10 L 422 10 L 421 11 L 416 11 L 404 17 L 400 20 L 392 29 L 389 29 L 385 27 L 380 27 L 379 26 L 363 26 L 361 24 L 360 21 L 354 16 L 348 16 L 342 18 L 335 24 L 325 19 L 317 18 L 311 21 L 309 25 L 309 28 L 306 31 L 300 31 L 297 32 L 275 44 L 272 44 L 260 36 L 257 36 L 252 34 L 244 34 L 243 35 L 235 36 L 230 39 L 228 39 L 217 46 L 209 57 L 205 69 L 205 83 L 208 92 L 212 98 L 223 108 L 223 111 L 217 123 L 217 126 L 216 127 L 217 134 L 209 142 L 207 145 L 207 148 L 206 149 L 207 151 L 207 155 L 211 159 L 211 163 L 209 168 L 209 175 L 214 181 L 214 191 L 212 193 L 208 193 L 206 191 L 199 178 L 197 177 L 191 177 L 171 154 L 171 151 L 173 148 L 173 145 L 174 144 L 175 125 L 174 124 L 174 120 L 170 112 L 163 105 L 158 103 L 150 103 L 147 105 L 144 105 L 142 103 L 141 99 L 139 97 L 138 94 L 134 90 L 127 86 L 117 86 L 113 88 L 106 95 L 102 92 L 97 90 L 86 90 L 82 92 L 75 100 L 74 103 L 74 111 L 72 113 L 66 113 L 61 115 L 56 121 L 53 127 L 53 136 L 56 144 L 49 152 L 47 157 L 47 164 L 48 165 L 48 169 L 50 172 L 50 174 L 58 186 L 69 197 L 81 206 L 87 212 L 90 222 L 103 246 L 111 257 L 120 266 L 130 274 L 131 276 L 131 281 L 133 286 L 138 291 L 144 295 L 153 299 L 156 302 L 157 307 L 162 313 L 165 314 L 167 316 L 179 320 L 186 329 L 197 333 L 205 339 L 211 341 L 217 345 L 219 345 L 223 349 L 219 361 L 216 366 L 216 370 L 215 371 L 216 380 L 214 384 L 211 387 L 211 389 L 209 392 L 209 397 L 210 400 L 212 402 L 212 404 L 207 416 L 207 429 L 210 434 L 210 441 L 208 447 L 204 451 L 195 455 L 190 456 L 188 458 L 180 462 L 175 467 L 172 475 L 169 478 L 165 480 L 158 487 L 156 491 L 157 501 L 147 514 L 142 524 L 139 534 L 136 538 L 123 538 L 122 539 L 117 539 L 104 544 L 94 553 L 89 562 L 89 565 L 88 566 L 88 574 L 89 575 L 89 578 L 96 592 L 110 605 L 113 606 L 116 609 L 122 612 L 145 628 L 153 632 L 155 632 L 160 635 L 162 635 L 165 637 L 180 642 L 185 642 L 186 643 L 199 643 L 200 642 L 203 642 L 215 634 L 220 627 L 228 619 L 232 617 L 238 612 L 241 605 L 258 588 L 261 582 L 266 577 L 270 576 L 282 570 L 294 570 L 306 566 L 317 560 L 322 560 L 330 563 L 333 563 L 338 565 L 342 565 L 343 566 L 348 566 L 349 567 L 359 567 L 360 568 L 384 568 L 387 569 L 396 580 L 422 605 L 438 616 L 448 621 L 458 629 L 462 631 L 466 631 L 470 629 L 474 629 L 491 635 L 505 635 L 507 637 L 508 644 L 515 658 L 526 667 L 535 671 L 548 671 L 561 666 L 574 654 L 579 645 L 579 643 L 581 640 L 584 631 L 584 628 L 586 623 L 586 619 L 587 618 L 587 611 L 588 610 L 588 584 L 587 583 L 587 579 L 586 578 L 586 574 L 585 573 L 584 567 L 577 554 L 570 547 L 562 543 L 548 542 L 544 538 L 537 527 L 531 521 L 530 521 L 519 509 L 513 501 L 504 485 L 504 478 L 506 474 L 507 465 L 513 452 L 514 442 L 515 441 L 514 417 L 513 416 L 512 409 L 508 402 L 508 387 L 504 378 L 500 372 L 496 355 L 486 334 L 483 309 L 482 308 L 482 305 L 480 302 L 480 298 L 481 297 L 481 289 L 473 273 L 473 270 L 470 263 L 460 252 L 454 241 L 454 238 L 459 233 L 462 227 L 468 220 L 469 217 L 471 215 L 473 208 L 478 203 L 481 196 L 481 189 L 487 183 L 489 179 L 488 161 L 492 156 L 492 149 L 489 142 L 486 138 L 486 135 L 488 132 L 488 123 L 477 113 L 476 107 L 474 103 L 468 95 L 460 81 L 460 78 L 465 74 L 469 68 L 472 60 L 473 50 L 472 49 L 471 40 L 465 28 L 455 18 Z M 449 15 L 451 17 L 454 18 L 465 29 L 470 38 L 472 44 L 472 59 L 470 65 L 465 73 L 459 78 L 459 81 L 461 83 L 468 96 L 474 104 L 477 113 L 483 118 L 488 124 L 488 131 L 486 134 L 486 138 L 492 150 L 492 155 L 487 161 L 487 164 L 489 169 L 489 178 L 488 181 L 481 187 L 481 195 L 479 201 L 473 207 L 472 211 L 469 216 L 469 218 L 462 226 L 459 232 L 453 237 L 453 240 L 459 251 L 471 265 L 473 271 L 473 274 L 481 290 L 480 303 L 483 310 L 484 323 L 485 324 L 485 331 L 487 337 L 490 342 L 490 344 L 493 349 L 493 351 L 497 358 L 500 373 L 505 380 L 508 387 L 508 397 L 507 400 L 513 413 L 515 439 L 514 440 L 513 451 L 508 461 L 507 468 L 506 469 L 506 473 L 503 479 L 504 486 L 507 490 L 508 494 L 513 502 L 518 507 L 525 517 L 536 527 L 538 531 L 542 535 L 544 540 L 546 542 L 549 542 L 550 543 L 552 542 L 554 543 L 561 543 L 568 546 L 573 550 L 578 556 L 582 563 L 582 565 L 585 571 L 585 575 L 587 580 L 587 587 L 588 588 L 588 608 L 587 609 L 587 616 L 586 617 L 585 627 L 580 642 L 578 645 L 578 647 L 575 652 L 566 662 L 554 669 L 547 670 L 546 671 L 538 671 L 537 670 L 531 669 L 524 665 L 515 657 L 508 643 L 507 636 L 505 634 L 490 634 L 472 628 L 470 628 L 465 631 L 459 629 L 455 625 L 431 611 L 418 601 L 393 576 L 388 569 L 386 568 L 363 568 L 362 567 L 344 566 L 343 565 L 339 565 L 338 564 L 331 563 L 323 560 L 316 560 L 307 565 L 295 569 L 285 569 L 284 570 L 281 570 L 272 575 L 270 575 L 264 578 L 261 581 L 257 589 L 241 604 L 238 610 L 234 614 L 229 617 L 213 635 L 202 642 L 199 643 L 181 642 L 163 636 L 156 632 L 154 632 L 138 623 L 135 620 L 132 619 L 129 616 L 115 608 L 107 602 L 93 587 L 88 574 L 88 566 L 92 556 L 95 552 L 103 545 L 111 541 L 117 540 L 118 539 L 137 538 L 141 529 L 141 527 L 144 522 L 144 520 L 146 518 L 150 510 L 157 502 L 156 491 L 158 487 L 173 474 L 174 469 L 179 463 L 189 457 L 191 457 L 196 454 L 199 454 L 205 451 L 208 448 L 210 443 L 210 433 L 207 428 L 207 417 L 210 408 L 212 405 L 212 401 L 209 397 L 209 393 L 211 388 L 216 381 L 216 367 L 221 357 L 223 351 L 223 347 L 210 340 L 204 338 L 198 333 L 187 329 L 183 325 L 182 322 L 180 320 L 164 314 L 158 308 L 156 301 L 154 299 L 142 293 L 133 285 L 131 280 L 131 275 L 110 255 L 101 242 L 94 228 L 92 226 L 87 211 L 82 206 L 71 198 L 58 185 L 53 178 L 48 168 L 48 164 L 47 163 L 48 155 L 50 151 L 56 145 L 56 142 L 53 135 L 53 128 L 57 120 L 62 115 L 67 113 L 73 113 L 74 112 L 74 104 L 75 101 L 84 91 L 87 90 L 96 90 L 103 93 L 107 96 L 114 88 L 118 86 L 126 86 L 132 89 L 139 96 L 144 106 L 146 106 L 151 103 L 158 103 L 165 107 L 168 110 L 173 118 L 174 124 L 175 125 L 174 143 L 171 151 L 172 156 L 179 163 L 186 173 L 190 177 L 197 177 L 201 182 L 208 194 L 211 194 L 214 192 L 214 180 L 209 174 L 209 169 L 210 168 L 210 165 L 212 162 L 212 158 L 207 154 L 207 146 L 217 134 L 217 124 L 221 115 L 224 111 L 224 108 L 211 96 L 207 89 L 207 86 L 205 82 L 205 69 L 210 56 L 220 44 L 236 36 L 249 34 L 250 35 L 255 35 L 261 37 L 263 39 L 268 41 L 271 44 L 275 45 L 282 40 L 286 39 L 288 37 L 298 32 L 308 31 L 309 30 L 310 23 L 315 19 L 324 19 L 333 24 L 337 24 L 345 17 L 349 17 L 351 16 L 357 18 L 362 26 L 377 26 L 378 27 L 383 27 L 392 30 L 402 19 L 414 12 L 423 11 L 424 10 L 433 10 L 434 11 L 438 11 L 447 15 Z" fill="#B1B1B1" fill-rule="evenodd"/><path d="M 140 569 L 136 569 L 133 573 L 133 581 L 135 583 L 138 583 L 140 581 L 142 577 L 143 572 Z M 116 564 L 114 566 L 114 567 L 115 568 L 115 571 L 116 572 L 117 576 L 119 578 L 124 578 L 125 577 L 125 572 L 126 571 L 126 568 L 125 566 L 122 563 Z M 260 141 L 259 143 L 259 148 L 258 149 L 258 155 L 259 156 L 259 160 L 261 164 L 269 171 L 276 173 L 279 176 L 279 178 L 280 179 L 280 184 L 281 185 L 282 190 L 285 196 L 287 198 L 288 201 L 296 211 L 296 212 L 308 224 L 314 227 L 315 226 L 315 225 L 307 216 L 305 212 L 305 205 L 307 201 L 313 194 L 314 194 L 321 188 L 333 182 L 342 182 L 343 183 L 345 183 L 349 185 L 355 190 L 357 194 L 357 199 L 356 200 L 356 203 L 354 206 L 354 208 L 350 215 L 350 217 L 351 217 L 353 215 L 356 210 L 356 208 L 358 205 L 358 203 L 360 199 L 360 196 L 361 195 L 361 192 L 362 191 L 362 186 L 363 185 L 363 177 L 364 176 L 364 166 L 363 165 L 363 158 L 362 157 L 361 151 L 358 148 L 357 148 L 355 150 L 353 154 L 348 159 L 336 165 L 334 165 L 330 167 L 327 167 L 326 168 L 314 168 L 313 167 L 308 167 L 307 166 L 304 166 L 303 165 L 300 165 L 299 164 L 293 164 L 282 170 L 276 170 L 270 167 L 266 163 L 263 157 L 263 141 L 262 140 Z M 270 133 L 270 140 L 272 144 L 279 151 L 283 152 L 284 153 L 288 153 L 289 154 L 301 152 L 304 150 L 308 149 L 314 144 L 318 136 L 318 133 L 314 128 L 313 128 L 311 126 L 309 126 L 305 124 L 301 124 L 300 123 L 291 123 L 290 124 L 285 124 L 284 125 L 281 125 L 275 128 Z M 277 103 L 274 103 L 272 104 L 270 106 L 267 113 L 267 121 L 270 125 L 272 124 L 275 124 L 279 120 L 280 116 L 281 115 L 281 108 Z M 356 97 L 354 99 L 352 103 L 352 106 L 351 107 L 351 114 L 352 115 L 353 119 L 356 122 L 360 123 L 361 122 L 363 122 L 366 119 L 367 117 L 367 114 L 368 113 L 368 109 L 367 108 L 367 104 L 365 100 L 361 97 Z M 285 65 L 284 64 L 281 64 L 275 67 L 271 71 L 270 75 L 271 76 L 274 75 L 278 71 L 283 69 L 285 67 Z M 357 56 L 357 58 L 359 60 L 364 61 L 371 65 L 374 65 L 375 64 L 375 61 L 374 59 L 369 56 L 367 56 L 364 54 L 360 54 Z M 449 16 L 447 16 L 444 14 L 442 14 L 438 12 L 434 12 L 433 11 L 424 11 L 423 12 L 418 12 L 417 13 L 414 13 L 402 20 L 392 31 L 388 30 L 387 29 L 384 29 L 383 28 L 378 28 L 377 27 L 362 27 L 360 25 L 357 19 L 355 18 L 352 18 L 351 17 L 349 18 L 345 18 L 337 25 L 333 25 L 324 20 L 315 20 L 311 23 L 311 25 L 310 26 L 310 30 L 308 32 L 302 32 L 301 33 L 298 33 L 288 38 L 286 40 L 282 41 L 275 46 L 271 45 L 268 42 L 263 40 L 261 38 L 259 38 L 255 36 L 250 36 L 249 35 L 236 37 L 220 45 L 216 49 L 216 50 L 211 56 L 208 62 L 207 68 L 206 69 L 206 82 L 208 86 L 208 89 L 212 96 L 225 108 L 225 111 L 222 115 L 218 124 L 218 134 L 208 146 L 208 154 L 213 158 L 213 162 L 211 165 L 211 168 L 210 169 L 210 174 L 215 180 L 215 192 L 211 195 L 208 195 L 206 193 L 197 178 L 190 178 L 185 173 L 185 172 L 178 164 L 178 163 L 171 156 L 170 154 L 170 151 L 171 150 L 172 144 L 173 143 L 173 136 L 174 135 L 174 125 L 173 124 L 172 118 L 167 110 L 165 108 L 158 104 L 151 104 L 146 107 L 144 107 L 142 105 L 138 96 L 132 90 L 126 87 L 118 87 L 114 89 L 107 97 L 106 97 L 103 94 L 96 91 L 87 91 L 86 92 L 84 92 L 77 99 L 76 101 L 76 103 L 75 104 L 75 112 L 73 114 L 67 114 L 66 115 L 62 116 L 58 120 L 55 125 L 55 127 L 54 128 L 54 135 L 57 142 L 57 145 L 51 151 L 49 155 L 49 158 L 48 159 L 49 168 L 54 178 L 59 184 L 59 185 L 71 197 L 72 197 L 77 202 L 82 205 L 88 211 L 88 213 L 90 216 L 90 218 L 93 224 L 93 226 L 95 228 L 102 242 L 104 244 L 108 251 L 111 254 L 111 255 L 132 275 L 132 280 L 133 281 L 134 285 L 142 292 L 154 298 L 157 301 L 159 308 L 164 313 L 168 315 L 170 315 L 173 317 L 180 319 L 187 328 L 198 332 L 204 337 L 208 339 L 210 339 L 222 345 L 224 347 L 224 351 L 223 352 L 222 357 L 217 367 L 217 381 L 212 388 L 211 392 L 210 393 L 210 397 L 213 401 L 213 405 L 211 408 L 211 410 L 208 417 L 208 428 L 211 433 L 211 443 L 210 444 L 209 448 L 205 452 L 199 455 L 196 455 L 191 458 L 189 458 L 179 464 L 175 469 L 174 474 L 168 480 L 164 482 L 159 487 L 157 491 L 158 502 L 151 510 L 147 518 L 145 520 L 145 522 L 140 532 L 139 537 L 137 539 L 118 540 L 117 541 L 111 542 L 103 546 L 101 548 L 100 548 L 93 556 L 90 562 L 90 565 L 89 566 L 89 574 L 90 575 L 90 578 L 96 590 L 107 601 L 108 601 L 115 607 L 123 611 L 132 618 L 135 619 L 138 622 L 141 623 L 146 627 L 154 631 L 156 631 L 163 635 L 165 635 L 166 636 L 168 636 L 169 637 L 171 637 L 172 638 L 174 638 L 181 641 L 187 641 L 188 642 L 199 642 L 200 641 L 202 641 L 213 634 L 222 624 L 222 623 L 229 616 L 230 616 L 237 610 L 240 604 L 256 589 L 260 581 L 264 577 L 270 574 L 272 574 L 281 569 L 284 569 L 285 568 L 295 568 L 296 567 L 302 566 L 305 564 L 307 564 L 316 559 L 323 559 L 324 560 L 327 560 L 331 562 L 334 562 L 335 563 L 338 563 L 339 564 L 343 564 L 344 565 L 351 565 L 352 566 L 362 566 L 363 567 L 386 567 L 388 568 L 391 571 L 394 576 L 418 600 L 419 600 L 424 605 L 425 605 L 431 610 L 434 611 L 442 617 L 449 620 L 451 622 L 455 624 L 459 628 L 463 630 L 465 630 L 470 627 L 472 627 L 473 628 L 476 628 L 477 629 L 479 629 L 483 631 L 486 631 L 490 633 L 505 633 L 508 636 L 509 643 L 516 657 L 524 664 L 531 668 L 537 669 L 538 670 L 546 670 L 547 669 L 551 669 L 552 668 L 554 668 L 562 664 L 565 661 L 566 661 L 574 652 L 577 647 L 577 645 L 579 642 L 579 640 L 580 639 L 580 637 L 581 636 L 581 634 L 584 627 L 585 617 L 586 616 L 586 609 L 587 608 L 587 588 L 586 587 L 586 580 L 585 579 L 585 576 L 584 575 L 584 571 L 579 559 L 573 552 L 573 551 L 572 551 L 568 547 L 561 544 L 554 544 L 553 543 L 550 544 L 549 543 L 546 543 L 543 540 L 541 535 L 537 531 L 535 527 L 524 517 L 524 516 L 520 512 L 517 507 L 512 502 L 512 501 L 508 496 L 506 490 L 503 486 L 503 484 L 502 483 L 502 479 L 505 473 L 505 469 L 506 468 L 506 464 L 507 463 L 507 461 L 512 451 L 512 448 L 513 447 L 513 440 L 514 439 L 514 434 L 513 433 L 513 418 L 512 417 L 512 413 L 506 400 L 506 398 L 507 397 L 507 387 L 504 380 L 499 373 L 496 358 L 492 351 L 492 349 L 489 344 L 489 342 L 486 337 L 486 335 L 484 331 L 484 324 L 483 323 L 482 310 L 479 303 L 479 296 L 480 295 L 480 290 L 479 289 L 479 287 L 477 284 L 477 282 L 475 280 L 472 274 L 472 271 L 471 270 L 470 265 L 458 251 L 457 248 L 455 246 L 452 240 L 452 237 L 458 232 L 461 226 L 468 218 L 468 216 L 471 211 L 472 207 L 478 201 L 479 199 L 479 196 L 480 195 L 480 187 L 487 181 L 487 179 L 488 178 L 488 169 L 487 168 L 486 161 L 491 155 L 491 150 L 485 138 L 485 134 L 487 131 L 487 124 L 486 122 L 476 113 L 475 111 L 475 108 L 473 104 L 467 96 L 466 93 L 464 91 L 463 88 L 458 81 L 458 78 L 463 73 L 464 73 L 469 65 L 469 63 L 471 59 L 471 44 L 470 43 L 469 38 L 464 29 L 454 19 L 451 18 Z M 440 20 L 449 25 L 458 34 L 463 43 L 464 53 L 463 54 L 463 58 L 462 59 L 462 61 L 458 68 L 452 74 L 448 76 L 448 79 L 454 87 L 460 99 L 468 109 L 468 111 L 465 114 L 479 125 L 480 128 L 478 130 L 470 130 L 470 132 L 481 143 L 481 145 L 483 148 L 483 152 L 481 154 L 479 154 L 476 152 L 474 153 L 475 157 L 480 167 L 480 176 L 479 177 L 476 177 L 474 175 L 472 176 L 472 180 L 473 181 L 473 192 L 472 193 L 472 196 L 470 198 L 468 198 L 466 196 L 464 199 L 464 204 L 463 205 L 463 208 L 461 211 L 461 213 L 459 215 L 457 219 L 447 229 L 446 229 L 441 233 L 438 234 L 432 239 L 435 241 L 440 242 L 442 244 L 442 245 L 440 247 L 447 253 L 453 256 L 457 260 L 455 262 L 454 262 L 454 264 L 458 269 L 458 270 L 466 279 L 469 285 L 469 288 L 468 289 L 466 289 L 464 287 L 460 285 L 459 286 L 464 292 L 470 304 L 470 306 L 473 313 L 473 316 L 474 317 L 474 329 L 472 331 L 471 331 L 471 337 L 472 338 L 472 352 L 471 353 L 470 359 L 468 362 L 468 364 L 463 374 L 459 378 L 457 378 L 455 376 L 455 373 L 454 372 L 454 367 L 453 366 L 444 382 L 435 391 L 431 393 L 428 393 L 427 394 L 425 394 L 423 392 L 427 385 L 427 384 L 424 384 L 417 388 L 410 389 L 395 397 L 394 397 L 392 395 L 392 394 L 390 393 L 389 394 L 385 394 L 383 396 L 379 397 L 369 402 L 365 402 L 363 400 L 367 391 L 366 389 L 353 400 L 348 402 L 346 404 L 342 406 L 338 405 L 335 401 L 330 401 L 329 402 L 326 402 L 322 404 L 318 404 L 317 405 L 314 405 L 313 406 L 307 406 L 306 407 L 291 407 L 285 404 L 283 404 L 281 402 L 280 402 L 275 397 L 275 393 L 283 383 L 281 382 L 274 385 L 270 385 L 269 384 L 267 384 L 262 378 L 262 374 L 263 373 L 264 368 L 271 362 L 271 361 L 267 361 L 265 360 L 262 356 L 262 352 L 263 351 L 264 347 L 269 343 L 280 341 L 284 338 L 283 336 L 280 336 L 276 333 L 277 329 L 281 325 L 285 324 L 286 323 L 310 323 L 311 322 L 314 322 L 320 319 L 326 318 L 327 317 L 330 317 L 331 316 L 338 316 L 339 315 L 351 315 L 352 314 L 364 314 L 365 313 L 373 313 L 374 312 L 382 312 L 383 311 L 387 311 L 388 310 L 391 310 L 393 309 L 393 307 L 391 306 L 382 305 L 379 302 L 379 299 L 380 298 L 379 296 L 376 296 L 373 298 L 372 300 L 372 303 L 370 305 L 348 305 L 347 306 L 335 306 L 334 307 L 329 307 L 328 308 L 325 308 L 322 310 L 319 310 L 316 312 L 314 312 L 312 314 L 310 314 L 306 316 L 290 314 L 289 315 L 284 315 L 283 316 L 280 316 L 272 320 L 270 322 L 266 332 L 261 338 L 256 348 L 256 352 L 255 353 L 255 355 L 256 356 L 255 380 L 256 381 L 257 387 L 260 392 L 268 400 L 269 403 L 276 410 L 282 413 L 284 413 L 288 415 L 296 415 L 297 416 L 313 416 L 314 415 L 317 415 L 318 414 L 331 414 L 332 415 L 336 415 L 337 416 L 346 416 L 347 415 L 350 415 L 354 413 L 367 413 L 368 412 L 374 412 L 375 411 L 379 411 L 380 410 L 387 410 L 388 409 L 391 409 L 395 407 L 406 406 L 407 405 L 410 405 L 411 404 L 432 402 L 433 401 L 438 400 L 441 398 L 443 398 L 447 396 L 451 396 L 452 395 L 457 394 L 464 389 L 469 381 L 472 378 L 478 366 L 480 356 L 482 354 L 483 354 L 487 359 L 487 365 L 486 366 L 486 369 L 498 383 L 499 387 L 500 388 L 498 390 L 494 390 L 493 389 L 492 390 L 496 398 L 498 400 L 500 405 L 502 407 L 504 414 L 505 415 L 505 416 L 501 420 L 501 425 L 503 429 L 503 432 L 504 433 L 504 438 L 505 439 L 505 448 L 503 450 L 498 450 L 498 467 L 496 471 L 496 474 L 493 480 L 492 485 L 481 505 L 481 508 L 482 509 L 485 509 L 491 503 L 494 498 L 497 495 L 498 495 L 501 498 L 503 503 L 505 505 L 508 511 L 511 514 L 513 518 L 520 524 L 521 528 L 523 530 L 530 532 L 531 533 L 531 535 L 527 539 L 527 540 L 529 542 L 533 544 L 535 544 L 545 549 L 555 550 L 561 553 L 563 553 L 570 560 L 573 565 L 573 567 L 575 571 L 575 574 L 576 575 L 576 578 L 577 579 L 577 587 L 578 588 L 578 618 L 577 619 L 577 622 L 575 626 L 575 629 L 573 632 L 573 635 L 569 639 L 567 639 L 560 633 L 559 633 L 557 635 L 557 641 L 559 643 L 562 644 L 565 647 L 564 651 L 561 654 L 554 656 L 553 655 L 551 655 L 542 648 L 540 648 L 539 649 L 539 652 L 544 660 L 542 662 L 537 662 L 536 661 L 534 661 L 532 659 L 528 657 L 519 648 L 515 641 L 515 633 L 523 626 L 522 624 L 514 624 L 513 625 L 508 625 L 507 626 L 491 626 L 490 625 L 485 625 L 484 624 L 481 624 L 480 623 L 475 622 L 468 618 L 463 618 L 461 620 L 457 620 L 444 607 L 442 608 L 439 608 L 436 605 L 435 605 L 400 571 L 399 567 L 401 565 L 403 565 L 408 562 L 408 559 L 406 557 L 403 557 L 402 558 L 396 558 L 395 559 L 387 559 L 386 560 L 355 559 L 354 558 L 343 557 L 342 556 L 338 556 L 337 555 L 326 553 L 325 552 L 320 551 L 318 549 L 316 549 L 306 544 L 300 544 L 299 545 L 299 548 L 306 554 L 306 555 L 302 558 L 300 558 L 296 560 L 288 560 L 287 559 L 283 559 L 282 560 L 277 561 L 265 567 L 259 566 L 257 568 L 254 575 L 246 582 L 244 591 L 242 593 L 239 593 L 237 591 L 234 592 L 228 599 L 224 607 L 215 615 L 215 616 L 210 621 L 208 625 L 203 630 L 199 632 L 190 633 L 186 629 L 186 626 L 183 620 L 176 613 L 175 613 L 166 606 L 156 601 L 148 594 L 139 590 L 137 588 L 135 587 L 131 587 L 130 586 L 116 586 L 110 591 L 107 590 L 102 584 L 102 583 L 103 582 L 105 583 L 109 583 L 110 582 L 110 580 L 111 579 L 110 577 L 110 573 L 107 569 L 105 569 L 102 571 L 101 575 L 102 576 L 102 580 L 103 582 L 101 583 L 97 578 L 97 570 L 98 569 L 98 566 L 101 559 L 110 551 L 114 549 L 117 549 L 118 548 L 124 548 L 125 547 L 135 547 L 136 548 L 139 548 L 144 551 L 146 551 L 151 554 L 153 554 L 154 555 L 159 555 L 160 554 L 159 552 L 156 549 L 151 546 L 146 541 L 146 539 L 148 535 L 150 533 L 162 509 L 164 507 L 166 503 L 170 499 L 170 497 L 169 496 L 167 496 L 165 494 L 165 492 L 172 485 L 186 478 L 186 477 L 182 474 L 182 472 L 185 469 L 196 468 L 199 466 L 199 464 L 203 460 L 205 460 L 206 459 L 222 459 L 223 458 L 231 458 L 234 456 L 234 452 L 231 448 L 229 447 L 223 447 L 222 448 L 219 448 L 217 446 L 218 436 L 219 435 L 219 433 L 220 432 L 220 430 L 223 423 L 222 422 L 220 424 L 216 424 L 215 423 L 215 418 L 218 413 L 218 411 L 220 409 L 226 397 L 225 396 L 220 397 L 218 395 L 218 391 L 220 387 L 223 384 L 223 383 L 226 380 L 229 375 L 228 374 L 225 374 L 223 372 L 223 370 L 232 355 L 232 348 L 233 347 L 233 343 L 234 342 L 233 340 L 233 334 L 237 325 L 236 316 L 241 307 L 241 302 L 240 301 L 235 307 L 234 311 L 232 314 L 232 316 L 228 323 L 225 334 L 223 336 L 217 336 L 213 334 L 211 332 L 211 329 L 210 328 L 208 328 L 207 327 L 202 327 L 201 326 L 195 325 L 192 322 L 192 320 L 194 318 L 193 316 L 187 315 L 186 314 L 175 311 L 169 308 L 166 305 L 166 303 L 169 300 L 170 300 L 170 298 L 169 297 L 167 297 L 162 294 L 160 294 L 158 292 L 156 292 L 150 289 L 148 287 L 145 286 L 142 283 L 142 280 L 144 278 L 148 278 L 149 277 L 144 272 L 134 266 L 117 249 L 117 248 L 110 239 L 106 231 L 104 229 L 101 223 L 101 221 L 99 218 L 98 213 L 94 205 L 91 202 L 88 201 L 85 198 L 84 198 L 77 191 L 76 191 L 71 186 L 70 186 L 66 182 L 66 181 L 59 172 L 56 165 L 56 158 L 61 152 L 63 151 L 68 151 L 69 150 L 62 137 L 62 134 L 61 133 L 62 131 L 62 127 L 66 123 L 73 121 L 74 122 L 77 122 L 79 124 L 82 125 L 88 131 L 88 129 L 84 122 L 83 116 L 82 115 L 82 107 L 83 106 L 83 104 L 84 102 L 88 99 L 96 99 L 98 101 L 99 101 L 108 111 L 111 117 L 112 121 L 113 121 L 114 119 L 114 101 L 116 97 L 118 95 L 125 95 L 127 96 L 133 102 L 134 105 L 136 107 L 136 109 L 138 112 L 139 118 L 141 122 L 143 121 L 144 118 L 150 112 L 152 111 L 158 112 L 164 119 L 166 123 L 166 128 L 167 129 L 167 131 L 166 132 L 166 142 L 165 143 L 165 147 L 162 152 L 162 157 L 164 159 L 164 160 L 171 167 L 171 168 L 175 172 L 175 173 L 179 177 L 179 178 L 188 189 L 190 190 L 193 187 L 195 187 L 198 190 L 205 204 L 211 211 L 213 210 L 213 205 L 215 203 L 217 203 L 220 206 L 226 220 L 228 222 L 230 221 L 233 221 L 236 224 L 236 225 L 239 228 L 242 233 L 244 233 L 244 230 L 246 228 L 247 228 L 252 233 L 255 239 L 257 241 L 258 245 L 260 247 L 260 248 L 262 249 L 265 246 L 265 244 L 262 237 L 260 235 L 256 228 L 252 224 L 247 221 L 241 214 L 236 215 L 232 211 L 231 207 L 230 206 L 230 195 L 229 194 L 225 195 L 222 192 L 222 181 L 223 180 L 223 176 L 224 175 L 224 173 L 223 172 L 222 173 L 220 173 L 217 170 L 218 163 L 223 153 L 222 152 L 220 153 L 217 153 L 215 151 L 215 148 L 216 147 L 216 145 L 226 135 L 226 123 L 232 112 L 232 110 L 235 104 L 234 102 L 230 101 L 225 98 L 217 90 L 214 83 L 214 69 L 215 68 L 215 65 L 220 56 L 226 50 L 227 50 L 232 46 L 239 44 L 240 43 L 253 43 L 254 44 L 256 44 L 263 48 L 269 54 L 269 55 L 271 56 L 276 52 L 286 47 L 294 45 L 295 44 L 295 42 L 300 38 L 303 38 L 304 37 L 316 37 L 317 36 L 317 34 L 315 31 L 315 29 L 318 26 L 325 27 L 335 33 L 338 33 L 345 26 L 352 24 L 355 27 L 355 29 L 353 33 L 354 34 L 358 34 L 359 33 L 376 34 L 377 35 L 381 35 L 382 36 L 385 36 L 386 37 L 389 37 L 390 38 L 393 38 L 396 40 L 398 40 L 402 31 L 409 24 L 416 20 L 418 20 L 422 18 L 433 18 L 434 19 Z" fill="#010101" fill-rule="evenodd"/></svg>