<svg xmlns="http://www.w3.org/2000/svg" viewBox="0 0 653 704" shape-rendering="geometricPrecision"><title>intro frame 087</title><path d="M 469 512 L 458 521 L 455 521 L 452 523 L 445 530 L 441 527 L 433 537 L 429 536 L 421 545 L 416 544 L 411 550 L 404 556 L 390 578 L 388 590 L 391 592 L 392 595 L 391 597 L 391 608 L 393 608 L 396 612 L 395 614 L 395 628 L 399 627 L 402 630 L 402 636 L 403 637 L 403 646 L 400 655 L 400 666 L 402 671 L 408 676 L 417 679 L 420 679 L 421 680 L 425 680 L 426 681 L 436 681 L 437 680 L 436 678 L 436 665 L 440 659 L 445 659 L 447 661 L 449 666 L 449 681 L 450 682 L 468 682 L 469 681 L 469 675 L 468 674 L 468 660 L 470 658 L 475 658 L 479 662 L 481 666 L 481 669 L 482 670 L 482 680 L 483 681 L 484 680 L 491 680 L 495 678 L 495 673 L 496 671 L 494 666 L 494 658 L 497 655 L 501 656 L 505 660 L 507 664 L 508 675 L 510 676 L 515 670 L 516 667 L 516 661 L 515 660 L 515 655 L 512 649 L 505 643 L 503 643 L 495 638 L 488 638 L 486 640 L 459 639 L 458 640 L 451 640 L 450 641 L 447 641 L 446 640 L 435 640 L 434 639 L 435 637 L 438 637 L 441 635 L 451 634 L 452 633 L 458 633 L 459 632 L 480 632 L 484 634 L 481 627 L 481 621 L 483 615 L 485 613 L 488 614 L 490 618 L 490 623 L 491 623 L 492 621 L 491 617 L 487 613 L 487 610 L 484 605 L 485 602 L 489 605 L 491 605 L 492 604 L 492 601 L 485 595 L 481 594 L 478 591 L 474 589 L 465 580 L 465 578 L 468 577 L 484 584 L 487 584 L 488 583 L 487 580 L 474 565 L 474 563 L 477 562 L 486 568 L 488 568 L 486 560 L 481 554 L 478 552 L 474 551 L 472 549 L 473 546 L 476 547 L 483 547 L 484 546 L 483 544 L 476 538 L 478 535 L 482 536 L 485 538 L 486 536 L 478 528 L 477 525 L 475 523 L 475 520 L 473 516 Z M 444 583 L 451 590 L 452 593 L 455 597 L 455 601 L 453 602 L 444 592 L 442 588 L 442 585 Z M 434 581 L 436 583 L 436 588 L 435 591 L 432 593 L 430 591 L 430 588 Z M 408 562 L 410 564 L 409 569 L 404 575 L 402 573 L 402 571 L 404 566 Z M 229 508 L 223 518 L 223 519 L 226 519 L 228 521 L 228 524 L 225 529 L 222 539 L 227 538 L 229 541 L 226 547 L 226 550 L 224 554 L 224 557 L 222 561 L 222 565 L 221 567 L 227 566 L 229 568 L 227 574 L 227 581 L 229 583 L 229 594 L 231 598 L 231 604 L 232 605 L 233 613 L 236 621 L 239 624 L 243 624 L 244 625 L 248 625 L 252 627 L 255 627 L 259 632 L 257 634 L 252 634 L 243 631 L 225 631 L 210 636 L 205 640 L 202 646 L 201 656 L 200 657 L 201 662 L 205 665 L 205 660 L 206 659 L 207 652 L 213 646 L 218 645 L 221 648 L 221 651 L 218 657 L 218 668 L 219 669 L 228 671 L 229 670 L 230 660 L 232 655 L 237 650 L 241 650 L 244 653 L 244 657 L 242 661 L 242 671 L 244 673 L 266 673 L 267 672 L 273 672 L 277 668 L 282 666 L 286 662 L 289 662 L 294 656 L 294 650 L 295 649 L 293 646 L 293 644 L 290 644 L 288 642 L 287 638 L 289 634 L 292 635 L 293 631 L 295 629 L 297 629 L 294 622 L 294 618 L 297 615 L 297 610 L 295 608 L 294 604 L 286 596 L 285 594 L 285 588 L 288 587 L 293 594 L 294 592 L 291 586 L 294 584 L 295 582 L 277 563 L 264 542 L 261 539 L 259 539 L 252 532 L 250 527 L 245 522 L 237 517 Z M 267 575 L 274 586 L 274 588 L 272 590 L 271 590 L 266 584 L 265 577 Z M 280 571 L 282 573 L 282 581 L 281 583 L 279 584 L 277 580 L 277 577 L 278 576 L 278 573 Z M 249 567 L 250 568 L 249 571 L 243 577 L 242 577 L 240 575 L 242 571 L 247 567 Z M 463 425 L 465 428 L 469 429 L 465 424 Z M 51 192 L 49 194 L 49 200 L 54 204 L 54 202 L 52 199 L 52 193 Z M 448 16 L 435 15 L 424 19 L 414 28 L 412 31 L 411 38 L 409 40 L 406 40 L 396 36 L 391 36 L 390 35 L 382 34 L 381 33 L 367 33 L 366 34 L 359 35 L 357 33 L 357 30 L 359 25 L 358 24 L 354 26 L 347 34 L 344 34 L 331 27 L 329 27 L 328 28 L 331 33 L 331 37 L 329 39 L 315 39 L 314 40 L 310 40 L 306 45 L 301 46 L 293 50 L 282 58 L 281 58 L 271 47 L 262 43 L 252 43 L 246 45 L 238 50 L 231 58 L 231 60 L 229 62 L 228 68 L 227 69 L 227 79 L 228 80 L 228 83 L 231 89 L 236 94 L 242 98 L 246 98 L 249 101 L 249 103 L 239 126 L 241 131 L 241 134 L 230 146 L 230 148 L 232 147 L 237 147 L 239 149 L 239 152 L 237 154 L 232 165 L 232 168 L 237 167 L 239 169 L 239 173 L 238 174 L 237 183 L 236 184 L 236 190 L 238 191 L 241 188 L 243 188 L 245 190 L 245 193 L 244 194 L 244 205 L 247 213 L 248 213 L 249 210 L 252 208 L 256 213 L 256 217 L 258 222 L 263 221 L 271 230 L 273 230 L 275 232 L 287 237 L 294 244 L 295 249 L 293 251 L 291 251 L 287 247 L 281 244 L 278 244 L 278 246 L 275 250 L 271 250 L 267 245 L 262 246 L 252 239 L 251 239 L 251 242 L 247 245 L 239 237 L 236 232 L 233 232 L 233 236 L 230 239 L 228 239 L 221 232 L 220 229 L 214 221 L 213 222 L 213 228 L 211 230 L 208 230 L 201 223 L 200 220 L 191 208 L 190 208 L 187 212 L 185 212 L 182 210 L 172 199 L 171 199 L 148 177 L 148 173 L 150 168 L 150 152 L 149 151 L 149 147 L 146 141 L 140 136 L 135 137 L 132 140 L 128 148 L 126 150 L 124 150 L 120 145 L 115 134 L 111 129 L 106 125 L 100 125 L 98 129 L 100 128 L 105 128 L 112 134 L 117 143 L 119 149 L 119 153 L 115 157 L 110 157 L 109 156 L 99 157 L 94 152 L 91 146 L 81 136 L 75 133 L 71 133 L 67 136 L 66 142 L 67 142 L 71 137 L 76 137 L 91 152 L 93 156 L 93 162 L 87 167 L 83 168 L 79 172 L 74 171 L 60 159 L 53 160 L 50 164 L 50 167 L 51 168 L 56 163 L 61 163 L 74 173 L 78 180 L 78 185 L 75 188 L 56 189 L 56 190 L 67 191 L 69 193 L 71 193 L 74 196 L 75 199 L 74 210 L 72 212 L 68 213 L 59 209 L 55 206 L 64 217 L 71 222 L 86 230 L 95 239 L 95 241 L 97 243 L 99 249 L 101 251 L 104 258 L 110 264 L 116 265 L 126 270 L 134 277 L 161 292 L 164 292 L 167 294 L 172 294 L 173 295 L 192 297 L 195 300 L 195 302 L 189 307 L 190 309 L 193 308 L 199 308 L 200 307 L 207 307 L 210 309 L 213 309 L 214 310 L 221 310 L 224 309 L 226 310 L 228 313 L 225 316 L 221 318 L 222 320 L 233 319 L 236 316 L 236 314 L 240 306 L 245 299 L 251 295 L 254 295 L 256 297 L 254 305 L 246 321 L 246 327 L 243 336 L 260 323 L 263 323 L 265 326 L 254 342 L 247 349 L 239 354 L 230 365 L 231 367 L 234 367 L 237 371 L 221 391 L 222 392 L 223 391 L 228 391 L 230 393 L 230 396 L 222 408 L 216 420 L 217 422 L 220 420 L 222 420 L 224 422 L 224 426 L 218 442 L 217 451 L 218 451 L 221 447 L 223 448 L 222 473 L 225 471 L 228 472 L 229 483 L 231 489 L 233 490 L 233 489 L 235 488 L 240 496 L 243 495 L 246 498 L 246 500 L 250 509 L 252 510 L 252 509 L 255 507 L 259 511 L 262 517 L 265 520 L 269 519 L 278 529 L 281 526 L 283 526 L 292 536 L 295 533 L 301 539 L 302 539 L 301 536 L 291 520 L 288 511 L 288 506 L 289 505 L 292 506 L 293 510 L 298 519 L 305 528 L 314 537 L 318 538 L 320 537 L 323 533 L 325 533 L 328 537 L 330 538 L 343 525 L 347 524 L 348 527 L 343 538 L 343 542 L 345 543 L 350 538 L 364 529 L 366 531 L 366 534 L 362 542 L 365 543 L 369 541 L 377 533 L 382 524 L 386 520 L 389 521 L 389 526 L 387 530 L 387 533 L 390 527 L 391 522 L 393 519 L 393 516 L 396 512 L 399 514 L 399 517 L 400 518 L 399 529 L 397 532 L 397 534 L 400 533 L 407 525 L 411 519 L 417 506 L 419 504 L 423 507 L 423 513 L 418 524 L 420 524 L 429 515 L 434 506 L 434 503 L 436 500 L 436 498 L 439 495 L 442 496 L 442 502 L 441 503 L 441 508 L 442 509 L 447 503 L 447 501 L 450 497 L 453 487 L 457 484 L 459 486 L 459 488 L 460 488 L 460 484 L 461 483 L 460 480 L 464 475 L 463 464 L 466 460 L 466 452 L 464 450 L 464 444 L 465 443 L 469 443 L 469 440 L 468 437 L 462 429 L 460 423 L 455 417 L 455 415 L 457 414 L 463 419 L 466 419 L 468 415 L 462 407 L 456 404 L 450 404 L 447 403 L 444 399 L 446 397 L 455 397 L 463 401 L 465 401 L 455 381 L 456 378 L 458 379 L 460 379 L 460 378 L 453 372 L 445 362 L 446 360 L 448 360 L 453 363 L 455 363 L 456 362 L 454 356 L 448 351 L 434 349 L 430 345 L 432 342 L 436 342 L 439 344 L 442 344 L 449 348 L 451 348 L 448 340 L 444 335 L 444 333 L 446 331 L 449 332 L 449 329 L 447 325 L 448 323 L 450 323 L 458 333 L 466 350 L 472 358 L 472 361 L 474 363 L 480 376 L 481 382 L 483 385 L 486 394 L 486 397 L 487 398 L 487 401 L 488 402 L 488 405 L 491 414 L 491 418 L 493 423 L 494 433 L 496 438 L 496 443 L 494 446 L 491 455 L 491 458 L 490 459 L 490 469 L 493 477 L 497 481 L 499 482 L 503 482 L 505 480 L 509 470 L 513 466 L 515 466 L 518 469 L 518 480 L 515 486 L 515 488 L 511 493 L 512 496 L 515 499 L 519 501 L 525 501 L 527 500 L 533 492 L 536 484 L 539 481 L 541 481 L 545 486 L 544 494 L 541 501 L 542 503 L 544 503 L 545 502 L 548 502 L 554 498 L 560 483 L 564 479 L 568 482 L 568 492 L 569 492 L 575 485 L 579 474 L 580 465 L 581 464 L 581 458 L 582 457 L 582 451 L 581 450 L 581 443 L 580 442 L 579 432 L 581 430 L 583 431 L 583 429 L 581 426 L 581 423 L 578 416 L 577 410 L 574 406 L 571 399 L 572 397 L 576 397 L 577 398 L 577 396 L 572 390 L 568 382 L 563 376 L 563 373 L 564 372 L 567 372 L 568 373 L 570 373 L 570 372 L 551 348 L 552 345 L 561 346 L 547 332 L 546 332 L 532 319 L 534 316 L 538 316 L 539 317 L 543 317 L 543 316 L 532 307 L 518 298 L 518 295 L 520 293 L 524 293 L 524 292 L 515 288 L 505 281 L 505 279 L 507 277 L 514 277 L 514 276 L 499 266 L 490 262 L 486 257 L 488 255 L 491 254 L 491 253 L 489 253 L 480 248 L 478 248 L 475 246 L 466 243 L 462 243 L 461 242 L 453 243 L 447 250 L 442 247 L 425 247 L 422 249 L 418 250 L 415 246 L 415 242 L 414 242 L 409 247 L 408 251 L 405 254 L 402 253 L 402 248 L 405 243 L 413 236 L 417 235 L 418 232 L 423 227 L 426 231 L 426 234 L 427 234 L 429 230 L 429 224 L 432 221 L 436 225 L 438 222 L 438 213 L 441 212 L 444 215 L 445 214 L 445 208 L 448 204 L 454 202 L 454 200 L 446 192 L 449 190 L 450 191 L 453 191 L 458 194 L 460 193 L 459 189 L 455 183 L 457 181 L 461 181 L 463 183 L 466 183 L 466 177 L 463 175 L 461 172 L 462 171 L 467 171 L 468 170 L 465 164 L 459 159 L 461 157 L 465 157 L 468 159 L 470 159 L 475 163 L 478 163 L 480 166 L 480 169 L 484 169 L 488 171 L 489 170 L 486 161 L 481 153 L 481 150 L 483 148 L 491 149 L 491 147 L 476 129 L 478 126 L 488 126 L 488 124 L 483 120 L 477 117 L 473 113 L 473 110 L 476 108 L 476 105 L 471 99 L 461 81 L 456 76 L 456 73 L 459 70 L 462 69 L 467 64 L 472 55 L 472 52 L 473 51 L 473 43 L 472 42 L 472 39 L 468 31 L 460 23 Z M 284 515 L 286 514 L 288 518 L 286 519 L 284 517 Z M 412 495 L 413 496 L 413 503 L 411 505 L 409 502 L 409 499 L 410 496 Z M 269 487 L 272 490 L 273 494 L 280 508 L 280 511 L 277 514 L 272 509 L 272 507 L 269 501 L 269 498 L 268 497 L 268 488 Z M 272 464 L 273 465 L 273 469 L 271 474 L 269 475 L 268 474 L 268 469 L 270 465 Z M 436 453 L 439 455 L 445 467 L 447 473 L 447 476 L 448 477 L 448 481 L 446 483 L 441 483 L 441 485 L 438 491 L 432 491 L 429 488 L 429 478 L 426 475 L 425 471 L 428 470 L 434 477 L 436 474 L 436 465 L 435 464 L 434 455 Z M 258 441 L 260 443 L 259 449 L 255 461 L 251 466 L 248 463 L 249 454 L 254 444 Z M 412 423 L 413 422 L 416 422 L 419 424 L 429 423 L 432 426 L 429 429 L 424 429 L 425 431 L 423 433 L 420 433 L 413 426 Z M 257 417 L 258 420 L 252 428 L 251 432 L 249 434 L 245 434 L 243 432 L 245 426 L 248 421 L 254 417 Z M 427 400 L 433 404 L 442 408 L 449 415 L 447 418 L 441 418 L 439 417 L 438 420 L 440 422 L 440 424 L 438 426 L 433 420 L 432 411 L 426 403 Z M 421 393 L 423 391 L 427 391 L 431 395 L 429 397 L 425 397 L 423 396 Z M 433 386 L 435 384 L 438 384 L 442 388 L 443 391 L 441 393 L 439 393 L 433 388 Z M 437 369 L 443 369 L 447 372 L 447 377 L 446 379 L 442 382 L 439 380 L 437 375 L 435 373 L 435 371 Z M 384 369 L 385 368 L 390 369 L 401 377 L 407 379 L 409 381 L 408 382 L 408 385 L 407 386 L 403 385 L 397 379 L 391 375 L 387 374 L 384 371 Z M 408 377 L 408 368 L 410 365 L 414 366 L 420 371 L 417 375 L 414 375 L 410 378 Z M 532 355 L 533 354 L 537 355 L 540 359 L 539 360 L 535 359 Z M 422 324 L 423 323 L 428 324 L 433 327 L 435 327 L 437 330 L 435 332 L 429 328 L 423 327 Z M 429 311 L 432 313 L 436 320 L 436 322 L 434 324 L 431 321 L 427 314 Z M 392 311 L 393 312 L 392 316 L 389 319 L 386 317 L 390 312 Z M 373 311 L 376 314 L 374 317 L 371 315 L 371 313 Z M 376 311 L 379 309 L 387 316 L 384 318 L 380 316 Z M 315 309 L 319 306 L 322 307 L 320 310 L 316 310 Z M 421 302 L 424 306 L 424 308 L 421 311 L 419 315 L 417 317 L 414 318 L 411 314 L 416 312 L 419 309 L 419 303 Z M 432 297 L 433 297 L 437 302 L 435 305 L 430 301 L 430 299 Z M 417 293 L 420 295 L 420 298 L 421 299 L 419 301 L 415 297 L 415 295 Z M 382 292 L 384 292 L 386 294 L 387 300 L 389 303 L 388 306 L 380 297 L 380 294 Z M 311 291 L 312 294 L 310 297 L 306 300 L 305 299 L 306 295 Z M 420 287 L 421 290 L 418 292 L 417 289 Z M 258 273 L 259 275 L 254 280 L 258 283 L 253 288 L 250 289 L 249 286 L 251 284 L 251 278 L 255 274 Z M 259 264 L 261 262 L 265 261 L 268 265 L 266 267 L 261 267 Z M 410 262 L 414 259 L 416 259 L 418 261 L 414 264 L 411 264 Z M 263 253 L 265 251 L 267 251 L 270 254 L 268 256 L 265 256 Z M 398 244 L 398 247 L 395 252 L 381 266 L 369 273 L 365 277 L 363 278 L 358 278 L 355 280 L 350 280 L 337 274 L 326 266 L 317 257 L 317 252 L 319 250 L 325 250 L 326 251 L 331 251 L 332 252 L 355 252 L 356 251 L 366 250 L 367 249 L 378 247 L 393 242 L 396 242 Z M 121 165 L 131 174 L 135 181 L 136 189 L 133 197 L 120 210 L 103 222 L 100 222 L 99 223 L 89 223 L 83 220 L 77 213 L 76 210 L 76 200 L 77 199 L 78 191 L 80 185 L 84 180 L 84 178 L 91 170 L 96 166 L 102 163 L 113 162 Z M 136 139 L 139 139 L 145 145 L 146 147 L 146 155 L 147 156 L 147 158 L 144 164 L 138 169 L 134 169 L 132 168 L 127 163 L 125 159 L 126 154 L 131 144 Z M 384 127 L 391 120 L 396 118 L 403 118 L 404 117 L 418 118 L 428 122 L 434 128 L 436 135 L 434 140 L 427 146 L 421 147 L 420 148 L 409 148 L 408 147 L 399 146 L 391 142 L 384 134 Z M 306 111 L 314 105 L 317 105 L 318 104 L 330 104 L 339 108 L 342 111 L 342 113 L 340 115 L 335 115 L 331 113 L 325 113 L 324 112 L 319 112 L 313 114 L 307 114 Z M 285 99 L 287 98 L 292 98 L 297 103 L 298 113 L 297 114 L 297 117 L 295 119 L 294 122 L 300 120 L 307 120 L 308 119 L 313 119 L 314 120 L 322 121 L 330 125 L 335 130 L 336 133 L 334 142 L 325 151 L 311 157 L 300 157 L 297 156 L 287 150 L 283 145 L 282 142 L 281 142 L 280 157 L 282 161 L 290 167 L 299 167 L 306 162 L 314 162 L 315 163 L 325 164 L 326 165 L 341 165 L 359 158 L 366 152 L 368 147 L 371 144 L 374 144 L 380 151 L 381 162 L 382 163 L 382 180 L 381 181 L 381 189 L 380 190 L 379 197 L 376 206 L 370 217 L 361 226 L 358 227 L 355 230 L 344 234 L 336 234 L 326 230 L 319 225 L 309 215 L 297 198 L 292 187 L 291 178 L 279 172 L 271 163 L 270 157 L 269 156 L 269 149 L 268 149 L 260 158 L 256 160 L 249 160 L 242 154 L 241 152 L 241 147 L 243 142 L 248 137 L 258 132 L 268 132 L 274 138 L 275 137 L 280 137 L 280 133 L 284 127 L 283 127 L 278 121 L 278 111 L 281 103 Z M 371 91 L 377 91 L 379 92 L 383 96 L 386 103 L 386 112 L 385 113 L 385 116 L 382 121 L 380 123 L 377 124 L 373 124 L 369 122 L 365 118 L 363 113 L 363 102 L 364 101 L 364 98 Z M 299 59 L 303 63 L 303 67 L 299 71 L 297 71 L 285 79 L 283 79 L 279 75 L 279 71 L 281 68 L 289 61 L 293 59 Z M 258 57 L 263 59 L 267 62 L 270 66 L 270 69 L 267 72 L 266 75 L 263 78 L 259 85 L 253 91 L 250 91 L 241 83 L 239 77 L 239 72 L 241 67 L 247 60 L 251 58 Z M 363 53 L 367 49 L 370 48 L 375 48 L 378 50 L 380 50 L 384 52 L 389 57 L 390 59 L 390 64 L 387 67 L 383 67 L 375 62 L 369 60 L 366 60 L 363 57 Z M 440 30 L 446 31 L 452 34 L 458 41 L 460 45 L 460 55 L 457 60 L 450 66 L 447 66 L 435 55 L 429 52 L 424 47 L 425 42 L 427 39 L 432 34 Z" fill="#FBFBFB" fill-rule="evenodd"/><path d="M 213 647 L 208 652 L 208 654 L 209 651 L 215 646 L 217 646 L 220 649 L 220 651 L 217 657 L 216 668 L 220 671 L 229 672 L 230 671 L 230 666 L 230 670 L 228 672 L 219 670 L 217 668 L 217 657 L 219 654 L 220 648 L 218 646 Z M 506 643 L 513 649 L 516 655 L 516 660 L 517 661 L 517 667 L 516 670 L 510 677 L 507 675 L 506 664 L 504 660 L 501 657 L 497 656 L 495 658 L 495 666 L 496 667 L 496 670 L 495 659 L 499 656 L 506 664 L 506 667 L 507 668 L 507 676 L 508 677 L 512 676 L 516 671 L 517 668 L 517 659 L 516 658 L 516 655 L 513 649 Z M 245 626 L 251 627 L 256 631 L 254 633 L 249 632 L 252 633 L 257 633 L 258 632 L 255 628 Z M 444 584 L 443 585 L 443 588 L 447 595 L 453 601 L 454 601 L 454 597 L 451 593 L 450 590 Z M 434 582 L 431 588 L 431 591 L 432 592 L 434 591 L 435 588 L 435 583 Z M 267 576 L 266 577 L 267 584 L 269 587 L 272 589 L 273 586 Z M 280 572 L 278 577 L 279 583 L 280 583 L 281 581 L 281 573 Z M 249 568 L 247 568 L 244 570 L 241 575 L 243 576 L 248 571 Z M 408 563 L 404 568 L 403 571 L 404 574 L 408 569 L 408 566 L 409 565 Z M 412 496 L 411 496 L 410 499 L 411 504 L 412 503 Z M 269 488 L 269 497 L 270 498 L 270 501 L 273 507 L 273 509 L 277 513 L 279 511 L 279 508 L 272 494 L 272 492 Z M 271 495 L 273 496 L 278 507 L 276 509 L 271 501 L 270 498 Z M 272 465 L 271 465 L 269 469 L 269 474 L 270 474 L 271 472 Z M 489 460 L 489 469 L 490 470 L 491 476 L 493 479 L 498 483 L 503 483 L 506 480 L 510 470 L 513 467 L 517 470 L 517 479 L 514 488 L 510 493 L 510 495 L 515 500 L 519 502 L 525 502 L 529 500 L 532 496 L 537 486 L 537 484 L 539 482 L 541 482 L 543 484 L 544 488 L 543 484 L 541 482 L 539 482 L 537 484 L 536 488 L 531 497 L 527 501 L 525 502 L 519 502 L 515 500 L 511 496 L 510 493 L 514 488 L 514 486 L 517 480 L 517 469 L 515 467 L 513 467 L 510 470 L 506 480 L 503 483 L 499 483 L 492 477 L 490 473 L 490 470 L 489 469 Z M 582 458 L 582 464 L 581 465 L 580 474 L 577 483 L 574 488 L 568 493 L 567 492 L 567 482 L 564 480 L 561 483 L 555 498 L 550 502 L 544 504 L 542 504 L 540 502 L 543 494 L 543 490 L 543 494 L 539 502 L 540 504 L 546 504 L 551 502 L 556 497 L 560 485 L 563 481 L 565 481 L 567 483 L 567 493 L 566 495 L 568 495 L 572 491 L 577 483 L 580 474 L 581 465 L 582 464 Z M 437 454 L 435 455 L 435 459 L 437 465 L 437 474 L 434 478 L 428 471 L 426 471 L 427 475 L 430 478 L 430 488 L 432 490 L 438 490 L 440 483 L 441 482 L 446 482 L 447 481 L 447 477 L 446 476 L 446 473 L 444 467 Z M 438 459 L 440 461 L 442 466 L 442 471 L 441 472 L 438 470 L 438 465 L 437 464 L 437 460 Z M 258 442 L 255 444 L 250 454 L 249 463 L 251 465 L 254 461 L 258 449 L 258 446 L 259 445 Z M 413 423 L 414 426 L 420 432 L 423 432 L 424 431 L 423 430 L 424 428 L 429 428 L 431 426 L 429 424 L 419 425 L 416 423 Z M 257 418 L 254 418 L 249 421 L 246 426 L 244 432 L 245 433 L 249 433 L 250 432 L 250 430 L 254 423 L 257 420 Z M 427 401 L 428 405 L 433 411 L 434 420 L 438 425 L 439 422 L 437 420 L 437 418 L 439 416 L 441 417 L 447 417 L 448 415 L 442 409 L 433 405 Z M 422 394 L 425 396 L 429 396 L 430 395 L 427 392 L 423 392 Z M 435 385 L 434 388 L 439 392 L 441 392 L 442 391 L 441 388 L 438 385 Z M 437 370 L 436 373 L 438 375 L 441 381 L 444 380 L 446 377 L 446 372 L 443 370 Z M 385 369 L 385 371 L 387 373 L 391 374 L 397 378 L 403 384 L 407 385 L 407 382 L 408 381 L 407 380 L 401 378 L 390 370 Z M 419 371 L 414 367 L 410 366 L 409 368 L 409 377 L 414 374 L 417 374 Z M 533 355 L 535 358 L 539 359 L 537 356 Z M 450 324 L 448 324 L 450 329 L 450 332 L 449 333 L 446 332 L 445 335 L 449 340 L 452 348 L 449 349 L 442 345 L 439 345 L 436 343 L 432 343 L 431 345 L 434 348 L 448 350 L 455 356 L 457 362 L 455 364 L 453 364 L 448 361 L 446 361 L 446 362 L 454 372 L 461 378 L 460 380 L 456 379 L 456 381 L 466 401 L 463 402 L 455 398 L 446 398 L 445 400 L 447 402 L 450 403 L 456 403 L 462 406 L 468 413 L 469 416 L 466 420 L 463 420 L 457 415 L 456 415 L 456 417 L 461 423 L 463 429 L 469 437 L 470 443 L 469 444 L 465 444 L 465 450 L 467 452 L 467 460 L 464 464 L 465 475 L 461 480 L 462 482 L 461 484 L 461 488 L 459 489 L 457 485 L 454 487 L 451 497 L 448 501 L 448 503 L 442 510 L 440 508 L 441 496 L 439 496 L 437 498 L 437 500 L 435 503 L 435 506 L 432 512 L 420 525 L 417 524 L 422 513 L 422 507 L 419 505 L 412 519 L 400 534 L 398 535 L 396 534 L 396 532 L 398 529 L 398 523 L 399 522 L 398 514 L 396 513 L 394 516 L 394 519 L 392 522 L 389 532 L 387 534 L 386 533 L 386 530 L 388 526 L 388 521 L 386 521 L 383 524 L 378 533 L 369 542 L 365 544 L 363 544 L 361 542 L 365 534 L 365 531 L 363 530 L 344 544 L 342 542 L 342 538 L 344 535 L 347 525 L 343 526 L 330 539 L 329 539 L 325 534 L 323 534 L 320 538 L 316 539 L 304 528 L 295 516 L 291 506 L 289 506 L 289 511 L 292 520 L 303 538 L 303 539 L 301 540 L 295 534 L 292 537 L 283 527 L 281 527 L 278 530 L 269 520 L 265 521 L 261 517 L 260 514 L 255 508 L 251 511 L 247 505 L 245 498 L 243 496 L 240 497 L 235 489 L 234 489 L 233 491 L 230 489 L 228 483 L 227 472 L 225 472 L 223 474 L 221 473 L 221 461 L 221 476 L 225 473 L 227 475 L 229 488 L 235 501 L 235 504 L 233 506 L 230 506 L 229 505 L 227 507 L 227 509 L 221 520 L 222 521 L 225 521 L 227 524 L 227 521 L 226 520 L 223 520 L 222 518 L 229 507 L 237 516 L 245 521 L 251 527 L 253 532 L 259 538 L 261 538 L 265 542 L 278 563 L 296 582 L 296 583 L 292 586 L 295 592 L 293 595 L 288 588 L 286 588 L 286 594 L 287 596 L 295 604 L 296 608 L 298 610 L 298 615 L 295 618 L 295 622 L 298 629 L 294 631 L 294 633 L 292 636 L 289 635 L 288 638 L 289 642 L 290 643 L 293 643 L 296 649 L 295 650 L 295 656 L 294 658 L 289 663 L 286 663 L 282 667 L 277 669 L 273 673 L 267 673 L 266 674 L 244 674 L 241 671 L 241 662 L 241 673 L 242 674 L 269 674 L 270 673 L 287 672 L 288 671 L 294 671 L 295 670 L 301 670 L 302 669 L 311 668 L 317 666 L 322 663 L 325 657 L 325 637 L 324 636 L 324 629 L 326 627 L 329 629 L 331 625 L 331 610 L 330 609 L 329 596 L 331 594 L 335 597 L 336 596 L 336 584 L 339 575 L 337 573 L 334 573 L 315 566 L 308 560 L 308 558 L 310 556 L 318 556 L 333 561 L 338 561 L 344 563 L 351 563 L 352 564 L 358 564 L 359 565 L 382 561 L 386 564 L 386 568 L 383 571 L 381 571 L 379 574 L 383 582 L 383 585 L 385 590 L 385 594 L 389 593 L 391 596 L 390 592 L 387 590 L 389 578 L 403 556 L 408 552 L 416 543 L 421 544 L 429 535 L 433 536 L 441 526 L 445 529 L 452 522 L 455 520 L 458 520 L 469 511 L 474 516 L 476 520 L 476 523 L 478 525 L 479 528 L 487 536 L 485 539 L 482 537 L 478 536 L 477 538 L 482 542 L 485 546 L 483 548 L 476 548 L 473 547 L 473 549 L 481 553 L 487 560 L 489 566 L 488 569 L 486 569 L 477 563 L 475 563 L 475 565 L 488 580 L 489 583 L 487 585 L 484 585 L 468 578 L 466 578 L 466 580 L 474 588 L 478 590 L 481 593 L 485 594 L 493 601 L 493 604 L 491 606 L 489 606 L 485 603 L 485 605 L 488 610 L 488 613 L 489 614 L 488 615 L 485 614 L 482 621 L 482 627 L 485 633 L 484 635 L 480 633 L 459 633 L 458 634 L 452 634 L 451 635 L 441 636 L 438 638 L 435 638 L 435 639 L 446 639 L 447 640 L 450 640 L 448 640 L 446 638 L 449 635 L 453 635 L 459 633 L 477 633 L 485 636 L 484 639 L 477 639 L 486 639 L 488 637 L 495 637 L 499 640 L 504 642 L 499 640 L 496 637 L 496 635 L 499 632 L 501 626 L 502 615 L 501 615 L 500 613 L 503 612 L 503 588 L 501 582 L 504 578 L 500 569 L 502 567 L 507 569 L 507 566 L 505 563 L 504 558 L 496 543 L 498 540 L 500 540 L 502 542 L 506 543 L 506 541 L 499 525 L 499 520 L 500 519 L 502 520 L 504 519 L 503 516 L 503 510 L 499 498 L 490 494 L 481 484 L 478 477 L 478 474 L 477 473 L 477 458 L 478 457 L 478 454 L 483 439 L 482 438 L 482 434 L 481 433 L 478 414 L 475 405 L 475 401 L 472 394 L 472 391 L 468 382 L 468 380 L 466 377 L 466 375 L 462 368 L 462 366 L 455 354 L 453 348 L 453 344 L 455 342 L 457 342 L 464 350 L 476 371 L 476 373 L 479 378 L 482 388 L 484 391 L 484 394 L 486 398 L 486 401 L 487 402 L 487 405 L 490 414 L 490 417 L 485 394 L 482 385 L 480 382 L 479 376 L 476 371 L 476 369 L 471 361 L 471 358 L 465 350 L 457 333 Z M 489 614 L 492 617 L 493 620 L 491 624 L 489 623 L 489 618 L 488 617 Z M 270 523 L 274 526 L 283 538 L 282 540 L 280 540 L 269 527 L 269 524 Z M 259 517 L 264 521 L 266 525 L 269 528 L 267 530 L 266 530 L 260 523 L 258 519 Z M 294 516 L 304 530 L 303 532 L 298 528 L 294 522 L 293 519 Z M 420 509 L 421 510 L 420 517 L 416 524 L 414 525 L 413 524 L 413 521 L 416 517 L 416 514 L 418 510 Z M 244 501 L 246 502 L 247 506 L 250 511 L 250 514 L 248 516 L 246 514 L 245 510 L 243 507 L 243 502 Z M 462 425 L 465 423 L 470 429 L 467 430 L 465 429 Z M 423 324 L 423 326 L 429 327 L 435 331 L 436 330 L 435 328 Z M 429 312 L 428 314 L 434 323 L 435 320 L 431 313 Z M 377 311 L 380 315 L 384 317 L 386 316 L 389 318 L 391 316 L 392 312 L 391 312 L 387 317 L 381 311 L 379 310 Z M 421 303 L 420 303 L 420 309 L 416 313 L 412 314 L 414 317 L 417 316 L 423 308 L 423 306 Z M 432 298 L 431 301 L 435 304 L 436 302 L 435 300 Z M 417 294 L 416 297 L 419 300 L 420 299 L 419 298 L 419 295 Z M 382 293 L 381 294 L 381 297 L 388 305 L 385 294 Z M 311 292 L 307 295 L 306 299 L 309 297 L 311 294 Z M 258 274 L 255 275 L 252 278 L 252 284 L 250 286 L 250 288 L 253 287 L 257 283 L 253 280 Z M 260 264 L 261 266 L 266 266 L 267 265 L 265 262 L 263 262 Z M 417 261 L 414 260 L 411 262 L 411 263 L 414 263 Z M 264 253 L 265 255 L 268 255 L 269 254 L 267 252 Z M 397 244 L 396 243 L 388 244 L 378 248 L 375 248 L 366 251 L 356 252 L 355 253 L 332 253 L 331 252 L 326 252 L 325 251 L 319 251 L 318 252 L 318 257 L 326 265 L 337 273 L 347 278 L 355 279 L 358 277 L 363 277 L 365 276 L 369 272 L 381 265 L 394 252 L 397 247 Z M 378 264 L 374 268 L 367 272 L 364 275 L 361 274 L 361 272 L 365 269 L 367 269 L 376 263 Z M 319 255 L 321 253 L 323 253 L 324 254 L 324 257 L 332 265 L 338 269 L 342 270 L 345 273 L 348 273 L 349 274 L 355 274 L 356 273 L 358 275 L 356 277 L 350 278 L 337 272 L 327 265 L 320 258 Z M 49 165 L 49 168 L 52 172 L 53 171 L 53 168 L 57 165 L 61 165 L 72 173 L 76 178 L 76 184 L 74 186 L 66 186 L 61 188 L 55 188 L 49 192 L 49 193 L 51 191 L 53 193 L 53 199 L 55 202 L 55 204 L 53 205 L 48 200 L 48 195 L 48 200 L 51 205 L 65 219 L 69 221 L 75 226 L 88 233 L 93 238 L 99 251 L 101 253 L 107 264 L 121 279 L 126 282 L 134 289 L 137 290 L 142 294 L 144 294 L 149 297 L 153 298 L 157 302 L 157 304 L 155 306 L 150 307 L 149 308 L 154 311 L 157 311 L 160 313 L 179 317 L 183 320 L 177 325 L 180 327 L 189 327 L 190 328 L 199 328 L 202 329 L 205 332 L 205 334 L 203 337 L 205 338 L 220 338 L 224 343 L 227 342 L 230 336 L 231 331 L 235 323 L 238 320 L 242 320 L 245 323 L 245 327 L 242 333 L 240 343 L 238 347 L 238 352 L 236 356 L 228 366 L 229 369 L 233 368 L 235 370 L 235 372 L 220 391 L 220 393 L 227 392 L 229 394 L 229 396 L 225 401 L 215 420 L 215 424 L 217 424 L 219 422 L 221 422 L 223 424 L 218 441 L 223 426 L 223 422 L 220 421 L 217 423 L 215 420 L 221 408 L 229 396 L 229 393 L 228 392 L 223 392 L 222 393 L 220 391 L 236 371 L 234 368 L 231 368 L 229 365 L 239 353 L 247 348 L 253 342 L 264 326 L 263 324 L 260 324 L 254 328 L 244 337 L 242 336 L 245 327 L 245 321 L 253 305 L 255 297 L 254 296 L 251 296 L 244 301 L 237 314 L 237 316 L 233 320 L 222 321 L 220 318 L 227 313 L 226 311 L 224 310 L 221 311 L 214 311 L 213 310 L 210 310 L 207 308 L 200 308 L 199 309 L 193 309 L 190 310 L 188 307 L 194 302 L 194 300 L 192 298 L 173 296 L 172 295 L 167 295 L 164 293 L 161 293 L 134 278 L 126 271 L 116 266 L 110 265 L 103 258 L 100 251 L 98 249 L 96 243 L 94 241 L 94 239 L 86 231 L 71 223 L 64 218 L 54 206 L 56 205 L 59 208 L 68 212 L 73 210 L 73 207 L 74 206 L 74 199 L 73 196 L 67 192 L 56 191 L 55 189 L 56 188 L 75 187 L 77 185 L 77 180 L 73 173 L 61 164 L 56 164 L 51 169 L 49 167 Z M 261 325 L 262 328 L 253 340 L 248 345 L 247 343 L 252 336 L 252 333 L 260 325 Z M 217 314 L 219 312 L 222 312 L 223 313 L 221 316 L 219 316 Z M 183 300 L 185 298 L 187 298 L 188 299 L 191 299 L 192 301 L 190 303 L 185 302 Z M 252 296 L 254 298 L 254 301 L 252 304 L 252 306 L 250 308 L 250 310 L 247 316 L 245 318 L 243 315 L 245 310 L 247 308 L 248 304 L 243 310 L 242 310 L 241 308 L 243 303 L 248 298 Z M 57 192 L 61 192 L 65 194 L 69 194 L 72 197 L 73 199 L 73 207 L 70 211 L 66 211 L 64 210 L 54 200 L 53 196 Z M 121 166 L 113 163 L 106 163 L 96 167 L 91 171 L 85 178 L 85 180 L 81 185 L 79 191 L 79 194 L 81 186 L 84 182 L 86 177 L 93 170 L 100 165 L 111 163 L 120 166 L 131 176 L 134 182 L 134 192 L 132 196 L 113 214 L 100 221 L 90 221 L 87 220 L 78 212 L 77 209 L 78 196 L 78 199 L 77 200 L 77 210 L 79 215 L 83 219 L 89 222 L 99 222 L 100 221 L 103 221 L 120 209 L 132 197 L 135 189 L 134 181 L 130 174 Z M 374 145 L 371 145 L 367 151 L 369 147 L 371 145 L 373 145 L 377 149 L 380 156 L 381 178 L 380 179 L 380 187 L 378 192 L 378 196 L 375 205 L 370 215 L 362 223 L 353 229 L 344 232 L 335 232 L 325 228 L 309 213 L 300 201 L 295 191 L 298 198 L 310 215 L 319 224 L 326 229 L 336 233 L 344 233 L 348 231 L 351 231 L 355 229 L 358 226 L 361 225 L 371 214 L 375 206 L 378 197 L 378 194 L 380 189 L 380 181 L 381 180 L 381 163 L 380 162 L 380 155 L 379 154 L 379 151 Z M 139 140 L 136 140 L 132 144 L 127 154 L 127 157 L 126 158 L 128 163 L 134 168 L 138 168 L 140 167 L 143 164 L 146 158 L 145 155 L 145 147 Z M 136 141 L 139 141 L 143 145 L 145 150 L 145 157 L 142 164 L 139 167 L 133 167 L 127 161 L 127 156 L 129 153 L 129 151 L 132 145 Z M 132 139 L 135 136 L 140 135 L 147 141 L 150 147 L 150 151 L 151 152 L 151 168 L 149 173 L 149 177 L 171 198 L 172 198 L 182 209 L 185 211 L 187 211 L 188 209 L 191 207 L 199 217 L 202 223 L 208 229 L 211 229 L 212 228 L 212 222 L 214 220 L 217 223 L 222 232 L 228 238 L 230 238 L 232 236 L 232 232 L 233 231 L 236 231 L 240 237 L 247 244 L 250 242 L 250 239 L 252 238 L 262 245 L 267 244 L 271 249 L 275 249 L 278 243 L 281 243 L 287 246 L 291 250 L 294 249 L 293 244 L 287 238 L 281 236 L 273 231 L 271 231 L 263 222 L 258 223 L 256 221 L 255 213 L 252 209 L 251 209 L 250 212 L 247 214 L 244 209 L 244 206 L 244 209 L 246 213 L 249 214 L 250 211 L 252 210 L 255 214 L 255 218 L 259 226 L 263 223 L 275 238 L 277 242 L 277 246 L 274 249 L 272 249 L 266 242 L 263 244 L 260 244 L 252 237 L 250 237 L 250 240 L 246 243 L 235 230 L 233 230 L 232 235 L 229 238 L 223 233 L 218 224 L 214 220 L 212 221 L 212 227 L 210 229 L 208 229 L 203 224 L 197 214 L 190 206 L 189 206 L 187 210 L 184 210 L 180 207 L 165 191 L 164 191 L 150 178 L 149 176 L 150 170 L 151 169 L 151 150 L 150 149 L 150 146 L 147 141 L 141 135 L 137 135 Z M 477 128 L 478 131 L 487 140 L 492 147 L 491 150 L 488 150 L 487 149 L 483 149 L 482 150 L 482 153 L 487 161 L 490 170 L 488 172 L 484 170 L 480 170 L 478 164 L 475 164 L 470 160 L 468 160 L 465 158 L 461 158 L 460 159 L 466 164 L 469 170 L 467 172 L 462 172 L 462 173 L 467 177 L 467 183 L 466 184 L 463 184 L 461 182 L 457 182 L 456 183 L 459 187 L 461 193 L 458 195 L 453 192 L 450 192 L 449 191 L 447 192 L 455 200 L 455 202 L 453 204 L 449 204 L 446 208 L 446 214 L 444 216 L 441 213 L 439 213 L 439 222 L 436 226 L 432 222 L 430 224 L 430 230 L 429 233 L 427 235 L 425 234 L 425 231 L 423 228 L 419 232 L 417 236 L 415 236 L 409 240 L 403 248 L 403 253 L 405 253 L 407 251 L 408 247 L 414 241 L 416 242 L 416 246 L 418 249 L 422 248 L 425 246 L 442 246 L 447 249 L 453 242 L 461 241 L 462 242 L 470 243 L 473 245 L 480 247 L 489 252 L 491 252 L 492 254 L 488 256 L 487 258 L 490 261 L 499 265 L 515 276 L 514 278 L 507 278 L 506 281 L 515 287 L 525 292 L 524 294 L 520 294 L 519 295 L 519 298 L 532 306 L 544 316 L 543 318 L 534 317 L 533 319 L 546 331 L 547 331 L 562 346 L 561 347 L 552 346 L 552 348 L 571 372 L 570 374 L 564 373 L 564 376 L 569 382 L 573 390 L 578 396 L 577 399 L 576 398 L 572 398 L 575 406 L 578 410 L 580 419 L 577 407 L 574 403 L 574 401 L 576 399 L 579 401 L 580 400 L 577 394 L 565 377 L 566 374 L 569 374 L 572 376 L 573 375 L 561 358 L 552 348 L 554 346 L 560 347 L 561 348 L 564 347 L 535 320 L 536 318 L 543 318 L 545 319 L 546 317 L 519 297 L 521 294 L 527 294 L 525 291 L 523 291 L 515 287 L 507 281 L 508 278 L 516 278 L 516 277 L 501 266 L 498 265 L 496 263 L 490 261 L 488 259 L 490 256 L 492 255 L 496 255 L 496 254 L 472 244 L 469 241 L 473 238 L 473 237 L 469 237 L 465 234 L 467 231 L 466 230 L 463 230 L 461 228 L 461 226 L 467 220 L 472 212 L 472 210 L 475 205 L 476 194 L 478 192 L 482 194 L 483 193 L 483 177 L 482 176 L 482 173 L 484 171 L 486 171 L 489 174 L 491 173 L 488 162 L 482 151 L 484 149 L 487 149 L 492 151 L 493 149 L 489 142 L 478 130 L 479 127 Z M 439 238 L 441 241 L 438 244 L 435 245 L 433 243 L 433 241 L 435 239 Z M 455 224 L 454 227 L 451 230 L 450 233 L 446 236 L 444 234 L 445 231 L 453 223 Z M 131 141 L 129 145 L 126 148 L 124 148 L 121 145 L 114 131 L 108 125 L 106 124 L 100 124 L 97 127 L 98 135 L 99 135 L 99 133 L 102 130 L 105 130 L 111 135 L 117 146 L 117 153 L 115 155 L 107 155 L 106 154 L 98 155 L 95 152 L 92 146 L 81 135 L 75 132 L 71 132 L 66 136 L 65 139 L 66 147 L 68 149 L 70 149 L 70 141 L 73 138 L 76 139 L 82 144 L 90 153 L 92 157 L 92 161 L 88 165 L 86 166 L 81 166 L 78 170 L 75 170 L 68 165 L 62 159 L 58 158 L 60 158 L 70 167 L 76 171 L 79 171 L 83 167 L 87 166 L 92 162 L 92 156 L 90 152 L 76 138 L 71 138 L 67 143 L 65 142 L 66 136 L 71 132 L 75 132 L 81 135 L 92 146 L 95 152 L 99 156 L 102 156 L 103 155 L 115 156 L 118 153 L 118 149 L 116 143 L 111 134 L 105 129 L 100 129 L 99 130 L 97 129 L 98 126 L 100 124 L 106 124 L 112 129 L 116 134 L 121 145 L 124 149 L 127 148 Z M 385 127 L 385 134 L 391 141 L 394 142 L 396 144 L 402 145 L 403 146 L 408 146 L 409 147 L 420 147 L 421 146 L 427 145 L 433 140 L 435 135 L 433 128 L 428 123 L 418 119 L 412 119 L 411 118 L 396 119 L 391 121 Z M 385 128 L 391 122 L 399 119 L 416 119 L 417 120 L 421 120 L 427 123 L 433 129 L 434 131 L 434 138 L 429 143 L 421 146 L 406 146 L 405 145 L 399 144 L 391 140 L 386 135 L 385 133 Z M 297 107 L 297 113 L 294 120 L 287 126 L 283 126 L 280 123 L 279 121 L 279 111 L 279 121 L 280 123 L 285 127 L 281 133 L 281 137 L 280 138 L 275 138 L 274 139 L 268 133 L 258 133 L 248 138 L 244 142 L 242 147 L 242 152 L 243 154 L 249 159 L 256 159 L 260 157 L 265 151 L 269 148 L 270 149 L 271 160 L 275 167 L 282 173 L 291 177 L 282 173 L 273 164 L 271 160 L 271 157 L 270 156 L 271 143 L 275 138 L 278 138 L 280 140 L 279 157 L 281 161 L 286 166 L 290 168 L 299 168 L 304 164 L 308 163 L 304 164 L 299 168 L 290 168 L 285 165 L 281 161 L 279 157 L 279 149 L 280 148 L 280 142 L 281 141 L 283 142 L 286 148 L 293 153 L 284 145 L 281 138 L 281 133 L 288 125 L 298 122 L 295 123 L 293 122 L 294 119 L 296 117 Z M 249 139 L 250 139 L 251 141 L 248 144 L 247 151 L 250 154 L 255 154 L 256 156 L 254 158 L 249 158 L 247 157 L 243 152 L 243 146 Z M 252 138 L 258 134 L 267 134 L 270 137 L 268 140 L 267 138 L 265 137 L 258 137 L 256 139 L 253 139 Z M 307 111 L 307 113 L 313 113 L 319 111 L 331 112 L 335 114 L 340 114 L 341 113 L 341 111 L 339 109 L 330 105 L 318 105 L 317 106 L 314 106 Z M 329 109 L 332 108 L 333 110 L 330 111 Z M 246 99 L 243 99 L 245 99 L 248 103 L 239 122 L 239 125 L 238 126 L 240 133 L 239 135 L 233 140 L 228 147 L 228 149 L 235 148 L 237 150 L 237 153 L 231 164 L 230 170 L 233 170 L 234 169 L 237 169 L 238 170 L 238 173 L 236 178 L 236 183 L 235 184 L 235 191 L 238 192 L 241 189 L 244 192 L 243 194 L 243 204 L 243 194 L 244 193 L 244 190 L 241 189 L 238 192 L 235 190 L 235 184 L 236 183 L 236 178 L 238 173 L 238 169 L 237 168 L 234 169 L 231 168 L 232 162 L 236 154 L 238 152 L 238 149 L 237 148 L 232 148 L 230 149 L 229 146 L 240 134 L 240 131 L 238 126 L 248 103 L 248 101 Z M 371 92 L 365 98 L 365 101 L 364 102 L 364 113 L 366 118 L 369 121 L 373 123 L 377 123 L 380 122 L 384 116 L 384 113 L 385 112 L 385 103 L 382 96 L 379 93 L 377 92 Z M 371 92 L 377 92 L 379 93 L 383 98 L 385 104 L 385 112 L 384 113 L 384 116 L 382 119 L 377 123 L 373 123 L 369 121 L 366 118 L 364 113 L 364 102 L 366 97 Z M 302 63 L 299 60 L 293 60 L 289 62 L 282 68 L 280 71 L 280 75 L 283 78 L 285 78 L 293 72 L 299 70 L 302 67 Z M 302 63 L 302 67 L 300 69 L 294 71 L 285 78 L 283 78 L 280 75 L 281 70 L 289 62 L 293 60 L 299 60 Z M 258 58 L 251 59 L 247 61 L 242 67 L 240 72 L 240 77 L 242 83 L 250 90 L 253 90 L 258 85 L 262 78 L 265 75 L 266 72 L 269 69 L 268 64 L 263 60 Z M 258 78 L 259 80 L 256 84 L 255 81 Z M 243 73 L 246 77 L 246 80 L 248 82 L 249 85 L 253 86 L 254 87 L 253 88 L 249 88 L 242 81 L 241 78 L 241 74 Z M 262 72 L 263 73 L 260 77 L 259 74 Z M 255 61 L 253 64 L 250 65 L 247 68 L 245 69 L 244 67 L 250 61 L 253 60 Z M 473 52 L 473 55 L 470 61 L 462 70 L 459 71 L 457 73 L 457 76 L 462 81 L 472 99 L 477 105 L 477 108 L 474 110 L 474 113 L 489 124 L 488 127 L 482 127 L 490 127 L 490 125 L 485 120 L 479 117 L 474 113 L 474 111 L 476 109 L 479 108 L 474 102 L 465 85 L 457 75 L 457 74 L 465 68 L 469 63 L 473 55 Z M 440 31 L 437 33 L 435 33 L 428 39 L 426 42 L 425 47 L 429 51 L 435 54 L 447 65 L 450 65 L 456 60 L 459 55 L 459 45 L 457 41 L 452 35 L 446 32 Z M 431 37 L 434 36 L 436 34 L 443 33 L 451 36 L 456 41 L 459 50 L 457 56 L 452 62 L 447 63 L 435 52 L 428 49 L 426 47 L 427 42 Z M 473 39 L 473 42 L 473 39 L 470 32 L 467 28 L 458 20 L 448 15 L 435 14 L 434 15 L 428 16 L 419 21 L 412 29 L 410 37 L 408 39 L 403 38 L 400 36 L 387 34 L 386 33 L 382 33 L 381 32 L 367 32 L 366 33 L 362 33 L 360 34 L 358 32 L 360 26 L 360 22 L 352 26 L 346 33 L 344 33 L 334 27 L 328 26 L 327 29 L 330 33 L 330 36 L 328 38 L 315 38 L 314 39 L 310 39 L 306 44 L 301 45 L 293 49 L 282 57 L 281 57 L 278 54 L 277 51 L 271 46 L 262 42 L 253 42 L 262 42 L 271 46 L 278 53 L 278 54 L 282 57 L 293 49 L 301 45 L 306 44 L 310 39 L 314 39 L 315 38 L 329 38 L 330 37 L 330 33 L 327 28 L 329 26 L 331 26 L 344 33 L 347 33 L 354 25 L 358 23 L 360 25 L 358 30 L 358 33 L 359 34 L 362 34 L 367 32 L 381 32 L 382 33 L 386 33 L 391 35 L 396 35 L 406 39 L 409 39 L 410 38 L 411 31 L 421 20 L 428 16 L 434 15 L 435 14 L 448 15 L 456 19 L 469 31 Z M 355 13 L 351 14 L 345 19 L 341 19 L 336 16 L 333 16 L 332 15 L 325 15 L 322 16 L 319 19 L 317 23 L 317 26 L 315 28 L 311 28 L 310 29 L 304 30 L 298 34 L 291 37 L 286 41 L 283 41 L 279 37 L 272 33 L 266 31 L 262 31 L 261 30 L 255 30 L 261 30 L 262 31 L 269 32 L 272 34 L 274 34 L 283 41 L 286 41 L 288 39 L 302 32 L 304 30 L 310 29 L 311 28 L 316 28 L 319 19 L 325 15 L 336 16 L 344 20 L 351 14 Z" fill="#D8D8D8" fill-rule="evenodd"/><path d="M 447 638 L 448 639 L 451 639 L 452 638 L 460 638 L 461 637 L 484 638 L 484 636 L 478 635 L 477 634 L 459 634 L 458 635 L 449 636 Z M 270 524 L 270 527 L 275 534 L 280 539 L 282 539 L 281 536 L 273 526 Z M 259 518 L 263 526 L 267 529 L 268 528 L 265 525 L 263 521 Z M 294 517 L 295 522 L 299 528 L 304 532 Z M 420 510 L 419 510 L 417 514 L 417 517 L 414 521 L 414 524 L 415 524 L 419 517 Z M 244 502 L 244 507 L 248 515 L 249 514 L 249 511 L 246 506 L 245 502 Z M 271 496 L 272 501 L 276 508 L 277 507 L 274 501 L 274 499 L 272 496 Z M 438 460 L 439 470 L 441 471 L 441 466 Z M 261 326 L 260 326 L 253 333 L 253 336 L 248 344 L 261 328 Z M 184 300 L 188 302 L 191 301 L 191 300 L 188 300 L 187 299 Z M 252 297 L 248 299 L 243 305 L 242 309 L 243 309 L 248 303 L 249 304 L 248 308 L 246 310 L 244 315 L 245 317 L 253 301 L 253 298 Z M 377 264 L 374 265 L 367 270 L 365 270 L 362 272 L 362 274 L 364 274 Z M 320 255 L 321 258 L 327 264 L 337 271 L 350 277 L 353 277 L 357 275 L 356 274 L 355 275 L 345 274 L 342 271 L 340 271 L 332 266 L 323 257 L 323 254 Z M 440 240 L 437 239 L 434 241 L 434 243 L 436 244 L 438 243 Z M 454 224 L 453 224 L 446 231 L 445 233 L 446 235 L 449 233 Z M 57 193 L 54 196 L 55 200 L 64 209 L 66 210 L 70 210 L 72 207 L 72 199 L 69 195 L 65 195 L 61 193 Z M 123 169 L 118 166 L 112 165 L 111 164 L 103 165 L 97 168 L 87 177 L 85 182 L 82 186 L 79 195 L 79 200 L 78 201 L 78 209 L 79 212 L 84 217 L 90 220 L 100 220 L 103 219 L 118 209 L 131 196 L 133 192 L 133 182 L 130 176 Z M 139 142 L 136 142 L 133 145 L 128 156 L 128 161 L 133 166 L 139 166 L 141 164 L 144 157 L 144 150 L 142 145 Z M 249 140 L 244 146 L 244 152 L 247 156 L 249 157 L 254 157 L 255 155 L 250 155 L 246 151 L 247 144 L 250 141 L 250 140 Z M 272 143 L 272 148 L 271 149 L 271 156 L 274 164 L 282 172 L 288 174 L 292 177 L 295 190 L 301 201 L 310 213 L 322 225 L 329 229 L 335 231 L 344 231 L 353 228 L 362 222 L 369 215 L 374 205 L 377 196 L 377 192 L 379 187 L 379 179 L 380 178 L 379 156 L 376 149 L 373 146 L 371 146 L 367 153 L 359 160 L 348 165 L 345 165 L 341 167 L 326 167 L 325 166 L 320 166 L 319 165 L 315 165 L 309 163 L 304 165 L 299 169 L 290 169 L 286 167 L 280 161 L 278 157 L 279 140 L 278 139 L 275 139 Z M 274 141 L 276 139 L 279 141 L 279 145 L 278 146 L 278 158 L 280 162 L 285 167 L 292 170 L 298 170 L 307 164 L 312 164 L 313 165 L 317 165 L 323 167 L 328 167 L 329 168 L 339 168 L 340 167 L 343 167 L 352 164 L 363 158 L 368 153 L 369 150 L 373 147 L 376 150 L 376 152 L 378 155 L 378 161 L 379 162 L 379 180 L 378 181 L 378 186 L 377 187 L 376 196 L 373 205 L 367 216 L 364 219 L 362 217 L 368 206 L 370 200 L 370 192 L 366 187 L 363 186 L 361 184 L 358 184 L 357 183 L 348 183 L 347 184 L 344 184 L 333 190 L 326 197 L 322 203 L 321 206 L 321 213 L 330 226 L 327 227 L 322 224 L 311 213 L 301 200 L 296 191 L 293 182 L 293 177 L 291 175 L 283 172 L 279 169 L 274 163 L 272 159 L 272 146 Z M 253 138 L 256 138 L 258 136 L 265 136 L 267 137 L 268 139 L 269 137 L 267 135 L 258 135 L 256 137 Z M 386 128 L 386 133 L 391 139 L 394 141 L 406 145 L 421 145 L 429 142 L 433 138 L 433 131 L 432 129 L 427 124 L 421 121 L 417 121 L 416 120 L 399 120 L 391 123 Z M 285 101 L 282 105 L 280 110 L 280 121 L 283 125 L 287 125 L 288 126 L 282 133 L 282 138 L 285 145 L 291 151 L 299 155 L 312 155 L 323 150 L 331 143 L 334 137 L 334 133 L 332 129 L 325 124 L 319 122 L 314 122 L 313 121 L 299 122 L 290 126 L 288 126 L 287 125 L 293 120 L 296 113 L 296 106 L 295 103 L 292 100 L 287 100 Z M 332 130 L 333 132 L 333 138 L 330 143 L 326 147 L 318 152 L 309 155 L 301 155 L 295 153 L 285 144 L 283 140 L 283 132 L 290 126 L 301 122 L 308 122 L 311 121 L 312 122 L 321 123 L 329 127 Z M 291 100 L 295 105 L 295 108 L 296 109 L 295 111 L 295 116 L 289 123 L 286 125 L 284 125 L 281 122 L 280 119 L 280 112 L 284 103 L 288 100 Z M 371 93 L 367 97 L 365 102 L 365 113 L 367 118 L 369 120 L 373 122 L 377 122 L 379 121 L 383 116 L 383 113 L 384 112 L 384 104 L 383 103 L 383 100 L 379 94 L 377 93 Z M 372 93 L 376 93 L 380 96 L 384 106 L 383 114 L 381 118 L 378 121 L 372 121 L 367 116 L 365 111 L 366 100 Z M 242 74 L 243 81 L 249 87 L 253 87 L 251 87 L 248 85 L 247 82 L 245 80 L 245 77 L 243 74 Z M 301 63 L 299 61 L 293 61 L 289 63 L 282 70 L 281 75 L 283 77 L 285 77 L 294 70 L 300 68 L 301 67 Z M 301 64 L 297 69 L 291 71 L 287 75 L 283 76 L 281 74 L 282 71 L 292 62 L 297 61 Z M 254 61 L 250 62 L 244 69 L 250 64 L 253 63 Z M 365 54 L 365 57 L 366 58 L 369 58 L 378 61 L 383 65 L 386 65 L 388 63 L 388 59 L 387 57 L 384 54 L 375 50 L 369 50 L 367 51 Z M 365 55 L 368 51 L 377 51 L 383 54 L 387 58 L 388 62 L 384 65 L 377 60 L 375 60 L 372 58 L 368 58 Z M 431 38 L 428 42 L 427 47 L 435 51 L 447 62 L 452 61 L 456 56 L 458 50 L 455 41 L 451 37 L 443 34 L 439 34 Z M 452 15 L 446 13 L 440 13 L 439 12 L 426 15 L 418 20 L 414 24 L 409 32 L 409 35 L 407 37 L 402 36 L 399 34 L 395 34 L 394 33 L 386 32 L 385 31 L 364 31 L 362 32 L 360 30 L 360 28 L 362 25 L 362 22 L 359 20 L 354 23 L 346 31 L 344 31 L 340 28 L 338 28 L 333 25 L 326 24 L 325 27 L 326 30 L 328 32 L 328 35 L 327 36 L 324 36 L 323 37 L 310 37 L 308 38 L 304 43 L 292 48 L 283 55 L 281 55 L 277 49 L 272 45 L 264 41 L 251 41 L 245 43 L 238 47 L 230 55 L 226 63 L 226 67 L 224 72 L 225 74 L 225 81 L 229 90 L 236 97 L 241 100 L 243 100 L 246 103 L 242 112 L 242 114 L 237 124 L 238 134 L 226 147 L 226 149 L 228 151 L 232 151 L 234 150 L 236 152 L 229 165 L 229 172 L 230 173 L 234 171 L 236 172 L 236 176 L 233 185 L 233 190 L 235 194 L 238 194 L 240 192 L 242 194 L 242 206 L 245 214 L 247 216 L 249 216 L 252 214 L 254 216 L 255 223 L 260 229 L 262 229 L 262 228 L 264 227 L 275 241 L 275 245 L 273 247 L 272 247 L 265 239 L 260 242 L 250 234 L 248 235 L 248 239 L 245 240 L 238 230 L 234 227 L 232 228 L 231 232 L 228 235 L 223 231 L 219 223 L 213 218 L 211 219 L 211 225 L 208 227 L 204 223 L 198 213 L 190 204 L 187 204 L 187 207 L 185 209 L 151 177 L 151 171 L 152 170 L 152 165 L 153 164 L 152 149 L 147 139 L 141 134 L 137 134 L 133 136 L 128 144 L 126 146 L 124 146 L 120 141 L 120 139 L 117 133 L 111 126 L 106 123 L 99 123 L 96 126 L 96 137 L 97 138 L 97 142 L 99 148 L 99 150 L 97 151 L 91 143 L 82 134 L 76 131 L 70 131 L 65 136 L 64 139 L 64 146 L 72 159 L 72 162 L 70 163 L 61 157 L 53 158 L 49 162 L 48 165 L 49 172 L 59 185 L 57 187 L 51 189 L 48 192 L 47 194 L 47 200 L 48 203 L 55 212 L 63 219 L 75 228 L 86 233 L 92 239 L 94 244 L 96 246 L 97 250 L 103 259 L 103 261 L 111 271 L 121 281 L 135 292 L 151 299 L 154 302 L 153 305 L 149 305 L 147 307 L 150 311 L 152 311 L 155 313 L 158 313 L 161 315 L 177 318 L 179 321 L 175 324 L 176 327 L 182 329 L 194 329 L 195 330 L 200 330 L 202 332 L 200 338 L 202 339 L 213 339 L 214 340 L 218 340 L 220 342 L 221 345 L 226 345 L 229 342 L 230 338 L 233 333 L 233 331 L 236 325 L 239 322 L 242 322 L 244 324 L 236 348 L 236 353 L 226 367 L 226 370 L 227 371 L 232 370 L 233 373 L 225 382 L 218 392 L 219 395 L 225 394 L 227 397 L 220 407 L 213 422 L 213 425 L 214 426 L 216 426 L 219 424 L 221 425 L 221 428 L 218 434 L 218 437 L 215 446 L 215 452 L 214 453 L 214 455 L 216 457 L 219 454 L 221 456 L 220 458 L 220 465 L 219 466 L 219 476 L 221 479 L 224 477 L 226 478 L 227 486 L 233 500 L 233 502 L 231 504 L 229 502 L 227 503 L 225 510 L 221 518 L 219 520 L 220 523 L 224 523 L 225 525 L 218 540 L 218 542 L 221 543 L 224 541 L 226 543 L 220 560 L 219 570 L 221 571 L 224 569 L 226 571 L 223 584 L 227 587 L 227 596 L 229 600 L 230 610 L 231 611 L 233 621 L 236 626 L 234 628 L 224 629 L 223 630 L 219 630 L 209 634 L 203 640 L 199 649 L 198 659 L 200 665 L 205 669 L 208 668 L 208 656 L 210 652 L 214 648 L 216 648 L 218 650 L 216 656 L 216 659 L 215 660 L 215 670 L 218 672 L 228 673 L 229 674 L 232 673 L 232 661 L 235 655 L 239 652 L 242 654 L 240 660 L 240 666 L 239 667 L 239 671 L 241 675 L 275 675 L 276 674 L 283 674 L 284 673 L 293 673 L 294 672 L 299 672 L 300 671 L 305 671 L 306 670 L 314 669 L 321 666 L 324 663 L 327 655 L 327 640 L 326 639 L 326 633 L 325 632 L 327 630 L 330 632 L 332 630 L 332 603 L 331 602 L 331 599 L 333 597 L 335 599 L 338 598 L 337 586 L 339 582 L 340 573 L 316 565 L 310 560 L 312 557 L 314 557 L 315 558 L 319 558 L 323 560 L 326 560 L 335 563 L 346 564 L 347 565 L 354 565 L 355 566 L 366 566 L 367 565 L 371 565 L 377 563 L 382 563 L 384 565 L 384 568 L 382 570 L 378 571 L 377 574 L 382 584 L 382 588 L 384 592 L 384 596 L 385 597 L 387 596 L 389 597 L 389 612 L 393 615 L 393 631 L 394 633 L 396 633 L 398 631 L 400 633 L 400 648 L 398 653 L 398 668 L 400 672 L 405 677 L 420 682 L 438 684 L 439 683 L 438 667 L 439 664 L 441 662 L 444 662 L 446 664 L 446 667 L 447 668 L 447 683 L 448 684 L 469 684 L 471 682 L 470 663 L 472 661 L 475 661 L 477 663 L 479 668 L 479 682 L 480 683 L 493 682 L 497 679 L 498 676 L 498 670 L 496 664 L 496 660 L 498 658 L 499 658 L 505 665 L 505 668 L 506 669 L 506 675 L 505 678 L 506 679 L 513 677 L 518 670 L 519 661 L 518 660 L 517 653 L 510 644 L 500 639 L 498 637 L 499 634 L 501 632 L 501 629 L 502 628 L 503 617 L 504 616 L 504 603 L 505 602 L 505 591 L 504 590 L 504 586 L 503 584 L 506 581 L 506 578 L 502 571 L 504 569 L 508 572 L 510 571 L 509 566 L 506 561 L 504 554 L 499 546 L 501 543 L 506 546 L 508 545 L 507 539 L 500 524 L 501 522 L 505 522 L 506 521 L 506 518 L 505 517 L 504 509 L 503 508 L 503 505 L 500 496 L 499 495 L 493 494 L 489 491 L 484 485 L 480 477 L 480 474 L 479 473 L 479 458 L 480 457 L 481 450 L 483 447 L 485 439 L 484 438 L 484 434 L 483 433 L 482 425 L 481 424 L 481 419 L 480 418 L 475 395 L 472 386 L 470 383 L 470 381 L 468 378 L 468 376 L 456 352 L 455 346 L 457 344 L 460 347 L 469 361 L 476 375 L 476 377 L 480 385 L 485 400 L 485 403 L 486 404 L 486 407 L 487 408 L 487 411 L 490 420 L 492 434 L 494 439 L 494 442 L 491 448 L 489 454 L 489 457 L 488 458 L 488 472 L 491 479 L 495 483 L 499 485 L 503 485 L 507 481 L 511 471 L 513 469 L 516 471 L 515 481 L 511 490 L 509 492 L 509 496 L 515 502 L 521 504 L 524 504 L 529 502 L 535 494 L 535 492 L 540 484 L 542 486 L 542 493 L 537 504 L 540 506 L 549 505 L 554 502 L 560 492 L 562 485 L 564 483 L 566 485 L 566 491 L 564 497 L 565 498 L 568 497 L 573 492 L 577 486 L 581 476 L 582 468 L 583 467 L 583 462 L 584 461 L 584 447 L 583 446 L 582 438 L 586 435 L 586 432 L 577 405 L 578 403 L 581 403 L 582 401 L 571 382 L 568 379 L 570 376 L 571 377 L 574 377 L 575 376 L 565 361 L 556 350 L 558 348 L 565 350 L 566 348 L 564 345 L 563 345 L 539 322 L 540 320 L 547 320 L 548 317 L 523 298 L 524 296 L 528 296 L 530 294 L 528 291 L 518 287 L 511 282 L 512 280 L 517 280 L 519 278 L 515 274 L 492 259 L 493 257 L 498 257 L 499 255 L 493 251 L 491 251 L 482 246 L 476 244 L 473 241 L 477 238 L 474 236 L 472 236 L 469 233 L 471 231 L 469 229 L 465 229 L 464 228 L 465 224 L 471 217 L 477 204 L 477 196 L 478 195 L 483 196 L 485 194 L 485 179 L 484 178 L 484 175 L 486 173 L 489 176 L 491 176 L 492 175 L 492 168 L 486 155 L 484 153 L 486 151 L 493 152 L 494 151 L 494 147 L 487 137 L 480 130 L 482 128 L 491 128 L 492 127 L 492 124 L 485 118 L 482 117 L 477 113 L 477 112 L 480 110 L 480 107 L 474 99 L 466 84 L 460 76 L 460 73 L 464 71 L 468 67 L 474 56 L 474 53 L 475 52 L 475 41 L 473 35 L 468 27 L 462 21 Z M 451 15 L 462 22 L 471 32 L 474 39 L 474 43 L 475 44 L 474 55 L 467 67 L 460 72 L 458 75 L 462 79 L 469 90 L 475 102 L 480 108 L 478 110 L 476 110 L 475 113 L 485 119 L 491 125 L 490 128 L 482 128 L 480 127 L 479 130 L 490 142 L 494 149 L 492 152 L 487 150 L 484 150 L 483 151 L 489 162 L 492 173 L 490 175 L 486 172 L 483 173 L 483 176 L 484 177 L 484 193 L 482 195 L 479 193 L 477 194 L 476 205 L 473 210 L 473 212 L 468 220 L 462 226 L 462 228 L 463 229 L 466 229 L 468 231 L 466 233 L 467 235 L 469 236 L 473 236 L 474 238 L 470 241 L 472 243 L 478 245 L 483 248 L 485 248 L 497 254 L 496 256 L 492 256 L 490 257 L 489 259 L 494 262 L 496 262 L 514 274 L 517 278 L 516 279 L 508 279 L 508 281 L 515 286 L 523 290 L 525 290 L 528 293 L 527 295 L 521 295 L 520 297 L 528 302 L 547 317 L 545 320 L 543 319 L 536 319 L 536 320 L 565 347 L 563 349 L 557 348 L 556 347 L 553 348 L 562 358 L 574 375 L 572 377 L 569 375 L 566 375 L 566 377 L 578 394 L 581 400 L 579 402 L 576 400 L 575 403 L 578 407 L 580 413 L 580 416 L 581 417 L 581 420 L 585 430 L 585 433 L 584 434 L 581 434 L 582 442 L 583 443 L 583 451 L 584 452 L 583 455 L 582 470 L 581 471 L 581 474 L 578 483 L 573 491 L 568 496 L 566 496 L 565 495 L 566 493 L 566 483 L 563 482 L 561 485 L 557 497 L 549 504 L 546 505 L 540 505 L 538 502 L 541 497 L 543 487 L 542 484 L 539 483 L 533 496 L 529 501 L 525 503 L 519 503 L 515 501 L 509 495 L 509 493 L 513 488 L 516 479 L 516 470 L 514 468 L 511 470 L 507 480 L 503 484 L 498 484 L 496 483 L 490 476 L 489 470 L 488 469 L 488 460 L 489 459 L 489 455 L 491 449 L 494 443 L 494 437 L 492 433 L 492 428 L 491 427 L 490 418 L 489 417 L 485 398 L 480 383 L 478 380 L 478 378 L 468 358 L 460 346 L 457 343 L 454 344 L 454 348 L 456 354 L 463 366 L 463 368 L 467 375 L 467 377 L 469 380 L 469 382 L 473 391 L 473 394 L 476 401 L 476 405 L 479 414 L 479 418 L 480 419 L 483 438 L 484 439 L 479 454 L 479 457 L 478 458 L 478 473 L 479 474 L 479 477 L 482 484 L 490 493 L 496 495 L 500 498 L 504 510 L 504 516 L 505 519 L 503 521 L 500 520 L 500 525 L 507 541 L 507 543 L 504 544 L 500 541 L 498 541 L 497 543 L 505 558 L 506 563 L 508 566 L 508 569 L 507 570 L 503 568 L 501 569 L 505 578 L 502 582 L 504 588 L 504 612 L 503 613 L 503 620 L 502 621 L 501 630 L 497 635 L 497 637 L 499 639 L 508 643 L 514 649 L 518 659 L 518 668 L 517 671 L 512 677 L 508 678 L 506 676 L 506 668 L 505 667 L 505 664 L 504 662 L 498 657 L 496 659 L 497 678 L 494 681 L 491 682 L 481 683 L 479 681 L 480 679 L 480 670 L 479 669 L 478 663 L 475 660 L 471 660 L 469 663 L 470 666 L 470 677 L 471 678 L 471 681 L 468 684 L 449 684 L 447 682 L 447 665 L 444 661 L 441 661 L 438 665 L 438 679 L 439 681 L 437 683 L 422 682 L 421 681 L 417 681 L 406 677 L 400 671 L 398 666 L 398 657 L 399 656 L 399 651 L 401 646 L 400 631 L 399 630 L 396 632 L 394 631 L 393 628 L 393 616 L 394 615 L 394 612 L 393 611 L 391 612 L 389 610 L 390 595 L 389 594 L 387 595 L 384 594 L 384 590 L 383 589 L 382 582 L 378 574 L 381 570 L 383 570 L 385 568 L 385 564 L 382 562 L 379 562 L 374 564 L 367 564 L 366 565 L 361 565 L 359 566 L 358 565 L 352 565 L 351 564 L 344 564 L 338 562 L 333 562 L 318 557 L 310 557 L 309 560 L 317 566 L 319 566 L 322 568 L 334 572 L 337 572 L 340 575 L 337 584 L 337 596 L 335 598 L 332 595 L 330 596 L 331 609 L 332 610 L 332 625 L 331 628 L 329 630 L 327 628 L 325 629 L 325 636 L 326 637 L 326 657 L 321 665 L 311 669 L 307 669 L 301 671 L 295 671 L 294 672 L 288 672 L 287 673 L 270 674 L 269 675 L 242 675 L 240 673 L 240 662 L 242 657 L 242 653 L 241 652 L 237 652 L 234 655 L 232 659 L 232 662 L 231 663 L 231 671 L 229 673 L 225 673 L 224 672 L 220 672 L 215 668 L 216 657 L 219 651 L 219 649 L 217 647 L 215 647 L 210 651 L 207 659 L 207 666 L 204 668 L 199 662 L 199 651 L 203 640 L 210 634 L 217 631 L 225 630 L 226 629 L 241 629 L 242 630 L 247 630 L 252 632 L 255 631 L 253 629 L 248 627 L 238 626 L 234 622 L 232 616 L 232 613 L 231 612 L 231 609 L 230 608 L 229 598 L 227 594 L 227 585 L 224 582 L 224 579 L 226 574 L 226 569 L 224 568 L 221 570 L 219 568 L 220 561 L 226 544 L 226 541 L 225 540 L 221 542 L 219 540 L 221 534 L 224 529 L 224 527 L 226 525 L 226 523 L 225 522 L 222 522 L 220 519 L 222 517 L 226 509 L 226 507 L 229 504 L 230 505 L 233 505 L 234 504 L 234 501 L 228 488 L 226 475 L 225 474 L 222 477 L 220 476 L 221 452 L 220 451 L 219 453 L 216 455 L 215 454 L 215 448 L 216 447 L 217 439 L 222 424 L 219 423 L 217 425 L 215 425 L 214 424 L 214 420 L 224 401 L 228 396 L 227 393 L 220 394 L 219 391 L 234 372 L 233 369 L 229 370 L 227 368 L 227 366 L 230 363 L 237 352 L 237 347 L 239 343 L 241 333 L 244 327 L 244 323 L 242 321 L 238 321 L 236 323 L 228 342 L 226 344 L 224 344 L 220 339 L 205 339 L 203 338 L 202 336 L 204 334 L 204 332 L 202 330 L 199 329 L 190 329 L 189 328 L 180 328 L 176 325 L 182 320 L 179 318 L 160 314 L 157 312 L 154 312 L 150 310 L 148 308 L 150 306 L 155 305 L 156 302 L 153 299 L 149 298 L 144 295 L 142 295 L 137 291 L 134 290 L 126 283 L 121 280 L 106 264 L 100 253 L 98 251 L 92 238 L 88 234 L 75 227 L 69 222 L 65 220 L 50 205 L 47 200 L 48 192 L 51 189 L 55 187 L 61 187 L 66 185 L 74 185 L 75 184 L 75 178 L 72 174 L 61 166 L 57 166 L 54 168 L 54 171 L 52 173 L 49 170 L 48 165 L 50 161 L 53 158 L 57 158 L 58 157 L 62 158 L 68 164 L 75 169 L 78 169 L 81 165 L 86 165 L 91 161 L 91 157 L 86 149 L 76 140 L 73 139 L 71 141 L 71 149 L 70 150 L 68 150 L 65 147 L 64 144 L 65 136 L 71 131 L 75 131 L 81 134 L 93 146 L 94 149 L 98 154 L 101 154 L 102 153 L 115 154 L 116 153 L 116 146 L 112 138 L 108 133 L 105 131 L 102 131 L 100 133 L 99 136 L 97 135 L 96 127 L 100 123 L 106 123 L 108 124 L 115 131 L 122 145 L 124 147 L 126 147 L 128 145 L 131 139 L 135 135 L 137 134 L 141 134 L 148 141 L 151 146 L 151 149 L 152 150 L 152 169 L 150 174 L 151 178 L 164 190 L 165 190 L 180 205 L 180 206 L 184 209 L 187 209 L 188 206 L 190 205 L 195 210 L 204 224 L 208 228 L 211 227 L 211 221 L 214 219 L 219 224 L 224 233 L 229 237 L 231 235 L 232 230 L 235 229 L 246 242 L 249 240 L 249 237 L 252 236 L 260 243 L 263 243 L 266 241 L 272 248 L 274 248 L 276 246 L 276 242 L 274 238 L 267 230 L 266 227 L 263 224 L 259 227 L 257 225 L 254 218 L 254 214 L 252 211 L 251 211 L 249 215 L 247 215 L 245 213 L 242 204 L 242 194 L 243 192 L 241 190 L 238 193 L 236 193 L 234 191 L 234 184 L 235 183 L 235 178 L 236 177 L 237 170 L 234 170 L 233 171 L 230 171 L 229 170 L 230 164 L 236 153 L 236 150 L 235 149 L 228 150 L 227 147 L 232 140 L 236 137 L 239 133 L 237 127 L 238 122 L 247 103 L 245 100 L 240 99 L 237 97 L 229 89 L 226 83 L 226 80 L 225 79 L 225 70 L 226 69 L 227 62 L 230 56 L 242 45 L 253 41 L 262 41 L 274 47 L 278 51 L 279 54 L 282 56 L 293 48 L 301 44 L 306 43 L 310 38 L 314 38 L 315 37 L 328 37 L 329 36 L 329 33 L 326 29 L 326 27 L 328 25 L 334 26 L 342 31 L 346 32 L 352 25 L 359 21 L 361 22 L 361 26 L 359 30 L 360 33 L 362 32 L 366 32 L 367 31 L 381 31 L 382 32 L 386 32 L 387 33 L 400 35 L 403 37 L 408 38 L 411 29 L 414 25 L 422 18 L 435 13 L 443 13 L 444 14 Z M 459 8 L 450 5 L 447 5 L 446 4 L 432 4 L 431 5 L 427 5 L 414 11 L 405 20 L 404 23 L 402 25 L 383 23 L 382 22 L 371 22 L 369 20 L 368 17 L 363 13 L 356 13 L 353 14 L 344 21 L 336 17 L 325 16 L 320 19 L 318 23 L 318 27 L 316 29 L 311 29 L 310 30 L 304 31 L 302 33 L 293 37 L 286 42 L 283 42 L 274 35 L 272 35 L 266 32 L 262 32 L 261 31 L 254 31 L 253 32 L 245 33 L 242 35 L 238 36 L 229 42 L 221 51 L 217 59 L 215 65 L 215 69 L 214 70 L 214 77 L 215 78 L 215 83 L 217 89 L 219 91 L 222 97 L 234 108 L 234 110 L 228 121 L 228 133 L 221 140 L 219 143 L 219 146 L 218 147 L 219 154 L 223 158 L 223 161 L 220 167 L 220 172 L 222 177 L 225 180 L 225 192 L 227 197 L 233 204 L 233 210 L 236 216 L 233 220 L 229 220 L 217 210 L 214 209 L 205 210 L 195 197 L 190 194 L 182 194 L 174 186 L 174 185 L 161 173 L 161 150 L 160 149 L 160 145 L 158 142 L 157 138 L 149 128 L 143 125 L 135 125 L 130 129 L 126 130 L 114 117 L 106 113 L 99 113 L 92 116 L 85 125 L 83 125 L 78 122 L 75 122 L 74 121 L 66 122 L 59 128 L 55 135 L 55 147 L 53 149 L 50 149 L 46 151 L 42 156 L 39 162 L 38 169 L 39 170 L 40 176 L 42 179 L 42 183 L 39 186 L 37 190 L 36 198 L 37 199 L 37 203 L 39 206 L 39 208 L 43 214 L 56 226 L 77 240 L 81 241 L 83 243 L 90 258 L 103 276 L 119 292 L 132 300 L 137 305 L 137 308 L 142 316 L 151 321 L 154 321 L 157 323 L 162 324 L 164 326 L 165 330 L 171 335 L 178 336 L 179 337 L 186 337 L 188 338 L 194 345 L 200 346 L 201 347 L 208 347 L 215 352 L 221 353 L 223 355 L 218 367 L 218 374 L 219 377 L 212 386 L 211 390 L 209 393 L 209 397 L 212 401 L 212 405 L 210 407 L 205 419 L 205 431 L 209 436 L 207 442 L 207 445 L 206 446 L 206 459 L 208 464 L 210 466 L 210 476 L 212 482 L 216 489 L 220 493 L 215 509 L 212 514 L 210 520 L 210 524 L 213 530 L 209 539 L 209 544 L 213 550 L 213 552 L 210 559 L 209 569 L 211 574 L 215 578 L 215 589 L 216 590 L 216 594 L 217 595 L 218 605 L 219 606 L 219 610 L 220 611 L 221 618 L 218 621 L 215 621 L 209 623 L 201 628 L 194 635 L 188 648 L 188 662 L 191 669 L 196 674 L 204 678 L 214 680 L 215 681 L 219 681 L 220 682 L 236 683 L 237 684 L 273 684 L 274 683 L 284 683 L 285 682 L 292 682 L 293 681 L 299 681 L 300 680 L 314 678 L 327 673 L 334 666 L 337 659 L 337 655 L 338 654 L 338 643 L 337 642 L 337 639 L 341 634 L 342 631 L 342 627 L 343 626 L 343 606 L 347 602 L 348 599 L 348 590 L 349 589 L 349 584 L 350 583 L 350 577 L 352 575 L 355 575 L 356 576 L 367 576 L 370 579 L 370 582 L 372 586 L 372 589 L 374 593 L 375 599 L 378 605 L 381 608 L 382 622 L 383 623 L 384 631 L 386 634 L 386 636 L 391 643 L 390 645 L 390 649 L 389 650 L 389 654 L 388 655 L 388 668 L 392 677 L 401 685 L 414 690 L 422 691 L 423 692 L 428 692 L 429 693 L 439 693 L 440 694 L 474 694 L 475 693 L 487 693 L 488 692 L 504 690 L 513 687 L 520 683 L 525 678 L 528 673 L 529 666 L 530 665 L 530 661 L 529 660 L 529 655 L 527 649 L 522 641 L 512 632 L 513 623 L 514 622 L 514 613 L 515 612 L 515 583 L 518 580 L 520 576 L 519 567 L 515 558 L 515 553 L 518 549 L 517 539 L 513 531 L 516 526 L 515 514 L 516 513 L 522 515 L 532 514 L 538 517 L 550 516 L 569 508 L 575 504 L 583 496 L 590 484 L 593 475 L 594 466 L 595 465 L 595 449 L 594 448 L 594 442 L 596 440 L 596 430 L 595 429 L 595 425 L 592 416 L 590 413 L 590 410 L 592 408 L 592 401 L 588 391 L 583 384 L 585 381 L 585 376 L 580 366 L 574 359 L 574 356 L 576 354 L 576 347 L 575 345 L 557 326 L 558 316 L 547 304 L 538 297 L 539 295 L 539 289 L 533 283 L 530 282 L 527 279 L 527 275 L 526 273 L 519 266 L 515 264 L 512 261 L 512 254 L 507 249 L 501 245 L 490 240 L 488 238 L 488 233 L 480 224 L 480 221 L 484 215 L 487 206 L 492 201 L 494 197 L 494 189 L 495 186 L 499 182 L 501 178 L 501 166 L 499 161 L 502 158 L 504 151 L 503 150 L 502 143 L 497 136 L 497 134 L 501 129 L 500 121 L 496 116 L 489 111 L 489 106 L 481 91 L 472 77 L 481 65 L 484 58 L 484 55 L 485 54 L 485 41 L 484 40 L 483 33 L 476 21 L 466 12 L 461 10 Z M 455 7 L 465 12 L 476 22 L 482 32 L 484 38 L 484 42 L 485 43 L 485 53 L 481 64 L 477 70 L 472 75 L 472 79 L 478 87 L 483 97 L 485 99 L 488 105 L 488 110 L 491 114 L 494 115 L 498 119 L 501 125 L 501 128 L 497 133 L 497 137 L 501 142 L 503 147 L 503 155 L 499 160 L 499 163 L 501 167 L 501 177 L 499 181 L 494 186 L 494 194 L 493 195 L 493 198 L 487 205 L 479 223 L 486 231 L 488 235 L 487 238 L 490 241 L 500 245 L 506 249 L 512 255 L 511 262 L 518 266 L 526 274 L 526 279 L 532 283 L 539 290 L 538 298 L 545 303 L 557 315 L 558 317 L 558 321 L 556 324 L 556 326 L 575 346 L 576 348 L 576 353 L 573 356 L 573 358 L 580 367 L 585 377 L 585 379 L 583 382 L 583 385 L 588 392 L 592 402 L 592 406 L 589 411 L 595 428 L 595 440 L 593 443 L 594 446 L 594 452 L 595 453 L 594 468 L 593 469 L 593 473 L 589 485 L 583 495 L 574 504 L 568 508 L 564 509 L 552 515 L 549 515 L 548 516 L 537 516 L 531 513 L 529 514 L 520 514 L 517 512 L 514 513 L 514 516 L 515 517 L 515 527 L 513 529 L 513 533 L 517 541 L 517 550 L 514 553 L 514 557 L 518 565 L 518 568 L 519 569 L 519 577 L 518 579 L 514 582 L 515 601 L 514 602 L 514 618 L 513 619 L 513 625 L 512 626 L 511 633 L 516 636 L 522 642 L 527 650 L 528 656 L 529 657 L 529 668 L 525 677 L 516 685 L 505 689 L 501 689 L 496 691 L 490 691 L 489 692 L 480 692 L 479 693 L 435 693 L 434 692 L 421 691 L 420 690 L 417 690 L 416 689 L 413 689 L 404 686 L 402 684 L 399 683 L 392 676 L 389 670 L 389 667 L 388 666 L 388 658 L 389 657 L 389 652 L 390 651 L 391 642 L 386 635 L 383 626 L 383 622 L 382 621 L 382 609 L 376 600 L 370 578 L 368 575 L 351 575 L 350 576 L 350 582 L 348 588 L 348 598 L 347 601 L 342 607 L 342 619 L 343 621 L 342 622 L 342 630 L 341 633 L 337 638 L 337 657 L 334 665 L 326 673 L 308 679 L 303 679 L 302 680 L 297 680 L 296 681 L 290 681 L 289 682 L 263 683 L 262 684 L 231 683 L 230 682 L 223 682 L 222 681 L 217 681 L 216 680 L 205 678 L 197 674 L 190 666 L 188 660 L 188 651 L 189 650 L 189 647 L 191 641 L 193 639 L 194 636 L 202 628 L 211 623 L 217 622 L 221 620 L 221 613 L 219 608 L 219 604 L 217 598 L 217 593 L 215 587 L 215 577 L 210 572 L 209 569 L 210 560 L 213 553 L 213 549 L 210 546 L 210 543 L 209 542 L 210 536 L 213 531 L 213 528 L 211 526 L 210 522 L 213 513 L 215 510 L 215 508 L 217 505 L 220 496 L 220 492 L 214 485 L 212 481 L 211 475 L 210 474 L 210 465 L 208 463 L 206 458 L 206 447 L 209 439 L 209 434 L 205 430 L 205 419 L 211 406 L 213 404 L 213 401 L 210 398 L 209 394 L 212 387 L 219 377 L 218 368 L 224 356 L 224 354 L 223 353 L 216 352 L 209 347 L 197 346 L 195 345 L 189 338 L 175 336 L 168 333 L 166 331 L 163 324 L 152 321 L 143 316 L 139 312 L 136 303 L 121 293 L 105 278 L 90 257 L 84 244 L 81 241 L 78 240 L 57 226 L 51 221 L 41 210 L 37 202 L 37 191 L 43 182 L 43 180 L 39 173 L 39 169 L 38 168 L 39 167 L 39 162 L 43 155 L 47 151 L 55 148 L 55 136 L 56 133 L 65 123 L 67 122 L 77 122 L 82 125 L 85 125 L 94 115 L 100 114 L 101 113 L 105 113 L 110 115 L 117 120 L 126 131 L 128 131 L 136 125 L 141 125 L 142 126 L 145 126 L 148 128 L 153 133 L 157 139 L 160 147 L 160 151 L 161 152 L 161 174 L 167 180 L 168 180 L 180 193 L 183 195 L 189 194 L 193 196 L 205 211 L 215 210 L 223 215 L 228 220 L 235 220 L 236 219 L 236 215 L 234 212 L 234 209 L 233 208 L 233 202 L 227 196 L 225 190 L 226 180 L 221 174 L 221 165 L 224 160 L 224 158 L 219 153 L 219 144 L 229 133 L 228 123 L 232 114 L 235 110 L 235 107 L 231 105 L 222 96 L 218 90 L 215 81 L 215 66 L 217 60 L 222 51 L 229 43 L 242 35 L 248 33 L 251 33 L 252 32 L 263 32 L 264 33 L 267 33 L 276 37 L 283 43 L 286 43 L 289 40 L 309 30 L 317 30 L 319 28 L 319 22 L 322 18 L 327 16 L 334 17 L 342 21 L 346 21 L 351 16 L 358 13 L 362 13 L 368 18 L 369 21 L 371 23 L 386 23 L 387 24 L 393 24 L 394 25 L 402 26 L 404 24 L 405 21 L 415 11 L 425 6 L 435 5 L 436 4 L 443 4 L 444 5 L 448 5 L 449 6 Z" fill="#B1B1B1" fill-rule="evenodd"/><path d="M 275 141 L 274 145 L 273 146 L 273 159 L 275 163 L 278 166 L 278 167 L 283 171 L 291 174 L 294 177 L 294 182 L 295 183 L 297 191 L 299 195 L 301 197 L 302 200 L 307 206 L 307 207 L 312 212 L 312 213 L 322 223 L 327 226 L 329 226 L 329 225 L 322 217 L 320 213 L 320 206 L 321 205 L 321 203 L 323 201 L 325 197 L 333 189 L 344 183 L 347 183 L 348 182 L 357 182 L 358 183 L 361 183 L 363 185 L 366 186 L 371 192 L 371 200 L 370 201 L 369 206 L 363 217 L 364 218 L 366 216 L 372 205 L 372 203 L 375 196 L 375 192 L 376 191 L 376 187 L 377 186 L 377 181 L 378 180 L 378 162 L 377 161 L 377 155 L 375 152 L 375 150 L 373 148 L 372 148 L 370 150 L 369 153 L 363 159 L 352 165 L 350 165 L 343 168 L 340 168 L 339 169 L 329 169 L 328 168 L 323 168 L 322 167 L 318 167 L 317 166 L 313 166 L 312 165 L 307 165 L 305 167 L 298 171 L 292 171 L 285 168 L 279 162 L 277 158 L 277 146 L 278 145 L 278 141 L 277 140 Z M 331 130 L 329 128 L 321 124 L 318 124 L 317 123 L 312 123 L 311 122 L 309 122 L 308 123 L 301 123 L 300 124 L 297 124 L 294 126 L 292 126 L 287 129 L 284 132 L 284 140 L 286 144 L 295 152 L 297 153 L 300 153 L 301 154 L 309 154 L 310 153 L 313 153 L 316 151 L 318 151 L 320 149 L 326 146 L 329 143 L 332 138 L 332 132 Z M 291 101 L 288 101 L 285 103 L 285 104 L 283 106 L 283 108 L 281 112 L 281 119 L 282 120 L 282 122 L 284 124 L 286 124 L 288 122 L 289 122 L 294 116 L 294 111 L 295 109 L 294 108 L 294 105 Z M 372 94 L 367 100 L 367 103 L 366 104 L 366 111 L 367 112 L 368 116 L 372 120 L 378 120 L 380 118 L 382 114 L 383 106 L 382 105 L 382 102 L 379 96 L 376 94 Z M 300 64 L 297 62 L 292 63 L 283 71 L 282 74 L 283 75 L 287 74 L 291 70 L 295 68 L 297 68 L 300 65 Z M 366 55 L 368 57 L 372 57 L 375 59 L 377 59 L 384 64 L 385 64 L 387 62 L 386 58 L 383 55 L 377 52 L 368 52 Z M 455 8 L 449 7 L 448 6 L 444 6 L 443 5 L 436 5 L 435 6 L 429 6 L 428 7 L 425 7 L 415 12 L 406 21 L 405 24 L 402 27 L 394 26 L 393 25 L 387 25 L 386 24 L 371 24 L 368 21 L 367 18 L 362 14 L 358 14 L 357 15 L 355 15 L 351 17 L 346 22 L 342 22 L 334 18 L 330 18 L 329 17 L 327 17 L 321 20 L 320 22 L 320 28 L 317 31 L 309 31 L 308 32 L 306 32 L 298 36 L 296 38 L 289 41 L 286 44 L 283 44 L 276 38 L 270 35 L 264 34 L 263 33 L 252 33 L 251 34 L 248 34 L 236 39 L 230 44 L 229 44 L 223 51 L 218 60 L 218 62 L 216 66 L 216 81 L 217 82 L 217 85 L 219 88 L 219 90 L 221 92 L 223 96 L 231 104 L 234 105 L 236 107 L 236 110 L 233 114 L 229 123 L 229 129 L 230 130 L 230 133 L 220 144 L 220 153 L 225 158 L 225 160 L 222 165 L 222 174 L 227 180 L 227 183 L 226 184 L 226 190 L 227 191 L 228 196 L 234 202 L 234 208 L 235 209 L 235 212 L 237 215 L 237 219 L 235 221 L 228 221 L 223 216 L 215 211 L 209 211 L 208 212 L 205 212 L 193 197 L 189 195 L 183 196 L 181 194 L 180 194 L 176 190 L 176 189 L 160 174 L 160 152 L 159 151 L 159 147 L 158 146 L 156 139 L 154 137 L 152 133 L 148 129 L 147 129 L 145 127 L 142 127 L 141 126 L 136 126 L 131 129 L 128 132 L 126 132 L 117 121 L 116 121 L 110 116 L 106 115 L 105 114 L 101 114 L 100 115 L 94 116 L 85 126 L 82 126 L 77 123 L 67 123 L 65 124 L 58 131 L 57 133 L 57 135 L 56 136 L 56 148 L 54 150 L 51 150 L 47 152 L 44 155 L 40 162 L 40 167 L 39 168 L 40 169 L 40 173 L 44 180 L 44 182 L 40 187 L 38 191 L 38 202 L 42 210 L 44 212 L 44 213 L 57 225 L 58 225 L 61 228 L 62 228 L 67 232 L 70 233 L 78 239 L 81 240 L 85 244 L 91 257 L 95 262 L 96 265 L 106 277 L 106 278 L 108 280 L 109 280 L 112 283 L 112 284 L 121 292 L 134 300 L 137 303 L 139 310 L 143 315 L 152 320 L 163 323 L 165 325 L 165 327 L 168 332 L 175 335 L 179 335 L 180 336 L 186 336 L 187 337 L 189 337 L 191 339 L 191 340 L 197 345 L 201 345 L 202 346 L 209 346 L 216 351 L 223 352 L 225 354 L 225 356 L 219 368 L 219 373 L 220 374 L 220 377 L 213 387 L 210 394 L 211 398 L 214 401 L 214 404 L 212 406 L 208 414 L 208 416 L 206 419 L 206 430 L 210 434 L 210 439 L 209 440 L 208 446 L 207 447 L 207 458 L 208 459 L 209 463 L 211 465 L 211 474 L 212 475 L 213 481 L 215 485 L 221 492 L 221 496 L 220 497 L 218 505 L 216 508 L 216 510 L 214 513 L 214 515 L 212 518 L 212 521 L 211 522 L 212 526 L 214 528 L 214 531 L 211 536 L 210 542 L 211 543 L 211 546 L 214 549 L 214 553 L 211 560 L 210 569 L 211 570 L 211 572 L 216 577 L 216 587 L 217 588 L 217 592 L 218 593 L 218 598 L 219 599 L 220 608 L 221 609 L 221 612 L 222 613 L 222 620 L 220 622 L 211 624 L 202 629 L 195 636 L 194 639 L 192 641 L 192 643 L 190 647 L 190 650 L 189 651 L 189 660 L 190 661 L 190 664 L 191 666 L 197 673 L 205 677 L 208 677 L 209 678 L 212 678 L 213 679 L 216 679 L 217 680 L 222 680 L 223 681 L 230 681 L 231 682 L 262 683 L 263 682 L 279 682 L 280 681 L 289 681 L 290 680 L 296 680 L 297 679 L 308 678 L 309 677 L 316 676 L 317 675 L 319 675 L 326 672 L 333 665 L 335 658 L 336 657 L 336 638 L 340 633 L 340 631 L 341 630 L 341 622 L 342 621 L 341 619 L 341 607 L 346 601 L 346 599 L 347 598 L 347 588 L 348 587 L 348 583 L 349 582 L 349 576 L 351 574 L 368 574 L 371 578 L 372 584 L 374 588 L 374 591 L 375 592 L 377 600 L 379 604 L 383 609 L 383 621 L 384 622 L 384 626 L 385 627 L 387 635 L 392 642 L 392 646 L 391 647 L 391 651 L 390 652 L 390 657 L 389 658 L 389 666 L 390 667 L 390 670 L 393 676 L 399 682 L 402 683 L 404 685 L 406 685 L 413 688 L 420 689 L 421 690 L 434 691 L 435 692 L 479 692 L 480 691 L 489 691 L 490 690 L 496 690 L 497 689 L 500 689 L 501 688 L 505 688 L 506 687 L 508 687 L 509 686 L 516 684 L 524 677 L 527 671 L 527 669 L 528 668 L 528 657 L 527 656 L 526 650 L 521 642 L 516 637 L 515 637 L 510 633 L 510 630 L 511 629 L 511 626 L 512 625 L 512 619 L 513 618 L 513 602 L 514 601 L 513 582 L 515 580 L 516 580 L 518 577 L 518 569 L 517 568 L 516 562 L 513 557 L 513 553 L 516 550 L 516 541 L 512 533 L 512 529 L 514 527 L 514 517 L 513 516 L 513 513 L 515 511 L 517 511 L 520 513 L 529 513 L 531 512 L 537 515 L 548 515 L 549 514 L 552 514 L 564 508 L 568 507 L 570 505 L 574 503 L 582 495 L 588 485 L 588 483 L 590 480 L 590 477 L 592 473 L 592 469 L 593 468 L 594 453 L 593 452 L 593 446 L 592 445 L 592 443 L 594 440 L 594 428 L 593 427 L 593 424 L 592 423 L 592 421 L 591 420 L 591 418 L 588 411 L 591 406 L 591 402 L 590 401 L 590 399 L 587 392 L 582 385 L 582 382 L 584 379 L 584 377 L 579 367 L 572 358 L 572 356 L 575 353 L 575 348 L 574 346 L 572 344 L 572 343 L 555 326 L 555 324 L 557 321 L 557 317 L 556 315 L 545 304 L 544 304 L 537 298 L 538 290 L 532 284 L 528 282 L 525 279 L 525 274 L 518 267 L 512 264 L 510 262 L 510 260 L 511 259 L 511 255 L 506 250 L 505 250 L 500 246 L 496 245 L 490 242 L 486 238 L 487 235 L 485 231 L 479 225 L 478 223 L 484 211 L 484 209 L 486 205 L 492 198 L 492 195 L 493 194 L 493 186 L 498 181 L 500 177 L 500 167 L 498 163 L 498 160 L 502 155 L 502 147 L 501 146 L 500 142 L 496 137 L 496 133 L 499 130 L 500 128 L 500 125 L 497 119 L 488 112 L 487 110 L 487 105 L 484 99 L 482 97 L 477 87 L 471 79 L 471 75 L 476 70 L 476 69 L 480 64 L 482 60 L 483 54 L 484 53 L 484 43 L 483 42 L 483 38 L 482 37 L 481 32 L 478 26 L 470 17 L 469 17 L 465 13 Z M 452 14 L 462 20 L 469 27 L 469 28 L 473 33 L 475 40 L 476 41 L 476 52 L 475 53 L 475 56 L 469 67 L 464 72 L 461 73 L 461 76 L 467 84 L 475 99 L 481 107 L 481 110 L 479 111 L 478 113 L 482 116 L 485 117 L 493 124 L 493 127 L 491 129 L 482 129 L 481 130 L 488 137 L 488 138 L 492 142 L 495 147 L 495 151 L 493 153 L 489 153 L 488 152 L 486 152 L 485 153 L 487 155 L 491 163 L 491 165 L 493 168 L 493 175 L 491 177 L 489 177 L 486 174 L 485 175 L 485 178 L 486 179 L 486 194 L 483 197 L 478 196 L 478 204 L 477 205 L 477 207 L 472 217 L 466 224 L 465 228 L 469 228 L 472 231 L 470 233 L 472 235 L 474 235 L 478 238 L 474 241 L 476 243 L 480 245 L 482 245 L 491 250 L 493 250 L 497 252 L 500 255 L 500 256 L 498 258 L 493 258 L 493 259 L 499 262 L 505 267 L 515 273 L 520 278 L 517 281 L 512 281 L 512 282 L 513 282 L 518 286 L 522 287 L 528 290 L 531 293 L 531 294 L 528 297 L 524 297 L 524 298 L 526 300 L 529 301 L 540 310 L 541 310 L 549 317 L 549 319 L 547 321 L 540 321 L 540 322 L 544 326 L 545 326 L 563 344 L 564 344 L 567 348 L 567 349 L 565 351 L 563 351 L 559 349 L 557 350 L 566 361 L 566 362 L 568 364 L 570 368 L 574 372 L 576 376 L 574 378 L 571 378 L 570 377 L 569 379 L 572 382 L 573 385 L 577 390 L 578 393 L 580 395 L 583 401 L 583 402 L 581 404 L 578 404 L 578 405 L 579 406 L 579 408 L 581 412 L 581 415 L 582 416 L 582 419 L 583 420 L 583 422 L 584 423 L 584 425 L 586 428 L 586 431 L 587 432 L 587 435 L 583 438 L 584 446 L 585 447 L 585 461 L 584 462 L 584 467 L 583 468 L 582 476 L 581 477 L 581 479 L 578 486 L 576 488 L 574 492 L 568 498 L 565 499 L 563 497 L 564 495 L 564 492 L 565 491 L 565 485 L 564 484 L 562 487 L 561 492 L 558 498 L 554 503 L 549 506 L 546 506 L 545 507 L 540 507 L 536 504 L 541 493 L 541 486 L 540 485 L 536 492 L 536 494 L 529 503 L 525 504 L 524 505 L 521 505 L 520 504 L 515 503 L 508 496 L 508 492 L 510 490 L 514 481 L 514 478 L 515 477 L 515 471 L 514 470 L 512 471 L 508 481 L 503 486 L 499 486 L 495 484 L 490 479 L 488 475 L 488 473 L 487 472 L 487 458 L 488 457 L 488 454 L 489 453 L 490 448 L 493 442 L 493 439 L 492 438 L 492 435 L 491 434 L 491 430 L 490 429 L 490 425 L 489 424 L 489 420 L 488 419 L 488 416 L 487 415 L 487 412 L 486 411 L 484 400 L 483 399 L 479 385 L 475 377 L 475 375 L 462 351 L 457 345 L 456 346 L 457 352 L 469 376 L 469 378 L 471 381 L 471 383 L 473 386 L 473 388 L 476 395 L 476 398 L 477 399 L 477 402 L 478 403 L 478 406 L 479 407 L 479 410 L 480 411 L 480 414 L 481 415 L 481 418 L 482 419 L 482 424 L 483 425 L 483 429 L 484 430 L 484 433 L 485 434 L 485 438 L 486 439 L 484 447 L 482 450 L 481 457 L 480 458 L 480 473 L 481 474 L 481 477 L 485 485 L 489 490 L 490 490 L 493 493 L 499 494 L 501 496 L 502 498 L 502 501 L 504 505 L 504 508 L 505 509 L 506 517 L 507 518 L 507 521 L 505 523 L 501 523 L 501 524 L 508 539 L 509 545 L 507 547 L 506 547 L 501 544 L 500 546 L 502 548 L 505 554 L 507 561 L 510 566 L 511 571 L 509 573 L 506 572 L 504 570 L 503 571 L 507 578 L 507 581 L 504 584 L 505 586 L 505 590 L 506 591 L 506 602 L 505 603 L 505 616 L 504 617 L 504 623 L 503 624 L 502 632 L 500 634 L 499 637 L 510 643 L 514 647 L 514 648 L 518 653 L 518 655 L 519 656 L 519 660 L 520 661 L 520 666 L 519 667 L 519 670 L 516 675 L 513 678 L 506 680 L 504 678 L 504 676 L 505 675 L 505 669 L 504 668 L 504 665 L 503 663 L 499 659 L 498 659 L 497 660 L 497 664 L 498 665 L 498 669 L 499 670 L 499 676 L 498 677 L 498 679 L 493 683 L 489 683 L 488 684 L 480 684 L 478 682 L 478 668 L 475 662 L 472 662 L 471 663 L 472 682 L 469 685 L 448 685 L 446 683 L 446 668 L 445 667 L 445 664 L 444 663 L 441 663 L 439 667 L 440 683 L 438 685 L 433 685 L 432 684 L 425 684 L 424 683 L 420 683 L 419 682 L 412 681 L 409 679 L 405 678 L 399 672 L 397 668 L 397 653 L 398 652 L 398 649 L 399 648 L 399 633 L 398 632 L 396 634 L 394 634 L 392 631 L 392 615 L 388 612 L 388 597 L 385 598 L 383 596 L 383 592 L 381 588 L 381 584 L 376 574 L 376 572 L 378 570 L 382 569 L 383 568 L 383 565 L 382 564 L 377 564 L 376 565 L 372 565 L 371 566 L 367 566 L 366 567 L 355 567 L 354 566 L 347 566 L 346 565 L 335 564 L 334 563 L 331 563 L 330 562 L 327 562 L 326 561 L 323 561 L 322 560 L 320 560 L 319 559 L 315 559 L 314 558 L 312 558 L 311 560 L 316 564 L 320 565 L 323 567 L 331 569 L 332 570 L 336 570 L 337 571 L 339 571 L 341 573 L 340 582 L 338 586 L 338 593 L 339 594 L 339 598 L 337 600 L 335 600 L 333 598 L 332 599 L 332 602 L 333 603 L 333 630 L 330 633 L 327 631 L 326 632 L 327 633 L 327 639 L 328 640 L 328 655 L 327 656 L 327 659 L 325 663 L 321 667 L 317 669 L 311 670 L 310 671 L 306 671 L 305 672 L 294 673 L 293 674 L 284 674 L 283 675 L 276 675 L 275 676 L 241 676 L 239 674 L 239 672 L 238 671 L 239 660 L 241 656 L 241 654 L 239 653 L 236 655 L 233 661 L 233 673 L 231 675 L 229 675 L 228 674 L 222 674 L 221 673 L 218 673 L 214 670 L 214 660 L 215 659 L 215 656 L 217 652 L 217 650 L 216 649 L 214 649 L 211 652 L 209 656 L 209 668 L 207 670 L 205 670 L 199 665 L 198 663 L 198 660 L 197 659 L 198 649 L 199 648 L 200 643 L 202 641 L 202 640 L 209 633 L 213 631 L 215 631 L 219 629 L 223 629 L 224 628 L 230 628 L 231 627 L 234 627 L 235 626 L 232 621 L 231 615 L 230 614 L 230 611 L 229 610 L 228 600 L 226 596 L 226 587 L 222 584 L 222 582 L 223 581 L 223 577 L 224 576 L 224 573 L 225 571 L 223 570 L 221 572 L 220 572 L 218 570 L 218 564 L 219 563 L 219 560 L 220 559 L 221 553 L 222 552 L 222 550 L 225 543 L 224 542 L 221 544 L 219 544 L 217 542 L 217 540 L 220 535 L 220 533 L 224 525 L 224 524 L 220 524 L 218 522 L 218 520 L 220 518 L 224 510 L 226 503 L 228 501 L 229 501 L 231 503 L 232 502 L 232 500 L 226 486 L 225 478 L 221 480 L 218 476 L 218 466 L 219 465 L 219 458 L 220 456 L 219 455 L 216 458 L 213 455 L 213 453 L 214 452 L 214 446 L 215 445 L 217 434 L 220 428 L 220 425 L 216 427 L 214 427 L 212 425 L 212 422 L 219 407 L 226 397 L 225 395 L 219 396 L 217 394 L 217 392 L 224 383 L 224 382 L 232 373 L 232 371 L 227 372 L 225 370 L 225 367 L 235 353 L 235 348 L 236 347 L 236 345 L 237 344 L 237 342 L 238 341 L 238 339 L 239 338 L 243 324 L 242 323 L 239 323 L 237 325 L 234 331 L 234 333 L 231 338 L 230 342 L 226 346 L 221 346 L 219 344 L 219 342 L 218 341 L 214 341 L 213 340 L 202 340 L 199 338 L 199 336 L 201 334 L 201 332 L 200 331 L 195 331 L 194 330 L 182 330 L 181 329 L 178 329 L 176 328 L 174 326 L 174 324 L 178 321 L 177 319 L 174 319 L 173 318 L 169 318 L 168 317 L 161 316 L 158 314 L 155 314 L 152 312 L 150 312 L 146 308 L 146 307 L 149 304 L 153 304 L 153 302 L 151 300 L 147 298 L 145 298 L 135 293 L 122 282 L 121 282 L 110 271 L 110 270 L 102 261 L 102 259 L 100 257 L 98 252 L 96 250 L 95 246 L 93 244 L 91 239 L 86 234 L 75 229 L 72 226 L 71 226 L 64 220 L 63 220 L 54 212 L 54 211 L 47 203 L 47 201 L 46 200 L 46 194 L 47 192 L 51 188 L 58 185 L 58 184 L 48 172 L 48 170 L 47 169 L 47 165 L 48 164 L 48 162 L 53 157 L 55 157 L 56 156 L 61 156 L 66 160 L 71 162 L 71 159 L 63 146 L 63 139 L 64 138 L 64 136 L 70 130 L 76 130 L 82 133 L 92 143 L 92 144 L 97 150 L 98 150 L 98 148 L 97 147 L 97 143 L 96 142 L 96 138 L 95 137 L 95 126 L 99 122 L 106 122 L 111 125 L 118 133 L 121 139 L 121 141 L 124 145 L 126 145 L 127 144 L 127 143 L 133 135 L 137 133 L 141 133 L 148 139 L 153 149 L 154 164 L 153 165 L 153 170 L 152 171 L 152 177 L 169 193 L 170 193 L 185 208 L 186 207 L 186 204 L 187 203 L 190 203 L 199 213 L 205 223 L 208 226 L 210 225 L 210 219 L 212 217 L 213 217 L 220 223 L 224 231 L 228 234 L 230 232 L 231 228 L 233 226 L 234 226 L 239 230 L 239 231 L 242 234 L 245 239 L 247 239 L 247 235 L 249 233 L 250 233 L 260 241 L 265 238 L 269 242 L 269 243 L 272 246 L 273 246 L 274 245 L 274 241 L 266 231 L 266 230 L 264 228 L 263 228 L 262 230 L 260 230 L 256 226 L 256 225 L 254 223 L 254 220 L 253 219 L 253 216 L 252 215 L 251 215 L 249 217 L 247 217 L 244 214 L 242 210 L 242 207 L 241 206 L 241 194 L 240 193 L 238 195 L 235 195 L 233 193 L 233 191 L 232 190 L 232 185 L 233 184 L 233 181 L 234 180 L 234 177 L 235 176 L 235 172 L 230 174 L 228 172 L 228 165 L 235 152 L 234 151 L 232 152 L 228 152 L 225 149 L 225 147 L 227 145 L 227 144 L 237 134 L 236 124 L 241 114 L 241 112 L 243 109 L 243 107 L 245 103 L 243 101 L 241 101 L 236 98 L 228 90 L 225 84 L 225 82 L 224 81 L 224 74 L 223 72 L 224 71 L 224 68 L 225 67 L 225 63 L 229 55 L 238 46 L 245 42 L 247 42 L 251 40 L 264 40 L 272 44 L 278 49 L 281 54 L 283 54 L 292 47 L 300 43 L 304 42 L 306 40 L 306 39 L 310 36 L 323 36 L 324 35 L 327 35 L 327 32 L 325 30 L 325 28 L 324 27 L 324 25 L 326 23 L 330 23 L 331 24 L 333 24 L 338 27 L 340 27 L 344 30 L 346 30 L 354 22 L 360 19 L 363 22 L 363 25 L 361 28 L 361 30 L 362 31 L 364 30 L 385 30 L 386 31 L 390 31 L 391 32 L 394 32 L 395 33 L 399 33 L 402 35 L 407 36 L 408 35 L 408 32 L 413 24 L 418 19 L 426 14 L 428 14 L 432 12 L 436 12 L 437 11 L 439 11 L 440 12 L 446 12 L 447 13 Z" fill="#010101" fill-rule="evenodd"/></svg>