<svg xmlns="http://www.w3.org/2000/svg" viewBox="0 0 486 514" shape-rendering="geometricPrecision"><title>cover-peek transparent</title><defs><clipPath id="clip-card"><rect x="0" y="0" width="486" height="514" rx="29" ry="29"/></clipPath><clipPath id="clip-transparent"><rect x="12" y="12" width="474" height="502"/></clipPath></defs><g clip-path="url(#clip-transparent)"><path d="M 222 460 L 223 461 L 274 461 L 275 459 L 270 453 L 269 450 L 269 442 L 264 438 L 261 430 L 261 427 L 259 425 L 255 425 L 254 426 L 251 425 L 243 425 L 241 427 L 238 436 L 236 439 L 231 443 L 227 455 Z M 344 403 L 342 403 L 341 410 L 336 420 L 333 419 L 333 413 L 332 412 L 331 405 L 329 405 L 329 407 L 327 409 L 324 416 L 314 431 L 296 453 L 297 454 L 304 449 L 306 451 L 300 462 L 300 469 L 302 471 L 311 471 L 312 472 L 333 472 L 334 470 L 331 464 L 333 461 L 338 461 L 342 466 L 342 469 L 344 471 L 348 469 L 348 466 L 345 462 L 347 459 L 352 459 L 356 463 L 357 466 L 356 459 L 358 457 L 360 457 L 360 455 L 357 452 L 350 449 L 347 449 L 343 446 L 343 443 L 345 438 L 345 430 L 346 429 L 345 417 L 347 415 L 349 416 L 349 413 Z M 283 175 L 282 175 L 282 176 L 276 182 L 265 188 L 257 188 L 254 187 L 248 183 L 244 182 L 238 176 L 237 176 L 238 177 L 237 182 L 234 185 L 228 198 L 223 206 L 215 214 L 211 216 L 211 219 L 206 225 L 206 228 L 201 236 L 190 246 L 189 250 L 180 262 L 165 277 L 156 283 L 144 297 L 144 299 L 149 298 L 151 300 L 138 318 L 139 319 L 142 318 L 144 316 L 147 316 L 151 313 L 154 314 L 146 329 L 145 341 L 147 340 L 150 334 L 155 330 L 156 332 L 152 344 L 152 356 L 153 357 L 156 353 L 159 351 L 161 353 L 161 356 L 166 366 L 164 369 L 161 370 L 158 368 L 156 369 L 157 371 L 156 379 L 153 382 L 151 387 L 146 394 L 143 402 L 143 404 L 147 401 L 150 403 L 147 412 L 147 415 L 146 416 L 146 420 L 149 418 L 151 419 L 151 438 L 152 439 L 152 448 L 144 451 L 137 457 L 135 462 L 135 466 L 136 466 L 136 464 L 139 460 L 143 459 L 145 461 L 145 466 L 144 467 L 144 470 L 145 471 L 147 470 L 148 465 L 153 460 L 157 460 L 159 462 L 156 468 L 156 472 L 157 473 L 161 473 L 163 471 L 165 465 L 167 463 L 170 462 L 174 465 L 172 470 L 172 473 L 173 474 L 176 474 L 177 473 L 192 473 L 193 472 L 198 472 L 199 471 L 202 462 L 201 457 L 203 452 L 203 448 L 204 447 L 205 440 L 207 439 L 209 441 L 209 445 L 210 445 L 210 443 L 212 440 L 214 427 L 216 425 L 219 427 L 220 424 L 219 411 L 206 404 L 200 398 L 201 396 L 208 398 L 211 400 L 214 400 L 216 402 L 219 402 L 220 403 L 221 401 L 217 396 L 217 393 L 220 392 L 225 397 L 239 405 L 244 405 L 254 400 L 256 401 L 256 403 L 254 405 L 258 405 L 271 398 L 278 391 L 280 393 L 280 395 L 275 402 L 275 403 L 285 398 L 297 385 L 300 386 L 300 389 L 296 397 L 299 396 L 312 384 L 318 372 L 321 369 L 323 371 L 323 374 L 321 379 L 322 381 L 333 367 L 333 365 L 336 359 L 337 351 L 339 350 L 341 352 L 341 359 L 342 359 L 345 355 L 345 352 L 347 347 L 347 342 L 346 341 L 346 336 L 344 337 L 342 336 L 342 325 L 341 324 L 341 320 L 342 319 L 346 322 L 348 332 L 350 331 L 350 327 L 351 325 L 348 316 L 350 314 L 352 315 L 352 313 L 351 312 L 350 305 L 346 297 L 347 296 L 350 297 L 349 293 L 351 291 L 357 293 L 356 290 L 345 276 L 347 274 L 349 275 L 353 275 L 353 274 L 335 256 L 335 255 L 337 254 L 342 257 L 342 255 L 337 250 L 335 245 L 325 232 L 324 229 L 317 220 L 315 215 L 302 200 L 300 195 L 291 186 L 286 178 Z M 195 348 L 196 348 L 198 351 L 199 359 L 203 366 L 201 369 L 198 367 L 193 358 L 193 350 Z M 187 329 L 189 332 L 187 337 L 187 348 L 185 350 L 181 346 L 181 337 L 182 334 Z M 181 314 L 183 316 L 176 329 L 176 332 L 174 334 L 172 334 L 171 333 L 171 326 L 174 320 L 180 314 Z M 185 288 L 187 290 L 177 304 L 174 306 L 172 304 L 174 298 L 184 288 Z M 322 259 L 324 259 L 331 267 L 331 271 L 330 272 L 327 270 L 321 261 Z M 280 243 L 282 241 L 284 243 L 287 244 L 290 247 L 291 251 L 290 252 Z M 295 236 L 298 236 L 300 237 L 304 242 L 302 244 L 300 244 L 294 238 Z M 307 230 L 309 229 L 311 231 L 314 232 L 317 235 L 318 238 L 316 240 L 307 231 Z M 292 219 L 295 221 L 298 226 L 298 232 L 296 234 L 291 234 L 289 232 L 294 230 L 291 223 L 291 220 Z M 306 217 L 309 216 L 313 218 L 318 224 L 317 225 L 314 225 L 309 221 Z M 292 195 L 291 196 L 291 199 L 284 213 L 274 222 L 266 222 L 257 219 L 247 214 L 232 203 L 234 201 L 244 202 L 245 203 L 263 203 L 264 202 L 268 202 L 269 201 L 273 201 L 276 199 L 279 199 L 281 197 L 283 197 L 289 193 Z M 225 112 L 220 111 L 214 117 L 214 118 L 208 123 L 206 121 L 206 118 L 211 110 L 210 109 L 207 109 L 200 114 L 195 122 L 192 125 L 189 123 L 189 119 L 191 116 L 191 114 L 189 113 L 183 121 L 181 127 L 181 130 L 180 131 L 180 136 L 172 144 L 162 151 L 147 166 L 145 163 L 144 163 L 141 167 L 138 174 L 136 176 L 127 180 L 127 181 L 130 181 L 132 184 L 124 194 L 120 203 L 125 199 L 127 201 L 125 205 L 124 212 L 128 210 L 130 212 L 131 216 L 135 220 L 136 223 L 142 229 L 144 230 L 146 229 L 146 226 L 141 221 L 143 219 L 147 221 L 154 221 L 155 222 L 160 221 L 162 223 L 160 225 L 156 227 L 153 227 L 153 228 L 156 228 L 157 229 L 171 229 L 177 227 L 179 225 L 182 224 L 191 215 L 191 211 L 200 203 L 203 198 L 207 195 L 219 177 L 234 163 L 242 149 L 243 141 L 242 140 L 242 136 L 240 136 L 232 144 L 229 142 L 230 138 L 236 128 L 236 123 L 234 120 L 231 120 L 221 129 L 218 128 L 219 123 L 226 115 Z M 298 103 L 298 105 L 305 112 L 306 116 L 304 118 L 302 118 L 293 110 L 289 110 L 287 112 L 288 120 L 293 125 L 295 128 L 296 132 L 293 134 L 284 127 L 281 129 L 280 131 L 280 140 L 286 152 L 296 163 L 299 165 L 301 165 L 307 171 L 315 183 L 330 201 L 338 209 L 346 215 L 353 218 L 360 218 L 359 216 L 353 212 L 355 210 L 367 210 L 372 207 L 375 209 L 371 215 L 376 214 L 380 210 L 384 203 L 386 192 L 388 190 L 392 192 L 388 182 L 383 177 L 383 169 L 381 164 L 380 164 L 378 167 L 375 164 L 368 150 L 367 150 L 366 152 L 364 152 L 359 147 L 356 142 L 353 142 L 344 133 L 339 130 L 332 122 L 330 116 L 326 109 L 319 102 L 316 101 L 316 103 L 321 111 L 321 113 L 319 115 L 318 115 L 311 108 L 311 107 L 304 102 L 300 102 Z M 318 43 L 314 39 L 306 35 L 295 35 L 289 38 L 285 42 L 284 46 L 286 48 L 286 50 L 284 52 L 274 51 L 270 49 L 268 50 L 263 50 L 258 52 L 256 49 L 260 45 L 260 43 L 251 47 L 248 50 L 244 51 L 243 50 L 243 47 L 245 44 L 245 41 L 244 41 L 240 44 L 232 53 L 230 54 L 228 52 L 229 47 L 228 47 L 220 57 L 215 58 L 212 60 L 210 60 L 208 62 L 206 62 L 193 71 L 191 71 L 184 65 L 177 64 L 176 63 L 169 64 L 162 67 L 154 76 L 152 82 L 152 89 L 155 96 L 158 99 L 164 102 L 168 102 L 170 104 L 170 106 L 163 120 L 165 125 L 159 131 L 158 135 L 161 134 L 164 135 L 162 141 L 172 133 L 172 129 L 176 117 L 186 106 L 188 105 L 194 105 L 197 107 L 204 102 L 207 101 L 213 101 L 217 104 L 219 103 L 224 103 L 228 106 L 230 106 L 234 103 L 236 103 L 239 106 L 239 110 L 237 113 L 242 117 L 244 121 L 244 127 L 248 131 L 250 135 L 251 143 L 252 144 L 253 143 L 257 143 L 271 138 L 272 135 L 271 134 L 263 134 L 255 130 L 251 125 L 251 119 L 257 113 L 267 109 L 272 109 L 273 108 L 277 108 L 279 109 L 283 105 L 278 100 L 278 98 L 281 95 L 283 95 L 288 98 L 291 98 L 299 94 L 305 94 L 308 96 L 314 93 L 320 94 L 324 96 L 333 105 L 341 121 L 343 123 L 345 123 L 343 118 L 337 111 L 338 108 L 340 107 L 341 108 L 342 107 L 330 97 L 332 95 L 332 93 L 326 88 L 322 81 L 312 70 L 312 69 L 319 62 L 321 57 L 321 50 Z M 273 103 L 272 105 L 264 105 L 263 106 L 256 107 L 250 110 L 248 109 L 248 108 L 254 103 L 263 100 L 271 101 Z M 177 74 L 183 79 L 183 81 L 178 87 L 174 94 L 172 96 L 169 96 L 163 91 L 162 89 L 162 82 L 168 75 L 171 74 Z M 224 71 L 224 74 L 212 83 L 209 83 L 207 81 L 207 77 L 214 70 L 216 69 L 222 69 Z M 271 61 L 274 58 L 280 58 L 284 60 L 288 64 L 289 67 L 287 69 L 283 69 L 279 67 L 276 67 L 273 66 L 271 64 Z M 298 45 L 300 44 L 306 44 L 312 49 L 314 53 L 314 56 L 312 61 L 309 64 L 307 64 L 292 53 L 293 50 Z" fill="#FBFBFB" fill-rule="evenodd"/><path d="M 194 350 L 194 358 L 199 367 L 201 368 L 202 366 L 198 359 L 197 351 L 196 349 Z M 187 330 L 183 334 L 182 337 L 182 346 L 185 349 L 186 348 L 186 337 L 188 332 Z M 181 315 L 175 320 L 172 326 L 172 333 L 175 332 L 175 329 L 182 316 Z M 153 314 L 151 314 L 147 317 L 144 317 L 145 317 L 146 319 L 138 334 L 138 336 L 141 335 L 143 337 L 142 338 L 141 346 L 140 347 L 140 358 L 141 358 L 144 354 L 147 356 L 147 363 L 142 378 L 143 379 L 145 377 L 147 379 L 147 383 L 145 388 L 145 394 L 144 397 L 152 382 L 155 379 L 156 376 L 156 371 L 155 369 L 157 367 L 160 369 L 165 367 L 159 352 L 158 352 L 153 358 L 151 356 L 151 344 L 152 343 L 152 340 L 155 331 L 151 334 L 150 337 L 146 342 L 144 341 L 145 329 Z M 352 292 L 350 293 L 351 297 L 350 298 L 347 297 L 351 305 L 351 308 L 353 313 L 352 316 L 350 315 L 349 316 L 352 325 L 351 327 L 351 331 L 349 333 L 347 332 L 345 322 L 342 320 L 342 324 L 343 325 L 343 336 L 345 335 L 347 336 L 347 341 L 348 342 L 348 347 L 347 348 L 346 355 L 344 358 L 341 360 L 340 359 L 340 352 L 338 351 L 338 355 L 334 367 L 322 382 L 320 380 L 322 374 L 322 371 L 321 370 L 319 372 L 313 384 L 299 397 L 297 398 L 295 397 L 299 389 L 299 386 L 297 386 L 297 387 L 285 399 L 275 404 L 274 402 L 279 395 L 278 392 L 271 399 L 258 406 L 254 406 L 253 405 L 255 403 L 255 401 L 244 406 L 239 406 L 225 398 L 220 393 L 218 393 L 218 396 L 222 401 L 220 404 L 219 403 L 216 403 L 214 401 L 211 401 L 208 399 L 201 397 L 206 403 L 218 409 L 220 411 L 221 424 L 219 428 L 216 426 L 215 427 L 213 440 L 210 446 L 208 445 L 208 441 L 206 440 L 205 447 L 204 448 L 204 452 L 202 457 L 203 460 L 202 467 L 199 472 L 206 471 L 211 467 L 214 459 L 215 449 L 217 447 L 220 449 L 221 448 L 224 434 L 227 431 L 230 433 L 233 426 L 233 422 L 231 422 L 227 418 L 227 416 L 229 414 L 235 414 L 236 415 L 241 415 L 242 416 L 256 417 L 257 416 L 265 416 L 266 415 L 275 414 L 284 411 L 287 409 L 289 409 L 292 412 L 292 414 L 287 418 L 285 418 L 277 422 L 270 423 L 269 424 L 269 429 L 270 430 L 270 433 L 271 433 L 273 430 L 276 432 L 277 435 L 277 448 L 279 449 L 281 447 L 283 449 L 284 462 L 286 467 L 288 469 L 291 470 L 301 471 L 299 469 L 299 462 L 305 451 L 304 450 L 297 455 L 295 453 L 313 431 L 323 416 L 326 409 L 328 407 L 328 405 L 329 404 L 332 405 L 332 408 L 334 413 L 334 419 L 336 419 L 341 407 L 341 403 L 345 401 L 350 402 L 345 393 L 346 392 L 345 384 L 344 384 L 338 390 L 335 390 L 333 388 L 333 386 L 341 375 L 342 372 L 345 369 L 346 370 L 348 369 L 350 359 L 351 358 L 351 348 L 353 346 L 356 347 L 356 338 L 355 337 L 354 330 L 356 328 L 360 329 L 357 319 L 353 312 L 355 309 L 359 311 L 359 308 L 350 294 L 350 293 Z M 184 289 L 175 298 L 175 300 L 173 302 L 174 305 L 176 304 L 186 290 Z M 322 260 L 328 270 L 330 271 L 330 267 L 324 260 Z M 282 242 L 281 243 L 290 251 L 289 247 Z M 295 237 L 300 243 L 303 242 L 300 238 Z M 308 230 L 308 231 L 316 239 L 317 238 L 316 235 Z M 292 220 L 292 223 L 295 230 L 293 232 L 290 232 L 291 233 L 296 233 L 297 232 L 297 226 L 294 221 Z M 307 217 L 307 218 L 314 224 L 317 224 L 313 219 Z M 291 195 L 289 194 L 287 196 L 281 198 L 279 200 L 276 200 L 273 202 L 269 202 L 263 204 L 245 204 L 244 203 L 238 203 L 237 202 L 234 202 L 233 203 L 247 213 L 257 218 L 266 221 L 274 221 L 283 213 L 284 210 L 286 208 L 286 206 L 290 199 L 290 196 Z M 237 177 L 233 179 L 230 182 L 229 188 L 225 196 L 220 201 L 220 207 L 217 211 L 212 215 L 215 213 L 224 203 L 233 185 L 236 182 Z M 242 150 L 235 163 L 220 177 L 208 195 L 205 197 L 201 203 L 192 211 L 192 215 L 182 225 L 179 226 L 177 228 L 171 230 L 157 230 L 156 229 L 153 229 L 152 227 L 160 224 L 161 223 L 160 222 L 155 223 L 154 222 L 147 222 L 143 220 L 142 221 L 147 226 L 147 229 L 144 231 L 135 223 L 134 220 L 130 216 L 128 211 L 124 213 L 124 220 L 127 223 L 128 226 L 140 237 L 138 240 L 135 240 L 135 241 L 140 244 L 148 246 L 150 248 L 148 252 L 151 254 L 158 256 L 160 258 L 160 261 L 152 278 L 153 279 L 154 278 L 156 279 L 156 281 L 153 285 L 165 276 L 179 262 L 188 250 L 189 246 L 200 236 L 204 230 L 205 225 L 209 221 L 199 231 L 191 237 L 186 238 L 184 236 L 184 234 L 187 231 L 194 227 L 201 221 L 201 220 L 198 219 L 198 217 L 206 211 L 212 205 L 209 202 L 219 191 L 223 179 L 236 165 L 241 155 Z M 280 141 L 282 149 L 288 160 L 299 170 L 302 179 L 307 184 L 308 188 L 312 195 L 321 204 L 322 209 L 319 211 L 304 197 L 301 192 L 300 187 L 294 180 L 292 174 L 286 168 L 282 174 L 287 178 L 292 186 L 301 195 L 303 200 L 316 215 L 318 220 L 323 226 L 331 239 L 334 242 L 338 250 L 343 255 L 342 258 L 336 255 L 336 256 L 343 263 L 342 262 L 344 260 L 344 257 L 337 242 L 337 239 L 341 236 L 344 239 L 347 246 L 349 247 L 357 244 L 357 243 L 355 242 L 355 240 L 357 238 L 361 238 L 362 237 L 365 237 L 371 235 L 372 233 L 370 233 L 368 231 L 371 228 L 377 225 L 385 217 L 388 211 L 388 207 L 389 206 L 389 201 L 388 200 L 388 195 L 387 194 L 388 191 L 386 195 L 385 203 L 381 210 L 376 215 L 373 216 L 370 215 L 374 209 L 372 208 L 367 211 L 355 211 L 354 212 L 361 217 L 360 219 L 353 219 L 350 218 L 338 210 L 329 201 L 314 183 L 306 171 L 301 166 L 299 166 L 296 164 L 285 152 Z M 326 215 L 328 213 L 331 214 L 338 220 L 338 222 L 336 224 L 331 222 L 326 217 Z M 272 103 L 267 101 L 259 102 L 251 106 L 249 109 L 253 108 L 256 106 L 259 106 L 264 104 L 272 104 Z M 177 75 L 171 75 L 168 76 L 163 82 L 163 89 L 164 91 L 169 95 L 172 95 L 177 87 L 182 81 L 182 79 Z M 298 46 L 294 50 L 293 53 L 307 63 L 309 63 L 311 61 L 313 56 L 313 53 L 311 49 L 306 45 L 300 45 Z M 306 48 L 308 47 L 310 50 L 307 51 Z M 297 47 L 299 48 L 298 50 L 299 54 L 298 55 L 294 52 Z" fill="#D8D8D8" fill-rule="evenodd"/><path d="M 374 232 L 371 232 L 370 231 L 371 229 L 369 231 L 372 232 L 373 234 L 369 237 L 366 237 L 361 239 L 357 239 L 356 242 L 357 242 L 358 244 L 356 246 L 354 246 L 356 246 L 359 244 L 359 243 L 357 242 L 358 239 L 369 237 L 373 235 Z M 246 161 L 242 169 L 242 171 L 248 180 L 247 182 L 249 182 L 251 184 L 256 186 L 266 186 L 275 181 L 274 179 L 276 176 L 276 170 L 274 166 L 270 162 L 258 157 L 250 158 Z" fill="#B1B1B1" fill-rule="evenodd"/><path d="M 329 215 L 328 217 L 332 221 L 335 222 L 336 220 Z M 222 71 L 219 70 L 213 73 L 209 77 L 209 80 L 211 81 L 217 76 L 222 74 Z M 273 62 L 274 65 L 279 65 L 282 67 L 286 67 L 286 64 L 281 61 L 275 60 Z M 312 30 L 306 28 L 295 28 L 289 30 L 284 33 L 276 43 L 268 43 L 264 38 L 257 38 L 253 40 L 249 35 L 246 34 L 238 38 L 233 43 L 229 40 L 226 41 L 218 50 L 214 51 L 209 54 L 207 54 L 193 63 L 191 63 L 188 60 L 181 57 L 169 57 L 163 59 L 154 65 L 148 73 L 148 75 L 146 78 L 146 82 L 145 83 L 146 93 L 149 99 L 156 106 L 160 108 L 160 111 L 156 120 L 157 125 L 153 130 L 151 135 L 151 137 L 155 142 L 153 145 L 152 152 L 150 154 L 144 154 L 138 160 L 133 170 L 131 172 L 129 172 L 126 174 L 120 180 L 120 184 L 122 187 L 119 190 L 114 200 L 114 205 L 118 207 L 118 212 L 117 213 L 117 220 L 118 223 L 123 227 L 125 232 L 129 236 L 129 242 L 130 244 L 139 251 L 139 254 L 150 260 L 152 262 L 150 269 L 145 279 L 146 285 L 142 289 L 136 298 L 136 301 L 140 305 L 136 309 L 132 316 L 132 322 L 135 324 L 135 327 L 132 334 L 132 342 L 135 345 L 134 347 L 134 360 L 135 363 L 139 368 L 136 377 L 136 383 L 139 387 L 138 401 L 137 402 L 137 410 L 140 412 L 139 424 L 141 429 L 144 432 L 144 439 L 145 442 L 142 445 L 136 448 L 132 452 L 129 457 L 128 467 L 126 469 L 121 469 L 120 470 L 115 470 L 114 471 L 109 471 L 108 472 L 102 473 L 98 476 L 103 479 L 107 479 L 113 481 L 119 481 L 120 482 L 126 482 L 127 483 L 149 484 L 150 485 L 166 485 L 167 486 L 224 487 L 225 488 L 275 488 L 276 487 L 307 487 L 308 486 L 328 486 L 329 485 L 355 484 L 356 483 L 365 483 L 366 482 L 373 482 L 374 481 L 386 480 L 387 479 L 394 478 L 396 476 L 396 475 L 392 472 L 384 471 L 383 470 L 371 469 L 369 467 L 369 458 L 366 451 L 362 447 L 353 443 L 351 441 L 351 438 L 352 437 L 352 425 L 355 423 L 357 420 L 357 416 L 354 410 L 354 407 L 357 405 L 357 402 L 353 396 L 354 392 L 351 385 L 350 376 L 354 371 L 357 362 L 357 357 L 362 353 L 363 350 L 362 335 L 364 334 L 366 331 L 366 327 L 363 319 L 363 316 L 366 313 L 366 310 L 362 301 L 360 299 L 364 296 L 364 292 L 361 286 L 357 282 L 358 279 L 360 277 L 360 274 L 352 264 L 349 255 L 352 252 L 362 249 L 368 242 L 370 242 L 376 239 L 380 235 L 380 230 L 390 221 L 393 215 L 394 209 L 395 208 L 395 201 L 394 199 L 398 194 L 398 190 L 395 182 L 390 176 L 390 169 L 386 160 L 383 157 L 379 157 L 377 155 L 374 148 L 369 142 L 364 142 L 358 135 L 354 133 L 350 129 L 351 127 L 351 121 L 347 114 L 348 106 L 347 104 L 338 96 L 339 94 L 338 90 L 331 84 L 327 77 L 322 71 L 322 69 L 325 66 L 328 58 L 328 51 L 327 50 L 326 44 L 323 39 L 317 33 Z M 220 460 L 221 458 L 225 455 L 228 448 L 229 442 L 235 437 L 239 428 L 239 426 L 242 423 L 260 423 L 263 426 L 263 429 L 266 437 L 271 441 L 271 449 L 272 450 L 272 453 L 273 455 L 277 458 L 277 461 L 275 463 L 222 463 Z M 318 99 L 325 105 L 330 112 L 336 124 L 343 131 L 353 139 L 356 139 L 359 142 L 364 150 L 365 150 L 365 148 L 367 146 L 370 149 L 377 163 L 378 163 L 380 160 L 383 163 L 386 171 L 386 178 L 391 184 L 394 191 L 394 194 L 392 196 L 389 194 L 390 197 L 390 210 L 386 218 L 378 226 L 371 230 L 371 231 L 374 231 L 375 232 L 375 234 L 373 236 L 369 238 L 358 240 L 358 242 L 360 243 L 358 246 L 352 248 L 349 248 L 348 249 L 345 246 L 341 238 L 339 239 L 340 245 L 346 258 L 346 261 L 344 263 L 356 275 L 354 277 L 349 277 L 349 278 L 360 293 L 359 295 L 355 295 L 353 294 L 353 296 L 355 298 L 362 311 L 360 313 L 356 312 L 356 314 L 359 319 L 361 325 L 361 330 L 360 331 L 357 330 L 356 331 L 357 337 L 358 338 L 358 344 L 359 345 L 358 349 L 357 350 L 354 348 L 353 349 L 353 357 L 352 358 L 352 362 L 349 371 L 347 373 L 346 372 L 343 373 L 341 378 L 336 384 L 335 387 L 337 389 L 344 382 L 345 382 L 349 391 L 348 392 L 348 395 L 353 403 L 351 405 L 348 403 L 346 404 L 352 415 L 352 418 L 351 419 L 348 418 L 347 419 L 347 437 L 346 438 L 345 445 L 348 447 L 357 450 L 363 456 L 364 460 L 363 461 L 360 459 L 358 460 L 359 461 L 360 468 L 357 471 L 355 469 L 354 464 L 351 461 L 348 461 L 347 462 L 350 466 L 350 470 L 347 473 L 343 473 L 341 471 L 340 466 L 337 463 L 334 464 L 336 469 L 336 472 L 334 474 L 307 474 L 306 473 L 296 473 L 295 472 L 288 471 L 283 466 L 281 450 L 278 452 L 276 451 L 275 433 L 273 432 L 272 434 L 270 435 L 268 432 L 268 428 L 267 427 L 267 424 L 270 421 L 277 420 L 288 415 L 290 413 L 289 411 L 286 411 L 283 413 L 274 416 L 265 417 L 264 418 L 243 418 L 242 417 L 237 417 L 236 416 L 230 415 L 229 418 L 231 420 L 234 420 L 235 421 L 235 425 L 233 431 L 230 435 L 226 433 L 226 437 L 225 438 L 225 441 L 224 442 L 224 445 L 222 451 L 220 452 L 217 450 L 214 465 L 213 467 L 206 473 L 202 473 L 196 475 L 171 476 L 169 474 L 171 466 L 168 465 L 166 467 L 164 473 L 162 475 L 156 475 L 154 473 L 154 468 L 156 465 L 156 462 L 153 462 L 149 468 L 149 472 L 146 474 L 142 471 L 142 465 L 143 464 L 142 461 L 138 464 L 137 468 L 135 469 L 134 468 L 134 459 L 135 457 L 142 450 L 148 448 L 150 446 L 150 440 L 149 439 L 149 422 L 146 424 L 143 423 L 144 415 L 145 414 L 145 411 L 147 405 L 142 408 L 140 406 L 142 400 L 143 388 L 145 383 L 145 380 L 142 381 L 140 378 L 145 363 L 145 357 L 144 357 L 141 361 L 140 361 L 138 358 L 138 349 L 139 348 L 140 338 L 138 339 L 136 338 L 138 330 L 144 319 L 142 319 L 139 321 L 136 319 L 141 310 L 147 303 L 147 301 L 142 301 L 140 299 L 154 282 L 154 281 L 152 281 L 150 278 L 158 262 L 158 259 L 156 257 L 147 254 L 145 252 L 145 251 L 148 249 L 147 248 L 140 246 L 133 241 L 133 240 L 135 238 L 137 238 L 137 237 L 122 221 L 122 208 L 123 207 L 123 203 L 119 207 L 118 207 L 117 205 L 121 195 L 125 189 L 130 184 L 129 183 L 126 183 L 124 181 L 130 176 L 132 176 L 137 173 L 137 171 L 140 165 L 146 158 L 148 160 L 148 162 L 149 162 L 165 146 L 178 136 L 178 132 L 179 131 L 180 124 L 184 116 L 189 111 L 192 111 L 194 113 L 191 120 L 192 122 L 202 110 L 207 107 L 211 107 L 213 110 L 210 114 L 208 120 L 209 120 L 217 111 L 219 110 L 224 110 L 228 113 L 228 115 L 222 122 L 221 126 L 231 118 L 234 118 L 238 122 L 238 129 L 234 134 L 231 141 L 241 133 L 245 138 L 245 148 L 244 149 L 244 152 L 242 158 L 240 160 L 238 165 L 225 179 L 221 191 L 211 202 L 213 203 L 214 205 L 207 212 L 200 217 L 200 218 L 202 218 L 204 220 L 199 225 L 191 231 L 188 232 L 186 234 L 186 236 L 188 236 L 194 233 L 207 222 L 208 217 L 218 207 L 219 205 L 218 201 L 224 195 L 227 189 L 228 183 L 231 179 L 232 179 L 238 173 L 246 181 L 247 180 L 243 175 L 241 169 L 245 161 L 248 158 L 254 156 L 262 157 L 270 161 L 275 166 L 277 170 L 277 176 L 275 180 L 278 178 L 283 168 L 286 166 L 294 174 L 294 176 L 297 182 L 301 186 L 302 190 L 306 197 L 319 209 L 321 208 L 320 205 L 309 194 L 306 188 L 306 186 L 300 179 L 297 170 L 293 167 L 284 157 L 278 143 L 278 130 L 282 125 L 285 125 L 293 132 L 294 131 L 292 127 L 286 121 L 285 111 L 289 108 L 292 108 L 296 110 L 303 116 L 304 115 L 301 110 L 295 105 L 295 103 L 299 100 L 305 100 L 308 102 L 318 113 L 319 111 L 313 102 L 315 99 Z M 321 45 L 323 50 L 323 56 L 321 62 L 319 65 L 315 68 L 315 70 L 324 81 L 328 88 L 336 94 L 333 97 L 344 107 L 344 108 L 342 110 L 340 110 L 340 111 L 344 116 L 347 122 L 347 125 L 346 126 L 344 126 L 339 121 L 334 110 L 328 102 L 320 96 L 314 95 L 310 98 L 308 98 L 305 96 L 299 96 L 291 100 L 288 100 L 281 97 L 280 99 L 286 105 L 280 111 L 268 111 L 267 112 L 261 113 L 257 115 L 253 119 L 252 122 L 253 125 L 258 130 L 267 133 L 272 132 L 274 134 L 274 138 L 272 140 L 257 145 L 253 145 L 251 146 L 249 144 L 249 137 L 248 134 L 242 128 L 242 121 L 241 119 L 234 113 L 237 109 L 237 107 L 236 106 L 233 106 L 229 109 L 225 106 L 216 106 L 214 104 L 208 103 L 201 106 L 198 109 L 196 109 L 193 107 L 188 107 L 186 108 L 180 114 L 177 120 L 174 133 L 160 145 L 158 144 L 161 138 L 161 136 L 157 137 L 156 136 L 156 133 L 162 125 L 161 123 L 161 119 L 163 116 L 163 114 L 165 112 L 167 105 L 159 102 L 153 96 L 150 89 L 150 82 L 153 74 L 162 65 L 169 62 L 181 62 L 187 65 L 191 69 L 193 69 L 208 59 L 214 56 L 219 55 L 228 44 L 230 46 L 230 51 L 231 51 L 244 39 L 247 39 L 248 40 L 246 48 L 257 42 L 261 41 L 263 44 L 259 48 L 260 49 L 262 48 L 266 48 L 267 47 L 271 47 L 272 48 L 276 48 L 277 49 L 283 50 L 284 49 L 282 46 L 283 42 L 290 35 L 299 32 L 303 32 L 313 36 Z M 17 3 L 8 9 L 5 13 L 1 23 L 6 13 Z" fill="#010101" fill-rule="evenodd"/></g></svg>