<svg xmlns="http://www.w3.org/2000/svg" viewBox="0 0 506 508" shape-rendering="geometricPrecision"><title>hello-wave transparent</title><defs><clipPath id="clip-card"><rect x="0" y="0" width="506" height="508" rx="30" ry="30"/></clipPath><clipPath id="clip-transparent"><rect x="12" y="12" width="494" height="480"/></clipPath><mask id="cleanup-mask" maskUnits="userSpaceOnUse" maskContentUnits="userSpaceOnUse"><rect x="0" y="0" width="506" height="508" fill="#fff"/><rect x="0" y="492" width="506" height="16" fill="#000"/></mask></defs><g clip-path="url(#clip-transparent)" mask="url(#cleanup-mask)"><path d="M 306 42 L 297 41 L 287 45 L 283 49 L 281 53 L 281 56 L 279 58 L 275 58 L 270 56 L 264 56 L 263 55 L 252 55 L 251 56 L 247 56 L 245 57 L 243 55 L 244 49 L 242 50 L 236 57 L 230 54 L 225 53 L 224 54 L 226 56 L 226 59 L 224 61 L 214 61 L 210 65 L 208 65 L 202 68 L 193 75 L 191 75 L 185 68 L 175 66 L 174 67 L 168 68 L 162 72 L 159 76 L 156 83 L 156 91 L 157 94 L 161 100 L 167 103 L 170 103 L 172 105 L 172 108 L 169 113 L 167 119 L 168 126 L 160 136 L 161 137 L 163 136 L 166 136 L 167 137 L 166 142 L 163 147 L 163 151 L 165 149 L 168 150 L 168 153 L 167 154 L 167 163 L 170 162 L 172 164 L 173 172 L 175 177 L 176 177 L 176 175 L 178 174 L 180 176 L 181 180 L 184 183 L 187 184 L 195 193 L 199 192 L 207 198 L 205 201 L 203 199 L 199 198 L 198 201 L 195 204 L 193 204 L 189 198 L 182 191 L 182 194 L 179 195 L 175 191 L 174 188 L 172 186 L 169 189 L 166 186 L 164 181 L 160 176 L 159 176 L 159 180 L 156 182 L 151 177 L 145 167 L 141 170 L 139 167 L 118 147 L 119 135 L 120 134 L 119 131 L 119 125 L 118 125 L 118 130 L 116 135 L 112 139 L 108 139 L 104 134 L 104 130 L 105 129 L 101 126 L 101 124 L 100 124 L 100 127 L 96 131 L 93 131 L 90 129 L 86 130 L 80 123 L 80 121 L 75 115 L 69 113 L 66 115 L 66 118 L 69 115 L 73 116 L 81 124 L 81 126 L 83 129 L 82 133 L 80 135 L 73 136 L 71 138 L 68 135 L 61 131 L 56 130 L 54 132 L 54 134 L 56 132 L 60 132 L 62 133 L 70 141 L 71 145 L 66 150 L 60 149 L 59 150 L 52 151 L 51 152 L 51 157 L 53 161 L 66 173 L 74 177 L 79 182 L 82 189 L 98 206 L 102 208 L 107 213 L 110 214 L 113 217 L 120 220 L 124 223 L 130 225 L 139 226 L 142 230 L 140 232 L 137 232 L 136 233 L 140 235 L 151 235 L 159 238 L 161 237 L 165 238 L 166 239 L 165 241 L 158 243 L 158 244 L 163 246 L 178 246 L 180 244 L 181 239 L 183 236 L 187 233 L 188 234 L 188 238 L 186 241 L 186 245 L 184 249 L 184 254 L 183 255 L 183 259 L 182 261 L 186 259 L 194 251 L 196 252 L 196 254 L 194 256 L 193 259 L 184 270 L 181 271 L 176 281 L 179 281 L 181 283 L 178 288 L 174 292 L 171 298 L 176 296 L 178 299 L 169 314 L 169 316 L 173 314 L 176 315 L 176 317 L 172 325 L 171 334 L 172 335 L 178 330 L 179 332 L 178 333 L 177 339 L 178 340 L 187 340 L 192 344 L 192 346 L 190 348 L 176 348 L 173 349 L 170 352 L 161 353 L 159 354 L 159 355 L 161 355 L 163 357 L 161 359 L 153 361 L 145 365 L 145 366 L 148 366 L 149 369 L 147 370 L 139 379 L 130 394 L 130 395 L 137 401 L 137 404 L 135 406 L 133 406 L 124 400 L 122 400 L 119 398 L 108 398 L 103 400 L 103 401 L 113 401 L 117 405 L 119 405 L 121 407 L 124 407 L 128 411 L 128 414 L 129 415 L 128 419 L 144 434 L 151 443 L 155 440 L 155 438 L 159 429 L 162 431 L 162 437 L 164 435 L 173 416 L 174 411 L 178 405 L 180 407 L 180 413 L 178 417 L 178 420 L 179 420 L 185 414 L 189 408 L 195 403 L 196 404 L 195 411 L 196 411 L 204 402 L 203 399 L 197 398 L 190 394 L 191 392 L 214 392 L 217 393 L 222 391 L 219 388 L 214 386 L 210 382 L 211 380 L 219 382 L 224 385 L 230 386 L 225 378 L 227 377 L 234 383 L 246 390 L 249 390 L 253 388 L 256 388 L 258 386 L 261 386 L 262 388 L 258 392 L 259 393 L 260 392 L 265 392 L 277 386 L 279 384 L 281 384 L 282 385 L 282 388 L 279 392 L 283 392 L 293 386 L 304 374 L 306 375 L 306 378 L 301 384 L 302 385 L 306 384 L 313 378 L 318 369 L 322 364 L 324 365 L 324 369 L 322 372 L 322 374 L 323 375 L 326 373 L 337 360 L 339 355 L 341 353 L 341 351 L 343 349 L 343 347 L 345 345 L 347 347 L 347 351 L 349 351 L 351 348 L 351 341 L 354 336 L 354 334 L 358 331 L 358 329 L 356 328 L 356 325 L 357 323 L 359 322 L 360 319 L 354 317 L 356 311 L 356 308 L 351 299 L 351 294 L 352 293 L 351 290 L 345 282 L 331 268 L 321 256 L 320 252 L 323 248 L 327 247 L 329 249 L 334 249 L 337 247 L 340 249 L 343 249 L 343 247 L 345 245 L 353 245 L 362 248 L 369 252 L 371 252 L 373 249 L 376 249 L 381 252 L 383 252 L 388 256 L 391 255 L 394 256 L 397 259 L 400 269 L 406 274 L 410 274 L 411 273 L 409 270 L 409 268 L 412 265 L 414 265 L 421 271 L 425 271 L 426 272 L 432 271 L 433 270 L 433 267 L 430 262 L 430 259 L 433 257 L 437 259 L 440 259 L 444 255 L 443 251 L 440 248 L 439 245 L 442 242 L 448 244 L 448 240 L 445 234 L 438 227 L 431 223 L 428 220 L 430 218 L 429 216 L 418 213 L 415 210 L 418 208 L 418 207 L 410 204 L 402 203 L 399 200 L 402 196 L 378 193 L 377 190 L 379 189 L 380 187 L 366 187 L 365 188 L 359 188 L 358 186 L 360 183 L 350 184 L 345 186 L 340 186 L 338 184 L 340 182 L 339 181 L 338 182 L 333 182 L 328 184 L 324 184 L 320 186 L 313 186 L 309 188 L 305 192 L 302 190 L 304 186 L 311 178 L 315 178 L 321 166 L 324 167 L 327 167 L 328 166 L 329 155 L 331 153 L 333 154 L 334 152 L 332 141 L 334 139 L 337 141 L 338 140 L 337 135 L 333 130 L 332 127 L 334 125 L 337 126 L 339 125 L 328 113 L 329 110 L 334 110 L 334 109 L 324 102 L 325 97 L 311 79 L 311 77 L 317 72 L 321 63 L 321 59 L 320 58 L 320 55 L 317 50 L 313 46 Z M 202 350 L 206 352 L 211 357 L 212 359 L 212 362 L 210 363 L 202 355 L 200 352 Z M 274 194 L 274 197 L 267 204 L 267 205 L 256 214 L 252 216 L 246 216 L 240 213 L 238 213 L 236 211 L 232 210 L 223 203 L 225 201 L 231 201 L 232 202 L 249 201 L 250 200 L 254 200 L 255 199 L 258 199 L 261 197 L 267 196 L 271 193 Z M 53 153 L 55 151 L 61 151 L 65 153 L 68 157 L 67 162 L 65 164 L 60 164 L 54 158 Z M 102 138 L 108 144 L 109 147 L 109 153 L 107 157 L 100 164 L 85 172 L 76 172 L 69 164 L 69 158 L 71 152 L 75 146 L 75 144 L 81 138 L 86 135 L 89 135 L 90 134 L 94 134 Z M 263 117 L 269 111 L 279 109 L 280 110 L 287 110 L 292 112 L 296 117 L 296 121 L 290 126 L 278 127 L 277 126 L 272 126 L 268 124 L 264 120 Z M 208 110 L 210 108 L 217 105 L 227 105 L 232 108 L 231 110 L 226 110 L 225 109 L 218 109 L 212 111 L 209 111 Z M 195 101 L 199 101 L 203 106 L 203 112 L 201 116 L 207 115 L 208 114 L 219 114 L 225 117 L 229 122 L 229 125 L 226 131 L 220 136 L 213 139 L 205 139 L 202 137 L 200 137 L 197 135 L 194 131 L 193 132 L 193 138 L 194 141 L 199 146 L 206 146 L 213 142 L 218 142 L 219 143 L 234 143 L 240 141 L 248 136 L 252 132 L 252 130 L 254 128 L 257 128 L 261 132 L 262 143 L 263 144 L 263 159 L 262 160 L 262 165 L 261 166 L 261 169 L 256 178 L 248 185 L 241 188 L 234 188 L 233 187 L 229 187 L 219 181 L 209 170 L 206 164 L 202 159 L 201 155 L 198 152 L 194 151 L 189 146 L 186 140 L 186 135 L 185 134 L 183 135 L 182 138 L 177 142 L 172 142 L 169 139 L 169 135 L 171 131 L 175 127 L 184 125 L 186 127 L 186 131 L 187 131 L 187 128 L 189 126 L 192 126 L 193 124 L 193 120 L 190 115 L 190 109 L 192 104 Z M 252 93 L 256 93 L 258 94 L 262 100 L 262 109 L 261 111 L 257 114 L 252 114 L 247 108 L 247 99 Z M 179 76 L 184 80 L 184 82 L 178 90 L 176 95 L 174 97 L 171 97 L 165 91 L 164 85 L 167 80 L 172 76 Z M 203 75 L 205 77 L 205 80 L 202 83 L 200 83 L 196 87 L 193 88 L 190 85 L 190 82 L 196 76 L 198 75 Z M 248 67 L 252 64 L 257 64 L 260 65 L 266 71 L 266 72 L 263 75 L 259 75 L 256 73 L 250 72 L 248 70 Z M 298 51 L 303 51 L 307 53 L 312 59 L 312 66 L 307 72 L 304 72 L 299 67 L 293 64 L 290 61 L 291 56 Z" fill="#FBFBFB" fill-rule="evenodd"/><path d="M 437 507 L 476 507 L 479 506 L 443 506 L 442 507 Z M 202 351 L 201 352 L 203 355 L 210 362 L 211 362 L 210 357 L 206 353 Z M 178 331 L 173 335 L 174 340 L 177 340 L 176 337 Z M 444 256 L 440 260 L 438 260 L 441 263 L 444 260 Z M 345 259 L 330 258 L 329 257 L 325 257 L 322 255 L 332 268 L 346 282 L 353 292 L 352 294 L 352 299 L 357 308 L 357 311 L 355 317 L 358 317 L 361 319 L 360 322 L 358 323 L 357 325 L 357 328 L 359 329 L 359 331 L 355 334 L 355 336 L 352 341 L 352 348 L 350 351 L 347 352 L 345 346 L 338 360 L 326 374 L 323 376 L 321 374 L 321 372 L 323 369 L 323 365 L 322 365 L 314 378 L 306 385 L 302 386 L 300 384 L 305 378 L 305 375 L 304 375 L 293 387 L 283 393 L 279 393 L 278 392 L 281 388 L 281 385 L 279 385 L 277 387 L 265 393 L 260 393 L 259 394 L 257 392 L 261 387 L 258 387 L 256 389 L 246 391 L 234 384 L 227 378 L 226 378 L 231 385 L 230 387 L 224 386 L 219 383 L 211 381 L 214 385 L 219 387 L 223 391 L 221 393 L 218 393 L 217 394 L 214 393 L 191 393 L 191 394 L 197 397 L 203 398 L 205 400 L 205 402 L 196 412 L 194 411 L 195 404 L 190 408 L 186 414 L 179 421 L 177 420 L 177 417 L 179 413 L 179 407 L 178 406 L 175 411 L 174 416 L 165 435 L 162 438 L 161 437 L 161 431 L 159 430 L 156 440 L 152 444 L 151 444 L 143 434 L 127 419 L 125 423 L 127 423 L 129 426 L 135 431 L 136 434 L 145 443 L 150 451 L 150 459 L 156 457 L 162 451 L 167 442 L 171 437 L 173 439 L 173 441 L 174 441 L 178 433 L 183 427 L 185 429 L 187 429 L 190 423 L 194 419 L 198 421 L 201 416 L 208 409 L 210 412 L 212 412 L 217 408 L 223 405 L 228 406 L 233 404 L 234 402 L 231 399 L 231 397 L 233 395 L 237 395 L 254 401 L 266 402 L 267 403 L 287 402 L 288 401 L 296 400 L 300 398 L 304 398 L 307 401 L 307 403 L 304 406 L 300 407 L 300 409 L 325 428 L 330 427 L 335 432 L 342 436 L 344 436 L 343 433 L 345 431 L 351 433 L 362 434 L 363 433 L 374 432 L 386 428 L 389 426 L 391 426 L 393 428 L 393 430 L 390 435 L 392 439 L 398 445 L 405 447 L 402 443 L 402 441 L 404 439 L 406 439 L 414 443 L 417 442 L 419 440 L 419 438 L 416 437 L 413 434 L 412 429 L 414 427 L 420 430 L 423 428 L 423 409 L 422 408 L 422 403 L 421 402 L 420 395 L 414 382 L 408 378 L 402 378 L 397 380 L 382 380 L 380 378 L 381 375 L 374 375 L 372 373 L 373 371 L 367 366 L 363 359 L 361 360 L 358 366 L 353 371 L 350 371 L 348 369 L 348 365 L 352 360 L 355 354 L 359 342 L 359 337 L 360 336 L 359 324 L 360 323 L 365 324 L 365 320 L 363 314 L 360 310 L 358 304 L 359 303 L 365 304 L 365 303 L 359 293 L 353 286 L 353 283 L 354 282 L 358 283 L 358 281 L 348 271 L 348 270 L 350 269 L 350 266 Z M 195 252 L 194 252 L 186 260 L 182 262 L 181 264 L 181 270 L 184 269 L 192 259 L 193 256 L 195 254 Z M 353 246 L 345 246 L 343 250 L 340 250 L 337 248 L 334 250 L 331 250 L 351 252 L 349 248 L 351 246 Z M 273 194 L 271 194 L 267 197 L 261 198 L 258 200 L 255 200 L 254 201 L 250 201 L 249 202 L 244 202 L 243 203 L 225 202 L 224 203 L 232 209 L 234 209 L 238 212 L 240 212 L 246 215 L 252 215 L 265 206 L 273 197 Z M 195 194 L 197 196 L 197 198 L 201 197 L 205 200 L 206 199 L 205 197 L 199 193 Z M 82 190 L 86 198 L 94 209 L 106 219 L 115 224 L 118 227 L 117 229 L 112 229 L 114 232 L 116 232 L 119 234 L 128 237 L 131 237 L 136 241 L 134 243 L 132 243 L 131 244 L 132 245 L 138 247 L 141 247 L 142 248 L 151 249 L 153 251 L 149 254 L 149 255 L 152 255 L 153 256 L 163 256 L 165 258 L 164 259 L 165 261 L 171 262 L 172 263 L 174 261 L 176 251 L 179 248 L 181 248 L 183 250 L 185 245 L 185 241 L 187 238 L 187 234 L 184 236 L 182 239 L 181 244 L 178 247 L 163 247 L 158 245 L 157 243 L 165 240 L 165 239 L 162 238 L 159 239 L 151 236 L 140 236 L 137 235 L 135 233 L 137 231 L 140 231 L 141 230 L 139 227 L 130 226 L 124 224 L 120 221 L 113 218 L 110 215 L 107 214 L 102 209 L 98 207 Z M 328 167 L 327 168 L 321 167 L 321 169 L 317 177 L 315 179 L 311 179 L 305 186 L 303 190 L 305 191 L 309 187 L 315 185 L 314 184 L 314 181 L 317 178 L 322 176 Z M 55 130 L 53 132 L 53 137 L 54 137 L 54 135 L 56 133 L 59 133 L 64 136 L 69 141 L 70 145 L 66 149 L 62 148 L 58 144 L 60 147 L 59 149 L 60 148 L 66 149 L 70 145 L 69 141 L 60 133 L 56 133 L 54 135 L 53 132 Z M 184 126 L 177 127 L 172 131 L 170 135 L 170 139 L 172 141 L 177 141 L 181 138 L 183 134 L 185 133 L 186 134 L 187 132 L 185 131 L 185 127 Z M 115 118 L 117 120 L 116 121 L 112 120 L 111 118 L 104 127 L 102 126 L 106 129 L 105 130 L 105 134 L 108 138 L 105 134 L 105 131 L 107 125 L 111 120 L 114 120 L 117 123 L 117 130 L 115 135 L 111 138 L 115 135 L 117 130 L 117 125 L 119 124 Z M 65 116 L 65 122 L 67 123 L 67 119 L 69 117 L 72 117 L 79 124 L 81 128 L 81 132 L 79 134 L 80 134 L 82 131 L 80 124 L 81 123 L 83 125 L 81 122 L 80 124 L 71 116 L 69 116 L 66 119 Z M 264 117 L 265 120 L 268 123 L 272 125 L 277 125 L 278 126 L 290 125 L 295 121 L 295 117 L 292 113 L 287 111 L 280 111 L 279 110 L 277 111 L 272 111 L 269 112 Z M 90 109 L 88 112 L 93 112 L 96 115 L 99 121 L 99 127 L 95 130 L 93 130 L 89 126 L 88 126 L 86 129 L 84 127 L 86 129 L 90 128 L 93 130 L 96 130 L 99 127 L 99 124 L 101 123 L 96 112 L 93 109 Z M 209 110 L 217 109 L 218 108 L 225 108 L 226 109 L 231 109 L 231 108 L 227 106 L 217 106 Z M 179 77 L 172 77 L 168 80 L 165 85 L 166 91 L 171 96 L 174 96 L 177 90 L 183 82 L 183 80 Z M 293 55 L 291 58 L 291 61 L 299 66 L 304 71 L 307 71 L 311 66 L 311 59 L 308 55 L 303 52 L 298 52 Z" fill="#E8E8E8" fill-rule="evenodd"/><path d="M 213 412 L 210 413 L 208 410 L 202 416 L 198 422 L 194 420 L 191 423 L 187 430 L 185 430 L 183 428 L 179 433 L 175 441 L 173 442 L 171 438 L 163 451 L 156 458 L 152 459 L 154 459 L 160 455 L 170 440 L 174 442 L 179 433 L 183 428 L 186 431 L 190 426 L 191 423 L 194 420 L 197 424 L 202 416 L 207 411 L 208 411 L 210 414 Z M 100 400 L 107 397 L 100 400 L 95 406 L 95 416 L 100 426 L 101 426 L 102 423 L 107 419 L 114 419 L 117 420 L 127 426 L 146 446 L 147 449 L 149 451 L 149 457 L 147 459 L 150 460 L 149 459 L 149 451 L 144 443 L 135 434 L 134 431 L 133 431 L 127 424 L 124 423 L 127 418 L 127 412 L 124 409 L 127 412 L 127 418 L 125 420 L 122 420 L 119 417 L 119 411 L 122 408 L 116 407 L 115 404 L 112 402 L 109 403 L 101 403 L 98 405 L 97 403 Z M 99 404 L 103 407 L 104 410 L 104 416 L 102 418 L 100 418 L 96 413 L 96 407 Z M 110 402 L 112 402 L 115 405 L 115 413 L 113 415 L 110 415 L 107 412 L 107 405 Z M 336 258 L 345 258 L 348 261 L 349 264 L 351 266 L 351 269 L 349 270 L 349 271 L 359 281 L 359 283 L 357 284 L 360 284 L 360 282 L 356 277 L 350 272 L 352 268 L 349 264 L 346 258 Z M 261 157 L 260 167 L 256 176 L 254 178 L 253 178 L 252 176 L 255 170 L 256 161 L 253 157 L 249 155 L 241 155 L 232 159 L 227 164 L 224 170 L 224 176 L 225 178 L 232 185 L 230 186 L 242 186 L 247 184 L 256 176 L 259 170 L 260 164 L 261 163 Z M 55 154 L 55 157 L 60 162 L 65 162 L 66 161 L 66 157 L 63 154 L 61 153 L 56 153 Z M 101 139 L 94 136 L 89 136 L 82 139 L 77 144 L 71 156 L 70 163 L 72 167 L 76 170 L 85 170 L 94 166 L 100 162 L 105 157 L 107 153 L 107 146 Z M 114 121 L 111 121 L 106 131 L 106 134 L 109 138 L 112 137 L 114 135 L 116 130 L 116 123 Z M 72 118 L 69 118 L 68 119 L 68 123 L 67 124 L 65 123 L 66 127 L 70 133 L 69 135 L 64 131 L 59 129 L 55 129 L 52 132 L 52 137 L 55 143 L 58 146 L 58 148 L 57 149 L 53 149 L 50 151 L 53 149 L 58 149 L 59 148 L 57 145 L 58 143 L 62 147 L 65 148 L 69 145 L 68 141 L 64 137 L 59 134 L 56 134 L 54 138 L 52 137 L 52 132 L 55 129 L 62 130 L 70 136 L 71 136 L 70 133 L 71 131 L 73 133 L 78 134 L 80 132 L 80 128 L 78 124 Z M 75 114 L 81 120 L 82 123 L 86 128 L 88 125 L 93 129 L 95 129 L 98 127 L 98 121 L 95 115 L 93 113 L 88 113 L 87 112 L 90 108 L 92 108 L 89 108 L 86 112 L 86 121 L 87 122 L 87 126 L 86 127 L 84 126 L 81 120 Z" fill="#B1B1B1" fill-rule="evenodd"/><path d="M 106 482 L 107 485 L 110 485 L 115 487 L 128 488 L 129 489 L 151 490 L 152 491 L 166 491 L 167 492 L 187 492 L 188 493 L 220 493 L 221 494 L 300 494 L 301 493 L 352 492 L 353 491 L 367 491 L 368 490 L 382 490 L 383 489 L 391 489 L 392 488 L 401 488 L 402 487 L 414 486 L 415 485 L 418 485 L 421 483 L 421 481 L 416 479 L 405 478 L 404 477 L 396 477 L 395 476 L 370 475 L 369 474 L 350 474 L 349 473 L 328 473 L 327 472 L 288 472 L 287 471 L 205 472 L 204 473 L 165 474 L 164 475 L 150 475 L 149 476 L 138 476 L 137 477 L 120 478 L 119 479 L 110 480 Z M 122 409 L 120 411 L 120 417 L 122 419 L 125 419 L 126 418 L 126 412 Z M 99 405 L 97 407 L 97 413 L 100 417 L 102 417 L 103 416 L 103 410 L 102 407 Z M 110 403 L 108 405 L 108 412 L 110 414 L 113 414 L 114 413 L 114 405 L 112 403 Z M 189 129 L 188 131 L 188 140 L 190 144 L 195 149 L 199 150 L 203 153 L 204 158 L 213 172 L 225 183 L 231 185 L 223 176 L 223 170 L 224 167 L 232 158 L 241 154 L 249 154 L 253 156 L 256 159 L 257 161 L 257 166 L 253 177 L 255 176 L 259 167 L 260 157 L 261 156 L 260 139 L 259 138 L 259 134 L 256 130 L 254 131 L 253 134 L 249 138 L 237 144 L 234 144 L 233 145 L 212 144 L 205 148 L 199 148 L 192 142 L 191 139 L 191 129 Z M 226 120 L 221 117 L 218 117 L 217 116 L 205 117 L 198 120 L 195 123 L 194 127 L 196 131 L 202 136 L 205 137 L 213 137 L 221 133 L 226 128 L 227 126 L 227 122 Z M 199 103 L 196 103 L 193 107 L 192 115 L 194 118 L 197 118 L 201 112 L 201 106 Z M 252 95 L 249 100 L 249 106 L 250 109 L 253 112 L 257 112 L 260 108 L 260 101 L 256 95 Z M 203 77 L 200 76 L 195 79 L 193 81 L 192 85 L 195 85 L 198 82 L 201 81 L 203 79 Z M 250 68 L 250 69 L 253 71 L 256 71 L 261 74 L 263 73 L 263 70 L 259 67 L 253 66 Z M 307 35 L 296 34 L 295 35 L 289 36 L 282 40 L 274 50 L 272 49 L 265 49 L 264 48 L 254 48 L 253 49 L 248 43 L 243 43 L 239 45 L 235 49 L 229 47 L 226 47 L 225 46 L 220 47 L 218 49 L 218 53 L 216 55 L 211 55 L 194 66 L 183 60 L 171 60 L 159 66 L 155 70 L 150 79 L 150 82 L 149 83 L 149 92 L 153 101 L 163 110 L 163 112 L 160 118 L 160 122 L 159 123 L 160 127 L 154 135 L 154 141 L 158 145 L 157 146 L 156 152 L 157 155 L 160 158 L 160 164 L 162 168 L 161 169 L 154 170 L 152 168 L 151 165 L 144 158 L 140 159 L 125 144 L 125 141 L 126 140 L 126 125 L 124 119 L 120 114 L 116 112 L 110 112 L 107 114 L 105 114 L 98 105 L 92 102 L 89 102 L 84 104 L 79 110 L 73 107 L 66 107 L 64 108 L 59 114 L 59 117 L 58 118 L 59 122 L 57 124 L 53 124 L 51 125 L 46 131 L 46 137 L 49 144 L 44 150 L 44 158 L 45 161 L 47 163 L 48 166 L 55 173 L 73 186 L 74 190 L 82 204 L 97 220 L 105 226 L 105 230 L 106 232 L 110 236 L 118 240 L 123 241 L 124 242 L 124 245 L 127 249 L 136 253 L 140 253 L 142 255 L 143 258 L 150 261 L 153 261 L 158 265 L 171 269 L 173 271 L 169 281 L 169 285 L 170 287 L 164 296 L 164 301 L 167 305 L 164 309 L 162 314 L 162 322 L 165 324 L 164 336 L 167 342 L 164 345 L 162 345 L 153 349 L 150 352 L 150 355 L 148 357 L 143 359 L 137 364 L 137 368 L 138 370 L 134 374 L 127 386 L 122 392 L 119 391 L 113 391 L 112 390 L 102 392 L 96 395 L 92 399 L 89 405 L 89 417 L 92 424 L 98 433 L 106 441 L 106 442 L 116 451 L 126 458 L 136 463 L 142 465 L 145 465 L 146 466 L 152 466 L 160 463 L 168 455 L 170 451 L 173 448 L 176 448 L 180 444 L 182 439 L 184 437 L 188 437 L 195 429 L 199 429 L 201 428 L 206 421 L 208 421 L 222 413 L 229 413 L 237 409 L 241 408 L 243 406 L 249 406 L 254 408 L 265 409 L 266 410 L 291 409 L 299 417 L 309 425 L 328 437 L 333 438 L 338 441 L 344 442 L 345 443 L 348 443 L 352 440 L 370 440 L 379 437 L 383 437 L 385 439 L 387 444 L 393 450 L 401 454 L 410 454 L 416 452 L 425 444 L 428 439 L 430 433 L 430 429 L 431 428 L 431 410 L 430 409 L 430 404 L 429 403 L 429 400 L 428 399 L 428 396 L 425 387 L 420 378 L 416 374 L 409 371 L 400 371 L 395 373 L 391 373 L 386 369 L 382 369 L 380 367 L 377 366 L 371 360 L 365 351 L 365 345 L 366 344 L 367 334 L 371 329 L 371 318 L 369 314 L 369 310 L 371 308 L 371 302 L 368 295 L 364 290 L 366 287 L 366 282 L 360 274 L 359 269 L 354 261 L 356 259 L 361 257 L 365 257 L 375 262 L 379 260 L 382 260 L 385 262 L 389 263 L 391 265 L 392 269 L 396 276 L 401 280 L 404 281 L 414 281 L 418 277 L 423 279 L 432 279 L 436 277 L 442 270 L 445 269 L 449 265 L 451 261 L 451 256 L 454 253 L 456 247 L 455 238 L 450 229 L 444 223 L 439 220 L 439 215 L 436 212 L 432 210 L 429 210 L 426 207 L 426 205 L 424 203 L 418 200 L 413 199 L 411 197 L 411 194 L 409 192 L 401 189 L 391 188 L 389 186 L 388 183 L 383 181 L 369 181 L 366 178 L 363 177 L 349 178 L 345 175 L 338 175 L 337 176 L 333 176 L 332 175 L 332 173 L 335 168 L 335 165 L 338 162 L 340 158 L 340 151 L 345 145 L 345 137 L 343 132 L 345 130 L 346 126 L 343 119 L 340 116 L 340 114 L 342 112 L 341 107 L 333 100 L 332 96 L 321 81 L 321 78 L 326 71 L 327 64 L 328 63 L 326 52 L 324 48 L 318 41 Z M 306 40 L 316 46 L 321 53 L 322 56 L 322 67 L 320 71 L 314 77 L 314 80 L 318 84 L 324 94 L 329 99 L 327 102 L 334 106 L 338 110 L 336 112 L 331 112 L 330 113 L 332 114 L 341 124 L 341 126 L 339 128 L 335 127 L 335 129 L 337 131 L 341 140 L 341 142 L 339 144 L 335 142 L 335 145 L 336 146 L 336 155 L 333 158 L 331 157 L 331 163 L 329 169 L 327 171 L 325 176 L 323 178 L 317 180 L 316 183 L 317 184 L 320 184 L 321 183 L 324 183 L 329 181 L 333 181 L 334 180 L 338 180 L 339 179 L 341 179 L 343 181 L 342 184 L 346 184 L 347 183 L 355 182 L 356 181 L 361 181 L 363 183 L 361 186 L 382 185 L 384 187 L 381 189 L 380 191 L 403 194 L 406 197 L 403 199 L 403 201 L 406 201 L 407 202 L 410 202 L 419 205 L 421 208 L 418 210 L 418 211 L 424 212 L 432 215 L 434 217 L 432 221 L 441 227 L 448 235 L 451 242 L 451 247 L 450 248 L 448 248 L 445 245 L 442 245 L 441 246 L 444 249 L 446 253 L 446 259 L 441 265 L 440 265 L 435 259 L 432 260 L 435 266 L 435 270 L 431 274 L 423 274 L 420 273 L 412 267 L 411 269 L 413 274 L 410 277 L 403 275 L 398 270 L 396 266 L 396 263 L 394 260 L 388 257 L 386 257 L 375 251 L 373 252 L 374 253 L 373 256 L 355 248 L 352 248 L 351 249 L 355 252 L 354 254 L 347 254 L 346 253 L 340 253 L 339 252 L 333 252 L 332 251 L 323 251 L 322 252 L 324 255 L 333 256 L 334 257 L 346 257 L 348 259 L 350 264 L 353 268 L 351 272 L 354 274 L 361 282 L 360 285 L 357 285 L 356 284 L 355 286 L 361 293 L 367 304 L 366 306 L 361 305 L 361 307 L 363 310 L 363 312 L 367 321 L 367 325 L 365 327 L 362 324 L 361 325 L 362 335 L 361 336 L 360 346 L 354 360 L 350 365 L 350 368 L 353 369 L 356 366 L 360 359 L 363 357 L 368 365 L 372 369 L 374 369 L 376 371 L 375 373 L 383 373 L 384 374 L 382 377 L 383 378 L 397 378 L 402 376 L 408 376 L 412 378 L 416 382 L 421 392 L 421 395 L 424 404 L 424 409 L 425 410 L 425 428 L 422 432 L 420 432 L 415 429 L 414 430 L 414 433 L 417 436 L 419 436 L 421 439 L 417 444 L 411 444 L 407 441 L 404 441 L 408 448 L 407 449 L 400 448 L 391 440 L 389 436 L 389 433 L 391 431 L 390 428 L 369 435 L 352 435 L 346 433 L 345 435 L 347 438 L 345 439 L 338 436 L 331 430 L 328 432 L 301 412 L 297 408 L 300 405 L 302 405 L 305 403 L 304 400 L 300 400 L 296 402 L 288 403 L 287 404 L 269 405 L 268 404 L 255 403 L 233 396 L 232 398 L 238 403 L 236 405 L 234 405 L 229 408 L 225 408 L 223 407 L 210 415 L 208 412 L 207 412 L 203 416 L 197 425 L 194 421 L 189 429 L 186 432 L 183 429 L 176 441 L 174 443 L 170 441 L 164 451 L 159 457 L 154 460 L 148 461 L 146 459 L 148 457 L 148 451 L 146 449 L 145 446 L 127 427 L 121 423 L 114 420 L 107 420 L 103 423 L 101 427 L 99 426 L 94 416 L 94 406 L 100 399 L 109 395 L 120 396 L 134 404 L 135 402 L 128 395 L 128 394 L 136 380 L 146 369 L 146 368 L 142 368 L 141 366 L 144 363 L 150 360 L 158 358 L 158 357 L 155 355 L 157 352 L 163 350 L 167 350 L 171 347 L 176 347 L 177 346 L 186 346 L 188 347 L 189 346 L 189 344 L 185 342 L 173 342 L 172 341 L 172 339 L 168 334 L 169 333 L 170 324 L 173 318 L 172 317 L 168 320 L 166 318 L 167 313 L 175 300 L 175 299 L 170 300 L 168 298 L 170 294 L 178 284 L 178 283 L 175 284 L 173 281 L 179 272 L 179 266 L 180 265 L 182 251 L 180 250 L 178 252 L 176 258 L 176 261 L 173 265 L 172 264 L 165 263 L 161 261 L 162 258 L 156 258 L 155 257 L 150 257 L 148 256 L 147 254 L 150 252 L 150 251 L 142 250 L 130 246 L 128 244 L 130 242 L 133 241 L 133 240 L 122 237 L 113 233 L 110 229 L 111 228 L 116 228 L 116 227 L 101 217 L 88 204 L 81 193 L 81 191 L 77 183 L 58 169 L 50 160 L 48 155 L 49 151 L 53 148 L 57 148 L 57 146 L 54 143 L 51 137 L 51 132 L 55 128 L 59 128 L 64 130 L 69 134 L 67 129 L 65 127 L 63 121 L 63 117 L 64 115 L 69 111 L 75 113 L 82 120 L 85 126 L 86 126 L 85 112 L 89 107 L 94 108 L 98 112 L 104 125 L 110 117 L 114 116 L 118 119 L 121 125 L 121 141 L 120 142 L 120 146 L 141 167 L 142 167 L 142 165 L 144 163 L 156 179 L 157 179 L 157 175 L 160 174 L 164 178 L 168 186 L 172 183 L 176 187 L 177 190 L 179 192 L 180 192 L 180 190 L 182 188 L 189 195 L 192 200 L 195 202 L 196 201 L 196 198 L 192 192 L 185 185 L 183 185 L 179 180 L 176 181 L 173 178 L 171 173 L 170 166 L 168 167 L 165 166 L 165 161 L 164 160 L 165 158 L 165 153 L 163 154 L 161 152 L 161 147 L 164 141 L 164 139 L 159 140 L 158 139 L 158 136 L 165 127 L 164 121 L 170 106 L 161 102 L 157 98 L 154 91 L 154 83 L 157 76 L 160 72 L 166 67 L 175 64 L 179 64 L 185 66 L 188 68 L 192 73 L 200 67 L 209 63 L 209 61 L 211 59 L 221 59 L 224 57 L 222 54 L 222 51 L 223 50 L 236 54 L 242 48 L 246 47 L 247 48 L 247 51 L 246 52 L 247 54 L 250 53 L 265 53 L 266 54 L 272 54 L 278 56 L 280 50 L 287 43 L 296 39 Z M 17 3 L 15 5 L 12 6 L 6 12 L 5 15 L 3 17 L 2 21 L 6 13 Z" fill="#010101" fill-rule="evenodd"/></g></svg>