<svg xmlns="http://www.w3.org/2000/svg" viewBox="0 0 570 592" shape-rendering="geometricPrecision"><title>idle-open transparent</title><defs><clipPath id="clip-card"><rect x="0" y="0" width="570" height="592" rx="32" ry="32"/></clipPath><clipPath id="clip-transparent"><rect x="12" y="12" width="558" height="580"/></clipPath></defs><g clip-path="url(#clip-transparent)"><path d="M 210 513 L 208 511 L 205 513 L 204 515 L 206 516 L 209 515 Z M 158 496 L 159 497 L 158 498 L 160 498 L 162 500 L 161 502 L 167 500 L 170 502 L 172 502 L 174 504 L 173 505 L 172 512 L 173 512 L 176 508 L 182 503 L 187 504 L 189 506 L 189 508 L 186 512 L 189 515 L 190 514 L 201 513 L 205 508 L 209 508 L 215 514 L 217 514 L 220 510 L 223 510 L 223 506 L 220 503 L 218 504 L 214 498 L 212 498 L 210 496 L 207 497 L 206 494 L 203 496 L 201 496 L 196 491 L 192 493 L 189 490 L 185 491 L 183 489 L 180 490 L 178 489 L 175 490 L 174 489 L 168 492 L 163 492 Z M 303 476 L 299 477 L 301 481 L 303 479 Z M 304 458 L 301 461 L 301 463 L 303 463 L 305 461 Z M 294 454 L 293 455 L 293 458 L 294 460 L 296 461 L 297 460 L 297 457 Z M 184 451 L 178 453 L 177 455 L 178 456 L 182 454 Z M 269 430 L 268 431 L 273 435 L 274 434 Z M 254 425 L 251 428 L 251 431 L 252 432 L 255 432 L 255 426 Z M 249 406 L 248 408 L 248 414 L 250 418 L 253 421 L 255 421 L 256 420 L 256 417 L 254 415 L 253 411 L 250 408 L 250 406 Z M 339 401 L 335 404 L 334 406 L 335 408 L 333 410 L 330 410 L 328 412 L 327 419 L 325 421 L 324 424 L 324 428 L 320 432 L 320 439 L 319 441 L 322 442 L 321 444 L 321 448 L 323 448 L 326 451 L 324 453 L 324 455 L 322 458 L 320 458 L 318 456 L 315 457 L 312 457 L 311 456 L 313 450 L 316 446 L 316 437 L 317 436 L 316 433 L 311 434 L 312 436 L 312 441 L 314 444 L 313 445 L 310 445 L 306 450 L 306 451 L 309 451 L 310 452 L 310 454 L 308 456 L 308 460 L 306 466 L 310 467 L 312 470 L 308 476 L 309 478 L 308 479 L 309 483 L 307 485 L 306 488 L 306 492 L 307 493 L 306 496 L 312 496 L 314 494 L 317 494 L 319 492 L 320 495 L 315 499 L 309 500 L 309 502 L 306 505 L 309 507 L 313 504 L 315 506 L 314 507 L 315 508 L 320 507 L 323 505 L 325 507 L 323 510 L 319 509 L 318 511 L 319 512 L 323 511 L 326 514 L 325 516 L 330 516 L 332 513 L 334 513 L 335 514 L 334 517 L 335 517 L 338 513 L 339 516 L 344 516 L 344 511 L 342 509 L 342 506 L 344 504 L 351 504 L 353 506 L 354 510 L 357 512 L 357 513 L 355 514 L 357 515 L 360 513 L 364 516 L 365 514 L 362 507 L 359 504 L 360 502 L 368 502 L 373 507 L 373 510 L 374 511 L 375 510 L 374 506 L 371 503 L 374 501 L 374 499 L 370 495 L 361 490 L 359 490 L 357 488 L 357 484 L 359 482 L 358 472 L 361 469 L 360 467 L 355 463 L 355 462 L 357 460 L 360 460 L 361 459 L 361 456 L 359 453 L 361 451 L 365 452 L 365 449 L 363 443 L 360 440 L 358 433 L 360 431 L 364 431 L 365 430 L 360 426 L 358 426 L 355 428 L 352 425 L 355 421 L 358 420 L 355 414 L 355 411 L 354 410 L 348 409 L 345 406 L 345 402 L 344 401 Z M 326 490 L 328 492 L 326 494 L 323 495 L 322 493 Z M 344 488 L 347 485 L 349 486 L 348 489 L 345 489 Z M 340 485 L 341 486 L 341 489 L 338 491 L 337 489 L 338 486 Z M 331 485 L 333 487 L 333 490 L 332 491 L 330 490 L 330 486 Z M 318 483 L 320 486 L 320 489 L 318 491 L 314 492 L 311 494 L 310 492 L 315 488 L 315 484 Z M 324 481 L 327 484 L 325 488 L 323 487 L 323 482 Z M 342 468 L 344 466 L 348 466 L 350 467 L 352 470 L 351 471 L 346 470 L 345 472 L 343 472 L 342 471 Z M 313 463 L 316 467 L 316 473 L 315 474 L 313 473 L 313 469 L 311 464 Z M 332 460 L 338 463 L 338 466 L 335 469 L 332 467 L 332 464 L 331 463 Z M 322 460 L 325 459 L 326 461 L 324 463 Z M 349 457 L 351 456 L 354 460 L 351 461 L 349 459 Z M 355 438 L 357 440 L 357 443 L 352 447 L 351 450 L 348 449 L 350 456 L 348 457 L 345 454 L 345 450 L 340 446 L 342 444 L 350 443 L 351 440 L 353 438 Z M 330 436 L 333 437 L 337 442 L 337 444 L 335 445 L 331 439 L 330 439 L 331 445 L 333 447 L 333 450 L 332 451 L 329 449 L 326 445 L 326 439 Z M 338 434 L 341 433 L 345 436 L 342 438 Z M 325 425 L 328 423 L 332 428 L 330 429 Z M 204 398 L 202 399 L 202 403 L 201 404 L 203 407 L 206 403 L 206 402 L 203 401 Z M 184 362 L 184 365 L 182 368 L 183 369 L 186 369 L 189 367 L 189 364 L 186 362 Z M 201 354 L 198 355 L 197 358 L 198 359 L 201 356 Z M 179 323 L 178 322 L 175 322 L 171 326 L 172 327 L 171 328 L 175 328 Z M 165 310 L 162 311 L 162 315 L 161 316 L 158 314 L 158 316 L 161 319 L 159 322 L 157 321 L 153 321 L 151 322 L 150 320 L 153 316 L 149 313 L 148 311 L 147 311 L 148 312 L 147 315 L 146 315 L 143 311 L 140 312 L 138 315 L 138 317 L 139 318 L 143 318 L 144 320 L 135 323 L 135 325 L 133 327 L 133 328 L 136 328 L 137 327 L 140 328 L 140 329 L 135 333 L 135 335 L 137 335 L 141 339 L 145 341 L 144 343 L 143 342 L 136 342 L 132 344 L 132 345 L 136 344 L 137 345 L 137 348 L 140 349 L 142 351 L 141 354 L 141 357 L 142 358 L 138 362 L 139 363 L 139 366 L 144 365 L 146 367 L 143 371 L 149 368 L 151 370 L 153 375 L 155 375 L 156 373 L 154 371 L 154 369 L 151 366 L 149 368 L 146 366 L 146 365 L 150 362 L 151 358 L 149 358 L 144 363 L 143 363 L 141 360 L 147 355 L 145 352 L 148 349 L 152 354 L 154 354 L 156 352 L 153 350 L 153 348 L 156 345 L 155 339 L 152 343 L 148 341 L 147 339 L 155 333 L 157 329 L 159 328 L 160 329 L 160 325 L 162 323 L 163 319 L 165 316 Z M 138 344 L 139 343 L 144 343 L 145 345 L 144 346 L 139 346 Z M 150 333 L 149 335 L 146 337 L 143 335 L 140 337 L 139 336 L 142 332 L 143 333 L 146 333 L 148 331 Z M 200 256 L 197 254 L 193 256 L 189 256 L 188 255 L 188 252 L 183 250 L 176 251 L 172 253 L 172 254 L 169 256 L 169 258 L 170 259 L 172 258 L 172 256 L 174 255 L 175 256 L 174 260 L 177 262 L 175 264 L 171 262 L 170 263 L 171 264 L 168 266 L 168 269 L 165 271 L 162 271 L 160 273 L 160 275 L 154 279 L 157 282 L 157 284 L 155 286 L 153 286 L 155 292 L 151 295 L 150 297 L 151 299 L 156 303 L 156 304 L 154 305 L 147 300 L 141 304 L 141 305 L 146 304 L 148 306 L 147 307 L 148 308 L 151 308 L 152 309 L 153 308 L 156 309 L 157 306 L 160 307 L 161 306 L 161 301 L 159 297 L 161 295 L 162 296 L 165 296 L 164 291 L 167 287 L 169 288 L 172 288 L 173 287 L 169 282 L 170 279 L 167 279 L 166 278 L 166 275 L 168 273 L 170 273 L 172 277 L 173 277 L 177 282 L 177 279 L 181 275 L 182 269 L 184 266 L 188 265 L 191 267 L 191 270 L 192 271 L 196 271 L 195 265 L 194 264 L 189 264 L 186 260 L 188 258 L 191 258 L 195 256 L 198 256 L 199 257 Z M 160 279 L 161 278 L 166 278 L 167 279 L 166 283 L 163 285 L 162 284 L 162 281 L 161 281 Z M 196 240 L 198 243 L 196 246 L 196 249 L 198 251 L 204 252 L 205 253 L 209 253 L 210 254 L 209 257 L 205 257 L 203 259 L 200 260 L 199 262 L 204 261 L 207 258 L 212 258 L 213 259 L 210 263 L 204 267 L 202 271 L 205 270 L 207 272 L 206 275 L 204 275 L 201 278 L 197 274 L 194 277 L 190 276 L 186 278 L 186 281 L 188 282 L 190 285 L 188 287 L 188 290 L 184 295 L 184 298 L 186 301 L 188 301 L 190 303 L 190 305 L 194 308 L 196 307 L 196 304 L 193 304 L 192 301 L 197 296 L 205 295 L 207 297 L 205 299 L 200 299 L 200 301 L 206 300 L 207 303 L 203 308 L 197 310 L 193 315 L 187 310 L 188 305 L 186 305 L 181 311 L 180 319 L 182 321 L 190 320 L 192 322 L 188 326 L 184 334 L 179 339 L 179 341 L 184 342 L 189 338 L 192 340 L 194 343 L 187 349 L 187 351 L 184 354 L 181 353 L 180 355 L 174 360 L 172 364 L 175 365 L 177 362 L 184 356 L 186 356 L 187 358 L 190 357 L 187 353 L 191 347 L 193 347 L 195 350 L 199 344 L 206 343 L 211 338 L 213 338 L 218 334 L 218 328 L 213 326 L 214 323 L 213 318 L 215 316 L 218 316 L 221 319 L 220 322 L 221 323 L 223 323 L 227 320 L 235 320 L 236 321 L 240 321 L 242 324 L 236 332 L 234 330 L 233 327 L 231 328 L 228 327 L 227 328 L 226 326 L 228 324 L 224 325 L 222 329 L 222 333 L 225 336 L 226 339 L 224 341 L 222 341 L 218 346 L 217 346 L 215 343 L 209 345 L 206 350 L 206 353 L 205 354 L 206 356 L 209 356 L 211 358 L 213 358 L 218 355 L 221 355 L 223 357 L 216 362 L 216 365 L 212 369 L 208 371 L 205 369 L 202 369 L 200 367 L 205 362 L 207 362 L 209 360 L 205 362 L 197 363 L 191 370 L 188 370 L 185 372 L 183 372 L 183 378 L 187 383 L 186 384 L 186 387 L 182 390 L 182 391 L 184 392 L 182 395 L 189 391 L 192 388 L 189 384 L 188 379 L 192 375 L 192 373 L 194 371 L 197 373 L 197 375 L 193 383 L 194 383 L 198 378 L 199 378 L 201 381 L 206 378 L 208 380 L 208 382 L 213 381 L 215 379 L 216 381 L 214 383 L 211 384 L 209 386 L 206 385 L 203 388 L 200 388 L 199 391 L 200 390 L 203 392 L 206 389 L 210 389 L 212 392 L 214 392 L 216 394 L 215 396 L 215 400 L 213 402 L 210 402 L 210 407 L 211 409 L 214 408 L 213 405 L 216 402 L 219 404 L 219 401 L 222 399 L 221 397 L 222 391 L 220 390 L 217 392 L 215 390 L 216 386 L 220 382 L 222 385 L 225 386 L 230 392 L 235 394 L 237 396 L 234 399 L 234 401 L 235 402 L 235 405 L 237 408 L 235 409 L 232 406 L 224 407 L 224 408 L 227 409 L 232 415 L 234 414 L 236 415 L 236 420 L 246 431 L 248 431 L 247 429 L 247 424 L 246 424 L 245 426 L 242 425 L 242 423 L 240 420 L 240 415 L 239 414 L 240 404 L 237 400 L 238 395 L 240 393 L 241 390 L 243 391 L 243 396 L 247 400 L 249 399 L 251 402 L 252 401 L 254 405 L 259 409 L 262 417 L 268 412 L 267 409 L 264 409 L 263 408 L 263 402 L 266 401 L 270 404 L 270 409 L 272 411 L 272 413 L 270 415 L 270 417 L 268 419 L 267 418 L 267 420 L 270 422 L 272 425 L 275 425 L 275 420 L 273 417 L 274 416 L 277 416 L 283 421 L 283 423 L 281 425 L 277 426 L 277 430 L 280 430 L 281 431 L 282 430 L 282 426 L 284 424 L 284 421 L 285 420 L 287 421 L 291 427 L 292 426 L 289 421 L 290 417 L 289 416 L 286 417 L 283 414 L 282 408 L 287 406 L 290 409 L 291 412 L 293 414 L 295 414 L 295 412 L 292 407 L 292 404 L 296 400 L 298 400 L 300 404 L 298 407 L 298 412 L 300 414 L 304 424 L 302 426 L 299 426 L 297 423 L 294 423 L 296 433 L 297 433 L 298 430 L 302 430 L 303 429 L 306 430 L 307 427 L 310 424 L 311 425 L 311 422 L 313 420 L 317 419 L 321 414 L 318 410 L 318 408 L 320 406 L 323 409 L 323 412 L 324 413 L 325 412 L 326 406 L 329 405 L 333 401 L 334 399 L 334 393 L 336 391 L 342 397 L 344 397 L 342 394 L 342 391 L 344 388 L 339 382 L 344 376 L 333 367 L 331 364 L 331 362 L 328 359 L 328 356 L 329 355 L 332 355 L 341 363 L 341 365 L 342 365 L 343 363 L 343 359 L 340 355 L 336 356 L 332 352 L 331 349 L 325 341 L 325 338 L 326 337 L 329 337 L 335 342 L 336 341 L 335 340 L 335 337 L 339 335 L 332 329 L 333 327 L 335 327 L 335 320 L 329 315 L 327 315 L 317 309 L 319 306 L 327 307 L 331 309 L 331 305 L 325 292 L 327 291 L 328 288 L 331 288 L 334 286 L 336 288 L 337 292 L 340 295 L 342 295 L 345 291 L 347 293 L 343 298 L 343 300 L 346 302 L 350 307 L 347 313 L 349 317 L 347 320 L 349 322 L 350 327 L 352 329 L 351 330 L 353 332 L 352 336 L 354 336 L 356 338 L 358 338 L 360 335 L 362 336 L 361 338 L 361 343 L 360 344 L 361 350 L 360 351 L 357 348 L 354 352 L 352 352 L 353 354 L 354 353 L 359 359 L 359 361 L 356 365 L 356 368 L 355 369 L 355 372 L 358 376 L 354 381 L 356 382 L 360 379 L 362 381 L 362 383 L 367 383 L 374 392 L 378 391 L 378 390 L 375 388 L 376 386 L 382 388 L 384 387 L 382 384 L 385 382 L 388 385 L 388 390 L 387 391 L 383 391 L 383 392 L 387 395 L 387 397 L 384 399 L 385 400 L 384 401 L 381 401 L 382 402 L 384 402 L 384 401 L 387 399 L 387 397 L 389 395 L 391 395 L 396 388 L 400 391 L 399 392 L 396 392 L 393 397 L 396 398 L 402 396 L 402 394 L 404 391 L 404 388 L 403 387 L 406 381 L 404 370 L 406 368 L 410 370 L 409 367 L 407 365 L 407 363 L 409 362 L 409 359 L 407 355 L 407 351 L 405 349 L 403 343 L 405 340 L 405 338 L 400 334 L 402 330 L 397 324 L 395 320 L 396 319 L 396 316 L 389 313 L 391 310 L 391 308 L 389 306 L 388 303 L 384 299 L 379 300 L 377 298 L 379 295 L 380 296 L 387 296 L 389 297 L 389 296 L 385 293 L 380 293 L 378 291 L 380 289 L 383 290 L 384 289 L 381 286 L 380 283 L 374 278 L 373 276 L 374 273 L 366 266 L 368 262 L 365 257 L 357 251 L 359 248 L 358 247 L 353 246 L 347 243 L 344 243 L 336 247 L 334 246 L 332 247 L 328 247 L 317 239 L 316 242 L 313 243 L 311 246 L 309 246 L 308 245 L 308 242 L 307 242 L 305 245 L 301 245 L 298 248 L 293 249 L 289 252 L 286 252 L 279 257 L 276 257 L 274 262 L 269 259 L 267 261 L 263 262 L 259 266 L 258 266 L 257 264 L 255 264 L 252 267 L 246 267 L 243 263 L 240 264 L 236 262 L 233 258 L 230 261 L 229 264 L 226 266 L 226 269 L 229 270 L 231 268 L 235 268 L 236 271 L 230 275 L 225 280 L 223 280 L 219 277 L 219 271 L 218 272 L 215 272 L 213 270 L 211 270 L 210 268 L 218 264 L 221 265 L 224 262 L 224 261 L 220 260 L 219 258 L 222 256 L 226 256 L 228 257 L 229 254 L 227 252 L 227 250 L 221 252 L 220 251 L 220 248 L 218 246 L 216 247 L 211 247 L 210 246 L 211 243 L 209 242 L 205 243 L 199 238 Z M 258 398 L 260 399 L 260 402 L 259 403 L 256 402 L 256 400 Z M 273 394 L 275 395 L 277 401 L 280 404 L 278 407 L 277 407 L 273 402 L 273 397 L 272 396 Z M 262 390 L 265 389 L 266 392 L 264 394 L 262 392 Z M 247 389 L 250 390 L 252 392 L 254 396 L 253 399 L 251 399 L 250 398 L 250 395 L 246 392 Z M 254 386 L 259 390 L 261 394 L 264 397 L 262 399 L 260 397 L 258 398 L 255 395 L 255 392 L 253 388 Z M 307 385 L 314 391 L 317 396 L 317 398 L 315 399 L 315 404 L 316 405 L 315 407 L 315 415 L 310 420 L 308 425 L 305 423 L 303 417 L 303 414 L 305 412 L 305 408 L 306 407 L 309 408 L 309 397 L 307 395 L 307 389 L 306 388 Z M 323 381 L 328 386 L 328 393 L 327 394 L 327 399 L 322 403 L 319 401 L 319 394 L 322 388 L 322 384 L 321 383 Z M 228 374 L 230 374 L 233 379 L 233 381 L 230 384 L 227 383 L 228 380 L 226 377 Z M 307 373 L 310 377 L 309 380 L 307 382 L 305 380 L 307 377 L 305 375 Z M 274 373 L 275 373 L 282 380 L 283 384 L 281 386 L 278 384 L 278 381 L 273 376 Z M 282 369 L 283 366 L 286 366 L 287 367 L 285 370 Z M 261 366 L 264 368 L 264 371 L 276 381 L 277 386 L 273 393 L 271 392 L 271 386 L 269 385 L 266 385 L 265 386 L 264 385 L 264 379 L 263 378 L 261 378 L 259 376 L 256 379 L 254 378 L 254 376 L 258 372 L 258 370 Z M 362 365 L 363 368 L 362 370 L 358 373 L 356 371 L 358 369 L 358 367 L 360 365 Z M 323 365 L 325 365 L 328 368 L 332 375 L 332 380 L 330 383 L 325 379 L 325 375 L 321 369 L 321 367 Z M 216 367 L 218 365 L 220 366 L 219 369 L 217 369 Z M 268 363 L 271 365 L 271 368 L 270 369 L 267 368 L 267 364 Z M 246 363 L 248 366 L 255 372 L 255 374 L 252 376 L 252 381 L 251 382 L 248 381 L 248 375 L 247 375 L 247 377 L 242 381 L 240 380 L 244 375 L 244 370 L 243 370 L 241 367 Z M 298 362 L 303 366 L 300 371 L 300 373 L 303 376 L 302 379 L 297 375 L 298 370 L 296 367 L 296 364 Z M 255 362 L 257 361 L 259 365 L 257 366 Z M 230 360 L 231 363 L 228 366 L 227 365 L 227 362 Z M 311 358 L 314 360 L 314 368 L 313 369 L 312 368 L 310 369 L 308 368 L 311 362 L 310 360 Z M 249 357 L 251 362 L 247 364 L 246 361 L 247 358 Z M 363 360 L 366 356 L 368 356 L 370 361 L 369 362 L 364 362 Z M 274 356 L 277 354 L 281 359 L 278 361 Z M 226 353 L 229 354 L 229 357 L 227 360 L 226 360 L 224 357 Z M 236 352 L 242 357 L 242 362 L 241 363 L 236 361 L 237 357 L 235 359 L 233 358 Z M 373 351 L 377 354 L 374 363 L 372 362 L 373 359 L 372 352 Z M 250 349 L 252 352 L 248 357 L 247 356 L 247 353 L 248 350 Z M 300 346 L 302 347 L 301 349 L 303 352 L 309 356 L 307 358 L 305 357 L 303 361 L 300 358 L 299 354 L 297 351 L 297 349 L 299 348 Z M 260 343 L 262 345 L 261 346 L 262 349 L 260 351 L 258 349 L 258 345 Z M 223 344 L 225 341 L 228 343 L 225 346 Z M 313 340 L 315 342 L 313 345 L 311 346 L 310 345 L 311 342 Z M 282 340 L 284 339 L 287 343 L 284 344 L 282 342 Z M 266 339 L 268 341 L 269 352 L 272 352 L 274 354 L 270 359 L 268 359 L 266 357 L 266 349 L 263 349 L 262 348 L 264 346 L 264 341 Z M 197 341 L 199 338 L 202 340 L 199 342 Z M 255 335 L 256 337 L 255 339 L 253 340 L 252 338 L 253 336 Z M 232 335 L 234 337 L 232 340 L 230 338 Z M 244 334 L 245 335 L 244 337 L 244 343 L 241 346 L 238 347 L 236 345 L 240 340 L 242 335 Z M 250 331 L 251 333 L 248 336 L 247 334 Z M 319 331 L 322 330 L 323 333 L 321 334 Z M 283 328 L 284 331 L 282 333 L 280 330 Z M 363 327 L 365 329 L 363 332 L 361 330 Z M 244 327 L 246 329 L 243 332 L 242 329 Z M 313 329 L 314 326 L 317 326 L 318 327 L 316 330 Z M 240 321 L 242 319 L 245 319 L 248 322 L 250 321 L 251 323 L 248 326 Z M 282 323 L 283 320 L 285 318 L 290 321 L 295 322 L 297 325 L 296 326 L 293 325 L 288 326 L 286 323 L 285 324 Z M 299 317 L 302 319 L 302 322 L 301 323 L 298 321 L 298 318 Z M 360 316 L 364 321 L 364 323 L 362 324 L 359 322 L 354 326 L 351 322 L 355 319 L 358 319 L 358 317 Z M 263 316 L 266 319 L 266 322 L 260 328 L 259 332 L 257 333 L 256 332 L 257 324 L 262 320 L 262 317 Z M 237 312 L 239 315 L 236 317 L 235 314 Z M 258 315 L 258 313 L 260 311 L 263 311 L 265 313 L 262 317 L 260 317 Z M 351 310 L 355 313 L 355 316 L 354 317 L 349 313 Z M 302 310 L 307 315 L 308 317 L 307 319 L 304 318 L 302 316 L 302 314 L 300 312 Z M 224 313 L 227 310 L 229 310 L 231 312 L 230 314 L 225 314 Z M 213 310 L 214 312 L 207 319 L 205 323 L 207 326 L 201 332 L 201 333 L 203 333 L 205 331 L 207 333 L 203 338 L 201 338 L 200 335 L 198 335 L 196 333 L 197 325 L 199 323 L 201 317 L 204 314 L 210 310 Z M 281 309 L 283 311 L 283 314 L 282 315 L 279 313 L 279 311 Z M 217 310 L 219 308 L 221 308 L 222 309 L 222 313 L 225 314 L 222 316 L 220 316 L 218 314 Z M 270 305 L 271 306 L 272 305 L 274 306 L 274 310 L 276 313 L 273 319 L 271 318 L 272 316 L 272 312 L 268 308 Z M 304 301 L 307 300 L 310 302 L 310 304 L 307 305 Z M 282 300 L 284 298 L 286 298 L 288 300 L 288 302 L 286 303 Z M 273 300 L 276 298 L 278 301 L 275 302 Z M 348 297 L 351 295 L 353 298 L 351 300 Z M 321 295 L 324 297 L 324 300 L 322 303 L 320 302 L 319 297 Z M 215 294 L 216 296 L 215 298 L 212 300 L 210 297 L 212 294 Z M 316 289 L 319 288 L 320 290 L 317 291 Z M 311 286 L 312 286 L 315 290 L 315 294 L 313 296 L 310 295 L 310 291 L 309 289 Z M 345 284 L 346 283 L 349 283 L 351 286 L 348 288 Z M 308 281 L 310 284 L 307 286 L 305 284 Z M 254 284 L 251 287 L 248 288 L 245 293 L 240 297 L 239 300 L 237 302 L 234 301 L 228 307 L 226 305 L 226 304 L 232 298 L 232 296 L 230 297 L 228 295 L 228 292 L 231 289 L 236 292 L 238 292 L 247 281 L 252 282 Z M 288 279 L 289 278 L 292 279 L 295 278 L 298 281 L 298 283 L 300 286 L 299 287 L 296 287 L 294 284 L 290 284 Z M 319 276 L 322 278 L 320 284 L 317 283 L 317 279 Z M 276 285 L 276 287 L 274 289 L 273 289 L 269 284 L 267 284 L 264 287 L 261 286 L 261 290 L 259 292 L 257 289 L 254 288 L 255 286 L 257 286 L 262 281 L 266 280 L 268 276 L 270 278 L 271 282 L 273 284 Z M 284 277 L 287 275 L 289 278 L 286 279 Z M 243 275 L 236 280 L 225 293 L 221 293 L 220 294 L 217 291 L 216 289 L 218 287 L 223 286 L 226 282 L 232 277 L 240 274 Z M 214 276 L 210 279 L 201 289 L 199 289 L 195 286 L 199 281 L 206 277 L 209 274 L 213 274 Z M 337 273 L 332 278 L 328 278 L 326 276 L 326 275 L 330 272 L 335 271 Z M 275 269 L 276 271 L 273 275 L 271 272 Z M 275 268 L 277 266 L 280 268 L 279 269 L 276 269 Z M 330 258 L 332 261 L 326 264 L 324 261 L 326 259 Z M 323 222 L 323 223 L 325 224 L 327 230 L 332 227 L 334 228 L 334 222 L 332 222 L 330 224 L 325 224 L 324 222 Z M 350 209 L 345 207 L 344 212 L 339 217 L 338 225 L 339 225 L 339 223 L 341 221 L 344 222 L 348 219 L 348 215 L 351 212 Z M 220 71 L 214 80 L 214 81 L 216 82 L 216 84 L 213 89 L 215 91 L 214 94 L 217 97 L 220 98 L 220 101 L 222 103 L 217 107 L 215 111 L 206 119 L 205 121 L 206 122 L 204 124 L 202 123 L 204 126 L 202 128 L 198 129 L 200 133 L 190 141 L 189 145 L 191 145 L 193 147 L 192 148 L 192 151 L 196 150 L 200 153 L 198 155 L 193 156 L 189 154 L 188 156 L 191 159 L 193 159 L 195 156 L 199 156 L 200 155 L 201 157 L 198 160 L 196 160 L 195 162 L 199 162 L 201 164 L 201 167 L 200 168 L 192 167 L 188 169 L 188 170 L 193 170 L 194 169 L 196 170 L 201 170 L 203 168 L 208 170 L 209 172 L 208 173 L 205 173 L 203 176 L 206 178 L 210 179 L 209 176 L 211 174 L 213 174 L 215 176 L 214 178 L 217 179 L 216 182 L 213 185 L 211 185 L 212 187 L 211 190 L 217 185 L 223 183 L 224 184 L 220 190 L 221 191 L 226 187 L 228 190 L 224 192 L 225 193 L 230 191 L 232 193 L 230 196 L 230 199 L 233 199 L 235 202 L 239 204 L 243 209 L 246 209 L 247 208 L 251 209 L 252 208 L 253 209 L 252 212 L 253 215 L 257 215 L 258 214 L 261 215 L 263 214 L 265 217 L 265 215 L 267 213 L 269 215 L 274 217 L 277 220 L 279 219 L 286 219 L 287 220 L 286 224 L 291 228 L 291 231 L 293 234 L 293 236 L 290 240 L 291 240 L 293 237 L 296 236 L 296 225 L 297 224 L 299 225 L 299 229 L 300 230 L 301 229 L 300 225 L 298 222 L 301 218 L 303 218 L 305 220 L 308 218 L 310 220 L 310 225 L 312 228 L 313 228 L 316 224 L 315 221 L 316 219 L 315 218 L 313 218 L 315 221 L 314 222 L 312 222 L 310 220 L 310 217 L 312 215 L 314 215 L 316 212 L 313 209 L 312 206 L 314 203 L 317 202 L 319 203 L 319 205 L 316 207 L 316 209 L 319 212 L 321 212 L 323 214 L 323 217 L 325 219 L 329 221 L 330 220 L 323 214 L 326 212 L 330 215 L 331 214 L 329 211 L 330 207 L 328 206 L 326 203 L 328 201 L 331 203 L 333 203 L 335 205 L 334 207 L 334 212 L 336 211 L 339 212 L 340 211 L 340 208 L 343 206 L 342 204 L 341 205 L 339 203 L 339 200 L 341 198 L 345 203 L 347 201 L 349 201 L 350 204 L 356 208 L 357 210 L 356 212 L 356 216 L 355 217 L 356 217 L 356 216 L 358 215 L 359 206 L 360 205 L 364 205 L 365 206 L 364 204 L 366 202 L 369 203 L 368 199 L 366 197 L 366 200 L 364 202 L 362 200 L 362 193 L 359 190 L 357 186 L 359 184 L 361 186 L 367 188 L 368 190 L 366 191 L 366 192 L 372 194 L 372 190 L 369 182 L 371 180 L 374 182 L 376 182 L 376 180 L 372 175 L 372 173 L 374 171 L 373 170 L 372 164 L 369 161 L 370 157 L 368 152 L 370 150 L 372 150 L 373 147 L 377 143 L 380 144 L 379 147 L 381 146 L 383 143 L 380 139 L 381 138 L 388 139 L 389 138 L 389 135 L 391 133 L 391 129 L 389 126 L 389 121 L 386 116 L 383 114 L 380 110 L 377 110 L 373 107 L 369 107 L 368 106 L 362 108 L 358 108 L 353 113 L 350 113 L 341 106 L 339 103 L 337 103 L 334 100 L 324 97 L 319 92 L 317 87 L 314 83 L 313 83 L 314 85 L 314 92 L 312 93 L 306 88 L 305 85 L 297 78 L 295 78 L 297 83 L 297 86 L 296 87 L 293 85 L 291 86 L 283 80 L 280 80 L 284 85 L 282 87 L 280 87 L 277 85 L 272 85 L 270 83 L 268 83 L 265 85 L 264 84 L 261 84 L 260 85 L 252 86 L 250 84 L 250 82 L 252 80 L 252 77 L 251 75 L 244 69 L 241 69 L 239 67 L 234 66 L 233 67 L 229 67 Z M 296 215 L 298 218 L 292 222 L 291 221 L 292 217 L 294 215 Z M 323 203 L 327 207 L 327 210 L 325 211 L 321 206 Z M 310 196 L 311 194 L 313 193 L 316 197 L 315 198 L 312 198 Z M 217 172 L 218 170 L 222 170 L 223 171 L 221 173 L 218 173 Z M 236 169 L 238 167 L 240 167 L 242 169 L 242 173 L 243 175 L 249 181 L 257 185 L 260 185 L 265 187 L 276 187 L 283 184 L 286 180 L 288 180 L 290 182 L 290 186 L 287 189 L 279 193 L 263 193 L 262 192 L 255 191 L 243 184 L 239 180 L 236 174 Z M 309 173 L 310 171 L 316 166 L 324 166 L 330 168 L 339 173 L 343 177 L 345 181 L 345 185 L 343 188 L 338 191 L 330 191 L 324 188 L 321 188 L 317 184 L 314 183 L 311 180 Z M 340 152 L 342 151 L 345 152 L 347 154 L 344 156 L 341 154 Z M 245 151 L 250 146 L 256 144 L 258 145 L 268 146 L 278 151 L 284 157 L 284 163 L 278 169 L 261 173 L 258 170 L 254 169 L 249 164 L 245 157 Z M 309 141 L 313 141 L 319 147 L 320 154 L 318 159 L 313 164 L 311 165 L 306 165 L 301 160 L 300 152 L 302 147 Z M 262 140 L 264 138 L 267 137 L 278 138 L 283 141 L 289 147 L 289 148 L 286 149 L 284 147 L 280 146 L 277 144 L 274 144 L 270 142 L 264 142 Z M 203 146 L 204 144 L 211 138 L 211 137 L 208 135 L 209 133 L 211 133 L 215 137 L 217 136 L 222 136 L 223 137 L 227 137 L 233 140 L 237 145 L 237 150 L 232 155 L 228 156 L 226 158 L 222 158 L 220 160 L 216 157 L 211 157 L 208 155 L 203 149 Z M 250 123 L 255 128 L 256 134 L 254 139 L 250 143 L 246 145 L 243 145 L 238 141 L 237 139 L 237 133 L 239 128 L 245 123 Z M 364 118 L 370 118 L 375 120 L 381 128 L 380 137 L 376 142 L 371 145 L 369 145 L 367 143 L 362 134 L 359 131 L 359 128 L 357 125 L 357 123 Z M 214 119 L 216 117 L 219 119 L 217 121 Z M 318 113 L 323 114 L 331 122 L 332 126 L 329 130 L 314 118 L 314 116 Z M 264 101 L 264 104 L 262 106 L 255 107 L 250 110 L 248 110 L 245 107 L 245 104 L 248 101 L 256 98 L 261 98 Z M 234 76 L 242 84 L 243 87 L 238 92 L 231 95 L 227 99 L 224 99 L 220 95 L 220 93 L 218 90 L 219 86 L 226 77 L 232 77 Z" fill="#FBFBFB" fill-rule="evenodd"/><path d="M 348 505 L 352 508 L 354 513 L 354 516 L 356 518 L 359 515 L 362 516 L 360 514 L 357 516 L 354 514 L 356 513 L 356 512 L 353 510 L 352 506 L 351 505 Z M 186 505 L 187 506 L 185 512 L 185 515 L 186 516 L 193 516 L 194 515 L 196 516 L 199 514 L 204 516 L 203 514 L 208 510 L 211 513 L 210 515 L 211 514 L 216 515 L 215 515 L 209 509 L 205 509 L 201 514 L 190 515 L 189 516 L 185 512 L 188 508 L 188 506 Z M 169 502 L 166 501 L 163 503 L 161 503 L 160 504 L 160 510 L 161 510 L 161 508 L 166 502 Z M 300 492 L 296 496 L 299 501 L 301 500 L 301 493 Z M 305 489 L 305 497 L 308 501 L 306 504 L 303 505 L 306 508 L 305 513 L 306 513 L 306 511 L 311 507 L 314 509 L 312 513 L 314 515 L 316 515 L 319 513 L 320 514 L 320 518 L 326 518 L 328 517 L 334 519 L 336 517 L 339 517 L 342 519 L 345 517 L 345 515 L 344 517 L 339 517 L 338 514 L 335 518 L 331 516 L 332 514 L 334 515 L 334 514 L 332 514 L 330 517 L 325 517 L 324 516 L 325 514 L 323 512 L 319 513 L 317 511 L 319 508 L 323 509 L 324 507 L 323 506 L 320 508 L 315 509 L 313 507 L 314 506 L 313 505 L 308 508 L 305 505 L 308 502 L 308 500 L 312 498 L 315 498 L 319 495 L 319 493 L 317 495 L 314 495 L 312 497 L 306 497 L 305 496 L 306 494 Z M 313 512 L 316 511 L 317 514 L 315 515 Z M 318 484 L 316 484 L 316 488 L 313 490 L 311 493 L 319 489 Z M 175 489 L 177 488 L 179 489 L 183 488 L 185 490 L 189 489 L 192 492 L 196 490 L 201 495 L 203 495 L 206 493 L 207 496 L 210 495 L 212 497 L 214 497 L 217 500 L 218 503 L 220 502 L 224 506 L 224 510 L 223 511 L 220 511 L 218 514 L 220 511 L 224 512 L 224 506 L 219 502 L 215 497 L 208 495 L 206 493 L 202 495 L 200 492 L 199 493 L 196 490 L 192 492 L 190 490 L 192 487 L 192 485 L 189 485 L 188 484 L 187 485 L 188 487 L 187 489 L 185 489 L 181 485 L 178 488 Z M 219 483 L 217 489 L 221 493 L 221 496 L 223 497 L 227 502 L 228 502 L 226 497 L 226 493 L 223 494 L 221 492 L 221 489 L 223 487 L 224 482 Z M 300 476 L 298 476 L 292 483 L 290 483 L 288 485 L 291 486 L 294 483 L 296 484 L 299 483 L 300 481 L 298 477 Z M 232 476 L 228 478 L 228 490 L 230 489 L 232 491 L 231 495 L 229 497 L 233 500 L 234 504 L 235 504 L 236 499 L 234 497 L 233 498 L 232 497 L 232 493 L 233 492 L 233 489 L 238 484 L 240 481 L 240 479 L 239 478 L 236 481 L 234 479 L 234 477 Z M 232 482 L 234 483 L 234 487 L 233 488 L 230 487 Z M 187 475 L 185 476 L 185 478 L 182 481 L 183 483 L 186 481 L 185 478 Z M 175 470 L 174 470 L 173 477 L 174 477 L 177 473 Z M 215 469 L 215 470 L 219 473 L 219 469 Z M 343 468 L 343 471 L 345 471 L 346 469 L 351 470 L 351 469 L 348 467 L 344 467 Z M 291 467 L 290 470 L 292 471 L 293 468 Z M 191 467 L 190 468 L 190 472 L 192 473 L 194 470 Z M 312 464 L 314 469 L 314 473 L 315 473 L 315 467 L 314 465 Z M 200 463 L 199 465 L 204 472 L 204 475 L 206 477 L 206 479 L 204 481 L 204 484 L 206 484 L 207 483 L 206 482 L 207 479 L 211 481 L 211 480 L 206 473 L 206 469 L 202 464 Z M 332 461 L 333 467 L 335 468 L 337 466 L 337 463 L 335 463 Z M 217 455 L 215 456 L 214 463 L 216 463 L 216 459 L 218 457 Z M 294 453 L 292 455 L 292 460 L 295 461 L 294 461 L 292 458 L 292 455 L 294 453 L 298 457 L 298 460 L 297 461 L 302 466 L 303 465 L 305 466 L 307 460 L 307 457 L 304 457 L 302 459 L 300 459 L 298 457 L 297 454 Z M 304 457 L 306 459 L 306 461 L 303 464 L 301 464 L 300 461 Z M 302 447 L 300 449 L 300 451 L 305 453 L 308 452 L 309 453 L 308 455 L 309 452 L 306 452 L 305 451 L 308 447 L 306 449 Z M 303 447 L 304 450 L 302 452 L 300 449 Z M 206 447 L 203 449 L 203 458 L 206 460 L 205 455 L 207 452 L 207 448 Z M 198 442 L 196 444 L 196 447 L 195 448 L 192 447 L 192 448 L 194 449 L 194 451 L 192 453 L 190 453 L 185 456 L 184 454 L 187 450 L 187 449 L 185 449 L 181 451 L 182 450 L 185 451 L 182 455 L 178 457 L 176 454 L 177 453 L 176 456 L 179 458 L 178 459 L 179 461 L 181 461 L 184 458 L 185 459 L 183 465 L 185 465 L 188 463 L 191 459 L 191 456 L 198 451 L 197 450 L 197 444 Z M 188 459 L 189 461 L 185 464 L 184 462 Z M 183 455 L 185 457 L 181 461 L 179 459 Z M 185 442 L 183 442 L 180 445 L 177 445 L 174 448 L 175 449 L 176 448 L 179 448 L 179 447 L 184 444 Z M 317 441 L 317 446 L 315 448 L 318 446 L 319 449 L 316 452 L 316 454 L 314 456 L 312 455 L 312 456 L 318 455 L 320 457 L 322 457 L 323 454 L 320 456 L 318 454 L 318 451 L 320 449 L 322 449 L 324 452 L 325 451 L 327 452 L 327 451 L 326 452 L 323 449 L 321 449 L 320 448 L 320 444 L 321 442 Z M 304 440 L 303 442 L 306 444 L 308 441 L 307 440 Z M 355 439 L 353 439 L 352 442 L 350 444 L 346 444 L 341 446 L 346 450 L 346 454 L 350 457 L 351 460 L 353 460 L 353 459 L 349 456 L 348 454 L 348 450 L 347 449 L 348 448 L 351 449 L 351 447 L 356 443 L 356 440 Z M 330 437 L 327 439 L 327 445 L 328 447 L 332 450 L 332 447 L 330 445 L 329 439 L 331 438 L 335 444 L 336 444 L 336 442 L 333 438 Z M 184 434 L 182 433 L 178 438 L 172 440 L 170 442 L 169 447 L 173 446 L 175 444 L 175 442 L 180 437 L 183 436 Z M 216 427 L 219 431 L 221 431 L 221 429 L 218 427 Z M 358 418 L 359 420 L 353 424 L 355 423 L 357 425 L 355 427 L 358 425 L 361 426 Z M 274 417 L 275 419 L 277 418 L 280 420 L 281 423 L 280 424 L 277 424 L 276 421 L 276 425 L 275 426 L 272 426 L 275 428 L 275 430 L 274 431 L 270 430 L 275 434 L 274 436 L 278 436 L 279 435 L 278 433 L 280 431 L 277 431 L 276 430 L 276 426 L 281 424 L 282 421 L 277 417 Z M 314 411 L 311 414 L 311 417 L 309 419 L 309 421 L 314 415 Z M 194 411 L 193 414 L 195 415 L 196 412 Z M 247 409 L 245 411 L 248 415 L 246 420 L 242 420 L 240 414 L 240 411 L 241 420 L 243 423 L 243 425 L 245 425 L 245 424 L 247 423 L 248 424 L 248 429 L 249 431 L 246 432 L 244 429 L 237 423 L 235 420 L 235 415 L 234 415 L 235 417 L 234 420 L 236 426 L 236 434 L 235 435 L 237 435 L 239 430 L 244 434 L 246 434 L 247 432 L 257 434 L 256 430 L 255 433 L 252 433 L 250 431 L 250 428 L 254 424 L 256 427 L 257 418 L 257 420 L 255 422 L 253 422 L 249 418 L 247 414 Z M 248 423 L 250 421 L 252 421 L 254 423 L 252 425 L 250 425 Z M 185 408 L 184 409 L 185 413 L 180 417 L 177 418 L 177 419 L 179 419 L 182 417 L 184 414 L 187 412 L 187 410 Z M 264 402 L 264 408 L 267 408 L 269 410 L 269 412 L 265 415 L 263 418 L 262 418 L 265 419 L 268 423 L 271 424 L 266 420 L 266 418 L 267 417 L 268 418 L 269 415 L 271 413 L 271 411 L 269 409 L 269 404 L 268 403 L 269 406 L 267 408 L 264 405 L 264 403 L 266 402 Z M 298 401 L 296 401 L 293 404 L 294 403 L 296 404 L 296 406 L 294 408 L 293 407 L 296 412 L 295 415 L 293 415 L 287 407 L 283 408 L 284 414 L 286 416 L 289 415 L 290 416 L 292 415 L 294 417 L 292 421 L 291 421 L 290 419 L 290 421 L 293 426 L 291 428 L 288 425 L 286 421 L 285 421 L 285 424 L 283 426 L 283 430 L 282 431 L 285 431 L 288 434 L 289 433 L 289 430 L 294 426 L 293 424 L 294 422 L 297 422 L 299 425 L 302 425 L 303 424 L 301 418 L 297 412 L 297 407 L 299 405 Z M 288 426 L 289 427 L 289 431 L 287 433 L 285 429 L 286 427 Z M 297 414 L 300 416 L 300 418 L 299 420 L 296 422 L 295 421 L 295 416 Z M 289 410 L 290 413 L 286 416 L 285 413 Z M 273 395 L 274 397 L 274 402 L 275 404 L 278 406 L 279 404 L 276 401 L 274 395 Z M 343 393 L 345 396 L 344 398 L 342 398 L 336 392 L 335 393 L 335 399 L 334 401 L 329 406 L 327 406 L 326 412 L 324 414 L 322 412 L 322 409 L 320 407 L 319 408 L 319 410 L 322 414 L 318 419 L 319 417 L 323 414 L 324 414 L 326 417 L 324 419 L 324 421 L 315 428 L 316 430 L 314 432 L 311 432 L 310 433 L 311 436 L 310 435 L 311 433 L 316 432 L 318 434 L 317 438 L 319 439 L 319 432 L 320 431 L 317 432 L 316 431 L 317 429 L 316 427 L 319 425 L 320 426 L 319 428 L 321 427 L 322 429 L 323 428 L 323 424 L 324 421 L 326 419 L 327 412 L 330 409 L 333 409 L 334 408 L 333 406 L 334 404 L 339 400 L 344 400 L 346 403 L 345 396 Z M 335 395 L 338 394 L 341 398 L 339 400 L 337 400 L 335 398 Z M 241 391 L 241 393 L 239 395 L 238 400 L 241 404 L 241 409 L 241 404 L 238 399 L 242 396 L 245 399 L 246 402 L 247 401 L 250 402 L 248 405 L 245 404 L 245 406 L 248 407 L 248 406 L 250 405 L 254 412 L 255 412 L 256 410 L 258 410 L 260 414 L 258 409 L 253 405 L 252 402 L 251 403 L 249 400 L 247 401 L 242 396 L 242 391 Z M 247 390 L 247 392 L 253 396 L 253 397 L 251 398 L 253 398 L 251 392 Z M 396 389 L 393 394 L 391 396 L 388 397 L 388 398 L 391 398 L 392 399 L 392 405 L 395 403 L 395 401 L 397 399 L 400 399 L 402 397 L 396 399 L 394 399 L 392 397 L 396 391 L 399 391 Z M 254 387 L 256 392 L 256 395 L 258 397 L 260 396 L 262 398 L 263 397 L 260 394 L 258 390 Z M 255 391 L 257 390 L 260 394 L 258 396 L 256 394 Z M 307 386 L 308 389 L 308 395 L 310 397 L 310 408 L 309 409 L 306 408 L 306 412 L 304 414 L 311 407 L 310 405 L 310 402 L 311 401 L 313 402 L 313 407 L 314 408 L 315 406 L 314 404 L 314 399 L 316 398 L 316 396 L 313 391 Z M 308 391 L 309 390 L 312 391 L 314 393 L 315 396 L 314 397 L 313 396 L 310 396 Z M 387 385 L 384 383 L 383 384 L 385 387 L 382 389 L 376 387 L 379 391 L 374 393 L 370 388 L 369 391 L 367 393 L 367 396 L 365 398 L 369 400 L 374 394 L 380 392 L 381 393 L 381 397 L 380 398 L 380 402 L 378 403 L 378 405 L 379 406 L 382 406 L 386 401 L 386 400 L 385 401 L 383 399 L 386 397 L 386 395 L 385 395 L 382 391 L 384 388 L 386 389 L 385 390 L 387 390 Z M 380 401 L 381 400 L 384 400 L 385 402 L 382 403 Z M 220 383 L 217 386 L 219 384 L 221 386 L 221 388 L 219 390 L 216 388 L 216 390 L 218 391 L 221 389 L 223 391 L 222 394 L 223 399 L 220 401 L 220 404 L 218 405 L 217 403 L 214 405 L 215 408 L 213 410 L 210 409 L 209 407 L 209 402 L 214 400 L 214 396 L 215 394 L 212 393 L 210 390 L 206 390 L 204 392 L 206 390 L 209 390 L 211 393 L 213 393 L 215 395 L 214 396 L 214 399 L 213 400 L 210 399 L 207 401 L 206 398 L 209 397 L 209 396 L 207 395 L 201 398 L 201 403 L 201 399 L 203 397 L 205 398 L 204 401 L 208 401 L 209 402 L 209 404 L 208 405 L 206 404 L 203 408 L 201 406 L 203 408 L 205 407 L 207 410 L 204 414 L 206 418 L 208 416 L 205 415 L 207 412 L 209 414 L 209 413 L 215 408 L 217 409 L 217 413 L 210 419 L 210 421 L 217 417 L 221 419 L 220 419 L 218 416 L 219 413 L 221 414 L 221 416 L 221 414 L 219 411 L 220 401 L 221 400 L 224 400 L 229 394 L 230 395 L 233 395 L 234 397 L 228 402 L 226 402 L 223 406 L 223 408 L 224 406 L 229 406 L 230 405 L 232 405 L 236 408 L 234 405 L 234 402 L 233 401 L 233 399 L 236 396 L 230 393 L 225 387 L 223 387 Z M 225 391 L 226 391 L 228 394 L 226 397 L 225 397 L 223 394 Z M 360 380 L 356 383 L 354 382 L 354 384 L 356 387 L 356 390 L 359 390 L 361 386 L 364 384 L 362 384 Z M 203 387 L 206 384 L 209 385 L 211 383 L 214 382 L 215 380 L 213 382 L 208 383 L 206 379 L 207 383 Z M 198 379 L 196 381 L 198 379 L 200 381 L 198 385 L 198 391 L 199 393 L 201 394 L 202 392 L 200 391 L 199 392 L 198 389 L 201 387 L 199 385 L 204 380 L 201 382 L 200 380 Z M 228 375 L 227 378 L 228 379 L 230 378 L 232 380 L 230 382 L 228 382 L 228 383 L 230 383 L 232 381 L 232 379 L 230 375 Z M 307 374 L 306 375 L 308 377 L 306 379 L 307 381 L 309 378 Z M 274 374 L 274 376 L 279 381 L 279 384 L 281 385 L 282 384 L 281 380 L 275 374 Z M 195 372 L 193 373 L 193 375 L 189 379 L 190 384 L 193 387 L 193 385 L 195 383 L 193 384 L 192 382 L 196 375 Z M 195 373 L 196 375 L 195 377 L 192 379 L 191 377 L 193 374 Z M 354 370 L 353 374 L 355 377 L 353 379 L 357 376 L 354 372 Z M 261 367 L 259 370 L 259 372 L 255 376 L 255 378 L 259 375 L 261 377 L 263 377 L 265 379 L 265 385 L 266 384 L 271 385 L 272 386 L 272 392 L 273 392 L 276 386 L 275 381 L 271 377 L 269 377 L 263 371 L 263 368 Z M 265 376 L 266 375 L 268 377 L 271 377 L 273 380 L 270 383 L 266 384 L 265 383 Z M 362 366 L 359 367 L 359 369 L 357 371 L 358 372 L 361 370 Z M 298 363 L 297 364 L 297 367 L 299 370 L 298 375 L 302 378 L 302 376 L 299 373 L 299 371 L 302 366 Z M 337 360 L 340 363 L 340 366 L 342 368 L 340 370 L 337 370 L 340 371 L 344 375 L 342 373 L 344 370 L 344 362 L 343 365 L 341 366 L 340 363 Z M 311 359 L 312 362 L 309 368 L 311 367 L 313 368 L 313 360 Z M 248 358 L 247 363 L 242 367 L 242 368 L 245 370 L 245 375 L 241 380 L 245 378 L 246 375 L 248 374 L 249 375 L 249 381 L 251 381 L 251 376 L 254 374 L 254 372 L 252 371 L 246 364 L 248 362 L 250 362 L 249 358 Z M 248 370 L 250 369 L 253 373 L 251 375 L 249 373 Z M 141 358 L 136 362 L 131 358 L 130 359 L 131 363 L 128 367 L 129 369 L 131 369 L 132 366 L 134 364 L 137 364 L 138 365 L 137 362 Z M 364 361 L 369 361 L 368 357 L 366 357 Z M 276 355 L 275 357 L 279 360 L 280 358 Z M 354 354 L 356 356 L 355 358 L 356 361 L 355 365 L 357 363 L 358 359 Z M 228 354 L 226 354 L 225 356 L 226 359 L 227 359 L 228 357 Z M 236 353 L 234 358 L 237 356 L 238 357 L 237 361 L 241 362 L 241 357 Z M 373 352 L 373 356 L 374 357 L 373 362 L 374 362 L 376 354 Z M 300 347 L 300 348 L 298 349 L 298 351 L 300 354 L 301 358 L 303 360 L 303 358 L 305 356 L 306 357 L 308 356 L 302 352 L 300 349 L 301 347 Z M 205 344 L 199 345 L 195 351 L 193 348 L 191 348 L 188 353 L 191 356 L 190 358 L 187 359 L 186 357 L 184 357 L 180 360 L 175 366 L 173 366 L 171 364 L 173 361 L 170 365 L 170 368 L 171 369 L 170 370 L 170 378 L 172 379 L 177 375 L 172 377 L 170 375 L 171 373 L 175 373 L 176 372 L 178 373 L 178 371 L 180 369 L 182 370 L 182 377 L 179 379 L 177 382 L 178 384 L 178 388 L 181 392 L 181 393 L 178 395 L 179 398 L 180 398 L 181 396 L 182 396 L 183 398 L 186 396 L 187 397 L 189 396 L 193 396 L 192 394 L 191 395 L 188 394 L 191 391 L 193 392 L 192 389 L 183 396 L 181 395 L 183 392 L 182 392 L 181 390 L 185 387 L 185 384 L 186 383 L 182 378 L 182 372 L 183 371 L 185 371 L 188 369 L 191 369 L 197 362 L 205 361 L 209 359 L 210 360 L 207 363 L 205 363 L 201 367 L 202 368 L 205 368 L 208 370 L 212 368 L 215 365 L 215 362 L 222 357 L 221 356 L 218 356 L 213 359 L 207 357 L 208 359 L 205 361 L 203 361 L 201 359 L 201 357 L 198 360 L 196 358 L 197 356 L 194 359 L 193 358 L 194 353 L 200 345 L 202 346 L 203 350 L 198 354 L 201 353 L 202 355 L 203 350 L 205 348 L 206 349 L 204 346 Z M 178 388 L 178 386 L 180 384 L 183 386 L 181 389 Z M 179 382 L 182 381 L 184 383 L 183 384 L 180 384 Z M 171 369 L 173 367 L 175 367 L 178 370 L 174 373 Z M 217 359 L 215 362 L 214 366 L 212 368 L 209 366 L 206 368 L 203 367 L 206 363 L 208 363 L 212 359 L 214 358 Z M 184 357 L 185 358 L 185 361 L 188 363 L 187 361 L 189 359 L 192 362 L 190 364 L 190 367 L 186 370 L 183 370 L 181 368 L 183 365 L 183 363 L 181 362 L 181 360 Z M 192 349 L 194 351 L 192 354 L 190 354 L 189 352 Z M 266 340 L 265 341 L 265 346 L 263 348 L 266 348 L 267 349 L 267 357 L 270 358 L 273 354 L 268 352 L 268 346 Z M 326 338 L 326 341 L 328 344 L 326 340 L 327 339 L 330 339 L 340 349 L 340 351 L 341 350 L 341 345 L 340 344 L 341 337 L 340 336 L 336 337 L 336 340 L 337 341 L 335 343 L 329 338 Z M 338 342 L 340 343 L 340 346 L 339 347 L 336 345 Z M 338 337 L 340 339 L 338 342 L 336 340 Z M 244 335 L 243 335 L 241 340 L 238 343 L 237 345 L 238 346 L 241 345 L 243 343 L 243 337 Z M 149 333 L 148 332 L 146 334 L 143 334 L 142 333 L 140 336 L 143 334 L 146 336 L 148 335 Z M 135 322 L 136 322 L 134 323 L 134 325 L 131 329 L 131 330 L 134 330 L 135 331 L 133 335 L 135 339 L 132 343 L 128 345 L 128 346 L 132 346 L 133 347 L 128 353 L 130 355 L 133 355 L 135 357 L 137 357 L 139 355 L 140 356 L 141 351 L 138 350 L 136 348 L 136 345 L 132 346 L 131 344 L 136 341 L 139 341 L 140 339 L 141 341 L 144 342 L 144 341 L 141 340 L 137 336 L 134 335 L 134 333 L 139 329 L 139 328 L 136 329 L 133 329 L 132 328 Z M 132 353 L 135 351 L 137 354 L 135 356 L 133 355 Z M 346 321 L 347 323 L 346 325 L 347 327 L 346 331 L 348 331 L 350 333 L 350 339 L 353 338 L 355 340 L 353 343 L 351 342 L 350 343 L 351 345 L 350 348 L 350 354 L 351 355 L 352 354 L 351 352 L 354 351 L 357 347 L 360 350 L 359 344 L 360 343 L 360 338 L 361 336 L 360 336 L 358 339 L 352 337 L 351 336 L 352 332 L 350 330 L 351 329 L 349 327 L 348 322 Z M 357 343 L 354 346 L 351 345 L 355 342 Z M 283 323 L 286 322 L 288 325 L 291 324 L 296 325 L 295 323 L 290 322 L 285 319 Z M 360 317 L 359 317 L 358 320 L 355 320 L 353 321 L 352 323 L 354 325 L 359 321 L 363 323 L 363 321 Z M 207 343 L 209 344 L 215 342 L 217 345 L 218 345 L 222 340 L 225 339 L 224 336 L 221 333 L 221 330 L 220 330 L 219 328 L 220 327 L 222 328 L 222 326 L 226 323 L 229 324 L 227 327 L 228 326 L 229 327 L 233 326 L 236 331 L 242 322 L 248 325 L 250 322 L 248 323 L 245 320 L 242 320 L 240 322 L 227 321 L 223 324 L 220 323 L 219 325 L 216 326 L 214 324 L 218 320 L 220 321 L 220 319 L 218 317 L 215 317 L 214 318 L 214 321 L 215 322 L 214 326 L 217 326 L 219 328 L 219 334 L 214 338 L 217 336 L 219 338 L 217 342 L 211 342 L 210 341 L 212 339 L 211 339 Z M 233 322 L 234 324 L 231 326 L 230 324 Z M 137 314 L 137 319 L 138 321 L 143 320 L 143 319 L 139 319 L 137 317 L 138 314 Z M 263 312 L 260 312 L 259 313 L 259 315 L 263 317 L 263 320 L 258 324 L 257 332 L 258 332 L 259 328 L 265 322 L 265 319 L 262 316 L 264 313 Z M 260 322 L 262 324 L 260 327 L 258 325 Z M 351 311 L 350 313 L 354 316 L 354 313 Z M 302 311 L 301 312 L 303 314 L 303 316 L 307 318 L 306 315 Z M 213 311 L 210 311 L 202 317 L 200 323 L 198 325 L 197 333 L 200 334 L 201 337 L 203 337 L 206 333 L 205 332 L 203 334 L 200 333 L 200 332 L 206 326 L 204 323 L 206 319 L 213 312 Z M 206 316 L 207 318 L 204 322 L 205 327 L 199 333 L 198 332 L 198 329 L 200 327 L 200 321 L 204 316 Z M 218 310 L 220 315 L 222 315 L 225 313 L 230 313 L 229 311 L 227 311 L 224 314 L 222 314 L 221 313 L 221 309 Z M 270 306 L 269 308 L 273 312 L 273 316 L 272 318 L 273 318 L 275 313 L 273 310 L 273 306 L 271 307 Z M 378 297 L 379 299 L 384 298 L 384 297 L 380 297 L 379 296 Z M 321 296 L 320 299 L 321 302 L 322 302 L 323 297 Z M 335 295 L 334 296 L 334 301 L 332 303 L 330 302 L 332 305 L 332 309 L 331 310 L 327 308 L 322 308 L 321 307 L 318 308 L 318 309 L 321 310 L 323 312 L 329 314 L 333 318 L 328 312 L 331 311 L 334 307 L 337 307 L 336 306 L 336 297 Z M 215 295 L 212 295 L 211 298 L 213 299 Z M 336 291 L 336 293 L 338 296 L 342 298 L 342 303 L 341 304 L 341 308 L 343 310 L 342 312 L 347 308 L 348 310 L 345 316 L 348 317 L 346 313 L 349 307 L 348 305 L 342 300 L 342 298 L 346 293 L 345 292 L 342 296 L 340 296 Z M 341 305 L 342 304 L 345 304 L 346 307 L 343 308 Z M 379 291 L 380 292 L 385 292 L 388 295 L 385 290 L 383 291 L 380 290 Z M 187 289 L 182 297 L 182 299 L 183 299 L 185 302 L 182 305 L 181 305 L 180 303 L 178 304 L 176 308 L 178 308 L 180 306 L 183 307 L 180 310 L 180 315 L 171 325 L 175 321 L 178 321 L 180 323 L 176 328 L 176 334 L 178 333 L 178 327 L 180 325 L 182 327 L 185 328 L 183 331 L 183 334 L 178 338 L 175 337 L 175 338 L 171 341 L 171 342 L 173 342 L 175 340 L 176 341 L 172 347 L 173 348 L 169 350 L 169 351 L 172 353 L 171 354 L 172 355 L 175 353 L 177 353 L 178 350 L 180 348 L 181 349 L 181 352 L 180 353 L 181 352 L 184 353 L 186 351 L 186 349 L 192 343 L 193 343 L 193 342 L 189 339 L 184 343 L 178 341 L 178 339 L 183 334 L 187 326 L 191 322 L 190 321 L 182 322 L 179 319 L 180 311 L 186 304 L 188 304 L 189 305 L 188 310 L 193 314 L 197 309 L 203 307 L 206 303 L 206 301 L 203 302 L 200 302 L 199 301 L 200 298 L 205 298 L 206 297 L 205 296 L 200 296 L 197 297 L 193 301 L 193 303 L 194 303 L 193 301 L 196 299 L 198 301 L 196 303 L 197 306 L 200 302 L 204 302 L 205 304 L 201 308 L 198 309 L 197 308 L 194 309 L 189 305 L 189 303 L 186 302 L 183 298 L 183 295 Z M 178 347 L 179 348 L 178 350 L 173 354 L 172 351 Z M 192 343 L 186 348 L 182 348 L 180 346 L 177 345 L 178 342 L 181 342 L 182 343 L 188 341 L 191 341 Z M 189 310 L 191 308 L 195 312 L 193 314 Z M 334 287 L 331 289 L 328 289 L 328 291 L 326 292 L 328 296 L 329 296 L 330 294 L 330 291 L 333 288 L 335 288 Z M 312 287 L 311 287 L 310 289 L 311 291 L 311 295 L 310 296 L 314 294 L 314 290 Z M 156 283 L 147 289 L 151 293 L 142 303 L 145 300 L 148 299 L 151 302 L 155 304 L 155 303 L 150 299 L 149 296 L 154 292 L 152 286 L 155 285 Z M 253 284 L 247 282 L 238 293 L 236 293 L 231 290 L 229 292 L 229 295 L 230 296 L 232 295 L 233 298 L 227 304 L 228 306 L 234 300 L 235 301 L 238 300 L 237 301 L 234 298 L 233 295 L 230 295 L 229 294 L 231 291 L 235 293 L 238 293 L 247 283 L 251 283 L 252 285 L 249 286 L 240 296 L 244 293 L 248 287 L 251 286 Z M 320 277 L 319 277 L 318 279 L 318 283 L 320 283 L 320 280 L 321 279 Z M 275 285 L 273 285 L 270 282 L 270 280 L 268 277 L 268 279 L 265 281 L 266 282 L 265 285 L 262 285 L 261 284 L 262 282 L 257 287 L 255 287 L 255 288 L 257 288 L 259 291 L 261 285 L 264 286 L 267 283 L 269 283 L 273 288 L 275 287 Z M 285 277 L 289 279 L 290 283 L 294 283 L 296 286 L 299 286 L 297 283 L 297 281 L 295 279 L 292 280 L 289 279 L 287 276 Z M 242 275 L 236 276 L 229 280 L 223 287 L 218 288 L 217 289 L 220 293 L 221 292 L 225 292 L 230 286 L 225 292 L 222 290 L 224 286 L 234 277 L 236 276 L 238 278 L 237 279 Z M 181 276 L 178 279 L 178 282 L 177 283 L 173 278 L 171 277 L 170 274 L 167 275 L 167 278 L 166 279 L 161 279 L 161 280 L 163 281 L 163 284 L 164 284 L 167 278 L 170 278 L 171 279 L 170 282 L 174 287 L 172 289 L 167 288 L 165 291 L 166 296 L 165 297 L 162 297 L 161 296 L 160 297 L 162 301 L 162 306 L 160 308 L 157 307 L 156 310 L 155 309 L 152 310 L 151 309 L 148 309 L 146 307 L 147 306 L 146 305 L 143 305 L 142 306 L 140 305 L 139 306 L 142 310 L 141 311 L 143 310 L 145 313 L 147 314 L 146 311 L 148 310 L 149 312 L 154 316 L 151 321 L 153 320 L 157 320 L 159 321 L 160 319 L 157 316 L 157 314 L 158 313 L 161 315 L 161 311 L 163 309 L 166 310 L 166 316 L 164 319 L 163 323 L 161 325 L 161 329 L 160 330 L 159 329 L 157 330 L 157 332 L 148 339 L 148 340 L 152 342 L 155 338 L 156 339 L 157 345 L 154 348 L 154 350 L 157 352 L 154 355 L 152 355 L 148 350 L 146 352 L 148 355 L 142 360 L 142 361 L 144 362 L 149 357 L 151 357 L 152 358 L 151 362 L 147 365 L 147 366 L 149 367 L 151 365 L 155 369 L 155 371 L 157 373 L 155 376 L 153 376 L 149 369 L 143 372 L 142 370 L 145 367 L 144 366 L 139 367 L 137 370 L 134 372 L 132 372 L 129 375 L 130 379 L 132 382 L 134 383 L 134 387 L 135 387 L 135 385 L 138 382 L 140 384 L 140 387 L 141 387 L 144 384 L 143 382 L 144 380 L 146 381 L 151 379 L 156 379 L 158 380 L 158 378 L 160 376 L 160 375 L 155 371 L 154 363 L 152 362 L 151 360 L 155 355 L 156 356 L 158 355 L 158 352 L 157 351 L 157 342 L 156 340 L 159 336 L 157 334 L 161 330 L 161 326 L 168 314 L 166 308 L 164 308 L 162 306 L 165 304 L 168 307 L 169 302 L 171 301 L 172 293 L 173 291 L 175 290 L 176 285 L 179 283 L 179 280 Z M 142 381 L 144 383 L 143 385 L 141 386 L 140 383 Z M 148 371 L 152 374 L 152 376 L 150 378 L 147 375 L 147 372 Z M 142 368 L 143 369 L 141 373 L 143 375 L 143 377 L 141 379 L 138 378 L 138 380 L 134 383 L 133 381 L 134 380 L 135 373 Z M 171 282 L 173 281 L 176 283 L 173 285 Z M 336 273 L 335 272 L 328 274 L 327 276 L 328 277 L 327 276 L 330 274 L 332 276 L 331 277 L 332 277 Z M 211 268 L 211 269 L 213 269 L 215 271 L 218 271 L 219 270 L 220 271 L 220 277 L 223 279 L 220 276 L 220 273 L 221 272 L 222 265 L 224 263 L 221 266 L 218 265 L 215 267 Z M 215 269 L 217 266 L 219 266 L 221 268 L 218 271 Z M 331 260 L 329 259 L 326 260 L 325 262 L 327 263 L 331 261 Z M 174 256 L 173 256 L 173 258 L 170 260 L 168 257 L 169 259 L 169 263 L 167 265 L 164 265 L 164 266 L 167 267 L 165 270 L 167 269 L 167 266 L 170 264 L 169 263 L 171 261 L 175 263 L 176 262 L 173 260 Z M 279 256 L 274 257 L 273 256 L 273 252 L 271 253 L 271 256 L 267 260 L 270 258 L 274 261 L 274 258 L 276 256 Z M 189 248 L 188 247 L 186 248 L 181 248 L 179 250 L 176 250 L 175 251 L 180 249 L 183 249 L 189 251 Z M 249 246 L 247 247 L 246 252 L 249 250 L 250 248 Z M 195 241 L 194 248 L 196 250 L 196 252 L 193 255 L 191 255 L 189 253 L 189 255 L 193 255 L 197 253 L 201 256 L 199 258 L 198 257 L 195 257 L 191 259 L 188 259 L 187 261 L 189 263 L 194 263 L 196 265 L 197 271 L 196 272 L 192 272 L 190 270 L 190 267 L 187 266 L 184 267 L 182 274 L 183 269 L 185 267 L 188 266 L 190 268 L 188 271 L 188 273 L 192 272 L 193 273 L 192 275 L 193 276 L 197 273 L 201 277 L 204 274 L 206 274 L 206 272 L 205 271 L 202 272 L 201 271 L 202 270 L 197 269 L 196 268 L 196 265 L 198 263 L 202 263 L 203 262 L 199 263 L 198 261 L 205 256 L 209 256 L 209 254 L 205 254 L 204 253 L 198 252 L 195 249 L 195 246 L 197 244 Z M 188 261 L 190 259 L 193 261 L 191 263 Z M 195 259 L 197 257 L 200 259 L 198 261 Z M 339 245 L 344 242 L 347 242 L 357 246 L 355 244 L 350 243 L 348 240 L 345 242 L 341 243 Z M 219 245 L 221 248 L 221 251 L 227 249 L 228 252 L 230 254 L 230 256 L 228 258 L 226 257 L 222 257 L 220 258 L 220 259 L 222 259 L 225 261 L 229 257 L 231 258 L 229 262 L 226 265 L 228 264 L 229 261 L 233 257 L 236 261 L 240 263 L 243 262 L 246 266 L 252 266 L 255 263 L 257 263 L 258 265 L 259 265 L 264 261 L 261 263 L 259 261 L 260 259 L 258 259 L 253 265 L 248 266 L 243 261 L 243 258 L 242 261 L 240 263 L 238 262 L 231 254 L 232 253 L 233 246 L 232 246 L 230 249 L 227 247 L 223 251 L 221 249 L 226 244 L 227 240 L 223 240 Z M 196 239 L 199 237 L 205 242 L 207 241 L 211 242 L 212 243 L 211 246 L 216 246 L 214 246 L 213 244 L 217 241 L 214 241 L 213 242 L 207 241 L 205 242 L 202 239 L 204 236 L 202 234 Z M 258 231 L 256 232 L 256 236 L 257 237 L 257 235 L 259 233 Z M 253 231 L 251 231 L 248 234 L 246 234 L 238 240 L 240 243 L 242 241 L 244 242 L 240 247 L 237 246 L 236 248 L 237 250 L 237 254 L 240 258 L 242 254 L 241 250 L 244 244 L 248 240 L 252 243 L 252 246 L 253 247 L 253 251 L 252 253 L 254 253 L 256 251 L 256 246 L 254 245 L 252 242 L 253 237 L 251 235 Z M 204 227 L 202 225 L 196 228 L 195 231 L 193 232 L 193 234 L 195 234 L 195 232 L 201 227 L 203 228 Z M 249 226 L 246 225 L 244 227 L 242 227 L 240 225 L 241 221 L 239 221 L 236 225 L 232 225 L 230 226 L 228 224 L 228 226 L 226 228 L 227 230 L 227 234 L 229 235 L 233 229 L 235 228 L 236 229 L 236 234 L 235 235 L 237 236 Z M 297 217 L 294 216 L 292 219 L 292 221 L 296 219 Z M 229 208 L 223 213 L 217 213 L 216 212 L 212 216 L 211 219 L 213 224 L 211 226 L 211 228 L 207 231 L 208 232 L 212 230 L 214 233 L 216 233 L 220 230 L 218 226 L 222 222 L 226 220 L 224 219 L 215 227 L 213 225 L 214 224 L 214 218 L 216 216 L 221 216 L 228 210 L 229 211 L 230 210 Z M 323 204 L 322 206 L 323 208 L 326 210 L 326 207 Z M 360 206 L 360 207 L 363 206 L 365 208 L 365 211 L 367 212 L 367 209 L 369 204 L 366 203 L 365 204 L 366 205 L 365 207 L 364 206 Z M 359 185 L 358 187 L 363 193 L 363 200 L 364 201 L 365 200 L 365 197 L 366 196 L 369 199 L 369 201 L 367 195 L 369 194 L 373 197 L 373 192 L 372 195 L 367 194 L 365 192 L 367 189 L 361 187 Z M 192 188 L 195 186 L 199 186 L 200 184 L 199 185 L 194 184 L 192 186 Z M 189 177 L 187 180 L 187 185 L 193 181 L 193 180 Z M 194 175 L 194 177 L 196 179 L 198 179 L 201 177 L 207 181 L 212 181 L 213 182 L 212 184 L 209 184 L 208 185 L 209 187 L 207 190 L 206 196 L 204 198 L 201 195 L 201 192 L 198 193 L 197 191 L 194 191 L 192 193 L 192 198 L 193 199 L 197 196 L 199 197 L 197 199 L 196 203 L 199 205 L 198 208 L 201 207 L 203 209 L 203 212 L 204 213 L 205 212 L 207 213 L 206 216 L 207 217 L 209 214 L 207 213 L 207 211 L 209 210 L 210 212 L 212 210 L 212 208 L 211 207 L 207 208 L 205 206 L 208 203 L 212 204 L 216 202 L 217 203 L 217 207 L 221 207 L 222 206 L 218 202 L 219 199 L 225 197 L 227 199 L 226 201 L 227 202 L 229 200 L 232 200 L 233 201 L 231 204 L 232 206 L 235 204 L 238 207 L 238 209 L 236 212 L 237 213 L 240 212 L 242 210 L 246 210 L 248 212 L 247 218 L 249 220 L 253 217 L 256 217 L 257 216 L 259 218 L 253 223 L 251 226 L 253 225 L 261 226 L 263 228 L 263 230 L 266 230 L 267 229 L 264 226 L 260 224 L 259 222 L 260 220 L 263 218 L 269 223 L 269 225 L 272 227 L 272 229 L 269 232 L 270 240 L 271 240 L 271 233 L 272 232 L 274 233 L 276 237 L 277 235 L 277 230 L 274 226 L 276 224 L 280 224 L 281 225 L 281 229 L 283 232 L 283 234 L 277 240 L 277 242 L 280 242 L 281 240 L 283 239 L 284 240 L 283 244 L 285 243 L 285 240 L 287 238 L 289 242 L 292 241 L 295 238 L 297 239 L 296 242 L 298 242 L 299 241 L 299 237 L 302 236 L 304 230 L 306 231 L 306 233 L 308 233 L 309 231 L 312 231 L 317 224 L 320 224 L 321 225 L 318 230 L 320 231 L 322 234 L 319 237 L 316 238 L 315 237 L 316 235 L 315 234 L 312 236 L 312 239 L 313 240 L 312 242 L 309 240 L 306 240 L 303 241 L 301 244 L 294 248 L 298 247 L 301 244 L 305 244 L 307 241 L 309 242 L 309 245 L 311 245 L 313 242 L 315 242 L 315 240 L 317 238 L 328 246 L 332 246 L 333 245 L 332 242 L 328 239 L 328 237 L 330 235 L 329 235 L 328 233 L 329 232 L 330 233 L 332 229 L 335 229 L 337 226 L 338 227 L 339 226 L 335 223 L 334 220 L 337 218 L 338 221 L 338 217 L 343 212 L 344 207 L 346 206 L 350 208 L 352 210 L 352 212 L 349 215 L 349 219 L 344 223 L 341 222 L 340 224 L 341 223 L 344 224 L 349 219 L 351 214 L 353 212 L 355 214 L 354 216 L 354 221 L 355 222 L 357 221 L 360 215 L 359 211 L 359 215 L 355 218 L 354 217 L 356 211 L 355 208 L 352 207 L 349 204 L 349 202 L 347 202 L 345 204 L 341 199 L 340 200 L 340 203 L 341 204 L 342 203 L 344 206 L 341 208 L 341 211 L 339 213 L 338 212 L 334 213 L 333 212 L 333 207 L 334 205 L 331 204 L 329 202 L 327 203 L 327 204 L 331 207 L 330 211 L 332 214 L 330 216 L 327 213 L 324 214 L 325 214 L 326 216 L 331 220 L 329 222 L 325 220 L 322 217 L 322 214 L 319 213 L 315 209 L 315 207 L 318 205 L 318 203 L 314 204 L 313 205 L 314 209 L 317 212 L 314 216 L 311 217 L 311 220 L 314 221 L 312 218 L 315 217 L 317 219 L 316 221 L 317 224 L 315 227 L 312 229 L 309 225 L 309 220 L 308 219 L 305 221 L 303 219 L 301 219 L 299 222 L 301 225 L 302 229 L 300 231 L 298 229 L 298 225 L 297 225 L 297 236 L 295 238 L 293 238 L 293 239 L 290 241 L 289 239 L 291 238 L 292 234 L 290 231 L 290 228 L 285 224 L 286 220 L 279 220 L 277 221 L 274 218 L 269 216 L 267 214 L 265 218 L 263 215 L 261 216 L 258 215 L 257 216 L 253 216 L 251 214 L 252 209 L 251 210 L 249 209 L 243 210 L 240 206 L 236 204 L 233 200 L 230 200 L 229 199 L 229 196 L 231 193 L 229 192 L 225 194 L 223 192 L 225 190 L 227 190 L 226 188 L 221 192 L 219 190 L 223 184 L 217 186 L 211 191 L 210 190 L 211 187 L 210 185 L 213 184 L 215 182 L 216 179 L 215 180 L 213 178 L 214 177 L 213 175 L 210 176 L 211 179 L 210 180 L 206 179 L 202 176 L 205 172 L 208 172 L 208 171 L 203 169 L 202 170 L 203 170 L 204 172 L 200 177 L 195 174 Z M 320 237 L 322 234 L 324 235 L 322 238 Z M 325 232 L 328 234 L 327 239 L 330 242 L 330 244 L 328 246 L 321 240 L 324 237 L 325 235 L 324 233 Z M 306 225 L 307 225 L 309 228 L 309 231 L 308 232 L 306 231 L 306 228 L 305 227 Z M 334 221 L 335 222 L 335 228 L 334 229 L 332 228 L 327 231 L 325 229 L 324 224 L 325 223 L 330 223 L 332 221 Z M 267 220 L 269 217 L 271 218 L 269 221 Z M 333 214 L 334 216 L 333 218 L 331 219 L 330 216 Z M 247 215 L 249 214 L 250 217 L 248 218 Z M 216 194 L 218 193 L 219 196 L 217 197 Z M 211 191 L 213 193 L 213 195 L 207 202 L 203 204 L 202 203 L 203 200 L 208 195 L 208 193 Z M 191 146 L 192 147 L 190 151 L 184 158 L 185 159 L 191 160 L 192 162 L 185 167 L 185 170 L 183 172 L 183 174 L 185 174 L 187 172 L 190 173 L 192 171 L 188 171 L 187 169 L 192 166 L 200 167 L 200 164 L 199 163 L 195 163 L 194 161 L 196 159 L 198 159 L 200 156 L 199 157 L 195 157 L 193 160 L 191 160 L 187 156 L 189 153 L 193 155 L 199 153 L 196 151 L 192 152 L 191 151 L 191 148 L 192 147 Z M 194 165 L 196 163 L 199 165 L 197 167 Z M 209 134 L 209 135 L 212 137 L 211 139 L 217 137 L 222 137 L 217 137 L 215 138 L 211 134 Z M 392 130 L 392 133 L 390 135 L 390 138 L 388 140 L 381 139 L 384 144 L 379 148 L 378 147 L 379 144 L 377 144 L 374 147 L 372 151 L 376 149 L 378 150 L 387 144 L 392 133 Z M 216 107 L 215 109 L 202 121 L 202 122 L 204 123 L 205 122 L 204 121 L 205 119 L 214 111 Z M 217 74 L 212 82 L 213 83 L 212 90 L 214 92 L 213 94 L 214 97 L 221 103 L 218 106 L 221 103 L 219 101 L 219 98 L 217 98 L 213 94 L 214 91 L 212 89 L 215 84 L 215 82 L 214 82 L 213 80 Z" fill="#E8E8E8" fill-rule="evenodd"/><path d="M 288 486 L 288 488 L 292 488 L 294 485 L 296 487 L 293 490 L 293 495 L 294 497 L 292 502 L 293 503 L 293 507 L 294 509 L 298 513 L 300 513 L 304 516 L 309 512 L 311 517 L 315 517 L 318 515 L 319 518 L 319 514 L 316 516 L 314 516 L 311 513 L 313 509 L 311 508 L 307 511 L 306 514 L 304 513 L 305 508 L 302 505 L 304 503 L 307 502 L 306 499 L 304 497 L 304 489 L 307 483 L 303 481 L 297 485 L 294 484 L 291 487 Z M 296 503 L 298 505 L 297 508 L 294 507 L 294 505 Z M 300 491 L 302 493 L 302 500 L 299 502 L 295 496 Z M 304 485 L 305 487 L 301 490 L 300 489 L 301 487 Z M 241 480 L 239 484 L 234 489 L 233 497 L 234 496 L 236 498 L 235 488 L 238 485 L 242 488 Z M 247 453 L 245 456 L 245 458 L 246 459 L 246 463 L 249 465 L 249 457 L 250 454 Z M 322 450 L 319 451 L 319 454 L 320 455 L 323 453 Z M 318 447 L 315 449 L 315 452 L 313 454 L 314 455 L 315 452 L 318 449 Z M 324 415 L 321 416 L 318 420 L 314 422 L 314 424 L 317 420 L 320 419 L 321 416 L 323 418 L 323 420 L 315 427 L 313 426 L 312 429 L 309 428 L 310 431 L 309 432 L 309 435 L 310 436 L 309 439 L 303 436 L 302 437 L 302 441 L 300 443 L 295 442 L 285 450 L 282 456 L 282 460 L 284 464 L 283 467 L 284 468 L 286 466 L 288 468 L 288 479 L 289 480 L 288 484 L 290 482 L 292 482 L 298 475 L 303 474 L 305 476 L 305 478 L 306 479 L 307 478 L 307 474 L 306 473 L 308 471 L 310 471 L 309 469 L 310 470 L 309 471 L 306 471 L 305 472 L 297 471 L 297 475 L 295 477 L 292 474 L 294 470 L 293 465 L 295 463 L 299 465 L 302 470 L 305 467 L 307 468 L 304 466 L 302 467 L 297 462 L 293 462 L 291 460 L 291 455 L 295 452 L 298 454 L 300 458 L 302 458 L 304 456 L 307 456 L 308 453 L 305 454 L 304 453 L 301 453 L 299 451 L 299 449 L 302 446 L 305 448 L 308 446 L 309 441 L 311 439 L 309 433 L 311 431 L 314 431 L 315 430 L 314 428 L 318 424 L 321 423 L 323 421 L 323 419 L 325 417 Z M 291 466 L 294 468 L 294 470 L 292 472 L 289 470 L 289 468 Z M 288 454 L 290 459 L 289 460 L 286 460 L 285 457 Z M 291 448 L 293 450 L 289 454 L 287 452 L 289 451 L 289 449 Z M 302 441 L 304 439 L 307 439 L 309 442 L 305 445 Z M 355 408 L 357 411 L 357 414 L 358 417 L 360 419 L 362 426 L 364 427 L 361 423 L 361 420 L 362 419 L 364 420 L 365 419 L 362 410 L 361 409 L 357 410 L 356 408 Z M 374 408 L 380 408 L 383 406 L 382 407 L 379 407 L 377 404 Z M 312 402 L 311 402 L 312 407 L 304 415 L 306 418 L 306 421 L 308 422 L 308 419 L 310 417 L 310 414 L 314 410 L 312 407 Z M 241 397 L 239 400 L 241 402 L 242 406 L 245 408 L 244 412 L 247 415 L 245 418 L 243 418 L 242 417 L 241 410 L 242 419 L 246 419 L 247 415 L 244 411 L 247 407 L 245 407 L 244 404 L 245 403 L 248 404 L 249 402 L 246 403 L 244 401 L 244 399 Z M 241 399 L 243 398 L 244 401 L 242 402 Z M 336 395 L 336 398 L 339 399 L 340 398 L 339 396 Z M 309 391 L 310 395 L 313 395 L 314 396 L 313 393 Z M 369 387 L 369 389 L 366 393 L 366 395 L 363 398 L 365 401 L 369 401 L 373 397 L 369 401 L 366 400 L 364 398 L 366 396 L 366 393 L 368 391 Z M 325 385 L 323 386 L 323 390 L 321 394 L 322 396 L 321 400 L 322 401 L 324 400 L 326 396 L 326 386 Z M 341 383 L 345 387 L 345 390 L 343 392 L 346 396 L 346 399 L 347 400 L 347 403 L 346 404 L 349 408 L 351 408 L 347 405 L 347 403 L 350 402 L 353 405 L 355 405 L 356 403 L 353 400 L 349 399 L 344 394 L 346 390 L 345 389 L 345 385 L 343 383 L 342 384 Z M 144 381 L 145 384 L 140 388 L 145 394 L 148 396 L 151 396 L 145 386 L 145 383 L 146 382 Z M 144 391 L 147 390 L 148 392 L 145 393 Z M 205 380 L 200 385 L 202 387 L 206 383 Z M 148 381 L 150 381 L 158 390 L 162 390 L 160 377 L 158 381 L 156 380 Z M 266 376 L 266 383 L 268 383 L 270 382 L 272 379 L 271 378 L 268 378 Z M 148 372 L 148 375 L 150 377 L 151 374 Z M 323 368 L 323 370 L 327 375 L 327 379 L 329 380 L 330 379 L 330 374 L 325 368 Z M 173 368 L 172 370 L 175 372 L 177 370 L 175 368 Z M 216 359 L 212 360 L 208 364 L 206 364 L 204 367 L 206 367 L 208 365 L 212 367 Z M 330 357 L 329 358 L 332 361 L 334 367 L 336 369 L 340 369 L 341 368 L 339 366 L 339 363 L 332 357 Z M 155 356 L 153 358 L 152 361 L 155 363 L 156 371 L 160 374 L 156 370 L 156 360 L 158 356 L 157 357 Z M 168 351 L 168 353 L 165 358 L 165 361 L 169 357 L 172 359 L 172 361 L 169 365 L 169 379 L 172 381 L 173 388 L 176 388 L 177 389 L 176 391 L 177 394 L 174 395 L 182 404 L 182 408 L 183 410 L 179 413 L 177 412 L 172 406 L 171 406 L 172 416 L 170 419 L 173 422 L 167 430 L 172 429 L 176 434 L 170 440 L 170 441 L 172 439 L 178 437 L 182 432 L 185 434 L 183 437 L 180 438 L 176 442 L 176 444 L 173 447 L 169 448 L 168 447 L 169 443 L 168 447 L 166 449 L 167 450 L 170 449 L 172 451 L 172 480 L 175 487 L 173 488 L 176 488 L 181 484 L 185 488 L 187 488 L 186 485 L 188 483 L 189 484 L 192 484 L 193 485 L 193 487 L 191 489 L 192 491 L 196 489 L 199 492 L 200 491 L 204 493 L 202 494 L 206 492 L 208 494 L 215 496 L 217 499 L 225 506 L 225 512 L 224 513 L 220 512 L 220 513 L 217 515 L 220 513 L 223 514 L 229 513 L 235 508 L 236 503 L 236 504 L 234 505 L 232 500 L 228 497 L 230 495 L 231 491 L 230 490 L 229 491 L 227 490 L 227 478 L 232 475 L 235 477 L 236 480 L 239 477 L 240 478 L 242 477 L 242 474 L 241 473 L 242 470 L 241 469 L 242 466 L 242 458 L 239 455 L 239 453 L 235 451 L 234 448 L 230 445 L 223 443 L 219 439 L 219 437 L 223 434 L 227 434 L 232 438 L 237 439 L 240 441 L 245 441 L 247 443 L 249 441 L 252 443 L 256 443 L 257 444 L 261 443 L 264 445 L 267 444 L 269 445 L 273 445 L 281 441 L 284 443 L 286 443 L 292 440 L 302 431 L 299 432 L 292 440 L 291 439 L 291 434 L 294 431 L 294 427 L 293 427 L 294 431 L 292 433 L 290 432 L 288 435 L 285 432 L 280 432 L 279 433 L 280 435 L 278 437 L 274 437 L 267 431 L 268 429 L 272 429 L 274 430 L 274 428 L 272 427 L 270 424 L 268 424 L 265 420 L 262 419 L 258 413 L 258 411 L 256 411 L 255 413 L 258 418 L 256 429 L 258 434 L 255 435 L 254 434 L 249 434 L 247 433 L 246 435 L 244 435 L 239 431 L 238 435 L 235 436 L 234 435 L 235 434 L 235 426 L 233 420 L 234 417 L 233 416 L 230 417 L 229 416 L 229 412 L 222 408 L 222 406 L 225 402 L 228 401 L 233 397 L 233 396 L 230 396 L 229 395 L 224 401 L 221 401 L 220 411 L 222 414 L 222 419 L 220 420 L 217 418 L 214 419 L 211 422 L 209 421 L 209 419 L 216 413 L 216 409 L 215 409 L 210 413 L 209 416 L 206 419 L 204 417 L 204 415 L 204 417 L 206 419 L 208 418 L 209 421 L 207 423 L 203 422 L 202 421 L 202 417 L 200 415 L 200 411 L 199 409 L 201 408 L 203 411 L 203 413 L 204 413 L 206 410 L 205 408 L 203 409 L 200 406 L 200 398 L 202 396 L 207 394 L 210 396 L 209 398 L 207 398 L 207 400 L 210 398 L 213 399 L 213 396 L 214 395 L 211 394 L 209 391 L 206 391 L 200 395 L 197 391 L 197 386 L 197 391 L 199 394 L 199 396 L 193 401 L 190 400 L 193 397 L 189 397 L 188 398 L 186 397 L 184 399 L 181 397 L 181 398 L 179 399 L 177 397 L 177 395 L 179 394 L 180 392 L 177 388 L 177 384 L 176 382 L 177 380 L 181 377 L 181 370 L 179 371 L 178 375 L 172 380 L 169 378 L 169 370 L 170 369 L 169 368 L 169 365 L 179 354 L 180 349 L 179 352 L 173 356 L 172 356 L 170 354 L 171 353 Z M 219 482 L 224 481 L 225 482 L 224 486 L 225 485 L 227 486 L 225 489 L 224 488 L 222 489 L 222 492 L 223 493 L 224 492 L 227 493 L 227 497 L 229 501 L 228 503 L 227 503 L 225 500 L 220 496 L 220 493 L 216 489 L 217 488 L 217 484 Z M 187 474 L 188 475 L 186 478 L 187 481 L 183 484 L 181 481 L 184 478 L 184 476 Z M 193 476 L 195 473 L 198 474 L 196 477 Z M 220 475 L 220 474 L 223 472 L 225 472 L 227 474 L 223 477 Z M 230 469 L 232 471 L 231 473 L 229 474 L 228 471 Z M 175 469 L 178 473 L 175 477 L 173 478 L 172 477 L 173 470 Z M 214 469 L 215 468 L 219 468 L 220 469 L 220 473 L 218 474 Z M 188 468 L 189 470 L 186 473 L 185 470 Z M 212 466 L 214 469 L 212 471 L 212 473 L 209 475 L 207 472 Z M 191 466 L 195 470 L 192 474 L 189 472 L 189 468 Z M 200 462 L 201 462 L 207 469 L 207 473 L 212 480 L 211 482 L 207 480 L 208 483 L 206 485 L 203 484 L 203 481 L 205 479 L 205 477 L 203 474 L 201 473 L 203 472 L 198 465 Z M 239 462 L 241 461 L 242 464 L 240 465 Z M 235 460 L 238 462 L 238 464 L 236 466 L 233 463 Z M 221 455 L 223 457 L 222 460 L 220 458 Z M 217 454 L 219 457 L 217 459 L 217 463 L 214 464 L 213 463 L 213 459 L 214 456 Z M 235 453 L 236 454 L 236 457 L 235 458 L 233 456 Z M 229 451 L 233 454 L 234 457 L 231 460 L 229 460 L 227 458 L 228 456 L 227 453 Z M 213 447 L 214 448 L 214 452 L 211 455 L 208 451 Z M 206 446 L 208 448 L 208 452 L 206 455 L 207 458 L 206 461 L 202 458 L 202 449 Z M 198 441 L 199 442 L 198 444 L 198 450 L 199 451 L 192 456 L 192 459 L 188 464 L 185 466 L 183 466 L 182 463 L 184 461 L 184 459 L 181 462 L 179 462 L 177 460 L 178 458 L 175 456 L 175 454 L 177 452 L 185 448 L 188 449 L 185 455 L 190 452 L 192 452 L 193 449 L 192 449 L 191 447 L 192 446 L 195 447 L 195 444 Z M 192 441 L 194 444 L 188 448 L 186 446 L 186 444 Z M 186 442 L 186 443 L 180 447 L 179 449 L 176 449 L 175 450 L 173 448 L 177 444 L 180 444 L 183 441 Z M 267 433 L 270 435 L 270 437 L 268 439 L 267 438 L 266 439 L 264 437 Z M 212 437 L 215 433 L 217 433 L 219 435 L 215 438 Z M 204 430 L 206 431 L 205 434 L 207 436 L 205 438 L 201 438 L 200 436 L 203 435 L 201 435 L 200 433 Z M 207 430 L 208 429 L 210 430 L 213 429 L 215 431 L 215 433 L 211 435 Z M 180 429 L 183 427 L 185 430 L 182 432 Z M 215 427 L 218 426 L 222 429 L 222 431 L 219 432 Z M 201 425 L 203 423 L 206 424 L 205 427 L 203 427 Z M 261 422 L 264 425 L 264 427 L 262 429 L 259 425 Z M 184 423 L 186 421 L 189 422 L 186 425 Z M 192 423 L 195 420 L 197 421 L 195 424 Z M 215 420 L 218 418 L 221 421 L 221 423 L 220 424 L 216 422 Z M 198 416 L 200 418 L 200 421 L 199 422 L 196 419 Z M 187 414 L 189 416 L 187 420 L 185 422 L 183 422 L 181 419 Z M 185 415 L 179 420 L 176 419 L 177 417 L 180 416 L 184 413 Z M 194 410 L 197 412 L 197 414 L 195 416 L 192 414 L 192 412 Z M 185 407 L 188 410 L 188 412 L 186 414 L 185 414 L 183 411 L 183 409 Z M 182 402 L 184 401 L 185 404 L 183 405 Z M 197 400 L 200 402 L 200 405 L 199 406 L 196 404 L 196 401 Z M 201 346 L 200 346 L 196 351 L 194 358 L 197 354 L 202 350 Z M 127 346 L 129 349 L 126 352 L 125 355 L 126 356 L 127 355 L 129 357 L 127 363 L 127 368 L 128 369 L 127 372 L 128 373 L 128 377 L 130 380 L 130 382 L 133 388 L 135 389 L 135 388 L 133 387 L 133 383 L 137 380 L 138 377 L 140 378 L 142 377 L 142 375 L 140 373 L 142 369 L 136 373 L 135 380 L 134 382 L 132 383 L 129 379 L 128 375 L 132 371 L 134 371 L 137 369 L 138 366 L 137 365 L 134 365 L 133 368 L 131 370 L 129 370 L 127 367 L 130 363 L 129 359 L 131 357 L 132 357 L 135 361 L 138 360 L 140 357 L 139 356 L 137 358 L 135 358 L 133 356 L 130 356 L 127 353 L 132 347 L 128 347 Z M 208 344 L 205 345 L 206 348 L 204 350 L 202 356 L 202 359 L 203 360 L 207 359 L 204 355 L 204 353 L 205 352 L 205 349 L 207 347 Z M 178 343 L 178 345 L 180 345 L 182 347 L 186 347 L 186 346 L 184 345 L 186 343 L 184 344 L 181 343 L 182 344 L 181 345 L 179 345 Z M 327 340 L 329 343 L 329 345 L 328 342 L 329 341 L 332 342 L 335 345 L 335 347 L 338 349 L 338 352 L 340 352 L 342 355 L 341 354 L 341 351 L 340 352 L 339 349 L 330 340 Z M 349 339 L 349 342 L 351 341 L 353 342 L 354 341 L 353 339 L 351 340 Z M 218 338 L 217 337 L 211 341 L 217 341 Z M 132 336 L 132 339 L 129 341 L 129 344 L 132 342 L 134 339 Z M 161 331 L 158 334 L 160 337 L 157 340 L 158 342 L 158 351 L 159 353 L 159 350 L 158 349 L 158 344 L 159 343 L 158 341 L 161 339 L 160 337 L 161 336 Z M 184 328 L 182 328 L 180 326 L 179 327 L 179 333 L 177 335 L 175 334 L 175 332 L 174 333 L 174 335 L 172 337 L 171 340 L 167 344 L 167 345 L 168 344 L 170 345 L 169 349 L 172 348 L 171 347 L 175 342 L 175 341 L 173 343 L 171 343 L 170 341 L 173 339 L 175 336 L 178 337 L 182 334 L 182 331 Z M 206 317 L 204 317 L 201 321 L 201 327 L 199 329 L 199 332 L 204 327 L 203 322 Z M 204 303 L 203 303 L 204 304 L 202 306 L 200 305 L 201 303 L 200 303 L 197 307 L 198 308 L 201 307 Z M 333 289 L 331 291 L 331 294 L 329 297 L 330 298 L 330 301 L 331 302 L 333 301 L 333 296 L 335 294 L 337 297 L 337 302 L 339 303 L 340 306 L 338 307 L 337 305 L 338 307 L 337 308 L 334 308 L 331 312 L 329 312 L 329 313 L 331 314 L 335 319 L 333 317 L 333 315 L 331 312 L 335 308 L 337 308 L 340 311 L 342 317 L 345 319 L 345 323 L 346 324 L 345 321 L 347 318 L 345 317 L 344 315 L 347 309 L 346 309 L 343 313 L 341 312 L 342 311 L 340 308 L 341 298 L 339 298 L 335 293 L 335 289 Z M 251 284 L 247 284 L 238 294 L 235 294 L 231 292 L 230 294 L 233 294 L 237 300 L 239 296 L 245 290 L 245 289 L 249 285 L 251 285 Z M 236 277 L 225 286 L 223 290 L 225 291 L 230 284 L 237 278 Z M 212 275 L 210 275 L 205 280 L 202 281 L 200 283 L 199 286 L 201 287 L 202 285 L 205 283 L 208 279 L 209 279 L 208 277 L 209 276 L 212 277 Z M 188 267 L 184 269 L 184 272 L 180 280 L 180 283 L 177 285 L 177 288 L 176 290 L 174 291 L 173 294 L 178 286 L 182 282 L 184 282 L 182 281 L 182 280 L 185 278 L 182 277 L 184 270 L 186 268 L 187 269 L 186 272 L 189 275 L 188 276 L 192 274 L 192 273 L 189 274 L 187 273 L 187 271 L 189 269 Z M 210 260 L 208 259 L 202 264 L 198 264 L 197 265 L 197 268 L 202 269 L 203 266 L 208 262 L 207 261 L 209 259 Z M 230 258 L 225 262 L 222 268 L 221 276 L 224 279 L 227 276 L 225 275 L 227 273 L 229 273 L 230 274 L 229 275 L 234 271 L 232 270 L 228 273 L 225 271 L 225 265 L 228 262 Z M 222 272 L 224 273 L 225 276 L 223 278 L 221 276 L 221 273 Z M 325 233 L 326 235 L 322 240 L 328 245 L 329 242 L 326 239 L 327 234 Z M 353 213 L 350 219 L 344 225 L 341 224 L 338 228 L 337 227 L 335 230 L 332 230 L 331 235 L 329 237 L 330 236 L 334 237 L 337 234 L 339 234 L 341 236 L 339 238 L 339 243 L 337 245 L 334 245 L 333 243 L 334 245 L 338 245 L 341 242 L 345 241 L 347 239 L 348 239 L 350 242 L 353 243 L 351 241 L 352 238 L 351 235 L 347 235 L 344 238 L 342 236 L 344 232 L 352 223 L 353 224 L 356 223 L 353 221 L 353 216 L 354 215 Z M 344 229 L 345 231 L 341 234 L 340 232 Z M 177 245 L 180 247 L 178 249 L 181 247 L 186 247 L 188 246 L 190 248 L 190 251 L 189 252 L 191 254 L 193 254 L 195 252 L 195 250 L 193 248 L 194 243 L 192 246 L 189 246 L 188 244 L 193 240 L 195 240 L 195 239 L 202 233 L 205 236 L 203 239 L 205 241 L 207 240 L 210 240 L 211 241 L 217 240 L 218 241 L 214 244 L 214 245 L 218 245 L 223 239 L 227 239 L 228 242 L 222 249 L 223 250 L 227 246 L 230 248 L 231 246 L 233 245 L 234 248 L 232 254 L 235 257 L 238 258 L 237 260 L 240 262 L 241 259 L 243 257 L 244 258 L 244 261 L 248 265 L 253 264 L 258 258 L 261 259 L 260 261 L 261 262 L 263 260 L 266 260 L 270 256 L 270 253 L 272 251 L 274 252 L 274 256 L 276 255 L 280 255 L 284 251 L 289 250 L 297 246 L 301 243 L 303 240 L 309 239 L 312 241 L 311 236 L 315 233 L 317 235 L 316 237 L 319 236 L 321 233 L 317 230 L 320 225 L 317 225 L 315 229 L 312 232 L 309 232 L 308 234 L 306 234 L 305 231 L 304 231 L 303 236 L 300 237 L 300 241 L 298 243 L 295 242 L 296 239 L 290 243 L 287 241 L 287 239 L 286 240 L 286 243 L 283 245 L 282 244 L 283 240 L 282 240 L 280 243 L 277 243 L 276 242 L 276 240 L 282 234 L 282 232 L 280 229 L 280 225 L 276 225 L 275 227 L 278 230 L 278 235 L 276 238 L 274 236 L 273 233 L 272 233 L 272 240 L 270 241 L 269 240 L 268 232 L 271 229 L 271 227 L 268 225 L 267 222 L 263 219 L 261 220 L 260 223 L 264 225 L 268 229 L 266 231 L 263 231 L 261 227 L 258 227 L 257 226 L 253 226 L 251 227 L 250 225 L 258 218 L 257 217 L 256 218 L 253 218 L 249 221 L 246 218 L 246 215 L 247 214 L 246 211 L 242 211 L 240 213 L 237 214 L 235 212 L 237 209 L 237 207 L 235 205 L 232 207 L 230 204 L 232 201 L 229 201 L 227 203 L 225 201 L 226 199 L 224 198 L 223 199 L 220 199 L 219 202 L 223 206 L 221 208 L 217 208 L 216 207 L 216 203 L 212 205 L 208 204 L 206 206 L 207 207 L 211 206 L 213 208 L 213 210 L 207 218 L 205 216 L 206 213 L 204 214 L 202 212 L 202 209 L 201 208 L 198 209 L 197 208 L 198 205 L 196 204 L 199 213 L 201 216 L 201 218 L 197 223 L 197 226 L 192 231 L 190 231 L 191 234 L 187 239 L 181 241 L 177 244 Z M 254 255 L 255 256 L 251 260 L 250 258 Z M 264 251 L 266 254 L 263 258 L 261 256 L 262 253 Z M 257 249 L 260 247 L 263 251 L 262 252 L 259 252 Z M 249 245 L 251 248 L 250 250 L 246 253 L 245 252 L 246 247 Z M 293 242 L 294 243 L 293 246 L 292 245 L 289 248 L 286 246 L 289 243 Z M 220 240 L 221 242 L 218 245 L 216 243 Z M 232 235 L 234 240 L 234 242 L 232 244 L 230 242 L 230 238 Z M 220 237 L 221 234 L 224 236 L 222 238 Z M 260 238 L 260 235 L 262 233 L 264 233 L 266 235 L 265 237 L 263 237 L 261 239 Z M 239 236 L 242 233 L 244 234 L 244 235 L 241 237 Z M 258 230 L 260 233 L 258 235 L 257 238 L 255 236 L 255 232 Z M 253 230 L 254 231 L 252 235 L 254 237 L 253 242 L 254 244 L 257 246 L 257 251 L 254 254 L 251 253 L 252 251 L 252 247 L 251 246 L 251 243 L 248 241 L 245 244 L 242 250 L 243 254 L 242 257 L 240 259 L 236 254 L 236 250 L 235 248 L 237 245 L 240 246 L 243 242 L 240 244 L 237 240 L 246 233 L 248 233 L 249 235 L 250 235 L 248 233 L 251 230 Z M 205 227 L 203 229 L 201 228 L 197 231 L 195 235 L 192 234 L 192 232 L 194 231 L 195 228 L 199 225 L 202 224 Z M 250 226 L 237 237 L 234 235 L 235 234 L 235 229 L 234 229 L 229 236 L 226 234 L 226 230 L 223 229 L 227 226 L 228 223 L 230 225 L 232 224 L 236 224 L 239 220 L 242 221 L 241 223 L 242 226 L 244 226 L 246 224 L 248 224 Z M 201 218 L 202 217 L 204 219 L 204 221 L 208 218 L 210 221 L 210 226 L 209 227 L 208 224 L 206 225 L 203 224 L 201 222 Z M 232 210 L 233 211 L 232 214 L 233 213 L 236 214 L 230 218 L 229 217 L 230 215 L 229 212 Z M 229 207 L 231 209 L 229 212 L 228 211 L 226 212 L 226 213 L 221 217 L 216 217 L 215 218 L 215 224 L 214 225 L 215 226 L 224 218 L 227 220 L 219 226 L 221 230 L 216 234 L 214 234 L 212 231 L 208 233 L 206 231 L 210 228 L 210 226 L 212 224 L 210 219 L 211 216 L 216 211 L 217 212 L 223 212 Z M 211 192 L 209 193 L 209 195 L 204 200 L 203 203 L 207 201 L 212 195 Z M 187 173 L 188 174 L 187 179 L 189 176 L 194 180 L 194 181 L 189 185 L 190 184 L 192 185 L 194 183 L 197 183 L 198 184 L 200 183 L 201 184 L 199 187 L 195 187 L 193 189 L 192 189 L 191 187 L 191 195 L 191 193 L 194 190 L 197 190 L 198 192 L 201 191 L 202 192 L 202 195 L 204 197 L 205 196 L 206 190 L 208 187 L 207 185 L 209 183 L 212 183 L 212 182 L 207 182 L 201 178 L 198 180 L 196 180 L 193 177 L 193 175 L 195 173 L 200 176 L 202 174 L 203 171 L 201 171 L 198 173 L 195 171 L 193 171 L 190 174 Z M 205 183 L 207 185 L 203 190 L 201 187 Z M 311 172 L 312 179 L 322 186 L 327 187 L 329 189 L 335 189 L 336 187 L 340 189 L 343 186 L 343 181 L 341 177 L 334 171 L 325 168 L 316 168 Z M 267 139 L 267 140 L 269 141 L 272 141 L 287 147 L 283 143 L 278 140 Z M 205 145 L 206 150 L 209 152 L 211 155 L 214 154 L 216 156 L 219 156 L 220 157 L 223 155 L 226 156 L 228 154 L 232 153 L 235 150 L 235 145 L 234 143 L 230 140 L 225 138 L 217 138 L 216 139 L 210 140 Z M 364 120 L 362 122 L 359 123 L 358 125 L 361 128 L 361 130 L 366 137 L 368 143 L 371 144 L 374 142 L 379 136 L 379 127 L 375 122 L 371 120 Z M 370 133 L 372 134 L 371 136 L 372 138 L 374 136 L 376 138 L 376 140 L 371 144 L 370 144 L 366 139 Z M 377 128 L 378 131 L 375 133 L 374 130 Z M 376 124 L 376 126 L 372 131 L 369 129 L 366 129 L 365 130 L 362 129 L 363 127 L 366 127 L 372 121 L 374 122 L 372 125 L 374 125 L 375 123 Z M 359 126 L 359 124 L 364 120 L 369 120 L 370 121 L 367 125 L 363 125 L 362 127 Z M 234 78 L 227 79 L 222 83 L 224 82 L 226 85 L 227 85 L 231 79 L 235 82 L 236 81 L 237 82 L 236 85 L 234 84 L 233 86 L 228 90 L 229 91 L 227 94 L 228 95 L 227 97 L 229 94 L 232 93 L 234 91 L 235 92 L 241 87 L 241 85 Z M 240 85 L 241 87 L 235 92 L 233 90 L 234 88 L 238 85 Z" fill="#D8D8D8" fill-rule="evenodd"/><path d="M 305 517 L 309 517 L 313 519 L 315 518 L 318 519 L 328 519 L 319 519 L 318 516 L 315 518 L 311 518 L 309 516 L 309 513 Z M 212 467 L 208 472 L 209 474 L 211 473 L 211 471 L 213 469 Z M 293 474 L 295 476 L 297 470 L 300 470 L 301 471 L 309 470 L 305 468 L 302 471 L 299 466 L 295 464 L 294 465 L 295 470 Z M 229 452 L 228 453 L 229 455 L 228 458 L 231 459 L 233 457 L 232 454 Z M 235 448 L 236 451 L 238 451 L 240 453 L 240 455 L 243 458 L 243 466 L 242 467 L 243 470 L 242 471 L 243 477 L 241 479 L 242 479 L 243 477 L 243 465 L 245 463 L 249 466 L 245 463 L 245 459 L 244 458 L 244 456 L 246 453 L 248 452 L 239 450 L 237 448 Z M 213 448 L 209 451 L 211 454 L 213 452 Z M 241 442 L 245 442 L 247 444 L 250 443 L 253 445 L 257 445 L 258 446 L 261 445 L 264 446 L 271 446 L 268 445 L 264 446 L 261 444 L 257 445 L 256 444 L 252 444 L 249 442 L 247 444 L 245 442 Z M 193 443 L 191 442 L 187 444 L 187 446 L 189 447 L 193 444 Z M 269 435 L 267 434 L 265 437 L 268 438 Z M 308 430 L 307 431 L 303 431 L 292 441 L 285 444 L 287 447 L 284 450 L 280 452 L 280 457 L 282 462 L 281 460 L 281 456 L 284 450 L 293 442 L 295 441 L 300 442 L 301 441 L 301 437 L 303 435 L 309 438 L 308 435 L 308 432 L 309 431 Z M 208 430 L 211 434 L 213 433 L 215 434 L 213 437 L 215 437 L 218 435 L 215 434 L 213 430 L 211 431 Z M 172 430 L 171 430 L 173 432 L 172 433 L 172 436 L 170 439 L 175 434 Z M 321 417 L 321 419 L 315 423 L 314 425 L 315 426 L 322 420 Z M 187 415 L 182 419 L 183 421 L 186 420 L 188 416 Z M 200 409 L 201 411 L 201 415 L 203 417 L 203 421 L 207 422 L 210 416 L 209 418 L 206 420 L 203 417 L 202 411 L 201 409 Z M 242 407 L 243 417 L 245 417 L 246 415 L 243 412 L 244 408 Z M 348 403 L 348 405 L 352 408 L 356 407 L 357 409 L 361 408 L 363 410 L 364 415 L 363 410 L 360 408 L 357 404 L 355 406 L 353 406 L 350 403 Z M 346 391 L 345 394 L 349 398 L 353 399 L 356 402 L 347 393 L 347 391 Z M 198 382 L 197 382 L 194 386 L 194 389 L 195 390 L 194 392 L 194 397 L 191 400 L 193 400 L 198 396 L 198 394 L 196 391 L 196 386 Z M 168 366 L 168 379 L 171 382 L 171 387 L 173 393 L 176 389 L 173 389 L 172 388 L 171 381 L 168 379 Z M 165 357 L 164 358 L 164 363 L 168 360 L 170 362 L 169 364 L 171 361 L 171 359 L 169 358 L 165 362 L 164 361 L 164 358 Z M 329 342 L 330 343 L 330 346 L 334 350 L 335 353 L 337 353 L 337 349 L 334 347 L 334 345 L 332 343 Z M 186 269 L 183 275 L 183 277 L 186 277 L 188 275 L 185 272 Z M 293 243 L 289 244 L 287 246 L 289 247 L 292 244 L 293 245 Z M 339 235 L 337 235 L 334 238 L 331 237 L 329 238 L 333 241 L 334 244 L 337 244 L 338 243 L 338 238 L 340 236 Z M 350 227 L 345 232 L 343 236 L 344 237 L 347 234 L 350 234 L 348 232 L 348 229 Z M 202 218 L 202 222 L 205 224 L 208 223 L 209 226 L 209 221 L 208 219 L 204 222 Z M 197 209 L 198 214 L 200 216 L 196 219 L 197 221 L 195 224 L 196 225 L 191 230 L 196 226 L 196 223 L 200 218 Z M 362 208 L 360 211 L 360 213 L 363 212 L 366 215 L 367 214 L 362 210 Z M 370 134 L 367 139 L 369 142 L 371 143 L 375 140 L 375 138 L 374 137 L 372 139 L 370 137 L 371 134 Z M 375 124 L 374 126 L 372 126 L 371 125 L 373 123 L 373 122 L 372 122 L 366 128 L 363 128 L 363 129 L 369 128 L 372 130 L 375 126 Z M 369 121 L 364 121 L 360 124 L 360 126 L 362 126 L 363 124 L 367 124 Z M 240 86 L 238 86 L 235 88 L 234 90 L 235 91 L 240 87 Z M 236 82 L 235 83 L 231 80 L 227 86 L 226 86 L 224 83 L 222 84 L 225 87 L 225 89 L 223 90 L 222 88 L 221 88 L 221 91 L 222 94 L 225 97 L 227 96 L 226 94 L 228 91 L 227 90 L 230 88 L 234 83 L 236 84 Z" fill="#B1B1B1" fill-rule="evenodd"/><path d="M 237 171 L 240 178 L 247 185 L 257 190 L 266 191 L 267 192 L 274 192 L 275 191 L 279 191 L 287 187 L 289 183 L 287 182 L 282 187 L 277 189 L 264 189 L 263 188 L 257 187 L 249 183 L 242 176 L 240 170 L 239 169 Z M 247 151 L 247 157 L 250 163 L 253 166 L 260 170 L 271 170 L 274 168 L 278 167 L 282 163 L 282 157 L 275 151 L 271 150 L 268 148 L 265 148 L 264 147 L 252 147 Z M 309 143 L 304 147 L 302 152 L 302 157 L 305 162 L 307 163 L 312 163 L 317 157 L 317 148 L 314 144 Z M 250 125 L 245 125 L 240 130 L 239 133 L 239 139 L 243 143 L 247 143 L 250 141 L 253 137 L 253 129 Z M 318 115 L 316 118 L 318 120 L 321 121 L 328 128 L 330 127 L 329 122 L 321 115 Z M 262 101 L 261 100 L 258 100 L 257 101 L 250 102 L 247 104 L 247 107 L 249 108 L 252 106 L 261 105 L 262 104 Z M 229 59 L 220 62 L 215 65 L 207 74 L 204 81 L 203 91 L 204 92 L 204 96 L 208 103 L 208 105 L 199 114 L 196 120 L 187 127 L 186 129 L 187 133 L 180 139 L 177 144 L 177 147 L 180 151 L 177 154 L 177 156 L 175 159 L 175 163 L 178 167 L 176 170 L 176 179 L 179 183 L 179 189 L 180 192 L 185 198 L 185 203 L 190 211 L 190 213 L 188 216 L 188 221 L 184 224 L 184 226 L 180 231 L 180 233 L 172 240 L 169 241 L 167 243 L 167 247 L 161 254 L 161 256 L 153 264 L 154 268 L 145 277 L 144 282 L 139 286 L 140 293 L 138 295 L 137 298 L 130 306 L 129 309 L 129 316 L 127 319 L 126 323 L 123 327 L 121 333 L 121 341 L 119 344 L 119 349 L 118 350 L 118 365 L 119 366 L 120 380 L 123 385 L 124 389 L 126 392 L 136 401 L 139 401 L 145 404 L 150 404 L 151 405 L 159 404 L 160 403 L 162 405 L 162 409 L 163 410 L 162 427 L 160 429 L 160 434 L 163 438 L 163 441 L 160 445 L 159 452 L 164 458 L 164 482 L 161 485 L 159 485 L 151 490 L 146 499 L 146 509 L 148 514 L 154 519 L 160 521 L 163 521 L 164 522 L 170 522 L 171 523 L 203 524 L 204 523 L 220 522 L 221 521 L 225 521 L 226 520 L 229 520 L 235 518 L 241 513 L 244 506 L 244 498 L 247 495 L 247 493 L 249 490 L 249 476 L 255 470 L 256 464 L 259 456 L 261 454 L 269 454 L 270 453 L 273 456 L 277 475 L 280 478 L 280 491 L 281 492 L 281 495 L 284 498 L 285 509 L 290 517 L 297 521 L 303 522 L 304 523 L 314 524 L 315 525 L 329 525 L 330 526 L 357 525 L 358 524 L 365 524 L 366 523 L 373 522 L 381 517 L 383 513 L 384 504 L 383 503 L 383 499 L 380 493 L 368 484 L 368 472 L 369 471 L 368 468 L 368 460 L 372 456 L 372 449 L 368 439 L 371 436 L 371 433 L 372 432 L 372 418 L 374 416 L 382 417 L 383 416 L 392 415 L 401 410 L 405 406 L 410 398 L 412 392 L 412 388 L 414 386 L 414 381 L 417 377 L 417 360 L 415 356 L 414 350 L 412 347 L 413 345 L 413 339 L 407 326 L 407 322 L 401 310 L 398 306 L 399 299 L 393 293 L 394 291 L 393 288 L 389 284 L 379 269 L 381 266 L 380 262 L 371 255 L 369 250 L 364 244 L 363 239 L 358 232 L 361 229 L 364 223 L 366 221 L 369 221 L 373 217 L 375 212 L 375 208 L 380 202 L 380 192 L 379 190 L 384 185 L 384 182 L 381 176 L 381 166 L 380 165 L 380 162 L 378 159 L 381 156 L 388 153 L 395 146 L 399 135 L 399 127 L 398 126 L 398 123 L 393 112 L 386 105 L 379 101 L 373 100 L 372 99 L 361 99 L 353 103 L 350 103 L 336 92 L 327 89 L 323 83 L 315 77 L 311 77 L 308 79 L 302 73 L 297 70 L 291 70 L 289 72 L 288 75 L 286 75 L 284 73 L 281 72 L 275 72 L 271 77 L 262 77 L 259 74 L 257 70 L 249 63 L 239 59 Z M 228 65 L 236 64 L 240 66 L 243 66 L 246 68 L 253 75 L 255 79 L 252 82 L 253 84 L 259 83 L 262 81 L 264 82 L 269 81 L 271 83 L 280 84 L 276 79 L 278 77 L 283 78 L 291 83 L 294 83 L 293 77 L 296 75 L 311 89 L 312 88 L 312 83 L 314 82 L 325 95 L 328 95 L 334 97 L 338 102 L 340 102 L 350 111 L 352 111 L 358 106 L 361 106 L 366 104 L 373 105 L 378 108 L 381 108 L 389 117 L 392 122 L 392 128 L 394 133 L 393 136 L 391 138 L 391 141 L 389 144 L 382 150 L 376 151 L 375 152 L 371 152 L 370 153 L 372 156 L 372 161 L 374 163 L 376 168 L 376 172 L 374 174 L 379 182 L 378 184 L 374 184 L 372 182 L 371 183 L 373 186 L 373 189 L 375 193 L 375 199 L 373 200 L 371 198 L 371 205 L 368 214 L 366 216 L 362 213 L 361 214 L 361 217 L 359 219 L 359 222 L 355 226 L 352 225 L 349 229 L 349 232 L 353 236 L 353 240 L 361 247 L 360 250 L 363 254 L 373 263 L 372 265 L 370 264 L 369 266 L 377 274 L 376 277 L 383 284 L 388 293 L 393 298 L 392 299 L 388 299 L 386 298 L 386 299 L 391 304 L 396 314 L 400 318 L 398 321 L 404 330 L 403 334 L 409 341 L 405 344 L 408 350 L 408 353 L 410 356 L 410 360 L 411 361 L 410 366 L 412 370 L 412 373 L 410 374 L 407 370 L 406 371 L 407 373 L 407 386 L 406 387 L 406 392 L 402 400 L 400 402 L 398 401 L 392 408 L 390 409 L 388 407 L 390 405 L 391 401 L 389 400 L 380 410 L 374 410 L 372 407 L 375 405 L 378 401 L 379 396 L 376 395 L 370 402 L 366 403 L 362 400 L 362 397 L 365 394 L 365 392 L 367 390 L 368 386 L 365 385 L 359 392 L 356 392 L 353 388 L 353 385 L 352 384 L 352 366 L 353 365 L 353 359 L 354 357 L 353 356 L 350 357 L 348 355 L 349 353 L 348 351 L 348 334 L 345 331 L 345 327 L 342 321 L 342 319 L 338 311 L 336 309 L 333 311 L 334 316 L 337 321 L 339 332 L 343 337 L 343 341 L 342 342 L 343 355 L 347 364 L 346 367 L 346 374 L 345 375 L 346 377 L 345 381 L 346 382 L 348 393 L 357 402 L 358 405 L 364 410 L 365 417 L 366 418 L 366 420 L 363 421 L 362 423 L 366 428 L 367 432 L 365 434 L 361 433 L 361 437 L 365 443 L 368 453 L 366 455 L 362 453 L 361 454 L 363 457 L 363 460 L 362 461 L 363 471 L 361 474 L 362 475 L 362 478 L 361 479 L 362 482 L 360 484 L 359 487 L 369 492 L 374 496 L 377 500 L 377 502 L 375 503 L 375 505 L 377 507 L 377 511 L 373 514 L 372 513 L 371 507 L 368 504 L 365 504 L 363 506 L 366 511 L 366 516 L 364 518 L 354 519 L 352 515 L 351 509 L 348 506 L 345 506 L 344 507 L 347 516 L 347 518 L 344 520 L 338 520 L 337 519 L 335 520 L 318 520 L 317 519 L 313 520 L 309 518 L 301 517 L 299 515 L 296 514 L 292 509 L 291 506 L 291 491 L 290 490 L 288 491 L 286 487 L 286 484 L 287 483 L 286 469 L 284 470 L 282 469 L 282 463 L 279 457 L 279 452 L 281 450 L 284 449 L 286 446 L 284 444 L 281 444 L 280 445 L 276 445 L 271 447 L 264 447 L 263 446 L 258 447 L 257 446 L 253 446 L 250 444 L 247 445 L 245 443 L 241 443 L 238 441 L 235 441 L 233 439 L 231 439 L 225 435 L 223 435 L 221 437 L 221 439 L 223 441 L 230 444 L 233 447 L 237 447 L 239 449 L 248 451 L 252 454 L 250 466 L 248 467 L 245 464 L 244 465 L 244 477 L 242 480 L 244 486 L 242 490 L 238 487 L 237 488 L 237 493 L 238 494 L 237 498 L 238 499 L 238 503 L 236 509 L 232 513 L 230 513 L 224 516 L 208 517 L 207 518 L 203 518 L 202 517 L 200 517 L 197 519 L 195 518 L 185 518 L 183 516 L 183 512 L 185 506 L 184 505 L 181 505 L 177 511 L 177 516 L 176 517 L 170 517 L 168 515 L 168 510 L 171 505 L 169 503 L 167 503 L 162 509 L 162 513 L 160 514 L 158 512 L 157 509 L 159 502 L 158 501 L 156 501 L 154 503 L 152 502 L 153 499 L 158 493 L 163 490 L 172 487 L 171 478 L 170 477 L 171 475 L 170 473 L 170 453 L 171 451 L 167 451 L 166 452 L 164 450 L 168 443 L 169 438 L 171 436 L 171 433 L 172 432 L 171 431 L 166 432 L 165 430 L 170 424 L 170 422 L 168 420 L 171 416 L 171 414 L 169 411 L 169 404 L 171 403 L 179 411 L 181 410 L 181 407 L 179 403 L 174 397 L 171 391 L 170 382 L 167 379 L 167 366 L 169 362 L 167 361 L 164 364 L 163 363 L 163 358 L 167 352 L 167 348 L 164 346 L 174 332 L 173 330 L 169 331 L 167 328 L 178 314 L 178 312 L 175 311 L 173 309 L 175 307 L 176 304 L 178 302 L 181 301 L 179 298 L 182 292 L 185 289 L 186 285 L 184 283 L 181 284 L 180 287 L 176 291 L 176 293 L 173 297 L 174 300 L 168 309 L 168 311 L 170 314 L 164 323 L 162 328 L 162 333 L 164 335 L 164 337 L 160 342 L 159 345 L 160 354 L 157 361 L 157 366 L 158 367 L 158 370 L 162 373 L 162 384 L 164 390 L 162 392 L 159 392 L 157 391 L 149 382 L 147 383 L 147 387 L 149 391 L 154 396 L 153 398 L 149 398 L 147 396 L 145 396 L 139 389 L 138 386 L 136 387 L 136 390 L 137 391 L 136 393 L 132 389 L 128 382 L 128 379 L 126 374 L 126 367 L 125 366 L 125 363 L 127 361 L 127 358 L 126 357 L 125 358 L 123 356 L 124 355 L 124 351 L 126 349 L 125 346 L 127 344 L 127 342 L 130 339 L 130 336 L 131 335 L 131 333 L 130 334 L 128 333 L 128 330 L 131 327 L 131 325 L 135 319 L 134 314 L 138 311 L 138 310 L 135 308 L 148 293 L 147 291 L 145 292 L 143 290 L 153 282 L 152 280 L 153 276 L 164 268 L 164 267 L 161 266 L 161 264 L 167 260 L 166 257 L 172 251 L 178 248 L 178 247 L 175 247 L 174 245 L 180 240 L 184 239 L 189 234 L 188 231 L 195 225 L 194 224 L 196 221 L 195 219 L 199 216 L 197 214 L 197 211 L 195 207 L 194 201 L 191 201 L 190 200 L 190 187 L 189 186 L 186 189 L 184 188 L 185 185 L 185 179 L 187 175 L 185 175 L 183 177 L 181 175 L 181 173 L 183 170 L 183 167 L 187 162 L 186 161 L 183 162 L 181 159 L 183 157 L 184 154 L 189 149 L 189 147 L 184 147 L 183 145 L 185 144 L 185 142 L 189 139 L 192 135 L 194 135 L 196 133 L 196 132 L 194 132 L 192 130 L 194 128 L 200 125 L 200 122 L 205 117 L 206 114 L 208 112 L 210 112 L 210 111 L 218 104 L 218 103 L 211 96 L 211 93 L 209 90 L 210 82 L 212 77 L 221 68 Z" fill="#010101" fill-rule="evenodd"/></g></svg>