<svg xmlns="http://www.w3.org/2000/svg" viewBox="0 0 570 592" shape-rendering="geometricPrecision"><title>idle-closed transparent</title><defs><clipPath id="clip-card"><rect x="0" y="0" width="570" height="592" rx="32" ry="32"/></clipPath><clipPath id="clip-transparent"><rect x="12" y="12" width="558" height="580"/></clipPath></defs><g clip-path="url(#clip-transparent)"><path d="M 208 511 L 205 514 L 206 516 L 209 514 Z M 159 495 L 159 498 L 161 500 L 162 503 L 165 501 L 170 501 L 173 503 L 172 511 L 174 511 L 180 504 L 185 503 L 189 507 L 187 509 L 187 513 L 189 515 L 194 515 L 197 513 L 201 513 L 205 508 L 210 508 L 214 514 L 217 514 L 220 510 L 223 510 L 223 507 L 219 503 L 217 503 L 216 500 L 214 498 L 207 497 L 206 494 L 202 497 L 198 494 L 196 491 L 193 493 L 191 493 L 188 490 L 185 491 L 182 489 L 181 490 L 173 490 L 171 492 L 162 493 Z M 300 477 L 299 478 L 300 480 L 302 481 L 303 480 L 303 477 Z M 294 454 L 293 455 L 293 459 L 294 460 L 297 460 L 297 458 Z M 184 451 L 178 453 L 177 455 L 178 456 L 182 454 Z M 255 426 L 251 428 L 250 432 L 255 432 Z M 247 424 L 246 424 L 244 427 L 245 432 L 248 431 L 247 429 Z M 249 406 L 248 408 L 248 414 L 250 418 L 254 422 L 256 420 L 256 418 L 254 415 L 254 413 L 250 408 L 250 406 Z M 203 398 L 202 399 L 202 407 L 205 405 L 204 399 Z M 201 354 L 198 355 L 197 358 L 198 359 L 200 358 Z M 191 356 L 189 354 L 187 354 L 185 356 L 179 356 L 179 357 L 174 361 L 173 364 L 175 365 L 184 356 L 186 356 L 188 358 L 190 358 Z M 179 323 L 178 322 L 175 322 L 171 326 L 171 329 L 176 328 Z M 164 310 L 162 311 L 162 315 L 161 316 L 158 314 L 157 315 L 159 316 L 161 319 L 159 322 L 157 321 L 153 321 L 151 322 L 150 320 L 153 316 L 149 312 L 148 312 L 146 315 L 145 315 L 143 312 L 140 313 L 138 315 L 138 317 L 139 318 L 143 318 L 145 321 L 144 322 L 136 323 L 133 327 L 133 328 L 138 328 L 139 330 L 135 333 L 135 336 L 137 336 L 140 334 L 145 334 L 147 332 L 150 334 L 147 337 L 144 337 L 143 336 L 139 338 L 141 339 L 142 341 L 141 342 L 136 342 L 132 344 L 132 345 L 136 344 L 137 345 L 137 348 L 139 350 L 142 351 L 141 359 L 138 361 L 139 366 L 140 367 L 142 365 L 144 365 L 146 367 L 144 369 L 143 372 L 149 369 L 152 372 L 152 375 L 155 374 L 153 367 L 152 366 L 148 368 L 146 366 L 150 361 L 150 359 L 148 359 L 144 363 L 142 363 L 141 360 L 147 356 L 147 354 L 145 352 L 147 350 L 149 350 L 152 354 L 155 353 L 152 349 L 155 346 L 155 340 L 154 339 L 151 343 L 147 340 L 147 338 L 156 332 L 155 330 L 156 328 L 159 328 L 160 327 L 160 324 L 163 321 L 165 315 L 165 311 Z M 139 344 L 140 343 L 143 343 L 144 345 L 143 346 L 140 346 Z M 142 304 L 146 304 L 148 307 L 151 309 L 153 308 L 153 305 L 147 300 Z M 200 255 L 195 254 L 193 256 L 190 256 L 188 254 L 187 251 L 188 249 L 187 249 L 186 251 L 183 250 L 176 251 L 173 254 L 173 255 L 175 256 L 174 260 L 177 262 L 175 264 L 171 262 L 170 264 L 168 265 L 169 268 L 161 273 L 160 275 L 161 278 L 160 279 L 158 278 L 155 279 L 157 282 L 157 285 L 158 286 L 156 288 L 154 287 L 155 289 L 155 293 L 153 295 L 151 295 L 151 299 L 154 301 L 157 305 L 161 305 L 159 297 L 165 295 L 164 292 L 165 288 L 164 286 L 161 284 L 162 282 L 160 280 L 162 278 L 164 278 L 166 280 L 166 285 L 169 288 L 172 288 L 173 287 L 169 282 L 170 279 L 167 278 L 166 275 L 168 273 L 170 273 L 171 276 L 175 281 L 178 282 L 177 279 L 181 275 L 182 269 L 185 265 L 188 265 L 191 268 L 192 271 L 194 272 L 196 271 L 195 266 L 193 264 L 189 264 L 186 261 L 189 258 L 192 257 L 193 258 L 196 256 L 200 257 L 201 256 Z M 197 239 L 196 240 L 197 243 L 195 246 L 195 248 L 197 250 L 201 251 L 207 255 L 204 259 L 200 260 L 199 262 L 204 261 L 207 258 L 211 258 L 212 257 L 214 258 L 210 263 L 204 267 L 204 270 L 207 272 L 206 275 L 204 275 L 201 278 L 198 274 L 196 274 L 194 277 L 190 276 L 186 279 L 186 281 L 188 282 L 190 285 L 184 297 L 186 300 L 190 303 L 189 305 L 186 305 L 182 310 L 183 313 L 180 316 L 179 319 L 182 322 L 189 320 L 191 323 L 188 326 L 184 334 L 178 340 L 184 342 L 185 340 L 188 338 L 194 342 L 188 348 L 187 351 L 192 347 L 195 351 L 197 348 L 197 346 L 199 344 L 204 343 L 204 342 L 200 342 L 198 340 L 199 339 L 199 336 L 196 334 L 197 327 L 194 326 L 193 324 L 194 323 L 197 324 L 201 319 L 201 317 L 209 310 L 212 310 L 214 312 L 207 319 L 205 323 L 207 326 L 201 331 L 201 333 L 204 332 L 206 333 L 206 335 L 203 339 L 207 337 L 209 338 L 213 338 L 218 334 L 218 328 L 213 326 L 213 324 L 215 322 L 214 319 L 215 316 L 216 316 L 218 319 L 221 320 L 220 322 L 223 325 L 222 334 L 226 339 L 224 341 L 221 342 L 218 346 L 216 346 L 215 344 L 210 344 L 206 351 L 206 355 L 210 357 L 209 360 L 205 362 L 198 363 L 197 365 L 191 370 L 189 369 L 189 364 L 184 363 L 184 365 L 182 367 L 183 369 L 183 379 L 184 381 L 187 383 L 186 384 L 186 387 L 184 389 L 181 385 L 179 386 L 179 388 L 183 392 L 182 395 L 184 395 L 187 391 L 189 391 L 190 394 L 192 393 L 190 391 L 192 387 L 189 384 L 188 378 L 191 376 L 194 372 L 195 372 L 197 375 L 193 383 L 197 379 L 199 379 L 201 382 L 205 379 L 207 379 L 208 381 L 211 383 L 209 386 L 205 386 L 203 389 L 200 388 L 199 391 L 202 391 L 203 392 L 206 389 L 209 389 L 212 392 L 214 392 L 216 394 L 215 396 L 215 401 L 213 403 L 211 402 L 210 403 L 212 409 L 214 408 L 213 405 L 216 402 L 222 399 L 221 396 L 223 394 L 225 396 L 227 395 L 225 392 L 224 393 L 221 390 L 218 392 L 215 390 L 215 387 L 220 383 L 221 386 L 224 386 L 231 393 L 235 393 L 237 395 L 234 399 L 237 408 L 235 409 L 231 406 L 230 407 L 224 407 L 224 408 L 226 408 L 232 415 L 234 414 L 236 415 L 236 420 L 241 426 L 242 426 L 242 424 L 240 421 L 240 415 L 239 414 L 240 404 L 237 401 L 237 399 L 238 398 L 238 395 L 240 392 L 242 391 L 243 392 L 243 396 L 246 399 L 249 399 L 250 401 L 253 403 L 254 406 L 258 408 L 259 412 L 261 414 L 261 416 L 262 417 L 265 417 L 269 422 L 273 425 L 276 425 L 277 426 L 277 430 L 280 430 L 281 431 L 282 430 L 282 426 L 284 424 L 284 421 L 286 420 L 287 423 L 291 427 L 293 424 L 295 426 L 295 430 L 296 432 L 297 432 L 298 430 L 300 431 L 303 429 L 306 430 L 307 427 L 309 425 L 311 426 L 312 425 L 311 421 L 314 419 L 317 419 L 321 414 L 321 413 L 318 411 L 318 408 L 316 406 L 316 405 L 318 404 L 324 410 L 324 412 L 327 413 L 327 419 L 324 423 L 324 429 L 320 432 L 320 438 L 319 439 L 320 446 L 322 449 L 325 450 L 325 453 L 322 457 L 319 457 L 317 454 L 316 457 L 313 457 L 311 455 L 314 450 L 314 448 L 316 446 L 316 438 L 317 437 L 317 434 L 316 433 L 311 434 L 312 436 L 312 441 L 314 444 L 313 445 L 310 445 L 306 450 L 306 451 L 309 451 L 310 452 L 310 454 L 308 456 L 308 459 L 307 460 L 303 459 L 301 461 L 301 463 L 303 463 L 305 461 L 307 463 L 306 466 L 312 468 L 312 471 L 309 474 L 309 483 L 306 489 L 306 493 L 307 494 L 306 496 L 307 497 L 310 497 L 315 494 L 317 497 L 311 501 L 309 500 L 307 506 L 309 507 L 313 505 L 314 508 L 317 507 L 319 509 L 319 512 L 323 511 L 326 514 L 325 516 L 326 517 L 327 516 L 329 517 L 332 513 L 333 513 L 335 516 L 338 514 L 340 516 L 344 517 L 345 516 L 343 514 L 342 506 L 344 504 L 350 504 L 351 503 L 353 505 L 354 508 L 354 515 L 356 517 L 360 514 L 364 516 L 365 514 L 363 509 L 361 507 L 361 505 L 359 503 L 360 501 L 361 502 L 368 502 L 373 507 L 373 509 L 375 510 L 375 508 L 372 504 L 374 501 L 372 497 L 369 496 L 366 493 L 364 493 L 362 491 L 359 491 L 357 489 L 357 485 L 359 482 L 358 472 L 361 470 L 360 467 L 355 463 L 361 459 L 359 453 L 361 451 L 365 452 L 364 446 L 358 436 L 358 433 L 360 431 L 364 431 L 365 430 L 360 426 L 358 426 L 355 428 L 352 425 L 356 421 L 358 421 L 358 419 L 356 417 L 355 411 L 354 410 L 350 410 L 348 409 L 345 406 L 345 402 L 344 401 L 337 402 L 334 406 L 335 408 L 333 410 L 331 410 L 328 412 L 326 411 L 326 407 L 331 403 L 335 397 L 335 393 L 337 392 L 343 397 L 341 392 L 344 389 L 339 382 L 341 379 L 344 378 L 344 376 L 340 372 L 334 369 L 332 366 L 332 364 L 328 359 L 328 357 L 330 355 L 333 356 L 340 362 L 341 365 L 342 365 L 343 360 L 339 354 L 336 356 L 331 351 L 330 348 L 325 342 L 325 339 L 327 337 L 329 337 L 335 342 L 335 338 L 338 336 L 338 335 L 331 329 L 333 327 L 335 328 L 334 325 L 335 324 L 335 321 L 329 315 L 326 315 L 317 309 L 319 306 L 321 307 L 328 307 L 331 309 L 331 305 L 325 292 L 328 288 L 335 287 L 339 294 L 343 297 L 343 300 L 350 307 L 347 313 L 349 316 L 349 318 L 347 320 L 350 325 L 350 328 L 353 333 L 353 335 L 355 335 L 357 339 L 360 335 L 362 337 L 361 338 L 361 343 L 360 344 L 360 346 L 362 349 L 360 351 L 357 349 L 352 353 L 353 354 L 354 353 L 359 359 L 359 361 L 356 366 L 355 372 L 356 372 L 358 369 L 358 367 L 360 365 L 363 367 L 362 370 L 358 373 L 358 376 L 355 379 L 356 382 L 360 379 L 362 381 L 363 384 L 368 383 L 370 385 L 371 390 L 374 392 L 376 392 L 378 390 L 381 390 L 384 387 L 382 384 L 385 382 L 388 385 L 388 390 L 386 392 L 383 391 L 383 392 L 387 395 L 387 396 L 382 400 L 383 402 L 385 401 L 390 395 L 393 397 L 393 402 L 394 403 L 395 402 L 394 401 L 396 398 L 398 397 L 402 397 L 401 395 L 404 391 L 403 388 L 405 386 L 406 383 L 405 372 L 404 370 L 406 368 L 409 369 L 409 367 L 407 365 L 409 359 L 407 355 L 407 351 L 404 348 L 404 344 L 403 343 L 403 341 L 405 340 L 405 339 L 400 334 L 402 330 L 395 321 L 396 317 L 390 312 L 391 311 L 391 308 L 384 300 L 380 300 L 377 297 L 378 296 L 381 297 L 383 296 L 387 296 L 389 297 L 389 296 L 385 293 L 381 293 L 379 291 L 381 289 L 382 290 L 384 289 L 373 277 L 374 274 L 371 272 L 366 266 L 368 263 L 367 260 L 357 251 L 359 248 L 358 247 L 352 246 L 350 244 L 347 243 L 341 244 L 339 246 L 336 247 L 328 247 L 323 243 L 320 243 L 319 242 L 316 244 L 313 243 L 311 246 L 309 246 L 308 245 L 308 242 L 307 242 L 305 245 L 302 245 L 299 248 L 295 248 L 289 252 L 284 253 L 280 257 L 277 257 L 275 262 L 269 260 L 263 262 L 259 266 L 256 264 L 253 267 L 248 268 L 246 267 L 244 264 L 240 264 L 236 262 L 233 258 L 226 266 L 226 269 L 229 270 L 231 268 L 234 268 L 235 271 L 225 280 L 223 280 L 219 277 L 219 274 L 220 273 L 219 271 L 218 272 L 215 272 L 213 270 L 211 270 L 210 268 L 218 264 L 221 265 L 224 262 L 223 260 L 220 260 L 219 258 L 223 256 L 228 257 L 229 254 L 227 252 L 227 250 L 221 252 L 219 250 L 220 249 L 219 247 L 213 247 L 209 242 L 205 243 L 202 240 Z M 331 486 L 333 488 L 332 491 L 330 490 L 330 487 Z M 323 485 L 325 484 L 326 487 L 324 488 Z M 317 483 L 319 484 L 320 487 L 318 491 L 316 489 L 316 484 Z M 347 466 L 350 470 L 349 471 L 346 470 L 346 472 L 343 475 L 342 474 L 342 471 L 343 469 Z M 313 463 L 316 467 L 316 472 L 315 473 L 313 472 L 313 469 L 311 465 Z M 331 462 L 332 461 L 337 462 L 338 463 L 338 466 L 334 469 L 332 467 Z M 324 458 L 326 460 L 326 462 L 324 464 L 322 462 L 322 460 Z M 355 438 L 357 440 L 357 443 L 352 447 L 352 449 L 350 452 L 350 455 L 348 457 L 345 454 L 345 451 L 342 448 L 341 445 L 347 443 L 350 444 L 351 441 Z M 330 436 L 333 437 L 336 441 L 335 444 L 331 440 L 331 445 L 333 447 L 333 450 L 332 451 L 329 450 L 327 448 L 327 442 L 326 441 L 326 439 Z M 339 434 L 341 433 L 344 437 L 343 438 L 341 437 Z M 274 417 L 275 416 L 278 417 L 283 423 L 280 426 L 276 425 L 275 424 Z M 264 401 L 266 401 L 270 405 L 270 410 L 272 412 L 270 415 L 270 418 L 269 419 L 267 418 L 266 415 L 268 412 L 268 410 L 263 408 L 263 402 Z M 296 400 L 299 401 L 299 404 L 297 407 L 298 408 L 298 412 L 302 418 L 302 421 L 303 422 L 303 425 L 301 427 L 295 423 L 292 425 L 289 421 L 290 417 L 286 417 L 283 414 L 282 410 L 286 407 L 289 409 L 293 415 L 295 414 L 295 411 L 292 407 L 292 404 Z M 262 390 L 265 389 L 266 392 L 264 394 L 262 392 Z M 247 389 L 253 393 L 254 398 L 252 400 L 250 398 L 250 396 L 247 396 L 246 395 L 246 390 Z M 255 387 L 259 390 L 261 394 L 264 397 L 262 399 L 260 397 L 257 397 L 255 395 L 255 392 L 254 391 L 254 388 Z M 373 387 L 376 386 L 380 389 L 377 390 L 374 389 Z M 308 386 L 316 394 L 317 398 L 316 399 L 313 399 L 315 401 L 315 408 L 316 409 L 315 411 L 315 415 L 307 425 L 304 421 L 303 414 L 305 412 L 305 408 L 306 407 L 308 408 L 309 407 L 309 398 L 307 395 L 307 387 Z M 323 383 L 326 384 L 328 386 L 328 399 L 324 403 L 321 403 L 319 401 L 319 393 L 322 389 L 322 384 Z M 306 374 L 310 377 L 309 380 L 307 382 L 305 381 L 305 379 L 307 377 L 305 375 Z M 229 374 L 233 379 L 233 381 L 229 385 L 227 383 L 228 381 L 226 378 Z M 275 373 L 282 381 L 282 385 L 281 386 L 278 384 L 278 381 L 273 376 Z M 297 373 L 299 372 L 303 377 L 301 379 L 297 375 Z M 282 369 L 282 368 L 285 366 L 287 368 L 285 370 Z M 324 365 L 328 368 L 328 370 L 332 375 L 332 381 L 330 383 L 325 379 L 325 375 L 321 369 Z M 216 369 L 216 367 L 218 365 L 221 366 L 218 370 Z M 296 365 L 299 363 L 304 367 L 299 371 L 296 368 Z M 268 363 L 271 365 L 271 367 L 273 369 L 272 371 L 268 368 L 268 365 L 267 364 Z M 256 361 L 257 361 L 259 364 L 258 367 L 257 367 L 255 364 Z M 230 360 L 232 363 L 229 366 L 227 364 L 227 362 Z M 312 359 L 314 361 L 314 366 L 312 368 L 309 369 L 308 367 L 310 364 L 310 360 Z M 367 356 L 368 356 L 370 359 L 369 362 L 367 362 L 364 360 Z M 222 358 L 217 362 L 216 365 L 212 370 L 211 369 L 206 370 L 201 368 L 201 366 L 205 362 L 207 362 L 210 359 L 212 359 L 216 356 L 221 356 Z M 277 354 L 280 358 L 279 361 L 274 357 L 274 356 Z M 226 354 L 228 355 L 228 360 L 227 361 L 225 360 L 224 357 Z M 237 353 L 242 358 L 242 362 L 241 363 L 237 363 L 235 361 L 235 360 L 237 359 L 237 357 L 235 360 L 233 358 Z M 374 351 L 377 354 L 374 358 L 372 356 L 372 353 Z M 249 351 L 250 351 L 251 353 L 250 354 L 250 362 L 248 364 L 248 366 L 249 366 L 251 369 L 255 372 L 255 374 L 258 372 L 259 367 L 262 366 L 264 368 L 264 371 L 269 376 L 272 377 L 275 380 L 277 386 L 275 388 L 274 394 L 277 401 L 280 404 L 280 406 L 278 408 L 273 402 L 273 397 L 271 393 L 271 389 L 272 388 L 269 386 L 265 386 L 264 385 L 264 379 L 263 378 L 261 378 L 260 376 L 259 376 L 257 379 L 255 379 L 254 377 L 252 376 L 252 380 L 250 382 L 248 381 L 248 374 L 247 374 L 247 377 L 245 379 L 243 378 L 244 376 L 244 372 L 246 369 L 243 370 L 241 368 L 246 364 L 246 355 Z M 300 346 L 302 348 L 302 350 L 309 356 L 307 358 L 305 357 L 303 360 L 300 358 L 300 356 L 296 350 Z M 260 343 L 262 346 L 261 349 L 259 350 L 258 349 L 258 345 Z M 226 341 L 228 344 L 225 346 L 223 344 Z M 313 340 L 314 343 L 313 345 L 311 346 L 310 344 Z M 265 340 L 268 341 L 269 352 L 272 352 L 274 356 L 270 359 L 268 359 L 266 357 L 266 349 L 263 349 L 262 348 L 264 346 L 264 341 Z M 282 341 L 284 339 L 287 342 L 284 344 Z M 242 337 L 244 339 L 244 343 L 239 348 L 236 345 Z M 255 336 L 256 337 L 255 339 L 253 340 L 252 338 Z M 192 335 L 194 334 L 195 337 L 193 338 Z M 252 332 L 252 333 L 247 337 L 244 337 L 243 336 L 245 334 L 248 334 L 250 331 Z M 321 329 L 323 331 L 321 334 L 319 332 Z M 282 328 L 284 330 L 282 333 L 280 331 Z M 363 327 L 365 329 L 364 332 L 361 330 Z M 314 327 L 317 326 L 318 327 L 318 330 L 315 331 L 314 330 Z M 224 323 L 228 320 L 235 320 L 236 321 L 239 320 L 241 322 L 241 326 L 236 332 L 233 328 L 229 328 L 228 327 L 229 323 L 225 325 Z M 285 319 L 289 320 L 290 322 L 294 322 L 296 324 L 295 326 L 291 325 L 291 328 L 292 329 L 291 331 L 288 329 L 288 327 L 283 321 Z M 242 321 L 245 319 L 248 322 L 250 321 L 251 323 L 249 324 L 248 326 L 244 324 Z M 298 319 L 300 318 L 302 320 L 302 322 L 300 323 Z M 264 317 L 266 319 L 266 322 L 261 327 L 259 331 L 257 332 L 256 331 L 257 324 L 259 322 L 262 321 L 262 319 Z M 360 316 L 364 321 L 364 323 L 362 324 L 359 322 L 354 326 L 352 323 L 352 321 L 355 319 L 358 319 Z M 235 316 L 236 313 L 239 314 L 237 317 Z M 349 312 L 350 311 L 353 311 L 355 313 L 355 317 L 353 318 L 352 316 L 349 314 Z M 301 312 L 302 311 L 307 316 L 305 318 L 302 315 Z M 258 315 L 260 311 L 262 311 L 264 313 L 261 317 Z M 223 314 L 226 310 L 229 310 L 231 312 L 229 315 L 228 314 L 226 315 Z M 281 309 L 283 311 L 283 314 L 282 315 L 279 314 L 279 311 Z M 219 308 L 221 308 L 223 310 L 222 311 L 223 314 L 222 316 L 220 316 L 217 312 L 217 310 Z M 273 305 L 274 306 L 274 309 L 276 312 L 276 315 L 274 317 L 274 319 L 271 321 L 270 318 L 272 312 L 268 308 L 270 306 Z M 305 303 L 308 301 L 310 304 L 307 305 Z M 283 299 L 284 298 L 287 298 L 289 301 L 286 303 L 283 301 Z M 272 302 L 275 298 L 278 299 L 277 302 L 275 303 Z M 321 295 L 324 297 L 324 300 L 322 303 L 321 303 L 319 300 L 319 297 Z M 205 295 L 207 297 L 205 300 L 200 299 L 200 301 L 206 300 L 207 303 L 201 309 L 197 310 L 196 313 L 194 315 L 191 314 L 187 310 L 190 306 L 196 307 L 196 305 L 193 305 L 192 304 L 192 301 L 194 297 L 200 295 Z M 210 299 L 210 297 L 212 294 L 214 294 L 216 296 L 213 300 Z M 338 291 L 339 288 L 342 290 L 340 292 Z M 316 290 L 318 288 L 320 288 L 322 290 L 321 291 L 317 291 Z M 311 286 L 313 287 L 315 291 L 315 294 L 313 296 L 311 295 L 311 292 L 309 290 Z M 273 284 L 275 286 L 275 289 L 274 290 L 272 289 L 272 285 Z M 346 284 L 347 283 L 350 283 L 351 285 L 348 287 Z M 254 284 L 240 297 L 239 300 L 236 303 L 234 301 L 229 307 L 226 306 L 226 304 L 232 298 L 229 296 L 229 297 L 227 298 L 225 295 L 231 289 L 237 293 L 248 281 L 249 282 L 252 282 Z M 289 280 L 290 279 L 292 280 L 293 279 L 296 279 L 298 281 L 299 286 L 297 287 L 293 284 L 290 284 L 289 283 Z M 319 276 L 322 278 L 320 284 L 317 282 L 317 279 Z M 283 278 L 285 276 L 288 276 L 289 277 L 286 280 Z M 268 276 L 270 278 L 272 284 L 271 285 L 267 284 L 264 287 L 261 287 L 260 288 L 261 290 L 259 292 L 257 290 L 258 285 L 262 281 L 267 280 L 267 277 Z M 255 276 L 258 275 L 260 279 L 257 280 L 255 278 Z M 239 276 L 225 293 L 223 293 L 221 291 L 219 292 L 217 290 L 218 288 L 223 286 L 229 279 L 237 275 Z M 214 276 L 209 280 L 201 289 L 198 289 L 195 286 L 207 275 L 212 274 Z M 337 273 L 330 279 L 328 279 L 326 277 L 329 273 L 331 273 L 333 271 L 335 271 Z M 274 269 L 275 270 L 275 273 L 273 275 L 271 272 Z M 273 267 L 276 263 L 277 263 L 278 265 L 281 265 L 283 266 L 285 263 L 287 263 L 289 265 L 287 268 L 285 268 L 283 270 L 281 268 L 276 269 Z M 324 262 L 327 259 L 331 259 L 333 261 L 331 263 L 328 263 L 327 264 Z M 347 207 L 345 207 L 344 212 L 339 217 L 339 221 L 340 222 L 344 222 L 348 219 L 348 216 L 351 212 L 351 210 Z M 218 73 L 213 80 L 216 82 L 213 86 L 213 89 L 215 91 L 214 94 L 220 99 L 221 103 L 220 105 L 216 108 L 216 110 L 205 120 L 206 123 L 203 125 L 204 126 L 199 130 L 200 133 L 197 136 L 193 138 L 189 143 L 189 145 L 191 145 L 193 147 L 192 151 L 194 150 L 200 151 L 204 156 L 197 160 L 192 155 L 189 154 L 186 158 L 187 157 L 189 159 L 192 159 L 194 162 L 197 163 L 199 162 L 201 164 L 201 167 L 200 168 L 196 168 L 193 166 L 191 168 L 188 169 L 188 170 L 193 170 L 194 169 L 196 170 L 201 170 L 204 168 L 209 172 L 203 175 L 207 178 L 213 173 L 215 175 L 214 178 L 216 180 L 216 183 L 214 185 L 211 185 L 212 187 L 211 189 L 213 189 L 217 185 L 219 185 L 222 183 L 223 185 L 221 188 L 221 190 L 225 187 L 227 187 L 228 190 L 225 191 L 224 193 L 230 191 L 232 193 L 230 199 L 233 199 L 236 202 L 241 203 L 242 204 L 241 206 L 244 209 L 247 207 L 250 209 L 252 208 L 253 209 L 253 214 L 254 215 L 257 215 L 258 214 L 261 215 L 263 213 L 265 215 L 265 217 L 265 215 L 268 213 L 277 220 L 280 218 L 286 219 L 287 220 L 286 224 L 287 226 L 289 226 L 291 228 L 293 234 L 293 236 L 291 239 L 294 238 L 296 236 L 296 227 L 293 229 L 292 226 L 298 223 L 298 221 L 302 217 L 305 220 L 308 219 L 310 221 L 310 225 L 312 227 L 312 229 L 313 229 L 318 223 L 320 222 L 324 223 L 325 221 L 328 222 L 330 221 L 331 222 L 330 224 L 327 224 L 326 225 L 326 229 L 329 229 L 332 227 L 334 228 L 334 222 L 331 222 L 326 216 L 323 217 L 324 218 L 323 221 L 319 221 L 317 223 L 316 222 L 312 223 L 310 220 L 310 217 L 311 216 L 313 216 L 314 217 L 313 218 L 314 220 L 316 220 L 316 218 L 314 217 L 315 211 L 316 210 L 319 212 L 320 211 L 323 213 L 327 212 L 330 214 L 328 211 L 330 208 L 326 204 L 328 201 L 331 203 L 333 203 L 335 205 L 334 207 L 334 211 L 337 210 L 340 212 L 340 209 L 343 205 L 341 205 L 339 203 L 339 201 L 342 200 L 346 202 L 348 200 L 350 202 L 350 204 L 353 207 L 356 208 L 357 210 L 356 211 L 356 214 L 357 215 L 358 214 L 359 207 L 361 205 L 364 205 L 364 202 L 362 200 L 362 193 L 364 190 L 360 190 L 357 186 L 359 184 L 361 186 L 367 188 L 368 189 L 368 192 L 371 193 L 372 190 L 369 182 L 371 180 L 374 182 L 376 182 L 376 180 L 372 175 L 372 173 L 374 170 L 373 169 L 373 165 L 370 161 L 370 157 L 368 152 L 372 149 L 375 145 L 378 145 L 379 147 L 380 147 L 383 144 L 380 140 L 382 138 L 385 138 L 386 139 L 389 138 L 389 135 L 391 133 L 391 129 L 389 126 L 390 123 L 387 117 L 381 111 L 368 106 L 365 106 L 362 108 L 358 108 L 353 113 L 350 113 L 341 106 L 339 103 L 337 103 L 334 100 L 332 100 L 330 98 L 324 97 L 322 94 L 319 92 L 317 87 L 314 83 L 313 83 L 314 85 L 313 87 L 314 91 L 312 93 L 303 84 L 303 83 L 296 77 L 295 78 L 297 83 L 297 86 L 296 87 L 290 85 L 283 80 L 280 80 L 284 85 L 282 87 L 280 87 L 277 85 L 271 85 L 270 84 L 266 84 L 265 85 L 263 83 L 259 86 L 258 85 L 252 86 L 250 84 L 250 82 L 252 80 L 252 77 L 251 75 L 244 69 L 241 69 L 238 67 L 229 67 L 227 69 L 222 70 Z M 295 214 L 298 218 L 292 222 L 291 219 Z M 321 205 L 323 203 L 328 209 L 327 210 L 324 210 L 322 208 Z M 305 203 L 307 205 L 306 208 L 303 206 Z M 317 201 L 320 204 L 315 208 L 313 208 L 312 205 Z M 310 195 L 313 193 L 316 197 L 315 198 L 312 198 Z M 218 182 L 220 179 L 223 180 L 219 183 Z M 222 170 L 221 173 L 217 173 L 216 172 L 217 170 L 220 170 L 221 169 Z M 236 169 L 238 167 L 240 167 L 242 169 L 242 173 L 248 180 L 255 184 L 261 186 L 264 186 L 265 187 L 275 187 L 283 184 L 286 180 L 288 180 L 290 182 L 290 186 L 282 192 L 274 193 L 273 194 L 267 194 L 266 193 L 257 192 L 247 187 L 240 181 L 236 174 Z M 309 172 L 316 166 L 325 166 L 326 167 L 329 167 L 331 169 L 339 173 L 343 177 L 345 181 L 345 186 L 341 190 L 338 191 L 329 191 L 324 188 L 320 187 L 314 183 L 310 178 Z M 353 160 L 355 157 L 357 158 L 355 161 Z M 340 152 L 341 151 L 345 152 L 346 155 L 344 156 L 341 154 Z M 297 151 L 301 147 L 306 145 L 313 146 L 319 150 L 324 156 L 324 161 L 321 163 L 315 156 L 309 153 L 304 153 L 301 155 L 299 155 L 297 153 Z M 245 152 L 250 146 L 256 144 L 258 145 L 264 145 L 265 146 L 271 146 L 272 148 L 277 150 L 283 155 L 284 157 L 284 163 L 276 170 L 270 171 L 269 172 L 260 172 L 254 169 L 249 164 L 245 158 Z M 262 140 L 265 137 L 278 138 L 282 140 L 289 147 L 289 148 L 286 149 L 282 146 L 279 146 L 270 142 L 264 142 Z M 203 146 L 204 144 L 211 138 L 211 137 L 208 136 L 207 134 L 208 133 L 211 133 L 215 137 L 222 136 L 223 137 L 228 137 L 236 143 L 237 145 L 237 150 L 232 155 L 228 156 L 226 158 L 219 159 L 215 157 L 211 157 L 203 149 Z M 229 135 L 230 132 L 232 130 L 238 127 L 245 127 L 252 131 L 255 134 L 256 138 L 252 141 L 246 135 L 238 135 L 231 138 Z M 364 118 L 369 118 L 375 120 L 379 124 L 379 126 L 381 128 L 381 134 L 379 139 L 371 145 L 369 145 L 365 140 L 362 134 L 358 132 L 359 128 L 357 124 Z M 318 113 L 322 114 L 330 121 L 331 123 L 331 128 L 329 130 L 314 118 L 314 116 Z M 264 101 L 264 104 L 262 106 L 256 106 L 250 109 L 247 109 L 245 107 L 245 104 L 250 100 L 261 98 Z M 234 76 L 240 81 L 243 87 L 236 93 L 230 95 L 227 99 L 224 99 L 220 95 L 218 88 L 220 84 L 226 77 L 232 77 Z" fill="#FBFBFB" fill-rule="evenodd"/><path d="M 172 506 L 170 512 L 174 515 L 176 510 L 174 512 L 172 512 L 171 511 Z M 296 504 L 295 507 L 299 510 L 300 508 Z M 183 504 L 185 504 L 187 506 L 185 512 L 185 515 L 186 516 L 194 516 L 195 515 L 203 515 L 205 516 L 204 514 L 208 510 L 210 512 L 210 514 L 207 516 L 212 514 L 216 515 L 214 515 L 210 509 L 205 509 L 201 514 L 197 514 L 194 516 L 189 516 L 186 513 L 186 509 L 188 507 L 185 504 Z M 160 506 L 162 507 L 166 502 L 170 502 L 172 504 L 172 503 L 170 502 L 165 502 L 163 504 L 161 503 Z M 299 493 L 296 497 L 300 502 L 301 501 L 301 497 L 300 496 L 300 493 Z M 297 497 L 299 496 L 301 499 L 299 500 Z M 306 487 L 304 491 L 306 494 L 305 497 L 307 499 L 308 502 L 306 504 L 303 504 L 303 506 L 306 508 L 305 513 L 306 513 L 306 511 L 308 509 L 311 508 L 313 510 L 312 512 L 315 515 L 319 513 L 321 515 L 320 516 L 321 518 L 324 517 L 325 518 L 331 518 L 334 519 L 338 516 L 342 519 L 345 517 L 342 518 L 338 515 L 335 517 L 334 515 L 332 514 L 329 518 L 328 517 L 326 518 L 324 516 L 325 514 L 323 512 L 319 513 L 317 508 L 314 509 L 313 506 L 308 508 L 306 506 L 308 500 L 309 499 L 311 500 L 313 498 L 315 498 L 316 496 L 314 495 L 310 498 L 307 498 L 305 496 L 306 495 L 305 493 L 305 489 Z M 165 492 L 167 491 L 171 491 L 173 489 L 181 489 L 183 488 L 185 490 L 188 489 L 191 492 L 193 492 L 196 490 L 198 493 L 202 496 L 206 493 L 207 496 L 214 497 L 217 500 L 217 502 L 219 502 L 224 507 L 224 510 L 223 511 L 220 511 L 218 514 L 221 511 L 224 513 L 224 507 L 215 497 L 212 497 L 206 493 L 202 495 L 200 492 L 199 493 L 196 489 L 192 492 L 190 489 L 193 485 L 190 486 L 187 485 L 188 488 L 186 490 L 181 486 L 179 488 L 173 489 L 170 491 Z M 219 484 L 219 491 L 221 495 L 226 501 L 228 502 L 227 499 L 230 498 L 233 493 L 233 491 L 232 491 L 231 493 L 231 496 L 228 497 L 225 494 L 222 494 L 221 493 L 221 487 L 223 486 L 223 485 L 222 486 Z M 239 480 L 238 480 L 236 483 L 234 481 L 234 477 L 233 476 L 231 478 L 228 478 L 227 479 L 228 481 L 228 490 L 229 490 L 228 488 L 232 482 L 233 482 L 235 485 L 239 482 Z M 304 476 L 303 475 L 302 476 L 299 476 L 295 480 L 294 483 L 299 483 L 301 482 L 298 478 L 300 476 L 303 476 L 304 477 L 304 480 L 303 481 L 304 480 Z M 186 475 L 185 478 L 182 481 L 184 483 L 186 482 L 186 477 L 187 476 Z M 221 474 L 221 475 L 224 476 L 226 475 L 225 473 Z M 199 473 L 198 472 L 196 473 L 194 477 L 196 477 Z M 192 468 L 190 468 L 190 473 L 191 474 L 193 472 L 193 469 Z M 347 467 L 344 469 L 343 474 L 345 472 L 346 469 L 349 470 Z M 313 464 L 312 465 L 314 469 L 314 472 L 315 472 L 315 467 Z M 200 464 L 200 466 L 204 472 L 204 476 L 206 478 L 205 482 L 208 479 L 211 481 L 209 477 L 206 474 L 206 469 Z M 332 462 L 333 467 L 335 468 L 337 466 L 337 463 Z M 215 455 L 214 456 L 214 462 L 215 463 L 216 462 L 216 456 Z M 294 453 L 292 455 L 292 460 L 293 461 L 298 461 L 301 465 L 304 465 L 306 467 L 305 466 L 306 463 L 305 462 L 303 464 L 301 464 L 300 461 L 303 458 L 307 459 L 307 457 L 306 458 L 303 458 L 300 460 L 298 454 L 297 453 Z M 294 453 L 298 458 L 297 461 L 294 461 L 292 459 L 292 455 Z M 197 449 L 195 448 L 194 451 L 192 453 L 189 453 L 187 455 L 184 453 L 186 451 L 186 449 L 183 450 L 184 450 L 185 452 L 182 455 L 178 457 L 176 455 L 177 453 L 176 456 L 178 458 L 178 461 L 179 462 L 180 461 L 179 459 L 183 456 L 184 458 L 182 460 L 184 458 L 185 459 L 185 461 L 183 463 L 184 466 L 189 462 L 192 458 L 192 456 L 197 452 Z M 302 447 L 300 449 L 300 451 L 304 453 L 307 452 L 309 454 L 308 455 L 309 452 L 306 452 L 305 451 L 308 447 L 306 449 Z M 303 447 L 304 450 L 302 452 L 300 449 Z M 207 447 L 205 447 L 203 449 L 203 458 L 204 459 L 205 458 L 205 454 L 207 451 Z M 355 439 L 352 441 L 352 443 L 350 445 L 348 444 L 346 445 L 342 445 L 343 448 L 346 451 L 346 454 L 348 456 L 351 447 L 356 443 L 356 440 Z M 330 437 L 327 439 L 328 442 L 328 448 L 332 450 L 332 447 L 330 445 L 330 440 L 331 439 L 335 443 L 335 441 L 333 438 Z M 184 434 L 182 434 L 181 436 L 177 439 L 171 441 L 169 446 L 170 447 L 174 445 L 175 442 L 181 436 L 184 435 Z M 299 431 L 298 431 L 297 433 L 296 433 L 295 431 L 292 435 L 292 436 L 292 435 L 294 434 L 295 436 L 293 438 L 291 438 L 292 439 L 297 435 Z M 268 430 L 269 433 L 268 432 L 269 430 L 271 430 L 274 433 L 273 435 L 271 434 L 273 436 L 279 436 L 278 434 L 275 434 L 271 430 Z M 194 427 L 194 431 L 196 432 L 197 431 L 196 429 L 197 428 Z M 260 423 L 259 425 L 262 428 L 264 428 L 263 425 Z M 275 417 L 275 420 L 277 418 L 280 421 L 279 424 L 277 424 L 276 422 L 276 424 L 280 425 L 282 422 L 278 418 Z M 193 411 L 193 415 L 195 415 L 196 412 Z M 355 410 L 356 411 L 357 417 L 359 419 L 359 421 L 356 422 L 353 425 L 355 427 L 358 425 L 360 425 L 362 427 L 360 420 L 357 417 L 356 411 Z M 317 405 L 319 408 L 319 411 L 322 413 L 318 419 L 319 417 L 323 414 L 324 414 L 326 417 L 324 419 L 324 421 L 310 433 L 311 440 L 309 442 L 306 440 L 304 440 L 303 442 L 305 444 L 308 444 L 309 445 L 310 444 L 313 444 L 311 441 L 311 436 L 310 434 L 316 432 L 318 434 L 318 437 L 317 438 L 317 446 L 315 449 L 316 447 L 319 449 L 314 455 L 313 454 L 314 451 L 312 455 L 313 456 L 316 456 L 317 453 L 319 456 L 322 456 L 324 453 L 324 450 L 322 450 L 319 446 L 318 439 L 319 438 L 319 432 L 320 431 L 318 432 L 317 430 L 321 427 L 322 430 L 323 429 L 323 423 L 326 419 L 326 413 L 324 413 L 323 410 Z M 318 454 L 320 450 L 322 450 L 324 452 L 321 456 Z M 264 402 L 264 408 L 266 408 L 269 410 L 269 412 L 267 414 L 268 418 L 269 418 L 269 415 L 271 413 L 269 410 L 269 405 L 266 402 Z M 266 402 L 269 405 L 267 408 L 264 405 Z M 302 425 L 301 418 L 297 412 L 297 408 L 296 407 L 298 404 L 298 401 L 296 401 L 293 404 L 294 403 L 296 405 L 295 408 L 293 407 L 296 411 L 296 414 L 294 416 L 293 416 L 290 411 L 286 408 L 283 410 L 284 414 L 286 416 L 290 416 L 291 415 L 293 416 L 293 419 L 292 420 L 290 419 L 290 421 L 293 425 L 291 428 L 286 423 L 286 421 L 285 421 L 285 424 L 283 426 L 283 430 L 281 432 L 280 431 L 277 431 L 276 430 L 276 426 L 273 426 L 269 423 L 265 418 L 262 418 L 261 417 L 269 423 L 276 431 L 278 432 L 282 432 L 284 430 L 288 434 L 289 433 L 289 430 L 293 426 L 294 429 L 294 426 L 292 424 L 294 422 L 301 426 Z M 287 426 L 289 427 L 289 431 L 288 432 L 285 430 Z M 297 415 L 299 417 L 299 421 L 298 422 L 295 420 L 295 417 Z M 288 411 L 290 413 L 286 416 L 285 413 Z M 390 396 L 389 398 L 392 400 L 392 405 L 393 405 L 395 403 L 394 404 L 392 402 L 392 397 Z M 344 390 L 342 392 L 344 397 L 342 398 L 336 393 L 336 396 L 336 395 L 338 394 L 340 396 L 341 399 L 340 400 L 337 400 L 335 398 L 333 402 L 327 407 L 327 411 L 333 409 L 334 408 L 333 406 L 337 401 L 340 400 L 344 400 L 346 402 L 346 406 L 348 408 L 346 405 L 346 401 L 344 399 L 345 396 L 342 393 Z M 247 390 L 247 395 L 252 395 L 253 397 L 251 398 L 252 399 L 253 398 L 252 393 Z M 255 388 L 256 395 L 257 396 L 260 396 L 262 398 L 263 397 L 260 394 L 258 390 Z M 256 392 L 258 391 L 260 394 L 258 395 Z M 308 387 L 308 395 L 310 398 L 310 407 L 308 409 L 306 408 L 306 412 L 304 414 L 305 421 L 307 424 L 309 422 L 310 419 L 314 415 L 314 411 L 315 409 L 314 408 L 314 401 L 312 399 L 313 398 L 316 398 L 315 394 Z M 312 401 L 313 402 L 314 411 L 311 414 L 311 418 L 309 422 L 307 423 L 305 421 L 304 415 L 311 407 L 310 402 Z M 308 395 L 310 392 L 313 392 L 314 393 L 312 396 L 309 396 Z M 200 399 L 201 401 L 201 407 L 202 408 L 204 407 L 206 408 L 206 411 L 204 413 L 206 418 L 207 418 L 209 413 L 215 408 L 217 410 L 217 413 L 211 418 L 210 421 L 211 421 L 213 419 L 219 417 L 218 416 L 219 413 L 221 416 L 219 410 L 220 401 L 221 400 L 224 400 L 228 395 L 233 395 L 234 398 L 232 400 L 226 402 L 222 407 L 224 409 L 226 409 L 230 413 L 230 416 L 233 416 L 235 418 L 234 419 L 235 425 L 239 428 L 236 430 L 238 431 L 239 429 L 241 432 L 244 434 L 247 433 L 250 434 L 251 433 L 254 433 L 256 435 L 257 434 L 256 430 L 255 433 L 250 433 L 249 431 L 250 428 L 252 426 L 255 425 L 256 427 L 257 417 L 255 415 L 255 412 L 257 410 L 258 411 L 257 408 L 253 406 L 252 403 L 251 403 L 249 400 L 246 400 L 242 396 L 242 392 L 241 392 L 239 395 L 239 398 L 238 399 L 238 401 L 241 404 L 240 414 L 241 415 L 241 421 L 243 424 L 242 427 L 241 427 L 235 420 L 235 415 L 232 416 L 226 409 L 223 408 L 224 406 L 230 406 L 231 405 L 236 408 L 235 403 L 233 401 L 233 399 L 236 396 L 235 394 L 231 394 L 224 387 L 221 387 L 217 390 L 216 387 L 218 385 L 220 385 L 220 384 L 219 384 L 216 387 L 216 390 L 218 391 L 221 389 L 224 392 L 225 391 L 228 395 L 226 397 L 223 395 L 222 396 L 223 399 L 214 405 L 215 408 L 213 410 L 211 409 L 209 403 L 211 401 L 213 402 L 214 400 L 212 401 L 210 399 L 209 400 L 209 404 L 207 405 L 206 404 L 206 398 L 207 396 L 204 396 Z M 247 423 L 248 424 L 248 429 L 249 431 L 245 433 L 243 430 L 243 427 L 245 424 Z M 248 423 L 250 421 L 252 421 L 254 423 L 252 425 L 250 425 Z M 240 397 L 243 397 L 245 399 L 244 401 L 245 406 L 248 407 L 248 406 L 250 405 L 251 408 L 255 413 L 257 420 L 254 423 L 249 418 L 247 414 L 247 409 L 245 411 L 247 414 L 247 419 L 244 421 L 241 418 L 241 415 L 240 414 L 241 404 L 238 400 Z M 203 397 L 205 399 L 206 405 L 202 408 L 201 407 L 201 399 Z M 387 385 L 384 383 L 383 384 L 385 387 L 381 391 L 378 391 L 376 393 L 372 392 L 370 390 L 370 388 L 370 390 L 367 393 L 367 395 L 364 399 L 365 400 L 370 400 L 374 394 L 376 393 L 380 393 L 381 394 L 381 398 L 380 399 L 381 401 L 378 405 L 379 406 L 383 405 L 386 401 L 383 403 L 381 400 L 385 397 L 386 395 L 384 394 L 382 391 L 383 390 L 385 391 L 387 390 Z M 199 382 L 198 385 L 198 391 L 200 394 L 203 393 L 206 390 L 209 390 L 211 393 L 213 393 L 215 395 L 214 393 L 212 393 L 209 390 L 206 390 L 203 393 L 202 392 L 199 392 L 198 389 L 200 387 L 203 388 L 205 385 L 209 385 L 210 384 L 207 380 L 205 380 L 204 381 L 206 380 L 207 383 L 202 388 L 199 385 L 202 382 L 201 383 Z M 229 375 L 227 377 L 228 380 L 229 377 L 232 380 L 230 383 L 228 382 L 229 384 L 232 381 L 232 379 Z M 275 374 L 274 376 L 279 381 L 279 384 L 281 385 L 281 381 L 280 379 Z M 298 373 L 298 375 L 301 378 L 302 376 Z M 195 373 L 189 378 L 190 384 L 192 386 L 193 386 L 197 380 L 193 384 L 192 383 L 196 375 Z M 195 374 L 196 375 L 195 377 L 192 379 L 191 377 Z M 324 366 L 322 369 L 326 375 L 326 379 L 330 382 L 331 381 L 331 375 L 331 379 L 328 381 L 326 379 L 326 375 L 322 369 L 324 367 L 330 373 L 327 370 L 327 368 Z M 298 364 L 297 365 L 297 368 L 299 370 L 303 367 Z M 311 360 L 311 364 L 309 368 L 313 366 L 313 361 Z M 367 357 L 365 360 L 369 361 L 369 359 L 368 357 Z M 330 356 L 329 359 L 332 363 L 329 359 L 331 356 L 340 364 L 340 366 L 342 368 L 340 370 L 337 370 L 340 371 L 344 375 L 342 373 L 344 369 L 344 363 L 343 363 L 343 365 L 341 366 L 338 361 L 333 357 Z M 275 356 L 275 357 L 279 360 L 278 356 L 277 355 Z M 354 354 L 356 356 L 355 360 L 357 361 L 357 362 L 355 363 L 355 369 L 353 373 L 356 376 L 354 378 L 354 384 L 357 390 L 359 390 L 363 385 L 361 383 L 360 380 L 356 383 L 354 379 L 357 376 L 357 373 L 361 370 L 362 367 L 360 366 L 356 373 L 354 372 L 355 366 L 358 361 L 357 357 Z M 237 354 L 234 358 L 237 362 L 241 362 L 241 361 L 239 360 L 241 359 L 241 358 Z M 374 352 L 373 353 L 373 356 L 374 357 L 376 355 Z M 249 352 L 247 355 L 247 364 L 242 368 L 243 369 L 245 368 L 247 369 L 245 372 L 245 376 L 244 378 L 246 377 L 246 374 L 247 373 L 249 374 L 249 381 L 251 380 L 251 376 L 253 375 L 255 378 L 257 378 L 259 375 L 260 375 L 261 377 L 263 377 L 265 379 L 265 385 L 269 385 L 273 388 L 272 389 L 272 393 L 274 397 L 274 402 L 278 407 L 279 404 L 276 401 L 273 394 L 274 388 L 276 386 L 274 380 L 272 378 L 269 377 L 263 371 L 263 368 L 262 367 L 260 367 L 260 370 L 256 375 L 254 374 L 254 372 L 247 366 L 247 364 L 249 362 L 249 354 L 250 352 Z M 265 377 L 266 376 L 270 377 L 273 381 L 271 383 L 267 384 L 265 382 Z M 248 371 L 251 370 L 253 373 L 251 375 Z M 300 347 L 297 350 L 300 354 L 301 358 L 303 359 L 305 356 L 306 357 L 308 356 L 301 350 Z M 265 341 L 265 346 L 263 348 L 266 348 L 267 349 L 267 357 L 270 358 L 273 356 L 272 353 L 269 353 L 268 352 L 267 341 Z M 242 338 L 240 340 L 240 342 L 237 345 L 239 347 L 243 343 L 243 339 Z M 175 337 L 174 339 L 171 341 L 171 342 L 174 342 L 175 343 L 170 349 L 170 352 L 171 354 L 173 355 L 175 353 L 177 353 L 178 350 L 180 348 L 181 351 L 180 354 L 172 363 L 172 367 L 173 366 L 178 370 L 175 373 L 173 372 L 172 370 L 170 370 L 170 377 L 172 379 L 177 375 L 178 371 L 180 369 L 182 370 L 182 377 L 177 381 L 177 383 L 178 384 L 178 389 L 180 391 L 178 397 L 179 398 L 182 397 L 183 399 L 184 399 L 186 396 L 187 397 L 192 396 L 193 390 L 192 389 L 191 390 L 193 393 L 191 395 L 189 394 L 189 392 L 187 392 L 184 396 L 182 396 L 181 395 L 182 392 L 178 388 L 178 386 L 180 384 L 181 384 L 184 388 L 186 383 L 184 382 L 182 379 L 182 369 L 181 367 L 183 365 L 183 363 L 184 362 L 188 363 L 187 361 L 189 359 L 192 362 L 190 364 L 190 369 L 191 369 L 196 365 L 198 362 L 205 361 L 209 359 L 210 360 L 207 363 L 205 363 L 202 366 L 202 368 L 205 368 L 206 369 L 211 368 L 212 369 L 216 362 L 221 358 L 221 357 L 216 357 L 214 359 L 210 360 L 209 357 L 207 357 L 205 355 L 205 353 L 207 359 L 205 361 L 203 361 L 201 359 L 202 353 L 203 351 L 199 353 L 194 359 L 193 357 L 194 356 L 194 353 L 196 351 L 195 352 L 192 348 L 188 352 L 186 351 L 187 348 L 193 342 L 187 339 L 184 343 L 178 341 L 175 343 L 174 342 L 176 338 Z M 170 373 L 171 372 L 176 373 L 177 375 L 172 377 L 170 375 Z M 217 360 L 212 368 L 209 366 L 206 368 L 203 367 L 204 365 L 208 364 L 211 360 L 215 358 Z M 184 357 L 186 359 L 184 362 L 182 362 L 181 360 Z M 201 353 L 202 356 L 201 358 L 198 360 L 196 358 L 197 355 L 199 353 Z M 192 356 L 190 359 L 184 357 L 175 366 L 172 364 L 173 361 L 177 358 L 179 355 L 185 355 L 187 353 L 189 353 Z M 192 349 L 194 352 L 191 354 L 190 351 Z M 177 347 L 179 349 L 173 354 L 172 352 Z M 192 342 L 185 351 L 184 351 L 180 346 L 178 346 L 176 344 L 178 342 L 181 342 L 182 343 L 188 341 L 191 341 Z M 148 333 L 145 335 L 140 335 L 137 337 L 135 337 L 134 334 L 133 335 L 134 339 L 133 341 L 128 345 L 128 346 L 133 346 L 137 351 L 136 352 L 133 349 L 131 349 L 128 352 L 129 355 L 132 355 L 136 357 L 138 355 L 138 352 L 140 351 L 141 352 L 140 359 L 139 360 L 140 359 L 141 351 L 139 351 L 136 348 L 136 345 L 132 346 L 131 344 L 136 341 L 141 341 L 141 340 L 138 338 L 142 335 L 147 336 L 149 334 Z M 132 353 L 135 352 L 136 354 L 133 355 Z M 336 323 L 335 325 L 336 328 L 335 329 L 333 328 L 332 329 L 339 335 L 339 336 L 336 338 L 336 342 L 334 343 L 329 338 L 326 339 L 326 342 L 331 348 L 333 352 L 331 348 L 326 342 L 327 339 L 331 340 L 340 350 L 336 355 L 339 353 L 342 356 L 343 359 L 341 355 L 341 345 L 340 344 L 341 337 L 335 331 Z M 338 342 L 340 343 L 340 346 L 339 347 L 336 345 Z M 225 323 L 225 324 L 229 322 L 230 323 L 229 327 L 233 327 L 236 331 L 240 326 L 240 322 L 239 321 L 237 322 L 235 321 L 228 321 Z M 234 322 L 235 324 L 231 327 L 229 325 L 231 323 Z M 285 320 L 284 321 L 289 327 L 289 329 L 291 330 L 290 325 L 291 324 L 295 325 L 294 323 L 290 323 L 289 321 Z M 243 321 L 244 323 L 248 325 L 248 324 L 250 323 L 250 322 L 248 323 L 245 320 Z M 264 318 L 263 321 L 258 324 L 257 331 L 258 331 L 260 327 L 265 322 L 265 319 Z M 258 324 L 261 323 L 262 325 L 260 327 Z M 360 317 L 358 320 L 353 321 L 354 325 L 359 321 L 363 323 L 363 321 Z M 350 312 L 350 314 L 354 317 L 354 313 L 353 312 Z M 262 312 L 260 312 L 259 314 L 260 316 L 263 314 Z M 224 314 L 227 313 L 229 314 L 230 312 L 229 311 L 226 311 Z M 212 311 L 209 311 L 202 317 L 202 319 L 197 325 L 194 324 L 194 325 L 196 325 L 198 327 L 197 334 L 200 336 L 200 339 L 199 340 L 205 342 L 204 344 L 199 345 L 197 349 L 200 345 L 203 349 L 207 343 L 208 344 L 210 343 L 215 343 L 216 345 L 218 345 L 221 341 L 225 339 L 221 334 L 221 331 L 219 330 L 220 328 L 222 328 L 222 325 L 219 322 L 220 320 L 218 320 L 216 317 L 215 317 L 216 322 L 214 324 L 214 326 L 217 326 L 219 328 L 219 334 L 213 339 L 209 339 L 207 338 L 203 340 L 202 338 L 205 335 L 205 333 L 201 334 L 200 332 L 199 333 L 197 332 L 199 328 L 200 328 L 201 330 L 206 326 L 204 323 L 206 319 L 213 312 Z M 218 338 L 218 340 L 216 342 L 212 342 L 211 341 L 216 337 Z M 215 324 L 217 321 L 220 323 L 218 325 Z M 206 316 L 207 318 L 204 322 L 205 327 L 203 329 L 199 324 L 202 318 L 204 316 Z M 219 309 L 218 312 L 220 315 L 222 315 L 221 313 L 222 310 Z M 273 306 L 269 308 L 273 312 L 271 320 L 273 319 L 273 317 L 275 315 L 275 312 L 273 309 Z M 321 296 L 320 297 L 320 300 L 321 302 L 322 302 L 323 297 Z M 205 296 L 195 297 L 193 301 L 193 304 L 196 304 L 197 307 L 196 308 L 190 307 L 188 310 L 191 313 L 194 314 L 195 311 L 197 309 L 201 308 L 206 303 L 206 301 L 203 302 L 200 302 L 199 301 L 200 298 L 205 299 L 206 297 Z M 190 311 L 192 309 L 195 312 L 193 314 Z M 205 303 L 201 308 L 198 308 L 197 307 L 197 305 L 201 302 L 204 302 Z M 196 299 L 198 302 L 195 304 L 193 302 Z M 215 296 L 212 295 L 211 299 L 213 299 Z M 187 289 L 184 293 L 182 298 L 184 301 L 180 303 L 177 306 L 177 307 L 177 306 L 182 302 L 184 303 L 179 307 L 182 308 L 180 310 L 179 316 L 171 325 L 175 321 L 178 321 L 180 323 L 176 329 L 173 329 L 176 330 L 176 333 L 177 334 L 178 333 L 178 330 L 182 327 L 185 328 L 183 331 L 183 334 L 180 336 L 178 339 L 183 334 L 187 326 L 190 323 L 189 321 L 182 323 L 178 319 L 179 316 L 182 313 L 181 310 L 186 304 L 189 304 L 189 303 L 188 303 L 183 297 Z M 328 289 L 326 293 L 329 297 L 329 300 L 332 305 L 332 309 L 330 310 L 328 308 L 321 308 L 319 307 L 318 309 L 326 314 L 329 314 L 335 320 L 330 314 L 330 312 L 335 307 L 337 307 L 336 306 L 336 296 L 338 295 L 342 299 L 341 300 L 342 302 L 341 304 L 341 308 L 343 310 L 342 313 L 343 313 L 346 308 L 348 309 L 345 316 L 347 318 L 346 320 L 347 323 L 346 325 L 347 327 L 346 331 L 350 333 L 350 339 L 352 338 L 354 340 L 353 343 L 350 343 L 351 345 L 350 348 L 351 353 L 350 354 L 351 355 L 352 354 L 351 353 L 357 348 L 360 350 L 361 349 L 359 346 L 360 338 L 361 337 L 360 336 L 357 340 L 355 338 L 355 336 L 352 335 L 352 333 L 349 328 L 349 325 L 346 320 L 348 318 L 348 316 L 346 313 L 349 307 L 342 300 L 342 297 L 340 296 L 336 291 L 336 294 L 334 296 L 334 301 L 332 303 L 329 300 L 329 296 L 330 295 L 329 293 L 333 288 L 335 289 L 335 288 Z M 311 287 L 310 290 L 312 292 L 312 295 L 314 294 L 314 291 L 312 287 Z M 156 283 L 147 289 L 147 290 L 150 292 L 150 295 L 149 297 L 139 306 L 142 310 L 137 315 L 138 321 L 134 323 L 134 325 L 131 329 L 131 330 L 134 330 L 135 331 L 138 330 L 138 329 L 133 329 L 132 327 L 136 322 L 144 321 L 143 319 L 139 319 L 137 317 L 137 315 L 140 312 L 143 311 L 145 314 L 146 314 L 147 312 L 149 311 L 154 316 L 151 321 L 153 320 L 157 320 L 159 321 L 160 319 L 159 317 L 156 315 L 158 313 L 161 315 L 161 311 L 163 309 L 166 311 L 166 315 L 164 321 L 161 324 L 161 327 L 159 329 L 156 329 L 157 332 L 151 337 L 148 338 L 148 340 L 151 342 L 154 338 L 156 340 L 156 346 L 153 349 L 156 353 L 154 355 L 152 355 L 149 351 L 147 351 L 146 352 L 148 354 L 148 356 L 142 360 L 142 362 L 144 362 L 148 358 L 150 358 L 151 361 L 147 366 L 149 367 L 152 365 L 154 367 L 156 374 L 154 376 L 152 376 L 151 375 L 151 372 L 149 370 L 143 373 L 142 371 L 145 367 L 142 366 L 140 368 L 138 366 L 137 361 L 135 362 L 131 359 L 130 360 L 131 363 L 128 367 L 129 368 L 132 368 L 132 366 L 134 364 L 138 367 L 137 370 L 133 373 L 131 372 L 130 373 L 129 377 L 131 379 L 134 378 L 133 376 L 138 370 L 141 368 L 143 369 L 141 372 L 143 375 L 143 379 L 141 380 L 139 378 L 134 384 L 134 386 L 139 383 L 140 384 L 140 387 L 142 387 L 144 384 L 143 382 L 144 380 L 146 381 L 148 381 L 150 379 L 156 379 L 158 380 L 158 374 L 155 371 L 155 362 L 154 361 L 153 362 L 151 360 L 152 357 L 154 355 L 156 355 L 157 352 L 156 341 L 160 336 L 161 325 L 163 323 L 168 313 L 166 310 L 162 307 L 162 305 L 161 306 L 157 306 L 155 303 L 150 299 L 150 295 L 154 293 L 154 289 L 153 287 L 154 286 L 156 287 L 157 286 Z M 146 373 L 149 372 L 151 374 L 151 376 L 149 378 L 147 376 Z M 141 304 L 147 299 L 154 305 L 154 308 L 151 310 L 149 309 L 146 305 L 142 305 Z M 253 284 L 248 282 L 237 294 L 231 290 L 226 296 L 228 297 L 229 295 L 233 298 L 227 304 L 227 306 L 229 306 L 234 300 L 236 302 L 238 300 L 237 301 L 234 298 L 233 295 L 230 296 L 228 294 L 230 292 L 233 292 L 237 294 L 247 283 L 251 283 L 252 285 L 250 287 L 248 287 L 240 296 Z M 232 299 L 233 301 L 230 304 L 229 302 Z M 290 280 L 290 283 L 293 283 L 298 286 L 296 280 L 293 280 L 292 281 Z M 319 277 L 318 282 L 320 283 L 321 278 Z M 268 277 L 268 280 L 267 281 L 264 281 L 259 285 L 258 287 L 258 290 L 259 291 L 260 290 L 259 288 L 261 286 L 264 286 L 267 283 L 271 284 L 270 280 Z M 261 283 L 262 282 L 265 282 L 266 284 L 265 285 L 262 285 Z M 238 276 L 229 280 L 223 287 L 218 289 L 219 291 L 221 290 L 223 292 L 225 292 L 227 290 L 225 292 L 222 290 L 224 286 L 230 280 L 235 278 L 236 279 L 229 287 Z M 213 276 L 212 275 L 207 276 L 196 286 L 198 288 L 201 288 L 206 283 L 204 284 L 201 288 L 198 286 L 199 283 L 209 275 L 212 276 L 210 279 Z M 181 276 L 178 279 L 179 282 L 176 283 L 170 276 L 170 274 L 167 275 L 167 277 L 169 277 L 171 279 L 170 282 L 174 287 L 172 289 L 169 289 L 165 285 L 165 280 L 164 279 L 161 280 L 163 282 L 161 285 L 162 284 L 164 285 L 166 288 L 165 291 L 166 295 L 164 297 L 160 297 L 162 303 L 163 302 L 165 304 L 167 304 L 168 302 L 171 300 L 171 294 L 175 288 L 179 285 L 180 283 L 179 280 Z M 336 273 L 333 272 L 331 274 L 329 274 L 327 277 L 330 278 Z M 327 276 L 329 274 L 332 276 L 330 278 Z M 274 267 L 276 268 L 281 267 L 283 269 L 285 267 L 287 267 L 288 265 L 285 264 L 285 265 L 282 267 L 281 266 L 278 266 L 277 264 L 276 264 Z M 224 263 L 221 266 L 218 265 L 213 268 L 211 268 L 211 269 L 213 269 L 215 271 L 218 271 L 219 270 L 221 272 L 221 268 L 222 265 Z M 219 266 L 221 268 L 218 271 L 216 271 L 214 269 L 216 267 Z M 325 262 L 327 263 L 332 261 L 331 260 L 327 260 Z M 265 261 L 260 262 L 259 261 L 260 259 L 257 259 L 257 262 L 252 266 L 248 266 L 243 261 L 238 262 L 240 263 L 244 263 L 246 266 L 249 267 L 250 266 L 253 266 L 256 263 L 259 265 L 263 261 Z M 249 246 L 247 247 L 247 252 L 250 248 Z M 237 246 L 236 248 L 236 253 L 237 255 L 242 259 L 241 257 L 242 254 L 241 248 Z M 206 255 L 201 252 L 197 251 L 194 248 L 196 242 L 195 242 L 193 248 L 196 251 L 192 255 L 189 252 L 190 249 L 189 247 L 187 247 L 184 249 L 182 248 L 180 250 L 176 250 L 168 257 L 169 259 L 169 263 L 167 265 L 165 265 L 167 268 L 165 270 L 162 271 L 157 277 L 156 276 L 154 279 L 156 277 L 160 278 L 159 277 L 160 273 L 168 268 L 167 265 L 169 264 L 171 261 L 175 263 L 176 262 L 173 260 L 174 256 L 172 255 L 176 250 L 180 250 L 181 249 L 186 250 L 187 248 L 189 249 L 188 251 L 190 255 L 193 255 L 195 253 L 200 254 L 202 256 L 200 258 L 196 257 L 193 259 L 192 258 L 189 259 L 187 261 L 189 263 L 193 263 L 196 266 L 197 271 L 195 273 L 192 272 L 188 266 L 185 266 L 183 269 L 182 274 L 183 269 L 185 267 L 188 266 L 190 268 L 190 270 L 188 273 L 192 272 L 193 273 L 192 276 L 194 276 L 196 273 L 198 273 L 201 277 L 204 274 L 206 274 L 206 272 L 204 271 L 203 269 L 201 270 L 196 268 L 197 267 L 200 267 L 200 265 L 203 262 L 199 263 L 198 261 L 200 259 L 204 258 Z M 168 257 L 171 255 L 173 258 L 170 260 Z M 250 236 L 248 239 L 252 244 L 253 253 L 256 253 L 256 246 L 253 244 L 251 240 L 253 237 Z M 196 239 L 197 238 L 202 239 L 205 242 L 209 241 L 213 246 L 219 246 L 221 248 L 220 250 L 221 251 L 227 249 L 228 252 L 230 254 L 230 256 L 228 258 L 223 257 L 220 258 L 220 259 L 223 259 L 225 261 L 228 258 L 229 261 L 233 257 L 236 261 L 235 258 L 232 255 L 232 249 L 234 246 L 230 249 L 227 247 L 223 251 L 221 249 L 225 245 L 227 241 L 226 240 L 223 240 L 219 246 L 214 246 L 213 244 L 216 242 L 215 241 L 213 242 L 210 241 L 205 242 L 202 239 L 203 237 L 202 235 Z M 247 234 L 242 237 L 239 241 L 240 242 L 242 241 L 246 242 L 245 237 Z M 248 225 L 245 227 L 242 227 L 239 224 L 241 221 L 239 221 L 235 226 L 233 225 L 231 226 L 227 225 L 226 228 L 227 230 L 227 234 L 229 235 L 233 230 L 233 228 L 235 227 L 236 228 L 236 235 L 237 236 L 240 233 L 248 228 Z M 295 215 L 292 219 L 292 221 L 297 218 Z M 225 211 L 222 213 L 216 213 L 212 216 L 211 219 L 213 222 L 213 224 L 207 231 L 207 233 L 210 231 L 212 231 L 213 233 L 216 233 L 218 231 L 221 230 L 218 226 L 224 221 L 225 219 L 224 219 L 218 225 L 214 227 L 213 226 L 214 224 L 214 218 L 216 216 L 221 216 L 225 213 Z M 323 204 L 322 205 L 324 209 L 327 209 Z M 319 204 L 317 202 L 313 205 L 313 207 L 315 207 Z M 196 191 L 194 191 L 192 193 L 192 197 L 193 198 L 196 197 L 198 195 Z M 373 192 L 371 194 L 367 192 L 367 189 L 365 189 L 359 185 L 358 186 L 360 189 L 364 189 L 365 190 L 363 193 L 363 200 L 365 202 L 365 205 L 360 207 L 359 214 L 357 216 L 355 214 L 355 211 L 356 210 L 355 208 L 353 208 L 349 204 L 348 201 L 346 203 L 340 201 L 340 203 L 344 205 L 341 209 L 341 212 L 340 213 L 337 211 L 334 212 L 333 211 L 333 207 L 334 205 L 328 202 L 327 204 L 331 208 L 331 209 L 329 210 L 331 213 L 330 215 L 327 213 L 323 214 L 320 212 L 320 215 L 318 217 L 316 215 L 318 212 L 316 211 L 315 217 L 317 218 L 317 220 L 314 221 L 312 218 L 313 217 L 311 217 L 312 222 L 315 221 L 317 222 L 319 220 L 323 220 L 322 217 L 324 215 L 326 215 L 331 220 L 331 221 L 328 223 L 327 222 L 325 222 L 324 224 L 320 223 L 315 227 L 318 224 L 321 226 L 318 230 L 320 231 L 322 234 L 317 239 L 315 237 L 316 236 L 315 234 L 312 237 L 313 241 L 311 243 L 310 243 L 308 240 L 304 240 L 303 242 L 297 247 L 295 247 L 291 250 L 284 252 L 279 256 L 274 257 L 272 253 L 268 260 L 271 259 L 271 258 L 273 257 L 275 260 L 273 261 L 275 261 L 275 258 L 277 256 L 280 256 L 284 252 L 289 251 L 295 247 L 299 247 L 302 244 L 305 244 L 307 241 L 309 242 L 309 245 L 311 245 L 313 242 L 316 243 L 319 241 L 320 242 L 323 242 L 328 246 L 336 246 L 344 242 L 347 242 L 350 243 L 352 245 L 357 246 L 355 244 L 352 244 L 349 240 L 336 246 L 334 246 L 331 242 L 328 246 L 323 242 L 321 242 L 320 240 L 324 237 L 328 239 L 328 237 L 330 235 L 328 234 L 331 233 L 331 231 L 333 229 L 335 229 L 336 227 L 339 228 L 341 225 L 343 225 L 344 227 L 345 227 L 345 223 L 349 220 L 349 218 L 353 213 L 355 215 L 354 216 L 354 221 L 356 222 L 360 215 L 359 211 L 360 208 L 362 206 L 365 208 L 365 210 L 366 212 L 367 212 L 367 210 L 365 209 L 367 206 L 368 208 L 369 205 L 369 199 L 367 197 L 367 194 L 369 193 L 373 196 Z M 323 234 L 324 237 L 321 239 L 320 236 Z M 334 221 L 335 222 L 335 228 L 334 229 L 332 228 L 329 230 L 326 230 L 325 229 L 325 225 L 327 223 L 330 223 L 331 221 Z M 336 218 L 338 220 L 338 223 L 336 224 L 334 221 Z M 347 206 L 352 210 L 352 212 L 350 214 L 349 219 L 344 223 L 340 223 L 338 221 L 338 217 L 343 212 L 344 207 Z M 199 178 L 196 175 L 194 176 L 194 179 L 193 180 L 189 177 L 187 180 L 187 184 L 189 184 L 192 182 L 194 179 L 198 180 Z M 197 171 L 201 171 L 204 169 L 206 172 L 205 173 L 204 172 L 201 177 L 207 181 L 213 181 L 214 182 L 213 184 L 208 184 L 209 187 L 207 190 L 209 192 L 211 192 L 213 195 L 205 203 L 203 201 L 208 194 L 207 194 L 205 197 L 200 196 L 196 202 L 199 207 L 201 205 L 202 206 L 203 211 L 204 212 L 205 211 L 207 213 L 207 215 L 209 214 L 211 210 L 211 207 L 210 206 L 207 208 L 205 206 L 208 203 L 213 204 L 216 202 L 217 203 L 217 207 L 222 208 L 223 206 L 220 204 L 218 201 L 221 198 L 225 197 L 227 199 L 226 201 L 227 202 L 230 200 L 232 200 L 233 202 L 231 204 L 232 205 L 236 204 L 239 207 L 239 209 L 237 211 L 238 213 L 240 211 L 245 210 L 248 212 L 250 211 L 251 213 L 247 215 L 248 220 L 250 220 L 256 216 L 259 218 L 251 225 L 252 227 L 256 224 L 259 226 L 261 226 L 263 228 L 263 230 L 265 230 L 266 227 L 261 225 L 259 222 L 260 220 L 263 218 L 269 223 L 269 225 L 271 224 L 272 225 L 272 230 L 269 232 L 270 235 L 269 239 L 271 240 L 272 237 L 271 235 L 272 232 L 274 233 L 276 237 L 277 236 L 277 230 L 275 229 L 273 226 L 276 223 L 277 224 L 280 224 L 283 227 L 282 230 L 284 233 L 277 240 L 277 242 L 280 242 L 281 239 L 283 238 L 284 239 L 284 242 L 282 244 L 283 245 L 286 242 L 290 242 L 294 239 L 295 239 L 296 242 L 298 243 L 299 242 L 299 238 L 302 236 L 303 233 L 302 231 L 304 229 L 306 231 L 306 233 L 308 233 L 309 229 L 311 228 L 309 225 L 309 221 L 308 220 L 305 221 L 302 218 L 299 221 L 298 224 L 295 226 L 293 226 L 293 228 L 294 228 L 295 226 L 297 227 L 297 236 L 294 239 L 291 240 L 290 239 L 292 236 L 291 231 L 289 233 L 287 231 L 287 230 L 289 228 L 290 229 L 290 228 L 286 226 L 285 224 L 286 220 L 280 219 L 277 221 L 268 214 L 266 215 L 265 218 L 263 214 L 261 216 L 258 215 L 257 216 L 254 216 L 252 214 L 252 209 L 250 210 L 247 208 L 244 210 L 240 206 L 241 204 L 238 204 L 233 200 L 230 200 L 229 197 L 231 193 L 230 192 L 225 194 L 223 193 L 225 190 L 227 190 L 227 188 L 225 188 L 222 191 L 220 190 L 222 184 L 219 186 L 217 186 L 213 190 L 210 189 L 211 187 L 210 185 L 215 183 L 215 180 L 213 178 L 214 177 L 213 174 L 207 179 L 202 175 L 204 173 L 208 172 L 206 170 L 203 169 L 201 171 Z M 299 225 L 301 226 L 301 229 L 300 230 L 298 229 L 298 226 Z M 306 223 L 308 224 L 308 227 L 309 228 L 308 231 L 306 230 L 306 227 L 305 226 Z M 217 192 L 219 193 L 219 196 L 218 197 L 216 196 L 216 193 Z M 191 146 L 192 147 L 189 150 L 188 153 L 184 158 L 184 159 L 188 159 L 191 163 L 185 168 L 185 170 L 183 173 L 191 172 L 192 171 L 188 171 L 187 169 L 193 165 L 196 167 L 200 167 L 200 164 L 199 163 L 198 164 L 194 163 L 192 160 L 189 160 L 187 158 L 186 159 L 185 158 L 189 153 L 192 154 L 197 159 L 203 156 L 200 152 L 197 152 L 196 151 L 192 152 L 191 151 L 192 148 Z M 263 140 L 264 141 L 268 141 L 265 140 L 266 138 L 278 139 L 283 142 L 287 146 L 285 147 L 286 148 L 288 148 L 288 147 L 282 141 L 278 139 L 265 138 Z M 205 144 L 209 140 L 213 138 L 217 138 L 218 137 L 223 138 L 222 137 L 215 138 L 211 134 L 208 134 L 208 135 L 211 136 L 212 138 Z M 392 130 L 392 133 L 390 135 L 390 138 L 388 140 L 385 139 L 382 139 L 381 140 L 384 144 L 380 148 L 379 148 L 378 146 L 375 146 L 373 149 L 371 150 L 372 151 L 376 149 L 378 150 L 383 147 L 389 141 L 390 136 L 392 133 Z M 216 107 L 202 122 L 202 127 L 203 126 L 202 125 L 205 123 L 204 120 L 215 110 Z M 213 81 L 211 84 L 212 86 L 211 89 L 214 92 L 213 94 L 214 97 L 220 103 L 219 99 L 213 94 L 214 91 L 212 89 L 212 86 L 215 83 L 215 82 Z" fill="#E8E8E8" fill-rule="evenodd"/><path d="M 322 451 L 320 451 L 319 453 L 320 455 L 323 453 Z M 324 415 L 320 417 L 320 418 L 314 423 L 314 424 L 318 420 L 320 421 L 315 427 L 314 426 L 313 427 L 310 427 L 307 431 L 305 431 L 308 431 L 309 432 L 308 433 L 309 436 L 307 438 L 305 435 L 304 435 L 302 437 L 302 441 L 300 443 L 298 443 L 295 441 L 283 452 L 281 456 L 283 461 L 283 467 L 287 467 L 288 468 L 288 479 L 290 481 L 288 484 L 288 488 L 289 489 L 290 488 L 293 489 L 293 507 L 294 509 L 298 513 L 300 513 L 304 516 L 308 513 L 310 516 L 315 518 L 316 516 L 318 515 L 320 519 L 321 519 L 319 517 L 320 515 L 318 514 L 315 516 L 311 512 L 312 511 L 311 509 L 308 510 L 306 514 L 304 513 L 305 508 L 302 506 L 302 504 L 303 503 L 306 503 L 307 501 L 304 497 L 305 494 L 303 490 L 306 486 L 307 474 L 310 470 L 304 466 L 301 466 L 298 462 L 293 462 L 291 460 L 291 455 L 294 452 L 297 452 L 300 456 L 300 459 L 303 457 L 306 457 L 307 456 L 305 455 L 308 454 L 307 453 L 304 454 L 301 453 L 299 451 L 299 449 L 302 446 L 305 448 L 308 446 L 308 445 L 305 445 L 302 441 L 304 439 L 306 439 L 308 441 L 310 440 L 309 433 L 315 427 L 323 421 L 323 419 L 325 417 Z M 296 503 L 301 508 L 299 511 L 294 507 L 294 505 Z M 299 492 L 301 493 L 301 496 L 302 497 L 302 501 L 300 503 L 295 497 Z M 288 486 L 290 483 L 293 484 L 291 487 Z M 305 476 L 305 480 L 303 482 L 299 484 L 294 484 L 293 483 L 294 480 L 299 475 L 302 475 L 303 474 Z M 289 469 L 292 467 L 294 470 L 291 472 Z M 297 464 L 300 467 L 296 471 L 296 476 L 295 477 L 292 473 L 294 471 L 294 465 Z M 292 448 L 293 450 L 288 455 L 286 453 L 290 448 Z M 312 402 L 311 402 L 312 407 L 305 415 L 306 421 L 308 422 L 310 418 L 310 414 L 313 411 Z M 384 405 L 381 407 L 379 407 L 377 405 L 380 401 L 379 401 L 377 405 L 374 407 L 374 408 L 376 409 L 381 408 Z M 240 398 L 239 400 L 242 404 L 242 407 L 245 409 L 243 412 L 241 411 L 241 414 L 242 415 L 242 418 L 245 420 L 246 419 L 246 414 L 244 411 L 247 408 L 245 407 L 243 404 L 244 399 L 243 398 Z M 337 395 L 336 398 L 337 399 L 340 399 L 339 396 Z M 325 385 L 321 394 L 321 400 L 323 401 L 326 397 L 326 386 Z M 206 381 L 203 382 L 200 385 L 202 387 L 206 383 Z M 144 381 L 145 384 L 142 388 L 140 388 L 146 395 L 150 396 L 150 394 L 147 391 L 145 386 L 145 384 L 147 382 Z M 344 379 L 341 383 L 345 387 L 345 390 L 343 393 L 346 396 L 345 399 L 347 401 L 347 405 L 349 408 L 355 409 L 357 411 L 358 417 L 361 420 L 361 422 L 363 419 L 364 420 L 365 419 L 362 410 L 361 409 L 358 410 L 356 408 L 352 409 L 350 407 L 352 405 L 355 405 L 355 402 L 353 400 L 350 400 L 345 395 L 346 390 L 344 384 Z M 266 377 L 266 382 L 267 383 L 272 381 L 270 378 Z M 324 368 L 323 369 L 327 375 L 327 379 L 329 380 L 330 379 L 330 374 Z M 216 360 L 215 359 L 211 361 L 208 365 L 206 365 L 204 366 L 204 367 L 206 367 L 208 365 L 212 367 L 214 362 Z M 331 357 L 330 359 L 332 361 L 334 367 L 336 369 L 340 369 L 341 368 L 339 366 L 339 364 Z M 127 346 L 129 349 L 126 352 L 125 355 L 129 358 L 127 363 L 127 368 L 128 369 L 127 372 L 128 373 L 128 377 L 130 383 L 135 390 L 135 387 L 133 386 L 133 384 L 139 377 L 142 379 L 142 375 L 140 373 L 142 369 L 138 371 L 134 376 L 135 378 L 133 380 L 131 380 L 128 377 L 128 375 L 131 371 L 133 372 L 137 369 L 137 367 L 134 365 L 132 369 L 129 369 L 127 367 L 130 363 L 129 360 L 131 358 L 135 361 L 139 359 L 140 352 L 139 352 L 139 355 L 136 358 L 132 356 L 129 356 L 127 354 L 127 352 L 131 348 L 133 348 L 136 351 L 136 350 L 133 347 L 128 347 Z M 208 345 L 207 344 L 206 347 L 203 350 L 200 346 L 195 353 L 194 358 L 199 352 L 203 350 L 204 352 L 203 353 L 202 359 L 205 360 L 206 357 L 204 355 L 204 353 Z M 191 342 L 188 342 L 184 344 L 181 343 L 180 345 L 179 345 L 178 343 L 177 344 L 180 345 L 184 350 L 185 350 Z M 188 342 L 190 344 L 187 347 L 185 344 Z M 327 340 L 327 342 L 332 348 L 333 351 L 335 348 L 338 352 L 339 351 L 338 348 L 331 341 Z M 330 342 L 331 342 L 334 346 L 333 349 L 329 345 Z M 161 331 L 161 336 L 157 341 L 158 352 L 157 355 L 154 356 L 152 360 L 153 361 L 154 360 L 156 362 L 156 371 L 159 374 L 159 380 L 158 381 L 156 380 L 150 380 L 149 381 L 150 381 L 158 390 L 162 390 L 161 382 L 160 381 L 160 374 L 156 370 L 156 360 L 159 353 L 158 350 L 158 341 L 161 339 Z M 182 328 L 179 330 L 179 333 L 177 335 L 175 332 L 174 335 L 167 344 L 167 345 L 169 346 L 169 350 L 165 358 L 165 361 L 169 357 L 172 359 L 171 363 L 169 365 L 169 378 L 173 383 L 172 385 L 173 389 L 176 390 L 174 392 L 174 395 L 179 401 L 181 400 L 182 401 L 182 411 L 180 413 L 178 413 L 172 407 L 172 406 L 170 407 L 173 414 L 172 417 L 170 419 L 172 421 L 172 424 L 169 427 L 168 430 L 172 429 L 174 431 L 173 433 L 174 436 L 170 440 L 169 445 L 166 449 L 167 450 L 170 449 L 172 451 L 172 461 L 171 462 L 172 467 L 171 470 L 172 471 L 172 480 L 175 487 L 170 490 L 167 490 L 159 494 L 167 490 L 170 490 L 173 488 L 179 487 L 181 485 L 186 489 L 187 488 L 186 486 L 187 484 L 190 485 L 193 484 L 194 486 L 191 489 L 192 491 L 196 488 L 199 492 L 200 491 L 202 494 L 206 492 L 212 496 L 215 496 L 225 507 L 225 513 L 223 514 L 221 512 L 217 515 L 220 514 L 224 515 L 226 513 L 231 512 L 236 506 L 236 493 L 235 492 L 235 488 L 238 485 L 242 488 L 242 483 L 240 479 L 242 476 L 241 472 L 242 471 L 243 461 L 242 458 L 240 456 L 240 454 L 243 453 L 245 455 L 245 460 L 248 466 L 249 465 L 249 457 L 250 455 L 247 453 L 246 454 L 241 451 L 237 452 L 235 449 L 233 449 L 230 446 L 228 446 L 226 444 L 223 443 L 219 439 L 219 437 L 222 434 L 226 434 L 232 438 L 235 438 L 240 441 L 244 441 L 246 443 L 250 442 L 252 444 L 256 444 L 257 445 L 262 444 L 263 445 L 268 445 L 270 446 L 271 445 L 274 445 L 276 443 L 280 443 L 281 442 L 288 443 L 292 441 L 302 431 L 292 440 L 290 438 L 291 435 L 294 432 L 294 430 L 292 432 L 291 432 L 290 430 L 293 428 L 293 427 L 290 430 L 290 433 L 288 435 L 284 431 L 282 433 L 278 433 L 276 432 L 269 424 L 260 417 L 257 411 L 256 412 L 256 415 L 258 417 L 258 421 L 257 422 L 257 427 L 256 429 L 258 434 L 256 436 L 254 434 L 251 434 L 250 435 L 247 434 L 244 435 L 242 434 L 239 430 L 238 432 L 235 430 L 238 428 L 234 425 L 234 422 L 233 421 L 234 418 L 233 417 L 230 417 L 229 416 L 229 413 L 221 407 L 226 401 L 232 399 L 233 396 L 228 396 L 224 401 L 221 401 L 220 410 L 222 415 L 222 419 L 220 420 L 219 418 L 217 418 L 211 422 L 210 422 L 209 420 L 210 418 L 216 413 L 216 410 L 215 409 L 210 413 L 208 418 L 206 419 L 204 417 L 203 414 L 205 411 L 205 408 L 202 409 L 200 407 L 200 401 L 199 399 L 204 395 L 207 395 L 208 396 L 207 398 L 207 404 L 208 404 L 208 400 L 210 398 L 213 400 L 214 399 L 214 395 L 211 394 L 209 391 L 206 391 L 203 394 L 200 395 L 197 391 L 197 386 L 197 392 L 199 395 L 197 398 L 195 399 L 193 397 L 194 396 L 194 392 L 192 397 L 189 397 L 188 398 L 186 397 L 184 400 L 183 400 L 182 398 L 179 399 L 177 397 L 179 391 L 177 389 L 176 381 L 181 377 L 181 370 L 179 371 L 178 375 L 172 380 L 169 377 L 169 370 L 172 369 L 173 371 L 175 372 L 177 370 L 173 367 L 172 368 L 171 367 L 171 363 L 179 354 L 180 349 L 179 352 L 173 356 L 170 354 L 169 349 L 177 340 L 177 338 L 182 334 L 182 331 L 184 329 L 184 328 Z M 234 497 L 236 498 L 236 501 L 235 502 L 236 504 L 235 505 L 233 504 L 232 499 Z M 233 490 L 234 493 L 231 497 L 230 496 L 230 493 L 231 491 Z M 219 483 L 222 485 L 223 484 L 224 486 L 222 487 L 222 493 L 225 493 L 228 496 L 231 497 L 230 499 L 228 499 L 229 501 L 228 503 L 225 501 L 220 495 L 218 491 L 218 484 Z M 233 475 L 235 477 L 235 481 L 236 482 L 237 480 L 239 479 L 240 482 L 235 486 L 234 484 L 232 483 L 231 486 L 229 488 L 230 490 L 228 491 L 227 490 L 227 481 L 226 479 L 228 477 L 231 477 Z M 186 474 L 188 476 L 187 477 L 187 482 L 184 484 L 181 481 L 184 478 Z M 220 474 L 223 472 L 225 472 L 227 475 L 224 477 L 221 476 Z M 198 471 L 200 473 L 196 478 L 194 478 L 193 477 L 194 474 Z M 214 469 L 217 468 L 219 470 L 219 472 L 217 474 L 214 471 Z M 211 467 L 213 470 L 212 472 L 209 474 L 208 471 Z M 190 467 L 192 467 L 194 469 L 194 472 L 191 475 L 189 473 L 189 468 Z M 200 463 L 201 463 L 203 466 L 207 469 L 207 474 L 212 480 L 211 482 L 208 480 L 205 483 L 204 482 L 205 478 L 203 476 L 203 472 L 199 466 Z M 233 462 L 236 460 L 238 463 L 235 465 Z M 215 454 L 217 456 L 217 462 L 215 464 L 213 462 L 213 456 Z M 235 453 L 236 454 L 236 457 L 234 458 L 233 455 Z M 229 451 L 230 451 L 233 455 L 233 457 L 230 460 L 228 458 L 228 455 L 227 454 Z M 208 451 L 210 449 L 213 452 L 211 454 Z M 196 447 L 198 449 L 198 452 L 193 456 L 193 458 L 190 462 L 184 467 L 182 465 L 184 459 L 179 463 L 177 461 L 177 458 L 175 456 L 175 454 L 177 452 L 186 448 L 187 451 L 185 453 L 187 454 L 189 452 L 192 452 L 193 449 Z M 207 446 L 208 447 L 208 451 L 206 454 L 206 458 L 204 460 L 202 458 L 202 449 L 205 446 Z M 175 448 L 177 445 L 179 445 L 181 447 L 179 449 L 176 449 Z M 192 442 L 193 444 L 188 448 L 186 445 L 188 443 Z M 199 441 L 200 443 L 196 446 L 195 444 Z M 180 436 L 181 437 L 176 442 L 176 444 L 170 448 L 168 446 L 170 441 Z M 202 436 L 205 435 L 206 437 L 203 438 Z M 213 436 L 216 433 L 219 435 L 215 438 Z M 180 436 L 182 433 L 185 434 L 185 435 L 182 437 Z M 204 431 L 205 433 L 201 436 L 199 434 L 201 432 Z M 267 430 L 268 429 L 271 429 L 275 433 L 278 433 L 280 436 L 279 437 L 273 437 L 267 432 Z M 207 430 L 208 429 L 211 431 L 213 430 L 214 432 L 212 434 L 210 434 Z M 194 426 L 196 426 L 198 428 L 197 429 L 198 431 L 196 433 L 193 431 L 193 427 Z M 217 425 L 220 428 L 216 431 L 214 428 Z M 201 425 L 203 423 L 206 425 L 204 427 Z M 258 424 L 261 422 L 264 425 L 265 428 L 262 429 Z M 187 414 L 189 416 L 187 420 L 185 422 L 183 422 L 182 419 Z M 201 410 L 203 412 L 205 419 L 208 419 L 209 420 L 207 423 L 204 422 L 202 420 L 202 418 L 200 415 L 200 411 Z M 192 411 L 195 410 L 197 412 L 197 414 L 195 416 L 193 416 L 192 415 Z M 183 410 L 185 408 L 189 412 L 186 413 Z M 175 336 L 177 338 L 174 343 L 171 343 L 170 341 L 172 340 Z M 206 317 L 203 318 L 200 324 L 203 328 L 204 327 L 203 322 Z M 204 303 L 199 304 L 198 307 L 201 307 Z M 337 296 L 337 306 L 338 307 L 335 308 L 331 312 L 331 314 L 335 319 L 333 317 L 332 311 L 335 308 L 337 308 L 342 315 L 342 317 L 345 320 L 345 323 L 346 324 L 345 322 L 346 318 L 344 316 L 347 309 L 346 309 L 343 314 L 341 313 L 342 311 L 340 308 L 340 304 L 341 303 L 340 300 L 341 299 Z M 333 289 L 330 293 L 331 294 L 330 296 L 330 300 L 332 302 L 333 301 L 333 296 L 335 294 L 335 290 Z M 179 286 L 177 287 L 172 294 L 172 300 L 170 301 L 167 305 L 165 305 L 163 303 L 162 304 L 163 307 L 164 307 L 167 311 L 167 308 L 169 306 L 169 304 L 172 301 L 172 295 Z M 251 284 L 247 284 L 237 295 L 233 293 L 230 293 L 229 294 L 230 295 L 233 294 L 237 300 L 239 296 L 245 290 L 245 289 L 248 286 L 250 286 Z M 235 279 L 230 281 L 225 286 L 223 290 L 225 291 L 228 288 L 229 285 Z M 211 276 L 209 276 L 205 280 L 202 281 L 200 283 L 199 286 L 201 287 L 202 285 L 211 277 Z M 188 267 L 184 269 L 184 272 L 180 280 L 181 283 L 180 284 L 182 282 L 184 282 L 182 280 L 184 278 L 192 274 L 192 273 L 189 274 L 187 273 L 189 270 Z M 186 269 L 187 270 L 186 272 L 187 276 L 184 278 L 183 277 L 183 273 L 184 270 Z M 228 259 L 225 262 L 222 268 L 221 276 L 224 279 L 233 272 L 233 270 L 228 273 L 225 271 L 225 265 L 228 262 Z M 210 260 L 208 259 L 201 265 L 200 268 L 197 268 L 202 269 L 203 267 L 210 261 Z M 354 215 L 353 214 L 350 218 L 350 220 L 346 223 L 346 227 L 344 228 L 343 226 L 341 226 L 339 229 L 336 228 L 335 230 L 332 231 L 332 233 L 328 240 L 324 238 L 321 240 L 321 241 L 323 241 L 328 245 L 331 241 L 334 245 L 336 245 L 349 239 L 350 241 L 353 243 L 351 241 L 352 238 L 351 235 L 347 235 L 344 237 L 343 234 L 352 224 L 355 225 L 356 223 L 353 221 L 353 216 Z M 339 234 L 340 235 L 339 238 L 340 240 L 338 243 L 335 245 L 331 239 Z M 344 228 L 346 230 L 342 234 L 340 232 L 342 229 Z M 362 207 L 361 209 L 362 209 L 366 214 L 367 213 L 365 212 L 364 208 Z M 177 245 L 180 247 L 179 249 L 182 247 L 184 248 L 187 246 L 189 246 L 191 248 L 190 252 L 192 254 L 195 251 L 192 248 L 195 239 L 201 234 L 204 236 L 203 239 L 205 241 L 207 240 L 210 240 L 211 241 L 215 240 L 217 242 L 214 244 L 214 245 L 219 245 L 223 239 L 226 239 L 228 241 L 226 245 L 222 249 L 223 250 L 227 246 L 230 248 L 234 245 L 235 246 L 233 249 L 233 255 L 236 258 L 236 260 L 237 261 L 241 261 L 243 260 L 248 265 L 252 265 L 256 262 L 256 259 L 257 258 L 260 258 L 261 259 L 260 261 L 267 260 L 272 252 L 274 254 L 274 256 L 279 255 L 282 252 L 291 249 L 295 246 L 297 246 L 301 243 L 304 239 L 308 239 L 310 242 L 312 241 L 311 237 L 315 233 L 317 235 L 316 237 L 317 238 L 321 233 L 317 230 L 320 227 L 320 226 L 318 225 L 313 231 L 310 229 L 310 231 L 308 234 L 306 234 L 304 230 L 303 231 L 304 232 L 303 236 L 300 238 L 300 242 L 298 244 L 297 244 L 295 242 L 295 240 L 294 240 L 290 243 L 286 243 L 283 246 L 281 244 L 283 242 L 283 239 L 282 239 L 282 241 L 280 243 L 277 243 L 276 242 L 276 240 L 283 233 L 281 230 L 282 227 L 280 225 L 277 225 L 276 224 L 274 226 L 274 227 L 278 230 L 278 236 L 276 238 L 274 236 L 273 233 L 272 233 L 273 237 L 272 240 L 270 241 L 268 239 L 269 237 L 268 232 L 271 230 L 271 225 L 269 226 L 268 223 L 263 219 L 261 220 L 260 222 L 261 224 L 267 227 L 267 229 L 265 231 L 263 231 L 261 227 L 259 227 L 256 225 L 252 228 L 250 225 L 258 218 L 256 217 L 254 219 L 248 221 L 246 218 L 246 215 L 248 213 L 250 213 L 250 212 L 248 213 L 245 211 L 240 212 L 238 214 L 236 212 L 238 209 L 238 207 L 236 205 L 232 206 L 230 204 L 232 201 L 230 201 L 227 203 L 225 201 L 226 199 L 224 198 L 221 199 L 219 201 L 219 202 L 224 206 L 222 209 L 217 208 L 216 207 L 216 203 L 213 205 L 208 204 L 206 206 L 208 207 L 210 205 L 212 207 L 212 210 L 208 216 L 206 215 L 205 212 L 204 213 L 202 211 L 201 206 L 199 208 L 196 204 L 196 206 L 201 216 L 201 218 L 196 223 L 197 226 L 190 232 L 191 234 L 187 237 L 184 241 L 180 242 L 177 244 Z M 265 251 L 266 254 L 263 257 L 262 256 L 262 252 Z M 249 245 L 251 248 L 247 253 L 246 252 L 246 247 Z M 237 245 L 240 246 L 242 248 L 242 251 L 243 252 L 242 255 L 243 259 L 242 260 L 240 259 L 235 253 L 235 248 Z M 231 238 L 233 239 L 233 242 L 232 243 L 230 241 Z M 250 235 L 254 237 L 252 240 L 254 244 L 257 246 L 257 253 L 256 254 L 253 254 L 252 253 L 251 244 L 247 239 Z M 261 235 L 263 233 L 265 234 L 266 236 L 263 237 Z M 247 233 L 248 234 L 246 237 L 247 242 L 246 243 L 243 242 L 240 243 L 238 240 L 242 236 Z M 192 233 L 195 232 L 196 234 L 194 236 Z M 258 230 L 259 233 L 258 236 L 256 238 L 255 237 L 255 232 Z M 199 226 L 200 229 L 198 231 L 196 231 L 195 229 Z M 200 225 L 201 224 L 203 225 L 205 228 L 204 229 L 201 228 Z M 249 225 L 249 228 L 237 237 L 235 235 L 235 228 L 234 228 L 234 230 L 229 236 L 226 234 L 226 230 L 223 229 L 226 227 L 227 224 L 229 225 L 232 224 L 235 225 L 239 220 L 242 221 L 240 223 L 242 226 L 245 226 L 247 224 Z M 201 220 L 203 219 L 204 221 L 206 221 L 208 219 L 209 222 L 205 225 Z M 228 217 L 230 215 L 233 216 L 230 219 Z M 232 210 L 233 213 L 230 215 L 229 213 L 230 211 Z M 225 210 L 226 213 L 221 217 L 216 217 L 215 218 L 215 224 L 214 226 L 218 224 L 224 218 L 226 219 L 226 220 L 219 226 L 222 230 L 216 234 L 213 234 L 212 232 L 210 232 L 207 234 L 206 231 L 212 224 L 212 222 L 210 219 L 211 216 L 216 212 L 222 212 Z M 183 174 L 183 175 L 187 173 L 188 174 L 187 179 L 189 176 L 194 180 L 194 181 L 189 185 L 186 184 L 186 181 L 186 186 L 188 185 L 191 186 L 191 198 L 193 200 L 195 199 L 196 201 L 197 198 L 200 195 L 205 196 L 206 194 L 208 193 L 209 195 L 205 199 L 204 201 L 205 202 L 212 195 L 211 193 L 209 193 L 206 190 L 208 187 L 207 184 L 208 183 L 213 183 L 213 182 L 207 182 L 200 177 L 202 173 L 204 171 L 205 172 L 204 170 L 201 172 L 193 171 L 191 173 Z M 196 190 L 199 195 L 196 198 L 193 199 L 191 197 L 191 193 L 194 190 Z M 201 188 L 204 184 L 207 186 L 204 189 Z M 192 187 L 194 184 L 197 184 L 198 185 L 197 187 L 194 188 Z M 193 176 L 196 174 L 200 179 L 198 181 L 196 181 L 193 179 Z M 311 172 L 311 175 L 313 180 L 320 185 L 325 186 L 328 189 L 337 189 L 338 188 L 340 189 L 343 186 L 343 181 L 341 177 L 334 171 L 325 168 L 316 168 Z M 188 151 L 183 158 L 183 160 L 187 160 L 188 161 L 188 163 L 185 166 L 183 171 L 184 168 L 190 163 L 188 160 L 184 160 L 183 159 L 184 156 Z M 266 139 L 266 140 L 273 141 L 281 145 L 286 146 L 278 140 Z M 205 145 L 206 150 L 209 151 L 211 155 L 215 154 L 216 156 L 219 156 L 220 157 L 222 156 L 226 156 L 232 153 L 236 148 L 233 142 L 225 138 L 223 139 L 221 138 L 213 139 L 209 141 Z M 364 120 L 362 122 L 360 122 L 358 125 L 361 128 L 361 130 L 366 137 L 368 143 L 371 144 L 375 141 L 379 136 L 379 127 L 375 122 L 371 120 Z M 367 140 L 369 138 L 372 139 L 374 141 L 370 144 Z M 377 128 L 378 131 L 375 133 L 374 131 Z M 372 121 L 374 122 L 372 125 L 375 126 L 373 130 L 370 129 L 370 126 L 369 125 Z M 362 122 L 364 120 L 366 120 L 368 123 L 366 125 L 363 124 Z M 234 78 L 232 79 L 227 79 L 222 83 L 222 85 L 220 88 L 220 91 L 224 98 L 226 98 L 229 94 L 241 88 L 240 83 Z M 233 90 L 236 87 L 238 88 L 236 91 Z M 238 85 L 240 84 L 241 87 L 239 88 Z M 232 81 L 233 82 L 233 86 L 231 89 L 228 89 L 228 92 L 226 94 L 228 96 L 225 98 L 224 95 L 221 93 L 220 88 L 222 87 L 223 89 L 224 89 L 227 85 L 227 83 L 230 81 Z" fill="#D8D8D8" fill-rule="evenodd"/><path d="M 293 508 L 294 511 L 297 514 L 304 517 L 309 517 L 314 519 L 310 517 L 308 514 L 305 517 L 300 514 L 298 514 Z M 297 465 L 295 465 L 295 471 L 293 473 L 295 476 L 295 471 L 299 467 Z M 243 454 L 241 454 L 241 456 L 243 458 L 244 461 L 243 471 L 242 472 L 243 476 L 241 479 L 242 480 L 243 478 L 243 466 L 246 464 L 244 460 L 244 455 Z M 229 452 L 228 454 L 230 459 L 232 457 L 232 455 L 231 453 Z M 225 443 L 228 445 L 230 445 L 233 448 L 235 448 L 237 451 L 241 450 L 246 453 L 247 452 L 251 455 L 250 457 L 250 462 L 251 453 L 245 451 L 242 451 L 236 448 L 233 448 L 230 445 L 228 445 Z M 192 443 L 188 444 L 187 446 L 189 447 Z M 308 432 L 303 431 L 292 442 L 288 444 L 281 443 L 280 444 L 276 444 L 274 446 L 271 446 L 270 447 L 268 446 L 263 446 L 262 445 L 257 446 L 256 445 L 252 445 L 250 443 L 246 444 L 244 442 L 241 442 L 244 442 L 246 444 L 251 444 L 257 446 L 262 445 L 263 446 L 268 446 L 269 447 L 274 446 L 276 444 L 283 443 L 285 444 L 287 447 L 280 453 L 280 457 L 282 462 L 280 457 L 282 452 L 295 440 L 298 442 L 300 442 L 301 441 L 301 437 L 304 434 L 305 434 L 307 437 L 308 436 L 307 435 Z M 187 415 L 183 419 L 183 421 L 186 420 L 188 416 Z M 201 411 L 201 415 L 203 418 L 203 420 L 207 422 L 208 420 L 205 420 L 204 419 Z M 170 404 L 169 408 L 171 414 L 172 414 L 169 408 L 171 405 L 172 405 L 178 412 L 181 411 L 179 412 L 171 404 Z M 351 407 L 352 408 L 356 407 L 358 409 L 361 408 L 363 410 L 363 412 L 363 410 L 360 408 L 356 403 L 355 406 L 352 406 Z M 347 391 L 346 392 L 346 395 L 350 399 L 353 399 L 355 401 L 347 393 Z M 197 383 L 194 386 L 194 391 L 195 392 L 195 396 L 194 397 L 195 398 L 198 396 L 196 392 L 196 386 Z M 168 366 L 168 379 L 171 382 L 171 389 L 173 392 L 173 394 L 173 392 L 175 390 L 172 389 L 171 387 L 172 383 L 168 378 Z M 339 235 L 332 239 L 335 244 L 336 244 L 339 240 L 338 239 Z M 350 227 L 344 234 L 344 236 L 347 234 L 350 234 L 348 232 L 348 229 Z M 198 212 L 198 214 L 200 216 L 196 219 L 196 222 L 195 223 L 196 225 L 192 230 L 196 226 L 195 223 L 200 218 Z M 369 139 L 368 140 L 369 142 L 371 143 L 373 141 Z M 373 122 L 370 124 L 371 129 L 373 129 L 374 126 L 373 127 L 371 125 Z M 232 82 L 228 83 L 228 85 L 224 90 L 221 88 L 222 93 L 225 95 L 225 97 L 227 96 L 225 94 L 227 92 L 227 89 L 228 88 L 231 88 L 232 86 Z" fill="#B1B1B1" fill-rule="evenodd"/><path d="M 238 170 L 238 174 L 239 176 L 246 184 L 255 189 L 261 191 L 266 191 L 267 192 L 279 191 L 285 188 L 288 185 L 287 182 L 282 187 L 277 189 L 264 189 L 263 188 L 260 188 L 249 183 L 242 176 L 240 170 L 239 169 Z M 299 151 L 299 152 L 310 151 L 314 153 L 320 160 L 322 160 L 322 157 L 320 154 L 313 148 L 307 147 L 306 148 L 303 148 Z M 247 151 L 247 158 L 249 160 L 250 163 L 253 166 L 260 170 L 271 170 L 274 168 L 278 167 L 282 163 L 282 157 L 278 153 L 268 148 L 264 148 L 263 147 L 252 147 Z M 232 133 L 232 135 L 234 135 L 243 132 L 248 134 L 253 138 L 253 135 L 248 130 L 245 129 L 237 129 Z M 318 115 L 316 118 L 321 121 L 328 128 L 330 125 L 327 120 L 322 116 Z M 262 102 L 260 100 L 258 101 L 254 101 L 249 103 L 247 106 L 250 107 L 254 105 L 260 105 Z M 228 59 L 215 65 L 207 74 L 204 81 L 203 91 L 204 92 L 204 96 L 208 103 L 208 105 L 199 114 L 195 121 L 187 127 L 186 129 L 187 133 L 177 144 L 177 147 L 180 151 L 176 156 L 175 159 L 175 163 L 178 167 L 176 170 L 176 179 L 179 183 L 180 193 L 185 198 L 185 203 L 190 211 L 190 213 L 188 216 L 188 221 L 185 223 L 184 227 L 180 231 L 180 233 L 172 240 L 169 241 L 167 243 L 167 247 L 161 254 L 161 257 L 154 263 L 153 265 L 154 269 L 145 277 L 144 282 L 139 287 L 140 293 L 138 295 L 137 298 L 132 303 L 129 309 L 129 316 L 127 319 L 126 323 L 123 327 L 122 333 L 121 334 L 121 341 L 119 344 L 119 349 L 118 350 L 119 375 L 120 376 L 120 380 L 125 391 L 133 399 L 136 401 L 142 402 L 144 404 L 154 405 L 160 403 L 162 405 L 162 409 L 163 410 L 162 427 L 160 429 L 160 435 L 163 438 L 163 441 L 159 448 L 159 453 L 160 455 L 164 458 L 164 483 L 162 485 L 160 485 L 154 488 L 149 493 L 146 500 L 146 508 L 148 513 L 152 517 L 162 521 L 167 521 L 168 522 L 176 522 L 177 523 L 205 523 L 206 522 L 223 521 L 224 520 L 228 520 L 238 516 L 242 512 L 242 510 L 244 507 L 244 498 L 247 495 L 247 493 L 249 490 L 249 476 L 255 470 L 256 464 L 259 456 L 261 454 L 269 454 L 270 453 L 273 456 L 273 460 L 274 461 L 276 472 L 280 479 L 280 491 L 281 492 L 281 495 L 284 498 L 285 509 L 287 514 L 291 518 L 301 522 L 311 523 L 312 524 L 321 524 L 322 525 L 351 525 L 352 524 L 361 524 L 362 523 L 371 522 L 378 519 L 382 515 L 383 509 L 384 508 L 383 499 L 381 495 L 375 489 L 371 487 L 368 484 L 368 460 L 372 456 L 371 445 L 368 439 L 371 436 L 372 433 L 372 418 L 374 416 L 376 417 L 389 416 L 400 411 L 410 399 L 411 393 L 412 392 L 412 388 L 414 386 L 415 380 L 417 377 L 417 360 L 412 347 L 413 345 L 413 339 L 407 326 L 407 322 L 401 310 L 398 306 L 399 299 L 393 293 L 393 288 L 389 284 L 383 276 L 382 273 L 378 269 L 381 266 L 381 264 L 371 255 L 369 250 L 364 244 L 363 239 L 360 236 L 358 232 L 361 229 L 364 223 L 366 221 L 369 221 L 373 217 L 375 212 L 375 208 L 380 202 L 380 192 L 379 190 L 383 187 L 384 182 L 381 176 L 381 166 L 378 159 L 381 156 L 389 152 L 395 146 L 399 136 L 399 127 L 398 126 L 398 123 L 396 117 L 393 112 L 386 105 L 381 103 L 379 101 L 373 100 L 372 99 L 363 99 L 362 100 L 356 101 L 353 103 L 350 103 L 336 92 L 327 89 L 323 83 L 315 77 L 311 77 L 308 79 L 302 73 L 297 70 L 291 70 L 289 72 L 288 75 L 286 75 L 281 72 L 275 72 L 271 77 L 261 77 L 259 75 L 259 73 L 257 70 L 249 63 L 239 59 Z M 227 65 L 236 64 L 245 67 L 253 75 L 255 79 L 252 82 L 253 84 L 259 83 L 262 81 L 264 82 L 269 81 L 272 83 L 280 84 L 276 79 L 278 77 L 283 78 L 291 83 L 294 83 L 293 77 L 296 75 L 311 89 L 312 88 L 312 84 L 311 83 L 314 81 L 319 87 L 320 90 L 322 91 L 325 95 L 328 95 L 334 97 L 350 111 L 352 111 L 358 106 L 361 106 L 366 104 L 373 105 L 378 108 L 381 108 L 390 118 L 392 122 L 392 128 L 394 133 L 389 144 L 382 150 L 376 151 L 375 152 L 371 152 L 372 160 L 375 164 L 375 167 L 377 171 L 374 174 L 379 182 L 378 184 L 374 184 L 372 183 L 375 192 L 375 199 L 373 200 L 371 198 L 371 205 L 368 214 L 366 216 L 362 213 L 361 214 L 361 217 L 359 219 L 359 222 L 354 227 L 351 226 L 349 229 L 349 232 L 354 236 L 353 240 L 361 247 L 361 251 L 363 254 L 373 263 L 372 265 L 369 266 L 377 274 L 376 277 L 383 284 L 388 293 L 393 298 L 392 300 L 387 298 L 386 299 L 391 304 L 396 314 L 400 318 L 398 321 L 404 330 L 404 335 L 409 341 L 405 344 L 411 359 L 410 366 L 412 369 L 412 373 L 410 374 L 407 370 L 406 371 L 407 373 L 407 386 L 406 387 L 405 395 L 402 400 L 400 402 L 398 402 L 391 409 L 389 408 L 391 402 L 390 400 L 389 400 L 380 410 L 374 410 L 372 408 L 372 407 L 374 406 L 378 401 L 379 398 L 378 395 L 376 395 L 369 403 L 364 402 L 361 398 L 365 394 L 368 388 L 366 385 L 365 385 L 358 393 L 354 390 L 352 384 L 352 375 L 351 374 L 354 357 L 353 356 L 350 357 L 348 355 L 349 353 L 348 351 L 348 335 L 345 332 L 345 327 L 342 321 L 342 319 L 338 311 L 336 309 L 333 311 L 334 316 L 337 321 L 339 331 L 343 337 L 343 341 L 342 342 L 343 354 L 344 355 L 345 361 L 347 364 L 347 367 L 346 368 L 346 379 L 345 380 L 348 393 L 356 401 L 357 404 L 364 410 L 364 413 L 366 418 L 366 420 L 364 422 L 362 422 L 362 423 L 366 428 L 367 432 L 365 434 L 362 433 L 361 434 L 361 437 L 365 443 L 368 453 L 366 455 L 365 454 L 362 454 L 363 457 L 363 461 L 362 462 L 363 465 L 363 471 L 362 472 L 362 482 L 359 487 L 372 494 L 378 502 L 376 504 L 377 511 L 374 515 L 372 513 L 372 510 L 369 505 L 366 504 L 363 506 L 366 511 L 367 515 L 362 519 L 360 518 L 358 519 L 354 519 L 350 508 L 347 506 L 344 507 L 347 516 L 347 518 L 345 520 L 318 520 L 317 519 L 313 520 L 309 518 L 304 518 L 297 515 L 293 511 L 291 506 L 291 491 L 290 490 L 288 492 L 286 491 L 286 484 L 287 483 L 287 480 L 286 479 L 286 469 L 284 470 L 282 469 L 282 463 L 280 461 L 280 458 L 279 457 L 279 453 L 283 450 L 286 446 L 283 444 L 281 444 L 280 445 L 276 445 L 274 447 L 271 447 L 270 448 L 268 447 L 263 447 L 262 446 L 257 447 L 251 445 L 246 445 L 244 443 L 241 443 L 235 441 L 233 439 L 230 439 L 226 436 L 222 436 L 221 437 L 221 439 L 224 442 L 230 444 L 233 447 L 236 447 L 239 449 L 245 450 L 252 453 L 250 466 L 249 467 L 246 465 L 244 466 L 244 478 L 242 481 L 244 487 L 242 490 L 238 487 L 237 488 L 238 504 L 236 509 L 231 514 L 225 516 L 213 517 L 212 518 L 203 518 L 201 517 L 197 519 L 195 518 L 190 518 L 188 519 L 185 518 L 183 516 L 183 512 L 185 507 L 184 506 L 181 506 L 177 511 L 177 517 L 174 518 L 173 517 L 170 517 L 168 515 L 168 510 L 170 507 L 170 504 L 166 504 L 162 510 L 162 513 L 160 514 L 157 511 L 157 508 L 159 502 L 158 501 L 156 501 L 154 503 L 152 502 L 153 499 L 158 493 L 165 490 L 167 488 L 171 488 L 172 487 L 171 480 L 170 479 L 170 452 L 169 451 L 166 452 L 164 450 L 166 448 L 166 446 L 168 443 L 168 440 L 172 432 L 170 431 L 166 433 L 165 430 L 170 424 L 168 420 L 171 416 L 168 408 L 169 404 L 171 403 L 179 411 L 181 410 L 181 407 L 173 396 L 172 392 L 170 389 L 170 382 L 167 379 L 167 366 L 169 362 L 167 361 L 164 364 L 163 363 L 163 358 L 165 356 L 167 351 L 167 348 L 164 346 L 174 332 L 173 330 L 172 331 L 168 331 L 167 328 L 177 315 L 178 312 L 175 311 L 173 309 L 175 307 L 176 304 L 180 301 L 179 298 L 182 292 L 185 289 L 185 284 L 184 283 L 181 284 L 180 287 L 177 290 L 173 297 L 174 300 L 168 310 L 170 314 L 164 323 L 164 325 L 162 328 L 162 333 L 164 337 L 160 342 L 159 345 L 160 354 L 157 361 L 157 367 L 158 370 L 162 373 L 162 384 L 164 390 L 162 392 L 158 392 L 150 383 L 148 383 L 147 384 L 147 387 L 148 390 L 153 396 L 152 398 L 148 398 L 145 396 L 138 387 L 136 387 L 136 391 L 135 392 L 130 386 L 127 379 L 126 368 L 125 367 L 126 358 L 125 358 L 123 355 L 125 350 L 125 346 L 127 344 L 127 341 L 130 339 L 130 335 L 127 333 L 128 330 L 131 327 L 131 324 L 135 319 L 134 314 L 138 311 L 138 310 L 136 309 L 136 307 L 147 294 L 147 292 L 145 292 L 143 290 L 152 282 L 153 277 L 158 272 L 164 268 L 164 267 L 161 266 L 161 264 L 167 260 L 166 257 L 172 251 L 178 248 L 178 247 L 175 247 L 174 245 L 180 240 L 184 239 L 189 234 L 188 231 L 191 230 L 195 225 L 194 224 L 195 219 L 199 216 L 197 214 L 197 211 L 195 207 L 194 201 L 191 201 L 190 200 L 190 193 L 189 192 L 190 187 L 189 186 L 186 189 L 184 187 L 185 186 L 186 175 L 183 177 L 181 175 L 181 172 L 183 170 L 183 167 L 186 163 L 186 162 L 183 162 L 181 159 L 186 151 L 189 148 L 189 147 L 184 147 L 183 145 L 192 135 L 194 135 L 196 133 L 193 132 L 192 130 L 194 128 L 199 126 L 200 122 L 205 117 L 206 114 L 208 112 L 210 112 L 210 111 L 218 104 L 218 103 L 215 101 L 211 96 L 211 93 L 209 90 L 209 84 L 211 81 L 212 77 L 216 72 L 224 66 Z" fill="#010101" fill-rule="evenodd"/></g></svg>