<svg xmlns="http://www.w3.org/2000/svg" viewBox="0 0 478 500" shape-rendering="geometricPrecision"><title>idle-open research</title><defs><clipPath id="clip-card"><rect x="0" y="0" width="478" height="500" rx="29" ry="29"/></clipPath></defs><rect width="478" height="500" rx="29" ry="29" fill="#FBFBFB"/><g clip-path="url(#clip-card)"><path d="M 111 446 L 111 448 L 113 448 L 115 452 L 120 451 L 123 453 L 125 453 L 127 455 L 125 457 L 124 461 L 127 461 L 128 459 L 134 454 L 141 456 L 142 459 L 139 462 L 140 465 L 148 465 L 151 463 L 154 463 L 154 460 L 153 459 L 154 456 L 157 458 L 161 458 L 166 464 L 169 464 L 172 460 L 174 460 L 174 457 L 172 457 L 170 459 L 168 457 L 168 452 L 166 450 L 164 450 L 162 448 L 159 449 L 157 447 L 154 448 L 148 443 L 145 443 L 144 444 L 142 442 L 137 442 L 136 441 L 129 441 L 128 442 L 124 441 L 117 444 L 113 444 Z M 213 407 L 211 410 L 209 416 L 209 419 L 207 423 L 203 427 L 203 439 L 201 445 L 198 448 L 198 454 L 199 455 L 233 455 L 234 454 L 234 450 L 232 448 L 230 443 L 230 430 L 226 425 L 226 422 L 224 418 L 224 413 L 222 407 Z M 261 397 L 259 399 L 259 401 L 260 401 L 262 404 L 264 404 L 265 397 Z M 271 387 L 272 397 L 276 401 L 278 401 L 278 389 L 277 388 Z M 265 385 L 264 392 L 265 394 L 267 394 L 268 386 Z M 204 378 L 203 379 L 203 382 L 204 383 L 207 383 L 206 378 Z M 234 376 L 229 377 L 229 380 L 230 381 L 234 381 Z M 269 359 L 267 359 L 267 366 L 265 368 L 265 370 L 268 370 L 269 368 L 272 366 L 272 364 Z M 200 359 L 200 363 L 202 369 L 205 372 L 207 372 L 207 369 L 205 366 L 205 363 L 202 359 Z M 179 359 L 179 361 L 180 361 L 184 366 L 187 367 L 187 370 L 191 375 L 193 375 L 192 367 L 191 366 L 191 355 L 188 355 L 188 358 L 189 359 L 188 360 L 186 360 L 184 358 Z M 162 353 L 163 359 L 165 359 L 165 353 Z M 292 352 L 288 354 L 286 357 L 286 360 L 283 362 L 281 362 L 279 364 L 278 367 L 278 374 L 284 379 L 282 381 L 280 379 L 276 379 L 272 383 L 272 385 L 275 385 L 276 386 L 280 386 L 282 385 L 290 395 L 292 395 L 296 392 L 298 393 L 302 393 L 305 389 L 307 389 L 309 391 L 309 394 L 304 398 L 304 401 L 301 403 L 302 407 L 305 409 L 306 411 L 305 412 L 302 412 L 301 410 L 296 406 L 296 401 L 294 399 L 290 399 L 287 397 L 285 397 L 286 401 L 284 403 L 283 403 L 282 401 L 280 401 L 280 404 L 279 405 L 276 405 L 275 410 L 277 411 L 277 413 L 275 415 L 273 413 L 273 410 L 271 409 L 266 409 L 262 406 L 260 406 L 258 411 L 254 410 L 252 412 L 252 414 L 255 414 L 256 413 L 257 414 L 257 417 L 262 418 L 262 415 L 264 413 L 268 419 L 268 424 L 267 425 L 264 423 L 262 423 L 260 425 L 260 435 L 258 437 L 259 447 L 263 447 L 263 445 L 262 445 L 261 443 L 264 440 L 267 439 L 267 435 L 268 434 L 271 435 L 271 438 L 272 439 L 271 443 L 275 443 L 276 442 L 279 443 L 276 445 L 272 445 L 269 447 L 267 450 L 264 450 L 262 452 L 260 452 L 259 457 L 265 456 L 266 458 L 271 458 L 274 456 L 276 458 L 275 462 L 278 464 L 278 466 L 281 466 L 284 463 L 286 466 L 288 466 L 290 463 L 292 464 L 292 466 L 294 466 L 295 465 L 295 462 L 293 460 L 293 457 L 295 455 L 301 455 L 302 454 L 305 457 L 305 460 L 308 462 L 309 464 L 315 465 L 315 461 L 314 459 L 308 454 L 310 452 L 315 452 L 316 453 L 319 453 L 321 455 L 323 455 L 323 453 L 325 452 L 325 450 L 323 447 L 316 443 L 310 441 L 307 437 L 310 433 L 309 430 L 309 423 L 308 422 L 311 420 L 311 418 L 308 416 L 306 413 L 307 412 L 310 412 L 312 410 L 312 408 L 310 405 L 312 403 L 315 403 L 316 402 L 314 394 L 311 391 L 311 389 L 309 387 L 309 384 L 311 382 L 315 382 L 315 380 L 311 377 L 309 377 L 307 379 L 305 379 L 303 377 L 303 375 L 308 371 L 307 363 L 299 360 L 296 357 L 296 353 L 295 352 Z M 283 435 L 284 436 L 284 441 L 282 443 L 280 441 L 281 440 L 281 436 Z M 301 438 L 296 442 L 292 441 L 287 444 L 285 442 L 289 439 L 289 436 L 293 432 L 295 434 L 295 435 L 293 436 L 293 438 L 295 438 L 296 435 L 299 436 Z M 273 421 L 275 422 L 274 429 L 276 431 L 278 436 L 278 438 L 276 440 L 274 439 L 274 433 L 271 431 L 271 426 Z M 292 425 L 294 423 L 294 418 L 295 417 L 299 417 L 302 418 L 304 420 L 304 423 L 303 424 L 297 424 L 295 427 Z M 284 411 L 285 412 L 288 412 L 290 414 L 290 416 L 286 420 L 284 419 L 282 414 Z M 282 404 L 283 407 L 280 409 L 279 408 L 280 405 Z M 289 385 L 290 384 L 293 384 L 297 388 L 294 390 Z M 205 346 L 205 351 L 207 351 L 208 348 L 207 346 Z M 138 335 L 138 338 L 136 340 L 136 342 L 142 342 L 143 338 L 142 338 L 140 335 Z M 102 319 L 102 321 L 104 324 L 107 325 L 106 321 L 104 319 Z M 136 314 L 135 317 L 135 330 L 136 332 L 140 332 L 140 330 L 143 327 L 143 322 L 140 321 L 141 316 L 138 314 Z M 102 310 L 100 310 L 96 314 L 92 314 L 92 316 L 98 317 L 102 312 Z M 287 307 L 287 309 L 292 314 L 294 314 L 293 309 Z M 134 307 L 131 307 L 125 313 L 125 315 L 128 315 L 128 314 L 134 309 Z M 300 267 L 299 272 L 302 273 L 304 271 L 304 269 L 302 267 Z M 116 266 L 112 267 L 113 271 L 115 271 Z M 169 265 L 164 265 L 159 270 L 158 273 L 159 278 L 156 280 L 156 282 L 159 284 L 157 287 L 157 289 L 160 288 L 165 289 L 167 287 L 170 286 L 170 281 L 164 276 L 165 274 L 164 270 L 167 267 L 169 267 Z M 92 263 L 90 266 L 90 268 L 95 269 L 98 272 L 97 273 L 88 274 L 86 277 L 86 279 L 90 279 L 91 281 L 87 284 L 87 287 L 90 287 L 91 290 L 94 291 L 94 294 L 96 295 L 96 297 L 95 298 L 91 296 L 91 293 L 89 293 L 89 300 L 93 301 L 95 303 L 94 305 L 94 309 L 96 309 L 98 307 L 97 302 L 99 300 L 104 305 L 107 305 L 107 303 L 104 300 L 107 297 L 107 294 L 104 295 L 101 293 L 98 293 L 97 294 L 96 292 L 98 291 L 98 289 L 96 287 L 93 288 L 90 287 L 94 283 L 95 285 L 97 285 L 99 283 L 101 283 L 102 285 L 104 285 L 104 283 L 101 282 L 103 280 L 109 280 L 111 278 L 112 274 L 108 272 L 106 272 L 103 274 L 101 272 L 103 268 L 103 265 L 97 267 L 94 263 Z M 97 253 L 97 255 L 98 255 L 100 258 L 102 259 L 107 259 L 107 257 L 103 255 L 100 252 Z M 107 239 L 107 243 L 108 244 L 106 246 L 103 246 L 103 251 L 106 252 L 109 256 L 112 256 L 112 251 L 110 249 L 112 247 L 117 247 L 117 245 L 115 243 L 115 241 L 112 239 Z M 119 233 L 119 237 L 121 239 L 124 239 L 124 237 L 121 233 Z M 142 216 L 143 221 L 144 222 L 147 222 L 146 217 L 145 216 Z M 138 203 L 132 201 L 129 204 L 126 204 L 126 206 L 129 208 L 128 209 L 128 212 L 129 212 L 130 214 L 128 216 L 123 215 L 123 216 L 121 217 L 121 220 L 119 222 L 114 223 L 112 225 L 112 228 L 108 230 L 108 232 L 110 235 L 113 235 L 112 230 L 113 229 L 117 229 L 117 226 L 118 225 L 122 225 L 126 230 L 128 230 L 129 228 L 132 227 L 132 222 L 134 220 L 134 218 L 133 218 L 132 216 L 134 214 L 137 214 L 137 212 L 139 210 L 141 210 L 141 208 L 139 207 L 139 204 Z M 150 192 L 150 195 L 148 197 L 148 200 L 150 202 L 153 202 L 154 203 L 156 203 L 156 201 L 158 200 L 159 201 L 158 205 L 161 204 L 166 210 L 163 212 L 161 215 L 157 217 L 156 219 L 156 222 L 157 222 L 159 225 L 164 225 L 166 227 L 164 230 L 159 233 L 157 237 L 153 241 L 147 240 L 146 239 L 146 235 L 147 233 L 153 231 L 153 229 L 150 227 L 147 227 L 146 228 L 140 228 L 138 230 L 138 232 L 140 233 L 142 236 L 140 238 L 139 244 L 136 247 L 136 249 L 141 253 L 143 253 L 147 246 L 149 247 L 158 246 L 159 247 L 159 254 L 153 260 L 149 261 L 148 264 L 146 266 L 144 266 L 138 261 L 139 258 L 137 258 L 134 261 L 135 264 L 134 266 L 131 268 L 131 270 L 133 272 L 141 271 L 143 274 L 140 277 L 136 285 L 132 289 L 132 291 L 136 292 L 138 289 L 140 289 L 146 294 L 143 296 L 143 298 L 146 300 L 148 300 L 149 297 L 152 295 L 152 293 L 150 292 L 151 290 L 150 286 L 148 286 L 146 289 L 144 288 L 144 286 L 147 283 L 148 278 L 146 278 L 144 276 L 146 274 L 150 274 L 152 269 L 160 262 L 168 261 L 171 259 L 173 259 L 175 262 L 179 261 L 183 264 L 181 266 L 177 266 L 172 268 L 173 274 L 175 274 L 179 271 L 186 271 L 189 272 L 192 270 L 196 270 L 199 272 L 201 272 L 203 277 L 196 282 L 196 285 L 198 285 L 201 282 L 203 282 L 204 284 L 196 290 L 196 295 L 190 299 L 189 298 L 186 298 L 183 295 L 183 291 L 181 288 L 182 287 L 185 287 L 186 288 L 187 294 L 189 294 L 193 288 L 193 284 L 192 283 L 193 282 L 193 279 L 196 278 L 196 276 L 193 276 L 193 278 L 191 279 L 188 283 L 184 280 L 177 280 L 174 279 L 174 284 L 177 287 L 178 292 L 180 295 L 177 298 L 174 296 L 174 294 L 172 294 L 169 298 L 167 297 L 167 295 L 162 295 L 158 302 L 158 307 L 162 307 L 164 309 L 166 309 L 170 306 L 176 306 L 179 305 L 180 306 L 180 311 L 183 311 L 186 306 L 186 304 L 189 303 L 191 305 L 191 307 L 194 309 L 194 312 L 196 312 L 198 310 L 199 300 L 201 298 L 201 295 L 203 293 L 204 294 L 204 298 L 203 299 L 204 305 L 202 307 L 203 314 L 201 315 L 201 317 L 203 320 L 207 323 L 210 322 L 210 320 L 207 318 L 207 314 L 209 313 L 211 316 L 213 316 L 216 319 L 217 323 L 221 327 L 224 327 L 224 323 L 222 321 L 220 321 L 217 317 L 217 315 L 220 313 L 223 316 L 223 319 L 226 321 L 226 323 L 228 326 L 231 328 L 233 331 L 236 331 L 237 332 L 237 334 L 234 337 L 229 337 L 227 339 L 227 342 L 226 343 L 227 348 L 231 348 L 233 350 L 233 351 L 231 352 L 232 357 L 229 360 L 225 355 L 224 352 L 221 351 L 224 350 L 224 346 L 222 342 L 222 338 L 215 337 L 214 336 L 215 331 L 213 330 L 212 328 L 209 328 L 207 330 L 204 330 L 203 333 L 201 335 L 199 333 L 199 330 L 197 330 L 194 332 L 193 331 L 195 327 L 195 324 L 192 320 L 193 318 L 196 316 L 196 314 L 192 315 L 186 313 L 178 319 L 177 318 L 178 311 L 176 309 L 174 309 L 169 312 L 169 316 L 172 317 L 172 319 L 169 322 L 167 319 L 165 319 L 163 322 L 155 321 L 151 318 L 153 316 L 153 314 L 150 314 L 146 319 L 146 321 L 149 324 L 147 330 L 151 330 L 152 332 L 158 330 L 161 333 L 164 334 L 160 338 L 157 338 L 157 340 L 162 340 L 163 343 L 166 343 L 167 344 L 167 353 L 169 353 L 172 351 L 173 342 L 170 343 L 167 342 L 167 338 L 171 334 L 174 334 L 175 336 L 184 344 L 191 345 L 191 344 L 193 343 L 194 346 L 199 351 L 202 351 L 202 349 L 197 345 L 197 342 L 199 340 L 201 340 L 202 337 L 205 337 L 206 336 L 212 344 L 214 345 L 215 348 L 214 350 L 211 350 L 211 352 L 209 354 L 206 353 L 206 357 L 211 361 L 213 367 L 217 366 L 219 363 L 219 361 L 215 359 L 215 352 L 217 351 L 222 355 L 222 360 L 224 364 L 222 366 L 222 369 L 220 371 L 220 373 L 224 376 L 226 376 L 226 371 L 225 369 L 228 367 L 233 371 L 236 371 L 237 370 L 239 372 L 239 375 L 242 377 L 245 376 L 247 378 L 247 381 L 250 381 L 251 380 L 252 381 L 259 380 L 259 377 L 258 376 L 251 377 L 248 374 L 243 375 L 241 373 L 241 369 L 238 369 L 235 366 L 235 364 L 233 361 L 234 359 L 237 358 L 237 355 L 239 354 L 240 355 L 240 359 L 243 362 L 243 364 L 246 365 L 246 362 L 243 356 L 250 349 L 252 352 L 251 353 L 251 357 L 249 359 L 249 362 L 253 368 L 254 373 L 256 373 L 256 370 L 254 367 L 254 365 L 257 362 L 257 360 L 260 359 L 260 348 L 257 343 L 257 337 L 256 335 L 254 335 L 252 333 L 252 330 L 248 326 L 249 321 L 247 319 L 247 316 L 250 313 L 251 313 L 255 318 L 252 322 L 252 325 L 255 329 L 257 329 L 256 326 L 258 324 L 262 328 L 261 331 L 258 333 L 258 335 L 268 345 L 270 345 L 273 341 L 273 334 L 274 333 L 276 333 L 279 337 L 279 351 L 277 353 L 271 355 L 271 357 L 275 361 L 275 363 L 277 363 L 277 359 L 279 355 L 285 351 L 285 347 L 288 343 L 291 346 L 293 346 L 293 343 L 295 341 L 295 339 L 290 332 L 292 330 L 294 330 L 295 327 L 291 323 L 285 320 L 281 311 L 279 309 L 282 306 L 284 306 L 284 304 L 282 302 L 282 300 L 278 296 L 276 291 L 278 288 L 280 288 L 283 291 L 286 291 L 286 288 L 288 287 L 288 285 L 283 281 L 284 279 L 286 279 L 285 276 L 286 275 L 286 272 L 281 267 L 278 267 L 276 265 L 271 263 L 268 260 L 270 257 L 272 258 L 279 258 L 281 260 L 283 260 L 283 258 L 281 256 L 279 250 L 276 250 L 274 254 L 271 253 L 270 250 L 273 247 L 276 247 L 276 245 L 274 245 L 271 243 L 268 243 L 265 248 L 262 246 L 262 244 L 260 241 L 260 237 L 257 235 L 259 233 L 263 234 L 268 240 L 272 239 L 276 242 L 278 242 L 278 241 L 282 238 L 287 238 L 288 240 L 290 240 L 290 239 L 292 238 L 293 239 L 293 243 L 291 244 L 291 246 L 293 246 L 296 242 L 299 244 L 299 246 L 296 248 L 296 252 L 301 258 L 299 264 L 301 264 L 302 262 L 305 262 L 307 264 L 306 266 L 306 270 L 308 270 L 310 267 L 314 270 L 316 270 L 317 267 L 321 267 L 322 268 L 319 272 L 316 272 L 317 275 L 316 279 L 317 280 L 314 283 L 312 281 L 313 279 L 313 276 L 312 275 L 310 275 L 307 278 L 305 278 L 303 275 L 301 275 L 304 285 L 307 285 L 308 287 L 316 285 L 319 288 L 318 290 L 317 289 L 313 289 L 312 297 L 314 300 L 312 302 L 308 302 L 306 303 L 306 305 L 311 310 L 311 312 L 308 315 L 308 317 L 312 316 L 314 318 L 313 322 L 310 324 L 310 327 L 308 329 L 308 331 L 312 330 L 314 332 L 314 334 L 319 334 L 320 332 L 322 331 L 324 333 L 324 334 L 321 336 L 321 338 L 323 340 L 325 340 L 326 338 L 326 334 L 327 333 L 329 334 L 329 337 L 331 338 L 333 338 L 333 335 L 335 333 L 337 333 L 340 335 L 339 337 L 340 340 L 338 342 L 338 345 L 342 345 L 347 339 L 349 339 L 350 336 L 356 336 L 357 330 L 356 329 L 356 323 L 355 321 L 357 319 L 359 319 L 359 317 L 357 315 L 360 313 L 360 310 L 358 306 L 358 302 L 354 297 L 354 293 L 356 292 L 355 288 L 349 288 L 347 286 L 348 284 L 353 283 L 353 281 L 346 272 L 347 271 L 347 267 L 340 264 L 340 263 L 342 262 L 342 259 L 339 255 L 337 255 L 335 252 L 331 252 L 328 249 L 330 246 L 332 247 L 337 247 L 337 245 L 331 243 L 332 241 L 334 241 L 334 239 L 331 235 L 326 231 L 325 226 L 324 226 L 317 218 L 317 216 L 319 215 L 319 213 L 318 211 L 308 202 L 309 199 L 299 195 L 292 196 L 291 198 L 284 198 L 283 199 L 280 199 L 278 197 L 271 194 L 265 195 L 261 199 L 260 199 L 259 197 L 254 196 L 253 198 L 250 200 L 246 200 L 244 202 L 235 205 L 231 209 L 227 209 L 227 213 L 226 214 L 222 212 L 215 213 L 213 216 L 214 220 L 212 225 L 210 224 L 209 216 L 207 216 L 205 218 L 198 219 L 195 216 L 192 216 L 189 214 L 187 214 L 185 212 L 183 212 L 178 218 L 179 221 L 181 221 L 183 219 L 186 219 L 188 221 L 188 222 L 183 226 L 183 228 L 192 225 L 195 227 L 193 229 L 191 229 L 183 236 L 182 241 L 185 243 L 189 244 L 197 235 L 198 232 L 200 232 L 202 234 L 204 234 L 206 237 L 208 237 L 214 232 L 217 231 L 220 227 L 222 228 L 223 233 L 224 234 L 227 234 L 229 237 L 226 243 L 224 242 L 223 239 L 221 237 L 212 238 L 212 242 L 210 244 L 208 240 L 200 240 L 197 244 L 192 248 L 192 250 L 190 251 L 190 253 L 192 253 L 193 251 L 195 252 L 192 258 L 189 258 L 188 257 L 188 254 L 184 254 L 180 259 L 177 256 L 178 254 L 181 252 L 181 250 L 178 250 L 176 248 L 176 245 L 171 246 L 169 244 L 166 243 L 167 240 L 174 238 L 178 234 L 178 232 L 175 232 L 171 229 L 171 224 L 167 224 L 165 222 L 162 222 L 161 221 L 162 219 L 169 215 L 174 215 L 174 213 L 171 213 L 169 210 L 171 208 L 179 208 L 179 204 L 178 203 L 173 204 L 171 202 L 171 199 L 170 198 L 164 198 L 162 196 L 162 194 L 156 194 L 154 192 Z M 214 341 L 216 340 L 218 343 L 215 345 L 214 344 Z M 239 333 L 240 332 L 246 337 L 244 339 L 240 340 L 239 339 Z M 174 329 L 172 331 L 170 331 L 167 334 L 164 334 L 163 333 L 166 330 L 172 327 Z M 180 323 L 184 326 L 184 330 L 185 331 L 184 333 L 185 338 L 184 339 L 182 338 L 182 336 L 179 335 L 178 325 Z M 173 320 L 175 319 L 176 322 L 174 323 Z M 233 320 L 235 317 L 238 317 L 239 318 L 236 322 Z M 275 316 L 280 320 L 283 325 L 283 333 L 282 334 L 276 332 L 277 327 L 273 321 L 273 318 Z M 264 309 L 266 311 L 266 314 L 267 315 L 266 316 L 266 319 L 261 321 L 259 318 L 261 314 L 261 311 Z M 207 305 L 209 306 L 209 309 L 208 310 L 206 309 L 206 306 Z M 241 305 L 243 304 L 245 307 L 243 308 Z M 325 302 L 328 305 L 327 313 L 324 316 L 316 314 L 314 312 L 315 310 L 318 307 L 320 307 L 321 309 L 323 309 L 323 303 Z M 251 296 L 253 298 L 253 301 L 260 307 L 256 313 L 251 309 L 250 304 L 247 301 Z M 254 294 L 257 293 L 259 295 L 258 296 L 255 296 Z M 327 291 L 329 294 L 329 297 L 330 298 L 329 300 L 326 298 L 326 295 L 325 294 Z M 264 291 L 266 293 L 264 297 L 262 298 L 261 297 L 261 294 Z M 234 291 L 236 290 L 239 294 L 242 294 L 242 291 L 245 290 L 246 292 L 244 293 L 245 296 L 243 298 L 242 297 L 238 297 L 234 293 Z M 212 293 L 215 293 L 216 290 L 218 290 L 221 293 L 220 295 L 221 301 L 223 302 L 225 305 L 229 305 L 233 310 L 231 312 L 229 312 L 225 309 L 223 309 L 220 311 L 217 308 L 217 302 L 210 302 L 209 301 L 209 297 Z M 261 286 L 262 289 L 260 291 L 258 288 Z M 234 278 L 236 282 L 233 285 L 231 282 L 232 279 Z M 264 279 L 268 276 L 270 278 L 270 280 L 273 280 L 275 282 L 273 285 L 271 285 L 270 283 L 267 283 Z M 320 276 L 322 274 L 324 275 L 325 277 L 322 278 Z M 238 264 L 241 265 L 240 269 L 242 272 L 245 272 L 247 274 L 250 275 L 248 278 L 244 278 L 245 281 L 243 283 L 239 279 L 238 275 L 235 276 L 233 275 L 233 270 L 235 268 L 238 269 L 237 266 Z M 204 265 L 206 264 L 208 267 L 206 268 Z M 186 268 L 186 265 L 188 263 L 192 263 L 193 264 L 188 269 Z M 253 261 L 260 268 L 260 270 L 262 272 L 260 274 L 256 269 L 254 269 L 254 274 L 253 275 L 250 274 L 250 268 L 252 267 L 251 263 Z M 230 262 L 233 261 L 235 263 L 235 265 L 231 267 L 230 266 Z M 213 261 L 218 266 L 218 274 L 215 276 L 211 281 L 211 284 L 205 292 L 204 291 L 204 288 L 207 284 L 208 276 L 213 272 L 213 269 L 212 269 L 210 266 L 210 264 Z M 243 262 L 247 259 L 249 260 L 249 263 L 248 264 L 245 264 Z M 192 258 L 195 257 L 197 260 L 194 262 L 192 260 Z M 226 256 L 227 257 L 227 262 L 228 263 L 228 266 L 226 268 L 226 270 L 229 270 L 230 273 L 228 275 L 225 274 L 225 275 L 223 276 L 222 275 L 223 263 L 219 258 L 220 257 Z M 249 255 L 252 254 L 253 257 L 250 258 Z M 211 251 L 213 250 L 214 253 L 212 254 Z M 233 251 L 235 249 L 238 249 L 241 253 L 238 255 L 235 254 Z M 224 252 L 227 249 L 230 251 L 229 254 L 225 254 Z M 299 247 L 302 246 L 304 248 L 304 251 L 302 252 L 299 249 Z M 309 246 L 311 245 L 313 248 L 310 249 Z M 214 244 L 215 243 L 218 247 L 215 248 L 214 247 Z M 158 245 L 160 243 L 166 243 L 170 250 L 169 251 L 163 251 L 161 249 L 161 247 L 159 247 Z M 296 236 L 299 234 L 302 236 L 302 238 L 299 239 Z M 289 232 L 291 230 L 293 231 L 292 234 Z M 270 226 L 274 229 L 273 231 L 273 235 L 272 236 L 270 236 L 268 234 L 268 228 Z M 235 228 L 237 226 L 239 226 L 241 229 L 243 230 L 247 230 L 250 233 L 250 235 L 254 238 L 254 241 L 253 242 L 245 236 L 242 236 L 240 234 L 240 231 L 237 231 Z M 207 227 L 210 226 L 211 229 L 209 231 L 207 229 Z M 294 222 L 293 224 L 282 230 L 279 230 L 277 228 L 278 226 L 282 223 L 290 222 L 291 221 Z M 222 226 L 222 219 L 224 217 L 226 217 L 226 214 L 228 213 L 231 217 L 235 217 L 238 214 L 240 216 L 240 219 L 236 222 L 228 221 L 227 225 L 225 227 Z M 245 212 L 248 214 L 248 216 L 246 218 L 243 215 Z M 290 213 L 292 211 L 295 211 L 296 213 L 293 215 Z M 274 218 L 275 216 L 275 211 L 276 210 L 283 210 L 284 211 L 281 215 L 277 216 L 276 219 Z M 261 211 L 264 210 L 265 212 L 263 214 Z M 248 212 L 250 210 L 252 211 L 251 214 L 249 214 Z M 272 208 L 274 207 L 276 210 L 274 211 Z M 297 204 L 300 203 L 302 205 L 301 206 L 298 206 Z M 244 182 L 244 186 L 247 187 L 247 182 Z M 285 174 L 283 174 L 280 177 L 278 177 L 278 180 L 285 179 Z M 301 161 L 297 160 L 295 163 L 295 165 L 291 168 L 291 172 L 292 173 L 296 173 L 300 170 Z M 168 27 L 165 31 L 165 33 L 168 33 L 169 34 L 169 37 L 166 40 L 167 47 L 171 47 L 170 39 L 174 32 L 177 29 L 182 29 L 185 27 L 194 36 L 195 39 L 191 43 L 186 45 L 179 51 L 173 50 L 173 56 L 171 57 L 158 71 L 158 74 L 156 78 L 153 80 L 152 85 L 149 88 L 144 90 L 142 93 L 142 96 L 145 98 L 144 102 L 147 102 L 148 101 L 153 103 L 152 107 L 154 108 L 150 112 L 147 112 L 147 114 L 150 114 L 151 113 L 154 117 L 152 120 L 149 120 L 149 122 L 152 122 L 153 120 L 158 121 L 160 123 L 159 125 L 157 125 L 157 128 L 158 129 L 160 129 L 163 125 L 166 127 L 165 129 L 166 135 L 163 136 L 163 140 L 169 138 L 170 139 L 171 146 L 177 152 L 183 160 L 190 165 L 192 165 L 194 167 L 197 168 L 202 172 L 206 172 L 209 174 L 213 174 L 217 176 L 224 176 L 225 177 L 233 177 L 234 176 L 237 176 L 243 178 L 248 174 L 250 174 L 251 172 L 254 172 L 255 171 L 256 172 L 259 171 L 263 177 L 268 176 L 268 174 L 264 175 L 262 172 L 262 170 L 268 163 L 272 163 L 274 165 L 279 164 L 279 162 L 275 162 L 271 157 L 268 156 L 269 154 L 271 155 L 277 155 L 277 151 L 275 151 L 274 149 L 278 146 L 278 141 L 271 139 L 262 131 L 261 129 L 261 123 L 266 118 L 268 118 L 268 116 L 265 115 L 262 117 L 259 117 L 255 114 L 253 110 L 253 104 L 250 100 L 250 96 L 246 94 L 246 92 L 249 89 L 252 91 L 252 94 L 253 95 L 257 95 L 260 93 L 265 93 L 269 99 L 269 112 L 271 114 L 271 116 L 285 121 L 295 129 L 295 131 L 297 134 L 296 138 L 290 143 L 282 143 L 282 145 L 284 147 L 287 148 L 286 150 L 281 151 L 282 154 L 286 154 L 287 155 L 286 161 L 290 161 L 290 153 L 294 148 L 296 149 L 296 152 L 299 151 L 299 148 L 297 147 L 298 145 L 299 146 L 302 145 L 305 148 L 302 151 L 302 154 L 303 156 L 307 158 L 308 161 L 310 161 L 310 159 L 313 156 L 315 156 L 313 145 L 309 140 L 308 137 L 310 135 L 313 138 L 318 139 L 321 143 L 323 143 L 323 138 L 321 137 L 321 133 L 322 132 L 326 133 L 326 130 L 323 125 L 324 124 L 324 116 L 320 112 L 321 111 L 321 107 L 319 104 L 321 102 L 323 102 L 325 96 L 320 97 L 318 95 L 316 90 L 313 86 L 310 84 L 310 80 L 308 77 L 308 75 L 315 70 L 323 70 L 329 74 L 333 81 L 332 83 L 332 89 L 339 90 L 339 88 L 342 85 L 342 80 L 340 78 L 340 73 L 338 71 L 337 68 L 332 63 L 328 62 L 325 59 L 317 58 L 314 61 L 309 60 L 305 65 L 298 65 L 295 62 L 294 58 L 290 55 L 288 55 L 280 49 L 275 49 L 270 44 L 270 42 L 268 39 L 266 39 L 266 44 L 263 45 L 257 39 L 257 37 L 252 34 L 250 31 L 248 31 L 248 35 L 249 36 L 248 39 L 243 38 L 238 34 L 235 34 L 235 38 L 234 39 L 232 39 L 229 37 L 223 37 L 222 36 L 218 36 L 217 37 L 214 36 L 209 38 L 204 38 L 202 36 L 202 33 L 203 32 L 202 27 L 198 23 L 192 20 L 181 19 L 178 21 L 175 21 Z M 306 130 L 309 129 L 310 132 L 308 133 Z M 312 123 L 313 122 L 316 122 L 317 124 L 314 125 Z M 186 125 L 189 122 L 192 122 L 194 124 L 194 127 L 196 132 L 200 137 L 206 141 L 208 141 L 211 143 L 214 143 L 217 145 L 229 146 L 230 145 L 237 144 L 240 142 L 244 137 L 248 140 L 248 143 L 243 148 L 228 153 L 226 152 L 219 152 L 218 151 L 210 150 L 207 148 L 205 148 L 203 146 L 200 146 L 199 144 L 192 138 L 187 129 Z M 288 117 L 290 115 L 292 116 L 291 119 Z M 311 116 L 310 118 L 308 118 L 306 120 L 303 119 L 299 122 L 296 122 L 294 120 L 297 114 L 299 114 L 302 117 L 305 117 L 307 116 L 308 113 Z M 273 110 L 274 109 L 277 109 L 278 111 L 277 112 L 274 112 Z M 308 107 L 309 110 L 308 112 L 306 113 L 304 110 Z M 290 104 L 293 102 L 294 103 L 297 103 L 298 106 L 296 108 Z M 196 104 L 200 98 L 206 96 L 221 97 L 231 103 L 234 107 L 236 113 L 235 116 L 230 121 L 228 121 L 226 124 L 218 124 L 213 126 L 209 126 L 206 122 L 200 122 L 195 117 Z M 213 91 L 217 88 L 228 89 L 236 93 L 241 98 L 241 100 L 240 101 L 237 101 L 235 99 L 231 98 L 228 96 L 225 96 L 221 94 L 215 94 Z M 255 77 L 256 78 L 255 81 L 253 82 L 252 79 Z M 167 76 L 170 75 L 171 77 L 168 78 Z M 208 81 L 207 89 L 201 96 L 196 97 L 192 93 L 192 90 L 187 90 L 186 93 L 189 97 L 189 101 L 183 108 L 175 109 L 172 113 L 170 112 L 169 109 L 165 109 L 160 107 L 156 103 L 154 99 L 155 96 L 160 91 L 162 91 L 162 89 L 159 87 L 160 85 L 164 86 L 165 88 L 179 88 L 182 91 L 184 91 L 184 87 L 179 83 L 180 80 L 187 79 L 191 82 L 193 82 L 195 78 L 199 74 L 203 74 L 206 77 Z M 166 71 L 168 69 L 171 71 L 169 73 Z M 265 68 L 268 65 L 274 65 L 284 74 L 284 78 L 281 81 L 279 81 L 273 76 L 268 74 L 265 71 Z M 214 50 L 216 52 L 217 55 L 213 59 L 206 60 L 204 64 L 201 62 L 199 62 L 196 59 L 196 56 L 199 53 L 204 52 L 207 50 Z M 19 2 L 5 17 L 0 31 L 0 467 L 1 468 L 1 471 L 4 471 L 8 474 L 7 475 L 4 475 L 4 480 L 8 486 L 17 494 L 31 499 L 446 499 L 447 498 L 450 498 L 456 496 L 463 492 L 472 482 L 477 468 L 477 31 L 476 30 L 476 27 L 474 21 L 470 14 L 460 5 L 446 0 L 29 0 L 28 1 L 22 1 Z M 35 474 L 36 473 L 39 473 L 40 475 L 39 476 L 36 476 Z M 56 463 L 59 462 L 61 464 L 58 466 Z M 37 464 L 40 462 L 42 465 L 39 466 Z M 15 462 L 18 465 L 18 467 L 23 474 L 21 476 L 18 473 L 12 473 L 10 471 L 12 469 L 16 470 L 16 468 L 12 466 Z M 53 461 L 54 462 L 54 466 L 55 467 L 55 471 L 56 473 L 52 476 L 51 474 L 53 473 L 53 470 L 51 467 Z M 33 459 L 35 461 L 35 464 L 34 465 L 31 464 L 31 469 L 28 470 L 27 469 L 28 467 L 27 464 L 29 462 L 31 462 Z M 172 12 L 177 11 L 180 9 L 191 9 L 197 11 L 200 14 L 206 17 L 214 27 L 221 27 L 226 22 L 232 22 L 236 24 L 239 24 L 242 20 L 248 20 L 255 24 L 259 28 L 262 27 L 267 27 L 269 28 L 279 39 L 281 39 L 289 43 L 301 52 L 305 52 L 311 49 L 324 49 L 325 50 L 329 50 L 336 54 L 347 65 L 350 71 L 352 77 L 352 89 L 347 99 L 340 106 L 333 110 L 333 115 L 335 120 L 335 128 L 337 132 L 337 138 L 333 141 L 334 151 L 332 157 L 329 160 L 329 163 L 326 169 L 320 175 L 318 175 L 316 177 L 315 180 L 312 183 L 312 185 L 317 191 L 317 195 L 323 202 L 324 206 L 334 214 L 333 221 L 335 223 L 339 231 L 346 240 L 346 244 L 352 250 L 353 253 L 352 258 L 360 272 L 360 276 L 363 282 L 364 287 L 366 290 L 366 301 L 367 302 L 368 308 L 370 311 L 370 328 L 367 332 L 367 337 L 365 340 L 365 344 L 363 350 L 358 358 L 352 364 L 341 369 L 325 370 L 325 384 L 324 387 L 322 389 L 322 392 L 325 401 L 325 408 L 321 412 L 321 421 L 322 422 L 321 424 L 321 434 L 324 437 L 327 438 L 333 444 L 337 452 L 337 458 L 338 459 L 349 460 L 350 461 L 356 461 L 357 462 L 363 462 L 364 463 L 368 463 L 372 465 L 375 465 L 378 468 L 378 470 L 372 474 L 365 475 L 364 476 L 360 476 L 359 477 L 344 478 L 343 479 L 331 479 L 330 480 L 319 480 L 318 481 L 301 481 L 300 482 L 271 482 L 270 483 L 176 483 L 175 482 L 149 482 L 148 481 L 127 481 L 126 480 L 114 480 L 113 479 L 102 479 L 101 478 L 83 477 L 82 476 L 77 476 L 69 473 L 67 473 L 65 476 L 59 474 L 60 472 L 62 472 L 62 467 L 67 463 L 70 463 L 73 461 L 78 462 L 79 461 L 85 461 L 90 459 L 95 459 L 96 458 L 96 451 L 100 442 L 107 436 L 114 433 L 114 426 L 113 425 L 113 415 L 114 414 L 114 410 L 109 404 L 109 399 L 112 393 L 112 389 L 110 387 L 111 372 L 113 367 L 112 357 L 106 357 L 103 358 L 102 357 L 97 357 L 94 355 L 88 354 L 83 351 L 77 345 L 73 338 L 73 336 L 70 331 L 70 328 L 69 327 L 69 320 L 68 319 L 68 301 L 69 300 L 69 295 L 71 293 L 71 287 L 72 286 L 73 278 L 77 273 L 77 270 L 79 267 L 79 260 L 82 254 L 87 249 L 88 246 L 90 244 L 89 237 L 94 233 L 94 230 L 96 227 L 103 221 L 103 215 L 105 212 L 110 208 L 113 202 L 117 199 L 117 195 L 118 193 L 130 184 L 130 182 L 133 179 L 134 175 L 138 171 L 138 167 L 140 165 L 140 163 L 136 158 L 134 150 L 130 145 L 129 142 L 129 136 L 126 131 L 126 128 L 125 127 L 126 121 L 127 120 L 127 118 L 125 115 L 125 110 L 128 105 L 127 95 L 136 85 L 136 80 L 146 71 L 150 64 L 157 57 L 157 54 L 154 49 L 154 46 L 153 45 L 153 35 L 157 25 L 167 15 Z" fill="#FBFBFB" fill-rule="evenodd"/><path d="M 1 472 L 3 478 L 3 475 L 4 474 L 7 474 L 4 472 Z M 65 465 L 63 467 L 63 472 L 60 473 L 60 474 L 65 475 L 66 472 L 63 470 L 63 467 Z M 15 463 L 13 466 L 15 466 L 17 468 L 17 470 L 16 471 L 13 470 L 11 471 L 12 472 L 18 472 L 21 475 L 22 474 Z M 123 460 L 123 464 L 126 465 L 128 461 L 127 462 L 124 462 Z M 33 460 L 31 463 L 28 464 L 29 465 L 28 469 L 30 469 L 30 464 L 31 463 L 34 464 L 34 461 Z M 299 456 L 304 460 L 305 465 L 307 468 L 309 468 L 311 466 L 313 467 L 316 466 L 316 464 L 315 466 L 309 465 L 308 463 L 304 460 L 304 457 L 302 455 Z M 257 455 L 257 458 L 258 459 L 261 459 L 262 458 L 265 460 L 265 465 L 266 466 L 268 466 L 270 464 L 272 466 L 272 468 L 282 468 L 283 465 L 285 466 L 285 468 L 288 467 L 290 468 L 296 468 L 296 466 L 292 467 L 291 464 L 290 464 L 288 467 L 286 467 L 284 464 L 281 467 L 278 467 L 277 464 L 274 462 L 275 459 L 274 457 L 271 459 L 266 459 L 265 457 L 259 458 L 258 455 Z M 324 453 L 324 455 L 322 456 L 324 460 L 327 461 L 327 459 L 324 455 L 325 453 Z M 309 454 L 313 457 L 314 454 L 319 454 L 316 454 L 315 453 L 310 453 Z M 109 447 L 109 450 L 111 450 L 113 452 L 113 456 L 115 456 L 118 453 L 122 453 L 125 456 L 124 458 L 126 455 L 120 452 L 115 453 L 113 449 L 110 448 L 111 445 Z M 134 455 L 136 455 L 138 457 L 138 466 L 149 466 L 152 465 L 155 467 L 158 467 L 156 466 L 157 463 L 159 463 L 160 466 L 164 464 L 165 465 L 170 465 L 172 462 L 175 462 L 175 457 L 170 453 L 166 448 L 163 448 L 161 446 L 158 445 L 153 446 L 149 442 L 146 442 L 148 442 L 154 447 L 157 446 L 159 448 L 162 447 L 164 449 L 166 449 L 169 452 L 169 457 L 170 458 L 172 456 L 174 456 L 175 457 L 175 460 L 172 461 L 169 465 L 166 465 L 161 459 L 157 459 L 154 457 L 155 460 L 155 463 L 154 464 L 151 464 L 148 466 L 140 466 L 138 464 L 138 462 L 141 459 L 141 457 Z M 132 438 L 132 440 L 142 441 L 144 443 L 142 440 L 138 441 L 136 439 Z M 278 443 L 271 444 L 270 443 L 271 440 L 270 435 L 268 435 L 268 439 L 262 443 L 262 444 L 264 445 L 263 448 L 259 448 L 258 447 L 257 439 L 257 448 L 259 449 L 259 453 L 260 451 L 262 451 L 264 449 L 267 449 L 268 447 L 272 444 L 276 444 Z M 300 438 L 296 436 L 296 438 L 293 439 L 292 438 L 292 436 L 294 435 L 293 433 L 290 436 L 290 439 L 286 442 L 287 443 L 292 440 L 296 441 Z M 255 427 L 251 427 L 248 429 L 248 432 L 254 432 L 255 431 Z M 250 429 L 252 427 L 254 427 L 255 428 L 255 431 L 254 432 L 251 432 Z M 273 422 L 272 431 L 275 433 L 275 439 L 276 439 L 277 436 L 275 431 L 273 429 L 273 425 L 274 424 L 274 422 Z M 142 420 L 142 424 L 144 424 L 145 423 L 145 420 Z M 293 425 L 295 426 L 297 423 L 303 423 L 303 420 L 299 418 L 295 418 L 295 423 Z M 264 414 L 263 415 L 263 418 L 260 419 L 263 421 L 260 424 L 262 422 L 264 422 L 267 424 L 267 419 L 266 420 L 264 419 L 264 418 L 266 417 Z M 307 413 L 307 414 L 312 418 L 312 420 L 309 422 L 310 423 L 310 430 L 311 431 L 311 433 L 309 435 L 311 433 L 311 427 L 310 424 L 312 422 L 312 418 L 311 416 L 309 415 L 309 413 Z M 284 412 L 283 414 L 285 419 L 286 419 L 289 416 L 289 414 Z M 245 405 L 244 406 L 244 410 L 246 412 L 249 412 L 252 416 L 255 416 L 256 417 L 256 414 L 255 415 L 252 415 L 251 412 L 254 409 L 258 410 L 258 409 L 254 409 L 252 411 L 247 405 Z M 129 404 L 128 407 L 131 409 L 131 411 L 133 411 L 136 409 L 137 410 L 136 414 L 138 414 L 141 412 L 142 405 L 140 405 L 138 408 L 135 406 L 137 403 L 137 401 L 135 401 Z M 290 385 L 294 389 L 296 388 L 293 385 Z M 221 382 L 221 384 L 223 386 L 225 386 L 225 383 Z M 252 400 L 252 402 L 255 403 L 258 403 L 259 402 L 261 405 L 264 407 L 273 409 L 275 414 L 276 413 L 276 411 L 274 410 L 275 405 L 276 404 L 279 404 L 279 401 L 280 400 L 282 400 L 283 402 L 285 401 L 284 397 L 287 396 L 290 398 L 294 398 L 297 401 L 297 406 L 300 408 L 302 411 L 305 411 L 305 410 L 301 407 L 300 403 L 303 401 L 303 398 L 308 394 L 308 391 L 305 390 L 302 394 L 298 394 L 296 393 L 294 395 L 290 396 L 282 386 L 280 387 L 272 386 L 271 383 L 276 378 L 280 378 L 282 380 L 283 379 L 277 374 L 277 369 L 276 372 L 272 376 L 269 377 L 269 379 L 272 379 L 273 378 L 274 380 L 271 383 L 262 384 L 263 387 L 263 394 L 260 397 L 261 396 L 265 396 L 266 397 L 265 403 L 266 399 L 269 397 L 272 400 L 274 400 L 276 402 L 275 403 L 275 406 L 273 408 L 271 408 L 269 405 L 266 406 L 262 405 L 261 403 L 256 399 L 253 399 Z M 271 386 L 277 387 L 279 390 L 281 391 L 281 392 L 279 393 L 279 401 L 278 402 L 276 402 L 271 397 L 271 393 L 270 392 L 270 387 Z M 265 384 L 267 384 L 269 386 L 269 390 L 267 395 L 265 395 L 263 392 L 263 389 Z M 301 360 L 306 361 L 308 363 L 308 367 L 309 368 L 309 371 L 304 375 L 304 377 L 305 378 L 307 378 L 309 376 L 312 377 L 310 373 L 310 370 L 307 361 L 303 361 Z M 304 376 L 306 374 L 309 375 L 309 376 L 306 378 Z M 216 352 L 216 353 L 219 354 L 221 356 L 221 359 L 219 360 L 216 356 L 216 359 L 218 359 L 220 361 L 220 363 L 217 367 L 215 368 L 212 367 L 212 366 L 214 370 L 216 370 L 220 374 L 225 377 L 227 379 L 228 382 L 236 382 L 238 384 L 240 384 L 240 381 L 242 379 L 245 378 L 246 379 L 246 383 L 244 385 L 244 387 L 246 387 L 252 382 L 251 381 L 250 382 L 247 382 L 246 381 L 246 378 L 245 377 L 244 378 L 240 377 L 238 375 L 238 372 L 237 371 L 236 372 L 233 372 L 228 368 L 226 369 L 227 371 L 227 376 L 226 377 L 224 377 L 220 374 L 219 371 L 221 369 L 221 366 L 223 363 L 221 360 L 221 355 Z M 228 377 L 234 375 L 235 376 L 235 381 L 234 382 L 230 382 L 228 380 Z M 227 371 L 230 370 L 233 374 L 231 376 L 229 376 L 227 374 Z M 153 349 L 153 358 L 156 358 L 158 360 L 157 363 L 157 369 L 159 369 L 161 364 L 167 359 L 169 361 L 169 364 L 164 368 L 164 370 L 167 370 L 169 368 L 173 369 L 170 360 L 171 353 L 173 351 L 175 351 L 180 345 L 184 345 L 186 346 L 187 348 L 184 351 L 185 354 L 182 356 L 181 354 L 179 354 L 178 356 L 176 357 L 176 360 L 178 361 L 178 359 L 181 357 L 184 357 L 186 359 L 188 359 L 187 358 L 187 355 L 188 354 L 191 354 L 192 355 L 192 362 L 191 349 L 194 347 L 197 351 L 201 354 L 198 356 L 199 359 L 198 363 L 200 368 L 195 372 L 193 370 L 193 367 L 192 366 L 193 367 L 194 375 L 191 376 L 186 370 L 187 375 L 190 375 L 191 376 L 192 381 L 194 384 L 197 384 L 198 383 L 201 384 L 208 384 L 208 382 L 207 384 L 204 384 L 202 382 L 202 379 L 204 377 L 206 377 L 207 380 L 208 368 L 206 366 L 206 363 L 208 361 L 211 364 L 210 361 L 205 357 L 205 353 L 206 352 L 209 353 L 211 349 L 214 349 L 213 345 L 211 344 L 206 337 L 205 338 L 202 338 L 202 340 L 198 342 L 198 345 L 203 349 L 202 352 L 199 352 L 193 346 L 193 344 L 192 344 L 191 346 L 188 346 L 182 344 L 174 336 L 174 335 L 171 335 L 168 338 L 170 336 L 172 336 L 173 338 L 175 338 L 177 340 L 175 342 L 174 341 L 168 341 L 168 342 L 171 341 L 174 342 L 173 351 L 169 354 L 166 353 L 166 347 L 166 351 L 165 352 L 161 352 L 161 356 L 160 357 L 158 355 L 158 352 L 157 351 L 158 347 L 156 347 Z M 199 374 L 201 372 L 203 372 L 205 375 L 204 376 L 201 376 Z M 200 358 L 202 358 L 206 363 L 206 366 L 208 369 L 208 372 L 207 373 L 205 373 L 200 367 L 200 364 L 199 363 L 199 359 Z M 153 355 L 156 354 L 157 357 L 154 358 Z M 162 352 L 165 352 L 166 353 L 166 359 L 165 360 L 162 359 L 162 356 L 161 355 Z M 205 345 L 207 345 L 209 348 L 209 350 L 207 352 L 204 351 L 204 346 Z M 208 340 L 211 343 L 210 346 L 207 344 L 207 341 Z M 357 333 L 357 336 L 356 337 L 350 337 L 350 339 L 347 340 L 342 346 L 338 346 L 337 345 L 337 342 L 339 340 L 338 339 L 339 335 L 335 334 L 334 335 L 334 338 L 331 339 L 328 337 L 328 334 L 327 334 L 327 338 L 325 341 L 323 341 L 321 339 L 322 341 L 319 344 L 319 347 L 317 349 L 317 351 L 321 351 L 321 349 L 325 345 L 331 343 L 333 345 L 333 348 L 330 357 L 334 357 L 336 353 L 341 348 L 343 350 L 344 354 L 346 354 L 348 350 L 352 350 L 355 344 L 353 344 L 352 341 L 355 340 L 355 338 L 357 336 Z M 345 346 L 348 345 L 349 348 L 346 349 Z M 240 333 L 240 339 L 244 338 L 245 337 Z M 173 329 L 172 328 L 166 331 L 163 334 L 161 334 L 157 331 L 159 332 L 159 334 L 155 338 L 150 337 L 150 343 L 151 344 L 155 344 L 158 341 L 161 341 L 162 344 L 165 344 L 166 345 L 166 344 L 163 344 L 162 341 L 157 341 L 156 338 L 157 337 L 160 337 L 164 333 L 167 333 L 170 330 Z M 96 326 L 96 330 L 98 332 L 100 332 L 99 327 Z M 180 324 L 179 325 L 180 335 L 182 335 L 183 338 L 184 338 L 183 335 L 184 332 L 183 330 L 183 326 Z M 181 327 L 183 330 L 183 333 L 182 334 L 180 333 L 179 330 Z M 82 324 L 81 328 L 82 329 L 85 329 L 87 326 L 87 324 Z M 122 323 L 122 329 L 125 329 L 129 326 L 129 324 Z M 122 325 L 125 324 L 126 327 L 123 328 Z M 275 317 L 274 318 L 274 321 L 276 318 L 282 325 L 282 331 L 281 332 L 277 331 L 277 332 L 282 333 L 282 325 L 279 320 Z M 248 316 L 248 319 L 250 321 L 249 326 L 253 330 L 253 333 L 257 335 L 259 345 L 259 342 L 262 341 L 267 347 L 264 348 L 264 350 L 266 353 L 266 362 L 263 365 L 260 374 L 258 375 L 257 373 L 256 374 L 253 373 L 252 368 L 248 362 L 248 359 L 250 357 L 250 353 L 251 352 L 250 350 L 244 356 L 247 362 L 247 365 L 246 366 L 244 366 L 242 364 L 242 362 L 239 359 L 239 355 L 238 355 L 238 358 L 236 360 L 234 360 L 236 364 L 236 366 L 238 368 L 241 368 L 242 369 L 242 373 L 243 374 L 248 373 L 251 376 L 258 375 L 260 377 L 260 379 L 261 377 L 264 377 L 263 374 L 265 372 L 269 371 L 274 365 L 277 365 L 278 366 L 278 364 L 281 361 L 285 360 L 285 357 L 289 352 L 291 352 L 288 353 L 286 351 L 288 345 L 294 350 L 293 351 L 295 351 L 297 353 L 297 357 L 299 359 L 297 357 L 297 351 L 296 350 L 296 347 L 294 345 L 296 339 L 291 333 L 293 331 L 292 331 L 291 333 L 296 339 L 296 341 L 294 343 L 294 346 L 291 347 L 288 344 L 286 347 L 286 351 L 283 354 L 280 355 L 278 359 L 278 363 L 275 364 L 274 361 L 270 357 L 270 355 L 272 353 L 275 353 L 278 351 L 278 345 L 278 349 L 275 353 L 273 353 L 271 351 L 271 345 L 273 342 L 270 346 L 268 346 L 257 335 L 257 333 L 260 331 L 261 328 L 258 325 L 257 326 L 258 329 L 255 330 L 251 325 L 251 322 L 254 318 L 251 314 Z M 242 367 L 243 366 L 248 366 L 249 365 L 252 368 L 252 372 L 254 374 L 252 376 L 248 373 L 246 370 L 243 370 Z M 240 361 L 242 363 L 242 365 L 238 368 L 236 365 Z M 267 358 L 269 358 L 271 360 L 273 366 L 271 367 L 268 371 L 265 371 L 264 368 L 266 366 L 266 359 Z M 281 359 L 282 356 L 285 358 L 283 360 Z M 247 354 L 248 356 L 246 359 L 244 356 Z M 264 310 L 262 311 L 262 314 L 260 318 L 261 320 L 262 319 L 265 319 L 265 316 L 266 315 Z M 327 305 L 324 303 L 324 309 L 321 310 L 320 308 L 318 308 L 315 312 L 324 315 L 326 313 Z M 283 301 L 285 304 L 285 306 L 282 307 L 280 309 L 283 307 L 292 315 L 293 320 L 290 322 L 295 326 L 294 325 L 295 322 L 295 319 L 294 318 L 295 316 L 295 312 L 295 314 L 292 315 L 286 309 L 287 306 L 293 308 L 292 306 L 287 306 Z M 81 302 L 81 306 L 89 307 L 89 304 L 85 301 L 82 301 Z M 251 297 L 248 301 L 251 304 L 252 309 L 256 312 L 259 307 L 252 301 L 252 298 Z M 128 295 L 125 296 L 125 301 L 123 304 L 123 306 L 129 304 L 129 302 L 131 300 L 131 297 Z M 235 291 L 235 293 L 238 296 L 242 296 L 243 297 L 244 296 L 243 293 L 245 292 L 245 291 L 243 291 L 243 294 L 242 295 L 239 295 L 237 292 Z M 210 297 L 210 301 L 217 301 L 218 302 L 218 308 L 220 310 L 223 308 L 225 308 L 229 311 L 232 310 L 229 306 L 225 306 L 224 304 L 220 301 L 220 298 L 219 297 L 220 293 L 218 291 L 216 291 L 215 294 L 212 294 Z M 212 295 L 215 294 L 216 295 L 216 298 L 213 299 L 212 298 Z M 354 287 L 352 285 L 353 284 L 348 285 L 349 287 Z M 265 279 L 267 282 L 270 282 L 271 284 L 273 284 L 274 282 L 273 281 L 270 281 L 268 277 Z M 287 273 L 286 276 L 287 279 L 284 280 L 284 281 L 289 285 L 289 287 L 287 288 L 287 291 L 286 292 L 283 292 L 280 289 L 278 289 L 277 291 L 278 290 L 282 291 L 285 293 L 290 299 L 292 299 L 291 293 L 289 293 L 287 291 L 289 289 L 291 289 L 291 287 L 287 282 Z M 238 265 L 239 269 L 238 270 L 235 269 L 234 270 L 234 275 L 238 274 L 240 279 L 243 282 L 244 281 L 243 278 L 244 277 L 248 277 L 249 275 L 247 275 L 245 273 L 242 273 L 239 269 L 240 265 Z M 192 264 L 188 264 L 187 265 L 187 268 Z M 90 264 L 89 265 L 89 270 L 90 272 L 86 274 L 86 276 L 84 279 L 84 281 L 86 281 L 87 283 L 90 281 L 90 280 L 86 280 L 85 279 L 86 275 L 88 273 L 97 272 L 95 270 L 92 270 L 89 268 Z M 298 263 L 297 267 L 299 269 L 300 266 L 302 266 L 305 269 L 305 271 L 302 274 L 300 274 L 298 271 L 298 279 L 301 280 L 300 282 L 301 290 L 305 290 L 306 291 L 306 293 L 304 295 L 301 294 L 302 297 L 301 302 L 302 305 L 305 305 L 307 307 L 307 311 L 308 313 L 307 314 L 306 325 L 308 328 L 306 330 L 306 335 L 308 337 L 308 339 L 311 339 L 316 335 L 314 335 L 312 331 L 310 332 L 307 331 L 307 329 L 309 327 L 309 324 L 312 322 L 313 318 L 312 317 L 310 318 L 307 317 L 307 315 L 310 312 L 310 310 L 305 305 L 305 303 L 308 301 L 312 301 L 313 300 L 311 297 L 312 289 L 313 288 L 317 288 L 318 289 L 318 288 L 316 286 L 310 288 L 308 288 L 307 286 L 304 286 L 302 283 L 302 280 L 300 277 L 300 275 L 303 274 L 305 277 L 307 277 L 310 274 L 312 274 L 314 276 L 314 279 L 313 280 L 314 282 L 316 280 L 315 279 L 316 276 L 315 272 L 316 271 L 319 271 L 321 268 L 317 268 L 316 271 L 314 271 L 310 268 L 308 271 L 306 271 L 305 270 L 305 266 L 306 264 L 305 263 L 302 263 L 301 265 L 299 265 Z M 253 262 L 252 263 L 253 267 L 251 268 L 251 274 L 253 274 L 253 269 L 254 268 L 256 268 L 260 273 L 261 272 L 259 270 L 259 268 Z M 231 262 L 231 266 L 234 265 L 234 263 Z M 213 262 L 211 264 L 211 266 L 212 268 L 214 269 L 214 272 L 209 276 L 209 281 L 207 286 L 205 288 L 205 291 L 207 287 L 210 284 L 210 281 L 213 277 L 217 274 L 217 266 Z M 209 276 L 211 274 L 213 275 L 212 278 L 210 278 Z M 214 271 L 216 270 L 217 273 L 215 274 Z M 226 257 L 220 258 L 224 263 L 223 275 L 224 275 L 225 273 L 228 274 L 229 273 L 229 271 L 226 271 L 225 270 L 225 268 L 227 266 Z M 234 251 L 235 253 L 238 254 L 240 253 L 238 250 L 235 250 Z M 335 240 L 335 241 L 332 242 L 332 243 L 337 244 L 338 247 L 337 248 L 332 248 L 330 247 L 329 249 L 331 251 L 335 251 L 336 253 L 339 254 L 341 257 L 335 250 L 337 248 L 339 248 L 339 246 L 336 243 Z M 258 235 L 261 237 L 261 241 L 264 247 L 265 247 L 266 244 L 268 242 L 271 242 L 277 245 L 277 247 L 276 248 L 273 248 L 271 251 L 272 253 L 274 253 L 276 249 L 279 249 L 282 254 L 282 256 L 284 258 L 284 260 L 281 261 L 279 259 L 272 259 L 270 258 L 269 260 L 278 266 L 281 266 L 286 271 L 285 269 L 279 264 L 280 261 L 283 261 L 284 259 L 287 257 L 287 254 L 284 255 L 280 251 L 281 243 L 285 239 L 290 247 L 293 250 L 294 255 L 292 257 L 292 259 L 294 261 L 300 259 L 298 255 L 295 252 L 295 248 L 298 246 L 298 244 L 296 243 L 293 247 L 290 246 L 290 244 L 292 243 L 292 239 L 291 239 L 290 241 L 288 241 L 287 239 L 282 239 L 279 241 L 278 243 L 276 243 L 272 240 L 268 241 L 266 238 L 261 234 Z M 228 236 L 227 235 L 224 235 L 221 231 L 221 228 L 220 228 L 217 232 L 214 233 L 208 238 L 206 238 L 204 235 L 204 236 L 202 238 L 200 238 L 192 247 L 195 245 L 200 239 L 208 239 L 210 241 L 210 243 L 212 237 L 221 236 L 224 239 L 225 242 L 226 242 Z M 219 234 L 217 237 L 213 237 L 212 236 L 214 233 L 217 232 Z M 270 227 L 269 228 L 269 234 L 272 235 L 272 231 L 273 229 Z M 236 228 L 237 230 L 240 230 L 241 231 L 241 234 L 242 235 L 245 235 L 253 241 L 253 238 L 249 235 L 249 233 L 247 231 L 243 231 L 241 230 L 239 227 Z M 293 222 L 282 224 L 280 225 L 278 228 L 279 229 L 282 229 L 293 223 Z M 279 227 L 282 226 L 283 228 L 280 229 Z M 214 213 L 212 215 L 208 214 L 206 216 L 202 217 L 205 217 L 207 215 L 209 215 L 211 219 L 211 224 L 212 224 L 212 221 L 213 220 L 212 216 Z M 273 208 L 273 209 L 276 211 L 276 216 L 275 218 L 276 218 L 277 215 L 281 214 L 283 212 L 283 211 L 276 211 L 275 209 Z M 234 205 L 232 207 L 228 207 L 224 211 L 223 209 L 221 209 L 218 212 L 216 212 L 222 211 L 227 214 L 227 217 L 223 219 L 223 226 L 226 225 L 226 223 L 228 220 L 236 221 L 239 219 L 239 216 L 238 215 L 235 218 L 231 218 L 228 214 L 226 213 L 226 209 L 227 208 L 231 208 Z M 131 201 L 126 203 L 120 208 L 121 214 L 118 216 L 119 220 L 117 222 L 114 222 L 111 226 L 107 229 L 107 231 L 109 228 L 111 228 L 111 225 L 114 222 L 117 222 L 120 220 L 120 217 L 122 216 L 123 214 L 126 215 L 129 214 L 129 213 L 127 212 L 127 209 L 128 208 L 125 206 L 125 204 L 126 203 L 129 203 Z M 189 200 L 189 205 L 191 207 L 193 207 L 193 201 L 192 200 Z M 174 193 L 174 195 L 172 198 L 168 197 L 170 197 L 172 199 L 172 202 L 173 203 L 178 202 L 180 204 L 180 208 L 179 209 L 171 209 L 170 211 L 171 212 L 174 212 L 175 215 L 174 216 L 169 216 L 162 220 L 162 221 L 165 221 L 167 223 L 171 223 L 172 224 L 172 229 L 175 231 L 178 231 L 179 234 L 174 239 L 167 241 L 166 244 L 160 244 L 158 247 L 153 247 L 152 248 L 147 247 L 147 249 L 143 254 L 141 254 L 135 249 L 135 247 L 138 243 L 135 246 L 135 250 L 136 252 L 130 256 L 130 258 L 133 258 L 134 259 L 132 261 L 131 267 L 122 278 L 122 280 L 129 280 L 131 277 L 137 279 L 135 285 L 130 290 L 129 289 L 126 289 L 126 291 L 127 291 L 128 293 L 133 293 L 134 294 L 140 293 L 141 292 L 144 293 L 144 294 L 137 301 L 133 300 L 132 305 L 130 307 L 131 306 L 134 306 L 135 309 L 131 312 L 128 316 L 125 316 L 124 314 L 124 317 L 127 318 L 129 321 L 132 320 L 134 324 L 134 328 L 132 330 L 132 332 L 134 334 L 130 337 L 130 339 L 132 341 L 133 344 L 132 347 L 144 347 L 144 336 L 146 335 L 149 331 L 151 332 L 151 334 L 153 334 L 155 332 L 152 333 L 151 331 L 147 331 L 146 329 L 145 330 L 142 329 L 146 324 L 148 325 L 145 321 L 145 319 L 150 313 L 153 313 L 154 314 L 154 316 L 152 318 L 155 320 L 163 321 L 165 318 L 167 318 L 169 321 L 171 319 L 171 317 L 168 316 L 168 312 L 172 309 L 176 308 L 179 311 L 178 318 L 186 312 L 192 314 L 194 313 L 197 314 L 197 316 L 195 317 L 193 320 L 196 324 L 196 327 L 194 331 L 197 329 L 199 329 L 201 334 L 204 329 L 207 329 L 209 327 L 212 327 L 213 329 L 216 331 L 215 336 L 219 336 L 223 338 L 223 342 L 225 346 L 225 350 L 222 351 L 225 352 L 229 359 L 231 357 L 230 352 L 232 351 L 232 350 L 226 348 L 225 345 L 226 339 L 229 336 L 234 336 L 236 334 L 236 332 L 233 332 L 232 330 L 227 326 L 225 323 L 225 321 L 222 319 L 222 316 L 220 314 L 218 315 L 218 317 L 220 320 L 222 320 L 225 323 L 225 327 L 224 328 L 221 328 L 216 323 L 215 319 L 213 317 L 211 317 L 209 314 L 208 314 L 208 318 L 211 320 L 211 322 L 209 324 L 207 324 L 202 320 L 200 317 L 200 315 L 202 314 L 201 307 L 203 305 L 203 302 L 202 301 L 203 294 L 202 295 L 202 298 L 200 300 L 199 310 L 196 313 L 193 312 L 193 309 L 190 307 L 189 304 L 187 304 L 187 306 L 183 312 L 180 312 L 179 311 L 179 306 L 176 307 L 170 307 L 166 310 L 164 310 L 162 308 L 158 308 L 157 307 L 157 302 L 159 299 L 157 302 L 157 307 L 160 308 L 161 311 L 164 311 L 167 309 L 169 311 L 166 314 L 166 317 L 164 319 L 158 319 L 156 320 L 154 318 L 156 315 L 159 314 L 159 312 L 155 312 L 153 310 L 153 305 L 150 305 L 148 308 L 146 309 L 145 308 L 146 305 L 143 306 L 141 304 L 141 302 L 143 300 L 145 303 L 147 303 L 152 297 L 155 297 L 161 292 L 168 288 L 175 289 L 176 291 L 175 292 L 172 292 L 171 294 L 162 294 L 160 297 L 162 294 L 167 294 L 168 297 L 169 297 L 172 293 L 174 293 L 176 297 L 179 295 L 177 292 L 176 287 L 173 284 L 173 281 L 173 283 L 171 284 L 171 286 L 165 290 L 162 289 L 157 290 L 156 289 L 156 287 L 158 284 L 155 282 L 155 280 L 158 278 L 157 273 L 158 270 L 164 264 L 169 264 L 170 265 L 170 267 L 167 268 L 165 270 L 166 272 L 165 276 L 171 281 L 171 278 L 166 276 L 169 272 L 171 273 L 174 278 L 177 279 L 184 279 L 187 282 L 192 278 L 193 275 L 196 275 L 197 276 L 197 278 L 194 279 L 194 282 L 193 283 L 194 284 L 194 288 L 192 291 L 195 292 L 193 295 L 192 295 L 191 293 L 189 295 L 187 295 L 185 291 L 185 288 L 182 288 L 184 291 L 184 295 L 186 297 L 189 297 L 190 298 L 195 295 L 195 290 L 203 284 L 203 283 L 201 283 L 198 286 L 195 285 L 195 282 L 198 279 L 202 277 L 201 276 L 201 273 L 199 273 L 196 271 L 192 271 L 189 273 L 186 272 L 179 272 L 175 275 L 173 275 L 172 274 L 171 268 L 174 266 L 181 265 L 182 264 L 179 262 L 175 263 L 173 260 L 171 260 L 168 262 L 160 263 L 157 266 L 159 267 L 159 269 L 156 273 L 157 278 L 153 281 L 151 284 L 149 283 L 149 281 L 152 279 L 151 273 L 155 267 L 150 275 L 146 275 L 145 276 L 149 278 L 148 283 L 145 286 L 145 288 L 146 288 L 148 285 L 150 285 L 152 288 L 151 292 L 153 293 L 153 295 L 150 297 L 150 299 L 148 301 L 146 301 L 142 298 L 142 296 L 145 294 L 140 290 L 138 290 L 136 293 L 134 293 L 131 291 L 131 289 L 135 285 L 142 273 L 141 272 L 133 273 L 130 270 L 130 268 L 133 266 L 134 264 L 133 261 L 137 257 L 140 258 L 139 261 L 141 263 L 141 261 L 143 260 L 147 263 L 144 265 L 143 264 L 144 265 L 147 264 L 147 262 L 150 260 L 148 258 L 149 255 L 146 255 L 145 254 L 145 252 L 147 250 L 148 250 L 150 253 L 156 253 L 157 254 L 153 259 L 152 259 L 158 254 L 158 247 L 159 246 L 161 246 L 163 250 L 169 250 L 166 246 L 167 243 L 169 243 L 171 245 L 176 244 L 177 245 L 177 248 L 182 250 L 182 252 L 179 254 L 178 256 L 180 258 L 184 253 L 188 253 L 189 254 L 189 257 L 192 257 L 194 261 L 196 260 L 195 258 L 192 257 L 192 255 L 194 252 L 193 252 L 192 254 L 190 254 L 189 252 L 186 250 L 185 247 L 182 247 L 180 245 L 182 242 L 184 243 L 181 241 L 182 237 L 182 238 L 176 244 L 173 242 L 173 240 L 186 228 L 189 229 L 187 232 L 191 228 L 194 227 L 192 226 L 183 229 L 182 226 L 184 225 L 187 221 L 186 220 L 183 220 L 181 222 L 179 222 L 177 219 L 177 222 L 178 223 L 181 223 L 184 220 L 187 222 L 175 231 L 172 228 L 172 222 L 168 223 L 165 220 L 166 218 L 173 217 L 176 214 L 176 211 L 178 209 L 181 209 L 182 210 L 178 217 L 183 211 L 185 211 L 187 213 L 189 213 L 192 215 L 195 215 L 198 218 L 200 218 L 199 218 L 195 213 L 190 214 L 186 211 L 186 209 L 183 206 L 183 200 L 174 202 L 173 199 L 176 197 L 176 193 Z M 130 337 L 133 336 L 134 339 L 131 340 Z M 138 334 L 140 334 L 141 336 L 144 338 L 144 340 L 142 343 L 136 343 L 135 342 L 135 340 L 137 338 L 137 335 Z M 215 326 L 217 325 L 220 328 L 222 328 L 226 333 L 224 335 L 220 335 L 218 336 L 216 334 L 216 328 Z M 200 321 L 202 320 L 205 324 L 202 326 L 200 324 Z M 136 313 L 138 313 L 142 316 L 141 321 L 144 322 L 144 327 L 141 330 L 140 333 L 136 333 L 134 330 L 134 317 Z M 139 312 L 141 311 L 143 314 L 141 315 Z M 136 308 L 138 310 L 137 312 L 131 318 L 129 318 L 128 316 Z M 138 307 L 141 306 L 142 309 L 139 310 Z M 185 273 L 187 275 L 184 278 L 182 278 L 181 276 Z M 126 274 L 129 273 L 130 276 L 127 277 Z M 144 256 L 147 255 L 148 258 L 145 259 Z M 196 189 L 192 190 L 191 193 L 193 193 L 196 191 Z M 153 189 L 150 189 L 147 192 L 146 200 L 149 202 L 145 207 L 142 206 L 140 204 L 140 200 L 137 200 L 136 201 L 133 200 L 138 202 L 140 204 L 140 207 L 142 208 L 142 210 L 139 211 L 137 215 L 134 215 L 133 217 L 135 218 L 135 220 L 133 222 L 133 227 L 131 229 L 129 229 L 128 231 L 126 231 L 122 226 L 118 226 L 118 229 L 117 230 L 113 230 L 114 233 L 113 236 L 110 236 L 109 234 L 108 234 L 107 236 L 102 238 L 100 240 L 100 242 L 103 245 L 100 249 L 91 257 L 91 260 L 94 262 L 97 266 L 99 266 L 101 264 L 104 265 L 104 268 L 102 272 L 103 273 L 106 271 L 108 271 L 112 273 L 113 276 L 109 281 L 103 281 L 102 282 L 105 283 L 104 286 L 102 286 L 101 284 L 95 286 L 94 284 L 90 288 L 87 288 L 86 285 L 87 290 L 83 295 L 83 297 L 85 297 L 89 301 L 93 303 L 92 305 L 93 309 L 88 313 L 86 313 L 85 311 L 83 311 L 83 315 L 81 317 L 81 319 L 84 319 L 84 317 L 86 315 L 88 315 L 91 319 L 94 318 L 96 320 L 94 322 L 94 324 L 101 323 L 103 325 L 103 330 L 107 330 L 108 329 L 108 323 L 107 320 L 105 318 L 106 314 L 103 311 L 107 306 L 109 306 L 109 294 L 108 292 L 111 289 L 111 287 L 109 287 L 107 289 L 105 287 L 107 285 L 109 285 L 112 282 L 112 277 L 115 273 L 115 272 L 112 271 L 111 267 L 114 265 L 116 265 L 117 266 L 117 269 L 116 270 L 119 266 L 119 263 L 114 258 L 113 255 L 115 254 L 117 256 L 120 256 L 120 254 L 122 251 L 122 249 L 118 250 L 117 248 L 121 244 L 124 244 L 126 242 L 126 239 L 128 238 L 131 234 L 131 231 L 134 225 L 134 221 L 137 218 L 140 218 L 142 220 L 142 223 L 145 224 L 144 227 L 141 227 L 150 226 L 154 229 L 153 232 L 148 233 L 147 235 L 147 239 L 153 240 L 159 232 L 153 239 L 151 239 L 149 237 L 150 235 L 160 227 L 163 226 L 164 229 L 165 227 L 164 226 L 159 226 L 158 224 L 155 222 L 156 217 L 153 221 L 149 221 L 148 220 L 148 213 L 146 211 L 148 209 L 151 210 L 150 214 L 156 213 L 159 210 L 162 211 L 165 210 L 161 205 L 160 206 L 157 205 L 158 201 L 157 201 L 156 204 L 154 204 L 153 203 L 150 203 L 147 200 L 147 197 L 149 195 L 149 192 L 150 191 L 154 191 L 156 193 L 161 193 L 156 193 Z M 101 319 L 104 318 L 107 321 L 108 325 L 105 326 L 101 321 Z M 103 310 L 103 312 L 98 318 L 92 317 L 91 316 L 92 313 L 96 313 L 100 309 Z M 94 286 L 96 286 L 99 289 L 99 291 L 97 292 L 97 293 L 98 292 L 101 292 L 104 294 L 105 293 L 108 294 L 108 297 L 105 300 L 108 303 L 108 305 L 107 306 L 104 306 L 99 301 L 98 302 L 99 307 L 97 309 L 99 310 L 96 313 L 94 312 L 95 310 L 93 309 L 93 305 L 94 303 L 88 300 L 88 293 L 89 292 L 91 292 L 92 293 L 92 296 L 95 297 L 95 295 L 93 294 L 93 291 L 90 290 L 90 288 Z M 103 262 L 105 261 L 107 264 L 105 265 Z M 96 253 L 98 251 L 100 251 L 103 254 L 107 256 L 108 259 L 107 260 L 102 260 L 96 255 Z M 107 238 L 112 238 L 116 241 L 116 243 L 118 245 L 117 248 L 112 248 L 111 249 L 113 251 L 113 256 L 112 257 L 109 257 L 106 253 L 104 253 L 102 251 L 102 246 L 107 244 L 106 243 L 106 239 Z M 118 233 L 121 232 L 125 237 L 125 239 L 124 240 L 121 240 L 118 237 Z M 141 216 L 142 215 L 145 215 L 148 219 L 148 222 L 147 223 L 144 223 L 142 221 Z M 185 178 L 179 180 L 179 185 L 181 185 L 185 180 Z M 191 177 L 188 177 L 188 184 L 187 187 L 189 187 L 193 183 L 193 180 L 191 179 Z M 155 156 L 155 162 L 158 163 L 159 165 L 161 165 L 162 161 L 159 161 L 157 159 L 157 156 Z M 154 149 L 151 149 L 149 152 L 149 154 L 152 154 L 154 152 Z M 145 144 L 146 148 L 148 148 L 148 145 Z M 140 130 L 140 134 L 143 134 L 144 131 Z M 146 127 L 146 131 L 149 131 L 149 128 Z M 153 121 L 153 122 L 155 123 L 153 129 L 159 133 L 159 136 L 160 137 L 159 144 L 162 143 L 164 145 L 164 149 L 161 150 L 161 154 L 162 155 L 165 155 L 168 153 L 170 156 L 170 158 L 172 159 L 177 158 L 181 162 L 184 162 L 185 165 L 189 165 L 194 169 L 197 169 L 203 174 L 203 176 L 214 177 L 216 179 L 216 181 L 218 181 L 220 178 L 222 178 L 224 180 L 224 182 L 221 183 L 221 185 L 223 185 L 223 184 L 225 183 L 226 186 L 228 186 L 229 181 L 231 180 L 235 184 L 234 186 L 235 192 L 237 192 L 238 190 L 240 193 L 242 193 L 247 189 L 253 187 L 254 186 L 254 183 L 256 181 L 258 182 L 258 184 L 260 184 L 262 182 L 264 182 L 270 175 L 273 176 L 273 178 L 271 180 L 271 183 L 273 184 L 273 186 L 270 189 L 268 189 L 267 187 L 265 187 L 264 188 L 264 191 L 265 192 L 262 197 L 260 196 L 260 193 L 258 193 L 257 195 L 252 195 L 249 199 L 247 199 L 252 198 L 254 195 L 259 196 L 260 198 L 265 194 L 268 194 L 269 193 L 275 195 L 272 192 L 272 191 L 276 188 L 276 185 L 275 184 L 277 182 L 279 184 L 279 187 L 281 187 L 282 185 L 282 181 L 283 180 L 286 180 L 286 174 L 285 173 L 286 170 L 289 171 L 289 177 L 291 177 L 292 175 L 295 175 L 300 172 L 300 171 L 296 174 L 292 174 L 290 172 L 290 168 L 294 165 L 294 163 L 297 159 L 299 159 L 302 161 L 301 169 L 303 162 L 304 161 L 306 162 L 306 171 L 308 171 L 310 168 L 311 160 L 314 157 L 317 159 L 317 161 L 319 161 L 320 158 L 320 151 L 318 148 L 318 146 L 320 145 L 323 148 L 325 148 L 324 142 L 323 144 L 321 144 L 318 140 L 313 139 L 310 136 L 309 138 L 314 145 L 316 156 L 313 157 L 311 159 L 310 162 L 308 162 L 306 158 L 303 157 L 301 154 L 301 151 L 304 148 L 302 146 L 301 147 L 298 146 L 298 147 L 300 148 L 300 151 L 298 153 L 296 153 L 295 152 L 295 149 L 294 149 L 291 153 L 291 161 L 290 162 L 286 162 L 285 161 L 286 155 L 282 155 L 280 153 L 281 150 L 286 149 L 286 148 L 284 148 L 281 145 L 281 143 L 282 142 L 290 142 L 295 138 L 290 142 L 282 142 L 270 137 L 263 130 L 262 127 L 263 131 L 271 138 L 276 139 L 279 141 L 279 146 L 275 149 L 275 150 L 278 151 L 278 155 L 277 156 L 271 156 L 269 155 L 269 156 L 271 156 L 275 161 L 279 161 L 280 164 L 276 166 L 274 166 L 272 164 L 268 164 L 263 170 L 264 174 L 266 173 L 269 174 L 269 176 L 266 178 L 263 178 L 262 176 L 260 175 L 259 172 L 258 173 L 255 172 L 254 173 L 251 173 L 250 175 L 248 175 L 243 179 L 237 177 L 234 177 L 233 178 L 217 177 L 213 175 L 209 175 L 206 173 L 202 173 L 197 169 L 194 168 L 192 166 L 190 166 L 183 161 L 170 146 L 169 139 L 165 141 L 162 140 L 162 136 L 165 135 L 164 132 L 165 127 L 163 126 L 160 130 L 158 130 L 156 128 L 156 125 L 159 124 L 159 123 L 156 121 Z M 244 181 L 247 181 L 248 182 L 248 187 L 247 188 L 245 188 L 243 186 L 243 182 Z M 255 176 L 258 175 L 259 178 L 256 179 Z M 285 173 L 286 174 L 286 179 L 285 180 L 278 181 L 277 180 L 277 177 L 280 176 L 283 173 Z M 291 166 L 289 168 L 286 168 L 285 171 L 282 171 L 277 167 L 278 166 L 282 167 L 284 165 L 288 165 L 289 164 Z M 310 116 L 308 114 L 307 117 L 302 118 L 299 115 L 297 115 L 297 117 L 295 120 L 296 121 L 299 121 L 303 118 L 306 119 L 308 117 L 310 117 Z M 197 108 L 196 117 L 200 121 L 206 121 L 209 125 L 217 124 L 213 124 L 205 120 L 200 115 L 197 110 Z M 259 116 L 262 116 L 265 114 L 267 114 L 269 116 L 269 118 L 266 119 L 262 124 L 265 120 L 269 118 L 278 119 L 281 121 L 285 122 L 287 124 L 283 121 L 272 118 L 268 112 L 268 107 L 267 112 L 264 115 Z M 291 104 L 296 107 L 297 106 L 297 104 L 294 104 L 293 103 Z M 249 90 L 247 92 L 247 94 L 249 94 L 251 96 L 251 100 L 254 104 L 254 101 L 258 95 L 257 96 L 253 96 L 251 94 L 251 91 Z M 214 91 L 215 93 L 220 93 L 217 93 L 216 91 L 217 90 L 228 90 L 234 93 L 239 99 L 237 100 L 235 98 L 229 96 L 233 97 L 237 100 L 240 100 L 240 98 L 236 94 L 228 90 L 217 89 Z M 144 89 L 140 93 L 140 97 L 142 97 L 144 99 L 142 101 L 142 104 L 137 108 L 137 111 L 141 111 L 143 112 L 144 114 L 141 118 L 137 120 L 135 123 L 135 125 L 142 124 L 145 122 L 151 123 L 149 123 L 148 120 L 149 119 L 152 119 L 153 117 L 151 114 L 150 115 L 147 115 L 146 114 L 147 111 L 150 111 L 153 108 L 151 107 L 152 103 L 149 103 L 148 102 L 147 103 L 144 103 L 143 102 L 144 98 L 141 96 L 141 93 Z M 142 119 L 143 118 L 146 118 L 147 121 L 146 122 L 143 122 Z M 141 108 L 144 107 L 145 110 L 142 111 Z M 343 81 L 343 85 L 340 88 L 339 91 L 335 91 L 331 89 L 331 83 L 332 81 L 330 90 L 324 95 L 326 96 L 324 102 L 330 101 L 340 93 L 341 88 L 343 85 Z M 329 93 L 332 92 L 334 94 L 334 96 L 331 97 L 329 95 Z M 193 83 L 191 83 L 187 80 L 180 81 L 180 83 L 185 87 L 185 91 L 184 92 L 182 92 L 179 89 L 165 89 L 164 87 L 162 86 L 160 86 L 160 87 L 163 89 L 163 91 L 167 89 L 177 89 L 186 94 L 185 91 L 187 89 L 192 89 L 192 85 Z M 295 59 L 296 62 L 298 64 L 305 64 L 307 61 L 304 64 L 301 64 Z M 168 59 L 158 69 L 158 70 L 154 73 L 154 79 L 157 74 L 157 71 Z M 164 32 L 164 35 L 165 36 L 164 41 L 166 43 L 165 48 L 172 54 L 172 50 L 174 49 L 171 43 L 171 39 L 172 37 L 171 39 L 172 47 L 171 48 L 167 48 L 166 47 L 165 40 L 168 37 L 168 34 L 165 34 Z" fill="#D8D8D8" fill-rule="evenodd"/><path d="M 76 474 L 82 474 L 85 475 L 84 473 L 82 472 L 79 472 Z M 94 473 L 94 471 L 90 466 L 89 463 L 90 461 L 84 463 L 74 464 L 86 471 L 88 471 L 91 473 Z M 122 454 L 124 456 L 121 461 L 121 466 L 122 467 L 127 467 L 128 466 L 128 462 L 128 464 L 126 466 L 124 466 L 122 464 L 122 460 L 124 456 Z M 108 447 L 106 449 L 106 451 L 110 451 L 112 453 L 110 461 L 111 463 L 113 463 L 114 458 L 118 454 L 115 457 L 113 457 L 112 456 L 112 452 L 108 450 Z M 312 404 L 311 405 L 313 407 L 313 411 L 310 413 L 310 415 L 311 415 L 313 418 L 313 422 L 311 424 L 312 427 L 312 433 L 309 436 L 309 439 L 310 440 L 312 440 L 311 440 L 309 437 L 312 433 L 312 424 L 313 423 L 313 415 L 312 414 L 313 412 L 313 407 L 311 405 Z M 268 398 L 266 401 L 265 405 L 269 404 L 271 407 L 273 407 L 275 402 Z M 228 371 L 228 374 L 231 375 L 232 373 L 230 371 Z M 243 367 L 243 369 L 246 369 L 247 371 L 252 375 L 253 374 L 251 372 L 251 368 L 249 366 L 248 367 Z M 240 362 L 237 365 L 238 367 L 241 365 Z M 216 354 L 217 357 L 220 359 L 220 356 Z M 192 349 L 192 353 L 193 354 L 193 362 L 192 365 L 194 367 L 194 370 L 196 371 L 199 368 L 197 363 L 198 360 L 197 356 L 200 354 L 198 353 L 194 348 Z M 288 346 L 287 351 L 288 352 L 289 351 L 292 351 L 293 350 Z M 262 342 L 260 342 L 260 346 L 262 348 L 262 359 L 256 366 L 258 374 L 259 374 L 262 365 L 265 362 L 265 353 L 263 350 L 263 348 L 266 347 Z M 168 339 L 168 340 L 174 340 L 175 341 L 176 340 L 173 339 L 172 337 L 170 337 Z M 276 336 L 275 337 L 274 343 L 272 345 L 272 351 L 273 352 L 276 351 L 277 349 L 277 345 L 278 344 L 278 338 Z M 317 335 L 320 337 L 320 340 L 315 348 L 315 351 L 317 353 L 321 353 L 327 345 L 330 345 L 332 347 L 331 351 L 326 357 L 326 360 L 331 360 L 333 359 L 340 350 L 343 352 L 343 356 L 345 356 L 348 352 L 351 352 L 354 348 L 352 351 L 348 351 L 346 355 L 343 354 L 343 352 L 341 349 L 337 353 L 334 358 L 330 358 L 329 355 L 331 353 L 331 349 L 332 348 L 332 345 L 331 344 L 325 346 L 322 349 L 321 352 L 317 352 L 316 351 L 316 349 L 318 347 L 318 344 L 321 341 L 320 337 Z M 216 326 L 217 328 L 217 334 L 218 335 L 220 334 L 224 334 L 225 333 L 222 329 L 220 329 Z M 276 319 L 275 322 L 278 326 L 278 330 L 281 331 L 281 325 Z M 137 310 L 136 309 L 129 316 L 129 317 L 131 317 Z M 282 308 L 281 310 L 283 312 L 286 319 L 288 321 L 291 321 L 292 320 L 291 315 L 286 310 Z M 301 303 L 301 307 L 304 306 L 306 308 L 306 311 L 305 312 L 305 320 L 304 321 L 305 339 L 307 342 L 310 342 L 315 336 L 311 340 L 308 340 L 307 337 L 305 335 L 305 330 L 307 328 L 305 325 L 305 320 L 306 319 L 306 314 L 307 312 L 306 311 L 306 307 L 305 306 L 302 306 Z M 300 289 L 300 298 L 301 299 L 300 294 L 301 293 L 304 294 L 305 291 L 301 291 Z M 175 290 L 168 289 L 161 293 L 155 298 L 152 298 L 147 304 L 145 304 L 143 301 L 142 304 L 143 305 L 146 304 L 147 305 L 146 308 L 147 308 L 150 304 L 153 304 L 154 305 L 154 310 L 160 312 L 160 314 L 156 316 L 155 318 L 156 319 L 158 318 L 164 318 L 165 317 L 165 314 L 168 311 L 167 310 L 164 312 L 161 312 L 160 309 L 158 309 L 156 307 L 156 302 L 162 293 L 171 293 L 172 291 L 175 291 Z M 288 275 L 288 282 L 292 287 L 292 289 L 288 291 L 292 293 L 293 299 L 290 300 L 285 294 L 280 291 L 278 291 L 278 293 L 287 305 L 292 305 L 296 312 L 296 316 L 295 317 L 296 319 L 296 322 L 295 323 L 296 330 L 292 333 L 297 339 L 295 345 L 297 347 L 298 357 L 300 359 L 307 360 L 308 361 L 312 376 L 317 380 L 317 383 L 317 380 L 312 374 L 314 371 L 316 371 L 314 361 L 308 356 L 306 352 L 301 348 L 297 340 L 297 336 L 296 335 L 297 314 L 294 309 L 294 306 L 293 305 L 293 288 L 290 284 L 290 281 L 288 279 Z M 169 273 L 167 276 L 170 276 L 172 278 L 172 281 L 171 283 L 172 283 L 173 277 L 170 273 Z M 162 265 L 156 267 L 154 269 L 154 271 L 152 273 L 153 279 L 150 281 L 150 283 L 156 278 L 155 273 L 157 271 L 158 267 Z M 120 264 L 119 268 L 116 271 L 116 273 L 113 277 L 113 282 L 109 286 L 106 287 L 107 288 L 109 286 L 112 287 L 112 289 L 109 292 L 110 294 L 110 306 L 107 307 L 104 311 L 107 314 L 106 318 L 108 320 L 109 323 L 109 329 L 107 331 L 103 331 L 102 330 L 102 325 L 101 324 L 94 325 L 93 322 L 95 320 L 94 319 L 91 320 L 88 316 L 86 316 L 84 320 L 81 320 L 80 319 L 83 310 L 85 310 L 86 312 L 88 312 L 92 309 L 91 307 L 92 303 L 89 302 L 85 298 L 82 297 L 82 295 L 86 290 L 85 288 L 86 282 L 84 282 L 83 279 L 85 276 L 85 274 L 87 272 L 89 272 L 88 270 L 88 265 L 89 264 L 88 265 L 88 271 L 85 274 L 84 278 L 81 281 L 81 284 L 84 285 L 84 288 L 83 290 L 80 292 L 79 301 L 77 303 L 77 308 L 79 309 L 78 318 L 79 319 L 80 330 L 85 340 L 87 340 L 87 338 L 90 337 L 95 344 L 100 348 L 103 348 L 103 346 L 100 343 L 98 339 L 98 335 L 100 333 L 102 333 L 110 342 L 113 342 L 114 341 L 114 337 L 112 331 L 112 324 L 111 324 L 108 320 L 108 311 L 111 305 L 110 295 L 114 289 L 113 278 L 119 269 Z M 91 334 L 92 333 L 95 333 L 96 336 L 95 337 L 92 337 Z M 85 334 L 88 333 L 89 336 L 86 337 Z M 96 325 L 98 325 L 101 329 L 101 332 L 100 333 L 98 333 L 95 330 L 95 326 Z M 80 328 L 80 326 L 82 323 L 87 323 L 88 324 L 88 326 L 85 330 L 82 330 Z M 80 302 L 82 300 L 85 300 L 90 304 L 90 307 L 89 308 L 81 307 L 80 306 Z M 131 254 L 132 254 L 131 254 L 127 259 L 127 261 L 129 261 L 131 263 L 130 264 L 130 267 L 128 268 L 126 272 L 120 279 L 120 281 L 125 281 L 127 283 L 118 295 L 118 298 L 119 298 L 121 301 L 116 309 L 116 312 L 120 311 L 122 313 L 120 317 L 120 331 L 122 333 L 123 342 L 134 358 L 134 361 L 132 363 L 130 363 L 124 357 L 124 356 L 122 356 L 121 358 L 123 364 L 123 367 L 121 369 L 121 371 L 123 375 L 120 378 L 119 382 L 123 381 L 125 383 L 123 386 L 123 388 L 121 390 L 121 394 L 118 399 L 118 401 L 122 401 L 123 402 L 123 431 L 125 437 L 122 440 L 120 440 L 123 440 L 124 439 L 130 439 L 131 440 L 131 438 L 134 437 L 138 440 L 142 439 L 144 442 L 149 441 L 153 445 L 158 444 L 161 445 L 163 447 L 166 447 L 169 451 L 176 457 L 176 462 L 175 463 L 172 463 L 170 466 L 165 466 L 164 465 L 158 468 L 155 468 L 152 466 L 149 467 L 138 467 L 137 466 L 137 460 L 136 467 L 137 468 L 150 468 L 151 467 L 158 468 L 159 467 L 176 466 L 178 464 L 183 463 L 187 459 L 188 457 L 188 442 L 187 440 L 190 437 L 192 439 L 194 439 L 194 435 L 193 434 L 193 430 L 194 429 L 194 419 L 195 416 L 197 414 L 199 417 L 201 417 L 202 404 L 199 404 L 196 402 L 185 399 L 182 396 L 180 396 L 178 394 L 174 393 L 172 391 L 172 388 L 174 386 L 178 386 L 182 389 L 185 389 L 187 391 L 189 391 L 192 393 L 196 393 L 198 395 L 201 394 L 204 396 L 208 396 L 209 397 L 212 397 L 213 396 L 215 397 L 224 397 L 227 395 L 235 394 L 238 398 L 236 401 L 232 403 L 232 410 L 234 413 L 234 419 L 238 419 L 239 420 L 239 440 L 242 440 L 244 442 L 244 458 L 245 461 L 249 465 L 251 465 L 253 467 L 259 467 L 262 469 L 269 469 L 270 470 L 287 470 L 288 469 L 290 470 L 294 470 L 296 469 L 297 466 L 295 460 L 297 466 L 296 469 L 290 469 L 289 468 L 285 469 L 284 466 L 283 466 L 282 469 L 272 469 L 270 465 L 268 467 L 266 467 L 264 465 L 264 460 L 262 459 L 261 460 L 258 460 L 256 458 L 256 455 L 258 454 L 258 449 L 256 448 L 256 439 L 257 436 L 259 434 L 258 433 L 258 427 L 259 424 L 262 421 L 255 417 L 252 417 L 249 413 L 246 413 L 243 410 L 243 406 L 245 404 L 247 404 L 252 410 L 254 408 L 258 408 L 260 404 L 259 403 L 258 404 L 252 403 L 251 400 L 253 398 L 258 399 L 262 394 L 262 387 L 261 386 L 262 383 L 271 382 L 273 380 L 273 379 L 272 380 L 269 380 L 268 377 L 270 375 L 272 375 L 275 372 L 277 366 L 274 366 L 269 372 L 265 373 L 264 374 L 265 375 L 264 378 L 261 378 L 258 382 L 253 382 L 246 388 L 244 388 L 243 385 L 245 383 L 245 379 L 241 381 L 241 384 L 240 385 L 238 385 L 236 383 L 228 383 L 226 381 L 225 378 L 212 369 L 211 365 L 208 362 L 207 363 L 207 366 L 209 368 L 209 372 L 208 373 L 208 381 L 209 384 L 208 385 L 201 385 L 200 384 L 194 385 L 191 381 L 190 376 L 187 376 L 185 372 L 186 369 L 185 368 L 182 368 L 181 367 L 181 364 L 175 360 L 175 357 L 177 356 L 179 353 L 181 353 L 182 355 L 184 354 L 183 351 L 186 347 L 184 346 L 180 346 L 175 352 L 172 353 L 171 360 L 174 369 L 173 370 L 169 369 L 167 371 L 164 371 L 163 370 L 163 368 L 168 364 L 168 361 L 167 360 L 162 364 L 160 369 L 157 370 L 156 369 L 156 363 L 157 360 L 152 358 L 152 349 L 156 346 L 159 347 L 158 351 L 160 356 L 160 352 L 161 351 L 165 351 L 165 347 L 166 346 L 165 345 L 162 345 L 161 342 L 158 342 L 155 345 L 151 345 L 149 343 L 149 337 L 150 336 L 155 337 L 158 334 L 158 332 L 156 332 L 153 335 L 151 335 L 150 332 L 149 332 L 147 335 L 145 336 L 145 347 L 144 348 L 132 348 L 131 347 L 132 344 L 131 341 L 129 339 L 129 337 L 133 334 L 131 332 L 131 330 L 133 328 L 133 324 L 132 321 L 129 322 L 127 319 L 125 319 L 123 317 L 123 314 L 124 311 L 126 309 L 128 309 L 131 305 L 132 300 L 133 299 L 137 300 L 143 294 L 143 293 L 141 293 L 140 294 L 134 295 L 133 294 L 128 294 L 127 292 L 125 291 L 126 288 L 129 288 L 130 289 L 134 285 L 136 279 L 131 278 L 129 281 L 122 281 L 121 280 L 121 278 L 130 267 L 131 261 L 133 259 L 130 259 L 129 258 L 129 256 Z M 248 447 L 251 446 L 253 449 L 253 451 L 250 452 L 248 449 Z M 186 432 L 189 431 L 190 434 L 187 435 Z M 179 431 L 182 430 L 183 431 L 183 434 L 180 435 L 179 434 Z M 183 429 L 186 428 L 187 431 L 184 432 Z M 247 429 L 251 426 L 255 426 L 256 427 L 256 431 L 254 433 L 248 433 L 247 432 Z M 141 420 L 142 419 L 145 419 L 146 420 L 146 423 L 144 425 L 142 425 L 141 424 Z M 154 401 L 157 400 L 158 403 L 155 404 Z M 135 400 L 138 401 L 138 403 L 136 405 L 137 407 L 138 407 L 140 404 L 143 405 L 142 412 L 138 415 L 135 414 L 136 410 L 133 412 L 131 412 L 130 409 L 127 407 L 127 405 L 129 403 Z M 254 392 L 257 391 L 258 394 L 255 395 Z M 122 395 L 122 393 L 124 391 L 127 392 L 127 394 L 125 396 Z M 220 382 L 221 381 L 225 382 L 226 383 L 226 386 L 223 387 L 220 384 Z M 121 329 L 121 323 L 122 322 L 125 322 L 130 324 L 130 326 L 125 330 L 122 330 Z M 128 294 L 132 297 L 132 300 L 130 302 L 129 305 L 123 307 L 122 304 L 124 301 L 124 296 L 126 294 Z M 146 252 L 146 254 L 149 254 L 150 255 L 149 258 L 150 259 L 153 258 L 156 255 L 156 254 L 150 254 L 148 251 Z M 285 240 L 282 243 L 281 251 L 284 254 L 287 253 L 288 254 L 288 257 L 286 258 L 283 262 L 280 262 L 280 264 L 286 269 L 287 272 L 284 266 L 284 262 L 286 260 L 288 260 L 291 263 L 291 265 L 293 267 L 293 269 L 295 271 L 295 274 L 297 277 L 297 283 L 300 285 L 299 284 L 300 280 L 297 279 L 297 271 L 298 269 L 296 267 L 296 265 L 299 261 L 298 260 L 296 262 L 294 262 L 291 259 L 293 253 L 292 250 L 289 247 Z M 203 235 L 200 235 L 196 238 L 190 245 L 186 245 L 182 243 L 181 245 L 182 246 L 185 246 L 187 250 L 189 251 L 191 247 L 198 240 L 198 239 L 200 237 L 202 237 Z M 218 234 L 217 233 L 214 234 L 213 236 L 217 236 Z M 188 229 L 186 229 L 182 232 L 174 240 L 174 242 L 176 243 L 181 238 L 182 235 L 185 233 Z M 163 227 L 154 232 L 150 237 L 153 238 L 159 231 L 163 229 Z M 113 222 L 106 228 L 105 230 L 106 234 L 100 239 L 97 240 L 97 242 L 99 242 L 101 244 L 98 249 L 89 258 L 89 260 L 92 262 L 91 263 L 92 262 L 90 260 L 90 257 L 97 250 L 98 250 L 102 245 L 99 242 L 99 240 L 102 237 L 107 235 L 108 233 L 106 231 L 106 229 L 109 227 Z M 140 219 L 137 219 L 135 221 L 135 225 L 132 231 L 132 234 L 131 236 L 127 239 L 127 242 L 124 245 L 121 245 L 118 248 L 118 249 L 120 248 L 123 249 L 121 256 L 120 257 L 117 257 L 114 255 L 115 258 L 119 262 L 119 260 L 124 252 L 124 248 L 126 244 L 134 233 L 138 236 L 138 239 L 135 243 L 135 245 L 133 248 L 134 253 L 135 252 L 134 250 L 134 246 L 138 242 L 138 239 L 140 237 L 139 235 L 137 235 L 135 233 L 135 230 L 141 226 L 144 226 L 144 224 L 141 223 L 141 220 Z M 120 211 L 118 214 L 115 215 L 115 218 L 117 219 L 117 220 L 115 221 L 118 220 L 117 216 L 120 214 Z M 181 210 L 178 210 L 177 211 L 177 214 L 173 218 L 166 219 L 168 222 L 170 221 L 173 222 L 173 228 L 175 230 L 186 222 L 184 221 L 181 224 L 178 224 L 176 222 L 177 216 L 180 213 Z M 149 220 L 153 220 L 156 216 L 162 212 L 159 211 L 156 214 L 150 215 L 149 214 L 150 210 L 148 210 L 147 211 L 149 213 Z M 278 167 L 282 170 L 285 170 L 287 174 L 287 180 L 286 181 L 283 181 L 283 185 L 281 188 L 278 187 L 278 184 L 277 183 L 276 184 L 277 185 L 277 188 L 273 191 L 273 192 L 276 195 L 278 195 L 280 197 L 282 195 L 284 195 L 287 197 L 295 193 L 299 193 L 303 195 L 307 195 L 311 199 L 310 202 L 321 213 L 321 215 L 319 217 L 321 219 L 319 217 L 321 215 L 321 213 L 313 205 L 311 202 L 311 199 L 303 192 L 303 187 L 299 182 L 303 176 L 306 176 L 309 173 L 311 167 L 314 164 L 319 165 L 319 162 L 317 162 L 316 159 L 314 158 L 312 160 L 311 163 L 311 168 L 308 172 L 305 171 L 305 162 L 304 162 L 301 172 L 295 176 L 292 176 L 291 178 L 288 177 L 288 171 L 285 170 L 286 167 L 289 167 L 290 166 L 289 165 L 288 166 L 284 166 L 282 168 Z M 262 125 L 264 130 L 270 136 L 282 141 L 290 141 L 295 137 L 295 134 L 293 131 L 293 129 L 290 126 L 278 120 L 269 119 L 265 121 Z M 217 91 L 217 92 L 220 92 L 221 93 L 224 93 L 233 96 L 238 99 L 234 94 L 228 91 Z M 157 96 L 157 101 L 158 103 L 160 103 L 161 106 L 163 107 L 177 108 L 180 106 L 182 106 L 187 101 L 187 97 L 186 95 L 177 90 L 167 90 L 160 93 Z M 146 81 L 146 83 L 148 83 L 149 85 L 146 88 L 143 88 L 137 96 L 137 98 L 141 98 L 142 100 L 139 103 L 135 110 L 135 112 L 138 112 L 139 115 L 134 123 L 134 126 L 138 126 L 139 127 L 137 139 L 139 139 L 140 137 L 142 138 L 143 152 L 146 152 L 147 153 L 147 156 L 150 163 L 151 169 L 148 171 L 147 178 L 141 183 L 141 186 L 136 192 L 133 192 L 129 195 L 129 197 L 130 197 L 131 199 L 129 201 L 127 201 L 120 207 L 126 202 L 133 199 L 136 200 L 137 199 L 140 199 L 141 200 L 141 204 L 145 206 L 148 202 L 145 200 L 146 192 L 150 188 L 153 188 L 156 192 L 164 193 L 166 197 L 168 196 L 172 197 L 173 193 L 176 192 L 177 193 L 177 197 L 174 199 L 174 201 L 183 199 L 184 200 L 184 206 L 187 209 L 187 211 L 190 213 L 195 212 L 199 217 L 201 217 L 206 215 L 208 213 L 212 214 L 214 212 L 218 211 L 221 208 L 223 208 L 224 210 L 228 206 L 232 206 L 237 202 L 249 198 L 252 194 L 257 194 L 258 192 L 260 192 L 261 193 L 261 196 L 262 196 L 264 192 L 263 191 L 263 188 L 265 186 L 267 186 L 268 188 L 270 188 L 272 186 L 272 184 L 270 183 L 270 180 L 272 178 L 272 176 L 270 176 L 264 183 L 258 185 L 257 182 L 255 183 L 255 186 L 253 188 L 247 190 L 242 194 L 240 194 L 238 191 L 237 193 L 235 193 L 233 189 L 234 184 L 231 181 L 230 181 L 230 184 L 228 187 L 226 187 L 225 184 L 224 184 L 223 186 L 221 186 L 220 183 L 223 182 L 222 179 L 220 179 L 218 182 L 216 182 L 214 178 L 203 177 L 202 174 L 197 170 L 194 170 L 189 166 L 185 166 L 184 163 L 181 163 L 177 159 L 174 160 L 170 159 L 168 154 L 165 156 L 162 156 L 160 154 L 160 150 L 163 149 L 164 151 L 163 149 L 163 145 L 162 144 L 161 145 L 158 144 L 158 140 L 159 139 L 158 133 L 152 129 L 154 123 L 151 124 L 145 123 L 142 125 L 139 125 L 138 126 L 135 126 L 134 125 L 134 123 L 138 118 L 141 117 L 143 113 L 141 112 L 137 112 L 136 111 L 136 108 L 141 104 L 141 101 L 143 99 L 139 97 L 139 93 L 144 88 L 146 88 L 150 85 L 149 80 Z M 204 200 L 207 199 L 208 200 L 208 203 L 205 204 L 204 203 Z M 189 199 L 192 199 L 194 201 L 194 207 L 193 208 L 191 208 L 188 205 L 188 200 Z M 228 193 L 228 191 L 230 189 L 233 190 L 233 192 L 231 194 Z M 196 188 L 197 191 L 193 194 L 191 194 L 190 191 L 192 189 Z M 185 177 L 186 180 L 181 186 L 179 186 L 178 185 L 178 180 L 181 179 L 183 177 Z M 191 176 L 192 179 L 194 180 L 194 183 L 189 188 L 187 188 L 186 187 L 187 184 L 187 177 L 188 176 Z M 169 165 L 170 164 L 173 164 L 174 167 L 173 168 L 170 168 Z M 155 155 L 158 156 L 158 159 L 159 160 L 162 160 L 163 161 L 163 163 L 161 166 L 159 166 L 158 164 L 156 164 L 154 162 L 154 156 Z M 154 148 L 155 149 L 155 152 L 152 155 L 149 155 L 148 154 L 149 150 L 151 148 Z M 144 144 L 147 143 L 149 145 L 149 148 L 146 149 L 144 146 Z M 139 130 L 142 129 L 145 131 L 145 133 L 143 135 L 140 135 L 139 134 Z M 145 127 L 148 126 L 150 128 L 150 131 L 149 132 L 146 132 L 145 131 Z M 315 72 L 310 75 L 310 78 L 312 80 L 312 82 L 317 88 L 320 95 L 323 95 L 329 90 L 331 80 L 326 73 L 323 72 Z M 163 33 L 162 35 L 162 42 L 164 48 L 166 51 L 171 55 L 171 56 L 163 63 L 172 55 L 164 48 L 165 43 L 163 41 L 164 38 Z M 186 30 L 178 31 L 173 36 L 172 43 L 174 48 L 176 50 L 178 50 L 182 45 L 184 45 L 192 40 L 192 36 L 190 33 Z" fill="#B1B1B1" fill-rule="evenodd"/><path d="M 1 475 L 2 481 L 5 487 L 9 492 L 19 498 L 26 499 L 22 498 L 12 492 L 4 483 L 1 477 Z M 477 473 L 476 477 L 470 487 L 461 495 L 451 499 L 459 498 L 469 492 L 473 487 L 476 481 Z M 188 125 L 190 132 L 200 143 L 207 147 L 213 149 L 216 149 L 217 150 L 234 150 L 243 146 L 247 142 L 247 141 L 244 139 L 239 145 L 234 147 L 230 147 L 229 148 L 222 148 L 221 147 L 213 146 L 201 140 L 194 133 L 192 129 L 192 125 L 191 124 Z M 198 104 L 198 108 L 201 114 L 206 119 L 212 122 L 222 122 L 229 119 L 234 114 L 234 110 L 233 108 L 227 103 L 220 100 L 212 99 L 211 98 L 206 98 L 201 100 Z M 263 95 L 260 95 L 257 98 L 255 102 L 255 111 L 259 115 L 261 115 L 264 113 L 267 108 L 267 99 L 266 97 Z M 203 77 L 199 77 L 195 81 L 193 87 L 193 90 L 194 93 L 196 95 L 200 94 L 204 90 L 206 86 L 206 80 Z M 267 68 L 267 70 L 269 72 L 275 75 L 279 79 L 282 78 L 282 75 L 277 69 L 272 66 L 270 66 Z M 214 53 L 213 52 L 208 52 L 202 54 L 198 57 L 198 59 L 201 61 L 207 58 L 211 58 L 214 56 Z M 172 14 L 167 17 L 160 24 L 157 29 L 155 35 L 155 45 L 156 46 L 156 49 L 159 53 L 159 57 L 152 64 L 147 72 L 138 80 L 138 86 L 135 88 L 129 95 L 129 99 L 131 101 L 131 103 L 127 110 L 127 116 L 129 118 L 128 124 L 127 125 L 127 129 L 131 135 L 131 142 L 132 145 L 136 149 L 138 158 L 141 162 L 141 167 L 139 170 L 139 173 L 136 175 L 136 178 L 132 182 L 132 185 L 126 190 L 123 191 L 119 195 L 119 199 L 113 205 L 113 208 L 105 215 L 105 221 L 97 228 L 96 233 L 91 238 L 92 244 L 90 246 L 89 249 L 82 257 L 82 259 L 80 262 L 81 267 L 78 272 L 78 274 L 75 278 L 73 284 L 73 292 L 71 295 L 71 300 L 70 301 L 70 319 L 71 320 L 72 332 L 75 337 L 75 339 L 79 345 L 86 351 L 90 353 L 93 353 L 96 355 L 99 355 L 100 356 L 113 355 L 114 356 L 115 368 L 113 372 L 112 386 L 115 390 L 115 392 L 112 396 L 111 404 L 112 406 L 116 409 L 116 414 L 115 415 L 116 433 L 113 436 L 111 436 L 103 441 L 100 445 L 98 450 L 98 459 L 96 461 L 91 461 L 90 462 L 92 468 L 95 471 L 94 474 L 91 474 L 88 472 L 86 472 L 78 468 L 73 464 L 65 466 L 65 470 L 73 473 L 77 473 L 79 471 L 82 471 L 84 472 L 86 475 L 101 476 L 102 477 L 128 478 L 129 479 L 148 479 L 149 480 L 174 480 L 175 481 L 270 481 L 271 480 L 299 480 L 300 479 L 316 479 L 317 478 L 328 478 L 329 477 L 341 477 L 342 476 L 359 475 L 360 474 L 373 472 L 375 471 L 376 469 L 374 467 L 363 465 L 362 464 L 357 464 L 356 463 L 337 461 L 335 459 L 335 452 L 331 444 L 319 435 L 319 432 L 320 431 L 320 410 L 323 408 L 324 405 L 322 395 L 320 392 L 320 389 L 323 386 L 323 369 L 324 368 L 337 368 L 338 367 L 344 366 L 351 362 L 360 352 L 362 348 L 363 340 L 366 335 L 366 331 L 368 329 L 368 310 L 366 307 L 366 304 L 364 300 L 364 295 L 365 294 L 364 293 L 364 289 L 359 279 L 358 272 L 355 268 L 352 261 L 350 259 L 350 250 L 345 245 L 345 241 L 344 239 L 340 235 L 331 221 L 332 215 L 322 206 L 320 201 L 315 194 L 315 191 L 310 185 L 310 183 L 313 180 L 315 176 L 318 173 L 320 173 L 324 169 L 327 163 L 326 159 L 330 156 L 332 151 L 331 141 L 335 137 L 335 132 L 333 128 L 333 121 L 332 120 L 330 110 L 332 108 L 336 107 L 339 105 L 346 98 L 350 89 L 350 77 L 346 68 L 346 66 L 336 56 L 328 52 L 324 52 L 323 51 L 312 51 L 304 55 L 301 55 L 289 45 L 279 41 L 269 30 L 267 29 L 259 30 L 252 24 L 248 22 L 242 22 L 240 26 L 236 26 L 233 24 L 226 24 L 222 29 L 213 29 L 208 21 L 205 18 L 197 13 L 191 11 L 180 11 L 177 13 Z M 213 405 L 223 405 L 224 406 L 228 425 L 232 430 L 232 444 L 233 447 L 236 450 L 236 455 L 234 457 L 198 457 L 196 455 L 196 448 L 199 445 L 201 440 L 201 427 L 206 422 L 210 408 Z M 179 17 L 187 16 L 198 20 L 205 28 L 205 33 L 204 34 L 205 36 L 211 34 L 217 34 L 218 33 L 220 33 L 223 35 L 232 36 L 230 33 L 231 30 L 235 30 L 242 35 L 246 35 L 245 29 L 248 28 L 262 41 L 263 40 L 263 35 L 266 34 L 269 37 L 271 41 L 275 44 L 276 47 L 280 47 L 285 49 L 289 53 L 291 53 L 302 63 L 306 61 L 309 58 L 312 58 L 317 56 L 324 57 L 329 60 L 332 60 L 335 64 L 340 68 L 343 74 L 343 78 L 345 81 L 345 85 L 340 96 L 333 102 L 327 103 L 326 104 L 322 104 L 323 112 L 325 114 L 327 120 L 327 124 L 325 126 L 329 131 L 329 134 L 328 135 L 323 135 L 326 143 L 326 149 L 325 150 L 322 149 L 322 158 L 320 161 L 320 165 L 319 166 L 314 165 L 312 167 L 310 173 L 306 177 L 303 177 L 300 182 L 304 187 L 304 192 L 312 199 L 312 202 L 314 205 L 322 213 L 322 215 L 320 217 L 322 220 L 327 224 L 327 228 L 330 232 L 334 235 L 335 238 L 342 247 L 342 249 L 341 250 L 338 250 L 338 251 L 342 255 L 347 265 L 350 268 L 350 271 L 349 272 L 350 275 L 354 279 L 355 281 L 355 286 L 359 291 L 359 293 L 357 295 L 357 298 L 360 302 L 360 306 L 362 309 L 362 315 L 361 317 L 363 320 L 363 322 L 362 323 L 360 323 L 358 321 L 357 322 L 358 323 L 358 329 L 359 330 L 358 337 L 357 338 L 357 343 L 354 350 L 351 353 L 348 353 L 345 357 L 343 357 L 342 356 L 342 352 L 340 351 L 333 360 L 331 361 L 326 361 L 325 360 L 325 357 L 330 351 L 331 348 L 330 346 L 327 346 L 321 354 L 317 354 L 314 351 L 314 348 L 319 340 L 319 337 L 316 336 L 310 343 L 307 343 L 304 339 L 304 332 L 303 331 L 303 321 L 304 320 L 304 312 L 305 311 L 305 308 L 304 307 L 303 308 L 300 307 L 300 299 L 299 298 L 299 289 L 300 286 L 296 283 L 296 277 L 294 274 L 294 271 L 290 265 L 290 263 L 288 261 L 285 262 L 285 266 L 288 271 L 289 279 L 291 281 L 291 284 L 294 288 L 294 305 L 295 306 L 295 309 L 298 314 L 298 322 L 297 323 L 297 335 L 298 336 L 298 340 L 302 348 L 304 349 L 307 352 L 309 356 L 315 361 L 316 368 L 317 369 L 317 371 L 314 372 L 313 374 L 318 380 L 318 383 L 317 384 L 313 384 L 312 385 L 312 388 L 315 392 L 317 398 L 319 400 L 319 404 L 318 405 L 314 405 L 313 404 L 312 405 L 314 407 L 314 412 L 313 413 L 314 415 L 314 423 L 313 424 L 313 433 L 311 435 L 310 438 L 315 441 L 317 441 L 323 445 L 328 451 L 328 453 L 326 455 L 328 458 L 328 463 L 326 465 L 324 465 L 323 464 L 323 460 L 322 458 L 319 455 L 315 455 L 315 458 L 318 464 L 318 467 L 316 469 L 305 470 L 304 469 L 303 462 L 299 457 L 296 457 L 295 458 L 297 462 L 298 468 L 294 471 L 290 471 L 289 470 L 287 471 L 270 471 L 269 470 L 262 470 L 259 468 L 253 468 L 251 466 L 249 466 L 244 461 L 243 458 L 243 442 L 238 440 L 238 420 L 234 420 L 233 419 L 233 413 L 231 410 L 231 403 L 233 401 L 236 400 L 237 397 L 235 395 L 233 395 L 232 396 L 227 396 L 224 398 L 215 398 L 214 397 L 209 398 L 208 397 L 204 397 L 201 395 L 198 396 L 196 394 L 192 394 L 189 392 L 187 392 L 185 390 L 182 390 L 178 387 L 174 387 L 173 388 L 173 391 L 176 393 L 178 393 L 180 395 L 182 395 L 185 398 L 203 404 L 202 417 L 199 418 L 197 415 L 195 419 L 195 429 L 194 430 L 195 439 L 192 440 L 190 438 L 188 440 L 189 442 L 189 457 L 183 464 L 178 465 L 176 467 L 169 467 L 168 468 L 159 468 L 158 469 L 155 469 L 154 468 L 151 468 L 150 469 L 137 469 L 135 467 L 135 463 L 137 457 L 136 456 L 133 456 L 129 461 L 129 466 L 127 468 L 122 468 L 120 466 L 120 461 L 123 456 L 121 454 L 119 454 L 115 458 L 114 463 L 111 464 L 109 461 L 111 453 L 105 451 L 105 449 L 109 446 L 110 444 L 120 439 L 122 439 L 124 437 L 122 431 L 122 402 L 118 402 L 117 401 L 117 399 L 120 394 L 120 390 L 122 388 L 122 386 L 124 383 L 123 382 L 121 383 L 118 382 L 119 378 L 122 375 L 120 371 L 120 369 L 122 367 L 122 364 L 120 358 L 122 355 L 124 355 L 130 362 L 133 361 L 133 358 L 122 342 L 121 333 L 119 331 L 119 317 L 121 313 L 120 312 L 116 313 L 115 312 L 115 309 L 120 301 L 120 300 L 117 298 L 117 295 L 126 283 L 125 282 L 120 282 L 119 279 L 125 272 L 127 268 L 129 267 L 129 264 L 130 263 L 127 262 L 126 259 L 131 253 L 133 253 L 132 248 L 134 245 L 134 243 L 137 239 L 137 236 L 135 234 L 133 235 L 125 248 L 125 252 L 120 260 L 121 267 L 114 278 L 115 289 L 111 295 L 112 305 L 109 311 L 109 320 L 110 322 L 113 324 L 113 331 L 115 337 L 115 341 L 113 343 L 110 343 L 102 334 L 99 335 L 99 339 L 101 343 L 104 346 L 103 349 L 100 349 L 97 347 L 90 338 L 88 338 L 87 341 L 84 340 L 80 333 L 79 327 L 78 326 L 78 319 L 77 318 L 78 309 L 76 308 L 76 303 L 78 301 L 79 292 L 81 291 L 83 288 L 83 285 L 80 284 L 80 281 L 83 278 L 84 274 L 87 271 L 87 265 L 91 262 L 88 260 L 88 258 L 97 249 L 100 244 L 97 243 L 96 240 L 105 234 L 104 232 L 105 228 L 113 221 L 116 220 L 116 219 L 114 218 L 114 215 L 119 212 L 119 207 L 127 200 L 130 199 L 130 198 L 128 197 L 128 195 L 133 191 L 136 191 L 140 186 L 140 183 L 146 178 L 147 171 L 150 169 L 149 163 L 146 156 L 146 153 L 143 153 L 142 152 L 141 138 L 140 138 L 139 140 L 136 139 L 138 127 L 134 127 L 133 126 L 133 123 L 138 115 L 138 113 L 135 113 L 134 110 L 138 103 L 141 100 L 141 99 L 137 99 L 136 96 L 143 87 L 146 87 L 148 85 L 148 84 L 145 83 L 145 81 L 148 79 L 150 79 L 152 73 L 158 67 L 158 66 L 160 64 L 162 64 L 162 63 L 170 56 L 170 55 L 167 53 L 163 48 L 161 42 L 161 35 L 164 29 L 168 24 L 170 23 L 171 21 Z M 17 3 L 8 9 L 2 19 L 1 24 L 1 22 L 6 13 Z M 453 1 L 455 1 L 461 4 L 471 13 L 476 22 L 477 26 L 476 19 L 470 9 L 465 5 L 459 2 Z" fill="#010101" fill-rule="evenodd"/></g></svg>